<?xml version="1.0" encoding="UTF-8" standalone="no"?>
<!DOCTYPE svg PUBLIC "-//W3C//DTD SVG 1.1//EN"
 "http://www.w3.org/Graphics/SVG/1.1/DTD/svg11.dtd">
<!-- Generated by graphviz version 2.40.1 (20161225.0304)
 -->
<!-- Title: advancedcompileroptionsdlg.h Pages: 1 -->
<svg width="298pt" height="84pt"
 viewBox="0.00 0.00 297.50 84.00" xmlns="http://www.w3.org/2000/svg" xmlns:xlink="http://www.w3.org/1999/xlink">
<g id="graph0" class="graph" transform="scale(1 1) rotate(0) translate(4 80)">
<title>advancedcompileroptionsdlg.h</title>
<!-- Node21 -->
<g id="node1" class="node">
<title>Node21</title>
<polygon fill="#bfbfbf" stroke="#000000" points="82,-56.5 82,-75.5 228,-75.5 228,-56.5 82,-56.5"/>
<text text-anchor="middle" x="155" y="-63.5" font-family="FreeSans" font-size="10.00" fill="#000000">advancedcompileroptionsdlg.h</text>
</g>
<!-- Node22 -->
<g id="node2" class="node">
<title>Node22</title>
<g id="a_node2"><a xlink:href="advancedcompileroptionsdlg_8cpp" target="_top" xlink:title="advancedcompileroptionsdlg.cpp">
<polygon fill="none" stroke="#000000" points="0,-.5 0,-19.5 156,-19.5 156,-.5 0,-.5"/>
<text text-anchor="middle" x="78" y="-7.5" font-family="FreeSans" font-size="10.00" fill="#000000">advancedcompileroptionsdlg.cpp</text>
</a>
</g>
</g>
<!-- Node21&#45;&gt;Node22 -->
<g id="edge1" class="edge">
<title>Node21&#45;&gt;Node22</title>
<path fill="none" stroke="#191970" d="M133.2884,-50.2097C119.7647,-40.3743 102.8042,-28.0394 91.2587,-19.6427"/>
<polygon fill="#191970" stroke="#191970" points="131.4416,-53.1944 141.5876,-56.2455 135.5589,-47.5332 131.4416,-53.1944"/>
</g>
<!-- Node23 -->
<g id="node3" class="node">
<title>Node23</title>
<g id="a_node3"><a xlink:href="compileroptionsdlg_8cpp" target="_top" xlink:title="compileroptionsdlg.cpp">
<polygon fill="none" stroke="#000000" points="174.5,-.5 174.5,-19.5 289.5,-19.5 289.5,-.5 174.5,-.5"/>
<text text-anchor="middle" x="232" y="-7.5" font-family="FreeSans" font-size="10.00" fill="#000000">compileroptionsdlg.cpp</text>
</a>
</g>
</g>
<!-- Node21&#45;&gt;Node23 -->
<g id="edge2" class="edge">
<title>Node21&#45;&gt;Node23</title>
<path fill="none" stroke="#191970" d="M176.7116,-50.2097C190.2353,-40.3743 207.1958,-28.0394 218.7413,-19.6427"/>
<polygon fill="#191970" stroke="#191970" points="174.4411,-47.5332 168.4124,-56.2455 178.5584,-53.1944 174.4411,-47.5332"/>
</g>
</g>
</svg>
