<?xml version="1.0" encoding="UTF-8" standalone="no"?>
<!DOCTYPE svg PUBLIC "-//W3C//DTD SVG 1.1//EN"
 "http://www.w3.org/Graphics/SVG/1.1/DTD/svg11.dtd">
<!-- Generated by graphviz version 2.40.1 (20161225.0304)
 -->
<!-- Title: advancedcompileroptionsdlg.cpp Pages: 1 -->
<svg width="2197pt" height="252pt"
 viewBox="0.00 0.00 2197.00 252.00" xmlns="http://www.w3.org/2000/svg" xmlns:xlink="http://www.w3.org/1999/xlink">
<g id="graph0" class="graph" transform="scale(1 1) rotate(0) translate(4 248)">
<title>advancedcompileroptionsdlg.cpp</title>
<!-- Node0 -->
<g id="node1" class="node">
<title>Node0</title>
<polygon fill="#bfbfbf" stroke="#000000" points="1479,-224.5 1479,-243.5 1635,-243.5 1635,-224.5 1479,-224.5"/>
<text text-anchor="middle" x="1557" y="-231.5" font-family="FreeSans" font-size="10.00" fill="#000000">advancedcompileroptionsdlg.cpp</text>
</g>
<!-- Node1 -->
<g id="node2" class="node">
<title>Node1</title>
<g id="a_node2"><a xlink:href="sdk_8h" target="_top" xlink:title="sdk.h">
<polygon fill="none" stroke="#000000" points="1513.5,-168.5 1513.5,-187.5 1552.5,-187.5 1552.5,-168.5 1513.5,-168.5"/>
<text text-anchor="middle" x="1533" y="-175.5" font-family="FreeSans" font-size="10.00" fill="#000000">sdk.h</text>
</a>
</g>
</g>
<!-- Node0&#45;&gt;Node1 -->
<g id="edge1" class="edge">
<title>Node0&#45;&gt;Node1</title>
<path fill="none" stroke="#191970" d="M1552.8195,-224.2455C1549.619,-216.7776 1545.104,-206.2427 1541.1916,-197.1137"/>
<polygon fill="#191970" stroke="#191970" points="1544.2888,-195.4554 1537.1326,-187.6427 1537.8548,-198.2129 1544.2888,-195.4554"/>
</g>
<!-- Node137 -->
<g id="node32" class="node">
<title>Node137</title>
<g id="a_node32"><a xlink:href="advancedcompileroptionsdlg_8h" target="_top" xlink:title="advancedcompileroptionsdlg.h">
<polygon fill="none" stroke="#000000" points="1961,-112.5 1961,-131.5 2107,-131.5 2107,-112.5 1961,-112.5"/>
<text text-anchor="middle" x="2034" y="-119.5" font-family="FreeSans" font-size="10.00" fill="#000000">advancedcompileroptionsdlg.h</text>
</a>
</g>
</g>
<!-- Node0&#45;&gt;Node137 -->
<g id="edge35" class="edge">
<title>Node0&#45;&gt;Node137</title>
<path fill="none" stroke="#191970" d="M1597.6688,-224.4509C1684.6192,-204.0349 1888.4052,-156.1858 1983.4848,-133.861"/>
<polygon fill="#191970" stroke="#191970" points="1984.499,-137.2181 1993.4342,-131.5249 1982.8989,-130.4035 1984.499,-137.2181"/>
</g>
<!-- Node2 -->
<g id="node3" class="node">
<title>Node2</title>
<g id="a_node3"><a xlink:href="sdk__common_8h" target="_top" xlink:title="sdk_common.h">
<polygon fill="none" stroke="#ff0000" points="1105,-112.5 1105,-131.5 1187,-131.5 1187,-112.5 1105,-112.5"/>
<text text-anchor="middle" x="1146" y="-119.5" font-family="FreeSans" font-size="10.00" fill="#000000">sdk_common.h</text>
</a>
</g>
</g>
<!-- Node1&#45;&gt;Node2 -->
<g id="edge2" class="edge">
<title>Node1&#45;&gt;Node2</title>
<path fill="none" stroke="#191970" d="M1513.2766,-175.146C1455.2556,-166.7502 1283.8091,-141.9414 1197.241,-129.4147"/>
<polygon fill="#191970" stroke="#191970" points="1197.5162,-125.9182 1187.118,-127.9499 1196.5136,-132.846 1197.5162,-125.9182"/>
</g>
<!-- Node3 -->
<g id="node4" class="node">
<title>Node3</title>
<polygon fill="none" stroke="#bfbfbf" points="601,-56.5 601,-75.5 669,-75.5 669,-56.5 601,-56.5"/>
<text text-anchor="middle" x="635" y="-63.5" font-family="FreeSans" font-size="10.00" fill="#000000">wx/wxprec.h</text>
</g>
<!-- Node2&#45;&gt;Node3 -->
<g id="edge3" class="edge">
<title>Node2&#45;&gt;Node3</title>
<path fill="none" stroke="#191970" d="M1104.761,-119.7605C1024.6235,-115.0176 842.1657,-102.3083 679.3846,-76.0424"/>
<polygon fill="#191970" stroke="#191970" points="679.6209,-72.5346 669.1871,-74.3747 678.4911,-79.4428 679.6209,-72.5346"/>
</g>
<!-- Node4 -->
<g id="node5" class="node">
<title>Node4</title>
<g id="a_node5"><a xlink:href="prep_8h" target="_top" xlink:title="prep.h">
<polygon fill="none" stroke="#000000" points="687.5,-56.5 687.5,-75.5 730.5,-75.5 730.5,-56.5 687.5,-56.5"/>
<text text-anchor="middle" x="709" y="-63.5" font-family="FreeSans" font-size="10.00" fill="#000000">prep.h</text>
</a>
</g>
</g>
<!-- Node2&#45;&gt;Node4 -->
<g id="edge4" class="edge">
<title>Node2&#45;&gt;Node4</title>
<path fill="none" stroke="#191970" d="M1104.9375,-120.0542C1032.8847,-116.0565 879.0105,-104.918 740.4771,-75.6873"/>
<polygon fill="#191970" stroke="#191970" points="741.0425,-72.229 730.5305,-73.5512 739.5727,-79.0729 741.0425,-72.229"/>
</g>
<!-- Node5 -->
<g id="node6" class="node">
<title>Node5</title>
<polygon fill="none" stroke="#bfbfbf" points="749,-56.5 749,-75.5 803,-75.5 803,-56.5 749,-56.5"/>
<text text-anchor="middle" x="776" y="-63.5" font-family="FreeSans" font-size="10.00" fill="#000000">wx/app.h</text>
</g>
<!-- Node2&#45;&gt;Node5 -->
<g id="edge5" class="edge">
<title>Node2&#45;&gt;Node5</title>
<path fill="none" stroke="#191970" d="M1104.8222,-118.1249C1043.3255,-111.9465 923.7387,-98.4245 813.0297,-75.9839"/>
<polygon fill="#191970" stroke="#191970" points="813.5319,-72.514 803.0318,-73.9277 812.1217,-79.3705 813.5319,-72.514"/>
</g>
<!-- Node6 -->
<g id="node7" class="node">
<title>Node6</title>
<polygon fill="none" stroke="#bfbfbf" points="1354,-56.5 1354,-75.5 1414,-75.5 1414,-56.5 1354,-56.5"/>
<text text-anchor="middle" x="1384" y="-63.5" font-family="FreeSans" font-size="10.00" fill="#000000">wx/arrstr.h</text>
</g>
<!-- Node2&#45;&gt;Node6 -->
<g id="edge6" class="edge">
<title>Node2&#45;&gt;Node6</title>
<path fill="none" stroke="#191970" d="M1187.002,-112.6845C1227.0769,-103.53 1289.7948,-89.0713 1344,-76 1344.1,-75.9759 1344.2002,-75.9517 1344.3005,-75.9275"/>
<polygon fill="#191970" stroke="#191970" points="1344.9887,-79.3624 1353.8724,-73.5891 1343.3274,-72.5624 1344.9887,-79.3624"/>
</g>
<!-- Node7 -->
<g id="node8" class="node">
<title>Node7</title>
<polygon fill="none" stroke="#bfbfbf" points="1432.5,-56.5 1432.5,-75.5 1511.5,-75.5 1511.5,-56.5 1432.5,-56.5"/>
<text text-anchor="middle" x="1472" y="-63.5" font-family="FreeSans" font-size="10.00" fill="#000000">wx/bmpbuttn.h</text>
</g>
<!-- Node2&#45;&gt;Node7 -->
<g id="edge7" class="edge">
<title>Node2&#45;&gt;Node7</title>
<path fill="none" stroke="#191970" d="M1187.3811,-115.6144C1239.6408,-107.4428 1332.5681,-92.5566 1422.3612,-76.0639"/>
<polygon fill="#191970" stroke="#191970" points="1423.2455,-79.4598 1432.444,-74.2025 1421.9747,-72.5761 1423.2455,-79.4598"/>
</g>
<!-- Node8 -->
<g id="node9" class="node">
<title>Node8</title>
<polygon fill="none" stroke="#bfbfbf" points="1529.5,-56.5 1529.5,-75.5 1594.5,-75.5 1594.5,-56.5 1529.5,-56.5"/>
<text text-anchor="middle" x="1562" y="-63.5" font-family="FreeSans" font-size="10.00" fill="#000000">wx/button.h</text>
</g>
<!-- Node2&#45;&gt;Node8 -->
<g id="edge8" class="edge">
<title>Node2&#45;&gt;Node8</title>
<path fill="none" stroke="#191970" d="M1187.1778,-118.448C1254.5508,-112.3075 1392.6762,-98.3432 1519.1947,-75.975"/>
<polygon fill="#191970" stroke="#191970" points="1519.831,-79.4169 1529.0579,-74.2097 1518.5976,-72.5264 1519.831,-79.4169"/>
</g>
<!-- Node9 -->
<g id="node10" class="node">
<title>Node9</title>
<polygon fill="none" stroke="#bfbfbf" points="1613,-56.5 1613,-75.5 1693,-75.5 1693,-56.5 1613,-56.5"/>
<text text-anchor="middle" x="1653" y="-63.5" font-family="FreeSans" font-size="10.00" fill="#000000">wx/checkbox.h</text>
</g>
<!-- Node2&#45;&gt;Node9 -->
<g id="edge9" class="edge">
<title>Node2&#45;&gt;Node9</title>
<path fill="none" stroke="#191970" d="M1187.1318,-119.2053C1267.397,-113.4546 1450.4072,-98.8838 1603,-76 1603.1012,-75.9848 1603.2026,-75.9696 1603.304,-75.9543"/>
<polygon fill="#191970" stroke="#191970" points="1603.6445,-79.4454 1612.9431,-74.3672 1602.5073,-72.5384 1603.6445,-79.4454"/>
</g>
<!-- Node10 -->
<g id="node11" class="node">
<title>Node10</title>
<polygon fill="none" stroke="#bfbfbf" points="1711,-56.5 1711,-75.5 1785,-75.5 1785,-56.5 1711,-56.5"/>
<text text-anchor="middle" x="1748" y="-63.5" font-family="FreeSans" font-size="10.00" fill="#000000">wx/checklst.h</text>
</g>
<!-- Node2&#45;&gt;Node10 -->
<g id="edge10" class="edge">
<title>Node2&#45;&gt;Node10</title>
<path fill="none" stroke="#191970" d="M1187.0193,-120.454C1277.8696,-116.6334 1503.0108,-104.9832 1700.921,-75.9828"/>
<polygon fill="#191970" stroke="#191970" points="1701.5422,-79.429 1710.9202,-74.4992 1700.5147,-72.5048 1701.5422,-79.429"/>
</g>
<!-- Node11 -->
<g id="node12" class="node">
<title>Node11</title>
<polygon fill="none" stroke="#bfbfbf" points="1841.5,-56.5 1841.5,-75.5 1908.5,-75.5 1908.5,-56.5 1841.5,-56.5"/>
<text text-anchor="middle" x="1875" y="-63.5" font-family="FreeSans" font-size="10.00" fill="#000000">wx/choice.h</text>
</g>
<!-- Node2&#45;&gt;Node11 -->
<g id="edge11" class="edge">
<title>Node2&#45;&gt;Node11</title>
<path fill="none" stroke="#191970" d="M1187.2696,-121.1932C1293.7062,-118.6841 1586.0414,-109.0771 1827,-76 1828.4495,-75.801 1829.9206,-75.5837 1831.4041,-75.3514"/>
<polygon fill="#191970" stroke="#191970" points="1832.0199,-78.7969 1841.2727,-73.6361 1830.8211,-71.9003 1832.0199,-78.7969"/>
</g>
<!-- Node12 -->
<g id="node13" class="node">
<title>Node12</title>
<polygon fill="none" stroke="#bfbfbf" points="0,-56.5 0,-75.5 74,-75.5 74,-56.5 0,-56.5"/>
<text text-anchor="middle" x="37" y="-63.5" font-family="FreeSans" font-size="10.00" fill="#000000">wx/choicdlg.h</text>
</g>
<!-- Node2&#45;&gt;Node12 -->
<g id="edge12" class="edge">
<title>Node2&#45;&gt;Node12</title>
<path fill="none" stroke="#191970" d="M1104.9168,-121.1612C937.5142,-117.6006 305.6495,-102.7365 83.9886,-75.8732"/>
<polygon fill="#191970" stroke="#191970" points="84.4205,-72.4 74.0622,-74.626 83.5478,-79.3454 84.4205,-72.4"/>
</g>
<!-- Node13 -->
<g id="node14" class="node">
<title>Node13</title>
<polygon fill="none" stroke="#bfbfbf" points="92,-56.5 92,-75.5 164,-75.5 164,-56.5 92,-56.5"/>
<text text-anchor="middle" x="128" y="-63.5" font-family="FreeSans" font-size="10.00" fill="#000000">wx/colordlg.h</text>
</g>
<!-- Node2&#45;&gt;Node13 -->
<g id="edge13" class="edge">
<title>Node2&#45;&gt;Node13</title>
<path fill="none" stroke="#191970" d="M1104.9003,-120.9968C946.7781,-116.9938 376.8468,-101.2103 174.1991,-75.9058"/>
<polygon fill="#191970" stroke="#191970" points="174.6207,-72.4313 164.2536,-74.6162 173.7205,-79.3732 174.6207,-72.4313"/>
</g>
<!-- Node14 -->
<g id="node15" class="node">
<title>Node14</title>
<polygon fill="none" stroke="#bfbfbf" points="182.5,-56.5 182.5,-75.5 265.5,-75.5 265.5,-56.5 182.5,-56.5"/>
<text text-anchor="middle" x="224" y="-63.5" font-family="FreeSans" font-size="10.00" fill="#000000">wx/combobox.h</text>
</g>
<!-- Node2&#45;&gt;Node14 -->
<g id="edge14" class="edge">
<title>Node2&#45;&gt;Node14</title>
<path fill="none" stroke="#191970" d="M1104.9013,-120.6226C957.7931,-115.5713 457.0144,-97.3052 275.6097,-76.0132"/>
<polygon fill="#191970" stroke="#191970" points="276.0179,-72.5371 265.668,-74.8024 275.1715,-79.4858 276.0179,-72.5371"/>
</g>
<!-- Node15 -->
<g id="node16" class="node">
<title>Node15</title>
<polygon fill="none" stroke="#bfbfbf" points="283.5,-56.5 283.5,-75.5 360.5,-75.5 360.5,-56.5 283.5,-56.5"/>
<text text-anchor="middle" x="322" y="-63.5" font-family="FreeSans" font-size="10.00" fill="#000000">wx/confbase.h</text>
</g>
<!-- Node2&#45;&gt;Node15 -->
<g id="edge15" class="edge">
<title>Node2&#45;&gt;Node15</title>
<path fill="none" stroke="#191970" d="M1104.9927,-121.6755C990.4285,-120.3215 657.1977,-113.331 370.8551,-75.9107"/>
<polygon fill="#191970" stroke="#191970" points="371.0617,-72.4077 360.6892,-74.5667 370.1442,-79.3473 371.0617,-72.4077"/>
</g>
<!-- Node16 -->
<g id="node17" class="node">
<title>Node16</title>
<polygon fill="none" stroke="#bfbfbf" points="379,-56.5 379,-75.5 455,-75.5 455,-56.5 379,-56.5"/>
<text text-anchor="middle" x="417" y="-63.5" font-family="FreeSans" font-size="10.00" fill="#000000">wx/datetime.h</text>
</g>
<!-- Node2&#45;&gt;Node16 -->
<g id="edge16" class="edge">
<title>Node2&#45;&gt;Node16</title>
<path fill="none" stroke="#191970" d="M1104.6614,-121.2578C999.4543,-118.9326 712.9298,-109.869 465.0526,-75.9615"/>
<polygon fill="#191970" stroke="#191970" points="465.5246,-72.4935 455.1391,-74.5891 464.5647,-79.4274 465.5246,-72.4935"/>
</g>
<!-- Node17 -->
<g id="node18" class="node">
<title>Node17</title>
<polygon fill="none" stroke="#bfbfbf" points="473,-56.5 473,-75.5 545,-75.5 545,-56.5 473,-56.5"/>
<text text-anchor="middle" x="509" y="-63.5" font-family="FreeSans" font-size="10.00" fill="#000000">wx/dcclient.h</text>
</g>
<!-- Node2&#45;&gt;Node17 -->
<g id="edge17" class="edge">
<title>Node2&#45;&gt;Node17</title>
<path fill="none" stroke="#191970" d="M1104.8986,-120.4656C1008.9291,-116.5155 762.772,-104.2589 559,-76 557.7423,-75.8256 556.4685,-75.6393 555.1844,-75.4431"/>
<polygon fill="#191970" stroke="#191970" points="555.6757,-71.9766 545.2345,-73.7744 554.5179,-78.8802 555.6757,-71.9766"/>
</g>
<!-- Node18 -->
<g id="node19" class="node">
<title>Node18</title>
<polygon fill="none" stroke="#bfbfbf" points="1185,-.5 1185,-19.5 1249,-19.5 1249,-.5 1185,-.5"/>
<text text-anchor="middle" x="1217" y="-7.5" font-family="FreeSans" font-size="10.00" fill="#000000">wx/dialog.h</text>
</g>
<!-- Node2&#45;&gt;Node18 -->
<g id="edge18" class="edge">
<title>Node2&#45;&gt;Node18</title>
<path fill="none" stroke="#191970" d="M1104.733,-121.717C982.1528,-120.4513 626.5588,-113.5473 592,-76 585.9803,-69.4597 585.9497,-62.512 592,-56 611.8484,-34.6371 1036.885,-16.7905 1174.4514,-11.556"/>
<polygon fill="#191970" stroke="#191970" points="1174.7447,-15.0475 1184.6055,-11.1728 1174.4806,-8.0525 1174.7447,-15.0475"/>
</g>
<!-- Node19 -->
<g id="node20" class="node">
<title>Node19</title>
<polygon fill="none" stroke="#bfbfbf" points="821.5,-56.5 821.5,-75.5 870.5,-75.5 870.5,-56.5 821.5,-56.5"/>
<text text-anchor="middle" x="846" y="-63.5" font-family="FreeSans" font-size="10.00" fill="#000000">wx/dir.h</text>
</g>
<!-- Node2&#45;&gt;Node19 -->
<g id="edge19" class="edge">
<title>Node2&#45;&gt;Node19</title>
<path fill="none" stroke="#191970" d="M1104.6941,-116.3593C1054.0914,-109.1186 965.6157,-95.3916 880.606,-75.9262"/>
<polygon fill="#191970" stroke="#191970" points="881.3274,-72.5006 870.7951,-73.6501 879.7454,-79.3195 881.3274,-72.5006"/>
</g>
<!-- Node20 -->
<g id="node21" class="node">
<title>Node20</title>
<polygon fill="none" stroke="#bfbfbf" points="1843,-.5 1843,-19.5 1917,-19.5 1917,-.5 1843,-.5"/>
<text text-anchor="middle" x="1880" y="-7.5" font-family="FreeSans" font-size="10.00" fill="#000000">wx/dynarray.h</text>
</g>
<!-- Node2&#45;&gt;Node20 -->
<g id="edge20" class="edge">
<title>Node2&#45;&gt;Node20</title>
<path fill="none" stroke="#191970" d="M1187.1082,-120.4572C1320.7318,-115.2523 1737.4552,-97.4594 1794,-76 1821.5708,-65.5366 1847.6088,-43.1569 1863.6617,-27.3676"/>
<polygon fill="#191970" stroke="#191970" points="1866.5807,-29.3915 1871.1015,-19.8096 1861.592,-24.481 1866.5807,-29.3915"/>
</g>
<!-- Node21 -->
<g id="node22" class="node">
<title>Node21</title>
<polygon fill="none" stroke="#bfbfbf" points="889,-56.5 889,-75.5 951,-75.5 951,-56.5 889,-56.5"/>
<text text-anchor="middle" x="920" y="-63.5" font-family="FreeSans" font-size="10.00" fill="#000000">wx/event.h</text>
</g>
<!-- Node2&#45;&gt;Node21 -->
<g id="edge21" class="edge">
<title>Node2&#45;&gt;Node21</title>
<path fill="none" stroke="#191970" d="M1107.1624,-112.4254C1071.5871,-103.6482 1017.1992,-90.2126 960.8103,-76.1974"/>
<polygon fill="#191970" stroke="#191970" points="961.556,-72.7763 951.0069,-73.76 959.867,-79.5695 961.556,-72.7763"/>
</g>
<!-- Node22 -->
<g id="node23" class="node">
<title>Node22</title>
<polygon fill="none" stroke="#bfbfbf" points="969,-56.5 969,-75.5 1019,-75.5 1019,-56.5 969,-56.5"/>
<text text-anchor="middle" x="994" y="-63.5" font-family="FreeSans" font-size="10.00" fill="#000000">wx/file.h</text>
</g>
<!-- Node2&#45;&gt;Node22 -->
<g id="edge22" class="edge">
<title>Node2&#45;&gt;Node22</title>
<path fill="none" stroke="#191970" d="M1119.8703,-112.3733C1094.6964,-103.0987 1056.4528,-89.0089 1028.7275,-78.7943"/>
<polygon fill="#191970" stroke="#191970" points="1029.6259,-75.3954 1019.0325,-75.2225 1027.206,-81.9638 1029.6259,-75.3954"/>
</g>
<!-- Node23 -->
<g id="node24" class="node">
<title>Node23</title>
<polygon fill="none" stroke="#bfbfbf" points="1037.5,-56.5 1037.5,-75.5 1100.5,-75.5 1100.5,-56.5 1037.5,-56.5"/>
<text text-anchor="middle" x="1069" y="-63.5" font-family="FreeSans" font-size="10.00" fill="#000000">wx/filedlg.h</text>
</g>
<!-- Node2&#45;&gt;Node23 -->
<g id="edge23" class="edge">
<title>Node2&#45;&gt;Node23</title>
<path fill="none" stroke="#191970" d="M1132.5876,-112.2455C1120.9943,-103.814 1104.0252,-91.4729 1090.5322,-81.6598"/>
<polygon fill="#191970" stroke="#191970" points="1092.4047,-78.6938 1082.2587,-75.6427 1088.2874,-84.355 1092.4047,-78.6938"/>
</g>
<!-- Node24 -->
<g id="node25" class="node">
<title>Node24</title>
<polygon fill="none" stroke="#bfbfbf" points="2019,-.5 2019,-19.5 2093,-19.5 2093,-.5 2019,-.5"/>
<text text-anchor="middle" x="2056" y="-7.5" font-family="FreeSans" font-size="10.00" fill="#000000">wx/filename.h</text>
</g>
<!-- Node2&#45;&gt;Node24 -->
<g id="edge24" class="edge">
<title>Node2&#45;&gt;Node24</title>
<path fill="none" stroke="#191970" d="M1187.117,-120.9479C1355.3926,-116.5 1984.3809,-98.4315 2020,-76 2036.5114,-65.6018 2046.0154,-44.8398 2051.0653,-29.3649"/>
<polygon fill="#191970" stroke="#191970" points="2054.4476,-30.2682 2053.8813,-19.6885 2047.7264,-28.3122 2054.4476,-30.2682"/>
</g>
<!-- Node25 -->
<g id="node26" class="node">
<title>Node25</title>
<polygon fill="none" stroke="#bfbfbf" points="1118.5,-56.5 1118.5,-75.5 1173.5,-75.5 1173.5,-56.5 1118.5,-56.5"/>
<text text-anchor="middle" x="1146" y="-63.5" font-family="FreeSans" font-size="10.00" fill="#000000">wx/font.h</text>
</g>
<!-- Node2&#45;&gt;Node25 -->
<g id="edge25" class="edge">
<title>Node2&#45;&gt;Node25</title>
<path fill="none" stroke="#191970" d="M1146,-112.2455C1146,-104.9382 1146,-94.6944 1146,-85.7046"/>
<polygon fill="#191970" stroke="#191970" points="1149.5001,-85.6426 1146,-75.6427 1142.5001,-85.6427 1149.5001,-85.6426"/>
</g>
<!-- Node26 -->
<g id="node27" class="node">
<title>Node26</title>
<polygon fill="none" stroke="#bfbfbf" points="1191.5,-56.5 1191.5,-75.5 1254.5,-75.5 1254.5,-56.5 1191.5,-56.5"/>
<text text-anchor="middle" x="1223" y="-63.5" font-family="FreeSans" font-size="10.00" fill="#000000">wx/frame.h</text>
</g>
<!-- Node2&#45;&gt;Node26 -->
<g id="edge26" class="edge">
<title>Node2&#45;&gt;Node26</title>
<path fill="none" stroke="#191970" d="M1159.4124,-112.2455C1171.0057,-103.814 1187.9748,-91.4729 1201.4678,-81.6598"/>
<polygon fill="#191970" stroke="#191970" points="1203.7126,-84.355 1209.7413,-75.6427 1199.5953,-78.6938 1203.7126,-84.355"/>
</g>
<!-- Node27 -->
<g id="node28" class="node">
<title>Node27</title>
<polygon fill="none" stroke="#bfbfbf" points="1272.5,-56.5 1272.5,-75.5 1335.5,-75.5 1335.5,-56.5 1272.5,-56.5"/>
<text text-anchor="middle" x="1304" y="-63.5" font-family="FreeSans" font-size="10.00" fill="#000000">wx/fs_zip.h</text>
</g>
<!-- Node2&#45;&gt;Node27 -->
<g id="edge27" class="edge">
<title>Node2&#45;&gt;Node27</title>
<path fill="none" stroke="#191970" d="M1173.1612,-112.3733C1199.2067,-103.1419 1238.7116,-89.1402 1267.4979,-78.9375"/>
<polygon fill="#191970" stroke="#191970" points="1268.937,-82.1408 1277.1933,-75.5011 1266.5985,-75.5429 1268.937,-82.1408"/>
</g>
<!-- Node53 -->
<g id="node29" class="node">
<title>Node53</title>
<polygon fill="none" stroke="#bfbfbf" points="2127,-.5 2127,-19.5 2189,-19.5 2189,-.5 2127,-.5"/>
<text text-anchor="middle" x="2158" y="-7.5" font-family="FreeSans" font-size="10.00" fill="#000000">wx/string.h</text>
</g>
<!-- Node2&#45;&gt;Node53 -->
<g id="edge28" class="edge">
<title>Node2&#45;&gt;Node53</title>
<path fill="none" stroke="#191970" d="M1187.1448,-121.4088C1369.7923,-118.6175 2099.9281,-105.6363 2138,-76 2151.8529,-65.2165 2156.3981,-45.1345 2157.7533,-29.943"/>
<polygon fill="#191970" stroke="#191970" points="2161.2707,-29.6749 2158.2691,-19.5142 2154.2793,-29.3291 2161.2707,-29.6749"/>
</g>
<!-- Node101 -->
<g id="node30" class="node">
<title>Node101</title>
<g id="a_node30"><a xlink:href="compiler_8h" target="_top" xlink:title="compiler.h">
<polygon fill="none" stroke="#ff0000" points="2068.5,-56.5 2068.5,-75.5 2129.5,-75.5 2129.5,-56.5 2068.5,-56.5"/>
<text text-anchor="middle" x="2099" y="-63.5" font-family="FreeSans" font-size="10.00" fill="#000000">compiler.h</text>
</a>
</g>
</g>
<!-- Node2&#45;&gt;Node101 -->
<g id="edge29" class="edge">
<title>Node2&#45;&gt;Node101</title>
<path fill="none" stroke="#191970" d="M1187.2129,-120.8336C1341.2317,-116.3313 1882.9239,-99.1745 2054,-76 2055.2937,-75.8248 2056.6052,-75.6312 2057.9271,-75.4225"/>
<polygon fill="#191970" stroke="#191970" points="2058.921,-78.7995 2068.1378,-73.5745 2057.6743,-71.9115 2058.921,-78.7995"/>
</g>
<!-- Node107 -->
<g id="node31" class="node">
<title>Node107</title>
<g id="a_node31"><a xlink:href="scrollingdialog_8h" target="_top" xlink:title="scrollingdialog.h">
<polygon fill="none" stroke="#ff0000" points="1926.5,-56.5 1926.5,-75.5 2011.5,-75.5 2011.5,-56.5 1926.5,-56.5"/>
<text text-anchor="middle" x="1969" y="-63.5" font-family="FreeSans" font-size="10.00" fill="#000000">scrollingdialog.h</text>
</a>
</g>
</g>
<!-- Node2&#45;&gt;Node107 -->
<g id="edge33" class="edge">
<title>Node2&#45;&gt;Node107</title>
<path fill="none" stroke="#191970" d="M1187.1294,-121.4308C1301.2717,-119.4504 1631.7246,-111 1916.1247,-75.9431"/>
<polygon fill="#191970" stroke="#191970" points="1916.7315,-79.3946 1926.2218,-74.6848 1915.8657,-72.4484 1916.7315,-79.3946"/>
</g>
<!-- Node101&#45;&gt;Node20 -->
<g id="edge32" class="edge">
<title>Node101&#45;&gt;Node20</title>
<path fill="none" stroke="#191970" d="M2068.0871,-58.0953C2031.4112,-48.717 1969.875,-32.9817 1927.2234,-22.0754"/>
<polygon fill="#191970" stroke="#191970" points="1927.9074,-18.6377 1917.352,-19.5512 1926.1732,-25.4195 1927.9074,-18.6377"/>
</g>
<!-- Node101&#45;&gt;Node24 -->
<g id="edge31" class="edge">
<title>Node101&#45;&gt;Node24</title>
<path fill="none" stroke="#191970" d="M2091.51,-56.2455C2085.4674,-48.3761 2076.8097,-37.101 2069.5559,-27.6542"/>
<polygon fill="#191970" stroke="#191970" points="2072.2705,-25.4426 2063.4042,-19.6427 2066.7185,-29.7058 2072.2705,-25.4426"/>
</g>
<!-- Node101&#45;&gt;Node53 -->
<g id="edge30" class="edge">
<title>Node101&#45;&gt;Node53</title>
<path fill="none" stroke="#191970" d="M2109.277,-56.2455C2117.8218,-48.1352 2130.1778,-36.4075 2140.3085,-26.7919"/>
<polygon fill="#191970" stroke="#191970" points="2142.9972,-29.0655 2147.8408,-19.6427 2138.1782,-23.9884 2142.9972,-29.0655"/>
</g>
<!-- Node107&#45;&gt;Node18 -->
<g id="edge34" class="edge">
<title>Node107&#45;&gt;Node18</title>
<path fill="none" stroke="#191970" d="M1926.2192,-57.3359C1923.1063,-56.8398 1920.009,-56.3867 1917,-56 1669.1641,-24.152 1368.9668,-13.8065 1259.5223,-10.9537"/>
<polygon fill="#191970" stroke="#191970" points="1259.3179,-7.4475 1249.2325,-10.6931 1259.1406,-14.4452 1259.3179,-7.4475"/>
</g>
<!-- Node137&#45;&gt;Node53 -->
<g id="edge37" class="edge">
<title>Node137&#45;&gt;Node53</title>
<path fill="none" stroke="#191970" d="M2081.1253,-112.4416C2116.6567,-104.1663 2161.0728,-91.1606 2172,-76 2181.9052,-62.2573 2176.1505,-42.9777 2169.2683,-28.8035"/>
<polygon fill="#191970" stroke="#191970" points="2172.3198,-27.0879 2164.5023,-19.9369 2166.1541,-30.4022 2172.3198,-27.0879"/>
</g>
<!-- Node137&#45;&gt;Node101 -->
<g id="edge38" class="edge">
<title>Node137&#45;&gt;Node101</title>
<path fill="none" stroke="#191970" d="M2045.3221,-112.2455C2054.9223,-103.9746 2068.8892,-91.9416 2080.1695,-82.2232"/>
<polygon fill="#191970" stroke="#191970" points="2082.516,-84.8214 2087.8076,-75.6427 2077.947,-79.5182 2082.516,-84.8214"/>
</g>
<!-- Node137&#45;&gt;Node107 -->
<g id="edge36" class="edge">
<title>Node137&#45;&gt;Node107</title>
<path fill="none" stroke="#191970" d="M2022.6779,-112.2455C2013.0777,-103.9746 1999.1108,-91.9416 1987.8305,-82.2232"/>
<polygon fill="#191970" stroke="#191970" points="1990.053,-79.5182 1980.1924,-75.6427 1985.484,-84.8214 1990.053,-79.5182"/>
</g>
</g>
</svg>
