<?xml version="1.0" encoding="UTF-8" standalone="no"?>
<!DOCTYPE svg PUBLIC "-//W3C//DTD SVG 1.1//EN"
 "http://www.w3.org/Graphics/SVG/1.1/DTD/svg11.dtd">
<!-- Generated by graphviz version 2.40.1 (20161225.0304)
 -->
<!-- Title: autodetectcompilers.h Pages: 1 -->
<svg width="250pt" height="84pt"
 viewBox="0.00 0.00 249.50 84.00" xmlns="http://www.w3.org/2000/svg" xmlns:xlink="http://www.w3.org/1999/xlink">
<g id="graph0" class="graph" transform="scale(1 1) rotate(0) translate(4 80)">
<title>autodetectcompilers.h</title>
<!-- Node5 -->
<g id="node1" class="node">
<title>Node5</title>
<polygon fill="#bfbfbf" stroke="#000000" points="70.5,-56.5 70.5,-75.5 181.5,-75.5 181.5,-56.5 70.5,-56.5"/>
<text text-anchor="middle" x="126" y="-63.5" font-family="FreeSans" font-size="10.00" fill="#000000">autodetectcompilers.h</text>
</g>
<!-- Node6 -->
<g id="node2" class="node">
<title>Node6</title>
<g id="a_node2"><a xlink:href="autodetectcompilers_8cpp" target="_top" xlink:title="autodetectcompilers.cpp">
<polygon fill="none" stroke="#000000" points="0,-.5 0,-19.5 122,-19.5 122,-.5 0,-.5"/>
<text text-anchor="middle" x="61" y="-7.5" font-family="FreeSans" font-size="10.00" fill="#000000">autodetectcompilers.cpp</text>
</a>
</g>
</g>
<!-- Node5&#45;&gt;Node6 -->
<g id="edge1" class="edge">
<title>Node5&#45;&gt;Node6</title>
<path fill="none" stroke="#191970" d="M107.0165,-49.645C95.7121,-39.9058 81.753,-27.8795 72.1924,-19.6427"/>
<polygon fill="#191970" stroke="#191970" points="104.8173,-52.3701 114.6779,-56.2455 109.3862,-47.0668 104.8173,-52.3701"/>
</g>
<!-- Node7 -->
<g id="node3" class="node">
<title>Node7</title>
<g id="a_node3"><a xlink:href="compilerfactory_8cpp" target="_top" xlink:title="compilerfactory.cpp">
<polygon fill="none" stroke="#000000" points="140.5,-.5 140.5,-19.5 241.5,-19.5 241.5,-.5 140.5,-.5"/>
<text text-anchor="middle" x="191" y="-7.5" font-family="FreeSans" font-size="10.00" fill="#000000">compilerfactory.cpp</text>
</a>
</g>
</g>
<!-- Node5&#45;&gt;Node7 -->
<g id="edge2" class="edge">
<title>Node5&#45;&gt;Node7</title>
<path fill="none" stroke="#191970" d="M144.9835,-49.645C156.2879,-39.9058 170.247,-27.8795 179.8076,-19.6427"/>
<polygon fill="#191970" stroke="#191970" points="142.6138,-47.0668 137.3221,-56.2455 147.1827,-52.3701 142.6138,-47.0668"/>
</g>
</g>
</svg>
