<?xml version="1.0" encoding="UTF-8" standalone="no"?>
<!DOCTYPE svg PUBLIC "-//W3C//DTD SVG 1.1//EN"
 "http://www.w3.org/Graphics/SVG/1.1/DTD/svg11.dtd">
<!-- Generated by graphviz version 2.40.1 (20161225.0304)
 -->
<!-- Title: backgroundthread.h Pages: 1 -->
<svg width="974pt" height="252pt"
 viewBox="0.00 0.00 973.60 252.00" xmlns="http://www.w3.org/2000/svg" xmlns:xlink="http://www.w3.org/1999/xlink">
<g id="graph0" class="graph" transform="scale(1 1) rotate(0) translate(4 248)">
<title>backgroundthread.h</title>
<!-- Node0 -->
<g id="node1" class="node">
<title>Node0</title>
<polygon fill="#bfbfbf" stroke="#000000" points="674.5998,-224.5 674.5998,-243.5 775.5998,-243.5 775.5998,-224.5 674.5998,-224.5"/>
<text text-anchor="middle" x="725.0998" y="-231.5" font-family="FreeSans" font-size="10.00" fill="#000000">backgroundthread.h</text>
</g>
<!-- Node1 -->
<g id="node2" class="node">
<title>Node1</title>
<g id="a_node2"><a xlink:href="safedelete_8h" target="_top" xlink:title="safedelete.h">
<polygon fill="none" stroke="#000000" points="660.0998,-168.5 660.0998,-187.5 728.0998,-187.5 728.0998,-168.5 660.0998,-168.5"/>
<text text-anchor="middle" x="694.0998" y="-175.5" font-family="FreeSans" font-size="10.00" fill="#000000">safedelete.h</text>
</a>
</g>
</g>
<!-- Node0&#45;&gt;Node1 -->
<g id="edge1" class="edge">
<title>Node0&#45;&gt;Node1</title>
<path fill="none" stroke="#191970" d="M719.7001,-224.2455C715.4771,-216.617 709.4826,-205.7881 704.3557,-196.5267"/>
<polygon fill="#191970" stroke="#191970" points="707.3431,-194.6965 699.4377,-187.6427 701.2188,-198.0867 707.3431,-194.6965"/>
</g>
<!-- Node4 -->
<g id="node5" class="node">
<title>Node4</title>
<polygon fill="none" stroke="#bfbfbf" points="642.5998,-112.5 642.5998,-131.5 671.5998,-131.5 671.5998,-112.5 642.5998,-112.5"/>
<text text-anchor="middle" x="657.0998" y="-119.5" font-family="FreeSans" font-size="10.00" fill="#000000">list</text>
</g>
<!-- Node0&#45;&gt;Node4 -->
<g id="edge8" class="edge">
<title>Node0&#45;&gt;Node4</title>
<path fill="none" stroke="#191970" d="M696.6618,-224.3621C680.172,-217.1374 660.8008,-205.4529 651.0998,-188 643.1711,-173.7355 645.8706,-155.0162 649.8548,-141.1579"/>
<polygon fill="#191970" stroke="#191970" points="653.1782,-142.2555 652.9972,-131.6622 646.5326,-140.0562 653.1782,-142.2555"/>
</g>
<!-- Node5 -->
<g id="node6" class="node">
<title>Node5</title>
<polygon fill="none" stroke="#bfbfbf" points="728.5998,-112.5 728.5998,-131.5 771.5998,-131.5 771.5998,-112.5 728.5998,-112.5"/>
<text text-anchor="middle" x="750.0998" y="-119.5" font-family="FreeSans" font-size="10.00" fill="#000000">deque</text>
</g>
<!-- Node0&#45;&gt;Node5 -->
<g id="edge7" class="edge">
<title>Node0&#45;&gt;Node5</title>
<path fill="none" stroke="#191970" d="M727.8485,-224.172C730.4013,-214.8872 734.2294,-200.5512 737.0998,-188 740.6391,-172.5241 744.0852,-154.874 746.5391,-141.7223"/>
<polygon fill="#191970" stroke="#191970" points="749.9828,-142.3473 748.3473,-131.8795 743.098,-141.0825 749.9828,-142.3473"/>
</g>
<!-- Node6 -->
<g id="node7" class="node">
<title>Node6</title>
<polygon fill="none" stroke="#bfbfbf" points="790.0998,-112.5 790.0998,-131.5 846.0998,-131.5 846.0998,-112.5 790.0998,-112.5"/>
<text text-anchor="middle" x="818.0998" y="-119.5" font-family="FreeSans" font-size="10.00" fill="#000000">algorithm</text>
</g>
<!-- Node0&#45;&gt;Node6 -->
<g id="edge9" class="edge">
<title>Node0&#45;&gt;Node6</title>
<path fill="none" stroke="#191970" d="M733.029,-224.4509C748.6775,-205.6054 783.7356,-163.3849 803.6169,-139.4419"/>
<polygon fill="#191970" stroke="#191970" points="806.4951,-141.4543 810.1908,-131.5249 801.1097,-136.9824 806.4951,-141.4543"/>
</g>
<!-- Node7 -->
<g id="node8" class="node">
<title>Node7</title>
<polygon fill="none" stroke="#bfbfbf" points="822.0998,-168.5 822.0998,-187.5 882.0998,-187.5 882.0998,-168.5 822.0998,-168.5"/>
<text text-anchor="middle" x="852.0998" y="-175.5" font-family="FreeSans" font-size="10.00" fill="#000000">wx/timer.h</text>
</g>
<!-- Node0&#45;&gt;Node7 -->
<g id="edge10" class="edge">
<title>Node0&#45;&gt;Node7</title>
<path fill="none" stroke="#191970" d="M746.9319,-224.3733C767.4101,-215.3435 798.2397,-201.7494 821.2318,-191.6111"/>
<polygon fill="#191970" stroke="#191970" points="822.8148,-194.7383 830.5527,-187.5011 819.9905,-188.3333 822.8148,-194.7383"/>
</g>
<!-- Node8 -->
<g id="node9" class="node">
<title>Node8</title>
<polygon fill="none" stroke="#bfbfbf" points="900.5998,-168.5 900.5998,-187.5 965.5998,-187.5 965.5998,-168.5 900.5998,-168.5"/>
<text text-anchor="middle" x="933.0998" y="-175.5" font-family="FreeSans" font-size="10.00" fill="#000000">wx/thread.h</text>
</g>
<!-- Node0&#45;&gt;Node8 -->
<g id="edge11" class="edge">
<title>Node0&#45;&gt;Node8</title>
<path fill="none" stroke="#191970" d="M760.8563,-224.3733C796.8955,-214.6704 852.5096,-199.6974 890.7387,-189.4049"/>
<polygon fill="#191970" stroke="#191970" points="891.7982,-192.7444 900.5445,-186.7649 889.9784,-185.9851 891.7982,-192.7444"/>
</g>
<!-- Node9 -->
<g id="node10" class="node">
<title>Node9</title>
<g id="a_node10"><a xlink:href="manager_8h" target="_top" xlink:title="manager.h">
<polygon fill="none" stroke="#000000" points="327.0998,-168.5 327.0998,-187.5 389.0998,-187.5 389.0998,-168.5 327.0998,-168.5"/>
<text text-anchor="middle" x="358.0998" y="-175.5" font-family="FreeSans" font-size="10.00" fill="#000000">manager.h</text>
</a>
</g>
</g>
<!-- Node0&#45;&gt;Node9 -->
<g id="edge12" class="edge">
<title>Node0&#45;&gt;Node9</title>
<path fill="none" stroke="#191970" d="M674.4554,-226.2722C601.2883,-215.1078 467.3828,-194.6753 399.6656,-184.3425"/>
<polygon fill="#191970" stroke="#191970" points="399.7987,-180.8223 389.3851,-182.7738 398.7427,-187.7422 399.7987,-180.8223"/>
</g>
<!-- Node26 -->
<g id="node23" class="node">
<title>Node26</title>
<g id="a_node23"><a xlink:href="blockallocated_8h" target="_top" xlink:title="blockallocated.h">
<polygon fill="none" stroke="#000000" points="447.0998,-112.5 447.0998,-131.5 533.0998,-131.5 533.0998,-112.5 447.0998,-112.5"/>
<text text-anchor="middle" x="490.0998" y="-119.5" font-family="FreeSans" font-size="10.00" fill="#000000">blockallocated.h</text>
</a>
</g>
</g>
<!-- Node0&#45;&gt;Node26 -->
<g id="edge33" class="edge">
<title>Node0&#45;&gt;Node26</title>
<path fill="none" stroke="#191970" d="M705.0639,-224.4509C663.5274,-204.6548 567.8729,-159.0663 519.3988,-135.9638"/>
<polygon fill="#191970" stroke="#191970" points="520.6181,-132.6677 510.0851,-131.5249 517.6065,-138.9868 520.6181,-132.6677"/>
</g>
<!-- Node2 -->
<g id="node3" class="node">
<title>Node2</title>
<polygon fill="none" stroke="#bfbfbf" points="589.5998,-112.5 589.5998,-131.5 624.5998,-131.5 624.5998,-112.5 589.5998,-112.5"/>
<text text-anchor="middle" x="607.0998" y="-119.5" font-family="FreeSans" font-size="10.00" fill="#000000">map</text>
</g>
<!-- Node1&#45;&gt;Node2 -->
<g id="edge2" class="edge">
<title>Node1&#45;&gt;Node2</title>
<path fill="none" stroke="#191970" d="M678.9456,-168.2455C665.5971,-159.6534 645.9412,-147.0014 630.5616,-137.1018"/>
<polygon fill="#191970" stroke="#191970" points="632.3835,-134.1121 622.0804,-131.6427 628.5947,-139.9982 632.3835,-134.1121"/>
</g>
<!-- Node3 -->
<g id="node4" class="node">
<title>Node3</title>
<polygon fill="none" stroke="#bfbfbf" points="566.5998,-.5 566.5998,-19.5 609.5998,-19.5 609.5998,-.5 566.5998,-.5"/>
<text text-anchor="middle" x="588.0998" y="-7.5" font-family="FreeSans" font-size="10.00" fill="#000000">vector</text>
</g>
<!-- Node1&#45;&gt;Node3 -->
<g id="edge3" class="edge">
<title>Node1&#45;&gt;Node3</title>
<path fill="none" stroke="#191970" d="M693.5959,-168.0732C692.5691,-154.6743 689.4631,-130.3664 680.0998,-112 662.2191,-76.9262 629.1412,-44.6712 607.9023,-26.1851"/>
<polygon fill="#191970" stroke="#191970" points="610.0182,-23.39 600.1333,-19.5768 605.4828,-28.722 610.0182,-23.39"/>
</g>
<!-- Node1&#45;&gt;Node4 -->
<g id="edge4" class="edge">
<title>Node1&#45;&gt;Node4</title>
<path fill="none" stroke="#191970" d="M687.6549,-168.2455C682.5616,-160.5367 675.309,-149.5598 669.1478,-140.2348"/>
<polygon fill="#191970" stroke="#191970" points="671.9037,-138.0566 663.4709,-131.6427 666.0633,-141.9155 671.9037,-138.0566"/>
</g>
<!-- Node1&#45;&gt;Node5 -->
<g id="edge5" class="edge">
<title>Node1&#45;&gt;Node5</title>
<path fill="none" stroke="#191970" d="M703.8543,-168.2455C711.9646,-160.1352 723.6923,-148.4075 733.3079,-138.7919"/>
<polygon fill="#191970" stroke="#191970" points="735.861,-141.1887 740.4572,-131.6427 730.9112,-136.2389 735.861,-141.1887"/>
</g>
<!-- Node1&#45;&gt;Node6 -->
<g id="edge6" class="edge">
<title>Node1&#45;&gt;Node6</title>
<path fill="none" stroke="#191970" d="M715.4162,-168.3733C735.3214,-159.3838 765.2434,-145.8706 787.6598,-135.7471"/>
<polygon fill="#191970" stroke="#191970" points="789.3885,-138.8068 797.0616,-131.5011 786.5074,-132.4272 789.3885,-138.8068"/>
</g>
<!-- Node9&#45;&gt;Node2 -->
<g id="edge13" class="edge">
<title>Node9&#45;&gt;Node2</title>
<path fill="none" stroke="#191970" d="M389.2189,-172.357C431.5509,-164.4641 509.5278,-149.1551 575.0998,-132 576.578,-131.6133 578.0894,-131.2007 579.6118,-130.7717"/>
<polygon fill="#191970" stroke="#191970" points="580.9967,-134.0112 589.5804,-127.8007 578.9973,-127.3028 580.9967,-134.0112"/>
</g>
<!-- Node9&#45;&gt;Node3 -->
<g id="edge14" class="edge">
<title>Node9&#45;&gt;Node3</title>
<path fill="none" stroke="#191970" d="M389.4428,-173.3495C435.5111,-165.9932 518.5942,-150.5831 542.0998,-132 573.9378,-106.8295 583.7429,-57.0721 586.7603,-29.5149"/>
<polygon fill="#191970" stroke="#191970" points="590.2501,-29.7848 587.6609,-19.5113 583.2783,-29.1572 590.2501,-29.7848"/>
</g>
<!-- Node10 -->
<g id="node11" class="node">
<title>Node10</title>
<polygon fill="none" stroke="#bfbfbf" points="201.0998,-56.5 201.0998,-75.5 263.0998,-75.5 263.0998,-56.5 201.0998,-56.5"/>
<text text-anchor="middle" x="232.0998" y="-63.5" font-family="FreeSans" font-size="10.00" fill="#000000">wx/event.h</text>
</g>
<!-- Node9&#45;&gt;Node10 -->
<g id="edge15" class="edge">
<title>Node9&#45;&gt;Node10</title>
<path fill="none" stroke="#191970" d="M371.5369,-168.4496C388.4299,-155.2729 413.5684,-130.9927 399.0998,-112 397.1339,-109.4193 321.8983,-89.4064 273.0911,-76.6419"/>
<polygon fill="#191970" stroke="#191970" points="273.9724,-73.2547 263.4126,-74.115 272.2041,-80.0277 273.9724,-73.2547"/>
</g>
<!-- Node11 -->
<g id="node12" class="node">
<title>Node11</title>
<polygon fill="none" stroke="#bfbfbf" points="235.0998,-112.5 235.0998,-131.5 307.0998,-131.5 307.0998,-112.5 235.0998,-112.5"/>
<text text-anchor="middle" x="271.0998" y="-119.5" font-family="FreeSans" font-size="10.00" fill="#000000">wx/cmdline.h</text>
</g>
<!-- Node9&#45;&gt;Node11 -->
<g id="edge16" class="edge">
<title>Node9&#45;&gt;Node11</title>
<path fill="none" stroke="#191970" d="M342.9456,-168.2455C329.5971,-159.6534 309.9412,-147.0014 294.5616,-137.1018"/>
<polygon fill="#191970" stroke="#191970" points="296.3835,-134.1121 286.0804,-131.6427 292.5947,-139.9982 296.3835,-134.1121"/>
</g>
<!-- Node12 -->
<g id="node13" class="node">
<title>Node12</title>
<g id="a_node13"><a xlink:href="settings_8h" target="_top" xlink:title="settings.h">
<polygon fill="none" stroke="#000000" points="106.5998,-.5 106.5998,-19.5 163.5998,-19.5 163.5998,-.5 106.5998,-.5"/>
<text text-anchor="middle" x="135.0998" y="-7.5" font-family="FreeSans" font-size="10.00" fill="#000000">settings.h</text>
</a>
</g>
</g>
<!-- Node9&#45;&gt;Node12 -->
<g id="edge17" class="edge">
<title>Node9&#45;&gt;Node12</title>
<path fill="none" stroke="#191970" d="M327.0425,-176.8019C256.8661,-173.5746 88.5561,-162.7596 42.0998,-132 11.2462,-111.5712 -13.1483,-86.2952 8.0998,-56 18.564,-41.0803 63.1333,-27.3215 96.5391,-18.8131"/>
<polygon fill="#191970" stroke="#191970" points="97.6331,-22.148 106.4979,-16.3457 95.9496,-15.3534 97.6331,-22.148"/>
</g>
<!-- Node13 -->
<g id="node14" class="node">
<title>Node13</title>
<g id="a_node14"><a xlink:href="sdk__events_8h" target="_top" xlink:title="sdk_events.h">
<polygon fill="none" stroke="#000000" points="145.0998,-112.5 145.0998,-131.5 217.0998,-131.5 217.0998,-112.5 145.0998,-112.5"/>
<text text-anchor="middle" x="181.0998" y="-119.5" font-family="FreeSans" font-size="10.00" fill="#000000">sdk_events.h</text>
</a>
</g>
</g>
<!-- Node9&#45;&gt;Node13 -->
<g id="edge18" class="edge">
<title>Node9&#45;&gt;Node13</title>
<path fill="none" stroke="#191970" d="M327.6725,-168.3733C298.1126,-159.021 253.0773,-144.7725 220.7303,-134.5385"/>
<polygon fill="#191970" stroke="#191970" points="221.7202,-131.1807 211.1302,-131.5011 219.6086,-137.8546 221.7202,-131.1807"/>
</g>
<!-- Node16 -->
<g id="node17" class="node">
<title>Node16</title>
<g id="a_node17"><a xlink:href="cbfunctor_8h" target="_top" xlink:title="cbfunctor.h">
<polygon fill="none" stroke="#000000" points="325.5998,-112.5 325.5998,-131.5 390.5998,-131.5 390.5998,-112.5 325.5998,-112.5"/>
<text text-anchor="middle" x="358.0998" y="-119.5" font-family="FreeSans" font-size="10.00" fill="#000000">cbfunctor.h</text>
</a>
</g>
</g>
<!-- Node9&#45;&gt;Node16 -->
<g id="edge23" class="edge">
<title>Node9&#45;&gt;Node16</title>
<path fill="none" stroke="#191970" d="M358.0998,-168.2455C358.0998,-160.9382 358.0998,-150.6944 358.0998,-141.7046"/>
<polygon fill="#191970" stroke="#191970" points="361.5999,-141.6426 358.0998,-131.6427 354.5999,-141.6427 361.5999,-141.6426"/>
</g>
<!-- Node17 -->
<g id="node18" class="node">
<title>Node17</title>
<g id="a_node18"><a xlink:href="cbexception_8h" target="_top" xlink:title="cbexception.h">
<polygon fill="none" stroke="#000000" points="51.0998,-112.5 51.0998,-131.5 127.0998,-131.5 127.0998,-112.5 51.0998,-112.5"/>
<text text-anchor="middle" x="89.0998" y="-119.5" font-family="FreeSans" font-size="10.00" fill="#000000">cbexception.h</text>
</a>
</g>
</g>
<!-- Node9&#45;&gt;Node17 -->
<g id="edge24" class="edge">
<title>Node9&#45;&gt;Node17</title>
<path fill="none" stroke="#191970" d="M326.8388,-171.5771C285.7007,-163.113 210.8751,-147.6767 137.2256,-132.229"/>
<polygon fill="#191970" stroke="#191970" points="137.8215,-128.7778 127.3158,-130.1488 136.3835,-135.6286 137.8215,-128.7778"/>
</g>
<!-- Node13&#45;&gt;Node10 -->
<g id="edge19" class="edge">
<title>Node13&#45;&gt;Node10</title>
<path fill="none" stroke="#191970" d="M189.9834,-112.2455C197.2964,-104.2155 207.839,-92.6394 216.5465,-83.0781"/>
<polygon fill="#191970" stroke="#191970" points="219.1725,-85.3928 223.3181,-75.6427 213.9971,-80.6795 219.1725,-85.3928"/>
</g>
<!-- Node13&#45;&gt;Node12 -->
<g id="edge21" class="edge">
<title>Node13&#45;&gt;Node12</title>
<path fill="none" stroke="#191970" d="M177.1779,-112.4509C169.6075,-94.0186 152.8531,-53.2254 142.9211,-29.043"/>
<polygon fill="#191970" stroke="#191970" points="146.0487,-27.4454 139.0118,-19.5249 139.5735,-30.1048 146.0487,-27.4454"/>
</g>
<!-- Node14 -->
<g id="node15" class="node">
<title>Node14</title>
<polygon fill="none" stroke="#bfbfbf" points="194.5998,-.5 194.5998,-19.5 245.5998,-19.5 245.5998,-.5 194.5998,-.5"/>
<text text-anchor="middle" x="220.0998" y="-7.5" font-family="FreeSans" font-size="10.00" fill="#000000">wx/intl.h</text>
</g>
<!-- Node13&#45;&gt;Node14 -->
<g id="edge20" class="edge">
<title>Node13&#45;&gt;Node14</title>
<path fill="none" stroke="#191970" d="M181.5637,-112.3066C182.4475,-99.1723 184.9748,-75.1631 192.0998,-56 195.7455,-46.1949 201.5532,-36.1734 206.9366,-27.9977"/>
<polygon fill="#191970" stroke="#191970" points="209.8915,-29.8782 212.6965,-19.6614 204.1324,-25.899 209.8915,-29.8782"/>
</g>
<!-- Node15 -->
<g id="node16" class="node">
<title>Node15</title>
<g id="a_node16"><a xlink:href="prep_8h" target="_top" xlink:title="prep.h">
<polygon fill="none" stroke="#000000" points="353.5998,-56.5 353.5998,-75.5 396.5998,-75.5 396.5998,-56.5 353.5998,-56.5"/>
<text text-anchor="middle" x="375.0998" y="-63.5" font-family="FreeSans" font-size="10.00" fill="#000000">prep.h</text>
</a>
</g>
</g>
<!-- Node13&#45;&gt;Node15 -->
<g id="edge22" class="edge">
<title>Node13&#45;&gt;Node15</title>
<path fill="none" stroke="#191970" d="M216.5034,-112.415C247.5915,-103.9081 294.2534,-90.9224 343.8326,-76.0038"/>
<polygon fill="#191970" stroke="#191970" points="344.8923,-79.34 353.4516,-73.096 342.8666,-72.6395 344.8923,-79.34"/>
</g>
<!-- Node18 -->
<g id="node19" class="node">
<title>Node18</title>
<polygon fill="none" stroke="#bfbfbf" points="277.0998,-.5 277.0998,-19.5 339.0998,-19.5 339.0998,-.5 277.0998,-.5"/>
<text text-anchor="middle" x="308.0998" y="-7.5" font-family="FreeSans" font-size="10.00" fill="#000000">wx/string.h</text>
</g>
<!-- Node17&#45;&gt;Node18 -->
<g id="edge25" class="edge">
<title>Node17&#45;&gt;Node18</title>
<path fill="none" stroke="#191970" d="M102.2675,-112.3858C121.3915,-98.7003 158.2697,-73.3422 192.0998,-56 217.4036,-43.0287 247.2524,-31.2666 270.3347,-22.8835"/>
<polygon fill="#191970" stroke="#191970" points="271.5435,-26.1683 279.7798,-19.5039 269.1852,-19.5775 271.5435,-26.1683"/>
</g>
<!-- Node19 -->
<g id="node20" class="node">
<title>Node19</title>
<polygon fill="none" stroke="#bfbfbf" points="17.5998,-56.5 17.5998,-75.5 68.5998,-75.5 68.5998,-56.5 17.5998,-56.5"/>
<text text-anchor="middle" x="43.0998" y="-63.5" font-family="FreeSans" font-size="10.00" fill="#000000">wx/log.h</text>
</g>
<!-- Node17&#45;&gt;Node19 -->
<g id="edge26" class="edge">
<title>Node17&#45;&gt;Node19</title>
<path fill="none" stroke="#191970" d="M81.0873,-112.2455C74.6231,-104.3761 65.3614,-93.101 57.6015,-83.6542"/>
<polygon fill="#191970" stroke="#191970" points="60.0726,-81.1484 51.0206,-75.6427 54.6635,-85.5916 60.0726,-81.1484"/>
</g>
<!-- Node20 -->
<g id="node21" class="node">
<title>Node20</title>
<g id="a_node21"><a xlink:href="globals_8h" target="_top" xlink:title="globals.h">
<polygon fill="none" stroke="#ff0000" points="281.0998,-56.5 281.0998,-75.5 335.0998,-75.5 335.0998,-56.5 281.0998,-56.5"/>
<text text-anchor="middle" x="308.0998" y="-63.5" font-family="FreeSans" font-size="10.00" fill="#000000">globals.h</text>
</a>
</g>
</g>
<!-- Node17&#45;&gt;Node20 -->
<g id="edge27" class="edge">
<title>Node17&#45;&gt;Node20</title>
<path fill="none" stroke="#191970" d="M127.3747,-112.6706C162.3478,-104.0811 215.7417,-90.8057 271.0189,-76.2432"/>
<polygon fill="#191970" stroke="#191970" points="272.219,-79.5463 280.9925,-73.607 270.4301,-72.7787 272.219,-79.5463"/>
</g>
<!-- Node20&#45;&gt;Node3 -->
<g id="edge28" class="edge">
<title>Node20&#45;&gt;Node3</title>
<path fill="none" stroke="#191970" d="M335.1636,-58.2179C338.1695,-57.4324 341.1936,-56.6763 344.0998,-56 419.6655,-38.415 509.5822,-22.8195 556.3205,-15.1079"/>
<polygon fill="#191970" stroke="#191970" points="557.1267,-18.5226 566.4294,-13.4521 555.9951,-11.6146 557.1267,-18.5226"/>
</g>
<!-- Node20&#45;&gt;Node12 -->
<g id="edge32" class="edge">
<title>Node20&#45;&gt;Node12</title>
<path fill="none" stroke="#191970" d="M281.0686,-57.25C252.1314,-47.8831 205.9846,-32.9453 173.3332,-22.3761"/>
<polygon fill="#191970" stroke="#191970" points="174.2592,-18.9971 163.6673,-19.2473 172.1033,-25.6569 174.2592,-18.9971"/>
</g>
<!-- Node20&#45;&gt;Node14 -->
<g id="edge31" class="edge">
<title>Node20&#45;&gt;Node14</title>
<path fill="none" stroke="#191970" d="M292.7714,-56.2455C279.2695,-47.6534 259.3877,-35.0014 243.8313,-25.1018"/>
<polygon fill="#191970" stroke="#191970" points="245.5683,-22.0587 235.2526,-19.6427 241.8102,-27.9643 245.5683,-22.0587"/>
</g>
<!-- Node20&#45;&gt;Node18 -->
<g id="edge29" class="edge">
<title>Node20&#45;&gt;Node18</title>
<path fill="none" stroke="#191970" d="M308.0998,-56.2455C308.0998,-48.9382 308.0998,-38.6944 308.0998,-29.7046"/>
<polygon fill="#191970" stroke="#191970" points="311.5999,-29.6426 308.0998,-19.6427 304.5999,-29.6427 311.5999,-29.6426"/>
</g>
<!-- Node22 -->
<g id="node22" class="node">
<title>Node22</title>
<polygon fill="none" stroke="#bfbfbf" points="398.0998,-.5 398.0998,-19.5 448.0998,-19.5 448.0998,-.5 398.0998,-.5"/>
<text text-anchor="middle" x="423.0998" y="-7.5" font-family="FreeSans" font-size="10.00" fill="#000000">wx/file.h</text>
</g>
<!-- Node20&#45;&gt;Node22 -->
<g id="edge30" class="edge">
<title>Node20&#45;&gt;Node22</title>
<path fill="none" stroke="#191970" d="M327.869,-56.3733C346.2468,-47.4241 373.8311,-33.9917 394.5891,-23.8835"/>
<polygon fill="#191970" stroke="#191970" points="396.1303,-27.026 403.5886,-19.5011 393.0656,-20.7325 396.1303,-27.026"/>
</g>
<!-- Node26&#45;&gt;Node3 -->
<g id="edge34" class="edge">
<title>Node26&#45;&gt;Node3</title>
<path fill="none" stroke="#191970" d="M505.7676,-112.4876C518.7549,-104.0555 537.124,-90.8077 550.0998,-76 562.5811,-61.7566 572.9915,-42.7905 579.7412,-28.8454"/>
<polygon fill="#191970" stroke="#191970" points="582.9426,-30.2612 583.9862,-19.7179 576.5955,-27.3092 582.9426,-30.2612"/>
</g>
<!-- Node26&#45;&gt;Node15 -->
<g id="edge39" class="edge">
<title>Node26&#45;&gt;Node15</title>
<path fill="none" stroke="#191970" d="M470.3306,-112.3733C451.9529,-103.4241 424.3686,-89.9917 403.6106,-79.8835"/>
<polygon fill="#191970" stroke="#191970" points="405.1341,-76.7325 394.6111,-75.5011 402.0694,-83.026 405.1341,-76.7325"/>
</g>
<!-- Node26&#45;&gt;Node18 -->
<g id="edge36" class="edge">
<title>Node26&#45;&gt;Node18</title>
<path fill="none" stroke="#191970" d="M479.387,-112.435C463.792,-98.8094 433.5841,-73.5236 405.0998,-56 384.7297,-43.4682 360.4091,-31.942 341.2165,-23.5618"/>
<polygon fill="#191970" stroke="#191970" points="342.5415,-20.3218 331.9717,-19.5941 339.7807,-26.7544 342.5415,-20.3218"/>
</g>
<!-- Node26&#45;&gt;Node20 -->
<g id="edge38" class="edge">
<title>Node26&#45;&gt;Node20</title>
<path fill="none" stroke="#191970" d="M458.8129,-112.3733C427.2207,-102.6526 378.4374,-87.6423 344.9816,-77.3482"/>
<polygon fill="#191970" stroke="#191970" points="345.7139,-73.9117 335.1268,-74.316 343.6553,-80.6021 345.7139,-73.9117"/>
</g>
<!-- Node26&#45;&gt;Node22 -->
<g id="edge35" class="edge">
<title>Node26&#45;&gt;Node22</title>
<path fill="none" stroke="#191970" d="M484.3875,-112.4509C473.2621,-93.8533 448.5191,-52.4919 434.1048,-28.3964"/>
<polygon fill="#191970" stroke="#191970" points="436.9351,-26.3098 428.7978,-19.5249 430.9279,-29.9034 436.9351,-26.3098"/>
</g>
<!-- Node27 -->
<g id="node24" class="node">
<title>Node27</title>
<polygon fill="none" stroke="#bfbfbf" points="491.0998,-56.5 491.0998,-75.5 541.0998,-75.5 541.0998,-56.5 491.0998,-56.5"/>
<text text-anchor="middle" x="516.0998" y="-63.5" font-family="FreeSans" font-size="10.00" fill="#000000">typeinfo</text>
</g>
<!-- Node26&#45;&gt;Node27 -->
<g id="edge37" class="edge">
<title>Node26&#45;&gt;Node27</title>
<path fill="none" stroke="#191970" d="M494.6287,-112.2455C498.1332,-104.6973 503.0925,-94.0158 507.3621,-84.8197"/>
<polygon fill="#191970" stroke="#191970" points="510.5862,-86.1867 511.6229,-75.6427 504.2372,-83.2389 510.5862,-86.1867"/>
</g>
</g>
</svg>
