<?xml version="1.0" encoding="UTF-8" standalone="no"?>
<!DOCTYPE svg PUBLIC "-//W3C//DTD SVG 1.1//EN"
 "http://www.w3.org/Graphics/SVG/1.1/DTD/svg11.dtd">
<!-- Generated by graphviz version 2.38.0 (20140413.2041)
 -->
<!-- Title: batchbuild.h Pages: 1 -->
<svg width="1418pt" height="308pt"
 viewBox="0.00 0.00 1417.50 308.00" xmlns="http://www.w3.org/2000/svg" xmlns:xlink="http://www.w3.org/1999/xlink">
<g id="graph0" class="graph" transform="scale(1 1) rotate(0) translate(4 304)">
<title>batchbuild.h</title>
<!-- Node0 -->
<g id="node1" class="node"><title>Node0</title>
<polygon fill="#bfbfbf" stroke="black" points="558,-280.5 558,-299.5 626,-299.5 626,-280.5 558,-280.5"/>
<text text-anchor="middle" x="592" y="-287.5" font-family="FreeSans" font-size="10.00">batchbuild.h</text>
</g>
<!-- Node1 -->
<g id="node2" class="node"><title>Node1</title>
<g id="a_node2"><a xlink:href="scrollingdialog_8h" target="_top" xlink:title="scrollingdialog.h">
<polygon fill="none" stroke="black" points="106.5,-224.5 106.5,-243.5 191.5,-243.5 191.5,-224.5 106.5,-224.5"/>
<text text-anchor="middle" x="149" y="-231.5" font-family="FreeSans" font-size="10.00">scrollingdialog.h</text>
</a>
</g>
</g>
<!-- Node0&#45;&gt;Node1 -->
<g id="edge1" class="edge"><title>Node0&#45;&gt;Node1</title>
<path fill="none" stroke="midnightblue" d="M557.974,-284.852C481.13,-275.485 293.706,-252.639 201.703,-241.424"/>
<polygon fill="midnightblue" stroke="midnightblue" points="202.12,-237.949 191.77,-240.213 201.273,-244.898 202.12,-237.949"/>
</g>
<!-- Node5 -->
<g id="node6" class="node"><title>Node5</title>
<polygon fill="none" stroke="#bfbfbf" points="483,-224.5 483,-243.5 545,-243.5 545,-224.5 483,-224.5"/>
<text text-anchor="middle" x="514" y="-231.5" font-family="FreeSans" font-size="10.00">manager.h</text>
</g>
<!-- Node0&#45;&gt;Node5 -->
<g id="edge5" class="edge"><title>Node0&#45;&gt;Node5</title>
<path fill="none" stroke="midnightblue" d="M579.468,-280.324C567.414,-271.979 548.973,-259.212 534.731,-249.352"/>
<polygon fill="midnightblue" stroke="midnightblue" points="536.715,-246.469 526.501,-243.655 532.731,-252.224 536.715,-246.469"/>
</g>
<!-- Node6 -->
<g id="node7" class="node"><title>Node6</title>
<g id="a_node7"><a xlink:href="configmanager_8h" target="_top" xlink:title="configmanager.h">
<polygon fill="none" stroke="black" points="495.5,-168.5 495.5,-187.5 582.5,-187.5 582.5,-168.5 495.5,-168.5"/>
<text text-anchor="middle" x="539" y="-175.5" font-family="FreeSans" font-size="10.00">configmanager.h</text>
</a>
</g>
</g>
<!-- Node0&#45;&gt;Node6 -->
<g id="edge6" class="edge"><title>Node0&#45;&gt;Node6</title>
<path fill="none" stroke="midnightblue" d="M587.841,-280.368C579.172,-262.376 559.02,-220.55 547.493,-196.627"/>
<polygon fill="midnightblue" stroke="midnightblue" points="550.633,-195.081 543.14,-187.591 544.327,-198.119 550.633,-195.081"/>
</g>
<!-- Node9 -->
<g id="node10" class="node"><title>Node9</title>
<g id="a_node10"><a xlink:href="globals_8h" target="_top" xlink:title="globals.h">
<polygon fill="none" stroke="black" points="584,-112.5 584,-131.5 638,-131.5 638,-112.5 584,-112.5"/>
<text text-anchor="middle" x="611" y="-119.5" font-family="FreeSans" font-size="10.00">globals.h</text>
</a>
</g>
</g>
<!-- Node0&#45;&gt;Node9 -->
<g id="edge59" class="edge"><title>Node0&#45;&gt;Node9</title>
<path fill="none" stroke="midnightblue" d="M593.022,-280.075C596.012,-253.945 604.795,-177.211 608.874,-141.577"/>
<polygon fill="midnightblue" stroke="midnightblue" points="612.359,-141.901 610.019,-131.568 605.405,-141.105 612.359,-141.901"/>
</g>
<!-- Node29 -->
<g id="node28" class="node"><title>Node29</title>
<g id="a_node28"><a xlink:href="pluginmanager_8h" target="_top" xlink:title="pluginmanager.h">
<polygon fill="none" stroke="black" points="746.5,-168.5 746.5,-187.5 833.5,-187.5 833.5,-168.5 746.5,-168.5"/>
<text text-anchor="middle" x="790" y="-175.5" font-family="FreeSans" font-size="10.00">pluginmanager.h</text>
</a>
</g>
</g>
<!-- Node0&#45;&gt;Node29 -->
<g id="edge37" class="edge"><title>Node0&#45;&gt;Node29</title>
<path fill="none" stroke="midnightblue" d="M607.537,-280.368C641.875,-261.292 724.44,-215.422 765.69,-192.505"/>
<polygon fill="midnightblue" stroke="midnightblue" points="767.494,-195.507 774.535,-187.591 764.094,-189.388 767.494,-195.507"/>
</g>
<!-- Node31 -->
<g id="node30" class="node"><title>Node31</title>
<g id="a_node30"><a xlink:href="cbplugin_8h" target="_top" xlink:title="cbplugin.h">
<polygon fill="none" stroke="black" points="1071,-224.5 1071,-243.5 1131,-243.5 1131,-224.5 1071,-224.5"/>
<text text-anchor="middle" x="1101" y="-231.5" font-family="FreeSans" font-size="10.00">cbplugin.h</text>
</a>
</g>
</g>
<!-- Node0&#45;&gt;Node31 -->
<g id="edge45" class="edge"><title>Node0&#45;&gt;Node31</title>
<path fill="none" stroke="midnightblue" d="M626.187,-285.373C716.944,-275.745 963.63,-249.574 1060.85,-239.26"/>
<polygon fill="midnightblue" stroke="midnightblue" points="1061.29,-242.733 1070.86,-238.197 1060.55,-235.772 1061.29,-242.733"/>
</g>
<!-- Node2 -->
<g id="node3" class="node"><title>Node2</title>
<polygon fill="none" stroke="#bfbfbf" points="0,-168.5 0,-187.5 64,-187.5 64,-168.5 0,-168.5"/>
<text text-anchor="middle" x="32" y="-175.5" font-family="FreeSans" font-size="10.00">wx/dialog.h</text>
</g>
<!-- Node1&#45;&gt;Node2 -->
<g id="edge2" class="edge"><title>Node1&#45;&gt;Node2</title>
<path fill="none" stroke="midnightblue" d="M130.461,-224.444C111.377,-215.636 81.4251,-201.812 59.5643,-191.722"/>
<polygon fill="midnightblue" stroke="midnightblue" points="60.9986,-188.529 50.4523,-187.516 58.0651,-194.885 60.9986,-188.529"/>
</g>
<!-- Node3 -->
<g id="node4" class="node"><title>Node3</title>
<polygon fill="none" stroke="#bfbfbf" points="82,-168.5 82,-187.5 152,-187.5 152,-168.5 82,-168.5"/>
<text text-anchor="middle" x="117" y="-175.5" font-family="FreeSans" font-size="10.00">wx/propdlg.h</text>
</g>
<!-- Node1&#45;&gt;Node3 -->
<g id="edge3" class="edge"><title>Node1&#45;&gt;Node3</title>
<path fill="none" stroke="midnightblue" d="M143.716,-224.083C139.289,-216.613 132.837,-205.724 127.382,-196.52"/>
<polygon fill="midnightblue" stroke="midnightblue" points="130.295,-194.57 122.186,-187.751 124.273,-198.138 130.295,-194.57"/>
</g>
<!-- Node4 -->
<g id="node5" class="node"><title>Node4</title>
<g id="a_node5"><a xlink:href="settings_8h" target="_top" xlink:title="settings.h">
<polygon fill="none" stroke="black" points="723.5,-0.5 723.5,-19.5 780.5,-19.5 780.5,-0.5 723.5,-0.5"/>
<text text-anchor="middle" x="752" y="-7.5" font-family="FreeSans" font-size="10.00">settings.h</text>
</a>
</g>
</g>
<!-- Node1&#45;&gt;Node4 -->
<g id="edge4" class="edge"><title>Node1&#45;&gt;Node4</title>
<path fill="none" stroke="midnightblue" d="M152.244,-224.149C164.616,-190.943 209.814,-74.7154 243,-56 323.309,-10.7088 608.774,-9.29929 713.294,-10.3707"/>
<polygon fill="midnightblue" stroke="midnightblue" points="713.366,-13.8717 723.406,-10.4882 713.448,-6.87214 713.366,-13.8717"/>
</g>
<!-- Node6&#45;&gt;Node4 -->
<g id="edge9" class="edge"><title>Node6&#45;&gt;Node4</title>
<path fill="none" stroke="midnightblue" d="M531.113,-168.192C517.776,-153.905 489.253,-125.882 459,-112 375.103,-73.5025 196.766,-124.173 259,-56 289.453,-22.6408 602.329,-13.7244 713.261,-11.6021"/>
<polygon fill="midnightblue" stroke="midnightblue" points="713.415,-15.1 723.349,-11.4174 713.287,-8.10116 713.415,-15.1"/>
</g>
<!-- Node7 -->
<g id="node8" class="node"><title>Node7</title>
<polygon fill="none" stroke="#bfbfbf" points="373.5,-112.5 373.5,-131.5 450.5,-131.5 450.5,-112.5 373.5,-112.5"/>
<text text-anchor="middle" x="412" y="-119.5" font-family="FreeSans" font-size="10.00">wx/hashmap.h</text>
</g>
<!-- Node6&#45;&gt;Node7 -->
<g id="edge7" class="edge"><title>Node6&#45;&gt;Node7</title>
<path fill="none" stroke="midnightblue" d="M518.876,-168.444C497.976,-159.557 465.065,-145.563 441.284,-135.451"/>
<polygon fill="midnightblue" stroke="midnightblue" points="442.602,-132.208 432.029,-131.516 439.862,-138.65 442.602,-132.208"/>
</g>
<!-- Node8 -->
<g id="node9" class="node"><title>Node8</title>
<polygon fill="none" stroke="#bfbfbf" points="211.5,-112.5 211.5,-131.5 282.5,-131.5 282.5,-112.5 211.5,-112.5"/>
<text text-anchor="middle" x="247" y="-119.5" font-family="FreeSans" font-size="10.00">wx/hashset.h</text>
</g>
<!-- Node6&#45;&gt;Node8 -->
<g id="edge8" class="edge"><title>Node6&#45;&gt;Node8</title>
<path fill="none" stroke="midnightblue" d="M495.232,-169.26C447.854,-160.83 369.803,-146.791 292.732,-132.114"/>
<polygon fill="midnightblue" stroke="midnightblue" points="293.329,-128.665 282.851,-130.228 292.017,-135.541 293.329,-128.665"/>
</g>
<!-- Node6&#45;&gt;Node9 -->
<g id="edge10" class="edge"><title>Node6&#45;&gt;Node9</title>
<path fill="none" stroke="midnightblue" d="M550.568,-168.324C561.42,-160.185 577.881,-147.839 590.883,-138.087"/>
<polygon fill="midnightblue" stroke="midnightblue" points="593.321,-140.634 599.221,-131.834 589.121,-135.034 593.321,-140.634"/>
</g>
<!-- Node18 -->
<g id="node19" class="node"><title>Node18</title>
<polygon fill="none" stroke="#bfbfbf" points="301,-112.5 301,-131.5 355,-131.5 355,-112.5 301,-112.5"/>
<text text-anchor="middle" x="328" y="-119.5" font-family="FreeSans" font-size="10.00">tinyxml.h</text>
</g>
<!-- Node6&#45;&gt;Node18 -->
<g id="edge20" class="edge"><title>Node6&#45;&gt;Node18</title>
<path fill="none" stroke="midnightblue" d="M505.566,-168.444C467.297,-158.649 404.793,-142.653 365.065,-132.486"/>
<polygon fill="midnightblue" stroke="midnightblue" points="365.794,-129.06 355.238,-129.971 364.058,-135.841 365.794,-129.06"/>
</g>
<!-- Node19 -->
<g id="node20" class="node"><title>Node19</title>
<g id="a_node20"><a xlink:href="manager_8h" target="_top" xlink:title="manager.h">
<polygon fill="none" stroke="red" points="948,-112.5 948,-131.5 1010,-131.5 1010,-112.5 948,-112.5"/>
<text text-anchor="middle" x="979" y="-119.5" font-family="FreeSans" font-size="10.00">manager.h</text>
</a>
</g>
</g>
<!-- Node6&#45;&gt;Node19 -->
<g id="edge21" class="edge"><title>Node6&#45;&gt;Node19</title>
<path fill="none" stroke="midnightblue" d="M582.722,-173.656C654.708,-167.807 802.841,-154.33 937.536,-132.087"/>
<polygon fill="midnightblue" stroke="midnightblue" points="938.335,-135.502 947.621,-130.401 937.181,-128.598 938.335,-135.502"/>
</g>
<!-- Node20 -->
<g id="node21" class="node"><title>Node20</title>
<polygon fill="none" stroke="#bfbfbf" points="879.5,-56.5 879.5,-75.5 914.5,-75.5 914.5,-56.5 879.5,-56.5"/>
<text text-anchor="middle" x="897" y="-63.5" font-family="FreeSans" font-size="10.00">map</text>
</g>
<!-- Node6&#45;&gt;Node20 -->
<g id="edge35" class="edge"><title>Node6&#45;&gt;Node20</title>
<path fill="none" stroke="midnightblue" d="M561.147,-168.368C583.136,-159.658 617.702,-145.59 647,-132 664.671,-123.803 667.591,-118.368 686,-112 762.225,-85.6335 788.183,-96.835 869.793,-75.9958"/>
<polygon fill="midnightblue" stroke="midnightblue" points="870.706,-79.3747 879.482,-73.4397 868.92,-72.6063 870.706,-79.3747"/>
</g>
<!-- Node26 -->
<g id="node26" class="node"><title>Node26</title>
<g id="a_node26"><a xlink:href="base64_8h" target="_top" xlink:title="base64.h">
<polygon fill="none" stroke="red" points="510.5,-112.5 510.5,-131.5 565.5,-131.5 565.5,-112.5 510.5,-112.5"/>
<text text-anchor="middle" x="538" y="-119.5" font-family="FreeSans" font-size="10.00">base64.h</text>
</a>
</g>
</g>
<!-- Node6&#45;&gt;Node26 -->
<g id="edge32" class="edge"><title>Node6&#45;&gt;Node26</title>
<path fill="none" stroke="midnightblue" d="M538.835,-168.083C538.704,-161.006 538.516,-150.861 538.352,-141.986"/>
<polygon fill="midnightblue" stroke="midnightblue" points="541.847,-141.685 538.162,-131.751 534.848,-141.814 541.847,-141.685"/>
</g>
<!-- Node28 -->
<g id="node27" class="node"><title>Node28</title>
<polygon fill="none" stroke="#bfbfbf" points="694.5,-112.5 694.5,-131.5 723.5,-131.5 723.5,-112.5 694.5,-112.5"/>
<text text-anchor="middle" x="709" y="-119.5" font-family="FreeSans" font-size="10.00">set</text>
</g>
<!-- Node6&#45;&gt;Node28 -->
<g id="edge36" class="edge"><title>Node6&#45;&gt;Node28</title>
<path fill="none" stroke="midnightblue" d="M565.937,-168.444C598.574,-158.077 653.086,-140.761 684.558,-130.764"/>
<polygon fill="midnightblue" stroke="midnightblue" points="685.812,-134.038 694.283,-127.675 683.692,-127.367 685.812,-134.038"/>
</g>
<!-- Node9&#45;&gt;Node4 -->
<g id="edge19" class="edge"><title>Node9&#45;&gt;Node4</title>
<path fill="none" stroke="midnightblue" d="M583.943,-114.324C580.598,-113.526 577.223,-112.735 574,-112 496.854,-94.4044 352.77,-115.441 405,-56 425.112,-33.1111 626.832,-18.4595 713.148,-13.1924"/>
<polygon fill="midnightblue" stroke="midnightblue" points="713.552,-16.6745 723.325,-12.5824 713.133,-9.68709 713.552,-16.6745"/>
</g>
<!-- Node10 -->
<g id="node11" class="node"><title>Node10</title>
<polygon fill="none" stroke="#bfbfbf" points="818.5,-56.5 818.5,-75.5 861.5,-75.5 861.5,-56.5 818.5,-56.5"/>
<text text-anchor="middle" x="840" y="-63.5" font-family="FreeSans" font-size="10.00">vector</text>
</g>
<!-- Node9&#45;&gt;Node10 -->
<g id="edge11" class="edge"><title>Node9&#45;&gt;Node10</title>
<path fill="none" stroke="midnightblue" d="M638.2,-114.802C675.596,-106.247 744.972,-90.2591 804,-76 805.448,-75.6502 806.928,-75.2901 808.423,-74.9245"/>
<polygon fill="midnightblue" stroke="midnightblue" points="809.443,-78.2778 818.312,-72.4813 807.764,-71.4822 809.443,-78.2778"/>
</g>
<!-- Node11 -->
<g id="node12" class="node"><title>Node11</title>
<polygon fill="none" stroke="#bfbfbf" points="971,-56.5 971,-75.5 1033,-75.5 1033,-56.5 971,-56.5"/>
<text text-anchor="middle" x="1002" y="-63.5" font-family="FreeSans" font-size="10.00">wx/string.h</text>
</g>
<!-- Node9&#45;&gt;Node11 -->
<g id="edge12" class="edge"><title>Node9&#45;&gt;Node11</title>
<path fill="none" stroke="midnightblue" d="M638.184,-117.246C705.558,-107.941 880.593,-83.7672 960.783,-72.6924"/>
<polygon fill="midnightblue" stroke="midnightblue" points="961.565,-76.1177 970.992,-71.2825 960.607,-69.1836 961.565,-76.1177"/>
</g>
<!-- Node12 -->
<g id="node13" class="node"><title>Node12</title>
<polygon fill="none" stroke="#bfbfbf" points="588,-56.5 588,-75.5 656,-75.5 656,-56.5 588,-56.5"/>
<text text-anchor="middle" x="622" y="-63.5" font-family="FreeSans" font-size="10.00">wx/treectrl.h</text>
</g>
<!-- Node9&#45;&gt;Node12 -->
<g id="edge13" class="edge"><title>Node9&#45;&gt;Node12</title>
<path fill="none" stroke="midnightblue" d="M612.816,-112.083C614.274,-104.927 616.371,-94.6353 618.193,-85.6911"/>
<polygon fill="midnightblue" stroke="midnightblue" points="621.651,-86.2485 620.217,-75.7511 614.792,-84.8512 621.651,-86.2485"/>
</g>
<!-- Node13 -->
<g id="node14" class="node"><title>Node13</title>
<polygon fill="none" stroke="#bfbfbf" points="674,-56.5 674,-75.5 724,-75.5 724,-56.5 674,-56.5"/>
<text text-anchor="middle" x="699" y="-63.5" font-family="FreeSans" font-size="10.00">wx/file.h</text>
</g>
<!-- Node9&#45;&gt;Node13 -->
<g id="edge14" class="edge"><title>Node9&#45;&gt;Node13</title>
<path fill="none" stroke="midnightblue" d="M625.139,-112.324C638.866,-103.9 659.936,-90.9709 676.064,-81.0741"/>
<polygon fill="midnightblue" stroke="midnightblue" points="678.204,-83.8678 684.896,-75.6545 674.543,-77.9016 678.204,-83.8678"/>
</g>
<!-- Node14 -->
<g id="node15" class="node"><title>Node14</title>
<polygon fill="none" stroke="#bfbfbf" points="284,-56.5 284,-75.5 358,-75.5 358,-56.5 284,-56.5"/>
<text text-anchor="middle" x="321" y="-63.5" font-family="FreeSans" font-size="10.00">wx/filename.h</text>
</g>
<!-- Node9&#45;&gt;Node14 -->
<g id="edge15" class="edge"><title>Node9&#45;&gt;Node14</title>
<path fill="none" stroke="midnightblue" d="M583.967,-114.218C580.617,-113.438 577.235,-112.68 574,-112 568.974,-110.943 440.208,-88.1115 368.365,-75.3861"/>
<polygon fill="midnightblue" stroke="midnightblue" points="368.657,-71.8835 358.2,-73.5858 367.436,-78.7762 368.657,-71.8835"/>
</g>
<!-- Node15 -->
<g id="node16" class="node"><title>Node15</title>
<polygon fill="none" stroke="#bfbfbf" points="1216.5,-0.5 1216.5,-19.5 1267.5,-19.5 1267.5,-0.5 1216.5,-0.5"/>
<text text-anchor="middle" x="1242" y="-7.5" font-family="FreeSans" font-size="10.00">wx/intl.h</text>
</g>
<!-- Node9&#45;&gt;Node15 -->
<g id="edge16" class="edge"><title>Node9&#45;&gt;Node15</title>
<path fill="none" stroke="midnightblue" d="M632.089,-112.463C667.982,-98.3115 743.525,-70.1514 810,-56 954.81,-25.1727 1131.61,-15.1617 1206.15,-12.17"/>
<polygon fill="midnightblue" stroke="midnightblue" points="1206.53,-15.6581 1216.39,-11.7779 1206.26,-8.66321 1206.53,-15.6581"/>
</g>
<!-- Node16 -->
<g id="node17" class="node"><title>Node16</title>
<polygon fill="none" stroke="#bfbfbf" points="414.5,-56.5 414.5,-75.5 483.5,-75.5 483.5,-56.5 414.5,-56.5"/>
<text text-anchor="middle" x="449" y="-63.5" font-family="FreeSans" font-size="10.00">wx/msgdlg.h</text>
</g>
<!-- Node9&#45;&gt;Node16 -->
<g id="edge17" class="edge"><title>Node9&#45;&gt;Node16</title>
<path fill="none" stroke="midnightblue" d="M585.331,-112.444C558.077,-103.359 514.816,-88.9388 484.349,-78.7831"/>
<polygon fill="midnightblue" stroke="midnightblue" points="485.143,-75.3584 474.549,-75.5164 482.929,-81.9992 485.143,-75.3584"/>
</g>
<!-- Node17 -->
<g id="node18" class="node"><title>Node17</title>
<polygon fill="none" stroke="#bfbfbf" points="502,-56.5 502,-75.5 570,-75.5 570,-56.5 502,-56.5"/>
<text text-anchor="middle" x="536" y="-63.5" font-family="FreeSans" font-size="10.00">wx/bitmap.h</text>
</g>
<!-- Node9&#45;&gt;Node17 -->
<g id="edge18" class="edge"><title>Node9&#45;&gt;Node17</title>
<path fill="none" stroke="midnightblue" d="M598.95,-112.324C587.537,-104.107 570.169,-91.6017 556.565,-81.8069"/>
<polygon fill="midnightblue" stroke="midnightblue" points="558.43,-78.8366 548.269,-75.8339 554.34,-84.5174 558.43,-78.8366"/>
</g>
<!-- Node19&#45;&gt;Node4 -->
<g id="edge26" class="edge"><title>Node19&#45;&gt;Node4</title>
<path fill="none" stroke="midnightblue" d="M974.13,-112.366C965.756,-98.3285 947.263,-70.6567 924,-56 882.999,-30.1675 827.596,-19.095 790.877,-14.3945"/>
<polygon fill="midnightblue" stroke="midnightblue" points="790.922,-10.8757 780.581,-13.1807 790.103,-17.8275 790.922,-10.8757"/>
</g>
<!-- Node19&#45;&gt;Node10 -->
<g id="edge23" class="edge"><title>Node19&#45;&gt;Node10</title>
<path fill="none" stroke="midnightblue" d="M956.975,-112.444C933.896,-103.478 897.438,-89.314 871.359,-79.1827"/>
<polygon fill="midnightblue" stroke="midnightblue" points="872.511,-75.8753 861.922,-75.5164 869.976,-82.4002 872.511,-75.8753"/>
</g>
<!-- Node19&#45;&gt;Node20 -->
<g id="edge22" class="edge"><title>Node19&#45;&gt;Node20</title>
<path fill="none" stroke="midnightblue" d="M965.825,-112.324C953.153,-103.979 933.767,-91.2122 918.794,-81.3524"/>
<polygon fill="midnightblue" stroke="midnightblue" points="920.419,-78.2313 910.142,-75.6545 916.569,-84.0776 920.419,-78.2313"/>
</g>
<!-- Node21 -->
<g id="node22" class="node"><title>Node21</title>
<polygon fill="none" stroke="#bfbfbf" points="1286,-0.5 1286,-19.5 1348,-19.5 1348,-0.5 1286,-0.5"/>
<text text-anchor="middle" x="1317" y="-7.5" font-family="FreeSans" font-size="10.00">wx/event.h</text>
</g>
<!-- Node19&#45;&gt;Node21 -->
<g id="edge24" class="edge"><title>Node19&#45;&gt;Node21</title>
<path fill="none" stroke="midnightblue" d="M1010.16,-120.767C1081.79,-119.595 1255.33,-112.916 1298,-76 1311.18,-64.5979 1315.47,-44.6099 1316.74,-29.8002"/>
<polygon fill="midnightblue" stroke="midnightblue" points="1320.24,-29.869 1317.22,-19.7125 1313.25,-29.5331 1320.24,-29.869"/>
</g>
<!-- Node22 -->
<g id="node23" class="node"><title>Node22</title>
<polygon fill="none" stroke="#bfbfbf" points="1051,-56.5 1051,-75.5 1123,-75.5 1123,-56.5 1051,-56.5"/>
<text text-anchor="middle" x="1087" y="-63.5" font-family="FreeSans" font-size="10.00">wx/cmdline.h</text>
</g>
<!-- Node19&#45;&gt;Node22 -->
<g id="edge25" class="edge"><title>Node19&#45;&gt;Node22</title>
<path fill="none" stroke="midnightblue" d="M996.352,-112.324C1013.67,-103.664 1040.52,-90.2424 1060.5,-80.249"/>
<polygon fill="midnightblue" stroke="midnightblue" points="1062.31,-83.2572 1069.69,-75.6545 1059.18,-76.9962 1062.31,-83.2572"/>
</g>
<!-- Node23 -->
<g id="node24" class="node"><title>Node23</title>
<g id="a_node24"><a xlink:href="sdk__events_8h" target="_top" xlink:title="sdk_events.h">
<polygon fill="none" stroke="black" points="1217,-56.5 1217,-75.5 1289,-75.5 1289,-56.5 1217,-56.5"/>
<text text-anchor="middle" x="1253" y="-63.5" font-family="FreeSans" font-size="10.00">sdk_events.h</text>
</a>
</g>
</g>
<!-- Node19&#45;&gt;Node23 -->
<g id="edge27" class="edge"><title>Node19&#45;&gt;Node23</title>
<path fill="none" stroke="midnightblue" d="M1010.16,-114.858C1058.23,-105.386 1150.73,-87.1552 1206.66,-76.133"/>
<polygon fill="midnightblue" stroke="midnightblue" points="1207.52,-79.5301 1216.66,-74.1625 1206.17,-72.6622 1207.52,-79.5301"/>
</g>
<!-- Node23&#45;&gt;Node4 -->
<g id="edge30" class="edge"><title>Node23&#45;&gt;Node4</title>
<path fill="none" stroke="midnightblue" d="M1216.73,-58.1263C1212.12,-57.3537 1207.45,-56.6222 1203,-56 1051.16,-34.793 869.208,-19.8006 790.93,-13.8471"/>
<polygon fill="midnightblue" stroke="midnightblue" points="790.821,-10.3291 780.587,-13.0673 790.295,-17.3093 790.821,-10.3291"/>
</g>
<!-- Node23&#45;&gt;Node15 -->
<g id="edge29" class="edge"><title>Node23&#45;&gt;Node15</title>
<path fill="none" stroke="midnightblue" d="M1251.18,-56.083C1249.73,-48.9272 1247.63,-38.6353 1245.81,-29.6911"/>
<polygon fill="midnightblue" stroke="midnightblue" points="1249.21,-28.8512 1243.78,-19.7511 1242.35,-30.2485 1249.21,-28.8512"/>
</g>
<!-- Node23&#45;&gt;Node21 -->
<g id="edge28" class="edge"><title>Node23&#45;&gt;Node21</title>
<path fill="none" stroke="midnightblue" d="M1263.28,-56.324C1272.84,-48.2631 1287.28,-36.0765 1298.78,-26.3695"/>
<polygon fill="midnightblue" stroke="midnightblue" points="1301.14,-28.9577 1306.53,-19.8339 1296.63,-23.6076 1301.14,-28.9577"/>
</g>
<!-- Node24 -->
<g id="node25" class="node"><title>Node24</title>
<g id="a_node25"><a xlink:href="prep_8h" target="_top" xlink:title="prep.h">
<polygon fill="none" stroke="black" points="1366.5,-0.5 1366.5,-19.5 1409.5,-19.5 1409.5,-0.5 1366.5,-0.5"/>
<text text-anchor="middle" x="1388" y="-7.5" font-family="FreeSans" font-size="10.00">prep.h</text>
</a>
</g>
</g>
<!-- Node23&#45;&gt;Node24 -->
<g id="edge31" class="edge"><title>Node23&#45;&gt;Node24</title>
<path fill="none" stroke="midnightblue" d="M1274.39,-56.4435C1296.71,-47.5171 1331.9,-33.4387 1357.21,-23.3168"/>
<polygon fill="midnightblue" stroke="midnightblue" points="1358.72,-26.4801 1366.71,-19.5164 1356.12,-19.9807 1358.72,-26.4801"/>
</g>
<!-- Node26&#45;&gt;Node4 -->
<g id="edge34" class="edge"><title>Node26&#45;&gt;Node4</title>
<path fill="none" stroke="midnightblue" d="M510.422,-115.332C504.672,-114.192 498.643,-113.03 493,-112 394.591,-94.0389 207.669,-129.982 275,-56 304.293,-23.8139 604.477,-14.1783 713.066,-11.7333"/>
<polygon fill="midnightblue" stroke="midnightblue" points="713.338,-15.2283 723.259,-11.5124 713.186,-8.22995 713.338,-15.2283"/>
</g>
<!-- Node26&#45;&gt;Node11 -->
<g id="edge33" class="edge"><title>Node26&#45;&gt;Node11</title>
<path fill="none" stroke="midnightblue" d="M565.796,-113.81C568.889,-113.138 572.003,-112.517 575,-112 728.668,-85.5113 768.988,-92.9372 924,-76 935.948,-74.6945 948.919,-73.2207 960.79,-71.8493"/>
<polygon fill="midnightblue" stroke="midnightblue" points="961.356,-75.3071 970.886,-70.6773 960.549,-68.3538 961.356,-75.3071"/>
</g>
<!-- Node29&#45;&gt;Node4 -->
<g id="edge43" class="edge"><title>Node29&#45;&gt;Node4</title>
<path fill="none" stroke="midnightblue" d="M787.957,-168.075C781.975,-141.945 764.41,-65.2106 756.253,-29.577"/>
<polygon fill="midnightblue" stroke="midnightblue" points="759.605,-28.5349 753.961,-19.5681 752.781,-30.097 759.605,-28.5349"/>
</g>
<!-- Node29&#45;&gt;Node9 -->
<g id="edge42" class="edge"><title>Node29&#45;&gt;Node9</title>
<path fill="none" stroke="midnightblue" d="M761.637,-168.444C730.904,-159.172 681.75,-144.343 648,-134.162"/>
<polygon fill="midnightblue" stroke="midnightblue" points="648.643,-130.7 638.059,-131.163 646.622,-137.402 648.643,-130.7"/>
</g>
<!-- Node29&#45;&gt;Node10 -->
<g id="edge38" class="edge"><title>Node29&#45;&gt;Node10</title>
<path fill="none" stroke="midnightblue" d="M792.657,-168.398C796.673,-155.773 804.8,-131.601 814,-112 818.408,-102.607 824.103,-92.572 829.038,-84.3675"/>
<polygon fill="midnightblue" stroke="midnightblue" points="832.097,-86.0751 834.361,-75.7249 826.137,-82.4043 832.097,-86.0751"/>
</g>
<!-- Node29&#45;&gt;Node19 -->
<g id="edge44" class="edge"><title>Node29&#45;&gt;Node19</title>
<path fill="none" stroke="midnightblue" d="M819.948,-168.444C852.158,-159.241 903.534,-144.562 939.142,-134.388"/>
<polygon fill="midnightblue" stroke="midnightblue" points="940.539,-137.629 949.192,-131.516 938.616,-130.898 940.539,-137.629"/>
</g>
<!-- Node29&#45;&gt;Node20 -->
<g id="edge39" class="edge"><title>Node29&#45;&gt;Node20</title>
<path fill="none" stroke="midnightblue" d="M797.07,-168.299C807.551,-155.551 828.02,-131.226 847,-112 857.153,-101.715 869.174,-90.8583 878.884,-82.3858"/>
<polygon fill="midnightblue" stroke="midnightblue" points="881.432,-84.8104 886.718,-75.6283 876.86,-79.51 881.432,-84.8104"/>
</g>
<!-- Node29&#45;&gt;Node28 -->
<g id="edge40" class="edge"><title>Node29&#45;&gt;Node28</title>
<path fill="none" stroke="midnightblue" d="M776.986,-168.324C764.468,-159.979 745.318,-147.212 730.529,-137.352"/>
<polygon fill="midnightblue" stroke="midnightblue" points="732.244,-134.289 721.982,-131.655 728.361,-140.114 732.244,-134.289"/>
</g>
<!-- Node30 -->
<g id="node29" class="node"><title>Node30</title>
<polygon fill="none" stroke="#bfbfbf" points="856,-112.5 856,-131.5 930,-131.5 930,-112.5 856,-112.5"/>
<text text-anchor="middle" x="893" y="-119.5" font-family="FreeSans" font-size="10.00">wx/dynarray.h</text>
</g>
<!-- Node29&#45;&gt;Node30 -->
<g id="edge41" class="edge"><title>Node29&#45;&gt;Node30</title>
<path fill="none" stroke="midnightblue" d="M806.549,-168.324C822.992,-159.703 848.435,-146.364 867.468,-136.386"/>
<polygon fill="midnightblue" stroke="midnightblue" points="869.261,-139.398 876.492,-131.655 866.011,-133.198 869.261,-139.398"/>
</g>
<!-- Node31&#45;&gt;Node4 -->
<g id="edge50" class="edge"><title>Node31&#45;&gt;Node4</title>
<path fill="none" stroke="midnightblue" d="M1070.79,-226.463C1036.78,-217.485 988.184,-198.846 1004,-168 1038.49,-100.735 1182.21,-112.507 1132,-56 1109.56,-30.7462 882.869,-17.2138 790.679,-12.7197"/>
<polygon fill="midnightblue" stroke="midnightblue" points="790.794,-9.22128 780.639,-12.2402 790.46,-16.2133 790.794,-9.22128"/>
</g>
<!-- Node31&#45;&gt;Node9 -->
<g id="edge51" class="edge"><title>Node31&#45;&gt;Node9</title>
<path fill="none" stroke="midnightblue" d="M1070.62,-232.779C1007.32,-231.555 857.277,-224.661 738,-188 698.742,-175.934 657.059,-152.228 632.562,-137.024"/>
<polygon fill="midnightblue" stroke="midnightblue" points="634.381,-134.033 624.056,-131.655 630.644,-139.952 634.381,-134.033"/>
</g>
<!-- Node31&#45;&gt;Node11 -->
<g id="edge49" class="edge"><title>Node31&#45;&gt;Node11</title>
<path fill="none" stroke="midnightblue" d="M1103.03,-224.187C1105.56,-211.3 1108.68,-186.805 1101,-168 1085.53,-130.106 1048.22,-98.7361 1024.08,-81.4618"/>
<polygon fill="midnightblue" stroke="midnightblue" points="1025.76,-78.3667 1015.55,-75.5472 1021.78,-84.1201 1025.76,-78.3667"/>
</g>
<!-- Node31&#45;&gt;Node15 -->
<g id="edge48" class="edge"><title>Node31&#45;&gt;Node15</title>
<path fill="none" stroke="midnightblue" d="M1122.1,-224.418C1165.51,-205.394 1263.66,-155.018 1298,-76 1306.87,-55.5975 1286.33,-36.8779 1267.68,-24.8215"/>
<polygon fill="midnightblue" stroke="midnightblue" points="1269.45,-21.8023 1259.08,-19.6145 1265.82,-27.7894 1269.45,-21.8023"/>
</g>
<!-- Node31&#45;&gt;Node19 -->
<g id="edge56" class="edge"><title>Node31&#45;&gt;Node19</title>
<path fill="none" stroke="midnightblue" d="M1100.73,-224.321C1099.85,-210.714 1096.29,-184.24 1082,-168 1065.97,-149.789 1041.23,-138.653 1020,-132.015"/>
<polygon fill="midnightblue" stroke="midnightblue" points="1020.81,-128.606 1010.23,-129.19 1018.87,-135.33 1020.81,-128.606"/>
</g>
<!-- Node31&#45;&gt;Node21 -->
<g id="edge47" class="edge"><title>Node31&#45;&gt;Node21</title>
<path fill="none" stroke="midnightblue" d="M1131.21,-224.674C1155.68,-217.173 1190.49,-204.75 1218,-188 1250,-168.518 1257.4,-161.091 1281,-132 1299.06,-109.74 1304.79,-103.466 1313,-76 1317.51,-60.9184 1318.29,-43.017 1318.08,-29.8229"/>
<polygon fill="midnightblue" stroke="midnightblue" points="1321.57,-29.4906 1317.69,-19.6291 1314.57,-29.7535 1321.57,-29.4906"/>
</g>
<!-- Node31&#45;&gt;Node24 -->
<g id="edge58" class="edge"><title>Node31&#45;&gt;Node24</title>
<path fill="none" stroke="midnightblue" d="M1131.08,-228.07C1161.69,-222.077 1209.67,-209.933 1246,-188 1312.28,-147.985 1360.48,-65.0975 1379.3,-28.7429"/>
<polygon fill="midnightblue" stroke="midnightblue" points="1382.43,-30.3011 1383.82,-19.7973 1376.19,-27.1445 1382.43,-30.3011"/>
</g>
<!-- Node31&#45;&gt;Node29 -->
<g id="edge57" class="edge"><title>Node31&#45;&gt;Node29</title>
<path fill="none" stroke="midnightblue" d="M1070.9,-227.773C1018.44,-218.666 909.625,-199.771 843.892,-188.357"/>
<polygon fill="midnightblue" stroke="midnightblue" points="844.179,-184.855 833.727,-186.593 842.981,-191.752 844.179,-184.855"/>
</g>
<!-- Node32 -->
<g id="node31" class="node"><title>Node32</title>
<polygon fill="none" stroke="#bfbfbf" points="1013,-168.5 1013,-187.5 1073,-187.5 1073,-168.5 1013,-168.5"/>
<text text-anchor="middle" x="1043" y="-175.5" font-family="FreeSans" font-size="10.00">wx/arrstr.h</text>
</g>
<!-- Node31&#45;&gt;Node32 -->
<g id="edge46" class="edge"><title>Node31&#45;&gt;Node32</title>
<path fill="none" stroke="midnightblue" d="M1091.68,-224.324C1083.11,-216.341 1070.19,-204.313 1059.81,-194.653"/>
<polygon fill="midnightblue" stroke="midnightblue" points="1062.19,-192.086 1052.49,-187.834 1057.42,-197.21 1062.19,-192.086"/>
</g>
<!-- Node33 -->
<g id="node32" class="node"><title>Node33</title>
<g id="a_node32"><a xlink:href="logger_8h" target="_top" xlink:title="logger.h">
<polygon fill="none" stroke="black" points="1179,-112.5 1179,-131.5 1229,-131.5 1229,-112.5 1179,-112.5"/>
<text text-anchor="middle" x="1204" y="-119.5" font-family="FreeSans" font-size="10.00">logger.h</text>
</a>
</g>
</g>
<!-- Node31&#45;&gt;Node33 -->
<g id="edge52" class="edge"><title>Node31&#45;&gt;Node33</title>
<path fill="none" stroke="midnightblue" d="M1112.31,-224.269C1123.23,-215.596 1139.99,-201.655 1153,-188 1167.47,-172.814 1182.05,-153.765 1191.9,-140.223"/>
<polygon fill="midnightblue" stroke="midnightblue" points="1194.92,-142.012 1197.89,-131.843 1189.23,-137.938 1194.92,-142.012"/>
</g>
<!-- Node33&#45;&gt;Node4 -->
<g id="edge55" class="edge"><title>Node33&#45;&gt;Node4</title>
<path fill="none" stroke="midnightblue" d="M1201.47,-112.038C1196.86,-97.5306 1185.62,-69.1978 1165,-56 1103.57,-16.6758 881.443,-11.3994 790.861,-10.9175"/>
<polygon fill="midnightblue" stroke="midnightblue" points="790.75,-7.41714 780.738,-10.8809 790.725,-14.4171 790.75,-7.41714"/>
</g>
<!-- Node33&#45;&gt;Node11 -->
<g id="edge54" class="edge"><title>Node33&#45;&gt;Node11</title>
<path fill="none" stroke="midnightblue" d="M1178.82,-114.27C1144.8,-105.174 1083.71,-88.8439 1043.01,-77.9633"/>
<polygon fill="midnightblue" stroke="midnightblue" points="1043.7,-74.5235 1033.13,-75.3222 1041.89,-81.2861 1043.7,-74.5235"/>
</g>
<!-- Node33&#45;&gt;Node24 -->
<g id="edge53" class="edge"><title>Node33&#45;&gt;Node24</title>
<path fill="none" stroke="midnightblue" d="M1229.11,-116.082C1256.06,-109.939 1299.25,-97.5249 1331,-76 1349.75,-63.2889 1366.21,-42.9709 1376.55,-28.4348"/>
<polygon fill="midnightblue" stroke="midnightblue" points="1379.67,-30.0827 1382.43,-19.8555 1373.89,-26.125 1379.67,-30.0827"/>
</g>
</g>
</svg>
