<?xml version="1.0" encoding="UTF-8" standalone="no"?>
<!DOCTYPE svg PUBLIC "-//W3C//DTD SVG 1.1//EN"
 "http://www.w3.org/Graphics/SVG/1.1/DTD/svg11.dtd">
<!-- Generated by graphviz version 2.38.0 (20140413.2041)
 -->
<!-- Title: blockallocated.h Pages: 1 -->
<svg width="1457pt" height="588pt"
 viewBox="0.00 0.00 1456.75 588.00" xmlns="http://www.w3.org/2000/svg" xmlns:xlink="http://www.w3.org/1999/xlink">
<g id="graph0" class="graph" transform="scale(1 1) rotate(0) translate(4 584)">
<title>blockallocated.h</title>
<polygon fill="white" stroke="none" points="-4,4 -4,-584 1452.75,-584 1452.75,4 -4,4"/>
<!-- Node1 -->
<g id="node1" class="node"><title>Node1</title>
<polygon fill="#bfbfbf" stroke="black" points="861.745,-560.5 861.745,-579.5 947.745,-579.5 947.745,-560.5 861.745,-560.5"/>
<text text-anchor="middle" x="904.745" y="-567.5" font-family="FreeSans" font-size="10.00">blockallocated.h</text>
</g>
<!-- Node2 -->
<g id="node2" class="node"><title>Node2</title>
<g id="a_node2"><a xlink:href="backgroundthread_8h.xhtml" target="_top" xlink:title="backgroundthread.h">
<polygon fill="white" stroke="black" points="796.245,-504.5 796.245,-523.5 897.245,-523.5 897.245,-504.5 796.245,-504.5"/>
<text text-anchor="middle" x="846.745" y="-511.5" font-family="FreeSans" font-size="10.00">backgroundthread.h</text>
</a>
</g>
</g>
<!-- Node1&#45;&gt;Node2 -->
<g id="edge1" class="edge"><title>Node1&#45;&gt;Node2</title>
<path fill="none" stroke="midnightblue" d="M887.832,-553.253C877.542,-543.673 864.78,-531.791 856.234,-523.834"/>
<polygon fill="midnightblue" stroke="midnightblue" points="885.723,-556.071 895.427,-560.324 890.493,-550.948 885.723,-556.071"/>
</g>
<!-- Node45 -->
<g id="node45" class="node"><title>Node45</title>
<g id="a_node45"><a xlink:href="blockallocated_8cpp.xhtml" target="_top" xlink:title="blockallocated.cpp">
<polygon fill="white" stroke="black" points="915.245,-504.5 915.245,-523.5 1012.25,-523.5 1012.25,-504.5 915.245,-504.5"/>
<text text-anchor="middle" x="963.745" y="-511.5" font-family="FreeSans" font-size="10.00">blockallocated.cpp</text>
</a>
</g>
</g>
<!-- Node1&#45;&gt;Node45 -->
<g id="edge68" class="edge"><title>Node1&#45;&gt;Node45</title>
<path fill="none" stroke="midnightblue" d="M921.64,-553.537C932.16,-543.909 945.314,-531.869 954.094,-523.834"/>
<polygon fill="midnightblue" stroke="midnightblue" points="919.238,-550.99 914.225,-560.324 923.965,-556.154 919.238,-550.99"/>
</g>
<!-- Node3 -->
<g id="node3" class="node"><title>Node3</title>
<g id="a_node3"><a xlink:href="filemanager_8h.xhtml" target="_top" xlink:title="filemanager.h">
<polygon fill="white" stroke="black" points="809.745,-448.5 809.745,-467.5 883.745,-467.5 883.745,-448.5 809.745,-448.5"/>
<text text-anchor="middle" x="846.745" y="-455.5" font-family="FreeSans" font-size="10.00">filemanager.h</text>
</a>
</g>
</g>
<!-- Node2&#45;&gt;Node3 -->
<g id="edge2" class="edge"><title>Node2&#45;&gt;Node3</title>
<path fill="none" stroke="midnightblue" d="M846.745,-493.805C846.745,-484.91 846.745,-474.78 846.745,-467.751"/>
<polygon fill="midnightblue" stroke="midnightblue" points="843.246,-494.083 846.745,-504.083 850.246,-494.083 843.246,-494.083"/>
</g>
<!-- Node4 -->
<g id="node4" class="node"><title>Node4</title>
<g id="a_node4"><a xlink:href="encodingdetector_8h.xhtml" target="_top" xlink:title="encodingdetector.h">
<polygon fill="white" stroke="black" points="350.745,-392.5 350.745,-411.5 448.745,-411.5 448.745,-392.5 350.745,-392.5"/>
<text text-anchor="middle" x="399.745" y="-399.5" font-family="FreeSans" font-size="10.00">encodingdetector.h</text>
</a>
</g>
</g>
<!-- Node3&#45;&gt;Node4 -->
<g id="edge3" class="edge"><title>Node3&#45;&gt;Node4</title>
<path fill="none" stroke="midnightblue" d="M799.394,-452.121C726.079,-444.431 580.713,-428.647 457.745,-412 454.817,-411.604 451.808,-411.181 448.774,-410.745"/>
<polygon fill="midnightblue" stroke="midnightblue" points="799.367,-455.637 809.677,-453.196 800.095,-448.675 799.367,-455.637"/>
</g>
<!-- Node6 -->
<g id="node6" class="node"><title>Node6</title>
<g id="a_node6"><a xlink:href="encodingdetector_8cpp.xhtml" target="_top" xlink:title="encodingdetector.cpp">
<polygon fill="white" stroke="black" points="268.245,-336.5 268.245,-355.5 377.245,-355.5 377.245,-336.5 268.245,-336.5"/>
<text text-anchor="middle" x="322.745" y="-343.5" font-family="FreeSans" font-size="10.00">encodingdetector.cpp</text>
</a>
</g>
</g>
<!-- Node3&#45;&gt;Node6 -->
<g id="edge11" class="edge"><title>Node3&#45;&gt;Node6</title>
<path fill="none" stroke="midnightblue" d="M799.283,-455.778C680.364,-452.299 376.656,-440.675 341.745,-412 324.847,-398.12 322.474,-370.096 322.44,-355.809"/>
<polygon fill="midnightblue" stroke="midnightblue" points="799.437,-459.284 809.533,-456.071 799.637,-452.287 799.437,-459.284"/>
</g>
<!-- Node8 -->
<g id="node8" class="node"><title>Node8</title>
<g id="a_node8"><a xlink:href="cbproject_8cpp.xhtml" target="_top" xlink:title="cbproject.cpp">
<polygon fill="white" stroke="black" points="466.745,-392.5 466.745,-411.5 540.745,-411.5 540.745,-392.5 466.745,-392.5"/>
<text text-anchor="middle" x="503.745" y="-399.5" font-family="FreeSans" font-size="10.00">cbproject.cpp</text>
</a>
</g>
</g>
<!-- Node3&#45;&gt;Node8 -->
<g id="edge7" class="edge"><title>Node3&#45;&gt;Node8</title>
<path fill="none" stroke="midnightblue" d="M799.547,-450.485C740.874,-442.24 637.724,-427.264 549.745,-412 546.859,-411.499 543.875,-410.961 540.877,-410.407"/>
<polygon fill="midnightblue" stroke="midnightblue" points="799.232,-453.975 809.621,-451.896 800.203,-447.043 799.232,-453.975"/>
</g>
<!-- Node9 -->
<g id="node9" class="node"><title>Node9</title>
<g id="a_node9"><a xlink:href="editorcolourset_8cpp.xhtml" target="_top" xlink:title="editorcolourset.cpp">
<polygon fill="white" stroke="black" points="558.745,-392.5 558.745,-411.5 656.745,-411.5 656.745,-392.5 558.745,-392.5"/>
<text text-anchor="middle" x="607.745" y="-399.5" font-family="FreeSans" font-size="10.00">editorcolourset.cpp</text>
</a>
</g>
</g>
<!-- Node3&#45;&gt;Node9 -->
<g id="edge8" class="edge"><title>Node3&#45;&gt;Node9</title>
<path fill="none" stroke="midnightblue" d="M799.839,-446.402C754.766,-436.218 687.509,-421.022 645.704,-411.577"/>
<polygon fill="midnightblue" stroke="midnightblue" points="799.138,-449.832 809.664,-448.622 800.681,-443.004 799.138,-449.832"/>
</g>
<!-- Node10 -->
<g id="node10" class="node"><title>Node10</title>
<g id="a_node10"><a xlink:href="editorlexerloader_8cpp.xhtml" target="_top" xlink:title="editorlexerloader.cpp">
<polygon fill="white" stroke="black" points="675.245,-392.5 675.245,-411.5 780.245,-411.5 780.245,-392.5 675.245,-392.5"/>
<text text-anchor="middle" x="727.745" y="-399.5" font-family="FreeSans" font-size="10.00">editorlexerloader.cpp</text>
</a>
</g>
</g>
<!-- Node3&#45;&gt;Node10 -->
<g id="edge9" class="edge"><title>Node3&#45;&gt;Node10</title>
<path fill="none" stroke="midnightblue" d="M818.609,-444.232C796.349,-434.131 765.89,-420.309 746.513,-411.516"/>
<polygon fill="midnightblue" stroke="midnightblue" points="817.337,-447.498 827.89,-448.444 820.23,-441.124 817.337,-447.498"/>
</g>
<!-- Node11 -->
<g id="node11" class="node"><title>Node11</title>
<g id="a_node11"><a xlink:href="editormanager_8cpp.xhtml" target="_top" xlink:title="editormanager.cpp">
<polygon fill="white" stroke="black" points="798.745,-392.5 798.745,-411.5 894.745,-411.5 894.745,-392.5 798.745,-392.5"/>
<text text-anchor="middle" x="846.745" y="-399.5" font-family="FreeSans" font-size="10.00">editormanager.cpp</text>
</a>
</g>
</g>
<!-- Node3&#45;&gt;Node11 -->
<g id="edge10" class="edge"><title>Node3&#45;&gt;Node11</title>
<path fill="none" stroke="midnightblue" d="M846.745,-437.805C846.745,-428.91 846.745,-418.78 846.745,-411.751"/>
<polygon fill="midnightblue" stroke="midnightblue" points="843.246,-438.083 846.745,-448.083 850.246,-438.083 843.246,-438.083"/>
</g>
<!-- Node12 -->
<g id="node12" class="node"><title>Node12</title>
<g id="a_node12"><a xlink:href="filemanager_8cpp.xhtml" target="_top" xlink:title="filemanager.cpp">
<polygon fill="white" stroke="black" points="912.745,-392.5 912.745,-411.5 996.745,-411.5 996.745,-392.5 912.745,-392.5"/>
<text text-anchor="middle" x="954.745" y="-399.5" font-family="FreeSans" font-size="10.00">filemanager.cpp</text>
</a>
</g>
</g>
<!-- Node3&#45;&gt;Node12 -->
<g id="edge12" class="edge"><title>Node3&#45;&gt;Node12</title>
<path fill="none" stroke="midnightblue" d="M873.293,-443.726C893.291,-433.727 920.132,-420.307 937.436,-411.655"/>
<polygon fill="midnightblue" stroke="midnightblue" points="871.477,-440.721 864.097,-448.324 874.607,-446.982 871.477,-440.721"/>
</g>
<!-- Node13 -->
<g id="node13" class="node"><title>Node13</title>
<g id="a_node13"><a xlink:href="globals_8cpp.xhtml" target="_top" xlink:title="globals.cpp">
<polygon fill="white" stroke="black" points="1015.25,-392.5 1015.25,-411.5 1080.25,-411.5 1080.25,-392.5 1015.25,-392.5"/>
<text text-anchor="middle" x="1047.75" y="-399.5" font-family="FreeSans" font-size="10.00">globals.cpp</text>
</a>
</g>
</g>
<!-- Node3&#45;&gt;Node13 -->
<g id="edge13" class="edge"><title>Node3&#45;&gt;Node13</title>
<path fill="none" stroke="midnightblue" d="M888.326,-445.829C926.277,-435.633 981.556,-420.782 1016.05,-411.516"/>
<polygon fill="midnightblue" stroke="midnightblue" points="887.344,-442.469 878.594,-448.444 889.16,-449.229 887.344,-442.469"/>
</g>
<!-- Node14 -->
<g id="node14" class="node"><title>Node14</title>
<g id="a_node14"><a xlink:href="manager_8cpp.xhtml" target="_top" xlink:title="manager.cpp">
<polygon fill="white" stroke="black" points="1098.75,-392.5 1098.75,-411.5 1170.75,-411.5 1170.75,-392.5 1098.75,-392.5"/>
<text text-anchor="middle" x="1134.75" y="-399.5" font-family="FreeSans" font-size="10.00">manager.cpp</text>
</a>
</g>
</g>
<!-- Node3&#45;&gt;Node14 -->
<g id="edge14" class="edge"><title>Node3&#45;&gt;Node14</title>
<path fill="none" stroke="midnightblue" d="M893.811,-448.49C942.791,-439.585 1021.7,-425.104 1089.75,-412 1092.56,-411.458 1095.48,-410.89 1098.4,-410.314"/>
<polygon fill="midnightblue" stroke="midnightblue" points="893.042,-445.072 883.828,-450.303 894.293,-451.96 893.042,-445.072"/>
</g>
<!-- Node15 -->
<g id="node15" class="node"><title>Node15</title>
<g id="a_node15"><a xlink:href="parserthread_8h.xhtml" target="_top" xlink:title="parserthread.h">
<polygon fill="white" stroke="black" points="1106.25,-336.5 1106.25,-355.5 1183.25,-355.5 1183.25,-336.5 1106.25,-336.5"/>
<text text-anchor="middle" x="1144.75" y="-343.5" font-family="FreeSans" font-size="10.00">parserthread.h</text>
</a>
</g>
</g>
<!-- Node3&#45;&gt;Node15 -->
<g id="edge15" class="edge"><title>Node3&#45;&gt;Node15</title>
<path fill="none" stroke="midnightblue" d="M893.992,-457.888C976.884,-458.322 1143.21,-453.809 1179.75,-412 1195.18,-394.34 1170.66,-368.713 1155.43,-355.534"/>
<polygon fill="midnightblue" stroke="midnightblue" points="893.858,-454.387 883.831,-457.808 893.803,-461.387 893.858,-454.387"/>
</g>
<!-- Node42 -->
<g id="node42" class="node"><title>Node42</title>
<g id="a_node42"><a xlink:href="tokenizer_8h.xhtml" target="_top" xlink:title="tokenizer.h">
<polygon fill="white" stroke="black" points="1227.25,-392.5 1227.25,-411.5 1290.25,-411.5 1290.25,-392.5 1227.25,-392.5"/>
<text text-anchor="middle" x="1258.75" y="-399.5" font-family="FreeSans" font-size="10.00">tokenizer.h</text>
</a>
</g>
</g>
<!-- Node3&#45;&gt;Node42 -->
<g id="edge63" class="edge"><title>Node3&#45;&gt;Node42</title>
<path fill="none" stroke="midnightblue" d="M893.986,-452.274C963.859,-445.039 1098.78,-430.131 1212.75,-412 1217.41,-411.258 1222.32,-410.391 1227.12,-409.493"/>
<polygon fill="midnightblue" stroke="midnightblue" points="893.341,-448.822 883.752,-453.327 894.057,-455.785 893.341,-448.822"/>
</g>
<!-- Node5 -->
<g id="node5" class="node"><title>Node5</title>
<g id="a_node5"><a xlink:href="cbeditor_8cpp.xhtml" target="_top" xlink:title="cbeditor.cpp">
<polygon fill="white" stroke="black" points="395.245,-336.5 395.245,-355.5 464.245,-355.5 464.245,-336.5 395.245,-336.5"/>
<text text-anchor="middle" x="429.745" y="-343.5" font-family="FreeSans" font-size="10.00">cbeditor.cpp</text>
</a>
</g>
</g>
<!-- Node4&#45;&gt;Node5 -->
<g id="edge4" class="edge"><title>Node4&#45;&gt;Node5</title>
<path fill="none" stroke="midnightblue" d="M409.593,-383.275C414.72,-374.045 420.762,-363.17 424.884,-355.751"/>
<polygon fill="midnightblue" stroke="midnightblue" points="406.496,-381.642 404.699,-392.083 412.615,-385.041 406.496,-381.642"/>
</g>
<!-- Node4&#45;&gt;Node6 -->
<g id="edge5" class="edge"><title>Node4&#45;&gt;Node6</title>
<path fill="none" stroke="midnightblue" d="M378.844,-386.342C364.834,-376.517 346.862,-363.913 335.086,-355.655"/>
<polygon fill="midnightblue" stroke="midnightblue" points="377.177,-389.448 387.374,-392.324 381.196,-383.717 377.177,-389.448"/>
</g>
<!-- Node7 -->
<g id="node7" class="node"><title>Node7</title>
<g id="a_node7"><a xlink:href="coderefactoring_8cpp.xhtml" target="_top" xlink:title="coderefactoring.cpp">
<polygon fill="white" stroke="black" points="744.245,-56.5 744.245,-75.5 845.245,-75.5 845.245,-56.5 744.245,-56.5"/>
<text text-anchor="middle" x="794.745" y="-63.5" font-family="FreeSans" font-size="10.00">coderefactoring.cpp</text>
</a>
</g>
</g>
<!-- Node4&#45;&gt;Node7 -->
<g id="edge6" class="edge"><title>Node4&#45;&gt;Node7</title>
<path fill="none" stroke="midnightblue" d="M458.794,-391.14C591.486,-368.585 901.745,-313.445 901.745,-291 901.745,-291 901.745,-291 901.745,-177 901.745,-126.913 844.04,-91.0678 813.383,-75.5587"/>
<polygon fill="midnightblue" stroke="midnightblue" points="458.068,-387.713 448.793,-392.836 459.238,-394.615 458.068,-387.713"/>
</g>
<!-- Node16 -->
<g id="node16" class="node"><title>Node16</title>
<g id="a_node16"><a xlink:href="parser_8h.xhtml" target="_top" xlink:title="parser.h">
<polygon fill="white" stroke="black" points="573.745,-224.5 573.745,-243.5 623.745,-243.5 623.745,-224.5 573.745,-224.5"/>
<text text-anchor="middle" x="598.745" y="-231.5" font-family="FreeSans" font-size="10.00">parser.h</text>
</a>
</g>
</g>
<!-- Node15&#45;&gt;Node16 -->
<g id="edge16" class="edge"><title>Node15&#45;&gt;Node16</title>
<path fill="none" stroke="midnightblue" d="M1095.85,-335.15C983.218,-312.458 708.653,-257.143 624.01,-240.09"/>
<polygon fill="midnightblue" stroke="midnightblue" points="1095.42,-338.633 1105.92,-337.177 1096.8,-331.771 1095.42,-338.633"/>
</g>
<!-- Node38 -->
<g id="node38" class="node"><title>Node38</title>
<g id="a_node38"><a xlink:href="parserthread_8cpp.xhtml" target="_top" xlink:title="parserthread.cpp">
<polygon fill="white" stroke="black" points="1100.75,-168.5 1100.75,-187.5 1188.75,-187.5 1188.75,-168.5 1100.75,-168.5"/>
<text text-anchor="middle" x="1144.75" y="-175.5" font-family="FreeSans" font-size="10.00">parserthread.cpp</text>
</a>
</g>
</g>
<!-- Node15&#45;&gt;Node38 -->
<g id="edge62" class="edge"><title>Node15&#45;&gt;Node38</title>
<path fill="none" stroke="midnightblue" d="M1144.75,-325.93C1144.75,-289.92 1144.75,-213.231 1144.75,-187.568"/>
<polygon fill="midnightblue" stroke="midnightblue" points="1141.25,-326.075 1144.75,-336.075 1148.25,-326.075 1141.25,-326.075"/>
</g>
<!-- Node40 -->
<g id="node40" class="node"><title>Node40</title>
<g id="a_node40"><a xlink:href="parser__base_8h.xhtml" target="_top" xlink:title="parser_base.h">
<polygon fill="white" stroke="black" points="560.745,-280.5 560.745,-299.5 636.745,-299.5 636.745,-280.5 560.745,-280.5"/>
<text text-anchor="middle" x="598.745" y="-287.5" font-family="FreeSans" font-size="10.00">parser_base.h</text>
</a>
</g>
</g>
<!-- Node15&#45;&gt;Node40 -->
<g id="edge59" class="edge"><title>Node15&#45;&gt;Node40</title>
<path fill="none" stroke="midnightblue" d="M1095.68,-340.147C988.179,-329.515 733.782,-304.355 637.013,-294.785"/>
<polygon fill="midnightblue" stroke="midnightblue" points="1095.62,-343.658 1105.92,-341.16 1096.31,-336.692 1095.62,-343.658"/>
</g>
<!-- Node17 -->
<g id="node17" class="node"><title>Node17</title>
<g id="a_node17"><a xlink:href="nativeparser_8h.xhtml" target="_top" xlink:title="nativeparser.h">
<polygon fill="white" stroke="black" points="717.745,-168.5 717.745,-187.5 793.745,-187.5 793.745,-168.5 717.745,-168.5"/>
<text text-anchor="middle" x="755.745" y="-175.5" font-family="FreeSans" font-size="10.00">nativeparser.h</text>
</a>
</g>
</g>
<!-- Node16&#45;&gt;Node17 -->
<g id="edge17" class="edge"><title>Node16&#45;&gt;Node17</title>
<path fill="none" stroke="midnightblue" d="M633.134,-221.172C662.697,-211.004 704.618,-196.585 730.985,-187.516"/>
<polygon fill="midnightblue" stroke="midnightblue" points="631.94,-217.881 623.623,-224.444 634.217,-224.501 631.94,-217.881"/>
</g>
<!-- Node18 -->
<g id="node18" class="node"><title>Node18</title>
<g id="a_node18"><a xlink:href="ccoptionsdlg_8h.xhtml" target="_top" xlink:title="ccoptionsdlg.h">
<polygon fill="white" stroke="black" points="863.745,-56.5 863.745,-75.5 941.745,-75.5 941.745,-56.5 863.745,-56.5"/>
<text text-anchor="middle" x="902.745" y="-63.5" font-family="FreeSans" font-size="10.00">ccoptionsdlg.h</text>
</a>
</g>
</g>
<!-- Node16&#45;&gt;Node18 -->
<g id="edge41" class="edge"><title>Node16&#45;&gt;Node18</title>
<path fill="none" stroke="midnightblue" d="M634.12,-232.088C676.972,-229.507 749.969,-220.258 802.745,-188 850.647,-158.722 886.209,-98.2132 898.273,-75.6937"/>
<polygon fill="midnightblue" stroke="midnightblue" points="633.714,-228.604 623.906,-232.61 634.071,-235.595 633.714,-228.604"/>
</g>
<!-- Node20 -->
<g id="node20" class="node"><title>Node20</title>
<g id="a_node20"><a xlink:href="codecompletion_8cpp.xhtml" target="_top" xlink:title="codecompletion.cpp">
<polygon fill="white" stroke="black" points="1036.25,-0.5 1036.25,-19.5 1139.25,-19.5 1139.25,-0.5 1036.25,-0.5"/>
<text text-anchor="middle" x="1087.75" y="-7.5" font-family="FreeSans" font-size="10.00">codecompletion.cpp</text>
</a>
</g>
</g>
<!-- Node16&#45;&gt;Node20 -->
<g id="edge52" class="edge"><title>Node16&#45;&gt;Node20</title>
<path fill="none" stroke="midnightblue" d="M634.035,-230.088C731.945,-221.305 1003.91,-191.918 1066.75,-132 1098.53,-101.691 1092.76,-41.8102 1089.29,-19.5757"/>
<polygon fill="midnightblue" stroke="midnightblue" points="633.434,-226.627 623.778,-230.989 634.046,-233.6 633.434,-226.627"/>
</g>
<!-- Node24 -->
<g id="node24" class="node"><title>Node24</title>
<g id="a_node24"><a xlink:href="ccoptionsprjdlg_8h.xhtml" target="_top" xlink:title="ccoptionsprjdlg.h">
<polygon fill="white" stroke="black" points="968.245,-112.5 968.245,-131.5 1057.25,-131.5 1057.25,-112.5 968.245,-112.5"/>
<text text-anchor="middle" x="1012.75" y="-119.5" font-family="FreeSans" font-size="10.00">ccoptionsprjdlg.h</text>
</a>
</g>
</g>
<!-- Node16&#45;&gt;Node24 -->
<g id="edge45" class="edge"><title>Node16&#45;&gt;Node24</title>
<path fill="none" stroke="midnightblue" d="M634.111,-228.374C681.481,-221.73 767.897,-208.039 839.745,-188 896.92,-172.053 961.806,-145.209 993.399,-131.546"/>
<polygon fill="midnightblue" stroke="midnightblue" points="633.484,-224.927 624.056,-229.76 634.44,-231.861 633.484,-224.927"/>
</g>
<!-- Node26 -->
<g id="node26" class="node"><title>Node26</title>
<g id="a_node26"><a xlink:href="classbrowserbuilderthread_8h.xhtml" target="_top" xlink:title="classbrowserbuilderthread.h">
<polygon fill="white" stroke="black" points="191.745,-112.5 191.745,-131.5 325.745,-131.5 325.745,-112.5 191.745,-112.5"/>
<text text-anchor="middle" x="258.745" y="-119.5" font-family="FreeSans" font-size="10.00">classbrowserbuilderthread.h</text>
</a>
</g>
</g>
<!-- Node16&#45;&gt;Node26 -->
<g id="edge50" class="edge"><title>Node16&#45;&gt;Node26</title>
<path fill="none" stroke="midnightblue" d="M580.545,-217.992C561.384,-202.989 529.751,-180.415 498.745,-168 442.861,-145.623 375.131,-134.225 325.89,-128.511"/>
<polygon fill="midnightblue" stroke="midnightblue" points="578.427,-220.78 588.424,-224.289 582.797,-215.312 578.427,-220.78"/>
</g>
<!-- Node27 -->
<g id="node27" class="node"><title>Node27</title>
<g id="a_node27"><a xlink:href="classbrowser_8h.xhtml" target="_top" xlink:title="classbrowser.h">
<polygon fill="white" stroke="black" points="106.245,-56.5 106.245,-75.5 185.245,-75.5 185.245,-56.5 106.245,-56.5"/>
<text text-anchor="middle" x="145.745" y="-63.5" font-family="FreeSans" font-size="10.00">classbrowser.h</text>
</a>
</g>
</g>
<!-- Node16&#45;&gt;Node27 -->
<g id="edge51" class="edge"><title>Node16&#45;&gt;Node27</title>
<path fill="none" stroke="midnightblue" d="M563.533,-224.508C471.42,-215.662 71.5407,-229.509 32.7454,-188 9.6813,-163.322 13.7873,-139.956 32.7454,-112 49.0417,-87.9694 80.4312,-76.7711 105.999,-71.5528"/>
<polygon fill="midnightblue" stroke="midnightblue" points="563.252,-228 573.611,-225.773 564.125,-221.055 563.252,-228"/>
</g>
<!-- Node29 -->
<g id="node29" class="node"><title>Node29</title>
<g id="a_node29"><a xlink:href="nativeparser_8cpp.xhtml" target="_top" xlink:title="nativeparser.cpp">
<polygon fill="white" stroke="black" points="371.745,-0.5 371.745,-19.5 457.745,-19.5 457.745,-0.5 371.745,-0.5"/>
<text text-anchor="middle" x="414.745" y="-7.5" font-family="FreeSans" font-size="10.00">nativeparser.cpp</text>
</a>
</g>
</g>
<!-- Node16&#45;&gt;Node29 -->
<g id="edge54" class="edge"><title>Node16&#45;&gt;Node29</title>
<path fill="none" stroke="midnightblue" d="M585.988,-216.59C573.641,-201.796 553.623,-180.503 531.745,-168 479.322,-138.039 437.35,-180.02 400.745,-132 374.593,-97.691 399.011,-41.2258 410.01,-19.7024"/>
<polygon fill="midnightblue" stroke="midnightblue" points="583.319,-218.856 592.327,-224.433 588.763,-214.456 583.319,-218.856"/>
</g>
<!-- Node30 -->
<g id="node30" class="node"><title>Node30</title>
<g id="a_node30"><a xlink:href="parser_8cpp.xhtml" target="_top" xlink:title="parser.cpp">
<polygon fill="white" stroke="black" points="47.2454,-0.5 47.2454,-19.5 108.245,-19.5 108.245,-0.5 47.2454,-0.5"/>
<text text-anchor="middle" x="77.7454" y="-7.5" font-family="FreeSans" font-size="10.00">parser.cpp</text>
</a>
</g>
</g>
<!-- Node16&#45;&gt;Node30 -->
<g id="edge56" class="edge"><title>Node16&#45;&gt;Node30</title>
<path fill="none" stroke="midnightblue" d="M563.534,-224.509C469.28,-215.512 55.8603,-230.831 15.7454,-188 -31.8852,-137.144 43.4417,-47.6267 69.4404,-19.6228"/>
<polygon fill="midnightblue" stroke="midnightblue" points="563.255,-228.001 573.612,-225.768 564.122,-221.055 563.255,-228.001"/>
</g>
<!-- Node32 -->
<g id="node32" class="node"><title>Node32</title>
<g id="a_node32"><a xlink:href="systemheadersthread_8h.xhtml" target="_top" xlink:title="systemheadersthread.h">
<polygon fill="white" stroke="black" points="584.245,-168.5 584.245,-187.5 699.245,-187.5 699.245,-168.5 584.245,-168.5"/>
<text text-anchor="middle" x="641.745" y="-175.5" font-family="FreeSans" font-size="10.00">systemheadersthread.h</text>
</a>
</g>
</g>
<!-- Node16&#45;&gt;Node32 -->
<g id="edge42" class="edge"><title>Node16&#45;&gt;Node32</title>
<path fill="none" stroke="midnightblue" d="M612.168,-216.144C619.66,-206.736 628.683,-195.405 634.777,-187.751"/>
<polygon fill="midnightblue" stroke="midnightblue" points="609.337,-214.08 605.846,-224.083 614.813,-218.44 609.337,-214.08"/>
</g>
<!-- Node34 -->
<g id="node34" class="node"><title>Node34</title>
<g id="a_node34"><a xlink:href="cctreectrl_8h.xhtml" target="_top" xlink:title="cctreectrl.h">
<polygon fill="white" stroke="black" points="42.2454,-168.5 42.2454,-187.5 107.245,-187.5 107.245,-168.5 42.2454,-168.5"/>
<text text-anchor="middle" x="74.7454" y="-175.5" font-family="FreeSans" font-size="10.00">cctreectrl.h</text>
</a>
</g>
</g>
<!-- Node16&#45;&gt;Node34 -->
<g id="edge46" class="edge"><title>Node16&#45;&gt;Node34</title>
<path fill="none" stroke="midnightblue" d="M563.46,-224.09C365.593,-191.141 310.464,-217.04 115.745,-188 113.006,-187.592 110.177,-187.106 107.345,-186.575"/>
<polygon fill="midnightblue" stroke="midnightblue" points="563.16,-227.589 573.605,-225.809 564.33,-220.687 563.16,-227.589"/>
</g>
<!-- Node36 -->
<g id="node36" class="node"><title>Node36</title>
<g id="a_node36"><a xlink:href="insertclassmethoddlg_8cpp.xhtml" target="_top" xlink:title="insertclassmethoddlg.cpp">
<polygon fill="white" stroke="black" points="125.245,-168.5 125.245,-187.5 250.245,-187.5 250.245,-168.5 125.245,-168.5"/>
<text text-anchor="middle" x="187.745" y="-175.5" font-family="FreeSans" font-size="10.00">insertclassmethoddlg.cpp</text>
</a>
</g>
</g>
<!-- Node16&#45;&gt;Node36 -->
<g id="edge53" class="edge"><title>Node16&#45;&gt;Node36</title>
<path fill="none" stroke="midnightblue" d="M563.68,-224.036C428.497,-198.693 391.486,-204.221 258.745,-188 256.032,-187.668 253.261,-187.327 250.461,-186.981"/>
<polygon fill="midnightblue" stroke="midnightblue" points="563.108,-227.49 573.586,-225.915 564.413,-220.613 563.108,-227.49"/>
</g>
<!-- Node37 -->
<g id="node37" class="node"><title>Node37</title>
<g id="a_node37"><a xlink:href="ccdebuginfo_8cpp.xhtml" target="_top" xlink:title="ccdebuginfo.cpp">
<polygon fill="white" stroke="black" points="268.245,-168.5 268.245,-187.5 355.245,-187.5 355.245,-168.5 268.245,-168.5"/>
<text text-anchor="middle" x="311.745" y="-175.5" font-family="FreeSans" font-size="10.00">ccdebuginfo.cpp</text>
</a>
</g>
</g>
<!-- Node16&#45;&gt;Node37 -->
<g id="edge55" class="edge"><title>Node16&#45;&gt;Node37</title>
<path fill="none" stroke="midnightblue" d="M563.616,-223.985C523.161,-215.808 416.427,-197.161 355.498,-186.579"/>
<polygon fill="midnightblue" stroke="midnightblue" points="563.044,-227.441 573.551,-226.083 564.49,-220.592 563.044,-227.441"/>
</g>
<!-- Node16&#45;&gt;Node38 -->
<g id="edge57" class="edge"><title>Node16&#45;&gt;Node38</title>
<path fill="none" stroke="midnightblue" d="M634.028,-230.501C714.484,-224.637 917.648,-208.896 1086.75,-188 1091.2,-187.45 1095.83,-186.823 1100.45,-186.163"/>
<polygon fill="midnightblue" stroke="midnightblue" points="633.668,-227.017 623.947,-231.23 634.174,-233.999 633.668,-227.017"/>
</g>
<!-- Node39 -->
<g id="node39" class="node"><title>Node39</title>
<g id="a_node39"><a xlink:href="parserthreadedtask_8cpp.xhtml" target="_top" xlink:title="parserthreadedtask.cpp">
<polygon fill="white" stroke="black" points="373.745,-168.5 373.745,-187.5 489.745,-187.5 489.745,-168.5 373.745,-168.5"/>
<text text-anchor="middle" x="431.745" y="-175.5" font-family="FreeSans" font-size="10.00">parserthreadedtask.cpp</text>
</a>
</g>
</g>
<!-- Node16&#45;&gt;Node39 -->
<g id="edge58" class="edge"><title>Node16&#45;&gt;Node39</title>
<path fill="none" stroke="midnightblue" d="M564.074,-221.789C532.626,-211.62 486.932,-196.845 458.3,-187.587"/>
<polygon fill="midnightblue" stroke="midnightblue" points="563.152,-225.169 573.744,-224.916 565.306,-218.509 563.152,-225.169"/>
</g>
<!-- Node17&#45;&gt;Node7 -->
<g id="edge39" class="edge"><title>Node17&#45;&gt;Node7</title>
<path fill="none" stroke="midnightblue" d="M779.866,-162.473C790.183,-154.828 801.13,-144.445 806.745,-132 815.242,-113.173 805.857,-88.6862 799.537,-75.8068"/>
<polygon fill="midnightblue" stroke="midnightblue" points="777.739,-159.688 771.479,-168.236 781.703,-165.457 777.739,-159.688"/>
</g>
<!-- Node17&#45;&gt;Node18 -->
<g id="edge18" class="edge"><title>Node17&#45;&gt;Node18</title>
<path fill="none" stroke="midnightblue" d="M777.819,-162.573C790.785,-153.945 807.395,-142.625 821.745,-132 847.829,-112.688 877.278,-88.3983 892.464,-75.6785"/>
<polygon fill="midnightblue" stroke="midnightblue" points="775.518,-159.898 769.105,-168.332 779.377,-165.738 775.518,-159.898"/>
</g>
<!-- Node21 -->
<g id="node21" class="node"><title>Node21</title>
<g id="a_node21"><a xlink:href="coderefactoring_8h.xhtml" target="_top" xlink:title="coderefactoring.h">
<polygon fill="white" stroke="black" points="706.245,-112.5 706.245,-131.5 797.245,-131.5 797.245,-112.5 706.245,-112.5"/>
<text text-anchor="middle" x="751.745" y="-119.5" font-family="FreeSans" font-size="10.00">coderefactoring.h</text>
</a>
</g>
</g>
<!-- Node17&#45;&gt;Node21 -->
<g id="edge21" class="edge"><title>Node17&#45;&gt;Node21</title>
<path fill="none" stroke="midnightblue" d="M754.345,-158.101C753.681,-149.136 752.92,-138.858 752.394,-131.751"/>
<polygon fill="midnightblue" stroke="midnightblue" points="750.856,-158.369 755.085,-168.083 757.837,-157.852 750.856,-158.369"/>
</g>
<!-- Node22 -->
<g id="node22" class="node"><title>Node22</title>
<g id="a_node22"><a xlink:href="codecompletion_8h.xhtml" target="_top" xlink:title="codecompletion.h">
<polygon fill="white" stroke="black" points="633.745,-56.5 633.745,-75.5 725.745,-75.5 725.745,-56.5 633.745,-56.5"/>
<text text-anchor="middle" x="679.745" y="-63.5" font-family="FreeSans" font-size="10.00">codecompletion.h</text>
</a>
</g>
</g>
<!-- Node17&#45;&gt;Node22 -->
<g id="edge27" class="edge"><title>Node17&#45;&gt;Node22</title>
<path fill="none" stroke="midnightblue" d="M731.103,-163.058C719.434,-155.302 706.228,-144.654 697.745,-132 685.879,-114.298 681.787,-88.9131 680.413,-75.7164"/>
<polygon fill="midnightblue" stroke="midnightblue" points="729.294,-166.055 739.623,-168.411 733.018,-160.128 729.294,-166.055"/>
</g>
<!-- Node17&#45;&gt;Node24 -->
<g id="edge28" class="edge"><title>Node17&#45;&gt;Node24</title>
<path fill="none" stroke="midnightblue" d="M803.897,-166.883C852.453,-156.68 926.572,-141.106 972.215,-131.516"/>
<polygon fill="midnightblue" stroke="midnightblue" points="803.01,-163.492 793.943,-168.974 804.449,-170.343 803.01,-163.492"/>
</g>
<!-- Node17&#45;&gt;Node26 -->
<g id="edge31" class="edge"><title>Node17&#45;&gt;Node26</title>
<path fill="none" stroke="midnightblue" d="M707.424,-167.926C566.124,-147.697 412.182,-134.456 326.065,-127.841"/>
<polygon fill="midnightblue" stroke="midnightblue" points="707.176,-171.426 717.574,-169.394 708.178,-164.499 707.176,-171.426"/>
</g>
<!-- Node28 -->
<g id="node28" class="node"><title>Node28</title>
<g id="a_node28"><a xlink:href="classbrowser_8cpp.xhtml" target="_top" xlink:title="classbrowser.cpp">
<polygon fill="white" stroke="black" points="195.245,-0.5 195.245,-19.5 284.245,-19.5 284.245,-0.5 195.245,-0.5"/>
<text text-anchor="middle" x="239.745" y="-7.5" font-family="FreeSans" font-size="10.00">classbrowser.cpp</text>
</a>
</g>
</g>
<!-- Node17&#45;&gt;Node28 -->
<g id="edge38" class="edge"><title>Node17&#45;&gt;Node28</title>
<path fill="none" stroke="midnightblue" d="M719.307,-165.277C620.967,-133.641 351.821,-47.0553 266.242,-19.5241"/>
<polygon fill="midnightblue" stroke="midnightblue" points="718.498,-168.694 729.09,-168.425 720.642,-162.03 718.498,-168.694"/>
</g>
<!-- Node17&#45;&gt;Node29 -->
<g id="edge40" class="edge"><title>Node17&#45;&gt;Node29</title>
<path fill="none" stroke="midnightblue" d="M728.782,-163.874C661.636,-131.187 488.34,-46.826 432.422,-19.6051"/>
<polygon fill="midnightblue" stroke="midnightblue" points="727.369,-167.079 737.892,-168.309 730.433,-160.785 727.369,-167.079"/>
</g>
<!-- Node19 -->
<g id="node19" class="node"><title>Node19</title>
<g id="a_node19"><a xlink:href="ccoptionsdlg_8cpp.xhtml" target="_top" xlink:title="ccoptionsdlg.cpp">
<polygon fill="white" stroke="black" points="803.245,-0.5 803.245,-19.5 892.245,-19.5 892.245,-0.5 803.245,-0.5"/>
<text text-anchor="middle" x="847.745" y="-7.5" font-family="FreeSans" font-size="10.00">ccoptionsdlg.cpp</text>
</a>
</g>
</g>
<!-- Node18&#45;&gt;Node19 -->
<g id="edge19" class="edge"><title>Node18&#45;&gt;Node19</title>
<path fill="none" stroke="midnightblue" d="M886.452,-49.0024C876.705,-39.4329 864.692,-27.6389 856.659,-19.7511"/>
<polygon fill="midnightblue" stroke="midnightblue" points="884.076,-51.5746 893.663,-56.083 888.98,-46.5796 884.076,-51.5746"/>
</g>
<!-- Node18&#45;&gt;Node20 -->
<g id="edge20" class="edge"><title>Node18&#45;&gt;Node20</title>
<path fill="none" stroke="midnightblue" d="M941.912,-53.5677C976.811,-43.381 1027.09,-28.7034 1058.57,-19.5164"/>
<polygon fill="midnightblue" stroke="midnightblue" points="940.678,-50.2817 932.059,-56.4435 942.639,-57.0013 940.678,-50.2817"/>
</g>
<!-- Node21&#45;&gt;Node7 -->
<g id="edge26" class="edge"><title>Node21&#45;&gt;Node7</title>
<path fill="none" stroke="midnightblue" d="M765.168,-104.144C772.66,-94.7357 781.683,-83.4046 787.777,-75.7511"/>
<polygon fill="midnightblue" stroke="midnightblue" points="762.337,-102.08 758.846,-112.083 767.813,-106.44 762.337,-102.08"/>
</g>
<!-- Node21&#45;&gt;Node22 -->
<g id="edge22" class="edge"><title>Node21&#45;&gt;Node22</title>
<path fill="none" stroke="midnightblue" d="M731.88,-106.101C718.922,-96.3824 702.448,-84.0269 691.524,-75.8339"/>
<polygon fill="midnightblue" stroke="midnightblue" points="730.077,-109.124 740.177,-112.324 734.277,-103.524 730.077,-109.124"/>
</g>
<!-- Node22&#45;&gt;Node19 -->
<g id="edge23" class="edge"><title>Node22&#45;&gt;Node19</title>
<path fill="none" stroke="midnightblue" d="M716.132,-53.3044C747.787,-43.1294 792.913,-28.6246 821.25,-19.5164"/>
<polygon fill="midnightblue" stroke="midnightblue" points="714.815,-50.0513 706.366,-56.4435 716.957,-56.7155 714.815,-50.0513"/>
</g>
<!-- Node22&#45;&gt;Node20 -->
<g id="edge24" class="edge"><title>Node22&#45;&gt;Node20</title>
<path fill="none" stroke="midnightblue" d="M735.784,-56.0394C849.344,-39.7662 969.35,-25.0431 1036.08,-17.0767"/>
<polygon fill="midnightblue" stroke="midnightblue" points="735.272,-52.577 725.872,-57.4661 736.269,-59.5056 735.272,-52.577"/>
</g>
<!-- Node23 -->
<g id="node23" class="node"><title>Node23</title>
<g id="a_node23"><a xlink:href="doxygen__parser_8cpp.xhtml" target="_top" xlink:title="doxygen_parser.cpp">
<polygon fill="white" stroke="black" points="629.245,-0.5 629.245,-19.5 730.245,-19.5 730.245,-0.5 629.245,-0.5"/>
<text text-anchor="middle" x="679.745" y="-7.5" font-family="FreeSans" font-size="10.00">doxygen_parser.cpp</text>
</a>
</g>
</g>
<!-- Node22&#45;&gt;Node23 -->
<g id="edge25" class="edge"><title>Node22&#45;&gt;Node23</title>
<path fill="none" stroke="midnightblue" d="M679.745,-45.8045C679.745,-36.9102 679.745,-26.7798 679.745,-19.7511"/>
<polygon fill="midnightblue" stroke="midnightblue" points="676.246,-46.083 679.745,-56.083 683.246,-46.083 676.246,-46.083"/>
</g>
<!-- Node24&#45;&gt;Node20 -->
<g id="edge30" class="edge"><title>Node24&#45;&gt;Node20</title>
<path fill="none" stroke="midnightblue" d="M1036.57,-106.762C1047.79,-98.9576 1060.49,-88.3553 1068.75,-76 1080.63,-58.2095 1085.22,-32.8618 1086.88,-19.6942"/>
<polygon fill="midnightblue" stroke="midnightblue" points="1034.43,-103.98 1028,-112.402 1038.28,-109.827 1034.43,-103.98"/>
</g>
<!-- Node25 -->
<g id="node25" class="node"><title>Node25</title>
<g id="a_node25"><a xlink:href="ccoptionsprjdlg_8cpp.xhtml" target="_top" xlink:title="ccoptionsprjdlg.cpp">
<polygon fill="white" stroke="black" points="960.245,-56.5 960.245,-75.5 1059.25,-75.5 1059.25,-56.5 960.245,-56.5"/>
<text text-anchor="middle" x="1009.75" y="-63.5" font-family="FreeSans" font-size="10.00">ccoptionsprjdlg.cpp</text>
</a>
</g>
</g>
<!-- Node24&#45;&gt;Node25 -->
<g id="edge29" class="edge"><title>Node24&#45;&gt;Node25</title>
<path fill="none" stroke="midnightblue" d="M1011.68,-101.805C1011.18,-92.9102 1010.62,-82.7798 1010.23,-75.7511"/>
<polygon fill="midnightblue" stroke="midnightblue" points="1008.2,-102.293 1012.25,-112.083 1015.19,-101.904 1008.2,-102.293"/>
</g>
<!-- Node26&#45;&gt;Node27 -->
<g id="edge32" class="edge"><title>Node26&#45;&gt;Node27</title>
<path fill="none" stroke="midnightblue" d="M231.743,-108.096C210.631,-98.0073 181.884,-84.2697 163.567,-75.5164"/>
<polygon fill="midnightblue" stroke="midnightblue" points="230.308,-111.29 240.84,-112.444 233.327,-104.974 230.308,-111.29"/>
</g>
<!-- Node26&#45;&gt;Node30 -->
<g id="edge37" class="edge"><title>Node26&#45;&gt;Node30</title>
<path fill="none" stroke="midnightblue" d="M181.634,-115.513C151.682,-109.665 119.241,-98.195 96.7454,-76 81.3463,-60.8064 78.268,-33.8745 77.7545,-19.9271"/>
<polygon fill="midnightblue" stroke="midnightblue" points="181.222,-118.994 191.678,-117.288 182.44,-112.101 181.222,-118.994"/>
</g>
<!-- Node31 -->
<g id="node31" class="node"><title>Node31</title>
<g id="a_node31"><a xlink:href="classbrowserbuilderthread_8cpp.xhtml" target="_top" xlink:title="classbrowserbuilderthread.cpp">
<polygon fill="white" stroke="black" points="203.245,-56.5 203.245,-75.5 348.245,-75.5 348.245,-56.5 203.245,-56.5"/>
<text text-anchor="middle" x="275.745" y="-63.5" font-family="FreeSans" font-size="10.00">classbrowserbuilderthread.cpp</text>
</a>
</g>
</g>
<!-- Node26&#45;&gt;Node31 -->
<g id="edge36" class="edge"><title>Node26&#45;&gt;Node31</title>
<path fill="none" stroke="midnightblue" d="M264.602,-102.396C267.446,-93.362 270.729,-82.936 272.99,-75.7511"/>
<polygon fill="midnightblue" stroke="midnightblue" points="261.217,-101.493 261.553,-112.083 267.894,-103.596 261.217,-101.493"/>
</g>
<!-- Node27&#45;&gt;Node28 -->
<g id="edge33" class="edge"><title>Node27&#45;&gt;Node28</title>
<path fill="none" stroke="midnightblue" d="M169.807,-51.1774C187.104,-41.2407 209.893,-28.1492 224.68,-19.6545"/>
<polygon fill="midnightblue" stroke="midnightblue" points="167.776,-48.3078 160.848,-56.324 171.263,-54.3775 167.776,-48.3078"/>
</g>
<!-- Node27&#45;&gt;Node29 -->
<g id="edge34" class="edge"><title>Node27&#45;&gt;Node29</title>
<path fill="none" stroke="midnightblue" d="M195.526,-55.0069C246.301,-44.814 324.247,-29.167 372.224,-19.536"/>
<polygon fill="midnightblue" stroke="midnightblue" points="194.553,-51.6323 185.437,-57.0321 195.931,-58.4954 194.553,-51.6323"/>
</g>
<!-- Node27&#45;&gt;Node30 -->
<g id="edge35" class="edge"><title>Node27&#45;&gt;Node30</title>
<path fill="none" stroke="midnightblue" d="M126.983,-50.1008C114.745,-40.3824 99.1867,-28.0269 88.8696,-19.8339"/>
<polygon fill="midnightblue" stroke="midnightblue" points="124.812,-52.846 134.82,-56.324 129.166,-47.3642 124.812,-52.846"/>
</g>
<!-- Node32&#45;&gt;Node22 -->
<g id="edge43" class="edge"><title>Node32&#45;&gt;Node22</title>
<path fill="none" stroke="midnightblue" d="M647.923,-158.5C652.292,-145.479 658.314,-127.652 663.745,-112 668.149,-99.3098 673.386,-84.6603 676.639,-75.6131"/>
<polygon fill="midnightblue" stroke="midnightblue" points="644.547,-157.56 644.692,-168.154 651.185,-159.782 644.547,-157.56"/>
</g>
<!-- Node33 -->
<g id="node33" class="node"><title>Node33</title>
<g id="a_node33"><a xlink:href="systemheadersthread_8cpp.xhtml" target="_top" xlink:title="systemheadersthread.cpp">
<polygon fill="white" stroke="black" points="410.245,-112.5 410.245,-131.5 535.245,-131.5 535.245,-112.5 410.245,-112.5"/>
<text text-anchor="middle" x="472.745" y="-119.5" font-family="FreeSans" font-size="10.00">systemheadersthread.cpp</text>
</a>
</g>
</g>
<!-- Node32&#45;&gt;Node33 -->
<g id="edge44" class="edge"><title>Node32&#45;&gt;Node33</title>
<path fill="none" stroke="midnightblue" d="M605.143,-165.304C573.299,-155.129 527.904,-140.625 499.399,-131.516"/>
<polygon fill="midnightblue" stroke="midnightblue" points="604.376,-168.734 614.967,-168.444 606.507,-162.066 604.376,-168.734"/>
</g>
<!-- Node34&#45;&gt;Node26 -->
<g id="edge49" class="edge"><title>Node34&#45;&gt;Node26</title>
<path fill="none" stroke="midnightblue" d="M113.7,-165.568C148.41,-155.381 198.423,-140.703 229.726,-131.516"/>
<polygon fill="midnightblue" stroke="midnightblue" points="112.51,-162.269 103.901,-168.444 114.482,-168.986 112.51,-162.269"/>
</g>
<!-- Node34&#45;&gt;Node27 -->
<g id="edge48" class="edge"><title>Node34&#45;&gt;Node27</title>
<path fill="none" stroke="midnightblue" d="M96.4477,-162.224C106.618,-154.315 118.141,-143.781 125.745,-132 137.398,-113.946 142.591,-88.7092 144.619,-75.628"/>
<polygon fill="midnightblue" stroke="midnightblue" points="94.2984,-159.461 88.3385,-168.22 98.4602,-165.089 94.2984,-159.461"/>
</g>
<!-- Node35 -->
<g id="node35" class="node"><title>Node35</title>
<g id="a_node35"><a xlink:href="cctreectrl_8cpp.xhtml" target="_top" xlink:title="cctreectrl.cpp">
<polygon fill="white" stroke="black" points="42.2454,-112.5 42.2454,-131.5 117.245,-131.5 117.245,-112.5 42.2454,-112.5"/>
<text text-anchor="middle" x="79.7454" y="-119.5" font-family="FreeSans" font-size="10.00">cctreectrl.cpp</text>
</a>
</g>
</g>
<!-- Node34&#45;&gt;Node35 -->
<g id="edge47" class="edge"><title>Node34&#45;&gt;Node35</title>
<path fill="none" stroke="midnightblue" d="M76.4954,-158.101C77.3255,-149.136 78.2771,-138.858 78.9351,-131.751"/>
<polygon fill="midnightblue" stroke="midnightblue" points="73.0081,-157.803 75.5711,-168.083 79.9782,-158.448 73.0081,-157.803"/>
</g>
<!-- Node40&#45;&gt;Node16 -->
<g id="edge60" class="edge"><title>Node40&#45;&gt;Node16</title>
<path fill="none" stroke="midnightblue" d="M598.745,-269.805C598.745,-260.91 598.745,-250.78 598.745,-243.751"/>
<polygon fill="midnightblue" stroke="midnightblue" points="595.246,-270.083 598.745,-280.083 602.246,-270.083 595.246,-270.083"/>
</g>
<!-- Node41 -->
<g id="node41" class="node"><title>Node41</title>
<g id="a_node41"><a xlink:href="parser__base_8cpp.xhtml" target="_top" xlink:title="parser_base.cpp">
<polygon fill="white" stroke="black" points="469.745,-224.5 469.745,-243.5 555.745,-243.5 555.745,-224.5 469.745,-224.5"/>
<text text-anchor="middle" x="512.745" y="-231.5" font-family="FreeSans" font-size="10.00">parser_base.cpp</text>
</a>
</g>
</g>
<!-- Node40&#45;&gt;Node41 -->
<g id="edge61" class="edge"><title>Node40&#45;&gt;Node41</title>
<path fill="none" stroke="midnightblue" d="M576.291,-274.901C560.521,-264.999 539.932,-252.071 526.529,-243.655"/>
<polygon fill="midnightblue" stroke="midnightblue" points="574.598,-277.97 584.928,-280.324 578.32,-272.042 574.598,-277.97"/>
</g>
<!-- Node42&#45;&gt;Node15 -->
<g id="edge64" class="edge"><title>Node42&#45;&gt;Node15</title>
<path fill="none" stroke="midnightblue" d="M1231.5,-388.096C1210.21,-378.007 1181.2,-364.27 1162.72,-355.516"/>
<polygon fill="midnightblue" stroke="midnightblue" points="1230.15,-391.326 1240.68,-392.444 1233.14,-385 1230.15,-391.326"/>
</g>
<!-- Node42&#45;&gt;Node20 -->
<g id="edge65" class="edge"><title>Node42&#45;&gt;Node20</title>
<path fill="none" stroke="midnightblue" d="M1247.54,-383.568C1235.09,-362.508 1216.75,-325.588 1216.75,-291 1216.75,-291 1216.75,-291 1216.75,-121 1216.75,-67.1384 1150.83,-34.0719 1113.23,-19.5933"/>
<polygon fill="midnightblue" stroke="midnightblue" points="1244.69,-385.62 1252.91,-392.308 1250.65,-381.955 1244.69,-385.62"/>
</g>
<!-- Node43 -->
<g id="node43" class="node"><title>Node43</title>
<g id="a_node43"><a xlink:href="nativeparser__base_8cpp.xhtml" target="_top" xlink:title="nativeparser_base.cpp">
<polygon fill="white" stroke="black" points="1244.75,-336.5 1244.75,-355.5 1356.75,-355.5 1356.75,-336.5 1244.75,-336.5"/>
<text text-anchor="middle" x="1300.75" y="-343.5" font-family="FreeSans" font-size="10.00">nativeparser_base.cpp</text>
</a>
</g>
</g>
<!-- Node42&#45;&gt;Node43 -->
<g id="edge66" class="edge"><title>Node42&#45;&gt;Node43</title>
<path fill="none" stroke="midnightblue" d="M1271.86,-384.144C1279.17,-374.736 1287.99,-363.405 1293.94,-355.751"/>
<polygon fill="midnightblue" stroke="midnightblue" points="1269.06,-382.041 1265.68,-392.083 1274.58,-386.338 1269.06,-382.041"/>
</g>
<!-- Node44 -->
<g id="node44" class="node"><title>Node44</title>
<g id="a_node44"><a xlink:href="tokenizer_8cpp.xhtml" target="_top" xlink:title="tokenizer.cpp">
<polygon fill="white" stroke="black" points="1374.75,-336.5 1374.75,-355.5 1448.75,-355.5 1448.75,-336.5 1374.75,-336.5"/>
<text text-anchor="middle" x="1411.75" y="-343.5" font-family="FreeSans" font-size="10.00">tokenizer.cpp</text>
</a>
</g>
</g>
<!-- Node42&#45;&gt;Node44 -->
<g id="edge67" class="edge"><title>Node42&#45;&gt;Node44</title>
<path fill="none" stroke="midnightblue" d="M1292.63,-389.039C1321.42,-378.879 1362.03,-364.546 1387.62,-355.516"/>
<polygon fill="midnightblue" stroke="midnightblue" points="1291.25,-385.815 1282.99,-392.444 1293.58,-392.416 1291.25,-385.815"/>
</g>
</g>
</svg>
