<?xml version="1.0" encoding="UTF-8" standalone="no"?>
<!DOCTYPE svg PUBLIC "-//W3C//DTD SVG 1.1//EN"
 "http://www.w3.org/Graphics/SVG/1.1/DTD/svg11.dtd">
<!-- Generated by graphviz version 2.40.1 (20161225.0304)
 -->
<!-- Title: breakpointsdlg.h Pages: 1 -->
<svg width="222pt" height="95pt"
 viewBox="0.00 0.00 222.00 95.00" xmlns="http://www.w3.org/2000/svg" xmlns:xlink="http://www.w3.org/1999/xlink">
<g id="graph0" class="graph" transform="scale(1 1) rotate(0) translate(4 91)">
<title>breakpointsdlg.h</title>
<!-- Node31 -->
<g id="node1" class="node">
<title>Node31</title>
<polygon fill="#bfbfbf" stroke="#000000" points="63.5,-67.5 63.5,-86.5 149.5,-86.5 149.5,-67.5 63.5,-67.5"/>
<text text-anchor="middle" x="106.5" y="-74.5" font-family="FreeSans" font-size="10.00" fill="#000000">breakpointsdlg.h</text>
</g>
<!-- Node32 -->
<g id="node2" class="node">
<title>Node32</title>
<g id="a_node2"><a xlink:href="breakpointsdlg_8cpp" target="_top" xlink:title="breakpointsdlg.cpp">
<polygon fill="none" stroke="#000000" points="0,-6 0,-25 97,-25 97,-6 0,-6"/>
<text text-anchor="middle" x="48.5" y="-13" font-family="FreeSans" font-size="10.00" fill="#000000">breakpointsdlg.cpp</text>
</a>
</g>
</g>
<!-- Node31&#45;&gt;Node32 -->
<g id="edge1" class="edge">
<title>Node31&#45;&gt;Node32</title>
<path fill="none" stroke="#191970" d="M90.3739,-59.9007C79.8358,-48.7268 66.4523,-34.5356 57.6903,-25.2449"/>
<polygon fill="#191970" stroke="#191970" points="88.0302,-62.5169 97.4375,-67.3906 93.1227,-57.7142 88.0302,-62.5169"/>
</g>
<!-- Node33 -->
<g id="node3" class="node">
<title>Node33</title>
<g id="a_node3"><a xlink:href="debugger__interface__creator_8cpp" target="_top" xlink:title="debugger_interface\l_creator.cpp">
<polygon fill="none" stroke="#000000" points="115,-.5 115,-30.5 214,-30.5 214,-.5 115,-.5"/>
<text text-anchor="start" x="123" y="-18.5" font-family="FreeSans" font-size="10.00" fill="#000000">debugger_interface</text>
<text text-anchor="middle" x="164.5" y="-7.5" font-family="FreeSans" font-size="10.00" fill="#000000">_creator.cpp</text>
</a>
</g>
</g>
<!-- Node31&#45;&gt;Node33 -->
<g id="edge2" class="edge">
<title>Node31&#45;&gt;Node33</title>
<path fill="none" stroke="#191970" d="M122.5973,-59.9314C131.2918,-50.7122 141.9299,-39.4321 150.3116,-30.5446"/>
<polygon fill="#191970" stroke="#191970" points="119.8773,-57.7142 115.5625,-67.3906 124.9698,-62.5169 119.8773,-57.7142"/>
</g>
</g>
</svg>
