<?xml version="1.0" encoding="UTF-8" standalone="no"?>
<!DOCTYPE svg PUBLIC "-//W3C//DTD SVG 1.1//EN"
 "http://www.w3.org/Graphics/SVG/1.1/DTD/svg11.dtd">
<!-- Generated by graphviz version 2.40.1 (20161225.0304)
 -->
<!-- Title: buildtargetpanel.h Pages: 1 -->
<svg width="600pt" height="84pt"
 viewBox="0.00 0.00 599.50 84.00" xmlns="http://www.w3.org/2000/svg" xmlns:xlink="http://www.w3.org/1999/xlink">
<g id="graph0" class="graph" transform="scale(1 1) rotate(0) translate(4 80)">
<title>buildtargetpanel.h</title>
<!-- Node0 -->
<g id="node1" class="node">
<title>Node0</title>
<polygon fill="#bfbfbf" stroke="#000000" points="260.5,-56.5 260.5,-75.5 352.5,-75.5 352.5,-56.5 260.5,-56.5"/>
<text text-anchor="middle" x="306.5" y="-63.5" font-family="FreeSans" font-size="10.00" fill="#000000">buildtargetpanel.h</text>
</g>
<!-- Node1 -->
<g id="node2" class="node">
<title>Node1</title>
<polygon fill="none" stroke="#bfbfbf" points="0,-.5 0,-19.5 83,-19.5 83,-.5 0,-.5"/>
<text text-anchor="middle" x="41.5" y="-7.5" font-family="FreeSans" font-size="10.00" fill="#000000">wx/combobox.h</text>
</g>
<!-- Node0&#45;&gt;Node1 -->
<g id="edge1" class="edge">
<title>Node0&#45;&gt;Node1</title>
<path fill="none" stroke="#191970" d="M261.246,-56.4369C214.5986,-46.5793 141.9805,-31.2336 93.123,-20.909"/>
<polygon fill="#191970" stroke="#191970" points="93.5834,-17.4291 83.0758,-18.7858 92.1361,-24.2778 93.5834,-17.4291"/>
</g>
<!-- Node2 -->
<g id="node3" class="node">
<title>Node2</title>
<polygon fill="none" stroke="#bfbfbf" points="101.5,-.5 101.5,-19.5 181.5,-19.5 181.5,-.5 101.5,-.5"/>
<text text-anchor="middle" x="141.5" y="-7.5" font-family="FreeSans" font-size="10.00" fill="#000000">wx/checkbox.h</text>
</g>
<!-- Node0&#45;&gt;Node2 -->
<g id="edge2" class="edge">
<title>Node0&#45;&gt;Node2</title>
<path fill="none" stroke="#191970" d="M278.1355,-56.3733C250.8173,-47.1016 209.3204,-33.0178 179.2262,-22.804"/>
<polygon fill="#191970" stroke="#191970" points="180.0887,-19.4008 169.4944,-19.5011 177.839,-26.0294 180.0887,-19.4008"/>
</g>
<!-- Node3 -->
<g id="node4" class="node">
<title>Node3</title>
<polygon fill="none" stroke="#bfbfbf" points="199.5,-.5 199.5,-19.5 257.5,-19.5 257.5,-.5 199.5,-.5"/>
<text text-anchor="middle" x="228.5" y="-7.5" font-family="FreeSans" font-size="10.00" fill="#000000">wx/sizer.h</text>
</g>
<!-- Node0&#45;&gt;Node3 -->
<g id="edge3" class="edge">
<title>Node0&#45;&gt;Node3</title>
<path fill="none" stroke="#191970" d="M292.9134,-56.2455C281.1695,-47.814 263.9801,-35.4729 250.3118,-25.6598"/>
<polygon fill="#191970" stroke="#191970" points="252.0954,-22.6316 241.9309,-19.6427 248.0129,-28.3179 252.0954,-22.6316"/>
</g>
<!-- Node4 -->
<g id="node5" class="node">
<title>Node4</title>
<polygon fill="none" stroke="#bfbfbf" points="275.5,-.5 275.5,-19.5 337.5,-19.5 337.5,-.5 275.5,-.5"/>
<text text-anchor="middle" x="306.5" y="-7.5" font-family="FreeSans" font-size="10.00" fill="#000000">wx/panel.h</text>
</g>
<!-- Node0&#45;&gt;Node4 -->
<g id="edge4" class="edge">
<title>Node0&#45;&gt;Node4</title>
<path fill="none" stroke="#191970" d="M306.5,-56.2455C306.5,-48.9382 306.5,-38.6944 306.5,-29.7046"/>
<polygon fill="#191970" stroke="#191970" points="310.0001,-29.6426 306.5,-19.6427 303.0001,-29.6427 310.0001,-29.6426"/>
</g>
<!-- Node5 -->
<g id="node6" class="node">
<title>Node5</title>
<polygon fill="none" stroke="#bfbfbf" points="355.5,-.5 355.5,-19.5 425.5,-19.5 425.5,-.5 355.5,-.5"/>
<text text-anchor="middle" x="390.5" y="-7.5" font-family="FreeSans" font-size="10.00" fill="#000000">wx/stattext.h</text>
</g>
<!-- Node0&#45;&gt;Node5 -->
<g id="edge5" class="edge">
<title>Node0&#45;&gt;Node5</title>
<path fill="none" stroke="#191970" d="M321.1317,-56.2455C333.8994,-47.7337 352.6438,-35.2375 367.4299,-25.3801"/>
<polygon fill="#191970" stroke="#191970" points="369.6569,-28.1019 376.036,-19.6427 365.774,-22.2775 369.6569,-28.1019"/>
</g>
<!-- Node6 -->
<g id="node7" class="node">
<title>Node6</title>
<polygon fill="none" stroke="#bfbfbf" points="443.5,-.5 443.5,-19.5 511.5,-19.5 511.5,-.5 443.5,-.5"/>
<text text-anchor="middle" x="477.5" y="-7.5" font-family="FreeSans" font-size="10.00" fill="#000000">wx/textctrl.h</text>
</g>
<!-- Node0&#45;&gt;Node6 -->
<g id="edge6" class="edge">
<title>Node0&#45;&gt;Node6</title>
<path fill="none" stroke="#191970" d="M335.8959,-56.3733C364.3307,-47.0613 407.5877,-32.8953 438.8081,-22.671"/>
<polygon fill="#191970" stroke="#191970" points="440.0736,-25.9396 448.4876,-19.5011 437.895,-19.2872 440.0736,-25.9396"/>
</g>
<!-- Node7 -->
<g id="node8" class="node">
<title>Node7</title>
<polygon fill="none" stroke="#bfbfbf" points="529.5,-.5 529.5,-19.5 591.5,-19.5 591.5,-.5 529.5,-.5"/>
<text text-anchor="middle" x="560.5" y="-7.5" font-family="FreeSans" font-size="10.00" fill="#000000">wx/string.h</text>
</g>
<!-- Node0&#45;&gt;Node7 -->
<g id="edge7" class="edge">
<title>Node0&#45;&gt;Node7</title>
<path fill="none" stroke="#191970" d="M352.5179,-56.5697C393.7177,-48.0232 456.0293,-34.8435 518.9761,-20.3042"/>
<polygon fill="#191970" stroke="#191970" points="520.1309,-23.6293 529.081,-17.9595 518.5486,-16.8104 520.1309,-23.6293"/>
</g>
</g>
</svg>
