<?xml version="1.0" encoding="UTF-8" standalone="no"?>
<!DOCTYPE svg PUBLIC "-//W3C//DTD SVG 1.1//EN"
 "http://www.w3.org/Graphics/SVG/1.1/DTD/svg11.dtd">
<!-- Generated by graphviz version 2.38.0 (20140413.2041)
 -->
<!-- Title: buildtargetpanel.h Pages: 1 -->
<svg width="198pt" height="84pt"
 viewBox="0.00 0.00 198.00 84.00" xmlns="http://www.w3.org/2000/svg" xmlns:xlink="http://www.w3.org/1999/xlink">
<g id="graph0" class="graph" transform="scale(1 1) rotate(0) translate(4 80)">
<title>buildtargetpanel.h</title>
<!-- Node8 -->
<g id="node1" class="node"><title>Node8</title>
<polygon fill="#bfbfbf" stroke="black" points="57.5,-56.5 57.5,-75.5 149.5,-75.5 149.5,-56.5 57.5,-56.5"/>
<text text-anchor="middle" x="103.5" y="-63.5" font-family="FreeSans" font-size="10.00">buildtargetpanel.h</text>
</g>
<!-- Node9 -->
<g id="node2" class="node"><title>Node9</title>
<g id="a_node2"><a xlink:href="buildtargetpanel_8cpp" target="_top" xlink:title="buildtargetpanel.cpp">
<polygon fill="none" stroke="black" points="0,-0.5 0,-19.5 103,-19.5 103,-0.5 0,-0.5"/>
<text text-anchor="middle" x="51.5" y="-7.5" font-family="FreeSans" font-size="10.00">buildtargetpanel.cpp</text>
</a>
</g>
</g>
<!-- Node8&#45;&gt;Node9 -->
<g id="edge1" class="edge"><title>Node8&#45;&gt;Node9</title>
<path fill="none" stroke="midnightblue" d="M87.8206,-48.7175C78.6553,-39.1997 67.4474,-27.5608 59.927,-19.7511"/>
<polygon fill="midnightblue" stroke="midnightblue" points="85.4557,-51.3075 94.9133,-56.083 90.4979,-46.452 85.4557,-51.3075"/>
</g>
<!-- Node10 -->
<g id="node3" class="node"><title>Node10</title>
<g id="a_node3"><a xlink:href="wizpage_8cpp" target="_top" xlink:title="wizpage.cpp">
<polygon fill="none" stroke="black" points="121,-0.5 121,-19.5 190,-19.5 190,-0.5 121,-0.5"/>
<text text-anchor="middle" x="155.5" y="-7.5" font-family="FreeSans" font-size="10.00">wizpage.cpp</text>
</a>
</g>
</g>
<!-- Node8&#45;&gt;Node10 -->
<g id="edge2" class="edge"><title>Node8&#45;&gt;Node10</title>
<path fill="none" stroke="midnightblue" d="M119.179,-48.7175C128.345,-39.1997 139.553,-27.5608 147.073,-19.7511"/>
<polygon fill="midnightblue" stroke="midnightblue" points="116.502,-46.452 112.087,-56.083 121.544,-51.3075 116.502,-46.452"/>
</g>
</g>
</svg>
