<?xml version="1.0" encoding="UTF-8" standalone="no"?>
<!DOCTYPE svg PUBLIC "-//W3C//DTD SVG 1.1//EN"
 "http://www.w3.org/Graphics/SVG/1.1/DTD/svg11.dtd">
<!-- Generated by graphviz version 2.38.0 (20140413.2041)
 -->
<!-- Title: cbproject.h Pages: 1 -->
<svg width="1973pt" height="308pt"
 viewBox="0.00 0.00 1973.47 308.00" xmlns="http://www.w3.org/2000/svg" xmlns:xlink="http://www.w3.org/1999/xlink">
<g id="graph0" class="graph" transform="scale(1 1) rotate(0) translate(4 304)">
<title>cbproject.h</title>
<polygon fill="white" stroke="none" points="-4,4 -4,-304 1969.47,-304 1969.47,4 -4,4"/>
<!-- Node1 -->
<g id="node1" class="node"><title>Node1</title>
<polygon fill="#bfbfbf" stroke="black" points="946,-280.5 946,-299.5 1010,-299.5 1010,-280.5 946,-280.5"/>
<text text-anchor="middle" x="978" y="-287.5" font-family="FreeSans" font-size="10.00">cbproject.h</text>
</g>
<!-- Node2 -->
<g id="node2" class="node"><title>Node2</title>
<polygon fill="white" stroke="#bfbfbf" points="0,-224.5 0,-243.5 76,-243.5 76,-224.5 0,-224.5"/>
<text text-anchor="middle" x="38" y="-231.5" font-family="FreeSans" font-size="10.00">wx/datetime.h</text>
</g>
<!-- Node1&#45;&gt;Node2 -->
<g id="edge1" class="edge"><title>Node1&#45;&gt;Node2</title>
<path fill="none" stroke="midnightblue" d="M945.631,-288.769C829.48,-287.64 422.909,-281.107 90,-244 88.7451,-243.86 87.4747,-243.709 86.1939,-243.549"/>
<polygon fill="midnightblue" stroke="midnightblue" points="86.6505,-240.079 76.2624,-242.162 85.682,-247.011 86.6505,-240.079"/>
</g>
<!-- Node3 -->
<g id="node3" class="node"><title>Node3</title>
<polygon fill="white" stroke="#bfbfbf" points="424,-56.5 424,-75.5 498,-75.5 498,-56.5 424,-56.5"/>
<text text-anchor="middle" x="461" y="-63.5" font-family="FreeSans" font-size="10.00">wx/dynarray.h</text>
</g>
<!-- Node1&#45;&gt;Node3 -->
<g id="edge2" class="edge"><title>Node1&#45;&gt;Node3</title>
<path fill="none" stroke="midnightblue" d="M945.633,-289.551C825.147,-290.81 405.762,-287.871 332,-188 313.336,-162.73 348.908,-125.072 363,-112 379.322,-96.8605 401.625,-86.0764 420.831,-78.8681"/>
<polygon fill="midnightblue" stroke="midnightblue" points="422.007,-82.1647 430.257,-75.517 419.662,-75.5692 422.007,-82.1647"/>
</g>
<!-- Node4 -->
<g id="node4" class="node"><title>Node4</title>
<polygon fill="white" stroke="#bfbfbf" points="987.5,-56.5 987.5,-75.5 1064.5,-75.5 1064.5,-56.5 987.5,-56.5"/>
<text text-anchor="middle" x="1026" y="-63.5" font-family="FreeSans" font-size="10.00">wx/hashmap.h</text>
</g>
<!-- Node1&#45;&gt;Node4 -->
<g id="edge3" class="edge"><title>Node1&#45;&gt;Node4</title>
<path fill="none" stroke="midnightblue" d="M994.4,-280.429C1020.93,-265.586 1072.63,-232.377 1096,-188 1111.79,-158.022 1118.78,-141.436 1102,-112 1093.59,-97.2475 1078.23,-86.8375 1063.52,-79.7738"/>
<polygon fill="midnightblue" stroke="midnightblue" points="1064.58,-76.4179 1054.02,-75.603 1061.76,-82.8275 1064.58,-76.4179"/>
</g>
<!-- Node5 -->
<g id="node5" class="node"><title>Node5</title>
<polygon fill="white" stroke="#bfbfbf" points="286,-0.5 286,-19.5 354,-19.5 354,-0.5 286,-0.5"/>
<text text-anchor="middle" x="320" y="-7.5" font-family="FreeSans" font-size="10.00">wx/treectrl.h</text>
</g>
<!-- Node1&#45;&gt;Node5 -->
<g id="edge4" class="edge"><title>Node1&#45;&gt;Node5</title>
<path fill="none" stroke="midnightblue" d="M945.882,-288.343C794.234,-285.112 155.854,-270.002 123,-244 99.3993,-225.322 104,-209.098 104,-179 104,-179 104,-179 104,-121 104,-44.6614 212.456,-21.2773 275.665,-14.1313"/>
<polygon fill="midnightblue" stroke="midnightblue" points="276.189,-17.5958 285.774,-13.0825 275.466,-10.6332 276.189,-17.5958"/>
</g>
<!-- Node6 -->
<g id="node6" class="node"><title>Node6</title>
<g id="a_node6"><a xlink:href="settings_8h.xhtml" target="_top" xlink:title="settings.h">
<polygon fill="white" stroke="black" points="1121.5,-0.5 1121.5,-19.5 1178.5,-19.5 1178.5,-0.5 1121.5,-0.5"/>
<text text-anchor="middle" x="1150" y="-7.5" font-family="FreeSans" font-size="10.00">settings.h</text>
</a>
</g>
</g>
<!-- Node1&#45;&gt;Node6 -->
<g id="edge5" class="edge"><title>Node1&#45;&gt;Node6</title>
<path fill="none" stroke="midnightblue" d="M1003.84,-280.493C1023.87,-273.032 1051.57,-260.751 1072,-244 1096.06,-224.271 1101.26,-216.381 1114,-188 1138.36,-133.751 1146.39,-62.7448 1148.91,-29.5782"/>
<polygon fill="midnightblue" stroke="midnightblue" points="1152.41,-29.7277 1149.59,-19.5143 1145.42,-29.2553 1152.41,-29.7277"/>
</g>
<!-- Node7 -->
<g id="node7" class="node"><title>Node7</title>
<g id="a_node7"><a xlink:href="misctreeitemdata_8h.xhtml" target="_top" xlink:title="misctreeitemdata.h">
<polygon fill="white" stroke="black" points="132,-224.5 132,-243.5 230,-243.5 230,-224.5 132,-224.5"/>
<text text-anchor="middle" x="181" y="-231.5" font-family="FreeSans" font-size="10.00">misctreeitemdata.h</text>
</a>
</g>
</g>
<!-- Node1&#45;&gt;Node7 -->
<g id="edge6" class="edge"><title>Node1&#45;&gt;Node7</title>
<path fill="none" stroke="midnightblue" d="M945.729,-287.951C843.014,-284.415 514.535,-271.572 244,-244 242.733,-243.871 241.451,-243.735 240.16,-243.593"/>
<polygon fill="midnightblue" stroke="midnightblue" points="240.475,-240.106 230.134,-242.41 239.654,-247.058 240.475,-240.106"/>
</g>
<!-- Node8 -->
<g id="node8" class="node"><title>Node8</title>
<g id="a_node8"><a xlink:href="compiletargetbase_8h.xhtml" target="_top" xlink:title="compiletargetbase.h">
<polygon fill="white" stroke="black" points="983.5,-168.5 983.5,-187.5 1086.5,-187.5 1086.5,-168.5 983.5,-168.5"/>
<text text-anchor="middle" x="1035" y="-175.5" font-family="FreeSans" font-size="10.00">compiletargetbase.h</text>
</a>
</g>
</g>
<!-- Node1&#45;&gt;Node8 -->
<g id="edge8" class="edge"><title>Node1&#45;&gt;Node8</title>
<path fill="none" stroke="midnightblue" d="M982.473,-280.368C991.796,-262.376 1013.47,-220.55 1025.87,-196.627"/>
<polygon fill="midnightblue" stroke="midnightblue" points="1029.05,-198.081 1030.55,-187.591 1022.84,-194.86 1029.05,-198.081"/>
</g>
<!-- Node11 -->
<g id="node11" class="node"><title>Node11</title>
<polygon fill="white" stroke="#bfbfbf" points="1571.5,-0.5 1571.5,-19.5 1614.5,-19.5 1614.5,-0.5 1571.5,-0.5"/>
<text text-anchor="middle" x="1593" y="-7.5" font-family="FreeSans" font-size="10.00">vector</text>
</g>
<!-- Node1&#45;&gt;Node11 -->
<g id="edge85" class="edge"><title>Node1&#45;&gt;Node11</title>
<path fill="none" stroke="midnightblue" d="M1010.14,-288.848C1154.21,-287.663 1740.22,-277.341 1896,-188 1924.69,-171.547 1930.94,-161.934 1945,-132 1959.46,-101.213 1976.51,-81.4956 1954,-56 1932.32,-31.4524 1708.81,-17.1429 1624.74,-12.5951"/>
<polygon fill="midnightblue" stroke="midnightblue" points="1624.69,-9.08756 1614.52,-12.0533 1624.32,-16.0778 1624.69,-9.08756"/>
</g>
<!-- Node18 -->
<g id="node18" class="node"><title>Node18</title>
<g id="a_node18"><a xlink:href="cbplugin_8h.xhtml" target="_top" xlink:title="cbplugin.h">
<polygon fill="white" stroke="black" points="1301,-224.5 1301,-243.5 1361,-243.5 1361,-224.5 1301,-224.5"/>
<text text-anchor="middle" x="1331" y="-231.5" font-family="FreeSans" font-size="10.00">cbplugin.h</text>
</a>
</g>
</g>
<!-- Node1&#45;&gt;Node18 -->
<g id="edge21" class="edge"><title>Node1&#45;&gt;Node18</title>
<path fill="none" stroke="midnightblue" d="M1010.26,-284.065C1074.86,-274.184 1219.92,-251.993 1290.66,-241.17"/>
<polygon fill="midnightblue" stroke="midnightblue" points="1291.59,-244.569 1300.95,-239.597 1290.54,-237.649 1291.59,-244.569"/>
</g>
<!-- Node24 -->
<g id="node24" class="node"><title>Node24</title>
<polygon fill="white" stroke="#bfbfbf" points="1909.5,-56.5 1909.5,-75.5 1944.5,-75.5 1944.5,-56.5 1909.5,-56.5"/>
<text text-anchor="middle" x="1927" y="-63.5" font-family="FreeSans" font-size="10.00">map</text>
</g>
<!-- Node1&#45;&gt;Node24 -->
<g id="edge84" class="edge"><title>Node1&#45;&gt;Node24</title>
<path fill="none" stroke="midnightblue" d="M1010.14,-286.231C1077.23,-280.246 1237.03,-264.939 1370,-244 1619.87,-204.653 1767.7,-327.669 1928,-132 1938.49,-119.199 1936.63,-99.7386 1933.13,-85.4465"/>
<polygon fill="midnightblue" stroke="midnightblue" points="1936.46,-84.3511 1930.32,-75.7206 1929.74,-86.2996 1936.46,-84.3511"/>
</g>
<!-- Node30 -->
<g id="node30" class="node"><title>Node30</title>
<g id="a_node30"><a xlink:href="projectbuildtarget_8h.xhtml" target="_top" xlink:title="projectbuildtarget.h">
<polygon fill="white" stroke="black" points="523,-224.5 523,-243.5 621,-243.5 621,-224.5 523,-224.5"/>
<text text-anchor="middle" x="572" y="-231.5" font-family="FreeSans" font-size="10.00">projectbuildtarget.h</text>
</a>
</g>
</g>
<!-- Node1&#45;&gt;Node30 -->
<g id="edge53" class="edge"><title>Node1&#45;&gt;Node30</title>
<path fill="none" stroke="midnightblue" d="M945.803,-284.718C877.697,-275.659 718.174,-254.442 631.161,-242.869"/>
<polygon fill="midnightblue" stroke="midnightblue" points="631.551,-239.39 621.176,-241.541 630.628,-246.329 631.551,-239.39"/>
</g>
<!-- Node34 -->
<g id="node34" class="node"><title>Node34</title>
<g id="a_node34"><a xlink:href="projectmanager_8h.xhtml" target="_top" xlink:title="projectmanager.h">
<polygon fill="white" stroke="black" points="800.5,-168.5 800.5,-187.5 891.5,-187.5 891.5,-168.5 800.5,-168.5"/>
<text text-anchor="middle" x="846" y="-175.5" font-family="FreeSans" font-size="10.00">projectmanager.h</text>
</a>
</g>
</g>
<!-- Node1&#45;&gt;Node34 -->
<g id="edge70" class="edge"><title>Node1&#45;&gt;Node34</title>
<path fill="none" stroke="midnightblue" d="M967.642,-280.368C945.28,-261.733 892.239,-217.532 864.161,-194.134"/>
<polygon fill="midnightblue" stroke="midnightblue" points="866.233,-191.305 856.31,-187.591 861.751,-196.682 866.233,-191.305"/>
</g>
<!-- Node7&#45;&gt;Node5 -->
<g id="edge7" class="edge"><title>Node7&#45;&gt;Node5</title>
<path fill="none" stroke="midnightblue" d="M178.01,-224.155C169.17,-196.229 146.122,-108.676 185,-56 205.826,-27.7833 245.065,-17.0228 275.893,-13.0353"/>
<polygon fill="midnightblue" stroke="midnightblue" points="276.428,-16.4977 285.987,-11.9273 275.665,-9.53946 276.428,-16.4977"/>
</g>
<!-- Node9 -->
<g id="node9" class="node"><title>Node9</title>
<g id="a_node9"><a xlink:href="compileoptionsbase_8h.xhtml" target="_top" xlink:title="compileoptionsbase.h">
<polygon fill="white" stroke="black" points="983.5,-112.5 983.5,-131.5 1092.5,-131.5 1092.5,-112.5 983.5,-112.5"/>
<text text-anchor="middle" x="1038" y="-119.5" font-family="FreeSans" font-size="10.00">compileoptionsbase.h</text>
</a>
</g>
</g>
<!-- Node8&#45;&gt;Node9 -->
<g id="edge9" class="edge"><title>Node8&#45;&gt;Node9</title>
<path fill="none" stroke="midnightblue" d="M1035.5,-168.083C1035.89,-161.006 1036.45,-150.861 1036.95,-141.986"/>
<polygon fill="midnightblue" stroke="midnightblue" points="1040.45,-141.93 1037.51,-131.751 1033.46,-141.542 1040.45,-141.93"/>
</g>
<!-- Node9&#45;&gt;Node4 -->
<g id="edge20" class="edge"><title>Node9&#45;&gt;Node4</title>
<path fill="none" stroke="midnightblue" d="M1036.02,-112.083C1034.43,-104.927 1032.14,-94.6353 1030.15,-85.6911"/>
<polygon fill="midnightblue" stroke="midnightblue" points="1033.53,-84.7537 1027.94,-75.7511 1026.7,-86.2722 1033.53,-84.7537"/>
</g>
<!-- Node10 -->
<g id="node10" class="node"><title>Node10</title>
<g id="a_node10"><a xlink:href="globals_8h.xhtml" target="_top" xlink:title="globals.h">
<polygon fill="white" stroke="black" points="720,-56.5 720,-75.5 774,-75.5 774,-56.5 720,-56.5"/>
<text text-anchor="middle" x="747" y="-63.5" font-family="FreeSans" font-size="10.00">globals.h</text>
</a>
</g>
</g>
<!-- Node9&#45;&gt;Node10 -->
<g id="edge10" class="edge"><title>Node9&#45;&gt;Node10</title>
<path fill="none" stroke="midnightblue" d="M991.89,-112.444C934.346,-101.765 837.072,-83.7145 784.094,-73.8835"/>
<polygon fill="midnightblue" stroke="midnightblue" points="784.585,-70.4149 774.114,-72.0315 783.308,-77.2974 784.585,-70.4149"/>
</g>
<!-- Node10&#45;&gt;Node5 -->
<g id="edge13" class="edge"><title>Node10&#45;&gt;Node5</title>
<path fill="none" stroke="midnightblue" d="M719.965,-61.5811C648.193,-52.5045 452.328,-27.7347 364.109,-16.5782"/>
<polygon fill="midnightblue" stroke="midnightblue" points="364.511,-13.1012 354.151,-15.3188 363.632,-20.0459 364.511,-13.1012"/>
</g>
<!-- Node10&#45;&gt;Node6 -->
<g id="edge19" class="edge"><title>Node10&#45;&gt;Node6</title>
<path fill="none" stroke="midnightblue" d="M774.068,-61.3731C843.822,-52.0263 1029.92,-27.0906 1111.16,-16.2049"/>
<polygon fill="midnightblue" stroke="midnightblue" points="1112,-19.6234 1121.44,-14.8263 1111.07,-12.6854 1112,-19.6234"/>
</g>
<!-- Node10&#45;&gt;Node11 -->
<g id="edge11" class="edge"><title>Node10&#45;&gt;Node11</title>
<path fill="none" stroke="midnightblue" d="M774.035,-61.3371C788.282,-59.5129 806.062,-57.4031 822,-56 1105.8,-31.0156 1177.66,-37.7638 1462,-20 1495.8,-17.8887 1534.47,-15.1976 1560.99,-13.3102"/>
<polygon fill="midnightblue" stroke="midnightblue" points="1561.49,-16.7836 1571.22,-12.5795 1560.99,-9.8014 1561.49,-16.7836"/>
</g>
<!-- Node12 -->
<g id="node12" class="node"><title>Node12</title>
<polygon fill="white" stroke="#bfbfbf" points="969,-0.5 969,-19.5 1031,-19.5 1031,-0.5 969,-0.5"/>
<text text-anchor="middle" x="1000" y="-7.5" font-family="FreeSans" font-size="10.00">wx/string.h</text>
</g>
<!-- Node10&#45;&gt;Node12 -->
<g id="edge12" class="edge"><title>Node10&#45;&gt;Node12</title>
<path fill="none" stroke="midnightblue" d="M774.341,-58.9706C778.901,-57.973 783.583,-56.9535 788,-56 847.29,-43.2003 915.975,-28.6764 958.712,-19.6756"/>
<polygon fill="midnightblue" stroke="midnightblue" points="959.67,-23.0508 968.735,-17.5659 958.228,-16.2009 959.67,-23.0508"/>
</g>
<!-- Node13 -->
<g id="node13" class="node"><title>Node13</title>
<polygon fill="white" stroke="#bfbfbf" points="722,-0.5 722,-19.5 772,-19.5 772,-0.5 722,-0.5"/>
<text text-anchor="middle" x="747" y="-7.5" font-family="FreeSans" font-size="10.00">wx/file.h</text>
</g>
<!-- Node10&#45;&gt;Node13 -->
<g id="edge14" class="edge"><title>Node10&#45;&gt;Node13</title>
<path fill="none" stroke="midnightblue" d="M747,-56.083C747,-49.0059 747,-38.8611 747,-29.9865"/>
<polygon fill="midnightblue" stroke="midnightblue" points="750.5,-29.751 747,-19.7511 743.5,-29.7511 750.5,-29.751"/>
</g>
<!-- Node14 -->
<g id="node14" class="node"><title>Node14</title>
<polygon fill="white" stroke="#bfbfbf" points="527,-0.5 527,-19.5 601,-19.5 601,-0.5 527,-0.5"/>
<text text-anchor="middle" x="564" y="-7.5" font-family="FreeSans" font-size="10.00">wx/filename.h</text>
</g>
<!-- Node10&#45;&gt;Node14 -->
<g id="edge15" class="edge"><title>Node10&#45;&gt;Node14</title>
<path fill="none" stroke="midnightblue" d="M719.998,-57.0321C689.05,-47.9 638.074,-32.8578 602.86,-22.467"/>
<polygon fill="midnightblue" stroke="midnightblue" points="603.509,-19.0093 592.927,-19.536 601.528,-25.7231 603.509,-19.0093"/>
</g>
<!-- Node15 -->
<g id="node15" class="node"><title>Node15</title>
<polygon fill="white" stroke="#bfbfbf" points="1401.5,-0.5 1401.5,-19.5 1452.5,-19.5 1452.5,-0.5 1401.5,-0.5"/>
<text text-anchor="middle" x="1427" y="-7.5" font-family="FreeSans" font-size="10.00">wx/intl.h</text>
</g>
<!-- Node10&#45;&gt;Node15 -->
<g id="edge16" class="edge"><title>Node10&#45;&gt;Node15</title>
<path fill="none" stroke="midnightblue" d="M774.04,-61.4003C788.289,-59.5933 806.069,-57.48 822,-56 1064.15,-33.5042 1126.24,-46.3607 1368,-20 1375.51,-19.1815 1383.52,-18.0997 1391.14,-16.9708"/>
<polygon fill="midnightblue" stroke="midnightblue" points="1391.86,-20.4015 1401.22,-15.4225 1390.8,-13.4828 1391.86,-20.4015"/>
</g>
<!-- Node16 -->
<g id="node16" class="node"><title>Node16</title>
<polygon fill="white" stroke="#bfbfbf" points="790.5,-0.5 790.5,-19.5 859.5,-19.5 859.5,-0.5 790.5,-0.5"/>
<text text-anchor="middle" x="825" y="-7.5" font-family="FreeSans" font-size="10.00">wx/msgdlg.h</text>
</g>
<!-- Node10&#45;&gt;Node16 -->
<g id="edge17" class="edge"><title>Node10&#45;&gt;Node16</title>
<path fill="none" stroke="midnightblue" d="M759.532,-56.324C771.586,-47.979 790.027,-35.2122 804.269,-25.3524"/>
<polygon fill="midnightblue" stroke="midnightblue" points="806.269,-28.2243 812.499,-19.6545 802.285,-22.469 806.269,-28.2243"/>
</g>
<!-- Node17 -->
<g id="node17" class="node"><title>Node17</title>
<polygon fill="white" stroke="#bfbfbf" points="636,-0.5 636,-19.5 704,-19.5 704,-0.5 636,-0.5"/>
<text text-anchor="middle" x="670" y="-7.5" font-family="FreeSans" font-size="10.00">wx/bitmap.h</text>
</g>
<!-- Node10&#45;&gt;Node17 -->
<g id="edge18" class="edge"><title>Node10&#45;&gt;Node17</title>
<path fill="none" stroke="midnightblue" d="M734.629,-56.324C722.842,-48.0577 704.868,-35.4527 690.864,-25.6322"/>
<polygon fill="midnightblue" stroke="midnightblue" points="692.538,-22.5307 682.341,-19.6545 688.518,-28.2619 692.538,-22.5307"/>
</g>
<!-- Node18&#45;&gt;Node6 -->
<g id="edge26" class="edge"><title>Node18&#45;&gt;Node6</title>
<path fill="none" stroke="midnightblue" d="M1318.74,-224.442C1306.91,-215.897 1288.82,-202.049 1275,-188 1230.8,-143.064 1223.32,-128.209 1188,-76 1177.49,-60.4696 1166.83,-41.9366 1159.49,-28.6414"/>
<polygon fill="midnightblue" stroke="midnightblue" points="1162.43,-26.7355 1154.57,-19.6318 1156.29,-30.087 1162.43,-26.7355"/>
</g>
<!-- Node18&#45;&gt;Node10 -->
<g id="edge27" class="edge"><title>Node18&#45;&gt;Node10</title>
<path fill="none" stroke="midnightblue" d="M1300.72,-232.887C1201.06,-232.144 884.298,-226.719 791,-188 755.469,-173.254 741.162,-166.91 725,-132 717.75,-116.341 725.747,-97.5933 734.058,-84.2651"/>
<polygon fill="midnightblue" stroke="midnightblue" points="737.2,-85.8707 739.952,-75.6395 731.421,-81.9214 737.2,-85.8707"/>
</g>
<!-- Node18&#45;&gt;Node12 -->
<g id="edge25" class="edge"><title>Node18&#45;&gt;Node12</title>
<path fill="none" stroke="midnightblue" d="M1314.62,-224.419C1298.4,-215.749 1273.02,-201.71 1252,-188 1169.51,-134.195 1155.72,-110.978 1074,-56 1057.63,-44.9838 1038.59,-33.435 1023.93,-24.7953"/>
<polygon fill="midnightblue" stroke="midnightblue" points="1025.39,-21.5983 1014.99,-19.5728 1021.86,-27.6414 1025.39,-21.5983"/>
</g>
<!-- Node18&#45;&gt;Node15 -->
<g id="edge24" class="edge"><title>Node18&#45;&gt;Node15</title>
<path fill="none" stroke="midnightblue" d="M1346.2,-224.483C1358.79,-216.634 1376.16,-203.82 1386,-188 1417.59,-137.203 1424.88,-64.5346 1426.53,-30.2741"/>
<polygon fill="midnightblue" stroke="midnightblue" points="1430.04,-29.9777 1426.91,-19.8563 1423.05,-29.7216 1430.04,-29.9777"/>
</g>
<!-- Node19 -->
<g id="node19" class="node"><title>Node19</title>
<polygon fill="white" stroke="#bfbfbf" points="1301,-168.5 1301,-187.5 1361,-187.5 1361,-168.5 1301,-168.5"/>
<text text-anchor="middle" x="1331" y="-175.5" font-family="FreeSans" font-size="10.00">wx/arrstr.h</text>
</g>
<!-- Node18&#45;&gt;Node19 -->
<g id="edge22" class="edge"><title>Node18&#45;&gt;Node19</title>
<path fill="none" stroke="midnightblue" d="M1331,-224.083C1331,-217.006 1331,-206.861 1331,-197.986"/>
<polygon fill="midnightblue" stroke="midnightblue" points="1334.5,-197.751 1331,-187.751 1327.5,-197.751 1334.5,-197.751"/>
</g>
<!-- Node20 -->
<g id="node20" class="node"><title>Node20</title>
<polygon fill="white" stroke="#bfbfbf" points="1812,-0.5 1812,-19.5 1874,-19.5 1874,-0.5 1812,-0.5"/>
<text text-anchor="middle" x="1843" y="-7.5" font-family="FreeSans" font-size="10.00">wx/event.h</text>
</g>
<!-- Node18&#45;&gt;Node20 -->
<g id="edge23" class="edge"><title>Node18&#45;&gt;Node20</title>
<path fill="none" stroke="midnightblue" d="M1361.28,-231.54C1469.73,-225.765 1837.12,-201.352 1928,-132 1956.38,-110.342 1973.95,-85.6082 1954,-56 1938.43,-32.8845 1908.73,-21.6385 1883.98,-16.1696"/>
<polygon fill="midnightblue" stroke="midnightblue" points="1884.56,-12.7175 1874.07,-14.2221 1883.21,-19.586 1884.56,-12.7175"/>
</g>
<!-- Node21 -->
<g id="node21" class="node"><title>Node21</title>
<g id="a_node21"><a xlink:href="logger_8h.xhtml" target="_top" xlink:title="logger.h">
<polygon fill="white" stroke="black" points="1197,-56.5 1197,-75.5 1247,-75.5 1247,-56.5 1197,-56.5"/>
<text text-anchor="middle" x="1222" y="-63.5" font-family="FreeSans" font-size="10.00">logger.h</text>
</a>
</g>
</g>
<!-- Node18&#45;&gt;Node21 -->
<g id="edge28" class="edge"><title>Node18&#45;&gt;Node21</title>
<path fill="none" stroke="midnightblue" d="M1322.68,-224.463C1314.39,-215.715 1301.54,-201.515 1292,-188 1269.62,-156.29 1268.54,-145.531 1249,-112 1243.66,-102.834 1237.59,-92.6971 1232.56,-84.3682"/>
<polygon fill="midnightblue" stroke="midnightblue" points="1235.42,-82.3268 1227.24,-75.588 1229.43,-85.9543 1235.42,-82.3268"/>
</g>
<!-- Node22 -->
<g id="node22" class="node"><title>Node22</title>
<g id="a_node22"><a xlink:href="prep_8h.xhtml" target="_top" xlink:title="prep.h">
<polygon fill="white" stroke="black" points="1315.5,-0.5 1315.5,-19.5 1358.5,-19.5 1358.5,-0.5 1315.5,-0.5"/>
<text text-anchor="middle" x="1337" y="-7.5" font-family="FreeSans" font-size="10.00">prep.h</text>
</a>
</g>
</g>
<!-- Node18&#45;&gt;Node22 -->
<g id="edge52" class="edge"><title>Node18&#45;&gt;Node22</title>
<path fill="none" stroke="midnightblue" d="M1341.99,-224.365C1351.45,-216.171 1364.44,-202.917 1370,-188 1390.8,-132.239 1362.41,-61.5155 1346.49,-28.929"/>
<polygon fill="midnightblue" stroke="midnightblue" points="1349.48,-27.0919 1341.84,-19.7563 1343.24,-30.258 1349.48,-27.0919"/>
</g>
<!-- Node23 -->
<g id="node23" class="node"><title>Node23</title>
<g id="a_node23"><a xlink:href="manager_8h.xhtml" target="_top" xlink:title="manager.h">
<polygon fill="white" stroke="black" points="1559,-112.5 1559,-131.5 1621,-131.5 1621,-112.5 1559,-112.5"/>
<text text-anchor="middle" x="1590" y="-119.5" font-family="FreeSans" font-size="10.00">manager.h</text>
</a>
</g>
</g>
<!-- Node18&#45;&gt;Node23 -->
<g id="edge32" class="edge"><title>Node18&#45;&gt;Node23</title>
<path fill="none" stroke="midnightblue" d="M1361.1,-230.131C1414.85,-224.5 1524.56,-210.548 1555,-188 1570.41,-176.582 1579.77,-156.296 1584.88,-141.416"/>
<polygon fill="midnightblue" stroke="midnightblue" points="1588.26,-142.327 1587.88,-131.739 1581.57,-140.256 1588.26,-142.327"/>
</g>
<!-- Node28 -->
<g id="node28" class="node"><title>Node28</title>
<g id="a_node28"><a xlink:href="pluginmanager_8h.xhtml" target="_top" xlink:title="pluginmanager.h">
<polygon fill="white" stroke="black" points="1458.5,-168.5 1458.5,-187.5 1545.5,-187.5 1545.5,-168.5 1458.5,-168.5"/>
<text text-anchor="middle" x="1502" y="-175.5" font-family="FreeSans" font-size="10.00">pluginmanager.h</text>
</a>
</g>
</g>
<!-- Node18&#45;&gt;Node28 -->
<g id="edge44" class="edge"><title>Node18&#45;&gt;Node28</title>
<path fill="none" stroke="midnightblue" d="M1358.1,-224.444C1386.99,-215.32 1432.92,-200.813 1465.11,-190.651"/>
<polygon fill="midnightblue" stroke="midnightblue" points="1466.55,-193.865 1475.03,-187.516 1464.44,-187.19 1466.55,-193.865"/>
</g>
<!-- Node21&#45;&gt;Node6 -->
<g id="edge31" class="edge"><title>Node21&#45;&gt;Node6</title>
<path fill="none" stroke="midnightblue" d="M1210.43,-56.324C1199.58,-48.1849 1183.12,-35.8395 1170.12,-26.0874"/>
<polygon fill="midnightblue" stroke="midnightblue" points="1171.88,-23.0339 1161.78,-19.8339 1167.68,-28.6339 1171.88,-23.0339"/>
</g>
<!-- Node21&#45;&gt;Node12 -->
<g id="edge30" class="edge"><title>Node21&#45;&gt;Node12</title>
<path fill="none" stroke="midnightblue" d="M1196.97,-58.9105C1159.12,-49.7045 1086.92,-32.1419 1041.23,-21.0295"/>
<polygon fill="midnightblue" stroke="midnightblue" points="1041.89,-17.588 1031.35,-18.6253 1040.24,-24.3897 1041.89,-17.588"/>
</g>
<!-- Node21&#45;&gt;Node22 -->
<g id="edge29" class="edge"><title>Node21&#45;&gt;Node22</title>
<path fill="none" stroke="midnightblue" d="M1240.22,-56.4435C1258.9,-47.6751 1288.16,-33.9355 1309.62,-23.8579"/>
<polygon fill="midnightblue" stroke="midnightblue" points="1311.3,-26.935 1318.86,-19.5164 1308.32,-20.5988 1311.3,-26.935"/>
</g>
<!-- Node23&#45;&gt;Node6 -->
<g id="edge37" class="edge"><title>Node23&#45;&gt;Node6</title>
<path fill="none" stroke="midnightblue" d="M1558.71,-113.177C1480.04,-93.5092 1274.16,-42.0412 1188.38,-20.5961"/>
<polygon fill="midnightblue" stroke="midnightblue" points="1189.09,-17.1637 1178.54,-18.1338 1187.39,-23.9547 1189.09,-17.1637"/>
</g>
<!-- Node23&#45;&gt;Node11 -->
<g id="edge34" class="edge"><title>Node23&#45;&gt;Node11</title>
<path fill="none" stroke="midnightblue" d="M1590.24,-112.368C1590.72,-94.617 1591.84,-53.6664 1592.49,-29.5974"/>
<polygon fill="midnightblue" stroke="midnightblue" points="1595.99,-29.6832 1592.77,-19.5914 1588.99,-29.4922 1595.99,-29.6832"/>
</g>
<!-- Node23&#45;&gt;Node20 -->
<g id="edge35" class="edge"><title>Node23&#45;&gt;Node20</title>
<path fill="none" stroke="midnightblue" d="M1621.04,-119.718C1661.63,-116.795 1733.69,-107.233 1786,-76 1805.66,-64.2598 1822.13,-43.4244 1832.24,-28.5059"/>
<polygon fill="midnightblue" stroke="midnightblue" points="1835.43,-30.0096 1837.92,-19.7118 1829.55,-26.2085 1835.43,-30.0096"/>
</g>
<!-- Node23&#45;&gt;Node24 -->
<g id="edge33" class="edge"><title>Node23&#45;&gt;Node24</title>
<path fill="none" stroke="midnightblue" d="M1621.1,-116.017C1686.41,-105.552 1836.93,-81.4323 1899.23,-71.4503"/>
<polygon fill="midnightblue" stroke="midnightblue" points="1899.8,-74.9033 1909.12,-69.8651 1898.69,-67.9915 1899.8,-74.9033"/>
</g>
<!-- Node25 -->
<g id="node25" class="node"><title>Node25</title>
<polygon fill="white" stroke="#bfbfbf" points="1621,-56.5 1621,-75.5 1693,-75.5 1693,-56.5 1621,-56.5"/>
<text text-anchor="middle" x="1657" y="-63.5" font-family="FreeSans" font-size="10.00">wx/cmdline.h</text>
</g>
<!-- Node23&#45;&gt;Node25 -->
<g id="edge36" class="edge"><title>Node23&#45;&gt;Node25</title>
<path fill="none" stroke="midnightblue" d="M1600.76,-112.324C1610.77,-104.263 1625.89,-92.0765 1637.93,-82.3695"/>
<polygon fill="midnightblue" stroke="midnightblue" points="1640.45,-84.8343 1646.04,-75.8339 1636.06,-79.3841 1640.45,-84.8343"/>
</g>
<!-- Node26 -->
<g id="node26" class="node"><title>Node26</title>
<g id="a_node26"><a xlink:href="sdk__events_8h.xhtml" target="_top" xlink:title="sdk_events.h">
<polygon fill="white" stroke="black" points="1455,-56.5 1455,-75.5 1527,-75.5 1527,-56.5 1455,-56.5"/>
<text text-anchor="middle" x="1491" y="-63.5" font-family="FreeSans" font-size="10.00">sdk_events.h</text>
</a>
</g>
</g>
<!-- Node23&#45;&gt;Node26 -->
<g id="edge38" class="edge"><title>Node23&#45;&gt;Node26</title>
<path fill="none" stroke="midnightblue" d="M1574.09,-112.324C1558.36,-103.743 1534.06,-90.486 1515.79,-80.5224"/>
<polygon fill="midnightblue" stroke="midnightblue" points="1517.32,-77.3704 1506.87,-75.6545 1513.97,-83.5157 1517.32,-77.3704"/>
</g>
<!-- Node27 -->
<g id="node27" class="node"><title>Node27</title>
<g id="a_node27"><a xlink:href="cbfunctor_8h.xhtml" target="_top" xlink:title="cbfunctor.h">
<polygon fill="white" stroke="black" points="1711.5,-56.5 1711.5,-75.5 1776.5,-75.5 1776.5,-56.5 1711.5,-56.5"/>
<text text-anchor="middle" x="1744" y="-63.5" font-family="FreeSans" font-size="10.00">cbfunctor.h</text>
</a>
</g>
</g>
<!-- Node23&#45;&gt;Node27 -->
<g id="edge43" class="edge"><title>Node23&#45;&gt;Node27</title>
<path fill="none" stroke="midnightblue" d="M1614.4,-112.444C1640.2,-103.399 1681.08,-89.064 1710.02,-78.9158"/>
<polygon fill="midnightblue" stroke="midnightblue" points="1711.43,-82.1283 1719.71,-75.5164 1709.12,-75.5226 1711.43,-82.1283"/>
</g>
<!-- Node26&#45;&gt;Node6 -->
<g id="edge41" class="edge"><title>Node26&#45;&gt;Node6</title>
<path fill="none" stroke="midnightblue" d="M1454.83,-59.2722C1390.24,-49.0434 1255.59,-27.7217 1189.01,-17.1774"/>
<polygon fill="midnightblue" stroke="midnightblue" points="1189.35,-13.6882 1178.93,-15.581 1188.26,-20.6021 1189.35,-13.6882"/>
</g>
<!-- Node26&#45;&gt;Node15 -->
<g id="edge40" class="edge"><title>Node26&#45;&gt;Node15</title>
<path fill="none" stroke="midnightblue" d="M1480.72,-56.324C1471.16,-48.2631 1456.72,-36.0765 1445.22,-26.3695"/>
<polygon fill="midnightblue" stroke="midnightblue" points="1447.37,-23.6076 1437.47,-19.8339 1442.86,-28.9577 1447.37,-23.6076"/>
</g>
<!-- Node26&#45;&gt;Node20 -->
<g id="edge39" class="edge"><title>Node26&#45;&gt;Node20</title>
<path fill="none" stroke="midnightblue" d="M1527.02,-59.4748C1592.85,-49.3755 1732.22,-27.9953 1801.75,-17.3287"/>
<polygon fill="midnightblue" stroke="midnightblue" points="1802.53,-20.7497 1811.88,-15.7737 1801.47,-13.8306 1802.53,-20.7497"/>
</g>
<!-- Node26&#45;&gt;Node22 -->
<g id="edge42" class="edge"><title>Node26&#45;&gt;Node22</title>
<path fill="none" stroke="midnightblue" d="M1466.6,-56.4435C1440.04,-47.1326 1397.51,-32.2163 1368.46,-22.0315"/>
<polygon fill="midnightblue" stroke="midnightblue" points="1369.39,-18.6495 1358.8,-18.6433 1367.08,-25.2552 1369.39,-18.6495"/>
</g>
<!-- Node28&#45;&gt;Node3 -->
<g id="edge48" class="edge"><title>Node28&#45;&gt;Node3</title>
<path fill="none" stroke="midnightblue" d="M1458.32,-173.744C1432.61,-171.897 1399.47,-169.636 1370,-168 1276.72,-162.822 616.074,-168.31 530,-132 506.17,-121.947 485.594,-99.7411 473.258,-84.0917"/>
<polygon fill="midnightblue" stroke="midnightblue" points="475.802,-81.6515 466.985,-75.7767 470.214,-85.8675 475.802,-81.6515"/>
</g>
<!-- Node28&#45;&gt;Node6 -->
<g id="edge50" class="edge"><title>Node28&#45;&gt;Node6</title>
<path fill="none" stroke="midnightblue" d="M1485.45,-168.461C1446.04,-148.219 1343.42,-96.0174 1256,-56 1230.89,-44.506 1202.02,-32.315 1180.75,-23.5252"/>
<polygon fill="midnightblue" stroke="midnightblue" points="1181.85,-20.1906 1171.27,-19.6213 1179.18,-26.6638 1181.85,-20.1906"/>
</g>
<!-- Node28&#45;&gt;Node10 -->
<g id="edge49" class="edge"><title>Node28&#45;&gt;Node10</title>
<path fill="none" stroke="midnightblue" d="M1458.31,-173.927C1432.6,-172.142 1399.46,-169.882 1370,-168 1302.91,-163.713 818.572,-173.905 766,-132 752.373,-121.138 748.157,-101.065 747.021,-86.0875"/>
<polygon fill="midnightblue" stroke="midnightblue" points="750.511,-85.7306 746.649,-75.8646 743.516,-85.9854 750.511,-85.7306"/>
</g>
<!-- Node28&#45;&gt;Node11 -->
<g id="edge45" class="edge"><title>Node28&#45;&gt;Node11</title>
<path fill="none" stroke="midnightblue" d="M1545.73,-176.088C1610.78,-172.083 1731.2,-153.897 1786,-76 1826.18,-18.8871 1689.48,-11.2106 1624.92,-10.6845"/>
<polygon fill="midnightblue" stroke="midnightblue" points="1624.86,-7.18439 1614.85,-10.6558 1624.84,-14.1844 1624.86,-7.18439"/>
</g>
<!-- Node28&#45;&gt;Node23 -->
<g id="edge51" class="edge"><title>Node28&#45;&gt;Node23</title>
<path fill="none" stroke="midnightblue" d="M1516.14,-168.324C1529.87,-159.9 1550.94,-146.971 1567.06,-137.074"/>
<polygon fill="midnightblue" stroke="midnightblue" points="1569.2,-139.868 1575.9,-131.655 1565.54,-133.902 1569.2,-139.868"/>
</g>
<!-- Node28&#45;&gt;Node24 -->
<g id="edge46" class="edge"><title>Node28&#45;&gt;Node24</title>
<path fill="none" stroke="midnightblue" d="M1545.65,-174.873C1644.82,-169.66 1880.64,-154.971 1908,-132 1921.35,-120.795 1925.61,-100.776 1926.83,-85.9051"/>
<polygon fill="midnightblue" stroke="midnightblue" points="1930.33,-85.9112 1927.27,-75.7681 1923.34,-85.6059 1930.33,-85.9112"/>
</g>
<!-- Node29 -->
<g id="node29" class="node"><title>Node29</title>
<polygon fill="white" stroke="#bfbfbf" points="1869.5,-112.5 1869.5,-131.5 1898.5,-131.5 1898.5,-112.5 1869.5,-112.5"/>
<text text-anchor="middle" x="1884" y="-119.5" font-family="FreeSans" font-size="10.00">set</text>
</g>
<!-- Node28&#45;&gt;Node29 -->
<g id="edge47" class="edge"><title>Node28&#45;&gt;Node29</title>
<path fill="none" stroke="midnightblue" d="M1545.61,-173.897C1612.7,-168.575 1744.97,-155.896 1855,-132 1856.48,-131.678 1858,-131.315 1859.52,-130.925"/>
<polygon fill="midnightblue" stroke="midnightblue" points="1860.74,-134.214 1869.38,-128.081 1858.8,-127.488 1860.74,-134.214"/>
</g>
<!-- Node30&#45;&gt;Node3 -->
<g id="edge66" class="edge"><title>Node30&#45;&gt;Node3</title>
<path fill="none" stroke="midnightblue" d="M525.584,-224.436C477.199,-212.765 403.806,-186.699 370,-132 354.849,-107.485 387.862,-89.5463 418.279,-78.7992"/>
<polygon fill="midnightblue" stroke="midnightblue" points="419.617,-82.0428 427.999,-75.5633 417.406,-75.4011 419.617,-82.0428"/>
</g>
<!-- Node30&#45;&gt;Node5 -->
<g id="edge69" class="edge"><title>Node30&#45;&gt;Node5</title>
<path fill="none" stroke="midnightblue" d="M522.85,-231.563C456.271,-228.461 342.752,-218.694 317,-188 278.691,-142.338 300.147,-64.2782 312.802,-29.1135"/>
<polygon fill="midnightblue" stroke="midnightblue" points="316.113,-30.2525 316.371,-19.6608 309.564,-27.7799 316.113,-30.2525"/>
</g>
<!-- Node30&#45;&gt;Node6 -->
<g id="edge54" class="edge"><title>Node30&#45;&gt;Node6</title>
<path fill="none" stroke="midnightblue" d="M621.034,-231.457C701.25,-228.093 856.106,-217.833 901,-188 957.755,-150.285 924.637,-97.0879 979,-56 1017.84,-26.6453 1074.18,-16.391 1111.44,-12.8374"/>
<polygon fill="midnightblue" stroke="midnightblue" points="1111.73,-16.3248 1121.41,-12.0025 1111.15,-9.34917 1111.73,-16.3248"/>
</g>
<!-- Node30&#45;&gt;Node8 -->
<g id="edge56" class="edge"><title>Node30&#45;&gt;Node8</title>
<path fill="none" stroke="midnightblue" d="M621.246,-227.781C696.327,-219.741 843.9,-203.618 969,-188 970.47,-187.816 971.959,-187.629 973.46,-187.438"/>
<polygon fill="midnightblue" stroke="midnightblue" points="974.024,-190.894 983.492,-186.139 973.125,-183.952 974.024,-190.894"/>
</g>
<!-- Node30&#45;&gt;Node10 -->
<g id="edge55" class="edge"><title>Node30&#45;&gt;Node10</title>
<path fill="none" stroke="midnightblue" d="M576.185,-224.281C586.904,-202.721 617.319,-146.178 657,-112 673.305,-97.9558 694.758,-87.0078 712.629,-79.4282"/>
<polygon fill="midnightblue" stroke="midnightblue" points="714.187,-82.5732 722.134,-75.5656 711.552,-76.0882 714.187,-82.5732"/>
</g>
<!-- Node30&#45;&gt;Node14 -->
<g id="edge67" class="edge"><title>Node30&#45;&gt;Node14</title>
<path fill="none" stroke="midnightblue" d="M522.778,-230.941C459.735,-227.152 355.757,-216.625 332,-188 287.742,-134.673 356.206,-92.6858 415,-56 446.101,-36.5936 486.083,-25.1181 516.799,-18.6176"/>
<polygon fill="midnightblue" stroke="midnightblue" points="517.721,-22.0024 526.835,-16.5996 516.341,-15.1398 517.721,-22.0024"/>
</g>
<!-- Node31 -->
<g id="node31" class="node"><title>Node31</title>
<g id="a_node31"><a xlink:href="projectfile_8h.xhtml" target="_top" xlink:title="projectfile.h">
<polygon fill="white" stroke="black" points="539.5,-112.5 539.5,-131.5 604.5,-131.5 604.5,-112.5 539.5,-112.5"/>
<text text-anchor="middle" x="572" y="-119.5" font-family="FreeSans" font-size="10.00">projectfile.h</text>
</a>
</g>
</g>
<!-- Node30&#45;&gt;Node31 -->
<g id="edge57" class="edge"><title>Node30&#45;&gt;Node31</title>
<path fill="none" stroke="midnightblue" d="M572,-224.368C572,-206.617 572,-165.666 572,-141.597"/>
<polygon fill="midnightblue" stroke="midnightblue" points="575.5,-141.591 572,-131.591 568.5,-141.591 575.5,-141.591"/>
</g>
<!-- Node33 -->
<g id="node33" class="node"><title>Node33</title>
<polygon fill="white" stroke="#bfbfbf" points="341,-168.5 341,-187.5 391,-187.5 391,-168.5 341,-168.5"/>
<text text-anchor="middle" x="366" y="-175.5" font-family="FreeSans" font-size="10.00">wx/list.h</text>
</g>
<!-- Node30&#45;&gt;Node33 -->
<g id="edge68" class="edge"><title>Node30&#45;&gt;Node33</title>
<path fill="none" stroke="midnightblue" d="M539.359,-224.444C501.555,-214.534 439.528,-198.274 400.821,-188.128"/>
<polygon fill="midnightblue" stroke="midnightblue" points="401.598,-184.713 391.037,-185.563 399.822,-191.484 401.598,-184.713"/>
</g>
<!-- Node31&#45;&gt;Node3 -->
<g id="edge62" class="edge"><title>Node31&#45;&gt;Node3</title>
<path fill="none" stroke="midnightblue" d="M554.166,-112.324C536.284,-103.625 508.525,-90.1202 487.954,-80.113"/>
<polygon fill="midnightblue" stroke="midnightblue" points="489.313,-76.8819 478.79,-75.6545 486.251,-83.1765 489.313,-76.8819"/>
</g>
<!-- Node31&#45;&gt;Node5 -->
<g id="edge64" class="edge"><title>Node31&#45;&gt;Node5</title>
<path fill="none" stroke="midnightblue" d="M565.886,-112.333C555.474,-98.2488 532.895,-70.511 507,-56 462.21,-30.9005 403.763,-19.718 364.224,-14.7894"/>
<polygon fill="midnightblue" stroke="midnightblue" points="364.437,-11.2907 354.1,-13.6124 363.629,-18.2439 364.437,-11.2907"/>
</g>
<!-- Node31&#45;&gt;Node6 -->
<g id="edge59" class="edge"><title>Node31&#45;&gt;Node6</title>
<path fill="none" stroke="midnightblue" d="M591.681,-112.498C611.947,-103.66 644.378,-89.2867 672,-76 689.554,-67.5559 692.323,-61.5329 711,-56 748.913,-44.7688 1011.17,-22.3875 1111.28,-14.1433"/>
<polygon fill="midnightblue" stroke="midnightblue" points="1111.6,-17.6288 1121.28,-13.3223 1111.03,-10.6522 1111.6,-17.6288"/>
</g>
<!-- Node31&#45;&gt;Node10 -->
<g id="edge60" class="edge"><title>Node31&#45;&gt;Node10</title>
<path fill="none" stroke="midnightblue" d="M599.729,-112.444C629.6,-103.226 677.273,-88.5157 710.249,-78.3402"/>
<polygon fill="midnightblue" stroke="midnightblue" points="711.452,-81.632 719.975,-75.339 709.388,-74.9432 711.452,-81.632"/>
</g>
<!-- Node31&#45;&gt;Node11 -->
<g id="edge58" class="edge"><title>Node31&#45;&gt;Node11</title>
<path fill="none" stroke="midnightblue" d="M604.626,-119.477C773.019,-111.616 1536,-76 1536,-76 1557.05,-65.8621 1573.58,-44.0147 1583.3,-28.4496"/>
<polygon fill="midnightblue" stroke="midnightblue" points="1586.38,-30.1207 1588.45,-19.7309 1580.35,-26.5597 1586.38,-30.1207"/>
</g>
<!-- Node31&#45;&gt;Node14 -->
<g id="edge63" class="edge"><title>Node31&#45;&gt;Node14</title>
<path fill="none" stroke="midnightblue" d="M571.372,-112.368C570.081,-94.617 567.103,-53.6664 565.353,-29.5974"/>
<polygon fill="midnightblue" stroke="midnightblue" points="568.841,-29.3112 564.625,-19.5914 561.859,-29.819 568.841,-29.3112"/>
</g>
<!-- Node31&#45;&gt;Node22 -->
<g id="edge61" class="edge"><title>Node31&#45;&gt;Node22</title>
<path fill="none" stroke="midnightblue" d="M604.693,-119.397C736.764,-112.852 1225.33,-87.9315 1256,-76 1282.9,-65.5356 1307.83,-42.739 1322.74,-27.1269"/>
<polygon fill="midnightblue" stroke="midnightblue" points="1325.37,-29.4426 1329.58,-19.721 1320.22,-24.694 1325.37,-29.4426"/>
</g>
<!-- Node32 -->
<g id="node32" class="node"><title>Node32</title>
<polygon fill="white" stroke="#bfbfbf" points="592.5,-56.5 592.5,-75.5 663.5,-75.5 663.5,-56.5 592.5,-56.5"/>
<text text-anchor="middle" x="628" y="-63.5" font-family="FreeSans" font-size="10.00">wx/hashset.h</text>
</g>
<!-- Node31&#45;&gt;Node32 -->
<g id="edge65" class="edge"><title>Node31&#45;&gt;Node32</title>
<path fill="none" stroke="midnightblue" d="M580.997,-112.324C589.194,-104.42 601.506,-92.5482 611.472,-82.9377"/>
<polygon fill="midnightblue" stroke="midnightblue" points="614.07,-85.2947 618.839,-75.8339 609.211,-80.2558 614.07,-85.2947"/>
</g>
<!-- Node34&#45;&gt;Node3 -->
<g id="edge73" class="edge"><title>Node34&#45;&gt;Node3</title>
<path fill="none" stroke="midnightblue" d="M800.241,-176.138C717.123,-173.765 545.453,-164.908 497,-132 481.028,-121.152 471.427,-100.77 466.206,-85.7108"/>
<polygon fill="midnightblue" stroke="midnightblue" points="469.466,-84.4055 463.151,-75.8982 462.782,-86.4866 469.466,-84.4055"/>
</g>
<!-- Node34&#45;&gt;Node4 -->
<g id="edge74" class="edge"><title>Node34&#45;&gt;Node4</title>
<path fill="none" stroke="midnightblue" d="M860.124,-168.368C891.144,-149.412 965.454,-104.001 1003.19,-80.9424"/>
<polygon fill="midnightblue" stroke="midnightblue" points="1005.23,-83.7925 1011.94,-75.5914 1001.58,-77.8195 1005.23,-83.7925"/>
</g>
<!-- Node34&#45;&gt;Node5 -->
<g id="edge75" class="edge"><title>Node34&#45;&gt;Node5</title>
<path fill="none" stroke="midnightblue" d="M800.102,-175.332C687.478,-170.866 404.125,-157.228 370,-132 336.895,-107.526 325.606,-57.1132 321.834,-29.7171"/>
<polygon fill="midnightblue" stroke="midnightblue" points="325.28,-29.0507 320.636,-19.5278 318.328,-29.8681 325.28,-29.0507"/>
</g>
<!-- Node34&#45;&gt;Node6 -->
<g id="edge82" class="edge"><title>Node34&#45;&gt;Node6</title>
<path fill="none" stroke="midnightblue" d="M850.117,-168.293C861.261,-145.741 894.346,-85.1612 941,-56 993.74,-23.0353 1066.98,-13.9451 1111.29,-11.5986"/>
<polygon fill="midnightblue" stroke="midnightblue" points="1111.53,-15.0916 1121.36,-11.1554 1111.22,-8.09839 1111.53,-15.0916"/>
</g>
<!-- Node34&#45;&gt;Node10 -->
<g id="edge71" class="edge"><title>Node34&#45;&gt;Node10</title>
<path fill="none" stroke="midnightblue" d="M800.304,-171.144C775.98,-165.444 748.052,-154.196 733,-132 723.511,-118.008 729.461,-98.7521 736.291,-84.8343"/>
<polygon fill="midnightblue" stroke="midnightblue" points="739.504,-86.2515 741.211,-75.795 733.356,-82.9049 739.504,-86.2515"/>
</g>
<!-- Node34&#45;&gt;Node20 -->
<g id="edge72" class="edge"><title>Node34&#45;&gt;Node20</title>
<path fill="none" stroke="midnightblue" d="M891.661,-173.65C916.333,-171.881 947.328,-169.726 975,-168 1265.99,-149.854 1343.03,-183.473 1630,-132 1712.88,-117.133 1746.96,-130.677 1811,-76 1825.18,-63.8947 1833.67,-44.0177 1838.3,-29.4262"/>
<polygon fill="midnightblue" stroke="midnightblue" points="1841.75,-30.0908 1841.12,-19.5146 1835.02,-28.1737 1841.75,-30.0908"/>
</g>
<!-- Node34&#45;&gt;Node23 -->
<g id="edge83" class="edge"><title>Node34&#45;&gt;Node23</title>
<path fill="none" stroke="midnightblue" d="M891.699,-173.683C1026.24,-163.918 1419.51,-135.375 1548.49,-126.013"/>
<polygon fill="midnightblue" stroke="midnightblue" points="1549.01,-129.484 1558.73,-125.269 1548.51,-122.502 1549.01,-129.484"/>
</g>
<!-- Node35 -->
<g id="node35" class="node"><title>Node35</title>
<g id="a_node35"><a xlink:href="cbexception_8h.xhtml" target="_top" xlink:title="cbexception.h">
<polygon fill="white" stroke="black" points="775,-112.5 775,-131.5 851,-131.5 851,-112.5 775,-112.5"/>
<text text-anchor="middle" x="813" y="-119.5" font-family="FreeSans" font-size="10.00">cbexception.h</text>
</a>
</g>
</g>
<!-- Node34&#45;&gt;Node35 -->
<g id="edge76" class="edge"><title>Node34&#45;&gt;Node35</title>
<path fill="none" stroke="midnightblue" d="M840.551,-168.083C835.986,-160.613 829.332,-149.724 823.707,-140.52"/>
<polygon fill="midnightblue" stroke="midnightblue" points="826.549,-138.459 818.348,-131.751 820.576,-142.109 826.549,-138.459"/>
</g>
<!-- Node37 -->
<g id="node37" class="node"><title>Node37</title>
<g id="a_node37"><a xlink:href="cbtreectrl_8h.xhtml" target="_top" xlink:title="cbtreectrl.h">
<polygon fill="white" stroke="black" points="379.5,-112.5 379.5,-131.5 444.5,-131.5 444.5,-112.5 379.5,-112.5"/>
<text text-anchor="middle" x="412" y="-119.5" font-family="FreeSans" font-size="10.00">cbtreectrl.h</text>
</a>
</g>
</g>
<!-- Node34&#45;&gt;Node37 -->
<g id="edge80" class="edge"><title>Node34&#45;&gt;Node37</title>
<path fill="none" stroke="midnightblue" d="M800.279,-172.781C727.723,-165.84 581.847,-150.878 459,-132 457.537,-131.775 456.051,-131.538 454.55,-131.292"/>
<polygon fill="midnightblue" stroke="midnightblue" points="455.014,-127.82 444.562,-129.556 453.816,-134.716 455.014,-127.82"/>
</g>
<!-- Node35&#45;&gt;Node10 -->
<g id="edge79" class="edge"><title>Node35&#45;&gt;Node10</title>
<path fill="none" stroke="midnightblue" d="M802.396,-112.324C792.544,-104.263 777.649,-92.0765 765.785,-82.3695"/>
<polygon fill="midnightblue" stroke="midnightblue" points="767.753,-79.4575 757.797,-75.8339 763.32,-84.8752 767.753,-79.4575"/>
</g>
<!-- Node35&#45;&gt;Node12 -->
<g id="edge77" class="edge"><title>Node35&#45;&gt;Node12</title>
<path fill="none" stroke="midnightblue" d="M811.417,-112.173C809.484,-98.3625 808.015,-71.615 822,-56 839.991,-35.9119 911.96,-22.7198 958.694,-16.0835"/>
<polygon fill="midnightblue" stroke="midnightblue" points="959.4,-19.5194 968.83,-14.6901 958.446,-12.5846 959.4,-19.5194"/>
</g>
<!-- Node36 -->
<g id="node36" class="node"><title>Node36</title>
<polygon fill="white" stroke="#bfbfbf" points="830.5,-56.5 830.5,-75.5 881.5,-75.5 881.5,-56.5 830.5,-56.5"/>
<text text-anchor="middle" x="856" y="-63.5" font-family="FreeSans" font-size="10.00">wx/log.h</text>
</g>
<!-- Node35&#45;&gt;Node36 -->
<g id="edge78" class="edge"><title>Node35&#45;&gt;Node36</title>
<path fill="none" stroke="midnightblue" d="M820.101,-112.083C826.237,-104.377 835.27,-93.0333 842.739,-83.6531"/>
<polygon fill="midnightblue" stroke="midnightblue" points="845.54,-85.7542 849.032,-75.7511 840.064,-81.3936 845.54,-85.7542"/>
</g>
<!-- Node37&#45;&gt;Node5 -->
<g id="edge81" class="edge"><title>Node37&#45;&gt;Node5</title>
<path fill="none" stroke="midnightblue" d="M404.781,-112.368C389.464,-94.0547 353.495,-51.0489 333.685,-27.3624"/>
<polygon fill="midnightblue" stroke="midnightblue" points="336.286,-25.0168 327.186,-19.5914 330.916,-29.5077 336.286,-25.0168"/>
</g>
</g>
</svg>
