<?xml version="1.0" encoding="UTF-8" standalone="no"?>
<!DOCTYPE svg PUBLIC "-//W3C//DTD SVG 1.1//EN"
 "http://www.w3.org/Graphics/SVG/1.1/DTD/svg11.dtd">
<!-- Generated by graphviz version 2.38.0 (20140413.2041)
 -->
<!-- Title: cbstyledtextctrl.cpp Pages: 1 -->
<svg width="2452pt" height="308pt"
 viewBox="0.00 0.00 2452.00 308.00" xmlns="http://www.w3.org/2000/svg" xmlns:xlink="http://www.w3.org/1999/xlink">
<g id="graph0" class="graph" transform="scale(1 1) rotate(0) translate(4 304)">
<title>cbstyledtextctrl.cpp</title>
<polygon fill="white" stroke="none" points="-4,4 -4,-304 2448,-304 2448,4 -4,4"/>
<!-- Node1 -->
<g id="node1" class="node"><title>Node1</title>
<polygon fill="#bfbfbf" stroke="black" points="1320.5,-280.5 1320.5,-299.5 1419.5,-299.5 1419.5,-280.5 1320.5,-280.5"/>
<text text-anchor="middle" x="1370" y="-287.5" font-family="FreeSans" font-size="10.00">cbstyledtextctrl.cpp</text>
</g>
<!-- Node2 -->
<g id="node2" class="node"><title>Node2</title>
<g id="a_node2"><a xlink:href="sdk__precomp_8h.xhtml" target="_top" xlink:title="sdk_precomp.h">
<polygon fill="white" stroke="black" points="274,-224.5 274,-243.5 356,-243.5 356,-224.5 274,-224.5"/>
<text text-anchor="middle" x="315" y="-231.5" font-family="FreeSans" font-size="10.00">sdk_precomp.h</text>
</a>
</g>
</g>
<!-- Node1&#45;&gt;Node2 -->
<g id="edge1" class="edge"><title>Node1&#45;&gt;Node2</title>
<path fill="none" stroke="midnightblue" d="M1320.18,-286.45C1143.17,-277.39 545.673,-246.807 366.319,-237.627"/>
<polygon fill="midnightblue" stroke="midnightblue" points="366.271,-234.12 356.105,-237.104 365.913,-241.111 366.271,-234.12"/>
</g>
<!-- Node6 -->
<g id="node6" class="node"><title>Node6</title>
<g id="a_node6"><a xlink:href="cbstyledtextctrl_8h.xhtml" target="_top" xlink:title="cbstyledtextctrl.h">
<polygon fill="white" stroke="black" points="1398.5,-224.5 1398.5,-243.5 1487.5,-243.5 1487.5,-224.5 1398.5,-224.5"/>
<text text-anchor="middle" x="1443" y="-231.5" font-family="FreeSans" font-size="10.00">cbstyledtextctrl.h</text>
</a>
</g>
</g>
<!-- Node1&#45;&gt;Node6 -->
<g id="edge5" class="edge"><title>Node1&#45;&gt;Node6</title>
<path fill="none" stroke="midnightblue" d="M1381.73,-280.324C1392.84,-272.107 1409.74,-259.602 1422.98,-249.807"/>
<polygon fill="midnightblue" stroke="midnightblue" points="1425.1,-252.595 1431.06,-243.834 1420.94,-246.967 1425.1,-252.595"/>
</g>
<!-- Node12 -->
<g id="node12" class="node"><title>Node12</title>
<polygon fill="white" stroke="#bfbfbf" points="921,-112.5 921,-131.5 981,-131.5 981,-112.5 921,-112.5"/>
<text text-anchor="middle" x="951" y="-119.5" font-family="FreeSans" font-size="10.00">wx/timer.h</text>
</g>
<!-- Node1&#45;&gt;Node12 -->
<g id="edge18" class="edge"><title>Node1&#45;&gt;Node12</title>
<path fill="none" stroke="midnightblue" d="M1343.12,-280.434C1292.42,-264.053 1179.47,-226.48 1087,-188 1047.84,-171.703 1003.74,-149.985 976.665,-136.244"/>
<polygon fill="midnightblue" stroke="midnightblue" points="977.997,-132.994 967.499,-131.567 974.816,-139.23 977.997,-132.994"/>
</g>
<!-- Node17 -->
<g id="node17" class="node"><title>Node17</title>
<polygon fill="white" stroke="#bfbfbf" points="2072,-224.5 2072,-243.5 2142,-243.5 2142,-224.5 2072,-224.5"/>
<text text-anchor="middle" x="2107" y="-231.5" font-family="FreeSans" font-size="10.00">wx/gdicmn.h</text>
</g>
<!-- Node1&#45;&gt;Node17 -->
<g id="edge16" class="edge"><title>Node1&#45;&gt;Node17</title>
<path fill="none" stroke="midnightblue" d="M1419.81,-288.102C1532.46,-285.569 1815.53,-276.385 2061.33,-244.048"/>
<polygon fill="midnightblue" stroke="midnightblue" points="2062.08,-247.479 2071.53,-242.69 2061.15,-240.54 2062.08,-247.479"/>
</g>
<!-- Node18 -->
<g id="node18" class="node"><title>Node18</title>
<polygon fill="white" stroke="#bfbfbf" points="313,-0.5 313,-19.5 375,-19.5 375,-0.5 313,-0.5"/>
<text text-anchor="middle" x="344" y="-7.5" font-family="FreeSans" font-size="10.00">wx/string.h</text>
</g>
<!-- Node1&#45;&gt;Node18 -->
<g id="edge17" class="edge"><title>Node1&#45;&gt;Node18</title>
<path fill="none" stroke="midnightblue" d="M1320.48,-288.189C1133.91,-284.947 473.403,-271.726 265,-244 144.79,-228.007 0,-300.269 0,-179 0,-179 0,-179 0,-121 0,-58.0596 211.565,-26.1869 302.865,-15.3628"/>
<polygon fill="midnightblue" stroke="midnightblue" points="303.335,-18.8319 312.866,-14.2046 302.529,-11.8783 303.335,-18.8319"/>
</g>
<!-- Node19 -->
<g id="node19" class="node"><title>Node19</title>
<g id="a_node19"><a xlink:href="editorbase_8h.xhtml" target="_top" xlink:title="editorbase.h">
<polygon fill="white" stroke="black" points="392,-168.5 392,-187.5 460,-187.5 460,-168.5 392,-168.5"/>
<text text-anchor="middle" x="426" y="-175.5" font-family="FreeSans" font-size="10.00">editorbase.h</text>
</a>
</g>
</g>
<!-- Node1&#45;&gt;Node19 -->
<g id="edge19" class="edge"><title>Node1&#45;&gt;Node19</title>
<path fill="none" stroke="midnightblue" d="M1320.26,-284.781C1235.39,-277.445 1057.22,-261.443 907,-244 745.693,-225.269 554.671,-197.904 470.081,-185.519"/>
<polygon fill="midnightblue" stroke="midnightblue" points="470.464,-182.038 460.062,-184.049 469.448,-188.964 470.464,-182.038"/>
</g>
<!-- Node33 -->
<g id="node33" class="node"><title>Node33</title>
<g id="a_node33"><a xlink:href="editormanager_8h.xhtml" target="_top" xlink:title="editormanager.h">
<polygon fill="white" stroke="black" points="698,-168.5 698,-187.5 784,-187.5 784,-168.5 698,-168.5"/>
<text text-anchor="middle" x="741" y="-175.5" font-family="FreeSans" font-size="10.00">editormanager.h</text>
</a>
</g>
</g>
<!-- Node1&#45;&gt;Node33 -->
<g id="edge38" class="edge"><title>Node1&#45;&gt;Node33</title>
<path fill="none" stroke="midnightblue" d="M1320.25,-285.12C1248.13,-279.025 1110.53,-265.618 995,-244 917.353,-229.471 828.254,-204.769 778.912,-190.364"/>
<polygon fill="midnightblue" stroke="midnightblue" points="779.878,-187 769.297,-187.54 777.905,-193.716 779.878,-187"/>
</g>
<!-- Node37 -->
<g id="node37" class="node"><title>Node37</title>
<g id="a_node37"><a xlink:href="pluginmanager_8h.xhtml" target="_top" xlink:title="pluginmanager.h">
<polygon fill="white" stroke="black" points="1679.5,-112.5 1679.5,-131.5 1766.5,-131.5 1766.5,-112.5 1679.5,-112.5"/>
<text text-anchor="middle" x="1723" y="-119.5" font-family="FreeSans" font-size="10.00">pluginmanager.h</text>
</a>
</g>
</g>
<!-- Node1&#45;&gt;Node37 -->
<g id="edge53" class="edge"><title>Node1&#45;&gt;Node37</title>
<path fill="none" stroke="midnightblue" d="M1396.9,-280.423C1443.84,-264.972 1543.12,-230.121 1621,-188 1650.15,-172.234 1682.13,-151.202 1702.37,-137.39"/>
<polygon fill="midnightblue" stroke="midnightblue" points="1704.53,-140.148 1710.79,-131.596 1700.56,-134.381 1704.53,-140.148"/>
</g>
<!-- Node39 -->
<g id="node39" class="node"><title>Node39</title>
<polygon fill="white" stroke="#bfbfbf" points="2160,-224.5 2160,-243.5 2226,-243.5 2226,-224.5 2160,-224.5"/>
<text text-anchor="middle" x="2193" y="-231.5" font-family="FreeSans" font-size="10.00">wx/textfile.h</text>
</g>
<!-- Node1&#45;&gt;Node39 -->
<g id="edge61" class="edge"><title>Node1&#45;&gt;Node39</title>
<path fill="none" stroke="midnightblue" d="M1419.59,-288.777C1542.06,-287.662 1868.66,-281.257 2149.64,-243.978"/>
<polygon fill="midnightblue" stroke="midnightblue" points="2150.17,-247.438 2159.61,-242.638 2149.23,-240.5 2150.17,-247.438"/>
</g>
<!-- Node40 -->
<g id="node40" class="node"><title>Node40</title>
<g id="a_node40"><a xlink:href="cbdebugger__interfaces_8h.xhtml" target="_top" xlink:title="cbdebugger_interfaces.h">
<polygon fill="white" stroke="black" points="1932,-224.5 1932,-243.5 2054,-243.5 2054,-224.5 1932,-224.5"/>
<text text-anchor="middle" x="1993" y="-231.5" font-family="FreeSans" font-size="10.00">cbdebugger_interfaces.h</text>
</a>
</g>
</g>
<!-- Node1&#45;&gt;Node40 -->
<g id="edge62" class="edge"><title>Node1&#45;&gt;Node40</title>
<path fill="none" stroke="midnightblue" d="M1419.67,-284.695C1529.69,-275.158 1794.27,-252.225 1921.85,-241.167"/>
<polygon fill="midnightblue" stroke="midnightblue" points="1922.24,-244.646 1931.9,-240.296 1921.64,-237.672 1922.24,-244.646"/>
</g>
<!-- Node41 -->
<g id="node41" class="node"><title>Node41</title>
<g id="a_node41"><a xlink:href="debuggermanager_8h.xhtml" target="_top" xlink:title="debuggermanager.h">
<polygon fill="white" stroke="black" points="1490.5,-168.5 1490.5,-187.5 1591.5,-187.5 1591.5,-168.5 1490.5,-168.5"/>
<text text-anchor="middle" x="1541" y="-175.5" font-family="FreeSans" font-size="10.00">debuggermanager.h</text>
</a>
</g>
</g>
<!-- Node1&#45;&gt;Node41 -->
<g id="edge87" class="edge"><title>Node1&#45;&gt;Node41</title>
<path fill="none" stroke="midnightblue" d="M1370.19,-280.097C1370.99,-266.182 1374.57,-239.293 1390,-224 1413.83,-200.384 1449.48,-189.068 1480.16,-183.686"/>
<polygon fill="midnightblue" stroke="midnightblue" points="1481.01,-187.094 1490.35,-182.079 1479.92,-180.18 1481.01,-187.094"/>
</g>
<!-- Node3 -->
<g id="node3" class="node"><title>Node3</title>
<g id="a_node3"><a xlink:href="sdk__common_8h.xhtml" target="_top" xlink:title="sdk_common.h">
<polygon fill="white" stroke="black" points="28,-168.5 28,-187.5 110,-187.5 110,-168.5 28,-168.5"/>
<text text-anchor="middle" x="69" y="-175.5" font-family="FreeSans" font-size="10.00">sdk_common.h</text>
</a>
</g>
</g>
<!-- Node2&#45;&gt;Node3 -->
<g id="edge2" class="edge"><title>Node2&#45;&gt;Node3</title>
<path fill="none" stroke="midnightblue" d="M276.021,-224.444C233.106,-215.023 164.054,-199.866 117.631,-189.675"/>
<polygon fill="midnightblue" stroke="midnightblue" points="118.315,-186.242 107.797,-187.516 116.814,-193.079 118.315,-186.242"/>
</g>
<!-- Node4 -->
<g id="node4" class="node"><title>Node4</title>
<polygon fill="white" stroke="#bfbfbf" points="31,-112.5 31,-131.5 99,-131.5 99,-112.5 31,-112.5"/>
<text text-anchor="middle" x="65" y="-119.5" font-family="FreeSans" font-size="10.00">wx/wxprec.h</text>
</g>
<!-- Node3&#45;&gt;Node4 -->
<g id="edge3" class="edge"><title>Node3&#45;&gt;Node4</title>
<path fill="none" stroke="midnightblue" d="M68.3395,-168.083C67.8152,-161.006 67.0638,-150.861 66.4064,-141.986"/>
<polygon fill="midnightblue" stroke="midnightblue" points="69.8775,-141.465 65.6482,-131.751 62.8966,-141.982 69.8775,-141.465"/>
</g>
<!-- Node5 -->
<g id="node5" class="node"><title>Node5</title>
<g id="a_node5"><a xlink:href="prep_8h.xhtml" target="_top" xlink:title="prep.h">
<polygon fill="white" stroke="black" points="525.5,-112.5 525.5,-131.5 568.5,-131.5 568.5,-112.5 525.5,-112.5"/>
<text text-anchor="middle" x="547" y="-119.5" font-family="FreeSans" font-size="10.00">prep.h</text>
</a>
</g>
</g>
<!-- Node3&#45;&gt;Node5 -->
<g id="edge4" class="edge"><title>Node3&#45;&gt;Node5</title>
<path fill="none" stroke="midnightblue" d="M110.168,-172.349C203.876,-161.763 431.451,-136.054 515.299,-126.581"/>
<polygon fill="midnightblue" stroke="midnightblue" points="515.703,-130.058 525.247,-125.458 514.917,-123.102 515.703,-130.058"/>
</g>
<!-- Node7 -->
<g id="node7" class="node"><title>Node7</title>
<g id="a_node7"><a xlink:href="wxscintilla_8h.xhtml" target="_top" xlink:title="wx/wxscintilla.h">
<polygon fill="white" stroke="black" points="1188,-168.5 1188,-187.5 1270,-187.5 1270,-168.5 1188,-168.5"/>
<text text-anchor="middle" x="1229" y="-175.5" font-family="FreeSans" font-size="10.00">wx/wxscintilla.h</text>
</a>
</g>
</g>
<!-- Node6&#45;&gt;Node7 -->
<g id="edge6" class="edge"><title>Node6&#45;&gt;Node7</title>
<path fill="none" stroke="midnightblue" d="M1409.09,-224.444C1372.15,-215.122 1312.95,-200.183 1272.58,-189.997"/>
<polygon fill="midnightblue" stroke="midnightblue" points="1273.3,-186.57 1262.75,-187.516 1271.59,-193.357 1273.3,-186.57"/>
</g>
<!-- Node14 -->
<g id="node14" class="node"><title>Node14</title>
<polygon fill="white" stroke="#bfbfbf" points="1096,-168.5 1096,-187.5 1170,-187.5 1170,-168.5 1096,-168.5"/>
<text text-anchor="middle" x="1133" y="-175.5" font-family="FreeSans" font-size="10.00">wx/longlong.h</text>
</g>
<!-- Node6&#45;&gt;Node14 -->
<g id="edge13" class="edge"><title>Node6&#45;&gt;Node14</title>
<path fill="none" stroke="midnightblue" d="M1398.1,-225.689C1347.57,-217.385 1262.78,-203.224 1180.2,-188.186"/>
<polygon fill="midnightblue" stroke="midnightblue" points="1180.61,-184.702 1170.14,-186.348 1179.35,-191.588 1180.61,-184.702"/>
</g>
<!-- Node15 -->
<g id="node15" class="node"><title>Node15</title>
<polygon fill="white" stroke="#bfbfbf" points="1815.5,-0.5 1815.5,-19.5 1850.5,-19.5 1850.5,-0.5 1815.5,-0.5"/>
<text text-anchor="middle" x="1833" y="-7.5" font-family="FreeSans" font-size="10.00">map</text>
</g>
<!-- Node6&#45;&gt;Node15 -->
<g id="edge14" class="edge"><title>Node6&#45;&gt;Node15</title>
<path fill="none" stroke="midnightblue" d="M1487.62,-232.956C1564.14,-230.531 1721.36,-214.971 1817,-132 1843.86,-108.698 1845.5,-91.3853 1842,-56 1841.13,-47.1697 1839.31,-37.5054 1837.53,-29.4041"/>
<polygon fill="midnightblue" stroke="midnightblue" points="1840.92,-28.4935 1835.23,-19.5508 1834.1,-30.0846 1840.92,-28.4935"/>
</g>
<!-- Node16 -->
<g id="node16" class="node"><title>Node16</title>
<polygon fill="white" stroke="#bfbfbf" points="1569.5,-56.5 1569.5,-75.5 1598.5,-75.5 1598.5,-56.5 1569.5,-56.5"/>
<text text-anchor="middle" x="1584" y="-63.5" font-family="FreeSans" font-size="10.00">set</text>
</g>
<!-- Node6&#45;&gt;Node16 -->
<g id="edge15" class="edge"><title>Node6&#45;&gt;Node16</title>
<path fill="none" stroke="midnightblue" d="M1487.72,-232.794C1523.79,-230.075 1572.96,-220.124 1601,-188 1623.33,-162.412 1617.52,-144.878 1609,-112 1606.45,-102.175 1601.25,-92.2118 1596.24,-84.166"/>
<polygon fill="midnightblue" stroke="midnightblue" points="1599.08,-82.1143 1590.63,-75.7252 1593.25,-85.9903 1599.08,-82.1143"/>
</g>
<!-- Node8 -->
<g id="node8" class="node"><title>Node8</title>
<polygon fill="white" stroke="#bfbfbf" points="999,-112.5 999,-131.5 1055,-131.5 1055,-112.5 999,-112.5"/>
<text text-anchor="middle" x="1027" y="-119.5" font-family="FreeSans" font-size="10.00">wx/defs.h</text>
</g>
<!-- Node7&#45;&gt;Node8 -->
<g id="edge7" class="edge"><title>Node7&#45;&gt;Node8</title>
<path fill="none" stroke="midnightblue" d="M1196.99,-168.444C1161.15,-158.861 1103.1,-143.342 1064.98,-133.154"/>
<polygon fill="midnightblue" stroke="midnightblue" points="1065.84,-129.759 1055.27,-130.558 1064.03,-136.522 1065.84,-129.759"/>
</g>
<!-- Node9 -->
<g id="node9" class="node"><title>Node9</title>
<polygon fill="white" stroke="#bfbfbf" points="1073,-112.5 1073,-131.5 1141,-131.5 1141,-112.5 1073,-112.5"/>
<text text-anchor="middle" x="1107" y="-119.5" font-family="FreeSans" font-size="10.00">wx/control.h</text>
</g>
<!-- Node7&#45;&gt;Node9 -->
<g id="edge8" class="edge"><title>Node7&#45;&gt;Node9</title>
<path fill="none" stroke="midnightblue" d="M1209.67,-168.444C1189.68,-159.596 1158.26,-145.687 1135.44,-135.586"/>
<polygon fill="midnightblue" stroke="midnightblue" points="1136.8,-132.363 1126.24,-131.516 1133.97,-138.764 1136.8,-132.363"/>
</g>
<!-- Node10 -->
<g id="node10" class="node"><title>Node10</title>
<polygon fill="white" stroke="#bfbfbf" points="1159,-112.5 1159,-131.5 1213,-131.5 1213,-112.5 1159,-112.5"/>
<text text-anchor="middle" x="1186" y="-119.5" font-family="FreeSans" font-size="10.00">wx/dnd.h</text>
</g>
<!-- Node7&#45;&gt;Node10 -->
<g id="edge9" class="edge"><title>Node7&#45;&gt;Node10</title>
<path fill="none" stroke="midnightblue" d="M1221.9,-168.083C1215.76,-160.377 1206.73,-149.033 1199.26,-139.653"/>
<polygon fill="midnightblue" stroke="midnightblue" points="1201.94,-137.394 1192.97,-131.751 1196.46,-141.754 1201.94,-137.394"/>
</g>
<!-- Node11 -->
<g id="node11" class="node"><title>Node11</title>
<polygon fill="white" stroke="#bfbfbf" points="1231,-112.5 1231,-131.5 1313,-131.5 1313,-112.5 1231,-112.5"/>
<text text-anchor="middle" x="1272" y="-119.5" font-family="FreeSans" font-size="10.00">wx/stopwatch.h</text>
</g>
<!-- Node7&#45;&gt;Node11 -->
<g id="edge10" class="edge"><title>Node7&#45;&gt;Node11</title>
<path fill="none" stroke="midnightblue" d="M1236.1,-168.083C1242.24,-160.377 1251.27,-149.033 1258.74,-139.653"/>
<polygon fill="midnightblue" stroke="midnightblue" points="1261.54,-141.754 1265.03,-131.751 1256.06,-137.394 1261.54,-141.754"/>
</g>
<!-- Node7&#45;&gt;Node12 -->
<g id="edge11" class="edge"><title>Node7&#45;&gt;Node12</title>
<path fill="none" stroke="midnightblue" d="M1187.66,-169.427C1133.52,-159.474 1040.52,-142.254 991.068,-132.143"/>
<polygon fill="midnightblue" stroke="midnightblue" points="991.709,-128.702 981.207,-130.099 990.288,-135.556 991.709,-128.702"/>
</g>
<!-- Node13 -->
<g id="node13" class="node"><title>Node13</title>
<polygon fill="white" stroke="#bfbfbf" points="1331,-112.5 1331,-131.5 1403,-131.5 1403,-112.5 1331,-112.5"/>
<text text-anchor="middle" x="1367" y="-119.5" font-family="FreeSans" font-size="10.00">wx/scrolbar.h</text>
</g>
<!-- Node7&#45;&gt;Node13 -->
<g id="edge12" class="edge"><title>Node7&#45;&gt;Node13</title>
<path fill="none" stroke="midnightblue" d="M1250.87,-168.444C1273.78,-159.478 1309.98,-145.314 1335.87,-135.183"/>
<polygon fill="midnightblue" stroke="midnightblue" points="1337.2,-138.42 1345.24,-131.516 1334.65,-131.901 1337.2,-138.42"/>
</g>
<!-- Node19&#45;&gt;Node5 -->
<g id="edge20" class="edge"><title>Node19&#45;&gt;Node5</title>
<path fill="none" stroke="midnightblue" d="M445.173,-168.444C464.909,-159.636 495.885,-145.812 518.493,-135.722"/>
<polygon fill="midnightblue" stroke="midnightblue" points="520.211,-138.788 527.917,-131.516 517.359,-132.396 520.211,-138.788"/>
</g>
<!-- Node20 -->
<g id="node20" class="node"><title>Node20</title>
<polygon fill="white" stroke="#bfbfbf" points="487.5,-56.5 487.5,-75.5 564.5,-75.5 564.5,-56.5 487.5,-56.5"/>
<text text-anchor="middle" x="526" y="-63.5" font-family="FreeSans" font-size="10.00">wx/hashmap.h</text>
</g>
<!-- Node19&#45;&gt;Node20 -->
<g id="edge21" class="edge"><title>Node19&#45;&gt;Node20</title>
<path fill="none" stroke="midnightblue" d="M399.694,-168.434C369.682,-157.263 327.058,-136.261 346,-112 362.021,-91.4803 429.572,-78.9328 477.193,-72.4708"/>
<polygon fill="midnightblue" stroke="midnightblue" points="477.863,-75.913 487.325,-71.1459 476.956,-68.9721 477.863,-75.913"/>
</g>
<!-- Node21 -->
<g id="node21" class="node"><title>Node21</title>
<polygon fill="white" stroke="#bfbfbf" points="235.5,-112.5 235.5,-131.5 298.5,-131.5 298.5,-112.5 235.5,-112.5"/>
<text text-anchor="middle" x="267" y="-119.5" font-family="FreeSans" font-size="10.00">wx/frame.h</text>
</g>
<!-- Node19&#45;&gt;Node21 -->
<g id="edge22" class="edge"><title>Node19&#45;&gt;Node21</title>
<path fill="none" stroke="midnightblue" d="M400.806,-168.444C374.057,-159.359 331.597,-144.939 301.695,-134.783"/>
<polygon fill="midnightblue" stroke="midnightblue" points="302.671,-131.418 292.076,-131.516 300.419,-138.046 302.671,-131.418"/>
</g>
<!-- Node22 -->
<g id="node22" class="node"><title>Node22</title>
<polygon fill="white" stroke="#bfbfbf" points="155,-112.5 155,-131.5 217,-131.5 217,-112.5 155,-112.5"/>
<text text-anchor="middle" x="186" y="-119.5" font-family="FreeSans" font-size="10.00">wx/panel.h</text>
</g>
<!-- Node19&#45;&gt;Node22 -->
<g id="edge23" class="edge"><title>Node19&#45;&gt;Node22</title>
<path fill="none" stroke="midnightblue" d="M391.869,-169.32C348.556,-159.575 273.9,-142.777 227.386,-132.312"/>
<polygon fill="midnightblue" stroke="midnightblue" points="227.866,-128.832 217.341,-130.052 226.329,-135.662 227.866,-128.832"/>
</g>
<!-- Node23 -->
<g id="node23" class="node"><title>Node23</title>
<g id="a_node23"><a xlink:href="globals_8h.xhtml" target="_top" xlink:title="globals.h">
<polygon fill="white" stroke="black" points="621,-56.5 621,-75.5 675,-75.5 675,-56.5 621,-56.5"/>
<text text-anchor="middle" x="648" y="-63.5" font-family="FreeSans" font-size="10.00">globals.h</text>
</a>
</g>
</g>
<!-- Node19&#45;&gt;Node23 -->
<g id="edge24" class="edge"><title>Node19&#45;&gt;Node23</title>
<path fill="none" stroke="midnightblue" d="M431.145,-168.397C439.963,-154.404 459.326,-126.795 483,-112 522.477,-87.3291 575.486,-75.9984 610.646,-70.9214"/>
<polygon fill="midnightblue" stroke="midnightblue" points="611.505,-74.3377 620.95,-69.5387 610.574,-67.3999 611.505,-74.3377"/>
</g>
<!-- Node31 -->
<g id="node31" class="node"><title>Node31</title>
<g id="a_node31"><a xlink:href="settings_8h.xhtml" target="_top" xlink:title="settings.h">
<polygon fill="white" stroke="black" points="1356.5,-0.5 1356.5,-19.5 1413.5,-19.5 1413.5,-0.5 1356.5,-0.5"/>
<text text-anchor="middle" x="1385" y="-7.5" font-family="FreeSans" font-size="10.00">settings.h</text>
</a>
</g>
</g>
<!-- Node19&#45;&gt;Node31 -->
<g id="edge34" class="edge"><title>Node19&#45;&gt;Node31</title>
<path fill="none" stroke="midnightblue" d="M436.531,-168.381C456.345,-152.34 498.727,-118.898 516,-112 594.076,-80.8184 1187.14,-28.0223 1345.97,-14.3252"/>
<polygon fill="midnightblue" stroke="midnightblue" points="1346.56,-17.7878 1356.22,-13.4437 1345.96,-10.8136 1346.56,-17.7878"/>
</g>
<!-- Node32 -->
<g id="node32" class="node"><title>Node32</title>
<g id="a_node32"><a xlink:href="cbexception_8h.xhtml" target="_top" xlink:title="cbexception.h">
<polygon fill="white" stroke="red" points="355,-112.5 355,-131.5 431,-131.5 431,-112.5 355,-112.5"/>
<text text-anchor="middle" x="393" y="-119.5" font-family="FreeSans" font-size="10.00">cbexception.h</text>
</a>
</g>
</g>
<!-- Node19&#45;&gt;Node32 -->
<g id="edge35" class="edge"><title>Node19&#45;&gt;Node32</title>
<path fill="none" stroke="midnightblue" d="M420.551,-168.083C415.986,-160.613 409.332,-149.724 403.707,-140.52"/>
<polygon fill="midnightblue" stroke="midnightblue" points="406.549,-138.459 398.348,-131.751 400.576,-142.109 406.549,-138.459"/>
</g>
<!-- Node23&#45;&gt;Node18 -->
<g id="edge26" class="edge"><title>Node23&#45;&gt;Node18</title>
<path fill="none" stroke="midnightblue" d="M620.697,-58.7833C616.132,-57.8082 611.439,-56.8447 607,-56 511.554,-37.8349 484.313,-38.9333 385.518,-20.1962"/>
<polygon fill="midnightblue" stroke="midnightblue" points="385.885,-16.703 375.405,-18.257 384.567,-23.5777 385.885,-16.703"/>
</g>
<!-- Node24 -->
<g id="node24" class="node"><title>Node24</title>
<polygon fill="white" stroke="#bfbfbf" points="1551.5,-0.5 1551.5,-19.5 1594.5,-19.5 1594.5,-0.5 1551.5,-0.5"/>
<text text-anchor="middle" x="1573" y="-7.5" font-family="FreeSans" font-size="10.00">vector</text>
</g>
<!-- Node23&#45;&gt;Node24 -->
<g id="edge25" class="edge"><title>Node23&#45;&gt;Node24</title>
<path fill="none" stroke="midnightblue" d="M675.078,-63.44C774.58,-57.7047 1129.41,-37.225 1422,-20 1463.27,-17.5701 1510.89,-14.725 1541.44,-12.8944"/>
<polygon fill="midnightblue" stroke="midnightblue" points="1541.72,-16.3839 1551.5,-12.2916 1541.3,-9.39643 1541.72,-16.3839"/>
</g>
<!-- Node25 -->
<g id="node25" class="node"><title>Node25</title>
<polygon fill="white" stroke="#bfbfbf" points="796,-0.5 796,-19.5 864,-19.5 864,-0.5 796,-0.5"/>
<text text-anchor="middle" x="830" y="-7.5" font-family="FreeSans" font-size="10.00">wx/treectrl.h</text>
</g>
<!-- Node23&#45;&gt;Node25 -->
<g id="edge27" class="edge"><title>Node23&#45;&gt;Node25</title>
<path fill="none" stroke="midnightblue" d="M675.247,-56.9157C706.024,-47.7841 756.353,-32.8514 791.22,-22.5061"/>
<polygon fill="midnightblue" stroke="midnightblue" points="792.469,-25.7865 801.06,-19.5865 790.478,-19.0756 792.469,-25.7865"/>
</g>
<!-- Node26 -->
<g id="node26" class="node"><title>Node26</title>
<polygon fill="white" stroke="#bfbfbf" points="636,-0.5 636,-19.5 686,-19.5 686,-0.5 636,-0.5"/>
<text text-anchor="middle" x="661" y="-7.5" font-family="FreeSans" font-size="10.00">wx/file.h</text>
</g>
<!-- Node23&#45;&gt;Node26 -->
<g id="edge28" class="edge"><title>Node23&#45;&gt;Node26</title>
<path fill="none" stroke="midnightblue" d="M650.147,-56.083C651.869,-48.9272 654.347,-38.6353 656.5,-29.6911"/>
<polygon fill="midnightblue" stroke="midnightblue" points="659.955,-30.2925 658.893,-19.7511 653.15,-28.6541 659.955,-30.2925"/>
</g>
<!-- Node27 -->
<g id="node27" class="node"><title>Node27</title>
<polygon fill="white" stroke="#bfbfbf" points="704,-0.5 704,-19.5 778,-19.5 778,-0.5 704,-0.5"/>
<text text-anchor="middle" x="741" y="-7.5" font-family="FreeSans" font-size="10.00">wx/filename.h</text>
</g>
<!-- Node23&#45;&gt;Node27 -->
<g id="edge29" class="edge"><title>Node23&#45;&gt;Node27</title>
<path fill="none" stroke="midnightblue" d="M662.942,-56.324C677.585,-47.8215 700.134,-34.7288 717.238,-24.7975"/>
<polygon fill="midnightblue" stroke="midnightblue" points="719.205,-27.7027 726.095,-19.6545 715.69,-21.6491 719.205,-27.7027"/>
</g>
<!-- Node28 -->
<g id="node28" class="node"><title>Node28</title>
<polygon fill="white" stroke="#bfbfbf" points="393.5,-0.5 393.5,-19.5 444.5,-19.5 444.5,-0.5 393.5,-0.5"/>
<text text-anchor="middle" x="419" y="-7.5" font-family="FreeSans" font-size="10.00">wx/intl.h</text>
</g>
<!-- Node23&#45;&gt;Node28 -->
<g id="edge30" class="edge"><title>Node23&#45;&gt;Node28</title>
<path fill="none" stroke="midnightblue" d="M620.805,-59.0125C584.903,-51.0455 519.487,-36.3145 454.584,-20.3389"/>
<polygon fill="midnightblue" stroke="midnightblue" points="455.145,-16.8722 444.597,-17.8695 453.465,-23.6675 455.145,-16.8722"/>
</g>
<!-- Node29 -->
<g id="node29" class="node"><title>Node29</title>
<polygon fill="white" stroke="#bfbfbf" points="462.5,-0.5 462.5,-19.5 531.5,-19.5 531.5,-0.5 462.5,-0.5"/>
<text text-anchor="middle" x="497" y="-7.5" font-family="FreeSans" font-size="10.00">wx/msgdlg.h</text>
</g>
<!-- Node23&#45;&gt;Node29 -->
<g id="edge31" class="edge"><title>Node23&#45;&gt;Node29</title>
<path fill="none" stroke="midnightblue" d="M624.074,-56.4435C598.781,-47.3986 558.698,-33.064 530.32,-22.9158"/>
<polygon fill="midnightblue" stroke="midnightblue" points="531.409,-19.5882 520.814,-19.5164 529.052,-26.1794 531.409,-19.5882"/>
</g>
<!-- Node30 -->
<g id="node30" class="node"><title>Node30</title>
<polygon fill="white" stroke="#bfbfbf" points="550,-0.5 550,-19.5 618,-19.5 618,-0.5 550,-0.5"/>
<text text-anchor="middle" x="584" y="-7.5" font-family="FreeSans" font-size="10.00">wx/bitmap.h</text>
</g>
<!-- Node23&#45;&gt;Node30 -->
<g id="edge32" class="edge"><title>Node23&#45;&gt;Node30</title>
<path fill="none" stroke="midnightblue" d="M637.717,-56.324C628.164,-48.2631 613.72,-36.0765 602.216,-26.3695"/>
<polygon fill="midnightblue" stroke="midnightblue" points="604.37,-23.6076 594.47,-19.8339 599.856,-28.9577 604.37,-23.6076"/>
</g>
<!-- Node23&#45;&gt;Node31 -->
<g id="edge33" class="edge"><title>Node23&#45;&gt;Node31</title>
<path fill="none" stroke="midnightblue" d="M675.243,-58.4167C679.814,-57.4857 684.526,-56.6319 689,-56 937.637,-20.8792 1240.17,-13.1294 1346.12,-11.4525"/>
<polygon fill="midnightblue" stroke="midnightblue" points="1346.39,-14.9491 1356.33,-11.3004 1346.28,-7.94983 1346.39,-14.9491"/>
</g>
<!-- Node32&#45;&gt;Node18 -->
<g id="edge36" class="edge"><title>Node32&#45;&gt;Node18</title>
<path fill="none" stroke="midnightblue" d="M389.155,-112.368C381.176,-94.4563 362.675,-52.9233 351.995,-28.9482"/>
<polygon fill="midnightblue" stroke="midnightblue" points="355.093,-27.3019 347.827,-19.5914 348.699,-30.1503 355.093,-27.3019"/>
</g>
<!-- Node32&#45;&gt;Node23 -->
<g id="edge37" class="edge"><title>Node32&#45;&gt;Node23</title>
<path fill="none" stroke="midnightblue" d="M431.176,-112.916C479.716,-102.637 562.968,-85.0068 610.96,-74.8439"/>
<polygon fill="midnightblue" stroke="midnightblue" points="611.869,-78.2291 620.927,-72.7332 610.418,-71.3809 611.869,-78.2291"/>
</g>
<!-- Node33&#45;&gt;Node5 -->
<g id="edge39" class="edge"><title>Node33&#45;&gt;Node5</title>
<path fill="none" stroke="midnightblue" d="M710.26,-168.444C674.28,-158.429 615.003,-141.929 578.64,-131.807"/>
<polygon fill="midnightblue" stroke="midnightblue" points="579.158,-128.318 568.586,-129.008 577.281,-135.062 579.158,-128.318"/>
</g>
<!-- Node33&#45;&gt;Node20 -->
<g id="edge42" class="edge"><title>Node33&#45;&gt;Node20</title>
<path fill="none" stroke="midnightblue" d="M709.933,-168.471C684.004,-160.735 646.497,-148.092 616,-132 589.29,-117.907 561.561,-96.7151 544.066,-82.394"/>
<polygon fill="midnightblue" stroke="midnightblue" points="545.835,-79.3126 535.91,-75.6053 541.357,-84.6927 545.835,-79.3126"/>
</g>
<!-- Node33&#45;&gt;Node23 -->
<g id="edge52" class="edge"><title>Node33&#45;&gt;Node23</title>
<path fill="none" stroke="midnightblue" d="M733.702,-168.368C718.219,-150.055 681.86,-107.049 661.834,-83.3624"/>
<polygon fill="midnightblue" stroke="midnightblue" points="664.393,-80.9682 655.264,-75.5914 659.047,-85.4877 664.393,-80.9682"/>
</g>
<!-- Node33&#45;&gt;Node25 -->
<g id="edge41" class="edge"><title>Node33&#45;&gt;Node25</title>
<path fill="none" stroke="midnightblue" d="M745.166,-168.388C754.881,-148.415 779.964,-97.4767 803,-56 808.151,-46.7259 814.202,-36.5788 819.268,-28.2714"/>
<polygon fill="midnightblue" stroke="midnightblue" points="822.389,-29.8776 824.651,-19.5269 816.428,-26.2081 822.389,-29.8776"/>
</g>
<!-- Node33&#45;&gt;Node27 -->
<g id="edge43" class="edge"><title>Node33&#45;&gt;Node27</title>
<path fill="none" stroke="midnightblue" d="M741,-168.075C741,-141.945 741,-65.2106 741,-29.577"/>
<polygon fill="midnightblue" stroke="midnightblue" points="744.5,-29.5681 741,-19.5681 737.5,-29.5681 744.5,-29.5681"/>
</g>
<!-- Node33&#45;&gt;Node31 -->
<g id="edge44" class="edge"><title>Node33&#45;&gt;Node31</title>
<path fill="none" stroke="midnightblue" d="M750.348,-168.498C766.059,-154.651 799.264,-127.246 832,-112 1011.32,-28.4873 1253.35,-13.9033 1346.37,-11.4508"/>
<polygon fill="midnightblue" stroke="midnightblue" points="1346.54,-14.9481 1356.45,-11.2181 1346.37,-7.94996 1346.54,-14.9481"/>
</g>
<!-- Node33&#45;&gt;Node32 -->
<g id="edge49" class="edge"><title>Node33&#45;&gt;Node32</title>
<path fill="none" stroke="midnightblue" d="M697.979,-170.324C632.769,-160.206 509.302,-141.047 441.169,-130.474"/>
<polygon fill="midnightblue" stroke="midnightblue" points="441.547,-126.991 431.129,-128.917 440.474,-133.909 441.547,-126.991"/>
</g>
<!-- Node34 -->
<g id="node34" class="node"><title>Node34</title>
<polygon fill="white" stroke="#bfbfbf" points="625,-112.5 625,-131.5 675,-131.5 675,-112.5 625,-112.5"/>
<text text-anchor="middle" x="650" y="-119.5" font-family="FreeSans" font-size="10.00">wx/list.h</text>
</g>
<!-- Node33&#45;&gt;Node34 -->
<g id="edge40" class="edge"><title>Node33&#45;&gt;Node34</title>
<path fill="none" stroke="midnightblue" d="M726.379,-168.324C712.051,-159.822 689.987,-146.729 673.251,-136.797"/>
<polygon fill="midnightblue" stroke="midnightblue" points="674.97,-133.748 664.584,-131.655 671.398,-139.768 674.97,-133.748"/>
</g>
<!-- Node35 -->
<g id="node35" class="node"><title>Node35</title>
<g id="a_node35"><a xlink:href="manager_8h.xhtml" target="_top" xlink:title="manager.h">
<polygon fill="white" stroke="red" points="1451,-56.5 1451,-75.5 1513,-75.5 1513,-56.5 1451,-56.5"/>
<text text-anchor="middle" x="1482" y="-63.5" font-family="FreeSans" font-size="10.00">manager.h</text>
</a>
</g>
</g>
<!-- Node33&#45;&gt;Node35 -->
<g id="edge45" class="edge"><title>Node33&#45;&gt;Node35</title>
<path fill="none" stroke="midnightblue" d="M769.258,-168.489C796.066,-160.136 837.297,-146.561 872,-132 890.328,-124.31 892.85,-117.325 912,-112 1011.7,-84.2772 1327.07,-71.8628 1440.69,-68.2099"/>
<polygon fill="midnightblue" stroke="midnightblue" points="1440.85,-71.7068 1450.73,-67.8932 1440.63,-64.7103 1440.85,-71.7068"/>
</g>
<!-- Node36 -->
<g id="node36" class="node"><title>Node36</title>
<g id="a_node36"><a xlink:href="printing__types_8h.xhtml" target="_top" xlink:title="printing_types.h">
<polygon fill="white" stroke="red" points="1059.5,-56.5 1059.5,-75.5 1142.5,-75.5 1142.5,-56.5 1059.5,-56.5"/>
<text text-anchor="middle" x="1101" y="-63.5" font-family="FreeSans" font-size="10.00">printing_types.h</text>
</a>
</g>
</g>
<!-- Node33&#45;&gt;Node36 -->
<g id="edge50" class="edge"><title>Node33&#45;&gt;Node36</title>
<path fill="none" stroke="midnightblue" d="M758.038,-168.344C789.309,-152.562 854.868,-120 879,-112 935.914,-93.1336 1003.78,-80.7779 1049.37,-73.8698"/>
<polygon fill="midnightblue" stroke="midnightblue" points="1049.93,-77.324 1059.31,-72.3955 1048.91,-70.3997 1049.93,-77.324"/>
</g>
<!-- Node35&#45;&gt;Node15 -->
<g id="edge46" class="edge"><title>Node35&#45;&gt;Node15</title>
<path fill="none" stroke="midnightblue" d="M1513.43,-58.4994C1517.98,-57.6218 1522.6,-56.7623 1527,-56 1629.21,-38.2755 1751.42,-21.6752 1805.24,-14.5964"/>
<polygon fill="midnightblue" stroke="midnightblue" points="1805.9,-18.0402 1815.36,-13.2717 1804.99,-11.0994 1805.9,-18.0402"/>
</g>
<!-- Node35&#45;&gt;Node24 -->
<g id="edge47" class="edge"><title>Node35&#45;&gt;Node24</title>
<path fill="none" stroke="midnightblue" d="M1496.62,-56.324C1510.95,-47.8215 1533.01,-34.7288 1549.75,-24.7975"/>
<polygon fill="midnightblue" stroke="midnightblue" points="1551.6,-27.7677 1558.42,-19.6545 1548.03,-21.7478 1551.6,-27.7677"/>
</g>
<!-- Node35&#45;&gt;Node31 -->
<g id="edge48" class="edge"><title>Node35&#45;&gt;Node31</title>
<path fill="none" stroke="midnightblue" d="M1466.42,-56.324C1451,-47.7428 1427.19,-34.486 1409.29,-24.5224"/>
<polygon fill="midnightblue" stroke="midnightblue" points="1410.99,-21.4606 1400.55,-19.6545 1407.58,-27.5767 1410.99,-21.4606"/>
</g>
<!-- Node36&#45;&gt;Node31 -->
<g id="edge51" class="edge"><title>Node36&#45;&gt;Node31</title>
<path fill="none" stroke="midnightblue" d="M1142.6,-57.0901C1197.34,-46.6812 1292.84,-28.5225 1346.17,-18.3831"/>
<polygon fill="midnightblue" stroke="midnightblue" points="1347.08,-21.7733 1356.25,-16.4669 1345.77,-14.8965 1347.08,-21.7733"/>
</g>
<!-- Node37&#45;&gt;Node15 -->
<g id="edge55" class="edge"><title>Node37&#45;&gt;Node15</title>
<path fill="none" stroke="midnightblue" d="M1733.96,-112.477C1744.97,-103.738 1762.23,-89.5469 1776,-76 1791.8,-60.4549 1808.33,-41.218 1819.5,-27.7196"/>
<polygon fill="midnightblue" stroke="midnightblue" points="1822.38,-29.7298 1826,-19.7743 1816.96,-25.2965 1822.38,-29.7298"/>
</g>
<!-- Node37&#45;&gt;Node16 -->
<g id="edge56" class="edge"><title>Node37&#45;&gt;Node16</title>
<path fill="none" stroke="midnightblue" d="M1700.98,-112.444C1675.7,-102.624 1634.38,-86.5715 1608.22,-76.4081"/>
<polygon fill="midnightblue" stroke="midnightblue" points="1609.26,-73.0592 1598.67,-72.7003 1606.73,-79.5841 1609.26,-73.0592"/>
</g>
<!-- Node37&#45;&gt;Node23 -->
<g id="edge58" class="edge"><title>Node37&#45;&gt;Node23</title>
<path fill="none" stroke="midnightblue" d="M1679.43,-117.719C1654.43,-115.898 1622.46,-113.67 1594,-112 1240.73,-91.2767 812.81,-73.5916 685.463,-68.4838"/>
<polygon fill="midnightblue" stroke="midnightblue" points="685.235,-64.972 675.103,-68.0695 684.955,-71.9664 685.235,-64.972"/>
</g>
<!-- Node37&#45;&gt;Node24 -->
<g id="edge54" class="edge"><title>Node37&#45;&gt;Node24</title>
<path fill="none" stroke="midnightblue" d="M1712.61,-112.291C1697.26,-99.533 1667.47,-75.1967 1641,-56 1626.1,-45.1959 1608.8,-33.7604 1595.38,-25.1209"/>
<polygon fill="midnightblue" stroke="midnightblue" points="1597.09,-22.0634 1586.78,-19.6285 1593.32,-27.9622 1597.09,-22.0634"/>
</g>
<!-- Node37&#45;&gt;Node31 -->
<g id="edge59" class="edge"><title>Node37&#45;&gt;Node31</title>
<path fill="none" stroke="midnightblue" d="M1706.86,-112.407C1690.24,-103.497 1663.64,-89.0675 1641,-76 1626.15,-67.4282 1623.98,-62.2336 1608,-56 1546.04,-31.8276 1469.11,-19.9854 1423.71,-14.7109"/>
<polygon fill="midnightblue" stroke="midnightblue" points="1424.02,-11.2241 1413.7,-13.5951 1423.25,-18.181 1424.02,-11.2241"/>
</g>
<!-- Node37&#45;&gt;Node35 -->
<g id="edge60" class="edge"><title>Node37&#45;&gt;Node35</title>
<path fill="none" stroke="midnightblue" d="M1684.81,-112.444C1640.64,-102.545 1568.19,-86.3128 1522.9,-76.1639"/>
<polygon fill="midnightblue" stroke="midnightblue" points="1523.63,-72.7422 1513.11,-73.971 1522.1,-79.5728 1523.63,-72.7422"/>
</g>
<!-- Node38 -->
<g id="node38" class="node"><title>Node38</title>
<polygon fill="white" stroke="#bfbfbf" points="1693,-56.5 1693,-75.5 1767,-75.5 1767,-56.5 1693,-56.5"/>
<text text-anchor="middle" x="1730" y="-63.5" font-family="FreeSans" font-size="10.00">wx/dynarray.h</text>
</g>
<!-- Node37&#45;&gt;Node38 -->
<g id="edge57" class="edge"><title>Node37&#45;&gt;Node38</title>
<path fill="none" stroke="midnightblue" d="M1724.16,-112.083C1725.08,-104.927 1726.42,-94.6353 1727.58,-85.6911"/>
<polygon fill="midnightblue" stroke="midnightblue" points="1731.05,-86.1181 1728.87,-75.7511 1724.11,-85.2181 1731.05,-86.1181"/>
</g>
<!-- Node40&#45;&gt;Node18 -->
<g id="edge63" class="edge"><title>Node40&#45;&gt;Node18</title>
<path fill="none" stroke="midnightblue" d="M1931.8,-231.639C1646.89,-225.26 461.024,-198.2 383,-188 275.679,-173.971 213.159,-216.878 146,-132 98.2893,-71.7021 231.781,-34.0566 302.801,-18.8032"/>
<polygon fill="midnightblue" stroke="midnightblue" points="303.724,-22.186 312.797,-16.7152 302.293,-15.3339 303.724,-22.186"/>
</g>
<!-- Node40&#45;&gt;Node31 -->
<g id="edge64" class="edge"><title>Node40&#45;&gt;Node31</title>
<path fill="none" stroke="midnightblue" d="M1979.98,-224.4C1966.85,-215.602 1946.14,-201.365 1929,-188 1858.18,-132.771 1858.25,-92.0637 1776,-56 1744.18,-42.0468 1516.07,-21.8567 1423.69,-14.1503"/>
<polygon fill="midnightblue" stroke="midnightblue" points="1423.89,-10.6549 1413.64,-13.316 1423.31,-17.6309 1423.89,-10.6549"/>
</g>
<!-- Node40&#45;&gt;Node41 -->
<g id="edge65" class="edge"><title>Node40&#45;&gt;Node41</title>
<path fill="none" stroke="midnightblue" d="M1931.57,-225.661C1845.05,-215.325 1688.26,-196.593 1601.98,-186.286"/>
<polygon fill="midnightblue" stroke="midnightblue" points="1602.17,-182.783 1591.82,-185.072 1601.34,-189.733 1602.17,-182.783"/>
</g>
<!-- Node43 -->
<g id="node43" class="node"><title>Node43</title>
<polygon fill="white" stroke="#bfbfbf" points="1937.5,-168.5 1937.5,-187.5 1984.5,-187.5 1984.5,-168.5 1937.5,-168.5"/>
<text text-anchor="middle" x="1961" y="-175.5" font-family="FreeSans" font-size="10.00">ctype.h</text>
</g>
<!-- Node40&#45;&gt;Node43 -->
<g id="edge79" class="edge"><title>Node40&#45;&gt;Node43</title>
<path fill="none" stroke="midnightblue" d="M1987.72,-224.083C1983.29,-216.613 1976.84,-205.724 1971.38,-196.52"/>
<polygon fill="midnightblue" stroke="midnightblue" points="1974.29,-194.57 1966.19,-187.751 1968.27,-198.138 1974.29,-194.57"/>
</g>
<!-- Node44 -->
<g id="node44" class="node"><title>Node44</title>
<polygon fill="white" stroke="#bfbfbf" points="2003,-168.5 2003,-187.5 2047,-187.5 2047,-168.5 2003,-168.5"/>
<text text-anchor="middle" x="2025" y="-175.5" font-family="FreeSans" font-size="10.00">stdio.h</text>
</g>
<!-- Node40&#45;&gt;Node44 -->
<g id="edge80" class="edge"><title>Node40&#45;&gt;Node44</title>
<path fill="none" stroke="midnightblue" d="M1998.28,-224.083C2002.71,-216.613 2009.16,-205.724 2014.62,-196.52"/>
<polygon fill="midnightblue" stroke="midnightblue" points="2017.73,-198.138 2019.81,-187.751 2011.71,-194.57 2017.73,-198.138"/>
</g>
<!-- Node45 -->
<g id="node45" class="node"><title>Node45</title>
<polygon fill="white" stroke="#bfbfbf" points="2065.5,-168.5 2065.5,-187.5 2112.5,-187.5 2112.5,-168.5 2065.5,-168.5"/>
<text text-anchor="middle" x="2089" y="-175.5" font-family="FreeSans" font-size="10.00">stdlib.h</text>
</g>
<!-- Node40&#45;&gt;Node45 -->
<g id="edge81" class="edge"><title>Node40&#45;&gt;Node45</title>
<path fill="none" stroke="midnightblue" d="M2008.42,-224.324C2023.54,-215.822 2046.82,-202.729 2064.47,-192.797"/>
<polygon fill="midnightblue" stroke="midnightblue" points="2066.61,-195.608 2073.61,-187.655 2063.18,-189.507 2066.61,-195.608"/>
</g>
<!-- Node46 -->
<g id="node46" class="node"><title>Node46</title>
<polygon fill="white" stroke="#bfbfbf" points="2130.5,-168.5 2130.5,-187.5 2177.5,-187.5 2177.5,-168.5 2130.5,-168.5"/>
<text text-anchor="middle" x="2154" y="-175.5" font-family="FreeSans" font-size="10.00">string.h</text>
</g>
<!-- Node40&#45;&gt;Node46 -->
<g id="edge82" class="edge"><title>Node40&#45;&gt;Node46</title>
<path fill="none" stroke="midnightblue" d="M2018.51,-224.444C2046.15,-215.172 2090.37,-200.343 2120.72,-190.161"/>
<polygon fill="midnightblue" stroke="midnightblue" points="2122.07,-193.4 2130.44,-186.902 2119.85,-186.763 2122.07,-193.4"/>
</g>
<!-- Node47 -->
<g id="node47" class="node"><title>Node47</title>
<polygon fill="white" stroke="#bfbfbf" points="2196,-168.5 2196,-187.5 2246,-187.5 2246,-168.5 2196,-168.5"/>
<text text-anchor="middle" x="2221" y="-175.5" font-family="FreeSans" font-size="10.00">assert.h</text>
</g>
<!-- Node40&#45;&gt;Node47 -->
<g id="edge83" class="edge"><title>Node40&#45;&gt;Node47</title>
<path fill="none" stroke="midnightblue" d="M2031.37,-224.468C2068.49,-216.129 2126.61,-202.863 2185.87,-188.227"/>
<polygon fill="midnightblue" stroke="midnightblue" points="2186.91,-191.575 2195.77,-185.771 2185.22,-184.781 2186.91,-191.575"/>
</g>
<!-- Node48 -->
<g id="node48" class="node"><title>Node48</title>
<polygon fill="white" stroke="#bfbfbf" points="2264,-168.5 2264,-187.5 2304,-187.5 2304,-168.5 2264,-168.5"/>
<text text-anchor="middle" x="2284" y="-175.5" font-family="FreeSans" font-size="10.00">string</text>
</g>
<!-- Node40&#45;&gt;Node48 -->
<g id="edge84" class="edge"><title>Node40&#45;&gt;Node48</title>
<path fill="none" stroke="midnightblue" d="M2054.08,-224.82C2105.18,-217.453 2180.12,-205.431 2253.89,-188.014"/>
<polygon fill="midnightblue" stroke="midnightblue" points="2254.9,-191.369 2263.81,-185.635 2253.27,-184.562 2254.9,-191.369"/>
</g>
<!-- Node49 -->
<g id="node49" class="node"><title>Node49</title>
<polygon fill="white" stroke="#bfbfbf" points="2322.5,-168.5 2322.5,-187.5 2375.5,-187.5 2375.5,-168.5 2322.5,-168.5"/>
<text text-anchor="middle" x="2349" y="-175.5" font-family="FreeSans" font-size="10.00">iostream</text>
</g>
<!-- Node40&#45;&gt;Node49 -->
<g id="edge85" class="edge"><title>Node40&#45;&gt;Node49</title>
<path fill="none" stroke="midnightblue" d="M2054.31,-224.733C2133.38,-214.021 2265.45,-195.943 2312.33,-187.835"/>
<polygon fill="midnightblue" stroke="midnightblue" points="2313.13,-191.247 2322.33,-185.999 2311.87,-184.362 2313.13,-191.247"/>
</g>
<!-- Node50 -->
<g id="node50" class="node"><title>Node50</title>
<polygon fill="white" stroke="#bfbfbf" points="2394,-168.5 2394,-187.5 2444,-187.5 2444,-168.5 2394,-168.5"/>
<text text-anchor="middle" x="2419" y="-175.5" font-family="FreeSans" font-size="10.00">sstream</text>
</g>
<!-- Node40&#45;&gt;Node50 -->
<g id="edge86" class="edge"><title>Node40&#45;&gt;Node50</title>
<path fill="none" stroke="midnightblue" d="M2054.08,-225.087C2057.09,-224.715 2060.08,-224.351 2063,-224 2202.76,-207.204 2241.72,-214.164 2383.88,-187.961"/>
<polygon fill="midnightblue" stroke="midnightblue" points="2384.65,-191.376 2393.84,-186.101 2383.37,-184.495 2384.65,-191.376"/>
</g>
<!-- Node41&#45;&gt;Node5 -->
<g id="edge69" class="edge"><title>Node41&#45;&gt;Node5</title>
<path fill="none" stroke="midnightblue" d="M1490.38,-175.08C1322.96,-168.645 788.052,-147.38 616,-132 603.839,-130.913 590.527,-129.282 578.867,-127.705"/>
<polygon fill="midnightblue" stroke="midnightblue" points="579.091,-124.203 568.704,-126.29 578.126,-131.136 579.091,-124.203"/>
</g>
<!-- Node41&#45;&gt;Node15 -->
<g id="edge66" class="edge"><title>Node41&#45;&gt;Node15</title>
<path fill="none" stroke="midnightblue" d="M1591.74,-174.223C1657.27,-169.621 1766.41,-158.178 1796,-132 1825.65,-105.762 1831.89,-56.4854 1832.99,-29.6212"/>
<polygon fill="midnightblue" stroke="midnightblue" points="1836.49,-29.6832 1833.2,-19.6126 1829.49,-29.5378 1836.49,-29.6832"/>
</g>
<!-- Node41&#45;&gt;Node18 -->
<g id="edge68" class="edge"><title>Node41&#45;&gt;Node18</title>
<path fill="none" stroke="midnightblue" d="M1522.07,-168.432C1502.95,-159.658 1472.64,-145.44 1447,-132 1431.13,-123.682 1429.21,-116.987 1412,-112 1070.15,-12.9371 956.007,-167.296 612,-76 593.172,-71.0033 591.422,-62.3313 573,-56 495.133,-29.2386 469.613,-36.7572 385.423,-20.1982"/>
<polygon fill="midnightblue" stroke="midnightblue" points="385.917,-16.7272 375.422,-18.173 384.528,-23.588 385.917,-16.7272"/>
</g>
<!-- Node41&#45;&gt;Node24 -->
<g id="edge67" class="edge"><title>Node41&#45;&gt;Node24</title>
<path fill="none" stroke="midnightblue" d="M1591.6,-174.628C1653.55,-170.54 1753.07,-159.734 1776,-132 1797.52,-105.966 1797.14,-82.3426 1776,-56 1754.91,-29.717 1656.59,-17.8349 1604.92,-13.3286"/>
<polygon fill="midnightblue" stroke="midnightblue" points="1604.9,-9.81521 1594.65,-12.4765 1604.32,-16.7913 1604.9,-9.81521"/>
</g>
<!-- Node41&#45;&gt;Node31 -->
<g id="edge70" class="edge"><title>Node41&#45;&gt;Node31</title>
<path fill="none" stroke="midnightblue" d="M1526.68,-168.303C1501.7,-152.541 1449.68,-117.055 1417,-76 1405.75,-61.8682 1397.05,-43.1366 1391.58,-29.413"/>
<polygon fill="midnightblue" stroke="midnightblue" points="1394.71,-27.7834 1387.9,-19.6643 1388.16,-30.256 1394.71,-27.7834"/>
</g>
<!-- Node41&#45;&gt;Node35 -->
<g id="edge71" class="edge"><title>Node41&#45;&gt;Node35</title>
<path fill="none" stroke="midnightblue" d="M1557.15,-168.351C1577.57,-156.251 1608.43,-133.352 1594,-112 1578.22,-88.6537 1548.11,-77.4177 1523.09,-72.0112"/>
<polygon fill="midnightblue" stroke="midnightblue" points="1523.56,-68.5387 1513.08,-70.092 1522.24,-75.4133 1523.56,-68.5387"/>
</g>
<!-- Node42 -->
<g id="node42" class="node"><title>Node42</title>
<g id="a_node42"><a xlink:href="configmanager_8h.xhtml" target="_top" xlink:title="configmanager.h">
<polygon fill="white" stroke="red" points="1497.5,-112.5 1497.5,-131.5 1584.5,-131.5 1584.5,-112.5 1497.5,-112.5"/>
<text text-anchor="middle" x="1541" y="-119.5" font-family="FreeSans" font-size="10.00">configmanager.h</text>
</a>
</g>
</g>
<!-- Node41&#45;&gt;Node42 -->
<g id="edge72" class="edge"><title>Node41&#45;&gt;Node42</title>
<path fill="none" stroke="midnightblue" d="M1541,-168.083C1541,-161.006 1541,-150.861 1541,-141.986"/>
<polygon fill="midnightblue" stroke="midnightblue" points="1544.5,-141.751 1541,-131.751 1537.5,-141.751 1544.5,-141.751"/>
</g>
<!-- Node42&#45;&gt;Node15 -->
<g id="edge77" class="edge"><title>Node42&#45;&gt;Node15</title>
<path fill="none" stroke="midnightblue" d="M1540.96,-112.319C1541.4,-98.2152 1544.46,-70.4496 1561,-56 1597.13,-24.4336 1743.46,-14.7107 1805.25,-11.9778"/>
<polygon fill="midnightblue" stroke="midnightblue" points="1805.58,-15.4674 1815.43,-11.5579 1805.29,-8.47333 1805.58,-15.4674"/>
</g>
<!-- Node42&#45;&gt;Node16 -->
<g id="edge78" class="edge"><title>Node42&#45;&gt;Node16</title>
<path fill="none" stroke="midnightblue" d="M1548.1,-112.083C1554.24,-104.377 1563.27,-93.0333 1570.74,-83.6531"/>
<polygon fill="midnightblue" stroke="midnightblue" points="1573.54,-85.7542 1577.03,-75.7511 1568.06,-81.3936 1573.54,-85.7542"/>
</g>
<!-- Node42&#45;&gt;Node20 -->
<g id="edge73" class="edge"><title>Node42&#45;&gt;Node20</title>
<path fill="none" stroke="midnightblue" d="M1497.43,-117.691C1472.44,-115.861 1440.47,-113.633 1412,-112 1056.67,-91.6129 966.925,-102.534 612,-76 599.954,-75.0994 586.983,-73.8758 574.86,-72.6211"/>
<polygon fill="midnightblue" stroke="midnightblue" points="575.228,-69.1406 564.914,-71.5663 574.489,-76.1016 575.228,-69.1406"/>
</g>
<!-- Node42&#45;&gt;Node23 -->
<g id="edge75" class="edge"><title>Node42&#45;&gt;Node23</title>
<path fill="none" stroke="midnightblue" d="M1497.06,-116.536C1480.73,-114.967 1462.03,-113.278 1445,-112 1152.81,-90.062 799.618,-73.6663 685.493,-68.6222"/>
<polygon fill="midnightblue" stroke="midnightblue" points="685.349,-65.1126 675.205,-68.1697 685.041,-72.1058 685.349,-65.1126"/>
</g>
<!-- Node42&#45;&gt;Node31 -->
<g id="edge74" class="edge"><title>Node42&#45;&gt;Node31</title>
<path fill="none" stroke="midnightblue" d="M1514.56,-112.472C1493.62,-104.928 1464.28,-92.5463 1442,-76 1423.81,-62.4936 1407.26,-42.3181 1396.73,-28.033"/>
<polygon fill="midnightblue" stroke="midnightblue" points="1399.39,-25.7304 1390.73,-19.6254 1393.69,-29.7978 1399.39,-25.7304"/>
</g>
<!-- Node42&#45;&gt;Node35 -->
<g id="edge76" class="edge"><title>Node42&#45;&gt;Node35</title>
<path fill="none" stroke="midnightblue" d="M1531.52,-112.324C1522.8,-104.341 1509.66,-92.3128 1499.1,-82.6529"/>
<polygon fill="midnightblue" stroke="midnightblue" points="1501.39,-80.0036 1491.65,-75.8339 1496.67,-85.1674 1501.39,-80.0036"/>
</g>
</g>
</svg>
