<?xml version="1.0" encoding="UTF-8" standalone="no"?>
<!DOCTYPE svg PUBLIC "-//W3C//DTD SVG 1.1//EN"
 "http://www.w3.org/Graphics/SVG/1.1/DTD/svg11.dtd">
<!-- Generated by graphviz version 2.38.0 (20140413.2041)
 -->
<!-- Title: cbtool.h Pages: 1 -->
<svg width="316pt" height="140pt"
 viewBox="0.00 0.00 315.50 140.00" xmlns="http://www.w3.org/2000/svg" xmlns:xlink="http://www.w3.org/1999/xlink">
<g id="graph0" class="graph" transform="scale(1 1) rotate(0) translate(4 136)">
<title>cbtool.h</title>
<polygon fill="white" stroke="none" points="-4,4 -4,-136 311.5,-136 311.5,4 -4,4"/>
<!-- Node1 -->
<g id="node1" class="node"><title>Node1</title>
<polygon fill="#bfbfbf" stroke="black" points="126.5,-112.5 126.5,-131.5 176.5,-131.5 176.5,-112.5 126.5,-112.5"/>
<text text-anchor="middle" x="151.5" y="-119.5" font-family="FreeSans" font-size="10.00">cbtool.h</text>
</g>
<!-- Node2 -->
<g id="node2" class="node"><title>Node2</title>
<g id="a_node2"><a xlink:href="toolsmanager_8h.xhtml" target="_top" xlink:title="toolsmanager.h">
<polygon fill="white" stroke="black" points="110.5,-56.5 110.5,-75.5 192.5,-75.5 192.5,-56.5 110.5,-56.5"/>
<text text-anchor="middle" x="151.5" y="-63.5" font-family="FreeSans" font-size="10.00">toolsmanager.h</text>
</a>
</g>
</g>
<!-- Node1&#45;&gt;Node2 -->
<g id="edge1" class="edge"><title>Node1&#45;&gt;Node2</title>
<path fill="none" stroke="midnightblue" d="M151.5,-101.805C151.5,-92.9102 151.5,-82.7798 151.5,-75.7511"/>
<polygon fill="midnightblue" stroke="midnightblue" points="148,-102.083 151.5,-112.083 155,-102.083 148,-102.083"/>
</g>
<!-- Node3 -->
<g id="node3" class="node"><title>Node3</title>
<g id="a_node3"><a xlink:href="configuretoolsdlg_8cpp.xhtml" target="_top" xlink:title="configuretoolsdlg.cpp">
<polygon fill="white" stroke="black" points="0,-0.5 0,-19.5 107,-19.5 107,-0.5 0,-0.5"/>
<text text-anchor="middle" x="53.5" y="-7.5" font-family="FreeSans" font-size="10.00">configuretoolsdlg.cpp</text>
</a>
</g>
</g>
<!-- Node1&#45;&gt;Node3 -->
<g id="edge5" class="edge"><title>Node1&#45;&gt;Node3</title>
<path fill="none" stroke="midnightblue" d="M132.663,-105.632C122.92,-97.3003 111.092,-86.5676 101.5,-76 84.5292,-57.3026 67.6931,-32.7634 59.1924,-19.8412"/>
<polygon fill="midnightblue" stroke="midnightblue" points="130.669,-108.528 140.58,-112.272 135.167,-103.165 130.669,-108.528"/>
</g>
<!-- Node6 -->
<g id="node6" class="node"><title>Node6</title>
<g id="a_node6"><a xlink:href="edittooldlg_8cpp.xhtml" target="_top" xlink:title="edittooldlg.cpp">
<polygon fill="white" stroke="black" points="211,-56.5 211,-75.5 290,-75.5 290,-56.5 211,-56.5"/>
<text text-anchor="middle" x="250.5" y="-63.5" font-family="FreeSans" font-size="10.00">edittooldlg.cpp</text>
</a>
</g>
</g>
<!-- Node1&#45;&gt;Node6 -->
<g id="edge6" class="edge"><title>Node1&#45;&gt;Node6</title>
<path fill="none" stroke="midnightblue" d="M176.337,-107.453C194.614,-97.4835 218.916,-84.2279 234.633,-75.6545"/>
<polygon fill="midnightblue" stroke="midnightblue" points="174.509,-104.463 167.406,-112.324 177.861,-110.608 174.509,-104.463"/>
</g>
<!-- Node2&#45;&gt;Node3 -->
<g id="edge2" class="edge"><title>Node2&#45;&gt;Node3</title>
<path fill="none" stroke="midnightblue" d="M126.914,-51.4526C108.822,-41.4835 84.7654,-28.2279 69.2063,-19.6545"/>
<polygon fill="midnightblue" stroke="midnightblue" points="125.307,-54.5633 135.755,-56.324 128.685,-48.4324 125.307,-54.5633"/>
</g>
<!-- Node4 -->
<g id="node4" class="node"><title>Node4</title>
<g id="a_node4"><a xlink:href="manager_8cpp.xhtml" target="_top" xlink:title="manager.cpp">
<polygon fill="white" stroke="black" points="125.5,-0.5 125.5,-19.5 197.5,-19.5 197.5,-0.5 125.5,-0.5"/>
<text text-anchor="middle" x="161.5" y="-7.5" font-family="FreeSans" font-size="10.00">manager.cpp</text>
</a>
</g>
</g>
<!-- Node2&#45;&gt;Node4 -->
<g id="edge3" class="edge"><title>Node2&#45;&gt;Node4</title>
<path fill="none" stroke="midnightblue" d="M155,-46.1005C156.66,-37.1357 158.563,-26.8579 159.879,-19.7511"/>
<polygon fill="midnightblue" stroke="midnightblue" points="151.531,-45.6128 153.151,-56.083 158.414,-46.8875 151.531,-45.6128"/>
</g>
<!-- Node5 -->
<g id="node5" class="node"><title>Node5</title>
<g id="a_node5"><a xlink:href="toolsmanager_8cpp.xhtml" target="_top" xlink:title="toolsmanager.cpp">
<polygon fill="white" stroke="black" points="215.5,-0.5 215.5,-19.5 307.5,-19.5 307.5,-0.5 215.5,-0.5"/>
<text text-anchor="middle" x="261.5" y="-7.5" font-family="FreeSans" font-size="10.00">toolsmanager.cpp</text>
</a>
</g>
</g>
<!-- Node2&#45;&gt;Node5 -->
<g id="edge4" class="edge"><title>Node2&#45;&gt;Node5</title>
<path fill="none" stroke="midnightblue" d="M178.262,-51.8622C198.659,-41.8492 226.166,-28.3458 243.87,-19.6545"/>
<polygon fill="midnightblue" stroke="midnightblue" points="176.608,-48.7753 169.173,-56.324 179.692,-55.059 176.608,-48.7753"/>
</g>
</g>
</svg>
