<?xml version="1.0" encoding="UTF-8" standalone="no"?>
<!DOCTYPE svg PUBLIC "-//W3C//DTD SVG 1.1//EN"
 "http://www.w3.org/Graphics/SVG/1.1/DTD/svg11.dtd">
<!-- Generated by graphviz version 2.38.0 (20140413.2041)
 -->
<!-- Title: cbworkspace.cpp Pages: 1 -->
<svg width="1654pt" height="252pt"
 viewBox="0.00 0.00 1654.17 252.00" xmlns="http://www.w3.org/2000/svg" xmlns:xlink="http://www.w3.org/1999/xlink">
<g id="graph0" class="graph" transform="scale(1 1) rotate(0) translate(4 248)">
<title>cbworkspace.cpp</title>
<polygon fill="white" stroke="none" points="-4,4 -4,-248 1650.17,-248 1650.17,4 -4,4"/>
<!-- Node1 -->
<g id="node1" class="node"><title>Node1</title>
<polygon fill="#bfbfbf" stroke="black" points="662.173,-224.5 662.173,-243.5 753.173,-243.5 753.173,-224.5 662.173,-224.5"/>
<text text-anchor="middle" x="707.673" y="-231.5" font-family="FreeSans" font-size="10.00">cbworkspace.cpp</text>
</g>
<!-- Node2 -->
<g id="node2" class="node"><title>Node2</title>
<g id="a_node2"><a xlink:href="sdk__precomp_8h" target="_top" xlink:title="sdk_precomp.h">
<polygon fill="white" stroke="black" points="243.673,-168.5 243.673,-187.5 325.673,-187.5 325.673,-168.5 243.673,-168.5"/>
<text text-anchor="middle" x="284.673" y="-175.5" font-family="FreeSans" font-size="10.00">sdk_precomp.h</text>
</a>
</g>
</g>
<!-- Node1&#45;&gt;Node2 -->
<g id="edge1" class="edge"><title>Node1&#45;&gt;Node2</title>
<path fill="none" stroke="midnightblue" d="M662.003,-227.17C582.433,-217.012 418.945,-196.141 335.744,-185.52"/>
<polygon fill="midnightblue" stroke="midnightblue" points="336.127,-182.04 325.764,-184.246 335.24,-188.984 336.127,-182.04"/>
</g>
<!-- Node6 -->
<g id="node6" class="node"><title>Node6</title>
<g id="a_node6"><a xlink:href="cbworkspace_8h" target="_top" xlink:title="cbworkspace.h">
<polygon fill="white" stroke="black" points="567.673,-168.5 567.673,-187.5 647.673,-187.5 647.673,-168.5 567.673,-168.5"/>
<text text-anchor="middle" x="607.673" y="-175.5" font-family="FreeSans" font-size="10.00">cbworkspace.h</text>
</a>
</g>
</g>
<!-- Node1&#45;&gt;Node6 -->
<g id="edge5" class="edge"><title>Node1&#45;&gt;Node6</title>
<path fill="none" stroke="midnightblue" d="M691.606,-224.324C675.715,-215.743 651.166,-202.486 632.714,-192.522"/>
<polygon fill="midnightblue" stroke="midnightblue" points="634.162,-189.326 623.7,-187.655 630.836,-195.486 634.162,-189.326"/>
</g>
<!-- Node9 -->
<g id="node9" class="node"><title>Node9</title>
<g id="a_node9"><a xlink:href="globals_8h" target="_top" xlink:title="globals.h">
<polygon fill="white" stroke="black" points="513.673,-112.5 513.673,-131.5 567.673,-131.5 567.673,-112.5 513.673,-112.5"/>
<text text-anchor="middle" x="540.673" y="-119.5" font-family="FreeSans" font-size="10.00">globals.h</text>
</a>
</g>
</g>
<!-- Node1&#45;&gt;Node9 -->
<g id="edge18" class="edge"><title>Node1&#45;&gt;Node9</title>
<path fill="none" stroke="midnightblue" d="M661.994,-230.592C629.006,-226.44 585.679,-215.638 558.673,-188 546.792,-175.84 542.597,-156.566 541.193,-142.158"/>
<polygon fill="midnightblue" stroke="midnightblue" points="544.668,-141.646 540.57,-131.876 537.681,-142.069 544.668,-141.646"/>
</g>
<!-- Node13 -->
<g id="node13" class="node"><title>Node13</title>
<polygon fill="white" stroke="#bfbfbf" points="213.173,-0.5 213.173,-19.5 264.173,-19.5 264.173,-0.5 213.173,-0.5"/>
<text text-anchor="middle" x="238.673" y="-7.5" font-family="FreeSans" font-size="10.00">wx/intl.h</text>
</g>
<!-- Node1&#45;&gt;Node13 -->
<g id="edge54" class="edge"><title>Node1&#45;&gt;Node13</title>
<path fill="none" stroke="midnightblue" d="M661.867,-231.878C576.851,-229.083 389.242,-219.567 234.673,-188 154.247,-171.575 128.601,-174.992 58.6729,-132 28.9548,-113.729 16.8777,-108.29 3.67294,-76 0.308337,-67.7725 -1.99064,-62.851 3.67294,-56 28.5162,-25.9481 143.295,-15.7724 202.748,-12.4823"/>
<polygon fill="midnightblue" stroke="midnightblue" points="203.021,-15.973 212.827,-11.9614 202.659,-8.98233 203.021,-15.973"/>
</g>
<!-- Node17 -->
<g id="node17" class="node"><title>Node17</title>
<g id="a_node17"><a xlink:href="manager_8h" target="_top" xlink:title="manager.h">
<polygon fill="white" stroke="black" points="638.673,-112.5 638.673,-131.5 700.673,-131.5 700.673,-112.5 638.673,-112.5"/>
<text text-anchor="middle" x="669.673" y="-119.5" font-family="FreeSans" font-size="10.00">manager.h</text>
</a>
</g>
</g>
<!-- Node1&#45;&gt;Node17 -->
<g id="edge19" class="edge"><title>Node1&#45;&gt;Node17</title>
<path fill="none" stroke="midnightblue" d="M704.691,-224.368C698.531,-206.537 684.284,-165.295 675.985,-141.272"/>
<polygon fill="midnightblue" stroke="midnightblue" points="679.214,-139.9 672.641,-131.591 672.598,-142.186 679.214,-139.9"/>
</g>
<!-- Node23 -->
<g id="node23" class="node"><title>Node23</title>
<g id="a_node23"><a xlink:href="configmanager_8h" target="_top" xlink:title="configmanager.h">
<polygon fill="white" stroke="black" points="942.173,-168.5 942.173,-187.5 1029.17,-187.5 1029.17,-168.5 942.173,-168.5"/>
<text text-anchor="middle" x="985.673" y="-175.5" font-family="FreeSans" font-size="10.00">configmanager.h</text>
</a>
</g>
</g>
<!-- Node1&#45;&gt;Node23 -->
<g id="edge31" class="edge"><title>Node1&#45;&gt;Node23</title>
<path fill="none" stroke="midnightblue" d="M751.723,-224.444C800.524,-214.964 879.236,-199.675 931.702,-189.483"/>
<polygon fill="midnightblue" stroke="midnightblue" points="932.68,-192.859 941.829,-187.516 931.345,-185.988 932.68,-192.859"/>
</g>
<!-- Node31 -->
<g id="node31" class="node"><title>Node31</title>
<g id="a_node31"><a xlink:href="logmanager_8h" target="_top" xlink:title="logmanager.h">
<polygon fill="white" stroke="black" points="703.673,-168.5 703.673,-187.5 777.673,-187.5 777.673,-168.5 703.673,-168.5"/>
<text text-anchor="middle" x="740.673" y="-175.5" font-family="FreeSans" font-size="10.00">logmanager.h</text>
</a>
</g>
</g>
<!-- Node1&#45;&gt;Node31 -->
<g id="edge45" class="edge"><title>Node1&#45;&gt;Node31</title>
<path fill="none" stroke="midnightblue" d="M713.122,-224.083C717.687,-216.613 724.341,-205.724 729.966,-196.52"/>
<polygon fill="midnightblue" stroke="midnightblue" points="733.097,-198.109 735.325,-187.751 727.124,-194.459 733.097,-198.109"/>
</g>
<!-- Node33 -->
<g id="node33" class="node"><title>Node33</title>
<g id="a_node33"><a xlink:href="workspaceloader_8h" target="_top" xlink:title="workspaceloader.h">
<polygon fill="white" stroke="black" points="1047.67,-168.5 1047.67,-187.5 1143.67,-187.5 1143.67,-168.5 1047.67,-168.5"/>
<text text-anchor="middle" x="1095.67" y="-175.5" font-family="FreeSans" font-size="10.00">workspaceloader.h</text>
</a>
</g>
</g>
<!-- Node1&#45;&gt;Node33 -->
<g id="edge52" class="edge"><title>Node1&#45;&gt;Node33</title>
<path fill="none" stroke="midnightblue" d="M753.352,-227.041C817.077,-218.667 936.255,-202.782 1037.67,-188 1037.77,-187.985 1037.87,-187.971 1037.98,-187.956"/>
<polygon fill="midnightblue" stroke="midnightblue" points="1038.2,-191.461 1047.58,-186.533 1037.17,-184.537 1038.2,-191.461"/>
</g>
<!-- Node35 -->
<g id="node35" class="node"><title>Node35</title>
<polygon fill="white" stroke="#bfbfbf" points="1162.17,-168.5 1162.17,-187.5 1225.17,-187.5 1225.17,-168.5 1162.17,-168.5"/>
<text text-anchor="middle" x="1193.67" y="-175.5" font-family="FreeSans" font-size="10.00">wx/filedlg.h</text>
</g>
<!-- Node1&#45;&gt;Node35 -->
<g id="edge55" class="edge"><title>Node1&#45;&gt;Node35</title>
<path fill="none" stroke="midnightblue" d="M753.381,-230.124C832.526,-224.765 1000.34,-211.731 1151.99,-187.924"/>
<polygon fill="midnightblue" stroke="midnightblue" points="1152.63,-191.367 1161.96,-186.34 1151.53,-184.453 1152.63,-191.367"/>
</g>
<!-- Node36 -->
<g id="node36" class="node"><title>Node36</title>
<g id="a_node36"><a xlink:href="filefilters_8h" target="_top" xlink:title="filefilters.h">
<polygon fill="white" stroke="black" points="1587.17,-112.5 1587.17,-131.5 1646.17,-131.5 1646.17,-112.5 1587.17,-112.5"/>
<text text-anchor="middle" x="1616.67" y="-119.5" font-family="FreeSans" font-size="10.00">filefilters.h</text>
</a>
</g>
</g>
<!-- Node1&#45;&gt;Node36 -->
<g id="edge56" class="edge"><title>Node1&#45;&gt;Node36</title>
<path fill="none" stroke="midnightblue" d="M753.176,-230.276C844.498,-224.552 1056.54,-209.963 1233.67,-188 1384.09,-169.349 1423.98,-162.185 1576.68,-132.096"/>
<polygon fill="midnightblue" stroke="midnightblue" points="1577.77,-135.449 1586.91,-130.081 1576.42,-128.581 1577.77,-135.449"/>
</g>
<!-- Node3 -->
<g id="node3" class="node"><title>Node3</title>
<g id="a_node3"><a xlink:href="sdk__common_8h" target="_top" xlink:title="sdk_common.h">
<polygon fill="white" stroke="black" points="67.6729,-112.5 67.6729,-131.5 149.673,-131.5 149.673,-112.5 67.6729,-112.5"/>
<text text-anchor="middle" x="108.673" y="-119.5" font-family="FreeSans" font-size="10.00">sdk_common.h</text>
</a>
</g>
</g>
<!-- Node2&#45;&gt;Node3 -->
<g id="edge2" class="edge"><title>Node2&#45;&gt;Node3</title>
<path fill="none" stroke="midnightblue" d="M256.785,-168.444C226.919,-159.28 179.358,-144.688 146.217,-134.519"/>
<polygon fill="midnightblue" stroke="midnightblue" points="147.017,-131.104 136.43,-131.516 144.964,-137.796 147.017,-131.104"/>
</g>
<!-- Node4 -->
<g id="node4" class="node"><title>Node4</title>
<polygon fill="white" stroke="#bfbfbf" points="12.6729,-56.5 12.6729,-75.5 80.6729,-75.5 80.6729,-56.5 12.6729,-56.5"/>
<text text-anchor="middle" x="46.6729" y="-63.5" font-family="FreeSans" font-size="10.00">wx/wxprec.h</text>
</g>
<!-- Node3&#45;&gt;Node4 -->
<g id="edge3" class="edge"><title>Node3&#45;&gt;Node4</title>
<path fill="none" stroke="midnightblue" d="M98.7116,-112.324C89.5464,-104.341 75.7357,-92.3128 64.6448,-82.6529"/>
<polygon fill="midnightblue" stroke="midnightblue" points="66.6551,-79.7624 56.8156,-75.8339 62.0577,-85.041 66.6551,-79.7624"/>
</g>
<!-- Node5 -->
<g id="node5" class="node"><title>Node5</title>
<g id="a_node5"><a xlink:href="prep_8h" target="_top" xlink:title="prep.h">
<polygon fill="white" stroke="black" points="716.173,-0.5 716.173,-19.5 759.173,-19.5 759.173,-0.5 716.173,-0.5"/>
<text text-anchor="middle" x="737.673" y="-7.5" font-family="FreeSans" font-size="10.00">prep.h</text>
</a>
</g>
</g>
<!-- Node3&#45;&gt;Node5 -->
<g id="edge4" class="edge"><title>Node3&#45;&gt;Node5</title>
<path fill="none" stroke="midnightblue" d="M108.326,-112.14C108.301,-97.7792 110.59,-69.6525 127.673,-56 176.108,-17.2908 608.341,-29.9683 706.137,-19.2935"/>
<polygon fill="midnightblue" stroke="midnightblue" points="706.709,-22.7477 716.136,-17.9111 705.75,-15.8137 706.709,-22.7477"/>
</g>
<!-- Node7 -->
<g id="node7" class="node"><title>Node7</title>
<polygon fill="white" stroke="#bfbfbf" points="1164.67,-56.5 1164.67,-75.5 1226.67,-75.5 1226.67,-56.5 1164.67,-56.5"/>
<text text-anchor="middle" x="1195.67" y="-63.5" font-family="FreeSans" font-size="10.00">wx/string.h</text>
</g>
<!-- Node6&#45;&gt;Node7 -->
<g id="edge6" class="edge"><title>Node6&#45;&gt;Node7</title>
<path fill="none" stroke="midnightblue" d="M647.816,-173.431C697.314,-168.18 783.501,-156.248 853.673,-132 871.712,-125.767 873.531,-117.926 891.673,-112 916.164,-104 1076.78,-82.4523 1154.15,-72.3565"/>
<polygon fill="midnightblue" stroke="midnightblue" points="1155.02,-75.7719 1164.49,-71.0105 1154.12,-68.8304 1155.02,-75.7719"/>
</g>
<!-- Node8 -->
<g id="node8" class="node"><title>Node8</title>
<polygon fill="white" stroke="#bfbfbf" points="136.673,-56.5 136.673,-75.5 210.673,-75.5 210.673,-56.5 136.673,-56.5"/>
<text text-anchor="middle" x="173.673" y="-63.5" font-family="FreeSans" font-size="10.00">wx/filename.h</text>
</g>
<!-- Node6&#45;&gt;Node8 -->
<g id="edge7" class="edge"><title>Node6&#45;&gt;Node8</title>
<path fill="none" stroke="midnightblue" d="M573.979,-168.46C496.103,-148.722 303.698,-99.9557 217.118,-78.0115"/>
<polygon fill="midnightblue" stroke="midnightblue" points="217.899,-74.5988 207.346,-75.5345 216.179,-81.3842 217.899,-74.5988"/>
</g>
<!-- Node6&#45;&gt;Node9 -->
<g id="edge8" class="edge"><title>Node6&#45;&gt;Node9</title>
<path fill="none" stroke="midnightblue" d="M596.908,-168.324C586.907,-160.263 571.786,-148.077 559.742,-138.369"/>
<polygon fill="midnightblue" stroke="midnightblue" points="561.616,-135.384 551.634,-131.834 557.223,-140.834 561.616,-135.384"/>
</g>
<!-- Node9&#45;&gt;Node7 -->
<g id="edge10" class="edge"><title>Node9&#45;&gt;Node7</title>
<path fill="none" stroke="midnightblue" d="M567.925,-118.091C585.534,-116.25 608.947,-113.872 629.673,-112 731.794,-102.778 1041.73,-78.8264 1154.27,-70.1755"/>
<polygon fill="midnightblue" stroke="midnightblue" points="1154.83,-73.643 1164.53,-69.3871 1154.29,-66.6635 1154.83,-73.643"/>
</g>
<!-- Node9&#45;&gt;Node8 -->
<g id="edge13" class="edge"><title>Node9&#45;&gt;Node8</title>
<path fill="none" stroke="midnightblue" d="M513.574,-117.45C458.876,-110.216 331.384,-93.009 224.673,-76 223.399,-75.797 222.108,-75.5885 220.806,-75.3757"/>
<polygon fill="midnightblue" stroke="midnightblue" points="221.137,-71.8825 210.696,-73.6822 219.98,-78.7863 221.137,-71.8825"/>
</g>
<!-- Node10 -->
<g id="node10" class="node"><title>Node10</title>
<polygon fill="white" stroke="#bfbfbf" points="595.173,-56.5 595.173,-75.5 638.173,-75.5 638.173,-56.5 595.173,-56.5"/>
<text text-anchor="middle" x="616.673" y="-63.5" font-family="FreeSans" font-size="10.00">vector</text>
</g>
<!-- Node9&#45;&gt;Node10 -->
<g id="edge9" class="edge"><title>Node9&#45;&gt;Node10</title>
<path fill="none" stroke="midnightblue" d="M552.884,-112.324C564.449,-104.107 582.048,-91.6017 595.834,-81.8069"/>
<polygon fill="midnightblue" stroke="midnightblue" points="598.115,-84.4791 604.24,-75.8339 594.061,-78.7729 598.115,-84.4791"/>
</g>
<!-- Node11 -->
<g id="node11" class="node"><title>Node11</title>
<polygon fill="white" stroke="#bfbfbf" points="266.673,-56.5 266.673,-75.5 334.673,-75.5 334.673,-56.5 266.673,-56.5"/>
<text text-anchor="middle" x="300.673" y="-63.5" font-family="FreeSans" font-size="10.00">wx/treectrl.h</text>
</g>
<!-- Node9&#45;&gt;Node11 -->
<g id="edge11" class="edge"><title>Node9&#45;&gt;Node11</title>
<path fill="none" stroke="midnightblue" d="M513.608,-114.91C472.55,-105.672 394.09,-88.0189 344.731,-76.913"/>
<polygon fill="midnightblue" stroke="midnightblue" points="345.49,-73.4964 334.965,-74.7158 343.953,-80.3256 345.49,-73.4964"/>
</g>
<!-- Node12 -->
<g id="node12" class="node"><title>Node12</title>
<polygon fill="white" stroke="#bfbfbf" points="352.673,-56.5 352.673,-75.5 402.673,-75.5 402.673,-56.5 352.673,-56.5"/>
<text text-anchor="middle" x="377.673" y="-63.5" font-family="FreeSans" font-size="10.00">wx/file.h</text>
</g>
<!-- Node9&#45;&gt;Node12 -->
<g id="edge12" class="edge"><title>Node9&#45;&gt;Node12</title>
<path fill="none" stroke="midnightblue" d="M514.845,-112.444C487.262,-103.306 443.383,-88.7689 412.701,-78.6044"/>
<polygon fill="midnightblue" stroke="midnightblue" points="413.438,-75.1614 402.844,-75.339 411.236,-81.8063 413.438,-75.1614"/>
</g>
<!-- Node9&#45;&gt;Node13 -->
<g id="edge14" class="edge"><title>Node9&#45;&gt;Node13</title>
<path fill="none" stroke="midnightblue" d="M513.243,-120.271C449.782,-118.028 295.381,-109.209 257.673,-76 244.596,-64.4827 240.292,-44.5129 238.987,-29.7389"/>
<polygon fill="midnightblue" stroke="midnightblue" points="242.479,-29.4901 238.477,-19.6801 235.487,-29.8445 242.479,-29.4901"/>
</g>
<!-- Node14 -->
<g id="node14" class="node"><title>Node14</title>
<polygon fill="white" stroke="#bfbfbf" points="421.173,-56.5 421.173,-75.5 490.173,-75.5 490.173,-56.5 421.173,-56.5"/>
<text text-anchor="middle" x="455.673" y="-63.5" font-family="FreeSans" font-size="10.00">wx/msgdlg.h</text>
</g>
<!-- Node9&#45;&gt;Node14 -->
<g id="edge15" class="edge"><title>Node9&#45;&gt;Node14</title>
<path fill="none" stroke="midnightblue" d="M527.016,-112.324C513.757,-103.9 493.405,-90.9709 477.827,-81.0741"/>
<polygon fill="midnightblue" stroke="midnightblue" points="479.613,-78.0626 469.296,-75.6545 475.86,-83.9711 479.613,-78.0626"/>
</g>
<!-- Node15 -->
<g id="node15" class="node"><title>Node15</title>
<polygon fill="white" stroke="#bfbfbf" points="508.673,-56.5 508.673,-75.5 576.673,-75.5 576.673,-56.5 508.673,-56.5"/>
<text text-anchor="middle" x="542.673" y="-63.5" font-family="FreeSans" font-size="10.00">wx/bitmap.h</text>
</g>
<!-- Node9&#45;&gt;Node15 -->
<g id="edge16" class="edge"><title>Node9&#45;&gt;Node15</title>
<path fill="none" stroke="midnightblue" d="M541.003,-112.083C541.265,-105.006 541.641,-94.8611 541.97,-85.9865"/>
<polygon fill="midnightblue" stroke="midnightblue" points="545.476,-85.8738 542.349,-75.7511 538.481,-85.6147 545.476,-85.8738"/>
</g>
<!-- Node16 -->
<g id="node16" class="node"><title>Node16</title>
<g id="a_node16"><a xlink:href="settings_8h" target="_top" xlink:title="settings.h">
<polygon fill="white" stroke="black" points="1108.17,-0.5 1108.17,-19.5 1165.17,-19.5 1165.17,-0.5 1108.17,-0.5"/>
<text text-anchor="middle" x="1136.67" y="-7.5" font-family="FreeSans" font-size="10.00">settings.h</text>
</a>
</g>
</g>
<!-- Node9&#45;&gt;Node16 -->
<g id="edge17" class="edge"><title>Node9&#45;&gt;Node16</title>
<path fill="none" stroke="midnightblue" d="M567.777,-118.436C612.228,-113.655 702.947,-101.468 775.673,-76 793.686,-69.6922 795.506,-61.8485 813.673,-56 912.764,-24.0995 1036.13,-14.8094 1097.79,-12.1067"/>
<polygon fill="midnightblue" stroke="midnightblue" points="1098,-15.601 1107.85,-11.7007 1097.72,-8.6067 1098,-15.601"/>
</g>
<!-- Node17&#45;&gt;Node10 -->
<g id="edge21" class="edge"><title>Node17&#45;&gt;Node10</title>
<path fill="none" stroke="midnightblue" d="M660.921,-112.083C653.203,-104.22 641.768,-92.5688 632.456,-83.0813"/>
<polygon fill="midnightblue" stroke="midnightblue" points="634.765,-80.4363 625.262,-75.7511 629.769,-85.3396 634.765,-80.4363"/>
</g>
<!-- Node17&#45;&gt;Node16 -->
<g id="edge24" class="edge"><title>Node17&#45;&gt;Node16</title>
<path fill="none" stroke="midnightblue" d="M700.8,-117.178C775.305,-107.946 959.719,-84.5578 986.673,-76 1005.24,-70.1052 1007.96,-64.1117 1025.67,-56 1051.86,-44.0068 1082.2,-31.8188 1104.54,-23.1574"/>
<polygon fill="midnightblue" stroke="midnightblue" points="1105.81,-26.4162 1113.89,-19.556 1103.3,-19.884 1105.81,-26.4162"/>
</g>
<!-- Node18 -->
<g id="node18" class="node"><title>Node18</title>
<polygon fill="white" stroke="#bfbfbf" points="1035.17,-56.5 1035.17,-75.5 1070.17,-75.5 1070.17,-56.5 1035.17,-56.5"/>
<text text-anchor="middle" x="1052.67" y="-63.5" font-family="FreeSans" font-size="10.00">map</text>
</g>
<!-- Node17&#45;&gt;Node18 -->
<g id="edge20" class="edge"><title>Node17&#45;&gt;Node18</title>
<path fill="none" stroke="midnightblue" d="M701.086,-114.383C705.634,-113.522 710.266,-112.699 714.673,-112 849.921,-90.5549 886.347,-102.62 1020.67,-76 1022.12,-75.7125 1023.6,-75.3924 1025.09,-75.0491"/>
<polygon fill="midnightblue" stroke="midnightblue" points="1026.04,-78.4211 1034.85,-72.5464 1024.3,-71.6406 1026.04,-78.4211"/>
</g>
<!-- Node19 -->
<g id="node19" class="node"><title>Node19</title>
<polygon fill="white" stroke="#bfbfbf" points="635.673,-0.5 635.673,-19.5 697.673,-19.5 697.673,-0.5 635.673,-0.5"/>
<text text-anchor="middle" x="666.673" y="-7.5" font-family="FreeSans" font-size="10.00">wx/event.h</text>
</g>
<!-- Node17&#45;&gt;Node19 -->
<g id="edge22" class="edge"><title>Node17&#45;&gt;Node19</title>
<path fill="none" stroke="midnightblue" d="M669.438,-112.368C668.953,-94.617 667.837,-53.6664 667.18,-29.5974"/>
<polygon fill="midnightblue" stroke="midnightblue" points="670.679,-29.4922 666.907,-19.5914 663.681,-29.6832 670.679,-29.4922"/>
</g>
<!-- Node20 -->
<g id="node20" class="node"><title>Node20</title>
<polygon fill="white" stroke="#bfbfbf" points="822.673,-56.5 822.673,-75.5 894.673,-75.5 894.673,-56.5 822.673,-56.5"/>
<text text-anchor="middle" x="858.673" y="-63.5" font-family="FreeSans" font-size="10.00">wx/cmdline.h</text>
</g>
<!-- Node17&#45;&gt;Node20 -->
<g id="edge23" class="edge"><title>Node17&#45;&gt;Node20</title>
<path fill="none" stroke="midnightblue" d="M699.621,-112.444C731.831,-103.241 783.207,-88.5617 818.815,-78.3879"/>
<polygon fill="midnightblue" stroke="midnightblue" points="820.212,-81.629 828.865,-75.5164 818.289,-74.8984 820.212,-81.629"/>
</g>
<!-- Node21 -->
<g id="node21" class="node"><title>Node21</title>
<g id="a_node21"><a xlink:href="sdk__events_8h" target="_top" xlink:title="sdk_events.h">
<polygon fill="white" stroke="black" points="694.673,-56.5 694.673,-75.5 766.673,-75.5 766.673,-56.5 694.673,-56.5"/>
<text text-anchor="middle" x="730.673" y="-63.5" font-family="FreeSans" font-size="10.00">sdk_events.h</text>
</a>
</g>
</g>
<!-- Node17&#45;&gt;Node21 -->
<g id="edge25" class="edge"><title>Node17&#45;&gt;Node21</title>
<path fill="none" stroke="midnightblue" d="M679.474,-112.324C688.491,-104.341 702.079,-92.3128 712.991,-82.6529"/>
<polygon fill="midnightblue" stroke="midnightblue" points="715.526,-85.083 720.694,-75.8339 710.886,-79.8416 715.526,-85.083"/>
</g>
<!-- Node22 -->
<g id="node22" class="node"><title>Node22</title>
<g id="a_node22"><a xlink:href="cbfunctor_8h" target="_top" xlink:title="cbfunctor.h">
<polygon fill="white" stroke="black" points="913.173,-56.5 913.173,-75.5 978.173,-75.5 978.173,-56.5 913.173,-56.5"/>
<text text-anchor="middle" x="945.673" y="-63.5" font-family="FreeSans" font-size="10.00">cbfunctor.h</text>
</a>
</g>
</g>
<!-- Node17&#45;&gt;Node22 -->
<g id="edge30" class="edge"><title>Node17&#45;&gt;Node22</title>
<path fill="none" stroke="midnightblue" d="M701.137,-114.669C705.677,-113.766 710.294,-112.855 714.673,-112 795.566,-96.2069 818.243,-93.1694 903.295,-76.038"/>
<polygon fill="midnightblue" stroke="midnightblue" points="904.02,-79.4621 913.129,-74.0505 902.634,-72.6008 904.02,-79.4621"/>
</g>
<!-- Node21&#45;&gt;Node5 -->
<g id="edge29" class="edge"><title>Node21&#45;&gt;Node5</title>
<path fill="none" stroke="midnightblue" d="M731.829,-56.083C732.756,-48.9272 734.091,-38.6353 735.25,-29.6911"/>
<polygon fill="midnightblue" stroke="midnightblue" points="738.724,-30.1181 736.539,-19.7511 731.782,-29.2181 738.724,-30.1181"/>
</g>
<!-- Node21&#45;&gt;Node13 -->
<g id="edge27" class="edge"><title>Node21&#45;&gt;Node13</title>
<path fill="none" stroke="midnightblue" d="M694.495,-61.0293C603.346,-51.025 365.092,-24.8752 274.414,-14.9228"/>
<polygon fill="midnightblue" stroke="midnightblue" points="274.678,-11.4308 264.356,-13.8188 273.914,-18.389 274.678,-11.4308"/>
</g>
<!-- Node21&#45;&gt;Node16 -->
<g id="edge28" class="edge"><title>Node21&#45;&gt;Node16</title>
<path fill="none" stroke="midnightblue" d="M766.685,-58.2854C771.385,-57.4775 776.139,-56.6941 780.673,-56 895.588,-38.4071 1032.14,-22.5513 1097.72,-15.2484"/>
<polygon fill="midnightblue" stroke="midnightblue" points="1098.44,-18.6898 1107.99,-14.1095 1097.67,-11.7324 1098.44,-18.6898"/>
</g>
<!-- Node21&#45;&gt;Node19 -->
<g id="edge26" class="edge"><title>Node21&#45;&gt;Node19</title>
<path fill="none" stroke="midnightblue" d="M720.39,-56.324C710.837,-48.2631 696.393,-36.0765 684.889,-26.3695"/>
<polygon fill="midnightblue" stroke="midnightblue" points="687.043,-23.6076 677.143,-19.8339 682.529,-28.9577 687.043,-23.6076"/>
</g>
<!-- Node23&#45;&gt;Node9 -->
<g id="edge35" class="edge"><title>Node23&#45;&gt;Node9</title>
<path fill="none" stroke="midnightblue" d="M941.787,-171.674C854.385,-161.068 659.958,-137.475 578.122,-127.544"/>
<polygon fill="midnightblue" stroke="midnightblue" points="578.149,-124.022 567.8,-126.292 577.306,-130.971 578.149,-124.022"/>
</g>
<!-- Node23&#45;&gt;Node16 -->
<g id="edge34" class="edge"><title>Node23&#45;&gt;Node16</title>
<path fill="none" stroke="midnightblue" d="M1029.32,-169.429C1032.48,-168.929 1035.63,-168.448 1038.67,-168 1102.92,-158.562 1285.68,-180.665 1328.67,-132 1378.92,-75.128 1244.87,-35.3388 1175.4,-19.1213"/>
<polygon fill="midnightblue" stroke="midnightblue" points="1175.77,-15.6169 1165.25,-16.8109 1174.22,-22.4424 1175.77,-15.6169"/>
</g>
<!-- Node23&#45;&gt;Node17 -->
<g id="edge38" class="edge"><title>Node23&#45;&gt;Node17</title>
<path fill="none" stroke="midnightblue" d="M942.066,-169.548C881.053,-159.122 770.987,-140.313 711.143,-130.087"/>
<polygon fill="midnightblue" stroke="midnightblue" points="711.376,-126.576 700.929,-128.341 710.196,-133.476 711.376,-126.576"/>
</g>
<!-- Node23&#45;&gt;Node18 -->
<g id="edge43" class="edge"><title>Node23&#45;&gt;Node18</title>
<path fill="none" stroke="midnightblue" d="M941.942,-176.717C870.469,-174.779 740.845,-164.219 785.673,-112 820.086,-71.9138 969.036,-87.1728 1020.67,-76 1022.15,-75.6796 1023.67,-75.3303 1025.19,-74.9614"/>
<polygon fill="midnightblue" stroke="midnightblue" points="1026.38,-78.2672 1035.16,-72.3406 1024.6,-71.4971 1026.38,-78.2672"/>
</g>
<!-- Node24 -->
<g id="node24" class="node"><title>Node24</title>
<polygon fill="white" stroke="#bfbfbf" points="901.173,-112.5 901.173,-131.5 978.173,-131.5 978.173,-112.5 901.173,-112.5"/>
<text text-anchor="middle" x="939.673" y="-119.5" font-family="FreeSans" font-size="10.00">wx/hashmap.h</text>
</g>
<!-- Node23&#45;&gt;Node24 -->
<g id="edge32" class="edge"><title>Node23&#45;&gt;Node24</title>
<path fill="none" stroke="midnightblue" d="M978.077,-168.083C971.445,-160.298 961.652,-148.801 953.615,-139.367"/>
<polygon fill="midnightblue" stroke="midnightblue" points="956.277,-137.094 947.128,-131.751 950.948,-141.633 956.277,-137.094"/>
</g>
<!-- Node25 -->
<g id="node25" class="node"><title>Node25</title>
<polygon fill="white" stroke="#bfbfbf" points="996.173,-112.5 996.173,-131.5 1067.17,-131.5 1067.17,-112.5 996.173,-112.5"/>
<text text-anchor="middle" x="1031.67" y="-119.5" font-family="FreeSans" font-size="10.00">wx/hashset.h</text>
</g>
<!-- Node23&#45;&gt;Node25 -->
<g id="edge33" class="edge"><title>Node23&#45;&gt;Node25</title>
<path fill="none" stroke="midnightblue" d="M993.269,-168.083C999.9,-160.298 1009.69,-148.801 1017.73,-139.367"/>
<polygon fill="midnightblue" stroke="midnightblue" points="1020.4,-141.633 1024.22,-131.751 1015.07,-137.094 1020.4,-141.633"/>
</g>
<!-- Node26 -->
<g id="node26" class="node"><title>Node26</title>
<polygon fill="white" stroke="#bfbfbf" points="1085.17,-112.5 1085.17,-131.5 1168.17,-131.5 1168.17,-112.5 1085.17,-112.5"/>
<text text-anchor="middle" x="1126.67" y="-119.5" font-family="FreeSans" font-size="10.00">tinyxml/tinystr.h</text>
</g>
<!-- Node23&#45;&gt;Node26 -->
<g id="edge36" class="edge"><title>Node23&#45;&gt;Node26</title>
<path fill="none" stroke="midnightblue" d="M1008.01,-168.444C1031.43,-159.478 1068.41,-145.314 1094.86,-135.183"/>
<polygon fill="midnightblue" stroke="midnightblue" points="1096.35,-138.361 1104.44,-131.516 1093.85,-131.824 1096.35,-138.361"/>
</g>
<!-- Node27 -->
<g id="node27" class="node"><title>Node27</title>
<polygon fill="white" stroke="#bfbfbf" points="1186.17,-112.5 1186.17,-131.5 1273.17,-131.5 1273.17,-112.5 1186.17,-112.5"/>
<text text-anchor="middle" x="1229.67" y="-119.5" font-family="FreeSans" font-size="10.00">tinyxml/tinyxml.h</text>
</g>
<!-- Node23&#45;&gt;Node27 -->
<g id="edge37" class="edge"><title>Node23&#45;&gt;Node27</title>
<path fill="none" stroke="midnightblue" d="M1024.34,-168.444C1066.81,-159.043 1135.1,-143.929 1181.15,-133.739"/>
<polygon fill="midnightblue" stroke="midnightblue" points="1182.18,-137.095 1191.19,-131.516 1180.67,-130.26 1182.18,-137.095"/>
</g>
<!-- Node28 -->
<g id="node28" class="node"><title>Node28</title>
<g id="a_node28"><a xlink:href="base64_8h" target="_top" xlink:title="base64.h">
<polygon fill="white" stroke="black" points="1377.17,-112.5 1377.17,-131.5 1432.17,-131.5 1432.17,-112.5 1377.17,-112.5"/>
<text text-anchor="middle" x="1404.67" y="-119.5" font-family="FreeSans" font-size="10.00">base64.h</text>
</a>
</g>
</g>
<!-- Node23&#45;&gt;Node28 -->
<g id="edge39" class="edge"><title>Node23&#45;&gt;Node28</title>
<path fill="none" stroke="midnightblue" d="M1029.31,-169.385C1032.48,-168.895 1035.62,-168.428 1038.67,-168 1182.15,-147.864 1219.66,-155.208 1362.67,-132 1363.96,-131.792 1365.26,-131.57 1366.57,-131.338"/>
<polygon fill="midnightblue" stroke="midnightblue" points="1367.57,-134.711 1376.73,-129.396 1366.25,-127.836 1367.57,-134.711"/>
</g>
<!-- Node30 -->
<g id="node30" class="node"><title>Node30</title>
<polygon fill="white" stroke="#bfbfbf" points="1291.17,-112.5 1291.17,-131.5 1320.17,-131.5 1320.17,-112.5 1291.17,-112.5"/>
<text text-anchor="middle" x="1305.67" y="-119.5" font-family="FreeSans" font-size="10.00">set</text>
</g>
<!-- Node23&#45;&gt;Node30 -->
<g id="edge44" class="edge"><title>Node23&#45;&gt;Node30</title>
<path fill="none" stroke="midnightblue" d="M1029.33,-169.511C1032.49,-168.992 1035.63,-168.484 1038.67,-168 1143.34,-151.362 1174.17,-158.847 1281.2,-131.587"/>
<polygon fill="midnightblue" stroke="midnightblue" points="1282.3,-134.918 1291.11,-129.022 1280.55,-128.141 1282.3,-134.918"/>
</g>
<!-- Node28&#45;&gt;Node7 -->
<g id="edge41" class="edge"><title>Node28&#45;&gt;Node7</title>
<path fill="none" stroke="midnightblue" d="M1376.92,-113.829C1341.02,-104.553 1278.18,-88.3164 1236.74,-77.6105"/>
<polygon fill="midnightblue" stroke="midnightblue" points="1237.51,-74.195 1226.95,-75.0821 1235.76,-80.9724 1237.51,-74.195"/>
</g>
<!-- Node28&#45;&gt;Node16 -->
<g id="edge42" class="edge"><title>Node28&#45;&gt;Node16</title>
<path fill="none" stroke="midnightblue" d="M1416.03,-112.33C1431.9,-99.195 1457.12,-73.8888 1441.67,-56 1407.75,-16.7077 1250.15,-11.1236 1175.75,-10.7247"/>
<polygon fill="midnightblue" stroke="midnightblue" points="1175.41,-7.22398 1165.4,-10.7001 1175.4,-14.224 1175.41,-7.22398"/>
</g>
<!-- Node29 -->
<g id="node29" class="node"><title>Node29</title>
<polygon fill="white" stroke="#bfbfbf" points="1376.67,-56.5 1376.67,-75.5 1432.67,-75.5 1432.67,-56.5 1376.67,-56.5"/>
<text text-anchor="middle" x="1404.67" y="-63.5" font-family="FreeSans" font-size="10.00">wx/defs.h</text>
</g>
<!-- Node28&#45;&gt;Node29 -->
<g id="edge40" class="edge"><title>Node28&#45;&gt;Node29</title>
<path fill="none" stroke="midnightblue" d="M1404.67,-112.083C1404.67,-105.006 1404.67,-94.8611 1404.67,-85.9865"/>
<polygon fill="midnightblue" stroke="midnightblue" points="1408.17,-85.751 1404.67,-75.7511 1401.17,-85.7511 1408.17,-85.751"/>
</g>
<!-- Node31&#45;&gt;Node17 -->
<g id="edge46" class="edge"><title>Node31&#45;&gt;Node17</title>
<path fill="none" stroke="midnightblue" d="M729.266,-168.324C718.564,-160.185 702.332,-147.839 689.51,-138.087"/>
<polygon fill="midnightblue" stroke="midnightblue" points="691.366,-135.102 681.288,-131.834 687.129,-140.673 691.366,-135.102"/>
</g>
<!-- Node31&#45;&gt;Node18 -->
<g id="edge51" class="edge"><title>Node31&#45;&gt;Node18</title>
<path fill="none" stroke="midnightblue" d="M742.298,-168.164C745.433,-153.838 753.752,-125.759 772.673,-112 862.752,-46.4962 911.723,-99.1263 1020.67,-76 1022.15,-75.6854 1023.67,-75.3408 1025.19,-74.9755"/>
<polygon fill="midnightblue" stroke="midnightblue" points="1026.38,-78.2827 1035.17,-72.3658 1024.61,-71.5106 1026.38,-78.2827"/>
</g>
<!-- Node32 -->
<g id="node32" class="node"><title>Node32</title>
<g id="a_node32"><a xlink:href="logger_8h" target="_top" xlink:title="logger.h">
<polygon fill="white" stroke="black" points="794.673,-112.5 794.673,-131.5 844.673,-131.5 844.673,-112.5 794.673,-112.5"/>
<text text-anchor="middle" x="819.673" y="-119.5" font-family="FreeSans" font-size="10.00">logger.h</text>
</a>
</g>
</g>
<!-- Node31&#45;&gt;Node32 -->
<g id="edge47" class="edge"><title>Node31&#45;&gt;Node32</title>
<path fill="none" stroke="midnightblue" d="M753.366,-168.324C765.574,-159.979 784.251,-147.212 798.676,-137.352"/>
<polygon fill="midnightblue" stroke="midnightblue" points="800.731,-140.187 807.012,-131.655 796.781,-134.408 800.731,-140.187"/>
</g>
<!-- Node32&#45;&gt;Node5 -->
<g id="edge48" class="edge"><title>Node32&#45;&gt;Node5</title>
<path fill="none" stroke="midnightblue" d="M844.797,-114.951C849.401,-113.914 854.173,-112.886 858.673,-112 957.666,-92.4994 1145.19,-131.868 1078.67,-56 1058.42,-32.9023 850.431,-17.8633 769.576,-12.8503"/>
<polygon fill="midnightblue" stroke="midnightblue" points="769.677,-9.35004 759.483,-12.2359 769.252,-16.3371 769.677,-9.35004"/>
</g>
<!-- Node32&#45;&gt;Node7 -->
<g id="edge49" class="edge"><title>Node32&#45;&gt;Node7</title>
<path fill="none" stroke="midnightblue" d="M844.769,-114.804C849.377,-113.782 854.157,-112.797 858.673,-112 987.442,-89.2678 1021.58,-96.8367 1150.67,-76 1151.77,-75.8223 1152.89,-75.637 1154.01,-75.4457"/>
<polygon fill="midnightblue" stroke="midnightblue" points="1155.04,-78.8174 1164.26,-73.5946 1153.79,-71.929 1155.04,-78.8174"/>
</g>
<!-- Node32&#45;&gt;Node16 -->
<g id="edge50" class="edge"><title>Node32&#45;&gt;Node16</title>
<path fill="none" stroke="midnightblue" d="M844.787,-114.899C849.392,-113.867 854.167,-112.855 858.673,-112 965.074,-91.8084 1010.34,-137.222 1099.67,-76 1115.7,-65.0136 1125.64,-44.6552 1131.12,-29.6391"/>
<polygon fill="midnightblue" stroke="midnightblue" points="1134.54,-30.4528 1134.36,-19.8596 1127.89,-28.2562 1134.54,-30.4528"/>
</g>
<!-- Node34 -->
<g id="node34" class="node"><title>Node34</title>
<g id="a_node34"><a xlink:href="ibaseworkspaceloader_8h" target="_top" xlink:title="ibaseworkspaceloader.h">
<polygon fill="white" stroke="black" points="1450.17,-112.5 1450.17,-131.5 1569.17,-131.5 1569.17,-112.5 1450.17,-112.5"/>
<text text-anchor="middle" x="1509.67" y="-119.5" font-family="FreeSans" font-size="10.00">ibaseworkspaceloader.h</text>
</a>
</g>
</g>
<!-- Node33&#45;&gt;Node34 -->
<g id="edge53" class="edge"><title>Node33&#45;&gt;Node34</title>
<path fill="none" stroke="midnightblue" d="M1143.86,-169.28C1146.84,-168.837 1149.8,-168.407 1152.67,-168 1277.16,-150.397 1311.01,-148.434 1439.59,-132.129"/>
<polygon fill="midnightblue" stroke="midnightblue" points="1440.36,-135.559 1449.84,-130.825 1439.47,-128.615 1440.36,-135.559"/>
</g>
<!-- Node36&#45;&gt;Node7 -->
<g id="edge57" class="edge"><title>Node36&#45;&gt;Node7</title>
<path fill="none" stroke="midnightblue" d="M1586.93,-113.783C1583.81,-113.133 1580.69,-112.523 1577.67,-112 1454.7,-90.6344 1307.67,-76.4798 1237.26,-70.3955"/>
<polygon fill="midnightblue" stroke="midnightblue" points="1237.3,-66.8861 1227.04,-69.5225 1236.7,-73.8607 1237.3,-66.8861"/>
</g>
<!-- Node36&#45;&gt;Node16 -->
<g id="edge58" class="edge"><title>Node36&#45;&gt;Node16</title>
<path fill="none" stroke="midnightblue" d="M1599.64,-112.314C1571.2,-98.2026 1511.92,-70.4266 1458.67,-56 1358.76,-28.9309 1236.75,-17.5514 1175.58,-13.2739"/>
<polygon fill="midnightblue" stroke="midnightblue" points="1175.8,-9.78105 1165.59,-12.6012 1175.33,-16.7652 1175.8,-9.78105"/>
</g>
</g>
</svg>
