<?xml version="1.0" encoding="UTF-8" standalone="no"?>
<!DOCTYPE svg PUBLIC "-//W3C//DTD SVG 1.1//EN"
 "http://www.w3.org/Graphics/SVG/1.1/DTD/svg11.dtd">
<!-- Generated by graphviz version 2.40.1 (20161225.0304)
 -->
<!-- Title: cclogger.h Pages: 1 -->
<svg width="926pt" height="308pt"
 viewBox="0.00 0.00 925.50 308.00" xmlns="http://www.w3.org/2000/svg" xmlns:xlink="http://www.w3.org/1999/xlink">
<g id="graph0" class="graph" transform="scale(1 1) rotate(0) translate(4 304)">
<title>cclogger.h</title>
<!-- Node0 -->
<g id="node1" class="node">
<title>Node0</title>
<polygon fill="#bfbfbf" stroke="#000000" points="656.5,-280.5 656.5,-299.5 717.5,-299.5 717.5,-280.5 656.5,-280.5"/>
<text text-anchor="middle" x="687" y="-287.5" font-family="FreeSans" font-size="10.00" fill="#000000">cclogger.h</text>
</g>
<!-- Node1 -->
<g id="node2" class="node">
<title>Node1</title>
<polygon fill="none" stroke="#bfbfbf" points="0,-.5 0,-19.5 62,-19.5 62,-.5 0,-.5"/>
<text text-anchor="middle" x="31" y="-7.5" font-family="FreeSans" font-size="10.00" fill="#000000">wx/string.h</text>
</g>
<!-- Node0&#45;&gt;Node1 -->
<g id="edge1" class="edge">
<title>Node0&#45;&gt;Node1</title>
<path fill="none" stroke="#191970" d="M656.0895,-287.8394C529.2031,-278.5656 55,-239.775 55,-178 55,-178 55,-178 55,-122 55,-88.8465 44.8211,-51.3737 37.7212,-29.2684"/>
<polygon fill="#191970" stroke="#191970" points="41.0264,-28.1157 34.5413,-19.7375 34.3862,-30.3312 41.0264,-28.1157"/>
</g>
<!-- Node2 -->
<g id="node3" class="node">
<title>Node2</title>
<polygon fill="none" stroke="#bfbfbf" points="783.5,-224.5 783.5,-243.5 848.5,-243.5 848.5,-224.5 783.5,-224.5"/>
<text text-anchor="middle" x="816" y="-231.5" font-family="FreeSans" font-size="10.00" fill="#000000">wx/thread.h</text>
</g>
<!-- Node0&#45;&gt;Node2 -->
<g id="edge2" class="edge">
<title>Node0&#45;&gt;Node2</title>
<path fill="none" stroke="#191970" d="M709.1759,-280.3733C729.9766,-271.3435 761.2917,-257.7494 784.6458,-247.6111"/>
<polygon fill="#191970" stroke="#191970" points="786.3343,-250.6938 794.1135,-243.5011 783.5468,-244.2727 786.3343,-250.6938"/>
</g>
<!-- Node3 -->
<g id="node4" class="node">
<title>Node3</title>
<polygon fill="none" stroke="#bfbfbf" points="866.5,-224.5 866.5,-243.5 917.5,-243.5 917.5,-224.5 866.5,-224.5"/>
<text text-anchor="middle" x="892" y="-231.5" font-family="FreeSans" font-size="10.00" fill="#000000">memory</text>
</g>
<!-- Node0&#45;&gt;Node3 -->
<g id="edge3" class="edge">
<title>Node0&#45;&gt;Node3</title>
<path fill="none" stroke="#191970" d="M717.6398,-281.9875C749.9638,-273.4842 802.627,-259.4882 856.656,-244.3393"/>
<polygon fill="#191970" stroke="#191970" points="857.7198,-247.676 866.3986,-241.5991 855.8245,-240.9374 857.7198,-247.676"/>
</g>
<!-- Node4 -->
<g id="node5" class="node">
<title>Node4</title>
<g id="a_node5"><a xlink:href="cbexception_8h" target="_top" xlink:title="cbexception.h">
<polygon fill="none" stroke="#000000" points="151,-112.5 151,-131.5 227,-131.5 227,-112.5 151,-112.5"/>
<text text-anchor="middle" x="189" y="-119.5" font-family="FreeSans" font-size="10.00" fill="#000000">cbexception.h</text>
</a>
</g>
</g>
<!-- Node0&#45;&gt;Node4 -->
<g id="edge4" class="edge">
<title>Node0&#45;&gt;Node4</title>
<path fill="none" stroke="#191970" d="M656.4129,-283.4582C619.9912,-275.3961 557.4865,-260.6975 505,-244 398.739,-210.1954 276.5279,-159.537 220.2909,-135.5372"/>
<polygon fill="#191970" stroke="#191970" points="221.4628,-132.2317 210.8925,-131.512 218.7069,-138.6664 221.4628,-132.2317"/>
</g>
<!-- Node15 -->
<g id="node16" class="node">
<title>Node15</title>
<g id="a_node16"><a xlink:href="logmanager_8h" target="_top" xlink:title="logmanager.h">
<polygon fill="none" stroke="#000000" points="514,-224.5 514,-243.5 588,-243.5 588,-224.5 514,-224.5"/>
<text text-anchor="middle" x="551" y="-231.5" font-family="FreeSans" font-size="10.00" fill="#000000">logmanager.h</text>
</a>
</g>
</g>
<!-- Node0&#45;&gt;Node15 -->
<g id="edge17" class="edge">
<title>Node0&#45;&gt;Node15</title>
<path fill="none" stroke="#191970" d="M663.6208,-280.3733C641.4955,-271.2629 608.0866,-257.5062 583.3981,-247.3404"/>
<polygon fill="#191970" stroke="#191970" points="584.6536,-244.0723 574.0742,-243.5011 581.9883,-250.5451 584.6536,-244.0723"/>
</g>
<!-- Node21 -->
<g id="node22" class="node">
<title>Node21</title>
<g id="a_node22"><a xlink:href="prep_8h" target="_top" xlink:title="prep.h">
<polygon fill="none" stroke="#000000" points="686.5,-56.5 686.5,-75.5 729.5,-75.5 729.5,-56.5 686.5,-56.5"/>
<text text-anchor="middle" x="708" y="-63.5" font-family="FreeSans" font-size="10.00" fill="#000000">prep.h</text>
</a>
</g>
</g>
<!-- Node0&#45;&gt;Node21 -->
<g id="edge36" class="edge">
<title>Node0&#45;&gt;Node21</title>
<path fill="none" stroke="#191970" d="M691.1576,-280.2613C701.3192,-255.8642 727.2239,-189.9265 736,-132 737.3315,-123.2114 738.4,-120.5588 736,-112 733.2122,-102.0584 727.6188,-92.1336 722.1593,-84.0613"/>
<polygon fill="#191970" stroke="#191970" points="724.9048,-81.8849 716.2089,-75.8323 719.2324,-85.9866 724.9048,-81.8849"/>
</g>
<!-- Node4&#45;&gt;Node1 -->
<g id="edge5" class="edge">
<title>Node4&#45;&gt;Node1</title>
<path fill="none" stroke="#191970" d="M188.732,-112.0874C187.8105,-97.8012 184.0279,-71.4472 169,-56 161.968,-48.7718 109.9888,-32.656 71.8879,-21.557"/>
<polygon fill="#191970" stroke="#191970" points="72.6268,-18.1273 62.0481,-18.7117 70.6822,-24.8518 72.6268,-18.1273"/>
</g>
<!-- Node5 -->
<g id="node6" class="node">
<title>Node5</title>
<polygon fill="none" stroke="#bfbfbf" points="109.5,-56.5 109.5,-75.5 160.5,-75.5 160.5,-56.5 109.5,-56.5"/>
<text text-anchor="middle" x="135" y="-63.5" font-family="FreeSans" font-size="10.00" fill="#000000">wx/log.h</text>
</g>
<!-- Node4&#45;&gt;Node5 -->
<g id="edge6" class="edge">
<title>Node4&#45;&gt;Node5</title>
<path fill="none" stroke="#191970" d="M179.5939,-112.2455C171.8507,-104.2155 160.688,-92.6394 151.4682,-83.0781"/>
<polygon fill="#191970" stroke="#191970" points="153.7591,-80.4117 144.2983,-75.6427 148.7202,-85.2706 153.7591,-80.4117"/>
</g>
<!-- Node6 -->
<g id="node7" class="node">
<title>Node6</title>
<g id="a_node7"><a xlink:href="globals_8h" target="_top" xlink:title="globals.h">
<polygon fill="none" stroke="#000000" points="309,-56.5 309,-75.5 363,-75.5 363,-56.5 309,-56.5"/>
<text text-anchor="middle" x="336" y="-63.5" font-family="FreeSans" font-size="10.00" fill="#000000">globals.h</text>
</a>
</g>
</g>
<!-- Node4&#45;&gt;Node6 -->
<g id="edge7" class="edge">
<title>Node4&#45;&gt;Node6</title>
<path fill="none" stroke="#191970" d="M214.2702,-112.3733C238.3966,-103.1822 274.9362,-89.2624 301.6877,-79.0713"/>
<polygon fill="#191970" stroke="#191970" points="302.9607,-82.3318 311.0596,-75.5011 300.4687,-75.7904 302.9607,-82.3318"/>
</g>
<!-- Node6&#45;&gt;Node1 -->
<g id="edge9" class="edge">
<title>Node6&#45;&gt;Node1</title>
<path fill="none" stroke="#191970" d="M308.6807,-61.3745C250.7683,-51.5539 117.7905,-28.9174 72.2037,-20.0606"/>
<polygon fill="#191970" stroke="#191970" points="72.8877,-16.6282 62.3926,-18.0785 71.5015,-23.4896 72.8877,-16.6282"/>
</g>
<!-- Node7 -->
<g id="node8" class="node">
<title>Node7</title>
<polygon fill="none" stroke="#bfbfbf" points="499.5,-.5 499.5,-19.5 542.5,-19.5 542.5,-.5 499.5,-.5"/>
<text text-anchor="middle" x="521" y="-7.5" font-family="FreeSans" font-size="10.00" fill="#000000">vector</text>
</g>
<!-- Node6&#45;&gt;Node7 -->
<g id="edge8" class="edge">
<title>Node6&#45;&gt;Node7</title>
<path fill="none" stroke="#191970" d="M363.243,-58.2122C392.3862,-49.8165 440.1841,-35.8618 489.7889,-20.3198"/>
<polygon fill="#191970" stroke="#191970" points="490.9096,-23.6364 499.3979,-17.296 488.8084,-16.9592 490.9096,-23.6364"/>
</g>
<!-- Node8 -->
<g id="node9" class="node">
<title>Node8</title>
<polygon fill="none" stroke="#bfbfbf" points="166,-.5 166,-19.5 234,-19.5 234,-.5 166,-.5"/>
<text text-anchor="middle" x="200" y="-7.5" font-family="FreeSans" font-size="10.00" fill="#000000">wx/treectrl.h</text>
</g>
<!-- Node6&#45;&gt;Node8 -->
<g id="edge10" class="edge">
<title>Node6&#45;&gt;Node8</title>
<path fill="none" stroke="#191970" d="M312.6208,-56.3733C290.4955,-47.2629 257.0866,-33.5062 232.3981,-23.3404"/>
<polygon fill="#191970" stroke="#191970" points="233.6536,-20.0723 223.0742,-19.5011 230.9883,-26.5451 233.6536,-20.0723"/>
</g>
<!-- Node9 -->
<g id="node10" class="node">
<title>Node9</title>
<polygon fill="none" stroke="#bfbfbf" points="252,-.5 252,-19.5 302,-19.5 302,-.5 252,-.5"/>
<text text-anchor="middle" x="277" y="-7.5" font-family="FreeSans" font-size="10.00" fill="#000000">wx/file.h</text>
</g>
<!-- Node6&#45;&gt;Node9 -->
<g id="edge11" class="edge">
<title>Node6&#45;&gt;Node9</title>
<path fill="none" stroke="#191970" d="M325.723,-56.2455C317.1782,-48.1352 304.8222,-36.4075 294.6915,-26.7919"/>
<polygon fill="#191970" stroke="#191970" points="296.8218,-23.9884 287.1592,-19.6427 292.0028,-29.0655 296.8218,-23.9884"/>
</g>
<!-- Node10 -->
<g id="node11" class="node">
<title>Node10</title>
<polygon fill="none" stroke="#bfbfbf" points="320,-.5 320,-19.5 394,-19.5 394,-.5 320,-.5"/>
<text text-anchor="middle" x="357" y="-7.5" font-family="FreeSans" font-size="10.00" fill="#000000">wx/filename.h</text>
</g>
<!-- Node6&#45;&gt;Node10 -->
<g id="edge12" class="edge">
<title>Node6&#45;&gt;Node10</title>
<path fill="none" stroke="#191970" d="M339.6579,-56.2455C342.4584,-48.7776 346.409,-38.2427 349.8324,-29.1137"/>
<polygon fill="#191970" stroke="#191970" points="353.1499,-30.2349 353.384,-19.6427 346.5955,-27.777 353.1499,-30.2349"/>
</g>
<!-- Node11 -->
<g id="node12" class="node">
<title>Node11</title>
<polygon fill="none" stroke="#bfbfbf" points="560.5,-.5 560.5,-19.5 611.5,-19.5 611.5,-.5 560.5,-.5"/>
<text text-anchor="middle" x="586" y="-7.5" font-family="FreeSans" font-size="10.00" fill="#000000">wx/intl.h</text>
</g>
<!-- Node6&#45;&gt;Node11 -->
<g id="edge13" class="edge">
<title>Node6&#45;&gt;Node11</title>
<path fill="none" stroke="#191970" d="M363.0923,-60.9191C402.3967,-53.3996 477.7043,-38.4363 550.6326,-20.2184"/>
<polygon fill="#191970" stroke="#191970" points="551.5974,-23.5847 560.4377,-17.7452 549.8854,-16.7973 551.5974,-23.5847"/>
</g>
<!-- Node12 -->
<g id="node13" class="node">
<title>Node12</title>
<polygon fill="none" stroke="#bfbfbf" points="412.5,-.5 412.5,-19.5 481.5,-19.5 481.5,-.5 412.5,-.5"/>
<text text-anchor="middle" x="447" y="-7.5" font-family="FreeSans" font-size="10.00" fill="#000000">wx/msgdlg.h</text>
</g>
<!-- Node6&#45;&gt;Node12 -->
<g id="edge14" class="edge">
<title>Node6&#45;&gt;Node12</title>
<path fill="none" stroke="#191970" d="M355.0816,-56.3733C372.7402,-47.4644 399.2053,-34.1127 419.2098,-24.0203"/>
<polygon fill="#191970" stroke="#191970" points="420.8158,-27.1303 428.1674,-19.5011 417.6628,-20.8806 420.8158,-27.1303"/>
</g>
<!-- Node13 -->
<g id="node14" class="node">
<title>Node13</title>
<polygon fill="none" stroke="#bfbfbf" points="80,-.5 80,-19.5 148,-19.5 148,-.5 80,-.5"/>
<text text-anchor="middle" x="114" y="-7.5" font-family="FreeSans" font-size="10.00" fill="#000000">wx/bitmap.h</text>
</g>
<!-- Node6&#45;&gt;Node13 -->
<g id="edge15" class="edge">
<title>Node6&#45;&gt;Node13</title>
<path fill="none" stroke="#191970" d="M308.7784,-59.1333C271.2117,-49.657 203.0366,-32.4597 158.1334,-21.1327"/>
<polygon fill="#191970" stroke="#191970" points="158.9203,-17.7217 148.3679,-18.6694 157.2081,-24.5091 158.9203,-17.7217"/>
</g>
<!-- Node14 -->
<g id="node15" class="node">
<title>Node14</title>
<g id="a_node15"><a xlink:href="settings_8h" target="_top" xlink:title="settings.h">
<polygon fill="none" stroke="#000000" points="629.5,-.5 629.5,-19.5 686.5,-19.5 686.5,-.5 629.5,-.5"/>
<text text-anchor="middle" x="658" y="-7.5" font-family="FreeSans" font-size="10.00" fill="#000000">settings.h</text>
</a>
</g>
</g>
<!-- Node6&#45;&gt;Node14 -->
<g id="edge16" class="edge">
<title>Node6&#45;&gt;Node14</title>
<path fill="none" stroke="#191970" d="M363.29,-62.5571C412.5978,-56.1307 519.9554,-41.1987 619.4751,-20.1691"/>
<polygon fill="#191970" stroke="#191970" points="620.3422,-23.5629 629.3886,-18.0481 618.8776,-16.7178 620.3422,-23.5629"/>
</g>
<!-- Node16 -->
<g id="node17" class="node">
<title>Node16</title>
<g id="a_node17"><a xlink:href="manager_8h" target="_top" xlink:title="manager.h">
<polygon fill="none" stroke="#000000" points="452,-168.5 452,-187.5 514,-187.5 514,-168.5 452,-168.5"/>
<text text-anchor="middle" x="483" y="-175.5" font-family="FreeSans" font-size="10.00" fill="#000000">manager.h</text>
</a>
</g>
</g>
<!-- Node15&#45;&gt;Node16 -->
<g id="edge18" class="edge">
<title>Node15&#45;&gt;Node16</title>
<path fill="none" stroke="#191970" d="M539.1553,-224.2455C529.112,-215.9746 514.5005,-203.9416 502.6996,-194.2232"/>
<polygon fill="#191970" stroke="#191970" points="504.6533,-191.298 494.709,-187.6427 500.2033,-196.7015 504.6533,-191.298"/>
</g>
<!-- Node17 -->
<g id="node18" class="node">
<title>Node17</title>
<polygon fill="none" stroke="#bfbfbf" points="245.5,-112.5 245.5,-131.5 280.5,-131.5 280.5,-112.5 245.5,-112.5"/>
<text text-anchor="middle" x="263" y="-119.5" font-family="FreeSans" font-size="10.00" fill="#000000">map</text>
</g>
<!-- Node15&#45;&gt;Node17 -->
<g id="edge35" class="edge">
<title>Node15&#45;&gt;Node17</title>
<path fill="none" stroke="#191970" d="M526.4453,-224.4509C472.9171,-203.6344 346.0522,-154.2981 290.1984,-132.5772"/>
<polygon fill="#191970" stroke="#191970" points="291.218,-129.2184 280.6293,-128.8559 288.6808,-135.7424 291.218,-129.2184"/>
</g>
<!-- Node23 -->
<g id="node24" class="node">
<title>Node23</title>
<g id="a_node24"><a xlink:href="logger_8h" target="_top" xlink:title="logger.h">
<polygon fill="none" stroke="#000000" points="677,-112.5 677,-131.5 727,-131.5 727,-112.5 677,-112.5"/>
<text text-anchor="middle" x="702" y="-119.5" font-family="FreeSans" font-size="10.00" fill="#000000">logger.h</text>
</a>
</g>
</g>
<!-- Node15&#45;&gt;Node23 -->
<g id="edge31" class="edge">
<title>Node15&#45;&gt;Node23</title>
<path fill="none" stroke="#191970" d="M563.8742,-224.4509C589.9507,-205.1094 649.2221,-161.1465 680.9808,-137.5904"/>
<polygon fill="#191970" stroke="#191970" points="683.2117,-140.2934 689.1584,-131.5249 679.0415,-134.6712 683.2117,-140.2934"/>
</g>
<!-- Node16&#45;&gt;Node4 -->
<g id="edge30" class="edge">
<title>Node16&#45;&gt;Node4</title>
<path fill="none" stroke="#191970" d="M451.7579,-172.4454C406.6271,-164.3642 320.3243,-148.6964 237.0742,-132.1789"/>
<polygon fill="#191970" stroke="#191970" points="237.6937,-128.7336 227.2027,-130.2134 236.3267,-135.5989 237.6937,-128.7336"/>
</g>
<!-- Node16&#45;&gt;Node7 -->
<g id="edge20" class="edge">
<title>Node16&#45;&gt;Node7</title>
<path fill="none" stroke="#191970" d="M480.8786,-168.4475C476.6482,-147.3823 468.7364,-95.6625 483,-56 486.9436,-45.0341 494.7597,-34.8227 502.2831,-26.8204"/>
<polygon fill="#191970" stroke="#191970" points="504.9193,-29.1354 509.5547,-19.6084 499.9899,-24.1653 504.9193,-29.1354"/>
</g>
<!-- Node16&#45;&gt;Node14 -->
<g id="edge23" class="edge">
<title>Node16&#45;&gt;Node14</title>
<path fill="none" stroke="#191970" d="M514.0518,-172.0525C552.3253,-164.1039 614.2458,-149.028 630,-132 656.085,-103.806 659.4977,-56.3874 659.1108,-29.7305"/>
<polygon fill="#191970" stroke="#191970" points="662.6074,-29.5683 658.7674,-19.6939 655.6115,-29.8077 662.6074,-29.5683"/>
</g>
<!-- Node16&#45;&gt;Node17 -->
<g id="edge19" class="edge">
<title>Node16&#45;&gt;Node17</title>
<path fill="none" stroke="#191970" d="M451.9408,-171.8054C415.4203,-164.2592 352.8603,-150.5154 290.2534,-131.7937"/>
<polygon fill="#191970" stroke="#191970" points="291.2002,-128.4235 280.6149,-128.8713 289.1691,-135.1224 291.2002,-128.4235"/>
</g>
<!-- Node18 -->
<g id="node19" class="node">
<title>Node18</title>
<polygon fill="none" stroke="#bfbfbf" points="492,-56.5 492,-75.5 554,-75.5 554,-56.5 492,-56.5"/>
<text text-anchor="middle" x="523" y="-63.5" font-family="FreeSans" font-size="10.00" fill="#000000">wx/event.h</text>
</g>
<!-- Node16&#45;&gt;Node18 -->
<g id="edge21" class="edge">
<title>Node16&#45;&gt;Node18</title>
<path fill="none" stroke="#191970" d="M486.4104,-168.4509C492.9933,-150.0186 507.5624,-109.2254 516.1989,-85.043"/>
<polygon fill="#191970" stroke="#191970" points="519.5309,-86.1195 519.5983,-75.5249 512.9387,-83.7651 519.5309,-86.1195"/>
</g>
<!-- Node19 -->
<g id="node20" class="node">
<title>Node19</title>
<polygon fill="none" stroke="#bfbfbf" points="299,-112.5 299,-131.5 371,-131.5 371,-112.5 299,-112.5"/>
<text text-anchor="middle" x="335" y="-119.5" font-family="FreeSans" font-size="10.00" fill="#000000">wx/cmdline.h</text>
</g>
<!-- Node16&#45;&gt;Node19 -->
<g id="edge22" class="edge">
<title>Node16&#45;&gt;Node19</title>
<path fill="none" stroke="#191970" d="M457.5579,-168.3733C433.2674,-159.1822 396.4792,-145.2624 369.5457,-135.0713"/>
<polygon fill="#191970" stroke="#191970" points="370.7016,-131.7666 360.1101,-131.5011 368.2243,-138.3136 370.7016,-131.7666"/>
</g>
<!-- Node20 -->
<g id="node21" class="node">
<title>Node20</title>
<g id="a_node21"><a xlink:href="sdk__events_8h" target="_top" xlink:title="sdk_events.h">
<polygon fill="none" stroke="#000000" points="549,-112.5 549,-131.5 621,-131.5 621,-112.5 549,-112.5"/>
<text text-anchor="middle" x="585" y="-119.5" font-family="FreeSans" font-size="10.00" fill="#000000">sdk_events.h</text>
</a>
</g>
</g>
<!-- Node16&#45;&gt;Node20 -->
<g id="edge24" class="edge">
<title>Node16&#45;&gt;Node20</title>
<path fill="none" stroke="#191970" d="M500.767,-168.2455C516.7095,-159.4928 540.3259,-146.527 558.4989,-136.5496"/>
<polygon fill="#191970" stroke="#191970" points="560.3552,-139.5233 567.4366,-131.6427 556.9863,-133.3873 560.3552,-139.5233"/>
</g>
<!-- Node22 -->
<g id="node23" class="node">
<title>Node22</title>
<g id="a_node23"><a xlink:href="cbfunctor_8h" target="_top" xlink:title="cbfunctor.h">
<polygon fill="none" stroke="#000000" points="389.5,-112.5 389.5,-131.5 454.5,-131.5 454.5,-112.5 389.5,-112.5"/>
<text text-anchor="middle" x="422" y="-119.5" font-family="FreeSans" font-size="10.00" fill="#000000">cbfunctor.h</text>
</a>
</g>
</g>
<!-- Node16&#45;&gt;Node22 -->
<g id="edge29" class="edge">
<title>Node16&#45;&gt;Node22</title>
<path fill="none" stroke="#191970" d="M472.3746,-168.2455C463.4527,-160.0549 450.512,-148.1749 439.9808,-138.5069"/>
<polygon fill="#191970" stroke="#191970" points="442.2371,-135.8271 432.5036,-131.6427 437.5032,-140.9837 442.2371,-135.8271"/>
</g>
<!-- Node20&#45;&gt;Node11 -->
<g id="edge26" class="edge">
<title>Node20&#45;&gt;Node11</title>
<path fill="none" stroke="#191970" d="M585.0853,-112.4509C585.2484,-94.184 585.6075,-53.9553 585.8241,-29.6976"/>
<polygon fill="#191970" stroke="#191970" points="589.3254,-29.5558 585.915,-19.5249 582.3257,-29.4932 589.3254,-29.5558"/>
</g>
<!-- Node20&#45;&gt;Node14 -->
<g id="edge27" class="edge">
<title>Node20&#45;&gt;Node14</title>
<path fill="none" stroke="#191970" d="M591.2239,-112.4509C603.3995,-93.7707 630.5443,-52.1238 646.2182,-28.0761"/>
<polygon fill="#191970" stroke="#191970" points="649.2635,-29.8137 651.7918,-19.5249 643.3992,-25.9913 649.2635,-29.8137"/>
</g>
<!-- Node20&#45;&gt;Node18 -->
<g id="edge25" class="edge">
<title>Node20&#45;&gt;Node18</title>
<path fill="none" stroke="#191970" d="M574.2004,-112.2455C565.1322,-104.0549 551.9794,-92.1749 541.2755,-82.5069"/>
<polygon fill="#191970" stroke="#191970" points="543.4429,-79.7482 533.6758,-75.6427 538.7509,-84.9429 543.4429,-79.7482"/>
</g>
<!-- Node20&#45;&gt;Node21 -->
<g id="edge28" class="edge">
<title>Node20&#45;&gt;Node21</title>
<path fill="none" stroke="#191970" d="M606.1445,-112.3733C625.8892,-103.3838 655.5698,-89.8706 677.8055,-79.7471"/>
<polygon fill="#191970" stroke="#191970" points="679.4806,-82.8302 687.1315,-75.5011 676.58,-76.4594 679.4806,-82.8302"/>
</g>
<!-- Node23&#45;&gt;Node1 -->
<g id="edge33" class="edge">
<title>Node23&#45;&gt;Node1</title>
<path fill="none" stroke="#191970" d="M676.6998,-118.3012C662.9078,-116.3315 645.5299,-113.9251 630,-112 483.5839,-93.8498 445.3027,-101.5781 300,-76 218.3068,-61.6193 124.5701,-36.6519 72.1126,-21.8945"/>
<polygon fill="#191970" stroke="#191970" points="72.7626,-18.4411 62.1873,-19.0853 70.8562,-25.1765 72.7626,-18.4411"/>
</g>
<!-- Node23&#45;&gt;Node14 -->
<g id="edge34" class="edge">
<title>Node23&#45;&gt;Node14</title>
<path fill="none" stroke="#191970" d="M714.2418,-112.3258C729.0282,-99.4141 750.5648,-75.8673 739,-56 729.6146,-39.8768 712.2399,-28.9438 695.9819,-21.7973"/>
<polygon fill="#191970" stroke="#191970" points="697.1907,-18.5109 686.6074,-18.0165 694.5724,-25.0028 697.1907,-18.5109"/>
</g>
<!-- Node23&#45;&gt;Node21 -->
<g id="edge32" class="edge">
<title>Node23&#45;&gt;Node21</title>
<path fill="none" stroke="#191970" d="M703.0451,-112.2455C703.828,-104.9382 704.9256,-94.6944 705.8888,-85.7046"/>
<polygon fill="#191970" stroke="#191970" points="709.3815,-85.9587 706.9669,-75.6427 702.4214,-85.2129 709.3815,-85.9587"/>
</g>
</g>
</svg>
