<?xml version="1.0" encoding="UTF-8" standalone="no"?>
<!DOCTYPE svg PUBLIC "-//W3C//DTD SVG 1.1//EN"
 "http://www.w3.org/Graphics/SVG/1.1/DTD/svg11.dtd">
<!-- Generated by graphviz version 2.38.0 (20140413.2041)
 -->
<!-- Title: cclogger.h Pages: 1 -->
<svg width="1623pt" height="420pt"
 viewBox="0.00 0.00 1622.50 420.00" xmlns="http://www.w3.org/2000/svg" xmlns:xlink="http://www.w3.org/1999/xlink">
<g id="graph0" class="graph" transform="scale(1 1) rotate(0) translate(4 416)">
<title>cclogger.h</title>
<!-- Node24 -->
<g id="node1" class="node"><title>Node24</title>
<polygon fill="#bfbfbf" stroke="black" points="1209.5,-392.5 1209.5,-411.5 1270.5,-411.5 1270.5,-392.5 1209.5,-392.5"/>
<text text-anchor="middle" x="1240" y="-399.5" font-family="FreeSans" font-size="10.00">cclogger.h</text>
</g>
<!-- Node25 -->
<g id="node2" class="node"><title>Node25</title>
<g id="a_node2"><a xlink:href="parserthread_8h" target="_top" xlink:title="parserthread.h">
<polygon fill="none" stroke="black" points="432.5,-336.5 432.5,-355.5 509.5,-355.5 509.5,-336.5 432.5,-336.5"/>
<text text-anchor="middle" x="471" y="-343.5" font-family="FreeSans" font-size="10.00">parserthread.h</text>
</a>
</g>
</g>
<!-- Node24&#45;&gt;Node25 -->
<g id="edge1" class="edge"><title>Node24&#45;&gt;Node25</title>
<path fill="none" stroke="midnightblue" d="M1199.15,-398.131C1065.2,-388.725 640.413,-358.896 509.673,-349.716"/>
<polygon fill="midnightblue" stroke="midnightblue" points="1199.16,-401.641 1209.38,-398.85 1199.65,-394.658 1199.16,-401.641"/>
</g>
<!-- Node30 -->
<g id="node6" class="node"><title>Node30</title>
<g id="a_node6"><a xlink:href="codecompletion_8cpp" target="_top" xlink:title="codecompletion.cpp">
<polygon fill="none" stroke="black" points="843.5,-56.5 843.5,-75.5 946.5,-75.5 946.5,-56.5 843.5,-56.5"/>
<text text-anchor="middle" x="895" y="-63.5" font-family="FreeSans" font-size="10.00">codecompletion.cpp</text>
</a>
</g>
</g>
<!-- Node24&#45;&gt;Node30 -->
<g id="edge33" class="edge"><title>Node24&#45;&gt;Node30</title>
<path fill="none" stroke="midnightblue" d="M1199.41,-395.276C1173.36,-389.558 1140.65,-378.242 1120,-356 1099.52,-333.941 1101,-321.098 1101,-291 1101,-291 1101,-291 1101,-177 1101,-107.164 1007.74,-81.5064 946.717,-72.1929"/>
<polygon fill="midnightblue" stroke="midnightblue" points="1198.9,-398.743 1209.4,-397.269 1200.28,-391.878 1198.9,-398.743"/>
</g>
<!-- Node50 -->
<g id="node17" class="node"><title>Node50</title>
<g id="a_node17"><a xlink:href="parserthreadedtask_8cpp" target="_top" xlink:title="parserthreadedtask.cpp">
<polygon fill="none" stroke="black" points="957,-168.5 957,-187.5 1073,-187.5 1073,-168.5 957,-168.5"/>
<text text-anchor="middle" x="1015" y="-175.5" font-family="FreeSans" font-size="10.00">parserthreadedtask.cpp</text>
</a>
</g>
</g>
<!-- Node24&#45;&gt;Node50 -->
<g id="edge37" class="edge"><title>Node24&#45;&gt;Node50</title>
<path fill="none" stroke="midnightblue" d="M1199.17,-398.608C1165.31,-394.582 1117.89,-383.94 1087,-356 1034.35,-308.38 1019.41,-216.688 1015.93,-187.884"/>
<polygon fill="midnightblue" stroke="midnightblue" points="1198.9,-402.098 1209.2,-399.657 1199.62,-395.136 1198.9,-402.098"/>
</g>
<!-- Node53 -->
<g id="node20" class="node"><title>Node53</title>
<g id="a_node20"><a xlink:href="nativeparser__base_8cpp" target="_top" xlink:title="nativeparser_base.cpp">
<polygon fill="none" stroke="black" points="1129,-336.5 1129,-355.5 1241,-355.5 1241,-336.5 1129,-336.5"/>
<text text-anchor="middle" x="1185" y="-343.5" font-family="FreeSans" font-size="10.00">nativeparser_base.cpp</text>
</a>
</g>
</g>
<!-- Node24&#45;&gt;Node53 -->
<g id="edge34" class="edge"><title>Node24&#45;&gt;Node53</title>
<path fill="none" stroke="midnightblue" d="M1223.71,-385.002C1213.96,-375.433 1201.95,-363.639 1193.91,-355.751"/>
<polygon fill="midnightblue" stroke="midnightblue" points="1221.33,-387.575 1230.92,-392.083 1226.23,-382.58 1221.33,-387.575"/>
</g>
<!-- Node54 -->
<g id="node21" class="node"><title>Node54</title>
<g id="a_node21"><a xlink:href="cclogger_8cpp" target="_top" xlink:title="cclogger.cpp">
<polygon fill="none" stroke="black" points="1259.5,-336.5 1259.5,-355.5 1330.5,-355.5 1330.5,-336.5 1259.5,-336.5"/>
<text text-anchor="middle" x="1295" y="-343.5" font-family="FreeSans" font-size="10.00">cclogger.cpp</text>
</a>
</g>
</g>
<!-- Node24&#45;&gt;Node54 -->
<g id="edge35" class="edge"><title>Node24&#45;&gt;Node54</title>
<path fill="none" stroke="midnightblue" d="M1256.29,-385.002C1266.04,-375.433 1278.05,-363.639 1286.09,-355.751"/>
<polygon fill="midnightblue" stroke="midnightblue" points="1253.77,-382.58 1249.08,-392.083 1258.67,-387.575 1253.77,-382.58"/>
</g>
<!-- Node55 -->
<g id="node22" class="node"><title>Node55</title>
<g id="a_node22"><a xlink:href="expression_8cpp" target="_top" xlink:title="expression.cpp">
<polygon fill="none" stroke="black" points="1349,-336.5 1349,-355.5 1429,-355.5 1429,-336.5 1349,-336.5"/>
<text text-anchor="middle" x="1389" y="-343.5" font-family="FreeSans" font-size="10.00">expression.cpp</text>
</a>
</g>
</g>
<!-- Node24&#45;&gt;Node55 -->
<g id="edge36" class="edge"><title>Node24&#45;&gt;Node55</title>
<path fill="none" stroke="midnightblue" d="M1273.37,-388.906C1301.38,-378.754 1340.7,-364.506 1365.5,-355.516"/>
<polygon fill="midnightblue" stroke="midnightblue" points="1271.82,-385.746 1263.61,-392.444 1274.2,-392.327 1271.82,-385.746"/>
</g>
<!-- Node56 -->
<g id="node23" class="node"><title>Node56</title>
<g id="a_node23"><a xlink:href="tokenizer_8cpp" target="_top" xlink:title="tokenizer.cpp">
<polygon fill="none" stroke="black" points="1447,-336.5 1447,-355.5 1521,-355.5 1521,-336.5 1447,-336.5"/>
<text text-anchor="middle" x="1484" y="-343.5" font-family="FreeSans" font-size="10.00">tokenizer.cpp</text>
</a>
</g>
</g>
<!-- Node24&#45;&gt;Node56 -->
<g id="edge38" class="edge"><title>Node24&#45;&gt;Node56</title>
<path fill="none" stroke="midnightblue" d="M1280.91,-391.946C1327.3,-381.68 1402.27,-365.088 1446.98,-355.193"/>
<polygon fill="midnightblue" stroke="midnightblue" points="1279.91,-388.583 1270.9,-394.161 1281.42,-395.417 1279.91,-388.583"/>
</g>
<!-- Node57 -->
<g id="node24" class="node"><title>Node57</title>
<g id="a_node24"><a xlink:href="tokentree_8cpp" target="_top" xlink:title="tokentree.cpp">
<polygon fill="none" stroke="black" points="1539.5,-336.5 1539.5,-355.5 1614.5,-355.5 1614.5,-336.5 1539.5,-336.5"/>
<text text-anchor="middle" x="1577" y="-343.5" font-family="FreeSans" font-size="10.00">tokentree.cpp</text>
</a>
</g>
</g>
<!-- Node24&#45;&gt;Node57 -->
<g id="edge39" class="edge"><title>Node24&#45;&gt;Node57</title>
<path fill="none" stroke="midnightblue" d="M1280.43,-395.185C1336.54,-387.012 1441.15,-371.395 1530,-356 1533.03,-355.475 1536.16,-354.914 1539.31,-354.338"/>
<polygon fill="midnightblue" stroke="midnightblue" points="1279.93,-391.722 1270.54,-396.623 1280.94,-398.649 1279.93,-391.722"/>
</g>
<!-- Node26 -->
<g id="node3" class="node"><title>Node26</title>
<g id="a_node3"><a xlink:href="parser_8h" target="_top" xlink:title="parser.h">
<polygon fill="none" stroke="black" points="413,-224.5 413,-243.5 463,-243.5 463,-224.5 413,-224.5"/>
<text text-anchor="middle" x="438" y="-231.5" font-family="FreeSans" font-size="10.00">parser.h</text>
</a>
</g>
</g>
<!-- Node25&#45;&gt;Node26 -->
<g id="edge2" class="edge"><title>Node25&#45;&gt;Node26</title>
<path fill="none" stroke="midnightblue" d="M465.25,-326.771C462.692,-318.594 459.662,-308.823 457,-300 450.956,-279.965 444.131,-256.366 440.533,-243.846"/>
<polygon fill="midnightblue" stroke="midnightblue" points="461.935,-327.896 468.272,-336.387 468.613,-325.797 461.935,-327.896"/>
</g>
<!-- Node49 -->
<g id="node16" class="node"><title>Node49</title>
<g id="a_node16"><a xlink:href="parserthread_8cpp" target="_top" xlink:title="parserthread.cpp">
<polygon fill="none" stroke="black" points="0,-168.5 0,-187.5 88,-187.5 88,-168.5 0,-168.5"/>
<text text-anchor="middle" x="44" y="-175.5" font-family="FreeSans" font-size="10.00">parserthread.cpp</text>
</a>
</g>
</g>
<!-- Node25&#45;&gt;Node49 -->
<g id="edge32" class="edge"><title>Node25&#45;&gt;Node49</title>
<path fill="none" stroke="midnightblue" d="M439.601,-332.793C357.22,-300.767 136.387,-214.916 65.9264,-187.524"/>
<polygon fill="midnightblue" stroke="midnightblue" points="438.353,-336.063 448.942,-336.425 440.89,-329.539 438.353,-336.063"/>
</g>
<!-- Node51 -->
<g id="node18" class="node"><title>Node51</title>
<g id="a_node18"><a xlink:href="parser__base_8h" target="_top" xlink:title="parser_base.h">
<polygon fill="none" stroke="black" points="466,-280.5 466,-299.5 542,-299.5 542,-280.5 466,-280.5"/>
<text text-anchor="middle" x="504" y="-287.5" font-family="FreeSans" font-size="10.00">parser_base.h</text>
</a>
</g>
</g>
<!-- Node25&#45;&gt;Node51 -->
<g id="edge29" class="edge"><title>Node25&#45;&gt;Node51</title>
<path fill="none" stroke="midnightblue" d="M481.832,-327.275C487.472,-318.045 494.118,-307.17 498.652,-299.751"/>
<polygon fill="midnightblue" stroke="midnightblue" points="478.677,-325.725 476.449,-336.083 484.65,-329.375 478.677,-325.725"/>
</g>
<!-- Node27 -->
<g id="node4" class="node"><title>Node27</title>
<g id="a_node4"><a xlink:href="nativeparser_8h" target="_top" xlink:title="nativeparser.h">
<polygon fill="none" stroke="red" points="367,-168.5 367,-187.5 443,-187.5 443,-168.5 367,-168.5"/>
<text text-anchor="middle" x="405" y="-175.5" font-family="FreeSans" font-size="10.00">nativeparser.h</text>
</a>
</g>
</g>
<!-- Node26&#45;&gt;Node27 -->
<g id="edge3" class="edge"><title>Node26&#45;&gt;Node27</title>
<path fill="none" stroke="midnightblue" d="M427.168,-215.275C421.528,-206.045 414.882,-195.17 410.348,-187.751"/>
<polygon fill="midnightblue" stroke="midnightblue" points="424.35,-217.375 432.551,-224.083 430.323,-213.725 424.35,-217.375"/>
</g>
<!-- Node28 -->
<g id="node5" class="node"><title>Node28</title>
<g id="a_node5"><a xlink:href="ccoptionsdlg_8h" target="_top" xlink:title="ccoptionsdlg.h">
<polygon fill="none" stroke="red" points="823,-112.5 823,-131.5 901,-131.5 901,-112.5 823,-112.5"/>
<text text-anchor="middle" x="862" y="-119.5" font-family="FreeSans" font-size="10.00">ccoptionsdlg.h</text>
</a>
</g>
</g>
<!-- Node26&#45;&gt;Node28 -->
<g id="edge14" class="edge"><title>Node26&#45;&gt;Node28</title>
<path fill="none" stroke="midnightblue" d="M473.206,-224.484C548.099,-216.646 842.497,-219.191 871,-188 885.141,-172.526 874.305,-145.717 867.091,-131.861"/>
<polygon fill="midnightblue" stroke="midnightblue" points="472.59,-221.035 463.146,-225.838 473.523,-227.973 472.59,-221.035"/>
</g>
<!-- Node26&#45;&gt;Node30 -->
<g id="edge22" class="edge"><title>Node26&#45;&gt;Node30</title>
<path fill="none" stroke="midnightblue" d="M473.318,-224.27C579.643,-210.276 817.291,-242.409 889,-188 916.917,-166.818 915.613,-146.591 910,-112 907.889,-98.994 902.558,-84.6674 898.856,-75.7514"/>
<polygon fill="midnightblue" stroke="midnightblue" points="472.5,-220.855 463.144,-225.827 473.558,-227.774 472.5,-220.855"/>
</g>
<!-- Node35 -->
<g id="node7" class="node"><title>Node35</title>
<g id="a_node7"><a xlink:href="ccoptionsprjdlg_8h" target="_top" xlink:title="ccoptionsprjdlg.h">
<polygon fill="none" stroke="red" points="448.5,-112.5 448.5,-131.5 537.5,-131.5 537.5,-112.5 448.5,-112.5"/>
<text text-anchor="middle" x="493" y="-119.5" font-family="FreeSans" font-size="10.00">ccoptionsprjdlg.h</text>
</a>
</g>
</g>
<!-- Node26&#45;&gt;Node35 -->
<g id="edge16" class="edge"><title>Node26&#45;&gt;Node35</title>
<path fill="none" stroke="midnightblue" d="M446.84,-215.32C458.815,-191.37 479.726,-149.548 488.704,-131.591"/>
<polygon fill="midnightblue" stroke="midnightblue" points="443.657,-213.859 442.316,-224.368 449.918,-216.989 443.657,-213.859"/>
</g>
<!-- Node37 -->
<g id="node8" class="node"><title>Node37</title>
<g id="a_node8"><a xlink:href="classbrowserbuilderthread_8h" target="_top" xlink:title="classbrowserbuilderthread.h">
<polygon fill="none" stroke="red" points="220,-112.5 220,-131.5 354,-131.5 354,-112.5 220,-112.5"/>
<text text-anchor="middle" x="287" y="-119.5" font-family="FreeSans" font-size="10.00">classbrowserbuilderthread.h</text>
</a>
</g>
</g>
<!-- Node26&#45;&gt;Node37 -->
<g id="edge20" class="edge"><title>Node26&#45;&gt;Node37</title>
<path fill="none" stroke="midnightblue" d="M402.774,-225.405C378.71,-218.783 347.272,-207.158 325,-188 306.766,-172.315 295.112,-145.598 290,-131.811"/>
<polygon fill="midnightblue" stroke="midnightblue" points="402.029,-228.828 412.587,-227.944 403.783,-222.051 402.029,-228.828"/>
</g>
<!-- Node38 -->
<g id="node9" class="node"><title>Node38</title>
<g id="a_node9"><a xlink:href="classbrowser_8h" target="_top" xlink:title="classbrowser.h">
<polygon fill="none" stroke="red" points="175.5,-56.5 175.5,-75.5 254.5,-75.5 254.5,-56.5 175.5,-56.5"/>
<text text-anchor="middle" x="215" y="-63.5" font-family="FreeSans" font-size="10.00">classbrowser.h</text>
</a>
</g>
</g>
<!-- Node26&#45;&gt;Node38 -->
<g id="edge21" class="edge"><title>Node26&#45;&gt;Node38</title>
<path fill="none" stroke="midnightblue" d="M402.682,-231.708C342.386,-228.679 223.604,-218.851 198,-188 170.228,-154.536 197.836,-97.0754 209.938,-75.509"/>
<polygon fill="midnightblue" stroke="midnightblue" points="402.725,-235.214 412.877,-232.183 403.051,-228.221 402.725,-235.214"/>
</g>
<!-- Node40 -->
<g id="node10" class="node"><title>Node40</title>
<g id="a_node10"><a xlink:href="nativeparser_8cpp" target="_top" xlink:title="nativeparser.cpp">
<polygon fill="none" stroke="black" points="172,-0.5 172,-19.5 258,-19.5 258,-0.5 172,-0.5"/>
<text text-anchor="middle" x="215" y="-7.5" font-family="FreeSans" font-size="10.00">nativeparser.cpp</text>
</a>
</g>
</g>
<!-- Node26&#45;&gt;Node40 -->
<g id="edge24" class="edge"><title>Node26&#45;&gt;Node40</title>
<path fill="none" stroke="midnightblue" d="M402.646,-231.593C340.386,-228.354 214.924,-218.164 185,-188 143.256,-145.922 142.159,-110.265 166,-56 172.969,-40.1383 188.594,-27.415 200.339,-19.598"/>
<polygon fill="midnightblue" stroke="midnightblue" points="402.628,-235.097 412.787,-232.088 402.969,-228.105 402.628,-235.097"/>
</g>
<!-- Node41 -->
<g id="node11" class="node"><title>Node41</title>
<g id="a_node11"><a xlink:href="parser_8cpp" target="_top" xlink:title="parser.cpp">
<polygon fill="none" stroke="black" points="313.5,-0.5 313.5,-19.5 374.5,-19.5 374.5,-0.5 313.5,-0.5"/>
<text text-anchor="middle" x="344" y="-7.5" font-family="FreeSans" font-size="10.00">parser.cpp</text>
</a>
</g>
</g>
<!-- Node26&#45;&gt;Node41 -->
<g id="edge26" class="edge"><title>Node26&#45;&gt;Node41</title>
<path fill="none" stroke="midnightblue" d="M403.276,-222.721C386.458,-215.797 367.819,-204.788 358,-188 353.512,-180.327 357.387,-176.868 358,-168 359.723,-143.072 365.32,-136.88 363,-112 359.77,-77.3578 350.437,-36.8891 346.172,-19.5701"/>
<polygon fill="midnightblue" stroke="midnightblue" points="402.296,-226.092 412.888,-226.339 404.762,-219.54 402.296,-226.092"/>
</g>
<!-- Node43 -->
<g id="node12" class="node"><title>Node43</title>
<g id="a_node12"><a xlink:href="systemheadersthread_8h" target="_top" xlink:title="systemheadersthread.h">
<polygon fill="none" stroke="red" points="499.5,-168.5 499.5,-187.5 614.5,-187.5 614.5,-168.5 499.5,-168.5"/>
<text text-anchor="middle" x="557" y="-175.5" font-family="FreeSans" font-size="10.00">systemheadersthread.h</text>
</a>
</g>
</g>
<!-- Node26&#45;&gt;Node43 -->
<g id="edge15" class="edge"><title>Node26&#45;&gt;Node43</title>
<path fill="none" stroke="midnightblue" d="M466.137,-220.232C488.396,-210.131 518.856,-196.309 538.232,-187.516"/>
<polygon fill="midnightblue" stroke="midnightblue" points="464.516,-217.124 456.856,-224.444 467.409,-223.498 464.516,-217.124"/>
</g>
<!-- Node45 -->
<g id="node13" class="node"><title>Node45</title>
<g id="a_node13"><a xlink:href="cctreectrl_8h" target="_top" xlink:title="cctreectrl.h">
<polygon fill="none" stroke="red" points="207.5,-168.5 207.5,-187.5 272.5,-187.5 272.5,-168.5 207.5,-168.5"/>
<text text-anchor="middle" x="240" y="-175.5" font-family="FreeSans" font-size="10.00">cctreectrl.h</text>
</a>
</g>
</g>
<!-- Node26&#45;&gt;Node45 -->
<g id="edge17" class="edge"><title>Node26&#45;&gt;Node45</title>
<path fill="none" stroke="midnightblue" d="M403.006,-223.456C365.721,-213.288 307.236,-197.337 271.391,-187.561"/>
<polygon fill="midnightblue" stroke="midnightblue" points="402.355,-226.906 412.923,-226.161 404.196,-220.153 402.355,-226.906"/>
</g>
<!-- Node47 -->
<g id="node14" class="node"><title>Node47</title>
<g id="a_node14"><a xlink:href="insertclassmethoddlg_8cpp" target="_top" xlink:title="insertclassmethoddlg.cpp">
<polygon fill="none" stroke="black" points="632.5,-168.5 632.5,-187.5 757.5,-187.5 757.5,-168.5 632.5,-168.5"/>
<text text-anchor="middle" x="695" y="-175.5" font-family="FreeSans" font-size="10.00">insertclassmethoddlg.cpp</text>
</a>
</g>
</g>
<!-- Node26&#45;&gt;Node47 -->
<g id="edge23" class="edge"><title>Node26&#45;&gt;Node47</title>
<path fill="none" stroke="midnightblue" d="M472.997,-223.871C539.347,-208.553 605.596,-195.617 648.7,-187.508"/>
<polygon fill="midnightblue" stroke="midnightblue" points="472.156,-220.473 463.209,-226.148 473.742,-227.291 472.156,-220.473"/>
</g>
<!-- Node48 -->
<g id="node15" class="node"><title>Node48</title>
<g id="a_node15"><a xlink:href="ccdebuginfo_8cpp" target="_top" xlink:title="ccdebuginfo.cpp">
<polygon fill="none" stroke="black" points="775.5,-168.5 775.5,-187.5 862.5,-187.5 862.5,-168.5 775.5,-168.5"/>
<text text-anchor="middle" x="819" y="-175.5" font-family="FreeSans" font-size="10.00">ccdebuginfo.cpp</text>
</a>
</g>
</g>
<!-- Node26&#45;&gt;Node48 -->
<g id="edge25" class="edge"><title>Node26&#45;&gt;Node48</title>
<path fill="none" stroke="midnightblue" d="M473.095,-224.025C603.006,-199.469 638.92,-206.56 766,-188 769.048,-187.555 772.19,-187.075 775.353,-186.577"/>
<polygon fill="midnightblue" stroke="midnightblue" points="472.325,-220.609 463.163,-225.929 473.643,-227.483 472.325,-220.609"/>
</g>
<!-- Node26&#45;&gt;Node49 -->
<g id="edge27" class="edge"><title>Node26&#45;&gt;Node49</title>
<path fill="none" stroke="midnightblue" d="M402.387,-228.478C341.008,-220.629 211.35,-203.805 102,-188 97.4617,-187.344 92.7267,-186.641 88.0045,-185.927"/>
<polygon fill="midnightblue" stroke="midnightblue" points="402.322,-231.998 412.685,-229.792 403.209,-225.054 402.322,-231.998"/>
</g>
<!-- Node26&#45;&gt;Node50 -->
<g id="edge28" class="edge"><title>Node26&#45;&gt;Node50</title>
<path fill="none" stroke="midnightblue" d="M473.141,-224.114C680.764,-189.609 737.376,-208.698 943,-188 947.512,-187.546 952.179,-187.041 956.868,-186.51"/>
<polygon fill="midnightblue" stroke="midnightblue" points="472.419,-220.687 463.139,-225.798 473.581,-227.59 472.419,-220.687"/>
</g>
<!-- Node27&#45;&gt;Node28 -->
<g id="edge4" class="edge"><title>Node27&#45;&gt;Node28</title>
<path fill="none" stroke="midnightblue" d="M453.22,-171.302C544.21,-160.551 739.562,-137.468 822.962,-127.613"/>
<polygon fill="midnightblue" stroke="midnightblue" points="452.698,-167.84 443.178,-172.489 453.519,-174.791 452.698,-167.84"/>
</g>
<!-- Node27&#45;&gt;Node35 -->
<g id="edge6" class="edge"><title>Node27&#45;&gt;Node35</title>
<path fill="none" stroke="midnightblue" d="M427.977,-162.901C444.113,-152.999 465.181,-140.071 478.896,-131.655"/>
<polygon fill="midnightblue" stroke="midnightblue" points="425.831,-160.111 419.139,-168.324 429.493,-166.077 425.831,-160.111"/>
</g>
<!-- Node27&#45;&gt;Node37 -->
<g id="edge8" class="edge"><title>Node27&#45;&gt;Node37</title>
<path fill="none" stroke="midnightblue" d="M377.1,-164.232C355.027,-154.131 324.824,-140.309 305.61,-131.516"/>
<polygon fill="midnightblue" stroke="midnightblue" points="375.753,-167.465 386.303,-168.444 378.666,-161.1 375.753,-167.465"/>
</g>
<!-- Node27&#45;&gt;Node40 -->
<g id="edge13" class="edge"><title>Node27&#45;&gt;Node40</title>
<path fill="none" stroke="midnightblue" d="M396.056,-159.218C388.503,-145.33 376.737,-126.088 363,-112 322.171,-70.1299 261.492,-35.2865 232.137,-19.7302"/>
<polygon fill="midnightblue" stroke="midnightblue" points="393.039,-161.001 400.78,-168.235 399.24,-157.753 393.039,-161.001"/>
</g>
<!-- Node28&#45;&gt;Node30 -->
<g id="edge5" class="edge"><title>Node28&#45;&gt;Node30</title>
<path fill="none" stroke="midnightblue" d="M872.832,-103.275C878.472,-94.0454 885.118,-83.1703 889.652,-75.7511"/>
<polygon fill="midnightblue" stroke="midnightblue" points="869.677,-101.725 867.449,-112.083 875.65,-105.375 869.677,-101.725"/>
</g>
<!-- Node35&#45;&gt;Node30 -->
<g id="edge7" class="edge"><title>Node35&#45;&gt;Node30</title>
<path fill="none" stroke="midnightblue" d="M547.638,-113.661C625.436,-103.21 767.124,-84.1774 843.285,-73.9469"/>
<polygon fill="midnightblue" stroke="midnightblue" points="547.002,-110.214 537.557,-115.015 547.934,-117.152 547.002,-110.214"/>
</g>
<!-- Node37&#45;&gt;Node38 -->
<g id="edge9" class="edge"><title>Node37&#45;&gt;Node38</title>
<path fill="none" stroke="midnightblue" d="M267.134,-106.101C254.177,-96.3824 237.703,-84.0269 226.779,-75.8339"/>
<polygon fill="midnightblue" stroke="midnightblue" points="265.332,-109.124 275.432,-112.324 269.532,-103.524 265.332,-109.124"/>
</g>
<!-- Node37&#45;&gt;Node41 -->
<g id="edge12" class="edge"><title>Node37&#45;&gt;Node41</title>
<path fill="none" stroke="midnightblue" d="M296.161,-103.32C308.572,-79.3697 330.243,-37.5484 339.548,-19.5914"/>
<polygon fill="midnightblue" stroke="midnightblue" points="292.966,-101.879 291.473,-112.368 299.181,-105.1 292.966,-101.879"/>
</g>
<!-- Node38&#45;&gt;Node40 -->
<g id="edge10" class="edge"><title>Node38&#45;&gt;Node40</title>
<path fill="none" stroke="midnightblue" d="M215,-45.8045C215,-36.9102 215,-26.7798 215,-19.7511"/>
<polygon fill="midnightblue" stroke="midnightblue" points="211.5,-46.083 215,-56.083 218.5,-46.083 211.5,-46.083"/>
</g>
<!-- Node38&#45;&gt;Node41 -->
<g id="edge11" class="edge"><title>Node38&#45;&gt;Node41</title>
<path fill="none" stroke="midnightblue" d="M244.854,-52.503C269.038,-42.3795 302.462,-28.388 323.655,-19.5164"/>
<polygon fill="midnightblue" stroke="midnightblue" points="243.313,-49.3536 235.44,-56.4435 246.016,-55.8106 243.313,-49.3536"/>
</g>
<!-- Node45&#45;&gt;Node37 -->
<g id="edge19" class="edge"><title>Node45&#45;&gt;Node37</title>
<path fill="none" stroke="midnightblue" d="M254.421,-160.431C262.658,-150.967 272.654,-139.483 279.383,-131.751"/>
<polygon fill="midnightblue" stroke="midnightblue" points="251.686,-158.242 247.761,-168.083 256.966,-162.838 251.686,-158.242"/>
</g>
<!-- Node45&#45;&gt;Node38 -->
<g id="edge18" class="edge"><title>Node45&#45;&gt;Node38</title>
<path fill="none" stroke="midnightblue" d="M226.014,-160.373C220.155,-152.34 214.012,-142.235 211,-132 205.254,-112.477 209.566,-88.2732 212.632,-75.6229"/>
<polygon fill="midnightblue" stroke="midnightblue" points="223.414,-162.731 232.327,-168.459 228.932,-158.423 223.414,-162.731"/>
</g>
<!-- Node51&#45;&gt;Node26 -->
<g id="edge30" class="edge"><title>Node51&#45;&gt;Node26</title>
<path fill="none" stroke="midnightblue" d="M485.446,-273.82C473.622,-264.145 458.714,-251.948 448.797,-243.834"/>
<polygon fill="midnightblue" stroke="midnightblue" points="483.44,-276.7 493.396,-280.324 487.873,-271.283 483.44,-276.7"/>
</g>
<!-- Node52 -->
<g id="node19" class="node"><title>Node52</title>
<g id="a_node19"><a xlink:href="parser__base_8cpp" target="_top" xlink:title="parser_base.cpp">
<polygon fill="none" stroke="black" points="481,-224.5 481,-243.5 567,-243.5 567,-224.5 481,-224.5"/>
<text text-anchor="middle" x="524" y="-231.5" font-family="FreeSans" font-size="10.00">parser_base.cpp</text>
</a>
</g>
</g>
<!-- Node51&#45;&gt;Node52 -->
<g id="edge31" class="edge"><title>Node51&#45;&gt;Node52</title>
<path fill="none" stroke="midnightblue" d="M510.782,-270.69C514.152,-261.589 518.069,-251.014 520.759,-243.751"/>
<polygon fill="midnightblue" stroke="midnightblue" points="507.494,-269.49 507.303,-280.083 514.058,-271.921 507.494,-269.49"/>
</g>
</g>
</svg>
