<?xml version="1.0" encoding="UTF-8" standalone="no"?>
<!DOCTYPE svg PUBLIC "-//W3C//DTD SVG 1.1//EN"
 "http://www.w3.org/Graphics/SVG/1.1/DTD/svg11.dtd">
<!-- Generated by graphviz version 2.38.0 (20140413.2041)
 -->
<!-- Title: ccoptionsdlg.h Pages: 1 -->
<svg width="2557pt" height="588pt"
 viewBox="0.00 0.00 2556.99 588.00" xmlns="http://www.w3.org/2000/svg" xmlns:xlink="http://www.w3.org/1999/xlink">
<g id="graph0" class="graph" transform="scale(1 1) rotate(0) translate(4 584)">
<title>ccoptionsdlg.h</title>
<polygon fill="white" stroke="none" points="-4,4 -4,-584 2552.99,-584 2552.99,4 -4,4"/>
<!-- Node1 -->
<g id="node1" class="node"><title>Node1</title>
<polygon fill="#bfbfbf" stroke="black" points="245.991,-560.5 245.991,-579.5 323.991,-579.5 323.991,-560.5 245.991,-560.5"/>
<text text-anchor="middle" x="284.991" y="-567.5" font-family="FreeSans" font-size="10.00">ccoptionsdlg.h</text>
</g>
<!-- Node2 -->
<g id="node2" class="node"><title>Node2</title>
<polygon fill="white" stroke="#bfbfbf" points="369.491,-0.5 369.491,-19.5 420.491,-19.5 420.491,-0.5 369.491,-0.5"/>
<text text-anchor="middle" x="394.991" y="-7.5" font-family="FreeSans" font-size="10.00">wx/intl.h</text>
</g>
<!-- Node1&#45;&gt;Node2 -->
<g id="edge1" class="edge"><title>Node1&#45;&gt;Node2</title>
<path fill="none" stroke="midnightblue" d="M245.8,-562.299C167.891,-547.864 0.990834,-510.883 0.990834,-459 0.990834,-459 0.990834,-459 0.990834,-121 0.990834,-90.9022 -2.9725,-75.4567 19.9908,-56 70.6656,-13.0636 275.975,-9.90207 359.445,-10.452"/>
<polygon fill="midnightblue" stroke="midnightblue" points="359.434,-13.9519 369.465,-10.5401 359.496,-6.95221 359.434,-13.9519"/>
</g>
<!-- Node3 -->
<g id="node3" class="node"><title>Node3</title>
<g id="a_node3"><a xlink:href="configurationpanel_8h" target="_top" xlink:title="configurationpanel.h">
<polygon fill="white" stroke="black" points="154.991,-168.5 154.991,-187.5 256.991,-187.5 256.991,-168.5 154.991,-168.5"/>
<text text-anchor="middle" x="205.991" y="-175.5" font-family="FreeSans" font-size="10.00">configurationpanel.h</text>
</a>
</g>
</g>
<!-- Node1&#45;&gt;Node3 -->
<g id="edge2" class="edge"><title>Node1&#45;&gt;Node3</title>
<path fill="none" stroke="midnightblue" d="M276.681,-560.411C260.643,-542.887 226.991,-501.099 226.991,-459 226.991,-459 226.991,-459 226.991,-289 226.991,-256.384 217.973,-219.278 211.756,-197.573"/>
<polygon fill="midnightblue" stroke="midnightblue" points="215.033,-196.316 208.823,-187.732 208.325,-198.315 215.033,-196.316"/>
</g>
<!-- Node12 -->
<g id="node12" class="node"><title>Node12</title>
<g id="a_node12"><a xlink:href="settings_8h" target="_top" xlink:title="settings.h">
<polygon fill="white" stroke="black" points="442.491,-0.5 442.491,-19.5 499.491,-19.5 499.491,-0.5 442.491,-0.5"/>
<text text-anchor="middle" x="470.991" y="-7.5" font-family="FreeSans" font-size="10.00">settings.h</text>
</a>
</g>
</g>
<!-- Node1&#45;&gt;Node12 -->
<g id="edge20" class="edge"><title>Node1&#45;&gt;Node12</title>
<path fill="none" stroke="midnightblue" d="M284.991,-560.442C284.991,-541.936 284.991,-496.812 284.991,-459 284.991,-459 284.991,-459 284.991,-121 284.991,-90.3559 285.57,-76.8889 307.991,-56 317.202,-47.4186 387.246,-30.1345 432.469,-19.6624"/>
<polygon fill="midnightblue" stroke="midnightblue" points="433.305,-23.0616 442.267,-17.41 431.737,-16.2395 433.305,-23.0616"/>
</g>
<!-- Node17 -->
<g id="node17" class="node"><title>Node17</title>
<g id="a_node17"><a xlink:href="nativeparser_8h" target="_top" xlink:title="nativeparser.h">
<polygon fill="white" stroke="black" points="2358.99,-504.5 2358.99,-523.5 2434.99,-523.5 2434.99,-504.5 2358.99,-504.5"/>
<text text-anchor="middle" x="2396.99" y="-511.5" font-family="FreeSans" font-size="10.00">nativeparser.h</text>
</a>
</g>
</g>
<!-- Node1&#45;&gt;Node17 -->
<g id="edge21" class="edge"><title>Node1&#45;&gt;Node17</title>
<path fill="none" stroke="midnightblue" d="M324.368,-567.993C585.139,-561.326 2061.58,-523.576 2348.63,-516.236"/>
<polygon fill="midnightblue" stroke="midnightblue" points="2348.82,-519.733 2358.72,-515.978 2348.64,-512.735 2348.82,-519.733"/>
</g>
<!-- Node29 -->
<g id="node29" class="node"><title>Node29</title>
<g id="a_node29"><a xlink:href="parser_8h" target="_top" xlink:title="parser/parser.h">
<polygon fill="white" stroke="black" points="1787.99,-448.5 1787.99,-467.5 1867.99,-467.5 1867.99,-448.5 1787.99,-448.5"/>
<text text-anchor="middle" x="1827.99" y="-455.5" font-family="FreeSans" font-size="10.00">parser/parser.h</text>
</a>
</g>
</g>
<!-- Node1&#45;&gt;Node29 -->
<g id="edge134" class="edge"><title>Node1&#45;&gt;Node29</title>
<path fill="none" stroke="midnightblue" d="M324.293,-566.198C536.082,-551.1 1540.62,-479.487 1777.75,-462.582"/>
<polygon fill="midnightblue" stroke="midnightblue" points="1778.08,-466.067 1787.81,-461.864 1777.59,-459.084 1778.08,-466.067"/>
</g>
<!-- Node4 -->
<g id="node4" class="node"><title>Node4</title>
<g id="a_node4"><a xlink:href="globals_8h" target="_top" xlink:title="globals.h">
<polygon fill="white" stroke="black" points="502.991,-112.5 502.991,-131.5 556.991,-131.5 556.991,-112.5 502.991,-112.5"/>
<text text-anchor="middle" x="529.991" y="-119.5" font-family="FreeSans" font-size="10.00">globals.h</text>
</a>
</g>
</g>
<!-- Node3&#45;&gt;Node4 -->
<g id="edge3" class="edge"><title>Node3&#45;&gt;Node4</title>
<path fill="none" stroke="midnightblue" d="M257.33,-168.444C322.842,-157.525 434.604,-138.898 492.599,-129.232"/>
<polygon fill="midnightblue" stroke="midnightblue" points="493.49,-132.632 502.779,-127.535 492.339,-125.727 493.49,-132.632"/>
</g>
<!-- Node6 -->
<g id="node6" class="node"><title>Node6</title>
<polygon fill="white" stroke="#bfbfbf" points="1723.99,-56.5 1723.99,-75.5 1785.99,-75.5 1785.99,-56.5 1723.99,-56.5"/>
<text text-anchor="middle" x="1754.99" y="-63.5" font-family="FreeSans" font-size="10.00">wx/string.h</text>
</g>
<!-- Node3&#45;&gt;Node6 -->
<g id="edge19" class="edge"><title>Node3&#45;&gt;Node6</title>
<path fill="none" stroke="midnightblue" d="M257.073,-176.182C457.771,-172.804 1192.51,-158.836 1423.99,-132 1479.83,-125.527 1638.05,-92.2104 1713.71,-75.9497"/>
<polygon fill="midnightblue" stroke="midnightblue" points="1714.78,-79.2998 1723.82,-73.773 1713.3,-72.4567 1714.78,-79.2998"/>
</g>
<!-- Node3&#45;&gt;Node12 -->
<g id="edge13" class="edge"><title>Node3&#45;&gt;Node12</title>
<path fill="none" stroke="midnightblue" d="M210.448,-168.23C224.294,-141.055 265.935,-59.8402 270.991,-56 274.233,-53.5377 375.053,-31.5979 432.279,-19.2876"/>
<polygon fill="midnightblue" stroke="midnightblue" points="433.043,-22.7033 442.085,-17.1806 431.573,-15.8595 433.043,-22.7033"/>
</g>
<!-- Node13 -->
<g id="node13" class="node"><title>Node13</title>
<g id="a_node13"><a xlink:href="scrollingdialog_8h" target="_top" xlink:title="scrollingdialog.h">
<polygon fill="white" stroke="black" points="53.4908,-112.5 53.4908,-131.5 138.491,-131.5 138.491,-112.5 53.4908,-112.5"/>
<text text-anchor="middle" x="95.9908" y="-119.5" font-family="FreeSans" font-size="10.00">scrollingdialog.h</text>
</a>
</g>
</g>
<!-- Node3&#45;&gt;Node13 -->
<g id="edge14" class="edge"><title>Node3&#45;&gt;Node13</title>
<path fill="none" stroke="midnightblue" d="M188.317,-168.324C170.597,-159.625 143.088,-146.12 122.702,-136.113"/>
<polygon fill="midnightblue" stroke="midnightblue" points="124.139,-132.919 113.62,-131.655 121.055,-139.203 124.139,-132.919"/>
</g>
<!-- Node16 -->
<g id="node16" class="node"><title>Node16</title>
<polygon fill="white" stroke="#bfbfbf" points="156.991,-112.5 156.991,-131.5 218.991,-131.5 218.991,-112.5 156.991,-112.5"/>
<text text-anchor="middle" x="187.991" y="-119.5" font-family="FreeSans" font-size="10.00">wx/panel.h</text>
</g>
<!-- Node3&#45;&gt;Node16 -->
<g id="edge18" class="edge"><title>Node3&#45;&gt;Node16</title>
<path fill="none" stroke="midnightblue" d="M203.018,-168.083C200.607,-160.849 197.127,-150.409 194.123,-141.397"/>
<polygon fill="midnightblue" stroke="midnightblue" points="197.391,-140.131 190.908,-131.751 190.75,-142.345 197.391,-140.131"/>
</g>
<!-- Node4&#45;&gt;Node2 -->
<g id="edge9" class="edge"><title>Node4&#45;&gt;Node2</title>
<path fill="none" stroke="midnightblue" d="M519.398,-112.368C496.527,-93.7334 442.281,-49.5324 413.564,-26.1338"/>
<polygon fill="midnightblue" stroke="midnightblue" points="415.498,-23.1949 405.535,-19.5914 411.076,-28.6215 415.498,-23.1949"/>
</g>
<!-- Node5 -->
<g id="node5" class="node"><title>Node5</title>
<polygon fill="white" stroke="#bfbfbf" points="1086.49,-56.5 1086.49,-75.5 1129.49,-75.5 1129.49,-56.5 1086.49,-56.5"/>
<text text-anchor="middle" x="1107.99" y="-63.5" font-family="FreeSans" font-size="10.00">vector</text>
</g>
<!-- Node4&#45;&gt;Node5 -->
<g id="edge4" class="edge"><title>Node4&#45;&gt;Node5</title>
<path fill="none" stroke="midnightblue" d="M557.094,-118.468C652.695,-109.536 973.912,-79.5264 1076.33,-69.9579"/>
<polygon fill="midnightblue" stroke="midnightblue" points="1076.73,-73.4358 1086.36,-69.0207 1076.08,-66.4661 1076.73,-73.4358"/>
</g>
<!-- Node4&#45;&gt;Node6 -->
<g id="edge5" class="edge"><title>Node4&#45;&gt;Node6</title>
<path fill="none" stroke="midnightblue" d="M557.004,-119.809C715.158,-112.838 1520.7,-77.328 1713.49,-68.8293"/>
<polygon fill="midnightblue" stroke="midnightblue" points="1713.93,-72.3137 1723.76,-68.3766 1713.62,-65.3205 1713.93,-72.3137"/>
</g>
<!-- Node7 -->
<g id="node7" class="node"><title>Node7</title>
<polygon fill="white" stroke="#bfbfbf" points="710.991,-56.5 710.991,-75.5 778.991,-75.5 778.991,-56.5 710.991,-56.5"/>
<text text-anchor="middle" x="744.991" y="-63.5" font-family="FreeSans" font-size="10.00">wx/treectrl.h</text>
</g>
<!-- Node4&#45;&gt;Node7 -->
<g id="edge6" class="edge"><title>Node4&#45;&gt;Node7</title>
<path fill="none" stroke="midnightblue" d="M557.221,-114.161C593.415,-105.07 657.816,-88.8951 700.963,-78.0581"/>
<polygon fill="midnightblue" stroke="midnightblue" points="702.059,-81.3917 710.905,-75.5611 700.354,-74.6026 702.059,-81.3917"/>
</g>
<!-- Node8 -->
<g id="node8" class="node"><title>Node8</title>
<polygon fill="white" stroke="#bfbfbf" points="316.991,-56.5 316.991,-75.5 366.991,-75.5 366.991,-56.5 316.991,-56.5"/>
<text text-anchor="middle" x="341.991" y="-63.5" font-family="FreeSans" font-size="10.00">wx/file.h</text>
</g>
<!-- Node4&#45;&gt;Node8 -->
<g id="edge7" class="edge"><title>Node4&#45;&gt;Node8</title>
<path fill="none" stroke="midnightblue" d="M502.654,-113.148C469.422,-103.603 413.288,-87.4789 376.944,-77.0397"/>
<polygon fill="midnightblue" stroke="midnightblue" points="377.831,-73.653 367.253,-74.2562 375.898,-80.3809 377.831,-73.653"/>
</g>
<!-- Node9 -->
<g id="node9" class="node"><title>Node9</title>
<polygon fill="white" stroke="#bfbfbf" points="796.991,-56.5 796.991,-75.5 870.991,-75.5 870.991,-56.5 796.991,-56.5"/>
<text text-anchor="middle" x="833.991" y="-63.5" font-family="FreeSans" font-size="10.00">wx/filename.h</text>
</g>
<!-- Node4&#45;&gt;Node9 -->
<g id="edge8" class="edge"><title>Node4&#45;&gt;Node9</title>
<path fill="none" stroke="midnightblue" d="M557.139,-116.453C602.496,-108.817 696.799,-92.7663 786.751,-76.2001"/>
<polygon fill="midnightblue" stroke="midnightblue" points="787.648,-79.5937 796.846,-74.3353 786.377,-72.7101 787.648,-79.5937"/>
</g>
<!-- Node10 -->
<g id="node10" class="node"><title>Node10</title>
<polygon fill="white" stroke="#bfbfbf" points="623.491,-56.5 623.491,-75.5 692.491,-75.5 692.491,-56.5 623.491,-56.5"/>
<text text-anchor="middle" x="657.991" y="-63.5" font-family="FreeSans" font-size="10.00">wx/msgdlg.h</text>
</g>
<!-- Node4&#45;&gt;Node10 -->
<g id="edge10" class="edge"><title>Node4&#45;&gt;Node10</title>
<path fill="none" stroke="midnightblue" d="M550.273,-112.444C571.338,-103.557 604.508,-89.5632 628.476,-79.4514"/>
<polygon fill="midnightblue" stroke="midnightblue" points="629.951,-82.6283 637.804,-75.5164 627.23,-76.1787 629.951,-82.6283"/>
</g>
<!-- Node11 -->
<g id="node11" class="node"><title>Node11</title>
<polygon fill="white" stroke="#bfbfbf" points="536.991,-56.5 536.991,-75.5 604.991,-75.5 604.991,-56.5 536.991,-56.5"/>
<text text-anchor="middle" x="570.991" y="-63.5" font-family="FreeSans" font-size="10.00">wx/bitmap.h</text>
</g>
<!-- Node4&#45;&gt;Node11 -->
<g id="edge11" class="edge"><title>Node4&#45;&gt;Node11</title>
<path fill="none" stroke="midnightblue" d="M536.761,-112.083C542.552,-104.455 551.049,-93.2645 558.128,-83.9408"/>
<polygon fill="midnightblue" stroke="midnightblue" points="561.087,-85.8321 564.346,-75.7511 555.512,-81.5991 561.087,-85.8321"/>
</g>
<!-- Node4&#45;&gt;Node12 -->
<g id="edge12" class="edge"><title>Node4&#45;&gt;Node12</title>
<path fill="none" stroke="midnightblue" d="M525.361,-112.368C515.711,-94.376 493.277,-52.5503 480.445,-28.6267"/>
<polygon fill="midnightblue" stroke="midnightblue" points="483.41,-26.7495 475.599,-19.5914 477.241,-30.0582 483.41,-26.7495"/>
</g>
<!-- Node13&#45;&gt;Node12 -->
<g id="edge17" class="edge"><title>Node13&#45;&gt;Node12</title>
<path fill="none" stroke="midnightblue" d="M113.976,-112.393C150.441,-94.9507 229.906,-56.996 232.991,-56 317.274,-28.7854 342.125,-37.2807 428.991,-20 430.051,-19.789 431.126,-19.5731 432.211,-19.3534"/>
<polygon fill="midnightblue" stroke="midnightblue" points="433.011,-22.7622 442.094,-17.3089 431.593,-15.9073 433.011,-22.7622"/>
</g>
<!-- Node14 -->
<g id="node14" class="node"><title>Node14</title>
<polygon fill="white" stroke="#bfbfbf" points="116.991,-56.5 116.991,-75.5 180.991,-75.5 180.991,-56.5 116.991,-56.5"/>
<text text-anchor="middle" x="148.991" y="-63.5" font-family="FreeSans" font-size="10.00">wx/dialog.h</text>
</g>
<!-- Node13&#45;&gt;Node14 -->
<g id="edge15" class="edge"><title>Node13&#45;&gt;Node14</title>
<path fill="none" stroke="midnightblue" d="M104.743,-112.083C112.461,-104.22 123.896,-92.5688 133.207,-83.0813"/>
<polygon fill="midnightblue" stroke="midnightblue" points="135.895,-85.3396 140.402,-75.7511 130.899,-80.4363 135.895,-85.3396"/>
</g>
<!-- Node15 -->
<g id="node15" class="node"><title>Node15</title>
<polygon fill="white" stroke="#bfbfbf" points="28.9908,-56.5 28.9908,-75.5 98.9908,-75.5 98.9908,-56.5 28.9908,-56.5"/>
<text text-anchor="middle" x="63.9908" y="-63.5" font-family="FreeSans" font-size="10.00">wx/propdlg.h</text>
</g>
<!-- Node13&#45;&gt;Node15 -->
<g id="edge16" class="edge"><title>Node13&#45;&gt;Node15</title>
<path fill="none" stroke="midnightblue" d="M90.7067,-112.083C86.2798,-104.613 79.8275,-93.7244 74.373,-84.5199"/>
<polygon fill="midnightblue" stroke="midnightblue" points="77.2858,-82.5697 69.1767,-75.7511 71.2637,-86.1383 77.2858,-82.5697"/>
</g>
<!-- Node18 -->
<g id="node18" class="node"><title>Node18</title>
<g id="a_node18"><a xlink:href="nativeparser__base_8h" target="_top" xlink:title="nativeparser_base.h">
<polygon fill="white" stroke="black" points="2153.49,-224.5 2153.49,-243.5 2254.49,-243.5 2254.49,-224.5 2153.49,-224.5"/>
<text text-anchor="middle" x="2203.99" y="-231.5" font-family="FreeSans" font-size="10.00">nativeparser_base.h</text>
</a>
</g>
</g>
<!-- Node17&#45;&gt;Node18 -->
<g id="edge22" class="edge"><title>Node17&#45;&gt;Node18</title>
<path fill="none" stroke="midnightblue" d="M2395.5,-504.173C2389.43,-470.661 2363.6,-349.692 2296.99,-280 2282.67,-265.011 2262.32,-254.383 2244.3,-247.235"/>
<polygon fill="midnightblue" stroke="midnightblue" points="2245.18,-243.827 2234.59,-243.615 2242.74,-250.387 2245.18,-243.827"/>
</g>
<!-- Node19 -->
<g id="node19" class="node"><title>Node19</title>
<polygon fill="white" stroke="#bfbfbf" points="2129.49,-56.5 2129.49,-75.5 2164.49,-75.5 2164.49,-56.5 2129.49,-56.5"/>
<text text-anchor="middle" x="2146.99" y="-63.5" font-family="FreeSans" font-size="10.00">map</text>
</g>
<!-- Node17&#45;&gt;Node19 -->
<g id="edge132" class="edge"><title>Node17&#45;&gt;Node19</title>
<path fill="none" stroke="midnightblue" d="M2408.53,-504.433C2429.79,-487.571 2472.99,-447.799 2472.99,-403 2472.99,-403 2472.99,-403 2472.99,-289 2472.99,-145.124 2253.38,-87.873 2174.65,-71.9725"/>
<polygon fill="midnightblue" stroke="midnightblue" points="2175,-68.4748 2164.52,-69.9986 2173.66,-75.3457 2175,-68.4748"/>
</g>
<!-- Node20 -->
<g id="node20" class="node"><title>Node20</title>
<polygon fill="white" stroke="#bfbfbf" points="2267.49,-168.5 2267.49,-187.5 2310.49,-187.5 2310.49,-168.5 2267.49,-168.5"/>
<text text-anchor="middle" x="2288.99" y="-175.5" font-family="FreeSans" font-size="10.00">queue</text>
</g>
<!-- Node17&#45;&gt;Node20 -->
<g id="edge131" class="edge"><title>Node17&#45;&gt;Node20</title>
<path fill="none" stroke="midnightblue" d="M2402.27,-504.231C2412.72,-486.043 2434.99,-442.601 2434.99,-403 2434.99,-403 2434.99,-403 2434.99,-345 2434.99,-272.745 2356.03,-216.988 2314.25,-192.54"/>
<polygon fill="midnightblue" stroke="midnightblue" points="2315.88,-189.44 2305.46,-187.536 2312.42,-195.524 2315.88,-189.44"/>
</g>
<!-- Node17&#45;&gt;Node29 -->
<g id="edge43" class="edge"><title>Node17&#45;&gt;Node29</title>
<path fill="none" stroke="midnightblue" d="M2358.77,-509.373C2258.98,-499.902 1990.54,-474.426 1878.35,-463.779"/>
<polygon fill="midnightblue" stroke="midnightblue" points="1878.59,-460.287 1868.31,-462.826 1877.93,-467.255 1878.59,-460.287"/>
</g>
<!-- Node30 -->
<g id="node30" class="node"><title>Node30</title>
<polygon fill="white" stroke="#bfbfbf" points="1449.99,-0.5 1449.99,-19.5 1511.99,-19.5 1511.99,-0.5 1449.99,-0.5"/>
<text text-anchor="middle" x="1480.99" y="-7.5" font-family="FreeSans" font-size="10.00">wx/event.h</text>
</g>
<!-- Node17&#45;&gt;Node30 -->
<g id="edge133" class="edge"><title>Node17&#45;&gt;Node30</title>
<path fill="none" stroke="midnightblue" d="M2431.86,-504.398C2476.74,-490.997 2548.99,-460.493 2548.99,-403 2548.99,-403 2548.99,-403 2548.99,-121 2548.99,-70.5717 2503.73,-72.2485 2455.99,-56 2366.78,-25.6355 1696.39,-14.0628 1522.23,-11.5514"/>
<polygon fill="midnightblue" stroke="midnightblue" points="1522.24,-8.05121 1512.19,-11.4087 1522.14,-15.0505 1522.24,-8.05121"/>
</g>
<!-- Node18&#45;&gt;Node6 -->
<g id="edge23" class="edge"><title>Node18&#45;&gt;Node6</title>
<path fill="none" stroke="midnightblue" d="M2192.9,-224.372C2174.68,-210.593 2136.87,-183.591 2100.99,-168 2043.25,-142.908 2023.21,-153.36 1963.99,-132 1944.16,-124.849 1940.79,-119.228 1920.99,-112 1898.19,-103.675 1837.39,-87.7725 1796.06,-77.2759"/>
<polygon fill="midnightblue" stroke="midnightblue" points="1796.81,-73.8576 1786.26,-74.7971 1795.1,-80.6436 1796.81,-73.8576"/>
</g>
<!-- Node18&#45;&gt;Node19 -->
<g id="edge24" class="edge"><title>Node18&#45;&gt;Node19</title>
<path fill="none" stroke="midnightblue" d="M2210.43,-224.291C2228.01,-200.016 2274.64,-132.063 2260.99,-112 2241.76,-83.7341 2201.76,-73.2229 2174.64,-69.3141"/>
<polygon fill="midnightblue" stroke="midnightblue" points="2174.95,-65.8261 2164.6,-68.0804 2174.1,-72.7738 2174.95,-65.8261"/>
</g>
<!-- Node18&#45;&gt;Node20 -->
<g id="edge25" class="edge"><title>Node18&#45;&gt;Node20</title>
<path fill="none" stroke="midnightblue" d="M2217.65,-224.324C2230.91,-215.9 2251.26,-202.971 2266.84,-193.074"/>
<polygon fill="midnightblue" stroke="midnightblue" points="2268.8,-195.971 2275.37,-187.655 2265.05,-190.063 2268.8,-195.971"/>
</g>
<!-- Node21 -->
<g id="node21" class="node"><title>Node21</title>
<g id="a_node21"><a xlink:href="token_8h" target="_top" xlink:title="parser/token.h">
<polygon fill="white" stroke="black" points="2175.49,-112.5 2175.49,-131.5 2252.49,-131.5 2252.49,-112.5 2175.49,-112.5"/>
<text text-anchor="middle" x="2213.99" y="-119.5" font-family="FreeSans" font-size="10.00">parser/token.h</text>
</a>
</g>
</g>
<!-- Node18&#45;&gt;Node21 -->
<g id="edge26" class="edge"><title>Node18&#45;&gt;Node21</title>
<path fill="none" stroke="midnightblue" d="M2204.78,-224.368C2206.39,-206.617 2210.11,-165.666 2212.3,-141.597"/>
<polygon fill="midnightblue" stroke="midnightblue" points="2215.79,-141.867 2213.21,-131.591 2208.82,-141.233 2215.79,-141.867"/>
</g>
<!-- Node24 -->
<g id="node24" class="node"><title>Node24</title>
<g id="a_node24"><a xlink:href="tokentree_8h" target="_top" xlink:title="parser/tokentree.h">
<polygon fill="white" stroke="black" points="1888.99,-168.5 1888.99,-187.5 1982.99,-187.5 1982.99,-168.5 1888.99,-168.5"/>
<text text-anchor="middle" x="1935.99" y="-175.5" font-family="FreeSans" font-size="10.00">parser/tokentree.h</text>
</a>
</g>
</g>
<!-- Node18&#45;&gt;Node24 -->
<g id="edge31" class="edge"><title>Node18&#45;&gt;Node24</title>
<path fill="none" stroke="midnightblue" d="M2161.53,-224.444C2114.58,-214.984 2038.91,-199.738 1988.34,-189.547"/>
<polygon fill="midnightblue" stroke="midnightblue" points="1988.75,-186.061 1978.26,-187.516 1987.37,-192.923 1988.75,-186.061"/>
</g>
<!-- Node21&#45;&gt;Node6 -->
<g id="edge28" class="edge"><title>Node21&#45;&gt;Node6</title>
<path fill="none" stroke="midnightblue" d="M2175.25,-116.443C2089.48,-106.351 1884.17,-82.1977 1796.17,-71.8451"/>
<polygon fill="midnightblue" stroke="midnightblue" points="1796.38,-68.3454 1786.04,-70.6529 1795.56,-75.2974 1796.38,-68.3454"/>
</g>
<!-- Node21&#45;&gt;Node19 -->
<g id="edge30" class="edge"><title>Node21&#45;&gt;Node19</title>
<path fill="none" stroke="midnightblue" d="M2203.23,-112.324C2193.22,-104.263 2178.1,-92.0765 2166.06,-82.3695"/>
<polygon fill="midnightblue" stroke="midnightblue" points="2167.93,-79.3841 2157.95,-75.8339 2163.54,-84.8343 2167.93,-79.3841"/>
</g>
<!-- Node22 -->
<g id="node22" class="node"><title>Node22</title>
<polygon fill="white" stroke="#bfbfbf" points="2308.99,-56.5 2308.99,-75.5 2368.99,-75.5 2368.99,-56.5 2308.99,-56.5"/>
<text text-anchor="middle" x="2338.99" y="-63.5" font-family="FreeSans" font-size="10.00">wx/arrstr.h</text>
</g>
<!-- Node21&#45;&gt;Node22 -->
<g id="edge27" class="edge"><title>Node21&#45;&gt;Node22</title>
<path fill="none" stroke="midnightblue" d="M2233.8,-112.444C2254.28,-103.596 2286.47,-89.6875 2309.86,-79.5865"/>
<polygon fill="midnightblue" stroke="midnightblue" points="2311.48,-82.6953 2319.28,-75.5164 2308.71,-76.2692 2311.48,-82.6953"/>
</g>
<!-- Node23 -->
<g id="node23" class="node"><title>Node23</title>
<polygon fill="white" stroke="#bfbfbf" points="2056.49,-56.5 2056.49,-75.5 2085.49,-75.5 2085.49,-56.5 2056.49,-56.5"/>
<text text-anchor="middle" x="2070.99" y="-63.5" font-family="FreeSans" font-size="10.00">set</text>
</g>
<!-- Node21&#45;&gt;Node23 -->
<g id="edge29" class="edge"><title>Node21&#45;&gt;Node23</title>
<path fill="none" stroke="midnightblue" d="M2191.33,-112.444C2165.07,-102.528 2121.98,-86.2564 2095.12,-76.1111"/>
<polygon fill="midnightblue" stroke="midnightblue" points="2096.28,-72.8072 2085.68,-72.5488 2093.8,-79.3559 2096.28,-72.8072"/>
</g>
<!-- Node24&#45;&gt;Node5 -->
<g id="edge34" class="edge"><title>Node24&#45;&gt;Node5</title>
<path fill="none" stroke="midnightblue" d="M1915.31,-168.466C1879.35,-154.052 1802.67,-125.171 1734.99,-112 1510.1,-68.2331 1232.39,-65.9869 1139.74,-66.5955"/>
<polygon fill="midnightblue" stroke="midnightblue" points="1139.59,-63.0965 1129.62,-66.6788 1139.65,-70.0963 1139.59,-63.0965"/>
</g>
<!-- Node24&#45;&gt;Node6 -->
<g id="edge32" class="edge"><title>Node24&#45;&gt;Node6</title>
<path fill="none" stroke="midnightblue" d="M1919.67,-168.361C1903.17,-159.532 1877.04,-145.272 1854.99,-132 1827.3,-115.334 1796.2,-94.8262 1776.14,-81.3574"/>
<polygon fill="midnightblue" stroke="midnightblue" points="1778,-78.3916 1767.75,-75.7035 1774.09,-84.1957 1778,-78.3916"/>
</g>
<!-- Node24&#45;&gt;Node21 -->
<g id="edge36" class="edge"><title>Node24&#45;&gt;Node21</title>
<path fill="none" stroke="midnightblue" d="M1980.04,-168.444C2030.42,-158.657 2112.68,-142.679 2165.03,-132.511"/>
<polygon fill="midnightblue" stroke="midnightblue" points="2165.93,-135.901 2175.08,-130.558 2164.6,-129.029 2165.93,-135.901"/>
</g>
<!-- Node25 -->
<g id="node25" class="node"><title>Node25</title>
<polygon fill="white" stroke="#bfbfbf" points="1661.49,-112.5 1661.49,-131.5 1726.49,-131.5 1726.49,-112.5 1661.49,-112.5"/>
<text text-anchor="middle" x="1693.99" y="-119.5" font-family="FreeSans" font-size="10.00">wx/thread.h</text>
</g>
<!-- Node24&#45;&gt;Node25 -->
<g id="edge33" class="edge"><title>Node24&#45;&gt;Node25</title>
<path fill="none" stroke="midnightblue" d="M1897.65,-168.444C1853.78,-158.656 1782.16,-142.675 1736.59,-132.506"/>
<polygon fill="midnightblue" stroke="midnightblue" points="1737.25,-129.066 1726.72,-130.304 1735.72,-135.898 1737.25,-129.066"/>
</g>
<!-- Node26 -->
<g id="node26" class="node"><title>Node26</title>
<polygon fill="white" stroke="#bfbfbf" points="1297.49,-112.5 1297.49,-131.5 1340.49,-131.5 1340.49,-112.5 1297.49,-112.5"/>
<text text-anchor="middle" x="1318.99" y="-119.5" font-family="FreeSans" font-size="10.00">deque</text>
</g>
<!-- Node24&#45;&gt;Node26 -->
<g id="edge35" class="edge"><title>Node24&#45;&gt;Node26</title>
<path fill="none" stroke="midnightblue" d="M1888.7,-175.909C1789.42,-173.055 1552.23,-163.27 1355.99,-132 1354.29,-131.728 1352.54,-131.418 1350.79,-131.081"/>
<polygon fill="midnightblue" stroke="midnightblue" points="1351.3,-127.61 1340.79,-128.919 1349.82,-134.452 1351.3,-127.61"/>
</g>
<!-- Node27 -->
<g id="node27" class="node"><title>Node27</title>
<g id="a_node27"><a xlink:href="searchtree_8h" target="_top" xlink:title="searchtree.h">
<polygon fill="white" stroke="black" points="1973.49,-112.5 1973.49,-131.5 2042.49,-131.5 2042.49,-112.5 1973.49,-112.5"/>
<text text-anchor="middle" x="2007.99" y="-119.5" font-family="FreeSans" font-size="10.00">searchtree.h</text>
</a>
</g>
</g>
<!-- Node24&#45;&gt;Node27 -->
<g id="edge37" class="edge"><title>Node24&#45;&gt;Node27</title>
<path fill="none" stroke="midnightblue" d="M1947.56,-168.324C1958.41,-160.185 1974.87,-147.839 1987.87,-138.087"/>
<polygon fill="midnightblue" stroke="midnightblue" points="1990.31,-140.634 1996.21,-131.834 1986.11,-135.034 1990.31,-140.634"/>
</g>
<!-- Node27&#45;&gt;Node5 -->
<g id="edge40" class="edge"><title>Node27&#45;&gt;Node5</title>
<path fill="none" stroke="midnightblue" d="M1973.26,-118.916C1829.05,-110.264 1278.53,-77.2325 1139.85,-68.9117"/>
<polygon fill="midnightblue" stroke="midnightblue" points="1139.7,-65.3963 1129.51,-68.291 1139.28,-72.3837 1139.7,-65.3963"/>
</g>
<!-- Node27&#45;&gt;Node6 -->
<g id="edge39" class="edge"><title>Node27&#45;&gt;Node6</title>
<path fill="none" stroke="midnightblue" d="M1973.34,-113.605C1927.1,-103.735 1845.33,-86.2816 1796.05,-75.7628"/>
<polygon fill="midnightblue" stroke="midnightblue" points="1796.56,-72.2932 1786.05,-73.6286 1795.1,-79.139 1796.56,-72.2932"/>
</g>
<!-- Node27&#45;&gt;Node19 -->
<g id="edge41" class="edge"><title>Node27&#45;&gt;Node19</title>
<path fill="none" stroke="midnightblue" d="M2030.02,-112.444C2054.45,-102.95 2093.89,-87.6297 2120.12,-77.4385"/>
<polygon fill="midnightblue" stroke="midnightblue" points="2121.42,-80.6904 2129.47,-73.8067 2118.88,-74.1655 2121.42,-80.6904"/>
</g>
<!-- Node27&#45;&gt;Node23 -->
<g id="edge42" class="edge"><title>Node27&#45;&gt;Node23</title>
<path fill="none" stroke="midnightblue" d="M2018.11,-112.324C2027.52,-104.263 2041.73,-92.0765 2053.06,-82.3695"/>
<polygon fill="midnightblue" stroke="midnightblue" points="2055.37,-84.9993 2060.68,-75.8339 2050.81,-79.6844 2055.37,-84.9993"/>
</g>
<!-- Node28 -->
<g id="node28" class="node"><title>Node28</title>
<g id="a_node28"><a xlink:href="prep_8h" target="_top" xlink:title="prep.h">
<polygon fill="white" stroke="black" points="1368.49,-0.5 1368.49,-19.5 1411.49,-19.5 1411.49,-0.5 1368.49,-0.5"/>
<text text-anchor="middle" x="1389.99" y="-7.5" font-family="FreeSans" font-size="10.00">prep.h</text>
</a>
</g>
</g>
<!-- Node27&#45;&gt;Node28 -->
<g id="edge38" class="edge"><title>Node27&#45;&gt;Node28</title>
<path fill="none" stroke="midnightblue" d="M1985.36,-112.491C1946.85,-98.3788 1865.87,-70.2763 1794.99,-56 1639.96,-24.7726 1597.63,-41.7562 1440.99,-20 1434.83,-19.1442 1428.27,-18.0936 1421.99,-17.016"/>
<polygon fill="midnightblue" stroke="midnightblue" points="1422.23,-13.5053 1411.78,-15.2067 1421.01,-20.3979 1422.23,-13.5053"/>
</g>
<!-- Node29&#45;&gt;Node6 -->
<g id="edge49" class="edge"><title>Node29&#45;&gt;Node6</title>
<path fill="none" stroke="midnightblue" d="M1868.01,-453.789C1982.69,-443.681 2301.85,-408.777 2262.99,-336 2247.18,-306.397 2041.71,-183.594 2011.99,-168 1973.48,-147.789 1959.95,-151.34 1920.99,-132 1905.63,-124.374 1903.54,-119.236 1887.99,-112 1858.11,-98.0925 1822.68,-86.3217 1795.91,-78.3107"/>
<polygon fill="midnightblue" stroke="midnightblue" points="1796.69,-74.8902 1786.1,-75.4279 1794.71,-81.606 1796.69,-74.8902"/>
</g>
<!-- Node29&#45;&gt;Node7 -->
<g id="edge52" class="edge"><title>Node29&#45;&gt;Node7</title>
<path fill="none" stroke="midnightblue" d="M1787.7,-456.429C1599.85,-453.624 814.697,-440.29 708.991,-412 648.882,-395.913 584.991,-409.224 584.991,-347 584.991,-347 584.991,-347 584.991,-177 584.991,-120.51 653.553,-90.8414 700.914,-77.0857"/>
<polygon fill="midnightblue" stroke="midnightblue" points="701.962,-80.4275 710.667,-74.388 700.096,-73.6808 701.962,-80.4275"/>
</g>
<!-- Node29&#45;&gt;Node8 -->
<g id="edge46" class="edge"><title>Node29&#45;&gt;Node8</title>
<path fill="none" stroke="midnightblue" d="M1787.84,-456.53C1604.28,-454.229 843.88,-442.972 607.991,-412 479.177,-395.087 322.991,-476.919 322.991,-347 322.991,-347 322.991,-347 322.991,-177 322.991,-144.489 331.15,-107.35 336.775,-85.6103"/>
<polygon fill="midnightblue" stroke="midnightblue" points="340.209,-86.3175 339.428,-75.7514 333.449,-84.498 340.209,-86.3175"/>
</g>
<!-- Node29&#45;&gt;Node22 -->
<g id="edge44" class="edge"><title>Node29&#45;&gt;Node22</title>
<path fill="none" stroke="midnightblue" d="M1868.28,-454.502C1951.06,-448.977 2137.5,-434.409 2196.99,-412 2238.29,-396.442 2252.21,-391.079 2278.99,-356 2342.28,-273.094 2338,-235.723 2348.99,-132 2349.93,-123.161 2349.96,-120.836 2348.99,-112 2348.02,-103.14 2346,-93.4716 2344.03,-85.3755"/>
<polygon fill="midnightblue" stroke="midnightblue" points="2347.37,-84.333 2341.47,-75.5332 2340.6,-86.0919 2347.37,-84.333"/>
</g>
<!-- Node29&#45;&gt;Node25 -->
<g id="edge50" class="edge"><title>Node29&#45;&gt;Node25</title>
<path fill="none" stroke="midnightblue" d="M1826.99,-448.302C1822.43,-411.639 1801.22,-267.038 1739.99,-168 1733.06,-156.796 1722.76,-146.366 1713.66,-138.375"/>
<polygon fill="midnightblue" stroke="midnightblue" points="1715.68,-135.506 1705.77,-131.769 1711.19,-140.873 1715.68,-135.506"/>
</g>
<!-- Node29&#45;&gt;Node30 -->
<g id="edge45" class="edge"><title>Node29&#45;&gt;Node30</title>
<path fill="none" stroke="midnightblue" d="M1868.17,-455.922C2014.57,-450.925 2510.99,-424.163 2510.99,-291 2510.99,-291 2510.99,-291 2510.99,-121 2510.99,-63.8306 2454.78,-72.3116 2399.99,-56 2315.31,-30.7897 1690.53,-15.5429 1522.5,-11.8686"/>
<polygon fill="midnightblue" stroke="midnightblue" points="1522.4,-8.36577 1512.33,-11.6482 1522.25,-15.3641 1522.4,-8.36577"/>
</g>
<!-- Node31 -->
<g id="node31" class="node"><title>Node31</title>
<polygon fill="white" stroke="#bfbfbf" points="2106.49,-336.5 2106.49,-355.5 2165.49,-355.5 2165.49,-336.5 2106.49,-336.5"/>
<text text-anchor="middle" x="2135.99" y="-343.5" font-family="FreeSans" font-size="10.00">wx/filefn.h</text>
</g>
<!-- Node29&#45;&gt;Node31 -->
<g id="edge47" class="edge"><title>Node29&#45;&gt;Node31</title>
<path fill="none" stroke="midnightblue" d="M1851.9,-448.46C1906.37,-429.006 2039.8,-381.355 2102.46,-358.977"/>
<polygon fill="midnightblue" stroke="midnightblue" points="2103.64,-362.27 2111.88,-355.61 2101.29,-355.678 2103.64,-362.27"/>
</g>
<!-- Node32 -->
<g id="node32" class="node"><title>Node32</title>
<polygon fill="white" stroke="#bfbfbf" points="2183.49,-336.5 2183.49,-355.5 2254.49,-355.5 2254.49,-336.5 2183.49,-336.5"/>
<text text-anchor="middle" x="2218.99" y="-343.5" font-family="FreeSans" font-size="10.00">wx/imaglist.h</text>
</g>
<!-- Node29&#45;&gt;Node32 -->
<g id="edge48" class="edge"><title>Node29&#45;&gt;Node32</title>
<path fill="none" stroke="midnightblue" d="M1860.57,-448.5C1894.46,-439.605 1949.03,-425.132 1995.99,-412 2061.03,-393.814 2136.4,-371.608 2180.75,-358.422"/>
<polygon fill="midnightblue" stroke="midnightblue" points="2181.95,-361.718 2190.53,-355.511 2179.95,-355.009 2181.95,-361.718"/>
</g>
<!-- Node33 -->
<g id="node33" class="node"><title>Node33</title>
<polygon fill="white" stroke="#bfbfbf" points="1092.99,-112.5 1092.99,-131.5 1152.99,-131.5 1152.99,-112.5 1092.99,-112.5"/>
<text text-anchor="middle" x="1122.99" y="-119.5" font-family="FreeSans" font-size="10.00">wx/timer.h</text>
</g>
<!-- Node29&#45;&gt;Node33 -->
<g id="edge51" class="edge"><title>Node29&#45;&gt;Node33</title>
<path fill="none" stroke="midnightblue" d="M1787.89,-456.976C1598.75,-456.346 804.991,-447.702 804.991,-347 804.991,-347 804.991,-347 804.991,-289 804.991,-207.429 870.729,-205.843 942.991,-168 967.066,-155.392 1037.61,-139.854 1082.9,-130.726"/>
<polygon fill="midnightblue" stroke="midnightblue" points="1083.59,-134.158 1092.71,-128.769 1082.22,-127.293 1083.59,-134.158"/>
</g>
<!-- Node34 -->
<g id="node34" class="node"><title>Node34</title>
<g id="a_node34"><a xlink:href="cbthreadpool_8h" target="_top" xlink:title="cbthreadpool.h">
<polygon fill="white" stroke="black" points="764.991,-168.5 764.991,-187.5 844.991,-187.5 844.991,-168.5 764.991,-168.5"/>
<text text-anchor="middle" x="804.991" y="-175.5" font-family="FreeSans" font-size="10.00">cbthreadpool.h</text>
</a>
</g>
</g>
<!-- Node29&#45;&gt;Node34 -->
<g id="edge53" class="edge"><title>Node29&#45;&gt;Node34</title>
<path fill="none" stroke="midnightblue" d="M1787.74,-457.022C1607.92,-456.883 882.878,-453.719 790.991,-412 754.639,-395.495 728.991,-386.923 728.991,-347 728.991,-347 728.991,-347 728.991,-289 728.991,-249.276 762.955,-213.504 785.473,-194.154"/>
<polygon fill="midnightblue" stroke="midnightblue" points="787.966,-196.634 793.448,-187.567 783.509,-191.236 787.966,-196.634"/>
</g>
<!-- Node37 -->
<g id="node37" class="node"><title>Node37</title>
<g id="a_node37"><a xlink:href="sdk__events_8h" target="_top" xlink:title="sdk_events.h">
<polygon fill="white" stroke="black" points="888.991,-56.5 888.991,-75.5 960.991,-75.5 960.991,-56.5 888.991,-56.5"/>
<text text-anchor="middle" x="924.991" y="-63.5" font-family="FreeSans" font-size="10.00">sdk_events.h</text>
</a>
</g>
</g>
<!-- Node29&#45;&gt;Node37 -->
<g id="edge61" class="edge"><title>Node29&#45;&gt;Node37</title>
<path fill="none" stroke="midnightblue" d="M1787.89,-457.186C1603.63,-457.795 843.108,-457.509 747.991,-412 713.33,-395.417 690.991,-385.423 690.991,-347 690.991,-347 690.991,-347 690.991,-289 690.991,-207.375 681.372,-168.803 739.991,-112 745.064,-107.084 825.886,-88.661 879.009,-76.9665"/>
<polygon fill="midnightblue" stroke="midnightblue" points="879.89,-80.3565 888.907,-74.7946 878.389,-73.5192 879.89,-80.3565"/>
</g>
<!-- Node38 -->
<g id="node38" class="node"><title>Node38</title>
<g id="a_node38"><a xlink:href="parserthread_8h" target="_top" xlink:title="parserthread.h">
<polygon fill="white" stroke="black" points="1648.49,-336.5 1648.49,-355.5 1725.49,-355.5 1725.49,-336.5 1648.49,-336.5"/>
<text text-anchor="middle" x="1686.99" y="-343.5" font-family="FreeSans" font-size="10.00">parserthread.h</text>
</a>
</g>
</g>
<!-- Node29&#45;&gt;Node38 -->
<g id="edge66" class="edge"><title>Node29&#45;&gt;Node38</title>
<path fill="none" stroke="midnightblue" d="M1816.93,-448.368C1792.94,-429.653 1735.89,-385.151 1706,-361.832"/>
<polygon fill="midnightblue" stroke="midnightblue" points="1708.04,-358.983 1698,-355.591 1703.74,-364.502 1708.04,-358.983"/>
</g>
<!-- Node50 -->
<g id="node50" class="node"><title>Node50</title>
<g id="a_node50"><a xlink:href="parser__base_8h" target="_top" xlink:title="parser_base.h">
<polygon fill="white" stroke="black" points="1865.99,-392.5 1865.99,-411.5 1941.99,-411.5 1941.99,-392.5 1865.99,-392.5"/>
<text text-anchor="middle" x="1903.99" y="-399.5" font-family="FreeSans" font-size="10.00">parser_base.h</text>
</a>
</g>
</g>
<!-- Node29&#45;&gt;Node50 -->
<g id="edge120" class="edge"><title>Node29&#45;&gt;Node50</title>
<path fill="none" stroke="midnightblue" d="M1840.2,-448.324C1851.77,-440.107 1869.37,-427.602 1883.15,-417.807"/>
<polygon fill="midnightblue" stroke="midnightblue" points="1885.43,-420.479 1891.56,-411.834 1881.38,-414.773 1885.43,-420.479"/>
</g>
<!-- Node34&#45;&gt;Node5 -->
<g id="edge56" class="edge"><title>Node34&#45;&gt;Node5</title>
<path fill="none" stroke="midnightblue" d="M845.037,-169.981C910.075,-158.494 1032.33,-136.502 1040.99,-132 1063.35,-120.379 1083.26,-98.8965 1095.46,-83.8184"/>
<polygon fill="midnightblue" stroke="midnightblue" points="1098.32,-85.8429 1101.7,-75.8037 1092.79,-81.54 1098.32,-85.8429"/>
</g>
<!-- Node34&#45;&gt;Node12 -->
<g id="edge59" class="edge"><title>Node34&#45;&gt;Node12</title>
<path fill="none" stroke="midnightblue" d="M764.772,-177.812C682.999,-178.536 501.64,-175.111 460.991,-132 434.821,-104.245 450.65,-55.2608 462.175,-28.9339"/>
<polygon fill="midnightblue" stroke="midnightblue" points="465.402,-30.295 466.429,-19.7501 459.05,-27.3529 465.402,-30.295"/>
</g>
<!-- Node34&#45;&gt;Node25 -->
<g id="edge54" class="edge"><title>Node34&#45;&gt;Node25</title>
<path fill="none" stroke="midnightblue" d="M845.207,-174.557C992.261,-165.625 1500.07,-134.78 1651.22,-125.598"/>
<polygon fill="midnightblue" stroke="midnightblue" points="1651.71,-129.075 1661.47,-124.975 1651.28,-122.088 1651.71,-129.075"/>
</g>
<!-- Node34&#45;&gt;Node28 -->
<g id="edge60" class="edge"><title>Node34&#45;&gt;Node28</title>
<path fill="none" stroke="midnightblue" d="M818.138,-168.394C856.994,-143.116 971.193,-69.9831 1012.99,-56 1135.86,-14.8948 1292.3,-10.3825 1358.33,-10.5033"/>
<polygon fill="midnightblue" stroke="midnightblue" points="1358.47,-14.004 1368.49,-10.561 1358.51,-7.00415 1358.47,-14.004"/>
</g>
<!-- Node34&#45;&gt;Node30 -->
<g id="edge55" class="edge"><title>Node34&#45;&gt;Node30</title>
<path fill="none" stroke="midnightblue" d="M824.558,-168.402C845.1,-159.366 878.335,-144.727 906.991,-132 982.629,-98.4079 997.063,-77.4756 1076.99,-56 1225.02,-16.2256 1267.92,-39.1908 1419.99,-20 1426.33,-19.1996 1433.04,-18.2829 1439.59,-17.3477"/>
<polygon fill="midnightblue" stroke="midnightblue" points="1440.29,-20.7824 1449.68,-15.8769 1439.28,-13.8555 1440.29,-20.7824"/>
</g>
<!-- Node35 -->
<g id="node35" class="node"><title>Node35</title>
<polygon fill="white" stroke="#bfbfbf" points="1170.49,-112.5 1170.49,-131.5 1199.49,-131.5 1199.49,-112.5 1170.49,-112.5"/>
<text text-anchor="middle" x="1184.99" y="-119.5" font-family="FreeSans" font-size="10.00">list</text>
</g>
<!-- Node34&#45;&gt;Node35 -->
<g id="edge57" class="edge"><title>Node34&#45;&gt;Node35</title>
<path fill="none" stroke="midnightblue" d="M845.16,-173.201C921.764,-165.759 1087,-148.704 1160.35,-131.83"/>
<polygon fill="midnightblue" stroke="midnightblue" points="1161.19,-135.228 1170.07,-129.452 1159.53,-128.429 1161.19,-135.228"/>
</g>
<!-- Node36 -->
<g id="node36" class="node"><title>Node36</title>
<g id="a_node36"><a xlink:href="cbthreadedtask_8h" target="_top" xlink:title="cbthreadedtask.h">
<polygon fill="white" stroke="black" points="764.991,-112.5 764.991,-131.5 854.991,-131.5 854.991,-112.5 764.991,-112.5"/>
<text text-anchor="middle" x="809.991" y="-119.5" font-family="FreeSans" font-size="10.00">cbthreadedtask.h</text>
</a>
</g>
</g>
<!-- Node34&#45;&gt;Node36 -->
<g id="edge58" class="edge"><title>Node34&#45;&gt;Node36</title>
<path fill="none" stroke="midnightblue" d="M805.816,-168.083C806.472,-161.006 807.411,-150.861 808.233,-141.986"/>
<polygon fill="midnightblue" stroke="midnightblue" points="811.744,-142.031 809.181,-131.751 804.773,-141.386 811.744,-142.031"/>
</g>
<!-- Node37&#45;&gt;Node2 -->
<g id="edge63" class="edge"><title>Node37&#45;&gt;Node2</title>
<path fill="none" stroke="midnightblue" d="M888.704,-57.3636C885.763,-56.8604 882.831,-56.3971 879.991,-56 682.6,-28.4088 629.866,-51.057 432.991,-20 432.237,-19.8812 431.477,-19.7554 430.711,-19.6235"/>
<polygon fill="midnightblue" stroke="midnightblue" points="431.13,-16.1386 420.641,-17.6339 429.773,-23.0059 431.13,-16.1386"/>
</g>
<!-- Node37&#45;&gt;Node12 -->
<g id="edge64" class="edge"><title>Node37&#45;&gt;Node12</title>
<path fill="none" stroke="midnightblue" d="M888.69,-57.4554C885.752,-56.9317 882.825,-56.4385 879.991,-56 744.745,-35.0766 582.87,-20.268 509.963,-14.1398"/>
<polygon fill="midnightblue" stroke="midnightblue" points="510.122,-10.641 499.866,-13.299 509.541,-17.6169 510.122,-10.641"/>
</g>
<!-- Node37&#45;&gt;Node28 -->
<g id="edge65" class="edge"><title>Node37&#45;&gt;Node28</title>
<path fill="none" stroke="midnightblue" d="M960.992,-58.2088C965.693,-57.4134 970.451,-56.6539 974.991,-56 1117.29,-35.5031 1288.27,-19.7497 1358.02,-13.6973"/>
<polygon fill="midnightblue" stroke="midnightblue" points="1358.66,-17.155 1368.32,-12.8099 1358.06,-10.1808 1358.66,-17.155"/>
</g>
<!-- Node37&#45;&gt;Node30 -->
<g id="edge62" class="edge"><title>Node37&#45;&gt;Node30</title>
<path fill="none" stroke="midnightblue" d="M961.372,-61.1662C977.223,-59.5252 996.021,-57.6182 1012.99,-56 1193.77,-38.7617 1239.64,-41.2619 1419.99,-20 1426.34,-19.2515 1433.05,-18.3625 1439.6,-17.4392"/>
<polygon fill="midnightblue" stroke="midnightblue" points="1440.3,-20.8744 1449.69,-15.9754 1439.29,-13.9468 1440.3,-20.8744"/>
</g>
<!-- Node38&#45;&gt;Node5 -->
<g id="edge72" class="edge"><title>Node38&#45;&gt;Node5</title>
<path fill="none" stroke="midnightblue" d="M1648.43,-345.116C1486.62,-344.675 865.68,-333.419 755.991,-188 735.65,-161.034 733.672,-137.354 755.991,-112 777.026,-88.1048 993.552,-73.4607 1076.18,-68.7059"/>
<polygon fill="midnightblue" stroke="midnightblue" points="1076.46,-72.1957 1086.25,-68.1377 1076.07,-65.2069 1076.46,-72.1957"/>
</g>
<!-- Node38&#45;&gt;Node6 -->
<g id="edge69" class="edge"><title>Node38&#45;&gt;Node6</title>
<path fill="none" stroke="midnightblue" d="M1709.83,-336.404C1725.45,-329.215 1745.08,-317.324 1754.99,-300 1795.2,-229.744 1772.55,-126.949 1760.74,-85.4177"/>
<polygon fill="midnightblue" stroke="midnightblue" points="1764.09,-84.4069 1757.89,-75.8185 1757.38,-86.4012 1764.09,-84.4069"/>
</g>
<!-- Node38&#45;&gt;Node20 -->
<g id="edge71" class="edge"><title>Node38&#45;&gt;Node20</title>
<path fill="none" stroke="midnightblue" d="M1725.54,-345.333C1804.52,-345.111 1989.88,-339.941 2138.99,-300 2197.4,-284.354 2221.18,-287.683 2262.99,-244 2275.19,-231.253 2281.92,-212.057 2285.45,-197.828"/>
<polygon fill="midnightblue" stroke="midnightblue" points="2288.95,-198.213 2287.65,-187.699 2282.11,-196.731 2288.95,-198.213"/>
</g>
<!-- Node38&#45;&gt;Node21 -->
<g id="edge118" class="edge"><title>Node38&#45;&gt;Node21</title>
<path fill="none" stroke="midnightblue" d="M1719.03,-336.481C1748.89,-328.221 1794.49,-314.797 1832.99,-300 1970.35,-247.205 2127.86,-167.681 2188.43,-136.357"/>
<polygon fill="midnightblue" stroke="midnightblue" points="2190.36,-139.299 2197.63,-131.586 2187.14,-133.085 2190.36,-139.299"/>
</g>
<!-- Node38&#45;&gt;Node24 -->
<g id="edge119" class="edge"><title>Node38&#45;&gt;Node24</title>
<path fill="none" stroke="midnightblue" d="M1718.27,-336.482C1742.72,-329.015 1776.98,-316.731 1803.99,-300 1852.43,-269.997 1899.17,-220.933 1921.81,-195.481"/>
<polygon fill="midnightblue" stroke="midnightblue" points="1924.57,-197.641 1928.54,-187.816 1919.31,-193.025 1924.57,-197.641"/>
</g>
<!-- Node38&#45;&gt;Node25 -->
<g id="edge70" class="edge"><title>Node38&#45;&gt;Node25</title>
<path fill="none" stroke="midnightblue" d="M1700.78,-336.189C1711.82,-328.241 1726.49,-315.447 1732.99,-300 1743.54,-274.912 1768.2,-299.669 1722.99,-168 1719.53,-157.909 1713.34,-147.819 1707.56,-139.759"/>
<polygon fill="midnightblue" stroke="midnightblue" points="1710.23,-137.476 1701.39,-131.629 1704.65,-141.709 1710.23,-137.476"/>
</g>
<!-- Node38&#45;&gt;Node30 -->
<g id="edge68" class="edge"><title>Node38&#45;&gt;Node30</title>
<path fill="none" stroke="midnightblue" d="M1674.14,-336.274C1663.38,-328.205 1648.58,-315.189 1640.99,-300 1625.76,-269.527 1642.5,-256.065 1630.99,-224 1601.12,-140.806 1529.43,-60.4963 1497.19,-27.1541"/>
<polygon fill="midnightblue" stroke="midnightblue" points="1499.39,-24.4022 1489.89,-19.7161 1494.4,-29.305 1499.39,-24.4022"/>
</g>
<!-- Node38&#45;&gt;Node34 -->
<g id="edge73" class="edge"><title>Node38&#45;&gt;Node34</title>
<path fill="none" stroke="midnightblue" d="M1648.27,-342.12C1575.57,-336.406 1413.82,-322.232 1278.99,-300 1164.93,-281.192 1136.94,-272.84 1024.99,-244 959.692,-227.177 884.536,-204.175 841.124,-190.525"/>
<polygon fill="midnightblue" stroke="midnightblue" points="842.166,-187.184 831.576,-187.513 840.06,-193.86 842.166,-187.184"/>
</g>
<!-- Node39 -->
<g id="node39" class="node"><title>Node39</title>
<polygon fill="white" stroke="#bfbfbf" points="1649.99,-280.5 1649.99,-299.5 1723.99,-299.5 1723.99,-280.5 1649.99,-280.5"/>
<text text-anchor="middle" x="1686.99" y="-287.5" font-family="FreeSans" font-size="10.00">wx/dynarray.h</text>
</g>
<!-- Node38&#45;&gt;Node39 -->
<g id="edge67" class="edge"><title>Node38&#45;&gt;Node39</title>
<path fill="none" stroke="midnightblue" d="M1686.99,-336.083C1686.99,-329.006 1686.99,-318.861 1686.99,-309.986"/>
<polygon fill="midnightblue" stroke="midnightblue" points="1690.49,-309.751 1686.99,-299.751 1683.49,-309.751 1690.49,-309.751"/>
</g>
<!-- Node40 -->
<g id="node40" class="node"><title>Node40</title>
<g id="a_node40"><a xlink:href="filemanager_8h" target="_top" xlink:title="filemanager.h">
<polygon fill="white" stroke="black" points="1243.99,-224.5 1243.99,-243.5 1317.99,-243.5 1317.99,-224.5 1243.99,-224.5"/>
<text text-anchor="middle" x="1280.99" y="-231.5" font-family="FreeSans" font-size="10.00">filemanager.h</text>
</a>
</g>
</g>
<!-- Node38&#45;&gt;Node40 -->
<g id="edge74" class="edge"><title>Node38&#45;&gt;Node40</title>
<path fill="none" stroke="midnightblue" d="M1654.37,-336.47C1620.13,-327.49 1564.74,-312.895 1516.99,-300 1448.19,-281.419 1368.26,-259.29 1321.3,-246.234"/>
<polygon fill="midnightblue" stroke="midnightblue" points="1322.09,-242.82 1311.51,-243.512 1320.21,-249.564 1322.09,-242.82"/>
</g>
<!-- Node46 -->
<g id="node46" class="node"><title>Node46</title>
<g id="a_node46"><a xlink:href="logmanager_8h" target="_top" xlink:title="logmanager.h">
<polygon fill="white" stroke="black" points="1492.99,-168.5 1492.99,-187.5 1566.99,-187.5 1566.99,-168.5 1492.99,-168.5"/>
<text text-anchor="middle" x="1529.99" y="-175.5" font-family="FreeSans" font-size="10.00">logmanager.h</text>
</a>
</g>
</g>
<!-- Node38&#45;&gt;Node46 -->
<g id="edge99" class="edge"><title>Node38&#45;&gt;Node46</title>
<path fill="none" stroke="midnightblue" d="M1662.16,-336.471C1642.56,-328.927 1615.22,-316.545 1594.99,-300 1570.7,-280.136 1566.78,-271.679 1551.99,-244 1544.1,-229.223 1538.24,-211.066 1534.56,-197.703"/>
<polygon fill="midnightblue" stroke="midnightblue" points="1537.88,-196.584 1531.99,-187.784 1531.11,-198.342 1537.88,-196.584"/>
</g>
<!-- Node48 -->
<g id="node48" class="node"><title>Node48</title>
<g id="a_node48"><a xlink:href="cclogger_8h" target="_top" xlink:title="cclogger.h">
<polygon fill="white" stroke="red" points="1561.49,-224.5 1561.49,-243.5 1622.49,-243.5 1622.49,-224.5 1561.49,-224.5"/>
<text text-anchor="middle" x="1591.99" y="-231.5" font-family="FreeSans" font-size="10.00">cclogger.h</text>
</a>
</g>
</g>
<!-- Node38&#45;&gt;Node48 -->
<g id="edge106" class="edge"><title>Node38&#45;&gt;Node48</title>
<path fill="none" stroke="midnightblue" d="M1660.86,-336.362C1643.37,-329.266 1621.22,-317.504 1607.99,-300 1598.03,-286.817 1594.2,-268.226 1592.76,-254.302"/>
<polygon fill="midnightblue" stroke="midnightblue" points="1596.22,-253.655 1592.03,-243.924 1589.24,-254.144 1596.22,-253.655"/>
</g>
<!-- Node49 -->
<g id="node49" class="node"><title>Node49</title>
<g id="a_node49"><a xlink:href="tokenizer_8h" target="_top" xlink:title="tokenizer.h">
<polygon fill="white" stroke="red" points="1288.49,-280.5 1288.49,-299.5 1351.49,-299.5 1351.49,-280.5 1288.49,-280.5"/>
<text text-anchor="middle" x="1319.99" y="-287.5" font-family="FreeSans" font-size="10.00">tokenizer.h</text>
</a>
</g>
</g>
<!-- Node38&#45;&gt;Node49 -->
<g id="edge112" class="edge"><title>Node38&#45;&gt;Node49</title>
<path fill="none" stroke="midnightblue" d="M1648.41,-339.323C1578.95,-329.103 1433.42,-307.69 1361.73,-297.141"/>
<polygon fill="midnightblue" stroke="midnightblue" points="1362.11,-293.659 1351.7,-295.666 1361.09,-300.585 1362.11,-293.659"/>
</g>
<!-- Node40&#45;&gt;Node6 -->
<g id="edge76" class="edge"><title>Node40&#45;&gt;Node6</title>
<path fill="none" stroke="midnightblue" d="M1285.81,-224.278C1294.1,-210.116 1312.49,-182.268 1335.99,-168 1397.93,-130.401 1424.51,-148.788 1494.99,-132 1572.64,-113.505 1662.99,-90.6065 1714.14,-77.5131"/>
<polygon fill="midnightblue" stroke="midnightblue" points="1715.01,-80.9024 1723.83,-75.0294 1713.27,-74.1215 1715.01,-80.9024"/>
</g>
<!-- Node40&#45;&gt;Node8 -->
<g id="edge91" class="edge"><title>Node40&#45;&gt;Node8</title>
<path fill="none" stroke="midnightblue" d="M1243.52,-230.964C1101.25,-222.849 595.036,-190.395 445.991,-132 413.87,-119.415 380.749,-96.7236 360.76,-81.7593"/>
<polygon fill="midnightblue" stroke="midnightblue" points="362.868,-78.9652 352.795,-75.6815 358.622,-84.5302 362.868,-78.9652"/>
</g>
<!-- Node40&#45;&gt;Node9 -->
<g id="edge92" class="edge"><title>Node40&#45;&gt;Node9</title>
<path fill="none" stroke="midnightblue" d="M1243.92,-232.65C1129.7,-231.191 788.894,-223.844 755.991,-188 733.149,-163.117 739.097,-141.25 755.991,-112 764.667,-96.9772 780.478,-86.5229 795.607,-79.4992"/>
<polygon fill="midnightblue" stroke="midnightblue" points="797.038,-82.6943 804.87,-75.5592 794.298,-76.2529 797.038,-82.6943"/>
</g>
<!-- Node40&#45;&gt;Node25 -->
<g id="edge75" class="edge"><title>Node40&#45;&gt;Node25</title>
<path fill="none" stroke="midnightblue" d="M1290.38,-224.327C1306.52,-209.974 1341.15,-181.525 1375.99,-168 1425.39,-148.823 1576.72,-133.317 1651.4,-126.602"/>
<polygon fill="midnightblue" stroke="midnightblue" points="1651.76,-130.084 1661.41,-125.713 1651.14,-123.111 1651.76,-130.084"/>
</g>
<!-- Node40&#45;&gt;Node26 -->
<g id="edge89" class="edge"><title>Node40&#45;&gt;Node26</title>
<path fill="none" stroke="midnightblue" d="M1283.97,-224.368C1290.13,-206.537 1304.38,-165.295 1312.68,-141.272"/>
<polygon fill="midnightblue" stroke="midnightblue" points="1316.07,-142.186 1316.02,-131.591 1309.45,-139.9 1316.07,-142.186"/>
</g>
<!-- Node41 -->
<g id="node41" class="node"><title>Node41</title>
<polygon fill="white" stroke="#bfbfbf" points="1082.49,-168.5 1082.49,-187.5 1133.49,-187.5 1133.49,-168.5 1082.49,-168.5"/>
<text text-anchor="middle" x="1107.99" y="-175.5" font-family="FreeSans" font-size="10.00">wx/log.h</text>
</g>
<!-- Node40&#45;&gt;Node41 -->
<g id="edge77" class="edge"><title>Node40&#45;&gt;Node41</title>
<path fill="none" stroke="midnightblue" d="M1253.58,-224.444C1223.7,-215.118 1175.82,-200.171 1143.18,-189.985"/>
<polygon fill="midnightblue" stroke="midnightblue" points="1144.17,-186.627 1133.58,-186.988 1142.09,-193.309 1144.17,-186.627"/>
</g>
<!-- Node42 -->
<g id="node42" class="node"><title>Node42</title>
<g id="a_node42"><a xlink:href="backgroundthread_8h" target="_top" xlink:title="backgroundthread.h">
<polygon fill="white" stroke="red" points="1151.49,-168.5 1151.49,-187.5 1252.49,-187.5 1252.49,-168.5 1151.49,-168.5"/>
<text text-anchor="middle" x="1201.99" y="-175.5" font-family="FreeSans" font-size="10.00">backgroundthread.h</text>
</a>
</g>
</g>
<!-- Node40&#45;&gt;Node42 -->
<g id="edge78" class="edge"><title>Node40&#45;&gt;Node42</title>
<path fill="none" stroke="midnightblue" d="M1268.3,-224.324C1256.09,-215.979 1237.41,-203.212 1222.99,-193.352"/>
<polygon fill="midnightblue" stroke="midnightblue" points="1224.88,-190.408 1214.65,-187.655 1220.93,-196.187 1224.88,-190.408"/>
</g>
<!-- Node44 -->
<g id="node44" class="node"><title>Node44</title>
<polygon fill="white" stroke="#bfbfbf" points="1385.49,-168.5 1385.49,-187.5 1436.49,-187.5 1436.49,-168.5 1385.49,-168.5"/>
<text text-anchor="middle" x="1410.99" y="-175.5" font-family="FreeSans" font-size="10.00">memory</text>
</g>
<!-- Node40&#45;&gt;Node44 -->
<g id="edge90" class="edge"><title>Node40&#45;&gt;Node44</title>
<path fill="none" stroke="midnightblue" d="M1301.59,-224.444C1322.98,-215.557 1356.67,-201.563 1381.02,-191.451"/>
<polygon fill="midnightblue" stroke="midnightblue" points="1382.6,-194.585 1390.49,-187.516 1379.91,-188.12 1382.6,-194.585"/>
</g>
<!-- Node45 -->
<g id="node45" class="node"><title>Node45</title>
<g id="a_node45"><a xlink:href="configmanager_8h" target="_top" xlink:title="configmanager.h">
<polygon fill="white" stroke="red" points="977.491,-168.5 977.491,-187.5 1064.49,-187.5 1064.49,-168.5 977.491,-168.5"/>
<text text-anchor="middle" x="1020.99" y="-175.5" font-family="FreeSans" font-size="10.00">configmanager.h</text>
</a>
</g>
</g>
<!-- Node40&#45;&gt;Node45 -->
<g id="edge93" class="edge"><title>Node40&#45;&gt;Node45</title>
<path fill="none" stroke="midnightblue" d="M1243.74,-225.263C1198.68,-215.905 1122.61,-200.105 1072.09,-189.613"/>
<polygon fill="midnightblue" stroke="midnightblue" points="1072.54,-186.131 1062.03,-187.524 1071.11,-192.985 1072.54,-186.131"/>
</g>
<!-- Node42&#45;&gt;Node25 -->
<g id="edge82" class="edge"><title>Node42&#45;&gt;Node25</title>
<path fill="none" stroke="midnightblue" d="M1252.79,-171.424C1349.97,-160.758 1560.59,-137.641 1651.17,-127.7"/>
<polygon fill="midnightblue" stroke="midnightblue" points="1651.79,-131.153 1661.34,-126.583 1651.02,-124.195 1651.79,-131.153"/>
</g>
<!-- Node42&#45;&gt;Node26 -->
<g id="edge79" class="edge"><title>Node42&#45;&gt;Node26</title>
<path fill="none" stroke="midnightblue" d="M1220.53,-168.444C1239.61,-159.636 1269.57,-145.812 1291.43,-135.722"/>
<polygon fill="midnightblue" stroke="midnightblue" points="1292.93,-138.885 1300.54,-131.516 1289.99,-132.529 1292.93,-138.885"/>
</g>
<!-- Node42&#45;&gt;Node33 -->
<g id="edge81" class="edge"><title>Node42&#45;&gt;Node33</title>
<path fill="none" stroke="midnightblue" d="M1189.3,-168.324C1177.09,-159.979 1158.41,-147.212 1143.99,-137.352"/>
<polygon fill="midnightblue" stroke="midnightblue" points="1145.88,-134.408 1135.65,-131.655 1141.93,-140.187 1145.88,-134.408"/>
</g>
<!-- Node42&#45;&gt;Node35 -->
<g id="edge80" class="edge"><title>Node42&#45;&gt;Node35</title>
<path fill="none" stroke="midnightblue" d="M1199.18,-168.083C1196.91,-160.849 1193.62,-150.409 1190.78,-141.397"/>
<polygon fill="midnightblue" stroke="midnightblue" points="1194.09,-140.239 1187.75,-131.751 1187.41,-142.341 1194.09,-140.239"/>
</g>
<!-- Node43 -->
<g id="node43" class="node"><title>Node43</title>
<g id="a_node43"><a xlink:href="manager_8h" target="_top" xlink:title="manager.h">
<polygon fill="white" stroke="red" points="1216.99,-112.5 1216.99,-131.5 1278.99,-131.5 1278.99,-112.5 1216.99,-112.5"/>
<text text-anchor="middle" x="1247.99" y="-119.5" font-family="FreeSans" font-size="10.00">manager.h</text>
</a>
</g>
</g>
<!-- Node42&#45;&gt;Node43 -->
<g id="edge83" class="edge"><title>Node42&#45;&gt;Node43</title>
<path fill="none" stroke="midnightblue" d="M1209.59,-168.083C1216.22,-160.298 1226.01,-148.801 1234.05,-139.367"/>
<polygon fill="midnightblue" stroke="midnightblue" points="1236.72,-141.633 1240.54,-131.751 1231.39,-137.094 1236.72,-141.633"/>
</g>
<!-- Node43&#45;&gt;Node5 -->
<g id="edge85" class="edge"><title>Node43&#45;&gt;Node5</title>
<path fill="none" stroke="midnightblue" d="M1225.81,-112.444C1202.43,-103.425 1165.41,-89.1472 1139.11,-79.0043"/>
<polygon fill="midnightblue" stroke="midnightblue" points="1140.2,-75.6723 1129.61,-75.339 1137.68,-82.2033 1140.2,-75.6723"/>
</g>
<!-- Node43&#45;&gt;Node12 -->
<g id="edge87" class="edge"><title>Node43&#45;&gt;Node12</title>
<path fill="none" stroke="midnightblue" d="M1237.26,-112.291C1218.48,-97.6134 1177.82,-68.3453 1137.99,-56 1019.5,-19.2765 633.807,-12.506 509.782,-11.2717"/>
<polygon fill="midnightblue" stroke="midnightblue" points="509.649,-7.77037 499.617,-11.1772 509.584,-14.7701 509.649,-7.77037"/>
</g>
<!-- Node43&#45;&gt;Node19 -->
<g id="edge84" class="edge"><title>Node43&#45;&gt;Node19</title>
<path fill="none" stroke="midnightblue" d="M1279.34,-113.397C1282.25,-112.857 1285.17,-112.377 1287.99,-112 1643.4,-64.4583 1737.44,-114.088 2093.99,-76 2102.25,-75.1177 2111.17,-73.7611 2119.3,-72.3666"/>
<polygon fill="midnightblue" stroke="midnightblue" points="2120.18,-75.7646 2129.4,-70.5483 2118.94,-68.8753 2120.18,-75.7646"/>
</g>
<!-- Node43&#45;&gt;Node30 -->
<g id="edge86" class="edge"><title>Node43&#45;&gt;Node30</title>
<path fill="none" stroke="midnightblue" d="M1266.27,-112.368C1307.02,-93.131 1405.48,-46.6478 1453.6,-23.9314"/>
<polygon fill="midnightblue" stroke="midnightblue" points="1455.24,-27.0257 1462.79,-19.5914 1452.26,-20.6956 1455.24,-27.0257"/>
</g>
<!-- Node43&#45;&gt;Node37 -->
<g id="edge88" class="edge"><title>Node43&#45;&gt;Node37</title>
<path fill="none" stroke="midnightblue" d="M1216.59,-113.736C1213.69,-113.125 1210.79,-112.536 1207.99,-112 1124.97,-96.076 1027.48,-81.4653 971.3,-73.4403"/>
<polygon fill="midnightblue" stroke="midnightblue" points="971.698,-69.9617 961.305,-72.0197 970.713,-76.8921 971.698,-69.9617"/>
</g>
<!-- Node45&#45;&gt;Node4 -->
<g id="edge95" class="edge"><title>Node45&#45;&gt;Node4</title>
<path fill="none" stroke="midnightblue" d="M977.418,-172.208C882.131,-161.728 656.625,-136.927 567.333,-127.107"/>
<polygon fill="midnightblue" stroke="midnightblue" points="567.459,-123.6 557.137,-125.985 566.694,-130.558 567.459,-123.6"/>
</g>
<!-- Node45&#45;&gt;Node12 -->
<g id="edge94" class="edge"><title>Node45&#45;&gt;Node12</title>
<path fill="none" stroke="midnightblue" d="M977.353,-174.704C854.231,-168.037 511.866,-148.128 493.991,-132 465.374,-106.18 465.653,-56.7331 468.324,-29.7311"/>
<polygon fill="midnightblue" stroke="midnightblue" points="471.815,-30.0145 469.538,-19.6673 464.865,-29.1763 471.815,-30.0145"/>
</g>
<!-- Node45&#45;&gt;Node19 -->
<g id="edge97" class="edge"><title>Node45&#45;&gt;Node19</title>
<path fill="none" stroke="midnightblue" d="M1064.62,-169.007C1067.45,-168.626 1070.26,-168.285 1072.99,-168 1183.47,-156.502 1968.64,-172.688 2071.99,-132 2097.42,-121.988 2120.13,-99.4271 2133.73,-83.7129"/>
<polygon fill="midnightblue" stroke="midnightblue" points="2136.6,-85.7359 2140.31,-75.8104 2131.22,-81.2584 2136.6,-85.7359"/>
</g>
<!-- Node45&#45;&gt;Node23 -->
<g id="edge98" class="edge"><title>Node45&#45;&gt;Node23</title>
<path fill="none" stroke="midnightblue" d="M1064.62,-169.01C1067.45,-168.628 1070.26,-168.286 1072.99,-168 1127.07,-162.351 2007.86,-165.1 2050.99,-132 2064.87,-121.346 2069.39,-101.24 2070.72,-86.198"/>
<polygon fill="midnightblue" stroke="midnightblue" points="2074.23,-86.0835 2071.23,-75.9231 2067.24,-85.7384 2074.23,-86.0835"/>
</g>
<!-- Node45&#45;&gt;Node43 -->
<g id="edge96" class="edge"><title>Node45&#45;&gt;Node43</title>
<path fill="none" stroke="midnightblue" d="M1056.96,-168.444C1097.81,-158.725 1164.34,-142.899 1207.13,-132.721"/>
<polygon fill="midnightblue" stroke="midnightblue" points="1208.01,-136.108 1216.93,-130.388 1206.39,-129.298 1208.01,-136.108"/>
</g>
<!-- Node46&#45;&gt;Node19 -->
<g id="edge105" class="edge"><title>Node46&#45;&gt;Node19</title>
<path fill="none" stroke="midnightblue" d="M1567.34,-176.479C1690.54,-174.447 2078.69,-165.427 2122.99,-132 2137.22,-121.261 2143.02,-101.168 2145.38,-86.1526"/>
<polygon fill="midnightblue" stroke="midnightblue" points="2148.89,-86.2417 2146.6,-75.8991 2141.94,-85.4172 2148.89,-86.2417"/>
</g>
<!-- Node46&#45;&gt;Node43 -->
<g id="edge100" class="edge"><title>Node46&#45;&gt;Node43</title>
<path fill="none" stroke="midnightblue" d="M1492.59,-170.494C1446.93,-162.451 1367.09,-148.073 1289.37,-132.227"/>
<polygon fill="midnightblue" stroke="midnightblue" points="1289.91,-128.765 1279.41,-130.186 1288.5,-135.623 1289.91,-128.765"/>
</g>
<!-- Node47 -->
<g id="node47" class="node"><title>Node47</title>
<g id="a_node47"><a xlink:href="logger_8h" target="_top" xlink:title="logger.h">
<polygon fill="white" stroke="black" points="1364.99,-112.5 1364.99,-131.5 1414.99,-131.5 1414.99,-112.5 1364.99,-112.5"/>
<text text-anchor="middle" x="1389.99" y="-119.5" font-family="FreeSans" font-size="10.00">logger.h</text>
</a>
</g>
</g>
<!-- Node46&#45;&gt;Node47 -->
<g id="edge101" class="edge"><title>Node46&#45;&gt;Node47</title>
<path fill="none" stroke="midnightblue" d="M1507.81,-168.444C1484.56,-159.478 1447.84,-145.314 1421.58,-135.183"/>
<polygon fill="midnightblue" stroke="midnightblue" points="1422.66,-131.85 1412.07,-131.516 1420.14,-138.381 1422.66,-131.85"/>
</g>
<!-- Node47&#45;&gt;Node6 -->
<g id="edge103" class="edge"><title>Node47&#45;&gt;Node6</title>
<path fill="none" stroke="midnightblue" d="M1415.08,-117.288C1476.99,-108.128 1637.55,-84.3744 1713.73,-73.105"/>
<polygon fill="midnightblue" stroke="midnightblue" points="1714.51,-76.5265 1723.89,-71.6005 1713.49,-69.6018 1714.51,-76.5265"/>
</g>
<!-- Node47&#45;&gt;Node12 -->
<g id="edge104" class="edge"><title>Node47&#45;&gt;Node12</title>
<path fill="none" stroke="midnightblue" d="M1367.81,-112.436C1329.27,-97.9781 1247.13,-69.0318 1174.99,-56 924.513,-10.754 616.74,-9.31412 509.783,-10.3743"/>
<polygon fill="midnightblue" stroke="midnightblue" points="509.736,-6.87447 499.776,-10.487 509.815,-13.874 509.736,-6.87447"/>
</g>
<!-- Node47&#45;&gt;Node28 -->
<g id="edge102" class="edge"><title>Node47&#45;&gt;Node28</title>
<path fill="none" stroke="midnightblue" d="M1389.99,-112.368C1389.99,-94.617 1389.99,-53.6664 1389.99,-29.5974"/>
<polygon fill="midnightblue" stroke="midnightblue" points="1393.49,-29.5914 1389.99,-19.5914 1386.49,-29.5915 1393.49,-29.5914"/>
</g>
<!-- Node48&#45;&gt;Node6 -->
<g id="edge107" class="edge"><title>Node48&#45;&gt;Node6</title>
<path fill="none" stroke="midnightblue" d="M1595.38,-224.329C1605.21,-199.525 1634.17,-128.982 1651.99,-112 1669.23,-95.5742 1693.44,-84.5829 1714.06,-77.5776"/>
<polygon fill="midnightblue" stroke="midnightblue" points="1715.38,-80.8288 1723.84,-74.4524 1713.25,-74.1606 1715.38,-80.8288"/>
</g>
<!-- Node48&#45;&gt;Node25 -->
<g id="edge108" class="edge"><title>Node48&#45;&gt;Node25</title>
<path fill="none" stroke="midnightblue" d="M1604.57,-224.178C1616.26,-215.655 1633.79,-202.009 1646.99,-188 1660.98,-173.155 1674.34,-154.022 1683.22,-140.366"/>
<polygon fill="midnightblue" stroke="midnightblue" points="1686.43,-141.846 1688.84,-131.529 1680.52,-138.091 1686.43,-141.846"/>
</g>
<!-- Node48&#45;&gt;Node28 -->
<g id="edge111" class="edge"><title>Node48&#45;&gt;Node28</title>
<path fill="none" stroke="midnightblue" d="M1592.35,-224.192C1592.43,-210.408 1590.51,-183.696 1575.99,-168 1541.34,-130.552 1507.25,-163.342 1466.99,-132 1431.59,-104.439 1407.88,-55.7362 1396.94,-29.3035"/>
<polygon fill="midnightblue" stroke="midnightblue" points="1400.09,-27.7606 1393.15,-19.7598 1393.59,-30.3455 1400.09,-27.7606"/>
</g>
<!-- Node48&#45;&gt;Node44 -->
<g id="edge109" class="edge"><title>Node48&#45;&gt;Node44</title>
<path fill="none" stroke="midnightblue" d="M1563.31,-224.444C1531.69,-215.011 1480.79,-199.824 1446.63,-189.634"/>
<polygon fill="midnightblue" stroke="midnightblue" points="1447.19,-186.148 1436.61,-186.643 1445.19,-192.856 1447.19,-186.148"/>
</g>
<!-- Node48&#45;&gt;Node46 -->
<g id="edge110" class="edge"><title>Node48&#45;&gt;Node46</title>
<path fill="none" stroke="midnightblue" d="M1582.03,-224.324C1572.86,-216.341 1559.05,-204.313 1547.96,-194.653"/>
<polygon fill="midnightblue" stroke="midnightblue" points="1549.97,-191.762 1540.13,-187.834 1545.38,-197.041 1549.97,-191.762"/>
</g>
<!-- Node49&#45;&gt;Node6 -->
<g id="edge113" class="edge"><title>Node49&#45;&gt;Node6</title>
<path fill="none" stroke="midnightblue" d="M1329.68,-280.305C1354.06,-258.797 1420.51,-202.365 1483.99,-168 1561.31,-126.143 1659.64,-94.2936 1714.07,-78.3439"/>
<polygon fill="midnightblue" stroke="midnightblue" points="1715.08,-81.6965 1723.71,-75.552 1713.13,-74.9729 1715.08,-81.6965"/>
</g>
<!-- Node49&#45;&gt;Node21 -->
<g id="edge116" class="edge"><title>Node49&#45;&gt;Node21</title>
<path fill="none" stroke="midnightblue" d="M1351.77,-285.828C1448.64,-275.816 1748.45,-242.298 1991.99,-188 2059.08,-173.041 2135.7,-149.028 2179.12,-134.755"/>
<polygon fill="midnightblue" stroke="midnightblue" points="2180.24,-138.069 2188.64,-131.606 2178.04,-131.423 2180.24,-138.069"/>
</g>
<!-- Node49&#45;&gt;Node35 -->
<g id="edge117" class="edge"><title>Node49&#45;&gt;Node35</title>
<path fill="none" stroke="midnightblue" d="M1288.21,-284.85C1208.97,-273.777 1006.28,-240.732 967.991,-188 933.322,-140.252 947.946,-191.413 1160.11,-132.134"/>
<polygon fill="midnightblue" stroke="midnightblue" points="1161.37,-135.416 1170.04,-129.322 1159.46,-128.681 1161.37,-135.416"/>
</g>
<!-- Node49&#45;&gt;Node40 -->
<g id="edge115" class="edge"><title>Node49&#45;&gt;Node40</title>
<path fill="none" stroke="midnightblue" d="M1313.55,-280.083C1308.04,-272.455 1299.96,-261.264 1293.23,-251.941"/>
<polygon fill="midnightblue" stroke="midnightblue" points="1296,-249.809 1287.31,-243.751 1290.33,-253.907 1296,-249.809"/>
</g>
<!-- Node49&#45;&gt;Node45 -->
<g id="edge114" class="edge"><title>Node49&#45;&gt;Node45</title>
<path fill="none" stroke="midnightblue" d="M1296.53,-280.368C1243.58,-260.89 1114.71,-213.479 1053.85,-191.089"/>
<polygon fill="midnightblue" stroke="midnightblue" points="1054.94,-187.759 1044.34,-187.591 1052.52,-194.329 1054.94,-187.759"/>
</g>
<!-- Node50&#45;&gt;Node6 -->
<g id="edge126" class="edge"><title>Node50&#45;&gt;Node6</title>
<path fill="none" stroke="midnightblue" d="M1912.81,-392.226C1944.23,-359.883 2046.07,-245.208 1991.99,-168 1965.13,-129.652 1935.9,-150.719 1892.99,-132 1875.14,-124.212 1871.53,-120.477 1853.99,-112 1830.58,-100.684 1803.7,-88.5187 1783.87,-79.6935"/>
<polygon fill="midnightblue" stroke="midnightblue" points="1785.03,-76.3793 1774.47,-75.5267 1782.19,-82.7788 1785.03,-76.3793"/>
</g>
<!-- Node50&#45;&gt;Node7 -->
<g id="edge129" class="edge"><title>Node50&#45;&gt;Node7</title>
<path fill="none" stroke="midnightblue" d="M1865.78,-401.244C1734.97,-401.185 1294.03,-393.594 945.991,-300 845.354,-272.937 779.871,-284.28 739.991,-188 725.897,-153.974 733.432,-109.859 739.595,-85.3939"/>
<polygon fill="midnightblue" stroke="midnightblue" points="743,-86.2108 742.248,-75.6427 736.246,-84.3733 743,-86.2108"/>
</g>
<!-- Node50&#45;&gt;Node8 -->
<g id="edge123" class="edge"><title>Node50&#45;&gt;Node8</title>
<path fill="none" stroke="midnightblue" d="M1865.77,-400.957C1750.87,-400.373 1398.66,-395.26 1109.99,-356 993.725,-340.187 964.553,-333.131 851.991,-300 647.993,-239.956 581.41,-249.229 403.991,-132 384.165,-118.9 365.975,-98.3664 354.497,-83.8894"/>
<polygon fill="midnightblue" stroke="midnightblue" points="357.133,-81.5747 348.264,-75.7788 351.583,-85.8404 357.133,-81.5747"/>
</g>
<!-- Node50&#45;&gt;Node22 -->
<g id="edge121" class="edge"><title>Node50&#45;&gt;Node22</title>
<path fill="none" stroke="midnightblue" d="M1923.43,-392.292C1953.29,-379.107 2012.39,-353.737 2063.99,-336 2164.22,-301.552 2208.43,-318.317 2283.99,-244 2304.92,-223.419 2308.62,-215.456 2318.99,-188 2332.05,-153.424 2336.6,-110.101 2338.17,-85.7935"/>
<polygon fill="midnightblue" stroke="midnightblue" points="2341.68,-85.6843 2338.73,-75.5096 2334.69,-85.3056 2341.68,-85.6843"/>
</g>
<!-- Node50&#45;&gt;Node25 -->
<g id="edge127" class="edge"><title>Node50&#45;&gt;Node25</title>
<path fill="none" stroke="midnightblue" d="M1902.39,-392.071C1895.88,-358.192 1868.33,-236.07 1798.99,-168 1788.64,-157.836 1755.82,-144.592 1729.6,-135.107"/>
<polygon fill="midnightblue" stroke="midnightblue" points="1730.53,-131.723 1719.94,-131.671 1728.18,-138.319 1730.53,-131.723"/>
</g>
<!-- Node50&#45;&gt;Node30 -->
<g id="edge122" class="edge"><title>Node50&#45;&gt;Node30</title>
<path fill="none" stroke="midnightblue" d="M1936.13,-392.462C1966.36,-384.139 2012.73,-370.629 2051.99,-356 2072.5,-348.358 2076.34,-343.249 2096.99,-336 2156.39,-315.148 2177.46,-327.705 2233.99,-300 2270.71,-282.005 2280.52,-275.167 2306.99,-244 2364.81,-175.925 2439.54,-120.719 2377.99,-56 2348.14,-24.6155 1694.21,-13.8096 1522.16,-11.5044"/>
<polygon fill="midnightblue" stroke="midnightblue" points="1522.04,-8.00262 1512,-11.3707 1521.95,-15.002 1522.04,-8.00262"/>
</g>
<!-- Node50&#45;&gt;Node31 -->
<g id="edge124" class="edge"><title>Node50&#45;&gt;Node31</title>
<path fill="none" stroke="midnightblue" d="M1940.75,-392.444C1983.22,-382.56 2052.82,-366.359 2096.43,-356.207"/>
<polygon fill="midnightblue" stroke="midnightblue" points="2097.45,-359.565 2106.4,-353.889 2095.86,-352.747 2097.45,-359.565"/>
</g>
<!-- Node50&#45;&gt;Node32 -->
<g id="edge125" class="edge"><title>Node50&#45;&gt;Node32</title>
<path fill="none" stroke="midnightblue" d="M1942.07,-395.051C1992.52,-387.081 2084.53,-372.243 2173.19,-356.098"/>
<polygon fill="midnightblue" stroke="midnightblue" points="2173.94,-359.519 2183.15,-354.277 2172.68,-352.633 2173.94,-359.519"/>
</g>
<!-- Node50&#45;&gt;Node33 -->
<g id="edge128" class="edge"><title>Node50&#45;&gt;Node33</title>
<path fill="none" stroke="midnightblue" d="M1865.88,-399.77C1698.72,-393.396 1034.98,-357.531 949.991,-188 946.007,-180.054 944.554,-175.032 949.991,-168 958.209,-157.37 1034.48,-140.529 1082.97,-130.744"/>
<polygon fill="midnightblue" stroke="midnightblue" points="1083.74,-134.16 1092.86,-128.768 1082.37,-127.295 1083.74,-134.16"/>
</g>
<!-- Node50&#45;&gt;Node38 -->
<g id="edge130" class="edge"><title>Node50&#45;&gt;Node38</title>
<path fill="none" stroke="midnightblue" d="M1869.61,-392.444C1832.07,-383.102 1771.86,-368.119 1730.92,-357.933"/>
<polygon fill="midnightblue" stroke="midnightblue" points="1731.76,-354.535 1721.21,-355.516 1730.07,-361.328 1731.76,-354.535"/>
</g>
</g>
</svg>
