<?xml version="1.0" encoding="UTF-8" standalone="no"?>
<!DOCTYPE svg PUBLIC "-//W3C//DTD SVG 1.1//EN"
 "http://www.w3.org/Graphics/SVG/1.1/DTD/svg11.dtd">
<!-- Generated by graphviz version 2.38.0 (20140413.2041)
 -->
<!-- Title: cctreectrl.cpp Pages: 1 -->
<svg width="2032pt" height="196pt"
 viewBox="0.00 0.00 2032.00 196.00" xmlns="http://www.w3.org/2000/svg" xmlns:xlink="http://www.w3.org/1999/xlink">
<g id="graph0" class="graph" transform="scale(1 1) rotate(0) translate(4 192)">
<title>cctreectrl.cpp</title>
<!-- Node0 -->
<g id="node1" class="node"><title>Node0</title>
<polygon fill="#bfbfbf" stroke="black" points="1603.5,-168.5 1603.5,-187.5 1678.5,-187.5 1678.5,-168.5 1603.5,-168.5"/>
<text text-anchor="middle" x="1641" y="-175.5" font-family="FreeSans" font-size="10.00">cctreectrl.cpp</text>
</g>
<!-- Node1 -->
<g id="node2" class="node"><title>Node1</title>
<g id="a_node2"><a xlink:href="sdk_8h" target="_top" xlink:title="sdk.h">
<polygon fill="none" stroke="black" points="1186.5,-112.5 1186.5,-131.5 1225.5,-131.5 1225.5,-112.5 1186.5,-112.5"/>
<text text-anchor="middle" x="1206" y="-119.5" font-family="FreeSans" font-size="10.00">sdk.h</text>
</a>
</g>
</g>
<!-- Node0&#45;&gt;Node1 -->
<g id="edge1" class="edge"><title>Node0&#45;&gt;Node1</title>
<path fill="none" stroke="midnightblue" d="M1603.16,-172.302C1517.87,-161.715 1312.13,-136.175 1235.46,-126.656"/>
<polygon fill="midnightblue" stroke="midnightblue" points="1235.87,-123.182 1225.52,-125.423 1235.01,-130.128 1235.87,-123.182"/>
</g>
<!-- Node137 -->
<g id="node28" class="node"><title>Node137</title>
<polygon fill="none" stroke="#bfbfbf" points="1606,-112.5 1606,-131.5 1676,-131.5 1676,-112.5 1606,-112.5"/>
<text text-anchor="middle" x="1641" y="-119.5" font-family="FreeSans" font-size="10.00">wx/gdicmn.h</text>
</g>
<!-- Node0&#45;&gt;Node137 -->
<g id="edge27" class="edge"><title>Node0&#45;&gt;Node137</title>
<path fill="none" stroke="midnightblue" d="M1641,-168.083C1641,-161.006 1641,-150.861 1641,-141.986"/>
<polygon fill="midnightblue" stroke="midnightblue" points="1644.5,-141.751 1641,-131.751 1637.5,-141.751 1644.5,-141.751"/>
</g>
<!-- Node138 -->
<g id="node29" class="node"><title>Node138</title>
<g id="a_node29"><a xlink:href="cctreectrl_8h" target="_top" xlink:title="cctreectrl.h">
<polygon fill="none" stroke="black" points="1875.5,-112.5 1875.5,-131.5 1940.5,-131.5 1940.5,-112.5 1875.5,-112.5"/>
<text text-anchor="middle" x="1908" y="-119.5" font-family="FreeSans" font-size="10.00">cctreectrl.h</text>
</a>
</g>
</g>
<!-- Node0&#45;&gt;Node138 -->
<g id="edge28" class="edge"><title>Node0&#45;&gt;Node138</title>
<path fill="none" stroke="midnightblue" d="M1678.69,-169.378C1727.88,-159.429 1813.74,-142.063 1865.29,-131.638"/>
<polygon fill="midnightblue" stroke="midnightblue" points="1866.01,-135.063 1875.12,-129.65 1864.63,-128.201 1866.01,-135.063"/>
</g>
<!-- Node2 -->
<g id="node3" class="node"><title>Node2</title>
<g id="a_node3"><a xlink:href="sdk__common_8h" target="_top" xlink:title="sdk_common.h">
<polygon fill="none" stroke="red" points="983,-56.5 983,-75.5 1065,-75.5 1065,-56.5 983,-56.5"/>
<text text-anchor="middle" x="1024" y="-63.5" font-family="FreeSans" font-size="10.00">sdk_common.h</text>
</a>
</g>
</g>
<!-- Node1&#45;&gt;Node2 -->
<g id="edge2" class="edge"><title>Node1&#45;&gt;Node2</title>
<path fill="none" stroke="midnightblue" d="M1186.18,-115.118C1156.58,-106.336 1100.26,-89.6277 1062.42,-78.3993"/>
<polygon fill="midnightblue" stroke="midnightblue" points="1063.33,-75.019 1052.75,-75.5299 1061.34,-81.7299 1063.33,-75.019"/>
</g>
<!-- Node3 -->
<g id="node4" class="node"><title>Node3</title>
<polygon fill="none" stroke="#bfbfbf" points="674,-0.5 674,-19.5 742,-19.5 742,-0.5 674,-0.5"/>
<text text-anchor="middle" x="708" y="-7.5" font-family="FreeSans" font-size="10.00">wx/wxprec.h</text>
</g>
<!-- Node2&#45;&gt;Node3 -->
<g id="edge3" class="edge"><title>Node2&#45;&gt;Node3</title>
<path fill="none" stroke="midnightblue" d="M982.741,-58.7642C931.131,-50.8394 839.823,-36.4087 752.09,-20.142"/>
<polygon fill="midnightblue" stroke="midnightblue" points="752.713,-16.6979 742.241,-18.3051 751.43,-23.5793 752.713,-16.6979"/>
</g>
<!-- Node4 -->
<g id="node5" class="node"><title>Node4</title>
<g id="a_node5"><a xlink:href="prep_8h" target="_top" xlink:title="prep.h">
<polygon fill="none" stroke="black" points="760.5,-0.5 760.5,-19.5 803.5,-19.5 803.5,-0.5 760.5,-0.5"/>
<text text-anchor="middle" x="782" y="-7.5" font-family="FreeSans" font-size="10.00">prep.h</text>
</a>
</g>
</g>
<!-- Node2&#45;&gt;Node4 -->
<g id="edge4" class="edge"><title>Node2&#45;&gt;Node4</title>
<path fill="none" stroke="midnightblue" d="M982.953,-57.1615C942.369,-49.208 878.304,-36.1094 813.594,-19.9996"/>
<polygon fill="midnightblue" stroke="midnightblue" points="814.177,-16.5376 803.626,-17.4951 812.471,-23.3265 814.177,-16.5376"/>
</g>
<!-- Node5 -->
<g id="node6" class="node"><title>Node5</title>
<polygon fill="none" stroke="#bfbfbf" points="822,-0.5 822,-19.5 876,-19.5 876,-0.5 822,-0.5"/>
<text text-anchor="middle" x="849" y="-7.5" font-family="FreeSans" font-size="10.00">wx/app.h</text>
</g>
<!-- Node2&#45;&gt;Node5 -->
<g id="edge5" class="edge"><title>Node2&#45;&gt;Node5</title>
<path fill="none" stroke="midnightblue" d="M996.271,-56.4435C966.4,-47.2262 918.727,-32.5157 885.751,-22.3402"/>
<polygon fill="midnightblue" stroke="midnightblue" points="886.612,-18.9432 876.025,-19.339 884.548,-25.632 886.612,-18.9432"/>
</g>
<!-- Node6 -->
<g id="node7" class="node"><title>Node6</title>
<polygon fill="none" stroke="#bfbfbf" points="1878,-0.5 1878,-19.5 1938,-19.5 1938,-0.5 1878,-0.5"/>
<text text-anchor="middle" x="1908" y="-7.5" font-family="FreeSans" font-size="10.00">wx/arrstr.h</text>
</g>
<!-- Node2&#45;&gt;Node6 -->
<g id="edge6" class="edge"><title>Node2&#45;&gt;Node6</title>
<path fill="none" stroke="midnightblue" d="M1065.13,-65.3287C1186.62,-65.7665 1554.4,-63.2594 1867.68,-19.9251"/>
<polygon fill="midnightblue" stroke="midnightblue" points="1868.45,-23.3519 1877.86,-18.499 1867.47,-16.4195 1868.45,-23.3519"/>
</g>
<!-- Node7 -->
<g id="node8" class="node"><title>Node7</title>
<polygon fill="none" stroke="#bfbfbf" points="894.5,-0.5 894.5,-19.5 973.5,-19.5 973.5,-0.5 894.5,-0.5"/>
<text text-anchor="middle" x="934" y="-7.5" font-family="FreeSans" font-size="10.00">wx/bmpbuttn.h</text>
</g>
<!-- Node2&#45;&gt;Node7 -->
<g id="edge7" class="edge"><title>Node2&#45;&gt;Node7</title>
<path fill="none" stroke="midnightblue" d="M1009.54,-56.324C995.5,-47.9002 973.952,-34.9709 957.457,-25.0741"/>
<polygon fill="midnightblue" stroke="midnightblue" points="958.8,-21.7983 948.424,-19.6545 955.198,-27.8007 958.8,-21.7983"/>
</g>
<!-- Node8 -->
<g id="node9" class="node"><title>Node8</title>
<polygon fill="none" stroke="#bfbfbf" points="991.5,-0.5 991.5,-19.5 1056.5,-19.5 1056.5,-0.5 991.5,-0.5"/>
<text text-anchor="middle" x="1024" y="-7.5" font-family="FreeSans" font-size="10.00">wx/button.h</text>
</g>
<!-- Node2&#45;&gt;Node8 -->
<g id="edge8" class="edge"><title>Node2&#45;&gt;Node8</title>
<path fill="none" stroke="midnightblue" d="M1024,-56.083C1024,-49.0059 1024,-38.8611 1024,-29.9865"/>
<polygon fill="midnightblue" stroke="midnightblue" points="1027.5,-29.751 1024,-19.7511 1020.5,-29.7511 1027.5,-29.751"/>
</g>
<!-- Node9 -->
<g id="node10" class="node"><title>Node9</title>
<polygon fill="none" stroke="#bfbfbf" points="1075,-0.5 1075,-19.5 1155,-19.5 1155,-0.5 1075,-0.5"/>
<text text-anchor="middle" x="1115" y="-7.5" font-family="FreeSans" font-size="10.00">wx/checkbox.h</text>
</g>
<!-- Node2&#45;&gt;Node9 -->
<g id="edge9" class="edge"><title>Node2&#45;&gt;Node9</title>
<path fill="none" stroke="midnightblue" d="M1038.62,-56.324C1052.95,-47.8215 1075.01,-34.7288 1091.75,-24.7975"/>
<polygon fill="midnightblue" stroke="midnightblue" points="1093.6,-27.7677 1100.42,-19.6545 1090.03,-21.7478 1093.6,-27.7677"/>
</g>
<!-- Node10 -->
<g id="node11" class="node"><title>Node10</title>
<polygon fill="none" stroke="#bfbfbf" points="1173,-0.5 1173,-19.5 1247,-19.5 1247,-0.5 1173,-0.5"/>
<text text-anchor="middle" x="1210" y="-7.5" font-family="FreeSans" font-size="10.00">wx/checklst.h</text>
</g>
<!-- Node2&#45;&gt;Node10 -->
<g id="edge10" class="edge"><title>Node2&#45;&gt;Node10</title>
<path fill="none" stroke="midnightblue" d="M1053.47,-56.4435C1085.17,-47.2406 1135.73,-32.5617 1170.77,-22.3879"/>
<polygon fill="midnightblue" stroke="midnightblue" points="1172.04,-25.6658 1180.67,-19.5164 1170.09,-18.9434 1172.04,-25.6658"/>
</g>
<!-- Node11 -->
<g id="node12" class="node"><title>Node11</title>
<polygon fill="none" stroke="#bfbfbf" points="1265.5,-0.5 1265.5,-19.5 1332.5,-19.5 1332.5,-0.5 1265.5,-0.5"/>
<text text-anchor="middle" x="1299" y="-7.5" font-family="FreeSans" font-size="10.00">wx/choice.h</text>
</g>
<!-- Node2&#45;&gt;Node11 -->
<g id="edge11" class="edge"><title>Node2&#45;&gt;Node11</title>
<path fill="none" stroke="midnightblue" d="M1065.11,-57.2164C1109.42,-48.7827 1182.32,-34.7897 1254.96,-20.1859"/>
<polygon fill="midnightblue" stroke="midnightblue" points="1256.1,-23.5278 1265.21,-18.1217 1254.71,-16.6656 1256.1,-23.5278"/>
</g>
<!-- Node12 -->
<g id="node13" class="node"><title>Node12</title>
<polygon fill="none" stroke="#bfbfbf" points="1351,-0.5 1351,-19.5 1425,-19.5 1425,-0.5 1351,-0.5"/>
<text text-anchor="middle" x="1388" y="-7.5" font-family="FreeSans" font-size="10.00">wx/choicdlg.h</text>
</g>
<!-- Node2&#45;&gt;Node12 -->
<g id="edge12" class="edge"><title>Node2&#45;&gt;Node12</title>
<path fill="none" stroke="midnightblue" d="M1065.13,-59.8048C1123.85,-52.2474 1235.3,-37.3803 1340.95,-19.9307"/>
<polygon fill="midnightblue" stroke="midnightblue" points="1341.54,-23.3815 1350.83,-18.2891 1340.39,-16.4762 1341.54,-23.3815"/>
</g>
<!-- Node13 -->
<g id="node14" class="node"><title>Node13</title>
<polygon fill="none" stroke="#bfbfbf" points="1443,-0.5 1443,-19.5 1515,-19.5 1515,-0.5 1443,-0.5"/>
<text text-anchor="middle" x="1479" y="-7.5" font-family="FreeSans" font-size="10.00">wx/colordlg.h</text>
</g>
<!-- Node2&#45;&gt;Node13 -->
<g id="edge13" class="edge"><title>Node2&#45;&gt;Node13</title>
<path fill="none" stroke="midnightblue" d="M1065.18,-61.6888C1137.51,-55.6114 1292.24,-41.4408 1432.62,-20.0947"/>
<polygon fill="midnightblue" stroke="midnightblue" points="1433.35,-23.5239 1442.7,-18.5454 1432.28,-16.6051 1433.35,-23.5239"/>
</g>
<!-- Node14 -->
<g id="node15" class="node"><title>Node14</title>
<polygon fill="none" stroke="#bfbfbf" points="1533.5,-0.5 1533.5,-19.5 1616.5,-19.5 1616.5,-0.5 1533.5,-0.5"/>
<text text-anchor="middle" x="1575" y="-7.5" font-family="FreeSans" font-size="10.00">wx/combobox.h</text>
</g>
<!-- Node2&#45;&gt;Node14 -->
<g id="edge14" class="edge"><title>Node2&#45;&gt;Node14</title>
<path fill="none" stroke="midnightblue" d="M1065.29,-62.4752C1149.42,-57.0734 1346.94,-43.081 1523.32,-19.9769"/>
<polygon fill="midnightblue" stroke="midnightblue" points="1523.84,-23.438 1533.3,-18.6567 1522.92,-16.4984 1523.84,-23.438"/>
</g>
<!-- Node15 -->
<g id="node16" class="node"><title>Node15</title>
<polygon fill="none" stroke="#bfbfbf" points="1634.5,-0.5 1634.5,-19.5 1711.5,-19.5 1711.5,-0.5 1634.5,-0.5"/>
<text text-anchor="middle" x="1673" y="-7.5" font-family="FreeSans" font-size="10.00">wx/confbase.h</text>
</g>
<!-- Node2&#45;&gt;Node15 -->
<g id="edge15" class="edge"><title>Node2&#45;&gt;Node15</title>
<path fill="none" stroke="midnightblue" d="M1065.33,-63.4819C1161.54,-59.6099 1408.07,-47.7407 1624.34,-19.9327"/>
<polygon fill="midnightblue" stroke="midnightblue" points="1624.82,-23.3993 1634.29,-18.6392 1623.92,-16.4577 1624.82,-23.3993"/>
</g>
<!-- Node16 -->
<g id="node17" class="node"><title>Node16</title>
<polygon fill="none" stroke="#bfbfbf" points="0,-0.5 0,-19.5 76,-19.5 76,-0.5 0,-0.5"/>
<text text-anchor="middle" x="38" y="-7.5" font-family="FreeSans" font-size="10.00">wx/datetime.h</text>
</g>
<!-- Node2&#45;&gt;Node16 -->
<g id="edge16" class="edge"><title>Node2&#45;&gt;Node16</title>
<path fill="none" stroke="midnightblue" d="M982.64,-65.0975C852.264,-64.9651 438.181,-61.1859 86.2801,-19.9715"/>
<polygon fill="midnightblue" stroke="midnightblue" points="86.4912,-16.4721 76.1491,-18.7725 85.6684,-23.4236 86.4912,-16.4721"/>
</g>
<!-- Node17 -->
<g id="node18" class="node"><title>Node17</title>
<polygon fill="none" stroke="#bfbfbf" points="94,-0.5 94,-19.5 166,-19.5 166,-0.5 94,-0.5"/>
<text text-anchor="middle" x="130" y="-7.5" font-family="FreeSans" font-size="10.00">wx/dcclient.h</text>
</g>
<!-- Node2&#45;&gt;Node17 -->
<g id="edge17" class="edge"><title>Node2&#45;&gt;Node17</title>
<path fill="none" stroke="midnightblue" d="M982.729,-64.9194C860.823,-64.2346 491.685,-58.9521 176.523,-20.0035"/>
<polygon fill="midnightblue" stroke="midnightblue" points="176.633,-16.49 166.276,-18.7227 175.764,-23.436 176.633,-16.49"/>
</g>
<!-- Node18 -->
<g id="node19" class="node"><title>Node18</title>
<polygon fill="none" stroke="#bfbfbf" points="184,-0.5 184,-19.5 248,-19.5 248,-0.5 184,-0.5"/>
<text text-anchor="middle" x="216" y="-7.5" font-family="FreeSans" font-size="10.00">wx/dialog.h</text>
</g>
<!-- Node2&#45;&gt;Node18 -->
<g id="edge18" class="edge"><title>Node2&#45;&gt;Node18</title>
<path fill="none" stroke="midnightblue" d="M982.62,-64.8568C868.56,-63.9766 539.989,-58.1702 258.149,-19.9311"/>
<polygon fill="midnightblue" stroke="midnightblue" points="258.526,-16.4502 248.143,-18.5571 257.574,-23.3851 258.526,-16.4502"/>
</g>
<!-- Node19 -->
<g id="node20" class="node"><title>Node19</title>
<polygon fill="none" stroke="#bfbfbf" points="266.5,-0.5 266.5,-19.5 315.5,-19.5 315.5,-0.5 266.5,-0.5"/>
<text text-anchor="middle" x="291" y="-7.5" font-family="FreeSans" font-size="10.00">wx/dir.h</text>
</g>
<!-- Node2&#45;&gt;Node19 -->
<g id="edge19" class="edge"><title>Node2&#45;&gt;Node19</title>
<path fill="none" stroke="midnightblue" d="M982.717,-65.1314C875.629,-64.8796 580.174,-60.4089 325.929,-19.7974"/>
<polygon fill="midnightblue" stroke="midnightblue" points="326.193,-16.2946 315.762,-18.1503 325.074,-23.2045 326.193,-16.2946"/>
</g>
<!-- Node20 -->
<g id="node21" class="node"><title>Node20</title>
<polygon fill="none" stroke="#bfbfbf" points="334,-0.5 334,-19.5 408,-19.5 408,-0.5 334,-0.5"/>
<text text-anchor="middle" x="371" y="-7.5" font-family="FreeSans" font-size="10.00">wx/dynarray.h</text>
</g>
<!-- Node2&#45;&gt;Node20 -->
<g id="edge20" class="edge"><title>Node2&#45;&gt;Node20</title>
<path fill="none" stroke="midnightblue" d="M982.973,-63.6468C886.298,-60.0967 636.529,-48.8178 418.141,-19.993"/>
<polygon fill="midnightblue" stroke="midnightblue" points="418.469,-16.506 408.094,-18.6515 417.543,-23.4444 418.469,-16.506"/>
</g>
<!-- Node21 -->
<g id="node22" class="node"><title>Node21</title>
<polygon fill="none" stroke="#bfbfbf" points="1730,-0.5 1730,-19.5 1792,-19.5 1792,-0.5 1730,-0.5"/>
<text text-anchor="middle" x="1761" y="-7.5" font-family="FreeSans" font-size="10.00">wx/event.h</text>
</g>
<!-- Node2&#45;&gt;Node21 -->
<g id="edge21" class="edge"><title>Node2&#45;&gt;Node21</title>
<path fill="none" stroke="midnightblue" d="M1065.01,-64.5133C1171.42,-62.7894 1465.13,-55.0941 1719.57,-19.8005"/>
<polygon fill="midnightblue" stroke="midnightblue" points="1720.33,-23.2281 1729.75,-18.3711 1719.36,-16.2962 1720.33,-23.2281"/>
</g>
<!-- Node22 -->
<g id="node23" class="node"><title>Node22</title>
<polygon fill="none" stroke="#bfbfbf" points="1810,-0.5 1810,-19.5 1860,-19.5 1860,-0.5 1810,-0.5"/>
<text text-anchor="middle" x="1835" y="-7.5" font-family="FreeSans" font-size="10.00">wx/file.h</text>
</g>
<!-- Node2&#45;&gt;Node22 -->
<g id="edge22" class="edge"><title>Node2&#45;&gt;Node22</title>
<path fill="none" stroke="midnightblue" d="M1065.17,-65.5115C1180.17,-66.3269 1514.5,-64.5113 1799.74,-19.8608"/>
<polygon fill="midnightblue" stroke="midnightblue" points="1800.54,-23.2781 1809.87,-18.2543 1799.44,-16.3646 1800.54,-23.2781"/>
</g>
<!-- Node23 -->
<g id="node24" class="node"><title>Node23</title>
<polygon fill="none" stroke="#bfbfbf" points="426.5,-0.5 426.5,-19.5 489.5,-19.5 489.5,-0.5 426.5,-0.5"/>
<text text-anchor="middle" x="458" y="-7.5" font-family="FreeSans" font-size="10.00">wx/filedlg.h</text>
</g>
<!-- Node2&#45;&gt;Node23 -->
<g id="edge23" class="edge"><title>Node2&#45;&gt;Node23</title>
<path fill="none" stroke="midnightblue" d="M982.941,-63.3072C895.761,-59.3202 685.634,-47.631 499.666,-19.8932"/>
<polygon fill="midnightblue" stroke="midnightblue" points="500.118,-16.4219 489.708,-18.3888 499.073,-23.3434 500.118,-16.4219"/>
</g>
<!-- Node24 -->
<g id="node25" class="node"><title>Node24</title>
<polygon fill="none" stroke="#bfbfbf" points="508,-0.5 508,-19.5 582,-19.5 582,-0.5 508,-0.5"/>
<text text-anchor="middle" x="545" y="-7.5" font-family="FreeSans" font-size="10.00">wx/filename.h</text>
</g>
<!-- Node2&#45;&gt;Node24 -->
<g id="edge24" class="edge"><title>Node2&#45;&gt;Node24</title>
<path fill="none" stroke="midnightblue" d="M982.952,-61.9679C907.604,-56.135 741.988,-42.0755 592.393,-20.085"/>
<polygon fill="midnightblue" stroke="midnightblue" points="592.513,-16.5645 582.108,-18.5566 591.485,-23.4885 592.513,-16.5645"/>
</g>
<!-- Node25 -->
<g id="node26" class="node"><title>Node25</title>
<polygon fill="none" stroke="#bfbfbf" points="600.5,-0.5 600.5,-19.5 655.5,-19.5 655.5,-0.5 600.5,-0.5"/>
<text text-anchor="middle" x="628" y="-7.5" font-family="FreeSans" font-size="10.00">wx/font.h</text>
</g>
<!-- Node2&#45;&gt;Node25 -->
<g id="edge25" class="edge"><title>Node2&#45;&gt;Node25</title>
<path fill="none" stroke="midnightblue" d="M982.849,-61.3802C917.71,-55.3157 786.712,-41.7614 665.965,-19.9801"/>
<polygon fill="midnightblue" stroke="midnightblue" points="666.274,-16.4787 655.807,-18.1236 665.015,-23.3646 666.274,-16.4787"/>
</g>
<!-- Node59 -->
<g id="node27" class="node"><title>Node59</title>
<polygon fill="none" stroke="#bfbfbf" points="1956,-0.5 1956,-19.5 2024,-19.5 2024,-0.5 1956,-0.5"/>
<text text-anchor="middle" x="1990" y="-7.5" font-family="FreeSans" font-size="10.00">wx/treectrl.h</text>
</g>
<!-- Node2&#45;&gt;Node59 -->
<g id="edge26" class="edge"><title>Node2&#45;&gt;Node59</title>
<path fill="none" stroke="midnightblue" d="M1065.14,-65.2976C1193.9,-65.742 1600.6,-63.4517 1945.88,-19.9287"/>
<polygon fill="midnightblue" stroke="midnightblue" points="1946.34,-23.3982 1955.82,-18.6621 1945.45,-16.4543 1946.34,-23.3982"/>
</g>
<!-- Node138&#45;&gt;Node59 -->
<g id="edge29" class="edge"><title>Node138&#45;&gt;Node59</title>
<path fill="none" stroke="midnightblue" d="M1940.56,-114.727C1962.03,-108.717 1988.6,-97.2791 2002,-76 2010.96,-61.7802 2005.74,-42.5571 1999.63,-28.7092"/>
<polygon fill="midnightblue" stroke="midnightblue" points="2002.77,-27.1566 1995.22,-19.7241 1996.49,-30.2428 2002.77,-27.1566"/>
</g>
<!-- Node139 -->
<g id="node30" class="node"><title>Node139</title>
<polygon fill="none" stroke="#bfbfbf" points="1950.5,-56.5 1950.5,-75.5 1993.5,-75.5 1993.5,-56.5 1950.5,-56.5"/>
<text text-anchor="middle" x="1972" y="-63.5" font-family="FreeSans" font-size="10.00">queue</text>
</g>
<!-- Node138&#45;&gt;Node139 -->
<g id="edge30" class="edge"><title>Node138&#45;&gt;Node139</title>
<path fill="none" stroke="midnightblue" d="M1918.28,-112.324C1927.84,-104.263 1942.28,-92.0765 1953.78,-82.3695"/>
<polygon fill="midnightblue" stroke="midnightblue" points="1956.14,-84.9577 1961.53,-75.8339 1951.63,-79.6076 1956.14,-84.9577"/>
</g>
<!-- Node140 -->
<g id="node31" class="node"><title>Node140</title>
<g id="a_node31"><a xlink:href="parser_8h" target="_top" xlink:title="parser/parser.h">
<polygon fill="none" stroke="red" points="1786,-56.5 1786,-75.5 1866,-75.5 1866,-56.5 1786,-56.5"/>
<text text-anchor="middle" x="1826" y="-63.5" font-family="FreeSans" font-size="10.00">parser/parser.h</text>
</a>
</g>
</g>
<!-- Node138&#45;&gt;Node140 -->
<g id="edge31" class="edge"><title>Node138&#45;&gt;Node140</title>
<path fill="none" stroke="midnightblue" d="M1894.83,-112.324C1882.15,-103.979 1862.77,-91.2122 1847.79,-81.3524"/>
<polygon fill="midnightblue" stroke="midnightblue" points="1849.42,-78.2313 1839.14,-75.6545 1845.57,-84.0776 1849.42,-78.2313"/>
</g>
<!-- Node147 -->
<g id="node32" class="node"><title>Node147</title>
<g id="a_node32"><a xlink:href="token_8h" target="_top" xlink:title="token.h">
<polygon fill="none" stroke="red" points="1884,-56.5 1884,-75.5 1932,-75.5 1932,-56.5 1884,-56.5"/>
<text text-anchor="middle" x="1908" y="-63.5" font-family="FreeSans" font-size="10.00">token.h</text>
</a>
</g>
</g>
<!-- Node138&#45;&gt;Node147 -->
<g id="edge36" class="edge"><title>Node138&#45;&gt;Node147</title>
<path fill="none" stroke="midnightblue" d="M1908,-112.083C1908,-105.006 1908,-94.8611 1908,-85.9865"/>
<polygon fill="midnightblue" stroke="midnightblue" points="1911.5,-85.751 1908,-75.7511 1904.5,-85.7511 1911.5,-85.751"/>
</g>
<!-- Node140&#45;&gt;Node6 -->
<g id="edge32" class="edge"><title>Node140&#45;&gt;Node6</title>
<path fill="none" stroke="midnightblue" d="M1839.17,-56.324C1851.85,-47.979 1871.23,-35.2122 1886.21,-25.3524"/>
<polygon fill="midnightblue" stroke="midnightblue" points="1888.43,-28.0776 1894.86,-19.6545 1884.58,-22.2313 1888.43,-28.0776"/>
</g>
<!-- Node140&#45;&gt;Node21 -->
<g id="edge33" class="edge"><title>Node140&#45;&gt;Node21</title>
<path fill="none" stroke="midnightblue" d="M1815.56,-56.324C1805.85,-48.2631 1791.18,-36.0765 1779.5,-26.3695"/>
<polygon fill="midnightblue" stroke="midnightblue" points="1781.56,-23.532 1771.63,-19.8339 1777.09,-28.9163 1781.56,-23.532"/>
</g>
<!-- Node140&#45;&gt;Node22 -->
<g id="edge34" class="edge"><title>Node140&#45;&gt;Node22</title>
<path fill="none" stroke="midnightblue" d="M1827.49,-56.083C1828.68,-48.9272 1830.39,-38.6353 1831.88,-29.6911"/>
<polygon fill="midnightblue" stroke="midnightblue" points="1835.35,-30.1904 1833.54,-19.7511 1828.45,-29.0396 1835.35,-30.1904"/>
</g>
<!-- Node140&#45;&gt;Node59 -->
<g id="edge35" class="edge"><title>Node140&#45;&gt;Node59</title>
<path fill="none" stroke="midnightblue" d="M1851.99,-56.4435C1879.7,-47.3196 1923.75,-32.8133 1954.62,-22.6509"/>
<polygon fill="midnightblue" stroke="midnightblue" points="1955.73,-25.9684 1964.14,-19.5164 1953.54,-19.3196 1955.73,-25.9684"/>
</g>
<!-- Node147&#45;&gt;Node6 -->
<g id="edge37" class="edge"><title>Node147&#45;&gt;Node6</title>
<path fill="none" stroke="midnightblue" d="M1908,-56.083C1908,-49.0059 1908,-38.8611 1908,-29.9865"/>
<polygon fill="midnightblue" stroke="midnightblue" points="1911.5,-29.751 1908,-19.7511 1904.5,-29.7511 1911.5,-29.751"/>
</g>
</g>
</svg>
