<?xml version="1.0" encoding="UTF-8" standalone="no"?>
<!DOCTYPE svg PUBLIC "-//W3C//DTD SVG 1.1//EN"
 "http://www.w3.org/Graphics/SVG/1.1/DTD/svg11.dtd">
<!-- Generated by graphviz version 2.40.1 (20161225.0304)
 -->
<!-- Title: ProjectLoader Pages: 1 -->
<svg width="954pt" height="1806pt"
 viewBox="0.00 0.00 953.97 1806.00" xmlns="http://www.w3.org/2000/svg" xmlns:xlink="http://www.w3.org/1999/xlink">
<g id="graph0" class="graph" transform="scale(1 1) rotate(0) translate(4 1802)">
<title>ProjectLoader</title>
<!-- Node2 -->
<g id="node1" class="node">
<title>Node2</title>
<polygon fill="#bfbfbf" stroke="#000000" points="372.9673,-.5 372.9673,-387.5 526.9673,-387.5 526.9673,-.5 372.9673,-.5"/>
<text text-anchor="middle" x="449.9673" y="-375.5" font-family="FreeSans" font-size="10.00" fill="#000000">ProjectLoader</text>
<polyline fill="none" stroke="#000000" points="372.9673,-368.5 526.9673,-368.5 "/>
<text text-anchor="start" x="380.9673" y="-356.5" font-family="FreeSans" font-size="10.00" fill="#000000">&#45; m_Upgraded</text>
<text text-anchor="start" x="380.9673" y="-345.5" font-family="FreeSans" font-size="10.00" fill="#000000">&#45; m_OpenDirty</text>
<text text-anchor="start" x="380.9673" y="-334.5" font-family="FreeSans" font-size="10.00" fill="#000000">&#45; m_IsPre_1_2</text>
<text text-anchor="start" x="380.9673" y="-323.5" font-family="FreeSans" font-size="10.00" fill="#000000">&#45; m_1_4_to_1_5_deftarget</text>
<text text-anchor="start" x="380.9673" y="-312.5" font-family="FreeSans" font-size="10.00" fill="#000000">&#45; m_IsPre_1_6</text>
<text text-anchor="start" x="380.9673" y="-301.5" font-family="FreeSans" font-size="10.00" fill="#000000">&#45; m_CompilerSubstitutes</text>
<polyline fill="none" stroke="#000000" points="372.9673,-294.5 526.9673,-294.5 "/>
<text text-anchor="start" x="380.9673" y="-282.5" font-family="FreeSans" font-size="10.00" fill="#000000">+ ProjectLoader()</text>
<text text-anchor="start" x="380.9673" y="-271.5" font-family="FreeSans" font-size="10.00" fill="#000000">+ ~ProjectLoader()</text>
<text text-anchor="start" x="380.9673" y="-260.5" font-family="FreeSans" font-size="10.00" fill="#000000">+ Open()</text>
<text text-anchor="start" x="380.9673" y="-249.5" font-family="FreeSans" font-size="10.00" fill="#000000">+ Save()</text>
<text text-anchor="start" x="380.9673" y="-238.5" font-family="FreeSans" font-size="10.00" fill="#000000">+ Open()</text>
<text text-anchor="start" x="380.9673" y="-227.5" font-family="FreeSans" font-size="10.00" fill="#000000">+ Save()</text>
<text text-anchor="start" x="380.9673" y="-216.5" font-family="FreeSans" font-size="10.00" fill="#000000">+ ExportTargetAsProject()</text>
<text text-anchor="start" x="380.9673" y="-205.5" font-family="FreeSans" font-size="10.00" fill="#000000">+ FileUpgraded()</text>
<text text-anchor="start" x="380.9673" y="-194.5" font-family="FreeSans" font-size="10.00" fill="#000000">+ FileModified()</text>
<text text-anchor="start" x="380.9673" y="-183.5" font-family="FreeSans" font-size="10.00" fill="#000000"># DoProjectOptions()</text>
<text text-anchor="start" x="380.9673" y="-172.5" font-family="FreeSans" font-size="10.00" fill="#000000"># DoCompilerOptions()</text>
<text text-anchor="start" x="380.9673" y="-161.5" font-family="FreeSans" font-size="10.00" fill="#000000"># DoResourceCompilerOptions()</text>
<text text-anchor="start" x="380.9673" y="-150.5" font-family="FreeSans" font-size="10.00" fill="#000000"># DoLinkerOptions()</text>
<text text-anchor="start" x="380.9673" y="-139.5" font-family="FreeSans" font-size="10.00" fill="#000000"># DoIncludesOptions()</text>
<text text-anchor="start" x="380.9673" y="-128.5" font-family="FreeSans" font-size="10.00" fill="#000000"># DoLibsOptions()</text>
<text text-anchor="start" x="380.9673" y="-117.5" font-family="FreeSans" font-size="10.00" fill="#000000"># DoExtraCommands()</text>
<text text-anchor="start" x="380.9673" y="-106.5" font-family="FreeSans" font-size="10.00" fill="#000000"># DoMakeCommands()</text>
<text text-anchor="start" x="380.9673" y="-95.5" font-family="FreeSans" font-size="10.00" fill="#000000">and 7 more...</text>
<text text-anchor="start" x="380.9673" y="-84.5" font-family="FreeSans" font-size="10.00" fill="#000000">&#45; ConvertVersion_Pre_1_1()</text>
<text text-anchor="start" x="380.9673" y="-73.5" font-family="FreeSans" font-size="10.00" fill="#000000">&#45; ConvertLibraries()</text>
<text text-anchor="start" x="380.9673" y="-62.5" font-family="FreeSans" font-size="10.00" fill="#000000">&#45; AddElement()</text>
<text text-anchor="start" x="380.9673" y="-51.5" font-family="FreeSans" font-size="10.00" fill="#000000">&#45; AddElement()</text>
<text text-anchor="start" x="380.9673" y="-40.5" font-family="FreeSans" font-size="10.00" fill="#000000">&#45; AddArrayOfElements()</text>
<text text-anchor="start" x="380.9673" y="-29.5" font-family="FreeSans" font-size="10.00" fill="#000000">&#45; SaveEnvironment()</text>
<text text-anchor="start" x="380.9673" y="-18.5" font-family="FreeSans" font-size="10.00" fill="#000000">&#45; GetValidCompilerID()</text>
<text text-anchor="start" x="380.9673" y="-7.5" font-family="FreeSans" font-size="10.00" fill="#000000">&#45; ProjectLoader()</text>
</g>
<!-- Node3 -->
<g id="node2" class="node">
<title>Node3</title>
<g id="a_node2"><a xlink:href="classIBaseLoader" target="_top" xlink:title="Base interface for project loaders. ">
<polygon fill="none" stroke="#000000" points="366.9673,-567.5 366.9673,-657.5 456.9673,-657.5 456.9673,-567.5 366.9673,-567.5"/>
<text text-anchor="middle" x="411.9673" y="-645.5" font-family="FreeSans" font-size="10.00" fill="#000000">IBaseLoader</text>
<polyline fill="none" stroke="#000000" points="366.9673,-638.5 456.9673,-638.5 "/>
<text text-anchor="middle" x="411.9673" y="-626.5" font-family="FreeSans" font-size="10.00" fill="#000000"> </text>
<polyline fill="none" stroke="#000000" points="366.9673,-619.5 456.9673,-619.5 "/>
<text text-anchor="start" x="374.9673" y="-607.5" font-family="FreeSans" font-size="10.00" fill="#000000">+ IBaseLoader()</text>
<text text-anchor="start" x="374.9673" y="-596.5" font-family="FreeSans" font-size="10.00" fill="#000000">+ ~IBaseLoader()</text>
<text text-anchor="start" x="374.9673" y="-585.5" font-family="FreeSans" font-size="10.00" fill="#000000">+ Open()</text>
<text text-anchor="start" x="374.9673" y="-574.5" font-family="FreeSans" font-size="10.00" fill="#000000">+ Save()</text>
</a>
</g>
</g>
<!-- Node3&#45;&gt;Node2 -->
<g id="edge1" class="edge">
<title>Node3&#45;&gt;Node2</title>
<path fill="none" stroke="#191970" d="M416.9898,-557.1872C420.9643,-513.4155 426.7649,-449.5321 432.397,-387.5045"/>
<polygon fill="none" stroke="#191970" points="413.4888,-557.04 416.0701,-567.3155 420.4602,-557.673 413.4888,-557.04"/>
</g>
<!-- Node4 -->
<g id="node3" class="node">
<title>Node4</title>
<g id="a_node3"><a xlink:href="classcbProject" target="_top" xlink:title="Represents a Code::Blocks project. ">
<polygon fill="none" stroke="#000000" points="475.4673,-435.5 475.4673,-789.5 656.4673,-789.5 656.4673,-435.5 475.4673,-435.5"/>
<text text-anchor="middle" x="565.9673" y="-777.5" font-family="FreeSans" font-size="10.00" fill="#000000">cbProject</text>
<polyline fill="none" stroke="#000000" points="475.4673,-770.5 656.4673,-770.5 "/>
<text text-anchor="start" x="483.4673" y="-758.5" font-family="FreeSans" font-size="10.00" fill="#000000">&#45; m_Targets</text>
<text text-anchor="start" x="483.4673" y="-747.5" font-family="FreeSans" font-size="10.00" fill="#000000">&#45; m_CustomMakefile</text>
<text text-anchor="start" x="483.4673" y="-736.5" font-family="FreeSans" font-size="10.00" fill="#000000">&#45; m_Files</text>
<text text-anchor="start" x="483.4673" y="-725.5" font-family="FreeSans" font-size="10.00" fill="#000000">&#45; m_FileArray</text>
<text text-anchor="start" x="483.4673" y="-714.5" font-family="FreeSans" font-size="10.00" fill="#000000">&#45; m_Loaded</text>
<text text-anchor="start" x="483.4673" y="-703.5" font-family="FreeSans" font-size="10.00" fill="#000000">&#45; m_CurrentlyLoading</text>
<text text-anchor="start" x="483.4673" y="-692.5" font-family="FreeSans" font-size="10.00" fill="#000000">&#45; m_PCHMode</text>
<text text-anchor="start" x="483.4673" y="-681.5" font-family="FreeSans" font-size="10.00" fill="#000000">&#45; m_ProjectFilesMap</text>
<text text-anchor="start" x="483.4673" y="-670.5" font-family="FreeSans" font-size="10.00" fill="#000000">&#45; m_ExtendedObjectNamesGeneration</text>
<text text-anchor="start" x="483.4673" y="-659.5" font-family="FreeSans" font-size="10.00" fill="#000000">&#45; m_AutoShowNotesOnLoad</text>
<text text-anchor="start" x="483.4673" y="-648.5" font-family="FreeSans" font-size="10.00" fill="#000000">&#45; m_CheckForExternallyModified</text>
<text text-anchor="start" x="483.4673" y="-637.5" font-family="FreeSans" font-size="10.00" fill="#000000">Files</text>
<text text-anchor="start" x="483.4673" y="-626.5" font-family="FreeSans" font-size="10.00" fill="#000000">&#45; m_pExtensionsElement</text>
<polyline fill="none" stroke="#000000" points="475.4673,-619.5 656.4673,-619.5 "/>
<text text-anchor="start" x="483.4673" y="-607.5" font-family="FreeSans" font-size="10.00" fill="#000000">+ cbProject()</text>
<text text-anchor="start" x="483.4673" y="-596.5" font-family="FreeSans" font-size="10.00" fill="#000000">+ ~cbProject()</text>
<text text-anchor="start" x="483.4673" y="-585.5" font-family="FreeSans" font-size="10.00" fill="#000000">+ IsLoaded()</text>
<text text-anchor="start" x="483.4673" y="-574.5" font-family="FreeSans" font-size="10.00" fill="#000000">+ ClearAllProperties()</text>
<text text-anchor="start" x="483.4673" y="-563.5" font-family="FreeSans" font-size="10.00" fill="#000000">+ CalculateCommonTopLevelPath()</text>
<text text-anchor="start" x="483.4673" y="-552.5" font-family="FreeSans" font-size="10.00" fill="#000000">+ GetCommonTopLevelPath()</text>
<text text-anchor="start" x="483.4673" y="-541.5" font-family="FreeSans" font-size="10.00" fill="#000000">+ GetModified()</text>
<text text-anchor="start" x="483.4673" y="-530.5" font-family="FreeSans" font-size="10.00" fill="#000000">+ SetModified()</text>
<text text-anchor="start" x="483.4673" y="-519.5" font-family="FreeSans" font-size="10.00" fill="#000000">and 85 more...</text>
<text text-anchor="start" x="483.4673" y="-508.5" font-family="FreeSans" font-size="10.00" fill="#000000">&#45; Open()</text>
<text text-anchor="start" x="483.4673" y="-497.5" font-family="FreeSans" font-size="10.00" fill="#000000">&#45; ExpandVirtualBuildTarget</text>
<text text-anchor="start" x="483.4673" y="-486.5" font-family="FreeSans" font-size="10.00" fill="#000000">Group()</text>
<text text-anchor="start" x="483.4673" y="-475.5" font-family="FreeSans" font-size="10.00" fill="#000000">&#45; AddDefaultBuildTarget()</text>
<text text-anchor="start" x="483.4673" y="-464.5" font-family="FreeSans" font-size="10.00" fill="#000000">&#45; IndexOfBuildTargetName()</text>
<text text-anchor="start" x="483.4673" y="-453.5" font-family="FreeSans" font-size="10.00" fill="#000000">&#45; CreateUniqueFilename()</text>
<text text-anchor="start" x="483.4673" y="-442.5" font-family="FreeSans" font-size="10.00" fill="#000000">&#45; NotifyPlugins()</text>
</a>
</g>
</g>
<!-- Node4&#45;&gt;Node2 -->
<g id="edge2" class="edge">
<title>Node4&#45;&gt;Node2</title>
<path fill="none" stroke="#404040" d="M497.3501,-435.2689C495.4629,-429.1288 493.6613,-423.0267 491.9673,-417 490.3692,-411.314 488.8141,-405.5292 487.3027,-399.6766"/>
<polygon fill="none" stroke="#404040" points="487.187,-399.2162 481.8449,-394.3724 484.2615,-387.5783 489.6036,-392.4221 487.187,-399.2162"/>
<text text-anchor="middle" x="519.4673" y="-409" font-family="FreeSans" font-size="10.00" fill="#000000"> &#45;m_pProject</text>
</g>
<!-- Node13 -->
<g id="node12" class="node">
<title>Node13</title>
<g id="a_node12"><a xlink:href="classProjectBuildTarget" target="_top" xlink:title="Represents a Code::Blocks project build target. ">
<polygon fill="none" stroke="#000000" points="691.4673,-88.5 691.4673,-299.5 830.4673,-299.5 830.4673,-88.5 691.4673,-88.5"/>
<text text-anchor="middle" x="760.9673" y="-287.5" font-family="FreeSans" font-size="10.00" fill="#000000">ProjectBuildTarget</text>
<polyline fill="none" stroke="#000000" points="691.4673,-280.5 830.4673,-280.5 "/>
<text text-anchor="start" x="699.4673" y="-268.5" font-family="FreeSans" font-size="10.00" fill="#000000">&#45; m_TargetDeps</text>
<text text-anchor="start" x="699.4673" y="-257.5" font-family="FreeSans" font-size="10.00" fill="#000000">&#45; m_Files</text>
<text text-anchor="start" x="699.4673" y="-246.5" font-family="FreeSans" font-size="10.00" fill="#000000">&#45; m_FileArray</text>
<text text-anchor="start" x="699.4673" y="-235.5" font-family="FreeSans" font-size="10.00" fill="#000000">&#45; m_BuildWithAll</text>
<text text-anchor="start" x="699.4673" y="-224.5" font-family="FreeSans" font-size="10.00" fill="#000000">&#45; m_CreateStaticLib</text>
<text text-anchor="start" x="699.4673" y="-213.5" font-family="FreeSans" font-size="10.00" fill="#000000">&#45; m_CreateDefFile</text>
<text text-anchor="start" x="699.4673" y="-202.5" font-family="FreeSans" font-size="10.00" fill="#000000">&#45; m_UseConsoleRunner</text>
<polyline fill="none" stroke="#000000" points="691.4673,-195.5 830.4673,-195.5 "/>
<text text-anchor="start" x="699.4673" y="-183.5" font-family="FreeSans" font-size="10.00" fill="#000000">+ ProjectBuildTarget()</text>
<text text-anchor="start" x="699.4673" y="-172.5" font-family="FreeSans" font-size="10.00" fill="#000000">+ ~ProjectBuildTarget()</text>
<text text-anchor="start" x="699.4673" y="-161.5" font-family="FreeSans" font-size="10.00" fill="#000000">+ GetParentProject()</text>
<text text-anchor="start" x="699.4673" y="-150.5" font-family="FreeSans" font-size="10.00" fill="#000000">+ GetFullTitle()</text>
<text text-anchor="start" x="699.4673" y="-139.5" font-family="FreeSans" font-size="10.00" fill="#000000">+ GetExternalDeps()</text>
<text text-anchor="start" x="699.4673" y="-128.5" font-family="FreeSans" font-size="10.00" fill="#000000">+ SetExternalDeps()</text>
<text text-anchor="start" x="699.4673" y="-117.5" font-family="FreeSans" font-size="10.00" fill="#000000">+ GetAdditionalOutputFiles()</text>
<text text-anchor="start" x="699.4673" y="-106.5" font-family="FreeSans" font-size="10.00" fill="#000000">+ SetAdditionalOutputFiles()</text>
<text text-anchor="start" x="699.4673" y="-95.5" font-family="FreeSans" font-size="10.00" fill="#000000">and 15 more...</text>
</a>
</g>
</g>
<!-- Node4&#45;&gt;Node13 -->
<g id="edge18" class="edge">
<title>Node4&#45;&gt;Node13</title>
<path fill="none" stroke="#404040" d="M656.5525,-500.0445C674.5427,-473.8883 691.8886,-445.3639 704.9673,-417 720.1722,-384.0252 731.6422,-346.3276 740.1118,-311.4271"/>
<polygon fill="none" stroke="#404040" points="740.1204,-311.3902 737.6017,-304.6332 742.8701,-299.7094 745.3888,-306.4664 740.1204,-311.3902"/>
<text text-anchor="middle" x="731.9673" y="-409" font-family="FreeSans" font-size="10.00" fill="#000000"> &#45;m_Project</text>
</g>
<!-- Node5 -->
<g id="node4" class="node">
<title>Node5</title>
<g id="a_node4"><a xlink:href="classCompileTargetBase" target="_top" xlink:title="Base class for build target classes Each Code::Blocks project consists of at least one target...">
<polygon fill="none" stroke="#000000" points="481.9673,-837.5 481.9673,-1092.5 649.9673,-1092.5 649.9673,-837.5 481.9673,-837.5"/>
<text text-anchor="middle" x="565.9673" y="-1080.5" font-family="FreeSans" font-size="10.00" fill="#000000">CompileTargetBase</text>
<polyline fill="none" stroke="#000000" points="481.9673,-1073.5 649.9673,-1073.5 "/>
<text text-anchor="start" x="489.9673" y="-1061.5" font-family="FreeSans" font-size="10.00" fill="#000000"># m_Title</text>
<text text-anchor="start" x="489.9673" y="-1050.5" font-family="FreeSans" font-size="10.00" fill="#000000"># m_OutputFilename</text>
<text text-anchor="start" x="489.9673" y="-1039.5" font-family="FreeSans" font-size="10.00" fill="#000000"># m_OptionsRelation</text>
<text text-anchor="start" x="489.9673" y="-1028.5" font-family="FreeSans" font-size="10.00" fill="#000000"># m_TargetType</text>
<text text-anchor="start" x="489.9673" y="-1017.5" font-family="FreeSans" font-size="10.00" fill="#000000"># m_MakeCommandsModified</text>
<text text-anchor="start" x="489.9673" y="-1006.5" font-family="FreeSans" font-size="10.00" fill="#000000"># m_RunHostApplicationInTerminal</text>
<text text-anchor="start" x="489.9673" y="-995.5" font-family="FreeSans" font-size="10.00" fill="#000000"># m_PrefixGenerationPolicy</text>
<text text-anchor="start" x="489.9673" y="-984.5" font-family="FreeSans" font-size="10.00" fill="#000000"># m_ExtensionGenerationPolicy</text>
<polyline fill="none" stroke="#000000" points="481.9673,-977.5 649.9673,-977.5 "/>
<text text-anchor="start" x="489.9673" y="-965.5" font-family="FreeSans" font-size="10.00" fill="#000000">+ CompileTargetBase()</text>
<text text-anchor="start" x="489.9673" y="-954.5" font-family="FreeSans" font-size="10.00" fill="#000000">+ ~CompileTargetBase()</text>
<text text-anchor="start" x="489.9673" y="-943.5" font-family="FreeSans" font-size="10.00" fill="#000000">+ SetTargetFilenameGeneration</text>
<text text-anchor="start" x="489.9673" y="-932.5" font-family="FreeSans" font-size="10.00" fill="#000000">Policy()</text>
<text text-anchor="start" x="489.9673" y="-921.5" font-family="FreeSans" font-size="10.00" fill="#000000">+ GetTargetFilenameGeneration</text>
<text text-anchor="start" x="489.9673" y="-910.5" font-family="FreeSans" font-size="10.00" fill="#000000">Policy()</text>
<text text-anchor="start" x="489.9673" y="-899.5" font-family="FreeSans" font-size="10.00" fill="#000000">+ GetFilename()</text>
<text text-anchor="start" x="489.9673" y="-888.5" font-family="FreeSans" font-size="10.00" fill="#000000">+ GetTitle()</text>
<text text-anchor="start" x="489.9673" y="-877.5" font-family="FreeSans" font-size="10.00" fill="#000000">+ SetTitle()</text>
<text text-anchor="start" x="489.9673" y="-866.5" font-family="FreeSans" font-size="10.00" fill="#000000">+ SetOutputFilename()</text>
<text text-anchor="start" x="489.9673" y="-855.5" font-family="FreeSans" font-size="10.00" fill="#000000">and 32 more...</text>
<text text-anchor="start" x="489.9673" y="-844.5" font-family="FreeSans" font-size="10.00" fill="#000000">&#45; GenerateTargetFilename()</text>
</a>
</g>
</g>
<!-- Node5&#45;&gt;Node4 -->
<g id="edge3" class="edge">
<title>Node5&#45;&gt;Node4</title>
<path fill="none" stroke="#191970" d="M565.9673,-827.0189C565.9673,-814.7705 565.9673,-802.2631 565.9673,-789.7489"/>
<polygon fill="none" stroke="#191970" points="562.4674,-827.241 565.9673,-837.241 569.4674,-827.2411 562.4674,-827.241"/>
</g>
<!-- Node5&#45;&gt;Node13 -->
<g id="edge17" class="edge">
<title>Node5&#45;&gt;Node13</title>
<path fill="none" stroke="#191970" d="M658.0469,-864.7512C670.7153,-854.3603 684.1448,-844.779 697.9673,-837 725.5869,-821.4564 747.5908,-844.0798 766.9673,-819 827.5047,-740.6443 798.6798,-456.3735 777.1377,-299.5989"/>
<polygon fill="none" stroke="#191970" points="655.6494,-862.1946 650.2608,-871.3167 660.1619,-867.546 655.6494,-862.1946"/>
</g>
<!-- Node6 -->
<g id="node5" class="node">
<title>Node6</title>
<g id="a_node5"><a xlink:href="classCompileOptionsBase" target="_top" xlink:title="This is a base class for all classes needing compilation parameters. ">
<polygon fill="none" stroke="#000000" points="71.4673,-1217.5 71.4673,-1395.5 208.4673,-1395.5 208.4673,-1217.5 71.4673,-1217.5"/>
<text text-anchor="middle" x="139.9673" y="-1383.5" font-family="FreeSans" font-size="10.00" fill="#000000">CompileOptionsBase</text>
<polyline fill="none" stroke="#000000" points="71.4673,-1376.5 208.4673,-1376.5 "/>
<text text-anchor="start" x="79.4673" y="-1364.5" font-family="FreeSans" font-size="10.00" fill="#000000"># m_Platform</text>
<text text-anchor="start" x="79.4673" y="-1353.5" font-family="FreeSans" font-size="10.00" fill="#000000"># m_Modified</text>
<text text-anchor="start" x="79.4673" y="-1342.5" font-family="FreeSans" font-size="10.00" fill="#000000"># m_AlwaysRunPostCmds</text>
<text text-anchor="start" x="79.4673" y="-1331.5" font-family="FreeSans" font-size="10.00" fill="#000000"># m_Vars</text>
<polyline fill="none" stroke="#000000" points="71.4673,-1324.5 208.4673,-1324.5 "/>
<text text-anchor="start" x="79.4673" y="-1312.5" font-family="FreeSans" font-size="10.00" fill="#000000">+ CompileOptionsBase()</text>
<text text-anchor="start" x="79.4673" y="-1301.5" font-family="FreeSans" font-size="10.00" fill="#000000">+ ~CompileOptionsBase()</text>
<text text-anchor="start" x="79.4673" y="-1290.5" font-family="FreeSans" font-size="10.00" fill="#000000">+ AddPlatform()</text>
<text text-anchor="start" x="79.4673" y="-1279.5" font-family="FreeSans" font-size="10.00" fill="#000000">+ RemovePlatform()</text>
<text text-anchor="start" x="79.4673" y="-1268.5" font-family="FreeSans" font-size="10.00" fill="#000000">+ SetPlatforms()</text>
<text text-anchor="start" x="79.4673" y="-1257.5" font-family="FreeSans" font-size="10.00" fill="#000000">+ GetPlatforms()</text>
<text text-anchor="start" x="79.4673" y="-1246.5" font-family="FreeSans" font-size="10.00" fill="#000000">+ SupportsCurrentPlatform()</text>
<text text-anchor="start" x="79.4673" y="-1235.5" font-family="FreeSans" font-size="10.00" fill="#000000">+ SetLinkerOptions()</text>
<text text-anchor="start" x="79.4673" y="-1224.5" font-family="FreeSans" font-size="10.00" fill="#000000">and 56 more...</text>
</a>
</g>
</g>
<!-- Node6&#45;&gt;Node5 -->
<g id="edge4" class="edge">
<title>Node6&#45;&gt;Node5</title>
<path fill="none" stroke="#191970" d="M217.0966,-1221.2356C219.678,-1219.7139 222.3028,-1218.2964 224.9673,-1217 301.2413,-1179.8901 342.4814,-1243.0529 414.9673,-1199 455.9746,-1174.0781 487.8817,-1133.3084 511.5811,-1092.7251"/>
<polygon fill="none" stroke="#191970" points="214.9977,-1218.4245 208.4918,-1226.7865 218.7923,-1224.3068 214.9977,-1218.4245"/>
</g>
<!-- Node7 -->
<g id="node6" class="node">
<title>Node7</title>
<g id="a_node6"><a doxygen="/media/alpha/Barracuda/cb_docs/src/wxTagFile.xml:http://docs.wxwidgets.org/3.0/" xlink:href="http://docs.wxwidgets.org/3.0/classwx_array_string.html" target="_top" xlink:title="{wxArrayString\n||+ wxArrayString()\l+ wxArrayString()\l+ wxArrayString()\l+ ~wxArrayString()\l+ Add()\l+ Alloc()\l+ Clear()\l+ Empty()\land 19 more...\l}">
<polygon fill="none" stroke="#000000" points="83.4673,-1603 83.4673,-1748 178.4673,-1748 178.4673,-1603 83.4673,-1603"/>
<text text-anchor="middle" x="130.9673" y="-1736" font-family="FreeSans" font-size="10.00" fill="#000000">wxArrayString</text>
<polyline fill="none" stroke="#000000" points="83.4673,-1729 178.4673,-1729 "/>
<text text-anchor="middle" x="130.9673" y="-1717" font-family="FreeSans" font-size="10.00" fill="#000000"> </text>
<polyline fill="none" stroke="#000000" points="83.4673,-1710 178.4673,-1710 "/>
<text text-anchor="start" x="91.4673" y="-1698" font-family="FreeSans" font-size="10.00" fill="#000000">+ wxArrayString()</text>
<text text-anchor="start" x="91.4673" y="-1687" font-family="FreeSans" font-size="10.00" fill="#000000">+ wxArrayString()</text>
<text text-anchor="start" x="91.4673" y="-1676" font-family="FreeSans" font-size="10.00" fill="#000000">+ wxArrayString()</text>
<text text-anchor="start" x="91.4673" y="-1665" font-family="FreeSans" font-size="10.00" fill="#000000">+ ~wxArrayString()</text>
<text text-anchor="start" x="91.4673" y="-1654" font-family="FreeSans" font-size="10.00" fill="#000000">+ Add()</text>
<text text-anchor="start" x="91.4673" y="-1643" font-family="FreeSans" font-size="10.00" fill="#000000">+ Alloc()</text>
<text text-anchor="start" x="91.4673" y="-1632" font-family="FreeSans" font-size="10.00" fill="#000000">+ Clear()</text>
<text text-anchor="start" x="91.4673" y="-1621" font-family="FreeSans" font-size="10.00" fill="#000000">+ Empty()</text>
<text text-anchor="start" x="91.4673" y="-1610" font-family="FreeSans" font-size="10.00" fill="#000000">and 19 more...</text>
</a>
</g>
</g>
<!-- Node7&#45;&gt;Node4 -->
<g id="edge7" class="edge">
<title>Node7&#45;&gt;Node4</title>
<path fill="none" stroke="#404040" d="M99.4375,-1602.7514C36.3409,-1444.6526 -84.8482,-1065.6115 92.9673,-837 114.1477,-809.7692 131.3106,-815.5728 164.9673,-808 227.0216,-794.0378 391.2815,-822.3696 464.249,-789.5117"/>
<polygon fill="none" stroke="#404040" points="464.5592,-789.3462 467.9697,-782.9925 475.1464,-783.697 471.7359,-790.0506 464.5592,-789.3462"/>
<text text-anchor="middle" x="45.9673" y="-1163.5" font-family="FreeSans" font-size="10.00" fill="#000000"> &#45;m_ExpandedNodes</text>
<text text-anchor="middle" x="45.9673" y="-1152.5" font-family="FreeSans" font-size="10.00" fill="#000000">&#45;m_SelectedNodes</text>
<text text-anchor="middle" x="45.9673" y="-1141.5" font-family="FreeSans" font-size="10.00" fill="#000000">&#45;m_VirtualFolders</text>
</g>
<!-- Node7&#45;&gt;Node6 -->
<g id="edge5" class="edge">
<title>Node7&#45;&gt;Node6</title>
<path fill="none" stroke="#404040" d="M129.8735,-1602.7646C129.4189,-1550.2805 129.4769,-1477.7379 131.9673,-1414 132.0477,-1411.9429 132.136,-1409.8642 132.2312,-1407.7694"/>
<polygon fill="none" stroke="#404040" points="132.2387,-1407.6205 128.5486,-1401.4251 132.8481,-1395.636 136.5383,-1401.8314 132.2387,-1407.6205"/>
<text text-anchor="middle" x="197.4673" y="-1527" font-family="FreeSans" font-size="10.00" fill="#000000"> #m_LibDirs</text>
<text text-anchor="middle" x="197.4673" y="-1516" font-family="FreeSans" font-size="10.00" fill="#000000">#m_CompilerOptions</text>
<text text-anchor="middle" x="197.4673" y="-1505" font-family="FreeSans" font-size="10.00" fill="#000000">#m_IncludeDirs</text>
<text text-anchor="middle" x="197.4673" y="-1494" font-family="FreeSans" font-size="10.00" fill="#000000">#m_LinkLibs</text>
<text text-anchor="middle" x="197.4673" y="-1483" font-family="FreeSans" font-size="10.00" fill="#000000">#m_CmdsAfter</text>
<text text-anchor="middle" x="197.4673" y="-1472" font-family="FreeSans" font-size="10.00" fill="#000000">#m_ResourceCompilerOptions</text>
<text text-anchor="middle" x="197.4673" y="-1461" font-family="FreeSans" font-size="10.00" fill="#000000">#m_ResIncludeDirs</text>
<text text-anchor="middle" x="197.4673" y="-1450" font-family="FreeSans" font-size="10.00" fill="#000000">#m_Scripts</text>
<text text-anchor="middle" x="197.4673" y="-1439" font-family="FreeSans" font-size="10.00" fill="#000000">#m_CmdsBefore</text>
<text text-anchor="middle" x="197.4673" y="-1428" font-family="FreeSans" font-size="10.00" fill="#000000">#m_LinkerOptions</text>
<text text-anchor="middle" x="197.4673" y="-1417" font-family="FreeSans" font-size="10.00" fill="#000000">...</text>
</g>
<!-- Node9 -->
<g id="node8" class="node">
<title>Node9</title>
<polygon fill="none" stroke="#bfbfbf" points="234.4673,-1272.5 234.4673,-1340.5 335.4673,-1340.5 335.4673,-1272.5 234.4673,-1272.5"/>
<text text-anchor="start" x="242.4673" y="-1328.5" font-family="FreeSans" font-size="10.00" fill="#000000">std::map&lt; wxString,</text>
<text text-anchor="middle" x="284.9673" y="-1317.5" font-family="FreeSans" font-size="10.00" fill="#000000"> wxArrayString &gt;</text>
<polyline fill="none" stroke="#bfbfbf" points="234.4673,-1310.5 335.4673,-1310.5 "/>
<text text-anchor="middle" x="284.9673" y="-1298.5" font-family="FreeSans" font-size="10.00" fill="#000000"> </text>
<polyline fill="none" stroke="#bfbfbf" points="234.4673,-1291.5 335.4673,-1291.5 "/>
<text text-anchor="middle" x="284.9673" y="-1279.5" font-family="FreeSans" font-size="10.00" fill="#000000"> </text>
</g>
<!-- Node7&#45;&gt;Node9 -->
<g id="edge9" class="edge">
<title>Node7&#45;&gt;Node9</title>
<path fill="none" stroke="#404040" d="M178.7416,-1638.878C208.3798,-1613.255 244.2644,-1576.3139 262.9673,-1535 277.1781,-1503.609 282.2287,-1410.3685 284.0102,-1353.157"/>
<polygon fill="none" stroke="#404040" points="284.0193,-1352.8319 280.1917,-1346.7205 284.3608,-1340.8368 288.1885,-1346.9482 284.0193,-1352.8319"/>
<text text-anchor="middle" x="305.9673" y="-1472" font-family="FreeSans" font-size="10.00" fill="#000000"> +elements</text>
</g>
<!-- Node8 -->
<g id="node7" class="node">
<title>Node8</title>
<g id="a_node7"><a doxygen="/media/alpha/Barracuda/cb_docs/src/wxTagFile.xml:http://docs.wxwidgets.org/3.0/" xlink:href="http://docs.wxwidgets.org/3.0/classwx_string.html" target="_top" xlink:title="{wxString\n|+ npos\l|+ wxString()\l+ wxString()\l+ wxString()\l+ wxString()\l+ wxString()\l+ wxString()\l+ wxString()\l+ wxString()\land 222 more...\l+ Format()\l+ FormatV()\l+ FromCDouble()\l+ FromDouble()\l+ From8BitData()\l+ From8BitData()\l+ FromAscii()\l+ FromAscii()\land 7 more...\l}">
<polygon fill="none" stroke="#000000" points="489.4673,-1553.5 489.4673,-1797.5 580.4673,-1797.5 580.4673,-1553.5 489.4673,-1553.5"/>
<text text-anchor="middle" x="534.9673" y="-1785.5" font-family="FreeSans" font-size="10.00" fill="#000000">wxString</text>
<polyline fill="none" stroke="#000000" points="489.4673,-1778.5 580.4673,-1778.5 "/>
<text text-anchor="start" x="497.4673" y="-1766.5" font-family="FreeSans" font-size="10.00" fill="#000000">+ npos</text>
<polyline fill="none" stroke="#000000" points="489.4673,-1759.5 580.4673,-1759.5 "/>
<text text-anchor="start" x="497.4673" y="-1747.5" font-family="FreeSans" font-size="10.00" fill="#000000">+ wxString()</text>
<text text-anchor="start" x="497.4673" y="-1736.5" font-family="FreeSans" font-size="10.00" fill="#000000">+ wxString()</text>
<text text-anchor="start" x="497.4673" y="-1725.5" font-family="FreeSans" font-size="10.00" fill="#000000">+ wxString()</text>
<text text-anchor="start" x="497.4673" y="-1714.5" font-family="FreeSans" font-size="10.00" fill="#000000">+ wxString()</text>
<text text-anchor="start" x="497.4673" y="-1703.5" font-family="FreeSans" font-size="10.00" fill="#000000">+ wxString()</text>
<text text-anchor="start" x="497.4673" y="-1692.5" font-family="FreeSans" font-size="10.00" fill="#000000">+ wxString()</text>
<text text-anchor="start" x="497.4673" y="-1681.5" font-family="FreeSans" font-size="10.00" fill="#000000">+ wxString()</text>
<text text-anchor="start" x="497.4673" y="-1670.5" font-family="FreeSans" font-size="10.00" fill="#000000">+ wxString()</text>
<text text-anchor="start" x="497.4673" y="-1659.5" font-family="FreeSans" font-size="10.00" fill="#000000">and 222 more...</text>
<text text-anchor="start" x="497.4673" y="-1648.5" font-family="FreeSans" font-size="10.00" fill="#000000">+ Format()</text>
<text text-anchor="start" x="497.4673" y="-1637.5" font-family="FreeSans" font-size="10.00" fill="#000000">+ FormatV()</text>
<text text-anchor="start" x="497.4673" y="-1626.5" font-family="FreeSans" font-size="10.00" fill="#000000">+ FromCDouble()</text>
<text text-anchor="start" x="497.4673" y="-1615.5" font-family="FreeSans" font-size="10.00" fill="#000000">+ FromDouble()</text>
<text text-anchor="start" x="497.4673" y="-1604.5" font-family="FreeSans" font-size="10.00" fill="#000000">+ From8BitData()</text>
<text text-anchor="start" x="497.4673" y="-1593.5" font-family="FreeSans" font-size="10.00" fill="#000000">+ From8BitData()</text>
<text text-anchor="start" x="497.4673" y="-1582.5" font-family="FreeSans" font-size="10.00" fill="#000000">+ FromAscii()</text>
<text text-anchor="start" x="497.4673" y="-1571.5" font-family="FreeSans" font-size="10.00" fill="#000000">+ FromAscii()</text>
<text text-anchor="start" x="497.4673" y="-1560.5" font-family="FreeSans" font-size="10.00" fill="#000000">and 7 more...</text>
</a>
</g>
</g>
<!-- Node8&#45;&gt;Node4 -->
<g id="edge15" class="edge">
<title>Node8&#45;&gt;Node4</title>
<path fill="none" stroke="#404040" d="M580.5369,-1600.3588C610.841,-1545.8182 647.9166,-1469.0786 663.9673,-1396 679.809,-1323.8732 684.8873,-962.9607 658.9673,-837 656.5599,-825.3008 653.5474,-813.4434 650.0932,-801.6059"/>
<polygon fill="none" stroke="#404040" points="649.9889,-801.2626 644.4164,-796.6858 646.4978,-789.7816 652.0704,-794.3584 649.9889,-801.2626"/>
<text text-anchor="middle" x="735.4673" y="-1191" font-family="FreeSans" font-size="10.00" fill="#000000"> &#45;m_Notes</text>
<text text-anchor="middle" x="735.4673" y="-1180" font-family="FreeSans" font-size="10.00" fill="#000000">&#45;m_Makefile</text>
<text text-anchor="middle" x="735.4673" y="-1169" font-family="FreeSans" font-size="10.00" fill="#000000">&#45;m_ActiveTarget</text>
<text text-anchor="middle" x="735.4673" y="-1158" font-family="FreeSans" font-size="10.00" fill="#000000">&#45;m_BasePath</text>
<text text-anchor="middle" x="735.4673" y="-1147" font-family="FreeSans" font-size="10.00" fill="#000000">&#45;m_DefaultExecuteTarget</text>
<text text-anchor="middle" x="735.4673" y="-1136" font-family="FreeSans" font-size="10.00" fill="#000000">&#45;m_LastSavedActiveTarget</text>
<text text-anchor="middle" x="735.4673" y="-1125" font-family="FreeSans" font-size="10.00" fill="#000000">&#45;m_MakefileExecutionDir</text>
<text text-anchor="middle" x="735.4673" y="-1114" font-family="FreeSans" font-size="10.00" fill="#000000">&#45;m_CommonTopLevelPath</text>
</g>
<!-- Node8&#45;&gt;Node5 -->
<g id="edge6" class="edge">
<title>Node8&#45;&gt;Node5</title>
<path fill="none" stroke="#404040" d="M537.4745,-1553.3339C539.6675,-1460.9341 543.3863,-1330.9445 548.9673,-1217 550.7453,-1180.7007 553.1539,-1141.4918 555.5984,-1105.062"/>
<polygon fill="none" stroke="#404040" points="555.6165,-1104.7948 552.0314,-1098.538 556.428,-1092.8223 560.0131,-1099.079 555.6165,-1104.7948"/>
<text text-anchor="middle" x="606.4673" y="-1359" font-family="FreeSans" font-size="10.00" fill="#000000"> #m_MakeCommands</text>
<text text-anchor="middle" x="606.4673" y="-1348" font-family="FreeSans" font-size="10.00" fill="#000000">#m_ImportLibraryFilename</text>
<text text-anchor="middle" x="606.4673" y="-1337" font-family="FreeSans" font-size="10.00" fill="#000000">#m_HostApplication</text>
<text text-anchor="middle" x="606.4673" y="-1326" font-family="FreeSans" font-size="10.00" fill="#000000">#m_DefinitionFileFilename</text>
<text text-anchor="middle" x="606.4673" y="-1315" font-family="FreeSans" font-size="10.00" fill="#000000">#m_CompilerId</text>
<text text-anchor="middle" x="606.4673" y="-1304" font-family="FreeSans" font-size="10.00" fill="#000000">#m_ExecutionParameters</text>
<text text-anchor="middle" x="606.4673" y="-1293" font-family="FreeSans" font-size="10.00" fill="#000000">#m_Filename</text>
<text text-anchor="middle" x="606.4673" y="-1282" font-family="FreeSans" font-size="10.00" fill="#000000">#m_ObjectOutput</text>
<text text-anchor="middle" x="606.4673" y="-1271" font-family="FreeSans" font-size="10.00" fill="#000000">#m_DepsOutput</text>
<text text-anchor="middle" x="606.4673" y="-1260" font-family="FreeSans" font-size="10.00" fill="#000000">#m_WorkingDir</text>
<text text-anchor="middle" x="606.4673" y="-1249" font-family="FreeSans" font-size="10.00" fill="#000000">...</text>
</g>
<!-- Node8&#45;&gt;Node9 -->
<g id="edge10" class="edge">
<title>Node8&#45;&gt;Node9</title>
<path fill="none" stroke="#404040" d="M489.2989,-1637.4027C459.5037,-1610.8855 421.2268,-1573.497 393.9673,-1535 382.6095,-1518.9599 333.9113,-1413.7847 305.5969,-1351.8623"/>
<polygon fill="none" stroke="#404040" points="305.5457,-1351.7502 299.4147,-1347.9541 300.5607,-1340.8346 306.6918,-1344.6308 305.5457,-1351.7502"/>
<text text-anchor="middle" x="407.9673" y="-1472" font-family="FreeSans" font-size="10.00" fill="#000000"> +keys</text>
</g>
<!-- Node12 -->
<g id="node11" class="node">
<title>Node12</title>
<g id="a_node11"><a xlink:href="structcbProject_1_1Glob" target="_top" xlink:title="{cbProject::Glob\n|+ m_Recursive\l|+ Glob()\l}">
<polygon fill="none" stroke="#000000" points="359.4673,-1278 359.4673,-1335 442.4673,-1335 442.4673,-1278 359.4673,-1278"/>
<text text-anchor="middle" x="400.9673" y="-1323" font-family="FreeSans" font-size="10.00" fill="#000000">cbProject::Glob</text>
<polyline fill="none" stroke="#000000" points="359.4673,-1316 442.4673,-1316 "/>
<text text-anchor="start" x="367.4673" y="-1304" font-family="FreeSans" font-size="10.00" fill="#000000">+ m_Recursive</text>
<polyline fill="none" stroke="#000000" points="359.4673,-1297 442.4673,-1297 "/>
<text text-anchor="start" x="367.4673" y="-1285" font-family="FreeSans" font-size="10.00" fill="#000000">+ Glob()</text>
</a>
</g>
</g>
<!-- Node8&#45;&gt;Node12 -->
<g id="edge14" class="edge">
<title>Node8&#45;&gt;Node12</title>
<path fill="none" stroke="#404040" d="M489.4146,-1595.1741C479.5271,-1575.8414 469.7213,-1554.9897 461.9673,-1535 437.2122,-1471.1809 418.8295,-1393.5767 409.0181,-1347.2076"/>
<polygon fill="none" stroke="#404040" points="408.9801,-1347.0248 403.8424,-1341.9647 406.5373,-1335.276 411.6749,-1340.3361 408.9801,-1347.0248"/>
<text text-anchor="middle" x="491.4673" y="-1477.5" font-family="FreeSans" font-size="10.00" fill="#000000"> +m_Path</text>
<text text-anchor="middle" x="491.4673" y="-1466.5" font-family="FreeSans" font-size="10.00" fill="#000000">+m_WildCard</text>
</g>
<!-- Node8&#45;&gt;Node13 -->
<g id="edge19" class="edge">
<title>Node8&#45;&gt;Node13</title>
<path fill="none" stroke="#404040" d="M580.7045,-1648.1601C664.4633,-1594.2208 833.9673,-1465.4296 833.9673,-1306.5 833.9673,-1306.5 833.9673,-1306.5 833.9673,-612.5 833.9673,-509.7625 812.3532,-394.9202 792.647,-311.5653"/>
<polygon fill="none" stroke="#404040" points="792.6144,-311.4289 787.3267,-306.5258 789.8189,-299.7591 795.1066,-304.6621 792.6144,-311.4289"/>
<text text-anchor="middle" x="889.9673" y="-968" font-family="FreeSans" font-size="10.00" fill="#000000"> &#45;m_AdditionalOutputFiles</text>
<text text-anchor="middle" x="889.9673" y="-957" font-family="FreeSans" font-size="10.00" fill="#000000">&#45;m_ExternalDeps</text>
</g>
<!-- Node9&#45;&gt;Node4 -->
<g id="edge8" class="edge">
<title>Node9&#45;&gt;Node4</title>
<path fill="none" stroke="#404040" d="M259.7244,-1272.2669C219.3684,-1217.1908 144.1979,-1113.0359 137.9673,-1093 104.1816,-984.3542 63.4383,-922.9698 137.9673,-837 183.9393,-783.971 385.0407,-827.1033 464.5178,-789.2084"/>
<polygon fill="none" stroke="#404040" points="464.9189,-788.9784 468.1337,-782.5236 475.3285,-783.0084 472.1137,-789.4633 464.9189,-788.9784"/>
<text text-anchor="middle" x="177.4673" y="-962.5" font-family="FreeSans" font-size="10.00" fill="#000000"> &#45;m_VirtualTargets</text>
</g>
<!-- Node10 -->
<g id="node9" class="node">
<title>Node10</title>
<g id="a_node9"><a doxygen="/media/alpha/Barracuda/cb_docs/src/wxTagFile.xml:http://docs.wxwidgets.org/3.0/" xlink:href="http://docs.wxwidgets.org/3.0/classwx_date_time.html" target="_top" xlink:title="{wxDateTime\n||+ wxDateTime()\l+ wxDateTime()\l+ wxDateTime()\l+ wxDateTime()\l+ wxDateTime()\l+ wxDateTime()\l+ wxDateTime()\l+ wxDateTime()\land 107 more...\l+ ConvertYearToBC()\l+ GetAmPmStrings()\l+ GetBeginDST()\l+ GetEndDST()\l+ GetCentury()\l+ GetCountry()\l+ GetCurrentMonth()\l+ GetCurrentYear()\land 17 more...\l}">
<polygon fill="none" stroke="#000000" points="354.4673,-843 354.4673,-1087 463.4673,-1087 463.4673,-843 354.4673,-843"/>
<text text-anchor="middle" x="408.9673" y="-1075" font-family="FreeSans" font-size="10.00" fill="#000000">wxDateTime</text>
<polyline fill="none" stroke="#000000" points="354.4673,-1068 463.4673,-1068 "/>
<text text-anchor="middle" x="408.9673" y="-1056" font-family="FreeSans" font-size="10.00" fill="#000000"> </text>
<polyline fill="none" stroke="#000000" points="354.4673,-1049 463.4673,-1049 "/>
<text text-anchor="start" x="362.4673" y="-1037" font-family="FreeSans" font-size="10.00" fill="#000000">+ wxDateTime()</text>
<text text-anchor="start" x="362.4673" y="-1026" font-family="FreeSans" font-size="10.00" fill="#000000">+ wxDateTime()</text>
<text text-anchor="start" x="362.4673" y="-1015" font-family="FreeSans" font-size="10.00" fill="#000000">+ wxDateTime()</text>
<text text-anchor="start" x="362.4673" y="-1004" font-family="FreeSans" font-size="10.00" fill="#000000">+ wxDateTime()</text>
<text text-anchor="start" x="362.4673" y="-993" font-family="FreeSans" font-size="10.00" fill="#000000">+ wxDateTime()</text>
<text text-anchor="start" x="362.4673" y="-982" font-family="FreeSans" font-size="10.00" fill="#000000">+ wxDateTime()</text>
<text text-anchor="start" x="362.4673" y="-971" font-family="FreeSans" font-size="10.00" fill="#000000">+ wxDateTime()</text>
<text text-anchor="start" x="362.4673" y="-960" font-family="FreeSans" font-size="10.00" fill="#000000">+ wxDateTime()</text>
<text text-anchor="start" x="362.4673" y="-949" font-family="FreeSans" font-size="10.00" fill="#000000">and 107 more...</text>
<text text-anchor="start" x="362.4673" y="-938" font-family="FreeSans" font-size="10.00" fill="#000000">+ ConvertYearToBC()</text>
<text text-anchor="start" x="362.4673" y="-927" font-family="FreeSans" font-size="10.00" fill="#000000">+ GetAmPmStrings()</text>
<text text-anchor="start" x="362.4673" y="-916" font-family="FreeSans" font-size="10.00" fill="#000000">+ GetBeginDST()</text>
<text text-anchor="start" x="362.4673" y="-905" font-family="FreeSans" font-size="10.00" fill="#000000">+ GetEndDST()</text>
<text text-anchor="start" x="362.4673" y="-894" font-family="FreeSans" font-size="10.00" fill="#000000">+ GetCentury()</text>
<text text-anchor="start" x="362.4673" y="-883" font-family="FreeSans" font-size="10.00" fill="#000000">+ GetCountry()</text>
<text text-anchor="start" x="362.4673" y="-872" font-family="FreeSans" font-size="10.00" fill="#000000">+ GetCurrentMonth()</text>
<text text-anchor="start" x="362.4673" y="-861" font-family="FreeSans" font-size="10.00" fill="#000000">+ GetCurrentYear()</text>
<text text-anchor="start" x="362.4673" y="-850" font-family="FreeSans" font-size="10.00" fill="#000000">and 17 more...</text>
</a>
</g>
</g>
<!-- Node10&#45;&gt;Node4 -->
<g id="edge11" class="edge">
<title>Node10&#45;&gt;Node4</title>
<path fill="none" stroke="#404040" d="M463.4377,-842.7019C469.4826,-829.1297 475.7379,-815.0851 482.0401,-800.9353"/>
<polygon fill="none" stroke="#404040" points="482.2189,-800.5338 481.0061,-793.4254 487.1013,-789.5719 488.314,-796.6803 482.2189,-800.5338"/>
<text text-anchor="middle" x="515.4673" y="-811" font-family="FreeSans" font-size="10.00" fill="#000000"> &#45;m_LastModified</text>
</g>
<!-- Node11 -->
<g id="node10" class="node">
<title>Node11</title>
<polygon fill="none" stroke="#bfbfbf" points="225.9673,-931 225.9673,-999 335.9673,-999 335.9673,-931 225.9673,-931"/>
<text text-anchor="start" x="233.9673" y="-987" font-family="FreeSans" font-size="10.00" fill="#000000">std::vector&lt; cbProject</text>
<text text-anchor="middle" x="280.9673" y="-976" font-family="FreeSans" font-size="10.00" fill="#000000">::Glob &gt;</text>
<polyline fill="none" stroke="#bfbfbf" points="225.9673,-969 335.9673,-969 "/>
<text text-anchor="middle" x="280.9673" y="-957" font-family="FreeSans" font-size="10.00" fill="#000000"> </text>
<polyline fill="none" stroke="#bfbfbf" points="225.9673,-950 335.9673,-950 "/>
<text text-anchor="middle" x="280.9673" y="-938" font-family="FreeSans" font-size="10.00" fill="#000000"> </text>
</g>
<!-- Node11&#45;&gt;Node4 -->
<g id="edge12" class="edge">
<title>Node11&#45;&gt;Node4</title>
<path fill="none" stroke="#404040" d="M290.4381,-930.8147C299.9499,-902.2576 317.233,-862.2641 344.9673,-837 366.2922,-817.5745 444.1691,-808.8927 465.9673,-790 466.1678,-789.8263 466.368,-789.652 466.5678,-789.4773"/>
<polygon fill="none" stroke="#404040" points="466.5708,-789.4744 468.231,-782.457 475.3471,-781.2904 473.687,-788.3079 466.5708,-789.4744"/>
<text text-anchor="middle" x="445.9673" y="-811" font-family="FreeSans" font-size="10.00" fill="#000000"> &#45;m_Globs</text>
</g>
<!-- Node12&#45;&gt;Node11 -->
<g id="edge13" class="edge">
<title>Node12&#45;&gt;Node11</title>
<path fill="none" stroke="#404040" d="M390.9426,-1277.9713C370.1755,-1218.8714 322.2946,-1082.6103 297.1146,-1010.9525"/>
<polygon fill="none" stroke="#404040" points="296.9604,-1010.5135 291.1975,-1006.1789 292.9821,-999.1921 298.7451,-1003.5267 296.9604,-1010.5135"/>
<text text-anchor="middle" x="386.9673" y="-1152.5" font-family="FreeSans" font-size="10.00" fill="#000000"> +elements</text>
</g>
<!-- Node13&#45;&gt;Node4 -->
<g id="edge16" class="edge">
<title>Node13&#45;&gt;Node4</title>
<path fill="none" stroke="#404040" d="M691.1728,-252.1722C649.9662,-291.0293 601.2509,-345.9033 576.9673,-406 574.6519,-411.7303 572.5981,-417.6236 570.7813,-423.6323"/>
<polygon fill="none" stroke="#404040" points="570.7504,-423.7451 573.0189,-430.5901 567.5729,-435.3169 565.3044,-428.4719 570.7504,-423.7451"/>
<text text-anchor="middle" x="640.9673" y="-409" font-family="FreeSans" font-size="10.00" fill="#000000"> &#45;m_CurrentlyCompilingTarget</text>
</g>
<!-- Node14 -->
<g id="node13" class="node">
<title>Node14</title>
<g id="a_node13"><a doxygen="/media/alpha/Barracuda/cb_docs/src/wxTagFile.xml:http://docs.wxwidgets.org/3.0/" xlink:href="http://docs.wxwidgets.org/3.0/classwx_tree_item_id.html" target="_top" xlink:title="{wxTreeItemId\n||+ wxTreeItemId()\l+ IsOk()\l+ GetID()\l+ Unset()\l}">
<polygon fill="none" stroke="#000000" points="706.4673,-920 706.4673,-1010 795.4673,-1010 795.4673,-920 706.4673,-920"/>
<text text-anchor="middle" x="750.9673" y="-998" font-family="FreeSans" font-size="10.00" fill="#000000">wxTreeItemId</text>
<polyline fill="none" stroke="#000000" points="706.4673,-991 795.4673,-991 "/>
<text text-anchor="middle" x="750.9673" y="-979" font-family="FreeSans" font-size="10.00" fill="#000000"> </text>
<polyline fill="none" stroke="#000000" points="706.4673,-972 795.4673,-972 "/>
<text text-anchor="start" x="714.4673" y="-960" font-family="FreeSans" font-size="10.00" fill="#000000">+ wxTreeItemId()</text>
<text text-anchor="start" x="714.4673" y="-949" font-family="FreeSans" font-size="10.00" fill="#000000">+ IsOk()</text>
<text text-anchor="start" x="714.4673" y="-938" font-family="FreeSans" font-size="10.00" fill="#000000">+ GetID()</text>
<text text-anchor="start" x="714.4673" y="-927" font-family="FreeSans" font-size="10.00" fill="#000000">+ Unset()</text>
</a>
</g>
</g>
<!-- Node14&#45;&gt;Node4 -->
<g id="edge20" class="edge">
<title>Node14&#45;&gt;Node4</title>
<path fill="none" stroke="#404040" d="M734.4495,-919.8287C722.2825,-887.9883 704.6609,-844.6626 685.9673,-808 678.7253,-793.7966 670.8137,-779.2545 662.6191,-764.8271"/>
<polygon fill="none" stroke="#404040" points="662.5791,-764.7573 656.1238,-761.5433 656.6077,-754.3485 663.063,-757.5624 662.5791,-764.7573"/>
<text text-anchor="middle" x="726.4673" y="-811" font-family="FreeSans" font-size="10.00" fill="#000000"> &#45;m_ProjectNode</text>
</g>
</g>
</svg>
