<?xml version="1.0" encoding="UTF-8" standalone="no"?>
<!DOCTYPE svg PUBLIC "-//W3C//DTD SVG 1.1//EN"
 "http://www.w3.org/Graphics/SVG/1.1/DTD/svg11.dtd">
<!-- Generated by graphviz version 2.38.0 (20140413.2041)
 -->
<!-- Title: classbrowserbuilderthread.h Pages: 1 -->
<svg width="2664pt" height="588pt"
 viewBox="0.00 0.00 2663.97 588.00" xmlns="http://www.w3.org/2000/svg" xmlns:xlink="http://www.w3.org/1999/xlink">
<g id="graph0" class="graph" transform="scale(1 1) rotate(0) translate(4 584)">
<title>classbrowserbuilderthread.h</title>
<polygon fill="white" stroke="none" points="-4,4 -4,-584 2659.97,-584 2659.97,4 -4,4"/>
<!-- Node1 -->
<g id="node1" class="node"><title>Node1</title>
<polygon fill="#bfbfbf" stroke="black" points="505.974,-560.5 505.974,-579.5 639.974,-579.5 639.974,-560.5 505.974,-560.5"/>
<text text-anchor="middle" x="572.974" y="-567.5" font-family="FreeSans" font-size="10.00">classbrowserbuilderthread.h</text>
</g>
<!-- Node2 -->
<g id="node2" class="node"><title>Node2</title>
<polygon fill="white" stroke="#bfbfbf" points="409.474,-112.5 409.474,-131.5 474.474,-131.5 474.474,-112.5 409.474,-112.5"/>
<text text-anchor="middle" x="441.974" y="-119.5" font-family="FreeSans" font-size="10.00">wx/thread.h</text>
</g>
<!-- Node1&#45;&gt;Node2 -->
<g id="edge1" class="edge"><title>Node1&#45;&gt;Node2</title>
<path fill="none" stroke="midnightblue" d="M505.837,-568.494C409.602,-564.848 230.056,-546.935 102.974,-468 47.2813,-433.408 27.7059,-418.197 6.97363,-356 -49.8876,-185.416 278.877,-137.927 399.174,-126.352"/>
<polygon fill="midnightblue" stroke="midnightblue" points="399.511,-129.836 409.146,-125.43 398.866,-122.866 399.511,-129.836"/>
</g>
<!-- Node3 -->
<g id="node3" class="node"><title>Node3</title>
<polygon fill="white" stroke="#bfbfbf" points="15.9736,-336.5 15.9736,-355.5 83.9736,-355.5 83.9736,-336.5 15.9736,-336.5"/>
<text text-anchor="middle" x="49.9736" y="-343.5" font-family="FreeSans" font-size="10.00">wx/treectrl.h</text>
</g>
<!-- Node1&#45;&gt;Node3 -->
<g id="edge2" class="edge"><title>Node1&#45;&gt;Node3</title>
<path fill="none" stroke="midnightblue" d="M522.537,-560.484C444.732,-546.452 291.502,-515.233 167.974,-468 118.206,-448.971 93.5216,-454.938 61.9736,-412 52.3126,-398.851 49.6815,-380.257 49.2516,-366.322"/>
<polygon fill="midnightblue" stroke="midnightblue" points="52.7533,-365.952 49.3022,-355.935 45.7534,-365.918 52.7533,-365.952"/>
</g>
<!-- Node4 -->
<g id="node4" class="node"><title>Node4</title>
<g id="a_node4"><a xlink:href="cctreectrl_8h" target="_top" xlink:title="cctreectrl.h">
<polygon fill="white" stroke="black" points="571.474,-504.5 571.474,-523.5 636.474,-523.5 636.474,-504.5 571.474,-504.5"/>
<text text-anchor="middle" x="603.974" y="-511.5" font-family="FreeSans" font-size="10.00">cctreectrl.h</text>
</a>
</g>
</g>
<!-- Node1&#45;&gt;Node4 -->
<g id="edge3" class="edge"><title>Node1&#45;&gt;Node4</title>
<path fill="none" stroke="midnightblue" d="M578.093,-560.083C582.381,-552.613 588.632,-541.724 593.916,-532.52"/>
<polygon fill="midnightblue" stroke="midnightblue" points="597.007,-534.166 598.95,-523.751 590.936,-530.681 597.007,-534.166"/>
</g>
<!-- Node6 -->
<g id="node6" class="node"><title>Node6</title>
<g id="a_node6"><a xlink:href="parser_8h" target="_top" xlink:title="parser/parser.h">
<polygon fill="white" stroke="black" points="502.974,-448.5 502.974,-467.5 582.974,-467.5 582.974,-448.5 502.974,-448.5"/>
<text text-anchor="middle" x="542.974" y="-455.5" font-family="FreeSans" font-size="10.00">parser/parser.h</text>
</a>
</g>
</g>
<!-- Node1&#45;&gt;Node6 -->
<g id="edge139" class="edge"><title>Node1&#45;&gt;Node6</title>
<path fill="none" stroke="midnightblue" d="M570.62,-560.368C565.756,-542.537 554.509,-501.295 547.957,-477.272"/>
<polygon fill="midnightblue" stroke="midnightblue" points="551.325,-476.318 545.317,-467.591 544.571,-478.16 551.325,-476.318"/>
</g>
<!-- Node44 -->
<g id="node44" class="node"><title>Node44</title>
<g id="a_node44"><a xlink:href="token_8h" target="_top" xlink:title="token.h">
<polygon fill="white" stroke="black" points="2064.97,-224.5 2064.97,-243.5 2112.97,-243.5 2112.97,-224.5 2064.97,-224.5"/>
<text text-anchor="middle" x="2088.97" y="-231.5" font-family="FreeSans" font-size="10.00">token.h</text>
</a>
</g>
</g>
<!-- Node1&#45;&gt;Node44 -->
<g id="edge138" class="edge"><title>Node1&#45;&gt;Node44</title>
<path fill="none" stroke="midnightblue" d="M639.996,-567.819C937.856,-562.136 2126.97,-534.71 2126.97,-459 2126.97,-459 2126.97,-459 2126.97,-345 2126.97,-310.813 2110.37,-273.764 2099.12,-252.571"/>
<polygon fill="midnightblue" stroke="midnightblue" points="2102.15,-250.832 2094.26,-243.769 2096.03,-254.215 2102.15,-250.832"/>
</g>
<!-- Node49 -->
<g id="node49" class="node"><title>Node49</title>
<g id="a_node49"><a xlink:href="nativeparser_8h" target="_top" xlink:title="nativeparser.h">
<polygon fill="white" stroke="black" points="2484.97,-504.5 2484.97,-523.5 2560.97,-523.5 2560.97,-504.5 2484.97,-504.5"/>
<text text-anchor="middle" x="2522.97" y="-511.5" font-family="FreeSans" font-size="10.00">nativeparser.h</text>
</a>
</g>
</g>
<!-- Node1&#45;&gt;Node49 -->
<g id="edge127" class="edge"><title>Node1&#45;&gt;Node49</title>
<path fill="none" stroke="midnightblue" d="M640.097,-567.141C946.743,-558.649 2210.8,-523.645 2474.59,-516.34"/>
<polygon fill="midnightblue" stroke="midnightblue" points="2474.72,-519.838 2484.62,-516.062 2474.53,-512.84 2474.72,-519.838"/>
</g>
<!-- Node4&#45;&gt;Node3 -->
<g id="edge4" class="edge"><title>Node4&#45;&gt;Node3</title>
<path fill="none" stroke="midnightblue" d="M571.258,-510.508C469.206,-502.16 158.882,-472.25 80.9736,-412 66.3148,-400.664 58.2385,-380.665 54.0364,-365.835"/>
<polygon fill="midnightblue" stroke="midnightblue" points="57.3353,-364.596 51.5333,-355.731 50.5407,-366.279 57.3353,-364.596"/>
</g>
<!-- Node5 -->
<g id="node5" class="node"><title>Node5</title>
<polygon fill="white" stroke="#bfbfbf" points="2506.47,-280.5 2506.47,-299.5 2549.47,-299.5 2549.47,-280.5 2506.47,-280.5"/>
<text text-anchor="middle" x="2527.97" y="-287.5" font-family="FreeSans" font-size="10.00">queue</text>
</g>
<!-- Node4&#45;&gt;Node5 -->
<g id="edge5" class="edge"><title>Node4&#45;&gt;Node5</title>
<path fill="none" stroke="midnightblue" d="M636.74,-512.613C828.231,-510.263 1804.31,-497.02 2102.97,-468 2254.97,-453.231 2312.45,-492.897 2441.97,-412 2481.73,-387.171 2508.4,-336.556 2520.51,-309.321"/>
<polygon fill="midnightblue" stroke="midnightblue" points="2523.86,-310.397 2524.57,-299.826 2517.42,-307.65 2523.86,-310.397"/>
</g>
<!-- Node4&#45;&gt;Node6 -->
<g id="edge6" class="edge"><title>Node4&#45;&gt;Node6</title>
<path fill="none" stroke="midnightblue" d="M594.173,-504.324C585.156,-496.341 571.568,-484.313 560.656,-474.653"/>
<polygon fill="midnightblue" stroke="midnightblue" points="562.76,-471.842 552.953,-467.834 558.12,-477.083 562.76,-471.842"/>
</g>
<!-- Node4&#45;&gt;Node44 -->
<g id="edge126" class="edge"><title>Node4&#45;&gt;Node44</title>
<path fill="none" stroke="midnightblue" d="M636.721,-512.341C854.86,-507.746 2088.97,-478.415 2088.97,-403 2088.97,-403 2088.97,-403 2088.97,-345 2088.97,-312.948 2088.97,-275.643 2088.97,-253.749"/>
<polygon fill="midnightblue" stroke="midnightblue" points="2092.47,-253.558 2088.97,-243.558 2085.47,-253.558 2092.47,-253.558"/>
</g>
<!-- Node6&#45;&gt;Node2 -->
<g id="edge13" class="edge"><title>Node6&#45;&gt;Node2</title>
<path fill="none" stroke="midnightblue" d="M502.895,-456.167C462.435,-453.438 399.946,-443.851 356.974,-412 313.771,-379.979 266.748,-251.869 253.974,-188 252.23,-179.284 248.468,-174.979 253.974,-168 271.73,-145.492 349.519,-132.984 399.304,-127.153"/>
<polygon fill="midnightblue" stroke="midnightblue" points="399.925,-130.606 409.471,-126.009 399.142,-123.65 399.925,-130.606"/>
</g>
<!-- Node6&#45;&gt;Node3 -->
<g id="edge15" class="edge"><title>Node6&#45;&gt;Node3</title>
<path fill="none" stroke="midnightblue" d="M502.65,-456.457C408.561,-454.613 177.322,-446.592 108.974,-412 87.8035,-401.285 70.5615,-379.563 60.2997,-364.184"/>
<polygon fill="midnightblue" stroke="midnightblue" points="63.1542,-362.15 54.8395,-355.583 57.2445,-365.902 63.1542,-362.15"/>
</g>
<!-- Node7 -->
<g id="node7" class="node"><title>Node7</title>
<polygon fill="white" stroke="#bfbfbf" points="262.974,-168.5 262.974,-187.5 322.974,-187.5 322.974,-168.5 262.974,-168.5"/>
<text text-anchor="middle" x="292.974" y="-175.5" font-family="FreeSans" font-size="10.00">wx/arrstr.h</text>
</g>
<!-- Node6&#45;&gt;Node7 -->
<g id="edge7" class="edge"><title>Node6&#45;&gt;Node7</title>
<path fill="none" stroke="midnightblue" d="M502.744,-455.212C466.788,-451.636 414.584,-441.315 379.974,-412 313.291,-355.52 297.668,-242.721 294.049,-197.948"/>
<polygon fill="midnightblue" stroke="midnightblue" points="297.534,-197.619 293.351,-187.885 290.551,-198.103 297.534,-197.619"/>
</g>
<!-- Node8 -->
<g id="node8" class="node"><title>Node8</title>
<polygon fill="white" stroke="#bfbfbf" points="2477.97,-0.5 2477.97,-19.5 2539.97,-19.5 2539.97,-0.5 2477.97,-0.5"/>
<text text-anchor="middle" x="2508.97" y="-7.5" font-family="FreeSans" font-size="10.00">wx/event.h</text>
</g>
<!-- Node6&#45;&gt;Node8 -->
<g id="edge8" class="edge"><title>Node6&#45;&gt;Node8</title>
<path fill="none" stroke="midnightblue" d="M583.039,-456.582C795.475,-454.251 1792,-441.88 2098.97,-412 2249.65,-397.333 2290.17,-400.189 2434.97,-356 2492.42,-338.468 2525.47,-350.512 2557.97,-300 2615.18,-211.104 2547.29,-76.1924 2519.65,-28.4716"/>
<polygon fill="midnightblue" stroke="midnightblue" points="2522.53,-26.4745 2514.42,-19.6598 2516.51,-30.046 2522.53,-26.4745"/>
</g>
<!-- Node9 -->
<g id="node9" class="node"><title>Node9</title>
<polygon fill="white" stroke="#bfbfbf" points="542.974,-56.5 542.974,-75.5 592.974,-75.5 592.974,-56.5 542.974,-56.5"/>
<text text-anchor="middle" x="567.974" y="-63.5" font-family="FreeSans" font-size="10.00">wx/file.h</text>
</g>
<!-- Node6&#45;&gt;Node9 -->
<g id="edge9" class="edge"><title>Node6&#45;&gt;Node9</title>
<path fill="none" stroke="midnightblue" d="M502.724,-456.773C453.448,-454.89 368.813,-446.352 305.974,-412 179.92,-343.091 82.5396,-311.204 93.9736,-168 95.98,-142.872 84.5972,-129.256 102.974,-112 134.131,-82.7425 429.242,-71.1568 532.504,-67.9772"/>
<polygon fill="midnightblue" stroke="midnightblue" points="532.836,-71.4689 542.726,-67.6708 532.626,-64.4721 532.836,-71.4689"/>
</g>
<!-- Node10 -->
<g id="node10" class="node"><title>Node10</title>
<polygon fill="white" stroke="#bfbfbf" points="455.474,-336.5 455.474,-355.5 514.474,-355.5 514.474,-336.5 455.474,-336.5"/>
<text text-anchor="middle" x="484.974" y="-343.5" font-family="FreeSans" font-size="10.00">wx/filefn.h</text>
</g>
<!-- Node6&#45;&gt;Node10 -->
<g id="edge10" class="edge"><title>Node6&#45;&gt;Node10</title>
<path fill="none" stroke="midnightblue" d="M538.422,-448.368C528.936,-430.376 506.882,-388.55 494.268,-364.627"/>
<polygon fill="midnightblue" stroke="midnightblue" points="497.264,-362.805 489.504,-355.591 491.072,-366.07 497.264,-362.805"/>
</g>
<!-- Node11 -->
<g id="node11" class="node"><title>Node11</title>
<polygon fill="white" stroke="#bfbfbf" points="1195.47,-336.5 1195.47,-355.5 1266.47,-355.5 1266.47,-336.5 1195.47,-336.5"/>
<text text-anchor="middle" x="1230.97" y="-343.5" font-family="FreeSans" font-size="10.00">wx/imaglist.h</text>
</g>
<!-- Node6&#45;&gt;Node11 -->
<g id="edge11" class="edge"><title>Node6&#45;&gt;Node11</title>
<path fill="none" stroke="midnightblue" d="M583.409,-451.488C642.941,-443.301 757.652,-427.249 854.974,-412 999.21,-389.401 1037.61,-383.336 1185.25,-356.094"/>
<polygon fill="midnightblue" stroke="midnightblue" points="1185.93,-359.527 1195.13,-354.269 1184.66,-352.643 1185.93,-359.527"/>
</g>
<!-- Node12 -->
<g id="node12" class="node"><title>Node12</title>
<polygon fill="white" stroke="#bfbfbf" points="903.974,-56.5 903.974,-75.5 965.974,-75.5 965.974,-56.5 903.974,-56.5"/>
<text text-anchor="middle" x="934.974" y="-63.5" font-family="FreeSans" font-size="10.00">wx/string.h</text>
</g>
<!-- Node6&#45;&gt;Node12 -->
<g id="edge12" class="edge"><title>Node6&#45;&gt;Node12</title>
<path fill="none" stroke="midnightblue" d="M542.651,-448.205C541.664,-427.847 537.777,-376.155 522.974,-336 483.688,-229.434 323.102,-195.609 399.974,-112 433.196,-75.8664 773.961,-68.7292 893.67,-67.3344"/>
<polygon fill="midnightblue" stroke="midnightblue" points="893.929,-70.8319 903.89,-67.2232 893.852,-63.8323 893.929,-70.8319"/>
</g>
<!-- Node13 -->
<g id="node13" class="node"><title>Node13</title>
<polygon fill="white" stroke="#bfbfbf" points="128.974,-112.5 128.974,-131.5 188.974,-131.5 188.974,-112.5 128.974,-112.5"/>
<text text-anchor="middle" x="158.974" y="-119.5" font-family="FreeSans" font-size="10.00">wx/timer.h</text>
</g>
<!-- Node6&#45;&gt;Node13 -->
<g id="edge14" class="edge"><title>Node6&#45;&gt;Node13</title>
<path fill="none" stroke="midnightblue" d="M502.868,-457.189C457.982,-455.527 384.887,-447.028 333.974,-412 232.904,-342.465 180.171,-193.644 164.256,-141.506"/>
<polygon fill="midnightblue" stroke="midnightblue" points="167.536,-140.256 161.343,-131.66 160.824,-142.242 167.536,-140.256"/>
</g>
<!-- Node14 -->
<g id="node14" class="node"><title>Node14</title>
<g id="a_node14"><a xlink:href="cbthreadpool_8h" target="_top" xlink:title="cbthreadpool.h">
<polygon fill="white" stroke="black" points="1544.97,-168.5 1544.97,-187.5 1624.97,-187.5 1624.97,-168.5 1544.97,-168.5"/>
<text text-anchor="middle" x="1584.97" y="-175.5" font-family="FreeSans" font-size="10.00">cbthreadpool.h</text>
</a>
</g>
</g>
<!-- Node6&#45;&gt;Node14 -->
<g id="edge16" class="edge"><title>Node6&#45;&gt;Node14</title>
<path fill="none" stroke="midnightblue" d="M583.037,-456.972C771.99,-456.323 1564.97,-447.604 1564.97,-347 1564.97,-347 1564.97,-347 1564.97,-289 1564.97,-256.438 1573.56,-219.315 1579.48,-197.592"/>
<polygon fill="midnightblue" stroke="midnightblue" points="1582.92,-198.317 1582.28,-187.742 1576.18,-196.408 1582.92,-198.317"/>
</g>
<!-- Node20 -->
<g id="node20" class="node"><title>Node20</title>
<g id="a_node20"><a xlink:href="sdk__events_8h" target="_top" xlink:title="sdk_events.h">
<polygon fill="white" stroke="black" points="2185.97,-56.5 2185.97,-75.5 2257.97,-75.5 2257.97,-56.5 2185.97,-56.5"/>
<text text-anchor="middle" x="2221.97" y="-63.5" font-family="FreeSans" font-size="10.00">sdk_events.h</text>
</a>
</g>
</g>
<!-- Node6&#45;&gt;Node20 -->
<g id="edge24" class="edge"><title>Node6&#45;&gt;Node20</title>
<path fill="none" stroke="midnightblue" d="M582.998,-456.372C848.143,-452.026 2342.84,-424.524 2407.97,-356 2482.91,-277.161 2468.89,-185.784 2388.97,-112 2356.2,-81.7457 2305.24,-71.4502 2268.23,-68.1378"/>
<polygon fill="midnightblue" stroke="midnightblue" points="2268.42,-64.6425 2258.18,-67.3779 2267.89,-71.6225 2268.42,-64.6425"/>
</g>
<!-- Node22 -->
<g id="node22" class="node"><title>Node22</title>
<g id="a_node22"><a xlink:href="parserthread_8h" target="_top" xlink:title="parserthread.h">
<polygon fill="white" stroke="black" points="1100.47,-336.5 1100.47,-355.5 1177.47,-355.5 1177.47,-336.5 1100.47,-336.5"/>
<text text-anchor="middle" x="1138.97" y="-343.5" font-family="FreeSans" font-size="10.00">parserthread.h</text>
</a>
</g>
</g>
<!-- Node6&#45;&gt;Node22 -->
<g id="edge29" class="edge"><title>Node6&#45;&gt;Node22</title>
<path fill="none" stroke="midnightblue" d="M583.004,-449.612C688.778,-430.09 975.438,-377.183 1090.36,-355.973"/>
<polygon fill="midnightblue" stroke="midnightblue" points="1091.08,-359.398 1100.28,-354.141 1089.81,-352.514 1091.08,-359.398"/>
</g>
<!-- Node48 -->
<g id="node48" class="node"><title>Node48</title>
<g id="a_node48"><a xlink:href="parser__base_8h" target="_top" xlink:title="parser_base.h">
<polygon fill="white" stroke="black" points="388.974,-392.5 388.974,-411.5 464.974,-411.5 464.974,-392.5 388.974,-392.5"/>
<text text-anchor="middle" x="426.974" y="-399.5" font-family="FreeSans" font-size="10.00">parser_base.h</text>
</a>
</g>
</g>
<!-- Node6&#45;&gt;Node48 -->
<g id="edge115" class="edge"><title>Node6&#45;&gt;Node48</title>
<path fill="none" stroke="midnightblue" d="M524.593,-448.444C505.757,-439.675 476.242,-425.935 454.594,-415.858"/>
<polygon fill="midnightblue" stroke="midnightblue" points="455.811,-412.564 445.268,-411.516 452.857,-418.91 455.811,-412.564"/>
</g>
<!-- Node14&#45;&gt;Node2 -->
<g id="edge17" class="edge"><title>Node14&#45;&gt;Node2</title>
<path fill="none" stroke="midnightblue" d="M1544.93,-169.293C1541.57,-168.799 1538.22,-168.357 1534.97,-168 1508.42,-165.077 683.514,-132.503 484.748,-124.681"/>
<polygon fill="midnightblue" stroke="midnightblue" points="484.818,-121.181 474.688,-124.285 484.543,-128.176 484.818,-121.181"/>
</g>
<!-- Node14&#45;&gt;Node8 -->
<g id="edge18" class="edge"><title>Node14&#45;&gt;Node8</title>
<path fill="none" stroke="midnightblue" d="M1625.15,-176.365C1751.67,-174.048 2140.63,-164.403 2261.97,-132 2350.97,-108.235 2446.1,-51.5769 2487.58,-25.0944"/>
<polygon fill="midnightblue" stroke="midnightblue" points="2489.54,-27.9943 2496.04,-19.6308 2485.74,-22.1129 2489.54,-27.9943"/>
</g>
<!-- Node15 -->
<g id="node15" class="node"><title>Node15</title>
<polygon fill="white" stroke="#bfbfbf" points="1863.47,-56.5 1863.47,-75.5 1906.47,-75.5 1906.47,-56.5 1863.47,-56.5"/>
<text text-anchor="middle" x="1884.97" y="-63.5" font-family="FreeSans" font-size="10.00">vector</text>
</g>
<!-- Node14&#45;&gt;Node15 -->
<g id="edge19" class="edge"><title>Node14&#45;&gt;Node15</title>
<path fill="none" stroke="midnightblue" d="M1612.16,-168.485C1638.67,-159.973 1679.99,-146.147 1714.97,-132 1734.51,-124.098 1738.46,-119.973 1757.97,-112 1790.09,-98.8762 1827.62,-85.855 1853.51,-77.2224"/>
<polygon fill="midnightblue" stroke="midnightblue" points="1854.77,-80.4915 1863.17,-74.0266 1852.57,-73.846 1854.77,-80.4915"/>
</g>
<!-- Node16 -->
<g id="node16" class="node"><title>Node16</title>
<polygon fill="white" stroke="#bfbfbf" points="1524.47,-56.5 1524.47,-75.5 1553.47,-75.5 1553.47,-56.5 1524.47,-56.5"/>
<text text-anchor="middle" x="1538.97" y="-63.5" font-family="FreeSans" font-size="10.00">list</text>
</g>
<!-- Node14&#45;&gt;Node16 -->
<g id="edge20" class="edge"><title>Node14&#45;&gt;Node16</title>
<path fill="none" stroke="midnightblue" d="M1581.36,-168.368C1573.87,-150.456 1556.51,-108.923 1546.48,-84.9482"/>
<polygon fill="midnightblue" stroke="midnightblue" points="1549.65,-83.4669 1542.57,-75.5914 1543.2,-86.1676 1549.65,-83.4669"/>
</g>
<!-- Node17 -->
<g id="node17" class="node"><title>Node17</title>
<g id="a_node17"><a xlink:href="cbthreadedtask_8h" target="_top" xlink:title="cbthreadedtask.h">
<polygon fill="white" stroke="black" points="1766.97,-112.5 1766.97,-131.5 1856.97,-131.5 1856.97,-112.5 1766.97,-112.5"/>
<text text-anchor="middle" x="1811.97" y="-119.5" font-family="FreeSans" font-size="10.00">cbthreadedtask.h</text>
</a>
</g>
</g>
<!-- Node14&#45;&gt;Node17 -->
<g id="edge21" class="edge"><title>Node14&#45;&gt;Node17</title>
<path fill="none" stroke="midnightblue" d="M1620.94,-168.444C1660.29,-159.083 1723.46,-144.056 1766.29,-133.868"/>
<polygon fill="midnightblue" stroke="midnightblue" points="1767.25,-137.236 1776.17,-131.516 1765.63,-130.426 1767.25,-137.236"/>
</g>
<!-- Node18 -->
<g id="node18" class="node"><title>Node18</title>
<g id="a_node18"><a xlink:href="settings_8h" target="_top" xlink:title="settings.h">
<polygon fill="white" stroke="black" points="1434.47,-0.5 1434.47,-19.5 1491.47,-19.5 1491.47,-0.5 1434.47,-0.5"/>
<text text-anchor="middle" x="1462.97" y="-7.5" font-family="FreeSans" font-size="10.00">settings.h</text>
</a>
</g>
</g>
<!-- Node14&#45;&gt;Node18 -->
<g id="edge22" class="edge"><title>Node14&#45;&gt;Node18</title>
<path fill="none" stroke="midnightblue" d="M1578.41,-168.075C1558.88,-141.493 1500.85,-62.5379 1475.29,-27.7633"/>
<polygon fill="midnightblue" stroke="midnightblue" points="1478.01,-25.5533 1469.27,-19.5681 1472.37,-29.6987 1478.01,-25.5533"/>
</g>
<!-- Node19 -->
<g id="node19" class="node"><title>Node19</title>
<g id="a_node19"><a xlink:href="prep_8h" target="_top" xlink:title="prep.h">
<polygon fill="white" stroke="black" points="1213.47,-0.5 1213.47,-19.5 1256.47,-19.5 1256.47,-0.5 1213.47,-0.5"/>
<text text-anchor="middle" x="1234.97" y="-7.5" font-family="FreeSans" font-size="10.00">prep.h</text>
</a>
</g>
</g>
<!-- Node14&#45;&gt;Node19 -->
<g id="edge23" class="edge"><title>Node14&#45;&gt;Node19</title>
<path fill="none" stroke="midnightblue" d="M1566.54,-168.412C1529.33,-151.062 1442.6,-110.54 1369.97,-76 1332.52,-58.1884 1289.36,-37.3534 1262.13,-24.168"/>
<polygon fill="midnightblue" stroke="midnightblue" points="1263.38,-20.8856 1252.85,-19.6761 1260.33,-27.1854 1263.38,-20.8856"/>
</g>
<!-- Node20&#45;&gt;Node8 -->
<g id="edge25" class="edge"><title>Node20&#45;&gt;Node8</title>
<path fill="none" stroke="midnightblue" d="M2258.03,-58.2155C2311.46,-48.1621 2411.4,-29.3592 2467.69,-18.7675"/>
<polygon fill="midnightblue" stroke="midnightblue" points="2468.49,-22.1781 2477.67,-16.8893 2467.2,-15.2988 2468.49,-22.1781"/>
</g>
<!-- Node20&#45;&gt;Node18 -->
<g id="edge27" class="edge"><title>Node20&#45;&gt;Node18</title>
<path fill="none" stroke="midnightblue" d="M2185.89,-57.4788C2182.54,-56.9215 2179.2,-56.4159 2175.97,-56 1920.02,-23.0259 1609.12,-13.9257 1501.68,-11.674"/>
<polygon fill="midnightblue" stroke="midnightblue" points="1501.7,-8.17379 1491.63,-11.4712 1501.56,-15.1724 1501.7,-8.17379"/>
</g>
<!-- Node20&#45;&gt;Node19 -->
<g id="edge28" class="edge"><title>Node20&#45;&gt;Node19</title>
<path fill="none" stroke="midnightblue" d="M2185.89,-57.4262C2182.55,-56.88 2179.21,-56.3913 2175.97,-56 2170.2,-55.3011 1431.4,-20.2994 1267.1,-12.5207"/>
<polygon fill="midnightblue" stroke="midnightblue" points="1266.86,-9.0053 1256.7,-12.0284 1266.53,-15.9975 1266.86,-9.0053"/>
</g>
<!-- Node21 -->
<g id="node21" class="node"><title>Node21</title>
<polygon fill="white" stroke="#bfbfbf" points="2196.47,-0.5 2196.47,-19.5 2247.47,-19.5 2247.47,-0.5 2196.47,-0.5"/>
<text text-anchor="middle" x="2221.97" y="-7.5" font-family="FreeSans" font-size="10.00">wx/intl.h</text>
</g>
<!-- Node20&#45;&gt;Node21 -->
<g id="edge26" class="edge"><title>Node20&#45;&gt;Node21</title>
<path fill="none" stroke="midnightblue" d="M2221.97,-56.083C2221.97,-49.0059 2221.97,-38.8611 2221.97,-29.9865"/>
<polygon fill="midnightblue" stroke="midnightblue" points="2225.47,-29.751 2221.97,-19.7511 2218.47,-29.7511 2225.47,-29.751"/>
</g>
<!-- Node22&#45;&gt;Node2 -->
<g id="edge33" class="edge"><title>Node22&#45;&gt;Node2</title>
<path fill="none" stroke="midnightblue" d="M1100.15,-343.375C1006.97,-338.344 764.626,-318.523 578.974,-244 535.952,-226.731 525.027,-219.457 490.974,-188 475.623,-173.82 461.657,-154.334 452.598,-140.402"/>
<polygon fill="midnightblue" stroke="midnightblue" points="455.452,-138.366 447.154,-131.779 449.533,-142.103 455.452,-138.366"/>
</g>
<!-- Node22&#45;&gt;Node5 -->
<g id="edge34" class="edge"><title>Node22&#45;&gt;Node5</title>
<path fill="none" stroke="midnightblue" d="M1177.63,-337.097C1180.45,-336.675 1183.25,-336.302 1185.97,-336 1692.9,-279.864 1823.33,-319.758 2332.97,-300 2390.55,-297.768 2457.66,-294.531 2496.24,-292.608"/>
<polygon fill="midnightblue" stroke="midnightblue" points="2496.52,-296.099 2506.34,-292.103 2496.17,-289.108 2496.52,-296.099"/>
</g>
<!-- Node22&#45;&gt;Node8 -->
<g id="edge31" class="edge"><title>Node22&#45;&gt;Node8</title>
<path fill="none" stroke="midnightblue" d="M1177.63,-337.128C1180.45,-336.699 1183.25,-336.315 1185.97,-336 1377.97,-313.764 1869.48,-354.293 2054.97,-300 2247.74,-243.58 2436.89,-78.1365 2492.58,-26.5472"/>
<polygon fill="midnightblue" stroke="midnightblue" points="2495.17,-28.9185 2500.08,-19.5325 2490.38,-23.805 2495.17,-28.9185"/>
</g>
<!-- Node22&#45;&gt;Node12 -->
<g id="edge32" class="edge"><title>Node22&#45;&gt;Node12</title>
<path fill="none" stroke="midnightblue" d="M1141.16,-336.254C1147.7,-307.874 1164.02,-217.334 1119.97,-168 1071.14,-113.307 1014.17,-180.267 958.974,-132 945.552,-120.263 939.627,-100.328 937.017,-85.6221"/>
<polygon fill="midnightblue" stroke="midnightblue" points="940.467,-85.0276 935.598,-75.6182 933.537,-86.0107 940.467,-85.0276"/>
</g>
<!-- Node22&#45;&gt;Node14 -->
<g id="edge36" class="edge"><title>Node22&#45;&gt;Node14</title>
<path fill="none" stroke="midnightblue" d="M1160.64,-336.369C1211.58,-316.143 1343.04,-264.346 1453.97,-224 1486.24,-212.266 1523.26,-199.625 1549.69,-190.737"/>
<polygon fill="midnightblue" stroke="midnightblue" points="1550.91,-194.022 1559.27,-187.525 1548.68,-187.385 1550.91,-194.022"/>
</g>
<!-- Node22&#45;&gt;Node15 -->
<g id="edge35" class="edge"><title>Node22&#45;&gt;Node15</title>
<path fill="none" stroke="midnightblue" d="M1175.5,-336.471C1315.82,-303.422 1814.9,-183.107 1865.97,-132 1878.04,-119.926 1882.53,-100.64 1884.16,-86.2066"/>
<polygon fill="midnightblue" stroke="midnightblue" points="1887.67,-86.1375 1884.94,-75.9015 1880.69,-85.6084 1887.67,-86.1375"/>
</g>
<!-- Node23 -->
<g id="node23" class="node"><title>Node23</title>
<polygon fill="white" stroke="#bfbfbf" points="1166.97,-280.5 1166.97,-299.5 1240.97,-299.5 1240.97,-280.5 1166.97,-280.5"/>
<text text-anchor="middle" x="1203.97" y="-287.5" font-family="FreeSans" font-size="10.00">wx/dynarray.h</text>
</g>
<!-- Node22&#45;&gt;Node23 -->
<g id="edge30" class="edge"><title>Node22&#45;&gt;Node23</title>
<path fill="none" stroke="midnightblue" d="M1149.42,-336.324C1159.12,-328.263 1173.79,-316.077 1185.47,-306.369"/>
<polygon fill="midnightblue" stroke="midnightblue" points="1187.88,-308.916 1193.34,-299.834 1183.41,-303.532 1187.88,-308.916"/>
</g>
<!-- Node24 -->
<g id="node24" class="node"><title>Node24</title>
<g id="a_node24"><a xlink:href="filemanager_8h" target="_top" xlink:title="filemanager.h">
<polygon fill="white" stroke="black" points="1036.97,-224.5 1036.97,-243.5 1110.97,-243.5 1110.97,-224.5 1036.97,-224.5"/>
<text text-anchor="middle" x="1073.97" y="-231.5" font-family="FreeSans" font-size="10.00">filemanager.h</text>
</a>
</g>
</g>
<!-- Node22&#45;&gt;Node24 -->
<g id="edge37" class="edge"><title>Node22&#45;&gt;Node24</title>
<path fill="none" stroke="midnightblue" d="M1133.87,-336.368C1123.19,-318.296 1098.31,-276.176 1084.2,-252.307"/>
<polygon fill="midnightblue" stroke="midnightblue" points="1087.15,-250.42 1079.05,-243.591 1081.12,-253.981 1087.15,-250.42"/>
</g>
<!-- Node39 -->
<g id="node39" class="node"><title>Node39</title>
<g id="a_node39"><a xlink:href="logmanager_8h" target="_top" xlink:title="logmanager.h">
<polygon fill="white" stroke="black" points="2026.97,-168.5 2026.97,-187.5 2100.97,-187.5 2100.97,-168.5 2026.97,-168.5"/>
<text text-anchor="middle" x="2063.97" y="-175.5" font-family="FreeSans" font-size="10.00">logmanager.h</text>
</a>
</g>
</g>
<!-- Node22&#45;&gt;Node39 -->
<g id="edge75" class="edge"><title>Node22&#45;&gt;Node39</title>
<path fill="none" stroke="midnightblue" d="M1177.63,-337.141C1180.45,-336.709 1183.25,-336.321 1185.97,-336 1273.46,-325.69 1900.63,-342.168 1977.97,-300 2019.51,-277.356 2045.69,-224.979 2057.19,-197.147"/>
<polygon fill="midnightblue" stroke="midnightblue" points="2060.46,-198.382 2060.88,-187.795 2053.95,-195.814 2060.46,-198.382"/>
</g>
<!-- Node41 -->
<g id="node41" class="node"><title>Node41</title>
<g id="a_node41"><a xlink:href="cclogger_8h" target="_top" xlink:title="cclogger.h">
<polygon fill="white" stroke="black" points="640.474,-224.5 640.474,-243.5 701.474,-243.5 701.474,-224.5 640.474,-224.5"/>
<text text-anchor="middle" x="670.974" y="-231.5" font-family="FreeSans" font-size="10.00">cclogger.h</text>
</a>
</g>
</g>
<!-- Node22&#45;&gt;Node41 -->
<g id="edge82" class="edge"><title>Node22&#45;&gt;Node41</title>
<path fill="none" stroke="midnightblue" d="M1102.64,-336.46C1016.72,-316.265 801.501,-265.68 711.518,-244.53"/>
<polygon fill="midnightblue" stroke="midnightblue" points="712.222,-241.1 701.686,-242.219 710.62,-247.914 712.222,-241.1"/>
</g>
<!-- Node43 -->
<g id="node43" class="node"><title>Node43</title>
<g id="a_node43"><a xlink:href="tokenizer_8h" target="_top" xlink:title="tokenizer.h">
<polygon fill="white" stroke="black" points="1009.47,-280.5 1009.47,-299.5 1072.47,-299.5 1072.47,-280.5 1009.47,-280.5"/>
<text text-anchor="middle" x="1040.97" y="-287.5" font-family="FreeSans" font-size="10.00">tokenizer.h</text>
</a>
</g>
</g>
<!-- Node22&#45;&gt;Node43 -->
<g id="edge91" class="edge"><title>Node22&#45;&gt;Node43</title>
<path fill="none" stroke="midnightblue" d="M1123.23,-336.324C1107.65,-327.743 1083.6,-314.486 1065.51,-304.522"/>
<polygon fill="midnightblue" stroke="midnightblue" points="1067.13,-301.415 1056.68,-299.655 1063.75,-307.546 1067.13,-301.415"/>
</g>
<!-- Node22&#45;&gt;Node44 -->
<g id="edge102" class="edge"><title>Node22&#45;&gt;Node44</title>
<path fill="none" stroke="midnightblue" d="M1177.63,-337.132C1180.45,-336.702 1183.25,-336.317 1185.97,-336 1278.88,-325.176 1941.8,-338.641 2026.97,-300 2049.08,-289.969 2067.23,-268.099 2078.06,-252.499"/>
<polygon fill="midnightblue" stroke="midnightblue" points="2081.24,-254.033 2083.83,-243.758 2075.4,-250.179 2081.24,-254.033"/>
</g>
<!-- Node46 -->
<g id="node46" class="node"><title>Node46</title>
<g id="a_node46"><a xlink:href="tokentree_8h" target="_top" xlink:title="tokentree.h">
<polygon fill="white" stroke="black" points="1904.47,-280.5 1904.47,-299.5 1969.47,-299.5 1969.47,-280.5 1904.47,-280.5"/>
<text text-anchor="middle" x="1936.97" y="-287.5" font-family="FreeSans" font-size="10.00">tokentree.h</text>
</a>
</g>
</g>
<!-- Node22&#45;&gt;Node46 -->
<g id="edge103" class="edge"><title>Node22&#45;&gt;Node46</title>
<path fill="none" stroke="midnightblue" d="M1177.64,-337.185C1180.45,-336.743 1183.25,-336.341 1185.97,-336 1453.99,-302.452 1779.05,-293.74 1894.11,-291.63"/>
<polygon fill="midnightblue" stroke="midnightblue" points="1894.33,-295.127 1904.26,-291.451 1894.2,-288.128 1894.33,-295.127"/>
</g>
<!-- Node24&#45;&gt;Node2 -->
<g id="edge38" class="edge"><title>Node24&#45;&gt;Node2</title>
<path fill="none" stroke="midnightblue" d="M1036.85,-225.523C1033.85,-224.984 1030.87,-224.469 1027.97,-224 904.558,-203.986 869.219,-222.249 748.974,-188 728.314,-182.116 725.508,-174.308 704.974,-168 629.212,-144.726 537.244,-132.462 484.573,-126.886"/>
<polygon fill="midnightblue" stroke="midnightblue" points="484.884,-123.4 474.579,-125.859 484.169,-130.363 484.884,-123.4"/>
</g>
<!-- Node24&#45;&gt;Node9 -->
<g id="edge66" class="edge"><title>Node24&#45;&gt;Node9</title>
<path fill="none" stroke="midnightblue" d="M1036.84,-225.577C1033.85,-225.026 1030.86,-224.493 1027.97,-224 919.055,-205.386 887.55,-220.61 781.974,-188 762.602,-182.017 759.224,-176.831 740.974,-168 707.691,-151.895 698.123,-150.262 665.974,-132 638.082,-116.157 607.513,-95.2768 588.058,-81.5104"/>
<polygon fill="midnightblue" stroke="midnightblue" points="589.88,-78.5108 579.707,-75.5533 585.815,-84.2097 589.88,-78.5108"/>
</g>
<!-- Node24&#45;&gt;Node12 -->
<g id="edge39" class="edge"><title>Node24&#45;&gt;Node12</title>
<path fill="none" stroke="midnightblue" d="M1063.03,-224.356C1046.53,-211.47 1014.1,-186.735 984.974,-168 957.526,-150.345 937.45,-160.171 920.974,-132 912.439,-117.407 918.251,-98.2375 924.788,-84.504"/>
<polygon fill="midnightblue" stroke="midnightblue" points="927.911,-86.0855 929.482,-75.6077 921.72,-82.8191 927.911,-86.0855"/>
</g>
<!-- Node25 -->
<g id="node25" class="node"><title>Node25</title>
<polygon fill="white" stroke="#bfbfbf" points="683.474,-112.5 683.474,-131.5 734.474,-131.5 734.474,-112.5 683.474,-112.5"/>
<text text-anchor="middle" x="708.974" y="-119.5" font-family="FreeSans" font-size="10.00">wx/log.h</text>
</g>
<!-- Node24&#45;&gt;Node25 -->
<g id="edge40" class="edge"><title>Node24&#45;&gt;Node25</title>
<path fill="none" stroke="midnightblue" d="M1049.41,-224.463C1012.12,-211.609 938.894,-186.79 875.974,-168 830.865,-154.529 778.372,-140.68 744.458,-131.969"/>
<polygon fill="midnightblue" stroke="midnightblue" points="745.113,-128.524 734.558,-129.436 743.378,-135.305 745.113,-128.524"/>
</g>
<!-- Node26 -->
<g id="node26" class="node"><title>Node26</title>
<g id="a_node26"><a xlink:href="backgroundthread_8h" target="_top" xlink:title="backgroundthread.h">
<polygon fill="white" stroke="black" points="1281.47,-168.5 1281.47,-187.5 1382.47,-187.5 1382.47,-168.5 1281.47,-168.5"/>
<text text-anchor="middle" x="1331.97" y="-175.5" font-family="FreeSans" font-size="10.00">backgroundthread.h</text>
</a>
</g>
</g>
<!-- Node24&#45;&gt;Node26 -->
<g id="edge41" class="edge"><title>Node24&#45;&gt;Node26</title>
<path fill="none" stroke="midnightblue" d="M1111.21,-225.206C1155.99,-215.833 1231.36,-200.059 1281.38,-189.589"/>
<polygon fill="midnightblue" stroke="midnightblue" points="1282.27,-192.979 1291.34,-187.505 1280.84,-186.128 1282.27,-192.979"/>
</g>
<!-- Node29 -->
<g id="node29" class="node"><title>Node29</title>
<polygon fill="white" stroke="#bfbfbf" points="1648.47,-56.5 1648.47,-75.5 1691.47,-75.5 1691.47,-56.5 1648.47,-56.5"/>
<text text-anchor="middle" x="1669.97" y="-63.5" font-family="FreeSans" font-size="10.00">deque</text>
</g>
<!-- Node24&#45;&gt;Node29 -->
<g id="edge64" class="edge"><title>Node24&#45;&gt;Node29</title>
<path fill="none" stroke="midnightblue" d="M1110.98,-231.717C1171.06,-228.762 1292.96,-219.119 1390.97,-188 1409.54,-182.105 1411.41,-173.903 1429.97,-168 1483.88,-150.858 1644.91,-174.735 1681.97,-132 1693.21,-119.04 1687.23,-99.0491 1680.31,-84.6594"/>
<polygon fill="midnightblue" stroke="midnightblue" points="1683.36,-82.9314 1675.57,-75.7474 1677.18,-86.2195 1683.36,-82.9314"/>
</g>
<!-- Node33 -->
<g id="node33" class="node"><title>Node33</title>
<polygon fill="white" stroke="#bfbfbf" points="645.474,-168.5 645.474,-187.5 696.474,-187.5 696.474,-168.5 645.474,-168.5"/>
<text text-anchor="middle" x="670.974" y="-175.5" font-family="FreeSans" font-size="10.00">memory</text>
</g>
<!-- Node24&#45;&gt;Node33 -->
<g id="edge65" class="edge"><title>Node24&#45;&gt;Node33</title>
<path fill="none" stroke="midnightblue" d="M1036.86,-225.474C1033.86,-224.946 1030.87,-224.447 1027.97,-224 887.839,-202.37 850.791,-211.597 710.974,-188 709.526,-187.756 708.052,-187.492 706.565,-187.215"/>
<polygon fill="midnightblue" stroke="midnightblue" points="707.209,-183.774 696.713,-185.222 705.821,-190.635 707.209,-183.774"/>
</g>
<!-- Node34 -->
<g id="node34" class="node"><title>Node34</title>
<polygon fill="white" stroke="#bfbfbf" points="1036.97,-168.5 1036.97,-187.5 1110.97,-187.5 1110.97,-168.5 1036.97,-168.5"/>
<text text-anchor="middle" x="1073.97" y="-175.5" font-family="FreeSans" font-size="10.00">wx/filename.h</text>
</g>
<!-- Node24&#45;&gt;Node34 -->
<g id="edge67" class="edge"><title>Node24&#45;&gt;Node34</title>
<path fill="none" stroke="midnightblue" d="M1073.97,-224.083C1073.97,-217.006 1073.97,-206.861 1073.97,-197.986"/>
<polygon fill="midnightblue" stroke="midnightblue" points="1077.47,-197.751 1073.97,-187.751 1070.47,-197.751 1077.47,-197.751"/>
</g>
<!-- Node35 -->
<g id="node35" class="node"><title>Node35</title>
<g id="a_node35"><a xlink:href="configmanager_8h" target="_top" xlink:title="configmanager.h">
<polygon fill="white" stroke="red" points="1439.47,-168.5 1439.47,-187.5 1526.47,-187.5 1526.47,-168.5 1439.47,-168.5"/>
<text text-anchor="middle" x="1482.97" y="-175.5" font-family="FreeSans" font-size="10.00">configmanager.h</text>
</a>
</g>
</g>
<!-- Node24&#45;&gt;Node35 -->
<g id="edge68" class="edge"><title>Node24&#45;&gt;Node35</title>
<path fill="none" stroke="midnightblue" d="M1111.16,-228.56C1175.28,-220.831 1310.77,-204.179 1424.97,-188 1426.42,-187.795 1427.89,-187.584 1429.38,-187.369"/>
<polygon fill="midnightblue" stroke="midnightblue" points="1429.91,-190.829 1439.29,-185.905 1428.88,-183.904 1429.91,-190.829"/>
</g>
<!-- Node26&#45;&gt;Node2 -->
<g id="edge52" class="edge"><title>Node26&#45;&gt;Node2</title>
<path fill="none" stroke="midnightblue" d="M1281.25,-173.922C1121.81,-164.249 632.609,-134.567 484.745,-125.595"/>
<polygon fill="midnightblue" stroke="midnightblue" points="484.892,-122.098 474.698,-124.986 484.468,-129.085 484.892,-122.098"/>
</g>
<!-- Node26&#45;&gt;Node13 -->
<g id="edge51" class="edge"><title>Node26&#45;&gt;Node13</title>
<path fill="none" stroke="midnightblue" d="M1281.19,-174.662C1084.69,-165.616 376.326,-133.006 199.291,-124.856"/>
<polygon fill="midnightblue" stroke="midnightblue" points="199.266,-121.351 189.116,-124.388 198.944,-128.344 199.266,-121.351"/>
</g>
<!-- Node26&#45;&gt;Node16 -->
<g id="edge49" class="edge"><title>Node26&#45;&gt;Node16</title>
<path fill="none" stroke="midnightblue" d="M1348.22,-168.368C1384.56,-149.057 1472.57,-102.288 1515.13,-79.6693"/>
<polygon fill="midnightblue" stroke="midnightblue" points="1517.02,-82.6309 1524.21,-74.8475 1513.73,-76.4494 1517.02,-82.6309"/>
</g>
<!-- Node27 -->
<g id="node27" class="node"><title>Node27</title>
<g id="a_node27"><a xlink:href="safedelete_8h" target="_top" xlink:title="safedelete.h">
<polygon fill="white" stroke="black" points="1604.97,-112.5 1604.97,-131.5 1672.97,-131.5 1672.97,-112.5 1604.97,-112.5"/>
<text text-anchor="middle" x="1638.97" y="-119.5" font-family="FreeSans" font-size="10.00">safedelete.h</text>
</a>
</g>
</g>
<!-- Node26&#45;&gt;Node27 -->
<g id="edge42" class="edge"><title>Node26&#45;&gt;Node27</title>
<path fill="none" stroke="midnightblue" d="M1382.14,-168.487C1434.35,-159.581 1518.44,-145.101 1590.97,-132 1592.24,-131.771 1593.53,-131.538 1594.82,-131.301"/>
<polygon fill="midnightblue" stroke="midnightblue" points="1595.69,-134.7 1604.9,-129.448 1594.43,-127.816 1595.69,-134.7"/>
</g>
<!-- Node26&#45;&gt;Node29 -->
<g id="edge48" class="edge"><title>Node26&#45;&gt;Node29</title>
<path fill="none" stroke="midnightblue" d="M1358.21,-168.46C1419.61,-148.479 1572.41,-98.7525 1638.59,-77.2146"/>
<polygon fill="midnightblue" stroke="midnightblue" points="1640.01,-80.4317 1648.44,-74.0088 1637.85,-73.7753 1640.01,-80.4317"/>
</g>
<!-- Node30 -->
<g id="node30" class="node"><title>Node30</title>
<polygon fill="white" stroke="#bfbfbf" points="1378.97,-56.5 1378.97,-75.5 1434.97,-75.5 1434.97,-56.5 1378.97,-56.5"/>
<text text-anchor="middle" x="1406.97" y="-63.5" font-family="FreeSans" font-size="10.00">algorithm</text>
</g>
<!-- Node26&#45;&gt;Node30 -->
<g id="edge50" class="edge"><title>Node26&#45;&gt;Node30</title>
<path fill="none" stroke="midnightblue" d="M1339.51,-168.306C1347.06,-159.435 1358.84,-145.143 1367.97,-132 1378.75,-116.502 1389.69,-97.9649 1397.23,-84.66"/>
<polygon fill="midnightblue" stroke="midnightblue" points="1400.45,-86.0786 1402.28,-75.6425 1394.34,-82.6614 1400.45,-86.0786"/>
</g>
<!-- Node31 -->
<g id="node31" class="node"><title>Node31</title>
<g id="a_node31"><a xlink:href="manager_8h" target="_top" xlink:title="manager.h">
<polygon fill="white" stroke="red" points="2190.97,-112.5 2190.97,-131.5 2252.97,-131.5 2252.97,-112.5 2190.97,-112.5"/>
<text text-anchor="middle" x="2221.97" y="-119.5" font-family="FreeSans" font-size="10.00">manager.h</text>
</a>
</g>
</g>
<!-- Node26&#45;&gt;Node31 -->
<g id="edge53" class="edge"><title>Node26&#45;&gt;Node31</title>
<path fill="none" stroke="midnightblue" d="M1382.56,-172.013C1397.79,-170.603 1414.55,-169.143 1429.97,-168 1712.76,-147.031 1783.87,-148.219 2066.97,-132 2105.54,-129.791 2149.5,-127.235 2180.72,-125.412"/>
<polygon fill="midnightblue" stroke="midnightblue" points="2181.02,-128.901 2190.8,-124.824 2180.61,-121.913 2181.02,-128.901"/>
</g>
<!-- Node32 -->
<g id="node32" class="node"><title>Node32</title>
<g id="a_node32"><a xlink:href="blockallocated_8h" target="_top" xlink:title="blockallocated.h">
<polygon fill="white" stroke="red" points="1076.97,-112.5 1076.97,-131.5 1162.97,-131.5 1162.97,-112.5 1076.97,-112.5"/>
<text text-anchor="middle" x="1119.97" y="-119.5" font-family="FreeSans" font-size="10.00">blockallocated.h</text>
</a>
</g>
</g>
<!-- Node26&#45;&gt;Node32 -->
<g id="edge59" class="edge"><title>Node26&#45;&gt;Node32</title>
<path fill="none" stroke="midnightblue" d="M1298.38,-168.444C1261.79,-159.122 1203.14,-144.183 1163.15,-133.997"/>
<polygon fill="midnightblue" stroke="midnightblue" points="1163.96,-130.593 1153.41,-131.516 1162.24,-137.377 1163.96,-130.593"/>
</g>
<!-- Node27&#45;&gt;Node15 -->
<g id="edge44" class="edge"><title>Node27&#45;&gt;Node15</title>
<path fill="none" stroke="midnightblue" d="M1673.18,-113.492C1721.05,-102.984 1807.33,-84.0434 1853.62,-73.8831"/>
<polygon fill="midnightblue" stroke="midnightblue" points="1854.38,-77.2987 1863.4,-71.736 1852.88,-70.4615 1854.38,-77.2987"/>
</g>
<!-- Node27&#45;&gt;Node16 -->
<g id="edge45" class="edge"><title>Node27&#45;&gt;Node16</title>
<path fill="none" stroke="midnightblue" d="M1622.91,-112.324C1606.64,-103.54 1581.3,-89.8558 1562.72,-79.8206"/>
<polygon fill="midnightblue" stroke="midnightblue" points="1564.16,-76.6225 1553.7,-74.9507 1560.83,-82.7819 1564.16,-76.6225"/>
</g>
<!-- Node28 -->
<g id="node28" class="node"><title>Node28</title>
<polygon fill="white" stroke="#bfbfbf" points="2132.47,-56.5 2132.47,-75.5 2167.47,-75.5 2167.47,-56.5 2132.47,-56.5"/>
<text text-anchor="middle" x="2149.97" y="-63.5" font-family="FreeSans" font-size="10.00">map</text>
</g>
<!-- Node27&#45;&gt;Node28 -->
<g id="edge43" class="edge"><title>Node27&#45;&gt;Node28</title>
<path fill="none" stroke="midnightblue" d="M1673.07,-117.959C1747.67,-111.218 1930.91,-94.1696 2083.97,-76 2096.55,-74.5075 2110.44,-72.6455 2122.22,-71.003"/>
<polygon fill="midnightblue" stroke="midnightblue" points="2122.93,-74.4367 2132.35,-69.5732 2121.96,-67.5054 2122.93,-74.4367"/>
</g>
<!-- Node27&#45;&gt;Node29 -->
<g id="edge46" class="edge"><title>Node27&#45;&gt;Node29</title>
<path fill="none" stroke="midnightblue" d="M1644.09,-112.083C1648.38,-104.613 1654.63,-93.7244 1659.92,-84.5199"/>
<polygon fill="midnightblue" stroke="midnightblue" points="1663.01,-86.1662 1664.95,-75.7511 1656.94,-82.6811 1663.01,-86.1662"/>
</g>
<!-- Node27&#45;&gt;Node30 -->
<g id="edge47" class="edge"><title>Node27&#45;&gt;Node30</title>
<path fill="none" stroke="midnightblue" d="M1604.74,-113.032C1562.06,-103.098 1489.33,-86.1688 1444.97,-75.8429"/>
<polygon fill="midnightblue" stroke="midnightblue" points="1445.68,-72.4147 1435.14,-73.5565 1444.09,-79.2325 1445.68,-72.4147"/>
</g>
<!-- Node31&#45;&gt;Node8 -->
<g id="edge56" class="edge"><title>Node31&#45;&gt;Node8</title>
<path fill="none" stroke="midnightblue" d="M2230.91,-112.376C2245.95,-98.3545 2277.85,-70.7044 2309.97,-56 2361.49,-32.4192 2426.31,-20.7382 2467.71,-15.2923"/>
<polygon fill="midnightblue" stroke="midnightblue" points="2468.22,-18.7558 2477.7,-14.0386 2467.34,-11.8102 2468.22,-18.7558"/>
</g>
<!-- Node31&#45;&gt;Node15 -->
<g id="edge55" class="edge"><title>Node31&#45;&gt;Node15</title>
<path fill="none" stroke="midnightblue" d="M2190.87,-116.017C2126.97,-105.777 1981.5,-82.4663 1916.9,-72.1156"/>
<polygon fill="midnightblue" stroke="midnightblue" points="1917.32,-68.6382 1906.89,-70.5119 1916.21,-75.5501 1917.32,-68.6382"/>
</g>
<!-- Node31&#45;&gt;Node18 -->
<g id="edge57" class="edge"><title>Node31&#45;&gt;Node18</title>
<path fill="none" stroke="midnightblue" d="M2202.5,-112.473C2182.44,-103.616 2150.34,-89.2279 2122.97,-76 2105.44,-67.5228 2102.73,-61.2539 2083.97,-56 1973.59,-25.0817 1619.84,-14.5064 1501.76,-11.7885"/>
<polygon fill="midnightblue" stroke="midnightblue" points="1501.8,-8.28863 1491.73,-11.5635 1501.64,-15.2869 1501.8,-8.28863"/>
</g>
<!-- Node31&#45;&gt;Node20 -->
<g id="edge58" class="edge"><title>Node31&#45;&gt;Node20</title>
<path fill="none" stroke="midnightblue" d="M2221.97,-112.083C2221.97,-105.006 2221.97,-94.8611 2221.97,-85.9865"/>
<polygon fill="midnightblue" stroke="midnightblue" points="2225.47,-85.751 2221.97,-75.7511 2218.47,-85.7511 2225.47,-85.751"/>
</g>
<!-- Node31&#45;&gt;Node28 -->
<g id="edge54" class="edge"><title>Node31&#45;&gt;Node28</title>
<path fill="none" stroke="midnightblue" d="M2210.41,-112.324C2199.55,-104.185 2183.09,-91.8395 2170.09,-82.0874"/>
<polygon fill="midnightblue" stroke="midnightblue" points="2171.85,-79.0339 2161.75,-75.8339 2167.65,-84.6339 2171.85,-79.0339"/>
</g>
<!-- Node32&#45;&gt;Node9 -->
<g id="edge61" class="edge"><title>Node32&#45;&gt;Node9</title>
<path fill="none" stroke="midnightblue" d="M1076.66,-116.763C970.708,-106.398 700.066,-79.9221 603.156,-70.4417"/>
<polygon fill="midnightblue" stroke="midnightblue" points="603.301,-66.9393 593.007,-69.4489 602.619,-73.906 603.301,-66.9393"/>
</g>
<!-- Node32&#45;&gt;Node12 -->
<g id="edge62" class="edge"><title>Node32&#45;&gt;Node12</title>
<path fill="none" stroke="midnightblue" d="M1090.66,-112.444C1059.13,-103.241 1008.84,-88.5617 973.988,-78.3879"/>
<polygon fill="midnightblue" stroke="midnightblue" points="974.73,-74.9587 964.15,-75.5164 972.769,-81.6783 974.73,-74.9587"/>
</g>
<!-- Node32&#45;&gt;Node15 -->
<g id="edge60" class="edge"><title>Node32&#45;&gt;Node15</title>
<path fill="none" stroke="midnightblue" d="M1162.98,-116.407C1177.85,-114.896 1194.64,-113.278 1209.97,-112 1457.35,-91.3912 1756.35,-74.1388 1853.12,-68.7481"/>
<polygon fill="midnightblue" stroke="midnightblue" points="1853.6,-72.2269 1863.39,-68.1782 1853.21,-65.2376 1853.6,-72.2269"/>
</g>
<!-- Node32&#45;&gt;Node19 -->
<g id="edge63" class="edge"><title>Node32&#45;&gt;Node19</title>
<path fill="none" stroke="midnightblue" d="M1129,-112.368C1148.31,-93.8941 1193.9,-50.2926 1218.51,-26.7436"/>
<polygon fill="midnightblue" stroke="midnightblue" points="1221.18,-29.0329 1225.99,-19.5914 1216.35,-23.9744 1221.18,-29.0329"/>
</g>
<!-- Node35&#45;&gt;Node18 -->
<g id="edge71" class="edge"><title>Node35&#45;&gt;Node18</title>
<path fill="none" stroke="midnightblue" d="M1439.39,-172.893C1366.09,-165.543 1224.64,-149.282 1209.97,-132 1146.62,-57.3427 1338.95,-25.31 1424.33,-15.0059"/>
<polygon fill="midnightblue" stroke="midnightblue" points="1424.9,-18.463 1434.43,-13.8285 1424.09,-11.5101 1424.9,-18.463"/>
</g>
<!-- Node35&#45;&gt;Node28 -->
<g id="edge73" class="edge"><title>Node35&#45;&gt;Node28</title>
<path fill="none" stroke="midnightblue" d="M1526.6,-169.227C1529.76,-168.775 1532.91,-168.359 1535.97,-168 1657.4,-153.747 1973.61,-182.46 2084.97,-132 2107.82,-121.649 2127.11,-99.5105 2138.6,-83.9581"/>
<polygon fill="midnightblue" stroke="midnightblue" points="2141.52,-85.8881 2144.44,-75.7011 2135.81,-81.8492 2141.52,-85.8881"/>
</g>
<!-- Node35&#45;&gt;Node31 -->
<g id="edge72" class="edge"><title>Node35&#45;&gt;Node31</title>
<path fill="none" stroke="midnightblue" d="M1526.59,-169.207C1529.76,-168.759 1532.91,-168.35 1535.97,-168 1802.71,-137.482 1871.44,-154.478 2138.97,-132 2152.54,-130.861 2167.32,-129.346 2180.59,-127.885"/>
<polygon fill="midnightblue" stroke="midnightblue" points="2181.32,-131.326 2190.87,-126.733 2180.54,-124.369 2181.32,-131.326"/>
</g>
<!-- Node36 -->
<g id="node36" class="node"><title>Node36</title>
<polygon fill="white" stroke="#bfbfbf" points="791.474,-112.5 791.474,-131.5 868.474,-131.5 868.474,-112.5 791.474,-112.5"/>
<text text-anchor="middle" x="829.974" y="-119.5" font-family="FreeSans" font-size="10.00">wx/hashmap.h</text>
</g>
<!-- Node35&#45;&gt;Node36 -->
<g id="edge69" class="edge"><title>Node35&#45;&gt;Node36</title>
<path fill="none" stroke="midnightblue" d="M1439.46,-172.586C1424.14,-171.074 1406.8,-169.409 1390.97,-168 1201.76,-151.158 976.384,-133.943 878.9,-126.636"/>
<polygon fill="midnightblue" stroke="midnightblue" points="878.995,-123.133 868.761,-125.877 878.472,-130.113 878.995,-123.133"/>
</g>
<!-- Node37 -->
<g id="node37" class="node"><title>Node37</title>
<polygon fill="white" stroke="#bfbfbf" points="1219.47,-112.5 1219.47,-131.5 1290.47,-131.5 1290.47,-112.5 1219.47,-112.5"/>
<text text-anchor="middle" x="1254.97" y="-119.5" font-family="FreeSans" font-size="10.00">wx/hashset.h</text>
</g>
<!-- Node35&#45;&gt;Node37 -->
<g id="edge70" class="edge"><title>Node35&#45;&gt;Node37</title>
<path fill="none" stroke="midnightblue" d="M1446.85,-168.444C1407.21,-159.055 1343.5,-143.968 1300.48,-133.778"/>
<polygon fill="midnightblue" stroke="midnightblue" points="1301.09,-130.326 1290.56,-131.428 1299.48,-137.138 1301.09,-130.326"/>
</g>
<!-- Node38 -->
<g id="node38" class="node"><title>Node38</title>
<polygon fill="white" stroke="#bfbfbf" points="2046.47,-56.5 2046.47,-75.5 2075.47,-75.5 2075.47,-56.5 2046.47,-56.5"/>
<text text-anchor="middle" x="2060.97" y="-63.5" font-family="FreeSans" font-size="10.00">set</text>
</g>
<!-- Node35&#45;&gt;Node38 -->
<g id="edge74" class="edge"><title>Node35&#45;&gt;Node38</title>
<path fill="none" stroke="midnightblue" d="M1526.6,-169.235C1529.76,-168.781 1532.92,-168.362 1535.97,-168 1594.7,-161.041 2026.6,-175.206 2066.97,-132 2078.43,-119.74 2074.63,-99.9187 2069.38,-85.3833"/>
<polygon fill="midnightblue" stroke="midnightblue" points="2072.54,-83.8459 2065.51,-75.9173 2066.06,-86.4979 2072.54,-83.8459"/>
</g>
<!-- Node39&#45;&gt;Node28 -->
<g id="edge81" class="edge"><title>Node39&#45;&gt;Node28</title>
<path fill="none" stroke="midnightblue" d="M2101.16,-173.971C2152.83,-168.902 2242.24,-156.727 2261.97,-132 2267.52,-125.053 2266.95,-119.364 2261.97,-112 2256.97,-104.598 2208.93,-87.0871 2177.41,-76.2211"/>
<polygon fill="midnightblue" stroke="midnightblue" points="2178.43,-72.8703 2167.83,-72.948 2176.16,-79.4941 2178.43,-72.8703"/>
</g>
<!-- Node39&#45;&gt;Node31 -->
<g id="edge76" class="edge"><title>Node39&#45;&gt;Node31</title>
<path fill="none" stroke="midnightblue" d="M2089.01,-168.444C2115.59,-159.359 2157.78,-144.939 2187.5,-134.783"/>
<polygon fill="midnightblue" stroke="midnightblue" points="2188.72,-138.062 2197.06,-131.516 2186.46,-131.439 2188.72,-138.062"/>
</g>
<!-- Node40 -->
<g id="node40" class="node"><title>Node40</title>
<g id="a_node40"><a xlink:href="logger_8h" target="_top" xlink:title="logger.h">
<polygon fill="white" stroke="black" points="1308.97,-112.5 1308.97,-131.5 1358.97,-131.5 1358.97,-112.5 1308.97,-112.5"/>
<text text-anchor="middle" x="1333.97" y="-119.5" font-family="FreeSans" font-size="10.00">logger.h</text>
</a>
</g>
</g>
<!-- Node39&#45;&gt;Node40 -->
<g id="edge77" class="edge"><title>Node39&#45;&gt;Node40</title>
<path fill="none" stroke="midnightblue" d="M2026.77,-174.248C1900.86,-164.934 1491.75,-134.671 1369.07,-125.596"/>
<polygon fill="midnightblue" stroke="midnightblue" points="1369.31,-122.105 1359.08,-124.857 1368.8,-129.086 1369.31,-122.105"/>
</g>
<!-- Node40&#45;&gt;Node12 -->
<g id="edge79" class="edge"><title>Node40&#45;&gt;Node12</title>
<path fill="none" stroke="midnightblue" d="M1308.83,-114.121C1305.53,-113.34 1302.18,-112.608 1298.97,-112 1183.17,-90.048 1044.54,-76.315 976.624,-70.3918"/>
<polygon fill="midnightblue" stroke="midnightblue" points="976.609,-66.8777 966.346,-69.5082 976.01,-73.852 976.609,-66.8777"/>
</g>
<!-- Node40&#45;&gt;Node18 -->
<g id="edge80" class="edge"><title>Node40&#45;&gt;Node18</title>
<path fill="none" stroke="midnightblue" d="M1336.82,-112.339C1341.68,-98.7562 1352.73,-72.3148 1369.97,-56 1385.54,-41.2648 1406.85,-30.4798 1425.14,-23.1684"/>
<polygon fill="midnightblue" stroke="midnightblue" points="1426.54,-26.3778 1434.65,-19.5602 1424.06,-19.8324 1426.54,-26.3778"/>
</g>
<!-- Node40&#45;&gt;Node19 -->
<g id="edge78" class="edge"><title>Node40&#45;&gt;Node19</title>
<path fill="none" stroke="midnightblue" d="M1326.21,-112.368C1309.65,-93.9744 1270.68,-50.6712 1249.42,-27.0519"/>
<polygon fill="midnightblue" stroke="midnightblue" points="1252,-24.683 1242.71,-19.5914 1246.79,-29.3658 1252,-24.683"/>
</g>
<!-- Node41&#45;&gt;Node2 -->
<g id="edge84" class="edge"><title>Node41&#45;&gt;Node2</title>
<path fill="none" stroke="midnightblue" d="M649.216,-224.393C627.62,-215.703 593.682,-201.649 564.974,-188 530.119,-171.429 490.855,-150.22 466.265,-136.62"/>
<polygon fill="midnightblue" stroke="midnightblue" points="467.735,-133.432 457.293,-131.635 464.335,-139.551 467.735,-133.432"/>
</g>
<!-- Node41&#45;&gt;Node12 -->
<g id="edge83" class="edge"><title>Node41&#45;&gt;Node12</title>
<path fill="none" stroke="midnightblue" d="M661.418,-224.45C652.885,-216.12 640.984,-202.604 635.974,-188 624.188,-153.651 636.468,-133.17 665.974,-112 701.762,-86.3223 827.607,-74.1998 893.71,-69.492"/>
<polygon fill="midnightblue" stroke="midnightblue" points="894.047,-72.9772 903.784,-68.7991 893.567,-65.9937 894.047,-72.9772"/>
</g>
<!-- Node41&#45;&gt;Node19 -->
<g id="edge90" class="edge"><title>Node41&#45;&gt;Node19</title>
<path fill="none" stroke="midnightblue" d="M655.229,-224.436C608.555,-198.04 477.619,-116.089 533.974,-56 557.174,-31.2629 1069.47,-15.5354 1203.25,-11.8404"/>
<polygon fill="midnightblue" stroke="midnightblue" points="1203.37,-15.3386 1213.27,-11.5667 1203.18,-8.34117 1203.37,-15.3386"/>
</g>
<!-- Node41&#45;&gt;Node33 -->
<g id="edge85" class="edge"><title>Node41&#45;&gt;Node33</title>
<path fill="none" stroke="midnightblue" d="M670.974,-224.083C670.974,-217.006 670.974,-206.861 670.974,-197.986"/>
<polygon fill="midnightblue" stroke="midnightblue" points="674.474,-197.751 670.974,-187.751 667.474,-197.751 674.474,-197.751"/>
</g>
<!-- Node41&#45;&gt;Node39 -->
<g id="edge89" class="edge"><title>Node41&#45;&gt;Node39</title>
<path fill="none" stroke="midnightblue" d="M701.692,-231.809C881.491,-224.839 1797.1,-189.345 2016.62,-180.836"/>
<polygon fill="midnightblue" stroke="midnightblue" points="2016.98,-184.324 2026.84,-180.439 2016.71,-177.33 2016.98,-184.324"/>
</g>
<!-- Node42 -->
<g id="node42" class="node"><title>Node42</title>
<g id="a_node42"><a xlink:href="cbexception_8h" target="_top" xlink:title="cbexception.h">
<polygon fill="white" stroke="red" points="790.974,-168.5 790.974,-187.5 866.974,-187.5 866.974,-168.5 790.974,-168.5"/>
<text text-anchor="middle" x="828.974" y="-175.5" font-family="FreeSans" font-size="10.00">cbexception.h</text>
</a>
</g>
</g>
<!-- Node41&#45;&gt;Node42 -->
<g id="edge86" class="edge"><title>Node41&#45;&gt;Node42</title>
<path fill="none" stroke="midnightblue" d="M696.009,-224.444C722.59,-215.359 764.782,-200.939 794.497,-190.783"/>
<polygon fill="midnightblue" stroke="midnightblue" points="795.725,-194.062 804.055,-187.516 793.461,-187.439 795.725,-194.062"/>
</g>
<!-- Node42&#45;&gt;Node12 -->
<g id="edge87" class="edge"><title>Node42&#45;&gt;Node12</title>
<path fill="none" stroke="midnightblue" d="M791.054,-168.49C747.519,-158.341 681.146,-141.551 673.974,-132 668.636,-124.892 668.247,-118.798 673.974,-112 701.6,-79.2027 827.523,-70.309 893.839,-67.8973"/>
<polygon fill="midnightblue" stroke="midnightblue" points="894.068,-71.3918 903.947,-67.5632 893.836,-64.3956 894.068,-71.3918"/>
</g>
<!-- Node42&#45;&gt;Node25 -->
<g id="edge88" class="edge"><title>Node42&#45;&gt;Node25</title>
<path fill="none" stroke="midnightblue" d="M809.959,-168.444C790.386,-159.636 759.666,-145.812 737.245,-135.722"/>
<polygon fill="midnightblue" stroke="midnightblue" points="738.455,-132.428 727.899,-131.516 735.582,-138.812 738.455,-132.428"/>
</g>
<!-- Node43&#45;&gt;Node12 -->
<g id="edge92" class="edge"><title>Node43&#45;&gt;Node12</title>
<path fill="none" stroke="midnightblue" d="M1017.51,-280.414C997.886,-272.604 969.689,-259.884 947.974,-244 910.419,-216.53 914.66,-193.851 875.974,-168 838.777,-143.144 807.327,-168.859 781.974,-132 752.702,-89.4453 839.132,-74.6225 893.798,-69.555"/>
<polygon fill="midnightblue" stroke="midnightblue" points="894.265,-73.028 903.932,-68.692 893.671,-66.0532 894.265,-73.028"/>
</g>
<!-- Node43&#45;&gt;Node24 -->
<g id="edge95" class="edge"><title>Node43&#45;&gt;Node24</title>
<path fill="none" stroke="midnightblue" d="M1046.42,-280.083C1050.99,-272.613 1057.64,-261.724 1063.27,-252.52"/>
<polygon fill="midnightblue" stroke="midnightblue" points="1066.4,-254.109 1068.63,-243.751 1060.42,-250.459 1066.4,-254.109"/>
</g>
<!-- Node43&#45;&gt;Node35 -->
<g id="edge94" class="edge"><title>Node43&#45;&gt;Node35</title>
<path fill="none" stroke="midnightblue" d="M1072.76,-281.089C1150.43,-261.76 1349.98,-212.099 1438.98,-189.949"/>
<polygon fill="midnightblue" stroke="midnightblue" points="1439.91,-193.325 1448.76,-187.514 1438.22,-186.532 1439.91,-193.325"/>
</g>
<!-- Node43&#45;&gt;Node36 -->
<g id="edge93" class="edge"><title>Node43&#45;&gt;Node36</title>
<path fill="none" stroke="midnightblue" d="M1024.12,-280.396C1009.02,-272.223 986.726,-258.982 969.974,-244 937.689,-215.127 941.929,-196.105 908.974,-168 893.856,-155.108 874.505,-144.014 858.739,-136.067"/>
<polygon fill="midnightblue" stroke="midnightblue" points="859.978,-132.777 849.456,-131.538 856.909,-139.068 859.978,-132.777"/>
</g>
<!-- Node43&#45;&gt;Node44 -->
<g id="edge96" class="edge"><title>Node43&#45;&gt;Node44</title>
<path fill="none" stroke="midnightblue" d="M1072.74,-286.311C1096.26,-284.379 1129.1,-281.808 1157.97,-280 1507.97,-258.085 1932.56,-241.026 2054.65,-236.306"/>
<polygon fill="midnightblue" stroke="midnightblue" points="2055.01,-239.795 2064.86,-235.912 2054.74,-232.8 2055.01,-239.795"/>
</g>
<!-- Node45 -->
<g id="node45" class="node"><title>Node45</title>
<polygon fill="white" stroke="#bfbfbf" points="978.974,-224.5 978.974,-243.5 1018.97,-243.5 1018.97,-224.5 978.974,-224.5"/>
<text text-anchor="middle" x="998.974" y="-231.5" font-family="FreeSans" font-size="10.00">stack</text>
</g>
<!-- Node43&#45;&gt;Node45 -->
<g id="edge101" class="edge"><title>Node43&#45;&gt;Node45</title>
<path fill="none" stroke="midnightblue" d="M1034.04,-280.083C1028.04,-272.377 1019.22,-261.033 1011.93,-251.653"/>
<polygon fill="midnightblue" stroke="midnightblue" points="1014.68,-249.496 1005.78,-243.751 1009.16,-253.793 1014.68,-249.496"/>
</g>
<!-- Node44&#45;&gt;Node7 -->
<g id="edge97" class="edge"><title>Node44&#45;&gt;Node7</title>
<path fill="none" stroke="midnightblue" d="M2064.94,-232.277C1872.27,-226.484 579.753,-187.623 333.469,-180.218"/>
<polygon fill="midnightblue" stroke="midnightblue" points="333.287,-176.711 323.186,-179.908 333.077,-183.707 333.287,-176.711"/>
</g>
<!-- Node44&#45;&gt;Node12 -->
<g id="edge98" class="edge"><title>Node44&#45;&gt;Node12</title>
<path fill="none" stroke="midnightblue" d="M2064.75,-232.898C1946.35,-232.215 1427.87,-227.008 1271.97,-188 1251.53,-182.884 1248.93,-174.783 1228.97,-168 1159.55,-144.402 1137.16,-156.264 1067.97,-132 1057.17,-128.21 996.933,-98.1873 961.34,-80.2986"/>
<polygon fill="midnightblue" stroke="midnightblue" points="962.522,-76.9752 952.015,-75.6067 959.375,-83.2282 962.522,-76.9752"/>
</g>
<!-- Node44&#45;&gt;Node28 -->
<g id="edge100" class="edge"><title>Node44&#45;&gt;Node28</title>
<path fill="none" stroke="midnightblue" d="M2113.27,-228.336C2155.58,-218.758 2241.73,-192.469 2277.97,-132 2282.54,-124.376 2283.11,-119.253 2277.97,-112 2276.45,-109.848 2214.37,-88.6687 2177.24,-76.1479"/>
<polygon fill="midnightblue" stroke="midnightblue" points="2178.09,-72.7424 2167.5,-72.869 2175.86,-79.3766 2178.09,-72.7424"/>
</g>
<!-- Node44&#45;&gt;Node38 -->
<g id="edge99" class="edge"><title>Node44&#45;&gt;Node38</title>
<path fill="none" stroke="midnightblue" d="M2094.36,-224.443C2099.53,-215.678 2106.99,-201.467 2109.97,-188 2111.9,-179.322 2111.83,-176.694 2109.97,-168 2103.27,-136.529 2084.83,-103.641 2072.58,-84.2538"/>
<polygon fill="midnightblue" stroke="midnightblue" points="2075.38,-82.1311 2066.99,-75.6557 2069.51,-85.9472 2075.38,-82.1311"/>
</g>
<!-- Node46&#45;&gt;Node2 -->
<g id="edge105" class="edge"><title>Node46&#45;&gt;Node2</title>
<path fill="none" stroke="midnightblue" d="M1904.44,-288.744C1714.93,-287.135 757.371,-277.395 630.974,-244 559.012,-224.987 489.202,-166.968 458.406,-138.747"/>
<polygon fill="midnightblue" stroke="midnightblue" points="460.484,-135.899 450.785,-131.635 455.708,-141.016 460.484,-135.899"/>
</g>
<!-- Node46&#45;&gt;Node12 -->
<g id="edge104" class="edge"><title>Node46&#45;&gt;Node12</title>
<path fill="none" stroke="midnightblue" d="M1904.34,-288.281C1802.11,-285.209 1479.99,-269.263 1228.97,-188 1210.82,-182.122 1208.91,-174.527 1190.97,-168 1120.03,-142.183 1093.92,-162.75 1024.97,-132 996.837,-119.451 968.749,-97.2319 951.619,-82.3109"/>
<polygon fill="midnightblue" stroke="midnightblue" points="953.932,-79.6846 944.137,-75.6466 949.276,-84.9116 953.932,-79.6846"/>
</g>
<!-- Node46&#45;&gt;Node15 -->
<g id="edge106" class="edge"><title>Node46&#45;&gt;Node15</title>
<path fill="none" stroke="midnightblue" d="M1939.37,-280.362C1946.28,-253.752 1964.06,-171.25 1936.97,-112 1931.2,-99.3602 1919.92,-88.911 1909.34,-81.2737"/>
<polygon fill="midnightblue" stroke="midnightblue" points="1911.02,-78.1817 1900.76,-75.5333 1907.12,-84.0009 1911.02,-78.1817"/>
</g>
<!-- Node46&#45;&gt;Node29 -->
<g id="edge107" class="edge"><title>Node46&#45;&gt;Node29</title>
<path fill="none" stroke="midnightblue" d="M1936.26,-280.394C1933.38,-251.664 1920.07,-158.266 1865.97,-112 1841.5,-91.0713 1750.53,-76.9389 1701.6,-70.675"/>
<polygon fill="midnightblue" stroke="midnightblue" points="1701.91,-67.1863 1691.55,-69.4236 1701.04,-74.1326 1701.91,-67.1863"/>
</g>
<!-- Node46&#45;&gt;Node44 -->
<g id="edge108" class="edge"><title>Node46&#45;&gt;Node44</title>
<path fill="none" stroke="midnightblue" d="M1961.06,-280.444C1986.52,-271.399 2026.87,-257.064 2055.43,-246.916"/>
<polygon fill="midnightblue" stroke="midnightblue" points="2056.75,-250.162 2065,-243.516 2054.41,-243.566 2056.75,-250.162"/>
</g>
<!-- Node47 -->
<g id="node47" class="node"><title>Node47</title>
<g id="a_node47"><a xlink:href="searchtree_8h" target="_top" xlink:title="searchtree.h">
<polygon fill="white" stroke="black" points="1989.47,-112.5 1989.47,-131.5 2058.47,-131.5 2058.47,-112.5 1989.47,-112.5"/>
<text text-anchor="middle" x="2023.97" y="-119.5" font-family="FreeSans" font-size="10.00">searchtree.h</text>
</a>
</g>
</g>
<!-- Node46&#45;&gt;Node47 -->
<g id="edge109" class="edge"><title>Node46&#45;&gt;Node47</title>
<path fill="none" stroke="midnightblue" d="M1945.75,-280.346C1954.11,-271.732 1966.63,-257.832 1974.97,-244 1995.49,-210.01 2010.87,-165.882 2018.54,-141.405"/>
<polygon fill="midnightblue" stroke="midnightblue" points="2021.95,-142.234 2021.51,-131.648 2015.25,-140.195 2021.95,-142.234"/>
</g>
<!-- Node47&#45;&gt;Node12 -->
<g id="edge111" class="edge"><title>Node47&#45;&gt;Node12</title>
<path fill="none" stroke="midnightblue" d="M1989.46,-118.948C1957.45,-117.066 1908.5,-114.239 1865.97,-112 1522.54,-93.919 1107.69,-74.8451 976.69,-68.8882"/>
<polygon fill="midnightblue" stroke="midnightblue" points="976.471,-65.3748 966.323,-68.4172 976.154,-72.3676 976.471,-65.3748"/>
</g>
<!-- Node47&#45;&gt;Node15 -->
<g id="edge112" class="edge"><title>Node47&#45;&gt;Node15</title>
<path fill="none" stroke="midnightblue" d="M2001.95,-112.444C1978.87,-103.478 1942.41,-89.314 1916.33,-79.1827"/>
<polygon fill="midnightblue" stroke="midnightblue" points="1917.48,-75.8753 1906.9,-75.5164 1914.95,-82.4002 1917.48,-75.8753"/>
</g>
<!-- Node47&#45;&gt;Node19 -->
<g id="edge110" class="edge"><title>Node47&#45;&gt;Node19</title>
<path fill="none" stroke="midnightblue" d="M2013.36,-112.285C1994.77,-97.5979 1954.52,-68.3161 1914.97,-56 1883.69,-46.2589 1397.38,-19.681 1266.95,-12.6987"/>
<polygon fill="midnightblue" stroke="midnightblue" points="1266.99,-9.19569 1256.81,-12.1571 1266.61,-16.1857 1266.99,-9.19569"/>
</g>
<!-- Node47&#45;&gt;Node28 -->
<g id="edge113" class="edge"><title>Node47&#45;&gt;Node28</title>
<path fill="none" stroke="midnightblue" d="M2043.94,-112.444C2065.19,-103.336 2098.96,-88.865 2122.66,-78.7053"/>
<polygon fill="midnightblue" stroke="midnightblue" points="2124.33,-81.7996 2132.14,-74.6433 2121.57,-75.3656 2124.33,-81.7996"/>
</g>
<!-- Node47&#45;&gt;Node38 -->
<g id="edge114" class="edge"><title>Node47&#45;&gt;Node38</title>
<path fill="none" stroke="midnightblue" d="M2030.08,-112.083C2035.26,-104.534 2042.82,-93.4948 2049.17,-84.2298"/>
<polygon fill="midnightblue" stroke="midnightblue" points="2052.21,-85.9787 2054.98,-75.7511 2046.44,-82.0221 2052.21,-85.9787"/>
</g>
<!-- Node48&#45;&gt;Node2 -->
<g id="edge122" class="edge"><title>Node48&#45;&gt;Node2</title>
<path fill="none" stroke="midnightblue" d="M421.69,-392.231C411.249,-374.043 388.974,-330.601 388.974,-291 388.974,-291 388.974,-291 388.974,-233 388.974,-196.992 412.308,-160.339 428.011,-139.75"/>
<polygon fill="midnightblue" stroke="midnightblue" points="430.908,-141.729 434.38,-131.719 425.424,-137.379 430.908,-141.729"/>
</g>
<!-- Node48&#45;&gt;Node3 -->
<g id="edge124" class="edge"><title>Node48&#45;&gt;Node3</title>
<path fill="none" stroke="midnightblue" d="M388.75,-395.525C318.398,-385.448 168.794,-364.019 94.1907,-353.333"/>
<polygon fill="midnightblue" stroke="midnightblue" points="94.5729,-349.853 84.1776,-351.899 93.5803,-356.782 94.5729,-349.853"/>
</g>
<!-- Node48&#45;&gt;Node7 -->
<g id="edge116" class="edge"><title>Node48&#45;&gt;Node7</title>
<path fill="none" stroke="midnightblue" d="M414.055,-392.255C402.607,-383.987 386.037,-370.685 374.974,-356 336.16,-304.479 309.71,-231.642 298.712,-197.729"/>
<polygon fill="midnightblue" stroke="midnightblue" points="301.928,-196.289 295.579,-187.807 295.253,-198.397 301.928,-196.289"/>
</g>
<!-- Node48&#45;&gt;Node8 -->
<g id="edge117" class="edge"><title>Node48&#45;&gt;Node8</title>
<path fill="none" stroke="midnightblue" d="M465.143,-401.201C732.919,-402.481 2321.56,-407.865 2407.97,-356 2522.84,-287.056 2516.09,-91.1521 2510.91,-29.6865"/>
<polygon fill="midnightblue" stroke="midnightblue" points="2514.38,-29.1781 2509.96,-19.5475 2507.41,-29.83 2514.38,-29.1781"/>
</g>
<!-- Node48&#45;&gt;Node9 -->
<g id="edge118" class="edge"><title>Node48&#45;&gt;Node9</title>
<path fill="none" stroke="midnightblue" d="M403.759,-392.433C315.626,-358.732 12.0652,-231.29 119.974,-112 147.517,-81.5519 431.588,-70.7718 532.581,-67.8848"/>
<polygon fill="midnightblue" stroke="midnightblue" points="532.971,-71.3754 542.87,-67.6001 532.777,-64.3781 532.971,-71.3754"/>
</g>
<!-- Node48&#45;&gt;Node10 -->
<g id="edge119" class="edge"><title>Node48&#45;&gt;Node10</title>
<path fill="none" stroke="midnightblue" d="M436.292,-392.324C444.866,-384.341 457.786,-372.313 468.161,-362.653"/>
<polygon fill="midnightblue" stroke="midnightblue" points="470.551,-365.21 475.485,-355.834 465.781,-360.086 470.551,-365.21"/>
</g>
<!-- Node48&#45;&gt;Node11 -->
<g id="edge120" class="edge"><title>Node48&#45;&gt;Node11</title>
<path fill="none" stroke="midnightblue" d="M465.055,-400.599C575.126,-399.046 903.236,-391.646 1185.18,-355.905"/>
<polygon fill="midnightblue" stroke="midnightblue" points="1185.71,-359.365 1195.19,-354.621 1184.82,-352.421 1185.71,-359.365"/>
</g>
<!-- Node48&#45;&gt;Node12 -->
<g id="edge121" class="edge"><title>Node48&#45;&gt;Node12</title>
<path fill="none" stroke="midnightblue" d="M428.319,-392.125C430.552,-379.16 435.821,-354.568 445.974,-336 509.294,-220.186 525.341,-175.651 640.974,-112 683.678,-88.4933 823.312,-75.1826 893.67,-69.8147"/>
<polygon fill="midnightblue" stroke="midnightblue" points="894.223,-73.2833 903.935,-69.0505 893.703,-66.3027 894.223,-73.2833"/>
</g>
<!-- Node48&#45;&gt;Node13 -->
<g id="edge123" class="edge"><title>Node48&#45;&gt;Node13</title>
<path fill="none" stroke="midnightblue" d="M411.004,-392.346C396.408,-384.042 374.626,-370.632 357.974,-356 277.153,-284.983 199.829,-180.752 170.921,-140.111"/>
<polygon fill="midnightblue" stroke="midnightblue" points="173.693,-137.97 165.068,-131.817 167.974,-142.006 173.693,-137.97"/>
</g>
<!-- Node48&#45;&gt;Node22 -->
<g id="edge125" class="edge"><title>Node48&#45;&gt;Node22</title>
<path fill="none" stroke="midnightblue" d="M465.254,-398.097C585.601,-388.969 956.222,-360.86 1090.1,-350.707"/>
<polygon fill="midnightblue" stroke="midnightblue" points="1090.36,-354.197 1100.07,-349.951 1089.83,-347.217 1090.36,-354.197"/>
</g>
<!-- Node49&#45;&gt;Node5 -->
<g id="edge135" class="edge"><title>Node49&#45;&gt;Node5</title>
<path fill="none" stroke="midnightblue" d="M2531.99,-504.34C2540.05,-495.932 2551.27,-482.363 2555.97,-468 2574.23,-412.245 2572.09,-392.409 2555.97,-336 2553.07,-325.844 2547.14,-315.747 2541.48,-307.699"/>
<polygon fill="midnightblue" stroke="midnightblue" points="2544.19,-305.479 2535.39,-299.589 2538.6,-309.685 2544.19,-305.479"/>
</g>
<!-- Node49&#45;&gt;Node6 -->
<g id="edge134" class="edge"><title>Node49&#45;&gt;Node6</title>
<path fill="none" stroke="midnightblue" d="M2484.75,-511.958C2238.23,-505.234 874.015,-468.028 593.435,-460.376"/>
<polygon fill="midnightblue" stroke="midnightblue" points="593.245,-456.87 583.154,-460.096 593.054,-463.867 593.245,-456.87"/>
</g>
<!-- Node49&#45;&gt;Node8 -->
<g id="edge137" class="edge"><title>Node49&#45;&gt;Node8</title>
<path fill="none" stroke="midnightblue" d="M2549.89,-504.41C2588.75,-490.126 2655.97,-457.535 2655.97,-403 2655.97,-403 2655.97,-403 2655.97,-121 2655.97,-67.7712 2593.42,-37.1797 2549.93,-22.3418"/>
<polygon fill="midnightblue" stroke="midnightblue" points="2550.74,-18.9259 2540.15,-19.158 2548.57,-25.582 2550.74,-18.9259"/>
</g>
<!-- Node49&#45;&gt;Node28 -->
<g id="edge136" class="edge"><title>Node49&#45;&gt;Node28</title>
<path fill="none" stroke="midnightblue" d="M2536.75,-504.436C2548.34,-496.47 2564.35,-483.515 2572.97,-468 2613.7,-394.737 2599.99,-352.531 2557.97,-280 2504.89,-188.356 2483.14,-160.466 2388.97,-112 2306.82,-69.7167 2272.03,-97.2087 2177.53,-75.6943"/>
<polygon fill="midnightblue" stroke="midnightblue" points="2178.12,-72.2364 2167.58,-73.2995 2176.48,-79.0421 2178.12,-72.2364"/>
</g>
<!-- Node50 -->
<g id="node50" class="node"><title>Node50</title>
<g id="a_node50"><a xlink:href="nativeparser__base_8h" target="_top" xlink:title="nativeparser_base.h">
<polygon fill="white" stroke="black" points="2298.47,-336.5 2298.47,-355.5 2399.47,-355.5 2399.47,-336.5 2298.47,-336.5"/>
<text text-anchor="middle" x="2348.97" y="-343.5" font-family="FreeSans" font-size="10.00">nativeparser_base.h</text>
</a>
</g>
</g>
<!-- Node49&#45;&gt;Node50 -->
<g id="edge128" class="edge"><title>Node49&#45;&gt;Node50</title>
<path fill="none" stroke="midnightblue" d="M2513.62,-504.075C2485.52,-477.267 2401.58,-397.19 2365.62,-362.885"/>
<polygon fill="midnightblue" stroke="midnightblue" points="2367.61,-359.939 2357.95,-355.568 2362.77,-365.003 2367.61,-359.939"/>
</g>
<!-- Node50&#45;&gt;Node5 -->
<g id="edge131" class="edge"><title>Node50&#45;&gt;Node5</title>
<path fill="none" stroke="midnightblue" d="M2377.34,-336.444C2409.77,-326.66 2462.71,-310.688 2496.42,-300.519"/>
<polygon fill="midnightblue" stroke="midnightblue" points="2497.66,-303.802 2506.22,-297.563 2495.63,-297.1 2497.66,-303.802"/>
</g>
<!-- Node50&#45;&gt;Node12 -->
<g id="edge129" class="edge"><title>Node50&#45;&gt;Node12</title>
<path fill="none" stroke="midnightblue" d="M2298.24,-340.066C2214.32,-331.884 2041.34,-314.928 1894.97,-300 1657.57,-275.787 1594.3,-294.061 1360.97,-244 1283.19,-227.312 1265.72,-215.23 1190.97,-188 1168.49,-179.807 1163.8,-175.205 1140.97,-168 1074.36,-146.969 1047.2,-169.043 987.974,-132 969.138,-120.219 953.928,-99.3918 944.712,-84.4861"/>
<polygon fill="midnightblue" stroke="midnightblue" points="947.631,-82.5454 939.544,-75.7007 941.598,-86.0947 947.631,-82.5454"/>
</g>
<!-- Node50&#45;&gt;Node28 -->
<g id="edge130" class="edge"><title>Node50&#45;&gt;Node28</title>
<path fill="none" stroke="midnightblue" d="M2355.37,-336.391C2368.01,-318.498 2394.97,-275.572 2394.97,-235 2394.97,-235 2394.97,-235 2394.97,-177 2394.97,-73.346 2285.38,-106.464 2177.44,-75.9111"/>
<polygon fill="midnightblue" stroke="midnightblue" points="2178.26,-72.5025 2167.67,-72.9652 2176.24,-79.2042 2178.26,-72.5025"/>
</g>
<!-- Node50&#45;&gt;Node44 -->
<g id="edge132" class="edge"><title>Node50&#45;&gt;Node44</title>
<path fill="none" stroke="midnightblue" d="M2328.57,-336.368C2282.82,-317.01 2171.85,-270.065 2118.54,-247.507"/>
<polygon fill="midnightblue" stroke="midnightblue" points="2119.85,-244.264 2109.28,-243.591 2117.13,-250.711 2119.85,-244.264"/>
</g>
<!-- Node50&#45;&gt;Node46 -->
<g id="edge133" class="edge"><title>Node50&#45;&gt;Node46</title>
<path fill="none" stroke="midnightblue" d="M2298.45,-338.379C2216.57,-327.646 2056.33,-306.644 1979.73,-296.604"/>
<polygon fill="midnightblue" stroke="midnightblue" points="1979.87,-293.092 1969.5,-295.263 1978.96,-300.033 1979.87,-293.092"/>
</g>
</g>
</svg>
