<?xml version="1.0" encoding="UTF-8" standalone="no"?>
<!DOCTYPE svg PUBLIC "-//W3C//DTD SVG 1.1//EN"
 "http://www.w3.org/Graphics/SVG/1.1/DTD/svg11.dtd">
<!-- Generated by graphviz version 2.38.0 (20140413.2041)
 -->
<!-- Title: wxSwitcherDialog Pages: 1 -->
<svg width="594pt" height="1037pt"
 viewBox="0.00 0.00 593.50 1037.00" xmlns="http://www.w3.org/2000/svg" xmlns:xlink="http://www.w3.org/1999/xlink">
<g id="graph0" class="graph" transform="scale(1 1) rotate(0) translate(4 1033)">
<title>wxSwitcherDialog</title>
<!-- Node9 -->
<g id="node1" class="node"><title>Node9</title>
<polygon fill="#bfbfbf" stroke="black" points="172,-0.5 172,-178.5 293,-178.5 293,-0.5 172,-0.5"/>
<text text-anchor="middle" x="232.5" y="-166.5" font-family="FreeSans" font-size="10.00">wxSwitcherDialog</text>
<polyline fill="none" stroke="black" points="172,-159.5 293,-159.5 "/>
<text text-anchor="start" x="180" y="-147.5" font-family="FreeSans" font-size="10.00">&#45; m_closing</text>
<text text-anchor="start" x="180" y="-136.5" font-family="FreeSans" font-size="10.00">&#45; m_switcherBorderStyle</text>
<text text-anchor="start" x="180" y="-125.5" font-family="FreeSans" font-size="10.00">&#45; m_extraNavigationKey</text>
<text text-anchor="start" x="180" y="-114.5" font-family="FreeSans" font-size="10.00">&#45; m_modifierKey</text>
<polyline fill="none" stroke="black" points="172,-107.5 293,-107.5 "/>
<text text-anchor="start" x="180" y="-95.5" font-family="FreeSans" font-size="10.00">+ wxSwitcherDialog()</text>
<text text-anchor="start" x="180" y="-84.5" font-family="FreeSans" font-size="10.00">+ wxSwitcherDialog()</text>
<text text-anchor="start" x="180" y="-73.5" font-family="FreeSans" font-size="10.00">+ Create()</text>
<text text-anchor="start" x="180" y="-62.5" font-family="FreeSans" font-size="10.00">+ Init()</text>
<text text-anchor="start" x="180" y="-51.5" font-family="FreeSans" font-size="10.00">+ OnCloseWindow()</text>
<text text-anchor="start" x="180" y="-40.5" font-family="FreeSans" font-size="10.00">+ OnActivate()</text>
<text text-anchor="start" x="180" y="-29.5" font-family="FreeSans" font-size="10.00">+ OnSelectItem()</text>
<text text-anchor="start" x="180" y="-18.5" font-family="FreeSans" font-size="10.00">+ OnPaint()</text>
<text text-anchor="start" x="180" y="-7.5" font-family="FreeSans" font-size="10.00">and 7 more...</text>
</g>
<!-- Node10 -->
<g id="node2" class="node"><title>Node10</title>
<g id="a_node2"><a xlink:href="classwxScrollingDialog" target="_top" xlink:title="{wxScrollingDialog\n||+ wxScrollingDialog()\l+ wxScrollingDialog()\l}">
<polygon fill="none" stroke="black" points="3,-270.5 3,-338.5 110,-338.5 110,-270.5 3,-270.5"/>
<text text-anchor="middle" x="56.5" y="-326.5" font-family="FreeSans" font-size="10.00">wxScrollingDialog</text>
<polyline fill="none" stroke="black" points="3,-319.5 110,-319.5 "/>
<text text-anchor="middle" x="56.5" y="-307.5" font-family="FreeSans" font-size="10.00"> </text>
<polyline fill="none" stroke="black" points="3,-300.5 110,-300.5 "/>
<text text-anchor="start" x="11" y="-288.5" font-family="FreeSans" font-size="10.00">+ wxScrollingDialog()</text>
<text text-anchor="start" x="11" y="-277.5" font-family="FreeSans" font-size="10.00">+ wxScrollingDialog()</text>
</a>
</g>
</g>
<!-- Node10&#45;&gt;Node9 -->
<g id="edge1" class="edge"><title>Node10&#45;&gt;Node9</title>
<path fill="none" stroke="midnightblue" d="M90.5625,-262.277C113.55,-234.456 144.532,-196.962 171.684,-164.101"/>
<polygon fill="none" stroke="midnightblue" points="87.6717,-260.28 84,-270.219 93.0679,-264.739 87.6717,-260.28"/>
</g>
<!-- Node11 -->
<g id="node3" class="node"><title>Node11</title>
<g id="a_node3"><a doxygen="/media/alpha/Barracuda/cb_docs/src/wxTagFile.xml:http://docs.wxwidgets.org/3.0/" xlink:href="http://docs.wxwidgets.org/3.0/classwx_dialog.html" target="_top" xlink:title="{wxDialog\n||+ ShowModal()\l}">
<polygon fill="none" stroke="black" points="10,-491 10,-548 91,-548 91,-491 10,-491"/>
<text text-anchor="middle" x="50.5" y="-536" font-family="FreeSans" font-size="10.00">wxDialog</text>
<polyline fill="none" stroke="black" points="10,-529 91,-529 "/>
<text text-anchor="middle" x="50.5" y="-517" font-family="FreeSans" font-size="10.00"> </text>
<polyline fill="none" stroke="black" points="10,-510 91,-510 "/>
<text text-anchor="start" x="18" y="-498" font-family="FreeSans" font-size="10.00">+ ShowModal()</text>
</a>
</g>
</g>
<!-- Node11&#45;&gt;Node10 -->
<g id="edge2" class="edge"><title>Node11&#45;&gt;Node10</title>
<path fill="none" stroke="midnightblue" d="M51.5729,-480.412C52.7098,-440.051 54.487,-376.96 55.5675,-338.602"/>
<polygon fill="none" stroke="midnightblue" points="48.0675,-480.559 51.2844,-490.654 55.0647,-480.757 48.0675,-480.559"/>
</g>
<!-- Node12 -->
<g id="node4" class="node"><title>Node12</title>
<g id="a_node4"><a doxygen="/media/alpha/Barracuda/cb_docs/src/wxTagFile.xml:http://docs.wxwidgets.org/3.0/" xlink:href="http://docs.wxwidgets.org/3.0/classwx_top_level_window.html" target="_top" xlink:title="{wxTopLevelWindow\n||}">
<polygon fill="none" stroke="red" points="0,-788.5 0,-845.5 101,-845.5 101,-788.5 0,-788.5"/>
<text text-anchor="middle" x="50.5" y="-833.5" font-family="FreeSans" font-size="10.00">wxTopLevelWindow</text>
<polyline fill="none" stroke="red" points="0,-826.5 101,-826.5 "/>
<text text-anchor="middle" x="50.5" y="-814.5" font-family="FreeSans" font-size="10.00"> </text>
<polyline fill="none" stroke="red" points="0,-807.5 101,-807.5 "/>
<text text-anchor="middle" x="50.5" y="-795.5" font-family="FreeSans" font-size="10.00"> </text>
</a>
</g>
</g>
<!-- Node12&#45;&gt;Node11 -->
<g id="edge3" class="edge"><title>Node12&#45;&gt;Node11</title>
<path fill="none" stroke="midnightblue" d="M50.5,-778.236C50.5,-717.915 50.5,-601.221 50.5,-548.072"/>
<polygon fill="none" stroke="midnightblue" points="47.0001,-778.465 50.5,-788.465 54.0001,-778.465 47.0001,-778.465"/>
</g>
<!-- Node18 -->
<g id="node5" class="node"><title>Node18</title>
<g id="a_node5"><a doxygen="/media/alpha/Barracuda/cb_docs/src/wxTagFile.xml:http://docs.wxwidgets.org/3.0/" xlink:href="http://docs.wxwidgets.org/3.0/classwx_html_window.html" target="_top" xlink:title="{wxHtmlWindow\n||}">
<polygon fill="none" stroke="black" points="134.5,-276 134.5,-333 216.5,-333 216.5,-276 134.5,-276"/>
<text text-anchor="middle" x="175.5" y="-321" font-family="FreeSans" font-size="10.00">wxHtmlWindow</text>
<polyline fill="none" stroke="black" points="134.5,-314 216.5,-314 "/>
<text text-anchor="middle" x="175.5" y="-302" font-family="FreeSans" font-size="10.00"> </text>
<polyline fill="none" stroke="black" points="134.5,-295 216.5,-295 "/>
<text text-anchor="middle" x="175.5" y="-283" font-family="FreeSans" font-size="10.00"> </text>
</a>
</g>
</g>
<!-- Node18&#45;&gt;Node9 -->
<g id="edge4" class="edge"><title>Node18&#45;&gt;Node9</title>
<path fill="none" stroke="#404040" d="M176.051,-275.953C177.032,-254.206 179.646,-223.259 186.5,-197 187.091,-194.735 187.724,-192.455 188.392,-190.168"/>
<polygon fill="none" stroke="#404040" points="188.402,-190.137 186.394,-183.211 192.014,-178.693 194.023,-185.619 188.402,-190.137"/>
<text text-anchor="middle" x="227" y="-200" font-family="FreeSans" font-size="10.00"> &#45;m_descriptionCtrl</text>
</g>
<!-- Node19 -->
<g id="node6" class="node"><title>Node19</title>
<g id="a_node6"><a doxygen="/media/alpha/Barracuda/cb_docs/src/wxTagFile.xml:http://docs.wxwidgets.org/3.0/" xlink:href="http://docs.wxwidgets.org/3.0/classwx_colour.html" target="_top" xlink:title="{wxColour\n||+ wxColour()\l+ wxColour()\l+ wxColour()\l+ wxColour()\l+ wxColour()\l+ Alpha()\l+ Blue()\l+ GetAsString()\land 16 more...\l+ MakeMono()\l+ MakeDisabled()\l+ MakeGrey()\l+ MakeGrey()\l+ AlphaBlend()\l+ ChangeLightness()\l}">
<polygon fill="none" stroke="black" points="406.5,-711.5 406.5,-922.5 510.5,-922.5 510.5,-711.5 406.5,-711.5"/>
<text text-anchor="middle" x="458.5" y="-910.5" font-family="FreeSans" font-size="10.00">wxColour</text>
<polyline fill="none" stroke="black" points="406.5,-903.5 510.5,-903.5 "/>
<text text-anchor="middle" x="458.5" y="-891.5" font-family="FreeSans" font-size="10.00"> </text>
<polyline fill="none" stroke="black" points="406.5,-884.5 510.5,-884.5 "/>
<text text-anchor="start" x="414.5" y="-872.5" font-family="FreeSans" font-size="10.00">+ wxColour()</text>
<text text-anchor="start" x="414.5" y="-861.5" font-family="FreeSans" font-size="10.00">+ wxColour()</text>
<text text-anchor="start" x="414.5" y="-850.5" font-family="FreeSans" font-size="10.00">+ wxColour()</text>
<text text-anchor="start" x="414.5" y="-839.5" font-family="FreeSans" font-size="10.00">+ wxColour()</text>
<text text-anchor="start" x="414.5" y="-828.5" font-family="FreeSans" font-size="10.00">+ wxColour()</text>
<text text-anchor="start" x="414.5" y="-817.5" font-family="FreeSans" font-size="10.00">+ Alpha()</text>
<text text-anchor="start" x="414.5" y="-806.5" font-family="FreeSans" font-size="10.00">+ Blue()</text>
<text text-anchor="start" x="414.5" y="-795.5" font-family="FreeSans" font-size="10.00">+ GetAsString()</text>
<text text-anchor="start" x="414.5" y="-784.5" font-family="FreeSans" font-size="10.00">and 16 more...</text>
<text text-anchor="start" x="414.5" y="-773.5" font-family="FreeSans" font-size="10.00">+ MakeMono()</text>
<text text-anchor="start" x="414.5" y="-762.5" font-family="FreeSans" font-size="10.00">+ MakeDisabled()</text>
<text text-anchor="start" x="414.5" y="-751.5" font-family="FreeSans" font-size="10.00">+ MakeGrey()</text>
<text text-anchor="start" x="414.5" y="-740.5" font-family="FreeSans" font-size="10.00">+ MakeGrey()</text>
<text text-anchor="start" x="414.5" y="-729.5" font-family="FreeSans" font-size="10.00">+ AlphaBlend()</text>
<text text-anchor="start" x="414.5" y="-718.5" font-family="FreeSans" font-size="10.00">+ ChangeLightness()</text>
</a>
</g>
</g>
<!-- Node19&#45;&gt;Node9 -->
<g id="edge5" class="edge"><title>Node19&#45;&gt;Node9</title>
<path fill="none" stroke="#404040" d="M510.509,-734.244C518.773,-717.552 526.053,-699.672 530.5,-682 544.249,-627.362 552.795,-524.581 519.5,-430 477.805,-311.557 373.188,-206.539 302.468,-145.721"/>
<polygon fill="none" stroke="#404040" points="302.296,-145.574 295.134,-144.733 293.156,-137.799 300.318,-138.64 302.296,-145.574"/>
<text text-anchor="middle" x="548.5" y="-404" font-family="FreeSans" font-size="10.00"> &#45;m_borderColour</text>
</g>
<!-- Node24 -->
<g id="node13" class="node"><title>Node24</title>
<g id="a_node13"><a xlink:href="classwxSwitcherItems" target="_top" xlink:title="{wxSwitcherItems\n|# m_items\l# m_selection\l# m_rowCount\l# m_columnCount\l|+ wxSwitcherItems()\l+ wxSwitcherItems()\l+ operator==()\l+ operator=()\l+ Init()\l+ Copy()\l+ AddItem()\l+ AddItem()\land 31 more...\l}">
<polygon fill="none" stroke="black" points="283.5,-430.5 283.5,-608.5 387.5,-608.5 387.5,-430.5 283.5,-430.5"/>
<text text-anchor="middle" x="335.5" y="-596.5" font-family="FreeSans" font-size="10.00">wxSwitcherItems</text>
<polyline fill="none" stroke="black" points="283.5,-589.5 387.5,-589.5 "/>
<text text-anchor="start" x="291.5" y="-577.5" font-family="FreeSans" font-size="10.00"># m_items</text>
<text text-anchor="start" x="291.5" y="-566.5" font-family="FreeSans" font-size="10.00"># m_selection</text>
<text text-anchor="start" x="291.5" y="-555.5" font-family="FreeSans" font-size="10.00"># m_rowCount</text>
<text text-anchor="start" x="291.5" y="-544.5" font-family="FreeSans" font-size="10.00"># m_columnCount</text>
<polyline fill="none" stroke="black" points="283.5,-537.5 387.5,-537.5 "/>
<text text-anchor="start" x="291.5" y="-525.5" font-family="FreeSans" font-size="10.00">+ wxSwitcherItems()</text>
<text text-anchor="start" x="291.5" y="-514.5" font-family="FreeSans" font-size="10.00">+ wxSwitcherItems()</text>
<text text-anchor="start" x="291.5" y="-503.5" font-family="FreeSans" font-size="10.00">+ operator==()</text>
<text text-anchor="start" x="291.5" y="-492.5" font-family="FreeSans" font-size="10.00">+ operator=()</text>
<text text-anchor="start" x="291.5" y="-481.5" font-family="FreeSans" font-size="10.00">+ Init()</text>
<text text-anchor="start" x="291.5" y="-470.5" font-family="FreeSans" font-size="10.00">+ Copy()</text>
<text text-anchor="start" x="291.5" y="-459.5" font-family="FreeSans" font-size="10.00">+ AddItem()</text>
<text text-anchor="start" x="291.5" y="-448.5" font-family="FreeSans" font-size="10.00">+ AddItem()</text>
<text text-anchor="start" x="291.5" y="-437.5" font-family="FreeSans" font-size="10.00">and 31 more...</text>
</a>
</g>
</g>
<!-- Node19&#45;&gt;Node24 -->
<g id="edge14" class="edge"><title>Node19&#45;&gt;Node24</title>
<path fill="none" stroke="#404040" d="M422.738,-711.141C412.633,-683.515 401.187,-653.914 389.5,-627 388.484,-624.66 387.441,-622.299 386.376,-619.925"/>
<polygon fill="none" stroke="#404040" points="386.249,-619.648 380.112,-615.861 381.248,-608.74 387.384,-612.527 386.249,-619.648"/>
<text text-anchor="middle" x="469.5" y="-674" font-family="FreeSans" font-size="10.00"> #m_selectionOutlineColour</text>
<text text-anchor="middle" x="469.5" y="-663" font-family="FreeSans" font-size="10.00">#m_selectionColour</text>
<text text-anchor="middle" x="469.5" y="-652" font-family="FreeSans" font-size="10.00">#m_backgroundColour</text>
<text text-anchor="middle" x="469.5" y="-641" font-family="FreeSans" font-size="10.00">#m_textColour</text>
<text text-anchor="middle" x="469.5" y="-630" font-family="FreeSans" font-size="10.00">#m_selectionTextColour</text>
</g>
<!-- Node16 -->
<g id="node7" class="node"><title>Node16</title>
<g id="a_node7"><a doxygen="/media/alpha/Barracuda/cb_docs/src/wxTagFile.xml:http://docs.wxwidgets.org/3.0/" xlink:href="http://docs.wxwidgets.org/3.0/classwx_object.html" target="_top" xlink:title="{wxObject\n||}">
<polygon fill="none" stroke="black" points="376.5,-971.5 376.5,-1028.5 432.5,-1028.5 432.5,-971.5 376.5,-971.5"/>
<text text-anchor="middle" x="404.5" y="-1016.5" font-family="FreeSans" font-size="10.00">wxObject</text>
<polyline fill="none" stroke="black" points="376.5,-1009.5 432.5,-1009.5 "/>
<text text-anchor="middle" x="404.5" y="-997.5" font-family="FreeSans" font-size="10.00"> </text>
<polyline fill="none" stroke="black" points="376.5,-990.5 432.5,-990.5 "/>
<text text-anchor="middle" x="404.5" y="-978.5" font-family="FreeSans" font-size="10.00"> </text>
</a>
</g>
</g>
<!-- Node16&#45;&gt;Node19 -->
<g id="edge6" class="edge"><title>Node16&#45;&gt;Node19</title>
<path fill="none" stroke="midnightblue" d="M415.711,-961.422C419.169,-949.831 423.16,-936.453 427.286,-922.625"/>
<polygon fill="none" stroke="midnightblue" points="412.324,-960.532 412.819,-971.115 419.032,-962.533 412.324,-960.532"/>
</g>
<!-- Node16&#45;&gt;Node24 -->
<g id="edge13" class="edge"><title>Node16&#45;&gt;Node24</title>
<path fill="none" stroke="midnightblue" d="M400.44,-961.31C399.476,-952.358 398.451,-942.841 397.5,-934 382.82,-797.557 389.941,-761.852 364.5,-627 363.363,-620.974 362.057,-614.791 360.643,-608.583"/>
<polygon fill="none" stroke="midnightblue" points="396.985,-961.917 401.536,-971.484 403.945,-961.167 396.985,-961.917"/>
</g>
<!-- Node20 -->
<g id="node8" class="node"><title>Node20</title>
<g id="a_node8"><a xlink:href="classwxMultiColumnListCtrl" target="_top" xlink:title="{wxMultiColumnListCtrl\n|# m_extraNavigationKey\l# m_modifierKey\l|+ wxMultiColumnListCtrl()\l+ wxMultiColumnListCtrl()\l+ Create()\l+ SetItems()\l+ GetItems()\l+ GetItems()\l+ SetExtraNavigationKey()\l+ GetExtraNavigationKey()\land 15 more...\l}">
<polygon fill="none" stroke="black" points="234.5,-226.5 234.5,-382.5 364.5,-382.5 364.5,-226.5 234.5,-226.5"/>
<text text-anchor="middle" x="299.5" y="-370.5" font-family="FreeSans" font-size="10.00">wxMultiColumnListCtrl</text>
<polyline fill="none" stroke="black" points="234.5,-363.5 364.5,-363.5 "/>
<text text-anchor="start" x="242.5" y="-351.5" font-family="FreeSans" font-size="10.00"># m_extraNavigationKey</text>
<text text-anchor="start" x="242.5" y="-340.5" font-family="FreeSans" font-size="10.00"># m_modifierKey</text>
<polyline fill="none" stroke="black" points="234.5,-333.5 364.5,-333.5 "/>
<text text-anchor="start" x="242.5" y="-321.5" font-family="FreeSans" font-size="10.00">+ wxMultiColumnListCtrl()</text>
<text text-anchor="start" x="242.5" y="-310.5" font-family="FreeSans" font-size="10.00">+ wxMultiColumnListCtrl()</text>
<text text-anchor="start" x="242.5" y="-299.5" font-family="FreeSans" font-size="10.00">+ Create()</text>
<text text-anchor="start" x="242.5" y="-288.5" font-family="FreeSans" font-size="10.00">+ SetItems()</text>
<text text-anchor="start" x="242.5" y="-277.5" font-family="FreeSans" font-size="10.00">+ GetItems()</text>
<text text-anchor="start" x="242.5" y="-266.5" font-family="FreeSans" font-size="10.00">+ GetItems()</text>
<text text-anchor="start" x="242.5" y="-255.5" font-family="FreeSans" font-size="10.00">+ SetExtraNavigationKey()</text>
<text text-anchor="start" x="242.5" y="-244.5" font-family="FreeSans" font-size="10.00">+ GetExtraNavigationKey()</text>
<text text-anchor="start" x="242.5" y="-233.5" font-family="FreeSans" font-size="10.00">and 15 more...</text>
</a>
</g>
</g>
<!-- Node20&#45;&gt;Node9 -->
<g id="edge7" class="edge"><title>Node20&#45;&gt;Node9</title>
<path fill="none" stroke="#404040" d="M276.574,-226.353C273.561,-216.463 270.483,-206.485 267.5,-197 266.799,-194.772 266.087,-192.519 265.367,-190.248"/>
<polygon fill="none" stroke="#404040" points="265.355,-190.209 259.719,-185.71 261.704,-178.778 267.34,-183.277 265.355,-190.209"/>
<text text-anchor="middle" x="293.5" y="-200" font-family="FreeSans" font-size="10.00"> &#45;m_listCtrl</text>
</g>
<!-- Node21 -->
<g id="node9" class="node"><title>Node21</title>
<g id="a_node9"><a doxygen="/media/alpha/Barracuda/cb_docs/src/wxTagFile.xml:http://docs.wxwidgets.org/3.0/" xlink:href="http://docs.wxwidgets.org/3.0/classwx_control.html" target="_top" xlink:title="{wxControl\n||}">
<polygon fill="none" stroke="black" points="206,-491 206,-548 265,-548 265,-491 206,-491"/>
<text text-anchor="middle" x="235.5" y="-536" font-family="FreeSans" font-size="10.00">wxControl</text>
<polyline fill="none" stroke="black" points="206,-529 265,-529 "/>
<text text-anchor="middle" x="235.5" y="-517" font-family="FreeSans" font-size="10.00"> </text>
<polyline fill="none" stroke="black" points="206,-510 265,-510 "/>
<text text-anchor="middle" x="235.5" y="-498" font-family="FreeSans" font-size="10.00"> </text>
</a>
</g>
</g>
<!-- Node21&#45;&gt;Node20 -->
<g id="edge8" class="edge"><title>Node21&#45;&gt;Node20</title>
<path fill="none" stroke="midnightblue" d="M246.824,-480.811C254.964,-453.722 266.224,-416.247 276.245,-382.897"/>
<polygon fill="none" stroke="midnightblue" points="243.393,-480.07 243.867,-490.654 250.097,-482.084 243.393,-480.07"/>
</g>
<!-- Node14 -->
<g id="node10" class="node"><title>Node14</title>
<g id="a_node10"><a doxygen="/media/alpha/Barracuda/cb_docs/src/wxTagFile.xml:http://docs.wxwidgets.org/3.0/" xlink:href="http://docs.wxwidgets.org/3.0/classwx_window.html" target="_top" xlink:title="{wxWindow\n||}">
<polygon fill="none" stroke="red" points="152.5,-788.5 152.5,-845.5 214.5,-845.5 214.5,-788.5 152.5,-788.5"/>
<text text-anchor="middle" x="183.5" y="-833.5" font-family="FreeSans" font-size="10.00">wxWindow</text>
<polyline fill="none" stroke="red" points="152.5,-826.5 214.5,-826.5 "/>
<text text-anchor="middle" x="183.5" y="-814.5" font-family="FreeSans" font-size="10.00"> </text>
<polyline fill="none" stroke="red" points="152.5,-807.5 214.5,-807.5 "/>
<text text-anchor="middle" x="183.5" y="-795.5" font-family="FreeSans" font-size="10.00"> </text>
</a>
</g>
</g>
<!-- Node14&#45;&gt;Node21 -->
<g id="edge9" class="edge"><title>Node14&#45;&gt;Node21</title>
<path fill="none" stroke="midnightblue" d="M190.08,-778.61C200.675,-718.399 221.276,-601.331 230.648,-548.072"/>
<polygon fill="none" stroke="midnightblue" points="186.631,-778.01 188.345,-788.465 193.526,-779.223 186.631,-778.01"/>
</g>
<!-- Node22 -->
<g id="node11" class="node"><title>Node22</title>
<g id="a_node11"><a doxygen="/media/alpha/Barracuda/cb_docs/src/wxTagFile.xml:http://docs.wxwidgets.org/3.0/" xlink:href="http://docs.wxwidgets.org/3.0/classwx_size.html" target="_top" xlink:title="{wxSize\n||+ wxSize()\l+ wxSize()\l+ DecTo()\l+ DecToIfSpecified()\l+ GetHeight()\l+ GetWidth()\l+ IncTo()\l+ IsFullySpecified()\land 25 more...\l}">
<polygon fill="none" stroke="black" points="406,-447 406,-592 511,-592 511,-447 406,-447"/>
<text text-anchor="middle" x="458.5" y="-580" font-family="FreeSans" font-size="10.00">wxSize</text>
<polyline fill="none" stroke="black" points="406,-573 511,-573 "/>
<text text-anchor="middle" x="458.5" y="-561" font-family="FreeSans" font-size="10.00"> </text>
<polyline fill="none" stroke="black" points="406,-554 511,-554 "/>
<text text-anchor="start" x="414" y="-542" font-family="FreeSans" font-size="10.00">+ wxSize()</text>
<text text-anchor="start" x="414" y="-531" font-family="FreeSans" font-size="10.00">+ wxSize()</text>
<text text-anchor="start" x="414" y="-520" font-family="FreeSans" font-size="10.00">+ DecTo()</text>
<text text-anchor="start" x="414" y="-509" font-family="FreeSans" font-size="10.00">+ DecToIfSpecified()</text>
<text text-anchor="start" x="414" y="-498" font-family="FreeSans" font-size="10.00">+ GetHeight()</text>
<text text-anchor="start" x="414" y="-487" font-family="FreeSans" font-size="10.00">+ GetWidth()</text>
<text text-anchor="start" x="414" y="-476" font-family="FreeSans" font-size="10.00">+ IncTo()</text>
<text text-anchor="start" x="414" y="-465" font-family="FreeSans" font-size="10.00">+ IsFullySpecified()</text>
<text text-anchor="start" x="414" y="-454" font-family="FreeSans" font-size="10.00">and 25 more...</text>
</a>
</g>
</g>
<!-- Node22&#45;&gt;Node20 -->
<g id="edge10" class="edge"><title>Node22&#45;&gt;Node20</title>
<path fill="none" stroke="#404040" d="M408.727,-446.791C404.625,-441.085 400.514,-435.431 396.5,-430 387.415,-417.709 377.684,-404.863 368.02,-392.287"/>
<polygon fill="none" stroke="#404040" points="367.983,-392.239 361.151,-389.931 360.654,-382.737 367.486,-385.045 367.983,-392.239"/>
<text text-anchor="middle" x="415.5" y="-404" font-family="FreeSans" font-size="10.00"> #m_overallSize</text>
</g>
<!-- Node23 -->
<g id="node12" class="node"><title>Node23</title>
<g id="a_node12"><a doxygen="/media/alpha/Barracuda/cb_docs/src/wxTagFile.xml:http://docs.wxwidgets.org/3.0/" xlink:href="http://docs.wxwidgets.org/3.0/classwx_point.html" target="_top" xlink:title="{wxPoint\n|+ x\l+ y\l|+ wxPoint()\l+ wxPoint()\l+ wxPoint()\l+ operator=()\l+ operator==()\l+ operator!=()\l+ operator+()\l+ operator&#45;()\land 15 more...\l}">
<polygon fill="none" stroke="black" points="109.5,-441.5 109.5,-597.5 187.5,-597.5 187.5,-441.5 109.5,-441.5"/>
<text text-anchor="middle" x="148.5" y="-585.5" font-family="FreeSans" font-size="10.00">wxPoint</text>
<polyline fill="none" stroke="black" points="109.5,-578.5 187.5,-578.5 "/>
<text text-anchor="start" x="117.5" y="-566.5" font-family="FreeSans" font-size="10.00">+ x</text>
<text text-anchor="start" x="117.5" y="-555.5" font-family="FreeSans" font-size="10.00">+ y</text>
<polyline fill="none" stroke="black" points="109.5,-548.5 187.5,-548.5 "/>
<text text-anchor="start" x="117.5" y="-536.5" font-family="FreeSans" font-size="10.00">+ wxPoint()</text>
<text text-anchor="start" x="117.5" y="-525.5" font-family="FreeSans" font-size="10.00">+ wxPoint()</text>
<text text-anchor="start" x="117.5" y="-514.5" font-family="FreeSans" font-size="10.00">+ wxPoint()</text>
<text text-anchor="start" x="117.5" y="-503.5" font-family="FreeSans" font-size="10.00">+ operator=()</text>
<text text-anchor="start" x="117.5" y="-492.5" font-family="FreeSans" font-size="10.00">+ operator==()</text>
<text text-anchor="start" x="117.5" y="-481.5" font-family="FreeSans" font-size="10.00">+ operator!=()</text>
<text text-anchor="start" x="117.5" y="-470.5" font-family="FreeSans" font-size="10.00">+ operator+()</text>
<text text-anchor="start" x="117.5" y="-459.5" font-family="FreeSans" font-size="10.00">+ operator&#45;()</text>
<text text-anchor="start" x="117.5" y="-448.5" font-family="FreeSans" font-size="10.00">and 15 more...</text>
</a>
</g>
</g>
<!-- Node23&#45;&gt;Node20 -->
<g id="edge11" class="edge"><title>Node23&#45;&gt;Node20</title>
<path fill="none" stroke="#404040" d="M180.578,-441.403C187.868,-427.388 196.233,-413.322 205.5,-401 212.688,-391.442 216.92,-391.331 225.5,-383 225.592,-382.911 225.684,-382.822 225.775,-382.732"/>
<polygon fill="none" stroke="#404040" points="225.855,-382.654 227.324,-375.594 234.406,-374.235 232.937,-381.295 225.855,-382.654"/>
<text text-anchor="middle" x="234.5" y="-404" font-family="FreeSans" font-size="10.00"> #m_ptMouse</text>
</g>
<!-- Node24&#45;&gt;Node20 -->
<g id="edge12" class="edge"><title>Node24&#45;&gt;Node20</title>
<path fill="none" stroke="#404040" d="M320.598,-430.327C318.616,-418.605 316.584,-406.578 314.599,-394.836"/>
<polygon fill="none" stroke="#404040" points="314.553,-394.561 309.609,-389.311 312.553,-382.728 317.497,-387.978 314.553,-394.561"/>
<text text-anchor="middle" x="340" y="-404" font-family="FreeSans" font-size="10.00"> #m_items</text>
</g>
<!-- Node25 -->
<g id="node14" class="node"><title>Node25</title>
<g id="a_node14"><a doxygen="/media/alpha/Barracuda/cb_docs/src/wxTagFile.xml:http://docs.wxwidgets.org/3.0/" xlink:href="http://docs.wxwidgets.org/3.0/classwx_font.html" target="_top" xlink:title="{wxFont\n||+ wxFont()\l+ wxFont()\l+ wxFont()\l+ wxFont()\l+ wxFont()\l+ wxFont()\l+ wxFont()\l+ ~wxFont()\land 45 more...\l+ GetDefaultEncoding()\l+ SetDefaultEncoding()\l+ New()\l+ New()\l+ New()\l+ New()\l+ New()\l+ New()\l}">
<polygon fill="none" stroke="red" points="233,-700.5 233,-933.5 350,-933.5 350,-700.5 233,-700.5"/>
<text text-anchor="middle" x="291.5" y="-921.5" font-family="FreeSans" font-size="10.00">wxFont</text>
<polyline fill="none" stroke="red" points="233,-914.5 350,-914.5 "/>
<text text-anchor="middle" x="291.5" y="-902.5" font-family="FreeSans" font-size="10.00"> </text>
<polyline fill="none" stroke="red" points="233,-895.5 350,-895.5 "/>
<text text-anchor="start" x="241" y="-883.5" font-family="FreeSans" font-size="10.00">+ wxFont()</text>
<text text-anchor="start" x="241" y="-872.5" font-family="FreeSans" font-size="10.00">+ wxFont()</text>
<text text-anchor="start" x="241" y="-861.5" font-family="FreeSans" font-size="10.00">+ wxFont()</text>
<text text-anchor="start" x="241" y="-850.5" font-family="FreeSans" font-size="10.00">+ wxFont()</text>
<text text-anchor="start" x="241" y="-839.5" font-family="FreeSans" font-size="10.00">+ wxFont()</text>
<text text-anchor="start" x="241" y="-828.5" font-family="FreeSans" font-size="10.00">+ wxFont()</text>
<text text-anchor="start" x="241" y="-817.5" font-family="FreeSans" font-size="10.00">+ wxFont()</text>
<text text-anchor="start" x="241" y="-806.5" font-family="FreeSans" font-size="10.00">+ ~wxFont()</text>
<text text-anchor="start" x="241" y="-795.5" font-family="FreeSans" font-size="10.00">and 45 more...</text>
<text text-anchor="start" x="241" y="-784.5" font-family="FreeSans" font-size="10.00">+ GetDefaultEncoding()</text>
<text text-anchor="start" x="241" y="-773.5" font-family="FreeSans" font-size="10.00">+ SetDefaultEncoding()</text>
<text text-anchor="start" x="241" y="-762.5" font-family="FreeSans" font-size="10.00">+ New()</text>
<text text-anchor="start" x="241" y="-751.5" font-family="FreeSans" font-size="10.00">+ New()</text>
<text text-anchor="start" x="241" y="-740.5" font-family="FreeSans" font-size="10.00">+ New()</text>
<text text-anchor="start" x="241" y="-729.5" font-family="FreeSans" font-size="10.00">+ New()</text>
<text text-anchor="start" x="241" y="-718.5" font-family="FreeSans" font-size="10.00">+ New()</text>
<text text-anchor="start" x="241" y="-707.5" font-family="FreeSans" font-size="10.00">+ New()</text>
</a>
</g>
</g>
<!-- Node25&#45;&gt;Node24 -->
<g id="edge15" class="edge"><title>Node25&#45;&gt;Node24</title>
<path fill="none" stroke="#404040" d="M295.508,-700.328C297.453,-675.99 300.311,-650.558 304.5,-627 304.865,-624.947 305.255,-622.877 305.666,-620.796"/>
<polygon fill="none" stroke="#404040" points="305.726,-620.514 303.073,-613.809 308.242,-608.781 310.896,-615.486 305.726,-620.514"/>
<text text-anchor="middle" x="334.5" y="-652" font-family="FreeSans" font-size="10.00"> #m_itemFont</text>
</g>
</g>
</svg>
