<?xml version="1.0" encoding="UTF-8" standalone="no"?>
<!DOCTYPE svg PUBLIC "-//W3C//DTD SVG 1.1//EN"
 "http://www.w3.org/Graphics/SVG/1.1/DTD/svg11.dtd">
<!-- Generated by graphviz version 2.38.0 (20140413.2041)
 -->
<!-- Title: MacrosManager Pages: 1 -->
<svg width="568pt" height="1845pt"
 viewBox="0.00 0.00 567.50 1845.00" xmlns="http://www.w3.org/2000/svg" xmlns:xlink="http://www.w3.org/1999/xlink">
<g id="graph0" class="graph" transform="scale(1 1) rotate(0) translate(4 1841)">
<title>MacrosManager</title>
<polygon fill="white" stroke="none" points="-4,4 -4,-1841 563.5,-1841 563.5,4 -4,4"/>
<!-- Node1 -->
<g id="node1" class="node"><title>Node1</title>
<polygon fill="#bfbfbf" stroke="black" points="180.5,-171.5 180.5,-437.5 320.5,-437.5 320.5,-171.5 180.5,-171.5"/>
<text text-anchor="middle" x="250.5" y="-425.5" font-family="FreeSans" font-size="10.00">MacrosManager</text>
<polyline fill="none" stroke="black" points="180.5,-418.5 320.5,-418.5 "/>
<text text-anchor="start" x="188.5" y="-406.5" font-family="FreeSans" font-size="10.00"># m_ProjectWxFileName</text>
<text text-anchor="start" x="188.5" y="-395.5" font-family="FreeSans" font-size="10.00"># m_WorkspaceWxFileName</text>
<text text-anchor="start" x="188.5" y="-384.5" font-family="FreeSans" font-size="10.00"># m_AppPath</text>
<text text-anchor="start" x="188.5" y="-373.5" font-family="FreeSans" font-size="10.00"># m_DataPath</text>
<text text-anchor="start" x="188.5" y="-362.5" font-family="FreeSans" font-size="10.00"># m_Plugins</text>
<text text-anchor="start" x="188.5" y="-351.5" font-family="FreeSans" font-size="10.00"># m_ActiveEditorFilename</text>
<text text-anchor="start" x="188.5" y="-340.5" font-family="FreeSans" font-size="10.00"># m_ActiveEditorLine</text>
<text text-anchor="start" x="188.5" y="-329.5" font-family="FreeSans" font-size="10.00"># m_ActiveEditorColumn</text>
<text text-anchor="start" x="188.5" y="-318.5" font-family="FreeSans" font-size="10.00">and 23 more...</text>
<polyline fill="none" stroke="black" points="180.5,-311.5 320.5,-311.5 "/>
<text text-anchor="start" x="188.5" y="-299.5" font-family="FreeSans" font-size="10.00">+ CreateMenu()</text>
<text text-anchor="start" x="188.5" y="-288.5" font-family="FreeSans" font-size="10.00">+ ReleaseMenu()</text>
<text text-anchor="start" x="188.5" y="-277.5" font-family="FreeSans" font-size="10.00">+ ReplaceMacros()</text>
<text text-anchor="start" x="188.5" y="-266.5" font-family="FreeSans" font-size="10.00">+ ReplaceMacros()</text>
<text text-anchor="start" x="188.5" y="-255.5" font-family="FreeSans" font-size="10.00">+ ReplaceEnvVars()</text>
<text text-anchor="start" x="188.5" y="-244.5" font-family="FreeSans" font-size="10.00">+ RecalcVars()</text>
<text text-anchor="start" x="188.5" y="-233.5" font-family="FreeSans" font-size="10.00">+ ClearProjectKeys()</text>
<text text-anchor="start" x="188.5" y="-222.5" font-family="FreeSans" font-size="10.00">+ Reset()</text>
<text text-anchor="start" x="188.5" y="-211.5" font-family="FreeSans" font-size="10.00">&#45; MacrosManager()</text>
<text text-anchor="start" x="188.5" y="-200.5" font-family="FreeSans" font-size="10.00">&#45; ~MacrosManager()</text>
<text text-anchor="start" x="188.5" y="-189.5" font-family="FreeSans" font-size="10.00">&#45; EvalCondition()</text>
<text text-anchor="start" x="188.5" y="-178.5" font-family="FreeSans" font-size="10.00">&#45; MatchBrace()</text>
</g>
<!-- Node2 -->
<g id="node2" class="node"><title>Node2</title>
<g id="a_node2"><a xlink:href="classMgr.xhtml" target="_top" xlink:title="{Mgr\&lt; MacrosManager \&gt;\n|&#45; isShutdown\l|+ Valid()\l+ Get()\l+ Free()\l# Mgr()\l# ~Mgr()\l&#45; Mgr()\l&#45; operator=()\l}">
<polygon fill="white" stroke="black" points="191,-0.5 191,-123.5 310,-123.5 310,-0.5 191,-0.5"/>
<text text-anchor="middle" x="250.5" y="-111.5" font-family="FreeSans" font-size="10.00">Mgr&lt; MacrosManager &gt;</text>
<polyline fill="none" stroke="black" points="191,-104.5 310,-104.5 "/>
<text text-anchor="start" x="199" y="-92.5" font-family="FreeSans" font-size="10.00">&#45; isShutdown</text>
<polyline fill="none" stroke="black" points="191,-85.5 310,-85.5 "/>
<text text-anchor="start" x="199" y="-73.5" font-family="FreeSans" font-size="10.00">+ Valid()</text>
<text text-anchor="start" x="199" y="-62.5" font-family="FreeSans" font-size="10.00">+ Get()</text>
<text text-anchor="start" x="199" y="-51.5" font-family="FreeSans" font-size="10.00">+ Free()</text>
<text text-anchor="start" x="199" y="-40.5" font-family="FreeSans" font-size="10.00"># Mgr()</text>
<text text-anchor="start" x="199" y="-29.5" font-family="FreeSans" font-size="10.00"># ~Mgr()</text>
<text text-anchor="start" x="199" y="-18.5" font-family="FreeSans" font-size="10.00">&#45; Mgr()</text>
<text text-anchor="start" x="199" y="-7.5" font-family="FreeSans" font-size="10.00">&#45; operator=()</text>
</a>
</g>
</g>
<!-- Node1&#45;&gt;Node2 -->
<g id="edge2" class="edge"><title>Node1&#45;&gt;Node2</title>
<path fill="none" stroke="#404040" d="M216.924,-171.307C216.917,-161.391 217.696,-151.538 219.5,-142 219.913,-139.815 220.386,-137.613 220.909,-135.403"/>
<polygon fill="none" stroke="#404040" points="220.979,-135.148 218.701,-128.306 224.141,-123.572 226.418,-130.414 220.979,-135.148"/>
<text text-anchor="middle" x="240.5" y="-145" font-family="FreeSans" font-size="10.00"> &#45;instance</text>
</g>
<!-- Node2&#45;&gt;Node1 -->
<g id="edge1" class="edge"><title>Node2&#45;&gt;Node1</title>
<path fill="none" stroke="midnightblue" d="M264.6,-133.762C264.942,-136.538 265.245,-139.292 265.5,-142 266.397,-151.532 266.791,-161.381 266.8,-171.294"/>
<polygon fill="none" stroke="midnightblue" points="268.039,-133.078 263.205,-123.65 261.105,-134.035 268.039,-133.078"/>
</g>
<!-- Node3 -->
<g id="node3" class="node"><title>Node3</title>
<g id="a_node3"><a xlink:href="classUserVariableManager.xhtml" target="_top" xlink:title="{UserVariableManager\n|&#45; m_ActiveSet\l&#45; m_Preempted\l|+ UserVariableManager()\l+ Replace()\l+ Preempt()\l+ Arrogate()\l+ Exists()\l+ Configure()\l+ Migrate()\l+ operator=()\l&#45; UserVariableManager()\l}">
<polygon fill="white" stroke="black" points="40.5,-524 40.5,-680 162.5,-680 162.5,-524 40.5,-524"/>
<text text-anchor="middle" x="101.5" y="-668" font-family="FreeSans" font-size="10.00">UserVariableManager</text>
<polyline fill="none" stroke="black" points="40.5,-661 162.5,-661 "/>
<text text-anchor="start" x="48.5" y="-649" font-family="FreeSans" font-size="10.00">&#45; m_ActiveSet</text>
<text text-anchor="start" x="48.5" y="-638" font-family="FreeSans" font-size="10.00">&#45; m_Preempted</text>
<polyline fill="none" stroke="black" points="40.5,-631 162.5,-631 "/>
<text text-anchor="start" x="48.5" y="-619" font-family="FreeSans" font-size="10.00">+ UserVariableManager()</text>
<text text-anchor="start" x="48.5" y="-608" font-family="FreeSans" font-size="10.00">+ Replace()</text>
<text text-anchor="start" x="48.5" y="-597" font-family="FreeSans" font-size="10.00">+ Preempt()</text>
<text text-anchor="start" x="48.5" y="-586" font-family="FreeSans" font-size="10.00">+ Arrogate()</text>
<text text-anchor="start" x="48.5" y="-575" font-family="FreeSans" font-size="10.00">+ Exists()</text>
<text text-anchor="start" x="48.5" y="-564" font-family="FreeSans" font-size="10.00">+ Configure()</text>
<text text-anchor="start" x="48.5" y="-553" font-family="FreeSans" font-size="10.00">+ Migrate()</text>
<text text-anchor="start" x="48.5" y="-542" font-family="FreeSans" font-size="10.00">+ operator=()</text>
<text text-anchor="start" x="48.5" y="-531" font-family="FreeSans" font-size="10.00">&#45; UserVariableManager()</text>
</a>
</g>
</g>
<!-- Node3&#45;&gt;Node1 -->
<g id="edge3" class="edge"><title>Node3&#45;&gt;Node1</title>
<path fill="none" stroke="#404040" d="M138.943,-523.706C149.677,-501.772 161.464,-477.902 172.5,-456 173.785,-453.45 175.085,-450.877 176.396,-448.286"/>
<polygon fill="none" stroke="#404040" points="176.413,-448.252 175.562,-441.091 181.845,-437.552 182.696,-444.713 176.413,-448.252"/>
<text text-anchor="middle" x="209.5" y="-459" font-family="FreeSans" font-size="10.00"> #m_UserVarMan</text>
</g>
<!-- Node4 -->
<g id="node4" class="node"><title>Node4</title>
<g id="a_node4"><a xlink:href="classMgr.xhtml" target="_top" xlink:title="{Mgr\&lt; UserVariableManager \&gt;\n|&#45; isShutdown\l|+ Valid()\l+ Get()\l+ Free()\l# Mgr()\l# ~Mgr()\l&#45; Mgr()\l&#45; operator=()\l}">
<polygon fill="white" stroke="black" points="0,-243 0,-366 141,-366 141,-243 0,-243"/>
<text text-anchor="middle" x="70.5" y="-354" font-family="FreeSans" font-size="10.00">Mgr&lt; UserVariableManager &gt;</text>
<polyline fill="none" stroke="black" points="0,-347 141,-347 "/>
<text text-anchor="start" x="8" y="-335" font-family="FreeSans" font-size="10.00">&#45; isShutdown</text>
<polyline fill="none" stroke="black" points="0,-328 141,-328 "/>
<text text-anchor="start" x="8" y="-316" font-family="FreeSans" font-size="10.00">+ Valid()</text>
<text text-anchor="start" x="8" y="-305" font-family="FreeSans" font-size="10.00">+ Get()</text>
<text text-anchor="start" x="8" y="-294" font-family="FreeSans" font-size="10.00">+ Free()</text>
<text text-anchor="start" x="8" y="-283" font-family="FreeSans" font-size="10.00"># Mgr()</text>
<text text-anchor="start" x="8" y="-272" font-family="FreeSans" font-size="10.00"># ~Mgr()</text>
<text text-anchor="start" x="8" y="-261" font-family="FreeSans" font-size="10.00">&#45; Mgr()</text>
<text text-anchor="start" x="8" y="-250" font-family="FreeSans" font-size="10.00">&#45; operator=()</text>
</a>
</g>
</g>
<!-- Node3&#45;&gt;Node4 -->
<g id="edge5" class="edge"><title>Node3&#45;&gt;Node4</title>
<path fill="none" stroke="#404040" d="M63.93,-523.94C56.7158,-505.69 50.247,-485.997 46.5,-467 40.8139,-438.172 43.6678,-406.21 49.0779,-378.379"/>
<polygon fill="none" stroke="#404040" points="49.1455,-378.059 46.4734,-371.361 51.6282,-366.319 54.3003,-373.017 49.1455,-378.059"/>
<text text-anchor="middle" x="67.5" y="-459" font-family="FreeSans" font-size="10.00"> &#45;instance</text>
</g>
<!-- Node4&#45;&gt;Node3 -->
<g id="edge4" class="edge"><title>Node4&#45;&gt;Node3</title>
<path fill="none" stroke="midnightblue" d="M82.0886,-376.306C85.8699,-401.418 89.7887,-429.915 92.5,-456 94.7816,-477.951 96.555,-501.836 97.901,-523.769"/>
<polygon fill="none" stroke="midnightblue" points="85.5051,-375.493 80.537,-366.135 78.5851,-376.548 85.5051,-375.493"/>
</g>
<!-- Node5 -->
<g id="node5" class="node"><title>Node5</title>
<g id="a_node5"><a xlink:href="classConfigManager.xhtml" target="_top" xlink:title="{ConfigManager\n|&#45; doc\l&#45; root\l&#45; pathNode\l&#45; config_folder\l&#45; home_folder\l&#45; data_path_user\l&#45; data_path_global\l&#45; app_path\l&#45; temp_folder\l&#45; alternate_user_data_path\l&#45; has_alternate_user\l_data_path\l|+ GetPath()\l+ SetPath()\l+ EnumerateSubPaths()\l+ EnumerateKeys()\l+ DeleteSubPath()\l+ Clear()\l+ Delete()\l+ DeleteAll()\land 39 more...\l+ LocateDataFile()\l+ GetFolder()\l+ GetHomeFolder()\l+ GetConfigFolder()\l+ GetPluginsFolder()\l+ GetScriptsFolder()\l+ GetDataFolder()\l+ GetExecutableFolder()\land 7 more...\l# SetUserDataFolder()\l# GetUserDataFolder()\l&#45; ConfigManager()\l&#45; AssertPath()\l&#45; GetUniqElement()\l&#45; SetNodeText()\l&#45; Collapse()\l&#45; InvalidNameMessage()\l&#45; InitPaths()\l&#45; MigrateFolders()\l}">
<polygon fill="white" stroke="black" points="36,-766.5 36,-1241.5 167,-1241.5 167,-766.5 36,-766.5"/>
<text text-anchor="middle" x="101.5" y="-1229.5" font-family="FreeSans" font-size="10.00">ConfigManager</text>
<polyline fill="none" stroke="black" points="36,-1222.5 167,-1222.5 "/>
<text text-anchor="start" x="44" y="-1210.5" font-family="FreeSans" font-size="10.00">&#45; doc</text>
<text text-anchor="start" x="44" y="-1199.5" font-family="FreeSans" font-size="10.00">&#45; root</text>
<text text-anchor="start" x="44" y="-1188.5" font-family="FreeSans" font-size="10.00">&#45; pathNode</text>
<text text-anchor="start" x="44" y="-1177.5" font-family="FreeSans" font-size="10.00">&#45; config_folder</text>
<text text-anchor="start" x="44" y="-1166.5" font-family="FreeSans" font-size="10.00">&#45; home_folder</text>
<text text-anchor="start" x="44" y="-1155.5" font-family="FreeSans" font-size="10.00">&#45; data_path_user</text>
<text text-anchor="start" x="44" y="-1144.5" font-family="FreeSans" font-size="10.00">&#45; data_path_global</text>
<text text-anchor="start" x="44" y="-1133.5" font-family="FreeSans" font-size="10.00">&#45; app_path</text>
<text text-anchor="start" x="44" y="-1122.5" font-family="FreeSans" font-size="10.00">&#45; temp_folder</text>
<text text-anchor="start" x="44" y="-1111.5" font-family="FreeSans" font-size="10.00">&#45; alternate_user_data_path</text>
<text text-anchor="start" x="44" y="-1100.5" font-family="FreeSans" font-size="10.00">&#45; has_alternate_user</text>
<text text-anchor="start" x="44" y="-1089.5" font-family="FreeSans" font-size="10.00">_data_path</text>
<polyline fill="none" stroke="black" points="36,-1082.5 167,-1082.5 "/>
<text text-anchor="start" x="44" y="-1070.5" font-family="FreeSans" font-size="10.00">+ GetPath()</text>
<text text-anchor="start" x="44" y="-1059.5" font-family="FreeSans" font-size="10.00">+ SetPath()</text>
<text text-anchor="start" x="44" y="-1048.5" font-family="FreeSans" font-size="10.00">+ EnumerateSubPaths()</text>
<text text-anchor="start" x="44" y="-1037.5" font-family="FreeSans" font-size="10.00">+ EnumerateKeys()</text>
<text text-anchor="start" x="44" y="-1026.5" font-family="FreeSans" font-size="10.00">+ DeleteSubPath()</text>
<text text-anchor="start" x="44" y="-1015.5" font-family="FreeSans" font-size="10.00">+ Clear()</text>
<text text-anchor="start" x="44" y="-1004.5" font-family="FreeSans" font-size="10.00">+ Delete()</text>
<text text-anchor="start" x="44" y="-993.5" font-family="FreeSans" font-size="10.00">+ DeleteAll()</text>
<text text-anchor="start" x="44" y="-982.5" font-family="FreeSans" font-size="10.00">and 39 more...</text>
<text text-anchor="start" x="44" y="-971.5" font-family="FreeSans" font-size="10.00">+ LocateDataFile()</text>
<text text-anchor="start" x="44" y="-960.5" font-family="FreeSans" font-size="10.00">+ GetFolder()</text>
<text text-anchor="start" x="44" y="-949.5" font-family="FreeSans" font-size="10.00">+ GetHomeFolder()</text>
<text text-anchor="start" x="44" y="-938.5" font-family="FreeSans" font-size="10.00">+ GetConfigFolder()</text>
<text text-anchor="start" x="44" y="-927.5" font-family="FreeSans" font-size="10.00">+ GetPluginsFolder()</text>
<text text-anchor="start" x="44" y="-916.5" font-family="FreeSans" font-size="10.00">+ GetScriptsFolder()</text>
<text text-anchor="start" x="44" y="-905.5" font-family="FreeSans" font-size="10.00">+ GetDataFolder()</text>
<text text-anchor="start" x="44" y="-894.5" font-family="FreeSans" font-size="10.00">+ GetExecutableFolder()</text>
<text text-anchor="start" x="44" y="-883.5" font-family="FreeSans" font-size="10.00">and 7 more...</text>
<text text-anchor="start" x="44" y="-872.5" font-family="FreeSans" font-size="10.00"># SetUserDataFolder()</text>
<text text-anchor="start" x="44" y="-861.5" font-family="FreeSans" font-size="10.00"># GetUserDataFolder()</text>
<text text-anchor="start" x="44" y="-850.5" font-family="FreeSans" font-size="10.00">&#45; ConfigManager()</text>
<text text-anchor="start" x="44" y="-839.5" font-family="FreeSans" font-size="10.00">&#45; AssertPath()</text>
<text text-anchor="start" x="44" y="-828.5" font-family="FreeSans" font-size="10.00">&#45; GetUniqElement()</text>
<text text-anchor="start" x="44" y="-817.5" font-family="FreeSans" font-size="10.00">&#45; SetNodeText()</text>
<text text-anchor="start" x="44" y="-806.5" font-family="FreeSans" font-size="10.00">&#45; Collapse()</text>
<text text-anchor="start" x="44" y="-795.5" font-family="FreeSans" font-size="10.00">&#45; InvalidNameMessage()</text>
<text text-anchor="start" x="44" y="-784.5" font-family="FreeSans" font-size="10.00">&#45; InitPaths()</text>
<text text-anchor="start" x="44" y="-773.5" font-family="FreeSans" font-size="10.00">&#45; MigrateFolders()</text>
</a>
</g>
</g>
<!-- Node5&#45;&gt;Node3 -->
<g id="edge6" class="edge"><title>Node5&#45;&gt;Node3</title>
<path fill="none" stroke="#404040" d="M101.5,-766.272C101.5,-740.226 101.5,-715.04 101.5,-692.565"/>
<polygon fill="none" stroke="#404040" points="101.5,-692.369 97.5,-686.369 101.5,-680.369 105.5,-686.369 101.5,-692.369"/>
<text text-anchor="middle" x="128" y="-740" font-family="FreeSans" font-size="10.00"> &#45;m_CfgMan</text>
</g>
<!-- Node6 -->
<g id="node6" class="node"><title>Node6</title>
<g id="a_node6"><a xlink:href="classcbProject.xhtml" target="_top" xlink:title="Represents a Code::Blocks project. ">
<polygon fill="white" stroke="black" points="300.5,-849 300.5,-1159 470.5,-1159 470.5,-849 300.5,-849"/>
<text text-anchor="middle" x="385.5" y="-1147" font-family="FreeSans" font-size="10.00">cbProject</text>
<polyline fill="none" stroke="black" points="300.5,-1140 470.5,-1140 "/>
<text text-anchor="start" x="308.5" y="-1128" font-family="FreeSans" font-size="10.00">&#45; m_Targets</text>
<text text-anchor="start" x="308.5" y="-1117" font-family="FreeSans" font-size="10.00">&#45; m_ActiveTarget</text>
<text text-anchor="start" x="308.5" y="-1106" font-family="FreeSans" font-size="10.00">&#45; m_LastSavedActiveTarget</text>
<text text-anchor="start" x="308.5" y="-1095" font-family="FreeSans" font-size="10.00">&#45; m_DefaultExecuteTarget</text>
<text text-anchor="start" x="308.5" y="-1084" font-family="FreeSans" font-size="10.00">&#45; m_Makefile</text>
<text text-anchor="start" x="308.5" y="-1073" font-family="FreeSans" font-size="10.00">&#45; m_CustomMakefile</text>
<text text-anchor="start" x="308.5" y="-1062" font-family="FreeSans" font-size="10.00">&#45; m_MakefileExecutionDir</text>
<text text-anchor="start" x="308.5" y="-1051" font-family="FreeSans" font-size="10.00">&#45; m_Files</text>
<text text-anchor="start" x="308.5" y="-1040" font-family="FreeSans" font-size="10.00">and 17 more...</text>
<polyline fill="none" stroke="black" points="300.5,-1033 470.5,-1033 "/>
<text text-anchor="start" x="308.5" y="-1021" font-family="FreeSans" font-size="10.00">+ cbProject()</text>
<text text-anchor="start" x="308.5" y="-1010" font-family="FreeSans" font-size="10.00">+ ~cbProject()</text>
<text text-anchor="start" x="308.5" y="-999" font-family="FreeSans" font-size="10.00">+ IsLoaded()</text>
<text text-anchor="start" x="308.5" y="-988" font-family="FreeSans" font-size="10.00">+ ClearAllProperties()</text>
<text text-anchor="start" x="308.5" y="-977" font-family="FreeSans" font-size="10.00">+ CalculateCommonTopLevelPath()</text>
<text text-anchor="start" x="308.5" y="-966" font-family="FreeSans" font-size="10.00">+ GetCommonTopLevelPath()</text>
<text text-anchor="start" x="308.5" y="-955" font-family="FreeSans" font-size="10.00">+ GetModified()</text>
<text text-anchor="start" x="308.5" y="-944" font-family="FreeSans" font-size="10.00">+ SetModified()</text>
<text text-anchor="start" x="308.5" y="-933" font-family="FreeSans" font-size="10.00">and 85 more...</text>
<text text-anchor="start" x="308.5" y="-922" font-family="FreeSans" font-size="10.00">&#45; Open()</text>
<text text-anchor="start" x="308.5" y="-911" font-family="FreeSans" font-size="10.00">&#45; ExpandVirtualBuildTarget</text>
<text text-anchor="start" x="308.5" y="-900" font-family="FreeSans" font-size="10.00">Group()</text>
<text text-anchor="start" x="308.5" y="-889" font-family="FreeSans" font-size="10.00">&#45; AddDefaultBuildTarget()</text>
<text text-anchor="start" x="308.5" y="-878" font-family="FreeSans" font-size="10.00">&#45; IndexOfBuildTargetName()</text>
<text text-anchor="start" x="308.5" y="-867" font-family="FreeSans" font-size="10.00">&#45; CreateUniqueFilename()</text>
<text text-anchor="start" x="308.5" y="-856" font-family="FreeSans" font-size="10.00">&#45; NotifyPlugins()</text>
</a>
</g>
</g>
<!-- Node6&#45;&gt;Node1 -->
<g id="edge7" class="edge"><title>Node6&#45;&gt;Node1</title>
<path fill="none" stroke="#404040" d="M425.845,-848.739C430.702,-812.051 431.963,-773.085 425.5,-737 407.495,-636.477 364.645,-530.088 325.855,-448.102"/>
<polygon fill="none" stroke="#404040" points="325.825,-448.039 319.631,-444.347 320.658,-437.209 326.852,-440.902 325.825,-448.039"/>
<text text-anchor="middle" x="457.5" y="-599.5" font-family="FreeSans" font-size="10.00"> #m_LastProject</text>
</g>
<!-- Node12 -->
<g id="node12" class="node"><title>Node12</title>
<g id="a_node12"><a xlink:href="classProjectBuildTarget.xhtml" target="_top" xlink:title="{ProjectBuildTarget\n|&#45; m_ExternalDeps\l&#45; m_AdditionalOutputFiles\l&#45; m_TargetDeps\l&#45; m_Files\l&#45; m_FileArray\l&#45; m_BuildWithAll\l&#45; m_CreateStaticLib\l&#45; m_CreateDefFile\l&#45; m_UseConsoleRunner\l|+ ProjectBuildTarget()\l+ ~ProjectBuildTarget()\l+ GetParentProject()\l+ GetFullTitle()\l+ GetExternalDeps()\l+ SetExternalDeps()\l+ GetAdditionalOutputFiles()\l+ SetAdditionalOutputFiles()\land 15 more...\l}">
<polygon fill="white" stroke="black" points="181,-485.5 181,-718.5 320,-718.5 320,-485.5 181,-485.5"/>
<text text-anchor="middle" x="250.5" y="-706.5" font-family="FreeSans" font-size="10.00">ProjectBuildTarget</text>
<polyline fill="none" stroke="black" points="181,-699.5 320,-699.5 "/>
<text text-anchor="start" x="189" y="-687.5" font-family="FreeSans" font-size="10.00">&#45; m_ExternalDeps</text>
<text text-anchor="start" x="189" y="-676.5" font-family="FreeSans" font-size="10.00">&#45; m_AdditionalOutputFiles</text>
<text text-anchor="start" x="189" y="-665.5" font-family="FreeSans" font-size="10.00">&#45; m_TargetDeps</text>
<text text-anchor="start" x="189" y="-654.5" font-family="FreeSans" font-size="10.00">&#45; m_Files</text>
<text text-anchor="start" x="189" y="-643.5" font-family="FreeSans" font-size="10.00">&#45; m_FileArray</text>
<text text-anchor="start" x="189" y="-632.5" font-family="FreeSans" font-size="10.00">&#45; m_BuildWithAll</text>
<text text-anchor="start" x="189" y="-621.5" font-family="FreeSans" font-size="10.00">&#45; m_CreateStaticLib</text>
<text text-anchor="start" x="189" y="-610.5" font-family="FreeSans" font-size="10.00">&#45; m_CreateDefFile</text>
<text text-anchor="start" x="189" y="-599.5" font-family="FreeSans" font-size="10.00">&#45; m_UseConsoleRunner</text>
<polyline fill="none" stroke="black" points="181,-592.5 320,-592.5 "/>
<text text-anchor="start" x="189" y="-580.5" font-family="FreeSans" font-size="10.00">+ ProjectBuildTarget()</text>
<text text-anchor="start" x="189" y="-569.5" font-family="FreeSans" font-size="10.00">+ ~ProjectBuildTarget()</text>
<text text-anchor="start" x="189" y="-558.5" font-family="FreeSans" font-size="10.00">+ GetParentProject()</text>
<text text-anchor="start" x="189" y="-547.5" font-family="FreeSans" font-size="10.00">+ GetFullTitle()</text>
<text text-anchor="start" x="189" y="-536.5" font-family="FreeSans" font-size="10.00">+ GetExternalDeps()</text>
<text text-anchor="start" x="189" y="-525.5" font-family="FreeSans" font-size="10.00">+ SetExternalDeps()</text>
<text text-anchor="start" x="189" y="-514.5" font-family="FreeSans" font-size="10.00">+ GetAdditionalOutputFiles()</text>
<text text-anchor="start" x="189" y="-503.5" font-family="FreeSans" font-size="10.00">+ SetAdditionalOutputFiles()</text>
<text text-anchor="start" x="189" y="-492.5" font-family="FreeSans" font-size="10.00">and 15 more...</text>
</a>
</g>
</g>
<!-- Node6&#45;&gt;Node12 -->
<g id="edge15" class="edge"><title>Node6&#45;&gt;Node12</title>
<path fill="none" stroke="#404040" d="M392.674,-848.929C389.866,-811.214 382.895,-771.733 368.5,-737 359.116,-714.36 344.274,-692.923 328.239,-674.105"/>
<polygon fill="none" stroke="#404040" points="328.224,-674.088 321.256,-672.23 320.291,-665.084 327.259,-666.941 328.224,-674.088"/>
<text text-anchor="middle" x="396.5" y="-740" font-family="FreeSans" font-size="10.00"> &#45;m_Project</text>
</g>
<!-- Node7 -->
<g id="node7" class="node"><title>Node7</title>
<g id="a_node7"><a xlink:href="classCompileTargetBase.xhtml" target="_top" xlink:title="Base class for build target classes Each Code::Blocks project consists of at least one target...">
<polygon fill="white" stroke="black" points="138,-1289.5 138,-1555.5 293,-1555.5 293,-1289.5 138,-1289.5"/>
<text text-anchor="middle" x="215.5" y="-1543.5" font-family="FreeSans" font-size="10.00">CompileTargetBase</text>
<polyline fill="none" stroke="black" points="138,-1536.5 293,-1536.5 "/>
<text text-anchor="start" x="146" y="-1524.5" font-family="FreeSans" font-size="10.00"># m_Filename</text>
<text text-anchor="start" x="146" y="-1513.5" font-family="FreeSans" font-size="10.00"># m_Title</text>
<text text-anchor="start" x="146" y="-1502.5" font-family="FreeSans" font-size="10.00"># m_OutputFilename</text>
<text text-anchor="start" x="146" y="-1491.5" font-family="FreeSans" font-size="10.00"># m_ImportLibraryFilename</text>
<text text-anchor="start" x="146" y="-1480.5" font-family="FreeSans" font-size="10.00"># m_DefinitionFileFilename</text>
<text text-anchor="start" x="146" y="-1469.5" font-family="FreeSans" font-size="10.00"># m_WorkingDir</text>
<text text-anchor="start" x="146" y="-1458.5" font-family="FreeSans" font-size="10.00"># m_ObjectOutput</text>
<text text-anchor="start" x="146" y="-1447.5" font-family="FreeSans" font-size="10.00"># m_DepsOutput</text>
<text text-anchor="start" x="146" y="-1436.5" font-family="FreeSans" font-size="10.00">and 10 more...</text>
<polyline fill="none" stroke="black" points="138,-1429.5 293,-1429.5 "/>
<text text-anchor="start" x="146" y="-1417.5" font-family="FreeSans" font-size="10.00">+ CompileTargetBase()</text>
<text text-anchor="start" x="146" y="-1406.5" font-family="FreeSans" font-size="10.00">+ ~CompileTargetBase()</text>
<text text-anchor="start" x="146" y="-1395.5" font-family="FreeSans" font-size="10.00">+ SetTargetFilenameGeneration</text>
<text text-anchor="start" x="146" y="-1384.5" font-family="FreeSans" font-size="10.00">Policy()</text>
<text text-anchor="start" x="146" y="-1373.5" font-family="FreeSans" font-size="10.00">+ GetTargetFilenameGeneration</text>
<text text-anchor="start" x="146" y="-1362.5" font-family="FreeSans" font-size="10.00">Policy()</text>
<text text-anchor="start" x="146" y="-1351.5" font-family="FreeSans" font-size="10.00">+ GetFilename()</text>
<text text-anchor="start" x="146" y="-1340.5" font-family="FreeSans" font-size="10.00">+ GetTitle()</text>
<text text-anchor="start" x="146" y="-1329.5" font-family="FreeSans" font-size="10.00">+ SetTitle()</text>
<text text-anchor="start" x="146" y="-1318.5" font-family="FreeSans" font-size="10.00">+ SetOutputFilename()</text>
<text text-anchor="start" x="146" y="-1307.5" font-family="FreeSans" font-size="10.00">and 32 more...</text>
<text text-anchor="start" x="146" y="-1296.5" font-family="FreeSans" font-size="10.00">&#45; GenerateTargetFilename()</text>
</a>
</g>
</g>
<!-- Node7&#45;&gt;Node6 -->
<g id="edge8" class="edge"><title>Node7&#45;&gt;Node6</title>
<path fill="none" stroke="midnightblue" d="M273.204,-1280.13C289.115,-1241.14 306.453,-1198.66 322.64,-1159.01"/>
<polygon fill="none" stroke="midnightblue" points="269.944,-1278.85 269.406,-1289.43 276.425,-1281.49 269.944,-1278.85"/>
</g>
<!-- Node7&#45;&gt;Node12 -->
<g id="edge14" class="edge"><title>Node7&#45;&gt;Node12</title>
<path fill="none" stroke="midnightblue" d="M216.25,-1279.22C217.785,-1140.66 222.314,-924.142 235.5,-737 235.92,-731.045 236.404,-724.948 236.937,-718.794"/>
<polygon fill="none" stroke="midnightblue" points="212.748,-1279.44 216.141,-1289.48 219.747,-1279.52 212.748,-1279.44"/>
</g>
<!-- Node8 -->
<g id="node8" class="node"><title>Node8</title>
<g id="a_node8"><a xlink:href="classCompileOptionsBase.xhtml" target="_top" xlink:title="{CompileOptionsBase\n|# m_Platform\l# m_LinkerOptions\l# m_LinkLibs\l# m_CompilerOptions\l# m_ResourceCompilerOptions\l# m_IncludeDirs\l# m_ResIncludeDirs\l# m_LibDirs\land 6 more...\l|+ CompileOptionsBase()\l+ ~CompileOptionsBase()\l+ AddPlatform()\l+ RemovePlatform()\l+ SetPlatforms()\l+ GetPlatforms()\l+ SupportsCurrentPlatform()\l+ SetLinkerOptions()\land 49 more...\l}">
<polygon fill="white" stroke="black" points="141,-1603.5 141,-1836.5 290,-1836.5 290,-1603.5 141,-1603.5"/>
<text text-anchor="middle" x="215.5" y="-1824.5" font-family="FreeSans" font-size="10.00">CompileOptionsBase</text>
<polyline fill="none" stroke="black" points="141,-1817.5 290,-1817.5 "/>
<text text-anchor="start" x="149" y="-1805.5" font-family="FreeSans" font-size="10.00"># m_Platform</text>
<text text-anchor="start" x="149" y="-1794.5" font-family="FreeSans" font-size="10.00"># m_LinkerOptions</text>
<text text-anchor="start" x="149" y="-1783.5" font-family="FreeSans" font-size="10.00"># m_LinkLibs</text>
<text text-anchor="start" x="149" y="-1772.5" font-family="FreeSans" font-size="10.00"># m_CompilerOptions</text>
<text text-anchor="start" x="149" y="-1761.5" font-family="FreeSans" font-size="10.00"># m_ResourceCompilerOptions</text>
<text text-anchor="start" x="149" y="-1750.5" font-family="FreeSans" font-size="10.00"># m_IncludeDirs</text>
<text text-anchor="start" x="149" y="-1739.5" font-family="FreeSans" font-size="10.00"># m_ResIncludeDirs</text>
<text text-anchor="start" x="149" y="-1728.5" font-family="FreeSans" font-size="10.00"># m_LibDirs</text>
<text text-anchor="start" x="149" y="-1717.5" font-family="FreeSans" font-size="10.00">and 6 more...</text>
<polyline fill="none" stroke="black" points="141,-1710.5 290,-1710.5 "/>
<text text-anchor="start" x="149" y="-1698.5" font-family="FreeSans" font-size="10.00">+ CompileOptionsBase()</text>
<text text-anchor="start" x="149" y="-1687.5" font-family="FreeSans" font-size="10.00">+ ~CompileOptionsBase()</text>
<text text-anchor="start" x="149" y="-1676.5" font-family="FreeSans" font-size="10.00">+ AddPlatform()</text>
<text text-anchor="start" x="149" y="-1665.5" font-family="FreeSans" font-size="10.00">+ RemovePlatform()</text>
<text text-anchor="start" x="149" y="-1654.5" font-family="FreeSans" font-size="10.00">+ SetPlatforms()</text>
<text text-anchor="start" x="149" y="-1643.5" font-family="FreeSans" font-size="10.00">+ GetPlatforms()</text>
<text text-anchor="start" x="149" y="-1632.5" font-family="FreeSans" font-size="10.00">+ SupportsCurrentPlatform()</text>
<text text-anchor="start" x="149" y="-1621.5" font-family="FreeSans" font-size="10.00">+ SetLinkerOptions()</text>
<text text-anchor="start" x="149" y="-1610.5" font-family="FreeSans" font-size="10.00">and 49 more...</text>
</a>
</g>
</g>
<!-- Node8&#45;&gt;Node7 -->
<g id="edge9" class="edge"><title>Node8&#45;&gt;Node7</title>
<path fill="none" stroke="midnightblue" d="M215.5,-1593.11C215.5,-1580.7 215.5,-1568.08 215.5,-1555.6"/>
<polygon fill="none" stroke="midnightblue" points="212,-1593.48 215.5,-1603.48 219,-1593.48 212,-1593.48"/>
</g>
<!-- Node9 -->
<g id="node9" class="node"><title>Node9</title>
<polygon fill="white" stroke="#bfbfbf" points="330,-1383 330,-1462 431,-1462 431,-1383 330,-1383"/>
<text text-anchor="start" x="338" y="-1450" font-family="FreeSans" font-size="10.00">std::map&lt; wxString,</text>
<text text-anchor="middle" x="380.5" y="-1439" font-family="FreeSans" font-size="10.00"> wxArrayString &gt;</text>
<polyline fill="none" stroke="#bfbfbf" points="330,-1432 431,-1432 "/>
<text text-anchor="start" x="338" y="-1420" font-family="FreeSans" font-size="10.00">+ keys</text>
<text text-anchor="start" x="338" y="-1409" font-family="FreeSans" font-size="10.00">+ elements</text>
<polyline fill="none" stroke="#bfbfbf" points="330,-1402 431,-1402 "/>
<text text-anchor="middle" x="380.5" y="-1390" font-family="FreeSans" font-size="10.00"> </text>
</g>
<!-- Node9&#45;&gt;Node6 -->
<g id="edge10" class="edge"><title>Node9&#45;&gt;Node6</title>
<path fill="none" stroke="#404040" d="M380.966,-1382.69C381.545,-1334.48 382.569,-1249.12 383.498,-1171.73"/>
<polygon fill="none" stroke="#404040" points="383.503,-1171.38 379.575,-1165.33 383.647,-1159.38 387.574,-1165.43 383.503,-1171.38"/>
<text text-anchor="middle" x="422" y="-1263" font-family="FreeSans" font-size="10.00"> &#45;m_VirtualTargets</text>
</g>
<!-- Node10 -->
<g id="node10" class="node"><title>Node10</title>
<polygon fill="white" stroke="#bfbfbf" points="449.5,-1388.5 449.5,-1456.5 559.5,-1456.5 559.5,-1388.5 449.5,-1388.5"/>
<text text-anchor="start" x="457.5" y="-1444.5" font-family="FreeSans" font-size="10.00">std::vector&lt; cbProject</text>
<text text-anchor="middle" x="504.5" y="-1433.5" font-family="FreeSans" font-size="10.00">::Glob &gt;</text>
<polyline fill="none" stroke="#bfbfbf" points="449.5,-1426.5 559.5,-1426.5 "/>
<text text-anchor="middle" x="504.5" y="-1414.5" font-family="FreeSans" font-size="10.00"> </text>
<polyline fill="none" stroke="#bfbfbf" points="449.5,-1407.5 559.5,-1407.5 "/>
<text text-anchor="middle" x="504.5" y="-1395.5" font-family="FreeSans" font-size="10.00"> </text>
</g>
<!-- Node10&#45;&gt;Node6 -->
<g id="edge11" class="edge"><title>Node10&#45;&gt;Node6</title>
<path fill="none" stroke="#404040" d="M497.153,-1388.24C489.755,-1355.47 477.715,-1304.06 465.5,-1260 457.483,-1231.09 448.412,-1200.51 439.33,-1170.95"/>
<polygon fill="none" stroke="#404040" points="439.255,-1170.71 433.664,-1166.16 435.716,-1159.24 441.308,-1163.8 439.255,-1170.71"/>
<text text-anchor="middle" x="490.5" y="-1263" font-family="FreeSans" font-size="10.00"> &#45;m_Globs</text>
</g>
<!-- Node11 -->
<g id="node11" class="node"><title>Node11</title>
<g id="a_node11"><a xlink:href="structcbProject_1_1Glob.xhtml" target="_top" xlink:title="{cbProject::Glob\n|+ m_Path\l+ m_WildCard\l+ m_Recursive\l|+ Glob()\l}">
<polygon fill="white" stroke="black" points="463,-1680.5 463,-1759.5 546,-1759.5 546,-1680.5 463,-1680.5"/>
<text text-anchor="middle" x="504.5" y="-1747.5" font-family="FreeSans" font-size="10.00">cbProject::Glob</text>
<polyline fill="none" stroke="black" points="463,-1740.5 546,-1740.5 "/>
<text text-anchor="start" x="471" y="-1728.5" font-family="FreeSans" font-size="10.00">+ m_Path</text>
<text text-anchor="start" x="471" y="-1717.5" font-family="FreeSans" font-size="10.00">+ m_WildCard</text>
<text text-anchor="start" x="471" y="-1706.5" font-family="FreeSans" font-size="10.00">+ m_Recursive</text>
<polyline fill="none" stroke="black" points="463,-1699.5 546,-1699.5 "/>
<text text-anchor="start" x="471" y="-1687.5" font-family="FreeSans" font-size="10.00">+ Glob()</text>
</a>
</g>
</g>
<!-- Node11&#45;&gt;Node10 -->
<g id="edge12" class="edge"><title>Node11&#45;&gt;Node10</title>
<path fill="none" stroke="#404040" d="M504.5,-1680.37C504.5,-1625.86 504.5,-1526.58 504.5,-1468.71"/>
<polygon fill="none" stroke="#404040" points="504.5,-1468.67 500.5,-1462.67 504.5,-1456.67 508.5,-1462.67 504.5,-1468.67"/>
<text text-anchor="middle" x="528.5" y="-1577" font-family="FreeSans" font-size="10.00"> +elements</text>
</g>
<!-- Node12&#45;&gt;Node1 -->
<g id="edge16" class="edge"><title>Node12&#45;&gt;Node1</title>
<path fill="none" stroke="#404040" d="M250.5,-485.482C250.5,-473.706 250.5,-461.643 250.5,-449.611"/>
<polygon fill="none" stroke="#404040" points="250.5,-449.603 246.5,-443.603 250.5,-437.603 254.5,-443.603 250.5,-449.603"/>
<text text-anchor="middle" x="284" y="-459" font-family="FreeSans" font-size="10.00"> #m_LastTarget</text>
</g>
<!-- Node12&#45;&gt;Node6 -->
<g id="edge13" class="edge"><title>Node12&#45;&gt;Node6</title>
<path fill="none" stroke="#404040" d="M235.732,-718.809C236.506,-728.761 238.016,-738.608 240.5,-748 251.835,-790.866 272.232,-834.07 294.215,-872.423"/>
<polygon fill="none" stroke="#404040" points="294.402,-872.744 300.882,-875.91 300.451,-883.108 293.972,-879.942 294.402,-872.744"/>
<text text-anchor="middle" x="304.5" y="-740" font-family="FreeSans" font-size="10.00"> &#45;m_CurrentlyCompilingTarget</text>
</g>
</g>
</svg>
