<?xml version="1.0" encoding="UTF-8" standalone="no"?>
<!DOCTYPE svg PUBLIC "-//W3C//DTD SVG 1.1//EN"
 "http://www.w3.org/Graphics/SVG/1.1/DTD/svg11.dtd">
<!-- Generated by graphviz version 2.38.0 (20140413.2041)
 -->
<!-- Title: IFunctorBase Pages: 1 -->
<svg width="154pt" height="320pt"
 viewBox="0.00 0.00 154.00 320.00" xmlns="http://www.w3.org/2000/svg" xmlns:xlink="http://www.w3.org/1999/xlink">
<g id="graph0" class="graph" transform="scale(1 1) rotate(0) translate(4 316)">
<title>IFunctorBase</title>
<!-- Node1 -->
<g id="node1" class="node"><title>Node1</title>
<polygon fill="#bfbfbf" stroke="black" points="26,-243.5 26,-311.5 120,-311.5 120,-243.5 26,-243.5"/>
<text text-anchor="middle" x="73" y="-299.5" font-family="FreeSans" font-size="10.00">IFunctorBase</text>
<polyline fill="none" stroke="black" points="26,-292.5 120,-292.5 "/>
<text text-anchor="middle" x="73" y="-280.5" font-family="FreeSans" font-size="10.00"> </text>
<polyline fill="none" stroke="black" points="26,-273.5 120,-273.5 "/>
<text text-anchor="start" x="34" y="-261.5" font-family="FreeSans" font-size="10.00">+ ~IFunctorBase()</text>
<text text-anchor="start" x="34" y="-250.5" font-family="FreeSans" font-size="10.00">+ GetThis()</text>
</g>
<!-- Node2 -->
<g id="node2" class="node"><title>Node2</title>
<g id="a_node2"><a xlink:href="classIEventFunctorBase" target="_top" xlink:title="Base abstract event functor class. ">
<polygon fill="none" stroke="black" points="21,-138.5 21,-206.5 125,-206.5 125,-138.5 21,-138.5"/>
<text text-anchor="start" x="29" y="-194.5" font-family="FreeSans" font-size="10.00">IEventFunctorBase&lt;</text>
<text text-anchor="middle" x="73" y="-183.5" font-family="FreeSans" font-size="10.00"> EventType &gt;</text>
<polyline fill="none" stroke="black" points="21,-176.5 125,-176.5 "/>
<text text-anchor="middle" x="73" y="-164.5" font-family="FreeSans" font-size="10.00"> </text>
<polyline fill="none" stroke="black" points="21,-157.5 125,-157.5 "/>
<text text-anchor="start" x="29" y="-145.5" font-family="FreeSans" font-size="10.00">+ Call()</text>
</a>
</g>
</g>
<!-- Node1&#45;&gt;Node2 -->
<g id="edge1" class="edge"><title>Node1&#45;&gt;Node2</title>
<path fill="none" stroke="midnightblue" d="M73,-233.136C73,-224.256 73,-215.045 73,-206.595"/>
<polygon fill="none" stroke="midnightblue" points="69.5001,-233.343 73,-243.343 76.5001,-233.343 69.5001,-233.343"/>
</g>
<!-- Node3 -->
<g id="node3" class="node"><title>Node3</title>
<g id="a_node3"><a xlink:href="classcbEventFunctor" target="_top" xlink:title="Event functor class. ">
<polygon fill="none" stroke="black" points="0,-0.5 0,-101.5 146,-101.5 146,-0.5 0,-0.5"/>
<text text-anchor="middle" x="73" y="-89.5" font-family="FreeSans" font-size="10.00">cbEventFunctor&lt; EventType &gt;</text>
<polyline fill="none" stroke="black" points="0,-82.5 146,-82.5 "/>
<text text-anchor="start" x="8" y="-70.5" font-family="FreeSans" font-size="10.00">&#45; m_pThis</text>
<text text-anchor="start" x="8" y="-59.5" font-family="FreeSans" font-size="10.00">&#45; m_pMember</text>
<polyline fill="none" stroke="black" points="0,-52.5 146,-52.5 "/>
<text text-anchor="start" x="8" y="-40.5" font-family="FreeSans" font-size="10.00">+ cbEventFunctor()</text>
<text text-anchor="start" x="8" y="-29.5" font-family="FreeSans" font-size="10.00">+ cbEventFunctor()</text>
<text text-anchor="start" x="8" y="-18.5" font-family="FreeSans" font-size="10.00">+ GetThis()</text>
<text text-anchor="start" x="8" y="-7.5" font-family="FreeSans" font-size="10.00">+ Call()</text>
</a>
</g>
</g>
<!-- Node2&#45;&gt;Node3 -->
<g id="edge2" class="edge"><title>Node2&#45;&gt;Node3</title>
<path fill="none" stroke="midnightblue" d="M73,-128.045C73,-119.469 73,-110.408 73,-101.646"/>
<polygon fill="none" stroke="midnightblue" points="69.5001,-128.213 73,-138.213 76.5001,-128.213 69.5001,-128.213"/>
</g>
</g>
</svg>
