<?xml version="1.0" encoding="UTF-8" standalone="no"?>
<!DOCTYPE svg PUBLIC "-//W3C//DTD SVG 1.1//EN"
 "http://www.w3.org/Graphics/SVG/1.1/DTD/svg11.dtd">
<!-- Generated by graphviz version 2.38.0 (20140413.2041)
 -->
<!-- Title: HTMLFileLogger Pages: 1 -->
<svg width="247pt" height="519pt"
 viewBox="0.00 0.00 247.00 519.00" xmlns="http://www.w3.org/2000/svg" xmlns:xlink="http://www.w3.org/1999/xlink">
<g id="graph0" class="graph" transform="scale(1 1) rotate(0) translate(4 515)">
<title>HTMLFileLogger</title>
<polygon fill="white" stroke="none" points="-4,4 -4,-515 243,-515 243,4 -4,4"/>
<!-- Node1 -->
<g id="node1" class="node"><title>Node1</title>
<polygon fill="#bfbfbf" stroke="black" points="107.5,-0.5 107.5,-101.5 209.5,-101.5 209.5,-0.5 107.5,-0.5"/>
<text text-anchor="middle" x="158.5" y="-89.5" font-family="FreeSans" font-size="10.00">HTMLFileLogger</text>
<polyline fill="none" stroke="black" points="107.5,-82.5 209.5,-82.5 "/>
<text text-anchor="middle" x="158.5" y="-70.5" font-family="FreeSans" font-size="10.00"> </text>
<polyline fill="none" stroke="black" points="107.5,-63.5 209.5,-63.5 "/>
<text text-anchor="start" x="115.5" y="-51.5" font-family="FreeSans" font-size="10.00">+ HTMLFileLogger()</text>
<text text-anchor="start" x="115.5" y="-40.5" font-family="FreeSans" font-size="10.00">+ SetCSS()</text>
<text text-anchor="start" x="115.5" y="-29.5" font-family="FreeSans" font-size="10.00">+ Append()</text>
<text text-anchor="start" x="115.5" y="-18.5" font-family="FreeSans" font-size="10.00">+ Open()</text>
<text text-anchor="start" x="115.5" y="-7.5" font-family="FreeSans" font-size="10.00">+ Close()</text>
</g>
<!-- Node2 -->
<g id="node2" class="node"><title>Node2</title>
<g id="a_node2"><a xlink:href="classFileLogger" target="_top" xlink:title="a logger which prints messages to a file ">
<polygon fill="white" stroke="black" points="39.5,-182.5 39.5,-283.5 115.5,-283.5 115.5,-182.5 39.5,-182.5"/>
<text text-anchor="middle" x="77.5" y="-271.5" font-family="FreeSans" font-size="10.00">FileLogger</text>
<polyline fill="none" stroke="black" points="39.5,-264.5 115.5,-264.5 "/>
<text text-anchor="start" x="47.5" y="-252.5" font-family="FreeSans" font-size="10.00"># f</text>
<polyline fill="none" stroke="black" points="39.5,-245.5 115.5,-245.5 "/>
<text text-anchor="start" x="47.5" y="-233.5" font-family="FreeSans" font-size="10.00">+ FileLogger()</text>
<text text-anchor="start" x="47.5" y="-222.5" font-family="FreeSans" font-size="10.00">+ FileLogger()</text>
<text text-anchor="start" x="47.5" y="-211.5" font-family="FreeSans" font-size="10.00">+ Append()</text>
<text text-anchor="start" x="47.5" y="-200.5" font-family="FreeSans" font-size="10.00">+ Open()</text>
<text text-anchor="start" x="47.5" y="-189.5" font-family="FreeSans" font-size="10.00">+ Close()</text>
</a>
</g>
</g>
<!-- Node2&#45;&gt;Node1 -->
<g id="edge1" class="edge"><title>Node2&#45;&gt;Node1</title>
<path fill="none" stroke="midnightblue" d="M104.061,-172.975C114.468,-149.848 126.274,-123.613 136.225,-101.5"/>
<polygon fill="none" stroke="midnightblue" points="100.76,-171.782 99.848,-182.338 107.143,-174.655 100.76,-171.782"/>
</g>
<!-- Node3 -->
<g id="node3" class="node"><title>Node3</title>
<g id="a_node3"><a xlink:href="classLogger" target="_top" xlink:title="The base class for all kinds of loggers, see loggers.h for its derived classes. ">
<polygon fill="white" stroke="black" points="0,-354.5 0,-510.5 155,-510.5 155,-354.5 0,-354.5"/>
<text text-anchor="middle" x="77.5" y="-498.5" font-family="FreeSans" font-size="10.00">Logger</text>
<polyline fill="none" stroke="black" points="0,-491.5 155,-491.5 "/>
<text text-anchor="middle" x="77.5" y="-479.5" font-family="FreeSans" font-size="10.00"> </text>
<polyline fill="none" stroke="black" points="0,-472.5 155,-472.5 "/>
<text text-anchor="start" x="8" y="-460.5" font-family="FreeSans" font-size="10.00">+ Logger()</text>
<text text-anchor="start" x="8" y="-449.5" font-family="FreeSans" font-size="10.00">+ ~Logger()</text>
<text text-anchor="start" x="8" y="-438.5" font-family="FreeSans" font-size="10.00">+ Append()</text>
<text text-anchor="start" x="8" y="-427.5" font-family="FreeSans" font-size="10.00">+ Clear()</text>
<text text-anchor="start" x="8" y="-416.5" font-family="FreeSans" font-size="10.00">+ CopyContentsToClipboard()</text>
<text text-anchor="start" x="8" y="-405.5" font-family="FreeSans" font-size="10.00">+ UpdateSettings()</text>
<text text-anchor="start" x="8" y="-394.5" font-family="FreeSans" font-size="10.00">+ CreateControl()</text>
<text text-anchor="start" x="8" y="-383.5" font-family="FreeSans" font-size="10.00">+ GetWrapMode()</text>
<text text-anchor="start" x="8" y="-372.5" font-family="FreeSans" font-size="10.00">+ HasFeature()</text>
<text text-anchor="start" x="8" y="-361.5" font-family="FreeSans" font-size="10.00">+ AppendAdditionalMenuItems()</text>
</a>
</g>
</g>
<!-- Node3&#45;&gt;Node2 -->
<g id="edge2" class="edge"><title>Node3&#45;&gt;Node2</title>
<path fill="none" stroke="midnightblue" d="M77.5,-344.164C77.5,-323.385 77.5,-301.924 77.5,-283.525"/>
<polygon fill="none" stroke="midnightblue" points="74.0001,-344.293 77.5,-354.293 81.0001,-344.293 74.0001,-344.293"/>
</g>
<!-- Node4 -->
<g id="node4" class="node"><title>Node4</title>
<g id="a_node4"><a xlink:href="structCSS" target="_top" xlink:title="Cascading Style Sheets class for HTML logger. ">
<polygon fill="white" stroke="black" points="134,-149.5 134,-316.5 239,-316.5 239,-149.5 134,-149.5"/>
<text text-anchor="middle" x="186.5" y="-304.5" font-family="FreeSans" font-size="10.00">CSS</text>
<polyline fill="none" stroke="black" points="134,-297.5 239,-297.5 "/>
<text text-anchor="start" x="142" y="-285.5" font-family="FreeSans" font-size="10.00">+ caption</text>
<text text-anchor="start" x="142" y="-274.5" font-family="FreeSans" font-size="10.00">+ info</text>
<text text-anchor="start" x="142" y="-263.5" font-family="FreeSans" font-size="10.00">+ warning</text>
<text text-anchor="start" x="142" y="-252.5" font-family="FreeSans" font-size="10.00">+ success</text>
<text text-anchor="start" x="142" y="-241.5" font-family="FreeSans" font-size="10.00">+ error</text>
<text text-anchor="start" x="142" y="-230.5" font-family="FreeSans" font-size="10.00">+ critical</text>
<text text-anchor="start" x="142" y="-219.5" font-family="FreeSans" font-size="10.00">+ failure</text>
<text text-anchor="start" x="142" y="-208.5" font-family="FreeSans" font-size="10.00">+ pagetitle</text>
<text text-anchor="start" x="142" y="-197.5" font-family="FreeSans" font-size="10.00">+ spacer</text>
<text text-anchor="start" x="142" y="-186.5" font-family="FreeSans" font-size="10.00">+ asterisk</text>
<polyline fill="none" stroke="black" points="134,-179.5 239,-179.5 "/>
<text text-anchor="start" x="142" y="-167.5" font-family="FreeSans" font-size="10.00">+ CSS()</text>
<text text-anchor="start" x="142" y="-156.5" font-family="FreeSans" font-size="10.00">+ operator wxString()</text>
</a>
</g>
</g>
<!-- Node4&#45;&gt;Node1 -->
<g id="edge3" class="edge"><title>Node4&#45;&gt;Node1</title>
<path fill="none" stroke="#404040" d="M173.647,-149.375C171.779,-137.362 169.882,-125.173 168.093,-113.671"/>
<polygon fill="none" stroke="#404040" points="168.045,-113.358 163.17,-108.044 166.2,-101.5 171.075,-106.814 168.045,-113.358"/>
<text text-anchor="middle" x="180.5" y="-123" font-family="FreeSans" font-size="10.00"> &#45;css</text>
</g>
</g>
</svg>
