<?xml version="1.0" encoding="UTF-8" standalone="no"?>
<!DOCTYPE svg PUBLIC "-//W3C//DTD SVG 1.1//EN"
 "http://www.w3.org/Graphics/SVG/1.1/DTD/svg11.dtd">
<!-- Generated by graphviz version 2.38.0 (20140413.2041)
 -->
<!-- Title: ProjectFileOptionsDlg Pages: 1 -->
<svg width="242pt" height="716pt"
 viewBox="0.00 0.00 242.00 716.00" xmlns="http://www.w3.org/2000/svg" xmlns:xlink="http://www.w3.org/1999/xlink">
<g id="graph0" class="graph" transform="scale(1 1) rotate(0) translate(4 712)">
<title>ProjectFileOptionsDlg</title>
<polygon fill="white" stroke="none" points="-4,4 -4,-712 238,-712 238,4 -4,4"/>
<!-- Node1 -->
<g id="node1" class="node"><title>Node1</title>
<polygon fill="#bfbfbf" stroke="black" points="12.5,-0.5 12.5,-211.5 168.5,-211.5 168.5,-0.5 12.5,-0.5"/>
<text text-anchor="middle" x="90.5" y="-199.5" font-family="FreeSans" font-size="10.00">ProjectFileOptionsDlg</text>
<polyline fill="none" stroke="black" points="12.5,-192.5 168.5,-192.5 "/>
<text text-anchor="start" x="20.5" y="-180.5" font-family="FreeSans" font-size="10.00">&#45; m_ProjectFile</text>
<text text-anchor="start" x="20.5" y="-169.5" font-family="FreeSans" font-size="10.00">&#45; m_FileNameStr</text>
<text text-anchor="start" x="20.5" y="-158.5" font-family="FreeSans" font-size="10.00">&#45; m_FileName</text>
<text text-anchor="start" x="20.5" y="-147.5" font-family="FreeSans" font-size="10.00">&#45; m_LastBuildStageCompilerSel</text>
<polyline fill="none" stroke="black" points="12.5,-140.5 168.5,-140.5 "/>
<text text-anchor="start" x="20.5" y="-128.5" font-family="FreeSans" font-size="10.00">+ ProjectFileOptionsDlg()</text>
<text text-anchor="start" x="20.5" y="-117.5" font-family="FreeSans" font-size="10.00">+ ProjectFileOptionsDlg()</text>
<text text-anchor="start" x="20.5" y="-106.5" font-family="FreeSans" font-size="10.00">+ ~ProjectFileOptionsDlg()</text>
<text text-anchor="start" x="20.5" y="-95.5" font-family="FreeSans" font-size="10.00">+ OnReadOnlyCheck()</text>
<text text-anchor="start" x="20.5" y="-84.5" font-family="FreeSans" font-size="10.00">+ OnCompilerCombo()</text>
<text text-anchor="start" x="20.5" y="-73.5" font-family="FreeSans" font-size="10.00">+ OnUpdateUI()</text>
<text text-anchor="start" x="20.5" y="-62.5" font-family="FreeSans" font-size="10.00">+ EndModal()</text>
<text text-anchor="start" x="20.5" y="-51.5" font-family="FreeSans" font-size="10.00">&#45; FillGeneralProperties()</text>
<text text-anchor="start" x="20.5" y="-40.5" font-family="FreeSans" font-size="10.00">&#45; FillCompilers()</text>
<text text-anchor="start" x="20.5" y="-29.5" font-family="FreeSans" font-size="10.00">&#45; UpdateBuildCommand()</text>
<text text-anchor="start" x="20.5" y="-18.5" font-family="FreeSans" font-size="10.00">&#45; SaveBuildCommandSelection()</text>
<text text-anchor="start" x="20.5" y="-7.5" font-family="FreeSans" font-size="10.00">&#45; ToggleFileReadOnly()</text>
</g>
<!-- Node2 -->
<g id="node2" class="node"><title>Node2</title>
<g id="a_node2"><a xlink:href="classwxScrollingDialog.xhtml" target="_top" xlink:title="{wxScrollingDialog\n||+ wxScrollingDialog()\l+ wxScrollingDialog()\l+ Create()\l+ Init()\l+ Show()\l+ ShowModal()\l}">
<polygon fill="white" stroke="black" points="37,-248.5 37,-360.5 144,-360.5 144,-248.5 37,-248.5"/>
<text text-anchor="middle" x="90.5" y="-348.5" font-family="FreeSans" font-size="10.00">wxScrollingDialog</text>
<polyline fill="none" stroke="black" points="37,-341.5 144,-341.5 "/>
<text text-anchor="middle" x="90.5" y="-329.5" font-family="FreeSans" font-size="10.00"> </text>
<polyline fill="none" stroke="black" points="37,-322.5 144,-322.5 "/>
<text text-anchor="start" x="45" y="-310.5" font-family="FreeSans" font-size="10.00">+ wxScrollingDialog()</text>
<text text-anchor="start" x="45" y="-299.5" font-family="FreeSans" font-size="10.00">+ wxScrollingDialog()</text>
<text text-anchor="start" x="45" y="-288.5" font-family="FreeSans" font-size="10.00">+ Create()</text>
<text text-anchor="start" x="45" y="-277.5" font-family="FreeSans" font-size="10.00">+ Init()</text>
<text text-anchor="start" x="45" y="-266.5" font-family="FreeSans" font-size="10.00">+ Show()</text>
<text text-anchor="start" x="45" y="-255.5" font-family="FreeSans" font-size="10.00">+ ShowModal()</text>
</a>
</g>
</g>
<!-- Node2&#45;&gt;Node1 -->
<g id="edge1" class="edge"><title>Node2&#45;&gt;Node1</title>
<path fill="none" stroke="midnightblue" d="M90.5,-238.075C90.5,-229.573 90.5,-220.701 90.5,-211.757"/>
<polygon fill="none" stroke="midnightblue" points="87.0001,-238.241 90.5,-248.241 94.0001,-238.241 87.0001,-238.241"/>
</g>
<!-- Node3 -->
<g id="node3" class="node"><title>Node3</title>
<polygon fill="white" stroke="#bfbfbf" points="0,-524 0,-581 55,-581 55,-524 0,-524"/>
<text text-anchor="middle" x="27.5" y="-569" font-family="FreeSans" font-size="10.00">wxDialog</text>
<polyline fill="none" stroke="#bfbfbf" points="0,-562 55,-562 "/>
<text text-anchor="middle" x="27.5" y="-550" font-family="FreeSans" font-size="10.00"> </text>
<polyline fill="none" stroke="#bfbfbf" points="0,-543 55,-543 "/>
<text text-anchor="middle" x="27.5" y="-531" font-family="FreeSans" font-size="10.00"> </text>
</g>
<!-- Node3&#45;&gt;Node2 -->
<g id="edge2" class="edge"><title>Node3&#45;&gt;Node2</title>
<path fill="none" stroke="midnightblue" d="M35.6671,-513.691C42.5977,-482.318 53.054,-436.597 63.5,-397 66.6264,-385.149 70.2013,-372.504 73.7043,-360.514"/>
<polygon fill="none" stroke="midnightblue" points="32.1844,-513.232 33.457,-523.75 39.0213,-514.734 32.1844,-513.232"/>
</g>
<!-- Node4 -->
<g id="node4" class="node"><title>Node4</title>
<g id="a_node4"><a xlink:href="classwxDialogHelper.xhtml" target="_top" xlink:title="{wxDialogHelper\n|# m_dialog\l# m_layoutLayoutAdaptationDone\l# m_buttonIds\l# m_layoutAdaptationLevel\l# sm_layoutAdapter\l# sm_layoutAdaptation\l|+ wxDialogHelper()\l+ ~wxDialogHelper()\l+ Init()\l+ SetDialog()\l+ GetDialog()\l+ DoLayoutAdaptation()\l+ CanDoLayoutAdaptation()\l+ GetContentWindow()\l+ AddButtonId()\l+ GetButtonIds()\l+ IsUserButtonId()\l+ SetLayoutAdaptationLevel()\l+ GetLayoutAdaptationLevel()\l+ SetLayoutAdaptationDone()\l+ GetLayoutAdaptationDone()\l+ SetLayoutAdapter()\l+ GetLayoutAdapter()\l+ GetLayoutAdaptation()\l+ SetLayoutAdaptation()\l}">
<polygon fill="white" stroke="black" points="73,-397.5 73,-707.5 234,-707.5 234,-397.5 73,-397.5"/>
<text text-anchor="middle" x="153.5" y="-695.5" font-family="FreeSans" font-size="10.00">wxDialogHelper</text>
<polyline fill="none" stroke="black" points="73,-688.5 234,-688.5 "/>
<text text-anchor="start" x="81" y="-676.5" font-family="FreeSans" font-size="10.00"># m_dialog</text>
<text text-anchor="start" x="81" y="-665.5" font-family="FreeSans" font-size="10.00"># m_layoutLayoutAdaptationDone</text>
<text text-anchor="start" x="81" y="-654.5" font-family="FreeSans" font-size="10.00"># m_buttonIds</text>
<text text-anchor="start" x="81" y="-643.5" font-family="FreeSans" font-size="10.00"># m_layoutAdaptationLevel</text>
<text text-anchor="start" x="81" y="-632.5" font-family="FreeSans" font-size="10.00"># sm_layoutAdapter</text>
<text text-anchor="start" x="81" y="-621.5" font-family="FreeSans" font-size="10.00"># sm_layoutAdaptation</text>
<polyline fill="none" stroke="black" points="73,-614.5 234,-614.5 "/>
<text text-anchor="start" x="81" y="-602.5" font-family="FreeSans" font-size="10.00">+ wxDialogHelper()</text>
<text text-anchor="start" x="81" y="-591.5" font-family="FreeSans" font-size="10.00">+ ~wxDialogHelper()</text>
<text text-anchor="start" x="81" y="-580.5" font-family="FreeSans" font-size="10.00">+ Init()</text>
<text text-anchor="start" x="81" y="-569.5" font-family="FreeSans" font-size="10.00">+ SetDialog()</text>
<text text-anchor="start" x="81" y="-558.5" font-family="FreeSans" font-size="10.00">+ GetDialog()</text>
<text text-anchor="start" x="81" y="-547.5" font-family="FreeSans" font-size="10.00">+ DoLayoutAdaptation()</text>
<text text-anchor="start" x="81" y="-536.5" font-family="FreeSans" font-size="10.00">+ CanDoLayoutAdaptation()</text>
<text text-anchor="start" x="81" y="-525.5" font-family="FreeSans" font-size="10.00">+ GetContentWindow()</text>
<text text-anchor="start" x="81" y="-514.5" font-family="FreeSans" font-size="10.00">+ AddButtonId()</text>
<text text-anchor="start" x="81" y="-503.5" font-family="FreeSans" font-size="10.00">+ GetButtonIds()</text>
<text text-anchor="start" x="81" y="-492.5" font-family="FreeSans" font-size="10.00">+ IsUserButtonId()</text>
<text text-anchor="start" x="81" y="-481.5" font-family="FreeSans" font-size="10.00">+ SetLayoutAdaptationLevel()</text>
<text text-anchor="start" x="81" y="-470.5" font-family="FreeSans" font-size="10.00">+ GetLayoutAdaptationLevel()</text>
<text text-anchor="start" x="81" y="-459.5" font-family="FreeSans" font-size="10.00">+ SetLayoutAdaptationDone()</text>
<text text-anchor="start" x="81" y="-448.5" font-family="FreeSans" font-size="10.00">+ GetLayoutAdaptationDone()</text>
<text text-anchor="start" x="81" y="-437.5" font-family="FreeSans" font-size="10.00">+ SetLayoutAdapter()</text>
<text text-anchor="start" x="81" y="-426.5" font-family="FreeSans" font-size="10.00">+ GetLayoutAdapter()</text>
<text text-anchor="start" x="81" y="-415.5" font-family="FreeSans" font-size="10.00">+ GetLayoutAdaptation()</text>
<text text-anchor="start" x="81" y="-404.5" font-family="FreeSans" font-size="10.00">+ SetLayoutAdaptation()</text>
</a>
</g>
</g>
<!-- Node4&#45;&gt;Node2 -->
<g id="edge3" class="edge"><title>Node4&#45;&gt;Node2</title>
<path fill="none" stroke="midnightblue" d="M111.506,-387.525C109.097,-378.115 106.779,-369.066 104.62,-360.637"/>
<polygon fill="none" stroke="midnightblue" points="108.177,-388.632 114.048,-397.451 114.958,-386.895 108.177,-388.632"/>
</g>
</g>
</svg>
