<?xml version="1.0" encoding="UTF-8" standalone="no"?>
<!DOCTYPE svg PUBLIC "-//W3C//DTD SVG 1.1//EN"
 "http://www.w3.org/Graphics/SVG/1.1/DTD/svg11.dtd">
<!-- Generated by graphviz version 2.38.0 (20140413.2041)
 -->
<!-- Title: CompilerGNUARM Pages: 1 -->
<svg width="696pt" height="1224pt"
 viewBox="0.00 0.00 695.50 1224.00" xmlns="http://www.w3.org/2000/svg" xmlns:xlink="http://www.w3.org/1999/xlink">
<g id="graph0" class="graph" transform="scale(1 1) rotate(0) translate(4 1220)">
<title>CompilerGNUARM</title>
<polygon fill="white" stroke="none" points="-4,4 -4,-1220 691.5,-1220 691.5,4 -4,4"/>
<!-- Node1 -->
<g id="node1" class="node"><title>Node1</title>
<polygon fill="#bfbfbf" stroke="black" points="253.5,-0.5 253.5,-90.5 391.5,-90.5 391.5,-0.5 253.5,-0.5"/>
<text text-anchor="middle" x="322.5" y="-78.5" font-family="FreeSans" font-size="10.00">CompilerGNUARM</text>
<polyline fill="none" stroke="black" points="253.5,-71.5 391.5,-71.5 "/>
<text text-anchor="middle" x="322.5" y="-59.5" font-family="FreeSans" font-size="10.00"> </text>
<polyline fill="none" stroke="black" points="253.5,-52.5 391.5,-52.5 "/>
<text text-anchor="start" x="261.5" y="-40.5" font-family="FreeSans" font-size="10.00">+ CompilerGNUARM()</text>
<text text-anchor="start" x="261.5" y="-29.5" font-family="FreeSans" font-size="10.00">+ ~CompilerGNUARM()</text>
<text text-anchor="start" x="261.5" y="-18.5" font-family="FreeSans" font-size="10.00">+ AutoDetectInstallationDir()</text>
<text text-anchor="start" x="261.5" y="-7.5" font-family="FreeSans" font-size="10.00"># CreateCopy()</text>
</g>
<!-- Node2 -->
<g id="node2" class="node"><title>Node2</title>
<g id="a_node2"><a xlink:href="classCompiler.xhtml" target="_top" xlink:title="Abstract base class for compilers. ">
<polygon fill="white" stroke="black" points="245,-128.5 245,-570.5 400,-570.5 400,-128.5 245,-128.5"/>
<text text-anchor="middle" x="322.5" y="-558.5" font-family="FreeSans" font-size="10.00">Compiler</text>
<polyline fill="none" stroke="black" points="245,-551.5 400,-551.5 "/>
<text text-anchor="start" x="253" y="-539.5" font-family="FreeSans" font-size="10.00">+ FilePathWithSpaces</text>
<text text-anchor="start" x="253" y="-528.5" font-family="FreeSans" font-size="10.00">+ CommandTypeDescriptions</text>
<text text-anchor="start" x="253" y="-517.5" font-family="FreeSans" font-size="10.00"># m_Name</text>
<text text-anchor="start" x="253" y="-506.5" font-family="FreeSans" font-size="10.00"># m_MasterPath</text>
<text text-anchor="start" x="253" y="-495.5" font-family="FreeSans" font-size="10.00"># m_ExtraPaths</text>
<text text-anchor="start" x="253" y="-484.5" font-family="FreeSans" font-size="10.00"># m_RegExes</text>
<text text-anchor="start" x="253" y="-473.5" font-family="FreeSans" font-size="10.00"># m_ErrorFilename</text>
<text text-anchor="start" x="253" y="-462.5" font-family="FreeSans" font-size="10.00"># m_ErrorLine</text>
<text text-anchor="start" x="253" y="-451.5" font-family="FreeSans" font-size="10.00"># m_Error</text>
<text text-anchor="start" x="253" y="-440.5" font-family="FreeSans" font-size="10.00"># m_VersionString</text>
<text text-anchor="start" x="253" y="-429.5" font-family="FreeSans" font-size="10.00"># m_SortOptions</text>
<text text-anchor="start" x="253" y="-418.5" font-family="FreeSans" font-size="10.00"># m_Weight</text>
<text text-anchor="start" x="253" y="-407.5" font-family="FreeSans" font-size="10.00">&#45; m_ID</text>
<text text-anchor="start" x="253" y="-396.5" font-family="FreeSans" font-size="10.00">&#45; m_ParentID</text>
<text text-anchor="start" x="253" y="-385.5" font-family="FreeSans" font-size="10.00">&#45; m_Valid</text>
<text text-anchor="start" x="253" y="-374.5" font-family="FreeSans" font-size="10.00">&#45; m_NeedValidityCheck</text>
<text text-anchor="start" x="253" y="-363.5" font-family="FreeSans" font-size="10.00">&#45; m_Mirrored</text>
<text text-anchor="start" x="253" y="-352.5" font-family="FreeSans" font-size="10.00">&#45; m_CompilerIDs</text>
<polyline fill="none" stroke="black" points="245,-345.5 400,-345.5 "/>
<text text-anchor="start" x="253" y="-333.5" font-family="FreeSans" font-size="10.00">+ Compiler()</text>
<text text-anchor="start" x="253" y="-322.5" font-family="FreeSans" font-size="10.00">+ ~Compiler()</text>
<text text-anchor="start" x="253" y="-311.5" font-family="FreeSans" font-size="10.00">+ IsValid()</text>
<text text-anchor="start" x="253" y="-300.5" font-family="FreeSans" font-size="10.00">+ CheckForWarningsAndErrors()</text>
<text text-anchor="start" x="253" y="-289.5" font-family="FreeSans" font-size="10.00">+ GetLastErrorFilename()</text>
<text text-anchor="start" x="253" y="-278.5" font-family="FreeSans" font-size="10.00">+ GetLastErrorLine()</text>
<text text-anchor="start" x="253" y="-267.5" font-family="FreeSans" font-size="10.00">+ GetLastError()</text>
<text text-anchor="start" x="253" y="-256.5" font-family="FreeSans" font-size="10.00">+ GetName()</text>
<text text-anchor="start" x="253" y="-245.5" font-family="FreeSans" font-size="10.00">and 31 more...</text>
<text text-anchor="start" x="253" y="-234.5" font-family="FreeSans" font-size="10.00"># Compiler()</text>
<text text-anchor="start" x="253" y="-223.5" font-family="FreeSans" font-size="10.00"># CreateCopy()</text>
<text text-anchor="start" x="253" y="-212.5" font-family="FreeSans" font-size="10.00"># IsUniqueID()</text>
<text text-anchor="start" x="253" y="-201.5" font-family="FreeSans" font-size="10.00"># MakeValidID()</text>
<text text-anchor="start" x="253" y="-190.5" font-family="FreeSans" font-size="10.00"># LoadDefaultOptions()</text>
<text text-anchor="start" x="253" y="-179.5" font-family="FreeSans" font-size="10.00"># LoadRegExArray()</text>
<text text-anchor="start" x="253" y="-168.5" font-family="FreeSans" font-size="10.00"># EvalXMLCondition()</text>
<text text-anchor="start" x="253" y="-157.5" font-family="FreeSans" font-size="10.00"># GetExecName()</text>
<text text-anchor="start" x="253" y="-146.5" font-family="FreeSans" font-size="10.00"># MirrorCurrentSettings()</text>
<text text-anchor="start" x="253" y="-135.5" font-family="FreeSans" font-size="10.00"># CompileRegExArray()</text>
</a>
</g>
</g>
<!-- Node2&#45;&gt;Node1 -->
<g id="edge1" class="edge"><title>Node2&#45;&gt;Node1</title>
<path fill="none" stroke="midnightblue" d="M322.5,-118.21C322.5,-108.392 322.5,-99.1992 322.5,-90.8862"/>
<polygon fill="none" stroke="midnightblue" points="319,-118.226 322.5,-128.226 326,-118.226 319,-118.226"/>
</g>
<!-- Node3 -->
<g id="node3" class="node"><title>Node3</title>
<g id="a_node3"><a xlink:href="classCompileOptionsBase.xhtml" target="_top" xlink:title="{CompileOptionsBase\n|# m_Platform\l# m_LinkerOptions\l# m_LinkLibs\l# m_CompilerOptions\l# m_ResourceCompilerOptions\l# m_IncludeDirs\l# m_ResIncludeDirs\l# m_LibDirs\land 6 more...\l|+ CompileOptionsBase()\l+ ~CompileOptionsBase()\l+ AddPlatform()\l+ RemovePlatform()\l+ SetPlatforms()\l+ GetPlatforms()\l+ SupportsCurrentPlatform()\l+ SetLinkerOptions()\land 56 more...\l}">
<polygon fill="white" stroke="black" points="0,-618.5 0,-851.5 149,-851.5 149,-618.5 0,-618.5"/>
<text text-anchor="middle" x="74.5" y="-839.5" font-family="FreeSans" font-size="10.00">CompileOptionsBase</text>
<polyline fill="none" stroke="black" points="0,-832.5 149,-832.5 "/>
<text text-anchor="start" x="8" y="-820.5" font-family="FreeSans" font-size="10.00"># m_Platform</text>
<text text-anchor="start" x="8" y="-809.5" font-family="FreeSans" font-size="10.00"># m_LinkerOptions</text>
<text text-anchor="start" x="8" y="-798.5" font-family="FreeSans" font-size="10.00"># m_LinkLibs</text>
<text text-anchor="start" x="8" y="-787.5" font-family="FreeSans" font-size="10.00"># m_CompilerOptions</text>
<text text-anchor="start" x="8" y="-776.5" font-family="FreeSans" font-size="10.00"># m_ResourceCompilerOptions</text>
<text text-anchor="start" x="8" y="-765.5" font-family="FreeSans" font-size="10.00"># m_IncludeDirs</text>
<text text-anchor="start" x="8" y="-754.5" font-family="FreeSans" font-size="10.00"># m_ResIncludeDirs</text>
<text text-anchor="start" x="8" y="-743.5" font-family="FreeSans" font-size="10.00"># m_LibDirs</text>
<text text-anchor="start" x="8" y="-732.5" font-family="FreeSans" font-size="10.00">and 6 more...</text>
<polyline fill="none" stroke="black" points="0,-725.5 149,-725.5 "/>
<text text-anchor="start" x="8" y="-713.5" font-family="FreeSans" font-size="10.00">+ CompileOptionsBase()</text>
<text text-anchor="start" x="8" y="-702.5" font-family="FreeSans" font-size="10.00">+ ~CompileOptionsBase()</text>
<text text-anchor="start" x="8" y="-691.5" font-family="FreeSans" font-size="10.00">+ AddPlatform()</text>
<text text-anchor="start" x="8" y="-680.5" font-family="FreeSans" font-size="10.00">+ RemovePlatform()</text>
<text text-anchor="start" x="8" y="-669.5" font-family="FreeSans" font-size="10.00">+ SetPlatforms()</text>
<text text-anchor="start" x="8" y="-658.5" font-family="FreeSans" font-size="10.00">+ GetPlatforms()</text>
<text text-anchor="start" x="8" y="-647.5" font-family="FreeSans" font-size="10.00">+ SupportsCurrentPlatform()</text>
<text text-anchor="start" x="8" y="-636.5" font-family="FreeSans" font-size="10.00">+ SetLinkerOptions()</text>
<text text-anchor="start" x="8" y="-625.5" font-family="FreeSans" font-size="10.00">and 56 more...</text>
</a>
</g>
</g>
<!-- Node3&#45;&gt;Node2 -->
<g id="edge2" class="edge"><title>Node3&#45;&gt;Node2</title>
<path fill="none" stroke="midnightblue" d="M154.619,-610.106C183.532,-565.397 216.098,-515.036 244.801,-470.652"/>
<polygon fill="none" stroke="midnightblue" points="151.568,-608.38 149.076,-618.677 157.446,-612.181 151.568,-608.38"/>
</g>
<!-- Node4 -->
<g id="node4" class="node"><title>Node4</title>
<g id="a_node4"><a xlink:href="classCompiler.xhtml#structCompiler_1_1MirrorSettings" target="_top" xlink:title="{Compiler::MirrorSettings\n|+ Name\l+ MasterPath\l+ ExtraPaths\l+ CompilerOptions_\l+ LinkerOptions\l+ IncludeDirs\l+ ResIncludeDirs\l+ LibDirs\land 5 more...\l|}">
<polygon fill="white" stroke="black" points="355,-662.5 355,-807.5 474,-807.5 474,-662.5 355,-662.5"/>
<text text-anchor="middle" x="414.5" y="-795.5" font-family="FreeSans" font-size="10.00">Compiler::MirrorSettings</text>
<polyline fill="none" stroke="black" points="355,-788.5 474,-788.5 "/>
<text text-anchor="start" x="363" y="-776.5" font-family="FreeSans" font-size="10.00">+ Name</text>
<text text-anchor="start" x="363" y="-765.5" font-family="FreeSans" font-size="10.00">+ MasterPath</text>
<text text-anchor="start" x="363" y="-754.5" font-family="FreeSans" font-size="10.00">+ ExtraPaths</text>
<text text-anchor="start" x="363" y="-743.5" font-family="FreeSans" font-size="10.00">+ CompilerOptions_</text>
<text text-anchor="start" x="363" y="-732.5" font-family="FreeSans" font-size="10.00">+ LinkerOptions</text>
<text text-anchor="start" x="363" y="-721.5" font-family="FreeSans" font-size="10.00">+ IncludeDirs</text>
<text text-anchor="start" x="363" y="-710.5" font-family="FreeSans" font-size="10.00">+ ResIncludeDirs</text>
<text text-anchor="start" x="363" y="-699.5" font-family="FreeSans" font-size="10.00">+ LibDirs</text>
<text text-anchor="start" x="363" y="-688.5" font-family="FreeSans" font-size="10.00">and 5 more...</text>
<polyline fill="none" stroke="black" points="355,-681.5 474,-681.5 "/>
<text text-anchor="middle" x="414.5" y="-669.5" font-family="FreeSans" font-size="10.00"> </text>
</a>
</g>
</g>
<!-- Node4&#45;&gt;Node2 -->
<g id="edge3" class="edge"><title>Node4&#45;&gt;Node2</title>
<path fill="none" stroke="#404040" d="M397.303,-662.316C391.681,-638.88 385.098,-611.439 378.211,-582.729"/>
<polygon fill="none" stroke="#404040" points="378.148,-582.467 372.859,-577.565 375.348,-570.798 380.638,-575.699 378.148,-582.467"/>
<text text-anchor="middle" x="404.5" y="-592" font-family="FreeSans" font-size="10.00"> &#45;m_Mirror</text>
</g>
<!-- Node5 -->
<g id="node5" class="node"><title>Node5</title>
<g id="a_node5"><a xlink:href="classCompilerOptions.xhtml" target="_top" xlink:title="{CompilerOptions\n|&#45; m_Options\l|+ CompilerOptions()\l+ CompilerOptions()\l+ operator=()\l+ ~CompilerOptions()\l+ ClearOptions()\l+ AddOption()\l+ AddOption()\l+ RemoveOption()\land 5 more...\l}">
<polygon fill="white" stroke="black" points="279,-905 279,-1050 386,-1050 386,-905 279,-905"/>
<text text-anchor="middle" x="332.5" y="-1038" font-family="FreeSans" font-size="10.00">CompilerOptions</text>
<polyline fill="none" stroke="black" points="279,-1031 386,-1031 "/>
<text text-anchor="start" x="287" y="-1019" font-family="FreeSans" font-size="10.00">&#45; m_Options</text>
<polyline fill="none" stroke="black" points="279,-1012 386,-1012 "/>
<text text-anchor="start" x="287" y="-1000" font-family="FreeSans" font-size="10.00">+ CompilerOptions()</text>
<text text-anchor="start" x="287" y="-989" font-family="FreeSans" font-size="10.00">+ CompilerOptions()</text>
<text text-anchor="start" x="287" y="-978" font-family="FreeSans" font-size="10.00">+ operator=()</text>
<text text-anchor="start" x="287" y="-967" font-family="FreeSans" font-size="10.00">+ ~CompilerOptions()</text>
<text text-anchor="start" x="287" y="-956" font-family="FreeSans" font-size="10.00">+ ClearOptions()</text>
<text text-anchor="start" x="287" y="-945" font-family="FreeSans" font-size="10.00">+ AddOption()</text>
<text text-anchor="start" x="287" y="-934" font-family="FreeSans" font-size="10.00">+ AddOption()</text>
<text text-anchor="start" x="287" y="-923" font-family="FreeSans" font-size="10.00">+ RemoveOption()</text>
<text text-anchor="start" x="287" y="-912" font-family="FreeSans" font-size="10.00">and 5 more...</text>
</a>
</g>
</g>
<!-- Node5&#45;&gt;Node2 -->
<g id="edge9" class="edge"><title>Node5&#45;&gt;Node2</title>
<path fill="none" stroke="#404040" d="M303.893,-904.767C298.342,-887.738 293.363,-869.445 290.5,-852 276.176,-764.727 278.214,-667.933 285.902,-582.844"/>
<polygon fill="none" stroke="#404040" points="285.925,-582.595 282.505,-576.246 287.049,-570.647 290.47,-576.996 285.925,-582.595"/>
<text text-anchor="middle" x="318" y="-732.5" font-family="FreeSans" font-size="10.00"> #m_Options</text>
</g>
<!-- Node5&#45;&gt;Node4 -->
<g id="edge4" class="edge"><title>Node5&#45;&gt;Node4</title>
<path fill="none" stroke="#404040" d="M356.881,-904.993C366.092,-877.977 376.651,-847.009 386.192,-819.025"/>
<polygon fill="none" stroke="#404040" points="386.199,-819.005 384.349,-812.035 390.072,-807.647 391.921,-814.616 386.199,-819.005"/>
<text text-anchor="middle" x="390.5" y="-873" font-family="FreeSans" font-size="10.00"> +Options</text>
</g>
<!-- Node6 -->
<g id="node6" class="node"><title>Node6</title>
<g id="a_node6"><a xlink:href="structCompilerSwitches.xhtml" target="_top" xlink:title="Struct to keep switches. ">
<polygon fill="white" stroke="black" points="135.5,-899.5 135.5,-1055.5 255.5,-1055.5 255.5,-899.5 135.5,-899.5"/>
<text text-anchor="middle" x="195.5" y="-1043.5" font-family="FreeSans" font-size="10.00">CompilerSwitches</text>
<polyline fill="none" stroke="black" points="135.5,-1036.5 255.5,-1036.5 "/>
<text text-anchor="start" x="143.5" y="-1024.5" font-family="FreeSans" font-size="10.00">+ includeDirs</text>
<text text-anchor="start" x="143.5" y="-1013.5" font-family="FreeSans" font-size="10.00">+ libDirs</text>
<text text-anchor="start" x="143.5" y="-1002.5" font-family="FreeSans" font-size="10.00">+ linkLibs</text>
<text text-anchor="start" x="143.5" y="-991.5" font-family="FreeSans" font-size="10.00">+ defines</text>
<text text-anchor="start" x="143.5" y="-980.5" font-family="FreeSans" font-size="10.00">+ genericSwitch</text>
<text text-anchor="start" x="143.5" y="-969.5" font-family="FreeSans" font-size="10.00">+ objectExtension</text>
<text text-anchor="start" x="143.5" y="-958.5" font-family="FreeSans" font-size="10.00">+ forceFwdSlashes</text>
<text text-anchor="start" x="143.5" y="-947.5" font-family="FreeSans" font-size="10.00">+ forceLinkerUseQuotes</text>
<text text-anchor="start" x="143.5" y="-936.5" font-family="FreeSans" font-size="10.00">and 17 more...</text>
<text text-anchor="start" x="143.5" y="-925.5" font-family="FreeSans" font-size="10.00">+ defaultLogging</text>
<polyline fill="none" stroke="black" points="135.5,-918.5 255.5,-918.5 "/>
<text text-anchor="start" x="143.5" y="-906.5" font-family="FreeSans" font-size="10.00">+ CompilerSwitches()</text>
</a>
</g>
</g>
<!-- Node6&#45;&gt;Node2 -->
<g id="edge10" class="edge"><title>Node6&#45;&gt;Node2</title>
<path fill="none" stroke="#404040" d="M192.648,-899.292C191.615,-826.017 194.389,-713.245 215.5,-618 221.779,-589.673 230.706,-560.449 240.759,-532.188"/>
<polygon fill="none" stroke="#404040" points="240.882,-531.848 239.168,-524.843 244.974,-520.567 246.688,-527.571 240.882,-531.848"/>
<text text-anchor="middle" x="246" y="-732.5" font-family="FreeSans" font-size="10.00"> #m_Switches</text>
</g>
<!-- Node6&#45;&gt;Node4 -->
<g id="edge5" class="edge"><title>Node6&#45;&gt;Node4</title>
<path fill="none" stroke="#404040" d="M255.833,-911.103C260.353,-906.895 264.934,-902.82 269.5,-899 276.757,-892.93 333.867,-858.746 340.5,-852 350.575,-841.753 360.001,-829.917 368.527,-817.804"/>
<polygon fill="none" stroke="#404040" points="368.723,-817.515 368.79,-810.305 375.472,-807.593 375.405,-814.804 368.723,-817.515"/>
<text text-anchor="middle" x="337.5" y="-873" font-family="FreeSans" font-size="10.00"> +Switches</text>
</g>
<!-- Node7 -->
<g id="node7" class="node"><title>Node7</title>
<polygon fill="white" stroke="#bfbfbf" points="541.5,-949 541.5,-1006 675.5,-1006 675.5,-949 541.5,-949"/>
<text text-anchor="middle" x="608.5" y="-994" font-family="FreeSans" font-size="10.00">std::vector&lt; CompilerTool &gt;</text>
<polyline fill="none" stroke="#bfbfbf" points="541.5,-987 675.5,-987 "/>
<text text-anchor="middle" x="608.5" y="-975" font-family="FreeSans" font-size="10.00"> </text>
<polyline fill="none" stroke="#bfbfbf" points="541.5,-968 675.5,-968 "/>
<text text-anchor="middle" x="608.5" y="-956" font-family="FreeSans" font-size="10.00"> </text>
</g>
<!-- Node7&#45;&gt;Node2 -->
<g id="edge11" class="edge"><title>Node7&#45;&gt;Node2</title>
<path fill="none" stroke="#404040" d="M611.962,-948.891C618.539,-886.64 627.946,-731.894 576.5,-618 539.727,-536.592 467.62,-464.482 409.601,-415.706"/>
<polygon fill="none" stroke="#404040" points="409.284,-415.443 402.113,-414.689 400.05,-407.779 407.222,-408.533 409.284,-415.443"/>
<text text-anchor="middle" x="652.5" y="-732.5" font-family="FreeSans" font-size="10.00"> #m_Commands</text>
</g>
<!-- Node7&#45;&gt;Node4 -->
<g id="edge6" class="edge"><title>Node7&#45;&gt;Node4</title>
<path fill="none" stroke="#404040" d="M578.658,-948.816C553.266,-924.522 516.558,-887.604 488.5,-852 480.095,-841.334 471.773,-829.685 463.913,-818.016"/>
<polygon fill="none" stroke="#404040" points="463.76,-817.784 457.112,-814.991 457.134,-807.78 463.782,-810.573 463.76,-817.784"/>
<text text-anchor="middle" x="542.5" y="-873" font-family="FreeSans" font-size="10.00"> +Commands</text>
</g>
<!-- Node8 -->
<g id="node8" class="node"><title>Node8</title>
<g id="a_node8"><a xlink:href="structCompilerTool.xhtml" target="_top" xlink:title="Struct for compiler/linker commands. ">
<polygon fill="white" stroke="black" points="564.5,-1103.5 564.5,-1215.5 652.5,-1215.5 652.5,-1103.5 564.5,-1103.5"/>
<text text-anchor="middle" x="608.5" y="-1203.5" font-family="FreeSans" font-size="10.00">CompilerTool</text>
<polyline fill="none" stroke="black" points="564.5,-1196.5 652.5,-1196.5 "/>
<text text-anchor="start" x="572.5" y="-1184.5" font-family="FreeSans" font-size="10.00">+ command</text>
<text text-anchor="start" x="572.5" y="-1173.5" font-family="FreeSans" font-size="10.00">+ extensions</text>
<text text-anchor="start" x="572.5" y="-1162.5" font-family="FreeSans" font-size="10.00">+ generatedFiles</text>
<polyline fill="none" stroke="black" points="564.5,-1155.5 652.5,-1155.5 "/>
<text text-anchor="start" x="572.5" y="-1143.5" font-family="FreeSans" font-size="10.00">+ CompilerTool()</text>
<text text-anchor="start" x="572.5" y="-1132.5" font-family="FreeSans" font-size="10.00">+ CompilerTool()</text>
<text text-anchor="start" x="572.5" y="-1121.5" font-family="FreeSans" font-size="10.00">+ operator==()</text>
<text text-anchor="start" x="572.5" y="-1110.5" font-family="FreeSans" font-size="10.00">+ operator!=()</text>
</a>
</g>
</g>
<!-- Node8&#45;&gt;Node7 -->
<g id="edge7" class="edge"><title>Node8&#45;&gt;Node7</title>
<path fill="none" stroke="#404040" d="M608.5,-1103.03C608.5,-1075.76 608.5,-1043.5 608.5,-1018.65"/>
<polygon fill="none" stroke="#404040" points="608.5,-1018.4 604.5,-1012.4 608.5,-1006.4 612.5,-1012.4 608.5,-1018.4"/>
<text text-anchor="middle" x="632.5" y="-1077" font-family="FreeSans" font-size="10.00"> +elements</text>
</g>
<!-- Node9 -->
<g id="node9" class="node"><title>Node9</title>
<g id="a_node9"><a xlink:href="compiler_8h.xhtml#structCompilerPrograms" target="_top" xlink:title="Struct to keep programs. ">
<polygon fill="white" stroke="black" points="419.5,-916 419.5,-1039 515.5,-1039 515.5,-916 419.5,-916"/>
<text text-anchor="middle" x="467.5" y="-1027" font-family="FreeSans" font-size="10.00">CompilerPrograms</text>
<polyline fill="none" stroke="black" points="419.5,-1020 515.5,-1020 "/>
<text text-anchor="start" x="427.5" y="-1008" font-family="FreeSans" font-size="10.00">+ C</text>
<text text-anchor="start" x="427.5" y="-997" font-family="FreeSans" font-size="10.00">+ CPP</text>
<text text-anchor="start" x="427.5" y="-986" font-family="FreeSans" font-size="10.00">+ LD</text>
<text text-anchor="start" x="427.5" y="-975" font-family="FreeSans" font-size="10.00">+ LIB</text>
<text text-anchor="start" x="427.5" y="-964" font-family="FreeSans" font-size="10.00">+ WINDRES</text>
<text text-anchor="start" x="427.5" y="-953" font-family="FreeSans" font-size="10.00">+ MAKE</text>
<text text-anchor="start" x="427.5" y="-942" font-family="FreeSans" font-size="10.00">+ DBGconfig</text>
<polyline fill="none" stroke="black" points="419.5,-935 515.5,-935 "/>
<text text-anchor="middle" x="467.5" y="-923" font-family="FreeSans" font-size="10.00"> </text>
</a>
</g>
</g>
<!-- Node9&#45;&gt;Node2 -->
<g id="edge12" class="edge"><title>Node9&#45;&gt;Node2</title>
<path fill="none" stroke="#404040" d="M488.792,-915.978C491.996,-904.498 494.795,-892.483 496.5,-881 513.692,-765.215 516.787,-729.92 482.5,-618 465.922,-563.884 436.183,-509.337 406.805,-463.743"/>
<polygon fill="none" stroke="#404040" points="406.713,-463.603 400.083,-460.767 400.151,-453.556 406.781,-456.392 406.713,-463.603"/>
<text text-anchor="middle" x="541" y="-732.5" font-family="FreeSans" font-size="10.00"> #m_Programs</text>
</g>
<!-- Node9&#45;&gt;Node4 -->
<g id="edge8" class="edge"><title>Node9&#45;&gt;Node4</title>
<path fill="none" stroke="#404040" d="M454.126,-915.812C447.709,-886.692 439.917,-851.338 432.948,-819.71"/>
<polygon fill="none" stroke="#404040" points="432.904,-819.51 427.706,-814.512 430.321,-807.791 435.519,-812.79 432.904,-819.51"/>
<text text-anchor="middle" x="471.5" y="-873" font-family="FreeSans" font-size="10.00"> +Programs</text>
</g>
</g>
</svg>
