<?xml version="1.0" encoding="UTF-8" standalone="no"?>
<!DOCTYPE svg PUBLIC "-//W3C//DTD SVG 1.1//EN"
 "http://www.w3.org/Graphics/SVG/1.1/DTD/svg11.dtd">
<!-- Generated by graphviz version 2.38.0 (20140413.2041)
 -->
<!-- Title: GdbCmd_FindTooltipAddress Pages: 1 -->
<svg width="946pt" height="1279pt"
 viewBox="0.00 0.00 946.00 1279.00" xmlns="http://www.w3.org/2000/svg" xmlns:xlink="http://www.w3.org/1999/xlink">
<g id="graph0" class="graph" transform="scale(1 1) rotate(0) translate(4 1275)">
<title>GdbCmd_FindTooltipAddress</title>
<!-- Node2 -->
<g id="node1" class="node"><title>Node2</title>
<polygon fill="#bfbfbf" stroke="black" points="161.5,-0.5 161.5,-68.5 318.5,-68.5 318.5,-0.5 161.5,-0.5"/>
<text text-anchor="middle" x="240" y="-56.5" font-family="FreeSans" font-size="10.00">GdbCmd_FindTooltipAddress</text>
<polyline fill="none" stroke="black" points="161.5,-49.5 318.5,-49.5 "/>
<text text-anchor="middle" x="240" y="-37.5" font-family="FreeSans" font-size="10.00"> </text>
<polyline fill="none" stroke="black" points="161.5,-30.5 318.5,-30.5 "/>
<text text-anchor="start" x="169.5" y="-18.5" font-family="FreeSans" font-size="10.00">+ GdbCmd_FindTooltipAddress()</text>
<text text-anchor="start" x="169.5" y="-7.5" font-family="FreeSans" font-size="10.00">+ ParseOutput()</text>
</g>
<!-- Node3 -->
<g id="node2" class="node"><title>Node3</title>
<g id="a_node2"><a xlink:href="classDebuggerCmd" target="_top" xlink:title="Basic interface for debugger commands. ">
<polygon fill="none" stroke="black" points="179.5,-106.5 179.5,-207.5 300.5,-207.5 300.5,-106.5 179.5,-106.5"/>
<text text-anchor="middle" x="240" y="-195.5" font-family="FreeSans" font-size="10.00">DebuggerCmd</text>
<polyline fill="none" stroke="black" points="179.5,-188.5 300.5,-188.5 "/>
<text text-anchor="start" x="187.5" y="-176.5" font-family="FreeSans" font-size="10.00"># m_LogToNormalLog</text>
<polyline fill="none" stroke="black" points="179.5,-169.5 300.5,-169.5 "/>
<text text-anchor="start" x="187.5" y="-157.5" font-family="FreeSans" font-size="10.00">+ DebuggerCmd()</text>
<text text-anchor="start" x="187.5" y="-146.5" font-family="FreeSans" font-size="10.00">+ ~DebuggerCmd()</text>
<text text-anchor="start" x="187.5" y="-135.5" font-family="FreeSans" font-size="10.00">+ Action()</text>
<text text-anchor="start" x="187.5" y="-124.5" font-family="FreeSans" font-size="10.00">+ ParseOutput()</text>
<text text-anchor="start" x="187.5" y="-113.5" font-family="FreeSans" font-size="10.00">+ IsContinueCommand()</text>
</a>
</g>
</g>
<!-- Node3&#45;&gt;Node2 -->
<g id="edge1" class="edge"><title>Node3&#45;&gt;Node2</title>
<path fill="none" stroke="midnightblue" d="M240,-96.0742C240,-86.6128 240,-77.1409 240,-68.5915"/>
<polygon fill="none" stroke="midnightblue" points="236.5,-96.2923 240,-106.292 243.5,-96.2924 236.5,-96.2923"/>
</g>
<!-- Node4 -->
<g id="node3" class="node"><title>Node4</title>
<g id="a_node3"><a doxygen="/media/alpha/Barracuda/cb_docs/src/wxTagFile.xml:http://docs.wxwidgets.org/3.0/" xlink:href="http://docs.wxwidgets.org/3.0/classwx_string.html" target="_top" xlink:title="{wxString\n|+ npos\l|+ wxString()\l+ wxString()\l+ wxString()\l+ wxString()\l+ wxString()\l+ wxString()\l+ wxString()\l+ wxString()\land 222 more...\l+ Format()\l+ FormatV()\l+ FromCDouble()\l+ FromDouble()\l+ From8BitData()\l+ From8BitData()\l+ FromAscii()\l+ FromAscii()\land 7 more...\l}">
<polygon fill="none" stroke="black" points="68.5,-1026.5 68.5,-1270.5 159.5,-1270.5 159.5,-1026.5 68.5,-1026.5"/>
<text text-anchor="middle" x="114" y="-1258.5" font-family="FreeSans" font-size="10.00">wxString</text>
<polyline fill="none" stroke="black" points="68.5,-1251.5 159.5,-1251.5 "/>
<text text-anchor="start" x="76.5" y="-1239.5" font-family="FreeSans" font-size="10.00">+ npos</text>
<polyline fill="none" stroke="black" points="68.5,-1232.5 159.5,-1232.5 "/>
<text text-anchor="start" x="76.5" y="-1220.5" font-family="FreeSans" font-size="10.00">+ wxString()</text>
<text text-anchor="start" x="76.5" y="-1209.5" font-family="FreeSans" font-size="10.00">+ wxString()</text>
<text text-anchor="start" x="76.5" y="-1198.5" font-family="FreeSans" font-size="10.00">+ wxString()</text>
<text text-anchor="start" x="76.5" y="-1187.5" font-family="FreeSans" font-size="10.00">+ wxString()</text>
<text text-anchor="start" x="76.5" y="-1176.5" font-family="FreeSans" font-size="10.00">+ wxString()</text>
<text text-anchor="start" x="76.5" y="-1165.5" font-family="FreeSans" font-size="10.00">+ wxString()</text>
<text text-anchor="start" x="76.5" y="-1154.5" font-family="FreeSans" font-size="10.00">+ wxString()</text>
<text text-anchor="start" x="76.5" y="-1143.5" font-family="FreeSans" font-size="10.00">+ wxString()</text>
<text text-anchor="start" x="76.5" y="-1132.5" font-family="FreeSans" font-size="10.00">and 222 more...</text>
<text text-anchor="start" x="76.5" y="-1121.5" font-family="FreeSans" font-size="10.00">+ Format()</text>
<text text-anchor="start" x="76.5" y="-1110.5" font-family="FreeSans" font-size="10.00">+ FormatV()</text>
<text text-anchor="start" x="76.5" y="-1099.5" font-family="FreeSans" font-size="10.00">+ FromCDouble()</text>
<text text-anchor="start" x="76.5" y="-1088.5" font-family="FreeSans" font-size="10.00">+ FromDouble()</text>
<text text-anchor="start" x="76.5" y="-1077.5" font-family="FreeSans" font-size="10.00">+ From8BitData()</text>
<text text-anchor="start" x="76.5" y="-1066.5" font-family="FreeSans" font-size="10.00">+ From8BitData()</text>
<text text-anchor="start" x="76.5" y="-1055.5" font-family="FreeSans" font-size="10.00">+ FromAscii()</text>
<text text-anchor="start" x="76.5" y="-1044.5" font-family="FreeSans" font-size="10.00">+ FromAscii()</text>
<text text-anchor="start" x="76.5" y="-1033.5" font-family="FreeSans" font-size="10.00">and 7 more...</text>
</a>
</g>
</g>
<!-- Node4&#45;&gt;Node2 -->
<g id="edge14" class="edge"><title>Node4&#45;&gt;Node2</title>
<path fill="none" stroke="#404040" d="M68.4527,-1043.68C36.6993,-961.871 0,-844.055 0,-736.5 0,-736.5 0,-736.5 0,-156 0,-86.5071 81.3579,-57.0874 149.336,-44.6348"/>
<polygon fill="none" stroke="#404040" points="149.587,-44.592 154.827,-39.6383 161.415,-42.5703 156.175,-47.524 149.587,-44.592"/>
<text text-anchor="middle" x="20" y="-364" font-family="FreeSans" font-size="10.00"> &#45;m_Type</text>
<text text-anchor="middle" x="20" y="-353" font-family="FreeSans" font-size="10.00">&#45;m_What</text>
</g>
<!-- Node4&#45;&gt;Node3 -->
<g id="edge2" class="edge"><title>Node4&#45;&gt;Node3</title>
<path fill="none" stroke="#404040" d="M86.7676,-1026.19C61.6032,-891.142 35.4729,-667.814 89,-485 117.487,-387.708 170.452,-282.5 205.467,-218.421"/>
<polygon fill="none" stroke="#404040" points="205.569,-218.235 204.958,-211.05 211.355,-207.722 211.966,-214.907 205.569,-218.235"/>
<text text-anchor="middle" x="110.5" y="-488" font-family="FreeSans" font-size="10.00"> +m_Cmd</text>
</g>
<!-- Node5 -->
<g id="node4" class="node"><title>Node5</title>
<g id="a_node4"><a xlink:href="classDebuggerDriver" target="_top" xlink:title="{DebuggerDriver\n|# m_ProgramIsStopped\l# m_ChildPID\l# m_DCmds\l# m_QueueBusy\l# m_currentFrameNo\l# m_userSelectedFrameNo\l|+ DebuggerDriver()\l+ ~DebuggerDriver()\l+ Log()\l+ DebugLog()\l+ GetDebugger()\l+ AddDirectory()\l+ ClearDirectories()\l+ SetWorkingDirectory()\land 62 more...\l# ResetCursor()\l}">
<polygon fill="none" stroke="black" points="324,-255.5 324,-466.5 458,-466.5 458,-255.5 324,-255.5"/>
<text text-anchor="middle" x="391" y="-454.5" font-family="FreeSans" font-size="10.00">DebuggerDriver</text>
<polyline fill="none" stroke="black" points="324,-447.5 458,-447.5 "/>
<text text-anchor="start" x="332" y="-435.5" font-family="FreeSans" font-size="10.00"># m_ProgramIsStopped</text>
<text text-anchor="start" x="332" y="-424.5" font-family="FreeSans" font-size="10.00"># m_ChildPID</text>
<text text-anchor="start" x="332" y="-413.5" font-family="FreeSans" font-size="10.00"># m_DCmds</text>
<text text-anchor="start" x="332" y="-402.5" font-family="FreeSans" font-size="10.00"># m_QueueBusy</text>
<text text-anchor="start" x="332" y="-391.5" font-family="FreeSans" font-size="10.00"># m_currentFrameNo</text>
<text text-anchor="start" x="332" y="-380.5" font-family="FreeSans" font-size="10.00"># m_userSelectedFrameNo</text>
<polyline fill="none" stroke="black" points="324,-373.5 458,-373.5 "/>
<text text-anchor="start" x="332" y="-361.5" font-family="FreeSans" font-size="10.00">+ DebuggerDriver()</text>
<text text-anchor="start" x="332" y="-350.5" font-family="FreeSans" font-size="10.00">+ ~DebuggerDriver()</text>
<text text-anchor="start" x="332" y="-339.5" font-family="FreeSans" font-size="10.00">+ Log()</text>
<text text-anchor="start" x="332" y="-328.5" font-family="FreeSans" font-size="10.00">+ DebugLog()</text>
<text text-anchor="start" x="332" y="-317.5" font-family="FreeSans" font-size="10.00">+ GetDebugger()</text>
<text text-anchor="start" x="332" y="-306.5" font-family="FreeSans" font-size="10.00">+ AddDirectory()</text>
<text text-anchor="start" x="332" y="-295.5" font-family="FreeSans" font-size="10.00">+ ClearDirectories()</text>
<text text-anchor="start" x="332" y="-284.5" font-family="FreeSans" font-size="10.00">+ SetWorkingDirectory()</text>
<text text-anchor="start" x="332" y="-273.5" font-family="FreeSans" font-size="10.00">and 62 more...</text>
<text text-anchor="start" x="332" y="-262.5" font-family="FreeSans" font-size="10.00"># ResetCursor()</text>
</a>
</g>
</g>
<!-- Node4&#45;&gt;Node5 -->
<g id="edge9" class="edge"><title>Node4&#45;&gt;Node5</title>
<path fill="none" stroke="#404040" d="M101.758,-1026.33C88.0079,-867.011 73.5486,-597.529 123,-514 163.917,-444.886 249.035,-404.556 312.426,-383.021"/>
<polygon fill="none" stroke="#404040" points="312.595,-382.966 317.045,-377.291 323.994,-379.216 319.544,-384.89 312.595,-382.966"/>
<text text-anchor="middle" x="173" y="-744" font-family="FreeSans" font-size="10.00"> #m_Args</text>
<text text-anchor="middle" x="173" y="-733" font-family="FreeSans" font-size="10.00">#m_LastCursorAddress</text>
<text text-anchor="middle" x="173" y="-722" font-family="FreeSans" font-size="10.00">#m_WorkingDir</text>
</g>
<!-- Node7 -->
<g id="node6" class="node"><title>Node7</title>
<g id="a_node6"><a xlink:href="structCursor" target="_top" xlink:title="Debugger cursor info. ">
<polygon fill="none" stroke="black" points="232,-701.5 232,-769.5 294,-769.5 294,-701.5 232,-701.5"/>
<text text-anchor="middle" x="263" y="-757.5" font-family="FreeSans" font-size="10.00">Cursor</text>
<polyline fill="none" stroke="black" points="232,-750.5 294,-750.5 "/>
<text text-anchor="start" x="240" y="-738.5" font-family="FreeSans" font-size="10.00">+ line</text>
<text text-anchor="start" x="240" y="-727.5" font-family="FreeSans" font-size="10.00">+ changed</text>
<polyline fill="none" stroke="black" points="232,-720.5 294,-720.5 "/>
<text text-anchor="start" x="240" y="-708.5" font-family="FreeSans" font-size="10.00">+ Cursor()</text>
</a>
</g>
</g>
<!-- Node4&#45;&gt;Node7 -->
<g id="edge6" class="edge"><title>Node4&#45;&gt;Node7</title>
<path fill="none" stroke="#404040" d="M159.561,-1076.18C180.034,-1041.38 202.926,-998.229 218,-957 239.399,-898.471 251.602,-827.277 257.76,-781.921"/>
<polygon fill="none" stroke="#404040" points="257.783,-781.744 254.595,-775.276 259.34,-769.846 262.528,-776.314 257.783,-781.744"/>
<text text-anchor="middle" x="230.5" y="-1000" font-family="FreeSans" font-size="10.00"> +file</text>
<text text-anchor="middle" x="230.5" y="-989" font-family="FreeSans" font-size="10.00">+address</text>
<text text-anchor="middle" x="230.5" y="-978" font-family="FreeSans" font-size="10.00">+function</text>
</g>
<!-- Node10 -->
<g id="node9" class="node"><title>Node10</title>
<g id="a_node9"><a xlink:href="classDebuggerGDB" target="_top" xlink:title="{DebuggerGDB\n|&#45; m_LastExitCode\l&#45; m_Pid\l&#45; m_PidToAttach\l&#45; m_NoDebugInfo\l&#45; m_StoppedOnSignal\l&#45; m_HookId\l&#45; m_bIsConsole\l&#45; m_stopDebuggerConsoleClosed\land 6 more...\l|+ DebuggerGDB()\l+ ~DebuggerGDB()\l+ GetProjectConfigurationPanel()\l+ OnAttachReal()\l+ OnReleaseReal()\l+ SupportsFeature()\l+ LoadConfig()\l+ GetActiveConfigEx()\land 60 more...\l+ ConvertToGDBFriendly()\l+ ConvertToGDBFile()\l+ ConvertToGDBDirectory()\l+ StripQuotes()\l# GetProject()\l# ResetProject()\l# ConvertDirectory()\l# CleanupWhenProjectClosed()\l# CompilerFinished()\l# AddSourceDir()\l&#45; ParseOutput()\l&#45; DoWatches()\l&#45; MarkAllWatchesAsUnchanged()\l&#45; LaunchProcess()\l&#45; DoDebug()\l&#45; DoBreak()\l&#45; OnAddSymbolFile()\l&#45; DeleteAllProjectBreakpoints()\land 21 more...\l}">
<polygon fill="none" stroke="red" points="312,-514.5 312,-956.5 470,-956.5 470,-514.5 312,-514.5"/>
<text text-anchor="middle" x="391" y="-944.5" font-family="FreeSans" font-size="10.00">DebuggerGDB</text>
<polyline fill="none" stroke="red" points="312,-937.5 470,-937.5 "/>
<text text-anchor="start" x="320" y="-925.5" font-family="FreeSans" font-size="10.00">&#45; m_LastExitCode</text>
<text text-anchor="start" x="320" y="-914.5" font-family="FreeSans" font-size="10.00">&#45; m_Pid</text>
<text text-anchor="start" x="320" y="-903.5" font-family="FreeSans" font-size="10.00">&#45; m_PidToAttach</text>
<text text-anchor="start" x="320" y="-892.5" font-family="FreeSans" font-size="10.00">&#45; m_NoDebugInfo</text>
<text text-anchor="start" x="320" y="-881.5" font-family="FreeSans" font-size="10.00">&#45; m_StoppedOnSignal</text>
<text text-anchor="start" x="320" y="-870.5" font-family="FreeSans" font-size="10.00">&#45; m_HookId</text>
<text text-anchor="start" x="320" y="-859.5" font-family="FreeSans" font-size="10.00">&#45; m_bIsConsole</text>
<text text-anchor="start" x="320" y="-848.5" font-family="FreeSans" font-size="10.00">&#45; m_stopDebuggerConsoleClosed</text>
<text text-anchor="start" x="320" y="-837.5" font-family="FreeSans" font-size="10.00">and 6 more...</text>
<polyline fill="none" stroke="red" points="312,-830.5 470,-830.5 "/>
<text text-anchor="start" x="320" y="-818.5" font-family="FreeSans" font-size="10.00">+ DebuggerGDB()</text>
<text text-anchor="start" x="320" y="-807.5" font-family="FreeSans" font-size="10.00">+ ~DebuggerGDB()</text>
<text text-anchor="start" x="320" y="-796.5" font-family="FreeSans" font-size="10.00">+ GetProjectConfigurationPanel()</text>
<text text-anchor="start" x="320" y="-785.5" font-family="FreeSans" font-size="10.00">+ OnAttachReal()</text>
<text text-anchor="start" x="320" y="-774.5" font-family="FreeSans" font-size="10.00">+ OnReleaseReal()</text>
<text text-anchor="start" x="320" y="-763.5" font-family="FreeSans" font-size="10.00">+ SupportsFeature()</text>
<text text-anchor="start" x="320" y="-752.5" font-family="FreeSans" font-size="10.00">+ LoadConfig()</text>
<text text-anchor="start" x="320" y="-741.5" font-family="FreeSans" font-size="10.00">+ GetActiveConfigEx()</text>
<text text-anchor="start" x="320" y="-730.5" font-family="FreeSans" font-size="10.00">and 60 more...</text>
<text text-anchor="start" x="320" y="-719.5" font-family="FreeSans" font-size="10.00">+ ConvertToGDBFriendly()</text>
<text text-anchor="start" x="320" y="-708.5" font-family="FreeSans" font-size="10.00">+ ConvertToGDBFile()</text>
<text text-anchor="start" x="320" y="-697.5" font-family="FreeSans" font-size="10.00">+ ConvertToGDBDirectory()</text>
<text text-anchor="start" x="320" y="-686.5" font-family="FreeSans" font-size="10.00">+ StripQuotes()</text>
<text text-anchor="start" x="320" y="-675.5" font-family="FreeSans" font-size="10.00"># GetProject()</text>
<text text-anchor="start" x="320" y="-664.5" font-family="FreeSans" font-size="10.00"># ResetProject()</text>
<text text-anchor="start" x="320" y="-653.5" font-family="FreeSans" font-size="10.00"># ConvertDirectory()</text>
<text text-anchor="start" x="320" y="-642.5" font-family="FreeSans" font-size="10.00"># CleanupWhenProjectClosed()</text>
<text text-anchor="start" x="320" y="-631.5" font-family="FreeSans" font-size="10.00"># CompilerFinished()</text>
<text text-anchor="start" x="320" y="-620.5" font-family="FreeSans" font-size="10.00"># AddSourceDir()</text>
<text text-anchor="start" x="320" y="-609.5" font-family="FreeSans" font-size="10.00">&#45; ParseOutput()</text>
<text text-anchor="start" x="320" y="-598.5" font-family="FreeSans" font-size="10.00">&#45; DoWatches()</text>
<text text-anchor="start" x="320" y="-587.5" font-family="FreeSans" font-size="10.00">&#45; MarkAllWatchesAsUnchanged()</text>
<text text-anchor="start" x="320" y="-576.5" font-family="FreeSans" font-size="10.00">&#45; LaunchProcess()</text>
<text text-anchor="start" x="320" y="-565.5" font-family="FreeSans" font-size="10.00">&#45; DoDebug()</text>
<text text-anchor="start" x="320" y="-554.5" font-family="FreeSans" font-size="10.00">&#45; DoBreak()</text>
<text text-anchor="start" x="320" y="-543.5" font-family="FreeSans" font-size="10.00">&#45; OnAddSymbolFile()</text>
<text text-anchor="start" x="320" y="-532.5" font-family="FreeSans" font-size="10.00">&#45; DeleteAllProjectBreakpoints()</text>
<text text-anchor="start" x="320" y="-521.5" font-family="FreeSans" font-size="10.00">and 21 more...</text>
</a>
</g>
</g>
<!-- Node4&#45;&gt;Node10 -->
<g id="edge12" class="edge"><title>Node4&#45;&gt;Node10</title>
<path fill="none" stroke="#404040" d="M159.701,-1111.4C201.905,-1075.99 263.814,-1018.49 303,-957 303.857,-955.656 304.708,-954.302 305.553,-952.939"/>
<polygon fill="none" stroke="#404040" points="305.748,-952.614 305.401,-945.411 311.917,-942.321 312.263,-949.524 305.748,-952.614"/>
<text text-anchor="middle" x="356.5" y="-994.5" font-family="FreeSans" font-size="10.00"> &#45;m_ActiveBuildTarget</text>
<text text-anchor="middle" x="356.5" y="-983.5" font-family="FreeSans" font-size="10.00">&#45;m_watchToDereferenceSymbol</text>
</g>
<!-- Node5&#45;&gt;Node3 -->
<g id="edge3" class="edge"><title>Node5&#45;&gt;Node3</title>
<path fill="none" stroke="#404040" d="M323.89,-270.223C310.583,-252.423 296.925,-234.151 284.595,-217.657"/>
<polygon fill="none" stroke="#404040" points="284.29,-217.248 277.494,-214.838 277.105,-207.637 283.901,-210.048 284.29,-217.248"/>
<text text-anchor="middle" x="324" y="-229" font-family="FreeSans" font-size="10.00"> #m_pDriver</text>
</g>
<!-- Node6 -->
<g id="node5" class="node"><title>Node6</title>
<g id="a_node5"><a doxygen="/media/alpha/Barracuda/cb_docs/src/wxTagFile.xml:http://docs.wxwidgets.org/3.0/" xlink:href="http://docs.wxwidgets.org/3.0/classwx_array_string.html" target="_top" xlink:title="{wxArrayString\n||+ wxArrayString()\l+ wxArrayString()\l+ wxArrayString()\l+ ~wxArrayString()\l+ Add()\l+ Alloc()\l+ Clear()\l+ Empty()\land 19 more...\l}">
<polygon fill="none" stroke="black" points="488.5,-663 488.5,-808 583.5,-808 583.5,-663 488.5,-663"/>
<text text-anchor="middle" x="536" y="-796" font-family="FreeSans" font-size="10.00">wxArrayString</text>
<polyline fill="none" stroke="black" points="488.5,-789 583.5,-789 "/>
<text text-anchor="middle" x="536" y="-777" font-family="FreeSans" font-size="10.00"> </text>
<polyline fill="none" stroke="black" points="488.5,-770 583.5,-770 "/>
<text text-anchor="start" x="496.5" y="-758" font-family="FreeSans" font-size="10.00">+ wxArrayString()</text>
<text text-anchor="start" x="496.5" y="-747" font-family="FreeSans" font-size="10.00">+ wxArrayString()</text>
<text text-anchor="start" x="496.5" y="-736" font-family="FreeSans" font-size="10.00">+ wxArrayString()</text>
<text text-anchor="start" x="496.5" y="-725" font-family="FreeSans" font-size="10.00">+ ~wxArrayString()</text>
<text text-anchor="start" x="496.5" y="-714" font-family="FreeSans" font-size="10.00">+ Add()</text>
<text text-anchor="start" x="496.5" y="-703" font-family="FreeSans" font-size="10.00">+ Alloc()</text>
<text text-anchor="start" x="496.5" y="-692" font-family="FreeSans" font-size="10.00">+ Clear()</text>
<text text-anchor="start" x="496.5" y="-681" font-family="FreeSans" font-size="10.00">+ Empty()</text>
<text text-anchor="start" x="496.5" y="-670" font-family="FreeSans" font-size="10.00">and 19 more...</text>
</a>
</g>
</g>
<!-- Node6&#45;&gt;Node5 -->
<g id="edge4" class="edge"><title>Node6&#45;&gt;Node5</title>
<path fill="none" stroke="#404040" d="M522.657,-662.909C513.215,-618.978 498.714,-562.112 479,-514 474.087,-502.011 468.381,-489.814 462.28,-477.808"/>
<polygon fill="none" stroke="#404040" points="462.116,-477.493 455.798,-474.017 456.577,-466.848 462.895,-470.324 462.116,-477.493"/>
<text text-anchor="middle" x="489" y="-488" font-family="FreeSans" font-size="10.00"> #m_Dirs</text>
</g>
<!-- Node7&#45;&gt;Node5 -->
<g id="edge5" class="edge"><title>Node7&#45;&gt;Node5</title>
<path fill="none" stroke="#404040" d="M265.427,-701.439C269.448,-657.481 279.518,-577.908 303,-514 307.428,-501.948 312.781,-489.748 318.634,-477.775"/>
<polygon fill="none" stroke="#404040" points="318.737,-477.57 317.865,-470.412 324.138,-466.854 325.009,-474.012 318.737,-477.57"/>
<text text-anchor="middle" x="339.5" y="-488" font-family="FreeSans" font-size="10.00"> #m_Cursor</text>
</g>
<!-- Node8 -->
<g id="node7" class="node"><title>Node8</title>
<polygon fill="none" stroke="#bfbfbf" points="602,-701.5 602,-769.5 714,-769.5 714,-701.5 602,-701.5"/>
<text text-anchor="start" x="610" y="-757.5" font-family="FreeSans" font-size="10.00">std::vector&lt; cb::shared</text>
<text text-anchor="middle" x="658" y="-746.5" font-family="FreeSans" font-size="10.00">_ptr&lt; cbThread &gt; &gt;</text>
<polyline fill="none" stroke="#bfbfbf" points="602,-739.5 714,-739.5 "/>
<text text-anchor="start" x="610" y="-727.5" font-family="FreeSans" font-size="10.00">+ elements</text>
<polyline fill="none" stroke="#bfbfbf" points="602,-720.5 714,-720.5 "/>
<text text-anchor="middle" x="658" y="-708.5" font-family="FreeSans" font-size="10.00"> </text>
</g>
<!-- Node8&#45;&gt;Node5 -->
<g id="edge7" class="edge"><title>Node8&#45;&gt;Node5</title>
<path fill="none" stroke="#404040" d="M654.602,-701.448C648.544,-655.731 632.462,-572.254 592,-514 560.296,-468.356 510.567,-430.584 468.506,-404.111"/>
<polygon fill="none" stroke="#404040" points="468.484,-404.098 461.277,-404.35 458.273,-397.795 465.479,-397.543 468.484,-404.098"/>
<text text-anchor="middle" x="602.5" y="-488" font-family="FreeSans" font-size="10.00"> #m_threads</text>
</g>
<!-- Node9 -->
<g id="node8" class="node"><title>Node9</title>
<polygon fill="none" stroke="#bfbfbf" points="732,-701.5 732,-769.5 854,-769.5 854,-701.5 732,-701.5"/>
<text text-anchor="start" x="740" y="-757.5" font-family="FreeSans" font-size="10.00">std::vector&lt; cb::shared</text>
<text text-anchor="middle" x="793" y="-746.5" font-family="FreeSans" font-size="10.00">_ptr&lt; cbStackFrame &gt; &gt;</text>
<polyline fill="none" stroke="#bfbfbf" points="732,-739.5 854,-739.5 "/>
<text text-anchor="start" x="740" y="-727.5" font-family="FreeSans" font-size="10.00">+ elements</text>
<polyline fill="none" stroke="#bfbfbf" points="732,-720.5 854,-720.5 "/>
<text text-anchor="middle" x="793" y="-708.5" font-family="FreeSans" font-size="10.00"> </text>
</g>
<!-- Node9&#45;&gt;Node5 -->
<g id="edge8" class="edge"><title>Node9&#45;&gt;Node5</title>
<path fill="none" stroke="#404040" d="M790.742,-701.267C785.884,-654.192 770.644,-567.84 723,-514 656.405,-438.745 544.985,-398.407 469.787,-378.599"/>
<polygon fill="none" stroke="#404040" points="469.667,-378.568 462.863,-380.956 458.042,-375.594 464.846,-373.206 469.667,-378.568"/>
<text text-anchor="middle" x="735" y="-488" font-family="FreeSans" font-size="10.00"> #m_backtrace</text>
</g>
<!-- Node10&#45;&gt;Node5 -->
<g id="edge10" class="edge"><title>Node10&#45;&gt;Node5</title>
<path fill="none" stroke="#404040" d="M391,-514.316C391,-502.302 391,-490.483 391,-479.068"/>
<polygon fill="none" stroke="#404040" points="391,-478.85 387,-472.85 391,-466.85 395,-472.85 391,-478.85"/>
<text text-anchor="middle" x="415" y="-488" font-family="FreeSans" font-size="10.00"> #m_pDBG</text>
</g>
<!-- Node34 -->
<g id="node10" class="node"><title>Node34</title>
<g id="a_node10"><a doxygen="/media/alpha/Barracuda/cb_docs/src/wxTagFile.xml:http://docs.wxwidgets.org/3.0/" xlink:href="http://docs.wxwidgets.org/3.0/classwx_rect.html" target="_top" xlink:title="{wxRect\n|+ height\l+ width\l+ x\l+ y\l|+ wxRect()\l+ wxRect()\l+ wxRect()\l+ wxRect()\l+ wxRect()\l+ Contains()\l+ Contains()\l+ Contains()\land 53 more...\l}">
<polygon fill="none" stroke="black" points="626,-1059.5 626,-1237.5 702,-1237.5 702,-1059.5 626,-1059.5"/>
<text text-anchor="middle" x="664" y="-1225.5" font-family="FreeSans" font-size="10.00">wxRect</text>
<polyline fill="none" stroke="black" points="626,-1218.5 702,-1218.5 "/>
<text text-anchor="start" x="634" y="-1206.5" font-family="FreeSans" font-size="10.00">+ height</text>
<text text-anchor="start" x="634" y="-1195.5" font-family="FreeSans" font-size="10.00">+ width</text>
<text text-anchor="start" x="634" y="-1184.5" font-family="FreeSans" font-size="10.00">+ x</text>
<text text-anchor="start" x="634" y="-1173.5" font-family="FreeSans" font-size="10.00">+ y</text>
<polyline fill="none" stroke="black" points="626,-1166.5 702,-1166.5 "/>
<text text-anchor="start" x="634" y="-1154.5" font-family="FreeSans" font-size="10.00">+ wxRect()</text>
<text text-anchor="start" x="634" y="-1143.5" font-family="FreeSans" font-size="10.00">+ wxRect()</text>
<text text-anchor="start" x="634" y="-1132.5" font-family="FreeSans" font-size="10.00">+ wxRect()</text>
<text text-anchor="start" x="634" y="-1121.5" font-family="FreeSans" font-size="10.00">+ wxRect()</text>
<text text-anchor="start" x="634" y="-1110.5" font-family="FreeSans" font-size="10.00">+ wxRect()</text>
<text text-anchor="start" x="634" y="-1099.5" font-family="FreeSans" font-size="10.00">+ Contains()</text>
<text text-anchor="start" x="634" y="-1088.5" font-family="FreeSans" font-size="10.00">+ Contains()</text>
<text text-anchor="start" x="634" y="-1077.5" font-family="FreeSans" font-size="10.00">+ Contains()</text>
<text text-anchor="start" x="634" y="-1066.5" font-family="FreeSans" font-size="10.00">and 53 more...</text>
</a>
</g>
</g>
<!-- Node34&#45;&gt;Node2 -->
<g id="edge13" class="edge"><title>Node34&#45;&gt;Node2</title>
<path fill="none" stroke="#404040" d="M702.33,-1123.67C749.401,-1092.04 827.368,-1031.41 863,-957 905.482,-868.284 882,-834.863 882,-736.5 882,-736.5 882,-736.5 882,-156 882,-100.599 507.933,-59.5651 330.865,-43.2448"/>
<polygon fill="none" stroke="#404040" points="330.672,-43.2272 324.333,-46.6649 318.722,-42.1358 325.061,-38.6981 330.672,-43.2272"/>
<text text-anchor="middle" x="910" y="-358.5" font-family="FreeSans" font-size="10.00"> &#45;m_WinRect</text>
</g>
<!-- Node34&#45;&gt;Node10 -->
<g id="edge11" class="edge"><title>Node34&#45;&gt;Node10</title>
<path fill="none" stroke="#404040" d="M625.805,-1116.27C584.881,-1081.15 520.258,-1020.63 479,-957 478.149,-955.687 477.303,-954.364 476.464,-953.033"/>
<polygon fill="none" stroke="#404040" points="476.386,-952.905 469.848,-949.862 470.143,-942.657 476.68,-945.7 476.386,-952.905"/>
<text text-anchor="middle" x="543" y="-989" font-family="FreeSans" font-size="10.00"> &#45;m_EvalRect</text>
</g>
</g>
</svg>
