<?xml version="1.0" encoding="UTF-8" standalone="no"?>
<!DOCTYPE svg PUBLIC "-//W3C//DTD SVG 1.1//EN"
 "http://www.w3.org/Graphics/SVG/1.1/DTD/svg11.dtd">
<!-- Generated by graphviz version 2.40.1 (20161225.0304)
 -->
<!-- Title: ConfirmReplaceDlg Pages: 1 -->
<svg width="127pt" height="447pt"
 viewBox="0.00 0.00 127.00 447.00" xmlns="http://www.w3.org/2000/svg" xmlns:xlink="http://www.w3.org/1999/xlink">
<g id="graph0" class="graph" transform="scale(1 1) rotate(0) translate(4 443)">
<title>ConfirmReplaceDlg</title>
<!-- Node9 -->
<g id="node1" class="node">
<title>Node9</title>
<polygon fill="#bfbfbf" stroke="#000000" points="0,-.5 0,-145.5 119,-145.5 119,-.5 0,-.5"/>
<text text-anchor="middle" x="59.5" y="-133.5" font-family="FreeSans" font-size="10.00" fill="#000000">ConfirmReplaceDlg</text>
<polyline fill="none" stroke="#000000" points="0,-126.5 119,-126.5 "/>
<text text-anchor="middle" x="59.5" y="-114.5" font-family="FreeSans" font-size="10.00" fill="#000000"> </text>
<polyline fill="none" stroke="#000000" points="0,-107.5 119,-107.5 "/>
<text text-anchor="start" x="8" y="-95.5" font-family="FreeSans" font-size="10.00" fill="#000000">+ ConfirmReplaceDlg()</text>
<text text-anchor="start" x="8" y="-84.5" font-family="FreeSans" font-size="10.00" fill="#000000">+ ~ConfirmReplaceDlg()</text>
<text text-anchor="start" x="8" y="-73.5" font-family="FreeSans" font-size="10.00" fill="#000000">+ OnYes()</text>
<text text-anchor="start" x="8" y="-62.5" font-family="FreeSans" font-size="10.00" fill="#000000">+ OnNo()</text>
<text text-anchor="start" x="8" y="-51.5" font-family="FreeSans" font-size="10.00" fill="#000000">+ OnAllInFile()</text>
<text text-anchor="start" x="8" y="-40.5" font-family="FreeSans" font-size="10.00" fill="#000000">+ OnSkipFile()</text>
<text text-anchor="start" x="8" y="-29.5" font-family="FreeSans" font-size="10.00" fill="#000000">+ OnAll()</text>
<text text-anchor="start" x="8" y="-18.5" font-family="FreeSans" font-size="10.00" fill="#000000">+ OnCancel()</text>
<text text-anchor="start" x="8" y="-7.5" font-family="FreeSans" font-size="10.00" fill="#000000">+ CalcPosition()</text>
</g>
<!-- Node10 -->
<g id="node2" class="node">
<title>Node10</title>
<g id="a_node2"><a xlink:href="classwxScrollingDialog" target="_top" xlink:title="{wxScrollingDialog\n||+ wxScrollingDialog()\l+ wxScrollingDialog()\l}">
<polygon fill="none" stroke="#000000" points="6,-182.5 6,-250.5 113,-250.5 113,-182.5 6,-182.5"/>
<text text-anchor="middle" x="59.5" y="-238.5" font-family="FreeSans" font-size="10.00" fill="#000000">wxScrollingDialog</text>
<polyline fill="none" stroke="#000000" points="6,-231.5 113,-231.5 "/>
<text text-anchor="middle" x="59.5" y="-219.5" font-family="FreeSans" font-size="10.00" fill="#000000"> </text>
<polyline fill="none" stroke="#000000" points="6,-212.5 113,-212.5 "/>
<text text-anchor="start" x="14" y="-200.5" font-family="FreeSans" font-size="10.00" fill="#000000">+ wxScrollingDialog()</text>
<text text-anchor="start" x="14" y="-189.5" font-family="FreeSans" font-size="10.00" fill="#000000">+ wxScrollingDialog()</text>
</a>
</g>
</g>
<!-- Node10&#45;&gt;Node9 -->
<g id="edge1" class="edge">
<title>Node10&#45;&gt;Node9</title>
<path fill="none" stroke="#191970" d="M59.5,-172.4784C59.5,-163.9872 59.5,-154.8836 59.5,-145.7583"/>
<polygon fill="none" stroke="#191970" points="56.0001,-172.4925 59.5,-182.4925 63.0001,-172.4925 56.0001,-172.4925"/>
</g>
<!-- Node11 -->
<g id="node3" class="node">
<title>Node11</title>
<g id="a_node3"><a doxygen="/media/alpha/Barracuda/cb_docs/src/wxTagFile.xml:http://docs.wxwidgets.org/3.0/" xlink:href="http://docs.wxwidgets.org/3.0/classwx_dialog.html" target="_top" xlink:title="{wxDialog\n||+ ShowModal()\l}">
<polygon fill="none" stroke="#000000" points="19,-287.5 19,-344.5 100,-344.5 100,-287.5 19,-287.5"/>
<text text-anchor="middle" x="59.5" y="-332.5" font-family="FreeSans" font-size="10.00" fill="#000000">wxDialog</text>
<polyline fill="none" stroke="#000000" points="19,-325.5 100,-325.5 "/>
<text text-anchor="middle" x="59.5" y="-313.5" font-family="FreeSans" font-size="10.00" fill="#000000"> </text>
<polyline fill="none" stroke="#000000" points="19,-306.5 100,-306.5 "/>
<text text-anchor="start" x="27" y="-294.5" font-family="FreeSans" font-size="10.00" fill="#000000">+ ShowModal()</text>
</a>
</g>
</g>
<!-- Node11&#45;&gt;Node10 -->
<g id="edge2" class="edge">
<title>Node11&#45;&gt;Node10</title>
<path fill="none" stroke="#191970" d="M59.5,-277.4268C59.5,-268.6025 59.5,-259.2834 59.5,-250.6596"/>
<polygon fill="none" stroke="#191970" points="56.0001,-277.4873 59.5,-287.4873 63.0001,-277.4873 56.0001,-277.4873"/>
</g>
<!-- Node12 -->
<g id="node4" class="node">
<title>Node12</title>
<g id="a_node4"><a doxygen="/media/alpha/Barracuda/cb_docs/src/wxTagFile.xml:http://docs.wxwidgets.org/3.0/" xlink:href="http://docs.wxwidgets.org/3.0/classwx_top_level_window.html" target="_top" xlink:title="{wxTopLevelWindow\n||}">
<polygon fill="none" stroke="#ff0000" points="9,-381.5 9,-438.5 110,-438.5 110,-381.5 9,-381.5"/>
<text text-anchor="middle" x="59.5" y="-426.5" font-family="FreeSans" font-size="10.00" fill="#000000">wxTopLevelWindow</text>
<polyline fill="none" stroke="#ff0000" points="9,-419.5 110,-419.5 "/>
<text text-anchor="middle" x="59.5" y="-407.5" font-family="FreeSans" font-size="10.00" fill="#000000"> </text>
<polyline fill="none" stroke="#ff0000" points="9,-400.5 110,-400.5 "/>
<text text-anchor="middle" x="59.5" y="-388.5" font-family="FreeSans" font-size="10.00" fill="#000000"> </text>
</a>
</g>
</g>
<!-- Node12&#45;&gt;Node11 -->
<g id="edge3" class="edge">
<title>Node12&#45;&gt;Node11</title>
<path fill="none" stroke="#191970" d="M59.5,-371.1035C59.5,-362.2052 59.5,-352.9073 59.5,-344.538"/>
<polygon fill="none" stroke="#191970" points="56.0001,-371.2861 59.5,-381.2861 63.0001,-371.2862 56.0001,-371.2861"/>
</g>
</g>
</svg>
