<?xml version="1.0" encoding="UTF-8" standalone="no"?>
<!DOCTYPE svg PUBLIC "-//W3C//DTD SVG 1.1//EN"
 "http://www.w3.org/Graphics/SVG/1.1/DTD/svg11.dtd">
<!-- Generated by graphviz version 2.40.1 (20161225.0304)
 -->
<!-- Title: ScopeTreeData Pages: 1 -->
<svg width="954pt" height="1757pt"
 viewBox="0.00 0.00 953.97 1757.00" xmlns="http://www.w3.org/2000/svg" xmlns:xlink="http://www.w3.org/1999/xlink">
<g id="graph0" class="graph" transform="scale(1 1) rotate(0) translate(4 1753)">
<title>ScopeTreeData</title>
<!-- Node3 -->
<g id="node1" class="node">
<title>Node3</title>
<polygon fill="#bfbfbf" stroke="#000000" points="490.9673,-.5 490.9673,-79.5 588.9673,-79.5 588.9673,-.5 490.9673,-.5"/>
<text text-anchor="middle" x="539.9673" y="-67.5" font-family="FreeSans" font-size="10.00" fill="#000000">ScopeTreeData</text>
<polyline fill="none" stroke="#000000" points="490.9673,-60.5 588.9673,-60.5 "/>
<text text-anchor="middle" x="539.9673" y="-48.5" font-family="FreeSans" font-size="10.00" fill="#000000"> </text>
<polyline fill="none" stroke="#000000" points="490.9673,-41.5 588.9673,-41.5 "/>
<text text-anchor="start" x="498.9673" y="-29.5" font-family="FreeSans" font-size="10.00" fill="#000000">+ ScopeTreeData()</text>
<text text-anchor="start" x="498.9673" y="-18.5" font-family="FreeSans" font-size="10.00" fill="#000000">+ GetProject()</text>
<text text-anchor="start" x="498.9673" y="-7.5" font-family="FreeSans" font-size="10.00" fill="#000000">+ GetTarget()</text>
</g>
<!-- Node4 -->
<g id="node2" class="node">
<title>Node4</title>
<g id="a_node2"><a doxygen="/media/alpha/Barracuda/cb_docs/src/wxTagFile.xml:http://docs.wxwidgets.org/3.0/" xlink:href="http://docs.wxwidgets.org/3.0/classwx_tree_item_data.html" target="_top" xlink:title="{wxTreeItemData\n||+ wxTreeItemData()\l+ ~wxTreeItemData()\l+ GetId()\l+ SetId()\l}">
<polygon fill="none" stroke="#000000" points="380.4673,-188 380.4673,-278 487.4673,-278 487.4673,-188 380.4673,-188"/>
<text text-anchor="middle" x="433.9673" y="-266" font-family="FreeSans" font-size="10.00" fill="#000000">wxTreeItemData</text>
<polyline fill="none" stroke="#000000" points="380.4673,-259 487.4673,-259 "/>
<text text-anchor="middle" x="433.9673" y="-247" font-family="FreeSans" font-size="10.00" fill="#000000"> </text>
<polyline fill="none" stroke="#000000" points="380.4673,-240 487.4673,-240 "/>
<text text-anchor="start" x="388.4673" y="-228" font-family="FreeSans" font-size="10.00" fill="#000000">+ wxTreeItemData()</text>
<text text-anchor="start" x="388.4673" y="-217" font-family="FreeSans" font-size="10.00" fill="#000000">+ ~wxTreeItemData()</text>
<text text-anchor="start" x="388.4673" y="-206" font-family="FreeSans" font-size="10.00" fill="#000000">+ GetId()</text>
<text text-anchor="start" x="388.4673" y="-195" font-family="FreeSans" font-size="10.00" fill="#000000">+ SetId()</text>
</a>
</g>
</g>
<!-- Node4&#45;&gt;Node3 -->
<g id="edge1" class="edge">
<title>Node4&#45;&gt;Node3</title>
<path fill="none" stroke="#191970" d="M463.8069,-178.6695C481.0829,-147.2141 502.446,-108.3171 518.1456,-79.732"/>
<polygon fill="none" stroke="#191970" points="460.5659,-177.3001 458.8196,-187.7501 466.7014,-180.6699 460.5659,-177.3001"/>
</g>
<!-- Node5 -->
<g id="node3" class="node">
<title>Node5</title>
<g id="a_node3"><a doxygen="/media/alpha/Barracuda/cb_docs/src/wxTagFile.xml:http://docs.wxwidgets.org/3.0/" xlink:href="http://docs.wxwidgets.org/3.0/classwx_client_data.html" target="_top" xlink:title="{wxClientData\n||+ wxClientData()\l+ ~wxClientData()\l}">
<polygon fill="none" stroke="#000000" points="364.9673,-529.5 364.9673,-597.5 456.9673,-597.5 456.9673,-529.5 364.9673,-529.5"/>
<text text-anchor="middle" x="410.9673" y="-585.5" font-family="FreeSans" font-size="10.00" fill="#000000">wxClientData</text>
<polyline fill="none" stroke="#000000" points="364.9673,-578.5 456.9673,-578.5 "/>
<text text-anchor="middle" x="410.9673" y="-566.5" font-family="FreeSans" font-size="10.00" fill="#000000"> </text>
<polyline fill="none" stroke="#000000" points="364.9673,-559.5 456.9673,-559.5 "/>
<text text-anchor="start" x="372.9673" y="-547.5" font-family="FreeSans" font-size="10.00" fill="#000000">+ wxClientData()</text>
<text text-anchor="start" x="372.9673" y="-536.5" font-family="FreeSans" font-size="10.00" fill="#000000">+ ~wxClientData()</text>
</a>
</g>
</g>
<!-- Node5&#45;&gt;Node4 -->
<g id="edge2" class="edge">
<title>Node5&#45;&gt;Node4</title>
<path fill="none" stroke="#191970" d="M414.0382,-519.3728C418.4148,-456.4835 426.4042,-341.6793 430.8216,-278.2036"/>
<polygon fill="none" stroke="#191970" points="410.5449,-519.1566 413.3421,-529.3755 417.528,-519.6427 410.5449,-519.1566"/>
</g>
<!-- Node6 -->
<g id="node4" class="node">
<title>Node6</title>
<g id="a_node4"><a xlink:href="classcbProject" target="_top" xlink:title="Represents a Code::Blocks project. ">
<polygon fill="none" stroke="#000000" points="475.4673,-386.5 475.4673,-740.5 656.4673,-740.5 656.4673,-386.5 475.4673,-386.5"/>
<text text-anchor="middle" x="565.9673" y="-728.5" font-family="FreeSans" font-size="10.00" fill="#000000">cbProject</text>
<polyline fill="none" stroke="#000000" points="475.4673,-721.5 656.4673,-721.5 "/>
<text text-anchor="start" x="483.4673" y="-709.5" font-family="FreeSans" font-size="10.00" fill="#000000">&#45; m_Targets</text>
<text text-anchor="start" x="483.4673" y="-698.5" font-family="FreeSans" font-size="10.00" fill="#000000">&#45; m_CustomMakefile</text>
<text text-anchor="start" x="483.4673" y="-687.5" font-family="FreeSans" font-size="10.00" fill="#000000">&#45; m_Files</text>
<text text-anchor="start" x="483.4673" y="-676.5" font-family="FreeSans" font-size="10.00" fill="#000000">&#45; m_FileArray</text>
<text text-anchor="start" x="483.4673" y="-665.5" font-family="FreeSans" font-size="10.00" fill="#000000">&#45; m_Loaded</text>
<text text-anchor="start" x="483.4673" y="-654.5" font-family="FreeSans" font-size="10.00" fill="#000000">&#45; m_CurrentlyLoading</text>
<text text-anchor="start" x="483.4673" y="-643.5" font-family="FreeSans" font-size="10.00" fill="#000000">&#45; m_PCHMode</text>
<text text-anchor="start" x="483.4673" y="-632.5" font-family="FreeSans" font-size="10.00" fill="#000000">&#45; m_ProjectFilesMap</text>
<text text-anchor="start" x="483.4673" y="-621.5" font-family="FreeSans" font-size="10.00" fill="#000000">&#45; m_ExtendedObjectNamesGeneration</text>
<text text-anchor="start" x="483.4673" y="-610.5" font-family="FreeSans" font-size="10.00" fill="#000000">&#45; m_AutoShowNotesOnLoad</text>
<text text-anchor="start" x="483.4673" y="-599.5" font-family="FreeSans" font-size="10.00" fill="#000000">&#45; m_CheckForExternallyModified</text>
<text text-anchor="start" x="483.4673" y="-588.5" font-family="FreeSans" font-size="10.00" fill="#000000">Files</text>
<text text-anchor="start" x="483.4673" y="-577.5" font-family="FreeSans" font-size="10.00" fill="#000000">&#45; m_pExtensionsElement</text>
<polyline fill="none" stroke="#000000" points="475.4673,-570.5 656.4673,-570.5 "/>
<text text-anchor="start" x="483.4673" y="-558.5" font-family="FreeSans" font-size="10.00" fill="#000000">+ cbProject()</text>
<text text-anchor="start" x="483.4673" y="-547.5" font-family="FreeSans" font-size="10.00" fill="#000000">+ ~cbProject()</text>
<text text-anchor="start" x="483.4673" y="-536.5" font-family="FreeSans" font-size="10.00" fill="#000000">+ IsLoaded()</text>
<text text-anchor="start" x="483.4673" y="-525.5" font-family="FreeSans" font-size="10.00" fill="#000000">+ ClearAllProperties()</text>
<text text-anchor="start" x="483.4673" y="-514.5" font-family="FreeSans" font-size="10.00" fill="#000000">+ CalculateCommonTopLevelPath()</text>
<text text-anchor="start" x="483.4673" y="-503.5" font-family="FreeSans" font-size="10.00" fill="#000000">+ GetCommonTopLevelPath()</text>
<text text-anchor="start" x="483.4673" y="-492.5" font-family="FreeSans" font-size="10.00" fill="#000000">+ GetModified()</text>
<text text-anchor="start" x="483.4673" y="-481.5" font-family="FreeSans" font-size="10.00" fill="#000000">+ SetModified()</text>
<text text-anchor="start" x="483.4673" y="-470.5" font-family="FreeSans" font-size="10.00" fill="#000000">and 85 more...</text>
<text text-anchor="start" x="483.4673" y="-459.5" font-family="FreeSans" font-size="10.00" fill="#000000">&#45; Open()</text>
<text text-anchor="start" x="483.4673" y="-448.5" font-family="FreeSans" font-size="10.00" fill="#000000">&#45; ExpandVirtualBuildTarget</text>
<text text-anchor="start" x="483.4673" y="-437.5" font-family="FreeSans" font-size="10.00" fill="#000000">Group()</text>
<text text-anchor="start" x="483.4673" y="-426.5" font-family="FreeSans" font-size="10.00" fill="#000000">&#45; AddDefaultBuildTarget()</text>
<text text-anchor="start" x="483.4673" y="-415.5" font-family="FreeSans" font-size="10.00" fill="#000000">&#45; IndexOfBuildTargetName()</text>
<text text-anchor="start" x="483.4673" y="-404.5" font-family="FreeSans" font-size="10.00" fill="#000000">&#45; CreateUniqueFilename()</text>
<text text-anchor="start" x="483.4673" y="-393.5" font-family="FreeSans" font-size="10.00" fill="#000000">&#45; NotifyPlugins()</text>
</a>
</g>
</g>
<!-- Node6&#45;&gt;Node3 -->
<g id="edge3" class="edge">
<title>Node6&#45;&gt;Node3</title>
<path fill="none" stroke="#404040" d="M557.1649,-386.2668C552.0265,-282.8071 545.908,-159.6129 542.5294,-91.5851"/>
<polygon fill="none" stroke="#404040" points="542.5266,-91.5273 538.2338,-85.7331 541.9312,-79.542 546.224,-85.3362 542.5266,-91.5273"/>
<text text-anchor="middle" x="579.9673" y="-230.5" font-family="FreeSans" font-size="10.00" fill="#000000"> &#45;m_Project</text>
</g>
<!-- Node15 -->
<g id="node13" class="node">
<title>Node15</title>
<g id="a_node13"><a xlink:href="classProjectBuildTarget" target="_top" xlink:title="Represents a Code::Blocks project build target. ">
<polygon fill="none" stroke="#000000" points="654.4673,-127.5 654.4673,-338.5 793.4673,-338.5 793.4673,-127.5 654.4673,-127.5"/>
<text text-anchor="middle" x="723.9673" y="-326.5" font-family="FreeSans" font-size="10.00" fill="#000000">ProjectBuildTarget</text>
<polyline fill="none" stroke="#000000" points="654.4673,-319.5 793.4673,-319.5 "/>
<text text-anchor="start" x="662.4673" y="-307.5" font-family="FreeSans" font-size="10.00" fill="#000000">&#45; m_TargetDeps</text>
<text text-anchor="start" x="662.4673" y="-296.5" font-family="FreeSans" font-size="10.00" fill="#000000">&#45; m_Files</text>
<text text-anchor="start" x="662.4673" y="-285.5" font-family="FreeSans" font-size="10.00" fill="#000000">&#45; m_FileArray</text>
<text text-anchor="start" x="662.4673" y="-274.5" font-family="FreeSans" font-size="10.00" fill="#000000">&#45; m_BuildWithAll</text>
<text text-anchor="start" x="662.4673" y="-263.5" font-family="FreeSans" font-size="10.00" fill="#000000">&#45; m_CreateStaticLib</text>
<text text-anchor="start" x="662.4673" y="-252.5" font-family="FreeSans" font-size="10.00" fill="#000000">&#45; m_CreateDefFile</text>
<text text-anchor="start" x="662.4673" y="-241.5" font-family="FreeSans" font-size="10.00" fill="#000000">&#45; m_UseConsoleRunner</text>
<polyline fill="none" stroke="#000000" points="654.4673,-234.5 793.4673,-234.5 "/>
<text text-anchor="start" x="662.4673" y="-222.5" font-family="FreeSans" font-size="10.00" fill="#000000">+ ProjectBuildTarget()</text>
<text text-anchor="start" x="662.4673" y="-211.5" font-family="FreeSans" font-size="10.00" fill="#000000">+ ~ProjectBuildTarget()</text>
<text text-anchor="start" x="662.4673" y="-200.5" font-family="FreeSans" font-size="10.00" fill="#000000">+ GetParentProject()</text>
<text text-anchor="start" x="662.4673" y="-189.5" font-family="FreeSans" font-size="10.00" fill="#000000">+ GetFullTitle()</text>
<text text-anchor="start" x="662.4673" y="-178.5" font-family="FreeSans" font-size="10.00" fill="#000000">+ GetExternalDeps()</text>
<text text-anchor="start" x="662.4673" y="-167.5" font-family="FreeSans" font-size="10.00" fill="#000000">+ SetExternalDeps()</text>
<text text-anchor="start" x="662.4673" y="-156.5" font-family="FreeSans" font-size="10.00" fill="#000000">+ GetAdditionalOutputFiles()</text>
<text text-anchor="start" x="662.4673" y="-145.5" font-family="FreeSans" font-size="10.00" fill="#000000">+ SetAdditionalOutputFiles()</text>
<text text-anchor="start" x="662.4673" y="-134.5" font-family="FreeSans" font-size="10.00" fill="#000000">and 15 more...</text>
</a>
</g>
</g>
<!-- Node6&#45;&gt;Node15 -->
<g id="edge19" class="edge">
<title>Node6&#45;&gt;Node15</title>
<path fill="none" stroke="#404040" d="M656.5121,-451.3514C673.9496,-425.2334 690.3697,-396.6474 701.9673,-368 704.2752,-362.2994 706.3412,-356.3706 708.1908,-350.318"/>
<polygon fill="none" stroke="#404040" points="708.2494,-350.1084 706.0168,-343.2516 711.4874,-338.5535 713.7201,-345.4103 708.2494,-350.1084"/>
<text text-anchor="middle" x="729.9673" y="-360" font-family="FreeSans" font-size="10.00" fill="#000000"> &#45;m_Project</text>
</g>
<!-- Node7 -->
<g id="node5" class="node">
<title>Node7</title>
<g id="a_node5"><a xlink:href="classCompileTargetBase" target="_top" xlink:title="Base class for build target classes Each Code::Blocks project consists of at least one target...">
<polygon fill="none" stroke="#000000" points="481.9673,-788.5 481.9673,-1043.5 649.9673,-1043.5 649.9673,-788.5 481.9673,-788.5"/>
<text text-anchor="middle" x="565.9673" y="-1031.5" font-family="FreeSans" font-size="10.00" fill="#000000">CompileTargetBase</text>
<polyline fill="none" stroke="#000000" points="481.9673,-1024.5 649.9673,-1024.5 "/>
<text text-anchor="start" x="489.9673" y="-1012.5" font-family="FreeSans" font-size="10.00" fill="#000000"># m_Title</text>
<text text-anchor="start" x="489.9673" y="-1001.5" font-family="FreeSans" font-size="10.00" fill="#000000"># m_OutputFilename</text>
<text text-anchor="start" x="489.9673" y="-990.5" font-family="FreeSans" font-size="10.00" fill="#000000"># m_OptionsRelation</text>
<text text-anchor="start" x="489.9673" y="-979.5" font-family="FreeSans" font-size="10.00" fill="#000000"># m_TargetType</text>
<text text-anchor="start" x="489.9673" y="-968.5" font-family="FreeSans" font-size="10.00" fill="#000000"># m_MakeCommandsModified</text>
<text text-anchor="start" x="489.9673" y="-957.5" font-family="FreeSans" font-size="10.00" fill="#000000"># m_RunHostApplicationInTerminal</text>
<text text-anchor="start" x="489.9673" y="-946.5" font-family="FreeSans" font-size="10.00" fill="#000000"># m_PrefixGenerationPolicy</text>
<text text-anchor="start" x="489.9673" y="-935.5" font-family="FreeSans" font-size="10.00" fill="#000000"># m_ExtensionGenerationPolicy</text>
<polyline fill="none" stroke="#000000" points="481.9673,-928.5 649.9673,-928.5 "/>
<text text-anchor="start" x="489.9673" y="-916.5" font-family="FreeSans" font-size="10.00" fill="#000000">+ CompileTargetBase()</text>
<text text-anchor="start" x="489.9673" y="-905.5" font-family="FreeSans" font-size="10.00" fill="#000000">+ ~CompileTargetBase()</text>
<text text-anchor="start" x="489.9673" y="-894.5" font-family="FreeSans" font-size="10.00" fill="#000000">+ SetTargetFilenameGeneration</text>
<text text-anchor="start" x="489.9673" y="-883.5" font-family="FreeSans" font-size="10.00" fill="#000000">Policy()</text>
<text text-anchor="start" x="489.9673" y="-872.5" font-family="FreeSans" font-size="10.00" fill="#000000">+ GetTargetFilenameGeneration</text>
<text text-anchor="start" x="489.9673" y="-861.5" font-family="FreeSans" font-size="10.00" fill="#000000">Policy()</text>
<text text-anchor="start" x="489.9673" y="-850.5" font-family="FreeSans" font-size="10.00" fill="#000000">+ GetFilename()</text>
<text text-anchor="start" x="489.9673" y="-839.5" font-family="FreeSans" font-size="10.00" fill="#000000">+ GetTitle()</text>
<text text-anchor="start" x="489.9673" y="-828.5" font-family="FreeSans" font-size="10.00" fill="#000000">+ SetTitle()</text>
<text text-anchor="start" x="489.9673" y="-817.5" font-family="FreeSans" font-size="10.00" fill="#000000">+ SetOutputFilename()</text>
<text text-anchor="start" x="489.9673" y="-806.5" font-family="FreeSans" font-size="10.00" fill="#000000">and 32 more...</text>
<text text-anchor="start" x="489.9673" y="-795.5" font-family="FreeSans" font-size="10.00" fill="#000000">&#45; GenerateTargetFilename()</text>
</a>
</g>
</g>
<!-- Node7&#45;&gt;Node6 -->
<g id="edge4" class="edge">
<title>Node7&#45;&gt;Node6</title>
<path fill="none" stroke="#191970" d="M565.9673,-778.0189C565.9673,-765.7705 565.9673,-753.2631 565.9673,-740.7489"/>
<polygon fill="none" stroke="#191970" points="562.4674,-778.241 565.9673,-788.241 569.4674,-778.2411 562.4674,-778.241"/>
</g>
<!-- Node7&#45;&gt;Node15 -->
<g id="edge18" class="edge">
<title>Node7&#45;&gt;Node15</title>
<path fill="none" stroke="#191970" d="M658.0469,-815.7512C670.7153,-805.3603 684.1448,-795.779 697.9673,-788 725.5869,-772.4564 747.5908,-795.0798 766.9673,-770 823.0892,-697.3594 772.458,-447.7983 758.9673,-357 758.0797,-351.026 756.99,-344.9328 755.7507,-338.812"/>
<polygon fill="none" stroke="#191970" points="655.6494,-813.1946 650.2608,-822.3167 660.1619,-818.546 655.6494,-813.1946"/>
</g>
<!-- Node8 -->
<g id="node6" class="node">
<title>Node8</title>
<g id="a_node6"><a xlink:href="classCompileOptionsBase" target="_top" xlink:title="This is a base class for all classes needing compilation parameters. ">
<polygon fill="none" stroke="#000000" points="71.4673,-1168.5 71.4673,-1346.5 208.4673,-1346.5 208.4673,-1168.5 71.4673,-1168.5"/>
<text text-anchor="middle" x="139.9673" y="-1334.5" font-family="FreeSans" font-size="10.00" fill="#000000">CompileOptionsBase</text>
<polyline fill="none" stroke="#000000" points="71.4673,-1327.5 208.4673,-1327.5 "/>
<text text-anchor="start" x="79.4673" y="-1315.5" font-family="FreeSans" font-size="10.00" fill="#000000"># m_Platform</text>
<text text-anchor="start" x="79.4673" y="-1304.5" font-family="FreeSans" font-size="10.00" fill="#000000"># m_Modified</text>
<text text-anchor="start" x="79.4673" y="-1293.5" font-family="FreeSans" font-size="10.00" fill="#000000"># m_AlwaysRunPostCmds</text>
<text text-anchor="start" x="79.4673" y="-1282.5" font-family="FreeSans" font-size="10.00" fill="#000000"># m_Vars</text>
<polyline fill="none" stroke="#000000" points="71.4673,-1275.5 208.4673,-1275.5 "/>
<text text-anchor="start" x="79.4673" y="-1263.5" font-family="FreeSans" font-size="10.00" fill="#000000">+ CompileOptionsBase()</text>
<text text-anchor="start" x="79.4673" y="-1252.5" font-family="FreeSans" font-size="10.00" fill="#000000">+ ~CompileOptionsBase()</text>
<text text-anchor="start" x="79.4673" y="-1241.5" font-family="FreeSans" font-size="10.00" fill="#000000">+ AddPlatform()</text>
<text text-anchor="start" x="79.4673" y="-1230.5" font-family="FreeSans" font-size="10.00" fill="#000000">+ RemovePlatform()</text>
<text text-anchor="start" x="79.4673" y="-1219.5" font-family="FreeSans" font-size="10.00" fill="#000000">+ SetPlatforms()</text>
<text text-anchor="start" x="79.4673" y="-1208.5" font-family="FreeSans" font-size="10.00" fill="#000000">+ GetPlatforms()</text>
<text text-anchor="start" x="79.4673" y="-1197.5" font-family="FreeSans" font-size="10.00" fill="#000000">+ SupportsCurrentPlatform()</text>
<text text-anchor="start" x="79.4673" y="-1186.5" font-family="FreeSans" font-size="10.00" fill="#000000">+ SetLinkerOptions()</text>
<text text-anchor="start" x="79.4673" y="-1175.5" font-family="FreeSans" font-size="10.00" fill="#000000">and 56 more...</text>
</a>
</g>
</g>
<!-- Node8&#45;&gt;Node7 -->
<g id="edge5" class="edge">
<title>Node8&#45;&gt;Node7</title>
<path fill="none" stroke="#191970" d="M217.0966,-1172.2356C219.678,-1170.7139 222.3028,-1169.2964 224.9673,-1168 301.2413,-1130.8901 342.4814,-1194.0529 414.9673,-1150 455.9746,-1125.0781 487.8817,-1084.3084 511.5811,-1043.7251"/>
<polygon fill="none" stroke="#191970" points="214.9977,-1169.4245 208.4918,-1177.7865 218.7923,-1175.3068 214.9977,-1169.4245"/>
</g>
<!-- Node9 -->
<g id="node7" class="node">
<title>Node9</title>
<g id="a_node7"><a doxygen="/media/alpha/Barracuda/cb_docs/src/wxTagFile.xml:http://docs.wxwidgets.org/3.0/" xlink:href="http://docs.wxwidgets.org/3.0/classwx_array_string.html" target="_top" xlink:title="{wxArrayString\n||+ wxArrayString()\l+ wxArrayString()\l+ wxArrayString()\l+ ~wxArrayString()\l+ Add()\l+ Alloc()\l+ Clear()\l+ Empty()\land 19 more...\l}">
<polygon fill="none" stroke="#000000" points="83.4673,-1554 83.4673,-1699 178.4673,-1699 178.4673,-1554 83.4673,-1554"/>
<text text-anchor="middle" x="130.9673" y="-1687" font-family="FreeSans" font-size="10.00" fill="#000000">wxArrayString</text>
<polyline fill="none" stroke="#000000" points="83.4673,-1680 178.4673,-1680 "/>
<text text-anchor="middle" x="130.9673" y="-1668" font-family="FreeSans" font-size="10.00" fill="#000000"> </text>
<polyline fill="none" stroke="#000000" points="83.4673,-1661 178.4673,-1661 "/>
<text text-anchor="start" x="91.4673" y="-1649" font-family="FreeSans" font-size="10.00" fill="#000000">+ wxArrayString()</text>
<text text-anchor="start" x="91.4673" y="-1638" font-family="FreeSans" font-size="10.00" fill="#000000">+ wxArrayString()</text>
<text text-anchor="start" x="91.4673" y="-1627" font-family="FreeSans" font-size="10.00" fill="#000000">+ wxArrayString()</text>
<text text-anchor="start" x="91.4673" y="-1616" font-family="FreeSans" font-size="10.00" fill="#000000">+ ~wxArrayString()</text>
<text text-anchor="start" x="91.4673" y="-1605" font-family="FreeSans" font-size="10.00" fill="#000000">+ Add()</text>
<text text-anchor="start" x="91.4673" y="-1594" font-family="FreeSans" font-size="10.00" fill="#000000">+ Alloc()</text>
<text text-anchor="start" x="91.4673" y="-1583" font-family="FreeSans" font-size="10.00" fill="#000000">+ Clear()</text>
<text text-anchor="start" x="91.4673" y="-1572" font-family="FreeSans" font-size="10.00" fill="#000000">+ Empty()</text>
<text text-anchor="start" x="91.4673" y="-1561" font-family="FreeSans" font-size="10.00" fill="#000000">and 19 more...</text>
</a>
</g>
</g>
<!-- Node9&#45;&gt;Node6 -->
<g id="edge8" class="edge">
<title>Node9&#45;&gt;Node6</title>
<path fill="none" stroke="#404040" d="M99.4375,-1553.7514C36.3409,-1395.6526 -84.8482,-1016.6115 92.9673,-788 114.1477,-760.7692 131.3106,-766.5728 164.9673,-759 227.0216,-745.0378 391.2815,-773.3696 464.249,-740.5117"/>
<polygon fill="none" stroke="#404040" points="464.5592,-740.3462 467.9697,-733.9925 475.1464,-734.697 471.7359,-741.0506 464.5592,-740.3462"/>
<text text-anchor="middle" x="45.9673" y="-1114.5" font-family="FreeSans" font-size="10.00" fill="#000000"> &#45;m_ExpandedNodes</text>
<text text-anchor="middle" x="45.9673" y="-1103.5" font-family="FreeSans" font-size="10.00" fill="#000000">&#45;m_SelectedNodes</text>
<text text-anchor="middle" x="45.9673" y="-1092.5" font-family="FreeSans" font-size="10.00" fill="#000000">&#45;m_VirtualFolders</text>
</g>
<!-- Node9&#45;&gt;Node8 -->
<g id="edge6" class="edge">
<title>Node9&#45;&gt;Node8</title>
<path fill="none" stroke="#404040" d="M129.8735,-1553.7646C129.4189,-1501.2805 129.4769,-1428.7379 131.9673,-1365 132.0477,-1362.9429 132.136,-1360.8642 132.2312,-1358.7694"/>
<polygon fill="none" stroke="#404040" points="132.2387,-1358.6205 128.5486,-1352.4251 132.8481,-1346.636 136.5383,-1352.8314 132.2387,-1358.6205"/>
<text text-anchor="middle" x="197.4673" y="-1478" font-family="FreeSans" font-size="10.00" fill="#000000"> #m_LibDirs</text>
<text text-anchor="middle" x="197.4673" y="-1467" font-family="FreeSans" font-size="10.00" fill="#000000">#m_CompilerOptions</text>
<text text-anchor="middle" x="197.4673" y="-1456" font-family="FreeSans" font-size="10.00" fill="#000000">#m_IncludeDirs</text>
<text text-anchor="middle" x="197.4673" y="-1445" font-family="FreeSans" font-size="10.00" fill="#000000">#m_LinkLibs</text>
<text text-anchor="middle" x="197.4673" y="-1434" font-family="FreeSans" font-size="10.00" fill="#000000">#m_CmdsAfter</text>
<text text-anchor="middle" x="197.4673" y="-1423" font-family="FreeSans" font-size="10.00" fill="#000000">#m_ResourceCompilerOptions</text>
<text text-anchor="middle" x="197.4673" y="-1412" font-family="FreeSans" font-size="10.00" fill="#000000">#m_ResIncludeDirs</text>
<text text-anchor="middle" x="197.4673" y="-1401" font-family="FreeSans" font-size="10.00" fill="#000000">#m_Scripts</text>
<text text-anchor="middle" x="197.4673" y="-1390" font-family="FreeSans" font-size="10.00" fill="#000000">#m_CmdsBefore</text>
<text text-anchor="middle" x="197.4673" y="-1379" font-family="FreeSans" font-size="10.00" fill="#000000">#m_LinkerOptions</text>
<text text-anchor="middle" x="197.4673" y="-1368" font-family="FreeSans" font-size="10.00" fill="#000000">...</text>
</g>
<!-- Node11 -->
<g id="node9" class="node">
<title>Node11</title>
<polygon fill="none" stroke="#bfbfbf" points="234.4673,-1223.5 234.4673,-1291.5 335.4673,-1291.5 335.4673,-1223.5 234.4673,-1223.5"/>
<text text-anchor="start" x="242.4673" y="-1279.5" font-family="FreeSans" font-size="10.00" fill="#000000">std::map&lt; wxString,</text>
<text text-anchor="middle" x="284.9673" y="-1268.5" font-family="FreeSans" font-size="10.00" fill="#000000"> wxArrayString &gt;</text>
<polyline fill="none" stroke="#bfbfbf" points="234.4673,-1261.5 335.4673,-1261.5 "/>
<text text-anchor="middle" x="284.9673" y="-1249.5" font-family="FreeSans" font-size="10.00" fill="#000000"> </text>
<polyline fill="none" stroke="#bfbfbf" points="234.4673,-1242.5 335.4673,-1242.5 "/>
<text text-anchor="middle" x="284.9673" y="-1230.5" font-family="FreeSans" font-size="10.00" fill="#000000"> </text>
</g>
<!-- Node9&#45;&gt;Node11 -->
<g id="edge10" class="edge">
<title>Node9&#45;&gt;Node11</title>
<path fill="none" stroke="#404040" d="M178.7416,-1589.878C208.3798,-1564.255 244.2644,-1527.3139 262.9673,-1486 277.1781,-1454.609 282.2287,-1361.3685 284.0102,-1304.157"/>
<polygon fill="none" stroke="#404040" points="284.0193,-1303.8319 280.1917,-1297.7205 284.3608,-1291.8368 288.1885,-1297.9482 284.0193,-1303.8319"/>
<text text-anchor="middle" x="305.9673" y="-1423" font-family="FreeSans" font-size="10.00" fill="#000000"> +elements</text>
</g>
<!-- Node10 -->
<g id="node8" class="node">
<title>Node10</title>
<g id="a_node8"><a doxygen="/media/alpha/Barracuda/cb_docs/src/wxTagFile.xml:http://docs.wxwidgets.org/3.0/" xlink:href="http://docs.wxwidgets.org/3.0/classwx_string.html" target="_top" xlink:title="{wxString\n|+ npos\l|+ wxString()\l+ wxString()\l+ wxString()\l+ wxString()\l+ wxString()\l+ wxString()\l+ wxString()\l+ wxString()\land 222 more...\l+ Format()\l+ FormatV()\l+ FromCDouble()\l+ FromDouble()\l+ From8BitData()\l+ From8BitData()\l+ FromAscii()\l+ FromAscii()\land 7 more...\l}">
<polygon fill="none" stroke="#000000" points="489.4673,-1504.5 489.4673,-1748.5 580.4673,-1748.5 580.4673,-1504.5 489.4673,-1504.5"/>
<text text-anchor="middle" x="534.9673" y="-1736.5" font-family="FreeSans" font-size="10.00" fill="#000000">wxString</text>
<polyline fill="none" stroke="#000000" points="489.4673,-1729.5 580.4673,-1729.5 "/>
<text text-anchor="start" x="497.4673" y="-1717.5" font-family="FreeSans" font-size="10.00" fill="#000000">+ npos</text>
<polyline fill="none" stroke="#000000" points="489.4673,-1710.5 580.4673,-1710.5 "/>
<text text-anchor="start" x="497.4673" y="-1698.5" font-family="FreeSans" font-size="10.00" fill="#000000">+ wxString()</text>
<text text-anchor="start" x="497.4673" y="-1687.5" font-family="FreeSans" font-size="10.00" fill="#000000">+ wxString()</text>
<text text-anchor="start" x="497.4673" y="-1676.5" font-family="FreeSans" font-size="10.00" fill="#000000">+ wxString()</text>
<text text-anchor="start" x="497.4673" y="-1665.5" font-family="FreeSans" font-size="10.00" fill="#000000">+ wxString()</text>
<text text-anchor="start" x="497.4673" y="-1654.5" font-family="FreeSans" font-size="10.00" fill="#000000">+ wxString()</text>
<text text-anchor="start" x="497.4673" y="-1643.5" font-family="FreeSans" font-size="10.00" fill="#000000">+ wxString()</text>
<text text-anchor="start" x="497.4673" y="-1632.5" font-family="FreeSans" font-size="10.00" fill="#000000">+ wxString()</text>
<text text-anchor="start" x="497.4673" y="-1621.5" font-family="FreeSans" font-size="10.00" fill="#000000">+ wxString()</text>
<text text-anchor="start" x="497.4673" y="-1610.5" font-family="FreeSans" font-size="10.00" fill="#000000">and 222 more...</text>
<text text-anchor="start" x="497.4673" y="-1599.5" font-family="FreeSans" font-size="10.00" fill="#000000">+ Format()</text>
<text text-anchor="start" x="497.4673" y="-1588.5" font-family="FreeSans" font-size="10.00" fill="#000000">+ FormatV()</text>
<text text-anchor="start" x="497.4673" y="-1577.5" font-family="FreeSans" font-size="10.00" fill="#000000">+ FromCDouble()</text>
<text text-anchor="start" x="497.4673" y="-1566.5" font-family="FreeSans" font-size="10.00" fill="#000000">+ FromDouble()</text>
<text text-anchor="start" x="497.4673" y="-1555.5" font-family="FreeSans" font-size="10.00" fill="#000000">+ From8BitData()</text>
<text text-anchor="start" x="497.4673" y="-1544.5" font-family="FreeSans" font-size="10.00" fill="#000000">+ From8BitData()</text>
<text text-anchor="start" x="497.4673" y="-1533.5" font-family="FreeSans" font-size="10.00" fill="#000000">+ FromAscii()</text>
<text text-anchor="start" x="497.4673" y="-1522.5" font-family="FreeSans" font-size="10.00" fill="#000000">+ FromAscii()</text>
<text text-anchor="start" x="497.4673" y="-1511.5" font-family="FreeSans" font-size="10.00" fill="#000000">and 7 more...</text>
</a>
</g>
</g>
<!-- Node10&#45;&gt;Node6 -->
<g id="edge16" class="edge">
<title>Node10&#45;&gt;Node6</title>
<path fill="none" stroke="#404040" d="M580.5369,-1551.3588C610.841,-1496.8182 647.9166,-1420.0786 663.9673,-1347 679.809,-1274.8732 684.8873,-913.9607 658.9673,-788 656.5599,-776.3008 653.5474,-764.4434 650.0932,-752.6059"/>
<polygon fill="none" stroke="#404040" points="649.9889,-752.2626 644.4164,-747.6858 646.4978,-740.7816 652.0704,-745.3584 649.9889,-752.2626"/>
<text text-anchor="middle" x="735.4673" y="-1142" font-family="FreeSans" font-size="10.00" fill="#000000"> &#45;m_Notes</text>
<text text-anchor="middle" x="735.4673" y="-1131" font-family="FreeSans" font-size="10.00" fill="#000000">&#45;m_Makefile</text>
<text text-anchor="middle" x="735.4673" y="-1120" font-family="FreeSans" font-size="10.00" fill="#000000">&#45;m_ActiveTarget</text>
<text text-anchor="middle" x="735.4673" y="-1109" font-family="FreeSans" font-size="10.00" fill="#000000">&#45;m_BasePath</text>
<text text-anchor="middle" x="735.4673" y="-1098" font-family="FreeSans" font-size="10.00" fill="#000000">&#45;m_DefaultExecuteTarget</text>
<text text-anchor="middle" x="735.4673" y="-1087" font-family="FreeSans" font-size="10.00" fill="#000000">&#45;m_LastSavedActiveTarget</text>
<text text-anchor="middle" x="735.4673" y="-1076" font-family="FreeSans" font-size="10.00" fill="#000000">&#45;m_MakefileExecutionDir</text>
<text text-anchor="middle" x="735.4673" y="-1065" font-family="FreeSans" font-size="10.00" fill="#000000">&#45;m_CommonTopLevelPath</text>
</g>
<!-- Node10&#45;&gt;Node7 -->
<g id="edge7" class="edge">
<title>Node10&#45;&gt;Node7</title>
<path fill="none" stroke="#404040" d="M537.4745,-1504.3339C539.6675,-1411.9341 543.3863,-1281.9445 548.9673,-1168 550.7453,-1131.7007 553.1539,-1092.4918 555.5984,-1056.062"/>
<polygon fill="none" stroke="#404040" points="555.6165,-1055.7948 552.0314,-1049.538 556.428,-1043.8223 560.0131,-1050.079 555.6165,-1055.7948"/>
<text text-anchor="middle" x="606.4673" y="-1310" font-family="FreeSans" font-size="10.00" fill="#000000"> #m_MakeCommands</text>
<text text-anchor="middle" x="606.4673" y="-1299" font-family="FreeSans" font-size="10.00" fill="#000000">#m_ImportLibraryFilename</text>
<text text-anchor="middle" x="606.4673" y="-1288" font-family="FreeSans" font-size="10.00" fill="#000000">#m_HostApplication</text>
<text text-anchor="middle" x="606.4673" y="-1277" font-family="FreeSans" font-size="10.00" fill="#000000">#m_DefinitionFileFilename</text>
<text text-anchor="middle" x="606.4673" y="-1266" font-family="FreeSans" font-size="10.00" fill="#000000">#m_CompilerId</text>
<text text-anchor="middle" x="606.4673" y="-1255" font-family="FreeSans" font-size="10.00" fill="#000000">#m_ExecutionParameters</text>
<text text-anchor="middle" x="606.4673" y="-1244" font-family="FreeSans" font-size="10.00" fill="#000000">#m_Filename</text>
<text text-anchor="middle" x="606.4673" y="-1233" font-family="FreeSans" font-size="10.00" fill="#000000">#m_ObjectOutput</text>
<text text-anchor="middle" x="606.4673" y="-1222" font-family="FreeSans" font-size="10.00" fill="#000000">#m_DepsOutput</text>
<text text-anchor="middle" x="606.4673" y="-1211" font-family="FreeSans" font-size="10.00" fill="#000000">#m_WorkingDir</text>
<text text-anchor="middle" x="606.4673" y="-1200" font-family="FreeSans" font-size="10.00" fill="#000000">...</text>
</g>
<!-- Node10&#45;&gt;Node11 -->
<g id="edge11" class="edge">
<title>Node10&#45;&gt;Node11</title>
<path fill="none" stroke="#404040" d="M489.2989,-1588.4027C459.5037,-1561.8855 421.2268,-1524.497 393.9673,-1486 382.6095,-1469.9599 333.9113,-1364.7847 305.5969,-1302.8623"/>
<polygon fill="none" stroke="#404040" points="305.5457,-1302.7502 299.4147,-1298.9541 300.5607,-1291.8346 306.6918,-1295.6308 305.5457,-1302.7502"/>
<text text-anchor="middle" x="407.9673" y="-1423" font-family="FreeSans" font-size="10.00" fill="#000000"> +keys</text>
</g>
<!-- Node14 -->
<g id="node12" class="node">
<title>Node14</title>
<g id="a_node12"><a xlink:href="structcbProject_1_1Glob" target="_top" xlink:title="{cbProject::Glob\n|+ m_Recursive\l|+ Glob()\l}">
<polygon fill="none" stroke="#000000" points="359.4673,-1229 359.4673,-1286 442.4673,-1286 442.4673,-1229 359.4673,-1229"/>
<text text-anchor="middle" x="400.9673" y="-1274" font-family="FreeSans" font-size="10.00" fill="#000000">cbProject::Glob</text>
<polyline fill="none" stroke="#000000" points="359.4673,-1267 442.4673,-1267 "/>
<text text-anchor="start" x="367.4673" y="-1255" font-family="FreeSans" font-size="10.00" fill="#000000">+ m_Recursive</text>
<polyline fill="none" stroke="#000000" points="359.4673,-1248 442.4673,-1248 "/>
<text text-anchor="start" x="367.4673" y="-1236" font-family="FreeSans" font-size="10.00" fill="#000000">+ Glob()</text>
</a>
</g>
</g>
<!-- Node10&#45;&gt;Node14 -->
<g id="edge15" class="edge">
<title>Node10&#45;&gt;Node14</title>
<path fill="none" stroke="#404040" d="M489.4146,-1546.1741C479.5271,-1526.8414 469.7213,-1505.9897 461.9673,-1486 437.2122,-1422.1809 418.8295,-1344.5767 409.0181,-1298.2076"/>
<polygon fill="none" stroke="#404040" points="408.9801,-1298.0248 403.8424,-1292.9647 406.5373,-1286.276 411.6749,-1291.3361 408.9801,-1298.0248"/>
<text text-anchor="middle" x="491.4673" y="-1428.5" font-family="FreeSans" font-size="10.00" fill="#000000"> +m_Path</text>
<text text-anchor="middle" x="491.4673" y="-1417.5" font-family="FreeSans" font-size="10.00" fill="#000000">+m_WildCard</text>
</g>
<!-- Node10&#45;&gt;Node15 -->
<g id="edge20" class="edge">
<title>Node10&#45;&gt;Node15</title>
<path fill="none" stroke="#404040" d="M580.7045,-1599.1601C664.4633,-1545.2208 833.9673,-1416.4296 833.9673,-1257.5 833.9673,-1257.5 833.9673,-1257.5 833.9673,-563.5 833.9673,-490.0606 809.2133,-411.923 783.1909,-350.0712"/>
<polygon fill="none" stroke="#404040" points="783.0513,-349.7456 777.0107,-345.8072 778.3228,-338.7164 784.3635,-342.6548 783.0513,-349.7456"/>
<text text-anchor="middle" x="889.9673" y="-919" font-family="FreeSans" font-size="10.00" fill="#000000"> &#45;m_AdditionalOutputFiles</text>
<text text-anchor="middle" x="889.9673" y="-908" font-family="FreeSans" font-size="10.00" fill="#000000">&#45;m_ExternalDeps</text>
</g>
<!-- Node11&#45;&gt;Node6 -->
<g id="edge9" class="edge">
<title>Node11&#45;&gt;Node6</title>
<path fill="none" stroke="#404040" d="M259.7244,-1223.2669C219.3684,-1168.1908 144.1979,-1064.0359 137.9673,-1044 104.1816,-935.3542 63.4383,-873.9698 137.9673,-788 183.9393,-734.971 385.0407,-778.1033 464.5178,-740.2084"/>
<polygon fill="none" stroke="#404040" points="464.9189,-739.9784 468.1337,-733.5236 475.3285,-734.0084 472.1137,-740.4633 464.9189,-739.9784"/>
<text text-anchor="middle" x="177.4673" y="-913.5" font-family="FreeSans" font-size="10.00" fill="#000000"> &#45;m_VirtualTargets</text>
</g>
<!-- Node12 -->
<g id="node10" class="node">
<title>Node12</title>
<g id="a_node10"><a doxygen="/media/alpha/Barracuda/cb_docs/src/wxTagFile.xml:http://docs.wxwidgets.org/3.0/" xlink:href="http://docs.wxwidgets.org/3.0/classwx_date_time.html" target="_top" xlink:title="{wxDateTime\n||+ wxDateTime()\l+ wxDateTime()\l+ wxDateTime()\l+ wxDateTime()\l+ wxDateTime()\l+ wxDateTime()\l+ wxDateTime()\l+ wxDateTime()\land 107 more...\l+ ConvertYearToBC()\l+ GetAmPmStrings()\l+ GetBeginDST()\l+ GetEndDST()\l+ GetCentury()\l+ GetCountry()\l+ GetCurrentMonth()\l+ GetCurrentYear()\land 17 more...\l}">
<polygon fill="none" stroke="#000000" points="354.4673,-794 354.4673,-1038 463.4673,-1038 463.4673,-794 354.4673,-794"/>
<text text-anchor="middle" x="408.9673" y="-1026" font-family="FreeSans" font-size="10.00" fill="#000000">wxDateTime</text>
<polyline fill="none" stroke="#000000" points="354.4673,-1019 463.4673,-1019 "/>
<text text-anchor="middle" x="408.9673" y="-1007" font-family="FreeSans" font-size="10.00" fill="#000000"> </text>
<polyline fill="none" stroke="#000000" points="354.4673,-1000 463.4673,-1000 "/>
<text text-anchor="start" x="362.4673" y="-988" font-family="FreeSans" font-size="10.00" fill="#000000">+ wxDateTime()</text>
<text text-anchor="start" x="362.4673" y="-977" font-family="FreeSans" font-size="10.00" fill="#000000">+ wxDateTime()</text>
<text text-anchor="start" x="362.4673" y="-966" font-family="FreeSans" font-size="10.00" fill="#000000">+ wxDateTime()</text>
<text text-anchor="start" x="362.4673" y="-955" font-family="FreeSans" font-size="10.00" fill="#000000">+ wxDateTime()</text>
<text text-anchor="start" x="362.4673" y="-944" font-family="FreeSans" font-size="10.00" fill="#000000">+ wxDateTime()</text>
<text text-anchor="start" x="362.4673" y="-933" font-family="FreeSans" font-size="10.00" fill="#000000">+ wxDateTime()</text>
<text text-anchor="start" x="362.4673" y="-922" font-family="FreeSans" font-size="10.00" fill="#000000">+ wxDateTime()</text>
<text text-anchor="start" x="362.4673" y="-911" font-family="FreeSans" font-size="10.00" fill="#000000">+ wxDateTime()</text>
<text text-anchor="start" x="362.4673" y="-900" font-family="FreeSans" font-size="10.00" fill="#000000">and 107 more...</text>
<text text-anchor="start" x="362.4673" y="-889" font-family="FreeSans" font-size="10.00" fill="#000000">+ ConvertYearToBC()</text>
<text text-anchor="start" x="362.4673" y="-878" font-family="FreeSans" font-size="10.00" fill="#000000">+ GetAmPmStrings()</text>
<text text-anchor="start" x="362.4673" y="-867" font-family="FreeSans" font-size="10.00" fill="#000000">+ GetBeginDST()</text>
<text text-anchor="start" x="362.4673" y="-856" font-family="FreeSans" font-size="10.00" fill="#000000">+ GetEndDST()</text>
<text text-anchor="start" x="362.4673" y="-845" font-family="FreeSans" font-size="10.00" fill="#000000">+ GetCentury()</text>
<text text-anchor="start" x="362.4673" y="-834" font-family="FreeSans" font-size="10.00" fill="#000000">+ GetCountry()</text>
<text text-anchor="start" x="362.4673" y="-823" font-family="FreeSans" font-size="10.00" fill="#000000">+ GetCurrentMonth()</text>
<text text-anchor="start" x="362.4673" y="-812" font-family="FreeSans" font-size="10.00" fill="#000000">+ GetCurrentYear()</text>
<text text-anchor="start" x="362.4673" y="-801" font-family="FreeSans" font-size="10.00" fill="#000000">and 17 more...</text>
</a>
</g>
</g>
<!-- Node12&#45;&gt;Node6 -->
<g id="edge12" class="edge">
<title>Node12&#45;&gt;Node6</title>
<path fill="none" stroke="#404040" d="M463.4377,-793.7019C469.4826,-780.1297 475.7379,-766.0851 482.0401,-751.9353"/>
<polygon fill="none" stroke="#404040" points="482.2189,-751.5338 481.0061,-744.4254 487.1013,-740.5719 488.314,-747.6803 482.2189,-751.5338"/>
<text text-anchor="middle" x="515.4673" y="-762" font-family="FreeSans" font-size="10.00" fill="#000000"> &#45;m_LastModified</text>
</g>
<!-- Node13 -->
<g id="node11" class="node">
<title>Node13</title>
<polygon fill="none" stroke="#bfbfbf" points="225.9673,-882 225.9673,-950 335.9673,-950 335.9673,-882 225.9673,-882"/>
<text text-anchor="start" x="233.9673" y="-938" font-family="FreeSans" font-size="10.00" fill="#000000">std::vector&lt; cbProject</text>
<text text-anchor="middle" x="280.9673" y="-927" font-family="FreeSans" font-size="10.00" fill="#000000">::Glob &gt;</text>
<polyline fill="none" stroke="#bfbfbf" points="225.9673,-920 335.9673,-920 "/>
<text text-anchor="middle" x="280.9673" y="-908" font-family="FreeSans" font-size="10.00" fill="#000000"> </text>
<polyline fill="none" stroke="#bfbfbf" points="225.9673,-901 335.9673,-901 "/>
<text text-anchor="middle" x="280.9673" y="-889" font-family="FreeSans" font-size="10.00" fill="#000000"> </text>
</g>
<!-- Node13&#45;&gt;Node6 -->
<g id="edge13" class="edge">
<title>Node13&#45;&gt;Node6</title>
<path fill="none" stroke="#404040" d="M290.4381,-881.8147C299.9499,-853.2576 317.233,-813.2641 344.9673,-788 366.2922,-768.5745 444.1691,-759.8927 465.9673,-741 466.1678,-740.8263 466.368,-740.652 466.5678,-740.4773"/>
<polygon fill="none" stroke="#404040" points="466.5708,-740.4744 468.231,-733.457 475.3471,-732.2904 473.687,-739.3079 466.5708,-740.4744"/>
<text text-anchor="middle" x="445.9673" y="-762" font-family="FreeSans" font-size="10.00" fill="#000000"> &#45;m_Globs</text>
</g>
<!-- Node14&#45;&gt;Node13 -->
<g id="edge14" class="edge">
<title>Node14&#45;&gt;Node13</title>
<path fill="none" stroke="#404040" d="M390.9426,-1228.9713C370.1755,-1169.8714 322.2946,-1033.6103 297.1146,-961.9525"/>
<polygon fill="none" stroke="#404040" points="296.9604,-961.5135 291.1975,-957.1789 292.9821,-950.1921 298.7451,-954.5267 296.9604,-961.5135"/>
<text text-anchor="middle" x="386.9673" y="-1103.5" font-family="FreeSans" font-size="10.00" fill="#000000"> +elements</text>
</g>
<!-- Node15&#45;&gt;Node3 -->
<g id="edge22" class="edge">
<title>Node15&#45;&gt;Node3</title>
<path fill="none" stroke="#404040" d="M654.4048,-160.035C631.5069,-136.017 606.634,-109.9275 585.944,-88.2256"/>
<polygon fill="none" stroke="#404040" points="585.9269,-88.2076 578.8916,-86.625 577.6465,-79.5222 584.6818,-81.1047 585.9269,-88.2076"/>
<text text-anchor="middle" x="628.4673" y="-101" font-family="FreeSans" font-size="10.00" fill="#000000"> &#45;m_Target</text>
</g>
<!-- Node15&#45;&gt;Node6 -->
<g id="edge17" class="edge">
<title>Node15&#45;&gt;Node6</title>
<path fill="none" stroke="#404040" d="M654.2221,-289.6256C615.6509,-321.1117 575.2126,-354.4825 573.9673,-357 571.1562,-362.683 568.6951,-368.5654 566.549,-374.5926"/>
<polygon fill="none" stroke="#404040" points="566.4464,-374.9146 568.4348,-381.8461 562.8011,-386.3475 560.8128,-379.4159 566.4464,-374.9146"/>
<text text-anchor="middle" x="637.9673" y="-360" font-family="FreeSans" font-size="10.00" fill="#000000"> &#45;m_CurrentlyCompilingTarget</text>
</g>
<!-- Node16 -->
<g id="node14" class="node">
<title>Node16</title>
<g id="a_node14"><a doxygen="/media/alpha/Barracuda/cb_docs/src/wxTagFile.xml:http://docs.wxwidgets.org/3.0/" xlink:href="http://docs.wxwidgets.org/3.0/classwx_tree_item_id.html" target="_top" xlink:title="{wxTreeItemId\n||+ wxTreeItemId()\l+ IsOk()\l+ GetID()\l+ Unset()\l}">
<polygon fill="none" stroke="#000000" points="706.4673,-871 706.4673,-961 795.4673,-961 795.4673,-871 706.4673,-871"/>
<text text-anchor="middle" x="750.9673" y="-949" font-family="FreeSans" font-size="10.00" fill="#000000">wxTreeItemId</text>
<polyline fill="none" stroke="#000000" points="706.4673,-942 795.4673,-942 "/>
<text text-anchor="middle" x="750.9673" y="-930" font-family="FreeSans" font-size="10.00" fill="#000000"> </text>
<polyline fill="none" stroke="#000000" points="706.4673,-923 795.4673,-923 "/>
<text text-anchor="start" x="714.4673" y="-911" font-family="FreeSans" font-size="10.00" fill="#000000">+ wxTreeItemId()</text>
<text text-anchor="start" x="714.4673" y="-900" font-family="FreeSans" font-size="10.00" fill="#000000">+ IsOk()</text>
<text text-anchor="start" x="714.4673" y="-889" font-family="FreeSans" font-size="10.00" fill="#000000">+ GetID()</text>
<text text-anchor="start" x="714.4673" y="-878" font-family="FreeSans" font-size="10.00" fill="#000000">+ Unset()</text>
</a>
</g>
</g>
<!-- Node16&#45;&gt;Node6 -->
<g id="edge21" class="edge">
<title>Node16&#45;&gt;Node6</title>
<path fill="none" stroke="#404040" d="M734.4495,-870.8287C722.2825,-838.9883 704.6609,-795.6626 685.9673,-759 678.7253,-744.7966 670.8137,-730.2545 662.6191,-715.8271"/>
<polygon fill="none" stroke="#404040" points="662.5791,-715.7573 656.1238,-712.5433 656.6077,-705.3485 663.063,-708.5624 662.5791,-715.7573"/>
<text text-anchor="middle" x="726.4673" y="-762" font-family="FreeSans" font-size="10.00" fill="#000000"> &#45;m_ProjectNode</text>
</g>
</g>
</svg>
