<?xml version="1.0" encoding="UTF-8" standalone="no"?>
<!DOCTYPE svg PUBLIC "-//W3C//DTD SVG 1.1//EN"
 "http://www.w3.org/Graphics/SVG/1.1/DTD/svg11.dtd">
<!-- Generated by graphviz version 2.38.0 (20140413.2041)
 -->
<!-- Title: CCLogger Pages: 1 -->
<svg width="146pt" height="292pt"
 viewBox="0.00 0.00 146.00 292.00" xmlns="http://www.w3.org/2000/svg" xmlns:xlink="http://www.w3.org/1999/xlink">
<g id="graph0" class="graph" transform="scale(1 1) rotate(0) translate(4 288)">
<title>CCLogger</title>
<!-- Node1 -->
<g id="node1" class="node"><title>Node1</title>
<polygon fill="#bfbfbf" stroke="black" points="25,-105.5 25,-283.5 113,-283.5 113,-105.5 25,-105.5"/>
<text text-anchor="middle" x="69" y="-271.5" font-family="FreeSans" font-size="10.00">CCLogger</text>
<polyline fill="none" stroke="black" points="25,-264.5 113,-264.5 "/>
<text text-anchor="start" x="33" y="-252.5" font-family="FreeSans" font-size="10.00">&#45; m_Parent</text>
<text text-anchor="start" x="33" y="-241.5" font-family="FreeSans" font-size="10.00">&#45; m_LogId</text>
<text text-anchor="start" x="33" y="-230.5" font-family="FreeSans" font-size="10.00">&#45; m_DebugLogId</text>
<text text-anchor="start" x="33" y="-219.5" font-family="FreeSans" font-size="10.00">&#45; m_AddTokenId</text>
<polyline fill="none" stroke="black" points="25,-212.5 113,-212.5 "/>
<text text-anchor="start" x="33" y="-200.5" font-family="FreeSans" font-size="10.00">+ Init()</text>
<text text-anchor="start" x="33" y="-189.5" font-family="FreeSans" font-size="10.00">+ AddToken()</text>
<text text-anchor="start" x="33" y="-178.5" font-family="FreeSans" font-size="10.00">+ Log()</text>
<text text-anchor="start" x="33" y="-167.5" font-family="FreeSans" font-size="10.00">+ DebugLog()</text>
<text text-anchor="start" x="33" y="-156.5" font-family="FreeSans" font-size="10.00">+ Get()</text>
<text text-anchor="start" x="33" y="-145.5" font-family="FreeSans" font-size="10.00"># CCLogger()</text>
<text text-anchor="start" x="33" y="-134.5" font-family="FreeSans" font-size="10.00"># ~CCLogger()</text>
<text text-anchor="start" x="33" y="-123.5" font-family="FreeSans" font-size="10.00"># CCLogger()</text>
<text text-anchor="start" x="33" y="-112.5" font-family="FreeSans" font-size="10.00"># operator=()</text>
</g>
<!-- Node2 -->
<g id="node2" class="node"><title>Node2</title>
<polygon fill="none" stroke="#bfbfbf" points="0,-0.5 0,-57.5 138,-57.5 138,-0.5 0,-0.5"/>
<text text-anchor="middle" x="69" y="-45.5" font-family="FreeSans" font-size="10.00">std::unique_ptr&lt; CCLogger &gt;</text>
<polyline fill="none" stroke="#bfbfbf" points="0,-38.5 138,-38.5 "/>
<text text-anchor="middle" x="69" y="-26.5" font-family="FreeSans" font-size="10.00"> </text>
<polyline fill="none" stroke="#bfbfbf" points="0,-19.5 138,-19.5 "/>
<text text-anchor="start" x="8" y="-7.5" font-family="FreeSans" font-size="10.00">+ operator&#45;&gt;()</text>
</g>
<!-- Node1&#45;&gt;Node2 -->
<g id="edge2" class="edge"><title>Node1&#45;&gt;Node2</title>
<path fill="none" stroke="#404040" d="M42.4703,-105.431C42.004,-95.479 42.6697,-85.5041 45,-76 45.5631,-73.7035 46.263,-71.3943 47.0658,-69.0992"/>
<polygon fill="none" stroke="#404040" points="47.1368,-68.9298 45.7699,-61.8494 51.7799,-57.8644 53.1468,-64.9448 47.1368,-68.9298"/>
<text text-anchor="middle" x="55" y="-79" font-family="FreeSans" font-size="10.00"> +ptr</text>
</g>
<!-- Node2&#45;&gt;Node1 -->
<g id="edge1" class="edge"><title>Node2&#45;&gt;Node1</title>
<path fill="none" stroke="#404040" d="M69,-57.8224C69,-67.9118 69,-79.9797 69,-92.6993"/>
<polygon fill="none" stroke="#404040" points="69.0001,-93.0506 73,-99.0507 69,-105.051 65,-99.0506 69.0001,-93.0506"/>
<text text-anchor="middle" x="86" y="-79" font-family="FreeSans" font-size="10.00"> #s_Inst</text>
</g>
</g>
</svg>
