<?xml version="1.0" encoding="UTF-8" standalone="no"?>
<!DOCTYPE svg PUBLIC "-//W3C//DTD SVG 1.1//EN"
 "http://www.w3.org/Graphics/SVG/1.1/DTD/svg11.dtd">
<!-- Generated by graphviz version 2.38.0 (20140413.2041)
 -->
<!-- Title: UserVariableManager Pages: 1 -->
<svg width="149pt" height="347pt"
 viewBox="0.00 0.00 149.00 347.00" xmlns="http://www.w3.org/2000/svg" xmlns:xlink="http://www.w3.org/1999/xlink">
<g id="graph0" class="graph" transform="scale(1 1) rotate(0) translate(4 343)">
<title>UserVariableManager</title>
<!-- Node1 -->
<g id="node1" class="node"><title>Node1</title>
<polygon fill="#bfbfbf" stroke="black" points="9.5,-0.5 9.5,-167.5 131.5,-167.5 131.5,-0.5 9.5,-0.5"/>
<text text-anchor="middle" x="70.5" y="-155.5" font-family="FreeSans" font-size="10.00">UserVariableManager</text>
<polyline fill="none" stroke="black" points="9.5,-148.5 131.5,-148.5 "/>
<text text-anchor="start" x="17.5" y="-136.5" font-family="FreeSans" font-size="10.00">&#45; m_CfgMan</text>
<text text-anchor="start" x="17.5" y="-125.5" font-family="FreeSans" font-size="10.00">&#45; m_ActiveSet</text>
<text text-anchor="start" x="17.5" y="-114.5" font-family="FreeSans" font-size="10.00">&#45; m_Preempted</text>
<polyline fill="none" stroke="black" points="9.5,-107.5 131.5,-107.5 "/>
<text text-anchor="start" x="17.5" y="-95.5" font-family="FreeSans" font-size="10.00">+ UserVariableManager()</text>
<text text-anchor="start" x="17.5" y="-84.5" font-family="FreeSans" font-size="10.00">+ Replace()</text>
<text text-anchor="start" x="17.5" y="-73.5" font-family="FreeSans" font-size="10.00">+ Preempt()</text>
<text text-anchor="start" x="17.5" y="-62.5" font-family="FreeSans" font-size="10.00">+ Arrogate()</text>
<text text-anchor="start" x="17.5" y="-51.5" font-family="FreeSans" font-size="10.00">+ Exists()</text>
<text text-anchor="start" x="17.5" y="-40.5" font-family="FreeSans" font-size="10.00">+ Configure()</text>
<text text-anchor="start" x="17.5" y="-29.5" font-family="FreeSans" font-size="10.00">+ Migrate()</text>
<text text-anchor="start" x="17.5" y="-18.5" font-family="FreeSans" font-size="10.00">+ operator=()</text>
<text text-anchor="start" x="17.5" y="-7.5" font-family="FreeSans" font-size="10.00">&#45; UserVariableManager()</text>
</g>
<!-- Node2 -->
<g id="node2" class="node"><title>Node2</title>
<g id="a_node2"><a xlink:href="classMgr" target="_top" xlink:title="{Mgr\&lt; UserVariableManager \&gt;\n|&#45; instance\l&#45; isShutdown\l|+ Valid()\l+ Get()\l+ Free()\l# Mgr()\l# ~Mgr()\l&#45; Mgr()\l&#45; operator=()\l}">
<polygon fill="none" stroke="black" points="0,-204.5 0,-338.5 141,-338.5 141,-204.5 0,-204.5"/>
<text text-anchor="middle" x="70.5" y="-326.5" font-family="FreeSans" font-size="10.00">Mgr&lt; UserVariableManager &gt;</text>
<polyline fill="none" stroke="black" points="0,-319.5 141,-319.5 "/>
<text text-anchor="start" x="8" y="-307.5" font-family="FreeSans" font-size="10.00">&#45; instance</text>
<text text-anchor="start" x="8" y="-296.5" font-family="FreeSans" font-size="10.00">&#45; isShutdown</text>
<polyline fill="none" stroke="black" points="0,-289.5 141,-289.5 "/>
<text text-anchor="start" x="8" y="-277.5" font-family="FreeSans" font-size="10.00">+ Valid()</text>
<text text-anchor="start" x="8" y="-266.5" font-family="FreeSans" font-size="10.00">+ Get()</text>
<text text-anchor="start" x="8" y="-255.5" font-family="FreeSans" font-size="10.00">+ Free()</text>
<text text-anchor="start" x="8" y="-244.5" font-family="FreeSans" font-size="10.00"># Mgr()</text>
<text text-anchor="start" x="8" y="-233.5" font-family="FreeSans" font-size="10.00"># ~Mgr()</text>
<text text-anchor="start" x="8" y="-222.5" font-family="FreeSans" font-size="10.00">&#45; Mgr()</text>
<text text-anchor="start" x="8" y="-211.5" font-family="FreeSans" font-size="10.00">&#45; operator=()</text>
</a>
</g>
</g>
<!-- Node2&#45;&gt;Node1 -->
<g id="edge1" class="edge"><title>Node2&#45;&gt;Node1</title>
<path fill="none" stroke="midnightblue" d="M70.5,-194.177C70.5,-185.445 70.5,-176.512 70.5,-167.702"/>
<polygon fill="none" stroke="midnightblue" points="67.0001,-194.316 70.5,-204.316 74.0001,-194.316 67.0001,-194.316"/>
</g>
</g>
</svg>
