<?xml version="1.0" encoding="UTF-8" standalone="no"?>
<!DOCTYPE svg PUBLIC "-//W3C//DTD SVG 1.1//EN"
 "http://www.w3.org/Graphics/SVG/1.1/DTD/svg11.dtd">
<!-- Generated by graphviz version 2.38.0 (20140413.2041)
 -->
<!-- Title: classbrowser.h Pages: 1 -->
<svg width="2766pt" height="644pt"
 viewBox="0.00 0.00 2766.00 644.00" xmlns="http://www.w3.org/2000/svg" xmlns:xlink="http://www.w3.org/1999/xlink">
<g id="graph0" class="graph" transform="scale(1 1) rotate(0) translate(4 640)">
<title>classbrowser.h</title>
<polygon fill="white" stroke="none" points="-4,4 -4,-640 2762,-640 2762,4 -4,4"/>
<!-- Node1 -->
<g id="node1" class="node"><title>Node1</title>
<polygon fill="#bfbfbf" stroke="black" points="500.5,-616.5 500.5,-635.5 579.5,-635.5 579.5,-616.5 500.5,-616.5"/>
<text text-anchor="middle" x="540" y="-623.5" font-family="FreeSans" font-size="10.00">classbrowser.h</text>
</g>
<!-- Node2 -->
<g id="node2" class="node"><title>Node2</title>
<polygon fill="white" stroke="#bfbfbf" points="0,-560.5 0,-579.5 62,-579.5 62,-560.5 0,-560.5"/>
<text text-anchor="middle" x="31" y="-567.5" font-family="FreeSans" font-size="10.00">wx/panel.h</text>
</g>
<!-- Node1&#45;&gt;Node2 -->
<g id="edge1" class="edge"><title>Node1&#45;&gt;Node2</title>
<path fill="none" stroke="midnightblue" d="M500.421,-622.512C420.1,-617.165 232.318,-603.152 76,-580 74.8966,-579.837 73.7793,-579.664 72.653,-579.484"/>
<polygon fill="midnightblue" stroke="midnightblue" points="72.8529,-575.966 62.4008,-577.7 71.6524,-582.863 72.8529,-575.966"/>
</g>
<!-- Node3 -->
<g id="node3" class="node"><title>Node3</title>
<g id="a_node3"><a xlink:href="settings_8h.xhtml" target="_top" xlink:title="settings.h">
<polygon fill="white" stroke="black" points="268.5,-0.5 268.5,-19.5 325.5,-19.5 325.5,-0.5 268.5,-0.5"/>
<text text-anchor="middle" x="297" y="-7.5" font-family="FreeSans" font-size="10.00">settings.h</text>
</a>
</g>
</g>
<!-- Node1&#45;&gt;Node3 -->
<g id="edge2" class="edge"><title>Node1&#45;&gt;Node3</title>
<path fill="none" stroke="midnightblue" d="M500.354,-623.086C416.959,-618.598 226.208,-605.774 167,-580 125.937,-562.124 90,-559.785 90,-515 90,-515 90,-515 90,-121 90,-83.2023 198.985,-42.342 258.796,-22.764"/>
<polygon fill="midnightblue" stroke="midnightblue" points="260.209,-25.9857 268.652,-19.5845 258.06,-19.3237 260.209,-25.9857"/>
</g>
<!-- Node4 -->
<g id="node4" class="node"><title>Node4</title>
<g id="a_node4"><a xlink:href="cbplugin_8h.xhtml" target="_top" xlink:title="cbplugin.h">
<polygon fill="white" stroke="black" points="378,-280.5 378,-299.5 438,-299.5 438,-280.5 378,-280.5"/>
<text text-anchor="middle" x="408" y="-287.5" font-family="FreeSans" font-size="10.00">cbplugin.h</text>
</a>
</g>
</g>
<!-- Node1&#45;&gt;Node4 -->
<g id="edge3" class="edge"><title>Node1&#45;&gt;Node4</title>
<path fill="none" stroke="midnightblue" d="M527.188,-616.388C504.125,-599.742 458,-560.734 458,-515 458,-515 458,-515 458,-401 458,-365.184 435.76,-328.214 420.945,-307.56"/>
<polygon fill="midnightblue" stroke="midnightblue" points="423.735,-305.446 414.952,-299.519 418.122,-309.629 423.735,-305.446"/>
</g>
<!-- Node18 -->
<g id="node18" class="node"><title>Node18</title>
<g id="a_node18"><a xlink:href="manager_8h.xhtml" target="_top" xlink:title="manager.h">
<polygon fill="white" stroke="black" points="308,-112.5 308,-131.5 370,-131.5 370,-112.5 308,-112.5"/>
<text text-anchor="middle" x="339" y="-119.5" font-family="FreeSans" font-size="10.00">manager.h</text>
</a>
</g>
</g>
<!-- Node1&#45;&gt;Node18 -->
<g id="edge44" class="edge"><title>Node1&#45;&gt;Node18</title>
<path fill="none" stroke="midnightblue" d="M500.496,-622.874C397.375,-616.253 128,-591.624 128,-515 128,-515 128,-515 128,-289 128,-203.346 236.73,-155.124 298.086,-134.731"/>
<polygon fill="midnightblue" stroke="midnightblue" points="299.42,-137.979 307.866,-131.583 297.275,-131.316 299.42,-137.979"/>
</g>
<!-- Node26 -->
<g id="node26" class="node"><title>Node26</title>
<g id="a_node26"><a xlink:href="cctreectrl_8h.xhtml" target="_top" xlink:title="cctreectrl.h">
<polygon fill="white" stroke="black" points="717.5,-504.5 717.5,-523.5 782.5,-523.5 782.5,-504.5 717.5,-504.5"/>
<text text-anchor="middle" x="750" y="-511.5" font-family="FreeSans" font-size="10.00">cctreectrl.h</text>
</a>
</g>
</g>
<!-- Node1&#45;&gt;Node26 -->
<g id="edge45" class="edge"><title>Node1&#45;&gt;Node26</title>
<path fill="none" stroke="midnightblue" d="M556.478,-616.368C592.974,-597.251 680.836,-551.229 724.493,-528.361"/>
<polygon fill="midnightblue" stroke="midnightblue" points="726.364,-531.332 733.598,-523.591 723.116,-525.131 726.364,-531.332"/>
</g>
<!-- Node28 -->
<g id="node28" class="node"><title>Node28</title>
<g id="a_node28"><a xlink:href="parser_8h.xhtml" target="_top" xlink:title="parser/parser.h">
<polygon fill="white" stroke="black" points="1174,-448.5 1174,-467.5 1254,-467.5 1254,-448.5 1174,-448.5"/>
<text text-anchor="middle" x="1214" y="-455.5" font-family="FreeSans" font-size="10.00">parser/parser.h</text>
</a>
</g>
</g>
<!-- Node1&#45;&gt;Node28 -->
<g id="edge143" class="edge"><title>Node1&#45;&gt;Node28</title>
<path fill="none" stroke="midnightblue" d="M574.818,-616.425C687.692,-588.625 1043.46,-501.003 1169.33,-470.002"/>
<polygon fill="midnightblue" stroke="midnightblue" points="1170.52,-473.314 1179.39,-467.524 1168.84,-466.517 1170.52,-473.314"/>
</g>
<!-- Node45 -->
<g id="node45" class="node"><title>Node45</title>
<g id="a_node45"><a xlink:href="token_8h.xhtml" target="_top" xlink:title="token.h">
<polygon fill="white" stroke="black" points="1139,-224.5 1139,-243.5 1187,-243.5 1187,-224.5 1139,-224.5"/>
<text text-anchor="middle" x="1163" y="-231.5" font-family="FreeSans" font-size="10.00">token.h</text>
</a>
</g>
</g>
<!-- Node1&#45;&gt;Node45 -->
<g id="edge144" class="edge"><title>Node1&#45;&gt;Node45</title>
<path fill="none" stroke="midnightblue" d="M542.697,-616.258C548.156,-597.765 560,-553.238 560,-515 560,-515 560,-515 560,-401 560,-282.173 1000.77,-245.192 1128.63,-236.964"/>
<polygon fill="midnightblue" stroke="midnightblue" points="1129.23,-240.433 1138.99,-236.317 1128.79,-233.447 1129.23,-240.433"/>
</g>
<!-- Node48 -->
<g id="node48" class="node"><title>Node48</title>
<g id="a_node48"><a xlink:href="classbrowserbuilderthread_8h.xhtml" target="_top" xlink:title="classbrowserbuilderthread.h">
<polygon fill="white" stroke="black" points="1006,-560.5 1006,-579.5 1140,-579.5 1140,-560.5 1006,-560.5"/>
<text text-anchor="middle" x="1073" y="-567.5" font-family="FreeSans" font-size="10.00">classbrowserbuilderthread.h</text>
</a>
</g>
</g>
<!-- Node1&#45;&gt;Node48 -->
<g id="edge126" class="edge"><title>Node1&#45;&gt;Node48</title>
<path fill="none" stroke="midnightblue" d="M579.626,-620.985C667.564,-612.076 880.345,-590.518 995.646,-578.837"/>
<polygon fill="midnightblue" stroke="midnightblue" points="996.217,-582.297 1005.81,-577.807 995.511,-575.333 996.217,-582.297"/>
</g>
<!-- Node4&#45;&gt;Node3 -->
<g id="edge8" class="edge"><title>Node4&#45;&gt;Node3</title>
<path fill="none" stroke="midnightblue" d="M377.727,-288.249C321.106,-284.927 201.676,-268.297 166,-188 135.795,-120.015 227.201,-53.1145 272.79,-24.9315"/>
<polygon fill="midnightblue" stroke="midnightblue" points="274.753,-27.8347 281.505,-19.6702 271.136,-21.8421 274.753,-27.8347"/>
</g>
<!-- Node5 -->
<g id="node5" class="node"><title>Node5</title>
<polygon fill="white" stroke="#bfbfbf" points="1020,-168.5 1020,-187.5 1080,-187.5 1080,-168.5 1020,-168.5"/>
<text text-anchor="middle" x="1050" y="-175.5" font-family="FreeSans" font-size="10.00">wx/arrstr.h</text>
</g>
<!-- Node4&#45;&gt;Node5 -->
<g id="edge4" class="edge"><title>Node4&#45;&gt;Node5</title>
<path fill="none" stroke="midnightblue" d="M438.185,-288.361C511.249,-286.304 703.091,-277.84 859,-244 917.51,-231.3 983.037,-206.582 1020.13,-191.556"/>
<polygon fill="midnightblue" stroke="midnightblue" points="1021.88,-194.621 1029.8,-187.593 1019.22,-188.144 1021.88,-194.621"/>
</g>
<!-- Node6 -->
<g id="node6" class="node"><title>Node6</title>
<polygon fill="white" stroke="#bfbfbf" points="2010,-0.5 2010,-19.5 2072,-19.5 2072,-0.5 2010,-0.5"/>
<text text-anchor="middle" x="2041" y="-7.5" font-family="FreeSans" font-size="10.00">wx/event.h</text>
</g>
<!-- Node4&#45;&gt;Node6 -->
<g id="edge5" class="edge"><title>Node4&#45;&gt;Node6</title>
<path fill="none" stroke="midnightblue" d="M404.672,-280.274C393.873,-250.329 363.496,-151.425 417,-112 496.41,-53.4862 538.862,-93.1455 636,-76 683.213,-67.6667 694.35,-61.2896 742,-56 994.309,-27.9911 1806.53,-14.4555 1999.56,-11.5878"/>
<polygon fill="midnightblue" stroke="midnightblue" points="1999.89,-15.0834 2009.84,-11.4365 1999.78,-8.08416 1999.89,-15.0834"/>
</g>
<!-- Node7 -->
<g id="node7" class="node"><title>Node7</title>
<polygon fill="white" stroke="#bfbfbf" points="178.5,-0.5 178.5,-19.5 229.5,-19.5 229.5,-0.5 178.5,-0.5"/>
<text text-anchor="middle" x="204" y="-7.5" font-family="FreeSans" font-size="10.00">wx/intl.h</text>
</g>
<!-- Node4&#45;&gt;Node7 -->
<g id="edge6" class="edge"><title>Node4&#45;&gt;Node7</title>
<path fill="none" stroke="midnightblue" d="M377.648,-289.751C332.667,-289.421 247.352,-283.127 189,-244 114.261,-193.885 102.253,-162.071 76,-76 73.4067,-67.4978 70.8616,-63.2532 76,-56 96.768,-26.6847 138.223,-16.3274 168.344,-12.7441"/>
<polygon fill="midnightblue" stroke="midnightblue" points="168.867,-16.2094 178.473,-11.7391 168.176,-9.2436 168.867,-16.2094"/>
</g>
<!-- Node8 -->
<g id="node8" class="node"><title>Node8</title>
<polygon fill="white" stroke="#bfbfbf" points="1288,-112.5 1288,-131.5 1350,-131.5 1350,-112.5 1288,-112.5"/>
<text text-anchor="middle" x="1319" y="-119.5" font-family="FreeSans" font-size="10.00">wx/string.h</text>
</g>
<!-- Node4&#45;&gt;Node8 -->
<g id="edge7" class="edge"><title>Node4&#45;&gt;Node8</title>
<path fill="none" stroke="midnightblue" d="M438.089,-284.147C486.582,-276.246 584.987,-259.884 668,-244 787.088,-221.213 819.946,-226.261 935,-188 955,-181.349 957.763,-173.891 978,-168 1083.09,-137.407 1212.51,-127.554 1277.54,-124.424"/>
<polygon fill="midnightblue" stroke="midnightblue" points="1277.95,-127.909 1287.79,-123.962 1277.64,-120.916 1277.95,-127.909"/>
</g>
<!-- Node9 -->
<g id="node9" class="node"><title>Node9</title>
<g id="a_node9"><a xlink:href="globals_8h.xhtml" target="_top" xlink:title="globals.h">
<polygon fill="white" stroke="black" points="398,-168.5 398,-187.5 452,-187.5 452,-168.5 398,-168.5"/>
<text text-anchor="middle" x="425" y="-175.5" font-family="FreeSans" font-size="10.00">globals.h</text>
</a>
</g>
</g>
<!-- Node4&#45;&gt;Node9 -->
<g id="edge9" class="edge"><title>Node4&#45;&gt;Node9</title>
<path fill="none" stroke="midnightblue" d="M409.334,-280.368C412.077,-262.617 418.406,-221.666 422.126,-197.597"/>
<polygon fill="midnightblue" stroke="midnightblue" points="425.604,-198.009 423.672,-187.591 418.686,-196.94 425.604,-198.009"/>
</g>
<!-- Node16 -->
<g id="node16" class="node"><title>Node16</title>
<g id="a_node16"><a xlink:href="logger_8h.xhtml" target="_top" xlink:title="logger.h">
<polygon fill="white" stroke="black" points="876,-168.5 876,-187.5 926,-187.5 926,-168.5 876,-168.5"/>
<text text-anchor="middle" x="901" y="-175.5" font-family="FreeSans" font-size="10.00">logger.h</text>
</a>
</g>
</g>
<!-- Node4&#45;&gt;Node16 -->
<g id="edge19" class="edge"><title>Node4&#45;&gt;Node16</title>
<path fill="none" stroke="midnightblue" d="M438.097,-282.285C524.555,-262.994 773.359,-207.48 865.834,-186.846"/>
<polygon fill="midnightblue" stroke="midnightblue" points="866.813,-190.214 875.811,-184.62 865.289,-183.382 866.813,-190.214"/>
</g>
<!-- Node17 -->
<g id="node17" class="node"><title>Node17</title>
<g id="a_node17"><a xlink:href="prep_8h.xhtml" target="_top" xlink:title="prep.h">
<polygon fill="white" stroke="black" points="902.5,-0.5 902.5,-19.5 945.5,-19.5 945.5,-0.5 902.5,-0.5"/>
<text text-anchor="middle" x="924" y="-7.5" font-family="FreeSans" font-size="10.00">prep.h</text>
</a>
</g>
</g>
<!-- Node4&#45;&gt;Node17 -->
<g id="edge43" class="edge"><title>Node4&#45;&gt;Node17</title>
<path fill="none" stroke="midnightblue" d="M390.676,-280.458C376.45,-272.674 356.652,-259.97 344,-244 292.077,-178.463 264.671,-97.9482 337,-56 385.179,-28.0578 776.861,-15.0751 892.174,-11.8343"/>
<polygon fill="midnightblue" stroke="midnightblue" points="892.55,-15.3254 902.45,-11.5509 892.357,-8.32803 892.55,-15.3254"/>
</g>
<!-- Node4&#45;&gt;Node18 -->
<g id="edge23" class="edge"><title>Node4&#45;&gt;Node18</title>
<path fill="none" stroke="midnightblue" d="M393.041,-280.334C380.943,-272.475 364.562,-259.729 356,-244 338.226,-211.349 336.82,-166.698 337.702,-141.778"/>
<polygon fill="midnightblue" stroke="midnightblue" points="341.21,-141.717 338.237,-131.548 334.219,-141.352 341.21,-141.717"/>
</g>
<!-- Node23 -->
<g id="node23" class="node"><title>Node23</title>
<g id="a_node23"><a xlink:href="pluginmanager_8h.xhtml" target="_top" xlink:title="pluginmanager.h">
<polygon fill="white" stroke="black" points="436.5,-224.5 436.5,-243.5 523.5,-243.5 523.5,-224.5 436.5,-224.5"/>
<text text-anchor="middle" x="480" y="-231.5" font-family="FreeSans" font-size="10.00">pluginmanager.h</text>
</a>
</g>
</g>
<!-- Node4&#45;&gt;Node23 -->
<g id="edge35" class="edge"><title>Node4&#45;&gt;Node23</title>
<path fill="none" stroke="midnightblue" d="M419.568,-280.324C430.42,-272.185 446.881,-259.839 459.883,-250.087"/>
<polygon fill="midnightblue" stroke="midnightblue" points="462.321,-252.634 468.221,-243.834 458.121,-247.034 462.321,-252.634"/>
</g>
<!-- Node9&#45;&gt;Node3 -->
<g id="edge18" class="edge"><title>Node9&#45;&gt;Node3</title>
<path fill="none" stroke="midnightblue" d="M397.831,-175.869C368.059,-173.011 321.539,-163.428 299,-132 277.242,-101.66 284.727,-55.1379 291.341,-29.5183"/>
<polygon fill="midnightblue" stroke="midnightblue" points="294.781,-30.2123 294.122,-19.638 288.043,-28.3154 294.781,-30.2123"/>
</g>
<!-- Node9&#45;&gt;Node7 -->
<g id="edge15" class="edge"><title>Node9&#45;&gt;Node7</title>
<path fill="none" stroke="midnightblue" d="M397.753,-173.556C367.827,-168.631 319.567,-157.209 286,-132 249.278,-104.421 223.496,-55.364 211.538,-28.9793"/>
<polygon fill="midnightblue" stroke="midnightblue" points="214.726,-27.5346 207.514,-19.7738 208.313,-30.3385 214.726,-27.5346"/>
</g>
<!-- Node9&#45;&gt;Node8 -->
<g id="edge11" class="edge"><title>Node9&#45;&gt;Node8</title>
<path fill="none" stroke="midnightblue" d="M452.244,-175.354C580.398,-167.614 1123.45,-134.812 1277.88,-125.484"/>
<polygon fill="midnightblue" stroke="midnightblue" points="1278.13,-128.975 1287.9,-124.878 1277.71,-121.988 1278.13,-128.975"/>
</g>
<!-- Node10 -->
<g id="node10" class="node"><title>Node10</title>
<polygon fill="white" stroke="#bfbfbf" points="750.5,-56.5 750.5,-75.5 793.5,-75.5 793.5,-56.5 750.5,-56.5"/>
<text text-anchor="middle" x="772" y="-63.5" font-family="FreeSans" font-size="10.00">vector</text>
</g>
<!-- Node9&#45;&gt;Node10 -->
<g id="edge10" class="edge"><title>Node9&#45;&gt;Node10</title>
<path fill="none" stroke="midnightblue" d="M452.178,-171.137C485.422,-163.623 543.177,-149.459 591,-132 610.799,-124.772 614.39,-119.726 634,-112 669.917,-97.8505 712.262,-84.5217 740.483,-76.0979"/>
<polygon fill="midnightblue" stroke="midnightblue" points="741.605,-79.4158 750.202,-73.2239 739.62,-72.7031 741.605,-79.4158"/>
</g>
<!-- Node11 -->
<g id="node11" class="node"><title>Node11</title>
<polygon fill="white" stroke="#bfbfbf" points="714,-112.5 714,-131.5 782,-131.5 782,-112.5 714,-112.5"/>
<text text-anchor="middle" x="748" y="-119.5" font-family="FreeSans" font-size="10.00">wx/treectrl.h</text>
</g>
<!-- Node9&#45;&gt;Node11 -->
<g id="edge12" class="edge"><title>Node9&#45;&gt;Node11</title>
<path fill="none" stroke="midnightblue" d="M452.26,-172.443C508.101,-163.107 635.932,-141.736 703.791,-130.391"/>
<polygon fill="midnightblue" stroke="midnightblue" points="704.464,-133.827 713.75,-128.726 703.31,-126.923 704.464,-133.827"/>
</g>
<!-- Node12 -->
<g id="node12" class="node"><title>Node12</title>
<polygon fill="white" stroke="#bfbfbf" points="1679,-112.5 1679,-131.5 1729,-131.5 1729,-112.5 1679,-112.5"/>
<text text-anchor="middle" x="1704" y="-119.5" font-family="FreeSans" font-size="10.00">wx/file.h</text>
</g>
<!-- Node9&#45;&gt;Node12 -->
<g id="edge13" class="edge"><title>Node9&#45;&gt;Node12</title>
<path fill="none" stroke="midnightblue" d="M452.089,-175.21C482.122,-173.265 532.008,-170.146 575,-168 1006.06,-146.48 1530.11,-128.711 1668.91,-124.142"/>
<polygon fill="midnightblue" stroke="midnightblue" points="1669.08,-127.638 1678.96,-123.812 1668.85,-120.642 1669.08,-127.638"/>
</g>
<!-- Node13 -->
<g id="node13" class="node"><title>Node13</title>
<polygon fill="white" stroke="#bfbfbf" points="1017,-112.5 1017,-131.5 1091,-131.5 1091,-112.5 1017,-112.5"/>
<text text-anchor="middle" x="1054" y="-119.5" font-family="FreeSans" font-size="10.00">wx/filename.h</text>
</g>
<!-- Node9&#45;&gt;Node13 -->
<g id="edge14" class="edge"><title>Node9&#45;&gt;Node13</title>
<path fill="none" stroke="midnightblue" d="M452.027,-174.68C549.346,-166.325 882.661,-137.71 1006.86,-127.047"/>
<polygon fill="midnightblue" stroke="midnightblue" points="1007.16,-130.534 1016.83,-126.191 1006.56,-123.56 1007.16,-130.534"/>
</g>
<!-- Node14 -->
<g id="node14" class="node"><title>Node14</title>
<polygon fill="white" stroke="#bfbfbf" points="512.5,-112.5 512.5,-131.5 581.5,-131.5 581.5,-112.5 512.5,-112.5"/>
<text text-anchor="middle" x="547" y="-119.5" font-family="FreeSans" font-size="10.00">wx/msgdlg.h</text>
</g>
<!-- Node9&#45;&gt;Node14 -->
<g id="edge16" class="edge"><title>Node9&#45;&gt;Node14</title>
<path fill="none" stroke="midnightblue" d="M444.331,-168.444C464.32,-159.596 495.743,-145.687 518.564,-135.586"/>
<polygon fill="midnightblue" stroke="midnightblue" points="520.032,-138.764 527.759,-131.516 517.198,-132.363 520.032,-138.764"/>
</g>
<!-- Node15 -->
<g id="node15" class="node"><title>Node15</title>
<polygon fill="white" stroke="#bfbfbf" points="426,-112.5 426,-131.5 494,-131.5 494,-112.5 426,-112.5"/>
<text text-anchor="middle" x="460" y="-119.5" font-family="FreeSans" font-size="10.00">wx/bitmap.h</text>
</g>
<!-- Node9&#45;&gt;Node15 -->
<g id="edge17" class="edge"><title>Node9&#45;&gt;Node15</title>
<path fill="none" stroke="midnightblue" d="M430.78,-168.083C435.672,-160.534 442.827,-149.495 448.833,-140.23"/>
<polygon fill="midnightblue" stroke="midnightblue" points="451.826,-142.046 454.328,-131.751 445.952,-138.239 451.826,-142.046"/>
</g>
<!-- Node16&#45;&gt;Node3 -->
<g id="edge22" class="edge"><title>Node16&#45;&gt;Node3</title>
<path fill="none" stroke="midnightblue" d="M897.361,-168.273C886.914,-144.554 854.249,-79.1331 803,-56 719.651,-18.377 439.295,-12.1789 335.806,-11.1817"/>
<polygon fill="midnightblue" stroke="midnightblue" points="335.814,-7.68175 325.784,-11.0963 335.754,-14.6815 335.814,-7.68175"/>
</g>
<!-- Node16&#45;&gt;Node8 -->
<g id="edge21" class="edge"><title>Node16&#45;&gt;Node8</title>
<path fill="none" stroke="midnightblue" d="M926.094,-170.787C930.701,-169.767 935.482,-168.787 940,-168 1062.01,-146.744 1207.88,-132.539 1277.74,-126.419"/>
<polygon fill="midnightblue" stroke="midnightblue" points="1278.22,-129.891 1287.88,-125.541 1277.62,-122.917 1278.22,-129.891"/>
</g>
<!-- Node16&#45;&gt;Node17 -->
<g id="edge20" class="edge"><title>Node16&#45;&gt;Node17</title>
<path fill="none" stroke="midnightblue" d="M902.237,-168.075C905.857,-141.945 916.489,-65.2106 921.426,-29.577"/>
<polygon fill="midnightblue" stroke="midnightblue" points="924.907,-29.9539 922.813,-19.5681 917.973,-28.9931 924.907,-29.9539"/>
</g>
<!-- Node18&#45;&gt;Node3 -->
<g id="edge28" class="edge"><title>Node18&#45;&gt;Node3</title>
<path fill="none" stroke="midnightblue" d="M335.704,-112.368C328.865,-94.4563 313.007,-52.9233 303.853,-28.9482"/>
<polygon fill="midnightblue" stroke="midnightblue" points="307.117,-27.6851 300.28,-19.5914 300.578,-30.1821 307.117,-27.6851"/>
</g>
<!-- Node18&#45;&gt;Node6 -->
<g id="edge26" class="edge"><title>Node18&#45;&gt;Node6</title>
<path fill="none" stroke="midnightblue" d="M370.446,-114.573C374.989,-113.685 379.611,-112.803 384,-112 480.167,-94.4112 507.6,-104.879 601,-76 621.137,-69.7737 623.496,-60.8826 644,-56 778.636,-23.939 1782.77,-13.2834 1999.74,-11.3438"/>
<polygon fill="midnightblue" stroke="midnightblue" points="1999.8,-14.8435 2009.76,-11.2554 1999.73,-7.84382 1999.8,-14.8435"/>
</g>
<!-- Node18&#45;&gt;Node10 -->
<g id="edge25" class="edge"><title>Node18&#45;&gt;Node10</title>
<path fill="none" stroke="midnightblue" d="M370.14,-117.116C449.754,-107.188 660.091,-80.9564 740.306,-70.9526"/>
<polygon fill="midnightblue" stroke="midnightblue" points="740.81,-74.4169 750.3,-69.7062 739.944,-67.4707 740.81,-74.4169"/>
</g>
<!-- Node19 -->
<g id="node19" class="node"><title>Node19</title>
<polygon fill="white" stroke="#bfbfbf" points="1204.5,-56.5 1204.5,-75.5 1239.5,-75.5 1239.5,-56.5 1204.5,-56.5"/>
<text text-anchor="middle" x="1222" y="-63.5" font-family="FreeSans" font-size="10.00">map</text>
</g>
<!-- Node18&#45;&gt;Node19 -->
<g id="edge24" class="edge"><title>Node18&#45;&gt;Node19</title>
<path fill="none" stroke="midnightblue" d="M370.081,-116.988C384.356,-115.255 401.517,-113.325 417,-112 721.111,-85.978 1091.2,-71.6373 1194.23,-67.9578"/>
<polygon fill="midnightblue" stroke="midnightblue" points="1194.54,-71.449 1204.41,-67.598 1194.29,-64.4534 1194.54,-71.449"/>
</g>
<!-- Node20 -->
<g id="node20" class="node"><title>Node20</title>
<polygon fill="white" stroke="#bfbfbf" points="430,-56.5 430,-75.5 502,-75.5 502,-56.5 430,-56.5"/>
<text text-anchor="middle" x="466" y="-63.5" font-family="FreeSans" font-size="10.00">wx/cmdline.h</text>
</g>
<!-- Node18&#45;&gt;Node20 -->
<g id="edge27" class="edge"><title>Node18&#45;&gt;Node20</title>
<path fill="none" stroke="midnightblue" d="M359.124,-112.444C380.024,-103.557 412.935,-89.5632 436.716,-79.4514"/>
<polygon fill="midnightblue" stroke="midnightblue" points="438.138,-82.6504 445.971,-75.5164 435.398,-76.2085 438.138,-82.6504"/>
</g>
<!-- Node21 -->
<g id="node21" class="node"><title>Node21</title>
<g id="a_node21"><a xlink:href="sdk__events_8h.xhtml" target="_top" xlink:title="sdk_events.h">
<polygon fill="white" stroke="black" points="520,-56.5 520,-75.5 592,-75.5 592,-56.5 520,-56.5"/>
<text text-anchor="middle" x="556" y="-63.5" font-family="FreeSans" font-size="10.00">sdk_events.h</text>
</a>
</g>
</g>
<!-- Node18&#45;&gt;Node21 -->
<g id="edge29" class="edge"><title>Node18&#45;&gt;Node21</title>
<path fill="none" stroke="midnightblue" d="M370.091,-113.263C407.304,-104.003 469.868,-88.4338 512.023,-77.9435"/>
<polygon fill="midnightblue" stroke="midnightblue" points="512.886,-81.3357 521.745,-75.5243 511.196,-74.5428 512.886,-81.3357"/>
</g>
<!-- Node22 -->
<g id="node22" class="node"><title>Node22</title>
<g id="a_node22"><a xlink:href="cbfunctor_8h.xhtml" target="_top" xlink:title="cbfunctor.h">
<polygon fill="white" stroke="black" points="346.5,-56.5 346.5,-75.5 411.5,-75.5 411.5,-56.5 346.5,-56.5"/>
<text text-anchor="middle" x="379" y="-63.5" font-family="FreeSans" font-size="10.00">cbfunctor.h</text>
</a>
</g>
</g>
<!-- Node18&#45;&gt;Node22 -->
<g id="edge34" class="edge"><title>Node18&#45;&gt;Node22</title>
<path fill="none" stroke="midnightblue" d="M345.605,-112.083C351.255,-104.455 359.545,-93.2645 366.451,-83.9408"/>
<polygon fill="midnightblue" stroke="midnightblue" points="369.378,-85.87 372.518,-75.7511 363.753,-81.7034 369.378,-85.87"/>
</g>
<!-- Node21&#45;&gt;Node3 -->
<g id="edge32" class="edge"><title>Node21&#45;&gt;Node3</title>
<path fill="none" stroke="midnightblue" d="M519.987,-57.4915C471.455,-47.3728 385.412,-29.4334 335.591,-19.046"/>
<polygon fill="midnightblue" stroke="midnightblue" points="336.04,-15.5644 325.536,-16.9496 334.611,-22.4171 336.04,-15.5644"/>
</g>
<!-- Node21&#45;&gt;Node6 -->
<g id="edge30" class="edge"><title>Node21&#45;&gt;Node6</title>
<path fill="none" stroke="midnightblue" d="M592.231,-57.8338C596.851,-57.1102 601.526,-56.4702 606,-56 886.962,-26.4694 1795.5,-13.9529 1999.91,-11.4734"/>
<polygon fill="midnightblue" stroke="midnightblue" points="1999.97,-14.9731 2009.92,-11.3532 1999.88,-7.97359 1999.97,-14.9731"/>
</g>
<!-- Node21&#45;&gt;Node7 -->
<g id="edge31" class="edge"><title>Node21&#45;&gt;Node7</title>
<path fill="none" stroke="midnightblue" d="M519.683,-57.5568C516.749,-57.0103 513.827,-56.4842 511,-56 399.487,-36.8986 370.832,-37.1361 259,-20 252.724,-19.0383 246.051,-17.9782 239.597,-16.9334"/>
<polygon fill="midnightblue" stroke="midnightblue" points="240.159,-13.4788 229.725,-15.3204 239.03,-20.3872 240.159,-13.4788"/>
</g>
<!-- Node21&#45;&gt;Node17 -->
<g id="edge33" class="edge"><title>Node21&#45;&gt;Node17</title>
<path fill="none" stroke="midnightblue" d="M592.023,-58.3494C596.72,-57.5311 601.472,-56.7277 606,-56 710.472,-39.2117 834.8,-22.5855 892.137,-15.1064"/>
<polygon fill="midnightblue" stroke="midnightblue" points="892.9,-18.5367 902.365,-13.7767 891.998,-11.5951 892.9,-18.5367"/>
</g>
<!-- Node23&#45;&gt;Node3 -->
<g id="edge41" class="edge"><title>Node23&#45;&gt;Node3</title>
<path fill="none" stroke="midnightblue" d="M436.267,-224.416C389.446,-212.605 317.632,-186.302 286,-132 267.141,-99.625 279.748,-53.9243 289.235,-28.976"/>
<polygon fill="midnightblue" stroke="midnightblue" points="292.501,-30.2364 293.009,-19.6538 286.012,-27.6095 292.501,-30.2364"/>
</g>
<!-- Node23&#45;&gt;Node9 -->
<g id="edge40" class="edge"><title>Node23&#45;&gt;Node9</title>
<path fill="none" stroke="midnightblue" d="M470.918,-224.083C462.829,-216.141 450.805,-204.335 441.09,-194.797"/>
<polygon fill="midnightblue" stroke="midnightblue" points="443.501,-192.26 433.913,-187.751 438.597,-197.254 443.501,-192.26"/>
</g>
<!-- Node23&#45;&gt;Node10 -->
<g id="edge36" class="edge"><title>Node23&#45;&gt;Node10</title>
<path fill="none" stroke="midnightblue" d="M480.791,-224.055C482.509,-210.084 487.835,-183.12 504,-168 545.287,-129.381 572.95,-151.539 626,-132 631.92,-129.819 703.152,-97.9151 743.883,-79.6322"/>
<polygon fill="midnightblue" stroke="midnightblue" points="745.353,-82.809 753.042,-75.52 742.486,-76.4231 745.353,-82.809"/>
</g>
<!-- Node23&#45;&gt;Node18 -->
<g id="edge42" class="edge"><title>Node23&#45;&gt;Node18</title>
<path fill="none" stroke="midnightblue" d="M455.449,-224.411C436.061,-216.833 409.028,-204.435 389,-188 372.546,-174.498 358.258,-154.599 349.217,-140.378"/>
<polygon fill="midnightblue" stroke="midnightblue" points="352.042,-138.289 343.835,-131.589 346.073,-141.945 352.042,-138.289"/>
</g>
<!-- Node23&#45;&gt;Node19 -->
<g id="edge37" class="edge"><title>Node23&#45;&gt;Node19</title>
<path fill="none" stroke="midnightblue" d="M485.83,-224.487C495.758,-210.623 517.292,-183.196 542,-168 589.067,-139.053 609.29,-151.476 661,-132 681.102,-124.429 684.223,-117.454 705,-112 798.884,-87.3539 1100.98,-72.3171 1194.29,-68.1734"/>
<polygon fill="midnightblue" stroke="midnightblue" points="1194.52,-71.6665 1204.36,-67.7326 1194.22,-64.6732 1194.52,-71.6665"/>
</g>
<!-- Node24 -->
<g id="node24" class="node"><title>Node24</title>
<polygon fill="white" stroke="#bfbfbf" points="714.5,-168.5 714.5,-187.5 743.5,-187.5 743.5,-168.5 714.5,-168.5"/>
<text text-anchor="middle" x="729" y="-175.5" font-family="FreeSans" font-size="10.00">set</text>
</g>
<!-- Node23&#45;&gt;Node24 -->
<g id="edge38" class="edge"><title>Node23&#45;&gt;Node24</title>
<path fill="none" stroke="midnightblue" d="M519.455,-224.444C571.413,-213.176 661.224,-193.698 704.411,-184.333"/>
<polygon fill="midnightblue" stroke="midnightblue" points="705.303,-187.721 714.334,-182.181 703.82,-180.88 705.303,-187.721"/>
</g>
<!-- Node25 -->
<g id="node25" class="node"><title>Node25</title>
<polygon fill="white" stroke="#bfbfbf" points="584,-168.5 584,-187.5 658,-187.5 658,-168.5 584,-168.5"/>
<text text-anchor="middle" x="621" y="-175.5" font-family="FreeSans" font-size="10.00">wx/dynarray.h</text>
</g>
<!-- Node23&#45;&gt;Node25 -->
<g id="edge39" class="edge"><title>Node23&#45;&gt;Node25</title>
<path fill="none" stroke="midnightblue" d="M502.342,-224.444C525.753,-215.478 562.736,-201.314 589.19,-191.183"/>
<polygon fill="midnightblue" stroke="midnightblue" points="590.676,-194.361 598.763,-187.516 588.172,-187.824 590.676,-194.361"/>
</g>
<!-- Node26&#45;&gt;Node11 -->
<g id="edge46" class="edge"><title>Node26&#45;&gt;Node11</title>
<path fill="none" stroke="midnightblue" d="M740.557,-504.311C722.754,-486.933 686,-445.863 686,-403 686,-403 686,-403 686,-233 686,-202.775 690.858,-194.159 706,-168 712.329,-157.066 721.769,-146.634 730.097,-138.572"/>
<polygon fill="midnightblue" stroke="midnightblue" points="732.639,-140.99 737.604,-131.63 727.886,-135.85 732.639,-140.99"/>
</g>
<!-- Node27 -->
<g id="node27" class="node"><title>Node27</title>
<polygon fill="white" stroke="#bfbfbf" points="1738.5,-280.5 1738.5,-299.5 1781.5,-299.5 1781.5,-280.5 1738.5,-280.5"/>
<text text-anchor="middle" x="1760" y="-287.5" font-family="FreeSans" font-size="10.00">queue</text>
</g>
<!-- Node26&#45;&gt;Node27 -->
<g id="edge47" class="edge"><title>Node26&#45;&gt;Node27</title>
<path fill="none" stroke="midnightblue" d="M761.997,-504.441C804.557,-474.615 953.253,-374.959 1093,-336 1154.58,-318.832 1604.23,-297.883 1728.34,-292.378"/>
<polygon fill="midnightblue" stroke="midnightblue" points="1728.51,-295.874 1738.35,-291.936 1728.2,-288.881 1728.51,-295.874"/>
</g>
<!-- Node26&#45;&gt;Node28 -->
<g id="edge48" class="edge"><title>Node26&#45;&gt;Node28</title>
<path fill="none" stroke="midnightblue" d="M782.628,-509.203C862.538,-499.903 1068.47,-475.937 1163.98,-464.821"/>
<polygon fill="midnightblue" stroke="midnightblue" points="1164.44,-468.292 1173.97,-463.659 1163.63,-461.338 1164.44,-468.292"/>
</g>
<!-- Node26&#45;&gt;Node45 -->
<g id="edge125" class="edge"><title>Node26&#45;&gt;Node45</title>
<path fill="none" stroke="midnightblue" d="M757.947,-504.074C769.756,-491.047 792.922,-466.378 815,-448 916.193,-363.766 943.814,-343.778 1059,-280 1082.03,-267.248 1109.4,-255.533 1130.28,-247.254"/>
<polygon fill="midnightblue" stroke="midnightblue" points="1131.62,-250.486 1139.67,-243.589 1129.08,-243.965 1131.62,-250.486"/>
</g>
<!-- Node28&#45;&gt;Node5 -->
<g id="edge49" class="edge"><title>Node28&#45;&gt;Node5</title>
<path fill="none" stroke="midnightblue" d="M1198.61,-448.375C1164.23,-428.017 1082.42,-373.137 1059,-300 1047.9,-265.347 1047.68,-222.369 1048.71,-198.077"/>
<polygon fill="midnightblue" stroke="midnightblue" points="1052.23,-197.948 1049.28,-187.772 1045.24,-197.565 1052.23,-197.948"/>
</g>
<!-- Node28&#45;&gt;Node6 -->
<g id="edge50" class="edge"><title>Node28&#45;&gt;Node6</title>
<path fill="none" stroke="midnightblue" d="M1254.16,-456.595C1424.8,-454.682 2090.3,-445.197 2297,-412 2386.87,-397.566 2412.87,-397.279 2494,-356 2607.71,-298.142 2720,-306.583 2720,-179 2720,-179 2720,-179 2720,-121 2720,-56.0573 2229.74,-22.0579 2082.39,-13.306"/>
<polygon fill="midnightblue" stroke="midnightblue" points="2082.58,-9.81076 2072.39,-12.7194 2082.17,-16.7988 2082.58,-9.81076"/>
</g>
<!-- Node28&#45;&gt;Node8 -->
<g id="edge54" class="edge"><title>Node28&#45;&gt;Node8</title>
<path fill="none" stroke="midnightblue" d="M1188.28,-448.443C1167.92,-440.882 1139.45,-428.492 1118,-412 1024.12,-339.826 933.558,-257.579 1011,-168 1045.01,-128.663 1201.94,-123.038 1277.77,-122.67"/>
<polygon fill="midnightblue" stroke="midnightblue" points="1277.91,-126.17 1287.91,-122.65 1277.9,-119.17 1277.91,-126.17"/>
</g>
<!-- Node28&#45;&gt;Node11 -->
<g id="edge57" class="edge"><title>Node28&#45;&gt;Node11</title>
<path fill="none" stroke="midnightblue" d="M1173.71,-457.709C1086.07,-458.41 881.904,-455.229 831,-412 788.568,-375.966 759.228,-199.377 750.618,-141.446"/>
<polygon fill="midnightblue" stroke="midnightblue" points="754.077,-140.911 749.174,-131.519 747.15,-141.918 754.077,-140.911"/>
</g>
<!-- Node28&#45;&gt;Node12 -->
<g id="edge51" class="edge"><title>Node28&#45;&gt;Node12</title>
<path fill="none" stroke="midnightblue" d="M1254.25,-453.169C1411.95,-437.995 1980.56,-381.688 2009,-356 2053.38,-315.924 2026.15,-265.392 1983,-224 1913.71,-157.53 1797.41,-134.31 1739.29,-126.598"/>
<polygon fill="midnightblue" stroke="midnightblue" points="1739.5,-123.096 1729.14,-125.331 1738.63,-130.042 1739.5,-123.096"/>
</g>
<!-- Node28&#45;&gt;Node21 -->
<g id="edge66" class="edge"><title>Node28&#45;&gt;Node21</title>
<path fill="none" stroke="midnightblue" d="M1180.1,-448.467C1154.27,-441.093 1118.43,-428.94 1090,-412 1049.73,-388.005 945.665,-300.6 846,-188 818.365,-156.779 826.175,-134.387 791,-112 760.337,-92.4853 661.788,-78.623 602.489,-71.8039"/>
<polygon fill="midnightblue" stroke="midnightblue" points="602.584,-68.2926 592.256,-70.6521 601.801,-75.2487 602.584,-68.2926"/>
</g>
<!-- Node29 -->
<g id="node29" class="node"><title>Node29</title>
<polygon fill="white" stroke="#bfbfbf" points="1101.5,-336.5 1101.5,-355.5 1160.5,-355.5 1160.5,-336.5 1101.5,-336.5"/>
<text text-anchor="middle" x="1131" y="-343.5" font-family="FreeSans" font-size="10.00">wx/filefn.h</text>
</g>
<!-- Node28&#45;&gt;Node29 -->
<g id="edge52" class="edge"><title>Node28&#45;&gt;Node29</title>
<path fill="none" stroke="midnightblue" d="M1207.49,-448.368C1193.73,-430.135 1161.5,-387.426 1143.58,-363.675"/>
<polygon fill="midnightblue" stroke="midnightblue" points="1146.3,-361.466 1137.48,-355.591 1140.71,-365.682 1146.3,-361.466"/>
</g>
<!-- Node30 -->
<g id="node30" class="node"><title>Node30</title>
<polygon fill="white" stroke="#bfbfbf" points="1178.5,-336.5 1178.5,-355.5 1249.5,-355.5 1249.5,-336.5 1178.5,-336.5"/>
<text text-anchor="middle" x="1214" y="-343.5" font-family="FreeSans" font-size="10.00">wx/imaglist.h</text>
</g>
<!-- Node28&#45;&gt;Node30 -->
<g id="edge53" class="edge"><title>Node28&#45;&gt;Node30</title>
<path fill="none" stroke="midnightblue" d="M1214,-448.368C1214,-430.617 1214,-389.666 1214,-365.597"/>
<polygon fill="midnightblue" stroke="midnightblue" points="1217.5,-365.591 1214,-355.591 1210.5,-365.591 1217.5,-365.591"/>
</g>
<!-- Node31 -->
<g id="node31" class="node"><title>Node31</title>
<polygon fill="white" stroke="#bfbfbf" points="2269.5,-112.5 2269.5,-131.5 2334.5,-131.5 2334.5,-112.5 2269.5,-112.5"/>
<text text-anchor="middle" x="2302" y="-119.5" font-family="FreeSans" font-size="10.00">wx/thread.h</text>
</g>
<!-- Node28&#45;&gt;Node31 -->
<g id="edge55" class="edge"><title>Node28&#45;&gt;Node31</title>
<path fill="none" stroke="midnightblue" d="M1254.2,-455.589C1467.18,-447.856 2454,-408.696 2454,-347 2454,-347 2454,-347 2454,-233 2454,-178.641 2389.41,-148.409 2344.44,-133.948"/>
<polygon fill="midnightblue" stroke="midnightblue" points="2345.19,-130.519 2334.61,-130.934 2343.14,-137.211 2345.19,-130.519"/>
</g>
<!-- Node32 -->
<g id="node32" class="node"><title>Node32</title>
<polygon fill="white" stroke="#bfbfbf" points="2594,-112.5 2594,-131.5 2654,-131.5 2654,-112.5 2594,-112.5"/>
<text text-anchor="middle" x="2624" y="-119.5" font-family="FreeSans" font-size="10.00">wx/timer.h</text>
</g>
<!-- Node28&#45;&gt;Node32 -->
<g id="edge56" class="edge"><title>Node28&#45;&gt;Node32</title>
<path fill="none" stroke="midnightblue" d="M1254.2,-457.244C1386.91,-457.598 1822.89,-455.163 2180,-412 2308.16,-396.51 2354.18,-422.211 2465,-356 2547.95,-306.439 2556.67,-272.795 2603,-188 2611,-173.365 2616.54,-155.195 2619.92,-141.79"/>
<polygon fill="midnightblue" stroke="midnightblue" points="2623.38,-142.367 2622.25,-131.832 2616.56,-140.771 2623.38,-142.367"/>
</g>
<!-- Node33 -->
<g id="node33" class="node"><title>Node33</title>
<g id="a_node33"><a xlink:href="cbthreadpool_8h.xhtml" target="_top" xlink:title="cbthreadpool.h">
<polygon fill="white" stroke="black" points="2156,-168.5 2156,-187.5 2236,-187.5 2236,-168.5 2156,-168.5"/>
<text text-anchor="middle" x="2196" y="-175.5" font-family="FreeSans" font-size="10.00">cbthreadpool.h</text>
</a>
</g>
</g>
<!-- Node28&#45;&gt;Node33 -->
<g id="edge58" class="edge"><title>Node28&#45;&gt;Node33</title>
<path fill="none" stroke="midnightblue" d="M1254.04,-455.265C1422.53,-447.615 2068.36,-414.641 2136,-356 2183.56,-314.766 2193.49,-234.377 2195.52,-197.859"/>
<polygon fill="midnightblue" stroke="midnightblue" points="2199.02,-197.784 2195.93,-187.65 2192.03,-197.499 2199.02,-197.784"/>
</g>
<!-- Node36 -->
<g id="node36" class="node"><title>Node36</title>
<g id="a_node36"><a xlink:href="parserthread_8h.xhtml" target="_top" xlink:title="parserthread.h">
<polygon fill="white" stroke="black" points="1421.5,-336.5 1421.5,-355.5 1498.5,-355.5 1498.5,-336.5 1421.5,-336.5"/>
<text text-anchor="middle" x="1460" y="-343.5" font-family="FreeSans" font-size="10.00">parserthread.h</text>
</a>
</g>
</g>
<!-- Node28&#45;&gt;Node36 -->
<g id="edge67" class="edge"><title>Node28&#45;&gt;Node36</title>
<path fill="none" stroke="midnightblue" d="M1233.3,-448.368C1276.42,-429.091 1380.71,-382.454 1431.4,-359.789"/>
<polygon fill="midnightblue" stroke="midnightblue" points="1433.09,-362.869 1440.79,-355.591 1430.23,-356.478 1433.09,-362.869"/>
</g>
<!-- Node47 -->
<g id="node47" class="node"><title>Node47</title>
<g id="a_node47"><a xlink:href="parser__base_8h.xhtml" target="_top" xlink:title="parser_base.h">
<polygon fill="white" stroke="black" points="1422,-392.5 1422,-411.5 1498,-411.5 1498,-392.5 1422,-392.5"/>
<text text-anchor="middle" x="1460" y="-399.5" font-family="FreeSans" font-size="10.00">parser_base.h</text>
</a>
</g>
</g>
<!-- Node28&#45;&gt;Node47 -->
<g id="edge114" class="edge"><title>Node28&#45;&gt;Node47</title>
<path fill="none" stroke="midnightblue" d="M1252.98,-448.444C1296.02,-438.996 1365.35,-423.776 1411.78,-413.585"/>
<polygon fill="midnightblue" stroke="midnightblue" points="1412.59,-416.99 1421.61,-411.428 1411.09,-410.153 1412.59,-416.99"/>
</g>
<!-- Node33&#45;&gt;Node3 -->
<g id="edge64" class="edge"><title>Node33&#45;&gt;Node3</title>
<path fill="none" stroke="midnightblue" d="M2155.77,-169.541C2088.05,-156.972 1958.36,-132.85 1956,-132 1938.78,-125.789 1937.51,-117.325 1920,-112 1848.42,-90.2354 1323.66,-60.8781 1249,-56 894.887,-32.8616 465.93,-16.9087 336.074,-12.3417"/>
<polygon fill="midnightblue" stroke="midnightblue" points="335.957,-8.83557 325.84,-11.9837 335.712,-15.8313 335.957,-8.83557"/>
</g>
<!-- Node33&#45;&gt;Node6 -->
<g id="edge60" class="edge"><title>Node33&#45;&gt;Node6</title>
<path fill="none" stroke="midnightblue" d="M2195.22,-168.248C2193.67,-155.005 2189.23,-129.561 2177,-112 2148.83,-71.5342 2099.22,-40.7519 2068.34,-24.3253"/>
<polygon fill="midnightblue" stroke="midnightblue" points="2069.9,-21.1872 2059.41,-19.6935 2066.67,-27.4022 2069.9,-21.1872"/>
</g>
<!-- Node33&#45;&gt;Node10 -->
<g id="edge61" class="edge"><title>Node33&#45;&gt;Node10</title>
<path fill="none" stroke="midnightblue" d="M2155.9,-169.571C2152.89,-169.033 2149.9,-168.504 2147,-168 2049.82,-151.09 2022.26,-161.069 1928,-132 1907.86,-125.789 1905.48,-116.967 1885,-112 1777.59,-85.9567 974.527,-70.5427 803.836,-67.5412"/>
<polygon fill="midnightblue" stroke="midnightblue" points="803.799,-64.0401 793.739,-67.3653 803.677,-71.0391 803.799,-64.0401"/>
</g>
<!-- Node33&#45;&gt;Node17 -->
<g id="edge65" class="edge"><title>Node33&#45;&gt;Node17</title>
<path fill="none" stroke="midnightblue" d="M2170.05,-168.446C2126.37,-154.398 2035.18,-126.55 1956,-112 1565.89,-40.3156 1082.85,-17.2087 955.805,-12.1611"/>
<polygon fill="midnightblue" stroke="midnightblue" points="955.744,-8.65615 945.615,-11.765 955.472,-15.6509 955.744,-8.65615"/>
</g>
<!-- Node33&#45;&gt;Node31 -->
<g id="edge59" class="edge"><title>Node33&#45;&gt;Node31</title>
<path fill="none" stroke="midnightblue" d="M2213.03,-168.324C2230.03,-159.664 2256.38,-146.242 2275.99,-136.249"/>
<polygon fill="midnightblue" stroke="midnightblue" points="2277.69,-139.312 2285.01,-131.655 2274.51,-133.075 2277.69,-139.312"/>
</g>
<!-- Node34 -->
<g id="node34" class="node"><title>Node34</title>
<polygon fill="white" stroke="#bfbfbf" points="1846.5,-112.5 1846.5,-131.5 1875.5,-131.5 1875.5,-112.5 1846.5,-112.5"/>
<text text-anchor="middle" x="1861" y="-119.5" font-family="FreeSans" font-size="10.00">list</text>
</g>
<!-- Node33&#45;&gt;Node34 -->
<g id="edge62" class="edge"><title>Node33&#45;&gt;Node34</title>
<path fill="none" stroke="midnightblue" d="M2155.91,-169.494C2152.9,-168.973 2149.9,-168.47 2147,-168 2033.14,-149.578 2002.56,-157.175 1890,-132 1888.52,-131.669 1887.01,-131.299 1885.49,-130.903"/>
<polygon fill="midnightblue" stroke="midnightblue" points="1886.21,-127.467 1875.63,-128.045 1884.26,-134.191 1886.21,-127.467"/>
</g>
<!-- Node35 -->
<g id="node35" class="node"><title>Node35</title>
<g id="a_node35"><a xlink:href="cbthreadedtask_8h.xhtml" target="_top" xlink:title="cbthreadedtask.h">
<polygon fill="white" stroke="black" points="2078,-112.5 2078,-131.5 2168,-131.5 2168,-112.5 2078,-112.5"/>
<text text-anchor="middle" x="2123" y="-119.5" font-family="FreeSans" font-size="10.00">cbthreadedtask.h</text>
</a>
</g>
</g>
<!-- Node33&#45;&gt;Node35 -->
<g id="edge63" class="edge"><title>Node33&#45;&gt;Node35</title>
<path fill="none" stroke="midnightblue" d="M2184.27,-168.324C2173.16,-160.107 2156.26,-147.602 2143.02,-137.807"/>
<polygon fill="midnightblue" stroke="midnightblue" points="2145.06,-134.967 2134.94,-131.834 2140.9,-140.595 2145.06,-134.967"/>
</g>
<!-- Node36&#45;&gt;Node6 -->
<g id="edge69" class="edge"><title>Node36&#45;&gt;Node6</title>
<path fill="none" stroke="midnightblue" d="M1498.74,-338.474C1528.9,-332.106 1570.9,-320.328 1603,-300 1699.19,-239.094 1682.7,-175.788 1777,-112 1848.22,-63.8272 1945.61,-34.2843 1999.99,-20.4352"/>
<polygon fill="midnightblue" stroke="midnightblue" points="2001.1,-23.7673 2009.95,-17.9523 1999.4,-16.9752 2001.1,-23.7673"/>
</g>
<!-- Node36&#45;&gt;Node8 -->
<g id="edge70" class="edge"><title>Node36&#45;&gt;Node8</title>
<path fill="none" stroke="midnightblue" d="M1493.32,-336.488C1534.57,-323.959 1603.04,-296.179 1633,-244 1642.66,-227.171 1640.41,-183.469 1625,-168 1588.7,-131.555 1435.36,-124.456 1360.49,-123.191"/>
<polygon fill="midnightblue" stroke="midnightblue" points="1360.08,-119.685 1350.03,-123.044 1359.98,-126.684 1360.08,-119.685"/>
</g>
<!-- Node36&#45;&gt;Node10 -->
<g id="edge73" class="edge"><title>Node36&#45;&gt;Node10</title>
<path fill="none" stroke="midnightblue" d="M1421.18,-345.24C1318.78,-343.872 1037.5,-326.905 867,-188 836.912,-163.487 848.589,-142.026 824,-112 814.781,-100.743 802.554,-90.0048 792.273,-81.8433"/>
<polygon fill="midnightblue" stroke="midnightblue" points="794.264,-78.9593 784.203,-75.6388 789.998,-84.5087 794.264,-78.9593"/>
</g>
<!-- Node36&#45;&gt;Node25 -->
<g id="edge68" class="edge"><title>Node36&#45;&gt;Node25</title>
<path fill="none" stroke="midnightblue" d="M1421.4,-342.501C1323.36,-335.971 1066.62,-317.676 983,-300 856.181,-273.192 711.813,-216.706 650.758,-191.548"/>
<polygon fill="midnightblue" stroke="midnightblue" points="651.931,-188.245 641.353,-187.648 649.25,-194.712 651.931,-188.245"/>
</g>
<!-- Node36&#45;&gt;Node27 -->
<g id="edge72" class="edge"><title>Node36&#45;&gt;Node27</title>
<path fill="none" stroke="midnightblue" d="M1498.65,-339.356C1550.24,-331.606 1644.37,-316.715 1724,-300 1725.46,-299.694 1726.95,-299.37 1728.45,-299.033"/>
<polygon fill="midnightblue" stroke="midnightblue" points="1729.43,-302.397 1738.36,-296.694 1727.82,-295.585 1729.43,-302.397"/>
</g>
<!-- Node36&#45;&gt;Node31 -->
<g id="edge71" class="edge"><title>Node36&#45;&gt;Node31</title>
<path fill="none" stroke="midnightblue" d="M1498.67,-340.065C1544.23,-333.623 1621.84,-320.666 1686,-300 1706.45,-293.415 1709.46,-286.297 1730,-280 1846.59,-244.249 2173.71,-261.521 2271,-188 2285.78,-176.828 2293.84,-156.804 2298,-141.923"/>
<polygon fill="midnightblue" stroke="midnightblue" points="2301.51,-142.322 2300.48,-131.777 2294.71,-140.665 2301.51,-142.322"/>
</g>
<!-- Node36&#45;&gt;Node33 -->
<g id="edge74" class="edge"><title>Node36&#45;&gt;Node33</title>
<path fill="none" stroke="midnightblue" d="M1498.67,-337.632C1537.03,-329.882 1597.26,-316.526 1648,-300 1669.97,-292.843 1673.94,-286.906 1696,-280 1808.8,-244.677 1840.12,-247.338 1956,-224 1991.55,-216.839 2086.79,-199.149 2146.05,-188.202"/>
<polygon fill="midnightblue" stroke="midnightblue" points="2146.76,-191.631 2155.96,-186.374 2145.49,-184.747 2146.76,-191.631"/>
</g>
<!-- Node37 -->
<g id="node37" class="node"><title>Node37</title>
<g id="a_node37"><a xlink:href="filemanager_8h.xhtml" target="_top" xlink:title="filemanager.h">
<polygon fill="white" stroke="red" points="1550,-224.5 1550,-243.5 1624,-243.5 1624,-224.5 1550,-224.5"/>
<text text-anchor="middle" x="1587" y="-231.5" font-family="FreeSans" font-size="10.00">filemanager.h</text>
</a>
</g>
</g>
<!-- Node36&#45;&gt;Node37 -->
<g id="edge75" class="edge"><title>Node36&#45;&gt;Node37</title>
<path fill="none" stroke="midnightblue" d="M1469.97,-336.368C1491.39,-317.814 1542.07,-273.913 1569.18,-250.438"/>
<polygon fill="midnightblue" stroke="midnightblue" points="1571.81,-252.784 1577.08,-243.591 1567.23,-247.493 1571.81,-252.784"/>
</g>
<!-- Node42 -->
<g id="node42" class="node"><title>Node42</title>
<g id="a_node42"><a xlink:href="logmanager_8h.xhtml" target="_top" xlink:title="logmanager.h">
<polygon fill="white" stroke="black" points="1205,-224.5 1205,-243.5 1279,-243.5 1279,-224.5 1205,-224.5"/>
<text text-anchor="middle" x="1242" y="-231.5" font-family="FreeSans" font-size="10.00">logmanager.h</text>
</a>
</g>
</g>
<!-- Node36&#45;&gt;Node42 -->
<g id="edge89" class="edge"><title>Node36&#45;&gt;Node42</title>
<path fill="none" stroke="midnightblue" d="M1421.22,-344.742C1380.69,-342.547 1317.24,-333.45 1275,-300 1260.29,-288.354 1251.56,-268.405 1246.8,-253.671"/>
<polygon fill="midnightblue" stroke="midnightblue" points="1250.05,-252.284 1243.91,-243.644 1243.32,-254.222 1250.05,-252.284"/>
</g>
<!-- Node43 -->
<g id="node43" class="node"><title>Node43</title>
<g id="a_node43"><a xlink:href="cclogger_8h.xhtml" target="_top" xlink:title="cclogger.h">
<polygon fill="white" stroke="red" points="1381.5,-280.5 1381.5,-299.5 1442.5,-299.5 1442.5,-280.5 1381.5,-280.5"/>
<text text-anchor="middle" x="1412" y="-287.5" font-family="FreeSans" font-size="10.00">cclogger.h</text>
</a>
</g>
</g>
<!-- Node36&#45;&gt;Node43 -->
<g id="edge93" class="edge"><title>Node36&#45;&gt;Node43</title>
<path fill="none" stroke="midnightblue" d="M1452.07,-336.083C1445.15,-328.298 1434.93,-316.801 1426.55,-307.367"/>
<polygon fill="midnightblue" stroke="midnightblue" points="1429.04,-304.9 1419.78,-299.751 1423.81,-309.55 1429.04,-304.9"/>
</g>
<!-- Node44 -->
<g id="node44" class="node"><title>Node44</title>
<g id="a_node44"><a xlink:href="tokenizer_8h.xhtml" target="_top" xlink:title="tokenizer.h">
<polygon fill="white" stroke="red" points="1283.5,-280.5 1283.5,-299.5 1346.5,-299.5 1346.5,-280.5 1283.5,-280.5"/>
<text text-anchor="middle" x="1315" y="-287.5" font-family="FreeSans" font-size="10.00">tokenizer.h</text>
</a>
</g>
</g>
<!-- Node36&#45;&gt;Node44 -->
<g id="edge99" class="edge"><title>Node36&#45;&gt;Node44</title>
<path fill="none" stroke="midnightblue" d="M1437.02,-336.444C1412.84,-327.438 1374.58,-313.189 1347.35,-303.049"/>
<polygon fill="midnightblue" stroke="midnightblue" points="1348.46,-299.727 1337.87,-299.516 1346.02,-306.286 1348.46,-299.727"/>
</g>
<!-- Node36&#45;&gt;Node45 -->
<g id="edge107" class="edge"><title>Node36&#45;&gt;Node45</title>
<path fill="none" stroke="midnightblue" d="M1421.34,-341.272C1378.83,-336.112 1309.21,-324.5 1254,-300 1225.63,-287.412 1197.21,-265.203 1179.87,-250.294"/>
<polygon fill="midnightblue" stroke="midnightblue" points="1182.11,-247.607 1172.29,-243.636 1177.49,-252.866 1182.11,-247.607"/>
</g>
<!-- Node46 -->
<g id="node46" class="node"><title>Node46</title>
<g id="a_node46"><a xlink:href="tokentree_8h.xhtml" target="_top" xlink:title="tokentree.h">
<polygon fill="white" stroke="red" points="1914.5,-280.5 1914.5,-299.5 1979.5,-299.5 1979.5,-280.5 1914.5,-280.5"/>
<text text-anchor="middle" x="1947" y="-287.5" font-family="FreeSans" font-size="10.00">tokentree.h</text>
</a>
</g>
</g>
<!-- Node36&#45;&gt;Node46 -->
<g id="edge108" class="edge"><title>Node36&#45;&gt;Node46</title>
<path fill="none" stroke="midnightblue" d="M1498.62,-340.718C1588.39,-330.763 1810.59,-306.125 1904.27,-295.739"/>
<polygon fill="midnightblue" stroke="midnightblue" points="1904.69,-299.213 1914.24,-294.632 1903.92,-292.256 1904.69,-299.213"/>
</g>
<!-- Node37&#45;&gt;Node8 -->
<g id="edge77" class="edge"><title>Node37&#45;&gt;Node8</title>
<path fill="none" stroke="midnightblue" d="M1594.63,-224.418C1605.66,-210.943 1623.26,-184.646 1609,-168 1577.44,-131.169 1432.43,-124.231 1360.17,-123.095"/>
<polygon fill="midnightblue" stroke="midnightblue" points="1360.1,-119.594 1350.06,-122.966 1360.01,-126.593 1360.1,-119.594"/>
</g>
<!-- Node37&#45;&gt;Node12 -->
<g id="edge87" class="edge"><title>Node37&#45;&gt;Node12</title>
<path fill="none" stroke="midnightblue" d="M1598.29,-224.422C1609.66,-215.641 1627.52,-201.417 1642,-188 1659.05,-172.199 1677.27,-152.761 1689.51,-139.279"/>
<polygon fill="midnightblue" stroke="midnightblue" points="1692.21,-141.514 1696.3,-131.74 1687,-136.83 1692.21,-141.514"/>
</g>
<!-- Node37&#45;&gt;Node13 -->
<g id="edge88" class="edge"><title>Node37&#45;&gt;Node13</title>
<path fill="none" stroke="midnightblue" d="M1578.95,-224.397C1564.78,-209.88 1533.76,-180.847 1501,-168 1429.12,-139.807 1201.04,-128.306 1101.38,-124.542"/>
<polygon fill="midnightblue" stroke="midnightblue" points="1101.41,-121.041 1091.29,-124.171 1101.16,-128.036 1101.41,-121.041"/>
</g>
<!-- Node37&#45;&gt;Node31 -->
<g id="edge76" class="edge"><title>Node37&#45;&gt;Node31</title>
<path fill="none" stroke="midnightblue" d="M1624.28,-232.104C1755.25,-228.729 2189.33,-215.554 2245,-188 2265.94,-177.635 2282.49,-155.837 2292.25,-140.345"/>
<polygon fill="midnightblue" stroke="midnightblue" points="2295.31,-142.054 2297.42,-131.673 2289.29,-138.467 2295.31,-142.054"/>
</g>
<!-- Node38 -->
<g id="node38" class="node"><title>Node38</title>
<polygon fill="white" stroke="#bfbfbf" points="1548.5,-168.5 1548.5,-187.5 1599.5,-187.5 1599.5,-168.5 1548.5,-168.5"/>
<text text-anchor="middle" x="1574" y="-175.5" font-family="FreeSans" font-size="10.00">wx/log.h</text>
</g>
<!-- Node37&#45;&gt;Node38 -->
<g id="edge78" class="edge"><title>Node37&#45;&gt;Node38</title>
<path fill="none" stroke="midnightblue" d="M1584.85,-224.083C1583.13,-216.927 1580.65,-206.635 1578.5,-197.691"/>
<polygon fill="midnightblue" stroke="midnightblue" points="1581.85,-196.654 1576.11,-187.751 1575.04,-198.293 1581.85,-196.654"/>
</g>
<!-- Node39 -->
<g id="node39" class="node"><title>Node39</title>
<g id="a_node39"><a xlink:href="backgroundthread_8h.xhtml" target="_top" xlink:title="backgroundthread.h">
<polygon fill="white" stroke="red" points="2036.5,-168.5 2036.5,-187.5 2137.5,-187.5 2137.5,-168.5 2036.5,-168.5"/>
<text text-anchor="middle" x="2087" y="-175.5" font-family="FreeSans" font-size="10.00">backgroundthread.h</text>
</a>
</g>
</g>
<!-- Node37&#45;&gt;Node39 -->
<g id="edge79" class="edge"><title>Node37&#45;&gt;Node39</title>
<path fill="none" stroke="midnightblue" d="M1624.17,-228.985C1709.81,-219.736 1921.67,-196.856 2026.4,-185.545"/>
<polygon fill="midnightblue" stroke="midnightblue" points="2026.93,-189.008 2036.5,-184.454 2026.18,-182.048 2026.93,-189.008"/>
</g>
<!-- Node40 -->
<g id="node40" class="node"><title>Node40</title>
<polygon fill="white" stroke="#bfbfbf" points="1785.5,-112.5 1785.5,-131.5 1828.5,-131.5 1828.5,-112.5 1785.5,-112.5"/>
<text text-anchor="middle" x="1807" y="-119.5" font-family="FreeSans" font-size="10.00">deque</text>
</g>
<!-- Node37&#45;&gt;Node40 -->
<g id="edge85" class="edge"><title>Node37&#45;&gt;Node40</title>
<path fill="none" stroke="midnightblue" d="M1604.26,-224.368C1642.66,-205.171 1735.32,-158.842 1780.85,-136.074"/>
<polygon fill="midnightblue" stroke="midnightblue" points="1782.44,-139.194 1789.82,-131.591 1779.31,-132.933 1782.44,-139.194"/>
</g>
<!-- Node41 -->
<g id="node41" class="node"><title>Node41</title>
<polygon fill="white" stroke="#bfbfbf" points="1440.5,-168.5 1440.5,-187.5 1491.5,-187.5 1491.5,-168.5 1440.5,-168.5"/>
<text text-anchor="middle" x="1466" y="-175.5" font-family="FreeSans" font-size="10.00">memory</text>
</g>
<!-- Node37&#45;&gt;Node41 -->
<g id="edge86" class="edge"><title>Node37&#45;&gt;Node41</title>
<path fill="none" stroke="midnightblue" d="M1567.83,-224.444C1548.09,-215.636 1517.11,-201.812 1494.51,-191.722"/>
<polygon fill="midnightblue" stroke="midnightblue" points="1495.64,-188.396 1485.08,-187.516 1492.79,-194.788 1495.64,-188.396"/>
</g>
<!-- Node39&#45;&gt;Node18 -->
<g id="edge84" class="edge"><title>Node39&#45;&gt;Node18</title>
<path fill="none" stroke="midnightblue" d="M2036.5,-175.904C1775.12,-170.199 581.724,-143.7 417,-132 405.011,-131.148 392.028,-129.816 380.157,-128.435"/>
<polygon fill="midnightblue" stroke="midnightblue" points="380.412,-124.94 370.065,-127.219 379.575,-131.89 380.412,-124.94"/>
</g>
<!-- Node39&#45;&gt;Node31 -->
<g id="edge83" class="edge"><title>Node39&#45;&gt;Node31</title>
<path fill="none" stroke="midnightblue" d="M2121.07,-168.444C2158.62,-159.012 2219.06,-143.83 2259.64,-133.64"/>
<polygon fill="midnightblue" stroke="midnightblue" points="2260.65,-136.994 2269.5,-131.163 2258.95,-130.204 2260.65,-136.994"/>
</g>
<!-- Node39&#45;&gt;Node32 -->
<g id="edge82" class="edge"><title>Node39&#45;&gt;Node32</title>
<path fill="none" stroke="midnightblue" d="M2137.71,-169.193C2140.85,-168.772 2143.97,-168.37 2147,-168 2308.36,-148.301 2501.35,-132.453 2583.63,-126.057"/>
<polygon fill="midnightblue" stroke="midnightblue" points="2584.1,-129.531 2593.8,-125.271 2583.56,-122.552 2584.1,-129.531"/>
</g>
<!-- Node39&#45;&gt;Node34 -->
<g id="edge81" class="edge"><title>Node39&#45;&gt;Node34</title>
<path fill="none" stroke="midnightblue" d="M2045.27,-168.434C2005.23,-159.99 1943.19,-146.306 1890,-132 1888.54,-131.606 1887.04,-131.188 1885.52,-130.754"/>
<polygon fill="midnightblue" stroke="midnightblue" points="1886.27,-127.325 1875.69,-127.797 1884.26,-134.028 1886.27,-127.325"/>
</g>
<!-- Node39&#45;&gt;Node40 -->
<g id="edge80" class="edge"><title>Node39&#45;&gt;Node40</title>
<path fill="none" stroke="midnightblue" d="M2036.13,-169.392C1987.76,-161.802 1912.78,-149.119 1838.59,-131.926"/>
<polygon fill="midnightblue" stroke="midnightblue" points="1839.14,-128.459 1828.6,-129.583 1837.54,-135.274 1839.14,-128.459"/>
</g>
<!-- Node42&#45;&gt;Node16 -->
<g id="edge91" class="edge"><title>Node42&#45;&gt;Node16</title>
<path fill="none" stroke="midnightblue" d="M1204.87,-225.597C1201.87,-225.041 1198.89,-224.502 1196,-224 1102.5,-207.729 991.751,-191.701 936.322,-183.901"/>
<polygon fill="midnightblue" stroke="midnightblue" points="936.702,-180.42 926.313,-182.497 935.73,-187.352 936.702,-180.42"/>
</g>
<!-- Node42&#45;&gt;Node18 -->
<g id="edge90" class="edge"><title>Node42&#45;&gt;Node18</title>
<path fill="none" stroke="midnightblue" d="M1226.54,-224.27C1199.59,-209.56 1141.86,-180.244 1089,-168 797.62,-100.505 715.035,-157.154 417,-132 405.023,-130.989 392.044,-129.607 380.173,-128.229"/>
<polygon fill="midnightblue" stroke="midnightblue" points="380.423,-124.734 370.08,-127.029 379.597,-131.685 380.423,-124.734"/>
</g>
<!-- Node42&#45;&gt;Node19 -->
<g id="edge92" class="edge"><title>Node42&#45;&gt;Node19</title>
<path fill="none" stroke="midnightblue" d="M1240.92,-224.075C1237.78,-197.945 1228.53,-121.211 1224.24,-85.577"/>
<polygon fill="midnightblue" stroke="midnightblue" points="1227.7,-85.0776 1223.03,-75.5681 1220.75,-85.915 1227.7,-85.0776"/>
</g>
<!-- Node43&#45;&gt;Node8 -->
<g id="edge94" class="edge"><title>Node43&#45;&gt;Node8</title>
<path fill="none" stroke="midnightblue" d="M1401.65,-280.231C1392.15,-271.746 1378.2,-258.126 1369,-244 1347.27,-210.636 1331.87,-166.277 1324.31,-141.592"/>
<polygon fill="midnightblue" stroke="midnightblue" points="1327.59,-140.339 1321.39,-131.745 1320.87,-142.327 1327.59,-140.339"/>
</g>
<!-- Node43&#45;&gt;Node17 -->
<g id="edge98" class="edge"><title>Node43&#45;&gt;Node17</title>
<path fill="none" stroke="midnightblue" d="M1409.82,-280.287C1401.32,-246.529 1370.3,-125.546 1359,-112 1323.85,-69.8796 1301.34,-72.4342 1249,-56 1145.14,-23.3898 1015.23,-14.3898 956.043,-11.9224"/>
<polygon fill="midnightblue" stroke="midnightblue" points="955.963,-8.41692 945.837,-11.5335 955.696,-15.4118 955.963,-8.41692"/>
</g>
<!-- Node43&#45;&gt;Node31 -->
<g id="edge95" class="edge"><title>Node43&#45;&gt;Node31</title>
<path fill="none" stroke="midnightblue" d="M1410.24,-280.294C1406.26,-257.746 1399.25,-197.173 1432,-168 1462.94,-140.44 2135.64,-134.488 2177,-132 2204.34,-130.356 2235.01,-128.152 2259.13,-126.338"/>
<polygon fill="midnightblue" stroke="midnightblue" points="2259.67,-129.807 2269.38,-125.56 2259.14,-122.827 2259.67,-129.807"/>
</g>
<!-- Node43&#45;&gt;Node41 -->
<g id="edge96" class="edge"><title>Node43&#45;&gt;Node41</title>
<path fill="none" stroke="midnightblue" d="M1416.48,-280.409C1421.17,-271.379 1428.71,-256.744 1435,-244 1442.78,-228.256 1451.35,-210.222 1457.51,-197.15"/>
<polygon fill="midnightblue" stroke="midnightblue" points="1460.78,-198.408 1461.86,-187.869 1454.45,-195.433 1460.78,-198.408"/>
</g>
<!-- Node43&#45;&gt;Node42 -->
<g id="edge97" class="edge"><title>Node43&#45;&gt;Node42</title>
<path fill="none" stroke="midnightblue" d="M1385.06,-280.444C1356.34,-271.32 1310.67,-256.813 1278.68,-246.651"/>
<polygon fill="midnightblue" stroke="midnightblue" points="1279.4,-243.208 1268.81,-243.516 1277.28,-249.88 1279.4,-243.208"/>
</g>
<!-- Node44&#45;&gt;Node8 -->
<g id="edge100" class="edge"><title>Node44&#45;&gt;Node8</title>
<path fill="none" stroke="midnightblue" d="M1315.22,-280.075C1315.84,-253.945 1317.69,-177.211 1318.55,-141.577"/>
<polygon fill="midnightblue" stroke="midnightblue" points="1322.05,-141.65 1318.79,-131.568 1315.05,-141.481 1322.05,-141.65"/>
</g>
<!-- Node44&#45;&gt;Node37 -->
<g id="edge101" class="edge"><title>Node44&#45;&gt;Node37</title>
<path fill="none" stroke="midnightblue" d="M1346.73,-282.7C1394.36,-273.245 1484.62,-255.326 1539.93,-244.345"/>
<polygon fill="midnightblue" stroke="midnightblue" points="1540.71,-247.759 1549.83,-242.379 1539.34,-240.893 1540.71,-247.759"/>
</g>
<!-- Node44&#45;&gt;Node45 -->
<g id="edge102" class="edge"><title>Node44&#45;&gt;Node45</title>
<path fill="none" stroke="midnightblue" d="M1290.92,-280.444C1265.46,-271.399 1225.11,-257.064 1196.54,-246.916"/>
<polygon fill="midnightblue" stroke="midnightblue" points="1197.57,-243.566 1186.97,-243.516 1195.22,-250.162 1197.57,-243.566"/>
</g>
<!-- Node45&#45;&gt;Node5 -->
<g id="edge103" class="edge"><title>Node45&#45;&gt;Node5</title>
<path fill="none" stroke="midnightblue" d="M1145.09,-224.444C1126.75,-215.675 1097.99,-201.935 1076.91,-191.858"/>
<polygon fill="midnightblue" stroke="midnightblue" points="1078.35,-188.67 1067.82,-187.516 1075.33,-194.986 1078.35,-188.67"/>
</g>
<!-- Node45&#45;&gt;Node8 -->
<g id="edge104" class="edge"><title>Node45&#45;&gt;Node8</title>
<path fill="none" stroke="midnightblue" d="M1175.24,-224.368C1201.9,-205.573 1265.44,-160.768 1298.39,-137.533"/>
<polygon fill="midnightblue" stroke="midnightblue" points="1300.66,-140.215 1306.82,-131.591 1296.63,-134.494 1300.66,-140.215"/>
</g>
<!-- Node45&#45;&gt;Node19 -->
<g id="edge106" class="edge"><title>Node45&#45;&gt;Node19</title>
<path fill="none" stroke="midnightblue" d="M1166.17,-224.075C1175.5,-197.832 1202.97,-120.545 1215.56,-85.1165"/>
<polygon fill="midnightblue" stroke="midnightblue" points="1218.9,-86.1628 1218.95,-75.5681 1212.31,-83.8185 1218.9,-86.1628"/>
</g>
<!-- Node45&#45;&gt;Node24 -->
<g id="edge105" class="edge"><title>Node45&#45;&gt;Node24</title>
<path fill="none" stroke="midnightblue" d="M1138.74,-229.981C1062.85,-220.539 830.53,-191.633 753.849,-182.092"/>
<polygon fill="midnightblue" stroke="midnightblue" points="754.057,-178.591 743.701,-180.829 753.193,-185.537 754.057,-178.591"/>
</g>
<!-- Node46&#45;&gt;Node8 -->
<g id="edge109" class="edge"><title>Node46&#45;&gt;Node8</title>
<path fill="none" stroke="midnightblue" d="M1941.91,-280.261C1927.88,-257.084 1886.04,-194.048 1832,-168 1748.99,-127.989 1467.05,-123.236 1360.36,-122.903"/>
<polygon fill="midnightblue" stroke="midnightblue" points="1360.31,-119.403 1350.3,-122.883 1360.29,-126.403 1360.31,-119.403"/>
</g>
<!-- Node46&#45;&gt;Node10 -->
<g id="edge111" class="edge"><title>Node46&#45;&gt;Node10</title>
<path fill="none" stroke="midnightblue" d="M1979.93,-288.274C2035.61,-286.114 2151.13,-277.583 2242,-244 2311.54,-218.3 2395.67,-165.17 2344,-112 2337.03,-104.832 1026.09,-73.0918 803.836,-67.761"/>
<polygon fill="midnightblue" stroke="midnightblue" points="803.603,-64.2545 793.522,-67.5139 803.435,-71.2525 803.603,-64.2545"/>
</g>
<!-- Node46&#45;&gt;Node31 -->
<g id="edge110" class="edge"><title>Node46&#45;&gt;Node31</title>
<path fill="none" stroke="midnightblue" d="M1979.58,-285.093C2061.89,-274.488 2274.6,-242.254 2316,-188 2326.47,-174.281 2319.94,-154.418 2312.69,-140.265"/>
<polygon fill="midnightblue" stroke="midnightblue" points="2315.72,-138.515 2307.76,-131.526 2309.62,-141.955 2315.72,-138.515"/>
</g>
<!-- Node46&#45;&gt;Node40 -->
<g id="edge112" class="edge"><title>Node46&#45;&gt;Node40</title>
<path fill="none" stroke="midnightblue" d="M1946.55,-280.197C1944.99,-258.445 1938.08,-201.5 1908,-168 1898.22,-157.108 1864.24,-143.222 1838.37,-133.776"/>
<polygon fill="midnightblue" stroke="midnightblue" points="1839.52,-130.468 1828.92,-130.388 1837.16,-137.057 1839.52,-130.468"/>
</g>
<!-- Node46&#45;&gt;Node45 -->
<g id="edge113" class="edge"><title>Node46&#45;&gt;Node45</title>
<path fill="none" stroke="midnightblue" d="M1914.34,-285.145C1898.55,-283.382 1879.31,-281.383 1862,-280 1569.83,-256.651 1490.42,-290.488 1197.1,-243.806"/>
<polygon fill="midnightblue" stroke="midnightblue" points="1197.45,-240.318 1187.02,-242.184 1196.34,-247.229 1197.45,-240.318"/>
</g>
<!-- Node47&#45;&gt;Node5 -->
<g id="edge115" class="edge"><title>Node47&#45;&gt;Node5</title>
<path fill="none" stroke="midnightblue" d="M1424.03,-392.481C1391.66,-384.411 1343.03,-371.275 1302,-356 1282.25,-348.646 1278.58,-343.79 1259,-336 1211.99,-317.301 1193.8,-326.99 1151,-300 1108.72,-273.337 1075.36,-223.119 1059.71,-196.536"/>
<polygon fill="midnightblue" stroke="midnightblue" points="1062.6,-194.545 1054.6,-187.603 1056.53,-198.021 1062.6,-194.545"/>
</g>
<!-- Node47&#45;&gt;Node6 -->
<g id="edge116" class="edge"><title>Node47&#45;&gt;Node6</title>
<path fill="none" stroke="midnightblue" d="M1498.26,-401.507C1592.6,-402.017 1843.47,-398.865 2047,-356 2120.31,-340.56 2135.9,-326.45 2206,-300 2299.15,-264.852 2362.31,-280.152 2400,-188 2454.29,-55.2373 2187.64,-21.4967 2082.3,-13.4067"/>
<polygon fill="midnightblue" stroke="midnightblue" points="2082.27,-9.89495 2072.04,-12.6609 2081.76,-16.8765 2082.27,-9.89495"/>
</g>
<!-- Node47&#45;&gt;Node8 -->
<g id="edge120" class="edge"><title>Node47&#45;&gt;Node8</title>
<path fill="none" stroke="midnightblue" d="M1498.27,-401.875C1596.71,-402.538 1847.14,-393.358 1791,-280 1754.55,-206.397 1719.83,-199.556 1644,-168 1548.1,-128.094 1423.92,-122.207 1360.41,-122.122"/>
<polygon fill="midnightblue" stroke="midnightblue" points="1360.37,-118.622 1350.38,-122.157 1360.39,-125.622 1360.37,-118.622"/>
</g>
<!-- Node47&#45;&gt;Node11 -->
<g id="edge123" class="edge"><title>Node47&#45;&gt;Node11</title>
<path fill="none" stroke="midnightblue" d="M1437.77,-392.465C1385.51,-372.304 1256.17,-321.791 1215,-300 1175.02,-278.838 1160.55,-277.363 1130,-244 1104.08,-215.696 1120.6,-189.786 1089,-168 1041.83,-135.479 873.792,-126.428 792.578,-123.934"/>
<polygon fill="midnightblue" stroke="midnightblue" points="792.279,-120.424 782.183,-123.637 792.079,-127.422 792.279,-120.424"/>
</g>
<!-- Node47&#45;&gt;Node12 -->
<g id="edge117" class="edge"><title>Node47&#45;&gt;Node12</title>
<path fill="none" stroke="midnightblue" d="M1498.17,-400.662C1614.05,-399.245 1955.91,-392.02 1989,-356 2079.6,-257.366 1867.67,-171.634 1861,-168 1822.13,-146.819 1772.29,-134.737 1739.31,-128.533"/>
<polygon fill="midnightblue" stroke="midnightblue" points="1739.69,-125.045 1729.23,-126.721 1738.45,-131.935 1739.69,-125.045"/>
</g>
<!-- Node47&#45;&gt;Node29 -->
<g id="edge118" class="edge"><title>Node47&#45;&gt;Node29</title>
<path fill="none" stroke="midnightblue" d="M1421.85,-395.982C1368.09,-388.716 1266.82,-374.304 1170.65,-356.003"/>
<polygon fill="midnightblue" stroke="midnightblue" points="1171.24,-352.553 1160.76,-354.104 1169.92,-359.427 1171.24,-352.553"/>
</g>
<!-- Node47&#45;&gt;Node30 -->
<g id="edge119" class="edge"><title>Node47&#45;&gt;Node30</title>
<path fill="none" stroke="midnightblue" d="M1421.83,-392.622C1378.08,-383.017 1306.4,-367.283 1259.71,-357.034"/>
<polygon fill="midnightblue" stroke="midnightblue" points="1260.37,-353.596 1249.85,-354.871 1258.87,-360.433 1260.37,-353.596"/>
</g>
<!-- Node47&#45;&gt;Node31 -->
<g id="edge121" class="edge"><title>Node47&#45;&gt;Node31</title>
<path fill="none" stroke="midnightblue" d="M1498.19,-399.682C1606.21,-395.666 1912.32,-382.23 2009,-356 2048.04,-345.408 2312.35,-223.362 2332,-188 2341,-171.805 2329.35,-152.432 2318.04,-139.073"/>
<polygon fill="midnightblue" stroke="midnightblue" points="2320.56,-136.642 2311.23,-131.614 2315.39,-141.36 2320.56,-136.642"/>
</g>
<!-- Node47&#45;&gt;Node32 -->
<g id="edge122" class="edge"><title>Node47&#45;&gt;Node32</title>
<path fill="none" stroke="midnightblue" d="M1498.1,-399.855C1655.65,-394.694 2256.09,-370.677 2430,-300 2507.74,-268.407 2525.52,-250.063 2582,-188 2595.24,-173.447 2607.08,-154.272 2614.78,-140.526"/>
<polygon fill="midnightblue" stroke="midnightblue" points="2617.93,-142.078 2619.63,-131.62 2611.78,-138.734 2617.93,-142.078"/>
</g>
<!-- Node47&#45;&gt;Node36 -->
<g id="edge124" class="edge"><title>Node47&#45;&gt;Node36</title>
<path fill="none" stroke="midnightblue" d="M1460,-392.083C1460,-385.006 1460,-374.861 1460,-365.986"/>
<polygon fill="midnightblue" stroke="midnightblue" points="1463.5,-365.751 1460,-355.751 1456.5,-365.751 1463.5,-365.751"/>
</g>
<!-- Node48&#45;&gt;Node11 -->
<g id="edge128" class="edge"><title>Node48&#45;&gt;Node11</title>
<path fill="none" stroke="midnightblue" d="M1005.95,-567.337C875.017,-562.26 598,-541.743 598,-459 598,-459 598,-459 598,-401 598,-296.941 511.351,-250.323 575,-168 582.997,-157.657 655.427,-141.432 703.998,-131.55"/>
<polygon fill="midnightblue" stroke="midnightblue" points="704.856,-134.948 713.969,-129.543 703.474,-128.086 704.856,-134.948"/>
</g>
<!-- Node48&#45;&gt;Node26 -->
<g id="edge129" class="edge"><title>Node48&#45;&gt;Node26</title>
<path fill="none" stroke="midnightblue" d="M1021.82,-560.444C958.555,-549.867 852.028,-532.057 792.865,-522.166"/>
<polygon fill="midnightblue" stroke="midnightblue" points="793.181,-518.671 782.74,-520.474 792.026,-525.575 793.181,-518.671"/>
</g>
<!-- Node48&#45;&gt;Node28 -->
<g id="edge142" class="edge"><title>Node48&#45;&gt;Node28</title>
<path fill="none" stroke="midnightblue" d="M1084.06,-560.368C1108.05,-541.653 1165.1,-497.151 1194.99,-473.832"/>
<polygon fill="midnightblue" stroke="midnightblue" points="1197.26,-476.502 1202.99,-467.591 1192.95,-470.983 1197.26,-476.502"/>
</g>
<!-- Node48&#45;&gt;Node31 -->
<g id="edge127" class="edge"><title>Node48&#45;&gt;Node31</title>
<path fill="none" stroke="midnightblue" d="M1140.05,-567.808C1316.65,-564.308 1791.62,-552.456 1946,-524 2184.43,-480.051 2317.19,-548.182 2465,-356 2516.39,-289.186 2503.86,-223.019 2440,-168 2413.19,-144.899 2374.26,-133.601 2344.58,-128.109"/>
<polygon fill="midnightblue" stroke="midnightblue" points="2344.95,-124.621 2334.5,-126.398 2343.78,-131.522 2344.95,-124.621"/>
</g>
<!-- Node48&#45;&gt;Node45 -->
<g id="edge141" class="edge"><title>Node48&#45;&gt;Node45</title>
<path fill="none" stroke="midnightblue" d="M1073,-560.442C1073,-541.936 1073,-496.812 1073,-459 1073,-459 1073,-459 1073,-345 1073,-302.658 1113.44,-267.655 1140.1,-249.178"/>
<polygon fill="midnightblue" stroke="midnightblue" points="1142.16,-252.015 1148.54,-243.558 1138.28,-246.189 1142.16,-252.015"/>
</g>
<!-- Node49 -->
<g id="node49" class="node"><title>Node49</title>
<g id="a_node49"><a xlink:href="nativeparser_8h.xhtml" target="_top" xlink:title="nativeparser.h">
<polygon fill="white" stroke="black" points="1861,-504.5 1861,-523.5 1937,-523.5 1937,-504.5 1861,-504.5"/>
<text text-anchor="middle" x="1899" y="-511.5" font-family="FreeSans" font-size="10.00">nativeparser.h</text>
</a>
</g>
</g>
<!-- Node48&#45;&gt;Node49 -->
<g id="edge130" class="edge"><title>Node48&#45;&gt;Node49</title>
<path fill="none" stroke="midnightblue" d="M1140.24,-564.604C1302.18,-554.017 1710.76,-527.306 1850.93,-518.143"/>
<polygon fill="midnightblue" stroke="midnightblue" points="1851.19,-521.633 1860.94,-517.488 1850.73,-514.648 1851.19,-521.633"/>
</g>
<!-- Node49&#45;&gt;Node6 -->
<g id="edge140" class="edge"><title>Node49&#45;&gt;Node6</title>
<path fill="none" stroke="midnightblue" d="M1937.02,-512.193C2103.26,-508.173 2758,-487.008 2758,-403 2758,-403 2758,-403 2758,-121 2758,-42.1816 2669.77,-73.8388 2593,-56 2405.88,-12.5201 2174.6,-9.49868 2082.07,-10.2676"/>
<polygon fill="midnightblue" stroke="midnightblue" points="2081.97,-6.76837 2072.01,-10.3713 2082.04,-13.768 2081.97,-6.76837"/>
</g>
<!-- Node49&#45;&gt;Node19 -->
<g id="edge139" class="edge"><title>Node49&#45;&gt;Node19</title>
<path fill="none" stroke="midnightblue" d="M1937.03,-511.716C2093.84,-505.928 2682,-479.143 2682,-403 2682,-403 2682,-403 2682,-177 2682,-146.902 2686.8,-130.425 2663,-112 2605,-67.0966 1444.7,-66.6972 1249.7,-66.9483"/>
<polygon fill="midnightblue" stroke="midnightblue" points="1249.68,-63.4482 1239.69,-66.963 1249.69,-70.4482 1249.68,-63.4482"/>
</g>
<!-- Node49&#45;&gt;Node27 -->
<g id="edge138" class="edge"><title>Node49&#45;&gt;Node27</title>
<path fill="none" stroke="midnightblue" d="M1893.55,-504.297C1872.88,-471.286 1799.07,-353.404 1770.97,-308.522"/>
<polygon fill="midnightblue" stroke="midnightblue" points="1773.84,-306.502 1765.56,-299.884 1767.9,-310.217 1773.84,-306.502"/>
</g>
<!-- Node49&#45;&gt;Node28 -->
<g id="edge137" class="edge"><title>Node49&#45;&gt;Node28</title>
<path fill="none" stroke="midnightblue" d="M1860.7,-509.981C1744.39,-500.812 1395.22,-473.286 1264.31,-462.966"/>
<polygon fill="midnightblue" stroke="midnightblue" points="1264.4,-459.463 1254.16,-462.166 1263.85,-466.441 1264.4,-459.463"/>
</g>
<!-- Node50 -->
<g id="node50" class="node"><title>Node50</title>
<g id="a_node50"><a xlink:href="nativeparser__base_8h.xhtml" target="_top" xlink:title="nativeparser_base.h">
<polygon fill="white" stroke="black" points="1878.5,-336.5 1878.5,-355.5 1979.5,-355.5 1979.5,-336.5 1878.5,-336.5"/>
<text text-anchor="middle" x="1929" y="-343.5" font-family="FreeSans" font-size="10.00">nativeparser_base.h</text>
</a>
</g>
</g>
<!-- Node49&#45;&gt;Node50 -->
<g id="edge131" class="edge"><title>Node49&#45;&gt;Node50</title>
<path fill="none" stroke="midnightblue" d="M1900.61,-504.075C1905.34,-477.945 1919.2,-401.211 1925.64,-365.577"/>
<polygon fill="midnightblue" stroke="midnightblue" points="1929.12,-366.031 1927.45,-355.568 1922.23,-364.786 1929.12,-366.031"/>
</g>
<!-- Node50&#45;&gt;Node8 -->
<g id="edge132" class="edge"><title>Node50&#45;&gt;Node8</title>
<path fill="none" stroke="midnightblue" d="M1923.67,-336.264C1903.49,-303.471 1831,-188.542 1794,-168 1720.03,-126.933 1461.68,-122.752 1360.29,-122.739"/>
<polygon fill="midnightblue" stroke="midnightblue" points="1360.12,-119.239 1350.13,-122.752 1360.13,-126.239 1360.12,-119.239"/>
</g>
<!-- Node50&#45;&gt;Node19 -->
<g id="edge133" class="edge"><title>Node50&#45;&gt;Node19</title>
<path fill="none" stroke="midnightblue" d="M1979.65,-337.456C2118.75,-314.871 2488.24,-241.234 2364,-112 2324.18,-70.5791 1421.24,-67.2738 1249.92,-67.0197"/>
<polygon fill="midnightblue" stroke="midnightblue" points="1249.71,-63.5196 1239.71,-67.007 1249.71,-70.5196 1249.71,-63.5196"/>
</g>
<!-- Node50&#45;&gt;Node27 -->
<g id="edge134" class="edge"><title>Node50&#45;&gt;Node27</title>
<path fill="none" stroke="midnightblue" d="M1902.22,-336.444C1872.07,-326.81 1823.14,-311.175 1791.26,-300.99"/>
<polygon fill="midnightblue" stroke="midnightblue" points="1792.15,-297.598 1781.56,-297.889 1790.02,-304.266 1792.15,-297.598"/>
</g>
<!-- Node50&#45;&gt;Node45 -->
<g id="edge135" class="edge"><title>Node50&#45;&gt;Node45</title>
<path fill="none" stroke="midnightblue" d="M1915.17,-336.288C1891.05,-321.607 1839.24,-292.333 1791,-280 1537.59,-215.209 1459.38,-285.258 1197.23,-243.82"/>
<polygon fill="midnightblue" stroke="midnightblue" points="1197.46,-240.312 1187.02,-242.166 1196.34,-247.221 1197.46,-240.312"/>
</g>
<!-- Node50&#45;&gt;Node46 -->
<g id="edge136" class="edge"><title>Node50&#45;&gt;Node46</title>
<path fill="none" stroke="midnightblue" d="M1931.97,-336.083C1934.38,-328.849 1937.86,-318.409 1940.87,-309.397"/>
<polygon fill="midnightblue" stroke="midnightblue" points="1944.24,-310.345 1944.08,-299.751 1937.6,-308.131 1944.24,-310.345"/>
</g>
</g>
</svg>
