<?xml version="1.0" encoding="UTF-8" standalone="no"?>
<!DOCTYPE svg PUBLIC "-//W3C//DTD SVG 1.1//EN"
 "http://www.w3.org/Graphics/SVG/1.1/DTD/svg11.dtd">
<!-- Generated by graphviz version 2.38.0 (20140413.2041)
 -->
<!-- Title: cbSmartIndentPlugin Pages: 1 -->
<svg width="166pt" height="672pt"
 viewBox="0.00 0.00 166.00 672.00" xmlns="http://www.w3.org/2000/svg" xmlns:xlink="http://www.w3.org/1999/xlink">
<g id="graph0" class="graph" transform="scale(1 1) rotate(0) translate(4 668)">
<title>cbSmartIndentPlugin</title>
<polygon fill="white" stroke="none" points="-4,4 -4,-668 162,-668 162,4 -4,4"/>
<!-- Node1 -->
<g id="node1" class="node"><title>Node1</title>
<polygon fill="#bfbfbf" stroke="black" points="1,-0.5 1,-266.5 157,-266.5 157,-0.5 1,-0.5"/>
<text text-anchor="middle" x="79" y="-254.5" font-family="FreeSans" font-size="10.00">cbSmartIndentPlugin</text>
<polyline fill="none" stroke="black" points="1,-247.5 157,-247.5 "/>
<text text-anchor="start" x="9" y="-235.5" font-family="FreeSans" font-size="10.00">&#45; m_FunctorId</text>
<polyline fill="none" stroke="black" points="1,-228.5 157,-228.5 "/>
<text text-anchor="start" x="9" y="-216.5" font-family="FreeSans" font-size="10.00">+ cbSmartIndentPlugin()</text>
<text text-anchor="start" x="9" y="-205.5" font-family="FreeSans" font-size="10.00">+ OnEditorHook()</text>
<text text-anchor="start" x="9" y="-194.5" font-family="FreeSans" font-size="10.00">+ OnCCDone()</text>
<text text-anchor="start" x="9" y="-183.5" font-family="FreeSans" font-size="10.00"># OnAttach()</text>
<text text-anchor="start" x="9" y="-172.5" font-family="FreeSans" font-size="10.00"># OnRelease()</text>
<text text-anchor="start" x="9" y="-161.5" font-family="FreeSans" font-size="10.00"># GetLastNonCommentWord()</text>
<text text-anchor="start" x="9" y="-150.5" font-family="FreeSans" font-size="10.00"># GetLastNonWhitespaceChars()</text>
<text text-anchor="start" x="9" y="-139.5" font-family="FreeSans" font-size="10.00"># GetLastNonWhitespaceChar()</text>
<text text-anchor="start" x="9" y="-128.5" font-family="FreeSans" font-size="10.00"># GetNextNonWhitespaceChar</text>
<text text-anchor="start" x="9" y="-117.5" font-family="FreeSans" font-size="10.00">OnLine()</text>
<text text-anchor="start" x="9" y="-106.5" font-family="FreeSans" font-size="10.00"># FindBlockStart()</text>
<text text-anchor="start" x="9" y="-95.5" font-family="FreeSans" font-size="10.00"># FindBlockStart()</text>
<text text-anchor="start" x="9" y="-84.5" font-family="FreeSans" font-size="10.00"># Indent()</text>
<text text-anchor="start" x="9" y="-73.5" font-family="FreeSans" font-size="10.00"># Indent()</text>
<text text-anchor="start" x="9" y="-62.5" font-family="FreeSans" font-size="10.00">and 8 more...</text>
<text text-anchor="start" x="9" y="-51.5" font-family="FreeSans" font-size="10.00">&#45; BuildMenu()</text>
<text text-anchor="start" x="9" y="-40.5" font-family="FreeSans" font-size="10.00">&#45; RemoveMenu()</text>
<text text-anchor="start" x="9" y="-29.5" font-family="FreeSans" font-size="10.00">&#45; BuildModuleMenu()</text>
<text text-anchor="start" x="9" y="-18.5" font-family="FreeSans" font-size="10.00">&#45; BuildToolBar()</text>
<text text-anchor="start" x="9" y="-7.5" font-family="FreeSans" font-size="10.00">&#45; RemoveToolBar()</text>
</g>
<!-- Node2 -->
<g id="node2" class="node"><title>Node2</title>
<g id="a_node2"><a xlink:href="classcbPlugin.xhtml" target="_top" xlink:title="Base class for plugins This is the most basic class a plugin must descend from. cbPlugin descends fro...">
<polygon fill="white" stroke="black" points="-1.42109e-14,-303.5 -1.42109e-14,-569.5 158,-569.5 158,-303.5 -1.42109e-14,-303.5"/>
<text text-anchor="middle" x="79" y="-557.5" font-family="FreeSans" font-size="10.00">cbPlugin</text>
<polyline fill="none" stroke="black" points="-1.42109e-14,-550.5 158,-550.5 "/>
<text text-anchor="start" x="8" y="-538.5" font-family="FreeSans" font-size="10.00"># m_Type</text>
<text text-anchor="start" x="8" y="-527.5" font-family="FreeSans" font-size="10.00"># m_IsAttached</text>
<polyline fill="none" stroke="black" points="-1.42109e-14,-520.5 158,-520.5 "/>
<text text-anchor="start" x="8" y="-508.5" font-family="FreeSans" font-size="10.00">+ cbPlugin()</text>
<text text-anchor="start" x="8" y="-497.5" font-family="FreeSans" font-size="10.00">+ ~cbPlugin()</text>
<text text-anchor="start" x="8" y="-486.5" font-family="FreeSans" font-size="10.00">+ GetType()</text>
<text text-anchor="start" x="8" y="-475.5" font-family="FreeSans" font-size="10.00">+ GetConfigurationPriority()</text>
<text text-anchor="start" x="8" y="-464.5" font-family="FreeSans" font-size="10.00">+ GetConfigurationGroup()</text>
<text text-anchor="start" x="8" y="-453.5" font-family="FreeSans" font-size="10.00">+ GetConfigurationPanel()</text>
<text text-anchor="start" x="8" y="-442.5" font-family="FreeSans" font-size="10.00">+ GetProjectConfigurationPanel()</text>
<text text-anchor="start" x="8" y="-431.5" font-family="FreeSans" font-size="10.00">+ BuildMenu()</text>
<text text-anchor="start" x="8" y="-420.5" font-family="FreeSans" font-size="10.00">+ BuildModuleMenu()</text>
<text text-anchor="start" x="8" y="-409.5" font-family="FreeSans" font-size="10.00">+ BuildToolBar()</text>
<text text-anchor="start" x="8" y="-398.5" font-family="FreeSans" font-size="10.00">+ GetToolBarPriority()</text>
<text text-anchor="start" x="8" y="-387.5" font-family="FreeSans" font-size="10.00">+ CreateStatusField()</text>
<text text-anchor="start" x="8" y="-376.5" font-family="FreeSans" font-size="10.00">+ IsAttached()</text>
<text text-anchor="start" x="8" y="-365.5" font-family="FreeSans" font-size="10.00">+ CanDetach()</text>
<text text-anchor="start" x="8" y="-354.5" font-family="FreeSans" font-size="10.00"># OnAttach()</text>
<text text-anchor="start" x="8" y="-343.5" font-family="FreeSans" font-size="10.00"># OnRelease()</text>
<text text-anchor="start" x="8" y="-332.5" font-family="FreeSans" font-size="10.00"># NotImplemented()</text>
<text text-anchor="start" x="8" y="-321.5" font-family="FreeSans" font-size="10.00">&#45; Attach()</text>
<text text-anchor="start" x="8" y="-310.5" font-family="FreeSans" font-size="10.00">&#45; Release()</text>
</a>
</g>
</g>
<!-- Node2&#45;&gt;Node1 -->
<g id="edge1" class="edge"><title>Node2&#45;&gt;Node1</title>
<path fill="none" stroke="midnightblue" d="M79,-293.47C79,-284.585 79,-275.661 79,-266.822"/>
<polygon fill="none" stroke="midnightblue" points="75.5001,-293.477 79,-303.477 82.5001,-293.477 75.5001,-293.477"/>
</g>
<!-- Node3 -->
<g id="node3" class="node"><title>Node3</title>
<polygon fill="white" stroke="#bfbfbf" points="42,-606.5 42,-663.5 116,-663.5 116,-606.5 42,-606.5"/>
<text text-anchor="middle" x="79" y="-651.5" font-family="FreeSans" font-size="10.00">wxEvtHandler</text>
<polyline fill="none" stroke="#bfbfbf" points="42,-644.5 116,-644.5 "/>
<text text-anchor="middle" x="79" y="-632.5" font-family="FreeSans" font-size="10.00"> </text>
<polyline fill="none" stroke="#bfbfbf" points="42,-625.5 116,-625.5 "/>
<text text-anchor="middle" x="79" y="-613.5" font-family="FreeSans" font-size="10.00"> </text>
</g>
<!-- Node3&#45;&gt;Node2 -->
<g id="edge2" class="edge"><title>Node3&#45;&gt;Node2</title>
<path fill="none" stroke="midnightblue" d="M79,-596.205C79,-588.137 79,-579.18 79,-569.746"/>
<polygon fill="none" stroke="midnightblue" points="75.5001,-596.263 79,-606.263 82.5001,-596.263 75.5001,-596.263"/>
</g>
</g>
</svg>
