<?xml version="1.0" encoding="UTF-8" standalone="no"?>
<!DOCTYPE svg PUBLIC "-//W3C//DTD SVG 1.1//EN"
 "http://www.w3.org/Graphics/SVG/1.1/DTD/svg11.dtd">
<!-- Generated by graphviz version 2.40.1 (20161225.0304)
 -->
<!-- Title: cbCodeCompletionPlugin Pages: 1 -->
<svg width="166pt" height="601pt"
 viewBox="0.00 0.00 166.00 601.00" xmlns="http://www.w3.org/2000/svg" xmlns:xlink="http://www.w3.org/1999/xlink">
<g id="graph0" class="graph" transform="scale(1 1) rotate(0) translate(4 597)">
<title>cbCodeCompletionPlugin</title>
<!-- Node6 -->
<g id="node1" class="node">
<title>Node6</title>
<polygon fill="#bfbfbf" stroke="#000000" points="9,-.5 9,-156.5 149,-156.5 149,-.5 9,-.5"/>
<text text-anchor="middle" x="79" y="-144.5" font-family="FreeSans" font-size="10.00" fill="#000000">cbCodeCompletionPlugin</text>
<polyline fill="none" stroke="#000000" points="9,-137.5 149,-137.5 "/>
<text text-anchor="middle" x="79" y="-125.5" font-family="FreeSans" font-size="10.00" fill="#000000"> </text>
<polyline fill="none" stroke="#000000" points="9,-118.5 149,-118.5 "/>
<text text-anchor="start" x="17" y="-106.5" font-family="FreeSans" font-size="10.00" fill="#000000">+ cbCodeCompletionPlugin()</text>
<text text-anchor="start" x="17" y="-95.5" font-family="FreeSans" font-size="10.00" fill="#000000">+ GetProviderStatusFor()</text>
<text text-anchor="start" x="17" y="-84.5" font-family="FreeSans" font-size="10.00" fill="#000000">+ GetAutocompList()</text>
<text text-anchor="start" x="17" y="-73.5" font-family="FreeSans" font-size="10.00" fill="#000000">+ GetDocumentation()</text>
<text text-anchor="start" x="17" y="-62.5" font-family="FreeSans" font-size="10.00" fill="#000000">+ GetCallTips()</text>
<text text-anchor="start" x="17" y="-51.5" font-family="FreeSans" font-size="10.00" fill="#000000">+ GetTokenAt()</text>
<text text-anchor="start" x="17" y="-40.5" font-family="FreeSans" font-size="10.00" fill="#000000">+ OnDocumentationLink()</text>
<text text-anchor="start" x="17" y="-29.5" font-family="FreeSans" font-size="10.00" fill="#000000">+ DoAutocomplete()</text>
<text text-anchor="start" x="17" y="-18.5" font-family="FreeSans" font-size="10.00" fill="#000000">+ DoAutocomplete()</text>
<text text-anchor="start" x="17" y="-7.5" font-family="FreeSans" font-size="10.00" fill="#000000"># IsProviderFor()</text>
</g>
<!-- Node7 -->
<g id="node2" class="node">
<title>Node7</title>
<g id="a_node2"><a xlink:href="classcbPlugin" target="_top" xlink:title="Base class for plugins. ">
<polygon fill="none" stroke="#000000" points="0,-193.5 0,-404.5 158,-404.5 158,-193.5 0,-193.5"/>
<text text-anchor="middle" x="79" y="-392.5" font-family="FreeSans" font-size="10.00" fill="#000000">cbPlugin</text>
<polyline fill="none" stroke="#000000" points="0,-385.5 158,-385.5 "/>
<text text-anchor="start" x="8" y="-373.5" font-family="FreeSans" font-size="10.00" fill="#000000"># m_Type</text>
<text text-anchor="start" x="8" y="-362.5" font-family="FreeSans" font-size="10.00" fill="#000000"># m_IsAttached</text>
<polyline fill="none" stroke="#000000" points="0,-355.5 158,-355.5 "/>
<text text-anchor="start" x="8" y="-343.5" font-family="FreeSans" font-size="10.00" fill="#000000">+ cbPlugin()</text>
<text text-anchor="start" x="8" y="-332.5" font-family="FreeSans" font-size="10.00" fill="#000000">+ ~cbPlugin()</text>
<text text-anchor="start" x="8" y="-321.5" font-family="FreeSans" font-size="10.00" fill="#000000">+ GetType()</text>
<text text-anchor="start" x="8" y="-310.5" font-family="FreeSans" font-size="10.00" fill="#000000">+ GetConfigurationPriority()</text>
<text text-anchor="start" x="8" y="-299.5" font-family="FreeSans" font-size="10.00" fill="#000000">+ GetConfigurationGroup()</text>
<text text-anchor="start" x="8" y="-288.5" font-family="FreeSans" font-size="10.00" fill="#000000">+ GetConfigurationPanel()</text>
<text text-anchor="start" x="8" y="-277.5" font-family="FreeSans" font-size="10.00" fill="#000000">+ GetProjectConfigurationPanel()</text>
<text text-anchor="start" x="8" y="-266.5" font-family="FreeSans" font-size="10.00" fill="#000000">+ BuildMenu()</text>
<text text-anchor="start" x="8" y="-255.5" font-family="FreeSans" font-size="10.00" fill="#000000">and 6 more...</text>
<text text-anchor="start" x="8" y="-244.5" font-family="FreeSans" font-size="10.00" fill="#000000"># OnAttach()</text>
<text text-anchor="start" x="8" y="-233.5" font-family="FreeSans" font-size="10.00" fill="#000000"># OnRelease()</text>
<text text-anchor="start" x="8" y="-222.5" font-family="FreeSans" font-size="10.00" fill="#000000"># NotImplemented()</text>
<text text-anchor="start" x="8" y="-211.5" font-family="FreeSans" font-size="10.00" fill="#000000">&#45; Attach()</text>
<text text-anchor="start" x="8" y="-200.5" font-family="FreeSans" font-size="10.00" fill="#000000">&#45; Release()</text>
</a>
</g>
</g>
<!-- Node7&#45;&gt;Node6 -->
<g id="edge1" class="edge">
<title>Node7&#45;&gt;Node6</title>
<path fill="none" stroke="#191970" d="M79,-183.1119C79,-174.1214 79,-165.1812 79,-156.531"/>
<polygon fill="none" stroke="#191970" points="75.5001,-183.2708 79,-193.2708 82.5001,-183.2709 75.5001,-183.2708"/>
</g>
<!-- Node8 -->
<g id="node3" class="node">
<title>Node8</title>
<g id="a_node3"><a doxygen="/media/alpha/Barracuda/cb_docs/src/wxTagFile.xml:http://docs.wxwidgets.org/3.0/" xlink:href="http://docs.wxwidgets.org/3.0/classwx_evt_handler.html" target="_top" xlink:title="{wxEvtHandler\n||}">
<polygon fill="none" stroke="#000000" points="42,-441.5 42,-498.5 116,-498.5 116,-441.5 42,-441.5"/>
<text text-anchor="middle" x="79" y="-486.5" font-family="FreeSans" font-size="10.00" fill="#000000">wxEvtHandler</text>
<polyline fill="none" stroke="#000000" points="42,-479.5 116,-479.5 "/>
<text text-anchor="middle" x="79" y="-467.5" font-family="FreeSans" font-size="10.00" fill="#000000"> </text>
<polyline fill="none" stroke="#000000" points="42,-460.5 116,-460.5 "/>
<text text-anchor="middle" x="79" y="-448.5" font-family="FreeSans" font-size="10.00" fill="#000000"> </text>
</a>
</g>
</g>
<!-- Node8&#45;&gt;Node7 -->
<g id="edge2" class="edge">
<title>Node8&#45;&gt;Node7</title>
<path fill="none" stroke="#191970" d="M79,-431.1825C79,-423.0392 79,-414.0811 79,-404.7834"/>
<polygon fill="none" stroke="#191970" points="75.5001,-431.3784 79,-441.3784 82.5001,-431.3785 75.5001,-431.3784"/>
</g>
<!-- Node9 -->
<g id="node4" class="node">
<title>Node9</title>
<g id="a_node4"><a doxygen="/media/alpha/Barracuda/cb_docs/src/wxTagFile.xml:http://docs.wxwidgets.org/3.0/" xlink:href="http://docs.wxwidgets.org/3.0/classwx_object.html" target="_top" xlink:title="{wxObject\n||}">
<polygon fill="none" stroke="#000000" points="10,-535.5 10,-592.5 66,-592.5 66,-535.5 10,-535.5"/>
<text text-anchor="middle" x="38" y="-580.5" font-family="FreeSans" font-size="10.00" fill="#000000">wxObject</text>
<polyline fill="none" stroke="#000000" points="10,-573.5 66,-573.5 "/>
<text text-anchor="middle" x="38" y="-561.5" font-family="FreeSans" font-size="10.00" fill="#000000"> </text>
<polyline fill="none" stroke="#000000" points="10,-554.5 66,-554.5 "/>
<text text-anchor="middle" x="38" y="-542.5" font-family="FreeSans" font-size="10.00" fill="#000000"> </text>
</a>
</g>
</g>
<!-- Node9&#45;&gt;Node8 -->
<g id="edge3" class="edge">
<title>Node9&#45;&gt;Node8</title>
<path fill="none" stroke="#191970" d="M54.5864,-525.9726C58.5818,-516.8125 62.7831,-507.1802 66.5526,-498.538"/>
<polygon fill="none" stroke="#191970" points="51.314,-524.7208 50.5241,-535.2861 57.7303,-527.5194 51.314,-524.7208"/>
</g>
<!-- Node10 -->
<g id="node5" class="node">
<title>Node10</title>
<g id="a_node5"><a doxygen="/media/alpha/Barracuda/cb_docs/src/wxTagFile.xml:http://docs.wxwidgets.org/3.0/" xlink:href="http://docs.wxwidgets.org/3.0/classwx_trackable.html" target="_top" xlink:title="{wxTrackable\n||}">
<polygon fill="none" stroke="#000000" points="84.5,-535.5 84.5,-592.5 155.5,-592.5 155.5,-535.5 84.5,-535.5"/>
<text text-anchor="middle" x="120" y="-580.5" font-family="FreeSans" font-size="10.00" fill="#000000">wxTrackable</text>
<polyline fill="none" stroke="#000000" points="84.5,-573.5 155.5,-573.5 "/>
<text text-anchor="middle" x="120" y="-561.5" font-family="FreeSans" font-size="10.00" fill="#000000"> </text>
<polyline fill="none" stroke="#000000" points="84.5,-554.5 155.5,-554.5 "/>
<text text-anchor="middle" x="120" y="-542.5" font-family="FreeSans" font-size="10.00" fill="#000000"> </text>
</a>
</g>
</g>
<!-- Node10&#45;&gt;Node8 -->
<g id="edge4" class="edge">
<title>Node10&#45;&gt;Node8</title>
<path fill="none" stroke="#191970" d="M103.4136,-525.9726C99.4182,-516.8125 95.2169,-507.1802 91.4474,-498.538"/>
<polygon fill="none" stroke="#191970" points="100.2697,-527.5194 107.4759,-535.2861 106.686,-524.7208 100.2697,-527.5194"/>
</g>
</g>
</svg>
