<?xml version="1.0" encoding="UTF-8" standalone="no"?>
<!DOCTYPE svg PUBLIC "-//W3C//DTD SVG 1.1//EN"
 "http://www.w3.org/Graphics/SVG/1.1/DTD/svg11.dtd">
<!-- Generated by graphviz version 2.38.0 (20140413.2041)
 -->
<!-- Title: classbrowser.h Pages: 1 -->
<svg width="281pt" height="84pt"
 viewBox="0.00 0.00 281.00 84.00" xmlns="http://www.w3.org/2000/svg" xmlns:xlink="http://www.w3.org/1999/xlink">
<g id="graph0" class="graph" transform="scale(1 1) rotate(0) translate(4 80)">
<title>classbrowser.h</title>
<polygon fill="white" stroke="none" points="-4,4 -4,-80 277,-80 277,4 -4,4"/>
<!-- Node1 -->
<g id="node1" class="node"><title>Node1</title>
<polygon fill="#bfbfbf" stroke="black" points="111,-56.5 111,-75.5 190,-75.5 190,-56.5 111,-56.5"/>
<text text-anchor="middle" x="150.5" y="-63.5" font-family="FreeSans" font-size="10.00">classbrowser.h</text>
</g>
<!-- Node2 -->
<g id="node2" class="node"><title>Node2</title>
<g id="a_node2"><a xlink:href="classbrowser_8cpp.xhtml" target="_top" xlink:title="classbrowser.cpp">
<polygon fill="white" stroke="black" points="0,-0.5 0,-19.5 89,-19.5 89,-0.5 0,-0.5"/>
<text text-anchor="middle" x="44.5" y="-7.5" font-family="FreeSans" font-size="10.00">classbrowser.cpp</text>
</a>
</g>
</g>
<!-- Node1&#45;&gt;Node2 -->
<g id="edge1" class="edge"><title>Node1&#45;&gt;Node2</title>
<path fill="none" stroke="midnightblue" d="M124.444,-51.7261C104.816,-41.7271 78.472,-28.3065 61.4885,-19.6545"/>
<polygon fill="midnightblue" stroke="midnightblue" points="122.97,-54.9033 133.469,-56.324 126.148,-48.666 122.97,-54.9033"/>
</g>
<!-- Node3 -->
<g id="node3" class="node"><title>Node3</title>
<g id="a_node3"><a xlink:href="nativeparser_8cpp.xhtml" target="_top" xlink:title="nativeparser.cpp">
<polygon fill="white" stroke="black" points="107.5,-0.5 107.5,-19.5 193.5,-19.5 193.5,-0.5 107.5,-0.5"/>
<text text-anchor="middle" x="150.5" y="-7.5" font-family="FreeSans" font-size="10.00">nativeparser.cpp</text>
</a>
</g>
</g>
<!-- Node1&#45;&gt;Node3 -->
<g id="edge2" class="edge"><title>Node1&#45;&gt;Node3</title>
<path fill="none" stroke="midnightblue" d="M150.5,-45.8045C150.5,-36.9102 150.5,-26.7798 150.5,-19.7511"/>
<polygon fill="midnightblue" stroke="midnightblue" points="147,-46.083 150.5,-56.083 154,-46.083 147,-46.083"/>
</g>
<!-- Node4 -->
<g id="node4" class="node"><title>Node4</title>
<g id="a_node4"><a xlink:href="parser_8cpp.xhtml" target="_top" xlink:title="parser.cpp">
<polygon fill="white" stroke="black" points="212,-0.5 212,-19.5 273,-19.5 273,-0.5 212,-0.5"/>
<text text-anchor="middle" x="242.5" y="-7.5" font-family="FreeSans" font-size="10.00">parser.cpp</text>
</a>
</g>
</g>
<!-- Node1&#45;&gt;Node4 -->
<g id="edge3" class="edge"><title>Node1&#45;&gt;Node4</title>
<path fill="none" stroke="midnightblue" d="M174.05,-51.1774C190.979,-41.2407 213.283,-28.1492 227.755,-19.6545"/>
<polygon fill="midnightblue" stroke="midnightblue" points="172.134,-48.2435 165.281,-56.324 175.677,-54.2804 172.134,-48.2435"/>
</g>
</g>
</svg>
