<?xml version="1.0" encoding="UTF-8" standalone="no"?>
<!DOCTYPE svg PUBLIC "-//W3C//DTD SVG 1.1//EN"
 "http://www.w3.org/Graphics/SVG/1.1/DTD/svg11.dtd">
<!-- Generated by graphviz version 2.38.0 (20140413.2041)
 -->
<!-- Title: ProjectOptionsDlg Pages: 1 -->
<svg width="1242pt" height="1685pt"
 viewBox="0.00 0.00 1242.00 1685.00" xmlns="http://www.w3.org/2000/svg" xmlns:xlink="http://www.w3.org/1999/xlink">
<g id="graph0" class="graph" transform="scale(1 1) rotate(0) translate(4 1681)">
<title>ProjectOptionsDlg</title>
<!-- Node9 -->
<g id="node1" class="node"><title>Node9</title>
<polygon fill="#bfbfbf" stroke="black" points="150,-0.5 150,-266.5 284,-266.5 284,-0.5 150,-0.5"/>
<text text-anchor="middle" x="217" y="-254.5" font-family="FreeSans" font-size="10.00">ProjectOptionsDlg</text>
<polyline fill="none" stroke="black" points="150,-247.5 284,-247.5 "/>
<text text-anchor="start" x="158" y="-235.5" font-family="FreeSans" font-size="10.00">&#45; m_Current_Sel</text>
<text text-anchor="start" x="158" y="-224.5" font-family="FreeSans" font-size="10.00">&#45; m_PluginPanels</text>
<polyline fill="none" stroke="black" points="150,-217.5 284,-217.5 "/>
<text text-anchor="start" x="158" y="-205.5" font-family="FreeSans" font-size="10.00">+ ProjectOptionsDlg()</text>
<text text-anchor="start" x="158" y="-194.5" font-family="FreeSans" font-size="10.00">+ ~ProjectOptionsDlg()</text>
<text text-anchor="start" x="158" y="-183.5" font-family="FreeSans" font-size="10.00">+ EndModal()</text>
<text text-anchor="start" x="158" y="-172.5" font-family="FreeSans" font-size="10.00">+ OnFileOptionsClick()</text>
<text text-anchor="start" x="158" y="-161.5" font-family="FreeSans" font-size="10.00">+ OnFileToggleMarkClick()</text>
<text text-anchor="start" x="158" y="-150.5" font-family="FreeSans" font-size="10.00">+ OnFileMarkOnClick()</text>
<text text-anchor="start" x="158" y="-139.5" font-family="FreeSans" font-size="10.00">+ OnFileMarkOffClick()</text>
<text text-anchor="start" x="158" y="-128.5" font-family="FreeSans" font-size="10.00">+ OnProjectTypeChanged()</text>
<text text-anchor="start" x="158" y="-117.5" font-family="FreeSans" font-size="10.00">and 28 more...</text>
<text text-anchor="start" x="158" y="-106.5" font-family="FreeSans" font-size="10.00">&#45; BuildScriptsTree()</text>
<text text-anchor="start" x="158" y="-95.5" font-family="FreeSans" font-size="10.00">&#45; AddPluginPanels()</text>
<text text-anchor="start" x="158" y="-84.5" font-family="FreeSans" font-size="10.00">&#45; FillScripts()</text>
<text text-anchor="start" x="158" y="-73.5" font-family="FreeSans" font-size="10.00">&#45; FillBuildTargets()</text>
<text text-anchor="start" x="158" y="-62.5" font-family="FreeSans" font-size="10.00">&#45; DoTargetChange()</text>
<text text-anchor="start" x="158" y="-51.5" font-family="FreeSans" font-size="10.00">&#45; DoBeforeTargetChange()</text>
<text text-anchor="start" x="158" y="-40.5" font-family="FreeSans" font-size="10.00">&#45; DoCheckScripts()</text>
<text text-anchor="start" x="158" y="-29.5" font-family="FreeSans" font-size="10.00">&#45; IsScriptValid()</text>
<text text-anchor="start" x="158" y="-18.5" font-family="FreeSans" font-size="10.00">&#45; ValidateTargetName()</text>
<text text-anchor="start" x="158" y="-7.5" font-family="FreeSans" font-size="10.00">&#45; UpdateTargetControls()</text>
</g>
<!-- Node10 -->
<g id="node2" class="node"><title>Node10</title>
<g id="a_node2"><a xlink:href="classwxScrollingDialog" target="_top" xlink:title="{wxScrollingDialog\n||+ wxScrollingDialog()\l+ wxScrollingDialog()\l}">
<polygon fill="none" stroke="black" points="163.5,-457.5 163.5,-525.5 270.5,-525.5 270.5,-457.5 163.5,-457.5"/>
<text text-anchor="middle" x="217" y="-513.5" font-family="FreeSans" font-size="10.00">wxScrollingDialog</text>
<polyline fill="none" stroke="black" points="163.5,-506.5 270.5,-506.5 "/>
<text text-anchor="middle" x="217" y="-494.5" font-family="FreeSans" font-size="10.00"> </text>
<polyline fill="none" stroke="black" points="163.5,-487.5 270.5,-487.5 "/>
<text text-anchor="start" x="171.5" y="-475.5" font-family="FreeSans" font-size="10.00">+ wxScrollingDialog()</text>
<text text-anchor="start" x="171.5" y="-464.5" font-family="FreeSans" font-size="10.00">+ wxScrollingDialog()</text>
</a>
</g>
</g>
<!-- Node10&#45;&gt;Node9 -->
<g id="edge1" class="edge"><title>Node10&#45;&gt;Node9</title>
<path fill="none" stroke="midnightblue" d="M217,-447.12C217,-402.414 217,-330.472 217,-266.867"/>
<polygon fill="none" stroke="midnightblue" points="213.5,-447.328 217,-457.328 220.5,-447.328 213.5,-447.328"/>
</g>
<!-- Node11 -->
<g id="node3" class="node"><title>Node11</title>
<g id="a_node3"><a doxygen="/media/alpha/Barracuda/cb_docs/src/wxTagFile.xml:http://docs.wxwidgets.org/3.0/" xlink:href="http://docs.wxwidgets.org/3.0/classwx_dialog.html" target="_top" xlink:title="{wxDialog\n||+ ShowModal()\l}">
<polygon fill="none" stroke="black" points="176.5,-815.5 176.5,-872.5 257.5,-872.5 257.5,-815.5 176.5,-815.5"/>
<text text-anchor="middle" x="217" y="-860.5" font-family="FreeSans" font-size="10.00">wxDialog</text>
<polyline fill="none" stroke="black" points="176.5,-853.5 257.5,-853.5 "/>
<text text-anchor="middle" x="217" y="-841.5" font-family="FreeSans" font-size="10.00"> </text>
<polyline fill="none" stroke="black" points="176.5,-834.5 257.5,-834.5 "/>
<text text-anchor="start" x="184.5" y="-822.5" font-family="FreeSans" font-size="10.00">+ ShowModal()</text>
</a>
</g>
</g>
<!-- Node11&#45;&gt;Node10 -->
<g id="edge2" class="edge"><title>Node11&#45;&gt;Node10</title>
<path fill="none" stroke="midnightblue" d="M217,-805.097C217,-736.083 217,-591.022 217,-525.667"/>
<polygon fill="none" stroke="midnightblue" points="213.5,-805.497 217,-815.497 220.5,-805.497 213.5,-805.497"/>
</g>
<!-- Node12 -->
<g id="node4" class="node"><title>Node12</title>
<g id="a_node4"><a doxygen="/media/alpha/Barracuda/cb_docs/src/wxTagFile.xml:http://docs.wxwidgets.org/3.0/" xlink:href="http://docs.wxwidgets.org/3.0/classwx_top_level_window.html" target="_top" xlink:title="{wxTopLevelWindow\n||}">
<polygon fill="none" stroke="red" points="166.5,-1157 166.5,-1214 267.5,-1214 267.5,-1157 166.5,-1157"/>
<text text-anchor="middle" x="217" y="-1202" font-family="FreeSans" font-size="10.00">wxTopLevelWindow</text>
<polyline fill="none" stroke="red" points="166.5,-1195 267.5,-1195 "/>
<text text-anchor="middle" x="217" y="-1183" font-family="FreeSans" font-size="10.00"> </text>
<polyline fill="none" stroke="red" points="166.5,-1176 267.5,-1176 "/>
<text text-anchor="middle" x="217" y="-1164" font-family="FreeSans" font-size="10.00"> </text>
</a>
</g>
</g>
<!-- Node12&#45;&gt;Node11 -->
<g id="edge3" class="edge"><title>Node12&#45;&gt;Node11</title>
<path fill="none" stroke="midnightblue" d="M217,-1146.3C217,-1077.24 217,-933.186 217,-872.69"/>
<polygon fill="none" stroke="midnightblue" points="213.5,-1146.72 217,-1156.72 220.5,-1146.72 213.5,-1146.72"/>
</g>
<!-- Node18 -->
<g id="node5" class="node"><title>Node18</title>
<g id="a_node5"><a xlink:href="classcbCompilerPlugin" target="_top" xlink:title="Base class for compiler plugins. ">
<polygon fill="none" stroke="black" points="35.5,-419 35.5,-564 142.5,-564 142.5,-419 35.5,-419"/>
<text text-anchor="middle" x="89" y="-552" font-family="FreeSans" font-size="10.00">cbCompilerPlugin</text>
<polyline fill="none" stroke="black" points="35.5,-545 142.5,-545 "/>
<text text-anchor="middle" x="89" y="-533" font-family="FreeSans" font-size="10.00"> </text>
<polyline fill="none" stroke="black" points="35.5,-526 142.5,-526 "/>
<text text-anchor="start" x="43.5" y="-514" font-family="FreeSans" font-size="10.00">+ cbCompilerPlugin()</text>
<text text-anchor="start" x="43.5" y="-503" font-family="FreeSans" font-size="10.00">+ Run()</text>
<text text-anchor="start" x="43.5" y="-492" font-family="FreeSans" font-size="10.00">+ Run()</text>
<text text-anchor="start" x="43.5" y="-481" font-family="FreeSans" font-size="10.00">+ Clean()</text>
<text text-anchor="start" x="43.5" y="-470" font-family="FreeSans" font-size="10.00">+ Clean()</text>
<text text-anchor="start" x="43.5" y="-459" font-family="FreeSans" font-size="10.00">+ DistClean()</text>
<text text-anchor="start" x="43.5" y="-448" font-family="FreeSans" font-size="10.00">+ DistClean()</text>
<text text-anchor="start" x="43.5" y="-437" font-family="FreeSans" font-size="10.00">+ Build()</text>
<text text-anchor="start" x="43.5" y="-426" font-family="FreeSans" font-size="10.00">and 11 more...</text>
</a>
</g>
</g>
<!-- Node18&#45;&gt;Node9 -->
<g id="edge4" class="edge"><title>Node18&#45;&gt;Node9</title>
<path fill="none" stroke="#404040" d="M107.782,-418.897C118.847,-379.058 133.823,-328.815 150,-285 150.871,-282.642 151.761,-280.268 152.667,-277.883"/>
<polygon fill="none" stroke="#404040" points="152.685,-277.838 151.126,-270.797 157.025,-266.65 158.584,-273.69 152.685,-277.838"/>
<text text-anchor="middle" x="181.5" y="-288" font-family="FreeSans" font-size="10.00"> &#45;m_pCompiler</text>
</g>
<!-- Node19 -->
<g id="node6" class="node"><title>Node19</title>
<g id="a_node6"><a xlink:href="classcbPlugin" target="_top" xlink:title="Base class for plugins. ">
<polygon fill="none" stroke="black" points="0,-738.5 0,-949.5 158,-949.5 158,-738.5 0,-738.5"/>
<text text-anchor="middle" x="79" y="-937.5" font-family="FreeSans" font-size="10.00">cbPlugin</text>
<polyline fill="none" stroke="black" points="0,-930.5 158,-930.5 "/>
<text text-anchor="start" x="8" y="-918.5" font-family="FreeSans" font-size="10.00"># m_Type</text>
<text text-anchor="start" x="8" y="-907.5" font-family="FreeSans" font-size="10.00"># m_IsAttached</text>
<polyline fill="none" stroke="black" points="0,-900.5 158,-900.5 "/>
<text text-anchor="start" x="8" y="-888.5" font-family="FreeSans" font-size="10.00">+ cbPlugin()</text>
<text text-anchor="start" x="8" y="-877.5" font-family="FreeSans" font-size="10.00">+ ~cbPlugin()</text>
<text text-anchor="start" x="8" y="-866.5" font-family="FreeSans" font-size="10.00">+ GetType()</text>
<text text-anchor="start" x="8" y="-855.5" font-family="FreeSans" font-size="10.00">+ GetConfigurationPriority()</text>
<text text-anchor="start" x="8" y="-844.5" font-family="FreeSans" font-size="10.00">+ GetConfigurationGroup()</text>
<text text-anchor="start" x="8" y="-833.5" font-family="FreeSans" font-size="10.00">+ GetConfigurationPanel()</text>
<text text-anchor="start" x="8" y="-822.5" font-family="FreeSans" font-size="10.00">+ GetProjectConfigurationPanel()</text>
<text text-anchor="start" x="8" y="-811.5" font-family="FreeSans" font-size="10.00">+ BuildMenu()</text>
<text text-anchor="start" x="8" y="-800.5" font-family="FreeSans" font-size="10.00">and 6 more...</text>
<text text-anchor="start" x="8" y="-789.5" font-family="FreeSans" font-size="10.00"># OnAttach()</text>
<text text-anchor="start" x="8" y="-778.5" font-family="FreeSans" font-size="10.00"># OnRelease()</text>
<text text-anchor="start" x="8" y="-767.5" font-family="FreeSans" font-size="10.00"># NotImplemented()</text>
<text text-anchor="start" x="8" y="-756.5" font-family="FreeSans" font-size="10.00">&#45; Attach()</text>
<text text-anchor="start" x="8" y="-745.5" font-family="FreeSans" font-size="10.00">&#45; Release()</text>
</a>
</g>
</g>
<!-- Node19&#45;&gt;Node18 -->
<g id="edge5" class="edge"><title>Node19&#45;&gt;Node18</title>
<path fill="none" stroke="midnightblue" d="M82.2814,-727.988C83.822,-673.99 85.6104,-611.305 86.9546,-564.192"/>
<polygon fill="none" stroke="midnightblue" points="78.7735,-728.217 81.9868,-738.313 85.7706,-728.417 78.7735,-728.217"/>
</g>
<!-- Node15 -->
<g id="node7" class="node"><title>Node15</title>
<g id="a_node7"><a doxygen="/media/alpha/Barracuda/cb_docs/src/wxTagFile.xml:http://docs.wxwidgets.org/3.0/" xlink:href="http://docs.wxwidgets.org/3.0/classwx_evt_handler.html" target="_top" xlink:title="{wxEvtHandler\n||}">
<polygon fill="none" stroke="red" points="42,-1157 42,-1214 116,-1214 116,-1157 42,-1157"/>
<text text-anchor="middle" x="79" y="-1202" font-family="FreeSans" font-size="10.00">wxEvtHandler</text>
<polyline fill="none" stroke="red" points="42,-1195 116,-1195 "/>
<text text-anchor="middle" x="79" y="-1183" font-family="FreeSans" font-size="10.00"> </text>
<polyline fill="none" stroke="red" points="42,-1176 116,-1176 "/>
<text text-anchor="middle" x="79" y="-1164" font-family="FreeSans" font-size="10.00"> </text>
</a>
</g>
</g>
<!-- Node15&#45;&gt;Node19 -->
<g id="edge6" class="edge"><title>Node15&#45;&gt;Node19</title>
<path fill="none" stroke="midnightblue" d="M79,-1146.63C79,-1099.38 79,-1016.65 79,-949.778"/>
<polygon fill="none" stroke="midnightblue" points="75.5001,-1146.72 79,-1156.72 82.5001,-1146.72 75.5001,-1146.72"/>
</g>
<!-- Node20 -->
<g id="node8" class="node"><title>Node20</title>
<g id="a_node8"><a xlink:href="classcbProject" target="_top" xlink:title="Represents a Code::Blocks project. ">
<polygon fill="none" stroke="black" points="594.5,-314.5 594.5,-668.5 775.5,-668.5 775.5,-314.5 594.5,-314.5"/>
<text text-anchor="middle" x="685" y="-656.5" font-family="FreeSans" font-size="10.00">cbProject</text>
<polyline fill="none" stroke="black" points="594.5,-649.5 775.5,-649.5 "/>
<text text-anchor="start" x="602.5" y="-637.5" font-family="FreeSans" font-size="10.00">&#45; m_Targets</text>
<text text-anchor="start" x="602.5" y="-626.5" font-family="FreeSans" font-size="10.00">&#45; m_CustomMakefile</text>
<text text-anchor="start" x="602.5" y="-615.5" font-family="FreeSans" font-size="10.00">&#45; m_Files</text>
<text text-anchor="start" x="602.5" y="-604.5" font-family="FreeSans" font-size="10.00">&#45; m_FileArray</text>
<text text-anchor="start" x="602.5" y="-593.5" font-family="FreeSans" font-size="10.00">&#45; m_Loaded</text>
<text text-anchor="start" x="602.5" y="-582.5" font-family="FreeSans" font-size="10.00">&#45; m_CurrentlyLoading</text>
<text text-anchor="start" x="602.5" y="-571.5" font-family="FreeSans" font-size="10.00">&#45; m_PCHMode</text>
<text text-anchor="start" x="602.5" y="-560.5" font-family="FreeSans" font-size="10.00">&#45; m_ProjectFilesMap</text>
<text text-anchor="start" x="602.5" y="-549.5" font-family="FreeSans" font-size="10.00">&#45; m_ExtendedObjectNamesGeneration</text>
<text text-anchor="start" x="602.5" y="-538.5" font-family="FreeSans" font-size="10.00">&#45; m_AutoShowNotesOnLoad</text>
<text text-anchor="start" x="602.5" y="-527.5" font-family="FreeSans" font-size="10.00">&#45; m_CheckForExternallyModified</text>
<text text-anchor="start" x="602.5" y="-516.5" font-family="FreeSans" font-size="10.00">Files</text>
<text text-anchor="start" x="602.5" y="-505.5" font-family="FreeSans" font-size="10.00">&#45; m_pExtensionsElement</text>
<polyline fill="none" stroke="black" points="594.5,-498.5 775.5,-498.5 "/>
<text text-anchor="start" x="602.5" y="-486.5" font-family="FreeSans" font-size="10.00">+ cbProject()</text>
<text text-anchor="start" x="602.5" y="-475.5" font-family="FreeSans" font-size="10.00">+ ~cbProject()</text>
<text text-anchor="start" x="602.5" y="-464.5" font-family="FreeSans" font-size="10.00">+ IsLoaded()</text>
<text text-anchor="start" x="602.5" y="-453.5" font-family="FreeSans" font-size="10.00">+ ClearAllProperties()</text>
<text text-anchor="start" x="602.5" y="-442.5" font-family="FreeSans" font-size="10.00">+ CalculateCommonTopLevelPath()</text>
<text text-anchor="start" x="602.5" y="-431.5" font-family="FreeSans" font-size="10.00">+ GetCommonTopLevelPath()</text>
<text text-anchor="start" x="602.5" y="-420.5" font-family="FreeSans" font-size="10.00">+ GetModified()</text>
<text text-anchor="start" x="602.5" y="-409.5" font-family="FreeSans" font-size="10.00">+ SetModified()</text>
<text text-anchor="start" x="602.5" y="-398.5" font-family="FreeSans" font-size="10.00">and 85 more...</text>
<text text-anchor="start" x="602.5" y="-387.5" font-family="FreeSans" font-size="10.00">&#45; Open()</text>
<text text-anchor="start" x="602.5" y="-376.5" font-family="FreeSans" font-size="10.00">&#45; ExpandVirtualBuildTarget</text>
<text text-anchor="start" x="602.5" y="-365.5" font-family="FreeSans" font-size="10.00">Group()</text>
<text text-anchor="start" x="602.5" y="-354.5" font-family="FreeSans" font-size="10.00">&#45; AddDefaultBuildTarget()</text>
<text text-anchor="start" x="602.5" y="-343.5" font-family="FreeSans" font-size="10.00">&#45; IndexOfBuildTargetName()</text>
<text text-anchor="start" x="602.5" y="-332.5" font-family="FreeSans" font-size="10.00">&#45; CreateUniqueFilename()</text>
<text text-anchor="start" x="602.5" y="-321.5" font-family="FreeSans" font-size="10.00">&#45; NotifyPlugins()</text>
</a>
</g>
</g>
<!-- Node20&#45;&gt;Node9 -->
<g id="edge7" class="edge"><title>Node20&#45;&gt;Node9</title>
<path fill="none" stroke="#404040" d="M594.488,-421.649C507.074,-355.154 376.149,-255.562 293.715,-192.856"/>
<polygon fill="none" stroke="#404040" points="293.708,-192.85 286.511,-192.401 284.157,-185.585 291.354,-186.034 293.708,-192.85"/>
<text text-anchor="middle" x="448" y="-288" font-family="FreeSans" font-size="10.00"> &#45;m_Project</text>
</g>
<!-- Node29 -->
<g id="node17" class="node"><title>Node29</title>
<g id="a_node17"><a xlink:href="classProjectBuildTarget" target="_top" xlink:title="Represents a Code::Blocks project build target. ">
<polygon fill="none" stroke="black" points="614.5,-28 614.5,-239 753.5,-239 753.5,-28 614.5,-28"/>
<text text-anchor="middle" x="684" y="-227" font-family="FreeSans" font-size="10.00">ProjectBuildTarget</text>
<polyline fill="none" stroke="black" points="614.5,-220 753.5,-220 "/>
<text text-anchor="start" x="622.5" y="-208" font-family="FreeSans" font-size="10.00">&#45; m_TargetDeps</text>
<text text-anchor="start" x="622.5" y="-197" font-family="FreeSans" font-size="10.00">&#45; m_Files</text>
<text text-anchor="start" x="622.5" y="-186" font-family="FreeSans" font-size="10.00">&#45; m_FileArray</text>
<text text-anchor="start" x="622.5" y="-175" font-family="FreeSans" font-size="10.00">&#45; m_BuildWithAll</text>
<text text-anchor="start" x="622.5" y="-164" font-family="FreeSans" font-size="10.00">&#45; m_CreateStaticLib</text>
<text text-anchor="start" x="622.5" y="-153" font-family="FreeSans" font-size="10.00">&#45; m_CreateDefFile</text>
<text text-anchor="start" x="622.5" y="-142" font-family="FreeSans" font-size="10.00">&#45; m_UseConsoleRunner</text>
<polyline fill="none" stroke="black" points="614.5,-135 753.5,-135 "/>
<text text-anchor="start" x="622.5" y="-123" font-family="FreeSans" font-size="10.00">+ ProjectBuildTarget()</text>
<text text-anchor="start" x="622.5" y="-112" font-family="FreeSans" font-size="10.00">+ ~ProjectBuildTarget()</text>
<text text-anchor="start" x="622.5" y="-101" font-family="FreeSans" font-size="10.00">+ GetParentProject()</text>
<text text-anchor="start" x="622.5" y="-90" font-family="FreeSans" font-size="10.00">+ GetFullTitle()</text>
<text text-anchor="start" x="622.5" y="-79" font-family="FreeSans" font-size="10.00">+ GetExternalDeps()</text>
<text text-anchor="start" x="622.5" y="-68" font-family="FreeSans" font-size="10.00">+ SetExternalDeps()</text>
<text text-anchor="start" x="622.5" y="-57" font-family="FreeSans" font-size="10.00">+ GetAdditionalOutputFiles()</text>
<text text-anchor="start" x="622.5" y="-46" font-family="FreeSans" font-size="10.00">+ SetAdditionalOutputFiles()</text>
<text text-anchor="start" x="622.5" y="-35" font-family="FreeSans" font-size="10.00">and 15 more...</text>
</a>
</g>
</g>
<!-- Node20&#45;&gt;Node29 -->
<g id="edge23" class="edge"><title>Node20&#45;&gt;Node29</title>
<path fill="none" stroke="#404040" d="M643.261,-314.466C643.235,-304.518 643.771,-294.645 645,-285 646.418,-273.872 648.404,-262.39 650.736,-250.963"/>
<polygon fill="none" stroke="#404040" points="650.766,-250.824 648.112,-244.119 653.282,-239.091 655.935,-245.796 650.766,-250.824"/>
<text text-anchor="middle" x="670" y="-288" font-family="FreeSans" font-size="10.00"> &#45;m_Project</text>
</g>
<!-- Node21 -->
<g id="node9" class="node"><title>Node21</title>
<g id="a_node9"><a xlink:href="classCompileTargetBase" target="_top" xlink:title="Base class for build target classes Each Code::Blocks project consists of at least one target...">
<polygon fill="none" stroke="black" points="278,-716.5 278,-971.5 446,-971.5 446,-716.5 278,-716.5"/>
<text text-anchor="middle" x="362" y="-959.5" font-family="FreeSans" font-size="10.00">CompileTargetBase</text>
<polyline fill="none" stroke="black" points="278,-952.5 446,-952.5 "/>
<text text-anchor="start" x="286" y="-940.5" font-family="FreeSans" font-size="10.00"># m_Title</text>
<text text-anchor="start" x="286" y="-929.5" font-family="FreeSans" font-size="10.00"># m_OutputFilename</text>
<text text-anchor="start" x="286" y="-918.5" font-family="FreeSans" font-size="10.00"># m_OptionsRelation</text>
<text text-anchor="start" x="286" y="-907.5" font-family="FreeSans" font-size="10.00"># m_TargetType</text>
<text text-anchor="start" x="286" y="-896.5" font-family="FreeSans" font-size="10.00"># m_MakeCommandsModified</text>
<text text-anchor="start" x="286" y="-885.5" font-family="FreeSans" font-size="10.00"># m_RunHostApplicationInTerminal</text>
<text text-anchor="start" x="286" y="-874.5" font-family="FreeSans" font-size="10.00"># m_PrefixGenerationPolicy</text>
<text text-anchor="start" x="286" y="-863.5" font-family="FreeSans" font-size="10.00"># m_ExtensionGenerationPolicy</text>
<polyline fill="none" stroke="black" points="278,-856.5 446,-856.5 "/>
<text text-anchor="start" x="286" y="-844.5" font-family="FreeSans" font-size="10.00">+ CompileTargetBase()</text>
<text text-anchor="start" x="286" y="-833.5" font-family="FreeSans" font-size="10.00">+ ~CompileTargetBase()</text>
<text text-anchor="start" x="286" y="-822.5" font-family="FreeSans" font-size="10.00">+ SetTargetFilenameGeneration</text>
<text text-anchor="start" x="286" y="-811.5" font-family="FreeSans" font-size="10.00">Policy()</text>
<text text-anchor="start" x="286" y="-800.5" font-family="FreeSans" font-size="10.00">+ GetTargetFilenameGeneration</text>
<text text-anchor="start" x="286" y="-789.5" font-family="FreeSans" font-size="10.00">Policy()</text>
<text text-anchor="start" x="286" y="-778.5" font-family="FreeSans" font-size="10.00">+ GetFilename()</text>
<text text-anchor="start" x="286" y="-767.5" font-family="FreeSans" font-size="10.00">+ GetTitle()</text>
<text text-anchor="start" x="286" y="-756.5" font-family="FreeSans" font-size="10.00">+ SetTitle()</text>
<text text-anchor="start" x="286" y="-745.5" font-family="FreeSans" font-size="10.00">+ SetOutputFilename()</text>
<text text-anchor="start" x="286" y="-734.5" font-family="FreeSans" font-size="10.00">and 32 more...</text>
<text text-anchor="start" x="286" y="-723.5" font-family="FreeSans" font-size="10.00">&#45; GenerateTargetFilename()</text>
</a>
</g>
</g>
<!-- Node21&#45;&gt;Node20 -->
<g id="edge8" class="edge"><title>Node21&#45;&gt;Node20</title>
<path fill="none" stroke="midnightblue" d="M450.403,-708.247C456.18,-700.922 462.065,-693.789 468,-687 506.128,-643.389 553.559,-599.881 594.345,-565.107"/>
<polygon fill="none" stroke="midnightblue" points="447.547,-706.219 444.18,-716.264 453.077,-710.511 447.547,-706.219"/>
</g>
<!-- Node21&#45;&gt;Node29 -->
<g id="edge22" class="edge"><title>Node21&#45;&gt;Node29</title>
<path fill="none" stroke="midnightblue" d="M342.805,-706.33C333.108,-585.724 337.361,-410.14 419,-285 463.953,-216.094 552.07,-175.369 614.327,-154.014"/>
<polygon fill="none" stroke="midnightblue" points="339.323,-706.699 343.654,-716.369 346.298,-706.109 339.323,-706.699"/>
</g>
<!-- Node22 -->
<g id="node10" class="node"><title>Node22</title>
<g id="a_node10"><a xlink:href="classCompileOptionsBase" target="_top" xlink:title="This is a base class for all classes needing compilation parameters. ">
<polygon fill="none" stroke="black" points="285.5,-1096.5 285.5,-1274.5 422.5,-1274.5 422.5,-1096.5 285.5,-1096.5"/>
<text text-anchor="middle" x="354" y="-1262.5" font-family="FreeSans" font-size="10.00">CompileOptionsBase</text>
<polyline fill="none" stroke="black" points="285.5,-1255.5 422.5,-1255.5 "/>
<text text-anchor="start" x="293.5" y="-1243.5" font-family="FreeSans" font-size="10.00"># m_Platform</text>
<text text-anchor="start" x="293.5" y="-1232.5" font-family="FreeSans" font-size="10.00"># m_Modified</text>
<text text-anchor="start" x="293.5" y="-1221.5" font-family="FreeSans" font-size="10.00"># m_AlwaysRunPostCmds</text>
<text text-anchor="start" x="293.5" y="-1210.5" font-family="FreeSans" font-size="10.00"># m_Vars</text>
<polyline fill="none" stroke="black" points="285.5,-1203.5 422.5,-1203.5 "/>
<text text-anchor="start" x="293.5" y="-1191.5" font-family="FreeSans" font-size="10.00">+ CompileOptionsBase()</text>
<text text-anchor="start" x="293.5" y="-1180.5" font-family="FreeSans" font-size="10.00">+ ~CompileOptionsBase()</text>
<text text-anchor="start" x="293.5" y="-1169.5" font-family="FreeSans" font-size="10.00">+ AddPlatform()</text>
<text text-anchor="start" x="293.5" y="-1158.5" font-family="FreeSans" font-size="10.00">+ RemovePlatform()</text>
<text text-anchor="start" x="293.5" y="-1147.5" font-family="FreeSans" font-size="10.00">+ SetPlatforms()</text>
<text text-anchor="start" x="293.5" y="-1136.5" font-family="FreeSans" font-size="10.00">+ GetPlatforms()</text>
<text text-anchor="start" x="293.5" y="-1125.5" font-family="FreeSans" font-size="10.00">+ SupportsCurrentPlatform()</text>
<text text-anchor="start" x="293.5" y="-1114.5" font-family="FreeSans" font-size="10.00">+ SetLinkerOptions()</text>
<text text-anchor="start" x="293.5" y="-1103.5" font-family="FreeSans" font-size="10.00">and 56 more...</text>
</a>
</g>
</g>
<!-- Node22&#45;&gt;Node21 -->
<g id="edge9" class="edge"><title>Node22&#45;&gt;Node21</title>
<path fill="none" stroke="midnightblue" d="M356.326,-1085.77C357.167,-1050.09 358.129,-1009.29 359.018,-971.539"/>
<polygon fill="none" stroke="midnightblue" points="352.818,-1086.11 356.081,-1096.19 359.816,-1086.27 352.818,-1086.11"/>
</g>
<!-- Node23 -->
<g id="node11" class="node"><title>Node23</title>
<g id="a_node11"><a doxygen="/media/alpha/Barracuda/cb_docs/src/wxTagFile.xml:http://docs.wxwidgets.org/3.0/" xlink:href="http://docs.wxwidgets.org/3.0/classwx_array_string.html" target="_top" xlink:title="{wxArrayString\n||+ wxArrayString()\l+ wxArrayString()\l+ wxArrayString()\l+ ~wxArrayString()\l+ Add()\l+ Alloc()\l+ Clear()\l+ Empty()\land 19 more...\l}">
<polygon fill="none" stroke="black" points="404.5,-1482 404.5,-1627 499.5,-1627 499.5,-1482 404.5,-1482"/>
<text text-anchor="middle" x="452" y="-1615" font-family="FreeSans" font-size="10.00">wxArrayString</text>
<polyline fill="none" stroke="black" points="404.5,-1608 499.5,-1608 "/>
<text text-anchor="middle" x="452" y="-1596" font-family="FreeSans" font-size="10.00"> </text>
<polyline fill="none" stroke="black" points="404.5,-1589 499.5,-1589 "/>
<text text-anchor="start" x="412.5" y="-1577" font-family="FreeSans" font-size="10.00">+ wxArrayString()</text>
<text text-anchor="start" x="412.5" y="-1566" font-family="FreeSans" font-size="10.00">+ wxArrayString()</text>
<text text-anchor="start" x="412.5" y="-1555" font-family="FreeSans" font-size="10.00">+ wxArrayString()</text>
<text text-anchor="start" x="412.5" y="-1544" font-family="FreeSans" font-size="10.00">+ ~wxArrayString()</text>
<text text-anchor="start" x="412.5" y="-1533" font-family="FreeSans" font-size="10.00">+ Add()</text>
<text text-anchor="start" x="412.5" y="-1522" font-family="FreeSans" font-size="10.00">+ Alloc()</text>
<text text-anchor="start" x="412.5" y="-1511" font-family="FreeSans" font-size="10.00">+ Clear()</text>
<text text-anchor="start" x="412.5" y="-1500" font-family="FreeSans" font-size="10.00">+ Empty()</text>
<text text-anchor="start" x="412.5" y="-1489" font-family="FreeSans" font-size="10.00">and 19 more...</text>
</a>
</g>
</g>
<!-- Node23&#45;&gt;Node20 -->
<g id="edge12" class="edge"><title>Node23&#45;&gt;Node20</title>
<path fill="none" stroke="#404040" d="M499.586,-1527.37C540.938,-1502.68 600.144,-1462.28 639,-1414 704.873,-1332.16 800.782,-991.646 804,-972 824.478,-846.98 842.493,-805.986 799,-687 793.884,-673.004 787.768,-658.869 781.064,-644.947"/>
<polygon fill="none" stroke="#404040" points="780.887,-644.59 774.642,-640.984 775.568,-633.833 781.813,-637.438 780.887,-644.59"/>
<text text-anchor="middle" x="844" y="-1042.5" font-family="FreeSans" font-size="10.00"> &#45;m_ExpandedNodes</text>
<text text-anchor="middle" x="844" y="-1031.5" font-family="FreeSans" font-size="10.00">&#45;m_SelectedNodes</text>
<text text-anchor="middle" x="844" y="-1020.5" font-family="FreeSans" font-size="10.00">&#45;m_VirtualFolders</text>
</g>
<!-- Node23&#45;&gt;Node22 -->
<g id="edge10" class="edge"><title>Node23&#45;&gt;Node22</title>
<path fill="none" stroke="#404040" d="M404.386,-1525.7C367.944,-1501.42 320.414,-1462.5 299,-1414 277.28,-1364.8 286.303,-1345.26 299,-1293 299.53,-1290.82 300.112,-1288.63 300.743,-1286.45"/>
<polygon fill="none" stroke="#404040" points="300.828,-1286.18 298.877,-1279.24 304.535,-1274.77 306.486,-1281.71 300.828,-1286.18"/>
<text text-anchor="middle" x="364.5" y="-1406" font-family="FreeSans" font-size="10.00"> #m_LibDirs</text>
<text text-anchor="middle" x="364.5" y="-1395" font-family="FreeSans" font-size="10.00">#m_CompilerOptions</text>
<text text-anchor="middle" x="364.5" y="-1384" font-family="FreeSans" font-size="10.00">#m_IncludeDirs</text>
<text text-anchor="middle" x="364.5" y="-1373" font-family="FreeSans" font-size="10.00">#m_LinkLibs</text>
<text text-anchor="middle" x="364.5" y="-1362" font-family="FreeSans" font-size="10.00">#m_CmdsAfter</text>
<text text-anchor="middle" x="364.5" y="-1351" font-family="FreeSans" font-size="10.00">#m_ResourceCompilerOptions</text>
<text text-anchor="middle" x="364.5" y="-1340" font-family="FreeSans" font-size="10.00">#m_ResIncludeDirs</text>
<text text-anchor="middle" x="364.5" y="-1329" font-family="FreeSans" font-size="10.00">#m_Scripts</text>
<text text-anchor="middle" x="364.5" y="-1318" font-family="FreeSans" font-size="10.00">#m_CmdsBefore</text>
<text text-anchor="middle" x="364.5" y="-1307" font-family="FreeSans" font-size="10.00">#m_LinkerOptions</text>
<text text-anchor="middle" x="364.5" y="-1296" font-family="FreeSans" font-size="10.00">...</text>
</g>
<!-- Node25 -->
<g id="node13" class="node"><title>Node25</title>
<polygon fill="none" stroke="#bfbfbf" points="592.5,-1151.5 592.5,-1219.5 693.5,-1219.5 693.5,-1151.5 592.5,-1151.5"/>
<text text-anchor="start" x="600.5" y="-1207.5" font-family="FreeSans" font-size="10.00">std::map&lt; wxString,</text>
<text text-anchor="middle" x="643" y="-1196.5" font-family="FreeSans" font-size="10.00"> wxArrayString &gt;</text>
<polyline fill="none" stroke="#bfbfbf" points="592.5,-1189.5 693.5,-1189.5 "/>
<text text-anchor="middle" x="643" y="-1177.5" font-family="FreeSans" font-size="10.00"> </text>
<polyline fill="none" stroke="#bfbfbf" points="592.5,-1170.5 693.5,-1170.5 "/>
<text text-anchor="middle" x="643" y="-1158.5" font-family="FreeSans" font-size="10.00"> </text>
</g>
<!-- Node23&#45;&gt;Node25 -->
<g id="edge14" class="edge"><title>Node23&#45;&gt;Node25</title>
<path fill="none" stroke="#404040" d="M489.28,-1481.87C528.015,-1407.44 587.413,-1293.31 619.865,-1230.95"/>
<polygon fill="none" stroke="#404040" points="620.06,-1230.58 619.282,-1223.41 625.6,-1219.93 626.378,-1227.1 620.06,-1230.58"/>
<text text-anchor="middle" x="611" y="-1351" font-family="FreeSans" font-size="10.00"> +elements</text>
</g>
<!-- Node24 -->
<g id="node12" class="node"><title>Node24</title>
<g id="a_node12"><a doxygen="/media/alpha/Barracuda/cb_docs/src/wxTagFile.xml:http://docs.wxwidgets.org/3.0/" xlink:href="http://docs.wxwidgets.org/3.0/classwx_string.html" target="_top" xlink:title="{wxString\n|+ npos\l|+ wxString()\l+ wxString()\l+ wxString()\l+ wxString()\l+ wxString()\l+ wxString()\l+ wxString()\l+ wxString()\land 222 more...\l+ Format()\l+ FormatV()\l+ FromCDouble()\l+ FromDouble()\l+ From8BitData()\l+ From8BitData()\l+ FromAscii()\l+ FromAscii()\land 7 more...\l}">
<polygon fill="none" stroke="black" points="870.5,-1432.5 870.5,-1676.5 961.5,-1676.5 961.5,-1432.5 870.5,-1432.5"/>
<text text-anchor="middle" x="916" y="-1664.5" font-family="FreeSans" font-size="10.00">wxString</text>
<polyline fill="none" stroke="black" points="870.5,-1657.5 961.5,-1657.5 "/>
<text text-anchor="start" x="878.5" y="-1645.5" font-family="FreeSans" font-size="10.00">+ npos</text>
<polyline fill="none" stroke="black" points="870.5,-1638.5 961.5,-1638.5 "/>
<text text-anchor="start" x="878.5" y="-1626.5" font-family="FreeSans" font-size="10.00">+ wxString()</text>
<text text-anchor="start" x="878.5" y="-1615.5" font-family="FreeSans" font-size="10.00">+ wxString()</text>
<text text-anchor="start" x="878.5" y="-1604.5" font-family="FreeSans" font-size="10.00">+ wxString()</text>
<text text-anchor="start" x="878.5" y="-1593.5" font-family="FreeSans" font-size="10.00">+ wxString()</text>
<text text-anchor="start" x="878.5" y="-1582.5" font-family="FreeSans" font-size="10.00">+ wxString()</text>
<text text-anchor="start" x="878.5" y="-1571.5" font-family="FreeSans" font-size="10.00">+ wxString()</text>
<text text-anchor="start" x="878.5" y="-1560.5" font-family="FreeSans" font-size="10.00">+ wxString()</text>
<text text-anchor="start" x="878.5" y="-1549.5" font-family="FreeSans" font-size="10.00">+ wxString()</text>
<text text-anchor="start" x="878.5" y="-1538.5" font-family="FreeSans" font-size="10.00">and 222 more...</text>
<text text-anchor="start" x="878.5" y="-1527.5" font-family="FreeSans" font-size="10.00">+ Format()</text>
<text text-anchor="start" x="878.5" y="-1516.5" font-family="FreeSans" font-size="10.00">+ FormatV()</text>
<text text-anchor="start" x="878.5" y="-1505.5" font-family="FreeSans" font-size="10.00">+ FromCDouble()</text>
<text text-anchor="start" x="878.5" y="-1494.5" font-family="FreeSans" font-size="10.00">+ FromDouble()</text>
<text text-anchor="start" x="878.5" y="-1483.5" font-family="FreeSans" font-size="10.00">+ From8BitData()</text>
<text text-anchor="start" x="878.5" y="-1472.5" font-family="FreeSans" font-size="10.00">+ From8BitData()</text>
<text text-anchor="start" x="878.5" y="-1461.5" font-family="FreeSans" font-size="10.00">+ FromAscii()</text>
<text text-anchor="start" x="878.5" y="-1450.5" font-family="FreeSans" font-size="10.00">+ FromAscii()</text>
<text text-anchor="start" x="878.5" y="-1439.5" font-family="FreeSans" font-size="10.00">and 7 more...</text>
</a>
</g>
</g>
<!-- Node24&#45;&gt;Node20 -->
<g id="edge20" class="edge"><title>Node24&#45;&gt;Node20</title>
<path fill="none" stroke="#404040" d="M961.612,-1461.79C967.568,-1446.18 972.73,-1429.88 976,-1414 980.507,-1392.11 991.601,-757.785 971,-716 932.527,-637.967 852.366,-579.095 786.674,-541.414"/>
<polygon fill="none" stroke="#404040" points="786.303,-541.205 779.113,-541.747 775.847,-535.318 783.037,-534.776 786.303,-541.205"/>
<text text-anchor="middle" x="1041.5" y="-1070" font-family="FreeSans" font-size="10.00"> &#45;m_Notes</text>
<text text-anchor="middle" x="1041.5" y="-1059" font-family="FreeSans" font-size="10.00">&#45;m_Makefile</text>
<text text-anchor="middle" x="1041.5" y="-1048" font-family="FreeSans" font-size="10.00">&#45;m_ActiveTarget</text>
<text text-anchor="middle" x="1041.5" y="-1037" font-family="FreeSans" font-size="10.00">&#45;m_BasePath</text>
<text text-anchor="middle" x="1041.5" y="-1026" font-family="FreeSans" font-size="10.00">&#45;m_DefaultExecuteTarget</text>
<text text-anchor="middle" x="1041.5" y="-1015" font-family="FreeSans" font-size="10.00">&#45;m_LastSavedActiveTarget</text>
<text text-anchor="middle" x="1041.5" y="-1004" font-family="FreeSans" font-size="10.00">&#45;m_MakefileExecutionDir</text>
<text text-anchor="middle" x="1041.5" y="-993" font-family="FreeSans" font-size="10.00">&#45;m_CommonTopLevelPath</text>
</g>
<!-- Node24&#45;&gt;Node21 -->
<g id="edge11" class="edge"><title>Node24&#45;&gt;Node21</title>
<path fill="none" stroke="#404040" d="M870.199,-1523.46C794.313,-1473.98 637.338,-1372.87 501,-1293 486.585,-1284.56 477.945,-1288.42 468,-1275 419.639,-1209.73 449.999,-1174.98 431,-1096 422.178,-1059.32 411.774,-1019.88 401.757,-983.377"/>
<polygon fill="none" stroke="#404040" points="401.709,-983.203 396.259,-978.482 398.521,-971.635 403.971,-976.356 401.709,-983.203"/>
<text text-anchor="middle" x="525.5" y="-1238" font-family="FreeSans" font-size="10.00"> #m_MakeCommands</text>
<text text-anchor="middle" x="525.5" y="-1227" font-family="FreeSans" font-size="10.00">#m_ImportLibraryFilename</text>
<text text-anchor="middle" x="525.5" y="-1216" font-family="FreeSans" font-size="10.00">#m_HostApplication</text>
<text text-anchor="middle" x="525.5" y="-1205" font-family="FreeSans" font-size="10.00">#m_DefinitionFileFilename</text>
<text text-anchor="middle" x="525.5" y="-1194" font-family="FreeSans" font-size="10.00">#m_CompilerId</text>
<text text-anchor="middle" x="525.5" y="-1183" font-family="FreeSans" font-size="10.00">#m_ExecutionParameters</text>
<text text-anchor="middle" x="525.5" y="-1172" font-family="FreeSans" font-size="10.00">#m_Filename</text>
<text text-anchor="middle" x="525.5" y="-1161" font-family="FreeSans" font-size="10.00">#m_ObjectOutput</text>
<text text-anchor="middle" x="525.5" y="-1150" font-family="FreeSans" font-size="10.00">#m_DepsOutput</text>
<text text-anchor="middle" x="525.5" y="-1139" font-family="FreeSans" font-size="10.00">#m_WorkingDir</text>
<text text-anchor="middle" x="525.5" y="-1128" font-family="FreeSans" font-size="10.00">...</text>
</g>
<!-- Node24&#45;&gt;Node25 -->
<g id="edge15" class="edge"><title>Node24&#45;&gt;Node25</title>
<path fill="none" stroke="#404040" d="M870.306,-1492.07C814.979,-1417.69 723.224,-1294.35 674.95,-1229.45"/>
<polygon fill="none" stroke="#404040" points="674.75,-1229.18 667.959,-1226.76 667.588,-1219.55 674.378,-1221.98 674.75,-1229.18"/>
<text text-anchor="middle" x="826" y="-1351" font-family="FreeSans" font-size="10.00"> +keys</text>
</g>
<!-- Node28 -->
<g id="node16" class="node"><title>Node28</title>
<g id="a_node16"><a xlink:href="structcbProject_1_1Glob" target="_top" xlink:title="{cbProject::Glob\n|+ m_Recursive\l|+ Glob()\l}">
<polygon fill="none" stroke="black" points="876.5,-1157 876.5,-1214 959.5,-1214 959.5,-1157 876.5,-1157"/>
<text text-anchor="middle" x="918" y="-1202" font-family="FreeSans" font-size="10.00">cbProject::Glob</text>
<polyline fill="none" stroke="black" points="876.5,-1195 959.5,-1195 "/>
<text text-anchor="start" x="884.5" y="-1183" font-family="FreeSans" font-size="10.00">+ m_Recursive</text>
<polyline fill="none" stroke="black" points="876.5,-1176 959.5,-1176 "/>
<text text-anchor="start" x="884.5" y="-1164" font-family="FreeSans" font-size="10.00">+ Glob()</text>
</a>
</g>
</g>
<!-- Node24&#45;&gt;Node28 -->
<g id="edge19" class="edge"><title>Node24&#45;&gt;Node28</title>
<path fill="none" stroke="#404040" d="M916.326,-1432.23C916.481,-1388.36 916.699,-1338.45 917,-1293 917.146,-1270.9 917.374,-1246.23 917.575,-1226.19"/>
<polygon fill="none" stroke="#404040" points="917.576,-1226.08 913.638,-1220.04 917.699,-1214.08 921.637,-1220.12 917.576,-1226.08"/>
<text text-anchor="middle" x="946.5" y="-1356.5" font-family="FreeSans" font-size="10.00"> +m_Path</text>
<text text-anchor="middle" x="946.5" y="-1345.5" font-family="FreeSans" font-size="10.00">+m_WildCard</text>
</g>
<!-- Node24&#45;&gt;Node29 -->
<g id="edge24" class="edge"><title>Node24&#45;&gt;Node29</title>
<path fill="none" stroke="#404040" d="M961.718,-1508.27C1022.41,-1443.18 1122,-1316.56 1122,-1186.5 1122,-1186.5 1122,-1186.5 1122,-490.5 1122,-308.765 892.123,-203.507 765.439,-159.298"/>
<polygon fill="none" stroke="#404040" points="765.238,-159.229 758.264,-161.066 753.887,-155.336 760.86,-153.498 765.238,-159.229"/>
<text text-anchor="middle" x="1178" y="-847" font-family="FreeSans" font-size="10.00"> &#45;m_AdditionalOutputFiles</text>
<text text-anchor="middle" x="1178" y="-836" font-family="FreeSans" font-size="10.00">&#45;m_ExternalDeps</text>
</g>
<!-- Node25&#45;&gt;Node20 -->
<g id="edge13" class="edge"><title>Node25&#45;&gt;Node20</title>
<path fill="none" stroke="#404040" d="M618.898,-1151.36C576.452,-1092.91 492.654,-977.156 491,-972 456.241,-863.662 451.193,-822.587 491,-716 510.513,-663.752 548.357,-615.629 585.479,-577.527"/>
<polygon fill="none" stroke="#404040" points="585.929,-577.074 587.318,-569.998 594.384,-568.559 592.995,-575.635 585.929,-577.074"/>
<text text-anchor="middle" x="530.5" y="-841.5" font-family="FreeSans" font-size="10.00"> &#45;m_VirtualTargets</text>
</g>
<!-- Node26 -->
<g id="node14" class="node"><title>Node26</title>
<g id="a_node14"><a doxygen="/media/alpha/Barracuda/cb_docs/src/wxTagFile.xml:http://docs.wxwidgets.org/3.0/" xlink:href="http://docs.wxwidgets.org/3.0/classwx_date_time.html" target="_top" xlink:title="{wxDateTime\n||+ wxDateTime()\l+ wxDateTime()\l+ wxDateTime()\l+ wxDateTime()\l+ wxDateTime()\l+ wxDateTime()\l+ wxDateTime()\l+ wxDateTime()\land 107 more...\l+ ConvertYearToBC()\l+ GetAmPmStrings()\l+ GetBeginDST()\l+ GetEndDST()\l+ GetCentury()\l+ GetCountry()\l+ GetCurrentMonth()\l+ GetCurrentYear()\land 17 more...\l}">
<polygon fill="none" stroke="black" points="579.5,-722 579.5,-966 688.5,-966 688.5,-722 579.5,-722"/>
<text text-anchor="middle" x="634" y="-954" font-family="FreeSans" font-size="10.00">wxDateTime</text>
<polyline fill="none" stroke="black" points="579.5,-947 688.5,-947 "/>
<text text-anchor="middle" x="634" y="-935" font-family="FreeSans" font-size="10.00"> </text>
<polyline fill="none" stroke="black" points="579.5,-928 688.5,-928 "/>
<text text-anchor="start" x="587.5" y="-916" font-family="FreeSans" font-size="10.00">+ wxDateTime()</text>
<text text-anchor="start" x="587.5" y="-905" font-family="FreeSans" font-size="10.00">+ wxDateTime()</text>
<text text-anchor="start" x="587.5" y="-894" font-family="FreeSans" font-size="10.00">+ wxDateTime()</text>
<text text-anchor="start" x="587.5" y="-883" font-family="FreeSans" font-size="10.00">+ wxDateTime()</text>
<text text-anchor="start" x="587.5" y="-872" font-family="FreeSans" font-size="10.00">+ wxDateTime()</text>
<text text-anchor="start" x="587.5" y="-861" font-family="FreeSans" font-size="10.00">+ wxDateTime()</text>
<text text-anchor="start" x="587.5" y="-850" font-family="FreeSans" font-size="10.00">+ wxDateTime()</text>
<text text-anchor="start" x="587.5" y="-839" font-family="FreeSans" font-size="10.00">+ wxDateTime()</text>
<text text-anchor="start" x="587.5" y="-828" font-family="FreeSans" font-size="10.00">and 107 more...</text>
<text text-anchor="start" x="587.5" y="-817" font-family="FreeSans" font-size="10.00">+ ConvertYearToBC()</text>
<text text-anchor="start" x="587.5" y="-806" font-family="FreeSans" font-size="10.00">+ GetAmPmStrings()</text>
<text text-anchor="start" x="587.5" y="-795" font-family="FreeSans" font-size="10.00">+ GetBeginDST()</text>
<text text-anchor="start" x="587.5" y="-784" font-family="FreeSans" font-size="10.00">+ GetEndDST()</text>
<text text-anchor="start" x="587.5" y="-773" font-family="FreeSans" font-size="10.00">+ GetCentury()</text>
<text text-anchor="start" x="587.5" y="-762" font-family="FreeSans" font-size="10.00">+ GetCountry()</text>
<text text-anchor="start" x="587.5" y="-751" font-family="FreeSans" font-size="10.00">+ GetCurrentMonth()</text>
<text text-anchor="start" x="587.5" y="-740" font-family="FreeSans" font-size="10.00">+ GetCurrentYear()</text>
<text text-anchor="start" x="587.5" y="-729" font-family="FreeSans" font-size="10.00">and 17 more...</text>
</a>
</g>
</g>
<!-- Node26&#45;&gt;Node20 -->
<g id="edge16" class="edge"><title>Node26&#45;&gt;Node20</title>
<path fill="none" stroke="#404040" d="M637.316,-721.876C638.275,-710.066 639.483,-698.285 641,-687 641.278,-684.936 641.566,-682.861 641.866,-680.778"/>
<polygon fill="none" stroke="#404040" points="641.889,-680.626 638.835,-674.094 643.691,-668.762 646.744,-675.295 641.889,-680.626"/>
<text text-anchor="middle" x="677.5" y="-690" font-family="FreeSans" font-size="10.00"> &#45;m_LastModified</text>
</g>
<!-- Node27 -->
<g id="node15" class="node"><title>Node27</title>
<polygon fill="none" stroke="#bfbfbf" points="852,-810 852,-878 962,-878 962,-810 852,-810"/>
<text text-anchor="start" x="860" y="-866" font-family="FreeSans" font-size="10.00">std::vector&lt; cbProject</text>
<text text-anchor="middle" x="907" y="-855" font-family="FreeSans" font-size="10.00">::Glob &gt;</text>
<polyline fill="none" stroke="#bfbfbf" points="852,-848 962,-848 "/>
<text text-anchor="middle" x="907" y="-836" font-family="FreeSans" font-size="10.00"> </text>
<polyline fill="none" stroke="#bfbfbf" points="852,-829 962,-829 "/>
<text text-anchor="middle" x="907" y="-817" font-family="FreeSans" font-size="10.00"> </text>
</g>
<!-- Node27&#45;&gt;Node20 -->
<g id="edge17" class="edge"><title>Node27&#45;&gt;Node20</title>
<path fill="none" stroke="#404040" d="M895.125,-809.855C882.878,-777.439 862.193,-727.224 838,-687 821.85,-660.149 802.484,-632.81 783.045,-607.442"/>
<polygon fill="none" stroke="#404040" points="782.943,-607.31 776.108,-605.014 775.598,-597.821 782.434,-600.117 782.943,-607.31"/>
<text text-anchor="middle" x="865" y="-690" font-family="FreeSans" font-size="10.00"> &#45;m_Globs</text>
</g>
<!-- Node28&#45;&gt;Node27 -->
<g id="edge18" class="edge"><title>Node28&#45;&gt;Node27</title>
<path fill="none" stroke="#404040" d="M917.1,-1156.72C915.202,-1098.15 910.777,-961.577 908.465,-890.228"/>
<polygon fill="none" stroke="#404040" points="908.462,-890.106 904.269,-884.239 908.073,-878.113 912.265,-883.98 908.462,-890.106"/>
<text text-anchor="middle" x="939" y="-1031.5" font-family="FreeSans" font-size="10.00"> +elements</text>
</g>
<!-- Node29&#45;&gt;Node20 -->
<g id="edge21" class="edge"><title>Node29&#45;&gt;Node20</title>
<path fill="none" stroke="#404040" d="M695.789,-239.247C697.121,-254.575 698.263,-270.183 699,-285 699.282,-290.673 699.475,-296.432 699.589,-302.247"/>
<polygon fill="none" stroke="#404040" points="699.589,-302.248 703.652,-308.205 699.716,-314.247 695.653,-308.29 699.589,-302.248"/>
<text text-anchor="middle" x="764" y="-288" font-family="FreeSans" font-size="10.00"> &#45;m_CurrentlyCompilingTarget</text>
</g>
<!-- Node30 -->
<g id="node18" class="node"><title>Node30</title>
<g id="a_node18"><a doxygen="/media/alpha/Barracuda/cb_docs/src/wxTagFile.xml:http://docs.wxwidgets.org/3.0/" xlink:href="http://docs.wxwidgets.org/3.0/classwx_tree_item_id.html" target="_top" xlink:title="{wxTreeItemId\n||+ wxTreeItemId()\l+ IsOk()\l+ GetID()\l+ Unset()\l}">
<polygon fill="none" stroke="black" points="706.5,-799 706.5,-889 795.5,-889 795.5,-799 706.5,-799"/>
<text text-anchor="middle" x="751" y="-877" font-family="FreeSans" font-size="10.00">wxTreeItemId</text>
<polyline fill="none" stroke="black" points="706.5,-870 795.5,-870 "/>
<text text-anchor="middle" x="751" y="-858" font-family="FreeSans" font-size="10.00"> </text>
<polyline fill="none" stroke="black" points="706.5,-851 795.5,-851 "/>
<text text-anchor="start" x="714.5" y="-839" font-family="FreeSans" font-size="10.00">+ wxTreeItemId()</text>
<text text-anchor="start" x="714.5" y="-828" font-family="FreeSans" font-size="10.00">+ IsOk()</text>
<text text-anchor="start" x="714.5" y="-817" font-family="FreeSans" font-size="10.00">+ GetID()</text>
<text text-anchor="start" x="714.5" y="-806" font-family="FreeSans" font-size="10.00">+ Unset()</text>
</a>
</g>
</g>
<!-- Node30&#45;&gt;Node20 -->
<g id="edge25" class="edge"><title>Node30&#45;&gt;Node20</title>
<path fill="none" stroke="#404040" d="M742.708,-798.964C736.924,-768.246 728.77,-724.944 720.408,-680.54"/>
<polygon fill="none" stroke="#404040" points="720.384,-680.411 715.343,-675.255 718.164,-668.618 723.205,-673.775 720.384,-680.411"/>
<text text-anchor="middle" x="758.5" y="-690" font-family="FreeSans" font-size="10.00"> &#45;m_ProjectNode</text>
</g>
</g>
</svg>
