<?xml version="1.0" encoding="UTF-8" standalone="no"?>
<!DOCTYPE svg PUBLIC "-//W3C//DTD SVG 1.1//EN"
 "http://www.w3.org/Graphics/SVG/1.1/DTD/svg11.dtd">
<!-- Generated by graphviz version 2.40.1 (20161225.0304)
 -->
<!-- Title: DebuggerSettingsPanel Pages: 1 -->
<svg width="1004pt" height="1592pt"
 viewBox="0.00 0.00 1004.16 1592.00" xmlns="http://www.w3.org/2000/svg" xmlns:xlink="http://www.w3.org/1999/xlink">
<g id="graph0" class="graph" transform="scale(1 1) rotate(0) translate(4 1588)">
<title>DebuggerSettingsPanel</title>
<!-- Node6 -->
<g id="node1" class="node">
<title>Node6</title>
<polygon fill="#bfbfbf" stroke="#000000" points="491.1551,-.5 491.1551,-134.5 628.1551,-134.5 628.1551,-.5 491.1551,-.5"/>
<text text-anchor="middle" x="559.6551" y="-122.5" font-family="FreeSans" font-size="10.00" fill="#000000">DebuggerSettingsPanel</text>
<polyline fill="none" stroke="#000000" points="491.1551,-115.5 628.1551,-115.5 "/>
<text text-anchor="start" x="499.1551" y="-103.5" font-family="FreeSans" font-size="10.00" fill="#000000">&#45; ID_BUTTON_CREATE</text>
<text text-anchor="start" x="499.1551" y="-92.5" font-family="FreeSans" font-size="10.00" fill="#000000">&#45; ID_BUTTON_DELETE</text>
<text text-anchor="start" x="499.1551" y="-81.5" font-family="FreeSans" font-size="10.00" fill="#000000">&#45; ID_BUTTON_RESET</text>
<text text-anchor="start" x="499.1551" y="-70.5" font-family="FreeSans" font-size="10.00" fill="#000000">&#45; ID_TEXTCTRL_INFO</text>
<polyline fill="none" stroke="#000000" points="491.1551,-63.5 628.1551,-63.5 "/>
<text text-anchor="start" x="499.1551" y="-51.5" font-family="FreeSans" font-size="10.00" fill="#000000">+ DebuggerSettingsPanel()</text>
<text text-anchor="start" x="499.1551" y="-40.5" font-family="FreeSans" font-size="10.00" fill="#000000">+ ~DebuggerSettingsPanel()</text>
<text text-anchor="start" x="499.1551" y="-29.5" font-family="FreeSans" font-size="10.00" fill="#000000">&#45; OnButtonCreate()</text>
<text text-anchor="start" x="499.1551" y="-18.5" font-family="FreeSans" font-size="10.00" fill="#000000">&#45; OnButtonDelete()</text>
<text text-anchor="start" x="499.1551" y="-7.5" font-family="FreeSans" font-size="10.00" fill="#000000">&#45; OnButtonReset()</text>
</g>
<!-- Node7 -->
<g id="node2" class="node">
<title>Node7</title>
<g id="a_node2"><a doxygen="/media/alpha/Barracuda/cb_docs/src/wxTagFile.xml:http://docs.wxwidgets.org/3.0/" xlink:href="http://docs.wxwidgets.org/3.0/classwx_panel.html" target="_top" xlink:title="{wxPanel\n||}">
<polygon fill="none" stroke="#000000" points="943.1551,-706 943.1551,-763 996.1551,-763 996.1551,-706 943.1551,-706"/>
<text text-anchor="middle" x="969.6551" y="-751" font-family="FreeSans" font-size="10.00" fill="#000000">wxPanel</text>
<polyline fill="none" stroke="#000000" points="943.1551,-744 996.1551,-744 "/>
<text text-anchor="middle" x="969.6551" y="-732" font-family="FreeSans" font-size="10.00" fill="#000000"> </text>
<polyline fill="none" stroke="#000000" points="943.1551,-725 996.1551,-725 "/>
<text text-anchor="middle" x="969.6551" y="-713" font-family="FreeSans" font-size="10.00" fill="#000000"> </text>
</a>
</g>
</g>
<!-- Node7&#45;&gt;Node6 -->
<g id="edge1" class="edge">
<title>Node7&#45;&gt;Node6</title>
<path fill="none" stroke="#191970" d="M977.7866,-695.6814C990.4987,-624.9959 1008.0957,-472.5731 950.6551,-364 880.1398,-230.7136 720.2193,-139.9977 628.2335,-96.7018"/>
<polygon fill="none" stroke="#191970" points="974.2728,-695.4316 975.8783,-705.904 981.154,-696.7161 974.2728,-695.4316"/>
</g>
<!-- Node17 -->
<g id="node8" class="node">
<title>Node17</title>
<g id="a_node8"><a xlink:href="classDebuggerSettingsCommonPanel" target="_top" xlink:title="{DebuggerSettingsCommonPanel\n|&#45; ID_AUTOBUILD\l&#45; ID_AUTOSWITCH\l&#45; ID_DEBUGGERS_LOG\l&#45; ID_JUMP_ON_DOUBLE_CLICK\l&#45; ID_REQUIRE_CTRL_FOR\l_TOOLTIPS\l&#45; ID_VALUE_TOOLTIP_LABEL\l&#45; ID_BUTTON_CHOOSE_FONT\l&#45; ID_CHOICE_PERSPECTIVE\l|+ DebuggerSettingsCommonPanel()\l+ ~DebuggerSettingsCommonPanel()\l+ SaveChanges()\l&#45; UpdateValueTooltipFont()\l&#45; OnChooseFontClick()\l}">
<polygon fill="none" stroke="#000000" points="471.6551,-364.5 471.6551,-553.5 647.6551,-553.5 647.6551,-364.5 471.6551,-364.5"/>
<text text-anchor="middle" x="559.6551" y="-541.5" font-family="FreeSans" font-size="10.00" fill="#000000">DebuggerSettingsCommonPanel</text>
<polyline fill="none" stroke="#000000" points="471.6551,-534.5 647.6551,-534.5 "/>
<text text-anchor="start" x="479.6551" y="-522.5" font-family="FreeSans" font-size="10.00" fill="#000000">&#45; ID_AUTOBUILD</text>
<text text-anchor="start" x="479.6551" y="-511.5" font-family="FreeSans" font-size="10.00" fill="#000000">&#45; ID_AUTOSWITCH</text>
<text text-anchor="start" x="479.6551" y="-500.5" font-family="FreeSans" font-size="10.00" fill="#000000">&#45; ID_DEBUGGERS_LOG</text>
<text text-anchor="start" x="479.6551" y="-489.5" font-family="FreeSans" font-size="10.00" fill="#000000">&#45; ID_JUMP_ON_DOUBLE_CLICK</text>
<text text-anchor="start" x="479.6551" y="-478.5" font-family="FreeSans" font-size="10.00" fill="#000000">&#45; ID_REQUIRE_CTRL_FOR</text>
<text text-anchor="start" x="479.6551" y="-467.5" font-family="FreeSans" font-size="10.00" fill="#000000">_TOOLTIPS</text>
<text text-anchor="start" x="479.6551" y="-456.5" font-family="FreeSans" font-size="10.00" fill="#000000">&#45; ID_VALUE_TOOLTIP_LABEL</text>
<text text-anchor="start" x="479.6551" y="-445.5" font-family="FreeSans" font-size="10.00" fill="#000000">&#45; ID_BUTTON_CHOOSE_FONT</text>
<text text-anchor="start" x="479.6551" y="-434.5" font-family="FreeSans" font-size="10.00" fill="#000000">&#45; ID_CHOICE_PERSPECTIVE</text>
<polyline fill="none" stroke="#000000" points="471.6551,-427.5 647.6551,-427.5 "/>
<text text-anchor="start" x="479.6551" y="-415.5" font-family="FreeSans" font-size="10.00" fill="#000000">+ DebuggerSettingsCommonPanel()</text>
<text text-anchor="start" x="479.6551" y="-404.5" font-family="FreeSans" font-size="10.00" fill="#000000">+ ~DebuggerSettingsCommonPanel()</text>
<text text-anchor="start" x="479.6551" y="-393.5" font-family="FreeSans" font-size="10.00" fill="#000000">+ SaveChanges()</text>
<text text-anchor="start" x="479.6551" y="-382.5" font-family="FreeSans" font-size="10.00" fill="#000000">&#45; UpdateValueTooltipFont()</text>
<text text-anchor="start" x="479.6551" y="-371.5" font-family="FreeSans" font-size="10.00" fill="#000000">&#45; OnChooseFontClick()</text>
</a>
</g>
</g>
<!-- Node7&#45;&gt;Node17 -->
<g id="edge8" class="edge">
<title>Node7&#45;&gt;Node17</title>
<path fill="none" stroke="#191970" d="M960.801,-696.0539C955.2889,-678.8417 946.6914,-659.2596 933.6551,-645 872.3656,-577.9592 832.7521,-592.8708 750.6551,-554 716.8477,-537.9931 679.9864,-519.8294 647.7432,-503.7024"/>
<polygon fill="none" stroke="#191970" points="957.5076,-697.2595 963.7001,-705.8562 964.2202,-695.2741 957.5076,-697.2595"/>
</g>
<!-- Node8 -->
<g id="node3" class="node">
<title>Node8</title>
<g id="a_node3"><a doxygen="/media/alpha/Barracuda/cb_docs/src/wxTagFile.xml:http://docs.wxwidgets.org/3.0/" xlink:href="http://docs.wxwidgets.org/3.0/classwx_window.html" target="_top" xlink:title="{wxWindow\n||}">
<polygon fill="none" stroke="#000000" points="658.6551,-1042 658.6551,-1099 720.6551,-1099 720.6551,-1042 658.6551,-1042"/>
<text text-anchor="middle" x="689.6551" y="-1087" font-family="FreeSans" font-size="10.00" fill="#000000">wxWindow</text>
<polyline fill="none" stroke="#000000" points="658.6551,-1080 720.6551,-1080 "/>
<text text-anchor="middle" x="689.6551" y="-1068" font-family="FreeSans" font-size="10.00" fill="#000000"> </text>
<polyline fill="none" stroke="#000000" points="658.6551,-1061 720.6551,-1061 "/>
<text text-anchor="middle" x="689.6551" y="-1049" font-family="FreeSans" font-size="10.00" fill="#000000"> </text>
</a>
</g>
</g>
<!-- Node8&#45;&gt;Node7 -->
<g id="edge2" class="edge">
<title>Node8&#45;&gt;Node7</title>
<path fill="none" stroke="#191970" d="M728.799,-1039.6026C781.4816,-996.2835 875.3087,-912.7907 933.6551,-824 945.9797,-805.2446 955.2655,-781.6019 961.317,-763.3271"/>
<polygon fill="none" stroke="#191970" points="726.5547,-1036.9166 721.0213,-1045.9516 730.9813,-1042.3393 726.5547,-1036.9166"/>
</g>
<!-- Node28 -->
<g id="node15" class="node">
<title>Node28</title>
<polygon fill="none" stroke="#bfbfbf" points="279.6551,-425 279.6551,-493 385.6551,-493 385.6551,-425 279.6551,-425"/>
<text text-anchor="start" x="287.6551" y="-481" font-family="FreeSans" font-size="10.00" fill="#000000">std::map&lt; wxWindow</text>
<text text-anchor="middle" x="332.6551" y="-470" font-family="FreeSans" font-size="10.00" fill="#000000"> *, Config &gt;</text>
<polyline fill="none" stroke="#bfbfbf" points="279.6551,-463 385.6551,-463 "/>
<text text-anchor="middle" x="332.6551" y="-451" font-family="FreeSans" font-size="10.00" fill="#000000"> </text>
<polyline fill="none" stroke="#bfbfbf" points="279.6551,-444 385.6551,-444 "/>
<text text-anchor="middle" x="332.6551" y="-432" font-family="FreeSans" font-size="10.00" fill="#000000"> </text>
</g>
<!-- Node8&#45;&gt;Node28 -->
<g id="edge21" class="edge">
<title>Node8&#45;&gt;Node28</title>
<path fill="none" stroke="#404040" d="M679.9121,-1041.6151C661.2316,-991.2298 615.203,-888.2416 537.6551,-842 500.0881,-819.5989 371.531,-855.9455 341.6551,-824 320.3888,-801.2606 326.4635,-598.4423 330.4388,-505.3444"/>
<polygon fill="none" stroke="#404040" points="330.4442,-505.2186 326.7114,-499.0489 330.9708,-493.2302 334.7037,-499.3999 330.4442,-505.2186"/>
<text text-anchor="middle" x="355.6551" y="-732" font-family="FreeSans" font-size="10.00" fill="#000000"> +keys</text>
</g>
<!-- Node9 -->
<g id="node4" class="node">
<title>Node9</title>
<g id="a_node4"><a doxygen="/media/alpha/Barracuda/cb_docs/src/wxTagFile.xml:http://docs.wxwidgets.org/3.0/" xlink:href="http://docs.wxwidgets.org/3.0/classwx_evt_handler.html" target="_top" xlink:title="{wxEvtHandler\n||}">
<polygon fill="none" stroke="#ff0000" points="652.6551,-1433 652.6551,-1490 726.6551,-1490 726.6551,-1433 652.6551,-1433"/>
<text text-anchor="middle" x="689.6551" y="-1478" font-family="FreeSans" font-size="10.00" fill="#000000">wxEvtHandler</text>
<polyline fill="none" stroke="#ff0000" points="652.6551,-1471 726.6551,-1471 "/>
<text text-anchor="middle" x="689.6551" y="-1459" font-family="FreeSans" font-size="10.00" fill="#000000"> </text>
<polyline fill="none" stroke="#ff0000" points="652.6551,-1452 726.6551,-1452 "/>
<text text-anchor="middle" x="689.6551" y="-1440" font-family="FreeSans" font-size="10.00" fill="#000000"> </text>
</a>
</g>
</g>
<!-- Node9&#45;&gt;Node8 -->
<g id="edge3" class="edge">
<title>Node9&#45;&gt;Node8</title>
<path fill="none" stroke="#191970" d="M689.6551,-1422.3066C689.6551,-1343.5935 689.6551,-1167.9443 689.6551,-1099.0291"/>
<polygon fill="none" stroke="#191970" points="686.1552,-1422.7488 689.6551,-1432.7488 693.1552,-1422.7489 686.1552,-1422.7488"/>
</g>
<!-- Node12 -->
<g id="node5" class="node">
<title>Node12</title>
<g id="a_node5"><a xlink:href="classDebuggerSettingsDlg" target="_top" xlink:title="{DebuggerSettingsDlg\n|&#45; ID_LABEL_ACTIVE_INFO\l&#45; ID_TREEBOOK\l|+ DebuggerSettingsDlg()\l+ ~DebuggerSettingsDlg()\l+ CreateConfig()\l+ DeleteConfig()\l+ ResetConfig()\l&#45; OnPageChanged()\l&#45; OnOK()\l}">
<polygon fill="none" stroke="#000000" points="492.1551,-182.5 492.1551,-316.5 627.1551,-316.5 627.1551,-182.5 492.1551,-182.5"/>
<text text-anchor="middle" x="559.6551" y="-304.5" font-family="FreeSans" font-size="10.00" fill="#000000">DebuggerSettingsDlg</text>
<polyline fill="none" stroke="#000000" points="492.1551,-297.5 627.1551,-297.5 "/>
<text text-anchor="start" x="500.1551" y="-285.5" font-family="FreeSans" font-size="10.00" fill="#000000">&#45; ID_LABEL_ACTIVE_INFO</text>
<text text-anchor="start" x="500.1551" y="-274.5" font-family="FreeSans" font-size="10.00" fill="#000000">&#45; ID_TREEBOOK</text>
<polyline fill="none" stroke="#000000" points="492.1551,-267.5 627.1551,-267.5 "/>
<text text-anchor="start" x="500.1551" y="-255.5" font-family="FreeSans" font-size="10.00" fill="#000000">+ DebuggerSettingsDlg()</text>
<text text-anchor="start" x="500.1551" y="-244.5" font-family="FreeSans" font-size="10.00" fill="#000000">+ ~DebuggerSettingsDlg()</text>
<text text-anchor="start" x="500.1551" y="-233.5" font-family="FreeSans" font-size="10.00" fill="#000000">+ CreateConfig()</text>
<text text-anchor="start" x="500.1551" y="-222.5" font-family="FreeSans" font-size="10.00" fill="#000000">+ DeleteConfig()</text>
<text text-anchor="start" x="500.1551" y="-211.5" font-family="FreeSans" font-size="10.00" fill="#000000">+ ResetConfig()</text>
<text text-anchor="start" x="500.1551" y="-200.5" font-family="FreeSans" font-size="10.00" fill="#000000">&#45; OnPageChanged()</text>
<text text-anchor="start" x="500.1551" y="-189.5" font-family="FreeSans" font-size="10.00" fill="#000000">&#45; OnOK()</text>
</a>
</g>
</g>
<!-- Node12&#45;&gt;Node6 -->
<g id="edge4" class="edge">
<title>Node12&#45;&gt;Node6</title>
<path fill="none" stroke="#404040" d="M559.6551,-182.247C559.6551,-170.7485 559.6551,-158.7061 559.6551,-146.9266"/>
<polygon fill="none" stroke="#404040" points="559.6552,-146.7802 555.6551,-140.7803 559.6551,-134.7802 563.6551,-140.7802 559.6552,-146.7802"/>
<text text-anchor="middle" x="582.1551" y="-156" font-family="FreeSans" font-size="10.00" fill="#000000"> &#45;m_dialog</text>
</g>
<!-- Node13 -->
<g id="node6" class="node">
<title>Node13</title>
<g id="a_node6"><a xlink:href="classwxScrollingDialog" target="_top" xlink:title="{wxScrollingDialog\n||+ wxScrollingDialog()\l+ wxScrollingDialog()\l}">
<polygon fill="none" stroke="#000000" points="140.1551,-425 140.1551,-493 247.1551,-493 247.1551,-425 140.1551,-425"/>
<text text-anchor="middle" x="193.6551" y="-481" font-family="FreeSans" font-size="10.00" fill="#000000">wxScrollingDialog</text>
<polyline fill="none" stroke="#000000" points="140.1551,-474 247.1551,-474 "/>
<text text-anchor="middle" x="193.6551" y="-462" font-family="FreeSans" font-size="10.00" fill="#000000"> </text>
<polyline fill="none" stroke="#000000" points="140.1551,-455 247.1551,-455 "/>
<text text-anchor="start" x="148.1551" y="-443" font-family="FreeSans" font-size="10.00" fill="#000000">+ wxScrollingDialog()</text>
<text text-anchor="start" x="148.1551" y="-432" font-family="FreeSans" font-size="10.00" fill="#000000">+ wxScrollingDialog()</text>
</a>
</g>
</g>
<!-- Node13&#45;&gt;Node12 -->
<g id="edge5" class="edge">
<title>Node13&#45;&gt;Node12</title>
<path fill="none" stroke="#191970" d="M220.5802,-416.7704C233.8667,-398.5893 251.2162,-378.276 270.6551,-364 338.1854,-314.4054 430.0961,-282.8533 491.9804,-265.6998"/>
<polygon fill="none" stroke="#191970" points="217.7106,-414.7663 214.7686,-424.9445 223.4157,-418.8225 217.7106,-414.7663"/>
</g>
<!-- Node14 -->
<g id="node7" class="node">
<title>Node14</title>
<g id="a_node7"><a doxygen="/media/alpha/Barracuda/cb_docs/src/wxTagFile.xml:http://docs.wxwidgets.org/3.0/" xlink:href="http://docs.wxwidgets.org/3.0/classwx_dialog.html" target="_top" xlink:title="{wxDialog\n||+ ShowModal()\l}">
<polygon fill="none" stroke="#ff0000" points="90.1551,-706 90.1551,-763 171.1551,-763 171.1551,-706 90.1551,-706"/>
<text text-anchor="middle" x="130.6551" y="-751" font-family="FreeSans" font-size="10.00" fill="#000000">wxDialog</text>
<polyline fill="none" stroke="#ff0000" points="90.1551,-744 171.1551,-744 "/>
<text text-anchor="middle" x="130.6551" y="-732" font-family="FreeSans" font-size="10.00" fill="#000000"> </text>
<polyline fill="none" stroke="#ff0000" points="90.1551,-725 171.1551,-725 "/>
<text text-anchor="start" x="98.1551" y="-713" font-family="FreeSans" font-size="10.00" fill="#000000">+ ShowModal()</text>
</a>
</g>
</g>
<!-- Node14&#45;&gt;Node13 -->
<g id="edge6" class="edge">
<title>Node14&#45;&gt;Node13</title>
<path fill="none" stroke="#191970" d="M139.4768,-695.9226C151.82,-641.9456 174.0504,-544.7316 185.8323,-493.209"/>
<polygon fill="none" stroke="#191970" points="136.0362,-695.2677 137.2189,-705.7963 142.8601,-696.8282 136.0362,-695.2677"/>
</g>
<!-- Node17&#45;&gt;Node12 -->
<g id="edge7" class="edge">
<title>Node17&#45;&gt;Node12</title>
<path fill="none" stroke="#404040" d="M559.6551,-364.3632C559.6551,-352.5776 559.6551,-340.6196 559.6551,-329.0935"/>
<polygon fill="none" stroke="#404040" points="559.6552,-328.7846 555.6551,-322.7846 559.6551,-316.7846 563.6551,-322.7846 559.6552,-328.7846"/>
<text text-anchor="middle" x="600.6551" y="-338" font-family="FreeSans" font-size="10.00" fill="#000000"> &#45;m_commonPanel</text>
</g>
<!-- Node18 -->
<g id="node9" class="node">
<title>Node18</title>
<g id="a_node9"><a doxygen="/media/alpha/Barracuda/cb_docs/src/wxTagFile.xml:http://docs.wxwidgets.org/3.0/" xlink:href="http://docs.wxwidgets.org/3.0/classwx_choice.html" target="_top" xlink:title="{wxChoice\n||+ wxChoice()\l+ wxChoice()\l+ wxChoice()\l+ ~wxChoice()\l+ GetColumns()\l+ GetCurrentSelection()\l+ SetColumns()\l+ IsSorted()\land 8 more...\l}">
<polygon fill="none" stroke="#ff0000" points="379.1551,-662 379.1551,-807 498.1551,-807 498.1551,-662 379.1551,-662"/>
<text text-anchor="middle" x="438.6551" y="-795" font-family="FreeSans" font-size="10.00" fill="#000000">wxChoice</text>
<polyline fill="none" stroke="#ff0000" points="379.1551,-788 498.1551,-788 "/>
<text text-anchor="middle" x="438.6551" y="-776" font-family="FreeSans" font-size="10.00" fill="#000000"> </text>
<polyline fill="none" stroke="#ff0000" points="379.1551,-769 498.1551,-769 "/>
<text text-anchor="start" x="387.1551" y="-757" font-family="FreeSans" font-size="10.00" fill="#000000">+ wxChoice()</text>
<text text-anchor="start" x="387.1551" y="-746" font-family="FreeSans" font-size="10.00" fill="#000000">+ wxChoice()</text>
<text text-anchor="start" x="387.1551" y="-735" font-family="FreeSans" font-size="10.00" fill="#000000">+ wxChoice()</text>
<text text-anchor="start" x="387.1551" y="-724" font-family="FreeSans" font-size="10.00" fill="#000000">+ ~wxChoice()</text>
<text text-anchor="start" x="387.1551" y="-713" font-family="FreeSans" font-size="10.00" fill="#000000">+ GetColumns()</text>
<text text-anchor="start" x="387.1551" y="-702" font-family="FreeSans" font-size="10.00" fill="#000000">+ GetCurrentSelection()</text>
<text text-anchor="start" x="387.1551" y="-691" font-family="FreeSans" font-size="10.00" fill="#000000">+ SetColumns()</text>
<text text-anchor="start" x="387.1551" y="-680" font-family="FreeSans" font-size="10.00" fill="#000000">+ IsSorted()</text>
<text text-anchor="start" x="387.1551" y="-669" font-family="FreeSans" font-size="10.00" fill="#000000">and 8 more...</text>
</a>
</g>
</g>
<!-- Node18&#45;&gt;Node17 -->
<g id="edge9" class="edge">
<title>Node18&#45;&gt;Node17</title>
<path fill="none" stroke="#404040" d="M430.0025,-661.9265C429.3839,-632.8669 432.404,-599.7657 444.6551,-572 449.6215,-560.7442 456.2725,-550.0224 463.8833,-539.9831"/>
<polygon fill="none" stroke="#404040" points="463.9311,-539.9236 464.5735,-532.7412 471.4506,-530.5717 470.8081,-537.7542 463.9311,-539.9236"/>
<text text-anchor="middle" x="478.6551" y="-597" font-family="FreeSans" font-size="10.00" fill="#000000"> &#45;m_perspective</text>
</g>
<!-- Node22 -->
<g id="node10" class="node">
<title>Node22</title>
<g id="a_node10"><a doxygen="/media/alpha/Barracuda/cb_docs/src/wxTagFile.xml:http://docs.wxwidgets.org/3.0/" xlink:href="http://docs.wxwidgets.org/3.0/classwx_static_text.html" target="_top" xlink:title="{wxStaticText\n||+ wxStaticText()\l+ wxStaticText()\l+ Create()\l+ IsEllipsized()\l+ Wrap()\l}">
<polygon fill="none" stroke="#ff0000" points="716.6551,-684 716.6551,-785 802.6551,-785 802.6551,-684 716.6551,-684"/>
<text text-anchor="middle" x="759.6551" y="-773" font-family="FreeSans" font-size="10.00" fill="#000000">wxStaticText</text>
<polyline fill="none" stroke="#ff0000" points="716.6551,-766 802.6551,-766 "/>
<text text-anchor="middle" x="759.6551" y="-754" font-family="FreeSans" font-size="10.00" fill="#000000"> </text>
<polyline fill="none" stroke="#ff0000" points="716.6551,-747 802.6551,-747 "/>
<text text-anchor="start" x="724.6551" y="-735" font-family="FreeSans" font-size="10.00" fill="#000000">+ wxStaticText()</text>
<text text-anchor="start" x="724.6551" y="-724" font-family="FreeSans" font-size="10.00" fill="#000000">+ wxStaticText()</text>
<text text-anchor="start" x="724.6551" y="-713" font-family="FreeSans" font-size="10.00" fill="#000000">+ Create()</text>
<text text-anchor="start" x="724.6551" y="-702" font-family="FreeSans" font-size="10.00" fill="#000000">+ IsEllipsized()</text>
<text text-anchor="start" x="724.6551" y="-691" font-family="FreeSans" font-size="10.00" fill="#000000">+ Wrap()</text>
</a>
</g>
</g>
<!-- Node22&#45;&gt;Node12 -->
<g id="edge13" class="edge">
<title>Node22&#45;&gt;Node12</title>
<path fill="none" stroke="#404040" d="M779.239,-683.7714C789.0002,-651.4221 796.7777,-608.8127 786.6551,-572 754.1587,-453.8213 721.0438,-431.6373 645.6551,-335 642.3609,-330.7774 638.8723,-326.5498 635.2604,-322.3598"/>
<polygon fill="none" stroke="#404040" points="635.1515,-322.2372 628.1767,-320.4064 627.1839,-313.264 634.1588,-315.0947 635.1515,-322.2372"/>
<text text-anchor="middle" x="811.1551" y="-456.5" font-family="FreeSans" font-size="10.00" fill="#000000"> &#45;m_activeInfo</text>
</g>
<!-- Node22&#45;&gt;Node17 -->
<g id="edge10" class="edge">
<title>Node22&#45;&gt;Node17</title>
<path fill="none" stroke="#404040" d="M732.2244,-683.8666C724.6786,-670.9253 716.2062,-657.2208 707.6551,-645 701.6848,-636.4677 698.0574,-635.9028 692.6551,-627 678.9099,-604.3484 684.2642,-594.1042 669.6551,-572 665.2938,-565.4012 660.516,-558.8527 655.4711,-552.4271"/>
<polygon fill="none" stroke="#404040" points="655.4698,-552.4254 648.5826,-550.2886 647.9061,-543.1092 654.7934,-545.2461 655.4698,-552.4254"/>
<text text-anchor="middle" x="739.6551" y="-597" font-family="FreeSans" font-size="10.00" fill="#000000"> &#45;m_valueTooltipLabel</text>
</g>
<!-- Node23 -->
<g id="node11" class="node">
<title>Node23</title>
<g id="a_node11"><a doxygen="/media/alpha/Barracuda/cb_docs/src/wxTagFile.xml:http://docs.wxwidgets.org/3.0/" xlink:href="http://docs.wxwidgets.org/3.0/classwx_string.html" target="_top" xlink:title="{wxString\n|+ npos\l|+ wxString()\l+ wxString()\l+ wxString()\l+ wxString()\l+ wxString()\l+ wxString()\l+ wxString()\l+ wxString()\land 222 more...\l+ Format()\l+ FormatV()\l+ FromCDouble()\l+ FromDouble()\l+ From8BitData()\l+ From8BitData()\l+ FromAscii()\l+ FromAscii()\land 7 more...\l}">
<polygon fill="none" stroke="#000000" points="181.1551,-1339.5 181.1551,-1583.5 272.1551,-1583.5 272.1551,-1339.5 181.1551,-1339.5"/>
<text text-anchor="middle" x="226.6551" y="-1571.5" font-family="FreeSans" font-size="10.00" fill="#000000">wxString</text>
<polyline fill="none" stroke="#000000" points="181.1551,-1564.5 272.1551,-1564.5 "/>
<text text-anchor="start" x="189.1551" y="-1552.5" font-family="FreeSans" font-size="10.00" fill="#000000">+ npos</text>
<polyline fill="none" stroke="#000000" points="181.1551,-1545.5 272.1551,-1545.5 "/>
<text text-anchor="start" x="189.1551" y="-1533.5" font-family="FreeSans" font-size="10.00" fill="#000000">+ wxString()</text>
<text text-anchor="start" x="189.1551" y="-1522.5" font-family="FreeSans" font-size="10.00" fill="#000000">+ wxString()</text>
<text text-anchor="start" x="189.1551" y="-1511.5" font-family="FreeSans" font-size="10.00" fill="#000000">+ wxString()</text>
<text text-anchor="start" x="189.1551" y="-1500.5" font-family="FreeSans" font-size="10.00" fill="#000000">+ wxString()</text>
<text text-anchor="start" x="189.1551" y="-1489.5" font-family="FreeSans" font-size="10.00" fill="#000000">+ wxString()</text>
<text text-anchor="start" x="189.1551" y="-1478.5" font-family="FreeSans" font-size="10.00" fill="#000000">+ wxString()</text>
<text text-anchor="start" x="189.1551" y="-1467.5" font-family="FreeSans" font-size="10.00" fill="#000000">+ wxString()</text>
<text text-anchor="start" x="189.1551" y="-1456.5" font-family="FreeSans" font-size="10.00" fill="#000000">+ wxString()</text>
<text text-anchor="start" x="189.1551" y="-1445.5" font-family="FreeSans" font-size="10.00" fill="#000000">and 222 more...</text>
<text text-anchor="start" x="189.1551" y="-1434.5" font-family="FreeSans" font-size="10.00" fill="#000000">+ Format()</text>
<text text-anchor="start" x="189.1551" y="-1423.5" font-family="FreeSans" font-size="10.00" fill="#000000">+ FormatV()</text>
<text text-anchor="start" x="189.1551" y="-1412.5" font-family="FreeSans" font-size="10.00" fill="#000000">+ FromCDouble()</text>
<text text-anchor="start" x="189.1551" y="-1401.5" font-family="FreeSans" font-size="10.00" fill="#000000">+ FromDouble()</text>
<text text-anchor="start" x="189.1551" y="-1390.5" font-family="FreeSans" font-size="10.00" fill="#000000">+ From8BitData()</text>
<text text-anchor="start" x="189.1551" y="-1379.5" font-family="FreeSans" font-size="10.00" fill="#000000">+ From8BitData()</text>
<text text-anchor="start" x="189.1551" y="-1368.5" font-family="FreeSans" font-size="10.00" fill="#000000">+ FromAscii()</text>
<text text-anchor="start" x="189.1551" y="-1357.5" font-family="FreeSans" font-size="10.00" fill="#000000">+ FromAscii()</text>
<text text-anchor="start" x="189.1551" y="-1346.5" font-family="FreeSans" font-size="10.00" fill="#000000">and 7 more...</text>
</a>
</g>
</g>
<!-- Node23&#45;&gt;Node17 -->
<g id="edge11" class="edge">
<title>Node23&#45;&gt;Node17</title>
<path fill="none" stroke="#404040" d="M272.2485,-1392.4888C286.0905,-1370.1502 300.7668,-1344.9521 312.6551,-1321 418.0753,-1108.6024 446.1142,-1053.2618 506.6551,-824 519.1592,-776.6482 535.6435,-655.5629 546.8869,-565.7674"/>
<polygon fill="none" stroke="#404040" points="546.9199,-565.5015 543.6922,-559.0531 548.4032,-553.5935 551.6309,-560.0419 546.9199,-565.5015"/>
<text text-anchor="middle" x="555.1551" y="-845" font-family="FreeSans" font-size="10.00" fill="#000000"> &#45;m_valueTooltipFontInfo</text>
</g>
<!-- Node29 -->
<g id="node16" class="node">
<title>Node29</title>
<g id="a_node16"><a xlink:href="classDebuggerSettingsDlg#structDebuggerSettingsDlg_1_1Config" target="_top" xlink:title="{DebuggerSettingsDlg\l::Config\n||}">
<polygon fill="none" stroke="#ff0000" points="189.1551,-700.5 189.1551,-768.5 296.1551,-768.5 296.1551,-700.5 189.1551,-700.5"/>
<text text-anchor="start" x="197.1551" y="-756.5" font-family="FreeSans" font-size="10.00" fill="#000000">DebuggerSettingsDlg</text>
<text text-anchor="middle" x="242.6551" y="-745.5" font-family="FreeSans" font-size="10.00" fill="#000000">::Config</text>
<polyline fill="none" stroke="#ff0000" points="189.1551,-738.5 296.1551,-738.5 "/>
<text text-anchor="middle" x="242.6551" y="-726.5" font-family="FreeSans" font-size="10.00" fill="#000000"> </text>
<polyline fill="none" stroke="#ff0000" points="189.1551,-719.5 296.1551,-719.5 "/>
<text text-anchor="middle" x="242.6551" y="-707.5" font-family="FreeSans" font-size="10.00" fill="#000000"> </text>
</a>
</g>
</g>
<!-- Node23&#45;&gt;Node29 -->
<g id="edge20" class="edge">
<title>Node23&#45;&gt;Node29</title>
<path fill="none" stroke="#404040" d="M180.9302,-1425.3733C140.8295,-1390.5182 85.3372,-1333.7665 61.6551,-1270 -.0841,-1103.7611 -37.8704,-1017.7712 61.6551,-871 93.3375,-824.2776 135.3458,-858.978 179.6551,-824 195.0707,-811.8308 208.3081,-794.8986 218.6131,-779.0332"/>
<polygon fill="none" stroke="#404040" points="218.6237,-779.0161 218.3914,-771.8087 224.955,-768.8222 225.1873,-776.0296 218.6237,-779.0161"/>
<text text-anchor="middle" x="100.1551" y="-1068" font-family="FreeSans" font-size="10.00" fill="#000000"> +pluginGUIName</text>
</g>
<!-- Node32 -->
<g id="node17" class="node">
<title>Node32</title>
<g id="a_node17"><a xlink:href="classcbDebuggerPlugin" target="_top" xlink:title="Base class for debugger plugins. ">
<polygon fill="none" stroke="#ff0000" points="148.1551,-871.5 148.1551,-1269.5 305.1551,-1269.5 305.1551,-871.5 148.1551,-871.5"/>
<text text-anchor="middle" x="226.6551" y="-1257.5" font-family="FreeSans" font-size="10.00" fill="#000000">cbDebuggerPlugin</text>
<polyline fill="none" stroke="#ff0000" points="148.1551,-1250.5 305.1551,-1250.5 "/>
<text text-anchor="start" x="156.1551" y="-1238.5" font-family="FreeSans" font-size="10.00" fill="#000000">&#45; m_WaitingCompilerToFinish</text>
<text text-anchor="start" x="156.1551" y="-1227.5" font-family="FreeSans" font-size="10.00" fill="#000000">&#45; m_StartType</text>
<text text-anchor="start" x="156.1551" y="-1216.5" font-family="FreeSans" font-size="10.00" fill="#000000">&#45; m_ActiveConfig</text>
<text text-anchor="start" x="156.1551" y="-1205.5" font-family="FreeSans" font-size="10.00" fill="#000000">&#45; m_LogPageIndex</text>
<text text-anchor="start" x="156.1551" y="-1194.5" font-family="FreeSans" font-size="10.00" fill="#000000">&#45; m_lastLineWasNormal</text>
<polyline fill="none" stroke="#ff0000" points="148.1551,-1187.5 305.1551,-1187.5 "/>
<text text-anchor="start" x="156.1551" y="-1175.5" font-family="FreeSans" font-size="10.00" fill="#000000">+ cbDebuggerPlugin()</text>
<text text-anchor="start" x="156.1551" y="-1164.5" font-family="FreeSans" font-size="10.00" fill="#000000">+ OnAttach()</text>
<text text-anchor="start" x="156.1551" y="-1153.5" font-family="FreeSans" font-size="10.00" fill="#000000">+ OnRelease()</text>
<text text-anchor="start" x="156.1551" y="-1142.5" font-family="FreeSans" font-size="10.00" fill="#000000">+ BuildMenu()</text>
<text text-anchor="start" x="156.1551" y="-1131.5" font-family="FreeSans" font-size="10.00" fill="#000000">+ BuildModuleMenu()</text>
<text text-anchor="start" x="156.1551" y="-1120.5" font-family="FreeSans" font-size="10.00" fill="#000000">+ BuildToolBar()</text>
<text text-anchor="start" x="156.1551" y="-1109.5" font-family="FreeSans" font-size="10.00" fill="#000000">+ EditorLinesAddedOrRemoved()</text>
<text text-anchor="start" x="156.1551" y="-1098.5" font-family="FreeSans" font-size="10.00" fill="#000000">+ OnAttachReal()</text>
<text text-anchor="start" x="156.1551" y="-1087.5" font-family="FreeSans" font-size="10.00" fill="#000000">and 70 more...</text>
<text text-anchor="start" x="156.1551" y="-1076.5" font-family="FreeSans" font-size="10.00" fill="#000000"># ConvertDirectory()</text>
<text text-anchor="start" x="156.1551" y="-1065.5" font-family="FreeSans" font-size="10.00" fill="#000000"># GetProject()</text>
<text text-anchor="start" x="156.1551" y="-1054.5" font-family="FreeSans" font-size="10.00" fill="#000000"># ResetProject()</text>
<text text-anchor="start" x="156.1551" y="-1043.5" font-family="FreeSans" font-size="10.00" fill="#000000"># CleanupWhenProjectClosed()</text>
<text text-anchor="start" x="156.1551" y="-1032.5" font-family="FreeSans" font-size="10.00" fill="#000000"># CompilerFinished()</text>
<text text-anchor="start" x="156.1551" y="-1021.5" font-family="FreeSans" font-size="10.00" fill="#000000"># SwitchToDebuggingLayout()</text>
<text text-anchor="start" x="156.1551" y="-1010.5" font-family="FreeSans" font-size="10.00" fill="#000000"># SwitchToPreviousLayout()</text>
<text text-anchor="start" x="156.1551" y="-999.5" font-family="FreeSans" font-size="10.00" fill="#000000"># GetDebuggee()</text>
<text text-anchor="start" x="156.1551" y="-988.5" font-family="FreeSans" font-size="10.00" fill="#000000"># EnsureBuildUpToDate()</text>
<text text-anchor="start" x="156.1551" y="-977.5" font-family="FreeSans" font-size="10.00" fill="#000000"># WaitingCompilerToFinish()</text>
<text text-anchor="start" x="156.1551" y="-966.5" font-family="FreeSans" font-size="10.00" fill="#000000"># RunNixConsole()</text>
<text text-anchor="start" x="156.1551" y="-955.5" font-family="FreeSans" font-size="10.00" fill="#000000"># MarkAsStopped()</text>
<text text-anchor="start" x="156.1551" y="-944.5" font-family="FreeSans" font-size="10.00" fill="#000000">&#45; RegisterValueTooltip()</text>
<text text-anchor="start" x="156.1551" y="-933.5" font-family="FreeSans" font-size="10.00" fill="#000000">&#45; ProcessValueTooltip()</text>
<text text-anchor="start" x="156.1551" y="-922.5" font-family="FreeSans" font-size="10.00" fill="#000000">&#45; CancelValueTooltip()</text>
<text text-anchor="start" x="156.1551" y="-911.5" font-family="FreeSans" font-size="10.00" fill="#000000">&#45; OnEditorOpened()</text>
<text text-anchor="start" x="156.1551" y="-900.5" font-family="FreeSans" font-size="10.00" fill="#000000">&#45; OnProjectActivated()</text>
<text text-anchor="start" x="156.1551" y="-889.5" font-family="FreeSans" font-size="10.00" fill="#000000">&#45; OnProjectClosed()</text>
<text text-anchor="start" x="156.1551" y="-878.5" font-family="FreeSans" font-size="10.00" fill="#000000">&#45; OnCompilerFinished()</text>
</a>
</g>
</g>
<!-- Node23&#45;&gt;Node32 -->
<g id="edge19" class="edge">
<title>Node23&#45;&gt;Node32</title>
<path fill="none" stroke="#404040" d="M226.6551,-1339.3935C226.6551,-1321.0232 226.6551,-1301.6416 226.6551,-1282.0435"/>
<polygon fill="none" stroke="#404040" points="226.6552,-1281.82 222.6551,-1275.82 226.6551,-1269.82 230.6551,-1275.82 226.6552,-1281.82"/>
<text text-anchor="middle" x="267.6551" y="-1313" font-family="FreeSans" font-size="10.00" fill="#000000"> &#45;m_guiName</text>
<text text-anchor="middle" x="267.6551" y="-1302" font-family="FreeSans" font-size="10.00" fill="#000000">&#45;m_PreviousLayout</text>
<text text-anchor="middle" x="267.6551" y="-1291" font-family="FreeSans" font-size="10.00" fill="#000000">&#45;m_settingsName</text>
</g>
<!-- Node24 -->
<g id="node12" class="node">
<title>Node24</title>
<g id="a_node12"><a doxygen="/media/alpha/Barracuda/cb_docs/src/wxTagFile.xml:http://docs.wxwidgets.org/3.0/" xlink:href="http://docs.wxwidgets.org/3.0/classwx_check_box.html" target="_top" xlink:title="{wxCheckBox\n||+ wxCheckBox()\l+ wxCheckBox()\l+ ~wxCheckBox()\l+ Create()\l+ GetValue()\l+ Get3StateValue()\l+ Is3State()\l+ Is3rdStateAllowedForUser()\l+ IsChecked()\l+ SetValue()\l+ Set3StateValue()\l}">
<polygon fill="none" stroke="#ff0000" points="555.1551,-651 555.1551,-818 698.1551,-818 698.1551,-651 555.1551,-651"/>
<text text-anchor="middle" x="626.6551" y="-806" font-family="FreeSans" font-size="10.00" fill="#000000">wxCheckBox</text>
<polyline fill="none" stroke="#ff0000" points="555.1551,-799 698.1551,-799 "/>
<text text-anchor="middle" x="626.6551" y="-787" font-family="FreeSans" font-size="10.00" fill="#000000"> </text>
<polyline fill="none" stroke="#ff0000" points="555.1551,-780 698.1551,-780 "/>
<text text-anchor="start" x="563.1551" y="-768" font-family="FreeSans" font-size="10.00" fill="#000000">+ wxCheckBox()</text>
<text text-anchor="start" x="563.1551" y="-757" font-family="FreeSans" font-size="10.00" fill="#000000">+ wxCheckBox()</text>
<text text-anchor="start" x="563.1551" y="-746" font-family="FreeSans" font-size="10.00" fill="#000000">+ ~wxCheckBox()</text>
<text text-anchor="start" x="563.1551" y="-735" font-family="FreeSans" font-size="10.00" fill="#000000">+ Create()</text>
<text text-anchor="start" x="563.1551" y="-724" font-family="FreeSans" font-size="10.00" fill="#000000">+ GetValue()</text>
<text text-anchor="start" x="563.1551" y="-713" font-family="FreeSans" font-size="10.00" fill="#000000">+ Get3StateValue()</text>
<text text-anchor="start" x="563.1551" y="-702" font-family="FreeSans" font-size="10.00" fill="#000000">+ Is3State()</text>
<text text-anchor="start" x="563.1551" y="-691" font-family="FreeSans" font-size="10.00" fill="#000000">+ Is3rdStateAllowedForUser()</text>
<text text-anchor="start" x="563.1551" y="-680" font-family="FreeSans" font-size="10.00" fill="#000000">+ IsChecked()</text>
<text text-anchor="start" x="563.1551" y="-669" font-family="FreeSans" font-size="10.00" fill="#000000">+ SetValue()</text>
<text text-anchor="start" x="563.1551" y="-658" font-family="FreeSans" font-size="10.00" fill="#000000">+ Set3StateValue()</text>
</a>
</g>
</g>
<!-- Node24&#45;&gt;Node17 -->
<g id="edge12" class="edge">
<title>Node24&#45;&gt;Node17</title>
<path fill="none" stroke="#404040" d="M569.5594,-650.8105C566.0028,-642.9967 562.9412,-635.0018 560.6551,-627 555.0958,-607.5415 552.4765,-586.2901 551.612,-565.6469"/>
<polygon fill="none" stroke="#404040" points="551.6102,-565.5768 547.4548,-559.6834 551.2967,-553.5809 555.4521,-559.4743 551.6102,-565.5768"/>
<text text-anchor="middle" x="615.1551" y="-619" font-family="FreeSans" font-size="10.00" fill="#000000"> &#45;m_debuggersLog</text>
<text text-anchor="middle" x="615.1551" y="-608" font-family="FreeSans" font-size="10.00" fill="#000000">&#45;m_jumpOnDoubleClick</text>
<text text-anchor="middle" x="615.1551" y="-597" font-family="FreeSans" font-size="10.00" fill="#000000">&#45;m_autoSwitch</text>
<text text-anchor="middle" x="615.1551" y="-586" font-family="FreeSans" font-size="10.00" fill="#000000">&#45;m_requireCtrlForTooltips</text>
<text text-anchor="middle" x="615.1551" y="-575" font-family="FreeSans" font-size="10.00" fill="#000000">&#45;m_autoBuild</text>
</g>
<!-- Node25 -->
<g id="node13" class="node">
<title>Node25</title>
<g id="a_node13"><a doxygen="/media/alpha/Barracuda/cb_docs/src/wxTagFile.xml:http://docs.wxwidgets.org/3.0/" xlink:href="http://docs.wxwidgets.org/3.0/classwx_treebook.html" target="_top" xlink:title="{wxTreebook\n||+ wxTreebook()\l+ wxTreebook()\l+ ~wxTreebook()\l+ AddPage()\l+ AddSubPage()\l+ CollapseNode()\l+ Create()\l+ DeletePage()\land 6 more...\l}">
<polygon fill="none" stroke="#000000" points="851.6551,-386.5 851.6551,-531.5 941.6551,-531.5 941.6551,-386.5 851.6551,-386.5"/>
<text text-anchor="middle" x="896.6551" y="-519.5" font-family="FreeSans" font-size="10.00" fill="#000000">wxTreebook</text>
<polyline fill="none" stroke="#000000" points="851.6551,-512.5 941.6551,-512.5 "/>
<text text-anchor="middle" x="896.6551" y="-500.5" font-family="FreeSans" font-size="10.00" fill="#000000"> </text>
<polyline fill="none" stroke="#000000" points="851.6551,-493.5 941.6551,-493.5 "/>
<text text-anchor="start" x="859.6551" y="-481.5" font-family="FreeSans" font-size="10.00" fill="#000000">+ wxTreebook()</text>
<text text-anchor="start" x="859.6551" y="-470.5" font-family="FreeSans" font-size="10.00" fill="#000000">+ wxTreebook()</text>
<text text-anchor="start" x="859.6551" y="-459.5" font-family="FreeSans" font-size="10.00" fill="#000000">+ ~wxTreebook()</text>
<text text-anchor="start" x="859.6551" y="-448.5" font-family="FreeSans" font-size="10.00" fill="#000000">+ AddPage()</text>
<text text-anchor="start" x="859.6551" y="-437.5" font-family="FreeSans" font-size="10.00" fill="#000000">+ AddSubPage()</text>
<text text-anchor="start" x="859.6551" y="-426.5" font-family="FreeSans" font-size="10.00" fill="#000000">+ CollapseNode()</text>
<text text-anchor="start" x="859.6551" y="-415.5" font-family="FreeSans" font-size="10.00" fill="#000000">+ Create()</text>
<text text-anchor="start" x="859.6551" y="-404.5" font-family="FreeSans" font-size="10.00" fill="#000000">+ DeletePage()</text>
<text text-anchor="start" x="859.6551" y="-393.5" font-family="FreeSans" font-size="10.00" fill="#000000">and 6 more...</text>
</a>
</g>
</g>
<!-- Node25&#45;&gt;Node12 -->
<g id="edge14" class="edge">
<title>Node25&#45;&gt;Node12</title>
<path fill="none" stroke="#404040" d="M856.7599,-386.0458C850.9039,-378.1465 844.511,-370.5954 837.6551,-364 782.7288,-311.1605 700.0189,-281.3477 639.0884,-265.484"/>
<polygon fill="none" stroke="#404040" points="638.8446,-265.4227 632.0499,-267.8377 627.2074,-262.4946 634.0021,-260.0796 638.8446,-265.4227"/>
<text text-anchor="middle" x="841.1551" y="-338" font-family="FreeSans" font-size="10.00" fill="#000000"> &#45;m_treebook</text>
</g>
<!-- Node26 -->
<g id="node14" class="node">
<title>Node26</title>
<g id="a_node14"><a doxygen="/media/alpha/Barracuda/cb_docs/src/wxTagFile.xml:http://docs.wxwidgets.org/3.0/" xlink:href="http://docs.wxwidgets.org/3.0/classwx_book_ctrl_base.html" target="_top" xlink:title="{wxBookCtrlBase\n||+ SetPageImage()\l+ GetPageText()\l+ SetPageText()\l+ GetSelection()\l+ SetSelection()\l+ ChangeSelection()\l+ AddPage()\l+ DeleteAllPages()\l+ DeletePage()\l+ InsertPage()\l+ RemovePage()\l+ GetPageCount()\l}">
<polygon fill="none" stroke="#ff0000" points="820.6551,-645.5 820.6551,-823.5 924.6551,-823.5 924.6551,-645.5 820.6551,-645.5"/>
<text text-anchor="middle" x="872.6551" y="-811.5" font-family="FreeSans" font-size="10.00" fill="#000000">wxBookCtrlBase</text>
<polyline fill="none" stroke="#ff0000" points="820.6551,-804.5 924.6551,-804.5 "/>
<text text-anchor="middle" x="872.6551" y="-792.5" font-family="FreeSans" font-size="10.00" fill="#000000"> </text>
<polyline fill="none" stroke="#ff0000" points="820.6551,-785.5 924.6551,-785.5 "/>
<text text-anchor="start" x="828.6551" y="-773.5" font-family="FreeSans" font-size="10.00" fill="#000000">+ SetPageImage()</text>
<text text-anchor="start" x="828.6551" y="-762.5" font-family="FreeSans" font-size="10.00" fill="#000000">+ GetPageText()</text>
<text text-anchor="start" x="828.6551" y="-751.5" font-family="FreeSans" font-size="10.00" fill="#000000">+ SetPageText()</text>
<text text-anchor="start" x="828.6551" y="-740.5" font-family="FreeSans" font-size="10.00" fill="#000000">+ GetSelection()</text>
<text text-anchor="start" x="828.6551" y="-729.5" font-family="FreeSans" font-size="10.00" fill="#000000">+ SetSelection()</text>
<text text-anchor="start" x="828.6551" y="-718.5" font-family="FreeSans" font-size="10.00" fill="#000000">+ ChangeSelection()</text>
<text text-anchor="start" x="828.6551" y="-707.5" font-family="FreeSans" font-size="10.00" fill="#000000">+ AddPage()</text>
<text text-anchor="start" x="828.6551" y="-696.5" font-family="FreeSans" font-size="10.00" fill="#000000">+ DeleteAllPages()</text>
<text text-anchor="start" x="828.6551" y="-685.5" font-family="FreeSans" font-size="10.00" fill="#000000">+ DeletePage()</text>
<text text-anchor="start" x="828.6551" y="-674.5" font-family="FreeSans" font-size="10.00" fill="#000000">+ InsertPage()</text>
<text text-anchor="start" x="828.6551" y="-663.5" font-family="FreeSans" font-size="10.00" fill="#000000">+ RemovePage()</text>
<text text-anchor="start" x="828.6551" y="-652.5" font-family="FreeSans" font-size="10.00" fill="#000000">+ GetPageCount()</text>
</a>
</g>
</g>
<!-- Node26&#45;&gt;Node25 -->
<g id="edge15" class="edge">
<title>Node26&#45;&gt;Node25</title>
<path fill="none" stroke="#191970" d="M881.2882,-635.3986C884.2727,-601.1394 887.5595,-563.4099 890.3247,-531.6673"/>
<polygon fill="none" stroke="#191970" points="877.7952,-635.1675 880.414,-645.4335 884.7688,-635.775 877.7952,-635.1675"/>
</g>
<!-- Node28&#45;&gt;Node12 -->
<g id="edge16" class="edge">
<title>Node28&#45;&gt;Node12</title>
<path fill="none" stroke="#404040" d="M364.3139,-424.8411C388.3937,-399.3556 422.7184,-364.071 454.6551,-335 463.6135,-326.8454 473.22,-318.5093 482.8505,-310.3953"/>
<polygon fill="none" stroke="#404040" points="482.8594,-310.3879 484.9015,-303.472 492.0709,-302.697 490.0287,-309.613 482.8594,-310.3879"/>
<text text-anchor="middle" x="505.1551" y="-338" font-family="FreeSans" font-size="10.00" fill="#000000"> &#45;m_mapPanelToConfig</text>
</g>
<!-- Node29&#45;&gt;Node28 -->
<g id="edge17" class="edge">
<title>Node29&#45;&gt;Node28</title>
<path fill="none" stroke="#404040" d="M245.2313,-700.3806C248.5185,-666.9194 255.6847,-614.8339 270.6551,-572 278.9157,-548.3642 291.7994,-523.8029 303.6868,-503.6402"/>
<polygon fill="none" stroke="#404040" points="303.77,-503.5023 303.4431,-496.2986 309.967,-493.2263 310.2938,-500.43 303.77,-503.5023"/>
<text text-anchor="middle" x="294.6551" y="-597" font-family="FreeSans" font-size="10.00" fill="#000000"> +elements</text>
</g>
<!-- Node32&#45;&gt;Node6 -->
<g id="edge22" class="edge">
<title>Node32&#45;&gt;Node6</title>
<path fill="none" stroke="#404040" d="M148.088,-878.2573C146.31,-875.7953 144.4992,-873.3744 142.6551,-871 121.4453,-843.6906 99.1884,-853.192 80.6551,-824 58.8598,-789.67 61.6551,-775.1642 61.6551,-734.5 61.6551,-734.5 61.6551,-734.5 61.6551,-249.5 61.6551,-161.7328 337.9768,-103.7346 478.961,-79.8548"/>
<polygon fill="none" stroke="#404040" points="479.0973,-79.8321 484.3558,-74.8977 490.9332,-77.8539 485.6746,-82.7883 479.0973,-79.8321"/>
<text text-anchor="middle" x="84.1551" y="-456.5" font-family="FreeSans" font-size="10.00" fill="#000000"> &#45;m_plugin</text>
</g>
<!-- Node32&#45;&gt;Node29 -->
<g id="edge18" class="edge">
<title>Node32&#45;&gt;Node29</title>
<path fill="none" stroke="#404040" d="M236.1473,-871.1641C237.7575,-837.3497 239.2841,-805.2913 240.4535,-780.7335"/>
<polygon fill="none" stroke="#404040" points="240.4601,-780.5919 236.7501,-774.4084 241.031,-768.6055 244.741,-774.789 240.4601,-780.5919"/>
<text text-anchor="middle" x="254.6551" y="-845" font-family="FreeSans" font-size="10.00" fill="#000000"> +plugin</text>
</g>
</g>
</svg>
