<?xml version="1.0" encoding="UTF-8" standalone="no"?>
<!DOCTYPE svg PUBLIC "-//W3C//DTD SVG 1.1//EN"
 "http://www.w3.org/Graphics/SVG/1.1/DTD/svg11.dtd">
<!-- Generated by graphviz version 2.38.0 (20140413.2041)
 -->
<!-- Title: ExamineMemoryDlg Pages: 1 -->
<svg width="222pt" height="590pt"
 viewBox="0.00 0.00 222.00 590.00" xmlns="http://www.w3.org/2000/svg" xmlns:xlink="http://www.w3.org/1999/xlink">
<g id="graph0" class="graph" transform="scale(1 1) rotate(0) translate(4 586)">
<title>ExamineMemoryDlg</title>
<!-- Node0 -->
<g id="node1" class="node"><title>Node0</title>
<polygon fill="#bfbfbf" stroke="black" points="22,-0.5 22,-200.5 162,-200.5 162,-0.5 22,-0.5"/>
<text text-anchor="middle" x="92" y="-188.5" font-family="FreeSans" font-size="10.00">ExamineMemoryDlg</text>
<polyline fill="none" stroke="black" points="22,-181.5 162,-181.5 "/>
<text text-anchor="start" x="30" y="-169.5" font-family="FreeSans" font-size="10.00">&#45; m_pText</text>
<text text-anchor="start" x="30" y="-158.5" font-family="FreeSans" font-size="10.00">&#45; m_ByteCounter</text>
<text text-anchor="start" x="30" y="-147.5" font-family="FreeSans" font-size="10.00">&#45; m_LineText</text>
<text text-anchor="start" x="30" y="-136.5" font-family="FreeSans" font-size="10.00">&#45; m_LastRowStartingAddress</text>
<polyline fill="none" stroke="black" points="22,-129.5 162,-129.5 "/>
<text text-anchor="start" x="30" y="-117.5" font-family="FreeSans" font-size="10.00">+ ExamineMemoryDlg()</text>
<text text-anchor="start" x="30" y="-106.5" font-family="FreeSans" font-size="10.00">+ GetWindow()</text>
<text text-anchor="start" x="30" y="-95.5" font-family="FreeSans" font-size="10.00">+ Begin()</text>
<text text-anchor="start" x="30" y="-84.5" font-family="FreeSans" font-size="10.00">+ End()</text>
<text text-anchor="start" x="30" y="-73.5" font-family="FreeSans" font-size="10.00">+ Clear()</text>
<text text-anchor="start" x="30" y="-62.5" font-family="FreeSans" font-size="10.00">+ GetBaseAddress()</text>
<text text-anchor="start" x="30" y="-51.5" font-family="FreeSans" font-size="10.00">+ GetBytes()</text>
<text text-anchor="start" x="30" y="-40.5" font-family="FreeSans" font-size="10.00">+ AddError()</text>
<text text-anchor="start" x="30" y="-29.5" font-family="FreeSans" font-size="10.00">+ AddHexByte()</text>
<text text-anchor="start" x="30" y="-18.5" font-family="FreeSans" font-size="10.00">+ EnableWindow()</text>
<text text-anchor="start" x="30" y="-7.5" font-family="FreeSans" font-size="10.00"># OnGo()</text>
</g>
<!-- Node1 -->
<g id="node2" class="node"><title>Node1</title>
<g id="a_node2"><a doxygen="/media/alpha/Barracuda/cb_docs/src/wxTagFile.xml:http://docs.wxwidgets.org/3.0/" xlink:href="http://docs.wxwidgets.org/3.0/classwx_panel.html" target="_top" xlink:title="{wxPanel\n||}">
<polygon fill="none" stroke="black" points="10.5,-287 10.5,-344 63.5,-344 63.5,-287 10.5,-287"/>
<text text-anchor="middle" x="37" y="-332" font-family="FreeSans" font-size="10.00">wxPanel</text>
<polyline fill="none" stroke="black" points="10.5,-325 63.5,-325 "/>
<text text-anchor="middle" x="37" y="-313" font-family="FreeSans" font-size="10.00"> </text>
<polyline fill="none" stroke="black" points="10.5,-306 63.5,-306 "/>
<text text-anchor="middle" x="37" y="-294" font-family="FreeSans" font-size="10.00"> </text>
</a>
</g>
</g>
<!-- Node1&#45;&gt;Node0 -->
<g id="edge1" class="edge"><title>Node1&#45;&gt;Node0</title>
<path fill="none" stroke="midnightblue" d="M46.7465,-276.755C52.2398,-255.48 59.384,-227.813 66.3669,-200.77"/>
<polygon fill="none" stroke="midnightblue" points="43.3017,-276.096 44.1903,-286.654 50.0794,-277.847 43.3017,-276.096"/>
</g>
<!-- Node2 -->
<g id="node3" class="node"><title>Node2</title>
<g id="a_node3"><a doxygen="/media/alpha/Barracuda/cb_docs/src/wxTagFile.xml:http://docs.wxwidgets.org/3.0/" xlink:href="http://docs.wxwidgets.org/3.0/classwx_window.html" target="_top" xlink:title="{wxWindow\n||}">
<polygon fill="none" stroke="black" points="6,-430.5 6,-487.5 68,-487.5 68,-430.5 6,-430.5"/>
<text text-anchor="middle" x="37" y="-475.5" font-family="FreeSans" font-size="10.00">wxWindow</text>
<polyline fill="none" stroke="black" points="6,-468.5 68,-468.5 "/>
<text text-anchor="middle" x="37" y="-456.5" font-family="FreeSans" font-size="10.00"> </text>
<polyline fill="none" stroke="black" points="6,-449.5 68,-449.5 "/>
<text text-anchor="middle" x="37" y="-437.5" font-family="FreeSans" font-size="10.00"> </text>
</a>
</g>
</g>
<!-- Node2&#45;&gt;Node1 -->
<g id="edge2" class="edge"><title>Node2&#45;&gt;Node1</title>
<path fill="none" stroke="midnightblue" d="M37,-420.213C37,-396.234 37,-365.749 37,-344.049"/>
<polygon fill="none" stroke="midnightblue" points="33.5001,-420.381 37,-430.381 40.5001,-420.382 33.5001,-420.381"/>
</g>
<!-- Node3 -->
<g id="node4" class="node"><title>Node3</title>
<g id="a_node4"><a doxygen="/media/alpha/Barracuda/cb_docs/src/wxTagFile.xml:http://docs.wxwidgets.org/3.0/" xlink:href="http://docs.wxwidgets.org/3.0/classwx_evt_handler.html" target="_top" xlink:title="{wxEvtHandler\n||}">
<polygon fill="none" stroke="red" points="0,-524.5 0,-581.5 74,-581.5 74,-524.5 0,-524.5"/>
<text text-anchor="middle" x="37" y="-569.5" font-family="FreeSans" font-size="10.00">wxEvtHandler</text>
<polyline fill="none" stroke="red" points="0,-562.5 74,-562.5 "/>
<text text-anchor="middle" x="37" y="-550.5" font-family="FreeSans" font-size="10.00"> </text>
<polyline fill="none" stroke="red" points="0,-543.5 74,-543.5 "/>
<text text-anchor="middle" x="37" y="-531.5" font-family="FreeSans" font-size="10.00"> </text>
</a>
</g>
</g>
<!-- Node3&#45;&gt;Node2 -->
<g id="edge3" class="edge"><title>Node3&#45;&gt;Node2</title>
<path fill="none" stroke="midnightblue" d="M37,-514.209C37,-505.293 37,-495.951 37,-487.584"/>
<polygon fill="none" stroke="midnightblue" points="33.5001,-514.397 37,-524.397 40.5001,-514.397 33.5001,-514.397"/>
</g>
<!-- Node6 -->
<g id="node5" class="node"><title>Node6</title>
<g id="a_node5"><a xlink:href="classcbExamineMemoryDlg" target="_top" xlink:title="{cbExamineMemoryDlg\n||+ ~cbExamineMemoryDlg()\l+ GetWindow()\l+ Begin()\l+ End()\l+ Clear()\l+ GetBaseAddress()\l+ GetBytes()\l+ AddError()\l+ AddHexByte()\l+ EnableWindow()\l}">
<polygon fill="none" stroke="black" points="82,-237.5 82,-393.5 214,-393.5 214,-237.5 82,-237.5"/>
<text text-anchor="middle" x="148" y="-381.5" font-family="FreeSans" font-size="10.00">cbExamineMemoryDlg</text>
<polyline fill="none" stroke="black" points="82,-374.5 214,-374.5 "/>
<text text-anchor="middle" x="148" y="-362.5" font-family="FreeSans" font-size="10.00"> </text>
<polyline fill="none" stroke="black" points="82,-355.5 214,-355.5 "/>
<text text-anchor="start" x="90" y="-343.5" font-family="FreeSans" font-size="10.00">+ ~cbExamineMemoryDlg()</text>
<text text-anchor="start" x="90" y="-332.5" font-family="FreeSans" font-size="10.00">+ GetWindow()</text>
<text text-anchor="start" x="90" y="-321.5" font-family="FreeSans" font-size="10.00">+ Begin()</text>
<text text-anchor="start" x="90" y="-310.5" font-family="FreeSans" font-size="10.00">+ End()</text>
<text text-anchor="start" x="90" y="-299.5" font-family="FreeSans" font-size="10.00">+ Clear()</text>
<text text-anchor="start" x="90" y="-288.5" font-family="FreeSans" font-size="10.00">+ GetBaseAddress()</text>
<text text-anchor="start" x="90" y="-277.5" font-family="FreeSans" font-size="10.00">+ GetBytes()</text>
<text text-anchor="start" x="90" y="-266.5" font-family="FreeSans" font-size="10.00">+ AddError()</text>
<text text-anchor="start" x="90" y="-255.5" font-family="FreeSans" font-size="10.00">+ AddHexByte()</text>
<text text-anchor="start" x="90" y="-244.5" font-family="FreeSans" font-size="10.00">+ EnableWindow()</text>
</a>
</g>
</g>
<!-- Node6&#45;&gt;Node0 -->
<g id="edge4" class="edge"><title>Node6&#45;&gt;Node0</title>
<path fill="none" stroke="midnightblue" d="M125.108,-227.429C122.788,-218.605 120.419,-209.596 118.069,-200.656"/>
<polygon fill="none" stroke="midnightblue" points="121.776,-228.52 127.704,-237.301 128.546,-226.74 121.776,-228.52"/>
</g>
</g>
</svg>
