<?xml version="1.0" encoding="UTF-8" standalone="no"?>
<!DOCTYPE svg PUBLIC "-//W3C//DTD SVG 1.1//EN"
 "http://www.w3.org/Graphics/SVG/1.1/DTD/svg11.dtd">
<!-- Generated by graphviz version 2.40.1 (20161225.0304)
 -->
<!-- Title: CompilerFactory Pages: 1 -->
<svg width="1126pt" height="1636pt"
 viewBox="0.00 0.00 1126.38 1636.00" xmlns="http://www.w3.org/2000/svg" xmlns:xlink="http://www.w3.org/1999/xlink">
<g id="graph0" class="graph" transform="scale(1 1) rotate(0) translate(4 1632)">
<title>CompilerFactory</title>
<!-- Node1 -->
<g id="node1" class="node">
<title>Node1</title>
<polygon fill="#bfbfbf" stroke="#000000" points="535.8836,-.5 535.8836,-145.5 658.8836,-145.5 658.8836,-.5 535.8836,-.5"/>
<text text-anchor="middle" x="597.3836" y="-133.5" font-family="FreeSans" font-size="10.00" fill="#000000">CompilerFactory</text>
<polyline fill="none" stroke="#000000" points="535.8836,-126.5 658.8836,-126.5 "/>
<text text-anchor="start" x="543.8836" y="-114.5" font-family="FreeSans" font-size="10.00" fill="#000000">&#45; Compilers</text>
<polyline fill="none" stroke="#000000" points="535.8836,-107.5 658.8836,-107.5 "/>
<text text-anchor="start" x="543.8836" y="-95.5" font-family="FreeSans" font-size="10.00" fill="#000000">+ GetCompilersCount()</text>
<text text-anchor="start" x="543.8836" y="-84.5" font-family="FreeSans" font-size="10.00" fill="#000000">+ GetCompiler()</text>
<text text-anchor="start" x="543.8836" y="-73.5" font-family="FreeSans" font-size="10.00" fill="#000000">+ GetCompiler()</text>
<text text-anchor="start" x="543.8836" y="-62.5" font-family="FreeSans" font-size="10.00" fill="#000000">+ GetCompilerByName()</text>
<text text-anchor="start" x="543.8836" y="-51.5" font-family="FreeSans" font-size="10.00" fill="#000000">+ GetCompilerIndex()</text>
<text text-anchor="start" x="543.8836" y="-40.5" font-family="FreeSans" font-size="10.00" fill="#000000">+ GetCompilerIndex()</text>
<text text-anchor="start" x="543.8836" y="-29.5" font-family="FreeSans" font-size="10.00" fill="#000000">+ IsValidCompilerID()</text>
<text text-anchor="start" x="543.8836" y="-18.5" font-family="FreeSans" font-size="10.00" fill="#000000">+ CompilerInheritsFrom()</text>
<text text-anchor="start" x="543.8836" y="-7.5" font-family="FreeSans" font-size="10.00" fill="#000000">and 15 more...</text>
</g>
<!-- Node2 -->
<g id="node2" class="node">
<title>Node2</title>
<g id="a_node2"><a xlink:href="classCompiler" target="_top" xlink:title="Abstract base class for compilers. ">
<polygon fill="none" stroke="#000000" points="519.8836,-193.5 519.8836,-492.5 674.8836,-492.5 674.8836,-193.5 519.8836,-193.5"/>
<text text-anchor="middle" x="597.3836" y="-480.5" font-family="FreeSans" font-size="10.00" fill="#000000">Compiler</text>
<polyline fill="none" stroke="#000000" points="519.8836,-473.5 674.8836,-473.5 "/>
<text text-anchor="start" x="527.8836" y="-461.5" font-family="FreeSans" font-size="10.00" fill="#000000"># m_ErrorFilename</text>
<text text-anchor="start" x="527.8836" y="-450.5" font-family="FreeSans" font-size="10.00" fill="#000000"># m_Weight</text>
<text text-anchor="start" x="527.8836" y="-439.5" font-family="FreeSans" font-size="10.00" fill="#000000"># m_MultiLineMessages</text>
<text text-anchor="start" x="527.8836" y="-428.5" font-family="FreeSans" font-size="10.00" fill="#000000">&#45; m_Valid</text>
<text text-anchor="start" x="527.8836" y="-417.5" font-family="FreeSans" font-size="10.00" fill="#000000">&#45; m_NeedValidityCheck</text>
<text text-anchor="start" x="527.8836" y="-406.5" font-family="FreeSans" font-size="10.00" fill="#000000">&#45; m_Mirrored</text>
<polyline fill="none" stroke="#000000" points="519.8836,-399.5 674.8836,-399.5 "/>
<text text-anchor="start" x="527.8836" y="-387.5" font-family="FreeSans" font-size="10.00" fill="#000000">+ Compiler()</text>
<text text-anchor="start" x="527.8836" y="-376.5" font-family="FreeSans" font-size="10.00" fill="#000000">+ ~Compiler()</text>
<text text-anchor="start" x="527.8836" y="-365.5" font-family="FreeSans" font-size="10.00" fill="#000000">+ IsValid()</text>
<text text-anchor="start" x="527.8836" y="-354.5" font-family="FreeSans" font-size="10.00" fill="#000000">+ CheckForWarningsAndErrors()</text>
<text text-anchor="start" x="527.8836" y="-343.5" font-family="FreeSans" font-size="10.00" fill="#000000">+ GetLastErrorFilename()</text>
<text text-anchor="start" x="527.8836" y="-332.5" font-family="FreeSans" font-size="10.00" fill="#000000">+ GetLastErrorLine()</text>
<text text-anchor="start" x="527.8836" y="-321.5" font-family="FreeSans" font-size="10.00" fill="#000000">+ GetLastError()</text>
<text text-anchor="start" x="527.8836" y="-310.5" font-family="FreeSans" font-size="10.00" fill="#000000">+ GetName()</text>
<text text-anchor="start" x="527.8836" y="-299.5" font-family="FreeSans" font-size="10.00" fill="#000000">and 33 more...</text>
<text text-anchor="start" x="527.8836" y="-288.5" font-family="FreeSans" font-size="10.00" fill="#000000"># Compiler()</text>
<text text-anchor="start" x="527.8836" y="-277.5" font-family="FreeSans" font-size="10.00" fill="#000000"># CreateCopy()</text>
<text text-anchor="start" x="527.8836" y="-266.5" font-family="FreeSans" font-size="10.00" fill="#000000"># IsUniqueID()</text>
<text text-anchor="start" x="527.8836" y="-255.5" font-family="FreeSans" font-size="10.00" fill="#000000"># MakeValidID()</text>
<text text-anchor="start" x="527.8836" y="-244.5" font-family="FreeSans" font-size="10.00" fill="#000000"># LoadDefaultOptions()</text>
<text text-anchor="start" x="527.8836" y="-233.5" font-family="FreeSans" font-size="10.00" fill="#000000"># LoadRegExArray()</text>
<text text-anchor="start" x="527.8836" y="-222.5" font-family="FreeSans" font-size="10.00" fill="#000000"># EvalXMLCondition()</text>
<text text-anchor="start" x="527.8836" y="-211.5" font-family="FreeSans" font-size="10.00" fill="#000000"># GetExecName()</text>
<text text-anchor="start" x="527.8836" y="-200.5" font-family="FreeSans" font-size="10.00" fill="#000000"># MirrorCurrentSettings()</text>
</a>
</g>
</g>
<!-- Node2&#45;&gt;Node1 -->
<g id="edge1" class="edge">
<title>Node2&#45;&gt;Node1</title>
<path fill="none" stroke="#404040" d="M597.3836,-193.3917C597.3836,-181.2399 597.3836,-169.2479 597.3836,-157.8156"/>
<polygon fill="none" stroke="#404040" points="597.3837,-157.6491 593.3836,-151.6492 597.3836,-145.6491 601.3836,-151.6491 597.3837,-157.6491"/>
<text text-anchor="middle" x="639.8836" y="-167" font-family="FreeSans" font-size="10.00" fill="#000000"> &#45;s_DefaultCompiler</text>
</g>
<!-- Node3 -->
<g id="node3" class="node">
<title>Node3</title>
<g id="a_node3"><a xlink:href="classCompileOptionsBase" target="_top" xlink:title="This is a base class for all classes needing compilation parameters. ">
<polygon fill="none" stroke="#000000" points="112.8836,-540.5 112.8836,-718.5 249.8836,-718.5 249.8836,-540.5 112.8836,-540.5"/>
<text text-anchor="middle" x="181.3836" y="-706.5" font-family="FreeSans" font-size="10.00" fill="#000000">CompileOptionsBase</text>
<polyline fill="none" stroke="#000000" points="112.8836,-699.5 249.8836,-699.5 "/>
<text text-anchor="start" x="120.8836" y="-687.5" font-family="FreeSans" font-size="10.00" fill="#000000"># m_Platform</text>
<text text-anchor="start" x="120.8836" y="-676.5" font-family="FreeSans" font-size="10.00" fill="#000000"># m_Modified</text>
<text text-anchor="start" x="120.8836" y="-665.5" font-family="FreeSans" font-size="10.00" fill="#000000"># m_AlwaysRunPostCmds</text>
<text text-anchor="start" x="120.8836" y="-654.5" font-family="FreeSans" font-size="10.00" fill="#000000"># m_Vars</text>
<polyline fill="none" stroke="#000000" points="112.8836,-647.5 249.8836,-647.5 "/>
<text text-anchor="start" x="120.8836" y="-635.5" font-family="FreeSans" font-size="10.00" fill="#000000">+ CompileOptionsBase()</text>
<text text-anchor="start" x="120.8836" y="-624.5" font-family="FreeSans" font-size="10.00" fill="#000000">+ ~CompileOptionsBase()</text>
<text text-anchor="start" x="120.8836" y="-613.5" font-family="FreeSans" font-size="10.00" fill="#000000">+ AddPlatform()</text>
<text text-anchor="start" x="120.8836" y="-602.5" font-family="FreeSans" font-size="10.00" fill="#000000">+ RemovePlatform()</text>
<text text-anchor="start" x="120.8836" y="-591.5" font-family="FreeSans" font-size="10.00" fill="#000000">+ SetPlatforms()</text>
<text text-anchor="start" x="120.8836" y="-580.5" font-family="FreeSans" font-size="10.00" fill="#000000">+ GetPlatforms()</text>
<text text-anchor="start" x="120.8836" y="-569.5" font-family="FreeSans" font-size="10.00" fill="#000000">+ SupportsCurrentPlatform()</text>
<text text-anchor="start" x="120.8836" y="-558.5" font-family="FreeSans" font-size="10.00" fill="#000000">+ SetLinkerOptions()</text>
<text text-anchor="start" x="120.8836" y="-547.5" font-family="FreeSans" font-size="10.00" fill="#000000">and 56 more...</text>
</a>
</g>
</g>
<!-- Node3&#45;&gt;Node2 -->
<g id="edge2" class="edge">
<title>Node3&#45;&gt;Node2</title>
<path fill="none" stroke="#191970" d="M243.0345,-532.4524C249.7653,-524.7581 256.9061,-517.473 264.3836,-511 340.7575,-444.8861 447.7062,-396.9637 519.6062,-369.6126"/>
<polygon fill="none" stroke="#191970" points="240.2144,-530.3673 236.443,-540.2682 245.5655,-534.8802 240.2144,-530.3673"/>
</g>
<!-- Node4 -->
<g id="node4" class="node">
<title>Node4</title>
<g id="a_node4"><a doxygen="/media/alpha/Barracuda/cb_docs/src/wxTagFile.xml:http://docs.wxwidgets.org/3.0/" xlink:href="http://docs.wxwidgets.org/3.0/classwx_array_string.html" target="_top" xlink:title="{wxArrayString\n||+ wxArrayString()\l+ wxArrayString()\l+ wxArrayString()\l+ ~wxArrayString()\l+ Add()\l+ Alloc()\l+ Clear()\l+ Empty()\land 19 more...\l}">
<polygon fill="none" stroke="#000000" points="84.8836,-893 84.8836,-1038 179.8836,-1038 179.8836,-893 84.8836,-893"/>
<text text-anchor="middle" x="132.3836" y="-1026" font-family="FreeSans" font-size="10.00" fill="#000000">wxArrayString</text>
<polyline fill="none" stroke="#000000" points="84.8836,-1019 179.8836,-1019 "/>
<text text-anchor="middle" x="132.3836" y="-1007" font-family="FreeSans" font-size="10.00" fill="#000000"> </text>
<polyline fill="none" stroke="#000000" points="84.8836,-1000 179.8836,-1000 "/>
<text text-anchor="start" x="92.8836" y="-988" font-family="FreeSans" font-size="10.00" fill="#000000">+ wxArrayString()</text>
<text text-anchor="start" x="92.8836" y="-977" font-family="FreeSans" font-size="10.00" fill="#000000">+ wxArrayString()</text>
<text text-anchor="start" x="92.8836" y="-966" font-family="FreeSans" font-size="10.00" fill="#000000">+ wxArrayString()</text>
<text text-anchor="start" x="92.8836" y="-955" font-family="FreeSans" font-size="10.00" fill="#000000">+ ~wxArrayString()</text>
<text text-anchor="start" x="92.8836" y="-944" font-family="FreeSans" font-size="10.00" fill="#000000">+ Add()</text>
<text text-anchor="start" x="92.8836" y="-933" font-family="FreeSans" font-size="10.00" fill="#000000">+ Alloc()</text>
<text text-anchor="start" x="92.8836" y="-922" font-family="FreeSans" font-size="10.00" fill="#000000">+ Clear()</text>
<text text-anchor="start" x="92.8836" y="-911" font-family="FreeSans" font-size="10.00" fill="#000000">+ Empty()</text>
<text text-anchor="start" x="92.8836" y="-900" font-family="FreeSans" font-size="10.00" fill="#000000">and 19 more...</text>
</a>
</g>
</g>
<!-- Node4&#45;&gt;Node2 -->
<g id="edge4" class="edge">
<title>Node4&#45;&gt;Node2</title>
<path fill="none" stroke="#404040" d="M84.6674,-895.2313C29.9673,-805.0532 -42.9037,-647.4535 33.3836,-540 89.4114,-461.0827 363.4956,-392.5307 507.9256,-361.1729"/>
<polygon fill="none" stroke="#404040" points="508.0604,-361.144 513.0836,-355.9702 519.7913,-358.6171 514.7682,-363.7908 508.0604,-361.144"/>
<text text-anchor="middle" x="68.3836" y="-632.5" font-family="FreeSans" font-size="10.00" fill="#000000"> #m_ExtraPaths</text>
<text text-anchor="middle" x="68.3836" y="-621.5" font-family="FreeSans" font-size="10.00" fill="#000000">&#45;m_CompilerIDs</text>
</g>
<!-- Node4&#45;&gt;Node3 -->
<g id="edge3" class="edge">
<title>Node4&#45;&gt;Node3</title>
<path fill="none" stroke="#404040" d="M125.114,-892.892C122.4359,-847.5664 122.3359,-788.2879 133.3836,-737 133.8553,-734.8099 134.3747,-732.6103 134.9367,-730.406"/>
<polygon fill="none" stroke="#404040" points="135.0141,-730.1357 132.8224,-723.2657 138.3209,-718.6002 140.5126,-725.4702 135.0141,-730.1357"/>
<text text-anchor="middle" x="198.8836" y="-855.5" font-family="FreeSans" font-size="10.00" fill="#000000"> #m_LibDirs</text>
<text text-anchor="middle" x="198.8836" y="-844.5" font-family="FreeSans" font-size="10.00" fill="#000000">#m_CompilerOptions</text>
<text text-anchor="middle" x="198.8836" y="-833.5" font-family="FreeSans" font-size="10.00" fill="#000000">#m_IncludeDirs</text>
<text text-anchor="middle" x="198.8836" y="-822.5" font-family="FreeSans" font-size="10.00" fill="#000000">#m_LinkLibs</text>
<text text-anchor="middle" x="198.8836" y="-811.5" font-family="FreeSans" font-size="10.00" fill="#000000">#m_CmdsAfter</text>
<text text-anchor="middle" x="198.8836" y="-800.5" font-family="FreeSans" font-size="10.00" fill="#000000">#m_ResourceCompilerOptions</text>
<text text-anchor="middle" x="198.8836" y="-789.5" font-family="FreeSans" font-size="10.00" fill="#000000">#m_ResIncludeDirs</text>
<text text-anchor="middle" x="198.8836" y="-778.5" font-family="FreeSans" font-size="10.00" fill="#000000">#m_Scripts</text>
<text text-anchor="middle" x="198.8836" y="-767.5" font-family="FreeSans" font-size="10.00" fill="#000000">#m_CmdsBefore</text>
<text text-anchor="middle" x="198.8836" y="-756.5" font-family="FreeSans" font-size="10.00" fill="#000000">#m_LinkerOptions</text>
<text text-anchor="middle" x="198.8836" y="-745.5" font-family="FreeSans" font-size="10.00" fill="#000000">...</text>
</g>
<!-- Node9 -->
<g id="node8" class="node">
<title>Node9</title>
<g id="a_node8"><a xlink:href="classCompiler#structCompiler_1_1MirrorSettings" target="_top" xlink:title="{Compiler::MirrorSettings\n||}">
<polygon fill="none" stroke="#000000" points="674.8836,-601 674.8836,-658 793.8836,-658 793.8836,-601 674.8836,-601"/>
<text text-anchor="middle" x="734.3836" y="-646" font-family="FreeSans" font-size="10.00" fill="#000000">Compiler::MirrorSettings</text>
<polyline fill="none" stroke="#000000" points="674.8836,-639 793.8836,-639 "/>
<text text-anchor="middle" x="734.3836" y="-627" font-family="FreeSans" font-size="10.00" fill="#000000"> </text>
<polyline fill="none" stroke="#000000" points="674.8836,-620 793.8836,-620 "/>
<text text-anchor="middle" x="734.3836" y="-608" font-family="FreeSans" font-size="10.00" fill="#000000"> </text>
</a>
</g>
</g>
<!-- Node4&#45;&gt;Node9 -->
<g id="edge9" class="edge">
<title>Node4&#45;&gt;Node9</title>
<path fill="none" stroke="#404040" d="M179.9569,-920.5726C193.936,-908.7259 209.7004,-896.5884 225.3836,-887 243.0597,-876.1931 251.4092,-880.8787 268.3836,-869 333.835,-823.1968 318.3,-771.4351 390.3836,-737 444.6434,-711.0795 606.8593,-746.4072 660.3836,-719 682.1876,-707.8352 699.9636,-687.108 712.6236,-668.4101"/>
<polygon fill="none" stroke="#404040" points="712.6319,-668.3972 712.5137,-661.1871 719.1238,-658.3048 719.242,-665.515 712.6319,-668.3972"/>
<text text-anchor="middle" x="449.3836" y="-861" font-family="FreeSans" font-size="10.00" fill="#000000"> +CmdsBefore</text>
<text text-anchor="middle" x="449.3836" y="-850" font-family="FreeSans" font-size="10.00" fill="#000000">+LinkLibs</text>
<text text-anchor="start" x="390.3836" y="-839" font-family="FreeSans" font-size="10.00" fill="#000000">+CompilerOptions</text>
<text text-anchor="middle" x="449.3836" y="-828" font-family="FreeSans" font-size="10.00" fill="#000000">_</text>
<text text-anchor="middle" x="449.3836" y="-817" font-family="FreeSans" font-size="10.00" fill="#000000">+LinkerOptions</text>
<text text-anchor="middle" x="449.3836" y="-806" font-family="FreeSans" font-size="10.00" fill="#000000">+CmdsAfter</text>
<text text-anchor="middle" x="449.3836" y="-795" font-family="FreeSans" font-size="10.00" fill="#000000">+ResIncludeDirs</text>
<text text-anchor="middle" x="449.3836" y="-784" font-family="FreeSans" font-size="10.00" fill="#000000">+ResourceCompilerOptions</text>
<text text-anchor="middle" x="449.3836" y="-773" font-family="FreeSans" font-size="10.00" fill="#000000">+IncludeDirs</text>
<text text-anchor="middle" x="449.3836" y="-762" font-family="FreeSans" font-size="10.00" fill="#000000">+LibDirs</text>
<text text-anchor="middle" x="449.3836" y="-751" font-family="FreeSans" font-size="10.00" fill="#000000">+ExtraPaths</text>
<text text-anchor="middle" x="449.3836" y="-740" font-family="FreeSans" font-size="10.00" fill="#000000">...</text>
</g>
<!-- Node5 -->
<g id="node5" class="node">
<title>Node5</title>
<polygon fill="none" stroke="#bfbfbf" points="541.8836,-937 541.8836,-994 672.8836,-994 672.8836,-937 541.8836,-937"/>
<text text-anchor="middle" x="607.3836" y="-982" font-family="FreeSans" font-size="10.00" fill="#000000">std::vector&lt; RegExStruct &gt;</text>
<polyline fill="none" stroke="#bfbfbf" points="541.8836,-975 672.8836,-975 "/>
<text text-anchor="middle" x="607.3836" y="-963" font-family="FreeSans" font-size="10.00" fill="#000000"> </text>
<polyline fill="none" stroke="#bfbfbf" points="541.8836,-956 672.8836,-956 "/>
<text text-anchor="middle" x="607.3836" y="-944" font-family="FreeSans" font-size="10.00" fill="#000000"> </text>
</g>
<!-- Node5&#45;&gt;Node2 -->
<g id="edge5" class="edge">
<title>Node5&#45;&gt;Node2</title>
<path fill="none" stroke="#404040" d="M606.9213,-936.724C605.7099,-861.311 602.3719,-653.524 599.9869,-505.058"/>
<polygon fill="none" stroke="#404040" points="599.9809,-504.6801 595.885,-498.7451 599.7881,-492.6816 603.884,-498.6166 599.9809,-504.6801"/>
<text text-anchor="middle" x="632.8836" y="-627" font-family="FreeSans" font-size="10.00" fill="#000000"> #m_RegExes</text>
</g>
<!-- Node5&#45;&gt;Node9 -->
<g id="edge10" class="edge">
<title>Node5&#45;&gt;Node9</title>
<path fill="none" stroke="#404040" d="M609.3308,-936.6176C613.3143,-883.1875 623.5553,-771.2394 641.3836,-737 646.7558,-726.6826 652.4406,-727.4981 660.3836,-719 675.5468,-702.7771 691.3602,-683.9468 704.4575,-667.7556"/>
<polygon fill="none" stroke="#404040" points="704.7236,-667.4237 705.357,-660.2404 712.2313,-658.0622 711.5979,-665.2455 704.7236,-667.4237"/>
<text text-anchor="middle" x="664.3836" y="-800.5" font-family="FreeSans" font-size="10.00" fill="#000000"> +RegExes</text>
</g>
<!-- Node6 -->
<g id="node6" class="node">
<title>Node6</title>
<g id="a_node6"><a xlink:href="structRegExStruct" target="_top" xlink:title="{RegExStruct\n|+ lt\l+ msg\l+ filename\l+ line\l&#45; regexCompiled\l|+ RegExStruct()\l+ RegExStruct()\l+ RegExStruct()\l+ operator=()\l+ operator!=()\l+ operator==()\l+ GetRegExString()\l+ SetRegExString()\l+ HasRegEx()\l+ GetRegEx()\l&#45; CompileRegEx()\l}">
<polygon fill="none" stroke="#ff0000" points="557.3836,-1113.5 557.3836,-1324.5 657.3836,-1324.5 657.3836,-1113.5 557.3836,-1113.5"/>
<text text-anchor="middle" x="607.3836" y="-1312.5" font-family="FreeSans" font-size="10.00" fill="#000000">RegExStruct</text>
<polyline fill="none" stroke="#ff0000" points="557.3836,-1305.5 657.3836,-1305.5 "/>
<text text-anchor="start" x="565.3836" y="-1293.5" font-family="FreeSans" font-size="10.00" fill="#000000">+ lt</text>
<text text-anchor="start" x="565.3836" y="-1282.5" font-family="FreeSans" font-size="10.00" fill="#000000">+ msg</text>
<text text-anchor="start" x="565.3836" y="-1271.5" font-family="FreeSans" font-size="10.00" fill="#000000">+ filename</text>
<text text-anchor="start" x="565.3836" y="-1260.5" font-family="FreeSans" font-size="10.00" fill="#000000">+ line</text>
<text text-anchor="start" x="565.3836" y="-1249.5" font-family="FreeSans" font-size="10.00" fill="#000000">&#45; regexCompiled</text>
<polyline fill="none" stroke="#ff0000" points="557.3836,-1242.5 657.3836,-1242.5 "/>
<text text-anchor="start" x="565.3836" y="-1230.5" font-family="FreeSans" font-size="10.00" fill="#000000">+ RegExStruct()</text>
<text text-anchor="start" x="565.3836" y="-1219.5" font-family="FreeSans" font-size="10.00" fill="#000000">+ RegExStruct()</text>
<text text-anchor="start" x="565.3836" y="-1208.5" font-family="FreeSans" font-size="10.00" fill="#000000">+ RegExStruct()</text>
<text text-anchor="start" x="565.3836" y="-1197.5" font-family="FreeSans" font-size="10.00" fill="#000000">+ operator=()</text>
<text text-anchor="start" x="565.3836" y="-1186.5" font-family="FreeSans" font-size="10.00" fill="#000000">+ operator!=()</text>
<text text-anchor="start" x="565.3836" y="-1175.5" font-family="FreeSans" font-size="10.00" fill="#000000">+ operator==()</text>
<text text-anchor="start" x="565.3836" y="-1164.5" font-family="FreeSans" font-size="10.00" fill="#000000">+ GetRegExString()</text>
<text text-anchor="start" x="565.3836" y="-1153.5" font-family="FreeSans" font-size="10.00" fill="#000000">+ SetRegExString()</text>
<text text-anchor="start" x="565.3836" y="-1142.5" font-family="FreeSans" font-size="10.00" fill="#000000">+ HasRegEx()</text>
<text text-anchor="start" x="565.3836" y="-1131.5" font-family="FreeSans" font-size="10.00" fill="#000000">+ GetRegEx()</text>
<text text-anchor="start" x="565.3836" y="-1120.5" font-family="FreeSans" font-size="10.00" fill="#000000">&#45; CompileRegEx()</text>
</a>
</g>
</g>
<!-- Node6&#45;&gt;Node5 -->
<g id="edge6" class="edge">
<title>Node6&#45;&gt;Node5</title>
<path fill="none" stroke="#404040" d="M607.3836,-1113.3288C607.3836,-1075.5777 607.3836,-1035.2599 607.3836,-1006.2813"/>
<polygon fill="none" stroke="#404040" points="607.3837,-1006.2064 603.3836,-1000.2064 607.3836,-994.2064 611.3836,-1000.2064 607.3837,-1006.2064"/>
<text text-anchor="middle" x="631.3836" y="-1076" font-family="FreeSans" font-size="10.00" fill="#000000"> +elements</text>
</g>
<!-- Node8 -->
<g id="node7" class="node">
<title>Node8</title>
<g id="a_node7"><a doxygen="/media/alpha/Barracuda/cb_docs/src/wxTagFile.xml:http://docs.wxwidgets.org/3.0/" xlink:href="http://docs.wxwidgets.org/3.0/classwx_string.html" target="_top" xlink:title="{wxString\n|+ npos\l|+ wxString()\l+ wxString()\l+ wxString()\l+ wxString()\l+ wxString()\l+ wxString()\l+ wxString()\l+ wxString()\land 222 more...\l+ Format()\l+ FormatV()\l+ FromCDouble()\l+ FromDouble()\l+ From8BitData()\l+ From8BitData()\l+ FromAscii()\l+ FromAscii()\land 7 more...\l}">
<polygon fill="none" stroke="#000000" points="561.8836,-1383.5 561.8836,-1627.5 652.8836,-1627.5 652.8836,-1383.5 561.8836,-1383.5"/>
<text text-anchor="middle" x="607.3836" y="-1615.5" font-family="FreeSans" font-size="10.00" fill="#000000">wxString</text>
<polyline fill="none" stroke="#000000" points="561.8836,-1608.5 652.8836,-1608.5 "/>
<text text-anchor="start" x="569.8836" y="-1596.5" font-family="FreeSans" font-size="10.00" fill="#000000">+ npos</text>
<polyline fill="none" stroke="#000000" points="561.8836,-1589.5 652.8836,-1589.5 "/>
<text text-anchor="start" x="569.8836" y="-1577.5" font-family="FreeSans" font-size="10.00" fill="#000000">+ wxString()</text>
<text text-anchor="start" x="569.8836" y="-1566.5" font-family="FreeSans" font-size="10.00" fill="#000000">+ wxString()</text>
<text text-anchor="start" x="569.8836" y="-1555.5" font-family="FreeSans" font-size="10.00" fill="#000000">+ wxString()</text>
<text text-anchor="start" x="569.8836" y="-1544.5" font-family="FreeSans" font-size="10.00" fill="#000000">+ wxString()</text>
<text text-anchor="start" x="569.8836" y="-1533.5" font-family="FreeSans" font-size="10.00" fill="#000000">+ wxString()</text>
<text text-anchor="start" x="569.8836" y="-1522.5" font-family="FreeSans" font-size="10.00" fill="#000000">+ wxString()</text>
<text text-anchor="start" x="569.8836" y="-1511.5" font-family="FreeSans" font-size="10.00" fill="#000000">+ wxString()</text>
<text text-anchor="start" x="569.8836" y="-1500.5" font-family="FreeSans" font-size="10.00" fill="#000000">+ wxString()</text>
<text text-anchor="start" x="569.8836" y="-1489.5" font-family="FreeSans" font-size="10.00" fill="#000000">and 222 more...</text>
<text text-anchor="start" x="569.8836" y="-1478.5" font-family="FreeSans" font-size="10.00" fill="#000000">+ Format()</text>
<text text-anchor="start" x="569.8836" y="-1467.5" font-family="FreeSans" font-size="10.00" fill="#000000">+ FormatV()</text>
<text text-anchor="start" x="569.8836" y="-1456.5" font-family="FreeSans" font-size="10.00" fill="#000000">+ FromCDouble()</text>
<text text-anchor="start" x="569.8836" y="-1445.5" font-family="FreeSans" font-size="10.00" fill="#000000">+ FromDouble()</text>
<text text-anchor="start" x="569.8836" y="-1434.5" font-family="FreeSans" font-size="10.00" fill="#000000">+ From8BitData()</text>
<text text-anchor="start" x="569.8836" y="-1423.5" font-family="FreeSans" font-size="10.00" fill="#000000">+ From8BitData()</text>
<text text-anchor="start" x="569.8836" y="-1412.5" font-family="FreeSans" font-size="10.00" fill="#000000">+ FromAscii()</text>
<text text-anchor="start" x="569.8836" y="-1401.5" font-family="FreeSans" font-size="10.00" fill="#000000">+ FromAscii()</text>
<text text-anchor="start" x="569.8836" y="-1390.5" font-family="FreeSans" font-size="10.00" fill="#000000">and 7 more...</text>
</a>
</g>
</g>
<!-- Node8&#45;&gt;Node2 -->
<g id="edge20" class="edge">
<title>Node8&#45;&gt;Node2</title>
<path fill="none" stroke="#404040" d="M561.6622,-1466.9724C479.7929,-1394.4229 311.5676,-1228.1747 256.3836,-1044 236.3559,-977.1582 241.8983,-955.2577 256.3836,-887 258.2009,-878.4362 261.1919,-877.152 264.3836,-869 320.6962,-725.168 291.0332,-668.7404 376.3836,-540 411.7149,-486.7071 464.8953,-438.6891 510.2343,-403.4041"/>
<polygon fill="none" stroke="#404040" points="510.2645,-403.3809 512.5859,-396.5536 519.7809,-396.0706 517.4595,-402.8978 510.2645,-403.3809"/>
<text text-anchor="middle" x="318.3836" y="-1018" font-family="FreeSans" font-size="10.00" fill="#000000"> #m_ErrorLine</text>
<text text-anchor="middle" x="318.3836" y="-1007" font-family="FreeSans" font-size="10.00" fill="#000000">#m_VersionString</text>
<text text-anchor="middle" x="318.3836" y="-996" font-family="FreeSans" font-size="10.00" fill="#000000">#m_Name</text>
<text text-anchor="middle" x="318.3836" y="-985" font-family="FreeSans" font-size="10.00" fill="#000000">+FilePathWithSpaces</text>
<text text-anchor="middle" x="318.3836" y="-974" font-family="FreeSans" font-size="10.00" fill="#000000">#m_SortOptions</text>
<text text-anchor="middle" x="318.3836" y="-963" font-family="FreeSans" font-size="10.00" fill="#000000">#m_Error</text>
<text text-anchor="middle" x="318.3836" y="-952" font-family="FreeSans" font-size="10.00" fill="#000000">#m_MasterPath</text>
<text text-anchor="middle" x="318.3836" y="-941" font-family="FreeSans" font-size="10.00" fill="#000000">&#45;m_ID</text>
<text text-anchor="middle" x="318.3836" y="-930" font-family="FreeSans" font-size="10.00" fill="#000000">+CommandTypeDescriptions</text>
<text text-anchor="middle" x="318.3836" y="-919" font-family="FreeSans" font-size="10.00" fill="#000000">&#45;m_ParentID</text>
<text text-anchor="middle" x="318.3836" y="-908" font-family="FreeSans" font-size="10.00" fill="#000000">...</text>
</g>
<!-- Node8&#45;&gt;Node6 -->
<g id="edge7" class="edge">
<title>Node8&#45;&gt;Node6</title>
<path fill="none" stroke="#404040" d="M607.3836,-1383.1672C607.3836,-1367.8061 607.3836,-1352.1171 607.3836,-1336.8274"/>
<polygon fill="none" stroke="#404040" points="607.3837,-1336.6647 603.3836,-1330.6647 607.3836,-1324.6647 611.3836,-1330.6647 607.3837,-1336.6647"/>
<text text-anchor="middle" x="621.8836" y="-1357" font-family="FreeSans" font-size="10.00" fill="#000000"> &#45;regex</text>
<text text-anchor="middle" x="621.8836" y="-1346" font-family="FreeSans" font-size="10.00" fill="#000000">+desc</text>
</g>
<!-- Node8&#45;&gt;Node9 -->
<g id="edge14" class="edge">
<title>Node8&#45;&gt;Node9</title>
<path fill="none" stroke="#404040" d="M651.4058,-1383.1783C657.1675,-1363.8999 662.4316,-1344.0457 666.3836,-1325 719.7104,-1068.0002 693.403,-997.9784 721.3836,-737 723.7456,-714.9689 726.6883,-690.4373 729.1763,-670.3776"/>
<polygon fill="none" stroke="#404040" points="729.2074,-670.1284 725.9826,-663.6785 730.696,-658.2211 733.9208,-664.6709 729.2074,-670.1284"/>
<text text-anchor="middle" x="731.3836" y="-1087" font-family="FreeSans" font-size="10.00" fill="#000000"> +Name</text>
<text text-anchor="middle" x="731.3836" y="-1076" font-family="FreeSans" font-size="10.00" fill="#000000">+MasterPath</text>
<text text-anchor="middle" x="731.3836" y="-1065" font-family="FreeSans" font-size="10.00" fill="#000000">+SortOptions</text>
</g>
<!-- Node11 -->
<g id="node10" class="node">
<title>Node11</title>
<g id="a_node10"><a xlink:href="structCompilerSwitches" target="_top" xlink:title="Struct to keep switches. ">
<polygon fill="none" stroke="#000000" points="389.3836,-887.5 389.3836,-1043.5 523.3836,-1043.5 523.3836,-887.5 389.3836,-887.5"/>
<text text-anchor="middle" x="456.3836" y="-1031.5" font-family="FreeSans" font-size="10.00" fill="#000000">CompilerSwitches</text>
<polyline fill="none" stroke="#000000" points="389.3836,-1024.5 523.3836,-1024.5 "/>
<text text-anchor="start" x="397.3836" y="-1012.5" font-family="FreeSans" font-size="10.00" fill="#000000">+ forceFwdSlashes</text>
<text text-anchor="start" x="397.3836" y="-1001.5" font-family="FreeSans" font-size="10.00" fill="#000000">+ forceLinkerUseQuotes</text>
<text text-anchor="start" x="397.3836" y="-990.5" font-family="FreeSans" font-size="10.00" fill="#000000">+ forceCompilerUseQuotes</text>
<text text-anchor="start" x="397.3836" y="-979.5" font-family="FreeSans" font-size="10.00" fill="#000000">+ needDependencies</text>
<text text-anchor="start" x="397.3836" y="-968.5" font-family="FreeSans" font-size="10.00" fill="#000000">+ logging</text>
<text text-anchor="start" x="397.3836" y="-957.5" font-family="FreeSans" font-size="10.00" fill="#000000">+ linkerNeedsLibPrefix</text>
<text text-anchor="start" x="397.3836" y="-946.5" font-family="FreeSans" font-size="10.00" fill="#000000">+ linkerNeedsLibExtension</text>
<text text-anchor="start" x="397.3836" y="-935.5" font-family="FreeSans" font-size="10.00" fill="#000000">+ linkerNeedsPathResolved</text>
<text text-anchor="start" x="397.3836" y="-924.5" font-family="FreeSans" font-size="10.00" fill="#000000">and 8 more...</text>
<text text-anchor="start" x="397.3836" y="-913.5" font-family="FreeSans" font-size="10.00" fill="#000000">+ defaultLogging</text>
<polyline fill="none" stroke="#000000" points="389.3836,-906.5 523.3836,-906.5 "/>
<text text-anchor="start" x="397.3836" y="-894.5" font-family="FreeSans" font-size="10.00" fill="#000000">+ CompilerSwitches()</text>
</a>
</g>
</g>
<!-- Node8&#45;&gt;Node11 -->
<g id="edge13" class="edge">
<title>Node8&#45;&gt;Node11</title>
<path fill="none" stroke="#404040" d="M561.8109,-1459.8853C531.0195,-1425.8509 492.7521,-1376.5127 474.3836,-1325 443.1687,-1237.4612 442.147,-1130.3038 446.7723,-1055.8659"/>
<polygon fill="none" stroke="#404040" points="446.7821,-1055.7198 443.1967,-1049.4632 447.593,-1043.7472 451.1784,-1050.0038 446.7821,-1055.7198"/>
<text text-anchor="middle" x="511.3836" y="-1260.5" font-family="FreeSans" font-size="10.00" fill="#000000"> +PCHExtension</text>
<text text-anchor="middle" x="511.3836" y="-1249.5" font-family="FreeSans" font-size="10.00" fill="#000000">+linkLibs</text>
<text text-anchor="middle" x="511.3836" y="-1238.5" font-family="FreeSans" font-size="10.00" fill="#000000">+libExtension</text>
<text text-anchor="middle" x="511.3836" y="-1227.5" font-family="FreeSans" font-size="10.00" fill="#000000">+objectExtension</text>
<text text-anchor="middle" x="511.3836" y="-1216.5" font-family="FreeSans" font-size="10.00" fill="#000000">+defines</text>
<text text-anchor="middle" x="511.3836" y="-1205.5" font-family="FreeSans" font-size="10.00" fill="#000000">+libPrefix</text>
<text text-anchor="middle" x="511.3836" y="-1194.5" font-family="FreeSans" font-size="10.00" fill="#000000">+libDirs</text>
<text text-anchor="middle" x="511.3836" y="-1183.5" font-family="FreeSans" font-size="10.00" fill="#000000">+includeDirs</text>
<text text-anchor="middle" x="511.3836" y="-1172.5" font-family="FreeSans" font-size="10.00" fill="#000000">+genericSwitch</text>
</g>
<!-- Node14 -->
<g id="node12" class="node">
<title>Node14</title>
<g id="a_node12"><a xlink:href="compiler_8h#structCompilerPrograms" target="_top" xlink:title="Struct to keep programs. ">
<polygon fill="none" stroke="#000000" points="729.3836,-937 729.3836,-994 825.3836,-994 825.3836,-937 729.3836,-937"/>
<text text-anchor="middle" x="777.3836" y="-982" font-family="FreeSans" font-size="10.00" fill="#000000">CompilerPrograms</text>
<polyline fill="none" stroke="#000000" points="729.3836,-975 825.3836,-975 "/>
<text text-anchor="middle" x="777.3836" y="-963" font-family="FreeSans" font-size="10.00" fill="#000000"> </text>
<polyline fill="none" stroke="#000000" points="729.3836,-956 825.3836,-956 "/>
<text text-anchor="middle" x="777.3836" y="-944" font-family="FreeSans" font-size="10.00" fill="#000000"> </text>
</a>
</g>
</g>
<!-- Node8&#45;&gt;Node14 -->
<g id="edge17" class="edge">
<title>Node8&#45;&gt;Node14</title>
<path fill="none" stroke="#404040" d="M653.0961,-1458.2678C675.3253,-1432.6396 700.413,-1399.252 715.3836,-1365 768.9931,-1242.3438 777.1362,-1080.7172 777.803,-1006.2601"/>
<polygon fill="none" stroke="#404040" points="777.803,-1006.2374 773.8271,-1000.2214 777.8511,-994.2375 781.827,-1000.2534 777.803,-1006.2374"/>
<text text-anchor="middle" x="799.8836" y="-1249.5" font-family="FreeSans" font-size="10.00" fill="#000000"> +LD</text>
<text text-anchor="middle" x="799.8836" y="-1238.5" font-family="FreeSans" font-size="10.00" fill="#000000">+DBGconfig</text>
<text text-anchor="middle" x="799.8836" y="-1227.5" font-family="FreeSans" font-size="10.00" fill="#000000">+WINDRES</text>
<text text-anchor="middle" x="799.8836" y="-1216.5" font-family="FreeSans" font-size="10.00" fill="#000000">+CPP</text>
<text text-anchor="middle" x="799.8836" y="-1205.5" font-family="FreeSans" font-size="10.00" fill="#000000">+C</text>
<text text-anchor="middle" x="799.8836" y="-1194.5" font-family="FreeSans" font-size="10.00" fill="#000000">+MAKE</text>
<text text-anchor="middle" x="799.8836" y="-1183.5" font-family="FreeSans" font-size="10.00" fill="#000000">+LIB</text>
</g>
<!-- Node9&#45;&gt;Node2 -->
<g id="edge8" class="edge">
<title>Node9&#45;&gt;Node2</title>
<path fill="none" stroke="#404040" d="M720.7466,-600.9819C709.3814,-577.2145 692.2013,-541.2867 674.2431,-503.7317"/>
<polygon fill="none" stroke="#404040" points="674.0839,-503.3988 667.8868,-499.7114 668.9071,-492.5728 675.1041,-496.2602 674.0839,-503.3988"/>
<text text-anchor="middle" x="704.3836" y="-514" font-family="FreeSans" font-size="10.00" fill="#000000"> &#45;m_Mirror</text>
</g>
<!-- Node10 -->
<g id="node9" class="node">
<title>Node10</title>
<g id="a_node9"><a xlink:href="classCompilerOptions" target="_top" xlink:title="{CompilerOptions\n|&#45; m_Options\l|+ CompilerOptions()\l+ CompilerOptions()\l+ operator=()\l+ ~CompilerOptions()\l+ ClearOptions()\l+ AddOption()\l+ AddOption()\l+ RemoveOption()\land 5 more...\l}">
<polygon fill="none" stroke="#000000" points="843.8836,-893 843.8836,-1038 950.8836,-1038 950.8836,-893 843.8836,-893"/>
<text text-anchor="middle" x="897.3836" y="-1026" font-family="FreeSans" font-size="10.00" fill="#000000">CompilerOptions</text>
<polyline fill="none" stroke="#000000" points="843.8836,-1019 950.8836,-1019 "/>
<text text-anchor="start" x="851.8836" y="-1007" font-family="FreeSans" font-size="10.00" fill="#000000">&#45; m_Options</text>
<polyline fill="none" stroke="#000000" points="843.8836,-1000 950.8836,-1000 "/>
<text text-anchor="start" x="851.8836" y="-988" font-family="FreeSans" font-size="10.00" fill="#000000">+ CompilerOptions()</text>
<text text-anchor="start" x="851.8836" y="-977" font-family="FreeSans" font-size="10.00" fill="#000000">+ CompilerOptions()</text>
<text text-anchor="start" x="851.8836" y="-966" font-family="FreeSans" font-size="10.00" fill="#000000">+ operator=()</text>
<text text-anchor="start" x="851.8836" y="-955" font-family="FreeSans" font-size="10.00" fill="#000000">+ ~CompilerOptions()</text>
<text text-anchor="start" x="851.8836" y="-944" font-family="FreeSans" font-size="10.00" fill="#000000">+ ClearOptions()</text>
<text text-anchor="start" x="851.8836" y="-933" font-family="FreeSans" font-size="10.00" fill="#000000">+ AddOption()</text>
<text text-anchor="start" x="851.8836" y="-922" font-family="FreeSans" font-size="10.00" fill="#000000">+ AddOption()</text>
<text text-anchor="start" x="851.8836" y="-911" font-family="FreeSans" font-size="10.00" fill="#000000">+ RemoveOption()</text>
<text text-anchor="start" x="851.8836" y="-900" font-family="FreeSans" font-size="10.00" fill="#000000">and 5 more...</text>
</a>
</g>
</g>
<!-- Node10&#45;&gt;Node2 -->
<g id="edge18" class="edge">
<title>Node10&#45;&gt;Node2</title>
<path fill="none" stroke="#404040" d="M907.9077,-892.8589C921.7246,-787.5557 940.6705,-598.6713 908.3836,-540 861.4881,-454.7823 760.4394,-401.2638 686.197,-371.872"/>
<polygon fill="none" stroke="#404040" points="686.1781,-371.8647 679.139,-373.4306 674.9863,-367.5353 682.0253,-365.9694 686.1781,-371.8647"/>
<text text-anchor="middle" x="952.8836" y="-627" font-family="FreeSans" font-size="10.00" fill="#000000"> #m_Options</text>
</g>
<!-- Node10&#45;&gt;Node9 -->
<g id="edge11" class="edge">
<title>Node10&#45;&gt;Node9</title>
<path fill="none" stroke="#404040" d="M862.015,-892.593C828.7976,-824.1203 780.3355,-724.223 753.703,-669.324"/>
<polygon fill="none" stroke="#404040" points="753.6023,-669.1163 747.3845,-665.4639 748.3646,-658.3197 754.5823,-661.9721 753.6023,-669.1163"/>
<text text-anchor="middle" x="869.3836" y="-800.5" font-family="FreeSans" font-size="10.00" fill="#000000"> +Options</text>
</g>
<!-- Node11&#45;&gt;Node2 -->
<g id="edge19" class="edge">
<title>Node11&#45;&gt;Node2</title>
<path fill="none" stroke="#404040" d="M389.3471,-897.8046C383.2891,-888.6881 378.0616,-879.0084 374.3836,-869 354.1473,-813.934 359.4423,-793.7321 374.3836,-737 401.3479,-634.6166 461.6771,-530.8924 512.7937,-455.5848"/>
<polygon fill="none" stroke="#404040" points="512.8399,-455.5174 512.9291,-448.3068 519.6193,-445.6159 519.5301,-452.8264 512.8399,-455.5174"/>
<text text-anchor="middle" x="488.8836" y="-627" font-family="FreeSans" font-size="10.00" fill="#000000"> #m_Switches</text>
</g>
<!-- Node11&#45;&gt;Node9 -->
<g id="edge12" class="edge">
<title>Node11&#45;&gt;Node9</title>
<path fill="none" stroke="#404040" d="M503.071,-887.2963C506.3308,-881.1628 509.4736,-875.0158 512.3836,-869 539.8411,-812.2375 515.7704,-777.1579 564.3836,-737 597.8514,-709.3532 622.9869,-741.0438 660.3836,-719 681.097,-706.7903 698.5709,-686.5334 711.3285,-668.3766"/>
<polygon fill="none" stroke="#404040" points="711.4127,-668.2511 711.4366,-661.04 718.1022,-658.2886 718.0783,-665.4997 711.4127,-668.2511"/>
<text text-anchor="middle" x="588.3836" y="-800.5" font-family="FreeSans" font-size="10.00" fill="#000000"> +Switches</text>
</g>
<!-- Node12 -->
<g id="node11" class="node">
<title>Node12</title>
<polygon fill="none" stroke="#bfbfbf" points="969.3836,-937 969.3836,-994 1103.3836,-994 1103.3836,-937 969.3836,-937"/>
<text text-anchor="middle" x="1036.3836" y="-982" font-family="FreeSans" font-size="10.00" fill="#000000">std::vector&lt; CompilerTool &gt;</text>
<polyline fill="none" stroke="#bfbfbf" points="969.3836,-975 1103.3836,-975 "/>
<text text-anchor="middle" x="1036.3836" y="-963" font-family="FreeSans" font-size="10.00" fill="#000000"> </text>
<polyline fill="none" stroke="#bfbfbf" points="969.3836,-956 1103.3836,-956 "/>
<text text-anchor="middle" x="1036.3836" y="-944" font-family="FreeSans" font-size="10.00" fill="#000000"> </text>
</g>
<!-- Node12&#45;&gt;Node2 -->
<g id="edge21" class="edge">
<title>Node12&#45;&gt;Node2</title>
<path fill="none" stroke="#404040" d="M1041.8036,-936.8939C1054.1242,-862.879 1076.4701,-662.3366 984.3836,-540 911.1597,-442.7223 776.3054,-389.7791 686.722,-363.9476"/>
<polygon fill="none" stroke="#404040" points="686.4902,-363.8824 679.6308,-366.1069 674.9392,-360.6306 681.7986,-358.4062 686.4902,-363.8824"/>
<text text-anchor="middle" x="1083.3836" y="-627" font-family="FreeSans" font-size="10.00" fill="#000000"> #m_Commands</text>
</g>
<!-- Node12&#45;&gt;Node9 -->
<g id="edge15" class="edge">
<title>Node12&#45;&gt;Node9</title>
<path fill="none" stroke="#404040" d="M1013.1196,-936.7654C998.3888,-917.9976 979.364,-892.6672 964.3836,-869 928.8682,-812.89 947.4105,-776.9728 894.3836,-737 863.5478,-713.7554 842.4846,-738.8867 809.3836,-719 788.6595,-706.5492 770.9678,-686.2758 757.9807,-668.1702"/>
<polygon fill="none" stroke="#404040" points="757.8701,-668.0091 751.1758,-665.3283 751.0757,-658.1179 757.77,-660.7987 757.8701,-668.0091"/>
<text text-anchor="middle" x="993.3836" y="-800.5" font-family="FreeSans" font-size="10.00" fill="#000000"> +Commands</text>
</g>
<!-- Node14&#45;&gt;Node2 -->
<g id="edge22" class="edge">
<title>Node14&#45;&gt;Node2</title>
<path fill="none" stroke="#404040" d="M797.9288,-936.8581C808.8477,-921.8514 822.6186,-903.2609 835.3836,-887 841.8138,-878.8087 846.8385,-878.7917 850.3836,-869 870.3552,-813.8374 858.3071,-795.1291 850.3836,-737 849.2622,-728.7732 847.4647,-727.0379 845.3836,-719 824.8757,-639.793 843.0751,-610.9826 802.3836,-540 772.8856,-488.5435 725.9136,-441.9895 684.3706,-407.0726"/>
<polygon fill="none" stroke="#404040" points="684.2906,-407.0063 677.1181,-406.2604 675.048,-399.3528 682.2204,-400.0987 684.2906,-407.0063"/>
<text text-anchor="middle" x="876.8836" y="-627" font-family="FreeSans" font-size="10.00" fill="#000000"> #m_Programs</text>
</g>
<!-- Node14&#45;&gt;Node9 -->
<g id="edge16" class="edge">
<title>Node14&#45;&gt;Node9</title>
<path fill="none" stroke="#404040" d="M761.2931,-936.9645C751.695,-918.276 740.4238,-892.9594 735.3836,-869 720.9651,-800.4594 725.0883,-718.4239 729.5951,-670.328"/>
<polygon fill="none" stroke="#404040" points="729.6056,-670.2216 726.2224,-663.8534 730.7995,-658.2811 734.1827,-664.6493 729.6056,-670.2216"/>
<text text-anchor="middle" x="760.3836" y="-800.5" font-family="FreeSans" font-size="10.00" fill="#000000"> +Programs</text>
</g>
</g>
</svg>
