<?xml version="1.0" encoding="UTF-8" standalone="no"?>
<!DOCTYPE svg PUBLIC "-//W3C//DTD SVG 1.1//EN"
 "http://www.w3.org/Graphics/SVG/1.1/DTD/svg11.dtd">
<!-- Generated by graphviz version 2.40.1 (20161225.0304)
 -->
<!-- Title: BreakpointsDlg Pages: 1 -->
<svg width="628pt" height="1610pt"
 viewBox="0.00 0.00 628.00 1610.00" xmlns="http://www.w3.org/2000/svg" xmlns:xlink="http://www.w3.org/1999/xlink">
<g id="graph0" class="graph" transform="scale(1 1) rotate(0) translate(4 1606)">
<title>BreakpointsDlg</title>
<!-- Node7 -->
<g id="node1" class="node">
<title>Node7</title>
<polygon fill="#bfbfbf" stroke="#000000" points="146.5,-.5 146.5,-233.5 274.5,-233.5 274.5,-.5 146.5,-.5"/>
<text text-anchor="middle" x="210.5" y="-221.5" font-family="FreeSans" font-size="10.00" fill="#000000">BreakpointsDlg</text>
<polyline fill="none" stroke="#000000" points="146.5,-214.5 274.5,-214.5 "/>
<text text-anchor="middle" x="210.5" y="-202.5" font-family="FreeSans" font-size="10.00" fill="#000000"> </text>
<polyline fill="none" stroke="#000000" points="146.5,-195.5 274.5,-195.5 "/>
<text text-anchor="start" x="154.5" y="-183.5" font-family="FreeSans" font-size="10.00" fill="#000000">+ BreakpointsDlg()</text>
<text text-anchor="start" x="154.5" y="-172.5" font-family="FreeSans" font-size="10.00" fill="#000000">+ GetWindow()</text>
<text text-anchor="start" x="154.5" y="-161.5" font-family="FreeSans" font-size="10.00" fill="#000000">+ AddBreakpoint()</text>
<text text-anchor="start" x="154.5" y="-150.5" font-family="FreeSans" font-size="10.00" fill="#000000">+ RemoveBreakpoint()</text>
<text text-anchor="start" x="154.5" y="-139.5" font-family="FreeSans" font-size="10.00" fill="#000000">+ RemoveAllBreakpoints()</text>
<text text-anchor="start" x="154.5" y="-128.5" font-family="FreeSans" font-size="10.00" fill="#000000">+ EditBreakpoint()</text>
<text text-anchor="start" x="154.5" y="-117.5" font-family="FreeSans" font-size="10.00" fill="#000000">+ EnableBreakpoint()</text>
<text text-anchor="start" x="154.5" y="-106.5" font-family="FreeSans" font-size="10.00" fill="#000000">+ Reload()</text>
<text text-anchor="start" x="154.5" y="-95.5" font-family="FreeSans" font-size="10.00" fill="#000000">&#45; OnRemove()</text>
<text text-anchor="start" x="154.5" y="-84.5" font-family="FreeSans" font-size="10.00" fill="#000000">&#45; OnRemoveAll()</text>
<text text-anchor="start" x="154.5" y="-73.5" font-family="FreeSans" font-size="10.00" fill="#000000">&#45; OnProperties()</text>
<text text-anchor="start" x="154.5" y="-62.5" font-family="FreeSans" font-size="10.00" fill="#000000">&#45; OnOpen()</text>
<text text-anchor="start" x="154.5" y="-51.5" font-family="FreeSans" font-size="10.00" fill="#000000">&#45; OnEnable()</text>
<text text-anchor="start" x="154.5" y="-40.5" font-family="FreeSans" font-size="10.00" fill="#000000">&#45; OnShowTemp()</text>
<text text-anchor="start" x="154.5" y="-29.5" font-family="FreeSans" font-size="10.00" fill="#000000">&#45; OnRightClick()</text>
<text text-anchor="start" x="154.5" y="-18.5" font-family="FreeSans" font-size="10.00" fill="#000000">&#45; OnDoubleClick()</text>
<text text-anchor="start" x="154.5" y="-7.5" font-family="FreeSans" font-size="10.00" fill="#000000">and 6 more...</text>
</g>
<!-- Node8 -->
<g id="node2" class="node">
<title>Node8</title>
<g id="a_node2"><a doxygen="/media/alpha/Barracuda/cb_docs/src/wxTagFile.xml:http://docs.wxwidgets.org/3.0/" xlink:href="http://docs.wxwidgets.org/3.0/classwx_panel.html" target="_top" xlink:title="{wxPanel\n||}">
<polygon fill="none" stroke="#000000" points="0,-500.5 0,-557.5 53,-557.5 53,-500.5 0,-500.5"/>
<text text-anchor="middle" x="26.5" y="-545.5" font-family="FreeSans" font-size="10.00" fill="#000000">wxPanel</text>
<polyline fill="none" stroke="#000000" points="0,-538.5 53,-538.5 "/>
<text text-anchor="middle" x="26.5" y="-526.5" font-family="FreeSans" font-size="10.00" fill="#000000"> </text>
<polyline fill="none" stroke="#000000" points="0,-519.5 53,-519.5 "/>
<text text-anchor="middle" x="26.5" y="-507.5" font-family="FreeSans" font-size="10.00" fill="#000000"> </text>
</a>
</g>
</g>
<!-- Node8&#45;&gt;Node7 -->
<g id="edge1" class="edge">
<title>Node8&#45;&gt;Node7</title>
<path fill="none" stroke="#191970" d="M19.1848,-490.3865C11.4895,-439.7782 4.3641,-349.4213 35.5,-281 58.8685,-229.6475 106.5264,-186.711 146.2143,-157.668"/>
<polygon fill="none" stroke="#191970" points="15.729,-490.9419 20.771,-500.2601 22.6404,-489.8315 15.729,-490.9419"/>
</g>
<!-- Node9 -->
<g id="node3" class="node">
<title>Node9</title>
<g id="a_node3"><a doxygen="/media/alpha/Barracuda/cb_docs/src/wxTagFile.xml:http://docs.wxwidgets.org/3.0/" xlink:href="http://docs.wxwidgets.org/3.0/classwx_window.html" target="_top" xlink:title="{wxWindow\n||}">
<polygon fill="none" stroke="#000000" points="82.5,-852 82.5,-909 144.5,-909 144.5,-852 82.5,-852"/>
<text text-anchor="middle" x="113.5" y="-897" font-family="FreeSans" font-size="10.00" fill="#000000">wxWindow</text>
<polyline fill="none" stroke="#000000" points="82.5,-890 144.5,-890 "/>
<text text-anchor="middle" x="113.5" y="-878" font-family="FreeSans" font-size="10.00" fill="#000000"> </text>
<polyline fill="none" stroke="#000000" points="82.5,-871 144.5,-871 "/>
<text text-anchor="middle" x="113.5" y="-859" font-family="FreeSans" font-size="10.00" fill="#000000"> </text>
</a>
</g>
</g>
<!-- Node9&#45;&gt;Node8 -->
<g id="edge2" class="edge">
<title>Node9&#45;&gt;Node8</title>
<path fill="none" stroke="#191970" d="M103.9289,-841.8307C86.3188,-770.6816 49.1621,-620.5603 33.5959,-557.6692"/>
<polygon fill="none" stroke="#191970" points="100.5803,-842.8691 106.3804,-851.7353 107.3752,-841.1873 100.5803,-842.8691"/>
</g>
<!-- Node22 -->
<g id="node13" class="node">
<title>Node22</title>
<g id="a_node13"><a doxygen="/media/alpha/Barracuda/cb_docs/src/wxTagFile.xml:http://docs.wxwidgets.org/3.0/" xlink:href="http://docs.wxwidgets.org/3.0/classwx_control.html" target="_top" xlink:title="{wxControl\n||}">
<polygon fill="none" stroke="#000000" points="84,-576.5 84,-633.5 143,-633.5 143,-576.5 84,-576.5"/>
<text text-anchor="middle" x="113.5" y="-621.5" font-family="FreeSans" font-size="10.00" fill="#000000">wxControl</text>
<polyline fill="none" stroke="#000000" points="84,-614.5 143,-614.5 "/>
<text text-anchor="middle" x="113.5" y="-602.5" font-family="FreeSans" font-size="10.00" fill="#000000"> </text>
<polyline fill="none" stroke="#000000" points="84,-595.5 143,-595.5 "/>
<text text-anchor="middle" x="113.5" y="-583.5" font-family="FreeSans" font-size="10.00" fill="#000000"> </text>
</a>
</g>
</g>
<!-- Node9&#45;&gt;Node22 -->
<g id="edge15" class="edge">
<title>Node9&#45;&gt;Node22</title>
<path fill="none" stroke="#191970" d="M113.5,-841.5563C113.5,-785.4863 113.5,-683.3112 113.5,-633.6391"/>
<polygon fill="none" stroke="#191970" points="110.0001,-841.7963 113.5,-851.7963 117.0001,-841.7964 110.0001,-841.7963"/>
</g>
<!-- Node10 -->
<g id="node4" class="node">
<title>Node10</title>
<g id="a_node4"><a doxygen="/media/alpha/Barracuda/cb_docs/src/wxTagFile.xml:http://docs.wxwidgets.org/3.0/" xlink:href="http://docs.wxwidgets.org/3.0/classwx_evt_handler.html" target="_top" xlink:title="{wxEvtHandler\n||}">
<polygon fill="none" stroke="#ff0000" points="94.5,-1356 94.5,-1413 168.5,-1413 168.5,-1356 94.5,-1356"/>
<text text-anchor="middle" x="131.5" y="-1401" font-family="FreeSans" font-size="10.00" fill="#000000">wxEvtHandler</text>
<polyline fill="none" stroke="#ff0000" points="94.5,-1394 168.5,-1394 "/>
<text text-anchor="middle" x="131.5" y="-1382" font-family="FreeSans" font-size="10.00" fill="#000000"> </text>
<polyline fill="none" stroke="#ff0000" points="94.5,-1375 168.5,-1375 "/>
<text text-anchor="middle" x="131.5" y="-1363" font-family="FreeSans" font-size="10.00" fill="#000000"> </text>
</a>
</g>
</g>
<!-- Node10&#45;&gt;Node9 -->
<g id="edge3" class="edge">
<title>Node10&#45;&gt;Node9</title>
<path fill="none" stroke="#191970" d="M130.1235,-1345.9578C126.6469,-1248.6132 117.5724,-994.5284 114.5193,-909.0399"/>
<polygon fill="none" stroke="#191970" points="126.6259,-1346.09 130.4807,-1355.9587 133.6214,-1345.8401 126.6259,-1346.09"/>
</g>
<!-- Node11 -->
<g id="node5" class="node">
<title>Node11</title>
<g id="a_node5"><a doxygen="/media/alpha/Barracuda/cb_docs/src/wxTagFile.xml:http://docs.wxwidgets.org/3.0/" xlink:href="http://docs.wxwidgets.org/3.0/classwx_object.html" target="_top" xlink:title="{wxObject\n||}">
<polygon fill="none" stroke="#000000" points="143.5,-1544.5 143.5,-1601.5 199.5,-1601.5 199.5,-1544.5 143.5,-1544.5"/>
<text text-anchor="middle" x="171.5" y="-1589.5" font-family="FreeSans" font-size="10.00" fill="#000000">wxObject</text>
<polyline fill="none" stroke="#000000" points="143.5,-1582.5 199.5,-1582.5 "/>
<text text-anchor="middle" x="171.5" y="-1570.5" font-family="FreeSans" font-size="10.00" fill="#000000"> </text>
<polyline fill="none" stroke="#000000" points="143.5,-1563.5 199.5,-1563.5 "/>
<text text-anchor="middle" x="171.5" y="-1551.5" font-family="FreeSans" font-size="10.00" fill="#000000"> </text>
</a>
</g>
</g>
<!-- Node11&#45;&gt;Node10 -->
<g id="edge4" class="edge">
<title>Node11&#45;&gt;Node10</title>
<path fill="none" stroke="#191970" d="M163.2732,-1534.2314C155.6304,-1498.2144 144.4257,-1445.4123 137.5666,-1413.0891"/>
<polygon fill="none" stroke="#191970" points="159.9252,-1535.3153 165.4249,-1544.3709 166.7728,-1533.8622 159.9252,-1535.3153"/>
</g>
<!-- Node14 -->
<g id="node7" class="node">
<title>Node14</title>
<g id="a_node7"><a doxygen="/media/alpha/Barracuda/cb_docs/src/wxTagFile.xml:http://docs.wxwidgets.org/3.0/" xlink:href="http://docs.wxwidgets.org/3.0/classwx_image_list.html" target="_top" xlink:title="{wxImageList\n||+ wxImageList()\l+ wxImageList()\l+ Add()\l+ Add()\l+ Add()\l+ Create()\l+ Draw()\l+ GetBitmap()\land 7 more...\l}">
<polygon fill="none" stroke="#000000" points="164.5,-1098.5 164.5,-1243.5 248.5,-1243.5 248.5,-1098.5 164.5,-1098.5"/>
<text text-anchor="middle" x="206.5" y="-1231.5" font-family="FreeSans" font-size="10.00" fill="#000000">wxImageList</text>
<polyline fill="none" stroke="#000000" points="164.5,-1224.5 248.5,-1224.5 "/>
<text text-anchor="middle" x="206.5" y="-1212.5" font-family="FreeSans" font-size="10.00" fill="#000000"> </text>
<polyline fill="none" stroke="#000000" points="164.5,-1205.5 248.5,-1205.5 "/>
<text text-anchor="start" x="172.5" y="-1193.5" font-family="FreeSans" font-size="10.00" fill="#000000">+ wxImageList()</text>
<text text-anchor="start" x="172.5" y="-1182.5" font-family="FreeSans" font-size="10.00" fill="#000000">+ wxImageList()</text>
<text text-anchor="start" x="172.5" y="-1171.5" font-family="FreeSans" font-size="10.00" fill="#000000">+ Add()</text>
<text text-anchor="start" x="172.5" y="-1160.5" font-family="FreeSans" font-size="10.00" fill="#000000">+ Add()</text>
<text text-anchor="start" x="172.5" y="-1149.5" font-family="FreeSans" font-size="10.00" fill="#000000">+ Add()</text>
<text text-anchor="start" x="172.5" y="-1138.5" font-family="FreeSans" font-size="10.00" fill="#000000">+ Create()</text>
<text text-anchor="start" x="172.5" y="-1127.5" font-family="FreeSans" font-size="10.00" fill="#000000">+ Draw()</text>
<text text-anchor="start" x="172.5" y="-1116.5" font-family="FreeSans" font-size="10.00" fill="#000000">+ GetBitmap()</text>
<text text-anchor="start" x="172.5" y="-1105.5" font-family="FreeSans" font-size="10.00" fill="#000000">and 7 more...</text>
</a>
</g>
</g>
<!-- Node11&#45;&gt;Node14 -->
<g id="edge7" class="edge">
<title>Node11&#45;&gt;Node14</title>
<path fill="none" stroke="#191970" d="M175.0542,-1534.2317C175.8658,-1525.2887 176.719,-1515.814 177.5,-1507 185.536,-1416.3098 194.5094,-1311.823 200.3164,-1243.7615"/>
<polygon fill="none" stroke="#191970" points="171.5483,-1534.1382 174.1274,-1544.4144 178.5195,-1534.7728 171.5483,-1534.1382"/>
</g>
<!-- Node13 -->
<g id="node6" class="node">
<title>Node13</title>
<g id="a_node6"><a xlink:href="classcbBreakpointsDlg" target="_top" xlink:title="{cbBreakpointsDlg\n||+ ~cbBreakpointsDlg()\l+ GetWindow()\l+ AddBreakpoint()\l+ RemoveBreakpoint()\l+ RemoveAllBreakpoints()\l+ EditBreakpoint()\l+ EnableBreakpoint()\l+ Reload()\l}">
<polygon fill="none" stroke="#000000" points="238.5,-314.5 238.5,-448.5 366.5,-448.5 366.5,-314.5 238.5,-314.5"/>
<text text-anchor="middle" x="302.5" y="-436.5" font-family="FreeSans" font-size="10.00" fill="#000000">cbBreakpointsDlg</text>
<polyline fill="none" stroke="#000000" points="238.5,-429.5 366.5,-429.5 "/>
<text text-anchor="middle" x="302.5" y="-417.5" font-family="FreeSans" font-size="10.00" fill="#000000"> </text>
<polyline fill="none" stroke="#000000" points="238.5,-410.5 366.5,-410.5 "/>
<text text-anchor="start" x="246.5" y="-398.5" font-family="FreeSans" font-size="10.00" fill="#000000">+ ~cbBreakpointsDlg()</text>
<text text-anchor="start" x="246.5" y="-387.5" font-family="FreeSans" font-size="10.00" fill="#000000">+ GetWindow()</text>
<text text-anchor="start" x="246.5" y="-376.5" font-family="FreeSans" font-size="10.00" fill="#000000">+ AddBreakpoint()</text>
<text text-anchor="start" x="246.5" y="-365.5" font-family="FreeSans" font-size="10.00" fill="#000000">+ RemoveBreakpoint()</text>
<text text-anchor="start" x="246.5" y="-354.5" font-family="FreeSans" font-size="10.00" fill="#000000">+ RemoveAllBreakpoints()</text>
<text text-anchor="start" x="246.5" y="-343.5" font-family="FreeSans" font-size="10.00" fill="#000000">+ EditBreakpoint()</text>
<text text-anchor="start" x="246.5" y="-332.5" font-family="FreeSans" font-size="10.00" fill="#000000">+ EnableBreakpoint()</text>
<text text-anchor="start" x="246.5" y="-321.5" font-family="FreeSans" font-size="10.00" fill="#000000">+ Reload()</text>
</a>
</g>
</g>
<!-- Node13&#45;&gt;Node7 -->
<g id="edge5" class="edge">
<title>Node13&#45;&gt;Node7</title>
<path fill="none" stroke="#191970" d="M275.7958,-304.7253C268.0655,-282.5007 259.4472,-257.7232 251.0723,-233.6455"/>
<polygon fill="none" stroke="#191970" points="272.5746,-306.1184 279.1656,-314.4136 279.1861,-303.8187 272.5746,-306.1184"/>
</g>
<!-- Node14&#45;&gt;Node7 -->
<g id="edge6" class="edge">
<title>Node14&#45;&gt;Node7</title>
<path fill="none" stroke="#404040" d="M207.4227,-1098.295C208.604,-998.7986 210.5,-814.6304 210.5,-657.5 210.5,-657.5 210.5,-657.5 210.5,-381.5 210.5,-337.2176 210.5,-288.7649 210.5,-245.5674"/>
<polygon fill="none" stroke="#404040" points="210.5001,-245.5307 206.5,-239.5307 210.5,-233.5307 214.5,-239.5306 210.5001,-245.5307"/>
<text text-anchor="middle" x="231.5" y="-602.5" font-family="FreeSans" font-size="10.00" fill="#000000"> &#45;m_icons</text>
</g>
<!-- Node15 -->
<g id="node8" class="node">
<title>Node15</title>
<polygon fill="none" stroke="#bfbfbf" points="384.5,-353 384.5,-410 480.5,-410 480.5,-353 384.5,-353"/>
<text text-anchor="middle" x="432.5" y="-398" font-family="FreeSans" font-size="10.00" fill="#000000">std::vector&lt; Item &gt;</text>
<polyline fill="none" stroke="#bfbfbf" points="384.5,-391 480.5,-391 "/>
<text text-anchor="middle" x="432.5" y="-379" font-family="FreeSans" font-size="10.00" fill="#000000"> </text>
<polyline fill="none" stroke="#bfbfbf" points="384.5,-372 480.5,-372 "/>
<text text-anchor="middle" x="432.5" y="-360" font-family="FreeSans" font-size="10.00" fill="#000000"> </text>
</g>
<!-- Node15&#45;&gt;Node7 -->
<g id="edge8" class="edge">
<title>Node15&#45;&gt;Node7</title>
<path fill="none" stroke="#404040" d="M418.9415,-352.9286C408.4342,-332.0833 392.7873,-303.6376 375.5,-281 348.3928,-245.5032 313.916,-210.0715 283.4946,-181.2723"/>
<polygon fill="none" stroke="#404040" points="283.3678,-181.1533 276.2551,-179.9661 274.6152,-172.9439 281.728,-174.1311 283.3678,-181.1533"/>
<text text-anchor="middle" x="395" y="-255" font-family="FreeSans" font-size="10.00" fill="#000000"> &#45;m_breakpoints</text>
</g>
<!-- Node16 -->
<g id="node9" class="node">
<title>Node16</title>
<g id="a_node9"><a xlink:href="structBreakpointsDlg_1_1Item" target="_top" xlink:title="{BreakpointsDlg::Item\n|+ breakpoint\l|+ Item()\l}">
<polygon fill="none" stroke="#000000" points="379.5,-576.5 379.5,-633.5 485.5,-633.5 485.5,-576.5 379.5,-576.5"/>
<text text-anchor="middle" x="432.5" y="-621.5" font-family="FreeSans" font-size="10.00" fill="#000000">BreakpointsDlg::Item</text>
<polyline fill="none" stroke="#000000" points="379.5,-614.5 485.5,-614.5 "/>
<text text-anchor="start" x="387.5" y="-602.5" font-family="FreeSans" font-size="10.00" fill="#000000">+ breakpoint</text>
<polyline fill="none" stroke="#000000" points="379.5,-595.5 485.5,-595.5 "/>
<text text-anchor="start" x="387.5" y="-583.5" font-family="FreeSans" font-size="10.00" fill="#000000">+ Item()</text>
</a>
</g>
</g>
<!-- Node16&#45;&gt;Node15 -->
<g id="edge9" class="edge">
<title>Node16&#45;&gt;Node15</title>
<path fill="none" stroke="#404040" d="M432.5,-576.2388C432.5,-537.0958 432.5,-466.8316 432.5,-422.2668"/>
<polygon fill="none" stroke="#404040" points="432.5001,-422.1508 428.5,-416.1508 432.5,-410.1508 436.5,-416.1507 432.5001,-422.1508"/>
<text text-anchor="middle" x="456.5" y="-526.5" font-family="FreeSans" font-size="10.00" fill="#000000"> +elements</text>
</g>
<!-- Node17 -->
<g id="node10" class="node">
<title>Node17</title>
<g id="a_node10"><a xlink:href="classcbDebuggerPlugin" target="_top" xlink:title="Base class for debugger plugins. ">
<polygon fill="none" stroke="#ff0000" points="463,-681.5 463,-1079.5 620,-1079.5 620,-681.5 463,-681.5"/>
<text text-anchor="middle" x="541.5" y="-1067.5" font-family="FreeSans" font-size="10.00" fill="#000000">cbDebuggerPlugin</text>
<polyline fill="none" stroke="#ff0000" points="463,-1060.5 620,-1060.5 "/>
<text text-anchor="start" x="471" y="-1048.5" font-family="FreeSans" font-size="10.00" fill="#000000">&#45; m_WaitingCompilerToFinish</text>
<text text-anchor="start" x="471" y="-1037.5" font-family="FreeSans" font-size="10.00" fill="#000000">&#45; m_StartType</text>
<text text-anchor="start" x="471" y="-1026.5" font-family="FreeSans" font-size="10.00" fill="#000000">&#45; m_ActiveConfig</text>
<text text-anchor="start" x="471" y="-1015.5" font-family="FreeSans" font-size="10.00" fill="#000000">&#45; m_LogPageIndex</text>
<text text-anchor="start" x="471" y="-1004.5" font-family="FreeSans" font-size="10.00" fill="#000000">&#45; m_lastLineWasNormal</text>
<polyline fill="none" stroke="#ff0000" points="463,-997.5 620,-997.5 "/>
<text text-anchor="start" x="471" y="-985.5" font-family="FreeSans" font-size="10.00" fill="#000000">+ cbDebuggerPlugin()</text>
<text text-anchor="start" x="471" y="-974.5" font-family="FreeSans" font-size="10.00" fill="#000000">+ OnAttach()</text>
<text text-anchor="start" x="471" y="-963.5" font-family="FreeSans" font-size="10.00" fill="#000000">+ OnRelease()</text>
<text text-anchor="start" x="471" y="-952.5" font-family="FreeSans" font-size="10.00" fill="#000000">+ BuildMenu()</text>
<text text-anchor="start" x="471" y="-941.5" font-family="FreeSans" font-size="10.00" fill="#000000">+ BuildModuleMenu()</text>
<text text-anchor="start" x="471" y="-930.5" font-family="FreeSans" font-size="10.00" fill="#000000">+ BuildToolBar()</text>
<text text-anchor="start" x="471" y="-919.5" font-family="FreeSans" font-size="10.00" fill="#000000">+ EditorLinesAddedOrRemoved()</text>
<text text-anchor="start" x="471" y="-908.5" font-family="FreeSans" font-size="10.00" fill="#000000">+ OnAttachReal()</text>
<text text-anchor="start" x="471" y="-897.5" font-family="FreeSans" font-size="10.00" fill="#000000">and 70 more...</text>
<text text-anchor="start" x="471" y="-886.5" font-family="FreeSans" font-size="10.00" fill="#000000"># ConvertDirectory()</text>
<text text-anchor="start" x="471" y="-875.5" font-family="FreeSans" font-size="10.00" fill="#000000"># GetProject()</text>
<text text-anchor="start" x="471" y="-864.5" font-family="FreeSans" font-size="10.00" fill="#000000"># ResetProject()</text>
<text text-anchor="start" x="471" y="-853.5" font-family="FreeSans" font-size="10.00" fill="#000000"># CleanupWhenProjectClosed()</text>
<text text-anchor="start" x="471" y="-842.5" font-family="FreeSans" font-size="10.00" fill="#000000"># CompilerFinished()</text>
<text text-anchor="start" x="471" y="-831.5" font-family="FreeSans" font-size="10.00" fill="#000000"># SwitchToDebuggingLayout()</text>
<text text-anchor="start" x="471" y="-820.5" font-family="FreeSans" font-size="10.00" fill="#000000"># SwitchToPreviousLayout()</text>
<text text-anchor="start" x="471" y="-809.5" font-family="FreeSans" font-size="10.00" fill="#000000"># GetDebuggee()</text>
<text text-anchor="start" x="471" y="-798.5" font-family="FreeSans" font-size="10.00" fill="#000000"># EnsureBuildUpToDate()</text>
<text text-anchor="start" x="471" y="-787.5" font-family="FreeSans" font-size="10.00" fill="#000000"># WaitingCompilerToFinish()</text>
<text text-anchor="start" x="471" y="-776.5" font-family="FreeSans" font-size="10.00" fill="#000000"># RunNixConsole()</text>
<text text-anchor="start" x="471" y="-765.5" font-family="FreeSans" font-size="10.00" fill="#000000"># MarkAsStopped()</text>
<text text-anchor="start" x="471" y="-754.5" font-family="FreeSans" font-size="10.00" fill="#000000">&#45; RegisterValueTooltip()</text>
<text text-anchor="start" x="471" y="-743.5" font-family="FreeSans" font-size="10.00" fill="#000000">&#45; ProcessValueTooltip()</text>
<text text-anchor="start" x="471" y="-732.5" font-family="FreeSans" font-size="10.00" fill="#000000">&#45; CancelValueTooltip()</text>
<text text-anchor="start" x="471" y="-721.5" font-family="FreeSans" font-size="10.00" fill="#000000">&#45; OnEditorOpened()</text>
<text text-anchor="start" x="471" y="-710.5" font-family="FreeSans" font-size="10.00" fill="#000000">&#45; OnProjectActivated()</text>
<text text-anchor="start" x="471" y="-699.5" font-family="FreeSans" font-size="10.00" fill="#000000">&#45; OnProjectClosed()</text>
<text text-anchor="start" x="471" y="-688.5" font-family="FreeSans" font-size="10.00" fill="#000000">&#45; OnCompilerFinished()</text>
</a>
</g>
</g>
<!-- Node17&#45;&gt;Node16 -->
<g id="edge10" class="edge">
<title>Node17&#45;&gt;Node16</title>
<path fill="none" stroke="#404040" d="M462.8626,-681.7421C457.5453,-668.3025 452.6121,-655.8338 448.3343,-645.0215"/>
<polygon fill="none" stroke="#404040" points="448.2122,-644.7128 442.2853,-640.6052 443.7974,-633.5544 449.7243,-637.662 448.2122,-644.7128"/>
<text text-anchor="middle" x="469.5" y="-655" font-family="FreeSans" font-size="10.00" fill="#000000"> +plugin</text>
</g>
<!-- Node20 -->
<g id="node11" class="node">
<title>Node20</title>
<g id="a_node11"><a doxygen="/media/alpha/Barracuda/cb_docs/src/wxTagFile.xml:http://docs.wxwidgets.org/3.0/" xlink:href="http://docs.wxwidgets.org/3.0/classwx_string.html" target="_top" xlink:title="{wxString\n|+ npos\l|+ wxString()\l+ wxString()\l+ wxString()\l+ wxString()\l+ wxString()\l+ wxString()\l+ wxString()\l+ wxString()\land 222 more...\l+ Format()\l+ FormatV()\l+ FromCDouble()\l+ FromDouble()\l+ From8BitData()\l+ From8BitData()\l+ FromAscii()\l+ FromAscii()\land 7 more...\l}">
<polygon fill="none" stroke="#000000" points="355,-1262.5 355,-1506.5 446,-1506.5 446,-1262.5 355,-1262.5"/>
<text text-anchor="middle" x="400.5" y="-1494.5" font-family="FreeSans" font-size="10.00" fill="#000000">wxString</text>
<polyline fill="none" stroke="#000000" points="355,-1487.5 446,-1487.5 "/>
<text text-anchor="start" x="363" y="-1475.5" font-family="FreeSans" font-size="10.00" fill="#000000">+ npos</text>
<polyline fill="none" stroke="#000000" points="355,-1468.5 446,-1468.5 "/>
<text text-anchor="start" x="363" y="-1456.5" font-family="FreeSans" font-size="10.00" fill="#000000">+ wxString()</text>
<text text-anchor="start" x="363" y="-1445.5" font-family="FreeSans" font-size="10.00" fill="#000000">+ wxString()</text>
<text text-anchor="start" x="363" y="-1434.5" font-family="FreeSans" font-size="10.00" fill="#000000">+ wxString()</text>
<text text-anchor="start" x="363" y="-1423.5" font-family="FreeSans" font-size="10.00" fill="#000000">+ wxString()</text>
<text text-anchor="start" x="363" y="-1412.5" font-family="FreeSans" font-size="10.00" fill="#000000">+ wxString()</text>
<text text-anchor="start" x="363" y="-1401.5" font-family="FreeSans" font-size="10.00" fill="#000000">+ wxString()</text>
<text text-anchor="start" x="363" y="-1390.5" font-family="FreeSans" font-size="10.00" fill="#000000">+ wxString()</text>
<text text-anchor="start" x="363" y="-1379.5" font-family="FreeSans" font-size="10.00" fill="#000000">+ wxString()</text>
<text text-anchor="start" x="363" y="-1368.5" font-family="FreeSans" font-size="10.00" fill="#000000">and 222 more...</text>
<text text-anchor="start" x="363" y="-1357.5" font-family="FreeSans" font-size="10.00" fill="#000000">+ Format()</text>
<text text-anchor="start" x="363" y="-1346.5" font-family="FreeSans" font-size="10.00" fill="#000000">+ FormatV()</text>
<text text-anchor="start" x="363" y="-1335.5" font-family="FreeSans" font-size="10.00" fill="#000000">+ FromCDouble()</text>
<text text-anchor="start" x="363" y="-1324.5" font-family="FreeSans" font-size="10.00" fill="#000000">+ FromDouble()</text>
<text text-anchor="start" x="363" y="-1313.5" font-family="FreeSans" font-size="10.00" fill="#000000">+ From8BitData()</text>
<text text-anchor="start" x="363" y="-1302.5" font-family="FreeSans" font-size="10.00" fill="#000000">+ From8BitData()</text>
<text text-anchor="start" x="363" y="-1291.5" font-family="FreeSans" font-size="10.00" fill="#000000">+ FromAscii()</text>
<text text-anchor="start" x="363" y="-1280.5" font-family="FreeSans" font-size="10.00" fill="#000000">+ FromAscii()</text>
<text text-anchor="start" x="363" y="-1269.5" font-family="FreeSans" font-size="10.00" fill="#000000">and 7 more...</text>
</a>
</g>
</g>
<!-- Node20&#45;&gt;Node16 -->
<g id="edge12" class="edge">
<title>Node20&#45;&gt;Node16</title>
<path fill="none" stroke="#404040" d="M382.0702,-1262.426C364.621,-1120.554 347.426,-880.4086 394.5,-681 397.4233,-668.6169 402.6902,-655.951 408.3897,-644.5986"/>
<polygon fill="none" stroke="#404040" points="408.5282,-644.338 407.8137,-637.1624 414.1626,-633.743 414.8771,-640.9187 408.5282,-644.338"/>
<text text-anchor="middle" x="424.5" y="-878" font-family="FreeSans" font-size="10.00" fill="#000000"> +pluginName</text>
</g>
<!-- Node20&#45;&gt;Node17 -->
<g id="edge11" class="edge">
<title>Node20&#45;&gt;Node17</title>
<path fill="none" stroke="#404040" d="M434.6322,-1262.4957C449.0352,-1211.0124 466.227,-1149.5609 482.5666,-1091.1555"/>
<polygon fill="none" stroke="#404040" points="482.589,-1091.0752 480.3535,-1084.2193 485.8221,-1079.5189 488.0577,-1086.3747 482.589,-1091.0752"/>
<text text-anchor="middle" x="519.5" y="-1179.5" font-family="FreeSans" font-size="10.00" fill="#000000"> &#45;m_guiName</text>
<text text-anchor="middle" x="519.5" y="-1168.5" font-family="FreeSans" font-size="10.00" fill="#000000">&#45;m_PreviousLayout</text>
<text text-anchor="middle" x="519.5" y="-1157.5" font-family="FreeSans" font-size="10.00" fill="#000000">&#45;m_settingsName</text>
</g>
<!-- Node21 -->
<g id="node12" class="node">
<title>Node21</title>
<g id="a_node12"><a doxygen="/media/alpha/Barracuda/cb_docs/src/wxTagFile.xml:http://docs.wxwidgets.org/3.0/" xlink:href="http://docs.wxwidgets.org/3.0/classwx_list_ctrl.html" target="_top" xlink:title="{wxListCtrl\n||+ wxListCtrl()\l+ wxListCtrl()\l+ ~wxListCtrl()\l+ AppendColumn()\l+ Arrange()\l+ AssignImageList()\l+ ClearAll()\l+ Create()\land 72 more...\l# OnGetItemAttr()\l# OnGetItemColumnAttr()\l# OnGetItemColumnImage()\l# OnGetItemImage()\l# OnGetItemText()\l}">
<polygon fill="none" stroke="#000000" points="44.5,-281.5 44.5,-481.5 182.5,-481.5 182.5,-281.5 44.5,-281.5"/>
<text text-anchor="middle" x="113.5" y="-469.5" font-family="FreeSans" font-size="10.00" fill="#000000">wxListCtrl</text>
<polyline fill="none" stroke="#000000" points="44.5,-462.5 182.5,-462.5 "/>
<text text-anchor="middle" x="113.5" y="-450.5" font-family="FreeSans" font-size="10.00" fill="#000000"> </text>
<polyline fill="none" stroke="#000000" points="44.5,-443.5 182.5,-443.5 "/>
<text text-anchor="start" x="52.5" y="-431.5" font-family="FreeSans" font-size="10.00" fill="#000000">+ wxListCtrl()</text>
<text text-anchor="start" x="52.5" y="-420.5" font-family="FreeSans" font-size="10.00" fill="#000000">+ wxListCtrl()</text>
<text text-anchor="start" x="52.5" y="-409.5" font-family="FreeSans" font-size="10.00" fill="#000000">+ ~wxListCtrl()</text>
<text text-anchor="start" x="52.5" y="-398.5" font-family="FreeSans" font-size="10.00" fill="#000000">+ AppendColumn()</text>
<text text-anchor="start" x="52.5" y="-387.5" font-family="FreeSans" font-size="10.00" fill="#000000">+ Arrange()</text>
<text text-anchor="start" x="52.5" y="-376.5" font-family="FreeSans" font-size="10.00" fill="#000000">+ AssignImageList()</text>
<text text-anchor="start" x="52.5" y="-365.5" font-family="FreeSans" font-size="10.00" fill="#000000">+ ClearAll()</text>
<text text-anchor="start" x="52.5" y="-354.5" font-family="FreeSans" font-size="10.00" fill="#000000">+ Create()</text>
<text text-anchor="start" x="52.5" y="-343.5" font-family="FreeSans" font-size="10.00" fill="#000000">and 72 more...</text>
<text text-anchor="start" x="52.5" y="-332.5" font-family="FreeSans" font-size="10.00" fill="#000000"># OnGetItemAttr()</text>
<text text-anchor="start" x="52.5" y="-321.5" font-family="FreeSans" font-size="10.00" fill="#000000"># OnGetItemColumnAttr()</text>
<text text-anchor="start" x="52.5" y="-310.5" font-family="FreeSans" font-size="10.00" fill="#000000"># OnGetItemColumnImage()</text>
<text text-anchor="start" x="52.5" y="-299.5" font-family="FreeSans" font-size="10.00" fill="#000000"># OnGetItemImage()</text>
<text text-anchor="start" x="52.5" y="-288.5" font-family="FreeSans" font-size="10.00" fill="#000000"># OnGetItemText()</text>
</a>
</g>
</g>
<!-- Node21&#45;&gt;Node7 -->
<g id="edge13" class="edge">
<title>Node21&#45;&gt;Node7</title>
<path fill="none" stroke="#404040" d="M146.1237,-281.2528C149.5478,-271.3412 153.0425,-261.4558 156.5,-252 157.3635,-249.6385 158.2415,-247.2563 159.1317,-244.8588"/>
<polygon fill="none" stroke="#404040" points="159.1611,-244.7803 157.524,-237.7574 163.3769,-233.5451 165.014,-240.568 159.1611,-244.7803"/>
<text text-anchor="middle" x="176.5" y="-255" font-family="FreeSans" font-size="10.00" fill="#000000"> &#45;m_pList</text>
</g>
<!-- Node22&#45;&gt;Node21 -->
<g id="edge14" class="edge">
<title>Node22&#45;&gt;Node21</title>
<path fill="none" stroke="#191970" d="M113.5,-566.0124C113.5,-542.5248 113.5,-511.4506 113.5,-481.5126"/>
<polygon fill="none" stroke="#191970" points="110.0001,-566.2388 113.5,-576.2388 117.0001,-566.2389 110.0001,-566.2388"/>
</g>
</g>
</svg>
