<?xml version="1.0" encoding="UTF-8" standalone="no"?>
<!DOCTYPE svg PUBLIC "-//W3C//DTD SVG 1.1//EN"
 "http://www.w3.org/Graphics/SVG/1.1/DTD/svg11.dtd">
<!-- Generated by graphviz version 2.38.0 (20140413.2041)
 -->
<!-- Title: BlockAllocator&lt; T, pool_size, debug &gt; Pages: 1 -->
<svg width="204pt" height="397pt"
 viewBox="0.00 0.00 204.00 397.00" xmlns="http://www.w3.org/2000/svg" xmlns:xlink="http://www.w3.org/1999/xlink">
<g id="graph0" class="graph" transform="scale(1 1) rotate(0) translate(4 393)">
<title>BlockAllocator&lt; T, pool_size, debug &gt;</title>
<polygon fill="white" stroke="none" points="-4,4 -4,-393 200,-393 200,4 -4,4"/>
<!-- Node1 -->
<g id="node1" class="node"><title>Node1</title>
<polygon fill="#bfbfbf" stroke="black" points="0,-0.5 0,-145.5 119,-145.5 119,-0.5 0,-0.5"/>
<text text-anchor="start" x="8" y="-133.5" font-family="FreeSans" font-size="10.00">BlockAllocator&lt; T,</text>
<text text-anchor="middle" x="59.5" y="-122.5" font-family="FreeSans" font-size="10.00"> pool_size, debug &gt;</text>
<polyline fill="none" stroke="black" points="0,-115.5 119,-115.5 "/>
<text text-anchor="start" x="8" y="-103.5" font-family="FreeSans" font-size="10.00">&#45; ref_count</text>
<text text-anchor="start" x="8" y="-92.5" font-family="FreeSans" font-size="10.00">&#45; max_refs</text>
<text text-anchor="start" x="8" y="-81.5" font-family="FreeSans" font-size="10.00">&#45; total_refs</text>
<polyline fill="none" stroke="black" points="0,-74.5 119,-74.5 "/>
<text text-anchor="start" x="8" y="-62.5" font-family="FreeSans" font-size="10.00">+ BlockAllocator()</text>
<text text-anchor="start" x="8" y="-51.5" font-family="FreeSans" font-size="10.00">+ ~BlockAllocator()</text>
<text text-anchor="start" x="8" y="-40.5" font-family="FreeSans" font-size="10.00">+ New()</text>
<text text-anchor="start" x="8" y="-29.5" font-family="FreeSans" font-size="10.00">+ Delete()</text>
<text text-anchor="start" x="8" y="-18.5" font-family="FreeSans" font-size="10.00">&#45; AllocBlockPushBack()</text>
<text text-anchor="start" x="8" y="-7.5" font-family="FreeSans" font-size="10.00">&#45; PushFront()</text>
</g>
<!-- Node2 -->
<g id="node2" class="node"><title>Node2</title>
<polygon fill="white" stroke="#bfbfbf" points="65,-193.5 65,-261.5 196,-261.5 196,-193.5 65,-193.5"/>
<text text-anchor="start" x="73" y="-249.5" font-family="FreeSans" font-size="10.00">std::vector&lt; BlockAllocator</text>
<text text-anchor="middle" x="130.5" y="-238.5" font-family="FreeSans" font-size="10.00">::LinkedBlock&lt; T &gt; * &gt;</text>
<polyline fill="none" stroke="#bfbfbf" points="65,-231.5 196,-231.5 "/>
<text text-anchor="middle" x="130.5" y="-219.5" font-family="FreeSans" font-size="10.00"> </text>
<polyline fill="none" stroke="#bfbfbf" points="65,-212.5 196,-212.5 "/>
<text text-anchor="middle" x="130.5" y="-200.5" font-family="FreeSans" font-size="10.00"> </text>
</g>
<!-- Node2&#45;&gt;Node1 -->
<g id="edge1" class="edge"><title>Node2&#45;&gt;Node1</title>
<path fill="none" stroke="#404040" d="M115.094,-193.41C109.964,-182.391 103.999,-169.58 97.9199,-156.522"/>
<polygon fill="none" stroke="#404040" points="97.8666,-156.407 91.7079,-152.656 92.8017,-145.528 98.9604,-149.279 97.8666,-156.407"/>
<text text-anchor="middle" x="133" y="-167" font-family="FreeSans" font-size="10.00"> &#45;allocBlocks</text>
</g>
<!-- Node3 -->
<g id="node3" class="node"><title>Node3</title>
<g id="a_node3"><a xlink:href="classBlockAllocator#classBlockAllocator" target="_top" xlink:title="{BlockAllocator\&lt; T,\l pool_size, debug \&gt;\l::LinkedBlock\&lt; T \&gt;\n|+ data\l|}">
<polygon fill="white" stroke="black" points="10.5,-309.5 10.5,-388.5 108.5,-388.5 108.5,-309.5 10.5,-309.5"/>
<text text-anchor="start" x="18.5" y="-376.5" font-family="FreeSans" font-size="10.00">BlockAllocator&lt; T,</text>
<text text-anchor="start" x="18.5" y="-365.5" font-family="FreeSans" font-size="10.00"> pool_size, debug &gt;</text>
<text text-anchor="middle" x="59.5" y="-354.5" font-family="FreeSans" font-size="10.00">::LinkedBlock&lt; T &gt;</text>
<polyline fill="none" stroke="black" points="10.5,-347.5 108.5,-347.5 "/>
<text text-anchor="start" x="18.5" y="-335.5" font-family="FreeSans" font-size="10.00">+ data</text>
<polyline fill="none" stroke="black" points="10.5,-328.5 108.5,-328.5 "/>
<text text-anchor="middle" x="59.5" y="-316.5" font-family="FreeSans" font-size="10.00"> </text>
</a>
</g>
</g>
<!-- Node3&#45;&gt;Node1 -->
<g id="edge4" class="edge"><title>Node3&#45;&gt;Node1</title>
<path fill="none" stroke="#404040" d="M45.6711,-309.124C41.1588,-294.543 36.7359,-277.701 34.5,-262 29.6636,-228.037 32.905,-190.579 38.4501,-158.096"/>
<polygon fill="none" stroke="#404040" points="38.52,-157.713 35.6631,-151.092 40.676,-145.908 43.5329,-152.529 38.52,-157.713"/>
<text text-anchor="middle" x="45" y="-225" font-family="FreeSans" font-size="10.00"> &#45;first</text>
</g>
<!-- Node3&#45;&gt;Node2 -->
<g id="edge2" class="edge"><title>Node3&#45;&gt;Node2</title>
<path fill="none" stroke="#404040" d="M82.5517,-309.202C89.5668,-297.395 97.3245,-284.338 104.519,-272.229"/>
<polygon fill="none" stroke="#404040" points="104.534,-272.203 104.16,-265.002 110.664,-261.887 111.038,-269.088 104.534,-272.203"/>
<text text-anchor="middle" x="122.5" y="-283" font-family="FreeSans" font-size="10.00"> +elements</text>
</g>
<!-- Node3&#45;&gt;Node3 -->
<g id="edge3" class="edge"><title>Node3&#45;&gt;Node3</title>
<path fill="none" stroke="#404040" d="M108.58,-360.25C118.986,-359.107 126.5,-355.357 126.5,-349 126.5,-345.523 124.253,-342.826 120.514,-340.909"/>
<polygon fill="none" stroke="#404040" points="120.181,-340.821 113.357,-343.153 108.58,-337.75 115.404,-335.419 120.181,-340.821"/>
<text text-anchor="middle" x="140" y="-346.5" font-family="FreeSans" font-size="10.00"> +next</text>
</g>
</g>
</svg>
