<?xml version="1.0" encoding="UTF-8" standalone="no"?>
<!DOCTYPE svg PUBLIC "-//W3C//DTD SVG 1.1//EN"
 "http://www.w3.org/Graphics/SVG/1.1/DTD/svg11.dtd">
<!-- Generated by graphviz version 2.38.0 (20140413.2041)
 -->
<!-- Title: Compiler Pages: 1 -->
<svg width="696pt" height="1107pt"
 viewBox="0.00 0.00 695.50 1107.00" xmlns="http://www.w3.org/2000/svg" xmlns:xlink="http://www.w3.org/1999/xlink">
<g id="graph0" class="graph" transform="scale(1 1) rotate(0) translate(4 1103)">
<title>Compiler</title>
<polygon fill="white" stroke="none" points="-4,4 -4,-1103 691.5,-1103 691.5,4 -4,4"/>
<!-- Node1 -->
<g id="node1" class="node"><title>Node1</title>
<polygon fill="#bfbfbf" stroke="black" points="245,-0.5 245,-453.5 400,-453.5 400,-0.5 245,-0.5"/>
<text text-anchor="middle" x="322.5" y="-441.5" font-family="FreeSans" font-size="10.00">Compiler</text>
<polyline fill="none" stroke="black" points="245,-434.5 400,-434.5 "/>
<text text-anchor="start" x="253" y="-422.5" font-family="FreeSans" font-size="10.00">+ FilePathWithSpaces</text>
<text text-anchor="start" x="253" y="-411.5" font-family="FreeSans" font-size="10.00">+ CommandTypeDescriptions</text>
<text text-anchor="start" x="253" y="-400.5" font-family="FreeSans" font-size="10.00"># m_Name</text>
<text text-anchor="start" x="253" y="-389.5" font-family="FreeSans" font-size="10.00"># m_MasterPath</text>
<text text-anchor="start" x="253" y="-378.5" font-family="FreeSans" font-size="10.00"># m_ExtraPaths</text>
<text text-anchor="start" x="253" y="-367.5" font-family="FreeSans" font-size="10.00"># m_RegExes</text>
<text text-anchor="start" x="253" y="-356.5" font-family="FreeSans" font-size="10.00"># m_ErrorFilename</text>
<text text-anchor="start" x="253" y="-345.5" font-family="FreeSans" font-size="10.00"># m_ErrorLine</text>
<text text-anchor="start" x="253" y="-334.5" font-family="FreeSans" font-size="10.00"># m_Error</text>
<text text-anchor="start" x="253" y="-323.5" font-family="FreeSans" font-size="10.00"># m_VersionString</text>
<text text-anchor="start" x="253" y="-312.5" font-family="FreeSans" font-size="10.00"># m_SortOptions</text>
<text text-anchor="start" x="253" y="-301.5" font-family="FreeSans" font-size="10.00"># m_Weight</text>
<text text-anchor="start" x="253" y="-290.5" font-family="FreeSans" font-size="10.00"># m_MultiLineMessages</text>
<text text-anchor="start" x="253" y="-279.5" font-family="FreeSans" font-size="10.00">&#45; m_ID</text>
<text text-anchor="start" x="253" y="-268.5" font-family="FreeSans" font-size="10.00">&#45; m_ParentID</text>
<text text-anchor="start" x="253" y="-257.5" font-family="FreeSans" font-size="10.00">&#45; m_Valid</text>
<text text-anchor="start" x="253" y="-246.5" font-family="FreeSans" font-size="10.00">&#45; m_NeedValidityCheck</text>
<text text-anchor="start" x="253" y="-235.5" font-family="FreeSans" font-size="10.00">&#45; m_Mirrored</text>
<text text-anchor="start" x="253" y="-224.5" font-family="FreeSans" font-size="10.00">&#45; m_CompilerIDs</text>
<polyline fill="none" stroke="black" points="245,-217.5 400,-217.5 "/>
<text text-anchor="start" x="253" y="-205.5" font-family="FreeSans" font-size="10.00">+ Compiler()</text>
<text text-anchor="start" x="253" y="-194.5" font-family="FreeSans" font-size="10.00">+ ~Compiler()</text>
<text text-anchor="start" x="253" y="-183.5" font-family="FreeSans" font-size="10.00">+ IsValid()</text>
<text text-anchor="start" x="253" y="-172.5" font-family="FreeSans" font-size="10.00">+ CheckForWarningsAndErrors()</text>
<text text-anchor="start" x="253" y="-161.5" font-family="FreeSans" font-size="10.00">+ GetLastErrorFilename()</text>
<text text-anchor="start" x="253" y="-150.5" font-family="FreeSans" font-size="10.00">+ GetLastErrorLine()</text>
<text text-anchor="start" x="253" y="-139.5" font-family="FreeSans" font-size="10.00">+ GetLastError()</text>
<text text-anchor="start" x="253" y="-128.5" font-family="FreeSans" font-size="10.00">+ GetName()</text>
<text text-anchor="start" x="253" y="-117.5" font-family="FreeSans" font-size="10.00">and 32 more...</text>
<text text-anchor="start" x="253" y="-106.5" font-family="FreeSans" font-size="10.00"># Compiler()</text>
<text text-anchor="start" x="253" y="-95.5" font-family="FreeSans" font-size="10.00"># CreateCopy()</text>
<text text-anchor="start" x="253" y="-84.5" font-family="FreeSans" font-size="10.00"># IsUniqueID()</text>
<text text-anchor="start" x="253" y="-73.5" font-family="FreeSans" font-size="10.00"># MakeValidID()</text>
<text text-anchor="start" x="253" y="-62.5" font-family="FreeSans" font-size="10.00"># LoadDefaultOptions()</text>
<text text-anchor="start" x="253" y="-51.5" font-family="FreeSans" font-size="10.00"># LoadRegExArray()</text>
<text text-anchor="start" x="253" y="-40.5" font-family="FreeSans" font-size="10.00"># EvalXMLCondition()</text>
<text text-anchor="start" x="253" y="-29.5" font-family="FreeSans" font-size="10.00"># GetExecName()</text>
<text text-anchor="start" x="253" y="-18.5" font-family="FreeSans" font-size="10.00"># MirrorCurrentSettings()</text>
<text text-anchor="start" x="253" y="-7.5" font-family="FreeSans" font-size="10.00"># CompileRegExArray()</text>
</g>
<!-- Node2 -->
<g id="node2" class="node"><title>Node2</title>
<g id="a_node2"><a xlink:href="classCompileOptionsBase" target="_top" xlink:title="This is a base class for all classes needing compilation parameters. ">
<polygon fill="white" stroke="black" points="0,-501.5 0,-734.5 149,-734.5 149,-501.5 0,-501.5"/>
<text text-anchor="middle" x="74.5" y="-722.5" font-family="FreeSans" font-size="10.00">CompileOptionsBase</text>
<polyline fill="none" stroke="black" points="0,-715.5 149,-715.5 "/>
<text text-anchor="start" x="8" y="-703.5" font-family="FreeSans" font-size="10.00"># m_Platform</text>
<text text-anchor="start" x="8" y="-692.5" font-family="FreeSans" font-size="10.00"># m_LinkerOptions</text>
<text text-anchor="start" x="8" y="-681.5" font-family="FreeSans" font-size="10.00"># m_LinkLibs</text>
<text text-anchor="start" x="8" y="-670.5" font-family="FreeSans" font-size="10.00"># m_CompilerOptions</text>
<text text-anchor="start" x="8" y="-659.5" font-family="FreeSans" font-size="10.00"># m_ResourceCompilerOptions</text>
<text text-anchor="start" x="8" y="-648.5" font-family="FreeSans" font-size="10.00"># m_IncludeDirs</text>
<text text-anchor="start" x="8" y="-637.5" font-family="FreeSans" font-size="10.00"># m_ResIncludeDirs</text>
<text text-anchor="start" x="8" y="-626.5" font-family="FreeSans" font-size="10.00"># m_LibDirs</text>
<text text-anchor="start" x="8" y="-615.5" font-family="FreeSans" font-size="10.00">and 6 more...</text>
<polyline fill="none" stroke="black" points="0,-608.5 149,-608.5 "/>
<text text-anchor="start" x="8" y="-596.5" font-family="FreeSans" font-size="10.00">+ CompileOptionsBase()</text>
<text text-anchor="start" x="8" y="-585.5" font-family="FreeSans" font-size="10.00">+ ~CompileOptionsBase()</text>
<text text-anchor="start" x="8" y="-574.5" font-family="FreeSans" font-size="10.00">+ AddPlatform()</text>
<text text-anchor="start" x="8" y="-563.5" font-family="FreeSans" font-size="10.00">+ RemovePlatform()</text>
<text text-anchor="start" x="8" y="-552.5" font-family="FreeSans" font-size="10.00">+ SetPlatforms()</text>
<text text-anchor="start" x="8" y="-541.5" font-family="FreeSans" font-size="10.00">+ GetPlatforms()</text>
<text text-anchor="start" x="8" y="-530.5" font-family="FreeSans" font-size="10.00">+ SupportsCurrentPlatform()</text>
<text text-anchor="start" x="8" y="-519.5" font-family="FreeSans" font-size="10.00">+ SetLinkerOptions()</text>
<text text-anchor="start" x="8" y="-508.5" font-family="FreeSans" font-size="10.00">and 56 more...</text>
</a>
</g>
</g>
<!-- Node2&#45;&gt;Node1 -->
<g id="edge1" class="edge"><title>Node2&#45;&gt;Node1</title>
<path fill="none" stroke="midnightblue" d="M153.644,-492.86C182.849,-447.049 215.891,-395.221 244.954,-349.635"/>
<polygon fill="none" stroke="midnightblue" points="150.661,-491.027 148.237,-501.34 156.564,-494.79 150.661,-491.027"/>
</g>
<!-- Node3 -->
<g id="node3" class="node"><title>Node3</title>
<g id="a_node3"><a xlink:href="classCompiler#structCompiler_1_1MirrorSettings" target="_top" xlink:title="{Compiler::MirrorSettings\n|+ Name\l+ MasterPath\l+ ExtraPaths\l+ CompilerOptions_\l+ LinkerOptions\l+ IncludeDirs\l+ ResIncludeDirs\l+ LibDirs\land 5 more...\l|}">
<polygon fill="white" stroke="black" points="355,-545.5 355,-690.5 474,-690.5 474,-545.5 355,-545.5"/>
<text text-anchor="middle" x="414.5" y="-678.5" font-family="FreeSans" font-size="10.00">Compiler::MirrorSettings</text>
<polyline fill="none" stroke="black" points="355,-671.5 474,-671.5 "/>
<text text-anchor="start" x="363" y="-659.5" font-family="FreeSans" font-size="10.00">+ Name</text>
<text text-anchor="start" x="363" y="-648.5" font-family="FreeSans" font-size="10.00">+ MasterPath</text>
<text text-anchor="start" x="363" y="-637.5" font-family="FreeSans" font-size="10.00">+ ExtraPaths</text>
<text text-anchor="start" x="363" y="-626.5" font-family="FreeSans" font-size="10.00">+ CompilerOptions_</text>
<text text-anchor="start" x="363" y="-615.5" font-family="FreeSans" font-size="10.00">+ LinkerOptions</text>
<text text-anchor="start" x="363" y="-604.5" font-family="FreeSans" font-size="10.00">+ IncludeDirs</text>
<text text-anchor="start" x="363" y="-593.5" font-family="FreeSans" font-size="10.00">+ ResIncludeDirs</text>
<text text-anchor="start" x="363" y="-582.5" font-family="FreeSans" font-size="10.00">+ LibDirs</text>
<text text-anchor="start" x="363" y="-571.5" font-family="FreeSans" font-size="10.00">and 5 more...</text>
<polyline fill="none" stroke="black" points="355,-564.5 474,-564.5 "/>
<text text-anchor="middle" x="414.5" y="-552.5" font-family="FreeSans" font-size="10.00"> </text>
</a>
</g>
</g>
<!-- Node3&#45;&gt;Node1 -->
<g id="edge2" class="edge"><title>Node3&#45;&gt;Node1</title>
<path fill="none" stroke="#404040" d="M397.519,-545.198C391.974,-521.755 385.479,-494.293 378.671,-465.507"/>
<polygon fill="none" stroke="#404040" points="378.603,-465.219 373.33,-460.301 375.841,-453.541 381.115,-458.459 378.603,-465.219"/>
<text text-anchor="middle" x="404.5" y="-475" font-family="FreeSans" font-size="10.00"> &#45;m_Mirror</text>
</g>
<!-- Node4 -->
<g id="node4" class="node"><title>Node4</title>
<g id="a_node4"><a xlink:href="classCompilerOptions" target="_top" xlink:title="{CompilerOptions\n|&#45; m_Options\l|+ CompilerOptions()\l+ CompilerOptions()\l+ operator=()\l+ ~CompilerOptions()\l+ ClearOptions()\l+ AddOption()\l+ AddOption()\l+ RemoveOption()\land 5 more...\l}">
<polygon fill="white" stroke="black" points="279,-788 279,-933 386,-933 386,-788 279,-788"/>
<text text-anchor="middle" x="332.5" y="-921" font-family="FreeSans" font-size="10.00">CompilerOptions</text>
<polyline fill="none" stroke="black" points="279,-914 386,-914 "/>
<text text-anchor="start" x="287" y="-902" font-family="FreeSans" font-size="10.00">&#45; m_Options</text>
<polyline fill="none" stroke="black" points="279,-895 386,-895 "/>
<text text-anchor="start" x="287" y="-883" font-family="FreeSans" font-size="10.00">+ CompilerOptions()</text>
<text text-anchor="start" x="287" y="-872" font-family="FreeSans" font-size="10.00">+ CompilerOptions()</text>
<text text-anchor="start" x="287" y="-861" font-family="FreeSans" font-size="10.00">+ operator=()</text>
<text text-anchor="start" x="287" y="-850" font-family="FreeSans" font-size="10.00">+ ~CompilerOptions()</text>
<text text-anchor="start" x="287" y="-839" font-family="FreeSans" font-size="10.00">+ ClearOptions()</text>
<text text-anchor="start" x="287" y="-828" font-family="FreeSans" font-size="10.00">+ AddOption()</text>
<text text-anchor="start" x="287" y="-817" font-family="FreeSans" font-size="10.00">+ AddOption()</text>
<text text-anchor="start" x="287" y="-806" font-family="FreeSans" font-size="10.00">+ RemoveOption()</text>
<text text-anchor="start" x="287" y="-795" font-family="FreeSans" font-size="10.00">and 5 more...</text>
</a>
</g>
</g>
<!-- Node4&#45;&gt;Node1 -->
<g id="edge8" class="edge"><title>Node4&#45;&gt;Node1</title>
<path fill="none" stroke="#404040" d="M303.893,-787.767C298.342,-770.738 293.363,-752.445 290.5,-735 276.175,-647.722 277.984,-551.022 285.484,-465.675"/>
<polygon fill="none" stroke="#404040" points="285.485,-465.66 282.049,-459.32 286.579,-453.71 290.015,-460.05 285.485,-465.66"/>
<text text-anchor="middle" x="318" y="-615.5" font-family="FreeSans" font-size="10.00"> #m_Options</text>
</g>
<!-- Node4&#45;&gt;Node3 -->
<g id="edge3" class="edge"><title>Node4&#45;&gt;Node3</title>
<path fill="none" stroke="#404040" d="M356.881,-787.993C366.092,-760.977 376.651,-730.009 386.192,-702.025"/>
<polygon fill="none" stroke="#404040" points="386.199,-702.005 384.349,-695.035 390.072,-690.647 391.921,-697.616 386.199,-702.005"/>
<text text-anchor="middle" x="390.5" y="-756" font-family="FreeSans" font-size="10.00"> +Options</text>
</g>
<!-- Node5 -->
<g id="node5" class="node"><title>Node5</title>
<g id="a_node5"><a xlink:href="structCompilerSwitches" target="_top" xlink:title="Struct to keep switches. ">
<polygon fill="white" stroke="black" points="135.5,-782.5 135.5,-938.5 255.5,-938.5 255.5,-782.5 135.5,-782.5"/>
<text text-anchor="middle" x="195.5" y="-926.5" font-family="FreeSans" font-size="10.00">CompilerSwitches</text>
<polyline fill="none" stroke="black" points="135.5,-919.5 255.5,-919.5 "/>
<text text-anchor="start" x="143.5" y="-907.5" font-family="FreeSans" font-size="10.00">+ includeDirs</text>
<text text-anchor="start" x="143.5" y="-896.5" font-family="FreeSans" font-size="10.00">+ libDirs</text>
<text text-anchor="start" x="143.5" y="-885.5" font-family="FreeSans" font-size="10.00">+ linkLibs</text>
<text text-anchor="start" x="143.5" y="-874.5" font-family="FreeSans" font-size="10.00">+ defines</text>
<text text-anchor="start" x="143.5" y="-863.5" font-family="FreeSans" font-size="10.00">+ genericSwitch</text>
<text text-anchor="start" x="143.5" y="-852.5" font-family="FreeSans" font-size="10.00">+ objectExtension</text>
<text text-anchor="start" x="143.5" y="-841.5" font-family="FreeSans" font-size="10.00">+ forceFwdSlashes</text>
<text text-anchor="start" x="143.5" y="-830.5" font-family="FreeSans" font-size="10.00">+ forceLinkerUseQuotes</text>
<text text-anchor="start" x="143.5" y="-819.5" font-family="FreeSans" font-size="10.00">and 17 more...</text>
<text text-anchor="start" x="143.5" y="-808.5" font-family="FreeSans" font-size="10.00">+ defaultLogging</text>
<polyline fill="none" stroke="black" points="135.5,-801.5 255.5,-801.5 "/>
<text text-anchor="start" x="143.5" y="-789.5" font-family="FreeSans" font-size="10.00">+ CompilerSwitches()</text>
</a>
</g>
</g>
<!-- Node5&#45;&gt;Node1 -->
<g id="edge9" class="edge"><title>Node5&#45;&gt;Node1</title>
<path fill="none" stroke="#404040" d="M192.799,-782.325C191.873,-709.074 194.721,-596.318 215.5,-501 221.817,-472.02 230.802,-442.089 240.912,-413.143"/>
<polygon fill="none" stroke="#404040" points="240.971,-412.977 239.214,-405.983 244.995,-401.672 246.751,-408.666 240.971,-412.977"/>
<text text-anchor="middle" x="246" y="-615.5" font-family="FreeSans" font-size="10.00"> #m_Switches</text>
</g>
<!-- Node5&#45;&gt;Node3 -->
<g id="edge4" class="edge"><title>Node5&#45;&gt;Node3</title>
<path fill="none" stroke="#404040" d="M255.833,-794.103C260.353,-789.895 264.934,-785.82 269.5,-782 276.757,-775.93 333.867,-741.746 340.5,-735 350.575,-724.753 360.001,-712.917 368.527,-700.804"/>
<polygon fill="none" stroke="#404040" points="368.723,-700.515 368.79,-693.305 375.472,-690.593 375.405,-697.804 368.723,-700.515"/>
<text text-anchor="middle" x="337.5" y="-756" font-family="FreeSans" font-size="10.00"> +Switches</text>
</g>
<!-- Node6 -->
<g id="node6" class="node"><title>Node6</title>
<polygon fill="white" stroke="#bfbfbf" points="541.5,-832 541.5,-889 675.5,-889 675.5,-832 541.5,-832"/>
<text text-anchor="middle" x="608.5" y="-877" font-family="FreeSans" font-size="10.00">std::vector&lt; CompilerTool &gt;</text>
<polyline fill="none" stroke="#bfbfbf" points="541.5,-870 675.5,-870 "/>
<text text-anchor="middle" x="608.5" y="-858" font-family="FreeSans" font-size="10.00"> </text>
<polyline fill="none" stroke="#bfbfbf" points="541.5,-851 675.5,-851 "/>
<text text-anchor="middle" x="608.5" y="-839" font-family="FreeSans" font-size="10.00"> </text>
</g>
<!-- Node6&#45;&gt;Node1 -->
<g id="edge10" class="edge"><title>Node6&#45;&gt;Node1</title>
<path fill="none" stroke="#404040" d="M611.878,-831.928C618.286,-769.753 627.367,-615.154 576.5,-501 539.67,-418.349 467.34,-344.569 409.254,-294.612"/>
<polygon fill="none" stroke="#404040" points="409.206,-294.571 402.043,-293.734 400.061,-286.801 407.224,-287.638 409.206,-294.571"/>
<text text-anchor="middle" x="652.5" y="-615.5" font-family="FreeSans" font-size="10.00"> #m_Commands</text>
</g>
<!-- Node6&#45;&gt;Node3 -->
<g id="edge5" class="edge"><title>Node6&#45;&gt;Node3</title>
<path fill="none" stroke="#404040" d="M578.658,-831.816C553.266,-807.522 516.558,-770.604 488.5,-735 480.095,-724.334 471.773,-712.685 463.913,-701.016"/>
<polygon fill="none" stroke="#404040" points="463.76,-700.784 457.112,-697.991 457.134,-690.78 463.782,-693.573 463.76,-700.784"/>
<text text-anchor="middle" x="542.5" y="-756" font-family="FreeSans" font-size="10.00"> +Commands</text>
</g>
<!-- Node7 -->
<g id="node7" class="node"><title>Node7</title>
<g id="a_node7"><a xlink:href="structCompilerTool" target="_top" xlink:title="Struct for compiler/linker commands. ">
<polygon fill="white" stroke="black" points="564.5,-986.5 564.5,-1098.5 652.5,-1098.5 652.5,-986.5 564.5,-986.5"/>
<text text-anchor="middle" x="608.5" y="-1086.5" font-family="FreeSans" font-size="10.00">CompilerTool</text>
<polyline fill="none" stroke="black" points="564.5,-1079.5 652.5,-1079.5 "/>
<text text-anchor="start" x="572.5" y="-1067.5" font-family="FreeSans" font-size="10.00">+ command</text>
<text text-anchor="start" x="572.5" y="-1056.5" font-family="FreeSans" font-size="10.00">+ extensions</text>
<text text-anchor="start" x="572.5" y="-1045.5" font-family="FreeSans" font-size="10.00">+ generatedFiles</text>
<polyline fill="none" stroke="black" points="564.5,-1038.5 652.5,-1038.5 "/>
<text text-anchor="start" x="572.5" y="-1026.5" font-family="FreeSans" font-size="10.00">+ CompilerTool()</text>
<text text-anchor="start" x="572.5" y="-1015.5" font-family="FreeSans" font-size="10.00">+ CompilerTool()</text>
<text text-anchor="start" x="572.5" y="-1004.5" font-family="FreeSans" font-size="10.00">+ operator==()</text>
<text text-anchor="start" x="572.5" y="-993.5" font-family="FreeSans" font-size="10.00">+ operator!=()</text>
</a>
</g>
</g>
<!-- Node7&#45;&gt;Node6 -->
<g id="edge6" class="edge"><title>Node7&#45;&gt;Node6</title>
<path fill="none" stroke="#404040" d="M608.5,-986.025C608.5,-958.756 608.5,-926.503 608.5,-901.655"/>
<polygon fill="none" stroke="#404040" points="608.5,-901.401 604.5,-895.401 608.5,-889.401 612.5,-895.401 608.5,-901.401"/>
<text text-anchor="middle" x="632.5" y="-960" font-family="FreeSans" font-size="10.00"> +elements</text>
</g>
<!-- Node8 -->
<g id="node8" class="node"><title>Node8</title>
<g id="a_node8"><a xlink:href="compiler_8h#structCompilerPrograms" target="_top" xlink:title="Struct to keep programs. ">
<polygon fill="white" stroke="black" points="419.5,-799 419.5,-922 515.5,-922 515.5,-799 419.5,-799"/>
<text text-anchor="middle" x="467.5" y="-910" font-family="FreeSans" font-size="10.00">CompilerPrograms</text>
<polyline fill="none" stroke="black" points="419.5,-903 515.5,-903 "/>
<text text-anchor="start" x="427.5" y="-891" font-family="FreeSans" font-size="10.00">+ C</text>
<text text-anchor="start" x="427.5" y="-880" font-family="FreeSans" font-size="10.00">+ CPP</text>
<text text-anchor="start" x="427.5" y="-869" font-family="FreeSans" font-size="10.00">+ LD</text>
<text text-anchor="start" x="427.5" y="-858" font-family="FreeSans" font-size="10.00">+ LIB</text>
<text text-anchor="start" x="427.5" y="-847" font-family="FreeSans" font-size="10.00">+ WINDRES</text>
<text text-anchor="start" x="427.5" y="-836" font-family="FreeSans" font-size="10.00">+ MAKE</text>
<text text-anchor="start" x="427.5" y="-825" font-family="FreeSans" font-size="10.00">+ DBGconfig</text>
<polyline fill="none" stroke="black" points="419.5,-818 515.5,-818 "/>
<text text-anchor="middle" x="467.5" y="-806" font-family="FreeSans" font-size="10.00"> </text>
</a>
</g>
</g>
<!-- Node8&#45;&gt;Node1 -->
<g id="edge11" class="edge"><title>Node8&#45;&gt;Node1</title>
<path fill="none" stroke="#404040" d="M488.792,-798.978C491.996,-787.498 494.795,-775.483 496.5,-764 513.692,-648.215 516.287,-613.072 482.5,-501 465.88,-445.872 436.05,-390.125 406.613,-343.505"/>
<polygon fill="none" stroke="#404040" points="406.611,-343.503 400.008,-340.604 400.144,-333.394 406.747,-336.293 406.611,-343.503"/>
<text text-anchor="middle" x="541" y="-615.5" font-family="FreeSans" font-size="10.00"> #m_Programs</text>
</g>
<!-- Node8&#45;&gt;Node3 -->
<g id="edge7" class="edge"><title>Node8&#45;&gt;Node3</title>
<path fill="none" stroke="#404040" d="M454.126,-798.812C447.709,-769.692 439.917,-734.338 432.948,-702.71"/>
<polygon fill="none" stroke="#404040" points="432.904,-702.51 427.706,-697.512 430.321,-690.791 435.519,-695.79 432.904,-702.51"/>
<text text-anchor="middle" x="471.5" y="-756" font-family="FreeSans" font-size="10.00"> +Programs</text>
</g>
</g>
</svg>
