<?xml version="1.0" encoding="UTF-8" standalone="no"?>
<!DOCTYPE svg PUBLIC "-//W3C//DTD SVG 1.1//EN"
 "http://www.w3.org/Graphics/SVG/1.1/DTD/svg11.dtd">
<!-- Generated by graphviz version 2.38.0 (20140413.2041)
 -->
<!-- Title: TemplateManager Pages: 1 -->
<svg width="228pt" height="358pt"
 viewBox="0.00 0.00 228.00 358.00" xmlns="http://www.w3.org/2000/svg" xmlns:xlink="http://www.w3.org/1999/xlink">
<g id="graph0" class="graph" transform="scale(1 1) rotate(0) translate(4 354)">
<title>TemplateManager</title>
<!-- Node1 -->
<g id="node1" class="node"><title>Node1</title>
<polygon fill="#bfbfbf" stroke="black" points="42,-0.5 42,-178.5 204,-178.5 204,-0.5 42,-0.5"/>
<text text-anchor="middle" x="123" y="-166.5" font-family="FreeSans" font-size="10.00">TemplateManager</text>
<polyline fill="none" stroke="black" points="42,-159.5 204,-159.5 "/>
<text text-anchor="start" x="50" y="-147.5" font-family="FreeSans" font-size="10.00"># m_UserTemplates</text>
<polyline fill="none" stroke="black" points="42,-140.5 204,-140.5 "/>
<text text-anchor="start" x="50" y="-128.5" font-family="FreeSans" font-size="10.00">+ CreateMenu()</text>
<text text-anchor="start" x="50" y="-117.5" font-family="FreeSans" font-size="10.00">+ ReleaseMenu()</text>
<text text-anchor="start" x="50" y="-106.5" font-family="FreeSans" font-size="10.00">+ BuildToolsMenu()</text>
<text text-anchor="start" x="50" y="-95.5" font-family="FreeSans" font-size="10.00">+ New()</text>
<text text-anchor="start" x="50" y="-84.5" font-family="FreeSans" font-size="10.00">+ GetLastCreatedFilename()</text>
<text text-anchor="start" x="50" y="-73.5" font-family="FreeSans" font-size="10.00">+ SaveUserTemplate()</text>
<text text-anchor="start" x="50" y="-62.5" font-family="FreeSans" font-size="10.00"># LoadTemplates()</text>
<text text-anchor="start" x="50" y="-51.5" font-family="FreeSans" font-size="10.00"># LoadUserTemplates()</text>
<text text-anchor="start" x="50" y="-40.5" font-family="FreeSans" font-size="10.00"># NewFromTemplate()</text>
<text text-anchor="start" x="50" y="-29.5" font-family="FreeSans" font-size="10.00"># NewProjectFromUserTemplate()</text>
<text text-anchor="start" x="50" y="-18.5" font-family="FreeSans" font-size="10.00">&#45; TemplateManager()</text>
<text text-anchor="start" x="50" y="-7.5" font-family="FreeSans" font-size="10.00">&#45; ~TemplateManager()</text>
</g>
<!-- Node2 -->
<g id="node2" class="node"><title>Node2</title>
<g id="a_node2"><a xlink:href="classMgr" target="_top" xlink:title="{Mgr\&lt; TemplateManager \&gt;\n|&#45; instance\l&#45; isShutdown\l|+ Valid()\l+ Get()\l+ Free()\l# Mgr()\l# ~Mgr()\l&#45; Mgr()\l&#45; operator=()\l}">
<polygon fill="none" stroke="black" points="0,-215.5 0,-349.5 128,-349.5 128,-215.5 0,-215.5"/>
<text text-anchor="middle" x="64" y="-337.5" font-family="FreeSans" font-size="10.00">Mgr&lt; TemplateManager &gt;</text>
<polyline fill="none" stroke="black" points="0,-330.5 128,-330.5 "/>
<text text-anchor="start" x="8" y="-318.5" font-family="FreeSans" font-size="10.00">&#45; instance</text>
<text text-anchor="start" x="8" y="-307.5" font-family="FreeSans" font-size="10.00">&#45; isShutdown</text>
<polyline fill="none" stroke="black" points="0,-300.5 128,-300.5 "/>
<text text-anchor="start" x="8" y="-288.5" font-family="FreeSans" font-size="10.00">+ Valid()</text>
<text text-anchor="start" x="8" y="-277.5" font-family="FreeSans" font-size="10.00">+ Get()</text>
<text text-anchor="start" x="8" y="-266.5" font-family="FreeSans" font-size="10.00">+ Free()</text>
<text text-anchor="start" x="8" y="-255.5" font-family="FreeSans" font-size="10.00"># Mgr()</text>
<text text-anchor="start" x="8" y="-244.5" font-family="FreeSans" font-size="10.00"># ~Mgr()</text>
<text text-anchor="start" x="8" y="-233.5" font-family="FreeSans" font-size="10.00">&#45; Mgr()</text>
<text text-anchor="start" x="8" y="-222.5" font-family="FreeSans" font-size="10.00">&#45; operator=()</text>
</a>
</g>
</g>
<!-- Node2&#45;&gt;Node1 -->
<g id="edge1" class="edge"><title>Node2&#45;&gt;Node1</title>
<path fill="none" stroke="midnightblue" d="M87.4258,-205.664C90.1812,-196.744 93.0105,-187.585 95.8118,-178.516"/>
<polygon fill="none" stroke="midnightblue" points="84.0771,-204.646 84.4698,-215.234 90.7653,-206.712 84.0771,-204.646"/>
</g>
<!-- Node3 -->
<g id="node3" class="node"><title>Node3</title>
<polygon fill="none" stroke="#bfbfbf" points="146,-254 146,-311 220,-311 220,-254 146,-254"/>
<text text-anchor="middle" x="183" y="-299" font-family="FreeSans" font-size="10.00">wxEvtHandler</text>
<polyline fill="none" stroke="#bfbfbf" points="146,-292 220,-292 "/>
<text text-anchor="middle" x="183" y="-280" font-family="FreeSans" font-size="10.00"> </text>
<polyline fill="none" stroke="#bfbfbf" points="146,-273 220,-273 "/>
<text text-anchor="middle" x="183" y="-261" font-family="FreeSans" font-size="10.00"> </text>
</g>
<!-- Node3&#45;&gt;Node1 -->
<g id="edge2" class="edge"><title>Node3&#45;&gt;Node1</title>
<path fill="none" stroke="midnightblue" d="M171.257,-244.118C165.369,-225.373 157.966,-201.807 150.739,-178.802"/>
<polygon fill="none" stroke="midnightblue" points="167.939,-245.236 174.275,-253.727 174.618,-243.138 167.939,-245.236"/>
</g>
</g>
</svg>
