<?xml version="1.0" encoding="UTF-8" standalone="no"?>
<!DOCTYPE svg PUBLIC "-//W3C//DTD SVG 1.1//EN"
 "http://www.w3.org/Graphics/SVG/1.1/DTD/svg11.dtd">
<!-- Generated by graphviz version 2.40.1 (20161225.0304)
 -->
<!-- Title: ThreadsDlg Pages: 1 -->
<svg width="185pt" height="458pt"
 viewBox="0.00 0.00 184.50 458.00" xmlns="http://www.w3.org/2000/svg" xmlns:xlink="http://www.w3.org/1999/xlink">
<g id="graph0" class="graph" transform="scale(1 1) rotate(0) translate(4 454)">
<title>ThreadsDlg</title>
<!-- Node0 -->
<g id="node1" class="node">
<title>Node0</title>
<polygon fill="#bfbfbf" stroke="#000000" points="11,-.5 11,-134.5 155,-134.5 155,-.5 11,-.5"/>
<text text-anchor="middle" x="83" y="-122.5" font-family="FreeSans" font-size="10.00" fill="#000000">ThreadsDlg</text>
<polyline fill="none" stroke="#000000" points="11,-115.5 155,-115.5 "/>
<text text-anchor="start" x="19" y="-103.5" font-family="FreeSans" font-size="10.00" fill="#000000">&#45; m_list</text>
<polyline fill="none" stroke="#000000" points="11,-96.5 155,-96.5 "/>
<text text-anchor="start" x="19" y="-84.5" font-family="FreeSans" font-size="10.00" fill="#000000">+ ThreadsDlg()</text>
<text text-anchor="start" x="19" y="-73.5" font-family="FreeSans" font-size="10.00" fill="#000000">+ GetWindow()</text>
<text text-anchor="start" x="19" y="-62.5" font-family="FreeSans" font-size="10.00" fill="#000000">+ Reload()</text>
<text text-anchor="start" x="19" y="-51.5" font-family="FreeSans" font-size="10.00" fill="#000000">+ EnableWindow()</text>
<text text-anchor="start" x="19" y="-40.5" font-family="FreeSans" font-size="10.00" fill="#000000"># OnListRightClick()</text>
<text text-anchor="start" x="19" y="-29.5" font-family="FreeSans" font-size="10.00" fill="#000000"># OnListDoubleClick()</text>
<text text-anchor="start" x="19" y="-18.5" font-family="FreeSans" font-size="10.00" fill="#000000"># OnSwitchThread()</text>
<text text-anchor="start" x="19" y="-7.5" font-family="FreeSans" font-size="10.00" fill="#000000">&#45; DECLARE_EVENT_TABLE()</text>
</g>
<!-- Node1 -->
<g id="node2" class="node">
<title>Node1</title>
<g id="a_node2"><a doxygen="/media/alpha/Barracuda/cb_docs/src/wxTagFile.xml:http://docs.wxwidgets.org/3.0/" xlink:href="http://docs.wxwidgets.org/3.0/classwx_panel.html" target="_top" xlink:title="{wxPanel\n||}">
<polygon fill="none" stroke="#000000" points="10.5,-188 10.5,-245 63.5,-245 63.5,-188 10.5,-188"/>
<text text-anchor="middle" x="37" y="-233" font-family="FreeSans" font-size="10.00" fill="#000000">wxPanel</text>
<polyline fill="none" stroke="#000000" points="10.5,-226 63.5,-226 "/>
<text text-anchor="middle" x="37" y="-214" font-family="FreeSans" font-size="10.00" fill="#000000"> </text>
<polyline fill="none" stroke="#000000" points="10.5,-207 63.5,-207 "/>
<text text-anchor="middle" x="37" y="-195" font-family="FreeSans" font-size="10.00" fill="#000000"> </text>
</a>
</g>
</g>
<!-- Node1&#45;&gt;Node0 -->
<g id="edge1" class="edge">
<title>Node1&#45;&gt;Node0</title>
<path fill="none" stroke="#191970" d="M48.8621,-178.0772C52.9495,-164.8376 57.6555,-149.5942 62.2415,-134.7394"/>
<polygon fill="none" stroke="#191970" points="45.4749,-177.1838 45.8693,-187.7713 52.1635,-179.2488 45.4749,-177.1838"/>
</g>
<!-- Node2 -->
<g id="node3" class="node">
<title>Node2</title>
<g id="a_node3"><a doxygen="/media/alpha/Barracuda/cb_docs/src/wxTagFile.xml:http://docs.wxwidgets.org/3.0/" xlink:href="http://docs.wxwidgets.org/3.0/classwx_window.html" target="_top" xlink:title="{wxWindow\n||}">
<polygon fill="none" stroke="#000000" points="6,-298.5 6,-355.5 68,-355.5 68,-298.5 6,-298.5"/>
<text text-anchor="middle" x="37" y="-343.5" font-family="FreeSans" font-size="10.00" fill="#000000">wxWindow</text>
<polyline fill="none" stroke="#000000" points="6,-336.5 68,-336.5 "/>
<text text-anchor="middle" x="37" y="-324.5" font-family="FreeSans" font-size="10.00" fill="#000000"> </text>
<polyline fill="none" stroke="#000000" points="6,-317.5 68,-317.5 "/>
<text text-anchor="middle" x="37" y="-305.5" font-family="FreeSans" font-size="10.00" fill="#000000"> </text>
</a>
</g>
</g>
<!-- Node2&#45;&gt;Node1 -->
<g id="edge2" class="edge">
<title>Node2&#45;&gt;Node1</title>
<path fill="none" stroke="#191970" d="M37,-287.845C37,-273.7511 37,-258.1262 37,-245.1002"/>
<polygon fill="none" stroke="#191970" points="33.5001,-288.2559 37,-298.2559 40.5001,-288.2559 33.5001,-288.2559"/>
</g>
<!-- Node3 -->
<g id="node4" class="node">
<title>Node3</title>
<g id="a_node4"><a doxygen="/media/alpha/Barracuda/cb_docs/src/wxTagFile.xml:http://docs.wxwidgets.org/3.0/" xlink:href="http://docs.wxwidgets.org/3.0/classwx_evt_handler.html" target="_top" xlink:title="{wxEvtHandler\n||}">
<polygon fill="none" stroke="#ff0000" points="0,-392.5 0,-449.5 74,-449.5 74,-392.5 0,-392.5"/>
<text text-anchor="middle" x="37" y="-437.5" font-family="FreeSans" font-size="10.00" fill="#000000">wxEvtHandler</text>
<polyline fill="none" stroke="#ff0000" points="0,-430.5 74,-430.5 "/>
<text text-anchor="middle" x="37" y="-418.5" font-family="FreeSans" font-size="10.00" fill="#000000"> </text>
<polyline fill="none" stroke="#ff0000" points="0,-411.5 74,-411.5 "/>
<text text-anchor="middle" x="37" y="-399.5" font-family="FreeSans" font-size="10.00" fill="#000000"> </text>
</a>
</g>
</g>
<!-- Node3&#45;&gt;Node2 -->
<g id="edge3" class="edge">
<title>Node3&#45;&gt;Node2</title>
<path fill="none" stroke="#191970" d="M37,-382.1035C37,-373.2052 37,-363.9073 37,-355.538"/>
<polygon fill="none" stroke="#191970" points="33.5001,-382.2861 37,-392.2861 40.5001,-382.2862 33.5001,-382.2861"/>
</g>
<!-- Node6 -->
<g id="node5" class="node">
<title>Node6</title>
<g id="a_node5"><a xlink:href="classcbThreadsDlg" target="_top" xlink:title="{cbThreadsDlg\n||+ ~cbThreadsDlg()\l+ GetWindow()\l+ Reload()\l+ EnableWindow()\l}">
<polygon fill="none" stroke="#000000" points="81.5,-171.5 81.5,-261.5 176.5,-261.5 176.5,-171.5 81.5,-171.5"/>
<text text-anchor="middle" x="129" y="-249.5" font-family="FreeSans" font-size="10.00" fill="#000000">cbThreadsDlg</text>
<polyline fill="none" stroke="#000000" points="81.5,-242.5 176.5,-242.5 "/>
<text text-anchor="middle" x="129" y="-230.5" font-family="FreeSans" font-size="10.00" fill="#000000"> </text>
<polyline fill="none" stroke="#000000" points="81.5,-223.5 176.5,-223.5 "/>
<text text-anchor="start" x="89.5" y="-211.5" font-family="FreeSans" font-size="10.00" fill="#000000">+ ~cbThreadsDlg()</text>
<text text-anchor="start" x="89.5" y="-200.5" font-family="FreeSans" font-size="10.00" fill="#000000">+ GetWindow()</text>
<text text-anchor="start" x="89.5" y="-189.5" font-family="FreeSans" font-size="10.00" fill="#000000">+ Reload()</text>
<text text-anchor="start" x="89.5" y="-178.5" font-family="FreeSans" font-size="10.00" fill="#000000">+ EnableWindow()</text>
</a>
</g>
</g>
<!-- Node6&#45;&gt;Node0 -->
<g id="edge4" class="edge">
<title>Node6&#45;&gt;Node0</title>
<path fill="none" stroke="#191970" d="M112.0762,-161.6815C109.3679,-152.909 106.5385,-143.7443 103.7535,-134.7233"/>
<polygon fill="none" stroke="#191970" points="108.7795,-162.8682 115.0737,-171.3907 115.468,-160.8032 108.7795,-162.8682"/>
</g>
</g>
</svg>
