<?xml version="1.0" encoding="UTF-8" standalone="no"?>
<!DOCTYPE svg PUBLIC "-//W3C//DTD SVG 1.1//EN"
 "http://www.w3.org/Graphics/SVG/1.1/DTD/svg11.dtd">
<!-- Generated by graphviz version 2.38.0 (20140413.2041)
 -->
<!-- Title: ScriptingManager Pages: 1 -->
<svg width="628pt" height="711pt"
 viewBox="0.00 0.00 627.50 711.00" xmlns="http://www.w3.org/2000/svg" xmlns:xlink="http://www.w3.org/1999/xlink">
<g id="graph0" class="graph" transform="scale(1 1) rotate(0) translate(4 707)">
<title>ScriptingManager</title>
<!-- Node1 -->
<g id="node1" class="node"><title>Node1</title>
<polygon fill="#bfbfbf" stroke="black" points="226,-171.5 226,-404.5 376,-404.5 376,-171.5 226,-171.5"/>
<text text-anchor="middle" x="301" y="-392.5" font-family="FreeSans" font-size="10.00">ScriptingManager</text>
<polyline fill="none" stroke="black" points="226,-385.5 376,-385.5 "/>
<text text-anchor="start" x="234" y="-373.5" font-family="FreeSans" font-size="10.00">&#45; cs</text>
<text text-anchor="start" x="234" y="-362.5" font-family="FreeSans" font-size="10.00">&#45; m_AttachedToMainWindow</text>
<text text-anchor="start" x="234" y="-351.5" font-family="FreeSans" font-size="10.00">&#45; m_CurrentlyRunningScriptFile</text>
<polyline fill="none" stroke="black" points="226,-344.5 376,-344.5 "/>
<text text-anchor="start" x="234" y="-332.5" font-family="FreeSans" font-size="10.00">+ LoadScript()</text>
<text text-anchor="start" x="234" y="-321.5" font-family="FreeSans" font-size="10.00">+ LoadBuffer()</text>
<text text-anchor="start" x="234" y="-310.5" font-family="FreeSans" font-size="10.00">+ LoadBufferRedirectOutput()</text>
<text text-anchor="start" x="234" y="-299.5" font-family="FreeSans" font-size="10.00">+ GetErrorString()</text>
<text text-anchor="start" x="234" y="-288.5" font-family="FreeSans" font-size="10.00">+ DisplayErrors()</text>
<text text-anchor="start" x="234" y="-277.5" font-family="FreeSans" font-size="10.00">+ InjectScriptOutput()</text>
<text text-anchor="start" x="234" y="-266.5" font-family="FreeSans" font-size="10.00">+ Configure()</text>
<text text-anchor="start" x="234" y="-255.5" font-family="FreeSans" font-size="10.00">+ RegisterScriptPlugin()</text>
<text text-anchor="start" x="234" y="-244.5" font-family="FreeSans" font-size="10.00">and 11 more...</text>
<text text-anchor="start" x="234" y="-233.5" font-family="FreeSans" font-size="10.00">&#45; ScriptingManager()</text>
<text text-anchor="start" x="234" y="-222.5" font-family="FreeSans" font-size="10.00">&#45; OnScriptMenu()</text>
<text text-anchor="start" x="234" y="-211.5" font-family="FreeSans" font-size="10.00">&#45; OnScriptPluginMenu()</text>
<text text-anchor="start" x="234" y="-200.5" font-family="FreeSans" font-size="10.00">&#45; RegisterScriptFunctions()</text>
<text text-anchor="start" x="234" y="-189.5" font-family="FreeSans" font-size="10.00">&#45; ScriptingManager()</text>
<text text-anchor="start" x="234" y="-178.5" font-family="FreeSans" font-size="10.00">&#45; ~ScriptingManager()</text>
</g>
<!-- Node2 -->
<g id="node2" class="node"><title>Node2</title>
<g id="a_node2"><a xlink:href="classMgr" target="_top" xlink:title="{Mgr\&lt; ScriptingManager \&gt;\n|&#45; isShutdown\l|+ Valid()\l+ Get()\l+ Free()\l# Mgr()\l# ~Mgr()\l&#45; Mgr()\l&#45; operator=()\l}">
<polygon fill="none" stroke="black" points="238.5,-0.5 238.5,-123.5 363.5,-123.5 363.5,-0.5 238.5,-0.5"/>
<text text-anchor="middle" x="301" y="-111.5" font-family="FreeSans" font-size="10.00">Mgr&lt; ScriptingManager &gt;</text>
<polyline fill="none" stroke="black" points="238.5,-104.5 363.5,-104.5 "/>
<text text-anchor="start" x="246.5" y="-92.5" font-family="FreeSans" font-size="10.00">&#45; isShutdown</text>
<polyline fill="none" stroke="black" points="238.5,-85.5 363.5,-85.5 "/>
<text text-anchor="start" x="246.5" y="-73.5" font-family="FreeSans" font-size="10.00">+ Valid()</text>
<text text-anchor="start" x="246.5" y="-62.5" font-family="FreeSans" font-size="10.00">+ Get()</text>
<text text-anchor="start" x="246.5" y="-51.5" font-family="FreeSans" font-size="10.00">+ Free()</text>
<text text-anchor="start" x="246.5" y="-40.5" font-family="FreeSans" font-size="10.00"># Mgr()</text>
<text text-anchor="start" x="246.5" y="-29.5" font-family="FreeSans" font-size="10.00"># ~Mgr()</text>
<text text-anchor="start" x="246.5" y="-18.5" font-family="FreeSans" font-size="10.00">&#45; Mgr()</text>
<text text-anchor="start" x="246.5" y="-7.5" font-family="FreeSans" font-size="10.00">&#45; operator=()</text>
</a>
</g>
</g>
<!-- Node1&#45;&gt;Node2 -->
<g id="edge2" class="edge"><title>Node1&#45;&gt;Node2</title>
<path fill="none" stroke="#404040" d="M267.879,-171.152C267.602,-161.303 268.206,-151.485 270,-142 270.413,-139.815 270.886,-137.613 271.409,-135.403"/>
<polygon fill="none" stroke="#404040" points="271.479,-135.148 269.201,-128.306 274.641,-123.572 276.918,-130.414 271.479,-135.148"/>
<text text-anchor="middle" x="291" y="-145" font-family="FreeSans" font-size="10.00"> &#45;instance</text>
</g>
<!-- Node2&#45;&gt;Node1 -->
<g id="edge1" class="edge"><title>Node2&#45;&gt;Node1</title>
<path fill="none" stroke="midnightblue" d="M315.1,-133.762C315.442,-136.538 315.745,-139.292 316,-142 316.901,-151.575 317.204,-161.502 317.067,-171.466"/>
<polygon fill="none" stroke="midnightblue" points="318.539,-133.078 313.705,-123.65 311.605,-134.035 318.539,-133.078"/>
</g>
<!-- Node3 -->
<g id="node3" class="node"><title>Node3</title>
<polygon fill="none" stroke="#bfbfbf" points="0,-485.5 0,-542.5 74,-542.5 74,-485.5 0,-485.5"/>
<text text-anchor="middle" x="37" y="-530.5" font-family="FreeSans" font-size="10.00">wxEvtHandler</text>
<polyline fill="none" stroke="#bfbfbf" points="0,-523.5 74,-523.5 "/>
<text text-anchor="middle" x="37" y="-511.5" font-family="FreeSans" font-size="10.00"> </text>
<polyline fill="none" stroke="#bfbfbf" points="0,-504.5 74,-504.5 "/>
<text text-anchor="middle" x="37" y="-492.5" font-family="FreeSans" font-size="10.00"> </text>
</g>
<!-- Node3&#45;&gt;Node1 -->
<g id="edge3" class="edge"><title>Node3&#45;&gt;Node1</title>
<path fill="none" stroke="midnightblue" d="M61.4058,-477.112C67.9714,-468.491 75.3794,-459.59 83,-452 126.445,-408.732 181.852,-367.451 225.934,-337.259"/>
<polygon fill="none" stroke="midnightblue" points="58.5261,-475.12 55.3896,-485.24 64.1524,-479.284 58.5261,-475.12"/>
</g>
<!-- Node4 -->
<g id="node4" class="node"><title>Node4</title>
<polygon fill="none" stroke="#bfbfbf" points="92,-480 92,-548 220,-548 220,-480 92,-480"/>
<text text-anchor="start" x="100" y="-536" font-family="FreeSans" font-size="10.00">std::map&lt; int, MenuBound</text>
<text text-anchor="middle" x="156" y="-525" font-family="FreeSans" font-size="10.00">Script &gt;</text>
<polyline fill="none" stroke="#bfbfbf" points="92,-518 220,-518 "/>
<text text-anchor="start" x="100" y="-506" font-family="FreeSans" font-size="10.00">+ keys</text>
<polyline fill="none" stroke="#bfbfbf" points="92,-499 220,-499 "/>
<text text-anchor="middle" x="156" y="-487" font-family="FreeSans" font-size="10.00"> </text>
</g>
<!-- Node4&#45;&gt;Node1 -->
<g id="edge4" class="edge"><title>Node4&#45;&gt;Node1</title>
<path fill="none" stroke="#404040" d="M173.904,-479.637C183.361,-462.48 195.39,-441.369 207,-423 210.936,-416.773 215.038,-410.433 219.233,-404.068"/>
<polygon fill="none" stroke="#404040" points="219.246,-404.048 219.237,-396.836 225.891,-394.055 225.899,-401.266 219.246,-404.048"/>
<text text-anchor="middle" x="252" y="-426" font-family="FreeSans" font-size="10.00"> &#45;m_MenuIDToScript</text>
</g>
<!-- Node5 -->
<g id="node5" class="node"><title>Node5</title>
<g id="a_node5"><a xlink:href="classScriptingManager#structScriptingManager_1_1MenuBoundScript" target="_top" xlink:title="{ScriptingManager::MenuBound\lScript\n|+ scriptOrFunc\l+ isFunc\l|}">
<polygon fill="none" stroke="black" points="81.5,-623.5 81.5,-702.5 230.5,-702.5 230.5,-623.5 81.5,-623.5"/>
<text text-anchor="start" x="89.5" y="-690.5" font-family="FreeSans" font-size="10.00">ScriptingManager::MenuBound</text>
<text text-anchor="middle" x="156" y="-679.5" font-family="FreeSans" font-size="10.00">Script</text>
<polyline fill="none" stroke="black" points="81.5,-672.5 230.5,-672.5 "/>
<text text-anchor="start" x="89.5" y="-660.5" font-family="FreeSans" font-size="10.00">+ scriptOrFunc</text>
<text text-anchor="start" x="89.5" y="-649.5" font-family="FreeSans" font-size="10.00">+ isFunc</text>
<polyline fill="none" stroke="black" points="81.5,-642.5 230.5,-642.5 "/>
<text text-anchor="middle" x="156" y="-630.5" font-family="FreeSans" font-size="10.00"> </text>
</a>
</g>
</g>
<!-- Node5&#45;&gt;Node4 -->
<g id="edge5" class="edge"><title>Node5&#45;&gt;Node4</title>
<path fill="none" stroke="#404040" d="M156,-623.377C156,-604.076 156,-580.596 156,-560.433"/>
<polygon fill="none" stroke="#404040" points="156,-560.374 152,-554.374 156,-548.374 160,-554.374 156,-560.374"/>
<text text-anchor="middle" x="180" y="-597" font-family="FreeSans" font-size="10.00"> +elements</text>
</g>
<!-- Node6 -->
<g id="node6" class="node"><title>Node6</title>
<g id="a_node6"><a xlink:href="classMenuItemsManager" target="_top" xlink:title="Manager for wxMenuItem pointers. ">
<polygon fill="none" stroke="black" points="238.5,-452.5 238.5,-575.5 363.5,-575.5 363.5,-452.5 238.5,-452.5"/>
<text text-anchor="middle" x="301" y="-563.5" font-family="FreeSans" font-size="10.00">MenuItemsManager</text>
<polyline fill="none" stroke="black" points="238.5,-556.5 363.5,-556.5 "/>
<text text-anchor="start" x="246.5" y="-544.5" font-family="FreeSans" font-size="10.00"># m_MenuItems</text>
<text text-anchor="start" x="246.5" y="-533.5" font-family="FreeSans" font-size="10.00"># m_AutoClearOnDestroy</text>
<polyline fill="none" stroke="black" points="238.5,-526.5 363.5,-526.5 "/>
<text text-anchor="start" x="246.5" y="-514.5" font-family="FreeSans" font-size="10.00">+ MenuItemsManager()</text>
<text text-anchor="start" x="246.5" y="-503.5" font-family="FreeSans" font-size="10.00">+ ~MenuItemsManager()</text>
<text text-anchor="start" x="246.5" y="-492.5" font-family="FreeSans" font-size="10.00">+ CreateFromString()</text>
<text text-anchor="start" x="246.5" y="-481.5" font-family="FreeSans" font-size="10.00">+ Add()</text>
<text text-anchor="start" x="246.5" y="-470.5" font-family="FreeSans" font-size="10.00">+ Insert()</text>
<text text-anchor="start" x="246.5" y="-459.5" font-family="FreeSans" font-size="10.00">+ Clear()</text>
</a>
</g>
</g>
<!-- Node6&#45;&gt;Node1 -->
<g id="edge6" class="edge"><title>Node6&#45;&gt;Node1</title>
<path fill="none" stroke="#404040" d="M301,-452.382C301,-441.304 301,-429.37 301,-417.174"/>
<polygon fill="none" stroke="#404040" points="301,-416.914 297,-410.914 301,-404.914 305,-410.914 301,-416.914"/>
<text text-anchor="middle" x="353.5" y="-426" font-family="FreeSans" font-size="10.00"> &#45;m_MenuItemsManager</text>
</g>
<!-- Node7 -->
<g id="node7" class="node"><title>Node7</title>
<polygon fill="none" stroke="#bfbfbf" points="382,-485.5 382,-542.5 482,-542.5 482,-485.5 382,-485.5"/>
<text text-anchor="middle" x="432" y="-530.5" font-family="FreeSans" font-size="10.00">std::set&lt; wxString &gt;</text>
<polyline fill="none" stroke="#bfbfbf" points="382,-523.5 482,-523.5 "/>
<text text-anchor="start" x="390" y="-511.5" font-family="FreeSans" font-size="10.00">+ keys</text>
<polyline fill="none" stroke="#bfbfbf" points="382,-504.5 482,-504.5 "/>
<text text-anchor="middle" x="432" y="-492.5" font-family="FreeSans" font-size="10.00"> </text>
</g>
<!-- Node7&#45;&gt;Node1 -->
<g id="edge7" class="edge"><title>Node7&#45;&gt;Node1</title>
<path fill="none" stroke="#404040" d="M428.449,-485.126C425.338,-466.765 419.737,-442.589 410,-423 402.642,-408.198 393.399,-393.558 383.425,-379.696"/>
<polygon fill="none" stroke="#404040" points="383.196,-379.388 376.409,-376.951 376.049,-369.749 382.835,-372.186 383.196,-379.388"/>
<text text-anchor="middle" x="448" y="-426" font-family="FreeSans" font-size="10.00"> &#45;m_IncludeSet</text>
</g>
<!-- Node8 -->
<g id="node8" class="node"><title>Node8</title>
<polygon fill="none" stroke="#bfbfbf" points="500,-480 500,-548 610,-548 610,-480 500,-480"/>
<text text-anchor="start" x="508" y="-536" font-family="FreeSans" font-size="10.00">std::map&lt; wxString,</text>
<text text-anchor="middle" x="555" y="-525" font-family="FreeSans" font-size="10.00"> TrustedScriptProps &gt;</text>
<polyline fill="none" stroke="#bfbfbf" points="500,-518 610,-518 "/>
<text text-anchor="start" x="508" y="-506" font-family="FreeSans" font-size="10.00">+ keys</text>
<polyline fill="none" stroke="#bfbfbf" points="500,-499 610,-499 "/>
<text text-anchor="middle" x="555" y="-487" font-family="FreeSans" font-size="10.00"> </text>
</g>
<!-- Node8&#45;&gt;Node1 -->
<g id="edge8" class="edge"><title>Node8&#45;&gt;Node1</title>
<path fill="none" stroke="#404040" d="M532.73,-479.944C519.876,-462.079 502.77,-440.218 485,-423 455.164,-394.092 418.804,-366.33 386.31,-343.647"/>
<polygon fill="none" stroke="#404040" points="386.235,-343.595 379.025,-343.476 376.361,-336.775 383.571,-336.894 386.235,-343.595"/>
<text text-anchor="middle" x="535" y="-426" font-family="FreeSans" font-size="10.00"> &#45;m_TrustedScripts</text>
</g>
<!-- Node9 -->
<g id="node9" class="node"><title>Node9</title>
<g id="a_node9"><a xlink:href="classScriptingManager#structScriptingManager_1_1TrustedScriptProps" target="_top" xlink:title="Script trusts container struct. ">
<polygon fill="none" stroke="black" points="490.5,-623.5 490.5,-702.5 619.5,-702.5 619.5,-623.5 490.5,-623.5"/>
<text text-anchor="start" x="498.5" y="-690.5" font-family="FreeSans" font-size="10.00">ScriptingManager::Trusted</text>
<text text-anchor="middle" x="555" y="-679.5" font-family="FreeSans" font-size="10.00">ScriptProps</text>
<polyline fill="none" stroke="black" points="490.5,-672.5 619.5,-672.5 "/>
<text text-anchor="start" x="498.5" y="-660.5" font-family="FreeSans" font-size="10.00">+ permanent</text>
<text text-anchor="start" x="498.5" y="-649.5" font-family="FreeSans" font-size="10.00">+ crc</text>
<polyline fill="none" stroke="black" points="490.5,-642.5 619.5,-642.5 "/>
<text text-anchor="middle" x="555" y="-630.5" font-family="FreeSans" font-size="10.00"> </text>
</a>
</g>
</g>
<!-- Node9&#45;&gt;Node8 -->
<g id="edge9" class="edge"><title>Node9&#45;&gt;Node8</title>
<path fill="none" stroke="#404040" d="M555,-623.377C555,-604.076 555,-580.596 555,-560.433"/>
<polygon fill="none" stroke="#404040" points="555,-560.374 551,-554.374 555,-548.374 559,-554.374 555,-560.374"/>
<text text-anchor="middle" x="579" y="-597" font-family="FreeSans" font-size="10.00"> +elements</text>
</g>
</g>
</svg>
