<?xml version="1.0" encoding="UTF-8" standalone="no"?>
<!DOCTYPE svg PUBLIC "-//W3C//DTD SVG 1.1//EN"
 "http://www.w3.org/Graphics/SVG/1.1/DTD/svg11.dtd">
<!-- Generated by graphviz version 2.38.0 (20140413.2041)
 -->
<!-- Title: Wiz Pages: 1 -->
<svg width="898pt" height="1223pt"
 viewBox="0.00 0.00 897.50 1223.00" xmlns="http://www.w3.org/2000/svg" xmlns:xlink="http://www.w3.org/1999/xlink">
<g id="graph0" class="graph" transform="scale(1 1) rotate(0) translate(4 1219)">
<title>Wiz</title>
<!-- Node1 -->
<g id="node1" class="node"><title>Node1</title>
<polygon fill="#bfbfbf" stroke="black" points="345.5,-0.5 345.5,-288.5 446.5,-288.5 446.5,-0.5 345.5,-0.5"/>
<text text-anchor="middle" x="396" y="-276.5" font-family="FreeSans" font-size="10.00">Wiz</text>
<polyline fill="none" stroke="black" points="345.5,-269.5 446.5,-269.5 "/>
<text text-anchor="start" x="353.5" y="-257.5" font-family="FreeSans" font-size="10.00"># m_Wizards</text>
<text text-anchor="start" x="353.5" y="-246.5" font-family="FreeSans" font-size="10.00"># m_pWizard</text>
<text text-anchor="start" x="353.5" y="-235.5" font-family="FreeSans" font-size="10.00"># m_Pages</text>
<text text-anchor="start" x="353.5" y="-224.5" font-family="FreeSans" font-size="10.00"># m_LaunchIndex</text>
<text text-anchor="start" x="353.5" y="-213.5" font-family="FreeSans" font-size="10.00"># m_LastXRC</text>
<text text-anchor="start" x="353.5" y="-202.5" font-family="FreeSans" font-size="10.00"># m_DefCompilerID</text>
<text text-anchor="start" x="353.5" y="-191.5" font-family="FreeSans" font-size="10.00"># m_WantDebug</text>
<text text-anchor="start" x="353.5" y="-180.5" font-family="FreeSans" font-size="10.00"># m_DebugName</text>
<text text-anchor="start" x="353.5" y="-169.5" font-family="FreeSans" font-size="10.00">and 6 more...</text>
<polyline fill="none" stroke="black" points="345.5,-162.5 446.5,-162.5 "/>
<text text-anchor="start" x="353.5" y="-150.5" font-family="FreeSans" font-size="10.00">+ Wiz()</text>
<text text-anchor="start" x="353.5" y="-139.5" font-family="FreeSans" font-size="10.00">+ ~Wiz()</text>
<text text-anchor="start" x="353.5" y="-128.5" font-family="FreeSans" font-size="10.00">+ operator=()</text>
<text text-anchor="start" x="353.5" y="-117.5" font-family="FreeSans" font-size="10.00">+ GetCount()</text>
<text text-anchor="start" x="353.5" y="-106.5" font-family="FreeSans" font-size="10.00">+ GetOutputType()</text>
<text text-anchor="start" x="353.5" y="-95.5" font-family="FreeSans" font-size="10.00">+ GetTitle()</text>
<text text-anchor="start" x="353.5" y="-84.5" font-family="FreeSans" font-size="10.00">+ GetDescription()</text>
<text text-anchor="start" x="353.5" y="-73.5" font-family="FreeSans" font-size="10.00">+ GetCategory()</text>
<text text-anchor="start" x="353.5" y="-62.5" font-family="FreeSans" font-size="10.00">and 71 more...</text>
<text text-anchor="start" x="353.5" y="-51.5" font-family="FreeSans" font-size="10.00"># OnAttach()</text>
<text text-anchor="start" x="353.5" y="-40.5" font-family="FreeSans" font-size="10.00"># Clear()</text>
<text text-anchor="start" x="353.5" y="-29.5" font-family="FreeSans" font-size="10.00"># CopyFiles()</text>
<text text-anchor="start" x="353.5" y="-18.5" font-family="FreeSans" font-size="10.00"># GenerateFile()</text>
<text text-anchor="start" x="353.5" y="-7.5" font-family="FreeSans" font-size="10.00">&#45; Wiz()</text>
</g>
<!-- Node2 -->
<g id="node2" class="node"><title>Node2</title>
<g id="a_node2"><a xlink:href="classcbWizardPlugin" target="_top" xlink:title="Base class for wizard plugins. ">
<polygon fill="none" stroke="black" points="30,-336.5 30,-536.5 142,-536.5 142,-336.5 30,-336.5"/>
<text text-anchor="middle" x="86" y="-524.5" font-family="FreeSans" font-size="10.00">cbWizardPlugin</text>
<polyline fill="none" stroke="black" points="30,-517.5 142,-517.5 "/>
<text text-anchor="middle" x="86" y="-505.5" font-family="FreeSans" font-size="10.00"> </text>
<polyline fill="none" stroke="black" points="30,-498.5 142,-498.5 "/>
<text text-anchor="start" x="38" y="-486.5" font-family="FreeSans" font-size="10.00">+ cbWizardPlugin()</text>
<text text-anchor="start" x="38" y="-475.5" font-family="FreeSans" font-size="10.00">+ GetCount()</text>
<text text-anchor="start" x="38" y="-464.5" font-family="FreeSans" font-size="10.00">+ GetOutputType()</text>
<text text-anchor="start" x="38" y="-453.5" font-family="FreeSans" font-size="10.00">+ GetTitle()</text>
<text text-anchor="start" x="38" y="-442.5" font-family="FreeSans" font-size="10.00">+ GetDescription()</text>
<text text-anchor="start" x="38" y="-431.5" font-family="FreeSans" font-size="10.00">+ GetCategory()</text>
<text text-anchor="start" x="38" y="-420.5" font-family="FreeSans" font-size="10.00">+ GetBitmap()</text>
<text text-anchor="start" x="38" y="-409.5" font-family="FreeSans" font-size="10.00">+ GetScriptFilename()</text>
<text text-anchor="start" x="38" y="-398.5" font-family="FreeSans" font-size="10.00">+ Launch()</text>
<text text-anchor="start" x="38" y="-387.5" font-family="FreeSans" font-size="10.00">&#45; BuildMenu()</text>
<text text-anchor="start" x="38" y="-376.5" font-family="FreeSans" font-size="10.00">&#45; RemoveMenu()</text>
<text text-anchor="start" x="38" y="-365.5" font-family="FreeSans" font-size="10.00">&#45; BuildModuleMenu()</text>
<text text-anchor="start" x="38" y="-354.5" font-family="FreeSans" font-size="10.00">&#45; BuildToolBar()</text>
<text text-anchor="start" x="38" y="-343.5" font-family="FreeSans" font-size="10.00">&#45; RemoveToolBar()</text>
</a>
</g>
</g>
<!-- Node2&#45;&gt;Node1 -->
<g id="edge1" class="edge"><title>Node2&#45;&gt;Node1</title>
<path fill="none" stroke="midnightblue" d="M148.877,-340.549C150.242,-339.004 151.617,-337.487 153,-336 211.966,-272.612 293.243,-213.386 345.214,-178.298"/>
<polygon fill="none" stroke="midnightblue" points="145.951,-338.587 142.136,-348.471 151.282,-343.123 145.951,-338.587"/>
</g>
<!-- Node3 -->
<g id="node3" class="node"><title>Node3</title>
<g id="a_node3"><a xlink:href="classcbPlugin" target="_top" xlink:title="Base class for plugins This is the most basic class a plugin must descend from. ">
<polygon fill="none" stroke="black" points="0,-689 0,-900 158,-900 158,-689 0,-689"/>
<text text-anchor="middle" x="79" y="-888" font-family="FreeSans" font-size="10.00">cbPlugin</text>
<polyline fill="none" stroke="black" points="0,-881 158,-881 "/>
<text text-anchor="start" x="8" y="-869" font-family="FreeSans" font-size="10.00"># m_Type</text>
<text text-anchor="start" x="8" y="-858" font-family="FreeSans" font-size="10.00"># m_IsAttached</text>
<polyline fill="none" stroke="black" points="0,-851 158,-851 "/>
<text text-anchor="start" x="8" y="-839" font-family="FreeSans" font-size="10.00">+ cbPlugin()</text>
<text text-anchor="start" x="8" y="-828" font-family="FreeSans" font-size="10.00">+ ~cbPlugin()</text>
<text text-anchor="start" x="8" y="-817" font-family="FreeSans" font-size="10.00">+ GetType()</text>
<text text-anchor="start" x="8" y="-806" font-family="FreeSans" font-size="10.00">+ GetConfigurationPriority()</text>
<text text-anchor="start" x="8" y="-795" font-family="FreeSans" font-size="10.00">+ GetConfigurationGroup()</text>
<text text-anchor="start" x="8" y="-784" font-family="FreeSans" font-size="10.00">+ GetConfigurationPanel()</text>
<text text-anchor="start" x="8" y="-773" font-family="FreeSans" font-size="10.00">+ GetProjectConfigurationPanel()</text>
<text text-anchor="start" x="8" y="-762" font-family="FreeSans" font-size="10.00">+ BuildMenu()</text>
<text text-anchor="start" x="8" y="-751" font-family="FreeSans" font-size="10.00">and 5 more...</text>
<text text-anchor="start" x="8" y="-740" font-family="FreeSans" font-size="10.00"># OnAttach()</text>
<text text-anchor="start" x="8" y="-729" font-family="FreeSans" font-size="10.00"># OnRelease()</text>
<text text-anchor="start" x="8" y="-718" font-family="FreeSans" font-size="10.00"># NotImplemented()</text>
<text text-anchor="start" x="8" y="-707" font-family="FreeSans" font-size="10.00">&#45; Attach()</text>
<text text-anchor="start" x="8" y="-696" font-family="FreeSans" font-size="10.00">&#45; Release()</text>
</a>
</g>
</g>
<!-- Node3&#45;&gt;Node2 -->
<g id="edge2" class="edge"><title>Node3&#45;&gt;Node2</title>
<path fill="none" stroke="midnightblue" d="M81.2638,-678.369C82.1616,-632.71 83.1839,-580.719 84.0484,-536.755"/>
<polygon fill="none" stroke="midnightblue" points="77.7597,-678.547 81.0624,-688.614 84.7584,-678.685 77.7597,-678.547"/>
</g>
<!-- Node4 -->
<g id="node4" class="node"><title>Node4</title>
<polygon fill="none" stroke="#bfbfbf" points="42,-1052.5 42,-1109.5 116,-1109.5 116,-1052.5 42,-1052.5"/>
<text text-anchor="middle" x="79" y="-1097.5" font-family="FreeSans" font-size="10.00">wxEvtHandler</text>
<polyline fill="none" stroke="#bfbfbf" points="42,-1090.5 116,-1090.5 "/>
<text text-anchor="middle" x="79" y="-1078.5" font-family="FreeSans" font-size="10.00"> </text>
<polyline fill="none" stroke="#bfbfbf" points="42,-1071.5 116,-1071.5 "/>
<text text-anchor="middle" x="79" y="-1059.5" font-family="FreeSans" font-size="10.00"> </text>
</g>
<!-- Node4&#45;&gt;Node3 -->
<g id="edge3" class="edge"><title>Node4&#45;&gt;Node3</title>
<path fill="none" stroke="midnightblue" d="M79,-1042.37C79,-1006.2 79,-949.863 79,-900.132"/>
<polygon fill="none" stroke="midnightblue" points="75.5001,-1042.46 79,-1052.46 82.5001,-1042.46 75.5001,-1042.46"/>
</g>
<!-- Node5 -->
<g id="node5" class="node"><title>Node5</title>
<g id="a_node5"><a xlink:href="classWizBuildTargetPanel" target="_top" xlink:title="{WizBuildTargetPanel\n||+ WizBuildTargetPanel()\l+ ~WizBuildTargetPanel()\l+ GetCompilerID()\l+ GetEnableDebug()\l+ GetTargetName()\l+ GetTargetOutputDir()\l+ GetTargetObjectOutputDir()\l+ OnPageChanging()\l}">
<polygon fill="none" stroke="black" points="162,-369.5 162,-503.5 306,-503.5 306,-369.5 162,-369.5"/>
<text text-anchor="middle" x="234" y="-491.5" font-family="FreeSans" font-size="10.00">WizBuildTargetPanel</text>
<polyline fill="none" stroke="black" points="162,-484.5 306,-484.5 "/>
<text text-anchor="middle" x="234" y="-472.5" font-family="FreeSans" font-size="10.00"> </text>
<polyline fill="none" stroke="black" points="162,-465.5 306,-465.5 "/>
<text text-anchor="start" x="170" y="-453.5" font-family="FreeSans" font-size="10.00">+ WizBuildTargetPanel()</text>
<text text-anchor="start" x="170" y="-442.5" font-family="FreeSans" font-size="10.00">+ ~WizBuildTargetPanel()</text>
<text text-anchor="start" x="170" y="-431.5" font-family="FreeSans" font-size="10.00">+ GetCompilerID()</text>
<text text-anchor="start" x="170" y="-420.5" font-family="FreeSans" font-size="10.00">+ GetEnableDebug()</text>
<text text-anchor="start" x="170" y="-409.5" font-family="FreeSans" font-size="10.00">+ GetTargetName()</text>
<text text-anchor="start" x="170" y="-398.5" font-family="FreeSans" font-size="10.00">+ GetTargetOutputDir()</text>
<text text-anchor="start" x="170" y="-387.5" font-family="FreeSans" font-size="10.00">+ GetTargetObjectOutputDir()</text>
<text text-anchor="start" x="170" y="-376.5" font-family="FreeSans" font-size="10.00">+ OnPageChanging()</text>
</a>
</g>
</g>
<!-- Node5&#45;&gt;Node1 -->
<g id="edge4" class="edge"><title>Node5&#45;&gt;Node1</title>
<path fill="none" stroke="#404040" d="M250.461,-369.428C256.795,-348.849 264.968,-326.462 275,-307 292.015,-273.99 315.685,-240.627 337.582,-212.863"/>
<polygon fill="none" stroke="#404040" points="337.745,-212.658 338.368,-205.474 345.239,-203.286 344.616,-210.47 337.745,-212.658"/>
<text text-anchor="middle" x="333.5" y="-310" font-family="FreeSans" font-size="10.00"> #m_pWizBuildTargetPanel</text>
</g>
<!-- Node6 -->
<g id="node6" class="node"><title>Node6</title>
<g id="a_node6"><a xlink:href="classWizPageBase" target="_top" xlink:title="{WizPageBase\n|&#45; m_PageName\l&#45; m_SkipPage\l|+ WizPageBase()\l+ ~WizPageBase()\l+ SkipPage()\l+ OnPageChanging()\l+ OnPageChanged()\l+ GetPrev()\l+ GetNext()\l+ GetPageName()\l+ GetSkipPage()\l+ SetSkipPage()\l}">
<polygon fill="none" stroke="black" points="615.5,-711 615.5,-878 722.5,-878 722.5,-711 615.5,-711"/>
<text text-anchor="middle" x="669" y="-866" font-family="FreeSans" font-size="10.00">WizPageBase</text>
<polyline fill="none" stroke="black" points="615.5,-859 722.5,-859 "/>
<text text-anchor="start" x="623.5" y="-847" font-family="FreeSans" font-size="10.00">&#45; m_PageName</text>
<text text-anchor="start" x="623.5" y="-836" font-family="FreeSans" font-size="10.00">&#45; m_SkipPage</text>
<polyline fill="none" stroke="black" points="615.5,-829 722.5,-829 "/>
<text text-anchor="start" x="623.5" y="-817" font-family="FreeSans" font-size="10.00">+ WizPageBase()</text>
<text text-anchor="start" x="623.5" y="-806" font-family="FreeSans" font-size="10.00">+ ~WizPageBase()</text>
<text text-anchor="start" x="623.5" y="-795" font-family="FreeSans" font-size="10.00">+ SkipPage()</text>
<text text-anchor="start" x="623.5" y="-784" font-family="FreeSans" font-size="10.00">+ OnPageChanging()</text>
<text text-anchor="start" x="623.5" y="-773" font-family="FreeSans" font-size="10.00">+ OnPageChanged()</text>
<text text-anchor="start" x="623.5" y="-762" font-family="FreeSans" font-size="10.00">+ GetPrev()</text>
<text text-anchor="start" x="623.5" y="-751" font-family="FreeSans" font-size="10.00">+ GetNext()</text>
<text text-anchor="start" x="623.5" y="-740" font-family="FreeSans" font-size="10.00">+ GetPageName()</text>
<text text-anchor="start" x="623.5" y="-729" font-family="FreeSans" font-size="10.00">+ GetSkipPage()</text>
<text text-anchor="start" x="623.5" y="-718" font-family="FreeSans" font-size="10.00">+ SetSkipPage()</text>
</a>
</g>
</g>
<!-- Node6&#45;&gt;Node5 -->
<g id="edge5" class="edge"><title>Node6&#45;&gt;Node5</title>
<path fill="none" stroke="midnightblue" d="M664.147,-700.874C656.887,-658.759 640.776,-612.153 606,-584 568.219,-553.415 435.326,-577.094 388,-566 354.011,-558.032 343.15,-557.648 315,-537 302.248,-527.646 290.338,-515.828 279.785,-503.631"/>
<polygon fill="none" stroke="midnightblue" points="660.713,-701.571 665.727,-710.905 667.628,-700.482 660.713,-701.571"/>
</g>
<!-- Node13 -->
<g id="node13" class="node"><title>Node13</title>
<g id="a_node13"><a xlink:href="classWizCompilerPanel" target="_top" xlink:title="{WizCompilerPanel\n|&#45; m_AllowConfigChange\l|+ WizCompilerPanel()\l+ ~WizCompilerPanel()\l+ GetCompilerID()\l+ GetWantDebug()\l+ GetDebugName()\l+ GetDebugOutputDir()\l+ GetDebugObjectOutputDir()\l+ GetWantRelease()\l+ GetReleaseName()\l+ GetReleaseOutputDir()\l+ GetReleaseObjectOutputDir()\l+ OnPageChanging()\l}">
<polygon fill="none" stroke="black" points="632.5,-347.5 632.5,-525.5 783.5,-525.5 783.5,-347.5 632.5,-347.5"/>
<text text-anchor="middle" x="708" y="-513.5" font-family="FreeSans" font-size="10.00">WizCompilerPanel</text>
<polyline fill="none" stroke="black" points="632.5,-506.5 783.5,-506.5 "/>
<text text-anchor="start" x="640.5" y="-494.5" font-family="FreeSans" font-size="10.00">&#45; m_AllowConfigChange</text>
<polyline fill="none" stroke="black" points="632.5,-487.5 783.5,-487.5 "/>
<text text-anchor="start" x="640.5" y="-475.5" font-family="FreeSans" font-size="10.00">+ WizCompilerPanel()</text>
<text text-anchor="start" x="640.5" y="-464.5" font-family="FreeSans" font-size="10.00">+ ~WizCompilerPanel()</text>
<text text-anchor="start" x="640.5" y="-453.5" font-family="FreeSans" font-size="10.00">+ GetCompilerID()</text>
<text text-anchor="start" x="640.5" y="-442.5" font-family="FreeSans" font-size="10.00">+ GetWantDebug()</text>
<text text-anchor="start" x="640.5" y="-431.5" font-family="FreeSans" font-size="10.00">+ GetDebugName()</text>
<text text-anchor="start" x="640.5" y="-420.5" font-family="FreeSans" font-size="10.00">+ GetDebugOutputDir()</text>
<text text-anchor="start" x="640.5" y="-409.5" font-family="FreeSans" font-size="10.00">+ GetDebugObjectOutputDir()</text>
<text text-anchor="start" x="640.5" y="-398.5" font-family="FreeSans" font-size="10.00">+ GetWantRelease()</text>
<text text-anchor="start" x="640.5" y="-387.5" font-family="FreeSans" font-size="10.00">+ GetReleaseName()</text>
<text text-anchor="start" x="640.5" y="-376.5" font-family="FreeSans" font-size="10.00">+ GetReleaseOutputDir()</text>
<text text-anchor="start" x="640.5" y="-365.5" font-family="FreeSans" font-size="10.00">+ GetReleaseObjectOutputDir()</text>
<text text-anchor="start" x="640.5" y="-354.5" font-family="FreeSans" font-size="10.00">+ OnPageChanging()</text>
</a>
</g>
</g>
<!-- Node6&#45;&gt;Node13 -->
<g id="edge13" class="edge"><title>Node6&#45;&gt;Node13</title>
<path fill="none" stroke="midnightblue" d="M679.134,-700.99C685.065,-646.852 692.512,-578.876 698.356,-525.529"/>
<polygon fill="none" stroke="midnightblue" points="675.655,-700.61 678.045,-710.932 682.614,-701.372 675.655,-700.61"/>
</g>
<!-- Node15 -->
<g id="node15" class="node"><title>Node15</title>
<g id="a_node15"><a xlink:href="classWizFilePathPanel" target="_top" xlink:title="{WizFilePathPanel\n|&#45; m_Filename\l&#45; m_HeaderGuard\l&#45; m_AddToProject\l|+ WizFilePathPanel()\l+ ~WizFilePathPanel()\l+ GetFilename()\l+ GetHeaderGuard()\l+ GetAddToProject()\l+ GetTargetIndex()\l+ SetFilePathSelectionFilter()\l+ OnPageChanging()\l}">
<polygon fill="none" stroke="black" points="324,-358.5 324,-514.5 468,-514.5 468,-358.5 324,-358.5"/>
<text text-anchor="middle" x="396" y="-502.5" font-family="FreeSans" font-size="10.00">WizFilePathPanel</text>
<polyline fill="none" stroke="black" points="324,-495.5 468,-495.5 "/>
<text text-anchor="start" x="332" y="-483.5" font-family="FreeSans" font-size="10.00">&#45; m_Filename</text>
<text text-anchor="start" x="332" y="-472.5" font-family="FreeSans" font-size="10.00">&#45; m_HeaderGuard</text>
<text text-anchor="start" x="332" y="-461.5" font-family="FreeSans" font-size="10.00">&#45; m_AddToProject</text>
<polyline fill="none" stroke="black" points="324,-454.5 468,-454.5 "/>
<text text-anchor="start" x="332" y="-442.5" font-family="FreeSans" font-size="10.00">+ WizFilePathPanel()</text>
<text text-anchor="start" x="332" y="-431.5" font-family="FreeSans" font-size="10.00">+ ~WizFilePathPanel()</text>
<text text-anchor="start" x="332" y="-420.5" font-family="FreeSans" font-size="10.00">+ GetFilename()</text>
<text text-anchor="start" x="332" y="-409.5" font-family="FreeSans" font-size="10.00">+ GetHeaderGuard()</text>
<text text-anchor="start" x="332" y="-398.5" font-family="FreeSans" font-size="10.00">+ GetAddToProject()</text>
<text text-anchor="start" x="332" y="-387.5" font-family="FreeSans" font-size="10.00">+ GetTargetIndex()</text>
<text text-anchor="start" x="332" y="-376.5" font-family="FreeSans" font-size="10.00">+ SetFilePathSelectionFilter()</text>
<text text-anchor="start" x="332" y="-365.5" font-family="FreeSans" font-size="10.00">+ OnPageChanging()</text>
</a>
</g>
</g>
<!-- Node6&#45;&gt;Node15 -->
<g id="edge17" class="edge"><title>Node6&#45;&gt;Node15</title>
<path fill="none" stroke="midnightblue" d="M661.128,-700.964C653.107,-660.187 637.228,-614.672 606,-584 584.92,-563.295 569.788,-576.046 542,-566 512.251,-555.245 502.114,-556.235 477,-537 468.423,-530.431 460.189,-522.78 452.475,-514.692"/>
<polygon fill="none" stroke="midnightblue" points="657.711,-701.737 662.956,-710.943 664.597,-700.476 657.711,-701.737"/>
</g>
<!-- Node17 -->
<g id="node17" class="node"><title>Node17</title>
<g id="a_node17"><a xlink:href="classWizProjectPathPanel" target="_top" xlink:title="{WizProjectPathPanel\n||+ WizProjectPathPanel()\l+ ~WizProjectPathPanel()\l+ GetPath()\l+ GetName()\l+ GetFullFileName()\l+ GetTitle()\l+ OnButton()\l+ OnPageChanging()\l+ OnPageChanged()\l}">
<polygon fill="none" stroke="black" points="486,-364 486,-509 614,-509 614,-364 486,-364"/>
<text text-anchor="middle" x="550" y="-497" font-family="FreeSans" font-size="10.00">WizProjectPathPanel</text>
<polyline fill="none" stroke="black" points="486,-490 614,-490 "/>
<text text-anchor="middle" x="550" y="-478" font-family="FreeSans" font-size="10.00"> </text>
<polyline fill="none" stroke="black" points="486,-471 614,-471 "/>
<text text-anchor="start" x="494" y="-459" font-family="FreeSans" font-size="10.00">+ WizProjectPathPanel()</text>
<text text-anchor="start" x="494" y="-448" font-family="FreeSans" font-size="10.00">+ ~WizProjectPathPanel()</text>
<text text-anchor="start" x="494" y="-437" font-family="FreeSans" font-size="10.00">+ GetPath()</text>
<text text-anchor="start" x="494" y="-426" font-family="FreeSans" font-size="10.00">+ GetName()</text>
<text text-anchor="start" x="494" y="-415" font-family="FreeSans" font-size="10.00">+ GetFullFileName()</text>
<text text-anchor="start" x="494" y="-404" font-family="FreeSans" font-size="10.00">+ GetTitle()</text>
<text text-anchor="start" x="494" y="-393" font-family="FreeSans" font-size="10.00">+ OnButton()</text>
<text text-anchor="start" x="494" y="-382" font-family="FreeSans" font-size="10.00">+ OnPageChanging()</text>
<text text-anchor="start" x="494" y="-371" font-family="FreeSans" font-size="10.00">+ OnPageChanged()</text>
</a>
</g>
</g>
<!-- Node6&#45;&gt;Node17 -->
<g id="edge21" class="edge"><title>Node6&#45;&gt;Node17</title>
<path fill="none" stroke="midnightblue" d="M679.957,-700.762C681.105,-654.092 675.482,-598.376 650,-555 642.695,-542.565 633.425,-546.966 623,-537 614.173,-528.561 605.657,-518.947 597.753,-509.1"/>
<polygon fill="none" stroke="midnightblue" points="676.455,-700.764 679.6,-710.881 683.451,-701.011 676.455,-700.764"/>
</g>
<!-- Node7 -->
<g id="node7" class="node"><title>Node7</title>
<polygon fill="none" stroke="#bfbfbf" points="667,-1052.5 667,-1109.5 777,-1109.5 777,-1052.5 667,-1052.5"/>
<text text-anchor="middle" x="722" y="-1097.5" font-family="FreeSans" font-size="10.00">wxWizardPageSimple</text>
<polyline fill="none" stroke="#bfbfbf" points="667,-1090.5 777,-1090.5 "/>
<text text-anchor="middle" x="722" y="-1078.5" font-family="FreeSans" font-size="10.00"> </text>
<polyline fill="none" stroke="#bfbfbf" points="667,-1071.5 777,-1071.5 "/>
<text text-anchor="middle" x="722" y="-1059.5" font-family="FreeSans" font-size="10.00"> </text>
</g>
<!-- Node7&#45;&gt;Node6 -->
<g id="edge6" class="edge"><title>Node7&#45;&gt;Node6</title>
<path fill="none" stroke="midnightblue" d="M715.012,-1042.49C707.261,-1000.88 694.517,-932.474 684.404,-878.188"/>
<polygon fill="none" stroke="midnightblue" points="711.598,-1043.27 716.87,-1052.46 718.479,-1041.99 711.598,-1043.27"/>
</g>
<!-- Node8 -->
<g id="node8" class="node"><title>Node8</title>
<g id="a_node8"><a xlink:title="STL class. ">
<polygon fill="none" stroke="#bfbfbf" points="561.5,-1052.5 561.5,-1109.5 648.5,-1109.5 648.5,-1052.5 561.5,-1052.5"/>
<text text-anchor="middle" x="605" y="-1097.5" font-family="FreeSans" font-size="10.00">std::map&lt; K, T &gt;</text>
<polyline fill="none" stroke="#bfbfbf" points="561.5,-1090.5 648.5,-1090.5 "/>
<text text-anchor="middle" x="605" y="-1078.5" font-family="FreeSans" font-size="10.00"> </text>
<polyline fill="none" stroke="#bfbfbf" points="561.5,-1071.5 648.5,-1071.5 "/>
<text text-anchor="middle" x="605" y="-1059.5" font-family="FreeSans" font-size="10.00"> </text>
</a>
</g>
</g>
<!-- Node8&#45;&gt;Node6 -->
<g id="edge7" class="edge"><title>Node8&#45;&gt;Node6</title>
<path fill="none" stroke="#404040" d="M611.195,-1052.46C619.571,-1015.23 634.931,-946.945 647.714,-890.124"/>
<polygon fill="none" stroke="#404040" points="647.765,-889.895 645.18,-883.164 650.399,-878.188 652.984,-884.919 647.765,-889.895"/>
<text text-anchor="middle" x="657.5" y="-1026" font-family="FreeSans" font-size="10.00"> &#45;s_PagesByName</text>
</g>
<!-- Node9 -->
<g id="node9" class="node"><title>Node9</title>
<polygon fill="none" stroke="#bfbfbf" points="564.5,-1157.5 564.5,-1214.5 593.5,-1214.5 593.5,-1157.5 564.5,-1157.5"/>
<text text-anchor="middle" x="579" y="-1202.5" font-family="FreeSans" font-size="10.00">K</text>
<polyline fill="none" stroke="#bfbfbf" points="564.5,-1195.5 593.5,-1195.5 "/>
<text text-anchor="middle" x="579" y="-1183.5" font-family="FreeSans" font-size="10.00"> </text>
<polyline fill="none" stroke="#bfbfbf" points="564.5,-1176.5 593.5,-1176.5 "/>
<text text-anchor="middle" x="579" y="-1164.5" font-family="FreeSans" font-size="10.00"> </text>
</g>
<!-- Node9&#45;&gt;Node8 -->
<g id="edge8" class="edge"><title>Node9&#45;&gt;Node8</title>
<path fill="none" stroke="#404040" d="M580.197,-1157.44C581.055,-1147.99 582.517,-1137.43 585,-1128 585.599,-1125.73 586.294,-1123.42 587.058,-1121.11"/>
<polygon fill="none" stroke="#404040" points="587.113,-1120.97 585.477,-1113.95 591.331,-1109.73 592.967,-1116.76 587.113,-1120.97"/>
<text text-anchor="middle" x="599" y="-1131" font-family="FreeSans" font-size="10.00"> +keys</text>
</g>
<!-- Node10 -->
<g id="node10" class="node"><title>Node10</title>
<polygon fill="none" stroke="#bfbfbf" points="615.5,-1157.5 615.5,-1214.5 644.5,-1214.5 644.5,-1157.5 615.5,-1157.5"/>
<text text-anchor="middle" x="630" y="-1202.5" font-family="FreeSans" font-size="10.00">T</text>
<polyline fill="none" stroke="#bfbfbf" points="615.5,-1195.5 644.5,-1195.5 "/>
<text text-anchor="middle" x="630" y="-1183.5" font-family="FreeSans" font-size="10.00"> </text>
<polyline fill="none" stroke="#bfbfbf" points="615.5,-1176.5 644.5,-1176.5 "/>
<text text-anchor="middle" x="630" y="-1164.5" font-family="FreeSans" font-size="10.00"> </text>
</g>
<!-- Node10&#45;&gt;Node8 -->
<g id="edge9" class="edge"><title>Node10&#45;&gt;Node8</title>
<path fill="none" stroke="#404040" d="M623.3,-1157.4C620.638,-1146.43 617.525,-1133.6 614.629,-1121.67"/>
<polygon fill="none" stroke="#404040" points="614.549,-1121.34 609.246,-1116.45 611.718,-1109.68 617.02,-1114.57 614.549,-1121.34"/>
<text text-anchor="middle" x="643" y="-1131" font-family="FreeSans" font-size="10.00"> +elements</text>
</g>
<!-- Node11 -->
<g id="node11" class="node"><title>Node11</title>
<g id="a_node11"><a xlink:href="classBuildTargetPanel" target="_top" xlink:title="{BuildTargetPanel\n|+ ID_STATICTEXT1\l+ ID_STATICTEXT3\l+ ID_TEXTCTRL1\l+ ID_STATICTEXT2\l+ ID_COMBOBOX1\l+ ID_STATICTEXT4\l+ ID_TEXTCTRL2\l+ ID_STATICTEXT5\l+ ID_TEXTCTRL3\l+ ID_CHECKBOX1\l&#45; cmbCompiler\l&#45; txtName\l&#45; lblCompiler\l&#45; txtOut\l&#45; StaticText3\l&#45; chkEnableDebug\l&#45; BoxSizer1\l&#45; txtObjOut\l|+ BuildTargetPanel()\l+ ~BuildTargetPanel()\l+ ShowCompiler()\l+ SetTargetName()\l+ SetEnableDebug()\l+ GetCompilerCombo()\l+ GetEnableDebug()\l+ GetTargetName()\l+ GetOutputDir()\l+ GetObjectOutputDir()\l&#45; OntxtNameText()\l}">
<polygon fill="none" stroke="black" points="176,-617.5 176,-971.5 292,-971.5 292,-617.5 176,-617.5"/>
<text text-anchor="middle" x="234" y="-959.5" font-family="FreeSans" font-size="10.00">BuildTargetPanel</text>
<polyline fill="none" stroke="black" points="176,-952.5 292,-952.5 "/>
<text text-anchor="start" x="184" y="-940.5" font-family="FreeSans" font-size="10.00">+ ID_STATICTEXT1</text>
<text text-anchor="start" x="184" y="-929.5" font-family="FreeSans" font-size="10.00">+ ID_STATICTEXT3</text>
<text text-anchor="start" x="184" y="-918.5" font-family="FreeSans" font-size="10.00">+ ID_TEXTCTRL1</text>
<text text-anchor="start" x="184" y="-907.5" font-family="FreeSans" font-size="10.00">+ ID_STATICTEXT2</text>
<text text-anchor="start" x="184" y="-896.5" font-family="FreeSans" font-size="10.00">+ ID_COMBOBOX1</text>
<text text-anchor="start" x="184" y="-885.5" font-family="FreeSans" font-size="10.00">+ ID_STATICTEXT4</text>
<text text-anchor="start" x="184" y="-874.5" font-family="FreeSans" font-size="10.00">+ ID_TEXTCTRL2</text>
<text text-anchor="start" x="184" y="-863.5" font-family="FreeSans" font-size="10.00">+ ID_STATICTEXT5</text>
<text text-anchor="start" x="184" y="-852.5" font-family="FreeSans" font-size="10.00">+ ID_TEXTCTRL3</text>
<text text-anchor="start" x="184" y="-841.5" font-family="FreeSans" font-size="10.00">+ ID_CHECKBOX1</text>
<text text-anchor="start" x="184" y="-830.5" font-family="FreeSans" font-size="10.00">&#45; cmbCompiler</text>
<text text-anchor="start" x="184" y="-819.5" font-family="FreeSans" font-size="10.00">&#45; txtName</text>
<text text-anchor="start" x="184" y="-808.5" font-family="FreeSans" font-size="10.00">&#45; lblCompiler</text>
<text text-anchor="start" x="184" y="-797.5" font-family="FreeSans" font-size="10.00">&#45; txtOut</text>
<text text-anchor="start" x="184" y="-786.5" font-family="FreeSans" font-size="10.00">&#45; StaticText3</text>
<text text-anchor="start" x="184" y="-775.5" font-family="FreeSans" font-size="10.00">&#45; chkEnableDebug</text>
<text text-anchor="start" x="184" y="-764.5" font-family="FreeSans" font-size="10.00">&#45; BoxSizer1</text>
<text text-anchor="start" x="184" y="-753.5" font-family="FreeSans" font-size="10.00">&#45; txtObjOut</text>
<polyline fill="none" stroke="black" points="176,-746.5 292,-746.5 "/>
<text text-anchor="start" x="184" y="-734.5" font-family="FreeSans" font-size="10.00">+ BuildTargetPanel()</text>
<text text-anchor="start" x="184" y="-723.5" font-family="FreeSans" font-size="10.00">+ ~BuildTargetPanel()</text>
<text text-anchor="start" x="184" y="-712.5" font-family="FreeSans" font-size="10.00">+ ShowCompiler()</text>
<text text-anchor="start" x="184" y="-701.5" font-family="FreeSans" font-size="10.00">+ SetTargetName()</text>
<text text-anchor="start" x="184" y="-690.5" font-family="FreeSans" font-size="10.00">+ SetEnableDebug()</text>
<text text-anchor="start" x="184" y="-679.5" font-family="FreeSans" font-size="10.00">+ GetCompilerCombo()</text>
<text text-anchor="start" x="184" y="-668.5" font-family="FreeSans" font-size="10.00">+ GetEnableDebug()</text>
<text text-anchor="start" x="184" y="-657.5" font-family="FreeSans" font-size="10.00">+ GetTargetName()</text>
<text text-anchor="start" x="184" y="-646.5" font-family="FreeSans" font-size="10.00">+ GetOutputDir()</text>
<text text-anchor="start" x="184" y="-635.5" font-family="FreeSans" font-size="10.00">+ GetObjectOutputDir()</text>
<text text-anchor="start" x="184" y="-624.5" font-family="FreeSans" font-size="10.00">&#45; OntxtNameText()</text>
</a>
</g>
</g>
<!-- Node11&#45;&gt;Node5 -->
<g id="edge10" class="edge"><title>Node11&#45;&gt;Node5</title>
<path fill="none" stroke="#404040" d="M234,-617.325C234,-581.64 234,-545.857 234,-515.714"/>
<polygon fill="none" stroke="#404040" points="234,-515.591 230,-509.591 234,-503.591 238,-509.591 234,-515.591"/>
<text text-anchor="middle" x="283.5" y="-558" font-family="FreeSans" font-size="10.00"> &#45;m_pBuildTargetPanel</text>
</g>
<!-- Node12 -->
<g id="node12" class="node"><title>Node12</title>
<polygon fill="none" stroke="#bfbfbf" points="440.5,-1052.5 440.5,-1109.5 493.5,-1109.5 493.5,-1052.5 440.5,-1052.5"/>
<text text-anchor="middle" x="467" y="-1097.5" font-family="FreeSans" font-size="10.00">wxPanel</text>
<polyline fill="none" stroke="#bfbfbf" points="440.5,-1090.5 493.5,-1090.5 "/>
<text text-anchor="middle" x="467" y="-1078.5" font-family="FreeSans" font-size="10.00"> </text>
<polyline fill="none" stroke="#bfbfbf" points="440.5,-1071.5 493.5,-1071.5 "/>
<text text-anchor="middle" x="467" y="-1059.5" font-family="FreeSans" font-size="10.00"> </text>
</g>
<!-- Node12&#45;&gt;Node11 -->
<g id="edge11" class="edge"><title>Node12&#45;&gt;Node11</title>
<path fill="none" stroke="midnightblue" d="M430.319,-1072.77C392.507,-1063.46 334.367,-1043.64 300,-1005 291.003,-994.885 283.232,-983.546 276.521,-971.518"/>
<polygon fill="none" stroke="midnightblue" points="429.875,-1076.26 440.408,-1075.13 431.466,-1069.45 429.875,-1076.26"/>
</g>
<!-- Node14 -->
<g id="node14" class="node"><title>Node14</title>
<g id="a_node14"><a xlink:href="classCompilerPanel" target="_top" xlink:title="{CompilerPanel\n|+ ID_STATICTEXT1\l+ ID_STATICTEXT2\l+ ID_COMBOBOX1\l+ ID_CHECKBOX1\l+ ID_TEXTCTRL3\l+ ID_STATICTEXT3\l+ ID_TEXTCTRL1\l+ ID_STATICTEXT4\land 7 more...\l&#45; StaticBoxSizer2\l&#45; txtDbgObjOut\l&#45; cmbCompiler\l&#45; txtRelName\l&#45; StaticText1\l&#45; BoxSizer4\l&#45; chkConfRelease\l&#45; txtDbgName\land 7 more...\l|+ CompilerPanel()\l+ ~CompilerPanel()\l+ GetCompilerCombo()\l+ EnableConfigurationTargets()\l+ SetWantDebug()\l+ GetWantDebug()\l+ SetDebugName()\l+ GetDebugName()\land 12 more...\l&#45; OnDebugChange()\l&#45; OnReleaseChange()\l}">
<polygon fill="none" stroke="black" points="740.5,-617.5 740.5,-971.5 889.5,-971.5 889.5,-617.5 740.5,-617.5"/>
<text text-anchor="middle" x="815" y="-959.5" font-family="FreeSans" font-size="10.00">CompilerPanel</text>
<polyline fill="none" stroke="black" points="740.5,-952.5 889.5,-952.5 "/>
<text text-anchor="start" x="748.5" y="-940.5" font-family="FreeSans" font-size="10.00">+ ID_STATICTEXT1</text>
<text text-anchor="start" x="748.5" y="-929.5" font-family="FreeSans" font-size="10.00">+ ID_STATICTEXT2</text>
<text text-anchor="start" x="748.5" y="-918.5" font-family="FreeSans" font-size="10.00">+ ID_COMBOBOX1</text>
<text text-anchor="start" x="748.5" y="-907.5" font-family="FreeSans" font-size="10.00">+ ID_CHECKBOX1</text>
<text text-anchor="start" x="748.5" y="-896.5" font-family="FreeSans" font-size="10.00">+ ID_TEXTCTRL3</text>
<text text-anchor="start" x="748.5" y="-885.5" font-family="FreeSans" font-size="10.00">+ ID_STATICTEXT3</text>
<text text-anchor="start" x="748.5" y="-874.5" font-family="FreeSans" font-size="10.00">+ ID_TEXTCTRL1</text>
<text text-anchor="start" x="748.5" y="-863.5" font-family="FreeSans" font-size="10.00">+ ID_STATICTEXT4</text>
<text text-anchor="start" x="748.5" y="-852.5" font-family="FreeSans" font-size="10.00">and 7 more...</text>
<text text-anchor="start" x="748.5" y="-841.5" font-family="FreeSans" font-size="10.00">&#45; StaticBoxSizer2</text>
<text text-anchor="start" x="748.5" y="-830.5" font-family="FreeSans" font-size="10.00">&#45; txtDbgObjOut</text>
<text text-anchor="start" x="748.5" y="-819.5" font-family="FreeSans" font-size="10.00">&#45; cmbCompiler</text>
<text text-anchor="start" x="748.5" y="-808.5" font-family="FreeSans" font-size="10.00">&#45; txtRelName</text>
<text text-anchor="start" x="748.5" y="-797.5" font-family="FreeSans" font-size="10.00">&#45; StaticText1</text>
<text text-anchor="start" x="748.5" y="-786.5" font-family="FreeSans" font-size="10.00">&#45; BoxSizer4</text>
<text text-anchor="start" x="748.5" y="-775.5" font-family="FreeSans" font-size="10.00">&#45; chkConfRelease</text>
<text text-anchor="start" x="748.5" y="-764.5" font-family="FreeSans" font-size="10.00">&#45; txtDbgName</text>
<text text-anchor="start" x="748.5" y="-753.5" font-family="FreeSans" font-size="10.00">and 7 more...</text>
<polyline fill="none" stroke="black" points="740.5,-746.5 889.5,-746.5 "/>
<text text-anchor="start" x="748.5" y="-734.5" font-family="FreeSans" font-size="10.00">+ CompilerPanel()</text>
<text text-anchor="start" x="748.5" y="-723.5" font-family="FreeSans" font-size="10.00">+ ~CompilerPanel()</text>
<text text-anchor="start" x="748.5" y="-712.5" font-family="FreeSans" font-size="10.00">+ GetCompilerCombo()</text>
<text text-anchor="start" x="748.5" y="-701.5" font-family="FreeSans" font-size="10.00">+ EnableConfigurationTargets()</text>
<text text-anchor="start" x="748.5" y="-690.5" font-family="FreeSans" font-size="10.00">+ SetWantDebug()</text>
<text text-anchor="start" x="748.5" y="-679.5" font-family="FreeSans" font-size="10.00">+ GetWantDebug()</text>
<text text-anchor="start" x="748.5" y="-668.5" font-family="FreeSans" font-size="10.00">+ SetDebugName()</text>
<text text-anchor="start" x="748.5" y="-657.5" font-family="FreeSans" font-size="10.00">+ GetDebugName()</text>
<text text-anchor="start" x="748.5" y="-646.5" font-family="FreeSans" font-size="10.00">and 12 more...</text>
<text text-anchor="start" x="748.5" y="-635.5" font-family="FreeSans" font-size="10.00">&#45; OnDebugChange()</text>
<text text-anchor="start" x="748.5" y="-624.5" font-family="FreeSans" font-size="10.00">&#45; OnReleaseChange()</text>
</a>
</g>
</g>
<!-- Node12&#45;&gt;Node14 -->
<g id="edge15" class="edge"><title>Node12&#45;&gt;Node14</title>
<path fill="none" stroke="midnightblue" d="M502.918,-1063.26C531.806,-1050.45 573.744,-1033.27 612,-1023 663.66,-1009.13 689.066,-1038.21 731,-1005 742.827,-995.634 752.997,-984.346 761.74,-971.928"/>
<polygon fill="none" stroke="midnightblue" points="501.335,-1060.14 493.646,-1067.43 504.202,-1066.52 501.335,-1060.14"/>
</g>
<!-- Node16 -->
<g id="node16" class="node"><title>Node16</title>
<g id="a_node16"><a xlink:href="classFilePathPanel" target="_top" xlink:title="{FilePathPanel\n|+ ID_STATICTEXT1\l+ ID_STATICTEXT2\l+ ID_TEXTCTRL1\l+ ID_BUTTON1\l+ ID_STATICTEXT3\l+ ID_TEXTCTRL2\l+ ID_CHECKBOX1\l+ ID_STATICTEXT4\l+ ID_CHECKLISTBOX2\l+ ID_BUTTON2\l+ ID_BUTTON3\l&#45; btnAll\l&#45; lblGuard\l&#45; FlexGridSizer1\l&#45; BoxSizer3\l&#45; clbTargets\l&#45; BoxSizer2\l&#45; chkAddToProject\l&#45; txtFilename\land 6 more...\l|+ FilePathPanel()\l+ ~FilePathPanel()\l+ GetFilename()\l+ GetHeaderGuard()\l+ GetAddToProject()\l+ SetAddToProject()\l+ GetTargetIndex()\l+ SetFilePathSelectionFilter()\l+ ShowHeaderGuard()\l&#45; OntxtFilenameText()\l&#45; OnbtnBrowseClick()\l&#45; OnchkAddToProjectChange()\l&#45; OnbtnAllClick()\l&#45; OnbtnNoneClick()\l&#45; ToggleVisibility()\l}">
<polygon fill="none" stroke="black" points="309.5,-584.5 309.5,-1004.5 458.5,-1004.5 458.5,-584.5 309.5,-584.5"/>
<text text-anchor="middle" x="384" y="-992.5" font-family="FreeSans" font-size="10.00">FilePathPanel</text>
<polyline fill="none" stroke="black" points="309.5,-985.5 458.5,-985.5 "/>
<text text-anchor="start" x="317.5" y="-973.5" font-family="FreeSans" font-size="10.00">+ ID_STATICTEXT1</text>
<text text-anchor="start" x="317.5" y="-962.5" font-family="FreeSans" font-size="10.00">+ ID_STATICTEXT2</text>
<text text-anchor="start" x="317.5" y="-951.5" font-family="FreeSans" font-size="10.00">+ ID_TEXTCTRL1</text>
<text text-anchor="start" x="317.5" y="-940.5" font-family="FreeSans" font-size="10.00">+ ID_BUTTON1</text>
<text text-anchor="start" x="317.5" y="-929.5" font-family="FreeSans" font-size="10.00">+ ID_STATICTEXT3</text>
<text text-anchor="start" x="317.5" y="-918.5" font-family="FreeSans" font-size="10.00">+ ID_TEXTCTRL2</text>
<text text-anchor="start" x="317.5" y="-907.5" font-family="FreeSans" font-size="10.00">+ ID_CHECKBOX1</text>
<text text-anchor="start" x="317.5" y="-896.5" font-family="FreeSans" font-size="10.00">+ ID_STATICTEXT4</text>
<text text-anchor="start" x="317.5" y="-885.5" font-family="FreeSans" font-size="10.00">+ ID_CHECKLISTBOX2</text>
<text text-anchor="start" x="317.5" y="-874.5" font-family="FreeSans" font-size="10.00">+ ID_BUTTON2</text>
<text text-anchor="start" x="317.5" y="-863.5" font-family="FreeSans" font-size="10.00">+ ID_BUTTON3</text>
<text text-anchor="start" x="317.5" y="-852.5" font-family="FreeSans" font-size="10.00">&#45; btnAll</text>
<text text-anchor="start" x="317.5" y="-841.5" font-family="FreeSans" font-size="10.00">&#45; lblGuard</text>
<text text-anchor="start" x="317.5" y="-830.5" font-family="FreeSans" font-size="10.00">&#45; FlexGridSizer1</text>
<text text-anchor="start" x="317.5" y="-819.5" font-family="FreeSans" font-size="10.00">&#45; BoxSizer3</text>
<text text-anchor="start" x="317.5" y="-808.5" font-family="FreeSans" font-size="10.00">&#45; clbTargets</text>
<text text-anchor="start" x="317.5" y="-797.5" font-family="FreeSans" font-size="10.00">&#45; BoxSizer2</text>
<text text-anchor="start" x="317.5" y="-786.5" font-family="FreeSans" font-size="10.00">&#45; chkAddToProject</text>
<text text-anchor="start" x="317.5" y="-775.5" font-family="FreeSans" font-size="10.00">&#45; txtFilename</text>
<text text-anchor="start" x="317.5" y="-764.5" font-family="FreeSans" font-size="10.00">and 6 more...</text>
<polyline fill="none" stroke="black" points="309.5,-757.5 458.5,-757.5 "/>
<text text-anchor="start" x="317.5" y="-745.5" font-family="FreeSans" font-size="10.00">+ FilePathPanel()</text>
<text text-anchor="start" x="317.5" y="-734.5" font-family="FreeSans" font-size="10.00">+ ~FilePathPanel()</text>
<text text-anchor="start" x="317.5" y="-723.5" font-family="FreeSans" font-size="10.00">+ GetFilename()</text>
<text text-anchor="start" x="317.5" y="-712.5" font-family="FreeSans" font-size="10.00">+ GetHeaderGuard()</text>
<text text-anchor="start" x="317.5" y="-701.5" font-family="FreeSans" font-size="10.00">+ GetAddToProject()</text>
<text text-anchor="start" x="317.5" y="-690.5" font-family="FreeSans" font-size="10.00">+ SetAddToProject()</text>
<text text-anchor="start" x="317.5" y="-679.5" font-family="FreeSans" font-size="10.00">+ GetTargetIndex()</text>
<text text-anchor="start" x="317.5" y="-668.5" font-family="FreeSans" font-size="10.00">+ SetFilePathSelectionFilter()</text>
<text text-anchor="start" x="317.5" y="-657.5" font-family="FreeSans" font-size="10.00">+ ShowHeaderGuard()</text>
<text text-anchor="start" x="317.5" y="-646.5" font-family="FreeSans" font-size="10.00">&#45; OntxtFilenameText()</text>
<text text-anchor="start" x="317.5" y="-635.5" font-family="FreeSans" font-size="10.00">&#45; OnbtnBrowseClick()</text>
<text text-anchor="start" x="317.5" y="-624.5" font-family="FreeSans" font-size="10.00">&#45; OnchkAddToProjectChange()</text>
<text text-anchor="start" x="317.5" y="-613.5" font-family="FreeSans" font-size="10.00">&#45; OnbtnAllClick()</text>
<text text-anchor="start" x="317.5" y="-602.5" font-family="FreeSans" font-size="10.00">&#45; OnbtnNoneClick()</text>
<text text-anchor="start" x="317.5" y="-591.5" font-family="FreeSans" font-size="10.00">&#45; ToggleVisibility()</text>
</a>
</g>
</g>
<!-- Node12&#45;&gt;Node16 -->
<g id="edge19" class="edge"><title>Node12&#45;&gt;Node16</title>
<path fill="none" stroke="midnightblue" d="M456.164,-1042.86C452.934,-1031.78 449.143,-1018.79 445.019,-1004.65"/>
<polygon fill="none" stroke="midnightblue" points="452.806,-1043.84 458.966,-1052.46 459.525,-1041.88 452.806,-1043.84"/>
</g>
<!-- Node18 -->
<g id="node18" class="node"><title>Node18</title>
<g id="a_node18"><a xlink:href="classProjectPathPanel" target="_top" xlink:title="{ProjectPathPanel\n|+ ID_STATICTEXT1\l+ ID_STATICTEXT4\l+ ID_TEXTCTRL3\l+ ID_STATICTEXT2\l+ ID_TEXTCTRL1\l+ ID_BUTTON1\l+ ID_STATICTEXT3\l+ ID_TEXTCTRL2\l+ ID_STATICTEXT5\l+ ID_TEXTCTRL4\l&#45; m_LockUpdates\l&#45; txtPrjTitle\l&#45; txtPrjPath\l&#45; BoxSizer2\l&#45; BoxSizer1\l&#45; txtPrjName\l&#45; btnPrjPathBrowse\l&#45; txtFinalDir\l|+ ProjectPathPanel()\l+ ~ProjectPathPanel()\l+ SetPath()\l+ GetPath()\l+ GetName()\l+ GetFullFileName()\l+ GetTitle()\l&#45; Update()\l&#45; UpdateFromResulting()\l&#45; OnFullPathChanged()\l&#45; OntxtFinalDirText()\l&#45; OntxtPrjTitleText()\l}">
<polygon fill="none" stroke="black" points="476.5,-612 476.5,-977 597.5,-977 597.5,-612 476.5,-612"/>
<text text-anchor="middle" x="537" y="-965" font-family="FreeSans" font-size="10.00">ProjectPathPanel</text>
<polyline fill="none" stroke="black" points="476.5,-958 597.5,-958 "/>
<text text-anchor="start" x="484.5" y="-946" font-family="FreeSans" font-size="10.00">+ ID_STATICTEXT1</text>
<text text-anchor="start" x="484.5" y="-935" font-family="FreeSans" font-size="10.00">+ ID_STATICTEXT4</text>
<text text-anchor="start" x="484.5" y="-924" font-family="FreeSans" font-size="10.00">+ ID_TEXTCTRL3</text>
<text text-anchor="start" x="484.5" y="-913" font-family="FreeSans" font-size="10.00">+ ID_STATICTEXT2</text>
<text text-anchor="start" x="484.5" y="-902" font-family="FreeSans" font-size="10.00">+ ID_TEXTCTRL1</text>
<text text-anchor="start" x="484.5" y="-891" font-family="FreeSans" font-size="10.00">+ ID_BUTTON1</text>
<text text-anchor="start" x="484.5" y="-880" font-family="FreeSans" font-size="10.00">+ ID_STATICTEXT3</text>
<text text-anchor="start" x="484.5" y="-869" font-family="FreeSans" font-size="10.00">+ ID_TEXTCTRL2</text>
<text text-anchor="start" x="484.5" y="-858" font-family="FreeSans" font-size="10.00">+ ID_STATICTEXT5</text>
<text text-anchor="start" x="484.5" y="-847" font-family="FreeSans" font-size="10.00">+ ID_TEXTCTRL4</text>
<text text-anchor="start" x="484.5" y="-836" font-family="FreeSans" font-size="10.00">&#45; m_LockUpdates</text>
<text text-anchor="start" x="484.5" y="-825" font-family="FreeSans" font-size="10.00">&#45; txtPrjTitle</text>
<text text-anchor="start" x="484.5" y="-814" font-family="FreeSans" font-size="10.00">&#45; txtPrjPath</text>
<text text-anchor="start" x="484.5" y="-803" font-family="FreeSans" font-size="10.00">&#45; BoxSizer2</text>
<text text-anchor="start" x="484.5" y="-792" font-family="FreeSans" font-size="10.00">&#45; BoxSizer1</text>
<text text-anchor="start" x="484.5" y="-781" font-family="FreeSans" font-size="10.00">&#45; txtPrjName</text>
<text text-anchor="start" x="484.5" y="-770" font-family="FreeSans" font-size="10.00">&#45; btnPrjPathBrowse</text>
<text text-anchor="start" x="484.5" y="-759" font-family="FreeSans" font-size="10.00">&#45; txtFinalDir</text>
<polyline fill="none" stroke="black" points="476.5,-752 597.5,-752 "/>
<text text-anchor="start" x="484.5" y="-740" font-family="FreeSans" font-size="10.00">+ ProjectPathPanel()</text>
<text text-anchor="start" x="484.5" y="-729" font-family="FreeSans" font-size="10.00">+ ~ProjectPathPanel()</text>
<text text-anchor="start" x="484.5" y="-718" font-family="FreeSans" font-size="10.00">+ SetPath()</text>
<text text-anchor="start" x="484.5" y="-707" font-family="FreeSans" font-size="10.00">+ GetPath()</text>
<text text-anchor="start" x="484.5" y="-696" font-family="FreeSans" font-size="10.00">+ GetName()</text>
<text text-anchor="start" x="484.5" y="-685" font-family="FreeSans" font-size="10.00">+ GetFullFileName()</text>
<text text-anchor="start" x="484.5" y="-674" font-family="FreeSans" font-size="10.00">+ GetTitle()</text>
<text text-anchor="start" x="484.5" y="-663" font-family="FreeSans" font-size="10.00">&#45; Update()</text>
<text text-anchor="start" x="484.5" y="-652" font-family="FreeSans" font-size="10.00">&#45; UpdateFromResulting()</text>
<text text-anchor="start" x="484.5" y="-641" font-family="FreeSans" font-size="10.00">&#45; OnFullPathChanged()</text>
<text text-anchor="start" x="484.5" y="-630" font-family="FreeSans" font-size="10.00">&#45; OntxtFinalDirText()</text>
<text text-anchor="start" x="484.5" y="-619" font-family="FreeSans" font-size="10.00">&#45; OntxtPrjTitleText()</text>
</a>
</g>
</g>
<!-- Node12&#45;&gt;Node18 -->
<g id="edge23" class="edge"><title>Node12&#45;&gt;Node18</title>
<path fill="none" stroke="midnightblue" d="M476.226,-1042.5C480.639,-1024.57 486.279,-1001.64 492.338,-977.019"/>
<polygon fill="none" stroke="midnightblue" points="472.766,-1041.92 473.775,-1052.46 479.563,-1043.59 472.766,-1041.92"/>
</g>
<!-- Node13&#45;&gt;Node1 -->
<g id="edge12" class="edge"><title>Node13&#45;&gt;Node1</title>
<path fill="none" stroke="#404040" d="M661.304,-347.247C651.899,-333.037 641.37,-319.056 630,-307 579.253,-253.191 507.744,-207.044 457.164,-178.023"/>
<polygon fill="none" stroke="#404040" points="457.143,-178.011 449.951,-178.533 446.704,-172.094 453.896,-171.573 457.143,-178.011"/>
<text text-anchor="middle" x="692" y="-310" font-family="FreeSans" font-size="10.00"> #m_pWizCompilerPanel</text>
</g>
<!-- Node14&#45;&gt;Node13 -->
<g id="edge14" class="edge"><title>Node14&#45;&gt;Node13</title>
<path fill="none" stroke="#404040" d="M762.049,-617.325C753.784,-589.828 745.502,-562.273 737.992,-537.286"/>
<polygon fill="none" stroke="#404040" points="737.939,-537.109 732.381,-532.514 734.485,-525.617 740.042,-530.212 737.939,-537.109"/>
<text text-anchor="middle" x="790" y="-558" font-family="FreeSans" font-size="10.00"> &#45;m_pCompilerPanel</text>
</g>
<!-- Node15&#45;&gt;Node1 -->
<g id="edge16" class="edge"><title>Node15&#45;&gt;Node1</title>
<path fill="none" stroke="#404040" d="M396,-358.166C396,-340.297 396,-320.66 396,-300.764"/>
<polygon fill="none" stroke="#404040" points="396,-300.695 392,-294.695 396,-288.695 400,-294.695 396,-300.695"/>
<text text-anchor="middle" x="447.5" y="-310" font-family="FreeSans" font-size="10.00"> #m_pWizFilePathPanel</text>
</g>
<!-- Node16&#45;&gt;Node15 -->
<g id="edge18" class="edge"><title>Node16&#45;&gt;Node15</title>
<path fill="none" stroke="#404040" d="M391.05,-584.354C391.726,-564.31 392.383,-544.809 392.986,-526.912"/>
<polygon fill="none" stroke="#404040" points="392.99,-526.784 389.195,-520.653 393.395,-514.791 397.19,-520.923 392.99,-526.784"/>
<text text-anchor="middle" x="434.5" y="-558" font-family="FreeSans" font-size="10.00"> &#45;m_pFilePathPanel</text>
</g>
<!-- Node17&#45;&gt;Node1 -->
<g id="edge20" class="edge"><title>Node17&#45;&gt;Node1</title>
<path fill="none" stroke="#404040" d="M527.17,-363.879C520.25,-345.004 512.053,-324.915 503,-307 488.805,-278.909 470.691,-249.775 453.419,-224.115"/>
<polygon fill="none" stroke="#404040" points="453.348,-224.01 446.665,-221.301 446.596,-214.09 453.279,-216.8 453.348,-224.01"/>
<text text-anchor="middle" x="567" y="-310" font-family="FreeSans" font-size="10.00"> #m_pWizProjectPathPanel</text>
</g>
<!-- Node18&#45;&gt;Node17 -->
<g id="edge22" class="edge"><title>Node18&#45;&gt;Node17</title>
<path fill="none" stroke="#404040" d="M543.633,-611.85C544.79,-580.187 545.94,-548.678 546.939,-521.333"/>
<polygon fill="none" stroke="#404040" points="546.948,-521.068 543.17,-514.926 547.386,-509.076 551.165,-515.218 546.948,-521.068"/>
<text text-anchor="middle" x="596" y="-558" font-family="FreeSans" font-size="10.00"> &#45;m_pProjectPathPanel</text>
</g>
</g>
</svg>
