<?xml version="1.0" encoding="UTF-8" standalone="no"?>
<!DOCTYPE svg PUBLIC "-//W3C//DTD SVG 1.1//EN"
 "http://www.w3.org/Graphics/SVG/1.1/DTD/svg11.dtd">
<!-- Generated by graphviz version 2.40.1 (20161225.0304)
 -->
<!-- Title: WizPageBase Pages: 1 -->
<svg width="347pt" height="712pt"
 viewBox="0.00 0.00 347.00 712.00" xmlns="http://www.w3.org/2000/svg" xmlns:xlink="http://www.w3.org/1999/xlink">
<g id="graph0" class="graph" transform="scale(1 1) rotate(0) translate(4 708)">
<title>WizPageBase</title>
<!-- Node16 -->
<g id="node1" class="node">
<title>Node16</title>
<polygon fill="#bfbfbf" stroke="#000000" points="132.5,-.5 132.5,-156.5 239.5,-156.5 239.5,-.5 132.5,-.5"/>
<text text-anchor="middle" x="186" y="-144.5" font-family="FreeSans" font-size="10.00" fill="#000000">WizPageBase</text>
<polyline fill="none" stroke="#000000" points="132.5,-137.5 239.5,-137.5 "/>
<text text-anchor="start" x="140.5" y="-125.5" font-family="FreeSans" font-size="10.00" fill="#000000">&#45; m_SkipPage</text>
<polyline fill="none" stroke="#000000" points="132.5,-118.5 239.5,-118.5 "/>
<text text-anchor="start" x="140.5" y="-106.5" font-family="FreeSans" font-size="10.00" fill="#000000">+ WizPageBase()</text>
<text text-anchor="start" x="140.5" y="-95.5" font-family="FreeSans" font-size="10.00" fill="#000000">+ ~WizPageBase()</text>
<text text-anchor="start" x="140.5" y="-84.5" font-family="FreeSans" font-size="10.00" fill="#000000">+ SkipPage()</text>
<text text-anchor="start" x="140.5" y="-73.5" font-family="FreeSans" font-size="10.00" fill="#000000">+ OnPageChanging()</text>
<text text-anchor="start" x="140.5" y="-62.5" font-family="FreeSans" font-size="10.00" fill="#000000">+ OnPageChanged()</text>
<text text-anchor="start" x="140.5" y="-51.5" font-family="FreeSans" font-size="10.00" fill="#000000">+ GetPrev()</text>
<text text-anchor="start" x="140.5" y="-40.5" font-family="FreeSans" font-size="10.00" fill="#000000">+ GetNext()</text>
<text text-anchor="start" x="140.5" y="-29.5" font-family="FreeSans" font-size="10.00" fill="#000000">+ GetPageName()</text>
<text text-anchor="start" x="140.5" y="-18.5" font-family="FreeSans" font-size="10.00" fill="#000000">+ GetSkipPage()</text>
<text text-anchor="start" x="140.5" y="-7.5" font-family="FreeSans" font-size="10.00" fill="#000000">+ SetSkipPage()</text>
</g>
<!-- Node17 -->
<g id="node2" class="node">
<title>Node17</title>
<g id="a_node2"><a doxygen="/media/alpha/Barracuda/cb_docs/src/wxTagFile.xml:http://docs.wxwidgets.org/3.0/" xlink:href="http://docs.wxwidgets.org/3.0/classwx_wizard_page_simple.html" target="_top" xlink:title="{wxWizardPageSimple\n||+ wxWizardPageSimple()\l+ wxWizardPageSimple()\l+ Create()\l+ Chain()\l+ SetNext()\l+ SetPrev()\l+ Chain()\l}">
<polygon fill="none" stroke="#000000" points="0,-265 0,-388 124,-388 124,-265 0,-265"/>
<text text-anchor="middle" x="62" y="-376" font-family="FreeSans" font-size="10.00" fill="#000000">wxWizardPageSimple</text>
<polyline fill="none" stroke="#000000" points="0,-369 124,-369 "/>
<text text-anchor="middle" x="62" y="-357" font-family="FreeSans" font-size="10.00" fill="#000000"> </text>
<polyline fill="none" stroke="#000000" points="0,-350 124,-350 "/>
<text text-anchor="start" x="8" y="-338" font-family="FreeSans" font-size="10.00" fill="#000000">+ wxWizardPageSimple()</text>
<text text-anchor="start" x="8" y="-327" font-family="FreeSans" font-size="10.00" fill="#000000">+ wxWizardPageSimple()</text>
<text text-anchor="start" x="8" y="-316" font-family="FreeSans" font-size="10.00" fill="#000000">+ Create()</text>
<text text-anchor="start" x="8" y="-305" font-family="FreeSans" font-size="10.00" fill="#000000">+ Chain()</text>
<text text-anchor="start" x="8" y="-294" font-family="FreeSans" font-size="10.00" fill="#000000">+ SetNext()</text>
<text text-anchor="start" x="8" y="-283" font-family="FreeSans" font-size="10.00" fill="#000000">+ SetPrev()</text>
<text text-anchor="start" x="8" y="-272" font-family="FreeSans" font-size="10.00" fill="#000000">+ Chain()</text>
</a>
</g>
</g>
<!-- Node17&#45;&gt;Node16 -->
<g id="edge1" class="edge">
<title>Node17&#45;&gt;Node16</title>
<path fill="none" stroke="#191970" d="M97.3088,-255.8825C112.784,-224.932 131.0012,-188.4976 146.8866,-156.7267"/>
<polygon fill="none" stroke="#191970" points="94.1527,-254.3684 92.811,-264.878 100.4137,-257.499 94.1527,-254.3684"/>
</g>
<!-- Node18 -->
<g id="node3" class="node">
<title>Node18</title>
<g id="a_node3"><a doxygen="/media/alpha/Barracuda/cb_docs/src/wxTagFile.xml:http://docs.wxwidgets.org/3.0/" xlink:href="http://docs.wxwidgets.org/3.0/classwx_wizard_page.html" target="_top" xlink:title="{wxWizardPage\n||+ wxWizardPage()\l+ wxWizardPage()\l+ Create()\l+ GetBitmap()\l+ GetNext()\l+ GetPrev()\l}">
<polygon fill="none" stroke="#000000" points="15,-496.5 15,-608.5 109,-608.5 109,-496.5 15,-496.5"/>
<text text-anchor="middle" x="62" y="-596.5" font-family="FreeSans" font-size="10.00" fill="#000000">wxWizardPage</text>
<polyline fill="none" stroke="#000000" points="15,-589.5 109,-589.5 "/>
<text text-anchor="middle" x="62" y="-577.5" font-family="FreeSans" font-size="10.00" fill="#000000"> </text>
<polyline fill="none" stroke="#000000" points="15,-570.5 109,-570.5 "/>
<text text-anchor="start" x="23" y="-558.5" font-family="FreeSans" font-size="10.00" fill="#000000">+ wxWizardPage()</text>
<text text-anchor="start" x="23" y="-547.5" font-family="FreeSans" font-size="10.00" fill="#000000">+ wxWizardPage()</text>
<text text-anchor="start" x="23" y="-536.5" font-family="FreeSans" font-size="10.00" fill="#000000">+ Create()</text>
<text text-anchor="start" x="23" y="-525.5" font-family="FreeSans" font-size="10.00" fill="#000000">+ GetBitmap()</text>
<text text-anchor="start" x="23" y="-514.5" font-family="FreeSans" font-size="10.00" fill="#000000">+ GetNext()</text>
<text text-anchor="start" x="23" y="-503.5" font-family="FreeSans" font-size="10.00" fill="#000000">+ GetPrev()</text>
</a>
</g>
</g>
<!-- Node18&#45;&gt;Node17 -->
<g id="edge2" class="edge">
<title>Node18&#45;&gt;Node17</title>
<path fill="none" stroke="#191970" d="M62,-486.0964C62,-455.1898 62,-418.6452 62,-388.3296"/>
<polygon fill="none" stroke="#191970" points="58.5001,-486.3444 62,-496.3445 65.5001,-486.3445 58.5001,-486.3444"/>
</g>
<!-- Node19 -->
<g id="node4" class="node">
<title>Node19</title>
<g id="a_node4"><a doxygen="/media/alpha/Barracuda/cb_docs/src/wxTagFile.xml:http://docs.wxwidgets.org/3.0/" xlink:href="http://docs.wxwidgets.org/3.0/classwx_panel.html" target="_top" xlink:title="{wxPanel\n||}">
<polygon fill="none" stroke="#ff0000" points="35.5,-646.5 35.5,-703.5 88.5,-703.5 88.5,-646.5 35.5,-646.5"/>
<text text-anchor="middle" x="62" y="-691.5" font-family="FreeSans" font-size="10.00" fill="#000000">wxPanel</text>
<polyline fill="none" stroke="#ff0000" points="35.5,-684.5 88.5,-684.5 "/>
<text text-anchor="middle" x="62" y="-672.5" font-family="FreeSans" font-size="10.00" fill="#000000"> </text>
<polyline fill="none" stroke="#ff0000" points="35.5,-665.5 88.5,-665.5 "/>
<text text-anchor="middle" x="62" y="-653.5" font-family="FreeSans" font-size="10.00" fill="#000000"> </text>
</a>
</g>
</g>
<!-- Node19&#45;&gt;Node18 -->
<g id="edge3" class="edge">
<title>Node19&#45;&gt;Node18</title>
<path fill="none" stroke="#191970" d="M62,-636.1358C62,-627.4939 62,-618.1625 62,-608.9752"/>
<polygon fill="none" stroke="#191970" points="58.5001,-636.2792 62,-646.2792 65.5001,-636.2792 58.5001,-636.2792"/>
</g>
<!-- Node24 -->
<g id="node5" class="node">
<title>Node24</title>
<g id="a_node5"><a xlink:title="STL class. ">
<polygon fill="none" stroke="#bfbfbf" points="142.5,-298 142.5,-355 229.5,-355 229.5,-298 142.5,-298"/>
<text text-anchor="middle" x="186" y="-343" font-family="FreeSans" font-size="10.00" fill="#000000">std::map&lt; K, T &gt;</text>
<polyline fill="none" stroke="#bfbfbf" points="142.5,-336 229.5,-336 "/>
<text text-anchor="middle" x="186" y="-324" font-family="FreeSans" font-size="10.00" fill="#000000"> </text>
<polyline fill="none" stroke="#bfbfbf" points="142.5,-317 229.5,-317 "/>
<text text-anchor="middle" x="186" y="-305" font-family="FreeSans" font-size="10.00" fill="#000000"> </text>
</a>
</g>
</g>
<!-- Node24&#45;&gt;Node16 -->
<g id="edge4" class="edge">
<title>Node24&#45;&gt;Node16</title>
<path fill="none" stroke="#404040" d="M186,-297.5659C186,-266.1401 186,-214.3555 186,-169.0234"/>
<polygon fill="none" stroke="#404040" points="186.0001,-168.738 182,-162.738 186,-156.738 190,-162.738 186.0001,-168.738"/>
<text text-anchor="middle" x="225.5" y="-178" font-family="FreeSans" font-size="10.00" fill="#000000"> &#45;s_PagesByName</text>
</g>
<!-- Node25 -->
<g id="node6" class="node">
<title>Node25</title>
<polygon fill="none" stroke="#bfbfbf" points="149.5,-524 149.5,-581 178.5,-581 178.5,-524 149.5,-524"/>
<text text-anchor="middle" x="164" y="-569" font-family="FreeSans" font-size="10.00" fill="#000000">K</text>
<polyline fill="none" stroke="#bfbfbf" points="149.5,-562 178.5,-562 "/>
<text text-anchor="middle" x="164" y="-550" font-family="FreeSans" font-size="10.00" fill="#000000"> </text>
<polyline fill="none" stroke="#bfbfbf" points="149.5,-543 178.5,-543 "/>
<text text-anchor="middle" x="164" y="-531" font-family="FreeSans" font-size="10.00" fill="#000000"> </text>
</g>
<!-- Node25&#45;&gt;Node24 -->
<g id="edge5" class="edge">
<title>Node25&#45;&gt;Node24</title>
<path fill="none" stroke="#404040" d="M163.3607,-523.9554C163.2309,-507.3155 163.4809,-485.9405 165,-467 167.7101,-433.209 173.5638,-395.2011 178.4042,-367.2455"/>
<polygon fill="none" stroke="#404040" points="178.4517,-366.9763 175.5579,-360.3713 180.5419,-355.1597 183.4356,-361.7647 178.4517,-366.9763"/>
<text text-anchor="middle" x="179" y="-470" font-family="FreeSans" font-size="10.00" fill="#000000"> +keys</text>
</g>
<!-- Node26 -->
<g id="node7" class="node">
<title>Node26</title>
<polygon fill="none" stroke="#bfbfbf" points="200.5,-524 200.5,-581 229.5,-581 229.5,-524 200.5,-524"/>
<text text-anchor="middle" x="215" y="-569" font-family="FreeSans" font-size="10.00" fill="#000000">T</text>
<polyline fill="none" stroke="#bfbfbf" points="200.5,-562 229.5,-562 "/>
<text text-anchor="middle" x="215" y="-550" font-family="FreeSans" font-size="10.00" fill="#000000"> </text>
<polyline fill="none" stroke="#bfbfbf" points="200.5,-543 229.5,-543 "/>
<text text-anchor="middle" x="215" y="-531" font-family="FreeSans" font-size="10.00" fill="#000000"> </text>
</g>
<!-- Node26&#45;&gt;Node24 -->
<g id="edge6" class="edge">
<title>Node26&#45;&gt;Node24</title>
<path fill="none" stroke="#404040" d="M211.3271,-523.8769C206.2422,-484.2493 197.0299,-412.4569 191.2284,-367.2451"/>
<polygon fill="none" stroke="#404040" points="191.2161,-367.1491 186.485,-361.707 189.6887,-355.2467 194.4199,-360.6888 191.2161,-367.1491"/>
<text text-anchor="middle" x="228" y="-470" font-family="FreeSans" font-size="10.00" fill="#000000"> +elements</text>
</g>
<!-- Node27 -->
<g id="node8" class="node">
<title>Node27</title>
<g id="a_node8"><a doxygen="/media/alpha/Barracuda/cb_docs/src/wxTagFile.xml:http://docs.wxwidgets.org/3.0/" xlink:href="http://docs.wxwidgets.org/3.0/classwx_string.html" target="_top" xlink:title="{wxString\n|+ npos\l|+ wxString()\l+ wxString()\l+ wxString()\l+ wxString()\l+ wxString()\l+ wxString()\l+ wxString()\l+ wxString()\land 222 more...\l+ Format()\l+ FormatV()\l+ FromCDouble()\l+ FromDouble()\l+ From8BitData()\l+ From8BitData()\l+ FromAscii()\l+ FromAscii()\land 7 more...\l}">
<polygon fill="none" stroke="#000000" points="247.5,-204.5 247.5,-448.5 338.5,-448.5 338.5,-204.5 247.5,-204.5"/>
<text text-anchor="middle" x="293" y="-436.5" font-family="FreeSans" font-size="10.00" fill="#000000">wxString</text>
<polyline fill="none" stroke="#000000" points="247.5,-429.5 338.5,-429.5 "/>
<text text-anchor="start" x="255.5" y="-417.5" font-family="FreeSans" font-size="10.00" fill="#000000">+ npos</text>
<polyline fill="none" stroke="#000000" points="247.5,-410.5 338.5,-410.5 "/>
<text text-anchor="start" x="255.5" y="-398.5" font-family="FreeSans" font-size="10.00" fill="#000000">+ wxString()</text>
<text text-anchor="start" x="255.5" y="-387.5" font-family="FreeSans" font-size="10.00" fill="#000000">+ wxString()</text>
<text text-anchor="start" x="255.5" y="-376.5" font-family="FreeSans" font-size="10.00" fill="#000000">+ wxString()</text>
<text text-anchor="start" x="255.5" y="-365.5" font-family="FreeSans" font-size="10.00" fill="#000000">+ wxString()</text>
<text text-anchor="start" x="255.5" y="-354.5" font-family="FreeSans" font-size="10.00" fill="#000000">+ wxString()</text>
<text text-anchor="start" x="255.5" y="-343.5" font-family="FreeSans" font-size="10.00" fill="#000000">+ wxString()</text>
<text text-anchor="start" x="255.5" y="-332.5" font-family="FreeSans" font-size="10.00" fill="#000000">+ wxString()</text>
<text text-anchor="start" x="255.5" y="-321.5" font-family="FreeSans" font-size="10.00" fill="#000000">+ wxString()</text>
<text text-anchor="start" x="255.5" y="-310.5" font-family="FreeSans" font-size="10.00" fill="#000000">and 222 more...</text>
<text text-anchor="start" x="255.5" y="-299.5" font-family="FreeSans" font-size="10.00" fill="#000000">+ Format()</text>
<text text-anchor="start" x="255.5" y="-288.5" font-family="FreeSans" font-size="10.00" fill="#000000">+ FormatV()</text>
<text text-anchor="start" x="255.5" y="-277.5" font-family="FreeSans" font-size="10.00" fill="#000000">+ FromCDouble()</text>
<text text-anchor="start" x="255.5" y="-266.5" font-family="FreeSans" font-size="10.00" fill="#000000">+ FromDouble()</text>
<text text-anchor="start" x="255.5" y="-255.5" font-family="FreeSans" font-size="10.00" fill="#000000">+ From8BitData()</text>
<text text-anchor="start" x="255.5" y="-244.5" font-family="FreeSans" font-size="10.00" fill="#000000">+ From8BitData()</text>
<text text-anchor="start" x="255.5" y="-233.5" font-family="FreeSans" font-size="10.00" fill="#000000">+ FromAscii()</text>
<text text-anchor="start" x="255.5" y="-222.5" font-family="FreeSans" font-size="10.00" fill="#000000">+ FromAscii()</text>
<text text-anchor="start" x="255.5" y="-211.5" font-family="FreeSans" font-size="10.00" fill="#000000">and 7 more...</text>
</a>
</g>
</g>
<!-- Node27&#45;&gt;Node16 -->
<g id="edge7" class="edge">
<title>Node27&#45;&gt;Node16</title>
<path fill="none" stroke="#404040" d="M279.7956,-204.3953C276.8641,-194.2348 273.3086,-184.3033 269,-175 263.3257,-162.748 255.6318,-150.8472 247.2056,-139.828"/>
<polygon fill="none" stroke="#404040" points="247.1448,-139.7521 240.2723,-137.5684 239.6446,-130.3847 246.5172,-132.5683 247.1448,-139.7521"/>
<text text-anchor="middle" x="305.5" y="-178" font-family="FreeSans" font-size="10.00" fill="#000000"> &#45;m_PageName</text>
</g>
</g>
</svg>
