<?xml version="1.0" encoding="UTF-8" standalone="no"?>
<!DOCTYPE svg PUBLIC "-//W3C//DTD SVG 1.1//EN"
 "http://www.w3.org/Graphics/SVG/1.1/DTD/svg11.dtd">
<!-- Generated by graphviz version 2.38.0 (20140413.2041)
 -->
<!-- Title: CompilerMessages Pages: 1 -->
<svg width="250pt" height="672pt"
 viewBox="0.00 0.00 249.50 672.00" xmlns="http://www.w3.org/2000/svg" xmlns:xlink="http://www.w3.org/1999/xlink">
<g id="graph0" class="graph" transform="scale(1 1) rotate(0) translate(4 668)">
<title>CompilerMessages</title>
<polygon fill="white" stroke="none" points="-4,4 -4,-668 245.5,-668 245.5,4 -4,4"/>
<!-- Node1 -->
<g id="node1" class="node"><title>Node1</title>
<polygon fill="#bfbfbf" stroke="black" points="22.5,-0.5 22.5,-211.5 177.5,-211.5 177.5,-0.5 22.5,-0.5"/>
<text text-anchor="middle" x="100" y="-199.5" font-family="FreeSans" font-size="10.00">CompilerMessages</text>
<polyline fill="none" stroke="black" points="22.5,-192.5 177.5,-192.5 "/>
<text text-anchor="start" x="30.5" y="-180.5" font-family="FreeSans" font-size="10.00">&#45; m_pErrors</text>
<text text-anchor="start" x="30.5" y="-169.5" font-family="FreeSans" font-size="10.00">&#45; m_autoFit</text>
<polyline fill="none" stroke="black" points="22.5,-162.5 177.5,-162.5 "/>
<text text-anchor="start" x="30.5" y="-150.5" font-family="FreeSans" font-size="10.00">+ CompilerMessages()</text>
<text text-anchor="start" x="30.5" y="-139.5" font-family="FreeSans" font-size="10.00">+ ~CompilerMessages()</text>
<text text-anchor="start" x="30.5" y="-128.5" font-family="FreeSans" font-size="10.00">+ SetCompilerErrors()</text>
<text text-anchor="start" x="30.5" y="-117.5" font-family="FreeSans" font-size="10.00">+ FocusError()</text>
<text text-anchor="start" x="30.5" y="-106.5" font-family="FreeSans" font-size="10.00">+ AutoFitColumns()</text>
<text text-anchor="start" x="30.5" y="-95.5" font-family="FreeSans" font-size="10.00">+ CreateControl()</text>
<text text-anchor="start" x="30.5" y="-84.5" font-family="FreeSans" font-size="10.00">+ DestroyControls()</text>
<text text-anchor="start" x="30.5" y="-73.5" font-family="FreeSans" font-size="10.00">+ HasFeature()</text>
<text text-anchor="start" x="30.5" y="-62.5" font-family="FreeSans" font-size="10.00">+ AppendAdditionalMenuItems()</text>
<text text-anchor="start" x="30.5" y="-51.5" font-family="FreeSans" font-size="10.00">&#45; OnClick()</text>
<text text-anchor="start" x="30.5" y="-40.5" font-family="FreeSans" font-size="10.00">&#45; OnDoubleClick()</text>
<text text-anchor="start" x="30.5" y="-29.5" font-family="FreeSans" font-size="10.00">&#45; OnFit()</text>
<text text-anchor="start" x="30.5" y="-18.5" font-family="FreeSans" font-size="10.00">&#45; OnAutoFit()</text>
<text text-anchor="start" x="30.5" y="-7.5" font-family="FreeSans" font-size="10.00">&#45; FitColumns()</text>
</g>
<!-- Node2 -->
<g id="node2" class="node"><title>Node2</title>
<polygon fill="white" stroke="#bfbfbf" points="0,-331 0,-388 74,-388 74,-331 0,-331"/>
<text text-anchor="middle" x="37" y="-376" font-family="FreeSans" font-size="10.00">wxEvtHandler</text>
<polyline fill="none" stroke="#bfbfbf" points="0,-369 74,-369 "/>
<text text-anchor="middle" x="37" y="-357" font-family="FreeSans" font-size="10.00"> </text>
<polyline fill="none" stroke="#bfbfbf" points="0,-350 74,-350 "/>
<text text-anchor="middle" x="37" y="-338" font-family="FreeSans" font-size="10.00"> </text>
</g>
<!-- Node2&#45;&gt;Node1 -->
<g id="edge1" class="edge"><title>Node2&#45;&gt;Node1</title>
<path fill="none" stroke="midnightblue" d="M46.5078,-320.544C53.762,-291.585 64.1219,-250.227 73.7958,-211.609"/>
<polygon fill="none" stroke="midnightblue" points="43.0177,-320.073 43.9828,-330.624 49.8079,-321.774 43.0177,-320.073"/>
</g>
<!-- Node3 -->
<g id="node3" class="node"><title>Node3</title>
<g id="a_node3"><a xlink:href="classListCtrlLogger" target="_top" xlink:title="a logger which prints messages to a wxListCtrl ">
<polygon fill="white" stroke="black" points="92.5,-248.5 92.5,-470.5 235.5,-470.5 235.5,-248.5 92.5,-248.5"/>
<text text-anchor="middle" x="164" y="-458.5" font-family="FreeSans" font-size="10.00">ListCtrlLogger</text>
<polyline fill="none" stroke="black" points="92.5,-451.5 235.5,-451.5 "/>
<text text-anchor="start" x="100.5" y="-439.5" font-family="FreeSans" font-size="10.00"># control</text>
<text text-anchor="start" x="100.5" y="-428.5" font-family="FreeSans" font-size="10.00"># fixed</text>
<text text-anchor="start" x="100.5" y="-417.5" font-family="FreeSans" font-size="10.00"># titles</text>
<text text-anchor="start" x="100.5" y="-406.5" font-family="FreeSans" font-size="10.00"># widths</text>
<text text-anchor="start" x="100.5" y="-395.5" font-family="FreeSans" font-size="10.00"># style</text>
<polyline fill="none" stroke="black" points="92.5,-388.5 235.5,-388.5 "/>
<text text-anchor="start" x="100.5" y="-376.5" font-family="FreeSans" font-size="10.00">+ ListCtrlLogger()</text>
<text text-anchor="start" x="100.5" y="-365.5" font-family="FreeSans" font-size="10.00">+ ~ListCtrlLogger()</text>
<text text-anchor="start" x="100.5" y="-354.5" font-family="FreeSans" font-size="10.00">+ CopyContentsToClipboard()</text>
<text text-anchor="start" x="100.5" y="-343.5" font-family="FreeSans" font-size="10.00">+ UpdateSettings()</text>
<text text-anchor="start" x="100.5" y="-332.5" font-family="FreeSans" font-size="10.00">+ Append()</text>
<text text-anchor="start" x="100.5" y="-321.5" font-family="FreeSans" font-size="10.00">+ Append()</text>
<text text-anchor="start" x="100.5" y="-310.5" font-family="FreeSans" font-size="10.00">+ GetItemsCount()</text>
<text text-anchor="start" x="100.5" y="-299.5" font-family="FreeSans" font-size="10.00">+ Clear()</text>
<text text-anchor="start" x="100.5" y="-288.5" font-family="FreeSans" font-size="10.00">+ CreateControl()</text>
<text text-anchor="start" x="100.5" y="-277.5" font-family="FreeSans" font-size="10.00">+ HasFeature()</text>
<text text-anchor="start" x="100.5" y="-266.5" font-family="FreeSans" font-size="10.00">+ AutoFitColumns()</text>
<text text-anchor="start" x="100.5" y="-255.5" font-family="FreeSans" font-size="10.00"># GetItemAsText()</text>
</a>
</g>
</g>
<!-- Node3&#45;&gt;Node1 -->
<g id="edge2" class="edge"><title>Node3&#45;&gt;Node1</title>
<path fill="none" stroke="midnightblue" d="M133.458,-238.48C131.176,-229.511 128.883,-220.503 126.628,-211.639"/>
<polygon fill="none" stroke="midnightblue" points="130.071,-239.36 135.929,-248.188 136.854,-237.634 130.071,-239.36"/>
</g>
<!-- Node4 -->
<g id="node4" class="node"><title>Node4</title>
<g id="a_node4"><a xlink:href="classLogger" target="_top" xlink:title="The base class for all kinds of loggers, see loggers.h for its derived classes. ">
<polygon fill="white" stroke="black" points="86.5,-507.5 86.5,-663.5 241.5,-663.5 241.5,-507.5 86.5,-507.5"/>
<text text-anchor="middle" x="164" y="-651.5" font-family="FreeSans" font-size="10.00">Logger</text>
<polyline fill="none" stroke="black" points="86.5,-644.5 241.5,-644.5 "/>
<text text-anchor="middle" x="164" y="-632.5" font-family="FreeSans" font-size="10.00"> </text>
<polyline fill="none" stroke="black" points="86.5,-625.5 241.5,-625.5 "/>
<text text-anchor="start" x="94.5" y="-613.5" font-family="FreeSans" font-size="10.00">+ Logger()</text>
<text text-anchor="start" x="94.5" y="-602.5" font-family="FreeSans" font-size="10.00">+ ~Logger()</text>
<text text-anchor="start" x="94.5" y="-591.5" font-family="FreeSans" font-size="10.00">+ Append()</text>
<text text-anchor="start" x="94.5" y="-580.5" font-family="FreeSans" font-size="10.00">+ Clear()</text>
<text text-anchor="start" x="94.5" y="-569.5" font-family="FreeSans" font-size="10.00">+ CopyContentsToClipboard()</text>
<text text-anchor="start" x="94.5" y="-558.5" font-family="FreeSans" font-size="10.00">+ UpdateSettings()</text>
<text text-anchor="start" x="94.5" y="-547.5" font-family="FreeSans" font-size="10.00">+ CreateControl()</text>
<text text-anchor="start" x="94.5" y="-536.5" font-family="FreeSans" font-size="10.00">+ GetWrapMode()</text>
<text text-anchor="start" x="94.5" y="-525.5" font-family="FreeSans" font-size="10.00">+ HasFeature()</text>
<text text-anchor="start" x="94.5" y="-514.5" font-family="FreeSans" font-size="10.00">+ AppendAdditionalMenuItems()</text>
</a>
</g>
</g>
<!-- Node4&#45;&gt;Node3 -->
<g id="edge3" class="edge"><title>Node4&#45;&gt;Node3</title>
<path fill="none" stroke="midnightblue" d="M164,-497.25C164,-488.498 164,-479.535 164,-470.588"/>
<polygon fill="none" stroke="midnightblue" points="160.5,-497.412 164,-507.412 167.5,-497.412 160.5,-497.412"/>
</g>
</g>
</svg>
