<?xml version="1.0" encoding="UTF-8" standalone="no"?>
<!DOCTYPE svg PUBLIC "-//W3C//DTD SVG 1.1//EN"
 "http://www.w3.org/Graphics/SVG/1.1/DTD/svg11.dtd">
<!-- Generated by graphviz version 2.38.0 (20140413.2041)
 -->
<!-- Title: BreakpointsDlg Pages: 1 -->
<svg width="381pt" height="1611pt"
 viewBox="0.00 0.00 381.00 1611.00" xmlns="http://www.w3.org/2000/svg" xmlns:xlink="http://www.w3.org/1999/xlink">
<g id="graph0" class="graph" transform="scale(1 1) rotate(0) translate(4 1607)">
<title>BreakpointsDlg</title>
<polygon fill="white" stroke="none" points="-4,4 -4,-1607 377,-1607 377,4 -4,4"/>
<!-- Node1 -->
<g id="node1" class="node"><title>Node1</title>
<polygon fill="#bfbfbf" stroke="black" points="71.5,-0.5 71.5,-244.5 199.5,-244.5 199.5,-0.5 71.5,-0.5"/>
<text text-anchor="middle" x="135.5" y="-232.5" font-family="FreeSans" font-size="10.00">BreakpointsDlg</text>
<polyline fill="none" stroke="black" points="71.5,-225.5 199.5,-225.5 "/>
<text text-anchor="start" x="79.5" y="-213.5" font-family="FreeSans" font-size="10.00">&#45; m_pList</text>
<text text-anchor="start" x="79.5" y="-202.5" font-family="FreeSans" font-size="10.00">&#45; m_icons</text>
<polyline fill="none" stroke="black" points="71.5,-195.5 199.5,-195.5 "/>
<text text-anchor="start" x="79.5" y="-183.5" font-family="FreeSans" font-size="10.00">+ BreakpointsDlg()</text>
<text text-anchor="start" x="79.5" y="-172.5" font-family="FreeSans" font-size="10.00">+ GetWindow()</text>
<text text-anchor="start" x="79.5" y="-161.5" font-family="FreeSans" font-size="10.00">+ AddBreakpoint()</text>
<text text-anchor="start" x="79.5" y="-150.5" font-family="FreeSans" font-size="10.00">+ RemoveBreakpoint()</text>
<text text-anchor="start" x="79.5" y="-139.5" font-family="FreeSans" font-size="10.00">+ RemoveAllBreakpoints()</text>
<text text-anchor="start" x="79.5" y="-128.5" font-family="FreeSans" font-size="10.00">+ EditBreakpoint()</text>
<text text-anchor="start" x="79.5" y="-117.5" font-family="FreeSans" font-size="10.00">+ EnableBreakpoint()</text>
<text text-anchor="start" x="79.5" y="-106.5" font-family="FreeSans" font-size="10.00">+ Reload()</text>
<text text-anchor="start" x="79.5" y="-95.5" font-family="FreeSans" font-size="10.00">&#45; OnRemove()</text>
<text text-anchor="start" x="79.5" y="-84.5" font-family="FreeSans" font-size="10.00">&#45; OnRemoveAll()</text>
<text text-anchor="start" x="79.5" y="-73.5" font-family="FreeSans" font-size="10.00">&#45; OnProperties()</text>
<text text-anchor="start" x="79.5" y="-62.5" font-family="FreeSans" font-size="10.00">&#45; OnOpen()</text>
<text text-anchor="start" x="79.5" y="-51.5" font-family="FreeSans" font-size="10.00">&#45; OnEnable()</text>
<text text-anchor="start" x="79.5" y="-40.5" font-family="FreeSans" font-size="10.00">&#45; OnShowTemp()</text>
<text text-anchor="start" x="79.5" y="-29.5" font-family="FreeSans" font-size="10.00">&#45; OnRightClick()</text>
<text text-anchor="start" x="79.5" y="-18.5" font-family="FreeSans" font-size="10.00">&#45; OnDoubleClick()</text>
<text text-anchor="start" x="79.5" y="-7.5" font-family="FreeSans" font-size="10.00">and 6 more...</text>
</g>
<!-- Node2 -->
<g id="node2" class="node"><title>Node2</title>
<polygon fill="white" stroke="#bfbfbf" points="0,-331 0,-388 53,-388 53,-331 0,-331"/>
<text text-anchor="middle" x="26.5" y="-376" font-family="FreeSans" font-size="10.00">wxPanel</text>
<polyline fill="none" stroke="#bfbfbf" points="0,-369 53,-369 "/>
<text text-anchor="middle" x="26.5" y="-357" font-family="FreeSans" font-size="10.00"> </text>
<polyline fill="none" stroke="#bfbfbf" points="0,-350 53,-350 "/>
<text text-anchor="middle" x="26.5" y="-338" font-family="FreeSans" font-size="10.00"> </text>
</g>
<!-- Node2&#45;&gt;Node1 -->
<g id="edge1" class="edge"><title>Node2&#45;&gt;Node1</title>
<path fill="none" stroke="midnightblue" d="M43.691,-321.437C53.4546,-300.387 66.2903,-272.714 79.2576,-244.756"/>
<polygon fill="none" stroke="midnightblue" points="40.4644,-320.075 39.4318,-330.62 46.8146,-323.021 40.4644,-320.075"/>
</g>
<!-- Node3 -->
<g id="node3" class="node"><title>Node3</title>
<g id="a_node3"><a xlink:href="classcbBreakpointsDlg" target="_top" xlink:title="{cbBreakpointsDlg\n||+ ~cbBreakpointsDlg()\l+ GetWindow()\l+ AddBreakpoint()\l+ RemoveBreakpoint()\l+ RemoveAllBreakpoints()\l+ EditBreakpoint()\l+ EnableBreakpoint()\l+ Reload()\l}">
<polygon fill="white" stroke="black" points="71.5,-292.5 71.5,-426.5 199.5,-426.5 199.5,-292.5 71.5,-292.5"/>
<text text-anchor="middle" x="135.5" y="-414.5" font-family="FreeSans" font-size="10.00">cbBreakpointsDlg</text>
<polyline fill="none" stroke="black" points="71.5,-407.5 199.5,-407.5 "/>
<text text-anchor="middle" x="135.5" y="-395.5" font-family="FreeSans" font-size="10.00"> </text>
<polyline fill="none" stroke="black" points="71.5,-388.5 199.5,-388.5 "/>
<text text-anchor="start" x="79.5" y="-376.5" font-family="FreeSans" font-size="10.00">+ ~cbBreakpointsDlg()</text>
<text text-anchor="start" x="79.5" y="-365.5" font-family="FreeSans" font-size="10.00">+ GetWindow()</text>
<text text-anchor="start" x="79.5" y="-354.5" font-family="FreeSans" font-size="10.00">+ AddBreakpoint()</text>
<text text-anchor="start" x="79.5" y="-343.5" font-family="FreeSans" font-size="10.00">+ RemoveBreakpoint()</text>
<text text-anchor="start" x="79.5" y="-332.5" font-family="FreeSans" font-size="10.00">+ RemoveAllBreakpoints()</text>
<text text-anchor="start" x="79.5" y="-321.5" font-family="FreeSans" font-size="10.00">+ EditBreakpoint()</text>
<text text-anchor="start" x="79.5" y="-310.5" font-family="FreeSans" font-size="10.00">+ EnableBreakpoint()</text>
<text text-anchor="start" x="79.5" y="-299.5" font-family="FreeSans" font-size="10.00">+ Reload()</text>
</a>
</g>
</g>
<!-- Node3&#45;&gt;Node1 -->
<g id="edge2" class="edge"><title>Node3&#45;&gt;Node1</title>
<path fill="none" stroke="midnightblue" d="M135.5,-282.067C135.5,-270.084 135.5,-257.449 135.5,-244.756"/>
<polygon fill="none" stroke="midnightblue" points="132,-282.414 135.5,-292.414 139,-282.414 132,-282.414"/>
</g>
<!-- Node4 -->
<g id="node4" class="node"><title>Node4</title>
<polygon fill="white" stroke="#bfbfbf" points="217.5,-331 217.5,-388 313.5,-388 313.5,-331 217.5,-331"/>
<text text-anchor="middle" x="265.5" y="-376" font-family="FreeSans" font-size="10.00">std::vector&lt; Item &gt;</text>
<polyline fill="none" stroke="#bfbfbf" points="217.5,-369 313.5,-369 "/>
<text text-anchor="middle" x="265.5" y="-357" font-family="FreeSans" font-size="10.00"> </text>
<polyline fill="none" stroke="#bfbfbf" points="217.5,-350 313.5,-350 "/>
<text text-anchor="middle" x="265.5" y="-338" font-family="FreeSans" font-size="10.00"> </text>
</g>
<!-- Node4&#45;&gt;Node1 -->
<g id="edge3" class="edge"><title>Node4&#45;&gt;Node1</title>
<path fill="none" stroke="#404040" d="M250.077,-330.62C238.706,-310.064 222.351,-280.501 205.544,-250.119"/>
<polygon fill="none" stroke="#404040" points="205.397,-249.852 198.992,-246.538 199.588,-239.351 205.993,-242.665 205.397,-249.852"/>
<text text-anchor="middle" x="250" y="-266" font-family="FreeSans" font-size="10.00"> &#45;m_breakpoints</text>
</g>
<!-- Node5 -->
<g id="node5" class="node"><title>Node5</title>
<g id="a_node5"><a xlink:href="structBreakpointsDlg_1_1Item" target="_top" xlink:title="{BreakpointsDlg::Item\n|+ breakpoint\l+ pluginName\l|+ Item()\l}">
<polygon fill="white" stroke="black" points="212.5,-474.5 212.5,-542.5 318.5,-542.5 318.5,-474.5 212.5,-474.5"/>
<text text-anchor="middle" x="265.5" y="-530.5" font-family="FreeSans" font-size="10.00">BreakpointsDlg::Item</text>
<polyline fill="none" stroke="black" points="212.5,-523.5 318.5,-523.5 "/>
<text text-anchor="start" x="220.5" y="-511.5" font-family="FreeSans" font-size="10.00">+ breakpoint</text>
<text text-anchor="start" x="220.5" y="-500.5" font-family="FreeSans" font-size="10.00">+ pluginName</text>
<polyline fill="none" stroke="black" points="212.5,-493.5 318.5,-493.5 "/>
<text text-anchor="start" x="220.5" y="-481.5" font-family="FreeSans" font-size="10.00">+ Item()</text>
</a>
</g>
</g>
<!-- Node5&#45;&gt;Node4 -->
<g id="edge4" class="edge"><title>Node5&#45;&gt;Node4</title>
<path fill="none" stroke="#404040" d="M265.5,-474.143C265.5,-452.273 265.5,-423.561 265.5,-400.469"/>
<polygon fill="none" stroke="#404040" points="265.5,-400.298 261.5,-394.298 265.5,-388.298 269.5,-394.298 265.5,-400.298"/>
<text text-anchor="middle" x="289.5" y="-448" font-family="FreeSans" font-size="10.00"> +elements</text>
</g>
<!-- Node6 -->
<g id="node6" class="node"><title>Node6</title>
<g id="a_node6"><a xlink:href="classcbDebuggerPlugin" target="_top" xlink:title="Base class for debugger plugins. ">
<polygon fill="white" stroke="black" points="187,-590.5 187,-1065.5 344,-1065.5 344,-590.5 187,-590.5"/>
<text text-anchor="middle" x="265.5" y="-1053.5" font-family="FreeSans" font-size="10.00">cbDebuggerPlugin</text>
<polyline fill="none" stroke="black" points="187,-1046.5 344,-1046.5 "/>
<text text-anchor="start" x="195" y="-1034.5" font-family="FreeSans" font-size="10.00">&#45; m_toolbar</text>
<text text-anchor="start" x="195" y="-1023.5" font-family="FreeSans" font-size="10.00">&#45; m_PreviousLayout</text>
<text text-anchor="start" x="195" y="-1012.5" font-family="FreeSans" font-size="10.00">&#45; m_WaitingCompilerToFinish</text>
<text text-anchor="start" x="195" y="-1001.5" font-family="FreeSans" font-size="10.00">&#45; m_EditorHookId</text>
<text text-anchor="start" x="195" y="-990.5" font-family="FreeSans" font-size="10.00">&#45; m_StartType</text>
<text text-anchor="start" x="195" y="-979.5" font-family="FreeSans" font-size="10.00">&#45; m_DragInProgress</text>
<text text-anchor="start" x="195" y="-968.5" font-family="FreeSans" font-size="10.00">&#45; m_ActiveConfig</text>
<text text-anchor="start" x="195" y="-957.5" font-family="FreeSans" font-size="10.00">&#45; m_LogPageIndex</text>
<text text-anchor="start" x="195" y="-946.5" font-family="FreeSans" font-size="10.00">&#45; m_lastLineWasNormal</text>
<text text-anchor="start" x="195" y="-935.5" font-family="FreeSans" font-size="10.00">&#45; m_guiName</text>
<text text-anchor="start" x="195" y="-924.5" font-family="FreeSans" font-size="10.00">&#45; m_settingsName</text>
<polyline fill="none" stroke="black" points="187,-917.5 344,-917.5 "/>
<text text-anchor="start" x="195" y="-905.5" font-family="FreeSans" font-size="10.00">+ cbDebuggerPlugin()</text>
<text text-anchor="start" x="195" y="-894.5" font-family="FreeSans" font-size="10.00">+ OnAttach()</text>
<text text-anchor="start" x="195" y="-883.5" font-family="FreeSans" font-size="10.00">+ OnRelease()</text>
<text text-anchor="start" x="195" y="-872.5" font-family="FreeSans" font-size="10.00">+ BuildMenu()</text>
<text text-anchor="start" x="195" y="-861.5" font-family="FreeSans" font-size="10.00">+ BuildModuleMenu()</text>
<text text-anchor="start" x="195" y="-850.5" font-family="FreeSans" font-size="10.00">+ BuildToolBar()</text>
<text text-anchor="start" x="195" y="-839.5" font-family="FreeSans" font-size="10.00">+ EditorLinesAddedOrRemoved()</text>
<text text-anchor="start" x="195" y="-828.5" font-family="FreeSans" font-size="10.00">+ OnAttachReal()</text>
<text text-anchor="start" x="195" y="-817.5" font-family="FreeSans" font-size="10.00">and 71 more...</text>
<text text-anchor="start" x="195" y="-806.5" font-family="FreeSans" font-size="10.00"># ConvertDirectory()</text>
<text text-anchor="start" x="195" y="-795.5" font-family="FreeSans" font-size="10.00"># GetProject()</text>
<text text-anchor="start" x="195" y="-784.5" font-family="FreeSans" font-size="10.00"># ResetProject()</text>
<text text-anchor="start" x="195" y="-773.5" font-family="FreeSans" font-size="10.00"># CleanupWhenProjectClosed()</text>
<text text-anchor="start" x="195" y="-762.5" font-family="FreeSans" font-size="10.00"># CompilerFinished()</text>
<text text-anchor="start" x="195" y="-751.5" font-family="FreeSans" font-size="10.00"># SwitchToDebuggingLayout()</text>
<text text-anchor="start" x="195" y="-740.5" font-family="FreeSans" font-size="10.00"># SwitchToPreviousLayout()</text>
<text text-anchor="start" x="195" y="-729.5" font-family="FreeSans" font-size="10.00"># GetDebuggee()</text>
<text text-anchor="start" x="195" y="-718.5" font-family="FreeSans" font-size="10.00"># EnsureBuildUpToDate()</text>
<text text-anchor="start" x="195" y="-707.5" font-family="FreeSans" font-size="10.00"># WaitingCompilerToFinish()</text>
<text text-anchor="start" x="195" y="-696.5" font-family="FreeSans" font-size="10.00"># RunNixConsole()</text>
<text text-anchor="start" x="195" y="-685.5" font-family="FreeSans" font-size="10.00"># MarkAsStopped()</text>
<text text-anchor="start" x="195" y="-674.5" font-family="FreeSans" font-size="10.00">&#45; RegisterValueTooltip()</text>
<text text-anchor="start" x="195" y="-663.5" font-family="FreeSans" font-size="10.00">&#45; ProcessValueTooltip()</text>
<text text-anchor="start" x="195" y="-652.5" font-family="FreeSans" font-size="10.00">&#45; CancelValueTooltip()</text>
<text text-anchor="start" x="195" y="-641.5" font-family="FreeSans" font-size="10.00">&#45; OnEditorOpened()</text>
<text text-anchor="start" x="195" y="-630.5" font-family="FreeSans" font-size="10.00">&#45; OnProjectActivated()</text>
<text text-anchor="start" x="195" y="-619.5" font-family="FreeSans" font-size="10.00">&#45; OnProjectClosed()</text>
<text text-anchor="start" x="195" y="-608.5" font-family="FreeSans" font-size="10.00">&#45; OnCompilerFinished()</text>
<text text-anchor="start" x="195" y="-597.5" font-family="FreeSans" font-size="10.00">&#45; OnEditorHook()</text>
</a>
</g>
</g>
<!-- Node6&#45;&gt;Node5 -->
<g id="edge5" class="edge"><title>Node6&#45;&gt;Node5</title>
<path fill="none" stroke="#404040" d="M265.5,-590.44C265.5,-577.569 265.5,-565.604 265.5,-555.035"/>
<polygon fill="none" stroke="#404040" points="265.5,-554.869 261.5,-548.869 265.5,-542.869 269.5,-548.869 265.5,-554.869"/>
<text text-anchor="middle" x="282.5" y="-564" font-family="FreeSans" font-size="10.00"> +plugin</text>
</g>
<!-- Node7 -->
<g id="node7" class="node"><title>Node7</title>
<g id="a_node7"><a xlink:href="classcbPlugin" target="_top" xlink:title="Base class for plugins This is the most basic class a plugin must descend from. ">
<polygon fill="white" stroke="black" points="170.5,-1296.5 170.5,-1507.5 328.5,-1507.5 328.5,-1296.5 170.5,-1296.5"/>
<text text-anchor="middle" x="249.5" y="-1495.5" font-family="FreeSans" font-size="10.00">cbPlugin</text>
<polyline fill="none" stroke="black" points="170.5,-1488.5 328.5,-1488.5 "/>
<text text-anchor="start" x="178.5" y="-1476.5" font-family="FreeSans" font-size="10.00"># m_Type</text>
<text text-anchor="start" x="178.5" y="-1465.5" font-family="FreeSans" font-size="10.00"># m_IsAttached</text>
<polyline fill="none" stroke="black" points="170.5,-1458.5 328.5,-1458.5 "/>
<text text-anchor="start" x="178.5" y="-1446.5" font-family="FreeSans" font-size="10.00">+ cbPlugin()</text>
<text text-anchor="start" x="178.5" y="-1435.5" font-family="FreeSans" font-size="10.00">+ ~cbPlugin()</text>
<text text-anchor="start" x="178.5" y="-1424.5" font-family="FreeSans" font-size="10.00">+ GetType()</text>
<text text-anchor="start" x="178.5" y="-1413.5" font-family="FreeSans" font-size="10.00">+ GetConfigurationPriority()</text>
<text text-anchor="start" x="178.5" y="-1402.5" font-family="FreeSans" font-size="10.00">+ GetConfigurationGroup()</text>
<text text-anchor="start" x="178.5" y="-1391.5" font-family="FreeSans" font-size="10.00">+ GetConfigurationPanel()</text>
<text text-anchor="start" x="178.5" y="-1380.5" font-family="FreeSans" font-size="10.00">+ GetProjectConfigurationPanel()</text>
<text text-anchor="start" x="178.5" y="-1369.5" font-family="FreeSans" font-size="10.00">+ BuildMenu()</text>
<text text-anchor="start" x="178.5" y="-1358.5" font-family="FreeSans" font-size="10.00">and 6 more...</text>
<text text-anchor="start" x="178.5" y="-1347.5" font-family="FreeSans" font-size="10.00"># OnAttach()</text>
<text text-anchor="start" x="178.5" y="-1336.5" font-family="FreeSans" font-size="10.00"># OnRelease()</text>
<text text-anchor="start" x="178.5" y="-1325.5" font-family="FreeSans" font-size="10.00"># NotImplemented()</text>
<text text-anchor="start" x="178.5" y="-1314.5" font-family="FreeSans" font-size="10.00">&#45; Attach()</text>
<text text-anchor="start" x="178.5" y="-1303.5" font-family="FreeSans" font-size="10.00">&#45; Release()</text>
</a>
</g>
</g>
<!-- Node7&#45;&gt;Node6 -->
<g id="edge6" class="edge"><title>Node7&#45;&gt;Node6</title>
<path fill="none" stroke="midnightblue" d="M252.676,-1286.28C254.14,-1233.5 255.904,-1170.07 257.5,-1113 257.931,-1097.59 258.376,-1081.71 258.825,-1065.71"/>
<polygon fill="none" stroke="midnightblue" points="249.176,-1286.25 252.397,-1296.35 256.173,-1286.45 249.176,-1286.25"/>
</g>
<!-- Node9 -->
<g id="node9" class="node"><title>Node9</title>
<g id="a_node9"><a xlink:href="classcbCompilerPlugin" target="_top" xlink:title="Base class for compiler plugins. ">
<polygon fill="white" stroke="black" points="266,-1113.5 266,-1258.5 373,-1258.5 373,-1113.5 266,-1113.5"/>
<text text-anchor="middle" x="319.5" y="-1246.5" font-family="FreeSans" font-size="10.00">cbCompilerPlugin</text>
<polyline fill="none" stroke="black" points="266,-1239.5 373,-1239.5 "/>
<text text-anchor="middle" x="319.5" y="-1227.5" font-family="FreeSans" font-size="10.00"> </text>
<polyline fill="none" stroke="black" points="266,-1220.5 373,-1220.5 "/>
<text text-anchor="start" x="274" y="-1208.5" font-family="FreeSans" font-size="10.00">+ cbCompilerPlugin()</text>
<text text-anchor="start" x="274" y="-1197.5" font-family="FreeSans" font-size="10.00">+ Run()</text>
<text text-anchor="start" x="274" y="-1186.5" font-family="FreeSans" font-size="10.00">+ Run()</text>
<text text-anchor="start" x="274" y="-1175.5" font-family="FreeSans" font-size="10.00">+ Clean()</text>
<text text-anchor="start" x="274" y="-1164.5" font-family="FreeSans" font-size="10.00">+ Clean()</text>
<text text-anchor="start" x="274" y="-1153.5" font-family="FreeSans" font-size="10.00">+ DistClean()</text>
<text text-anchor="start" x="274" y="-1142.5" font-family="FreeSans" font-size="10.00">+ DistClean()</text>
<text text-anchor="start" x="274" y="-1131.5" font-family="FreeSans" font-size="10.00">+ Build()</text>
<text text-anchor="start" x="274" y="-1120.5" font-family="FreeSans" font-size="10.00">and 11 more...</text>
</a>
</g>
</g>
<!-- Node7&#45;&gt;Node9 -->
<g id="edge9" class="edge"><title>Node7&#45;&gt;Node9</title>
<path fill="none" stroke="midnightblue" d="M286.899,-1286.67C290.01,-1277.15 293.097,-1267.72 296.059,-1258.66"/>
<polygon fill="none" stroke="midnightblue" points="283.565,-1285.6 283.782,-1296.19 290.218,-1287.78 283.565,-1285.6"/>
</g>
<!-- Node8 -->
<g id="node8" class="node"><title>Node8</title>
<polygon fill="white" stroke="#bfbfbf" points="212.5,-1545.5 212.5,-1602.5 286.5,-1602.5 286.5,-1545.5 212.5,-1545.5"/>
<text text-anchor="middle" x="249.5" y="-1590.5" font-family="FreeSans" font-size="10.00">wxEvtHandler</text>
<polyline fill="none" stroke="#bfbfbf" points="212.5,-1583.5 286.5,-1583.5 "/>
<text text-anchor="middle" x="249.5" y="-1571.5" font-family="FreeSans" font-size="10.00"> </text>
<polyline fill="none" stroke="#bfbfbf" points="212.5,-1564.5 286.5,-1564.5 "/>
<text text-anchor="middle" x="249.5" y="-1552.5" font-family="FreeSans" font-size="10.00"> </text>
</g>
<!-- Node8&#45;&gt;Node7 -->
<g id="edge7" class="edge"><title>Node8&#45;&gt;Node7</title>
<path fill="none" stroke="midnightblue" d="M249.5,-1535.19C249.5,-1526.8 249.5,-1517.5 249.5,-1507.84"/>
<polygon fill="none" stroke="midnightblue" points="246,-1535.31 249.5,-1545.31 253,-1535.31 246,-1535.31"/>
</g>
<!-- Node9&#45;&gt;Node6 -->
<g id="edge8" class="edge"><title>Node9&#45;&gt;Node6</title>
<path fill="none" stroke="#404040" d="M308.637,-1113.39C306.957,-1102.31 305.145,-1090.36 303.248,-1077.86"/>
<polygon fill="none" stroke="#404040" points="303.205,-1077.57 298.35,-1072.24 301.405,-1065.71 306.26,-1071.04 303.205,-1077.57"/>
<text text-anchor="middle" x="336" y="-1087" font-family="FreeSans" font-size="10.00"> &#45;m_pCompiler</text>
</g>
</g>
</svg>
