<?xml version="1.0" encoding="UTF-8" standalone="no"?>
<!DOCTYPE svg PUBLIC "-//W3C//DTD SVG 1.1//EN"
 "http://www.w3.org/Graphics/SVG/1.1/DTD/svg11.dtd">
<!-- Generated by graphviz version 2.38.0 (20140413.2041)
 -->
<!-- Title: ProjectPathPanel Pages: 1 -->
<svg width="328pt" height="1178pt"
 viewBox="0.00 0.00 328.00 1178.00" xmlns="http://www.w3.org/2000/svg" xmlns:xlink="http://www.w3.org/1999/xlink">
<g id="graph0" class="graph" transform="scale(1 1) rotate(0) translate(4 1174)">
<title>ProjectPathPanel</title>
<!-- Node6 -->
<g id="node1" class="node"><title>Node6</title>
<polygon fill="#bfbfbf" stroke="black" points="115.5,-0.5 115.5,-288.5 236.5,-288.5 236.5,-0.5 115.5,-0.5"/>
<text text-anchor="middle" x="176" y="-276.5" font-family="FreeSans" font-size="10.00">ProjectPathPanel</text>
<polyline fill="none" stroke="black" points="115.5,-269.5 236.5,-269.5 "/>
<text text-anchor="start" x="123.5" y="-257.5" font-family="FreeSans" font-size="10.00">+ ID_STATICTEXT1</text>
<text text-anchor="start" x="123.5" y="-246.5" font-family="FreeSans" font-size="10.00">+ ID_STATICTEXT4</text>
<text text-anchor="start" x="123.5" y="-235.5" font-family="FreeSans" font-size="10.00">+ ID_TEXTCTRL3</text>
<text text-anchor="start" x="123.5" y="-224.5" font-family="FreeSans" font-size="10.00">+ ID_STATICTEXT2</text>
<text text-anchor="start" x="123.5" y="-213.5" font-family="FreeSans" font-size="10.00">+ ID_TEXTCTRL1</text>
<text text-anchor="start" x="123.5" y="-202.5" font-family="FreeSans" font-size="10.00">+ ID_BUTTON1</text>
<text text-anchor="start" x="123.5" y="-191.5" font-family="FreeSans" font-size="10.00">+ ID_STATICTEXT3</text>
<text text-anchor="start" x="123.5" y="-180.5" font-family="FreeSans" font-size="10.00">+ ID_TEXTCTRL2</text>
<text text-anchor="start" x="123.5" y="-169.5" font-family="FreeSans" font-size="10.00">+ ID_STATICTEXT5</text>
<text text-anchor="start" x="123.5" y="-158.5" font-family="FreeSans" font-size="10.00">+ ID_TEXTCTRL4</text>
<text text-anchor="start" x="123.5" y="-147.5" font-family="FreeSans" font-size="10.00">&#45; m_LockUpdates</text>
<polyline fill="none" stroke="black" points="115.5,-140.5 236.5,-140.5 "/>
<text text-anchor="start" x="123.5" y="-128.5" font-family="FreeSans" font-size="10.00">+ ProjectPathPanel()</text>
<text text-anchor="start" x="123.5" y="-117.5" font-family="FreeSans" font-size="10.00">+ ~ProjectPathPanel()</text>
<text text-anchor="start" x="123.5" y="-106.5" font-family="FreeSans" font-size="10.00">+ SetPath()</text>
<text text-anchor="start" x="123.5" y="-95.5" font-family="FreeSans" font-size="10.00">+ GetPath()</text>
<text text-anchor="start" x="123.5" y="-84.5" font-family="FreeSans" font-size="10.00">+ GetName()</text>
<text text-anchor="start" x="123.5" y="-73.5" font-family="FreeSans" font-size="10.00">+ GetFullFileName()</text>
<text text-anchor="start" x="123.5" y="-62.5" font-family="FreeSans" font-size="10.00">+ GetTitle()</text>
<text text-anchor="start" x="123.5" y="-51.5" font-family="FreeSans" font-size="10.00">&#45; Update()</text>
<text text-anchor="start" x="123.5" y="-40.5" font-family="FreeSans" font-size="10.00">&#45; UpdateFromResulting()</text>
<text text-anchor="start" x="123.5" y="-29.5" font-family="FreeSans" font-size="10.00">&#45; OnFullPathChanged()</text>
<text text-anchor="start" x="123.5" y="-18.5" font-family="FreeSans" font-size="10.00">&#45; OntxtFinalDirText()</text>
<text text-anchor="start" x="123.5" y="-7.5" font-family="FreeSans" font-size="10.00">&#45; OntxtPrjTitleText()</text>
</g>
<!-- Node7 -->
<g id="node2" class="node"><title>Node7</title>
<g id="a_node2"><a doxygen="/media/alpha/Barracuda/cb_docs/src/wxTagFile.xml:http://docs.wxwidgets.org/3.0/" xlink:href="http://docs.wxwidgets.org/3.0/classwx_panel.html" target="_top" xlink:title="{wxPanel\n||}">
<polygon fill="none" stroke="black" points="185.5,-595.5 185.5,-652.5 238.5,-652.5 238.5,-595.5 185.5,-595.5"/>
<text text-anchor="middle" x="212" y="-640.5" font-family="FreeSans" font-size="10.00">wxPanel</text>
<polyline fill="none" stroke="black" points="185.5,-633.5 238.5,-633.5 "/>
<text text-anchor="middle" x="212" y="-621.5" font-family="FreeSans" font-size="10.00"> </text>
<polyline fill="none" stroke="black" points="185.5,-614.5 238.5,-614.5 "/>
<text text-anchor="middle" x="212" y="-602.5" font-family="FreeSans" font-size="10.00"> </text>
</a>
</g>
</g>
<!-- Node7&#45;&gt;Node6 -->
<g id="edge1" class="edge"><title>Node7&#45;&gt;Node6</title>
<path fill="none" stroke="midnightblue" d="M214.424,-585.386C217.677,-526.025 221.879,-407.072 211,-307 210.349,-301.011 209.569,-294.917 208.686,-288.777"/>
<polygon fill="none" stroke="midnightblue" points="210.927,-585.234 213.851,-595.417 217.915,-585.633 210.927,-585.234"/>
</g>
<!-- Node8 -->
<g id="node3" class="node"><title>Node8</title>
<g id="a_node3"><a doxygen="/media/alpha/Barracuda/cb_docs/src/wxTagFile.xml:http://docs.wxwidgets.org/3.0/" xlink:href="http://docs.wxwidgets.org/3.0/classwx_window.html" target="_top" xlink:title="{wxWindow\n||}">
<polygon fill="none" stroke="black" points="143,-911.5 143,-968.5 205,-968.5 205,-911.5 143,-911.5"/>
<text text-anchor="middle" x="174" y="-956.5" font-family="FreeSans" font-size="10.00">wxWindow</text>
<polyline fill="none" stroke="black" points="143,-949.5 205,-949.5 "/>
<text text-anchor="middle" x="174" y="-937.5" font-family="FreeSans" font-size="10.00"> </text>
<polyline fill="none" stroke="black" points="143,-930.5 205,-930.5 "/>
<text text-anchor="middle" x="174" y="-918.5" font-family="FreeSans" font-size="10.00"> </text>
</a>
</g>
</g>
<!-- Node8&#45;&gt;Node7 -->
<g id="edge2" class="edge"><title>Node8&#45;&gt;Node7</title>
<path fill="none" stroke="midnightblue" d="M178.554,-901.366C186.282,-837.51 201.789,-709.377 208.628,-652.865"/>
<polygon fill="none" stroke="midnightblue" points="175.066,-901.062 177.339,-911.41 182.015,-901.903 175.066,-901.062"/>
</g>
<!-- Node16 -->
<g id="node10" class="node"><title>Node16</title>
<g id="a_node10"><a doxygen="/media/alpha/Barracuda/cb_docs/src/wxTagFile.xml:http://docs.wxwidgets.org/3.0/" xlink:href="http://docs.wxwidgets.org/3.0/classwx_control.html" target="_top" xlink:title="{wxControl\n||}">
<polygon fill="none" stroke="black" points="110.5,-671.5 110.5,-728.5 169.5,-728.5 169.5,-671.5 110.5,-671.5"/>
<text text-anchor="middle" x="140" y="-716.5" font-family="FreeSans" font-size="10.00">wxControl</text>
<polyline fill="none" stroke="black" points="110.5,-709.5 169.5,-709.5 "/>
<text text-anchor="middle" x="140" y="-697.5" font-family="FreeSans" font-size="10.00"> </text>
<polyline fill="none" stroke="black" points="110.5,-690.5 169.5,-690.5 "/>
<text text-anchor="middle" x="140" y="-678.5" font-family="FreeSans" font-size="10.00"> </text>
</a>
</g>
</g>
<!-- Node8&#45;&gt;Node16 -->
<g id="edge11" class="edge"><title>Node8&#45;&gt;Node16</title>
<path fill="none" stroke="midnightblue" d="M168.603,-901.223C161.734,-853.137 150.03,-771.207 143.942,-728.591"/>
<polygon fill="none" stroke="midnightblue" points="165.154,-901.828 170.033,-911.233 172.084,-900.838 165.154,-901.828"/>
</g>
<!-- Node9 -->
<g id="node4" class="node"><title>Node9</title>
<g id="a_node4"><a doxygen="/media/alpha/Barracuda/cb_docs/src/wxTagFile.xml:http://docs.wxwidgets.org/3.0/" xlink:href="http://docs.wxwidgets.org/3.0/classwx_evt_handler.html" target="_top" xlink:title="{wxEvtHandler\n||}">
<polygon fill="none" stroke="red" points="137,-1012 137,-1069 211,-1069 211,-1012 137,-1012"/>
<text text-anchor="middle" x="174" y="-1057" font-family="FreeSans" font-size="10.00">wxEvtHandler</text>
<polyline fill="none" stroke="red" points="137,-1050 211,-1050 "/>
<text text-anchor="middle" x="174" y="-1038" font-family="FreeSans" font-size="10.00"> </text>
<polyline fill="none" stroke="red" points="137,-1031 211,-1031 "/>
<text text-anchor="middle" x="174" y="-1019" font-family="FreeSans" font-size="10.00"> </text>
</a>
</g>
</g>
<!-- Node9&#45;&gt;Node8 -->
<g id="edge3" class="edge"><title>Node9&#45;&gt;Node8</title>
<path fill="none" stroke="midnightblue" d="M174,-1001.65C174,-990.732 174,-979.023 174,-968.833"/>
<polygon fill="none" stroke="midnightblue" points="170.5,-1001.8 174,-1011.8 177.5,-1001.8 170.5,-1001.8"/>
</g>
<!-- Node10 -->
<g id="node5" class="node"><title>Node10</title>
<g id="a_node5"><a doxygen="/media/alpha/Barracuda/cb_docs/src/wxTagFile.xml:http://docs.wxwidgets.org/3.0/" xlink:href="http://docs.wxwidgets.org/3.0/classwx_object.html" target="_top" xlink:title="{wxObject\n||}">
<polygon fill="none" stroke="black" points="203,-1112.5 203,-1169.5 259,-1169.5 259,-1112.5 203,-1112.5"/>
<text text-anchor="middle" x="231" y="-1157.5" font-family="FreeSans" font-size="10.00">wxObject</text>
<polyline fill="none" stroke="black" points="203,-1150.5 259,-1150.5 "/>
<text text-anchor="middle" x="231" y="-1138.5" font-family="FreeSans" font-size="10.00"> </text>
<polyline fill="none" stroke="black" points="203,-1131.5 259,-1131.5 "/>
<text text-anchor="middle" x="231" y="-1119.5" font-family="FreeSans" font-size="10.00"> </text>
</a>
</g>
</g>
<!-- Node10&#45;&gt;Node9 -->
<g id="edge4" class="edge"><title>Node10&#45;&gt;Node9</title>
<path fill="none" stroke="midnightblue" d="M209.876,-1103.5C203.339,-1092.2 196.246,-1079.94 190.107,-1069.33"/>
<polygon fill="none" stroke="midnightblue" points="206.933,-1105.4 214.971,-1112.3 212.991,-1101.89 206.933,-1105.4"/>
</g>
<!-- Node13 -->
<g id="node7" class="node"><title>Node13</title>
<g id="a_node7"><a doxygen="/media/alpha/Barracuda/cb_docs/src/wxTagFile.xml:http://docs.wxwidgets.org/3.0/" xlink:href="http://docs.wxwidgets.org/3.0/classwx_sizer.html" target="_top" xlink:title="{wxSizer\n||+ CalcMin()\l+ RecalcSizes()\l}">
<polygon fill="none" stroke="black" points="229,-1006.5 229,-1074.5 313,-1074.5 313,-1006.5 229,-1006.5"/>
<text text-anchor="middle" x="271" y="-1062.5" font-family="FreeSans" font-size="10.00">wxSizer</text>
<polyline fill="none" stroke="black" points="229,-1055.5 313,-1055.5 "/>
<text text-anchor="middle" x="271" y="-1043.5" font-family="FreeSans" font-size="10.00"> </text>
<polyline fill="none" stroke="black" points="229,-1036.5 313,-1036.5 "/>
<text text-anchor="start" x="237" y="-1024.5" font-family="FreeSans" font-size="10.00">+ CalcMin()</text>
<text text-anchor="start" x="237" y="-1013.5" font-family="FreeSans" font-size="10.00">+ RecalcSizes()</text>
</a>
</g>
</g>
<!-- Node10&#45;&gt;Node13 -->
<g id="edge7" class="edge"><title>Node10&#45;&gt;Node13</title>
<path fill="none" stroke="midnightblue" d="M246.07,-1102.89C249.848,-1093.59 253.875,-1083.67 257.567,-1074.58"/>
<polygon fill="none" stroke="midnightblue" points="242.768,-1101.72 242.249,-1112.3 249.254,-1104.35 242.768,-1101.72"/>
</g>
<!-- Node12 -->
<g id="node6" class="node"><title>Node12</title>
<g id="a_node6"><a doxygen="/media/alpha/Barracuda/cb_docs/src/wxTagFile.xml:http://docs.wxwidgets.org/3.0/" xlink:href="http://docs.wxwidgets.org/3.0/classwx_box_sizer.html" target="_top" xlink:title="{wxBoxSizer\n||+ wxBoxSizer()\l+ AddSpacer()\l+ CalcMin()\l+ GetOrientation()\l+ SetOrientation()\l+ RecalcSizes()\l+ wxSizer()\l+ ~wxSizer()\land 77 more...\l}">
<polygon fill="none" stroke="black" points="224,-747.5 224,-892.5 318,-892.5 318,-747.5 224,-747.5"/>
<text text-anchor="middle" x="271" y="-880.5" font-family="FreeSans" font-size="10.00">wxBoxSizer</text>
<polyline fill="none" stroke="black" points="224,-873.5 318,-873.5 "/>
<text text-anchor="middle" x="271" y="-861.5" font-family="FreeSans" font-size="10.00"> </text>
<polyline fill="none" stroke="black" points="224,-854.5 318,-854.5 "/>
<text text-anchor="start" x="232" y="-842.5" font-family="FreeSans" font-size="10.00">+ wxBoxSizer()</text>
<text text-anchor="start" x="232" y="-831.5" font-family="FreeSans" font-size="10.00">+ AddSpacer()</text>
<text text-anchor="start" x="232" y="-820.5" font-family="FreeSans" font-size="10.00">+ CalcMin()</text>
<text text-anchor="start" x="232" y="-809.5" font-family="FreeSans" font-size="10.00">+ GetOrientation()</text>
<text text-anchor="start" x="232" y="-798.5" font-family="FreeSans" font-size="10.00">+ SetOrientation()</text>
<text text-anchor="start" x="232" y="-787.5" font-family="FreeSans" font-size="10.00">+ RecalcSizes()</text>
<text text-anchor="start" x="232" y="-776.5" font-family="FreeSans" font-size="10.00">+ wxSizer()</text>
<text text-anchor="start" x="232" y="-765.5" font-family="FreeSans" font-size="10.00">+ ~wxSizer()</text>
<text text-anchor="start" x="232" y="-754.5" font-family="FreeSans" font-size="10.00">and 77 more...</text>
</a>
</g>
</g>
<!-- Node12&#45;&gt;Node6 -->
<g id="edge5" class="edge"><title>Node12&#45;&gt;Node6</title>
<path fill="none" stroke="#404040" d="M271,-747.138C271,-710.57 271,-665.417 271,-625 271,-625 271,-625 271,-364 271,-325.089 258.173,-285.271 241.945,-250.467"/>
<polygon fill="none" stroke="#404040" points="241.793,-250.153 235.58,-246.494 236.569,-239.351 242.782,-243.01 241.793,-250.153"/>
<text text-anchor="middle" x="295.5" y="-507" font-family="FreeSans" font-size="10.00"> &#45;BoxSizer1</text>
<text text-anchor="middle" x="295.5" y="-496" font-family="FreeSans" font-size="10.00">&#45;BoxSizer2</text>
</g>
<!-- Node13&#45;&gt;Node12 -->
<g id="edge6" class="edge"><title>Node13&#45;&gt;Node12</title>
<path fill="none" stroke="midnightblue" d="M271,-996.312C271,-966.74 271,-926.827 271,-892.555"/>
<polygon fill="none" stroke="midnightblue" points="267.5,-996.315 271,-1006.31 274.5,-996.315 267.5,-996.315"/>
</g>
<!-- Node14 -->
<g id="node8" class="node"><title>Node14</title>
<g id="a_node8"><a doxygen="/media/alpha/Barracuda/cb_docs/src/wxTagFile.xml:http://docs.wxwidgets.org/3.0/" xlink:href="http://docs.wxwidgets.org/3.0/classwx_button.html" target="_top" xlink:title="{wxButton\n||}">
<polygon fill="none" stroke="black" points="109,-336.5 109,-393.5 165,-393.5 165,-336.5 109,-336.5"/>
<text text-anchor="middle" x="137" y="-381.5" font-family="FreeSans" font-size="10.00">wxButton</text>
<polyline fill="none" stroke="black" points="109,-374.5 165,-374.5 "/>
<text text-anchor="middle" x="137" y="-362.5" font-family="FreeSans" font-size="10.00"> </text>
<polyline fill="none" stroke="black" points="109,-355.5 165,-355.5 "/>
<text text-anchor="middle" x="137" y="-343.5" font-family="FreeSans" font-size="10.00"> </text>
</a>
</g>
</g>
<!-- Node14&#45;&gt;Node6 -->
<g id="edge8" class="edge"><title>Node14&#45;&gt;Node6</title>
<path fill="none" stroke="#404040" d="M129.278,-336.478C127.554,-327.129 126.601,-316.617 128,-307 128.318,-304.816 128.659,-302.619 129.021,-300.414"/>
<polygon fill="none" stroke="#404040" points="129.03,-300.362 126.154,-293.75 131.151,-288.551 134.028,-295.164 129.03,-300.362"/>
<text text-anchor="middle" x="169.5" y="-310" font-family="FreeSans" font-size="10.00"> &#45;btnPrjPathBrowse</text>
</g>
<!-- Node15 -->
<g id="node9" class="node"><title>Node15</title>
<g id="a_node9"><a doxygen="/media/alpha/Barracuda/cb_docs/src/wxTagFile.xml:http://docs.wxwidgets.org/3.0/" xlink:href="http://docs.wxwidgets.org/3.0/classwx_any_button.html" target="_top" xlink:title="{wxAnyButton\n||+ wxAnyButton()\l+ ~wxAnyButton()\l+ GetBitmap()\l+ GetBitmapCurrent()\l+ GetBitmapDisabled()\l+ GetBitmapFocus()\l+ GetBitmapLabel()\l+ GetBitmapPressed()\land 10 more...\l}">
<polygon fill="none" stroke="black" points="83,-431.5 83,-576.5 197,-576.5 197,-431.5 83,-431.5"/>
<text text-anchor="middle" x="140" y="-564.5" font-family="FreeSans" font-size="10.00">wxAnyButton</text>
<polyline fill="none" stroke="black" points="83,-557.5 197,-557.5 "/>
<text text-anchor="middle" x="140" y="-545.5" font-family="FreeSans" font-size="10.00"> </text>
<polyline fill="none" stroke="black" points="83,-538.5 197,-538.5 "/>
<text text-anchor="start" x="91" y="-526.5" font-family="FreeSans" font-size="10.00">+ wxAnyButton()</text>
<text text-anchor="start" x="91" y="-515.5" font-family="FreeSans" font-size="10.00">+ ~wxAnyButton()</text>
<text text-anchor="start" x="91" y="-504.5" font-family="FreeSans" font-size="10.00">+ GetBitmap()</text>
<text text-anchor="start" x="91" y="-493.5" font-family="FreeSans" font-size="10.00">+ GetBitmapCurrent()</text>
<text text-anchor="start" x="91" y="-482.5" font-family="FreeSans" font-size="10.00">+ GetBitmapDisabled()</text>
<text text-anchor="start" x="91" y="-471.5" font-family="FreeSans" font-size="10.00">+ GetBitmapFocus()</text>
<text text-anchor="start" x="91" y="-460.5" font-family="FreeSans" font-size="10.00">+ GetBitmapLabel()</text>
<text text-anchor="start" x="91" y="-449.5" font-family="FreeSans" font-size="10.00">+ GetBitmapPressed()</text>
<text text-anchor="start" x="91" y="-438.5" font-family="FreeSans" font-size="10.00">and 10 more...</text>
</a>
</g>
</g>
<!-- Node15&#45;&gt;Node14 -->
<g id="edge9" class="edge"><title>Node15&#45;&gt;Node14</title>
<path fill="none" stroke="midnightblue" d="M138.205,-421.042C137.992,-411.306 137.787,-401.948 137.609,-393.796"/>
<polygon fill="none" stroke="midnightblue" points="134.712,-421.369 138.43,-431.29 141.71,-421.216 134.712,-421.369"/>
</g>
<!-- Node16&#45;&gt;Node15 -->
<g id="edge10" class="edge"><title>Node16&#45;&gt;Node15</title>
<path fill="none" stroke="midnightblue" d="M140,-661.1C140,-637.105 140,-605.313 140,-576.685"/>
<polygon fill="none" stroke="midnightblue" points="136.5,-661.204 140,-671.205 143.5,-661.205 136.5,-661.204"/>
</g>
<!-- Node17 -->
<g id="node11" class="node"><title>Node17</title>
<g id="a_node11"><a doxygen="/media/alpha/Barracuda/cb_docs/src/wxTagFile.xml:http://docs.wxwidgets.org/3.0/" xlink:href="http://docs.wxwidgets.org/3.0/classwx_text_ctrl.html" target="_top" xlink:title="{wxTextCtrl\n||}">
<polygon fill="none" stroke="black" points="3,-475.5 3,-532.5 65,-532.5 65,-475.5 3,-475.5"/>
<text text-anchor="middle" x="34" y="-520.5" font-family="FreeSans" font-size="10.00">wxTextCtrl</text>
<polyline fill="none" stroke="black" points="3,-513.5 65,-513.5 "/>
<text text-anchor="middle" x="34" y="-501.5" font-family="FreeSans" font-size="10.00"> </text>
<polyline fill="none" stroke="black" points="3,-494.5 65,-494.5 "/>
<text text-anchor="middle" x="34" y="-482.5" font-family="FreeSans" font-size="10.00"> </text>
</a>
</g>
</g>
<!-- Node16&#45;&gt;Node17 -->
<g id="edge13" class="edge"><title>Node16&#45;&gt;Node17</title>
<path fill="none" stroke="midnightblue" d="M119.826,-662.078C99.2291,-624.382 67.7223,-566.718 49.159,-532.744"/>
<polygon fill="none" stroke="midnightblue" points="116.946,-664.107 124.813,-671.205 123.089,-660.751 116.946,-664.107"/>
</g>
<!-- Node17&#45;&gt;Node6 -->
<g id="edge12" class="edge"><title>Node17&#45;&gt;Node6</title>
<path fill="none" stroke="#404040" d="M32.1429,-475.222C30.8136,-441.342 31.5676,-382.806 48,-336 61.6361,-297.159 85.1128,-258.642 108.267,-226.513"/>
<polygon fill="none" stroke="#404040" points="108.329,-226.428 108.656,-219.224 115.431,-216.754 115.104,-223.958 108.329,-226.428"/>
<text text-anchor="middle" x="74" y="-379" font-family="FreeSans" font-size="10.00"> &#45;txtFinalDir</text>
<text text-anchor="middle" x="74" y="-368" font-family="FreeSans" font-size="10.00">&#45;txtPrjPath</text>
<text text-anchor="middle" x="74" y="-357" font-family="FreeSans" font-size="10.00">&#45;txtPrjTitle</text>
<text text-anchor="middle" x="74" y="-346" font-family="FreeSans" font-size="10.00">&#45;txtPrjName</text>
</g>
<!-- Node18 -->
<g id="node12" class="node"><title>Node18</title>
<g id="a_node12"><a doxygen="/media/alpha/Barracuda/cb_docs/src/wxTagFile.xml:http://docs.wxwidgets.org/3.0/" xlink:href="http://docs.wxwidgets.org/3.0/classwx_text_entry.html" target="_top" xlink:title="{wxTextEntry\n||}">
<polygon fill="none" stroke="black" points="0,-671.5 0,-728.5 68,-728.5 68,-671.5 0,-671.5"/>
<text text-anchor="middle" x="34" y="-716.5" font-family="FreeSans" font-size="10.00">wxTextEntry</text>
<polyline fill="none" stroke="black" points="0,-709.5 68,-709.5 "/>
<text text-anchor="middle" x="34" y="-697.5" font-family="FreeSans" font-size="10.00"> </text>
<polyline fill="none" stroke="black" points="0,-690.5 68,-690.5 "/>
<text text-anchor="middle" x="34" y="-678.5" font-family="FreeSans" font-size="10.00"> </text>
</a>
</g>
</g>
<!-- Node18&#45;&gt;Node17 -->
<g id="edge14" class="edge"><title>Node18&#45;&gt;Node17</title>
<path fill="none" stroke="midnightblue" d="M34,-661.115C34,-623.406 34,-566.43 34,-532.744"/>
<polygon fill="none" stroke="midnightblue" points="30.5001,-661.204 34,-671.205 37.5001,-661.205 30.5001,-661.204"/>
</g>
</g>
</svg>
