<?xml version="1.0" encoding="UTF-8" standalone="no"?>
<!DOCTYPE svg PUBLIC "-//W3C//DTD SVG 1.1//EN"
 "http://www.w3.org/Graphics/SVG/1.1/DTD/svg11.dtd">
<!-- Generated by graphviz version 2.38.0 (20140413.2041)
 -->
<!-- Title: ProjectLayoutLoader Pages: 1 -->
<svg width="1303pt" height="1608pt"
 viewBox="0.00 0.00 1302.93 1608.00" xmlns="http://www.w3.org/2000/svg" xmlns:xlink="http://www.w3.org/1999/xlink">
<g id="graph0" class="graph" transform="scale(1 1) rotate(0) translate(4 1604)">
<title>ProjectLayoutLoader</title>
<!-- Node1 -->
<g id="node1" class="node"><title>Node1</title>
<polygon fill="#bfbfbf" stroke="black" points="592.433,-0.5 592.433,-112.5 717.433,-112.5 717.433,-0.5 592.433,-0.5"/>
<text text-anchor="middle" x="654.933" y="-100.5" font-family="FreeSans" font-size="10.00">ProjectLayoutLoader</text>
<polyline fill="none" stroke="black" points="592.433,-93.5 717.433,-93.5 "/>
<text text-anchor="middle" x="654.933" y="-81.5" font-family="FreeSans" font-size="10.00"> </text>
<polyline fill="none" stroke="black" points="592.433,-74.5 717.433,-74.5 "/>
<text text-anchor="start" x="600.433" y="-62.5" font-family="FreeSans" font-size="10.00">+ ProjectLayoutLoader()</text>
<text text-anchor="start" x="600.433" y="-51.5" font-family="FreeSans" font-size="10.00">+ ~ProjectLayoutLoader()</text>
<text text-anchor="start" x="600.433" y="-40.5" font-family="FreeSans" font-size="10.00">+ Open()</text>
<text text-anchor="start" x="600.433" y="-29.5" font-family="FreeSans" font-size="10.00">+ Save()</text>
<text text-anchor="start" x="600.433" y="-18.5" font-family="FreeSans" font-size="10.00">+ LoadNotebookLayout()</text>
<text text-anchor="start" x="600.433" y="-7.5" font-family="FreeSans" font-size="10.00">+ GetTopProjectFile()</text>
</g>
<!-- Node2 -->
<g id="node2" class="node"><title>Node2</title>
<g id="a_node2"><a xlink:href="classProjectFile" target="_top" xlink:title="Represents a file in a Code::Blocks project. ">
<polygon fill="none" stroke="black" points="363.433,-160.5 363.433,-437.5 484.433,-437.5 484.433,-160.5 363.433,-160.5"/>
<text text-anchor="middle" x="423.933" y="-425.5" font-family="FreeSans" font-size="10.00">ProjectFile</text>
<polyline fill="none" stroke="black" points="363.433,-418.5 484.433,-418.5 "/>
<text text-anchor="start" x="371.433" y="-406.5" font-family="FreeSans" font-size="10.00">+ compile</text>
<text text-anchor="start" x="371.433" y="-395.5" font-family="FreeSans" font-size="10.00">+ link</text>
<text text-anchor="start" x="371.433" y="-384.5" font-family="FreeSans" font-size="10.00">+ weight</text>
<text text-anchor="start" x="371.433" y="-373.5" font-family="FreeSans" font-size="10.00">+ editorOpen</text>
<text text-anchor="start" x="371.433" y="-362.5" font-family="FreeSans" font-size="10.00">+ editorSplit</text>
<text text-anchor="start" x="371.433" y="-351.5" font-family="FreeSans" font-size="10.00">+ editorSplitActive</text>
<text text-anchor="start" x="371.433" y="-340.5" font-family="FreeSans" font-size="10.00">+ editorSplitPos</text>
<text text-anchor="start" x="371.433" y="-329.5" font-family="FreeSans" font-size="10.00">+ editorPos</text>
<text text-anchor="start" x="371.433" y="-318.5" font-family="FreeSans" font-size="10.00">and 8 more...</text>
<text text-anchor="start" x="371.433" y="-307.5" font-family="FreeSans" font-size="10.00"># m_VisualState</text>
<text text-anchor="start" x="371.433" y="-296.5" font-family="FreeSans" font-size="10.00"># m_PFDMap</text>
<polyline fill="none" stroke="black" points="363.433,-289.5 484.433,-289.5 "/>
<text text-anchor="start" x="371.433" y="-277.5" font-family="FreeSans" font-size="10.00">+ ProjectFile()</text>
<text text-anchor="start" x="371.433" y="-266.5" font-family="FreeSans" font-size="10.00">+ ~ProjectFile()</text>
<text text-anchor="start" x="371.433" y="-255.5" font-family="FreeSans" font-size="10.00">+ Rename()</text>
<text text-anchor="start" x="371.433" y="-244.5" font-family="FreeSans" font-size="10.00">+ AddBuildTarget()</text>
<text text-anchor="start" x="371.433" y="-233.5" font-family="FreeSans" font-size="10.00">+ RenameBuildTarget()</text>
<text text-anchor="start" x="371.433" y="-222.5" font-family="FreeSans" font-size="10.00">+ RemoveBuildTarget()</text>
<text text-anchor="start" x="371.433" y="-211.5" font-family="FreeSans" font-size="10.00">+ GetBuildTargets()</text>
<text text-anchor="start" x="371.433" y="-200.5" font-family="FreeSans" font-size="10.00">+ ShowOptions()</text>
<text text-anchor="start" x="371.433" y="-189.5" font-family="FreeSans" font-size="10.00">and 16 more...</text>
<text text-anchor="start" x="371.433" y="-178.5" font-family="FreeSans" font-size="10.00">+ CompareProjectFiles()</text>
<text text-anchor="start" x="371.433" y="-167.5" font-family="FreeSans" font-size="10.00"># DoUpdateFileDetails()</text>
</a>
</g>
</g>
<!-- Node2&#45;&gt;Node1 -->
<g id="edge1" class="edge"><title>Node2&#45;&gt;Node1</title>
<path fill="none" stroke="#404040" d="M484.482,-215.239C506.577,-187.25 532.626,-156.622 558.933,-131 566.362,-123.764 574.499,-116.584 582.795,-109.707"/>
<polygon fill="none" stroke="#404040" points="582.876,-109.641 585.019,-102.755 592.198,-102.085 590.056,-108.97 582.876,-109.641"/>
<text text-anchor="middle" x="599.933" y="-134" font-family="FreeSans" font-size="10.00"> &#45;m_TopProjectFile</text>
</g>
<!-- Node2&#45;&gt;Node2 -->
<g id="edge3" class="edge"><title>Node2&#45;&gt;Node2</title>
<path fill="none" stroke="#404040" d="M484.494,-327.477C495.073,-323.68 502.433,-314.188 502.433,-299 502.433,-289.508 499.558,-282.24 494.819,-277.198"/>
<polygon fill="none" stroke="#404040" points="494.572,-277.038 487.362,-277.14 484.494,-270.523 491.705,-270.421 494.572,-277.038"/>
<text text-anchor="middle" x="544.433" y="-296.5" font-family="FreeSans" font-size="10.00"> +autoGeneratedBy</text>
</g>
<!-- Node15 -->
<g id="node13" class="node"><title>Node15</title>
<polygon fill="none" stroke="#bfbfbf" points="328.433,-28 328.433,-85 457.433,-85 457.433,-28 328.433,-28"/>
<text text-anchor="middle" x="392.933" y="-73" font-family="FreeSans" font-size="10.00">std::vector&lt; ProjectFile * &gt;</text>
<polyline fill="none" stroke="#bfbfbf" points="328.433,-66 457.433,-66 "/>
<text text-anchor="middle" x="392.933" y="-54" font-family="FreeSans" font-size="10.00"> </text>
<polyline fill="none" stroke="#bfbfbf" points="328.433,-47 457.433,-47 "/>
<text text-anchor="middle" x="392.933" y="-35" font-family="FreeSans" font-size="10.00"> </text>
</g>
<!-- Node2&#45;&gt;Node15 -->
<g id="edge22" class="edge"><title>Node2&#45;&gt;Node15</title>
<path fill="none" stroke="#404040" d="M422.198,-160.493C421.091,-150.475 419.691,-140.559 417.933,-131 415.838,-119.61 412.333,-107.586 408.601,-96.6369"/>
<polygon fill="none" stroke="#404040" points="408.571,-96.553 402.779,-92.2568 404.517,-85.2583 410.309,-89.5545 408.571,-96.553"/>
<text text-anchor="middle" x="443.933" y="-134" font-family="FreeSans" font-size="10.00"> +elements</text>
</g>
<!-- Node3 -->
<g id="node3" class="node"><title>Node3</title>
<g id="a_node3"><a doxygen="/media/alpha/Barracuda/cb_docs/src/wxTagFile.xml:http://docs.wxwidgets.org/3.0/" xlink:href="http://docs.wxwidgets.org/3.0/classwx_array_string.html" target="_top" xlink:title="{wxArrayString\n||+ wxArrayString()\l+ wxArrayString()\l+ wxArrayString()\l+ ~wxArrayString()\l+ Add()\l+ Alloc()\l+ Clear()\l+ Empty()\land 19 more...\l}">
<polygon fill="none" stroke="black" points="200.433,-1405 200.433,-1550 295.433,-1550 295.433,-1405 200.433,-1405"/>
<text text-anchor="middle" x="247.933" y="-1538" font-family="FreeSans" font-size="10.00">wxArrayString</text>
<polyline fill="none" stroke="black" points="200.433,-1531 295.433,-1531 "/>
<text text-anchor="middle" x="247.933" y="-1519" font-family="FreeSans" font-size="10.00"> </text>
<polyline fill="none" stroke="black" points="200.433,-1512 295.433,-1512 "/>
<text text-anchor="start" x="208.433" y="-1500" font-family="FreeSans" font-size="10.00">+ wxArrayString()</text>
<text text-anchor="start" x="208.433" y="-1489" font-family="FreeSans" font-size="10.00">+ wxArrayString()</text>
<text text-anchor="start" x="208.433" y="-1478" font-family="FreeSans" font-size="10.00">+ wxArrayString()</text>
<text text-anchor="start" x="208.433" y="-1467" font-family="FreeSans" font-size="10.00">+ ~wxArrayString()</text>
<text text-anchor="start" x="208.433" y="-1456" font-family="FreeSans" font-size="10.00">+ Add()</text>
<text text-anchor="start" x="208.433" y="-1445" font-family="FreeSans" font-size="10.00">+ Alloc()</text>
<text text-anchor="start" x="208.433" y="-1434" font-family="FreeSans" font-size="10.00">+ Clear()</text>
<text text-anchor="start" x="208.433" y="-1423" font-family="FreeSans" font-size="10.00">+ Empty()</text>
<text text-anchor="start" x="208.433" y="-1412" font-family="FreeSans" font-size="10.00">and 19 more...</text>
</a>
</g>
</g>
<!-- Node3&#45;&gt;Node2 -->
<g id="edge2" class="edge"><title>Node3&#45;&gt;Node2</title>
<path fill="none" stroke="#404040" d="M200.205,-1419.18C116.631,-1311.75 -42.4908,-1071.63 10.9327,-858 56.5167,-675.718 92.6605,-631.806 209.933,-485 251.34,-433.165 308.636,-384.521 353.522,-350.135"/>
<polygon fill="none" stroke="#404040" points="353.631,-350.052 355.994,-343.239 363.191,-342.8 360.829,-349.613 353.631,-350.052"/>
<text text-anchor="middle" x="41.4327" y="-888.5" font-family="FreeSans" font-size="10.00"> +buildTargets</text>
</g>
<!-- Node5 -->
<g id="node5" class="node"><title>Node5</title>
<g id="a_node5"><a xlink:href="classcbProject" target="_top" xlink:title="Represents a Code::Blocks project. ">
<polygon fill="none" stroke="black" points="564.433,-485.5 564.433,-839.5 745.433,-839.5 745.433,-485.5 564.433,-485.5"/>
<text text-anchor="middle" x="654.933" y="-827.5" font-family="FreeSans" font-size="10.00">cbProject</text>
<polyline fill="none" stroke="black" points="564.433,-820.5 745.433,-820.5 "/>
<text text-anchor="start" x="572.433" y="-808.5" font-family="FreeSans" font-size="10.00">&#45; m_Targets</text>
<text text-anchor="start" x="572.433" y="-797.5" font-family="FreeSans" font-size="10.00">&#45; m_CustomMakefile</text>
<text text-anchor="start" x="572.433" y="-786.5" font-family="FreeSans" font-size="10.00">&#45; m_Files</text>
<text text-anchor="start" x="572.433" y="-775.5" font-family="FreeSans" font-size="10.00">&#45; m_FileArray</text>
<text text-anchor="start" x="572.433" y="-764.5" font-family="FreeSans" font-size="10.00">&#45; m_Loaded</text>
<text text-anchor="start" x="572.433" y="-753.5" font-family="FreeSans" font-size="10.00">&#45; m_CurrentlyLoading</text>
<text text-anchor="start" x="572.433" y="-742.5" font-family="FreeSans" font-size="10.00">&#45; m_PCHMode</text>
<text text-anchor="start" x="572.433" y="-731.5" font-family="FreeSans" font-size="10.00">&#45; m_ProjectFilesMap</text>
<text text-anchor="start" x="572.433" y="-720.5" font-family="FreeSans" font-size="10.00">&#45; m_ExtendedObjectNamesGeneration</text>
<text text-anchor="start" x="572.433" y="-709.5" font-family="FreeSans" font-size="10.00">&#45; m_AutoShowNotesOnLoad</text>
<text text-anchor="start" x="572.433" y="-698.5" font-family="FreeSans" font-size="10.00">&#45; m_CheckForExternallyModified</text>
<text text-anchor="start" x="572.433" y="-687.5" font-family="FreeSans" font-size="10.00">Files</text>
<text text-anchor="start" x="572.433" y="-676.5" font-family="FreeSans" font-size="10.00">&#45; m_pExtensionsElement</text>
<polyline fill="none" stroke="black" points="564.433,-669.5 745.433,-669.5 "/>
<text text-anchor="start" x="572.433" y="-657.5" font-family="FreeSans" font-size="10.00">+ cbProject()</text>
<text text-anchor="start" x="572.433" y="-646.5" font-family="FreeSans" font-size="10.00">+ ~cbProject()</text>
<text text-anchor="start" x="572.433" y="-635.5" font-family="FreeSans" font-size="10.00">+ IsLoaded()</text>
<text text-anchor="start" x="572.433" y="-624.5" font-family="FreeSans" font-size="10.00">+ ClearAllProperties()</text>
<text text-anchor="start" x="572.433" y="-613.5" font-family="FreeSans" font-size="10.00">+ CalculateCommonTopLevelPath()</text>
<text text-anchor="start" x="572.433" y="-602.5" font-family="FreeSans" font-size="10.00">+ GetCommonTopLevelPath()</text>
<text text-anchor="start" x="572.433" y="-591.5" font-family="FreeSans" font-size="10.00">+ GetModified()</text>
<text text-anchor="start" x="572.433" y="-580.5" font-family="FreeSans" font-size="10.00">+ SetModified()</text>
<text text-anchor="start" x="572.433" y="-569.5" font-family="FreeSans" font-size="10.00">and 85 more...</text>
<text text-anchor="start" x="572.433" y="-558.5" font-family="FreeSans" font-size="10.00">&#45; Open()</text>
<text text-anchor="start" x="572.433" y="-547.5" font-family="FreeSans" font-size="10.00">&#45; ExpandVirtualBuildTarget</text>
<text text-anchor="start" x="572.433" y="-536.5" font-family="FreeSans" font-size="10.00">Group()</text>
<text text-anchor="start" x="572.433" y="-525.5" font-family="FreeSans" font-size="10.00">&#45; AddDefaultBuildTarget()</text>
<text text-anchor="start" x="572.433" y="-514.5" font-family="FreeSans" font-size="10.00">&#45; IndexOfBuildTargetName()</text>
<text text-anchor="start" x="572.433" y="-503.5" font-family="FreeSans" font-size="10.00">&#45; CreateUniqueFilename()</text>
<text text-anchor="start" x="572.433" y="-492.5" font-family="FreeSans" font-size="10.00">&#45; NotifyPlugins()</text>
</a>
</g>
</g>
<!-- Node3&#45;&gt;Node5 -->
<g id="edge8" class="edge"><title>Node3&#45;&gt;Node5</title>
<path fill="none" stroke="#404040" d="M238.578,-1404.85C223.37,-1275.61 200.323,-1010.5 256.933,-942 281.809,-911.899 312.764,-948.795 342.933,-924 367.549,-903.768 345.616,-877.348 370.933,-858 417.977,-822.047 450.906,-868.266 502.933,-840 521.821,-829.738 539.419,-816.128 555.448,-801.002"/>
<polygon fill="none" stroke="#404040" points="555.609,-800.844 557.103,-793.79 564.189,-792.455 562.696,-799.51 555.609,-800.844"/>
<text text-anchor="middle" x="300.933" y="-1078.5" font-family="FreeSans" font-size="10.00"> &#45;m_ExpandedNodes</text>
<text text-anchor="middle" x="300.933" y="-1067.5" font-family="FreeSans" font-size="10.00">&#45;m_SelectedNodes</text>
<text text-anchor="middle" x="300.933" y="-1056.5" font-family="FreeSans" font-size="10.00">&#45;m_VirtualFolders</text>
</g>
<!-- Node9 -->
<g id="node8" class="node"><title>Node9</title>
<polygon fill="none" stroke="#bfbfbf" points="354.433,-1036 354.433,-1104 455.433,-1104 455.433,-1036 354.433,-1036"/>
<text text-anchor="start" x="362.433" y="-1092" font-family="FreeSans" font-size="10.00">std::map&lt; wxString,</text>
<text text-anchor="middle" x="404.933" y="-1081" font-family="FreeSans" font-size="10.00"> wxArrayString &gt;</text>
<polyline fill="none" stroke="#bfbfbf" points="354.433,-1074 455.433,-1074 "/>
<text text-anchor="middle" x="404.933" y="-1062" font-family="FreeSans" font-size="10.00"> </text>
<polyline fill="none" stroke="#bfbfbf" points="354.433,-1055 455.433,-1055 "/>
<text text-anchor="middle" x="404.933" y="-1043" font-family="FreeSans" font-size="10.00"> </text>
</g>
<!-- Node3&#45;&gt;Node9 -->
<g id="edge10" class="edge"><title>Node3&#45;&gt;Node9</title>
<path fill="none" stroke="#404040" d="M275.64,-1404.94C308.011,-1321.33 360.577,-1185.56 387.631,-1115.69"/>
<polygon fill="none" stroke="#404040" points="387.729,-1115.43 386.165,-1108.4 392.061,-1104.24 393.625,-1111.28 387.729,-1115.43"/>
<text text-anchor="middle" x="369.933" y="-1274" font-family="FreeSans" font-size="10.00"> +elements</text>
</g>
<!-- Node4 -->
<g id="node4" class="node"><title>Node4</title>
<g id="a_node4"><a doxygen="/media/alpha/Barracuda/cb_docs/src/wxTagFile.xml:http://docs.wxwidgets.org/3.0/" xlink:href="http://docs.wxwidgets.org/3.0/classwx_file_name.html" target="_top" xlink:title="{wxFileName\n||+ GetHumanReadableSize()\l+ wxFileName()\l+ wxFileName()\l+ wxFileName()\l+ wxFileName()\l+ wxFileName()\l+ wxFileName()\l+ AppendDir()\land 74 more...\l+ GetHumanReadableSize()\l+ CreateTempFileName()\l+ CreateTempFileName()\l+ DirExists()\l+ DirName()\l+ Exists()\l+ FileExists()\l+ FileName()\land 29 more...\l}">
<polygon fill="none" stroke="black" points="323.433,-540.5 323.433,-784.5 460.433,-784.5 460.433,-540.5 323.433,-540.5"/>
<text text-anchor="middle" x="391.933" y="-772.5" font-family="FreeSans" font-size="10.00">wxFileName</text>
<polyline fill="none" stroke="black" points="323.433,-765.5 460.433,-765.5 "/>
<text text-anchor="middle" x="391.933" y="-753.5" font-family="FreeSans" font-size="10.00"> </text>
<polyline fill="none" stroke="black" points="323.433,-746.5 460.433,-746.5 "/>
<text text-anchor="start" x="331.433" y="-734.5" font-family="FreeSans" font-size="10.00">+ GetHumanReadableSize()</text>
<text text-anchor="start" x="331.433" y="-723.5" font-family="FreeSans" font-size="10.00">+ wxFileName()</text>
<text text-anchor="start" x="331.433" y="-712.5" font-family="FreeSans" font-size="10.00">+ wxFileName()</text>
<text text-anchor="start" x="331.433" y="-701.5" font-family="FreeSans" font-size="10.00">+ wxFileName()</text>
<text text-anchor="start" x="331.433" y="-690.5" font-family="FreeSans" font-size="10.00">+ wxFileName()</text>
<text text-anchor="start" x="331.433" y="-679.5" font-family="FreeSans" font-size="10.00">+ wxFileName()</text>
<text text-anchor="start" x="331.433" y="-668.5" font-family="FreeSans" font-size="10.00">+ wxFileName()</text>
<text text-anchor="start" x="331.433" y="-657.5" font-family="FreeSans" font-size="10.00">+ AppendDir()</text>
<text text-anchor="start" x="331.433" y="-646.5" font-family="FreeSans" font-size="10.00">and 74 more...</text>
<text text-anchor="start" x="331.433" y="-635.5" font-family="FreeSans" font-size="10.00">+ GetHumanReadableSize()</text>
<text text-anchor="start" x="331.433" y="-624.5" font-family="FreeSans" font-size="10.00">+ CreateTempFileName()</text>
<text text-anchor="start" x="331.433" y="-613.5" font-family="FreeSans" font-size="10.00">+ CreateTempFileName()</text>
<text text-anchor="start" x="331.433" y="-602.5" font-family="FreeSans" font-size="10.00">+ DirExists()</text>
<text text-anchor="start" x="331.433" y="-591.5" font-family="FreeSans" font-size="10.00">+ DirName()</text>
<text text-anchor="start" x="331.433" y="-580.5" font-family="FreeSans" font-size="10.00">+ Exists()</text>
<text text-anchor="start" x="331.433" y="-569.5" font-family="FreeSans" font-size="10.00">+ FileExists()</text>
<text text-anchor="start" x="331.433" y="-558.5" font-family="FreeSans" font-size="10.00">+ FileName()</text>
<text text-anchor="start" x="331.433" y="-547.5" font-family="FreeSans" font-size="10.00">and 29 more...</text>
</a>
</g>
</g>
<!-- Node4&#45;&gt;Node2 -->
<g id="edge4" class="edge"><title>Node4&#45;&gt;Node2</title>
<path fill="none" stroke="#404040" d="M402.655,-540.372C405.229,-511.299 408.007,-479.908 410.68,-449.709"/>
<polygon fill="none" stroke="#404040" points="410.68,-449.707 407.225,-443.378 411.739,-437.754 415.194,-444.083 410.68,-449.707"/>
<text text-anchor="middle" x="420.433" y="-459" font-family="FreeSans" font-size="10.00"> +file</text>
</g>
<!-- Node5&#45;&gt;Node1 -->
<g id="edge24" class="edge"><title>Node5&#45;&gt;Node1</title>
<path fill="none" stroke="#404040" d="M654.933,-485.175C654.933,-364.536 654.933,-211.334 654.933,-124.879"/>
<polygon fill="none" stroke="#404040" points="654.933,-124.619 650.933,-118.619 654.933,-112.619 658.933,-118.619 654.933,-124.619"/>
<text text-anchor="middle" x="682.433" y="-296.5" font-family="FreeSans" font-size="10.00"> &#45;m_pProject</text>
</g>
<!-- Node5&#45;&gt;Node2 -->
<g id="edge5" class="edge"><title>Node5&#45;&gt;Node2</title>
<path fill="none" stroke="#404040" d="M564.298,-519.663C539.967,-481.586 514.09,-441.09 491.269,-405.377"/>
<polygon fill="none" stroke="#404040" points="491.066,-405.059 484.465,-402.157 484.605,-394.948 491.206,-397.85 491.066,-405.059"/>
<text text-anchor="middle" x="544.433" y="-459" font-family="FreeSans" font-size="10.00"> #project</text>
</g>
<!-- Node13 -->
<g id="node11" class="node"><title>Node13</title>
<g id="a_node11"><a xlink:href="classProjectBuildTarget" target="_top" xlink:title="Represents a Code::Blocks project build target. ">
<polygon fill="none" stroke="black" points="849.433,-193.5 849.433,-404.5 988.433,-404.5 988.433,-193.5 849.433,-193.5"/>
<text text-anchor="middle" x="918.933" y="-392.5" font-family="FreeSans" font-size="10.00">ProjectBuildTarget</text>
<polyline fill="none" stroke="black" points="849.433,-385.5 988.433,-385.5 "/>
<text text-anchor="start" x="857.433" y="-373.5" font-family="FreeSans" font-size="10.00">&#45; m_TargetDeps</text>
<text text-anchor="start" x="857.433" y="-362.5" font-family="FreeSans" font-size="10.00">&#45; m_Files</text>
<text text-anchor="start" x="857.433" y="-351.5" font-family="FreeSans" font-size="10.00">&#45; m_FileArray</text>
<text text-anchor="start" x="857.433" y="-340.5" font-family="FreeSans" font-size="10.00">&#45; m_BuildWithAll</text>
<text text-anchor="start" x="857.433" y="-329.5" font-family="FreeSans" font-size="10.00">&#45; m_CreateStaticLib</text>
<text text-anchor="start" x="857.433" y="-318.5" font-family="FreeSans" font-size="10.00">&#45; m_CreateDefFile</text>
<text text-anchor="start" x="857.433" y="-307.5" font-family="FreeSans" font-size="10.00">&#45; m_UseConsoleRunner</text>
<polyline fill="none" stroke="black" points="849.433,-300.5 988.433,-300.5 "/>
<text text-anchor="start" x="857.433" y="-288.5" font-family="FreeSans" font-size="10.00">+ ProjectBuildTarget()</text>
<text text-anchor="start" x="857.433" y="-277.5" font-family="FreeSans" font-size="10.00">+ ~ProjectBuildTarget()</text>
<text text-anchor="start" x="857.433" y="-266.5" font-family="FreeSans" font-size="10.00">+ GetParentProject()</text>
<text text-anchor="start" x="857.433" y="-255.5" font-family="FreeSans" font-size="10.00">+ GetFullTitle()</text>
<text text-anchor="start" x="857.433" y="-244.5" font-family="FreeSans" font-size="10.00">+ GetExternalDeps()</text>
<text text-anchor="start" x="857.433" y="-233.5" font-family="FreeSans" font-size="10.00">+ SetExternalDeps()</text>
<text text-anchor="start" x="857.433" y="-222.5" font-family="FreeSans" font-size="10.00">+ GetAdditionalOutputFiles()</text>
<text text-anchor="start" x="857.433" y="-211.5" font-family="FreeSans" font-size="10.00">+ SetAdditionalOutputFiles()</text>
<text text-anchor="start" x="857.433" y="-200.5" font-family="FreeSans" font-size="10.00">and 15 more...</text>
</a>
</g>
</g>
<!-- Node5&#45;&gt;Node13 -->
<g id="edge17" class="edge"><title>Node5&#45;&gt;Node13</title>
<path fill="none" stroke="#404040" d="M745.561,-592.11C785.118,-558 829.353,-514.121 859.933,-467 870.073,-451.374 878.718,-433.792 886.008,-416.054"/>
<polygon fill="none" stroke="#404040" points="886.083,-415.864 884.565,-408.814 890.488,-404.702 892.006,-411.751 886.083,-415.864"/>
<text text-anchor="middle" x="890.933" y="-459" font-family="FreeSans" font-size="10.00"> &#45;m_Project</text>
</g>
<!-- Node6 -->
<g id="node6" class="node"><title>Node6</title>
<g id="a_node6"><a xlink:href="classCompileTargetBase" target="_top" xlink:title="Base class for build target classes Each Code::Blocks project consists of at least one target...">
<polygon fill="none" stroke="red" points="882.933,-942.5 882.933,-1197.5 1050.93,-1197.5 1050.93,-942.5 882.933,-942.5"/>
<text text-anchor="middle" x="966.933" y="-1185.5" font-family="FreeSans" font-size="10.00">CompileTargetBase</text>
<polyline fill="none" stroke="red" points="882.933,-1178.5 1050.93,-1178.5 "/>
<text text-anchor="start" x="890.933" y="-1166.5" font-family="FreeSans" font-size="10.00"># m_Title</text>
<text text-anchor="start" x="890.933" y="-1155.5" font-family="FreeSans" font-size="10.00"># m_OutputFilename</text>
<text text-anchor="start" x="890.933" y="-1144.5" font-family="FreeSans" font-size="10.00"># m_OptionsRelation</text>
<text text-anchor="start" x="890.933" y="-1133.5" font-family="FreeSans" font-size="10.00"># m_TargetType</text>
<text text-anchor="start" x="890.933" y="-1122.5" font-family="FreeSans" font-size="10.00"># m_MakeCommandsModified</text>
<text text-anchor="start" x="890.933" y="-1111.5" font-family="FreeSans" font-size="10.00"># m_RunHostApplicationInTerminal</text>
<text text-anchor="start" x="890.933" y="-1100.5" font-family="FreeSans" font-size="10.00"># m_PrefixGenerationPolicy</text>
<text text-anchor="start" x="890.933" y="-1089.5" font-family="FreeSans" font-size="10.00"># m_ExtensionGenerationPolicy</text>
<polyline fill="none" stroke="red" points="882.933,-1082.5 1050.93,-1082.5 "/>
<text text-anchor="start" x="890.933" y="-1070.5" font-family="FreeSans" font-size="10.00">+ CompileTargetBase()</text>
<text text-anchor="start" x="890.933" y="-1059.5" font-family="FreeSans" font-size="10.00">+ ~CompileTargetBase()</text>
<text text-anchor="start" x="890.933" y="-1048.5" font-family="FreeSans" font-size="10.00">+ SetTargetFilenameGeneration</text>
<text text-anchor="start" x="890.933" y="-1037.5" font-family="FreeSans" font-size="10.00">Policy()</text>
<text text-anchor="start" x="890.933" y="-1026.5" font-family="FreeSans" font-size="10.00">+ GetTargetFilenameGeneration</text>
<text text-anchor="start" x="890.933" y="-1015.5" font-family="FreeSans" font-size="10.00">Policy()</text>
<text text-anchor="start" x="890.933" y="-1004.5" font-family="FreeSans" font-size="10.00">+ GetFilename()</text>
<text text-anchor="start" x="890.933" y="-993.5" font-family="FreeSans" font-size="10.00">+ GetTitle()</text>
<text text-anchor="start" x="890.933" y="-982.5" font-family="FreeSans" font-size="10.00">+ SetTitle()</text>
<text text-anchor="start" x="890.933" y="-971.5" font-family="FreeSans" font-size="10.00">+ SetOutputFilename()</text>
<text text-anchor="start" x="890.933" y="-960.5" font-family="FreeSans" font-size="10.00">and 32 more...</text>
<text text-anchor="start" x="890.933" y="-949.5" font-family="FreeSans" font-size="10.00">&#45; GenerateTargetFilename()</text>
</a>
</g>
</g>
<!-- Node6&#45;&gt;Node5 -->
<g id="edge6" class="edge"><title>Node6&#45;&gt;Node5</title>
<path fill="none" stroke="midnightblue" d="M882.14,-933.935C864.852,-908.253 846.312,-881.94 827.933,-858 802.615,-825.021 773.151,-790.626 745.791,-760.092"/>
<polygon fill="none" stroke="midnightblue" points="879.234,-935.886 887.707,-942.247 885.05,-931.99 879.234,-935.886"/>
</g>
<!-- Node6&#45;&gt;Node13 -->
<g id="edge16" class="edge"><title>Node6&#45;&gt;Node13</title>
<path fill="none" stroke="midnightblue" d="M958.393,-932.181C948.968,-781.195 934.007,-541.499 925.47,-404.74"/>
<polygon fill="none" stroke="midnightblue" points="954.917,-932.684 959.033,-942.446 961.903,-932.247 954.917,-932.684"/>
</g>
<!-- Node8 -->
<g id="node7" class="node"><title>Node8</title>
<g id="a_node7"><a doxygen="/media/alpha/Barracuda/cb_docs/src/wxTagFile.xml:http://docs.wxwidgets.org/3.0/" xlink:href="http://docs.wxwidgets.org/3.0/classwx_string.html" target="_top" xlink:title="{wxString\n|+ npos\l|+ wxString()\l+ wxString()\l+ wxString()\l+ wxString()\l+ wxString()\l+ wxString()\l+ wxString()\l+ wxString()\land 222 more...\l+ Format()\l+ FormatV()\l+ FromCDouble()\l+ FromDouble()\l+ From8BitData()\l+ From8BitData()\l+ FromAscii()\l+ FromAscii()\land 7 more...\l}">
<polygon fill="none" stroke="black" points="568.433,-1355.5 568.433,-1599.5 659.433,-1599.5 659.433,-1355.5 568.433,-1355.5"/>
<text text-anchor="middle" x="613.933" y="-1587.5" font-family="FreeSans" font-size="10.00">wxString</text>
<polyline fill="none" stroke="black" points="568.433,-1580.5 659.433,-1580.5 "/>
<text text-anchor="start" x="576.433" y="-1568.5" font-family="FreeSans" font-size="10.00">+ npos</text>
<polyline fill="none" stroke="black" points="568.433,-1561.5 659.433,-1561.5 "/>
<text text-anchor="start" x="576.433" y="-1549.5" font-family="FreeSans" font-size="10.00">+ wxString()</text>
<text text-anchor="start" x="576.433" y="-1538.5" font-family="FreeSans" font-size="10.00">+ wxString()</text>
<text text-anchor="start" x="576.433" y="-1527.5" font-family="FreeSans" font-size="10.00">+ wxString()</text>
<text text-anchor="start" x="576.433" y="-1516.5" font-family="FreeSans" font-size="10.00">+ wxString()</text>
<text text-anchor="start" x="576.433" y="-1505.5" font-family="FreeSans" font-size="10.00">+ wxString()</text>
<text text-anchor="start" x="576.433" y="-1494.5" font-family="FreeSans" font-size="10.00">+ wxString()</text>
<text text-anchor="start" x="576.433" y="-1483.5" font-family="FreeSans" font-size="10.00">+ wxString()</text>
<text text-anchor="start" x="576.433" y="-1472.5" font-family="FreeSans" font-size="10.00">+ wxString()</text>
<text text-anchor="start" x="576.433" y="-1461.5" font-family="FreeSans" font-size="10.00">and 222 more...</text>
<text text-anchor="start" x="576.433" y="-1450.5" font-family="FreeSans" font-size="10.00">+ Format()</text>
<text text-anchor="start" x="576.433" y="-1439.5" font-family="FreeSans" font-size="10.00">+ FormatV()</text>
<text text-anchor="start" x="576.433" y="-1428.5" font-family="FreeSans" font-size="10.00">+ FromCDouble()</text>
<text text-anchor="start" x="576.433" y="-1417.5" font-family="FreeSans" font-size="10.00">+ FromDouble()</text>
<text text-anchor="start" x="576.433" y="-1406.5" font-family="FreeSans" font-size="10.00">+ From8BitData()</text>
<text text-anchor="start" x="576.433" y="-1395.5" font-family="FreeSans" font-size="10.00">+ From8BitData()</text>
<text text-anchor="start" x="576.433" y="-1384.5" font-family="FreeSans" font-size="10.00">+ FromAscii()</text>
<text text-anchor="start" x="576.433" y="-1373.5" font-family="FreeSans" font-size="10.00">+ FromAscii()</text>
<text text-anchor="start" x="576.433" y="-1362.5" font-family="FreeSans" font-size="10.00">and 7 more...</text>
</a>
</g>
</g>
<!-- Node8&#45;&gt;Node1 -->
<g id="edge25" class="edge"><title>Node8&#45;&gt;Node1</title>
<path fill="none" stroke="#404040" d="M659.474,-1470.92C740.868,-1458.99 913.477,-1424.56 1027.93,-1337 1140.91,-1250.57 1205.93,-1213.25 1205.93,-1071 1205.93,-1071 1205.93,-1071 1205.93,-298 1205.93,-92.6738 880.57,-60.8939 729.886,-57.1857"/>
<polygon fill="none" stroke="#404040" points="729.6,-57.18 723.52,-61.0574 717.603,-56.9363 723.683,-53.059 729.6,-57.18"/>
<text text-anchor="middle" x="1250.43" y="-660" font-family="FreeSans" font-size="10.00"> &#45;m_NotebookLayout</text>
</g>
<!-- Node8&#45;&gt;Node2 -->
<g id="edge20" class="edge"><title>Node8&#45;&gt;Node2</title>
<path fill="none" stroke="#404040" d="M568.297,-1452.74C523.78,-1428.03 455.941,-1386.11 407.933,-1337 363.205,-1291.25 384.796,-1248.92 329.933,-1216 288.442,-1191.1 145.703,-1233.6 112.933,-1198 61.7607,-1142.41 62.9137,-911.834 115.933,-858 143.49,-830.019 441.879,-868.469 468.933,-840 567.675,-736.094 532.936,-564.581 488.629,-442.747"/>
<polygon fill="none" stroke="#404040" points="488.625,-442.737 482.789,-438.501 484.455,-431.485 490.291,-435.721 488.625,-442.737"/>
<text text-anchor="middle" x="179.433" y="-916" font-family="FreeSans" font-size="10.00"> +relativeFilename</text>
<text text-anchor="middle" x="179.433" y="-905" font-family="FreeSans" font-size="10.00">+virtual_path</text>
<text text-anchor="middle" x="179.433" y="-894" font-family="FreeSans" font-size="10.00">+compilerVar</text>
<text text-anchor="start" x="115.933" y="-883" font-family="FreeSans" font-size="10.00">+relativeToCommonTopLevel</text>
<text text-anchor="middle" x="179.433" y="-872" font-family="FreeSans" font-size="10.00">Path</text>
<text text-anchor="middle" x="179.433" y="-861" font-family="FreeSans" font-size="10.00">#m_ObjName</text>
</g>
<!-- Node8&#45;&gt;Node5 -->
<g id="edge14" class="edge"><title>Node8&#45;&gt;Node5</title>
<path fill="none" stroke="#404040" d="M568.345,-1389.21C542.973,-1335.63 513.95,-1264.7 500.933,-1198 479.14,-1086.33 472.502,-1052.17 500.933,-942 513.024,-895.148 534.865,-847.758 558.371,-805.682"/>
<polygon fill="none" stroke="#404040" points="558.453,-805.538 557.937,-798.345 564.378,-795.103 564.894,-802.295 558.453,-805.538"/>
<text text-anchor="middle" x="559.433" y="-1106" font-family="FreeSans" font-size="10.00"> &#45;m_Notes</text>
<text text-anchor="middle" x="559.433" y="-1095" font-family="FreeSans" font-size="10.00">&#45;m_Makefile</text>
<text text-anchor="middle" x="559.433" y="-1084" font-family="FreeSans" font-size="10.00">&#45;m_ActiveTarget</text>
<text text-anchor="middle" x="559.433" y="-1073" font-family="FreeSans" font-size="10.00">&#45;m_BasePath</text>
<text text-anchor="middle" x="559.433" y="-1062" font-family="FreeSans" font-size="10.00">&#45;m_DefaultExecuteTarget</text>
<text text-anchor="middle" x="559.433" y="-1051" font-family="FreeSans" font-size="10.00">&#45;m_LastSavedActiveTarget</text>
<text text-anchor="middle" x="559.433" y="-1040" font-family="FreeSans" font-size="10.00">&#45;m_MakefileExecutionDir</text>
<text text-anchor="middle" x="559.433" y="-1029" font-family="FreeSans" font-size="10.00">&#45;m_CommonTopLevelPath</text>
</g>
<!-- Node8&#45;&gt;Node6 -->
<g id="edge7" class="edge"><title>Node8&#45;&gt;Node6</title>
<path fill="none" stroke="#404040" d="M659.58,-1430.65C712.662,-1376.6 802.054,-1283.33 872.933,-1198 873.642,-1197.15 874.352,-1196.29 875.064,-1195.42"/>
<polygon fill="none" stroke="#404040" points="875.135,-1195.34 875.818,-1188.16 882.707,-1186.03 882.024,-1193.21 875.135,-1195.34"/>
<text text-anchor="middle" x="911.433" y="-1329" font-family="FreeSans" font-size="10.00"> #m_MakeCommands</text>
<text text-anchor="middle" x="911.433" y="-1318" font-family="FreeSans" font-size="10.00">#m_ImportLibraryFilename</text>
<text text-anchor="middle" x="911.433" y="-1307" font-family="FreeSans" font-size="10.00">#m_HostApplication</text>
<text text-anchor="middle" x="911.433" y="-1296" font-family="FreeSans" font-size="10.00">#m_DefinitionFileFilename</text>
<text text-anchor="middle" x="911.433" y="-1285" font-family="FreeSans" font-size="10.00">#m_CompilerId</text>
<text text-anchor="middle" x="911.433" y="-1274" font-family="FreeSans" font-size="10.00">#m_ExecutionParameters</text>
<text text-anchor="middle" x="911.433" y="-1263" font-family="FreeSans" font-size="10.00">#m_Filename</text>
<text text-anchor="middle" x="911.433" y="-1252" font-family="FreeSans" font-size="10.00">#m_ObjectOutput</text>
<text text-anchor="middle" x="911.433" y="-1241" font-family="FreeSans" font-size="10.00">#m_DepsOutput</text>
<text text-anchor="middle" x="911.433" y="-1230" font-family="FreeSans" font-size="10.00">#m_WorkingDir</text>
<text text-anchor="middle" x="911.433" y="-1219" font-family="FreeSans" font-size="10.00">...</text>
</g>
<!-- Node8&#45;&gt;Node9 -->
<g id="edge11" class="edge"><title>Node8&#45;&gt;Node9</title>
<path fill="none" stroke="#404040" d="M568.247,-1450.35C530.212,-1426.05 477.912,-1386.24 449.933,-1337 410.323,-1267.3 403.564,-1171.89 403.434,-1116.31"/>
<polygon fill="none" stroke="#404040" points="403.435,-1116.08 399.473,-1110.05 403.511,-1104.08 407.473,-1110.1 403.435,-1116.08"/>
<text text-anchor="middle" x="463.933" y="-1274" font-family="FreeSans" font-size="10.00"> +keys</text>
</g>
<!-- Node8&#45;&gt;Node13 -->
<g id="edge18" class="edge"><title>Node8&#45;&gt;Node13</title>
<path fill="none" stroke="#404040" d="M659.462,-1468.46C732.579,-1453.59 877.613,-1415.85 972.933,-1337 1029.09,-1290.55 1039.82,-1268.05 1059.93,-1198 1091.33,-1088.64 1072.21,-1055.11 1059.93,-942 1039.71,-755.663 987.397,-544.158 952.494,-416.484"/>
<polygon fill="none" stroke="#404040" points="952.456,-416.346 947.01,-411.62 949.278,-404.775 954.724,-409.501 952.456,-416.346"/>
<text text-anchor="middle" x="1113.93" y="-894" font-family="FreeSans" font-size="10.00"> &#45;m_AdditionalOutputFiles</text>
<text text-anchor="middle" x="1113.93" y="-883" font-family="FreeSans" font-size="10.00">&#45;m_ExternalDeps</text>
</g>
<!-- Node9&#45;&gt;Node5 -->
<g id="edge9" class="edge"><title>Node9&#45;&gt;Node5</title>
<path fill="none" stroke="#404040" d="M391.769,-1035.69C376.126,-989.957 357.042,-907.764 398.933,-858 429.142,-822.113 462.122,-863.129 502.933,-840 521.782,-829.317 539.4,-815.375 555.475,-800.005"/>
<polygon fill="none" stroke="#404040" points="555.714,-799.769 557.167,-792.706 564.246,-791.331 562.792,-798.394 555.714,-799.769"/>
<text text-anchor="middle" x="438.433" y="-888.5" font-family="FreeSans" font-size="10.00"> &#45;m_VirtualTargets</text>
</g>
<!-- Node10 -->
<g id="node9" class="node"><title>Node10</title>
<g id="a_node9"><a doxygen="/media/alpha/Barracuda/cb_docs/src/wxTagFile.xml:http://docs.wxwidgets.org/3.0/" xlink:href="http://docs.wxwidgets.org/3.0/classwx_date_time.html" target="_top" xlink:title="{wxDateTime\n||+ wxDateTime()\l+ wxDateTime()\l+ wxDateTime()\l+ wxDateTime()\l+ wxDateTime()\l+ wxDateTime()\l+ wxDateTime()\l+ wxDateTime()\land 107 more...\l+ ConvertYearToBC()\l+ GetAmPmStrings()\l+ GetBeginDST()\l+ GetEndDST()\l+ GetCentury()\l+ GetCountry()\l+ GetCurrentMonth()\l+ GetCurrentYear()\land 17 more...\l}">
<polygon fill="none" stroke="black" points="755.433,-948 755.433,-1192 864.433,-1192 864.433,-948 755.433,-948"/>
<text text-anchor="middle" x="809.933" y="-1180" font-family="FreeSans" font-size="10.00">wxDateTime</text>
<polyline fill="none" stroke="black" points="755.433,-1173 864.433,-1173 "/>
<text text-anchor="middle" x="809.933" y="-1161" font-family="FreeSans" font-size="10.00"> </text>
<polyline fill="none" stroke="black" points="755.433,-1154 864.433,-1154 "/>
<text text-anchor="start" x="763.433" y="-1142" font-family="FreeSans" font-size="10.00">+ wxDateTime()</text>
<text text-anchor="start" x="763.433" y="-1131" font-family="FreeSans" font-size="10.00">+ wxDateTime()</text>
<text text-anchor="start" x="763.433" y="-1120" font-family="FreeSans" font-size="10.00">+ wxDateTime()</text>
<text text-anchor="start" x="763.433" y="-1109" font-family="FreeSans" font-size="10.00">+ wxDateTime()</text>
<text text-anchor="start" x="763.433" y="-1098" font-family="FreeSans" font-size="10.00">+ wxDateTime()</text>
<text text-anchor="start" x="763.433" y="-1087" font-family="FreeSans" font-size="10.00">+ wxDateTime()</text>
<text text-anchor="start" x="763.433" y="-1076" font-family="FreeSans" font-size="10.00">+ wxDateTime()</text>
<text text-anchor="start" x="763.433" y="-1065" font-family="FreeSans" font-size="10.00">+ wxDateTime()</text>
<text text-anchor="start" x="763.433" y="-1054" font-family="FreeSans" font-size="10.00">and 107 more...</text>
<text text-anchor="start" x="763.433" y="-1043" font-family="FreeSans" font-size="10.00">+ ConvertYearToBC()</text>
<text text-anchor="start" x="763.433" y="-1032" font-family="FreeSans" font-size="10.00">+ GetAmPmStrings()</text>
<text text-anchor="start" x="763.433" y="-1021" font-family="FreeSans" font-size="10.00">+ GetBeginDST()</text>
<text text-anchor="start" x="763.433" y="-1010" font-family="FreeSans" font-size="10.00">+ GetEndDST()</text>
<text text-anchor="start" x="763.433" y="-999" font-family="FreeSans" font-size="10.00">+ GetCentury()</text>
<text text-anchor="start" x="763.433" y="-988" font-family="FreeSans" font-size="10.00">+ GetCountry()</text>
<text text-anchor="start" x="763.433" y="-977" font-family="FreeSans" font-size="10.00">+ GetCurrentMonth()</text>
<text text-anchor="start" x="763.433" y="-966" font-family="FreeSans" font-size="10.00">+ GetCurrentYear()</text>
<text text-anchor="start" x="763.433" y="-955" font-family="FreeSans" font-size="10.00">and 17 more...</text>
</a>
</g>
</g>
<!-- Node10&#45;&gt;Node5 -->
<g id="edge12" class="edge"><title>Node10&#45;&gt;Node5</title>
<path fill="none" stroke="#404040" d="M763.638,-947.886C752.027,-917.511 739.295,-884.202 726.761,-851.413"/>
<polygon fill="none" stroke="#404040" points="726.623,-851.052 720.745,-846.876 722.339,-839.843 728.217,-844.019 726.623,-851.052"/>
<text text-anchor="middle" x="787.433" y="-888.5" font-family="FreeSans" font-size="10.00"> &#45;m_LastModified</text>
</g>
<!-- Node11 -->
<g id="node10" class="node"><title>Node11</title>
<polygon fill="none" stroke="#bfbfbf" points="626.933,-1036 626.933,-1104 736.933,-1104 736.933,-1036 626.933,-1036"/>
<text text-anchor="start" x="634.933" y="-1092" font-family="FreeSans" font-size="10.00">std::vector&lt; cbProject</text>
<text text-anchor="middle" x="681.933" y="-1081" font-family="FreeSans" font-size="10.00">::Glob &gt;</text>
<polyline fill="none" stroke="#bfbfbf" points="626.933,-1074 736.933,-1074 "/>
<text text-anchor="middle" x="681.933" y="-1062" font-family="FreeSans" font-size="10.00"> </text>
<polyline fill="none" stroke="#bfbfbf" points="626.933,-1055 736.933,-1055 "/>
<text text-anchor="middle" x="681.933" y="-1043" font-family="FreeSans" font-size="10.00"> </text>
</g>
<!-- Node11&#45;&gt;Node5 -->
<g id="edge13" class="edge"><title>Node11&#45;&gt;Node5</title>
<path fill="none" stroke="#404040" d="M679.723,-1035.82C677.003,-994.959 672.165,-922.309 667.481,-851.964"/>
<polygon fill="none" stroke="#404040" points="667.468,-851.758 663.078,-846.037 666.671,-839.785 671.06,-845.506 667.468,-851.758"/>
<text text-anchor="middle" x="693.933" y="-888.5" font-family="FreeSans" font-size="10.00"> &#45;m_Globs</text>
</g>
<!-- Node13&#45;&gt;Node5 -->
<g id="edge15" class="edge"><title>Node13&#45;&gt;Node5</title>
<path fill="none" stroke="#404040" d="M849.373,-344.569C810.361,-372.557 763.367,-411.689 731.933,-456 727.731,-461.922 723.729,-468.102 719.919,-474.467"/>
<polygon fill="none" stroke="#404040" points="719.653,-474.931 720.141,-482.126 713.687,-485.343 713.199,-478.148 719.653,-474.931"/>
<text text-anchor="middle" x="795.933" y="-459" font-family="FreeSans" font-size="10.00"> &#45;m_CurrentlyCompilingTarget</text>
</g>
<!-- Node14 -->
<g id="node12" class="node"><title>Node14</title>
<g id="a_node12"><a doxygen="/media/alpha/Barracuda/cb_docs/src/wxTagFile.xml:http://docs.wxwidgets.org/3.0/" xlink:href="http://docs.wxwidgets.org/3.0/classwx_tree_item_id.html" target="_top" xlink:title="{wxTreeItemId\n||+ wxTreeItemId()\l+ IsOk()\l+ GetID()\l+ Unset()\l}">
<polygon fill="none" stroke="black" points="122.433,-1025 122.433,-1115 211.433,-1115 211.433,-1025 122.433,-1025"/>
<text text-anchor="middle" x="166.933" y="-1103" font-family="FreeSans" font-size="10.00">wxTreeItemId</text>
<polyline fill="none" stroke="black" points="122.433,-1096 211.433,-1096 "/>
<text text-anchor="middle" x="166.933" y="-1084" font-family="FreeSans" font-size="10.00"> </text>
<polyline fill="none" stroke="black" points="122.433,-1077 211.433,-1077 "/>
<text text-anchor="start" x="130.433" y="-1065" font-family="FreeSans" font-size="10.00">+ wxTreeItemId()</text>
<text text-anchor="start" x="130.433" y="-1054" font-family="FreeSans" font-size="10.00">+ IsOk()</text>
<text text-anchor="start" x="130.433" y="-1043" font-family="FreeSans" font-size="10.00">+ GetID()</text>
<text text-anchor="start" x="130.433" y="-1032" font-family="FreeSans" font-size="10.00">+ Unset()</text>
</a>
</g>
</g>
<!-- Node14&#45;&gt;Node2 -->
<g id="edge23" class="edge"><title>Node14&#45;&gt;Node2</title>
<path fill="none" stroke="#404040" d="M187.853,-1024.69C200.11,-996.525 214.585,-958.909 221.933,-924 262.173,-732.81 166.94,-664.137 244.933,-485 268.22,-431.512 314.299,-384.471 353.872,-351.209"/>
<polygon fill="none" stroke="#404040" points="353.99,-351.113 356.075,-344.209 363.249,-343.479 361.164,-350.382 353.99,-351.113"/>
<text text-anchor="middle" x="279.433" y="-660" font-family="FreeSans" font-size="10.00"> #m_TreeItemId</text>
</g>
<!-- Node14&#45;&gt;Node5 -->
<g id="edge19" class="edge"><title>Node14&#45;&gt;Node5</title>
<path fill="none" stroke="#404040" d="M181.984,-1025C192.041,-999.296 206.916,-967.092 225.933,-942 233.358,-932.203 240.004,-934.154 246.933,-924 264.44,-898.34 245.322,-876.954 269.933,-858 311.077,-826.312 456.596,-863.448 502.933,-840 521.96,-830.371 539.599,-817.22 555.613,-802.406"/>
<polygon fill="none" stroke="#404040" points="555.69,-802.332 557.243,-795.29 564.341,-794.016 562.787,-801.058 555.69,-802.332"/>
<text text-anchor="middle" x="306.433" y="-888.5" font-family="FreeSans" font-size="10.00"> &#45;m_ProjectNode</text>
</g>
<!-- Node15&#45;&gt;Node2 -->
<g id="edge21" class="edge"><title>Node15&#45;&gt;Node2</title>
<path fill="none" stroke="#404040" d="M364.819,-85.1921C352.204,-100.953 341.112,-121.578 345.933,-142 349.054,-155.22 353.476,-168.597 358.647,-181.67"/>
<polygon fill="none" stroke="#404040" points="358.777,-181.983 364.769,-185.995 363.371,-193.069 357.379,-189.058 358.777,-181.983"/>
<text text-anchor="middle" x="381.933" y="-134" font-family="FreeSans" font-size="10.00"> +generatedFiles</text>
</g>
</g>
</svg>
