<?xml version="1.0" encoding="UTF-8" standalone="no"?>
<!DOCTYPE svg PUBLIC "-//W3C//DTD SVG 1.1//EN"
 "http://www.w3.org/Graphics/SVG/1.1/DTD/svg11.dtd">
<!-- Generated by graphviz version 2.40.1 (20161225.0304)
 -->
<!-- Title: InfoPanel Pages: 1 -->
<svg width="113pt" height="414pt"
 viewBox="0.00 0.00 113.00 414.00" xmlns="http://www.w3.org/2000/svg" xmlns:xlink="http://www.w3.org/1999/xlink">
<g id="graph0" class="graph" transform="scale(1 1) rotate(0) translate(4 410)">
<title>InfoPanel</title>
<!-- Node0 -->
<g id="node1" class="node">
<title>Node0</title>
<polygon fill="#bfbfbf" stroke="#000000" points="0,-.5 0,-123.5 105,-123.5 105,-.5 0,-.5"/>
<text text-anchor="middle" x="52.5" y="-111.5" font-family="FreeSans" font-size="10.00" fill="#000000">InfoPanel</text>
<polyline fill="none" stroke="#000000" points="0,-104.5 105,-104.5 "/>
<text text-anchor="start" x="8" y="-92.5" font-family="FreeSans" font-size="10.00" fill="#000000">+ chkSkip</text>
<text text-anchor="start" x="8" y="-81.5" font-family="FreeSans" font-size="10.00" fill="#000000">+ lblIntro</text>
<text text-anchor="start" x="8" y="-70.5" font-family="FreeSans" font-size="10.00" fill="#000000">+ BoxSizer1</text>
<text text-anchor="start" x="8" y="-59.5" font-family="FreeSans" font-size="10.00" fill="#000000">+ ID_STATICTEXT1</text>
<text text-anchor="start" x="8" y="-48.5" font-family="FreeSans" font-size="10.00" fill="#000000">+ ID_CHECKBOX1</text>
<polyline fill="none" stroke="#000000" points="0,-41.5 105,-41.5 "/>
<text text-anchor="start" x="8" y="-29.5" font-family="FreeSans" font-size="10.00" fill="#000000">+ InfoPanel()</text>
<text text-anchor="start" x="8" y="-18.5" font-family="FreeSans" font-size="10.00" fill="#000000">+ ~InfoPanel()</text>
<text text-anchor="start" x="8" y="-7.5" font-family="FreeSans" font-size="10.00" fill="#000000">+ SetIntroText()</text>
</g>
<!-- Node1 -->
<g id="node2" class="node">
<title>Node1</title>
<g id="a_node2"><a doxygen="/media/alpha/Barracuda/cb_docs/src/wxTagFile.xml:http://docs.wxwidgets.org/3.0/" xlink:href="http://docs.wxwidgets.org/3.0/classwx_panel.html" target="_top" xlink:title="{wxPanel\n||}">
<polygon fill="none" stroke="#000000" points="26,-160.5 26,-217.5 79,-217.5 79,-160.5 26,-160.5"/>
<text text-anchor="middle" x="52.5" y="-205.5" font-family="FreeSans" font-size="10.00" fill="#000000">wxPanel</text>
<polyline fill="none" stroke="#000000" points="26,-198.5 79,-198.5 "/>
<text text-anchor="middle" x="52.5" y="-186.5" font-family="FreeSans" font-size="10.00" fill="#000000"> </text>
<polyline fill="none" stroke="#000000" points="26,-179.5 79,-179.5 "/>
<text text-anchor="middle" x="52.5" y="-167.5" font-family="FreeSans" font-size="10.00" fill="#000000"> </text>
</a>
</g>
</g>
<!-- Node1&#45;&gt;Node0 -->
<g id="edge1" class="edge">
<title>Node1&#45;&gt;Node0</title>
<path fill="none" stroke="#191970" d="M52.5,-150.2486C52.5,-141.8213 52.5,-132.7045 52.5,-123.6384"/>
<polygon fill="none" stroke="#191970" points="49.0001,-150.4987 52.5,-160.4987 56.0001,-150.4988 49.0001,-150.4987"/>
</g>
<!-- Node2 -->
<g id="node3" class="node">
<title>Node2</title>
<g id="a_node3"><a doxygen="/media/alpha/Barracuda/cb_docs/src/wxTagFile.xml:http://docs.wxwidgets.org/3.0/" xlink:href="http://docs.wxwidgets.org/3.0/classwx_window.html" target="_top" xlink:title="{wxWindow\n||}">
<polygon fill="none" stroke="#000000" points="21.5,-254.5 21.5,-311.5 83.5,-311.5 83.5,-254.5 21.5,-254.5"/>
<text text-anchor="middle" x="52.5" y="-299.5" font-family="FreeSans" font-size="10.00" fill="#000000">wxWindow</text>
<polyline fill="none" stroke="#000000" points="21.5,-292.5 83.5,-292.5 "/>
<text text-anchor="middle" x="52.5" y="-280.5" font-family="FreeSans" font-size="10.00" fill="#000000"> </text>
<polyline fill="none" stroke="#000000" points="21.5,-273.5 83.5,-273.5 "/>
<text text-anchor="middle" x="52.5" y="-261.5" font-family="FreeSans" font-size="10.00" fill="#000000"> </text>
</a>
</g>
</g>
<!-- Node2&#45;&gt;Node1 -->
<g id="edge2" class="edge">
<title>Node2&#45;&gt;Node1</title>
<path fill="none" stroke="#191970" d="M52.5,-244.1035C52.5,-235.2052 52.5,-225.9073 52.5,-217.538"/>
<polygon fill="none" stroke="#191970" points="49.0001,-244.2861 52.5,-254.2861 56.0001,-244.2862 49.0001,-244.2861"/>
</g>
<!-- Node3 -->
<g id="node4" class="node">
<title>Node3</title>
<g id="a_node4"><a doxygen="/media/alpha/Barracuda/cb_docs/src/wxTagFile.xml:http://docs.wxwidgets.org/3.0/" xlink:href="http://docs.wxwidgets.org/3.0/classwx_evt_handler.html" target="_top" xlink:title="{wxEvtHandler\n||}">
<polygon fill="none" stroke="#ff0000" points="15.5,-348.5 15.5,-405.5 89.5,-405.5 89.5,-348.5 15.5,-348.5"/>
<text text-anchor="middle" x="52.5" y="-393.5" font-family="FreeSans" font-size="10.00" fill="#000000">wxEvtHandler</text>
<polyline fill="none" stroke="#ff0000" points="15.5,-386.5 89.5,-386.5 "/>
<text text-anchor="middle" x="52.5" y="-374.5" font-family="FreeSans" font-size="10.00" fill="#000000"> </text>
<polyline fill="none" stroke="#ff0000" points="15.5,-367.5 89.5,-367.5 "/>
<text text-anchor="middle" x="52.5" y="-355.5" font-family="FreeSans" font-size="10.00" fill="#000000"> </text>
</a>
</g>
</g>
<!-- Node3&#45;&gt;Node2 -->
<g id="edge3" class="edge">
<title>Node3&#45;&gt;Node2</title>
<path fill="none" stroke="#191970" d="M52.5,-338.1035C52.5,-329.2052 52.5,-319.9073 52.5,-311.538"/>
<polygon fill="none" stroke="#191970" points="49.0001,-338.2861 52.5,-348.2861 56.0001,-338.2862 49.0001,-338.2861"/>
</g>
</g>
</svg>
