<?xml version="1.0" encoding="UTF-8" standalone="no"?>
<!DOCTYPE svg PUBLIC "-//W3C//DTD SVG 1.1//EN"
 "http://www.w3.org/Graphics/SVG/1.1/DTD/svg11.dtd">
<!-- Generated by graphviz version 2.38.0 (20140413.2041)
 -->
<!-- Title: FindReplace Pages: 1 -->
<svg width="328pt" height="855pt"
 viewBox="0.00 0.00 327.50 855.00" xmlns="http://www.w3.org/2000/svg" xmlns:xlink="http://www.w3.org/1999/xlink">
<g id="graph0" class="graph" transform="scale(1 1) rotate(0) translate(4 851)">
<title>FindReplace</title>
<polygon fill="white" stroke="none" points="-4,4 -4,-851 323.5,-851 323.5,4 -4,4"/>
<!-- Node1 -->
<g id="node1" class="node"><title>Node1</title>
<polygon fill="#bfbfbf" stroke="black" points="93.5,-0.5 93.5,-178.5 253.5,-178.5 253.5,-0.5 93.5,-0.5"/>
<text text-anchor="middle" x="173.5" y="-166.5" font-family="FreeSans" font-size="10.00">FindReplace</text>
<polyline fill="none" stroke="black" points="93.5,-159.5 253.5,-159.5 "/>
<text text-anchor="start" x="101.5" y="-147.5" font-family="FreeSans" font-size="10.00">&#45; m_SearchLogIndex</text>
<polyline fill="none" stroke="black" points="93.5,-140.5 253.5,-140.5 "/>
<text text-anchor="start" x="101.5" y="-128.5" font-family="FreeSans" font-size="10.00">+ FindReplace()</text>
<text text-anchor="start" x="101.5" y="-117.5" font-family="FreeSans" font-size="10.00">+ ~FindReplace()</text>
<text text-anchor="start" x="101.5" y="-106.5" font-family="FreeSans" font-size="10.00">+ CreateSearchLog()</text>
<text text-anchor="start" x="101.5" y="-95.5" font-family="FreeSans" font-size="10.00">+ ShowFindDialog()</text>
<text text-anchor="start" x="101.5" y="-84.5" font-family="FreeSans" font-size="10.00">+ FindNext()</text>
<text text-anchor="start" x="101.5" y="-73.5" font-family="FreeSans" font-size="10.00">+ FindSelectedText()</text>
<text text-anchor="start" x="101.5" y="-62.5" font-family="FreeSans" font-size="10.00">&#45; LogSearch()</text>
<text text-anchor="start" x="101.5" y="-51.5" font-family="FreeSans" font-size="10.00">&#45; CalculateFindReplaceStartEnd()</text>
<text text-anchor="start" x="101.5" y="-40.5" font-family="FreeSans" font-size="10.00">&#45; Find()</text>
<text text-anchor="start" x="101.5" y="-29.5" font-family="FreeSans" font-size="10.00">&#45; FindInFiles()</text>
<text text-anchor="start" x="101.5" y="-18.5" font-family="FreeSans" font-size="10.00">&#45; Replace()</text>
<text text-anchor="start" x="101.5" y="-7.5" font-family="FreeSans" font-size="10.00">&#45; ReplaceInFiles()</text>
</g>
<!-- Node2 -->
<g id="node2" class="node"><title>Node2</title>
<g id="a_node2"><a xlink:href="structcbFindReplaceData" target="_top" xlink:title="{cbFindReplaceData\n|+ start\l+ end\l+ findText\l+ replaceText\l+ initialreplacing\l+ findInFiles\l+ delOldSearches\l+ sortSearchResult\land 22 more...\l|+ ConvertEOLs()\l+ IsMultiLine()\l+ cbFindReplaceData()\l}">
<polygon fill="white" stroke="black" points="47.5,-226.5 47.5,-393.5 163.5,-393.5 163.5,-226.5 47.5,-226.5"/>
<text text-anchor="middle" x="105.5" y="-381.5" font-family="FreeSans" font-size="10.00">cbFindReplaceData</text>
<polyline fill="none" stroke="black" points="47.5,-374.5 163.5,-374.5 "/>
<text text-anchor="start" x="55.5" y="-362.5" font-family="FreeSans" font-size="10.00">+ start</text>
<text text-anchor="start" x="55.5" y="-351.5" font-family="FreeSans" font-size="10.00">+ end</text>
<text text-anchor="start" x="55.5" y="-340.5" font-family="FreeSans" font-size="10.00">+ findText</text>
<text text-anchor="start" x="55.5" y="-329.5" font-family="FreeSans" font-size="10.00">+ replaceText</text>
<text text-anchor="start" x="55.5" y="-318.5" font-family="FreeSans" font-size="10.00">+ initialreplacing</text>
<text text-anchor="start" x="55.5" y="-307.5" font-family="FreeSans" font-size="10.00">+ findInFiles</text>
<text text-anchor="start" x="55.5" y="-296.5" font-family="FreeSans" font-size="10.00">+ delOldSearches</text>
<text text-anchor="start" x="55.5" y="-285.5" font-family="FreeSans" font-size="10.00">+ sortSearchResult</text>
<text text-anchor="start" x="55.5" y="-274.5" font-family="FreeSans" font-size="10.00">and 22 more...</text>
<polyline fill="none" stroke="black" points="47.5,-267.5 163.5,-267.5 "/>
<text text-anchor="start" x="55.5" y="-255.5" font-family="FreeSans" font-size="10.00">+ ConvertEOLs()</text>
<text text-anchor="start" x="55.5" y="-244.5" font-family="FreeSans" font-size="10.00">+ IsMultiLine()</text>
<text text-anchor="start" x="55.5" y="-233.5" font-family="FreeSans" font-size="10.00">+ cbFindReplaceData()</text>
</a>
</g>
</g>
<!-- Node2&#45;&gt;Node1 -->
<g id="edge1" class="edge"><title>Node2&#45;&gt;Node1</title>
<path fill="none" stroke="#404040" d="M102.846,-226.266C103.949,-216.283 105.743,-206.327 108.5,-197 109.179,-194.702 109.921,-192.404 110.719,-190.11"/>
<polygon fill="none" stroke="#404040" points="110.807,-189.881 109.246,-182.841 115.144,-178.692 116.705,-185.732 110.807,-189.881"/>
<text text-anchor="middle" x="164.5" y="-200" font-family="FreeSans" font-size="10.00"> &#45;m_LastFindReplaceData</text>
</g>
<!-- Node3 -->
<g id="node3" class="node"><title>Node3</title>
<g id="a_node3"><a xlink:href="classcbSearchResultsLog" target="_top" xlink:title="{cbSearchResultsLog\n|# m_Base\l|+ cbSearchResultsLog()\l+ ~cbSearchResultsLog()\l+ FocusEntry()\l+ SetBasePath()\l+ CreateControl()\l# OnDoubleClick()\l# SyncEditor()\l}">
<polygon fill="white" stroke="black" points="182,-248.5 182,-371.5 307,-371.5 307,-248.5 182,-248.5"/>
<text text-anchor="middle" x="244.5" y="-359.5" font-family="FreeSans" font-size="10.00">cbSearchResultsLog</text>
<polyline fill="none" stroke="black" points="182,-352.5 307,-352.5 "/>
<text text-anchor="start" x="190" y="-340.5" font-family="FreeSans" font-size="10.00"># m_Base</text>
<polyline fill="none" stroke="black" points="182,-333.5 307,-333.5 "/>
<text text-anchor="start" x="190" y="-321.5" font-family="FreeSans" font-size="10.00">+ cbSearchResultsLog()</text>
<text text-anchor="start" x="190" y="-310.5" font-family="FreeSans" font-size="10.00">+ ~cbSearchResultsLog()</text>
<text text-anchor="start" x="190" y="-299.5" font-family="FreeSans" font-size="10.00">+ FocusEntry()</text>
<text text-anchor="start" x="190" y="-288.5" font-family="FreeSans" font-size="10.00">+ SetBasePath()</text>
<text text-anchor="start" x="190" y="-277.5" font-family="FreeSans" font-size="10.00">+ CreateControl()</text>
<text text-anchor="start" x="190" y="-266.5" font-family="FreeSans" font-size="10.00"># OnDoubleClick()</text>
<text text-anchor="start" x="190" y="-255.5" font-family="FreeSans" font-size="10.00"># SyncEditor()</text>
</a>
</g>
</g>
<!-- Node3&#45;&gt;Node1 -->
<g id="edge2" class="edge"><title>Node3&#45;&gt;Node1</title>
<path fill="none" stroke="#404040" d="M233.842,-248.241C230.261,-231.456 225.802,-213.364 220.5,-197 219.764,-194.729 218.996,-192.441 218.2,-190.142"/>
<polygon fill="none" stroke="#404040" points="218.102,-189.869 212.297,-185.591 214.013,-178.587 219.818,-182.865 218.102,-189.869"/>
<text text-anchor="middle" x="259" y="-200" font-family="FreeSans" font-size="10.00"> &#45;m_pSearchLog</text>
</g>
<!-- Node4 -->
<g id="node4" class="node"><title>Node4</title>
<g id="a_node4"><a xlink:href="classListCtrlLogger" target="_top" xlink:title="a logger which prints messages to a wxListCtrl ">
<polygon fill="white" stroke="black" points="84,-431.5 84,-642.5 227,-642.5 227,-431.5 84,-431.5"/>
<text text-anchor="middle" x="155.5" y="-630.5" font-family="FreeSans" font-size="10.00">ListCtrlLogger</text>
<polyline fill="none" stroke="black" points="84,-623.5 227,-623.5 "/>
<text text-anchor="start" x="92" y="-611.5" font-family="FreeSans" font-size="10.00"># control</text>
<text text-anchor="start" x="92" y="-600.5" font-family="FreeSans" font-size="10.00"># fixed</text>
<text text-anchor="start" x="92" y="-589.5" font-family="FreeSans" font-size="10.00"># titles</text>
<text text-anchor="start" x="92" y="-578.5" font-family="FreeSans" font-size="10.00"># widths</text>
<polyline fill="none" stroke="black" points="84,-571.5 227,-571.5 "/>
<text text-anchor="start" x="92" y="-559.5" font-family="FreeSans" font-size="10.00">+ ListCtrlLogger()</text>
<text text-anchor="start" x="92" y="-548.5" font-family="FreeSans" font-size="10.00">+ ~ListCtrlLogger()</text>
<text text-anchor="start" x="92" y="-537.5" font-family="FreeSans" font-size="10.00">+ CopyContentsToClipboard()</text>
<text text-anchor="start" x="92" y="-526.5" font-family="FreeSans" font-size="10.00">+ UpdateSettings()</text>
<text text-anchor="start" x="92" y="-515.5" font-family="FreeSans" font-size="10.00">+ Append()</text>
<text text-anchor="start" x="92" y="-504.5" font-family="FreeSans" font-size="10.00">+ Append()</text>
<text text-anchor="start" x="92" y="-493.5" font-family="FreeSans" font-size="10.00">+ GetItemsCount()</text>
<text text-anchor="start" x="92" y="-482.5" font-family="FreeSans" font-size="10.00">+ Clear()</text>
<text text-anchor="start" x="92" y="-471.5" font-family="FreeSans" font-size="10.00">+ CreateControl()</text>
<text text-anchor="start" x="92" y="-460.5" font-family="FreeSans" font-size="10.00">+ HasFeature()</text>
<text text-anchor="start" x="92" y="-449.5" font-family="FreeSans" font-size="10.00">+ AutoFitColumns()</text>
<text text-anchor="start" x="92" y="-438.5" font-family="FreeSans" font-size="10.00"># GetItemAsText()</text>
</a>
</g>
</g>
<!-- Node4&#45;&gt;Node3 -->
<g id="edge3" class="edge"><title>Node4&#45;&gt;Node3</title>
<path fill="none" stroke="midnightblue" d="M200.667,-421.814C207.499,-404.542 214.31,-387.323 220.456,-371.786"/>
<polygon fill="none" stroke="midnightblue" points="197.297,-420.818 196.873,-431.404 203.806,-423.393 197.297,-420.818"/>
</g>
<!-- Node5 -->
<g id="node5" class="node"><title>Node5</title>
<g id="a_node5"><a xlink:href="classLogger" target="_top" xlink:title="The base class for all kinds of loggers, see loggers.h for its derived classes. ">
<polygon fill="white" stroke="black" points="0,-690.5 0,-846.5 155,-846.5 155,-690.5 0,-690.5"/>
<text text-anchor="middle" x="77.5" y="-834.5" font-family="FreeSans" font-size="10.00">Logger</text>
<polyline fill="none" stroke="black" points="0,-827.5 155,-827.5 "/>
<text text-anchor="middle" x="77.5" y="-815.5" font-family="FreeSans" font-size="10.00"> </text>
<polyline fill="none" stroke="black" points="0,-808.5 155,-808.5 "/>
<text text-anchor="start" x="8" y="-796.5" font-family="FreeSans" font-size="10.00">+ Logger()</text>
<text text-anchor="start" x="8" y="-785.5" font-family="FreeSans" font-size="10.00">+ ~Logger()</text>
<text text-anchor="start" x="8" y="-774.5" font-family="FreeSans" font-size="10.00">+ Append()</text>
<text text-anchor="start" x="8" y="-763.5" font-family="FreeSans" font-size="10.00">+ Clear()</text>
<text text-anchor="start" x="8" y="-752.5" font-family="FreeSans" font-size="10.00">+ CopyContentsToClipboard()</text>
<text text-anchor="start" x="8" y="-741.5" font-family="FreeSans" font-size="10.00">+ UpdateSettings()</text>
<text text-anchor="start" x="8" y="-730.5" font-family="FreeSans" font-size="10.00">+ CreateControl()</text>
<text text-anchor="start" x="8" y="-719.5" font-family="FreeSans" font-size="10.00">+ GetWrapMode()</text>
<text text-anchor="start" x="8" y="-708.5" font-family="FreeSans" font-size="10.00">+ HasFeature()</text>
<text text-anchor="start" x="8" y="-697.5" font-family="FreeSans" font-size="10.00">+ AppendAdditionalMenuItems()</text>
</a>
</g>
</g>
<!-- Node5&#45;&gt;Node4 -->
<g id="edge4" class="edge"><title>Node5&#45;&gt;Node4</title>
<path fill="none" stroke="midnightblue" d="M106.911,-680.963C111.17,-668.432 115.592,-655.423 119.955,-642.584"/>
<polygon fill="none" stroke="midnightblue" points="103.594,-679.847 103.69,-690.441 110.222,-682.1 103.594,-679.847"/>
</g>
<!-- Node6 -->
<g id="node6" class="node"><title>Node6</title>
<g id="a_node6"><a xlink:href="classListCtrlLogger#structListCtrlLogger_1_1ListStyles" target="_top" xlink:title="{ListCtrlLogger::ListStyles\n|+ font\l+ colour\l|}">
<polygon fill="white" stroke="black" points="173.5,-734.5 173.5,-802.5 295.5,-802.5 295.5,-734.5 173.5,-734.5"/>
<text text-anchor="middle" x="234.5" y="-790.5" font-family="FreeSans" font-size="10.00">ListCtrlLogger::ListStyles</text>
<polyline fill="none" stroke="black" points="173.5,-783.5 295.5,-783.5 "/>
<text text-anchor="start" x="181.5" y="-771.5" font-family="FreeSans" font-size="10.00">+ font</text>
<text text-anchor="start" x="181.5" y="-760.5" font-family="FreeSans" font-size="10.00">+ colour</text>
<polyline fill="none" stroke="black" points="173.5,-753.5 295.5,-753.5 "/>
<text text-anchor="middle" x="234.5" y="-741.5" font-family="FreeSans" font-size="10.00"> </text>
</a>
</g>
</g>
<!-- Node6&#45;&gt;Node4 -->
<g id="edge5" class="edge"><title>Node6&#45;&gt;Node4</title>
<path fill="none" stroke="#404040" d="M223.013,-734.129C215.646,-712.727 205.601,-683.545 195.511,-654.234"/>
<polygon fill="none" stroke="#404040" points="195.403,-653.919 189.667,-649.548 191.497,-642.573 197.232,-646.944 195.403,-653.919"/>
<text text-anchor="middle" x="214.5" y="-664" font-family="FreeSans" font-size="10.00"> #style</text>
</g>
<!-- Node7 -->
<g id="node7" class="node"><title>Node7</title>
<polygon fill="white" stroke="#bfbfbf" points="245.5,-508.5 245.5,-565.5 319.5,-565.5 319.5,-508.5 245.5,-508.5"/>
<text text-anchor="middle" x="282.5" y="-553.5" font-family="FreeSans" font-size="10.00">wxEvtHandler</text>
<polyline fill="none" stroke="#bfbfbf" points="245.5,-546.5 319.5,-546.5 "/>
<text text-anchor="middle" x="282.5" y="-534.5" font-family="FreeSans" font-size="10.00"> </text>
<polyline fill="none" stroke="#bfbfbf" points="245.5,-527.5 319.5,-527.5 "/>
<text text-anchor="middle" x="282.5" y="-515.5" font-family="FreeSans" font-size="10.00"> </text>
</g>
<!-- Node7&#45;&gt;Node3 -->
<g id="edge6" class="edge"><title>Node7&#45;&gt;Node3</title>
<path fill="none" stroke="midnightblue" d="M276.132,-498.293C270.309,-463.816 261.593,-412.206 254.783,-371.888"/>
<polygon fill="none" stroke="midnightblue" points="272.724,-499.133 277.84,-508.411 279.626,-497.967 272.724,-499.133"/>
</g>
</g>
</svg>
