<?xml version="1.0" encoding="UTF-8" standalone="no"?>
<!DOCTYPE svg PUBLIC "-//W3C//DTD SVG 1.1//EN"
 "http://www.w3.org/Graphics/SVG/1.1/DTD/svg11.dtd">
<!-- Generated by graphviz version 2.38.0 (20140413.2041)
 -->
<!-- Title: EditorManager Pages: 1 -->
<svg width="566pt" height="1605pt"
 viewBox="0.00 0.00 566.00 1605.00" xmlns="http://www.w3.org/2000/svg" xmlns:xlink="http://www.w3.org/1999/xlink">
<g id="graph0" class="graph" transform="scale(1 1) rotate(0) translate(4 1601)">
<title>EditorManager</title>
<!-- Node5 -->
<g id="node1" class="node"><title>Node5</title>
<polygon fill="#bfbfbf" stroke="black" points="137,-171.5 137,-514.5 301,-514.5 301,-171.5 137,-171.5"/>
<text text-anchor="middle" x="219" y="-502.5" font-family="FreeSans" font-size="10.00">EditorManager</text>
<polyline fill="none" stroke="black" points="137,-495.5 301,-495.5 "/>
<text text-anchor="start" x="145" y="-483.5" font-family="FreeSans" font-size="10.00">&#45; m_nNotebookStackSize</text>
<text text-anchor="start" x="145" y="-472.5" font-family="FreeSans" font-size="10.00">&#45; m_Zoom</text>
<text text-anchor="start" x="145" y="-461.5" font-family="FreeSans" font-size="10.00">&#45; m_isCheckingForExternally</text>
<text text-anchor="start" x="145" y="-450.5" font-family="FreeSans" font-size="10.00">ModifiedFiles</text>
<text text-anchor="start" x="145" y="-439.5" font-family="FreeSans" font-size="10.00">&#45; s_CanShutdown</text>
<polyline fill="none" stroke="black" points="137,-432.5 301,-432.5 "/>
<text text-anchor="start" x="145" y="-420.5" font-family="FreeSans" font-size="10.00">+ operator=()</text>
<text text-anchor="start" x="145" y="-409.5" font-family="FreeSans" font-size="10.00">+ GetNotebook()</text>
<text text-anchor="start" x="145" y="-398.5" font-family="FreeSans" font-size="10.00">+ GetNotebookStack()</text>
<text text-anchor="start" x="145" y="-387.5" font-family="FreeSans" font-size="10.00">+ DeleteNotebookStack()</text>
<text text-anchor="start" x="145" y="-376.5" font-family="FreeSans" font-size="10.00">+ RebuildNotebookStack()</text>
<text text-anchor="start" x="145" y="-365.5" font-family="FreeSans" font-size="10.00">+ RecreateOpenEditorStyles()</text>
<text text-anchor="start" x="145" y="-354.5" font-family="FreeSans" font-size="10.00">+ GetEditorsCount()</text>
<text text-anchor="start" x="145" y="-343.5" font-family="FreeSans" font-size="10.00">+ IsOpen()</text>
<text text-anchor="start" x="145" y="-332.5" font-family="FreeSans" font-size="10.00">and 47 more...</text>
<text text-anchor="start" x="145" y="-321.5" font-family="FreeSans" font-size="10.00">+ CanShutdown()</text>
<text text-anchor="start" x="145" y="-310.5" font-family="FreeSans" font-size="10.00"># AddEditorBase()</text>
<text text-anchor="start" x="145" y="-299.5" font-family="FreeSans" font-size="10.00"># RemoveEditorBase()</text>
<text text-anchor="start" x="145" y="-288.5" font-family="FreeSans" font-size="10.00"># InternalGetBuiltinEditor()</text>
<text text-anchor="start" x="145" y="-277.5" font-family="FreeSans" font-size="10.00"># InternalGetEditorBase()</text>
<text text-anchor="start" x="145" y="-266.5" font-family="FreeSans" font-size="10.00">&#45; OnGenericContextMenuHandler()</text>
<text text-anchor="start" x="145" y="-255.5" font-family="FreeSans" font-size="10.00">&#45; OnPageChanged()</text>
<text text-anchor="start" x="145" y="-244.5" font-family="FreeSans" font-size="10.00">&#45; OnPageChanging()</text>
<text text-anchor="start" x="145" y="-233.5" font-family="FreeSans" font-size="10.00">&#45; OnPageClose()</text>
<text text-anchor="start" x="145" y="-222.5" font-family="FreeSans" font-size="10.00">&#45; OnPageContextMenu()</text>
<text text-anchor="start" x="145" y="-211.5" font-family="FreeSans" font-size="10.00">&#45; OnClose()</text>
<text text-anchor="start" x="145" y="-200.5" font-family="FreeSans" font-size="10.00">&#45; OnCloseAll()</text>
<text text-anchor="start" x="145" y="-189.5" font-family="FreeSans" font-size="10.00">&#45; OnCloseAllOthers()</text>
<text text-anchor="start" x="145" y="-178.5" font-family="FreeSans" font-size="10.00">and 24 more...</text>
</g>
<!-- Node6 -->
<g id="node2" class="node"><title>Node6</title>
<g id="a_node2"><a xlink:href="classMgr" target="_top" xlink:title="{Mgr\&lt; EditorManager \&gt;\n|&#45; isShutdown\l|+ Valid()\l+ Get()\l+ Free()\l# Mgr()\l# ~Mgr()\l&#45; Mgr()\l&#45; operator=()\l}">
<polygon fill="none" stroke="black" points="100,-0.5 100,-123.5 212,-123.5 212,-0.5 100,-0.5"/>
<text text-anchor="middle" x="156" y="-111.5" font-family="FreeSans" font-size="10.00">Mgr&lt; EditorManager &gt;</text>
<polyline fill="none" stroke="black" points="100,-104.5 212,-104.5 "/>
<text text-anchor="start" x="108" y="-92.5" font-family="FreeSans" font-size="10.00">&#45; isShutdown</text>
<polyline fill="none" stroke="black" points="100,-85.5 212,-85.5 "/>
<text text-anchor="start" x="108" y="-73.5" font-family="FreeSans" font-size="10.00">+ Valid()</text>
<text text-anchor="start" x="108" y="-62.5" font-family="FreeSans" font-size="10.00">+ Get()</text>
<text text-anchor="start" x="108" y="-51.5" font-family="FreeSans" font-size="10.00">+ Free()</text>
<text text-anchor="start" x="108" y="-40.5" font-family="FreeSans" font-size="10.00"># Mgr()</text>
<text text-anchor="start" x="108" y="-29.5" font-family="FreeSans" font-size="10.00"># ~Mgr()</text>
<text text-anchor="start" x="108" y="-18.5" font-family="FreeSans" font-size="10.00">&#45; Mgr()</text>
<text text-anchor="start" x="108" y="-7.5" font-family="FreeSans" font-size="10.00">&#45; operator=()</text>
</a>
</g>
</g>
<!-- Node5&#45;&gt;Node6 -->
<g id="edge2" class="edge"><title>Node5&#45;&gt;Node6</title>
<path fill="none" stroke="#404040" d="M147.079,-171.351C145.546,-165.205 144.176,-159.076 143,-153 141.914,-147.386 141.395,-141.559 141.305,-135.692"/>
<polygon fill="none" stroke="#404040" points="141.306,-135.642 137.494,-129.521 141.678,-123.648 145.49,-129.769 141.306,-135.642"/>
<text text-anchor="middle" x="164" y="-145" font-family="FreeSans" font-size="10.00"> &#45;instance</text>
</g>
<!-- Node19 -->
<g id="node12" class="node"><title>Node19</title>
<g id="a_node12"><a xlink:href="structEditorManagerInternalData" target="_top" xlink:title=" struct EditorManagerInternalData * This is the private data holder for the EditorManager * All data ...">
<polygon fill="none" stroke="black" points="235,-33.5 235,-90.5 381,-90.5 381,-33.5 235,-33.5"/>
<text text-anchor="middle" x="308" y="-78.5" font-family="FreeSans" font-size="10.00">EditorManagerInternalData</text>
<polyline fill="none" stroke="black" points="235,-71.5 381,-71.5 "/>
<text text-anchor="start" x="243" y="-59.5" font-family="FreeSans" font-size="10.00">+ m_SetFocusFlag</text>
<polyline fill="none" stroke="black" points="235,-52.5 381,-52.5 "/>
<text text-anchor="start" x="243" y="-40.5" font-family="FreeSans" font-size="10.00">+ EditorManagerInternalData()</text>
</a>
</g>
</g>
<!-- Node5&#45;&gt;Node19 -->
<g id="edge14" class="edge"><title>Node5&#45;&gt;Node19</title>
<path fill="none" stroke="#404040" d="M222.77,-171.426C225.494,-161.286 228.863,-151.398 233,-142 239.989,-126.122 251.6,-111.479 263.623,-99.2251"/>
<polygon fill="none" stroke="#404040" points="263.766,-99.0861 265.296,-92.0392 272.389,-90.7411 270.859,-97.788 263.766,-99.0861"/>
<text text-anchor="middle" x="260.5" y="-145" font-family="FreeSans" font-size="10.00"> +m_pOwner</text>
</g>
<!-- Node6&#45;&gt;Node5 -->
<g id="edge1" class="edge"><title>Node6&#45;&gt;Node5</title>
<path fill="none" stroke="midnightblue" d="M186.341,-133.179C187.294,-136.139 188.187,-139.088 189,-142 191.668,-151.553 194.112,-161.434 196.349,-171.453"/>
<polygon fill="none" stroke="midnightblue" points="189.652,-132.045 183.107,-123.713 183.028,-134.308 189.652,-132.045"/>
</g>
<!-- Node7 -->
<g id="node3" class="node"><title>Node7</title>
<g id="a_node3"><a doxygen="/media/alpha/Barracuda/cb_docs/src/wxTagFile.xml:http://docs.wxwidgets.org/3.0/" xlink:href="http://docs.wxwidgets.org/3.0/classwx_evt_handler.html" target="_top" xlink:title="{wxEvtHandler\n||}">
<polygon fill="none" stroke="black" points="32,-1384 32,-1441 106,-1441 106,-1384 32,-1384"/>
<text text-anchor="middle" x="69" y="-1429" font-family="FreeSans" font-size="10.00">wxEvtHandler</text>
<polyline fill="none" stroke="black" points="32,-1422 106,-1422 "/>
<text text-anchor="middle" x="69" y="-1410" font-family="FreeSans" font-size="10.00"> </text>
<polyline fill="none" stroke="black" points="32,-1403 106,-1403 "/>
<text text-anchor="middle" x="69" y="-1391" font-family="FreeSans" font-size="10.00"> </text>
</a>
</g>
</g>
<!-- Node7&#45;&gt;Node5 -->
<g id="edge3" class="edge"><title>Node7&#45;&gt;Node5</title>
<path fill="none" stroke="midnightblue" d="M60.582,-1374C35.2834,-1253.91 -32.7831,-869.314 60,-573 75.6561,-523 106.502,-474.34 136.891,-434.825"/>
<polygon fill="none" stroke="midnightblue" points="57.1675,-1374.77 62.68,-1383.82 64.0129,-1373.31 57.1675,-1374.77"/>
</g>
<!-- Node14 -->
<g id="node14" class="node"><title>Node14</title>
<g id="a_node14"><a doxygen="/media/alpha/Barracuda/cb_docs/src/wxTagFile.xml:http://docs.wxwidgets.org/3.0/" xlink:href="http://docs.wxwidgets.org/3.0/classwx_window.html" target="_top" xlink:title="{wxWindow\n||}">
<polygon fill="none" stroke="black" points="69,-1135 69,-1192 131,-1192 131,-1135 69,-1135"/>
<text text-anchor="middle" x="100" y="-1180" font-family="FreeSans" font-size="10.00">wxWindow</text>
<polyline fill="none" stroke="black" points="69,-1173 131,-1173 "/>
<text text-anchor="middle" x="100" y="-1161" font-family="FreeSans" font-size="10.00"> </text>
<polyline fill="none" stroke="black" points="69,-1154 131,-1154 "/>
<text text-anchor="middle" x="100" y="-1142" font-family="FreeSans" font-size="10.00"> </text>
</a>
</g>
</g>
<!-- Node7&#45;&gt;Node14 -->
<g id="edge17" class="edge"><title>Node7&#45;&gt;Node14</title>
<path fill="none" stroke="midnightblue" d="M73.7625,-1373.55C80.0442,-1323.5 90.9519,-1236.59 96.5169,-1192.25"/>
<polygon fill="none" stroke="midnightblue" points="70.2685,-1373.29 72.4958,-1383.65 77.214,-1374.16 70.2685,-1373.29"/>
</g>
<!-- Node8 -->
<g id="node4" class="node"><title>Node8</title>
<g id="a_node4"><a doxygen="/media/alpha/Barracuda/cb_docs/src/wxTagFile.xml:http://docs.wxwidgets.org/3.0/" xlink:href="http://docs.wxwidgets.org/3.0/classwx_object.html" target="_top" xlink:title="{wxObject\n||}">
<polygon fill="none" stroke="black" points="0,-1539.5 0,-1596.5 56,-1596.5 56,-1539.5 0,-1539.5"/>
<text text-anchor="middle" x="28" y="-1584.5" font-family="FreeSans" font-size="10.00">wxObject</text>
<polyline fill="none" stroke="black" points="0,-1577.5 56,-1577.5 "/>
<text text-anchor="middle" x="28" y="-1565.5" font-family="FreeSans" font-size="10.00"> </text>
<polyline fill="none" stroke="black" points="0,-1558.5 56,-1558.5 "/>
<text text-anchor="middle" x="28" y="-1546.5" font-family="FreeSans" font-size="10.00"> </text>
</a>
</g>
</g>
<!-- Node8&#45;&gt;Node7 -->
<g id="edge4" class="edge"><title>Node8&#45;&gt;Node7</title>
<path fill="none" stroke="midnightblue" d="M38.09,-1529.22C45.3793,-1501.93 55.059,-1465.69 61.6304,-1441.09"/>
<polygon fill="none" stroke="midnightblue" points="34.6239,-1528.64 35.4248,-1539.2 41.3869,-1530.44 34.6239,-1528.64"/>
</g>
<!-- Node9 -->
<g id="node5" class="node"><title>Node9</title>
<g id="a_node5"><a doxygen="/media/alpha/Barracuda/cb_docs/src/wxTagFile.xml:http://docs.wxwidgets.org/3.0/" xlink:href="http://docs.wxwidgets.org/3.0/classwx_trackable.html" target="_top" xlink:title="{wxTrackable\n||}">
<polygon fill="none" stroke="black" points="74.5,-1539.5 74.5,-1596.5 145.5,-1596.5 145.5,-1539.5 74.5,-1539.5"/>
<text text-anchor="middle" x="110" y="-1584.5" font-family="FreeSans" font-size="10.00">wxTrackable</text>
<polyline fill="none" stroke="black" points="74.5,-1577.5 145.5,-1577.5 "/>
<text text-anchor="middle" x="110" y="-1565.5" font-family="FreeSans" font-size="10.00"> </text>
<polyline fill="none" stroke="black" points="74.5,-1558.5 145.5,-1558.5 "/>
<text text-anchor="middle" x="110" y="-1546.5" font-family="FreeSans" font-size="10.00"> </text>
</a>
</g>
</g>
<!-- Node9&#45;&gt;Node7 -->
<g id="edge5" class="edge"><title>Node9&#45;&gt;Node7</title>
<path fill="none" stroke="midnightblue" d="M99.91,-1529.22C92.6207,-1501.93 82.941,-1465.69 76.3696,-1441.09"/>
<polygon fill="none" stroke="midnightblue" points="96.6131,-1530.44 102.575,-1539.2 103.376,-1528.64 96.6131,-1530.44"/>
</g>
<!-- Node10 -->
<g id="node6" class="node"><title>Node10</title>
<g id="a_node6"><a xlink:href="classcbAuiNotebook" target="_top" xlink:title="A notebook class This class is derived from wxAuiNotebook, to enhance its abilities. ">
<polygon fill="none" stroke="black" points="240,-573.5 240,-993.5 392,-993.5 392,-573.5 240,-573.5"/>
<text text-anchor="middle" x="316" y="-981.5" font-family="FreeSans" font-size="10.00">cbAuiNotebook</text>
<polyline fill="none" stroke="black" points="240,-974.5 392,-974.5 "/>
<text text-anchor="start" x="248" y="-962.5" font-family="FreeSans" font-size="10.00"># m_TabCtrls</text>
<text text-anchor="start" x="248" y="-951.5" font-family="FreeSans" font-size="10.00"># m_LastSelected</text>
<text text-anchor="start" x="248" y="-940.5" font-family="FreeSans" font-size="10.00"># m_LastId</text>
<text text-anchor="start" x="248" y="-929.5" font-family="FreeSans" font-size="10.00"># m_SetZoomOnIdle</text>
<text text-anchor="start" x="248" y="-918.5" font-family="FreeSans" font-size="10.00"># m_MinimizeFreeSpaceOnIdle</text>
<text text-anchor="start" x="248" y="-907.5" font-family="FreeSans" font-size="10.00"># s_UseTabTooltips</text>
<text text-anchor="start" x="248" y="-896.5" font-family="FreeSans" font-size="10.00"># s_AllowMousewheel</text>
<text text-anchor="start" x="248" y="-885.5" font-family="FreeSans" font-size="10.00"># s_cbAuiNotebookArray</text>
<text text-anchor="start" x="248" y="-874.5" font-family="FreeSans" font-size="10.00"># s_modToAdvance</text>
<text text-anchor="start" x="248" y="-863.5" font-family="FreeSans" font-size="10.00"># s_moveDirection</text>
<text text-anchor="start" x="248" y="-852.5" font-family="FreeSans" font-size="10.00"># s_advanceDirection</text>
<polyline fill="none" stroke="black" points="240,-845.5 392,-845.5 "/>
<text text-anchor="start" x="248" y="-833.5" font-family="FreeSans" font-size="10.00">+ cbAuiNotebook()</text>
<text text-anchor="start" x="248" y="-822.5" font-family="FreeSans" font-size="10.00">+ ~cbAuiNotebook()</text>
<text text-anchor="start" x="248" y="-811.5" font-family="FreeSans" font-size="10.00">+ AdvanceSelection()</text>
<text text-anchor="start" x="248" y="-800.5" font-family="FreeSans" font-size="10.00">+ SavePerspective()</text>
<text text-anchor="start" x="248" y="-789.5" font-family="FreeSans" font-size="10.00">+ LoadPerspective()</text>
<text text-anchor="start" x="248" y="-778.5" font-family="FreeSans" font-size="10.00">+ GetTabIndexFromTooltip()</text>
<text text-anchor="start" x="248" y="-767.5" font-family="FreeSans" font-size="10.00">+ GetTabPositionFromIndex()</text>
<text text-anchor="start" x="248" y="-756.5" font-family="FreeSans" font-size="10.00">+ MinimizeFreeSpace()</text>
<text text-anchor="start" x="248" y="-745.5" font-family="FreeSans" font-size="10.00">and 9 more...</text>
<text text-anchor="start" x="248" y="-734.5" font-family="FreeSans" font-size="10.00">+ UseToolTips()</text>
<text text-anchor="start" x="248" y="-723.5" font-family="FreeSans" font-size="10.00">+ AllowScrolling()</text>
<text text-anchor="start" x="248" y="-712.5" font-family="FreeSans" font-size="10.00">+ SetModKeys()</text>
<text text-anchor="start" x="248" y="-701.5" font-family="FreeSans" font-size="10.00">+ UseModToAdvance()</text>
<text text-anchor="start" x="248" y="-690.5" font-family="FreeSans" font-size="10.00">+ InvertAdvanceDirection()</text>
<text text-anchor="start" x="248" y="-679.5" font-family="FreeSans" font-size="10.00">+ InvertMoveDirection()</text>
<text text-anchor="start" x="248" y="-668.5" font-family="FreeSans" font-size="10.00"># UniqueIdFromTooltip()</text>
<text text-anchor="start" x="248" y="-657.5" font-family="FreeSans" font-size="10.00"># MinimizeFreeSpace()</text>
<text text-anchor="start" x="248" y="-646.5" font-family="FreeSans" font-size="10.00"># OnNavigationKeyNotebook()</text>
<text text-anchor="start" x="248" y="-635.5" font-family="FreeSans" font-size="10.00"># OnIdle()</text>
<text text-anchor="start" x="248" y="-624.5" font-family="FreeSans" font-size="10.00"># OnTabCtrlDblClick()</text>
<text text-anchor="start" x="248" y="-613.5" font-family="FreeSans" font-size="10.00"># OnTabCtrlMouseWheel()</text>
<text text-anchor="start" x="248" y="-602.5" font-family="FreeSans" font-size="10.00"># OnResize()</text>
<text text-anchor="start" x="248" y="-591.5" font-family="FreeSans" font-size="10.00"># OnDragDone()</text>
<text text-anchor="start" x="248" y="-580.5" font-family="FreeSans" font-size="10.00">and 8 more...</text>
</a>
</g>
</g>
<!-- Node10&#45;&gt;Node5 -->
<g id="edge6" class="edge"><title>Node10&#45;&gt;Node5</title>
<path fill="none" stroke="#404040" d="M288.491,-573.384C285.866,-559.671 283.039,-546.11 280,-533 279.496,-530.827 278.979,-528.644 278.45,-526.451"/>
<polygon fill="none" stroke="#404040" points="278.411,-526.294 273.077,-521.441 275.504,-514.651 280.838,-519.504 278.411,-526.294"/>
<text text-anchor="middle" x="318" y="-541.5" font-family="FreeSans" font-size="10.00"> &#45;m_pNotebook</text>
</g>
<!-- Node11 -->
<g id="node7" class="node"><title>Node11</title>
<g id="a_node7"><a doxygen="/media/alpha/Barracuda/cb_docs/src/wxTagFile.xml:http://docs.wxwidgets.org/3.0/" xlink:href="http://docs.wxwidgets.org/3.0/classwx_aui_notebook.html" target="_top" xlink:title="{wxAuiNotebook\n||+ wxAuiNotebook()\l+ wxAuiNotebook()\l+ AddPage()\l+ AddPage()\l+ AdvanceSelection()\l+ ChangeSelection()\l+ Create()\l+ DeleteAllPages()\land 44 more...\l# HasImageList()\l# GetImage()\l}">
<polygon fill="none" stroke="black" points="149.5,-1080 149.5,-1247 258.5,-1247 258.5,-1080 149.5,-1080"/>
<text text-anchor="middle" x="204" y="-1235" font-family="FreeSans" font-size="10.00">wxAuiNotebook</text>
<polyline fill="none" stroke="black" points="149.5,-1228 258.5,-1228 "/>
<text text-anchor="middle" x="204" y="-1216" font-family="FreeSans" font-size="10.00"> </text>
<polyline fill="none" stroke="black" points="149.5,-1209 258.5,-1209 "/>
<text text-anchor="start" x="157.5" y="-1197" font-family="FreeSans" font-size="10.00">+ wxAuiNotebook()</text>
<text text-anchor="start" x="157.5" y="-1186" font-family="FreeSans" font-size="10.00">+ wxAuiNotebook()</text>
<text text-anchor="start" x="157.5" y="-1175" font-family="FreeSans" font-size="10.00">+ AddPage()</text>
<text text-anchor="start" x="157.5" y="-1164" font-family="FreeSans" font-size="10.00">+ AddPage()</text>
<text text-anchor="start" x="157.5" y="-1153" font-family="FreeSans" font-size="10.00">+ AdvanceSelection()</text>
<text text-anchor="start" x="157.5" y="-1142" font-family="FreeSans" font-size="10.00">+ ChangeSelection()</text>
<text text-anchor="start" x="157.5" y="-1131" font-family="FreeSans" font-size="10.00">+ Create()</text>
<text text-anchor="start" x="157.5" y="-1120" font-family="FreeSans" font-size="10.00">+ DeleteAllPages()</text>
<text text-anchor="start" x="157.5" y="-1109" font-family="FreeSans" font-size="10.00">and 44 more...</text>
<text text-anchor="start" x="157.5" y="-1098" font-family="FreeSans" font-size="10.00"># HasImageList()</text>
<text text-anchor="start" x="157.5" y="-1087" font-family="FreeSans" font-size="10.00"># GetImage()</text>
</a>
</g>
</g>
<!-- Node11&#45;&gt;Node10 -->
<g id="edge7" class="edge"><title>Node11&#45;&gt;Node10</title>
<path fill="none" stroke="midnightblue" d="M231.492,-1069.71C238.408,-1046.37 246.115,-1020.36 253.981,-993.813"/>
<polygon fill="none" stroke="midnightblue" points="228.064,-1068.96 228.579,-1079.55 234.776,-1070.95 228.064,-1068.96"/>
</g>
<!-- Node12 -->
<g id="node8" class="node"><title>Node12</title>
<g id="a_node8"><a doxygen="/media/alpha/Barracuda/cb_docs/src/wxTagFile.xml:http://docs.wxwidgets.org/3.0/" xlink:href="http://docs.wxwidgets.org/3.0/classwx_book_ctrl_base.html" target="_top" xlink:title="{wxBookCtrlBase\n||+ SetPageImage()\l+ GetPageText()\l+ SetPageText()\l+ GetSelection()\l+ SetSelection()\l+ ChangeSelection()\l+ AddPage()\l+ DeleteAllPages()\l+ DeletePage()\l+ InsertPage()\l+ RemovePage()\l+ GetPageCount()\l}">
<polygon fill="none" stroke="red" points="152,-1323.5 152,-1501.5 256,-1501.5 256,-1323.5 152,-1323.5"/>
<text text-anchor="middle" x="204" y="-1489.5" font-family="FreeSans" font-size="10.00">wxBookCtrlBase</text>
<polyline fill="none" stroke="red" points="152,-1482.5 256,-1482.5 "/>
<text text-anchor="middle" x="204" y="-1470.5" font-family="FreeSans" font-size="10.00"> </text>
<polyline fill="none" stroke="red" points="152,-1463.5 256,-1463.5 "/>
<text text-anchor="start" x="160" y="-1451.5" font-family="FreeSans" font-size="10.00">+ SetPageImage()</text>
<text text-anchor="start" x="160" y="-1440.5" font-family="FreeSans" font-size="10.00">+ GetPageText()</text>
<text text-anchor="start" x="160" y="-1429.5" font-family="FreeSans" font-size="10.00">+ SetPageText()</text>
<text text-anchor="start" x="160" y="-1418.5" font-family="FreeSans" font-size="10.00">+ GetSelection()</text>
<text text-anchor="start" x="160" y="-1407.5" font-family="FreeSans" font-size="10.00">+ SetSelection()</text>
<text text-anchor="start" x="160" y="-1396.5" font-family="FreeSans" font-size="10.00">+ ChangeSelection()</text>
<text text-anchor="start" x="160" y="-1385.5" font-family="FreeSans" font-size="10.00">+ AddPage()</text>
<text text-anchor="start" x="160" y="-1374.5" font-family="FreeSans" font-size="10.00">+ DeleteAllPages()</text>
<text text-anchor="start" x="160" y="-1363.5" font-family="FreeSans" font-size="10.00">+ DeletePage()</text>
<text text-anchor="start" x="160" y="-1352.5" font-family="FreeSans" font-size="10.00">+ InsertPage()</text>
<text text-anchor="start" x="160" y="-1341.5" font-family="FreeSans" font-size="10.00">+ RemovePage()</text>
<text text-anchor="start" x="160" y="-1330.5" font-family="FreeSans" font-size="10.00">+ GetPageCount()</text>
</a>
</g>
</g>
<!-- Node12&#45;&gt;Node11 -->
<g id="edge8" class="edge"><title>Node12&#45;&gt;Node11</title>
<path fill="none" stroke="midnightblue" d="M204,-1313.1C204,-1291.27 204,-1268.35 204,-1247.22"/>
<polygon fill="none" stroke="midnightblue" points="200.5,-1313.37 204,-1323.37 207.5,-1313.37 200.5,-1313.37"/>
</g>
<!-- Node16 -->
<g id="node9" class="node"><title>Node16</title>
<g id="a_node9"><a doxygen="/media/alpha/Barracuda/cb_docs/src/wxTagFile.xml:http://docs.wxwidgets.org/3.0/" xlink:href="http://docs.wxwidgets.org/3.0/classwx_size.html" target="_top" xlink:title="{wxSize\n||+ wxSize()\l+ wxSize()\l+ DecTo()\l+ DecToIfSpecified()\l+ GetHeight()\l+ GetWidth()\l+ IncTo()\l+ IsFullySpecified()\land 25 more...\l}">
<polygon fill="none" stroke="black" points="276.5,-1091 276.5,-1236 381.5,-1236 381.5,-1091 276.5,-1091"/>
<text text-anchor="middle" x="329" y="-1224" font-family="FreeSans" font-size="10.00">wxSize</text>
<polyline fill="none" stroke="black" points="276.5,-1217 381.5,-1217 "/>
<text text-anchor="middle" x="329" y="-1205" font-family="FreeSans" font-size="10.00"> </text>
<polyline fill="none" stroke="black" points="276.5,-1198 381.5,-1198 "/>
<text text-anchor="start" x="284.5" y="-1186" font-family="FreeSans" font-size="10.00">+ wxSize()</text>
<text text-anchor="start" x="284.5" y="-1175" font-family="FreeSans" font-size="10.00">+ wxSize()</text>
<text text-anchor="start" x="284.5" y="-1164" font-family="FreeSans" font-size="10.00">+ DecTo()</text>
<text text-anchor="start" x="284.5" y="-1153" font-family="FreeSans" font-size="10.00">+ DecToIfSpecified()</text>
<text text-anchor="start" x="284.5" y="-1142" font-family="FreeSans" font-size="10.00">+ GetHeight()</text>
<text text-anchor="start" x="284.5" y="-1131" font-family="FreeSans" font-size="10.00">+ GetWidth()</text>
<text text-anchor="start" x="284.5" y="-1120" font-family="FreeSans" font-size="10.00">+ IncTo()</text>
<text text-anchor="start" x="284.5" y="-1109" font-family="FreeSans" font-size="10.00">+ IsFullySpecified()</text>
<text text-anchor="start" x="284.5" y="-1098" font-family="FreeSans" font-size="10.00">and 25 more...</text>
</a>
</g>
</g>
<!-- Node16&#45;&gt;Node10 -->
<g id="edge9" class="edge"><title>Node16&#45;&gt;Node10</title>
<path fill="none" stroke="#404040" d="M321.711,-1090.89C319.799,-1069.11 317.995,-1045.1 317,-1023 316.743,-1017.29 316.511,-1011.5 316.301,-1005.66"/>
<polygon fill="none" stroke="#404040" points="316.299,-1005.6 312.103,-999.735 315.903,-993.606 320.099,-999.471 316.299,-1005.6"/>
<text text-anchor="middle" x="353" y="-1015" font-family="FreeSans" font-size="10.00"> #m_TabCtrlSize</text>
</g>
<!-- Node17 -->
<g id="node10" class="node"><title>Node17</title>
<g id="a_node10"><a doxygen="/media/alpha/Barracuda/cb_docs/src/wxTagFile.xml:http://docs.wxwidgets.org/3.0/" xlink:href="http://docs.wxwidgets.org/3.0/classwx_string.html" target="_top" xlink:title="{wxString\n|+ npos\l|+ wxString()\l+ wxString()\l+ wxString()\l+ wxString()\l+ wxString()\l+ wxString()\l+ wxString()\l+ wxString()\land 222 more...\l+ Format()\l+ FormatV()\l+ FromCDouble()\l+ FromDouble()\l+ From8BitData()\l+ From8BitData()\l+ FromAscii()\l+ FromAscii()\land 7 more...\l}">
<polygon fill="none" stroke="black" points="422.5,-1041.5 422.5,-1285.5 513.5,-1285.5 513.5,-1041.5 422.5,-1041.5"/>
<text text-anchor="middle" x="468" y="-1273.5" font-family="FreeSans" font-size="10.00">wxString</text>
<polyline fill="none" stroke="black" points="422.5,-1266.5 513.5,-1266.5 "/>
<text text-anchor="start" x="430.5" y="-1254.5" font-family="FreeSans" font-size="10.00">+ npos</text>
<polyline fill="none" stroke="black" points="422.5,-1247.5 513.5,-1247.5 "/>
<text text-anchor="start" x="430.5" y="-1235.5" font-family="FreeSans" font-size="10.00">+ wxString()</text>
<text text-anchor="start" x="430.5" y="-1224.5" font-family="FreeSans" font-size="10.00">+ wxString()</text>
<text text-anchor="start" x="430.5" y="-1213.5" font-family="FreeSans" font-size="10.00">+ wxString()</text>
<text text-anchor="start" x="430.5" y="-1202.5" font-family="FreeSans" font-size="10.00">+ wxString()</text>
<text text-anchor="start" x="430.5" y="-1191.5" font-family="FreeSans" font-size="10.00">+ wxString()</text>
<text text-anchor="start" x="430.5" y="-1180.5" font-family="FreeSans" font-size="10.00">+ wxString()</text>
<text text-anchor="start" x="430.5" y="-1169.5" font-family="FreeSans" font-size="10.00">+ wxString()</text>
<text text-anchor="start" x="430.5" y="-1158.5" font-family="FreeSans" font-size="10.00">+ wxString()</text>
<text text-anchor="start" x="430.5" y="-1147.5" font-family="FreeSans" font-size="10.00">and 222 more...</text>
<text text-anchor="start" x="430.5" y="-1136.5" font-family="FreeSans" font-size="10.00">+ Format()</text>
<text text-anchor="start" x="430.5" y="-1125.5" font-family="FreeSans" font-size="10.00">+ FormatV()</text>
<text text-anchor="start" x="430.5" y="-1114.5" font-family="FreeSans" font-size="10.00">+ FromCDouble()</text>
<text text-anchor="start" x="430.5" y="-1103.5" font-family="FreeSans" font-size="10.00">+ FromDouble()</text>
<text text-anchor="start" x="430.5" y="-1092.5" font-family="FreeSans" font-size="10.00">+ From8BitData()</text>
<text text-anchor="start" x="430.5" y="-1081.5" font-family="FreeSans" font-size="10.00">+ From8BitData()</text>
<text text-anchor="start" x="430.5" y="-1070.5" font-family="FreeSans" font-size="10.00">+ FromAscii()</text>
<text text-anchor="start" x="430.5" y="-1059.5" font-family="FreeSans" font-size="10.00">+ FromAscii()</text>
<text text-anchor="start" x="430.5" y="-1048.5" font-family="FreeSans" font-size="10.00">and 7 more...</text>
</a>
</g>
</g>
<!-- Node17&#45;&gt;Node10 -->
<g id="edge10" class="edge"><title>Node17&#45;&gt;Node10</title>
<path fill="none" stroke="#404040" d="M422.498,-1049.34C414.268,-1028.88 405.465,-1006.99 396.579,-984.887"/>
<polygon fill="none" stroke="#404040" points="396.547,-984.808 390.597,-980.733 392.07,-973.674 398.02,-977.749 396.547,-984.808"/>
<text text-anchor="middle" x="440" y="-1015" font-family="FreeSans" font-size="10.00"> #s_modKeys</text>
</g>
<!-- Node18 -->
<g id="node11" class="node"><title>Node18</title>
<g id="a_node11"><a xlink:href="classEditorColourSet" target="_top" xlink:title="{EditorColourSet\n|&#45; m_Sets\l|+ EditorColourSet()\l+ EditorColourSet()\l+ ~EditorColourSet()\l+ AddHighlightLanguage()\l+ GetHighlightLanguage()\l+ GetHighlightLanguage()\l+ GetAllHighlightLanguages()\l+ AddOption()\land 28 more...\l&#45; DoApplyStyle()\l&#45; LoadAvailableSets()\l&#45; Load()\l&#45; ClearAllOptionColours()\l&#45; GetDefaultOption()\l}">
<polygon fill="none" stroke="black" points="416,-683.5 416,-883.5 558,-883.5 558,-683.5 416,-683.5"/>
<text text-anchor="middle" x="487" y="-871.5" font-family="FreeSans" font-size="10.00">EditorColourSet</text>
<polyline fill="none" stroke="black" points="416,-864.5 558,-864.5 "/>
<text text-anchor="start" x="424" y="-852.5" font-family="FreeSans" font-size="10.00">&#45; m_Sets</text>
<polyline fill="none" stroke="black" points="416,-845.5 558,-845.5 "/>
<text text-anchor="start" x="424" y="-833.5" font-family="FreeSans" font-size="10.00">+ EditorColourSet()</text>
<text text-anchor="start" x="424" y="-822.5" font-family="FreeSans" font-size="10.00">+ EditorColourSet()</text>
<text text-anchor="start" x="424" y="-811.5" font-family="FreeSans" font-size="10.00">+ ~EditorColourSet()</text>
<text text-anchor="start" x="424" y="-800.5" font-family="FreeSans" font-size="10.00">+ AddHighlightLanguage()</text>
<text text-anchor="start" x="424" y="-789.5" font-family="FreeSans" font-size="10.00">+ GetHighlightLanguage()</text>
<text text-anchor="start" x="424" y="-778.5" font-family="FreeSans" font-size="10.00">+ GetHighlightLanguage()</text>
<text text-anchor="start" x="424" y="-767.5" font-family="FreeSans" font-size="10.00">+ GetAllHighlightLanguages()</text>
<text text-anchor="start" x="424" y="-756.5" font-family="FreeSans" font-size="10.00">+ AddOption()</text>
<text text-anchor="start" x="424" y="-745.5" font-family="FreeSans" font-size="10.00">and 28 more...</text>
<text text-anchor="start" x="424" y="-734.5" font-family="FreeSans" font-size="10.00">&#45; DoApplyStyle()</text>
<text text-anchor="start" x="424" y="-723.5" font-family="FreeSans" font-size="10.00">&#45; LoadAvailableSets()</text>
<text text-anchor="start" x="424" y="-712.5" font-family="FreeSans" font-size="10.00">&#45; Load()</text>
<text text-anchor="start" x="424" y="-701.5" font-family="FreeSans" font-size="10.00">&#45; ClearAllOptionColours()</text>
<text text-anchor="start" x="424" y="-690.5" font-family="FreeSans" font-size="10.00">&#45; GetDefaultOption()</text>
</a>
</g>
</g>
<!-- Node17&#45;&gt;Node18 -->
<g id="edge12" class="edge"><title>Node17&#45;&gt;Node18</title>
<path fill="none" stroke="#404040" d="M474.09,-1041.34C476.442,-994.556 479.114,-941.38 481.416,-895.597"/>
<polygon fill="none" stroke="#404040" points="481.421,-895.495 477.727,-889.302 482.023,-883.51 485.717,-889.704 481.421,-895.495"/>
<text text-anchor="middle" x="498.5" y="-1015" font-family="FreeSans" font-size="10.00"> &#45;m_Name</text>
</g>
<!-- Node18&#45;&gt;Node5 -->
<g id="edge11" class="edge"><title>Node18&#45;&gt;Node5</title>
<path fill="none" stroke="#404040" d="M452.901,-683.296C438.892,-647.48 421.192,-607.421 401,-573 374.824,-528.379 340.662,-483.01 309.014,-444.552"/>
<polygon fill="none" stroke="#404040" points="308.692,-444.163 301.782,-442.1 301.029,-434.929 307.939,-436.992 308.692,-444.163"/>
<text text-anchor="middle" x="413.5" y="-541.5" font-family="FreeSans" font-size="10.00"> &#45;m_Theme</text>
</g>
<!-- Node19&#45;&gt;Node5 -->
<g id="edge13" class="edge"><title>Node19&#45;&gt;Node5</title>
<path fill="none" stroke="#404040" d="M304.458,-90.8828C301.834,-108.819 297.719,-132.518 292,-153 291.362,-155.287 290.706,-157.585 290.035,-159.891"/>
<polygon fill="none" stroke="#404040" points="290.005,-159.991 292.11,-166.888 286.553,-171.484 284.448,-164.587 290.005,-159.991"/>
<text text-anchor="middle" x="317.5" y="-145" font-family="FreeSans" font-size="10.00"> &#45;m_pData</text>
</g>
<!-- Node20 -->
<g id="node13" class="node"><title>Node20</title>
<g id="a_node13"><a xlink:href="structcbNotebookStack" target="_top" xlink:title="{cbNotebookStack\n||+ cbNotebookStack()\l}">
<polygon fill="none" stroke="black" points="69,-755 69,-812 177,-812 177,-755 69,-755"/>
<text text-anchor="middle" x="123" y="-800" font-family="FreeSans" font-size="10.00">cbNotebookStack</text>
<polyline fill="none" stroke="black" points="69,-793 177,-793 "/>
<text text-anchor="middle" x="123" y="-781" font-family="FreeSans" font-size="10.00"> </text>
<polyline fill="none" stroke="black" points="69,-774 177,-774 "/>
<text text-anchor="start" x="77" y="-762" font-family="FreeSans" font-size="10.00">+ cbNotebookStack()</text>
</a>
</g>
</g>
<!-- Node20&#45;&gt;Node5 -->
<g id="edge15" class="edge"><title>Node20&#45;&gt;Node5</title>
<path fill="none" stroke="#404040" d="M126.795,-754.998C133.377,-708.836 147.948,-612.963 166,-533 166.492,-530.82 166.994,-528.627 167.504,-526.424"/>
<polygon fill="none" stroke="#404040" points="167.549,-526.235 165.039,-519.475 170.313,-514.558 172.824,-521.318 167.549,-526.235"/>
<text text-anchor="middle" x="223" y="-547" font-family="FreeSans" font-size="10.00"> &#45;m_pNotebookStackHead</text>
<text text-anchor="middle" x="223" y="-536" font-family="FreeSans" font-size="10.00">&#45;m_pNotebookStackTail</text>
</g>
<!-- Node20&#45;&gt;Node20 -->
<g id="edge18" class="edge"><title>Node20&#45;&gt;Node20</title>
<path fill="none" stroke="#404040" d="M140.353,-812.312C164.818,-839.493 195,-829.889 195,-783.5 195,-742.729 171.685,-730.373 149.429,-746.432"/>
<polygon fill="none" stroke="#404040" points="149.23,-746.613 147.483,-753.609 140.353,-754.688 142.1,-747.692 149.23,-746.613"/>
<text text-anchor="middle" x="208.5" y="-781" font-family="FreeSans" font-size="10.00"> +next</text>
</g>
<!-- Node14&#45;&gt;Node20 -->
<g id="edge16" class="edge"><title>Node14&#45;&gt;Node20</title>
<path fill="none" stroke="#404040" d="M101.691,-1134.7C105.717,-1068.54 115.881,-901.503 120.566,-824.503"/>
<polygon fill="none" stroke="#404040" points="120.593,-824.058 116.965,-817.827 121.322,-812.081 124.95,-818.312 120.593,-824.058"/>
<text text-anchor="middle" x="129" y="-1015" font-family="FreeSans" font-size="10.00"> +window</text>
</g>
</g>
</svg>
