<?xml version="1.0" encoding="UTF-8" standalone="no"?>
<!DOCTYPE svg PUBLIC "-//W3C//DTD SVG 1.1//EN"
 "http://www.w3.org/Graphics/SVG/1.1/DTD/svg11.dtd">
<!-- Generated by graphviz version 2.38.0 (20140413.2041)
 -->
<!-- Title: ProjectDepsDlg Pages: 1 -->
<svg width="242pt" height="551pt"
 viewBox="0.00 0.00 242.00 551.00" xmlns="http://www.w3.org/2000/svg" xmlns:xlink="http://www.w3.org/1999/xlink">
<g id="graph0" class="graph" transform="scale(1 1) rotate(0) translate(4 547)">
<title>ProjectDepsDlg</title>
<!-- Node0 -->
<g id="node1" class="node"><title>Node0</title>
<polygon fill="#bfbfbf" stroke="black" points="37,-0.5 37,-112.5 144,-112.5 144,-0.5 37,-0.5"/>
<text text-anchor="middle" x="90.5" y="-100.5" font-family="FreeSans" font-size="10.00">ProjectDepsDlg</text>
<polyline fill="none" stroke="black" points="37,-93.5 144,-93.5 "/>
<text text-anchor="start" x="45" y="-81.5" font-family="FreeSans" font-size="10.00"># m_LastSel</text>
<polyline fill="none" stroke="black" points="37,-74.5 144,-74.5 "/>
<text text-anchor="start" x="45" y="-62.5" font-family="FreeSans" font-size="10.00">+ ProjectDepsDlg()</text>
<text text-anchor="start" x="45" y="-51.5" font-family="FreeSans" font-size="10.00">+ ~ProjectDepsDlg()</text>
<text text-anchor="start" x="45" y="-40.5" font-family="FreeSans" font-size="10.00">+ EndModal()</text>
<text text-anchor="start" x="45" y="-29.5" font-family="FreeSans" font-size="10.00"># FillList()</text>
<text text-anchor="start" x="45" y="-18.5" font-family="FreeSans" font-size="10.00"># SaveList()</text>
<text text-anchor="start" x="45" y="-7.5" font-family="FreeSans" font-size="10.00"># OnProjectChange()</text>
</g>
<!-- Node1 -->
<g id="node2" class="node"><title>Node1</title>
<g id="a_node2"><a xlink:href="classwxScrollingDialog" target="_top" xlink:title="{wxScrollingDialog\n||+ wxScrollingDialog()\l+ wxScrollingDialog()\l+ Create()\l+ Init()\l+ Show()\l+ ShowModal()\l}">
<polygon fill="none" stroke="black" points="37,-149.5 37,-261.5 144,-261.5 144,-149.5 37,-149.5"/>
<text text-anchor="middle" x="90.5" y="-249.5" font-family="FreeSans" font-size="10.00">wxScrollingDialog</text>
<polyline fill="none" stroke="black" points="37,-242.5 144,-242.5 "/>
<text text-anchor="middle" x="90.5" y="-230.5" font-family="FreeSans" font-size="10.00"> </text>
<polyline fill="none" stroke="black" points="37,-223.5 144,-223.5 "/>
<text text-anchor="start" x="45" y="-211.5" font-family="FreeSans" font-size="10.00">+ wxScrollingDialog()</text>
<text text-anchor="start" x="45" y="-200.5" font-family="FreeSans" font-size="10.00">+ wxScrollingDialog()</text>
<text text-anchor="start" x="45" y="-189.5" font-family="FreeSans" font-size="10.00">+ Create()</text>
<text text-anchor="start" x="45" y="-178.5" font-family="FreeSans" font-size="10.00">+ Init()</text>
<text text-anchor="start" x="45" y="-167.5" font-family="FreeSans" font-size="10.00">+ Show()</text>
<text text-anchor="start" x="45" y="-156.5" font-family="FreeSans" font-size="10.00">+ ShowModal()</text>
</a>
</g>
</g>
<!-- Node1&#45;&gt;Node0 -->
<g id="edge1" class="edge"><title>Node1&#45;&gt;Node0</title>
<path fill="none" stroke="midnightblue" d="M90.5,-139.176C90.5,-130.427 90.5,-121.522 90.5,-112.965"/>
<polygon fill="none" stroke="midnightblue" points="87.0001,-139.344 90.5,-149.344 94.0001,-139.344 87.0001,-139.344"/>
</g>
<!-- Node2 -->
<g id="node3" class="node"><title>Node2</title>
<polygon fill="none" stroke="#bfbfbf" points="0,-392 0,-449 55,-449 55,-392 0,-392"/>
<text text-anchor="middle" x="27.5" y="-437" font-family="FreeSans" font-size="10.00">wxDialog</text>
<polyline fill="none" stroke="#bfbfbf" points="0,-430 55,-430 "/>
<text text-anchor="middle" x="27.5" y="-418" font-family="FreeSans" font-size="10.00"> </text>
<polyline fill="none" stroke="#bfbfbf" points="0,-411 55,-411 "/>
<text text-anchor="middle" x="27.5" y="-399" font-family="FreeSans" font-size="10.00"> </text>
</g>
<!-- Node2&#45;&gt;Node1 -->
<g id="edge2" class="edge"><title>Node2&#45;&gt;Node1</title>
<path fill="none" stroke="midnightblue" d="M38.6326,-381.861C48.4746,-348.586 62.9603,-299.61 74.1235,-261.868"/>
<polygon fill="none" stroke="midnightblue" points="35.2162,-381.072 35.7361,-391.654 41.9288,-383.057 35.2162,-381.072"/>
</g>
<!-- Node3 -->
<g id="node4" class="node"><title>Node3</title>
<g id="a_node4"><a xlink:href="classwxDialogHelper" target="_top" xlink:title="{wxDialogHelper\n|# m_dialog\l# m_layoutLayoutAdaptationDone\l# m_buttonIds\l# m_layoutAdaptationLevel\l# sm_layoutAdapter\l# sm_layoutAdaptation\l|+ wxDialogHelper()\l+ ~wxDialogHelper()\l+ Init()\l+ SetDialog()\l+ GetDialog()\l+ DoLayoutAdaptation()\l+ CanDoLayoutAdaptation()\l+ GetContentWindow()\land 7 more...\l+ SetLayoutAdapter()\l+ GetLayoutAdapter()\l+ GetLayoutAdaptation()\l+ SetLayoutAdaptation()\l}">
<polygon fill="none" stroke="black" points="73,-298.5 73,-542.5 234,-542.5 234,-298.5 73,-298.5"/>
<text text-anchor="middle" x="153.5" y="-530.5" font-family="FreeSans" font-size="10.00">wxDialogHelper</text>
<polyline fill="none" stroke="black" points="73,-523.5 234,-523.5 "/>
<text text-anchor="start" x="81" y="-511.5" font-family="FreeSans" font-size="10.00"># m_dialog</text>
<text text-anchor="start" x="81" y="-500.5" font-family="FreeSans" font-size="10.00"># m_layoutLayoutAdaptationDone</text>
<text text-anchor="start" x="81" y="-489.5" font-family="FreeSans" font-size="10.00"># m_buttonIds</text>
<text text-anchor="start" x="81" y="-478.5" font-family="FreeSans" font-size="10.00"># m_layoutAdaptationLevel</text>
<text text-anchor="start" x="81" y="-467.5" font-family="FreeSans" font-size="10.00"># sm_layoutAdapter</text>
<text text-anchor="start" x="81" y="-456.5" font-family="FreeSans" font-size="10.00"># sm_layoutAdaptation</text>
<polyline fill="none" stroke="black" points="73,-449.5 234,-449.5 "/>
<text text-anchor="start" x="81" y="-437.5" font-family="FreeSans" font-size="10.00">+ wxDialogHelper()</text>
<text text-anchor="start" x="81" y="-426.5" font-family="FreeSans" font-size="10.00">+ ~wxDialogHelper()</text>
<text text-anchor="start" x="81" y="-415.5" font-family="FreeSans" font-size="10.00">+ Init()</text>
<text text-anchor="start" x="81" y="-404.5" font-family="FreeSans" font-size="10.00">+ SetDialog()</text>
<text text-anchor="start" x="81" y="-393.5" font-family="FreeSans" font-size="10.00">+ GetDialog()</text>
<text text-anchor="start" x="81" y="-382.5" font-family="FreeSans" font-size="10.00">+ DoLayoutAdaptation()</text>
<text text-anchor="start" x="81" y="-371.5" font-family="FreeSans" font-size="10.00">+ CanDoLayoutAdaptation()</text>
<text text-anchor="start" x="81" y="-360.5" font-family="FreeSans" font-size="10.00">+ GetContentWindow()</text>
<text text-anchor="start" x="81" y="-349.5" font-family="FreeSans" font-size="10.00">and 7 more...</text>
<text text-anchor="start" x="81" y="-338.5" font-family="FreeSans" font-size="10.00">+ SetLayoutAdapter()</text>
<text text-anchor="start" x="81" y="-327.5" font-family="FreeSans" font-size="10.00">+ GetLayoutAdapter()</text>
<text text-anchor="start" x="81" y="-316.5" font-family="FreeSans" font-size="10.00">+ GetLayoutAdaptation()</text>
<text text-anchor="start" x="81" y="-305.5" font-family="FreeSans" font-size="10.00">+ SetLayoutAdaptation()</text>
</a>
</g>
</g>
<!-- Node3&#45;&gt;Node1 -->
<g id="edge3" class="edge"><title>Node3&#45;&gt;Node1</title>
<path fill="none" stroke="midnightblue" d="M114.76,-288.523C111.987,-279.148 109.294,-270.04 106.771,-261.512"/>
<polygon fill="none" stroke="midnightblue" points="111.482,-289.78 117.675,-298.377 118.195,-287.795 111.482,-289.78"/>
</g>
</g>
</svg>
