<?xml version="1.0" encoding="UTF-8" standalone="no"?>
<!DOCTYPE svg PUBLIC "-//W3C//DTD SVG 1.1//EN"
 "http://www.w3.org/Graphics/SVG/1.1/DTD/svg11.dtd">
<!-- Generated by graphviz version 2.38.0 (20140413.2041)
 -->
<!-- Title: WizPageBase Pages: 1 -->
<svg width="1199pt" height="507pt"
 viewBox="0.00 0.00 1199.00 507.00" xmlns="http://www.w3.org/2000/svg" xmlns:xlink="http://www.w3.org/1999/xlink">
<g id="graph0" class="graph" transform="scale(1 1) rotate(0) translate(4 503)">
<title>WizPageBase</title>
<!-- Node0 -->
<g id="node1" class="node"><title>Node0</title>
<polygon fill="#bfbfbf" stroke="black" points="607.5,-226.5 607.5,-404.5 714.5,-404.5 714.5,-226.5 607.5,-226.5"/>
<text text-anchor="middle" x="661" y="-392.5" font-family="FreeSans" font-size="10.00">WizPageBase</text>
<polyline fill="none" stroke="black" points="607.5,-385.5 714.5,-385.5 "/>
<text text-anchor="start" x="615.5" y="-373.5" font-family="FreeSans" font-size="10.00">&#45; m_PageName</text>
<text text-anchor="start" x="615.5" y="-362.5" font-family="FreeSans" font-size="10.00">&#45; m_SkipPage</text>
<text text-anchor="start" x="615.5" y="-351.5" font-family="FreeSans" font-size="10.00">&#45; s_PagesByName</text>
<polyline fill="none" stroke="black" points="607.5,-344.5 714.5,-344.5 "/>
<text text-anchor="start" x="615.5" y="-332.5" font-family="FreeSans" font-size="10.00">+ WizPageBase()</text>
<text text-anchor="start" x="615.5" y="-321.5" font-family="FreeSans" font-size="10.00">+ ~WizPageBase()</text>
<text text-anchor="start" x="615.5" y="-310.5" font-family="FreeSans" font-size="10.00">+ SkipPage()</text>
<text text-anchor="start" x="615.5" y="-299.5" font-family="FreeSans" font-size="10.00">+ OnPageChanging()</text>
<text text-anchor="start" x="615.5" y="-288.5" font-family="FreeSans" font-size="10.00">+ OnPageChanged()</text>
<text text-anchor="start" x="615.5" y="-277.5" font-family="FreeSans" font-size="10.00">+ GetPrev()</text>
<text text-anchor="start" x="615.5" y="-266.5" font-family="FreeSans" font-size="10.00">+ GetNext()</text>
<text text-anchor="start" x="615.5" y="-255.5" font-family="FreeSans" font-size="10.00">+ GetPageName()</text>
<text text-anchor="start" x="615.5" y="-244.5" font-family="FreeSans" font-size="10.00">+ GetSkipPage()</text>
<text text-anchor="start" x="615.5" y="-233.5" font-family="FreeSans" font-size="10.00">+ SetSkipPage()</text>
</g>
<!-- Node2 -->
<g id="node3" class="node"><title>Node2</title>
<g id="a_node3"><a xlink:href="classWizBuildTargetPanel" target="_top" xlink:title="{WizBuildTargetPanel\n|&#45; m_pBuildTargetPanel\l|+ WizBuildTargetPanel()\l+ ~WizBuildTargetPanel()\l+ GetCompilerID()\l+ GetEnableDebug()\l+ GetTargetName()\l+ GetTargetOutputDir()\l+ GetTargetObjectOutputDir()\l+ OnPageChanging()\l}">
<polygon fill="none" stroke="black" points="0,-28 0,-162 144,-162 144,-28 0,-28"/>
<text text-anchor="middle" x="72" y="-150" font-family="FreeSans" font-size="10.00">WizBuildTargetPanel</text>
<polyline fill="none" stroke="black" points="0,-143 144,-143 "/>
<text text-anchor="start" x="8" y="-131" font-family="FreeSans" font-size="10.00">&#45; m_pBuildTargetPanel</text>
<polyline fill="none" stroke="black" points="0,-124 144,-124 "/>
<text text-anchor="start" x="8" y="-112" font-family="FreeSans" font-size="10.00">+ WizBuildTargetPanel()</text>
<text text-anchor="start" x="8" y="-101" font-family="FreeSans" font-size="10.00">+ ~WizBuildTargetPanel()</text>
<text text-anchor="start" x="8" y="-90" font-family="FreeSans" font-size="10.00">+ GetCompilerID()</text>
<text text-anchor="start" x="8" y="-79" font-family="FreeSans" font-size="10.00">+ GetEnableDebug()</text>
<text text-anchor="start" x="8" y="-68" font-family="FreeSans" font-size="10.00">+ GetTargetName()</text>
<text text-anchor="start" x="8" y="-57" font-family="FreeSans" font-size="10.00">+ GetTargetOutputDir()</text>
<text text-anchor="start" x="8" y="-46" font-family="FreeSans" font-size="10.00">+ GetTargetObjectOutputDir()</text>
<text text-anchor="start" x="8" y="-35" font-family="FreeSans" font-size="10.00">+ OnPageChanging()</text>
</a>
</g>
</g>
<!-- Node0&#45;&gt;Node2 -->
<g id="edge2" class="edge"><title>Node0&#45;&gt;Node2</title>
<path fill="none" stroke="midnightblue" d="M597.144,-311.239C495.939,-303.486 295.58,-277.406 153,-190 140.878,-182.569 129.623,-172.722 119.593,-162.198"/>
<polygon fill="none" stroke="midnightblue" points="596.985,-314.737 607.214,-311.975 597.495,-307.756 596.985,-314.737"/>
</g>
<!-- Node3 -->
<g id="node4" class="node"><title>Node3</title>
<g id="a_node4"><a xlink:href="classWizCompilerPanel" target="_top" xlink:title="{WizCompilerPanel\n|&#45; m_pCompilerPanel\l&#45; m_AllowConfigChange\l|+ WizCompilerPanel()\l+ ~WizCompilerPanel()\l+ GetCompilerID()\l+ GetWantDebug()\l+ GetDebugName()\l+ GetDebugOutputDir()\l+ GetDebugObjectOutputDir()\l+ GetWantRelease()\l+ GetReleaseName()\l+ GetReleaseOutputDir()\l+ GetReleaseObjectOutputDir()\l+ OnPageChanging()\l}">
<polygon fill="none" stroke="black" points="162.5,-0.5 162.5,-189.5 313.5,-189.5 313.5,-0.5 162.5,-0.5"/>
<text text-anchor="middle" x="238" y="-177.5" font-family="FreeSans" font-size="10.00">WizCompilerPanel</text>
<polyline fill="none" stroke="black" points="162.5,-170.5 313.5,-170.5 "/>
<text text-anchor="start" x="170.5" y="-158.5" font-family="FreeSans" font-size="10.00">&#45; m_pCompilerPanel</text>
<text text-anchor="start" x="170.5" y="-147.5" font-family="FreeSans" font-size="10.00">&#45; m_AllowConfigChange</text>
<polyline fill="none" stroke="black" points="162.5,-140.5 313.5,-140.5 "/>
<text text-anchor="start" x="170.5" y="-128.5" font-family="FreeSans" font-size="10.00">+ WizCompilerPanel()</text>
<text text-anchor="start" x="170.5" y="-117.5" font-family="FreeSans" font-size="10.00">+ ~WizCompilerPanel()</text>
<text text-anchor="start" x="170.5" y="-106.5" font-family="FreeSans" font-size="10.00">+ GetCompilerID()</text>
<text text-anchor="start" x="170.5" y="-95.5" font-family="FreeSans" font-size="10.00">+ GetWantDebug()</text>
<text text-anchor="start" x="170.5" y="-84.5" font-family="FreeSans" font-size="10.00">+ GetDebugName()</text>
<text text-anchor="start" x="170.5" y="-73.5" font-family="FreeSans" font-size="10.00">+ GetDebugOutputDir()</text>
<text text-anchor="start" x="170.5" y="-62.5" font-family="FreeSans" font-size="10.00">+ GetDebugObjectOutputDir()</text>
<text text-anchor="start" x="170.5" y="-51.5" font-family="FreeSans" font-size="10.00">+ GetWantRelease()</text>
<text text-anchor="start" x="170.5" y="-40.5" font-family="FreeSans" font-size="10.00">+ GetReleaseName()</text>
<text text-anchor="start" x="170.5" y="-29.5" font-family="FreeSans" font-size="10.00">+ GetReleaseOutputDir()</text>
<text text-anchor="start" x="170.5" y="-18.5" font-family="FreeSans" font-size="10.00">+ GetReleaseObjectOutputDir()</text>
<text text-anchor="start" x="170.5" y="-7.5" font-family="FreeSans" font-size="10.00">+ OnPageChanging()</text>
</a>
</g>
</g>
<!-- Node0&#45;&gt;Node3 -->
<g id="edge3" class="edge"><title>Node0&#45;&gt;Node3</title>
<path fill="none" stroke="midnightblue" d="M597.482,-300.841C526.189,-283.395 409.229,-248.271 323,-190 319.81,-187.844 316.658,-185.544 313.556,-183.129"/>
<polygon fill="none" stroke="midnightblue" points="596.69,-304.25 607.231,-303.186 598.327,-297.444 596.69,-304.25"/>
</g>
<!-- Node4 -->
<g id="node5" class="node"><title>Node4</title>
<g id="a_node5"><a xlink:href="classWizFilePathPanel" target="_top" xlink:title="{WizFilePathPanel\n|&#45; m_pFilePathPanel\l&#45; m_Filename\l&#45; m_HeaderGuard\l&#45; m_AddToProject\l|+ WizFilePathPanel()\l+ ~WizFilePathPanel()\l+ GetFilename()\l+ GetHeaderGuard()\l+ GetAddToProject()\l+ GetTargetIndex()\l+ SetFilePathSelectionFilter()\l+ OnPageChanging()\l}">
<polygon fill="none" stroke="black" points="332,-11.5 332,-178.5 476,-178.5 476,-11.5 332,-11.5"/>
<text text-anchor="middle" x="404" y="-166.5" font-family="FreeSans" font-size="10.00">WizFilePathPanel</text>
<polyline fill="none" stroke="black" points="332,-159.5 476,-159.5 "/>
<text text-anchor="start" x="340" y="-147.5" font-family="FreeSans" font-size="10.00">&#45; m_pFilePathPanel</text>
<text text-anchor="start" x="340" y="-136.5" font-family="FreeSans" font-size="10.00">&#45; m_Filename</text>
<text text-anchor="start" x="340" y="-125.5" font-family="FreeSans" font-size="10.00">&#45; m_HeaderGuard</text>
<text text-anchor="start" x="340" y="-114.5" font-family="FreeSans" font-size="10.00">&#45; m_AddToProject</text>
<polyline fill="none" stroke="black" points="332,-107.5 476,-107.5 "/>
<text text-anchor="start" x="340" y="-95.5" font-family="FreeSans" font-size="10.00">+ WizFilePathPanel()</text>
<text text-anchor="start" x="340" y="-84.5" font-family="FreeSans" font-size="10.00">+ ~WizFilePathPanel()</text>
<text text-anchor="start" x="340" y="-73.5" font-family="FreeSans" font-size="10.00">+ GetFilename()</text>
<text text-anchor="start" x="340" y="-62.5" font-family="FreeSans" font-size="10.00">+ GetHeaderGuard()</text>
<text text-anchor="start" x="340" y="-51.5" font-family="FreeSans" font-size="10.00">+ GetAddToProject()</text>
<text text-anchor="start" x="340" y="-40.5" font-family="FreeSans" font-size="10.00">+ GetTargetIndex()</text>
<text text-anchor="start" x="340" y="-29.5" font-family="FreeSans" font-size="10.00">+ SetFilePathSelectionFilter()</text>
<text text-anchor="start" x="340" y="-18.5" font-family="FreeSans" font-size="10.00">+ OnPageChanging()</text>
</a>
</g>
</g>
<!-- Node0&#45;&gt;Node4 -->
<g id="edge4" class="edge"><title>Node0&#45;&gt;Node4</title>
<path fill="none" stroke="midnightblue" d="M598.566,-275.74C563.602,-252.739 520.111,-221.906 485,-190 481.014,-186.378 477.034,-182.567 473.097,-178.639"/>
<polygon fill="none" stroke="midnightblue" points="596.974,-278.88 607.261,-281.415 600.8,-273.018 596.974,-278.88"/>
</g>
<!-- Node5 -->
<g id="node6" class="node"><title>Node5</title>
<g id="a_node6"><a xlink:href="classWizGenericSelectPathPanel" target="_top" xlink:title="{WizGenericSelectPathPanel\n|&#45; m_pGenericSelectPath\l|+ WizGenericSelectPathPanel()\l+ ~WizGenericSelectPathPanel()\l+ OnButton()\l+ OnPageChanging()\l}">
<polygon fill="none" stroke="black" points="494,-50 494,-140 652,-140 652,-50 494,-50"/>
<text text-anchor="middle" x="573" y="-128" font-family="FreeSans" font-size="10.00">WizGenericSelectPathPanel</text>
<polyline fill="none" stroke="black" points="494,-121 652,-121 "/>
<text text-anchor="start" x="502" y="-109" font-family="FreeSans" font-size="10.00">&#45; m_pGenericSelectPath</text>
<polyline fill="none" stroke="black" points="494,-102 652,-102 "/>
<text text-anchor="start" x="502" y="-90" font-family="FreeSans" font-size="10.00">+ WizGenericSelectPathPanel()</text>
<text text-anchor="start" x="502" y="-79" font-family="FreeSans" font-size="10.00">+ ~WizGenericSelectPathPanel()</text>
<text text-anchor="start" x="502" y="-68" font-family="FreeSans" font-size="10.00">+ OnButton()</text>
<text text-anchor="start" x="502" y="-57" font-family="FreeSans" font-size="10.00">+ OnPageChanging()</text>
</a>
</g>
</g>
<!-- Node0&#45;&gt;Node5 -->
<g id="edge5" class="edge"><title>Node0&#45;&gt;Node5</title>
<path fill="none" stroke="midnightblue" d="M621.663,-216.828C610.869,-190.028 599.697,-162.288 590.784,-140.157"/>
<polygon fill="none" stroke="midnightblue" points="618.478,-218.289 625.461,-226.258 624.971,-215.674 618.478,-218.289"/>
</g>
<!-- Node6 -->
<g id="node7" class="node"><title>Node6</title>
<g id="a_node7"><a xlink:href="classWizGenericSingleChoiceList" target="_top" xlink:title="{WizGenericSingleChoiceList\n|&#45; m_pGenericSingleChoiceList\l|+ WizGenericSingleChoiceList()\l+ ~WizGenericSingleChoiceList()\l+ GetChoice()\l+ SetChoice()\l+ OnPageChanging()\l}">
<polygon fill="none" stroke="black" points="670,-44.5 670,-145.5 828,-145.5 828,-44.5 670,-44.5"/>
<text text-anchor="middle" x="749" y="-133.5" font-family="FreeSans" font-size="10.00">WizGenericSingleChoiceList</text>
<polyline fill="none" stroke="black" points="670,-126.5 828,-126.5 "/>
<text text-anchor="start" x="678" y="-114.5" font-family="FreeSans" font-size="10.00">&#45; m_pGenericSingleChoiceList</text>
<polyline fill="none" stroke="black" points="670,-107.5 828,-107.5 "/>
<text text-anchor="start" x="678" y="-95.5" font-family="FreeSans" font-size="10.00">+ WizGenericSingleChoiceList()</text>
<text text-anchor="start" x="678" y="-84.5" font-family="FreeSans" font-size="10.00">+ ~WizGenericSingleChoiceList()</text>
<text text-anchor="start" x="678" y="-73.5" font-family="FreeSans" font-size="10.00">+ GetChoice()</text>
<text text-anchor="start" x="678" y="-62.5" font-family="FreeSans" font-size="10.00">+ SetChoice()</text>
<text text-anchor="start" x="678" y="-51.5" font-family="FreeSans" font-size="10.00">+ OnPageChanging()</text>
</a>
</g>
</g>
<!-- Node0&#45;&gt;Node6 -->
<g id="edge6" class="edge"><title>Node0&#45;&gt;Node6</title>
<path fill="none" stroke="midnightblue" d="M700.325,-216.859C710.253,-192.206 720.503,-166.756 729.021,-145.607"/>
<polygon fill="none" stroke="midnightblue" points="697.029,-215.674 696.539,-226.258 703.522,-218.289 697.029,-215.674"/>
</g>
<!-- Node7 -->
<g id="node8" class="node"><title>Node7</title>
<g id="a_node8"><a xlink:href="classWizInfoPanel" target="_top" xlink:title="{WizInfoPanel\n|&#45; m_InfoPanel\l|+ WizInfoPanel()\l+ ~WizInfoPanel()\l+ OnPageChanging()\l}">
<polygon fill="none" stroke="black" points="845.5,-55.5 845.5,-134.5 952.5,-134.5 952.5,-55.5 845.5,-55.5"/>
<text text-anchor="middle" x="899" y="-122.5" font-family="FreeSans" font-size="10.00">WizInfoPanel</text>
<polyline fill="none" stroke="black" points="845.5,-115.5 952.5,-115.5 "/>
<text text-anchor="start" x="853.5" y="-103.5" font-family="FreeSans" font-size="10.00">&#45; m_InfoPanel</text>
<polyline fill="none" stroke="black" points="845.5,-96.5 952.5,-96.5 "/>
<text text-anchor="start" x="853.5" y="-84.5" font-family="FreeSans" font-size="10.00">+ WizInfoPanel()</text>
<text text-anchor="start" x="853.5" y="-73.5" font-family="FreeSans" font-size="10.00">+ ~WizInfoPanel()</text>
<text text-anchor="start" x="853.5" y="-62.5" font-family="FreeSans" font-size="10.00">+ OnPageChanging()</text>
</a>
</g>
</g>
<!-- Node0&#45;&gt;Node7 -->
<g id="edge7" class="edge"><title>Node0&#45;&gt;Node7</title>
<path fill="none" stroke="midnightblue" d="M723.508,-278.384C759.267,-255.841 803.524,-224.585 837,-190 852.908,-173.565 867.225,-152.518 878.083,-134.508"/>
<polygon fill="none" stroke="midnightblue" points="721.25,-275.667 714.612,-283.925 724.951,-281.609 721.25,-275.667"/>
</g>
<!-- Node8 -->
<g id="node9" class="node"><title>Node8</title>
<g id="a_node9"><a xlink:href="classWizPage" target="_top" xlink:title="{WizPage\n||+ WizPage()\l+ ~WizPage()\l+ OnButton()\l}">
<polygon fill="none" stroke="black" points="971,-55.5 971,-134.5 1045,-134.5 1045,-55.5 971,-55.5"/>
<text text-anchor="middle" x="1008" y="-122.5" font-family="FreeSans" font-size="10.00">WizPage</text>
<polyline fill="none" stroke="black" points="971,-115.5 1045,-115.5 "/>
<text text-anchor="middle" x="1008" y="-103.5" font-family="FreeSans" font-size="10.00"> </text>
<polyline fill="none" stroke="black" points="971,-96.5 1045,-96.5 "/>
<text text-anchor="start" x="979" y="-84.5" font-family="FreeSans" font-size="10.00">+ WizPage()</text>
<text text-anchor="start" x="979" y="-73.5" font-family="FreeSans" font-size="10.00">+ ~WizPage()</text>
<text text-anchor="start" x="979" y="-62.5" font-family="FreeSans" font-size="10.00">+ OnButton()</text>
</a>
</g>
</g>
<!-- Node0&#45;&gt;Node8 -->
<g id="edge8" class="edge"><title>Node0&#45;&gt;Node8</title>
<path fill="none" stroke="midnightblue" d="M724.551,-302.164C790.988,-286.369 894.751,-253.146 962,-190 977.894,-175.076 988.995,-153.489 996.304,-134.764"/>
<polygon fill="none" stroke="midnightblue" points="723.579,-298.797 714.625,-304.46 725.156,-305.616 723.579,-298.797"/>
</g>
<!-- Node9 -->
<g id="node10" class="node"><title>Node9</title>
<g id="a_node10"><a xlink:href="classWizProjectPathPanel" target="_top" xlink:title="{WizProjectPathPanel\n|&#45; m_pProjectPathPanel\l|+ WizProjectPathPanel()\l+ ~WizProjectPathPanel()\l+ GetPath()\l+ GetName()\l+ GetFullFileName()\l+ GetTitle()\l+ OnButton()\l+ OnPageChanging()\l+ OnPageChanged()\l}">
<polygon fill="none" stroke="black" points="1063,-22.5 1063,-167.5 1191,-167.5 1191,-22.5 1063,-22.5"/>
<text text-anchor="middle" x="1127" y="-155.5" font-family="FreeSans" font-size="10.00">WizProjectPathPanel</text>
<polyline fill="none" stroke="black" points="1063,-148.5 1191,-148.5 "/>
<text text-anchor="start" x="1071" y="-136.5" font-family="FreeSans" font-size="10.00">&#45; m_pProjectPathPanel</text>
<polyline fill="none" stroke="black" points="1063,-129.5 1191,-129.5 "/>
<text text-anchor="start" x="1071" y="-117.5" font-family="FreeSans" font-size="10.00">+ WizProjectPathPanel()</text>
<text text-anchor="start" x="1071" y="-106.5" font-family="FreeSans" font-size="10.00">+ ~WizProjectPathPanel()</text>
<text text-anchor="start" x="1071" y="-95.5" font-family="FreeSans" font-size="10.00">+ GetPath()</text>
<text text-anchor="start" x="1071" y="-84.5" font-family="FreeSans" font-size="10.00">+ GetName()</text>
<text text-anchor="start" x="1071" y="-73.5" font-family="FreeSans" font-size="10.00">+ GetFullFileName()</text>
<text text-anchor="start" x="1071" y="-62.5" font-family="FreeSans" font-size="10.00">+ GetTitle()</text>
<text text-anchor="start" x="1071" y="-51.5" font-family="FreeSans" font-size="10.00">+ OnButton()</text>
<text text-anchor="start" x="1071" y="-40.5" font-family="FreeSans" font-size="10.00">+ OnPageChanging()</text>
<text text-anchor="start" x="1071" y="-29.5" font-family="FreeSans" font-size="10.00">+ OnPageChanged()</text>
</a>
</g>
</g>
<!-- Node0&#45;&gt;Node9 -->
<g id="edge9" class="edge"><title>Node0&#45;&gt;Node9</title>
<path fill="none" stroke="midnightblue" d="M724.696,-306.277C807.003,-293.127 951.834,-261.2 1054,-190 1062.98,-183.739 1071.38,-176.041 1079.04,-167.77"/>
<polygon fill="none" stroke="midnightblue" points="724.075,-302.831 714.731,-307.825 725.15,-309.748 724.075,-302.831"/>
</g>
<!-- Node1 -->
<g id="node2" class="node"><title>Node1</title>
<polygon fill="none" stroke="#bfbfbf" points="606,-441.5 606,-498.5 716,-498.5 716,-441.5 606,-441.5"/>
<text text-anchor="middle" x="661" y="-486.5" font-family="FreeSans" font-size="10.00">wxWizardPageSimple</text>
<polyline fill="none" stroke="#bfbfbf" points="606,-479.5 716,-479.5 "/>
<text text-anchor="middle" x="661" y="-467.5" font-family="FreeSans" font-size="10.00"> </text>
<polyline fill="none" stroke="#bfbfbf" points="606,-460.5 716,-460.5 "/>
<text text-anchor="middle" x="661" y="-448.5" font-family="FreeSans" font-size="10.00"> </text>
</g>
<!-- Node1&#45;&gt;Node0 -->
<g id="edge1" class="edge"><title>Node1&#45;&gt;Node0</title>
<path fill="none" stroke="midnightblue" d="M661,-431.374C661,-423.089 661,-413.977 661,-404.62"/>
<polygon fill="none" stroke="midnightblue" points="657.5,-431.383 661,-441.383 664.5,-431.383 657.5,-431.383"/>
</g>
</g>
</svg>
