<?xml version="1.0" encoding="UTF-8" standalone="no"?>
<!DOCTYPE svg PUBLIC "-//W3C//DTD SVG 1.1//EN"
 "http://www.w3.org/Graphics/SVG/1.1/DTD/svg11.dtd">
<!-- Generated by graphviz version 2.38.0 (20140413.2041)
 -->
<!-- Title: CCTreeCtrlData Pages: 1 -->
<svg width="107pt" height="237pt"
 viewBox="0.00 0.00 107.00 237.00" xmlns="http://www.w3.org/2000/svg" xmlns:xlink="http://www.w3.org/1999/xlink">
<g id="graph0" class="graph" transform="scale(1 1) rotate(0) translate(4 233)">
<title>CCTreeCtrlData</title>
<!-- Node0 -->
<g id="node1" class="node"><title>Node0</title>
<polygon fill="#bfbfbf" stroke="black" points="0,-0.5 0,-134.5 99,-134.5 99,-0.5 0,-0.5"/>
<text text-anchor="middle" x="49.5" y="-122.5" font-family="FreeSans" font-size="10.00">CCTreeCtrlData</text>
<polyline fill="none" stroke="black" points="0,-115.5 99,-115.5 "/>
<text text-anchor="start" x="8" y="-103.5" font-family="FreeSans" font-size="10.00">+ m_Token</text>
<text text-anchor="start" x="8" y="-92.5" font-family="FreeSans" font-size="10.00">+ m_KindMask</text>
<text text-anchor="start" x="8" y="-81.5" font-family="FreeSans" font-size="10.00">+ m_SpecialFolder</text>
<text text-anchor="start" x="8" y="-70.5" font-family="FreeSans" font-size="10.00">+ m_TokenIndex</text>
<text text-anchor="start" x="8" y="-59.5" font-family="FreeSans" font-size="10.00">+ m_TokenKind</text>
<text text-anchor="start" x="8" y="-48.5" font-family="FreeSans" font-size="10.00">+ m_TokenName</text>
<text text-anchor="start" x="8" y="-37.5" font-family="FreeSans" font-size="10.00">+ m_ParentIndex</text>
<text text-anchor="start" x="8" y="-26.5" font-family="FreeSans" font-size="10.00">+ m_Ticket</text>
<polyline fill="none" stroke="black" points="0,-19.5 99,-19.5 "/>
<text text-anchor="start" x="8" y="-7.5" font-family="FreeSans" font-size="10.00">+ CCTreeCtrlData()</text>
</g>
<!-- Node1 -->
<g id="node2" class="node"><title>Node1</title>
<polygon fill="none" stroke="#bfbfbf" points="6,-171.5 6,-228.5 93,-228.5 93,-171.5 6,-171.5"/>
<text text-anchor="middle" x="49.5" y="-216.5" font-family="FreeSans" font-size="10.00">wxTreeItemData</text>
<polyline fill="none" stroke="#bfbfbf" points="6,-209.5 93,-209.5 "/>
<text text-anchor="middle" x="49.5" y="-197.5" font-family="FreeSans" font-size="10.00"> </text>
<polyline fill="none" stroke="#bfbfbf" points="6,-190.5 93,-190.5 "/>
<text text-anchor="middle" x="49.5" y="-178.5" font-family="FreeSans" font-size="10.00"> </text>
</g>
<!-- Node1&#45;&gt;Node0 -->
<g id="edge1" class="edge"><title>Node1&#45;&gt;Node0</title>
<path fill="none" stroke="midnightblue" d="M49.5,-161.16C49.5,-152.782 49.5,-143.668 49.5,-134.533"/>
<polygon fill="none" stroke="midnightblue" points="46.0001,-161.324 49.5,-171.324 53.0001,-161.324 46.0001,-161.324"/>
</g>
</g>
</svg>
