<?xml version="1.0" encoding="UTF-8" standalone="no"?>
<!DOCTYPE svg PUBLIC "-//W3C//DTD SVG 1.1//EN"
 "http://www.w3.org/Graphics/SVG/1.1/DTD/svg11.dtd">
<!-- Generated by graphviz version 2.38.0 (20140413.2041)
 -->
<!-- Title: EnvironmentSettingsDlg Pages: 1 -->
<svg width="591pt" height="979pt"
 viewBox="0.00 0.00 590.50 979.00" xmlns="http://www.w3.org/2000/svg" xmlns:xlink="http://www.w3.org/1999/xlink">
<g id="graph0" class="graph" transform="scale(1 1) rotate(0) translate(4 975)">
<title>EnvironmentSettingsDlg</title>
<!-- Node9 -->
<g id="node1" class="node"><title>Node9</title>
<polygon fill="#bfbfbf" stroke="black" points="183,-0.5 183,-255.5 330,-255.5 330,-0.5 183,-0.5"/>
<text text-anchor="middle" x="256.5" y="-243.5" font-family="FreeSans" font-size="10.00">EnvironmentSettingsDlg</text>
<polyline fill="none" stroke="black" points="183,-236.5 330,-236.5 "/>
<text text-anchor="start" x="191" y="-224.5" font-family="FreeSans" font-size="10.00">&#45; m_PluginPanels</text>
<polyline fill="none" stroke="black" points="183,-217.5 330,-217.5 "/>
<text text-anchor="start" x="191" y="-205.5" font-family="FreeSans" font-size="10.00">+ EnvironmentSettingsDlg()</text>
<text text-anchor="start" x="191" y="-194.5" font-family="FreeSans" font-size="10.00">+ ~EnvironmentSettingsDlg()</text>
<text text-anchor="start" x="191" y="-183.5" font-family="FreeSans" font-size="10.00">+ EndModal()</text>
<text text-anchor="start" x="191" y="-172.5" font-family="FreeSans" font-size="10.00"># OnPageChanging()</text>
<text text-anchor="start" x="191" y="-161.5" font-family="FreeSans" font-size="10.00"># OnPageChanged()</text>
<text text-anchor="start" x="191" y="-150.5" font-family="FreeSans" font-size="10.00"># OnSetAssocs()</text>
<text text-anchor="start" x="191" y="-139.5" font-family="FreeSans" font-size="10.00"># OnManageAssocs()</text>
<text text-anchor="start" x="191" y="-128.5" font-family="FreeSans" font-size="10.00"># OnChooseColour()</text>
<text text-anchor="start" x="191" y="-117.5" font-family="FreeSans" font-size="10.00"># OnResetDefaultColours()</text>
<text text-anchor="start" x="191" y="-106.5" font-family="FreeSans" font-size="10.00"># OnUseIpcCheck()</text>
<text text-anchor="start" x="191" y="-95.5" font-family="FreeSans" font-size="10.00"># OnPlaceCheck()</text>
<text text-anchor="start" x="191" y="-84.5" font-family="FreeSans" font-size="10.00">and 10 more...</text>
<text text-anchor="start" x="191" y="-73.5" font-family="FreeSans" font-size="10.00">&#45; AddPluginPanels()</text>
<text text-anchor="start" x="191" y="-62.5" font-family="FreeSans" font-size="10.00">&#45; LoadListbookImages()</text>
<text text-anchor="start" x="191" y="-51.5" font-family="FreeSans" font-size="10.00">&#45; UpdateListbookImages()</text>
<text text-anchor="start" x="191" y="-40.5" font-family="FreeSans" font-size="10.00">&#45; FillApplicationColours()</text>
<text text-anchor="start" x="191" y="-29.5" font-family="FreeSans" font-size="10.00">&#45; WriteApplicationColours()</text>
<text text-anchor="start" x="191" y="-18.5" font-family="FreeSans" font-size="10.00">&#45; AnnoyingDlgReturnToString()</text>
<text text-anchor="start" x="191" y="-7.5" font-family="FreeSans" font-size="10.00">&#45; StringToAnnoyingDlgReturn()</text>
</g>
<!-- Node10 -->
<g id="node2" class="node"><title>Node10</title>
<g id="a_node2"><a xlink:href="classwxScrollingDialog" target="_top" xlink:title="{wxScrollingDialog\n||+ wxScrollingDialog()\l+ wxScrollingDialog()\l}">
<polygon fill="none" stroke="black" points="0,-342 0,-410 107,-410 107,-342 0,-342"/>
<text text-anchor="middle" x="53.5" y="-398" font-family="FreeSans" font-size="10.00">wxScrollingDialog</text>
<polyline fill="none" stroke="black" points="0,-391 107,-391 "/>
<text text-anchor="middle" x="53.5" y="-379" font-family="FreeSans" font-size="10.00"> </text>
<polyline fill="none" stroke="black" points="0,-372 107,-372 "/>
<text text-anchor="start" x="8" y="-360" font-family="FreeSans" font-size="10.00">+ wxScrollingDialog()</text>
<text text-anchor="start" x="8" y="-349" font-family="FreeSans" font-size="10.00">+ wxScrollingDialog()</text>
</a>
</g>
</g>
<!-- Node10&#45;&gt;Node9 -->
<g id="edge1" class="edge"><title>Node10&#45;&gt;Node9</title>
<path fill="none" stroke="midnightblue" d="M83.6105,-333.55C97.3035,-315.079 113.902,-293.202 129.5,-274 146.379,-253.22 165.112,-231.268 182.89,-210.905"/>
<polygon fill="none" stroke="midnightblue" points="80.6614,-331.652 77.5376,-341.776 86.2929,-335.81 80.6614,-331.652"/>
</g>
<!-- Node11 -->
<g id="node3" class="node"><title>Node11</title>
<g id="a_node3"><a doxygen="/media/alpha/Barracuda/cb_docs/src/wxTagFile.xml:http://docs.wxwidgets.org/3.0/" xlink:href="http://docs.wxwidgets.org/3.0/classwx_dialog.html" target="_top" xlink:title="{wxDialog\n||+ ShowModal()\l}">
<polygon fill="none" stroke="black" points="13,-725 13,-782 94,-782 94,-725 13,-725"/>
<text text-anchor="middle" x="53.5" y="-770" font-family="FreeSans" font-size="10.00">wxDialog</text>
<polyline fill="none" stroke="black" points="13,-763 94,-763 "/>
<text text-anchor="middle" x="53.5" y="-751" font-family="FreeSans" font-size="10.00"> </text>
<polyline fill="none" stroke="black" points="13,-744 94,-744 "/>
<text text-anchor="start" x="21" y="-732" font-family="FreeSans" font-size="10.00">+ ShowModal()</text>
</a>
</g>
</g>
<!-- Node11&#45;&gt;Node10 -->
<g id="edge2" class="edge"><title>Node11&#45;&gt;Node10</title>
<path fill="none" stroke="midnightblue" d="M53.5,-714.695C53.5,-641.146 53.5,-479.921 53.5,-410.207"/>
<polygon fill="none" stroke="midnightblue" points="50.0001,-714.889 53.5,-724.889 57.0001,-714.889 50.0001,-714.889"/>
</g>
<!-- Node12 -->
<g id="node4" class="node"><title>Node12</title>
<g id="a_node4"><a doxygen="/media/alpha/Barracuda/cb_docs/src/wxTagFile.xml:http://docs.wxwidgets.org/3.0/" xlink:href="http://docs.wxwidgets.org/3.0/classwx_top_level_window.html" target="_top" xlink:title="{wxTopLevelWindow\n||}">
<polygon fill="none" stroke="red" points="3,-913.5 3,-970.5 104,-970.5 104,-913.5 3,-913.5"/>
<text text-anchor="middle" x="53.5" y="-958.5" font-family="FreeSans" font-size="10.00">wxTopLevelWindow</text>
<polyline fill="none" stroke="red" points="3,-951.5 104,-951.5 "/>
<text text-anchor="middle" x="53.5" y="-939.5" font-family="FreeSans" font-size="10.00"> </text>
<polyline fill="none" stroke="red" points="3,-932.5 104,-932.5 "/>
<text text-anchor="middle" x="53.5" y="-920.5" font-family="FreeSans" font-size="10.00"> </text>
</a>
</g>
</g>
<!-- Node12&#45;&gt;Node11 -->
<g id="edge3" class="edge"><title>Node12&#45;&gt;Node11</title>
<path fill="none" stroke="midnightblue" d="M53.5,-903.397C53.5,-867.506 53.5,-814.274 53.5,-782.132"/>
<polygon fill="none" stroke="midnightblue" points="50.0001,-903.481 53.5,-913.481 57.0001,-903.481 50.0001,-903.481"/>
</g>
<!-- Node18 -->
<g id="node5" class="node"><title>Node18</title>
<g id="a_node5"><a doxygen="/media/alpha/Barracuda/cb_docs/src/wxTagFile.xml:http://docs.wxwidgets.org/3.0/" xlink:href="http://docs.wxwidgets.org/3.0/classwx_image_list.html" target="_top" xlink:title="{wxImageList\n||+ wxImageList()\l+ wxImageList()\l+ Add()\l+ Add()\l+ Add()\l+ Create()\l+ Draw()\l+ GetBitmap()\land 7 more...\l}">
<polygon fill="none" stroke="black" points="103.5,-467.5 103.5,-612.5 187.5,-612.5 187.5,-467.5 103.5,-467.5"/>
<text text-anchor="middle" x="145.5" y="-600.5" font-family="FreeSans" font-size="10.00">wxImageList</text>
<polyline fill="none" stroke="black" points="103.5,-593.5 187.5,-593.5 "/>
<text text-anchor="middle" x="145.5" y="-581.5" font-family="FreeSans" font-size="10.00"> </text>
<polyline fill="none" stroke="black" points="103.5,-574.5 187.5,-574.5 "/>
<text text-anchor="start" x="111.5" y="-562.5" font-family="FreeSans" font-size="10.00">+ wxImageList()</text>
<text text-anchor="start" x="111.5" y="-551.5" font-family="FreeSans" font-size="10.00">+ wxImageList()</text>
<text text-anchor="start" x="111.5" y="-540.5" font-family="FreeSans" font-size="10.00">+ Add()</text>
<text text-anchor="start" x="111.5" y="-529.5" font-family="FreeSans" font-size="10.00">+ Add()</text>
<text text-anchor="start" x="111.5" y="-518.5" font-family="FreeSans" font-size="10.00">+ Add()</text>
<text text-anchor="start" x="111.5" y="-507.5" font-family="FreeSans" font-size="10.00">+ Create()</text>
<text text-anchor="start" x="111.5" y="-496.5" font-family="FreeSans" font-size="10.00">+ Draw()</text>
<text text-anchor="start" x="111.5" y="-485.5" font-family="FreeSans" font-size="10.00">+ GetBitmap()</text>
<text text-anchor="start" x="111.5" y="-474.5" font-family="FreeSans" font-size="10.00">and 7 more...</text>
</a>
</g>
</g>
<!-- Node18&#45;&gt;Node9 -->
<g id="edge4" class="edge"><title>Node18&#45;&gt;Node9</title>
<path fill="none" stroke="#404040" d="M138.369,-467.321C135.871,-419.772 136.87,-356.511 152.5,-303 158.342,-282.998 167.046,-262.941 176.974,-243.924"/>
<polygon fill="none" stroke="#404040" points="177.08,-243.728 176.407,-236.548 182.776,-233.166 183.448,-240.345 177.08,-243.728"/>
<text text-anchor="middle" x="186" y="-373.5" font-family="FreeSans" font-size="10.00"> &#45;m_pImageList</text>
</g>
<!-- Node16 -->
<g id="node6" class="node"><title>Node16</title>
<g id="a_node6"><a doxygen="/media/alpha/Barracuda/cb_docs/src/wxTagFile.xml:http://docs.wxwidgets.org/3.0/" xlink:href="http://docs.wxwidgets.org/3.0/classwx_object.html" target="_top" xlink:title="{wxObject\n||}">
<polygon fill="none" stroke="black" points="147.5,-913.5 147.5,-970.5 203.5,-970.5 203.5,-913.5 147.5,-913.5"/>
<text text-anchor="middle" x="175.5" y="-958.5" font-family="FreeSans" font-size="10.00">wxObject</text>
<polyline fill="none" stroke="black" points="147.5,-951.5 203.5,-951.5 "/>
<text text-anchor="middle" x="175.5" y="-939.5" font-family="FreeSans" font-size="10.00"> </text>
<polyline fill="none" stroke="black" points="147.5,-932.5 203.5,-932.5 "/>
<text text-anchor="middle" x="175.5" y="-920.5" font-family="FreeSans" font-size="10.00"> </text>
</a>
</g>
</g>
<!-- Node16&#45;&gt;Node18 -->
<g id="edge5" class="edge"><title>Node16&#45;&gt;Node18</title>
<path fill="none" stroke="midnightblue" d="M171.89,-903.321C171.069,-894.369 170.225,-884.849 169.5,-876 162.057,-785.197 154.759,-680.44 150.202,-612.59"/>
<polygon fill="none" stroke="midnightblue" points="168.425,-903.862 172.835,-913.495 175.395,-903.214 168.425,-903.862"/>
</g>
<!-- Node20 -->
<g id="node8" class="node"><title>Node20</title>
<g id="a_node8"><a doxygen="/media/alpha/Barracuda/cb_docs/src/wxTagFile.xml:http://docs.wxwidgets.org/3.0/" xlink:href="http://docs.wxwidgets.org/3.0/classwx_colour.html" target="_top" xlink:title="{wxColour\n||+ wxColour()\l+ wxColour()\l+ wxColour()\l+ wxColour()\l+ wxColour()\l+ Alpha()\l+ Blue()\l+ GetAsString()\land 16 more...\l+ MakeMono()\l+ MakeDisabled()\l+ MakeGrey()\l+ MakeGrey()\l+ AlphaBlend()\l+ ChangeLightness()\l}">
<polygon fill="none" stroke="black" points="178.5,-648 178.5,-859 282.5,-859 282.5,-648 178.5,-648"/>
<text text-anchor="middle" x="230.5" y="-847" font-family="FreeSans" font-size="10.00">wxColour</text>
<polyline fill="none" stroke="black" points="178.5,-840 282.5,-840 "/>
<text text-anchor="middle" x="230.5" y="-828" font-family="FreeSans" font-size="10.00"> </text>
<polyline fill="none" stroke="black" points="178.5,-821 282.5,-821 "/>
<text text-anchor="start" x="186.5" y="-809" font-family="FreeSans" font-size="10.00">+ wxColour()</text>
<text text-anchor="start" x="186.5" y="-798" font-family="FreeSans" font-size="10.00">+ wxColour()</text>
<text text-anchor="start" x="186.5" y="-787" font-family="FreeSans" font-size="10.00">+ wxColour()</text>
<text text-anchor="start" x="186.5" y="-776" font-family="FreeSans" font-size="10.00">+ wxColour()</text>
<text text-anchor="start" x="186.5" y="-765" font-family="FreeSans" font-size="10.00">+ wxColour()</text>
<text text-anchor="start" x="186.5" y="-754" font-family="FreeSans" font-size="10.00">+ Alpha()</text>
<text text-anchor="start" x="186.5" y="-743" font-family="FreeSans" font-size="10.00">+ Blue()</text>
<text text-anchor="start" x="186.5" y="-732" font-family="FreeSans" font-size="10.00">+ GetAsString()</text>
<text text-anchor="start" x="186.5" y="-721" font-family="FreeSans" font-size="10.00">and 16 more...</text>
<text text-anchor="start" x="186.5" y="-710" font-family="FreeSans" font-size="10.00">+ MakeMono()</text>
<text text-anchor="start" x="186.5" y="-699" font-family="FreeSans" font-size="10.00">+ MakeDisabled()</text>
<text text-anchor="start" x="186.5" y="-688" font-family="FreeSans" font-size="10.00">+ MakeGrey()</text>
<text text-anchor="start" x="186.5" y="-677" font-family="FreeSans" font-size="10.00">+ MakeGrey()</text>
<text text-anchor="start" x="186.5" y="-666" font-family="FreeSans" font-size="10.00">+ AlphaBlend()</text>
<text text-anchor="start" x="186.5" y="-655" font-family="FreeSans" font-size="10.00">+ ChangeLightness()</text>
</a>
</g>
</g>
<!-- Node16&#45;&gt;Node20 -->
<g id="edge8" class="edge"><title>Node16&#45;&gt;Node20</title>
<path fill="none" stroke="midnightblue" d="M186.543,-903.556C190.387,-890.52 194.91,-875.183 199.566,-859.393"/>
<polygon fill="none" stroke="midnightblue" points="183.087,-902.9 183.615,-913.481 189.801,-904.88 183.087,-902.9"/>
</g>
<!-- Node19 -->
<g id="node7" class="node"><title>Node19</title>
<polygon fill="none" stroke="#bfbfbf" points="229,-342 229,-410 330,-410 330,-342 229,-342"/>
<text text-anchor="start" x="237" y="-398" font-family="FreeSans" font-size="10.00">std::map&lt; wxString,</text>
<text text-anchor="middle" x="279.5" y="-387" font-family="FreeSans" font-size="10.00"> wxColour &gt;</text>
<polyline fill="none" stroke="#bfbfbf" points="229,-380 330,-380 "/>
<text text-anchor="middle" x="279.5" y="-368" font-family="FreeSans" font-size="10.00"> </text>
<polyline fill="none" stroke="#bfbfbf" points="229,-361 330,-361 "/>
<text text-anchor="middle" x="279.5" y="-349" font-family="FreeSans" font-size="10.00"> </text>
</g>
<!-- Node19&#45;&gt;Node9 -->
<g id="edge6" class="edge"><title>Node19&#45;&gt;Node9</title>
<path fill="none" stroke="#404040" d="M269.361,-341.583C264.769,-324.779 259.85,-303.996 257.5,-285 256.799,-279.334 256.207,-273.544 255.71,-267.688"/>
<polygon fill="none" stroke="#404040" points="255.701,-267.563 251.272,-261.872 254.821,-255.595 259.25,-261.285 255.701,-267.563"/>
<text text-anchor="middle" x="311" y="-277" font-family="FreeSans" font-size="10.00"> &#45;m_ChangedAppColours</text>
</g>
<!-- Node20&#45;&gt;Node19 -->
<g id="edge7" class="edge"><title>Node20&#45;&gt;Node19</title>
<path fill="none" stroke="#404040" d="M238.894,-647.749C243.892,-593.609 251.108,-526.569 260.5,-467 262.808,-452.359 265.94,-436.505 268.995,-422.241"/>
<polygon fill="none" stroke="#404040" points="269.068,-421.908 266.446,-415.191 271.637,-410.186 274.26,-416.903 269.068,-421.908"/>
<text text-anchor="middle" x="284.5" y="-537.5" font-family="FreeSans" font-size="10.00"> +elements</text>
</g>
<!-- Node21 -->
<g id="node9" class="node"><title>Node21</title>
<g id="a_node9"><a doxygen="/media/alpha/Barracuda/cb_docs/src/wxTagFile.xml:http://docs.wxwidgets.org/3.0/" xlink:href="http://docs.wxwidgets.org/3.0/classwx_string.html" target="_top" xlink:title="{wxString\n|+ npos\l|+ wxString()\l+ wxString()\l+ wxString()\l+ wxString()\l+ wxString()\l+ wxString()\l+ wxString()\l+ wxString()\land 222 more...\l+ Format()\l+ FormatV()\l+ FromCDouble()\l+ FromDouble()\l+ From8BitData()\l+ From8BitData()\l+ FromAscii()\l+ FromAscii()\land 7 more...\l}">
<polygon fill="none" stroke="black" points="325,-631.5 325,-875.5 416,-875.5 416,-631.5 325,-631.5"/>
<text text-anchor="middle" x="370.5" y="-863.5" font-family="FreeSans" font-size="10.00">wxString</text>
<polyline fill="none" stroke="black" points="325,-856.5 416,-856.5 "/>
<text text-anchor="start" x="333" y="-844.5" font-family="FreeSans" font-size="10.00">+ npos</text>
<polyline fill="none" stroke="black" points="325,-837.5 416,-837.5 "/>
<text text-anchor="start" x="333" y="-825.5" font-family="FreeSans" font-size="10.00">+ wxString()</text>
<text text-anchor="start" x="333" y="-814.5" font-family="FreeSans" font-size="10.00">+ wxString()</text>
<text text-anchor="start" x="333" y="-803.5" font-family="FreeSans" font-size="10.00">+ wxString()</text>
<text text-anchor="start" x="333" y="-792.5" font-family="FreeSans" font-size="10.00">+ wxString()</text>
<text text-anchor="start" x="333" y="-781.5" font-family="FreeSans" font-size="10.00">+ wxString()</text>
<text text-anchor="start" x="333" y="-770.5" font-family="FreeSans" font-size="10.00">+ wxString()</text>
<text text-anchor="start" x="333" y="-759.5" font-family="FreeSans" font-size="10.00">+ wxString()</text>
<text text-anchor="start" x="333" y="-748.5" font-family="FreeSans" font-size="10.00">+ wxString()</text>
<text text-anchor="start" x="333" y="-737.5" font-family="FreeSans" font-size="10.00">and 222 more...</text>
<text text-anchor="start" x="333" y="-726.5" font-family="FreeSans" font-size="10.00">+ Format()</text>
<text text-anchor="start" x="333" y="-715.5" font-family="FreeSans" font-size="10.00">+ FormatV()</text>
<text text-anchor="start" x="333" y="-704.5" font-family="FreeSans" font-size="10.00">+ FromCDouble()</text>
<text text-anchor="start" x="333" y="-693.5" font-family="FreeSans" font-size="10.00">+ FromDouble()</text>
<text text-anchor="start" x="333" y="-682.5" font-family="FreeSans" font-size="10.00">+ From8BitData()</text>
<text text-anchor="start" x="333" y="-671.5" font-family="FreeSans" font-size="10.00">+ From8BitData()</text>
<text text-anchor="start" x="333" y="-660.5" font-family="FreeSans" font-size="10.00">+ FromAscii()</text>
<text text-anchor="start" x="333" y="-649.5" font-family="FreeSans" font-size="10.00">+ FromAscii()</text>
<text text-anchor="start" x="333" y="-638.5" font-family="FreeSans" font-size="10.00">and 7 more...</text>
</a>
</g>
</g>
<!-- Node21&#45;&gt;Node19 -->
<g id="edge9" class="edge"><title>Node21&#45;&gt;Node19</title>
<path fill="none" stroke="#404040" d="M346.927,-631.36C336.295,-580.345 322.894,-520.511 308.5,-467 304.502,-452.138 299.543,-436.092 294.863,-421.721"/>
<polygon fill="none" stroke="#404040" points="294.791,-421.501 289.11,-417.059 291.025,-410.107 296.706,-414.549 294.791,-421.501"/>
<text text-anchor="middle" x="356.5" y="-537.5" font-family="FreeSans" font-size="10.00"> +keys</text>
</g>
<!-- Node22 -->
<g id="node10" class="node"><title>Node22</title>
<polygon fill="none" stroke="#bfbfbf" points="348,-342 348,-410 449,-410 449,-342 348,-342"/>
<text text-anchor="start" x="356" y="-398" font-family="FreeSans" font-size="10.00">std::map&lt; wxString,</text>
<text text-anchor="middle" x="398.5" y="-387" font-family="FreeSans" font-size="10.00"> wxString &gt;</text>
<polyline fill="none" stroke="#bfbfbf" points="348,-380 449,-380 "/>
<text text-anchor="middle" x="398.5" y="-368" font-family="FreeSans" font-size="10.00"> </text>
<polyline fill="none" stroke="#bfbfbf" points="348,-361 449,-361 "/>
<text text-anchor="middle" x="398.5" y="-349" font-family="FreeSans" font-size="10.00"> </text>
</g>
<!-- Node21&#45;&gt;Node22 -->
<g id="edge11" class="edge"><title>Node21&#45;&gt;Node22</title>
<path fill="none" stroke="#404040" d="M379.533,-631.364C384.863,-559.883 391.297,-473.6 395.135,-422.127"/>
<polygon fill="none" stroke="#404040" points="395.137,-422.1 391.594,-415.819 396.029,-410.133 399.572,-416.414 395.137,-422.1"/>
<text text-anchor="middle" x="416.5" y="-543" font-family="FreeSans" font-size="10.00"> +elements</text>
<text text-anchor="middle" x="416.5" y="-532" font-family="FreeSans" font-size="10.00">+keys</text>
</g>
<!-- Node22&#45;&gt;Node9 -->
<g id="edge10" class="edge"><title>Node22&#45;&gt;Node9</title>
<path fill="none" stroke="#404040" d="M390.14,-341.632C384.384,-321.415 375.745,-295.471 364.5,-274 356.572,-258.863 347.133,-243.607 337.182,-228.967"/>
<polygon fill="none" stroke="#404040" points="337.065,-228.798 330.359,-226.149 330.225,-218.939 336.931,-221.588 337.065,-228.798"/>
<text text-anchor="middle" x="431" y="-277" font-family="FreeSans" font-size="10.00"> &#45;m_AnnoyingDlgReturnMap</text>
</g>
<!-- Node23 -->
<g id="node11" class="node"><title>Node23</title>
<g id="a_node11"><a doxygen="/media/alpha/Barracuda/cb_docs/src/wxTagFile.xml:http://docs.wxwidgets.org/3.0/" xlink:href="http://docs.wxwidgets.org/3.0/classwx_aui_dock_art.html" target="_top" xlink:title="{wxAuiDockArt\n||+ wxAuiDockArt()\l+ ~wxAuiDockArt()\l+ DrawBackground()\l+ DrawBorder()\l+ DrawCaption()\l+ DrawGripper()\l+ DrawPaneButton()\l+ DrawSash()\land 6 more...\l}">
<polygon fill="none" stroke="black" points="478.5,-303.5 478.5,-448.5 582.5,-448.5 582.5,-303.5 478.5,-303.5"/>
<text text-anchor="middle" x="530.5" y="-436.5" font-family="FreeSans" font-size="10.00">wxAuiDockArt</text>
<polyline fill="none" stroke="black" points="478.5,-429.5 582.5,-429.5 "/>
<text text-anchor="middle" x="530.5" y="-417.5" font-family="FreeSans" font-size="10.00"> </text>
<polyline fill="none" stroke="black" points="478.5,-410.5 582.5,-410.5 "/>
<text text-anchor="start" x="486.5" y="-398.5" font-family="FreeSans" font-size="10.00">+ wxAuiDockArt()</text>
<text text-anchor="start" x="486.5" y="-387.5" font-family="FreeSans" font-size="10.00">+ ~wxAuiDockArt()</text>
<text text-anchor="start" x="486.5" y="-376.5" font-family="FreeSans" font-size="10.00">+ DrawBackground()</text>
<text text-anchor="start" x="486.5" y="-365.5" font-family="FreeSans" font-size="10.00">+ DrawBorder()</text>
<text text-anchor="start" x="486.5" y="-354.5" font-family="FreeSans" font-size="10.00">+ DrawCaption()</text>
<text text-anchor="start" x="486.5" y="-343.5" font-family="FreeSans" font-size="10.00">+ DrawGripper()</text>
<text text-anchor="start" x="486.5" y="-332.5" font-family="FreeSans" font-size="10.00">+ DrawPaneButton()</text>
<text text-anchor="start" x="486.5" y="-321.5" font-family="FreeSans" font-size="10.00">+ DrawSash()</text>
<text text-anchor="start" x="486.5" y="-310.5" font-family="FreeSans" font-size="10.00">and 6 more...</text>
</a>
</g>
</g>
<!-- Node23&#45;&gt;Node9 -->
<g id="edge12" class="edge"><title>Node23&#45;&gt;Node9</title>
<path fill="none" stroke="#404040" d="M512.672,-303.275C508.137,-292.811 502.497,-282.661 495.5,-274 455.01,-223.881 392.24,-186.749 341.187,-162.613"/>
<polygon fill="none" stroke="#404040" points="341.044,-162.546 333.919,-163.659 330.152,-157.51 337.277,-156.397 341.044,-162.546"/>
<text text-anchor="middle" x="521" y="-277" font-family="FreeSans" font-size="10.00"> &#45;m_pArt</text>
</g>
</g>
</svg>
