<?xml version="1.0" encoding="UTF-8" standalone="no"?>
<!DOCTYPE svg PUBLIC "-//W3C//DTD SVG 1.1//EN"
 "http://www.w3.org/Graphics/SVG/1.1/DTD/svg11.dtd">
<!-- Generated by graphviz version 2.38.0 (20140413.2041)
 -->
<!-- Title: ProjectDepsDlg Pages: 1 -->
<svg width="115pt" height="414pt"
 viewBox="0.00 0.00 115.00 414.00" xmlns="http://www.w3.org/2000/svg" xmlns:xlink="http://www.w3.org/1999/xlink">
<g id="graph0" class="graph" transform="scale(1 1) rotate(0) translate(4 410)">
<title>ProjectDepsDlg</title>
<!-- Node0 -->
<g id="node1" class="node"><title>Node0</title>
<polygon fill="#bfbfbf" stroke="black" points="-7.10543e-15,-0.5 -7.10543e-15,-112.5 107,-112.5 107,-0.5 -7.10543e-15,-0.5"/>
<text text-anchor="middle" x="53.5" y="-100.5" font-family="FreeSans" font-size="10.00">ProjectDepsDlg</text>
<polyline fill="none" stroke="black" points="-7.10543e-15,-93.5 107,-93.5 "/>
<text text-anchor="start" x="8" y="-81.5" font-family="FreeSans" font-size="10.00"># m_LastSel</text>
<polyline fill="none" stroke="black" points="-7.10543e-15,-74.5 107,-74.5 "/>
<text text-anchor="start" x="8" y="-62.5" font-family="FreeSans" font-size="10.00">+ ProjectDepsDlg()</text>
<text text-anchor="start" x="8" y="-51.5" font-family="FreeSans" font-size="10.00">+ ~ProjectDepsDlg()</text>
<text text-anchor="start" x="8" y="-40.5" font-family="FreeSans" font-size="10.00">+ EndModal()</text>
<text text-anchor="start" x="8" y="-29.5" font-family="FreeSans" font-size="10.00"># FillList()</text>
<text text-anchor="start" x="8" y="-18.5" font-family="FreeSans" font-size="10.00"># SaveList()</text>
<text text-anchor="start" x="8" y="-7.5" font-family="FreeSans" font-size="10.00"># OnProjectChange()</text>
</g>
<!-- Node1 -->
<g id="node2" class="node"><title>Node1</title>
<g id="a_node2"><a xlink:href="classwxScrollingDialog" target="_top" xlink:title="{wxScrollingDialog\n||+ wxScrollingDialog()\l+ wxScrollingDialog()\l}">
<polygon fill="none" stroke="black" points="-7.10543e-15,-149.5 -7.10543e-15,-217.5 107,-217.5 107,-149.5 -7.10543e-15,-149.5"/>
<text text-anchor="middle" x="53.5" y="-205.5" font-family="FreeSans" font-size="10.00">wxScrollingDialog</text>
<polyline fill="none" stroke="black" points="-7.10543e-15,-198.5 107,-198.5 "/>
<text text-anchor="middle" x="53.5" y="-186.5" font-family="FreeSans" font-size="10.00"> </text>
<polyline fill="none" stroke="black" points="-7.10543e-15,-179.5 107,-179.5 "/>
<text text-anchor="start" x="8" y="-167.5" font-family="FreeSans" font-size="10.00">+ wxScrollingDialog()</text>
<text text-anchor="start" x="8" y="-156.5" font-family="FreeSans" font-size="10.00">+ wxScrollingDialog()</text>
</a>
</g>
</g>
<!-- Node1&#45;&gt;Node0 -->
<g id="edge1" class="edge"><title>Node1&#45;&gt;Node0</title>
<path fill="none" stroke="midnightblue" d="M53.5,-139.182C53.5,-130.604 53.5,-121.493 53.5,-112.585"/>
<polygon fill="none" stroke="midnightblue" points="50.0001,-139.33 53.5,-149.33 57.0001,-139.331 50.0001,-139.33"/>
</g>
<!-- Node2 -->
<g id="node3" class="node"><title>Node2</title>
<g id="a_node3"><a doxygen="/media/alpha/Barracuda/cb_docs/src/wxTagFile.xml:http://docs.wxwidgets.org/3.0/" xlink:href="http://docs.wxwidgets.org/3.0/classwx_dialog.html" target="_top" xlink:title="{wxDialog\n||+ ShowModal()\l}">
<polygon fill="none" stroke="black" points="13,-254.5 13,-311.5 94,-311.5 94,-254.5 13,-254.5"/>
<text text-anchor="middle" x="53.5" y="-299.5" font-family="FreeSans" font-size="10.00">wxDialog</text>
<polyline fill="none" stroke="black" points="13,-292.5 94,-292.5 "/>
<text text-anchor="middle" x="53.5" y="-280.5" font-family="FreeSans" font-size="10.00"> </text>
<polyline fill="none" stroke="black" points="13,-273.5 94,-273.5 "/>
<text text-anchor="start" x="21" y="-261.5" font-family="FreeSans" font-size="10.00">+ ShowModal()</text>
</a>
</g>
</g>
<!-- Node2&#45;&gt;Node1 -->
<g id="edge2" class="edge"><title>Node2&#45;&gt;Node1</title>
<path fill="none" stroke="midnightblue" d="M53.5,-244.063C53.5,-235.393 53.5,-226.243 53.5,-217.786"/>
<polygon fill="none" stroke="midnightblue" points="50.0001,-244.321 53.5,-254.321 57.0001,-244.321 50.0001,-244.321"/>
</g>
<!-- Node3 -->
<g id="node4" class="node"><title>Node3</title>
<g id="a_node4"><a doxygen="/media/alpha/Barracuda/cb_docs/src/wxTagFile.xml:http://docs.wxwidgets.org/3.0/" xlink:href="http://docs.wxwidgets.org/3.0/classwx_top_level_window.html" target="_top" xlink:title="{wxTopLevelWindow\n||}">
<polygon fill="none" stroke="red" points="3,-348.5 3,-405.5 104,-405.5 104,-348.5 3,-348.5"/>
<text text-anchor="middle" x="53.5" y="-393.5" font-family="FreeSans" font-size="10.00">wxTopLevelWindow</text>
<polyline fill="none" stroke="red" points="3,-386.5 104,-386.5 "/>
<text text-anchor="middle" x="53.5" y="-374.5" font-family="FreeSans" font-size="10.00"> </text>
<polyline fill="none" stroke="red" points="3,-367.5 104,-367.5 "/>
<text text-anchor="middle" x="53.5" y="-355.5" font-family="FreeSans" font-size="10.00"> </text>
</a>
</g>
</g>
<!-- Node3&#45;&gt;Node2 -->
<g id="edge3" class="edge"><title>Node3&#45;&gt;Node2</title>
<path fill="none" stroke="midnightblue" d="M53.5,-338.209C53.5,-329.293 53.5,-319.951 53.5,-311.584"/>
<polygon fill="none" stroke="midnightblue" points="50.0001,-338.397 53.5,-348.397 57.0001,-338.397 50.0001,-338.397"/>
</g>
</g>
</svg>
