<?xml version="1.0" encoding="UTF-8" standalone="no"?>
<!DOCTYPE svg PUBLIC "-//W3C//DTD SVG 1.1//EN"
 "http://www.w3.org/Graphics/SVG/1.1/DTD/svg11.dtd">
<!-- Generated by graphviz version 2.38.0 (20140413.2041)
 -->
<!-- Title: CompilerOW Pages: 1 -->
<svg width="693pt" height="1378pt"
 viewBox="0.00 0.00 692.50 1378.00" xmlns="http://www.w3.org/2000/svg" xmlns:xlink="http://www.w3.org/1999/xlink">
<g id="graph0" class="graph" transform="scale(1 1) rotate(0) translate(4 1374)">
<title>CompilerOW</title>
<polygon fill="white" stroke="none" points="-4,4 -4,-1374 688.5,-1374 688.5,4 -4,4"/>
<!-- Node1 -->
<g id="node1" class="node"><title>Node1</title>
<polygon fill="#bfbfbf" stroke="black" points="242.5,-0.5 242.5,-123.5 380.5,-123.5 380.5,-0.5 242.5,-0.5"/>
<text text-anchor="middle" x="311.5" y="-111.5" font-family="FreeSans" font-size="10.00">CompilerOW</text>
<polyline fill="none" stroke="black" points="242.5,-104.5 380.5,-104.5 "/>
<text text-anchor="middle" x="311.5" y="-92.5" font-family="FreeSans" font-size="10.00"> </text>
<polyline fill="none" stroke="black" points="242.5,-85.5 380.5,-85.5 "/>
<text text-anchor="start" x="250.5" y="-73.5" font-family="FreeSans" font-size="10.00">+ CompilerOW()</text>
<text text-anchor="start" x="250.5" y="-62.5" font-family="FreeSans" font-size="10.00">+ ~CompilerOW()</text>
<text text-anchor="start" x="250.5" y="-51.5" font-family="FreeSans" font-size="10.00">+ AutoDetectInstallationDir()</text>
<text text-anchor="start" x="250.5" y="-40.5" font-family="FreeSans" font-size="10.00">+ LoadSettings()</text>
<text text-anchor="start" x="250.5" y="-29.5" font-family="FreeSans" font-size="10.00">+ SetMasterPath()</text>
<text text-anchor="start" x="250.5" y="-18.5" font-family="FreeSans" font-size="10.00">+ GetCommandGenerator()</text>
<text text-anchor="start" x="250.5" y="-7.5" font-family="FreeSans" font-size="10.00"># CreateCopy()</text>
</g>
<!-- Node2 -->
<g id="node2" class="node"><title>Node2</title>
<g id="a_node2"><a xlink:href="classCompiler.xhtml" target="_top" xlink:title="Abstract base class for compilers. ">
<polygon fill="white" stroke="black" points="234,-161.5 234,-625.5 389,-625.5 389,-161.5 234,-161.5"/>
<text text-anchor="middle" x="311.5" y="-613.5" font-family="FreeSans" font-size="10.00">Compiler</text>
<polyline fill="none" stroke="black" points="234,-606.5 389,-606.5 "/>
<text text-anchor="start" x="242" y="-594.5" font-family="FreeSans" font-size="10.00">+ FilePathWithSpaces</text>
<text text-anchor="start" x="242" y="-583.5" font-family="FreeSans" font-size="10.00">+ CommandTypeDescriptions</text>
<text text-anchor="start" x="242" y="-572.5" font-family="FreeSans" font-size="10.00"># m_Name</text>
<text text-anchor="start" x="242" y="-561.5" font-family="FreeSans" font-size="10.00"># m_MasterPath</text>
<text text-anchor="start" x="242" y="-550.5" font-family="FreeSans" font-size="10.00"># m_ExtraPaths</text>
<text text-anchor="start" x="242" y="-539.5" font-family="FreeSans" font-size="10.00"># m_RegExes</text>
<text text-anchor="start" x="242" y="-528.5" font-family="FreeSans" font-size="10.00"># m_ErrorFilename</text>
<text text-anchor="start" x="242" y="-517.5" font-family="FreeSans" font-size="10.00"># m_ErrorLine</text>
<text text-anchor="start" x="242" y="-506.5" font-family="FreeSans" font-size="10.00"># m_Error</text>
<text text-anchor="start" x="242" y="-495.5" font-family="FreeSans" font-size="10.00"># m_VersionString</text>
<text text-anchor="start" x="242" y="-484.5" font-family="FreeSans" font-size="10.00"># m_SortOptions</text>
<text text-anchor="start" x="242" y="-473.5" font-family="FreeSans" font-size="10.00"># m_Weight</text>
<text text-anchor="start" x="242" y="-462.5" font-family="FreeSans" font-size="10.00">&#45; m_ID</text>
<text text-anchor="start" x="242" y="-451.5" font-family="FreeSans" font-size="10.00">&#45; m_ParentID</text>
<text text-anchor="start" x="242" y="-440.5" font-family="FreeSans" font-size="10.00">&#45; m_Valid</text>
<text text-anchor="start" x="242" y="-429.5" font-family="FreeSans" font-size="10.00">&#45; m_NeedValidityCheck</text>
<text text-anchor="start" x="242" y="-418.5" font-family="FreeSans" font-size="10.00">&#45; m_Mirrored</text>
<text text-anchor="start" x="242" y="-407.5" font-family="FreeSans" font-size="10.00">&#45; m_CompilerIDs</text>
<polyline fill="none" stroke="black" points="234,-400.5 389,-400.5 "/>
<text text-anchor="start" x="242" y="-388.5" font-family="FreeSans" font-size="10.00">+ Compiler()</text>
<text text-anchor="start" x="242" y="-377.5" font-family="FreeSans" font-size="10.00">+ ~Compiler()</text>
<text text-anchor="start" x="242" y="-366.5" font-family="FreeSans" font-size="10.00">+ IsValid()</text>
<text text-anchor="start" x="242" y="-355.5" font-family="FreeSans" font-size="10.00">+ CheckForWarningsAndErrors()</text>
<text text-anchor="start" x="242" y="-344.5" font-family="FreeSans" font-size="10.00">+ GetLastErrorFilename()</text>
<text text-anchor="start" x="242" y="-333.5" font-family="FreeSans" font-size="10.00">+ GetLastErrorLine()</text>
<text text-anchor="start" x="242" y="-322.5" font-family="FreeSans" font-size="10.00">+ GetLastError()</text>
<text text-anchor="start" x="242" y="-311.5" font-family="FreeSans" font-size="10.00">+ GetName()</text>
<text text-anchor="start" x="242" y="-300.5" font-family="FreeSans" font-size="10.00">+ GetMasterPath()</text>
<text text-anchor="start" x="242" y="-289.5" font-family="FreeSans" font-size="10.00">+ GetExtraPaths()</text>
<text text-anchor="start" x="242" y="-278.5" font-family="FreeSans" font-size="10.00">and 29 more...</text>
<text text-anchor="start" x="242" y="-267.5" font-family="FreeSans" font-size="10.00"># Compiler()</text>
<text text-anchor="start" x="242" y="-256.5" font-family="FreeSans" font-size="10.00"># CreateCopy()</text>
<text text-anchor="start" x="242" y="-245.5" font-family="FreeSans" font-size="10.00"># IsUniqueID()</text>
<text text-anchor="start" x="242" y="-234.5" font-family="FreeSans" font-size="10.00"># MakeValidID()</text>
<text text-anchor="start" x="242" y="-223.5" font-family="FreeSans" font-size="10.00"># LoadDefaultOptions()</text>
<text text-anchor="start" x="242" y="-212.5" font-family="FreeSans" font-size="10.00"># LoadRegExArray()</text>
<text text-anchor="start" x="242" y="-201.5" font-family="FreeSans" font-size="10.00"># EvalXMLCondition()</text>
<text text-anchor="start" x="242" y="-190.5" font-family="FreeSans" font-size="10.00"># GetExecName()</text>
<text text-anchor="start" x="242" y="-179.5" font-family="FreeSans" font-size="10.00"># MirrorCurrentSettings()</text>
<text text-anchor="start" x="242" y="-168.5" font-family="FreeSans" font-size="10.00"># CompileRegExArray()</text>
</a>
</g>
</g>
<!-- Node2&#45;&gt;Node1 -->
<g id="edge1" class="edge"><title>Node2&#45;&gt;Node1</title>
<path fill="none" stroke="midnightblue" d="M311.5,-151.148C311.5,-141.446 311.5,-132.201 311.5,-123.598"/>
<polygon fill="none" stroke="midnightblue" points="308,-151.415 311.5,-161.415 315,-151.415 308,-151.415"/>
</g>
<!-- Node3 -->
<g id="node3" class="node"><title>Node3</title>
<g id="a_node3"><a xlink:href="classCompileOptionsBase.xhtml" target="_top" xlink:title="{CompileOptionsBase\n|# m_Platform\l# m_LinkerOptions\l# m_LinkLibs\l# m_CompilerOptions\l# m_IncludeDirs\l# m_ResIncludeDirs\l# m_LibDirs\l# m_CmdsBefore\l# m_CmdsAfter\l# m_Scripts\l# m_Modified\l# m_AlwaysRunPostCmds\l# m_Vars\l|+ CompileOptionsBase()\l+ ~CompileOptionsBase()\l+ AddPlatform()\l+ RemovePlatform()\l+ SetPlatforms()\l+ GetPlatforms()\l+ SupportsCurrentPlatform()\l+ SetLinkerOptions()\l+ GetLinkerOptions()\l+ AddLinkerOption()\land 43 more...\l}">
<polygon fill="white" stroke="black" points="0,-673.5 0,-972.5 137,-972.5 137,-673.5 0,-673.5"/>
<text text-anchor="middle" x="68.5" y="-960.5" font-family="FreeSans" font-size="10.00">CompileOptionsBase</text>
<polyline fill="none" stroke="black" points="0,-953.5 137,-953.5 "/>
<text text-anchor="start" x="8" y="-941.5" font-family="FreeSans" font-size="10.00"># m_Platform</text>
<text text-anchor="start" x="8" y="-930.5" font-family="FreeSans" font-size="10.00"># m_LinkerOptions</text>
<text text-anchor="start" x="8" y="-919.5" font-family="FreeSans" font-size="10.00"># m_LinkLibs</text>
<text text-anchor="start" x="8" y="-908.5" font-family="FreeSans" font-size="10.00"># m_CompilerOptions</text>
<text text-anchor="start" x="8" y="-897.5" font-family="FreeSans" font-size="10.00"># m_IncludeDirs</text>
<text text-anchor="start" x="8" y="-886.5" font-family="FreeSans" font-size="10.00"># m_ResIncludeDirs</text>
<text text-anchor="start" x="8" y="-875.5" font-family="FreeSans" font-size="10.00"># m_LibDirs</text>
<text text-anchor="start" x="8" y="-864.5" font-family="FreeSans" font-size="10.00"># m_CmdsBefore</text>
<text text-anchor="start" x="8" y="-853.5" font-family="FreeSans" font-size="10.00"># m_CmdsAfter</text>
<text text-anchor="start" x="8" y="-842.5" font-family="FreeSans" font-size="10.00"># m_Scripts</text>
<text text-anchor="start" x="8" y="-831.5" font-family="FreeSans" font-size="10.00"># m_Modified</text>
<text text-anchor="start" x="8" y="-820.5" font-family="FreeSans" font-size="10.00"># m_AlwaysRunPostCmds</text>
<text text-anchor="start" x="8" y="-809.5" font-family="FreeSans" font-size="10.00"># m_Vars</text>
<polyline fill="none" stroke="black" points="0,-802.5 137,-802.5 "/>
<text text-anchor="start" x="8" y="-790.5" font-family="FreeSans" font-size="10.00">+ CompileOptionsBase()</text>
<text text-anchor="start" x="8" y="-779.5" font-family="FreeSans" font-size="10.00">+ ~CompileOptionsBase()</text>
<text text-anchor="start" x="8" y="-768.5" font-family="FreeSans" font-size="10.00">+ AddPlatform()</text>
<text text-anchor="start" x="8" y="-757.5" font-family="FreeSans" font-size="10.00">+ RemovePlatform()</text>
<text text-anchor="start" x="8" y="-746.5" font-family="FreeSans" font-size="10.00">+ SetPlatforms()</text>
<text text-anchor="start" x="8" y="-735.5" font-family="FreeSans" font-size="10.00">+ GetPlatforms()</text>
<text text-anchor="start" x="8" y="-724.5" font-family="FreeSans" font-size="10.00">+ SupportsCurrentPlatform()</text>
<text text-anchor="start" x="8" y="-713.5" font-family="FreeSans" font-size="10.00">+ SetLinkerOptions()</text>
<text text-anchor="start" x="8" y="-702.5" font-family="FreeSans" font-size="10.00">+ GetLinkerOptions()</text>
<text text-anchor="start" x="8" y="-691.5" font-family="FreeSans" font-size="10.00">+ AddLinkerOption()</text>
<text text-anchor="start" x="8" y="-680.5" font-family="FreeSans" font-size="10.00">and 43 more...</text>
</a>
</g>
</g>
<!-- Node3&#45;&gt;Node2 -->
<g id="edge2" class="edge"><title>Node3&#45;&gt;Node2</title>
<path fill="none" stroke="midnightblue" d="M141.75,-676.507C147.659,-665.456 153.619,-654.517 159.5,-644 182.77,-602.387 209.445,-557.694 233.887,-517.794"/>
<polygon fill="none" stroke="midnightblue" points="138.632,-674.917 137.025,-685.389 144.812,-678.205 138.632,-674.917"/>
</g>
<!-- Node4 -->
<g id="node4" class="node"><title>Node4</title>
<g id="a_node4"><a xlink:href="classCompiler.xhtml#structCompiler_1_1MirrorSettings" target="_top" xlink:title="{Compiler::MirrorSettings\n|+ Name\l+ MasterPath\l+ ExtraPaths\l+ CompilerOptions_\l+ LinkerOptions\l+ IncludeDirs\l+ ResIncludeDirs\l+ LibDirs\l+ LinkLibs\l+ CmdsBefore\l+ CmdsAfter\l+ RegExes\l+ SortOptions\l|}">
<polygon fill="white" stroke="black" points="344,-728.5 344,-917.5 463,-917.5 463,-728.5 344,-728.5"/>
<text text-anchor="middle" x="403.5" y="-905.5" font-family="FreeSans" font-size="10.00">Compiler::MirrorSettings</text>
<polyline fill="none" stroke="black" points="344,-898.5 463,-898.5 "/>
<text text-anchor="start" x="352" y="-886.5" font-family="FreeSans" font-size="10.00">+ Name</text>
<text text-anchor="start" x="352" y="-875.5" font-family="FreeSans" font-size="10.00">+ MasterPath</text>
<text text-anchor="start" x="352" y="-864.5" font-family="FreeSans" font-size="10.00">+ ExtraPaths</text>
<text text-anchor="start" x="352" y="-853.5" font-family="FreeSans" font-size="10.00">+ CompilerOptions_</text>
<text text-anchor="start" x="352" y="-842.5" font-family="FreeSans" font-size="10.00">+ LinkerOptions</text>
<text text-anchor="start" x="352" y="-831.5" font-family="FreeSans" font-size="10.00">+ IncludeDirs</text>
<text text-anchor="start" x="352" y="-820.5" font-family="FreeSans" font-size="10.00">+ ResIncludeDirs</text>
<text text-anchor="start" x="352" y="-809.5" font-family="FreeSans" font-size="10.00">+ LibDirs</text>
<text text-anchor="start" x="352" y="-798.5" font-family="FreeSans" font-size="10.00">+ LinkLibs</text>
<text text-anchor="start" x="352" y="-787.5" font-family="FreeSans" font-size="10.00">+ CmdsBefore</text>
<text text-anchor="start" x="352" y="-776.5" font-family="FreeSans" font-size="10.00">+ CmdsAfter</text>
<text text-anchor="start" x="352" y="-765.5" font-family="FreeSans" font-size="10.00">+ RegExes</text>
<text text-anchor="start" x="352" y="-754.5" font-family="FreeSans" font-size="10.00">+ SortOptions</text>
<polyline fill="none" stroke="black" points="344,-747.5 463,-747.5 "/>
<text text-anchor="middle" x="403.5" y="-735.5" font-family="FreeSans" font-size="10.00"> </text>
</a>
</g>
</g>
<!-- Node4&#45;&gt;Node2 -->
<g id="edge3" class="edge"><title>Node4&#45;&gt;Node2</title>
<path fill="none" stroke="#404040" d="M383.367,-728.448C377.48,-701.091 370.755,-669.842 363.835,-637.687"/>
<polygon fill="none" stroke="#404040" points="363.803,-637.537 358.63,-632.512 361.278,-625.805 366.451,-630.829 363.803,-637.537"/>
<text text-anchor="middle" x="388.5" y="-647" font-family="FreeSans" font-size="10.00"> &#45;m_Mirror</text>
</g>
<!-- Node5 -->
<g id="node5" class="node"><title>Node5</title>
<g id="a_node5"><a xlink:href="classCompilerOptions.xhtml" target="_top" xlink:title="{CompilerOptions\n|&#45; m_Options\l|+ CompilerOptions()\l+ CompilerOptions()\l+ operator=()\l+ ~CompilerOptions()\l+ ClearOptions()\l+ AddOption()\l+ AddOption()\l+ RemoveOption()\l+ GetCount()\l+ GetOption()\l+ GetOptionByName()\l+ GetOptionByOption()\l+ GetOptionByAdditionalLibs()\l}">
<polygon fill="white" stroke="black" points="259.5,-1020.5 259.5,-1209.5 405.5,-1209.5 405.5,-1020.5 259.5,-1020.5"/>
<text text-anchor="middle" x="332.5" y="-1197.5" font-family="FreeSans" font-size="10.00">CompilerOptions</text>
<polyline fill="none" stroke="black" points="259.5,-1190.5 405.5,-1190.5 "/>
<text text-anchor="start" x="267.5" y="-1178.5" font-family="FreeSans" font-size="10.00">&#45; m_Options</text>
<polyline fill="none" stroke="black" points="259.5,-1171.5 405.5,-1171.5 "/>
<text text-anchor="start" x="267.5" y="-1159.5" font-family="FreeSans" font-size="10.00">+ CompilerOptions()</text>
<text text-anchor="start" x="267.5" y="-1148.5" font-family="FreeSans" font-size="10.00">+ CompilerOptions()</text>
<text text-anchor="start" x="267.5" y="-1137.5" font-family="FreeSans" font-size="10.00">+ operator=()</text>
<text text-anchor="start" x="267.5" y="-1126.5" font-family="FreeSans" font-size="10.00">+ ~CompilerOptions()</text>
<text text-anchor="start" x="267.5" y="-1115.5" font-family="FreeSans" font-size="10.00">+ ClearOptions()</text>
<text text-anchor="start" x="267.5" y="-1104.5" font-family="FreeSans" font-size="10.00">+ AddOption()</text>
<text text-anchor="start" x="267.5" y="-1093.5" font-family="FreeSans" font-size="10.00">+ AddOption()</text>
<text text-anchor="start" x="267.5" y="-1082.5" font-family="FreeSans" font-size="10.00">+ RemoveOption()</text>
<text text-anchor="start" x="267.5" y="-1071.5" font-family="FreeSans" font-size="10.00">+ GetCount()</text>
<text text-anchor="start" x="267.5" y="-1060.5" font-family="FreeSans" font-size="10.00">+ GetOption()</text>
<text text-anchor="start" x="267.5" y="-1049.5" font-family="FreeSans" font-size="10.00">+ GetOptionByName()</text>
<text text-anchor="start" x="267.5" y="-1038.5" font-family="FreeSans" font-size="10.00">+ GetOptionByOption()</text>
<text text-anchor="start" x="267.5" y="-1027.5" font-family="FreeSans" font-size="10.00">+ GetOptionByAdditionalLibs()</text>
</a>
</g>
</g>
<!-- Node5&#45;&gt;Node2 -->
<g id="edge9" class="edge"><title>Node5&#45;&gt;Node2</title>
<path fill="none" stroke="#404040" d="M291.931,-1020.14C286.781,-1004.65 282.329,-988.567 279.5,-973 259.712,-864.118 262.843,-741.977 272.847,-638.083"/>
<polygon fill="none" stroke="#404040" points="272.878,-637.771 269.492,-631.404 274.067,-625.83 277.453,-632.196 272.878,-637.771"/>
<text text-anchor="middle" x="307" y="-820.5" font-family="FreeSans" font-size="10.00"> #m_Options</text>
</g>
<!-- Node5&#45;&gt;Node4 -->
<g id="edge4" class="edge"><title>Node5&#45;&gt;Node4</title>
<path fill="none" stroke="#404040" d="M355.454,-1020.25C362.536,-991.32 370.382,-959.271 377.645,-929.604"/>
<polygon fill="none" stroke="#404040" points="377.65,-929.584 375.192,-922.804 380.504,-917.928 382.962,-924.707 377.65,-929.584"/>
<text text-anchor="middle" x="383.5" y="-994" font-family="FreeSans" font-size="10.00"> +Options</text>
</g>
<!-- Node6 -->
<g id="node6" class="node"><title>Node6</title>
<g id="a_node6"><a xlink:href="structCompilerSwitches.xhtml" target="_top" xlink:title="Struct to keep switches. ">
<polygon fill="white" stroke="black" points="108.5,-1026 108.5,-1204 240.5,-1204 240.5,-1026 108.5,-1026"/>
<text text-anchor="middle" x="174.5" y="-1192" font-family="FreeSans" font-size="10.00">CompilerSwitches</text>
<polyline fill="none" stroke="black" points="108.5,-1185 240.5,-1185 "/>
<text text-anchor="start" x="116.5" y="-1173" font-family="FreeSans" font-size="10.00">+ includeDirs</text>
<text text-anchor="start" x="116.5" y="-1162" font-family="FreeSans" font-size="10.00">+ libDirs</text>
<text text-anchor="start" x="116.5" y="-1151" font-family="FreeSans" font-size="10.00">+ linkLibs</text>
<text text-anchor="start" x="116.5" y="-1140" font-family="FreeSans" font-size="10.00">+ defines</text>
<text text-anchor="start" x="116.5" y="-1129" font-family="FreeSans" font-size="10.00">+ genericSwitch</text>
<text text-anchor="start" x="116.5" y="-1118" font-family="FreeSans" font-size="10.00">+ objectExtension</text>
<text text-anchor="start" x="116.5" y="-1107" font-family="FreeSans" font-size="10.00">+ forceFwdSlashes</text>
<text text-anchor="start" x="116.5" y="-1096" font-family="FreeSans" font-size="10.00">+ forceLinkerUseQuotes</text>
<text text-anchor="start" x="116.5" y="-1085" font-family="FreeSans" font-size="10.00">+ forceCompilerUseQuotes</text>
<text text-anchor="start" x="116.5" y="-1074" font-family="FreeSans" font-size="10.00">+ needDependencies</text>
<text text-anchor="start" x="116.5" y="-1063" font-family="FreeSans" font-size="10.00">and 15 more...</text>
<text text-anchor="start" x="116.5" y="-1052" font-family="FreeSans" font-size="10.00">+ defaultLogging</text>
<polyline fill="none" stroke="black" points="108.5,-1045 240.5,-1045 "/>
<text text-anchor="start" x="116.5" y="-1033" font-family="FreeSans" font-size="10.00">+ CompilerSwitches()</text>
</a>
</g>
</g>
<!-- Node6&#45;&gt;Node2 -->
<g id="edge10" class="edge"><title>Node6&#45;&gt;Node2</title>
<path fill="none" stroke="#404040" d="M171.486,-1025.84C170.32,-935.99 173.748,-793.154 200.5,-673 207.653,-640.873 218.045,-607.626 229.639,-575.771"/>
<polygon fill="none" stroke="#404040" points="229.793,-575.355 228.126,-568.34 233.961,-564.103 235.628,-571.118 229.793,-575.355"/>
<text text-anchor="middle" x="231" y="-820.5" font-family="FreeSans" font-size="10.00"> #m_Switches</text>
</g>
<!-- Node6&#45;&gt;Node4 -->
<g id="edge5" class="edge"><title>Node6&#45;&gt;Node4</title>
<path fill="none" stroke="#404040" d="M240.628,-1029.09C243.873,-1025.93 247.169,-1022.89 250.5,-1020 281.382,-993.252 301.725,-1002.96 329.5,-973 341.741,-959.795 352.409,-944.184 361.544,-928.124"/>
<polygon fill="none" stroke="#404040" points="361.579,-928.059 360.941,-920.876 367.326,-917.525 367.964,-924.708 361.579,-928.059"/>
<text text-anchor="middle" x="330.5" y="-994" font-family="FreeSans" font-size="10.00"> +Switches</text>
</g>
<!-- Node7 -->
<g id="node7" class="node"><title>Node7</title>
<polygon fill="white" stroke="#bfbfbf" points="537.5,-1086.5 537.5,-1143.5 671.5,-1143.5 671.5,-1086.5 537.5,-1086.5"/>
<text text-anchor="middle" x="604.5" y="-1131.5" font-family="FreeSans" font-size="10.00">std::vector&lt; CompilerTool &gt;</text>
<polyline fill="none" stroke="#bfbfbf" points="537.5,-1124.5 671.5,-1124.5 "/>
<text text-anchor="middle" x="604.5" y="-1112.5" font-family="FreeSans" font-size="10.00"> </text>
<polyline fill="none" stroke="#bfbfbf" points="537.5,-1105.5 671.5,-1105.5 "/>
<text text-anchor="middle" x="604.5" y="-1093.5" font-family="FreeSans" font-size="10.00"> </text>
</g>
<!-- Node7&#45;&gt;Node2 -->
<g id="edge11" class="edge"><title>Node7&#45;&gt;Node2</title>
<path fill="none" stroke="#404040" d="M607.739,-1086.44C614.974,-1014.72 627.156,-817.835 563.5,-673 527.015,-589.988 455.81,-514.983 398.37,-463.782"/>
<polygon fill="none" stroke="#404040" points="398.281,-463.703 391.135,-462.738 389.277,-455.771 396.423,-456.736 398.281,-463.703"/>
<text text-anchor="middle" x="649.5" y="-820.5" font-family="FreeSans" font-size="10.00"> #m_Commands</text>
</g>
<!-- Node7&#45;&gt;Node4 -->
<g id="edge6" class="edge"><title>Node7&#45;&gt;Node4</title>
<path fill="none" stroke="#404040" d="M583.887,-1086.38C569.14,-1067.17 548.449,-1041.28 528.5,-1020 507.42,-997.511 495.996,-997.658 477.5,-973 467.22,-959.296 457.732,-943.944 449.219,-928.443"/>
<polygon fill="none" stroke="#404040" points="449.138,-928.291 442.783,-924.883 443.485,-917.706 449.84,-921.114 449.138,-928.291"/>
<text text-anchor="middle" x="537.5" y="-994" font-family="FreeSans" font-size="10.00"> +Commands</text>
</g>
<!-- Node8 -->
<g id="node8" class="node"><title>Node8</title>
<g id="a_node8"><a xlink:href="structCompilerTool.xhtml" target="_top" xlink:title="Struct for compiler/linker commands. ">
<polygon fill="white" stroke="black" points="560.5,-1257.5 560.5,-1369.5 648.5,-1369.5 648.5,-1257.5 560.5,-1257.5"/>
<text text-anchor="middle" x="604.5" y="-1357.5" font-family="FreeSans" font-size="10.00">CompilerTool</text>
<polyline fill="none" stroke="black" points="560.5,-1350.5 648.5,-1350.5 "/>
<text text-anchor="start" x="568.5" y="-1338.5" font-family="FreeSans" font-size="10.00">+ command</text>
<text text-anchor="start" x="568.5" y="-1327.5" font-family="FreeSans" font-size="10.00">+ extensions</text>
<text text-anchor="start" x="568.5" y="-1316.5" font-family="FreeSans" font-size="10.00">+ generatedFiles</text>
<polyline fill="none" stroke="black" points="560.5,-1309.5 648.5,-1309.5 "/>
<text text-anchor="start" x="568.5" y="-1297.5" font-family="FreeSans" font-size="10.00">+ CompilerTool()</text>
<text text-anchor="start" x="568.5" y="-1286.5" font-family="FreeSans" font-size="10.00">+ CompilerTool()</text>
<text text-anchor="start" x="568.5" y="-1275.5" font-family="FreeSans" font-size="10.00">+ operator==()</text>
<text text-anchor="start" x="568.5" y="-1264.5" font-family="FreeSans" font-size="10.00">+ operator!=()</text>
</a>
</g>
</g>
<!-- Node8&#45;&gt;Node7 -->
<g id="edge7" class="edge"><title>Node8&#45;&gt;Node7</title>
<path fill="none" stroke="#404040" d="M604.5,-1257.24C604.5,-1225.01 604.5,-1185.08 604.5,-1155.91"/>
<polygon fill="none" stroke="#404040" points="604.5,-1155.73 600.5,-1149.73 604.5,-1143.73 608.5,-1149.73 604.5,-1155.73"/>
<text text-anchor="middle" x="628.5" y="-1231" font-family="FreeSans" font-size="10.00"> +elements</text>
</g>
<!-- Node9 -->
<g id="node9" class="node"><title>Node9</title>
<g id="a_node9"><a xlink:href="compiler_8h.xhtml#structCompilerPrograms" target="_top" xlink:title="Struct to keep programs. ">
<polygon fill="white" stroke="black" points="423.5,-1053.5 423.5,-1176.5 519.5,-1176.5 519.5,-1053.5 423.5,-1053.5"/>
<text text-anchor="middle" x="471.5" y="-1164.5" font-family="FreeSans" font-size="10.00">CompilerPrograms</text>
<polyline fill="none" stroke="black" points="423.5,-1157.5 519.5,-1157.5 "/>
<text text-anchor="start" x="431.5" y="-1145.5" font-family="FreeSans" font-size="10.00">+ C</text>
<text text-anchor="start" x="431.5" y="-1134.5" font-family="FreeSans" font-size="10.00">+ CPP</text>
<text text-anchor="start" x="431.5" y="-1123.5" font-family="FreeSans" font-size="10.00">+ LD</text>
<text text-anchor="start" x="431.5" y="-1112.5" font-family="FreeSans" font-size="10.00">+ LIB</text>
<text text-anchor="start" x="431.5" y="-1101.5" font-family="FreeSans" font-size="10.00">+ WINDRES</text>
<text text-anchor="start" x="431.5" y="-1090.5" font-family="FreeSans" font-size="10.00">+ MAKE</text>
<text text-anchor="start" x="431.5" y="-1079.5" font-family="FreeSans" font-size="10.00">+ DBGconfig</text>
<polyline fill="none" stroke="black" points="423.5,-1072.5 519.5,-1072.5 "/>
<text text-anchor="middle" x="471.5" y="-1060.5" font-family="FreeSans" font-size="10.00"> </text>
</a>
</g>
</g>
<!-- Node9&#45;&gt;Node2 -->
<g id="edge12" class="edge"><title>Node9&#45;&gt;Node2</title>
<path fill="none" stroke="#404040" d="M481.983,-1053.3C494.584,-966.866 509.626,-804.238 471.5,-673 455.123,-616.627 425.158,-559.521 395.549,-511.819"/>
<polygon fill="none" stroke="#404040" points="395.432,-511.632 388.851,-508.682 389.043,-501.474 395.623,-504.423 395.432,-511.632"/>
<text text-anchor="middle" x="528" y="-820.5" font-family="FreeSans" font-size="10.00"> #m_Programs</text>
</g>
<!-- Node9&#45;&gt;Node4 -->
<g id="edge8" class="edge"><title>Node9&#45;&gt;Node4</title>
<path fill="none" stroke="#404040" d="M450.395,-1053.39C445.082,-1036.85 439.701,-1018.84 435.5,-1002 429.715,-978.805 424.54,-953.662 420.125,-929.782"/>
<polygon fill="none" stroke="#404040" points="420.093,-929.61 415.087,-924.42 417.952,-917.802 422.959,-922.992 420.093,-929.61"/>
<text text-anchor="middle" x="460.5" y="-994" font-family="FreeSans" font-size="10.00"> +Programs</text>
</g>
</g>
</svg>
