<?xml version="1.0" encoding="UTF-8" standalone="no"?>
<!DOCTYPE svg PUBLIC "-//W3C//DTD SVG 1.1//EN"
 "http://www.w3.org/Graphics/SVG/1.1/DTD/svg11.dtd">
<!-- Generated by graphviz version 2.40.1 (20161225.0304)
 -->
<!-- Title: cbCompilerPlugin Pages: 1 -->
<svg width="166pt" height="590pt"
 viewBox="0.00 0.00 166.00 590.00" xmlns="http://www.w3.org/2000/svg" xmlns:xlink="http://www.w3.org/1999/xlink">
<g id="graph0" class="graph" transform="scale(1 1) rotate(0) translate(4 586)">
<title>cbCompilerPlugin</title>
<!-- Node6 -->
<g id="node1" class="node">
<title>Node6</title>
<polygon fill="#bfbfbf" stroke="#000000" points="25.5,-.5 25.5,-145.5 132.5,-145.5 132.5,-.5 25.5,-.5"/>
<text text-anchor="middle" x="79" y="-133.5" font-family="FreeSans" font-size="10.00" fill="#000000">cbCompilerPlugin</text>
<polyline fill="none" stroke="#000000" points="25.5,-126.5 132.5,-126.5 "/>
<text text-anchor="middle" x="79" y="-114.5" font-family="FreeSans" font-size="10.00" fill="#000000"> </text>
<polyline fill="none" stroke="#000000" points="25.5,-107.5 132.5,-107.5 "/>
<text text-anchor="start" x="33.5" y="-95.5" font-family="FreeSans" font-size="10.00" fill="#000000">+ cbCompilerPlugin()</text>
<text text-anchor="start" x="33.5" y="-84.5" font-family="FreeSans" font-size="10.00" fill="#000000">+ Run()</text>
<text text-anchor="start" x="33.5" y="-73.5" font-family="FreeSans" font-size="10.00" fill="#000000">+ Run()</text>
<text text-anchor="start" x="33.5" y="-62.5" font-family="FreeSans" font-size="10.00" fill="#000000">+ Clean()</text>
<text text-anchor="start" x="33.5" y="-51.5" font-family="FreeSans" font-size="10.00" fill="#000000">+ Clean()</text>
<text text-anchor="start" x="33.5" y="-40.5" font-family="FreeSans" font-size="10.00" fill="#000000">+ DistClean()</text>
<text text-anchor="start" x="33.5" y="-29.5" font-family="FreeSans" font-size="10.00" fill="#000000">+ DistClean()</text>
<text text-anchor="start" x="33.5" y="-18.5" font-family="FreeSans" font-size="10.00" fill="#000000">+ Build()</text>
<text text-anchor="start" x="33.5" y="-7.5" font-family="FreeSans" font-size="10.00" fill="#000000">and 11 more...</text>
</g>
<!-- Node7 -->
<g id="node2" class="node">
<title>Node7</title>
<g id="a_node2"><a xlink:href="classcbPlugin" target="_top" xlink:title="Base class for plugins. ">
<polygon fill="none" stroke="#000000" points="0,-182.5 0,-393.5 158,-393.5 158,-182.5 0,-182.5"/>
<text text-anchor="middle" x="79" y="-381.5" font-family="FreeSans" font-size="10.00" fill="#000000">cbPlugin</text>
<polyline fill="none" stroke="#000000" points="0,-374.5 158,-374.5 "/>
<text text-anchor="start" x="8" y="-362.5" font-family="FreeSans" font-size="10.00" fill="#000000"># m_Type</text>
<text text-anchor="start" x="8" y="-351.5" font-family="FreeSans" font-size="10.00" fill="#000000"># m_IsAttached</text>
<polyline fill="none" stroke="#000000" points="0,-344.5 158,-344.5 "/>
<text text-anchor="start" x="8" y="-332.5" font-family="FreeSans" font-size="10.00" fill="#000000">+ cbPlugin()</text>
<text text-anchor="start" x="8" y="-321.5" font-family="FreeSans" font-size="10.00" fill="#000000">+ ~cbPlugin()</text>
<text text-anchor="start" x="8" y="-310.5" font-family="FreeSans" font-size="10.00" fill="#000000">+ GetType()</text>
<text text-anchor="start" x="8" y="-299.5" font-family="FreeSans" font-size="10.00" fill="#000000">+ GetConfigurationPriority()</text>
<text text-anchor="start" x="8" y="-288.5" font-family="FreeSans" font-size="10.00" fill="#000000">+ GetConfigurationGroup()</text>
<text text-anchor="start" x="8" y="-277.5" font-family="FreeSans" font-size="10.00" fill="#000000">+ GetConfigurationPanel()</text>
<text text-anchor="start" x="8" y="-266.5" font-family="FreeSans" font-size="10.00" fill="#000000">+ GetProjectConfigurationPanel()</text>
<text text-anchor="start" x="8" y="-255.5" font-family="FreeSans" font-size="10.00" fill="#000000">+ BuildMenu()</text>
<text text-anchor="start" x="8" y="-244.5" font-family="FreeSans" font-size="10.00" fill="#000000">and 6 more...</text>
<text text-anchor="start" x="8" y="-233.5" font-family="FreeSans" font-size="10.00" fill="#000000"># OnAttach()</text>
<text text-anchor="start" x="8" y="-222.5" font-family="FreeSans" font-size="10.00" fill="#000000"># OnRelease()</text>
<text text-anchor="start" x="8" y="-211.5" font-family="FreeSans" font-size="10.00" fill="#000000"># NotImplemented()</text>
<text text-anchor="start" x="8" y="-200.5" font-family="FreeSans" font-size="10.00" fill="#000000">&#45; Attach()</text>
<text text-anchor="start" x="8" y="-189.5" font-family="FreeSans" font-size="10.00" fill="#000000">&#45; Release()</text>
</a>
</g>
</g>
<!-- Node7&#45;&gt;Node6 -->
<g id="edge1" class="edge">
<title>Node7&#45;&gt;Node6</title>
<path fill="none" stroke="#191970" d="M79,-172.2033C79,-163.1985 79,-154.2718 79,-145.6779"/>
<polygon fill="none" stroke="#191970" points="75.5001,-172.3895 79,-182.3896 82.5001,-172.3896 75.5001,-172.3895"/>
</g>
<!-- Node8 -->
<g id="node3" class="node">
<title>Node8</title>
<g id="a_node3"><a doxygen="/media/alpha/Barracuda/cb_docs/src/wxTagFile.xml:http://docs.wxwidgets.org/3.0/" xlink:href="http://docs.wxwidgets.org/3.0/classwx_evt_handler.html" target="_top" xlink:title="{wxEvtHandler\n||}">
<polygon fill="none" stroke="#000000" points="42,-430.5 42,-487.5 116,-487.5 116,-430.5 42,-430.5"/>
<text text-anchor="middle" x="79" y="-475.5" font-family="FreeSans" font-size="10.00" fill="#000000">wxEvtHandler</text>
<polyline fill="none" stroke="#000000" points="42,-468.5 116,-468.5 "/>
<text text-anchor="middle" x="79" y="-456.5" font-family="FreeSans" font-size="10.00" fill="#000000"> </text>
<polyline fill="none" stroke="#000000" points="42,-449.5 116,-449.5 "/>
<text text-anchor="middle" x="79" y="-437.5" font-family="FreeSans" font-size="10.00" fill="#000000"> </text>
</a>
</g>
</g>
<!-- Node8&#45;&gt;Node7 -->
<g id="edge2" class="edge">
<title>Node8&#45;&gt;Node7</title>
<path fill="none" stroke="#191970" d="M79,-420.1825C79,-412.0392 79,-403.0811 79,-393.7834"/>
<polygon fill="none" stroke="#191970" points="75.5001,-420.3784 79,-430.3784 82.5001,-420.3785 75.5001,-420.3784"/>
</g>
<!-- Node9 -->
<g id="node4" class="node">
<title>Node9</title>
<g id="a_node4"><a doxygen="/media/alpha/Barracuda/cb_docs/src/wxTagFile.xml:http://docs.wxwidgets.org/3.0/" xlink:href="http://docs.wxwidgets.org/3.0/classwx_object.html" target="_top" xlink:title="{wxObject\n||}">
<polygon fill="none" stroke="#000000" points="10,-524.5 10,-581.5 66,-581.5 66,-524.5 10,-524.5"/>
<text text-anchor="middle" x="38" y="-569.5" font-family="FreeSans" font-size="10.00" fill="#000000">wxObject</text>
<polyline fill="none" stroke="#000000" points="10,-562.5 66,-562.5 "/>
<text text-anchor="middle" x="38" y="-550.5" font-family="FreeSans" font-size="10.00" fill="#000000"> </text>
<polyline fill="none" stroke="#000000" points="10,-543.5 66,-543.5 "/>
<text text-anchor="middle" x="38" y="-531.5" font-family="FreeSans" font-size="10.00" fill="#000000"> </text>
</a>
</g>
</g>
<!-- Node9&#45;&gt;Node8 -->
<g id="edge3" class="edge">
<title>Node9&#45;&gt;Node8</title>
<path fill="none" stroke="#191970" d="M54.5864,-514.9726C58.5818,-505.8125 62.7831,-496.1802 66.5526,-487.538"/>
<polygon fill="none" stroke="#191970" points="51.314,-513.7208 50.5241,-524.2861 57.7303,-516.5194 51.314,-513.7208"/>
</g>
<!-- Node10 -->
<g id="node5" class="node">
<title>Node10</title>
<g id="a_node5"><a doxygen="/media/alpha/Barracuda/cb_docs/src/wxTagFile.xml:http://docs.wxwidgets.org/3.0/" xlink:href="http://docs.wxwidgets.org/3.0/classwx_trackable.html" target="_top" xlink:title="{wxTrackable\n||}">
<polygon fill="none" stroke="#000000" points="84.5,-524.5 84.5,-581.5 155.5,-581.5 155.5,-524.5 84.5,-524.5"/>
<text text-anchor="middle" x="120" y="-569.5" font-family="FreeSans" font-size="10.00" fill="#000000">wxTrackable</text>
<polyline fill="none" stroke="#000000" points="84.5,-562.5 155.5,-562.5 "/>
<text text-anchor="middle" x="120" y="-550.5" font-family="FreeSans" font-size="10.00" fill="#000000"> </text>
<polyline fill="none" stroke="#000000" points="84.5,-543.5 155.5,-543.5 "/>
<text text-anchor="middle" x="120" y="-531.5" font-family="FreeSans" font-size="10.00" fill="#000000"> </text>
</a>
</g>
</g>
<!-- Node10&#45;&gt;Node8 -->
<g id="edge4" class="edge">
<title>Node10&#45;&gt;Node8</title>
<path fill="none" stroke="#191970" d="M103.4136,-514.9726C99.4182,-505.8125 95.2169,-496.1802 91.4474,-487.538"/>
<polygon fill="none" stroke="#191970" points="100.2697,-516.5194 107.4759,-524.2861 106.686,-513.7208 100.2697,-516.5194"/>
</g>
</g>
</svg>
