<?xml version="1.0" encoding="UTF-8" standalone="no"?>
<!DOCTYPE svg PUBLIC "-//W3C//DTD SVG 1.1//EN"
 "http://www.w3.org/Graphics/SVG/1.1/DTD/svg11.dtd">
<!-- Generated by graphviz version 2.38.0 (20140413.2041)
 -->
<!-- Title: DebuggerSettingsPanel Pages: 1 -->
<svg width="644pt" height="2013pt"
 viewBox="0.00 0.00 644.48 2013.00" xmlns="http://www.w3.org/2000/svg" xmlns:xlink="http://www.w3.org/1999/xlink">
<g id="graph0" class="graph" transform="scale(1 1) rotate(0) translate(4 2009)">
<title>DebuggerSettingsPanel</title>
<!-- Node1 -->
<g id="node1" class="node"><title>Node1</title>
<polygon fill="#bfbfbf" stroke="black" points="215.478,-0.5 215.478,-134.5 352.478,-134.5 352.478,-0.5 215.478,-0.5"/>
<text text-anchor="middle" x="283.978" y="-122.5" font-family="FreeSans" font-size="10.00">DebuggerSettingsPanel</text>
<polyline fill="none" stroke="black" points="215.478,-115.5 352.478,-115.5 "/>
<text text-anchor="start" x="223.478" y="-103.5" font-family="FreeSans" font-size="10.00">&#45; ID_BUTTON_CREATE</text>
<text text-anchor="start" x="223.478" y="-92.5" font-family="FreeSans" font-size="10.00">&#45; ID_BUTTON_DELETE</text>
<text text-anchor="start" x="223.478" y="-81.5" font-family="FreeSans" font-size="10.00">&#45; ID_BUTTON_RESET</text>
<text text-anchor="start" x="223.478" y="-70.5" font-family="FreeSans" font-size="10.00">&#45; ID_TEXTCTRL_INFO</text>
<polyline fill="none" stroke="black" points="215.478,-63.5 352.478,-63.5 "/>
<text text-anchor="start" x="223.478" y="-51.5" font-family="FreeSans" font-size="10.00">+ DebuggerSettingsPanel()</text>
<text text-anchor="start" x="223.478" y="-40.5" font-family="FreeSans" font-size="10.00">+ ~DebuggerSettingsPanel()</text>
<text text-anchor="start" x="223.478" y="-29.5" font-family="FreeSans" font-size="10.00">&#45; OnButtonCreate()</text>
<text text-anchor="start" x="223.478" y="-18.5" font-family="FreeSans" font-size="10.00">&#45; OnButtonDelete()</text>
<text text-anchor="start" x="223.478" y="-7.5" font-family="FreeSans" font-size="10.00">&#45; OnButtonReset()</text>
</g>
<!-- Node2 -->
<g id="node2" class="node"><title>Node2</title>
<polygon fill="none" stroke="#bfbfbf" points="6.47752,-799.5 6.47752,-856.5 59.4775,-856.5 59.4775,-799.5 6.47752,-799.5"/>
<text text-anchor="middle" x="32.9775" y="-844.5" font-family="FreeSans" font-size="10.00">wxPanel</text>
<polyline fill="none" stroke="#bfbfbf" points="6.47752,-837.5 59.4775,-837.5 "/>
<text text-anchor="middle" x="32.9775" y="-825.5" font-family="FreeSans" font-size="10.00"> </text>
<polyline fill="none" stroke="#bfbfbf" points="6.47752,-818.5 59.4775,-818.5 "/>
<text text-anchor="middle" x="32.9775" y="-806.5" font-family="FreeSans" font-size="10.00"> </text>
</g>
<!-- Node2&#45;&gt;Node1 -->
<g id="edge1" class="edge"><title>Node2&#45;&gt;Node1</title>
<path fill="none" stroke="midnightblue" d="M24.1604,-789.516C7.62612,-711.648 -22.0782,-527.828 27.9775,-386 64.9756,-281.17 152.878,-185.504 215.333,-127.19"/>
<polygon fill="none" stroke="midnightblue" points="20.7539,-790.322 26.2994,-799.35 27.594,-788.835 20.7539,-790.322"/>
</g>
<!-- Node9 -->
<g id="node9" class="node"><title>Node9</title>
<g id="a_node9"><a xlink:href="classDebuggerSettingsCommonPanel" target="_top" xlink:title="{DebuggerSettingsCommonPanel\n|&#45; m_valueTooltipLabel\l&#45; m_autoBuild\l&#45; m_perspective\l&#45; m_requireCtrlForTooltips\l&#45; m_jumpOnDoubleClick\l&#45; m_autoSwitch\l&#45; m_debuggersLog\l&#45; m_valueTooltipFontInfo\l&#45; ID_AUTOBUILD\l&#45; ID_AUTOSWITCH\l&#45; ID_DEBUGGERS_LOG\l&#45; ID_JUMP_ON_DOUBLE_CLICK\l&#45; ID_REQUIRE_CTRL_FOR\l_TOOLTIPS\l&#45; ID_VALUE_TOOLTIP_LABEL\l&#45; ID_BUTTON_CHOOSE_FONT\l&#45; ID_CHOICE_PERSPECTIVE\l|+ DebuggerSettingsCommonPanel()\l+ ~DebuggerSettingsCommonPanel()\l+ SaveChanges()\l&#45; UpdateValueTooltipFont()\l&#45; OnChooseFontClick()\l}">
<polygon fill="none" stroke="black" points="36.9775,-386.5 36.9775,-663.5 212.978,-663.5 212.978,-386.5 36.9775,-386.5"/>
<text text-anchor="middle" x="124.978" y="-651.5" font-family="FreeSans" font-size="10.00">DebuggerSettingsCommonPanel</text>
<polyline fill="none" stroke="black" points="36.9775,-644.5 212.978,-644.5 "/>
<text text-anchor="start" x="44.9775" y="-632.5" font-family="FreeSans" font-size="10.00">&#45; m_valueTooltipLabel</text>
<text text-anchor="start" x="44.9775" y="-621.5" font-family="FreeSans" font-size="10.00">&#45; m_autoBuild</text>
<text text-anchor="start" x="44.9775" y="-610.5" font-family="FreeSans" font-size="10.00">&#45; m_perspective</text>
<text text-anchor="start" x="44.9775" y="-599.5" font-family="FreeSans" font-size="10.00">&#45; m_requireCtrlForTooltips</text>
<text text-anchor="start" x="44.9775" y="-588.5" font-family="FreeSans" font-size="10.00">&#45; m_jumpOnDoubleClick</text>
<text text-anchor="start" x="44.9775" y="-577.5" font-family="FreeSans" font-size="10.00">&#45; m_autoSwitch</text>
<text text-anchor="start" x="44.9775" y="-566.5" font-family="FreeSans" font-size="10.00">&#45; m_debuggersLog</text>
<text text-anchor="start" x="44.9775" y="-555.5" font-family="FreeSans" font-size="10.00">&#45; m_valueTooltipFontInfo</text>
<text text-anchor="start" x="44.9775" y="-544.5" font-family="FreeSans" font-size="10.00">&#45; ID_AUTOBUILD</text>
<text text-anchor="start" x="44.9775" y="-533.5" font-family="FreeSans" font-size="10.00">&#45; ID_AUTOSWITCH</text>
<text text-anchor="start" x="44.9775" y="-522.5" font-family="FreeSans" font-size="10.00">&#45; ID_DEBUGGERS_LOG</text>
<text text-anchor="start" x="44.9775" y="-511.5" font-family="FreeSans" font-size="10.00">&#45; ID_JUMP_ON_DOUBLE_CLICK</text>
<text text-anchor="start" x="44.9775" y="-500.5" font-family="FreeSans" font-size="10.00">&#45; ID_REQUIRE_CTRL_FOR</text>
<text text-anchor="start" x="44.9775" y="-489.5" font-family="FreeSans" font-size="10.00">_TOOLTIPS</text>
<text text-anchor="start" x="44.9775" y="-478.5" font-family="FreeSans" font-size="10.00">&#45; ID_VALUE_TOOLTIP_LABEL</text>
<text text-anchor="start" x="44.9775" y="-467.5" font-family="FreeSans" font-size="10.00">&#45; ID_BUTTON_CHOOSE_FONT</text>
<text text-anchor="start" x="44.9775" y="-456.5" font-family="FreeSans" font-size="10.00">&#45; ID_CHOICE_PERSPECTIVE</text>
<polyline fill="none" stroke="black" points="36.9775,-449.5 212.978,-449.5 "/>
<text text-anchor="start" x="44.9775" y="-437.5" font-family="FreeSans" font-size="10.00">+ DebuggerSettingsCommonPanel()</text>
<text text-anchor="start" x="44.9775" y="-426.5" font-family="FreeSans" font-size="10.00">+ ~DebuggerSettingsCommonPanel()</text>
<text text-anchor="start" x="44.9775" y="-415.5" font-family="FreeSans" font-size="10.00">+ SaveChanges()</text>
<text text-anchor="start" x="44.9775" y="-404.5" font-family="FreeSans" font-size="10.00">&#45; UpdateValueTooltipFont()</text>
<text text-anchor="start" x="44.9775" y="-393.5" font-family="FreeSans" font-size="10.00">&#45; OnChooseFontClick()</text>
</a>
</g>
</g>
<!-- Node2&#45;&gt;Node9 -->
<g id="edge9" class="edge"><title>Node2&#45;&gt;Node9</title>
<path fill="none" stroke="midnightblue" d="M44.3656,-789.741C54.0942,-757.912 68.7199,-710.06 82.854,-663.817"/>
<polygon fill="none" stroke="midnightblue" points="40.9617,-788.904 41.3858,-799.49 47.656,-790.95 40.9617,-788.904"/>
</g>
<!-- Node3 -->
<g id="node3" class="node"><title>Node3</title>
<g id="a_node3"><a xlink:href="classDebuggerSettingsDlg" target="_top" xlink:title="{DebuggerSettingsDlg\n|&#45; m_treebook\l&#45; m_activeInfo\l&#45; ID_LABEL_ACTIVE_INFO\l&#45; ID_TREEBOOK\l|+ DebuggerSettingsDlg()\l+ ~DebuggerSettingsDlg()\l+ CreateConfig()\l+ DeleteConfig()\l+ ResetConfig()\l&#45; OnPageChanged()\l&#45; OnOK()\l}">
<polygon fill="none" stroke="black" points="216.478,-182.5 216.478,-338.5 351.478,-338.5 351.478,-182.5 216.478,-182.5"/>
<text text-anchor="middle" x="283.978" y="-326.5" font-family="FreeSans" font-size="10.00">DebuggerSettingsDlg</text>
<polyline fill="none" stroke="black" points="216.478,-319.5 351.478,-319.5 "/>
<text text-anchor="start" x="224.478" y="-307.5" font-family="FreeSans" font-size="10.00">&#45; m_treebook</text>
<text text-anchor="start" x="224.478" y="-296.5" font-family="FreeSans" font-size="10.00">&#45; m_activeInfo</text>
<text text-anchor="start" x="224.478" y="-285.5" font-family="FreeSans" font-size="10.00">&#45; ID_LABEL_ACTIVE_INFO</text>
<text text-anchor="start" x="224.478" y="-274.5" font-family="FreeSans" font-size="10.00">&#45; ID_TREEBOOK</text>
<polyline fill="none" stroke="black" points="216.478,-267.5 351.478,-267.5 "/>
<text text-anchor="start" x="224.478" y="-255.5" font-family="FreeSans" font-size="10.00">+ DebuggerSettingsDlg()</text>
<text text-anchor="start" x="224.478" y="-244.5" font-family="FreeSans" font-size="10.00">+ ~DebuggerSettingsDlg()</text>
<text text-anchor="start" x="224.478" y="-233.5" font-family="FreeSans" font-size="10.00">+ CreateConfig()</text>
<text text-anchor="start" x="224.478" y="-222.5" font-family="FreeSans" font-size="10.00">+ DeleteConfig()</text>
<text text-anchor="start" x="224.478" y="-211.5" font-family="FreeSans" font-size="10.00">+ ResetConfig()</text>
<text text-anchor="start" x="224.478" y="-200.5" font-family="FreeSans" font-size="10.00">&#45; OnPageChanged()</text>
<text text-anchor="start" x="224.478" y="-189.5" font-family="FreeSans" font-size="10.00">&#45; OnOK()</text>
</a>
</g>
</g>
<!-- Node3&#45;&gt;Node1 -->
<g id="edge2" class="edge"><title>Node3&#45;&gt;Node1</title>
<path fill="none" stroke="#404040" d="M283.978,-182.364C283.978,-170.607 283.978,-158.464 283.978,-146.685"/>
<polygon fill="none" stroke="#404040" points="283.978,-146.573 279.978,-140.573 283.978,-134.573 287.978,-140.573 283.978,-146.573"/>
<text text-anchor="middle" x="306.478" y="-156" font-family="FreeSans" font-size="10.00"> &#45;m_dialog</text>
</g>
<!-- Node4 -->
<g id="node4" class="node"><title>Node4</title>
<g id="a_node4"><a xlink:href="classwxScrollingDialog" target="_top" xlink:title="{wxScrollingDialog\n||+ wxScrollingDialog()\l+ wxScrollingDialog()\l+ Create()\l+ Init()\l+ Show()\l+ ShowModal()\l}">
<polygon fill="none" stroke="black" points="230.478,-469 230.478,-581 337.478,-581 337.478,-469 230.478,-469"/>
<text text-anchor="middle" x="283.978" y="-569" font-family="FreeSans" font-size="10.00">wxScrollingDialog</text>
<polyline fill="none" stroke="black" points="230.478,-562 337.478,-562 "/>
<text text-anchor="middle" x="283.978" y="-550" font-family="FreeSans" font-size="10.00"> </text>
<polyline fill="none" stroke="black" points="230.478,-543 337.478,-543 "/>
<text text-anchor="start" x="238.478" y="-531" font-family="FreeSans" font-size="10.00">+ wxScrollingDialog()</text>
<text text-anchor="start" x="238.478" y="-520" font-family="FreeSans" font-size="10.00">+ wxScrollingDialog()</text>
<text text-anchor="start" x="238.478" y="-509" font-family="FreeSans" font-size="10.00">+ Create()</text>
<text text-anchor="start" x="238.478" y="-498" font-family="FreeSans" font-size="10.00">+ Init()</text>
<text text-anchor="start" x="238.478" y="-487" font-family="FreeSans" font-size="10.00">+ Show()</text>
<text text-anchor="start" x="238.478" y="-476" font-family="FreeSans" font-size="10.00">+ ShowModal()</text>
</a>
</g>
</g>
<!-- Node4&#45;&gt;Node3 -->
<g id="edge3" class="edge"><title>Node4&#45;&gt;Node3</title>
<path fill="none" stroke="midnightblue" d="M283.978,-458.505C283.978,-422.216 283.978,-376.884 283.978,-338.857"/>
<polygon fill="none" stroke="midnightblue" points="280.478,-458.971 283.978,-468.971 287.478,-458.971 280.478,-458.971"/>
</g>
<!-- Node5 -->
<g id="node5" class="node"><title>Node5</title>
<polygon fill="none" stroke="#bfbfbf" points="113.478,-799.5 113.478,-856.5 168.478,-856.5 168.478,-799.5 113.478,-799.5"/>
<text text-anchor="middle" x="140.978" y="-844.5" font-family="FreeSans" font-size="10.00">wxDialog</text>
<polyline fill="none" stroke="#bfbfbf" points="113.478,-837.5 168.478,-837.5 "/>
<text text-anchor="middle" x="140.978" y="-825.5" font-family="FreeSans" font-size="10.00"> </text>
<polyline fill="none" stroke="#bfbfbf" points="113.478,-818.5 168.478,-818.5 "/>
<text text-anchor="middle" x="140.978" y="-806.5" font-family="FreeSans" font-size="10.00"> </text>
</g>
<!-- Node5&#45;&gt;Node4 -->
<g id="edge4" class="edge"><title>Node5&#45;&gt;Node4</title>
<path fill="none" stroke="midnightblue" d="M148.032,-789.28C153.545,-765.657 162.715,-735.215 176.978,-711 191.654,-686.081 205.817,-687.983 221.978,-664 239.15,-638.516 253.576,-607.5 264.179,-581.333"/>
<polygon fill="none" stroke="midnightblue" points="144.563,-788.756 145.82,-799.276 151.398,-790.269 144.563,-788.756"/>
</g>
<!-- Node6 -->
<g id="node6" class="node"><title>Node6</title>
<g id="a_node6"><a xlink:href="classwxDialogHelper" target="_top" xlink:title="{wxDialogHelper\n|# m_dialog\l# m_layoutLayoutAdaptationDone\l# m_buttonIds\l# m_layoutAdaptationLevel\l# sm_layoutAdaptation\l|+ wxDialogHelper()\l+ ~wxDialogHelper()\l+ Init()\l+ SetDialog()\l+ GetDialog()\l+ DoLayoutAdaptation()\l+ CanDoLayoutAdaptation()\l+ GetContentWindow()\land 7 more...\l+ SetLayoutAdapter()\l+ GetLayoutAdapter()\l+ GetLayoutAdaptation()\l+ SetLayoutAdaptation()\l}">
<polygon fill="none" stroke="black" points="186.478,-711.5 186.478,-944.5 347.478,-944.5 347.478,-711.5 186.478,-711.5"/>
<text text-anchor="middle" x="266.978" y="-932.5" font-family="FreeSans" font-size="10.00">wxDialogHelper</text>
<polyline fill="none" stroke="black" points="186.478,-925.5 347.478,-925.5 "/>
<text text-anchor="start" x="194.478" y="-913.5" font-family="FreeSans" font-size="10.00"># m_dialog</text>
<text text-anchor="start" x="194.478" y="-902.5" font-family="FreeSans" font-size="10.00"># m_layoutLayoutAdaptationDone</text>
<text text-anchor="start" x="194.478" y="-891.5" font-family="FreeSans" font-size="10.00"># m_buttonIds</text>
<text text-anchor="start" x="194.478" y="-880.5" font-family="FreeSans" font-size="10.00"># m_layoutAdaptationLevel</text>
<text text-anchor="start" x="194.478" y="-869.5" font-family="FreeSans" font-size="10.00"># sm_layoutAdaptation</text>
<polyline fill="none" stroke="black" points="186.478,-862.5 347.478,-862.5 "/>
<text text-anchor="start" x="194.478" y="-850.5" font-family="FreeSans" font-size="10.00">+ wxDialogHelper()</text>
<text text-anchor="start" x="194.478" y="-839.5" font-family="FreeSans" font-size="10.00">+ ~wxDialogHelper()</text>
<text text-anchor="start" x="194.478" y="-828.5" font-family="FreeSans" font-size="10.00">+ Init()</text>
<text text-anchor="start" x="194.478" y="-817.5" font-family="FreeSans" font-size="10.00">+ SetDialog()</text>
<text text-anchor="start" x="194.478" y="-806.5" font-family="FreeSans" font-size="10.00">+ GetDialog()</text>
<text text-anchor="start" x="194.478" y="-795.5" font-family="FreeSans" font-size="10.00">+ DoLayoutAdaptation()</text>
<text text-anchor="start" x="194.478" y="-784.5" font-family="FreeSans" font-size="10.00">+ CanDoLayoutAdaptation()</text>
<text text-anchor="start" x="194.478" y="-773.5" font-family="FreeSans" font-size="10.00">+ GetContentWindow()</text>
<text text-anchor="start" x="194.478" y="-762.5" font-family="FreeSans" font-size="10.00">and 7 more...</text>
<text text-anchor="start" x="194.478" y="-751.5" font-family="FreeSans" font-size="10.00">+ SetLayoutAdapter()</text>
<text text-anchor="start" x="194.478" y="-740.5" font-family="FreeSans" font-size="10.00">+ GetLayoutAdapter()</text>
<text text-anchor="start" x="194.478" y="-729.5" font-family="FreeSans" font-size="10.00">+ GetLayoutAdaptation()</text>
<text text-anchor="start" x="194.478" y="-718.5" font-family="FreeSans" font-size="10.00">+ SetLayoutAdaptation()</text>
</a>
</g>
</g>
<!-- Node6&#45;&gt;Node4 -->
<g id="edge5" class="edge"><title>Node6&#45;&gt;Node4</title>
<path fill="none" stroke="midnightblue" d="M274.068,-701.454C276.438,-659.5 278.957,-614.884 280.863,-581.142"/>
<polygon fill="none" stroke="midnightblue" points="270.571,-701.305 273.502,-711.486 277.56,-701.7 270.571,-701.305"/>
</g>
<!-- Node7 -->
<g id="node7" class="node"><title>Node7</title>
<g id="a_node7"><a xlink:href="classwxDialogLayoutAdapter" target="_top" xlink:title="{wxDialogLayoutAdapter\n||+ wxDialogLayoutAdapter()\l+ CanDoLayoutAdaptation()\l+ DoLayoutAdaptation()\l}">
<polygon fill="none" stroke="black" points="133.478,-1185 133.478,-1264 268.478,-1264 268.478,-1185 133.478,-1185"/>
<text text-anchor="middle" x="200.978" y="-1252" font-family="FreeSans" font-size="10.00">wxDialogLayoutAdapter</text>
<polyline fill="none" stroke="black" points="133.478,-1245 268.478,-1245 "/>
<text text-anchor="middle" x="200.978" y="-1233" font-family="FreeSans" font-size="10.00"> </text>
<polyline fill="none" stroke="black" points="133.478,-1226 268.478,-1226 "/>
<text text-anchor="start" x="141.478" y="-1214" font-family="FreeSans" font-size="10.00">+ wxDialogLayoutAdapter()</text>
<text text-anchor="start" x="141.478" y="-1203" font-family="FreeSans" font-size="10.00">+ CanDoLayoutAdaptation()</text>
<text text-anchor="start" x="141.478" y="-1192" font-family="FreeSans" font-size="10.00">+ DoLayoutAdaptation()</text>
</a>
</g>
</g>
<!-- Node7&#45;&gt;Node6 -->
<g id="edge6" class="edge"><title>Node7&#45;&gt;Node6</title>
<path fill="none" stroke="#404040" d="M207.426,-1184.96C216.204,-1132.49 232.338,-1036.05 245.601,-956.774"/>
<polygon fill="none" stroke="#404040" points="245.639,-956.544 242.684,-949.967 247.619,-944.709 250.574,-951.287 245.639,-956.544"/>
<text text-anchor="middle" x="286.478" y="-966" font-family="FreeSans" font-size="10.00"> #sm_layoutAdapter</text>
</g>
<!-- Node8 -->
<g id="node8" class="node"><title>Node8</title>
<polygon fill="none" stroke="#bfbfbf" points="172.978,-1554 172.978,-1611 228.978,-1611 228.978,-1554 172.978,-1554"/>
<text text-anchor="middle" x="200.978" y="-1599" font-family="FreeSans" font-size="10.00">wxObject</text>
<polyline fill="none" stroke="#bfbfbf" points="172.978,-1592 228.978,-1592 "/>
<text text-anchor="middle" x="200.978" y="-1580" font-family="FreeSans" font-size="10.00"> </text>
<polyline fill="none" stroke="#bfbfbf" points="172.978,-1573 228.978,-1573 "/>
<text text-anchor="middle" x="200.978" y="-1561" font-family="FreeSans" font-size="10.00"> </text>
</g>
<!-- Node8&#45;&gt;Node7 -->
<g id="edge7" class="edge"><title>Node8&#45;&gt;Node7</title>
<path fill="none" stroke="midnightblue" d="M200.978,-1543.58C200.978,-1475.42 200.978,-1332.92 200.978,-1264.2"/>
<polygon fill="none" stroke="midnightblue" points="197.478,-1543.86 200.978,-1553.86 204.478,-1543.86 197.478,-1543.86"/>
</g>
<!-- Node9&#45;&gt;Node3 -->
<g id="edge8" class="edge"><title>Node9&#45;&gt;Node3</title>
<path fill="none" stroke="#404040" d="M180.841,-386.322C186.253,-376.193 191.977,-366.308 197.978,-357 201.329,-351.8 204.964,-346.607 208.781,-341.479"/>
<polygon fill="none" stroke="#404040" points="208.986,-341.214 209.486,-334.02 216.319,-331.715 215.819,-338.909 208.986,-341.214"/>
<text text-anchor="middle" x="238.978" y="-360" font-family="FreeSans" font-size="10.00"> &#45;m_commonPanel</text>
</g>
<!-- Node10 -->
<g id="node10" class="node"><title>Node10</title>
<polygon fill="none" stroke="#bfbfbf" points="360.978,-491 360.978,-559 466.978,-559 466.978,-491 360.978,-491"/>
<text text-anchor="start" x="368.978" y="-547" font-family="FreeSans" font-size="10.00">std::map&lt; wxWindow</text>
<text text-anchor="middle" x="413.978" y="-536" font-family="FreeSans" font-size="10.00"> *, Config &gt;</text>
<polyline fill="none" stroke="#bfbfbf" points="360.978,-529 466.978,-529 "/>
<text text-anchor="start" x="368.978" y="-517" font-family="FreeSans" font-size="10.00">+ keys</text>
<polyline fill="none" stroke="#bfbfbf" points="360.978,-510 466.978,-510 "/>
<text text-anchor="middle" x="413.978" y="-498" font-family="FreeSans" font-size="10.00"> </text>
</g>
<!-- Node10&#45;&gt;Node3 -->
<g id="edge10" class="edge"><title>Node10&#45;&gt;Node3</title>
<path fill="none" stroke="#404040" d="M397.666,-490.799C383.916,-462.834 363.702,-421.781 345.978,-386 340.092,-374.118 333.878,-361.605 327.748,-349.278"/>
<polygon fill="none" stroke="#404040" points="327.738,-349.258 321.484,-345.668 322.393,-338.514 328.647,-342.105 327.738,-349.258"/>
<text text-anchor="middle" x="386.478" y="-360" font-family="FreeSans" font-size="10.00"> &#45;m_mapPanelToConfig</text>
</g>
<!-- Node11 -->
<g id="node11" class="node"><title>Node11</title>
<g id="a_node11"><a xlink:href="classDebuggerSettingsDlg#structDebuggerSettingsDlg_1_1Config" target="_top" xlink:title="{DebuggerSettingsDlg\l::Config\n|+ pluginGUIName\l|}">
<polygon fill="none" stroke="black" points="365.478,-794 365.478,-862 472.478,-862 472.478,-794 365.478,-794"/>
<text text-anchor="start" x="373.478" y="-850" font-family="FreeSans" font-size="10.00">DebuggerSettingsDlg</text>
<text text-anchor="middle" x="418.978" y="-839" font-family="FreeSans" font-size="10.00">::Config</text>
<polyline fill="none" stroke="black" points="365.478,-832 472.478,-832 "/>
<text text-anchor="start" x="373.478" y="-820" font-family="FreeSans" font-size="10.00">+ pluginGUIName</text>
<polyline fill="none" stroke="black" points="365.478,-813 472.478,-813 "/>
<text text-anchor="middle" x="418.978" y="-801" font-family="FreeSans" font-size="10.00"> </text>
</a>
</g>
</g>
<!-- Node11&#45;&gt;Node10 -->
<g id="edge11" class="edge"><title>Node11&#45;&gt;Node10</title>
<path fill="none" stroke="#404040" d="M418.428,-793.927C417.531,-739.89 415.748,-632.582 414.732,-571.439"/>
<polygon fill="none" stroke="#404040" points="414.727,-571.126 410.628,-565.194 414.528,-559.128 418.627,-565.061 414.727,-571.126"/>
<text text-anchor="middle" x="439.978" y="-685" font-family="FreeSans" font-size="10.00"> +elements</text>
</g>
<!-- Node12 -->
<g id="node12" class="node"><title>Node12</title>
<g id="a_node12"><a xlink:href="classcbDebuggerConfiguration" target="_top" xlink:title="{cbDebuggerConfiguration\n|&#45; m_name\l&#45; m_menuId\l|+ cbDebuggerConfiguration()\l+ ~cbDebuggerConfiguration()\l+ Clone()\l+ MakePanel()\l+ SaveChanges()\l+ SetName()\l+ GetName()\l+ GetConfig()\l+ SetConfig()\l+ SetMenuId()\l+ GetMenuId()\l# cbDebuggerConfiguration()\l# operator=()\l}">
<polygon fill="none" stroke="black" points="286.978,-1124.5 286.978,-1324.5 430.978,-1324.5 430.978,-1124.5 286.978,-1124.5"/>
<text text-anchor="middle" x="358.978" y="-1312.5" font-family="FreeSans" font-size="10.00">cbDebuggerConfiguration</text>
<polyline fill="none" stroke="black" points="286.978,-1305.5 430.978,-1305.5 "/>
<text text-anchor="start" x="294.978" y="-1293.5" font-family="FreeSans" font-size="10.00">&#45; m_name</text>
<text text-anchor="start" x="294.978" y="-1282.5" font-family="FreeSans" font-size="10.00">&#45; m_menuId</text>
<polyline fill="none" stroke="black" points="286.978,-1275.5 430.978,-1275.5 "/>
<text text-anchor="start" x="294.978" y="-1263.5" font-family="FreeSans" font-size="10.00">+ cbDebuggerConfiguration()</text>
<text text-anchor="start" x="294.978" y="-1252.5" font-family="FreeSans" font-size="10.00">+ ~cbDebuggerConfiguration()</text>
<text text-anchor="start" x="294.978" y="-1241.5" font-family="FreeSans" font-size="10.00">+ Clone()</text>
<text text-anchor="start" x="294.978" y="-1230.5" font-family="FreeSans" font-size="10.00">+ MakePanel()</text>
<text text-anchor="start" x="294.978" y="-1219.5" font-family="FreeSans" font-size="10.00">+ SaveChanges()</text>
<text text-anchor="start" x="294.978" y="-1208.5" font-family="FreeSans" font-size="10.00">+ SetName()</text>
<text text-anchor="start" x="294.978" y="-1197.5" font-family="FreeSans" font-size="10.00">+ GetName()</text>
<text text-anchor="start" x="294.978" y="-1186.5" font-family="FreeSans" font-size="10.00">+ GetConfig()</text>
<text text-anchor="start" x="294.978" y="-1175.5" font-family="FreeSans" font-size="10.00">+ SetConfig()</text>
<text text-anchor="start" x="294.978" y="-1164.5" font-family="FreeSans" font-size="10.00">+ SetMenuId()</text>
<text text-anchor="start" x="294.978" y="-1153.5" font-family="FreeSans" font-size="10.00">+ GetMenuId()</text>
<text text-anchor="start" x="294.978" y="-1142.5" font-family="FreeSans" font-size="10.00"># cbDebuggerConfiguration()</text>
<text text-anchor="start" x="294.978" y="-1131.5" font-family="FreeSans" font-size="10.00"># operator=()</text>
</a>
</g>
</g>
<!-- Node12&#45;&gt;Node11 -->
<g id="edge12" class="edge"><title>Node12&#45;&gt;Node11</title>
<path fill="none" stroke="#404040" d="M364.124,-1124.32C367.671,-1075.47 373.512,-1015.87 382.978,-963 388.365,-932.909 397.258,-899.723 404.856,-873.905"/>
<polygon fill="none" stroke="#404040" points="404.908,-873.73 402.797,-866.835 408.35,-862.234 410.461,-869.129 404.908,-873.73"/>
<text text-anchor="middle" x="399.978" y="-966" font-family="FreeSans" font-size="10.00"> +config</text>
</g>
<!-- Node13 -->
<g id="node13" class="node"><title>Node13</title>
<g id="a_node13"><a xlink:href="classConfigManagerWrapper" target="_top" xlink:title="Wrapper class for reading or writing config values, without the need for the full path...">
<polygon fill="none" stroke="black" points="293.478,-1504.5 293.478,-1660.5 424.478,-1660.5 424.478,-1504.5 293.478,-1504.5"/>
<text text-anchor="middle" x="358.978" y="-1648.5" font-family="FreeSans" font-size="10.00">ConfigManagerWrapper</text>
<polyline fill="none" stroke="black" points="293.478,-1641.5 424.478,-1641.5 "/>
<text text-anchor="start" x="301.478" y="-1629.5" font-family="FreeSans" font-size="10.00">&#45; m_namespace</text>
<text text-anchor="start" x="301.478" y="-1618.5" font-family="FreeSans" font-size="10.00">&#45; m_basepath</text>
<polyline fill="none" stroke="black" points="293.478,-1611.5 424.478,-1611.5 "/>
<text text-anchor="start" x="301.478" y="-1599.5" font-family="FreeSans" font-size="10.00">+ ConfigManagerWrapper()</text>
<text text-anchor="start" x="301.478" y="-1588.5" font-family="FreeSans" font-size="10.00">+ ConfigManagerWrapper()</text>
<text text-anchor="start" x="301.478" y="-1577.5" font-family="FreeSans" font-size="10.00">+ IsValid()</text>
<text text-anchor="start" x="301.478" y="-1566.5" font-family="FreeSans" font-size="10.00">+ GetBasepath()</text>
<text text-anchor="start" x="301.478" y="-1555.5" font-family="FreeSans" font-size="10.00">+ Write()</text>
<text text-anchor="start" x="301.478" y="-1544.5" font-family="FreeSans" font-size="10.00">+ Read()</text>
<text text-anchor="start" x="301.478" y="-1533.5" font-family="FreeSans" font-size="10.00">+ Read()</text>
<text text-anchor="start" x="301.478" y="-1522.5" font-family="FreeSans" font-size="10.00">+ Write()</text>
<text text-anchor="start" x="301.478" y="-1511.5" font-family="FreeSans" font-size="10.00">and 9 more...</text>
</a>
</g>
</g>
<!-- Node13&#45;&gt;Node12 -->
<g id="edge13" class="edge"><title>Node13&#45;&gt;Node12</title>
<path fill="none" stroke="#404040" d="M358.978,-1504.25C358.978,-1455.3 358.978,-1391.18 358.978,-1336.78"/>
<polygon fill="none" stroke="#404040" points="358.978,-1336.62 354.978,-1330.62 358.978,-1324.62 362.978,-1330.62 358.978,-1336.62"/>
<text text-anchor="middle" x="382.478" y="-1478" font-family="FreeSans" font-size="10.00"> #m_config</text>
</g>
<!-- Node14 -->
<g id="node14" class="node"><title>Node14</title>
<g id="a_node14"><a xlink:href="classcbDebuggerPlugin" target="_top" xlink:title="Base class for debugger plugins. ">
<polygon fill="none" stroke="black" points="449.478,-992.5 449.478,-1456.5 606.478,-1456.5 606.478,-992.5 449.478,-992.5"/>
<text text-anchor="middle" x="527.978" y="-1444.5" font-family="FreeSans" font-size="10.00">cbDebuggerPlugin</text>
<polyline fill="none" stroke="black" points="449.478,-1437.5 606.478,-1437.5 "/>
<text text-anchor="start" x="457.478" y="-1425.5" font-family="FreeSans" font-size="10.00">&#45; m_PreviousLayout</text>
<text text-anchor="start" x="457.478" y="-1414.5" font-family="FreeSans" font-size="10.00">&#45; m_WaitingCompilerToFinish</text>
<text text-anchor="start" x="457.478" y="-1403.5" font-family="FreeSans" font-size="10.00">&#45; m_EditorHookId</text>
<text text-anchor="start" x="457.478" y="-1392.5" font-family="FreeSans" font-size="10.00">&#45; m_StartType</text>
<text text-anchor="start" x="457.478" y="-1381.5" font-family="FreeSans" font-size="10.00">&#45; m_DragInProgress</text>
<text text-anchor="start" x="457.478" y="-1370.5" font-family="FreeSans" font-size="10.00">&#45; m_ActiveConfig</text>
<text text-anchor="start" x="457.478" y="-1359.5" font-family="FreeSans" font-size="10.00">&#45; m_LogPageIndex</text>
<text text-anchor="start" x="457.478" y="-1348.5" font-family="FreeSans" font-size="10.00">&#45; m_lastLineWasNormal</text>
<text text-anchor="start" x="457.478" y="-1337.5" font-family="FreeSans" font-size="10.00">&#45; m_guiName</text>
<text text-anchor="start" x="457.478" y="-1326.5" font-family="FreeSans" font-size="10.00">&#45; m_settingsName</text>
<polyline fill="none" stroke="black" points="449.478,-1319.5 606.478,-1319.5 "/>
<text text-anchor="start" x="457.478" y="-1307.5" font-family="FreeSans" font-size="10.00">+ cbDebuggerPlugin()</text>
<text text-anchor="start" x="457.478" y="-1296.5" font-family="FreeSans" font-size="10.00">+ OnAttach()</text>
<text text-anchor="start" x="457.478" y="-1285.5" font-family="FreeSans" font-size="10.00">+ OnRelease()</text>
<text text-anchor="start" x="457.478" y="-1274.5" font-family="FreeSans" font-size="10.00">+ BuildMenu()</text>
<text text-anchor="start" x="457.478" y="-1263.5" font-family="FreeSans" font-size="10.00">+ BuildModuleMenu()</text>
<text text-anchor="start" x="457.478" y="-1252.5" font-family="FreeSans" font-size="10.00">+ BuildToolBar()</text>
<text text-anchor="start" x="457.478" y="-1241.5" font-family="FreeSans" font-size="10.00">+ EditorLinesAddedOrRemoved()</text>
<text text-anchor="start" x="457.478" y="-1230.5" font-family="FreeSans" font-size="10.00">+ OnAttachReal()</text>
<text text-anchor="start" x="457.478" y="-1219.5" font-family="FreeSans" font-size="10.00">and 71 more...</text>
<text text-anchor="start" x="457.478" y="-1208.5" font-family="FreeSans" font-size="10.00"># ConvertDirectory()</text>
<text text-anchor="start" x="457.478" y="-1197.5" font-family="FreeSans" font-size="10.00"># GetProject()</text>
<text text-anchor="start" x="457.478" y="-1186.5" font-family="FreeSans" font-size="10.00"># ResetProject()</text>
<text text-anchor="start" x="457.478" y="-1175.5" font-family="FreeSans" font-size="10.00"># CleanupWhenProjectClosed()</text>
<text text-anchor="start" x="457.478" y="-1164.5" font-family="FreeSans" font-size="10.00"># CompilerFinished()</text>
<text text-anchor="start" x="457.478" y="-1153.5" font-family="FreeSans" font-size="10.00"># SwitchToDebuggingLayout()</text>
<text text-anchor="start" x="457.478" y="-1142.5" font-family="FreeSans" font-size="10.00"># SwitchToPreviousLayout()</text>
<text text-anchor="start" x="457.478" y="-1131.5" font-family="FreeSans" font-size="10.00"># GetDebuggee()</text>
<text text-anchor="start" x="457.478" y="-1120.5" font-family="FreeSans" font-size="10.00"># EnsureBuildUpToDate()</text>
<text text-anchor="start" x="457.478" y="-1109.5" font-family="FreeSans" font-size="10.00"># WaitingCompilerToFinish()</text>
<text text-anchor="start" x="457.478" y="-1098.5" font-family="FreeSans" font-size="10.00"># RunNixConsole()</text>
<text text-anchor="start" x="457.478" y="-1087.5" font-family="FreeSans" font-size="10.00"># MarkAsStopped()</text>
<text text-anchor="start" x="457.478" y="-1076.5" font-family="FreeSans" font-size="10.00">&#45; RegisterValueTooltip()</text>
<text text-anchor="start" x="457.478" y="-1065.5" font-family="FreeSans" font-size="10.00">&#45; ProcessValueTooltip()</text>
<text text-anchor="start" x="457.478" y="-1054.5" font-family="FreeSans" font-size="10.00">&#45; CancelValueTooltip()</text>
<text text-anchor="start" x="457.478" y="-1043.5" font-family="FreeSans" font-size="10.00">&#45; OnEditorOpened()</text>
<text text-anchor="start" x="457.478" y="-1032.5" font-family="FreeSans" font-size="10.00">&#45; OnProjectActivated()</text>
<text text-anchor="start" x="457.478" y="-1021.5" font-family="FreeSans" font-size="10.00">&#45; OnProjectClosed()</text>
<text text-anchor="start" x="457.478" y="-1010.5" font-family="FreeSans" font-size="10.00">&#45; OnCompilerFinished()</text>
<text text-anchor="start" x="457.478" y="-999.5" font-family="FreeSans" font-size="10.00">&#45; OnEditorHook()</text>
</a>
</g>
</g>
<!-- Node14&#45;&gt;Node1 -->
<g id="edge19" class="edge"><title>Node14&#45;&gt;Node1</title>
<path fill="none" stroke="#404040" d="M518.589,-992.247C517.067,-938.658 515.978,-881.847 515.978,-829 515.978,-829 515.978,-829 515.978,-259.5 515.978,-178.741 431.153,-125.813 364.085,-96.5859"/>
<polygon fill="none" stroke="#404040" points="363.697,-96.4219 356.613,-97.7708 352.644,-91.7506 359.727,-90.4018 363.697,-96.4219"/>
<text text-anchor="middle" x="538.478" y="-522.5" font-family="FreeSans" font-size="10.00"> &#45;m_plugin</text>
</g>
<!-- Node14&#45;&gt;Node11 -->
<g id="edge14" class="edge"><title>Node14&#45;&gt;Node11</title>
<path fill="none" stroke="#404040" d="M464.099,-992.306C451.602,-947.078 439.784,-904.306 431.38,-873.888"/>
<polygon fill="none" stroke="#404040" points="431.304,-873.611 425.85,-868.893 428.108,-862.045 433.561,-866.763 431.304,-873.611"/>
<text text-anchor="middle" x="473.978" y="-966" font-family="FreeSans" font-size="10.00"> +plugin</text>
</g>
<!-- Node15 -->
<g id="node15" class="node"><title>Node15</title>
<g id="a_node15"><a xlink:href="classcbPlugin" target="_top" xlink:title="Base class for plugins This is the most basic class a plugin must descend from. ">
<polygon fill="none" stroke="black" points="433.978,-1698.5 433.978,-1909.5 591.978,-1909.5 591.978,-1698.5 433.978,-1698.5"/>
<text text-anchor="middle" x="512.978" y="-1897.5" font-family="FreeSans" font-size="10.00">cbPlugin</text>
<polyline fill="none" stroke="black" points="433.978,-1890.5 591.978,-1890.5 "/>
<text text-anchor="start" x="441.978" y="-1878.5" font-family="FreeSans" font-size="10.00"># m_Type</text>
<text text-anchor="start" x="441.978" y="-1867.5" font-family="FreeSans" font-size="10.00"># m_IsAttached</text>
<polyline fill="none" stroke="black" points="433.978,-1860.5 591.978,-1860.5 "/>
<text text-anchor="start" x="441.978" y="-1848.5" font-family="FreeSans" font-size="10.00">+ cbPlugin()</text>
<text text-anchor="start" x="441.978" y="-1837.5" font-family="FreeSans" font-size="10.00">+ ~cbPlugin()</text>
<text text-anchor="start" x="441.978" y="-1826.5" font-family="FreeSans" font-size="10.00">+ GetType()</text>
<text text-anchor="start" x="441.978" y="-1815.5" font-family="FreeSans" font-size="10.00">+ GetConfigurationPriority()</text>
<text text-anchor="start" x="441.978" y="-1804.5" font-family="FreeSans" font-size="10.00">+ GetConfigurationGroup()</text>
<text text-anchor="start" x="441.978" y="-1793.5" font-family="FreeSans" font-size="10.00">+ GetConfigurationPanel()</text>
<text text-anchor="start" x="441.978" y="-1782.5" font-family="FreeSans" font-size="10.00">+ GetProjectConfigurationPanel()</text>
<text text-anchor="start" x="441.978" y="-1771.5" font-family="FreeSans" font-size="10.00">+ BuildMenu()</text>
<text text-anchor="start" x="441.978" y="-1760.5" font-family="FreeSans" font-size="10.00">and 5 more...</text>
<text text-anchor="start" x="441.978" y="-1749.5" font-family="FreeSans" font-size="10.00"># OnAttach()</text>
<text text-anchor="start" x="441.978" y="-1738.5" font-family="FreeSans" font-size="10.00"># OnRelease()</text>
<text text-anchor="start" x="441.978" y="-1727.5" font-family="FreeSans" font-size="10.00"># NotImplemented()</text>
<text text-anchor="start" x="441.978" y="-1716.5" font-family="FreeSans" font-size="10.00">&#45; Attach()</text>
<text text-anchor="start" x="441.978" y="-1705.5" font-family="FreeSans" font-size="10.00">&#45; Release()</text>
</a>
</g>
</g>
<!-- Node15&#45;&gt;Node14 -->
<g id="edge15" class="edge"><title>Node15&#45;&gt;Node14</title>
<path fill="none" stroke="midnightblue" d="M515.955,-1688.38C517.675,-1622.16 519.901,-1536.43 521.97,-1456.79"/>
<polygon fill="none" stroke="midnightblue" points="512.455,-1688.33 515.694,-1698.42 519.452,-1688.51 512.455,-1688.33"/>
</g>
<!-- Node17 -->
<g id="node17" class="node"><title>Node17</title>
<g id="a_node17"><a xlink:href="classcbCompilerPlugin" target="_top" xlink:title="Base class for compiler plugins. ">
<polygon fill="none" stroke="black" points="529.478,-1510 529.478,-1655 636.478,-1655 636.478,-1510 529.478,-1510"/>
<text text-anchor="middle" x="582.978" y="-1643" font-family="FreeSans" font-size="10.00">cbCompilerPlugin</text>
<polyline fill="none" stroke="black" points="529.478,-1636 636.478,-1636 "/>
<text text-anchor="middle" x="582.978" y="-1624" font-family="FreeSans" font-size="10.00"> </text>
<polyline fill="none" stroke="black" points="529.478,-1617 636.478,-1617 "/>
<text text-anchor="start" x="537.478" y="-1605" font-family="FreeSans" font-size="10.00">+ cbCompilerPlugin()</text>
<text text-anchor="start" x="537.478" y="-1594" font-family="FreeSans" font-size="10.00">+ Run()</text>
<text text-anchor="start" x="537.478" y="-1583" font-family="FreeSans" font-size="10.00">+ Run()</text>
<text text-anchor="start" x="537.478" y="-1572" font-family="FreeSans" font-size="10.00">+ Clean()</text>
<text text-anchor="start" x="537.478" y="-1561" font-family="FreeSans" font-size="10.00">+ Clean()</text>
<text text-anchor="start" x="537.478" y="-1550" font-family="FreeSans" font-size="10.00">+ DistClean()</text>
<text text-anchor="start" x="537.478" y="-1539" font-family="FreeSans" font-size="10.00">+ DistClean()</text>
<text text-anchor="start" x="537.478" y="-1528" font-family="FreeSans" font-size="10.00">+ Build()</text>
<text text-anchor="start" x="537.478" y="-1517" font-family="FreeSans" font-size="10.00">and 11 more...</text>
</a>
</g>
</g>
<!-- Node15&#45;&gt;Node17 -->
<g id="edge18" class="edge"><title>Node15&#45;&gt;Node17</title>
<path fill="none" stroke="midnightblue" d="M549.413,-1688.75C553.073,-1677.27 556.711,-1665.86 560.169,-1655.02"/>
<polygon fill="none" stroke="midnightblue" points="546.041,-1687.8 546.337,-1698.39 552.71,-1689.93 546.041,-1687.8"/>
</g>
<!-- Node16 -->
<g id="node16" class="node"><title>Node16</title>
<polygon fill="none" stroke="#bfbfbf" points="475.978,-1947.5 475.978,-2004.5 549.978,-2004.5 549.978,-1947.5 475.978,-1947.5"/>
<text text-anchor="middle" x="512.978" y="-1992.5" font-family="FreeSans" font-size="10.00">wxEvtHandler</text>
<polyline fill="none" stroke="#bfbfbf" points="475.978,-1985.5 549.978,-1985.5 "/>
<text text-anchor="middle" x="512.978" y="-1973.5" font-family="FreeSans" font-size="10.00"> </text>
<polyline fill="none" stroke="#bfbfbf" points="475.978,-1966.5 549.978,-1966.5 "/>
<text text-anchor="middle" x="512.978" y="-1954.5" font-family="FreeSans" font-size="10.00"> </text>
</g>
<!-- Node16&#45;&gt;Node15 -->
<g id="edge16" class="edge"><title>Node16&#45;&gt;Node15</title>
<path fill="none" stroke="midnightblue" d="M512.978,-1937.19C512.978,-1928.8 512.978,-1919.5 512.978,-1909.84"/>
<polygon fill="none" stroke="midnightblue" points="509.478,-1937.31 512.978,-1947.31 516.478,-1937.31 509.478,-1937.31"/>
</g>
<!-- Node17&#45;&gt;Node14 -->
<g id="edge17" class="edge"><title>Node17&#45;&gt;Node14</title>
<path fill="none" stroke="#404040" d="M571.914,-1509.89C569.933,-1497.07 567.774,-1483.09 565.509,-1468.43"/>
<polygon fill="none" stroke="#404040" points="565.503,-1468.39 560.634,-1463.08 563.671,-1456.54 568.54,-1461.85 565.503,-1468.39"/>
<text text-anchor="middle" x="597.478" y="-1478" font-family="FreeSans" font-size="10.00"> &#45;m_pCompiler</text>
</g>
</g>
</svg>
