<?xml version="1.0" encoding="UTF-8" standalone="no"?>
<!DOCTYPE svg PUBLIC "-//W3C//DTD SVG 1.1//EN"
 "http://www.w3.org/Graphics/SVG/1.1/DTD/svg11.dtd">
<!-- Generated by graphviz version 2.38.0 (20140413.2041)
 -->
<!-- Title: EditPairDlg Pages: 1 -->
<svg width="224pt" height="614pt"
 viewBox="0.00 0.00 224.00 614.00" xmlns="http://www.w3.org/2000/svg" xmlns:xlink="http://www.w3.org/1999/xlink">
<g id="graph0" class="graph" transform="scale(1 1) rotate(0) translate(4 610)">
<title>EditPairDlg</title>
<!-- Node9 -->
<g id="node1" class="node"><title>Node9</title>
<polygon fill="#bfbfbf" stroke="black" points="94,-0.5 94,-112.5 187,-112.5 187,-0.5 94,-0.5"/>
<text text-anchor="middle" x="140.5" y="-100.5" font-family="FreeSans" font-size="10.00">EditPairDlg</text>
<polyline fill="none" stroke="black" points="94,-93.5 187,-93.5 "/>
<text text-anchor="start" x="102" y="-81.5" font-family="FreeSans" font-size="10.00"># m_BrowseMode</text>
<polyline fill="none" stroke="black" points="94,-74.5 187,-74.5 "/>
<text text-anchor="start" x="102" y="-62.5" font-family="FreeSans" font-size="10.00">+ EditPairDlg()</text>
<text text-anchor="start" x="102" y="-51.5" font-family="FreeSans" font-size="10.00">+ ~EditPairDlg()</text>
<text text-anchor="start" x="102" y="-40.5" font-family="FreeSans" font-size="10.00">+ operator=()</text>
<text text-anchor="start" x="102" y="-29.5" font-family="FreeSans" font-size="10.00">+ EndModal()</text>
<text text-anchor="start" x="102" y="-18.5" font-family="FreeSans" font-size="10.00"># OnUpdateUI()</text>
<text text-anchor="start" x="102" y="-7.5" font-family="FreeSans" font-size="10.00"># OnBrowse()</text>
</g>
<!-- Node10 -->
<g id="node2" class="node"><title>Node10</title>
<g id="a_node2"><a xlink:href="classwxScrollingDialog" target="_top" xlink:title="{wxScrollingDialog\n||+ wxScrollingDialog()\l+ wxScrollingDialog()\l}">
<polygon fill="none" stroke="black" points="0,-259.5 0,-327.5 107,-327.5 107,-259.5 0,-259.5"/>
<text text-anchor="middle" x="53.5" y="-315.5" font-family="FreeSans" font-size="10.00">wxScrollingDialog</text>
<polyline fill="none" stroke="black" points="0,-308.5 107,-308.5 "/>
<text text-anchor="middle" x="53.5" y="-296.5" font-family="FreeSans" font-size="10.00"> </text>
<polyline fill="none" stroke="black" points="0,-289.5 107,-289.5 "/>
<text text-anchor="start" x="8" y="-277.5" font-family="FreeSans" font-size="10.00">+ wxScrollingDialog()</text>
<text text-anchor="start" x="8" y="-266.5" font-family="FreeSans" font-size="10.00">+ wxScrollingDialog()</text>
</a>
</g>
</g>
<!-- Node10&#45;&gt;Node9 -->
<g id="edge1" class="edge"><title>Node10&#45;&gt;Node9</title>
<path fill="none" stroke="midnightblue" d="M69.428,-249.476C83.6655,-211.019 104.607,-154.452 120.073,-112.677"/>
<polygon fill="none" stroke="midnightblue" points="65.9701,-248.736 65.7805,-259.329 72.5347,-251.166 65.9701,-248.736"/>
</g>
<!-- Node11 -->
<g id="node3" class="node"><title>Node11</title>
<g id="a_node3"><a doxygen="/media/alpha/Barracuda/cb_docs/src/wxTagFile.xml:http://docs.wxwidgets.org/3.0/" xlink:href="http://docs.wxwidgets.org/3.0/classwx_dialog.html" target="_top" xlink:title="{wxDialog\n||+ ShowModal()\l}">
<polygon fill="none" stroke="black" points="13,-453.5 13,-510.5 94,-510.5 94,-453.5 13,-453.5"/>
<text text-anchor="middle" x="53.5" y="-498.5" font-family="FreeSans" font-size="10.00">wxDialog</text>
<polyline fill="none" stroke="black" points="13,-491.5 94,-491.5 "/>
<text text-anchor="middle" x="53.5" y="-479.5" font-family="FreeSans" font-size="10.00"> </text>
<polyline fill="none" stroke="black" points="13,-472.5 94,-472.5 "/>
<text text-anchor="start" x="21" y="-460.5" font-family="FreeSans" font-size="10.00">+ ShowModal()</text>
</a>
</g>
</g>
<!-- Node11&#45;&gt;Node10 -->
<g id="edge2" class="edge"><title>Node11&#45;&gt;Node10</title>
<path fill="none" stroke="midnightblue" d="M53.5,-443.069C53.5,-409.228 53.5,-360.164 53.5,-327.809"/>
<polygon fill="none" stroke="midnightblue" points="50.0001,-443.481 53.5,-453.481 57.0001,-443.481 50.0001,-443.481"/>
</g>
<!-- Node12 -->
<g id="node4" class="node"><title>Node12</title>
<g id="a_node4"><a doxygen="/media/alpha/Barracuda/cb_docs/src/wxTagFile.xml:http://docs.wxwidgets.org/3.0/" xlink:href="http://docs.wxwidgets.org/3.0/classwx_top_level_window.html" target="_top" xlink:title="{wxTopLevelWindow\n||}">
<polygon fill="none" stroke="red" points="3,-548.5 3,-605.5 104,-605.5 104,-548.5 3,-548.5"/>
<text text-anchor="middle" x="53.5" y="-593.5" font-family="FreeSans" font-size="10.00">wxTopLevelWindow</text>
<polyline fill="none" stroke="red" points="3,-586.5 104,-586.5 "/>
<text text-anchor="middle" x="53.5" y="-574.5" font-family="FreeSans" font-size="10.00"> </text>
<polyline fill="none" stroke="red" points="3,-567.5 104,-567.5 "/>
<text text-anchor="middle" x="53.5" y="-555.5" font-family="FreeSans" font-size="10.00"> </text>
</a>
</g>
</g>
<!-- Node12&#45;&gt;Node11 -->
<g id="edge3" class="edge"><title>Node12&#45;&gt;Node11</title>
<path fill="none" stroke="midnightblue" d="M53.5,-538.235C53.5,-529.028 53.5,-519.346 53.5,-510.705"/>
<polygon fill="none" stroke="midnightblue" points="50.0001,-538.349 53.5,-548.349 57.0001,-538.349 50.0001,-538.349"/>
</g>
<!-- Node18 -->
<g id="node5" class="node"><title>Node18</title>
<g id="a_node5"><a doxygen="/media/alpha/Barracuda/cb_docs/src/wxTagFile.xml:http://docs.wxwidgets.org/3.0/" xlink:href="http://docs.wxwidgets.org/3.0/classwx_string.html" target="_top" xlink:title="{wxString\n|+ npos\l|+ wxString()\l+ wxString()\l+ wxString()\l+ wxString()\l+ wxString()\l+ wxString()\l+ wxString()\l+ wxString()\land 222 more...\l+ Format()\l+ FormatV()\l+ FromCDouble()\l+ FromDouble()\l+ From8BitData()\l+ From8BitData()\l+ FromAscii()\l+ FromAscii()\land 7 more...\l}">
<polygon fill="none" stroke="black" points="125,-171.5 125,-415.5 216,-415.5 216,-171.5 125,-171.5"/>
<text text-anchor="middle" x="170.5" y="-403.5" font-family="FreeSans" font-size="10.00">wxString</text>
<polyline fill="none" stroke="black" points="125,-396.5 216,-396.5 "/>
<text text-anchor="start" x="133" y="-384.5" font-family="FreeSans" font-size="10.00">+ npos</text>
<polyline fill="none" stroke="black" points="125,-377.5 216,-377.5 "/>
<text text-anchor="start" x="133" y="-365.5" font-family="FreeSans" font-size="10.00">+ wxString()</text>
<text text-anchor="start" x="133" y="-354.5" font-family="FreeSans" font-size="10.00">+ wxString()</text>
<text text-anchor="start" x="133" y="-343.5" font-family="FreeSans" font-size="10.00">+ wxString()</text>
<text text-anchor="start" x="133" y="-332.5" font-family="FreeSans" font-size="10.00">+ wxString()</text>
<text text-anchor="start" x="133" y="-321.5" font-family="FreeSans" font-size="10.00">+ wxString()</text>
<text text-anchor="start" x="133" y="-310.5" font-family="FreeSans" font-size="10.00">+ wxString()</text>
<text text-anchor="start" x="133" y="-299.5" font-family="FreeSans" font-size="10.00">+ wxString()</text>
<text text-anchor="start" x="133" y="-288.5" font-family="FreeSans" font-size="10.00">+ wxString()</text>
<text text-anchor="start" x="133" y="-277.5" font-family="FreeSans" font-size="10.00">and 222 more...</text>
<text text-anchor="start" x="133" y="-266.5" font-family="FreeSans" font-size="10.00">+ Format()</text>
<text text-anchor="start" x="133" y="-255.5" font-family="FreeSans" font-size="10.00">+ FormatV()</text>
<text text-anchor="start" x="133" y="-244.5" font-family="FreeSans" font-size="10.00">+ FromCDouble()</text>
<text text-anchor="start" x="133" y="-233.5" font-family="FreeSans" font-size="10.00">+ FromDouble()</text>
<text text-anchor="start" x="133" y="-222.5" font-family="FreeSans" font-size="10.00">+ From8BitData()</text>
<text text-anchor="start" x="133" y="-211.5" font-family="FreeSans" font-size="10.00">+ From8BitData()</text>
<text text-anchor="start" x="133" y="-200.5" font-family="FreeSans" font-size="10.00">+ FromAscii()</text>
<text text-anchor="start" x="133" y="-189.5" font-family="FreeSans" font-size="10.00">+ FromAscii()</text>
<text text-anchor="start" x="133" y="-178.5" font-family="FreeSans" font-size="10.00">and 7 more...</text>
</a>
</g>
</g>
<!-- Node18&#45;&gt;Node9 -->
<g id="edge4" class="edge"><title>Node18&#45;&gt;Node9</title>
<path fill="none" stroke="#404040" d="M155.017,-171.214C152.968,-155.169 150.932,-139.218 149.061,-124.559"/>
<polygon fill="none" stroke="#404040" points="149.051,-124.48 144.323,-119.035 147.531,-112.577 152.259,-118.022 149.051,-124.48"/>
<text text-anchor="middle" x="173" y="-145" font-family="FreeSans" font-size="10.00"> #m_Key</text>
<text text-anchor="middle" x="173" y="-134" font-family="FreeSans" font-size="10.00">#m_Value</text>
</g>
</g>
</svg>
