<?xml version="1.0" encoding="UTF-8" standalone="no"?>
<!DOCTYPE svg PUBLIC "-//W3C//DTD SVG 1.1//EN"
 "http://www.w3.org/Graphics/SVG/1.1/DTD/svg11.dtd">
<!-- Generated by graphviz version 2.40.1 (20161225.0304)
 -->
<!-- Title: CdbCmd_AddBreakpoint Pages: 1 -->
<svg width="145pt" height="248pt"
 viewBox="0.00 0.00 145.00 248.00" xmlns="http://www.w3.org/2000/svg" xmlns:xlink="http://www.w3.org/1999/xlink">
<g id="graph0" class="graph" transform="scale(1 1) rotate(0) translate(4 244)">
<title>CdbCmd_AddBreakpoint</title>
<!-- Node0 -->
<g id="node1" class="node">
<title>Node0</title>
<polygon fill="#bfbfbf" stroke="#000000" points="0,-.5 0,-79.5 137,-79.5 137,-.5 0,-.5"/>
<text text-anchor="middle" x="68.5" y="-67.5" font-family="FreeSans" font-size="10.00" fill="#000000">CdbCmd_AddBreakpoint</text>
<polyline fill="none" stroke="#000000" points="0,-60.5 137,-60.5 "/>
<text text-anchor="start" x="8" y="-48.5" font-family="FreeSans" font-size="10.00" fill="#000000">+ m_BP</text>
<text text-anchor="start" x="8" y="-37.5" font-family="FreeSans" font-size="10.00" fill="#000000">&#45; m_lastIndex</text>
<polyline fill="none" stroke="#000000" points="0,-30.5 137,-30.5 "/>
<text text-anchor="start" x="8" y="-18.5" font-family="FreeSans" font-size="10.00" fill="#000000">+ CdbCmd_AddBreakpoint()</text>
<text text-anchor="start" x="8" y="-7.5" font-family="FreeSans" font-size="10.00" fill="#000000">+ ParseOutput()</text>
</g>
<!-- Node1 -->
<g id="node2" class="node">
<title>Node1</title>
<g id="a_node2"><a xlink:href="classDebuggerCmd" target="_top" xlink:title="Basic interface for debugger commands. ">
<polygon fill="none" stroke="#000000" points="8,-116.5 8,-239.5 129,-239.5 129,-116.5 8,-116.5"/>
<text text-anchor="middle" x="68.5" y="-227.5" font-family="FreeSans" font-size="10.00" fill="#000000">DebuggerCmd</text>
<polyline fill="none" stroke="#000000" points="8,-220.5 129,-220.5 "/>
<text text-anchor="start" x="16" y="-208.5" font-family="FreeSans" font-size="10.00" fill="#000000">+ m_Cmd</text>
<text text-anchor="start" x="16" y="-197.5" font-family="FreeSans" font-size="10.00" fill="#000000"># m_pDriver</text>
<text text-anchor="start" x="16" y="-186.5" font-family="FreeSans" font-size="10.00" fill="#000000"># m_LogToNormalLog</text>
<polyline fill="none" stroke="#000000" points="8,-179.5 129,-179.5 "/>
<text text-anchor="start" x="16" y="-167.5" font-family="FreeSans" font-size="10.00" fill="#000000">+ DebuggerCmd()</text>
<text text-anchor="start" x="16" y="-156.5" font-family="FreeSans" font-size="10.00" fill="#000000">+ ~DebuggerCmd()</text>
<text text-anchor="start" x="16" y="-145.5" font-family="FreeSans" font-size="10.00" fill="#000000">+ Action()</text>
<text text-anchor="start" x="16" y="-134.5" font-family="FreeSans" font-size="10.00" fill="#000000">+ ParseOutput()</text>
<text text-anchor="start" x="16" y="-123.5" font-family="FreeSans" font-size="10.00" fill="#000000">+ IsContinueCommand()</text>
</a>
</g>
</g>
<!-- Node1&#45;&gt;Node0 -->
<g id="edge1" class="edge">
<title>Node1&#45;&gt;Node0</title>
<path fill="none" stroke="#191970" d="M68.5,-105.9841C68.5,-96.8742 68.5,-87.8346 68.5,-79.502"/>
<polygon fill="none" stroke="#191970" points="65.0001,-106.2653 68.5,-116.2654 72.0001,-106.2654 65.0001,-106.2653"/>
</g>
</g>
</svg>
