<?xml version="1.0" encoding="UTF-8" standalone="no"?>
<!DOCTYPE svg PUBLIC "-//W3C//DTD SVG 1.1//EN"
 "http://www.w3.org/Graphics/SVG/1.1/DTD/svg11.dtd">
<!-- Generated by graphviz version 2.40.1 (20161225.0304)
 -->
<!-- Title: TextCtrlLogger Pages: 1 -->
<svg width="324pt" height="559pt"
 viewBox="0.00 0.00 323.50 559.00" xmlns="http://www.w3.org/2000/svg" xmlns:xlink="http://www.w3.org/1999/xlink">
<g id="graph0" class="graph" transform="scale(1 1) rotate(0) translate(4 555)">
<title>TextCtrlLogger</title>
<!-- Node5 -->
<g id="node1" class="node">
<title>Node5</title>
<polygon fill="#bfbfbf" stroke="#000000" points="133,-.5 133,-156.5 276,-156.5 276,-.5 133,-.5"/>
<text text-anchor="middle" x="204.5" y="-144.5" font-family="FreeSans" font-size="10.00" fill="#000000">TextCtrlLogger</text>
<polyline fill="none" stroke="#000000" points="133,-137.5 276,-137.5 "/>
<text text-anchor="start" x="141" y="-125.5" font-family="FreeSans" font-size="10.00" fill="#000000"># fixed</text>
<polyline fill="none" stroke="#000000" points="133,-118.5 276,-118.5 "/>
<text text-anchor="start" x="141" y="-106.5" font-family="FreeSans" font-size="10.00" fill="#000000">+ TextCtrlLogger()</text>
<text text-anchor="start" x="141" y="-95.5" font-family="FreeSans" font-size="10.00" fill="#000000">+ ~TextCtrlLogger()</text>
<text text-anchor="start" x="141" y="-84.5" font-family="FreeSans" font-size="10.00" fill="#000000">+ CopyContentsToClipboard()</text>
<text text-anchor="start" x="141" y="-73.5" font-family="FreeSans" font-size="10.00" fill="#000000">+ UpdateSettings()</text>
<text text-anchor="start" x="141" y="-62.5" font-family="FreeSans" font-size="10.00" fill="#000000">+ Append()</text>
<text text-anchor="start" x="141" y="-51.5" font-family="FreeSans" font-size="10.00" fill="#000000">+ Clear()</text>
<text text-anchor="start" x="141" y="-40.5" font-family="FreeSans" font-size="10.00" fill="#000000">+ CreateControl()</text>
<text text-anchor="start" x="141" y="-29.5" font-family="FreeSans" font-size="10.00" fill="#000000">+ GetWrapMode()</text>
<text text-anchor="start" x="141" y="-18.5" font-family="FreeSans" font-size="10.00" fill="#000000">+ ToggleWrapMode()</text>
<text text-anchor="start" x="141" y="-7.5" font-family="FreeSans" font-size="10.00" fill="#000000">+ HasFeature()</text>
</g>
<!-- Node6 -->
<g id="node2" class="node">
<title>Node6</title>
<g id="a_node2"><a xlink:href="classLogger" target="_top" xlink:title="The base class for all kinds of loggers, see loggers.h for its derived classes. ">
<polygon fill="none" stroke="#000000" points="0,-204.5 0,-360.5 155,-360.5 155,-204.5 0,-204.5"/>
<text text-anchor="middle" x="77.5" y="-348.5" font-family="FreeSans" font-size="10.00" fill="#000000">Logger</text>
<polyline fill="none" stroke="#000000" points="0,-341.5 155,-341.5 "/>
<text text-anchor="middle" x="77.5" y="-329.5" font-family="FreeSans" font-size="10.00" fill="#000000"> </text>
<polyline fill="none" stroke="#000000" points="0,-322.5 155,-322.5 "/>
<text text-anchor="start" x="8" y="-310.5" font-family="FreeSans" font-size="10.00" fill="#000000">+ Logger()</text>
<text text-anchor="start" x="8" y="-299.5" font-family="FreeSans" font-size="10.00" fill="#000000">+ ~Logger()</text>
<text text-anchor="start" x="8" y="-288.5" font-family="FreeSans" font-size="10.00" fill="#000000">+ Append()</text>
<text text-anchor="start" x="8" y="-277.5" font-family="FreeSans" font-size="10.00" fill="#000000">+ Clear()</text>
<text text-anchor="start" x="8" y="-266.5" font-family="FreeSans" font-size="10.00" fill="#000000">+ CopyContentsToClipboard()</text>
<text text-anchor="start" x="8" y="-255.5" font-family="FreeSans" font-size="10.00" fill="#000000">+ UpdateSettings()</text>
<text text-anchor="start" x="8" y="-244.5" font-family="FreeSans" font-size="10.00" fill="#000000">+ CreateControl()</text>
<text text-anchor="start" x="8" y="-233.5" font-family="FreeSans" font-size="10.00" fill="#000000">+ GetWrapMode()</text>
<text text-anchor="start" x="8" y="-222.5" font-family="FreeSans" font-size="10.00" fill="#000000">+ HasFeature()</text>
<text text-anchor="start" x="8" y="-211.5" font-family="FreeSans" font-size="10.00" fill="#000000">+ AppendAdditionalMenuItems()</text>
</a>
</g>
</g>
<!-- Node6&#45;&gt;Node5 -->
<g id="edge1" class="edge">
<title>Node6&#45;&gt;Node5</title>
<path fill="none" stroke="#191970" d="M131.7526,-195.354C139.7736,-182.47 147.9956,-169.2629 155.8921,-156.5788"/>
<polygon fill="none" stroke="#191970" points="128.5521,-193.8726 126.2383,-204.2117 134.4946,-197.5721 128.5521,-193.8726"/>
</g>
<!-- Node7 -->
<g id="node3" class="node">
<title>Node7</title>
<g id="a_node3"><a doxygen="/media/alpha/Barracuda/cb_docs/src/wxTagFile.xml:http://docs.wxwidgets.org/3.0/" xlink:href="http://docs.wxwidgets.org/3.0/classwx_text_ctrl.html" target="_top" xlink:title="{wxTextCtrl\n||}">
<polygon fill="none" stroke="#000000" points="173.5,-254 173.5,-311 235.5,-311 235.5,-254 173.5,-254"/>
<text text-anchor="middle" x="204.5" y="-299" font-family="FreeSans" font-size="10.00" fill="#000000">wxTextCtrl</text>
<polyline fill="none" stroke="#000000" points="173.5,-292 235.5,-292 "/>
<text text-anchor="middle" x="204.5" y="-280" font-family="FreeSans" font-size="10.00" fill="#000000"> </text>
<polyline fill="none" stroke="#000000" points="173.5,-273 235.5,-273 "/>
<text text-anchor="middle" x="204.5" y="-261" font-family="FreeSans" font-size="10.00" fill="#000000"> </text>
</a>
</g>
</g>
<!-- Node7&#45;&gt;Node5 -->
<g id="edge2" class="edge">
<title>Node7&#45;&gt;Node5</title>
<path fill="none" stroke="#404040" d="M204.5,-253.7045C204.5,-231.5009 204.5,-199.5158 204.5,-168.9354"/>
<polygon fill="none" stroke="#404040" points="204.5001,-168.8578 200.5,-162.8578 204.5,-156.8578 208.5,-162.8577 204.5001,-168.8578"/>
<text text-anchor="middle" x="223" y="-178" font-family="FreeSans" font-size="10.00" fill="#000000"> #control</text>
</g>
<!-- Node8 -->
<g id="node4" class="node">
<title>Node8</title>
<g id="a_node4"><a doxygen="/media/alpha/Barracuda/cb_docs/src/wxTagFile.xml:http://docs.wxwidgets.org/3.0/" xlink:href="http://docs.wxwidgets.org/3.0/classwx_control.html" target="_top" xlink:title="{wxControl\n||}">
<polygon fill="none" stroke="#000000" points="119,-398.5 119,-455.5 178,-455.5 178,-398.5 119,-398.5"/>
<text text-anchor="middle" x="148.5" y="-443.5" font-family="FreeSans" font-size="10.00" fill="#000000">wxControl</text>
<polyline fill="none" stroke="#000000" points="119,-436.5 178,-436.5 "/>
<text text-anchor="middle" x="148.5" y="-424.5" font-family="FreeSans" font-size="10.00" fill="#000000"> </text>
<polyline fill="none" stroke="#000000" points="119,-417.5 178,-417.5 "/>
<text text-anchor="middle" x="148.5" y="-405.5" font-family="FreeSans" font-size="10.00" fill="#000000"> </text>
</a>
</g>
</g>
<!-- Node8&#45;&gt;Node7 -->
<g id="edge3" class="edge">
<title>Node8&#45;&gt;Node7</title>
<path fill="none" stroke="#191970" d="M163.2849,-388.8497C172.6799,-364.6072 184.6507,-333.7183 193.2675,-311.4838"/>
<polygon fill="none" stroke="#191970" points="159.9139,-387.8624 159.5638,-398.4514 166.4409,-390.3919 159.9139,-387.8624"/>
</g>
<!-- Node9 -->
<g id="node5" class="node">
<title>Node9</title>
<g id="a_node5"><a doxygen="/media/alpha/Barracuda/cb_docs/src/wxTagFile.xml:http://docs.wxwidgets.org/3.0/" xlink:href="http://docs.wxwidgets.org/3.0/classwx_window.html" target="_top" xlink:title="{wxWindow\n||}">
<polygon fill="none" stroke="#ff0000" points="117.5,-493.5 117.5,-550.5 179.5,-550.5 179.5,-493.5 117.5,-493.5"/>
<text text-anchor="middle" x="148.5" y="-538.5" font-family="FreeSans" font-size="10.00" fill="#000000">wxWindow</text>
<polyline fill="none" stroke="#ff0000" points="117.5,-531.5 179.5,-531.5 "/>
<text text-anchor="middle" x="148.5" y="-519.5" font-family="FreeSans" font-size="10.00" fill="#000000"> </text>
<polyline fill="none" stroke="#ff0000" points="117.5,-512.5 179.5,-512.5 "/>
<text text-anchor="middle" x="148.5" y="-500.5" font-family="FreeSans" font-size="10.00" fill="#000000"> </text>
</a>
</g>
</g>
<!-- Node9&#45;&gt;Node8 -->
<g id="edge4" class="edge">
<title>Node9&#45;&gt;Node8</title>
<path fill="none" stroke="#191970" d="M148.5,-483.3724C148.5,-474.1627 148.5,-464.4917 148.5,-455.8114"/>
<polygon fill="none" stroke="#191970" points="145.0001,-483.4968 148.5,-493.4969 152.0001,-483.4969 145.0001,-483.4968"/>
</g>
<!-- Node13 -->
<g id="node6" class="node">
<title>Node13</title>
<g id="a_node6"><a doxygen="/media/alpha/Barracuda/cb_docs/src/wxTagFile.xml:http://docs.wxwidgets.org/3.0/" xlink:href="http://docs.wxwidgets.org/3.0/classwx_text_entry.html" target="_top" xlink:title="{wxTextEntry\n||}">
<polygon fill="none" stroke="#000000" points="196.5,-398.5 196.5,-455.5 264.5,-455.5 264.5,-398.5 196.5,-398.5"/>
<text text-anchor="middle" x="230.5" y="-443.5" font-family="FreeSans" font-size="10.00" fill="#000000">wxTextEntry</text>
<polyline fill="none" stroke="#000000" points="196.5,-436.5 264.5,-436.5 "/>
<text text-anchor="middle" x="230.5" y="-424.5" font-family="FreeSans" font-size="10.00" fill="#000000"> </text>
<polyline fill="none" stroke="#000000" points="196.5,-417.5 264.5,-417.5 "/>
<text text-anchor="middle" x="230.5" y="-405.5" font-family="FreeSans" font-size="10.00" fill="#000000"> </text>
</a>
</g>
</g>
<!-- Node13&#45;&gt;Node7 -->
<g id="edge5" class="edge">
<title>Node13&#45;&gt;Node7</title>
<path fill="none" stroke="#191970" d="M223.5774,-388.5261C219.2242,-364.3328 213.698,-333.6195 209.7151,-311.4838"/>
<polygon fill="none" stroke="#191970" points="220.1476,-389.2293 225.3632,-398.4514 227.037,-387.9897 220.1476,-389.2293"/>
</g>
<!-- Node14 -->
<g id="node7" class="node">
<title>Node14</title>
<g id="a_node7"><a doxygen="/media/alpha/Barracuda/cb_docs/src/wxTagFile.xml:http://docs.wxwidgets.org/3.0/" xlink:href="http://docs.wxwidgets.org/3.0/classwx_text_attr.html" target="_top" xlink:title="{wxTextAttr\n||}">
<polygon fill="none" stroke="#000000" points="253.5,-254 253.5,-311 315.5,-311 315.5,-254 253.5,-254"/>
<text text-anchor="middle" x="284.5" y="-299" font-family="FreeSans" font-size="10.00" fill="#000000">wxTextAttr</text>
<polyline fill="none" stroke="#000000" points="253.5,-292 315.5,-292 "/>
<text text-anchor="middle" x="284.5" y="-280" font-family="FreeSans" font-size="10.00" fill="#000000"> </text>
<polyline fill="none" stroke="#000000" points="253.5,-273 315.5,-273 "/>
<text text-anchor="middle" x="284.5" y="-261" font-family="FreeSans" font-size="10.00" fill="#000000"> </text>
</a>
</g>
</g>
<!-- Node14&#45;&gt;Node5 -->
<g id="edge6" class="edge">
<title>Node14&#45;&gt;Node5</title>
<path fill="none" stroke="#404040" d="M274.4886,-253.5972C266.8466,-231.8656 255.8958,-201.4186 245.5,-175 244.5757,-172.6511 243.6312,-170.2735 242.6715,-167.8772"/>
<polygon fill="none" stroke="#404040" points="242.594,-167.6857 236.6333,-163.6273 238.087,-156.5642 244.0476,-160.6227 242.594,-167.6857"/>
<text text-anchor="middle" x="262.5" y="-178" font-family="FreeSans" font-size="10.00" fill="#000000"> #style</text>
</g>
</g>
</svg>
