<?xml version="1.0" encoding="UTF-8" standalone="no"?>
<!DOCTYPE svg PUBLIC "-//W3C//DTD SVG 1.1//EN"
 "http://www.w3.org/Graphics/SVG/1.1/DTD/svg11.dtd">
<!-- Generated by graphviz version 2.38.0 (20140413.2041)
 -->
<!-- Title: ProjectManager Pages: 1 -->
<svg width="1010pt" height="1454pt"
 viewBox="0.00 0.00 1010.00 1454.00" xmlns="http://www.w3.org/2000/svg" xmlns:xlink="http://www.w3.org/1999/xlink">
<g id="graph0" class="graph" transform="scale(1 1) rotate(0) translate(4 1450)">
<title>ProjectManager</title>
<polygon fill="white" stroke="none" points="-4,4 -4,-1450 1006,-1450 1006,4 -4,4"/>
<!-- Node1 -->
<g id="node1" class="node"><title>Node1</title>
<polygon fill="#bfbfbf" stroke="black" points="323.5,-171.5 323.5,-481.5 484.5,-481.5 484.5,-171.5 323.5,-171.5"/>
<text text-anchor="middle" x="404" y="-469.5" font-family="FreeSans" font-size="10.00">ProjectManager</text>
<polyline fill="none" stroke="black" points="323.5,-462.5 484.5,-462.5 "/>
<text text-anchor="start" x="331.5" y="-450.5" font-family="FreeSans" font-size="10.00">&#45; m_pProjects</text>
<text text-anchor="start" x="331.5" y="-439.5" font-family="FreeSans" font-size="10.00">&#45; m_ProjectDeps</text>
<text text-anchor="start" x="331.5" y="-428.5" font-family="FreeSans" font-size="10.00">&#45; m_IsLoadingProject</text>
<text text-anchor="start" x="331.5" y="-417.5" font-family="FreeSans" font-size="10.00">&#45; m_IsLoadingWorkspace</text>
<text text-anchor="start" x="331.5" y="-406.5" font-family="FreeSans" font-size="10.00">&#45; m_IsClosingProject</text>
<text text-anchor="start" x="331.5" y="-395.5" font-family="FreeSans" font-size="10.00">&#45; m_IsClosingWorkspace</text>
<text text-anchor="start" x="331.5" y="-384.5" font-family="FreeSans" font-size="10.00">&#45; m_InitialDir</text>
<text text-anchor="start" x="331.5" y="-373.5" font-family="FreeSans" font-size="10.00">&#45; m_CanSendWorkspaceChanged</text>
<text text-anchor="start" x="331.5" y="-362.5" font-family="FreeSans" font-size="10.00">&#45; s_CanShutdown</text>
<polyline fill="none" stroke="black" points="323.5,-355.5 484.5,-355.5 "/>
<text text-anchor="start" x="331.5" y="-343.5" font-family="FreeSans" font-size="10.00">+ GetUI()</text>
<text text-anchor="start" x="331.5" y="-332.5" font-family="FreeSans" font-size="10.00">+ SetUI()</text>
<text text-anchor="start" x="331.5" y="-321.5" font-family="FreeSans" font-size="10.00">+ GetFilesGroupsAndMasks()</text>
<text text-anchor="start" x="331.5" y="-310.5" font-family="FreeSans" font-size="10.00">+ GetFilesGroupsAndMasks()</text>
<text text-anchor="start" x="331.5" y="-299.5" font-family="FreeSans" font-size="10.00">+ GetDefaultPath()</text>
<text text-anchor="start" x="331.5" y="-288.5" font-family="FreeSans" font-size="10.00">+ SetDefaultPath()</text>
<text text-anchor="start" x="331.5" y="-277.5" font-family="FreeSans" font-size="10.00">+ IsProjectStillOpen()</text>
<text text-anchor="start" x="331.5" y="-266.5" font-family="FreeSans" font-size="10.00">+ GetActiveProject()</text>
<text text-anchor="start" x="331.5" y="-255.5" font-family="FreeSans" font-size="10.00">and 45 more...</text>
<text text-anchor="start" x="331.5" y="-244.5" font-family="FreeSans" font-size="10.00">+ CanShutdown()</text>
<text text-anchor="start" x="331.5" y="-233.5" font-family="FreeSans" font-size="10.00">+ IsBusy()</text>
<text text-anchor="start" x="331.5" y="-222.5" font-family="FreeSans" font-size="10.00">&#45; ProjectManager()</text>
<text text-anchor="start" x="331.5" y="-211.5" font-family="FreeSans" font-size="10.00">&#45; ProjectManager()</text>
<text text-anchor="start" x="331.5" y="-200.5" font-family="FreeSans" font-size="10.00">&#45; ~ProjectManager()</text>
<text text-anchor="start" x="331.5" y="-189.5" font-family="FreeSans" font-size="10.00">&#45; OnAppDoneStartup()</text>
<text text-anchor="start" x="331.5" y="-178.5" font-family="FreeSans" font-size="10.00">&#45; DoAddFileToProject()</text>
</g>
<!-- Node2 -->
<g id="node2" class="node"><title>Node2</title>
<g id="a_node2"><a xlink:href="classMgr.xhtml" target="_top" xlink:title="{Mgr\&lt; ProjectManager \&gt;\n|&#45; isShutdown\l|+ Valid()\l+ Get()\l+ Free()\l# Mgr()\l# ~Mgr()\l&#45; Mgr()\l&#45; operator=()\l}">
<polygon fill="white" stroke="black" points="345,-0.5 345,-123.5 463,-123.5 463,-0.5 345,-0.5"/>
<text text-anchor="middle" x="404" y="-111.5" font-family="FreeSans" font-size="10.00">Mgr&lt; ProjectManager &gt;</text>
<polyline fill="none" stroke="black" points="345,-104.5 463,-104.5 "/>
<text text-anchor="start" x="353" y="-92.5" font-family="FreeSans" font-size="10.00">&#45; isShutdown</text>
<polyline fill="none" stroke="black" points="345,-85.5 463,-85.5 "/>
<text text-anchor="start" x="353" y="-73.5" font-family="FreeSans" font-size="10.00">+ Valid()</text>
<text text-anchor="start" x="353" y="-62.5" font-family="FreeSans" font-size="10.00">+ Get()</text>
<text text-anchor="start" x="353" y="-51.5" font-family="FreeSans" font-size="10.00">+ Free()</text>
<text text-anchor="start" x="353" y="-40.5" font-family="FreeSans" font-size="10.00"># Mgr()</text>
<text text-anchor="start" x="353" y="-29.5" font-family="FreeSans" font-size="10.00"># ~Mgr()</text>
<text text-anchor="start" x="353" y="-18.5" font-family="FreeSans" font-size="10.00">&#45; Mgr()</text>
<text text-anchor="start" x="353" y="-7.5" font-family="FreeSans" font-size="10.00">&#45; operator=()</text>
</a>
</g>
</g>
<!-- Node1&#45;&gt;Node2 -->
<g id="edge2" class="edge"><title>Node1&#45;&gt;Node2</title>
<path fill="none" stroke="#404040" d="M369.965,-171.237C370.245,-161.335 371.198,-151.524 373,-142 373.413,-139.815 373.886,-137.613 374.409,-135.403"/>
<polygon fill="none" stroke="#404040" points="374.479,-135.148 372.201,-128.306 377.641,-123.572 379.918,-130.414 374.479,-135.148"/>
<text text-anchor="middle" x="394" y="-145" font-family="FreeSans" font-size="10.00"> &#45;instance</text>
</g>
<!-- Node2&#45;&gt;Node1 -->
<g id="edge1" class="edge"><title>Node2&#45;&gt;Node1</title>
<path fill="none" stroke="midnightblue" d="M418.1,-133.762C418.442,-136.538 418.745,-139.292 419,-142 419.898,-151.547 420.38,-161.376 420.531,-171.291"/>
<polygon fill="none" stroke="midnightblue" points="421.539,-133.078 416.705,-123.65 414.605,-134.035 421.539,-133.078"/>
</g>
<!-- Node3 -->
<g id="node3" class="node"><title>Node3</title>
<polygon fill="white" stroke="#bfbfbf" points="457,-1003 457,-1060 531,-1060 531,-1003 457,-1003"/>
<text text-anchor="middle" x="494" y="-1048" font-family="FreeSans" font-size="10.00">wxEvtHandler</text>
<polyline fill="none" stroke="#bfbfbf" points="457,-1041 531,-1041 "/>
<text text-anchor="middle" x="494" y="-1029" font-family="FreeSans" font-size="10.00"> </text>
<polyline fill="none" stroke="#bfbfbf" points="457,-1022 531,-1022 "/>
<text text-anchor="middle" x="494" y="-1010" font-family="FreeSans" font-size="10.00"> </text>
</g>
<!-- Node3&#45;&gt;Node1 -->
<g id="edge3" class="edge"><title>Node3&#45;&gt;Node1</title>
<path fill="none" stroke="midnightblue" d="M488.242,-992.744C482.827,-956.463 474.721,-900.067 469,-851 450.855,-695.366 457.645,-655.186 436,-500 435.158,-493.967 434.253,-487.823 433.299,-481.624"/>
<polygon fill="none" stroke="midnightblue" points="484.817,-993.504 489.762,-1002.87 491.739,-992.465 484.817,-993.504"/>
</g>
<!-- Node12 -->
<g id="node12" class="node"><title>Node12</title>
<g id="a_node12"><a xlink:href="classcbPlugin.xhtml" target="_top" xlink:title="Base class for plugins This is the most basic class a plugin must descend from. cbPlugin descends fro...">
<polygon fill="white" stroke="black" points="478,-590 478,-801 636,-801 636,-590 478,-590"/>
<text text-anchor="middle" x="557" y="-789" font-family="FreeSans" font-size="10.00">cbPlugin</text>
<polyline fill="none" stroke="black" points="478,-782 636,-782 "/>
<text text-anchor="start" x="486" y="-770" font-family="FreeSans" font-size="10.00"># m_Type</text>
<text text-anchor="start" x="486" y="-759" font-family="FreeSans" font-size="10.00"># m_IsAttached</text>
<polyline fill="none" stroke="black" points="478,-752 636,-752 "/>
<text text-anchor="start" x="486" y="-740" font-family="FreeSans" font-size="10.00">+ cbPlugin()</text>
<text text-anchor="start" x="486" y="-729" font-family="FreeSans" font-size="10.00">+ ~cbPlugin()</text>
<text text-anchor="start" x="486" y="-718" font-family="FreeSans" font-size="10.00">+ GetType()</text>
<text text-anchor="start" x="486" y="-707" font-family="FreeSans" font-size="10.00">+ GetConfigurationPriority()</text>
<text text-anchor="start" x="486" y="-696" font-family="FreeSans" font-size="10.00">+ GetConfigurationGroup()</text>
<text text-anchor="start" x="486" y="-685" font-family="FreeSans" font-size="10.00">+ GetConfigurationPanel()</text>
<text text-anchor="start" x="486" y="-674" font-family="FreeSans" font-size="10.00">+ GetProjectConfigurationPanel()</text>
<text text-anchor="start" x="486" y="-663" font-family="FreeSans" font-size="10.00">+ BuildMenu()</text>
<text text-anchor="start" x="486" y="-652" font-family="FreeSans" font-size="10.00">and 6 more...</text>
<text text-anchor="start" x="486" y="-641" font-family="FreeSans" font-size="10.00"># OnAttach()</text>
<text text-anchor="start" x="486" y="-630" font-family="FreeSans" font-size="10.00"># OnRelease()</text>
<text text-anchor="start" x="486" y="-619" font-family="FreeSans" font-size="10.00"># NotImplemented()</text>
<text text-anchor="start" x="486" y="-608" font-family="FreeSans" font-size="10.00">&#45; Attach()</text>
<text text-anchor="start" x="486" y="-597" font-family="FreeSans" font-size="10.00">&#45; Release()</text>
</a>
</g>
</g>
<!-- Node3&#45;&gt;Node12 -->
<g id="edge15" class="edge"><title>Node3&#45;&gt;Node12</title>
<path fill="none" stroke="midnightblue" d="M501.069,-993.024C509.769,-946.897 524.906,-866.648 537.241,-801.256"/>
<polygon fill="none" stroke="midnightblue" points="497.623,-992.408 499.209,-1002.88 504.502,-993.705 497.623,-992.408"/>
</g>
<!-- Node4 -->
<g id="node4" class="node"><title>Node4</title>
<g id="a_node4"><a xlink:href="classcbWorkspace.xhtml" target="_top" xlink:title="A workspace class. ">
<polygon fill="white" stroke="black" points="294,-584.5 294,-806.5 422,-806.5 422,-584.5 294,-584.5"/>
<text text-anchor="middle" x="358" y="-794.5" font-family="FreeSans" font-size="10.00">cbWorkspace</text>
<polyline fill="none" stroke="black" points="294,-787.5 422,-787.5 "/>
<text text-anchor="start" x="302" y="-775.5" font-family="FreeSans" font-size="10.00">&#45; m_IsOK</text>
<text text-anchor="start" x="302" y="-764.5" font-family="FreeSans" font-size="10.00">&#45; m_IsDefault</text>
<text text-anchor="start" x="302" y="-753.5" font-family="FreeSans" font-size="10.00">&#45; m_Modified</text>
<text text-anchor="start" x="302" y="-742.5" font-family="FreeSans" font-size="10.00">&#45; m_Filename</text>
<text text-anchor="start" x="302" y="-731.5" font-family="FreeSans" font-size="10.00">&#45; m_Title</text>
<text text-anchor="start" x="302" y="-720.5" font-family="FreeSans" font-size="10.00">&#45; m_PreferredTargetName</text>
<polyline fill="none" stroke="black" points="294,-713.5 422,-713.5 "/>
<text text-anchor="start" x="302" y="-701.5" font-family="FreeSans" font-size="10.00">+ cbWorkspace()</text>
<text text-anchor="start" x="302" y="-690.5" font-family="FreeSans" font-size="10.00">+ ~cbWorkspace()</text>
<text text-anchor="start" x="302" y="-679.5" font-family="FreeSans" font-size="10.00">+ Save()</text>
<text text-anchor="start" x="302" y="-668.5" font-family="FreeSans" font-size="10.00">+ SaveAs()</text>
<text text-anchor="start" x="302" y="-657.5" font-family="FreeSans" font-size="10.00">+ GetFilename()</text>
<text text-anchor="start" x="302" y="-646.5" font-family="FreeSans" font-size="10.00">+ GetTitle()</text>
<text text-anchor="start" x="302" y="-635.5" font-family="FreeSans" font-size="10.00">+ SetTitle()</text>
<text text-anchor="start" x="302" y="-624.5" font-family="FreeSans" font-size="10.00">+ IsOK()</text>
<text text-anchor="start" x="302" y="-613.5" font-family="FreeSans" font-size="10.00">and 7 more...</text>
<text text-anchor="start" x="302" y="-602.5" font-family="FreeSans" font-size="10.00">&#45; Load()</text>
<text text-anchor="start" x="302" y="-591.5" font-family="FreeSans" font-size="10.00">&#45; LoadLayout()</text>
</a>
</g>
</g>
<!-- Node4&#45;&gt;Node1 -->
<g id="edge4" class="edge"><title>Node4&#45;&gt;Node1</title>
<path fill="none" stroke="#404040" d="M356.853,-584.384C357.657,-556.747 359.455,-527.215 363,-500 363.267,-497.954 363.547,-495.897 363.841,-493.83"/>
<polygon fill="none" stroke="#404040" points="363.85,-493.772 360.802,-487.237 365.663,-481.91 368.71,-488.445 363.85,-493.772"/>
<text text-anchor="middle" x="399.5" y="-508.5" font-family="FreeSans" font-size="10.00"> &#45;m_pWorkspace</text>
</g>
<!-- Node5 -->
<g id="node5" class="node"><title>Node5</title>
<g id="a_node5"><a xlink:href="classcbProject.xhtml" target="_top" xlink:title="Represents a Code::Blocks project. ">
<polygon fill="white" stroke="black" points="735,-540.5 735,-850.5 905,-850.5 905,-540.5 735,-540.5"/>
<text text-anchor="middle" x="820" y="-838.5" font-family="FreeSans" font-size="10.00">cbProject</text>
<polyline fill="none" stroke="black" points="735,-831.5 905,-831.5 "/>
<text text-anchor="start" x="743" y="-819.5" font-family="FreeSans" font-size="10.00">&#45; m_Targets</text>
<text text-anchor="start" x="743" y="-808.5" font-family="FreeSans" font-size="10.00">&#45; m_ActiveTarget</text>
<text text-anchor="start" x="743" y="-797.5" font-family="FreeSans" font-size="10.00">&#45; m_LastSavedActiveTarget</text>
<text text-anchor="start" x="743" y="-786.5" font-family="FreeSans" font-size="10.00">&#45; m_DefaultExecuteTarget</text>
<text text-anchor="start" x="743" y="-775.5" font-family="FreeSans" font-size="10.00">&#45; m_Makefile</text>
<text text-anchor="start" x="743" y="-764.5" font-family="FreeSans" font-size="10.00">&#45; m_CustomMakefile</text>
<text text-anchor="start" x="743" y="-753.5" font-family="FreeSans" font-size="10.00">&#45; m_MakefileExecutionDir</text>
<text text-anchor="start" x="743" y="-742.5" font-family="FreeSans" font-size="10.00">&#45; m_Files</text>
<text text-anchor="start" x="743" y="-731.5" font-family="FreeSans" font-size="10.00">and 17 more...</text>
<polyline fill="none" stroke="black" points="735,-724.5 905,-724.5 "/>
<text text-anchor="start" x="743" y="-712.5" font-family="FreeSans" font-size="10.00">+ cbProject()</text>
<text text-anchor="start" x="743" y="-701.5" font-family="FreeSans" font-size="10.00">+ ~cbProject()</text>
<text text-anchor="start" x="743" y="-690.5" font-family="FreeSans" font-size="10.00">+ IsLoaded()</text>
<text text-anchor="start" x="743" y="-679.5" font-family="FreeSans" font-size="10.00">+ ClearAllProperties()</text>
<text text-anchor="start" x="743" y="-668.5" font-family="FreeSans" font-size="10.00">+ CalculateCommonTopLevelPath()</text>
<text text-anchor="start" x="743" y="-657.5" font-family="FreeSans" font-size="10.00">+ GetCommonTopLevelPath()</text>
<text text-anchor="start" x="743" y="-646.5" font-family="FreeSans" font-size="10.00">+ GetModified()</text>
<text text-anchor="start" x="743" y="-635.5" font-family="FreeSans" font-size="10.00">+ SetModified()</text>
<text text-anchor="start" x="743" y="-624.5" font-family="FreeSans" font-size="10.00">and 85 more...</text>
<text text-anchor="start" x="743" y="-613.5" font-family="FreeSans" font-size="10.00">&#45; Open()</text>
<text text-anchor="start" x="743" y="-602.5" font-family="FreeSans" font-size="10.00">&#45; ExpandVirtualBuildTarget</text>
<text text-anchor="start" x="743" y="-591.5" font-family="FreeSans" font-size="10.00">Group()</text>
<text text-anchor="start" x="743" y="-580.5" font-family="FreeSans" font-size="10.00">&#45; AddDefaultBuildTarget()</text>
<text text-anchor="start" x="743" y="-569.5" font-family="FreeSans" font-size="10.00">&#45; IndexOfBuildTargetName()</text>
<text text-anchor="start" x="743" y="-558.5" font-family="FreeSans" font-size="10.00">&#45; CreateUniqueFilename()</text>
<text text-anchor="start" x="743" y="-547.5" font-family="FreeSans" font-size="10.00">&#45; NotifyPlugins()</text>
</a>
</g>
</g>
<!-- Node5&#45;&gt;Node1 -->
<g id="edge5" class="edge"><title>Node5&#45;&gt;Node1</title>
<path fill="none" stroke="#404040" d="M734.56,-619.05C706.078,-593.903 674.175,-565.741 645,-540 595.008,-495.892 539.167,-446.652 493.834,-406.686"/>
<polygon fill="none" stroke="#404040" points="493.621,-406.499 486.475,-405.531 484.619,-398.563 491.765,-399.53 493.621,-406.499"/>
<text text-anchor="middle" x="670" y="-514" font-family="FreeSans" font-size="10.00"> &#45;m_pProjectToActivate</text>
<text text-anchor="middle" x="670" y="-503" font-family="FreeSans" font-size="10.00">&#45;m_pActiveProject</text>
</g>
<!-- Node11 -->
<g id="node11" class="node"><title>Node11</title>
<g id="a_node11"><a xlink:href="classProjectBuildTarget.xhtml" target="_top" xlink:title="{ProjectBuildTarget\n|&#45; m_ExternalDeps\l&#45; m_AdditionalOutputFiles\l&#45; m_TargetDeps\l&#45; m_Files\l&#45; m_FileArray\l&#45; m_BuildWithAll\l&#45; m_CreateStaticLib\l&#45; m_CreateDefFile\l&#45; m_UseConsoleRunner\l|+ ProjectBuildTarget()\l+ ~ProjectBuildTarget()\l+ GetParentProject()\l+ GetFullTitle()\l+ GetExternalDeps()\l+ SetExternalDeps()\l+ GetAdditionalOutputFiles()\l+ SetAdditionalOutputFiles()\land 15 more...\l}">
<polygon fill="white" stroke="black" points="752.5,-210 752.5,-443 891.5,-443 891.5,-210 752.5,-210"/>
<text text-anchor="middle" x="822" y="-431" font-family="FreeSans" font-size="10.00">ProjectBuildTarget</text>
<polyline fill="none" stroke="black" points="752.5,-424 891.5,-424 "/>
<text text-anchor="start" x="760.5" y="-412" font-family="FreeSans" font-size="10.00">&#45; m_ExternalDeps</text>
<text text-anchor="start" x="760.5" y="-401" font-family="FreeSans" font-size="10.00">&#45; m_AdditionalOutputFiles</text>
<text text-anchor="start" x="760.5" y="-390" font-family="FreeSans" font-size="10.00">&#45; m_TargetDeps</text>
<text text-anchor="start" x="760.5" y="-379" font-family="FreeSans" font-size="10.00">&#45; m_Files</text>
<text text-anchor="start" x="760.5" y="-368" font-family="FreeSans" font-size="10.00">&#45; m_FileArray</text>
<text text-anchor="start" x="760.5" y="-357" font-family="FreeSans" font-size="10.00">&#45; m_BuildWithAll</text>
<text text-anchor="start" x="760.5" y="-346" font-family="FreeSans" font-size="10.00">&#45; m_CreateStaticLib</text>
<text text-anchor="start" x="760.5" y="-335" font-family="FreeSans" font-size="10.00">&#45; m_CreateDefFile</text>
<text text-anchor="start" x="760.5" y="-324" font-family="FreeSans" font-size="10.00">&#45; m_UseConsoleRunner</text>
<polyline fill="none" stroke="black" points="752.5,-317 891.5,-317 "/>
<text text-anchor="start" x="760.5" y="-305" font-family="FreeSans" font-size="10.00">+ ProjectBuildTarget()</text>
<text text-anchor="start" x="760.5" y="-294" font-family="FreeSans" font-size="10.00">+ ~ProjectBuildTarget()</text>
<text text-anchor="start" x="760.5" y="-283" font-family="FreeSans" font-size="10.00">+ GetParentProject()</text>
<text text-anchor="start" x="760.5" y="-272" font-family="FreeSans" font-size="10.00">+ GetFullTitle()</text>
<text text-anchor="start" x="760.5" y="-261" font-family="FreeSans" font-size="10.00">+ GetExternalDeps()</text>
<text text-anchor="start" x="760.5" y="-250" font-family="FreeSans" font-size="10.00">+ SetExternalDeps()</text>
<text text-anchor="start" x="760.5" y="-239" font-family="FreeSans" font-size="10.00">+ GetAdditionalOutputFiles()</text>
<text text-anchor="start" x="760.5" y="-228" font-family="FreeSans" font-size="10.00">+ SetAdditionalOutputFiles()</text>
<text text-anchor="start" x="760.5" y="-217" font-family="FreeSans" font-size="10.00">and 15 more...</text>
</a>
</g>
</g>
<!-- Node5&#45;&gt;Node11 -->
<g id="edge13" class="edge"><title>Node5&#45;&gt;Node11</title>
<path fill="none" stroke="#404040" d="M818.816,-540.29C818.83,-526.664 818.886,-513.085 819,-500 819.126,-485.465 819.313,-470.243 819.532,-455.115"/>
<polygon fill="none" stroke="#404040" points="819.533,-455.017 815.624,-448.958 819.714,-443.018 823.623,-449.078 819.533,-455.017"/>
<text text-anchor="middle" x="844" y="-508.5" font-family="FreeSans" font-size="10.00"> &#45;m_Project</text>
</g>
<!-- Node6 -->
<g id="node6" class="node"><title>Node6</title>
<g id="a_node6"><a xlink:href="classCompileTargetBase.xhtml" target="_top" xlink:title="Base class for build target classes Each Code::Blocks project consists of at least one target...">
<polygon fill="white" stroke="black" points="592.5,-898.5 592.5,-1164.5 747.5,-1164.5 747.5,-898.5 592.5,-898.5"/>
<text text-anchor="middle" x="670" y="-1152.5" font-family="FreeSans" font-size="10.00">CompileTargetBase</text>
<polyline fill="none" stroke="black" points="592.5,-1145.5 747.5,-1145.5 "/>
<text text-anchor="start" x="600.5" y="-1133.5" font-family="FreeSans" font-size="10.00"># m_Filename</text>
<text text-anchor="start" x="600.5" y="-1122.5" font-family="FreeSans" font-size="10.00"># m_Title</text>
<text text-anchor="start" x="600.5" y="-1111.5" font-family="FreeSans" font-size="10.00"># m_OutputFilename</text>
<text text-anchor="start" x="600.5" y="-1100.5" font-family="FreeSans" font-size="10.00"># m_ImportLibraryFilename</text>
<text text-anchor="start" x="600.5" y="-1089.5" font-family="FreeSans" font-size="10.00"># m_DefinitionFileFilename</text>
<text text-anchor="start" x="600.5" y="-1078.5" font-family="FreeSans" font-size="10.00"># m_WorkingDir</text>
<text text-anchor="start" x="600.5" y="-1067.5" font-family="FreeSans" font-size="10.00"># m_ObjectOutput</text>
<text text-anchor="start" x="600.5" y="-1056.5" font-family="FreeSans" font-size="10.00"># m_DepsOutput</text>
<text text-anchor="start" x="600.5" y="-1045.5" font-family="FreeSans" font-size="10.00">and 10 more...</text>
<polyline fill="none" stroke="black" points="592.5,-1038.5 747.5,-1038.5 "/>
<text text-anchor="start" x="600.5" y="-1026.5" font-family="FreeSans" font-size="10.00">+ CompileTargetBase()</text>
<text text-anchor="start" x="600.5" y="-1015.5" font-family="FreeSans" font-size="10.00">+ ~CompileTargetBase()</text>
<text text-anchor="start" x="600.5" y="-1004.5" font-family="FreeSans" font-size="10.00">+ SetTargetFilenameGeneration</text>
<text text-anchor="start" x="600.5" y="-993.5" font-family="FreeSans" font-size="10.00">Policy()</text>
<text text-anchor="start" x="600.5" y="-982.5" font-family="FreeSans" font-size="10.00">+ GetTargetFilenameGeneration</text>
<text text-anchor="start" x="600.5" y="-971.5" font-family="FreeSans" font-size="10.00">Policy()</text>
<text text-anchor="start" x="600.5" y="-960.5" font-family="FreeSans" font-size="10.00">+ GetFilename()</text>
<text text-anchor="start" x="600.5" y="-949.5" font-family="FreeSans" font-size="10.00">+ GetTitle()</text>
<text text-anchor="start" x="600.5" y="-938.5" font-family="FreeSans" font-size="10.00">+ SetTitle()</text>
<text text-anchor="start" x="600.5" y="-927.5" font-family="FreeSans" font-size="10.00">+ SetOutputFilename()</text>
<text text-anchor="start" x="600.5" y="-916.5" font-family="FreeSans" font-size="10.00">and 32 more...</text>
<text text-anchor="start" x="600.5" y="-905.5" font-family="FreeSans" font-size="10.00">&#45; GenerateTargetFilename()</text>
</a>
</g>
</g>
<!-- Node6&#45;&gt;Node5 -->
<g id="edge6" class="edge"><title>Node6&#45;&gt;Node5</title>
<path fill="none" stroke="midnightblue" d="M733.431,-889.261C739.15,-876.525 744.962,-863.584 750.729,-850.744"/>
<polygon fill="none" stroke="midnightblue" points="730.188,-887.938 729.284,-898.494 736.574,-890.806 730.188,-887.938"/>
</g>
<!-- Node6&#45;&gt;Node11 -->
<g id="edge12" class="edge"><title>Node6&#45;&gt;Node11</title>
<path fill="none" stroke="midnightblue" d="M661.545,-888.033C655.588,-755.48 652.604,-568.436 678,-500 693.404,-458.488 723.455,-419.878 752.137,-389.756"/>
<polygon fill="none" stroke="midnightblue" points="658.061,-888.45 662.017,-898.279 665.053,-888.129 658.061,-888.45"/>
</g>
<!-- Node7 -->
<g id="node7" class="node"><title>Node7</title>
<g id="a_node7"><a xlink:href="classCompileOptionsBase.xhtml" target="_top" xlink:title="{CompileOptionsBase\n|# m_Platform\l# m_LinkerOptions\l# m_LinkLibs\l# m_CompilerOptions\l# m_ResourceCompilerOptions\l# m_IncludeDirs\l# m_ResIncludeDirs\l# m_LibDirs\land 6 more...\l|+ CompileOptionsBase()\l+ ~CompileOptionsBase()\l+ AddPlatform()\l+ RemovePlatform()\l+ SetPlatforms()\l+ GetPlatforms()\l+ SupportsCurrentPlatform()\l+ SetLinkerOptions()\land 56 more...\l}">
<polygon fill="white" stroke="black" points="595.5,-1212.5 595.5,-1445.5 744.5,-1445.5 744.5,-1212.5 595.5,-1212.5"/>
<text text-anchor="middle" x="670" y="-1433.5" font-family="FreeSans" font-size="10.00">CompileOptionsBase</text>
<polyline fill="none" stroke="black" points="595.5,-1426.5 744.5,-1426.5 "/>
<text text-anchor="start" x="603.5" y="-1414.5" font-family="FreeSans" font-size="10.00"># m_Platform</text>
<text text-anchor="start" x="603.5" y="-1403.5" font-family="FreeSans" font-size="10.00"># m_LinkerOptions</text>
<text text-anchor="start" x="603.5" y="-1392.5" font-family="FreeSans" font-size="10.00"># m_LinkLibs</text>
<text text-anchor="start" x="603.5" y="-1381.5" font-family="FreeSans" font-size="10.00"># m_CompilerOptions</text>
<text text-anchor="start" x="603.5" y="-1370.5" font-family="FreeSans" font-size="10.00"># m_ResourceCompilerOptions</text>
<text text-anchor="start" x="603.5" y="-1359.5" font-family="FreeSans" font-size="10.00"># m_IncludeDirs</text>
<text text-anchor="start" x="603.5" y="-1348.5" font-family="FreeSans" font-size="10.00"># m_ResIncludeDirs</text>
<text text-anchor="start" x="603.5" y="-1337.5" font-family="FreeSans" font-size="10.00"># m_LibDirs</text>
<text text-anchor="start" x="603.5" y="-1326.5" font-family="FreeSans" font-size="10.00">and 6 more...</text>
<polyline fill="none" stroke="black" points="595.5,-1319.5 744.5,-1319.5 "/>
<text text-anchor="start" x="603.5" y="-1307.5" font-family="FreeSans" font-size="10.00">+ CompileOptionsBase()</text>
<text text-anchor="start" x="603.5" y="-1296.5" font-family="FreeSans" font-size="10.00">+ ~CompileOptionsBase()</text>
<text text-anchor="start" x="603.5" y="-1285.5" font-family="FreeSans" font-size="10.00">+ AddPlatform()</text>
<text text-anchor="start" x="603.5" y="-1274.5" font-family="FreeSans" font-size="10.00">+ RemovePlatform()</text>
<text text-anchor="start" x="603.5" y="-1263.5" font-family="FreeSans" font-size="10.00">+ SetPlatforms()</text>
<text text-anchor="start" x="603.5" y="-1252.5" font-family="FreeSans" font-size="10.00">+ GetPlatforms()</text>
<text text-anchor="start" x="603.5" y="-1241.5" font-family="FreeSans" font-size="10.00">+ SupportsCurrentPlatform()</text>
<text text-anchor="start" x="603.5" y="-1230.5" font-family="FreeSans" font-size="10.00">+ SetLinkerOptions()</text>
<text text-anchor="start" x="603.5" y="-1219.5" font-family="FreeSans" font-size="10.00">and 56 more...</text>
</a>
</g>
</g>
<!-- Node7&#45;&gt;Node6 -->
<g id="edge7" class="edge"><title>Node7&#45;&gt;Node6</title>
<path fill="none" stroke="midnightblue" d="M670,-1202.11C670,-1189.7 670,-1177.08 670,-1164.6"/>
<polygon fill="none" stroke="midnightblue" points="666.5,-1202.48 670,-1212.48 673.5,-1202.48 666.5,-1202.48"/>
</g>
<!-- Node8 -->
<g id="node8" class="node"><title>Node8</title>
<polygon fill="white" stroke="#bfbfbf" points="766.5,-992 766.5,-1071 867.5,-1071 867.5,-992 766.5,-992"/>
<text text-anchor="start" x="774.5" y="-1059" font-family="FreeSans" font-size="10.00">std::map&lt; wxString,</text>
<text text-anchor="middle" x="817" y="-1048" font-family="FreeSans" font-size="10.00"> wxArrayString &gt;</text>
<polyline fill="none" stroke="#bfbfbf" points="766.5,-1041 867.5,-1041 "/>
<text text-anchor="start" x="774.5" y="-1029" font-family="FreeSans" font-size="10.00">+ keys</text>
<text text-anchor="start" x="774.5" y="-1018" font-family="FreeSans" font-size="10.00">+ elements</text>
<polyline fill="none" stroke="#bfbfbf" points="766.5,-1011 867.5,-1011 "/>
<text text-anchor="middle" x="817" y="-999" font-family="FreeSans" font-size="10.00"> </text>
</g>
<!-- Node8&#45;&gt;Node5 -->
<g id="edge8" class="edge"><title>Node8&#45;&gt;Node5</title>
<path fill="none" stroke="#404040" d="M817.347,-991.86C817.637,-959.566 818.072,-911.147 818.506,-862.806"/>
<polygon fill="none" stroke="#404040" points="818.509,-862.527 814.563,-856.491 818.617,-850.527 822.562,-856.563 818.509,-862.527"/>
<text text-anchor="middle" x="857.5" y="-872" font-family="FreeSans" font-size="10.00"> &#45;m_VirtualTargets</text>
</g>
<!-- Node9 -->
<g id="node9" class="node"><title>Node9</title>
<polygon fill="white" stroke="#bfbfbf" points="886,-997.5 886,-1065.5 996,-1065.5 996,-997.5 886,-997.5"/>
<text text-anchor="start" x="894" y="-1053.5" font-family="FreeSans" font-size="10.00">std::vector&lt; cbProject</text>
<text text-anchor="middle" x="941" y="-1042.5" font-family="FreeSans" font-size="10.00">::Glob &gt;</text>
<polyline fill="none" stroke="#bfbfbf" points="886,-1035.5 996,-1035.5 "/>
<text text-anchor="middle" x="941" y="-1023.5" font-family="FreeSans" font-size="10.00"> </text>
<polyline fill="none" stroke="#bfbfbf" points="886,-1016.5 996,-1016.5 "/>
<text text-anchor="middle" x="941" y="-1004.5" font-family="FreeSans" font-size="10.00"> </text>
</g>
<!-- Node9&#45;&gt;Node5 -->
<g id="edge9" class="edge"><title>Node9&#45;&gt;Node5</title>
<path fill="none" stroke="#404040" d="M934.8,-997.466C928.14,-964.428 916.403,-912.421 901,-869 900.157,-866.625 899.293,-864.238 898.41,-861.843"/>
<polygon fill="none" stroke="#404040" points="898.394,-861.802 892.526,-857.61 894.139,-850.582 900.007,-854.774 898.394,-861.802"/>
<text text-anchor="middle" x="925" y="-872" font-family="FreeSans" font-size="10.00"> &#45;m_Globs</text>
</g>
<!-- Node10 -->
<g id="node10" class="node"><title>Node10</title>
<g id="a_node10"><a xlink:href="structcbProject_1_1Glob.xhtml" target="_top" xlink:title="{cbProject::Glob\n|+ m_Path\l+ m_WildCard\l+ m_Recursive\l|+ Glob()\l}">
<polygon fill="white" stroke="black" points="899.5,-1289.5 899.5,-1368.5 982.5,-1368.5 982.5,-1289.5 899.5,-1289.5"/>
<text text-anchor="middle" x="941" y="-1356.5" font-family="FreeSans" font-size="10.00">cbProject::Glob</text>
<polyline fill="none" stroke="black" points="899.5,-1349.5 982.5,-1349.5 "/>
<text text-anchor="start" x="907.5" y="-1337.5" font-family="FreeSans" font-size="10.00">+ m_Path</text>
<text text-anchor="start" x="907.5" y="-1326.5" font-family="FreeSans" font-size="10.00">+ m_WildCard</text>
<text text-anchor="start" x="907.5" y="-1315.5" font-family="FreeSans" font-size="10.00">+ m_Recursive</text>
<polyline fill="none" stroke="black" points="899.5,-1308.5 982.5,-1308.5 "/>
<text text-anchor="start" x="907.5" y="-1296.5" font-family="FreeSans" font-size="10.00">+ Glob()</text>
</a>
</g>
</g>
<!-- Node10&#45;&gt;Node9 -->
<g id="edge10" class="edge"><title>Node10&#45;&gt;Node9</title>
<path fill="none" stroke="#404040" d="M941,-1289.37C941,-1234.86 941,-1135.58 941,-1077.71"/>
<polygon fill="none" stroke="#404040" points="941,-1077.67 937,-1071.67 941,-1065.67 945,-1071.67 941,-1077.67"/>
<text text-anchor="middle" x="965" y="-1186" font-family="FreeSans" font-size="10.00"> +elements</text>
</g>
<!-- Node11&#45;&gt;Node5 -->
<g id="edge11" class="edge"><title>Node11&#45;&gt;Node5</title>
<path fill="none" stroke="#404040" d="M868.322,-443.129C874.139,-468.877 876.875,-496.195 873,-522 872.688,-524.077 872.356,-526.163 872.006,-528.257"/>
<polygon fill="none" stroke="#404040" points="871.959,-528.514 874.815,-535.136 869.802,-540.319 866.945,-533.697 871.959,-528.514"/>
<text text-anchor="middle" x="938" y="-508.5" font-family="FreeSans" font-size="10.00"> &#45;m_CurrentlyCompilingTarget</text>
</g>
<!-- Node12&#45;&gt;Node1 -->
<g id="edge14" class="edge"><title>Node12&#45;&gt;Node1</title>
<path fill="none" stroke="#404040" d="M513.361,-589.824C500.744,-559.558 486.654,-525.761 472.895,-492.758"/>
<polygon fill="none" stroke="#404040" points="472.862,-492.679 466.861,-488.68 468.245,-481.603 474.245,-485.602 472.862,-492.679"/>
<text text-anchor="middle" x="522" y="-508.5" font-family="FreeSans" font-size="10.00"> &#45;m_RunningPlugin</text>
</g>
<!-- Node13 -->
<g id="node13" class="node"><title>Node13</title>
<g id="a_node13"><a xlink:href="classFilesGroupsAndMasks.xhtml" target="_top" xlink:title="{FilesGroupsAndMasks\n|&#45; m_Groups\l|+ FilesGroupsAndMasks()\l+ FilesGroupsAndMasks()\l+ ~FilesGroupsAndMasks()\l+ CopyFrom()\l+ SetDefault()\l+ Save()\l+ Clear()\l+ AddGroup()\land 7 more...\l&#45; Load()\l}">
<polygon fill="white" stroke="black" points="0,-617.5 0,-773.5 132,-773.5 132,-617.5 0,-617.5"/>
<text text-anchor="middle" x="66" y="-761.5" font-family="FreeSans" font-size="10.00">FilesGroupsAndMasks</text>
<polyline fill="none" stroke="black" points="0,-754.5 132,-754.5 "/>
<text text-anchor="start" x="8" y="-742.5" font-family="FreeSans" font-size="10.00">&#45; m_Groups</text>
<polyline fill="none" stroke="black" points="0,-735.5 132,-735.5 "/>
<text text-anchor="start" x="8" y="-723.5" font-family="FreeSans" font-size="10.00">+ FilesGroupsAndMasks()</text>
<text text-anchor="start" x="8" y="-712.5" font-family="FreeSans" font-size="10.00">+ FilesGroupsAndMasks()</text>
<text text-anchor="start" x="8" y="-701.5" font-family="FreeSans" font-size="10.00">+ ~FilesGroupsAndMasks()</text>
<text text-anchor="start" x="8" y="-690.5" font-family="FreeSans" font-size="10.00">+ CopyFrom()</text>
<text text-anchor="start" x="8" y="-679.5" font-family="FreeSans" font-size="10.00">+ SetDefault()</text>
<text text-anchor="start" x="8" y="-668.5" font-family="FreeSans" font-size="10.00">+ Save()</text>
<text text-anchor="start" x="8" y="-657.5" font-family="FreeSans" font-size="10.00">+ Clear()</text>
<text text-anchor="start" x="8" y="-646.5" font-family="FreeSans" font-size="10.00">+ AddGroup()</text>
<text text-anchor="start" x="8" y="-635.5" font-family="FreeSans" font-size="10.00">and 7 more...</text>
<text text-anchor="start" x="8" y="-624.5" font-family="FreeSans" font-size="10.00">&#45; Load()</text>
</a>
</g>
</g>
<!-- Node13&#45;&gt;Node1 -->
<g id="edge16" class="edge"><title>Node13&#45;&gt;Node1</title>
<path fill="none" stroke="#404040" d="M95.4837,-617.125C107.411,-591.163 122.726,-562.991 141,-540 189.396,-479.109 258.151,-424.323 313.225,-385.634"/>
<polygon fill="none" stroke="#404040" points="313.489,-385.451 316.131,-378.741 323.341,-378.6 320.698,-385.309 313.489,-385.451"/>
<text text-anchor="middle" x="207.5" y="-508.5" font-family="FreeSans" font-size="10.00"> &#45;m_pFileGroups</text>
</g>
<!-- Node14 -->
<g id="node14" class="node"><title>Node14</title>
<g id="a_node14"><a xlink:href="classcbProjectManagerUI.xhtml" target="_top" xlink:title="{cbProjectManagerUI\n||+ ~cbProjectManagerUI()\l+ GetNotebook()\l+ GetTree()\l+ RebuildTree()\l+ FreezeTree()\l+ UnfreezeTree()\l+ GetTreeSelection()\l+ ShowFileInTree()\land 13 more...\l}">
<polygon fill="white" stroke="black" points="150.5,-623 150.5,-768 275.5,-768 275.5,-623 150.5,-623"/>
<text text-anchor="middle" x="213" y="-756" font-family="FreeSans" font-size="10.00">cbProjectManagerUI</text>
<polyline fill="none" stroke="black" points="150.5,-749 275.5,-749 "/>
<text text-anchor="middle" x="213" y="-737" font-family="FreeSans" font-size="10.00"> </text>
<polyline fill="none" stroke="black" points="150.5,-730 275.5,-730 "/>
<text text-anchor="start" x="158.5" y="-718" font-family="FreeSans" font-size="10.00">+ ~cbProjectManagerUI()</text>
<text text-anchor="start" x="158.5" y="-707" font-family="FreeSans" font-size="10.00">+ GetNotebook()</text>
<text text-anchor="start" x="158.5" y="-696" font-family="FreeSans" font-size="10.00">+ GetTree()</text>
<text text-anchor="start" x="158.5" y="-685" font-family="FreeSans" font-size="10.00">+ RebuildTree()</text>
<text text-anchor="start" x="158.5" y="-674" font-family="FreeSans" font-size="10.00">+ FreezeTree()</text>
<text text-anchor="start" x="158.5" y="-663" font-family="FreeSans" font-size="10.00">+ UnfreezeTree()</text>
<text text-anchor="start" x="158.5" y="-652" font-family="FreeSans" font-size="10.00">+ GetTreeSelection()</text>
<text text-anchor="start" x="158.5" y="-641" font-family="FreeSans" font-size="10.00">+ ShowFileInTree()</text>
<text text-anchor="start" x="158.5" y="-630" font-family="FreeSans" font-size="10.00">and 13 more...</text>
</a>
</g>
</g>
<!-- Node14&#45;&gt;Node1 -->
<g id="edge17" class="edge"><title>Node14&#45;&gt;Node1</title>
<path fill="none" stroke="#404040" d="M245.06,-622.816C257.156,-596.557 271.309,-566.735 285,-540 295.258,-519.97 306.394,-499.083 317.6,-478.562"/>
<polygon fill="none" stroke="#404040" points="317.693,-478.393 317.07,-471.209 323.462,-467.871 324.085,-475.055 317.693,-478.393"/>
<text text-anchor="middle" x="317.5" y="-508.5" font-family="FreeSans" font-size="10.00"> &#45;m_ui</text>
</g>
</g>
</svg>
