<?xml version="1.0" encoding="UTF-8" standalone="no"?>
<!DOCTYPE svg PUBLIC "-//W3C//DTD SVG 1.1//EN"
 "http://www.w3.org/Graphics/SVG/1.1/DTD/svg11.dtd">
<!-- Generated by graphviz version 2.38.0 (20140413.2041)
 -->
<!-- Title: DebuggerConfiguration Pages: 1 -->
<svg width="178pt" height="618pt"
 viewBox="0.00 0.00 178.00 618.00" xmlns="http://www.w3.org/2000/svg" xmlns:xlink="http://www.w3.org/1999/xlink">
<g id="graph0" class="graph" transform="scale(1 1) rotate(0) translate(4 614)">
<title>DebuggerConfiguration</title>
<polygon fill="white" stroke="none" points="-4,4 -4,-614 174,-614 174,4 -4,4"/>
<!-- Node1 -->
<g id="node1" class="node"><title>Node1</title>
<polygon fill="#bfbfbf" stroke="black" points="0,-0.5 0,-167.5 170,-167.5 170,-0.5 0,-0.5"/>
<text text-anchor="middle" x="85" y="-155.5" font-family="FreeSans" font-size="10.00">DebuggerConfiguration</text>
<polyline fill="none" stroke="black" points="0,-148.5 170,-148.5 "/>
<text text-anchor="middle" x="85" y="-136.5" font-family="FreeSans" font-size="10.00"> </text>
<polyline fill="none" stroke="black" points="0,-129.5 170,-129.5 "/>
<text text-anchor="start" x="8" y="-117.5" font-family="FreeSans" font-size="10.00">+ DebuggerConfiguration()</text>
<text text-anchor="start" x="8" y="-106.5" font-family="FreeSans" font-size="10.00">+ Clone()</text>
<text text-anchor="start" x="8" y="-95.5" font-family="FreeSans" font-size="10.00">+ MakePanel()</text>
<text text-anchor="start" x="8" y="-84.5" font-family="FreeSans" font-size="10.00">+ SaveChanges()</text>
<text text-anchor="start" x="8" y="-73.5" font-family="FreeSans" font-size="10.00">+ GetFlag()</text>
<text text-anchor="start" x="8" y="-62.5" font-family="FreeSans" font-size="10.00">+ SetFlag()</text>
<text text-anchor="start" x="8" y="-51.5" font-family="FreeSans" font-size="10.00">+ IsGDB()</text>
<text text-anchor="start" x="8" y="-40.5" font-family="FreeSans" font-size="10.00">+ GetDebuggerExecutable()</text>
<text text-anchor="start" x="8" y="-29.5" font-family="FreeSans" font-size="10.00">+ GetUserArguments()</text>
<text text-anchor="start" x="8" y="-18.5" font-family="FreeSans" font-size="10.00">+ GetDisassemblyFlavorCommand()</text>
<text text-anchor="start" x="8" y="-7.5" font-family="FreeSans" font-size="10.00">+ GetInitCommands()</text>
</g>
<!-- Node2 -->
<g id="node2" class="node"><title>Node2</title>
<g id="a_node2"><a xlink:href="classcbDebuggerConfiguration" target="_top" xlink:title="{cbDebuggerConfiguration\n|&#45; m_name\l&#45; m_menuId\l|+ cbDebuggerConfiguration()\l+ ~cbDebuggerConfiguration()\l+ Clone()\l+ MakePanel()\l+ SaveChanges()\l+ SetName()\l+ GetName()\l+ GetConfig()\l+ SetConfig()\l+ SetMenuId()\l+ GetMenuId()\l# cbDebuggerConfiguration()\l# operator=()\l}">
<polygon fill="white" stroke="black" points="13,-205.5 13,-405.5 157,-405.5 157,-205.5 13,-205.5"/>
<text text-anchor="middle" x="85" y="-393.5" font-family="FreeSans" font-size="10.00">cbDebuggerConfiguration</text>
<polyline fill="none" stroke="black" points="13,-386.5 157,-386.5 "/>
<text text-anchor="start" x="21" y="-374.5" font-family="FreeSans" font-size="10.00">&#45; m_name</text>
<text text-anchor="start" x="21" y="-363.5" font-family="FreeSans" font-size="10.00">&#45; m_menuId</text>
<polyline fill="none" stroke="black" points="13,-356.5 157,-356.5 "/>
<text text-anchor="start" x="21" y="-344.5" font-family="FreeSans" font-size="10.00">+ cbDebuggerConfiguration()</text>
<text text-anchor="start" x="21" y="-333.5" font-family="FreeSans" font-size="10.00">+ ~cbDebuggerConfiguration()</text>
<text text-anchor="start" x="21" y="-322.5" font-family="FreeSans" font-size="10.00">+ Clone()</text>
<text text-anchor="start" x="21" y="-311.5" font-family="FreeSans" font-size="10.00">+ MakePanel()</text>
<text text-anchor="start" x="21" y="-300.5" font-family="FreeSans" font-size="10.00">+ SaveChanges()</text>
<text text-anchor="start" x="21" y="-289.5" font-family="FreeSans" font-size="10.00">+ SetName()</text>
<text text-anchor="start" x="21" y="-278.5" font-family="FreeSans" font-size="10.00">+ GetName()</text>
<text text-anchor="start" x="21" y="-267.5" font-family="FreeSans" font-size="10.00">+ GetConfig()</text>
<text text-anchor="start" x="21" y="-256.5" font-family="FreeSans" font-size="10.00">+ SetConfig()</text>
<text text-anchor="start" x="21" y="-245.5" font-family="FreeSans" font-size="10.00">+ SetMenuId()</text>
<text text-anchor="start" x="21" y="-234.5" font-family="FreeSans" font-size="10.00">+ GetMenuId()</text>
<text text-anchor="start" x="21" y="-223.5" font-family="FreeSans" font-size="10.00"># cbDebuggerConfiguration()</text>
<text text-anchor="start" x="21" y="-212.5" font-family="FreeSans" font-size="10.00"># operator=()</text>
</a>
</g>
</g>
<!-- Node2&#45;&gt;Node1 -->
<g id="edge1" class="edge"><title>Node2&#45;&gt;Node1</title>
<path fill="none" stroke="midnightblue" d="M85,-195.269C85,-185.97 85,-176.665 85,-167.623"/>
<polygon fill="none" stroke="midnightblue" points="81.5001,-195.346 85,-205.346 88.5001,-195.346 81.5001,-195.346"/>
</g>
<!-- Node3 -->
<g id="node3" class="node"><title>Node3</title>
<g id="a_node3"><a xlink:href="classConfigManagerWrapper" target="_top" xlink:title="Wrapper class for reading or writing config values, without the need for the full path...">
<polygon fill="white" stroke="black" points="19.5,-453.5 19.5,-609.5 150.5,-609.5 150.5,-453.5 19.5,-453.5"/>
<text text-anchor="middle" x="85" y="-597.5" font-family="FreeSans" font-size="10.00">ConfigManagerWrapper</text>
<polyline fill="none" stroke="black" points="19.5,-590.5 150.5,-590.5 "/>
<text text-anchor="start" x="27.5" y="-578.5" font-family="FreeSans" font-size="10.00">&#45; m_namespace</text>
<text text-anchor="start" x="27.5" y="-567.5" font-family="FreeSans" font-size="10.00">&#45; m_basepath</text>
<polyline fill="none" stroke="black" points="19.5,-560.5 150.5,-560.5 "/>
<text text-anchor="start" x="27.5" y="-548.5" font-family="FreeSans" font-size="10.00">+ ConfigManagerWrapper()</text>
<text text-anchor="start" x="27.5" y="-537.5" font-family="FreeSans" font-size="10.00">+ ConfigManagerWrapper()</text>
<text text-anchor="start" x="27.5" y="-526.5" font-family="FreeSans" font-size="10.00">+ IsValid()</text>
<text text-anchor="start" x="27.5" y="-515.5" font-family="FreeSans" font-size="10.00">+ GetBasepath()</text>
<text text-anchor="start" x="27.5" y="-504.5" font-family="FreeSans" font-size="10.00">+ Write()</text>
<text text-anchor="start" x="27.5" y="-493.5" font-family="FreeSans" font-size="10.00">+ Read()</text>
<text text-anchor="start" x="27.5" y="-482.5" font-family="FreeSans" font-size="10.00">+ Read()</text>
<text text-anchor="start" x="27.5" y="-471.5" font-family="FreeSans" font-size="10.00">+ Write()</text>
<text text-anchor="start" x="27.5" y="-460.5" font-family="FreeSans" font-size="10.00">and 9 more...</text>
</a>
</g>
</g>
<!-- Node3&#45;&gt;Node2 -->
<g id="edge2" class="edge"><title>Node3&#45;&gt;Node2</title>
<path fill="none" stroke="#404040" d="M85,-453.412C85,-442.047 85,-430.149 85,-418.255"/>
<polygon fill="none" stroke="#404040" points="85.0001,-417.883 81,-411.883 85,-405.883 89,-411.883 85.0001,-417.883"/>
<text text-anchor="middle" x="108.5" y="-427" font-family="FreeSans" font-size="10.00"> #m_config</text>
</g>
</g>
</svg>
