<?xml version="1.0" encoding="UTF-8" standalone="no"?>
<!DOCTYPE svg PUBLIC "-//W3C//DTD SVG 1.1//EN"
 "http://www.w3.org/Graphics/SVG/1.1/DTD/svg11.dtd">
<!-- Generated by graphviz version 2.40.1 (20161225.0304)
 -->
<!-- Title: cbProject Pages: 1 -->
<svg width="907pt" height="1630pt"
 viewBox="0.00 0.00 906.50 1630.00" xmlns="http://www.w3.org/2000/svg" xmlns:xlink="http://www.w3.org/1999/xlink">
<g id="graph0" class="graph" transform="scale(1 1) rotate(0) translate(4 1626)">
<title>cbProject</title>
<!-- Node3 -->
<g id="node1" class="node">
<title>Node3</title>
<polygon fill="#bfbfbf" stroke="#000000" points="290,-259.5 290,-613.5 471,-613.5 471,-259.5 290,-259.5"/>
<text text-anchor="middle" x="380.5" y="-601.5" font-family="FreeSans" font-size="10.00" fill="#000000">cbProject</text>
<polyline fill="none" stroke="#000000" points="290,-594.5 471,-594.5 "/>
<text text-anchor="start" x="298" y="-582.5" font-family="FreeSans" font-size="10.00" fill="#000000">&#45; m_Targets</text>
<text text-anchor="start" x="298" y="-571.5" font-family="FreeSans" font-size="10.00" fill="#000000">&#45; m_CustomMakefile</text>
<text text-anchor="start" x="298" y="-560.5" font-family="FreeSans" font-size="10.00" fill="#000000">&#45; m_Files</text>
<text text-anchor="start" x="298" y="-549.5" font-family="FreeSans" font-size="10.00" fill="#000000">&#45; m_FileArray</text>
<text text-anchor="start" x="298" y="-538.5" font-family="FreeSans" font-size="10.00" fill="#000000">&#45; m_Loaded</text>
<text text-anchor="start" x="298" y="-527.5" font-family="FreeSans" font-size="10.00" fill="#000000">&#45; m_CurrentlyLoading</text>
<text text-anchor="start" x="298" y="-516.5" font-family="FreeSans" font-size="10.00" fill="#000000">&#45; m_PCHMode</text>
<text text-anchor="start" x="298" y="-505.5" font-family="FreeSans" font-size="10.00" fill="#000000">&#45; m_ProjectFilesMap</text>
<text text-anchor="start" x="298" y="-494.5" font-family="FreeSans" font-size="10.00" fill="#000000">&#45; m_ExtendedObjectNamesGeneration</text>
<text text-anchor="start" x="298" y="-483.5" font-family="FreeSans" font-size="10.00" fill="#000000">&#45; m_AutoShowNotesOnLoad</text>
<text text-anchor="start" x="298" y="-472.5" font-family="FreeSans" font-size="10.00" fill="#000000">&#45; m_CheckForExternallyModified</text>
<text text-anchor="start" x="298" y="-461.5" font-family="FreeSans" font-size="10.00" fill="#000000">Files</text>
<text text-anchor="start" x="298" y="-450.5" font-family="FreeSans" font-size="10.00" fill="#000000">&#45; m_pExtensionsElement</text>
<polyline fill="none" stroke="#000000" points="290,-443.5 471,-443.5 "/>
<text text-anchor="start" x="298" y="-431.5" font-family="FreeSans" font-size="10.00" fill="#000000">+ cbProject()</text>
<text text-anchor="start" x="298" y="-420.5" font-family="FreeSans" font-size="10.00" fill="#000000">+ ~cbProject()</text>
<text text-anchor="start" x="298" y="-409.5" font-family="FreeSans" font-size="10.00" fill="#000000">+ IsLoaded()</text>
<text text-anchor="start" x="298" y="-398.5" font-family="FreeSans" font-size="10.00" fill="#000000">+ ClearAllProperties()</text>
<text text-anchor="start" x="298" y="-387.5" font-family="FreeSans" font-size="10.00" fill="#000000">+ CalculateCommonTopLevelPath()</text>
<text text-anchor="start" x="298" y="-376.5" font-family="FreeSans" font-size="10.00" fill="#000000">+ GetCommonTopLevelPath()</text>
<text text-anchor="start" x="298" y="-365.5" font-family="FreeSans" font-size="10.00" fill="#000000">+ GetModified()</text>
<text text-anchor="start" x="298" y="-354.5" font-family="FreeSans" font-size="10.00" fill="#000000">+ SetModified()</text>
<text text-anchor="start" x="298" y="-343.5" font-family="FreeSans" font-size="10.00" fill="#000000">and 85 more...</text>
<text text-anchor="start" x="298" y="-332.5" font-family="FreeSans" font-size="10.00" fill="#000000">&#45; Open()</text>
<text text-anchor="start" x="298" y="-321.5" font-family="FreeSans" font-size="10.00" fill="#000000">&#45; ExpandVirtualBuildTarget</text>
<text text-anchor="start" x="298" y="-310.5" font-family="FreeSans" font-size="10.00" fill="#000000">Group()</text>
<text text-anchor="start" x="298" y="-299.5" font-family="FreeSans" font-size="10.00" fill="#000000">&#45; AddDefaultBuildTarget()</text>
<text text-anchor="start" x="298" y="-288.5" font-family="FreeSans" font-size="10.00" fill="#000000">&#45; IndexOfBuildTargetName()</text>
<text text-anchor="start" x="298" y="-277.5" font-family="FreeSans" font-size="10.00" fill="#000000">&#45; CreateUniqueFilename()</text>
<text text-anchor="start" x="298" y="-266.5" font-family="FreeSans" font-size="10.00" fill="#000000">&#45; NotifyPlugins()</text>
</g>
<!-- Node12 -->
<g id="node10" class="node">
<title>Node12</title>
<g id="a_node10"><a xlink:href="classProjectBuildTarget" target="_top" xlink:title="Represents a Code::Blocks project build target. ">
<polygon fill="none" stroke="#000000" points="310,-.5 310,-211.5 449,-211.5 449,-.5 310,-.5"/>
<text text-anchor="middle" x="379.5" y="-199.5" font-family="FreeSans" font-size="10.00" fill="#000000">ProjectBuildTarget</text>
<polyline fill="none" stroke="#000000" points="310,-192.5 449,-192.5 "/>
<text text-anchor="start" x="318" y="-180.5" font-family="FreeSans" font-size="10.00" fill="#000000">&#45; m_TargetDeps</text>
<text text-anchor="start" x="318" y="-169.5" font-family="FreeSans" font-size="10.00" fill="#000000">&#45; m_Files</text>
<text text-anchor="start" x="318" y="-158.5" font-family="FreeSans" font-size="10.00" fill="#000000">&#45; m_FileArray</text>
<text text-anchor="start" x="318" y="-147.5" font-family="FreeSans" font-size="10.00" fill="#000000">&#45; m_BuildWithAll</text>
<text text-anchor="start" x="318" y="-136.5" font-family="FreeSans" font-size="10.00" fill="#000000">&#45; m_CreateStaticLib</text>
<text text-anchor="start" x="318" y="-125.5" font-family="FreeSans" font-size="10.00" fill="#000000">&#45; m_CreateDefFile</text>
<text text-anchor="start" x="318" y="-114.5" font-family="FreeSans" font-size="10.00" fill="#000000">&#45; m_UseConsoleRunner</text>
<polyline fill="none" stroke="#000000" points="310,-107.5 449,-107.5 "/>
<text text-anchor="start" x="318" y="-95.5" font-family="FreeSans" font-size="10.00" fill="#000000">+ ProjectBuildTarget()</text>
<text text-anchor="start" x="318" y="-84.5" font-family="FreeSans" font-size="10.00" fill="#000000">+ ~ProjectBuildTarget()</text>
<text text-anchor="start" x="318" y="-73.5" font-family="FreeSans" font-size="10.00" fill="#000000">+ GetParentProject()</text>
<text text-anchor="start" x="318" y="-62.5" font-family="FreeSans" font-size="10.00" fill="#000000">+ GetFullTitle()</text>
<text text-anchor="start" x="318" y="-51.5" font-family="FreeSans" font-size="10.00" fill="#000000">+ GetExternalDeps()</text>
<text text-anchor="start" x="318" y="-40.5" font-family="FreeSans" font-size="10.00" fill="#000000">+ SetExternalDeps()</text>
<text text-anchor="start" x="318" y="-29.5" font-family="FreeSans" font-size="10.00" fill="#000000">+ GetAdditionalOutputFiles()</text>
<text text-anchor="start" x="318" y="-18.5" font-family="FreeSans" font-size="10.00" fill="#000000">+ SetAdditionalOutputFiles()</text>
<text text-anchor="start" x="318" y="-7.5" font-family="FreeSans" font-size="10.00" fill="#000000">and 15 more...</text>
</a>
</g>
</g>
<!-- Node3&#45;&gt;Node12 -->
<g id="edge16" class="edge">
<title>Node3&#45;&gt;Node12</title>
<path fill="none" stroke="#404040" d="M338.156,-259.2417C338.2953,-249.3624 339.0313,-239.5649 340.5,-230 340.8323,-227.8356 341.1955,-225.6572 341.5867,-223.4688"/>
<polygon fill="none" stroke="#404040" points="341.5875,-223.4645 338.8357,-216.7991 343.9299,-211.6953 346.6818,-218.3607 341.5875,-223.4645"/>
<text text-anchor="middle" x="365.5" y="-233" font-family="FreeSans" font-size="10.00" fill="#000000"> &#45;m_Project</text>
</g>
<!-- Node4 -->
<g id="node2" class="node">
<title>Node4</title>
<g id="a_node2"><a xlink:href="classCompileTargetBase" target="_top" xlink:title="Base class for build target classes Each Code::Blocks project consists of at least one target...">
<polygon fill="none" stroke="#000000" points="10.5,-661.5 10.5,-916.5 178.5,-916.5 178.5,-661.5 10.5,-661.5"/>
<text text-anchor="middle" x="94.5" y="-904.5" font-family="FreeSans" font-size="10.00" fill="#000000">CompileTargetBase</text>
<polyline fill="none" stroke="#000000" points="10.5,-897.5 178.5,-897.5 "/>
<text text-anchor="start" x="18.5" y="-885.5" font-family="FreeSans" font-size="10.00" fill="#000000"># m_Title</text>
<text text-anchor="start" x="18.5" y="-874.5" font-family="FreeSans" font-size="10.00" fill="#000000"># m_OutputFilename</text>
<text text-anchor="start" x="18.5" y="-863.5" font-family="FreeSans" font-size="10.00" fill="#000000"># m_OptionsRelation</text>
<text text-anchor="start" x="18.5" y="-852.5" font-family="FreeSans" font-size="10.00" fill="#000000"># m_TargetType</text>
<text text-anchor="start" x="18.5" y="-841.5" font-family="FreeSans" font-size="10.00" fill="#000000"># m_MakeCommandsModified</text>
<text text-anchor="start" x="18.5" y="-830.5" font-family="FreeSans" font-size="10.00" fill="#000000"># m_RunHostApplicationInTerminal</text>
<text text-anchor="start" x="18.5" y="-819.5" font-family="FreeSans" font-size="10.00" fill="#000000"># m_PrefixGenerationPolicy</text>
<text text-anchor="start" x="18.5" y="-808.5" font-family="FreeSans" font-size="10.00" fill="#000000"># m_ExtensionGenerationPolicy</text>
<polyline fill="none" stroke="#000000" points="10.5,-801.5 178.5,-801.5 "/>
<text text-anchor="start" x="18.5" y="-789.5" font-family="FreeSans" font-size="10.00" fill="#000000">+ CompileTargetBase()</text>
<text text-anchor="start" x="18.5" y="-778.5" font-family="FreeSans" font-size="10.00" fill="#000000">+ ~CompileTargetBase()</text>
<text text-anchor="start" x="18.5" y="-767.5" font-family="FreeSans" font-size="10.00" fill="#000000">+ SetTargetFilenameGeneration</text>
<text text-anchor="start" x="18.5" y="-756.5" font-family="FreeSans" font-size="10.00" fill="#000000">Policy()</text>
<text text-anchor="start" x="18.5" y="-745.5" font-family="FreeSans" font-size="10.00" fill="#000000">+ GetTargetFilenameGeneration</text>
<text text-anchor="start" x="18.5" y="-734.5" font-family="FreeSans" font-size="10.00" fill="#000000">Policy()</text>
<text text-anchor="start" x="18.5" y="-723.5" font-family="FreeSans" font-size="10.00" fill="#000000">+ GetFilename()</text>
<text text-anchor="start" x="18.5" y="-712.5" font-family="FreeSans" font-size="10.00" fill="#000000">+ GetTitle()</text>
<text text-anchor="start" x="18.5" y="-701.5" font-family="FreeSans" font-size="10.00" fill="#000000">+ SetTitle()</text>
<text text-anchor="start" x="18.5" y="-690.5" font-family="FreeSans" font-size="10.00" fill="#000000">+ SetOutputFilename()</text>
<text text-anchor="start" x="18.5" y="-679.5" font-family="FreeSans" font-size="10.00" fill="#000000">and 32 more...</text>
<text text-anchor="start" x="18.5" y="-668.5" font-family="FreeSans" font-size="10.00" fill="#000000">&#45; GenerateTargetFilename()</text>
</a>
</g>
</g>
<!-- Node4&#45;&gt;Node3 -->
<g id="edge1" class="edge">
<title>Node4&#45;&gt;Node3</title>
<path fill="none" stroke="#191970" d="M176.8944,-652.9686C182.0295,-645.7744 187.2479,-638.7402 192.5,-632 221.8766,-594.2996 257.512,-555.7618 289.8252,-522.9773"/>
<polygon fill="none" stroke="#191970" points="173.7983,-651.2866 170.9074,-661.4795 179.5237,-655.3141 173.7983,-651.2866"/>
</g>
<!-- Node4&#45;&gt;Node12 -->
<g id="edge15" class="edge">
<title>Node4&#45;&gt;Node12</title>
<path fill="none" stroke="#191970" d="M132.904,-651.6243C165.7256,-542.4598 217.5688,-387.3355 280.5,-259 289.1364,-241.3878 299.3963,-223.3324 309.9869,-206.0814"/>
<polygon fill="none" stroke="#191970" points="129.4982,-650.7971 129.9844,-661.3808 136.2044,-652.8039 129.4982,-650.7971"/>
</g>
<!-- Node5 -->
<g id="node3" class="node">
<title>Node5</title>
<g id="a_node3"><a xlink:href="classCompileOptionsBase" target="_top" xlink:title="This is a base class for all classes needing compilation parameters. ">
<polygon fill="none" stroke="#000000" points="0,-1041.5 0,-1219.5 137,-1219.5 137,-1041.5 0,-1041.5"/>
<text text-anchor="middle" x="68.5" y="-1207.5" font-family="FreeSans" font-size="10.00" fill="#000000">CompileOptionsBase</text>
<polyline fill="none" stroke="#000000" points="0,-1200.5 137,-1200.5 "/>
<text text-anchor="start" x="8" y="-1188.5" font-family="FreeSans" font-size="10.00" fill="#000000"># m_Platform</text>
<text text-anchor="start" x="8" y="-1177.5" font-family="FreeSans" font-size="10.00" fill="#000000"># m_Modified</text>
<text text-anchor="start" x="8" y="-1166.5" font-family="FreeSans" font-size="10.00" fill="#000000"># m_AlwaysRunPostCmds</text>
<text text-anchor="start" x="8" y="-1155.5" font-family="FreeSans" font-size="10.00" fill="#000000"># m_Vars</text>
<polyline fill="none" stroke="#000000" points="0,-1148.5 137,-1148.5 "/>
<text text-anchor="start" x="8" y="-1136.5" font-family="FreeSans" font-size="10.00" fill="#000000">+ CompileOptionsBase()</text>
<text text-anchor="start" x="8" y="-1125.5" font-family="FreeSans" font-size="10.00" fill="#000000">+ ~CompileOptionsBase()</text>
<text text-anchor="start" x="8" y="-1114.5" font-family="FreeSans" font-size="10.00" fill="#000000">+ AddPlatform()</text>
<text text-anchor="start" x="8" y="-1103.5" font-family="FreeSans" font-size="10.00" fill="#000000">+ RemovePlatform()</text>
<text text-anchor="start" x="8" y="-1092.5" font-family="FreeSans" font-size="10.00" fill="#000000">+ SetPlatforms()</text>
<text text-anchor="start" x="8" y="-1081.5" font-family="FreeSans" font-size="10.00" fill="#000000">+ GetPlatforms()</text>
<text text-anchor="start" x="8" y="-1070.5" font-family="FreeSans" font-size="10.00" fill="#000000">+ SupportsCurrentPlatform()</text>
<text text-anchor="start" x="8" y="-1059.5" font-family="FreeSans" font-size="10.00" fill="#000000">+ SetLinkerOptions()</text>
<text text-anchor="start" x="8" y="-1048.5" font-family="FreeSans" font-size="10.00" fill="#000000">and 56 more...</text>
</a>
</g>
</g>
<!-- Node5&#45;&gt;Node4 -->
<g id="edge2" class="edge">
<title>Node5&#45;&gt;Node4</title>
<path fill="none" stroke="#191970" d="M76.0903,-1030.8044C78.8082,-995.1056 81.9101,-954.3635 84.7831,-916.6282"/>
<polygon fill="none" stroke="#191970" points="72.5666,-1030.9841 75.2972,-1041.221 79.5464,-1031.5155 72.5666,-1030.9841"/>
</g>
<!-- Node6 -->
<g id="node4" class="node">
<title>Node6</title>
<g id="a_node4"><a doxygen="/media/alpha/Barracuda/cb_docs/src/wxTagFile.xml:http://docs.wxwidgets.org/3.0/" xlink:href="http://docs.wxwidgets.org/3.0/classwx_array_string.html" target="_top" xlink:title="{wxArrayString\n||+ wxArrayString()\l+ wxArrayString()\l+ wxArrayString()\l+ ~wxArrayString()\l+ Add()\l+ Alloc()\l+ Clear()\l+ Empty()\land 19 more...\l}">
<polygon fill="none" stroke="#000000" points="159,-1427 159,-1572 254,-1572 254,-1427 159,-1427"/>
<text text-anchor="middle" x="206.5" y="-1560" font-family="FreeSans" font-size="10.00" fill="#000000">wxArrayString</text>
<polyline fill="none" stroke="#000000" points="159,-1553 254,-1553 "/>
<text text-anchor="middle" x="206.5" y="-1541" font-family="FreeSans" font-size="10.00" fill="#000000"> </text>
<polyline fill="none" stroke="#000000" points="159,-1534 254,-1534 "/>
<text text-anchor="start" x="167" y="-1522" font-family="FreeSans" font-size="10.00" fill="#000000">+ wxArrayString()</text>
<text text-anchor="start" x="167" y="-1511" font-family="FreeSans" font-size="10.00" fill="#000000">+ wxArrayString()</text>
<text text-anchor="start" x="167" y="-1500" font-family="FreeSans" font-size="10.00" fill="#000000">+ wxArrayString()</text>
<text text-anchor="start" x="167" y="-1489" font-family="FreeSans" font-size="10.00" fill="#000000">+ ~wxArrayString()</text>
<text text-anchor="start" x="167" y="-1478" font-family="FreeSans" font-size="10.00" fill="#000000">+ Add()</text>
<text text-anchor="start" x="167" y="-1467" font-family="FreeSans" font-size="10.00" fill="#000000">+ Alloc()</text>
<text text-anchor="start" x="167" y="-1456" font-family="FreeSans" font-size="10.00" fill="#000000">+ Clear()</text>
<text text-anchor="start" x="167" y="-1445" font-family="FreeSans" font-size="10.00" fill="#000000">+ Empty()</text>
<text text-anchor="start" x="167" y="-1434" font-family="FreeSans" font-size="10.00" fill="#000000">and 19 more...</text>
</a>
</g>
</g>
<!-- Node6&#45;&gt;Node3 -->
<g id="edge5" class="edge">
<title>Node6&#45;&gt;Node3</title>
<path fill="none" stroke="#404040" d="M202.8498,-1426.9294C194.811,-1250.3032 179.7305,-802.1986 225.5,-661 238.0405,-622.3126 259.6068,-584.3206 282.7331,-550.9101"/>
<polygon fill="none" stroke="#404040" points="283.0275,-550.4933 283.2229,-543.2849 289.952,-540.6927 289.7566,-547.9012 283.0275,-550.4933"/>
<text text-anchor="middle" x="240.5" y="-987.5" font-family="FreeSans" font-size="10.00" fill="#000000"> &#45;m_ExpandedNodes</text>
<text text-anchor="middle" x="240.5" y="-976.5" font-family="FreeSans" font-size="10.00" fill="#000000">&#45;m_SelectedNodes</text>
<text text-anchor="middle" x="240.5" y="-965.5" font-family="FreeSans" font-size="10.00" fill="#000000">&#45;m_VirtualFolders</text>
</g>
<!-- Node6&#45;&gt;Node5 -->
<g id="edge3" class="edge">
<title>Node6&#45;&gt;Node5</title>
<path fill="none" stroke="#404040" d="M158.8254,-1469.043C124.6017,-1444.1252 81.1832,-1405.4801 61.5,-1359 44.7726,-1319.4998 43.4173,-1272.6238 47.4357,-1231.6407"/>
<polygon fill="none" stroke="#404040" points="47.4385,-1231.6146 44.1306,-1225.207 48.7731,-1219.6891 52.081,-1226.0967 47.4385,-1231.6146"/>
<text text-anchor="middle" x="127" y="-1351" font-family="FreeSans" font-size="10.00" fill="#000000"> #m_LibDirs</text>
<text text-anchor="middle" x="127" y="-1340" font-family="FreeSans" font-size="10.00" fill="#000000">#m_CompilerOptions</text>
<text text-anchor="middle" x="127" y="-1329" font-family="FreeSans" font-size="10.00" fill="#000000">#m_IncludeDirs</text>
<text text-anchor="middle" x="127" y="-1318" font-family="FreeSans" font-size="10.00" fill="#000000">#m_LinkLibs</text>
<text text-anchor="middle" x="127" y="-1307" font-family="FreeSans" font-size="10.00" fill="#000000">#m_CmdsAfter</text>
<text text-anchor="middle" x="127" y="-1296" font-family="FreeSans" font-size="10.00" fill="#000000">#m_ResourceCompilerOptions</text>
<text text-anchor="middle" x="127" y="-1285" font-family="FreeSans" font-size="10.00" fill="#000000">#m_ResIncludeDirs</text>
<text text-anchor="middle" x="127" y="-1274" font-family="FreeSans" font-size="10.00" fill="#000000">#m_Scripts</text>
<text text-anchor="middle" x="127" y="-1263" font-family="FreeSans" font-size="10.00" fill="#000000">#m_CmdsBefore</text>
<text text-anchor="middle" x="127" y="-1252" font-family="FreeSans" font-size="10.00" fill="#000000">#m_LinkerOptions</text>
<text text-anchor="middle" x="127" y="-1241" font-family="FreeSans" font-size="10.00" fill="#000000">...</text>
</g>
<!-- Node8 -->
<g id="node6" class="node">
<title>Node8</title>
<polygon fill="none" stroke="#bfbfbf" points="443,-1096.5 443,-1164.5 544,-1164.5 544,-1096.5 443,-1096.5"/>
<text text-anchor="start" x="451" y="-1152.5" font-family="FreeSans" font-size="10.00" fill="#000000">std::map&lt; wxString,</text>
<text text-anchor="middle" x="493.5" y="-1141.5" font-family="FreeSans" font-size="10.00" fill="#000000"> wxArrayString &gt;</text>
<polyline fill="none" stroke="#bfbfbf" points="443,-1134.5 544,-1134.5 "/>
<text text-anchor="middle" x="493.5" y="-1122.5" font-family="FreeSans" font-size="10.00" fill="#000000"> </text>
<polyline fill="none" stroke="#bfbfbf" points="443,-1115.5 544,-1115.5 "/>
<text text-anchor="middle" x="493.5" y="-1103.5" font-family="FreeSans" font-size="10.00" fill="#000000"> </text>
</g>
<!-- Node6&#45;&gt;Node8 -->
<g id="edge7" class="edge">
<title>Node6&#45;&gt;Node8</title>
<path fill="none" stroke="#404040" d="M254.0175,-1441.1876C299.4825,-1385.0418 369.6456,-1297.4696 428.5,-1220 439.6378,-1205.3394 451.55,-1189.1068 462.0943,-1174.5358"/>
<polygon fill="none" stroke="#404040" points="462.1299,-1174.4864 462.3954,-1167.2801 469.1494,-1164.7535 468.8839,-1171.9597 462.1299,-1174.4864"/>
<text text-anchor="middle" x="435.5" y="-1296" font-family="FreeSans" font-size="10.00" fill="#000000"> +elements</text>
</g>
<!-- Node7 -->
<g id="node5" class="node">
<title>Node7</title>
<g id="a_node5"><a doxygen="/media/alpha/Barracuda/cb_docs/src/wxTagFile.xml:http://docs.wxwidgets.org/3.0/" xlink:href="http://docs.wxwidgets.org/3.0/classwx_string.html" target="_top" xlink:title="{wxString\n|+ npos\l|+ wxString()\l+ wxString()\l+ wxString()\l+ wxString()\l+ wxString()\l+ wxString()\l+ wxString()\l+ wxString()\land 222 more...\l+ Format()\l+ FormatV()\l+ FromCDouble()\l+ FromDouble()\l+ From8BitData()\l+ From8BitData()\l+ FromAscii()\l+ FromAscii()\land 7 more...\l}">
<polygon fill="none" stroke="#000000" points="538,-1377.5 538,-1621.5 629,-1621.5 629,-1377.5 538,-1377.5"/>
<text text-anchor="middle" x="583.5" y="-1609.5" font-family="FreeSans" font-size="10.00" fill="#000000">wxString</text>
<polyline fill="none" stroke="#000000" points="538,-1602.5 629,-1602.5 "/>
<text text-anchor="start" x="546" y="-1590.5" font-family="FreeSans" font-size="10.00" fill="#000000">+ npos</text>
<polyline fill="none" stroke="#000000" points="538,-1583.5 629,-1583.5 "/>
<text text-anchor="start" x="546" y="-1571.5" font-family="FreeSans" font-size="10.00" fill="#000000">+ wxString()</text>
<text text-anchor="start" x="546" y="-1560.5" font-family="FreeSans" font-size="10.00" fill="#000000">+ wxString()</text>
<text text-anchor="start" x="546" y="-1549.5" font-family="FreeSans" font-size="10.00" fill="#000000">+ wxString()</text>
<text text-anchor="start" x="546" y="-1538.5" font-family="FreeSans" font-size="10.00" fill="#000000">+ wxString()</text>
<text text-anchor="start" x="546" y="-1527.5" font-family="FreeSans" font-size="10.00" fill="#000000">+ wxString()</text>
<text text-anchor="start" x="546" y="-1516.5" font-family="FreeSans" font-size="10.00" fill="#000000">+ wxString()</text>
<text text-anchor="start" x="546" y="-1505.5" font-family="FreeSans" font-size="10.00" fill="#000000">+ wxString()</text>
<text text-anchor="start" x="546" y="-1494.5" font-family="FreeSans" font-size="10.00" fill="#000000">+ wxString()</text>
<text text-anchor="start" x="546" y="-1483.5" font-family="FreeSans" font-size="10.00" fill="#000000">and 222 more...</text>
<text text-anchor="start" x="546" y="-1472.5" font-family="FreeSans" font-size="10.00" fill="#000000">+ Format()</text>
<text text-anchor="start" x="546" y="-1461.5" font-family="FreeSans" font-size="10.00" fill="#000000">+ FormatV()</text>
<text text-anchor="start" x="546" y="-1450.5" font-family="FreeSans" font-size="10.00" fill="#000000">+ FromCDouble()</text>
<text text-anchor="start" x="546" y="-1439.5" font-family="FreeSans" font-size="10.00" fill="#000000">+ FromDouble()</text>
<text text-anchor="start" x="546" y="-1428.5" font-family="FreeSans" font-size="10.00" fill="#000000">+ From8BitData()</text>
<text text-anchor="start" x="546" y="-1417.5" font-family="FreeSans" font-size="10.00" fill="#000000">+ From8BitData()</text>
<text text-anchor="start" x="546" y="-1406.5" font-family="FreeSans" font-size="10.00" fill="#000000">+ FromAscii()</text>
<text text-anchor="start" x="546" y="-1395.5" font-family="FreeSans" font-size="10.00" fill="#000000">+ FromAscii()</text>
<text text-anchor="start" x="546" y="-1384.5" font-family="FreeSans" font-size="10.00" fill="#000000">and 7 more...</text>
</a>
</g>
</g>
<!-- Node7&#45;&gt;Node3 -->
<g id="edge13" class="edge">
<title>Node7&#45;&gt;Node3</title>
<path fill="none" stroke="#404040" d="M582.7485,-1377.3979C581.2873,-1145.7681 578.0691,-665.1305 576.5,-661 556.3437,-607.9394 517.4698,-559.1284 479.6217,-520.6687"/>
<polygon fill="none" stroke="#404040" points="479.5534,-520.6005 472.481,-519.1926 471.0605,-512.1228 478.1328,-513.5307 479.5534,-520.6005"/>
<text text-anchor="middle" x="638" y="-1015" font-family="FreeSans" font-size="10.00" fill="#000000"> &#45;m_Notes</text>
<text text-anchor="middle" x="638" y="-1004" font-family="FreeSans" font-size="10.00" fill="#000000">&#45;m_Makefile</text>
<text text-anchor="middle" x="638" y="-993" font-family="FreeSans" font-size="10.00" fill="#000000">&#45;m_ActiveTarget</text>
<text text-anchor="middle" x="638" y="-982" font-family="FreeSans" font-size="10.00" fill="#000000">&#45;m_BasePath</text>
<text text-anchor="middle" x="638" y="-971" font-family="FreeSans" font-size="10.00" fill="#000000">&#45;m_DefaultExecuteTarget</text>
<text text-anchor="middle" x="638" y="-960" font-family="FreeSans" font-size="10.00" fill="#000000">&#45;m_LastSavedActiveTarget</text>
<text text-anchor="middle" x="638" y="-949" font-family="FreeSans" font-size="10.00" fill="#000000">&#45;m_MakefileExecutionDir</text>
<text text-anchor="middle" x="638" y="-938" font-family="FreeSans" font-size="10.00" fill="#000000">&#45;m_CommonTopLevelPath</text>
</g>
<!-- Node7&#45;&gt;Node4 -->
<g id="edge4" class="edge">
<title>Node7&#45;&gt;Node4</title>
<path fill="none" stroke="#404040" d="M537.8947,-1467.2848C476.0751,-1420.7008 367.8592,-1328.159 319.5,-1220 293.5577,-1161.978 336.5206,-983.5476 295.5,-935 274.7674,-910.4631 253.4921,-932.7589 225.5,-917 212.6006,-909.7379 200.0604,-900.884 188.1756,-891.2574"/>
<polygon fill="none" stroke="#404040" points="187.9852,-891.0978 180.8175,-890.3074 178.7903,-883.3871 185.958,-884.1774 187.9852,-891.0978"/>
<text text-anchor="middle" x="377" y="-1183" font-family="FreeSans" font-size="10.00" fill="#000000"> #m_MakeCommands</text>
<text text-anchor="middle" x="377" y="-1172" font-family="FreeSans" font-size="10.00" fill="#000000">#m_ImportLibraryFilename</text>
<text text-anchor="middle" x="377" y="-1161" font-family="FreeSans" font-size="10.00" fill="#000000">#m_HostApplication</text>
<text text-anchor="middle" x="377" y="-1150" font-family="FreeSans" font-size="10.00" fill="#000000">#m_DefinitionFileFilename</text>
<text text-anchor="middle" x="377" y="-1139" font-family="FreeSans" font-size="10.00" fill="#000000">#m_CompilerId</text>
<text text-anchor="middle" x="377" y="-1128" font-family="FreeSans" font-size="10.00" fill="#000000">#m_ExecutionParameters</text>
<text text-anchor="middle" x="377" y="-1117" font-family="FreeSans" font-size="10.00" fill="#000000">#m_Filename</text>
<text text-anchor="middle" x="377" y="-1106" font-family="FreeSans" font-size="10.00" fill="#000000">#m_ObjectOutput</text>
<text text-anchor="middle" x="377" y="-1095" font-family="FreeSans" font-size="10.00" fill="#000000">#m_DepsOutput</text>
<text text-anchor="middle" x="377" y="-1084" font-family="FreeSans" font-size="10.00" fill="#000000">#m_WorkingDir</text>
<text text-anchor="middle" x="377" y="-1073" font-family="FreeSans" font-size="10.00" fill="#000000">...</text>
</g>
<!-- Node7&#45;&gt;Node8 -->
<g id="edge8" class="edge">
<title>Node7&#45;&gt;Node8</title>
<path fill="none" stroke="#404040" d="M546.3479,-1377.4452C544.6622,-1371.2206 543.0357,-1365.0454 541.5,-1359 525.5927,-1296.3799 510.8868,-1223.16 502.0525,-1176.8131"/>
<polygon fill="none" stroke="#404040" points="502.0052,-1176.5626 496.9595,-1171.4109 499.7743,-1164.7718 504.82,-1169.9236 502.0052,-1176.5626"/>
<text text-anchor="middle" x="555.5" y="-1296" font-family="FreeSans" font-size="10.00" fill="#000000"> +keys</text>
</g>
<!-- Node11 -->
<g id="node9" class="node">
<title>Node11</title>
<g id="a_node9"><a xlink:href="structcbProject_1_1Glob" target="_top" xlink:title="{cbProject::Glob\n|+ m_Recursive\l|+ Glob()\l}">
<polygon fill="none" stroke="#000000" points="649,-1102 649,-1159 732,-1159 732,-1102 649,-1102"/>
<text text-anchor="middle" x="690.5" y="-1147" font-family="FreeSans" font-size="10.00" fill="#000000">cbProject::Glob</text>
<polyline fill="none" stroke="#000000" points="649,-1140 732,-1140 "/>
<text text-anchor="start" x="657" y="-1128" font-family="FreeSans" font-size="10.00" fill="#000000">+ m_Recursive</text>
<polyline fill="none" stroke="#000000" points="649,-1121 732,-1121 "/>
<text text-anchor="start" x="657" y="-1109" font-family="FreeSans" font-size="10.00" fill="#000000">+ Glob()</text>
</a>
</g>
</g>
<!-- Node7&#45;&gt;Node11 -->
<g id="edge12" class="edge">
<title>Node7&#45;&gt;Node11</title>
<path fill="none" stroke="#404040" d="M618.9066,-1377.397C639.6632,-1305.8158 664.5384,-1220.0312 678.8324,-1170.737"/>
<polygon fill="none" stroke="#404040" points="678.8874,-1170.5469 676.7167,-1163.6702 682.2295,-1159.0216 684.4002,-1165.8983 678.8874,-1170.5469"/>
<text text-anchor="middle" x="688" y="-1301.5" font-family="FreeSans" font-size="10.00" fill="#000000"> +m_Path</text>
<text text-anchor="middle" x="688" y="-1290.5" font-family="FreeSans" font-size="10.00" fill="#000000">+m_WildCard</text>
</g>
<!-- Node7&#45;&gt;Node12 -->
<g id="edge17" class="edge">
<title>Node7&#45;&gt;Node12</title>
<path fill="none" stroke="#404040" d="M629.3107,-1463.4624C659.5306,-1437.4275 697.7786,-1399.7862 721.5,-1359 774.5831,-1267.7296 786.5,-1236.0846 786.5,-1130.5 786.5,-1130.5 786.5,-1130.5 786.5,-436.5 786.5,-270.2318 579.278,-172.9705 460.558,-130.8919"/>
<polygon fill="none" stroke="#404040" points="460.3368,-130.815 453.3555,-132.621 449.0033,-126.8713 455.9846,-125.0653 460.3368,-130.815"/>
<text text-anchor="middle" x="842.5" y="-792" font-family="FreeSans" font-size="10.00" fill="#000000"> &#45;m_AdditionalOutputFiles</text>
<text text-anchor="middle" x="842.5" y="-781" font-family="FreeSans" font-size="10.00" fill="#000000">&#45;m_ExternalDeps</text>
</g>
<!-- Node8&#45;&gt;Node3 -->
<g id="edge6" class="edge">
<title>Node8&#45;&gt;Node3</title>
<path fill="none" stroke="#404040" d="M471.2892,-1096.3585C446.1674,-1055.5937 406.6567,-984.436 390.5,-917 377.5942,-863.1329 375.3855,-735.8912 376.2495,-625.8753"/>
<polygon fill="none" stroke="#404040" points="376.252,-625.5796 372.3058,-619.5441 376.3592,-613.5801 380.3055,-619.6156 376.252,-625.5796"/>
<text text-anchor="middle" x="430" y="-786.5" font-family="FreeSans" font-size="10.00" fill="#000000"> &#45;m_VirtualTargets</text>
</g>
<!-- Node9 -->
<g id="node7" class="node">
<title>Node9</title>
<g id="a_node7"><a doxygen="/media/alpha/Barracuda/cb_docs/src/wxTagFile.xml:http://docs.wxwidgets.org/3.0/" xlink:href="http://docs.wxwidgets.org/3.0/classwx_date_time.html" target="_top" xlink:title="{wxDateTime\n||+ wxDateTime()\l+ wxDateTime()\l+ wxDateTime()\l+ wxDateTime()\l+ wxDateTime()\l+ wxDateTime()\l+ wxDateTime()\l+ wxDateTime()\land 107 more...\l+ ConvertYearToBC()\l+ GetAmPmStrings()\l+ GetBeginDST()\l+ GetEndDST()\l+ GetCentury()\l+ GetCountry()\l+ GetCurrentMonth()\l+ GetCurrentYear()\land 17 more...\l}">
<polygon fill="none" stroke="#000000" points="235,-667 235,-911 344,-911 344,-667 235,-667"/>
<text text-anchor="middle" x="289.5" y="-899" font-family="FreeSans" font-size="10.00" fill="#000000">wxDateTime</text>
<polyline fill="none" stroke="#000000" points="235,-892 344,-892 "/>
<text text-anchor="middle" x="289.5" y="-880" font-family="FreeSans" font-size="10.00" fill="#000000"> </text>
<polyline fill="none" stroke="#000000" points="235,-873 344,-873 "/>
<text text-anchor="start" x="243" y="-861" font-family="FreeSans" font-size="10.00" fill="#000000">+ wxDateTime()</text>
<text text-anchor="start" x="243" y="-850" font-family="FreeSans" font-size="10.00" fill="#000000">+ wxDateTime()</text>
<text text-anchor="start" x="243" y="-839" font-family="FreeSans" font-size="10.00" fill="#000000">+ wxDateTime()</text>
<text text-anchor="start" x="243" y="-828" font-family="FreeSans" font-size="10.00" fill="#000000">+ wxDateTime()</text>
<text text-anchor="start" x="243" y="-817" font-family="FreeSans" font-size="10.00" fill="#000000">+ wxDateTime()</text>
<text text-anchor="start" x="243" y="-806" font-family="FreeSans" font-size="10.00" fill="#000000">+ wxDateTime()</text>
<text text-anchor="start" x="243" y="-795" font-family="FreeSans" font-size="10.00" fill="#000000">+ wxDateTime()</text>
<text text-anchor="start" x="243" y="-784" font-family="FreeSans" font-size="10.00" fill="#000000">+ wxDateTime()</text>
<text text-anchor="start" x="243" y="-773" font-family="FreeSans" font-size="10.00" fill="#000000">and 107 more...</text>
<text text-anchor="start" x="243" y="-762" font-family="FreeSans" font-size="10.00" fill="#000000">+ ConvertYearToBC()</text>
<text text-anchor="start" x="243" y="-751" font-family="FreeSans" font-size="10.00" fill="#000000">+ GetAmPmStrings()</text>
<text text-anchor="start" x="243" y="-740" font-family="FreeSans" font-size="10.00" fill="#000000">+ GetBeginDST()</text>
<text text-anchor="start" x="243" y="-729" font-family="FreeSans" font-size="10.00" fill="#000000">+ GetEndDST()</text>
<text text-anchor="start" x="243" y="-718" font-family="FreeSans" font-size="10.00" fill="#000000">+ GetCentury()</text>
<text text-anchor="start" x="243" y="-707" font-family="FreeSans" font-size="10.00" fill="#000000">+ GetCountry()</text>
<text text-anchor="start" x="243" y="-696" font-family="FreeSans" font-size="10.00" fill="#000000">+ GetCurrentMonth()</text>
<text text-anchor="start" x="243" y="-685" font-family="FreeSans" font-size="10.00" fill="#000000">+ GetCurrentYear()</text>
<text text-anchor="start" x="243" y="-674" font-family="FreeSans" font-size="10.00" fill="#000000">and 17 more...</text>
</a>
</g>
</g>
<!-- Node9&#45;&gt;Node3 -->
<g id="edge9" class="edge">
<title>Node9&#45;&gt;Node3</title>
<path fill="none" stroke="#404040" d="M287.9245,-666.7084C289.1752,-654.9014 290.9776,-643.1704 293.5,-632 293.9926,-629.8187 294.5101,-627.6318 295.0511,-625.4409"/>
<polygon fill="none" stroke="#404040" points="295.0897,-625.2948 292.758,-618.471 298.16,-613.6942 300.4917,-620.5179 295.0897,-625.2948"/>
<text text-anchor="middle" x="330" y="-635" font-family="FreeSans" font-size="10.00" fill="#000000"> &#45;m_LastModified</text>
</g>
<!-- Node10 -->
<g id="node8" class="node">
<title>Node10</title>
<polygon fill="none" stroke="#bfbfbf" points="632.5,-755 632.5,-823 742.5,-823 742.5,-755 632.5,-755"/>
<text text-anchor="start" x="640.5" y="-811" font-family="FreeSans" font-size="10.00" fill="#000000">std::vector&lt; cbProject</text>
<text text-anchor="middle" x="687.5" y="-800" font-family="FreeSans" font-size="10.00" fill="#000000">::Glob &gt;</text>
<polyline fill="none" stroke="#bfbfbf" points="632.5,-793 742.5,-793 "/>
<text text-anchor="middle" x="687.5" y="-781" font-family="FreeSans" font-size="10.00" fill="#000000"> </text>
<polyline fill="none" stroke="#bfbfbf" points="632.5,-774 742.5,-774 "/>
<text text-anchor="middle" x="687.5" y="-762" font-family="FreeSans" font-size="10.00" fill="#000000"> </text>
</g>
<!-- Node10&#45;&gt;Node3 -->
<g id="edge10" class="edge">
<title>Node10&#45;&gt;Node3</title>
<path fill="none" stroke="#404040" d="M675.2134,-754.8923C662.1495,-721.4757 639.2704,-670.1516 609.5,-632 573.1,-585.3523 524.1202,-541.7359 480.8009,-507.5895"/>
<polygon fill="none" stroke="#404040" points="480.5403,-507.3863 473.3491,-506.8512 471.0772,-500.0073 478.2684,-500.5424 480.5403,-507.3863"/>
<text text-anchor="middle" x="636.5" y="-635" font-family="FreeSans" font-size="10.00" fill="#000000"> &#45;m_Globs</text>
</g>
<!-- Node11&#45;&gt;Node10 -->
<g id="edge11" class="edge">
<title>Node11&#45;&gt;Node10</title>
<path fill="none" stroke="#404040" d="M694.2385,-1101.8159C696.8607,-1080.196 700.1328,-1049.7929 701.5,-1023 703.4932,-983.9397 703.3688,-974.0664 701.5,-935 699.8997,-901.5448 696.2479,-863.9248 693.0752,-835.252"/>
<polygon fill="none" stroke="#404040" points="693.0555,-835.077 688.4063,-829.5648 691.7064,-823.1531 696.3556,-828.6654 693.0555,-835.077"/>
<text text-anchor="middle" x="726.5" y="-976.5" font-family="FreeSans" font-size="10.00" fill="#000000"> +elements</text>
</g>
<!-- Node12&#45;&gt;Node3 -->
<g id="edge14" class="edge">
<title>Node12&#45;&gt;Node3</title>
<path fill="none" stroke="#404040" d="M393.1605,-211.7878C393.6865,-217.943 394.1413,-224.0475 394.5,-230 394.8433,-235.6968 395.0901,-241.4816 395.2511,-247.3216"/>
<polygon fill="none" stroke="#404040" points="395.252,-247.3776 399.3576,-253.3059 395.4644,-259.3758 391.3589,-253.4475 395.252,-247.3776"/>
<text text-anchor="middle" x="459.5" y="-233" font-family="FreeSans" font-size="10.00" fill="#000000"> &#45;m_CurrentlyCompilingTarget</text>
</g>
<!-- Node13 -->
<g id="node11" class="node">
<title>Node13</title>
<g id="a_node11"><a doxygen="/media/alpha/Barracuda/cb_docs/src/wxTagFile.xml:http://docs.wxwidgets.org/3.0/" xlink:href="http://docs.wxwidgets.org/3.0/classwx_tree_item_id.html" target="_top" xlink:title="{wxTreeItemId\n||+ wxTreeItemId()\l+ IsOk()\l+ GetID()\l+ Unset()\l}">
<polygon fill="none" stroke="#000000" points="478,-744 478,-834 567,-834 567,-744 478,-744"/>
<text text-anchor="middle" x="522.5" y="-822" font-family="FreeSans" font-size="10.00" fill="#000000">wxTreeItemId</text>
<polyline fill="none" stroke="#000000" points="478,-815 567,-815 "/>
<text text-anchor="middle" x="522.5" y="-803" font-family="FreeSans" font-size="10.00" fill="#000000"> </text>
<polyline fill="none" stroke="#000000" points="478,-796 567,-796 "/>
<text text-anchor="start" x="486" y="-784" font-family="FreeSans" font-size="10.00" fill="#000000">+ wxTreeItemId()</text>
<text text-anchor="start" x="486" y="-773" font-family="FreeSans" font-size="10.00" fill="#000000">+ IsOk()</text>
<text text-anchor="start" x="486" y="-762" font-family="FreeSans" font-size="10.00" fill="#000000">+ GetID()</text>
<text text-anchor="start" x="486" y="-751" font-family="FreeSans" font-size="10.00" fill="#000000">+ Unset()</text>
</a>
</g>
</g>
<!-- Node13&#45;&gt;Node3 -->
<g id="edge18" class="edge">
<title>Node13&#45;&gt;Node3</title>
<path fill="none" stroke="#404040" d="M504.3714,-743.9976C491.8956,-713.0277 474.3952,-669.5848 456.4702,-625.088"/>
<polygon fill="none" stroke="#404040" points="456.3906,-624.8903 450.4384,-620.8196 451.9067,-613.7595 457.8589,-617.8303 456.3906,-624.8903"/>
<text text-anchor="middle" x="496" y="-635" font-family="FreeSans" font-size="10.00" fill="#000000"> &#45;m_ProjectNode</text>
</g>
</g>
</svg>
