<?xml version="1.0" encoding="UTF-8" standalone="no"?>
<!DOCTYPE svg PUBLIC "-//W3C//DTD SVG 1.1//EN"
 "http://www.w3.org/Graphics/SVG/1.1/DTD/svg11.dtd">
<!-- Generated by graphviz version 2.38.0 (20140413.2041)
 -->
<!-- Title: CompilerGCC Pages: 1 -->
<svg width="168pt" height="865pt"
 viewBox="0.00 0.00 168.00 865.00" xmlns="http://www.w3.org/2000/svg" xmlns:xlink="http://www.w3.org/1999/xlink">
<g id="graph0" class="graph" transform="scale(1 1) rotate(0) translate(4 861)">
<title>CompilerGCC</title>
<!-- Node1 -->
<g id="node1" class="node"><title>Node1</title>
<polygon fill="#bfbfbf" stroke="black" points="0,-0.5 0,-332.5 160,-332.5 160,-0.5 0,-0.5"/>
<text text-anchor="middle" x="80" y="-320.5" font-family="FreeSans" font-size="10.00">CompilerGCC</text>
<polyline fill="none" stroke="black" points="0,-313.5 160,-313.5 "/>
<text text-anchor="start" x="8" y="-301.5" font-family="FreeSans" font-size="10.00">&#45; m_BuildJobTargetsList</text>
<text text-anchor="start" x="8" y="-290.5" font-family="FreeSans" font-size="10.00">&#45; m_CompilerProcessList</text>
<text text-anchor="start" x="8" y="-279.5" font-family="FreeSans" font-size="10.00">&#45; m_Targets</text>
<text text-anchor="start" x="8" y="-268.5" font-family="FreeSans" font-size="10.00">&#45; m_RealTargetsStartIndex</text>
<text text-anchor="start" x="8" y="-257.5" font-family="FreeSans" font-size="10.00">&#45; m_RealTargetIndex</text>
<text text-anchor="start" x="8" y="-246.5" font-family="FreeSans" font-size="10.00">&#45; m_CommandQueue</text>
<text text-anchor="start" x="8" y="-235.5" font-family="FreeSans" font-size="10.00">&#45; m_CompilerId</text>
<text text-anchor="start" x="8" y="-224.5" font-family="FreeSans" font-size="10.00">&#45; m_PageIndex</text>
<text text-anchor="start" x="8" y="-213.5" font-family="FreeSans" font-size="10.00">and 39 more...</text>
<polyline fill="none" stroke="black" points="0,-206.5 160,-206.5 "/>
<text text-anchor="start" x="8" y="-194.5" font-family="FreeSans" font-size="10.00">+ CompilerGCC()</text>
<text text-anchor="start" x="8" y="-183.5" font-family="FreeSans" font-size="10.00">+ ~CompilerGCC()</text>
<text text-anchor="start" x="8" y="-172.5" font-family="FreeSans" font-size="10.00">+ OnAttach()</text>
<text text-anchor="start" x="8" y="-161.5" font-family="FreeSans" font-size="10.00">+ OnRelease()</text>
<text text-anchor="start" x="8" y="-150.5" font-family="FreeSans" font-size="10.00">+ BuildMenu()</text>
<text text-anchor="start" x="8" y="-139.5" font-family="FreeSans" font-size="10.00">+ BuildModuleMenu()</text>
<text text-anchor="start" x="8" y="-128.5" font-family="FreeSans" font-size="10.00">+ BuildToolBar()</text>
<text text-anchor="start" x="8" y="-117.5" font-family="FreeSans" font-size="10.00">+ GetToolBarPriority()</text>
<text text-anchor="start" x="8" y="-106.5" font-family="FreeSans" font-size="10.00">and 48 more...</text>
<text text-anchor="start" x="8" y="-95.5" font-family="FreeSans" font-size="10.00">&#45; Dispatcher()</text>
<text text-anchor="start" x="8" y="-84.5" font-family="FreeSans" font-size="10.00">&#45; TextURL()</text>
<text text-anchor="start" x="8" y="-73.5" font-family="FreeSans" font-size="10.00">&#45; StopRunningDebugger()</text>
<text text-anchor="start" x="8" y="-62.5" font-family="FreeSans" font-size="10.00">&#45; ReAllocProcesses()</text>
<text text-anchor="start" x="8" y="-51.5" font-family="FreeSans" font-size="10.00">&#45; AllocProcesses()</text>
<text text-anchor="start" x="8" y="-40.5" font-family="FreeSans" font-size="10.00">&#45; FreeProcesses()</text>
<text text-anchor="start" x="8" y="-29.5" font-family="FreeSans" font-size="10.00">&#45; IsProcessRunning()</text>
<text text-anchor="start" x="8" y="-18.5" font-family="FreeSans" font-size="10.00">&#45; GetNextAvailableProcessIndex()</text>
<text text-anchor="start" x="8" y="-7.5" font-family="FreeSans" font-size="10.00">and 66 more...</text>
</g>
<!-- Node2 -->
<g id="node2" class="node"><title>Node2</title>
<g id="a_node2"><a xlink:href="classcbCompilerPlugin" target="_top" xlink:title="Base class for compiler plugins. ">
<polygon fill="none" stroke="black" points="26.5,-369.5 26.5,-514.5 133.5,-514.5 133.5,-369.5 26.5,-369.5"/>
<text text-anchor="middle" x="80" y="-502.5" font-family="FreeSans" font-size="10.00">cbCompilerPlugin</text>
<polyline fill="none" stroke="black" points="26.5,-495.5 133.5,-495.5 "/>
<text text-anchor="middle" x="80" y="-483.5" font-family="FreeSans" font-size="10.00"> </text>
<polyline fill="none" stroke="black" points="26.5,-476.5 133.5,-476.5 "/>
<text text-anchor="start" x="34.5" y="-464.5" font-family="FreeSans" font-size="10.00">+ cbCompilerPlugin()</text>
<text text-anchor="start" x="34.5" y="-453.5" font-family="FreeSans" font-size="10.00">+ Run()</text>
<text text-anchor="start" x="34.5" y="-442.5" font-family="FreeSans" font-size="10.00">+ Run()</text>
<text text-anchor="start" x="34.5" y="-431.5" font-family="FreeSans" font-size="10.00">+ Clean()</text>
<text text-anchor="start" x="34.5" y="-420.5" font-family="FreeSans" font-size="10.00">+ Clean()</text>
<text text-anchor="start" x="34.5" y="-409.5" font-family="FreeSans" font-size="10.00">+ DistClean()</text>
<text text-anchor="start" x="34.5" y="-398.5" font-family="FreeSans" font-size="10.00">+ DistClean()</text>
<text text-anchor="start" x="34.5" y="-387.5" font-family="FreeSans" font-size="10.00">+ Build()</text>
<text text-anchor="start" x="34.5" y="-376.5" font-family="FreeSans" font-size="10.00">and 11 more...</text>
</a>
</g>
</g>
<!-- Node2&#45;&gt;Node1 -->
<g id="edge1" class="edge"><title>Node2&#45;&gt;Node1</title>
<path fill="none" stroke="midnightblue" d="M80,-359.498C80,-350.831 80,-341.809 80,-332.607"/>
<polygon fill="none" stroke="midnightblue" points="76.5001,-359.498 80,-369.498 83.5001,-359.498 76.5001,-359.498"/>
</g>
<!-- Node3 -->
<g id="node3" class="node"><title>Node3</title>
<g id="a_node3"><a xlink:href="classcbPlugin" target="_top" xlink:title="Base class for plugins This is the most basic class a plugin must descend from. ">
<polygon fill="none" stroke="black" points="1,-551.5 1,-762.5 159,-762.5 159,-551.5 1,-551.5"/>
<text text-anchor="middle" x="80" y="-750.5" font-family="FreeSans" font-size="10.00">cbPlugin</text>
<polyline fill="none" stroke="black" points="1,-743.5 159,-743.5 "/>
<text text-anchor="start" x="9" y="-731.5" font-family="FreeSans" font-size="10.00"># m_Type</text>
<text text-anchor="start" x="9" y="-720.5" font-family="FreeSans" font-size="10.00"># m_IsAttached</text>
<polyline fill="none" stroke="black" points="1,-713.5 159,-713.5 "/>
<text text-anchor="start" x="9" y="-701.5" font-family="FreeSans" font-size="10.00">+ cbPlugin()</text>
<text text-anchor="start" x="9" y="-690.5" font-family="FreeSans" font-size="10.00">+ ~cbPlugin()</text>
<text text-anchor="start" x="9" y="-679.5" font-family="FreeSans" font-size="10.00">+ GetType()</text>
<text text-anchor="start" x="9" y="-668.5" font-family="FreeSans" font-size="10.00">+ GetConfigurationPriority()</text>
<text text-anchor="start" x="9" y="-657.5" font-family="FreeSans" font-size="10.00">+ GetConfigurationGroup()</text>
<text text-anchor="start" x="9" y="-646.5" font-family="FreeSans" font-size="10.00">+ GetConfigurationPanel()</text>
<text text-anchor="start" x="9" y="-635.5" font-family="FreeSans" font-size="10.00">+ GetProjectConfigurationPanel()</text>
<text text-anchor="start" x="9" y="-624.5" font-family="FreeSans" font-size="10.00">+ BuildMenu()</text>
<text text-anchor="start" x="9" y="-613.5" font-family="FreeSans" font-size="10.00">and 5 more...</text>
<text text-anchor="start" x="9" y="-602.5" font-family="FreeSans" font-size="10.00"># OnAttach()</text>
<text text-anchor="start" x="9" y="-591.5" font-family="FreeSans" font-size="10.00"># OnRelease()</text>
<text text-anchor="start" x="9" y="-580.5" font-family="FreeSans" font-size="10.00"># NotImplemented()</text>
<text text-anchor="start" x="9" y="-569.5" font-family="FreeSans" font-size="10.00">&#45; Attach()</text>
<text text-anchor="start" x="9" y="-558.5" font-family="FreeSans" font-size="10.00">&#45; Release()</text>
</a>
</g>
</g>
<!-- Node3&#45;&gt;Node2 -->
<g id="edge2" class="edge"><title>Node3&#45;&gt;Node2</title>
<path fill="none" stroke="midnightblue" d="M80,-541.194C80,-532.198 80,-523.28 80,-514.702"/>
<polygon fill="none" stroke="midnightblue" points="76.5001,-541.372 80,-551.372 83.5001,-541.372 76.5001,-541.372"/>
</g>
<!-- Node4 -->
<g id="node4" class="node"><title>Node4</title>
<polygon fill="none" stroke="#bfbfbf" points="43,-799.5 43,-856.5 117,-856.5 117,-799.5 43,-799.5"/>
<text text-anchor="middle" x="80" y="-844.5" font-family="FreeSans" font-size="10.00">wxEvtHandler</text>
<polyline fill="none" stroke="#bfbfbf" points="43,-837.5 117,-837.5 "/>
<text text-anchor="middle" x="80" y="-825.5" font-family="FreeSans" font-size="10.00"> </text>
<polyline fill="none" stroke="#bfbfbf" points="43,-818.5 117,-818.5 "/>
<text text-anchor="middle" x="80" y="-806.5" font-family="FreeSans" font-size="10.00"> </text>
</g>
<!-- Node4&#45;&gt;Node3 -->
<g id="edge3" class="edge"><title>Node4&#45;&gt;Node3</title>
<path fill="none" stroke="midnightblue" d="M80,-789.233C80,-781.038 80,-771.987 80,-762.584"/>
<polygon fill="none" stroke="midnightblue" points="76.5001,-789.471 80,-799.471 83.5001,-789.471 76.5001,-789.471"/>
</g>
</g>
</svg>
