<?xml version="1.0" encoding="UTF-8" standalone="no"?>
<!DOCTYPE svg PUBLIC "-//W3C//DTD SVG 1.1//EN"
 "http://www.w3.org/Graphics/SVG/1.1/DTD/svg11.dtd">
<!-- Generated by graphviz version 2.38.0 (20140413.2041)
 -->
<!-- Title: DebuggerSettingsPanel Pages: 1 -->
<svg width="145pt" height="447pt"
 viewBox="0.00 0.00 145.00 447.00" xmlns="http://www.w3.org/2000/svg" xmlns:xlink="http://www.w3.org/1999/xlink">
<g id="graph0" class="graph" transform="scale(1 1) rotate(0) translate(4 443)">
<title>DebuggerSettingsPanel</title>
<!-- Node0 -->
<g id="node1" class="node"><title>Node0</title>
<polygon fill="#bfbfbf" stroke="black" points="0,-0.5 0,-156.5 137,-156.5 137,-0.5 0,-0.5"/>
<text text-anchor="middle" x="68.5" y="-144.5" font-family="FreeSans" font-size="10.00">DebuggerSettingsPanel</text>
<polyline fill="none" stroke="black" points="0,-137.5 137,-137.5 "/>
<text text-anchor="start" x="8" y="-125.5" font-family="FreeSans" font-size="10.00">&#45; m_dialog</text>
<text text-anchor="start" x="8" y="-114.5" font-family="FreeSans" font-size="10.00">&#45; m_plugin</text>
<text text-anchor="start" x="8" y="-103.5" font-family="FreeSans" font-size="10.00">&#45; ID_BUTTON_CREATE</text>
<text text-anchor="start" x="8" y="-92.5" font-family="FreeSans" font-size="10.00">&#45; ID_BUTTON_DELETE</text>
<text text-anchor="start" x="8" y="-81.5" font-family="FreeSans" font-size="10.00">&#45; ID_BUTTON_RESET</text>
<text text-anchor="start" x="8" y="-70.5" font-family="FreeSans" font-size="10.00">&#45; ID_TEXTCTRL_INFO</text>
<polyline fill="none" stroke="black" points="0,-63.5 137,-63.5 "/>
<text text-anchor="start" x="8" y="-51.5" font-family="FreeSans" font-size="10.00">+ DebuggerSettingsPanel()</text>
<text text-anchor="start" x="8" y="-40.5" font-family="FreeSans" font-size="10.00">+ ~DebuggerSettingsPanel()</text>
<text text-anchor="start" x="8" y="-29.5" font-family="FreeSans" font-size="10.00">&#45; OnButtonCreate()</text>
<text text-anchor="start" x="8" y="-18.5" font-family="FreeSans" font-size="10.00">&#45; OnButtonDelete()</text>
<text text-anchor="start" x="8" y="-7.5" font-family="FreeSans" font-size="10.00">&#45; OnButtonReset()</text>
</g>
<!-- Node1 -->
<g id="node2" class="node"><title>Node1</title>
<g id="a_node2"><a doxygen="/media/alpha/Barracuda/cb_docs/src/wxTagFile.xml:http://docs.wxwidgets.org/3.0/" xlink:href="http://docs.wxwidgets.org/3.0/classwx_panel.html" target="_top" xlink:title="{wxPanel\n||}">
<polygon fill="none" stroke="black" points="42,-193.5 42,-250.5 95,-250.5 95,-193.5 42,-193.5"/>
<text text-anchor="middle" x="68.5" y="-238.5" font-family="FreeSans" font-size="10.00">wxPanel</text>
<polyline fill="none" stroke="black" points="42,-231.5 95,-231.5 "/>
<text text-anchor="middle" x="68.5" y="-219.5" font-family="FreeSans" font-size="10.00"> </text>
<polyline fill="none" stroke="black" points="42,-212.5 95,-212.5 "/>
<text text-anchor="middle" x="68.5" y="-200.5" font-family="FreeSans" font-size="10.00"> </text>
</a>
</g>
</g>
<!-- Node1&#45;&gt;Node0 -->
<g id="edge1" class="edge"><title>Node1&#45;&gt;Node0</title>
<path fill="none" stroke="midnightblue" d="M68.5,-183.34C68.5,-175.044 68.5,-165.964 68.5,-156.736"/>
<polygon fill="none" stroke="midnightblue" points="65.0001,-183.381 68.5,-193.381 72.0001,-183.382 65.0001,-183.381"/>
</g>
<!-- Node2 -->
<g id="node3" class="node"><title>Node2</title>
<g id="a_node3"><a doxygen="/media/alpha/Barracuda/cb_docs/src/wxTagFile.xml:http://docs.wxwidgets.org/3.0/" xlink:href="http://docs.wxwidgets.org/3.0/classwx_window.html" target="_top" xlink:title="{wxWindow\n||}">
<polygon fill="none" stroke="black" points="37.5,-287.5 37.5,-344.5 99.5,-344.5 99.5,-287.5 37.5,-287.5"/>
<text text-anchor="middle" x="68.5" y="-332.5" font-family="FreeSans" font-size="10.00">wxWindow</text>
<polyline fill="none" stroke="black" points="37.5,-325.5 99.5,-325.5 "/>
<text text-anchor="middle" x="68.5" y="-313.5" font-family="FreeSans" font-size="10.00"> </text>
<polyline fill="none" stroke="black" points="37.5,-306.5 99.5,-306.5 "/>
<text text-anchor="middle" x="68.5" y="-294.5" font-family="FreeSans" font-size="10.00"> </text>
</a>
</g>
</g>
<!-- Node2&#45;&gt;Node1 -->
<g id="edge2" class="edge"><title>Node2&#45;&gt;Node1</title>
<path fill="none" stroke="midnightblue" d="M68.5,-277.209C68.5,-268.293 68.5,-258.951 68.5,-250.584"/>
<polygon fill="none" stroke="midnightblue" points="65.0001,-277.397 68.5,-287.397 72.0001,-277.397 65.0001,-277.397"/>
</g>
<!-- Node3 -->
<g id="node4" class="node"><title>Node3</title>
<g id="a_node4"><a doxygen="/media/alpha/Barracuda/cb_docs/src/wxTagFile.xml:http://docs.wxwidgets.org/3.0/" xlink:href="http://docs.wxwidgets.org/3.0/classwx_evt_handler.html" target="_top" xlink:title="{wxEvtHandler\n||}">
<polygon fill="none" stroke="red" points="31.5,-381.5 31.5,-438.5 105.5,-438.5 105.5,-381.5 31.5,-381.5"/>
<text text-anchor="middle" x="68.5" y="-426.5" font-family="FreeSans" font-size="10.00">wxEvtHandler</text>
<polyline fill="none" stroke="red" points="31.5,-419.5 105.5,-419.5 "/>
<text text-anchor="middle" x="68.5" y="-407.5" font-family="FreeSans" font-size="10.00"> </text>
<polyline fill="none" stroke="red" points="31.5,-400.5 105.5,-400.5 "/>
<text text-anchor="middle" x="68.5" y="-388.5" font-family="FreeSans" font-size="10.00"> </text>
</a>
</g>
</g>
<!-- Node3&#45;&gt;Node2 -->
<g id="edge3" class="edge"><title>Node3&#45;&gt;Node2</title>
<path fill="none" stroke="midnightblue" d="M68.5,-371.209C68.5,-362.293 68.5,-352.951 68.5,-344.584"/>
<polygon fill="none" stroke="midnightblue" points="65.0001,-371.397 68.5,-381.397 72.0001,-371.397 65.0001,-371.397"/>
</g>
</g>
</svg>
