<?xml version="1.0" encoding="UTF-8" standalone="no"?>
<!DOCTYPE svg PUBLIC "-//W3C//DTD SVG 1.1//EN"
 "http://www.w3.org/Graphics/SVG/1.1/DTD/svg11.dtd">
<!-- Generated by graphviz version 2.38.0 (20140413.2041)
 -->
<!-- Title: AnnoyingDialog Pages: 1 -->
<svg width="242pt" height="584pt"
 viewBox="0.00 0.00 242.00 584.00" xmlns="http://www.w3.org/2000/svg" xmlns:xlink="http://www.w3.org/1999/xlink">
<g id="graph0" class="graph" transform="scale(1 1) rotate(0) translate(4 580)">
<title>AnnoyingDialog</title>
<!-- Node1 -->
<g id="node1" class="node"><title>Node1</title>
<polygon fill="#bfbfbf" stroke="black" points="39,-0.5 39,-145.5 142,-145.5 142,-0.5 39,-0.5"/>
<text text-anchor="middle" x="90.5" y="-133.5" font-family="FreeSans" font-size="10.00">AnnoyingDialog</text>
<polyline fill="none" stroke="black" points="39,-126.5 142,-126.5 "/>
<text text-anchor="start" x="47" y="-114.5" font-family="FreeSans" font-size="10.00">&#45; m_Id</text>
<text text-anchor="start" x="47" y="-103.5" font-family="FreeSans" font-size="10.00">&#45; m_CheckBox</text>
<text text-anchor="start" x="47" y="-92.5" font-family="FreeSans" font-size="10.00">&#45; m_DefRet</text>
<text text-anchor="start" x="47" y="-81.5" font-family="FreeSans" font-size="10.00">&#45; m_DontAnnoy</text>
<polyline fill="none" stroke="black" points="39,-74.5 142,-74.5 "/>
<text text-anchor="start" x="47" y="-62.5" font-family="FreeSans" font-size="10.00">+ AnnoyingDialog()</text>
<text text-anchor="start" x="47" y="-51.5" font-family="FreeSans" font-size="10.00">+ AnnoyingDialog()</text>
<text text-anchor="start" x="47" y="-40.5" font-family="FreeSans" font-size="10.00">+ ~AnnoyingDialog()</text>
<text text-anchor="start" x="47" y="-29.5" font-family="FreeSans" font-size="10.00">+ ShowModal()</text>
<text text-anchor="start" x="47" y="-18.5" font-family="FreeSans" font-size="10.00">&#45; Init()</text>
<text text-anchor="start" x="47" y="-7.5" font-family="FreeSans" font-size="10.00">&#45; OnButton()</text>
</g>
<!-- Node2 -->
<g id="node2" class="node"><title>Node2</title>
<g id="a_node2"><a xlink:href="classwxScrollingDialog" target="_top" xlink:title="{wxScrollingDialog\n||+ wxScrollingDialog()\l+ wxScrollingDialog()\l+ Create()\l+ Init()\l+ Show()\l+ ShowModal()\l}">
<polygon fill="none" stroke="black" points="37,-182.5 37,-294.5 144,-294.5 144,-182.5 37,-182.5"/>
<text text-anchor="middle" x="90.5" y="-282.5" font-family="FreeSans" font-size="10.00">wxScrollingDialog</text>
<polyline fill="none" stroke="black" points="37,-275.5 144,-275.5 "/>
<text text-anchor="middle" x="90.5" y="-263.5" font-family="FreeSans" font-size="10.00"> </text>
<polyline fill="none" stroke="black" points="37,-256.5 144,-256.5 "/>
<text text-anchor="start" x="45" y="-244.5" font-family="FreeSans" font-size="10.00">+ wxScrollingDialog()</text>
<text text-anchor="start" x="45" y="-233.5" font-family="FreeSans" font-size="10.00">+ wxScrollingDialog()</text>
<text text-anchor="start" x="45" y="-222.5" font-family="FreeSans" font-size="10.00">+ Create()</text>
<text text-anchor="start" x="45" y="-211.5" font-family="FreeSans" font-size="10.00">+ Init()</text>
<text text-anchor="start" x="45" y="-200.5" font-family="FreeSans" font-size="10.00">+ Show()</text>
<text text-anchor="start" x="45" y="-189.5" font-family="FreeSans" font-size="10.00">+ ShowModal()</text>
</a>
</g>
</g>
<!-- Node2&#45;&gt;Node1 -->
<g id="edge1" class="edge"><title>Node2&#45;&gt;Node1</title>
<path fill="none" stroke="midnightblue" d="M90.5,-172.05C90.5,-163.328 90.5,-154.347 90.5,-145.528"/>
<polygon fill="none" stroke="midnightblue" points="87.0001,-172.146 90.5,-182.146 94.0001,-172.146 87.0001,-172.146"/>
</g>
<!-- Node3 -->
<g id="node3" class="node"><title>Node3</title>
<polygon fill="none" stroke="#bfbfbf" points="0,-425 0,-482 55,-482 55,-425 0,-425"/>
<text text-anchor="middle" x="27.5" y="-470" font-family="FreeSans" font-size="10.00">wxDialog</text>
<polyline fill="none" stroke="#bfbfbf" points="0,-463 55,-463 "/>
<text text-anchor="middle" x="27.5" y="-451" font-family="FreeSans" font-size="10.00"> </text>
<polyline fill="none" stroke="#bfbfbf" points="0,-444 55,-444 "/>
<text text-anchor="middle" x="27.5" y="-432" font-family="FreeSans" font-size="10.00"> </text>
</g>
<!-- Node3&#45;&gt;Node2 -->
<g id="edge2" class="edge"><title>Node3&#45;&gt;Node2</title>
<path fill="none" stroke="midnightblue" d="M38.6326,-414.861C48.4746,-381.586 62.9603,-332.61 74.1235,-294.868"/>
<polygon fill="none" stroke="midnightblue" points="35.2162,-414.072 35.7361,-424.654 41.9288,-416.057 35.2162,-414.072"/>
</g>
<!-- Node4 -->
<g id="node4" class="node"><title>Node4</title>
<g id="a_node4"><a xlink:href="classwxDialogHelper" target="_top" xlink:title="{wxDialogHelper\n|# m_dialog\l# m_layoutLayoutAdaptationDone\l# m_buttonIds\l# m_layoutAdaptationLevel\l# sm_layoutAdapter\l# sm_layoutAdaptation\l|+ wxDialogHelper()\l+ ~wxDialogHelper()\l+ Init()\l+ SetDialog()\l+ GetDialog()\l+ DoLayoutAdaptation()\l+ CanDoLayoutAdaptation()\l+ GetContentWindow()\land 7 more...\l+ SetLayoutAdapter()\l+ GetLayoutAdapter()\l+ GetLayoutAdaptation()\l+ SetLayoutAdaptation()\l}">
<polygon fill="none" stroke="black" points="73,-331.5 73,-575.5 234,-575.5 234,-331.5 73,-331.5"/>
<text text-anchor="middle" x="153.5" y="-563.5" font-family="FreeSans" font-size="10.00">wxDialogHelper</text>
<polyline fill="none" stroke="black" points="73,-556.5 234,-556.5 "/>
<text text-anchor="start" x="81" y="-544.5" font-family="FreeSans" font-size="10.00"># m_dialog</text>
<text text-anchor="start" x="81" y="-533.5" font-family="FreeSans" font-size="10.00"># m_layoutLayoutAdaptationDone</text>
<text text-anchor="start" x="81" y="-522.5" font-family="FreeSans" font-size="10.00"># m_buttonIds</text>
<text text-anchor="start" x="81" y="-511.5" font-family="FreeSans" font-size="10.00"># m_layoutAdaptationLevel</text>
<text text-anchor="start" x="81" y="-500.5" font-family="FreeSans" font-size="10.00"># sm_layoutAdapter</text>
<text text-anchor="start" x="81" y="-489.5" font-family="FreeSans" font-size="10.00"># sm_layoutAdaptation</text>
<polyline fill="none" stroke="black" points="73,-482.5 234,-482.5 "/>
<text text-anchor="start" x="81" y="-470.5" font-family="FreeSans" font-size="10.00">+ wxDialogHelper()</text>
<text text-anchor="start" x="81" y="-459.5" font-family="FreeSans" font-size="10.00">+ ~wxDialogHelper()</text>
<text text-anchor="start" x="81" y="-448.5" font-family="FreeSans" font-size="10.00">+ Init()</text>
<text text-anchor="start" x="81" y="-437.5" font-family="FreeSans" font-size="10.00">+ SetDialog()</text>
<text text-anchor="start" x="81" y="-426.5" font-family="FreeSans" font-size="10.00">+ GetDialog()</text>
<text text-anchor="start" x="81" y="-415.5" font-family="FreeSans" font-size="10.00">+ DoLayoutAdaptation()</text>
<text text-anchor="start" x="81" y="-404.5" font-family="FreeSans" font-size="10.00">+ CanDoLayoutAdaptation()</text>
<text text-anchor="start" x="81" y="-393.5" font-family="FreeSans" font-size="10.00">+ GetContentWindow()</text>
<text text-anchor="start" x="81" y="-382.5" font-family="FreeSans" font-size="10.00">and 7 more...</text>
<text text-anchor="start" x="81" y="-371.5" font-family="FreeSans" font-size="10.00">+ SetLayoutAdapter()</text>
<text text-anchor="start" x="81" y="-360.5" font-family="FreeSans" font-size="10.00">+ GetLayoutAdapter()</text>
<text text-anchor="start" x="81" y="-349.5" font-family="FreeSans" font-size="10.00">+ GetLayoutAdaptation()</text>
<text text-anchor="start" x="81" y="-338.5" font-family="FreeSans" font-size="10.00">+ SetLayoutAdaptation()</text>
</a>
</g>
</g>
<!-- Node4&#45;&gt;Node2 -->
<g id="edge3" class="edge"><title>Node4&#45;&gt;Node2</title>
<path fill="none" stroke="midnightblue" d="M114.76,-321.523C111.987,-312.148 109.294,-303.04 106.771,-294.512"/>
<polygon fill="none" stroke="midnightblue" points="111.482,-322.78 117.675,-331.377 118.195,-320.795 111.482,-322.78"/>
</g>
</g>
</svg>
