<?xml version="1.0" encoding="UTF-8" standalone="no"?>
<!DOCTYPE svg PUBLIC "-//W3C//DTD SVG 1.1//EN"
 "http://www.w3.org/Graphics/SVG/1.1/DTD/svg11.dtd">
<!-- Generated by graphviz version 2.38.0 (20140413.2041)
 -->
<!-- Title: cbSplashScreen Pages: 1 -->
<svg width="326pt" height="647pt"
 viewBox="0.00 0.00 326.00 647.00" xmlns="http://www.w3.org/2000/svg" xmlns:xlink="http://www.w3.org/1999/xlink">
<g id="graph0" class="graph" transform="scale(1 1) rotate(0) translate(4 643)">
<title>cbSplashScreen</title>
<!-- Node8 -->
<g id="node1" class="node"><title>Node8</title>
<polygon fill="#bfbfbf" stroke="black" points="86,-0.5 86,-145.5 193,-145.5 193,-0.5 86,-0.5"/>
<text text-anchor="middle" x="139.5" y="-133.5" font-family="FreeSans" font-size="10.00">cbSplashScreen</text>
<polyline fill="none" stroke="black" points="86,-126.5 193,-126.5 "/>
<text text-anchor="middle" x="139.5" y="-114.5" font-family="FreeSans" font-size="10.00"> </text>
<polyline fill="none" stroke="black" points="86,-107.5 193,-107.5 "/>
<text text-anchor="start" x="94" y="-95.5" font-family="FreeSans" font-size="10.00">+ cbSplashScreen()</text>
<text text-anchor="start" x="94" y="-84.5" font-family="FreeSans" font-size="10.00">+ ~cbSplashScreen()</text>
<text text-anchor="start" x="94" y="-73.5" font-family="FreeSans" font-size="10.00">+ DrawReleaseInfo()</text>
<text text-anchor="start" x="94" y="-62.5" font-family="FreeSans" font-size="10.00">&#45; DoPaint()</text>
<text text-anchor="start" x="94" y="-51.5" font-family="FreeSans" font-size="10.00">&#45; OnPaint()</text>
<text text-anchor="start" x="94" y="-40.5" font-family="FreeSans" font-size="10.00">&#45; OnTimer()</text>
<text text-anchor="start" x="94" y="-29.5" font-family="FreeSans" font-size="10.00">&#45; OnCloseWindow()</text>
<text text-anchor="start" x="94" y="-18.5" font-family="FreeSans" font-size="10.00">&#45; OnChar()</text>
<text text-anchor="start" x="94" y="-7.5" font-family="FreeSans" font-size="10.00">&#45; OnMouseEvent()</text>
</g>
<!-- Node9 -->
<g id="node2" class="node"><title>Node9</title>
<g id="a_node2"><a doxygen="/media/alpha/Barracuda/cb_docs/src/wxTagFile.xml:http://docs.wxwidgets.org/3.0/" xlink:href="http://docs.wxwidgets.org/3.0/classwx_frame.html" target="_top" xlink:title="{wxFrame\n||}">
<polygon fill="none" stroke="black" points="26.5,-292.5 26.5,-349.5 82.5,-349.5 82.5,-292.5 26.5,-292.5"/>
<text text-anchor="middle" x="54.5" y="-337.5" font-family="FreeSans" font-size="10.00">wxFrame</text>
<polyline fill="none" stroke="black" points="26.5,-330.5 82.5,-330.5 "/>
<text text-anchor="middle" x="54.5" y="-318.5" font-family="FreeSans" font-size="10.00"> </text>
<polyline fill="none" stroke="black" points="26.5,-311.5 82.5,-311.5 "/>
<text text-anchor="middle" x="54.5" y="-299.5" font-family="FreeSans" font-size="10.00"> </text>
</a>
</g>
</g>
<!-- Node9&#45;&gt;Node8 -->
<g id="edge1" class="edge"><title>Node9&#45;&gt;Node8</title>
<path fill="none" stroke="midnightblue" d="M64.427,-282.274C71.3774,-256.846 81.2271,-222.658 91.5,-193 96.8591,-177.528 103.098,-161.131 109.269,-145.616"/>
<polygon fill="none" stroke="midnightblue" points="60.9609,-281.683 61.7257,-292.251 67.7176,-283.513 60.9609,-281.683"/>
</g>
<!-- Node10 -->
<g id="node3" class="node"><title>Node10</title>
<g id="a_node3"><a doxygen="/media/alpha/Barracuda/cb_docs/src/wxTagFile.xml:http://docs.wxwidgets.org/3.0/" xlink:href="http://docs.wxwidgets.org/3.0/classwx_top_level_window.html" target="_top" xlink:title="{wxTopLevelWindow\n||}">
<polygon fill="none" stroke="black" points="4,-486.5 4,-543.5 105,-543.5 105,-486.5 4,-486.5"/>
<text text-anchor="middle" x="54.5" y="-531.5" font-family="FreeSans" font-size="10.00">wxTopLevelWindow</text>
<polyline fill="none" stroke="black" points="4,-524.5 105,-524.5 "/>
<text text-anchor="middle" x="54.5" y="-512.5" font-family="FreeSans" font-size="10.00"> </text>
<polyline fill="none" stroke="black" points="4,-505.5 105,-505.5 "/>
<text text-anchor="middle" x="54.5" y="-493.5" font-family="FreeSans" font-size="10.00"> </text>
</a>
</g>
</g>
<!-- Node10&#45;&gt;Node9 -->
<g id="edge2" class="edge"><title>Node10&#45;&gt;Node9</title>
<path fill="none" stroke="midnightblue" d="M54.5,-476.057C54.5,-438.852 54.5,-383.014 54.5,-349.769"/>
<polygon fill="none" stroke="midnightblue" points="51.0001,-476.491 54.5,-486.491 58.0001,-476.491 51.0001,-476.491"/>
</g>
<!-- Node11 -->
<g id="node4" class="node"><title>Node11</title>
<g id="a_node4"><a doxygen="/media/alpha/Barracuda/cb_docs/src/wxTagFile.xml:http://docs.wxwidgets.org/3.0/" xlink:href="http://docs.wxwidgets.org/3.0/classwx_non_owned_window.html" target="_top" xlink:title="{wxNonOwnedWindow\n||}">
<polygon fill="none" stroke="red" points="0,-581.5 0,-638.5 109,-638.5 109,-581.5 0,-581.5"/>
<text text-anchor="middle" x="54.5" y="-626.5" font-family="FreeSans" font-size="10.00">wxNonOwnedWindow</text>
<polyline fill="none" stroke="red" points="0,-619.5 109,-619.5 "/>
<text text-anchor="middle" x="54.5" y="-607.5" font-family="FreeSans" font-size="10.00"> </text>
<polyline fill="none" stroke="red" points="0,-600.5 109,-600.5 "/>
<text text-anchor="middle" x="54.5" y="-588.5" font-family="FreeSans" font-size="10.00"> </text>
</a>
</g>
</g>
<!-- Node11&#45;&gt;Node10 -->
<g id="edge3" class="edge"><title>Node11&#45;&gt;Node10</title>
<path fill="none" stroke="midnightblue" d="M54.5,-571.235C54.5,-562.028 54.5,-552.346 54.5,-543.705"/>
<polygon fill="none" stroke="midnightblue" points="51.0001,-571.349 54.5,-581.349 58.0001,-571.349 51.0001,-571.349"/>
</g>
<!-- Node16 -->
<g id="node5" class="node"><title>Node16</title>
<g id="a_node5"><a doxygen="/media/alpha/Barracuda/cb_docs/src/wxTagFile.xml:http://docs.wxwidgets.org/3.0/" xlink:href="http://docs.wxwidgets.org/3.0/classwx_timer.html" target="_top" xlink:title="{wxTimer\n||+ wxTimer()\l+ wxTimer()\l+ ~wxTimer()\l+ GetId()\l+ GetInterval()\l+ GetOwner()\l+ IsOneShot()\l+ IsRunning()\land 5 more...\l}">
<polygon fill="none" stroke="black" points="100.5,-248.5 100.5,-393.5 178.5,-393.5 178.5,-248.5 100.5,-248.5"/>
<text text-anchor="middle" x="139.5" y="-381.5" font-family="FreeSans" font-size="10.00">wxTimer</text>
<polyline fill="none" stroke="black" points="100.5,-374.5 178.5,-374.5 "/>
<text text-anchor="middle" x="139.5" y="-362.5" font-family="FreeSans" font-size="10.00"> </text>
<polyline fill="none" stroke="black" points="100.5,-355.5 178.5,-355.5 "/>
<text text-anchor="start" x="108.5" y="-343.5" font-family="FreeSans" font-size="10.00">+ wxTimer()</text>
<text text-anchor="start" x="108.5" y="-332.5" font-family="FreeSans" font-size="10.00">+ wxTimer()</text>
<text text-anchor="start" x="108.5" y="-321.5" font-family="FreeSans" font-size="10.00">+ ~wxTimer()</text>
<text text-anchor="start" x="108.5" y="-310.5" font-family="FreeSans" font-size="10.00">+ GetId()</text>
<text text-anchor="start" x="108.5" y="-299.5" font-family="FreeSans" font-size="10.00">+ GetInterval()</text>
<text text-anchor="start" x="108.5" y="-288.5" font-family="FreeSans" font-size="10.00">+ GetOwner()</text>
<text text-anchor="start" x="108.5" y="-277.5" font-family="FreeSans" font-size="10.00">+ IsOneShot()</text>
<text text-anchor="start" x="108.5" y="-266.5" font-family="FreeSans" font-size="10.00">+ IsRunning()</text>
<text text-anchor="start" x="108.5" y="-255.5" font-family="FreeSans" font-size="10.00">and 5 more...</text>
</a>
</g>
</g>
<!-- Node16&#45;&gt;Node8 -->
<g id="edge4" class="edge"><title>Node16&#45;&gt;Node8</title>
<path fill="none" stroke="#404040" d="M139.5,-248.185C139.5,-220.017 139.5,-187.489 139.5,-158.224"/>
<polygon fill="none" stroke="#404040" points="139.5,-157.904 135.5,-151.904 139.5,-145.904 143.5,-151.904 139.5,-157.904"/>
<text text-anchor="middle" x="160" y="-167" font-family="FreeSans" font-size="10.00"> &#45;m_timer</text>
</g>
<!-- Node13 -->
<g id="node6" class="node"><title>Node13</title>
<g id="a_node6"><a doxygen="/media/alpha/Barracuda/cb_docs/src/wxTagFile.xml:http://docs.wxwidgets.org/3.0/" xlink:href="http://docs.wxwidgets.org/3.0/classwx_evt_handler.html" target="_top" xlink:title="{wxEvtHandler\n||}">
<polygon fill="none" stroke="red" points="124.5,-486.5 124.5,-543.5 198.5,-543.5 198.5,-486.5 124.5,-486.5"/>
<text text-anchor="middle" x="161.5" y="-531.5" font-family="FreeSans" font-size="10.00">wxEvtHandler</text>
<polyline fill="none" stroke="red" points="124.5,-524.5 198.5,-524.5 "/>
<text text-anchor="middle" x="161.5" y="-512.5" font-family="FreeSans" font-size="10.00"> </text>
<polyline fill="none" stroke="red" points="124.5,-505.5 198.5,-505.5 "/>
<text text-anchor="middle" x="161.5" y="-493.5" font-family="FreeSans" font-size="10.00"> </text>
</a>
</g>
</g>
<!-- Node13&#45;&gt;Node16 -->
<g id="edge5" class="edge"><title>Node13&#45;&gt;Node16</title>
<path fill="none" stroke="midnightblue" d="M157.176,-476.263C154.485,-452.775 150.936,-421.803 147.724,-393.777"/>
<polygon fill="none" stroke="midnightblue" points="153.732,-476.955 158.348,-486.491 160.687,-476.158 153.732,-476.955"/>
</g>
<!-- Node14 -->
<g id="node7" class="node"><title>Node14</title>
<g id="a_node7"><a doxygen="/media/alpha/Barracuda/cb_docs/src/wxTagFile.xml:http://docs.wxwidgets.org/3.0/" xlink:href="http://docs.wxwidgets.org/3.0/classwx_object.html" target="_top" xlink:title="{wxObject\n||}">
<polygon fill="none" stroke="black" points="179.5,-581.5 179.5,-638.5 235.5,-638.5 235.5,-581.5 179.5,-581.5"/>
<text text-anchor="middle" x="207.5" y="-626.5" font-family="FreeSans" font-size="10.00">wxObject</text>
<polyline fill="none" stroke="black" points="179.5,-619.5 235.5,-619.5 "/>
<text text-anchor="middle" x="207.5" y="-607.5" font-family="FreeSans" font-size="10.00"> </text>
<polyline fill="none" stroke="black" points="179.5,-600.5 235.5,-600.5 "/>
<text text-anchor="middle" x="207.5" y="-588.5" font-family="FreeSans" font-size="10.00"> </text>
</a>
</g>
</g>
<!-- Node14&#45;&gt;Node13 -->
<g id="edge6" class="edge"><title>Node14&#45;&gt;Node13</title>
<path fill="none" stroke="midnightblue" d="M189.261,-572.125C184.576,-562.653 179.615,-552.625 175.204,-543.705"/>
<polygon fill="none" stroke="midnightblue" points="186.252,-573.937 193.823,-581.349 192.527,-570.833 186.252,-573.937"/>
</g>
<!-- Node18 -->
<g id="node9" class="node"><title>Node18</title>
<g id="a_node9"><a doxygen="/media/alpha/Barracuda/cb_docs/src/wxTagFile.xml:http://docs.wxwidgets.org/3.0/" xlink:href="http://docs.wxwidgets.org/3.0/classwx_g_d_i_object.html" target="_top" xlink:title="{wxGDIObject\n||}">
<polygon fill="none" stroke="black" points="217.5,-486.5 217.5,-543.5 291.5,-543.5 291.5,-486.5 217.5,-486.5"/>
<text text-anchor="middle" x="254.5" y="-531.5" font-family="FreeSans" font-size="10.00">wxGDIObject</text>
<polyline fill="none" stroke="black" points="217.5,-524.5 291.5,-524.5 "/>
<text text-anchor="middle" x="254.5" y="-512.5" font-family="FreeSans" font-size="10.00"> </text>
<polyline fill="none" stroke="black" points="217.5,-505.5 291.5,-505.5 "/>
<text text-anchor="middle" x="254.5" y="-493.5" font-family="FreeSans" font-size="10.00"> </text>
</a>
</g>
</g>
<!-- Node14&#45;&gt;Node18 -->
<g id="edge9" class="edge"><title>Node14&#45;&gt;Node18</title>
<path fill="none" stroke="midnightblue" d="M225.986,-572.421C230.817,-562.862 235.944,-552.718 240.498,-543.705"/>
<polygon fill="none" stroke="midnightblue" points="222.861,-570.845 221.474,-581.349 229.109,-574.002 222.861,-570.845"/>
</g>
<!-- Node17 -->
<g id="node8" class="node"><title>Node17</title>
<g id="a_node8"><a doxygen="/media/alpha/Barracuda/cb_docs/src/wxTagFile.xml:http://docs.wxwidgets.org/3.0/" xlink:href="http://docs.wxwidgets.org/3.0/classwx_bitmap.html" target="_top" xlink:title="{wxBitmap\n||+ wxBitmap()\l+ wxBitmap()\l+ wxBitmap()\l+ wxBitmap()\l+ wxBitmap()\l+ wxBitmap()\l+ wxBitmap()\l+ wxBitmap()\land 22 more...\l+ AddHandler()\l+ CleanUpHandlers()\l+ FindHandler()\l+ FindHandler()\l+ FindHandler()\l+ GetHandlers()\l+ InitStandardHandlers()\l+ InsertHandler()\l+ NewFromPNGData()\l+ RemoveHandler()\l}">
<polygon fill="none" stroke="black" points="197,-193.5 197,-448.5 318,-448.5 318,-193.5 197,-193.5"/>
<text text-anchor="middle" x="257.5" y="-436.5" font-family="FreeSans" font-size="10.00">wxBitmap</text>
<polyline fill="none" stroke="black" points="197,-429.5 318,-429.5 "/>
<text text-anchor="middle" x="257.5" y="-417.5" font-family="FreeSans" font-size="10.00"> </text>
<polyline fill="none" stroke="black" points="197,-410.5 318,-410.5 "/>
<text text-anchor="start" x="205" y="-398.5" font-family="FreeSans" font-size="10.00">+ wxBitmap()</text>
<text text-anchor="start" x="205" y="-387.5" font-family="FreeSans" font-size="10.00">+ wxBitmap()</text>
<text text-anchor="start" x="205" y="-376.5" font-family="FreeSans" font-size="10.00">+ wxBitmap()</text>
<text text-anchor="start" x="205" y="-365.5" font-family="FreeSans" font-size="10.00">+ wxBitmap()</text>
<text text-anchor="start" x="205" y="-354.5" font-family="FreeSans" font-size="10.00">+ wxBitmap()</text>
<text text-anchor="start" x="205" y="-343.5" font-family="FreeSans" font-size="10.00">+ wxBitmap()</text>
<text text-anchor="start" x="205" y="-332.5" font-family="FreeSans" font-size="10.00">+ wxBitmap()</text>
<text text-anchor="start" x="205" y="-321.5" font-family="FreeSans" font-size="10.00">+ wxBitmap()</text>
<text text-anchor="start" x="205" y="-310.5" font-family="FreeSans" font-size="10.00">and 22 more...</text>
<text text-anchor="start" x="205" y="-299.5" font-family="FreeSans" font-size="10.00">+ AddHandler()</text>
<text text-anchor="start" x="205" y="-288.5" font-family="FreeSans" font-size="10.00">+ CleanUpHandlers()</text>
<text text-anchor="start" x="205" y="-277.5" font-family="FreeSans" font-size="10.00">+ FindHandler()</text>
<text text-anchor="start" x="205" y="-266.5" font-family="FreeSans" font-size="10.00">+ FindHandler()</text>
<text text-anchor="start" x="205" y="-255.5" font-family="FreeSans" font-size="10.00">+ FindHandler()</text>
<text text-anchor="start" x="205" y="-244.5" font-family="FreeSans" font-size="10.00">+ GetHandlers()</text>
<text text-anchor="start" x="205" y="-233.5" font-family="FreeSans" font-size="10.00">+ InitStandardHandlers()</text>
<text text-anchor="start" x="205" y="-222.5" font-family="FreeSans" font-size="10.00">+ InsertHandler()</text>
<text text-anchor="start" x="205" y="-211.5" font-family="FreeSans" font-size="10.00">+ NewFromPNGData()</text>
<text text-anchor="start" x="205" y="-200.5" font-family="FreeSans" font-size="10.00">+ RemoveHandler()</text>
</a>
</g>
</g>
<!-- Node17&#45;&gt;Node8 -->
<g id="edge7" class="edge"><title>Node17&#45;&gt;Node8</title>
<path fill="none" stroke="#404040" d="M198.613,-193.435C193.869,-183.46 189.124,-173.555 184.5,-164 183.325,-161.572 182.129,-159.11 180.917,-156.627"/>
<polygon fill="none" stroke="#404040" points="180.813,-156.414 174.58,-152.788 175.53,-145.64 181.763,-149.266 180.813,-156.414"/>
<text text-anchor="middle" x="209.5" y="-167" font-family="FreeSans" font-size="10.00"> &#45;m_label</text>
</g>
<!-- Node18&#45;&gt;Node17 -->
<g id="edge8" class="edge"><title>Node18&#45;&gt;Node17</title>
<path fill="none" stroke="midnightblue" d="M255.088,-476.391C255.219,-467.982 255.365,-458.609 255.519,-448.753"/>
<polygon fill="none" stroke="midnightblue" points="251.587,-476.438 254.93,-486.491 258.586,-476.547 251.587,-476.438"/>
</g>
</g>
</svg>
