<?xml version="1.0" encoding="UTF-8" standalone="no"?>
<!DOCTYPE svg PUBLIC "-//W3C//DTD SVG 1.1//EN"
 "http://www.w3.org/Graphics/SVG/1.1/DTD/svg11.dtd">
<!-- Generated by graphviz version 2.38.0 (20140413.2041)
 -->
<!-- Title: CompilerKeilCX51 Pages: 1 -->
<svg width="816pt" height="1484pt"
 viewBox="0.00 0.00 815.50 1484.00" xmlns="http://www.w3.org/2000/svg" xmlns:xlink="http://www.w3.org/1999/xlink">
<g id="graph0" class="graph" transform="scale(1 1) rotate(0) translate(4 1480)">
<title>CompilerKeilCX51</title>
<!-- Node1 -->
<g id="node1" class="node"><title>Node1</title>
<polygon fill="#bfbfbf" stroke="black" points="315,-0.5 315,-79.5 430,-79.5 430,-0.5 315,-0.5"/>
<text text-anchor="middle" x="372.5" y="-67.5" font-family="FreeSans" font-size="10.00">CompilerKeilCX51</text>
<polyline fill="none" stroke="black" points="315,-60.5 430,-60.5 "/>
<text text-anchor="middle" x="372.5" y="-48.5" font-family="FreeSans" font-size="10.00"> </text>
<polyline fill="none" stroke="black" points="315,-41.5 430,-41.5 "/>
<text text-anchor="start" x="323" y="-29.5" font-family="FreeSans" font-size="10.00">+ CompilerKeilCX51()</text>
<text text-anchor="start" x="323" y="-18.5" font-family="FreeSans" font-size="10.00">+ ~CompilerKeilCX51()</text>
<text text-anchor="start" x="323" y="-7.5" font-family="FreeSans" font-size="10.00"># CreateCopy()</text>
</g>
<!-- Node2 -->
<g id="node2" class="node"><title>Node2</title>
<g id="a_node2"><a xlink:href="classCompilerKeilC51" target="_top" xlink:title="{CompilerKeilC51\n||+ CompilerKeilC51()\l+ ~CompilerKeilC51()\l+ AutoDetectInstallationDir()\l# CompilerKeilC51()\l# CreateCopy()\l# AutoDetectInstallationDir()\l}">
<polygon fill="none" stroke="black" points="303.5,-117.5 303.5,-229.5 441.5,-229.5 441.5,-117.5 303.5,-117.5"/>
<text text-anchor="middle" x="372.5" y="-217.5" font-family="FreeSans" font-size="10.00">CompilerKeilC51</text>
<polyline fill="none" stroke="black" points="303.5,-210.5 441.5,-210.5 "/>
<text text-anchor="middle" x="372.5" y="-198.5" font-family="FreeSans" font-size="10.00"> </text>
<polyline fill="none" stroke="black" points="303.5,-191.5 441.5,-191.5 "/>
<text text-anchor="start" x="311.5" y="-179.5" font-family="FreeSans" font-size="10.00">+ CompilerKeilC51()</text>
<text text-anchor="start" x="311.5" y="-168.5" font-family="FreeSans" font-size="10.00">+ ~CompilerKeilC51()</text>
<text text-anchor="start" x="311.5" y="-157.5" font-family="FreeSans" font-size="10.00">+ AutoDetectInstallationDir()</text>
<text text-anchor="start" x="311.5" y="-146.5" font-family="FreeSans" font-size="10.00"># CompilerKeilC51()</text>
<text text-anchor="start" x="311.5" y="-135.5" font-family="FreeSans" font-size="10.00"># CreateCopy()</text>
<text text-anchor="start" x="311.5" y="-124.5" font-family="FreeSans" font-size="10.00"># AutoDetectInstallationDir()</text>
</a>
</g>
</g>
<!-- Node2&#45;&gt;Node1 -->
<g id="edge1" class="edge"><title>Node2&#45;&gt;Node1</title>
<path fill="none" stroke="midnightblue" d="M372.5,-107.32C372.5,-97.9041 372.5,-88.4729 372.5,-79.7985"/>
<polygon fill="none" stroke="midnightblue" points="369,-107.494 372.5,-117.494 376,-107.494 369,-107.494"/>
</g>
<!-- Node3 -->
<g id="node3" class="node"><title>Node3</title>
<g id="a_node3"><a xlink:href="classCompiler" target="_top" xlink:title="Abstract base class for compilers. ">
<polygon fill="none" stroke="black" points="295,-267.5 295,-698.5 450,-698.5 450,-267.5 295,-267.5"/>
<text text-anchor="middle" x="372.5" y="-686.5" font-family="FreeSans" font-size="10.00">Compiler</text>
<polyline fill="none" stroke="black" points="295,-679.5 450,-679.5 "/>
<text text-anchor="start" x="303" y="-667.5" font-family="FreeSans" font-size="10.00">+ FilePathWithSpaces</text>
<text text-anchor="start" x="303" y="-656.5" font-family="FreeSans" font-size="10.00">+ CommandTypeDescriptions</text>
<text text-anchor="start" x="303" y="-645.5" font-family="FreeSans" font-size="10.00"># m_Name</text>
<text text-anchor="start" x="303" y="-634.5" font-family="FreeSans" font-size="10.00"># m_MasterPath</text>
<text text-anchor="start" x="303" y="-623.5" font-family="FreeSans" font-size="10.00"># m_ExtraPaths</text>
<text text-anchor="start" x="303" y="-612.5" font-family="FreeSans" font-size="10.00"># m_ErrorFilename</text>
<text text-anchor="start" x="303" y="-601.5" font-family="FreeSans" font-size="10.00"># m_ErrorLine</text>
<text text-anchor="start" x="303" y="-590.5" font-family="FreeSans" font-size="10.00"># m_Error</text>
<text text-anchor="start" x="303" y="-579.5" font-family="FreeSans" font-size="10.00"># m_VersionString</text>
<text text-anchor="start" x="303" y="-568.5" font-family="FreeSans" font-size="10.00"># m_SortOptions</text>
<text text-anchor="start" x="303" y="-557.5" font-family="FreeSans" font-size="10.00"># m_Weight</text>
<text text-anchor="start" x="303" y="-546.5" font-family="FreeSans" font-size="10.00"># m_MultiLineMessages</text>
<text text-anchor="start" x="303" y="-535.5" font-family="FreeSans" font-size="10.00">&#45; m_ID</text>
<text text-anchor="start" x="303" y="-524.5" font-family="FreeSans" font-size="10.00">&#45; m_ParentID</text>
<text text-anchor="start" x="303" y="-513.5" font-family="FreeSans" font-size="10.00">&#45; m_Valid</text>
<text text-anchor="start" x="303" y="-502.5" font-family="FreeSans" font-size="10.00">&#45; m_NeedValidityCheck</text>
<text text-anchor="start" x="303" y="-491.5" font-family="FreeSans" font-size="10.00">&#45; m_Mirrored</text>
<text text-anchor="start" x="303" y="-480.5" font-family="FreeSans" font-size="10.00">&#45; m_CompilerIDs</text>
<polyline fill="none" stroke="black" points="295,-473.5 450,-473.5 "/>
<text text-anchor="start" x="303" y="-461.5" font-family="FreeSans" font-size="10.00">+ Compiler()</text>
<text text-anchor="start" x="303" y="-450.5" font-family="FreeSans" font-size="10.00">+ ~Compiler()</text>
<text text-anchor="start" x="303" y="-439.5" font-family="FreeSans" font-size="10.00">+ IsValid()</text>
<text text-anchor="start" x="303" y="-428.5" font-family="FreeSans" font-size="10.00">+ CheckForWarningsAndErrors()</text>
<text text-anchor="start" x="303" y="-417.5" font-family="FreeSans" font-size="10.00">+ GetLastErrorFilename()</text>
<text text-anchor="start" x="303" y="-406.5" font-family="FreeSans" font-size="10.00">+ GetLastErrorLine()</text>
<text text-anchor="start" x="303" y="-395.5" font-family="FreeSans" font-size="10.00">+ GetLastError()</text>
<text text-anchor="start" x="303" y="-384.5" font-family="FreeSans" font-size="10.00">+ GetName()</text>
<text text-anchor="start" x="303" y="-373.5" font-family="FreeSans" font-size="10.00">and 32 more...</text>
<text text-anchor="start" x="303" y="-362.5" font-family="FreeSans" font-size="10.00"># Compiler()</text>
<text text-anchor="start" x="303" y="-351.5" font-family="FreeSans" font-size="10.00"># CreateCopy()</text>
<text text-anchor="start" x="303" y="-340.5" font-family="FreeSans" font-size="10.00"># IsUniqueID()</text>
<text text-anchor="start" x="303" y="-329.5" font-family="FreeSans" font-size="10.00"># MakeValidID()</text>
<text text-anchor="start" x="303" y="-318.5" font-family="FreeSans" font-size="10.00"># LoadDefaultOptions()</text>
<text text-anchor="start" x="303" y="-307.5" font-family="FreeSans" font-size="10.00"># LoadRegExArray()</text>
<text text-anchor="start" x="303" y="-296.5" font-family="FreeSans" font-size="10.00"># EvalXMLCondition()</text>
<text text-anchor="start" x="303" y="-285.5" font-family="FreeSans" font-size="10.00"># GetExecName()</text>
<text text-anchor="start" x="303" y="-274.5" font-family="FreeSans" font-size="10.00"># MirrorCurrentSettings()</text>
</a>
</g>
</g>
<!-- Node3&#45;&gt;Node2 -->
<g id="edge2" class="edge"><title>Node3&#45;&gt;Node2</title>
<path fill="none" stroke="midnightblue" d="M372.5,-256.912C372.5,-247.223 372.5,-238.018 372.5,-229.513"/>
<polygon fill="none" stroke="midnightblue" points="369,-257.177 372.5,-267.177 376,-257.177 369,-257.177"/>
</g>
<!-- Node4 -->
<g id="node4" class="node"><title>Node4</title>
<g id="a_node4"><a xlink:href="classCompileOptionsBase" target="_top" xlink:title="This is a base class for all classes needing compilation parameters. ">
<polygon fill="none" stroke="black" points="0,-746.5 0,-979.5 149,-979.5 149,-746.5 0,-746.5"/>
<text text-anchor="middle" x="74.5" y="-967.5" font-family="FreeSans" font-size="10.00">CompileOptionsBase</text>
<polyline fill="none" stroke="black" points="0,-960.5 149,-960.5 "/>
<text text-anchor="start" x="8" y="-948.5" font-family="FreeSans" font-size="10.00"># m_Platform</text>
<text text-anchor="start" x="8" y="-937.5" font-family="FreeSans" font-size="10.00"># m_LinkerOptions</text>
<text text-anchor="start" x="8" y="-926.5" font-family="FreeSans" font-size="10.00"># m_LinkLibs</text>
<text text-anchor="start" x="8" y="-915.5" font-family="FreeSans" font-size="10.00"># m_CompilerOptions</text>
<text text-anchor="start" x="8" y="-904.5" font-family="FreeSans" font-size="10.00"># m_ResourceCompilerOptions</text>
<text text-anchor="start" x="8" y="-893.5" font-family="FreeSans" font-size="10.00"># m_IncludeDirs</text>
<text text-anchor="start" x="8" y="-882.5" font-family="FreeSans" font-size="10.00"># m_ResIncludeDirs</text>
<text text-anchor="start" x="8" y="-871.5" font-family="FreeSans" font-size="10.00"># m_LibDirs</text>
<text text-anchor="start" x="8" y="-860.5" font-family="FreeSans" font-size="10.00">and 6 more...</text>
<polyline fill="none" stroke="black" points="0,-853.5 149,-853.5 "/>
<text text-anchor="start" x="8" y="-841.5" font-family="FreeSans" font-size="10.00">+ CompileOptionsBase()</text>
<text text-anchor="start" x="8" y="-830.5" font-family="FreeSans" font-size="10.00">+ ~CompileOptionsBase()</text>
<text text-anchor="start" x="8" y="-819.5" font-family="FreeSans" font-size="10.00">+ AddPlatform()</text>
<text text-anchor="start" x="8" y="-808.5" font-family="FreeSans" font-size="10.00">+ RemovePlatform()</text>
<text text-anchor="start" x="8" y="-797.5" font-family="FreeSans" font-size="10.00">+ SetPlatforms()</text>
<text text-anchor="start" x="8" y="-786.5" font-family="FreeSans" font-size="10.00">+ GetPlatforms()</text>
<text text-anchor="start" x="8" y="-775.5" font-family="FreeSans" font-size="10.00">+ SupportsCurrentPlatform()</text>
<text text-anchor="start" x="8" y="-764.5" font-family="FreeSans" font-size="10.00">+ SetLinkerOptions()</text>
<text text-anchor="start" x="8" y="-753.5" font-family="FreeSans" font-size="10.00">and 56 more...</text>
</a>
</g>
</g>
<!-- Node4&#45;&gt;Node3 -->
<g id="edge3" class="edge"><title>Node4&#45;&gt;Node3</title>
<path fill="none" stroke="midnightblue" d="M155.122,-737.868C160.233,-730.742 165.382,-723.74 170.5,-717 209.356,-665.838 256.169,-611.444 294.942,-568.09"/>
<polygon fill="none" stroke="midnightblue" points="152.083,-736.103 149.144,-746.283 157.789,-740.158 152.083,-736.103"/>
</g>
<!-- Node5 -->
<g id="node5" class="node"><title>Node5</title>
<polygon fill="none" stroke="#bfbfbf" points="391,-1077 391,-1134 522,-1134 522,-1077 391,-1077"/>
<text text-anchor="middle" x="456.5" y="-1122" font-family="FreeSans" font-size="10.00">std::vector&lt; RegExStruct &gt;</text>
<polyline fill="none" stroke="#bfbfbf" points="391,-1115 522,-1115 "/>
<text text-anchor="middle" x="456.5" y="-1103" font-family="FreeSans" font-size="10.00"> </text>
<polyline fill="none" stroke="#bfbfbf" points="391,-1096 522,-1096 "/>
<text text-anchor="middle" x="456.5" y="-1084" font-family="FreeSans" font-size="10.00"> </text>
</g>
<!-- Node5&#45;&gt;Node3 -->
<g id="edge4" class="edge"><title>Node5&#45;&gt;Node3</title>
<path fill="none" stroke="#404040" d="M455.959,-1076.8C454.071,-1053.18 447.823,-1019.7 428.5,-998 413.901,-981.603 395.058,-998.007 382.5,-980 352.167,-936.506 348.7,-820.101 353.273,-710.987"/>
<polygon fill="none" stroke="#404040" points="353.284,-710.739 349.556,-704.566 353.82,-698.751 357.548,-704.923 353.284,-710.739"/>
<text text-anchor="middle" x="412" y="-860.5" font-family="FreeSans" font-size="10.00"> #m_RegExes</text>
</g>
<!-- Node7 -->
<g id="node7" class="node"><title>Node7</title>
<g id="a_node7"><a xlink:href="classCompiler#structCompiler_1_1MirrorSettings" target="_top" xlink:title="{Compiler::MirrorSettings\n|+ Name\l+ MasterPath\l+ ExtraPaths\l+ CompilerOptions_\l+ ResourceCompilerOptions\l+ LinkerOptions\l+ IncludeDirs\l+ ResIncludeDirs\land 5 more...\l|}">
<polygon fill="none" stroke="black" points="450,-790.5 450,-935.5 587,-935.5 587,-790.5 450,-790.5"/>
<text text-anchor="middle" x="518.5" y="-923.5" font-family="FreeSans" font-size="10.00">Compiler::MirrorSettings</text>
<polyline fill="none" stroke="black" points="450,-916.5 587,-916.5 "/>
<text text-anchor="start" x="458" y="-904.5" font-family="FreeSans" font-size="10.00">+ Name</text>
<text text-anchor="start" x="458" y="-893.5" font-family="FreeSans" font-size="10.00">+ MasterPath</text>
<text text-anchor="start" x="458" y="-882.5" font-family="FreeSans" font-size="10.00">+ ExtraPaths</text>
<text text-anchor="start" x="458" y="-871.5" font-family="FreeSans" font-size="10.00">+ CompilerOptions_</text>
<text text-anchor="start" x="458" y="-860.5" font-family="FreeSans" font-size="10.00">+ ResourceCompilerOptions</text>
<text text-anchor="start" x="458" y="-849.5" font-family="FreeSans" font-size="10.00">+ LinkerOptions</text>
<text text-anchor="start" x="458" y="-838.5" font-family="FreeSans" font-size="10.00">+ IncludeDirs</text>
<text text-anchor="start" x="458" y="-827.5" font-family="FreeSans" font-size="10.00">+ ResIncludeDirs</text>
<text text-anchor="start" x="458" y="-816.5" font-family="FreeSans" font-size="10.00">and 5 more...</text>
<polyline fill="none" stroke="black" points="450,-809.5 587,-809.5 "/>
<text text-anchor="middle" x="518.5" y="-797.5" font-family="FreeSans" font-size="10.00"> </text>
</a>
</g>
</g>
<!-- Node5&#45;&gt;Node7 -->
<g id="edge7" class="edge"><title>Node5&#45;&gt;Node7</title>
<path fill="none" stroke="#404040" d="M463.612,-1076.91C471.732,-1045.41 485.4,-992.398 497.064,-947.15"/>
<polygon fill="none" stroke="#404040" points="497.064,-947.15 494.689,-940.341 500.06,-935.53 502.435,-942.338 497.064,-947.15"/>
<text text-anchor="middle" x="506.5" y="-1001" font-family="FreeSans" font-size="10.00"> +RegExes</text>
</g>
<!-- Node6 -->
<g id="node6" class="node"><title>Node6</title>
<g id="a_node6"><a xlink:href="structRegExStruct" target="_top" xlink:title="{RegExStruct\n|+ desc\l+ lt\l+ msg\l+ filename\l+ line\l&#45; regex\l&#45; regexObject\l&#45; regexCompiled\l|+ RegExStruct()\l+ RegExStruct()\l+ RegExStruct()\l+ operator=()\l+ operator!=()\l+ operator==()\l+ GetRegExString()\l+ SetRegExString()\l+ HasRegEx()\l+ GetRegEx()\l&#45; CompileRegEx()\l}">
<polygon fill="none" stroke="black" points="406.5,-1231.5 406.5,-1475.5 506.5,-1475.5 506.5,-1231.5 406.5,-1231.5"/>
<text text-anchor="middle" x="456.5" y="-1463.5" font-family="FreeSans" font-size="10.00">RegExStruct</text>
<polyline fill="none" stroke="black" points="406.5,-1456.5 506.5,-1456.5 "/>
<text text-anchor="start" x="414.5" y="-1444.5" font-family="FreeSans" font-size="10.00">+ desc</text>
<text text-anchor="start" x="414.5" y="-1433.5" font-family="FreeSans" font-size="10.00">+ lt</text>
<text text-anchor="start" x="414.5" y="-1422.5" font-family="FreeSans" font-size="10.00">+ msg</text>
<text text-anchor="start" x="414.5" y="-1411.5" font-family="FreeSans" font-size="10.00">+ filename</text>
<text text-anchor="start" x="414.5" y="-1400.5" font-family="FreeSans" font-size="10.00">+ line</text>
<text text-anchor="start" x="414.5" y="-1389.5" font-family="FreeSans" font-size="10.00">&#45; regex</text>
<text text-anchor="start" x="414.5" y="-1378.5" font-family="FreeSans" font-size="10.00">&#45; regexObject</text>
<text text-anchor="start" x="414.5" y="-1367.5" font-family="FreeSans" font-size="10.00">&#45; regexCompiled</text>
<polyline fill="none" stroke="black" points="406.5,-1360.5 506.5,-1360.5 "/>
<text text-anchor="start" x="414.5" y="-1348.5" font-family="FreeSans" font-size="10.00">+ RegExStruct()</text>
<text text-anchor="start" x="414.5" y="-1337.5" font-family="FreeSans" font-size="10.00">+ RegExStruct()</text>
<text text-anchor="start" x="414.5" y="-1326.5" font-family="FreeSans" font-size="10.00">+ RegExStruct()</text>
<text text-anchor="start" x="414.5" y="-1315.5" font-family="FreeSans" font-size="10.00">+ operator=()</text>
<text text-anchor="start" x="414.5" y="-1304.5" font-family="FreeSans" font-size="10.00">+ operator!=()</text>
<text text-anchor="start" x="414.5" y="-1293.5" font-family="FreeSans" font-size="10.00">+ operator==()</text>
<text text-anchor="start" x="414.5" y="-1282.5" font-family="FreeSans" font-size="10.00">+ GetRegExString()</text>
<text text-anchor="start" x="414.5" y="-1271.5" font-family="FreeSans" font-size="10.00">+ SetRegExString()</text>
<text text-anchor="start" x="414.5" y="-1260.5" font-family="FreeSans" font-size="10.00">+ HasRegEx()</text>
<text text-anchor="start" x="414.5" y="-1249.5" font-family="FreeSans" font-size="10.00">+ GetRegEx()</text>
<text text-anchor="start" x="414.5" y="-1238.5" font-family="FreeSans" font-size="10.00">&#45; CompileRegEx()</text>
</a>
</g>
</g>
<!-- Node6&#45;&gt;Node5 -->
<g id="edge5" class="edge"><title>Node6&#45;&gt;Node5</title>
<path fill="none" stroke="#404040" d="M456.5,-1231.3C456.5,-1200.6 456.5,-1169.75 456.5,-1146.41"/>
<polygon fill="none" stroke="#404040" points="456.5,-1146.26 452.5,-1140.26 456.5,-1134.26 460.5,-1140.26 456.5,-1146.26"/>
<text text-anchor="middle" x="480.5" y="-1205" font-family="FreeSans" font-size="10.00"> +elements</text>
</g>
<!-- Node7&#45;&gt;Node3 -->
<g id="edge6" class="edge"><title>Node7&#45;&gt;Node3</title>
<path fill="none" stroke="#404040" d="M490.867,-790.457C480.283,-763.054 467.591,-730.194 454.507,-696.319"/>
<polygon fill="none" stroke="#404040" points="454.381,-695.993 448.488,-691.837 450.057,-684.799 455.95,-688.955 454.381,-695.993"/>
<text text-anchor="middle" x="484.5" y="-720" font-family="FreeSans" font-size="10.00"> &#45;m_Mirror</text>
</g>
<!-- Node8 -->
<g id="node8" class="node"><title>Node8</title>
<g id="a_node8"><a xlink:href="classCompilerOptions" target="_top" xlink:title="{CompilerOptions\n|&#45; m_Options\l|+ CompilerOptions()\l+ CompilerOptions()\l+ operator=()\l+ ~CompilerOptions()\l+ ClearOptions()\l+ AddOption()\l+ AddOption()\l+ RemoveOption()\land 5 more...\l}">
<polygon fill="none" stroke="black" points="265,-1033 265,-1178 372,-1178 372,-1033 265,-1033"/>
<text text-anchor="middle" x="318.5" y="-1166" font-family="FreeSans" font-size="10.00">CompilerOptions</text>
<polyline fill="none" stroke="black" points="265,-1159 372,-1159 "/>
<text text-anchor="start" x="273" y="-1147" font-family="FreeSans" font-size="10.00">&#45; m_Options</text>
<polyline fill="none" stroke="black" points="265,-1140 372,-1140 "/>
<text text-anchor="start" x="273" y="-1128" font-family="FreeSans" font-size="10.00">+ CompilerOptions()</text>
<text text-anchor="start" x="273" y="-1117" font-family="FreeSans" font-size="10.00">+ CompilerOptions()</text>
<text text-anchor="start" x="273" y="-1106" font-family="FreeSans" font-size="10.00">+ operator=()</text>
<text text-anchor="start" x="273" y="-1095" font-family="FreeSans" font-size="10.00">+ ~CompilerOptions()</text>
<text text-anchor="start" x="273" y="-1084" font-family="FreeSans" font-size="10.00">+ ClearOptions()</text>
<text text-anchor="start" x="273" y="-1073" font-family="FreeSans" font-size="10.00">+ AddOption()</text>
<text text-anchor="start" x="273" y="-1062" font-family="FreeSans" font-size="10.00">+ AddOption()</text>
<text text-anchor="start" x="273" y="-1051" font-family="FreeSans" font-size="10.00">+ RemoveOption()</text>
<text text-anchor="start" x="273" y="-1040" font-family="FreeSans" font-size="10.00">and 5 more...</text>
</a>
</g>
</g>
<!-- Node8&#45;&gt;Node3 -->
<g id="edge13" class="edge"><title>Node8&#45;&gt;Node3</title>
<path fill="none" stroke="#404040" d="M299.328,-1032.87C297.76,-1024.86 296.425,-1016.79 295.5,-1009 281.72,-892.926 278.851,-861.697 295.5,-746 297.171,-734.386 299.239,-722.568 301.611,-710.695"/>
<polygon fill="none" stroke="#404040" points="301.64,-710.559 298.944,-703.87 304.081,-698.81 306.777,-705.498 301.64,-710.559"/>
<text text-anchor="middle" x="323" y="-860.5" font-family="FreeSans" font-size="10.00"> #m_Options</text>
</g>
<!-- Node8&#45;&gt;Node7 -->
<g id="edge8" class="edge"><title>Node8&#45;&gt;Node7</title>
<path fill="none" stroke="#404040" d="M372.295,-1037.94C375.69,-1034.19 379.106,-1030.52 382.5,-1027 404.367,-1004.35 414.43,-1003.39 435.5,-980 445.146,-969.291 454.696,-957.455 463.695,-945.558"/>
<polygon fill="none" stroke="#404040" points="463.957,-945.206 464.326,-938.004 471.115,-935.574 470.747,-942.776 463.957,-945.206"/>
<text text-anchor="middle" x="436.5" y="-1001" font-family="FreeSans" font-size="10.00"> +Options</text>
</g>
<!-- Node9 -->
<g id="node9" class="node"><title>Node9</title>
<g id="a_node9"><a xlink:href="structCompilerSwitches" target="_top" xlink:title="Struct to keep switches. ">
<polygon fill="none" stroke="black" points="125.5,-1027.5 125.5,-1183.5 245.5,-1183.5 245.5,-1027.5 125.5,-1027.5"/>
<text text-anchor="middle" x="185.5" y="-1171.5" font-family="FreeSans" font-size="10.00">CompilerSwitches</text>
<polyline fill="none" stroke="black" points="125.5,-1164.5 245.5,-1164.5 "/>
<text text-anchor="start" x="133.5" y="-1152.5" font-family="FreeSans" font-size="10.00">+ includeDirs</text>
<text text-anchor="start" x="133.5" y="-1141.5" font-family="FreeSans" font-size="10.00">+ libDirs</text>
<text text-anchor="start" x="133.5" y="-1130.5" font-family="FreeSans" font-size="10.00">+ linkLibs</text>
<text text-anchor="start" x="133.5" y="-1119.5" font-family="FreeSans" font-size="10.00">+ defines</text>
<text text-anchor="start" x="133.5" y="-1108.5" font-family="FreeSans" font-size="10.00">+ genericSwitch</text>
<text text-anchor="start" x="133.5" y="-1097.5" font-family="FreeSans" font-size="10.00">+ objectExtension</text>
<text text-anchor="start" x="133.5" y="-1086.5" font-family="FreeSans" font-size="10.00">+ forceFwdSlashes</text>
<text text-anchor="start" x="133.5" y="-1075.5" font-family="FreeSans" font-size="10.00">+ forceLinkerUseQuotes</text>
<text text-anchor="start" x="133.5" y="-1064.5" font-family="FreeSans" font-size="10.00">and 17 more...</text>
<text text-anchor="start" x="133.5" y="-1053.5" font-family="FreeSans" font-size="10.00">+ defaultLogging</text>
<polyline fill="none" stroke="black" points="125.5,-1046.5 245.5,-1046.5 "/>
<text text-anchor="start" x="133.5" y="-1034.5" font-family="FreeSans" font-size="10.00">+ CompilerSwitches()</text>
</a>
</g>
</g>
<!-- Node9&#45;&gt;Node3 -->
<g id="edge14" class="edge"><title>Node9&#45;&gt;Node3</title>
<path fill="none" stroke="#404040" d="M183.322,-1027.4C183.422,-953.461 189.364,-839.578 219.5,-746 235.495,-696.334 262.019,-645.875 288.53,-602.674"/>
<polygon fill="none" stroke="#404040" points="288.565,-602.619 288.336,-595.411 294.901,-592.428 295.13,-599.635 288.565,-602.619"/>
<text text-anchor="middle" x="250" y="-860.5" font-family="FreeSans" font-size="10.00"> #m_Switches</text>
</g>
<!-- Node9&#45;&gt;Node7 -->
<g id="edge9" class="edge"><title>Node9&#45;&gt;Node7</title>
<path fill="none" stroke="#404040" d="M245.6,-1033.98C248.829,-1031.48 252.134,-1029.14 255.5,-1027 292.756,-1003.32 307.754,-1009.03 350.5,-998 387.891,-988.354 403.183,-1001.14 435.5,-980 449.425,-970.893 461.758,-958.575 472.375,-945.36"/>
<polygon fill="none" stroke="#404040" points="472.53,-945.157 472.984,-937.96 479.802,-935.611 479.348,-942.808 472.53,-945.157"/>
<text text-anchor="middle" x="374.5" y="-1001" font-family="FreeSans" font-size="10.00"> +Switches</text>
</g>
<!-- Node10 -->
<g id="node10" class="node"><title>Node10</title>
<polygon fill="none" stroke="#bfbfbf" points="662.5,-1077 662.5,-1134 796.5,-1134 796.5,-1077 662.5,-1077"/>
<text text-anchor="middle" x="729.5" y="-1122" font-family="FreeSans" font-size="10.00">std::vector&lt; CompilerTool &gt;</text>
<polyline fill="none" stroke="#bfbfbf" points="662.5,-1115 796.5,-1115 "/>
<text text-anchor="middle" x="729.5" y="-1103" font-family="FreeSans" font-size="10.00"> </text>
<polyline fill="none" stroke="#bfbfbf" points="662.5,-1096 796.5,-1096 "/>
<text text-anchor="middle" x="729.5" y="-1084" font-family="FreeSans" font-size="10.00"> </text>
</g>
<!-- Node10&#45;&gt;Node3 -->
<g id="edge15" class="edge"><title>Node10&#45;&gt;Node3</title>
<path fill="none" stroke="#404040" d="M732.986,-1076.83C739.578,-1013.8 748.3,-856.455 688.5,-746 636.92,-650.727 535.164,-576.214 461.015,-531.403"/>
<polygon fill="none" stroke="#404040" points="460.592,-531.152 453.39,-531.516 450.284,-525.008 457.486,-524.644 460.592,-531.152"/>
<text text-anchor="middle" x="772.5" y="-860.5" font-family="FreeSans" font-size="10.00"> #m_Commands</text>
</g>
<!-- Node10&#45;&gt;Node7 -->
<g id="edge10" class="edge"><title>Node10&#45;&gt;Node7</title>
<path fill="none" stroke="#404040" d="M701.422,-1076.8C686.362,-1061.99 667.463,-1043.45 650.5,-1027 628.84,-1005.99 621.253,-1002.81 601.5,-980 592.129,-969.177 582.757,-957.327 573.863,-945.465"/>
<polygon fill="none" stroke="#404040" points="573.647,-945.171 566.864,-942.723 566.515,-935.52 573.298,-937.969 573.647,-945.171"/>
<text text-anchor="middle" x="658.5" y="-1001" font-family="FreeSans" font-size="10.00"> +Commands</text>
</g>
<!-- Node11 -->
<g id="node11" class="node"><title>Node11</title>
<g id="a_node11"><a xlink:href="structCompilerTool" target="_top" xlink:title="Struct for compiler/linker commands. ">
<polygon fill="none" stroke="black" points="685.5,-1297.5 685.5,-1409.5 773.5,-1409.5 773.5,-1297.5 685.5,-1297.5"/>
<text text-anchor="middle" x="729.5" y="-1397.5" font-family="FreeSans" font-size="10.00">CompilerTool</text>
<polyline fill="none" stroke="black" points="685.5,-1390.5 773.5,-1390.5 "/>
<text text-anchor="start" x="693.5" y="-1378.5" font-family="FreeSans" font-size="10.00">+ command</text>
<text text-anchor="start" x="693.5" y="-1367.5" font-family="FreeSans" font-size="10.00">+ extensions</text>
<text text-anchor="start" x="693.5" y="-1356.5" font-family="FreeSans" font-size="10.00">+ generatedFiles</text>
<polyline fill="none" stroke="black" points="685.5,-1349.5 773.5,-1349.5 "/>
<text text-anchor="start" x="693.5" y="-1337.5" font-family="FreeSans" font-size="10.00">+ CompilerTool()</text>
<text text-anchor="start" x="693.5" y="-1326.5" font-family="FreeSans" font-size="10.00">+ CompilerTool()</text>
<text text-anchor="start" x="693.5" y="-1315.5" font-family="FreeSans" font-size="10.00">+ operator==()</text>
<text text-anchor="start" x="693.5" y="-1304.5" font-family="FreeSans" font-size="10.00">+ operator!=()</text>
</a>
</g>
</g>
<!-- Node11&#45;&gt;Node10 -->
<g id="edge11" class="edge"><title>Node11&#45;&gt;Node10</title>
<path fill="none" stroke="#404040" d="M729.5,-1297.29C729.5,-1251.43 729.5,-1187.29 729.5,-1146.32"/>
<polygon fill="none" stroke="#404040" points="729.5,-1146.14 725.5,-1140.14 729.5,-1134.14 733.5,-1140.14 729.5,-1146.14"/>
<text text-anchor="middle" x="753.5" y="-1205" font-family="FreeSans" font-size="10.00"> +elements</text>
</g>
<!-- Node12 -->
<g id="node12" class="node"><title>Node12</title>
<g id="a_node12"><a xlink:href="compiler_8h#structCompilerPrograms" target="_top" xlink:title="Struct to keep programs. ">
<polygon fill="none" stroke="black" points="545.5,-1044 545.5,-1167 641.5,-1167 641.5,-1044 545.5,-1044"/>
<text text-anchor="middle" x="593.5" y="-1155" font-family="FreeSans" font-size="10.00">CompilerPrograms</text>
<polyline fill="none" stroke="black" points="545.5,-1148 641.5,-1148 "/>
<text text-anchor="start" x="553.5" y="-1136" font-family="FreeSans" font-size="10.00">+ C</text>
<text text-anchor="start" x="553.5" y="-1125" font-family="FreeSans" font-size="10.00">+ CPP</text>
<text text-anchor="start" x="553.5" y="-1114" font-family="FreeSans" font-size="10.00">+ LD</text>
<text text-anchor="start" x="553.5" y="-1103" font-family="FreeSans" font-size="10.00">+ LIB</text>
<text text-anchor="start" x="553.5" y="-1092" font-family="FreeSans" font-size="10.00">+ WINDRES</text>
<text text-anchor="start" x="553.5" y="-1081" font-family="FreeSans" font-size="10.00">+ MAKE</text>
<text text-anchor="start" x="553.5" y="-1070" font-family="FreeSans" font-size="10.00">+ DBGconfig</text>
<polyline fill="none" stroke="black" points="545.5,-1063 641.5,-1063 "/>
<text text-anchor="middle" x="593.5" y="-1051" font-family="FreeSans" font-size="10.00"> </text>
</a>
</g>
</g>
<!-- Node12&#45;&gt;Node3 -->
<g id="edge16" class="edge"><title>Node12&#45;&gt;Node3</title>
<path fill="none" stroke="#404040" d="M607.496,-1043.91C621.469,-970.496 635.752,-844.429 596.5,-746 567.328,-672.848 508.955,-605.67 459.112,-557.654"/>
<polygon fill="none" stroke="#404040" points="458.932,-557.483 451.828,-556.249 450.235,-549.216 457.339,-550.45 458.932,-557.483"/>
<text text-anchor="middle" x="653" y="-860.5" font-family="FreeSans" font-size="10.00"> #m_Programs</text>
</g>
<!-- Node12&#45;&gt;Node7 -->
<g id="edge12" class="edge"><title>Node12&#45;&gt;Node7</title>
<path fill="none" stroke="#404040" d="M571.217,-1043.83C567.181,-1032.31 563.11,-1020.32 559.5,-1009 553.186,-989.207 546.844,-967.741 541.099,-947.544"/>
<polygon fill="none" stroke="#404040" points="541.05,-947.37 535.57,-942.682 537.79,-935.821 543.269,-940.509 541.05,-947.37"/>
<text text-anchor="middle" x="584.5" y="-1001" font-family="FreeSans" font-size="10.00"> +Programs</text>
</g>
</g>
</svg>
