<?xml version="1.0" encoding="UTF-8" standalone="no"?>
<!DOCTYPE svg PUBLIC "-//W3C//DTD SVG 1.1//EN"
 "http://www.w3.org/Graphics/SVG/1.1/DTD/svg11.dtd">
<!-- Generated by graphviz version 2.38.0 (20140413.2041)
 -->
<!-- Title: HTMLFileLogger Pages: 1 -->
<svg width="163pt" height="441pt"
 viewBox="0.00 0.00 163.00 441.00" xmlns="http://www.w3.org/2000/svg" xmlns:xlink="http://www.w3.org/1999/xlink">
<g id="graph0" class="graph" transform="scale(1 1) rotate(0) translate(4 437)">
<title>HTMLFileLogger</title>
<!-- Node0 -->
<g id="node1" class="node"><title>Node0</title>
<polygon fill="#bfbfbf" stroke="black" points="26.5,-0.5 26.5,-101.5 128.5,-101.5 128.5,-0.5 26.5,-0.5"/>
<text text-anchor="middle" x="77.5" y="-89.5" font-family="FreeSans" font-size="10.00">HTMLFileLogger</text>
<polyline fill="none" stroke="black" points="26.5,-82.5 128.5,-82.5 "/>
<text text-anchor="start" x="34.5" y="-70.5" font-family="FreeSans" font-size="10.00">&#45; css</text>
<polyline fill="none" stroke="black" points="26.5,-63.5 128.5,-63.5 "/>
<text text-anchor="start" x="34.5" y="-51.5" font-family="FreeSans" font-size="10.00">+ HTMLFileLogger()</text>
<text text-anchor="start" x="34.5" y="-40.5" font-family="FreeSans" font-size="10.00">+ SetCSS()</text>
<text text-anchor="start" x="34.5" y="-29.5" font-family="FreeSans" font-size="10.00">+ Append()</text>
<text text-anchor="start" x="34.5" y="-18.5" font-family="FreeSans" font-size="10.00">+ Open()</text>
<text text-anchor="start" x="34.5" y="-7.5" font-family="FreeSans" font-size="10.00">+ Close()</text>
</g>
<!-- Node1 -->
<g id="node2" class="node"><title>Node1</title>
<g id="a_node2"><a xlink:href="classFileLogger" target="_top" xlink:title="a logger which prints messages to a file ">
<polygon fill="none" stroke="black" points="39.5,-138.5 39.5,-239.5 115.5,-239.5 115.5,-138.5 39.5,-138.5"/>
<text text-anchor="middle" x="77.5" y="-227.5" font-family="FreeSans" font-size="10.00">FileLogger</text>
<polyline fill="none" stroke="black" points="39.5,-220.5 115.5,-220.5 "/>
<text text-anchor="start" x="47.5" y="-208.5" font-family="FreeSans" font-size="10.00"># f</text>
<polyline fill="none" stroke="black" points="39.5,-201.5 115.5,-201.5 "/>
<text text-anchor="start" x="47.5" y="-189.5" font-family="FreeSans" font-size="10.00">+ FileLogger()</text>
<text text-anchor="start" x="47.5" y="-178.5" font-family="FreeSans" font-size="10.00">+ FileLogger()</text>
<text text-anchor="start" x="47.5" y="-167.5" font-family="FreeSans" font-size="10.00">+ Append()</text>
<text text-anchor="start" x="47.5" y="-156.5" font-family="FreeSans" font-size="10.00">+ Open()</text>
<text text-anchor="start" x="47.5" y="-145.5" font-family="FreeSans" font-size="10.00">+ Close()</text>
</a>
</g>
</g>
<!-- Node1&#45;&gt;Node0 -->
<g id="edge1" class="edge"><title>Node1&#45;&gt;Node0</title>
<path fill="none" stroke="midnightblue" d="M77.5,-128C77.5,-119.271 77.5,-110.363 77.5,-101.863"/>
<polygon fill="none" stroke="midnightblue" points="74.0001,-128.131 77.5,-138.131 81.0001,-128.131 74.0001,-128.131"/>
</g>
<!-- Node2 -->
<g id="node3" class="node"><title>Node2</title>
<g id="a_node3"><a xlink:href="classLogger" target="_top" xlink:title="The base class for all kinds of loggers, see loggers.h for its derived classes. ">
<polygon fill="none" stroke="black" points="0,-276.5 0,-432.5 155,-432.5 155,-276.5 0,-276.5"/>
<text text-anchor="middle" x="77.5" y="-420.5" font-family="FreeSans" font-size="10.00">Logger</text>
<polyline fill="none" stroke="black" points="0,-413.5 155,-413.5 "/>
<text text-anchor="middle" x="77.5" y="-401.5" font-family="FreeSans" font-size="10.00"> </text>
<polyline fill="none" stroke="black" points="0,-394.5 155,-394.5 "/>
<text text-anchor="start" x="8" y="-382.5" font-family="FreeSans" font-size="10.00">+ Logger()</text>
<text text-anchor="start" x="8" y="-371.5" font-family="FreeSans" font-size="10.00">+ ~Logger()</text>
<text text-anchor="start" x="8" y="-360.5" font-family="FreeSans" font-size="10.00">+ Append()</text>
<text text-anchor="start" x="8" y="-349.5" font-family="FreeSans" font-size="10.00">+ Clear()</text>
<text text-anchor="start" x="8" y="-338.5" font-family="FreeSans" font-size="10.00">+ CopyContentsToClipboard()</text>
<text text-anchor="start" x="8" y="-327.5" font-family="FreeSans" font-size="10.00">+ UpdateSettings()</text>
<text text-anchor="start" x="8" y="-316.5" font-family="FreeSans" font-size="10.00">+ CreateControl()</text>
<text text-anchor="start" x="8" y="-305.5" font-family="FreeSans" font-size="10.00">+ GetWrapMode()</text>
<text text-anchor="start" x="8" y="-294.5" font-family="FreeSans" font-size="10.00">+ HasFeature()</text>
<text text-anchor="start" x="8" y="-283.5" font-family="FreeSans" font-size="10.00">+ AppendAdditionalMenuItems()</text>
</a>
</g>
</g>
<!-- Node2&#45;&gt;Node1 -->
<g id="edge2" class="edge"><title>Node2&#45;&gt;Node1</title>
<path fill="none" stroke="midnightblue" d="M77.5,-265.897C77.5,-256.911 77.5,-248.02 77.5,-239.661"/>
<polygon fill="none" stroke="midnightblue" points="74.0001,-266.059 77.5,-276.059 81.0001,-266.059 74.0001,-266.059"/>
</g>
</g>
</svg>
