<?xml version="1.0" encoding="UTF-8" standalone="no"?>
<!DOCTYPE svg PUBLIC "-//W3C//DTD SVG 1.1//EN"
 "http://www.w3.org/Graphics/SVG/1.1/DTD/svg11.dtd">
<!-- Generated by graphviz version 2.40.1 (20161225.0304)
 -->
<!-- Title: wxScrollingDialog Pages: 1 -->
<svg width="117pt" height="359pt"
 viewBox="0.00 0.00 117.00 359.00" xmlns="http://www.w3.org/2000/svg" xmlns:xlink="http://www.w3.org/1999/xlink">
<g id="graph0" class="graph" transform="scale(1 1) rotate(0) translate(4 355)">
<title>wxScrollingDialog</title>
<!-- Node58 -->
<g id="node1" class="node">
<title>Node58</title>
<polygon fill="#bfbfbf" stroke="#000000" points="1,-.5 1,-68.5 108,-68.5 108,-.5 1,-.5"/>
<text text-anchor="middle" x="54.5" y="-56.5" font-family="FreeSans" font-size="10.00" fill="#000000">wxScrollingDialog</text>
<polyline fill="none" stroke="#000000" points="1,-49.5 108,-49.5 "/>
<text text-anchor="middle" x="54.5" y="-37.5" font-family="FreeSans" font-size="10.00" fill="#000000"> </text>
<polyline fill="none" stroke="#000000" points="1,-30.5 108,-30.5 "/>
<text text-anchor="start" x="9" y="-18.5" font-family="FreeSans" font-size="10.00" fill="#000000">+ wxScrollingDialog()</text>
<text text-anchor="start" x="9" y="-7.5" font-family="FreeSans" font-size="10.00" fill="#000000">+ wxScrollingDialog()</text>
</g>
<!-- Node59 -->
<g id="node2" class="node">
<title>Node59</title>
<g id="a_node2"><a doxygen="/media/alpha/Barracuda/cb_docs/src/wxTagFile.xml:http://docs.wxwidgets.org/3.0/" xlink:href="http://docs.wxwidgets.org/3.0/classwx_dialog.html" target="_top" xlink:title="{wxDialog\n||+ ShowModal()\l}">
<polygon fill="none" stroke="#000000" points="14,-105.5 14,-162.5 95,-162.5 95,-105.5 14,-105.5"/>
<text text-anchor="middle" x="54.5" y="-150.5" font-family="FreeSans" font-size="10.00" fill="#000000">wxDialog</text>
<polyline fill="none" stroke="#000000" points="14,-143.5 95,-143.5 "/>
<text text-anchor="middle" x="54.5" y="-131.5" font-family="FreeSans" font-size="10.00" fill="#000000"> </text>
<polyline fill="none" stroke="#000000" points="14,-124.5 95,-124.5 "/>
<text text-anchor="start" x="22" y="-112.5" font-family="FreeSans" font-size="10.00" fill="#000000">+ ShowModal()</text>
</a>
</g>
</g>
<!-- Node59&#45;&gt;Node58 -->
<g id="edge1" class="edge">
<title>Node59&#45;&gt;Node58</title>
<path fill="none" stroke="#191970" d="M54.5,-95.4268C54.5,-86.6025 54.5,-77.2834 54.5,-68.6596"/>
<polygon fill="none" stroke="#191970" points="51.0001,-95.4873 54.5,-105.4873 58.0001,-95.4873 51.0001,-95.4873"/>
</g>
<!-- Node60 -->
<g id="node3" class="node">
<title>Node60</title>
<g id="a_node3"><a doxygen="/media/alpha/Barracuda/cb_docs/src/wxTagFile.xml:http://docs.wxwidgets.org/3.0/" xlink:href="http://docs.wxwidgets.org/3.0/classwx_top_level_window.html" target="_top" xlink:title="{wxTopLevelWindow\n||}">
<polygon fill="none" stroke="#000000" points="4,-199.5 4,-256.5 105,-256.5 105,-199.5 4,-199.5"/>
<text text-anchor="middle" x="54.5" y="-244.5" font-family="FreeSans" font-size="10.00" fill="#000000">wxTopLevelWindow</text>
<polyline fill="none" stroke="#000000" points="4,-237.5 105,-237.5 "/>
<text text-anchor="middle" x="54.5" y="-225.5" font-family="FreeSans" font-size="10.00" fill="#000000"> </text>
<polyline fill="none" stroke="#000000" points="4,-218.5 105,-218.5 "/>
<text text-anchor="middle" x="54.5" y="-206.5" font-family="FreeSans" font-size="10.00" fill="#000000"> </text>
</a>
</g>
</g>
<!-- Node60&#45;&gt;Node59 -->
<g id="edge2" class="edge">
<title>Node60&#45;&gt;Node59</title>
<path fill="none" stroke="#191970" d="M54.5,-189.1035C54.5,-180.2052 54.5,-170.9073 54.5,-162.538"/>
<polygon fill="none" stroke="#191970" points="51.0001,-189.2861 54.5,-199.2861 58.0001,-189.2862 51.0001,-189.2861"/>
</g>
<!-- Node61 -->
<g id="node4" class="node">
<title>Node61</title>
<g id="a_node4"><a doxygen="/media/alpha/Barracuda/cb_docs/src/wxTagFile.xml:http://docs.wxwidgets.org/3.0/" xlink:href="http://docs.wxwidgets.org/3.0/classwx_non_owned_window.html" target="_top" xlink:title="{wxNonOwnedWindow\n||}">
<polygon fill="none" stroke="#ff0000" points="0,-293.5 0,-350.5 109,-350.5 109,-293.5 0,-293.5"/>
<text text-anchor="middle" x="54.5" y="-338.5" font-family="FreeSans" font-size="10.00" fill="#000000">wxNonOwnedWindow</text>
<polyline fill="none" stroke="#ff0000" points="0,-331.5 109,-331.5 "/>
<text text-anchor="middle" x="54.5" y="-319.5" font-family="FreeSans" font-size="10.00" fill="#000000"> </text>
<polyline fill="none" stroke="#ff0000" points="0,-312.5 109,-312.5 "/>
<text text-anchor="middle" x="54.5" y="-300.5" font-family="FreeSans" font-size="10.00" fill="#000000"> </text>
</a>
</g>
</g>
<!-- Node61&#45;&gt;Node60 -->
<g id="edge3" class="edge">
<title>Node61&#45;&gt;Node60</title>
<path fill="none" stroke="#191970" d="M54.5,-283.1035C54.5,-274.2052 54.5,-264.9073 54.5,-256.538"/>
<polygon fill="none" stroke="#191970" points="51.0001,-283.2861 54.5,-293.2861 58.0001,-283.2862 51.0001,-283.2861"/>
</g>
</g>
</svg>
