<?xml version="1.0" encoding="UTF-8" standalone="no"?>
<!DOCTYPE svg PUBLIC "-//W3C//DTD SVG 1.1//EN"
 "http://www.w3.org/Graphics/SVG/1.1/DTD/svg11.dtd">
<!-- Generated by graphviz version 2.38.0 (20140413.2041)
 -->
<!-- Title: CdbCmd_Disassembly Pages: 1 -->
<svg width="135pt" height="237pt"
 viewBox="0.00 0.00 135.00 237.00" xmlns="http://www.w3.org/2000/svg" xmlns:xlink="http://www.w3.org/1999/xlink">
<g id="graph0" class="graph" transform="scale(1 1) rotate(0) translate(4 233)">
<title>CdbCmd_Disassembly</title>
<polygon fill="white" stroke="none" points="-4,4 -4,-233 131,-233 131,4 -4,4"/>
<!-- Node1 -->
<g id="node1" class="node"><title>Node1</title>
<polygon fill="#bfbfbf" stroke="black" points="0,-0.5 0,-68.5 127,-68.5 127,-0.5 0,-0.5"/>
<text text-anchor="middle" x="63.5" y="-56.5" font-family="FreeSans" font-size="10.00">CdbCmd_Disassembly</text>
<polyline fill="none" stroke="black" points="0,-49.5 127,-49.5 "/>
<text text-anchor="middle" x="63.5" y="-37.5" font-family="FreeSans" font-size="10.00"> </text>
<polyline fill="none" stroke="black" points="0,-30.5 127,-30.5 "/>
<text text-anchor="start" x="8" y="-18.5" font-family="FreeSans" font-size="10.00">+ CdbCmd_Disassembly()</text>
<text text-anchor="start" x="8" y="-7.5" font-family="FreeSans" font-size="10.00">+ ParseOutput()</text>
</g>
<!-- Node2 -->
<g id="node2" class="node"><title>Node2</title>
<g id="a_node2"><a xlink:href="classDebuggerCmd.xhtml" target="_top" xlink:title="{DebuggerCmd\n|+ m_Cmd\l# m_pDriver\l# m_LogToNormalLog\l|+ DebuggerCmd()\l+ ~DebuggerCmd()\l+ Action()\l+ ParseOutput()\l+ IsContinueCommand()\l}">
<polygon fill="white" stroke="black" points="3,-105.5 3,-228.5 124,-228.5 124,-105.5 3,-105.5"/>
<text text-anchor="middle" x="63.5" y="-216.5" font-family="FreeSans" font-size="10.00">DebuggerCmd</text>
<polyline fill="none" stroke="black" points="3,-209.5 124,-209.5 "/>
<text text-anchor="start" x="11" y="-197.5" font-family="FreeSans" font-size="10.00">+ m_Cmd</text>
<text text-anchor="start" x="11" y="-186.5" font-family="FreeSans" font-size="10.00"># m_pDriver</text>
<text text-anchor="start" x="11" y="-175.5" font-family="FreeSans" font-size="10.00"># m_LogToNormalLog</text>
<polyline fill="none" stroke="black" points="3,-168.5 124,-168.5 "/>
<text text-anchor="start" x="11" y="-156.5" font-family="FreeSans" font-size="10.00">+ DebuggerCmd()</text>
<text text-anchor="start" x="11" y="-145.5" font-family="FreeSans" font-size="10.00">+ ~DebuggerCmd()</text>
<text text-anchor="start" x="11" y="-134.5" font-family="FreeSans" font-size="10.00">+ Action()</text>
<text text-anchor="start" x="11" y="-123.5" font-family="FreeSans" font-size="10.00">+ ParseOutput()</text>
<text text-anchor="start" x="11" y="-112.5" font-family="FreeSans" font-size="10.00">+ IsContinueCommand()</text>
</a>
</g>
</g>
<!-- Node2&#45;&gt;Node1 -->
<g id="edge1" class="edge"><title>Node2&#45;&gt;Node1</title>
<path fill="none" stroke="midnightblue" d="M63.5,-95.2438C63.5,-85.9655 63.5,-76.8368 63.5,-68.6152"/>
<polygon fill="none" stroke="midnightblue" points="60.0001,-95.3345 63.5,-105.335 67.0001,-95.3346 60.0001,-95.3345"/>
</g>
</g>
</svg>
