<?xml version="1.0" encoding="UTF-8" standalone="no"?>
<!DOCTYPE svg PUBLIC "-//W3C//DTD SVG 1.1//EN"
 "http://www.w3.org/Graphics/SVG/1.1/DTD/svg11.dtd">
<!-- Generated by graphviz version 2.38.0 (20140413.2041)
 -->
<!-- Title: WizProjectPathPanel Pages: 1 -->
<svg width="344pt" height="777pt"
 viewBox="0.00 0.00 344.00 777.00" xmlns="http://www.w3.org/2000/svg" xmlns:xlink="http://www.w3.org/1999/xlink">
<g id="graph0" class="graph" transform="scale(1 1) rotate(0) translate(4 773)">
<title>WizProjectPathPanel</title>
<!-- Node1 -->
<g id="node1" class="node"><title>Node1</title>
<polygon fill="#bfbfbf" stroke="black" points="154,-0.5 154,-145.5 282,-145.5 282,-0.5 154,-0.5"/>
<text text-anchor="middle" x="218" y="-133.5" font-family="FreeSans" font-size="10.00">WizProjectPathPanel</text>
<polyline fill="none" stroke="black" points="154,-126.5 282,-126.5 "/>
<text text-anchor="middle" x="218" y="-114.5" font-family="FreeSans" font-size="10.00"> </text>
<polyline fill="none" stroke="black" points="154,-107.5 282,-107.5 "/>
<text text-anchor="start" x="162" y="-95.5" font-family="FreeSans" font-size="10.00">+ WizProjectPathPanel()</text>
<text text-anchor="start" x="162" y="-84.5" font-family="FreeSans" font-size="10.00">+ ~WizProjectPathPanel()</text>
<text text-anchor="start" x="162" y="-73.5" font-family="FreeSans" font-size="10.00">+ GetPath()</text>
<text text-anchor="start" x="162" y="-62.5" font-family="FreeSans" font-size="10.00">+ GetName()</text>
<text text-anchor="start" x="162" y="-51.5" font-family="FreeSans" font-size="10.00">+ GetFullFileName()</text>
<text text-anchor="start" x="162" y="-40.5" font-family="FreeSans" font-size="10.00">+ GetTitle()</text>
<text text-anchor="start" x="162" y="-29.5" font-family="FreeSans" font-size="10.00">+ OnButton()</text>
<text text-anchor="start" x="162" y="-18.5" font-family="FreeSans" font-size="10.00">+ OnPageChanging()</text>
<text text-anchor="start" x="162" y="-7.5" font-family="FreeSans" font-size="10.00">+ OnPageChanged()</text>
</g>
<!-- Node2 -->
<g id="node2" class="node"><title>Node2</title>
<g id="a_node2"><a xlink:href="classWizPageBase" target="_top" xlink:title="{WizPageBase\n|&#45; m_PageName\l&#45; m_SkipPage\l|+ WizPageBase()\l+ ~WizPageBase()\l+ SkipPage()\l+ OnPageChanging()\l+ OnPageChanged()\l+ GetPrev()\l+ GetNext()\l+ GetPageName()\l+ GetSkipPage()\l+ SetSkipPage()\l}">
<polygon fill="none" stroke="black" points="86.5,-292.5 86.5,-459.5 193.5,-459.5 193.5,-292.5 86.5,-292.5"/>
<text text-anchor="middle" x="140" y="-447.5" font-family="FreeSans" font-size="10.00">WizPageBase</text>
<polyline fill="none" stroke="black" points="86.5,-440.5 193.5,-440.5 "/>
<text text-anchor="start" x="94.5" y="-428.5" font-family="FreeSans" font-size="10.00">&#45; m_PageName</text>
<text text-anchor="start" x="94.5" y="-417.5" font-family="FreeSans" font-size="10.00">&#45; m_SkipPage</text>
<polyline fill="none" stroke="black" points="86.5,-410.5 193.5,-410.5 "/>
<text text-anchor="start" x="94.5" y="-398.5" font-family="FreeSans" font-size="10.00">+ WizPageBase()</text>
<text text-anchor="start" x="94.5" y="-387.5" font-family="FreeSans" font-size="10.00">+ ~WizPageBase()</text>
<text text-anchor="start" x="94.5" y="-376.5" font-family="FreeSans" font-size="10.00">+ SkipPage()</text>
<text text-anchor="start" x="94.5" y="-365.5" font-family="FreeSans" font-size="10.00">+ OnPageChanging()</text>
<text text-anchor="start" x="94.5" y="-354.5" font-family="FreeSans" font-size="10.00">+ OnPageChanged()</text>
<text text-anchor="start" x="94.5" y="-343.5" font-family="FreeSans" font-size="10.00">+ GetPrev()</text>
<text text-anchor="start" x="94.5" y="-332.5" font-family="FreeSans" font-size="10.00">+ GetNext()</text>
<text text-anchor="start" x="94.5" y="-321.5" font-family="FreeSans" font-size="10.00">+ GetPageName()</text>
<text text-anchor="start" x="94.5" y="-310.5" font-family="FreeSans" font-size="10.00">+ GetSkipPage()</text>
<text text-anchor="start" x="94.5" y="-299.5" font-family="FreeSans" font-size="10.00">+ SetSkipPage()</text>
</a>
</g>
</g>
<!-- Node2&#45;&gt;Node1 -->
<g id="edge1" class="edge"><title>Node2&#45;&gt;Node1</title>
<path fill="none" stroke="midnightblue" d="M163.967,-282.51C175.37,-238.506 188.798,-186.69 199.415,-145.721"/>
<polygon fill="none" stroke="midnightblue" points="160.537,-281.794 161.417,-292.352 167.314,-283.55 160.537,-281.794"/>
</g>
<!-- Node3 -->
<g id="node3" class="node"><title>Node3</title>
<polygon fill="none" stroke="#bfbfbf" points="0,-606.5 0,-663.5 110,-663.5 110,-606.5 0,-606.5"/>
<text text-anchor="middle" x="55" y="-651.5" font-family="FreeSans" font-size="10.00">wxWizardPageSimple</text>
<polyline fill="none" stroke="#bfbfbf" points="0,-644.5 110,-644.5 "/>
<text text-anchor="middle" x="55" y="-632.5" font-family="FreeSans" font-size="10.00"> </text>
<polyline fill="none" stroke="#bfbfbf" points="0,-625.5 110,-625.5 "/>
<text text-anchor="middle" x="55" y="-613.5" font-family="FreeSans" font-size="10.00"> </text>
</g>
<!-- Node3&#45;&gt;Node2 -->
<g id="edge2" class="edge"><title>Node3&#45;&gt;Node2</title>
<path fill="none" stroke="midnightblue" d="M67.2485,-596.966C79.0604,-561.253 97.3453,-505.968 112.628,-459.759"/>
<polygon fill="none" stroke="midnightblue" points="63.9137,-595.903 64.0965,-606.496 70.5596,-598.101 63.9137,-595.903"/>
</g>
<!-- Node4 -->
<g id="node4" class="node"><title>Node4</title>
<g id="a_node4"><a xlink:title="STL class. ">
<polygon fill="none" stroke="#bfbfbf" points="128.5,-606.5 128.5,-663.5 215.5,-663.5 215.5,-606.5 128.5,-606.5"/>
<text text-anchor="middle" x="172" y="-651.5" font-family="FreeSans" font-size="10.00">std::map&lt; K, T &gt;</text>
<polyline fill="none" stroke="#bfbfbf" points="128.5,-644.5 215.5,-644.5 "/>
<text text-anchor="middle" x="172" y="-632.5" font-family="FreeSans" font-size="10.00"> </text>
<polyline fill="none" stroke="#bfbfbf" points="128.5,-625.5 215.5,-625.5 "/>
<text text-anchor="middle" x="172" y="-613.5" font-family="FreeSans" font-size="10.00"> </text>
</a>
</g>
</g>
<!-- Node4&#45;&gt;Node2 -->
<g id="edge3" class="edge"><title>Node4&#45;&gt;Node2</title>
<path fill="none" stroke="#404040" d="M168.575,-606.496C164.585,-574.445 157.774,-519.746 151.802,-471.788"/>
<polygon fill="none" stroke="#404040" points="151.787,-471.667 147.077,-466.207 150.305,-459.759 155.015,-465.219 151.787,-471.667"/>
<text text-anchor="middle" x="205.5" y="-580" font-family="FreeSans" font-size="10.00"> &#45;s_PagesByName</text>
</g>
<!-- Node5 -->
<g id="node5" class="node"><title>Node5</title>
<polygon fill="none" stroke="#bfbfbf" points="132.5,-711.5 132.5,-768.5 161.5,-768.5 161.5,-711.5 132.5,-711.5"/>
<text text-anchor="middle" x="147" y="-756.5" font-family="FreeSans" font-size="10.00">K</text>
<polyline fill="none" stroke="#bfbfbf" points="132.5,-749.5 161.5,-749.5 "/>
<text text-anchor="middle" x="147" y="-737.5" font-family="FreeSans" font-size="10.00"> </text>
<polyline fill="none" stroke="#bfbfbf" points="132.5,-730.5 161.5,-730.5 "/>
<text text-anchor="middle" x="147" y="-718.5" font-family="FreeSans" font-size="10.00"> </text>
</g>
<!-- Node5&#45;&gt;Node4 -->
<g id="edge4" class="edge"><title>Node5&#45;&gt;Node4</title>
<path fill="none" stroke="#404040" d="M144.939,-711.406C144.9,-701.956 145.608,-691.4 148,-682 148.583,-679.709 149.299,-677.403 150.114,-675.111"/>
<polygon fill="none" stroke="#404040" points="150.188,-674.937 148.843,-667.852 154.865,-663.886 156.21,-670.97 150.188,-674.937"/>
<text text-anchor="middle" x="162" y="-685" font-family="FreeSans" font-size="10.00"> +keys</text>
</g>
<!-- Node6 -->
<g id="node6" class="node"><title>Node6</title>
<polygon fill="none" stroke="#bfbfbf" points="183.5,-711.5 183.5,-768.5 212.5,-768.5 212.5,-711.5 183.5,-711.5"/>
<text text-anchor="middle" x="198" y="-756.5" font-family="FreeSans" font-size="10.00">T</text>
<polyline fill="none" stroke="#bfbfbf" points="183.5,-749.5 212.5,-749.5 "/>
<text text-anchor="middle" x="198" y="-737.5" font-family="FreeSans" font-size="10.00"> </text>
<polyline fill="none" stroke="#bfbfbf" points="183.5,-730.5 212.5,-730.5 "/>
<text text-anchor="middle" x="198" y="-718.5" font-family="FreeSans" font-size="10.00"> </text>
</g>
<!-- Node6&#45;&gt;Node4 -->
<g id="edge5" class="edge"><title>Node6&#45;&gt;Node4</title>
<path fill="none" stroke="#404040" d="M191.032,-711.398C188.264,-700.43 185.026,-687.603 182.014,-675.672"/>
<polygon fill="none" stroke="#404040" points="181.924,-675.313 176.577,-670.475 178.987,-663.678 184.334,-668.517 181.924,-675.313"/>
<text text-anchor="middle" x="210" y="-685" font-family="FreeSans" font-size="10.00"> +elements</text>
</g>
<!-- Node7 -->
<g id="node7" class="node"><title>Node7</title>
<g id="a_node7"><a xlink:href="classProjectPathPanel" target="_top" xlink:title="{ProjectPathPanel\n|+ ID_STATICTEXT1\l+ ID_STATICTEXT4\l+ ID_TEXTCTRL3\l+ ID_STATICTEXT2\l+ ID_TEXTCTRL1\l+ ID_BUTTON1\l+ ID_STATICTEXT3\l+ ID_TEXTCTRL2\l+ ID_STATICTEXT5\l+ ID_TEXTCTRL4\l&#45; m_LockUpdates\l&#45; txtPrjTitle\l&#45; txtPrjPath\l&#45; BoxSizer2\l&#45; BoxSizer1\l&#45; txtPrjName\l&#45; btnPrjPathBrowse\l&#45; txtFinalDir\l|+ ProjectPathPanel()\l+ ~ProjectPathPanel()\l+ SetPath()\l+ GetPath()\l+ GetName()\l+ GetFullFileName()\l+ GetTitle()\l&#45; Update()\l&#45; UpdateFromResulting()\l&#45; OnFullPathChanged()\l&#45; OntxtFinalDirText()\l&#45; OntxtPrjTitleText()\l}">
<polygon fill="none" stroke="black" points="211.5,-193.5 211.5,-558.5 332.5,-558.5 332.5,-193.5 211.5,-193.5"/>
<text text-anchor="middle" x="272" y="-546.5" font-family="FreeSans" font-size="10.00">ProjectPathPanel</text>
<polyline fill="none" stroke="black" points="211.5,-539.5 332.5,-539.5 "/>
<text text-anchor="start" x="219.5" y="-527.5" font-family="FreeSans" font-size="10.00">+ ID_STATICTEXT1</text>
<text text-anchor="start" x="219.5" y="-516.5" font-family="FreeSans" font-size="10.00">+ ID_STATICTEXT4</text>
<text text-anchor="start" x="219.5" y="-505.5" font-family="FreeSans" font-size="10.00">+ ID_TEXTCTRL3</text>
<text text-anchor="start" x="219.5" y="-494.5" font-family="FreeSans" font-size="10.00">+ ID_STATICTEXT2</text>
<text text-anchor="start" x="219.5" y="-483.5" font-family="FreeSans" font-size="10.00">+ ID_TEXTCTRL1</text>
<text text-anchor="start" x="219.5" y="-472.5" font-family="FreeSans" font-size="10.00">+ ID_BUTTON1</text>
<text text-anchor="start" x="219.5" y="-461.5" font-family="FreeSans" font-size="10.00">+ ID_STATICTEXT3</text>
<text text-anchor="start" x="219.5" y="-450.5" font-family="FreeSans" font-size="10.00">+ ID_TEXTCTRL2</text>
<text text-anchor="start" x="219.5" y="-439.5" font-family="FreeSans" font-size="10.00">+ ID_STATICTEXT5</text>
<text text-anchor="start" x="219.5" y="-428.5" font-family="FreeSans" font-size="10.00">+ ID_TEXTCTRL4</text>
<text text-anchor="start" x="219.5" y="-417.5" font-family="FreeSans" font-size="10.00">&#45; m_LockUpdates</text>
<text text-anchor="start" x="219.5" y="-406.5" font-family="FreeSans" font-size="10.00">&#45; txtPrjTitle</text>
<text text-anchor="start" x="219.5" y="-395.5" font-family="FreeSans" font-size="10.00">&#45; txtPrjPath</text>
<text text-anchor="start" x="219.5" y="-384.5" font-family="FreeSans" font-size="10.00">&#45; BoxSizer2</text>
<text text-anchor="start" x="219.5" y="-373.5" font-family="FreeSans" font-size="10.00">&#45; BoxSizer1</text>
<text text-anchor="start" x="219.5" y="-362.5" font-family="FreeSans" font-size="10.00">&#45; txtPrjName</text>
<text text-anchor="start" x="219.5" y="-351.5" font-family="FreeSans" font-size="10.00">&#45; btnPrjPathBrowse</text>
<text text-anchor="start" x="219.5" y="-340.5" font-family="FreeSans" font-size="10.00">&#45; txtFinalDir</text>
<polyline fill="none" stroke="black" points="211.5,-333.5 332.5,-333.5 "/>
<text text-anchor="start" x="219.5" y="-321.5" font-family="FreeSans" font-size="10.00">+ ProjectPathPanel()</text>
<text text-anchor="start" x="219.5" y="-310.5" font-family="FreeSans" font-size="10.00">+ ~ProjectPathPanel()</text>
<text text-anchor="start" x="219.5" y="-299.5" font-family="FreeSans" font-size="10.00">+ SetPath()</text>
<text text-anchor="start" x="219.5" y="-288.5" font-family="FreeSans" font-size="10.00">+ GetPath()</text>
<text text-anchor="start" x="219.5" y="-277.5" font-family="FreeSans" font-size="10.00">+ GetName()</text>
<text text-anchor="start" x="219.5" y="-266.5" font-family="FreeSans" font-size="10.00">+ GetFullFileName()</text>
<text text-anchor="start" x="219.5" y="-255.5" font-family="FreeSans" font-size="10.00">+ GetTitle()</text>
<text text-anchor="start" x="219.5" y="-244.5" font-family="FreeSans" font-size="10.00">&#45; Update()</text>
<text text-anchor="start" x="219.5" y="-233.5" font-family="FreeSans" font-size="10.00">&#45; UpdateFromResulting()</text>
<text text-anchor="start" x="219.5" y="-222.5" font-family="FreeSans" font-size="10.00">&#45; OnFullPathChanged()</text>
<text text-anchor="start" x="219.5" y="-211.5" font-family="FreeSans" font-size="10.00">&#45; OntxtFinalDirText()</text>
<text text-anchor="start" x="219.5" y="-200.5" font-family="FreeSans" font-size="10.00">&#45; OntxtPrjTitleText()</text>
</a>
</g>
</g>
<!-- Node7&#45;&gt;Node1 -->
<g id="edge6" class="edge"><title>Node7&#45;&gt;Node1</title>
<path fill="none" stroke="#404040" d="M239.42,-193.395C237.212,-181.086 235.055,-169.068 233.014,-157.688"/>
<polygon fill="none" stroke="#404040" points="232.966,-157.419 227.969,-152.22 230.847,-145.608 235.843,-150.807 232.966,-157.419"/>
<text text-anchor="middle" x="286" y="-167" font-family="FreeSans" font-size="10.00"> &#45;m_pProjectPathPanel</text>
</g>
<!-- Node8 -->
<g id="node8" class="node"><title>Node8</title>
<polygon fill="none" stroke="#bfbfbf" points="245.5,-606.5 245.5,-663.5 298.5,-663.5 298.5,-606.5 245.5,-606.5"/>
<text text-anchor="middle" x="272" y="-651.5" font-family="FreeSans" font-size="10.00">wxPanel</text>
<polyline fill="none" stroke="#bfbfbf" points="245.5,-644.5 298.5,-644.5 "/>
<text text-anchor="middle" x="272" y="-632.5" font-family="FreeSans" font-size="10.00"> </text>
<polyline fill="none" stroke="#bfbfbf" points="245.5,-625.5 298.5,-625.5 "/>
<text text-anchor="middle" x="272" y="-613.5" font-family="FreeSans" font-size="10.00"> </text>
</g>
<!-- Node8&#45;&gt;Node7 -->
<g id="edge7" class="edge"><title>Node8&#45;&gt;Node7</title>
<path fill="none" stroke="midnightblue" d="M272,-596.177C272,-585.231 272,-572.495 272,-558.774"/>
<polygon fill="none" stroke="midnightblue" points="268.5,-596.496 272,-606.496 275.5,-596.497 268.5,-596.496"/>
</g>
</g>
</svg>
