<?xml version="1.0" encoding="UTF-8" standalone="no"?>
<!DOCTYPE svg PUBLIC "-//W3C//DTD SVG 1.1//EN"
 "http://www.w3.org/Graphics/SVG/1.1/DTD/svg11.dtd">
<!-- Generated by graphviz version 2.38.0 (20140413.2041)
 -->
<!-- Title: TemplateManager Pages: 1 -->
<svg width="268pt" height="452pt"
 viewBox="0.00 0.00 267.50 452.00" xmlns="http://www.w3.org/2000/svg" xmlns:xlink="http://www.w3.org/1999/xlink">
<g id="graph0" class="graph" transform="scale(1 1) rotate(0) translate(4 448)">
<title>TemplateManager</title>
<!-- Node0 -->
<g id="node1" class="node"><title>Node0</title>
<polygon fill="#bfbfbf" stroke="black" points="42,-0.5 42,-178.5 204,-178.5 204,-0.5 42,-0.5"/>
<text text-anchor="middle" x="123" y="-166.5" font-family="FreeSans" font-size="10.00">TemplateManager</text>
<polyline fill="none" stroke="black" points="42,-159.5 204,-159.5 "/>
<text text-anchor="start" x="50" y="-147.5" font-family="FreeSans" font-size="10.00"># m_UserTemplates</text>
<polyline fill="none" stroke="black" points="42,-140.5 204,-140.5 "/>
<text text-anchor="start" x="50" y="-128.5" font-family="FreeSans" font-size="10.00">+ CreateMenu()</text>
<text text-anchor="start" x="50" y="-117.5" font-family="FreeSans" font-size="10.00">+ ReleaseMenu()</text>
<text text-anchor="start" x="50" y="-106.5" font-family="FreeSans" font-size="10.00">+ BuildToolsMenu()</text>
<text text-anchor="start" x="50" y="-95.5" font-family="FreeSans" font-size="10.00">+ New()</text>
<text text-anchor="start" x="50" y="-84.5" font-family="FreeSans" font-size="10.00">+ GetLastCreatedFilename()</text>
<text text-anchor="start" x="50" y="-73.5" font-family="FreeSans" font-size="10.00">+ SaveUserTemplate()</text>
<text text-anchor="start" x="50" y="-62.5" font-family="FreeSans" font-size="10.00"># LoadTemplates()</text>
<text text-anchor="start" x="50" y="-51.5" font-family="FreeSans" font-size="10.00"># LoadUserTemplates()</text>
<text text-anchor="start" x="50" y="-40.5" font-family="FreeSans" font-size="10.00"># NewFromTemplate()</text>
<text text-anchor="start" x="50" y="-29.5" font-family="FreeSans" font-size="10.00"># NewProjectFromUserTemplate()</text>
<text text-anchor="start" x="50" y="-18.5" font-family="FreeSans" font-size="10.00">&#45; TemplateManager()</text>
<text text-anchor="start" x="50" y="-7.5" font-family="FreeSans" font-size="10.00">&#45; ~TemplateManager()</text>
</g>
<!-- Node1 -->
<g id="node2" class="node"><title>Node1</title>
<g id="a_node2"><a xlink:href="classMgr" target="_top" xlink:title="{Mgr\&lt; TemplateManager \&gt;\n|&#45; instance\l&#45; isShutdown\l|+ Valid()\l+ Get()\l+ Free()\l# Mgr()\l# ~Mgr()\l&#45; Mgr()\l&#45; operator=()\l}">
<polygon fill="none" stroke="black" points="0,-215.5 0,-349.5 128,-349.5 128,-215.5 0,-215.5"/>
<text text-anchor="middle" x="64" y="-337.5" font-family="FreeSans" font-size="10.00">Mgr&lt; TemplateManager &gt;</text>
<polyline fill="none" stroke="black" points="0,-330.5 128,-330.5 "/>
<text text-anchor="start" x="8" y="-318.5" font-family="FreeSans" font-size="10.00">&#45; instance</text>
<text text-anchor="start" x="8" y="-307.5" font-family="FreeSans" font-size="10.00">&#45; isShutdown</text>
<polyline fill="none" stroke="black" points="0,-300.5 128,-300.5 "/>
<text text-anchor="start" x="8" y="-288.5" font-family="FreeSans" font-size="10.00">+ Valid()</text>
<text text-anchor="start" x="8" y="-277.5" font-family="FreeSans" font-size="10.00">+ Get()</text>
<text text-anchor="start" x="8" y="-266.5" font-family="FreeSans" font-size="10.00">+ Free()</text>
<text text-anchor="start" x="8" y="-255.5" font-family="FreeSans" font-size="10.00"># Mgr()</text>
<text text-anchor="start" x="8" y="-244.5" font-family="FreeSans" font-size="10.00"># ~Mgr()</text>
<text text-anchor="start" x="8" y="-233.5" font-family="FreeSans" font-size="10.00">&#45; Mgr()</text>
<text text-anchor="start" x="8" y="-222.5" font-family="FreeSans" font-size="10.00">&#45; operator=()</text>
</a>
</g>
</g>
<!-- Node1&#45;&gt;Node0 -->
<g id="edge1" class="edge"><title>Node1&#45;&gt;Node0</title>
<path fill="none" stroke="midnightblue" d="M87.4258,-205.664C90.1812,-196.744 93.0105,-187.585 95.8118,-178.516"/>
<polygon fill="none" stroke="midnightblue" points="84.0771,-204.646 84.4698,-215.234 90.7653,-206.712 84.0771,-204.646"/>
</g>
<!-- Node2 -->
<g id="node3" class="node"><title>Node2</title>
<g id="a_node3"><a doxygen="/media/alpha/Barracuda/cb_docs/src/wxTagFile.xml:http://docs.wxwidgets.org/3.0/" xlink:href="http://docs.wxwidgets.org/3.0/classwx_evt_handler.html" target="_top" xlink:title="{wxEvtHandler\n||}">
<polygon fill="none" stroke="black" points="146,-254 146,-311 220,-311 220,-254 146,-254"/>
<text text-anchor="middle" x="183" y="-299" font-family="FreeSans" font-size="10.00">wxEvtHandler</text>
<polyline fill="none" stroke="black" points="146,-292 220,-292 "/>
<text text-anchor="middle" x="183" y="-280" font-family="FreeSans" font-size="10.00"> </text>
<polyline fill="none" stroke="black" points="146,-273 220,-273 "/>
<text text-anchor="middle" x="183" y="-261" font-family="FreeSans" font-size="10.00"> </text>
</a>
</g>
</g>
<!-- Node2&#45;&gt;Node0 -->
<g id="edge2" class="edge"><title>Node2&#45;&gt;Node0</title>
<path fill="none" stroke="midnightblue" d="M171.257,-244.118C165.369,-225.373 157.966,-201.807 150.739,-178.802"/>
<polygon fill="none" stroke="midnightblue" points="167.939,-245.236 174.275,-253.727 174.618,-243.138 167.939,-245.236"/>
</g>
<!-- Node3 -->
<g id="node4" class="node"><title>Node3</title>
<g id="a_node4"><a doxygen="/media/alpha/Barracuda/cb_docs/src/wxTagFile.xml:http://docs.wxwidgets.org/3.0/" xlink:href="http://docs.wxwidgets.org/3.0/classwx_object.html" target="_top" xlink:title="{wxObject\n||}">
<polygon fill="none" stroke="black" points="114,-386.5 114,-443.5 170,-443.5 170,-386.5 114,-386.5"/>
<text text-anchor="middle" x="142" y="-431.5" font-family="FreeSans" font-size="10.00">wxObject</text>
<polyline fill="none" stroke="black" points="114,-424.5 170,-424.5 "/>
<text text-anchor="middle" x="142" y="-412.5" font-family="FreeSans" font-size="10.00"> </text>
<polyline fill="none" stroke="black" points="114,-405.5 170,-405.5 "/>
<text text-anchor="middle" x="142" y="-393.5" font-family="FreeSans" font-size="10.00"> </text>
</a>
</g>
</g>
<!-- Node3&#45;&gt;Node2 -->
<g id="edge3" class="edge"><title>Node3&#45;&gt;Node2</title>
<path fill="none" stroke="midnightblue" d="M153.778,-376.51C160.329,-355.659 168.341,-330.159 174.317,-311.136"/>
<polygon fill="none" stroke="midnightblue" points="150.353,-375.735 150.695,-386.324 157.032,-377.833 150.353,-375.735"/>
</g>
<!-- Node4 -->
<g id="node5" class="node"><title>Node4</title>
<g id="a_node5"><a doxygen="/media/alpha/Barracuda/cb_docs/src/wxTagFile.xml:http://docs.wxwidgets.org/3.0/" xlink:href="http://docs.wxwidgets.org/3.0/classwx_trackable.html" target="_top" xlink:title="{wxTrackable\n||}">
<polygon fill="none" stroke="black" points="188.5,-386.5 188.5,-443.5 259.5,-443.5 259.5,-386.5 188.5,-386.5"/>
<text text-anchor="middle" x="224" y="-431.5" font-family="FreeSans" font-size="10.00">wxTrackable</text>
<polyline fill="none" stroke="black" points="188.5,-424.5 259.5,-424.5 "/>
<text text-anchor="middle" x="224" y="-412.5" font-family="FreeSans" font-size="10.00"> </text>
<polyline fill="none" stroke="black" points="188.5,-405.5 259.5,-405.5 "/>
<text text-anchor="middle" x="224" y="-393.5" font-family="FreeSans" font-size="10.00"> </text>
</a>
</g>
</g>
<!-- Node4&#45;&gt;Node2 -->
<g id="edge4" class="edge"><title>Node4&#45;&gt;Node2</title>
<path fill="none" stroke="midnightblue" d="M212.222,-376.51C205.671,-355.659 197.659,-330.159 191.683,-311.136"/>
<polygon fill="none" stroke="midnightblue" points="208.968,-377.833 215.305,-386.324 215.647,-375.735 208.968,-377.833"/>
</g>
</g>
</svg>
