<?xml version="1.0" encoding="UTF-8" standalone="no"?>
<!DOCTYPE svg PUBLIC "-//W3C//DTD SVG 1.1//EN"
 "http://www.w3.org/Graphics/SVG/1.1/DTD/svg11.dtd">
<!-- Generated by graphviz version 2.38.0 (20140413.2041)
 -->
<!-- Title: ProjectFileOptionsDlg Pages: 1 -->
<svg width="1394pt" height="1674pt"
 viewBox="0.00 0.00 1393.50 1674.00" xmlns="http://www.w3.org/2000/svg" xmlns:xlink="http://www.w3.org/1999/xlink">
<g id="graph0" class="graph" transform="scale(1 1) rotate(0) translate(4 1670)">
<title>ProjectFileOptionsDlg</title>
<!-- Node9 -->
<g id="node1" class="node"><title>Node9</title>
<polygon fill="#bfbfbf" stroke="black" points="576.5,-0.5 576.5,-178.5 732.5,-178.5 732.5,-0.5 576.5,-0.5"/>
<text text-anchor="middle" x="654.5" y="-166.5" font-family="FreeSans" font-size="10.00">ProjectFileOptionsDlg</text>
<polyline fill="none" stroke="black" points="576.5,-159.5 732.5,-159.5 "/>
<text text-anchor="start" x="584.5" y="-147.5" font-family="FreeSans" font-size="10.00">&#45; m_LastBuildStageCompilerSel</text>
<polyline fill="none" stroke="black" points="576.5,-140.5 732.5,-140.5 "/>
<text text-anchor="start" x="584.5" y="-128.5" font-family="FreeSans" font-size="10.00">+ ProjectFileOptionsDlg()</text>
<text text-anchor="start" x="584.5" y="-117.5" font-family="FreeSans" font-size="10.00">+ ProjectFileOptionsDlg()</text>
<text text-anchor="start" x="584.5" y="-106.5" font-family="FreeSans" font-size="10.00">+ ~ProjectFileOptionsDlg()</text>
<text text-anchor="start" x="584.5" y="-95.5" font-family="FreeSans" font-size="10.00">+ OnReadOnlyCheck()</text>
<text text-anchor="start" x="584.5" y="-84.5" font-family="FreeSans" font-size="10.00">+ OnCompilerCombo()</text>
<text text-anchor="start" x="584.5" y="-73.5" font-family="FreeSans" font-size="10.00">+ OnUpdateUI()</text>
<text text-anchor="start" x="584.5" y="-62.5" font-family="FreeSans" font-size="10.00">+ EndModal()</text>
<text text-anchor="start" x="584.5" y="-51.5" font-family="FreeSans" font-size="10.00">&#45; FillGeneralProperties()</text>
<text text-anchor="start" x="584.5" y="-40.5" font-family="FreeSans" font-size="10.00">&#45; FillCompilers()</text>
<text text-anchor="start" x="584.5" y="-29.5" font-family="FreeSans" font-size="10.00">&#45; UpdateBuildCommand()</text>
<text text-anchor="start" x="584.5" y="-18.5" font-family="FreeSans" font-size="10.00">&#45; SaveBuildCommandSelection()</text>
<text text-anchor="start" x="584.5" y="-7.5" font-family="FreeSans" font-size="10.00">&#45; ToggleFileReadOnly()</text>
</g>
<!-- Node10 -->
<g id="node2" class="node"><title>Node10</title>
<g id="a_node2"><a xlink:href="classwxScrollingDialog" target="_top" xlink:title="{wxScrollingDialog\n||+ wxScrollingDialog()\l+ wxScrollingDialog()\l}">
<polygon fill="none" stroke="black" points="0,-331 0,-399 107,-399 107,-331 0,-331"/>
<text text-anchor="middle" x="53.5" y="-387" font-family="FreeSans" font-size="10.00">wxScrollingDialog</text>
<polyline fill="none" stroke="black" points="0,-380 107,-380 "/>
<text text-anchor="middle" x="53.5" y="-368" font-family="FreeSans" font-size="10.00"> </text>
<polyline fill="none" stroke="black" points="0,-361 107,-361 "/>
<text text-anchor="start" x="8" y="-349" font-family="FreeSans" font-size="10.00">+ wxScrollingDialog()</text>
<text text-anchor="start" x="8" y="-338" font-family="FreeSans" font-size="10.00">+ wxScrollingDialog()</text>
</a>
</g>
</g>
<!-- Node10&#45;&gt;Node9 -->
<g id="edge1" class="edge"><title>Node10&#45;&gt;Node9</title>
<path fill="none" stroke="midnightblue" d="M59.4163,-321.064C67.0293,-282.708 84.0652,-227.938 121.5,-197 189.919,-140.455 445.614,-109.503 576.392,-97.0651"/>
<polygon fill="none" stroke="midnightblue" points="55.9696,-320.455 57.5932,-330.924 62.853,-321.727 55.9696,-320.455"/>
</g>
<!-- Node11 -->
<g id="node3" class="node"><title>Node11</title>
<g id="a_node3"><a doxygen="/media/alpha/Barracuda/cb_docs/src/wxTagFile.xml:http://docs.wxwidgets.org/3.0/" xlink:href="http://docs.wxwidgets.org/3.0/classwx_dialog.html" target="_top" xlink:title="{wxDialog\n||+ ShowModal()\l}">
<polygon fill="none" stroke="black" points="13,-700 13,-757 94,-757 94,-700 13,-700"/>
<text text-anchor="middle" x="53.5" y="-745" font-family="FreeSans" font-size="10.00">wxDialog</text>
<polyline fill="none" stroke="black" points="13,-738 94,-738 "/>
<text text-anchor="middle" x="53.5" y="-726" font-family="FreeSans" font-size="10.00"> </text>
<polyline fill="none" stroke="black" points="13,-719 94,-719 "/>
<text text-anchor="start" x="21" y="-707" font-family="FreeSans" font-size="10.00">+ ShowModal()</text>
</a>
</g>
</g>
<!-- Node11&#45;&gt;Node10 -->
<g id="edge2" class="edge"><title>Node11&#45;&gt;Node10</title>
<path fill="none" stroke="midnightblue" d="M53.5,-689.435C53.5,-618.257 53.5,-466.151 53.5,-399.013"/>
<polygon fill="none" stroke="midnightblue" points="50.0001,-689.734 53.5,-699.734 57.0001,-689.734 50.0001,-689.734"/>
</g>
<!-- Node12 -->
<g id="node4" class="node"><title>Node12</title>
<g id="a_node4"><a doxygen="/media/alpha/Barracuda/cb_docs/src/wxTagFile.xml:http://docs.wxwidgets.org/3.0/" xlink:href="http://docs.wxwidgets.org/3.0/classwx_top_level_window.html" target="_top" xlink:title="{wxTopLevelWindow\n||}">
<polygon fill="none" stroke="red" points="3,-1107.5 3,-1164.5 104,-1164.5 104,-1107.5 3,-1107.5"/>
<text text-anchor="middle" x="53.5" y="-1152.5" font-family="FreeSans" font-size="10.00">wxTopLevelWindow</text>
<polyline fill="none" stroke="red" points="3,-1145.5 104,-1145.5 "/>
<text text-anchor="middle" x="53.5" y="-1133.5" font-family="FreeSans" font-size="10.00"> </text>
<polyline fill="none" stroke="red" points="3,-1126.5 104,-1126.5 "/>
<text text-anchor="middle" x="53.5" y="-1114.5" font-family="FreeSans" font-size="10.00"> </text>
</a>
</g>
</g>
<!-- Node12&#45;&gt;Node11 -->
<g id="edge3" class="edge"><title>Node12&#45;&gt;Node11</title>
<path fill="none" stroke="midnightblue" d="M53.5,-1097.22C53.5,-1016.32 53.5,-827.93 53.5,-757.091"/>
<polygon fill="none" stroke="midnightblue" points="50.0001,-1097.45 53.5,-1107.45 57.0001,-1097.45 50.0001,-1097.45"/>
</g>
<!-- Node18 -->
<g id="node5" class="node"><title>Node18</title>
<g id="a_node5"><a xlink:href="classProjectFile" target="_top" xlink:title="Represents a file in a Code::Blocks project. ">
<polygon fill="none" stroke="black" points="975,-226.5 975,-503.5 1096,-503.5 1096,-226.5 975,-226.5"/>
<text text-anchor="middle" x="1035.5" y="-491.5" font-family="FreeSans" font-size="10.00">ProjectFile</text>
<polyline fill="none" stroke="black" points="975,-484.5 1096,-484.5 "/>
<text text-anchor="start" x="983" y="-472.5" font-family="FreeSans" font-size="10.00">+ compile</text>
<text text-anchor="start" x="983" y="-461.5" font-family="FreeSans" font-size="10.00">+ link</text>
<text text-anchor="start" x="983" y="-450.5" font-family="FreeSans" font-size="10.00">+ weight</text>
<text text-anchor="start" x="983" y="-439.5" font-family="FreeSans" font-size="10.00">+ editorOpen</text>
<text text-anchor="start" x="983" y="-428.5" font-family="FreeSans" font-size="10.00">+ editorSplit</text>
<text text-anchor="start" x="983" y="-417.5" font-family="FreeSans" font-size="10.00">+ editorSplitActive</text>
<text text-anchor="start" x="983" y="-406.5" font-family="FreeSans" font-size="10.00">+ editorSplitPos</text>
<text text-anchor="start" x="983" y="-395.5" font-family="FreeSans" font-size="10.00">+ editorPos</text>
<text text-anchor="start" x="983" y="-384.5" font-family="FreeSans" font-size="10.00">and 8 more...</text>
<text text-anchor="start" x="983" y="-373.5" font-family="FreeSans" font-size="10.00"># m_VisualState</text>
<text text-anchor="start" x="983" y="-362.5" font-family="FreeSans" font-size="10.00"># m_PFDMap</text>
<polyline fill="none" stroke="black" points="975,-355.5 1096,-355.5 "/>
<text text-anchor="start" x="983" y="-343.5" font-family="FreeSans" font-size="10.00">+ ProjectFile()</text>
<text text-anchor="start" x="983" y="-332.5" font-family="FreeSans" font-size="10.00">+ ~ProjectFile()</text>
<text text-anchor="start" x="983" y="-321.5" font-family="FreeSans" font-size="10.00">+ Rename()</text>
<text text-anchor="start" x="983" y="-310.5" font-family="FreeSans" font-size="10.00">+ AddBuildTarget()</text>
<text text-anchor="start" x="983" y="-299.5" font-family="FreeSans" font-size="10.00">+ RenameBuildTarget()</text>
<text text-anchor="start" x="983" y="-288.5" font-family="FreeSans" font-size="10.00">+ RemoveBuildTarget()</text>
<text text-anchor="start" x="983" y="-277.5" font-family="FreeSans" font-size="10.00">+ GetBuildTargets()</text>
<text text-anchor="start" x="983" y="-266.5" font-family="FreeSans" font-size="10.00">+ ShowOptions()</text>
<text text-anchor="start" x="983" y="-255.5" font-family="FreeSans" font-size="10.00">and 16 more...</text>
<text text-anchor="start" x="983" y="-244.5" font-family="FreeSans" font-size="10.00">+ CompareProjectFiles()</text>
<text text-anchor="start" x="983" y="-233.5" font-family="FreeSans" font-size="10.00"># DoUpdateFileDetails()</text>
</a>
</g>
</g>
<!-- Node18&#45;&gt;Node9 -->
<g id="edge4" class="edge"><title>Node18&#45;&gt;Node9</title>
<path fill="none" stroke="#404040" d="M974.978,-285.141C957.102,-264.546 936.627,-243.297 915.5,-226 863.867,-183.728 796.922,-149.299 743.76,-125.725"/>
<polygon fill="none" stroke="#404040" points="743.63,-125.668 736.53,-126.929 732.636,-120.86 739.736,-119.599 743.63,-125.668"/>
<text text-anchor="middle" x="923.5" y="-200" font-family="FreeSans" font-size="10.00"> &#45;m_ProjectFile</text>
</g>
<!-- Node18&#45;&gt;Node18 -->
<g id="edge6" class="edge"><title>Node18&#45;&gt;Node18</title>
<path fill="none" stroke="#404040" d="M1096.06,-393.477C1106.64,-389.68 1114,-380.188 1114,-365 1114,-355.508 1111.13,-348.24 1106.39,-343.198"/>
<polygon fill="none" stroke="#404040" points="1106.14,-343.038 1098.93,-343.14 1096.06,-336.523 1103.27,-336.421 1106.14,-343.038"/>
<text text-anchor="middle" x="1156" y="-362.5" font-family="FreeSans" font-size="10.00"> +autoGeneratedBy</text>
</g>
<!-- Node31 -->
<g id="node16" class="node"><title>Node31</title>
<polygon fill="none" stroke="#bfbfbf" points="968,-61 968,-118 1097,-118 1097,-61 968,-61"/>
<text text-anchor="middle" x="1032.5" y="-106" font-family="FreeSans" font-size="10.00">std::vector&lt; ProjectFile * &gt;</text>
<polyline fill="none" stroke="#bfbfbf" points="968,-99 1097,-99 "/>
<text text-anchor="middle" x="1032.5" y="-87" font-family="FreeSans" font-size="10.00"> </text>
<polyline fill="none" stroke="#bfbfbf" points="968,-80 1097,-80 "/>
<text text-anchor="middle" x="1032.5" y="-68" font-family="FreeSans" font-size="10.00"> </text>
</g>
<!-- Node18&#45;&gt;Node31 -->
<g id="edge25" class="edge"><title>Node18&#45;&gt;Node31</title>
<path fill="none" stroke="#404040" d="M1060.08,-226.438C1060.13,-216.481 1059.65,-206.589 1058.5,-197 1055.79,-174.466 1049.96,-149.816 1044.51,-129.912"/>
<polygon fill="none" stroke="#404040" points="1044.46,-129.74 1038.98,-125.055 1041.2,-118.193 1046.68,-122.877 1044.46,-129.74"/>
<text text-anchor="middle" x="1083.5" y="-200" font-family="FreeSans" font-size="10.00"> +elements</text>
</g>
<!-- Node19 -->
<g id="node6" class="node"><title>Node19</title>
<g id="a_node6"><a doxygen="/media/alpha/Barracuda/cb_docs/src/wxTagFile.xml:http://docs.wxwidgets.org/3.0/" xlink:href="http://docs.wxwidgets.org/3.0/classwx_array_string.html" target="_top" xlink:title="{wxArrayString\n||+ wxArrayString()\l+ wxArrayString()\l+ wxArrayString()\l+ ~wxArrayString()\l+ Add()\l+ Alloc()\l+ Clear()\l+ Empty()\land 19 more...\l}">
<polygon fill="none" stroke="black" points="917,-1471 917,-1616 1012,-1616 1012,-1471 917,-1471"/>
<text text-anchor="middle" x="964.5" y="-1604" font-family="FreeSans" font-size="10.00">wxArrayString</text>
<polyline fill="none" stroke="black" points="917,-1597 1012,-1597 "/>
<text text-anchor="middle" x="964.5" y="-1585" font-family="FreeSans" font-size="10.00"> </text>
<polyline fill="none" stroke="black" points="917,-1578 1012,-1578 "/>
<text text-anchor="start" x="925" y="-1566" font-family="FreeSans" font-size="10.00">+ wxArrayString()</text>
<text text-anchor="start" x="925" y="-1555" font-family="FreeSans" font-size="10.00">+ wxArrayString()</text>
<text text-anchor="start" x="925" y="-1544" font-family="FreeSans" font-size="10.00">+ wxArrayString()</text>
<text text-anchor="start" x="925" y="-1533" font-family="FreeSans" font-size="10.00">+ ~wxArrayString()</text>
<text text-anchor="start" x="925" y="-1522" font-family="FreeSans" font-size="10.00">+ Add()</text>
<text text-anchor="start" x="925" y="-1511" font-family="FreeSans" font-size="10.00">+ Alloc()</text>
<text text-anchor="start" x="925" y="-1500" font-family="FreeSans" font-size="10.00">+ Clear()</text>
<text text-anchor="start" x="925" y="-1489" font-family="FreeSans" font-size="10.00">+ Empty()</text>
<text text-anchor="start" x="925" y="-1478" font-family="FreeSans" font-size="10.00">and 19 more...</text>
</a>
</g>
</g>
<!-- Node19&#45;&gt;Node18 -->
<g id="edge5" class="edge"><title>Node19&#45;&gt;Node18</title>
<path fill="none" stroke="#404040" d="M1012.16,-1527C1066.31,-1506.95 1153.49,-1466.81 1202.5,-1403 1318.49,-1251.99 1290.94,-1178.7 1316.5,-990 1345.24,-777.856 1314.01,-704.747 1202.5,-522 1177.66,-481.291 1139.33,-444.419 1105.65,-416.755"/>
<polygon fill="none" stroke="#404040" points="1105.63,-416.738 1098.45,-416.082 1096.29,-409.201 1103.47,-409.857 1105.63,-416.738"/>
<text text-anchor="middle" x="1355" y="-954.5" font-family="FreeSans" font-size="10.00"> +buildTargets</text>
</g>
<!-- Node21 -->
<g id="node8" class="node"><title>Node21</title>
<g id="a_node8"><a xlink:href="classcbProject" target="_top" xlink:title="Represents a Code::Blocks project. ">
<polygon fill="none" stroke="black" points="622,-551.5 622,-905.5 803,-905.5 803,-551.5 622,-551.5"/>
<text text-anchor="middle" x="712.5" y="-893.5" font-family="FreeSans" font-size="10.00">cbProject</text>
<polyline fill="none" stroke="black" points="622,-886.5 803,-886.5 "/>
<text text-anchor="start" x="630" y="-874.5" font-family="FreeSans" font-size="10.00">&#45; m_Targets</text>
<text text-anchor="start" x="630" y="-863.5" font-family="FreeSans" font-size="10.00">&#45; m_CustomMakefile</text>
<text text-anchor="start" x="630" y="-852.5" font-family="FreeSans" font-size="10.00">&#45; m_Files</text>
<text text-anchor="start" x="630" y="-841.5" font-family="FreeSans" font-size="10.00">&#45; m_FileArray</text>
<text text-anchor="start" x="630" y="-830.5" font-family="FreeSans" font-size="10.00">&#45; m_Loaded</text>
<text text-anchor="start" x="630" y="-819.5" font-family="FreeSans" font-size="10.00">&#45; m_CurrentlyLoading</text>
<text text-anchor="start" x="630" y="-808.5" font-family="FreeSans" font-size="10.00">&#45; m_PCHMode</text>
<text text-anchor="start" x="630" y="-797.5" font-family="FreeSans" font-size="10.00">&#45; m_ProjectFilesMap</text>
<text text-anchor="start" x="630" y="-786.5" font-family="FreeSans" font-size="10.00">&#45; m_ExtendedObjectNamesGeneration</text>
<text text-anchor="start" x="630" y="-775.5" font-family="FreeSans" font-size="10.00">&#45; m_AutoShowNotesOnLoad</text>
<text text-anchor="start" x="630" y="-764.5" font-family="FreeSans" font-size="10.00">&#45; m_CheckForExternallyModified</text>
<text text-anchor="start" x="630" y="-753.5" font-family="FreeSans" font-size="10.00">Files</text>
<text text-anchor="start" x="630" y="-742.5" font-family="FreeSans" font-size="10.00">&#45; m_pExtensionsElement</text>
<polyline fill="none" stroke="black" points="622,-735.5 803,-735.5 "/>
<text text-anchor="start" x="630" y="-723.5" font-family="FreeSans" font-size="10.00">+ cbProject()</text>
<text text-anchor="start" x="630" y="-712.5" font-family="FreeSans" font-size="10.00">+ ~cbProject()</text>
<text text-anchor="start" x="630" y="-701.5" font-family="FreeSans" font-size="10.00">+ IsLoaded()</text>
<text text-anchor="start" x="630" y="-690.5" font-family="FreeSans" font-size="10.00">+ ClearAllProperties()</text>
<text text-anchor="start" x="630" y="-679.5" font-family="FreeSans" font-size="10.00">+ CalculateCommonTopLevelPath()</text>
<text text-anchor="start" x="630" y="-668.5" font-family="FreeSans" font-size="10.00">+ GetCommonTopLevelPath()</text>
<text text-anchor="start" x="630" y="-657.5" font-family="FreeSans" font-size="10.00">+ GetModified()</text>
<text text-anchor="start" x="630" y="-646.5" font-family="FreeSans" font-size="10.00">+ SetModified()</text>
<text text-anchor="start" x="630" y="-635.5" font-family="FreeSans" font-size="10.00">and 85 more...</text>
<text text-anchor="start" x="630" y="-624.5" font-family="FreeSans" font-size="10.00">&#45; Open()</text>
<text text-anchor="start" x="630" y="-613.5" font-family="FreeSans" font-size="10.00">&#45; ExpandVirtualBuildTarget</text>
<text text-anchor="start" x="630" y="-602.5" font-family="FreeSans" font-size="10.00">Group()</text>
<text text-anchor="start" x="630" y="-591.5" font-family="FreeSans" font-size="10.00">&#45; AddDefaultBuildTarget()</text>
<text text-anchor="start" x="630" y="-580.5" font-family="FreeSans" font-size="10.00">&#45; IndexOfBuildTargetName()</text>
<text text-anchor="start" x="630" y="-569.5" font-family="FreeSans" font-size="10.00">&#45; CreateUniqueFilename()</text>
<text text-anchor="start" x="630" y="-558.5" font-family="FreeSans" font-size="10.00">&#45; NotifyPlugins()</text>
</a>
</g>
</g>
<!-- Node19&#45;&gt;Node21 -->
<g id="edge11" class="edge"><title>Node19&#45;&gt;Node21</title>
<path fill="none" stroke="#404040" d="M964.598,-1470.76C964.093,-1316.2 958.825,-962.538 921.5,-924 894.635,-896.262 868.726,-927.276 836.5,-906 827.964,-900.365 819.839,-893.923 812.132,-886.91"/>
<polygon fill="none" stroke="#404040" points="811.945,-886.731 804.845,-885.47 803.279,-878.431 810.379,-879.692 811.945,-886.731"/>
<text text-anchor="middle" x="1005.5" y="-1144.5" font-family="FreeSans" font-size="10.00"> &#45;m_ExpandedNodes</text>
<text text-anchor="middle" x="1005.5" y="-1133.5" font-family="FreeSans" font-size="10.00">&#45;m_SelectedNodes</text>
<text text-anchor="middle" x="1005.5" y="-1122.5" font-family="FreeSans" font-size="10.00">&#45;m_VirtualFolders</text>
</g>
<!-- Node25 -->
<g id="node11" class="node"><title>Node25</title>
<polygon fill="none" stroke="#bfbfbf" points="827,-1102 827,-1170 928,-1170 928,-1102 827,-1102"/>
<text text-anchor="start" x="835" y="-1158" font-family="FreeSans" font-size="10.00">std::map&lt; wxString,</text>
<text text-anchor="middle" x="877.5" y="-1147" font-family="FreeSans" font-size="10.00"> wxArrayString &gt;</text>
<polyline fill="none" stroke="#bfbfbf" points="827,-1140 928,-1140 "/>
<text text-anchor="middle" x="877.5" y="-1128" font-family="FreeSans" font-size="10.00"> </text>
<polyline fill="none" stroke="#bfbfbf" points="827,-1121 928,-1121 "/>
<text text-anchor="middle" x="877.5" y="-1109" font-family="FreeSans" font-size="10.00"> </text>
</g>
<!-- Node19&#45;&gt;Node25 -->
<g id="edge13" class="edge"><title>Node19&#45;&gt;Node25</title>
<path fill="none" stroke="#404040" d="M927.395,-1470.99C917.785,-1449.63 908.472,-1425.82 902.5,-1403 882.713,-1327.39 878.143,-1236.08 877.33,-1182.49"/>
<polygon fill="none" stroke="#404040" points="877.329,-1182.36 873.265,-1176.4 877.201,-1170.36 881.265,-1176.31 877.329,-1182.36"/>
<text text-anchor="middle" x="926.5" y="-1340" font-family="FreeSans" font-size="10.00"> +elements</text>
</g>
<!-- Node20 -->
<g id="node7" class="node"><title>Node20</title>
<g id="a_node7"><a doxygen="/media/alpha/Barracuda/cb_docs/src/wxTagFile.xml:http://docs.wxwidgets.org/3.0/" xlink:href="http://docs.wxwidgets.org/3.0/classwx_file_name.html" target="_top" xlink:title="{wxFileName\n||+ GetHumanReadableSize()\l+ wxFileName()\l+ wxFileName()\l+ wxFileName()\l+ wxFileName()\l+ wxFileName()\l+ wxFileName()\l+ AppendDir()\land 74 more...\l+ GetHumanReadableSize()\l+ CreateTempFileName()\l+ CreateTempFileName()\l+ DirExists()\l+ DirName()\l+ Exists()\l+ FileExists()\l+ FileName()\land 29 more...\l}">
<polygon fill="none" stroke="black" points="846,-606.5 846,-850.5 983,-850.5 983,-606.5 846,-606.5"/>
<text text-anchor="middle" x="914.5" y="-838.5" font-family="FreeSans" font-size="10.00">wxFileName</text>
<polyline fill="none" stroke="black" points="846,-831.5 983,-831.5 "/>
<text text-anchor="middle" x="914.5" y="-819.5" font-family="FreeSans" font-size="10.00"> </text>
<polyline fill="none" stroke="black" points="846,-812.5 983,-812.5 "/>
<text text-anchor="start" x="854" y="-800.5" font-family="FreeSans" font-size="10.00">+ GetHumanReadableSize()</text>
<text text-anchor="start" x="854" y="-789.5" font-family="FreeSans" font-size="10.00">+ wxFileName()</text>
<text text-anchor="start" x="854" y="-778.5" font-family="FreeSans" font-size="10.00">+ wxFileName()</text>
<text text-anchor="start" x="854" y="-767.5" font-family="FreeSans" font-size="10.00">+ wxFileName()</text>
<text text-anchor="start" x="854" y="-756.5" font-family="FreeSans" font-size="10.00">+ wxFileName()</text>
<text text-anchor="start" x="854" y="-745.5" font-family="FreeSans" font-size="10.00">+ wxFileName()</text>
<text text-anchor="start" x="854" y="-734.5" font-family="FreeSans" font-size="10.00">+ wxFileName()</text>
<text text-anchor="start" x="854" y="-723.5" font-family="FreeSans" font-size="10.00">+ AppendDir()</text>
<text text-anchor="start" x="854" y="-712.5" font-family="FreeSans" font-size="10.00">and 74 more...</text>
<text text-anchor="start" x="854" y="-701.5" font-family="FreeSans" font-size="10.00">+ GetHumanReadableSize()</text>
<text text-anchor="start" x="854" y="-690.5" font-family="FreeSans" font-size="10.00">+ CreateTempFileName()</text>
<text text-anchor="start" x="854" y="-679.5" font-family="FreeSans" font-size="10.00">+ CreateTempFileName()</text>
<text text-anchor="start" x="854" y="-668.5" font-family="FreeSans" font-size="10.00">+ DirExists()</text>
<text text-anchor="start" x="854" y="-657.5" font-family="FreeSans" font-size="10.00">+ DirName()</text>
<text text-anchor="start" x="854" y="-646.5" font-family="FreeSans" font-size="10.00">+ Exists()</text>
<text text-anchor="start" x="854" y="-635.5" font-family="FreeSans" font-size="10.00">+ FileExists()</text>
<text text-anchor="start" x="854" y="-624.5" font-family="FreeSans" font-size="10.00">+ FileName()</text>
<text text-anchor="start" x="854" y="-613.5" font-family="FreeSans" font-size="10.00">and 29 more...</text>
</a>
</g>
</g>
<!-- Node20&#45;&gt;Node9 -->
<g id="edge27" class="edge"><title>Node20&#45;&gt;Node9</title>
<path fill="none" stroke="#404040" d="M869.345,-606.327C858.76,-578.546 847.39,-549.189 836.5,-522 790.598,-407.395 735.118,-276.935 697.572,-189.748"/>
<polygon fill="none" stroke="#404040" points="697.49,-189.558 691.441,-185.631 692.74,-178.538 698.788,-182.465 697.49,-189.558"/>
<text text-anchor="middle" x="860" y="-362.5" font-family="FreeSans" font-size="10.00"> &#45;m_FileName</text>
</g>
<!-- Node20&#45;&gt;Node18 -->
<g id="edge7" class="edge"><title>Node20&#45;&gt;Node18</title>
<path fill="none" stroke="#404040" d="M955.044,-606.372C964.818,-577.17 975.375,-545.63 985.524,-515.308"/>
<polygon fill="none" stroke="#404040" points="985.582,-515.134 983.694,-508.174 989.391,-503.754 991.28,-510.713 985.582,-515.134"/>
<text text-anchor="middle" x="993" y="-525" font-family="FreeSans" font-size="10.00"> +file</text>
</g>
<!-- Node21&#45;&gt;Node18 -->
<g id="edge8" class="edge"><title>Node21&#45;&gt;Node18</title>
<path fill="none" stroke="#404040" d="M803.027,-586.555C813.614,-573.912 824.828,-561.82 836.5,-551 866.462,-523.226 884.144,-530.19 915.5,-504 933.345,-489.095 950.801,-471.424 966.63,-453.789"/>
<polygon fill="none" stroke="#404040" points="966.812,-453.583 967.783,-446.438 974.752,-444.586 973.781,-451.731 966.812,-453.583"/>
<text text-anchor="middle" x="905" y="-525" font-family="FreeSans" font-size="10.00"> #project</text>
</g>
<!-- Node29 -->
<g id="node14" class="node"><title>Node29</title>
<g id="a_node14"><a xlink:href="classProjectBuildTarget" target="_top" xlink:title="Represents a Code::Blocks project build target. ">
<polygon fill="none" stroke="black" points="346,-259.5 346,-470.5 485,-470.5 485,-259.5 346,-259.5"/>
<text text-anchor="middle" x="415.5" y="-458.5" font-family="FreeSans" font-size="10.00">ProjectBuildTarget</text>
<polyline fill="none" stroke="black" points="346,-451.5 485,-451.5 "/>
<text text-anchor="start" x="354" y="-439.5" font-family="FreeSans" font-size="10.00">&#45; m_TargetDeps</text>
<text text-anchor="start" x="354" y="-428.5" font-family="FreeSans" font-size="10.00">&#45; m_Files</text>
<text text-anchor="start" x="354" y="-417.5" font-family="FreeSans" font-size="10.00">&#45; m_FileArray</text>
<text text-anchor="start" x="354" y="-406.5" font-family="FreeSans" font-size="10.00">&#45; m_BuildWithAll</text>
<text text-anchor="start" x="354" y="-395.5" font-family="FreeSans" font-size="10.00">&#45; m_CreateStaticLib</text>
<text text-anchor="start" x="354" y="-384.5" font-family="FreeSans" font-size="10.00">&#45; m_CreateDefFile</text>
<text text-anchor="start" x="354" y="-373.5" font-family="FreeSans" font-size="10.00">&#45; m_UseConsoleRunner</text>
<polyline fill="none" stroke="black" points="346,-366.5 485,-366.5 "/>
<text text-anchor="start" x="354" y="-354.5" font-family="FreeSans" font-size="10.00">+ ProjectBuildTarget()</text>
<text text-anchor="start" x="354" y="-343.5" font-family="FreeSans" font-size="10.00">+ ~ProjectBuildTarget()</text>
<text text-anchor="start" x="354" y="-332.5" font-family="FreeSans" font-size="10.00">+ GetParentProject()</text>
<text text-anchor="start" x="354" y="-321.5" font-family="FreeSans" font-size="10.00">+ GetFullTitle()</text>
<text text-anchor="start" x="354" y="-310.5" font-family="FreeSans" font-size="10.00">+ GetExternalDeps()</text>
<text text-anchor="start" x="354" y="-299.5" font-family="FreeSans" font-size="10.00">+ SetExternalDeps()</text>
<text text-anchor="start" x="354" y="-288.5" font-family="FreeSans" font-size="10.00">+ GetAdditionalOutputFiles()</text>
<text text-anchor="start" x="354" y="-277.5" font-family="FreeSans" font-size="10.00">+ SetAdditionalOutputFiles()</text>
<text text-anchor="start" x="354" y="-266.5" font-family="FreeSans" font-size="10.00">and 15 more...</text>
</a>
</g>
</g>
<!-- Node21&#45;&gt;Node29 -->
<g id="edge20" class="edge"><title>Node21&#45;&gt;Node29</title>
<path fill="none" stroke="#404040" d="M662.318,-551.369C656.675,-541.048 650.422,-531.156 643.5,-522 604.979,-471.048 544.833,-430.89 495.986,-404.085"/>
<polygon fill="none" stroke="#404040" points="495.679,-403.919 488.5,-404.599 485.111,-398.233 492.29,-397.554 495.679,-403.919"/>
<text text-anchor="middle" x="675.5" y="-525" font-family="FreeSans" font-size="10.00"> &#45;m_Project</text>
</g>
<!-- Node22 -->
<g id="node9" class="node"><title>Node22</title>
<g id="a_node9"><a xlink:href="classCompileTargetBase" target="_top" xlink:title="Base class for build target classes Each Code::Blocks project consists of at least one target...">
<polygon fill="none" stroke="red" points="232.5,-1008.5 232.5,-1263.5 400.5,-1263.5 400.5,-1008.5 232.5,-1008.5"/>
<text text-anchor="middle" x="316.5" y="-1251.5" font-family="FreeSans" font-size="10.00">CompileTargetBase</text>
<polyline fill="none" stroke="red" points="232.5,-1244.5 400.5,-1244.5 "/>
<text text-anchor="start" x="240.5" y="-1232.5" font-family="FreeSans" font-size="10.00"># m_Title</text>
<text text-anchor="start" x="240.5" y="-1221.5" font-family="FreeSans" font-size="10.00"># m_OutputFilename</text>
<text text-anchor="start" x="240.5" y="-1210.5" font-family="FreeSans" font-size="10.00"># m_OptionsRelation</text>
<text text-anchor="start" x="240.5" y="-1199.5" font-family="FreeSans" font-size="10.00"># m_TargetType</text>
<text text-anchor="start" x="240.5" y="-1188.5" font-family="FreeSans" font-size="10.00"># m_MakeCommandsModified</text>
<text text-anchor="start" x="240.5" y="-1177.5" font-family="FreeSans" font-size="10.00"># m_RunHostApplicationInTerminal</text>
<text text-anchor="start" x="240.5" y="-1166.5" font-family="FreeSans" font-size="10.00"># m_PrefixGenerationPolicy</text>
<text text-anchor="start" x="240.5" y="-1155.5" font-family="FreeSans" font-size="10.00"># m_ExtensionGenerationPolicy</text>
<polyline fill="none" stroke="red" points="232.5,-1148.5 400.5,-1148.5 "/>
<text text-anchor="start" x="240.5" y="-1136.5" font-family="FreeSans" font-size="10.00">+ CompileTargetBase()</text>
<text text-anchor="start" x="240.5" y="-1125.5" font-family="FreeSans" font-size="10.00">+ ~CompileTargetBase()</text>
<text text-anchor="start" x="240.5" y="-1114.5" font-family="FreeSans" font-size="10.00">+ SetTargetFilenameGeneration</text>
<text text-anchor="start" x="240.5" y="-1103.5" font-family="FreeSans" font-size="10.00">Policy()</text>
<text text-anchor="start" x="240.5" y="-1092.5" font-family="FreeSans" font-size="10.00">+ GetTargetFilenameGeneration</text>
<text text-anchor="start" x="240.5" y="-1081.5" font-family="FreeSans" font-size="10.00">Policy()</text>
<text text-anchor="start" x="240.5" y="-1070.5" font-family="FreeSans" font-size="10.00">+ GetFilename()</text>
<text text-anchor="start" x="240.5" y="-1059.5" font-family="FreeSans" font-size="10.00">+ GetTitle()</text>
<text text-anchor="start" x="240.5" y="-1048.5" font-family="FreeSans" font-size="10.00">+ SetTitle()</text>
<text text-anchor="start" x="240.5" y="-1037.5" font-family="FreeSans" font-size="10.00">+ SetOutputFilename()</text>
<text text-anchor="start" x="240.5" y="-1026.5" font-family="FreeSans" font-size="10.00">and 32 more...</text>
<text text-anchor="start" x="240.5" y="-1015.5" font-family="FreeSans" font-size="10.00">&#45; GenerateTargetFilename()</text>
</a>
</g>
</g>
<!-- Node22&#45;&gt;Node21 -->
<g id="edge9" class="edge"><title>Node22&#45;&gt;Node21</title>
<path fill="none" stroke="midnightblue" d="M406.73,-1011.55C407.656,-1010.36 408.58,-1009.18 409.5,-1008 439.426,-969.71 445.151,-958.378 479.5,-924 523.82,-879.642 577.283,-834.496 621.812,-798.879"/>
<polygon fill="none" stroke="midnightblue" points="403.928,-1009.46 400.587,-1019.51 409.469,-1013.73 403.928,-1009.46"/>
</g>
<!-- Node22&#45;&gt;Node29 -->
<g id="edge19" class="edge"><title>Node22&#45;&gt;Node29</title>
<path fill="none" stroke="midnightblue" d="M334.114,-998.181C353.552,-847.195 384.41,-607.499 402.016,-470.74"/>
<polygon fill="none" stroke="midnightblue" points="330.598,-998.081 332.792,-1008.45 337.541,-998.975 330.598,-998.081"/>
</g>
<!-- Node24 -->
<g id="node10" class="node"><title>Node24</title>
<g id="a_node10"><a doxygen="/media/alpha/Barracuda/cb_docs/src/wxTagFile.xml:http://docs.wxwidgets.org/3.0/" xlink:href="http://docs.wxwidgets.org/3.0/classwx_string.html" target="_top" xlink:title="{wxString\n|+ npos\l|+ wxString()\l+ wxString()\l+ wxString()\l+ wxString()\l+ wxString()\l+ wxString()\l+ wxString()\l+ wxString()\land 222 more...\l+ Format()\l+ FormatV()\l+ FromCDouble()\l+ FromDouble()\l+ From8BitData()\l+ From8BitData()\l+ FromAscii()\l+ FromAscii()\land 7 more...\l}">
<polygon fill="none" stroke="black" points="424,-1421.5 424,-1665.5 515,-1665.5 515,-1421.5 424,-1421.5"/>
<text text-anchor="middle" x="469.5" y="-1653.5" font-family="FreeSans" font-size="10.00">wxString</text>
<polyline fill="none" stroke="black" points="424,-1646.5 515,-1646.5 "/>
<text text-anchor="start" x="432" y="-1634.5" font-family="FreeSans" font-size="10.00">+ npos</text>
<polyline fill="none" stroke="black" points="424,-1627.5 515,-1627.5 "/>
<text text-anchor="start" x="432" y="-1615.5" font-family="FreeSans" font-size="10.00">+ wxString()</text>
<text text-anchor="start" x="432" y="-1604.5" font-family="FreeSans" font-size="10.00">+ wxString()</text>
<text text-anchor="start" x="432" y="-1593.5" font-family="FreeSans" font-size="10.00">+ wxString()</text>
<text text-anchor="start" x="432" y="-1582.5" font-family="FreeSans" font-size="10.00">+ wxString()</text>
<text text-anchor="start" x="432" y="-1571.5" font-family="FreeSans" font-size="10.00">+ wxString()</text>
<text text-anchor="start" x="432" y="-1560.5" font-family="FreeSans" font-size="10.00">+ wxString()</text>
<text text-anchor="start" x="432" y="-1549.5" font-family="FreeSans" font-size="10.00">+ wxString()</text>
<text text-anchor="start" x="432" y="-1538.5" font-family="FreeSans" font-size="10.00">+ wxString()</text>
<text text-anchor="start" x="432" y="-1527.5" font-family="FreeSans" font-size="10.00">and 222 more...</text>
<text text-anchor="start" x="432" y="-1516.5" font-family="FreeSans" font-size="10.00">+ Format()</text>
<text text-anchor="start" x="432" y="-1505.5" font-family="FreeSans" font-size="10.00">+ FormatV()</text>
<text text-anchor="start" x="432" y="-1494.5" font-family="FreeSans" font-size="10.00">+ FromCDouble()</text>
<text text-anchor="start" x="432" y="-1483.5" font-family="FreeSans" font-size="10.00">+ FromDouble()</text>
<text text-anchor="start" x="432" y="-1472.5" font-family="FreeSans" font-size="10.00">+ From8BitData()</text>
<text text-anchor="start" x="432" y="-1461.5" font-family="FreeSans" font-size="10.00">+ From8BitData()</text>
<text text-anchor="start" x="432" y="-1450.5" font-family="FreeSans" font-size="10.00">+ FromAscii()</text>
<text text-anchor="start" x="432" y="-1439.5" font-family="FreeSans" font-size="10.00">+ FromAscii()</text>
<text text-anchor="start" x="432" y="-1428.5" font-family="FreeSans" font-size="10.00">and 7 more...</text>
</a>
</g>
</g>
<!-- Node24&#45;&gt;Node9 -->
<g id="edge28" class="edge"><title>Node24&#45;&gt;Node9</title>
<path fill="none" stroke="#404040" d="M423.667,-1527.03C369.937,-1506.66 281.623,-1465.9 229.5,-1403 149.495,-1306.45 135.5,-1262.39 135.5,-1137 135.5,-1137 135.5,-1137 135.5,-364 135.5,-172.557 415.298,-114.798 564.016,-97.6194"/>
<polygon fill="none" stroke="#404040" points="564.312,-97.5867 569.834,-92.9501 576.239,-96.2647 570.716,-100.901 564.312,-97.5867"/>
<text text-anchor="middle" x="172" y="-726" font-family="FreeSans" font-size="10.00"> &#45;m_FileNameStr</text>
</g>
<!-- Node24&#45;&gt;Node18 -->
<g id="edge23" class="edge"><title>Node24&#45;&gt;Node18</title>
<path fill="none" stroke="#404040" d="M515.125,-1530.2C627.915,-1499.69 913.698,-1421.62 954.5,-1403 1057.68,-1355.92 1114.39,-1363.67 1168.5,-1264 1183.62,-1236.14 1188.33,-625.703 1164.5,-551 1151.94,-511.616 1127.79,-473.252 1103.76,-441.764"/>
<polygon fill="none" stroke="#404040" points="1103.7,-441.683 1096.85,-439.41 1096.32,-432.219 1103.16,-434.491 1103.7,-441.683"/>
<text text-anchor="middle" x="1245" y="-982" font-family="FreeSans" font-size="10.00"> +relativeFilename</text>
<text text-anchor="middle" x="1245" y="-971" font-family="FreeSans" font-size="10.00">+virtual_path</text>
<text text-anchor="middle" x="1245" y="-960" font-family="FreeSans" font-size="10.00">+compilerVar</text>
<text text-anchor="start" x="1181.5" y="-949" font-family="FreeSans" font-size="10.00">+relativeToCommonTopLevel</text>
<text text-anchor="middle" x="1245" y="-938" font-family="FreeSans" font-size="10.00">Path</text>
<text text-anchor="middle" x="1245" y="-927" font-family="FreeSans" font-size="10.00">#m_ObjName</text>
</g>
<!-- Node24&#45;&gt;Node21 -->
<g id="edge17" class="edge"><title>Node24&#45;&gt;Node21</title>
<path fill="none" stroke="#404040" d="M515.168,-1457.97C523.119,-1440.24 530.446,-1421.34 535.5,-1403 582.357,-1232.97 524.859,-1177.53 573.5,-1008 584.17,-970.812 599.743,-932.643 616.643,-896.949"/>
<polygon fill="none" stroke="#404040" points="616.729,-896.771 615.722,-889.631 621.926,-885.955 622.933,-893.096 616.729,-896.771"/>
<text text-anchor="middle" x="632" y="-1172" font-family="FreeSans" font-size="10.00"> &#45;m_Notes</text>
<text text-anchor="middle" x="632" y="-1161" font-family="FreeSans" font-size="10.00">&#45;m_Makefile</text>
<text text-anchor="middle" x="632" y="-1150" font-family="FreeSans" font-size="10.00">&#45;m_ActiveTarget</text>
<text text-anchor="middle" x="632" y="-1139" font-family="FreeSans" font-size="10.00">&#45;m_BasePath</text>
<text text-anchor="middle" x="632" y="-1128" font-family="FreeSans" font-size="10.00">&#45;m_DefaultExecuteTarget</text>
<text text-anchor="middle" x="632" y="-1117" font-family="FreeSans" font-size="10.00">&#45;m_LastSavedActiveTarget</text>
<text text-anchor="middle" x="632" y="-1106" font-family="FreeSans" font-size="10.00">&#45;m_MakefileExecutionDir</text>
<text text-anchor="middle" x="632" y="-1095" font-family="FreeSans" font-size="10.00">&#45;m_CommonTopLevelPath</text>
</g>
<!-- Node24&#45;&gt;Node22 -->
<g id="edge10" class="edge"><title>Node24&#45;&gt;Node22</title>
<path fill="none" stroke="#404040" d="M423.906,-1421.66C406.498,-1375.52 386.524,-1322.59 368.559,-1274.97"/>
<polygon fill="none" stroke="#404040" points="368.516,-1274.86 362.656,-1270.66 364.28,-1263.63 370.141,-1267.83 368.516,-1274.86"/>
<text text-anchor="middle" x="474" y="-1395" font-family="FreeSans" font-size="10.00"> #m_MakeCommands</text>
<text text-anchor="middle" x="474" y="-1384" font-family="FreeSans" font-size="10.00">#m_ImportLibraryFilename</text>
<text text-anchor="middle" x="474" y="-1373" font-family="FreeSans" font-size="10.00">#m_HostApplication</text>
<text text-anchor="middle" x="474" y="-1362" font-family="FreeSans" font-size="10.00">#m_DefinitionFileFilename</text>
<text text-anchor="middle" x="474" y="-1351" font-family="FreeSans" font-size="10.00">#m_CompilerId</text>
<text text-anchor="middle" x="474" y="-1340" font-family="FreeSans" font-size="10.00">#m_ExecutionParameters</text>
<text text-anchor="middle" x="474" y="-1329" font-family="FreeSans" font-size="10.00">#m_Filename</text>
<text text-anchor="middle" x="474" y="-1318" font-family="FreeSans" font-size="10.00">#m_ObjectOutput</text>
<text text-anchor="middle" x="474" y="-1307" font-family="FreeSans" font-size="10.00">#m_DepsOutput</text>
<text text-anchor="middle" x="474" y="-1296" font-family="FreeSans" font-size="10.00">#m_WorkingDir</text>
<text text-anchor="middle" x="474" y="-1285" font-family="FreeSans" font-size="10.00">...</text>
</g>
<!-- Node24&#45;&gt;Node25 -->
<g id="edge14" class="edge"><title>Node24&#45;&gt;Node25</title>
<path fill="none" stroke="#404040" d="M515.064,-1515.68C587.307,-1471.23 728.997,-1376.03 817.5,-1264 837.032,-1239.28 852.133,-1207.16 862.299,-1181.41"/>
<polygon fill="none" stroke="#404040" points="862.345,-1181.28 860.746,-1174.25 866.621,-1170.07 868.221,-1177.1 862.345,-1181.28"/>
<text text-anchor="middle" x="816.5" y="-1340" font-family="FreeSans" font-size="10.00"> +keys</text>
</g>
<!-- Node24&#45;&gt;Node29 -->
<g id="edge21" class="edge"><title>Node24&#45;&gt;Node29</title>
<path fill="none" stroke="#404040" d="M423.939,-1508.53C364.799,-1461.3 264.342,-1369.6 223.5,-1264 179.566,-1150.41 220.389,-1111.79 219.5,-990 219.286,-960.667 214.813,-952.956 219.5,-924 247.414,-751.546 284.245,-715.342 343.5,-551 351.55,-528.673 360.48,-504.97 369.232,-482.249"/>
<polygon fill="none" stroke="#404040" points="369.321,-482.02 367.754,-474.981 373.649,-470.827 375.216,-477.866 369.321,-482.02"/>
<text text-anchor="middle" x="275.5" y="-960" font-family="FreeSans" font-size="10.00"> &#45;m_AdditionalOutputFiles</text>
<text text-anchor="middle" x="275.5" y="-949" font-family="FreeSans" font-size="10.00">&#45;m_ExternalDeps</text>
</g>
<!-- Node25&#45;&gt;Node21 -->
<g id="edge12" class="edge"><title>Node25&#45;&gt;Node21</title>
<path fill="none" stroke="#404040" d="M869.937,-1101.77C859.842,-1059.6 840.321,-985.006 815.5,-924 813.153,-918.231 810.687,-912.408 808.127,-906.561"/>
<polygon fill="none" stroke="#404040" points="807.989,-906.252 801.889,-902.406 803.094,-895.296 809.194,-899.142 807.989,-906.252"/>
<text text-anchor="middle" x="878" y="-954.5" font-family="FreeSans" font-size="10.00"> &#45;m_VirtualTargets</text>
</g>
<!-- Node26 -->
<g id="node12" class="node"><title>Node26</title>
<g id="a_node12"><a doxygen="/media/alpha/Barracuda/cb_docs/src/wxTagFile.xml:http://docs.wxwidgets.org/3.0/" xlink:href="http://docs.wxwidgets.org/3.0/classwx_date_time.html" target="_top" xlink:title="{wxDateTime\n||+ wxDateTime()\l+ wxDateTime()\l+ wxDateTime()\l+ wxDateTime()\l+ wxDateTime()\l+ wxDateTime()\l+ wxDateTime()\l+ wxDateTime()\land 107 more...\l+ ConvertYearToBC()\l+ GetAmPmStrings()\l+ GetBeginDST()\l+ GetEndDST()\l+ GetCentury()\l+ GetCountry()\l+ GetCurrentMonth()\l+ GetCurrentYear()\land 17 more...\l}">
<polygon fill="none" stroke="black" points="700,-1014 700,-1258 809,-1258 809,-1014 700,-1014"/>
<text text-anchor="middle" x="754.5" y="-1246" font-family="FreeSans" font-size="10.00">wxDateTime</text>
<polyline fill="none" stroke="black" points="700,-1239 809,-1239 "/>
<text text-anchor="middle" x="754.5" y="-1227" font-family="FreeSans" font-size="10.00"> </text>
<polyline fill="none" stroke="black" points="700,-1220 809,-1220 "/>
<text text-anchor="start" x="708" y="-1208" font-family="FreeSans" font-size="10.00">+ wxDateTime()</text>
<text text-anchor="start" x="708" y="-1197" font-family="FreeSans" font-size="10.00">+ wxDateTime()</text>
<text text-anchor="start" x="708" y="-1186" font-family="FreeSans" font-size="10.00">+ wxDateTime()</text>
<text text-anchor="start" x="708" y="-1175" font-family="FreeSans" font-size="10.00">+ wxDateTime()</text>
<text text-anchor="start" x="708" y="-1164" font-family="FreeSans" font-size="10.00">+ wxDateTime()</text>
<text text-anchor="start" x="708" y="-1153" font-family="FreeSans" font-size="10.00">+ wxDateTime()</text>
<text text-anchor="start" x="708" y="-1142" font-family="FreeSans" font-size="10.00">+ wxDateTime()</text>
<text text-anchor="start" x="708" y="-1131" font-family="FreeSans" font-size="10.00">+ wxDateTime()</text>
<text text-anchor="start" x="708" y="-1120" font-family="FreeSans" font-size="10.00">and 107 more...</text>
<text text-anchor="start" x="708" y="-1109" font-family="FreeSans" font-size="10.00">+ ConvertYearToBC()</text>
<text text-anchor="start" x="708" y="-1098" font-family="FreeSans" font-size="10.00">+ GetAmPmStrings()</text>
<text text-anchor="start" x="708" y="-1087" font-family="FreeSans" font-size="10.00">+ GetBeginDST()</text>
<text text-anchor="start" x="708" y="-1076" font-family="FreeSans" font-size="10.00">+ GetEndDST()</text>
<text text-anchor="start" x="708" y="-1065" font-family="FreeSans" font-size="10.00">+ GetCentury()</text>
<text text-anchor="start" x="708" y="-1054" font-family="FreeSans" font-size="10.00">+ GetCountry()</text>
<text text-anchor="start" x="708" y="-1043" font-family="FreeSans" font-size="10.00">+ GetCurrentMonth()</text>
<text text-anchor="start" x="708" y="-1032" font-family="FreeSans" font-size="10.00">+ GetCurrentYear()</text>
<text text-anchor="start" x="708" y="-1021" font-family="FreeSans" font-size="10.00">and 17 more...</text>
</a>
</g>
</g>
<!-- Node26&#45;&gt;Node21 -->
<g id="edge15" class="edge"><title>Node26&#45;&gt;Node21</title>
<path fill="none" stroke="#404040" d="M741.956,-1013.89C738.823,-983.644 735.39,-950.493 732.008,-917.843"/>
<polygon fill="none" stroke="#404040" points="732.001,-917.779 727.404,-912.223 730.765,-905.843 735.362,-911.399 732.001,-917.779"/>
<text text-anchor="middle" x="775" y="-954.5" font-family="FreeSans" font-size="10.00"> &#45;m_LastModified</text>
</g>
<!-- Node27 -->
<g id="node13" class="node"><title>Node27</title>
<polygon fill="none" stroke="#bfbfbf" points="418.5,-1102 418.5,-1170 528.5,-1170 528.5,-1102 418.5,-1102"/>
<text text-anchor="start" x="426.5" y="-1158" font-family="FreeSans" font-size="10.00">std::vector&lt; cbProject</text>
<text text-anchor="middle" x="473.5" y="-1147" font-family="FreeSans" font-size="10.00">::Glob &gt;</text>
<polyline fill="none" stroke="#bfbfbf" points="418.5,-1140 528.5,-1140 "/>
<text text-anchor="middle" x="473.5" y="-1128" font-family="FreeSans" font-size="10.00"> </text>
<polyline fill="none" stroke="#bfbfbf" points="418.5,-1121 528.5,-1121 "/>
<text text-anchor="middle" x="473.5" y="-1109" font-family="FreeSans" font-size="10.00"> </text>
</g>
<!-- Node27&#45;&gt;Node21 -->
<g id="edge16" class="edge"><title>Node27&#45;&gt;Node21</title>
<path fill="none" stroke="#404040" d="M472.239,-1101.87C471.975,-1058.49 476.358,-981.25 506.5,-924 531.692,-876.153 573.237,-833.531 612.444,-800.471"/>
<polygon fill="none" stroke="#404040" points="612.577,-800.361 614.647,-793.453 621.819,-792.706 619.75,-799.614 612.577,-800.361"/>
<text text-anchor="middle" x="528.5" y="-954.5" font-family="FreeSans" font-size="10.00"> &#45;m_Globs</text>
</g>
<!-- Node29&#45;&gt;Node21 -->
<g id="edge18" class="edge"><title>Node29&#45;&gt;Node21</title>
<path fill="none" stroke="#404040" d="M472.659,-470.702C485.788,-491.981 500.369,-513.73 515.5,-533 544.518,-569.956 580.104,-607.051 613.008,-638.79"/>
<polygon fill="none" stroke="#404040" points="613.09,-638.869 620.19,-640.128 621.758,-647.167 614.658,-645.907 613.09,-638.869"/>
<text text-anchor="middle" x="579.5" y="-525" font-family="FreeSans" font-size="10.00"> &#45;m_CurrentlyCompilingTarget</text>
</g>
<!-- Node30 -->
<g id="node15" class="node"><title>Node30</title>
<g id="a_node15"><a doxygen="/media/alpha/Barracuda/cb_docs/src/wxTagFile.xml:http://docs.wxwidgets.org/3.0/" xlink:href="http://docs.wxwidgets.org/3.0/classwx_tree_item_id.html" target="_top" xlink:title="{wxTreeItemId\n||+ wxTreeItemId()\l+ IsOk()\l+ GetID()\l+ Unset()\l}">
<polygon fill="none" stroke="black" points="1071,-1091 1071,-1181 1160,-1181 1160,-1091 1071,-1091"/>
<text text-anchor="middle" x="1115.5" y="-1169" font-family="FreeSans" font-size="10.00">wxTreeItemId</text>
<polyline fill="none" stroke="black" points="1071,-1162 1160,-1162 "/>
<text text-anchor="middle" x="1115.5" y="-1150" font-family="FreeSans" font-size="10.00"> </text>
<polyline fill="none" stroke="black" points="1071,-1143 1160,-1143 "/>
<text text-anchor="start" x="1079" y="-1131" font-family="FreeSans" font-size="10.00">+ wxTreeItemId()</text>
<text text-anchor="start" x="1079" y="-1120" font-family="FreeSans" font-size="10.00">+ IsOk()</text>
<text text-anchor="start" x="1079" y="-1109" font-family="FreeSans" font-size="10.00">+ GetID()</text>
<text text-anchor="start" x="1079" y="-1098" font-family="FreeSans" font-size="10.00">+ Unset()</text>
</a>
</g>
</g>
<!-- Node30&#45;&gt;Node18 -->
<g id="edge26" class="edge"><title>Node30&#45;&gt;Node18</title>
<path fill="none" stroke="#404040" d="M1110.91,-1090.89C1099.54,-981.623 1069.66,-694.335 1051.1,-515.98"/>
<polygon fill="none" stroke="#404040" points="1051.08,-515.797 1046.48,-510.244 1049.84,-503.862 1054.44,-509.416 1051.08,-515.797"/>
<text text-anchor="middle" x="1126" y="-726" font-family="FreeSans" font-size="10.00"> #m_TreeItemId</text>
</g>
<!-- Node30&#45;&gt;Node21 -->
<g id="edge22" class="edge"><title>Node30&#45;&gt;Node21</title>
<path fill="none" stroke="#404040" d="M1104.63,-1090.74C1095.83,-1063.48 1080.8,-1029.7 1056.5,-1008 1037.63,-991.152 1020.63,-1007.65 1002.5,-990 980.133,-968.23 1002.89,-943.482 978.5,-924 928.797,-884.293 890.991,-938.829 836.5,-906 827.854,-900.791 819.654,-894.723 811.903,-888.033"/>
<polygon fill="none" stroke="#404040" points="811.869,-888.003 804.741,-886.91 803.008,-879.91 810.136,-881.003 811.869,-888.003"/>
<text text-anchor="middle" x="1039" y="-954.5" font-family="FreeSans" font-size="10.00"> &#45;m_ProjectNode</text>
</g>
<!-- Node31&#45;&gt;Node18 -->
<g id="edge24" class="edge"><title>Node31&#45;&gt;Node18</title>
<path fill="none" stroke="#404040" d="M1016.7,-118.387C1005.81,-139.288 992.29,-168.993 986.5,-197 985.32,-202.71 984.596,-208.508 984.266,-214.348"/>
<polygon fill="none" stroke="#404040" points="984.265,-214.382 988.194,-220.429 984.123,-226.381 980.194,-220.334 984.265,-214.382"/>
<text text-anchor="middle" x="1022.5" y="-200" font-family="FreeSans" font-size="10.00"> +generatedFiles</text>
</g>
</g>
</svg>
