<?xml version="1.0" encoding="UTF-8" standalone="no"?>
<!DOCTYPE svg PUBLIC "-//W3C//DTD SVG 1.1//EN"
 "http://www.w3.org/Graphics/SVG/1.1/DTD/svg11.dtd">
<!-- Generated by graphviz version 2.38.0 (20140413.2041)
 -->
<!-- Title: ManageAssocsDialog Pages: 1 -->
<svg width="247pt" height="742pt"
 viewBox="0.00 0.00 246.50 742.00" xmlns="http://www.w3.org/2000/svg" xmlns:xlink="http://www.w3.org/1999/xlink">
<g id="graph0" class="graph" transform="scale(1 1) rotate(0) translate(4 738)">
<title>ManageAssocsDialog</title>
<polygon fill="white" stroke="none" points="-4,4 -4,-738 242.5,-738 242.5,4 -4,4"/>
<!-- Node1 -->
<g id="node1" class="node"><title>Node1</title>
<polygon fill="#bfbfbf" stroke="black" points="3,-0.5 3,-90.5 126,-90.5 126,-0.5 3,-0.5"/>
<text text-anchor="middle" x="64.5" y="-78.5" font-family="FreeSans" font-size="10.00">ManageAssocsDialog</text>
<polyline fill="none" stroke="black" points="3,-71.5 126,-71.5 "/>
<text text-anchor="start" x="11" y="-59.5" font-family="FreeSans" font-size="10.00">&#45; list</text>
<polyline fill="none" stroke="black" points="3,-52.5 126,-52.5 "/>
<text text-anchor="start" x="11" y="-40.5" font-family="FreeSans" font-size="10.00">+ ManageAssocsDialog()</text>
<text text-anchor="start" x="11" y="-29.5" font-family="FreeSans" font-size="10.00"># OnApply()</text>
<text text-anchor="start" x="11" y="-18.5" font-family="FreeSans" font-size="10.00"># OnCancel()</text>
<text text-anchor="start" x="11" y="-7.5" font-family="FreeSans" font-size="10.00"># OnClearAll()</text>
</g>
<!-- Node2 -->
<g id="node2" class="node"><title>Node2</title>
<g id="a_node2"><a xlink:href="classwxScrollingDialog" target="_top" xlink:title="{wxScrollingDialog\n||+ wxScrollingDialog()\l+ wxScrollingDialog()\l+ Create()\l+ Init()\l+ Show()\l+ ShowModal()\l}">
<polygon fill="white" stroke="black" points="11,-128.5 11,-240.5 118,-240.5 118,-128.5 11,-128.5"/>
<text text-anchor="middle" x="64.5" y="-228.5" font-family="FreeSans" font-size="10.00">wxScrollingDialog</text>
<polyline fill="none" stroke="black" points="11,-221.5 118,-221.5 "/>
<text text-anchor="middle" x="64.5" y="-209.5" font-family="FreeSans" font-size="10.00"> </text>
<polyline fill="none" stroke="black" points="11,-202.5 118,-202.5 "/>
<text text-anchor="start" x="19" y="-190.5" font-family="FreeSans" font-size="10.00">+ wxScrollingDialog()</text>
<text text-anchor="start" x="19" y="-179.5" font-family="FreeSans" font-size="10.00">+ wxScrollingDialog()</text>
<text text-anchor="start" x="19" y="-168.5" font-family="FreeSans" font-size="10.00">+ Create()</text>
<text text-anchor="start" x="19" y="-157.5" font-family="FreeSans" font-size="10.00">+ Init()</text>
<text text-anchor="start" x="19" y="-146.5" font-family="FreeSans" font-size="10.00">+ Show()</text>
<text text-anchor="start" x="19" y="-135.5" font-family="FreeSans" font-size="10.00">+ ShowModal()</text>
</a>
</g>
</g>
<!-- Node2&#45;&gt;Node1 -->
<g id="edge1" class="edge"><title>Node2&#45;&gt;Node1</title>
<path fill="none" stroke="midnightblue" d="M64.5,-118.134C64.5,-108.826 64.5,-99.4403 64.5,-90.6667"/>
<polygon fill="none" stroke="midnightblue" points="61.0001,-118.172 64.5,-128.172 68.0001,-118.172 61.0001,-118.172"/>
</g>
<!-- Node3 -->
<g id="node3" class="node"><title>Node3</title>
<polygon fill="white" stroke="#bfbfbf" points="0,-366.5 0,-423.5 55,-423.5 55,-366.5 0,-366.5"/>
<text text-anchor="middle" x="27.5" y="-411.5" font-family="FreeSans" font-size="10.00">wxDialog</text>
<polyline fill="none" stroke="#bfbfbf" points="0,-404.5 55,-404.5 "/>
<text text-anchor="middle" x="27.5" y="-392.5" font-family="FreeSans" font-size="10.00"> </text>
<polyline fill="none" stroke="#bfbfbf" points="0,-385.5 55,-385.5 "/>
<text text-anchor="middle" x="27.5" y="-373.5" font-family="FreeSans" font-size="10.00"> </text>
</g>
<!-- Node3&#45;&gt;Node2 -->
<g id="edge2" class="edge"><title>Node3&#45;&gt;Node2</title>
<path fill="none" stroke="midnightblue" d="M34.1745,-356.388C39.8978,-324.137 48.2207,-277.236 54.7,-240.724"/>
<polygon fill="none" stroke="midnightblue" points="30.7145,-355.855 32.4133,-366.313 37.6068,-357.078 30.7145,-355.855"/>
</g>
<!-- Node4 -->
<g id="node4" class="node"><title>Node4</title>
<g id="a_node4"><a xlink:href="classwxDialogHelper" target="_top" xlink:title="{wxDialogHelper\n|# m_dialog\l# m_layoutLayoutAdaptationDone\l# m_buttonIds\l# m_layoutAdaptationLevel\l# sm_layoutAdaptation\l|+ wxDialogHelper()\l+ ~wxDialogHelper()\l+ Init()\l+ SetDialog()\l+ GetDialog()\l+ DoLayoutAdaptation()\l+ CanDoLayoutAdaptation()\l+ GetContentWindow()\land 7 more...\l+ SetLayoutAdapter()\l+ GetLayoutAdapter()\l+ GetLayoutAdaptation()\l+ SetLayoutAdaptation()\l}">
<polygon fill="white" stroke="black" points="73,-278.5 73,-511.5 234,-511.5 234,-278.5 73,-278.5"/>
<text text-anchor="middle" x="153.5" y="-499.5" font-family="FreeSans" font-size="10.00">wxDialogHelper</text>
<polyline fill="none" stroke="black" points="73,-492.5 234,-492.5 "/>
<text text-anchor="start" x="81" y="-480.5" font-family="FreeSans" font-size="10.00"># m_dialog</text>
<text text-anchor="start" x="81" y="-469.5" font-family="FreeSans" font-size="10.00"># m_layoutLayoutAdaptationDone</text>
<text text-anchor="start" x="81" y="-458.5" font-family="FreeSans" font-size="10.00"># m_buttonIds</text>
<text text-anchor="start" x="81" y="-447.5" font-family="FreeSans" font-size="10.00"># m_layoutAdaptationLevel</text>
<text text-anchor="start" x="81" y="-436.5" font-family="FreeSans" font-size="10.00"># sm_layoutAdaptation</text>
<polyline fill="none" stroke="black" points="73,-429.5 234,-429.5 "/>
<text text-anchor="start" x="81" y="-417.5" font-family="FreeSans" font-size="10.00">+ wxDialogHelper()</text>
<text text-anchor="start" x="81" y="-406.5" font-family="FreeSans" font-size="10.00">+ ~wxDialogHelper()</text>
<text text-anchor="start" x="81" y="-395.5" font-family="FreeSans" font-size="10.00">+ Init()</text>
<text text-anchor="start" x="81" y="-384.5" font-family="FreeSans" font-size="10.00">+ SetDialog()</text>
<text text-anchor="start" x="81" y="-373.5" font-family="FreeSans" font-size="10.00">+ GetDialog()</text>
<text text-anchor="start" x="81" y="-362.5" font-family="FreeSans" font-size="10.00">+ DoLayoutAdaptation()</text>
<text text-anchor="start" x="81" y="-351.5" font-family="FreeSans" font-size="10.00">+ CanDoLayoutAdaptation()</text>
<text text-anchor="start" x="81" y="-340.5" font-family="FreeSans" font-size="10.00">+ GetContentWindow()</text>
<text text-anchor="start" x="81" y="-329.5" font-family="FreeSans" font-size="10.00">and 7 more...</text>
<text text-anchor="start" x="81" y="-318.5" font-family="FreeSans" font-size="10.00">+ SetLayoutAdapter()</text>
<text text-anchor="start" x="81" y="-307.5" font-family="FreeSans" font-size="10.00">+ GetLayoutAdapter()</text>
<text text-anchor="start" x="81" y="-296.5" font-family="FreeSans" font-size="10.00">+ GetLayoutAdaptation()</text>
<text text-anchor="start" x="81" y="-285.5" font-family="FreeSans" font-size="10.00">+ SetLayoutAdaptation()</text>
</a>
</g>
</g>
<!-- Node4&#45;&gt;Node2 -->
<g id="edge3" class="edge"><title>Node4&#45;&gt;Node2</title>
<path fill="none" stroke="midnightblue" d="M100.258,-269.271C96.012,-259.323 91.8761,-249.634 88.0138,-240.586"/>
<polygon fill="none" stroke="midnightblue" points="97.0397,-270.646 104.185,-278.469 103.478,-267.898 97.0397,-270.646"/>
</g>
<!-- Node5 -->
<g id="node5" class="node"><title>Node5</title>
<g id="a_node5"><a xlink:href="classwxDialogLayoutAdapter" target="_top" xlink:title="{wxDialogLayoutAdapter\n||+ wxDialogLayoutAdapter()\l+ CanDoLayoutAdaptation()\l+ DoLayoutAdaptation()\l}">
<polygon fill="white" stroke="black" points="86,-559.5 86,-638.5 221,-638.5 221,-559.5 86,-559.5"/>
<text text-anchor="middle" x="153.5" y="-626.5" font-family="FreeSans" font-size="10.00">wxDialogLayoutAdapter</text>
<polyline fill="none" stroke="black" points="86,-619.5 221,-619.5 "/>
<text text-anchor="middle" x="153.5" y="-607.5" font-family="FreeSans" font-size="10.00"> </text>
<polyline fill="none" stroke="black" points="86,-600.5 221,-600.5 "/>
<text text-anchor="start" x="94" y="-588.5" font-family="FreeSans" font-size="10.00">+ wxDialogLayoutAdapter()</text>
<text text-anchor="start" x="94" y="-577.5" font-family="FreeSans" font-size="10.00">+ CanDoLayoutAdaptation()</text>
<text text-anchor="start" x="94" y="-566.5" font-family="FreeSans" font-size="10.00">+ DoLayoutAdaptation()</text>
</a>
</g>
</g>
<!-- Node5&#45;&gt;Node4 -->
<g id="edge4" class="edge"><title>Node5&#45;&gt;Node4</title>
<path fill="none" stroke="#404040" d="M153.5,-559.052C153.5,-548.54 153.5,-536.563 153.5,-523.983"/>
<polygon fill="none" stroke="#404040" points="153.5,-523.766 149.5,-517.766 153.5,-511.766 157.5,-517.766 153.5,-523.766"/>
<text text-anchor="middle" x="196" y="-533" font-family="FreeSans" font-size="10.00"> #sm_layoutAdapter</text>
</g>
<!-- Node6 -->
<g id="node6" class="node"><title>Node6</title>
<polygon fill="white" stroke="#bfbfbf" points="125.5,-676.5 125.5,-733.5 181.5,-733.5 181.5,-676.5 125.5,-676.5"/>
<text text-anchor="middle" x="153.5" y="-721.5" font-family="FreeSans" font-size="10.00">wxObject</text>
<polyline fill="none" stroke="#bfbfbf" points="125.5,-714.5 181.5,-714.5 "/>
<text text-anchor="middle" x="153.5" y="-702.5" font-family="FreeSans" font-size="10.00"> </text>
<polyline fill="none" stroke="#bfbfbf" points="125.5,-695.5 181.5,-695.5 "/>
<text text-anchor="middle" x="153.5" y="-683.5" font-family="FreeSans" font-size="10.00"> </text>
</g>
<!-- Node6&#45;&gt;Node5 -->
<g id="edge5" class="edge"><title>Node6&#45;&gt;Node5</title>
<path fill="none" stroke="midnightblue" d="M153.5,-666.232C153.5,-657.268 153.5,-647.693 153.5,-638.689"/>
<polygon fill="none" stroke="midnightblue" points="150,-666.403 153.5,-676.403 157,-666.403 150,-666.403"/>
</g>
</g>
</svg>
