<?xml version="1.0" encoding="UTF-8" standalone="no"?>
<!DOCTYPE svg PUBLIC "-//W3C//DTD SVG 1.1//EN"
 "http://www.w3.org/Graphics/SVG/1.1/DTD/svg11.dtd">
<!-- Generated by graphviz version 2.40.1 (20161225.0304)
 -->
<!-- Title: ProjectBuildTarget Pages: 1 -->
<svg width="814pt" height="1740pt"
 viewBox="0.00 0.00 814.00 1740.00" xmlns="http://www.w3.org/2000/svg" xmlns:xlink="http://www.w3.org/1999/xlink">
<g id="graph0" class="graph" transform="scale(1 1) rotate(0) translate(4 1736)">
<title>ProjectBuildTarget</title>
<!-- Node3 -->
<g id="node1" class="node">
<title>Node3</title>
<polygon fill="#bfbfbf" stroke="#000000" points="137.5,-419 137.5,-630 276.5,-630 276.5,-419 137.5,-419"/>
<text text-anchor="middle" x="207" y="-618" font-family="FreeSans" font-size="10.00" fill="#000000">ProjectBuildTarget</text>
<polyline fill="none" stroke="#000000" points="137.5,-611 276.5,-611 "/>
<text text-anchor="start" x="145.5" y="-599" font-family="FreeSans" font-size="10.00" fill="#000000">&#45; m_TargetDeps</text>
<text text-anchor="start" x="145.5" y="-588" font-family="FreeSans" font-size="10.00" fill="#000000">&#45; m_Files</text>
<text text-anchor="start" x="145.5" y="-577" font-family="FreeSans" font-size="10.00" fill="#000000">&#45; m_FileArray</text>
<text text-anchor="start" x="145.5" y="-566" font-family="FreeSans" font-size="10.00" fill="#000000">&#45; m_BuildWithAll</text>
<text text-anchor="start" x="145.5" y="-555" font-family="FreeSans" font-size="10.00" fill="#000000">&#45; m_CreateStaticLib</text>
<text text-anchor="start" x="145.5" y="-544" font-family="FreeSans" font-size="10.00" fill="#000000">&#45; m_CreateDefFile</text>
<text text-anchor="start" x="145.5" y="-533" font-family="FreeSans" font-size="10.00" fill="#000000">&#45; m_UseConsoleRunner</text>
<polyline fill="none" stroke="#000000" points="137.5,-526 276.5,-526 "/>
<text text-anchor="start" x="145.5" y="-514" font-family="FreeSans" font-size="10.00" fill="#000000">+ ProjectBuildTarget()</text>
<text text-anchor="start" x="145.5" y="-503" font-family="FreeSans" font-size="10.00" fill="#000000">+ ~ProjectBuildTarget()</text>
<text text-anchor="start" x="145.5" y="-492" font-family="FreeSans" font-size="10.00" fill="#000000">+ GetParentProject()</text>
<text text-anchor="start" x="145.5" y="-481" font-family="FreeSans" font-size="10.00" fill="#000000">+ GetFullTitle()</text>
<text text-anchor="start" x="145.5" y="-470" font-family="FreeSans" font-size="10.00" fill="#000000">+ GetExternalDeps()</text>
<text text-anchor="start" x="145.5" y="-459" font-family="FreeSans" font-size="10.00" fill="#000000">+ SetExternalDeps()</text>
<text text-anchor="start" x="145.5" y="-448" font-family="FreeSans" font-size="10.00" fill="#000000">+ GetAdditionalOutputFiles()</text>
<text text-anchor="start" x="145.5" y="-437" font-family="FreeSans" font-size="10.00" fill="#000000">+ SetAdditionalOutputFiles()</text>
<text text-anchor="start" x="145.5" y="-426" font-family="FreeSans" font-size="10.00" fill="#000000">and 15 more...</text>
</g>
<!-- Node8 -->
<g id="node6" class="node">
<title>Node8</title>
<g id="a_node6"><a xlink:href="classcbProject" target="_top" xlink:title="Represents a Code::Blocks project. ">
<polygon fill="none" stroke="#000000" points="291.5,-.5 291.5,-354.5 472.5,-354.5 472.5,-.5 291.5,-.5"/>
<text text-anchor="middle" x="382" y="-342.5" font-family="FreeSans" font-size="10.00" fill="#000000">cbProject</text>
<polyline fill="none" stroke="#000000" points="291.5,-335.5 472.5,-335.5 "/>
<text text-anchor="start" x="299.5" y="-323.5" font-family="FreeSans" font-size="10.00" fill="#000000">&#45; m_Targets</text>
<text text-anchor="start" x="299.5" y="-312.5" font-family="FreeSans" font-size="10.00" fill="#000000">&#45; m_CustomMakefile</text>
<text text-anchor="start" x="299.5" y="-301.5" font-family="FreeSans" font-size="10.00" fill="#000000">&#45; m_Files</text>
<text text-anchor="start" x="299.5" y="-290.5" font-family="FreeSans" font-size="10.00" fill="#000000">&#45; m_FileArray</text>
<text text-anchor="start" x="299.5" y="-279.5" font-family="FreeSans" font-size="10.00" fill="#000000">&#45; m_Loaded</text>
<text text-anchor="start" x="299.5" y="-268.5" font-family="FreeSans" font-size="10.00" fill="#000000">&#45; m_CurrentlyLoading</text>
<text text-anchor="start" x="299.5" y="-257.5" font-family="FreeSans" font-size="10.00" fill="#000000">&#45; m_PCHMode</text>
<text text-anchor="start" x="299.5" y="-246.5" font-family="FreeSans" font-size="10.00" fill="#000000">&#45; m_ProjectFilesMap</text>
<text text-anchor="start" x="299.5" y="-235.5" font-family="FreeSans" font-size="10.00" fill="#000000">&#45; m_ExtendedObjectNamesGeneration</text>
<text text-anchor="start" x="299.5" y="-224.5" font-family="FreeSans" font-size="10.00" fill="#000000">&#45; m_AutoShowNotesOnLoad</text>
<text text-anchor="start" x="299.5" y="-213.5" font-family="FreeSans" font-size="10.00" fill="#000000">&#45; m_CheckForExternallyModified</text>
<text text-anchor="start" x="299.5" y="-202.5" font-family="FreeSans" font-size="10.00" fill="#000000">Files</text>
<text text-anchor="start" x="299.5" y="-191.5" font-family="FreeSans" font-size="10.00" fill="#000000">&#45; m_pExtensionsElement</text>
<polyline fill="none" stroke="#000000" points="291.5,-184.5 472.5,-184.5 "/>
<text text-anchor="start" x="299.5" y="-172.5" font-family="FreeSans" font-size="10.00" fill="#000000">+ cbProject()</text>
<text text-anchor="start" x="299.5" y="-161.5" font-family="FreeSans" font-size="10.00" fill="#000000">+ ~cbProject()</text>
<text text-anchor="start" x="299.5" y="-150.5" font-family="FreeSans" font-size="10.00" fill="#000000">+ IsLoaded()</text>
<text text-anchor="start" x="299.5" y="-139.5" font-family="FreeSans" font-size="10.00" fill="#000000">+ ClearAllProperties()</text>
<text text-anchor="start" x="299.5" y="-128.5" font-family="FreeSans" font-size="10.00" fill="#000000">+ CalculateCommonTopLevelPath()</text>
<text text-anchor="start" x="299.5" y="-117.5" font-family="FreeSans" font-size="10.00" fill="#000000">+ GetCommonTopLevelPath()</text>
<text text-anchor="start" x="299.5" y="-106.5" font-family="FreeSans" font-size="10.00" fill="#000000">+ GetModified()</text>
<text text-anchor="start" x="299.5" y="-95.5" font-family="FreeSans" font-size="10.00" fill="#000000">+ SetModified()</text>
<text text-anchor="start" x="299.5" y="-84.5" font-family="FreeSans" font-size="10.00" fill="#000000">and 85 more...</text>
<text text-anchor="start" x="299.5" y="-73.5" font-family="FreeSans" font-size="10.00" fill="#000000">&#45; Open()</text>
<text text-anchor="start" x="299.5" y="-62.5" font-family="FreeSans" font-size="10.00" fill="#000000">&#45; ExpandVirtualBuildTarget</text>
<text text-anchor="start" x="299.5" y="-51.5" font-family="FreeSans" font-size="10.00" fill="#000000">Group()</text>
<text text-anchor="start" x="299.5" y="-40.5" font-family="FreeSans" font-size="10.00" fill="#000000">&#45; AddDefaultBuildTarget()</text>
<text text-anchor="start" x="299.5" y="-29.5" font-family="FreeSans" font-size="10.00" fill="#000000">&#45; IndexOfBuildTargetName()</text>
<text text-anchor="start" x="299.5" y="-18.5" font-family="FreeSans" font-size="10.00" fill="#000000">&#45; CreateUniqueFilename()</text>
<text text-anchor="start" x="299.5" y="-7.5" font-family="FreeSans" font-size="10.00" fill="#000000">&#45; NotifyPlugins()</text>
</a>
</g>
</g>
<!-- Node3&#45;&gt;Node8 -->
<g id="edge16" class="edge">
<title>Node3&#45;&gt;Node8</title>
<path fill="none" stroke="#404040" d="M216.7917,-418.658C220.2228,-402.9813 224.8275,-387.3036 231,-373 244.2798,-342.2265 263.5242,-312.0221 283.8538,-284.9073"/>
<polygon fill="none" stroke="#404040" points="284.0935,-284.5939 284.5614,-277.398 291.3837,-275.0622 290.9159,-282.2581 284.0935,-284.5939"/>
<text text-anchor="middle" x="295" y="-376" font-family="FreeSans" font-size="10.00" fill="#000000"> &#45;m_CurrentlyCompilingTarget</text>
</g>
<!-- Node4 -->
<g id="node2" class="node">
<title>Node4</title>
<g id="a_node2"><a xlink:href="classCompileTargetBase" target="_top" xlink:title="Base class for build target classes Each Code::Blocks project consists of at least one target...">
<polygon fill="none" stroke="#000000" points="106,-771.5 106,-1026.5 274,-1026.5 274,-771.5 106,-771.5"/>
<text text-anchor="middle" x="190" y="-1014.5" font-family="FreeSans" font-size="10.00" fill="#000000">CompileTargetBase</text>
<polyline fill="none" stroke="#000000" points="106,-1007.5 274,-1007.5 "/>
<text text-anchor="start" x="114" y="-995.5" font-family="FreeSans" font-size="10.00" fill="#000000"># m_Title</text>
<text text-anchor="start" x="114" y="-984.5" font-family="FreeSans" font-size="10.00" fill="#000000"># m_OutputFilename</text>
<text text-anchor="start" x="114" y="-973.5" font-family="FreeSans" font-size="10.00" fill="#000000"># m_OptionsRelation</text>
<text text-anchor="start" x="114" y="-962.5" font-family="FreeSans" font-size="10.00" fill="#000000"># m_TargetType</text>
<text text-anchor="start" x="114" y="-951.5" font-family="FreeSans" font-size="10.00" fill="#000000"># m_MakeCommandsModified</text>
<text text-anchor="start" x="114" y="-940.5" font-family="FreeSans" font-size="10.00" fill="#000000"># m_RunHostApplicationInTerminal</text>
<text text-anchor="start" x="114" y="-929.5" font-family="FreeSans" font-size="10.00" fill="#000000"># m_PrefixGenerationPolicy</text>
<text text-anchor="start" x="114" y="-918.5" font-family="FreeSans" font-size="10.00" fill="#000000"># m_ExtensionGenerationPolicy</text>
<polyline fill="none" stroke="#000000" points="106,-911.5 274,-911.5 "/>
<text text-anchor="start" x="114" y="-899.5" font-family="FreeSans" font-size="10.00" fill="#000000">+ CompileTargetBase()</text>
<text text-anchor="start" x="114" y="-888.5" font-family="FreeSans" font-size="10.00" fill="#000000">+ ~CompileTargetBase()</text>
<text text-anchor="start" x="114" y="-877.5" font-family="FreeSans" font-size="10.00" fill="#000000">+ SetTargetFilenameGeneration</text>
<text text-anchor="start" x="114" y="-866.5" font-family="FreeSans" font-size="10.00" fill="#000000">Policy()</text>
<text text-anchor="start" x="114" y="-855.5" font-family="FreeSans" font-size="10.00" fill="#000000">+ GetTargetFilenameGeneration</text>
<text text-anchor="start" x="114" y="-844.5" font-family="FreeSans" font-size="10.00" fill="#000000">Policy()</text>
<text text-anchor="start" x="114" y="-833.5" font-family="FreeSans" font-size="10.00" fill="#000000">+ GetFilename()</text>
<text text-anchor="start" x="114" y="-822.5" font-family="FreeSans" font-size="10.00" fill="#000000">+ GetTitle()</text>
<text text-anchor="start" x="114" y="-811.5" font-family="FreeSans" font-size="10.00" fill="#000000">+ SetTitle()</text>
<text text-anchor="start" x="114" y="-800.5" font-family="FreeSans" font-size="10.00" fill="#000000">+ SetOutputFilename()</text>
<text text-anchor="start" x="114" y="-789.5" font-family="FreeSans" font-size="10.00" fill="#000000">and 32 more...</text>
<text text-anchor="start" x="114" y="-778.5" font-family="FreeSans" font-size="10.00" fill="#000000">&#45; GenerateTargetFilename()</text>
</a>
</g>
</g>
<!-- Node4&#45;&gt;Node3 -->
<g id="edge1" class="edge">
<title>Node4&#45;&gt;Node3</title>
<path fill="none" stroke="#191970" d="M196.2473,-761.376C198.2142,-718.045 200.3547,-670.8928 202.2042,-630.1487"/>
<polygon fill="none" stroke="#191970" points="192.7482,-761.2789 195.791,-771.4274 199.741,-761.5964 192.7482,-761.2789"/>
</g>
<!-- Node4&#45;&gt;Node8 -->
<g id="edge6" class="edge">
<title>Node4&#45;&gt;Node8</title>
<path fill="none" stroke="#191970" d="M139.5795,-761.6106C110.0331,-659.6614 85.9728,-518.7009 128,-402 156.1167,-323.9258 230.3145,-263.7509 291.3027,-225.4427"/>
<polygon fill="none" stroke="#191970" points="136.267,-762.752 142.4539,-771.3527 142.9809,-760.771 136.267,-762.752"/>
</g>
<!-- Node5 -->
<g id="node3" class="node">
<title>Node5</title>
<g id="a_node3"><a xlink:href="classCompileOptionsBase" target="_top" xlink:title="This is a base class for all classes needing compilation parameters. ">
<polygon fill="none" stroke="#000000" points="85.5,-1217.5 85.5,-1395.5 222.5,-1395.5 222.5,-1217.5 85.5,-1217.5"/>
<text text-anchor="middle" x="154" y="-1383.5" font-family="FreeSans" font-size="10.00" fill="#000000">CompileOptionsBase</text>
<polyline fill="none" stroke="#000000" points="85.5,-1376.5 222.5,-1376.5 "/>
<text text-anchor="start" x="93.5" y="-1364.5" font-family="FreeSans" font-size="10.00" fill="#000000"># m_Platform</text>
<text text-anchor="start" x="93.5" y="-1353.5" font-family="FreeSans" font-size="10.00" fill="#000000"># m_Modified</text>
<text text-anchor="start" x="93.5" y="-1342.5" font-family="FreeSans" font-size="10.00" fill="#000000"># m_AlwaysRunPostCmds</text>
<text text-anchor="start" x="93.5" y="-1331.5" font-family="FreeSans" font-size="10.00" fill="#000000"># m_Vars</text>
<polyline fill="none" stroke="#000000" points="85.5,-1324.5 222.5,-1324.5 "/>
<text text-anchor="start" x="93.5" y="-1312.5" font-family="FreeSans" font-size="10.00" fill="#000000">+ CompileOptionsBase()</text>
<text text-anchor="start" x="93.5" y="-1301.5" font-family="FreeSans" font-size="10.00" fill="#000000">+ ~CompileOptionsBase()</text>
<text text-anchor="start" x="93.5" y="-1290.5" font-family="FreeSans" font-size="10.00" fill="#000000">+ AddPlatform()</text>
<text text-anchor="start" x="93.5" y="-1279.5" font-family="FreeSans" font-size="10.00" fill="#000000">+ RemovePlatform()</text>
<text text-anchor="start" x="93.5" y="-1268.5" font-family="FreeSans" font-size="10.00" fill="#000000">+ SetPlatforms()</text>
<text text-anchor="start" x="93.5" y="-1257.5" font-family="FreeSans" font-size="10.00" fill="#000000">+ GetPlatforms()</text>
<text text-anchor="start" x="93.5" y="-1246.5" font-family="FreeSans" font-size="10.00" fill="#000000">+ SupportsCurrentPlatform()</text>
<text text-anchor="start" x="93.5" y="-1235.5" font-family="FreeSans" font-size="10.00" fill="#000000">+ SetLinkerOptions()</text>
<text text-anchor="start" x="93.5" y="-1224.5" font-family="FreeSans" font-size="10.00" fill="#000000">and 56 more...</text>
</a>
</g>
</g>
<!-- Node5&#45;&gt;Node4 -->
<g id="edge2" class="edge">
<title>Node5&#45;&gt;Node4</title>
<path fill="none" stroke="#191970" d="M157.0735,-1207.1102C159.1579,-1158.2013 162.5583,-1098.4167 168,-1045 168.6105,-1039.0072 169.2943,-1032.8843 170.0328,-1026.7058"/>
<polygon fill="none" stroke="#191970" points="153.5652,-1207.2393 156.6484,-1217.3756 160.5592,-1207.529 153.5652,-1207.2393"/>
</g>
<!-- Node6 -->
<g id="node4" class="node">
<title>Node6</title>
<g id="a_node4"><a doxygen="/media/alpha/Barracuda/cb_docs/src/wxTagFile.xml:http://docs.wxwidgets.org/3.0/" xlink:href="http://docs.wxwidgets.org/3.0/classwx_array_string.html" target="_top" xlink:title="{wxArrayString\n||+ wxArrayString()\l+ wxArrayString()\l+ wxArrayString()\l+ ~wxArrayString()\l+ Add()\l+ Alloc()\l+ Clear()\l+ Empty()\land 19 more...\l}">
<polygon fill="none" stroke="#000000" points="106.5,-1586.5 106.5,-1731.5 201.5,-1731.5 201.5,-1586.5 106.5,-1586.5"/>
<text text-anchor="middle" x="154" y="-1719.5" font-family="FreeSans" font-size="10.00" fill="#000000">wxArrayString</text>
<polyline fill="none" stroke="#000000" points="106.5,-1712.5 201.5,-1712.5 "/>
<text text-anchor="middle" x="154" y="-1700.5" font-family="FreeSans" font-size="10.00" fill="#000000"> </text>
<polyline fill="none" stroke="#000000" points="106.5,-1693.5 201.5,-1693.5 "/>
<text text-anchor="start" x="114.5" y="-1681.5" font-family="FreeSans" font-size="10.00" fill="#000000">+ wxArrayString()</text>
<text text-anchor="start" x="114.5" y="-1670.5" font-family="FreeSans" font-size="10.00" fill="#000000">+ wxArrayString()</text>
<text text-anchor="start" x="114.5" y="-1659.5" font-family="FreeSans" font-size="10.00" fill="#000000">+ wxArrayString()</text>
<text text-anchor="start" x="114.5" y="-1648.5" font-family="FreeSans" font-size="10.00" fill="#000000">+ ~wxArrayString()</text>
<text text-anchor="start" x="114.5" y="-1637.5" font-family="FreeSans" font-size="10.00" fill="#000000">+ Add()</text>
<text text-anchor="start" x="114.5" y="-1626.5" font-family="FreeSans" font-size="10.00" fill="#000000">+ Alloc()</text>
<text text-anchor="start" x="114.5" y="-1615.5" font-family="FreeSans" font-size="10.00" fill="#000000">+ Clear()</text>
<text text-anchor="start" x="114.5" y="-1604.5" font-family="FreeSans" font-size="10.00" fill="#000000">+ Empty()</text>
<text text-anchor="start" x="114.5" y="-1593.5" font-family="FreeSans" font-size="10.00" fill="#000000">and 19 more...</text>
</a>
</g>
</g>
<!-- Node6&#45;&gt;Node5 -->
<g id="edge3" class="edge">
<title>Node6&#45;&gt;Node5</title>
<path fill="none" stroke="#404040" d="M154,-1586.3892C154,-1534.8477 154,-1464.9667 154,-1407.9255"/>
<polygon fill="none" stroke="#404040" points="154.0001,-1407.589 150,-1401.589 154,-1395.589 158,-1401.5889 154.0001,-1407.589"/>
<text text-anchor="middle" x="219.5" y="-1560" font-family="FreeSans" font-size="10.00" fill="#000000"> #m_LibDirs</text>
<text text-anchor="middle" x="219.5" y="-1549" font-family="FreeSans" font-size="10.00" fill="#000000">#m_CompilerOptions</text>
<text text-anchor="middle" x="219.5" y="-1538" font-family="FreeSans" font-size="10.00" fill="#000000">#m_IncludeDirs</text>
<text text-anchor="middle" x="219.5" y="-1527" font-family="FreeSans" font-size="10.00" fill="#000000">#m_LinkLibs</text>
<text text-anchor="middle" x="219.5" y="-1516" font-family="FreeSans" font-size="10.00" fill="#000000">#m_CmdsAfter</text>
<text text-anchor="middle" x="219.5" y="-1505" font-family="FreeSans" font-size="10.00" fill="#000000">#m_ResourceCompilerOptions</text>
<text text-anchor="middle" x="219.5" y="-1494" font-family="FreeSans" font-size="10.00" fill="#000000">#m_ResIncludeDirs</text>
<text text-anchor="middle" x="219.5" y="-1483" font-family="FreeSans" font-size="10.00" fill="#000000">#m_Scripts</text>
<text text-anchor="middle" x="219.5" y="-1472" font-family="FreeSans" font-size="10.00" fill="#000000">#m_CmdsBefore</text>
<text text-anchor="middle" x="219.5" y="-1461" font-family="FreeSans" font-size="10.00" fill="#000000">#m_LinkerOptions</text>
<text text-anchor="middle" x="219.5" y="-1450" font-family="FreeSans" font-size="10.00" fill="#000000">...</text>
</g>
<!-- Node6&#45;&gt;Node8 -->
<g id="edge7" class="edge">
<title>Node6&#45;&gt;Node8</title>
<path fill="none" stroke="#404040" d="M106.3281,-1594.1363C61.0999,-1526.0696 0,-1414.188 0,-1306.5 0,-1306.5 0,-1306.5 0,-524.5 0,-372.7594 167.1887,-269.9206 280.3541,-217.6921"/>
<polygon fill="none" stroke="#404040" points="280.5454,-217.6053 284.3543,-211.4822 291.4713,-212.643 287.6625,-218.7661 280.5454,-217.6053"/>
<text text-anchor="middle" x="44" y="-907.5" font-family="FreeSans" font-size="10.00" fill="#000000"> &#45;m_ExpandedNodes</text>
<text text-anchor="middle" x="44" y="-896.5" font-family="FreeSans" font-size="10.00" fill="#000000">&#45;m_SelectedNodes</text>
<text text-anchor="middle" x="44" y="-885.5" font-family="FreeSans" font-size="10.00" fill="#000000">&#45;m_VirtualFolders</text>
</g>
<!-- Node9 -->
<g id="node7" class="node">
<title>Node9</title>
<polygon fill="none" stroke="#bfbfbf" points="546.5,-865 546.5,-933 647.5,-933 647.5,-865 546.5,-865"/>
<text text-anchor="start" x="554.5" y="-921" font-family="FreeSans" font-size="10.00" fill="#000000">std::map&lt; wxString,</text>
<text text-anchor="middle" x="597" y="-910" font-family="FreeSans" font-size="10.00" fill="#000000"> wxArrayString &gt;</text>
<polyline fill="none" stroke="#bfbfbf" points="546.5,-903 647.5,-903 "/>
<text text-anchor="middle" x="597" y="-891" font-family="FreeSans" font-size="10.00" fill="#000000"> </text>
<polyline fill="none" stroke="#bfbfbf" points="546.5,-884 647.5,-884 "/>
<text text-anchor="middle" x="597" y="-872" font-family="FreeSans" font-size="10.00" fill="#000000"> </text>
</g>
<!-- Node6&#45;&gt;Node9 -->
<g id="edge9" class="edge">
<title>Node6&#45;&gt;Node9</title>
<path fill="none" stroke="#404040" d="M201.594,-1644.3306C284.0933,-1616.3817 453.3099,-1547.4823 542,-1429 651.9132,-1282.1655 624.5637,-1044.8611 606.6391,-945.3002"/>
<polygon fill="none" stroke="#404040" points="606.6012,-945.0962 601.5695,-939.9307 604.4024,-933.2994 609.4341,-938.4649 606.6012,-945.0962"/>
<text text-anchor="middle" x="644" y="-1304" font-family="FreeSans" font-size="10.00" fill="#000000"> +elements</text>
</g>
<!-- Node7 -->
<g id="node5" class="node">
<title>Node7</title>
<g id="a_node5"><a doxygen="/media/alpha/Barracuda/cb_docs/src/wxTagFile.xml:http://docs.wxwidgets.org/3.0/" xlink:href="http://docs.wxwidgets.org/3.0/classwx_string.html" target="_top" xlink:title="{wxString\n|+ npos\l|+ wxString()\l+ wxString()\l+ wxString()\l+ wxString()\l+ wxString()\l+ wxString()\l+ wxString()\l+ wxString()\land 222 more...\l+ Format()\l+ FormatV()\l+ FromCDouble()\l+ FromDouble()\l+ From8BitData()\l+ From8BitData()\l+ FromAscii()\l+ FromAscii()\land 7 more...\l}">
<polygon fill="none" stroke="#000000" points="441.5,-1184.5 441.5,-1428.5 532.5,-1428.5 532.5,-1184.5 441.5,-1184.5"/>
<text text-anchor="middle" x="487" y="-1416.5" font-family="FreeSans" font-size="10.00" fill="#000000">wxString</text>
<polyline fill="none" stroke="#000000" points="441.5,-1409.5 532.5,-1409.5 "/>
<text text-anchor="start" x="449.5" y="-1397.5" font-family="FreeSans" font-size="10.00" fill="#000000">+ npos</text>
<polyline fill="none" stroke="#000000" points="441.5,-1390.5 532.5,-1390.5 "/>
<text text-anchor="start" x="449.5" y="-1378.5" font-family="FreeSans" font-size="10.00" fill="#000000">+ wxString()</text>
<text text-anchor="start" x="449.5" y="-1367.5" font-family="FreeSans" font-size="10.00" fill="#000000">+ wxString()</text>
<text text-anchor="start" x="449.5" y="-1356.5" font-family="FreeSans" font-size="10.00" fill="#000000">+ wxString()</text>
<text text-anchor="start" x="449.5" y="-1345.5" font-family="FreeSans" font-size="10.00" fill="#000000">+ wxString()</text>
<text text-anchor="start" x="449.5" y="-1334.5" font-family="FreeSans" font-size="10.00" fill="#000000">+ wxString()</text>
<text text-anchor="start" x="449.5" y="-1323.5" font-family="FreeSans" font-size="10.00" fill="#000000">+ wxString()</text>
<text text-anchor="start" x="449.5" y="-1312.5" font-family="FreeSans" font-size="10.00" fill="#000000">+ wxString()</text>
<text text-anchor="start" x="449.5" y="-1301.5" font-family="FreeSans" font-size="10.00" fill="#000000">+ wxString()</text>
<text text-anchor="start" x="449.5" y="-1290.5" font-family="FreeSans" font-size="10.00" fill="#000000">and 222 more...</text>
<text text-anchor="start" x="449.5" y="-1279.5" font-family="FreeSans" font-size="10.00" fill="#000000">+ Format()</text>
<text text-anchor="start" x="449.5" y="-1268.5" font-family="FreeSans" font-size="10.00" fill="#000000">+ FormatV()</text>
<text text-anchor="start" x="449.5" y="-1257.5" font-family="FreeSans" font-size="10.00" fill="#000000">+ FromCDouble()</text>
<text text-anchor="start" x="449.5" y="-1246.5" font-family="FreeSans" font-size="10.00" fill="#000000">+ FromDouble()</text>
<text text-anchor="start" x="449.5" y="-1235.5" font-family="FreeSans" font-size="10.00" fill="#000000">+ From8BitData()</text>
<text text-anchor="start" x="449.5" y="-1224.5" font-family="FreeSans" font-size="10.00" fill="#000000">+ From8BitData()</text>
<text text-anchor="start" x="449.5" y="-1213.5" font-family="FreeSans" font-size="10.00" fill="#000000">+ FromAscii()</text>
<text text-anchor="start" x="449.5" y="-1202.5" font-family="FreeSans" font-size="10.00" fill="#000000">+ FromAscii()</text>
<text text-anchor="start" x="449.5" y="-1191.5" font-family="FreeSans" font-size="10.00" fill="#000000">and 7 more...</text>
</a>
</g>
</g>
<!-- Node7&#45;&gt;Node3 -->
<g id="edge18" class="edge">
<title>Node7&#45;&gt;Node3</title>
<path fill="none" stroke="#404040" d="M441.4543,-1243.434C404.2806,-1188.8218 353.4163,-1106.3333 325,-1027 286.1201,-918.4542 309.38,-883.2405 283,-771 272.9768,-728.3536 259.5164,-682.3061 246.7092,-641.6838"/>
<polygon fill="none" stroke="#404040" points="246.6624,-641.5364 241.0334,-637.0293 243.0288,-630.0998 248.6578,-634.6069 246.6624,-641.5364"/>
<text text-anchor="middle" x="381" y="-902" font-family="FreeSans" font-size="10.00" fill="#000000"> &#45;m_AdditionalOutputFiles</text>
<text text-anchor="middle" x="381" y="-891" font-family="FreeSans" font-size="10.00" fill="#000000">&#45;m_ExternalDeps</text>
</g>
<!-- Node7&#45;&gt;Node4 -->
<g id="edge4" class="edge">
<title>Node7&#45;&gt;Node4</title>
<path fill="none" stroke="#404040" d="M441.076,-1283.6728C390.0889,-1258.529 305.1855,-1217.2518 231,-1184 212.0943,-1175.526 199.478,-1183.2479 188,-1166 173.7939,-1144.6527 172.2399,-1091.8909 175.0557,-1038.8536"/>
<polygon fill="none" stroke="#404040" points="175.0584,-1038.8077 171.4192,-1032.5823 175.766,-1026.8286 179.4052,-1033.0541 175.0584,-1038.8077"/>
<text text-anchor="middle" x="245.5" y="-1158" font-family="FreeSans" font-size="10.00" fill="#000000"> #m_MakeCommands</text>
<text text-anchor="middle" x="245.5" y="-1147" font-family="FreeSans" font-size="10.00" fill="#000000">#m_ImportLibraryFilename</text>
<text text-anchor="middle" x="245.5" y="-1136" font-family="FreeSans" font-size="10.00" fill="#000000">#m_HostApplication</text>
<text text-anchor="middle" x="245.5" y="-1125" font-family="FreeSans" font-size="10.00" fill="#000000">#m_DefinitionFileFilename</text>
<text text-anchor="middle" x="245.5" y="-1114" font-family="FreeSans" font-size="10.00" fill="#000000">#m_CompilerId</text>
<text text-anchor="middle" x="245.5" y="-1103" font-family="FreeSans" font-size="10.00" fill="#000000">#m_ExecutionParameters</text>
<text text-anchor="middle" x="245.5" y="-1092" font-family="FreeSans" font-size="10.00" fill="#000000">#m_Filename</text>
<text text-anchor="middle" x="245.5" y="-1081" font-family="FreeSans" font-size="10.00" fill="#000000">#m_ObjectOutput</text>
<text text-anchor="middle" x="245.5" y="-1070" font-family="FreeSans" font-size="10.00" fill="#000000">#m_DepsOutput</text>
<text text-anchor="middle" x="245.5" y="-1059" font-family="FreeSans" font-size="10.00" fill="#000000">#m_WorkingDir</text>
<text text-anchor="middle" x="245.5" y="-1048" font-family="FreeSans" font-size="10.00" fill="#000000">...</text>
</g>
<!-- Node7&#45;&gt;Node8 -->
<g id="edge15" class="edge">
<title>Node7&#45;&gt;Node8</title>
<path fill="none" stroke="#404040" d="M532.9425,-1188.717C534.5712,-1187.0805 536.2564,-1185.5056 538,-1184 562.6389,-1162.7238 585.0324,-1188.0297 609,-1166 657.1191,-1121.7716 646.1842,-1091.4564 657,-1027 679.9843,-890.0261 716.5448,-527.4772 657,-402 621.0825,-326.3119 545.773,-267.7055 483.0316,-229.3805"/>
<polygon fill="none" stroke="#404040" points="482.9689,-229.3429 475.766,-229.6859 472.679,-223.1689 479.8819,-222.8259 482.9689,-229.3429"/>
<text text-anchor="middle" x="747.5" y="-745" font-family="FreeSans" font-size="10.00" fill="#000000"> &#45;m_Notes</text>
<text text-anchor="middle" x="747.5" y="-734" font-family="FreeSans" font-size="10.00" fill="#000000">&#45;m_Makefile</text>
<text text-anchor="middle" x="747.5" y="-723" font-family="FreeSans" font-size="10.00" fill="#000000">&#45;m_ActiveTarget</text>
<text text-anchor="middle" x="747.5" y="-712" font-family="FreeSans" font-size="10.00" fill="#000000">&#45;m_BasePath</text>
<text text-anchor="middle" x="747.5" y="-701" font-family="FreeSans" font-size="10.00" fill="#000000">&#45;m_DefaultExecuteTarget</text>
<text text-anchor="middle" x="747.5" y="-690" font-family="FreeSans" font-size="10.00" fill="#000000">&#45;m_LastSavedActiveTarget</text>
<text text-anchor="middle" x="747.5" y="-679" font-family="FreeSans" font-size="10.00" fill="#000000">&#45;m_MakefileExecutionDir</text>
<text text-anchor="middle" x="747.5" y="-668" font-family="FreeSans" font-size="10.00" fill="#000000">&#45;m_CommonTopLevelPath</text>
</g>
<!-- Node7&#45;&gt;Node9 -->
<g id="edge10" class="edge">
<title>Node7&#45;&gt;Node9</title>
<path fill="none" stroke="#404040" d="M532.6429,-1213.2644C539.1319,-1197.7255 545.214,-1181.5886 550,-1166 573.1476,-1090.6051 586.1293,-999.5161 592.3359,-945.5808"/>
<polygon fill="none" stroke="#404040" points="592.3695,-945.2787 589.0593,-938.8722 593.6997,-933.3526 597.01,-939.7591 592.3695,-945.2787"/>
<text text-anchor="middle" x="591" y="-1103" font-family="FreeSans" font-size="10.00" fill="#000000"> +keys</text>
</g>
<!-- Node12 -->
<g id="node10" class="node">
<title>Node12</title>
<g id="a_node10"><a xlink:href="structcbProject_1_1Glob" target="_top" xlink:title="{cbProject::Glob\n|+ m_Recursive\l|+ Glob()\l}">
<polygon fill="none" stroke="#000000" points="445.5,-870.5 445.5,-927.5 528.5,-927.5 528.5,-870.5 445.5,-870.5"/>
<text text-anchor="middle" x="487" y="-915.5" font-family="FreeSans" font-size="10.00" fill="#000000">cbProject::Glob</text>
<polyline fill="none" stroke="#000000" points="445.5,-908.5 528.5,-908.5 "/>
<text text-anchor="start" x="453.5" y="-896.5" font-family="FreeSans" font-size="10.00" fill="#000000">+ m_Recursive</text>
<polyline fill="none" stroke="#000000" points="445.5,-889.5 528.5,-889.5 "/>
<text text-anchor="start" x="453.5" y="-877.5" font-family="FreeSans" font-size="10.00" fill="#000000">+ Glob()</text>
</a>
</g>
</g>
<!-- Node7&#45;&gt;Node12 -->
<g id="edge14" class="edge">
<title>Node7&#45;&gt;Node12</title>
<path fill="none" stroke="#404040" d="M487,-1184.2366C487,-1101.1534 487,-996.4274 487,-939.8258"/>
<polygon fill="none" stroke="#404040" points="487.0001,-939.5078 483,-933.5078 487,-927.5078 491,-933.5078 487.0001,-939.5078"/>
<text text-anchor="middle" x="516.5" y="-1108.5" font-family="FreeSans" font-size="10.00" fill="#000000"> +m_Path</text>
<text text-anchor="middle" x="516.5" y="-1097.5" font-family="FreeSans" font-size="10.00" fill="#000000">+m_WildCard</text>
</g>
<!-- Node8&#45;&gt;Node3 -->
<g id="edge5" class="edge">
<title>Node8&#45;&gt;Node3</title>
<path fill="none" stroke="#404040" d="M291.476,-229.8342C242.3895,-263.7172 186.3098,-312.7394 159,-373 154.0974,-383.8178 152.2008,-395.2813 152.4378,-406.8673"/>
<polygon fill="none" stroke="#404040" points="152.4488,-407.003 156.9216,-412.6594 153.4207,-418.9636 148.9478,-413.3073 152.4488,-407.003"/>
<text text-anchor="middle" x="184" y="-376" font-family="FreeSans" font-size="10.00" fill="#000000"> &#45;m_Project</text>
</g>
<!-- Node9&#45;&gt;Node8 -->
<g id="edge8" class="edge">
<title>Node9&#45;&gt;Node8</title>
<path fill="none" stroke="#404040" d="M583.2034,-864.7505C572.1516,-838.4823 555.6258,-801.6518 538,-771 504.4401,-712.6384 475.8703,-709.5605 451,-647 405.536,-532.637 428.918,-494.7572 411,-373 410.6952,-370.9287 410.3884,-368.8451 410.08,-366.7509"/>
<polygon fill="none" stroke="#404040" points="410.0469,-366.5257 405.2147,-361.1731 408.297,-354.6539 413.1292,-360.0065 410.0469,-366.5257"/>
<text text-anchor="middle" x="490.5" y="-522" font-family="FreeSans" font-size="10.00" fill="#000000"> &#45;m_VirtualTargets</text>
</g>
<!-- Node10 -->
<g id="node8" class="node">
<title>Node10</title>
<g id="a_node8"><a doxygen="/media/alpha/Barracuda/cb_docs/src/wxTagFile.xml:http://docs.wxwidgets.org/3.0/" xlink:href="http://docs.wxwidgets.org/3.0/classwx_date_time.html" target="_top" xlink:title="{wxDateTime\n||+ wxDateTime()\l+ wxDateTime()\l+ wxDateTime()\l+ wxDateTime()\l+ wxDateTime()\l+ wxDateTime()\l+ wxDateTime()\l+ wxDateTime()\land 107 more...\l+ ConvertYearToBC()\l+ GetAmPmStrings()\l+ GetBeginDST()\l+ GetEndDST()\l+ GetCentury()\l+ GetCountry()\l+ GetCurrentMonth()\l+ GetCurrentYear()\land 17 more...\l}">
<polygon fill="none" stroke="#000000" points="538.5,-402.5 538.5,-646.5 647.5,-646.5 647.5,-402.5 538.5,-402.5"/>
<text text-anchor="middle" x="593" y="-634.5" font-family="FreeSans" font-size="10.00" fill="#000000">wxDateTime</text>
<polyline fill="none" stroke="#000000" points="538.5,-627.5 647.5,-627.5 "/>
<text text-anchor="middle" x="593" y="-615.5" font-family="FreeSans" font-size="10.00" fill="#000000"> </text>
<polyline fill="none" stroke="#000000" points="538.5,-608.5 647.5,-608.5 "/>
<text text-anchor="start" x="546.5" y="-596.5" font-family="FreeSans" font-size="10.00" fill="#000000">+ wxDateTime()</text>
<text text-anchor="start" x="546.5" y="-585.5" font-family="FreeSans" font-size="10.00" fill="#000000">+ wxDateTime()</text>
<text text-anchor="start" x="546.5" y="-574.5" font-family="FreeSans" font-size="10.00" fill="#000000">+ wxDateTime()</text>
<text text-anchor="start" x="546.5" y="-563.5" font-family="FreeSans" font-size="10.00" fill="#000000">+ wxDateTime()</text>
<text text-anchor="start" x="546.5" y="-552.5" font-family="FreeSans" font-size="10.00" fill="#000000">+ wxDateTime()</text>
<text text-anchor="start" x="546.5" y="-541.5" font-family="FreeSans" font-size="10.00" fill="#000000">+ wxDateTime()</text>
<text text-anchor="start" x="546.5" y="-530.5" font-family="FreeSans" font-size="10.00" fill="#000000">+ wxDateTime()</text>
<text text-anchor="start" x="546.5" y="-519.5" font-family="FreeSans" font-size="10.00" fill="#000000">+ wxDateTime()</text>
<text text-anchor="start" x="546.5" y="-508.5" font-family="FreeSans" font-size="10.00" fill="#000000">and 107 more...</text>
<text text-anchor="start" x="546.5" y="-497.5" font-family="FreeSans" font-size="10.00" fill="#000000">+ ConvertYearToBC()</text>
<text text-anchor="start" x="546.5" y="-486.5" font-family="FreeSans" font-size="10.00" fill="#000000">+ GetAmPmStrings()</text>
<text text-anchor="start" x="546.5" y="-475.5" font-family="FreeSans" font-size="10.00" fill="#000000">+ GetBeginDST()</text>
<text text-anchor="start" x="546.5" y="-464.5" font-family="FreeSans" font-size="10.00" fill="#000000">+ GetEndDST()</text>
<text text-anchor="start" x="546.5" y="-453.5" font-family="FreeSans" font-size="10.00" fill="#000000">+ GetCentury()</text>
<text text-anchor="start" x="546.5" y="-442.5" font-family="FreeSans" font-size="10.00" fill="#000000">+ GetCountry()</text>
<text text-anchor="start" x="546.5" y="-431.5" font-family="FreeSans" font-size="10.00" fill="#000000">+ GetCurrentMonth()</text>
<text text-anchor="start" x="546.5" y="-420.5" font-family="FreeSans" font-size="10.00" fill="#000000">+ GetCurrentYear()</text>
<text text-anchor="start" x="546.5" y="-409.5" font-family="FreeSans" font-size="10.00" fill="#000000">and 17 more...</text>
</a>
</g>
</g>
<!-- Node10&#45;&gt;Node8 -->
<g id="edge11" class="edge">
<title>Node10&#45;&gt;Node8</title>
<path fill="none" stroke="#404040" d="M538.4578,-426.6191C533.6216,-418.2609 528.7567,-409.9629 524,-402 509.7726,-378.1831 494.3907,-353.1629 479.1825,-328.8202"/>
<polygon fill="none" stroke="#404040" points="479.0479,-328.6051 472.4734,-325.6427 472.6792,-318.4345 479.2538,-321.3969 479.0479,-328.6051"/>
<text text-anchor="middle" x="548.5" y="-376" font-family="FreeSans" font-size="10.00" fill="#000000"> &#45;m_LastModified</text>
</g>
<!-- Node11 -->
<g id="node9" class="node">
<title>Node11</title>
<polygon fill="none" stroke="#bfbfbf" points="295,-490.5 295,-558.5 405,-558.5 405,-490.5 295,-490.5"/>
<text text-anchor="start" x="303" y="-546.5" font-family="FreeSans" font-size="10.00" fill="#000000">std::vector&lt; cbProject</text>
<text text-anchor="middle" x="350" y="-535.5" font-family="FreeSans" font-size="10.00" fill="#000000">::Glob &gt;</text>
<polyline fill="none" stroke="#bfbfbf" points="295,-528.5 405,-528.5 "/>
<text text-anchor="middle" x="350" y="-516.5" font-family="FreeSans" font-size="10.00" fill="#000000"> </text>
<polyline fill="none" stroke="#bfbfbf" points="295,-509.5 405,-509.5 "/>
<text text-anchor="middle" x="350" y="-497.5" font-family="FreeSans" font-size="10.00" fill="#000000"> </text>
</g>
<!-- Node11&#45;&gt;Node8 -->
<g id="edge12" class="edge">
<title>Node11&#45;&gt;Node8</title>
<path fill="none" stroke="#404040" d="M353.1559,-490.2786C355.9104,-460.4089 360.1433,-414.5091 364.5249,-366.9956"/>
<polygon fill="none" stroke="#404040" points="364.5392,-366.8392 361.1072,-360.4972 365.6413,-354.8899 369.0734,-361.2319 364.5392,-366.8392"/>
<text text-anchor="middle" x="385" y="-376" font-family="FreeSans" font-size="10.00" fill="#000000"> &#45;m_Globs</text>
</g>
<!-- Node12&#45;&gt;Node11 -->
<g id="edge13" class="edge">
<title>Node12&#45;&gt;Node11</title>
<path fill="none" stroke="#404040" d="M481.5039,-870.4178C474.5305,-841.5668 459.7741,-797.5818 431,-771 413.0358,-754.4045 394.4141,-771.9876 379,-753 337.2944,-701.6259 337.3883,-621.1948 342.6695,-570.7365"/>
<polygon fill="none" stroke="#404040" points="342.6965,-570.5073 339.4266,-564.0801 344.1017,-558.5898 347.3716,-565.0169 342.6965,-570.5073"/>
<text text-anchor="middle" x="403" y="-706.5" font-family="FreeSans" font-size="10.00" fill="#000000"> +elements</text>
</g>
<!-- Node13 -->
<g id="node11" class="node">
<title>Node13</title>
<g id="a_node11"><a doxygen="/media/alpha/Barracuda/cb_docs/src/wxTagFile.xml:http://docs.wxwidgets.org/3.0/" xlink:href="http://docs.wxwidgets.org/3.0/classwx_tree_item_id.html" target="_top" xlink:title="{wxTreeItemId\n||+ wxTreeItemId()\l+ IsOk()\l+ GetID()\l+ Unset()\l}">
<polygon fill="none" stroke="#000000" points="704.5,-479.5 704.5,-569.5 793.5,-569.5 793.5,-479.5 704.5,-479.5"/>
<text text-anchor="middle" x="749" y="-557.5" font-family="FreeSans" font-size="10.00" fill="#000000">wxTreeItemId</text>
<polyline fill="none" stroke="#000000" points="704.5,-550.5 793.5,-550.5 "/>
<text text-anchor="middle" x="749" y="-538.5" font-family="FreeSans" font-size="10.00" fill="#000000"> </text>
<polyline fill="none" stroke="#000000" points="704.5,-531.5 793.5,-531.5 "/>
<text text-anchor="start" x="712.5" y="-519.5" font-family="FreeSans" font-size="10.00" fill="#000000">+ wxTreeItemId()</text>
<text text-anchor="start" x="712.5" y="-508.5" font-family="FreeSans" font-size="10.00" fill="#000000">+ IsOk()</text>
<text text-anchor="start" x="712.5" y="-497.5" font-family="FreeSans" font-size="10.00" fill="#000000">+ GetID()</text>
<text text-anchor="start" x="712.5" y="-486.5" font-family="FreeSans" font-size="10.00" fill="#000000">+ Unset()</text>
</a>
</g>
</g>
<!-- Node13&#45;&gt;Node8 -->
<g id="edge17" class="edge">
<title>Node13&#45;&gt;Node8</title>
<path fill="none" stroke="#404040" d="M739.3757,-479.2019C730.7204,-446.8791 715.3708,-403.8469 690,-373 634.7406,-305.8133 550.114,-254.4439 483.5411,-221.2599"/>
<polygon fill="none" stroke="#404040" points="483.3704,-221.1761 476.2216,-222.1223 472.5987,-215.8873 479.7475,-214.9412 483.3704,-221.1761"/>
<text text-anchor="middle" x="733.5" y="-376" font-family="FreeSans" font-size="10.00" fill="#000000"> &#45;m_ProjectNode</text>
</g>
</g>
</svg>
