<?xml version="1.0" encoding="UTF-8" standalone="no"?>
<!DOCTYPE svg PUBLIC "-//W3C//DTD SVG 1.1//EN"
 "http://www.w3.org/Graphics/SVG/1.1/DTD/svg11.dtd">
<!-- Generated by graphviz version 2.38.0 (20140413.2041)
 -->
<!-- Title: TokenTree Pages: 1 -->
<svg width="1134pt" height="1904pt"
 viewBox="0.00 0.00 1133.50 1904.00" xmlns="http://www.w3.org/2000/svg" xmlns:xlink="http://www.w3.org/1999/xlink">
<g id="graph0" class="graph" transform="scale(1 1) rotate(0) translate(4 1900)">
<title>TokenTree</title>
<polygon fill="white" stroke="none" points="-4,4 -4,-1900 1129.5,-1900 1129.5,4 -4,4"/>
<!-- Node1 -->
<g id="node1" class="node"><title>Node1</title>
<polygon fill="#bfbfbf" stroke="black" points="458,-441.5 458,-707.5 588,-707.5 588,-441.5 458,-441.5"/>
<text text-anchor="middle" x="523" y="-695.5" font-family="FreeSans" font-size="10.00">TokenTree</text>
<polyline fill="none" stroke="black" points="458,-688.5 588,-688.5 "/>
<text text-anchor="start" x="466" y="-676.5" font-family="FreeSans" font-size="10.00">+ m_TokenTicketCount</text>
<polyline fill="none" stroke="black" points="458,-669.5 588,-669.5 "/>
<text text-anchor="start" x="466" y="-657.5" font-family="FreeSans" font-size="10.00">+ TokenTree()</text>
<text text-anchor="start" x="466" y="-646.5" font-family="FreeSans" font-size="10.00">+ ~TokenTree()</text>
<text text-anchor="start" x="466" y="-635.5" font-family="FreeSans" font-size="10.00">+ clear()</text>
<text text-anchor="start" x="466" y="-624.5" font-family="FreeSans" font-size="10.00">+ operator[]()</text>
<text text-anchor="start" x="466" y="-613.5" font-family="FreeSans" font-size="10.00">+ at()</text>
<text text-anchor="start" x="466" y="-602.5" font-family="FreeSans" font-size="10.00">+ at()</text>
<text text-anchor="start" x="466" y="-591.5" font-family="FreeSans" font-size="10.00">+ size()</text>
<text text-anchor="start" x="466" y="-580.5" font-family="FreeSans" font-size="10.00">+ realsize()</text>
<text text-anchor="start" x="466" y="-569.5" font-family="FreeSans" font-size="10.00">+ empty()</text>
<text text-anchor="start" x="466" y="-558.5" font-family="FreeSans" font-size="10.00">+ insert()</text>
<text text-anchor="start" x="466" y="-547.5" font-family="FreeSans" font-size="10.00">and 38 more...</text>
<text text-anchor="start" x="466" y="-536.5" font-family="FreeSans" font-size="10.00"># GetTokenAt()</text>
<text text-anchor="start" x="466" y="-525.5" font-family="FreeSans" font-size="10.00"># GetTokenAt()</text>
<text text-anchor="start" x="466" y="-514.5" font-family="FreeSans" font-size="10.00"># AddToken()</text>
<text text-anchor="start" x="466" y="-503.5" font-family="FreeSans" font-size="10.00"># RemoveToken()</text>
<text text-anchor="start" x="466" y="-492.5" font-family="FreeSans" font-size="10.00"># RemoveToken()</text>
<text text-anchor="start" x="466" y="-481.5" font-family="FreeSans" font-size="10.00"># AddTokenToList()</text>
<text text-anchor="start" x="466" y="-470.5" font-family="FreeSans" font-size="10.00"># RemoveTokenFromList()</text>
<text text-anchor="start" x="466" y="-459.5" font-family="FreeSans" font-size="10.00"># RecalcFullInheritance()</text>
<text text-anchor="start" x="466" y="-448.5" font-family="FreeSans" font-size="10.00"># CheckChildRemove()</text>
</g>
<!-- Node3 -->
<g id="node3" class="node"><title>Node3</title>
<g id="a_node3"><a xlink:href="classToken.xhtml" target="_top" xlink:title="{Token\n|+ m_FullType\l+ m_BaseType\l+ m_Name\l+ m_Args\l+ m_BaseArgs\l+ m_AncestorsString\l+ m_FileIdx\l+ m_Line\l+ m_ImplFileIdx\l+ m_ImplLine\land 21 more...\l# m_Ticket\l|+ Token()\l+ ~Token()\l+ AddChild()\l+ DeleteAllChildren()\l+ HasChildren()\l+ GetNamespace()\l+ InheritsFrom()\l+ DisplayName()\l+ GetTokenKindString()\l+ GetTokenScopeString()\land 13 more...\l}">
<polygon fill="white" stroke="black" points="302.5,-105.5 302.5,-393.5 429.5,-393.5 429.5,-105.5 302.5,-105.5"/>
<text text-anchor="middle" x="366" y="-381.5" font-family="FreeSans" font-size="10.00">Token</text>
<polyline fill="none" stroke="black" points="302.5,-374.5 429.5,-374.5 "/>
<text text-anchor="start" x="310.5" y="-362.5" font-family="FreeSans" font-size="10.00">+ m_FullType</text>
<text text-anchor="start" x="310.5" y="-351.5" font-family="FreeSans" font-size="10.00">+ m_BaseType</text>
<text text-anchor="start" x="310.5" y="-340.5" font-family="FreeSans" font-size="10.00">+ m_Name</text>
<text text-anchor="start" x="310.5" y="-329.5" font-family="FreeSans" font-size="10.00">+ m_Args</text>
<text text-anchor="start" x="310.5" y="-318.5" font-family="FreeSans" font-size="10.00">+ m_BaseArgs</text>
<text text-anchor="start" x="310.5" y="-307.5" font-family="FreeSans" font-size="10.00">+ m_AncestorsString</text>
<text text-anchor="start" x="310.5" y="-296.5" font-family="FreeSans" font-size="10.00">+ m_FileIdx</text>
<text text-anchor="start" x="310.5" y="-285.5" font-family="FreeSans" font-size="10.00">+ m_Line</text>
<text text-anchor="start" x="310.5" y="-274.5" font-family="FreeSans" font-size="10.00">+ m_ImplFileIdx</text>
<text text-anchor="start" x="310.5" y="-263.5" font-family="FreeSans" font-size="10.00">+ m_ImplLine</text>
<text text-anchor="start" x="310.5" y="-252.5" font-family="FreeSans" font-size="10.00">and 21 more...</text>
<text text-anchor="start" x="310.5" y="-241.5" font-family="FreeSans" font-size="10.00"># m_Ticket</text>
<polyline fill="none" stroke="black" points="302.5,-234.5 429.5,-234.5 "/>
<text text-anchor="start" x="310.5" y="-222.5" font-family="FreeSans" font-size="10.00">+ Token()</text>
<text text-anchor="start" x="310.5" y="-211.5" font-family="FreeSans" font-size="10.00">+ ~Token()</text>
<text text-anchor="start" x="310.5" y="-200.5" font-family="FreeSans" font-size="10.00">+ AddChild()</text>
<text text-anchor="start" x="310.5" y="-189.5" font-family="FreeSans" font-size="10.00">+ DeleteAllChildren()</text>
<text text-anchor="start" x="310.5" y="-178.5" font-family="FreeSans" font-size="10.00">+ HasChildren()</text>
<text text-anchor="start" x="310.5" y="-167.5" font-family="FreeSans" font-size="10.00">+ GetNamespace()</text>
<text text-anchor="start" x="310.5" y="-156.5" font-family="FreeSans" font-size="10.00">+ InheritsFrom()</text>
<text text-anchor="start" x="310.5" y="-145.5" font-family="FreeSans" font-size="10.00">+ DisplayName()</text>
<text text-anchor="start" x="310.5" y="-134.5" font-family="FreeSans" font-size="10.00">+ GetTokenKindString()</text>
<text text-anchor="start" x="310.5" y="-123.5" font-family="FreeSans" font-size="10.00">+ GetTokenScopeString()</text>
<text text-anchor="start" x="310.5" y="-112.5" font-family="FreeSans" font-size="10.00">and 13 more...</text>
</a>
</g>
</g>
<!-- Node1&#45;&gt;Node3 -->
<g id="edge5" class="edge"><title>Node1&#45;&gt;Node3</title>
<path fill="none" stroke="#404040" d="M457.969,-456.538C452.099,-445.271 446.356,-433.961 441,-423 438.088,-417.04 435.166,-410.94 432.253,-404.76"/>
<polygon fill="none" stroke="#404040" points="432.102,-404.434 425.939,-400.689 427.026,-393.561 433.189,-397.306 432.102,-404.434"/>
<text text-anchor="middle" x="475" y="-415" font-family="FreeSans" font-size="10.00"> #m_TokenTree</text>
</g>
<!-- Node2 -->
<g id="node2" class="node"><title>Node2</title>
<polygon fill="white" stroke="#bfbfbf" points="405,-0.5 405,-57.5 515,-57.5 515,-0.5 405,-0.5"/>
<text text-anchor="middle" x="460" y="-45.5" font-family="FreeSans" font-size="10.00">std::vector&lt; Token * &gt;</text>
<polyline fill="none" stroke="#bfbfbf" points="405,-38.5 515,-38.5 "/>
<text text-anchor="middle" x="460" y="-26.5" font-family="FreeSans" font-size="10.00"> </text>
<polyline fill="none" stroke="#bfbfbf" points="405,-19.5 515,-19.5 "/>
<text text-anchor="middle" x="460" y="-7.5" font-family="FreeSans" font-size="10.00"> </text>
</g>
<!-- Node2&#45;&gt;Node1 -->
<g id="edge1" class="edge"><title>Node2&#45;&gt;Node1</title>
<path fill="none" stroke="#404040" d="M482.746,-57.6283C486.451,-63.3967 489.793,-69.6606 492,-76 531.713,-190.073 537.337,-327.645 534.238,-429.182"/>
<polygon fill="none" stroke="#404040" points="534.231,-429.389 538.022,-435.523 533.819,-441.382 530.027,-435.248 534.231,-429.389"/>
<text text-anchor="middle" x="561.5" y="-247" font-family="FreeSans" font-size="10.00"> #m_Tokens</text>
</g>
<!-- Node3&#45;&gt;Node2 -->
<g id="edge2" class="edge"><title>Node3&#45;&gt;Node2</title>
<path fill="none" stroke="#404040" d="M427.651,-105.195C433.343,-91.9631 438.717,-79.4715 443.39,-68.6104"/>
<polygon fill="none" stroke="#404040" points="443.424,-68.5304 442.121,-61.438 448.166,-57.5072 449.469,-64.5996 443.424,-68.5304"/>
<text text-anchor="middle" x="464" y="-79" font-family="FreeSans" font-size="10.00"> +elements</text>
</g>
<!-- Node4 -->
<g id="node4" class="node"><title>Node4</title>
<polygon fill="white" stroke="#bfbfbf" points="284.5,-535 284.5,-614 385.5,-614 385.5,-535 284.5,-535"/>
<text text-anchor="start" x="292.5" y="-602" font-family="FreeSans" font-size="10.00">std::map&lt; wxString,</text>
<text text-anchor="middle" x="335" y="-591" font-family="FreeSans" font-size="10.00"> wxString &gt;</text>
<polyline fill="none" stroke="#bfbfbf" points="284.5,-584 385.5,-584 "/>
<text text-anchor="start" x="292.5" y="-572" font-family="FreeSans" font-size="10.00">+ keys</text>
<text text-anchor="start" x="292.5" y="-561" font-family="FreeSans" font-size="10.00">+ elements</text>
<polyline fill="none" stroke="#bfbfbf" points="284.5,-554 385.5,-554 "/>
<text text-anchor="middle" x="335" y="-542" font-family="FreeSans" font-size="10.00"> </text>
</g>
<!-- Node4&#45;&gt;Node3 -->
<g id="edge3" class="edge"><title>Node4&#45;&gt;Node3</title>
<path fill="none" stroke="#404040" d="M333.322,-534.898C332.355,-502.119 332.013,-453.869 336,-412 336.195,-409.951 336.403,-407.888 336.623,-405.816"/>
<polygon fill="none" stroke="#404040" points="336.629,-405.767 333.345,-399.347 338.008,-393.847 341.292,-400.267 336.629,-405.767"/>
<text text-anchor="middle" x="377" y="-415" font-family="FreeSans" font-size="10.00"> +m_TemplateMap</text>
</g>
<!-- Node5 -->
<g id="node5" class="node"><title>Node5</title>
<polygon fill="white" stroke="#bfbfbf" points="478.5,-1375.5 478.5,-1443.5 561.5,-1443.5 561.5,-1375.5 478.5,-1375.5"/>
<text text-anchor="start" x="486.5" y="-1431.5" font-family="FreeSans" font-size="10.00">std::set&lt; int, std</text>
<text text-anchor="middle" x="520" y="-1420.5" font-family="FreeSans" font-size="10.00">::less&lt; int &gt; &gt;</text>
<polyline fill="none" stroke="#bfbfbf" points="478.5,-1413.5 561.5,-1413.5 "/>
<text text-anchor="start" x="486.5" y="-1401.5" font-family="FreeSans" font-size="10.00">+ keys</text>
<polyline fill="none" stroke="#bfbfbf" points="478.5,-1394.5 561.5,-1394.5 "/>
<text text-anchor="middle" x="520" y="-1382.5" font-family="FreeSans" font-size="10.00"> </text>
</g>
<!-- Node5&#45;&gt;Node1 -->
<g id="edge18" class="edge"><title>Node5&#45;&gt;Node1</title>
<path fill="none" stroke="#404040" d="M511.949,-1375.36C489.734,-1277.91 433.355,-984.753 498,-755 500.539,-745.975 506.073,-745.907 509,-737 510.826,-731.444 512.448,-725.725 513.886,-719.908"/>
<polygon fill="none" stroke="#404040" points="513.965,-719.557 511.374,-712.827 516.589,-707.847 519.18,-714.577 513.965,-719.557"/>
<text text-anchor="middle" x="521.5" y="-1000.5" font-family="FreeSans" font-size="10.00"> #m_TopNameSpaces</text>
<text text-anchor="middle" x="521.5" y="-989.5" font-family="FreeSans" font-size="10.00">#m_GlobalNameSpaces</text>
</g>
<!-- Node5&#45;&gt;Node3 -->
<g id="edge4" class="edge"><title>Node5&#45;&gt;Node3</title>
<path fill="none" stroke="#404040" d="M478.325,-1400.38C354.931,-1375.14 0,-1293.55 0,-1190 0,-1190 0,-1190 0,-573.5 0,-419.776 183.751,-321.733 290.858,-277.643"/>
<polygon fill="none" stroke="#404040" points="291.122,-277.536 295.186,-271.579 302.248,-273.038 298.184,-278.995 291.122,-277.536"/>
<text text-anchor="middle" x="44" y="-864" font-family="FreeSans" font-size="10.00"> +m_Descendants</text>
<text text-anchor="middle" x="44" y="-853" font-family="FreeSans" font-size="10.00">+m_DirectAncestors</text>
<text text-anchor="middle" x="44" y="-842" font-family="FreeSans" font-size="10.00">+m_Ancestors</text>
<text text-anchor="middle" x="44" y="-831" font-family="FreeSans" font-size="10.00">+m_Children</text>
</g>
<!-- Node15 -->
<g id="node15" class="node"><title>Node15</title>
<polygon fill="white" stroke="#bfbfbf" points="543.5,-1160.5 543.5,-1217.5 674.5,-1217.5 674.5,-1160.5 543.5,-1160.5"/>
<text text-anchor="middle" x="609" y="-1205.5" font-family="FreeSans" font-size="10.00">std::vector&lt; TokenIdxSet &gt;</text>
<polyline fill="none" stroke="#bfbfbf" points="543.5,-1198.5 674.5,-1198.5 "/>
<text text-anchor="middle" x="609" y="-1186.5" font-family="FreeSans" font-size="10.00"> </text>
<polyline fill="none" stroke="#bfbfbf" points="543.5,-1179.5 674.5,-1179.5 "/>
<text text-anchor="middle" x="609" y="-1167.5" font-family="FreeSans" font-size="10.00"> </text>
</g>
<!-- Node5&#45;&gt;Node15 -->
<g id="edge16" class="edge"><title>Node5&#45;&gt;Node15</title>
<path fill="none" stroke="#404040" d="M533.517,-1375.31C549.529,-1336 576.165,-1270.61 593.138,-1228.94"/>
<polygon fill="none" stroke="#404040" points="593.23,-1228.72 591.789,-1221.65 597.757,-1217.6 599.198,-1224.67 593.23,-1228.72"/>
<text text-anchor="middle" x="568" y="-1349" font-family="FreeSans" font-size="10.00"> +elements</text>
</g>
<!-- Node19 -->
<g id="node19" class="node"><title>Node19</title>
<polygon fill="white" stroke="#bfbfbf" points="761.5,-963.5 761.5,-1031.5 892.5,-1031.5 892.5,-963.5 761.5,-963.5"/>
<text text-anchor="start" x="769.5" y="-1019.5" font-family="FreeSans" font-size="10.00">std::map&lt; size_t, TokenIdx</text>
<text text-anchor="middle" x="827" y="-1008.5" font-family="FreeSans" font-size="10.00">Set, std::less&lt; size_t &gt; &gt;</text>
<polyline fill="none" stroke="#bfbfbf" points="761.5,-1001.5 892.5,-1001.5 "/>
<text text-anchor="start" x="769.5" y="-989.5" font-family="FreeSans" font-size="10.00">+ keys</text>
<polyline fill="none" stroke="#bfbfbf" points="761.5,-982.5 892.5,-982.5 "/>
<text text-anchor="middle" x="827" y="-970.5" font-family="FreeSans" font-size="10.00"> </text>
</g>
<!-- Node5&#45;&gt;Node19 -->
<g id="edge22" class="edge"><title>Node5&#45;&gt;Node19</title>
<path fill="none" stroke="#404040" d="M561.736,-1396.86C597.95,-1384.86 649.661,-1362.93 683,-1328 761.88,-1245.35 801.573,-1112.47 817.794,-1043.42"/>
<polygon fill="none" stroke="#404040" points="817.799,-1043.4 815.232,-1036.66 820.466,-1031.7 823.033,-1038.44 817.799,-1043.4"/>
<text text-anchor="middle" x="687" y="-1349" font-family="FreeSans" font-size="10.00"> +elements</text>
</g>
<!-- Node6 -->
<g id="node6" class="node"><title>Node6</title>
<g id="a_node6"><a xlink:href="classSearchTree.xhtml" target="_top" xlink:title="{SearchTree\&lt; TokenIdxSet \&gt;\n||+ SearchTree()\l+ ~SearchTree()\l+ clear()\l+ GetCount()\l+ size()\l+ SaveCacheTo()\l+ LoadCacheFrom()\l+ Serialize()\l+ GetItem()\l+ GetItem()\land 6 more...\l# ClearItems()\l# AddFirstNullItem()\l}">
<polygon fill="white" stroke="black" points="665,-755.5 665,-944.5 803,-944.5 803,-755.5 665,-755.5"/>
<text text-anchor="middle" x="734" y="-932.5" font-family="FreeSans" font-size="10.00">SearchTree&lt; TokenIdxSet &gt;</text>
<polyline fill="none" stroke="black" points="665,-925.5 803,-925.5 "/>
<text text-anchor="middle" x="734" y="-913.5" font-family="FreeSans" font-size="10.00"> </text>
<polyline fill="none" stroke="black" points="665,-906.5 803,-906.5 "/>
<text text-anchor="start" x="673" y="-894.5" font-family="FreeSans" font-size="10.00">+ SearchTree()</text>
<text text-anchor="start" x="673" y="-883.5" font-family="FreeSans" font-size="10.00">+ ~SearchTree()</text>
<text text-anchor="start" x="673" y="-872.5" font-family="FreeSans" font-size="10.00">+ clear()</text>
<text text-anchor="start" x="673" y="-861.5" font-family="FreeSans" font-size="10.00">+ GetCount()</text>
<text text-anchor="start" x="673" y="-850.5" font-family="FreeSans" font-size="10.00">+ size()</text>
<text text-anchor="start" x="673" y="-839.5" font-family="FreeSans" font-size="10.00">+ SaveCacheTo()</text>
<text text-anchor="start" x="673" y="-828.5" font-family="FreeSans" font-size="10.00">+ LoadCacheFrom()</text>
<text text-anchor="start" x="673" y="-817.5" font-family="FreeSans" font-size="10.00">+ Serialize()</text>
<text text-anchor="start" x="673" y="-806.5" font-family="FreeSans" font-size="10.00">+ GetItem()</text>
<text text-anchor="start" x="673" y="-795.5" font-family="FreeSans" font-size="10.00">+ GetItem()</text>
<text text-anchor="start" x="673" y="-784.5" font-family="FreeSans" font-size="10.00">and 6 more...</text>
<text text-anchor="start" x="673" y="-773.5" font-family="FreeSans" font-size="10.00"># ClearItems()</text>
<text text-anchor="start" x="673" y="-762.5" font-family="FreeSans" font-size="10.00"># AddFirstNullItem()</text>
</a>
</g>
</g>
<!-- Node6&#45;&gt;Node1 -->
<g id="edge6" class="edge"><title>Node6&#45;&gt;Node1</title>
<path fill="none" stroke="#404040" d="M665.288,-755.385C657.816,-745.427 650.282,-735.479 643,-726 627.954,-706.414 611.595,-685.594 595.933,-665.884"/>
<polygon fill="none" stroke="#404040" points="595.784,-665.696 588.917,-663.493 588.31,-656.307 595.176,-658.51 595.784,-665.696"/>
<text text-anchor="middle" x="671.5" y="-729" font-family="FreeSans" font-size="10.00"> #m_Tree</text>
</g>
<!-- Node7 -->
<g id="node7" class="node"><title>Node7</title>
<g id="a_node7"><a xlink:href="classBasicSearchTree.xhtml" target="_top" xlink:title="{BasicSearchTree\n||+ BasicSearchTree()\l+ ~BasicSearchTree()\l+ size()\l+ GetCount()\l+ clear()\l+ insert()\l+ HasItem()\l+ count()\l+ GetItemNo()\l+ GetString()\l+ FindMatches()\l+ SerializeLabels()\l+ dump()\l# CreateNode()\l# GetString()\l# GetNode()\l# FindNode()\l# AddNode()\l# SerializeLabel()\l&#45; CreateRootNode()\l&#45; SplitBranch()\l}">
<polygon fill="white" stroke="black" points="865,-1050.5 865,-1327.5 975,-1327.5 975,-1050.5 865,-1050.5"/>
<text text-anchor="middle" x="920" y="-1315.5" font-family="FreeSans" font-size="10.00">BasicSearchTree</text>
<polyline fill="none" stroke="black" points="865,-1308.5 975,-1308.5 "/>
<text text-anchor="middle" x="920" y="-1296.5" font-family="FreeSans" font-size="10.00"> </text>
<polyline fill="none" stroke="black" points="865,-1289.5 975,-1289.5 "/>
<text text-anchor="start" x="873" y="-1277.5" font-family="FreeSans" font-size="10.00">+ BasicSearchTree()</text>
<text text-anchor="start" x="873" y="-1266.5" font-family="FreeSans" font-size="10.00">+ ~BasicSearchTree()</text>
<text text-anchor="start" x="873" y="-1255.5" font-family="FreeSans" font-size="10.00">+ size()</text>
<text text-anchor="start" x="873" y="-1244.5" font-family="FreeSans" font-size="10.00">+ GetCount()</text>
<text text-anchor="start" x="873" y="-1233.5" font-family="FreeSans" font-size="10.00">+ clear()</text>
<text text-anchor="start" x="873" y="-1222.5" font-family="FreeSans" font-size="10.00">+ insert()</text>
<text text-anchor="start" x="873" y="-1211.5" font-family="FreeSans" font-size="10.00">+ HasItem()</text>
<text text-anchor="start" x="873" y="-1200.5" font-family="FreeSans" font-size="10.00">+ count()</text>
<text text-anchor="start" x="873" y="-1189.5" font-family="FreeSans" font-size="10.00">+ GetItemNo()</text>
<text text-anchor="start" x="873" y="-1178.5" font-family="FreeSans" font-size="10.00">+ GetString()</text>
<text text-anchor="start" x="873" y="-1167.5" font-family="FreeSans" font-size="10.00">+ FindMatches()</text>
<text text-anchor="start" x="873" y="-1156.5" font-family="FreeSans" font-size="10.00">+ SerializeLabels()</text>
<text text-anchor="start" x="873" y="-1145.5" font-family="FreeSans" font-size="10.00">+ dump()</text>
<text text-anchor="start" x="873" y="-1134.5" font-family="FreeSans" font-size="10.00"># CreateNode()</text>
<text text-anchor="start" x="873" y="-1123.5" font-family="FreeSans" font-size="10.00"># GetString()</text>
<text text-anchor="start" x="873" y="-1112.5" font-family="FreeSans" font-size="10.00"># GetNode()</text>
<text text-anchor="start" x="873" y="-1101.5" font-family="FreeSans" font-size="10.00"># FindNode()</text>
<text text-anchor="start" x="873" y="-1090.5" font-family="FreeSans" font-size="10.00"># AddNode()</text>
<text text-anchor="start" x="873" y="-1079.5" font-family="FreeSans" font-size="10.00"># SerializeLabel()</text>
<text text-anchor="start" x="873" y="-1068.5" font-family="FreeSans" font-size="10.00">&#45; CreateRootNode()</text>
<text text-anchor="start" x="873" y="-1057.5" font-family="FreeSans" font-size="10.00">&#45; SplitBranch()</text>
</a>
</g>
</g>
<!-- Node7&#45;&gt;Node1 -->
<g id="edge24" class="edge"><title>Node7&#45;&gt;Node1</title>
<path fill="none" stroke="#404040" d="M948.377,-1050.48C959.421,-959.306 958.085,-841.064 901,-755 832.951,-652.406 689.359,-606.983 600.054,-587.997"/>
<polygon fill="none" stroke="#404040" points="599.851,-587.955 593.17,-590.668 588.096,-585.543 594.778,-582.831 599.851,-587.955"/>
<text text-anchor="middle" x="993" y="-847.5" font-family="FreeSans" font-size="10.00"> #m_FilenameMap</text>
</g>
<!-- Node7&#45;&gt;Node6 -->
<g id="edge7" class="edge"><title>Node7&#45;&gt;Node6</title>
<path fill="none" stroke="midnightblue" d="M856.548,-1145.95C820.133,-1118.16 777.166,-1078.38 754,-1032 740.72,-1005.41 734.496,-973.949 731.937,-944.771"/>
<polygon fill="none" stroke="midnightblue" points="854.584,-1148.85 864.686,-1152.04 858.781,-1143.25 854.584,-1148.85"/>
</g>
<!-- Node8 -->
<g id="node8" class="node"><title>Node8</title>
<polygon fill="white" stroke="#bfbfbf" points="845.5,-1381 845.5,-1438 994.5,-1438 994.5,-1381 845.5,-1381"/>
<text text-anchor="middle" x="920" y="-1426" font-family="FreeSans" font-size="10.00">std::vector&lt; SearchTreePoint &gt;</text>
<polyline fill="none" stroke="#bfbfbf" points="845.5,-1419 994.5,-1419 "/>
<text text-anchor="middle" x="920" y="-1407" font-family="FreeSans" font-size="10.00"> </text>
<polyline fill="none" stroke="#bfbfbf" points="845.5,-1400 994.5,-1400 "/>
<text text-anchor="middle" x="920" y="-1388" font-family="FreeSans" font-size="10.00"> </text>
</g>
<!-- Node8&#45;&gt;Node7 -->
<g id="edge8" class="edge"><title>Node8&#45;&gt;Node7</title>
<path fill="none" stroke="#404040" d="M920,-1380.83C920,-1369.39 920,-1355.18 920,-1339.71"/>
<polygon fill="none" stroke="#404040" points="920,-1339.66 916,-1333.66 920,-1327.66 924,-1333.66 920,-1339.66"/>
<text text-anchor="middle" x="944.5" y="-1349" font-family="FreeSans" font-size="10.00"> #m_Points</text>
</g>
<!-- Node9 -->
<g id="node9" class="node"><title>Node9</title>
<g id="a_node9"><a xlink:href="classSearchTreePoint.xhtml" target="_top" xlink:title="{SearchTreePoint\n|+ n\l+ depth\l|+ SearchTreePoint()\l+ SearchTreePoint()\l}">
<polygon fill="white" stroke="black" points="868,-1590.5 868,-1669.5 972,-1669.5 972,-1590.5 868,-1590.5"/>
<text text-anchor="middle" x="920" y="-1657.5" font-family="FreeSans" font-size="10.00">SearchTreePoint</text>
<polyline fill="none" stroke="black" points="868,-1650.5 972,-1650.5 "/>
<text text-anchor="start" x="876" y="-1638.5" font-family="FreeSans" font-size="10.00">+ n</text>
<text text-anchor="start" x="876" y="-1627.5" font-family="FreeSans" font-size="10.00">+ depth</text>
<polyline fill="none" stroke="black" points="868,-1620.5 972,-1620.5 "/>
<text text-anchor="start" x="876" y="-1608.5" font-family="FreeSans" font-size="10.00">+ SearchTreePoint()</text>
<text text-anchor="start" x="876" y="-1597.5" font-family="FreeSans" font-size="10.00">+ SearchTreePoint()</text>
</a>
</g>
</g>
<!-- Node9&#45;&gt;Node8 -->
<g id="edge9" class="edge"><title>Node9&#45;&gt;Node8</title>
<path fill="none" stroke="#404040" d="M920,-1590.44C920,-1551.08 920,-1490.28 920,-1450.43"/>
<polygon fill="none" stroke="#404040" points="920,-1450.29 916,-1444.29 920,-1438.29 924,-1444.29 920,-1450.29"/>
<text text-anchor="middle" x="944" y="-1465" font-family="FreeSans" font-size="10.00"> +elements</text>
</g>
<!-- Node10 -->
<g id="node10" class="node"><title>Node10</title>
<polygon fill="white" stroke="#bfbfbf" points="1012.5,-1381 1012.5,-1438 1125.5,-1438 1125.5,-1381 1012.5,-1381"/>
<text text-anchor="middle" x="1069" y="-1426" font-family="FreeSans" font-size="10.00">std::vector&lt; wxString &gt;</text>
<polyline fill="none" stroke="#bfbfbf" points="1012.5,-1419 1125.5,-1419 "/>
<text text-anchor="start" x="1020.5" y="-1407" font-family="FreeSans" font-size="10.00">+ elements</text>
<polyline fill="none" stroke="#bfbfbf" points="1012.5,-1400 1125.5,-1400 "/>
<text text-anchor="middle" x="1069" y="-1388" font-family="FreeSans" font-size="10.00"> </text>
</g>
<!-- Node10&#45;&gt;Node7 -->
<g id="edge10" class="edge"><title>Node10&#45;&gt;Node7</title>
<path fill="none" stroke="#404040" d="M1050.13,-1380.83C1032.95,-1355.63 1006.6,-1317 982.098,-1281.06"/>
<polygon fill="none" stroke="#404040" points="982.005,-1280.93 975.32,-1278.22 975.244,-1271.01 981.929,-1273.72 982.005,-1280.93"/>
<text text-anchor="middle" x="1056.5" y="-1349" font-family="FreeSans" font-size="10.00"> #m_Labels</text>
</g>
<!-- Node11 -->
<g id="node11" class="node"><title>Node11</title>
<polygon fill="white" stroke="#bfbfbf" points="672.5,-1381 672.5,-1438 827.5,-1438 827.5,-1381 672.5,-1381"/>
<text text-anchor="middle" x="750" y="-1426" font-family="FreeSans" font-size="10.00">std::vector&lt; SearchTreeNode * &gt;</text>
<polyline fill="none" stroke="#bfbfbf" points="672.5,-1419 827.5,-1419 "/>
<text text-anchor="middle" x="750" y="-1407" font-family="FreeSans" font-size="10.00"> </text>
<polyline fill="none" stroke="#bfbfbf" points="672.5,-1400 827.5,-1400 "/>
<text text-anchor="middle" x="750" y="-1388" font-family="FreeSans" font-size="10.00"> </text>
</g>
<!-- Node11&#45;&gt;Node7 -->
<g id="edge11" class="edge"><title>Node11&#45;&gt;Node7</title>
<path fill="none" stroke="#404040" d="M776.159,-1380.91C783.098,-1373.3 790.472,-1364.95 797,-1357 817.46,-1332.07 838.658,-1304.15 857.574,-1278.37"/>
<polygon fill="none" stroke="#404040" points="857.627,-1278.3 857.936,-1271.1 864.705,-1268.61 864.396,-1275.82 857.627,-1278.3"/>
<text text-anchor="middle" x="828.5" y="-1349" font-family="FreeSans" font-size="10.00"> #m_Nodes</text>
</g>
<!-- Node12 -->
<g id="node12" class="node"><title>Node12</title>
<g id="a_node12"><a xlink:href="classSearchTreeNode.xhtml" target="_top" xlink:title="{SearchTreeNode\n|# m_Depth\l# m_Parent\l# m_Label\l# m_LabelStart\l# m_LabelLen\l|+ SearchTreeNode()\l+ SearchTreeNode()\l+ ~SearchTreeNode()\l+ GetParent()\l+ SetParent()\l+ GetChild()\l+ GetItemNo()\l+ AddItemNo()\l+ GetParent()\l+ GetChild()\land 15 more...\l+ SerializeString()\l+ U2S()\l+ I2S()\l+ UnSerializeString()\l+ S2U()\l+ S2I()\l}">
<polygon fill="white" stroke="black" points="695.5,-1491.5 695.5,-1768.5 804.5,-1768.5 804.5,-1491.5 695.5,-1491.5"/>
<text text-anchor="middle" x="750" y="-1756.5" font-family="FreeSans" font-size="10.00">SearchTreeNode</text>
<polyline fill="none" stroke="black" points="695.5,-1749.5 804.5,-1749.5 "/>
<text text-anchor="start" x="703.5" y="-1737.5" font-family="FreeSans" font-size="10.00"># m_Depth</text>
<text text-anchor="start" x="703.5" y="-1726.5" font-family="FreeSans" font-size="10.00"># m_Parent</text>
<text text-anchor="start" x="703.5" y="-1715.5" font-family="FreeSans" font-size="10.00"># m_Label</text>
<text text-anchor="start" x="703.5" y="-1704.5" font-family="FreeSans" font-size="10.00"># m_LabelStart</text>
<text text-anchor="start" x="703.5" y="-1693.5" font-family="FreeSans" font-size="10.00"># m_LabelLen</text>
<polyline fill="none" stroke="black" points="695.5,-1686.5 804.5,-1686.5 "/>
<text text-anchor="start" x="703.5" y="-1674.5" font-family="FreeSans" font-size="10.00">+ SearchTreeNode()</text>
<text text-anchor="start" x="703.5" y="-1663.5" font-family="FreeSans" font-size="10.00">+ SearchTreeNode()</text>
<text text-anchor="start" x="703.5" y="-1652.5" font-family="FreeSans" font-size="10.00">+ ~SearchTreeNode()</text>
<text text-anchor="start" x="703.5" y="-1641.5" font-family="FreeSans" font-size="10.00">+ GetParent()</text>
<text text-anchor="start" x="703.5" y="-1630.5" font-family="FreeSans" font-size="10.00">+ SetParent()</text>
<text text-anchor="start" x="703.5" y="-1619.5" font-family="FreeSans" font-size="10.00">+ GetChild()</text>
<text text-anchor="start" x="703.5" y="-1608.5" font-family="FreeSans" font-size="10.00">+ GetItemNo()</text>
<text text-anchor="start" x="703.5" y="-1597.5" font-family="FreeSans" font-size="10.00">+ AddItemNo()</text>
<text text-anchor="start" x="703.5" y="-1586.5" font-family="FreeSans" font-size="10.00">+ GetParent()</text>
<text text-anchor="start" x="703.5" y="-1575.5" font-family="FreeSans" font-size="10.00">+ GetChild()</text>
<text text-anchor="start" x="703.5" y="-1564.5" font-family="FreeSans" font-size="10.00">and 15 more...</text>
<text text-anchor="start" x="703.5" y="-1553.5" font-family="FreeSans" font-size="10.00">+ SerializeString()</text>
<text text-anchor="start" x="703.5" y="-1542.5" font-family="FreeSans" font-size="10.00">+ U2S()</text>
<text text-anchor="start" x="703.5" y="-1531.5" font-family="FreeSans" font-size="10.00">+ I2S()</text>
<text text-anchor="start" x="703.5" y="-1520.5" font-family="FreeSans" font-size="10.00">+ UnSerializeString()</text>
<text text-anchor="start" x="703.5" y="-1509.5" font-family="FreeSans" font-size="10.00">+ S2U()</text>
<text text-anchor="start" x="703.5" y="-1498.5" font-family="FreeSans" font-size="10.00">+ S2I()</text>
</a>
</g>
</g>
<!-- Node12&#45;&gt;Node11 -->
<g id="edge12" class="edge"><title>Node12&#45;&gt;Node11</title>
<path fill="none" stroke="#404040" d="M750,-1491.24C750,-1476.47 750,-1462.45 750,-1450.36"/>
<polygon fill="none" stroke="#404040" points="750,-1450.06 746,-1444.06 750,-1438.06 754,-1444.06 750,-1450.06"/>
<text text-anchor="middle" x="774" y="-1465" font-family="FreeSans" font-size="10.00"> +elements</text>
</g>
<!-- Node13 -->
<g id="node13" class="node"><title>Node13</title>
<polygon fill="white" stroke="#bfbfbf" points="597,-1816.5 597,-1895.5 751,-1895.5 751,-1816.5 597,-1816.5"/>
<text text-anchor="start" x="605" y="-1883.5" font-family="FreeSans" font-size="10.00">std::map&lt; wxChar, nSearch</text>
<text text-anchor="middle" x="674" y="-1872.5" font-family="FreeSans" font-size="10.00">TreeNode, std::less&lt; wxChar &gt; &gt;</text>
<polyline fill="none" stroke="#bfbfbf" points="597,-1865.5 751,-1865.5 "/>
<text text-anchor="start" x="605" y="-1853.5" font-family="FreeSans" font-size="10.00">+ keys</text>
<text text-anchor="start" x="605" y="-1842.5" font-family="FreeSans" font-size="10.00">+ elements</text>
<polyline fill="none" stroke="#bfbfbf" points="597,-1835.5 751,-1835.5 "/>
<text text-anchor="middle" x="674" y="-1823.5" font-family="FreeSans" font-size="10.00"> </text>
</g>
<!-- Node13&#45;&gt;Node12 -->
<g id="edge13" class="edge"><title>Node13&#45;&gt;Node12</title>
<path fill="none" stroke="#404040" d="M687.065,-1816.49C690.708,-1805.75 694.9,-1793.4 699.352,-1780.28"/>
<polygon fill="none" stroke="#404040" points="699.47,-1779.93 697.61,-1772.96 703.325,-1768.57 705.186,-1775.53 699.47,-1779.93"/>
<text text-anchor="middle" x="725.5" y="-1790" font-family="FreeSans" font-size="10.00"> #m_Children</text>
</g>
<!-- Node14 -->
<g id="node14" class="node"><title>Node14</title>
<polygon fill="white" stroke="#bfbfbf" points="769.5,-1816.5 769.5,-1895.5 882.5,-1895.5 882.5,-1816.5 769.5,-1816.5"/>
<text text-anchor="start" x="777.5" y="-1883.5" font-family="FreeSans" font-size="10.00">std::map&lt; size_t, size</text>
<text text-anchor="middle" x="826" y="-1872.5" font-family="FreeSans" font-size="10.00">_t, std::less&lt; size_t &gt; &gt;</text>
<polyline fill="none" stroke="#bfbfbf" points="769.5,-1865.5 882.5,-1865.5 "/>
<text text-anchor="start" x="777.5" y="-1853.5" font-family="FreeSans" font-size="10.00">+ keys</text>
<text text-anchor="start" x="777.5" y="-1842.5" font-family="FreeSans" font-size="10.00">+ elements</text>
<polyline fill="none" stroke="#bfbfbf" points="769.5,-1835.5 882.5,-1835.5 "/>
<text text-anchor="middle" x="826" y="-1823.5" font-family="FreeSans" font-size="10.00"> </text>
</g>
<!-- Node14&#45;&gt;Node12 -->
<g id="edge14" class="edge"><title>Node14&#45;&gt;Node12</title>
<path fill="none" stroke="#404040" d="M812.935,-1816.49C809.292,-1805.75 805.1,-1793.4 800.648,-1780.28"/>
<polygon fill="none" stroke="#404040" points="800.53,-1779.93 794.814,-1775.53 796.675,-1768.57 802.39,-1772.96 800.53,-1779.93"/>
<text text-anchor="middle" x="828" y="-1790" font-family="FreeSans" font-size="10.00"> #m_Items</text>
</g>
<!-- Node15&#45;&gt;Node6 -->
<g id="edge15" class="edge"><title>Node15&#45;&gt;Node6</title>
<path fill="none" stroke="#404040" d="M616.384,-1160.19C628.096,-1117.25 652.448,-1032.49 680,-963 680.932,-960.648 681.892,-958.277 682.876,-955.894"/>
<polygon fill="none" stroke="#404040" points="682.95,-955.72 681.607,-948.635 687.631,-944.671 688.973,-951.756 682.95,-955.72"/>
<text text-anchor="middle" x="703" y="-995" font-family="FreeSans" font-size="10.00"> #m_Items</text>
</g>
<!-- Node16 -->
<g id="node16" class="node"><title>Node16</title>
<polygon fill="white" stroke="#bfbfbf" points="106.5,-821.5 106.5,-878.5 193.5,-878.5 193.5,-821.5 106.5,-821.5"/>
<text text-anchor="middle" x="150" y="-866.5" font-family="FreeSans" font-size="10.00">std::deque&lt; int &gt;</text>
<polyline fill="none" stroke="#bfbfbf" points="106.5,-859.5 193.5,-859.5 "/>
<text text-anchor="start" x="114.5" y="-847.5" font-family="FreeSans" font-size="10.00">+ elements</text>
<polyline fill="none" stroke="#bfbfbf" points="106.5,-840.5 193.5,-840.5 "/>
<text text-anchor="middle" x="150" y="-828.5" font-family="FreeSans" font-size="10.00"> </text>
</g>
<!-- Node16&#45;&gt;Node1 -->
<g id="edge17" class="edge"><title>Node16&#45;&gt;Node1</title>
<path fill="none" stroke="#404040" d="M148.223,-821.318C148.058,-792.789 152.777,-749.292 180,-726 216.262,-694.974 350.85,-728.386 394,-708 413.962,-698.57 432.507,-684.645 448.957,-669.321"/>
<polygon fill="none" stroke="#404040" points="449.256,-669.032 450.783,-661.984 457.876,-660.683 456.349,-667.731 449.256,-669.032"/>
<text text-anchor="middle" x="216.5" y="-729" font-family="FreeSans" font-size="10.00"> #m_FreeTokens</text>
</g>
<!-- Node17 -->
<g id="node17" class="node"><title>Node17</title>
<polygon fill="white" stroke="#bfbfbf" points="212,-816 212,-884 334,-884 334,-816 212,-816"/>
<text text-anchor="middle" x="273" y="-872" font-family="FreeSans" font-size="10.00">std::map&lt; int, wxString &gt;</text>
<polyline fill="none" stroke="#bfbfbf" points="212,-865 334,-865 "/>
<text text-anchor="start" x="220" y="-853" font-family="FreeSans" font-size="10.00">+ keys</text>
<text text-anchor="start" x="220" y="-842" font-family="FreeSans" font-size="10.00">+ elements</text>
<polyline fill="none" stroke="#bfbfbf" points="212,-835 334,-835 "/>
<text text-anchor="middle" x="273" y="-823" font-family="FreeSans" font-size="10.00"> </text>
</g>
<!-- Node17&#45;&gt;Node1 -->
<g id="edge19" class="edge"><title>Node17&#45;&gt;Node1</title>
<path fill="none" stroke="#404040" d="M258.89,-815.929C249.665,-788.538 242.834,-750.298 264,-726 283.156,-704.009 367.974,-721.161 394,-708 413.822,-697.976 432.353,-683.692 448.841,-668.183"/>
<polygon fill="none" stroke="#404040" points="449.195,-667.838 450.699,-660.785 457.787,-659.461 456.284,-666.513 449.195,-667.838"/>
<text text-anchor="middle" x="330.5" y="-729" font-family="FreeSans" font-size="10.00"> #m_TokenDocumentationMap</text>
</g>
<!-- Node18 -->
<g id="node18" class="node"><title>Node18</title>
<polygon fill="white" stroke="#bfbfbf" points="353,-816 353,-884 451,-884 451,-816 353,-816"/>
<text text-anchor="start" x="361" y="-872" font-family="FreeSans" font-size="10.00">std::set&lt; size_t, std</text>
<text text-anchor="middle" x="402" y="-861" font-family="FreeSans" font-size="10.00">::less&lt; size_t &gt; &gt;</text>
<polyline fill="none" stroke="#bfbfbf" points="353,-854 451,-854 "/>
<text text-anchor="start" x="361" y="-842" font-family="FreeSans" font-size="10.00">+ keys</text>
<polyline fill="none" stroke="#bfbfbf" points="353,-835 451,-835 "/>
<text text-anchor="middle" x="402" y="-823" font-family="FreeSans" font-size="10.00"> </text>
</g>
<!-- Node18&#45;&gt;Node1 -->
<g id="edge20" class="edge"><title>Node18&#45;&gt;Node1</title>
<path fill="none" stroke="#404040" d="M396.537,-815.878C393.701,-790.524 392.691,-755.085 403,-726 413.106,-697.486 431.071,-670.319 450.072,-647.111"/>
<polygon fill="none" stroke="#404040" points="450.23,-646.924 451.041,-639.758 457.967,-637.751 457.156,-644.916 450.23,-646.924"/>
<text text-anchor="middle" x="456" y="-729" font-family="FreeSans" font-size="10.00"> #m_FilesToBeReparsed</text>
</g>
<!-- Node19&#45;&gt;Node1 -->
<g id="edge21" class="edge"><title>Node19&#45;&gt;Node1</title>
<path fill="none" stroke="#404040" d="M833.933,-963.268C842.347,-913.97 850.995,-820.273 812,-755 764.895,-676.152 668.382,-626.863 599.865,-600.315"/>
<polygon fill="none" stroke="#404040" points="599.496,-600.176 592.47,-601.797 588.27,-595.935 595.297,-594.313 599.496,-600.176"/>
<text text-anchor="middle" x="869" y="-847.5" font-family="FreeSans" font-size="10.00"> #m_FileMap</text>
</g>
<!-- Node20 -->
<g id="node20" class="node"><title>Node20</title>
<polygon fill="white" stroke="#bfbfbf" points="507.5,-810.5 507.5,-889.5 646.5,-889.5 646.5,-810.5 507.5,-810.5"/>
<text text-anchor="start" x="515.5" y="-877.5" font-family="FreeSans" font-size="10.00">std::map&lt; size_t, FileParsing</text>
<text text-anchor="middle" x="577" y="-866.5" font-family="FreeSans" font-size="10.00">Status, std::less&lt; size_t &gt; &gt;</text>
<polyline fill="none" stroke="#bfbfbf" points="507.5,-859.5 646.5,-859.5 "/>
<text text-anchor="start" x="515.5" y="-847.5" font-family="FreeSans" font-size="10.00">+ keys</text>
<text text-anchor="start" x="515.5" y="-836.5" font-family="FreeSans" font-size="10.00">+ elements</text>
<polyline fill="none" stroke="#bfbfbf" points="507.5,-829.5 646.5,-829.5 "/>
<text text-anchor="middle" x="577" y="-817.5" font-family="FreeSans" font-size="10.00"> </text>
</g>
<!-- Node20&#45;&gt;Node1 -->
<g id="edge23" class="edge"><title>Node20&#45;&gt;Node1</title>
<path fill="none" stroke="#404040" d="M569.378,-810.394C564.579,-786.092 558.056,-753.051 551.417,-719.429"/>
<polygon fill="none" stroke="#404040" points="551.392,-719.298 546.305,-714.187 549.067,-707.525 554.154,-712.637 551.392,-719.298"/>
<text text-anchor="middle" x="597" y="-729" font-family="FreeSans" font-size="10.00"> #m_FileStatusMap</text>
</g>
</g>
</svg>
