<?xml version="1.0" encoding="UTF-8" standalone="no"?>
<!DOCTYPE svg PUBLIC "-//W3C//DTD SVG 1.1//EN"
 "http://www.w3.org/Graphics/SVG/1.1/DTD/svg11.dtd">
<!-- Generated by graphviz version 2.38.0 (20140413.2041)
 -->
<!-- Title: cbStackFrame Pages: 1 -->
<svg width="103pt" height="242pt"
 viewBox="0.00 0.00 103.00 242.00" xmlns="http://www.w3.org/2000/svg" xmlns:xlink="http://www.w3.org/1999/xlink">
<g id="graph0" class="graph" transform="scale(1 1) rotate(0) translate(4 238)">
<title>cbStackFrame</title>
<polygon fill="white" stroke="none" points="-4,4 -4,-238 99,-238 99,4 -4,4"/>
<!-- Node1 -->
<g id="node1" class="node"><title>Node1</title>
<polygon fill="#bfbfbf" stroke="black" points="0,-0.5 0,-233.5 95,-233.5 95,-0.5 0,-0.5"/>
<text text-anchor="middle" x="47.5" y="-221.5" font-family="FreeSans" font-size="10.00">cbStackFrame</text>
<polyline fill="none" stroke="black" points="0,-214.5 95,-214.5 "/>
<text text-anchor="start" x="8" y="-202.5" font-family="FreeSans" font-size="10.00">&#45; m_valid</text>
<text text-anchor="start" x="8" y="-191.5" font-family="FreeSans" font-size="10.00">&#45; m_number</text>
<text text-anchor="start" x="8" y="-180.5" font-family="FreeSans" font-size="10.00">&#45; m_address</text>
<text text-anchor="start" x="8" y="-169.5" font-family="FreeSans" font-size="10.00">&#45; m_symbol</text>
<text text-anchor="start" x="8" y="-158.5" font-family="FreeSans" font-size="10.00">&#45; m_file</text>
<text text-anchor="start" x="8" y="-147.5" font-family="FreeSans" font-size="10.00">&#45; m_line</text>
<polyline fill="none" stroke="black" points="0,-140.5 95,-140.5 "/>
<text text-anchor="start" x="8" y="-128.5" font-family="FreeSans" font-size="10.00">+ cbStackFrame()</text>
<text text-anchor="start" x="8" y="-117.5" font-family="FreeSans" font-size="10.00">+ SetNumber()</text>
<text text-anchor="start" x="8" y="-106.5" font-family="FreeSans" font-size="10.00">+ SetAddress()</text>
<text text-anchor="start" x="8" y="-95.5" font-family="FreeSans" font-size="10.00">+ SetSymbol()</text>
<text text-anchor="start" x="8" y="-84.5" font-family="FreeSans" font-size="10.00">+ SetFile()</text>
<text text-anchor="start" x="8" y="-73.5" font-family="FreeSans" font-size="10.00">+ MakeValid()</text>
<text text-anchor="start" x="8" y="-62.5" font-family="FreeSans" font-size="10.00">+ GetNumber()</text>
<text text-anchor="start" x="8" y="-51.5" font-family="FreeSans" font-size="10.00">+ GetAddress()</text>
<text text-anchor="start" x="8" y="-40.5" font-family="FreeSans" font-size="10.00">+ GetSymbol()</text>
<text text-anchor="start" x="8" y="-29.5" font-family="FreeSans" font-size="10.00">+ GetFilename()</text>
<text text-anchor="start" x="8" y="-18.5" font-family="FreeSans" font-size="10.00">+ GetLine()</text>
<text text-anchor="start" x="8" y="-7.5" font-family="FreeSans" font-size="10.00">+ IsValid()</text>
</g>
</g>
</svg>
