<?xml version="1.0" encoding="UTF-8" standalone="no"?>
<!DOCTYPE svg PUBLIC "-//W3C//DTD SVG 1.1//EN"
 "http://www.w3.org/Graphics/SVG/1.1/DTD/svg11.dtd">
<!-- Generated by graphviz version 2.38.0 (20140413.2041)
 -->
<!-- Title: EditorBase Pages: 1 -->
<svg width="193pt" height="895pt"
 viewBox="0.00 0.00 193.00 895.00" xmlns="http://www.w3.org/2000/svg" xmlns:xlink="http://www.w3.org/1999/xlink">
<g id="graph0" class="graph" transform="scale(1 1) rotate(0) translate(4 891)">
<title>EditorBase</title>
<!-- Node8 -->
<g id="node1" class="node"><title>Node8</title>
<polygon fill="#bfbfbf" stroke="black" points="29,-116.5 29,-371.5 179,-371.5 179,-116.5 29,-116.5"/>
<text text-anchor="middle" x="104" y="-359.5" font-family="FreeSans" font-size="10.00">EditorBase</text>
<polyline fill="none" stroke="black" points="29,-352.5 179,-352.5 "/>
<text text-anchor="start" x="37" y="-340.5" font-family="FreeSans" font-size="10.00"># m_IsBuiltinEditor</text>
<text text-anchor="start" x="37" y="-329.5" font-family="FreeSans" font-size="10.00">&#45; m_SwitchTo</text>
<polyline fill="none" stroke="black" points="29,-322.5 179,-322.5 "/>
<text text-anchor="start" x="37" y="-310.5" font-family="FreeSans" font-size="10.00">+ EditorBase()</text>
<text text-anchor="start" x="37" y="-299.5" font-family="FreeSans" font-size="10.00">+ ~EditorBase()</text>
<text text-anchor="start" x="37" y="-288.5" font-family="FreeSans" font-size="10.00">+ operator=()</text>
<text text-anchor="start" x="37" y="-277.5" font-family="FreeSans" font-size="10.00">+ GetFilename()</text>
<text text-anchor="start" x="37" y="-266.5" font-family="FreeSans" font-size="10.00">+ SetFilename()</text>
<text text-anchor="start" x="37" y="-255.5" font-family="FreeSans" font-size="10.00">+ GetShortName()</text>
<text text-anchor="start" x="37" y="-244.5" font-family="FreeSans" font-size="10.00">+ GetModified()</text>
<text text-anchor="start" x="37" y="-233.5" font-family="FreeSans" font-size="10.00">+ SetModified()</text>
<text text-anchor="start" x="37" y="-222.5" font-family="FreeSans" font-size="10.00">and 30 more...</text>
<text text-anchor="start" x="37" y="-211.5" font-family="FreeSans" font-size="10.00"># InitFilename()</text>
<text text-anchor="start" x="37" y="-200.5" font-family="FreeSans" font-size="10.00"># CreateContextSubMenu()</text>
<text text-anchor="start" x="37" y="-189.5" font-family="FreeSans" font-size="10.00"># AddToContextMenu()</text>
<text text-anchor="start" x="37" y="-178.5" font-family="FreeSans" font-size="10.00"># CreateUniqueFilename()</text>
<text text-anchor="start" x="37" y="-167.5" font-family="FreeSans" font-size="10.00"># OnBeforeBuildContextMenu()</text>
<text text-anchor="start" x="37" y="-156.5" font-family="FreeSans" font-size="10.00"># OnAfterBuildContextMenu()</text>
<text text-anchor="start" x="37" y="-145.5" font-family="FreeSans" font-size="10.00">&#45; EditorBase()</text>
<text text-anchor="start" x="37" y="-134.5" font-family="FreeSans" font-size="10.00">&#45; OnContextMenuEntry()</text>
<text text-anchor="start" x="37" y="-123.5" font-family="FreeSans" font-size="10.00">&#45; BasicAddToContextMenu()</text>
</g>
<!-- Node15 -->
<g id="node6" class="node"><title>Node15</title>
<g id="a_node6"><a xlink:href="structEditorBaseInternalData" target="_top" xlink:title="{EditorBaseInternalData\n|+ m_DisplayingPopupMenu\l+ m_CloseMe\l|+ EditorBaseInternalData()\l}">
<polygon fill="none" stroke="black" points="37,-0.5 37,-68.5 171,-68.5 171,-0.5 37,-0.5"/>
<text text-anchor="middle" x="104" y="-56.5" font-family="FreeSans" font-size="10.00">EditorBaseInternalData</text>
<polyline fill="none" stroke="black" points="37,-49.5 171,-49.5 "/>
<text text-anchor="start" x="45" y="-37.5" font-family="FreeSans" font-size="10.00">+ m_DisplayingPopupMenu</text>
<text text-anchor="start" x="45" y="-26.5" font-family="FreeSans" font-size="10.00">+ m_CloseMe</text>
<polyline fill="none" stroke="black" points="37,-19.5 171,-19.5 "/>
<text text-anchor="start" x="45" y="-7.5" font-family="FreeSans" font-size="10.00">+ EditorBaseInternalData()</text>
</a>
</g>
</g>
<!-- Node8&#45;&gt;Node15 -->
<g id="edge6" class="edge"><title>Node8&#45;&gt;Node15</title>
<path fill="none" stroke="#404040" d="M56.754,-116.462C57.0092,-106.434 58.613,-96.5122 62,-87 62.9633,-84.2947 64.1363,-81.6286 65.4691,-79.0196"/>
<polygon fill="none" stroke="#404040" points="65.5197,-78.9359 65.1956,-71.732 71.7207,-68.6622 72.0447,-75.8661 65.5197,-78.9359"/>
<text text-anchor="middle" x="89.5" y="-90" font-family="FreeSans" font-size="10.00"> +m_pOwner</text>
</g>
<!-- Node9 -->
<g id="node2" class="node"><title>Node9</title>
<g id="a_node2"><a doxygen="/media/alpha/Barracuda/cb_docs/src/wxTagFile.xml:http://docs.wxwidgets.org/3.0/" xlink:href="http://docs.wxwidgets.org/3.0/classwx_panel.html" target="_top" xlink:title="{wxPanel\n||}">
<polygon fill="none" stroke="black" points="10.5,-546 10.5,-603 63.5,-603 63.5,-546 10.5,-546"/>
<text text-anchor="middle" x="37" y="-591" font-family="FreeSans" font-size="10.00">wxPanel</text>
<polyline fill="none" stroke="black" points="10.5,-584 63.5,-584 "/>
<text text-anchor="middle" x="37" y="-572" font-family="FreeSans" font-size="10.00"> </text>
<polyline fill="none" stroke="black" points="10.5,-565 63.5,-565 "/>
<text text-anchor="middle" x="37" y="-553" font-family="FreeSans" font-size="10.00"> </text>
</a>
</g>
</g>
<!-- Node9&#45;&gt;Node8 -->
<g id="edge1" class="edge"><title>Node9&#45;&gt;Node8</title>
<path fill="none" stroke="midnightblue" d="M44.661,-535.938C52.8125,-495.972 66.1581,-430.538 78.1305,-371.838"/>
<polygon fill="none" stroke="midnightblue" points="41.2238,-535.278 42.6546,-545.775 48.0825,-536.677 41.2238,-535.278"/>
</g>
<!-- Node10 -->
<g id="node3" class="node"><title>Node10</title>
<g id="a_node3"><a doxygen="/media/alpha/Barracuda/cb_docs/src/wxTagFile.xml:http://docs.wxwidgets.org/3.0/" xlink:href="http://docs.wxwidgets.org/3.0/classwx_window.html" target="_top" xlink:title="{wxWindow\n||}">
<polygon fill="none" stroke="black" points="6,-734.5 6,-791.5 68,-791.5 68,-734.5 6,-734.5"/>
<text text-anchor="middle" x="37" y="-779.5" font-family="FreeSans" font-size="10.00">wxWindow</text>
<polyline fill="none" stroke="black" points="6,-772.5 68,-772.5 "/>
<text text-anchor="middle" x="37" y="-760.5" font-family="FreeSans" font-size="10.00"> </text>
<polyline fill="none" stroke="black" points="6,-753.5 68,-753.5 "/>
<text text-anchor="middle" x="37" y="-741.5" font-family="FreeSans" font-size="10.00"> </text>
</a>
</g>
</g>
<!-- Node10&#45;&gt;Node9 -->
<g id="edge2" class="edge"><title>Node10&#45;&gt;Node9</title>
<path fill="none" stroke="midnightblue" d="M37,-724.397C37,-688.506 37,-635.274 37,-603.132"/>
<polygon fill="none" stroke="midnightblue" points="33.5001,-724.481 37,-734.481 40.5001,-724.481 33.5001,-724.481"/>
</g>
<!-- Node11 -->
<g id="node4" class="node"><title>Node11</title>
<g id="a_node4"><a doxygen="/media/alpha/Barracuda/cb_docs/src/wxTagFile.xml:http://docs.wxwidgets.org/3.0/" xlink:href="http://docs.wxwidgets.org/3.0/classwx_evt_handler.html" target="_top" xlink:title="{wxEvtHandler\n||}">
<polygon fill="none" stroke="red" points="0,-829.5 0,-886.5 74,-886.5 74,-829.5 0,-829.5"/>
<text text-anchor="middle" x="37" y="-874.5" font-family="FreeSans" font-size="10.00">wxEvtHandler</text>
<polyline fill="none" stroke="red" points="0,-867.5 74,-867.5 "/>
<text text-anchor="middle" x="37" y="-855.5" font-family="FreeSans" font-size="10.00"> </text>
<polyline fill="none" stroke="red" points="0,-848.5 74,-848.5 "/>
<text text-anchor="middle" x="37" y="-836.5" font-family="FreeSans" font-size="10.00"> </text>
</a>
</g>
</g>
<!-- Node11&#45;&gt;Node10 -->
<g id="edge3" class="edge"><title>Node11&#45;&gt;Node10</title>
<path fill="none" stroke="midnightblue" d="M37,-819.235C37,-810.028 37,-800.346 37,-791.705"/>
<polygon fill="none" stroke="midnightblue" points="33.5001,-819.349 37,-829.349 40.5001,-819.349 33.5001,-819.349"/>
</g>
<!-- Node14 -->
<g id="node5" class="node"><title>Node14</title>
<g id="a_node5"><a doxygen="/media/alpha/Barracuda/cb_docs/src/wxTagFile.xml:http://docs.wxwidgets.org/3.0/" xlink:href="http://docs.wxwidgets.org/3.0/classwx_string.html" target="_top" xlink:title="{wxString\n|+ npos\l|+ wxString()\l+ wxString()\l+ wxString()\l+ wxString()\l+ wxString()\l+ wxString()\l+ wxString()\l+ wxString()\land 222 more...\l+ Format()\l+ FormatV()\l+ FromCDouble()\l+ FromDouble()\l+ From8BitData()\l+ From8BitData()\l+ FromAscii()\l+ FromAscii()\land 7 more...\l}">
<polygon fill="none" stroke="black" points="81.5,-452.5 81.5,-696.5 172.5,-696.5 172.5,-452.5 81.5,-452.5"/>
<text text-anchor="middle" x="127" y="-684.5" font-family="FreeSans" font-size="10.00">wxString</text>
<polyline fill="none" stroke="black" points="81.5,-677.5 172.5,-677.5 "/>
<text text-anchor="start" x="89.5" y="-665.5" font-family="FreeSans" font-size="10.00">+ npos</text>
<polyline fill="none" stroke="black" points="81.5,-658.5 172.5,-658.5 "/>
<text text-anchor="start" x="89.5" y="-646.5" font-family="FreeSans" font-size="10.00">+ wxString()</text>
<text text-anchor="start" x="89.5" y="-635.5" font-family="FreeSans" font-size="10.00">+ wxString()</text>
<text text-anchor="start" x="89.5" y="-624.5" font-family="FreeSans" font-size="10.00">+ wxString()</text>
<text text-anchor="start" x="89.5" y="-613.5" font-family="FreeSans" font-size="10.00">+ wxString()</text>
<text text-anchor="start" x="89.5" y="-602.5" font-family="FreeSans" font-size="10.00">+ wxString()</text>
<text text-anchor="start" x="89.5" y="-591.5" font-family="FreeSans" font-size="10.00">+ wxString()</text>
<text text-anchor="start" x="89.5" y="-580.5" font-family="FreeSans" font-size="10.00">+ wxString()</text>
<text text-anchor="start" x="89.5" y="-569.5" font-family="FreeSans" font-size="10.00">+ wxString()</text>
<text text-anchor="start" x="89.5" y="-558.5" font-family="FreeSans" font-size="10.00">and 222 more...</text>
<text text-anchor="start" x="89.5" y="-547.5" font-family="FreeSans" font-size="10.00">+ Format()</text>
<text text-anchor="start" x="89.5" y="-536.5" font-family="FreeSans" font-size="10.00">+ FormatV()</text>
<text text-anchor="start" x="89.5" y="-525.5" font-family="FreeSans" font-size="10.00">+ FromCDouble()</text>
<text text-anchor="start" x="89.5" y="-514.5" font-family="FreeSans" font-size="10.00">+ FromDouble()</text>
<text text-anchor="start" x="89.5" y="-503.5" font-family="FreeSans" font-size="10.00">+ From8BitData()</text>
<text text-anchor="start" x="89.5" y="-492.5" font-family="FreeSans" font-size="10.00">+ From8BitData()</text>
<text text-anchor="start" x="89.5" y="-481.5" font-family="FreeSans" font-size="10.00">+ FromAscii()</text>
<text text-anchor="start" x="89.5" y="-470.5" font-family="FreeSans" font-size="10.00">+ FromAscii()</text>
<text text-anchor="start" x="89.5" y="-459.5" font-family="FreeSans" font-size="10.00">and 7 more...</text>
</a>
</g>
</g>
<!-- Node14&#45;&gt;Node8 -->
<g id="edge4" class="edge"><title>Node14&#45;&gt;Node8</title>
<path fill="none" stroke="#404040" d="M118.501,-452.112C116.944,-429.88 115.309,-406.522 113.72,-383.828"/>
<polygon fill="none" stroke="#404040" points="113.707,-383.637 109.297,-377.931 112.869,-371.666 117.278,-377.372 113.707,-383.637"/>
<text text-anchor="middle" x="150.5" y="-426" font-family="FreeSans" font-size="10.00"> #m_Shortname</text>
<text text-anchor="middle" x="150.5" y="-415" font-family="FreeSans" font-size="10.00">&#45;m_WinTitle</text>
<text text-anchor="middle" x="150.5" y="-404" font-family="FreeSans" font-size="10.00">&#45;lastWord</text>
<text text-anchor="middle" x="150.5" y="-393" font-family="FreeSans" font-size="10.00">#m_Filename</text>
</g>
<!-- Node15&#45;&gt;Node8 -->
<g id="edge5" class="edge"><title>Node15&#45;&gt;Node8</title>
<path fill="none" stroke="#404040" d="M116.646,-68.6349C118.454,-74.6634 120.028,-80.9575 121,-87 121.912,-92.6696 122.558,-98.4632 122.976,-104.322"/>
<polygon fill="none" stroke="#404040" points="122.981,-104.433 127.25,-110.244 123.527,-116.42 119.258,-110.608 122.981,-104.433"/>
<text text-anchor="middle" x="145.5" y="-90" font-family="FreeSans" font-size="10.00"> #m_pData</text>
</g>
</g>
</svg>
