<?xml version="1.0" encoding="UTF-8" standalone="no"?>
<!DOCTYPE svg PUBLIC "-//W3C//DTD SVG 1.1//EN"
 "http://www.w3.org/Graphics/SVG/1.1/DTD/svg11.dtd">
<!-- Generated by graphviz version 2.38.0 (20140413.2041)
 -->
<!-- Title: WizBuildTargetPanel Pages: 1 -->
<svg width="750pt" height="1286pt"
 viewBox="0.00 0.00 749.50 1286.00" xmlns="http://www.w3.org/2000/svg" xmlns:xlink="http://www.w3.org/1999/xlink">
<g id="graph0" class="graph" transform="scale(1 1) rotate(0) translate(4 1282)">
<title>WizBuildTargetPanel</title>
<!-- Node9 -->
<g id="node1" class="node"><title>Node9</title>
<polygon fill="#bfbfbf" stroke="black" points="245.5,-0.5 245.5,-134.5 389.5,-134.5 389.5,-0.5 245.5,-0.5"/>
<text text-anchor="middle" x="317.5" y="-122.5" font-family="FreeSans" font-size="10.00">WizBuildTargetPanel</text>
<polyline fill="none" stroke="black" points="245.5,-115.5 389.5,-115.5 "/>
<text text-anchor="middle" x="317.5" y="-103.5" font-family="FreeSans" font-size="10.00"> </text>
<polyline fill="none" stroke="black" points="245.5,-96.5 389.5,-96.5 "/>
<text text-anchor="start" x="253.5" y="-84.5" font-family="FreeSans" font-size="10.00">+ WizBuildTargetPanel()</text>
<text text-anchor="start" x="253.5" y="-73.5" font-family="FreeSans" font-size="10.00">+ ~WizBuildTargetPanel()</text>
<text text-anchor="start" x="253.5" y="-62.5" font-family="FreeSans" font-size="10.00">+ GetCompilerID()</text>
<text text-anchor="start" x="253.5" y="-51.5" font-family="FreeSans" font-size="10.00">+ GetEnableDebug()</text>
<text text-anchor="start" x="253.5" y="-40.5" font-family="FreeSans" font-size="10.00">+ GetTargetName()</text>
<text text-anchor="start" x="253.5" y="-29.5" font-family="FreeSans" font-size="10.00">+ GetTargetOutputDir()</text>
<text text-anchor="start" x="253.5" y="-18.5" font-family="FreeSans" font-size="10.00">+ GetTargetObjectOutputDir()</text>
<text text-anchor="start" x="253.5" y="-7.5" font-family="FreeSans" font-size="10.00">+ OnPageChanging()</text>
</g>
<!-- Node10 -->
<g id="node2" class="node"><title>Node10</title>
<g id="a_node2"><a xlink:href="classWizPageBase" target="_top" xlink:title="{WizPageBase\n|&#45; m_SkipPage\l|+ WizPageBase()\l+ ~WizPageBase()\l+ SkipPage()\l+ OnPageChanging()\l+ OnPageChanged()\l+ GetPrev()\l+ GetNext()\l+ GetPageName()\l+ GetSkipPage()\l+ SetSkipPage()\l}">
<polygon fill="none" stroke="black" points="166,-172.5 166,-328.5 273,-328.5 273,-172.5 166,-172.5"/>
<text text-anchor="middle" x="219.5" y="-316.5" font-family="FreeSans" font-size="10.00">WizPageBase</text>
<polyline fill="none" stroke="black" points="166,-309.5 273,-309.5 "/>
<text text-anchor="start" x="174" y="-297.5" font-family="FreeSans" font-size="10.00">&#45; m_SkipPage</text>
<polyline fill="none" stroke="black" points="166,-290.5 273,-290.5 "/>
<text text-anchor="start" x="174" y="-278.5" font-family="FreeSans" font-size="10.00">+ WizPageBase()</text>
<text text-anchor="start" x="174" y="-267.5" font-family="FreeSans" font-size="10.00">+ ~WizPageBase()</text>
<text text-anchor="start" x="174" y="-256.5" font-family="FreeSans" font-size="10.00">+ SkipPage()</text>
<text text-anchor="start" x="174" y="-245.5" font-family="FreeSans" font-size="10.00">+ OnPageChanging()</text>
<text text-anchor="start" x="174" y="-234.5" font-family="FreeSans" font-size="10.00">+ OnPageChanged()</text>
<text text-anchor="start" x="174" y="-223.5" font-family="FreeSans" font-size="10.00">+ GetPrev()</text>
<text text-anchor="start" x="174" y="-212.5" font-family="FreeSans" font-size="10.00">+ GetNext()</text>
<text text-anchor="start" x="174" y="-201.5" font-family="FreeSans" font-size="10.00">+ GetPageName()</text>
<text text-anchor="start" x="174" y="-190.5" font-family="FreeSans" font-size="10.00">+ GetSkipPage()</text>
<text text-anchor="start" x="174" y="-179.5" font-family="FreeSans" font-size="10.00">+ SetSkipPage()</text>
</a>
</g>
</g>
<!-- Node10&#45;&gt;Node9 -->
<g id="edge1" class="edge"><title>Node10&#45;&gt;Node9</title>
<path fill="none" stroke="midnightblue" d="M266.026,-163.569C271.298,-153.833 276.607,-144.026 281.711,-134.601"/>
<polygon fill="none" stroke="midnightblue" points="262.886,-162.017 261.203,-172.477 269.042,-165.35 262.886,-162.017"/>
</g>
<!-- Node11 -->
<g id="node3" class="node"><title>Node11</title>
<g id="a_node3"><a doxygen="/media/alpha/Barracuda/cb_docs/src/wxTagFile.xml:http://docs.wxwidgets.org/3.0/" xlink:href="http://docs.wxwidgets.org/3.0/classwx_wizard_page_simple.html" target="_top" xlink:title="{wxWizardPageSimple\n||+ wxWizardPageSimple()\l+ wxWizardPageSimple()\l+ Create()\l+ Chain()\l+ SetNext()\l+ SetPrev()\l+ Chain()\l}">
<polygon fill="none" stroke="black" points="109.5,-437 109.5,-560 233.5,-560 233.5,-437 109.5,-437"/>
<text text-anchor="middle" x="171.5" y="-548" font-family="FreeSans" font-size="10.00">wxWizardPageSimple</text>
<polyline fill="none" stroke="black" points="109.5,-541 233.5,-541 "/>
<text text-anchor="middle" x="171.5" y="-529" font-family="FreeSans" font-size="10.00"> </text>
<polyline fill="none" stroke="black" points="109.5,-522 233.5,-522 "/>
<text text-anchor="start" x="117.5" y="-510" font-family="FreeSans" font-size="10.00">+ wxWizardPageSimple()</text>
<text text-anchor="start" x="117.5" y="-499" font-family="FreeSans" font-size="10.00">+ wxWizardPageSimple()</text>
<text text-anchor="start" x="117.5" y="-488" font-family="FreeSans" font-size="10.00">+ Create()</text>
<text text-anchor="start" x="117.5" y="-477" font-family="FreeSans" font-size="10.00">+ Chain()</text>
<text text-anchor="start" x="117.5" y="-466" font-family="FreeSans" font-size="10.00">+ SetNext()</text>
<text text-anchor="start" x="117.5" y="-455" font-family="FreeSans" font-size="10.00">+ SetPrev()</text>
<text text-anchor="start" x="117.5" y="-444" font-family="FreeSans" font-size="10.00">+ Chain()</text>
</a>
</g>
</g>
<!-- Node11&#45;&gt;Node10 -->
<g id="edge2" class="edge"><title>Node11&#45;&gt;Node10</title>
<path fill="none" stroke="midnightblue" d="M185.347,-426.533C191.316,-395.944 198.311,-360.091 204.412,-328.827"/>
<polygon fill="none" stroke="midnightblue" points="181.845,-426.206 183.365,-436.691 188.716,-427.546 181.845,-426.206"/>
</g>
<!-- Node12 -->
<g id="node4" class="node"><title>Node12</title>
<g id="a_node4"><a doxygen="/media/alpha/Barracuda/cb_docs/src/wxTagFile.xml:http://docs.wxwidgets.org/3.0/" xlink:href="http://docs.wxwidgets.org/3.0/classwx_wizard_page.html" target="_top" xlink:title="{wxWizardPage\n||+ wxWizardPage()\l+ wxWizardPage()\l+ Create()\l+ GetBitmap()\l+ GetNext()\l+ GetPrev()\l}">
<polygon fill="none" stroke="black" points="114.5,-745.5 114.5,-857.5 208.5,-857.5 208.5,-745.5 114.5,-745.5"/>
<text text-anchor="middle" x="161.5" y="-845.5" font-family="FreeSans" font-size="10.00">wxWizardPage</text>
<polyline fill="none" stroke="black" points="114.5,-838.5 208.5,-838.5 "/>
<text text-anchor="middle" x="161.5" y="-826.5" font-family="FreeSans" font-size="10.00"> </text>
<polyline fill="none" stroke="black" points="114.5,-819.5 208.5,-819.5 "/>
<text text-anchor="start" x="122.5" y="-807.5" font-family="FreeSans" font-size="10.00">+ wxWizardPage()</text>
<text text-anchor="start" x="122.5" y="-796.5" font-family="FreeSans" font-size="10.00">+ wxWizardPage()</text>
<text text-anchor="start" x="122.5" y="-785.5" font-family="FreeSans" font-size="10.00">+ Create()</text>
<text text-anchor="start" x="122.5" y="-774.5" font-family="FreeSans" font-size="10.00">+ GetBitmap()</text>
<text text-anchor="start" x="122.5" y="-763.5" font-family="FreeSans" font-size="10.00">+ GetNext()</text>
<text text-anchor="start" x="122.5" y="-752.5" font-family="FreeSans" font-size="10.00">+ GetPrev()</text>
</a>
</g>
</g>
<!-- Node12&#45;&gt;Node11 -->
<g id="edge3" class="edge"><title>Node12&#45;&gt;Node11</title>
<path fill="none" stroke="midnightblue" d="M163.671,-735.164C165.4,-683.111 167.802,-610.798 169.489,-560.044"/>
<polygon fill="none" stroke="midnightblue" points="160.168,-735.181 163.334,-745.292 167.164,-735.414 160.168,-735.181"/>
</g>
<!-- Node13 -->
<g id="node5" class="node"><title>Node13</title>
<g id="a_node5"><a doxygen="/media/alpha/Barracuda/cb_docs/src/wxTagFile.xml:http://docs.wxwidgets.org/3.0/" xlink:href="http://docs.wxwidgets.org/3.0/classwx_panel.html" target="_top" xlink:title="{wxPanel\n||}">
<polygon fill="none" stroke="red" points="132,-1059.5 132,-1116.5 185,-1116.5 185,-1059.5 132,-1059.5"/>
<text text-anchor="middle" x="158.5" y="-1104.5" font-family="FreeSans" font-size="10.00">wxPanel</text>
<polyline fill="none" stroke="red" points="132,-1097.5 185,-1097.5 "/>
<text text-anchor="middle" x="158.5" y="-1085.5" font-family="FreeSans" font-size="10.00"> </text>
<polyline fill="none" stroke="red" points="132,-1078.5 185,-1078.5 "/>
<text text-anchor="middle" x="158.5" y="-1066.5" font-family="FreeSans" font-size="10.00"> </text>
</a>
</g>
</g>
<!-- Node13&#45;&gt;Node12 -->
<g id="edge4" class="edge"><title>Node13&#45;&gt;Node12</title>
<path fill="none" stroke="midnightblue" d="M158.898,-1049.29C159.415,-1000.23 160.323,-914.156 160.918,-857.735"/>
<polygon fill="none" stroke="midnightblue" points="155.396,-1049.43 158.79,-1059.46 162.396,-1049.5 155.396,-1049.43"/>
</g>
<!-- Node22 -->
<g id="node10" class="node"><title>Node22</title>
<g id="a_node10"><a xlink:href="classBuildTargetPanel" target="_top" xlink:title="{BuildTargetPanel\n|+ ID_STATICTEXT1\l+ ID_STATICTEXT3\l+ ID_TEXTCTRL1\l+ ID_STATICTEXT2\l+ ID_COMBOBOX1\l+ ID_STATICTEXT4\l+ ID_TEXTCTRL2\l+ ID_STATICTEXT5\l+ ID_TEXTCTRL3\l+ ID_CHECKBOX1\l|+ BuildTargetPanel()\l+ ~BuildTargetPanel()\l+ ShowCompiler()\l+ SetTargetName()\l+ SetEnableDebug()\l+ GetCompilerCombo()\l+ GetEnableDebug()\l+ GetTargetName()\l+ GetOutputDir()\l+ GetObjectOutputDir()\l&#45; OntxtNameText()\l}">
<polygon fill="none" stroke="black" points="349.5,-668.5 349.5,-934.5 465.5,-934.5 465.5,-668.5 349.5,-668.5"/>
<text text-anchor="middle" x="407.5" y="-922.5" font-family="FreeSans" font-size="10.00">BuildTargetPanel</text>
<polyline fill="none" stroke="black" points="349.5,-915.5 465.5,-915.5 "/>
<text text-anchor="start" x="357.5" y="-903.5" font-family="FreeSans" font-size="10.00">+ ID_STATICTEXT1</text>
<text text-anchor="start" x="357.5" y="-892.5" font-family="FreeSans" font-size="10.00">+ ID_STATICTEXT3</text>
<text text-anchor="start" x="357.5" y="-881.5" font-family="FreeSans" font-size="10.00">+ ID_TEXTCTRL1</text>
<text text-anchor="start" x="357.5" y="-870.5" font-family="FreeSans" font-size="10.00">+ ID_STATICTEXT2</text>
<text text-anchor="start" x="357.5" y="-859.5" font-family="FreeSans" font-size="10.00">+ ID_COMBOBOX1</text>
<text text-anchor="start" x="357.5" y="-848.5" font-family="FreeSans" font-size="10.00">+ ID_STATICTEXT4</text>
<text text-anchor="start" x="357.5" y="-837.5" font-family="FreeSans" font-size="10.00">+ ID_TEXTCTRL2</text>
<text text-anchor="start" x="357.5" y="-826.5" font-family="FreeSans" font-size="10.00">+ ID_STATICTEXT5</text>
<text text-anchor="start" x="357.5" y="-815.5" font-family="FreeSans" font-size="10.00">+ ID_TEXTCTRL3</text>
<text text-anchor="start" x="357.5" y="-804.5" font-family="FreeSans" font-size="10.00">+ ID_CHECKBOX1</text>
<polyline fill="none" stroke="black" points="349.5,-797.5 465.5,-797.5 "/>
<text text-anchor="start" x="357.5" y="-785.5" font-family="FreeSans" font-size="10.00">+ BuildTargetPanel()</text>
<text text-anchor="start" x="357.5" y="-774.5" font-family="FreeSans" font-size="10.00">+ ~BuildTargetPanel()</text>
<text text-anchor="start" x="357.5" y="-763.5" font-family="FreeSans" font-size="10.00">+ ShowCompiler()</text>
<text text-anchor="start" x="357.5" y="-752.5" font-family="FreeSans" font-size="10.00">+ SetTargetName()</text>
<text text-anchor="start" x="357.5" y="-741.5" font-family="FreeSans" font-size="10.00">+ SetEnableDebug()</text>
<text text-anchor="start" x="357.5" y="-730.5" font-family="FreeSans" font-size="10.00">+ GetCompilerCombo()</text>
<text text-anchor="start" x="357.5" y="-719.5" font-family="FreeSans" font-size="10.00">+ GetEnableDebug()</text>
<text text-anchor="start" x="357.5" y="-708.5" font-family="FreeSans" font-size="10.00">+ GetTargetName()</text>
<text text-anchor="start" x="357.5" y="-697.5" font-family="FreeSans" font-size="10.00">+ GetOutputDir()</text>
<text text-anchor="start" x="357.5" y="-686.5" font-family="FreeSans" font-size="10.00">+ GetObjectOutputDir()</text>
<text text-anchor="start" x="357.5" y="-675.5" font-family="FreeSans" font-size="10.00">&#45; OntxtNameText()</text>
</a>
</g>
</g>
<!-- Node13&#45;&gt;Node22 -->
<g id="edge10" class="edge"><title>Node13&#45;&gt;Node22</title>
<path fill="none" stroke="midnightblue" d="M167.992,-1049.28C173.409,-1033.78 181.567,-1016.55 193.5,-1004 217.811,-978.429 311.028,-959.415 336.5,-935 341.022,-930.666 345.32,-925.98 349.396,-921.046"/>
<polygon fill="none" stroke="midnightblue" points="164.546,-1048.56 164.816,-1059.16 171.21,-1050.71 164.546,-1048.56"/>
</g>
<!-- Node18 -->
<g id="node6" class="node"><title>Node18</title>
<g id="a_node6"><a xlink:title="STL class. ">
<polygon fill="none" stroke="#bfbfbf" points="252,-470 252,-527 339,-527 339,-470 252,-470"/>
<text text-anchor="middle" x="295.5" y="-515" font-family="FreeSans" font-size="10.00">std::map&lt; K, T &gt;</text>
<polyline fill="none" stroke="#bfbfbf" points="252,-508 339,-508 "/>
<text text-anchor="middle" x="295.5" y="-496" font-family="FreeSans" font-size="10.00"> </text>
<polyline fill="none" stroke="#bfbfbf" points="252,-489 339,-489 "/>
<text text-anchor="middle" x="295.5" y="-477" font-family="FreeSans" font-size="10.00"> </text>
</a>
</g>
</g>
<!-- Node18&#45;&gt;Node10 -->
<g id="edge5" class="edge"><title>Node18&#45;&gt;Node10</title>
<path fill="none" stroke="#404040" d="M286.93,-469.759C277.27,-438.491 261.072,-386.062 246.973,-340.426"/>
<polygon fill="none" stroke="#404040" points="246.887,-340.147 241.294,-335.595 243.345,-328.681 248.938,-333.233 246.887,-340.147"/>
<text text-anchor="middle" x="291" y="-350" font-family="FreeSans" font-size="10.00"> &#45;s_PagesByName</text>
</g>
<!-- Node19 -->
<g id="node7" class="node"><title>Node19</title>
<polygon fill="none" stroke="#bfbfbf" points="299,-773 299,-830 328,-830 328,-773 299,-773"/>
<text text-anchor="middle" x="313.5" y="-818" font-family="FreeSans" font-size="10.00">K</text>
<polyline fill="none" stroke="#bfbfbf" points="299,-811 328,-811 "/>
<text text-anchor="middle" x="313.5" y="-799" font-family="FreeSans" font-size="10.00"> </text>
<polyline fill="none" stroke="#bfbfbf" points="299,-792 328,-792 "/>
<text text-anchor="middle" x="313.5" y="-780" font-family="FreeSans" font-size="10.00"> </text>
</g>
<!-- Node19&#45;&gt;Node18 -->
<g id="edge6" class="edge"><title>Node19&#45;&gt;Node18</title>
<path fill="none" stroke="#404040" d="M311.855,-772.99C308.656,-719.495 301.586,-601.275 297.877,-539.252"/>
<polygon fill="none" stroke="#404040" points="297.877,-539.251 293.526,-533.501 297.161,-527.273 301.512,-533.023 297.877,-539.251"/>
<text text-anchor="middle" x="318.5" y="-642" font-family="FreeSans" font-size="10.00"> +keys</text>
</g>
<!-- Node20 -->
<g id="node8" class="node"><title>Node20</title>
<polygon fill="none" stroke="#bfbfbf" points="228,-773 228,-830 257,-830 257,-773 228,-773"/>
<text text-anchor="middle" x="242.5" y="-818" font-family="FreeSans" font-size="10.00">T</text>
<polyline fill="none" stroke="#bfbfbf" points="228,-811 257,-811 "/>
<text text-anchor="middle" x="242.5" y="-799" font-family="FreeSans" font-size="10.00"> </text>
<polyline fill="none" stroke="#bfbfbf" points="228,-792 257,-792 "/>
<text text-anchor="middle" x="242.5" y="-780" font-family="FreeSans" font-size="10.00"> </text>
</g>
<!-- Node20&#45;&gt;Node18 -->
<g id="edge7" class="edge"><title>Node20&#45;&gt;Node18</title>
<path fill="none" stroke="#404040" d="M242.23,-772.828C242.371,-740.472 244.031,-685.428 252.5,-639 258.819,-604.36 270.945,-566.229 280.713,-538.601"/>
<polygon fill="none" stroke="#404040" points="280.8,-538.36 279.071,-531.359 284.868,-527.071 286.597,-534.071 280.8,-538.36"/>
<text text-anchor="middle" x="276.5" y="-642" font-family="FreeSans" font-size="10.00"> +elements</text>
</g>
<!-- Node21 -->
<g id="node9" class="node"><title>Node21</title>
<g id="a_node9"><a doxygen="/media/alpha/Barracuda/cb_docs/src/wxTagFile.xml:http://docs.wxwidgets.org/3.0/" xlink:href="http://docs.wxwidgets.org/3.0/classwx_string.html" target="_top" xlink:title="{wxString\n|+ npos\l|+ wxString()\l+ wxString()\l+ wxString()\l+ wxString()\l+ wxString()\l+ wxString()\l+ wxString()\l+ wxString()\land 222 more...\l+ Format()\l+ FormatV()\l+ FromCDouble()\l+ FromDouble()\l+ From8BitData()\l+ From8BitData()\l+ FromAscii()\l+ FromAscii()\land 7 more...\l}">
<polygon fill="none" stroke="black" points="0,-376.5 0,-620.5 91,-620.5 91,-376.5 0,-376.5"/>
<text text-anchor="middle" x="45.5" y="-608.5" font-family="FreeSans" font-size="10.00">wxString</text>
<polyline fill="none" stroke="black" points="0,-601.5 91,-601.5 "/>
<text text-anchor="start" x="8" y="-589.5" font-family="FreeSans" font-size="10.00">+ npos</text>
<polyline fill="none" stroke="black" points="0,-582.5 91,-582.5 "/>
<text text-anchor="start" x="8" y="-570.5" font-family="FreeSans" font-size="10.00">+ wxString()</text>
<text text-anchor="start" x="8" y="-559.5" font-family="FreeSans" font-size="10.00">+ wxString()</text>
<text text-anchor="start" x="8" y="-548.5" font-family="FreeSans" font-size="10.00">+ wxString()</text>
<text text-anchor="start" x="8" y="-537.5" font-family="FreeSans" font-size="10.00">+ wxString()</text>
<text text-anchor="start" x="8" y="-526.5" font-family="FreeSans" font-size="10.00">+ wxString()</text>
<text text-anchor="start" x="8" y="-515.5" font-family="FreeSans" font-size="10.00">+ wxString()</text>
<text text-anchor="start" x="8" y="-504.5" font-family="FreeSans" font-size="10.00">+ wxString()</text>
<text text-anchor="start" x="8" y="-493.5" font-family="FreeSans" font-size="10.00">+ wxString()</text>
<text text-anchor="start" x="8" y="-482.5" font-family="FreeSans" font-size="10.00">and 222 more...</text>
<text text-anchor="start" x="8" y="-471.5" font-family="FreeSans" font-size="10.00">+ Format()</text>
<text text-anchor="start" x="8" y="-460.5" font-family="FreeSans" font-size="10.00">+ FormatV()</text>
<text text-anchor="start" x="8" y="-449.5" font-family="FreeSans" font-size="10.00">+ FromCDouble()</text>
<text text-anchor="start" x="8" y="-438.5" font-family="FreeSans" font-size="10.00">+ FromDouble()</text>
<text text-anchor="start" x="8" y="-427.5" font-family="FreeSans" font-size="10.00">+ From8BitData()</text>
<text text-anchor="start" x="8" y="-416.5" font-family="FreeSans" font-size="10.00">+ From8BitData()</text>
<text text-anchor="start" x="8" y="-405.5" font-family="FreeSans" font-size="10.00">+ FromAscii()</text>
<text text-anchor="start" x="8" y="-394.5" font-family="FreeSans" font-size="10.00">+ FromAscii()</text>
<text text-anchor="start" x="8" y="-383.5" font-family="FreeSans" font-size="10.00">and 7 more...</text>
</a>
</g>
</g>
<!-- Node21&#45;&gt;Node10 -->
<g id="edge8" class="edge"><title>Node21&#45;&gt;Node10</title>
<path fill="none" stroke="#404040" d="M91.1159,-390.968C94.1292,-385.816 97.2605,-380.797 100.5,-376 116.607,-352.148 137.425,-328.632 157.134,-308.571"/>
<polygon fill="none" stroke="#404040" points="157.313,-308.392 158.722,-301.32 165.793,-299.902 164.383,-306.974 157.313,-308.392"/>
<text text-anchor="middle" x="154" y="-350" font-family="FreeSans" font-size="10.00"> &#45;m_PageName</text>
</g>
<!-- Node22&#45;&gt;Node9 -->
<g id="edge9" class="edge"><title>Node22&#45;&gt;Node9</title>
<path fill="none" stroke="#404040" d="M391.254,-668.364C372.56,-516.323 342.475,-271.632 327.148,-146.973"/>
<polygon fill="none" stroke="#404040" points="327.132,-146.837 322.429,-141.37 325.667,-134.926 330.37,-140.393 327.132,-146.837"/>
<text text-anchor="middle" x="403" y="-350" font-family="FreeSans" font-size="10.00"> &#45;m_pBuildTargetPanel</text>
</g>
<!-- Node23 -->
<g id="node11" class="node"><title>Node23</title>
<g id="a_node11"><a doxygen="/media/alpha/Barracuda/cb_docs/src/wxTagFile.xml:http://docs.wxwidgets.org/3.0/" xlink:href="http://docs.wxwidgets.org/3.0/classwx_box_sizer.html" target="_top" xlink:title="{wxBoxSizer\n||+ wxBoxSizer()\l+ AddSpacer()\l+ CalcMin()\l+ GetOrientation()\l+ SetOrientation()\l+ RecalcSizes()\l+ wxSizer()\l+ ~wxSizer()\land 77 more...\l}">
<polygon fill="none" stroke="black" points="647.5,-1015.5 647.5,-1160.5 741.5,-1160.5 741.5,-1015.5 647.5,-1015.5"/>
<text text-anchor="middle" x="694.5" y="-1148.5" font-family="FreeSans" font-size="10.00">wxBoxSizer</text>
<polyline fill="none" stroke="black" points="647.5,-1141.5 741.5,-1141.5 "/>
<text text-anchor="middle" x="694.5" y="-1129.5" font-family="FreeSans" font-size="10.00"> </text>
<polyline fill="none" stroke="black" points="647.5,-1122.5 741.5,-1122.5 "/>
<text text-anchor="start" x="655.5" y="-1110.5" font-family="FreeSans" font-size="10.00">+ wxBoxSizer()</text>
<text text-anchor="start" x="655.5" y="-1099.5" font-family="FreeSans" font-size="10.00">+ AddSpacer()</text>
<text text-anchor="start" x="655.5" y="-1088.5" font-family="FreeSans" font-size="10.00">+ CalcMin()</text>
<text text-anchor="start" x="655.5" y="-1077.5" font-family="FreeSans" font-size="10.00">+ GetOrientation()</text>
<text text-anchor="start" x="655.5" y="-1066.5" font-family="FreeSans" font-size="10.00">+ SetOrientation()</text>
<text text-anchor="start" x="655.5" y="-1055.5" font-family="FreeSans" font-size="10.00">+ RecalcSizes()</text>
<text text-anchor="start" x="655.5" y="-1044.5" font-family="FreeSans" font-size="10.00">+ wxSizer()</text>
<text text-anchor="start" x="655.5" y="-1033.5" font-family="FreeSans" font-size="10.00">+ ~wxSizer()</text>
<text text-anchor="start" x="655.5" y="-1022.5" font-family="FreeSans" font-size="10.00">and 77 more...</text>
</a>
</g>
</g>
<!-- Node23&#45;&gt;Node22 -->
<g id="edge11" class="edge"><title>Node23&#45;&gt;Node22</title>
<path fill="none" stroke="#404040" d="M656.966,-1015.27C644.086,-994.02 628.566,-971.509 611.5,-953 571.811,-909.956 518.283,-871.007 476.016,-843.521"/>
<polygon fill="none" stroke="#404040" points="475.901,-843.446 468.691,-843.568 465.805,-836.96 473.015,-836.838 475.901,-843.446"/>
<text text-anchor="middle" x="660" y="-967" font-family="FreeSans" font-size="10.00"> &#45;BoxSizer1</text>
</g>
<!-- Node24 -->
<g id="node12" class="node"><title>Node24</title>
<g id="a_node12"><a doxygen="/media/alpha/Barracuda/cb_docs/src/wxTagFile.xml:http://docs.wxwidgets.org/3.0/" xlink:href="http://docs.wxwidgets.org/3.0/classwx_sizer.html" target="_top" xlink:title="{wxSizer\n||+ CalcMin()\l+ RecalcSizes()\l}">
<polygon fill="none" stroke="red" points="652.5,-1209.5 652.5,-1277.5 736.5,-1277.5 736.5,-1209.5 652.5,-1209.5"/>
<text text-anchor="middle" x="694.5" y="-1265.5" font-family="FreeSans" font-size="10.00">wxSizer</text>
<polyline fill="none" stroke="red" points="652.5,-1258.5 736.5,-1258.5 "/>
<text text-anchor="middle" x="694.5" y="-1246.5" font-family="FreeSans" font-size="10.00"> </text>
<polyline fill="none" stroke="red" points="652.5,-1239.5 736.5,-1239.5 "/>
<text text-anchor="start" x="660.5" y="-1227.5" font-family="FreeSans" font-size="10.00">+ CalcMin()</text>
<text text-anchor="start" x="660.5" y="-1216.5" font-family="FreeSans" font-size="10.00">+ RecalcSizes()</text>
</a>
</g>
</g>
<!-- Node24&#45;&gt;Node23 -->
<g id="edge12" class="edge"><title>Node24&#45;&gt;Node23</title>
<path fill="none" stroke="midnightblue" d="M694.5,-1199.06C694.5,-1187.1 694.5,-1173.79 694.5,-1160.68"/>
<polygon fill="none" stroke="midnightblue" points="691,-1199.19 694.5,-1209.19 698,-1199.19 691,-1199.19"/>
</g>
<!-- Node25 -->
<g id="node13" class="node"><title>Node25</title>
<g id="a_node13"><a doxygen="/media/alpha/Barracuda/cb_docs/src/wxTagFile.xml:http://docs.wxwidgets.org/3.0/" xlink:href="http://docs.wxwidgets.org/3.0/classwx_static_text.html" target="_top" xlink:title="{wxStaticText\n||+ wxStaticText()\l+ wxStaticText()\l+ Create()\l+ IsEllipsized()\l+ Wrap()\l}">
<polygon fill="none" stroke="black" points="364.5,-1037.5 364.5,-1138.5 450.5,-1138.5 450.5,-1037.5 364.5,-1037.5"/>
<text text-anchor="middle" x="407.5" y="-1126.5" font-family="FreeSans" font-size="10.00">wxStaticText</text>
<polyline fill="none" stroke="black" points="364.5,-1119.5 450.5,-1119.5 "/>
<text text-anchor="middle" x="407.5" y="-1107.5" font-family="FreeSans" font-size="10.00"> </text>
<polyline fill="none" stroke="black" points="364.5,-1100.5 450.5,-1100.5 "/>
<text text-anchor="start" x="372.5" y="-1088.5" font-family="FreeSans" font-size="10.00">+ wxStaticText()</text>
<text text-anchor="start" x="372.5" y="-1077.5" font-family="FreeSans" font-size="10.00">+ wxStaticText()</text>
<text text-anchor="start" x="372.5" y="-1066.5" font-family="FreeSans" font-size="10.00">+ Create()</text>
<text text-anchor="start" x="372.5" y="-1055.5" font-family="FreeSans" font-size="10.00">+ IsEllipsized()</text>
<text text-anchor="start" x="372.5" y="-1044.5" font-family="FreeSans" font-size="10.00">+ Wrap()</text>
</a>
</g>
</g>
<!-- Node25&#45;&gt;Node22 -->
<g id="edge13" class="edge"><title>Node25&#45;&gt;Node22</title>
<path fill="none" stroke="#404040" d="M407.5,-1037.44C407.5,-1011.92 407.5,-979.349 407.5,-946.642"/>
<polygon fill="none" stroke="#404040" points="407.5,-946.599 403.5,-940.599 407.5,-934.599 411.5,-940.599 407.5,-946.599"/>
<text text-anchor="middle" x="434.5" y="-972.5" font-family="FreeSans" font-size="10.00"> &#45;lblCompiler</text>
<text text-anchor="middle" x="434.5" y="-961.5" font-family="FreeSans" font-size="10.00">&#45;StaticText3</text>
</g>
<!-- Node26 -->
<g id="node14" class="node"><title>Node26</title>
<g id="a_node14"><a doxygen="/media/alpha/Barracuda/cb_docs/src/wxTagFile.xml:http://docs.wxwidgets.org/3.0/" xlink:href="http://docs.wxwidgets.org/3.0/classwx_control.html" target="_top" xlink:title="{wxControl\n||}">
<polygon fill="none" stroke="red" points="380,-1215 380,-1272 439,-1272 439,-1215 380,-1215"/>
<text text-anchor="middle" x="409.5" y="-1260" font-family="FreeSans" font-size="10.00">wxControl</text>
<polyline fill="none" stroke="red" points="380,-1253 439,-1253 "/>
<text text-anchor="middle" x="409.5" y="-1241" font-family="FreeSans" font-size="10.00"> </text>
<polyline fill="none" stroke="red" points="380,-1234 439,-1234 "/>
<text text-anchor="middle" x="409.5" y="-1222" font-family="FreeSans" font-size="10.00"> </text>
</a>
</g>
</g>
<!-- Node26&#45;&gt;Node25 -->
<g id="edge14" class="edge"><title>Node26&#45;&gt;Node25</title>
<path fill="none" stroke="midnightblue" d="M409.005,-1204.48C408.746,-1184.59 408.425,-1160 408.147,-1138.63"/>
<polygon fill="none" stroke="midnightblue" points="405.508,-1204.75 409.138,-1214.7 412.507,-1204.66 405.508,-1204.75"/>
</g>
<!-- Node27 -->
<g id="node15" class="node"><title>Node27</title>
<g id="a_node15"><a doxygen="/media/alpha/Barracuda/cb_docs/src/wxTagFile.xml:http://docs.wxwidgets.org/3.0/" xlink:href="http://docs.wxwidgets.org/3.0/classwx_text_ctrl.html" target="_top" xlink:title="{wxTextCtrl\n||}">
<polygon fill="none" stroke="black" points="468.5,-1059.5 468.5,-1116.5 530.5,-1116.5 530.5,-1059.5 468.5,-1059.5"/>
<text text-anchor="middle" x="499.5" y="-1104.5" font-family="FreeSans" font-size="10.00">wxTextCtrl</text>
<polyline fill="none" stroke="black" points="468.5,-1097.5 530.5,-1097.5 "/>
<text text-anchor="middle" x="499.5" y="-1085.5" font-family="FreeSans" font-size="10.00"> </text>
<polyline fill="none" stroke="black" points="468.5,-1078.5 530.5,-1078.5 "/>
<text text-anchor="middle" x="499.5" y="-1066.5" font-family="FreeSans" font-size="10.00"> </text>
</a>
</g>
</g>
<!-- Node26&#45;&gt;Node27 -->
<g id="edge16" class="edge"><title>Node26&#45;&gt;Node27</title>
<path fill="none" stroke="midnightblue" d="M436.867,-1206.38C444.574,-1195.57 452.702,-1183.52 459.5,-1172 470.066,-1154.09 480.216,-1132.97 487.647,-1116.51"/>
<polygon fill="none" stroke="midnightblue" points="433.837,-1204.6 430.81,-1214.75 439.508,-1208.7 433.837,-1204.6"/>
</g>
<!-- Node29 -->
<g id="node17" class="node"><title>Node29</title>
<g id="a_node17"><a doxygen="/media/alpha/Barracuda/cb_docs/src/wxTagFile.xml:http://docs.wxwidgets.org/3.0/" xlink:href="http://docs.wxwidgets.org/3.0/classwx_combo_box.html" target="_top" xlink:title="{wxComboBox\n||}">
<polygon fill="none" stroke="black" points="549,-1059.5 549,-1116.5 624,-1116.5 624,-1059.5 549,-1059.5"/>
<text text-anchor="middle" x="586.5" y="-1104.5" font-family="FreeSans" font-size="10.00">wxComboBox</text>
<polyline fill="none" stroke="black" points="549,-1097.5 624,-1097.5 "/>
<text text-anchor="middle" x="586.5" y="-1085.5" font-family="FreeSans" font-size="10.00"> </text>
<polyline fill="none" stroke="black" points="549,-1078.5 624,-1078.5 "/>
<text text-anchor="middle" x="586.5" y="-1066.5" font-family="FreeSans" font-size="10.00"> </text>
</a>
</g>
</g>
<!-- Node26&#45;&gt;Node29 -->
<g id="edge19" class="edge"><title>Node26&#45;&gt;Node29</title>
<path fill="none" stroke="midnightblue" d="M447.659,-1210.76C448.606,-1210.15 449.554,-1209.57 450.5,-1209 487.253,-1186.99 507.43,-1200.4 539.5,-1172 556.36,-1157.07 568.571,-1134.58 576.314,-1116.77"/>
<polygon fill="none" stroke="midnightblue" points="445.463,-1208.02 439.219,-1216.58 449.438,-1213.78 445.463,-1208.02"/>
</g>
<!-- Node32 -->
<g id="node19" class="node"><title>Node32</title>
<g id="a_node19"><a doxygen="/media/alpha/Barracuda/cb_docs/src/wxTagFile.xml:http://docs.wxwidgets.org/3.0/" xlink:href="http://docs.wxwidgets.org/3.0/classwx_check_box.html" target="_top" xlink:title="{wxCheckBox\n||+ wxCheckBox()\l+ wxCheckBox()\l+ ~wxCheckBox()\l+ Create()\l+ GetValue()\l+ Get3StateValue()\l+ Is3State()\l+ Is3rdStateAllowedForUser()\l+ IsChecked()\l+ SetValue()\l+ Set3StateValue()\l}">
<polygon fill="none" stroke="black" points="203,-1004.5 203,-1171.5 346,-1171.5 346,-1004.5 203,-1004.5"/>
<text text-anchor="middle" x="274.5" y="-1159.5" font-family="FreeSans" font-size="10.00">wxCheckBox</text>
<polyline fill="none" stroke="black" points="203,-1152.5 346,-1152.5 "/>
<text text-anchor="middle" x="274.5" y="-1140.5" font-family="FreeSans" font-size="10.00"> </text>
<polyline fill="none" stroke="black" points="203,-1133.5 346,-1133.5 "/>
<text text-anchor="start" x="211" y="-1121.5" font-family="FreeSans" font-size="10.00">+ wxCheckBox()</text>
<text text-anchor="start" x="211" y="-1110.5" font-family="FreeSans" font-size="10.00">+ wxCheckBox()</text>
<text text-anchor="start" x="211" y="-1099.5" font-family="FreeSans" font-size="10.00">+ ~wxCheckBox()</text>
<text text-anchor="start" x="211" y="-1088.5" font-family="FreeSans" font-size="10.00">+ Create()</text>
<text text-anchor="start" x="211" y="-1077.5" font-family="FreeSans" font-size="10.00">+ GetValue()</text>
<text text-anchor="start" x="211" y="-1066.5" font-family="FreeSans" font-size="10.00">+ Get3StateValue()</text>
<text text-anchor="start" x="211" y="-1055.5" font-family="FreeSans" font-size="10.00">+ Is3State()</text>
<text text-anchor="start" x="211" y="-1044.5" font-family="FreeSans" font-size="10.00">+ Is3rdStateAllowedForUser()</text>
<text text-anchor="start" x="211" y="-1033.5" font-family="FreeSans" font-size="10.00">+ IsChecked()</text>
<text text-anchor="start" x="211" y="-1022.5" font-family="FreeSans" font-size="10.00">+ SetValue()</text>
<text text-anchor="start" x="211" y="-1011.5" font-family="FreeSans" font-size="10.00">+ Set3StateValue()</text>
</a>
</g>
</g>
<!-- Node26&#45;&gt;Node32 -->
<g id="edge23" class="edge"><title>Node26&#45;&gt;Node32</title>
<path fill="none" stroke="midnightblue" d="M378.266,-1206.99C368.576,-1195.97 357.469,-1183.34 346.204,-1170.53"/>
<polygon fill="none" stroke="midnightblue" points="375.82,-1209.5 385.053,-1214.7 381.077,-1204.88 375.82,-1209.5"/>
</g>
<!-- Node27&#45;&gt;Node22 -->
<g id="edge15" class="edge"><title>Node27&#45;&gt;Node22</title>
<path fill="none" stroke="#404040" d="M493.482,-1059.27C487.322,-1031.98 477.038,-989.25 465.5,-953 464.783,-950.749 464.051,-948.482 463.305,-946.204"/>
<polygon fill="none" stroke="#404040" points="463.274,-946.112 457.576,-941.692 459.465,-934.733 465.163,-939.153 463.274,-946.112"/>
<text text-anchor="middle" x="499" y="-978" font-family="FreeSans" font-size="10.00"> &#45;txtObjOut</text>
<text text-anchor="middle" x="499" y="-967" font-family="FreeSans" font-size="10.00">&#45;txtName</text>
<text text-anchor="middle" x="499" y="-956" font-family="FreeSans" font-size="10.00">&#45;txtOut</text>
</g>
<!-- Node28 -->
<g id="node16" class="node"><title>Node28</title>
<g id="a_node16"><a doxygen="/media/alpha/Barracuda/cb_docs/src/wxTagFile.xml:http://docs.wxwidgets.org/3.0/" xlink:href="http://docs.wxwidgets.org/3.0/classwx_text_entry.html" target="_top" xlink:title="{wxTextEntry\n||}">
<polygon fill="none" stroke="black" points="459.5,-1215 459.5,-1272 527.5,-1272 527.5,-1215 459.5,-1215"/>
<text text-anchor="middle" x="493.5" y="-1260" font-family="FreeSans" font-size="10.00">wxTextEntry</text>
<polyline fill="none" stroke="black" points="459.5,-1253 527.5,-1253 "/>
<text text-anchor="middle" x="493.5" y="-1241" font-family="FreeSans" font-size="10.00"> </text>
<polyline fill="none" stroke="black" points="459.5,-1234 527.5,-1234 "/>
<text text-anchor="middle" x="493.5" y="-1222" font-family="FreeSans" font-size="10.00"> </text>
</a>
</g>
</g>
<!-- Node28&#45;&gt;Node27 -->
<g id="edge17" class="edge"><title>Node28&#45;&gt;Node27</title>
<path fill="none" stroke="midnightblue" d="M494.991,-1204.36C496.056,-1177.11 497.464,-1141.09 498.422,-1116.59"/>
<polygon fill="none" stroke="midnightblue" points="491.48,-1204.57 494.587,-1214.7 498.475,-1204.85 491.48,-1204.57"/>
</g>
<!-- Node28&#45;&gt;Node29 -->
<g id="edge21" class="edge"><title>Node28&#45;&gt;Node29</title>
<path fill="none" stroke="midnightblue" d="M517.64,-1206.46C524.82,-1195.48 532.606,-1183.33 539.5,-1172 550.605,-1153.75 562.453,-1132.82 571.475,-1116.54"/>
<polygon fill="none" stroke="midnightblue" points="514.614,-1204.69 512.04,-1214.96 520.462,-1208.54 514.614,-1204.69"/>
</g>
<!-- Node29&#45;&gt;Node22 -->
<g id="edge18" class="edge"><title>Node29&#45;&gt;Node22</title>
<path fill="none" stroke="#404040" d="M576.435,-1059.31C565.795,-1031.5 547.643,-987.874 526.5,-953 511.019,-927.465 491.787,-901.358 473.33,-878.211"/>
<polygon fill="none" stroke="#404040" points="473.291,-878.162 466.41,-876.003 465.757,-868.821 472.637,-870.98 473.291,-878.162"/>
<text text-anchor="middle" x="576" y="-967" font-family="FreeSans" font-size="10.00"> &#45;cmbCompiler</text>
</g>
<!-- Node30 -->
<g id="node18" class="node"><title>Node30</title>
<g id="a_node18"><a doxygen="/media/alpha/Barracuda/cb_docs/src/wxTagFile.xml:http://docs.wxwidgets.org/3.0/" xlink:href="http://docs.wxwidgets.org/3.0/classwx_item_container.html" target="_top" xlink:title="{wxItemContainer\n||}">
<polygon fill="none" stroke="red" points="546,-1215 546,-1272 635,-1272 635,-1215 546,-1215"/>
<text text-anchor="middle" x="590.5" y="-1260" font-family="FreeSans" font-size="10.00">wxItemContainer</text>
<polyline fill="none" stroke="red" points="546,-1253 635,-1253 "/>
<text text-anchor="middle" x="590.5" y="-1241" font-family="FreeSans" font-size="10.00"> </text>
<polyline fill="none" stroke="red" points="546,-1234 635,-1234 "/>
<text text-anchor="middle" x="590.5" y="-1222" font-family="FreeSans" font-size="10.00"> </text>
</a>
</g>
</g>
<!-- Node30&#45;&gt;Node29 -->
<g id="edge20" class="edge"><title>Node30&#45;&gt;Node29</title>
<path fill="none" stroke="midnightblue" d="M589.506,-1204.36C588.796,-1177.11 587.857,-1141.09 587.219,-1116.59"/>
<polygon fill="none" stroke="midnightblue" points="586.016,-1204.8 589.776,-1214.7 593.014,-1204.61 586.016,-1204.8"/>
</g>
<!-- Node32&#45;&gt;Node22 -->
<g id="edge22" class="edge"><title>Node32&#45;&gt;Node22</title>
<path fill="none" stroke="#404040" d="M301.973,-1004.22C308.638,-986.971 316.249,-969.14 324.5,-953 328.876,-944.439 331.557,-943.247 336.5,-935 338.781,-931.195 341.072,-927.31 343.362,-923.374"/>
<polygon fill="none" stroke="#404040" points="343.43,-923.256 342.953,-916.061 349.412,-912.854 349.888,-920.049 343.43,-923.256"/>
<text text-anchor="middle" x="364" y="-967" font-family="FreeSans" font-size="10.00"> &#45;chkEnableDebug</text>
</g>
</g>
</svg>
