<?xml version="1.0" encoding="UTF-8" standalone="no"?>
<!DOCTYPE svg PUBLIC "-//W3C//DTD SVG 1.1//EN"
 "http://www.w3.org/Graphics/SVG/1.1/DTD/svg11.dtd">
<!-- Generated by graphviz version 2.38.0 (20140413.2041)
 -->
<!-- Title: cbExecuteProcess Pages: 1 -->
<svg width="118pt" height="259pt"
 viewBox="0.00 0.00 118.00 259.00" xmlns="http://www.w3.org/2000/svg" xmlns:xlink="http://www.w3.org/1999/xlink">
<g id="graph0" class="graph" transform="scale(1 1) rotate(0) translate(4 255)">
<title>cbExecuteProcess</title>
<!-- Node1 -->
<g id="node1" class="node"><title>Node1</title>
<polygon fill="#bfbfbf" stroke="black" points="0,-0.5 0,-156.5 110,-156.5 110,-0.5 0,-0.5"/>
<text text-anchor="middle" x="55" y="-144.5" font-family="FreeSans" font-size="10.00">cbExecuteProcess</text>
<polyline fill="none" stroke="black" points="0,-137.5 110,-137.5 "/>
<text text-anchor="start" x="8" y="-125.5" font-family="FreeSans" font-size="10.00">&#45; stream_stdout</text>
<text text-anchor="start" x="8" y="-114.5" font-family="FreeSans" font-size="10.00">&#45; stream_stderr</text>
<text text-anchor="start" x="8" y="-103.5" font-family="FreeSans" font-size="10.00">&#45; std_out</text>
<text text-anchor="start" x="8" y="-92.5" font-family="FreeSans" font-size="10.00">&#45; std_err</text>
<text text-anchor="start" x="8" y="-81.5" font-family="FreeSans" font-size="10.00">&#45; running</text>
<text text-anchor="start" x="8" y="-70.5" font-family="FreeSans" font-size="10.00">&#45; exitCode</text>
<polyline fill="none" stroke="black" points="0,-63.5 110,-63.5 "/>
<text text-anchor="start" x="8" y="-51.5" font-family="FreeSans" font-size="10.00">+ cbExecuteProcess()</text>
<text text-anchor="start" x="8" y="-40.5" font-family="FreeSans" font-size="10.00">+ FlushPipe()</text>
<text text-anchor="start" x="8" y="-29.5" font-family="FreeSans" font-size="10.00">+ OnTerminate()</text>
<text text-anchor="start" x="8" y="-18.5" font-family="FreeSans" font-size="10.00">+ Running()</text>
<text text-anchor="start" x="8" y="-7.5" font-family="FreeSans" font-size="10.00">+ ExitCode()</text>
</g>
<!-- Node2 -->
<g id="node2" class="node"><title>Node2</title>
<polygon fill="none" stroke="#bfbfbf" points="24,-193.5 24,-250.5 86,-250.5 86,-193.5 24,-193.5"/>
<text text-anchor="middle" x="55" y="-238.5" font-family="FreeSans" font-size="10.00">wxProcess</text>
<polyline fill="none" stroke="#bfbfbf" points="24,-231.5 86,-231.5 "/>
<text text-anchor="middle" x="55" y="-219.5" font-family="FreeSans" font-size="10.00"> </text>
<polyline fill="none" stroke="#bfbfbf" points="24,-212.5 86,-212.5 "/>
<text text-anchor="middle" x="55" y="-200.5" font-family="FreeSans" font-size="10.00"> </text>
</g>
<!-- Node2&#45;&gt;Node1 -->
<g id="edge1" class="edge"><title>Node2&#45;&gt;Node1</title>
<path fill="none" stroke="midnightblue" d="M55,-183.34C55,-175.044 55,-165.964 55,-156.736"/>
<polygon fill="none" stroke="midnightblue" points="51.5001,-183.381 55,-193.381 58.5001,-183.382 51.5001,-183.381"/>
</g>
</g>
</svg>
