<?xml version="1.0" encoding="UTF-8" standalone="no"?>
<!DOCTYPE svg PUBLIC "-//W3C//DTD SVG 1.1//EN"
 "http://www.w3.org/Graphics/SVG/1.1/DTD/svg11.dtd">
<!-- Generated by graphviz version 2.40.1 (20161225.0304)
 -->
<!-- Title: cbSmartIndentPlugin Pages: 1 -->
<svg width="166pt" height="689pt"
 viewBox="0.00 0.00 166.00 689.00" xmlns="http://www.w3.org/2000/svg" xmlns:xlink="http://www.w3.org/1999/xlink">
<g id="graph0" class="graph" transform="scale(1 1) rotate(0) translate(4 685)">
<title>cbSmartIndentPlugin</title>
<!-- Node5 -->
<g id="node1" class="node">
<title>Node5</title>
<polygon fill="#bfbfbf" stroke="#000000" points="1,-.5 1,-244.5 157,-244.5 157,-.5 1,-.5"/>
<text text-anchor="middle" x="79" y="-232.5" font-family="FreeSans" font-size="10.00" fill="#000000">cbSmartIndentPlugin</text>
<polyline fill="none" stroke="#000000" points="1,-225.5 157,-225.5 "/>
<text text-anchor="start" x="9" y="-213.5" font-family="FreeSans" font-size="10.00" fill="#000000">&#45; m_FunctorId</text>
<polyline fill="none" stroke="#000000" points="1,-206.5 157,-206.5 "/>
<text text-anchor="start" x="9" y="-194.5" font-family="FreeSans" font-size="10.00" fill="#000000">+ cbSmartIndentPlugin()</text>
<text text-anchor="start" x="9" y="-183.5" font-family="FreeSans" font-size="10.00" fill="#000000">+ OnEditorHook()</text>
<text text-anchor="start" x="9" y="-172.5" font-family="FreeSans" font-size="10.00" fill="#000000">+ OnCCDone()</text>
<text text-anchor="start" x="9" y="-161.5" font-family="FreeSans" font-size="10.00" fill="#000000"># OnAttach()</text>
<text text-anchor="start" x="9" y="-150.5" font-family="FreeSans" font-size="10.00" fill="#000000"># OnRelease()</text>
<text text-anchor="start" x="9" y="-139.5" font-family="FreeSans" font-size="10.00" fill="#000000"># GetLastNonCommentWord()</text>
<text text-anchor="start" x="9" y="-128.5" font-family="FreeSans" font-size="10.00" fill="#000000"># GetLastNonWhitespaceChars()</text>
<text text-anchor="start" x="9" y="-117.5" font-family="FreeSans" font-size="10.00" fill="#000000"># GetLastNonWhitespaceChar()</text>
<text text-anchor="start" x="9" y="-106.5" font-family="FreeSans" font-size="10.00" fill="#000000"># GetNextNonWhitespaceChar</text>
<text text-anchor="start" x="9" y="-95.5" font-family="FreeSans" font-size="10.00" fill="#000000">OnLine()</text>
<text text-anchor="start" x="9" y="-84.5" font-family="FreeSans" font-size="10.00" fill="#000000"># FindBlockStart()</text>
<text text-anchor="start" x="9" y="-73.5" font-family="FreeSans" font-size="10.00" fill="#000000"># FindBlockStart()</text>
<text text-anchor="start" x="9" y="-62.5" font-family="FreeSans" font-size="10.00" fill="#000000">and 10 more...</text>
<text text-anchor="start" x="9" y="-51.5" font-family="FreeSans" font-size="10.00" fill="#000000">&#45; BuildMenu()</text>
<text text-anchor="start" x="9" y="-40.5" font-family="FreeSans" font-size="10.00" fill="#000000">&#45; RemoveMenu()</text>
<text text-anchor="start" x="9" y="-29.5" font-family="FreeSans" font-size="10.00" fill="#000000">&#45; BuildModuleMenu()</text>
<text text-anchor="start" x="9" y="-18.5" font-family="FreeSans" font-size="10.00" fill="#000000">&#45; BuildToolBar()</text>
<text text-anchor="start" x="9" y="-7.5" font-family="FreeSans" font-size="10.00" fill="#000000">&#45; RemoveToolBar()</text>
</g>
<!-- Node6 -->
<g id="node2" class="node">
<title>Node6</title>
<g id="a_node2"><a xlink:href="classcbPlugin" target="_top" xlink:title="Base class for plugins. ">
<polygon fill="none" stroke="#000000" points="0,-281.5 0,-492.5 158,-492.5 158,-281.5 0,-281.5"/>
<text text-anchor="middle" x="79" y="-480.5" font-family="FreeSans" font-size="10.00" fill="#000000">cbPlugin</text>
<polyline fill="none" stroke="#000000" points="0,-473.5 158,-473.5 "/>
<text text-anchor="start" x="8" y="-461.5" font-family="FreeSans" font-size="10.00" fill="#000000"># m_Type</text>
<text text-anchor="start" x="8" y="-450.5" font-family="FreeSans" font-size="10.00" fill="#000000"># m_IsAttached</text>
<polyline fill="none" stroke="#000000" points="0,-443.5 158,-443.5 "/>
<text text-anchor="start" x="8" y="-431.5" font-family="FreeSans" font-size="10.00" fill="#000000">+ cbPlugin()</text>
<text text-anchor="start" x="8" y="-420.5" font-family="FreeSans" font-size="10.00" fill="#000000">+ ~cbPlugin()</text>
<text text-anchor="start" x="8" y="-409.5" font-family="FreeSans" font-size="10.00" fill="#000000">+ GetType()</text>
<text text-anchor="start" x="8" y="-398.5" font-family="FreeSans" font-size="10.00" fill="#000000">+ GetConfigurationPriority()</text>
<text text-anchor="start" x="8" y="-387.5" font-family="FreeSans" font-size="10.00" fill="#000000">+ GetConfigurationGroup()</text>
<text text-anchor="start" x="8" y="-376.5" font-family="FreeSans" font-size="10.00" fill="#000000">+ GetConfigurationPanel()</text>
<text text-anchor="start" x="8" y="-365.5" font-family="FreeSans" font-size="10.00" fill="#000000">+ GetProjectConfigurationPanel()</text>
<text text-anchor="start" x="8" y="-354.5" font-family="FreeSans" font-size="10.00" fill="#000000">+ BuildMenu()</text>
<text text-anchor="start" x="8" y="-343.5" font-family="FreeSans" font-size="10.00" fill="#000000">and 6 more...</text>
<text text-anchor="start" x="8" y="-332.5" font-family="FreeSans" font-size="10.00" fill="#000000"># OnAttach()</text>
<text text-anchor="start" x="8" y="-321.5" font-family="FreeSans" font-size="10.00" fill="#000000"># OnRelease()</text>
<text text-anchor="start" x="8" y="-310.5" font-family="FreeSans" font-size="10.00" fill="#000000"># NotImplemented()</text>
<text text-anchor="start" x="8" y="-299.5" font-family="FreeSans" font-size="10.00" fill="#000000">&#45; Attach()</text>
<text text-anchor="start" x="8" y="-288.5" font-family="FreeSans" font-size="10.00" fill="#000000">&#45; Release()</text>
</a>
</g>
</g>
<!-- Node6&#45;&gt;Node5 -->
<g id="edge1" class="edge">
<title>Node6&#45;&gt;Node5</title>
<path fill="none" stroke="#191970" d="M79,-271.06C79,-262.2718 79,-253.386 79,-244.5611"/>
<polygon fill="none" stroke="#191970" points="75.5001,-271.3223 79,-281.3223 82.5001,-271.3223 75.5001,-271.3223"/>
</g>
<!-- Node7 -->
<g id="node3" class="node">
<title>Node7</title>
<g id="a_node3"><a doxygen="/media/alpha/Barracuda/cb_docs/src/wxTagFile.xml:http://docs.wxwidgets.org/3.0/" xlink:href="http://docs.wxwidgets.org/3.0/classwx_evt_handler.html" target="_top" xlink:title="{wxEvtHandler\n||}">
<polygon fill="none" stroke="#000000" points="42,-529.5 42,-586.5 116,-586.5 116,-529.5 42,-529.5"/>
<text text-anchor="middle" x="79" y="-574.5" font-family="FreeSans" font-size="10.00" fill="#000000">wxEvtHandler</text>
<polyline fill="none" stroke="#000000" points="42,-567.5 116,-567.5 "/>
<text text-anchor="middle" x="79" y="-555.5" font-family="FreeSans" font-size="10.00" fill="#000000"> </text>
<polyline fill="none" stroke="#000000" points="42,-548.5 116,-548.5 "/>
<text text-anchor="middle" x="79" y="-536.5" font-family="FreeSans" font-size="10.00" fill="#000000"> </text>
</a>
</g>
</g>
<!-- Node7&#45;&gt;Node6 -->
<g id="edge2" class="edge">
<title>Node7&#45;&gt;Node6</title>
<path fill="none" stroke="#191970" d="M79,-519.1825C79,-511.0392 79,-502.0811 79,-492.7834"/>
<polygon fill="none" stroke="#191970" points="75.5001,-519.3784 79,-529.3784 82.5001,-519.3785 75.5001,-519.3784"/>
</g>
<!-- Node8 -->
<g id="node4" class="node">
<title>Node8</title>
<g id="a_node4"><a doxygen="/media/alpha/Barracuda/cb_docs/src/wxTagFile.xml:http://docs.wxwidgets.org/3.0/" xlink:href="http://docs.wxwidgets.org/3.0/classwx_object.html" target="_top" xlink:title="{wxObject\n||}">
<polygon fill="none" stroke="#000000" points="10,-623.5 10,-680.5 66,-680.5 66,-623.5 10,-623.5"/>
<text text-anchor="middle" x="38" y="-668.5" font-family="FreeSans" font-size="10.00" fill="#000000">wxObject</text>
<polyline fill="none" stroke="#000000" points="10,-661.5 66,-661.5 "/>
<text text-anchor="middle" x="38" y="-649.5" font-family="FreeSans" font-size="10.00" fill="#000000"> </text>
<polyline fill="none" stroke="#000000" points="10,-642.5 66,-642.5 "/>
<text text-anchor="middle" x="38" y="-630.5" font-family="FreeSans" font-size="10.00" fill="#000000"> </text>
</a>
</g>
</g>
<!-- Node8&#45;&gt;Node7 -->
<g id="edge3" class="edge">
<title>Node8&#45;&gt;Node7</title>
<path fill="none" stroke="#191970" d="M54.5864,-613.9726C58.5818,-604.8125 62.7831,-595.1802 66.5526,-586.538"/>
<polygon fill="none" stroke="#191970" points="51.314,-612.7208 50.5241,-623.2861 57.7303,-615.5194 51.314,-612.7208"/>
</g>
<!-- Node9 -->
<g id="node5" class="node">
<title>Node9</title>
<g id="a_node5"><a doxygen="/media/alpha/Barracuda/cb_docs/src/wxTagFile.xml:http://docs.wxwidgets.org/3.0/" xlink:href="http://docs.wxwidgets.org/3.0/classwx_trackable.html" target="_top" xlink:title="{wxTrackable\n||}">
<polygon fill="none" stroke="#000000" points="84.5,-623.5 84.5,-680.5 155.5,-680.5 155.5,-623.5 84.5,-623.5"/>
<text text-anchor="middle" x="120" y="-668.5" font-family="FreeSans" font-size="10.00" fill="#000000">wxTrackable</text>
<polyline fill="none" stroke="#000000" points="84.5,-661.5 155.5,-661.5 "/>
<text text-anchor="middle" x="120" y="-649.5" font-family="FreeSans" font-size="10.00" fill="#000000"> </text>
<polyline fill="none" stroke="#000000" points="84.5,-642.5 155.5,-642.5 "/>
<text text-anchor="middle" x="120" y="-630.5" font-family="FreeSans" font-size="10.00" fill="#000000"> </text>
</a>
</g>
</g>
<!-- Node9&#45;&gt;Node7 -->
<g id="edge4" class="edge">
<title>Node9&#45;&gt;Node7</title>
<path fill="none" stroke="#191970" d="M103.4136,-613.9726C99.4182,-604.8125 95.2169,-595.1802 91.4474,-586.538"/>
<polygon fill="none" stroke="#191970" points="100.2697,-615.5194 107.4759,-623.2861 106.686,-612.7208 100.2697,-615.5194"/>
</g>
</g>
</svg>
