<?xml version="1.0" encoding="UTF-8" standalone="no"?>
<!DOCTYPE svg PUBLIC "-//W3C//DTD SVG 1.1//EN"
 "http://www.w3.org/Graphics/SVG/1.1/DTD/svg11.dtd">
<!-- Generated by graphviz version 2.38.0 (20140413.2041)
 -->
<!-- Title: EditorConfigurationDlg Pages: 1 -->
<svg width="160pt" height="590pt"
 viewBox="0.00 0.00 160.00 590.00" xmlns="http://www.w3.org/2000/svg" xmlns:xlink="http://www.w3.org/1999/xlink">
<g id="graph0" class="graph" transform="scale(1 1) rotate(0) translate(4 586)">
<title>EditorConfigurationDlg</title>
<!-- Node0 -->
<g id="node1" class="node"><title>Node0</title>
<polygon fill="#bfbfbf" stroke="black" points="0,-0.5 0,-288.5 152,-288.5 152,-0.5 0,-0.5"/>
<text text-anchor="middle" x="76" y="-276.5" font-family="FreeSans" font-size="10.00">EditorConfigurationDlg</text>
<polyline fill="none" stroke="black" points="0,-269.5 152,-269.5 "/>
<text text-anchor="start" x="8" y="-257.5" font-family="FreeSans" font-size="10.00">&#45; m_TextColourControl</text>
<text text-anchor="start" x="8" y="-246.5" font-family="FreeSans" font-size="10.00">&#45; m_Theme</text>
<text text-anchor="start" x="8" y="-235.5" font-family="FreeSans" font-size="10.00">&#45; m_Lang</text>
<text text-anchor="start" x="8" y="-224.5" font-family="FreeSans" font-size="10.00">&#45; m_DefCodeFileType</text>
<text text-anchor="start" x="8" y="-213.5" font-family="FreeSans" font-size="10.00">&#45; m_DefaultCode</text>
<text text-anchor="start" x="8" y="-202.5" font-family="FreeSans" font-size="10.00">&#45; m_ThemeModified</text>
<text text-anchor="start" x="8" y="-191.5" font-family="FreeSans" font-size="10.00">&#45; m_PluginPanels</text>
<text text-anchor="start" x="8" y="-180.5" font-family="FreeSans" font-size="10.00">&#45; m_FontString</text>
<text text-anchor="start" x="8" y="-169.5" font-family="FreeSans" font-size="10.00">&#45; m_EnableChangebar</text>
<text text-anchor="start" x="8" y="-158.5" font-family="FreeSans" font-size="10.00">&#45; m_EnableScrollWidthTracking</text>
<text text-anchor="start" x="8" y="-147.5" font-family="FreeSans" font-size="10.00">&#45; m_MenuIDToLanguageOption</text>
<text text-anchor="start" x="8" y="-136.5" font-family="FreeSans" font-size="10.00">&#45; m_pImageList</text>
<polyline fill="none" stroke="black" points="0,-129.5 152,-129.5 "/>
<text text-anchor="start" x="8" y="-117.5" font-family="FreeSans" font-size="10.00">+ EditorConfigurationDlg()</text>
<text text-anchor="start" x="8" y="-106.5" font-family="FreeSans" font-size="10.00">+ ~EditorConfigurationDlg()</text>
<text text-anchor="start" x="8" y="-95.5" font-family="FreeSans" font-size="10.00">&#45; OnChooseFont()</text>
<text text-anchor="start" x="8" y="-84.5" font-family="FreeSans" font-size="10.00">&#45; OnChooseColour()</text>
<text text-anchor="start" x="8" y="-73.5" font-family="FreeSans" font-size="10.00">&#45; OnSetDefaultColour()</text>
<text text-anchor="start" x="8" y="-62.5" font-family="FreeSans" font-size="10.00">&#45; OnBoldItalicUline()</text>
<text text-anchor="start" x="8" y="-51.5" font-family="FreeSans" font-size="10.00">&#45; OnColourTheme()</text>
<text text-anchor="start" x="8" y="-40.5" font-family="FreeSans" font-size="10.00">&#45; OnAddColourTheme()</text>
<text text-anchor="start" x="8" y="-29.5" font-family="FreeSans" font-size="10.00">&#45; OnDeleteColourTheme()</text>
<text text-anchor="start" x="8" y="-18.5" font-family="FreeSans" font-size="10.00">&#45; OnRenameColourTheme()</text>
<text text-anchor="start" x="8" y="-7.5" font-family="FreeSans" font-size="10.00">and 29 more...</text>
</g>
<!-- Node1 -->
<g id="node2" class="node"><title>Node1</title>
<g id="a_node2"><a xlink:href="classwxScrollingDialog" target="_top" xlink:title="{wxScrollingDialog\n||+ wxScrollingDialog()\l+ wxScrollingDialog()\l}">
<polygon fill="none" stroke="black" points="22.5,-325.5 22.5,-393.5 129.5,-393.5 129.5,-325.5 22.5,-325.5"/>
<text text-anchor="middle" x="76" y="-381.5" font-family="FreeSans" font-size="10.00">wxScrollingDialog</text>
<polyline fill="none" stroke="black" points="22.5,-374.5 129.5,-374.5 "/>
<text text-anchor="middle" x="76" y="-362.5" font-family="FreeSans" font-size="10.00"> </text>
<polyline fill="none" stroke="black" points="22.5,-355.5 129.5,-355.5 "/>
<text text-anchor="start" x="30.5" y="-343.5" font-family="FreeSans" font-size="10.00">+ wxScrollingDialog()</text>
<text text-anchor="start" x="30.5" y="-332.5" font-family="FreeSans" font-size="10.00">+ wxScrollingDialog()</text>
</a>
</g>
</g>
<!-- Node1&#45;&gt;Node0 -->
<g id="edge1" class="edge"><title>Node1&#45;&gt;Node0</title>
<path fill="none" stroke="midnightblue" d="M76,-314.988C76,-306.848 76,-297.942 76,-288.608"/>
<polygon fill="none" stroke="midnightblue" points="72.5001,-315.219 76,-325.219 79.5001,-315.219 72.5001,-315.219"/>
</g>
<!-- Node2 -->
<g id="node3" class="node"><title>Node2</title>
<g id="a_node3"><a doxygen="/media/alpha/Barracuda/cb_docs/src/wxTagFile.xml:http://docs.wxwidgets.org/3.0/" xlink:href="http://docs.wxwidgets.org/3.0/classwx_dialog.html" target="_top" xlink:title="{wxDialog\n||+ ShowModal()\l}">
<polygon fill="none" stroke="black" points="35.5,-430.5 35.5,-487.5 116.5,-487.5 116.5,-430.5 35.5,-430.5"/>
<text text-anchor="middle" x="76" y="-475.5" font-family="FreeSans" font-size="10.00">wxDialog</text>
<polyline fill="none" stroke="black" points="35.5,-468.5 116.5,-468.5 "/>
<text text-anchor="middle" x="76" y="-456.5" font-family="FreeSans" font-size="10.00"> </text>
<polyline fill="none" stroke="black" points="35.5,-449.5 116.5,-449.5 "/>
<text text-anchor="start" x="43.5" y="-437.5" font-family="FreeSans" font-size="10.00">+ ShowModal()</text>
</a>
</g>
</g>
<!-- Node2&#45;&gt;Node1 -->
<g id="edge2" class="edge"><title>Node2&#45;&gt;Node1</title>
<path fill="none" stroke="midnightblue" d="M76,-420.063C76,-411.393 76,-402.243 76,-393.786"/>
<polygon fill="none" stroke="midnightblue" points="72.5001,-420.321 76,-430.321 79.5001,-420.321 72.5001,-420.321"/>
</g>
<!-- Node3 -->
<g id="node4" class="node"><title>Node3</title>
<g id="a_node4"><a doxygen="/media/alpha/Barracuda/cb_docs/src/wxTagFile.xml:http://docs.wxwidgets.org/3.0/" xlink:href="http://docs.wxwidgets.org/3.0/classwx_top_level_window.html" target="_top" xlink:title="{wxTopLevelWindow\n||}">
<polygon fill="none" stroke="red" points="25.5,-524.5 25.5,-581.5 126.5,-581.5 126.5,-524.5 25.5,-524.5"/>
<text text-anchor="middle" x="76" y="-569.5" font-family="FreeSans" font-size="10.00">wxTopLevelWindow</text>
<polyline fill="none" stroke="red" points="25.5,-562.5 126.5,-562.5 "/>
<text text-anchor="middle" x="76" y="-550.5" font-family="FreeSans" font-size="10.00"> </text>
<polyline fill="none" stroke="red" points="25.5,-543.5 126.5,-543.5 "/>
<text text-anchor="middle" x="76" y="-531.5" font-family="FreeSans" font-size="10.00"> </text>
</a>
</g>
</g>
<!-- Node3&#45;&gt;Node2 -->
<g id="edge3" class="edge"><title>Node3&#45;&gt;Node2</title>
<path fill="none" stroke="midnightblue" d="M76,-514.209C76,-505.293 76,-495.951 76,-487.584"/>
<polygon fill="none" stroke="midnightblue" points="72.5001,-514.397 76,-524.397 79.5001,-514.397 72.5001,-514.397"/>
</g>
</g>
</svg>
