<?xml version="1.0" encoding="UTF-8" standalone="no"?>
<!DOCTYPE svg PUBLIC "-//W3C//DTD SVG 1.1//EN"
 "http://www.w3.org/Graphics/SVG/1.1/DTD/svg11.dtd">
<!-- Generated by graphviz version 2.38.0 (20140413.2041)
 -->
<!-- Title: cbDebuggerPlugin Pages: 1 -->
<svg width="211pt" height="1120pt"
 viewBox="0.00 0.00 210.50 1120.00" xmlns="http://www.w3.org/2000/svg" xmlns:xlink="http://www.w3.org/1999/xlink">
<g id="graph0" class="graph" transform="scale(1 1) rotate(0) translate(4 1116)">
<title>cbDebuggerPlugin</title>
<polygon fill="white" stroke="none" points="-4,4 -4,-1116 206.5,-1116 206.5,4 -4,4"/>
<!-- Node1 -->
<g id="node1" class="node"><title>Node1</title>
<polygon fill="#bfbfbf" stroke="black" points="16.5,-0.5 16.5,-497.5 173.5,-497.5 173.5,-0.5 16.5,-0.5"/>
<text text-anchor="middle" x="95" y="-485.5" font-family="FreeSans" font-size="10.00">cbDebuggerPlugin</text>
<polyline fill="none" stroke="black" points="16.5,-478.5 173.5,-478.5 "/>
<text text-anchor="start" x="24.5" y="-466.5" font-family="FreeSans" font-size="10.00">&#45; m_toolbar</text>
<text text-anchor="start" x="24.5" y="-455.5" font-family="FreeSans" font-size="10.00">&#45; m_PreviousLayout</text>
<text text-anchor="start" x="24.5" y="-444.5" font-family="FreeSans" font-size="10.00">&#45; m_WaitingCompilerToFinish</text>
<text text-anchor="start" x="24.5" y="-433.5" font-family="FreeSans" font-size="10.00">&#45; m_EditorHookId</text>
<text text-anchor="start" x="24.5" y="-422.5" font-family="FreeSans" font-size="10.00">&#45; m_StartType</text>
<text text-anchor="start" x="24.5" y="-411.5" font-family="FreeSans" font-size="10.00">&#45; m_DragInProgress</text>
<text text-anchor="start" x="24.5" y="-400.5" font-family="FreeSans" font-size="10.00">&#45; m_ActiveConfig</text>
<text text-anchor="start" x="24.5" y="-389.5" font-family="FreeSans" font-size="10.00">&#45; m_LogPageIndex</text>
<text text-anchor="start" x="24.5" y="-378.5" font-family="FreeSans" font-size="10.00">&#45; m_lastLineWasNormal</text>
<text text-anchor="start" x="24.5" y="-367.5" font-family="FreeSans" font-size="10.00">&#45; m_guiName</text>
<text text-anchor="start" x="24.5" y="-356.5" font-family="FreeSans" font-size="10.00">&#45; m_settingsName</text>
<polyline fill="none" stroke="black" points="16.5,-349.5 173.5,-349.5 "/>
<text text-anchor="start" x="24.5" y="-337.5" font-family="FreeSans" font-size="10.00">+ cbDebuggerPlugin()</text>
<text text-anchor="start" x="24.5" y="-326.5" font-family="FreeSans" font-size="10.00">+ OnAttach()</text>
<text text-anchor="start" x="24.5" y="-315.5" font-family="FreeSans" font-size="10.00">+ OnRelease()</text>
<text text-anchor="start" x="24.5" y="-304.5" font-family="FreeSans" font-size="10.00">+ BuildMenu()</text>
<text text-anchor="start" x="24.5" y="-293.5" font-family="FreeSans" font-size="10.00">+ BuildModuleMenu()</text>
<text text-anchor="start" x="24.5" y="-282.5" font-family="FreeSans" font-size="10.00">+ BuildToolBar()</text>
<text text-anchor="start" x="24.5" y="-271.5" font-family="FreeSans" font-size="10.00">+ EditorLinesAddedOrRemoved()</text>
<text text-anchor="start" x="24.5" y="-260.5" font-family="FreeSans" font-size="10.00">+ OnAttachReal()</text>
<text text-anchor="start" x="24.5" y="-249.5" font-family="FreeSans" font-size="10.00">+ OnReleaseReal()</text>
<text text-anchor="start" x="24.5" y="-238.5" font-family="FreeSans" font-size="10.00">+ SetupToolsMenu()</text>
<text text-anchor="start" x="24.5" y="-227.5" font-family="FreeSans" font-size="10.00">and 69 more...</text>
<text text-anchor="start" x="24.5" y="-216.5" font-family="FreeSans" font-size="10.00"># ConvertDirectory()</text>
<text text-anchor="start" x="24.5" y="-205.5" font-family="FreeSans" font-size="10.00"># GetProject()</text>
<text text-anchor="start" x="24.5" y="-194.5" font-family="FreeSans" font-size="10.00"># ResetProject()</text>
<text text-anchor="start" x="24.5" y="-183.5" font-family="FreeSans" font-size="10.00"># CleanupWhenProjectClosed()</text>
<text text-anchor="start" x="24.5" y="-172.5" font-family="FreeSans" font-size="10.00"># CompilerFinished()</text>
<text text-anchor="start" x="24.5" y="-161.5" font-family="FreeSans" font-size="10.00"># SwitchToDebuggingLayout()</text>
<text text-anchor="start" x="24.5" y="-150.5" font-family="FreeSans" font-size="10.00"># SwitchToPreviousLayout()</text>
<text text-anchor="start" x="24.5" y="-139.5" font-family="FreeSans" font-size="10.00"># GetDebuggee()</text>
<text text-anchor="start" x="24.5" y="-128.5" font-family="FreeSans" font-size="10.00"># EnsureBuildUpToDate()</text>
<text text-anchor="start" x="24.5" y="-117.5" font-family="FreeSans" font-size="10.00"># WaitingCompilerToFinish()</text>
<text text-anchor="start" x="24.5" y="-106.5" font-family="FreeSans" font-size="10.00"># RunNixConsole()</text>
<text text-anchor="start" x="24.5" y="-95.5" font-family="FreeSans" font-size="10.00"># MarkAsStopped()</text>
<text text-anchor="start" x="24.5" y="-84.5" font-family="FreeSans" font-size="10.00">&#45; RegisterValueTooltip()</text>
<text text-anchor="start" x="24.5" y="-73.5" font-family="FreeSans" font-size="10.00">&#45; ProcessValueTooltip()</text>
<text text-anchor="start" x="24.5" y="-62.5" font-family="FreeSans" font-size="10.00">&#45; CancelValueTooltip()</text>
<text text-anchor="start" x="24.5" y="-51.5" font-family="FreeSans" font-size="10.00">&#45; OnEditorOpened()</text>
<text text-anchor="start" x="24.5" y="-40.5" font-family="FreeSans" font-size="10.00">&#45; OnProjectActivated()</text>
<text text-anchor="start" x="24.5" y="-29.5" font-family="FreeSans" font-size="10.00">&#45; OnProjectClosed()</text>
<text text-anchor="start" x="24.5" y="-18.5" font-family="FreeSans" font-size="10.00">&#45; OnCompilerFinished()</text>
<text text-anchor="start" x="24.5" y="-7.5" font-family="FreeSans" font-size="10.00">&#45; OnEditorHook()</text>
</g>
<!-- Node2 -->
<g id="node2" class="node"><title>Node2</title>
<g id="a_node2"><a xlink:href="classcbPlugin.xhtml" target="_top" xlink:title="Base class for plugins This is the most basic class a plugin must descend from. cbPlugin descends fro...">
<polygon fill="white" stroke="black" points="-1.42109e-14,-750.5 -1.42109e-14,-1016.5 158,-1016.5 158,-750.5 -1.42109e-14,-750.5"/>
<text text-anchor="middle" x="79" y="-1004.5" font-family="FreeSans" font-size="10.00">cbPlugin</text>
<polyline fill="none" stroke="black" points="-1.42109e-14,-997.5 158,-997.5 "/>
<text text-anchor="start" x="8" y="-985.5" font-family="FreeSans" font-size="10.00"># m_Type</text>
<text text-anchor="start" x="8" y="-974.5" font-family="FreeSans" font-size="10.00"># m_IsAttached</text>
<polyline fill="none" stroke="black" points="-1.42109e-14,-967.5 158,-967.5 "/>
<text text-anchor="start" x="8" y="-955.5" font-family="FreeSans" font-size="10.00">+ cbPlugin()</text>
<text text-anchor="start" x="8" y="-944.5" font-family="FreeSans" font-size="10.00">+ ~cbPlugin()</text>
<text text-anchor="start" x="8" y="-933.5" font-family="FreeSans" font-size="10.00">+ GetType()</text>
<text text-anchor="start" x="8" y="-922.5" font-family="FreeSans" font-size="10.00">+ GetConfigurationPriority()</text>
<text text-anchor="start" x="8" y="-911.5" font-family="FreeSans" font-size="10.00">+ GetConfigurationGroup()</text>
<text text-anchor="start" x="8" y="-900.5" font-family="FreeSans" font-size="10.00">+ GetConfigurationPanel()</text>
<text text-anchor="start" x="8" y="-889.5" font-family="FreeSans" font-size="10.00">+ GetProjectConfigurationPanel()</text>
<text text-anchor="start" x="8" y="-878.5" font-family="FreeSans" font-size="10.00">+ BuildMenu()</text>
<text text-anchor="start" x="8" y="-867.5" font-family="FreeSans" font-size="10.00">+ BuildModuleMenu()</text>
<text text-anchor="start" x="8" y="-856.5" font-family="FreeSans" font-size="10.00">+ BuildToolBar()</text>
<text text-anchor="start" x="8" y="-845.5" font-family="FreeSans" font-size="10.00">+ GetToolBarPriority()</text>
<text text-anchor="start" x="8" y="-834.5" font-family="FreeSans" font-size="10.00">+ CreateStatusField()</text>
<text text-anchor="start" x="8" y="-823.5" font-family="FreeSans" font-size="10.00">+ IsAttached()</text>
<text text-anchor="start" x="8" y="-812.5" font-family="FreeSans" font-size="10.00">+ CanDetach()</text>
<text text-anchor="start" x="8" y="-801.5" font-family="FreeSans" font-size="10.00"># OnAttach()</text>
<text text-anchor="start" x="8" y="-790.5" font-family="FreeSans" font-size="10.00"># OnRelease()</text>
<text text-anchor="start" x="8" y="-779.5" font-family="FreeSans" font-size="10.00"># NotImplemented()</text>
<text text-anchor="start" x="8" y="-768.5" font-family="FreeSans" font-size="10.00">&#45; Attach()</text>
<text text-anchor="start" x="8" y="-757.5" font-family="FreeSans" font-size="10.00">&#45; Release()</text>
</a>
</g>
</g>
<!-- Node2&#45;&gt;Node1 -->
<g id="edge1" class="edge"><title>Node2&#45;&gt;Node1</title>
<path fill="none" stroke="midnightblue" d="M82.2717,-739.93C83.6802,-679.768 85.3744,-608.972 87,-545 87.3904,-529.635 87.7992,-513.819 88.2167,-497.871"/>
<polygon fill="none" stroke="midnightblue" points="78.7649,-740.182 82.0301,-750.261 85.763,-740.346 78.7649,-740.182"/>
</g>
<!-- Node4 -->
<g id="node4" class="node"><title>Node4</title>
<g id="a_node4"><a xlink:href="classcbCompilerPlugin.xhtml" target="_top" xlink:title="Base class for compiler plugins. ">
<polygon fill="white" stroke="black" points="95.5,-545.5 95.5,-712.5 202.5,-712.5 202.5,-545.5 95.5,-545.5"/>
<text text-anchor="middle" x="149" y="-700.5" font-family="FreeSans" font-size="10.00">cbCompilerPlugin</text>
<polyline fill="none" stroke="black" points="95.5,-693.5 202.5,-693.5 "/>
<text text-anchor="middle" x="149" y="-681.5" font-family="FreeSans" font-size="10.00"> </text>
<polyline fill="none" stroke="black" points="95.5,-674.5 202.5,-674.5 "/>
<text text-anchor="start" x="103.5" y="-662.5" font-family="FreeSans" font-size="10.00">+ cbCompilerPlugin()</text>
<text text-anchor="start" x="103.5" y="-651.5" font-family="FreeSans" font-size="10.00">+ Run()</text>
<text text-anchor="start" x="103.5" y="-640.5" font-family="FreeSans" font-size="10.00">+ Run()</text>
<text text-anchor="start" x="103.5" y="-629.5" font-family="FreeSans" font-size="10.00">+ Clean()</text>
<text text-anchor="start" x="103.5" y="-618.5" font-family="FreeSans" font-size="10.00">+ Clean()</text>
<text text-anchor="start" x="103.5" y="-607.5" font-family="FreeSans" font-size="10.00">+ DistClean()</text>
<text text-anchor="start" x="103.5" y="-596.5" font-family="FreeSans" font-size="10.00">+ DistClean()</text>
<text text-anchor="start" x="103.5" y="-585.5" font-family="FreeSans" font-size="10.00">+ Build()</text>
<text text-anchor="start" x="103.5" y="-574.5" font-family="FreeSans" font-size="10.00">+ Build()</text>
<text text-anchor="start" x="103.5" y="-563.5" font-family="FreeSans" font-size="10.00">+ Rebuild()</text>
<text text-anchor="start" x="103.5" y="-552.5" font-family="FreeSans" font-size="10.00">and 9 more...</text>
</a>
</g>
</g>
<!-- Node2&#45;&gt;Node4 -->
<g id="edge4" class="edge"><title>Node2&#45;&gt;Node4</title>
<path fill="none" stroke="midnightblue" d="M118.371,-740.484C120.982,-731.065 123.56,-721.765 126.046,-712.798"/>
<polygon fill="none" stroke="midnightblue" points="114.939,-739.762 115.64,-750.334 121.684,-741.632 114.939,-739.762"/>
</g>
<!-- Node3 -->
<g id="node3" class="node"><title>Node3</title>
<polygon fill="white" stroke="#bfbfbf" points="42,-1054.5 42,-1111.5 116,-1111.5 116,-1054.5 42,-1054.5"/>
<text text-anchor="middle" x="79" y="-1099.5" font-family="FreeSans" font-size="10.00">wxEvtHandler</text>
<polyline fill="none" stroke="#bfbfbf" points="42,-1092.5 116,-1092.5 "/>
<text text-anchor="middle" x="79" y="-1080.5" font-family="FreeSans" font-size="10.00"> </text>
<polyline fill="none" stroke="#bfbfbf" points="42,-1073.5 116,-1073.5 "/>
<text text-anchor="middle" x="79" y="-1061.5" font-family="FreeSans" font-size="10.00"> </text>
</g>
<!-- Node3&#45;&gt;Node2 -->
<g id="edge2" class="edge"><title>Node3&#45;&gt;Node2</title>
<path fill="none" stroke="midnightblue" d="M79,-1044.07C79,-1035.71 79,-1026.4 79,-1016.58"/>
<polygon fill="none" stroke="midnightblue" points="75.5001,-1044.12 79,-1054.12 82.5001,-1044.12 75.5001,-1044.12"/>
</g>
<!-- Node4&#45;&gt;Node1 -->
<g id="edge3" class="edge"><title>Node4&#45;&gt;Node1</title>
<path fill="none" stroke="#404040" d="M137.149,-545.046C135.561,-533.93 133.87,-522.089 132.112,-509.781"/>
<polygon fill="none" stroke="#404040" points="132.104,-509.724 127.295,-504.35 130.406,-497.845 135.215,-503.219 132.104,-509.724"/>
<text text-anchor="middle" x="165.5" y="-519" font-family="FreeSans" font-size="10.00"> &#45;m_pCompiler</text>
</g>
</g>
</svg>
