<?xml version="1.0" encoding="UTF-8" standalone="no"?>
<!DOCTYPE svg PUBLIC "-//W3C//DTD SVG 1.1//EN"
 "http://www.w3.org/Graphics/SVG/1.1/DTD/svg11.dtd">
<!-- Generated by graphviz version 2.38.0 (20140413.2041)
 -->
<!-- Title: cbSplashScreen Pages: 1 -->
<svg width="115pt" height="259pt"
 viewBox="0.00 0.00 115.00 259.00" xmlns="http://www.w3.org/2000/svg" xmlns:xlink="http://www.w3.org/1999/xlink">
<g id="graph0" class="graph" transform="scale(1 1) rotate(0) translate(4 255)">
<title>cbSplashScreen</title>
<!-- Node2 -->
<g id="node1" class="node"><title>Node2</title>
<polygon fill="#bfbfbf" stroke="black" points="-7.10543e-15,-0.5 -7.10543e-15,-156.5 107,-156.5 107,-0.5 -7.10543e-15,-0.5"/>
<text text-anchor="middle" x="53.5" y="-144.5" font-family="FreeSans" font-size="10.00">cbSplashScreen</text>
<polyline fill="none" stroke="black" points="-7.10543e-15,-137.5 107,-137.5 "/>
<text text-anchor="start" x="8" y="-125.5" font-family="FreeSans" font-size="10.00">&#45; m_label</text>
<text text-anchor="start" x="8" y="-114.5" font-family="FreeSans" font-size="10.00">&#45; m_timer</text>
<polyline fill="none" stroke="black" points="-7.10543e-15,-107.5 107,-107.5 "/>
<text text-anchor="start" x="8" y="-95.5" font-family="FreeSans" font-size="10.00">+ cbSplashScreen()</text>
<text text-anchor="start" x="8" y="-84.5" font-family="FreeSans" font-size="10.00">+ ~cbSplashScreen()</text>
<text text-anchor="start" x="8" y="-73.5" font-family="FreeSans" font-size="10.00">+ DrawReleaseInfo()</text>
<text text-anchor="start" x="8" y="-62.5" font-family="FreeSans" font-size="10.00">&#45; DoPaint()</text>
<text text-anchor="start" x="8" y="-51.5" font-family="FreeSans" font-size="10.00">&#45; OnPaint()</text>
<text text-anchor="start" x="8" y="-40.5" font-family="FreeSans" font-size="10.00">&#45; OnTimer()</text>
<text text-anchor="start" x="8" y="-29.5" font-family="FreeSans" font-size="10.00">&#45; OnCloseWindow()</text>
<text text-anchor="start" x="8" y="-18.5" font-family="FreeSans" font-size="10.00">&#45; OnChar()</text>
<text text-anchor="start" x="8" y="-7.5" font-family="FreeSans" font-size="10.00">&#45; OnMouseEvent()</text>
</g>
<!-- Node3 -->
<g id="node2" class="node"><title>Node3</title>
<polygon fill="none" stroke="#bfbfbf" points="25.5,-193.5 25.5,-250.5 81.5,-250.5 81.5,-193.5 25.5,-193.5"/>
<text text-anchor="middle" x="53.5" y="-238.5" font-family="FreeSans" font-size="10.00">wxFrame</text>
<polyline fill="none" stroke="#bfbfbf" points="25.5,-231.5 81.5,-231.5 "/>
<text text-anchor="middle" x="53.5" y="-219.5" font-family="FreeSans" font-size="10.00"> </text>
<polyline fill="none" stroke="#bfbfbf" points="25.5,-212.5 81.5,-212.5 "/>
<text text-anchor="middle" x="53.5" y="-200.5" font-family="FreeSans" font-size="10.00"> </text>
</g>
<!-- Node3&#45;&gt;Node2 -->
<g id="edge1" class="edge"><title>Node3&#45;&gt;Node2</title>
<path fill="none" stroke="midnightblue" d="M53.5,-183.34C53.5,-175.044 53.5,-165.964 53.5,-156.736"/>
<polygon fill="none" stroke="midnightblue" points="50.0001,-183.381 53.5,-193.381 57.0001,-183.382 50.0001,-183.381"/>
</g>
</g>
</svg>
