<?xml version="1.0" encoding="UTF-8" standalone="no"?>
<!DOCTYPE svg PUBLIC "-//W3C//DTD SVG 1.1//EN"
 "http://www.w3.org/Graphics/SVG/1.1/DTD/svg11.dtd">
<!-- Generated by graphviz version 2.38.0 (20140413.2041)
 -->
<!-- Title: FindReplaceDlg Pages: 1 -->
<svg width="149pt" height="678pt"
 viewBox="0.00 0.00 149.00 678.00" xmlns="http://www.w3.org/2000/svg" xmlns:xlink="http://www.w3.org/1999/xlink">
<g id="graph0" class="graph" transform="scale(1 1) rotate(0) translate(4 674)">
<title>FindReplaceDlg</title>
<!-- Node0 -->
<g id="node1" class="node"><title>Node0</title>
<polygon fill="#bfbfbf" stroke="black" points="0,-0.5 0,-288.5 141,-288.5 141,-0.5 0,-0.5"/>
<text text-anchor="middle" x="70.5" y="-276.5" font-family="FreeSans" font-size="10.00">FindReplaceDlg</text>
<polyline fill="none" stroke="black" points="0,-269.5 141,-269.5 "/>
<text text-anchor="start" x="8" y="-257.5" font-family="FreeSans" font-size="10.00">&#45; m_findReplaceInFilesActive</text>
<text text-anchor="start" x="8" y="-246.5" font-family="FreeSans" font-size="10.00">&#45; m_findMode</text>
<text text-anchor="start" x="8" y="-235.5" font-family="FreeSans" font-size="10.00">&#45; m_findPage</text>
<polyline fill="none" stroke="black" points="0,-228.5 141,-228.5 "/>
<text text-anchor="start" x="8" y="-216.5" font-family="FreeSans" font-size="10.00">+ FindReplaceDlg()</text>
<text text-anchor="start" x="8" y="-205.5" font-family="FreeSans" font-size="10.00">+ ~FindReplaceDlg()</text>
<text text-anchor="start" x="8" y="-194.5" font-family="FreeSans" font-size="10.00">+ GetFindString()</text>
<text text-anchor="start" x="8" y="-183.5" font-family="FreeSans" font-size="10.00">+ GetReplaceString()</text>
<text text-anchor="start" x="8" y="-172.5" font-family="FreeSans" font-size="10.00">+ IsFindInFiles()</text>
<text text-anchor="start" x="8" y="-161.5" font-family="FreeSans" font-size="10.00">+ GetDeleteOldSearches()</text>
<text text-anchor="start" x="8" y="-150.5" font-family="FreeSans" font-size="10.00">+ GetSortSearchResult()</text>
<text text-anchor="start" x="8" y="-139.5" font-family="FreeSans" font-size="10.00">+ GetMatchWord()</text>
<text text-anchor="start" x="8" y="-128.5" font-family="FreeSans" font-size="10.00">and 18 more...</text>
<text text-anchor="start" x="8" y="-117.5" font-family="FreeSans" font-size="10.00"># OnReplaceChange()</text>
<text text-anchor="start" x="8" y="-106.5" font-family="FreeSans" font-size="10.00"># OnRegEx()</text>
<text text-anchor="start" x="8" y="-95.5" font-family="FreeSans" font-size="10.00"># OnActivate()</text>
<text text-anchor="start" x="8" y="-84.5" font-family="FreeSans" font-size="10.00"># OnMultiChange()</text>
<text text-anchor="start" x="8" y="-73.5" font-family="FreeSans" font-size="10.00"># OnLimitToChange()</text>
<text text-anchor="start" x="8" y="-62.5" font-family="FreeSans" font-size="10.00"># OnScopeChange()</text>
<text text-anchor="start" x="8" y="-51.5" font-family="FreeSans" font-size="10.00"># OnBrowsePath()</text>
<text text-anchor="start" x="8" y="-40.5" font-family="FreeSans" font-size="10.00"># OnSearchProject()</text>
<text text-anchor="start" x="8" y="-29.5" font-family="FreeSans" font-size="10.00"># OnDeferredFocus()</text>
<text text-anchor="start" x="8" y="-18.5" font-family="FreeSans" font-size="10.00">&#45; FillComboWithLastValues()</text>
<text text-anchor="start" x="8" y="-7.5" font-family="FreeSans" font-size="10.00">&#45; SaveComboValues()</text>
</g>
<!-- Node1 -->
<g id="node2" class="node"><title>Node1</title>
<g id="a_node2"><a xlink:href="classFindReplaceBase" target="_top" xlink:title="{FindReplaceBase\n||+ FindReplaceBase()\l+ ~FindReplaceBase()\l+ GetFindString()\l+ GetReplaceString()\l+ IsFindInFiles()\l+ GetDeleteOldSearches()\l+ GetSortSearchResult()\l+ GetMatchWord()\land 17 more...\l}">
<polygon fill="none" stroke="black" points="5.5,-325.5 5.5,-470.5 135.5,-470.5 135.5,-325.5 5.5,-325.5"/>
<text text-anchor="middle" x="70.5" y="-458.5" font-family="FreeSans" font-size="10.00">FindReplaceBase</text>
<polyline fill="none" stroke="black" points="5.5,-451.5 135.5,-451.5 "/>
<text text-anchor="middle" x="70.5" y="-439.5" font-family="FreeSans" font-size="10.00"> </text>
<polyline fill="none" stroke="black" points="5.5,-432.5 135.5,-432.5 "/>
<text text-anchor="start" x="13.5" y="-420.5" font-family="FreeSans" font-size="10.00">+ FindReplaceBase()</text>
<text text-anchor="start" x="13.5" y="-409.5" font-family="FreeSans" font-size="10.00">+ ~FindReplaceBase()</text>
<text text-anchor="start" x="13.5" y="-398.5" font-family="FreeSans" font-size="10.00">+ GetFindString()</text>
<text text-anchor="start" x="13.5" y="-387.5" font-family="FreeSans" font-size="10.00">+ GetReplaceString()</text>
<text text-anchor="start" x="13.5" y="-376.5" font-family="FreeSans" font-size="10.00">+ IsFindInFiles()</text>
<text text-anchor="start" x="13.5" y="-365.5" font-family="FreeSans" font-size="10.00">+ GetDeleteOldSearches()</text>
<text text-anchor="start" x="13.5" y="-354.5" font-family="FreeSans" font-size="10.00">+ GetSortSearchResult()</text>
<text text-anchor="start" x="13.5" y="-343.5" font-family="FreeSans" font-size="10.00">+ GetMatchWord()</text>
<text text-anchor="start" x="13.5" y="-332.5" font-family="FreeSans" font-size="10.00">and 17 more...</text>
</a>
</g>
</g>
<!-- Node1&#45;&gt;Node0 -->
<g id="edge1" class="edge"><title>Node1&#45;&gt;Node0</title>
<path fill="none" stroke="midnightblue" d="M70.5,-315.017C70.5,-306.478 70.5,-297.632 70.5,-288.665"/>
<polygon fill="none" stroke="midnightblue" points="67.0001,-315.267 70.5,-325.267 74.0001,-315.267 67.0001,-315.267"/>
</g>
<!-- Node2 -->
<g id="node3" class="node"><title>Node2</title>
<g id="a_node3"><a xlink:href="classwxScrollingDialog" target="_top" xlink:title="{wxScrollingDialog\n||+ wxScrollingDialog()\l+ wxScrollingDialog()\l}">
<polygon fill="none" stroke="black" points="17,-507.5 17,-575.5 124,-575.5 124,-507.5 17,-507.5"/>
<text text-anchor="middle" x="70.5" y="-563.5" font-family="FreeSans" font-size="10.00">wxScrollingDialog</text>
<polyline fill="none" stroke="black" points="17,-556.5 124,-556.5 "/>
<text text-anchor="middle" x="70.5" y="-544.5" font-family="FreeSans" font-size="10.00"> </text>
<polyline fill="none" stroke="black" points="17,-537.5 124,-537.5 "/>
<text text-anchor="start" x="25" y="-525.5" font-family="FreeSans" font-size="10.00">+ wxScrollingDialog()</text>
<text text-anchor="start" x="25" y="-514.5" font-family="FreeSans" font-size="10.00">+ wxScrollingDialog()</text>
</a>
</g>
</g>
<!-- Node2&#45;&gt;Node1 -->
<g id="edge2" class="edge"><title>Node2&#45;&gt;Node1</title>
<path fill="none" stroke="midnightblue" d="M70.5,-497.093C70.5,-488.727 70.5,-479.757 70.5,-470.766"/>
<polygon fill="none" stroke="midnightblue" points="67.0001,-497.325 70.5,-507.325 74.0001,-497.325 67.0001,-497.325"/>
</g>
<!-- Node3 -->
<g id="node4" class="node"><title>Node3</title>
<g id="a_node4"><a doxygen="/media/alpha/Barracuda/cb_docs/src/wxTagFile.xml:http://docs.wxwidgets.org/3.0/" xlink:href="http://docs.wxwidgets.org/3.0/classwx_dialog.html" target="_top" xlink:title="{wxDialog\n||+ ShowModal()\l}">
<polygon fill="none" stroke="red" points="30,-612.5 30,-669.5 111,-669.5 111,-612.5 30,-612.5"/>
<text text-anchor="middle" x="70.5" y="-657.5" font-family="FreeSans" font-size="10.00">wxDialog</text>
<polyline fill="none" stroke="red" points="30,-650.5 111,-650.5 "/>
<text text-anchor="middle" x="70.5" y="-638.5" font-family="FreeSans" font-size="10.00"> </text>
<polyline fill="none" stroke="red" points="30,-631.5 111,-631.5 "/>
<text text-anchor="start" x="38" y="-619.5" font-family="FreeSans" font-size="10.00">+ ShowModal()</text>
</a>
</g>
</g>
<!-- Node3&#45;&gt;Node2 -->
<g id="edge3" class="edge"><title>Node3&#45;&gt;Node2</title>
<path fill="none" stroke="midnightblue" d="M70.5,-602.063C70.5,-593.393 70.5,-584.243 70.5,-575.786"/>
<polygon fill="none" stroke="midnightblue" points="67.0001,-602.321 70.5,-612.321 74.0001,-602.321 67.0001,-602.321"/>
</g>
</g>
</svg>
