<?xml version="1.0" encoding="UTF-8" standalone="no"?>
<!DOCTYPE svg PUBLIC "-//W3C//DTD SVG 1.1//EN"
 "http://www.w3.org/Graphics/SVG/1.1/DTD/svg11.dtd">
<!-- Generated by graphviz version 2.38.0 (20140413.2041)
 -->
<!-- Title: cbWizardPlugin Pages: 1 -->
<svg width="166pt" height="975pt"
 viewBox="0.00 0.00 166.00 975.00" xmlns="http://www.w3.org/2000/svg" xmlns:xlink="http://www.w3.org/1999/xlink">
<g id="graph0" class="graph" transform="scale(1 1) rotate(0) translate(4 971)">
<title>cbWizardPlugin</title>
<polygon fill="white" stroke="none" points="-4,4 -4,-971 162,-971 162,4 -4,4"/>
<!-- Node1 -->
<g id="node1" class="node"><title>Node1</title>
<polygon fill="#bfbfbf" stroke="black" points="23,-369.5 23,-569.5 135,-569.5 135,-369.5 23,-369.5"/>
<text text-anchor="middle" x="79" y="-557.5" font-family="FreeSans" font-size="10.00">cbWizardPlugin</text>
<polyline fill="none" stroke="black" points="23,-550.5 135,-550.5 "/>
<text text-anchor="middle" x="79" y="-538.5" font-family="FreeSans" font-size="10.00"> </text>
<polyline fill="none" stroke="black" points="23,-531.5 135,-531.5 "/>
<text text-anchor="start" x="31" y="-519.5" font-family="FreeSans" font-size="10.00">+ cbWizardPlugin()</text>
<text text-anchor="start" x="31" y="-508.5" font-family="FreeSans" font-size="10.00">+ GetCount()</text>
<text text-anchor="start" x="31" y="-497.5" font-family="FreeSans" font-size="10.00">+ GetOutputType()</text>
<text text-anchor="start" x="31" y="-486.5" font-family="FreeSans" font-size="10.00">+ GetTitle()</text>
<text text-anchor="start" x="31" y="-475.5" font-family="FreeSans" font-size="10.00">+ GetDescription()</text>
<text text-anchor="start" x="31" y="-464.5" font-family="FreeSans" font-size="10.00">+ GetCategory()</text>
<text text-anchor="start" x="31" y="-453.5" font-family="FreeSans" font-size="10.00">+ GetBitmap()</text>
<text text-anchor="start" x="31" y="-442.5" font-family="FreeSans" font-size="10.00">+ GetScriptFilename()</text>
<text text-anchor="start" x="31" y="-431.5" font-family="FreeSans" font-size="10.00">+ Launch()</text>
<text text-anchor="start" x="31" y="-420.5" font-family="FreeSans" font-size="10.00">&#45; BuildMenu()</text>
<text text-anchor="start" x="31" y="-409.5" font-family="FreeSans" font-size="10.00">&#45; RemoveMenu()</text>
<text text-anchor="start" x="31" y="-398.5" font-family="FreeSans" font-size="10.00">&#45; BuildModuleMenu()</text>
<text text-anchor="start" x="31" y="-387.5" font-family="FreeSans" font-size="10.00">&#45; BuildToolBar()</text>
<text text-anchor="start" x="31" y="-376.5" font-family="FreeSans" font-size="10.00">&#45; RemoveToolBar()</text>
</g>
<!-- Node4 -->
<g id="node4" class="node"><title>Node4</title>
<g id="a_node4"><a xlink:href="classWiz.xhtml" target="_top" xlink:title="{Wiz\n|# m_Wizards\l# m_pWizard\l# m_Pages\l# m_pWizProjectPathPanel\l# m_pWizFilePathPanel\l# m_pWizCompilerPanel\l# m_pWizBuildTargetPanel\l# m_LaunchIndex\l# m_LastXRC\l# m_DefCompilerID\land 8 more...\l|+ Wiz()\l+ ~Wiz()\l+ operator=()\l+ GetCount()\l+ GetOutputType()\l+ GetTitle()\l+ GetDescription()\l+ GetCategory()\l+ GetBitmap()\l+ GetScriptFilename()\land 69 more...\l# OnAttach()\l# Clear()\l# CopyFiles()\l# GenerateFile()\l&#45; Wiz()\l}">
<polygon fill="white" stroke="black" points="12,-0.5 12,-332.5 146,-332.5 146,-0.5 12,-0.5"/>
<text text-anchor="middle" x="79" y="-320.5" font-family="FreeSans" font-size="10.00">Wiz</text>
<polyline fill="none" stroke="black" points="12,-313.5 146,-313.5 "/>
<text text-anchor="start" x="20" y="-301.5" font-family="FreeSans" font-size="10.00"># m_Wizards</text>
<text text-anchor="start" x="20" y="-290.5" font-family="FreeSans" font-size="10.00"># m_pWizard</text>
<text text-anchor="start" x="20" y="-279.5" font-family="FreeSans" font-size="10.00"># m_Pages</text>
<text text-anchor="start" x="20" y="-268.5" font-family="FreeSans" font-size="10.00"># m_pWizProjectPathPanel</text>
<text text-anchor="start" x="20" y="-257.5" font-family="FreeSans" font-size="10.00"># m_pWizFilePathPanel</text>
<text text-anchor="start" x="20" y="-246.5" font-family="FreeSans" font-size="10.00"># m_pWizCompilerPanel</text>
<text text-anchor="start" x="20" y="-235.5" font-family="FreeSans" font-size="10.00"># m_pWizBuildTargetPanel</text>
<text text-anchor="start" x="20" y="-224.5" font-family="FreeSans" font-size="10.00"># m_LaunchIndex</text>
<text text-anchor="start" x="20" y="-213.5" font-family="FreeSans" font-size="10.00"># m_LastXRC</text>
<text text-anchor="start" x="20" y="-202.5" font-family="FreeSans" font-size="10.00"># m_DefCompilerID</text>
<text text-anchor="start" x="20" y="-191.5" font-family="FreeSans" font-size="10.00">and 8 more...</text>
<polyline fill="none" stroke="black" points="12,-184.5 146,-184.5 "/>
<text text-anchor="start" x="20" y="-172.5" font-family="FreeSans" font-size="10.00">+ Wiz()</text>
<text text-anchor="start" x="20" y="-161.5" font-family="FreeSans" font-size="10.00">+ ~Wiz()</text>
<text text-anchor="start" x="20" y="-150.5" font-family="FreeSans" font-size="10.00">+ operator=()</text>
<text text-anchor="start" x="20" y="-139.5" font-family="FreeSans" font-size="10.00">+ GetCount()</text>
<text text-anchor="start" x="20" y="-128.5" font-family="FreeSans" font-size="10.00">+ GetOutputType()</text>
<text text-anchor="start" x="20" y="-117.5" font-family="FreeSans" font-size="10.00">+ GetTitle()</text>
<text text-anchor="start" x="20" y="-106.5" font-family="FreeSans" font-size="10.00">+ GetDescription()</text>
<text text-anchor="start" x="20" y="-95.5" font-family="FreeSans" font-size="10.00">+ GetCategory()</text>
<text text-anchor="start" x="20" y="-84.5" font-family="FreeSans" font-size="10.00">+ GetBitmap()</text>
<text text-anchor="start" x="20" y="-73.5" font-family="FreeSans" font-size="10.00">+ GetScriptFilename()</text>
<text text-anchor="start" x="20" y="-62.5" font-family="FreeSans" font-size="10.00">and 69 more...</text>
<text text-anchor="start" x="20" y="-51.5" font-family="FreeSans" font-size="10.00"># OnAttach()</text>
<text text-anchor="start" x="20" y="-40.5" font-family="FreeSans" font-size="10.00"># Clear()</text>
<text text-anchor="start" x="20" y="-29.5" font-family="FreeSans" font-size="10.00"># CopyFiles()</text>
<text text-anchor="start" x="20" y="-18.5" font-family="FreeSans" font-size="10.00"># GenerateFile()</text>
<text text-anchor="start" x="20" y="-7.5" font-family="FreeSans" font-size="10.00">&#45; Wiz()</text>
</a>
</g>
</g>
<!-- Node1&#45;&gt;Node4 -->
<g id="edge3" class="edge"><title>Node1&#45;&gt;Node4</title>
<path fill="none" stroke="midnightblue" d="M79,-359.032C79,-350.367 79,-341.504 79,-332.573"/>
<polygon fill="none" stroke="midnightblue" points="75.5001,-359.107 79,-369.107 82.5001,-359.107 75.5001,-359.107"/>
</g>
<!-- Node2 -->
<g id="node2" class="node"><title>Node2</title>
<g id="a_node2"><a xlink:href="classcbPlugin.xhtml" target="_top" xlink:title="Base class for plugins This is the most basic class a plugin must descend from. cbPlugin descends fro...">
<polygon fill="white" stroke="black" points="-1.42109e-14,-606.5 -1.42109e-14,-872.5 158,-872.5 158,-606.5 -1.42109e-14,-606.5"/>
<text text-anchor="middle" x="79" y="-860.5" font-family="FreeSans" font-size="10.00">cbPlugin</text>
<polyline fill="none" stroke="black" points="-1.42109e-14,-853.5 158,-853.5 "/>
<text text-anchor="start" x="8" y="-841.5" font-family="FreeSans" font-size="10.00"># m_Type</text>
<text text-anchor="start" x="8" y="-830.5" font-family="FreeSans" font-size="10.00"># m_IsAttached</text>
<polyline fill="none" stroke="black" points="-1.42109e-14,-823.5 158,-823.5 "/>
<text text-anchor="start" x="8" y="-811.5" font-family="FreeSans" font-size="10.00">+ cbPlugin()</text>
<text text-anchor="start" x="8" y="-800.5" font-family="FreeSans" font-size="10.00">+ ~cbPlugin()</text>
<text text-anchor="start" x="8" y="-789.5" font-family="FreeSans" font-size="10.00">+ GetType()</text>
<text text-anchor="start" x="8" y="-778.5" font-family="FreeSans" font-size="10.00">+ GetConfigurationPriority()</text>
<text text-anchor="start" x="8" y="-767.5" font-family="FreeSans" font-size="10.00">+ GetConfigurationGroup()</text>
<text text-anchor="start" x="8" y="-756.5" font-family="FreeSans" font-size="10.00">+ GetConfigurationPanel()</text>
<text text-anchor="start" x="8" y="-745.5" font-family="FreeSans" font-size="10.00">+ GetProjectConfigurationPanel()</text>
<text text-anchor="start" x="8" y="-734.5" font-family="FreeSans" font-size="10.00">+ BuildMenu()</text>
<text text-anchor="start" x="8" y="-723.5" font-family="FreeSans" font-size="10.00">+ BuildModuleMenu()</text>
<text text-anchor="start" x="8" y="-712.5" font-family="FreeSans" font-size="10.00">+ BuildToolBar()</text>
<text text-anchor="start" x="8" y="-701.5" font-family="FreeSans" font-size="10.00">+ GetToolBarPriority()</text>
<text text-anchor="start" x="8" y="-690.5" font-family="FreeSans" font-size="10.00">+ CreateStatusField()</text>
<text text-anchor="start" x="8" y="-679.5" font-family="FreeSans" font-size="10.00">+ IsAttached()</text>
<text text-anchor="start" x="8" y="-668.5" font-family="FreeSans" font-size="10.00">+ CanDetach()</text>
<text text-anchor="start" x="8" y="-657.5" font-family="FreeSans" font-size="10.00"># OnAttach()</text>
<text text-anchor="start" x="8" y="-646.5" font-family="FreeSans" font-size="10.00"># OnRelease()</text>
<text text-anchor="start" x="8" y="-635.5" font-family="FreeSans" font-size="10.00"># NotImplemented()</text>
<text text-anchor="start" x="8" y="-624.5" font-family="FreeSans" font-size="10.00">&#45; Attach()</text>
<text text-anchor="start" x="8" y="-613.5" font-family="FreeSans" font-size="10.00">&#45; Release()</text>
</a>
</g>
</g>
<!-- Node2&#45;&gt;Node1 -->
<g id="edge1" class="edge"><title>Node2&#45;&gt;Node1</title>
<path fill="none" stroke="midnightblue" d="M79,-596.278C79,-587.269 79,-578.309 79,-569.563"/>
<polygon fill="none" stroke="midnightblue" points="75.5001,-596.463 79,-606.463 82.5001,-596.463 75.5001,-596.463"/>
</g>
<!-- Node3 -->
<g id="node3" class="node"><title>Node3</title>
<polygon fill="white" stroke="#bfbfbf" points="42,-909.5 42,-966.5 116,-966.5 116,-909.5 42,-909.5"/>
<text text-anchor="middle" x="79" y="-954.5" font-family="FreeSans" font-size="10.00">wxEvtHandler</text>
<polyline fill="none" stroke="#bfbfbf" points="42,-947.5 116,-947.5 "/>
<text text-anchor="middle" x="79" y="-935.5" font-family="FreeSans" font-size="10.00"> </text>
<polyline fill="none" stroke="#bfbfbf" points="42,-928.5 116,-928.5 "/>
<text text-anchor="middle" x="79" y="-916.5" font-family="FreeSans" font-size="10.00"> </text>
</g>
<!-- Node3&#45;&gt;Node2 -->
<g id="edge2" class="edge"><title>Node3&#45;&gt;Node2</title>
<path fill="none" stroke="midnightblue" d="M79,-899.205C79,-891.137 79,-882.18 79,-872.746"/>
<polygon fill="none" stroke="midnightblue" points="75.5001,-899.263 79,-909.263 82.5001,-899.263 75.5001,-899.263"/>
</g>
</g>
</svg>
