<?xml version="1.0" encoding="UTF-8" standalone="no"?>
<!DOCTYPE svg PUBLIC "-//W3C//DTD SVG 1.1//EN"
 "http://www.w3.org/Graphics/SVG/1.1/DTD/svg11.dtd">
<!-- Generated by graphviz version 2.38.0 (20140413.2041)
 -->
<!-- Title: CdbCmd_RemoveBreakpoint Pages: 1 -->
<svg width="163pt" height="237pt"
 viewBox="0.00 0.00 163.00 237.00" xmlns="http://www.w3.org/2000/svg" xmlns:xlink="http://www.w3.org/1999/xlink">
<g id="graph0" class="graph" transform="scale(1 1) rotate(0) translate(4 233)">
<title>CdbCmd_RemoveBreakpoint</title>
<polygon fill="white" stroke="none" points="-4,4 -4,-233 159,-233 159,4 -4,4"/>
<!-- Node1 -->
<g id="node1" class="node"><title>Node1</title>
<polygon fill="#bfbfbf" stroke="black" points="0,-0.5 0,-68.5 155,-68.5 155,-0.5 0,-0.5"/>
<text text-anchor="middle" x="77.5" y="-56.5" font-family="FreeSans" font-size="10.00">CdbCmd_RemoveBreakpoint</text>
<polyline fill="none" stroke="black" points="0,-49.5 155,-49.5 "/>
<text text-anchor="start" x="8" y="-37.5" font-family="FreeSans" font-size="10.00">+ m_BP</text>
<polyline fill="none" stroke="black" points="0,-30.5 155,-30.5 "/>
<text text-anchor="start" x="8" y="-18.5" font-family="FreeSans" font-size="10.00">+ CdbCmd_RemoveBreakpoint()</text>
<text text-anchor="start" x="8" y="-7.5" font-family="FreeSans" font-size="10.00">+ ParseOutput()</text>
</g>
<!-- Node2 -->
<g id="node2" class="node"><title>Node2</title>
<g id="a_node2"><a xlink:href="classDebuggerCmd" target="_top" xlink:title="Basic interface for debugger commands. ">
<polygon fill="white" stroke="black" points="17,-105.5 17,-228.5 138,-228.5 138,-105.5 17,-105.5"/>
<text text-anchor="middle" x="77.5" y="-216.5" font-family="FreeSans" font-size="10.00">DebuggerCmd</text>
<polyline fill="none" stroke="black" points="17,-209.5 138,-209.5 "/>
<text text-anchor="start" x="25" y="-197.5" font-family="FreeSans" font-size="10.00">+ m_Cmd</text>
<text text-anchor="start" x="25" y="-186.5" font-family="FreeSans" font-size="10.00"># m_pDriver</text>
<text text-anchor="start" x="25" y="-175.5" font-family="FreeSans" font-size="10.00"># m_LogToNormalLog</text>
<polyline fill="none" stroke="black" points="17,-168.5 138,-168.5 "/>
<text text-anchor="start" x="25" y="-156.5" font-family="FreeSans" font-size="10.00">+ DebuggerCmd()</text>
<text text-anchor="start" x="25" y="-145.5" font-family="FreeSans" font-size="10.00">+ ~DebuggerCmd()</text>
<text text-anchor="start" x="25" y="-134.5" font-family="FreeSans" font-size="10.00">+ Action()</text>
<text text-anchor="start" x="25" y="-123.5" font-family="FreeSans" font-size="10.00">+ ParseOutput()</text>
<text text-anchor="start" x="25" y="-112.5" font-family="FreeSans" font-size="10.00">+ IsContinueCommand()</text>
</a>
</g>
</g>
<!-- Node2&#45;&gt;Node1 -->
<g id="edge1" class="edge"><title>Node2&#45;&gt;Node1</title>
<path fill="none" stroke="midnightblue" d="M77.5,-95.2438C77.5,-85.9655 77.5,-76.8368 77.5,-68.6152"/>
<polygon fill="none" stroke="midnightblue" points="74.0001,-95.3345 77.5,-105.335 81.0001,-95.3346 74.0001,-95.3345"/>
</g>
</g>
</svg>
