<?xml version="1.0" encoding="UTF-8" standalone="no"?>
<!DOCTYPE svg PUBLIC "-//W3C//DTD SVG 1.1//EN"
 "http://www.w3.org/Graphics/SVG/1.1/DTD/svg11.dtd">
<!-- Generated by graphviz version 2.38.0 (20140413.2041)
 -->
<!-- Title: CompilerFlagDlg Pages: 1 -->
<svg width="584pt" height="763pt"
 viewBox="0.00 0.00 584.00 763.00" xmlns="http://www.w3.org/2000/svg" xmlns:xlink="http://www.w3.org/1999/xlink">
<g id="graph0" class="graph" transform="scale(1 1) rotate(0) translate(4 759)">
<title>CompilerFlagDlg</title>
<!-- Node8 -->
<g id="node1" class="node"><title>Node8</title>
<polygon fill="#bfbfbf" stroke="black" points="238,-0.5 238,-90.5 350,-90.5 350,-0.5 238,-0.5"/>
<text text-anchor="middle" x="294" y="-78.5" font-family="FreeSans" font-size="10.00">CompilerFlagDlg</text>
<polyline fill="none" stroke="black" points="238,-71.5 350,-71.5 "/>
<text text-anchor="middle" x="294" y="-59.5" font-family="FreeSans" font-size="10.00"> </text>
<polyline fill="none" stroke="black" points="238,-52.5 350,-52.5 "/>
<text text-anchor="start" x="246" y="-40.5" font-family="FreeSans" font-size="10.00">+ CompilerFlagDlg()</text>
<text text-anchor="start" x="246" y="-29.5" font-family="FreeSans" font-size="10.00">+ ~CompilerFlagDlg()</text>
<text text-anchor="start" x="246" y="-18.5" font-family="FreeSans" font-size="10.00">+ EndModal()</text>
<text text-anchor="start" x="246" y="-7.5" font-family="FreeSans" font-size="10.00">&#45; OnAdvancedOption()</text>
</g>
<!-- Node9 -->
<g id="node2" class="node"><title>Node9</title>
<g id="a_node2"><a doxygen="/media/alpha/Barracuda/cb_docs/src/wxTagFile.xml:http://docs.wxwidgets.org/3.0/" xlink:href="http://docs.wxwidgets.org/3.0/classwx_dialog.html" target="_top" xlink:title="{wxDialog\n||+ ShowModal()\l}">
<polygon fill="none" stroke="black" points="355.5,-144 355.5,-201 436.5,-201 436.5,-144 355.5,-144"/>
<text text-anchor="middle" x="396" y="-189" font-family="FreeSans" font-size="10.00">wxDialog</text>
<polyline fill="none" stroke="black" points="355.5,-182 436.5,-182 "/>
<text text-anchor="middle" x="396" y="-170" font-family="FreeSans" font-size="10.00"> </text>
<polyline fill="none" stroke="black" points="355.5,-163 436.5,-163 "/>
<text text-anchor="start" x="363.5" y="-151" font-family="FreeSans" font-size="10.00">+ ShowModal()</text>
</a>
</g>
</g>
<!-- Node9&#45;&gt;Node8 -->
<g id="edge1" class="edge"><title>Node9&#45;&gt;Node8</title>
<path fill="none" stroke="midnightblue" d="M386.021,-134.091C382.7,-125.385 378.422,-116.483 373,-109 366.638,-100.22 358.724,-92.0267 350.382,-84.6512"/>
<polygon fill="none" stroke="midnightblue" points="382.787,-135.451 389.372,-143.751 389.401,-133.156 382.787,-135.451"/>
</g>
<!-- Node10 -->
<g id="node3" class="node"><title>Node10</title>
<g id="a_node3"><a doxygen="/media/alpha/Barracuda/cb_docs/src/wxTagFile.xml:http://docs.wxwidgets.org/3.0/" xlink:href="http://docs.wxwidgets.org/3.0/classwx_top_level_window.html" target="_top" xlink:title="{wxTopLevelWindow\n||}">
<polygon fill="none" stroke="black" points="345.5,-414 345.5,-471 446.5,-471 446.5,-414 345.5,-414"/>
<text text-anchor="middle" x="396" y="-459" font-family="FreeSans" font-size="10.00">wxTopLevelWindow</text>
<polyline fill="none" stroke="black" points="345.5,-452 446.5,-452 "/>
<text text-anchor="middle" x="396" y="-440" font-family="FreeSans" font-size="10.00"> </text>
<polyline fill="none" stroke="black" points="345.5,-433 446.5,-433 "/>
<text text-anchor="middle" x="396" y="-421" font-family="FreeSans" font-size="10.00"> </text>
</a>
</g>
</g>
<!-- Node10&#45;&gt;Node9 -->
<g id="edge2" class="edge"><title>Node10&#45;&gt;Node9</title>
<path fill="none" stroke="midnightblue" d="M396,-403.518C396,-348.826 396,-249.185 396,-201.021"/>
<polygon fill="none" stroke="midnightblue" points="392.5,-403.829 396,-413.829 399.5,-403.829 392.5,-403.829"/>
</g>
<!-- Node11 -->
<g id="node4" class="node"><title>Node11</title>
<g id="a_node4"><a doxygen="/media/alpha/Barracuda/cb_docs/src/wxTagFile.xml:http://docs.wxwidgets.org/3.0/" xlink:href="http://docs.wxwidgets.org/3.0/classwx_non_owned_window.html" target="_top" xlink:title="{wxNonOwnedWindow\n||}">
<polygon fill="none" stroke="black" points="310.5,-602.5 310.5,-659.5 419.5,-659.5 419.5,-602.5 310.5,-602.5"/>
<text text-anchor="middle" x="365" y="-647.5" font-family="FreeSans" font-size="10.00">wxNonOwnedWindow</text>
<polyline fill="none" stroke="black" points="310.5,-640.5 419.5,-640.5 "/>
<text text-anchor="middle" x="365" y="-628.5" font-family="FreeSans" font-size="10.00"> </text>
<polyline fill="none" stroke="black" points="310.5,-621.5 419.5,-621.5 "/>
<text text-anchor="middle" x="365" y="-609.5" font-family="FreeSans" font-size="10.00"> </text>
</a>
</g>
</g>
<!-- Node11&#45;&gt;Node10 -->
<g id="edge3" class="edge"><title>Node11&#45;&gt;Node10</title>
<path fill="none" stroke="midnightblue" d="M371.25,-592.397C377.216,-556.506 386.064,-503.274 391.407,-471.132"/>
<polygon fill="none" stroke="midnightblue" points="367.761,-592.043 369.574,-602.481 374.667,-593.191 367.761,-592.043"/>
</g>
<!-- Node12 -->
<g id="node5" class="node"><title>Node12</title>
<g id="a_node5"><a doxygen="/media/alpha/Barracuda/cb_docs/src/wxTagFile.xml:http://docs.wxwidgets.org/3.0/" xlink:href="http://docs.wxwidgets.org/3.0/classwx_window.html" target="_top" xlink:title="{wxWindow\n||}">
<polygon fill="none" stroke="red" points="279,-697.5 279,-754.5 341,-754.5 341,-697.5 279,-697.5"/>
<text text-anchor="middle" x="310" y="-742.5" font-family="FreeSans" font-size="10.00">wxWindow</text>
<polyline fill="none" stroke="red" points="279,-735.5 341,-735.5 "/>
<text text-anchor="middle" x="310" y="-723.5" font-family="FreeSans" font-size="10.00"> </text>
<polyline fill="none" stroke="red" points="279,-716.5 341,-716.5 "/>
<text text-anchor="middle" x="310" y="-704.5" font-family="FreeSans" font-size="10.00"> </text>
</a>
</g>
</g>
<!-- Node12&#45;&gt;Node11 -->
<g id="edge4" class="edge"><title>Node12&#45;&gt;Node11</title>
<path fill="none" stroke="midnightblue" d="M331.458,-688.716C337.162,-679.072 343.23,-668.81 348.615,-659.705"/>
<polygon fill="none" stroke="midnightblue" points="328.431,-686.96 326.353,-697.349 334.456,-690.523 328.431,-686.96"/>
</g>
<!-- Node17 -->
<g id="node7" class="node"><title>Node17</title>
<g id="a_node7"><a doxygen="/media/alpha/Barracuda/cb_docs/src/wxTagFile.xml:http://docs.wxwidgets.org/3.0/" xlink:href="http://docs.wxwidgets.org/3.0/classwx_control.html" target="_top" xlink:title="{wxControl\n||}">
<polygon fill="none" stroke="black" points="226.5,-602.5 226.5,-659.5 285.5,-659.5 285.5,-602.5 226.5,-602.5"/>
<text text-anchor="middle" x="256" y="-647.5" font-family="FreeSans" font-size="10.00">wxControl</text>
<polyline fill="none" stroke="black" points="226.5,-640.5 285.5,-640.5 "/>
<text text-anchor="middle" x="256" y="-628.5" font-family="FreeSans" font-size="10.00"> </text>
<polyline fill="none" stroke="black" points="226.5,-621.5 285.5,-621.5 "/>
<text text-anchor="middle" x="256" y="-609.5" font-family="FreeSans" font-size="10.00"> </text>
</a>
</g>
</g>
<!-- Node12&#45;&gt;Node17 -->
<g id="edge7" class="edge"><title>Node12&#45;&gt;Node17</title>
<path fill="none" stroke="midnightblue" d="M288.76,-688.421C283.21,-678.862 277.32,-668.718 272.087,-659.705"/>
<polygon fill="none" stroke="midnightblue" points="285.896,-690.458 293.944,-697.349 291.95,-686.943 285.896,-690.458"/>
</g>
<!-- Node16 -->
<g id="node6" class="node"><title>Node16</title>
<g id="a_node6"><a doxygen="/media/alpha/Barracuda/cb_docs/src/wxTagFile.xml:http://docs.wxwidgets.org/3.0/" xlink:href="http://docs.wxwidgets.org/3.0/classwx_combo_box.html" target="_top" xlink:title="{wxComboBox\n||}">
<polygon fill="none" stroke="black" points="37.5,-414 37.5,-471 112.5,-471 112.5,-414 37.5,-414"/>
<text text-anchor="middle" x="75" y="-459" font-family="FreeSans" font-size="10.00">wxComboBox</text>
<polyline fill="none" stroke="black" points="37.5,-452 112.5,-452 "/>
<text text-anchor="middle" x="75" y="-440" font-family="FreeSans" font-size="10.00"> </text>
<polyline fill="none" stroke="black" points="37.5,-433 112.5,-433 "/>
<text text-anchor="middle" x="75" y="-421" font-family="FreeSans" font-size="10.00"> </text>
</a>
</g>
</g>
<!-- Node16&#45;&gt;Node8 -->
<g id="edge5" class="edge"><title>Node16&#45;&gt;Node8</title>
<path fill="none" stroke="#404040" d="M65.2544,-413.88C46.9922,-356.811 14.3993,-224.042 72,-138 106.029,-87.1688 173.985,-64.5475 225.795,-54.4972"/>
<polygon fill="none" stroke="#404040" points="226.108,-54.4408 231.304,-49.4409 237.918,-52.3143 232.722,-57.3143 226.108,-54.4408"/>
<text text-anchor="middle" x="109.5" y="-170" font-family="FreeSans" font-size="10.00"> &#45;CategoryCombo</text>
</g>
<!-- Node17&#45;&gt;Node16 -->
<g id="edge6" class="edge"><title>Node17&#45;&gt;Node16</title>
<path fill="none" stroke="midnightblue" d="M217.66,-607.611C214.081,-605.667 210.489,-603.769 207,-602 188.989,-592.868 138.02,-579.534 124,-565 98.8138,-538.89 85.9908,-498.151 79.9022,-471.147"/>
<polygon fill="none" stroke="midnightblue" points="216.017,-610.702 226.46,-612.49 219.412,-604.58 216.017,-610.702"/>
</g>
<!-- Node21 -->
<g id="node11" class="node"><title>Node21</title>
<g id="a_node11"><a doxygen="/media/alpha/Barracuda/cb_docs/src/wxTagFile.xml:http://docs.wxwidgets.org/3.0/" xlink:href="http://docs.wxwidgets.org/3.0/classwx_text_ctrl.html" target="_top" xlink:title="{wxTextCtrl\n||}">
<polygon fill="none" stroke="black" points="133,-414 133,-471 195,-471 195,-414 133,-414"/>
<text text-anchor="middle" x="164" y="-459" font-family="FreeSans" font-size="10.00">wxTextCtrl</text>
<polyline fill="none" stroke="black" points="133,-452 195,-452 "/>
<text text-anchor="middle" x="164" y="-440" font-family="FreeSans" font-size="10.00"> </text>
<polyline fill="none" stroke="black" points="133,-433 195,-433 "/>
<text text-anchor="middle" x="164" y="-421" font-family="FreeSans" font-size="10.00"> </text>
</a>
</g>
</g>
<!-- Node17&#45;&gt;Node21 -->
<g id="edge12" class="edge"><title>Node17&#45;&gt;Node21</title>
<path fill="none" stroke="midnightblue" d="M223.986,-594.641C216.727,-585.437 209.536,-575.221 204,-565 187.607,-534.733 176.401,-496.576 170.111,-471.18"/>
<polygon fill="none" stroke="midnightblue" points="221.314,-596.902 230.344,-602.444 226.741,-592.48 221.314,-596.902"/>
</g>
<!-- Node25 -->
<g id="node15" class="node"><title>Node25</title>
<g id="a_node15"><a doxygen="/media/alpha/Barracuda/cb_docs/src/wxTagFile.xml:http://docs.wxwidgets.org/3.0/" xlink:href="http://docs.wxwidgets.org/3.0/classwx_any_button.html" target="_top" xlink:title="{wxAnyButton\n||+ wxAnyButton()\l+ ~wxAnyButton()\l+ GetBitmap()\l+ GetBitmapCurrent()\l+ GetBitmapDisabled()\l+ GetBitmapFocus()\l+ GetBitmapLabel()\l+ GetBitmapPressed()\land 10 more...\l}">
<polygon fill="none" stroke="black" points="213,-370 213,-515 327,-515 327,-370 213,-370"/>
<text text-anchor="middle" x="270" y="-503" font-family="FreeSans" font-size="10.00">wxAnyButton</text>
<polyline fill="none" stroke="black" points="213,-496 327,-496 "/>
<text text-anchor="middle" x="270" y="-484" font-family="FreeSans" font-size="10.00"> </text>
<polyline fill="none" stroke="black" points="213,-477 327,-477 "/>
<text text-anchor="start" x="221" y="-465" font-family="FreeSans" font-size="10.00">+ wxAnyButton()</text>
<text text-anchor="start" x="221" y="-454" font-family="FreeSans" font-size="10.00">+ ~wxAnyButton()</text>
<text text-anchor="start" x="221" y="-443" font-family="FreeSans" font-size="10.00">+ GetBitmap()</text>
<text text-anchor="start" x="221" y="-432" font-family="FreeSans" font-size="10.00">+ GetBitmapCurrent()</text>
<text text-anchor="start" x="221" y="-421" font-family="FreeSans" font-size="10.00">+ GetBitmapDisabled()</text>
<text text-anchor="start" x="221" y="-410" font-family="FreeSans" font-size="10.00">+ GetBitmapFocus()</text>
<text text-anchor="start" x="221" y="-399" font-family="FreeSans" font-size="10.00">+ GetBitmapLabel()</text>
<text text-anchor="start" x="221" y="-388" font-family="FreeSans" font-size="10.00">+ GetBitmapPressed()</text>
<text text-anchor="start" x="221" y="-377" font-family="FreeSans" font-size="10.00">and 10 more...</text>
</a>
</g>
</g>
<!-- Node17&#45;&gt;Node25 -->
<g id="edge18" class="edge"><title>Node17&#45;&gt;Node25</title>
<path fill="none" stroke="midnightblue" d="M258.817,-592.475C260.483,-570.285 262.648,-541.446 264.628,-515.06"/>
<polygon fill="none" stroke="midnightblue" points="255.324,-592.247 258.066,-602.481 262.305,-592.771 255.324,-592.247"/>
</g>
<!-- Node18 -->
<g id="node8" class="node"><title>Node18</title>
<g id="a_node8"><a doxygen="/media/alpha/Barracuda/cb_docs/src/wxTagFile.xml:http://docs.wxwidgets.org/3.0/" xlink:href="http://docs.wxwidgets.org/3.0/classwx_item_container.html" target="_top" xlink:title="{wxItemContainer\n||}">
<polygon fill="none" stroke="black" points="22.5,-602.5 22.5,-659.5 111.5,-659.5 111.5,-602.5 22.5,-602.5"/>
<text text-anchor="middle" x="67" y="-647.5" font-family="FreeSans" font-size="10.00">wxItemContainer</text>
<polyline fill="none" stroke="black" points="22.5,-640.5 111.5,-640.5 "/>
<text text-anchor="middle" x="67" y="-628.5" font-family="FreeSans" font-size="10.00"> </text>
<polyline fill="none" stroke="black" points="22.5,-621.5 111.5,-621.5 "/>
<text text-anchor="middle" x="67" y="-609.5" font-family="FreeSans" font-size="10.00"> </text>
</a>
</g>
</g>
<!-- Node18&#45;&gt;Node16 -->
<g id="edge8" class="edge"><title>Node18&#45;&gt;Node16</title>
<path fill="none" stroke="midnightblue" d="M68.613,-592.397C70.1526,-556.506 72.436,-503.274 73.8147,-471.132"/>
<polygon fill="none" stroke="midnightblue" points="65.1123,-592.34 68.1804,-602.481 72.1059,-592.64 65.1123,-592.34"/>
</g>
<!-- Node19 -->
<g id="node9" class="node"><title>Node19</title>
<g id="a_node9"><a doxygen="/media/alpha/Barracuda/cb_docs/src/wxTagFile.xml:http://docs.wxwidgets.org/3.0/" xlink:href="http://docs.wxwidgets.org/3.0/classwx_item_container_immutable.html" target="_top" xlink:title="{wxItemContainerImmutable\n||}">
<polygon fill="none" stroke="black" points="0,-697.5 0,-754.5 134,-754.5 134,-697.5 0,-697.5"/>
<text text-anchor="middle" x="67" y="-742.5" font-family="FreeSans" font-size="10.00">wxItemContainerImmutable</text>
<polyline fill="none" stroke="black" points="0,-735.5 134,-735.5 "/>
<text text-anchor="middle" x="67" y="-723.5" font-family="FreeSans" font-size="10.00"> </text>
<polyline fill="none" stroke="black" points="0,-716.5 134,-716.5 "/>
<text text-anchor="middle" x="67" y="-704.5" font-family="FreeSans" font-size="10.00"> </text>
</a>
</g>
</g>
<!-- Node19&#45;&gt;Node18 -->
<g id="edge9" class="edge"><title>Node19&#45;&gt;Node18</title>
<path fill="none" stroke="midnightblue" d="M67,-687.235C67,-678.028 67,-668.346 67,-659.705"/>
<polygon fill="none" stroke="midnightblue" points="63.5001,-687.349 67,-697.349 70.5001,-687.349 63.5001,-687.349"/>
</g>
<!-- Node20 -->
<g id="node10" class="node"><title>Node20</title>
<g id="a_node10"><a doxygen="/media/alpha/Barracuda/cb_docs/src/wxTagFile.xml:http://docs.wxwidgets.org/3.0/" xlink:href="http://docs.wxwidgets.org/3.0/classwx_text_entry.html" target="_top" xlink:title="{wxTextEntry\n||}">
<polygon fill="none" stroke="black" points="130,-602.5 130,-659.5 198,-659.5 198,-602.5 130,-602.5"/>
<text text-anchor="middle" x="164" y="-647.5" font-family="FreeSans" font-size="10.00">wxTextEntry</text>
<polyline fill="none" stroke="black" points="130,-640.5 198,-640.5 "/>
<text text-anchor="middle" x="164" y="-628.5" font-family="FreeSans" font-size="10.00"> </text>
<polyline fill="none" stroke="black" points="130,-621.5 198,-621.5 "/>
<text text-anchor="middle" x="164" y="-609.5" font-family="FreeSans" font-size="10.00"> </text>
</a>
</g>
</g>
<!-- Node20&#45;&gt;Node16 -->
<g id="edge10" class="edge"><title>Node20&#45;&gt;Node16</title>
<path fill="none" stroke="midnightblue" d="M140.278,-593.865C134.63,-584.628 128.842,-574.591 124,-565 108.215,-533.732 93.6894,-496.115 84.6202,-471.103"/>
<polygon fill="none" stroke="midnightblue" points="137.358,-595.798 145.616,-602.436 143.3,-592.097 137.358,-595.798"/>
</g>
<!-- Node20&#45;&gt;Node21 -->
<g id="edge13" class="edge"><title>Node20&#45;&gt;Node21</title>
<path fill="none" stroke="midnightblue" d="M164,-592.397C164,-556.506 164,-503.274 164,-471.132"/>
<polygon fill="none" stroke="midnightblue" points="160.5,-592.481 164,-602.481 167.5,-592.481 160.5,-592.481"/>
</g>
<!-- Node21&#45;&gt;Node8 -->
<g id="edge11" class="edge"><title>Node21&#45;&gt;Node8</title>
<path fill="none" stroke="#404040" d="M157.407,-413.579C145.742,-357.638 126.88,-229.368 174,-138 185.919,-114.888 206.635,-95.9431 227.535,-81.4081"/>
<polygon fill="none" stroke="#404040" points="227.767,-81.2544 230.561,-74.6064 237.772,-74.6281 234.978,-81.2761 227.767,-81.2544"/>
<text text-anchor="middle" x="208" y="-197.5" font-family="FreeSans" font-size="10.00"> &#45;LinkerText</text>
<text text-anchor="middle" x="208" y="-186.5" font-family="FreeSans" font-size="10.00">&#45;SupersedeText</text>
<text text-anchor="middle" x="208" y="-175.5" font-family="FreeSans" font-size="10.00">&#45;AgainstText</text>
<text text-anchor="middle" x="208" y="-164.5" font-family="FreeSans" font-size="10.00">&#45;MessageText</text>
<text text-anchor="middle" x="208" y="-153.5" font-family="FreeSans" font-size="10.00">&#45;CompilerText</text>
<text text-anchor="middle" x="208" y="-142.5" font-family="FreeSans" font-size="10.00">&#45;NameText</text>
</g>
<!-- Node22 -->
<g id="node12" class="node"><title>Node22</title>
<g id="a_node12"><a xlink:href="compileroptions_8h#structCompOption" target="_top" xlink:title="{CompOption\n|+ enabled\l+ exclusive\l|}">
<polygon fill="none" stroke="black" points="464.5,-138.5 464.5,-206.5 535.5,-206.5 535.5,-138.5 464.5,-138.5"/>
<text text-anchor="middle" x="500" y="-194.5" font-family="FreeSans" font-size="10.00">CompOption</text>
<polyline fill="none" stroke="black" points="464.5,-187.5 535.5,-187.5 "/>
<text text-anchor="start" x="472.5" y="-175.5" font-family="FreeSans" font-size="10.00">+ enabled</text>
<text text-anchor="start" x="472.5" y="-164.5" font-family="FreeSans" font-size="10.00">+ exclusive</text>
<polyline fill="none" stroke="black" points="464.5,-157.5 535.5,-157.5 "/>
<text text-anchor="middle" x="500" y="-145.5" font-family="FreeSans" font-size="10.00"> </text>
</a>
</g>
</g>
<!-- Node22&#45;&gt;Node8 -->
<g id="edge14" class="edge"><title>Node22&#45;&gt;Node8</title>
<path fill="none" stroke="#404040" d="M464.209,-149.684C457.814,-145.79 451.211,-141.773 445,-138 417.485,-121.284 387.131,-102.883 360.898,-86.9928"/>
<polygon fill="none" stroke="#404040" points="360.573,-86.7956 353.368,-87.1087 350.308,-80.5789 357.513,-80.2659 360.573,-86.7956"/>
<text text-anchor="middle" x="424.5" y="-112" font-family="FreeSans" font-size="10.00"> &#45;copt</text>
</g>
<!-- Node23 -->
<g id="node13" class="node"><title>Node23</title>
<g id="a_node13"><a doxygen="/media/alpha/Barracuda/cb_docs/src/wxTagFile.xml:http://docs.wxwidgets.org/3.0/" xlink:href="http://docs.wxwidgets.org/3.0/classwx_string.html" target="_top" xlink:title="{wxString\n|+ npos\l|+ wxString()\l+ wxString()\l+ wxString()\l+ wxString()\l+ wxString()\l+ wxString()\l+ wxString()\l+ wxString()\land 222 more...\l+ Format()\l+ FormatV()\l+ FromCDouble()\l+ FromDouble()\l+ From8BitData()\l+ From8BitData()\l+ FromAscii()\l+ FromAscii()\land 7 more...\l}">
<polygon fill="none" stroke="black" points="464.5,-320.5 464.5,-564.5 555.5,-564.5 555.5,-320.5 464.5,-320.5"/>
<text text-anchor="middle" x="510" y="-552.5" font-family="FreeSans" font-size="10.00">wxString</text>
<polyline fill="none" stroke="black" points="464.5,-545.5 555.5,-545.5 "/>
<text text-anchor="start" x="472.5" y="-533.5" font-family="FreeSans" font-size="10.00">+ npos</text>
<polyline fill="none" stroke="black" points="464.5,-526.5 555.5,-526.5 "/>
<text text-anchor="start" x="472.5" y="-514.5" font-family="FreeSans" font-size="10.00">+ wxString()</text>
<text text-anchor="start" x="472.5" y="-503.5" font-family="FreeSans" font-size="10.00">+ wxString()</text>
<text text-anchor="start" x="472.5" y="-492.5" font-family="FreeSans" font-size="10.00">+ wxString()</text>
<text text-anchor="start" x="472.5" y="-481.5" font-family="FreeSans" font-size="10.00">+ wxString()</text>
<text text-anchor="start" x="472.5" y="-470.5" font-family="FreeSans" font-size="10.00">+ wxString()</text>
<text text-anchor="start" x="472.5" y="-459.5" font-family="FreeSans" font-size="10.00">+ wxString()</text>
<text text-anchor="start" x="472.5" y="-448.5" font-family="FreeSans" font-size="10.00">+ wxString()</text>
<text text-anchor="start" x="472.5" y="-437.5" font-family="FreeSans" font-size="10.00">+ wxString()</text>
<text text-anchor="start" x="472.5" y="-426.5" font-family="FreeSans" font-size="10.00">and 222 more...</text>
<text text-anchor="start" x="472.5" y="-415.5" font-family="FreeSans" font-size="10.00">+ Format()</text>
<text text-anchor="start" x="472.5" y="-404.5" font-family="FreeSans" font-size="10.00">+ FormatV()</text>
<text text-anchor="start" x="472.5" y="-393.5" font-family="FreeSans" font-size="10.00">+ FromCDouble()</text>
<text text-anchor="start" x="472.5" y="-382.5" font-family="FreeSans" font-size="10.00">+ FromDouble()</text>
<text text-anchor="start" x="472.5" y="-371.5" font-family="FreeSans" font-size="10.00">+ From8BitData()</text>
<text text-anchor="start" x="472.5" y="-360.5" font-family="FreeSans" font-size="10.00">+ From8BitData()</text>
<text text-anchor="start" x="472.5" y="-349.5" font-family="FreeSans" font-size="10.00">+ FromAscii()</text>
<text text-anchor="start" x="472.5" y="-338.5" font-family="FreeSans" font-size="10.00">+ FromAscii()</text>
<text text-anchor="start" x="472.5" y="-327.5" font-family="FreeSans" font-size="10.00">and 7 more...</text>
</a>
</g>
</g>
<!-- Node23&#45;&gt;Node22 -->
<g id="edge15" class="edge"><title>Node23&#45;&gt;Node22</title>
<path fill="none" stroke="#404040" d="M505.483,-320.437C504.132,-284.229 502.733,-246.75 501.687,-218.706"/>
<polygon fill="none" stroke="#404040" points="501.68,-218.515 497.459,-212.668 501.232,-206.523 505.453,-212.37 501.68,-218.515"/>
<text text-anchor="middle" x="540.5" y="-294" font-family="FreeSans" font-size="10.00"> +option</text>
<text text-anchor="middle" x="540.5" y="-283" font-family="FreeSans" font-size="10.00">+checkMessage</text>
<text text-anchor="middle" x="540.5" y="-272" font-family="FreeSans" font-size="10.00">+additionalLibs</text>
<text text-anchor="middle" x="540.5" y="-261" font-family="FreeSans" font-size="10.00">+name</text>
<text text-anchor="middle" x="540.5" y="-250" font-family="FreeSans" font-size="10.00">+category</text>
<text text-anchor="middle" x="540.5" y="-239" font-family="FreeSans" font-size="10.00">+supersedes</text>
<text text-anchor="middle" x="540.5" y="-228" font-family="FreeSans" font-size="10.00">+checkAgainst</text>
</g>
<!-- Node24 -->
<g id="node14" class="node"><title>Node24</title>
<g id="a_node14"><a doxygen="/media/alpha/Barracuda/cb_docs/src/wxTagFile.xml:http://docs.wxwidgets.org/3.0/" xlink:href="http://docs.wxwidgets.org/3.0/classwx_toggle_button.html" target="_top" xlink:title="{wxToggleButton\n||+ GetValue()\l+ SetValue()\l}">
<polygon fill="none" stroke="black" points="251,-138.5 251,-206.5 337,-206.5 337,-138.5 251,-138.5"/>
<text text-anchor="middle" x="294" y="-194.5" font-family="FreeSans" font-size="10.00">wxToggleButton</text>
<polyline fill="none" stroke="black" points="251,-187.5 337,-187.5 "/>
<text text-anchor="middle" x="294" y="-175.5" font-family="FreeSans" font-size="10.00"> </text>
<polyline fill="none" stroke="black" points="251,-168.5 337,-168.5 "/>
<text text-anchor="start" x="259" y="-156.5" font-family="FreeSans" font-size="10.00">+ GetValue()</text>
<text text-anchor="start" x="259" y="-145.5" font-family="FreeSans" font-size="10.00">+ SetValue()</text>
</a>
</g>
</g>
<!-- Node24&#45;&gt;Node8 -->
<g id="edge16" class="edge"><title>Node24&#45;&gt;Node8</title>
<path fill="none" stroke="#404040" d="M294,-138.33C294,-127.373 294,-114.86 294,-102.671"/>
<polygon fill="none" stroke="#404040" points="294,-102.66 290,-96.6597 294,-90.6596 298,-96.6596 294,-102.66"/>
<text text-anchor="middle" x="331.5" y="-112" font-family="FreeSans" font-size="10.00"> &#45;ExclusiveToggle</text>
</g>
<!-- Node25&#45;&gt;Node24 -->
<g id="edge17" class="edge"><title>Node25&#45;&gt;Node24</title>
<path fill="none" stroke="midnightblue" d="M277.336,-359.584C281.934,-308.239 287.614,-244.812 291.014,-206.839"/>
<polygon fill="none" stroke="midnightblue" points="273.838,-359.409 276.432,-369.681 280.81,-360.033 273.838,-359.409"/>
</g>
</g>
</svg>
