<?xml version="1.0" encoding="UTF-8" standalone="no"?>
<!DOCTYPE svg PUBLIC "-//W3C//DTD SVG 1.1//EN"
 "http://www.w3.org/Graphics/SVG/1.1/DTD/svg11.dtd">
<!-- Generated by graphviz version 2.38.0 (20140413.2041)
 -->
<!-- Title: DebuggerInfoCmd Pages: 1 -->
<svg width="898pt" height="1290pt"
 viewBox="0.00 0.00 898.00 1290.00" xmlns="http://www.w3.org/2000/svg" xmlns:xlink="http://www.w3.org/1999/xlink">
<g id="graph0" class="graph" transform="scale(1 1) rotate(0) translate(4 1286)">
<title>DebuggerInfoCmd</title>
<!-- Node2 -->
<g id="node1" class="node"><title>Node2</title>
<polygon fill="#bfbfbf" stroke="black" points="0,-0.5 0,-79.5 114,-79.5 114,-0.5 0,-0.5"/>
<text text-anchor="middle" x="57" y="-67.5" font-family="FreeSans" font-size="10.00">DebuggerInfoCmd</text>
<polyline fill="none" stroke="black" points="0,-60.5 114,-60.5 "/>
<text text-anchor="middle" x="57" y="-48.5" font-family="FreeSans" font-size="10.00"> </text>
<polyline fill="none" stroke="black" points="0,-41.5 114,-41.5 "/>
<text text-anchor="start" x="8" y="-29.5" font-family="FreeSans" font-size="10.00">+ DebuggerInfoCmd()</text>
<text text-anchor="start" x="8" y="-18.5" font-family="FreeSans" font-size="10.00">+ ~DebuggerInfoCmd()</text>
<text text-anchor="start" x="8" y="-7.5" font-family="FreeSans" font-size="10.00">+ ParseOutput()</text>
</g>
<!-- Node3 -->
<g id="node2" class="node"><title>Node3</title>
<g id="a_node2"><a xlink:href="classDebuggerCmd" target="_top" xlink:title="Basic interface for debugger commands. ">
<polygon fill="none" stroke="black" points="57.5,-117.5 57.5,-218.5 178.5,-218.5 178.5,-117.5 57.5,-117.5"/>
<text text-anchor="middle" x="118" y="-206.5" font-family="FreeSans" font-size="10.00">DebuggerCmd</text>
<polyline fill="none" stroke="black" points="57.5,-199.5 178.5,-199.5 "/>
<text text-anchor="start" x="65.5" y="-187.5" font-family="FreeSans" font-size="10.00"># m_LogToNormalLog</text>
<polyline fill="none" stroke="black" points="57.5,-180.5 178.5,-180.5 "/>
<text text-anchor="start" x="65.5" y="-168.5" font-family="FreeSans" font-size="10.00">+ DebuggerCmd()</text>
<text text-anchor="start" x="65.5" y="-157.5" font-family="FreeSans" font-size="10.00">+ ~DebuggerCmd()</text>
<text text-anchor="start" x="65.5" y="-146.5" font-family="FreeSans" font-size="10.00">+ Action()</text>
<text text-anchor="start" x="65.5" y="-135.5" font-family="FreeSans" font-size="10.00">+ ParseOutput()</text>
<text text-anchor="start" x="65.5" y="-124.5" font-family="FreeSans" font-size="10.00">+ IsContinueCommand()</text>
</a>
</g>
</g>
<!-- Node3&#45;&gt;Node2 -->
<g id="edge1" class="edge"><title>Node3&#45;&gt;Node2</title>
<path fill="none" stroke="midnightblue" d="M89.4399,-108.007C84.7627,-98.3458 80.0243,-88.5584 75.6672,-79.5585"/>
<polygon fill="none" stroke="midnightblue" points="86.3834,-109.726 93.8912,-117.201 92.6839,-106.676 86.3834,-109.726"/>
</g>
<!-- Node4 -->
<g id="node3" class="node"><title>Node4</title>
<g id="a_node3"><a doxygen="/media/alpha/Barracuda/cb_docs/src/wxTagFile.xml:http://docs.wxwidgets.org/3.0/" xlink:href="http://docs.wxwidgets.org/3.0/classwx_string.html" target="_top" xlink:title="{wxString\n|+ npos\l|+ wxString()\l+ wxString()\l+ wxString()\l+ wxString()\l+ wxString()\l+ wxString()\l+ wxString()\l+ wxString()\land 222 more...\l+ Format()\l+ FormatV()\l+ FromCDouble()\l+ FromDouble()\l+ From8BitData()\l+ From8BitData()\l+ FromAscii()\l+ FromAscii()\land 7 more...\l}">
<polygon fill="none" stroke="black" points="104.5,-1037.5 104.5,-1281.5 195.5,-1281.5 195.5,-1037.5 104.5,-1037.5"/>
<text text-anchor="middle" x="150" y="-1269.5" font-family="FreeSans" font-size="10.00">wxString</text>
<polyline fill="none" stroke="black" points="104.5,-1262.5 195.5,-1262.5 "/>
<text text-anchor="start" x="112.5" y="-1250.5" font-family="FreeSans" font-size="10.00">+ npos</text>
<polyline fill="none" stroke="black" points="104.5,-1243.5 195.5,-1243.5 "/>
<text text-anchor="start" x="112.5" y="-1231.5" font-family="FreeSans" font-size="10.00">+ wxString()</text>
<text text-anchor="start" x="112.5" y="-1220.5" font-family="FreeSans" font-size="10.00">+ wxString()</text>
<text text-anchor="start" x="112.5" y="-1209.5" font-family="FreeSans" font-size="10.00">+ wxString()</text>
<text text-anchor="start" x="112.5" y="-1198.5" font-family="FreeSans" font-size="10.00">+ wxString()</text>
<text text-anchor="start" x="112.5" y="-1187.5" font-family="FreeSans" font-size="10.00">+ wxString()</text>
<text text-anchor="start" x="112.5" y="-1176.5" font-family="FreeSans" font-size="10.00">+ wxString()</text>
<text text-anchor="start" x="112.5" y="-1165.5" font-family="FreeSans" font-size="10.00">+ wxString()</text>
<text text-anchor="start" x="112.5" y="-1154.5" font-family="FreeSans" font-size="10.00">+ wxString()</text>
<text text-anchor="start" x="112.5" y="-1143.5" font-family="FreeSans" font-size="10.00">and 222 more...</text>
<text text-anchor="start" x="112.5" y="-1132.5" font-family="FreeSans" font-size="10.00">+ Format()</text>
<text text-anchor="start" x="112.5" y="-1121.5" font-family="FreeSans" font-size="10.00">+ FormatV()</text>
<text text-anchor="start" x="112.5" y="-1110.5" font-family="FreeSans" font-size="10.00">+ FromCDouble()</text>
<text text-anchor="start" x="112.5" y="-1099.5" font-family="FreeSans" font-size="10.00">+ FromDouble()</text>
<text text-anchor="start" x="112.5" y="-1088.5" font-family="FreeSans" font-size="10.00">+ From8BitData()</text>
<text text-anchor="start" x="112.5" y="-1077.5" font-family="FreeSans" font-size="10.00">+ From8BitData()</text>
<text text-anchor="start" x="112.5" y="-1066.5" font-family="FreeSans" font-size="10.00">+ FromAscii()</text>
<text text-anchor="start" x="112.5" y="-1055.5" font-family="FreeSans" font-size="10.00">+ FromAscii()</text>
<text text-anchor="start" x="112.5" y="-1044.5" font-family="FreeSans" font-size="10.00">and 7 more...</text>
</a>
</g>
</g>
<!-- Node4&#45;&gt;Node2 -->
<g id="edge12" class="edge"><title>Node4&#45;&gt;Node2</title>
<path fill="none" stroke="#404040" d="M104.428,-1061.62C70.1277,-979.783 29,-858.515 29,-747.5 29,-747.5 29,-747.5 29,-167 29,-141.737 34.4303,-114.289 40.508,-91.4791"/>
<polygon fill="none" stroke="#404040" points="40.5794,-91.2243 38.3482,-84.367 43.8199,-79.6701 46.051,-86.5273 40.5794,-91.2243"/>
<text text-anchor="middle" x="49.5" y="-369.5" font-family="FreeSans" font-size="10.00"> +m_Title</text>
</g>
<!-- Node4&#45;&gt;Node3 -->
<g id="edge2" class="edge"><title>Node4&#45;&gt;Node3</title>
<path fill="none" stroke="#404040" d="M128.826,-1037.37C125.588,-1014.4 122.746,-990.514 121,-968 99.726,-693.737 109.611,-364.927 115.147,-230.658"/>
<polygon fill="none" stroke="#404040" points="115.147,-230.648 111.403,-224.486 115.652,-218.659 119.396,-224.822 115.147,-230.648"/>
<text text-anchor="middle" x="130.5" y="-499" font-family="FreeSans" font-size="10.00"> +m_Cmd</text>
</g>
<!-- Node5 -->
<g id="node4" class="node"><title>Node5</title>
<g id="a_node4"><a xlink:href="classDebuggerDriver" target="_top" xlink:title="{DebuggerDriver\n|# m_ProgramIsStopped\l# m_ChildPID\l# m_DCmds\l# m_QueueBusy\l# m_currentFrameNo\l# m_userSelectedFrameNo\l|+ DebuggerDriver()\l+ ~DebuggerDriver()\l+ Log()\l+ DebugLog()\l+ GetDebugger()\l+ AddDirectory()\l+ ClearDirectories()\l+ SetWorkingDirectory()\land 62 more...\l# ResetCursor()\l}">
<polygon fill="none" stroke="black" points="360,-266.5 360,-477.5 494,-477.5 494,-266.5 360,-266.5"/>
<text text-anchor="middle" x="427" y="-465.5" font-family="FreeSans" font-size="10.00">DebuggerDriver</text>
<polyline fill="none" stroke="black" points="360,-458.5 494,-458.5 "/>
<text text-anchor="start" x="368" y="-446.5" font-family="FreeSans" font-size="10.00"># m_ProgramIsStopped</text>
<text text-anchor="start" x="368" y="-435.5" font-family="FreeSans" font-size="10.00"># m_ChildPID</text>
<text text-anchor="start" x="368" y="-424.5" font-family="FreeSans" font-size="10.00"># m_DCmds</text>
<text text-anchor="start" x="368" y="-413.5" font-family="FreeSans" font-size="10.00"># m_QueueBusy</text>
<text text-anchor="start" x="368" y="-402.5" font-family="FreeSans" font-size="10.00"># m_currentFrameNo</text>
<text text-anchor="start" x="368" y="-391.5" font-family="FreeSans" font-size="10.00"># m_userSelectedFrameNo</text>
<polyline fill="none" stroke="black" points="360,-384.5 494,-384.5 "/>
<text text-anchor="start" x="368" y="-372.5" font-family="FreeSans" font-size="10.00">+ DebuggerDriver()</text>
<text text-anchor="start" x="368" y="-361.5" font-family="FreeSans" font-size="10.00">+ ~DebuggerDriver()</text>
<text text-anchor="start" x="368" y="-350.5" font-family="FreeSans" font-size="10.00">+ Log()</text>
<text text-anchor="start" x="368" y="-339.5" font-family="FreeSans" font-size="10.00">+ DebugLog()</text>
<text text-anchor="start" x="368" y="-328.5" font-family="FreeSans" font-size="10.00">+ GetDebugger()</text>
<text text-anchor="start" x="368" y="-317.5" font-family="FreeSans" font-size="10.00">+ AddDirectory()</text>
<text text-anchor="start" x="368" y="-306.5" font-family="FreeSans" font-size="10.00">+ ClearDirectories()</text>
<text text-anchor="start" x="368" y="-295.5" font-family="FreeSans" font-size="10.00">+ SetWorkingDirectory()</text>
<text text-anchor="start" x="368" y="-284.5" font-family="FreeSans" font-size="10.00">and 62 more...</text>
<text text-anchor="start" x="368" y="-273.5" font-family="FreeSans" font-size="10.00"># ResetCursor()</text>
</a>
</g>
</g>
<!-- Node4&#45;&gt;Node5 -->
<g id="edge9" class="edge"><title>Node4&#45;&gt;Node5</title>
<path fill="none" stroke="#404040" d="M137.758,-1037.33C124.008,-878.011 109.549,-608.529 159,-525 199.917,-455.886 285.035,-415.556 348.426,-394.021"/>
<polygon fill="none" stroke="#404040" points="348.595,-393.966 353.045,-388.291 359.994,-390.216 355.544,-395.89 348.595,-393.966"/>
<text text-anchor="middle" x="209" y="-755" font-family="FreeSans" font-size="10.00"> #m_Args</text>
<text text-anchor="middle" x="209" y="-744" font-family="FreeSans" font-size="10.00">#m_LastCursorAddress</text>
<text text-anchor="middle" x="209" y="-733" font-family="FreeSans" font-size="10.00">#m_WorkingDir</text>
</g>
<!-- Node7 -->
<g id="node6" class="node"><title>Node7</title>
<g id="a_node6"><a xlink:href="structCursor" target="_top" xlink:title="Debugger cursor info. ">
<polygon fill="none" stroke="black" points="268,-712.5 268,-780.5 330,-780.5 330,-712.5 268,-712.5"/>
<text text-anchor="middle" x="299" y="-768.5" font-family="FreeSans" font-size="10.00">Cursor</text>
<polyline fill="none" stroke="black" points="268,-761.5 330,-761.5 "/>
<text text-anchor="start" x="276" y="-749.5" font-family="FreeSans" font-size="10.00">+ line</text>
<text text-anchor="start" x="276" y="-738.5" font-family="FreeSans" font-size="10.00">+ changed</text>
<polyline fill="none" stroke="black" points="268,-731.5 330,-731.5 "/>
<text text-anchor="start" x="276" y="-719.5" font-family="FreeSans" font-size="10.00">+ Cursor()</text>
</a>
</g>
</g>
<!-- Node4&#45;&gt;Node7 -->
<g id="edge6" class="edge"><title>Node4&#45;&gt;Node7</title>
<path fill="none" stroke="#404040" d="M195.561,-1087.18C216.034,-1052.38 238.926,-1009.23 254,-968 275.399,-909.471 287.602,-838.277 293.76,-792.921"/>
<polygon fill="none" stroke="#404040" points="293.783,-792.744 290.595,-786.276 295.34,-780.846 298.528,-787.314 293.783,-792.744"/>
<text text-anchor="middle" x="266.5" y="-1011" font-family="FreeSans" font-size="10.00"> +file</text>
<text text-anchor="middle" x="266.5" y="-1000" font-family="FreeSans" font-size="10.00">+address</text>
<text text-anchor="middle" x="266.5" y="-989" font-family="FreeSans" font-size="10.00">+function</text>
</g>
<!-- Node10 -->
<g id="node9" class="node"><title>Node10</title>
<g id="a_node9"><a xlink:href="classDebuggerGDB" target="_top" xlink:title="{DebuggerGDB\n|&#45; m_LastExitCode\l&#45; m_Pid\l&#45; m_PidToAttach\l&#45; m_NoDebugInfo\l&#45; m_StoppedOnSignal\l&#45; m_HookId\l&#45; m_bIsConsole\l&#45; m_stopDebuggerConsoleClosed\land 6 more...\l|+ DebuggerGDB()\l+ ~DebuggerGDB()\l+ GetProjectConfigurationPanel()\l+ OnAttachReal()\l+ OnReleaseReal()\l+ SupportsFeature()\l+ LoadConfig()\l+ GetActiveConfigEx()\land 60 more...\l+ ConvertToGDBFriendly()\l+ ConvertToGDBFile()\l+ ConvertToGDBDirectory()\l+ StripQuotes()\l# GetProject()\l# ResetProject()\l# ConvertDirectory()\l# CleanupWhenProjectClosed()\l# CompilerFinished()\l# AddSourceDir()\l&#45; ParseOutput()\l&#45; DoWatches()\l&#45; MarkAllWatchesAsUnchanged()\l&#45; LaunchProcess()\l&#45; DoDebug()\l&#45; DoBreak()\l&#45; OnAddSymbolFile()\l&#45; DeleteAllProjectBreakpoints()\land 21 more...\l}">
<polygon fill="none" stroke="red" points="348,-525.5 348,-967.5 506,-967.5 506,-525.5 348,-525.5"/>
<text text-anchor="middle" x="427" y="-955.5" font-family="FreeSans" font-size="10.00">DebuggerGDB</text>
<polyline fill="none" stroke="red" points="348,-948.5 506,-948.5 "/>
<text text-anchor="start" x="356" y="-936.5" font-family="FreeSans" font-size="10.00">&#45; m_LastExitCode</text>
<text text-anchor="start" x="356" y="-925.5" font-family="FreeSans" font-size="10.00">&#45; m_Pid</text>
<text text-anchor="start" x="356" y="-914.5" font-family="FreeSans" font-size="10.00">&#45; m_PidToAttach</text>
<text text-anchor="start" x="356" y="-903.5" font-family="FreeSans" font-size="10.00">&#45; m_NoDebugInfo</text>
<text text-anchor="start" x="356" y="-892.5" font-family="FreeSans" font-size="10.00">&#45; m_StoppedOnSignal</text>
<text text-anchor="start" x="356" y="-881.5" font-family="FreeSans" font-size="10.00">&#45; m_HookId</text>
<text text-anchor="start" x="356" y="-870.5" font-family="FreeSans" font-size="10.00">&#45; m_bIsConsole</text>
<text text-anchor="start" x="356" y="-859.5" font-family="FreeSans" font-size="10.00">&#45; m_stopDebuggerConsoleClosed</text>
<text text-anchor="start" x="356" y="-848.5" font-family="FreeSans" font-size="10.00">and 6 more...</text>
<polyline fill="none" stroke="red" points="348,-841.5 506,-841.5 "/>
<text text-anchor="start" x="356" y="-829.5" font-family="FreeSans" font-size="10.00">+ DebuggerGDB()</text>
<text text-anchor="start" x="356" y="-818.5" font-family="FreeSans" font-size="10.00">+ ~DebuggerGDB()</text>
<text text-anchor="start" x="356" y="-807.5" font-family="FreeSans" font-size="10.00">+ GetProjectConfigurationPanel()</text>
<text text-anchor="start" x="356" y="-796.5" font-family="FreeSans" font-size="10.00">+ OnAttachReal()</text>
<text text-anchor="start" x="356" y="-785.5" font-family="FreeSans" font-size="10.00">+ OnReleaseReal()</text>
<text text-anchor="start" x="356" y="-774.5" font-family="FreeSans" font-size="10.00">+ SupportsFeature()</text>
<text text-anchor="start" x="356" y="-763.5" font-family="FreeSans" font-size="10.00">+ LoadConfig()</text>
<text text-anchor="start" x="356" y="-752.5" font-family="FreeSans" font-size="10.00">+ GetActiveConfigEx()</text>
<text text-anchor="start" x="356" y="-741.5" font-family="FreeSans" font-size="10.00">and 60 more...</text>
<text text-anchor="start" x="356" y="-730.5" font-family="FreeSans" font-size="10.00">+ ConvertToGDBFriendly()</text>
<text text-anchor="start" x="356" y="-719.5" font-family="FreeSans" font-size="10.00">+ ConvertToGDBFile()</text>
<text text-anchor="start" x="356" y="-708.5" font-family="FreeSans" font-size="10.00">+ ConvertToGDBDirectory()</text>
<text text-anchor="start" x="356" y="-697.5" font-family="FreeSans" font-size="10.00">+ StripQuotes()</text>
<text text-anchor="start" x="356" y="-686.5" font-family="FreeSans" font-size="10.00"># GetProject()</text>
<text text-anchor="start" x="356" y="-675.5" font-family="FreeSans" font-size="10.00"># ResetProject()</text>
<text text-anchor="start" x="356" y="-664.5" font-family="FreeSans" font-size="10.00"># ConvertDirectory()</text>
<text text-anchor="start" x="356" y="-653.5" font-family="FreeSans" font-size="10.00"># CleanupWhenProjectClosed()</text>
<text text-anchor="start" x="356" y="-642.5" font-family="FreeSans" font-size="10.00"># CompilerFinished()</text>
<text text-anchor="start" x="356" y="-631.5" font-family="FreeSans" font-size="10.00"># AddSourceDir()</text>
<text text-anchor="start" x="356" y="-620.5" font-family="FreeSans" font-size="10.00">&#45; ParseOutput()</text>
<text text-anchor="start" x="356" y="-609.5" font-family="FreeSans" font-size="10.00">&#45; DoWatches()</text>
<text text-anchor="start" x="356" y="-598.5" font-family="FreeSans" font-size="10.00">&#45; MarkAllWatchesAsUnchanged()</text>
<text text-anchor="start" x="356" y="-587.5" font-family="FreeSans" font-size="10.00">&#45; LaunchProcess()</text>
<text text-anchor="start" x="356" y="-576.5" font-family="FreeSans" font-size="10.00">&#45; DoDebug()</text>
<text text-anchor="start" x="356" y="-565.5" font-family="FreeSans" font-size="10.00">&#45; DoBreak()</text>
<text text-anchor="start" x="356" y="-554.5" font-family="FreeSans" font-size="10.00">&#45; OnAddSymbolFile()</text>
<text text-anchor="start" x="356" y="-543.5" font-family="FreeSans" font-size="10.00">&#45; DeleteAllProjectBreakpoints()</text>
<text text-anchor="start" x="356" y="-532.5" font-family="FreeSans" font-size="10.00">and 21 more...</text>
</a>
</g>
</g>
<!-- Node4&#45;&gt;Node10 -->
<g id="edge11" class="edge"><title>Node4&#45;&gt;Node10</title>
<path fill="none" stroke="#404040" d="M195.701,-1122.4C237.905,-1086.99 299.814,-1029.49 339,-968 339.857,-966.656 340.708,-965.302 341.553,-963.939"/>
<polygon fill="none" stroke="#404040" points="341.748,-963.614 341.401,-956.411 347.917,-953.321 348.263,-960.524 341.748,-963.614"/>
<text text-anchor="middle" x="392.5" y="-1005.5" font-family="FreeSans" font-size="10.00"> &#45;m_ActiveBuildTarget</text>
<text text-anchor="middle" x="392.5" y="-994.5" font-family="FreeSans" font-size="10.00">&#45;m_watchToDereferenceSymbol</text>
</g>
<!-- Node5&#45;&gt;Node3 -->
<g id="edge3" class="edge"><title>Node5&#45;&gt;Node3</title>
<path fill="none" stroke="#404040" d="M359.952,-327.169C309.47,-294.168 240.415,-249.025 188.998,-215.413"/>
<polygon fill="none" stroke="#404040" points="188.678,-215.204 181.467,-215.269 178.634,-208.638 185.845,-208.573 188.678,-215.204"/>
<text text-anchor="middle" x="262" y="-240" font-family="FreeSans" font-size="10.00"> #m_pDriver</text>
</g>
<!-- Node6 -->
<g id="node5" class="node"><title>Node6</title>
<g id="a_node5"><a doxygen="/media/alpha/Barracuda/cb_docs/src/wxTagFile.xml:http://docs.wxwidgets.org/3.0/" xlink:href="http://docs.wxwidgets.org/3.0/classwx_array_string.html" target="_top" xlink:title="{wxArrayString\n||+ wxArrayString()\l+ wxArrayString()\l+ wxArrayString()\l+ ~wxArrayString()\l+ Add()\l+ Alloc()\l+ Clear()\l+ Empty()\land 19 more...\l}">
<polygon fill="none" stroke="black" points="524.5,-674 524.5,-819 619.5,-819 619.5,-674 524.5,-674"/>
<text text-anchor="middle" x="572" y="-807" font-family="FreeSans" font-size="10.00">wxArrayString</text>
<polyline fill="none" stroke="black" points="524.5,-800 619.5,-800 "/>
<text text-anchor="middle" x="572" y="-788" font-family="FreeSans" font-size="10.00"> </text>
<polyline fill="none" stroke="black" points="524.5,-781 619.5,-781 "/>
<text text-anchor="start" x="532.5" y="-769" font-family="FreeSans" font-size="10.00">+ wxArrayString()</text>
<text text-anchor="start" x="532.5" y="-758" font-family="FreeSans" font-size="10.00">+ wxArrayString()</text>
<text text-anchor="start" x="532.5" y="-747" font-family="FreeSans" font-size="10.00">+ wxArrayString()</text>
<text text-anchor="start" x="532.5" y="-736" font-family="FreeSans" font-size="10.00">+ ~wxArrayString()</text>
<text text-anchor="start" x="532.5" y="-725" font-family="FreeSans" font-size="10.00">+ Add()</text>
<text text-anchor="start" x="532.5" y="-714" font-family="FreeSans" font-size="10.00">+ Alloc()</text>
<text text-anchor="start" x="532.5" y="-703" font-family="FreeSans" font-size="10.00">+ Clear()</text>
<text text-anchor="start" x="532.5" y="-692" font-family="FreeSans" font-size="10.00">+ Empty()</text>
<text text-anchor="start" x="532.5" y="-681" font-family="FreeSans" font-size="10.00">and 19 more...</text>
</a>
</g>
</g>
<!-- Node6&#45;&gt;Node5 -->
<g id="edge4" class="edge"><title>Node6&#45;&gt;Node5</title>
<path fill="none" stroke="#404040" d="M558.657,-673.909C549.215,-629.978 534.714,-573.112 515,-525 510.087,-513.011 504.381,-500.814 498.28,-488.808"/>
<polygon fill="none" stroke="#404040" points="498.116,-488.493 491.798,-485.017 492.577,-477.848 498.895,-481.324 498.116,-488.493"/>
<text text-anchor="middle" x="525" y="-499" font-family="FreeSans" font-size="10.00"> #m_Dirs</text>
</g>
<!-- Node7&#45;&gt;Node5 -->
<g id="edge5" class="edge"><title>Node7&#45;&gt;Node5</title>
<path fill="none" stroke="#404040" d="M301.427,-712.439C305.448,-668.481 315.518,-588.908 339,-525 343.428,-512.948 348.781,-500.748 354.634,-488.775"/>
<polygon fill="none" stroke="#404040" points="354.737,-488.57 353.865,-481.412 360.138,-477.854 361.009,-485.012 354.737,-488.57"/>
<text text-anchor="middle" x="375.5" y="-499" font-family="FreeSans" font-size="10.00"> #m_Cursor</text>
</g>
<!-- Node8 -->
<g id="node7" class="node"><title>Node8</title>
<polygon fill="none" stroke="#bfbfbf" points="638,-712.5 638,-780.5 750,-780.5 750,-712.5 638,-712.5"/>
<text text-anchor="start" x="646" y="-768.5" font-family="FreeSans" font-size="10.00">std::vector&lt; cb::shared</text>
<text text-anchor="middle" x="694" y="-757.5" font-family="FreeSans" font-size="10.00">_ptr&lt; cbThread &gt; &gt;</text>
<polyline fill="none" stroke="#bfbfbf" points="638,-750.5 750,-750.5 "/>
<text text-anchor="start" x="646" y="-738.5" font-family="FreeSans" font-size="10.00">+ elements</text>
<polyline fill="none" stroke="#bfbfbf" points="638,-731.5 750,-731.5 "/>
<text text-anchor="middle" x="694" y="-719.5" font-family="FreeSans" font-size="10.00"> </text>
</g>
<!-- Node8&#45;&gt;Node5 -->
<g id="edge7" class="edge"><title>Node8&#45;&gt;Node5</title>
<path fill="none" stroke="#404040" d="M690.602,-712.448C684.544,-666.731 668.462,-583.254 628,-525 596.296,-479.356 546.567,-441.584 504.506,-415.111"/>
<polygon fill="none" stroke="#404040" points="504.484,-415.098 497.277,-415.35 494.273,-408.795 501.479,-408.543 504.484,-415.098"/>
<text text-anchor="middle" x="638.5" y="-499" font-family="FreeSans" font-size="10.00"> #m_threads</text>
</g>
<!-- Node9 -->
<g id="node8" class="node"><title>Node9</title>
<polygon fill="none" stroke="#bfbfbf" points="768,-712.5 768,-780.5 890,-780.5 890,-712.5 768,-712.5"/>
<text text-anchor="start" x="776" y="-768.5" font-family="FreeSans" font-size="10.00">std::vector&lt; cb::shared</text>
<text text-anchor="middle" x="829" y="-757.5" font-family="FreeSans" font-size="10.00">_ptr&lt; cbStackFrame &gt; &gt;</text>
<polyline fill="none" stroke="#bfbfbf" points="768,-750.5 890,-750.5 "/>
<text text-anchor="start" x="776" y="-738.5" font-family="FreeSans" font-size="10.00">+ elements</text>
<polyline fill="none" stroke="#bfbfbf" points="768,-731.5 890,-731.5 "/>
<text text-anchor="middle" x="829" y="-719.5" font-family="FreeSans" font-size="10.00"> </text>
</g>
<!-- Node9&#45;&gt;Node5 -->
<g id="edge8" class="edge"><title>Node9&#45;&gt;Node5</title>
<path fill="none" stroke="#404040" d="M826.742,-712.267C821.884,-665.192 806.644,-578.84 759,-525 692.405,-449.745 580.985,-409.407 505.787,-389.599"/>
<polygon fill="none" stroke="#404040" points="505.667,-389.568 498.863,-391.956 494.042,-386.594 500.846,-384.206 505.667,-389.568"/>
<text text-anchor="middle" x="770" y="-499" font-family="FreeSans" font-size="10.00"> #m_backtrace</text>
</g>
<!-- Node10&#45;&gt;Node5 -->
<g id="edge10" class="edge"><title>Node10&#45;&gt;Node5</title>
<path fill="none" stroke="#404040" d="M427,-525.316C427,-513.302 427,-501.483 427,-490.068"/>
<polygon fill="none" stroke="#404040" points="427,-489.85 423,-483.85 427,-477.85 431,-483.85 427,-489.85"/>
<text text-anchor="middle" x="451" y="-499" font-family="FreeSans" font-size="10.00"> #m_pDBG</text>
</g>
</g>
</svg>
