<?xml version="1.0" encoding="UTF-8" standalone="no"?>
<!DOCTYPE svg PUBLIC "-//W3C//DTD SVG 1.1//EN"
 "http://www.w3.org/Graphics/SVG/1.1/DTD/svg11.dtd">
<!-- Generated by graphviz version 2.38.0 (20140413.2041)
 -->
<!-- Title: IncrementalSelectListDlg Pages: 1 -->
<svg width="160pt" height="612pt"
 viewBox="0.00 0.00 160.00 612.00" xmlns="http://www.w3.org/2000/svg" xmlns:xlink="http://www.w3.org/1999/xlink">
<g id="graph0" class="graph" transform="scale(1 1) rotate(0) translate(4 608)">
<title>IncrementalSelectListDlg</title>
<!-- Node0 -->
<g id="node1" class="node"><title>Node0</title>
<polygon fill="#bfbfbf" stroke="black" points="4,-0.5 4,-134.5 148,-134.5 148,-0.5 4,-0.5"/>
<text text-anchor="middle" x="76" y="-122.5" font-family="FreeSans" font-size="10.00">IncrementalSelectListDlg</text>
<polyline fill="none" stroke="black" points="4,-115.5 148,-115.5 "/>
<text text-anchor="middle" x="76" y="-103.5" font-family="FreeSans" font-size="10.00"> </text>
<polyline fill="none" stroke="black" points="4,-96.5 148,-96.5 "/>
<text text-anchor="start" x="12" y="-84.5" font-family="FreeSans" font-size="10.00">+ IncrementalSelectListDlg()</text>
<text text-anchor="start" x="12" y="-73.5" font-family="FreeSans" font-size="10.00">+ ~IncrementalSelectListDlg()</text>
<text text-anchor="start" x="12" y="-62.5" font-family="FreeSans" font-size="10.00">+ GetStringSelection()</text>
<text text-anchor="start" x="12" y="-51.5" font-family="FreeSans" font-size="10.00">+ GetSelection()</text>
<text text-anchor="start" x="12" y="-40.5" font-family="FreeSans" font-size="10.00"># GetCurrentSelection()</text>
<text text-anchor="start" x="12" y="-29.5" font-family="FreeSans" font-size="10.00"># UpdateCurrentSelection()</text>
<text text-anchor="start" x="12" y="-18.5" font-family="FreeSans" font-size="10.00"># FillData()</text>
<text text-anchor="start" x="12" y="-7.5" font-family="FreeSans" font-size="10.00">&#45; DECLARE_EVENT_TABLE()</text>
</g>
<!-- Node1 -->
<g id="node2" class="node"><title>Node1</title>
<g id="a_node2"><a xlink:href="classIncrementalSelectListBase" target="_top" xlink:title="{IncrementalSelectListBase\n|# m_List\l# m_Text\l# m_Result\l# m_Indexes\l# m_Promoted\l# m_Iterator\l|+ IncrementalSelectListBase()\l+ ~IncrementalSelectListBase()\l+ OnSearch()\l+ OnSelect()\l+ OnKeyDown()\l# FilterItems()\l# KeyDownAction()\l# FillList()\l# FillData()\l# GetCurrentSelection()\l# UpdateCurrentSelection()\l&#45; DECLARE_EVENT_TABLE()\l}">
<polygon fill="none" stroke="black" points="0,-171.5 0,-404.5 152,-404.5 152,-171.5 0,-171.5"/>
<text text-anchor="middle" x="76" y="-392.5" font-family="FreeSans" font-size="10.00">IncrementalSelectListBase</text>
<polyline fill="none" stroke="black" points="0,-385.5 152,-385.5 "/>
<text text-anchor="start" x="8" y="-373.5" font-family="FreeSans" font-size="10.00"># m_List</text>
<text text-anchor="start" x="8" y="-362.5" font-family="FreeSans" font-size="10.00"># m_Text</text>
<text text-anchor="start" x="8" y="-351.5" font-family="FreeSans" font-size="10.00"># m_Result</text>
<text text-anchor="start" x="8" y="-340.5" font-family="FreeSans" font-size="10.00"># m_Indexes</text>
<text text-anchor="start" x="8" y="-329.5" font-family="FreeSans" font-size="10.00"># m_Promoted</text>
<text text-anchor="start" x="8" y="-318.5" font-family="FreeSans" font-size="10.00"># m_Iterator</text>
<polyline fill="none" stroke="black" points="0,-311.5 152,-311.5 "/>
<text text-anchor="start" x="8" y="-299.5" font-family="FreeSans" font-size="10.00">+ IncrementalSelectListBase()</text>
<text text-anchor="start" x="8" y="-288.5" font-family="FreeSans" font-size="10.00">+ ~IncrementalSelectListBase()</text>
<text text-anchor="start" x="8" y="-277.5" font-family="FreeSans" font-size="10.00">+ OnSearch()</text>
<text text-anchor="start" x="8" y="-266.5" font-family="FreeSans" font-size="10.00">+ OnSelect()</text>
<text text-anchor="start" x="8" y="-255.5" font-family="FreeSans" font-size="10.00">+ OnKeyDown()</text>
<text text-anchor="start" x="8" y="-244.5" font-family="FreeSans" font-size="10.00"># FilterItems()</text>
<text text-anchor="start" x="8" y="-233.5" font-family="FreeSans" font-size="10.00"># KeyDownAction()</text>
<text text-anchor="start" x="8" y="-222.5" font-family="FreeSans" font-size="10.00"># FillList()</text>
<text text-anchor="start" x="8" y="-211.5" font-family="FreeSans" font-size="10.00"># FillData()</text>
<text text-anchor="start" x="8" y="-200.5" font-family="FreeSans" font-size="10.00"># GetCurrentSelection()</text>
<text text-anchor="start" x="8" y="-189.5" font-family="FreeSans" font-size="10.00"># UpdateCurrentSelection()</text>
<text text-anchor="start" x="8" y="-178.5" font-family="FreeSans" font-size="10.00">&#45; DECLARE_EVENT_TABLE()</text>
</a>
</g>
</g>
<!-- Node1&#45;&gt;Node0 -->
<g id="edge1" class="edge"><title>Node1&#45;&gt;Node0</title>
<path fill="none" stroke="midnightblue" d="M76,-161.063C76,-151.996 76,-143.087 76,-134.592"/>
<polygon fill="none" stroke="midnightblue" points="72.5001,-161.352 76,-171.352 79.5001,-161.352 72.5001,-161.352"/>
</g>
<!-- Node2 -->
<g id="node3" class="node"><title>Node2</title>
<g id="a_node3"><a xlink:href="classwxScrollingDialog" target="_top" xlink:title="{wxScrollingDialog\n||+ wxScrollingDialog()\l+ wxScrollingDialog()\l}">
<polygon fill="none" stroke="black" points="22.5,-441.5 22.5,-509.5 129.5,-509.5 129.5,-441.5 22.5,-441.5"/>
<text text-anchor="middle" x="76" y="-497.5" font-family="FreeSans" font-size="10.00">wxScrollingDialog</text>
<polyline fill="none" stroke="black" points="22.5,-490.5 129.5,-490.5 "/>
<text text-anchor="middle" x="76" y="-478.5" font-family="FreeSans" font-size="10.00"> </text>
<polyline fill="none" stroke="black" points="22.5,-471.5 129.5,-471.5 "/>
<text text-anchor="start" x="30.5" y="-459.5" font-family="FreeSans" font-size="10.00">+ wxScrollingDialog()</text>
<text text-anchor="start" x="30.5" y="-448.5" font-family="FreeSans" font-size="10.00">+ wxScrollingDialog()</text>
</a>
</g>
</g>
<!-- Node2&#45;&gt;Node1 -->
<g id="edge2" class="edge"><title>Node2&#45;&gt;Node1</title>
<path fill="none" stroke="midnightblue" d="M76,-431.319C76,-423.074 76,-414.089 76,-404.773"/>
<polygon fill="none" stroke="midnightblue" points="72.5001,-431.336 76,-441.336 79.5001,-431.336 72.5001,-431.336"/>
</g>
<!-- Node3 -->
<g id="node4" class="node"><title>Node3</title>
<g id="a_node4"><a doxygen="/media/alpha/Barracuda/cb_docs/src/wxTagFile.xml:http://docs.wxwidgets.org/3.0/" xlink:href="http://docs.wxwidgets.org/3.0/classwx_dialog.html" target="_top" xlink:title="{wxDialog\n||+ ShowModal()\l}">
<polygon fill="none" stroke="red" points="35.5,-546.5 35.5,-603.5 116.5,-603.5 116.5,-546.5 35.5,-546.5"/>
<text text-anchor="middle" x="76" y="-591.5" font-family="FreeSans" font-size="10.00">wxDialog</text>
<polyline fill="none" stroke="red" points="35.5,-584.5 116.5,-584.5 "/>
<text text-anchor="middle" x="76" y="-572.5" font-family="FreeSans" font-size="10.00"> </text>
<polyline fill="none" stroke="red" points="35.5,-565.5 116.5,-565.5 "/>
<text text-anchor="start" x="43.5" y="-553.5" font-family="FreeSans" font-size="10.00">+ ShowModal()</text>
</a>
</g>
</g>
<!-- Node3&#45;&gt;Node2 -->
<g id="edge3" class="edge"><title>Node3&#45;&gt;Node2</title>
<path fill="none" stroke="midnightblue" d="M76,-536.063C76,-527.393 76,-518.243 76,-509.786"/>
<polygon fill="none" stroke="midnightblue" points="72.5001,-536.321 76,-546.321 79.5001,-536.321 72.5001,-536.321"/>
</g>
</g>
</svg>
