<?xml version="1.0" encoding="UTF-8" standalone="no"?>
<!DOCTYPE svg PUBLIC "-//W3C//DTD SVG 1.1//EN"
 "http://www.w3.org/Graphics/SVG/1.1/DTD/svg11.dtd">
<!-- Generated by graphviz version 2.38.0 (20140413.2041)
 -->
<!-- Title: cbThreadPool::cbWorkerThread Pages: 1 -->
<svg width="160pt" height="248pt"
 viewBox="0.00 0.00 160.00 248.00" xmlns="http://www.w3.org/2000/svg" xmlns:xlink="http://www.w3.org/1999/xlink">
<g id="graph0" class="graph" transform="scale(1 1) rotate(0) translate(4 244)">
<title>cbThreadPool::cbWorkerThread</title>
<!-- Node1 -->
<g id="node1" class="node"><title>Node1</title>
<polygon fill="#bfbfbf" stroke="black" points="0,-0.5 0,-145.5 152,-145.5 152,-0.5 0,-0.5"/>
<text text-anchor="middle" x="76" y="-133.5" font-family="FreeSans" font-size="10.00">cbThreadPool::cbWorkerThread</text>
<polyline fill="none" stroke="black" points="0,-126.5 152,-126.5 "/>
<text text-anchor="start" x="8" y="-114.5" font-family="FreeSans" font-size="10.00">&#45; m_abort</text>
<text text-anchor="start" x="8" y="-103.5" font-family="FreeSans" font-size="10.00">&#45; m_pPool</text>
<text text-anchor="start" x="8" y="-92.5" font-family="FreeSans" font-size="10.00">&#45; m_semaphore</text>
<text text-anchor="start" x="8" y="-81.5" font-family="FreeSans" font-size="10.00">&#45; m_pTask</text>
<text text-anchor="start" x="8" y="-70.5" font-family="FreeSans" font-size="10.00">&#45; m_taskMutex</text>
<polyline fill="none" stroke="black" points="0,-63.5 152,-63.5 "/>
<text text-anchor="start" x="8" y="-51.5" font-family="FreeSans" font-size="10.00">+ cbWorkerThread()</text>
<text text-anchor="start" x="8" y="-40.5" font-family="FreeSans" font-size="10.00">+ Entry()</text>
<text text-anchor="start" x="8" y="-29.5" font-family="FreeSans" font-size="10.00">+ Abort()</text>
<text text-anchor="start" x="8" y="-18.5" font-family="FreeSans" font-size="10.00">+ Aborted()</text>
<text text-anchor="start" x="8" y="-7.5" font-family="FreeSans" font-size="10.00">+ AbortTask()</text>
</g>
<!-- Node2 -->
<g id="node2" class="node"><title>Node2</title>
<polygon fill="none" stroke="#bfbfbf" points="47,-182.5 47,-239.5 105,-239.5 105,-182.5 47,-182.5"/>
<text text-anchor="middle" x="76" y="-227.5" font-family="FreeSans" font-size="10.00">wxThread</text>
<polyline fill="none" stroke="#bfbfbf" points="47,-220.5 105,-220.5 "/>
<text text-anchor="middle" x="76" y="-208.5" font-family="FreeSans" font-size="10.00"> </text>
<polyline fill="none" stroke="#bfbfbf" points="47,-201.5 105,-201.5 "/>
<text text-anchor="middle" x="76" y="-189.5" font-family="FreeSans" font-size="10.00"> </text>
</g>
<!-- Node2&#45;&gt;Node1 -->
<g id="edge1" class="edge"><title>Node2&#45;&gt;Node1</title>
<path fill="none" stroke="midnightblue" d="M76,-172.356C76,-163.999 76,-154.872 76,-145.656"/>
<polygon fill="none" stroke="midnightblue" points="72.5001,-172.478 76,-182.478 79.5001,-172.478 72.5001,-172.478"/>
</g>
</g>
</svg>
