<?xml version="1.0" encoding="UTF-8" standalone="no"?>
<!DOCTYPE svg PUBLIC "-//W3C//DTD SVG 1.1//EN"
 "http://www.w3.org/Graphics/SVG/1.1/DTD/svg11.dtd">
<!-- Generated by graphviz version 2.38.0 (20140413.2041)
 -->
<!-- Title: WizGenericSingleChoiceList Pages: 1 -->
<svg width="379pt" height="535pt"
 viewBox="0.00 0.00 379.00 535.00" xmlns="http://www.w3.org/2000/svg" xmlns:xlink="http://www.w3.org/1999/xlink">
<g id="graph0" class="graph" transform="scale(1 1) rotate(0) translate(4 531)">
<title>WizGenericSingleChoiceList</title>
<polygon fill="white" stroke="none" points="-4,4 -4,-531 375,-531 375,4 -4,4"/>
<!-- Node1 -->
<g id="node1" class="node"><title>Node1</title>
<polygon fill="#bfbfbf" stroke="black" points="138,-0.5 138,-101.5 296,-101.5 296,-0.5 138,-0.5"/>
<text text-anchor="middle" x="217" y="-89.5" font-family="FreeSans" font-size="10.00">WizGenericSingleChoiceList</text>
<polyline fill="none" stroke="black" points="138,-82.5 296,-82.5 "/>
<text text-anchor="middle" x="217" y="-70.5" font-family="FreeSans" font-size="10.00"> </text>
<polyline fill="none" stroke="black" points="138,-63.5 296,-63.5 "/>
<text text-anchor="start" x="146" y="-51.5" font-family="FreeSans" font-size="10.00">+ WizGenericSingleChoiceList()</text>
<text text-anchor="start" x="146" y="-40.5" font-family="FreeSans" font-size="10.00">+ ~WizGenericSingleChoiceList()</text>
<text text-anchor="start" x="146" y="-29.5" font-family="FreeSans" font-size="10.00">+ GetChoice()</text>
<text text-anchor="start" x="146" y="-18.5" font-family="FreeSans" font-size="10.00">+ SetChoice()</text>
<text text-anchor="start" x="146" y="-7.5" font-family="FreeSans" font-size="10.00">+ OnPageChanging()</text>
</g>
<!-- Node2 -->
<g id="node2" class="node"><title>Node2</title>
<g id="a_node2"><a xlink:href="classWizPageBase" target="_top" xlink:title="{WizPageBase\n|&#45; m_PageName\l&#45; m_SkipPage\l|+ WizPageBase()\l+ ~WizPageBase()\l+ SkipPage()\l+ OnPageChanging()\l+ OnPageChanged()\l+ GetPrev()\l+ GetNext()\l+ GetPageName()\l+ GetSkipPage()\l+ SetSkipPage()\l}">
<polygon fill="white" stroke="black" points="78.5,-149.5 78.5,-316.5 185.5,-316.5 185.5,-149.5 78.5,-149.5"/>
<text text-anchor="middle" x="132" y="-304.5" font-family="FreeSans" font-size="10.00">WizPageBase</text>
<polyline fill="none" stroke="black" points="78.5,-297.5 185.5,-297.5 "/>
<text text-anchor="start" x="86.5" y="-285.5" font-family="FreeSans" font-size="10.00">&#45; m_PageName</text>
<text text-anchor="start" x="86.5" y="-274.5" font-family="FreeSans" font-size="10.00">&#45; m_SkipPage</text>
<polyline fill="none" stroke="black" points="78.5,-267.5 185.5,-267.5 "/>
<text text-anchor="start" x="86.5" y="-255.5" font-family="FreeSans" font-size="10.00">+ WizPageBase()</text>
<text text-anchor="start" x="86.5" y="-244.5" font-family="FreeSans" font-size="10.00">+ ~WizPageBase()</text>
<text text-anchor="start" x="86.5" y="-233.5" font-family="FreeSans" font-size="10.00">+ SkipPage()</text>
<text text-anchor="start" x="86.5" y="-222.5" font-family="FreeSans" font-size="10.00">+ OnPageChanging()</text>
<text text-anchor="start" x="86.5" y="-211.5" font-family="FreeSans" font-size="10.00">+ OnPageChanged()</text>
<text text-anchor="start" x="86.5" y="-200.5" font-family="FreeSans" font-size="10.00">+ GetPrev()</text>
<text text-anchor="start" x="86.5" y="-189.5" font-family="FreeSans" font-size="10.00">+ GetNext()</text>
<text text-anchor="start" x="86.5" y="-178.5" font-family="FreeSans" font-size="10.00">+ GetPageName()</text>
<text text-anchor="start" x="86.5" y="-167.5" font-family="FreeSans" font-size="10.00">+ GetSkipPage()</text>
<text text-anchor="start" x="86.5" y="-156.5" font-family="FreeSans" font-size="10.00">+ SetSkipPage()</text>
</a>
</g>
</g>
<!-- Node2&#45;&gt;Node1 -->
<g id="edge1" class="edge"><title>Node2&#45;&gt;Node1</title>
<path fill="none" stroke="midnightblue" d="M175.372,-140.154C181.666,-126.825 187.934,-113.551 193.625,-101.5"/>
<polygon fill="none" stroke="midnightblue" points="172.122,-138.838 171.017,-149.375 178.452,-141.827 172.122,-138.838"/>
</g>
<!-- Node3 -->
<g id="node3" class="node"><title>Node3</title>
<polygon fill="white" stroke="#bfbfbf" points="0,-364.5 0,-421.5 110,-421.5 110,-364.5 0,-364.5"/>
<text text-anchor="middle" x="55" y="-409.5" font-family="FreeSans" font-size="10.00">wxWizardPageSimple</text>
<polyline fill="none" stroke="#bfbfbf" points="0,-402.5 110,-402.5 "/>
<text text-anchor="middle" x="55" y="-390.5" font-family="FreeSans" font-size="10.00"> </text>
<polyline fill="none" stroke="#bfbfbf" points="0,-383.5 110,-383.5 "/>
<text text-anchor="middle" x="55" y="-371.5" font-family="FreeSans" font-size="10.00"> </text>
</g>
<!-- Node3&#45;&gt;Node2 -->
<g id="edge2" class="edge"><title>Node3&#45;&gt;Node2</title>
<path fill="none" stroke="midnightblue" d="M72.8009,-355.473C78.5243,-343.729 85.1161,-330.203 91.7769,-316.536"/>
<polygon fill="none" stroke="midnightblue" points="69.647,-353.956 68.4124,-364.479 75.9396,-357.022 69.647,-353.956"/>
</g>
<!-- Node4 -->
<g id="node4" class="node"><title>Node4</title>
<g id="a_node4"><a xlink:title="STL class. ">
<polygon fill="white" stroke="#bfbfbf" points="128.5,-364.5 128.5,-421.5 215.5,-421.5 215.5,-364.5 128.5,-364.5"/>
<text text-anchor="middle" x="172" y="-409.5" font-family="FreeSans" font-size="10.00">std::map&lt; K, T &gt;</text>
<polyline fill="none" stroke="#bfbfbf" points="128.5,-402.5 215.5,-402.5 "/>
<text text-anchor="middle" x="172" y="-390.5" font-family="FreeSans" font-size="10.00"> </text>
<polyline fill="none" stroke="#bfbfbf" points="128.5,-383.5 215.5,-383.5 "/>
<text text-anchor="middle" x="172" y="-371.5" font-family="FreeSans" font-size="10.00"> </text>
</a>
</g>
</g>
<!-- Node4&#45;&gt;Node2 -->
<g id="edge3" class="edge"><title>Node4&#45;&gt;Node2</title>
<path fill="none" stroke="#404040" d="M165.033,-364.479C162.384,-354.016 159.195,-341.42 155.857,-328.235"/>
<polygon fill="none" stroke="#404040" points="155.84,-328.169 150.49,-323.334 152.895,-316.536 158.245,-321.371 155.84,-328.169"/>
<text text-anchor="middle" x="200.5" y="-338" font-family="FreeSans" font-size="10.00"> &#45;s_PagesByName</text>
</g>
<!-- Node5 -->
<g id="node5" class="node"><title>Node5</title>
<polygon fill="white" stroke="#bfbfbf" points="132.5,-469.5 132.5,-526.5 161.5,-526.5 161.5,-469.5 132.5,-469.5"/>
<text text-anchor="middle" x="147" y="-514.5" font-family="FreeSans" font-size="10.00">K</text>
<polyline fill="none" stroke="#bfbfbf" points="132.5,-507.5 161.5,-507.5 "/>
<text text-anchor="middle" x="147" y="-495.5" font-family="FreeSans" font-size="10.00"> </text>
<polyline fill="none" stroke="#bfbfbf" points="132.5,-488.5 161.5,-488.5 "/>
<text text-anchor="middle" x="147" y="-476.5" font-family="FreeSans" font-size="10.00"> </text>
</g>
<!-- Node5&#45;&gt;Node4 -->
<g id="edge4" class="edge"><title>Node5&#45;&gt;Node4</title>
<path fill="none" stroke="#404040" d="M144.939,-469.406C144.9,-459.956 145.608,-449.4 148,-440 148.583,-437.709 149.299,-435.403 150.114,-433.111"/>
<polygon fill="none" stroke="#404040" points="150.188,-432.937 148.843,-425.852 154.865,-421.886 156.21,-428.97 150.188,-432.937"/>
<text text-anchor="middle" x="162" y="-443" font-family="FreeSans" font-size="10.00"> +keys</text>
</g>
<!-- Node6 -->
<g id="node6" class="node"><title>Node6</title>
<polygon fill="white" stroke="#bfbfbf" points="183.5,-469.5 183.5,-526.5 212.5,-526.5 212.5,-469.5 183.5,-469.5"/>
<text text-anchor="middle" x="198" y="-514.5" font-family="FreeSans" font-size="10.00">T</text>
<polyline fill="none" stroke="#bfbfbf" points="183.5,-507.5 212.5,-507.5 "/>
<text text-anchor="middle" x="198" y="-495.5" font-family="FreeSans" font-size="10.00"> </text>
<polyline fill="none" stroke="#bfbfbf" points="183.5,-488.5 212.5,-488.5 "/>
<text text-anchor="middle" x="198" y="-476.5" font-family="FreeSans" font-size="10.00"> </text>
</g>
<!-- Node6&#45;&gt;Node4 -->
<g id="edge5" class="edge"><title>Node6&#45;&gt;Node4</title>
<path fill="none" stroke="#404040" d="M191.032,-469.398C188.264,-458.43 185.026,-445.603 182.014,-433.672"/>
<polygon fill="none" stroke="#404040" points="181.924,-433.313 176.577,-428.475 178.987,-421.678 184.334,-426.517 181.924,-433.313"/>
<text text-anchor="middle" x="210" y="-443" font-family="FreeSans" font-size="10.00"> +elements</text>
</g>
<!-- Node7 -->
<g id="node7" class="node"><title>Node7</title>
<g id="a_node7"><a xlink:href="classGenericSingleChoiceList" target="_top" xlink:title="{GenericSingleChoiceList\n|+ ID_STATICTEXT1\l+ ID_LISTBOX1\l# GenericChoiceList\l# lblDescr\l|+ GenericSingleChoiceList()\l+ ~GenericSingleChoiceList()\l+ SetChoices()\l+ GetChoice()\l+ SetChoice()\l+ SetDescription()\l}">
<polygon fill="white" stroke="black" points="204,-160.5 204,-305.5 346,-305.5 346,-160.5 204,-160.5"/>
<text text-anchor="middle" x="275" y="-293.5" font-family="FreeSans" font-size="10.00">GenericSingleChoiceList</text>
<polyline fill="none" stroke="black" points="204,-286.5 346,-286.5 "/>
<text text-anchor="start" x="212" y="-274.5" font-family="FreeSans" font-size="10.00">+ ID_STATICTEXT1</text>
<text text-anchor="start" x="212" y="-263.5" font-family="FreeSans" font-size="10.00">+ ID_LISTBOX1</text>
<text text-anchor="start" x="212" y="-252.5" font-family="FreeSans" font-size="10.00"># GenericChoiceList</text>
<text text-anchor="start" x="212" y="-241.5" font-family="FreeSans" font-size="10.00"># lblDescr</text>
<polyline fill="none" stroke="black" points="204,-234.5 346,-234.5 "/>
<text text-anchor="start" x="212" y="-222.5" font-family="FreeSans" font-size="10.00">+ GenericSingleChoiceList()</text>
<text text-anchor="start" x="212" y="-211.5" font-family="FreeSans" font-size="10.00">+ ~GenericSingleChoiceList()</text>
<text text-anchor="start" x="212" y="-200.5" font-family="FreeSans" font-size="10.00">+ SetChoices()</text>
<text text-anchor="start" x="212" y="-189.5" font-family="FreeSans" font-size="10.00">+ GetChoice()</text>
<text text-anchor="start" x="212" y="-178.5" font-family="FreeSans" font-size="10.00">+ SetChoice()</text>
<text text-anchor="start" x="212" y="-167.5" font-family="FreeSans" font-size="10.00">+ SetDescription()</text>
</a>
</g>
</g>
<!-- Node7&#45;&gt;Node1 -->
<g id="edge6" class="edge"><title>Node7&#45;&gt;Node1</title>
<path fill="none" stroke="#404040" d="M251.91,-160.342C246.9,-144.793 241.644,-128.481 236.775,-113.371"/>
<polygon fill="none" stroke="#404040" points="236.646,-112.969 230.998,-108.485 232.965,-101.548 238.613,-106.032 236.646,-112.969"/>
<text text-anchor="middle" x="306" y="-123" font-family="FreeSans" font-size="10.00"> &#45;m_pGenericSingleChoiceList</text>
</g>
<!-- Node8 -->
<g id="node8" class="node"><title>Node8</title>
<polygon fill="white" stroke="#bfbfbf" points="248.5,-364.5 248.5,-421.5 301.5,-421.5 301.5,-364.5 248.5,-364.5"/>
<text text-anchor="middle" x="275" y="-409.5" font-family="FreeSans" font-size="10.00">wxPanel</text>
<polyline fill="none" stroke="#bfbfbf" points="248.5,-402.5 301.5,-402.5 "/>
<text text-anchor="middle" x="275" y="-390.5" font-family="FreeSans" font-size="10.00"> </text>
<polyline fill="none" stroke="#bfbfbf" points="248.5,-383.5 301.5,-383.5 "/>
<text text-anchor="middle" x="275" y="-371.5" font-family="FreeSans" font-size="10.00"> </text>
</g>
<!-- Node8&#45;&gt;Node7 -->
<g id="edge7" class="edge"><title>Node8&#45;&gt;Node7</title>
<path fill="none" stroke="midnightblue" d="M275,-354.342C275,-339.722 275,-322.472 275,-305.668"/>
<polygon fill="none" stroke="midnightblue" points="271.5,-354.478 275,-364.479 278.5,-354.479 271.5,-354.478"/>
</g>
</g>
</svg>
