<?xml version="1.0" encoding="UTF-8" standalone="no"?>
<!DOCTYPE svg PUBLIC "-//W3C//DTD SVG 1.1//EN"
 "http://www.w3.org/Graphics/SVG/1.1/DTD/svg11.dtd">
<!-- Generated by graphviz version 2.38.0 (20140413.2041)
 -->
<!-- Title: classbrowser.h Pages: 1 -->
<svg width="1735pt" height="420pt"
 viewBox="0.00 0.00 1734.50 420.00" xmlns="http://www.w3.org/2000/svg" xmlns:xlink="http://www.w3.org/1999/xlink">
<g id="graph0" class="graph" transform="scale(1 1) rotate(0) translate(4 416)">
<title>classbrowser.h</title>
<!-- Node0 -->
<g id="node1" class="node"><title>Node0</title>
<polygon fill="#bfbfbf" stroke="black" points="551,-392.5 551,-411.5 630,-411.5 630,-392.5 551,-392.5"/>
<text text-anchor="middle" x="590.5" y="-399.5" font-family="FreeSans" font-size="10.00">classbrowser.h</text>
</g>
<!-- Node1 -->
<g id="node2" class="node"><title>Node1</title>
<polygon fill="none" stroke="#bfbfbf" points="344.5,-336.5 344.5,-355.5 406.5,-355.5 406.5,-336.5 344.5,-336.5"/>
<text text-anchor="middle" x="375.5" y="-343.5" font-family="FreeSans" font-size="10.00">wx/panel.h</text>
</g>
<!-- Node0&#45;&gt;Node1 -->
<g id="edge1" class="edge"><title>Node0&#45;&gt;Node1</title>
<path fill="none" stroke="midnightblue" d="M556.433,-392.444C518.446,-382.903 457.027,-367.477 416.455,-357.286"/>
<polygon fill="midnightblue" stroke="midnightblue" points="417.167,-353.857 406.616,-354.815 415.462,-360.646 417.167,-353.857"/>
</g>
<!-- Node2 -->
<g id="node3" class="node"><title>Node2</title>
<polygon fill="none" stroke="#bfbfbf" points="425,-336.5 425,-355.5 482,-355.5 482,-336.5 425,-336.5"/>
<text text-anchor="middle" x="453.5" y="-343.5" font-family="FreeSans" font-size="10.00">settings.h</text>
</g>
<!-- Node0&#45;&gt;Node2 -->
<g id="edge2" class="edge"><title>Node0&#45;&gt;Node2</title>
<path fill="none" stroke="midnightblue" d="M568.792,-392.444C546.145,-383.517 510.428,-369.439 484.748,-359.317"/>
<polygon fill="midnightblue" stroke="midnightblue" points="485.693,-355.927 475.106,-355.516 483.126,-362.44 485.693,-355.927"/>
</g>
<!-- Node3 -->
<g id="node4" class="node"><title>Node3</title>
<g id="a_node4"><a xlink:href="cbplugin_8h" target="_top" xlink:title="cbplugin.h">
<polygon fill="none" stroke="black" points="311.5,-224.5 311.5,-243.5 371.5,-243.5 371.5,-224.5 311.5,-224.5"/>
<text text-anchor="middle" x="341.5" y="-231.5" font-family="FreeSans" font-size="10.00">cbplugin.h</text>
</a>
</g>
</g>
<!-- Node0&#45;&gt;Node3 -->
<g id="edge3" class="edge"><title>Node0&#45;&gt;Node3</title>
<path fill="none" stroke="midnightblue" d="M577.463,-392.309C536.956,-365.304 413,-282.667 362.872,-249.248"/>
<polygon fill="midnightblue" stroke="midnightblue" points="364.67,-246.24 354.408,-243.605 360.787,-252.064 364.67,-246.24"/>
</g>
<!-- Node26 -->
<g id="node19" class="node"><title>Node26</title>
<polygon fill="none" stroke="#bfbfbf" points="974.5,-336.5 974.5,-355.5 1036.5,-355.5 1036.5,-336.5 974.5,-336.5"/>
<text text-anchor="middle" x="1005.5" y="-343.5" font-family="FreeSans" font-size="10.00">manager.h</text>
</g>
<!-- Node0&#45;&gt;Node26 -->
<g id="edge33" class="edge"><title>Node0&#45;&gt;Node26</title>
<path fill="none" stroke="midnightblue" d="M630.065,-397.19C697.907,-390.434 840.704,-375.236 960.5,-356 961.601,-355.823 962.717,-355.639 963.841,-355.448"/>
<polygon fill="midnightblue" stroke="midnightblue" points="964.864,-358.82 974.084,-353.601 963.622,-351.931 964.864,-358.82"/>
</g>
<!-- Node27 -->
<g id="node20" class="node"><title>Node27</title>
<g id="a_node20"><a xlink:href="cctreectrl_8h" target="_top" xlink:title="cctreectrl.h">
<polygon fill="none" stroke="black" points="675,-280.5 675,-299.5 740,-299.5 740,-280.5 675,-280.5"/>
<text text-anchor="middle" x="707.5" y="-287.5" font-family="FreeSans" font-size="10.00">cctreectrl.h</text>
</a>
</g>
</g>
<!-- Node0&#45;&gt;Node27 -->
<g id="edge34" class="edge"><title>Node0&#45;&gt;Node27</title>
<path fill="none" stroke="midnightblue" d="M599.681,-392.368C619.331,-373.894 665.707,-330.293 690.755,-306.744"/>
<polygon fill="midnightblue" stroke="midnightblue" points="693.474,-308.991 698.362,-299.591 688.679,-303.891 693.474,-308.991"/>
</g>
<!-- Node29 -->
<g id="node22" class="node"><title>Node29</title>
<g id="a_node22"><a xlink:href="parser_8h" target="_top" xlink:title="parser/parser.h">
<polygon fill="none" stroke="black" points="964.5,-224.5 964.5,-243.5 1044.5,-243.5 1044.5,-224.5 964.5,-224.5"/>
<text text-anchor="middle" x="1004.5" y="-231.5" font-family="FreeSans" font-size="10.00">parser/parser.h</text>
</a>
</g>
</g>
<!-- Node0&#45;&gt;Node29 -->
<g id="edge85" class="edge"><title>Node0&#45;&gt;Node29</title>
<path fill="none" stroke="midnightblue" d="M630,-400.273C682.88,-397.976 778.583,-389.117 852.5,-356 909.965,-330.254 964.451,-277.71 989.744,-251.145"/>
<polygon fill="midnightblue" stroke="midnightblue" points="992.347,-253.485 996.627,-243.793 987.237,-248.701 992.347,-253.485"/>
</g>
<!-- Node57 -->
<g id="node29" class="node"><title>Node57</title>
<g id="a_node29"><a xlink:href="token_8h" target="_top" xlink:title="token.h">
<polygon fill="none" stroke="red" points="629.5,-56.5 629.5,-75.5 677.5,-75.5 677.5,-56.5 629.5,-56.5"/>
<text text-anchor="middle" x="653.5" y="-63.5" font-family="FreeSans" font-size="10.00">token.h</text>
</a>
</g>
</g>
<!-- Node0&#45;&gt;Node57 -->
<g id="edge86" class="edge"><title>Node0&#45;&gt;Node57</title>
<path fill="none" stroke="midnightblue" d="M584.66,-392.308C573.12,-374.261 548.5,-331.066 548.5,-291 548.5,-291 548.5,-291 548.5,-177 548.5,-132.02 595.007,-98.1886 626.118,-80.5896"/>
<polygon fill="midnightblue" stroke="midnightblue" points="628.091,-83.5011 635.21,-75.6546 624.752,-77.3489 628.091,-83.5011"/>
</g>
<!-- Node62 -->
<g id="node31" class="node"><title>Node62</title>
<g id="a_node31"><a xlink:href="classbrowserbuilderthread_8h" target="_top" xlink:title="classbrowserbuilderthread.h">
<polygon fill="none" stroke="black" points="709.5,-336.5 709.5,-355.5 843.5,-355.5 843.5,-336.5 709.5,-336.5"/>
<text text-anchor="middle" x="776.5" y="-343.5" font-family="FreeSans" font-size="10.00">classbrowserbuilderthread.h</text>
</a>
</g>
</g>
<!-- Node0&#45;&gt;Node62 -->
<g id="edge75" class="edge"><title>Node0&#45;&gt;Node62</title>
<path fill="none" stroke="midnightblue" d="M619.972,-392.444C651.671,-383.241 702.232,-368.562 737.275,-358.388"/>
<polygon fill="midnightblue" stroke="midnightblue" points="738.538,-361.666 747.166,-355.516 736.586,-354.943 738.538,-361.666"/>
</g>
<!-- Node4 -->
<g id="node5" class="node"><title>Node4</title>
<polygon fill="none" stroke="#bfbfbf" points="819.5,-0.5 819.5,-19.5 879.5,-19.5 879.5,-0.5 819.5,-0.5"/>
<text text-anchor="middle" x="849.5" y="-7.5" font-family="FreeSans" font-size="10.00">wx/arrstr.h</text>
</g>
<!-- Node3&#45;&gt;Node4 -->
<g id="edge4" class="edge"><title>Node3&#45;&gt;Node4</title>
<path fill="none" stroke="midnightblue" d="M354.006,-224.241C366.638,-215.319 386.643,-200.988 403.5,-188 445.784,-155.42 453.006,-142.946 496.5,-112 535.194,-84.4691 543.07,-72.7681 587.5,-56 662.637,-27.643 756.682,-17.0447 809.213,-13.1648"/>
<polygon fill="midnightblue" stroke="midnightblue" points="809.726,-16.6377 819.46,-12.4549 809.242,-9.65449 809.726,-16.6377"/>
</g>
<!-- Node5 -->
<g id="node6" class="node"><title>Node5</title>
<polygon fill="none" stroke="#bfbfbf" points="1043.5,-0.5 1043.5,-19.5 1105.5,-19.5 1105.5,-0.5 1043.5,-0.5"/>
<text text-anchor="middle" x="1074.5" y="-7.5" font-family="FreeSans" font-size="10.00">wx/event.h</text>
</g>
<!-- Node3&#45;&gt;Node5 -->
<g id="edge5" class="edge"><title>Node3&#45;&gt;Node5</title>
<path fill="none" stroke="midnightblue" d="M360.151,-224.491C378.278,-215.984 406.381,-202.162 429.5,-188 473.496,-161.049 571.825,-73.1084 620.5,-56 696.202,-29.3921 936.471,-16.7137 1033.38,-12.5832"/>
<polygon fill="midnightblue" stroke="midnightblue" points="1033.55,-16.0795 1043.39,-12.1654 1033.25,-9.08563 1033.55,-16.0795"/>
</g>
<!-- Node6 -->
<g id="node7" class="node"><title>Node6</title>
<polygon fill="none" stroke="#bfbfbf" points="0,-0.5 0,-19.5 51,-19.5 51,-0.5 0,-0.5"/>
<text text-anchor="middle" x="25.5" y="-7.5" font-family="FreeSans" font-size="10.00">wx/intl.h</text>
</g>
<!-- Node3&#45;&gt;Node6 -->
<g id="edge6" class="edge"><title>Node3&#45;&gt;Node6</title>
<path fill="none" stroke="midnightblue" d="M311.467,-230.943C254.097,-226.457 131.75,-214.043 99.5,-188 49.2289,-147.404 32.653,-66.6858 27.5729,-29.9714"/>
<polygon fill="midnightblue" stroke="midnightblue" points="31.0038,-29.197 26.2993,-19.7039 24.057,-30.0588 31.0038,-29.197"/>
</g>
<!-- Node7 -->
<g id="node8" class="node"><title>Node7</title>
<polygon fill="none" stroke="#bfbfbf" points="622.5,-0.5 622.5,-19.5 684.5,-19.5 684.5,-0.5 622.5,-0.5"/>
<text text-anchor="middle" x="653.5" y="-7.5" font-family="FreeSans" font-size="10.00">wx/string.h</text>
</g>
<!-- Node3&#45;&gt;Node7 -->
<g id="edge7" class="edge"><title>Node3&#45;&gt;Node7</title>
<path fill="none" stroke="midnightblue" d="M348.522,-224.367C365.784,-203.47 412.261,-149.158 458.5,-112 495.518,-82.2528 507.378,-77.9299 549.5,-56 573.151,-43.6867 600.91,-31.7981 621.798,-23.3358"/>
<polygon fill="midnightblue" stroke="midnightblue" points="623.18,-26.5527 631.161,-19.5851 620.577,-20.0546 623.18,-26.5527"/>
</g>
<!-- Node8 -->
<g id="node9" class="node"><title>Node8</title>
<g id="a_node9"><a xlink:href="settings_8h" target="_top" xlink:title="settings.h">
<polygon fill="none" stroke="black" points="225,-0.5 225,-19.5 282,-19.5 282,-0.5 225,-0.5"/>
<text text-anchor="middle" x="253.5" y="-7.5" font-family="FreeSans" font-size="10.00">settings.h</text>
</a>
</g>
</g>
<!-- Node3&#45;&gt;Node8 -->
<g id="edge8" class="edge"><title>Node3&#45;&gt;Node8</title>
<path fill="none" stroke="midnightblue" d="M311.408,-231.333C257.264,-227.637 146.871,-216.688 123.5,-188 94.4368,-152.325 63.748,-175.57 172.5,-56 185.318,-41.9069 203.61,-31.223 219.569,-23.8099"/>
<polygon fill="midnightblue" stroke="midnightblue" points="221.381,-26.8369 229.134,-19.6156 218.57,-20.4261 221.381,-26.8369"/>
</g>
<!-- Node9 -->
<g id="node10" class="node"><title>Node9</title>
<g id="a_node10"><a xlink:href="globals_8h" target="_top" xlink:title="globals.h">
<polygon fill="none" stroke="red" points="314.5,-112.5 314.5,-131.5 368.5,-131.5 368.5,-112.5 314.5,-112.5"/>
<text text-anchor="middle" x="341.5" y="-119.5" font-family="FreeSans" font-size="10.00">globals.h</text>
</a>
</g>
</g>
<!-- Node3&#45;&gt;Node9 -->
<g id="edge9" class="edge"><title>Node3&#45;&gt;Node9</title>
<path fill="none" stroke="midnightblue" d="M341.5,-224.368C341.5,-206.617 341.5,-165.666 341.5,-141.597"/>
<polygon fill="midnightblue" stroke="midnightblue" points="345,-141.591 341.5,-131.591 338,-141.591 345,-141.591"/>
</g>
<!-- Node16 -->
<g id="node13" class="node"><title>Node16</title>
<g id="a_node13"><a xlink:href="logger_8h" target="_top" xlink:title="logger.h">
<polygon fill="none" stroke="black" points="371.5,-56.5 371.5,-75.5 421.5,-75.5 421.5,-56.5 371.5,-56.5"/>
<text text-anchor="middle" x="396.5" y="-63.5" font-family="FreeSans" font-size="10.00">logger.h</text>
</a>
</g>
</g>
<!-- Node3&#45;&gt;Node16 -->
<g id="edge15" class="edge"><title>Node3&#45;&gt;Node16</title>
<path fill="none" stroke="midnightblue" d="M344.752,-224.411C351.279,-207.058 366.309,-166.532 377.5,-132 382.54,-116.447 387.711,-98.6108 391.384,-85.5615"/>
<polygon fill="midnightblue" stroke="midnightblue" points="394.768,-86.4536 394.08,-75.8811 388.025,-84.5752 394.768,-86.4536"/>
</g>
<!-- Node17 -->
<g id="node14" class="node"><title>Node17</title>
<g id="a_node14"><a xlink:href="prep_8h" target="_top" xlink:title="prep.h">
<polygon fill="none" stroke="black" points="368,-0.5 368,-19.5 411,-19.5 411,-0.5 368,-0.5"/>
<text text-anchor="middle" x="389.5" y="-7.5" font-family="FreeSans" font-size="10.00">prep.h</text>
</a>
</g>
</g>
<!-- Node3&#45;&gt;Node17 -->
<g id="edge32" class="edge"><title>Node3&#45;&gt;Node17</title>
<path fill="none" stroke="midnightblue" d="M336.045,-224.417C316.494,-193.151 252.147,-85.6339 272.5,-56 282.49,-41.4539 326.774,-27.2791 357.894,-18.8422"/>
<polygon fill="midnightblue" stroke="midnightblue" points="359.098,-22.1443 367.874,-16.2088 357.312,-15.3759 359.098,-22.1443"/>
</g>
<!-- Node18 -->
<g id="node15" class="node"><title>Node18</title>
<g id="a_node15"><a xlink:href="manager_8h" target="_top" xlink:title="manager.h">
<polygon fill="none" stroke="red" points="196.5,-112.5 196.5,-131.5 258.5,-131.5 258.5,-112.5 196.5,-112.5"/>
<text text-anchor="middle" x="227.5" y="-119.5" font-family="FreeSans" font-size="10.00">manager.h</text>
</a>
</g>
</g>
<!-- Node3&#45;&gt;Node18 -->
<g id="edge19" class="edge"><title>Node3&#45;&gt;Node18</title>
<path fill="none" stroke="midnightblue" d="M324.596,-224.418C309.768,-216.351 288.185,-203.257 272.5,-188 258.091,-173.984 245.441,-154.732 237.253,-140.821"/>
<polygon fill="midnightblue" stroke="midnightblue" points="240.102,-138.752 232.118,-131.788 234.017,-142.211 240.102,-138.752"/>
</g>
<!-- Node23 -->
<g id="node17" class="node"><title>Node23</title>
<g id="a_node17"><a xlink:href="pluginmanager_8h" target="_top" xlink:title="pluginmanager.h">
<polygon fill="none" stroke="red" points="133,-168.5 133,-187.5 220,-187.5 220,-168.5 133,-168.5"/>
<text text-anchor="middle" x="176.5" y="-175.5" font-family="FreeSans" font-size="10.00">pluginmanager.h</text>
</a>
</g>
</g>
<!-- Node3&#45;&gt;Node23 -->
<g id="edge27" class="edge"><title>Node3&#45;&gt;Node23</title>
<path fill="none" stroke="midnightblue" d="M315.355,-224.444C287.477,-215.32 243.152,-200.813 212.1,-190.651"/>
<polygon fill="midnightblue" stroke="midnightblue" points="213.115,-187.3 202.522,-187.516 210.938,-193.953 213.115,-187.3"/>
</g>
<!-- Node9&#45;&gt;Node6 -->
<g id="edge13" class="edge"><title>Node9&#45;&gt;Node6</title>
<path fill="none" stroke="midnightblue" d="M316.967,-112.46C261.082,-93.0065 124.193,-45.3553 59.9061,-22.9768"/>
<polygon fill="midnightblue" stroke="midnightblue" points="60.8301,-19.5925 50.2353,-19.6104 58.5288,-26.2034 60.8301,-19.5925"/>
</g>
<!-- Node9&#45;&gt;Node7 -->
<g id="edge10" class="edge"><title>Node9&#45;&gt;Node7</title>
<path fill="none" stroke="midnightblue" d="M362.556,-112.494C394.536,-99.6799 457.358,-74.9115 511.5,-56 546.334,-43.8327 586.448,-31.2499 615.136,-22.4942"/>
<polygon fill="midnightblue" stroke="midnightblue" points="616.229,-25.8201 624.78,-19.5638 614.194,-19.1225 616.229,-25.8201"/>
</g>
<!-- Node9&#45;&gt;Node8 -->
<g id="edge14" class="edge"><title>Node9&#45;&gt;Node8</title>
<path fill="none" stroke="midnightblue" d="M320.805,-112.347C305.356,-104.876 284.862,-92.6501 272.5,-76 262.535,-62.5779 257.778,-44.0136 255.518,-30.16"/>
<polygon fill="midnightblue" stroke="midnightblue" points="258.935,-29.2988 254.148,-19.8471 251.996,-30.2211 258.935,-29.2988"/>
</g>
<!-- Node11 -->
<g id="node11" class="node"><title>Node11</title>
<polygon fill="none" stroke="#bfbfbf" points="695.5,-56.5 695.5,-75.5 763.5,-75.5 763.5,-56.5 695.5,-56.5"/>
<text text-anchor="middle" x="729.5" y="-63.5" font-family="FreeSans" font-size="10.00">wx/treectrl.h</text>
</g>
<!-- Node9&#45;&gt;Node11 -->
<g id="edge11" class="edge"><title>Node9&#45;&gt;Node11</title>
<path fill="none" stroke="midnightblue" d="M368.888,-118.15C425.863,-112.066 561.48,-96.7836 685.25,-76.1017"/>
<polygon fill="midnightblue" stroke="midnightblue" points="685.999,-79.5248 695.277,-74.4096 684.834,-72.6224 685.999,-79.5248"/>
</g>
<!-- Node12 -->
<g id="node12" class="node"><title>Node12</title>
<polygon fill="none" stroke="#bfbfbf" points="994.5,-56.5 994.5,-75.5 1044.5,-75.5 1044.5,-56.5 994.5,-56.5"/>
<text text-anchor="middle" x="1019.5" y="-63.5" font-family="FreeSans" font-size="10.00">wx/file.h</text>
</g>
<!-- Node9&#45;&gt;Node12 -->
<g id="edge12" class="edge"><title>Node9&#45;&gt;Node12</title>
<path fill="none" stroke="midnightblue" d="M368.696,-118.87C450.495,-112.46 701.452,-92.7524 909.5,-76 934.448,-73.9911 962.576,-71.6891 984.143,-69.9161"/>
<polygon fill="midnightblue" stroke="midnightblue" points="984.482,-73.4002 994.161,-69.0918 983.908,-66.4237 984.482,-73.4002"/>
</g>
<!-- Node16&#45;&gt;Node7 -->
<g id="edge17" class="edge"><title>Node16&#45;&gt;Node7</title>
<path fill="none" stroke="midnightblue" d="M421.656,-59.1044C426.257,-58.0518 431.02,-56.9793 435.5,-56 497.015,-42.5549 568.537,-27.9953 612.407,-19.1864"/>
<polygon fill="midnightblue" stroke="midnightblue" points="613.288,-22.5794 622.405,-17.1822 611.912,-15.7159 613.288,-22.5794"/>
</g>
<!-- Node16&#45;&gt;Node8 -->
<g id="edge18" class="edge"><title>Node16&#45;&gt;Node8</title>
<path fill="none" stroke="midnightblue" d="M373.841,-56.4435C350.098,-47.4776 312.591,-33.314 285.762,-23.1827"/>
<polygon fill="midnightblue" stroke="midnightblue" points="286.644,-19.7749 276.053,-19.5164 284.171,-26.3235 286.644,-19.7749"/>
</g>
<!-- Node16&#45;&gt;Node17 -->
<g id="edge16" class="edge"><title>Node16&#45;&gt;Node17</title>
<path fill="none" stroke="midnightblue" d="M395.344,-56.083C394.416,-48.9272 393.082,-38.6353 391.923,-29.6911"/>
<polygon fill="midnightblue" stroke="midnightblue" points="395.391,-29.2181 390.634,-19.7511 388.449,-30.1181 395.391,-29.2181"/>
</g>
<!-- Node18&#45;&gt;Node5 -->
<g id="edge20" class="edge"><title>Node18&#45;&gt;Node5</title>
<path fill="none" stroke="midnightblue" d="M258.655,-114.435C320.884,-101.532 465.102,-72.6729 587.5,-56 751.888,-33.6072 949.041,-19.1822 1033.18,-13.6071"/>
<polygon fill="midnightblue" stroke="midnightblue" points="1033.59,-17.0875 1043.34,-12.9404 1033.13,-10.1025 1033.59,-17.0875"/>
</g>
<!-- Node18&#45;&gt;Node8 -->
<g id="edge21" class="edge"><title>Node18&#45;&gt;Node8</title>
<path fill="none" stroke="midnightblue" d="M219.581,-112.476C208.954,-99.949 192.405,-75.8973 201.5,-56 207.277,-43.3602 218.552,-32.911 229.131,-25.2737"/>
<polygon fill="midnightblue" stroke="midnightblue" points="231.349,-28.0009 237.717,-19.5333 227.458,-22.1817 231.349,-28.0009"/>
</g>
<!-- Node21 -->
<g id="node16" class="node"><title>Node21</title>
<g id="a_node16"><a xlink:href="sdk__events_8h" target="_top" xlink:title="sdk_events.h">
<polygon fill="none" stroke="black" points="281.5,-56.5 281.5,-75.5 353.5,-75.5 353.5,-56.5 281.5,-56.5"/>
<text text-anchor="middle" x="317.5" y="-63.5" font-family="FreeSans" font-size="10.00">sdk_events.h</text>
</a>
</g>
</g>
<!-- Node18&#45;&gt;Node21 -->
<g id="edge22" class="edge"><title>Node18&#45;&gt;Node21</title>
<path fill="none" stroke="midnightblue" d="M241.96,-112.324C256,-103.9 277.548,-90.9709 294.043,-81.0741"/>
<polygon fill="midnightblue" stroke="midnightblue" points="296.302,-83.8007 303.076,-75.6545 292.7,-77.7983 296.302,-83.8007"/>
</g>
<!-- Node21&#45;&gt;Node5 -->
<g id="edge23" class="edge"><title>Node21&#45;&gt;Node5</title>
<path fill="none" stroke="midnightblue" d="M353.78,-57.3093C356.722,-56.8183 359.656,-56.3725 362.5,-56 428.92,-47.2991 891.544,-21.1679 1033.3,-13.2794"/>
<polygon fill="midnightblue" stroke="midnightblue" points="1033.54,-16.7716 1043.33,-12.722 1033.15,-9.78243 1033.54,-16.7716"/>
</g>
<!-- Node21&#45;&gt;Node6 -->
<g id="edge24" class="edge"><title>Node21&#45;&gt;Node6</title>
<path fill="none" stroke="midnightblue" d="M281.402,-58.3244C225.209,-47.9326 117.462,-28.0066 61.3939,-17.6379"/>
<polygon fill="midnightblue" stroke="midnightblue" points="61.6948,-14.1343 51.225,-15.7574 60.4218,-21.0176 61.6948,-14.1343"/>
</g>
<!-- Node21&#45;&gt;Node8 -->
<g id="edge25" class="edge"><title>Node21&#45;&gt;Node8</title>
<path fill="none" stroke="midnightblue" d="M307.217,-56.324C297.664,-48.2631 283.22,-36.0765 271.716,-26.3695"/>
<polygon fill="midnightblue" stroke="midnightblue" points="273.87,-23.6076 263.97,-19.8339 269.356,-28.9577 273.87,-23.6076"/>
</g>
<!-- Node21&#45;&gt;Node17 -->
<g id="edge26" class="edge"><title>Node21&#45;&gt;Node17</title>
<path fill="none" stroke="midnightblue" d="M329.068,-56.324C339.92,-48.1849 356.381,-35.8395 369.383,-26.0874"/>
<polygon fill="midnightblue" stroke="midnightblue" points="371.821,-28.6339 377.721,-19.8339 367.621,-23.0339 371.821,-28.6339"/>
</g>
<!-- Node23&#45;&gt;Node8 -->
<g id="edge30" class="edge"><title>Node23&#45;&gt;Node8</title>
<path fill="none" stroke="midnightblue" d="M169.782,-168.188C161.12,-155.708 147.91,-132.156 154.5,-112 167.208,-73.1315 205.282,-42.0888 230.339,-25.1403"/>
<polygon fill="midnightblue" stroke="midnightblue" points="232.45,-27.9423 238.91,-19.5454 228.623,-22.0806 232.45,-27.9423"/>
</g>
<!-- Node23&#45;&gt;Node9 -->
<g id="edge29" class="edge"><title>Node23&#45;&gt;Node9</title>
<path fill="none" stroke="midnightblue" d="M202.645,-168.444C230.523,-159.32 274.848,-144.813 305.9,-134.651"/>
<polygon fill="midnightblue" stroke="midnightblue" points="307.062,-137.953 315.478,-131.516 304.885,-131.3 307.062,-137.953"/>
</g>
<!-- Node23&#45;&gt;Node18 -->
<g id="edge31" class="edge"><title>Node23&#45;&gt;Node18</title>
<path fill="none" stroke="midnightblue" d="M184.922,-168.083C192.348,-160.22 203.352,-148.569 212.312,-139.081"/>
<polygon fill="midnightblue" stroke="midnightblue" points="214.913,-141.424 219.235,-131.751 209.824,-136.618 214.913,-141.424"/>
</g>
<!-- Node24 -->
<g id="node18" class="node"><title>Node24</title>
<polygon fill="none" stroke="#bfbfbf" points="314,-0.5 314,-19.5 343,-19.5 343,-0.5 314,-0.5"/>
<text text-anchor="middle" x="328.5" y="-7.5" font-family="FreeSans" font-size="10.00">set</text>
</g>
<!-- Node23&#45;&gt;Node24 -->
<g id="edge28" class="edge"><title>Node23&#45;&gt;Node24</title>
<path fill="none" stroke="midnightblue" d="M175.56,-168.381C173.685,-146.558 171.926,-88.5436 201.5,-56 215.482,-40.6134 271.282,-24.8976 304.082,-16.7288"/>
<polygon fill="midnightblue" stroke="midnightblue" points="304.954,-20.1189 313.841,-14.3517 303.297,-13.3177 304.954,-20.1189"/>
</g>
<!-- Node27&#45;&gt;Node11 -->
<g id="edge35" class="edge"><title>Node27&#45;&gt;Node11</title>
<path fill="none" stroke="midnightblue" d="M708.302,-280.155C710.66,-254.279 717.821,-176.483 724.5,-112 725.392,-103.391 726.441,-93.8626 727.348,-85.7985"/>
<polygon fill="midnightblue" stroke="midnightblue" points="730.853,-85.9537 728.503,-75.6227 723.898,-85.164 730.853,-85.9537"/>
</g>
<!-- Node28 -->
<g id="node21" class="node"><title>Node28</title>
<polygon fill="none" stroke="#bfbfbf" points="857,-56.5 857,-75.5 900,-75.5 900,-56.5 857,-56.5"/>
<text text-anchor="middle" x="878.5" y="-63.5" font-family="FreeSans" font-size="10.00">queue</text>
</g>
<!-- Node27&#45;&gt;Node28 -->
<g id="edge36" class="edge"><title>Node27&#45;&gt;Node28</title>
<path fill="none" stroke="midnightblue" d="M714.203,-280.297C739.737,-247.148 831.195,-128.414 865.435,-83.9613"/>
<polygon fill="midnightblue" stroke="midnightblue" points="868.328,-85.9418 871.657,-75.8837 862.782,-81.6702 868.328,-85.9418"/>
</g>
<!-- Node27&#45;&gt;Node29 -->
<g id="edge37" class="edge"><title>Node27&#45;&gt;Node29</title>
<path fill="none" stroke="midnightblue" d="M740.134,-283.067C791.842,-273.665 892.989,-255.275 954.078,-244.168"/>
<polygon fill="midnightblue" stroke="midnightblue" points="955.049,-247.549 964.261,-242.316 953.796,-240.662 955.049,-247.549"/>
</g>
<!-- Node27&#45;&gt;Node57 -->
<g id="edge74" class="edge"><title>Node27&#45;&gt;Node57</title>
<path fill="none" stroke="midnightblue" d="M705.383,-280.297C697.421,-247.563 669.159,-131.375 658.04,-85.6664"/>
<polygon fill="midnightblue" stroke="midnightblue" points="661.425,-84.7732 655.661,-75.8837 654.624,-86.4277 661.425,-84.7732"/>
</g>
<!-- Node29&#45;&gt;Node4 -->
<g id="edge38" class="edge"><title>Node29&#45;&gt;Node4</title>
<path fill="none" stroke="midnightblue" d="M1003.79,-224.469C1001.05,-196.745 988.89,-107.991 942.5,-56 928.43,-40.231 907.611,-29.445 889.236,-22.3955"/>
<polygon fill="midnightblue" stroke="midnightblue" points="890.214,-19.028 879.619,-18.9495 887.852,-25.6177 890.214,-19.028"/>
</g>
<!-- Node29&#45;&gt;Node5 -->
<g id="edge39" class="edge"><title>Node29&#45;&gt;Node5</title>
<path fill="none" stroke="midnightblue" d="M1044.9,-233.458C1172.5,-233.911 1562.51,-227.361 1631.5,-132 1694.11,-45.4601 1255.04,-18.8297 1115.87,-12.6078"/>
<polygon fill="midnightblue" stroke="midnightblue" points="1115.76,-9.09986 1105.62,-12.1624 1115.46,-16.0933 1115.76,-9.09986"/>
</g>
<!-- Node29&#45;&gt;Node7 -->
<g id="edge43" class="edge"><title>Node29&#45;&gt;Node7</title>
<path fill="none" stroke="midnightblue" d="M1001.06,-224.379C987.969,-192.002 940.445,-78.3783 909.5,-56 875.815,-31.6399 758.016,-19.0352 694.625,-13.8829"/>
<polygon fill="midnightblue" stroke="midnightblue" points="694.812,-10.3868 684.568,-13.0909 694.262,-17.3652 694.812,-10.3868"/>
</g>
<!-- Node29&#45;&gt;Node11 -->
<g id="edge46" class="edge"><title>Node29&#45;&gt;Node11</title>
<path fill="none" stroke="midnightblue" d="M985.902,-224.473C967.47,-215.844 938.585,-201.836 914.5,-188 853.056,-152.702 784.007,-105.377 750.287,-81.7359"/>
<polygon fill="midnightblue" stroke="midnightblue" points="751.941,-78.6197 741.749,-75.7256 747.912,-84.3438 751.941,-78.6197"/>
</g>
<!-- Node29&#45;&gt;Node12 -->
<g id="edge40" class="edge"><title>Node29&#45;&gt;Node12</title>
<path fill="none" stroke="midnightblue" d="M1005.31,-224.075C1007.67,-197.945 1014.6,-121.211 1017.82,-85.577"/>
<polygon fill="midnightblue" stroke="midnightblue" points="1021.31,-85.8425 1018.73,-75.5681 1014.34,-85.2125 1021.31,-85.8425"/>
</g>
<!-- Node29&#45;&gt;Node21 -->
<g id="edge52" class="edge"><title>Node29&#45;&gt;Node21</title>
<path fill="none" stroke="midnightblue" d="M969.011,-224.425C853.844,-196.597 490.605,-108.827 362.646,-77.9086"/>
<polygon fill="midnightblue" stroke="midnightblue" points="363.32,-74.4708 352.777,-75.5241 361.676,-81.275 363.32,-74.4708"/>
</g>
<!-- Node30 -->
<g id="node23" class="node"><title>Node30</title>
<polygon fill="none" stroke="#bfbfbf" points="1071,-112.5 1071,-131.5 1130,-131.5 1130,-112.5 1071,-112.5"/>
<text text-anchor="middle" x="1100.5" y="-119.5" font-family="FreeSans" font-size="10.00">wx/filefn.h</text>
</g>
<!-- Node29&#45;&gt;Node30 -->
<g id="edge41" class="edge"><title>Node29&#45;&gt;Node30</title>
<path fill="none" stroke="midnightblue" d="M1016.02,-224.466C1027.1,-215.939 1043.97,-202.104 1056.5,-188 1069.75,-173.079 1082.24,-153.957 1090.5,-140.324"/>
<polygon fill="midnightblue" stroke="midnightblue" points="1093.64,-141.894 1095.72,-131.505 1087.62,-138.328 1093.64,-141.894"/>
</g>
<!-- Node31 -->
<g id="node24" class="node"><title>Node31</title>
<polygon fill="none" stroke="#bfbfbf" points="1473,-112.5 1473,-131.5 1544,-131.5 1544,-112.5 1473,-112.5"/>
<text text-anchor="middle" x="1508.5" y="-119.5" font-family="FreeSans" font-size="10.00">wx/imaglist.h</text>
</g>
<!-- Node29&#45;&gt;Node31 -->
<g id="edge42" class="edge"><title>Node29&#45;&gt;Node31</title>
<path fill="none" stroke="midnightblue" d="M1044.6,-232.592C1113.92,-230.918 1260.01,-223.103 1377.5,-188 1417.84,-175.949 1460.88,-152.239 1486.2,-137.03"/>
<polygon fill="midnightblue" stroke="midnightblue" points="1488.28,-139.858 1494.99,-131.659 1484.64,-133.884 1488.28,-139.858"/>
</g>
<!-- Node32 -->
<g id="node25" class="node"><title>Node32</title>
<polygon fill="none" stroke="#bfbfbf" points="1488,-0.5 1488,-19.5 1553,-19.5 1553,-0.5 1488,-0.5"/>
<text text-anchor="middle" x="1520.5" y="-7.5" font-family="FreeSans" font-size="10.00">wx/thread.h</text>
</g>
<!-- Node29&#45;&gt;Node32 -->
<g id="edge44" class="edge"><title>Node29&#45;&gt;Node32</title>
<path fill="none" stroke="midnightblue" d="M1044.63,-232.629C1157.28,-231.146 1474.59,-223.814 1571.5,-188 1616.6,-171.332 1669.47,-155.268 1648.5,-112 1628.02,-69.7562 1580.36,-39.8581 1549.32,-24.0388"/>
<polygon fill="midnightblue" stroke="midnightblue" points="1550.79,-20.861 1540.28,-19.5833 1547.7,-27.1409 1550.79,-20.861"/>
</g>
<!-- Node33 -->
<g id="node26" class="node"><title>Node33</title>
<polygon fill="none" stroke="#bfbfbf" points="1562.5,-112.5 1562.5,-131.5 1622.5,-131.5 1622.5,-112.5 1562.5,-112.5"/>
<text text-anchor="middle" x="1592.5" y="-119.5" font-family="FreeSans" font-size="10.00">wx/timer.h</text>
</g>
<!-- Node29&#45;&gt;Node33 -->
<g id="edge45" class="edge"><title>Node29&#45;&gt;Node33</title>
<path fill="none" stroke="midnightblue" d="M1044.72,-231.828C1118.93,-228.955 1282.03,-219.322 1415.5,-188 1469.74,-175.271 1530.1,-150.737 1564.46,-135.721"/>
<polygon fill="midnightblue" stroke="midnightblue" points="1566.11,-138.816 1573.84,-131.573 1563.28,-132.414 1566.11,-138.816"/>
</g>
<!-- Node34 -->
<g id="node27" class="node"><title>Node34</title>
<g id="a_node27"><a xlink:href="cbthreadpool_8h" target="_top" xlink:title="cbthreadpool.h">
<polygon fill="none" stroke="red" points="1062.5,-56.5 1062.5,-75.5 1142.5,-75.5 1142.5,-56.5 1062.5,-56.5"/>
<text text-anchor="middle" x="1102.5" y="-63.5" font-family="FreeSans" font-size="10.00">cbthreadpool.h</text>
</a>
</g>
</g>
<!-- Node29&#45;&gt;Node34 -->
<g id="edge47" class="edge"><title>Node29&#45;&gt;Node34</title>
<path fill="none" stroke="midnightblue" d="M1008.28,-224.312C1018.89,-200.092 1049.02,-132.271 1062.5,-112 1069.36,-101.686 1078.44,-91.278 1086.21,-83.0736"/>
<polygon fill="midnightblue" stroke="midnightblue" points="1088.94,-85.2891 1093.42,-75.6886 1083.93,-80.3992 1088.94,-85.2891"/>
</g>
<!-- Node37 -->
<g id="node28" class="node"><title>Node37</title>
<g id="a_node28"><a xlink:href="parserthread_8h" target="_top" xlink:title="parserthread.h">
<polygon fill="none" stroke="red" points="1225,-112.5 1225,-131.5 1302,-131.5 1302,-112.5 1225,-112.5"/>
<text text-anchor="middle" x="1263.5" y="-119.5" font-family="FreeSans" font-size="10.00">parserthread.h</text>
</a>
</g>
</g>
<!-- Node29&#45;&gt;Node37 -->
<g id="edge53" class="edge"><title>Node29&#45;&gt;Node37</title>
<path fill="none" stroke="midnightblue" d="M1024.82,-224.368C1070.4,-205.01 1180.94,-158.065 1234.05,-135.507"/>
<polygon fill="midnightblue" stroke="midnightblue" points="1235.44,-138.722 1243.27,-131.591 1232.7,-132.279 1235.44,-138.722"/>
</g>
<!-- Node61 -->
<g id="node30" class="node"><title>Node61</title>
<g id="a_node30"><a xlink:href="parser__base_8h" target="_top" xlink:title="parser_base.h">
<polygon fill="none" stroke="black" points="1292.5,-168.5 1292.5,-187.5 1368.5,-187.5 1368.5,-168.5 1292.5,-168.5"/>
<text text-anchor="middle" x="1330.5" y="-175.5" font-family="FreeSans" font-size="10.00">parser_base.h</text>
</a>
</g>
</g>
<!-- Node29&#45;&gt;Node61 -->
<g id="edge63" class="edge"><title>Node29&#45;&gt;Node61</title>
<path fill="none" stroke="midnightblue" d="M1044.8,-226.324C1104.95,-216.36 1218.03,-197.631 1282.41,-186.965"/>
<polygon fill="midnightblue" stroke="midnightblue" points="1283.02,-190.413 1292.31,-185.325 1281.88,-183.507 1283.02,-190.413"/>
</g>
<!-- Node34&#45;&gt;Node5 -->
<g id="edge49" class="edge"><title>Node34&#45;&gt;Node5</title>
<path fill="none" stroke="midnightblue" d="M1097.88,-56.083C1094.04,-48.6913 1088.48,-37.9533 1083.74,-28.8111"/>
<polygon fill="midnightblue" stroke="midnightblue" points="1086.75,-27.0175 1079.04,-19.7511 1080.53,-30.2398 1086.75,-27.0175"/>
</g>
<!-- Node34&#45;&gt;Node8 -->
<g id="edge50" class="edge"><title>Node34&#45;&gt;Node8</title>
<path fill="none" stroke="midnightblue" d="M1062.45,-57.1943C1059.43,-56.7432 1056.42,-56.337 1053.5,-56 722.422,-17.8116 635.709,-57.0332 304.5,-20 300.542,-19.5574 296.427,-18.9986 292.327,-18.3769"/>
<polygon fill="midnightblue" stroke="midnightblue" points="292.701,-14.8916 282.267,-16.7326 291.572,-21.8 292.701,-14.8916"/>
</g>
<!-- Node34&#45;&gt;Node17 -->
<g id="edge51" class="edge"><title>Node34&#45;&gt;Node17</title>
<path fill="none" stroke="midnightblue" d="M1062.45,-57.259C1059.43,-56.7929 1056.42,-56.3656 1053.5,-56 928.693,-40.3607 535.883,-18.7733 421.218,-12.668"/>
<polygon fill="midnightblue" stroke="midnightblue" points="421.18,-9.16117 411.008,-12.1263 420.809,-16.1513 421.18,-9.16117"/>
</g>
<!-- Node34&#45;&gt;Node32 -->
<g id="edge48" class="edge"><title>Node34&#45;&gt;Node32</title>
<path fill="none" stroke="midnightblue" d="M1142.58,-59.8223C1221.49,-49.6284 1396.35,-27.0388 1477.53,-16.5505"/>
<polygon fill="midnightblue" stroke="midnightblue" points="1478.42,-19.9657 1487.89,-15.2132 1477.52,-13.0234 1478.42,-19.9657"/>
</g>
<!-- Node37&#45;&gt;Node5 -->
<g id="edge54" class="edge"><title>Node37&#45;&gt;Node5</title>
<path fill="none" stroke="midnightblue" d="M1256.85,-112.209C1246.01,-98.4474 1223.27,-71.7659 1198.5,-56 1172.83,-39.6633 1140.4,-28.1629 1115.15,-20.8791"/>
<polygon fill="midnightblue" stroke="midnightblue" points="1116.08,-17.5041 1105.51,-18.2 1114.2,-24.2487 1116.08,-17.5041"/>
</g>
<!-- Node37&#45;&gt;Node7 -->
<g id="edge55" class="edge"><title>Node37&#45;&gt;Node7</title>
<path fill="none" stroke="midnightblue" d="M1252.52,-112.39C1233.3,-97.8615 1191.78,-68.8124 1151.5,-56 1108.47,-42.3133 806.497,-21.1535 694.858,-13.7054"/>
<polygon fill="midnightblue" stroke="midnightblue" points="694.874,-10.1988 684.664,-13.0281 694.41,-17.1834 694.874,-10.1988"/>
</g>
<!-- Node37&#45;&gt;Node28 -->
<g id="edge57" class="edge"><title>Node37&#45;&gt;Node28</title>
<path fill="none" stroke="midnightblue" d="M1224.82,-115.575C1148.64,-104.89 980.502,-81.3067 910.284,-71.458"/>
<polygon fill="midnightblue" stroke="midnightblue" points="910.659,-67.9764 900.27,-70.0534 909.687,-74.9086 910.659,-67.9764"/>
</g>
<!-- Node37&#45;&gt;Node32 -->
<g id="edge56" class="edge"><title>Node37&#45;&gt;Node32</title>
<path fill="none" stroke="midnightblue" d="M1283.67,-112.368C1328.8,-93.0507 1438.12,-46.2592 1490.95,-23.6481"/>
<polygon fill="midnightblue" stroke="midnightblue" points="1492.61,-26.744 1500.43,-19.5914 1489.86,-20.3087 1492.61,-26.744"/>
</g>
<!-- Node37&#45;&gt;Node34 -->
<g id="edge58" class="edge"><title>Node37&#45;&gt;Node34</title>
<path fill="none" stroke="midnightblue" d="M1237.99,-112.444C1210.9,-103.359 1167.91,-88.9388 1137.63,-78.7831"/>
<polygon fill="midnightblue" stroke="midnightblue" points="1138.49,-75.3781 1127.89,-75.5164 1136.26,-82.0148 1138.49,-75.3781"/>
</g>
<!-- Node37&#45;&gt;Node57 -->
<g id="edge59" class="edge"><title>Node37&#45;&gt;Node57</title>
<path fill="none" stroke="midnightblue" d="M1224.58,-118.167C1106.88,-109.575 758.831,-83.977 687.699,-75.5275"/>
<polygon fill="midnightblue" stroke="midnightblue" points="687.919,-72.0245 677.532,-74.1167 686.956,-78.9581 687.919,-72.0245"/>
</g>
<!-- Node57&#45;&gt;Node4 -->
<g id="edge60" class="edge"><title>Node57&#45;&gt;Node4</title>
<path fill="none" stroke="midnightblue" d="M677.533,-58.3785C710.446,-49.3108 769.97,-32.9115 809.62,-21.9874"/>
<polygon fill="midnightblue" stroke="midnightblue" points="810.781,-25.2981 819.492,-19.2676 808.921,-18.5495 810.781,-25.2981"/>
</g>
<!-- Node57&#45;&gt;Node7 -->
<g id="edge61" class="edge"><title>Node57&#45;&gt;Node7</title>
<path fill="none" stroke="midnightblue" d="M653.5,-56.083C653.5,-49.0059 653.5,-38.8611 653.5,-29.9865"/>
<polygon fill="midnightblue" stroke="midnightblue" points="657,-29.751 653.5,-19.7511 650,-29.7511 657,-29.751"/>
</g>
<!-- Node57&#45;&gt;Node24 -->
<g id="edge62" class="edge"><title>Node57&#45;&gt;Node24</title>
<path fill="none" stroke="midnightblue" d="M629.195,-62.4605C578.474,-56.9054 457.817,-42.3569 358.5,-20 356.59,-19.5701 354.624,-19.0831 352.656,-18.5636"/>
<polygon fill="midnightblue" stroke="midnightblue" points="353.617,-15.1983 343.04,-15.8089 351.689,-21.9276 353.617,-15.1983"/>
</g>
<!-- Node61&#45;&gt;Node4 -->
<g id="edge64" class="edge"><title>Node61&#45;&gt;Node4</title>
<path fill="none" stroke="midnightblue" d="M1335.43,-168.318C1347.17,-146.346 1373.73,-88.0117 1344.5,-56 1329.21,-39.2585 1005.34,-19.6728 889.913,-13.1991"/>
<polygon fill="midnightblue" stroke="midnightblue" points="889.907,-9.69342 879.728,-12.6316 889.518,-16.6826 889.907,-9.69342"/>
</g>
<!-- Node61&#45;&gt;Node5 -->
<g id="edge65" class="edge"><title>Node61&#45;&gt;Node5</title>
<path fill="none" stroke="midnightblue" d="M1346.28,-168.467C1358.7,-160.769 1375.11,-148.179 1382.5,-132 1396.54,-101.279 1404.59,-81.5527 1382.5,-56 1348.49,-16.6627 1191.56,-11.0383 1115.73,-10.67"/>
<polygon fill="midnightblue" stroke="midnightblue" points="1115.6,-7.16985 1105.59,-10.65 1115.59,-14.1698 1115.6,-7.16985"/>
</g>
<!-- Node61&#45;&gt;Node7 -->
<g id="edge69" class="edge"><title>Node61&#45;&gt;Node7</title>
<path fill="none" stroke="midnightblue" d="M1330.21,-168.337C1329.31,-154.751 1325.72,-128.306 1311.5,-112 1271.5,-66.1128 1245.44,-71.2207 1186.5,-56 1139.36,-43.8275 811.801,-21.4017 694.866,-13.6886"/>
<polygon fill="midnightblue" stroke="midnightblue" points="694.753,-10.1737 684.545,-13.01 694.294,-17.1586 694.753,-10.1737"/>
</g>
<!-- Node61&#45;&gt;Node11 -->
<g id="edge72" class="edge"><title>Node61&#45;&gt;Node11</title>
<path fill="none" stroke="midnightblue" d="M1292.49,-169.186C1259.85,-161.776 1211.98,-149.213 1172.5,-132 1156.78,-125.146 1155.74,-117.51 1139.5,-112 1105.44,-100.445 872.359,-79.3142 773.585,-70.7519"/>
<polygon fill="midnightblue" stroke="midnightblue" points="773.882,-67.2646 763.618,-69.891 773.28,-74.2386 773.882,-67.2646"/>
</g>
<!-- Node61&#45;&gt;Node12 -->
<g id="edge66" class="edge"><title>Node61&#45;&gt;Node12</title>
<path fill="none" stroke="midnightblue" d="M1307.65,-168.372C1284.54,-159.552 1247.84,-145.298 1216.5,-132 1196.73,-123.609 1192.63,-119.494 1172.5,-112 1150.82,-103.932 1092.28,-87.2284 1054.21,-76.5973"/>
<polygon fill="midnightblue" stroke="midnightblue" points="1055.12,-73.2149 1044.54,-73.9032 1053.24,-79.9582 1055.12,-73.2149"/>
</g>
<!-- Node61&#45;&gt;Node30 -->
<g id="edge67" class="edge"><title>Node61&#45;&gt;Node30</title>
<path fill="none" stroke="midnightblue" d="M1294.06,-168.444C1252.07,-158.587 1183.34,-142.449 1140.08,-132.292"/>
<polygon fill="midnightblue" stroke="midnightblue" points="1140.73,-128.849 1130.19,-129.971 1139.13,-135.664 1140.73,-128.849"/>
</g>
<!-- Node61&#45;&gt;Node31 -->
<g id="edge68" class="edge"><title>Node61&#45;&gt;Node31</title>
<path fill="none" stroke="midnightblue" d="M1358.7,-168.444C1388.91,-159.28 1437.01,-144.688 1470.53,-134.519"/>
<polygon fill="midnightblue" stroke="midnightblue" points="1471.87,-137.769 1480.43,-131.516 1469.84,-131.07 1471.87,-137.769"/>
</g>
<!-- Node61&#45;&gt;Node32 -->
<g id="edge70" class="edge"><title>Node61&#45;&gt;Node32</title>
<path fill="none" stroke="midnightblue" d="M1353.85,-168.479C1372.98,-160.788 1400.13,-148.202 1420.5,-132 1459.08,-101.314 1493.07,-53.5797 1509.69,-28.2111"/>
<polygon fill="midnightblue" stroke="midnightblue" points="1512.72,-29.97 1515.18,-19.6656 1506.83,-26.1847 1512.72,-29.97"/>
</g>
<!-- Node61&#45;&gt;Node33 -->
<g id="edge71" class="edge"><title>Node61&#45;&gt;Node33</title>
<path fill="none" stroke="midnightblue" d="M1368.84,-169.597C1411.33,-161.321 1482.12,-147.313 1552.38,-132.199"/>
<polygon fill="midnightblue" stroke="midnightblue" points="1553.25,-135.592 1562.28,-130.06 1551.77,-128.749 1553.25,-135.592"/>
</g>
<!-- Node61&#45;&gt;Node37 -->
<g id="edge73" class="edge"><title>Node61&#45;&gt;Node37</title>
<path fill="none" stroke="midnightblue" d="M1319.74,-168.324C1309.73,-160.263 1294.61,-148.077 1282.57,-138.369"/>
<polygon fill="midnightblue" stroke="midnightblue" points="1284.44,-135.384 1274.46,-131.834 1280.05,-140.834 1284.44,-135.384"/>
</g>
<!-- Node62&#45;&gt;Node11 -->
<g id="edge77" class="edge"><title>Node62&#45;&gt;Node11</title>
<path fill="none" stroke="midnightblue" d="M775.042,-336.375C768.503,-297.701 741.807,-139.794 732.622,-85.4651"/>
<polygon fill="midnightblue" stroke="midnightblue" points="736.059,-84.8009 730.941,-75.5243 729.157,-85.9678 736.059,-84.8009"/>
</g>
<!-- Node62&#45;&gt;Node27 -->
<g id="edge78" class="edge"><title>Node62&#45;&gt;Node27</title>
<path fill="none" stroke="midnightblue" d="M765.414,-336.324C755.014,-328.185 739.239,-315.839 726.778,-306.087"/>
<polygon fill="midnightblue" stroke="midnightblue" points="728.82,-303.241 718.788,-299.834 724.506,-308.753 728.82,-303.241"/>
</g>
<!-- Node62&#45;&gt;Node29 -->
<g id="edge84" class="edge"><title>Node62&#45;&gt;Node29</title>
<path fill="none" stroke="midnightblue" d="M800.713,-336.441C823.874,-328.002 859.6,-314.322 889.5,-300 922.585,-284.152 959.224,-262.731 982.058,-248.889"/>
<polygon fill="midnightblue" stroke="midnightblue" points="983.954,-251.832 990.664,-243.634 980.305,-245.858 983.954,-251.832"/>
</g>
<!-- Node62&#45;&gt;Node32 -->
<g id="edge76" class="edge"><title>Node62&#45;&gt;Node32</title>
<path fill="none" stroke="midnightblue" d="M843.681,-340.75C1060.32,-326.605 1726.5,-279.492 1726.5,-235 1726.5,-235 1726.5,-235 1726.5,-121 1726.5,-47.6055 1623.49,-23.0062 1563.16,-14.8928"/>
<polygon fill="midnightblue" stroke="midnightblue" points="1563.5,-11.4083 1553.14,-13.6439 1562.63,-18.3545 1563.5,-11.4083"/>
</g>
<!-- Node62&#45;&gt;Node57 -->
<g id="edge83" class="edge"><title>Node62&#45;&gt;Node57</title>
<path fill="none" stroke="midnightblue" d="M724.043,-336.483C702.349,-330.155 679.125,-319.144 665.5,-300 618.283,-233.658 637.824,-127.824 648.392,-85.4359"/>
<polygon fill="midnightblue" stroke="midnightblue" points="651.803,-86.2266 650.956,-75.6656 645.032,-84.4496 651.803,-86.2266"/>
</g>
<!-- Node63 -->
<g id="node32" class="node"><title>Node63</title>
<g id="a_node32"><a xlink:href="nativeparser_8h" target="_top" xlink:title="nativeparser.h">
<polygon fill="none" stroke="red" points="804.5,-280.5 804.5,-299.5 880.5,-299.5 880.5,-280.5 804.5,-280.5"/>
<text text-anchor="middle" x="842.5" y="-287.5" font-family="FreeSans" font-size="10.00">nativeparser.h</text>
</a>
</g>
</g>
<!-- Node62&#45;&gt;Node63 -->
<g id="edge79" class="edge"><title>Node62&#45;&gt;Node63</title>
<path fill="none" stroke="midnightblue" d="M787.104,-336.324C796.956,-328.263 811.851,-316.077 823.715,-306.369"/>
<polygon fill="midnightblue" stroke="midnightblue" points="826.18,-308.875 831.703,-299.834 821.747,-303.457 826.18,-308.875"/>
</g>
<!-- Node63&#45;&gt;Node5 -->
<g id="edge82" class="edge"><title>Node63&#45;&gt;Node5</title>
<path fill="none" stroke="midnightblue" d="M839.262,-280.053C827.607,-246.108 791.411,-123.779 848.5,-56 871.78,-28.3613 974.747,-17.3215 1033.34,-13.2172"/>
<polygon fill="midnightblue" stroke="midnightblue" points="1033.64,-16.705 1043.39,-12.5508 1033.18,-9.72034 1033.64,-16.705"/>
</g>
<!-- Node63&#45;&gt;Node28 -->
<g id="edge81" class="edge"><title>Node63&#45;&gt;Node28</title>
<path fill="none" stroke="midnightblue" d="M843.911,-280.297C849.208,-247.633 867.981,-131.866 875.426,-85.9573"/>
<polygon fill="midnightblue" stroke="midnightblue" points="878.913,-86.3151 877.059,-75.8837 872.004,-85.1945 878.913,-86.3151"/>
</g>
<!-- Node63&#45;&gt;Node29 -->
<g id="edge80" class="edge"><title>Node63&#45;&gt;Node29</title>
<path fill="none" stroke="midnightblue" d="M868.169,-280.444C895.423,-271.359 938.684,-256.939 969.151,-246.783"/>
<polygon fill="midnightblue" stroke="midnightblue" points="970.571,-249.999 978.951,-243.516 968.357,-243.358 970.571,-249.999"/>
</g>
</g>
</svg>
