<?xml version="1.0" encoding="UTF-8" standalone="no"?>
<!DOCTYPE svg PUBLIC "-//W3C//DTD SVG 1.1//EN"
 "http://www.w3.org/Graphics/SVG/1.1/DTD/svg11.dtd">
<!-- Generated by graphviz version 2.38.0 (20140413.2041)
 -->
<!-- Title: coderefactoring.h Pages: 1 -->
<svg width="337pt" height="140pt"
 viewBox="0.00 0.00 337.00 140.00" xmlns="http://www.w3.org/2000/svg" xmlns:xlink="http://www.w3.org/1999/xlink">
<g id="graph0" class="graph" transform="scale(1 1) rotate(0) translate(4 136)">
<title>coderefactoring.h</title>
<!-- Node58 -->
<g id="node1" class="node"><title>Node58</title>
<polygon fill="#bfbfbf" stroke="black" points="170,-112.5 170,-131.5 261,-131.5 261,-112.5 170,-112.5"/>
<text text-anchor="middle" x="215.5" y="-119.5" font-family="FreeSans" font-size="10.00">coderefactoring.h</text>
</g>
<!-- Node59 -->
<g id="node2" class="node"><title>Node59</title>
<g id="a_node2"><a xlink:href="codecompletion_8h" target="_top" xlink:title="codecompletion.h">
<polygon fill="none" stroke="black" points="112.5,-56.5 112.5,-75.5 204.5,-75.5 204.5,-56.5 112.5,-56.5"/>
<text text-anchor="middle" x="158.5" y="-63.5" font-family="FreeSans" font-size="10.00">codecompletion.h</text>
</a>
</g>
</g>
<!-- Node58&#45;&gt;Node59 -->
<g id="edge1" class="edge"><title>Node58&#45;&gt;Node59</title>
<path fill="none" stroke="midnightblue" d="M198.879,-105.253C188.766,-95.6731 176.223,-83.7906 167.825,-75.8339"/>
<polygon fill="midnightblue" stroke="midnightblue" points="196.675,-107.987 206.342,-112.324 201.49,-102.906 196.675,-107.987"/>
</g>
<!-- Node63 -->
<g id="node6" class="node"><title>Node63</title>
<g id="a_node6"><a xlink:href="coderefactoring_8cpp" target="_top" xlink:title="coderefactoring.cpp">
<polygon fill="none" stroke="black" points="223,-56.5 223,-75.5 324,-75.5 324,-56.5 223,-56.5"/>
<text text-anchor="middle" x="273.5" y="-63.5" font-family="FreeSans" font-size="10.00">coderefactoring.cpp</text>
</a>
</g>
</g>
<!-- Node58&#45;&gt;Node63 -->
<g id="edge5" class="edge"><title>Node58&#45;&gt;Node63</title>
<path fill="none" stroke="midnightblue" d="M232.413,-105.253C242.703,-95.6731 255.466,-83.7906 264.012,-75.8339"/>
<polygon fill="midnightblue" stroke="midnightblue" points="229.753,-102.948 224.819,-112.324 234.523,-108.071 229.753,-102.948"/>
</g>
<!-- Node60 -->
<g id="node3" class="node"><title>Node60</title>
<g id="a_node3"><a xlink:href="ccoptionsdlg_8cpp" target="_top" xlink:title="ccoptionsdlg.cpp">
<polygon fill="none" stroke="black" points="0,-0.5 0,-19.5 89,-19.5 89,-0.5 0,-0.5"/>
<text text-anchor="middle" x="44.5" y="-7.5" font-family="FreeSans" font-size="10.00">ccoptionsdlg.cpp</text>
</a>
</g>
</g>
<!-- Node59&#45;&gt;Node60 -->
<g id="edge2" class="edge"><title>Node59&#45;&gt;Node60</title>
<path fill="none" stroke="midnightblue" d="M131.258,-52.096C109.96,-42.0073 80.9583,-28.2697 62.4791,-19.5164"/>
<polygon fill="midnightblue" stroke="midnightblue" points="129.901,-55.3257 140.436,-56.4435 132.897,-48.9995 129.901,-55.3257"/>
</g>
<!-- Node61 -->
<g id="node4" class="node"><title>Node61</title>
<g id="a_node4"><a xlink:href="codecompletion_8cpp" target="_top" xlink:title="codecompletion.cpp">
<polygon fill="none" stroke="black" points="107,-0.5 107,-19.5 210,-19.5 210,-0.5 107,-0.5"/>
<text text-anchor="middle" x="158.5" y="-7.5" font-family="FreeSans" font-size="10.00">codecompletion.cpp</text>
</a>
</g>
</g>
<!-- Node59&#45;&gt;Node61 -->
<g id="edge3" class="edge"><title>Node59&#45;&gt;Node61</title>
<path fill="none" stroke="midnightblue" d="M158.5,-45.8045C158.5,-36.9102 158.5,-26.7798 158.5,-19.7511"/>
<polygon fill="midnightblue" stroke="midnightblue" points="155,-46.083 158.5,-56.083 162,-46.083 155,-46.083"/>
</g>
<!-- Node62 -->
<g id="node5" class="node"><title>Node62</title>
<g id="a_node5"><a xlink:href="doxygen__parser_8cpp" target="_top" xlink:title="doxygen_parser.cpp">
<polygon fill="none" stroke="black" points="228,-0.5 228,-19.5 329,-19.5 329,-0.5 228,-0.5"/>
<text text-anchor="middle" x="278.5" y="-7.5" font-family="FreeSans" font-size="10.00">doxygen_parser.cpp</text>
</a>
</g>
</g>
<!-- Node59&#45;&gt;Node62 -->
<g id="edge4" class="edge"><title>Node59&#45;&gt;Node62</title>
<path fill="none" stroke="midnightblue" d="M186.873,-52.2321C209.32,-42.1312 240.035,-28.3091 259.575,-19.5164"/>
<polygon fill="midnightblue" stroke="midnightblue" points="185.197,-49.1481 177.514,-56.4435 188.07,-55.5316 185.197,-49.1481"/>
</g>
</g>
</svg>
