<?xml version="1.0" encoding="UTF-8" standalone="no"?>
<!DOCTYPE svg PUBLIC "-//W3C//DTD SVG 1.1//EN"
 "http://www.w3.org/Graphics/SVG/1.1/DTD/svg11.dtd">
<!-- Generated by graphviz version 2.40.1 (20161225.0304)
 -->
<!-- Title: coderefactoring.cpp Pages: 1 -->
<svg width="1769pt" height="252pt"
 viewBox="0.00 0.00 1768.73 252.00" xmlns="http://www.w3.org/2000/svg" xmlns:xlink="http://www.w3.org/1999/xlink">
<g id="graph0" class="graph" transform="scale(1 1) rotate(0) translate(4 248)">
<title>coderefactoring.cpp</title>
<!-- Node0 -->
<g id="node1" class="node">
<title>Node0</title>
<polygon fill="#bfbfbf" stroke="#000000" points="1253.0328,-224.5 1253.0328,-243.5 1354.0328,-243.5 1354.0328,-224.5 1253.0328,-224.5"/>
<text text-anchor="middle" x="1303.5328" y="-231.5" font-family="FreeSans" font-size="10.00" fill="#000000">coderefactoring.cpp</text>
</g>
<!-- Node1 -->
<g id="node2" class="node">
<title>Node1</title>
<g id="a_node2"><a xlink:href="sdk_8h" target="_top" xlink:title="sdk.h">
<polygon fill="none" stroke="#000000" points="823.0328,-168.5 823.0328,-187.5 862.0328,-187.5 862.0328,-168.5 823.0328,-168.5"/>
<text text-anchor="middle" x="842.5328" y="-175.5" font-family="FreeSans" font-size="10.00" fill="#000000">sdk.h</text>
</a>
</g>
</g>
<!-- Node0&#45;&gt;Node1 -->
<g id="edge1" class="edge">
<title>Node0&#45;&gt;Node1</title>
<path fill="none" stroke="#191970" d="M1252.8791,-227.8468C1156.3746,-216.1239 948.9312,-190.9248 872.0176,-181.5817"/>
<polygon fill="#191970" stroke="#191970" points="872.4053,-178.1031 862.0562,-180.3716 871.5611,-185.052 872.4053,-178.1031"/>
</g>
<!-- Node137 -->
<g id="node18" class="node">
<title>Node137</title>
<polygon fill="none" stroke="#bfbfbf" points="1167.5328,-168.5 1167.5328,-187.5 1237.5328,-187.5 1237.5328,-168.5 1167.5328,-168.5"/>
<text text-anchor="middle" x="1202.5328" y="-175.5" font-family="FreeSans" font-size="10.00" fill="#000000">wx/progdlg.h</text>
</g>
<!-- Node0&#45;&gt;Node137 -->
<g id="edge18" class="edge">
<title>Node0&#45;&gt;Node137</title>
<path fill="none" stroke="#191970" d="M1285.94,-224.2455C1270.1538,-215.4928 1246.769,-202.527 1228.7741,-192.5496"/>
<polygon fill="#191970" stroke="#191970" points="1230.367,-189.4308 1219.9241,-187.6427 1226.9726,-195.5528 1230.367,-189.4308"/>
</g>
<!-- Node138 -->
<g id="node19" class="node">
<title>Node138</title>
<g id="a_node19"><a xlink:href="cbstyledtextctrl_8h" target="_top" xlink:title="cbstyledtextctrl.h">
<polygon fill="none" stroke="#000000" points="1059.0328,-112.5 1059.0328,-131.5 1148.0328,-131.5 1148.0328,-112.5 1059.0328,-112.5"/>
<text text-anchor="middle" x="1103.5328" y="-119.5" font-family="FreeSans" font-size="10.00" fill="#000000">cbstyledtextctrl.h</text>
</a>
</g>
</g>
<!-- Node0&#45;&gt;Node138 -->
<g id="edge19" class="edge">
<title>Node0&#45;&gt;Node138</title>
<path fill="none" stroke="#191970" d="M1297.7573,-224.4571C1288.6251,-210.1529 1269.5082,-183.2119 1246.5328,-168 1220.0005,-150.4331 1186.2748,-139.1619 1158.24,-132.1758"/>
<polygon fill="#191970" stroke="#191970" points="1158.7307,-128.6952 1148.1928,-129.7922 1157.1147,-135.5061 1158.7307,-128.6952"/>
</g>
<!-- Node140 -->
<g id="node23" class="node">
<title>Node140</title>
<g id="a_node23"><a xlink:href="encodingdetector_8h" target="_top" xlink:title="encodingdetector.h">
<polygon fill="none" stroke="#000000" points="1218.5328,-112.5 1218.5328,-131.5 1316.5328,-131.5 1316.5328,-112.5 1218.5328,-112.5"/>
<text text-anchor="middle" x="1267.5328" y="-119.5" font-family="FreeSans" font-size="10.00" fill="#000000">encodingdetector.h</text>
</a>
</g>
</g>
<!-- Node0&#45;&gt;Node140 -->
<g id="edge25" class="edge">
<title>Node0&#45;&gt;Node140</title>
<path fill="none" stroke="#191970" d="M1300.4635,-224.4509C1294.5654,-206.1013 1281.5442,-165.5908 1273.7587,-141.3693"/>
<polygon fill="#191970" stroke="#191970" points="1276.9867,-139.9741 1270.5944,-131.5249 1270.3225,-142.1162 1276.9867,-139.9741"/>
</g>
<!-- Node142 -->
<g id="node26" class="node">
<title>Node142</title>
<g id="a_node26"><a xlink:href="searchresultslog_8h" target="_top" xlink:title="searchresultslog.h">
<polygon fill="none" stroke="#000000" points="1369.0328,-168.5 1369.0328,-187.5 1462.0328,-187.5 1462.0328,-168.5 1369.0328,-168.5"/>
<text text-anchor="middle" x="1415.5328" y="-175.5" font-family="FreeSans" font-size="10.00" fill="#000000">searchresultslog.h</text>
</a>
</g>
</g>
<!-- Node0&#45;&gt;Node142 -->
<g id="edge30" class="edge">
<title>Node0&#45;&gt;Node142</title>
<path fill="none" stroke="#191970" d="M1322.7863,-224.3733C1340.604,-215.4644 1367.3075,-202.1127 1387.4922,-192.0203"/>
<polygon fill="#191970" stroke="#191970" points="1389.1516,-195.1038 1396.5306,-187.5011 1386.021,-188.8428 1389.1516,-195.1038"/>
</g>
<!-- Node146 -->
<g id="node28" class="node">
<title>Node146</title>
<g id="a_node28"><a xlink:href="coderefactoring_8h" target="_top" xlink:title="coderefactoring.h">
<polygon fill="none" stroke="#000000" points="1480.0328,-168.5 1480.0328,-187.5 1571.0328,-187.5 1571.0328,-168.5 1480.0328,-168.5"/>
<text text-anchor="middle" x="1525.5328" y="-175.5" font-family="FreeSans" font-size="10.00" fill="#000000">coderefactoring.h</text>
</a>
</g>
</g>
<!-- Node0&#45;&gt;Node146 -->
<g id="edge33" class="edge">
<title>Node0&#45;&gt;Node146</title>
<path fill="none" stroke="#191970" d="M1341.4438,-224.4369C1379.1979,-214.9133 1437.2594,-200.2672 1478.0593,-189.9753"/>
<polygon fill="#191970" stroke="#191970" points="1478.9381,-193.3633 1487.7783,-187.5237 1477.2259,-186.576 1478.9381,-193.3633"/>
</g>
<!-- Node147 -->
<g id="node29" class="node">
<title>Node147</title>
<g id="a_node29"><a xlink:href="nativeparser_8h" target="_top" xlink:title="nativeparser.h">
<polygon fill="none" stroke="#000000" points="1561.5328,-112.5 1561.5328,-131.5 1637.5328,-131.5 1637.5328,-112.5 1561.5328,-112.5"/>
<text text-anchor="middle" x="1599.5328" y="-119.5" font-family="FreeSans" font-size="10.00" fill="#000000">nativeparser.h</text>
</a>
</g>
</g>
<!-- Node0&#45;&gt;Node147 -->
<g id="edge46" class="edge">
<title>Node0&#45;&gt;Node147</title>
<path fill="none" stroke="#191970" d="M1354.2614,-231.824C1424.6057,-227.783 1546.8255,-216.7361 1579.5328,-188 1592.5777,-176.539 1597.2611,-156.881 1598.8702,-141.9921"/>
<polygon fill="#191970" stroke="#191970" points="1602.3802,-141.9714 1599.589,-131.7508 1595.3974,-141.4812 1602.3802,-141.9714"/>
</g>
<!-- Node2 -->
<g id="node3" class="node">
<title>Node2</title>
<g id="a_node3"><a xlink:href="sdk__common_8h" target="_top" xlink:title="sdk_common.h">
<polygon fill="none" stroke="#ff0000" points="477.5328,-112.5 477.5328,-131.5 559.5328,-131.5 559.5328,-112.5 477.5328,-112.5"/>
<text text-anchor="middle" x="518.5328" y="-119.5" font-family="FreeSans" font-size="10.00" fill="#000000">sdk_common.h</text>
</a>
</g>
</g>
<!-- Node1&#45;&gt;Node2 -->
<g id="edge2" class="edge">
<title>Node1&#45;&gt;Node2</title>
<path fill="none" stroke="#191970" d="M822.7529,-174.5812C773.217,-166.0195 642.5909,-143.4421 569.6429,-130.8338"/>
<polygon fill="#191970" stroke="#191970" points="570.1969,-127.3778 559.7469,-129.1234 569.0046,-134.2755 570.1969,-127.3778"/>
</g>
<!-- Node3 -->
<g id="node4" class="node">
<title>Node3</title>
<polygon fill="none" stroke="#bfbfbf" points="546.5328,-56.5 546.5328,-75.5 614.5328,-75.5 614.5328,-56.5 546.5328,-56.5"/>
<text text-anchor="middle" x="580.5328" y="-63.5" font-family="FreeSans" font-size="10.00" fill="#000000">wx/wxprec.h</text>
</g>
<!-- Node2&#45;&gt;Node3 -->
<g id="edge3" class="edge">
<title>Node2&#45;&gt;Node3</title>
<path fill="none" stroke="#191970" d="M529.3324,-112.2455C538.4006,-104.0549 551.5535,-92.1749 562.2573,-82.5069"/>
<polygon fill="#191970" stroke="#191970" points="564.782,-84.9429 569.857,-75.6427 560.09,-79.7482 564.782,-84.9429"/>
</g>
<!-- Node4 -->
<g id="node5" class="node">
<title>Node4</title>
<g id="a_node5"><a xlink:href="prep_8h" target="_top" xlink:title="prep.h">
<polygon fill="none" stroke="#000000" points="633.0328,-56.5 633.0328,-75.5 676.0328,-75.5 676.0328,-56.5 633.0328,-56.5"/>
<text text-anchor="middle" x="654.5328" y="-63.5" font-family="FreeSans" font-size="10.00" fill="#000000">prep.h</text>
</a>
</g>
</g>
<!-- Node2&#45;&gt;Node4 -->
<g id="edge4" class="edge">
<title>Node2&#45;&gt;Node4</title>
<path fill="none" stroke="#191970" d="M541.9121,-112.3733C564.4396,-103.0972 598.6649,-89.0045 623.4726,-78.7895"/>
<polygon fill="#191970" stroke="#191970" points="624.8905,-81.9909 632.8046,-74.9469 622.2252,-75.5181 624.8905,-81.9909"/>
</g>
<!-- Node5 -->
<g id="node6" class="node">
<title>Node5</title>
<polygon fill="none" stroke="#bfbfbf" points="694.5328,-56.5 694.5328,-75.5 748.5328,-75.5 748.5328,-56.5 694.5328,-56.5"/>
<text text-anchor="middle" x="721.5328" y="-63.5" font-family="FreeSans" font-size="10.00" fill="#000000">wx/app.h</text>
</g>
<!-- Node2&#45;&gt;Node5 -->
<g id="edge5" class="edge">
<title>Node2&#45;&gt;Node5</title>
<path fill="none" stroke="#191970" d="M553.4298,-112.3733C589.9036,-102.3115 646.9212,-86.5825 684.2587,-76.2825"/>
<polygon fill="#191970" stroke="#191970" points="685.5253,-79.5639 694.2344,-73.5306 683.6637,-72.816 685.5253,-79.5639"/>
</g>
<!-- Node6 -->
<g id="node7" class="node">
<title>Node6</title>
<polygon fill="none" stroke="#bfbfbf" points="644.5328,-.5 644.5328,-19.5 704.5328,-19.5 704.5328,-.5 644.5328,-.5"/>
<text text-anchor="middle" x="674.5328" y="-7.5" font-family="FreeSans" font-size="10.00" fill="#000000">wx/arrstr.h</text>
</g>
<!-- Node2&#45;&gt;Node6 -->
<g id="edge6" class="edge">
<title>Node2&#45;&gt;Node6</title>
<path fill="none" stroke="#191970" d="M477.3691,-121.433C361.0428,-119.4072 36.2377,-110.669 4.5328,-76 -1.4659,-69.4405 -1.5335,-62.4971 4.5328,-56 26.123,-32.8767 492.81,-15.8942 634.2569,-11.2637"/>
<polygon fill="#191970" stroke="#191970" points="634.3717,-14.7619 644.2529,-10.9393 634.1446,-7.7656 634.3717,-14.7619"/>
</g>
<!-- Node7 -->
<g id="node8" class="node">
<title>Node7</title>
<polygon fill="none" stroke="#bfbfbf" points="14.0328,-56.5 14.0328,-75.5 93.0328,-75.5 93.0328,-56.5 14.0328,-56.5"/>
<text text-anchor="middle" x="53.5328" y="-63.5" font-family="FreeSans" font-size="10.00" fill="#000000">wx/bmpbuttn.h</text>
</g>
<!-- Node2&#45;&gt;Node7 -->
<g id="edge7" class="edge">
<title>Node2&#45;&gt;Node7</title>
<path fill="none" stroke="#191970" d="M477.5182,-118.7845C404.3223,-112.7626 246.2019,-98.4717 103.5353,-76.2051"/>
<polygon fill="#191970" stroke="#191970" points="103.7148,-72.6902 93.2914,-74.5882 102.6234,-79.6046 103.7148,-72.6902"/>
</g>
<!-- Node8 -->
<g id="node9" class="node">
<title>Node8</title>
<polygon fill="none" stroke="#bfbfbf" points="111.0328,-56.5 111.0328,-75.5 176.0328,-75.5 176.0328,-56.5 111.0328,-56.5"/>
<text text-anchor="middle" x="143.5328" y="-63.5" font-family="FreeSans" font-size="10.00" fill="#000000">wx/button.h</text>
</g>
<!-- Node2&#45;&gt;Node8 -->
<g id="edge8" class="edge">
<title>Node2&#45;&gt;Node8</title>
<path fill="none" stroke="#191970" d="M477.3143,-117.6022C416.0446,-110.7819 297.1572,-96.4625 186.4804,-76.0295"/>
<polygon fill="#191970" stroke="#191970" points="186.9562,-72.558 176.4836,-74.1628 185.6712,-79.439 186.9562,-72.558"/>
</g>
<!-- Node9 -->
<g id="node10" class="node">
<title>Node9</title>
<polygon fill="none" stroke="#bfbfbf" points="194.5328,-56.5 194.5328,-75.5 274.5328,-75.5 274.5328,-56.5 194.5328,-56.5"/>
<text text-anchor="middle" x="234.5328" y="-63.5" font-family="FreeSans" font-size="10.00" fill="#000000">wx/checkbox.h</text>
</g>
<!-- Node2&#45;&gt;Node9 -->
<g id="edge9" class="edge">
<title>Node2&#45;&gt;Node9</title>
<path fill="none" stroke="#191970" d="M477.3356,-114.0395C432.4165,-105.3368 358.1378,-90.8789 284.5446,-76.1914"/>
<polygon fill="#191970" stroke="#191970" points="285.1309,-72.7394 274.6389,-74.2122 283.7593,-79.6037 285.1309,-72.7394"/>
</g>
<!-- Node10 -->
<g id="node11" class="node">
<title>Node10</title>
<polygon fill="none" stroke="#bfbfbf" points="292.5328,-56.5 292.5328,-75.5 366.5328,-75.5 366.5328,-56.5 292.5328,-56.5"/>
<text text-anchor="middle" x="329.5328" y="-63.5" font-family="FreeSans" font-size="10.00" fill="#000000">wx/checklst.h</text>
</g>
<!-- Node2&#45;&gt;Node10 -->
<g id="edge10" class="edge">
<title>Node2&#45;&gt;Node10</title>
<path fill="none" stroke="#191970" d="M486.0426,-112.3733C454.3426,-102.9807 405.9752,-88.6496 371.4043,-78.4064"/>
<polygon fill="#191970" stroke="#191970" points="372.1814,-74.9863 361.5991,-75.5011 370.1928,-81.6979 372.1814,-74.9863"/>
</g>
<!-- Node11 -->
<g id="node12" class="node">
<title>Node11</title>
<polygon fill="none" stroke="#bfbfbf" points="385.0328,-56.5 385.0328,-75.5 452.0328,-75.5 452.0328,-56.5 385.0328,-56.5"/>
<text text-anchor="middle" x="418.5328" y="-63.5" font-family="FreeSans" font-size="10.00" fill="#000000">wx/choice.h</text>
</g>
<!-- Node2&#45;&gt;Node11 -->
<g id="edge11" class="edge">
<title>Node2&#45;&gt;Node11</title>
<path fill="none" stroke="#191970" d="M501.1142,-112.2455C485.4843,-103.4928 462.331,-90.527 444.5143,-80.5496"/>
<polygon fill="#191970" stroke="#191970" points="446.1871,-77.475 435.7519,-75.6427 442.7668,-83.5825 446.1871,-77.475"/>
</g>
<!-- Node21 -->
<g id="node13" class="node">
<title>Node21</title>
<polygon fill="none" stroke="#bfbfbf" points="1485.5328,-.5 1485.5328,-19.5 1547.5328,-19.5 1547.5328,-.5 1485.5328,-.5"/>
<text text-anchor="middle" x="1516.5328" y="-7.5" font-family="FreeSans" font-size="10.00" fill="#000000">wx/event.h</text>
</g>
<!-- Node2&#45;&gt;Node21 -->
<g id="edge12" class="edge">
<title>Node2&#45;&gt;Node21</title>
<path fill="none" stroke="#191970" d="M518.0974,-112.4847C518.0016,-97.7051 520.2602,-69.5278 537.5328,-56 577.0675,-25.0367 1361.5606,-27.1508 1474.9828,-19.4447"/>
<polygon fill="#191970" stroke="#191970" points="1475.5839,-22.9037 1485.2113,-18.4806 1474.9269,-15.9346 1475.5839,-22.9037"/>
</g>
<!-- Node53 -->
<g id="node14" class="node">
<title>Node53</title>
<polygon fill="none" stroke="#bfbfbf" points="1405.5328,-.5 1405.5328,-19.5 1467.5328,-19.5 1467.5328,-.5 1405.5328,-.5"/>
<text text-anchor="middle" x="1436.5328" y="-7.5" font-family="FreeSans" font-size="10.00" fill="#000000">wx/string.h</text>
</g>
<!-- Node2&#45;&gt;Node53 -->
<g id="edge13" class="edge">
<title>Node2&#45;&gt;Node53</title>
<path fill="none" stroke="#191970" d="M511.7203,-112.041C502.8232,-97.6969 489.9964,-71.2716 504.5328,-56 535.6428,-23.3167 1218.6802,-12.679 1395.1974,-10.4707"/>
<polygon fill="#191970" stroke="#191970" points="1395.4151,-13.9684 1405.3714,-10.3458 1395.3291,-6.9689 1395.4151,-13.9684"/>
</g>
<!-- Node63 -->
<g id="node15" class="node">
<title>Node63</title>
<g id="a_node15"><a xlink:href="wxscintilla_8h" target="_top" xlink:title="wx/wxscintilla.h">
<polygon fill="none" stroke="#ff0000" points="766.5328,-56.5 766.5328,-75.5 848.5328,-75.5 848.5328,-56.5 766.5328,-56.5"/>
<text text-anchor="middle" x="807.5328" y="-63.5" font-family="FreeSans" font-size="10.00" fill="#000000">wx/wxscintilla.h</text>
</a>
</g>
</g>
<!-- Node2&#45;&gt;Node63 -->
<g id="edge14" class="edge">
<title>Node2&#45;&gt;Node63</title>
<path fill="none" stroke="#191970" d="M559.5726,-114.1948C605.1501,-105.5059 681.1913,-90.9478 756.2374,-76.2446"/>
<polygon fill="#191970" stroke="#191970" points="757.1974,-79.6231 766.3368,-74.2638 755.8501,-72.7539 757.1974,-79.6231"/>
</g>
<!-- Node71 -->
<g id="node16" class="node">
<title>Node71</title>
<g id="a_node16"><a xlink:href="settings_8h" target="_top" xlink:title="settings.h">
<polygon fill="none" stroke="#000000" points="867.0328,-56.5 867.0328,-75.5 924.0328,-75.5 924.0328,-56.5 867.0328,-56.5"/>
<text text-anchor="middle" x="895.5328" y="-63.5" font-family="FreeSans" font-size="10.00" fill="#000000">settings.h</text>
</a>
</g>
</g>
<!-- Node2&#45;&gt;Node71 -->
<g id="edge15" class="edge">
<title>Node2&#45;&gt;Node71</title>
<path fill="none" stroke="#191970" d="M559.765,-118.0513C622.0371,-111.7287 743.9163,-97.9576 857.1124,-75.866"/>
<polygon fill="#191970" stroke="#191970" points="857.8553,-79.2869 866.9862,-73.9131 856.4971,-72.4199 857.8553,-79.2869"/>
</g>
<!-- Node123 -->
<g id="node17" class="node">
<title>Node123</title>
<g id="a_node17"><a xlink:href="filemanager_8h" target="_top" xlink:title="filemanager.h">
<polygon fill="none" stroke="#ff0000" points="942.5328,-56.5 942.5328,-75.5 1016.5328,-75.5 1016.5328,-56.5 942.5328,-56.5"/>
<text text-anchor="middle" x="979.5328" y="-63.5" font-family="FreeSans" font-size="10.00" fill="#000000">filemanager.h</text>
</a>
</g>
</g>
<!-- Node2&#45;&gt;Node123 -->
<g id="edge16" class="edge">
<title>Node2&#45;&gt;Node123</title>
<path fill="none" stroke="#191970" d="M559.5543,-118.7973C634.1151,-112.6753 796.7097,-97.9398 932.5328,-76 932.6332,-75.9838 932.7337,-75.9675 932.8343,-75.9511"/>
<polygon fill="#191970" stroke="#191970" points="933.1608,-79.4479 942.3963,-74.2561 931.9389,-72.5554 933.1608,-79.4479"/>
</g>
<!-- Node123&#45;&gt;Node53 -->
<g id="edge17" class="edge">
<title>Node123&#45;&gt;Node53</title>
<path fill="none" stroke="#191970" d="M1016.6273,-57.5939C1019.6332,-57.0172 1022.6296,-56.4768 1025.5328,-56 1159.9168,-33.9325 1320.784,-19.3136 1395.1223,-13.2196"/>
<polygon fill="#191970" stroke="#191970" points="1395.7645,-16.6791 1405.4489,-12.3825 1395.1988,-9.702 1395.7645,-16.6791"/>
</g>
<!-- Node138&#45;&gt;Node63 -->
<g id="edge20" class="edge">
<title>Node138&#45;&gt;Node63</title>
<path fill="none" stroke="#191970" d="M1058.6115,-113.7748C1011.3897,-105.0893 934.6543,-90.8657 858.9179,-76.2514"/>
<polygon fill="#191970" stroke="#191970" points="859.2081,-72.7428 848.7255,-74.281 857.8794,-79.6155 859.2081,-72.7428"/>
</g>
<!-- Node138&#45;&gt;Node71 -->
<g id="edge22" class="edge">
<title>Node138&#45;&gt;Node71</title>
<path fill="none" stroke="#191970" d="M1067.7764,-112.3733C1030.4577,-102.3259 972.1495,-86.6276 933.8896,-76.3268"/>
<polygon fill="#191970" stroke="#191970" points="934.7084,-72.9227 924.1423,-73.7026 932.8886,-79.682 934.7084,-72.9227"/>
</g>
<!-- Node139 -->
<g id="node20" class="node">
<title>Node139</title>
<polygon fill="none" stroke="#bfbfbf" points="1034.5328,-56.5 1034.5328,-75.5 1108.5328,-75.5 1108.5328,-56.5 1034.5328,-56.5"/>
<text text-anchor="middle" x="1071.5328" y="-63.5" font-family="FreeSans" font-size="10.00" fill="#000000">wx/longlong.h</text>
</g>
<!-- Node138&#45;&gt;Node139 -->
<g id="edge21" class="edge">
<title>Node138&#45;&gt;Node139</title>
<path fill="none" stroke="#191970" d="M1097.9589,-112.2455C1093.5997,-104.617 1087.4118,-93.7881 1082.1196,-84.5267"/>
<polygon fill="#191970" stroke="#191970" points="1085.0432,-82.5886 1077.0429,-75.6427 1078.9655,-86.0616 1085.0432,-82.5886"/>
</g>
<!-- Node89 -->
<g id="node21" class="node">
<title>Node89</title>
<polygon fill="none" stroke="#bfbfbf" points="1599.0328,-.5 1599.0328,-19.5 1634.0328,-19.5 1634.0328,-.5 1599.0328,-.5"/>
<text text-anchor="middle" x="1616.5328" y="-7.5" font-family="FreeSans" font-size="10.00" fill="#000000">map</text>
</g>
<!-- Node138&#45;&gt;Node89 -->
<g id="edge23" class="edge">
<title>Node138&#45;&gt;Node89</title>
<path fill="none" stroke="#191970" d="M1107.9586,-112.3087C1115.3946,-97.2878 1131.933,-68.786 1155.5328,-56 1234.1988,-13.3801 1467.7878,-31.3625 1556.5328,-20 1567.1836,-18.6363 1578.8391,-16.7783 1589.021,-15.0339"/>
<polygon fill="#191970" stroke="#191970" points="1589.7504,-18.4594 1598.9943,-13.2825 1588.5396,-11.5649 1589.7504,-18.4594"/>
</g>
<!-- Node93 -->
<g id="node22" class="node">
<title>Node93</title>
<polygon fill="none" stroke="#bfbfbf" points="1165.0328,-56.5 1165.0328,-75.5 1194.0328,-75.5 1194.0328,-56.5 1165.0328,-56.5"/>
<text text-anchor="middle" x="1179.5328" y="-63.5" font-family="FreeSans" font-size="10.00" fill="#000000">set</text>
</g>
<!-- Node138&#45;&gt;Node93 -->
<g id="edge24" class="edge">
<title>Node138&#45;&gt;Node93</title>
<path fill="none" stroke="#191970" d="M1116.771,-112.2455C1128.2138,-103.814 1144.9625,-91.4729 1158.2803,-81.6598"/>
<polygon fill="#191970" stroke="#191970" points="1160.472,-84.3924 1166.4464,-75.6427 1156.3196,-78.757 1160.472,-84.3924"/>
</g>
<!-- Node140&#45;&gt;Node71 -->
<g id="edge26" class="edge">
<title>Node140&#45;&gt;Node71</title>
<path fill="none" stroke="#191970" d="M1218.2682,-117.0932C1154.8178,-110.359 1040.9956,-96.8782 934.0727,-75.8941"/>
<polygon fill="#191970" stroke="#191970" points="934.5714,-72.4248 924.0807,-73.9069 933.2059,-79.2904 934.5714,-72.4248"/>
</g>
<!-- Node140&#45;&gt;Node123 -->
<g id="edge27" class="edge">
<title>Node140&#45;&gt;Node123</title>
<path fill="none" stroke="#191970" d="M1218.3286,-113.0379C1171.578,-104.4349 1099.0431,-90.8605 1026.8535,-76.232"/>
<polygon fill="#191970" stroke="#191970" points="1027.1693,-72.7246 1016.6723,-74.1612 1025.7741,-79.5842 1027.1693,-72.7246"/>
</g>
<!-- Node80 -->
<g id="node24" class="node">
<title>Node80</title>
<polygon fill="none" stroke="#bfbfbf" points="1340.5328,-56.5 1340.5328,-75.5 1414.5328,-75.5 1414.5328,-56.5 1340.5328,-56.5"/>
<text text-anchor="middle" x="1377.5328" y="-63.5" font-family="FreeSans" font-size="10.00" fill="#000000">wx/fontmap.h</text>
</g>
<!-- Node140&#45;&gt;Node80 -->
<g id="edge28" class="edge">
<title>Node140&#45;&gt;Node80</title>
<path fill="none" stroke="#191970" d="M1286.6934,-112.2455C1304.044,-103.4125 1329.8229,-90.2887 1349.4911,-80.2758"/>
<polygon fill="#191970" stroke="#191970" points="1351.2681,-83.2986 1358.5919,-75.6427 1348.0923,-77.0605 1351.2681,-83.2986"/>
</g>
<!-- Node141 -->
<g id="node25" class="node">
<title>Node141</title>
<polygon fill="none" stroke="#bfbfbf" points="1212.5328,-56.5 1212.5328,-75.5 1322.5328,-75.5 1322.5328,-56.5 1212.5328,-56.5"/>
<text text-anchor="middle" x="1267.5328" y="-63.5" font-family="FreeSans" font-size="10.00" fill="#000000">nsUniversalDetector.h</text>
</g>
<!-- Node140&#45;&gt;Node141 -->
<g id="edge29" class="edge">
<title>Node140&#45;&gt;Node141</title>
<path fill="none" stroke="#191970" d="M1267.5328,-112.2455C1267.5328,-104.9382 1267.5328,-94.6944 1267.5328,-85.7046"/>
<polygon fill="#191970" stroke="#191970" points="1271.0329,-85.6426 1267.5328,-75.6427 1264.0329,-85.6427 1271.0329,-85.6426"/>
</g>
<!-- Node142&#45;&gt;Node53 -->
<g id="edge31" class="edge">
<title>Node142&#45;&gt;Node53</title>
<path fill="none" stroke="#191970" d="M1416.7221,-168.4862C1420.0417,-141.9293 1429.4622,-66.5651 1434.0121,-30.1655"/>
<polygon fill="#191970" stroke="#191970" points="1437.5369,-30.1848 1435.3044,-19.8279 1430.5909,-29.3165 1437.5369,-30.1848"/>
</g>
<!-- Node143 -->
<g id="node27" class="node">
<title>Node143</title>
<g id="a_node27"><a xlink:href="loggers_8h" target="_top" xlink:title="loggers.h">
<polygon fill="none" stroke="#ff0000" points="1471.0328,-112.5 1471.0328,-131.5 1526.0328,-131.5 1526.0328,-112.5 1471.0328,-112.5"/>
<text text-anchor="middle" x="1498.5328" y="-119.5" font-family="FreeSans" font-size="10.00" fill="#000000">loggers.h</text>
</a>
</g>
</g>
<!-- Node142&#45;&gt;Node143 -->
<g id="edge32" class="edge">
<title>Node142&#45;&gt;Node143</title>
<path fill="none" stroke="#191970" d="M1429.9903,-168.2455C1442.6061,-159.7337 1461.1273,-147.2375 1475.7374,-137.3801"/>
<polygon fill="#191970" stroke="#191970" points="1477.9089,-140.1371 1484.241,-131.6427 1473.9938,-134.3343 1477.9089,-140.1371"/>
</g>
<!-- Node146&#45;&gt;Node147 -->
<g id="edge34" class="edge">
<title>Node146&#45;&gt;Node147</title>
<path fill="none" stroke="#191970" d="M1538.4227,-168.2455C1549.4582,-159.8943 1565.5621,-147.7076 1578.4682,-137.9408"/>
<polygon fill="#191970" stroke="#191970" points="1580.9287,-140.4681 1586.7907,-131.6427 1576.7046,-134.8862 1580.9287,-140.4681"/>
</g>
<!-- Node147&#45;&gt;Node21 -->
<g id="edge45" class="edge">
<title>Node147&#45;&gt;Node21</title>
<path fill="none" stroke="#191970" d="M1594.427,-112.1994C1587.3384,-98.9435 1573.7717,-74.7972 1559.5328,-56 1551.8293,-45.8303 1542.2132,-35.3731 1534.0293,-27.004"/>
<polygon fill="#191970" stroke="#191970" points="1536.2742,-24.2989 1526.7308,-19.6973 1531.3216,-29.2459 1536.2742,-24.2989"/>
</g>
<!-- Node147&#45;&gt;Node89 -->
<g id="edge44" class="edge">
<title>Node147&#45;&gt;Node89</title>
<path fill="none" stroke="#191970" d="M1600.9822,-112.4509C1603.7549,-94.184 1609.8611,-53.9553 1613.543,-29.6976"/>
<polygon fill="#191970" stroke="#191970" points="1617.0467,-29.9369 1615.0871,-19.5249 1610.126,-28.8864 1617.0467,-29.9369"/>
</g>
<!-- Node148 -->
<g id="node30" class="node">
<title>Node148</title>
<g id="a_node30"><a xlink:href="nativeparser__base_8h" target="_top" xlink:title="nativeparser_base.h">
<polygon fill="none" stroke="#ff0000" points="1645.0328,-56.5 1645.0328,-75.5 1746.0328,-75.5 1746.0328,-56.5 1645.0328,-56.5"/>
<text text-anchor="middle" x="1695.5328" y="-63.5" font-family="FreeSans" font-size="10.00" fill="#000000">nativeparser_base.h</text>
</a>
</g>
</g>
<!-- Node147&#45;&gt;Node148 -->
<g id="edge35" class="edge">
<title>Node147&#45;&gt;Node148</title>
<path fill="none" stroke="#191970" d="M1616.2548,-112.2455C1631.1218,-103.5731 1653.0794,-90.7645 1670.1186,-80.825"/>
<polygon fill="#191970" stroke="#191970" points="1672.1283,-83.7047 1679.0025,-75.6427 1668.6012,-77.6582 1672.1283,-83.7047"/>
</g>
<!-- Node150 -->
<g id="node31" class="node">
<title>Node150</title>
<polygon fill="none" stroke="#bfbfbf" points="1713.0328,-.5 1713.0328,-19.5 1756.0328,-19.5 1756.0328,-.5 1713.0328,-.5"/>
<text text-anchor="middle" x="1734.5328" y="-7.5" font-family="FreeSans" font-size="10.00" fill="#000000">queue</text>
</g>
<!-- Node147&#45;&gt;Node150 -->
<g id="edge43" class="edge">
<title>Node147&#45;&gt;Node150</title>
<path fill="none" stroke="#191970" d="M1637.8682,-116.0332C1679.3299,-108.7048 1741.4143,-94.8827 1755.5328,-76 1766.0466,-61.9385 1757.735,-42.4461 1748.6526,-28.2927"/>
<polygon fill="#191970" stroke="#191970" points="1751.3631,-26.0613 1742.7629,-19.8735 1745.6272,-30.0739 1751.3631,-26.0613"/>
</g>
<!-- Node154 -->
<g id="node32" class="node">
<title>Node154</title>
<g id="a_node32"><a xlink:href="parser_8h" target="_top" xlink:title="parser/parser.h">
<polygon fill="none" stroke="#ff0000" points="1470.5328,-56.5 1470.5328,-75.5 1550.5328,-75.5 1550.5328,-56.5 1470.5328,-56.5"/>
<text text-anchor="middle" x="1510.5328" y="-63.5" font-family="FreeSans" font-size="10.00" fill="#000000">parser/parser.h</text>
</a>
</g>
</g>
<!-- Node147&#45;&gt;Node154 -->
<g id="edge39" class="edge">
<title>Node147&#45;&gt;Node154</title>
<path fill="none" stroke="#191970" d="M1584.0302,-112.2455C1570.3749,-103.6534 1550.2671,-91.0014 1534.5339,-81.1018"/>
<polygon fill="#191970" stroke="#191970" points="1536.1857,-78.006 1525.8578,-75.6427 1532.4578,-83.9307 1536.1857,-78.006"/>
</g>
<!-- Node148&#45;&gt;Node53 -->
<g id="edge36" class="edge">
<title>Node148&#45;&gt;Node53</title>
<path fill="none" stroke="#191970" d="M1647.5702,-56.4707C1605.2944,-47.9485 1541.7951,-34.851 1477.8045,-20.2359"/>
<polygon fill="#191970" stroke="#191970" points="1478.4782,-16.7996 1467.9486,-17.9735 1476.9121,-23.6221 1478.4782,-16.7996"/>
</g>
<!-- Node148&#45;&gt;Node89 -->
<g id="edge37" class="edge">
<title>Node148&#45;&gt;Node89</title>
<path fill="none" stroke="#191970" d="M1681.7721,-56.2455C1669.8776,-47.814 1652.4678,-35.4729 1638.6243,-25.6598"/>
<polygon fill="#191970" stroke="#191970" points="1640.3182,-22.5704 1630.1359,-19.6427 1636.2701,-28.2811 1640.3182,-22.5704"/>
</g>
<!-- Node148&#45;&gt;Node150 -->
<g id="edge38" class="edge">
<title>Node148&#45;&gt;Node150</title>
<path fill="none" stroke="#191970" d="M1702.3261,-56.2455C1707.7507,-48.4564 1715.4989,-37.3308 1722.0362,-27.9439"/>
<polygon fill="#191970" stroke="#191970" points="1724.9746,-29.849 1727.8174,-19.6427 1719.2303,-25.8485 1724.9746,-29.849"/>
</g>
<!-- Node154&#45;&gt;Node6 -->
<g id="edge40" class="edge">
<title>Node154&#45;&gt;Node6</title>
<path fill="none" stroke="#191970" d="M1470.2959,-60.9238C1455.5978,-59.1887 1438.8292,-57.3479 1423.5328,-56 1153.2319,-32.1821 826.9688,-16.6713 714.7288,-11.7163"/>
<polygon fill="#191970" stroke="#191970" points="714.6877,-8.2113 704.544,-11.2699 714.3811,-15.2046 714.6877,-8.2113"/>
</g>
<!-- Node154&#45;&gt;Node21 -->
<g id="edge41" class="edge">
<title>Node154&#45;&gt;Node21</title>
<path fill="none" stroke="#191970" d="M1511.578,-56.2455C1512.3609,-48.9382 1513.4584,-38.6944 1514.4216,-29.7046"/>
<polygon fill="#191970" stroke="#191970" points="1517.9144,-29.9587 1515.4997,-19.6427 1510.9542,-29.2129 1517.9144,-29.9587"/>
</g>
<!-- Node154&#45;&gt;Node53 -->
<g id="edge42" class="edge">
<title>Node154&#45;&gt;Node53</title>
<path fill="none" stroke="#191970" d="M1497.643,-56.2455C1486.6075,-47.8943 1470.5036,-35.7076 1457.5975,-25.9408"/>
<polygon fill="#191970" stroke="#191970" points="1459.3611,-22.8862 1449.2749,-19.6427 1455.137,-28.4681 1459.3611,-22.8862"/>
</g>
</g>
</svg>
