<?xml version="1.0" encoding="UTF-8" standalone="no"?>
<!DOCTYPE svg PUBLIC "-//W3C//DTD SVG 1.1//EN"
 "http://www.w3.org/Graphics/SVG/1.1/DTD/svg11.dtd">
<!-- Generated by graphviz version 2.38.0 (20140413.2041)
 -->
<!-- Title: coderefactoring.h Pages: 1 -->
<svg width="1200pt" height="420pt"
 viewBox="0.00 0.00 1200.00 420.00" xmlns="http://www.w3.org/2000/svg" xmlns:xlink="http://www.w3.org/1999/xlink">
<g id="graph0" class="graph" transform="scale(1 1) rotate(0) translate(4 416)">
<title>coderefactoring.h</title>
<!-- Node0 -->
<g id="node1" class="node"><title>Node0</title>
<polygon fill="#bfbfbf" stroke="black" points="204.5,-392.5 204.5,-411.5 295.5,-411.5 295.5,-392.5 204.5,-392.5"/>
<text text-anchor="middle" x="250" y="-399.5" font-family="FreeSans" font-size="10.00">coderefactoring.h</text>
</g>
<!-- Node1 -->
<g id="node2" class="node"><title>Node1</title>
<g id="a_node2"><a xlink:href="nativeparser_8h" target="_top" xlink:title="nativeparser.h">
<polygon fill="none" stroke="black" points="212,-336.5 212,-355.5 288,-355.5 288,-336.5 212,-336.5"/>
<text text-anchor="middle" x="250" y="-343.5" font-family="FreeSans" font-size="10.00">nativeparser.h</text>
</a>
</g>
</g>
<!-- Node0&#45;&gt;Node1 -->
<g id="edge1" class="edge"><title>Node0&#45;&gt;Node1</title>
<path fill="none" stroke="midnightblue" d="M250,-392.083C250,-385.006 250,-374.861 250,-365.986"/>
<polygon fill="midnightblue" stroke="midnightblue" points="253.5,-365.751 250,-355.751 246.5,-365.751 253.5,-365.751"/>
</g>
<!-- Node2 -->
<g id="node3" class="node"><title>Node2</title>
<g id="a_node3"><a xlink:href="nativeparser__base_8h" target="_top" xlink:title="nativeparser_base.h">
<polygon fill="none" stroke="black" points="120.5,-168.5 120.5,-187.5 221.5,-187.5 221.5,-168.5 120.5,-168.5"/>
<text text-anchor="middle" x="171" y="-175.5" font-family="FreeSans" font-size="10.00">nativeparser_base.h</text>
</a>
</g>
</g>
<!-- Node1&#45;&gt;Node2 -->
<g id="edge2" class="edge"><title>Node1&#45;&gt;Node2</title>
<path fill="none" stroke="midnightblue" d="M245.753,-336.075C233.21,-309.719 196.165,-231.878 179.405,-196.661"/>
<polygon fill="midnightblue" stroke="midnightblue" points="182.535,-195.094 175.078,-187.568 176.215,-198.102 182.535,-195.094"/>
</g>
<!-- Node5 -->
<g id="node6" class="node"><title>Node5</title>
<polygon fill="none" stroke="#bfbfbf" points="20.5,-0.5 20.5,-19.5 55.5,-19.5 55.5,-0.5 20.5,-0.5"/>
<text text-anchor="middle" x="38" y="-7.5" font-family="FreeSans" font-size="10.00">map</text>
</g>
<!-- Node1&#45;&gt;Node5 -->
<g id="edge50" class="edge"><title>Node1&#45;&gt;Node5</title>
<path fill="none" stroke="midnightblue" d="M211.758,-344.912C141.726,-342.523 0,-326.399 0,-235 0,-235 0,-235 0,-121 0,-86.8131 16.6005,-49.7639 27.8573,-28.5707"/>
<polygon fill="midnightblue" stroke="midnightblue" points="30.9473,-30.2151 32.7163,-19.769 24.8191,-26.832 30.9473,-30.2151"/>
</g>
<!-- Node6 -->
<g id="node7" class="node"><title>Node6</title>
<polygon fill="none" stroke="#bfbfbf" points="222.5,-112.5 222.5,-131.5 265.5,-131.5 265.5,-112.5 222.5,-112.5"/>
<text text-anchor="middle" x="244" y="-119.5" font-family="FreeSans" font-size="10.00">queue</text>
</g>
<!-- Node1&#45;&gt;Node6 -->
<g id="edge49" class="edge"><title>Node1&#45;&gt;Node6</title>
<path fill="none" stroke="midnightblue" d="M249.765,-336.297C248.882,-303.633 245.753,-187.866 244.512,-141.957"/>
<polygon fill="midnightblue" stroke="midnightblue" points="248.009,-141.785 244.24,-131.884 241.012,-141.975 248.009,-141.785"/>
</g>
<!-- Node16 -->
<g id="node12" class="node"><title>Node16</title>
<g id="a_node12"><a xlink:href="parser_8h" target="_top" xlink:title="parser/parser.h">
<polygon fill="none" stroke="black" points="650,-280.5 650,-299.5 730,-299.5 730,-280.5 650,-280.5"/>
<text text-anchor="middle" x="690" y="-287.5" font-family="FreeSans" font-size="10.00">parser/parser.h</text>
</a>
</g>
</g>
<!-- Node1&#45;&gt;Node16 -->
<g id="edge15" class="edge"><title>Node1&#45;&gt;Node16</title>
<path fill="none" stroke="midnightblue" d="M288.277,-340.302C367.819,-330.54 550.951,-308.065 639.813,-297.159"/>
<polygon fill="midnightblue" stroke="midnightblue" points="640.413,-300.612 649.912,-295.92 639.561,-293.664 640.413,-300.612"/>
</g>
<!-- Node17 -->
<g id="node13" class="node"><title>Node17</title>
<polygon fill="none" stroke="#bfbfbf" points="931,-56.5 931,-75.5 993,-75.5 993,-56.5 931,-56.5"/>
<text text-anchor="middle" x="962" y="-63.5" font-family="FreeSans" font-size="10.00">wx/event.h</text>
</g>
<!-- Node1&#45;&gt;Node17 -->
<g id="edge51" class="edge"><title>Node1&#45;&gt;Node17</title>
<path fill="none" stroke="midnightblue" d="M288.094,-344.626C464.327,-342.403 1192,-327.617 1192,-235 1192,-235 1192,-235 1192,-177 1192,-94.2312 1069.28,-73.6881 1003.12,-68.627"/>
<polygon fill="midnightblue" stroke="midnightblue" points="1003.23,-65.1265 993.019,-67.9405 1002.76,-72.1104 1003.23,-65.1265"/>
</g>
<!-- Node3 -->
<g id="node4" class="node"><title>Node3</title>
<polygon fill="none" stroke="#bfbfbf" points="66.5,-112.5 66.5,-131.5 127.5,-131.5 127.5,-112.5 66.5,-112.5"/>
<text text-anchor="middle" x="97" y="-119.5" font-family="FreeSans" font-size="10.00">wx/wxcrt.h</text>
</g>
<!-- Node2&#45;&gt;Node3 -->
<g id="edge3" class="edge"><title>Node2&#45;&gt;Node3</title>
<path fill="none" stroke="midnightblue" d="M159.111,-168.324C147.85,-160.107 130.713,-147.602 117.291,-137.807"/>
<polygon fill="midnightblue" stroke="midnightblue" points="119.247,-134.901 109.106,-131.834 115.12,-140.556 119.247,-134.901"/>
</g>
<!-- Node4 -->
<g id="node5" class="node"><title>Node4</title>
<polygon fill="none" stroke="#bfbfbf" points="363,-0.5 363,-19.5 425,-19.5 425,-0.5 363,-0.5"/>
<text text-anchor="middle" x="394" y="-7.5" font-family="FreeSans" font-size="10.00">wx/string.h</text>
</g>
<!-- Node2&#45;&gt;Node4 -->
<g id="edge4" class="edge"><title>Node2&#45;&gt;Node4</title>
<path fill="none" stroke="midnightblue" d="M171.771,-168.122C173.335,-154.714 177.93,-129.057 191,-112 231.262,-59.4571 306.222,-32.3623 352.923,-19.9548"/>
<polygon fill="midnightblue" stroke="midnightblue" points="353.896,-23.3187 362.721,-17.4565 352.167,-16.5356 353.896,-23.3187"/>
</g>
<!-- Node2&#45;&gt;Node5 -->
<g id="edge5" class="edge"><title>Node2&#45;&gt;Node5</title>
<path fill="none" stroke="midnightblue" d="M120.435,-168.793C97.712,-162.501 72.5626,-151.431 57,-132 33.3781,-102.506 33.3955,-55.6551 35.6158,-29.7556"/>
<polygon fill="midnightblue" stroke="midnightblue" points="39.1018,-30.0717 36.6767,-19.7581 32.1409,-29.3329 39.1018,-30.0717"/>
</g>
<!-- Node2&#45;&gt;Node6 -->
<g id="edge6" class="edge"><title>Node2&#45;&gt;Node6</title>
<path fill="none" stroke="midnightblue" d="M182.729,-168.324C193.837,-160.107 210.742,-147.602 223.983,-137.807"/>
<polygon fill="midnightblue" stroke="midnightblue" points="226.1,-140.595 232.058,-131.834 221.937,-134.967 226.1,-140.595"/>
</g>
<!-- Node7 -->
<g id="node8" class="node"><title>Node7</title>
<g id="a_node8"><a xlink:href="token_8h" target="_top" xlink:title="parser/token.h">
<polygon fill="none" stroke="red" points="322.5,-56.5 322.5,-75.5 399.5,-75.5 399.5,-56.5 322.5,-56.5"/>
<text text-anchor="middle" x="361" y="-63.5" font-family="FreeSans" font-size="10.00">parser/token.h</text>
</a>
</g>
</g>
<!-- Node2&#45;&gt;Node7 -->
<g id="edge7" class="edge"><title>Node2&#45;&gt;Node7</title>
<path fill="none" stroke="midnightblue" d="M174.228,-168.453C179.917,-154.542 193.048,-127.047 213,-112 241.896,-90.2078 281.384,-78.889 312.303,-73.0558"/>
<polygon fill="midnightblue" stroke="midnightblue" points="313.187,-76.4543 322.433,-71.2806 311.979,-69.5593 313.187,-76.4543"/>
</g>
<!-- Node10 -->
<g id="node10" class="node"><title>Node10</title>
<g id="a_node10"><a xlink:href="tokentree_8h" target="_top" xlink:title="parser/tokentree.h">
<polygon fill="none" stroke="red" points="360,-112.5 360,-131.5 454,-131.5 454,-112.5 360,-112.5"/>
<text text-anchor="middle" x="407" y="-119.5" font-family="FreeSans" font-size="10.00">parser/tokentree.h</text>
</a>
</g>
</g>
<!-- Node2&#45;&gt;Node10 -->
<g id="edge11" class="edge"><title>Node2&#45;&gt;Node10</title>
<path fill="none" stroke="midnightblue" d="M208.395,-168.444C249.392,-159.063 315.254,-143.993 359.784,-133.804"/>
<polygon fill="midnightblue" stroke="midnightblue" points="360.813,-137.159 369.78,-131.516 359.251,-130.335 360.813,-137.159"/>
</g>
<!-- Node7&#45;&gt;Node4 -->
<g id="edge9" class="edge"><title>Node7&#45;&gt;Node4</title>
<path fill="none" stroke="midnightblue" d="M366.449,-56.083C371.014,-48.6127 377.668,-37.7244 383.293,-28.5199"/>
<polygon fill="midnightblue" stroke="midnightblue" points="386.424,-30.109 388.652,-19.7511 380.451,-26.4588 386.424,-30.109"/>
</g>
<!-- Node7&#45;&gt;Node5 -->
<g id="edge10" class="edge"><title>Node7&#45;&gt;Node5</title>
<path fill="none" stroke="midnightblue" d="M322.359,-58.54C256.446,-47.5204 123.806,-25.3453 65.9994,-15.681"/>
<polygon fill="midnightblue" stroke="midnightblue" points="66.2333,-12.1716 55.793,-13.9747 65.079,-19.0758 66.2333,-12.1716"/>
</g>
<!-- Node8 -->
<g id="node9" class="node"><title>Node8</title>
<polygon fill="none" stroke="#bfbfbf" points="740,-0.5 740,-19.5 800,-19.5 800,-0.5 740,-0.5"/>
<text text-anchor="middle" x="770" y="-7.5" font-family="FreeSans" font-size="10.00">wx/arrstr.h</text>
</g>
<!-- Node7&#45;&gt;Node8 -->
<g id="edge8" class="edge"><title>Node7&#45;&gt;Node8</title>
<path fill="none" stroke="midnightblue" d="M399.846,-59.8711C477.515,-49.6165 651.24,-26.6798 729.917,-16.2922"/>
<polygon fill="midnightblue" stroke="midnightblue" points="730.466,-19.7501 739.922,-14.9712 729.55,-12.8103 730.466,-19.7501"/>
</g>
<!-- Node10&#45;&gt;Node4 -->
<g id="edge12" class="edge"><title>Node10&#45;&gt;Node4</title>
<path fill="none" stroke="midnightblue" d="M408.063,-112.106C409.356,-99.5278 411.018,-75.8612 408,-56 406.632,-47.001 403.81,-37.3251 401.055,-29.2601"/>
<polygon fill="midnightblue" stroke="midnightblue" points="404.312,-27.9759 397.6,-19.7782 397.735,-30.3722 404.312,-27.9759"/>
</g>
<!-- Node10&#45;&gt;Node7 -->
<g id="edge14" class="edge"><title>Node10&#45;&gt;Node7</title>
<path fill="none" stroke="midnightblue" d="M399.404,-112.083C392.773,-104.298 382.979,-92.8015 374.942,-83.3665"/>
<polygon fill="midnightblue" stroke="midnightblue" points="377.604,-81.0939 368.455,-75.7511 372.275,-85.6332 377.604,-81.0939"/>
</g>
<!-- Node11 -->
<g id="node11" class="node"><title>Node11</title>
<polygon fill="none" stroke="#bfbfbf" points="464.5,-56.5 464.5,-75.5 529.5,-75.5 529.5,-56.5 464.5,-56.5"/>
<text text-anchor="middle" x="497" y="-63.5" font-family="FreeSans" font-size="10.00">wx/thread.h</text>
</g>
<!-- Node10&#45;&gt;Node11 -->
<g id="edge13" class="edge"><title>Node10&#45;&gt;Node11</title>
<path fill="none" stroke="midnightblue" d="M421.46,-112.324C435.5,-103.9 457.048,-90.9709 473.543,-81.0741"/>
<polygon fill="midnightblue" stroke="midnightblue" points="475.802,-83.8007 482.576,-75.6545 472.2,-77.7983 475.802,-83.8007"/>
</g>
<!-- Node16&#45;&gt;Node4 -->
<g id="edge21" class="edge"><title>Node16&#45;&gt;Node4</title>
<path fill="none" stroke="midnightblue" d="M649.85,-286.406C549.175,-278.807 294,-252.315 294,-179 294,-179 294,-179 294,-121 294,-90.9022 294.215,-79.5156 313,-56 324.641,-41.428 342.351,-30.8253 358.246,-23.5852"/>
<polygon fill="midnightblue" stroke="midnightblue" points="360.004,-26.6407 367.837,-19.5065 357.265,-20.199 360.004,-26.6407"/>
</g>
<!-- Node16&#45;&gt;Node8 -->
<g id="edge16" class="edge"><title>Node16&#45;&gt;Node8</title>
<path fill="none" stroke="midnightblue" d="M730.021,-287.478C833.532,-283.191 1104.17,-269.628 1135,-244 1158.14,-224.758 1154,-209.098 1154,-179 1154,-179 1154,-179 1154,-121 1154,-50.0754 908.847,-22.2638 810.301,-13.9493"/>
<polygon fill="midnightblue" stroke="midnightblue" points="810.384,-10.4445 800.132,-13.1169 809.813,-17.4211 810.384,-10.4445"/>
</g>
<!-- Node16&#45;&gt;Node11 -->
<g id="edge22" class="edge"><title>Node16&#45;&gt;Node11</title>
<path fill="none" stroke="midnightblue" d="M649.724,-282.684C571.335,-269.417 403.349,-235.875 374,-188 341.449,-134.902 433.654,-158.614 463,-132 476.832,-119.456 485.973,-99.9579 491.259,-85.5871"/>
<polygon fill="midnightblue" stroke="midnightblue" points="494.681,-86.3912 494.564,-75.797 488.049,-84.1524 494.681,-86.3912"/>
</g>
<!-- Node16&#45;&gt;Node17 -->
<g id="edge17" class="edge"><title>Node16&#45;&gt;Node17</title>
<path fill="none" stroke="midnightblue" d="M730.286,-284.237C817.683,-272.973 1019.98,-241.545 1059,-188 1088.23,-147.881 1025.04,-102.787 987.396,-80.6938"/>
<polygon fill="midnightblue" stroke="midnightblue" points="988.867,-77.5036 978.446,-75.5896 985.399,-83.5842 988.867,-77.5036"/>
</g>
<!-- Node18 -->
<g id="node14" class="node"><title>Node18</title>
<polygon fill="none" stroke="#bfbfbf" points="1000,-168.5 1000,-187.5 1050,-187.5 1050,-168.5 1000,-168.5"/>
<text text-anchor="middle" x="1025" y="-175.5" font-family="FreeSans" font-size="10.00">wx/file.h</text>
</g>
<!-- Node16&#45;&gt;Node18 -->
<g id="edge18" class="edge"><title>Node16&#45;&gt;Node18</title>
<path fill="none" stroke="midnightblue" d="M720.929,-280.462C751.947,-271.769 801.005,-257.663 843,-244 895.933,-226.779 956.694,-204.58 992.907,-191.087"/>
<polygon fill="midnightblue" stroke="midnightblue" points="994.301,-194.303 1002.44,-187.524 991.851,-187.746 994.301,-194.303"/>
</g>
<!-- Node19 -->
<g id="node15" class="node"><title>Node19</title>
<polygon fill="none" stroke="#bfbfbf" points="383.5,-168.5 383.5,-187.5 442.5,-187.5 442.5,-168.5 383.5,-168.5"/>
<text text-anchor="middle" x="413" y="-175.5" font-family="FreeSans" font-size="10.00">wx/filefn.h</text>
</g>
<!-- Node16&#45;&gt;Node19 -->
<g id="edge19" class="edge"><title>Node16&#45;&gt;Node19</title>
<path fill="none" stroke="midnightblue" d="M649.958,-281.007C616.157,-273.559 566.878,-261.038 526,-244 492.184,-229.906 455.952,-207.646 433.88,-193.184"/>
<polygon fill="midnightblue" stroke="midnightblue" points="435.603,-190.126 425.336,-187.509 431.73,-195.957 435.603,-190.126"/>
</g>
<!-- Node20 -->
<g id="node16" class="node"><title>Node20</title>
<polygon fill="none" stroke="#bfbfbf" points="594.5,-168.5 594.5,-187.5 665.5,-187.5 665.5,-168.5 594.5,-168.5"/>
<text text-anchor="middle" x="630" y="-175.5" font-family="FreeSans" font-size="10.00">wx/imaglist.h</text>
</g>
<!-- Node16&#45;&gt;Node20 -->
<g id="edge20" class="edge"><title>Node16&#45;&gt;Node20</title>
<path fill="none" stroke="midnightblue" d="M685.292,-280.368C675.478,-262.376 652.664,-220.55 639.615,-196.627"/>
<polygon fill="midnightblue" stroke="midnightblue" points="642.547,-194.694 634.686,-187.591 636.402,-198.046 642.547,-194.694"/>
</g>
<!-- Node21 -->
<g id="node17" class="node"><title>Node21</title>
<polygon fill="none" stroke="#bfbfbf" points="836,-168.5 836,-187.5 896,-187.5 896,-168.5 836,-168.5"/>
<text text-anchor="middle" x="866" y="-175.5" font-family="FreeSans" font-size="10.00">wx/timer.h</text>
</g>
<!-- Node16&#45;&gt;Node21 -->
<g id="edge23" class="edge"><title>Node16&#45;&gt;Node21</title>
<path fill="none" stroke="midnightblue" d="M709.27,-280.441C727.656,-272.002 755.895,-258.322 779,-244 803.837,-228.605 830.488,-208.027 847.653,-194.184"/>
<polygon fill="midnightblue" stroke="midnightblue" points="850.164,-196.652 855.705,-187.622 845.742,-191.226 850.164,-196.652"/>
</g>
<!-- Node22 -->
<g id="node18" class="node"><title>Node22</title>
<polygon fill="none" stroke="#bfbfbf" points="914,-168.5 914,-187.5 982,-187.5 982,-168.5 914,-168.5"/>
<text text-anchor="middle" x="948" y="-175.5" font-family="FreeSans" font-size="10.00">wx/treectrl.h</text>
</g>
<!-- Node16&#45;&gt;Node22 -->
<g id="edge24" class="edge"><title>Node16&#45;&gt;Node22</title>
<path fill="none" stroke="midnightblue" d="M713.487,-280.476C737.238,-271.738 774.922,-257.546 807,-244 847.205,-227.022 892.955,-205.519 921.153,-192.007"/>
<polygon fill="midnightblue" stroke="midnightblue" points="922.862,-195.069 930.358,-187.581 919.829,-188.76 922.862,-195.069"/>
</g>
<!-- Node23 -->
<g id="node19" class="node"><title>Node23</title>
<g id="a_node19"><a xlink:href="cbthreadpool_8h" target="_top" xlink:title="cbthreadpool.h">
<polygon fill="none" stroke="red" points="586,-112.5 586,-131.5 666,-131.5 666,-112.5 586,-112.5"/>
<text text-anchor="middle" x="626" y="-119.5" font-family="FreeSans" font-size="10.00">cbthreadpool.h</text>
</a>
</g>
</g>
<!-- Node16&#45;&gt;Node23 -->
<g id="edge25" class="edge"><title>Node16&#45;&gt;Node23</title>
<path fill="none" stroke="midnightblue" d="M675.265,-280.428C651.012,-265.353 603.524,-231.521 585,-188 577.269,-169.836 592.171,-150.955 606.125,-138.254"/>
<polygon fill="midnightblue" stroke="midnightblue" points="608.683,-140.674 614.054,-131.542 604.16,-135.332 608.683,-140.674"/>
</g>
<!-- Node27 -->
<g id="node20" class="node"><title>Node27</title>
<g id="a_node20"><a xlink:href="sdk__events_8h" target="_top" xlink:title="sdk_events.h">
<polygon fill="none" stroke="red" points="1054,-224.5 1054,-243.5 1126,-243.5 1126,-224.5 1054,-224.5"/>
<text text-anchor="middle" x="1090" y="-231.5" font-family="FreeSans" font-size="10.00">sdk_events.h</text>
</a>
</g>
</g>
<!-- Node16&#45;&gt;Node27 -->
<g id="edge28" class="edge"><title>Node16&#45;&gt;Node27</title>
<path fill="none" stroke="midnightblue" d="M730.248,-284.491C795.445,-277.038 928.137,-261.248 1040,-244 1041.27,-243.803 1042.57,-243.6 1043.87,-243.391"/>
<polygon fill="midnightblue" stroke="midnightblue" points="1044.7,-246.802 1053.99,-241.705 1043.55,-239.897 1044.7,-246.802"/>
</g>
<!-- Node29 -->
<g id="node21" class="node"><title>Node29</title>
<g id="a_node21"><a xlink:href="parserthread_8h" target="_top" xlink:title="parserthread.h">
<polygon fill="none" stroke="red" points="460.5,-168.5 460.5,-187.5 537.5,-187.5 537.5,-168.5 460.5,-168.5"/>
<text text-anchor="middle" x="499" y="-175.5" font-family="FreeSans" font-size="10.00">parserthread.h</text>
</a>
</g>
</g>
<!-- Node16&#45;&gt;Node29 -->
<g id="edge30" class="edge"><title>Node16&#45;&gt;Node29</title>
<path fill="none" stroke="midnightblue" d="M649.833,-282.214C620.745,-275.866 581.514,-264.234 552,-244 533.873,-231.573 518.697,-211.204 509.294,-196.578"/>
<polygon fill="midnightblue" stroke="midnightblue" points="512.198,-194.619 503.975,-187.938 506.237,-198.288 512.198,-194.619"/>
</g>
<!-- Node58 -->
<g id="node22" class="node"><title>Node58</title>
<g id="a_node22"><a xlink:href="parser__base_8h" target="_top" xlink:title="parser_base.h">
<polygon fill="none" stroke="black" points="694,-224.5 694,-243.5 770,-243.5 770,-224.5 694,-224.5"/>
<text text-anchor="middle" x="732" y="-231.5" font-family="FreeSans" font-size="10.00">parser_base.h</text>
</a>
</g>
</g>
<!-- Node16&#45;&gt;Node58 -->
<g id="edge38" class="edge"><title>Node16&#45;&gt;Node58</title>
<path fill="none" stroke="midnightblue" d="M696.935,-280.083C702.929,-272.377 711.752,-261.033 719.048,-251.653"/>
<polygon fill="midnightblue" stroke="midnightblue" points="721.817,-253.793 725.194,-243.751 716.291,-249.496 721.817,-253.793"/>
</g>
<!-- Node23&#45;&gt;Node11 -->
<g id="edge26" class="edge"><title>Node23&#45;&gt;Node11</title>
<path fill="none" stroke="midnightblue" d="M605.56,-112.444C584.33,-103.557 550.901,-89.5632 526.745,-79.4514"/>
<polygon fill="midnightblue" stroke="midnightblue" points="527.921,-76.1493 517.345,-75.5164 525.218,-82.6064 527.921,-76.1493"/>
</g>
<!-- Node23&#45;&gt;Node17 -->
<g id="edge27" class="edge"><title>Node23&#45;&gt;Node17</title>
<path fill="none" stroke="midnightblue" d="M666.196,-114.54C730.515,-104.203 855.912,-84.0499 920.837,-73.6155"/>
<polygon fill="midnightblue" stroke="midnightblue" points="921.401,-77.0698 930.719,-72.0273 920.291,-70.1585 921.401,-77.0698"/>
</g>
<!-- Node27&#45;&gt;Node17 -->
<g id="edge29" class="edge"><title>Node27&#45;&gt;Node17</title>
<path fill="none" stroke="midnightblue" d="M1093.29,-224.372C1100.83,-203.02 1116.86,-146.913 1092,-112 1072.05,-83.9808 1033.4,-73.2453 1003.41,-69.2146"/>
<polygon fill="midnightblue" stroke="midnightblue" points="1003.54,-65.7068 993.206,-68.0512 1002.74,-72.6617 1003.54,-65.7068"/>
</g>
<!-- Node29&#45;&gt;Node4 -->
<g id="edge32" class="edge"><title>Node29&#45;&gt;Node4</title>
<path fill="none" stroke="midnightblue" d="M506.735,-168.23C524.466,-147.032 564.539,-92.0985 538,-56 514.59,-24.1577 468.749,-14.2187 435.053,-11.4249"/>
<polygon fill="midnightblue" stroke="midnightblue" points="435.23,-7.92915 425.023,-10.771 434.774,-14.9143 435.23,-7.92915"/>
</g>
<!-- Node29&#45;&gt;Node6 -->
<g id="edge34" class="edge"><title>Node29&#45;&gt;Node6</title>
<path fill="none" stroke="midnightblue" d="M460.271,-168.799C409.754,-158.101 322.327,-139.587 275.601,-129.692"/>
<polygon fill="midnightblue" stroke="midnightblue" points="276.239,-126.25 265.731,-127.602 274.789,-133.098 276.239,-126.25"/>
</g>
<!-- Node29&#45;&gt;Node7 -->
<g id="edge36" class="edge"><title>Node29&#45;&gt;Node7</title>
<path fill="none" stroke="midnightblue" d="M463.147,-168.462C421.575,-158.203 357.836,-141.224 351,-132 340.934,-118.419 345.857,-98.804 351.798,-84.6783"/>
<polygon fill="midnightblue" stroke="midnightblue" points="355.013,-86.066 356.103,-75.5274 348.679,-83.0856 355.013,-86.066"/>
</g>
<!-- Node29&#45;&gt;Node10 -->
<g id="edge37" class="edge"><title>Node29&#45;&gt;Node10</title>
<path fill="none" stroke="midnightblue" d="M484.219,-168.324C469.733,-159.822 447.427,-146.729 430.507,-136.797"/>
<polygon fill="midnightblue" stroke="midnightblue" points="432.141,-133.698 421.745,-131.655 428.597,-139.735 432.141,-133.698"/>
</g>
<!-- Node29&#45;&gt;Node11 -->
<g id="edge33" class="edge"><title>Node29&#45;&gt;Node11</title>
<path fill="none" stroke="midnightblue" d="M498.843,-168.368C498.52,-150.617 497.776,-109.666 497.338,-85.5974"/>
<polygon fill="midnightblue" stroke="midnightblue" points="500.838,-85.5261 497.156,-75.5914 493.839,-85.6534 500.838,-85.5261"/>
</g>
<!-- Node29&#45;&gt;Node17 -->
<g id="edge31" class="edge"><title>Node29&#45;&gt;Node17</title>
<path fill="none" stroke="midnightblue" d="M534.946,-168.46C619.643,-148.337 831.332,-98.0443 920.92,-76.7598"/>
<polygon fill="midnightblue" stroke="midnightblue" points="921.8,-80.1483 930.72,-74.4315 920.182,-73.3379 921.8,-80.1483"/>
</g>
<!-- Node29&#45;&gt;Node23 -->
<g id="edge35" class="edge"><title>Node29&#45;&gt;Node23</title>
<path fill="none" stroke="midnightblue" d="M519.124,-168.444C540.024,-159.557 572.935,-145.563 596.716,-135.451"/>
<polygon fill="midnightblue" stroke="midnightblue" points="598.138,-138.65 605.971,-131.516 595.398,-132.208 598.138,-138.65"/>
</g>
<!-- Node58&#45;&gt;Node4 -->
<g id="edge44" class="edge"><title>Node58&#45;&gt;Node4</title>
<path fill="none" stroke="midnightblue" d="M732.119,-224.322C731.936,-202.358 728.353,-144.042 697,-112 625.733,-39.1673 500.646,-18.8543 435.732,-13.1898"/>
<polygon fill="midnightblue" stroke="midnightblue" points="435.716,-9.6776 425.47,-12.3735 435.161,-16.6556 435.716,-9.6776"/>
</g>
<!-- Node58&#45;&gt;Node8 -->
<g id="edge39" class="edge"><title>Node58&#45;&gt;Node8</title>
<path fill="none" stroke="midnightblue" d="M735.116,-224.488C738.287,-215.523 743.131,-200.94 746,-188 758.615,-131.106 765.642,-62.3626 768.487,-29.824"/>
<polygon fill="midnightblue" stroke="midnightblue" points="772,-29.821 769.349,-19.5631 765.024,-29.2351 772,-29.821"/>
</g>
<!-- Node58&#45;&gt;Node11 -->
<g id="edge45" class="edge"><title>Node58&#45;&gt;Node11</title>
<path fill="none" stroke="midnightblue" d="M728.963,-224.185C720.119,-198.994 693.819,-127.503 675,-112 636.607,-80.3721 578.878,-70.5823 539.653,-67.7589"/>
<polygon fill="midnightblue" stroke="midnightblue" points="539.799,-64.2615 529.608,-67.1583 539.381,-71.249 539.799,-64.2615"/>
</g>
<!-- Node58&#45;&gt;Node17 -->
<g id="edge40" class="edge"><title>Node58&#45;&gt;Node17</title>
<path fill="none" stroke="midnightblue" d="M744.042,-224.309C781.303,-197.416 895.007,-115.352 941.679,-81.6665"/>
<polygon fill="midnightblue" stroke="midnightblue" points="944.017,-84.2955 950.077,-75.6051 939.92,-78.6195 944.017,-84.2955"/>
</g>
<!-- Node58&#45;&gt;Node18 -->
<g id="edge41" class="edge"><title>Node58&#45;&gt;Node18</title>
<path fill="none" stroke="midnightblue" d="M770.381,-227.397C819.191,-220.038 906.247,-206.133 989.891,-188.091"/>
<polygon fill="midnightblue" stroke="midnightblue" points="990.783,-191.479 999.808,-185.929 989.292,-184.64 990.783,-191.479"/>
</g>
<!-- Node58&#45;&gt;Node19 -->
<g id="edge42" class="edge"><title>Node58&#45;&gt;Node19</title>
<path fill="none" stroke="midnightblue" d="M693.662,-227.775C641.327,-220.442 544.389,-206.15 452.812,-188.254"/>
<polygon fill="midnightblue" stroke="midnightblue" points="453.314,-184.785 442.825,-186.283 451.959,-191.653 453.314,-184.785"/>
</g>
<!-- Node58&#45;&gt;Node20 -->
<g id="edge43" class="edge"><title>Node58&#45;&gt;Node20</title>
<path fill="none" stroke="midnightblue" d="M715.612,-224.324C699.329,-215.703 674.133,-202.364 655.284,-192.386"/>
<polygon fill="midnightblue" stroke="midnightblue" points="656.823,-189.24 646.347,-187.655 653.548,-195.427 656.823,-189.24"/>
</g>
<!-- Node58&#45;&gt;Node21 -->
<g id="edge46" class="edge"><title>Node58&#45;&gt;Node21</title>
<path fill="none" stroke="midnightblue" d="M753.233,-224.444C775.384,-215.517 810.319,-201.439 835.436,-191.317"/>
<polygon fill="midnightblue" stroke="midnightblue" points="836.9,-194.501 844.867,-187.516 834.283,-188.008 836.9,-194.501"/>
</g>
<!-- Node58&#45;&gt;Node22 -->
<g id="edge47" class="edge"><title>Node58&#45;&gt;Node22</title>
<path fill="none" stroke="midnightblue" d="M766.226,-224.444C803.512,-215.122 863.269,-200.183 904.011,-189.997"/>
<polygon fill="midnightblue" stroke="midnightblue" points="905.082,-193.337 913.934,-187.516 903.384,-186.546 905.082,-193.337"/>
</g>
<!-- Node58&#45;&gt;Node29 -->
<g id="edge48" class="edge"><title>Node58&#45;&gt;Node29</title>
<path fill="none" stroke="midnightblue" d="M695.08,-224.444C654.605,-215.063 589.579,-199.993 545.616,-189.804"/>
<polygon fill="midnightblue" stroke="midnightblue" points="546.279,-186.365 535.747,-187.516 544.698,-193.184 546.279,-186.365"/>
</g>
</g>
</svg>
