<?xml version="1.0" encoding="UTF-8" standalone="no"?>
<!DOCTYPE svg PUBLIC "-//W3C//DTD SVG 1.1//EN"
 "http://www.w3.org/Graphics/SVG/1.1/DTD/svg11.dtd">
<!-- Generated by graphviz version 2.38.0 (20140413.2041)
 -->
<!-- Title: compiler.cpp Pages: 1 -->
<svg width="2111pt" height="196pt"
 viewBox="0.00 0.00 2110.50 196.00" xmlns="http://www.w3.org/2000/svg" xmlns:xlink="http://www.w3.org/1999/xlink">
<g id="graph0" class="graph" transform="scale(1 1) rotate(0) translate(4 192)">
<title>compiler.cpp</title>
<!-- Node0 -->
<g id="node1" class="node"><title>Node0</title>
<polygon fill="#bfbfbf" stroke="black" points="1652.5,-168.5 1652.5,-187.5 1723.5,-187.5 1723.5,-168.5 1652.5,-168.5"/>
<text text-anchor="middle" x="1688" y="-175.5" font-family="FreeSans" font-size="10.00">compiler.cpp</text>
</g>
<!-- Node1 -->
<g id="node2" class="node"><title>Node1</title>
<g id="a_node2"><a xlink:href="sdk__precomp_8h" target="_top" xlink:title="sdk_precomp.h">
<polygon fill="none" stroke="black" points="1139,-112.5 1139,-131.5 1221,-131.5 1221,-112.5 1139,-112.5"/>
<text text-anchor="middle" x="1180" y="-119.5" font-family="FreeSans" font-size="10.00">sdk_precomp.h</text>
</a>
</g>
</g>
<!-- Node0&#45;&gt;Node1 -->
<g id="edge1" class="edge"><title>Node0&#45;&gt;Node1</title>
<path fill="none" stroke="midnightblue" d="M1652.28,-173.203C1563.85,-163.803 1334.46,-139.419 1231.43,-128.467"/>
<polygon fill="midnightblue" stroke="midnightblue" points="1231.59,-124.964 1221.27,-127.387 1230.85,-131.925 1231.59,-124.964"/>
</g>
<!-- Node137 -->
<g id="node28" class="node"><title>Node137</title>
<g id="a_node28"><a xlink:href="compilercommandgenerator_8h" target="_top" xlink:title="compilercommandgenerator.h">
<polygon fill="none" stroke="black" points="1784,-56.5 1784,-75.5 1928,-75.5 1928,-56.5 1784,-56.5"/>
<text text-anchor="middle" x="1856" y="-63.5" font-family="FreeSans" font-size="10.00">compilercommandgenerator.h</text>
</a>
</g>
</g>
<!-- Node0&#45;&gt;Node137 -->
<g id="edge27" class="edge"><title>Node0&#45;&gt;Node137</title>
<path fill="none" stroke="midnightblue" d="M1673.61,-168.395C1654.27,-155.767 1624.07,-131.591 1640,-112 1656.91,-91.1993 1719.91,-79.6917 1773.54,-73.5335"/>
<polygon fill="midnightblue" stroke="midnightblue" points="1774.22,-76.98 1783.78,-72.4084 1773.45,-70.0219 1774.22,-76.98"/>
</g>
<!-- Node138 -->
<g id="node30" class="node"><title>Node138</title>
<polygon fill="none" stroke="#bfbfbf" points="1649,-112.5 1649,-131.5 1727,-131.5 1727,-112.5 1649,-112.5"/>
<text text-anchor="middle" x="1688" y="-119.5" font-family="FreeSans" font-size="10.00">wx/arrimpl.cpp</text>
</g>
<!-- Node0&#45;&gt;Node138 -->
<g id="edge33" class="edge"><title>Node0&#45;&gt;Node138</title>
<path fill="none" stroke="midnightblue" d="M1688,-168.083C1688,-161.006 1688,-150.861 1688,-141.986"/>
<polygon fill="midnightblue" stroke="midnightblue" points="1691.5,-141.751 1688,-131.751 1684.5,-141.751 1691.5,-141.751"/>
</g>
<!-- Node139 -->
<g id="node31" class="node"><title>Node139</title>
<polygon fill="none" stroke="#bfbfbf" points="1745.5,-112.5 1745.5,-131.5 1804.5,-131.5 1804.5,-112.5 1745.5,-112.5"/>
<text text-anchor="middle" x="1775" y="-119.5" font-family="FreeSans" font-size="10.00">wx/filefn.h</text>
</g>
<!-- Node0&#45;&gt;Node139 -->
<g id="edge34" class="edge"><title>Node0&#45;&gt;Node139</title>
<path fill="none" stroke="midnightblue" d="M1701.98,-168.324C1715.55,-159.9 1736.38,-146.971 1752.32,-137.074"/>
<polygon fill="midnightblue" stroke="midnightblue" points="1754.41,-139.902 1761.06,-131.655 1750.71,-133.954 1754.41,-139.902"/>
</g>
<!-- Node140 -->
<g id="node32" class="node"><title>Node140</title>
<polygon fill="none" stroke="#bfbfbf" points="1822.5,-112.5 1822.5,-131.5 1893.5,-131.5 1893.5,-112.5 1822.5,-112.5"/>
<text text-anchor="middle" x="1858" y="-119.5" font-family="FreeSans" font-size="10.00">wx/xml/xml.h</text>
</g>
<!-- Node0&#45;&gt;Node140 -->
<g id="edge35" class="edge"><title>Node0&#45;&gt;Node140</title>
<path fill="none" stroke="midnightblue" d="M1714.94,-168.444C1743.66,-159.32 1789.33,-144.813 1821.32,-134.651"/>
<polygon fill="midnightblue" stroke="midnightblue" points="1822.72,-137.88 1831.19,-131.516 1820.6,-131.208 1822.72,-137.88"/>
</g>
<!-- Node2 -->
<g id="node3" class="node"><title>Node2</title>
<g id="a_node3"><a xlink:href="sdk__common_8h" target="_top" xlink:title="sdk_common.h">
<polygon fill="none" stroke="red" points="953,-56.5 953,-75.5 1035,-75.5 1035,-56.5 953,-56.5"/>
<text text-anchor="middle" x="994" y="-63.5" font-family="FreeSans" font-size="10.00">sdk_common.h</text>
</a>
</g>
</g>
<!-- Node1&#45;&gt;Node2 -->
<g id="edge2" class="edge"><title>Node1&#45;&gt;Node2</title>
<path fill="none" stroke="midnightblue" d="M1150.53,-112.444C1118.83,-103.241 1068.27,-88.5617 1033.23,-78.3879"/>
<polygon fill="midnightblue" stroke="midnightblue" points="1033.91,-74.9434 1023.33,-75.5164 1031.96,-81.6658 1033.91,-74.9434"/>
</g>
<!-- Node3 -->
<g id="node4" class="node"><title>Node3</title>
<polygon fill="none" stroke="#bfbfbf" points="380,-0.5 380,-19.5 448,-19.5 448,-0.5 380,-0.5"/>
<text text-anchor="middle" x="414" y="-7.5" font-family="FreeSans" font-size="10.00">wx/wxprec.h</text>
</g>
<!-- Node2&#45;&gt;Node3 -->
<g id="edge3" class="edge"><title>Node2&#45;&gt;Node3</title>
<path fill="none" stroke="midnightblue" d="M952.708,-63.2693C863.953,-59.1776 648.298,-47.2442 458.097,-19.9887"/>
<polygon fill="midnightblue" stroke="midnightblue" points="458.599,-16.525 448.2,-18.5531 457.594,-23.4525 458.599,-16.525"/>
</g>
<!-- Node4 -->
<g id="node5" class="node"><title>Node4</title>
<g id="a_node5"><a xlink:href="prep_8h" target="_top" xlink:title="prep.h">
<polygon fill="none" stroke="black" points="466.5,-0.5 466.5,-19.5 509.5,-19.5 509.5,-0.5 466.5,-0.5"/>
<text text-anchor="middle" x="488" y="-7.5" font-family="FreeSans" font-size="10.00">prep.h</text>
</a>
</g>
</g>
<!-- Node2&#45;&gt;Node4 -->
<g id="edge4" class="edge"><title>Node2&#45;&gt;Node4</title>
<path fill="none" stroke="midnightblue" d="M952.97,-63.7084C871.833,-60.5966 685.146,-50.667 519.431,-19.6956"/>
<polygon fill="midnightblue" stroke="midnightblue" points="520.032,-16.2471 509.554,-17.8196 518.725,-23.1242 520.032,-16.2471"/>
</g>
<!-- Node5 -->
<g id="node6" class="node"><title>Node5</title>
<polygon fill="none" stroke="#bfbfbf" points="528,-0.5 528,-19.5 582,-19.5 582,-0.5 528,-0.5"/>
<text text-anchor="middle" x="555" y="-7.5" font-family="FreeSans" font-size="10.00">wx/app.h</text>
</g>
<!-- Node2&#45;&gt;Node5 -->
<g id="edge5" class="edge"><title>Node2&#45;&gt;Node5</title>
<path fill="none" stroke="midnightblue" d="M952.836,-62.2311C881.336,-57.0257 729.461,-44.2211 591.92,-19.9409"/>
<polygon fill="midnightblue" stroke="midnightblue" points="592.503,-16.4898 582.043,-18.1729 591.27,-23.3803 592.503,-16.4898"/>
</g>
<!-- Node6 -->
<g id="node7" class="node"><title>Node6</title>
<polygon fill="none" stroke="#bfbfbf" points="600,-0.5 600,-19.5 660,-19.5 660,-0.5 600,-0.5"/>
<text text-anchor="middle" x="630" y="-7.5" font-family="FreeSans" font-size="10.00">wx/arrstr.h</text>
</g>
<!-- Node2&#45;&gt;Node6 -->
<g id="edge6" class="edge"><title>Node2&#45;&gt;Node6</title>
<path fill="none" stroke="midnightblue" d="M952.768,-60.4861C892.75,-53.6541 777.636,-39.5671 670.214,-20.0846"/>
<polygon fill="midnightblue" stroke="midnightblue" points="670.646,-16.6053 660.178,-18.2442 669.383,-23.4905 670.646,-16.6053"/>
</g>
<!-- Node7 -->
<g id="node8" class="node"><title>Node7</title>
<polygon fill="none" stroke="#bfbfbf" points="678.5,-0.5 678.5,-19.5 757.5,-19.5 757.5,-0.5 678.5,-0.5"/>
<text text-anchor="middle" x="718" y="-7.5" font-family="FreeSans" font-size="10.00">wx/bmpbuttn.h</text>
</g>
<!-- Node2&#45;&gt;Node7 -->
<g id="edge7" class="edge"><title>Node2&#45;&gt;Node7</title>
<path fill="none" stroke="midnightblue" d="M952.978,-56.974C903.602,-47.3135 820.734,-31.1001 767.755,-20.7347"/>
<polygon fill="midnightblue" stroke="midnightblue" points="768.387,-17.2921 757.901,-18.8068 767.043,-24.1618 768.387,-17.2921"/>
</g>
<!-- Node8 -->
<g id="node9" class="node"><title>Node8</title>
<polygon fill="none" stroke="#bfbfbf" points="775.5,-0.5 775.5,-19.5 840.5,-19.5 840.5,-0.5 775.5,-0.5"/>
<text text-anchor="middle" x="808" y="-7.5" font-family="FreeSans" font-size="10.00">wx/button.h</text>
</g>
<!-- Node2&#45;&gt;Node8 -->
<g id="edge8" class="edge"><title>Node2&#45;&gt;Node8</title>
<path fill="none" stroke="midnightblue" d="M964.528,-56.4435C932.829,-47.2406 882.268,-32.5617 847.225,-22.3879"/>
<polygon fill="midnightblue" stroke="midnightblue" points="847.914,-18.9434 837.334,-19.5164 845.962,-25.6658 847.914,-18.9434"/>
</g>
<!-- Node9 -->
<g id="node10" class="node"><title>Node9</title>
<polygon fill="none" stroke="#bfbfbf" points="859,-0.5 859,-19.5 939,-19.5 939,-0.5 859,-0.5"/>
<text text-anchor="middle" x="899" y="-7.5" font-family="FreeSans" font-size="10.00">wx/checkbox.h</text>
</g>
<!-- Node2&#45;&gt;Node9 -->
<g id="edge9" class="edge"><title>Node2&#45;&gt;Node9</title>
<path fill="none" stroke="midnightblue" d="M978.737,-56.324C963.779,-47.8215 940.745,-34.7288 923.273,-24.7975"/>
<polygon fill="midnightblue" stroke="midnightblue" points="924.649,-21.5534 914.226,-19.6545 921.19,-27.639 924.649,-21.5534"/>
</g>
<!-- Node10 -->
<g id="node11" class="node"><title>Node10</title>
<polygon fill="none" stroke="#bfbfbf" points="957,-0.5 957,-19.5 1031,-19.5 1031,-0.5 957,-0.5"/>
<text text-anchor="middle" x="994" y="-7.5" font-family="FreeSans" font-size="10.00">wx/checklst.h</text>
</g>
<!-- Node2&#45;&gt;Node10 -->
<g id="edge10" class="edge"><title>Node2&#45;&gt;Node10</title>
<path fill="none" stroke="midnightblue" d="M994,-56.083C994,-49.0059 994,-38.8611 994,-29.9865"/>
<polygon fill="midnightblue" stroke="midnightblue" points="997.5,-29.751 994,-19.7511 990.5,-29.7511 997.5,-29.751"/>
</g>
<!-- Node11 -->
<g id="node12" class="node"><title>Node11</title>
<polygon fill="none" stroke="#bfbfbf" points="1049.5,-0.5 1049.5,-19.5 1116.5,-19.5 1116.5,-0.5 1049.5,-0.5"/>
<text text-anchor="middle" x="1083" y="-7.5" font-family="FreeSans" font-size="10.00">wx/choice.h</text>
</g>
<!-- Node2&#45;&gt;Node11 -->
<g id="edge11" class="edge"><title>Node2&#45;&gt;Node11</title>
<path fill="none" stroke="midnightblue" d="M1008.3,-56.324C1022.18,-47.9002 1043.49,-34.9709 1059.8,-25.0741"/>
<polygon fill="midnightblue" stroke="midnightblue" points="1062,-27.8341 1068.74,-19.6545 1058.37,-21.8495 1062,-27.8341"/>
</g>
<!-- Node12 -->
<g id="node13" class="node"><title>Node12</title>
<polygon fill="none" stroke="#bfbfbf" points="1135,-0.5 1135,-19.5 1209,-19.5 1209,-0.5 1135,-0.5"/>
<text text-anchor="middle" x="1172" y="-7.5" font-family="FreeSans" font-size="10.00">wx/choicdlg.h</text>
</g>
<!-- Node2&#45;&gt;Node12 -->
<g id="edge12" class="edge"><title>Node2&#45;&gt;Node12</title>
<path fill="none" stroke="midnightblue" d="M1022.2,-56.4435C1052.41,-47.2801 1100.51,-32.6876 1134.03,-22.5192"/>
<polygon fill="midnightblue" stroke="midnightblue" points="1135.37,-25.7688 1143.93,-19.5164 1133.34,-19.0703 1135.37,-25.7688"/>
</g>
<!-- Node13 -->
<g id="node14" class="node"><title>Node13</title>
<polygon fill="none" stroke="#bfbfbf" points="1227,-0.5 1227,-19.5 1299,-19.5 1299,-0.5 1227,-0.5"/>
<text text-anchor="middle" x="1263" y="-7.5" font-family="FreeSans" font-size="10.00">wx/colordlg.h</text>
</g>
<!-- Node2&#45;&gt;Node13 -->
<g id="edge13" class="edge"><title>Node2&#45;&gt;Node13</title>
<path fill="none" stroke="midnightblue" d="M1035.15,-56.7398C1084.03,-46.9273 1165.37,-30.5989 1216.49,-20.3368"/>
<polygon fill="midnightblue" stroke="midnightblue" points="1217.49,-23.706 1226.6,-18.3063 1216.11,-16.843 1217.49,-23.706"/>
</g>
<!-- Node14 -->
<g id="node15" class="node"><title>Node14</title>
<polygon fill="none" stroke="#bfbfbf" points="1317.5,-0.5 1317.5,-19.5 1400.5,-19.5 1400.5,-0.5 1317.5,-0.5"/>
<text text-anchor="middle" x="1359" y="-7.5" font-family="FreeSans" font-size="10.00">wx/combobox.h</text>
</g>
<!-- Node2&#45;&gt;Node14 -->
<g id="edge14" class="edge"><title>Node2&#45;&gt;Node14</title>
<path fill="none" stroke="midnightblue" d="M1035.21,-59.5264C1093.41,-51.7017 1203.25,-36.5861 1307.23,-20.0789"/>
<polygon fill="midnightblue" stroke="midnightblue" points="1307.95,-23.5087 1317.27,-18.4773 1306.84,-16.596 1307.95,-23.5087"/>
</g>
<!-- Node15 -->
<g id="node16" class="node"><title>Node15</title>
<polygon fill="none" stroke="#bfbfbf" points="1418.5,-0.5 1418.5,-19.5 1495.5,-19.5 1495.5,-0.5 1418.5,-0.5"/>
<text text-anchor="middle" x="1457" y="-7.5" font-family="FreeSans" font-size="10.00">wx/confbase.h</text>
</g>
<!-- Node2&#45;&gt;Node15 -->
<g id="edge15" class="edge"><title>Node2&#45;&gt;Node15</title>
<path fill="none" stroke="midnightblue" d="M1035.07,-61.6074C1107.99,-55.3543 1265.02,-40.852 1408,-20.0373"/>
<polygon fill="midnightblue" stroke="midnightblue" points="1408.89,-23.445 1418.27,-18.5277 1407.87,-16.5194 1408.89,-23.445"/>
</g>
<!-- Node16 -->
<g id="node17" class="node"><title>Node16</title>
<polygon fill="none" stroke="#bfbfbf" points="1514,-0.5 1514,-19.5 1590,-19.5 1590,-0.5 1514,-0.5"/>
<text text-anchor="middle" x="1552" y="-7.5" font-family="FreeSans" font-size="10.00">wx/datetime.h</text>
</g>
<!-- Node2&#45;&gt;Node16 -->
<g id="edge16" class="edge"><title>Node2&#45;&gt;Node16</title>
<path fill="none" stroke="midnightblue" d="M1035.14,-62.7329C1120.46,-57.7372 1323.03,-44.3538 1503.85,-19.8716"/>
<polygon fill="midnightblue" stroke="midnightblue" points="1504.37,-23.3326 1513.8,-18.509 1503.42,-16.3972 1504.37,-23.3326"/>
</g>
<!-- Node17 -->
<g id="node18" class="node"><title>Node17</title>
<polygon fill="none" stroke="#bfbfbf" points="1608,-0.5 1608,-19.5 1680,-19.5 1680,-0.5 1608,-0.5"/>
<text text-anchor="middle" x="1644" y="-7.5" font-family="FreeSans" font-size="10.00">wx/dcclient.h</text>
</g>
<!-- Node2&#45;&gt;Node17 -->
<g id="edge17" class="edge"><title>Node2&#45;&gt;Node17</title>
<path fill="none" stroke="midnightblue" d="M1035.26,-63.6833C1131.9,-60.2243 1380.52,-49.1499 1597.72,-20.012"/>
<polygon fill="midnightblue" stroke="midnightblue" points="1598.28,-23.4691 1607.72,-18.6557 1597.34,-16.5327 1598.28,-23.4691"/>
</g>
<!-- Node18 -->
<g id="node19" class="node"><title>Node18</title>
<polygon fill="none" stroke="#bfbfbf" points="0,-0.5 0,-19.5 64,-19.5 64,-0.5 0,-0.5"/>
<text text-anchor="middle" x="32" y="-7.5" font-family="FreeSans" font-size="10.00">wx/dialog.h</text>
</g>
<!-- Node2&#45;&gt;Node18 -->
<g id="edge18" class="edge"><title>Node2&#45;&gt;Node18</title>
<path fill="none" stroke="midnightblue" d="M952.927,-65.4322C824.398,-66.2695 418.432,-65.0041 74.0529,-19.9002"/>
<polygon fill="midnightblue" stroke="midnightblue" points="74.5117,-16.4305 64.1387,-18.5873 73.5926,-23.3699 74.5117,-16.4305"/>
</g>
<!-- Node19 -->
<g id="node20" class="node"><title>Node19</title>
<polygon fill="none" stroke="#bfbfbf" points="82.5,-0.5 82.5,-19.5 131.5,-19.5 131.5,-0.5 82.5,-0.5"/>
<text text-anchor="middle" x="107" y="-7.5" font-family="FreeSans" font-size="10.00">wx/dir.h</text>
</g>
<!-- Node2&#45;&gt;Node19 -->
<g id="edge19" class="edge"><title>Node2&#45;&gt;Node19</title>
<path fill="none" stroke="midnightblue" d="M952.99,-63.9569C808.04,-60.0988 319.509,-45.5963 141.753,-19.705"/>
<polygon fill="midnightblue" stroke="midnightblue" points="142.169,-16.2282 131.757,-18.1842 141.116,-23.1485 142.169,-16.2282"/>
</g>
<!-- Node20 -->
<g id="node21" class="node"><title>Node20</title>
<polygon fill="none" stroke="#bfbfbf" points="1975,-0.5 1975,-19.5 2049,-19.5 2049,-0.5 1975,-0.5"/>
<text text-anchor="middle" x="2012" y="-7.5" font-family="FreeSans" font-size="10.00">wx/dynarray.h</text>
</g>
<!-- Node2&#45;&gt;Node20 -->
<g id="edge20" class="edge"><title>Node2&#45;&gt;Node20</title>
<path fill="none" stroke="midnightblue" d="M1035.39,-65.252C1168.81,-65.6061 1599.62,-63.1772 1964.94,-19.9336"/>
<polygon fill="midnightblue" stroke="midnightblue" points="1965.4,-23.4036 1974.92,-18.7408 1964.57,-16.4531 1965.4,-23.4036"/>
</g>
<!-- Node21 -->
<g id="node22" class="node"><title>Node21</title>
<polygon fill="none" stroke="#bfbfbf" points="150,-0.5 150,-19.5 212,-19.5 212,-0.5 150,-0.5"/>
<text text-anchor="middle" x="181" y="-7.5" font-family="FreeSans" font-size="10.00">wx/event.h</text>
</g>
<!-- Node2&#45;&gt;Node21 -->
<g id="edge21" class="edge"><title>Node2&#45;&gt;Node21</title>
<path fill="none" stroke="midnightblue" d="M952.704,-64.9591C838.114,-64.3438 506.448,-59.1608 222.436,-19.971"/>
<polygon fill="midnightblue" stroke="midnightblue" points="222.742,-16.4798 212.354,-18.5625 221.773,-23.4125 222.742,-16.4798"/>
</g>
<!-- Node22 -->
<g id="node23" class="node"><title>Node22</title>
<polygon fill="none" stroke="#bfbfbf" points="230,-0.5 230,-19.5 280,-19.5 280,-0.5 230,-0.5"/>
<text text-anchor="middle" x="255" y="-7.5" font-family="FreeSans" font-size="10.00">wx/file.h</text>
</g>
<!-- Node2&#45;&gt;Node22 -->
<g id="edge22" class="edge"><title>Node2&#45;&gt;Node22</title>
<path fill="none" stroke="midnightblue" d="M952.76,-65.1636C845.091,-64.9971 546.681,-60.729 290.382,-19.8938"/>
<polygon fill="midnightblue" stroke="midnightblue" points="290.563,-16.3777 280.133,-18.2375 289.447,-23.2881 290.563,-16.3777"/>
</g>
<!-- Node23 -->
<g id="node24" class="node"><title>Node23</title>
<polygon fill="none" stroke="#bfbfbf" points="298.5,-0.5 298.5,-19.5 361.5,-19.5 361.5,-0.5 298.5,-0.5"/>
<text text-anchor="middle" x="330" y="-7.5" font-family="FreeSans" font-size="10.00">wx/filedlg.h</text>
</g>
<!-- Node2&#45;&gt;Node23 -->
<g id="edge23" class="edge"><title>Node2&#45;&gt;Node23</title>
<path fill="none" stroke="midnightblue" d="M952.961,-64.077C854.413,-61.4243 596.557,-51.8958 371.707,-19.8744"/>
<polygon fill="midnightblue" stroke="midnightblue" points="372.099,-16.3948 361.701,-18.4313 371.099,-23.3231 372.099,-16.3948"/>
</g>
<!-- Node53 -->
<g id="node25" class="node"><title>Node53</title>
<polygon fill="none" stroke="#bfbfbf" points="1698,-0.5 1698,-19.5 1760,-19.5 1760,-0.5 1698,-0.5"/>
<text text-anchor="middle" x="1729" y="-7.5" font-family="FreeSans" font-size="10.00">wx/string.h</text>
</g>
<!-- Node2&#45;&gt;Node53 -->
<g id="edge24" class="edge"><title>Node2&#45;&gt;Node53</title>
<path fill="none" stroke="midnightblue" d="M1035.36,-64.5769C1141.97,-63.0059 1434.9,-55.6482 1687.54,-19.9874"/>
<polygon fill="midnightblue" stroke="midnightblue" points="1688.24,-23.4231 1697.64,-18.543 1687.25,-16.4936 1688.24,-23.4231"/>
</g>
<!-- Node71 -->
<g id="node26" class="node"><title>Node71</title>
<g id="a_node26"><a xlink:href="settings_8h" target="_top" xlink:title="settings.h">
<polygon fill="none" stroke="black" points="1778.5,-0.5 1778.5,-19.5 1835.5,-19.5 1835.5,-0.5 1778.5,-0.5"/>
<text text-anchor="middle" x="1807" y="-7.5" font-family="FreeSans" font-size="10.00">settings.h</text>
</a>
</g>
</g>
<!-- Node2&#45;&gt;Node71 -->
<g id="edge25" class="edge"><title>Node2&#45;&gt;Node71</title>
<path fill="none" stroke="midnightblue" d="M1035.01,-65.1294C1149.56,-64.9586 1482.69,-60.8279 1768.33,-19.7965"/>
<polygon fill="midnightblue" stroke="midnightblue" points="1769.08,-23.2245 1778.47,-18.3212 1768.07,-16.2974 1769.08,-23.2245"/>
</g>
<!-- Node83 -->
<g id="node27" class="node"><title>Node83</title>
<g id="a_node27"><a xlink:href="compiletargetbase_8h" target="_top" xlink:title="compiletargetbase.h">
<polygon fill="none" stroke="red" points="1853.5,-0.5 1853.5,-19.5 1956.5,-19.5 1956.5,-0.5 1853.5,-0.5"/>
<text text-anchor="middle" x="1905" y="-7.5" font-family="FreeSans" font-size="10.00">compiletargetbase.h</text>
</a>
</g>
</g>
<!-- Node2&#45;&gt;Node83 -->
<g id="edge26" class="edge"><title>Node2&#45;&gt;Node83</title>
<path fill="none" stroke="midnightblue" d="M1035.29,-64.2218C1157.26,-61.6246 1526.73,-51.6135 1843.04,-20.1066"/>
<polygon fill="midnightblue" stroke="midnightblue" points="1843.73,-23.5554 1853.33,-19.0726 1843.03,-16.5905 1843.73,-23.5554"/>
</g>
<!-- Node137&#45;&gt;Node20 -->
<g id="edge30" class="edge"><title>Node137&#45;&gt;Node20</title>
<path fill="none" stroke="midnightblue" d="M1880.72,-56.4435C1906.85,-47.3986 1948.26,-33.064 1977.58,-22.9158"/>
<polygon fill="midnightblue" stroke="midnightblue" points="1979.09,-26.0951 1987.4,-19.5164 1976.8,-19.4801 1979.09,-26.0951"/>
</g>
<!-- Node137&#45;&gt;Node53 -->
<g id="edge29" class="edge"><title>Node137&#45;&gt;Node53</title>
<path fill="none" stroke="midnightblue" d="M1835.88,-56.4435C1814.98,-47.5566 1782.07,-33.5632 1758.28,-23.4514"/>
<polygon fill="midnightblue" stroke="midnightblue" points="1759.6,-20.2085 1749.03,-19.5164 1756.86,-26.6504 1759.6,-20.2085"/>
</g>
<!-- Node137&#45;&gt;Node71 -->
<g id="edge31" class="edge"><title>Node137&#45;&gt;Node71</title>
<path fill="none" stroke="midnightblue" d="M1847.91,-56.083C1840.84,-48.2982 1830.41,-36.8015 1821.85,-27.3665"/>
<polygon fill="midnightblue" stroke="midnightblue" points="1824.25,-24.8047 1814.94,-19.7511 1819.07,-29.5087 1824.25,-24.8047"/>
</g>
<!-- Node137&#45;&gt;Node83 -->
<g id="edge32" class="edge"><title>Node137&#45;&gt;Node83</title>
<path fill="none" stroke="midnightblue" d="M1864.09,-56.083C1871.16,-48.2982 1881.59,-36.8015 1890.15,-27.3665"/>
<polygon fill="midnightblue" stroke="midnightblue" points="1892.93,-29.5087 1897.06,-19.7511 1887.75,-24.8047 1892.93,-29.5087"/>
</g>
<!-- Node89 -->
<g id="node29" class="node"><title>Node89</title>
<polygon fill="none" stroke="#bfbfbf" points="2067.5,-0.5 2067.5,-19.5 2102.5,-19.5 2102.5,-0.5 2067.5,-0.5"/>
<text text-anchor="middle" x="2085" y="-7.5" font-family="FreeSans" font-size="10.00">map</text>
</g>
<!-- Node137&#45;&gt;Node89 -->
<g id="edge28" class="edge"><title>Node137&#45;&gt;Node89</title>
<path fill="none" stroke="midnightblue" d="M1900.46,-56.4618C1939.43,-48.6713 1997.78,-36.2742 2057.4,-19.9336"/>
<polygon fill="midnightblue" stroke="midnightblue" points="2058.66,-23.2147 2067.36,-17.168 2056.79,-16.4696 2058.66,-23.2147"/>
</g>
</g>
</svg>
