<?xml version="1.0" encoding="UTF-8" standalone="no"?>
<!DOCTYPE svg PUBLIC "-//W3C//DTD SVG 1.1//EN"
 "http://www.w3.org/Graphics/SVG/1.1/DTD/svg11.dtd">
<!-- Generated by graphviz version 2.38.0 (20140413.2041)
 -->
<!-- Title: compilerpanel.h Pages: 1 -->
<svg width="190pt" height="84pt"
 viewBox="0.00 0.00 190.00 84.00" xmlns="http://www.w3.org/2000/svg" xmlns:xlink="http://www.w3.org/1999/xlink">
<g id="graph0" class="graph" transform="scale(1 1) rotate(0) translate(4 80)">
<title>compilerpanel.h</title>
<!-- Node1 -->
<g id="node1" class="node"><title>Node1</title>
<polygon fill="#bfbfbf" stroke="black" points="55.5,-56.5 55.5,-75.5 139.5,-75.5 139.5,-56.5 55.5,-56.5"/>
<text text-anchor="middle" x="97.5" y="-63.5" font-family="FreeSans" font-size="10.00">compilerpanel.h</text>
</g>
<!-- Node2 -->
<g id="node2" class="node"><title>Node2</title>
<g id="a_node2"><a xlink:href="compilerpanel_8cpp" target="_top" xlink:title="compilerpanel.cpp">
<polygon fill="none" stroke="black" points="0,-0.5 0,-19.5 95,-19.5 95,-0.5 0,-0.5"/>
<text text-anchor="middle" x="47.5" y="-7.5" font-family="FreeSans" font-size="10.00">compilerpanel.cpp</text>
</a>
</g>
</g>
<!-- Node1&#45;&gt;Node2 -->
<g id="edge1" class="edge"><title>Node1&#45;&gt;Node2</title>
<path fill="none" stroke="midnightblue" d="M82.4237,-48.7175C73.6109,-39.1997 62.8341,-27.5608 55.6028,-19.7511"/>
<polygon fill="midnightblue" stroke="midnightblue" points="79.8812,-51.1233 89.2435,-56.083 85.0176,-46.3674 79.8812,-51.1233"/>
</g>
<!-- Node3 -->
<g id="node3" class="node"><title>Node3</title>
<g id="a_node3"><a xlink:href="wizpage_8cpp" target="_top" xlink:title="wizpage.cpp">
<polygon fill="none" stroke="black" points="113,-0.5 113,-19.5 182,-19.5 182,-0.5 113,-0.5"/>
<text text-anchor="middle" x="147.5" y="-7.5" font-family="FreeSans" font-size="10.00">wizpage.cpp</text>
</a>
</g>
</g>
<!-- Node1&#45;&gt;Node3 -->
<g id="edge2" class="edge"><title>Node1&#45;&gt;Node3</title>
<path fill="none" stroke="midnightblue" d="M112.576,-48.7175C121.389,-39.1997 132.166,-27.5608 139.397,-19.7511"/>
<polygon fill="midnightblue" stroke="midnightblue" points="109.982,-46.3674 105.756,-56.083 115.119,-51.1233 109.982,-46.3674"/>
</g>
</g>
</svg>
