<?xml version="1.0" encoding="UTF-8" standalone="no"?>
<!DOCTYPE svg PUBLIC "-//W3C//DTD SVG 1.1//EN"
 "http://www.w3.org/Graphics/SVG/1.1/DTD/svg11.dtd">
<!-- Generated by graphviz version 2.38.0 (20140413.2041)
 -->
<!-- Title: compiletargetbase.cpp Pages: 1 -->
<svg width="1268pt" height="308pt"
 viewBox="0.00 0.00 1268.00 308.00" xmlns="http://www.w3.org/2000/svg" xmlns:xlink="http://www.w3.org/1999/xlink">
<g id="graph0" class="graph" transform="scale(1 1) rotate(0) translate(4 304)">
<title>compiletargetbase.cpp</title>
<polygon fill="white" stroke="none" points="-4,4 -4,-304 1264,-304 1264,4 -4,4"/>
<!-- Node1 -->
<g id="node1" class="node"><title>Node1</title>
<polygon fill="#bfbfbf" stroke="black" points="760.5,-280.5 760.5,-299.5 873.5,-299.5 873.5,-280.5 760.5,-280.5"/>
<text text-anchor="middle" x="817" y="-287.5" font-family="FreeSans" font-size="10.00">compiletargetbase.cpp</text>
</g>
<!-- Node2 -->
<g id="node2" class="node"><title>Node2</title>
<g id="a_node2"><a xlink:href="sdk__precomp_8h.xhtml" target="_top" xlink:title="sdk_precomp.h">
<polygon fill="white" stroke="black" points="272,-224.5 272,-243.5 354,-243.5 354,-224.5 272,-224.5"/>
<text text-anchor="middle" x="313" y="-231.5" font-family="FreeSans" font-size="10.00">sdk_precomp.h</text>
</a>
</g>
</g>
<!-- Node1&#45;&gt;Node2 -->
<g id="edge1" class="edge"><title>Node1&#45;&gt;Node2</title>
<path fill="none" stroke="midnightblue" d="M760.165,-282.91C661.282,-272.316 459.1,-250.654 364.259,-240.492"/>
<polygon fill="midnightblue" stroke="midnightblue" points="364.373,-236.984 354.057,-239.399 363.627,-243.944 364.373,-236.984"/>
</g>
<!-- Node6 -->
<g id="node6" class="node"><title>Node6</title>
<polygon fill="white" stroke="#bfbfbf" points="1186,-0.5 1186,-19.5 1260,-19.5 1260,-0.5 1186,-0.5"/>
<text text-anchor="middle" x="1223" y="-7.5" font-family="FreeSans" font-size="10.00">wx/filename.h</text>
</g>
<!-- Node1&#45;&gt;Node6 -->
<g id="edge5" class="edge"><title>Node1&#45;&gt;Node6</title>
<path fill="none" stroke="midnightblue" d="M873.743,-285.207C983.9,-276.281 1216,-249.149 1216,-179 1216,-179 1216,-179 1216,-121 1216,-88.8832 1219.01,-51.5979 1221.08,-29.7258"/>
<polygon fill="midnightblue" stroke="midnightblue" points="1224.59,-29.8412 1222.08,-19.546 1217.62,-29.1543 1224.59,-29.8412"/>
</g>
<!-- Node7 -->
<g id="node7" class="node"><title>Node7</title>
<g id="a_node7"><a xlink:href="compiletargetbase_8h.xhtml" target="_top" xlink:title="compiletargetbase.h">
<polygon fill="white" stroke="black" points="1002.5,-224.5 1002.5,-243.5 1105.5,-243.5 1105.5,-224.5 1002.5,-224.5"/>
<text text-anchor="middle" x="1054" y="-231.5" font-family="FreeSans" font-size="10.00">compiletargetbase.h</text>
</a>
</g>
</g>
<!-- Node1&#45;&gt;Node7 -->
<g id="edge6" class="edge"><title>Node1&#45;&gt;Node7</title>
<path fill="none" stroke="midnightblue" d="M854.553,-280.444C895.811,-271.043 962.144,-255.929 1006.87,-245.739"/>
<polygon fill="midnightblue" stroke="midnightblue" points="1007.65,-249.151 1016.62,-243.516 1006.09,-242.326 1007.65,-249.151"/>
</g>
<!-- Node9 -->
<g id="node9" class="node"><title>Node9</title>
<g id="a_node9"><a xlink:href="globals_8h.xhtml" target="_top" xlink:title="globals.h">
<polygon fill="white" stroke="black" points="934,-56.5 934,-75.5 988,-75.5 988,-56.5 934,-56.5"/>
<text text-anchor="middle" x="961" y="-63.5" font-family="FreeSans" font-size="10.00">globals.h</text>
</a>
</g>
</g>
<!-- Node1&#45;&gt;Node9 -->
<g id="edge35" class="edge"><title>Node1&#45;&gt;Node9</title>
<path fill="none" stroke="midnightblue" d="M831.588,-280.327C856.388,-264.856 906.815,-230.138 935,-188 956.029,-156.56 960.431,-111.143 961.13,-85.8383"/>
<polygon fill="midnightblue" stroke="midnightblue" points="964.63,-85.786 961.236,-75.7496 957.631,-85.712 964.63,-85.786"/>
</g>
<!-- Node19 -->
<g id="node19" class="node"><title>Node19</title>
<g id="a_node19"><a xlink:href="compilerfactory_8h.xhtml" target="_top" xlink:title="compilerfactory.h">
<polygon fill="white" stroke="black" points="772,-224.5 772,-243.5 862,-243.5 862,-224.5 772,-224.5"/>
<text text-anchor="middle" x="817" y="-231.5" font-family="FreeSans" font-size="10.00">compilerfactory.h</text>
</a>
</g>
</g>
<!-- Node1&#45;&gt;Node19 -->
<g id="edge19" class="edge"><title>Node1&#45;&gt;Node19</title>
<path fill="none" stroke="midnightblue" d="M817,-280.083C817,-273.006 817,-262.861 817,-253.986"/>
<polygon fill="midnightblue" stroke="midnightblue" points="820.5,-253.751 817,-243.751 813.5,-253.751 820.5,-253.751"/>
</g>
<!-- Node26 -->
<g id="node26" class="node"><title>Node26</title>
<g id="a_node26"><a xlink:href="logmanager_8h.xhtml" target="_top" xlink:title="logmanager.h">
<polygon fill="white" stroke="black" points="404,-168.5 404,-187.5 478,-187.5 478,-168.5 404,-168.5"/>
<text text-anchor="middle" x="441" y="-175.5" font-family="FreeSans" font-size="10.00">logmanager.h</text>
</a>
</g>
</g>
<!-- Node1&#45;&gt;Node26 -->
<g id="edge36" class="edge"><title>Node1&#45;&gt;Node26</title>
<path fill="none" stroke="midnightblue" d="M773.014,-280.488C733.031,-272.376 672.581,-259.174 621,-244 567.537,-228.272 506.86,-205.251 471.374,-191.245"/>
<polygon fill="midnightblue" stroke="midnightblue" points="472.646,-187.984 462.06,-187.547 470.063,-194.49 472.646,-187.984"/>
</g>
<!-- Node33 -->
<g id="node33" class="node"><title>Node33</title>
<g id="a_node33"><a xlink:href="filefilters_8h.xhtml" target="_top" xlink:title="filefilters.h">
<polygon fill="white" stroke="black" points="543.5,-56.5 543.5,-75.5 602.5,-75.5 602.5,-56.5 543.5,-56.5"/>
<text text-anchor="middle" x="573" y="-63.5" font-family="FreeSans" font-size="10.00">filefilters.h</text>
</a>
</g>
</g>
<!-- Node1&#45;&gt;Node33 -->
<g id="edge54" class="edge"><title>Node1&#45;&gt;Node33</title>
<path fill="none" stroke="midnightblue" d="M806.094,-280.208C795.08,-271.26 777.649,-256.91 763,-244 697.21,-186.022 621.704,-113.962 589.23,-82.6924"/>
<polygon fill="midnightblue" stroke="midnightblue" points="591.561,-80.0777 581.933,-75.6548 586.701,-85.1161 591.561,-80.0777"/>
</g>
<!-- Node3 -->
<g id="node3" class="node"><title>Node3</title>
<g id="a_node3"><a xlink:href="sdk__common_8h.xhtml" target="_top" xlink:title="sdk_common.h">
<polygon fill="white" stroke="black" points="123,-168.5 123,-187.5 205,-187.5 205,-168.5 123,-168.5"/>
<text text-anchor="middle" x="164" y="-175.5" font-family="FreeSans" font-size="10.00">sdk_common.h</text>
</a>
</g>
</g>
<!-- Node2&#45;&gt;Node3 -->
<g id="edge2" class="edge"><title>Node2&#45;&gt;Node3</title>
<path fill="none" stroke="midnightblue" d="M289.391,-224.444C264.542,-215.438 225.226,-201.189 197.246,-191.049"/>
<polygon fill="midnightblue" stroke="midnightblue" points="198.093,-187.633 187.499,-187.516 195.708,-194.214 198.093,-187.633"/>
</g>
<!-- Node4 -->
<g id="node4" class="node"><title>Node4</title>
<polygon fill="white" stroke="#bfbfbf" points="130,-112.5 130,-131.5 198,-131.5 198,-112.5 130,-112.5"/>
<text text-anchor="middle" x="164" y="-119.5" font-family="FreeSans" font-size="10.00">wx/wxprec.h</text>
</g>
<!-- Node3&#45;&gt;Node4 -->
<g id="edge3" class="edge"><title>Node3&#45;&gt;Node4</title>
<path fill="none" stroke="midnightblue" d="M164,-168.083C164,-161.006 164,-150.861 164,-141.986"/>
<polygon fill="midnightblue" stroke="midnightblue" points="167.5,-141.751 164,-131.751 160.5,-141.751 167.5,-141.751"/>
</g>
<!-- Node5 -->
<g id="node5" class="node"><title>Node5</title>
<g id="a_node5"><a xlink:href="prep_8h.xhtml" target="_top" xlink:title="prep.h">
<polygon fill="white" stroke="black" points="95.5,-0.5 95.5,-19.5 138.5,-19.5 138.5,-0.5 95.5,-0.5"/>
<text text-anchor="middle" x="117" y="-7.5" font-family="FreeSans" font-size="10.00">prep.h</text>
</a>
</g>
</g>
<!-- Node3&#45;&gt;Node5 -->
<g id="edge4" class="edge"><title>Node3&#45;&gt;Node5</title>
<path fill="none" stroke="midnightblue" d="M151.633,-168.49C130.399,-153.017 87.7673,-117.964 72,-76 68.8735,-67.6791 68.5984,-64.2123 72,-56 76.9204,-44.121 86.6667,-33.7428 95.8343,-25.9557"/>
<polygon fill="midnightblue" stroke="midnightblue" points="98.2529,-28.5058 103.936,-19.5641 93.9172,-23.0101 98.2529,-28.5058"/>
</g>
<!-- Node8 -->
<g id="node8" class="node"><title>Node8</title>
<g id="a_node8"><a xlink:href="compileoptionsbase_8h.xhtml" target="_top" xlink:title="compileoptionsbase.h">
<polygon fill="white" stroke="black" points="1001.5,-112.5 1001.5,-131.5 1110.5,-131.5 1110.5,-112.5 1001.5,-112.5"/>
<text text-anchor="middle" x="1056" y="-119.5" font-family="FreeSans" font-size="10.00">compileoptionsbase.h</text>
</a>
</g>
</g>
<!-- Node7&#45;&gt;Node8 -->
<g id="edge7" class="edge"><title>Node7&#45;&gt;Node8</title>
<path fill="none" stroke="midnightblue" d="M1054.16,-224.368C1054.48,-206.617 1055.22,-165.666 1055.66,-141.597"/>
<polygon fill="midnightblue" stroke="midnightblue" points="1059.16,-141.653 1055.84,-131.591 1052.16,-141.526 1059.16,-141.653"/>
</g>
<!-- Node8&#45;&gt;Node9 -->
<g id="edge8" class="edge"><title>Node8&#45;&gt;Node9</title>
<path fill="none" stroke="midnightblue" d="M1040.74,-112.324C1025.78,-103.822 1002.75,-90.7288 985.273,-80.7975"/>
<polygon fill="midnightblue" stroke="midnightblue" points="986.649,-77.5534 976.226,-75.6545 983.19,-83.639 986.649,-77.5534"/>
</g>
<!-- Node18 -->
<g id="node18" class="node"><title>Node18</title>
<polygon fill="white" stroke="#bfbfbf" points="1017.5,-56.5 1017.5,-75.5 1094.5,-75.5 1094.5,-56.5 1017.5,-56.5"/>
<text text-anchor="middle" x="1056" y="-63.5" font-family="FreeSans" font-size="10.00">wx/hashmap.h</text>
</g>
<!-- Node8&#45;&gt;Node18 -->
<g id="edge18" class="edge"><title>Node8&#45;&gt;Node18</title>
<path fill="none" stroke="midnightblue" d="M1056,-112.083C1056,-105.006 1056,-94.8611 1056,-85.9865"/>
<polygon fill="midnightblue" stroke="midnightblue" points="1059.5,-85.751 1056,-75.7511 1052.5,-85.7511 1059.5,-85.751"/>
</g>
<!-- Node9&#45;&gt;Node6 -->
<g id="edge13" class="edge"><title>Node9&#45;&gt;Node6</title>
<path fill="none" stroke="midnightblue" d="M988.052,-59.4244C1032.36,-50.2919 1120.95,-32.0325 1175.79,-20.7303"/>
<polygon fill="midnightblue" stroke="midnightblue" points="1176.53,-24.1513 1185.62,-18.7046 1175.12,-17.2954 1176.53,-24.1513"/>
</g>
<!-- Node10 -->
<g id="node10" class="node"><title>Node10</title>
<polygon fill="white" stroke="#bfbfbf" points="796.5,-0.5 796.5,-19.5 839.5,-19.5 839.5,-0.5 796.5,-0.5"/>
<text text-anchor="middle" x="818" y="-7.5" font-family="FreeSans" font-size="10.00">vector</text>
</g>
<!-- Node9&#45;&gt;Node10 -->
<g id="edge9" class="edge"><title>Node9&#45;&gt;Node10</title>
<path fill="none" stroke="midnightblue" d="M938.341,-56.4435C914.319,-47.3721 876.206,-32.98 849.319,-22.8268"/>
<polygon fill="midnightblue" stroke="midnightblue" points="850.208,-19.4214 839.617,-19.1629 847.735,-25.9701 850.208,-19.4214"/>
</g>
<!-- Node11 -->
<g id="node11" class="node"><title>Node11</title>
<polygon fill="white" stroke="#bfbfbf" points="624,-0.5 624,-19.5 686,-19.5 686,-0.5 624,-0.5"/>
<text text-anchor="middle" x="655" y="-7.5" font-family="FreeSans" font-size="10.00">wx/string.h</text>
</g>
<!-- Node9&#45;&gt;Node11 -->
<g id="edge10" class="edge"><title>Node9&#45;&gt;Node11</title>
<path fill="none" stroke="midnightblue" d="M933.724,-60.8812C887.145,-53.7411 789.069,-38.2451 696.503,-20.2152"/>
<polygon fill="midnightblue" stroke="midnightblue" points="696.896,-16.7256 686.409,-18.2345 695.548,-23.5946 696.896,-16.7256"/>
</g>
<!-- Node12 -->
<g id="node12" class="node"><title>Node12</title>
<polygon fill="white" stroke="#bfbfbf" points="1100,-0.5 1100,-19.5 1168,-19.5 1168,-0.5 1100,-0.5"/>
<text text-anchor="middle" x="1134" y="-7.5" font-family="FreeSans" font-size="10.00">wx/treectrl.h</text>
</g>
<!-- Node9&#45;&gt;Node12 -->
<g id="edge11" class="edge"><title>Node9&#45;&gt;Node12</title>
<path fill="none" stroke="midnightblue" d="M988.031,-56.5625C1017.31,-47.4226 1064.22,-32.7821 1096.93,-22.5719"/>
<polygon fill="midnightblue" stroke="midnightblue" points="1098.08,-25.8772 1106.59,-19.5565 1096,-19.1951 1098.08,-25.8772"/>
</g>
<!-- Node13 -->
<g id="node13" class="node"><title>Node13</title>
<polygon fill="white" stroke="#bfbfbf" points="858,-0.5 858,-19.5 908,-19.5 908,-0.5 858,-0.5"/>
<text text-anchor="middle" x="883" y="-7.5" font-family="FreeSans" font-size="10.00">wx/file.h</text>
</g>
<!-- Node9&#45;&gt;Node13 -->
<g id="edge12" class="edge"><title>Node9&#45;&gt;Node13</title>
<path fill="none" stroke="midnightblue" d="M948.468,-56.324C936.414,-47.979 917.973,-35.2122 903.731,-25.3524"/>
<polygon fill="midnightblue" stroke="midnightblue" points="905.715,-22.469 895.501,-19.6545 901.731,-28.2243 905.715,-22.469"/>
</g>
<!-- Node14 -->
<g id="node14" class="node"><title>Node14</title>
<polygon fill="white" stroke="#bfbfbf" points="554.5,-0.5 554.5,-19.5 605.5,-19.5 605.5,-0.5 554.5,-0.5"/>
<text text-anchor="middle" x="580" y="-7.5" font-family="FreeSans" font-size="10.00">wx/intl.h</text>
</g>
<!-- Node9&#45;&gt;Node14 -->
<g id="edge14" class="edge"><title>Node9&#45;&gt;Node14</title>
<path fill="none" stroke="midnightblue" d="M933.902,-62.6145C876.887,-57.353 740.229,-43.47 615.627,-19.8875"/>
<polygon fill="midnightblue" stroke="midnightblue" points="616.013,-16.3977 605.532,-17.9502 614.694,-23.2723 616.013,-16.3977"/>
</g>
<!-- Node15 -->
<g id="node15" class="node"><title>Node15</title>
<polygon fill="white" stroke="#bfbfbf" points="926.5,-0.5 926.5,-19.5 995.5,-19.5 995.5,-0.5 926.5,-0.5"/>
<text text-anchor="middle" x="961" y="-7.5" font-family="FreeSans" font-size="10.00">wx/msgdlg.h</text>
</g>
<!-- Node9&#45;&gt;Node15 -->
<g id="edge15" class="edge"><title>Node9&#45;&gt;Node15</title>
<path fill="none" stroke="midnightblue" d="M961,-56.083C961,-49.0059 961,-38.8611 961,-29.9865"/>
<polygon fill="midnightblue" stroke="midnightblue" points="964.5,-29.751 961,-19.7511 957.5,-29.7511 964.5,-29.751"/>
</g>
<!-- Node16 -->
<g id="node16" class="node"><title>Node16</title>
<polygon fill="white" stroke="#bfbfbf" points="1014,-0.5 1014,-19.5 1082,-19.5 1082,-0.5 1014,-0.5"/>
<text text-anchor="middle" x="1048" y="-7.5" font-family="FreeSans" font-size="10.00">wx/bitmap.h</text>
</g>
<!-- Node9&#45;&gt;Node16 -->
<g id="edge16" class="edge"><title>Node9&#45;&gt;Node16</title>
<path fill="none" stroke="midnightblue" d="M974.978,-56.324C988.55,-47.9002 1009.38,-34.9709 1025.32,-25.0741"/>
<polygon fill="midnightblue" stroke="midnightblue" points="1027.41,-27.9019 1034.06,-19.6545 1023.71,-21.9544 1027.41,-27.9019"/>
</g>
<!-- Node17 -->
<g id="node17" class="node"><title>Node17</title>
<g id="a_node17"><a xlink:href="settings_8h.xhtml" target="_top" xlink:title="settings.h">
<polygon fill="white" stroke="black" points="479.5,-0.5 479.5,-19.5 536.5,-19.5 536.5,-0.5 479.5,-0.5"/>
<text text-anchor="middle" x="508" y="-7.5" font-family="FreeSans" font-size="10.00">settings.h</text>
</a>
</g>
</g>
<!-- Node9&#45;&gt;Node17 -->
<g id="edge17" class="edge"><title>Node9&#45;&gt;Node17</title>
<path fill="none" stroke="midnightblue" d="M933.57,-63.2798C868.164,-58.9136 697.792,-45.983 546.539,-20.075"/>
<polygon fill="midnightblue" stroke="midnightblue" points="547.057,-16.6126 536.605,-18.3497 545.859,-23.5094 547.057,-16.6126"/>
</g>
<!-- Node19&#45;&gt;Node17 -->
<g id="edge34" class="edge"><title>Node19&#45;&gt;Node17</title>
<path fill="none" stroke="midnightblue" d="M788.36,-224.366C732.077,-206.019 606.256,-157.986 534,-76 522.333,-62.7615 515.536,-43.6322 511.839,-29.5519"/>
<polygon fill="midnightblue" stroke="midnightblue" points="515.186,-28.4936 509.504,-19.5513 508.369,-30.0852 515.186,-28.4936"/>
</g>
<!-- Node20 -->
<g id="node20" class="node"><title>Node20</title>
<polygon fill="white" stroke="#bfbfbf" points="866,-168.5 866,-187.5 926,-187.5 926,-168.5 866,-168.5"/>
<text text-anchor="middle" x="896" y="-175.5" font-family="FreeSans" font-size="10.00">wx/arrstr.h</text>
</g>
<!-- Node19&#45;&gt;Node20 -->
<g id="edge20" class="edge"><title>Node19&#45;&gt;Node20</title>
<path fill="none" stroke="midnightblue" d="M829.693,-224.324C841.901,-215.979 860.578,-203.212 875.003,-193.352"/>
<polygon fill="midnightblue" stroke="midnightblue" points="877.058,-196.187 883.339,-187.655 873.108,-190.408 877.058,-196.187"/>
</g>
<!-- Node21 -->
<g id="node21" class="node"><title>Node21</title>
<g id="a_node21"><a xlink:href="compiler_8h.xhtml" target="_top" xlink:title="compiler.h">
<polygon fill="white" stroke="black" points="786.5,-168.5 786.5,-187.5 847.5,-187.5 847.5,-168.5 786.5,-168.5"/>
<text text-anchor="middle" x="817" y="-175.5" font-family="FreeSans" font-size="10.00">compiler.h</text>
</a>
</g>
</g>
<!-- Node19&#45;&gt;Node21 -->
<g id="edge21" class="edge"><title>Node19&#45;&gt;Node21</title>
<path fill="none" stroke="midnightblue" d="M817,-224.083C817,-217.006 817,-206.861 817,-197.986"/>
<polygon fill="midnightblue" stroke="midnightblue" points="820.5,-197.751 817,-187.751 813.5,-197.751 820.5,-197.751"/>
</g>
<!-- Node21&#45;&gt;Node6 -->
<g id="edge25" class="edge"><title>Node21&#45;&gt;Node6</title>
<path fill="none" stroke="midnightblue" d="M847.521,-169.853C850.714,-169.189 853.918,-168.557 857,-168 972.662,-147.081 1015.78,-188.215 1119,-132 1163.85,-107.576 1198.04,-55.5769 1213.66,-28.3861"/>
<polygon fill="midnightblue" stroke="midnightblue" points="1216.75,-30.0272 1218.56,-19.5879 1210.64,-26.6205 1216.75,-30.0272"/>
</g>
<!-- Node21&#45;&gt;Node8 -->
<g id="edge28" class="edge"><title>Node21&#45;&gt;Node8</title>
<path fill="none" stroke="midnightblue" d="M847.756,-170.051C888.481,-160.85 960.708,-144.53 1008.48,-133.737"/>
<polygon fill="midnightblue" stroke="midnightblue" points="1009.3,-137.14 1018.28,-131.522 1007.75,-130.312 1009.3,-137.14"/>
</g>
<!-- Node21&#45;&gt;Node10 -->
<g id="edge22" class="edge"><title>Node21&#45;&gt;Node10</title>
<path fill="none" stroke="midnightblue" d="M820.6,-168.222C824.056,-159.285 829.033,-144.942 831,-132 836.075,-98.6056 835.734,-89.4444 831,-56 829.732,-47.0425 827.111,-37.372 824.552,-29.2998"/>
<polygon fill="midnightblue" stroke="midnightblue" points="827.861,-28.1569 821.344,-19.8034 821.229,-30.3976 827.861,-28.1569"/>
</g>
<!-- Node21&#45;&gt;Node11 -->
<g id="edge24" class="edge"><title>Node21&#45;&gt;Node11</title>
<path fill="none" stroke="midnightblue" d="M811.579,-168.332C798.188,-147.359 761.732,-92.8896 722,-56 709.068,-43.9933 692.645,-32.9094 679.296,-24.7462"/>
<polygon fill="midnightblue" stroke="midnightblue" points="681.009,-21.6927 670.625,-19.5859 677.428,-27.708 681.009,-21.6927"/>
</g>
<!-- Node22 -->
<g id="node22" class="node"><title>Node22</title>
<polygon fill="white" stroke="#bfbfbf" points="451.5,-56.5 451.5,-75.5 486.5,-75.5 486.5,-56.5 451.5,-56.5"/>
<text text-anchor="middle" x="469" y="-63.5" font-family="FreeSans" font-size="10.00">map</text>
</g>
<!-- Node21&#45;&gt;Node22 -->
<g id="edge23" class="edge"><title>Node21&#45;&gt;Node22</title>
<path fill="none" stroke="midnightblue" d="M789.983,-168.46C725.104,-147.952 561.088,-96.1083 496.113,-75.5701"/>
<polygon fill="midnightblue" stroke="midnightblue" points="497.155,-72.2289 486.565,-72.5522 495.045,-78.9034 497.155,-72.2289"/>
</g>
<!-- Node23 -->
<g id="node23" class="node"><title>Node23</title>
<polygon fill="white" stroke="#bfbfbf" points="704,-0.5 704,-19.5 778,-19.5 778,-0.5 704,-0.5"/>
<text text-anchor="middle" x="741" y="-7.5" font-family="FreeSans" font-size="10.00">wx/dynarray.h</text>
</g>
<!-- Node21&#45;&gt;Node23 -->
<g id="edge26" class="edge"><title>Node21&#45;&gt;Node23</title>
<path fill="none" stroke="midnightblue" d="M817.15,-168.421C817.139,-147.647 814.851,-93.5844 793,-56 785.968,-43.9048 774.477,-33.4534 764.084,-25.6755"/>
<polygon fill="midnightblue" stroke="midnightblue" points="765.924,-22.6907 755.733,-19.7933 761.893,-28.4135 765.924,-22.6907"/>
</g>
<!-- Node24 -->
<g id="node24" class="node"><title>Node24</title>
<polygon fill="white" stroke="#bfbfbf" points="883,-112.5 883,-131.5 945,-131.5 945,-112.5 883,-112.5"/>
<text text-anchor="middle" x="914" y="-119.5" font-family="FreeSans" font-size="10.00">wx/regex.h</text>
</g>
<!-- Node21&#45;&gt;Node24 -->
<g id="edge27" class="edge"><title>Node21&#45;&gt;Node24</title>
<path fill="none" stroke="midnightblue" d="M832.585,-168.324C847.999,-159.743 871.812,-146.486 889.71,-136.522"/>
<polygon fill="midnightblue" stroke="midnightblue" points="891.419,-139.577 898.454,-131.655 888.014,-133.461 891.419,-139.577"/>
</g>
<!-- Node25 -->
<g id="node25" class="node"><title>Node25</title>
<g id="a_node25"><a xlink:href="compileroptions_8h.xhtml" target="_top" xlink:title="compileroptions.h">
<polygon fill="white" stroke="black" points="621,-56.5 621,-75.5 713,-75.5 713,-56.5 621,-56.5"/>
<text text-anchor="middle" x="667" y="-63.5" font-family="FreeSans" font-size="10.00">compileroptions.h</text>
</a>
</g>
</g>
<!-- Node21&#45;&gt;Node25 -->
<g id="edge29" class="edge"><title>Node21&#45;&gt;Node25</title>
<path fill="none" stroke="midnightblue" d="M805.23,-168.368C779.599,-149.573 718.502,-104.768 686.818,-81.5334"/>
<polygon fill="midnightblue" stroke="midnightblue" points="688.849,-78.6827 678.716,-75.5914 684.71,-84.3275 688.849,-78.6827"/>
</g>
<!-- Node25&#45;&gt;Node11 -->
<g id="edge32" class="edge"><title>Node25&#45;&gt;Node11</title>
<path fill="none" stroke="midnightblue" d="M665.018,-56.083C663.428,-48.9272 661.141,-38.6353 659.154,-29.6911"/>
<polygon fill="midnightblue" stroke="midnightblue" points="662.531,-28.7537 656.945,-19.7511 655.697,-30.2722 662.531,-28.7537"/>
</g>
<!-- Node25&#45;&gt;Node14 -->
<g id="edge31" class="edge"><title>Node25&#45;&gt;Node14</title>
<path fill="none" stroke="midnightblue" d="M653.022,-56.324C639.45,-47.9002 618.62,-34.9709 602.675,-25.0741"/>
<polygon fill="midnightblue" stroke="midnightblue" points="604.286,-21.9544 593.943,-19.6545 600.594,-27.9019 604.286,-21.9544"/>
</g>
<!-- Node25&#45;&gt;Node17 -->
<g id="edge33" class="edge"><title>Node25&#45;&gt;Node17</title>
<path fill="none" stroke="midnightblue" d="M641.806,-56.4435C615.057,-47.3591 572.597,-32.9388 542.695,-22.7831"/>
<polygon fill="midnightblue" stroke="midnightblue" points="543.671,-19.4182 533.076,-19.5164 541.419,-26.0464 543.671,-19.4182"/>
</g>
<!-- Node25&#45;&gt;Node23 -->
<g id="edge30" class="edge"><title>Node25&#45;&gt;Node23</title>
<path fill="none" stroke="midnightblue" d="M678.889,-56.324C690.15,-48.1066 707.287,-35.6017 720.709,-25.8069"/>
<polygon fill="midnightblue" stroke="midnightblue" points="722.88,-28.5559 728.894,-19.8339 718.753,-22.9014 722.88,-28.5559"/>
</g>
<!-- Node26&#45;&gt;Node22 -->
<g id="edge53" class="edge"><title>Node26&#45;&gt;Node22</title>
<path fill="none" stroke="midnightblue" d="M443.197,-168.368C447.716,-150.617 458.139,-109.666 464.266,-85.5974"/>
<polygon fill="midnightblue" stroke="midnightblue" points="467.738,-86.1458 466.813,-75.5914 460.954,-84.419 467.738,-86.1458"/>
</g>
<!-- Node27 -->
<g id="node27" class="node"><title>Node27</title>
<g id="a_node27"><a xlink:href="manager_8h.xhtml" target="_top" xlink:title="manager.h">
<polygon fill="white" stroke="black" points="294,-112.5 294,-131.5 356,-131.5 356,-112.5 294,-112.5"/>
<text text-anchor="middle" x="325" y="-119.5" font-family="FreeSans" font-size="10.00">manager.h</text>
</a>
</g>
</g>
<!-- Node26&#45;&gt;Node27 -->
<g id="edge37" class="edge"><title>Node26&#45;&gt;Node27</title>
<path fill="none" stroke="midnightblue" d="M422.619,-168.444C403.784,-159.675 374.269,-145.935 352.621,-135.858"/>
<polygon fill="midnightblue" stroke="midnightblue" points="353.838,-132.564 343.295,-131.516 350.883,-138.91 353.838,-132.564"/>
</g>
<!-- Node32 -->
<g id="node32" class="node"><title>Node32</title>
<g id="a_node32"><a xlink:href="logger_8h.xhtml" target="_top" xlink:title="logger.h">
<polygon fill="white" stroke="black" points="383,-56.5 383,-75.5 433,-75.5 433,-56.5 383,-56.5"/>
<text text-anchor="middle" x="408" y="-63.5" font-family="FreeSans" font-size="10.00">logger.h</text>
</a>
</g>
</g>
<!-- Node26&#45;&gt;Node32 -->
<g id="edge49" class="edge"><title>Node26&#45;&gt;Node32</title>
<path fill="none" stroke="midnightblue" d="M438.411,-168.368C433.061,-150.537 420.689,-109.295 413.482,-85.2717"/>
<polygon fill="midnightblue" stroke="midnightblue" points="416.803,-84.1639 410.577,-75.5914 410.099,-86.1754 416.803,-84.1639"/>
</g>
<!-- Node27&#45;&gt;Node10 -->
<g id="edge39" class="edge"><title>Node27&#45;&gt;Node10</title>
<path fill="none" stroke="midnightblue" d="M356.254,-119.388C437.705,-114.882 654.822,-100.829 722,-76 752.502,-64.7266 782.74,-41.7936 800.899,-26.4079"/>
<polygon fill="midnightblue" stroke="midnightblue" points="803.541,-28.7483 808.791,-19.5454 798.948,-23.466 803.541,-28.7483"/>
</g>
<!-- Node27&#45;&gt;Node17 -->
<g id="edge42" class="edge"><title>Node27&#45;&gt;Node17</title>
<path fill="none" stroke="midnightblue" d="M329.441,-112.075C336.82,-98.1301 352.904,-71.2018 374,-56 402.46,-35.4917 440.917,-23.8557 469.333,-17.5781"/>
<polygon fill="midnightblue" stroke="midnightblue" points="470.234,-20.9658 479.31,-15.5013 468.807,-14.1126 470.234,-20.9658"/>
</g>
<!-- Node27&#45;&gt;Node22 -->
<g id="edge38" class="edge"><title>Node27&#45;&gt;Node22</title>
<path fill="none" stroke="midnightblue" d="M347.817,-112.444C373.273,-102.897 414.442,-87.4593 441.616,-77.2692"/>
<polygon fill="midnightblue" stroke="midnightblue" points="443.149,-80.4323 451.283,-73.6439 440.691,-73.878 443.149,-80.4323"/>
</g>
<!-- Node28 -->
<g id="node28" class="node"><title>Node28</title>
<polygon fill="white" stroke="#bfbfbf" points="0,-0.5 0,-19.5 62,-19.5 62,-0.5 0,-0.5"/>
<text text-anchor="middle" x="31" y="-7.5" font-family="FreeSans" font-size="10.00">wx/event.h</text>
</g>
<!-- Node27&#45;&gt;Node28 -->
<g id="edge40" class="edge"><title>Node27&#45;&gt;Node28</title>
<path fill="none" stroke="midnightblue" d="M293.988,-118.61C234.686,-113.54 107.909,-100.15 72,-76 55.2685,-64.7478 44.0031,-44.1287 37.581,-29.1231"/>
<polygon fill="midnightblue" stroke="midnightblue" points="40.8327,-27.8283 33.901,-19.8156 34.323,-30.4021 40.8327,-27.8283"/>
</g>
<!-- Node29 -->
<g id="node29" class="node"><title>Node29</title>
<polygon fill="white" stroke="#bfbfbf" points="171,-56.5 171,-75.5 243,-75.5 243,-56.5 171,-56.5"/>
<text text-anchor="middle" x="207" y="-63.5" font-family="FreeSans" font-size="10.00">wx/cmdline.h</text>
</g>
<!-- Node27&#45;&gt;Node29 -->
<g id="edge41" class="edge"><title>Node27&#45;&gt;Node29</title>
<path fill="none" stroke="midnightblue" d="M306.303,-112.444C287.056,-103.636 256.848,-89.8116 234.8,-79.722"/>
<polygon fill="midnightblue" stroke="midnightblue" points="236.16,-76.4951 225.61,-75.5164 233.247,-82.8603 236.16,-76.4951"/>
</g>
<!-- Node30 -->
<g id="node30" class="node"><title>Node30</title>
<g id="a_node30"><a xlink:href="sdk__events_8h.xhtml" target="_top" xlink:title="sdk_events.h">
<polygon fill="white" stroke="black" points="81,-56.5 81,-75.5 153,-75.5 153,-56.5 81,-56.5"/>
<text text-anchor="middle" x="117" y="-63.5" font-family="FreeSans" font-size="10.00">sdk_events.h</text>
</a>
</g>
</g>
<!-- Node27&#45;&gt;Node30 -->
<g id="edge43" class="edge"><title>Node27&#45;&gt;Node30</title>
<path fill="none" stroke="midnightblue" d="M293.86,-112.916C258.234,-103.666 199.684,-88.4659 159.789,-78.1088"/>
<polygon fill="midnightblue" stroke="midnightblue" points="160.633,-74.7118 150.074,-75.5865 158.874,-81.4872 160.633,-74.7118"/>
</g>
<!-- Node31 -->
<g id="node31" class="node"><title>Node31</title>
<g id="a_node31"><a xlink:href="cbfunctor_8h.xhtml" target="_top" xlink:title="cbfunctor.h">
<polygon fill="white" stroke="black" points="261.5,-56.5 261.5,-75.5 326.5,-75.5 326.5,-56.5 261.5,-56.5"/>
<text text-anchor="middle" x="294" y="-63.5" font-family="FreeSans" font-size="10.00">cbfunctor.h</text>
</a>
</g>
</g>
<!-- Node27&#45;&gt;Node31 -->
<g id="edge48" class="edge"><title>Node27&#45;&gt;Node31</title>
<path fill="none" stroke="midnightblue" d="M319.881,-112.083C315.592,-104.613 309.342,-93.7244 304.058,-84.5199"/>
<polygon fill="midnightblue" stroke="midnightblue" points="307.038,-82.6811 299.024,-75.7511 300.967,-86.1662 307.038,-82.6811"/>
</g>
<!-- Node30&#45;&gt;Node5 -->
<g id="edge47" class="edge"><title>Node30&#45;&gt;Node5</title>
<path fill="none" stroke="midnightblue" d="M117,-56.083C117,-49.0059 117,-38.8611 117,-29.9865"/>
<polygon fill="midnightblue" stroke="midnightblue" points="120.5,-29.751 117,-19.7511 113.5,-29.7511 120.5,-29.751"/>
</g>
<!-- Node30&#45;&gt;Node14 -->
<g id="edge45" class="edge"><title>Node30&#45;&gt;Node14</title>
<path fill="none" stroke="midnightblue" d="M153.293,-57.4056C156.233,-56.893 159.162,-56.416 162,-56 327.943,-31.6737 374.797,-48.7044 544.465,-19.7932"/>
<polygon fill="midnightblue" stroke="midnightblue" points="545.231,-23.2127 554.487,-18.0569 544.036,-16.3155 545.231,-23.2127"/>
</g>
<!-- Node30&#45;&gt;Node17 -->
<g id="edge46" class="edge"><title>Node30&#45;&gt;Node17</title>
<path fill="none" stroke="midnightblue" d="M153.311,-57.5174C156.246,-56.9797 159.17,-56.4665 162,-56 272.969,-37.7086 404.969,-22.2795 469.127,-15.1819"/>
<polygon fill="midnightblue" stroke="midnightblue" points="469.638,-18.6469 479.195,-14.0749 468.873,-11.6888 469.638,-18.6469"/>
</g>
<!-- Node30&#45;&gt;Node28 -->
<g id="edge44" class="edge"><title>Node30&#45;&gt;Node28</title>
<path fill="none" stroke="midnightblue" d="M103.183,-56.324C89.767,-47.9002 69.1759,-34.9709 53.4144,-25.0741"/>
<polygon fill="midnightblue" stroke="midnightblue" points="55.1132,-22.0081 44.7831,-19.6545 51.3908,-27.9364 55.1132,-22.0081"/>
</g>
<!-- Node32&#45;&gt;Node5 -->
<g id="edge50" class="edge"><title>Node32&#45;&gt;Node5</title>
<path fill="none" stroke="midnightblue" d="M382.938,-60.3493C330.115,-50.5471 207.421,-27.7792 149.013,-16.9406"/>
<polygon fill="midnightblue" stroke="midnightblue" points="149.357,-13.4448 138.887,-15.0615 148.08,-20.3273 149.357,-13.4448"/>
</g>
<!-- Node32&#45;&gt;Node11 -->
<g id="edge51" class="edge"><title>Node32&#45;&gt;Node11</title>
<path fill="none" stroke="midnightblue" d="M433.214,-58.1683C436.17,-57.414 439.148,-56.6755 442,-56 515.03,-38.7042 536.014,-36.5251 613.882,-19.9993"/>
<polygon fill="midnightblue" stroke="midnightblue" points="614.618,-23.421 623.668,-17.9108 613.157,-16.5752 614.618,-23.421"/>
</g>
<!-- Node32&#45;&gt;Node17 -->
<g id="edge52" class="edge"><title>Node32&#45;&gt;Node17</title>
<path fill="none" stroke="midnightblue" d="M424.067,-56.324C439.958,-47.7428 464.507,-34.486 482.958,-24.5224"/>
<polygon fill="midnightblue" stroke="midnightblue" points="484.837,-27.4857 491.973,-19.6545 481.511,-21.3264 484.837,-27.4857"/>
</g>
<!-- Node33&#45;&gt;Node11 -->
<g id="edge55" class="edge"><title>Node33&#45;&gt;Node11</title>
<path fill="none" stroke="midnightblue" d="M586.175,-56.324C598.847,-47.979 618.233,-35.2122 633.206,-25.3524"/>
<polygon fill="midnightblue" stroke="midnightblue" points="635.431,-28.0776 641.858,-19.6545 631.581,-22.2313 635.431,-28.0776"/>
</g>
<!-- Node33&#45;&gt;Node17 -->
<g id="edge56" class="edge"><title>Node33&#45;&gt;Node17</title>
<path fill="none" stroke="midnightblue" d="M562.557,-56.324C552.854,-48.2631 538.185,-36.0765 526.5,-26.3695"/>
<polygon fill="midnightblue" stroke="midnightblue" points="528.562,-23.532 518.633,-19.8339 524.089,-28.9163 528.562,-23.532"/>
</g>
</g>
</svg>
