<?xml version="1.0" encoding="UTF-8" standalone="no"?>
<!DOCTYPE svg PUBLIC "-//W3C//DTD SVG 1.1//EN"
 "http://www.w3.org/Graphics/SVG/1.1/DTD/svg11.dtd">
<!-- Generated by graphviz version 2.38.0 (20140413.2041)
 -->
<!-- Title: compilerICC.h Pages: 1 -->
<svg width="202pt" height="84pt"
 viewBox="0.00 0.00 201.50 84.00" xmlns="http://www.w3.org/2000/svg" xmlns:xlink="http://www.w3.org/1999/xlink">
<g id="graph0" class="graph" transform="scale(1 1) rotate(0) translate(4 80)">
<title>compilerICC.h</title>
<polygon fill="white" stroke="none" points="-4,4 -4,-80 197.5,-80 197.5,4 -4,4"/>
<!-- Node1 -->
<g id="node1" class="node"><title>Node1</title>
<polygon fill="#bfbfbf" stroke="black" points="58,-56.5 58,-75.5 135,-75.5 135,-56.5 58,-56.5"/>
<text text-anchor="middle" x="96.5" y="-63.5" font-family="FreeSans" font-size="10.00">compilerICC.h</text>
</g>
<!-- Node2 -->
<g id="node2" class="node"><title>Node2</title>
<g id="a_node2"><a xlink:href="compilergcc_8cpp.xhtml" target="_top" xlink:title="compilergcc.cpp">
<polygon fill="white" stroke="black" points="0,-0.5 0,-19.5 87,-19.5 87,-0.5 0,-0.5"/>
<text text-anchor="middle" x="43.5" y="-7.5" font-family="FreeSans" font-size="10.00">compilergcc.cpp</text>
</a>
</g>
</g>
<!-- Node1&#45;&gt;Node2 -->
<g id="edge1" class="edge"><title>Node1&#45;&gt;Node2</title>
<path fill="none" stroke="midnightblue" d="M80.5191,-48.7175C71.1775,-39.1997 59.7541,-27.5608 52.089,-19.7511"/>
<polygon fill="midnightblue" stroke="midnightblue" points="78.2455,-51.3978 87.7481,-56.083 83.2413,-46.4945 78.2455,-51.3978"/>
</g>
<!-- Node3 -->
<g id="node3" class="node"><title>Node3</title>
<g id="a_node3"><a xlink:href="compilerICC_8cpp.xhtml" target="_top" xlink:title="compilerICC.cpp">
<polygon fill="white" stroke="black" points="105.5,-0.5 105.5,-19.5 193.5,-19.5 193.5,-0.5 105.5,-0.5"/>
<text text-anchor="middle" x="149.5" y="-7.5" font-family="FreeSans" font-size="10.00">compilerICC.cpp</text>
</a>
</g>
</g>
<!-- Node1&#45;&gt;Node3 -->
<g id="edge2" class="edge"><title>Node1&#45;&gt;Node3</title>
<path fill="none" stroke="midnightblue" d="M112.481,-48.7175C121.822,-39.1997 133.246,-27.5608 140.911,-19.7511"/>
<polygon fill="midnightblue" stroke="midnightblue" points="109.759,-46.4945 105.252,-56.083 114.754,-51.3978 109.759,-46.4945"/>
</g>
</g>
</svg>
