<?xml version="1.0" encoding="UTF-8" standalone="no"?>
<!DOCTYPE svg PUBLIC "-//W3C//DTD SVG 1.1//EN"
 "http://www.w3.org/Graphics/SVG/1.1/DTD/svg11.dtd">
<!-- Generated by graphviz version 2.40.1 (20161225.0304)
 -->
<!-- Title: compiler.cpp Pages: 1 -->
<svg width="2111pt" height="196pt"
 viewBox="0.00 0.00 2110.50 196.00" xmlns="http://www.w3.org/2000/svg" xmlns:xlink="http://www.w3.org/1999/xlink">
<g id="graph0" class="graph" transform="scale(1 1) rotate(0) translate(4 192)">
<title>compiler.cpp</title>
<!-- Node0 -->
<g id="node1" class="node">
<title>Node0</title>
<polygon fill="#bfbfbf" stroke="#000000" points="1652.5,-168.5 1652.5,-187.5 1723.5,-187.5 1723.5,-168.5 1652.5,-168.5"/>
<text text-anchor="middle" x="1688" y="-175.5" font-family="FreeSans" font-size="10.00" fill="#000000">compiler.cpp</text>
</g>
<!-- Node1 -->
<g id="node2" class="node">
<title>Node1</title>
<g id="a_node2"><a xlink:href="sdk__precomp_8h" target="_top" xlink:title="sdk_precomp.h">
<polygon fill="none" stroke="#000000" points="1325,-112.5 1325,-131.5 1407,-131.5 1407,-112.5 1325,-112.5"/>
<text text-anchor="middle" x="1366" y="-119.5" font-family="FreeSans" font-size="10.00" fill="#000000">sdk_precomp.h</text>
</a>
</g>
</g>
<!-- Node0&#45;&gt;Node1 -->
<g id="edge1" class="edge">
<title>Node0&#45;&gt;Node1</title>
<path fill="none" stroke="#191970" d="M1652.3101,-171.7931C1595.1901,-161.8592 1482.9988,-142.3476 1417.2941,-130.9207"/>
<polygon fill="#191970" stroke="#191970" points="1417.6155,-127.4241 1407.1636,-129.1589 1416.416,-134.3206 1417.6155,-127.4241"/>
</g>
<!-- Node137 -->
<g id="node28" class="node">
<title>Node137</title>
<g id="a_node28"><a xlink:href="compilercommandgenerator_8h" target="_top" xlink:title="compilercommandgenerator.h">
<polygon fill="none" stroke="#000000" points="1784,-56.5 1784,-75.5 1928,-75.5 1928,-56.5 1784,-56.5"/>
<text text-anchor="middle" x="1856" y="-63.5" font-family="FreeSans" font-size="10.00" fill="#000000">compilercommandgenerator.h</text>
</a>
</g>
</g>
<!-- Node0&#45;&gt;Node137 -->
<g id="edge27" class="edge">
<title>Node0&#45;&gt;Node137</title>
<path fill="none" stroke="#191970" d="M1672.2708,-168.3707C1652.8819,-155.3091 1624.311,-131.382 1640,-112 1656.8835,-91.1424 1719.8833,-79.3412 1773.5196,-72.9285"/>
<polygon fill="#191970" stroke="#191970" points="1774.2222,-76.3709 1783.7585,-71.7548 1773.4249,-69.4165 1774.2222,-76.3709"/>
</g>
<!-- Node138 -->
<g id="node30" class="node">
<title>Node138</title>
<polygon fill="none" stroke="#bfbfbf" points="1649,-112.5 1649,-131.5 1727,-131.5 1727,-112.5 1649,-112.5"/>
<text text-anchor="middle" x="1688" y="-119.5" font-family="FreeSans" font-size="10.00" fill="#000000">wx/arrimpl.cpp</text>
</g>
<!-- Node0&#45;&gt;Node138 -->
<g id="edge33" class="edge">
<title>Node0&#45;&gt;Node138</title>
<path fill="none" stroke="#191970" d="M1688,-168.2455C1688,-160.9382 1688,-150.6944 1688,-141.7046"/>
<polygon fill="#191970" stroke="#191970" points="1691.5001,-141.6426 1688,-131.6427 1684.5001,-141.6427 1691.5001,-141.6426"/>
</g>
<!-- Node139 -->
<g id="node31" class="node">
<title>Node139</title>
<polygon fill="none" stroke="#bfbfbf" points="1745.5,-112.5 1745.5,-131.5 1804.5,-131.5 1804.5,-112.5 1745.5,-112.5"/>
<text text-anchor="middle" x="1775" y="-119.5" font-family="FreeSans" font-size="10.00" fill="#000000">wx/filefn.h</text>
</g>
<!-- Node0&#45;&gt;Node139 -->
<g id="edge34" class="edge">
<title>Node0&#45;&gt;Node139</title>
<path fill="none" stroke="#191970" d="M1703.1542,-168.2455C1716.5027,-159.6534 1736.1586,-147.0014 1751.5383,-137.1018"/>
<polygon fill="#191970" stroke="#191970" points="1753.5051,-139.9982 1760.0194,-131.6427 1749.7164,-134.1121 1753.5051,-139.9982"/>
</g>
<!-- Node140 -->
<g id="node32" class="node">
<title>Node140</title>
<polygon fill="none" stroke="#bfbfbf" points="1822.5,-112.5 1822.5,-131.5 1893.5,-131.5 1893.5,-112.5 1822.5,-112.5"/>
<text text-anchor="middle" x="1858" y="-119.5" font-family="FreeSans" font-size="10.00" fill="#000000">wx/xml/xml.h</text>
</g>
<!-- Node0&#45;&gt;Node140 -->
<g id="edge35" class="edge">
<title>Node0&#45;&gt;Node140</title>
<path fill="none" stroke="#191970" d="M1717.224,-168.3733C1745.4925,-159.0613 1788.4965,-144.8953 1819.5344,-134.671"/>
<polygon fill="#191970" stroke="#191970" points="1820.7544,-137.9542 1829.1573,-131.5011 1818.5643,-131.3056 1820.7544,-137.9542"/>
</g>
<!-- Node2 -->
<g id="node3" class="node">
<title>Node2</title>
<g id="a_node3"><a xlink:href="sdk__common_8h" target="_top" xlink:title="sdk_common.h">
<polygon fill="none" stroke="#ff0000" points="953,-56.5 953,-75.5 1035,-75.5 1035,-56.5 953,-56.5"/>
<text text-anchor="middle" x="994" y="-63.5" font-family="FreeSans" font-size="10.00" fill="#000000">sdk_common.h</text>
</a>
</g>
</g>
<!-- Node1&#45;&gt;Node2 -->
<g id="edge2" class="edge">
<title>Node1&#45;&gt;Node2</title>
<path fill="none" stroke="#191970" d="M1324.7682,-115.7931C1256.3839,-105.4987 1119.6753,-84.9189 1045.2129,-73.7095"/>
<polygon fill="#191970" stroke="#191970" points="1045.5423,-70.2197 1035.1326,-72.192 1044.5002,-77.1417 1045.5423,-70.2197"/>
</g>
<!-- Node3 -->
<g id="node4" class="node">
<title>Node3</title>
<polygon fill="none" stroke="#bfbfbf" points="380,-.5 380,-19.5 448,-19.5 448,-.5 380,-.5"/>
<text text-anchor="middle" x="414" y="-7.5" font-family="FreeSans" font-size="10.00" fill="#000000">wx/wxprec.h</text>
</g>
<!-- Node2&#45;&gt;Node3 -->
<g id="edge3" class="edge">
<title>Node2&#45;&gt;Node3</title>
<path fill="none" stroke="#191970" d="M952.6614,-64.4751C863.8165,-60.7649 647.9972,-49.4329 458.0636,-19.9673"/>
<polygon fill="#191970" stroke="#191970" points="458.603,-16.5092 448.1807,-18.4139 457.5159,-23.4243 458.603,-16.5092"/>
</g>
<!-- Node4 -->
<g id="node5" class="node">
<title>Node4</title>
<g id="a_node5"><a xlink:href="prep_8h" target="_top" xlink:title="prep.h">
<polygon fill="none" stroke="#000000" points="466.5,-.5 466.5,-19.5 509.5,-19.5 509.5,-.5 466.5,-.5"/>
<text text-anchor="middle" x="488" y="-7.5" font-family="FreeSans" font-size="10.00" fill="#000000">prep.h</text>
</a>
</g>
</g>
<!-- Node2&#45;&gt;Node4 -->
<g id="edge4" class="edge">
<title>Node2&#45;&gt;Node4</title>
<path fill="none" stroke="#191970" d="M952.8909,-64.9922C871.6136,-62.3622 684.6891,-53.146 519.3734,-19.6295"/>
<polygon fill="#191970" stroke="#191970" points="520.0216,-16.1896 509.5208,-17.5974 518.6076,-23.0453 520.0216,-16.1896"/>
</g>
<!-- Node5 -->
<g id="node6" class="node">
<title>Node5</title>
<polygon fill="none" stroke="#bfbfbf" points="528,-.5 528,-19.5 582,-19.5 582,-.5 528,-.5"/>
<text text-anchor="middle" x="555" y="-7.5" font-family="FreeSans" font-size="10.00" fill="#000000">wx/app.h</text>
</g>
<!-- Node2&#45;&gt;Node5 -->
<g id="edge5" class="edge">
<title>Node2&#45;&gt;Node5</title>
<path fill="none" stroke="#191970" d="M952.7727,-63.4436C881.1754,-58.539 729.1558,-46.0727 591.8755,-19.9041"/>
<polygon fill="#191970" stroke="#191970" points="592.501,-16.4603 582.0181,-17.9962 591.1708,-23.3327 592.501,-16.4603"/>
</g>
<!-- Node6 -->
<g id="node7" class="node">
<title>Node6</title>
<polygon fill="none" stroke="#bfbfbf" points="600,-.5 600,-19.5 660,-19.5 660,-.5 600,-.5"/>
<text text-anchor="middle" x="630" y="-7.5" font-family="FreeSans" font-size="10.00" fill="#000000">wx/arrstr.h</text>
</g>
<!-- Node2&#45;&gt;Node6 -->
<g id="edge6" class="edge">
<title>Node2&#45;&gt;Node6</title>
<path fill="none" stroke="#191970" d="M952.9676,-61.6644C892.9534,-55.0018 777.5715,-40.9778 670.19,-20.0624"/>
<polygon fill="#191970" stroke="#191970" points="670.6467,-16.5852 660.1584,-18.0835 669.2919,-23.4528 670.6467,-16.5852"/>
</g>
<!-- Node7 -->
<g id="node8" class="node">
<title>Node7</title>
<polygon fill="none" stroke="#bfbfbf" points="678.5,-.5 678.5,-19.5 757.5,-19.5 757.5,-.5 678.5,-.5"/>
<text text-anchor="middle" x="718" y="-7.5" font-family="FreeSans" font-size="10.00" fill="#000000">wx/bmpbuttn.h</text>
</g>
<!-- Node2&#45;&gt;Node7 -->
<g id="edge7" class="edge">
<title>Node2&#45;&gt;Node7</title>
<path fill="none" stroke="#191970" d="M952.7953,-57.7681C909.171,-49.0347 838.0242,-34.7402 767.4937,-20.2982"/>
<polygon fill="#191970" stroke="#191970" points="768.0477,-16.839 757.5486,-18.2599 766.6422,-23.6965 768.0477,-16.839"/>
</g>
<!-- Node8 -->
<g id="node9" class="node">
<title>Node8</title>
<polygon fill="none" stroke="#bfbfbf" points="775.5,-.5 775.5,-19.5 840.5,-19.5 840.5,-.5 775.5,-.5"/>
<text text-anchor="middle" x="808" y="-7.5" font-family="FreeSans" font-size="10.00" fill="#000000">wx/button.h</text>
</g>
<!-- Node2&#45;&gt;Node8 -->
<g id="edge8" class="edge">
<title>Node2&#45;&gt;Node8</title>
<path fill="none" stroke="#191970" d="M962.0255,-56.3733C930.8287,-46.9807 883.229,-32.6496 849.2068,-22.4064"/>
<polygon fill="#191970" stroke="#191970" points="850.1418,-19.0327 839.5573,-19.5011 848.1237,-25.7355 850.1418,-19.0327"/>
</g>
<!-- Node9 -->
<g id="node10" class="node">
<title>Node9</title>
<polygon fill="none" stroke="#bfbfbf" points="859,-.5 859,-19.5 939,-19.5 939,-.5 859,-.5"/>
<text text-anchor="middle" x="899" y="-7.5" font-family="FreeSans" font-size="10.00" fill="#000000">wx/checkbox.h</text>
</g>
<!-- Node2&#45;&gt;Node9 -->
<g id="edge9" class="edge">
<title>Node2&#45;&gt;Node9</title>
<path fill="none" stroke="#191970" d="M977.4523,-56.2455C962.7401,-47.5731 941.0112,-34.7645 924.1495,-24.825"/>
<polygon fill="#191970" stroke="#191970" points="925.7502,-21.7057 915.3581,-19.6427 922.1954,-27.736 925.7502,-21.7057"/>
</g>
<!-- Node10 -->
<g id="node11" class="node">
<title>Node10</title>
<polygon fill="none" stroke="#bfbfbf" points="957,-.5 957,-19.5 1031,-19.5 1031,-.5 957,-.5"/>
<text text-anchor="middle" x="994" y="-7.5" font-family="FreeSans" font-size="10.00" fill="#000000">wx/checklst.h</text>
</g>
<!-- Node2&#45;&gt;Node10 -->
<g id="edge10" class="edge">
<title>Node2&#45;&gt;Node10</title>
<path fill="none" stroke="#191970" d="M994,-56.2455C994,-48.9382 994,-38.6944 994,-29.7046"/>
<polygon fill="#191970" stroke="#191970" points="997.5001,-29.6426 994,-19.6427 990.5001,-29.6427 997.5001,-29.6426"/>
</g>
<!-- Node11 -->
<g id="node12" class="node">
<title>Node11</title>
<polygon fill="none" stroke="#bfbfbf" points="1049.5,-.5 1049.5,-19.5 1116.5,-19.5 1116.5,-.5 1049.5,-.5"/>
<text text-anchor="middle" x="1083" y="-7.5" font-family="FreeSans" font-size="10.00" fill="#000000">wx/choice.h</text>
</g>
<!-- Node2&#45;&gt;Node11 -->
<g id="edge11" class="edge">
<title>Node2&#45;&gt;Node11</title>
<path fill="none" stroke="#191970" d="M1009.5026,-56.2455C1023.158,-47.6534 1043.2657,-35.0014 1058.9989,-25.1018"/>
<polygon fill="#191970" stroke="#191970" points="1061.0751,-27.9307 1067.675,-19.6427 1057.3471,-22.006 1061.0751,-27.9307"/>
</g>
<!-- Node12 -->
<g id="node13" class="node">
<title>Node12</title>
<polygon fill="none" stroke="#bfbfbf" points="1135,-.5 1135,-19.5 1209,-19.5 1209,-.5 1135,-.5"/>
<text text-anchor="middle" x="1172" y="-7.5" font-family="FreeSans" font-size="10.00" fill="#000000">wx/choicdlg.h</text>
</g>
<!-- Node2&#45;&gt;Node12 -->
<g id="edge12" class="edge">
<title>Node2&#45;&gt;Node12</title>
<path fill="none" stroke="#191970" d="M1024.5993,-56.3733C1054.3261,-47.021 1099.6159,-32.7725 1132.1456,-22.5385"/>
<polygon fill="#191970" stroke="#191970" points="1133.3113,-25.8409 1141.8,-19.5011 1131.2105,-19.1636 1133.3113,-25.8409"/>
</g>
<!-- Node13 -->
<g id="node14" class="node">
<title>Node13</title>
<polygon fill="none" stroke="#bfbfbf" points="1227,-.5 1227,-19.5 1299,-19.5 1299,-.5 1227,-.5"/>
<text text-anchor="middle" x="1263" y="-7.5" font-family="FreeSans" font-size="10.00" fill="#000000">wx/colordlg.h</text>
</g>
<!-- Node2&#45;&gt;Node13 -->
<g id="edge13" class="edge">
<title>Node2&#45;&gt;Node13</title>
<path fill="none" stroke="#191970" d="M1035.3268,-57.7209C1078.199,-49.086 1147.4541,-35.0089 1216.482,-20.3018"/>
<polygon fill="#191970" stroke="#191970" points="1217.6132,-23.6393 1226.6617,-18.1279 1216.1512,-16.7936 1217.6132,-23.6393"/>
</g>
<!-- Node14 -->
<g id="node15" class="node">
<title>Node14</title>
<polygon fill="none" stroke="#bfbfbf" points="1317.5,-.5 1317.5,-19.5 1400.5,-19.5 1400.5,-.5 1317.5,-.5"/>
<text text-anchor="middle" x="1359" y="-7.5" font-family="FreeSans" font-size="10.00" fill="#000000">wx/combobox.h</text>
</g>
<!-- Node2&#45;&gt;Node14 -->
<g id="edge14" class="edge">
<title>Node2&#45;&gt;Node14</title>
<path fill="none" stroke="#191970" d="M1035.2468,-60.6022C1093.4868,-52.839 1203.3776,-37.6731 1307.2501,-20.0617"/>
<polygon fill="#191970" stroke="#191970" points="1308.0128,-23.4822 1317.2816,-18.3499 1306.8353,-16.582 1308.0128,-23.4822"/>
</g>
<!-- Node15 -->
<g id="node16" class="node">
<title>Node15</title>
<polygon fill="none" stroke="#bfbfbf" points="1418.5,-.5 1418.5,-19.5 1495.5,-19.5 1495.5,-.5 1418.5,-.5"/>
<text text-anchor="middle" x="1457" y="-7.5" font-family="FreeSans" font-size="10.00" fill="#000000">wx/confbase.h</text>
</g>
<!-- Node2&#45;&gt;Node15 -->
<g id="edge15" class="edge">
<title>Node2&#45;&gt;Node15</title>
<path fill="none" stroke="#191970" d="M1035.1116,-62.7469C1108.0868,-56.6899 1265.213,-42.3769 1408.029,-20.0185"/>
<polygon fill="#191970" stroke="#191970" points="1408.956,-23.4154 1418.2857,-18.3948 1407.8614,-16.5015 1408.956,-23.4154"/>
</g>
<!-- Node16 -->
<g id="node17" class="node">
<title>Node16</title>
<polygon fill="none" stroke="#bfbfbf" points="1514,-.5 1514,-19.5 1590,-19.5 1590,-.5 1514,-.5"/>
<text text-anchor="middle" x="1552" y="-7.5" font-family="FreeSans" font-size="10.00" fill="#000000">wx/datetime.h</text>
</g>
<!-- Node2&#45;&gt;Node16 -->
<g id="edge16" class="edge">
<title>Node2&#45;&gt;Node16</title>
<path fill="none" stroke="#191970" d="M1035.1773,-63.9025C1120.5702,-59.2045 1323.2723,-46.2486 1503.874,-19.8403"/>
<polygon fill="#191970" stroke="#191970" points="1504.4391,-23.2949 1513.8192,-18.369 1503.4146,-16.3703 1504.4391,-23.2949"/>
</g>
<!-- Node17 -->
<g id="node18" class="node">
<title>Node17</title>
<polygon fill="none" stroke="#bfbfbf" points="1608,-.5 1608,-19.5 1680,-19.5 1680,-.5 1608,-.5"/>
<text text-anchor="middle" x="1644" y="-7.5" font-family="FreeSans" font-size="10.00" fill="#000000">wx/dcclient.h</text>
</g>
<!-- Node2&#45;&gt;Node17 -->
<g id="edge17" class="edge">
<title>Node2&#45;&gt;Node17</title>
<path fill="none" stroke="#191970" d="M1035.3056,-64.8913C1132.0327,-61.8601 1380.8372,-51.5438 1597.7552,-19.9954"/>
<polygon fill="#191970" stroke="#191970" points="1598.3504,-23.4456 1607.7336,-18.5256 1597.3303,-16.5203 1598.3504,-23.4456"/>
</g>
<!-- Node18 -->
<g id="node19" class="node">
<title>Node18</title>
<polygon fill="none" stroke="#bfbfbf" points="0,-.5 0,-19.5 64,-19.5 64,-.5 0,-.5"/>
<text text-anchor="middle" x="32" y="-7.5" font-family="FreeSans" font-size="10.00" fill="#000000">wx/dialog.h</text>
</g>
<!-- Node2&#45;&gt;Node18 -->
<g id="edge18" class="edge">
<title>Node2&#45;&gt;Node18</title>
<path fill="none" stroke="#191970" d="M952.9815,-64.9846C800.5145,-61.0526 265.8307,-45.8184 74.0755,-19.8466"/>
<polygon fill="#191970" stroke="#191970" points="74.5068,-16.3728 64.116,-18.4421 73.5293,-23.3043 74.5068,-16.3728"/>
</g>
<!-- Node19 -->
<g id="node20" class="node">
<title>Node19</title>
<polygon fill="none" stroke="#bfbfbf" points="82.5,-.5 82.5,-19.5 131.5,-19.5 131.5,-.5 82.5,-.5"/>
<text text-anchor="middle" x="107" y="-7.5" font-family="FreeSans" font-size="10.00" fill="#000000">wx/dir.h</text>
</g>
<!-- Node2&#45;&gt;Node19 -->
<g id="edge19" class="edge">
<title>Node2&#45;&gt;Node19</title>
<path fill="none" stroke="#191970" d="M952.9658,-65.049C807.9334,-61.4951 319.1561,-47.8303 141.7034,-19.6513"/>
<polygon fill="#191970" stroke="#191970" points="142.1641,-16.1799 131.7257,-17.9938 141.0169,-23.0853 142.1641,-16.1799"/>
</g>
<!-- Node20 -->
<g id="node21" class="node">
<title>Node20</title>
<polygon fill="none" stroke="#bfbfbf" points="1975,-.5 1975,-19.5 2049,-19.5 2049,-.5 1975,-.5"/>
<text text-anchor="middle" x="2012" y="-7.5" font-family="FreeSans" font-size="10.00" fill="#000000">wx/dynarray.h</text>
</g>
<!-- Node2&#45;&gt;Node20 -->
<g id="edge20" class="edge">
<title>Node2&#45;&gt;Node20</title>
<path fill="none" stroke="#191970" d="M1035.0542,-64.9705C1193.0016,-60.8706 1762.3079,-44.7753 1964.9885,-19.8812"/>
<polygon fill="#191970" stroke="#191970" points="1965.4591,-23.3497 1974.9361,-18.613 1964.5738,-16.4059 1965.4591,-23.3497"/>
</g>
<!-- Node21 -->
<g id="node22" class="node">
<title>Node21</title>
<polygon fill="none" stroke="#bfbfbf" points="150,-.5 150,-19.5 212,-19.5 212,-.5 150,-.5"/>
<text text-anchor="middle" x="181" y="-7.5" font-family="FreeSans" font-size="10.00" fill="#000000">wx/event.h</text>
</g>
<!-- Node2&#45;&gt;Node21 -->
<g id="edge21" class="edge">
<title>Node2&#45;&gt;Node21</title>
<path fill="none" stroke="#191970" d="M952.8318,-64.5595C817.05,-59.6537 383.3705,-42.7132 222.525,-19.926"/>
<polygon fill="#191970" stroke="#191970" points="222.7358,-16.4192 212.331,-18.4167 221.7105,-23.3437 222.7358,-16.4192"/>
</g>
<!-- Node22 -->
<g id="node23" class="node">
<title>Node22</title>
<polygon fill="none" stroke="#bfbfbf" points="230,-.5 230,-19.5 280,-19.5 280,-.5 230,-.5"/>
<text text-anchor="middle" x="255" y="-7.5" font-family="FreeSans" font-size="10.00" fill="#000000">wx/file.h</text>
</g>
<!-- Node2&#45;&gt;Node22 -->
<g id="edge22" class="edge">
<title>Node2&#45;&gt;Node22</title>
<path fill="none" stroke="#191970" d="M952.8194,-64.5089C825.2171,-59.7048 436.7199,-43.6518 290.2257,-19.787"/>
<polygon fill="#191970" stroke="#191970" points="290.5503,-16.2918 280.1033,-18.0553 289.3698,-23.1915 290.5503,-16.2918"/>
</g>
<!-- Node23 -->
<g id="node24" class="node">
<title>Node23</title>
<polygon fill="none" stroke="#bfbfbf" points="298.5,-.5 298.5,-19.5 361.5,-19.5 361.5,-.5 298.5,-.5"/>
<text text-anchor="middle" x="330" y="-7.5" font-family="FreeSans" font-size="10.00" fill="#000000">wx/filedlg.h</text>
</g>
<!-- Node2&#45;&gt;Node23 -->
<g id="edge23" class="edge">
<title>Node2&#45;&gt;Node23</title>
<path fill="none" stroke="#191970" d="M952.9116,-65.3129C854.2559,-63.1623 596.1809,-54.5648 371.6692,-19.8416"/>
<polygon fill="#191970" stroke="#191970" points="372.1006,-16.3665 361.6792,-18.2756 371.0165,-23.2821 372.1006,-16.3665"/>
</g>
<!-- Node53 -->
<g id="node25" class="node">
<title>Node53</title>
<polygon fill="none" stroke="#bfbfbf" points="1698,-.5 1698,-19.5 1760,-19.5 1760,-.5 1698,-.5"/>
<text text-anchor="middle" x="1729" y="-7.5" font-family="FreeSans" font-size="10.00" fill="#000000">wx/string.h</text>
</g>
<!-- Node2&#45;&gt;Node53 -->
<g id="edge24" class="edge">
<title>Node2&#45;&gt;Node53</title>
<path fill="none" stroke="#191970" d="M1035.0138,-64.251C1161.168,-58.7229 1543.1395,-40.8387 1687.6763,-19.9087"/>
<polygon fill="#191970" stroke="#191970" points="1688.3024,-23.3539 1697.6659,-18.3966 1687.2547,-16.4327 1688.3024,-23.3539"/>
</g>
<!-- Node71 -->
<g id="node26" class="node">
<title>Node71</title>
<g id="a_node26"><a xlink:href="settings_8h" target="_top" xlink:title="settings.h">
<polygon fill="none" stroke="#000000" points="1778.5,-.5 1778.5,-19.5 1835.5,-19.5 1835.5,-.5 1778.5,-.5"/>
<text text-anchor="middle" x="1807" y="-7.5" font-family="FreeSans" font-size="10.00" fill="#000000">settings.h</text>
</a>
</g>
</g>
<!-- Node2&#45;&gt;Node71 -->
<g id="edge25" class="edge">
<title>Node2&#45;&gt;Node71</title>
<path fill="none" stroke="#191970" d="M1035.285,-64.6294C1171.4508,-59.9436 1606.3436,-43.6174 1768.233,-19.7329"/>
<polygon fill="#191970" stroke="#191970" points="1769.1465,-23.1334 1778.4955,-18.1487 1768.0786,-16.2153 1769.1465,-23.1334"/>
</g>
<!-- Node83 -->
<g id="node27" class="node">
<title>Node83</title>
<g id="a_node27"><a xlink:href="compiletargetbase_8h" target="_top" xlink:title="compiletargetbase.h">
<polygon fill="none" stroke="#ff0000" points="1853.5,-.5 1853.5,-19.5 1956.5,-19.5 1956.5,-.5 1853.5,-.5"/>
<text text-anchor="middle" x="1905" y="-7.5" font-family="FreeSans" font-size="10.00" fill="#000000">compiletargetbase.h</text>
</a>
</g>
</g>
<!-- Node2&#45;&gt;Node83 -->
<g id="edge26" class="edge">
<title>Node2&#45;&gt;Node83</title>
<path fill="none" stroke="#191970" d="M1035.313,-65.3927C1157.3553,-63.2535 1526.9903,-54.2951 1843.0628,-20.1071"/>
<polygon fill="#191970" stroke="#191970" points="1843.7792,-23.5497 1853.34,-18.9844 1843.019,-16.5911 1843.7792,-23.5497"/>
</g>
<!-- Node137&#45;&gt;Node20 -->
<g id="edge30" class="edge">
<title>Node137&#45;&gt;Node20</title>
<path fill="none" stroke="#191970" d="M1882.8174,-56.3733C1908.5332,-47.1419 1947.538,-33.1402 1975.9599,-22.9375"/>
<polygon fill="#191970" stroke="#191970" points="1977.3032,-26.174 1985.5326,-19.5011 1974.9381,-19.5857 1977.3032,-26.174"/>
</g>
<!-- Node137&#45;&gt;Node53 -->
<g id="edge29" class="edge">
<title>Node137&#45;&gt;Node53</title>
<path fill="none" stroke="#191970" d="M1834.1679,-56.3733C1813.6897,-47.3435 1782.8601,-33.7494 1759.8681,-23.6111"/>
<polygon fill="#191970" stroke="#191970" points="1761.1093,-20.3333 1750.5472,-19.5011 1758.285,-26.7383 1761.1093,-20.3333"/>
</g>
<!-- Node137&#45;&gt;Node71 -->
<g id="edge31" class="edge">
<title>Node137&#45;&gt;Node71</title>
<path fill="none" stroke="#191970" d="M1847.4649,-56.2455C1840.5088,-48.2958 1830.5117,-36.8706 1822.1949,-27.3656"/>
<polygon fill="#191970" stroke="#191970" points="1824.6564,-24.8637 1815.4373,-19.6427 1819.3884,-29.4732 1824.6564,-24.8637"/>
</g>
<!-- Node137&#45;&gt;Node83 -->
<g id="edge32" class="edge">
<title>Node137&#45;&gt;Node83</title>
<path fill="none" stroke="#191970" d="M1864.5351,-56.2455C1871.4912,-48.2958 1881.4883,-36.8706 1889.8051,-27.3656"/>
<polygon fill="#191970" stroke="#191970" points="1892.6116,-29.4732 1896.5627,-19.6427 1887.3436,-24.8637 1892.6116,-29.4732"/>
</g>
<!-- Node89 -->
<g id="node29" class="node">
<title>Node89</title>
<polygon fill="none" stroke="#bfbfbf" points="2067.5,-.5 2067.5,-19.5 2102.5,-19.5 2102.5,-.5 2067.5,-.5"/>
<text text-anchor="middle" x="2085" y="-7.5" font-family="FreeSans" font-size="10.00" fill="#000000">map</text>
</g>
<!-- Node137&#45;&gt;Node89 -->
<g id="edge28" class="edge">
<title>Node137&#45;&gt;Node89</title>
<path fill="none" stroke="#191970" d="M1906.2797,-56.4552C1945.1874,-48.64 2000.5232,-36.5941 2057.4922,-19.8505"/>
<polygon fill="#191970" stroke="#191970" points="2058.8106,-23.1097 2067.393,-16.8974 2056.8097,-16.4018 2058.8106,-23.1097"/>
</g>
</g>
</svg>
