<?xml version="1.0" encoding="UTF-8" standalone="no"?>
<!DOCTYPE svg PUBLIC "-//W3C//DTD SVG 1.1//EN"
 "http://www.w3.org/Graphics/SVG/1.1/DTD/svg11.dtd">
<!-- Generated by graphviz version 2.40.1 (20161225.0304)
 -->
<!-- Title: compiler.h Pages: 1 -->
<svg width="2032pt" height="196pt"
 viewBox="0.00 0.00 2032.00 196.00" xmlns="http://www.w3.org/2000/svg" xmlns:xlink="http://www.w3.org/1999/xlink">
<g id="graph0" class="graph" transform="scale(1 1) rotate(0) translate(4 192)">
<title>compiler.h</title>
<!-- Node17 -->
<g id="node1" class="node">
<title>Node17</title>
<polygon fill="#bfbfbf" stroke="#000000" points="1217,-168.5 1217,-187.5 1278,-187.5 1278,-168.5 1217,-168.5"/>
<text text-anchor="middle" x="1247.5" y="-175.5" font-family="FreeSans" font-size="10.00" fill="#000000">compiler.h</text>
</g>
<!-- Node18 -->
<g id="node2" class="node">
<title>Node18</title>
<g id="a_node2"><a xlink:href="sdk__common_8h" target="_top" xlink:title="sdk_common.h">
<polygon fill="none" stroke="#000000" points="670.5,-112.5 670.5,-131.5 752.5,-131.5 752.5,-112.5 670.5,-112.5"/>
<text text-anchor="middle" x="711.5" y="-119.5" font-family="FreeSans" font-size="10.00" fill="#000000">sdk_common.h</text>
</a>
</g>
</g>
<!-- Node17&#45;&gt;Node18 -->
<g id="edge1" class="edge">
<title>Node17&#45;&gt;Node18</title>
<path fill="none" stroke="#191970" d="M1206.6752,-174.9591C1124.3614,-168.6265 932.6692,-152.8611 772.5,-132 766.1149,-131.1684 759.3721,-130.1773 752.7898,-129.1471"/>
<polygon fill="#191970" stroke="#191970" points="1206.6194,-178.4649 1216.857,-175.7371 1207.1527,-171.4853 1206.6194,-178.4649"/>
</g>
<!-- Node93 -->
<g id="node10" class="node">
<title>Node93</title>
<g id="a_node10"><a xlink:href="compilerMINGWgenerator_8cpp" target="_top" xlink:title="compilerMINGWgenerator.cpp">
<polygon fill="none" stroke="#000000" points="173.5,-.5 173.5,-19.5 319.5,-19.5 319.5,-.5 173.5,-.5"/>
<text text-anchor="middle" x="246.5" y="-7.5" font-family="FreeSans" font-size="10.00" fill="#000000">compilerMINGWgenerator.cpp</text>
</a>
</g>
</g>
<!-- Node17&#45;&gt;Node93 -->
<g id="edge57" class="edge">
<title>Node17&#45;&gt;Node93</title>
<path fill="none" stroke="#191970" d="M1206.5837,-176.5852C1082.0955,-172.0522 709.1942,-156.7232 590.5,-132 463.6376,-105.5754 319.9422,-43.5168 267.2614,-19.6173"/>
<polygon fill="#191970" stroke="#191970" points="1206.7035,-180.0917 1216.8231,-176.954 1206.9556,-173.0963 1206.7035,-180.0917"/>
</g>
<!-- Node101 -->
<g id="node12" class="node">
<title>Node101</title>
<g id="a_node12"><a xlink:href="directcommands_8cpp" target="_top" xlink:title="directcommands.cpp">
<polygon fill="none" stroke="#000000" points="645.5,-.5 645.5,-19.5 751.5,-19.5 751.5,-.5 645.5,-.5"/>
<text text-anchor="middle" x="698.5" y="-7.5" font-family="FreeSans" font-size="10.00" fill="#000000">directcommands.cpp</text>
</a>
</g>
</g>
<!-- Node17&#45;&gt;Node101 -->
<g id="edge58" class="edge">
<title>Node17&#45;&gt;Node101</title>
<path fill="none" stroke="#191970" d="M1206.3808,-176.29C1076.1129,-170.6761 680.0096,-152.0195 661.5,-132 655.5449,-125.5591 647.315,-98.798 662.5,-56 667.5865,-41.6641 679.0719,-28.3352 687.7111,-19.7551"/>
<polygon fill="#191970" stroke="#191970" points="1206.5822,-179.8017 1216.7227,-176.7323 1206.8814,-172.8081 1206.5822,-179.8017"/>
</g>
<!-- Node142 -->
<g id="node14" class="node">
<title>Node142</title>
<g id="a_node14"><a xlink:href="compilercommandgenerator_8cpp" target="_top" xlink:title="compilercommandgenerator.cpp">
<polygon fill="none" stroke="#000000" points="0,-.5 0,-19.5 155,-19.5 155,-.5 0,-.5"/>
<text text-anchor="middle" x="77.5" y="-7.5" font-family="FreeSans" font-size="10.00" fill="#000000">compilercommandgenerator.cpp</text>
</a>
</g>
</g>
<!-- Node17&#45;&gt;Node142 -->
<g id="edge14" class="edge">
<title>Node17&#45;&gt;Node142</title>
<path fill="none" stroke="#191970" d="M1206.6161,-177.266C1094.6617,-174.865 773.8483,-165.3643 509.5,-132 377.9642,-115.3984 342.5117,-117.2108 216.5,-76 170.2888,-60.8871 119.5291,-33.9043 94.0449,-19.5677"/>
<polygon fill="#191970" stroke="#191970" points="1206.7192,-180.7688 1216.7895,-177.4767 1206.8642,-173.7703 1206.7192,-180.7688"/>
</g>
<!-- Node215 -->
<g id="node15" class="node">
<title>Node215</title>
<g id="a_node15"><a xlink:href="advancedcompileroptionsdlg_8h" target="_top" xlink:title="advancedcompileroptionsdlg.h">
<polygon fill="none" stroke="#000000" points="468.5,-56.5 468.5,-75.5 614.5,-75.5 614.5,-56.5 468.5,-56.5"/>
<text text-anchor="middle" x="541.5" y="-63.5" font-family="FreeSans" font-size="10.00" fill="#000000">advancedcompileroptionsdlg.h</text>
</a>
</g>
</g>
<!-- Node17&#45;&gt;Node215 -->
<g id="edge15" class="edge">
<title>Node17&#45;&gt;Node215</title>
<path fill="none" stroke="#191970" d="M1206.4281,-176.2998C1076.8886,-170.75 682.298,-152.3472 628.5,-132 595.8718,-119.6595 565.2023,-90.9628 550.5317,-75.797"/>
<polygon fill="#191970" stroke="#191970" points="1206.5716,-179.8089 1216.7113,-176.7371 1206.8691,-172.8152 1206.5716,-179.8089"/>
</g>
<!-- Node216 -->
<g id="node16" class="node">
<title>Node216</title>
<g id="a_node16"><a xlink:href="compilerMINGW_8h" target="_top" xlink:title="compilerMINGW.h">
<polygon fill="none" stroke="#000000" points="1253,-112.5 1253,-131.5 1348,-131.5 1348,-112.5 1253,-112.5"/>
<text text-anchor="middle" x="1300.5" y="-119.5" font-family="FreeSans" font-size="10.00" fill="#000000">compilerMINGW.h</text>
</a>
</g>
</g>
<!-- Node17&#45;&gt;Node216 -->
<g id="edge18" class="edge">
<title>Node17&#45;&gt;Node216</title>
<path fill="none" stroke="#191970" d="M1263.7896,-160.7884C1272.8562,-151.2085 1283.8054,-139.6396 1291.3739,-131.6427"/>
<polygon fill="#191970" stroke="#191970" points="1261.0637,-158.5767 1256.7319,-168.2455 1266.1478,-163.3884 1261.0637,-158.5767"/>
</g>
<!-- Node219 -->
<g id="node18" class="node">
<title>Node219</title>
<g id="a_node18"><a xlink:href="compilererrors_8h" target="_top" xlink:title="compilererrors.h">
<polygon fill="none" stroke="#000000" points="781,-112.5 781,-131.5 866,-131.5 866,-112.5 781,-112.5"/>
<text text-anchor="middle" x="823.5" y="-119.5" font-family="FreeSans" font-size="10.00" fill="#000000">compilererrors.h</text>
</a>
</g>
</g>
<!-- Node17&#45;&gt;Node219 -->
<g id="edge23" class="edge">
<title>Node17&#45;&gt;Node219</title>
<path fill="none" stroke="#191970" d="M1206.7307,-173.5504C1138.8995,-165.9993 998.6409,-149.7563 880.5,-132 875.8304,-131.2982 870.9541,-130.517 866.1044,-129.7092"/>
<polygon fill="#191970" stroke="#191970" points="1206.656,-177.0635 1216.9808,-174.6866 1207.4273,-170.1061 1206.656,-177.0635"/>
</g>
<!-- Node221 -->
<g id="node20" class="node">
<title>Node221</title>
<g id="a_node20"><a xlink:href="compilerG95_8h" target="_top" xlink:title="compilerG95.h">
<polygon fill="none" stroke="#000000" points="900,-56.5 900,-75.5 979,-75.5 979,-56.5 900,-56.5"/>
<text text-anchor="middle" x="939.5" y="-63.5" font-family="FreeSans" font-size="10.00" fill="#000000">compilerG95.h</text>
</a>
</g>
</g>
<!-- Node17&#45;&gt;Node221 -->
<g id="edge30" class="edge">
<title>Node17&#45;&gt;Node221</title>
<path fill="none" stroke="#191970" d="M1206.7568,-175.3489C1121.9122,-169.4128 932.5381,-153.8398 913.5,-132 898.9336,-115.2899 917.7052,-89.449 930.1346,-75.5787"/>
<polygon fill="#191970" stroke="#191970" points="1206.5908,-178.8456 1216.8077,-176.0411 1207.0718,-171.8622 1206.5908,-178.8456"/>
</g>
<!-- Node222 -->
<g id="node21" class="node">
<title>Node222</title>
<g id="a_node21"><a xlink:href="compilerGNUARM_8h" target="_top" xlink:title="compilerGNUARM.h">
<polygon fill="none" stroke="#ff0000" points="1307.5,-56.5 1307.5,-75.5 1411.5,-75.5 1411.5,-56.5 1307.5,-56.5"/>
<text text-anchor="middle" x="1359.5" y="-63.5" font-family="FreeSans" font-size="10.00" fill="#000000">compilerGNUARM.h</text>
</a>
</g>
</g>
<!-- Node17&#45;&gt;Node222 -->
<g id="edge33" class="edge">
<title>Node17&#45;&gt;Node222</title>
<path fill="none" stroke="#191970" d="M1288.2338,-172.1136C1312.6257,-166.2888 1341.8468,-154.7577 1357.5,-132 1369.1937,-114.9989 1365.4319,-89.2762 1362.1677,-75.5017"/>
<polygon fill="#191970" stroke="#191970" points="1287.1752,-168.7609 1278.1295,-174.2768 1288.6406,-175.6058 1287.1752,-168.7609"/>
</g>
<!-- Node223 -->
<g id="node22" class="node">
<title>Node223</title>
<g id="a_node22"><a xlink:href="compilerMSVC_8h" target="_top" xlink:title="compilerMSVC.h">
<polygon fill="none" stroke="#ff0000" points="1430,-56.5 1430,-75.5 1519,-75.5 1519,-56.5 1430,-56.5"/>
<text text-anchor="middle" x="1474.5" y="-63.5" font-family="FreeSans" font-size="10.00" fill="#000000">compilerMSVC.h</text>
</a>
</g>
</g>
<!-- Node17&#45;&gt;Node223 -->
<g id="edge35" class="edge">
<title>Node17&#45;&gt;Node223</title>
<path fill="none" stroke="#191970" d="M1287.8041,-166.0975C1313.2865,-157.9217 1346.5649,-146.0302 1374.5,-132 1407.9597,-115.1951 1443.8052,-89.3927 1462.1395,-75.5536"/>
<polygon fill="#191970" stroke="#191970" points="1286.5863,-162.8115 1278.0991,-169.1532 1288.6886,-169.4883 1286.5863,-162.8115"/>
</g>
<!-- Node224 -->
<g id="node23" class="node">
<title>Node224</title>
<g id="a_node23"><a xlink:href="compilerMSVC8_8h" target="_top" xlink:title="compilerMSVC8.h">
<polygon fill="none" stroke="#ff0000" points="1537.5,-56.5 1537.5,-75.5 1631.5,-75.5 1631.5,-56.5 1537.5,-56.5"/>
<text text-anchor="middle" x="1584.5" y="-63.5" font-family="FreeSans" font-size="10.00" fill="#000000">compilerMSVC8.h</text>
</a>
</g>
</g>
<!-- Node17&#45;&gt;Node224 -->
<g id="edge37" class="edge">
<title>Node17&#45;&gt;Node224</title>
<path fill="none" stroke="#191970" d="M1288.1815,-166.9999C1320.2345,-158.1303 1365.9572,-145.0286 1405.5,-132 1461.4953,-113.5507 1526.1614,-88.8491 1560.369,-75.5093"/>
<polygon fill="#191970" stroke="#191970" points="1286.9926,-163.697 1278.2801,-169.7255 1288.8504,-170.4459 1286.9926,-163.697"/>
</g>
<!-- Node225 -->
<g id="node24" class="node">
<title>Node225</title>
<g id="a_node24"><a xlink:href="compilerMSVC10_8h" target="_top" xlink:title="compilerMSVC10.h">
<polygon fill="none" stroke="#ff0000" points="1650,-56.5 1650,-75.5 1749,-75.5 1749,-56.5 1650,-56.5"/>
<text text-anchor="middle" x="1699.5" y="-63.5" font-family="FreeSans" font-size="10.00" fill="#000000">compilerMSVC10.h</text>
</a>
</g>
</g>
<!-- Node17&#45;&gt;Node225 -->
<g id="edge39" class="edge">
<title>Node17&#45;&gt;Node225</title>
<path fill="none" stroke="#191970" d="M1288.2177,-168.9386C1328.4951,-159.8926 1391.8589,-145.4396 1446.5,-132 1524.3009,-112.864 1615.0841,-88.7419 1663.9659,-75.6053"/>
<polygon fill="#191970" stroke="#191970" points="1287.2376,-165.5713 1278.2452,-171.1737 1288.7686,-172.4019 1287.2376,-165.5713"/>
</g>
<!-- Node226 -->
<g id="node25" class="node">
<title>Node226</title>
<g id="a_node25"><a xlink:href="compilerOW_8h" target="_top" xlink:title="compilerOW.h">
<polygon fill="none" stroke="#ff0000" points="1767,-56.5 1767,-75.5 1844,-75.5 1844,-56.5 1767,-56.5"/>
<text text-anchor="middle" x="1805.5" y="-63.5" font-family="FreeSans" font-size="10.00" fill="#000000">compilerOW.h</text>
</a>
</g>
</g>
<!-- Node17&#45;&gt;Node226 -->
<g id="edge41" class="edge">
<title>Node17&#45;&gt;Node226</title>
<path fill="none" stroke="#191970" d="M1288.1059,-170.951C1337.7994,-162.234 1424.4703,-146.7376 1498.5,-132 1595.2756,-112.7342 1708.6717,-87.7185 1766.8083,-74.7144"/>
<polygon fill="#191970" stroke="#191970" points="1287.3278,-167.5339 1278.081,-172.7056 1288.5346,-174.4291 1287.3278,-167.5339"/>
</g>
<!-- Node227 -->
<g id="node26" class="node">
<title>Node227</title>
<g id="a_node26"><a xlink:href="compilerLCC_8h" target="_top" xlink:title="compilerLCC.h">
<polygon fill="none" stroke="#ff0000" points="1637.5,-112.5 1637.5,-131.5 1717.5,-131.5 1717.5,-112.5 1637.5,-112.5"/>
<text text-anchor="middle" x="1677.5" y="-119.5" font-family="FreeSans" font-size="10.00" fill="#000000">compilerLCC.h</text>
</a>
</g>
</g>
<!-- Node17&#45;&gt;Node227 -->
<g id="edge43" class="edge">
<title>Node17&#45;&gt;Node227</title>
<path fill="none" stroke="#191970" d="M1287.9889,-173.691C1356.5665,-166.2395 1499.8855,-150.0056 1620.5,-132 1625.9653,-131.1841 1631.7132,-130.2573 1637.37,-129.3047"/>
<polygon fill="#191970" stroke="#191970" points="1287.5973,-170.2128 1278.0318,-174.7681 1288.3502,-177.1722 1287.5973,-170.2128"/>
</g>
<!-- Node228 -->
<g id="node27" class="node">
<title>Node228</title>
<g id="a_node27"><a xlink:href="compilerKeilC51_8h" target="_top" xlink:title="compilerKeilC51.h">
<polygon fill="none" stroke="#ff0000" points="1738,-112.5 1738,-131.5 1833,-131.5 1833,-112.5 1738,-112.5"/>
<text text-anchor="middle" x="1785.5" y="-119.5" font-family="FreeSans" font-size="10.00" fill="#000000">compilerKeilC51.h</text>
</a>
</g>
</g>
<!-- Node17&#45;&gt;Node228 -->
<g id="edge45" class="edge">
<title>Node17&#45;&gt;Node228</title>
<path fill="none" stroke="#191970" d="M1288.1206,-175.0937C1370.8349,-168.9565 1564.6803,-153.4551 1726.5,-132 1730.2076,-131.5084 1734.0393,-130.9573 1737.8867,-130.3732"/>
<polygon fill="#191970" stroke="#191970" points="1287.8445,-171.6044 1278.1286,-175.8295 1288.3586,-178.5855 1287.8445,-171.6044"/>
</g>
<!-- Node229 -->
<g id="node28" class="node">
<title>Node229</title>
<g id="a_node28"><a xlink:href="compilerIAR_8h" target="_top" xlink:title="compilerIAR.h">
<polygon fill="none" stroke="#ff0000" points="1852,-112.5 1852,-131.5 1929,-131.5 1929,-112.5 1852,-112.5"/>
<text text-anchor="middle" x="1890.5" y="-119.5" font-family="FreeSans" font-size="10.00" fill="#000000">compilerIAR.h</text>
</a>
</g>
</g>
<!-- Node17&#45;&gt;Node229 -->
<g id="edge47" class="edge">
<title>Node17&#45;&gt;Node229</title>
<path fill="none" stroke="#191970" d="M1288.5428,-176.6402C1385.3997,-173.0369 1635.618,-161.4236 1842.5,-132 1845.5339,-131.5685 1848.6637,-131.0606 1851.8025,-130.5064"/>
<polygon fill="#191970" stroke="#191970" points="1288.1732,-173.1513 1278.307,-177.0122 1288.4275,-180.1466 1288.1732,-173.1513"/>
</g>
<!-- Node230 -->
<g id="node29" class="node">
<title>Node230</title>
<g id="a_node29"><a xlink:href="compilerICC_8h" target="_top" xlink:title="compilerICC.h">
<polygon fill="none" stroke="#ff0000" points="1947,-112.5 1947,-131.5 2024,-131.5 2024,-112.5 1947,-112.5"/>
<text text-anchor="middle" x="1985.5" y="-119.5" font-family="FreeSans" font-size="10.00" fill="#000000">compilerICC.h</text>
</a>
</g>
</g>
<!-- Node17&#45;&gt;Node230 -->
<g id="edge49" class="edge">
<title>Node17&#45;&gt;Node230</title>
<path fill="none" stroke="#191970" d="M1288.3731,-177.3184C1395.5418,-175.091 1693.3076,-166.067 1938.5,-132 1941.2268,-131.6211 1944.0316,-131.1738 1946.8489,-130.6819"/>
<polygon fill="#191970" stroke="#191970" points="1288.2383,-173.8203 1278.3101,-177.519 1288.3779,-180.8189 1288.2383,-173.8203"/>
</g>
<!-- Node231 -->
<g id="node30" class="node">
<title>Node231</title>
<g id="a_node30"><a xlink:href="compilerGDC_8h" target="_top" xlink:title="compilerGDC.h">
<polygon fill="none" stroke="#ff0000" points="922.5,-112.5 922.5,-131.5 1004.5,-131.5 1004.5,-112.5 922.5,-112.5"/>
<text text-anchor="middle" x="963.5" y="-119.5" font-family="FreeSans" font-size="10.00" fill="#000000">compilerGDC.h</text>
</a>
</g>
</g>
<!-- Node17&#45;&gt;Node231 -->
<g id="edge51" class="edge">
<title>Node17&#45;&gt;Node231</title>
<path fill="none" stroke="#191970" d="M1206.9596,-170.0061C1153.1363,-159.3931 1058.6051,-140.7531 1004.5342,-130.0912"/>
<polygon fill="#191970" stroke="#191970" points="1206.349,-173.453 1216.8372,-171.9538 1207.7032,-166.5853 1206.349,-173.453"/>
</g>
<!-- Node232 -->
<g id="node31" class="node">
<title>Node232</title>
<g id="a_node31"><a xlink:href="compilerGNUFortran_8h" target="_top" xlink:title="compilerGNUFortran.h">
<polygon fill="none" stroke="#ff0000" points="1023,-112.5 1023,-131.5 1136,-131.5 1136,-112.5 1023,-112.5"/>
<text text-anchor="middle" x="1079.5" y="-119.5" font-family="FreeSans" font-size="10.00" fill="#000000">compilerGNUFortran.h</text>
</a>
</g>
</g>
<!-- Node17&#45;&gt;Node232 -->
<g id="edge53" class="edge">
<title>Node17&#45;&gt;Node232</title>
<path fill="none" stroke="#191970" d="M1209.0714,-165.1905C1178.2927,-154.9309 1135.8074,-140.7691 1108.0034,-131.5011"/>
<polygon fill="#191970" stroke="#191970" points="1208.0261,-168.5313 1218.6198,-168.3733 1210.2398,-161.8905 1208.0261,-168.5313"/>
</g>
<!-- Node233 -->
<g id="node32" class="node">
<title>Node233</title>
<g id="a_node32"><a xlink:href="compilerXML_8h" target="_top" xlink:title="compilerXML.h">
<polygon fill="none" stroke="#ff0000" points="1154,-112.5 1154,-131.5 1235,-131.5 1235,-112.5 1154,-112.5"/>
<text text-anchor="middle" x="1194.5" y="-119.5" font-family="FreeSans" font-size="10.00" fill="#000000">compilerXML.h</text>
</a>
</g>
</g>
<!-- Node17&#45;&gt;Node233 -->
<g id="edge55" class="edge">
<title>Node17&#45;&gt;Node233</title>
<path fill="none" stroke="#191970" d="M1231.2104,-160.7884C1222.1438,-151.2085 1211.1946,-139.6396 1203.6261,-131.6427"/>
<polygon fill="#191970" stroke="#191970" points="1228.8522,-163.3884 1238.2681,-168.2455 1233.9363,-158.5767 1228.8522,-163.3884"/>
</g>
<!-- Node19 -->
<g id="node3" class="node">
<title>Node19</title>
<g id="a_node3"><a xlink:href="sdk_8h" target="_top" xlink:title="sdk.h">
<polygon fill="none" stroke="#ff0000" points="671,-56.5 671,-75.5 710,-75.5 710,-56.5 671,-56.5"/>
<text text-anchor="middle" x="690.5" y="-63.5" font-family="FreeSans" font-size="10.00" fill="#000000">sdk.h</text>
</a>
</g>
</g>
<!-- Node18&#45;&gt;Node19 -->
<g id="edge2" class="edge">
<title>Node18&#45;&gt;Node19</title>
<path fill="none" stroke="#191970" d="M704.281,-102.7493C700.8524,-93.6064 696.9049,-83.0798 694.116,-75.6427"/>
<polygon fill="#191970" stroke="#191970" points="701.0536,-104.1112 707.8421,-112.2455 707.6079,-101.6533 701.0536,-104.1112"/>
</g>
<!-- Node122 -->
<g id="node13" class="node">
<title>Node122</title>
<g id="a_node13"><a xlink:href="sdk__precomp_8h" target="_top" xlink:title="sdk_precomp.h">
<polygon fill="none" stroke="#ff0000" points="225.5,-56.5 225.5,-75.5 307.5,-75.5 307.5,-56.5 225.5,-56.5"/>
<text text-anchor="middle" x="266.5" y="-63.5" font-family="FreeSans" font-size="10.00" fill="#000000">sdk_precomp.h</text>
</a>
</g>
</g>
<!-- Node18&#45;&gt;Node122 -->
<g id="edge12" class="edge">
<title>Node18&#45;&gt;Node122</title>
<path fill="none" stroke="#191970" d="M660.2993,-115.5568C571.2132,-104.3459 389.4161,-81.4681 307.7906,-71.1961"/>
<polygon fill="#191970" stroke="#191970" points="660.0743,-119.056 670.4331,-116.832 660.9484,-112.1108 660.0743,-119.056"/>
</g>
<!-- Node78 -->
<g id="node4" class="node">
<title>Node78</title>
<g id="a_node4"><a xlink:href="advancedcompileroptionsdlg_8cpp" target="_top" xlink:title="advancedcompileroptionsdlg.cpp">
<polygon fill="none" stroke="#000000" points="337.5,-.5 337.5,-19.5 493.5,-19.5 493.5,-.5 337.5,-.5"/>
<text text-anchor="middle" x="415.5" y="-7.5" font-family="FreeSans" font-size="10.00" fill="#000000">advancedcompileroptionsdlg.cpp</text>
</a>
</g>
</g>
<!-- Node19&#45;&gt;Node78 -->
<g id="edge3" class="edge">
<title>Node19&#45;&gt;Node78</title>
<path fill="none" stroke="#191970" d="M660.7251,-59.9367C613.0021,-50.2186 519.0008,-31.0765 462.2546,-19.5209"/>
<polygon fill="#191970" stroke="#191970" points="660.2254,-63.4067 670.7227,-61.9726 661.6222,-56.5475 660.2254,-63.4067"/>
</g>
<!-- Node80 -->
<g id="node5" class="node">
<title>Node80</title>
<g id="a_node5"><a xlink:href="compilererrors_8cpp" target="_top" xlink:title="compilererrors.cpp">
<polygon fill="none" stroke="#000000" points="902,-.5 902,-19.5 997,-19.5 997,-.5 902,-.5"/>
<text text-anchor="middle" x="949.5" y="-7.5" font-family="FreeSans" font-size="10.00" fill="#000000">compilererrors.cpp</text>
</a>
</g>
</g>
<!-- Node19&#45;&gt;Node80 -->
<g id="edge4" class="edge">
<title>Node19&#45;&gt;Node80</title>
<path fill="none" stroke="#191970" d="M719.8398,-56.2522C765.9349,-44.4316 848.9731,-28.5799 901.8819,-18.7405"/>
<polygon fill="#191970" stroke="#191970" points="718.8068,-52.9053 710.0442,-58.8607 720.6081,-59.6695 718.8068,-52.9053"/>
</g>
<!-- Node82 -->
<g id="node6" class="node">
<title>Node82</title>
<g id="a_node6"><a xlink:href="compilerG95_8cpp" target="_top" xlink:title="compilerG95.cpp">
<polygon fill="none" stroke="#000000" points="1015,-.5 1015,-19.5 1104,-19.5 1104,-.5 1015,-.5"/>
<text text-anchor="middle" x="1059.5" y="-7.5" font-family="FreeSans" font-size="10.00" fill="#000000">compilerG95.cpp</text>
</a>
</g>
</g>
<!-- Node19&#45;&gt;Node82 -->
<g id="edge5" class="edge">
<title>Node19&#45;&gt;Node82</title>
<path fill="none" stroke="#191970" d="M720.3579,-56.2352C846.5417,-27.5307 882.7233,-39.4211 1006.5,-20 1009.1827,-19.5791 1011.9377,-19.1252 1014.7142,-18.6512"/>
<polygon fill="#191970" stroke="#191970" points="719.2617,-52.8963 710.3094,-58.5626 720.8413,-59.7158 719.2617,-52.8963"/>
</g>
<!-- Node83 -->
<g id="node7" class="node">
<title>Node83</title>
<g id="a_node7"><a xlink:href="compilergcc_8cpp" target="_top" xlink:title="compilergcc.cpp">
<polygon fill="none" stroke="#000000" points="1316,-.5 1316,-19.5 1403,-19.5 1403,-.5 1316,-.5"/>
<text text-anchor="middle" x="1359.5" y="-7.5" font-family="FreeSans" font-size="10.00" fill="#000000">compilergcc.cpp</text>
</a>
</g>
</g>
<!-- Node19&#45;&gt;Node83 -->
<g id="edge6" class="edge">
<title>Node19&#45;&gt;Node83</title>
<path fill="none" stroke="#191970" d="M720.1534,-56.4041C946.9852,-10.8248 1010.0712,-37.0872 1236.5,-20 1262.8844,-18.0089 1292.4379,-15.6116 1315.9623,-13.6634"/>
<polygon fill="#191970" stroke="#191970" points="719.3785,-52.9899 710.2768,-58.4129 720.7738,-59.8495 719.3785,-52.9899"/>
</g>
<!-- Node91 -->
<g id="node8" class="node">
<title>Node91</title>
<g id="a_node8"><a xlink:href="compilermessages_8cpp" target="_top" xlink:title="compilermessages.cpp">
<polygon fill="none" stroke="#000000" points="769.5,-.5 769.5,-19.5 883.5,-19.5 883.5,-.5 769.5,-.5"/>
<text text-anchor="middle" x="826.5" y="-7.5" font-family="FreeSans" font-size="10.00" fill="#000000">compilermessages.cpp</text>
</a>
</g>
</g>
<!-- Node19&#45;&gt;Node91 -->
<g id="edge7" class="edge">
<title>Node19&#45;&gt;Node91</title>
<path fill="none" stroke="#191970" d="M719.5879,-54.0226C744.5,-43.7647 779.9146,-29.1822 803.047,-19.6571"/>
<polygon fill="#191970" stroke="#191970" points="718.1897,-50.8132 710.2756,-57.8571 720.855,-57.2859 718.1897,-50.8132"/>
</g>
<!-- Node92 -->
<g id="node9" class="node">
<title>Node92</title>
<g id="a_node9"><a xlink:href="compilerMINGW_8cpp" target="_top" xlink:title="compilerMINGW.cpp">
<polygon fill="none" stroke="#000000" points="1121.5,-.5 1121.5,-19.5 1227.5,-19.5 1227.5,-.5 1121.5,-.5"/>
<text text-anchor="middle" x="1174.5" y="-7.5" font-family="FreeSans" font-size="10.00" fill="#000000">compilerMINGW.cpp</text>
</a>
</g>
</g>
<!-- Node19&#45;&gt;Node92 -->
<g id="edge8" class="edge">
<title>Node19&#45;&gt;Node92</title>
<path fill="none" stroke="#191970" d="M720.2353,-56.3422C893.231,-19.9152 942.3077,-41.8249 1113.5,-20 1116.0549,-19.6743 1118.6669,-19.3217 1121.3028,-18.9503"/>
<polygon fill="#191970" stroke="#191970" points="719.3348,-52.9556 710.289,-58.4715 720.8002,-59.8005 719.3348,-52.9556"/>
</g>
<!-- Node19&#45;&gt;Node93 -->
<g id="edge9" class="edge">
<title>Node19&#45;&gt;Node93</title>
<path fill="none" stroke="#191970" d="M660.8037,-61.3934C649.1789,-59.6358 635.7241,-57.6577 623.5,-56 621.6266,-55.746 428.7371,-32.2214 319.6336,-18.9173"/>
<polygon fill="#191970" stroke="#191970" points="660.4638,-64.8819 670.8773,-62.93 661.5194,-57.962 660.4638,-64.8819"/>
</g>
<!-- Node97 -->
<g id="node11" class="node">
<title>Node97</title>
<g id="a_node11"><a xlink:href="compileroptionsdlg_8cpp" target="_top" xlink:title="compileroptionsdlg.cpp">
<polygon fill="none" stroke="#000000" points="512,-.5 512,-19.5 627,-19.5 627,-.5 512,-.5"/>
<text text-anchor="middle" x="569.5" y="-7.5" font-family="FreeSans" font-size="10.00" fill="#000000">compileroptionsdlg.cpp</text>
</a>
</g>
</g>
<!-- Node19&#45;&gt;Node97 -->
<g id="edge10" class="edge">
<title>Node19&#45;&gt;Node97</title>
<path fill="none" stroke="#191970" d="M661.6236,-52.6357C639.7076,-42.4928 610.0903,-28.7856 590.4201,-19.682"/>
<polygon fill="#191970" stroke="#191970" points="660.2447,-55.8542 670.79,-56.878 663.1848,-49.5015 660.2447,-55.8542"/>
</g>
<!-- Node19&#45;&gt;Node101 -->
<g id="edge11" class="edge">
<title>Node19&#45;&gt;Node101</title>
<path fill="none" stroke="#191970" d="M693.3346,-46.1575C694.6207,-37.155 696.0829,-26.9199 697.1225,-19.6427"/>
<polygon fill="#191970" stroke="#191970" points="689.843,-45.851 691.8935,-56.2455 696.7726,-46.8411 689.843,-45.851"/>
</g>
<!-- Node122&#45;&gt;Node142 -->
<g id="edge13" class="edge">
<title>Node122&#45;&gt;Node142</title>
<path fill="none" stroke="#191970" d="M224.1643,-53.4561C189.4706,-43.1765 141.1166,-28.8494 109.5663,-19.5011"/>
<polygon fill="#191970" stroke="#191970" points="223.4274,-56.8881 234.0097,-56.3733 225.4161,-50.1765 223.4274,-56.8881"/>
</g>
<!-- Node215&#45;&gt;Node78 -->
<g id="edge16" class="edge">
<title>Node215&#45;&gt;Node78</title>
<path fill="none" stroke="#191970" d="M510.5564,-52.2473C487.6735,-42.0771 457.0986,-28.4883 436.8775,-19.5011"/>
<polygon fill="#191970" stroke="#191970" points="509.2802,-55.5102 519.8398,-56.3733 512.1232,-49.1135 509.2802,-55.5102"/>
</g>
<!-- Node215&#45;&gt;Node97 -->
<g id="edge17" class="edge">
<title>Node215&#45;&gt;Node97</title>
<path fill="none" stroke="#191970" d="M550.9781,-47.0437C555.5835,-37.8331 560.9201,-27.1598 564.6787,-19.6427"/>
<polygon fill="#191970" stroke="#191970" points="547.7189,-45.736 546.3772,-56.2455 553.9799,-48.8665 547.7189,-45.736"/>
</g>
<!-- Node216&#45;&gt;Node83 -->
<g id="edge21" class="edge">
<title>Node216&#45;&gt;Node83</title>
<path fill="none" stroke="#191970" d="M1252.0436,-109.6391C1222.2848,-100.958 1188.2408,-88.674 1179.5,-76 1174.4535,-68.6826 1174.048,-63.0205 1179.5,-56 1196.0685,-34.6649 1268.0143,-21.556 1315.778,-15.0422"/>
<polygon fill="#191970" stroke="#191970" points="1251.3533,-113.0812 1261.9287,-112.4404 1253.2618,-106.3464 1251.3533,-113.0812"/>
</g>
<!-- Node216&#45;&gt;Node92 -->
<g id="edge22" class="edge">
<title>Node216&#45;&gt;Node92</title>
<path fill="none" stroke="#191970" d="M1248.0433,-109.8269C1216.5381,-101.3353 1180.8035,-89.1949 1171.5,-76 1159.6026,-59.1263 1165.9191,-33.3519 1170.7181,-19.5354"/>
<polygon fill="#191970" stroke="#191970" points="1247.5247,-113.3089 1258.0849,-112.4524 1249.2955,-106.5365 1247.5247,-113.3089"/>
</g>
<!-- Node217 -->
<g id="node17" class="node">
<title>Node217</title>
<g id="a_node17"><a xlink:href="compilerCYGWIN_8h" target="_top" xlink:title="compilerCYGWIN.h">
<polygon fill="none" stroke="#ff0000" points="1188,-56.5 1188,-75.5 1289,-75.5 1289,-56.5 1188,-56.5"/>
<text text-anchor="middle" x="1238.5" y="-63.5" font-family="FreeSans" font-size="10.00" fill="#000000">compilerCYGWIN.h</text>
</a>
</g>
</g>
<!-- Node216&#45;&gt;Node217 -->
<g id="edge19" class="edge">
<title>Node216&#45;&gt;Node217</title>
<path fill="none" stroke="#191970" d="M1282.0779,-105.3607C1271.3519,-95.6727 1258.2066,-83.7995 1249.1758,-75.6427"/>
<polygon fill="#191970" stroke="#191970" points="1279.9334,-108.14 1289.7004,-112.2455 1284.6254,-102.9453 1279.9334,-108.14"/>
</g>
<!-- Node217&#45;&gt;Node83 -->
<g id="edge20" class="edge">
<title>Node217&#45;&gt;Node83</title>
<path fill="none" stroke="#191970" d="M1268.5104,-52.1109C1290.4525,-41.9559 1319.6388,-28.4482 1338.9708,-19.5011"/>
<polygon fill="#191970" stroke="#191970" points="1266.9058,-48.9968 1259.3006,-56.3733 1269.8459,-55.3494 1266.9058,-48.9968"/>
</g>
<!-- Node219&#45;&gt;Node80 -->
<g id="edge24" class="edge">
<title>Node219&#45;&gt;Node80</title>
<path fill="none" stroke="#191970" d="M840.0666,-105.0063C853.5688,-91.3823 873.3106,-71.9694 891.5,-56 906.5664,-42.7725 924.8082,-28.5845 936.7607,-19.5184"/>
<polygon fill="#191970" stroke="#191970" points="837.4182,-102.7075 832.8967,-112.2891 842.4065,-107.6185 837.4182,-102.7075"/>
</g>
<!-- Node219&#45;&gt;Node91 -->
<g id="edge29" class="edge">
<title>Node219&#45;&gt;Node91</title>
<path fill="none" stroke="#191970" d="M824.0285,-102.2702C824.6786,-77.9985 825.7561,-37.7725 826.2449,-19.5249"/>
<polygon fill="#191970" stroke="#191970" points="820.5249,-102.3608 823.7558,-112.4509 827.5224,-102.5483 820.5249,-102.3608"/>
</g>
<!-- Node220 -->
<g id="node19" class="node">
<title>Node220</title>
<g id="a_node19"><a xlink:href="compilergcc_8h" target="_top" xlink:title="compilergcc.h">
<polygon fill="none" stroke="#000000" points="728,-56.5 728,-75.5 805,-75.5 805,-56.5 728,-56.5"/>
<text text-anchor="middle" x="766.5" y="-63.5" font-family="FreeSans" font-size="10.00" fill="#000000">compilergcc.h</text>
</a>
</g>
</g>
<!-- Node219&#45;&gt;Node220 -->
<g id="edge25" class="edge">
<title>Node219&#45;&gt;Node220</title>
<path fill="none" stroke="#191970" d="M806.2729,-105.0751C796.4659,-95.4402 784.536,-83.7196 776.3149,-75.6427"/>
<polygon fill="#191970" stroke="#191970" points="803.9851,-107.734 813.5714,-112.2455 808.8909,-102.7406 803.9851,-107.734"/>
</g>
<!-- Node220&#45;&gt;Node83 -->
<g id="edge26" class="edge">
<title>Node220&#45;&gt;Node83</title>
<path fill="none" stroke="#191970" d="M815.5304,-61.3698C928.8798,-50.6656 1207.6109,-24.3437 1315.6846,-14.1377"/>
<polygon fill="#191970" stroke="#191970" points="815.035,-57.9009 805.4084,-62.3257 815.6932,-64.8699 815.035,-57.9009"/>
</g>
<!-- Node220&#45;&gt;Node97 -->
<g id="edge27" class="edge">
<title>Node220&#45;&gt;Node97</title>
<path fill="none" stroke="#191970" d="M722.8371,-53.5882C686.6431,-43.2996 635.9506,-28.8895 602.9236,-19.5011"/>
<polygon fill="#191970" stroke="#191970" points="722.0585,-57.0055 732.6345,-56.3733 723.9726,-50.2723 722.0585,-57.0055"/>
</g>
<!-- Node220&#45;&gt;Node101 -->
<g id="edge28" class="edge">
<title>Node220&#45;&gt;Node101</title>
<path fill="none" stroke="#191970" d="M746.6404,-49.645C734.8142,-39.9058 720.2108,-27.8795 710.209,-19.6427"/>
<polygon fill="#191970" stroke="#191970" points="744.711,-52.5902 754.6553,-56.2455 749.161,-47.1867 744.711,-52.5902"/>
</g>
<!-- Node221&#45;&gt;Node82 -->
<g id="edge31" class="edge">
<title>Node221&#45;&gt;Node82</title>
<path fill="none" stroke="#191970" d="M969.2624,-52.1109C991.0232,-41.9559 1019.9682,-28.4482 1039.1405,-19.5011"/>
<polygon fill="#191970" stroke="#191970" points="967.7105,-48.9727 960.1287,-56.3733 970.6707,-55.316 967.7105,-48.9727"/>
</g>
<!-- Node221&#45;&gt;Node83 -->
<g id="edge32" class="edge">
<title>Node221&#45;&gt;Node83</title>
<path fill="none" stroke="#191970" d="M989.5603,-56.6254C990.8865,-56.4106 992.2016,-56.2016 993.5,-56 1109.4661,-37.9905 1246.9483,-22.1938 1315.7225,-14.67"/>
<polygon fill="#191970" stroke="#191970" points="988.5439,-53.2474 979.2671,-58.3651 989.7106,-60.1495 988.5439,-53.2474"/>
</g>
<!-- Node222&#45;&gt;Node83 -->
<g id="edge34" class="edge">
<title>Node222&#45;&gt;Node83</title>
<path fill="none" stroke="#191970" d="M1359.5,-46.1575C1359.5,-37.155 1359.5,-26.9199 1359.5,-19.6427"/>
<polygon fill="#191970" stroke="#191970" points="1356.0001,-46.2455 1359.5,-56.2455 1363.0001,-46.2456 1356.0001,-46.2455"/>
</g>
<!-- Node223&#45;&gt;Node83 -->
<g id="edge36" class="edge">
<title>Node223&#45;&gt;Node83</title>
<path fill="none" stroke="#191970" d="M1445.6967,-51.9741C1424.875,-41.8348 1397.3022,-28.408 1379.0112,-19.5011"/>
<polygon fill="#191970" stroke="#191970" points="1444.2078,-55.1419 1454.7308,-56.3733 1447.2724,-48.8484 1444.2078,-55.1419"/>
</g>
<!-- Node224&#45;&gt;Node83 -->
<g id="edge38" class="edge">
<title>Node224&#45;&gt;Node83</title>
<path fill="none" stroke="#191970" d="M1536.2134,-53.982C1494.8139,-43.6781 1435.9721,-29.0331 1397.7647,-19.5237"/>
<polygon fill="#191970" stroke="#191970" points="1535.5275,-57.418 1546.0768,-56.4369 1537.2182,-50.6252 1535.5275,-57.418"/>
</g>
<!-- Node225&#45;&gt;Node83 -->
<g id="edge40" class="edge">
<title>Node225&#45;&gt;Node83</title>
<path fill="none" stroke="#191970" d="M1639.7992,-55.8905C1549.6018,-40.8832 1456.614,-25.7413 1403.3181,-17.0947"/>
<polygon fill="#191970" stroke="#191970" points="1639.4898,-59.3871 1649.9289,-57.5773 1640.6397,-52.4822 1639.4898,-59.3871"/>
</g>
<!-- Node226&#45;&gt;Node83 -->
<g id="edge42" class="edge">
<title>Node226&#45;&gt;Node83</title>
<path fill="none" stroke="#191970" d="M1756.7759,-55.8337C1622.5492,-34.2504 1474.8464,-19.9846 1403.0829,-13.6603"/>
<polygon fill="#191970" stroke="#191970" points="1756.3942,-59.3175 1766.8263,-57.4678 1757.5176,-52.4082 1756.3942,-59.3175"/>
</g>
<!-- Node227&#45;&gt;Node83 -->
<g id="edge44" class="edge">
<title>Node227&#45;&gt;Node83</title>
<path fill="none" stroke="#191970" d="M1727.3863,-112.191C1776.6149,-102.0079 1845.6444,-86.1726 1853.5,-76 1858.9329,-68.9647 1859.4869,-62.5703 1853.5,-56 1823.4413,-23.0123 1518.2822,-13.2877 1403.1496,-10.7803"/>
<polygon fill="#191970" stroke="#191970" points="1726.6146,-108.7764 1717.5202,-114.2115 1728.0191,-115.634 1726.6146,-108.7764"/>
</g>
<!-- Node228&#45;&gt;Node83 -->
<g id="edge46" class="edge">
<title>Node228&#45;&gt;Node83</title>
<path fill="none" stroke="#191970" d="M1824.6794,-108.7049C1854.9227,-96.4168 1888.6358,-76.9394 1869.5,-56 1838.3142,-21.8748 1521.1257,-12.8359 1403.2763,-10.646"/>
<polygon fill="#191970" stroke="#191970" points="1823.1134,-105.558 1815.0535,-112.4346 1825.6425,-112.0852 1823.1134,-105.558"/>
</g>
<!-- Node229&#45;&gt;Node83 -->
<g id="edge48" class="edge">
<title>Node229&#45;&gt;Node83</title>
<path fill="none" stroke="#191970" d="M1895.1002,-102.2287C1897.2617,-87.4586 1897.2158,-67.8527 1885.5,-56 1851.8696,-21.9766 1523.3348,-12.854 1403.2049,-10.6455"/>
<polygon fill="#191970" stroke="#191970" points="1891.6011,-101.8949 1893.1736,-112.3724 1898.4781,-103.2011 1891.6011,-101.8949"/>
</g>
<!-- Node230&#45;&gt;Node83 -->
<g id="edge50" class="edge">
<title>Node230&#45;&gt;Node83</title>
<path fill="none" stroke="#191970" d="M1970.0535,-104.7159C1954.8418,-88.9867 1930.0804,-66.6484 1903.5,-56 1812.8766,-19.6953 1515.8483,-12.0325 1403.2786,-10.4241"/>
<polygon fill="#191970" stroke="#191970" points="1967.7082,-107.3321 1977.0967,-112.2419 1972.8192,-102.549 1967.7082,-107.3321"/>
</g>
<!-- Node231&#45;&gt;Node83 -->
<g id="edge52" class="edge">
<title>Node231&#45;&gt;Node83</title>
<path fill="none" stroke="#191970" d="M992.7219,-108.0904C1024.6966,-93.3486 1077.7716,-70.2683 1125.5,-56 1190.5553,-36.5519 1268.2922,-23.1432 1315.7637,-16.0175"/>
<polygon fill="#191970" stroke="#191970" points="991.0955,-104.9868 983.5055,-112.3788 994.0486,-111.3334 991.0955,-104.9868"/>
</g>
<!-- Node232&#45;&gt;Node83 -->
<g id="edge54" class="edge">
<title>Node232&#45;&gt;Node83</title>
<path fill="none" stroke="#191970" d="M1096.0735,-105.0851C1111.8088,-89.9967 1136.8151,-68.4261 1162.5,-56 1211.9789,-32.0627 1274.5853,-20.2013 1315.7775,-14.597"/>
<polygon fill="#191970" stroke="#191970" points="1093.4111,-102.7944 1088.7355,-112.3017 1098.3195,-107.7853 1093.4111,-102.7944"/>
</g>
<!-- Node233&#45;&gt;Node83 -->
<g id="edge56" class="edge">
<title>Node233&#45;&gt;Node83</title>
<path fill="none" stroke="#191970" d="M1179.6341,-104.0429C1169.757,-89.8198 1160.4571,-70.0706 1171.5,-56 1189.0816,-33.5979 1265.7984,-20.6952 1315.6349,-14.5334"/>
<polygon fill="#191970" stroke="#191970" points="1176.874,-106.196 1185.6818,-112.0845 1182.4685,-101.9887 1176.874,-106.196"/>
</g>
</g>
</svg>
