<?xml version="1.0" encoding="UTF-8" standalone="no"?>
<!DOCTYPE svg PUBLIC "-//W3C//DTD SVG 1.1//EN"
 "http://www.w3.org/Graphics/SVG/1.1/DTD/svg11.dtd">
<!-- Generated by graphviz version 2.40.1 (20161225.0304)
 -->
<!-- Title: compiler_defs.h Pages: 1 -->
<svg width="353pt" height="140pt"
 viewBox="0.00 0.00 352.50 140.00" xmlns="http://www.w3.org/2000/svg" xmlns:xlink="http://www.w3.org/1999/xlink">
<g id="graph0" class="graph" transform="scale(1 1) rotate(0) translate(4 136)">
<title>compiler_defs.h</title>
<!-- Node3 -->
<g id="node1" class="node">
<title>Node3</title>
<polygon fill="#bfbfbf" stroke="#000000" points="68.5,-112.5 68.5,-131.5 152.5,-131.5 152.5,-112.5 68.5,-112.5"/>
<text text-anchor="middle" x="110.5" y="-119.5" font-family="FreeSans" font-size="10.00" fill="#000000">compiler_defs.h</text>
</g>
<!-- Node4 -->
<g id="node2" class="node">
<title>Node4</title>
<g id="a_node2"><a xlink:href="compiler__defs_8cpp" target="_top" xlink:title="compiler_defs.cpp">
<polygon fill="none" stroke="#000000" points="11,-56.5 11,-75.5 106,-75.5 106,-56.5 11,-56.5"/>
<text text-anchor="middle" x="58.5" y="-63.5" font-family="FreeSans" font-size="10.00" fill="#000000">compiler_defs.cpp</text>
</a>
</g>
</g>
<!-- Node3&#45;&gt;Node4 -->
<g id="edge1" class="edge">
<title>Node3&#45;&gt;Node4</title>
<path fill="none" stroke="#191970" d="M94.5178,-104.7884C85.6222,-95.2085 74.8796,-83.6396 67.4539,-75.6427"/>
<polygon fill="#191970" stroke="#191970" points="92.073,-107.2992 101.4423,-112.2455 97.2025,-102.536 92.073,-107.2992"/>
</g>
<!-- Node5 -->
<g id="node3" class="node">
<title>Node5</title>
<g id="a_node3"><a xlink:href="compilergcc_8h" target="_top" xlink:title="compilergcc.h">
<polygon fill="none" stroke="#000000" points="124,-56.5 124,-75.5 201,-75.5 201,-56.5 124,-56.5"/>
<text text-anchor="middle" x="162.5" y="-63.5" font-family="FreeSans" font-size="10.00" fill="#000000">compilergcc.h</text>
</a>
</g>
</g>
<!-- Node3&#45;&gt;Node5 -->
<g id="edge2" class="edge">
<title>Node3&#45;&gt;Node5</title>
<path fill="none" stroke="#191970" d="M126.4822,-104.7884C135.3778,-95.2085 146.1204,-83.6396 153.5461,-75.6427"/>
<polygon fill="#191970" stroke="#191970" points="123.7975,-102.536 119.5577,-112.2455 128.927,-107.2992 123.7975,-102.536"/>
</g>
<!-- Node6 -->
<g id="node4" class="node">
<title>Node6</title>
<g id="a_node4"><a xlink:href="compilergcc_8cpp" target="_top" xlink:title="compilergcc.cpp">
<polygon fill="none" stroke="#000000" points="0,-.5 0,-19.5 87,-19.5 87,-.5 0,-.5"/>
<text text-anchor="middle" x="43.5" y="-7.5" font-family="FreeSans" font-size="10.00" fill="#000000">compilergcc.cpp</text>
</a>
</g>
</g>
<!-- Node5&#45;&gt;Node6 -->
<g id="edge3" class="edge">
<title>Node5&#45;&gt;Node6</title>
<path fill="none" stroke="#191970" d="M132.9856,-52.1109C111.4062,-41.9559 82.7024,-28.4482 63.6899,-19.5011"/>
<polygon fill="#191970" stroke="#191970" points="131.5047,-55.2821 142.0432,-56.3733 134.4853,-48.9484 131.5047,-55.2821"/>
</g>
<!-- Node7 -->
<g id="node5" class="node">
<title>Node7</title>
<g id="a_node5"><a xlink:href="compileroptionsdlg_8cpp" target="_top" xlink:title="compileroptionsdlg.cpp">
<polygon fill="none" stroke="#000000" points="105,-.5 105,-19.5 220,-19.5 220,-.5 105,-.5"/>
<text text-anchor="middle" x="162.5" y="-7.5" font-family="FreeSans" font-size="10.00" fill="#000000">compileroptionsdlg.cpp</text>
</a>
</g>
</g>
<!-- Node5&#45;&gt;Node7 -->
<g id="edge4" class="edge">
<title>Node5&#45;&gt;Node7</title>
<path fill="none" stroke="#191970" d="M162.5,-46.1575C162.5,-37.155 162.5,-26.9199 162.5,-19.6427"/>
<polygon fill="#191970" stroke="#191970" points="159.0001,-46.2455 162.5,-56.2455 166.0001,-46.2456 159.0001,-46.2455"/>
</g>
<!-- Node8 -->
<g id="node6" class="node">
<title>Node8</title>
<g id="a_node6"><a xlink:href="directcommands_8cpp" target="_top" xlink:title="directcommands.cpp">
<polygon fill="none" stroke="#000000" points="238.5,-.5 238.5,-19.5 344.5,-19.5 344.5,-.5 238.5,-.5"/>
<text text-anchor="middle" x="291.5" y="-7.5" font-family="FreeSans" font-size="10.00" fill="#000000">directcommands.cpp</text>
</a>
</g>
</g>
<!-- Node5&#45;&gt;Node8 -->
<g id="edge5" class="edge">
<title>Node5&#45;&gt;Node8</title>
<path fill="none" stroke="#191970" d="M193.8671,-52.3833C217.3284,-42.1985 248.8185,-28.5284 269.6135,-19.5011"/>
<polygon fill="#191970" stroke="#191970" points="192.4551,-49.1806 184.6759,-56.3733 195.2426,-55.6017 192.4551,-49.1806"/>
</g>
</g>
</svg>
