<?xml version="1.0" encoding="UTF-8" standalone="no"?>
<!DOCTYPE svg PUBLIC "-//W3C//DTD SVG 1.1//EN"
 "http://www.w3.org/Graphics/SVG/1.1/DTD/svg11.dtd">
<!-- Generated by graphviz version 2.40.1 (20161225.0304)
 -->
<!-- Title: compilerGDC.h Pages: 1 -->
<svg width="206pt" height="84pt"
 viewBox="0.00 0.00 205.50 84.00" xmlns="http://www.w3.org/2000/svg" xmlns:xlink="http://www.w3.org/1999/xlink">
<g id="graph0" class="graph" transform="scale(1 1) rotate(0) translate(4 80)">
<title>compilerGDC.h</title>
<!-- Node18 -->
<g id="node1" class="node">
<title>Node18</title>
<polygon fill="#bfbfbf" stroke="#000000" points="56.5,-56.5 56.5,-75.5 138.5,-75.5 138.5,-56.5 56.5,-56.5"/>
<text text-anchor="middle" x="97.5" y="-63.5" font-family="FreeSans" font-size="10.00" fill="#000000">compilerGDC.h</text>
</g>
<!-- Node19 -->
<g id="node2" class="node">
<title>Node19</title>
<g id="a_node2"><a xlink:href="compilergcc_8cpp" target="_top" xlink:title="compilergcc.cpp">
<polygon fill="none" stroke="#000000" points="0,-.5 0,-19.5 87,-19.5 87,-.5 0,-.5"/>
<text text-anchor="middle" x="43.5" y="-7.5" font-family="FreeSans" font-size="10.00" fill="#000000">compilergcc.cpp</text>
</a>
</g>
</g>
<!-- Node18&#45;&gt;Node19 -->
<g id="edge1" class="edge">
<title>Node18&#45;&gt;Node19</title>
<path fill="none" stroke="#191970" d="M80.9031,-48.7884C71.6653,-39.2085 60.5096,-27.6396 52.7983,-19.6427"/>
<polygon fill="#191970" stroke="#191970" points="78.6331,-51.4766 88.0939,-56.2455 83.672,-46.6176 78.6331,-51.4766"/>
</g>
<!-- Node20 -->
<g id="node3" class="node">
<title>Node20</title>
<g id="a_node3"><a xlink:href="compilerGDC_8cpp" target="_top" xlink:title="compilerGDC.cpp">
<polygon fill="none" stroke="#000000" points="105.5,-.5 105.5,-19.5 197.5,-19.5 197.5,-.5 105.5,-.5"/>
<text text-anchor="middle" x="151.5" y="-7.5" font-family="FreeSans" font-size="10.00" fill="#000000">compilerGDC.cpp</text>
</a>
</g>
</g>
<!-- Node18&#45;&gt;Node20 -->
<g id="edge2" class="edge">
<title>Node18&#45;&gt;Node20</title>
<path fill="none" stroke="#191970" d="M114.0969,-48.7884C123.3347,-39.2085 134.4904,-27.6396 142.2017,-19.6427"/>
<polygon fill="#191970" stroke="#191970" points="111.328,-46.6176 106.9061,-56.2455 116.3669,-51.4766 111.328,-46.6176"/>
</g>
</g>
</svg>
