<?xml version="1.0" encoding="UTF-8" standalone="no"?>
<!DOCTYPE svg PUBLIC "-//W3C//DTD SVG 1.1//EN"
 "http://www.w3.org/Graphics/SVG/1.1/DTD/svg11.dtd">
<!-- Generated by graphviz version 2.38.0 (20140413.2041)
 -->
<!-- Title: configmanager.cpp Pages: 1 -->
<svg width="2044pt" height="252pt"
 viewBox="0.00 0.00 2043.50 252.00" xmlns="http://www.w3.org/2000/svg" xmlns:xlink="http://www.w3.org/1999/xlink">
<g id="graph0" class="graph" transform="scale(1 1) rotate(0) translate(4 248)">
<title>configmanager.cpp</title>
<polygon fill="white" stroke="none" points="-4,4 -4,-248 2039.5,-248 2039.5,4 -4,4"/>
<!-- Node1 -->
<g id="node1" class="node"><title>Node1</title>
<polygon fill="#bfbfbf" stroke="black" points="1378,-224.5 1378,-243.5 1476,-243.5 1476,-224.5 1378,-224.5"/>
<text text-anchor="middle" x="1427" y="-231.5" font-family="FreeSans" font-size="10.00">configmanager.cpp</text>
</g>
<!-- Node2 -->
<g id="node2" class="node"><title>Node2</title>
<g id="a_node2"><a xlink:href="sdk__precomp_8h" target="_top" xlink:title="sdk_precomp.h">
<polygon fill="white" stroke="black" points="72,-168.5 72,-187.5 154,-187.5 154,-168.5 72,-168.5"/>
<text text-anchor="middle" x="113" y="-175.5" font-family="FreeSans" font-size="10.00">sdk_precomp.h</text>
</a>
</g>
</g>
<!-- Node1&#45;&gt;Node2 -->
<g id="edge1" class="edge"><title>Node1&#45;&gt;Node2</title>
<path fill="none" stroke="midnightblue" d="M1377.89,-231.218C1220.44,-225.467 714.01,-206.688 295,-188 250.99,-186.037 201.007,-183.547 164.571,-181.683"/>
<polygon fill="midnightblue" stroke="midnightblue" points="164.362,-178.168 154.196,-181.151 164.003,-185.159 164.362,-178.168"/>
</g>
<!-- Node6 -->
<g id="node6" class="node"><title>Node6</title>
<g id="a_node6"><a xlink:href="configmanager_8h" target="_top" xlink:title="configmanager.h">
<polygon fill="white" stroke="black" points="908.5,-168.5 908.5,-187.5 995.5,-187.5 995.5,-168.5 908.5,-168.5"/>
<text text-anchor="middle" x="952" y="-175.5" font-family="FreeSans" font-size="10.00">configmanager.h</text>
</a>
</g>
</g>
<!-- Node1&#45;&gt;Node6 -->
<g id="edge5" class="edge"><title>Node1&#45;&gt;Node6</title>
<path fill="none" stroke="midnightblue" d="M1377.96,-227.424C1288.28,-217.23 1098.57,-195.662 1005.61,-185.095"/>
<polygon fill="midnightblue" stroke="midnightblue" points="1005.91,-181.606 995.576,-183.954 1005.12,-188.561 1005.91,-181.606"/>
</g>
<!-- Node10 -->
<g id="node10" class="node"><title>Node10</title>
<g id="a_node10"><a xlink:href="globals_8h" target="_top" xlink:title="globals.h">
<polygon fill="white" stroke="black" points="1275,-112.5 1275,-131.5 1329,-131.5 1329,-112.5 1275,-112.5"/>
<text text-anchor="middle" x="1302" y="-119.5" font-family="FreeSans" font-size="10.00">globals.h</text>
</a>
</g>
</g>
<!-- Node1&#45;&gt;Node10 -->
<g id="edge39" class="edge"><title>Node1&#45;&gt;Node10</title>
<path fill="none" stroke="midnightblue" d="M1377.65,-232.704C1343.14,-229.582 1299.22,-219.143 1276,-188 1265.05,-173.313 1276.01,-153.39 1286.87,-139.486"/>
<polygon fill="midnightblue" stroke="midnightblue" points="1289.66,-141.61 1293.42,-131.708 1284.3,-137.099 1289.66,-141.61"/>
</g>
<!-- Node14 -->
<g id="node14" class="node"><title>Node14</title>
<polygon fill="white" stroke="#bfbfbf" points="1392,-56.5 1392,-75.5 1442,-75.5 1442,-56.5 1392,-56.5"/>
<text text-anchor="middle" x="1417" y="-63.5" font-family="FreeSans" font-size="10.00">wx/file.h</text>
</g>
<!-- Node1&#45;&gt;Node14 -->
<g id="edge55" class="edge"><title>Node1&#45;&gt;Node14</title>
<path fill="none" stroke="midnightblue" d="M1426.46,-224.075C1424.89,-197.945 1420.27,-121.211 1418.12,-85.577"/>
<polygon fill="midnightblue" stroke="midnightblue" points="1421.61,-85.3395 1417.52,-75.5681 1414.62,-85.7605 1421.61,-85.3395"/>
</g>
<!-- Node15 -->
<g id="node15" class="node"><title>Node15</title>
<polygon fill="white" stroke="#bfbfbf" points="1460,-56.5 1460,-75.5 1534,-75.5 1534,-56.5 1460,-56.5"/>
<text text-anchor="middle" x="1497" y="-63.5" font-family="FreeSans" font-size="10.00">wx/filename.h</text>
</g>
<!-- Node1&#45;&gt;Node15 -->
<g id="edge64" class="edge"><title>Node1&#45;&gt;Node15</title>
<path fill="none" stroke="midnightblue" d="M1430.76,-224.075C1441.83,-197.832 1474.42,-120.545 1489.36,-85.1165"/>
<polygon fill="midnightblue" stroke="midnightblue" points="1492.73,-86.1423 1493.39,-75.5681 1486.28,-83.4224 1492.73,-86.1423"/>
</g>
<!-- Node30 -->
<g id="node30" class="node"><title>Node30</title>
<g id="a_node30"><a xlink:href="personalitymanager_8h" target="_top" xlink:title="personalitymanager.h">
<polygon fill="white" stroke="black" points="304.5,-168.5 304.5,-187.5 411.5,-187.5 411.5,-168.5 304.5,-168.5"/>
<text text-anchor="middle" x="358" y="-175.5" font-family="FreeSans" font-size="10.00">personalitymanager.h</text>
</a>
</g>
</g>
<!-- Node1&#45;&gt;Node30 -->
<g id="edge40" class="edge"><title>Node1&#45;&gt;Node30</title>
<path fill="none" stroke="midnightblue" d="M1377.85,-231.013C1238.41,-225.296 828.317,-207.933 488,-188 466.456,-186.738 442.918,-185.167 421.863,-183.692"/>
<polygon fill="midnightblue" stroke="midnightblue" points="421.967,-180.191 411.745,-182.978 421.474,-187.174 421.967,-180.191"/>
</g>
<!-- Node32 -->
<g id="node32" class="node"><title>Node32</title>
<g id="a_node32"><a xlink:href="cbexception_8h" target="_top" xlink:title="cbexception.h">
<polygon fill="white" stroke="black" points="1285,-168.5 1285,-187.5 1361,-187.5 1361,-168.5 1285,-168.5"/>
<text text-anchor="middle" x="1323" y="-175.5" font-family="FreeSans" font-size="10.00">cbexception.h</text>
</a>
</g>
</g>
<!-- Node1&#45;&gt;Node32 -->
<g id="edge44" class="edge"><title>Node1&#45;&gt;Node32</title>
<path fill="none" stroke="midnightblue" d="M1410.29,-224.324C1393.69,-215.703 1368,-202.364 1348.78,-192.386"/>
<polygon fill="midnightblue" stroke="midnightblue" points="1350.16,-189.156 1339.67,-187.655 1346.93,-195.369 1350.16,-189.156"/>
</g>
<!-- Node33 -->
<g id="node33" class="node"><title>Node33</title>
<polygon fill="white" stroke="#bfbfbf" points="1347.5,-112.5 1347.5,-131.5 1398.5,-131.5 1398.5,-112.5 1347.5,-112.5"/>
<text text-anchor="middle" x="1373" y="-119.5" font-family="FreeSans" font-size="10.00">wx/log.h</text>
</g>
<!-- Node1&#45;&gt;Node33 -->
<g id="edge57" class="edge"><title>Node1&#45;&gt;Node33</title>
<path fill="none" stroke="midnightblue" d="M1422.76,-224.368C1413.93,-206.376 1393.4,-164.55 1381.65,-140.627"/>
<polygon fill="midnightblue" stroke="midnightblue" points="1384.77,-139.026 1377.22,-131.591 1378.48,-142.11 1384.77,-139.026"/>
</g>
<!-- Node34 -->
<g id="node34" class="node"><title>Node34</title>
<g id="a_node34"><a xlink:href="logmanager_8h" target="_top" xlink:title="logmanager.h">
<polygon fill="white" stroke="black" points="497,-168.5 497,-187.5 571,-187.5 571,-168.5 497,-168.5"/>
<text text-anchor="middle" x="534" y="-175.5" font-family="FreeSans" font-size="10.00">logmanager.h</text>
</a>
</g>
</g>
<!-- Node1&#45;&gt;Node34 -->
<g id="edge48" class="edge"><title>Node1&#45;&gt;Node34</title>
<path fill="none" stroke="midnightblue" d="M1377.72,-230.02C1220.98,-220.542 735.311,-191.173 581.338,-181.863"/>
<polygon fill="midnightblue" stroke="midnightblue" points="581.45,-178.363 571.257,-181.253 581.028,-185.35 581.45,-178.363"/>
</g>
<!-- Node36 -->
<g id="node36" class="node"><title>Node36</title>
<polygon fill="white" stroke="#bfbfbf" points="1493.5,-168.5 1493.5,-187.5 1542.5,-187.5 1542.5,-168.5 1493.5,-168.5"/>
<text text-anchor="middle" x="1518" y="-175.5" font-family="FreeSans" font-size="10.00">wx/dir.h</text>
</g>
<!-- Node1&#45;&gt;Node36 -->
<g id="edge56" class="edge"><title>Node1&#45;&gt;Node36</title>
<path fill="none" stroke="midnightblue" d="M1441.62,-224.324C1455.95,-215.822 1478.01,-202.729 1494.75,-192.797"/>
<polygon fill="midnightblue" stroke="midnightblue" points="1496.6,-195.768 1503.42,-187.655 1493.03,-189.748 1496.6,-195.768"/>
</g>
<!-- Node37 -->
<g id="node37" class="node"><title>Node37</title>
<g id="a_node37"><a xlink:href="crc32_8h" target="_top" xlink:title="crc32.h">
<polygon fill="white" stroke="black" points="622,-112.5 622,-131.5 670,-131.5 670,-112.5 622,-112.5"/>
<text text-anchor="middle" x="646" y="-119.5" font-family="FreeSans" font-size="10.00">crc32.h</text>
</a>
</g>
</g>
<!-- Node1&#45;&gt;Node37 -->
<g id="edge58" class="edge"><title>Node1&#45;&gt;Node37</title>
<path fill="none" stroke="midnightblue" d="M1377.88,-231.541C1284.17,-228.157 1073.6,-217.656 899,-188 819.275,-174.458 727.864,-148.245 679.728,-133.583"/>
<polygon fill="midnightblue" stroke="midnightblue" points="680.72,-130.226 670.133,-130.638 678.666,-136.918 680.72,-130.226"/>
</g>
<!-- Node38 -->
<g id="node38" class="node"><title>Node38</title>
<polygon fill="white" stroke="#bfbfbf" points="1560.5,-168.5 1560.5,-187.5 1609.5,-187.5 1609.5,-168.5 1560.5,-168.5"/>
<text text-anchor="middle" x="1585" y="-175.5" font-family="FreeSans" font-size="10.00">wx/url.h</text>
</g>
<!-- Node1&#45;&gt;Node38 -->
<g id="edge61" class="edge"><title>Node1&#45;&gt;Node38</title>
<path fill="none" stroke="midnightblue" d="M1452.04,-224.444C1478.69,-215.332 1521.06,-200.854 1550.79,-190.694"/>
<polygon fill="midnightblue" stroke="midnightblue" points="1552.01,-193.974 1560.34,-187.428 1549.75,-187.35 1552.01,-193.974"/>
</g>
<!-- Node39 -->
<g id="node39" class="node"><title>Node39</title>
<polygon fill="white" stroke="#bfbfbf" points="1628,-168.5 1628,-187.5 1696,-187.5 1696,-168.5 1628,-168.5"/>
<text text-anchor="middle" x="1662" y="-175.5" font-family="FreeSans" font-size="10.00">wx/stream.h</text>
</g>
<!-- Node1&#45;&gt;Node39 -->
<g id="edge62" class="edge"><title>Node1&#45;&gt;Node39</title>
<path fill="none" stroke="midnightblue" d="M1464.24,-224.444C1506.02,-214.842 1573.74,-199.28 1618.08,-189.093"/>
<polygon fill="midnightblue" stroke="midnightblue" points="1619.03,-192.466 1627.99,-186.815 1617.46,-185.644 1619.03,-192.466"/>
</g>
<!-- Node40 -->
<g id="node40" class="node"><title>Node40</title>
<polygon fill="white" stroke="#bfbfbf" points="1714,-168.5 1714,-187.5 1788,-187.5 1788,-168.5 1714,-168.5"/>
<text text-anchor="middle" x="1751" y="-175.5" font-family="FreeSans" font-size="10.00">wx/stdpaths.h</text>
</g>
<!-- Node1&#45;&gt;Node40 -->
<g id="edge63" class="edge"><title>Node1&#45;&gt;Node40</title>
<path fill="none" stroke="midnightblue" d="M1476.3,-225.519C1529.87,-217.278 1618.24,-203.359 1703.97,-188.14"/>
<polygon fill="midnightblue" stroke="midnightblue" points="1704.63,-191.576 1713.86,-186.374 1703.4,-184.685 1704.63,-191.576"/>
</g>
<!-- Node41 -->
<g id="node41" class="node"><title>Node41</title>
<polygon fill="white" stroke="#bfbfbf" points="1806.5,-168.5 1806.5,-187.5 1855.5,-187.5 1855.5,-168.5 1806.5,-168.5"/>
<text text-anchor="middle" x="1831" y="-175.5" font-family="FreeSans" font-size="10.00">shlobj.h</text>
</g>
<!-- Node1&#45;&gt;Node41 -->
<g id="edge65" class="edge"><title>Node1&#45;&gt;Node41</title>
<path fill="none" stroke="midnightblue" d="M1476.11,-229.195C1545.35,-223.355 1675.72,-210.616 1796.08,-187.922"/>
<polygon fill="midnightblue" stroke="midnightblue" points="1797.04,-191.302 1806.21,-185.985 1795.73,-184.426 1797.04,-191.302"/>
</g>
<!-- Node42 -->
<g id="node42" class="node"><title>Node42</title>
<polygon fill="white" stroke="#bfbfbf" points="1874,-168.5 1874,-187.5 1970,-187.5 1970,-168.5 1874,-168.5"/>
<text text-anchor="middle" x="1922" y="-175.5" font-family="FreeSans" font-size="10.00">tinyxml/tinywxuni.h</text>
</g>
<!-- Node1&#45;&gt;Node42 -->
<g id="edge66" class="edge"><title>Node1&#45;&gt;Node42</title>
<path fill="none" stroke="midnightblue" d="M1476.25,-228.759C1557.27,-221.596 1723.68,-206.099 1864,-188 1864.1,-187.987 1864.2,-187.974 1864.3,-187.961"/>
<polygon fill="midnightblue" stroke="midnightblue" points="1864.48,-191.469 1873.92,-186.655 1863.54,-184.532 1864.48,-191.469"/>
</g>
<!-- Node43 -->
<g id="node43" class="node"><title>Node43</title>
<polygon fill="white" stroke="#bfbfbf" points="1988.5,-168.5 1988.5,-187.5 2035.5,-187.5 2035.5,-168.5 1988.5,-168.5"/>
<text text-anchor="middle" x="2012" y="-175.5" font-family="FreeSans" font-size="10.00">stdlib.h</text>
</g>
<!-- Node1&#45;&gt;Node43 -->
<g id="edge67" class="edge"><title>Node1&#45;&gt;Node43</title>
<path fill="none" stroke="midnightblue" d="M1476.12,-232.036C1571.35,-229.51 1787.72,-220.569 1978.4,-187.753"/>
<polygon fill="midnightblue" stroke="midnightblue" points="1979.08,-191.188 1988.33,-186.02 1977.87,-184.293 1979.08,-191.188"/>
</g>
<!-- Node3 -->
<g id="node3" class="node"><title>Node3</title>
<g id="a_node3"><a xlink:href="sdk__common_8h" target="_top" xlink:title="sdk_common.h">
<polygon fill="white" stroke="black" points="0,-112.5 0,-131.5 82,-131.5 82,-112.5 0,-112.5"/>
<text text-anchor="middle" x="41" y="-119.5" font-family="FreeSans" font-size="10.00">sdk_common.h</text>
</a>
</g>
</g>
<!-- Node2&#45;&gt;Node3 -->
<g id="edge2" class="edge"><title>Node2&#45;&gt;Node3</title>
<path fill="none" stroke="midnightblue" d="M101.432,-168.324C90.5798,-160.185 74.1193,-147.839 61.1166,-138.087"/>
<polygon fill="midnightblue" stroke="midnightblue" points="62.8786,-135.034 52.7785,-131.834 58.6785,-140.634 62.8786,-135.034"/>
</g>
<!-- Node4 -->
<g id="node4" class="node"><title>Node4</title>
<polygon fill="white" stroke="#bfbfbf" points="7,-56.5 7,-75.5 75,-75.5 75,-56.5 7,-56.5"/>
<text text-anchor="middle" x="41" y="-63.5" font-family="FreeSans" font-size="10.00">wx/wxprec.h</text>
</g>
<!-- Node3&#45;&gt;Node4 -->
<g id="edge3" class="edge"><title>Node3&#45;&gt;Node4</title>
<path fill="none" stroke="midnightblue" d="M41,-112.083C41,-105.006 41,-94.8611 41,-85.9865"/>
<polygon fill="midnightblue" stroke="midnightblue" points="44.5001,-85.751 41,-75.7511 37.5001,-85.7511 44.5001,-85.751"/>
</g>
<!-- Node5 -->
<g id="node5" class="node"><title>Node5</title>
<g id="a_node5"><a xlink:href="prep_8h" target="_top" xlink:title="prep.h">
<polygon fill="white" stroke="black" points="232.5,-0.5 232.5,-19.5 275.5,-19.5 275.5,-0.5 232.5,-0.5"/>
<text text-anchor="middle" x="254" y="-7.5" font-family="FreeSans" font-size="10.00">prep.h</text>
</a>
</g>
</g>
<!-- Node3&#45;&gt;Node5 -->
<g id="edge4" class="edge"><title>Node3&#45;&gt;Node5</title>
<path fill="none" stroke="midnightblue" d="M57.7138,-112.368C94.809,-93.2113 184.222,-47.0355 228.407,-24.2172"/>
<polygon fill="midnightblue" stroke="midnightblue" points="230.085,-27.2898 237.364,-19.5914 226.873,-21.0702 230.085,-27.2898"/>
</g>
<!-- Node7 -->
<g id="node7" class="node"><title>Node7</title>
<polygon fill="white" stroke="#bfbfbf" points="726.5,-112.5 726.5,-131.5 803.5,-131.5 803.5,-112.5 726.5,-112.5"/>
<text text-anchor="middle" x="765" y="-119.5" font-family="FreeSans" font-size="10.00">wx/hashmap.h</text>
</g>
<!-- Node6&#45;&gt;Node7 -->
<g id="edge6" class="edge"><title>Node6&#45;&gt;Node7</title>
<path fill="none" stroke="midnightblue" d="M922.369,-168.444C890.5,-159.241 839.667,-144.562 804.436,-134.388"/>
<polygon fill="midnightblue" stroke="midnightblue" points="805.071,-130.928 794.492,-131.516 803.128,-137.653 805.071,-130.928"/>
</g>
<!-- Node8 -->
<g id="node8" class="node"><title>Node8</title>
<polygon fill="white" stroke="#bfbfbf" points="821.5,-112.5 821.5,-131.5 892.5,-131.5 892.5,-112.5 821.5,-112.5"/>
<text text-anchor="middle" x="857" y="-119.5" font-family="FreeSans" font-size="10.00">wx/hashset.h</text>
</g>
<!-- Node6&#45;&gt;Node8 -->
<g id="edge7" class="edge"><title>Node6&#45;&gt;Node8</title>
<path fill="none" stroke="midnightblue" d="M936.737,-168.324C921.779,-159.822 898.745,-146.729 881.273,-136.797"/>
<polygon fill="midnightblue" stroke="midnightblue" points="882.649,-133.553 872.226,-131.655 879.19,-139.639 882.649,-133.553"/>
</g>
<!-- Node9 -->
<g id="node9" class="node"><title>Node9</title>
<g id="a_node9"><a xlink:href="settings_8h" target="_top" xlink:title="settings.h">
<polygon fill="white" stroke="black" points="612.5,-0.5 612.5,-19.5 669.5,-19.5 669.5,-0.5 612.5,-0.5"/>
<text text-anchor="middle" x="641" y="-7.5" font-family="FreeSans" font-size="10.00">settings.h</text>
</a>
</g>
</g>
<!-- Node6&#45;&gt;Node9 -->
<g id="edge8" class="edge"><title>Node6&#45;&gt;Node9</title>
<path fill="none" stroke="midnightblue" d="M908.356,-170.567C844.797,-160.911 732.604,-142.666 717,-132 679.92,-106.655 657.275,-56.6366 647.193,-29.5225"/>
<polygon fill="midnightblue" stroke="midnightblue" points="650.37,-28.0061 643.737,-19.7442 643.77,-30.339 650.37,-28.0061"/>
</g>
<!-- Node6&#45;&gt;Node10 -->
<g id="edge9" class="edge"><title>Node6&#45;&gt;Node10</title>
<path fill="none" stroke="midnightblue" d="M995.62,-170.27C1065.05,-159.557 1199.52,-138.812 1264.73,-128.75"/>
<polygon fill="midnightblue" stroke="midnightblue" points="1265.6,-132.157 1274.95,-127.173 1264.54,-125.239 1265.6,-132.157"/>
</g>
<!-- Node19 -->
<g id="node19" class="node"><title>Node19</title>
<polygon fill="white" stroke="#bfbfbf" points="910.5,-112.5 910.5,-131.5 993.5,-131.5 993.5,-112.5 910.5,-112.5"/>
<text text-anchor="middle" x="952" y="-119.5" font-family="FreeSans" font-size="10.00">tinyxml/tinystr.h</text>
</g>
<!-- Node6&#45;&gt;Node19 -->
<g id="edge19" class="edge"><title>Node6&#45;&gt;Node19</title>
<path fill="none" stroke="midnightblue" d="M952,-168.083C952,-161.006 952,-150.861 952,-141.986"/>
<polygon fill="midnightblue" stroke="midnightblue" points="955.5,-141.751 952,-131.751 948.5,-141.751 955.5,-141.751"/>
</g>
<!-- Node20 -->
<g id="node20" class="node"><title>Node20</title>
<polygon fill="white" stroke="#bfbfbf" points="1011.5,-112.5 1011.5,-131.5 1098.5,-131.5 1098.5,-112.5 1011.5,-112.5"/>
<text text-anchor="middle" x="1055" y="-119.5" font-family="FreeSans" font-size="10.00">tinyxml/tinyxml.h</text>
</g>
<!-- Node6&#45;&gt;Node20 -->
<g id="edge20" class="edge"><title>Node6&#45;&gt;Node20</title>
<path fill="none" stroke="midnightblue" d="M968.549,-168.324C984.992,-159.703 1010.43,-146.364 1029.47,-136.386"/>
<polygon fill="midnightblue" stroke="midnightblue" points="1031.26,-139.398 1038.49,-131.655 1028.01,-133.198 1031.26,-139.398"/>
</g>
<!-- Node21 -->
<g id="node21" class="node"><title>Node21</title>
<g id="a_node21"><a xlink:href="manager_8h" target="_top" xlink:title="manager.h">
<polygon fill="white" stroke="black" points="398,-112.5 398,-131.5 460,-131.5 460,-112.5 398,-112.5"/>
<text text-anchor="middle" x="429" y="-119.5" font-family="FreeSans" font-size="10.00">manager.h</text>
</a>
</g>
</g>
<!-- Node6&#45;&gt;Node21 -->
<g id="edge21" class="edge"><title>Node6&#45;&gt;Node21</title>
<path fill="none" stroke="midnightblue" d="M908.275,-172.617C829.184,-164.67 657.093,-147.286 512,-132 498.465,-130.574 483.693,-128.983 470.412,-127.541"/>
<polygon fill="midnightblue" stroke="midnightblue" points="470.452,-124.024 460.132,-126.421 469.694,-130.983 470.452,-124.024"/>
</g>
<!-- Node22 -->
<g id="node22" class="node"><title>Node22</title>
<polygon fill="white" stroke="#bfbfbf" points="520.5,-56.5 520.5,-75.5 555.5,-75.5 555.5,-56.5 520.5,-56.5"/>
<text text-anchor="middle" x="538" y="-63.5" font-family="FreeSans" font-size="10.00">map</text>
</g>
<!-- Node6&#45;&gt;Node22 -->
<g id="edge37" class="edge"><title>Node6&#45;&gt;Node22</title>
<path fill="none" stroke="midnightblue" d="M908.325,-175.215C808.51,-170.71 570.318,-157.39 545,-132 533.121,-120.088 532.651,-100.18 534.361,-85.5288"/>
<polygon fill="midnightblue" stroke="midnightblue" points="537.831,-85.9937 535.94,-75.5689 530.917,-84.8973 537.831,-85.9937"/>
</g>
<!-- Node27 -->
<g id="node27" class="node"><title>Node27</title>
<g id="a_node27"><a xlink:href="base64_8h" target="_top" xlink:title="base64.h">
<polygon fill="white" stroke="black" points="1163.5,-112.5 1163.5,-131.5 1218.5,-131.5 1218.5,-112.5 1163.5,-112.5"/>
<text text-anchor="middle" x="1191" y="-119.5" font-family="FreeSans" font-size="10.00">base64.h</text>
</a>
</g>
</g>
<!-- Node6&#45;&gt;Node27 -->
<g id="edge33" class="edge"><title>Node6&#45;&gt;Node27</title>
<path fill="none" stroke="midnightblue" d="M991.532,-168.431C1030.22,-159.992 1091.09,-146.575 1153.16,-132.161"/>
<polygon fill="midnightblue" stroke="midnightblue" points="1154.19,-135.516 1163.13,-129.84 1152.6,-128.699 1154.19,-135.516"/>
</g>
<!-- Node29 -->
<g id="node29" class="node"><title>Node29</title>
<polygon fill="white" stroke="#bfbfbf" points="1116.5,-112.5 1116.5,-131.5 1145.5,-131.5 1145.5,-112.5 1116.5,-112.5"/>
<text text-anchor="middle" x="1131" y="-119.5" font-family="FreeSans" font-size="10.00">set</text>
</g>
<!-- Node6&#45;&gt;Node29 -->
<g id="edge38" class="edge"><title>Node6&#45;&gt;Node29</title>
<path fill="none" stroke="midnightblue" d="M983.982,-168.482C1013.51,-160.449 1058.75,-147.717 1106.71,-131.903"/>
<polygon fill="midnightblue" stroke="midnightblue" points="1107.96,-135.178 1116.34,-128.7 1105.75,-128.537 1107.96,-135.178"/>
</g>
<!-- Node10&#45;&gt;Node9 -->
<g id="edge18" class="edge"><title>Node10&#45;&gt;Node9</title>
<path fill="none" stroke="midnightblue" d="M1274.9,-115.158C1269.94,-114.1 1264.82,-113.011 1260,-112 1182.29,-95.6809 1159.76,-102.756 1085,-76 1067.03,-69.5691 1065.25,-61.5932 1047,-56 916.618,-16.0346 753.035,-10.719 679.692,-10.5483"/>
<polygon fill="midnightblue" stroke="midnightblue" points="679.538,-7.04837 669.541,-10.557 679.544,-14.0484 679.538,-7.04837"/>
</g>
<!-- Node11 -->
<g id="node11" class="node"><title>Node11</title>
<polygon fill="white" stroke="#bfbfbf" points="736.5,-56.5 736.5,-75.5 779.5,-75.5 779.5,-56.5 736.5,-56.5"/>
<text text-anchor="middle" x="758" y="-63.5" font-family="FreeSans" font-size="10.00">vector</text>
</g>
<!-- Node10&#45;&gt;Node11 -->
<g id="edge10" class="edge"><title>Node10&#45;&gt;Node11</title>
<path fill="none" stroke="midnightblue" d="M1274.94,-117.557C1260.69,-115.793 1242.91,-113.67 1227,-112 1049.48,-93.3645 1004.42,-95.5472 827,-76 814.864,-74.663 801.557,-72.979 789.894,-71.4303"/>
<polygon fill="midnightblue" stroke="midnightblue" points="790.105,-67.9271 779.727,-70.06 789.17,-74.8644 790.105,-67.9271"/>
</g>
<!-- Node12 -->
<g id="node12" class="node"><title>Node12</title>
<polygon fill="white" stroke="#bfbfbf" points="976,-56.5 976,-75.5 1038,-75.5 1038,-56.5 976,-56.5"/>
<text text-anchor="middle" x="1007" y="-63.5" font-family="FreeSans" font-size="10.00">wx/string.h</text>
</g>
<!-- Node10&#45;&gt;Node12 -->
<g id="edge11" class="edge"><title>Node10&#45;&gt;Node12</title>
<path fill="none" stroke="midnightblue" d="M1274.69,-114.824C1270.13,-113.844 1265.43,-112.868 1261,-112 1168.5,-93.8906 1144.67,-93.2442 1052,-76 1050.9,-75.7959 1049.79,-75.5873 1048.67,-75.3751"/>
<polygon fill="midnightblue" stroke="midnightblue" points="1048.93,-71.8611 1038.45,-73.4018 1047.61,-78.7341 1048.93,-71.8611"/>
</g>
<!-- Node13 -->
<g id="node13" class="node"><title>Node13</title>
<polygon fill="white" stroke="#bfbfbf" points="1094,-56.5 1094,-75.5 1162,-75.5 1162,-56.5 1094,-56.5"/>
<text text-anchor="middle" x="1128" y="-63.5" font-family="FreeSans" font-size="10.00">wx/treectrl.h</text>
</g>
<!-- Node10&#45;&gt;Node13 -->
<g id="edge12" class="edge"><title>Node10&#45;&gt;Node13</title>
<path fill="none" stroke="midnightblue" d="M1274.81,-112.562C1245.36,-103.423 1198.19,-88.7821 1165.29,-78.5719"/>
<polygon fill="midnightblue" stroke="midnightblue" points="1166.16,-75.1778 1155.57,-75.5565 1164.08,-81.8632 1166.16,-75.1778"/>
</g>
<!-- Node10&#45;&gt;Node14 -->
<g id="edge13" class="edge"><title>Node10&#45;&gt;Node14</title>
<path fill="none" stroke="midnightblue" d="M1320.22,-112.444C1338.9,-103.675 1368.16,-89.9355 1389.62,-79.8579"/>
<polygon fill="midnightblue" stroke="midnightblue" points="1391.3,-82.935 1398.86,-75.5164 1388.32,-76.5988 1391.3,-82.935"/>
</g>
<!-- Node10&#45;&gt;Node15 -->
<g id="edge14" class="edge"><title>Node10&#45;&gt;Node15</title>
<path fill="none" stroke="midnightblue" d="M1329.11,-113.492C1362.16,-104.34 1418.31,-88.7922 1456.49,-78.219"/>
<polygon fill="midnightblue" stroke="midnightblue" points="1457.56,-81.5537 1466.26,-75.5118 1455.69,-74.8076 1457.56,-81.5537"/>
</g>
<!-- Node16 -->
<g id="node16" class="node"><title>Node16</title>
<polygon fill="white" stroke="#bfbfbf" points="1022.5,-0.5 1022.5,-19.5 1073.5,-19.5 1073.5,-0.5 1022.5,-0.5"/>
<text text-anchor="middle" x="1048" y="-7.5" font-family="FreeSans" font-size="10.00">wx/intl.h</text>
</g>
<!-- Node10&#45;&gt;Node16 -->
<g id="edge15" class="edge"><title>Node10&#45;&gt;Node16</title>
<path fill="none" stroke="midnightblue" d="M1315.02,-112.313C1332.86,-99.3734 1360.97,-74.5691 1345,-56 1311.69,-17.2603 1155.38,-11.4606 1083.87,-10.8716"/>
<polygon fill="midnightblue" stroke="midnightblue" points="1083.57,-7.37009 1073.56,-10.8183 1083.54,-14.37 1083.57,-7.37009"/>
</g>
<!-- Node17 -->
<g id="node17" class="node"><title>Node17</title>
<polygon fill="white" stroke="#bfbfbf" points="1180.5,-56.5 1180.5,-75.5 1249.5,-75.5 1249.5,-56.5 1180.5,-56.5"/>
<text text-anchor="middle" x="1215" y="-63.5" font-family="FreeSans" font-size="10.00">wx/msgdlg.h</text>
</g>
<!-- Node10&#45;&gt;Node17 -->
<g id="edge16" class="edge"><title>Node10&#45;&gt;Node17</title>
<path fill="none" stroke="midnightblue" d="M1288.02,-112.324C1274.45,-103.9 1253.62,-90.9709 1237.68,-81.0741"/>
<polygon fill="midnightblue" stroke="midnightblue" points="1239.29,-77.9544 1228.94,-75.6545 1235.59,-83.9019 1239.29,-77.9544"/>
</g>
<!-- Node18 -->
<g id="node18" class="node"><title>Node18</title>
<polygon fill="white" stroke="#bfbfbf" points="1268,-56.5 1268,-75.5 1336,-75.5 1336,-56.5 1268,-56.5"/>
<text text-anchor="middle" x="1302" y="-63.5" font-family="FreeSans" font-size="10.00">wx/bitmap.h</text>
</g>
<!-- Node10&#45;&gt;Node18 -->
<g id="edge17" class="edge"><title>Node10&#45;&gt;Node18</title>
<path fill="none" stroke="midnightblue" d="M1302,-112.083C1302,-105.006 1302,-94.8611 1302,-85.9865"/>
<polygon fill="midnightblue" stroke="midnightblue" points="1305.5,-85.751 1302,-75.7511 1298.5,-85.7511 1305.5,-85.751"/>
</g>
<!-- Node21&#45;&gt;Node9 -->
<g id="edge26" class="edge"><title>Node21&#45;&gt;Node9</title>
<path fill="none" stroke="midnightblue" d="M437.856,-112.282C452.154,-98.6222 481.694,-72.0766 511,-56 540.151,-40.0083 576.041,-28.1017 602.721,-20.5664"/>
<polygon fill="midnightblue" stroke="midnightblue" points="603.744,-23.9149 612.461,-17.893 601.892,-17.1645 603.744,-23.9149"/>
</g>
<!-- Node21&#45;&gt;Node11 -->
<g id="edge23" class="edge"><title>Node21&#45;&gt;Node11</title>
<path fill="none" stroke="midnightblue" d="M460.248,-115.871C522.87,-105.593 663.117,-82.5735 726.196,-72.2202"/>
<polygon fill="midnightblue" stroke="midnightblue" points="727.037,-75.6289 736.338,-70.5554 725.904,-68.7214 727.037,-75.6289"/>
</g>
<!-- Node21&#45;&gt;Node22 -->
<g id="edge22" class="edge"><title>Node21&#45;&gt;Node22</title>
<path fill="none" stroke="midnightblue" d="M446.513,-112.324C464.072,-103.625 491.331,-90.1202 511.531,-80.113"/>
<polygon fill="midnightblue" stroke="midnightblue" points="513.124,-83.23 520.531,-75.6545 510.016,-76.9575 513.124,-83.23"/>
</g>
<!-- Node23 -->
<g id="node23" class="node"><title>Node23</title>
<polygon fill="white" stroke="#bfbfbf" points="118,-0.5 118,-19.5 180,-19.5 180,-0.5 118,-0.5"/>
<text text-anchor="middle" x="149" y="-7.5" font-family="FreeSans" font-size="10.00">wx/event.h</text>
</g>
<!-- Node21&#45;&gt;Node23 -->
<g id="edge24" class="edge"><title>Node21&#45;&gt;Node23</title>
<path fill="none" stroke="midnightblue" d="M397.76,-120.541C353.123,-118.625 269.781,-110.284 209,-76 188.396,-64.3784 170.865,-43.2103 160.168,-28.191"/>
<polygon fill="midnightblue" stroke="midnightblue" points="162.952,-26.0614 154.424,-19.7742 157.17,-30.0071 162.952,-26.0614"/>
</g>
<!-- Node24 -->
<g id="node24" class="node"><title>Node24</title>
<polygon fill="white" stroke="#bfbfbf" points="308,-56.5 308,-75.5 380,-75.5 380,-56.5 308,-56.5"/>
<text text-anchor="middle" x="344" y="-63.5" font-family="FreeSans" font-size="10.00">wx/cmdline.h</text>
</g>
<!-- Node21&#45;&gt;Node24 -->
<g id="edge25" class="edge"><title>Node21&#45;&gt;Node24</title>
<path fill="none" stroke="midnightblue" d="M415.343,-112.324C402.084,-103.9 381.732,-90.9709 366.154,-81.0741"/>
<polygon fill="midnightblue" stroke="midnightblue" points="367.94,-78.0626 357.623,-75.6545 364.187,-83.9711 367.94,-78.0626"/>
</g>
<!-- Node25 -->
<g id="node25" class="node"><title>Node25</title>
<g id="a_node25"><a xlink:href="sdk__events_8h" target="_top" xlink:title="sdk_events.h">
<polygon fill="white" stroke="black" points="218,-56.5 218,-75.5 290,-75.5 290,-56.5 218,-56.5"/>
<text text-anchor="middle" x="254" y="-63.5" font-family="FreeSans" font-size="10.00">sdk_events.h</text>
</a>
</g>
</g>
<!-- Node21&#45;&gt;Node25 -->
<g id="edge27" class="edge"><title>Node21&#45;&gt;Node25</title>
<path fill="none" stroke="midnightblue" d="M401.271,-112.444C371.574,-103.28 324.284,-88.6876 291.331,-78.5192"/>
<polygon fill="midnightblue" stroke="midnightblue" points="292.187,-75.1206 281.6,-75.5164 290.123,-81.8094 292.187,-75.1206"/>
</g>
<!-- Node26 -->
<g id="node26" class="node"><title>Node26</title>
<g id="a_node26"><a xlink:href="cbfunctor_8h" target="_top" xlink:title="cbfunctor.h">
<polygon fill="white" stroke="black" points="398.5,-56.5 398.5,-75.5 463.5,-75.5 463.5,-56.5 398.5,-56.5"/>
<text text-anchor="middle" x="431" y="-63.5" font-family="FreeSans" font-size="10.00">cbfunctor.h</text>
</a>
</g>
</g>
<!-- Node21&#45;&gt;Node26 -->
<g id="edge32" class="edge"><title>Node21&#45;&gt;Node26</title>
<path fill="none" stroke="midnightblue" d="M429.33,-112.083C429.592,-105.006 429.968,-94.8611 430.297,-85.9865"/>
<polygon fill="midnightblue" stroke="midnightblue" points="433.803,-85.8738 430.676,-75.7511 426.808,-85.6147 433.803,-85.8738"/>
</g>
<!-- Node25&#45;&gt;Node5 -->
<g id="edge31" class="edge"><title>Node25&#45;&gt;Node5</title>
<path fill="none" stroke="midnightblue" d="M254,-56.083C254,-49.0059 254,-38.8611 254,-29.9865"/>
<polygon fill="midnightblue" stroke="midnightblue" points="257.5,-29.751 254,-19.7511 250.5,-29.7511 257.5,-29.751"/>
</g>
<!-- Node25&#45;&gt;Node9 -->
<g id="edge30" class="edge"><title>Node25&#45;&gt;Node9</title>
<path fill="none" stroke="midnightblue" d="M290.311,-57.5221C293.247,-56.9834 296.17,-56.4686 299,-56 408.414,-37.8809 538.499,-22.4277 602.091,-15.2652"/>
<polygon fill="midnightblue" stroke="midnightblue" points="602.53,-18.738 612.078,-14.147 601.751,-11.7815 602.53,-18.738"/>
</g>
<!-- Node25&#45;&gt;Node16 -->
<g id="edge29" class="edge"><title>Node25&#45;&gt;Node16</title>
<path fill="none" stroke="midnightblue" d="M290.278,-57.2995C293.221,-56.8107 296.156,-56.3681 299,-56 571.874,-20.6854 904.339,-13.0115 1012.31,-11.4074"/>
<polygon fill="midnightblue" stroke="midnightblue" points="1012.39,-14.9067 1022.34,-11.2665 1012.29,-7.9074 1012.39,-14.9067"/>
</g>
<!-- Node25&#45;&gt;Node23 -->
<g id="edge28" class="edge"><title>Node25&#45;&gt;Node23</title>
<path fill="none" stroke="midnightblue" d="M237.13,-56.324C220.291,-47.6641 194.193,-34.2424 174.762,-24.249"/>
<polygon fill="midnightblue" stroke="midnightblue" points="176.322,-21.1155 165.828,-19.6545 173.12,-27.3405 176.322,-21.1155"/>
</g>
<!-- Node27&#45;&gt;Node9 -->
<g id="edge36" class="edge"><title>Node27&#45;&gt;Node9</title>
<path fill="none" stroke="midnightblue" d="M1163.15,-114.073C1160.07,-113.352 1156.97,-112.647 1154,-112 1071.3,-93.9927 1049.17,-96.3002 967,-76 937.244,-68.6485 930.824,-63.0714 901,-56 823.227,-37.5596 730.692,-23.3521 679.644,-16.1735"/>
<polygon fill="midnightblue" stroke="midnightblue" points="680.09,-12.7019 669.703,-14.7909 679.125,-19.6352 680.09,-12.7019"/>
</g>
<!-- Node27&#45;&gt;Node12 -->
<g id="edge35" class="edge"><title>Node27&#45;&gt;Node12</title>
<path fill="none" stroke="midnightblue" d="M1163.45,-112.916C1132.34,-103.784 1081.46,-88.8514 1046.21,-78.5061"/>
<polygon fill="midnightblue" stroke="midnightblue" points="1046.84,-75.0443 1036.26,-75.5865 1044.87,-81.761 1046.84,-75.0443"/>
</g>
<!-- Node28 -->
<g id="node28" class="node"><title>Node28</title>
<polygon fill="white" stroke="#bfbfbf" points="836,-56.5 836,-75.5 892,-75.5 892,-56.5 836,-56.5"/>
<text text-anchor="middle" x="864" y="-63.5" font-family="FreeSans" font-size="10.00">wx/defs.h</text>
</g>
<!-- Node27&#45;&gt;Node28 -->
<g id="edge34" class="edge"><title>Node27&#45;&gt;Node28</title>
<path fill="none" stroke="midnightblue" d="M1163.18,-113.965C1160.09,-113.264 1156.98,-112.593 1154,-112 1129.74,-107.176 975.403,-83.7752 902.301,-72.758"/>
<polygon fill="midnightblue" stroke="midnightblue" points="902.539,-69.2545 892.13,-71.226 901.497,-76.1765 902.539,-69.2545"/>
</g>
<!-- Node30&#45;&gt;Node9 -->
<g id="edge41" class="edge"><title>Node30&#45;&gt;Node9</title>
<path fill="none" stroke="midnightblue" d="M330.902,-168.452C276.977,-150.131 165.051,-104.765 209,-56 235.115,-27.023 501.265,-15.4894 602.342,-12.1324"/>
<polygon fill="midnightblue" stroke="midnightblue" points="602.554,-15.6275 612.435,-11.8063 602.328,-8.63112 602.554,-15.6275"/>
</g>
<!-- Node30&#45;&gt;Node21 -->
<g id="edge42" class="edge"><title>Node30&#45;&gt;Node21</title>
<path fill="none" stroke="midnightblue" d="M369.407,-168.324C380.109,-160.185 396.341,-147.839 409.163,-138.087"/>
<polygon fill="midnightblue" stroke="midnightblue" points="411.544,-140.673 417.385,-131.834 407.307,-135.102 411.544,-140.673"/>
</g>
<!-- Node31 -->
<g id="node31" class="node"><title>Node31</title>
<polygon fill="white" stroke="#bfbfbf" points="100,-112.5 100,-131.5 174,-131.5 174,-112.5 100,-112.5"/>
<text text-anchor="middle" x="137" y="-119.5" font-family="FreeSans" font-size="10.00">wx/dynarray.h</text>
</g>
<!-- Node30&#45;&gt;Node31 -->
<g id="edge43" class="edge"><title>Node30&#45;&gt;Node31</title>
<path fill="none" stroke="midnightblue" d="M322.982,-168.444C284.752,-159.102 223.433,-144.119 181.743,-133.933"/>
<polygon fill="midnightblue" stroke="midnightblue" points="182.399,-130.49 171.854,-131.516 180.738,-137.29 182.399,-130.49"/>
</g>
<!-- Node32&#45;&gt;Node10 -->
<g id="edge47" class="edge"><title>Node32&#45;&gt;Node10</title>
<path fill="none" stroke="midnightblue" d="M1319.53,-168.083C1316.69,-160.77 1312.57,-150.181 1309.04,-141.103"/>
<polygon fill="midnightblue" stroke="midnightblue" points="1312.29,-139.803 1305.4,-131.751 1305.77,-142.34 1312.29,-139.803"/>
</g>
<!-- Node32&#45;&gt;Node12 -->
<g id="edge45" class="edge"><title>Node32&#45;&gt;Node12</title>
<path fill="none" stroke="midnightblue" d="M1313.13,-168.336C1296.55,-154.257 1261.5,-126.526 1227,-112 1224.93,-111.127 1111.31,-88.0852 1048.19,-75.321"/>
<polygon fill="midnightblue" stroke="midnightblue" points="1048.64,-71.8416 1038.15,-73.2904 1047.26,-78.7028 1048.64,-71.8416"/>
</g>
<!-- Node32&#45;&gt;Node33 -->
<g id="edge46" class="edge"><title>Node32&#45;&gt;Node33</title>
<path fill="none" stroke="midnightblue" d="M1331.26,-168.083C1338.46,-160.298 1349.11,-148.801 1357.85,-139.367"/>
<polygon fill="midnightblue" stroke="midnightblue" points="1360.67,-141.467 1364.9,-131.751 1355.53,-136.711 1360.67,-141.467"/>
</g>
<!-- Node34&#45;&gt;Node21 -->
<g id="edge49" class="edge"><title>Node34&#45;&gt;Node21</title>
<path fill="none" stroke="midnightblue" d="M517.13,-168.324C500.291,-159.664 474.193,-146.242 454.762,-136.249"/>
<polygon fill="midnightblue" stroke="midnightblue" points="456.322,-133.116 445.828,-131.655 453.12,-139.341 456.322,-133.116"/>
</g>
<!-- Node34&#45;&gt;Node22 -->
<g id="edge54" class="edge"><title>Node34&#45;&gt;Node22</title>
<path fill="none" stroke="midnightblue" d="M527.588,-168.279C519.29,-155.907 506.508,-132.483 512,-112 514.654,-102.103 520.069,-92.1315 525.274,-84.099"/>
<polygon fill="midnightblue" stroke="midnightblue" points="528.289,-85.8935 531.11,-75.6811 522.536,-81.9055 528.289,-85.8935"/>
</g>
<!-- Node35 -->
<g id="node35" class="node"><title>Node35</title>
<g id="a_node35"><a xlink:href="logger_8h" target="_top" xlink:title="logger.h">
<polygon fill="white" stroke="black" points="554,-112.5 554,-131.5 604,-131.5 604,-112.5 554,-112.5"/>
<text text-anchor="middle" x="579" y="-119.5" font-family="FreeSans" font-size="10.00">logger.h</text>
</a>
</g>
</g>
<!-- Node34&#45;&gt;Node35 -->
<g id="edge50" class="edge"><title>Node34&#45;&gt;Node35</title>
<path fill="none" stroke="midnightblue" d="M541.431,-168.083C547.853,-160.377 557.306,-149.033 565.122,-139.653"/>
<polygon fill="midnightblue" stroke="midnightblue" points="567.994,-141.674 571.707,-131.751 562.617,-137.193 567.994,-141.674"/>
</g>
<!-- Node35&#45;&gt;Node5 -->
<g id="edge51" class="edge"><title>Node35&#45;&gt;Node5</title>
<path fill="none" stroke="midnightblue" d="M579.804,-112.351C580.585,-98.2918 579.848,-70.5897 564,-56 523.945,-19.1256 356.917,-12.4046 286.033,-11.2263"/>
<polygon fill="midnightblue" stroke="midnightblue" points="285.954,-7.72499 275.906,-11.0854 285.857,-14.7243 285.954,-7.72499"/>
</g>
<!-- Node35&#45;&gt;Node9 -->
<g id="edge53" class="edge"><title>Node35&#45;&gt;Node9</title>
<path fill="none" stroke="midnightblue" d="M583.865,-112.368C594.052,-94.2957 617.791,-52.1764 631.245,-28.3074"/>
<polygon fill="midnightblue" stroke="midnightblue" points="634.296,-30.0215 636.158,-19.5914 628.198,-26.5844 634.296,-30.0215"/>
</g>
<!-- Node35&#45;&gt;Node12 -->
<g id="edge52" class="edge"><title>Node35&#45;&gt;Node12</title>
<path fill="none" stroke="midnightblue" d="M604.158,-113.905C607.124,-113.198 610.12,-112.543 613,-112 679.964,-99.3819 878.949,-79.3713 965.744,-70.9454"/>
<polygon fill="midnightblue" stroke="midnightblue" points="966.14,-74.4235 975.756,-69.9766 965.466,-67.4561 966.14,-74.4235"/>
</g>
<!-- Node37&#45;&gt;Node9 -->
<g id="edge59" class="edge"><title>Node37&#45;&gt;Node9</title>
<path fill="none" stroke="midnightblue" d="M645.608,-112.368C644.801,-94.617 642.939,-53.6664 641.845,-29.5974"/>
<polygon fill="midnightblue" stroke="midnightblue" points="645.341,-29.4221 641.391,-19.5914 638.348,-29.7401 645.341,-29.4221"/>
</g>
<!-- Node37&#45;&gt;Node28 -->
<g id="edge60" class="edge"><title>Node37&#45;&gt;Node28</title>
<path fill="none" stroke="midnightblue" d="M670.163,-115.015C707.907,-105.665 781.171,-87.5173 826.022,-76.4075"/>
<polygon fill="midnightblue" stroke="midnightblue" points="827.09,-79.7487 835.955,-73.9469 825.407,-72.954 827.09,-79.7487"/>
</g>
</g>
</svg>
