<?xml version="1.0" encoding="UTF-8" standalone="no"?>
<!DOCTYPE svg PUBLIC "-//W3C//DTD SVG 1.1//EN"
 "http://www.w3.org/Graphics/SVG/1.1/DTD/svg11.dtd">
<!-- Generated by graphviz version 2.38.0 (20140413.2041)
 -->
<!-- Title: configmanager.h Pages: 1 -->
<svg width="2636pt" height="252pt"
 viewBox="0.00 0.00 2635.50 252.00" xmlns="http://www.w3.org/2000/svg" xmlns:xlink="http://www.w3.org/1999/xlink">
<g id="graph0" class="graph" transform="scale(1 1) rotate(0) translate(4 248)">
<title>configmanager.h</title>
<!-- Node24 -->
<g id="node1" class="node"><title>Node24</title>
<polygon fill="#bfbfbf" stroke="black" points="1317,-224.5 1317,-243.5 1404,-243.5 1404,-224.5 1317,-224.5"/>
<text text-anchor="middle" x="1360.5" y="-231.5" font-family="FreeSans" font-size="10.00">configmanager.h</text>
</g>
<!-- Node25 -->
<g id="node2" class="node"><title>Node25</title>
<g id="a_node2"><a xlink:href="debuggermanager_8h" target="_top" xlink:title="debuggermanager.h">
<polygon fill="none" stroke="red" points="382,-168.5 382,-187.5 483,-187.5 483,-168.5 382,-168.5"/>
<text text-anchor="middle" x="432.5" y="-175.5" font-family="FreeSans" font-size="10.00">debuggermanager.h</text>
</a>
</g>
</g>
<!-- Node24&#45;&gt;Node25 -->
<g id="edge1" class="edge"><title>Node24&#45;&gt;Node25</title>
<path fill="none" stroke="midnightblue" d="M1306.59,-229.863C1141.43,-220.252 643.858,-191.299 483.149,-181.947"/>
<polygon fill="midnightblue" stroke="midnightblue" points="1306.8,-233.381 1316.99,-230.468 1307.21,-226.393 1306.8,-233.381"/>
</g>
<!-- Node56 -->
<g id="node8" class="node"><title>Node56</title>
<g id="a_node8"><a xlink:href="gdb__commands_8h" target="_top" xlink:title="gdb_commands.h">
<polygon fill="none" stroke="red" points="622.5,-56.5 622.5,-75.5 714.5,-75.5 714.5,-56.5 622.5,-56.5"/>
<text text-anchor="middle" x="668.5" y="-63.5" font-family="FreeSans" font-size="10.00">gdb_commands.h</text>
</a>
</g>
</g>
<!-- Node24&#45;&gt;Node56 -->
<g id="edge44" class="edge"><title>Node24&#45;&gt;Node56</title>
<path fill="none" stroke="midnightblue" d="M1306.83,-233.183C1155.39,-233.182 732.793,-229.432 687.5,-188 655.178,-158.434 662.571,-98.1006 666.692,-75.6607"/>
<polygon fill="midnightblue" stroke="midnightblue" points="1306.83,-236.683 1316.83,-233.177 1306.83,-229.683 1306.83,-236.683"/>
</g>
<!-- Node58 -->
<g id="node9" class="node"><title>Node58</title>
<g id="a_node9"><a xlink:href="gdb__driver_8cpp" target="_top" xlink:title="gdb_driver.cpp">
<polygon fill="none" stroke="black" points="629,-0.5 629,-19.5 708,-19.5 708,-0.5 629,-0.5"/>
<text text-anchor="middle" x="668.5" y="-7.5" font-family="FreeSans" font-size="10.00">gdb_driver.cpp</text>
</a>
</g>
</g>
<!-- Node24&#45;&gt;Node58 -->
<g id="edge45" class="edge"><title>Node24&#45;&gt;Node58</title>
<path fill="none" stroke="midnightblue" d="M1384.88,-218.829C1404.47,-205.643 1426.59,-185.458 1412.5,-168 1322.45,-56.4017 849.427,-21.1475 708.29,-13.0317"/>
<polygon fill="midnightblue" stroke="midnightblue" points="1382.75,-216.036 1376.19,-224.36 1386.51,-221.941 1382.75,-216.036"/>
</g>
<!-- Node40 -->
<g id="node13" class="node"><title>Node40</title>
<g id="a_node13"><a xlink:href="main_8cpp" target="_top" xlink:title="main.cpp">
<polygon fill="none" stroke="black" points="696.5,-112.5 696.5,-131.5 752.5,-131.5 752.5,-112.5 696.5,-112.5"/>
<text text-anchor="middle" x="724.5" y="-119.5" font-family="FreeSans" font-size="10.00">main.cpp</text>
</a>
</g>
</g>
<!-- Node24&#45;&gt;Node40 -->
<g id="edge33" class="edge"><title>Node24&#45;&gt;Node40</title>
<path fill="none" stroke="midnightblue" d="M1306.55,-231.647C1189.58,-228.196 916.106,-217.177 828.5,-188 790.522,-175.352 752.236,-146.226 734.577,-131.645"/>
<polygon fill="midnightblue" stroke="midnightblue" points="1306.61,-235.15 1316.71,-231.939 1306.81,-228.153 1306.61,-235.15"/>
</g>
<!-- Node62 -->
<g id="node14" class="node"><title>Node62</title>
<g id="a_node14"><a xlink:href="compilergcc_8cpp" target="_top" xlink:title="compilergcc.cpp">
<polygon fill="none" stroke="black" points="771,-112.5 771,-131.5 858,-131.5 858,-112.5 771,-112.5"/>
<text text-anchor="middle" x="814.5" y="-119.5" font-family="FreeSans" font-size="10.00">compilergcc.cpp</text>
</a>
</g>
</g>
<!-- Node24&#45;&gt;Node62 -->
<g id="edge38" class="edge"><title>Node24&#45;&gt;Node62</title>
<path fill="none" stroke="midnightblue" d="M1306.58,-231.128C1182.99,-226.429 887.029,-212.714 849.5,-188 829.376,-174.748 819.933,-145.905 816.337,-131.517"/>
<polygon fill="midnightblue" stroke="midnightblue" points="1306.46,-234.625 1316.58,-231.502 1306.72,-227.63 1306.46,-234.625"/>
</g>
<!-- Node85 -->
<g id="node15" class="node"><title>Node85</title>
<g id="a_node15"><a xlink:href="sc__base__types_8h" target="_top" xlink:title="sc_base_types.h">
<polygon fill="none" stroke="red" points="859,-168.5 859,-187.5 946,-187.5 946,-168.5 859,-168.5"/>
<text text-anchor="middle" x="902.5" y="-175.5" font-family="FreeSans" font-size="10.00">sc_base_types.h</text>
</a>
</g>
</g>
<!-- Node24&#45;&gt;Node85 -->
<g id="edge19" class="edge"><title>Node24&#45;&gt;Node85</title>
<path fill="none" stroke="midnightblue" d="M1306.53,-227.654C1229.6,-219.869 1084.04,-204.527 960.5,-188 955.854,-187.378 951.005,-186.69 946.176,-185.978"/>
<polygon fill="midnightblue" stroke="midnightblue" points="1306.62,-231.181 1316.92,-228.702 1307.32,-224.216 1306.62,-231.181"/>
</g>
<!-- Node90 -->
<g id="node16" class="node"><title>Node90</title>
<g id="a_node16"><a xlink:href="compilercommandgenerator_8cpp" target="_top" xlink:title="compilercommandgenerator.cpp">
<polygon fill="none" stroke="black" points="915,-112.5 915,-131.5 1070,-131.5 1070,-112.5 915,-112.5"/>
<text text-anchor="middle" x="992.5" y="-119.5" font-family="FreeSans" font-size="10.00">compilercommandgenerator.cpp</text>
</a>
</g>
</g>
<!-- Node24&#45;&gt;Node90 -->
<g id="edge25" class="edge"><title>Node24&#45;&gt;Node90</title>
<path fill="none" stroke="midnightblue" d="M1306.81,-232.027C1223.11,-229.506 1066.52,-220.461 1022.5,-188 1003.89,-174.28 996.488,-146.184 993.829,-131.845"/>
<polygon fill="midnightblue" stroke="midnightblue" points="1306.8,-235.527 1316.89,-232.309 1307,-228.53 1306.8,-235.527"/>
</g>
<!-- Node94 -->
<g id="node17" class="node"><title>Node94</title>
<g id="a_node17"><a xlink:href="sc__io_8cpp" target="_top" xlink:title="sc_io.cpp">
<polygon fill="none" stroke="black" points="1088,-112.5 1088,-131.5 1145,-131.5 1145,-112.5 1088,-112.5"/>
<text text-anchor="middle" x="1116.5" y="-119.5" font-family="FreeSans" font-size="10.00">sc_io.cpp</text>
</a>
</g>
</g>
<!-- Node24&#45;&gt;Node94 -->
<g id="edge27" class="edge"><title>Node24&#45;&gt;Node94</title>
<path fill="none" stroke="midnightblue" d="M1306.75,-233.808C1222.82,-233.79 1066.57,-228.188 1031.5,-188 1010.43,-163.854 1056.35,-142.735 1088.55,-131.528"/>
<polygon fill="midnightblue" stroke="midnightblue" points="1306.87,-237.308 1316.86,-233.783 1306.85,-230.308 1306.87,-237.308"/>
</g>
<!-- Node106 -->
<g id="node18" class="node"><title>Node106</title>
<g id="a_node18"><a xlink:href="sdk__common_8h" target="_top" xlink:title="sdk_common.h">
<polygon fill="none" stroke="red" points="1040.5,-168.5 1040.5,-187.5 1122.5,-187.5 1122.5,-168.5 1040.5,-168.5"/>
<text text-anchor="middle" x="1081.5" y="-175.5" font-family="FreeSans" font-size="10.00">sdk_common.h</text>
</a>
</g>
</g>
<!-- Node24&#45;&gt;Node106 -->
<g id="edge24" class="edge"><title>Node24&#45;&gt;Node106</title>
<path fill="none" stroke="midnightblue" d="M1306.87,-222.619C1253.06,-212.205 1171.35,-196.391 1122.52,-186.939"/>
<polygon fill="midnightblue" stroke="midnightblue" points="1306.42,-226.098 1316.91,-224.562 1307.75,-219.226 1306.42,-226.098"/>
</g>
<!-- Node239 -->
<g id="node19" class="node"><title>Node239</title>
<g id="a_node19"><a xlink:href="projectloader_8cpp" target="_top" xlink:title="projectloader.cpp">
<polygon fill="none" stroke="black" points="1140.5,-168.5 1140.5,-187.5 1230.5,-187.5 1230.5,-168.5 1140.5,-168.5"/>
<text text-anchor="middle" x="1185.5" y="-175.5" font-family="FreeSans" font-size="10.00">projectloader.cpp</text>
</a>
</g>
</g>
<!-- Node24&#45;&gt;Node239 -->
<g id="edge26" class="edge"><title>Node24&#45;&gt;Node239</title>
<path fill="none" stroke="midnightblue" d="M1323.03,-221.436C1290.03,-211.255 1242.74,-196.664 1213.1,-187.516"/>
<polygon fill="midnightblue" stroke="midnightblue" points="1322.18,-224.839 1332.77,-224.444 1324.25,-218.151 1322.18,-224.839"/>
</g>
<!-- Node101 -->
<g id="node20" class="node"><title>Node101</title>
<g id="a_node20"><a xlink:href="app_8cpp" target="_top" xlink:title="app.cpp">
<polygon fill="none" stroke="black" points="1248.5,-168.5 1248.5,-187.5 1298.5,-187.5 1298.5,-168.5 1248.5,-168.5"/>
<text text-anchor="middle" x="1273.5" y="-175.5" font-family="FreeSans" font-size="10.00">app.cpp</text>
</a>
</g>
</g>
<!-- Node24&#45;&gt;Node101 -->
<g id="edge28" class="edge"><title>Node24&#45;&gt;Node101</title>
<path fill="none" stroke="midnightblue" d="M1337.78,-218.901C1321.83,-208.999 1301,-196.071 1287.44,-187.655"/>
<polygon fill="midnightblue" stroke="midnightblue" points="1336.18,-222.024 1346.52,-224.324 1339.87,-216.077 1336.18,-222.024"/>
</g>
<!-- Node109 -->
<g id="node21" class="node"><title>Node109</title>
<g id="a_node21"><a xlink:href="associations_8cpp" target="_top" xlink:title="associations.cpp">
<polygon fill="none" stroke="black" points="1317,-168.5 1317,-187.5 1404,-187.5 1404,-168.5 1317,-168.5"/>
<text text-anchor="middle" x="1360.5" y="-175.5" font-family="FreeSans" font-size="10.00">associations.cpp</text>
</a>
</g>
</g>
<!-- Node24&#45;&gt;Node109 -->
<g id="edge29" class="edge"><title>Node24&#45;&gt;Node109</title>
<path fill="none" stroke="midnightblue" d="M1360.5,-213.805C1360.5,-204.91 1360.5,-194.78 1360.5,-187.751"/>
<polygon fill="midnightblue" stroke="midnightblue" points="1357,-214.083 1360.5,-224.083 1364,-214.083 1357,-214.083"/>
</g>
<!-- Node255 -->
<g id="node22" class="node"><title>Node255</title>
<g id="a_node22"><a xlink:href="batchbuild_8h" target="_top" xlink:title="batchbuild.h">
<polygon fill="none" stroke="black" points="696.5,-168.5 696.5,-187.5 764.5,-187.5 764.5,-168.5 696.5,-168.5"/>
<text text-anchor="middle" x="730.5" y="-175.5" font-family="FreeSans" font-size="10.00">batchbuild.h</text>
</a>
</g>
</g>
<!-- Node24&#45;&gt;Node255 -->
<g id="edge30" class="edge"><title>Node24&#45;&gt;Node255</title>
<path fill="none" stroke="midnightblue" d="M1306.75,-230.79C1203.85,-226.129 972.043,-213.551 778.5,-188 773.961,-187.401 769.201,-186.654 764.516,-185.848"/>
<polygon fill="midnightblue" stroke="midnightblue" points="1306.75,-234.293 1316.89,-231.242 1307.06,-227.3 1306.75,-234.293"/>
</g>
<!-- Node113 -->
<g id="node23" class="node"><title>Node113</title>
<g id="a_node23"><a xlink:href="dlgabout_8cpp" target="_top" xlink:title="dlgabout.cpp">
<polygon fill="none" stroke="black" points="1461,-168.5 1461,-187.5 1532,-187.5 1532,-168.5 1461,-168.5"/>
<text text-anchor="middle" x="1496.5" y="-175.5" font-family="FreeSans" font-size="10.00">dlgabout.cpp</text>
</a>
</g>
</g>
<!-- Node24&#45;&gt;Node113 -->
<g id="edge32" class="edge"><title>Node24&#45;&gt;Node113</title>
<path fill="none" stroke="midnightblue" d="M1391.63,-220.638C1417.16,-210.504 1452.61,-196.427 1475.05,-187.516"/>
<polygon fill="midnightblue" stroke="midnightblue" points="1390.05,-217.5 1382.05,-224.444 1392.64,-224.006 1390.05,-217.5"/>
</g>
<!-- Node128 -->
<g id="node24" class="node"><title>Node128</title>
<g id="a_node24"><a xlink:href="scriptingsettingsdlg_8cpp" target="_top" xlink:title="scriptingsettingsdlg.cpp">
<polygon fill="none" stroke="black" points="1550.5,-168.5 1550.5,-187.5 1666.5,-187.5 1666.5,-168.5 1550.5,-168.5"/>
<text text-anchor="middle" x="1608.5" y="-175.5" font-family="FreeSans" font-size="10.00">scriptingsettingsdlg.cpp</text>
</a>
</g>
</g>
<!-- Node24&#45;&gt;Node128 -->
<g id="edge34" class="edge"><title>Node24&#45;&gt;Node128</title>
<path fill="none" stroke="midnightblue" d="M1409.73,-222.281C1456.59,-212.077 1526.2,-196.92 1569.39,-187.516"/>
<polygon fill="midnightblue" stroke="midnightblue" points="1408.82,-218.896 1399.8,-224.444 1410.31,-225.736 1408.82,-218.896"/>
</g>
<!-- Node256 -->
<g id="node25" class="node"><title>Node256</title>
<g id="a_node25"><a xlink:href="splashscreen_8cpp" target="_top" xlink:title="splashscreen.cpp">
<polygon fill="none" stroke="black" points="1684.5,-168.5 1684.5,-187.5 1774.5,-187.5 1774.5,-168.5 1684.5,-168.5"/>
<text text-anchor="middle" x="1729.5" y="-175.5" font-family="FreeSans" font-size="10.00">splashscreen.cpp</text>
</a>
</g>
</g>
<!-- Node24&#45;&gt;Node256 -->
<g id="edge35" class="edge"><title>Node24&#45;&gt;Node256</title>
<path fill="none" stroke="midnightblue" d="M1414.17,-225.72C1476.91,-217.12 1583.84,-202.184 1675.5,-188 1678.41,-187.549 1681.41,-187.076 1684.43,-186.592"/>
<polygon fill="midnightblue" stroke="midnightblue" points="1413.55,-222.272 1404.11,-227.096 1414.5,-229.208 1413.55,-222.272"/>
</g>
<!-- Node257 -->
<g id="node26" class="node"><title>Node257</title>
<g id="a_node26"><a xlink:href="tokenizer_8h" target="_top" xlink:title="tokenizer.h">
<polygon fill="none" stroke="red" points="1793,-168.5 1793,-187.5 1856,-187.5 1856,-168.5 1793,-168.5"/>
<text text-anchor="middle" x="1824.5" y="-175.5" font-family="FreeSans" font-size="10.00">tokenizer.h</text>
</a>
</g>
</g>
<!-- Node24&#45;&gt;Node257 -->
<g id="edge36" class="edge"><title>Node24&#45;&gt;Node257</title>
<path fill="none" stroke="midnightblue" d="M1414.65,-229.158C1495.36,-222.999 1651.82,-209.39 1783.5,-188 1786.52,-187.509 1789.65,-186.937 1792.78,-186.324"/>
<polygon fill="midnightblue" stroke="midnightblue" points="1413.96,-225.7 1404.25,-229.943 1414.49,-232.681 1413.96,-225.7"/>
</g>
<!-- Node155 -->
<g id="node27" class="node"><title>Node155</title>
<g id="a_node27"><a xlink:href="compilerG95_8cpp" target="_top" xlink:title="compilerG95.cpp">
<polygon fill="none" stroke="black" points="1874,-168.5 1874,-187.5 1963,-187.5 1963,-168.5 1874,-168.5"/>
<text text-anchor="middle" x="1918.5" y="-175.5" font-family="FreeSans" font-size="10.00">compilerG95.cpp</text>
</a>
</g>
</g>
<!-- Node24&#45;&gt;Node155 -->
<g id="edge37" class="edge"><title>Node24&#45;&gt;Node155</title>
<path fill="none" stroke="midnightblue" d="M1414.43,-229.605C1506.96,-223.465 1701.8,-209.158 1865.5,-188 1868.18,-187.653 1870.94,-187.269 1873.72,-186.861"/>
<polygon fill="midnightblue" stroke="midnightblue" points="1413.94,-226.129 1404.2,-230.278 1414.4,-233.114 1413.94,-226.129"/>
</g>
<!-- Node156 -->
<g id="node28" class="node"><title>Node156</title>
<g id="a_node28"><a xlink:href="compilerGDC_8cpp" target="_top" xlink:title="compilerGDC.cpp">
<polygon fill="none" stroke="black" points="1981.5,-168.5 1981.5,-187.5 2073.5,-187.5 2073.5,-168.5 1981.5,-168.5"/>
<text text-anchor="middle" x="2027.5" y="-175.5" font-family="FreeSans" font-size="10.00">compilerGDC.cpp</text>
</a>
</g>
</g>
<!-- Node24&#45;&gt;Node156 -->
<g id="edge39" class="edge"><title>Node24&#45;&gt;Node156</title>
<path fill="none" stroke="midnightblue" d="M1414.22,-230.656C1520.91,-225.647 1766.95,-212.326 1972.5,-188 1975.38,-187.659 1978.34,-187.274 1981.33,-186.861"/>
<polygon fill="midnightblue" stroke="midnightblue" points="1413.86,-227.169 1404.04,-231.129 1414.19,-234.161 1413.86,-227.169"/>
</g>
<!-- Node158 -->
<g id="node29" class="node"><title>Node158</title>
<g id="a_node29"><a xlink:href="compilerGNUFortran_8cpp" target="_top" xlink:title="compilerGNUFortran.cpp">
<polygon fill="none" stroke="black" points="2092,-168.5 2092,-187.5 2215,-187.5 2215,-168.5 2092,-168.5"/>
<text text-anchor="middle" x="2153.5" y="-175.5" font-family="FreeSans" font-size="10.00">compilerGNUFortran.cpp</text>
</a>
</g>
</g>
<!-- Node24&#45;&gt;Node158 -->
<g id="edge40" class="edge"><title>Node24&#45;&gt;Node158</title>
<path fill="none" stroke="midnightblue" d="M1414.14,-230.83C1534.11,-225.719 1833.14,-211.552 2082.5,-188 2085.59,-187.708 2088.76,-187.387 2091.95,-187.046"/>
<polygon fill="midnightblue" stroke="midnightblue" points="1413.96,-227.334 1404.12,-231.253 1414.26,-234.328 1413.96,-227.334"/>
</g>
<!-- Node164 -->
<g id="node30" class="node"><title>Node164</title>
<g id="a_node30"><a xlink:href="compilerMINGW_8cpp" target="_top" xlink:title="compilerMINGW.cpp">
<polygon fill="none" stroke="black" points="2233.5,-168.5 2233.5,-187.5 2339.5,-187.5 2339.5,-168.5 2233.5,-168.5"/>
<text text-anchor="middle" x="2286.5" y="-175.5" font-family="FreeSans" font-size="10.00">compilerMINGW.cpp</text>
</a>
</g>
</g>
<!-- Node24&#45;&gt;Node164 -->
<g id="edge41" class="edge"><title>Node24&#45;&gt;Node164</title>
<path fill="none" stroke="midnightblue" d="M1414.37,-231.918C1550.44,-228.812 1918.92,-218.072 2224.5,-188 2227.42,-187.712 2230.42,-187.385 2233.44,-187.03"/>
<polygon fill="midnightblue" stroke="midnightblue" points="1414.13,-228.423 1404.21,-232.146 1414.29,-235.421 1414.13,-228.423"/>
</g>
<!-- Node165 -->
<g id="node31" class="node"><title>Node165</title>
<g id="a_node31"><a xlink:href="compilerMINGWgenerator_8cpp" target="_top" xlink:title="compilerMINGWgenerator.cpp">
<polygon fill="none" stroke="black" points="2357.5,-168.5 2357.5,-187.5 2503.5,-187.5 2503.5,-168.5 2357.5,-168.5"/>
<text text-anchor="middle" x="2430.5" y="-175.5" font-family="FreeSans" font-size="10.00">compilerMINGWgenerator.cpp</text>
</a>
</g>
</g>
<!-- Node24&#45;&gt;Node165 -->
<g id="edge42" class="edge"><title>Node24&#45;&gt;Node165</title>
<path fill="none" stroke="midnightblue" d="M1414.63,-231.748C1563.71,-228.037 1992.83,-215.59 2348.5,-188 2351.36,-187.778 2354.27,-187.537 2357.2,-187.279"/>
<polygon fill="midnightblue" stroke="midnightblue" points="1414.3,-228.255 1404.39,-232 1414.47,-235.253 1414.3,-228.255"/>
</g>
<!-- Node172 -->
<g id="node32" class="node"><title>Node172</title>
<g id="a_node32"><a xlink:href="directcommands_8cpp" target="_top" xlink:title="directcommands.cpp">
<polygon fill="none" stroke="black" points="2521.5,-168.5 2521.5,-187.5 2627.5,-187.5 2627.5,-168.5 2521.5,-168.5"/>
<text text-anchor="middle" x="2574.5" y="-175.5" font-family="FreeSans" font-size="10.00">directcommands.cpp</text>
</a>
</g>
</g>
<!-- Node24&#45;&gt;Node172 -->
<g id="edge43" class="edge"><title>Node24&#45;&gt;Node172</title>
<path fill="none" stroke="midnightblue" d="M1414.37,-232.905C1579.13,-232.182 2090.74,-226.741 2512.5,-188 2515.42,-187.731 2518.42,-187.419 2521.44,-187.076"/>
<polygon fill="midnightblue" stroke="midnightblue" points="1414.01,-229.406 1404.02,-232.946 1414.04,-236.406 1414.01,-229.406"/>
</g>
<!-- Node26 -->
<g id="node3" class="node"><title>Node26</title>
<g id="a_node3"><a xlink:href="cbdebugger__interfaces_8h" target="_top" xlink:title="cbdebugger_interfaces.h">
<polygon fill="none" stroke="red" points="282.5,-112.5 282.5,-131.5 404.5,-131.5 404.5,-112.5 282.5,-112.5"/>
<text text-anchor="middle" x="343.5" y="-119.5" font-family="FreeSans" font-size="10.00">cbdebugger_interfaces.h</text>
</a>
</g>
</g>
<!-- Node25&#45;&gt;Node26 -->
<g id="edge2" class="edge"><title>Node25&#45;&gt;Node26</title>
<path fill="none" stroke="midnightblue" d="M409.262,-162.901C392.942,-152.999 371.635,-140.071 357.764,-131.655"/>
<polygon fill="midnightblue" stroke="midnightblue" points="407.836,-166.129 418.201,-168.324 411.467,-160.144 407.836,-166.129"/>
</g>
<!-- Node29 -->
<g id="node4" class="node"><title>Node29</title>
<g id="a_node4"><a xlink:href="cbplugin_8cpp" target="_top" xlink:title="cbplugin.cpp">
<polygon fill="none" stroke="black" points="402,-56.5 402,-75.5 473,-75.5 473,-56.5 402,-56.5"/>
<text text-anchor="middle" x="437.5" y="-63.5" font-family="FreeSans" font-size="10.00">cbplugin.cpp</text>
</a>
</g>
</g>
<!-- Node25&#45;&gt;Node29 -->
<g id="edge10" class="edge"><title>Node25&#45;&gt;Node29</title>
<path fill="none" stroke="midnightblue" d="M433.348,-158.348C434.443,-134.254 436.304,-93.3079 437.109,-75.5914"/>
<polygon fill="midnightblue" stroke="midnightblue" points="429.85,-158.22 432.892,-168.368 436.843,-158.538 429.85,-158.22"/>
</g>
<!-- Node30 -->
<g id="node5" class="node"><title>Node30</title>
<g id="a_node5"><a xlink:href="cbstyledtextctrl_8cpp" target="_top" xlink:title="cbstyledtextctrl.cpp">
<polygon fill="none" stroke="black" points="0,-56.5 0,-75.5 99,-75.5 99,-56.5 0,-56.5"/>
<text text-anchor="middle" x="49.5" y="-63.5" font-family="FreeSans" font-size="10.00">cbstyledtextctrl.cpp</text>
</a>
</g>
</g>
<!-- Node25&#45;&gt;Node30 -->
<g id="edge11" class="edge"><title>Node25&#45;&gt;Node30</title>
<path fill="none" stroke="midnightblue" d="M371.632,-175.788C311.003,-172.725 216.285,-162.849 140.5,-132 107.053,-118.385 74.1704,-90.2413 58.6885,-75.8681"/>
<polygon fill="midnightblue" stroke="midnightblue" points="371.653,-179.292 381.802,-176.254 371.973,-172.3 371.653,-179.292"/>
</g>
<!-- Node31 -->
<g id="node6" class="node"><title>Node31</title>
<g id="a_node6"><a xlink:href="debuggermanager_8cpp" target="_top" xlink:title="debuggermanager.cpp">
<polygon fill="none" stroke="black" points="117.5,-56.5 117.5,-75.5 229.5,-75.5 229.5,-56.5 117.5,-56.5"/>
<text text-anchor="middle" x="173.5" y="-63.5" font-family="FreeSans" font-size="10.00">debuggermanager.cpp</text>
</a>
</g>
</g>
<!-- Node25&#45;&gt;Node31 -->
<g id="edge12" class="edge"><title>Node25&#45;&gt;Node31</title>
<path fill="none" stroke="midnightblue" d="M371.803,-176.213C297.335,-173.811 177.494,-164.797 149.5,-132 135.13,-115.165 153.815,-88.9511 165.463,-75.5376"/>
<polygon fill="midnightblue" stroke="midnightblue" points="371.897,-179.717 381.995,-176.51 372.101,-172.72 371.897,-179.717"/>
</g>
<!-- Node50 -->
<g id="node7" class="node"><title>Node50</title>
<g id="a_node7"><a xlink:href="debuggermenu_8cpp" target="_top" xlink:title="debuggermenu.cpp">
<polygon fill="none" stroke="black" points="247.5,-56.5 247.5,-75.5 345.5,-75.5 345.5,-56.5 247.5,-56.5"/>
<text text-anchor="middle" x="296.5" y="-63.5" font-family="FreeSans" font-size="10.00">debuggermenu.cpp</text>
</a>
</g>
</g>
<!-- Node25&#45;&gt;Node50 -->
<g id="edge16" class="edge"><title>Node25&#45;&gt;Node50</title>
<path fill="none" stroke="midnightblue" d="M371.555,-175.876C299.052,-173.099 184.408,-163.669 157.5,-132 151.744,-125.226 152.271,-119.188 157.5,-112 168.839,-96.4103 215.716,-83.4691 251.932,-75.5273"/>
<polygon fill="midnightblue" stroke="midnightblue" points="371.815,-179.387 381.931,-176.239 372.06,-172.391 371.815,-179.387"/>
</g>
<!-- Node59 -->
<g id="node10" class="node"><title>Node59</title>
<g id="a_node10"><a xlink:href="manager_8cpp" target="_top" xlink:title="manager.cpp">
<polygon fill="none" stroke="black" points="460.5,-112.5 460.5,-131.5 532.5,-131.5 532.5,-112.5 460.5,-112.5"/>
<text text-anchor="middle" x="496.5" y="-119.5" font-family="FreeSans" font-size="10.00">manager.cpp</text>
</a>
</g>
</g>
<!-- Node25&#45;&gt;Node59 -->
<g id="edge13" class="edge"><title>Node25&#45;&gt;Node59</title>
<path fill="none" stroke="midnightblue" d="M450.491,-161.82C461.958,-152.145 476.413,-139.948 486.03,-131.834"/>
<polygon fill="midnightblue" stroke="midnightblue" points="448.169,-159.2 442.783,-168.324 452.683,-164.55 448.169,-159.2"/>
</g>
<!-- Node33 -->
<g id="node11" class="node"><title>Node33</title>
<g id="a_node11"><a xlink:href="backtracedlg_8cpp" target="_top" xlink:title="backtracedlg.cpp">
<polygon fill="none" stroke="black" points="550.5,-112.5 550.5,-131.5 640.5,-131.5 640.5,-112.5 550.5,-112.5"/>
<text text-anchor="middle" x="595.5" y="-119.5" font-family="FreeSans" font-size="10.00">backtracedlg.cpp</text>
</a>
</g>
</g>
<!-- Node25&#45;&gt;Node33 -->
<g id="edge14" class="edge"><title>Node25&#45;&gt;Node33</title>
<path fill="none" stroke="midnightblue" d="M468.203,-165.172C498.896,-155.004 542.419,-140.585 569.793,-131.516"/>
<polygon fill="midnightblue" stroke="midnightblue" points="466.72,-161.976 458.328,-168.444 468.921,-168.621 466.72,-161.976"/>
</g>
<!-- Node36 -->
<g id="node12" class="node"><title>Node36</title>
<g id="a_node12"><a xlink:href="breakpointsdlg_8cpp" target="_top" xlink:title="breakpointsdlg.cpp">
<polygon fill="none" stroke="black" points="167,-112.5 167,-131.5 264,-131.5 264,-112.5 167,-112.5"/>
<text text-anchor="middle" x="215.5" y="-119.5" font-family="FreeSans" font-size="10.00">breakpointsdlg.cpp</text>
</a>
</g>
</g>
<!-- Node25&#45;&gt;Node36 -->
<g id="edge15" class="edge"><title>Node25&#45;&gt;Node36</title>
<path fill="none" stroke="midnightblue" d="M388.392,-166.024C347.4,-155.823 287.196,-140.841 249.723,-131.516"/>
<polygon fill="midnightblue" stroke="midnightblue" points="387.566,-169.425 398.116,-168.444 389.257,-162.632 387.566,-169.425"/>
</g>
<!-- Node25&#45;&gt;Node40 -->
<g id="edge17" class="edge"><title>Node25&#45;&gt;Node40</title>
<path fill="none" stroke="midnightblue" d="M488.794,-166.59C550.878,-155.108 648.298,-137.092 696.108,-128.251"/>
<polygon fill="midnightblue" stroke="midnightblue" points="487.965,-163.183 478.768,-168.444 489.238,-170.067 487.965,-163.183"/>
</g>
<!-- Node25&#45;&gt;Node62 -->
<g id="edge18" class="edge"><title>Node25&#45;&gt;Node62</title>
<path fill="none" stroke="midnightblue" d="M493.249,-169.288C559.338,-160.758 668.058,-146.32 761.5,-132 764.544,-131.533 767.685,-131.038 770.845,-130.528"/>
<polygon fill="midnightblue" stroke="midnightblue" points="492.489,-165.857 483.018,-170.605 493.383,-172.799 492.489,-165.857"/>
</g>
<!-- Node26&#45;&gt;Node29 -->
<g id="edge3" class="edge"><title>Node26&#45;&gt;Node29</title>
<path fill="none" stroke="midnightblue" d="M367.562,-107.177C384.859,-97.2407 407.648,-84.1492 422.435,-75.6545"/>
<polygon fill="midnightblue" stroke="midnightblue" points="365.53,-104.308 358.603,-112.324 369.017,-110.378 365.53,-104.308"/>
</g>
<!-- Node26&#45;&gt;Node30 -->
<g id="edge4" class="edge"><title>Node26&#45;&gt;Node30</title>
<path fill="none" stroke="midnightblue" d="M286.882,-110.601C231.319,-100.395 147.603,-85.0189 95.8672,-75.5164"/>
<polygon fill="midnightblue" stroke="midnightblue" points="286.447,-114.079 296.915,-112.444 287.712,-107.195 286.447,-114.079"/>
</g>
<!-- Node26&#45;&gt;Node31 -->
<g id="edge5" class="edge"><title>Node26&#45;&gt;Node31</title>
<path fill="none" stroke="midnightblue" d="M306.681,-109.304C274.648,-99.1294 228.985,-84.6246 200.311,-75.5164"/>
<polygon fill="midnightblue" stroke="midnightblue" points="305.973,-112.752 316.563,-112.444 308.092,-106.08 305.973,-112.752"/>
</g>
<!-- Node26&#45;&gt;Node50 -->
<g id="edge6" class="edge"><title>Node26&#45;&gt;Node50</title>
<path fill="none" stroke="midnightblue" d="M329.079,-104.431C320.842,-94.9673 310.846,-83.4827 304.117,-75.7511"/>
<polygon fill="midnightblue" stroke="midnightblue" points="326.534,-106.838 335.739,-112.083 331.814,-102.242 326.534,-106.838"/>
</g>
<!-- Node26&#45;&gt;Node56 -->
<g id="edge7" class="edge"><title>Node26&#45;&gt;Node56</title>
<path fill="none" stroke="midnightblue" d="M405.247,-110.741C468.572,-100.219 565.615,-84.0948 622.498,-74.6433"/>
<polygon fill="midnightblue" stroke="midnightblue" points="404.288,-107.352 394.997,-112.444 405.436,-114.257 404.288,-107.352"/>
</g>
<!-- Node26&#45;&gt;Node58 -->
<g id="edge9" class="edge"><title>Node26&#45;&gt;Node58</title>
<path fill="none" stroke="midnightblue" d="M351.992,-103.203C360.18,-88.0952 374.042,-67.1456 392.5,-56 431.619,-32.379 562.45,-19.1641 628.959,-13.8239"/>
<polygon fill="midnightblue" stroke="midnightblue" points="348.867,-101.627 347.44,-112.126 355.103,-104.809 348.867,-101.627"/>
</g>
<!-- Node56&#45;&gt;Node58 -->
<g id="edge8" class="edge"><title>Node56&#45;&gt;Node58</title>
<path fill="none" stroke="midnightblue" d="M668.5,-45.8045C668.5,-36.9102 668.5,-26.7798 668.5,-19.7511"/>
<polygon fill="midnightblue" stroke="midnightblue" points="665,-46.083 668.5,-56.083 672,-46.083 665,-46.083"/>
</g>
<!-- Node85&#45;&gt;Node56 -->
<g id="edge23" class="edge"><title>Node85&#45;&gt;Node56</title>
<path fill="none" stroke="midnightblue" d="M897.017,-158.676C891.629,-143.851 881.937,-123.596 866.5,-112 822.249,-78.7602 757.804,-69.366 714.578,-67.0712"/>
<polygon fill="midnightblue" stroke="midnightblue" points="893.74,-159.913 900.2,-168.31 900.386,-157.717 893.74,-159.913"/>
</g>
<!-- Node85&#45;&gt;Node62 -->
<g id="edge22" class="edge"><title>Node85&#45;&gt;Node62</title>
<path fill="none" stroke="midnightblue" d="M879.523,-162.901C863.387,-152.999 842.319,-140.071 828.604,-131.655"/>
<polygon fill="midnightblue" stroke="midnightblue" points="878.007,-166.077 888.361,-168.324 881.669,-160.111 878.007,-166.077"/>
</g>
<!-- Node85&#45;&gt;Node90 -->
<g id="edge20" class="edge"><title>Node85&#45;&gt;Node90</title>
<path fill="none" stroke="midnightblue" d="M925.538,-163.177C942.099,-153.241 963.918,-140.149 978.076,-131.655"/>
<polygon fill="midnightblue" stroke="midnightblue" points="923.734,-160.178 916.96,-168.324 927.336,-166.18 923.734,-160.178"/>
</g>
<!-- Node85&#45;&gt;Node94 -->
<g id="edge21" class="edge"><title>Node85&#45;&gt;Node94</title>
<path fill="none" stroke="midnightblue" d="M946.172,-165.98C988.526,-155.293 1051.56,-139.387 1087.89,-130.22"/>
<polygon fill="midnightblue" stroke="midnightblue" points="945.249,-162.603 936.409,-168.444 946.961,-169.39 945.249,-162.603"/>
</g>
<!-- Node255&#45;&gt;Node40 -->
<g id="edge31" class="edge"><title>Node255&#45;&gt;Node40</title>
<path fill="none" stroke="midnightblue" d="M728.4,-158.101C727.404,-149.136 726.262,-138.858 725.472,-131.751"/>
<polygon fill="midnightblue" stroke="midnightblue" points="724.926,-158.531 729.509,-168.083 731.883,-157.758 724.926,-158.531"/>
</g>
</g>
</svg>
