<?xml version="1.0" encoding="UTF-8" standalone="no"?>
<!DOCTYPE svg PUBLIC "-//W3C//DTD SVG 1.1//EN"
 "http://www.w3.org/Graphics/SVG/1.1/DTD/svg11.dtd">
<!-- Generated by graphviz version 2.40.1 (20161225.0304)
 -->
<!-- Title: configurationpanel.h Pages: 1 -->
<svg width="1387pt" height="140pt"
 viewBox="0.00 0.00 1386.50 140.00" xmlns="http://www.w3.org/2000/svg" xmlns:xlink="http://www.w3.org/1999/xlink">
<g id="graph0" class="graph" transform="scale(1 1) rotate(0) translate(4 136)">
<title>configurationpanel.h</title>
<!-- Node15 -->
<g id="node1" class="node">
<title>Node15</title>
<polygon fill="#bfbfbf" stroke="#000000" points="619.5,-112.5 619.5,-131.5 721.5,-131.5 721.5,-112.5 619.5,-112.5"/>
<text text-anchor="middle" x="670.5" y="-119.5" font-family="FreeSans" font-size="10.00" fill="#000000">configurationpanel.h</text>
</g>
<!-- Node16 -->
<g id="node2" class="node">
<title>Node16</title>
<g id="a_node2"><a xlink:href="configurationpanel_8cpp" target="_top" xlink:title="configurationpanel.cpp">
<polygon fill="none" stroke="#000000" points="0,-56.5 0,-75.5 113,-75.5 113,-56.5 0,-56.5"/>
<text text-anchor="middle" x="56.5" y="-63.5" font-family="FreeSans" font-size="10.00" fill="#000000">configurationpanel.cpp</text>
</a>
</g>
</g>
<!-- Node15&#45;&gt;Node16 -->
<g id="edge1" class="edge">
<title>Node15&#45;&gt;Node16</title>
<path fill="none" stroke="#191970" d="M609.2127,-118.2515C507.6251,-111.7273 298.0362,-96.9502 121.5,-76 118.7789,-75.6771 115.9967,-75.3268 113.1888,-74.9572"/>
<polygon fill="#191970" stroke="#191970" points="609.0889,-121.7506 619.2915,-118.8944 609.5346,-114.7648 609.0889,-121.7506"/>
</g>
<!-- Node17 -->
<g id="node3" class="node">
<title>Node17</title>
<g id="a_node3"><a xlink:href="compilersettingsdlg_8cpp" target="_top" xlink:title="compilersettingsdlg.cpp">
<polygon fill="none" stroke="#000000" points="131,-56.5 131,-75.5 248,-75.5 248,-56.5 131,-56.5"/>
<text text-anchor="middle" x="189.5" y="-63.5" font-family="FreeSans" font-size="10.00" fill="#000000">compilersettingsdlg.cpp</text>
</a>
</g>
</g>
<!-- Node15&#45;&gt;Node17 -->
<g id="edge2" class="edge">
<title>Node15&#45;&gt;Node17</title>
<path fill="none" stroke="#191970" d="M609.2555,-115.8569C528.5479,-107.6062 382.2088,-92.1098 257.5,-76 254.4231,-75.6025 251.2698,-75.1826 248.0873,-74.749"/>
<polygon fill="#191970" stroke="#191970" points="608.9406,-119.3428 619.2441,-116.8752 609.6507,-112.3789 608.9406,-119.3428"/>
</g>
<!-- Node18 -->
<g id="node4" class="node">
<title>Node18</title>
<g id="a_node4"><a xlink:href="editorconfigurationdlg_8cpp" target="_top" xlink:title="editorconfigurationdlg.cpp">
<polygon fill="none" stroke="#000000" points="266.5,-56.5 266.5,-75.5 392.5,-75.5 392.5,-56.5 266.5,-56.5"/>
<text text-anchor="middle" x="329.5" y="-63.5" font-family="FreeSans" font-size="10.00" fill="#000000">editorconfigurationdlg.cpp</text>
</a>
</g>
</g>
<!-- Node15&#45;&gt;Node18 -->
<g id="edge3" class="edge">
<title>Node15&#45;&gt;Node18</title>
<path fill="none" stroke="#191970" d="M609.2738,-111.9453C546.3675,-101.6146 449.1649,-85.6517 387.4735,-75.5206"/>
<polygon fill="#191970" stroke="#191970" points="609.0138,-115.4494 619.4489,-113.6162 610.1482,-108.5419 609.0138,-115.4494"/>
</g>
<!-- Node19 -->
<g id="node5" class="node">
<title>Node19</title>
<g id="a_node5"><a xlink:href="environmentsettingsdlg_8cpp" target="_top" xlink:title="environmentsettingsdlg.cpp">
<polygon fill="none" stroke="#000000" points="411,-56.5 411,-75.5 544,-75.5 544,-56.5 411,-56.5"/>
<text text-anchor="middle" x="477.5" y="-63.5" font-family="FreeSans" font-size="10.00" fill="#000000">environmentsettingsdlg.cpp</text>
</a>
</g>
</g>
<!-- Node15&#45;&gt;Node19 -->
<g id="edge4" class="edge">
<title>Node15&#45;&gt;Node19</title>
<path fill="none" stroke="#191970" d="M627.2683,-109.4561C591.8404,-99.1765 542.463,-84.8494 510.2449,-75.5011"/>
<polygon fill="#191970" stroke="#191970" points="626.7429,-112.9479 637.3221,-112.3733 628.6936,-106.2252 626.7429,-112.9479"/>
</g>
<!-- Node20 -->
<g id="node6" class="node">
<title>Node20</title>
<g id="a_node6"><a xlink:href="projectoptionsdlg_8cpp" target="_top" xlink:title="projectoptionsdlg.cpp">
<polygon fill="none" stroke="#000000" points="562,-56.5 562,-75.5 669,-75.5 669,-56.5 562,-56.5"/>
<text text-anchor="middle" x="615.5" y="-63.5" font-family="FreeSans" font-size="10.00" fill="#000000">projectoptionsdlg.cpp</text>
</a>
</g>
</g>
<!-- Node15&#45;&gt;Node20 -->
<g id="edge5" class="edge">
<title>Node15&#45;&gt;Node20</title>
<path fill="none" stroke="#191970" d="M653.8774,-105.0751C644.4145,-95.4402 632.9031,-83.7196 624.9705,-75.6427"/>
<polygon fill="#191970" stroke="#191970" points="651.4155,-107.5635 660.9197,-112.2455 656.4097,-102.6585 651.4155,-107.5635"/>
</g>
<!-- Node21 -->
<g id="node7" class="node">
<title>Node21</title>
<g id="a_node7"><a xlink:href="ccoptionsdlg_8h" target="_top" xlink:title="ccoptionsdlg.h">
<polygon fill="none" stroke="#000000" points="687.5,-56.5 687.5,-75.5 765.5,-75.5 765.5,-56.5 687.5,-56.5"/>
<text text-anchor="middle" x="726.5" y="-63.5" font-family="FreeSans" font-size="10.00" fill="#000000">ccoptionsdlg.h</text>
</a>
</g>
</g>
<!-- Node15&#45;&gt;Node21 -->
<g id="edge6" class="edge">
<title>Node15&#45;&gt;Node21</title>
<path fill="none" stroke="#191970" d="M687.4249,-105.0751C697.0598,-95.4402 708.7804,-83.7196 716.8573,-75.6427"/>
<polygon fill="#191970" stroke="#191970" points="684.8507,-102.6996 680.2545,-112.2455 689.8004,-107.6493 684.8507,-102.6996"/>
</g>
<!-- Node24 -->
<g id="node10" class="node">
<title>Node24</title>
<g id="a_node10"><a xlink:href="ccoptionsprjdlg_8h" target="_top" xlink:title="ccoptionsprjdlg.h">
<polygon fill="none" stroke="#000000" points="784,-56.5 784,-75.5 873,-75.5 873,-56.5 784,-56.5"/>
<text text-anchor="middle" x="828.5" y="-63.5" font-family="FreeSans" font-size="10.00" fill="#000000">ccoptionsprjdlg.h</text>
</a>
</g>
</g>
<!-- Node15&#45;&gt;Node24 -->
<g id="edge9" class="edge">
<title>Node15&#45;&gt;Node24</title>
<path fill="none" stroke="#191970" d="M707.3955,-108.9231C736.2787,-98.686 775.7706,-84.6889 801.6933,-75.5011"/>
<polygon fill="#191970" stroke="#191970" points="705.9174,-105.7336 697.6612,-112.3733 708.2559,-112.3314 705.9174,-105.7336"/>
</g>
<!-- Node26 -->
<g id="node12" class="node">
<title>Node26</title>
<g id="a_node12"><a xlink:href="compilergcc_8cpp" target="_top" xlink:title="compilergcc.cpp">
<polygon fill="none" stroke="#000000" points="904,-.5 904,-19.5 991,-19.5 991,-.5 904,-.5"/>
<text text-anchor="middle" x="947.5" y="-7.5" font-family="FreeSans" font-size="10.00" fill="#000000">compilergcc.cpp</text>
</a>
</g>
</g>
<!-- Node15&#45;&gt;Node26 -->
<g id="edge12" class="edge">
<title>Node15&#45;&gt;Node26</title>
<path fill="none" stroke="#191970" d="M731.6777,-112.5961C784.4553,-103.7731 856.0765,-89.8898 881.5,-76 907.3815,-61.86 929.8213,-34.4668 940.6317,-19.8116"/>
<polygon fill="#191970" stroke="#191970" points="731.0227,-109.1568 721.7256,-114.2376 732.1619,-116.0635 731.0227,-109.1568"/>
</g>
<!-- Node27 -->
<g id="node13" class="node">
<title>Node27</title>
<g id="a_node13"><a xlink:href="compileroptionsdlg_8h" target="_top" xlink:title="compileroptionsdlg.h">
<polygon fill="none" stroke="#000000" points="929.5,-56.5 929.5,-75.5 1033.5,-75.5 1033.5,-56.5 929.5,-56.5"/>
<text text-anchor="middle" x="981.5" y="-63.5" font-family="FreeSans" font-size="10.00" fill="#000000">compileroptionsdlg.h</text>
</a>
</g>
</g>
<!-- Node15&#45;&gt;Node27 -->
<g id="edge13" class="edge">
<title>Node15&#45;&gt;Node27</title>
<path fill="none" stroke="#191970" d="M731.5852,-111.0007C789.2823,-100.6115 874.8848,-85.1976 929.4271,-75.3765"/>
<polygon fill="#191970" stroke="#191970" points="730.7285,-107.5986 721.5071,-112.8154 731.9691,-114.4878 730.7285,-107.5986"/>
</g>
<!-- Node29 -->
<g id="node15" class="node">
<title>Node29</title>
<g id="a_node15"><a xlink:href="debuggeroptionsprjdlg_8h" target="_top" xlink:title="debuggeroptionsprjdlg.h">
<polygon fill="none" stroke="#000000" points="1128.5,-56.5 1128.5,-75.5 1246.5,-75.5 1246.5,-56.5 1128.5,-56.5"/>
<text text-anchor="middle" x="1187.5" y="-63.5" font-family="FreeSans" font-size="10.00" fill="#000000">debuggeroptionsprjdlg.h</text>
</a>
</g>
</g>
<!-- Node15&#45;&gt;Node29 -->
<g id="edge16" class="edge">
<title>Node15&#45;&gt;Node29</title>
<path fill="none" stroke="#191970" d="M731.9386,-115.3451C832.185,-104.4867 1029.6336,-83.0997 1128.3667,-72.4051"/>
<polygon fill="#191970" stroke="#191970" points="731.527,-111.8692 721.9621,-116.4258 732.2808,-118.8285 731.527,-111.8692"/>
</g>
<!-- Node22 -->
<g id="node8" class="node">
<title>Node22</title>
<g id="a_node8"><a xlink:href="ccoptionsdlg_8cpp" target="_top" xlink:title="ccoptionsdlg.cpp">
<polygon fill="none" stroke="#000000" points="559,-.5 559,-19.5 648,-19.5 648,-.5 559,-.5"/>
<text text-anchor="middle" x="603.5" y="-7.5" font-family="FreeSans" font-size="10.00" fill="#000000">ccoptionsdlg.cpp</text>
</a>
</g>
</g>
<!-- Node21&#45;&gt;Node22 -->
<g id="edge7" class="edge">
<title>Node21&#45;&gt;Node22</title>
<path fill="none" stroke="#191970" d="M695.9935,-52.1109C673.6888,-41.9559 644.0201,-28.4482 624.3685,-19.5011"/>
<polygon fill="#191970" stroke="#191970" points="694.8041,-55.415 705.3555,-56.3733 697.7047,-49.0442 694.8041,-55.415"/>
</g>
<!-- Node23 -->
<g id="node9" class="node">
<title>Node23</title>
<g id="a_node9"><a xlink:href="codecompletion_8cpp" target="_top" xlink:title="codecompletion.cpp">
<polygon fill="none" stroke="#000000" points="666,-.5 666,-19.5 769,-19.5 769,-.5 666,-.5"/>
<text text-anchor="middle" x="717.5" y="-7.5" font-family="FreeSans" font-size="10.00" fill="#000000">codecompletion.cpp</text>
</a>
</g>
</g>
<!-- Node21&#45;&gt;Node23 -->
<g id="edge8" class="edge">
<title>Node21&#45;&gt;Node23</title>
<path fill="none" stroke="#191970" d="M723.311,-46.1575C721.8642,-37.155 720.2193,-26.9199 719.0497,-19.6427"/>
<polygon fill="#191970" stroke="#191970" points="719.8898,-46.9276 724.9323,-56.2455 726.8011,-45.8168 719.8898,-46.9276"/>
</g>
<!-- Node24&#45;&gt;Node23 -->
<g id="edge11" class="edge">
<title>Node24&#45;&gt;Node23</title>
<path fill="none" stroke="#191970" d="M800.4266,-51.8368C780.3615,-41.7139 753.9078,-28.3679 736.3326,-19.5011"/>
<polygon fill="#191970" stroke="#191970" points="798.9138,-54.9938 809.4184,-56.3733 802.0668,-48.7441 798.9138,-54.9938"/>
</g>
<!-- Node25 -->
<g id="node11" class="node">
<title>Node25</title>
<g id="a_node11"><a xlink:href="ccoptionsprjdlg_8cpp" target="_top" xlink:title="ccoptionsprjdlg.cpp">
<polygon fill="none" stroke="#000000" points="787,-.5 787,-19.5 886,-19.5 886,-.5 787,-.5"/>
<text text-anchor="middle" x="836.5" y="-7.5" font-family="FreeSans" font-size="10.00" fill="#000000">ccoptionsprjdlg.cpp</text>
</a>
</g>
</g>
<!-- Node24&#45;&gt;Node25 -->
<g id="edge10" class="edge">
<title>Node24&#45;&gt;Node25</title>
<path fill="none" stroke="#191970" d="M831.3346,-46.1575C832.6207,-37.155 834.0829,-26.9199 835.1225,-19.6427"/>
<polygon fill="#191970" stroke="#191970" points="827.843,-45.851 829.8935,-56.2455 834.7726,-46.8411 827.843,-45.851"/>
</g>
<!-- Node27&#45;&gt;Node26 -->
<g id="edge14" class="edge">
<title>Node27&#45;&gt;Node26</title>
<path fill="none" stroke="#191970" d="M970.3465,-47.6296C964.6753,-38.2887 958.0155,-27.3197 953.3545,-19.6427"/>
<polygon fill="#191970" stroke="#191970" points="967.3961,-49.5141 975.5777,-56.2455 973.3796,-45.8812 967.3961,-49.5141"/>
</g>
<!-- Node28 -->
<g id="node14" class="node">
<title>Node28</title>
<g id="a_node14"><a xlink:href="compileroptionsdlg_8cpp" target="_top" xlink:title="compileroptionsdlg.cpp">
<polygon fill="none" stroke="#000000" points="1009,-.5 1009,-19.5 1124,-19.5 1124,-.5 1009,-.5"/>
<text text-anchor="middle" x="1066.5" y="-7.5" font-family="FreeSans" font-size="10.00" fill="#000000">compileroptionsdlg.cpp</text>
</a>
</g>
</g>
<!-- Node27&#45;&gt;Node28 -->
<g id="edge15" class="edge">
<title>Node27&#45;&gt;Node28</title>
<path fill="none" stroke="#191970" d="M1005.0419,-50.49C1020.039,-40.6096 1038.9973,-28.1194 1051.8638,-19.6427"/>
<polygon fill="#191970" stroke="#191970" points="1002.7309,-47.8212 996.3059,-56.2455 1006.5821,-53.6666 1002.7309,-47.8212"/>
</g>
<!-- Node30 -->
<g id="node16" class="node">
<title>Node30</title>
<g id="a_node16"><a xlink:href="debuggergdb_8cpp" target="_top" xlink:title="debuggergdb.cpp">
<polygon fill="none" stroke="#000000" points="1142.5,-.5 1142.5,-19.5 1232.5,-19.5 1232.5,-.5 1142.5,-.5"/>
<text text-anchor="middle" x="1187.5" y="-7.5" font-family="FreeSans" font-size="10.00" fill="#000000">debuggergdb.cpp</text>
</a>
</g>
</g>
<!-- Node29&#45;&gt;Node30 -->
<g id="edge17" class="edge">
<title>Node29&#45;&gt;Node30</title>
<path fill="none" stroke="#191970" d="M1187.5,-46.1575C1187.5,-37.155 1187.5,-26.9199 1187.5,-19.6427"/>
<polygon fill="#191970" stroke="#191970" points="1184.0001,-46.2455 1187.5,-56.2455 1191.0001,-46.2456 1184.0001,-46.2455"/>
</g>
<!-- Node31 -->
<g id="node17" class="node">
<title>Node31</title>
<g id="a_node17"><a xlink:href="debuggeroptionsprjdlg_8cpp" target="_top" xlink:title="debuggeroptionsprjdlg.cpp">
<polygon fill="none" stroke="#000000" points="1250.5,-.5 1250.5,-19.5 1378.5,-19.5 1378.5,-.5 1250.5,-.5"/>
<text text-anchor="middle" x="1314.5" y="-7.5" font-family="FreeSans" font-size="10.00" fill="#000000">debuggeroptionsprjdlg.cpp</text>
</a>
</g>
</g>
<!-- Node29&#45;&gt;Node31 -->
<g id="edge18" class="edge">
<title>Node29&#45;&gt;Node31</title>
<path fill="none" stroke="#191970" d="M1218.6892,-52.2473C1241.7537,-42.0771 1272.5712,-28.4883 1292.9528,-19.5011"/>
<polygon fill="#191970" stroke="#191970" points="1217.0699,-49.1361 1209.3321,-56.3733 1219.8942,-55.5411 1217.0699,-49.1361"/>
</g>
</g>
</svg>
