<?xml version="1.0" encoding="UTF-8" standalone="no"?>
<!DOCTYPE svg PUBLIC "-//W3C//DTD SVG 1.1//EN"
 "http://www.w3.org/Graphics/SVG/1.1/DTD/svg11.dtd">
<!-- Generated by graphviz version 2.40.1 (20161225.0304)
 -->
<!-- Title: configmanager.cpp Pages: 1 -->
<svg width="2116pt" height="252pt"
 viewBox="0.00 0.00 2115.50 252.00" xmlns="http://www.w3.org/2000/svg" xmlns:xlink="http://www.w3.org/1999/xlink">
<g id="graph0" class="graph" transform="scale(1 1) rotate(0) translate(4 248)">
<title>configmanager.cpp</title>
<!-- Node0 -->
<g id="node1" class="node">
<title>Node0</title>
<polygon fill="#bfbfbf" stroke="#000000" points="1680,-224.5 1680,-243.5 1778,-243.5 1778,-224.5 1680,-224.5"/>
<text text-anchor="middle" x="1729" y="-231.5" font-family="FreeSans" font-size="10.00" fill="#000000">configmanager.cpp</text>
</g>
<!-- Node1 -->
<g id="node2" class="node">
<title>Node1</title>
<g id="a_node2"><a xlink:href="sdk__precomp_8h" target="_top" xlink:title="sdk_precomp.h">
<polygon fill="none" stroke="#000000" points="1070,-168.5 1070,-187.5 1152,-187.5 1152,-168.5 1070,-168.5"/>
<text text-anchor="middle" x="1111" y="-175.5" font-family="FreeSans" font-size="10.00" fill="#000000">sdk_precomp.h</text>
</a>
</g>
</g>
<!-- Node0&#45;&gt;Node1 -->
<g id="edge1" class="edge">
<title>Node0&#45;&gt;Node1</title>
<path fill="none" stroke="#191970" d="M1679.99,-229.559C1565.1218,-219.1502 1279.4048,-193.26 1162.3013,-182.6487"/>
<polygon fill="#191970" stroke="#191970" points="1162.4435,-179.1473 1152.1685,-181.7305 1161.8118,-186.1187 1162.4435,-179.1473"/>
</g>
<!-- Node24 -->
<g id="node19" class="node">
<title>Node24</title>
<polygon fill="none" stroke="#bfbfbf" points="1357,-56.5 1357,-75.5 1431,-75.5 1431,-56.5 1357,-56.5"/>
<text text-anchor="middle" x="1394" y="-63.5" font-family="FreeSans" font-size="10.00" fill="#000000">wx/filename.h</text>
</g>
<!-- Node0&#45;&gt;Node24 -->
<g id="edge29" class="edge">
<title>Node0&#45;&gt;Node24</title>
<path fill="none" stroke="#191970" d="M1684.854,-224.441C1653.5781,-216.788 1611.1118,-204.5855 1576,-188 1512.4924,-158.0013 1445.9175,-107.8109 1413.7369,-82.1608"/>
<polygon fill="#191970" stroke="#191970" points="1415.5881,-79.1579 1405.6035,-75.6141 1411.1989,-84.6109 1415.5881,-79.1579"/>
</g>
<!-- Node137 -->
<g id="node23" class="node">
<title>Node137</title>
<g id="a_node23"><a xlink:href="crc32_8h" target="_top" xlink:title="crc32.h">
<polygon fill="none" stroke="#000000" points="1600,-168.5 1600,-187.5 1648,-187.5 1648,-168.5 1600,-168.5"/>
<text text-anchor="middle" x="1624" y="-175.5" font-family="FreeSans" font-size="10.00" fill="#000000">crc32.h</text>
</a>
</g>
</g>
<!-- Node0&#45;&gt;Node137 -->
<g id="edge23" class="edge">
<title>Node0&#45;&gt;Node137</title>
<path fill="none" stroke="#191970" d="M1710.7104,-224.2455C1694.2238,-215.4527 1669.7648,-202.4079 1651.0235,-192.4125"/>
<polygon fill="#191970" stroke="#191970" points="1652.5506,-189.2604 1642.08,-187.6427 1649.2565,-195.4368 1652.5506,-189.2604"/>
</g>
<!-- Node138 -->
<g id="node25" class="node">
<title>Node138</title>
<polygon fill="none" stroke="#bfbfbf" points="1666.5,-168.5 1666.5,-187.5 1715.5,-187.5 1715.5,-168.5 1666.5,-168.5"/>
<text text-anchor="middle" x="1691" y="-175.5" font-family="FreeSans" font-size="10.00" fill="#000000">wx/url.h</text>
</g>
<!-- Node0&#45;&gt;Node138 -->
<g id="edge26" class="edge">
<title>Node0&#45;&gt;Node138</title>
<path fill="none" stroke="#191970" d="M1722.3809,-224.2455C1717.0954,-216.4564 1709.5459,-205.3308 1703.1762,-195.9439"/>
<polygon fill="#191970" stroke="#191970" points="1706.0545,-193.9522 1697.5432,-187.6427 1700.2621,-197.8827 1706.0545,-193.9522"/>
</g>
<!-- Node139 -->
<g id="node26" class="node">
<title>Node139</title>
<polygon fill="none" stroke="#bfbfbf" points="1734,-168.5 1734,-187.5 1802,-187.5 1802,-168.5 1734,-168.5"/>
<text text-anchor="middle" x="1768" y="-175.5" font-family="FreeSans" font-size="10.00" fill="#000000">wx/stream.h</text>
</g>
<!-- Node0&#45;&gt;Node139 -->
<g id="edge27" class="edge">
<title>Node0&#45;&gt;Node139</title>
<path fill="none" stroke="#191970" d="M1735.7933,-224.2455C1741.2178,-216.4564 1748.9661,-205.3308 1755.5033,-195.9439"/>
<polygon fill="#191970" stroke="#191970" points="1758.4417,-197.849 1761.2846,-187.6427 1752.6975,-193.8485 1758.4417,-197.849"/>
</g>
<!-- Node140 -->
<g id="node27" class="node">
<title>Node140</title>
<polygon fill="none" stroke="#bfbfbf" points="1820,-168.5 1820,-187.5 1894,-187.5 1894,-168.5 1820,-168.5"/>
<text text-anchor="middle" x="1857" y="-175.5" font-family="FreeSans" font-size="10.00" fill="#000000">wx/stdpaths.h</text>
</g>
<!-- Node0&#45;&gt;Node140 -->
<g id="edge28" class="edge">
<title>Node0&#45;&gt;Node140</title>
<path fill="none" stroke="#191970" d="M1751.004,-224.3733C1771.6435,-215.3435 1802.7158,-201.7494 1825.8889,-191.6111"/>
<polygon fill="#191970" stroke="#191970" points="1827.5245,-194.7159 1835.2831,-187.5011 1824.7187,-188.3028 1827.5245,-194.7159"/>
</g>
<!-- Node141 -->
<g id="node28" class="node">
<title>Node141</title>
<polygon fill="none" stroke="#bfbfbf" points="1912.5,-168.5 1912.5,-187.5 1961.5,-187.5 1961.5,-168.5 1912.5,-168.5"/>
<text text-anchor="middle" x="1937" y="-175.5" font-family="FreeSans" font-size="10.00" fill="#000000">shlobj.h</text>
</g>
<!-- Node0&#45;&gt;Node141 -->
<g id="edge30" class="edge">
<title>Node0&#45;&gt;Node141</title>
<path fill="none" stroke="#191970" d="M1766.4171,-224.4266C1799.6407,-215.8552 1849.7485,-202.7556 1902.3024,-188.143"/>
<polygon fill="#191970" stroke="#191970" points="1903.4491,-191.4568 1912.1403,-185.3976 1901.5676,-184.7144 1903.4491,-191.4568"/>
</g>
<!-- Node142 -->
<g id="node29" class="node">
<title>Node142</title>
<g id="a_node29"><a xlink:href="annoyingdialog_8h" target="_top" xlink:title="annoyingdialog.h">
<polygon fill="none" stroke="#000000" points="1528,-112.5 1528,-131.5 1616,-131.5 1616,-112.5 1528,-112.5"/>
<text text-anchor="middle" x="1572" y="-119.5" font-family="FreeSans" font-size="10.00" fill="#000000">annoyingdialog.h</text>
</a>
</g>
</g>
<!-- Node0&#45;&gt;Node142 -->
<g id="edge31" class="edge">
<title>Node0&#45;&gt;Node142</title>
<path fill="none" stroke="#191970" d="M1686.4532,-224.423C1651.0553,-215.6491 1604.3749,-201.9412 1591,-188 1579.1596,-175.6583 1574.6227,-156.4268 1572.9222,-141.9008"/>
<polygon fill="#191970" stroke="#191970" points="1576.4079,-141.5817 1572.1007,-131.9019 1569.4314,-142.155 1576.4079,-141.5817"/>
</g>
<!-- Node144 -->
<g id="node31" class="node">
<title>Node144</title>
<g id="a_node31"><a xlink:href="tinywxuni_8h" target="_top" xlink:title="tinywxuni.h">
<polygon fill="none" stroke="#000000" points="1979.5,-168.5 1979.5,-187.5 2042.5,-187.5 2042.5,-168.5 1979.5,-168.5"/>
<text text-anchor="middle" x="2011" y="-175.5" font-family="FreeSans" font-size="10.00" fill="#000000">tinywxuni.h</text>
</a>
</g>
</g>
<!-- Node0&#45;&gt;Node144 -->
<g id="edge36" class="edge">
<title>Node0&#45;&gt;Node144</title>
<path fill="none" stroke="#191970" d="M1778.298,-225.4809C1825.1167,-217.1991 1897.7027,-203.8663 1969.0984,-188.339"/>
<polygon fill="#191970" stroke="#191970" points="1970.1429,-191.6932 1979.1619,-186.1338 1968.6445,-184.8555 1970.1429,-191.6932"/>
</g>
<!-- Node145 -->
<g id="node32" class="node">
<title>Node145</title>
<polygon fill="none" stroke="#bfbfbf" points="2060.5,-168.5 2060.5,-187.5 2107.5,-187.5 2107.5,-168.5 2060.5,-168.5"/>
<text text-anchor="middle" x="2084" y="-175.5" font-family="FreeSans" font-size="10.00" fill="#000000">stdlib.h</text>
</g>
<!-- Node0&#45;&gt;Node145 -->
<g id="edge37" class="edge">
<title>Node0&#45;&gt;Node145</title>
<path fill="none" stroke="#191970" d="M1778.1484,-229.494C1839.8636,-223.2864 1949.0478,-210.4874 2050.553,-188.0586"/>
<polygon fill="#191970" stroke="#191970" points="2051.3605,-191.4645 2060.3502,-185.8579 2049.8263,-184.6347 2051.3605,-191.4645"/>
</g>
<!-- Node2 -->
<g id="node3" class="node">
<title>Node2</title>
<g id="a_node3"><a xlink:href="sdk__common_8h" target="_top" xlink:title="sdk_common.h">
<polygon fill="none" stroke="#ff0000" points="822,-112.5 822,-131.5 904,-131.5 904,-112.5 822,-112.5"/>
<text text-anchor="middle" x="863" y="-119.5" font-family="FreeSans" font-size="10.00" fill="#000000">sdk_common.h</text>
</a>
</g>
</g>
<!-- Node1&#45;&gt;Node2 -->
<g id="edge2" class="edge">
<title>Node1&#45;&gt;Node2</title>
<path fill="none" stroke="#191970" d="M1069.7695,-168.6899C1027.0394,-159.0411 960.1765,-143.9431 914.1148,-133.542"/>
<polygon fill="#191970" stroke="#191970" points="914.8545,-130.121 904.3291,-131.3324 913.3126,-136.9491 914.8545,-130.121"/>
</g>
<!-- Node3 -->
<g id="node4" class="node">
<title>Node3</title>
<polygon fill="none" stroke="#bfbfbf" points="1137,-56.5 1137,-75.5 1205,-75.5 1205,-56.5 1137,-56.5"/>
<text text-anchor="middle" x="1171" y="-63.5" font-family="FreeSans" font-size="10.00" fill="#000000">wx/wxprec.h</text>
</g>
<!-- Node2&#45;&gt;Node3 -->
<g id="edge3" class="edge">
<title>Node2&#45;&gt;Node3</title>
<path fill="none" stroke="#191970" d="M904.4471,-115.5508C954.7295,-107.5622 1042.296,-93.1241 1126.7555,-76.1699"/>
<polygon fill="#191970" stroke="#191970" points="1127.6629,-79.5573 1136.7706,-74.1445 1126.2752,-72.6962 1127.6629,-79.5573"/>
</g>
<!-- Node4 -->
<g id="node5" class="node">
<title>Node4</title>
<g id="a_node5"><a xlink:href="prep_8h" target="_top" xlink:title="prep.h">
<polygon fill="none" stroke="#000000" points="1223.5,-56.5 1223.5,-75.5 1266.5,-75.5 1266.5,-56.5 1223.5,-56.5"/>
<text text-anchor="middle" x="1245" y="-63.5" font-family="FreeSans" font-size="10.00" fill="#000000">prep.h</text>
</a>
</g>
</g>
<!-- Node2&#45;&gt;Node4 -->
<g id="edge4" class="edge">
<title>Node2&#45;&gt;Node4</title>
<path fill="none" stroke="#191970" d="M904.2256,-119.0394C968.4458,-113.8978 1096.2831,-101.5422 1213.5917,-75.7122"/>
<polygon fill="#191970" stroke="#191970" points="1214.4656,-79.1033 1223.4586,-73.5017 1212.9353,-72.2726 1214.4656,-79.1033"/>
</g>
<!-- Node5 -->
<g id="node6" class="node">
<title>Node5</title>
<polygon fill="none" stroke="#bfbfbf" points="1285,-56.5 1285,-75.5 1339,-75.5 1339,-56.5 1285,-56.5"/>
<text text-anchor="middle" x="1312" y="-63.5" font-family="FreeSans" font-size="10.00" fill="#000000">wx/app.h</text>
</g>
<!-- Node2&#45;&gt;Node5 -->
<g id="edge5" class="edge">
<title>Node2&#45;&gt;Node5</title>
<path fill="none" stroke="#191970" d="M904.2441,-119.4889C977.0326,-114.6046 1133.1117,-102.1048 1274.4776,-75.8144"/>
<polygon fill="#191970" stroke="#191970" points="1275.4522,-79.1923 1284.6291,-73.8976 1274.1533,-72.3138 1275.4522,-79.1923"/>
</g>
<!-- Node6 -->
<g id="node7" class="node">
<title>Node6</title>
<polygon fill="none" stroke="#bfbfbf" points="0,-56.5 0,-75.5 60,-75.5 60,-56.5 0,-56.5"/>
<text text-anchor="middle" x="30" y="-63.5" font-family="FreeSans" font-size="10.00" fill="#000000">wx/arrstr.h</text>
</g>
<!-- Node2&#45;&gt;Node6 -->
<g id="edge6" class="edge">
<title>Node2&#45;&gt;Node6</title>
<path fill="none" stroke="#191970" d="M821.6957,-120.6619C683.2062,-116.0137 235.2436,-99.63 70.109,-75.8382"/>
<polygon fill="#191970" stroke="#191970" points="70.5236,-72.3613 60.114,-74.3341 69.4818,-79.2833 70.5236,-72.3613"/>
</g>
<!-- Node7 -->
<g id="node8" class="node">
<title>Node7</title>
<polygon fill="none" stroke="#bfbfbf" points="78.5,-56.5 78.5,-75.5 157.5,-75.5 157.5,-56.5 78.5,-56.5"/>
<text text-anchor="middle" x="118" y="-63.5" font-family="FreeSans" font-size="10.00" fill="#000000">wx/bmpbuttn.h</text>
</g>
<!-- Node2&#45;&gt;Node7 -->
<g id="edge7" class="edge">
<title>Node2&#45;&gt;Node7</title>
<path fill="none" stroke="#191970" d="M821.9474,-121.2874C715.434,-119.013 421.4113,-110.0248 167.8777,-76.0974"/>
<polygon fill="#191970" stroke="#191970" points="168.1178,-72.598 157.7385,-74.7242 167.1782,-79.5347 168.1178,-72.598"/>
</g>
<!-- Node8 -->
<g id="node9" class="node">
<title>Node8</title>
<polygon fill="none" stroke="#bfbfbf" points="175.5,-56.5 175.5,-75.5 240.5,-75.5 240.5,-56.5 175.5,-56.5"/>
<text text-anchor="middle" x="208" y="-63.5" font-family="FreeSans" font-size="10.00" fill="#000000">wx/button.h</text>
</g>
<!-- Node2&#45;&gt;Node8 -->
<g id="edge8" class="edge">
<title>Node2&#45;&gt;Node8</title>
<path fill="none" stroke="#191970" d="M821.8522,-121.1651C724.3121,-118.7047 471.3576,-109.5033 251.0511,-75.9252"/>
<polygon fill="#191970" stroke="#191970" points="251.3341,-72.4275 240.917,-74.3596 250.2654,-79.3454 251.3341,-72.4275"/>
</g>
<!-- Node9 -->
<g id="node10" class="node">
<title>Node9</title>
<polygon fill="none" stroke="#bfbfbf" points="259,-56.5 259,-75.5 339,-75.5 339,-56.5 259,-56.5"/>
<text text-anchor="middle" x="299" y="-63.5" font-family="FreeSans" font-size="10.00" fill="#000000">wx/checkbox.h</text>
</g>
<!-- Node2&#45;&gt;Node9 -->
<g id="edge9" class="edge">
<title>Node2&#45;&gt;Node9</title>
<path fill="none" stroke="#191970" d="M821.7607,-119.8918C735.7429,-115.1554 530.7819,-102.1025 349.0532,-76.0077"/>
<polygon fill="#191970" stroke="#191970" points="349.4462,-72.5281 339.0469,-74.5541 348.4399,-79.4554 349.4462,-72.5281"/>
</g>
<!-- Node10 -->
<g id="node11" class="node">
<title>Node10</title>
<polygon fill="none" stroke="#bfbfbf" points="357,-56.5 357,-75.5 431,-75.5 431,-56.5 357,-56.5"/>
<text text-anchor="middle" x="394" y="-63.5" font-family="FreeSans" font-size="10.00" fill="#000000">wx/checklst.h</text>
</g>
<!-- Node2&#45;&gt;Node10 -->
<g id="edge10" class="edge">
<title>Node2&#45;&gt;Node10</title>
<path fill="none" stroke="#191970" d="M821.972,-118.9889C747.8875,-113.2375 586.716,-99.2898 441.1041,-76.034"/>
<polygon fill="#191970" stroke="#191970" points="441.5231,-72.5564 431.0928,-74.4162 440.4063,-79.4667 441.5231,-72.5564"/>
</g>
<!-- Node11 -->
<g id="node12" class="node">
<title>Node11</title>
<polygon fill="none" stroke="#bfbfbf" points="449.5,-56.5 449.5,-75.5 516.5,-75.5 516.5,-56.5 449.5,-56.5"/>
<text text-anchor="middle" x="483" y="-63.5" font-family="FreeSans" font-size="10.00" fill="#000000">wx/choice.h</text>
</g>
<!-- Node2&#45;&gt;Node11 -->
<g id="edge11" class="edge">
<title>Node2&#45;&gt;Node11</title>
<path fill="none" stroke="#191970" d="M821.8223,-117.6274C759.9918,-110.7892 639.3214,-96.3896 526.8943,-76.0189"/>
<polygon fill="#191970" stroke="#191970" points="527.2062,-72.5179 516.7391,-74.1582 525.9446,-79.4033 527.2062,-72.5179"/>
</g>
<!-- Node12 -->
<g id="node13" class="node">
<title>Node12</title>
<polygon fill="none" stroke="#bfbfbf" points="535,-56.5 535,-75.5 609,-75.5 609,-56.5 535,-56.5"/>
<text text-anchor="middle" x="572" y="-63.5" font-family="FreeSans" font-size="10.00" fill="#000000">wx/choicdlg.h</text>
</g>
<!-- Node2&#45;&gt;Node12 -->
<g id="edge12" class="edge">
<title>Node2&#45;&gt;Node12</title>
<path fill="none" stroke="#191970" d="M821.7487,-114.625C774.9991,-106.1849 696.2656,-91.7234 619.0364,-76.1697"/>
<polygon fill="#191970" stroke="#191970" points="619.6333,-72.7197 609.138,-74.1684 618.246,-79.5808 619.6333,-72.7197"/>
</g>
<!-- Node13 -->
<g id="node14" class="node">
<title>Node13</title>
<polygon fill="none" stroke="#bfbfbf" points="627,-56.5 627,-75.5 699,-75.5 699,-56.5 627,-56.5"/>
<text text-anchor="middle" x="663" y="-63.5" font-family="FreeSans" font-size="10.00" fill="#000000">wx/colordlg.h</text>
</g>
<!-- Node2&#45;&gt;Node13 -->
<g id="edge13" class="edge">
<title>Node2&#45;&gt;Node13</title>
<path fill="none" stroke="#191970" d="M828.6188,-112.3733C794.9299,-102.9404 743.4518,-88.5265 706.8382,-78.2747"/>
<polygon fill="#191970" stroke="#191970" points="707.506,-74.8271 696.9326,-75.5011 705.6185,-81.5679 707.506,-74.8271"/>
</g>
<!-- Node14 -->
<g id="node15" class="node">
<title>Node14</title>
<polygon fill="none" stroke="#bfbfbf" points="717.5,-56.5 717.5,-75.5 800.5,-75.5 800.5,-56.5 717.5,-56.5"/>
<text text-anchor="middle" x="759" y="-63.5" font-family="FreeSans" font-size="10.00" fill="#000000">wx/combobox.h</text>
</g>
<!-- Node2&#45;&gt;Node14 -->
<g id="edge14" class="edge">
<title>Node2&#45;&gt;Node14</title>
<path fill="none" stroke="#191970" d="M844.8846,-112.2455C828.555,-103.4527 804.329,-90.4079 785.7661,-80.4125"/>
<polygon fill="#191970" stroke="#191970" points="787.3719,-77.3021 776.9078,-75.6427 784.0532,-83.4654 787.3719,-77.3021"/>
</g>
<!-- Node15 -->
<g id="node16" class="node">
<title>Node15</title>
<polygon fill="none" stroke="#bfbfbf" points="857.5,-56.5 857.5,-75.5 934.5,-75.5 934.5,-56.5 857.5,-56.5"/>
<text text-anchor="middle" x="896" y="-63.5" font-family="FreeSans" font-size="10.00" fill="#000000">wx/confbase.h</text>
</g>
<!-- Node2&#45;&gt;Node15 -->
<g id="edge15" class="edge">
<title>Node2&#45;&gt;Node15</title>
<path fill="none" stroke="#191970" d="M868.7482,-112.2455C873.2435,-104.617 879.6248,-93.7881 885.0825,-84.5267"/>
<polygon fill="#191970" stroke="#191970" points="888.2561,-86.035 890.3177,-75.6427 882.2253,-82.4811 888.2561,-86.035"/>
</g>
<!-- Node16 -->
<g id="node17" class="node">
<title>Node16</title>
<polygon fill="none" stroke="#bfbfbf" points="953,-56.5 953,-75.5 1029,-75.5 1029,-56.5 953,-56.5"/>
<text text-anchor="middle" x="991" y="-63.5" font-family="FreeSans" font-size="10.00" fill="#000000">wx/datetime.h</text>
</g>
<!-- Node2&#45;&gt;Node16 -->
<g id="edge16" class="edge">
<title>Node2&#45;&gt;Node16</title>
<path fill="none" stroke="#191970" d="M885.004,-112.3733C905.6435,-103.3435 936.7158,-89.7494 959.8889,-79.6111"/>
<polygon fill="#191970" stroke="#191970" points="961.5245,-82.7159 969.2831,-75.5011 958.7187,-76.3028 961.5245,-82.7159"/>
</g>
<!-- Node17 -->
<g id="node18" class="node">
<title>Node17</title>
<polygon fill="none" stroke="#bfbfbf" points="1047,-56.5 1047,-75.5 1119,-75.5 1119,-56.5 1047,-56.5"/>
<text text-anchor="middle" x="1083" y="-63.5" font-family="FreeSans" font-size="10.00" fill="#000000">wx/dcclient.h</text>
</g>
<!-- Node2&#45;&gt;Node17 -->
<g id="edge17" class="edge">
<title>Node2&#45;&gt;Node17</title>
<path fill="none" stroke="#191970" d="M900.8193,-112.3733C938.5336,-102.7733 996.5155,-88.0142 1036.9029,-77.7338"/>
<polygon fill="#191970" stroke="#191970" points="1037.9412,-81.0812 1046.7687,-75.2225 1036.2144,-74.2975 1037.9412,-81.0812"/>
</g>
<!-- Node2&#45;&gt;Node24 -->
<g id="edge18" class="edge">
<title>Node2&#45;&gt;Node24</title>
<path fill="none" stroke="#191970" d="M904.0839,-119.7652C986.2868,-114.9356 1176.9723,-101.9358 1346.7916,-76.0244"/>
<polygon fill="#191970" stroke="#191970" points="1347.5659,-79.4463 1356.9143,-74.4605 1346.4971,-72.5284 1347.5659,-79.4463"/>
</g>
<!-- Node53 -->
<g id="node20" class="node">
<title>Node53</title>
<polygon fill="none" stroke="#bfbfbf" points="1449,-56.5 1449,-75.5 1511,-75.5 1511,-56.5 1449,-56.5"/>
<text text-anchor="middle" x="1480" y="-63.5" font-family="FreeSans" font-size="10.00" fill="#000000">wx/string.h</text>
</g>
<!-- Node2&#45;&gt;Node53 -->
<g id="edge19" class="edge">
<title>Node2&#45;&gt;Node53</title>
<path fill="none" stroke="#191970" d="M904.2072,-121.0512C997.7157,-118.3985 1233.1635,-108.9044 1438.5913,-75.9919"/>
<polygon fill="#191970" stroke="#191970" points="1439.3502,-79.4146 1448.6594,-74.3559 1438.2275,-72.5052 1439.3502,-79.4146"/>
</g>
<!-- Node71 -->
<g id="node21" class="node">
<title>Node71</title>
<g id="a_node21"><a xlink:href="settings_8h" target="_top" xlink:title="settings.h">
<polygon fill="none" stroke="#000000" points="1578.5,-.5 1578.5,-19.5 1635.5,-19.5 1635.5,-.5 1578.5,-.5"/>
<text text-anchor="middle" x="1607" y="-7.5" font-family="FreeSans" font-size="10.00" fill="#000000">settings.h</text>
</a>
</g>
</g>
<!-- Node2&#45;&gt;Node71 -->
<g id="edge20" class="edge">
<title>Node2&#45;&gt;Node71</title>
<path fill="none" stroke="#191970" d="M855.9859,-112.0754C846.8084,-97.7742 833.5034,-71.4017 848,-56 872.9061,-29.5387 1416.5992,-14.5636 1568.1136,-10.8941"/>
<polygon fill="#191970" stroke="#191970" points="1568.419,-14.3879 1578.3323,-10.6494 1568.2514,-7.3899 1568.419,-14.3879"/>
</g>
<!-- Node107 -->
<g id="node22" class="node">
<title>Node107</title>
<g id="a_node22"><a xlink:href="scrollingdialog_8h" target="_top" xlink:title="scrollingdialog.h">
<polygon fill="none" stroke="#ff0000" points="1529.5,-56.5 1529.5,-75.5 1614.5,-75.5 1614.5,-56.5 1529.5,-56.5"/>
<text text-anchor="middle" x="1572" y="-63.5" font-family="FreeSans" font-size="10.00" fill="#000000">scrollingdialog.h</text>
</a>
</g>
</g>
<!-- Node2&#45;&gt;Node107 -->
<g id="edge21" class="edge">
<title>Node2&#45;&gt;Node107</title>
<path fill="none" stroke="#191970" d="M904.2994,-120.8307C1006.6802,-117.564 1280.5239,-106.5795 1518.9652,-75.9802"/>
<polygon fill="#191970" stroke="#191970" points="1519.751,-79.4076 1529.2173,-74.6495 1518.8499,-72.4659 1519.751,-79.4076"/>
</g>
<!-- Node107&#45;&gt;Node71 -->
<g id="edge22" class="edge">
<title>Node107&#45;&gt;Node71</title>
<path fill="none" stroke="#191970" d="M1578.0965,-56.2455C1582.9145,-48.5367 1589.7751,-37.5598 1595.6032,-28.2348"/>
<polygon fill="#191970" stroke="#191970" points="1598.6413,-29.9777 1600.9733,-19.6427 1592.7053,-26.2677 1598.6413,-29.9777"/>
</g>
<!-- Node137&#45;&gt;Node71 -->
<g id="edge24" class="edge">
<title>Node137&#45;&gt;Node71</title>
<path fill="none" stroke="#191970" d="M1648.0036,-168.4915C1692.9969,-149.2662 1782.4979,-103.542 1748,-56 1735.8359,-39.2365 1683.2779,-25.3762 1645.8982,-17.3902"/>
<polygon fill="#191970" stroke="#191970" points="1646.3064,-13.9005 1635.8039,-15.296 1644.8844,-20.7545 1646.3064,-13.9005"/>
</g>
<!-- Node64 -->
<g id="node24" class="node">
<title>Node64</title>
<polygon fill="none" stroke="#bfbfbf" points="1634,-112.5 1634,-131.5 1690,-131.5 1690,-112.5 1634,-112.5"/>
<text text-anchor="middle" x="1662" y="-119.5" font-family="FreeSans" font-size="10.00" fill="#000000">wx/defs.h</text>
</g>
<!-- Node137&#45;&gt;Node64 -->
<g id="edge25" class="edge">
<title>Node137&#45;&gt;Node64</title>
<path fill="none" stroke="#191970" d="M1630.6191,-168.2455C1635.9046,-160.4564 1643.4541,-149.3308 1649.8238,-139.9439"/>
<polygon fill="#191970" stroke="#191970" points="1652.7379,-141.8827 1655.4568,-131.6427 1646.9455,-137.9522 1652.7379,-141.8827"/>
</g>
<!-- Node142&#45;&gt;Node53 -->
<g id="edge34" class="edge">
<title>Node142&#45;&gt;Node53</title>
<path fill="none" stroke="#191970" d="M1555.9748,-112.2455C1541.8592,-103.6534 1521.0737,-91.0014 1504.8101,-81.1018"/>
<polygon fill="#191970" stroke="#191970" points="1506.2034,-77.8525 1495.8415,-75.6427 1502.5637,-83.8319 1506.2034,-77.8525"/>
</g>
<!-- Node142&#45;&gt;Node71 -->
<g id="edge32" class="edge">
<title>Node142&#45;&gt;Node71</title>
<path fill="none" stroke="#191970" d="M1589.0567,-112.377C1601.3089,-104.4014 1616.8708,-91.8248 1624,-76 1630.8831,-60.7213 1624.9475,-42.148 1618.2698,-28.6015"/>
<polygon fill="#191970" stroke="#191970" points="1621.3039,-26.8548 1613.4489,-19.745 1615.1557,-30.2014 1621.3039,-26.8548"/>
</g>
<!-- Node142&#45;&gt;Node107 -->
<g id="edge33" class="edge">
<title>Node142&#45;&gt;Node107</title>
<path fill="none" stroke="#191970" d="M1572,-112.2455C1572,-104.9382 1572,-94.6944 1572,-85.7046"/>
<polygon fill="#191970" stroke="#191970" points="1575.5001,-85.6426 1572,-75.6427 1568.5001,-85.6427 1575.5001,-85.6426"/>
</g>
<!-- Node143 -->
<g id="node30" class="node">
<title>Node143</title>
<polygon fill="none" stroke="#bfbfbf" points="1671,-56.5 1671,-75.5 1739,-75.5 1739,-56.5 1671,-56.5"/>
<text text-anchor="middle" x="1705" y="-63.5" font-family="FreeSans" font-size="10.00" fill="#000000">wx/artprov.h</text>
</g>
<!-- Node142&#45;&gt;Node143 -->
<g id="edge35" class="edge">
<title>Node142&#45;&gt;Node143</title>
<path fill="none" stroke="#191970" d="M1594.8635,-112.3733C1616.405,-103.3032 1648.8838,-89.6279 1672.9956,-79.4755"/>
<polygon fill="#191970" stroke="#191970" points="1674.5767,-82.6075 1682.4348,-75.5011 1671.8603,-76.156 1674.5767,-82.6075"/>
</g>
</g>
</svg>
