<?xml version="1.0" encoding="UTF-8" standalone="no"?>
<!DOCTYPE svg PUBLIC "-//W3C//DTD SVG 1.1//EN"
 "http://www.w3.org/Graphics/SVG/1.1/DTD/svg11.dtd">
<!-- Generated by graphviz version 2.38.0 (20140413.2041)
 -->
<!-- Title: crashhandler.cpp Pages: 1 -->
<svg width="2008pt" height="308pt"
 viewBox="0.00 0.00 2008.08 308.00" xmlns="http://www.w3.org/2000/svg" xmlns:xlink="http://www.w3.org/1999/xlink">
<g id="graph0" class="graph" transform="scale(1 1) rotate(0) translate(4 304)">
<title>crashhandler.cpp</title>
<polygon fill="white" stroke="none" points="-4,4 -4,-304 2004.08,-304 2004.08,4 -4,4"/>
<!-- Node1 -->
<g id="node1" class="node"><title>Node1</title>
<polygon fill="#bfbfbf" stroke="black" points="508.576,-280.5 508.576,-299.5 597.576,-299.5 597.576,-280.5 508.576,-280.5"/>
<text text-anchor="middle" x="553.076" y="-287.5" font-family="FreeSans" font-size="10.00">crashhandler.cpp</text>
</g>
<!-- Node2 -->
<g id="node2" class="node"><title>Node2</title>
<g id="a_node2"><a xlink:href="sdk_8h" target="_top" xlink:title="sdk.h">
<polygon fill="white" stroke="black" points="106.576,-224.5 106.576,-243.5 145.576,-243.5 145.576,-224.5 106.576,-224.5"/>
<text text-anchor="middle" x="126.076" y="-231.5" font-family="FreeSans" font-size="10.00">sdk.h</text>
</a>
</g>
</g>
<!-- Node1&#45;&gt;Node2 -->
<g id="edge1" class="edge"><title>Node1&#45;&gt;Node2</title>
<path fill="none" stroke="midnightblue" d="M508.559,-286.012C435.374,-280.63 285.261,-267.607 160.076,-244 158.613,-243.724 157.121,-243.419 155.618,-243.093"/>
<polygon fill="midnightblue" stroke="midnightblue" points="156.282,-239.654 145.742,-240.723 154.648,-246.46 156.282,-239.654"/>
</g>
<!-- Node6 -->
<g id="node6" class="node"><title>Node6</title>
<polygon fill="white" stroke="#bfbfbf" points="29.5756,-224.5 29.5756,-243.5 88.5756,-243.5 88.5756,-224.5 29.5756,-224.5"/>
<text text-anchor="middle" x="59.0756" y="-231.5" font-family="FreeSans" font-size="10.00">wx/filefn.h</text>
</g>
<!-- Node1&#45;&gt;Node6 -->
<g id="edge5" class="edge"><title>Node1&#45;&gt;Node6</title>
<path fill="none" stroke="midnightblue" d="M508.475,-286.591C428.304,-281.829 254.428,-269.537 99.0743,-244.147"/>
<polygon fill="midnightblue" stroke="midnightblue" points="99.3072,-240.638 88.8695,-242.456 98.1626,-247.544 99.3072,-240.638"/>
</g>
<!-- Node7 -->
<g id="node7" class="node"><title>Node7</title>
<polygon fill="white" stroke="#bfbfbf" points="126.076,-0.5 126.076,-19.5 200.076,-19.5 200.076,-0.5 126.076,-0.5"/>
<text text-anchor="middle" x="163.076" y="-7.5" font-family="FreeSans" font-size="10.00">wx/filename.h</text>
</g>
<!-- Node1&#45;&gt;Node7 -->
<g id="edge6" class="edge"><title>Node1&#45;&gt;Node7</title>
<path fill="none" stroke="midnightblue" d="M508.269,-288.081C386.749,-285.194 57.5068,-274.6 20.0756,-244 -3.22665,-224.95 1.07555,-209.098 1.07555,-179 1.07555,-179 1.07555,-179 1.07555,-121 1.07555,-64.9818 68.1938,-35.5039 116.026,-21.6088"/>
<polygon fill="midnightblue" stroke="midnightblue" points="117.204,-24.9147 125.909,-18.8764 115.338,-18.1678 117.204,-24.9147"/>
</g>
<!-- Node8 -->
<g id="node8" class="node"><title>Node8</title>
<polygon fill="white" stroke="#bfbfbf" points="366.076,-0.5 366.076,-19.5 428.076,-19.5 428.076,-0.5 366.076,-0.5"/>
<text text-anchor="middle" x="397.076" y="-7.5" font-family="FreeSans" font-size="10.00">wx/string.h</text>
</g>
<!-- Node1&#45;&gt;Node8 -->
<g id="edge7" class="edge"><title>Node1&#45;&gt;Node8</title>
<path fill="none" stroke="midnightblue" d="M520.782,-280.486C463.323,-263.391 344.804,-218.869 296.076,-132 271.64,-88.4385 333.397,-45.482 370.857,-24.4138"/>
<polygon fill="midnightblue" stroke="midnightblue" points="372.686,-27.4028 379.79,-19.542 369.335,-21.2573 372.686,-27.4028"/>
</g>
<!-- Node9 -->
<g id="node9" class="node"><title>Node9</title>
<g id="a_node9"><a xlink:href="cbeditor_8h" target="_top" xlink:title="cbeditor.h">
<polygon fill="white" stroke="black" points="823.576,-224.5 823.576,-243.5 882.576,-243.5 882.576,-224.5 823.576,-224.5"/>
<text text-anchor="middle" x="853.076" y="-231.5" font-family="FreeSans" font-size="10.00">cbeditor.h</text>
</a>
</g>
</g>
<!-- Node1&#45;&gt;Node9 -->
<g id="edge8" class="edge"><title>Node1&#45;&gt;Node9</title>
<path fill="none" stroke="midnightblue" d="M597.665,-280.974C656.055,-270.464 757.538,-252.197 813.39,-242.143"/>
<polygon fill="midnightblue" stroke="midnightblue" points="814.046,-245.582 823.268,-240.365 812.806,-238.692 814.046,-245.582"/>
</g>
<!-- Node18 -->
<g id="node18" class="node"><title>Node18</title>
<g id="a_node18"><a xlink:href="globals_8h" target="_top" xlink:title="globals.h">
<polygon fill="white" stroke="black" points="495.076,-56.5 495.076,-75.5 549.076,-75.5 549.076,-56.5 495.076,-56.5"/>
<text text-anchor="middle" x="522.076" y="-63.5" font-family="FreeSans" font-size="10.00">globals.h</text>
</a>
</g>
</g>
<!-- Node1&#45;&gt;Node18 -->
<g id="edge73" class="edge"><title>Node1&#45;&gt;Node18</title>
<path fill="none" stroke="midnightblue" d="M551.86,-280.297C547.299,-247.633 531.133,-131.866 524.723,-85.9573"/>
<polygon fill="midnightblue" stroke="midnightblue" points="528.166,-85.3036 523.316,-75.8837 521.233,-86.2717 528.166,-85.3036"/>
</g>
<!-- Node29 -->
<g id="node29" class="node"><title>Node29</title>
<g id="a_node29"><a xlink:href="configmanager_8h" target="_top" xlink:title="configmanager.h">
<polygon fill="white" stroke="black" points="1233.58,-168.5 1233.58,-187.5 1320.58,-187.5 1320.58,-168.5 1233.58,-168.5"/>
<text text-anchor="middle" x="1277.08" y="-175.5" font-family="FreeSans" font-size="10.00">configmanager.h</text>
</a>
</g>
</g>
<!-- Node1&#45;&gt;Node29 -->
<g id="edge37" class="edge"><title>Node1&#45;&gt;Node29</title>
<path fill="none" stroke="midnightblue" d="M597.676,-287.229C663.16,-283.701 788.653,-273.396 891.076,-244 911.723,-238.074 914.424,-229.91 935.076,-224 962.171,-216.246 1134.34,-195.563 1223.58,-185.159"/>
<polygon fill="midnightblue" stroke="midnightblue" points="1223.99,-188.635 1233.52,-184.003 1223.18,-181.682 1223.99,-188.635"/>
</g>
<!-- Node42 -->
<g id="node42" class="node"><title>Node42</title>
<g id="a_node42"><a xlink:href="editormanager_8h" target="_top" xlink:title="editormanager.h">
<polygon fill="white" stroke="black" points="439.076,-168.5 439.076,-187.5 525.076,-187.5 525.076,-168.5 439.076,-168.5"/>
<text text-anchor="middle" x="482.076" y="-175.5" font-family="FreeSans" font-size="10.00">editormanager.h</text>
</a>
</g>
</g>
<!-- Node1&#45;&gt;Node42 -->
<g id="edge62" class="edge"><title>Node1&#45;&gt;Node42</title>
<path fill="none" stroke="midnightblue" d="M547.504,-280.368C535.839,-262.296 508.653,-220.176 493.247,-196.307"/>
<polygon fill="midnightblue" stroke="midnightblue" points="495.985,-194.095 487.621,-187.591 490.103,-197.891 495.985,-194.095"/>
</g>
<!-- Node44 -->
<g id="node44" class="node"><title>Node44</title>
<g id="a_node44"><a xlink:href="cbstyledtextctrl_8h" target="_top" xlink:title="cbstyledtextctrl.h">
<polygon fill="white" stroke="black" points="1758.58,-168.5 1758.58,-187.5 1847.58,-187.5 1847.58,-168.5 1758.58,-168.5"/>
<text text-anchor="middle" x="1803.08" y="-175.5" font-family="FreeSans" font-size="10.00">cbstyledtextctrl.h</text>
</a>
</g>
</g>
<!-- Node1&#45;&gt;Node44 -->
<g id="edge74" class="edge"><title>Node1&#45;&gt;Node44</title>
<path fill="none" stroke="midnightblue" d="M597.797,-288.401C668.943,-286.395 811.657,-278.04 927.076,-244 946.522,-238.265 948.432,-229.018 968.076,-224 1135.33,-181.274 1572.29,-205.04 1744.08,-188 1745.38,-187.871 1746.7,-187.732 1748.03,-187.585"/>
<polygon fill="midnightblue" stroke="midnightblue" points="1748.86,-191.011 1758.36,-186.326 1748.01,-184.062 1748.86,-191.011"/>
</g>
<!-- Node48 -->
<g id="node48" class="node"><title>Node48</title>
<g id="a_node48"><a xlink:href="crashhandler_8h" target="_top" xlink:title="crashhandler.h">
<polygon fill="white" stroke="black" points="977.576,-224.5 977.576,-243.5 1056.58,-243.5 1056.58,-224.5 977.576,-224.5"/>
<text text-anchor="middle" x="1017.08" y="-231.5" font-family="FreeSans" font-size="10.00">crashhandler.h</text>
</a>
</g>
</g>
<!-- Node1&#45;&gt;Node48 -->
<g id="edge83" class="edge"><title>Node1&#45;&gt;Node48</title>
<path fill="none" stroke="midnightblue" d="M597.768,-284.919C673.222,-277.845 830.605,-262.294 963.076,-244 964.373,-243.821 965.687,-243.635 967.013,-243.443"/>
<polygon fill="midnightblue" stroke="midnightblue" points="967.938,-246.843 977.302,-241.887 966.891,-239.922 967.938,-246.843"/>
</g>
<!-- Node50 -->
<g id="node50" class="node"><title>Node50</title>
<polygon fill="white" stroke="#bfbfbf" points="1074.58,-224.5 1074.58,-243.5 1123.58,-243.5 1123.58,-224.5 1074.58,-224.5"/>
<text text-anchor="middle" x="1099.08" y="-231.5" font-family="FreeSans" font-size="10.00">shlobj.h</text>
</g>
<!-- Node1&#45;&gt;Node50 -->
<g id="edge85" class="edge"><title>Node1&#45;&gt;Node50</title>
<path fill="none" stroke="midnightblue" d="M597.581,-287.648C685.199,-284.436 886.255,-274.336 1064.23,-243.834"/>
<polygon fill="midnightblue" stroke="midnightblue" points="1065.05,-247.244 1074.3,-242.082 1063.85,-240.348 1065.05,-247.244"/>
</g>
<!-- Node3 -->
<g id="node3" class="node"><title>Node3</title>
<g id="a_node3"><a xlink:href="sdk__common_8h" target="_top" xlink:title="sdk_common.h">
<polygon fill="white" stroke="black" points="64.0756,-168.5 64.0756,-187.5 146.076,-187.5 146.076,-168.5 64.0756,-168.5"/>
<text text-anchor="middle" x="105.076" y="-175.5" font-family="FreeSans" font-size="10.00">sdk_common.h</text>
</a>
</g>
</g>
<!-- Node2&#45;&gt;Node3 -->
<g id="edge2" class="edge"><title>Node2&#45;&gt;Node3</title>
<path fill="none" stroke="midnightblue" d="M122.608,-224.083C119.764,-216.77 115.646,-206.181 112.116,-197.103"/>
<polygon fill="midnightblue" stroke="midnightblue" points="115.365,-195.803 108.479,-187.751 108.841,-198.34 115.365,-195.803"/>
</g>
<!-- Node4 -->
<g id="node4" class="node"><title>Node4</title>
<polygon fill="white" stroke="#bfbfbf" points="29.0756,-112.5 29.0756,-131.5 97.0756,-131.5 97.0756,-112.5 29.0756,-112.5"/>
<text text-anchor="middle" x="63.0756" y="-119.5" font-family="FreeSans" font-size="10.00">wx/wxprec.h</text>
</g>
<!-- Node3&#45;&gt;Node4 -->
<g id="edge3" class="edge"><title>Node3&#45;&gt;Node4</title>
<path fill="none" stroke="midnightblue" d="M98.1401,-168.083C92.1464,-160.377 83.3237,-149.033 76.0279,-139.653"/>
<polygon fill="midnightblue" stroke="midnightblue" points="78.7841,-137.496 69.8819,-131.751 73.2586,-141.793 78.7841,-137.496"/>
</g>
<!-- Node5 -->
<g id="node5" class="node"><title>Node5</title>
<g id="a_node5"><a xlink:href="prep_8h" target="_top" xlink:title="prep.h">
<polygon fill="white" stroke="black" points="218.576,-0.5 218.576,-19.5 261.576,-19.5 261.576,-0.5 218.576,-0.5"/>
<text text-anchor="middle" x="240.076" y="-7.5" font-family="FreeSans" font-size="10.00">prep.h</text>
</a>
</g>
</g>
<!-- Node3&#45;&gt;Node5 -->
<g id="edge4" class="edge"><title>Node3&#45;&gt;Node5</title>
<path fill="none" stroke="midnightblue" d="M106.02,-168.256C108.779,-146.638 118.661,-89.9747 149.076,-56 157.664,-46.4057 186.097,-33.1027 208.922,-23.4508"/>
<polygon fill="midnightblue" stroke="midnightblue" points="210.395,-26.6288 218.286,-19.5592 207.709,-20.1648 210.395,-26.6288"/>
</g>
<!-- Node10 -->
<g id="node10" class="node"><title>Node10</title>
<polygon fill="white" stroke="#bfbfbf" points="921.576,-112.5 921.576,-131.5 998.576,-131.5 998.576,-112.5 921.576,-112.5"/>
<text text-anchor="middle" x="960.076" y="-119.5" font-family="FreeSans" font-size="10.00">wx/hashmap.h</text>
</g>
<!-- Node9&#45;&gt;Node10 -->
<g id="edge9" class="edge"><title>Node9&#45;&gt;Node10</title>
<path fill="none" stroke="midnightblue" d="M853.466,-224.423C854.503,-210.954 858.285,-184.667 872.076,-168 884.512,-152.97 903.258,-142.414 920.256,-135.324"/>
<polygon fill="midnightblue" stroke="midnightblue" points="921.946,-138.422 930.002,-131.541 919.413,-131.897 921.946,-138.422"/>
</g>
<!-- Node11 -->
<g id="node11" class="node"><title>Node11</title>
<polygon fill="white" stroke="#bfbfbf" points="881.076,-168.5 881.076,-187.5 957.076,-187.5 957.076,-168.5 881.076,-168.5"/>
<text text-anchor="middle" x="919.076" y="-175.5" font-family="FreeSans" font-size="10.00">wx/datetime.h</text>
</g>
<!-- Node9&#45;&gt;Node11 -->
<g id="edge10" class="edge"><title>Node9&#45;&gt;Node11</title>
<path fill="none" stroke="midnightblue" d="M863.68,-224.324C873.532,-216.263 888.426,-204.077 900.291,-194.369"/>
<polygon fill="midnightblue" stroke="midnightblue" points="902.755,-196.875 908.279,-187.834 898.323,-191.457 902.755,-196.875"/>
</g>
<!-- Node12 -->
<g id="node12" class="node"><title>Node12</title>
<polygon fill="white" stroke="#bfbfbf" points="975.076,-168.5 975.076,-187.5 1049.08,-187.5 1049.08,-168.5 975.076,-168.5"/>
<text text-anchor="middle" x="1012.08" y="-175.5" font-family="FreeSans" font-size="10.00">wx/fontmap.h</text>
</g>
<!-- Node9&#45;&gt;Node12 -->
<g id="edge11" class="edge"><title>Node9&#45;&gt;Node12</title>
<path fill="none" stroke="midnightblue" d="M878.27,-224.444C905.018,-215.359 947.478,-200.939 977.381,-190.783"/>
<polygon fill="midnightblue" stroke="midnightblue" points="978.656,-194.046 986.999,-187.516 976.405,-187.418 978.656,-194.046"/>
</g>
<!-- Node13 -->
<g id="node13" class="node"><title>Node13</title>
<polygon fill="white" stroke="#bfbfbf" points="1854.08,-56.5 1854.08,-75.5 1914.08,-75.5 1914.08,-56.5 1854.08,-56.5"/>
<text text-anchor="middle" x="1884.08" y="-63.5" font-family="FreeSans" font-size="10.00">wx/timer.h</text>
</g>
<!-- Node9&#45;&gt;Node13 -->
<g id="edge12" class="edge"><title>Node9&#45;&gt;Node13</title>
<path fill="none" stroke="midnightblue" d="M882.677,-228.931C895.137,-227.287 909.798,-225.442 923.076,-224 1266.16,-186.749 1358.95,-214.343 1694.08,-132 1751.48,-117.895 1816.19,-93.9597 1853.35,-79.4037"/>
<polygon fill="midnightblue" stroke="midnightblue" points="1855.06,-82.4928 1863.07,-75.5628 1852.49,-75.9826 1855.06,-82.4928"/>
</g>
<!-- Node14 -->
<g id="node14" class="node"><title>Node14</title>
<g id="a_node14"><a xlink:href="settings_8h" target="_top" xlink:title="settings.h">
<polygon fill="white" stroke="black" points="1097.58,-0.5 1097.58,-19.5 1154.58,-19.5 1154.58,-0.5 1097.58,-0.5"/>
<text text-anchor="middle" x="1126.08" y="-7.5" font-family="FreeSans" font-size="10.00">settings.h</text>
</a>
</g>
</g>
<!-- Node9&#45;&gt;Node14 -->
<g id="edge13" class="edge"><title>Node9&#45;&gt;Node14</title>
<path fill="none" stroke="midnightblue" d="M882.722,-225.057C884.192,-224.693 885.65,-224.339 887.076,-224 1005.93,-195.778 1078.96,-234.066 1146.08,-132 1164.76,-103.581 1164.68,-88.6299 1155.08,-56 1152.06,-45.7645 1145.92,-35.6599 1140.06,-27.627"/>
<polygon fill="midnightblue" stroke="midnightblue" points="1142.66,-25.2694 1133.75,-19.5413 1137.14,-29.5773 1142.66,-25.2694"/>
</g>
<!-- Node15 -->
<g id="node15" class="node"><title>Node15</title>
<g id="a_node15"><a xlink:href="editorbase_8h" target="_top" xlink:title="editorbase.h">
<polygon fill="white" stroke="black" points="757.076,-168.5 757.076,-187.5 825.076,-187.5 825.076,-168.5 757.076,-168.5"/>
<text text-anchor="middle" x="791.076" y="-175.5" font-family="FreeSans" font-size="10.00">editorbase.h</text>
</a>
</g>
</g>
<!-- Node9&#45;&gt;Node15 -->
<g id="edge14" class="edge"><title>Node9&#45;&gt;Node15</title>
<path fill="none" stroke="midnightblue" d="M843.114,-224.324C833.949,-216.341 820.138,-204.313 809.047,-194.653"/>
<polygon fill="midnightblue" stroke="midnightblue" points="811.058,-191.762 801.218,-187.834 806.46,-197.041 811.058,-191.762"/>
</g>
<!-- Node27 -->
<g id="node27" class="node"><title>Node27</title>
<g id="a_node27"><a xlink:href="printing__types_8h" target="_top" xlink:title="printing_types.h">
<polygon fill="white" stroke="black" points="581.576,-112.5 581.576,-131.5 664.576,-131.5 664.576,-112.5 581.576,-112.5"/>
<text text-anchor="middle" x="623.076" y="-119.5" font-family="FreeSans" font-size="10.00">printing_types.h</text>
</a>
</g>
</g>
<!-- Node9&#45;&gt;Node27 -->
<g id="edge34" class="edge"><title>Node9&#45;&gt;Node27</title>
<path fill="none" stroke="midnightblue" d="M831.952,-224.491C810.601,-215.763 776.756,-201.579 748.076,-188 712.594,-171.2 672.471,-149.917 647.472,-136.375"/>
<polygon fill="midnightblue" stroke="midnightblue" points="649.129,-133.293 638.672,-131.59 645.785,-139.442 649.129,-133.293"/>
</g>
<!-- Node15&#45;&gt;Node5 -->
<g id="edge15" class="edge"><title>Node15&#45;&gt;Node5</title>
<path fill="none" stroke="midnightblue" d="M756.816,-175.322C674.251,-170.916 466.358,-157.552 402.076,-132 370.349,-119.389 293.307,-56.0844 258.131,-26.404"/>
<polygon fill="midnightblue" stroke="midnightblue" points="260.034,-23.4293 250.142,-19.6338 255.508,-28.7694 260.034,-23.4293"/>
</g>
<!-- Node15&#45;&gt;Node10 -->
<g id="edge16" class="edge"><title>Node15&#45;&gt;Node10</title>
<path fill="none" stroke="midnightblue" d="M817.854,-168.444C846.409,-159.32 891.808,-144.813 923.612,-134.651"/>
<polygon fill="midnightblue" stroke="midnightblue" points="924.962,-137.894 933.422,-131.516 922.831,-131.226 924.962,-137.894"/>
</g>
<!-- Node15&#45;&gt;Node14 -->
<g id="edge29" class="edge"><title>Node15&#45;&gt;Node14</title>
<path fill="none" stroke="midnightblue" d="M825.384,-172.991C909.801,-163.049 1121.13,-137.652 1126.08,-132 1150.88,-103.637 1140.93,-55.6152 1132.74,-29.4087"/>
<polygon fill="midnightblue" stroke="midnightblue" points="1135.96,-27.9939 1129.45,-19.6339 1129.33,-30.228 1135.96,-27.9939"/>
</g>
<!-- Node16 -->
<g id="node16" class="node"><title>Node16</title>
<polygon fill="white" stroke="#bfbfbf" points="759.576,-112.5 759.576,-131.5 822.576,-131.5 822.576,-112.5 759.576,-112.5"/>
<text text-anchor="middle" x="791.076" y="-119.5" font-family="FreeSans" font-size="10.00">wx/frame.h</text>
</g>
<!-- Node15&#45;&gt;Node16 -->
<g id="edge17" class="edge"><title>Node15&#45;&gt;Node16</title>
<path fill="none" stroke="midnightblue" d="M791.076,-168.083C791.076,-161.006 791.076,-150.861 791.076,-141.986"/>
<polygon fill="midnightblue" stroke="midnightblue" points="794.576,-141.751 791.076,-131.751 787.576,-141.751 794.576,-141.751"/>
</g>
<!-- Node17 -->
<g id="node17" class="node"><title>Node17</title>
<polygon fill="white" stroke="#bfbfbf" points="841.076,-112.5 841.076,-131.5 903.076,-131.5 903.076,-112.5 841.076,-112.5"/>
<text text-anchor="middle" x="872.076" y="-119.5" font-family="FreeSans" font-size="10.00">wx/panel.h</text>
</g>
<!-- Node15&#45;&gt;Node17 -->
<g id="edge18" class="edge"><title>Node15&#45;&gt;Node17</title>
<path fill="none" stroke="midnightblue" d="M804.09,-168.324C816.607,-159.979 835.757,-147.212 850.547,-137.352"/>
<polygon fill="midnightblue" stroke="midnightblue" points="852.715,-140.114 859.094,-131.655 848.832,-134.289 852.715,-140.114"/>
</g>
<!-- Node15&#45;&gt;Node18 -->
<g id="edge19" class="edge"><title>Node15&#45;&gt;Node18</title>
<path fill="none" stroke="midnightblue" d="M777.744,-168.412C756.363,-154.929 712.771,-128.622 673.076,-112 652.549,-103.405 597.12,-87.5579 559.445,-77.1491"/>
<polygon fill="midnightblue" stroke="midnightblue" points="559.903,-73.6453 549.333,-74.368 558.047,-80.3947 559.903,-73.6453"/>
</g>
<!-- Node25 -->
<g id="node25" class="node"><title>Node25</title>
<g id="a_node25"><a xlink:href="cbexception_8h" target="_top" xlink:title="cbexception.h">
<polygon fill="white" stroke="black" points="411.076,-112.5 411.076,-131.5 487.076,-131.5 487.076,-112.5 411.076,-112.5"/>
<text text-anchor="middle" x="449.076" y="-119.5" font-family="FreeSans" font-size="10.00">cbexception.h</text>
</a>
</g>
</g>
<!-- Node15&#45;&gt;Node25 -->
<g id="edge30" class="edge"><title>Node15&#45;&gt;Node25</title>
<path fill="none" stroke="midnightblue" d="M757.033,-171.625C695.84,-161.963 567.117,-141.638 497.027,-130.571"/>
<polygon fill="midnightblue" stroke="midnightblue" points="497.55,-127.111 487.126,-129.008 496.458,-134.025 497.55,-127.111"/>
</g>
<!-- Node18&#45;&gt;Node7 -->
<g id="edge24" class="edge"><title>Node18&#45;&gt;Node7</title>
<path fill="none" stroke="midnightblue" d="M494.79,-61.5479C441.93,-54.7595 321.671,-38.8249 210.264,-20.1308"/>
<polygon fill="midnightblue" stroke="midnightblue" points="210.647,-16.6459 200.203,-18.4308 209.48,-23.5481 210.647,-16.6459"/>
</g>
<!-- Node18&#45;&gt;Node8 -->
<g id="edge21" class="edge"><title>Node18&#45;&gt;Node8</title>
<path fill="none" stroke="midnightblue" d="M502.269,-56.4435C481.789,-47.5961 449.593,-33.6875 426.211,-23.5865"/>
<polygon fill="midnightblue" stroke="midnightblue" points="427.358,-20.2692 416.79,-19.5164 424.581,-26.6953 427.358,-20.2692"/>
</g>
<!-- Node18&#45;&gt;Node14 -->
<g id="edge28" class="edge"><title>Node18&#45;&gt;Node14</title>
<path fill="none" stroke="midnightblue" d="M549.102,-57.7324C552.115,-57.0749 555.151,-56.478 558.076,-56 660.57,-39.2471 977.057,-19.702 1087.54,-13.2159"/>
<polygon fill="midnightblue" stroke="midnightblue" points="1087.8,-16.707 1097.57,-12.6295 1087.39,-9.71896 1087.8,-16.707"/>
</g>
<!-- Node19 -->
<g id="node19" class="node"><title>Node19</title>
<polygon fill="white" stroke="#bfbfbf" points="688.576,-0.5 688.576,-19.5 731.576,-19.5 731.576,-0.5 688.576,-0.5"/>
<text text-anchor="middle" x="710.076" y="-7.5" font-family="FreeSans" font-size="10.00">vector</text>
</g>
<!-- Node18&#45;&gt;Node19 -->
<g id="edge20" class="edge"><title>Node18&#45;&gt;Node19</title>
<path fill="none" stroke="midnightblue" d="M549.312,-57.2239C578.794,-48.7998 627.448,-34.8788 678.785,-20.0767"/>
<polygon fill="midnightblue" stroke="midnightblue" points="679.76,-23.4383 688.398,-17.3037 677.82,-16.7125 679.76,-23.4383"/>
</g>
<!-- Node20 -->
<g id="node20" class="node"><title>Node20</title>
<polygon fill="white" stroke="#bfbfbf" points="280.076,-0.5 280.076,-19.5 348.076,-19.5 348.076,-0.5 280.076,-0.5"/>
<text text-anchor="middle" x="314.076" y="-7.5" font-family="FreeSans" font-size="10.00">wx/treectrl.h</text>
</g>
<!-- Node18&#45;&gt;Node20 -->
<g id="edge22" class="edge"><title>Node18&#45;&gt;Node20</title>
<path fill="none" stroke="midnightblue" d="M494.883,-57.9404C459.786,-48.8287 398.321,-32.8713 356.916,-22.122"/>
<polygon fill="midnightblue" stroke="midnightblue" points="357.668,-18.7013 347.109,-19.576 355.909,-25.4767 357.668,-18.7013"/>
</g>
<!-- Node21 -->
<g id="node21" class="node"><title>Node21</title>
<polygon fill="white" stroke="#bfbfbf" points="446.076,-0.5 446.076,-19.5 496.076,-19.5 496.076,-0.5 446.076,-0.5"/>
<text text-anchor="middle" x="471.076" y="-7.5" font-family="FreeSans" font-size="10.00">wx/file.h</text>
</g>
<!-- Node18&#45;&gt;Node21 -->
<g id="edge23" class="edge"><title>Node18&#45;&gt;Node21</title>
<path fill="none" stroke="midnightblue" d="M513.654,-56.083C506.227,-48.2195 495.224,-36.5688 486.263,-27.0813"/>
<polygon fill="midnightblue" stroke="midnightblue" points="488.751,-24.618 479.34,-19.7511 483.662,-29.4244 488.751,-24.618"/>
</g>
<!-- Node22 -->
<g id="node22" class="node"><title>Node22</title>
<polygon fill="white" stroke="#bfbfbf" points="749.576,-0.5 749.576,-19.5 800.576,-19.5 800.576,-0.5 749.576,-0.5"/>
<text text-anchor="middle" x="775.076" y="-7.5" font-family="FreeSans" font-size="10.00">wx/intl.h</text>
</g>
<!-- Node18&#45;&gt;Node22 -->
<g id="edge25" class="edge"><title>Node18&#45;&gt;Node22</title>
<path fill="none" stroke="midnightblue" d="M549.168,-58.0737C552.169,-57.3522 555.184,-56.6471 558.076,-56 635.399,-38.6985 657.929,-38.2808 739.281,-20.0655"/>
<polygon fill="midnightblue" stroke="midnightblue" points="740.52,-23.3737 749.502,-17.7536 738.976,-16.5462 740.52,-23.3737"/>
</g>
<!-- Node23 -->
<g id="node23" class="node"><title>Node23</title>
<polygon fill="white" stroke="#bfbfbf" points="514.576,-0.5 514.576,-19.5 583.576,-19.5 583.576,-0.5 514.576,-0.5"/>
<text text-anchor="middle" x="549.076" y="-7.5" font-family="FreeSans" font-size="10.00">wx/msgdlg.h</text>
</g>
<!-- Node18&#45;&gt;Node23 -->
<g id="edge26" class="edge"><title>Node18&#45;&gt;Node23</title>
<path fill="none" stroke="midnightblue" d="M526.534,-56.083C530.23,-48.6913 535.599,-37.9533 540.17,-28.8111"/>
<polygon fill="midnightblue" stroke="midnightblue" points="543.358,-30.2606 544.7,-19.7511 537.097,-27.1301 543.358,-30.2606"/>
</g>
<!-- Node24 -->
<g id="node24" class="node"><title>Node24</title>
<polygon fill="white" stroke="#bfbfbf" points="602.076,-0.5 602.076,-19.5 670.076,-19.5 670.076,-0.5 602.076,-0.5"/>
<text text-anchor="middle" x="636.076" y="-7.5" font-family="FreeSans" font-size="10.00">wx/bitmap.h</text>
</g>
<!-- Node18&#45;&gt;Node24 -->
<g id="edge27" class="edge"><title>Node18&#45;&gt;Node24</title>
<path fill="none" stroke="midnightblue" d="M540.139,-56.4435C558.65,-47.6751 587.656,-33.9355 608.931,-23.8579"/>
<polygon fill="midnightblue" stroke="midnightblue" points="610.557,-26.9604 618.096,-19.5164 607.561,-20.6343 610.557,-26.9604"/>
</g>
<!-- Node25&#45;&gt;Node8 -->
<g id="edge31" class="edge"><title>Node25&#45;&gt;Node8</title>
<path fill="none" stroke="midnightblue" d="M447.32,-112.254C444.546,-99.4513 438.478,-75.059 429.076,-56 424.154,-46.0247 417.12,-35.8475 410.9,-27.7006"/>
<polygon fill="midnightblue" stroke="midnightblue" points="413.562,-25.4253 404.607,-19.7629 408.077,-29.7737 413.562,-25.4253"/>
</g>
<!-- Node25&#45;&gt;Node18 -->
<g id="edge33" class="edge"><title>Node25&#45;&gt;Node18</title>
<path fill="none" stroke="midnightblue" d="M460.804,-112.324C471.913,-104.107 488.818,-91.6017 502.059,-81.8069"/>
<polygon fill="midnightblue" stroke="midnightblue" points="504.175,-84.5948 510.133,-75.8339 500.012,-78.9671 504.175,-84.5948"/>
</g>
<!-- Node26 -->
<g id="node26" class="node"><title>Node26</title>
<polygon fill="white" stroke="#bfbfbf" points="369.576,-56.5 369.576,-75.5 420.576,-75.5 420.576,-56.5 369.576,-56.5"/>
<text text-anchor="middle" x="395.076" y="-63.5" font-family="FreeSans" font-size="10.00">wx/log.h</text>
</g>
<!-- Node25&#45;&gt;Node26 -->
<g id="edge32" class="edge"><title>Node25&#45;&gt;Node26</title>
<path fill="none" stroke="midnightblue" d="M440.159,-112.083C432.295,-104.22 420.644,-92.5688 411.157,-83.0813"/>
<polygon fill="midnightblue" stroke="midnightblue" points="413.373,-80.3473 403.827,-75.7511 408.423,-85.2971 413.373,-80.3473"/>
</g>
<!-- Node27&#45;&gt;Node14 -->
<g id="edge35" class="edge"><title>Node27&#45;&gt;Node14</title>
<path fill="none" stroke="midnightblue" d="M664.857,-112.683C701.143,-104.918 754.824,-92.117 800.076,-76 819.931,-68.9282 822.918,-62.1587 843.076,-56 928.001,-30.0529 1032.08,-18.4119 1087.32,-13.7416"/>
<polygon fill="midnightblue" stroke="midnightblue" points="1087.69,-17.2232 1097.37,-12.9235 1087.12,-10.2462 1087.69,-17.2232"/>
</g>
<!-- Node28 -->
<g id="node28" class="node"><title>Node28</title>
<polygon fill="white" stroke="#bfbfbf" points="567.576,-56.5 567.576,-75.5 624.576,-75.5 624.576,-56.5 567.576,-56.5"/>
<text text-anchor="middle" x="596.076" y="-63.5" font-family="FreeSans" font-size="10.00">wx/print.h</text>
</g>
<!-- Node27&#45;&gt;Node28 -->
<g id="edge36" class="edge"><title>Node27&#45;&gt;Node28</title>
<path fill="none" stroke="midnightblue" d="M618.617,-112.083C614.921,-104.691 609.552,-93.9533 604.981,-84.8111"/>
<polygon fill="midnightblue" stroke="midnightblue" points="608.054,-83.1301 600.451,-75.7511 601.793,-86.2606 608.054,-83.1301"/>
</g>
<!-- Node29&#45;&gt;Node10 -->
<g id="edge38" class="edge"><title>Node29&#45;&gt;Node10</title>
<path fill="none" stroke="midnightblue" d="M1233.33,-169.548C1174.57,-159.538 1070.44,-141.801 1009.1,-131.351"/>
<polygon fill="midnightblue" stroke="midnightblue" points="1009.34,-127.842 998.898,-129.613 1008.17,-134.743 1009.34,-127.842"/>
</g>
<!-- Node29&#45;&gt;Node14 -->
<g id="edge40" class="edge"><title>Node29&#45;&gt;Node14</title>
<path fill="none" stroke="midnightblue" d="M1269.23,-168.391C1261.4,-159.585 1249.23,-145.342 1240.08,-132 1218.11,-100.002 1223.82,-84.1201 1197.08,-56 1184.7,-42.9889 1167.82,-32.0892 1153.62,-24.2772"/>
<polygon fill="midnightblue" stroke="midnightblue" points="1155.23,-21.1696 1144.75,-19.5983 1151.96,-27.3606 1155.23,-21.1696"/>
</g>
<!-- Node29&#45;&gt;Node18 -->
<g id="edge41" class="edge"><title>Node29&#45;&gt;Node18</title>
<path fill="none" stroke="midnightblue" d="M1233.55,-172.231C1186.39,-166.217 1109.4,-153.911 1046.08,-132 1027.67,-125.63 1025.81,-117.326 1007.08,-112 817.704,-58.1745 757.626,-106.719 559.268,-75.8947"/>
<polygon fill="midnightblue" stroke="midnightblue" points="559.531,-72.3922 549.103,-74.2648 558.422,-79.3039 559.531,-72.3922"/>
</g>
<!-- Node30 -->
<g id="node30" class="node"><title>Node30</title>
<polygon fill="white" stroke="#bfbfbf" points="1567.58,-112.5 1567.58,-131.5 1638.58,-131.5 1638.58,-112.5 1567.58,-112.5"/>
<text text-anchor="middle" x="1603.08" y="-119.5" font-family="FreeSans" font-size="10.00">wx/hashset.h</text>
</g>
<!-- Node29&#45;&gt;Node30 -->
<g id="edge39" class="edge"><title>Node29&#45;&gt;Node30</title>
<path fill="none" stroke="midnightblue" d="M1320.97,-170.507C1374.34,-162.494 1467.41,-148.14 1557.16,-132.107"/>
<polygon fill="midnightblue" stroke="midnightblue" points="1558.01,-135.51 1567.24,-130.297 1556.78,-128.62 1558.01,-135.51"/>
</g>
<!-- Node31 -->
<g id="node31" class="node"><title>Node31</title>
<polygon fill="white" stroke="#bfbfbf" points="1361.58,-112.5 1361.58,-131.5 1444.58,-131.5 1444.58,-112.5 1361.58,-112.5"/>
<text text-anchor="middle" x="1403.08" y="-119.5" font-family="FreeSans" font-size="10.00">tinyxml/tinystr.h</text>
</g>
<!-- Node29&#45;&gt;Node31 -->
<g id="edge42" class="edge"><title>Node29&#45;&gt;Node31</title>
<path fill="none" stroke="midnightblue" d="M1297.04,-168.444C1317.68,-159.596 1350.14,-145.687 1373.71,-135.586"/>
<polygon fill="midnightblue" stroke="midnightblue" points="1375.39,-138.673 1383.2,-131.516 1372.63,-132.239 1375.39,-138.673"/>
</g>
<!-- Node32 -->
<g id="node32" class="node"><title>Node32</title>
<polygon fill="white" stroke="#bfbfbf" points="1462.58,-112.5 1462.58,-131.5 1549.58,-131.5 1549.58,-112.5 1462.58,-112.5"/>
<text text-anchor="middle" x="1506.08" y="-119.5" font-family="FreeSans" font-size="10.00">tinyxml/tinyxml.h</text>
</g>
<!-- Node29&#45;&gt;Node32 -->
<g id="edge43" class="edge"><title>Node29&#45;&gt;Node32</title>
<path fill="none" stroke="midnightblue" d="M1313.36,-168.444C1353.06,-159.083 1416.78,-144.056 1459.99,-133.868"/>
<polygon fill="midnightblue" stroke="midnightblue" points="1461.03,-137.218 1469.96,-131.516 1459.42,-130.405 1461.03,-137.218"/>
</g>
<!-- Node33 -->
<g id="node33" class="node"><title>Node33</title>
<g id="a_node33"><a xlink:href="manager_8h" target="_top" xlink:title="manager.h">
<polygon fill="white" stroke="black" points="1055.08,-112.5 1055.08,-131.5 1117.08,-131.5 1117.08,-112.5 1055.08,-112.5"/>
<text text-anchor="middle" x="1086.08" y="-119.5" font-family="FreeSans" font-size="10.00">manager.h</text>
</a>
</g>
</g>
<!-- Node29&#45;&gt;Node33 -->
<g id="edge44" class="edge"><title>Node29&#45;&gt;Node33</title>
<path fill="none" stroke="midnightblue" d="M1246.81,-168.444C1214.12,-159.201 1161.89,-144.436 1125.89,-134.257"/>
<polygon fill="midnightblue" stroke="midnightblue" points="1126.77,-130.869 1116.2,-131.516 1124.87,-137.605 1126.77,-130.869"/>
</g>
<!-- Node34 -->
<g id="node34" class="node"><title>Node34</title>
<polygon fill="white" stroke="#bfbfbf" points="1315.58,-56.5 1315.58,-75.5 1350.58,-75.5 1350.58,-56.5 1315.58,-56.5"/>
<text text-anchor="middle" x="1333.08" y="-63.5" font-family="FreeSans" font-size="10.00">map</text>
</g>
<!-- Node29&#45;&gt;Node34 -->
<g id="edge60" class="edge"><title>Node29&#45;&gt;Node34</title>
<path fill="none" stroke="midnightblue" d="M1285.61,-168.408C1293.7,-159.839 1305.68,-145.973 1313.08,-132 1320.84,-117.324 1326.11,-99.1579 1329.28,-85.7645"/>
<polygon fill="midnightblue" stroke="midnightblue" points="1332.74,-86.3354 1331.46,-75.8179 1325.9,-84.8365 1332.74,-86.3354"/>
</g>
<!-- Node39 -->
<g id="node39" class="node"><title>Node39</title>
<g id="a_node39"><a xlink:href="base64_8h" target="_top" xlink:title="base64.h">
<polygon fill="white" stroke="black" points="1249.58,-112.5 1249.58,-131.5 1304.58,-131.5 1304.58,-112.5 1249.58,-112.5"/>
<text text-anchor="middle" x="1277.08" y="-119.5" font-family="FreeSans" font-size="10.00">base64.h</text>
</a>
</g>
</g>
<!-- Node29&#45;&gt;Node39 -->
<g id="edge56" class="edge"><title>Node29&#45;&gt;Node39</title>
<path fill="none" stroke="midnightblue" d="M1277.08,-168.083C1277.08,-161.006 1277.08,-150.861 1277.08,-141.986"/>
<polygon fill="midnightblue" stroke="midnightblue" points="1280.58,-141.751 1277.08,-131.751 1273.58,-141.751 1280.58,-141.751"/>
</g>
<!-- Node41 -->
<g id="node41" class="node"><title>Node41</title>
<polygon fill="white" stroke="#bfbfbf" points="1656.58,-112.5 1656.58,-131.5 1685.58,-131.5 1685.58,-112.5 1656.58,-112.5"/>
<text text-anchor="middle" x="1671.08" y="-119.5" font-family="FreeSans" font-size="10.00">set</text>
</g>
<!-- Node29&#45;&gt;Node41 -->
<g id="edge61" class="edge"><title>Node29&#45;&gt;Node41</title>
<path fill="none" stroke="midnightblue" d="M1320.69,-175.053C1388.65,-171.292 1523.89,-160.897 1646.59,-131.514"/>
<polygon fill="midnightblue" stroke="midnightblue" points="1647.64,-134.859 1656.53,-129.085 1645.98,-128.059 1647.64,-134.859"/>
</g>
<!-- Node33&#45;&gt;Node14 -->
<g id="edge49" class="edge"><title>Node33&#45;&gt;Node14</title>
<path fill="none" stroke="midnightblue" d="M1089.21,-112.368C1095.7,-94.5366 1110.7,-53.2953 1119.43,-29.2717"/>
<polygon fill="midnightblue" stroke="midnightblue" points="1122.82,-30.1855 1122.95,-19.5914 1116.24,-27.7932 1122.82,-30.1855"/>
</g>
<!-- Node33&#45;&gt;Node19 -->
<g id="edge46" class="edge"><title>Node33&#45;&gt;Node19</title>
<path fill="none" stroke="midnightblue" d="M1054.67,-114.348C1050.12,-113.492 1045.49,-112.679 1041.08,-112 967.949,-100.734 759.485,-131.074 710.076,-76 699.026,-63.6838 700.634,-44.1528 704.025,-29.712"/>
<polygon fill="midnightblue" stroke="midnightblue" points="707.456,-30.4385 706.785,-19.865 700.716,-28.549 707.456,-30.4385"/>
</g>
<!-- Node33&#45;&gt;Node34 -->
<g id="edge45" class="edge"><title>Node33&#45;&gt;Node34</title>
<path fill="none" stroke="midnightblue" d="M1117.36,-114.161C1166.01,-103.524 1259.03,-83.1876 1305.39,-73.0527"/>
<polygon fill="midnightblue" stroke="midnightblue" points="1306.31,-76.4346 1315.33,-70.8795 1304.81,-69.5961 1306.31,-76.4346"/>
</g>
<!-- Node35 -->
<g id="node35" class="node"><title>Node35</title>
<polygon fill="white" stroke="#bfbfbf" points="841.076,-0.5 841.076,-19.5 903.076,-19.5 903.076,-0.5 841.076,-0.5"/>
<text text-anchor="middle" x="872.076" y="-7.5" font-family="FreeSans" font-size="10.00">wx/event.h</text>
</g>
<!-- Node33&#45;&gt;Node35 -->
<g id="edge47" class="edge"><title>Node33&#45;&gt;Node35</title>
<path fill="none" stroke="midnightblue" d="M1054.88,-114.129C1008.49,-103.717 925.515,-84.2796 914.076,-76 897.786,-64.2095 886.187,-43.9873 879.363,-29.223"/>
<polygon fill="midnightblue" stroke="midnightblue" points="882.405,-27.4384 875.238,-19.6354 875.975,-30.2046 882.405,-27.4384"/>
</g>
<!-- Node36 -->
<g id="node36" class="node"><title>Node36</title>
<polygon fill="white" stroke="#bfbfbf" points="1007.08,-56.5 1007.08,-75.5 1079.08,-75.5 1079.08,-56.5 1007.08,-56.5"/>
<text text-anchor="middle" x="1043.08" y="-63.5" font-family="FreeSans" font-size="10.00">wx/cmdline.h</text>
</g>
<!-- Node33&#45;&gt;Node36 -->
<g id="edge48" class="edge"><title>Node33&#45;&gt;Node36</title>
<path fill="none" stroke="midnightblue" d="M1078.97,-112.083C1072.84,-104.377 1063.81,-93.0333 1056.34,-83.6531"/>
<polygon fill="midnightblue" stroke="midnightblue" points="1059.01,-81.3936 1050.04,-75.7511 1053.54,-85.7542 1059.01,-81.3936"/>
</g>
<!-- Node37 -->
<g id="node37" class="node"><title>Node37</title>
<g id="a_node37"><a xlink:href="sdk__events_8h" target="_top" xlink:title="sdk_events.h">
<polygon fill="white" stroke="black" points="719.076,-56.5 719.076,-75.5 791.076,-75.5 791.076,-56.5 719.076,-56.5"/>
<text text-anchor="middle" x="755.076" y="-63.5" font-family="FreeSans" font-size="10.00">sdk_events.h</text>
</a>
</g>
</g>
<!-- Node33&#45;&gt;Node37 -->
<g id="edge50" class="edge"><title>Node33&#45;&gt;Node37</title>
<path fill="none" stroke="midnightblue" d="M1054.64,-114.54C1050.09,-113.656 1045.47,-112.784 1041.08,-112 956.763,-96.9424 857.982,-81.9933 801.346,-73.6792"/>
<polygon fill="midnightblue" stroke="midnightblue" points="801.675,-70.1903 791.274,-72.2055 800.662,-77.1165 801.675,-70.1903"/>
</g>
<!-- Node38 -->
<g id="node38" class="node"><title>Node38</title>
<g id="a_node38"><a xlink:href="cbfunctor_8h" target="_top" xlink:title="cbfunctor.h">
<polygon fill="white" stroke="black" points="923.576,-56.5 923.576,-75.5 988.576,-75.5 988.576,-56.5 923.576,-56.5"/>
<text text-anchor="middle" x="956.076" y="-63.5" font-family="FreeSans" font-size="10.00">cbfunctor.h</text>
</a>
</g>
</g>
<!-- Node33&#45;&gt;Node38 -->
<g id="edge55" class="edge"><title>Node33&#45;&gt;Node38</title>
<path fill="none" stroke="midnightblue" d="M1065.48,-112.444C1044.08,-103.557 1010.39,-89.5632 986.051,-79.4514"/>
<polygon fill="midnightblue" stroke="midnightblue" points="987.156,-76.1203 976.578,-75.5164 984.47,-82.5848 987.156,-76.1203"/>
</g>
<!-- Node37&#45;&gt;Node5 -->
<g id="edge54" class="edge"><title>Node37&#45;&gt;Node5</title>
<path fill="none" stroke="midnightblue" d="M718.777,-62.0258C619.157,-53.8097 344.585,-30.7894 271.561,-19.527"/>
<polygon fill="midnightblue" stroke="midnightblue" points="272.076,-16.0645 261.629,-17.8245 270.894,-22.9638 272.076,-16.0645"/>
</g>
<!-- Node37&#45;&gt;Node14 -->
<g id="edge53" class="edge"><title>Node37&#45;&gt;Node14</title>
<path fill="none" stroke="midnightblue" d="M791.097,-58.3438C795.795,-57.5264 800.547,-56.7248 805.076,-56 906.508,-39.7676 1026.5,-23.8045 1087.01,-15.9798"/>
<polygon fill="midnightblue" stroke="midnightblue" points="1087.77,-19.4098 1097.25,-14.6601 1086.88,-12.4672 1087.77,-19.4098"/>
</g>
<!-- Node37&#45;&gt;Node22 -->
<g id="edge52" class="edge"><title>Node37&#45;&gt;Node22</title>
<path fill="none" stroke="midnightblue" d="M758.378,-56.083C761.058,-48.8486 764.924,-38.4087 768.262,-29.3968"/>
<polygon fill="midnightblue" stroke="midnightblue" points="771.643,-30.3442 771.834,-19.7511 765.079,-27.9129 771.643,-30.3442"/>
</g>
<!-- Node37&#45;&gt;Node35 -->
<g id="edge51" class="edge"><title>Node37&#45;&gt;Node35</title>
<path fill="none" stroke="midnightblue" d="M773.615,-56.4435C792.698,-47.6356 822.65,-33.8116 844.511,-23.722"/>
<polygon fill="midnightblue" stroke="midnightblue" points="846.01,-26.8849 853.623,-19.5164 843.077,-20.5292 846.01,-26.8849"/>
</g>
<!-- Node39&#45;&gt;Node8 -->
<g id="edge58" class="edge"><title>Node39&#45;&gt;Node8</title>
<path fill="none" stroke="midnightblue" d="M1249.41,-119.09C1143.02,-111.707 763.573,-84.9995 710.076,-76 675.208,-70.1344 667.597,-63.6432 633.076,-56 549.726,-37.5462 525.579,-37.6877 438.552,-20.2318"/>
<polygon fill="midnightblue" stroke="midnightblue" points="438.989,-16.7493 428.493,-18.1926 437.598,-23.6097 438.989,-16.7493"/>
</g>
<!-- Node39&#45;&gt;Node14 -->
<g id="edge59" class="edge"><title>Node39&#45;&gt;Node14</title>
<path fill="none" stroke="midnightblue" d="M1273.49,-112.221C1267.46,-98.477 1254.07,-71.8185 1235.08,-56 1214.75,-39.0734 1187.17,-27.7697 1164.84,-20.7248"/>
<polygon fill="midnightblue" stroke="midnightblue" points="1165.58,-17.2927 1155,-17.7828 1163.58,-23.9996 1165.58,-17.2927"/>
</g>
<!-- Node40 -->
<g id="node40" class="node"><title>Node40</title>
<polygon fill="white" stroke="#bfbfbf" points="1780.08,-56.5 1780.08,-75.5 1836.08,-75.5 1836.08,-56.5 1780.08,-56.5"/>
<text text-anchor="middle" x="1808.08" y="-63.5" font-family="FreeSans" font-size="10.00">wx/defs.h</text>
</g>
<!-- Node39&#45;&gt;Node40 -->
<g id="edge57" class="edge"><title>Node39&#45;&gt;Node40</title>
<path fill="none" stroke="midnightblue" d="M1304.84,-117.527C1318.97,-115.795 1336.43,-113.71 1352.08,-112 1506.72,-95.0929 1691.18,-77.7579 1769.68,-70.5141"/>
<polygon fill="midnightblue" stroke="midnightblue" points="1770.4,-73.9626 1780.03,-69.56 1769.76,-66.9921 1770.4,-73.9626"/>
</g>
<!-- Node42&#45;&gt;Node5 -->
<g id="edge63" class="edge"><title>Node42&#45;&gt;Node5</title>
<path fill="none" stroke="midnightblue" d="M438.775,-172.112C387.393,-165.494 305.808,-152.144 283.076,-132 253.134,-105.468 244.04,-56.6795 241.279,-29.8722"/>
<polygon fill="midnightblue" stroke="midnightblue" points="244.738,-29.2346 240.422,-19.5587 237.762,-29.8142 244.738,-29.2346"/>
</g>
<!-- Node42&#45;&gt;Node7 -->
<g id="edge67" class="edge"><title>Node42&#45;&gt;Node7</title>
<path fill="none" stroke="midnightblue" d="M438.917,-176.354C392.628,-173.865 318.455,-164.553 264.076,-132 221.189,-106.327 188.083,-55.6868 172.634,-28.7798"/>
<polygon fill="midnightblue" stroke="midnightblue" points="175.518,-26.7643 167.594,-19.731 169.402,-30.1704 175.518,-26.7643"/>
</g>
<!-- Node42&#45;&gt;Node10 -->
<g id="edge66" class="edge"><title>Node42&#45;&gt;Node10</title>
<path fill="none" stroke="midnightblue" d="M525.248,-173.648C601.147,-167.502 763.627,-153.214 911.2,-132.013"/>
<polygon fill="midnightblue" stroke="midnightblue" points="911.954,-135.44 921.348,-130.54 910.949,-128.513 911.954,-135.44"/>
</g>
<!-- Node42&#45;&gt;Node14 -->
<g id="edge68" class="edge"><title>Node42&#45;&gt;Node14</title>
<path fill="none" stroke="midnightblue" d="M522.168,-168.461C560.968,-159.984 621.341,-146.231 673.076,-132 781.364,-102.213 805.462,-84.582 914.076,-56 974.079,-40.2099 1044.75,-26.0903 1087.44,-18.0409"/>
<polygon fill="midnightblue" stroke="midnightblue" points="1088.22,-21.4553 1097.41,-16.1761 1086.94,-14.5746 1088.22,-21.4553"/>
</g>
<!-- Node42&#45;&gt;Node18 -->
<g id="edge72" class="edge"><title>Node42&#45;&gt;Node18</title>
<path fill="none" stroke="midnightblue" d="M485.214,-168.368C491.699,-150.537 506.695,-109.295 515.431,-85.2717"/>
<polygon fill="midnightblue" stroke="midnightblue" points="518.823,-86.1855 518.951,-75.5914 512.245,-83.7932 518.823,-86.1855"/>
</g>
<!-- Node42&#45;&gt;Node20 -->
<g id="edge65" class="edge"><title>Node42&#45;&gt;Node20</title>
<path fill="none" stroke="midnightblue" d="M438.683,-172.638C389.383,-166.681 313.488,-154.127 296.076,-132 272.422,-101.942 290.957,-54.2922 304.028,-28.6776"/>
<polygon fill="midnightblue" stroke="midnightblue" points="307.183,-30.2003 308.833,-19.7347 301.017,-26.8872 307.183,-30.2003"/>
</g>
<!-- Node42&#45;&gt;Node25 -->
<g id="edge70" class="edge"><title>Node42&#45;&gt;Node25</title>
<path fill="none" stroke="midnightblue" d="M476.626,-168.083C472.061,-160.613 465.407,-149.724 459.782,-140.52"/>
<polygon fill="midnightblue" stroke="midnightblue" points="462.624,-138.459 454.423,-131.751 456.651,-142.109 462.624,-138.459"/>
</g>
<!-- Node42&#45;&gt;Node27 -->
<g id="edge71" class="edge"><title>Node42&#45;&gt;Node27</title>
<path fill="none" stroke="midnightblue" d="M504.417,-168.444C527.828,-159.478 564.811,-145.314 591.265,-135.183"/>
<polygon fill="midnightblue" stroke="midnightblue" points="592.751,-138.361 600.838,-131.516 590.248,-131.824 592.751,-138.361"/>
</g>
<!-- Node42&#45;&gt;Node33 -->
<g id="edge69" class="edge"><title>Node42&#45;&gt;Node33</title>
<path fill="none" stroke="midnightblue" d="M525.329,-173.704C615.155,-166.768 828.433,-149.828 1007.08,-132 1019.29,-130.781 1032.56,-129.322 1044.67,-127.938"/>
<polygon fill="midnightblue" stroke="midnightblue" points="1045.42,-131.374 1054.95,-126.748 1044.62,-124.42 1045.42,-131.374"/>
</g>
<!-- Node43 -->
<g id="node43" class="node"><title>Node43</title>
<polygon fill="white" stroke="#bfbfbf" points="305.076,-112.5 305.076,-131.5 355.076,-131.5 355.076,-112.5 305.076,-112.5"/>
<text text-anchor="middle" x="330.076" y="-119.5" font-family="FreeSans" font-size="10.00">wx/list.h</text>
</g>
<!-- Node42&#45;&gt;Node43 -->
<g id="edge64" class="edge"><title>Node42&#45;&gt;Node43</title>
<path fill="none" stroke="midnightblue" d="M457.991,-168.444C432.531,-159.399 392.182,-145.064 363.616,-134.916"/>
<polygon fill="midnightblue" stroke="midnightblue" points="364.642,-131.566 354.048,-131.516 362.299,-138.162 364.642,-131.566"/>
</g>
<!-- Node44&#45;&gt;Node14 -->
<g id="edge80" class="edge"><title>Node44&#45;&gt;Node14</title>
<path fill="none" stroke="midnightblue" d="M1795.95,-168.138C1783.85,-153.774 1757.81,-125.643 1729.08,-112 1532.49,-18.6441 1264.01,-10.0401 1164.89,-10.3147"/>
<polygon fill="midnightblue" stroke="midnightblue" points="1164.72,-6.81558 1154.74,-10.3764 1164.76,-13.8155 1164.72,-6.81558"/>
</g>
<!-- Node44&#45;&gt;Node34 -->
<g id="edge81" class="edge"><title>Node44&#45;&gt;Node34</title>
<path fill="none" stroke="midnightblue" d="M1792.08,-168.296C1773.24,-153.898 1733.04,-125.385 1694.08,-112 1575.18,-71.1595 1422.93,-66.6236 1361.07,-66.6267"/>
<polygon fill="midnightblue" stroke="midnightblue" points="1360.92,-63.1272 1350.93,-66.6694 1360.95,-70.1271 1360.92,-63.1272"/>
</g>
<!-- Node44&#45;&gt;Node41 -->
<g id="edge82" class="edge"><title>Node44&#45;&gt;Node41</title>
<path fill="none" stroke="midnightblue" d="M1782.16,-168.444C1758.52,-158.772 1720.1,-143.054 1695.21,-132.872"/>
<polygon fill="midnightblue" stroke="midnightblue" points="1696.34,-129.555 1685.76,-129.008 1693.69,-136.034 1696.34,-129.555"/>
</g>
<!-- Node45 -->
<g id="node45" class="node"><title>Node45</title>
<g id="a_node45"><a xlink:href="wxscintilla_8h" target="_top" xlink:title="wx/wxscintilla.h">
<polygon fill="white" stroke="red" points="1910.08,-112.5 1910.08,-131.5 1992.08,-131.5 1992.08,-112.5 1910.08,-112.5"/>
<text text-anchor="middle" x="1951.08" y="-119.5" font-family="FreeSans" font-size="10.00">wx/wxscintilla.h</text>
</a>
</g>
</g>
<!-- Node44&#45;&gt;Node45 -->
<g id="edge75" class="edge"><title>Node44&#45;&gt;Node45</title>
<path fill="none" stroke="midnightblue" d="M1826.53,-168.444C1851.21,-159.438 1890.26,-145.189 1918.05,-135.049"/>
<polygon fill="midnightblue" stroke="midnightblue" points="1919.54,-138.232 1927.73,-131.516 1917.14,-131.656 1919.54,-138.232"/>
</g>
<!-- Node47 -->
<g id="node47" class="node"><title>Node47</title>
<polygon fill="white" stroke="#bfbfbf" points="1818.08,-112.5 1818.08,-131.5 1892.08,-131.5 1892.08,-112.5 1818.08,-112.5"/>
<text text-anchor="middle" x="1855.08" y="-119.5" font-family="FreeSans" font-size="10.00">wx/longlong.h</text>
</g>
<!-- Node44&#45;&gt;Node47 -->
<g id="edge79" class="edge"><title>Node44&#45;&gt;Node47</title>
<path fill="none" stroke="midnightblue" d="M1811.66,-168.083C1819.23,-160.22 1830.45,-148.569 1839.59,-139.081"/>
<polygon fill="midnightblue" stroke="midnightblue" points="1842.23,-141.382 1846.65,-131.751 1837.19,-136.527 1842.23,-141.382"/>
</g>
<!-- Node45&#45;&gt;Node13 -->
<g id="edge78" class="edge"><title>Node45&#45;&gt;Node13</title>
<path fill="none" stroke="midnightblue" d="M1940.31,-112.324C1930.31,-104.263 1915.19,-92.0765 1903.15,-82.3695"/>
<polygon fill="midnightblue" stroke="midnightblue" points="1905.02,-79.3841 1895.04,-75.8339 1900.63,-84.8343 1905.02,-79.3841"/>
</g>
<!-- Node45&#45;&gt;Node40 -->
<g id="edge76" class="edge"><title>Node45&#45;&gt;Node40</title>
<path fill="none" stroke="midnightblue" d="M1928.42,-112.444C1904.67,-103.478 1867.17,-89.314 1840.34,-79.1827"/>
<polygon fill="midnightblue" stroke="midnightblue" points="1841.22,-75.7749 1830.63,-75.5164 1838.75,-82.3235 1841.22,-75.7749"/>
</g>
<!-- Node46 -->
<g id="node46" class="node"><title>Node46</title>
<polygon fill="white" stroke="#bfbfbf" points="1932.08,-56.5 1932.08,-75.5 2000.08,-75.5 2000.08,-56.5 1932.08,-56.5"/>
<text text-anchor="middle" x="1966.08" y="-63.5" font-family="FreeSans" font-size="10.00">wx/control.h</text>
</g>
<!-- Node45&#45;&gt;Node46 -->
<g id="edge77" class="edge"><title>Node45&#45;&gt;Node46</title>
<path fill="none" stroke="midnightblue" d="M1953.55,-112.083C1955.56,-104.849 1958.46,-94.4087 1960.97,-85.3968"/>
<polygon fill="midnightblue" stroke="midnightblue" points="1964.34,-86.323 1963.64,-75.7511 1957.6,-84.4495 1964.34,-86.323"/>
</g>
<!-- Node49 -->
<g id="node49" class="node"><title>Node49</title>
<polygon fill="white" stroke="#bfbfbf" points="1865.58,-168.5 1865.58,-187.5 1912.58,-187.5 1912.58,-168.5 1865.58,-168.5"/>
<text text-anchor="middle" x="1889.08" y="-175.5" font-family="FreeSans" font-size="10.00">winnt.h</text>
</g>
<!-- Node48&#45;&gt;Node49 -->
<g id="edge84" class="edge"><title>Node48&#45;&gt;Node49</title>
<path fill="none" stroke="midnightblue" d="M1056.82,-225.104C1059.61,-224.687 1062.38,-224.312 1065.08,-224 1411.33,-183.859 1506.61,-241.513 1855.29,-187.706"/>
<polygon fill="midnightblue" stroke="midnightblue" points="1856.08,-191.126 1865.42,-186.124 1855,-184.21 1856.08,-191.126"/>
</g>
</g>
</svg>
