<?xml version="1.0" encoding="UTF-8" standalone="no"?>
<!DOCTYPE svg PUBLIC "-//W3C//DTD SVG 1.1//EN"
 "http://www.w3.org/Graphics/SVG/1.1/DTD/svg11.dtd">
<!-- Generated by graphviz version 2.40.1 (20161225.0304)
 -->
<!-- Title: crc32.cpp Pages: 1 -->
<svg width="771pt" height="140pt"
 viewBox="0.00 0.00 771.00 140.00" xmlns="http://www.w3.org/2000/svg" xmlns:xlink="http://www.w3.org/1999/xlink">
<g id="graph0" class="graph" transform="scale(1 1) rotate(0) translate(4 136)">
<title>crc32.cpp</title>
<!-- Node0 -->
<g id="node1" class="node">
<title>Node0</title>
<polygon fill="#bfbfbf" stroke="#000000" points="197.5,-112.5 197.5,-131.5 256.5,-131.5 256.5,-112.5 197.5,-112.5"/>
<text text-anchor="middle" x="227" y="-119.5" font-family="FreeSans" font-size="10.00" fill="#000000">crc32.cpp</text>
</g>
<!-- Node1 -->
<g id="node2" class="node">
<title>Node1</title>
<polygon fill="none" stroke="#bfbfbf" points="150,-.5 150,-19.5 212,-19.5 212,-.5 150,-.5"/>
<text text-anchor="middle" x="181" y="-7.5" font-family="FreeSans" font-size="10.00" fill="#000000">wx/string.h</text>
</g>
<!-- Node0&#45;&gt;Node1 -->
<g id="edge1" class="edge">
<title>Node0&#45;&gt;Node1</title>
<path fill="none" stroke="#191970" d="M223.0781,-112.4509C215.5077,-94.0186 198.7533,-53.2254 188.8212,-29.043"/>
<polygon fill="#191970" stroke="#191970" points="191.9488,-27.4454 184.912,-19.5249 185.4737,-30.1048 191.9488,-27.4454"/>
</g>
<!-- Node2 -->
<g id="node3" class="node">
<title>Node2</title>
<polygon fill="none" stroke="#bfbfbf" points="230,-.5 230,-19.5 280,-19.5 280,-.5 230,-.5"/>
<text text-anchor="middle" x="255" y="-7.5" font-family="FreeSans" font-size="10.00" fill="#000000">wx/file.h</text>
</g>
<!-- Node0&#45;&gt;Node2 -->
<g id="edge2" class="edge">
<title>Node0&#45;&gt;Node2</title>
<path fill="none" stroke="#191970" d="M229.3873,-112.4509C233.9747,-94.1013 244.1023,-53.5908 250.1577,-29.3693"/>
<polygon fill="#191970" stroke="#191970" points="253.5888,-30.0752 252.6188,-19.5249 246.7978,-28.3774 253.5888,-30.0752"/>
</g>
<!-- Node3 -->
<g id="node4" class="node">
<title>Node3</title>
<g id="a_node4"><a xlink:href="crc32_8h" target="_top" xlink:title="crc32.h">
<polygon fill="none" stroke="#000000" points="79,-56.5 79,-75.5 127,-75.5 127,-56.5 79,-56.5"/>
<text text-anchor="middle" x="103" y="-63.5" font-family="FreeSans" font-size="10.00" fill="#000000">crc32.h</text>
</a>
</g>
</g>
<!-- Node0&#45;&gt;Node3 -->
<g id="edge3" class="edge">
<title>Node0&#45;&gt;Node3</title>
<path fill="none" stroke="#191970" d="M205.6836,-112.3733C185.7784,-103.3838 155.8564,-89.8706 133.44,-79.7471"/>
<polygon fill="#191970" stroke="#191970" points="134.5925,-76.4272 124.0382,-75.5011 131.7113,-82.8068 134.5925,-76.4272"/>
</g>
<!-- Node6 -->
<g id="node7" class="node">
<title>Node6</title>
<g id="a_node7"><a xlink:href="globals_8h" target="_top" xlink:title="globals.h">
<polygon fill="none" stroke="#000000" points="330,-56.5 330,-75.5 384,-75.5 384,-56.5 330,-56.5"/>
<text text-anchor="middle" x="357" y="-63.5" font-family="FreeSans" font-size="10.00" fill="#000000">globals.h</text>
</a>
</g>
</g>
<!-- Node0&#45;&gt;Node6 -->
<g id="edge6" class="edge">
<title>Node0&#45;&gt;Node6</title>
<path fill="none" stroke="#191970" d="M249.3478,-112.3733C270.4033,-103.3032 302.1495,-89.6279 325.7175,-79.4755"/>
<polygon fill="#191970" stroke="#191970" points="327.1444,-82.6719 334.9438,-75.5011 324.375,-76.243 327.1444,-82.6719"/>
</g>
<!-- Node4 -->
<g id="node5" class="node">
<title>Node4</title>
<g id="a_node5"><a xlink:href="settings_8h" target="_top" xlink:title="settings.h">
<polygon fill="none" stroke="#000000" points="74.5,-.5 74.5,-19.5 131.5,-19.5 131.5,-.5 74.5,-.5"/>
<text text-anchor="middle" x="103" y="-7.5" font-family="FreeSans" font-size="10.00" fill="#000000">settings.h</text>
</a>
</g>
</g>
<!-- Node3&#45;&gt;Node4 -->
<g id="edge4" class="edge">
<title>Node3&#45;&gt;Node4</title>
<path fill="none" stroke="#191970" d="M103,-56.2455C103,-48.9382 103,-38.6944 103,-29.7046"/>
<polygon fill="#191970" stroke="#191970" points="106.5001,-29.6426 103,-19.6427 99.5001,-29.6427 106.5001,-29.6426"/>
</g>
<!-- Node5 -->
<g id="node6" class="node">
<title>Node5</title>
<polygon fill="none" stroke="#bfbfbf" points="0,-.5 0,-19.5 56,-19.5 56,-.5 0,-.5"/>
<text text-anchor="middle" x="28" y="-7.5" font-family="FreeSans" font-size="10.00" fill="#000000">wx/defs.h</text>
</g>
<!-- Node3&#45;&gt;Node5 -->
<g id="edge5" class="edge">
<title>Node3&#45;&gt;Node5</title>
<path fill="none" stroke="#191970" d="M89.936,-56.2455C78.6438,-47.814 62.1155,-35.4729 48.9729,-25.6598"/>
<polygon fill="#191970" stroke="#191970" points="51.0211,-22.8211 40.9143,-19.6427 46.8331,-28.4301 51.0211,-22.8211"/>
</g>
<!-- Node6&#45;&gt;Node1 -->
<g id="edge8" class="edge">
<title>Node6&#45;&gt;Node1</title>
<path fill="none" stroke="#191970" d="M329.8857,-57.3727C300.7866,-48.1139 254.2658,-33.3118 220.97,-22.7177"/>
<polygon fill="#191970" stroke="#191970" points="221.6858,-19.2726 211.0953,-19.5758 219.5633,-25.9431 221.6858,-19.2726"/>
</g>
<!-- Node6&#45;&gt;Node2 -->
<g id="edge10" class="edge">
<title>Node6&#45;&gt;Node2</title>
<path fill="none" stroke="#191970" d="M339.233,-56.2455C323.2905,-47.4928 299.6741,-34.527 281.5011,-24.5496"/>
<polygon fill="#191970" stroke="#191970" points="283.0137,-21.3873 272.5634,-19.6427 279.6448,-27.5233 283.0137,-21.3873"/>
</g>
<!-- Node6&#45;&gt;Node4 -->
<g id="edge15" class="edge">
<title>Node6&#45;&gt;Node4</title>
<path fill="none" stroke="#191970" d="M329.9683,-60.6725C290.7386,-52.8483 215.5255,-37.5002 141.5504,-20.0446"/>
<polygon fill="#191970" stroke="#191970" points="142.1354,-16.5862 131.5973,-17.6811 140.5181,-23.3968 142.1354,-16.5862"/>
</g>
<!-- Node7 -->
<g id="node8" class="node">
<title>Node7</title>
<polygon fill="none" stroke="#bfbfbf" points="298.5,-.5 298.5,-19.5 341.5,-19.5 341.5,-.5 298.5,-.5"/>
<text text-anchor="middle" x="320" y="-7.5" font-family="FreeSans" font-size="10.00" fill="#000000">vector</text>
</g>
<!-- Node6&#45;&gt;Node7 -->
<g id="edge7" class="edge">
<title>Node6&#45;&gt;Node7</title>
<path fill="none" stroke="#191970" d="M350.5551,-56.2455C345.4618,-48.5367 338.2092,-37.5598 332.048,-28.2348"/>
<polygon fill="#191970" stroke="#191970" points="334.8038,-26.0566 326.3711,-19.6427 328.9635,-29.9155 334.8038,-26.0566"/>
</g>
<!-- Node8 -->
<g id="node9" class="node">
<title>Node8</title>
<polygon fill="none" stroke="#bfbfbf" points="360,-.5 360,-19.5 428,-19.5 428,-.5 360,-.5"/>
<text text-anchor="middle" x="394" y="-7.5" font-family="FreeSans" font-size="10.00" fill="#000000">wx/treectrl.h</text>
</g>
<!-- Node6&#45;&gt;Node8 -->
<g id="edge9" class="edge">
<title>Node6&#45;&gt;Node8</title>
<path fill="none" stroke="#191970" d="M363.4449,-56.2455C368.5382,-48.5367 375.7908,-37.5598 381.952,-28.2348"/>
<polygon fill="#191970" stroke="#191970" points="385.0365,-29.9155 387.6289,-19.6427 379.1962,-26.0566 385.0365,-29.9155"/>
</g>
<!-- Node9 -->
<g id="node10" class="node">
<title>Node9</title>
<polygon fill="none" stroke="#bfbfbf" points="446,-.5 446,-19.5 520,-19.5 520,-.5 446,-.5"/>
<text text-anchor="middle" x="483" y="-7.5" font-family="FreeSans" font-size="10.00" fill="#000000">wx/filename.h</text>
</g>
<!-- Node6&#45;&gt;Node9 -->
<g id="edge11" class="edge">
<title>Node6&#45;&gt;Node9</title>
<path fill="none" stroke="#191970" d="M378.6602,-56.3733C398.9772,-47.3435 429.564,-33.7494 452.375,-23.6111"/>
<polygon fill="#191970" stroke="#191970" points="453.9059,-26.7609 461.6225,-19.5011 451.0628,-20.3642 453.9059,-26.7609"/>
</g>
<!-- Node10 -->
<g id="node11" class="node">
<title>Node10</title>
<polygon fill="none" stroke="#bfbfbf" points="538.5,-.5 538.5,-19.5 589.5,-19.5 589.5,-.5 538.5,-.5"/>
<text text-anchor="middle" x="564" y="-7.5" font-family="FreeSans" font-size="10.00" fill="#000000">wx/intl.h</text>
</g>
<!-- Node6&#45;&gt;Node10 -->
<g id="edge12" class="edge">
<title>Node6&#45;&gt;Node10</title>
<path fill="none" stroke="#191970" d="M384.1477,-58.8918C416.2218,-50.4606 471.4399,-35.8424 528.4852,-20.1093"/>
<polygon fill="#191970" stroke="#191970" points="529.6939,-23.4065 538.3999,-17.3685 527.8288,-16.6595 529.6939,-23.4065"/>
</g>
<!-- Node11 -->
<g id="node12" class="node">
<title>Node11</title>
<polygon fill="none" stroke="#bfbfbf" points="607.5,-.5 607.5,-19.5 676.5,-19.5 676.5,-.5 607.5,-.5"/>
<text text-anchor="middle" x="642" y="-7.5" font-family="FreeSans" font-size="10.00" fill="#000000">wx/msgdlg.h</text>
</g>
<!-- Node6&#45;&gt;Node11 -->
<g id="edge13" class="edge">
<title>Node6&#45;&gt;Node11</title>
<path fill="none" stroke="#191970" d="M384.2914,-61.1858C427.4751,-53.4877 514.4273,-37.6613 597.4527,-20.2715"/>
<polygon fill="#191970" stroke="#191970" points="598.2292,-23.6848 607.2931,-18.1989 596.7865,-16.8351 598.2292,-23.6848"/>
</g>
<!-- Node12 -->
<g id="node13" class="node">
<title>Node12</title>
<polygon fill="none" stroke="#bfbfbf" points="695,-.5 695,-19.5 763,-19.5 763,-.5 695,-.5"/>
<text text-anchor="middle" x="729" y="-7.5" font-family="FreeSans" font-size="10.00" fill="#000000">wx/bitmap.h</text>
</g>
<!-- Node6&#45;&gt;Node12 -->
<g id="edge14" class="edge">
<title>Node6&#45;&gt;Node12</title>
<path fill="none" stroke="#191970" d="M384.431,-63.0069C439.502,-56.8179 567.6016,-41.5172 684.9234,-20.0702"/>
<polygon fill="#191970" stroke="#191970" points="685.593,-23.5058 694.7905,-18.247 684.321,-16.6224 685.593,-23.5058"/>
</g>
</g>
</svg>
