<?xml version="1.0" encoding="UTF-8" standalone="no"?>
<!DOCTYPE svg PUBLIC "-//W3C//DTD SVG 1.1//EN"
 "http://www.w3.org/Graphics/SVG/1.1/DTD/svg11.dtd">
<!-- Generated by graphviz version 2.38.0 (20140413.2041)
 -->
<!-- Title: debuggersettingspanel.h Pages: 1 -->
<svg width="316pt" height="84pt"
 viewBox="0.00 0.00 315.50 84.00" xmlns="http://www.w3.org/2000/svg" xmlns:xlink="http://www.w3.org/1999/xlink">
<g id="graph0" class="graph" transform="scale(1 1) rotate(0) translate(4 80)">
<title>debuggersettingspanel.h</title>
<polygon fill="white" stroke="none" points="-4,4 -4,-80 311.5,-80 311.5,4 -4,4"/>
<!-- Node1 -->
<g id="node1" class="node"><title>Node1</title>
<polygon fill="#bfbfbf" stroke="black" points="91,-56.5 91,-75.5 211,-75.5 211,-56.5 91,-56.5"/>
<text text-anchor="middle" x="151" y="-63.5" font-family="FreeSans" font-size="10.00">debuggersettingspanel.h</text>
</g>
<!-- Node2 -->
<g id="node2" class="node"><title>Node2</title>
<polygon fill="white" stroke="#bfbfbf" points="0,-0.5 0,-19.5 58,-19.5 58,-0.5 0,-0.5"/>
<text text-anchor="middle" x="29" y="-7.5" font-family="FreeSans" font-size="10.00">wx/sizer.h</text>
</g>
<!-- Node1&#45;&gt;Node2 -->
<g id="edge1" class="edge"><title>Node1&#45;&gt;Node2</title>
<path fill="none" stroke="midnightblue" d="M131.669,-56.4435C111.68,-47.5961 80.2569,-33.6875 57.4361,-23.5865"/>
<polygon fill="midnightblue" stroke="midnightblue" points="58.8018,-20.3635 48.2408,-19.5164 55.9685,-26.7645 58.8018,-20.3635"/>
</g>
<!-- Node3 -->
<g id="node3" class="node"><title>Node3</title>
<polygon fill="white" stroke="#bfbfbf" points="76,-0.5 76,-19.5 144,-19.5 144,-0.5 76,-0.5"/>
<text text-anchor="middle" x="110" y="-7.5" font-family="FreeSans" font-size="10.00">wx/textctrl.h</text>
</g>
<!-- Node1&#45;&gt;Node3 -->
<g id="edge2" class="edge"><title>Node1&#45;&gt;Node3</title>
<path fill="none" stroke="midnightblue" d="M144.23,-56.083C138.438,-48.4554 129.942,-37.2645 122.862,-27.9408"/>
<polygon fill="midnightblue" stroke="midnightblue" points="125.479,-25.5991 116.644,-19.7511 119.904,-29.8321 125.479,-25.5991"/>
</g>
<!-- Node4 -->
<g id="node4" class="node"><title>Node4</title>
<polygon fill="white" stroke="#bfbfbf" points="162,-0.5 162,-19.5 224,-19.5 224,-0.5 162,-0.5"/>
<text text-anchor="middle" x="193" y="-7.5" font-family="FreeSans" font-size="10.00">wx/panel.h</text>
</g>
<!-- Node1&#45;&gt;Node4 -->
<g id="edge3" class="edge"><title>Node1&#45;&gt;Node4</title>
<path fill="none" stroke="midnightblue" d="M157.935,-56.083C163.929,-48.3768 172.752,-37.0333 180.048,-27.6531"/>
<polygon fill="midnightblue" stroke="midnightblue" points="182.817,-29.7934 186.194,-19.7511 177.291,-25.4958 182.817,-29.7934"/>
</g>
<!-- Node5 -->
<g id="node5" class="node"><title>Node5</title>
<polygon fill="white" stroke="#bfbfbf" points="242.5,-0.5 242.5,-19.5 307.5,-19.5 307.5,-0.5 242.5,-0.5"/>
<text text-anchor="middle" x="275" y="-7.5" font-family="FreeSans" font-size="10.00">wx/button.h</text>
</g>
<!-- Node1&#45;&gt;Node5 -->
<g id="edge4" class="edge"><title>Node1&#45;&gt;Node5</title>
<path fill="none" stroke="midnightblue" d="M170.648,-56.4435C190.965,-47.5961 222.903,-33.6875 246.098,-23.5865"/>
<polygon fill="midnightblue" stroke="midnightblue" points="247.673,-26.7181 255.444,-19.5164 244.878,-20.3002 247.673,-26.7181"/>
</g>
</g>
</svg>
