<?xml version="1.0" encoding="UTF-8" standalone="no"?>
<!DOCTYPE svg PUBLIC "-//W3C//DTD SVG 1.1//EN"
 "http://www.w3.org/Graphics/SVG/1.1/DTD/svg11.dtd">
<!-- Generated by graphviz version 2.40.1 (20161225.0304)
 -->
<!-- Title: debuggersettingsdlg.cpp Pages: 1 -->
<svg width="1885pt" height="308pt"
 viewBox="0.00 0.00 1885.00 308.00" xmlns="http://www.w3.org/2000/svg" xmlns:xlink="http://www.w3.org/1999/xlink">
<g id="graph0" class="graph" transform="scale(1 1) rotate(0) translate(4 304)">
<title>debuggersettingsdlg.cpp</title>
<!-- Node0 -->
<g id="node1" class="node">
<title>Node0</title>
<polygon fill="#bfbfbf" stroke="#000000" points="1215.5,-280.5 1215.5,-299.5 1335.5,-299.5 1335.5,-280.5 1215.5,-280.5"/>
<text text-anchor="middle" x="1275.5" y="-287.5" font-family="FreeSans" font-size="10.00" fill="#000000">debuggersettingsdlg.cpp</text>
</g>
<!-- Node1 -->
<g id="node2" class="node">
<title>Node1</title>
<g id="a_node2"><a xlink:href="sdk_8h" target="_top" xlink:title="sdk.h">
<polygon fill="none" stroke="#000000" points="1115,-224.5 1115,-243.5 1154,-243.5 1154,-224.5 1115,-224.5"/>
<text text-anchor="middle" x="1134.5" y="-231.5" font-family="FreeSans" font-size="10.00" fill="#000000">sdk.h</text>
</a>
</g>
</g>
<!-- Node0&#45;&gt;Node1 -->
<g id="edge1" class="edge">
<title>Node0&#45;&gt;Node1</title>
<path fill="none" stroke="#191970" d="M1251.2612,-280.3733C1226.9643,-270.7234 1189.5425,-255.8608 1163.6418,-245.5741"/>
<polygon fill="#191970" stroke="#191970" points="1164.9164,-242.3144 1154.3306,-241.876 1162.3325,-248.8201 1164.9164,-242.3144"/>
</g>
<!-- Node8 -->
<g id="node9" class="node">
<title>Node8</title>
<polygon fill="none" stroke="#bfbfbf" points="0,-112.5 0,-131.5 65,-131.5 65,-112.5 0,-112.5"/>
<text text-anchor="middle" x="32.5" y="-119.5" font-family="FreeSans" font-size="10.00" fill="#000000">wx/button.h</text>
</g>
<!-- Node0&#45;&gt;Node8 -->
<g id="edge33" class="edge">
<title>Node0&#45;&gt;Node8</title>
<path fill="none" stroke="#191970" d="M1215.4162,-284.433C1040.4408,-267.7254 516.2338,-214.1565 75.1803,-132.1711"/>
<polygon fill="#191970" stroke="#191970" points="75.5769,-128.6848 65.1045,-130.2905 74.2925,-135.5659 75.5769,-128.6848"/>
</g>
<!-- Node25 -->
<g id="node20" class="node">
<title>Node25</title>
<polygon fill="none" stroke="#bfbfbf" points="1414,-112.5 1414,-131.5 1469,-131.5 1469,-112.5 1414,-112.5"/>
<text text-anchor="middle" x="1441.5" y="-119.5" font-family="FreeSans" font-size="10.00" fill="#000000">wx/font.h</text>
</g>
<!-- Node0&#45;&gt;Node25 -->
<g id="edge34" class="edge">
<title>Node0&#45;&gt;Node25</title>
<path fill="none" stroke="#191970" d="M1252.734,-280.3999C1238.0403,-272.8573 1220.1158,-260.8029 1211.5,-244 1202.0899,-225.648 1209.631,-180.1433 1221.5,-168 1277.917,-110.2792 1320.6739,-149.3499 1399.5,-132 1400.9641,-131.6778 1402.4557,-131.3448 1403.9617,-131.0049"/>
<polygon fill="#191970" stroke="#191970" points="1405.0106,-134.3549 1413.9684,-128.6974 1403.4376,-127.5339 1405.0106,-134.3549"/>
</g>
<!-- Node137 -->
<g id="node27" class="node">
<title>Node137</title>
<g id="a_node27"><a xlink:href="debuggersettingsdlg_8h" target="_top" xlink:title="debuggersettingsdlg.h">
<polygon fill="none" stroke="#000000" points="1220.5,-224.5 1220.5,-243.5 1330.5,-243.5 1330.5,-224.5 1220.5,-224.5"/>
<text text-anchor="middle" x="1275.5" y="-231.5" font-family="FreeSans" font-size="10.00" fill="#000000">debuggersettingsdlg.h</text>
</a>
</g>
</g>
<!-- Node0&#45;&gt;Node137 -->
<g id="edge30" class="edge">
<title>Node0&#45;&gt;Node137</title>
<path fill="none" stroke="#191970" d="M1275.5,-280.2455C1275.5,-272.9382 1275.5,-262.6944 1275.5,-253.7046"/>
<polygon fill="#191970" stroke="#191970" points="1279.0001,-253.6426 1275.5,-243.6427 1272.0001,-253.6427 1279.0001,-253.6426"/>
</g>
<!-- Node140 -->
<g id="node30" class="node">
<title>Node140</title>
<g id="a_node30"><a xlink:href="debuggermanager_8h" target="_top" xlink:title="debuggermanager.h">
<polygon fill="none" stroke="#000000" points="1625,-168.5 1625,-187.5 1726,-187.5 1726,-168.5 1625,-168.5"/>
<text text-anchor="middle" x="1675.5" y="-175.5" font-family="FreeSans" font-size="10.00" fill="#000000">debuggermanager.h</text>
</a>
</g>
</g>
<!-- Node0&#45;&gt;Node140 -->
<g id="edge35" class="edge">
<title>Node0&#45;&gt;Node140</title>
<path fill="none" stroke="#191970" d="M1288.975,-280.2611C1312.1533,-263.6856 1358.8719,-231.0911 1377.5,-224 1419.7289,-207.9249 1540.5145,-192.6123 1614.7067,-184.3436"/>
<polygon fill="#191970" stroke="#191970" points="1615.2973,-187.7998 1624.8532,-183.2243 1614.5297,-180.842 1615.2973,-187.7998"/>
</g>
<!-- Node141 -->
<g id="node31" class="node">
<title>Node141</title>
<g id="a_node31"><a xlink:href="debuggersettingspanel_8h" target="_top" xlink:title="debuggersettingspanel.h">
<polygon fill="none" stroke="#000000" points="1386.5,-224.5 1386.5,-243.5 1506.5,-243.5 1506.5,-224.5 1386.5,-224.5"/>
<text text-anchor="middle" x="1446.5" y="-231.5" font-family="FreeSans" font-size="10.00" fill="#000000">debuggersettingspanel.h</text>
</a>
</g>
</g>
<!-- Node0&#45;&gt;Node141 -->
<g id="edge43" class="edge">
<title>Node0&#45;&gt;Node141</title>
<path fill="none" stroke="#191970" d="M1304.8959,-280.3733C1333.3307,-271.0613 1376.5877,-256.8953 1407.8081,-246.671"/>
<polygon fill="#191970" stroke="#191970" points="1409.0736,-249.9396 1417.4876,-243.5011 1406.895,-243.2872 1409.0736,-249.9396"/>
</g>
<!-- Node142 -->
<g id="node32" class="node">
<title>Node142</title>
<g id="a_node32"><a xlink:href="debuggersettingscommonpanel_8h" target="_top" xlink:title="debuggersettingscommonpanel.h">
<polygon fill="none" stroke="#000000" points="1524.5,-224.5 1524.5,-243.5 1682.5,-243.5 1682.5,-224.5 1524.5,-224.5"/>
<text text-anchor="middle" x="1603.5" y="-231.5" font-family="FreeSans" font-size="10.00" fill="#000000">debuggersettingscommonpanel.h</text>
</a>
</g>
</g>
<!-- Node0&#45;&gt;Node142 -->
<g id="edge44" class="edge">
<title>Node0&#45;&gt;Node142</title>
<path fill="none" stroke="#191970" d="M1331.5125,-280.4369C1388.5906,-270.6918 1477.0842,-255.5832 1537.5224,-245.2645"/>
<polygon fill="#191970" stroke="#191970" points="1538.4502,-248.6568 1547.7185,-243.5237 1537.2721,-241.7566 1538.4502,-248.6568"/>
</g>
<!-- Node2 -->
<g id="node3" class="node">
<title>Node2</title>
<g id="a_node3"><a xlink:href="sdk__common_8h" target="_top" xlink:title="sdk_common.h">
<polygon fill="none" stroke="#ff0000" points="867.5,-168.5 867.5,-187.5 949.5,-187.5 949.5,-168.5 867.5,-168.5"/>
<text text-anchor="middle" x="908.5" y="-175.5" font-family="FreeSans" font-size="10.00" fill="#000000">sdk_common.h</text>
</a>
</g>
</g>
<!-- Node1&#45;&gt;Node2 -->
<g id="edge2" class="edge">
<title>Node1&#45;&gt;Node2</title>
<path fill="none" stroke="#191970" d="M1114.8393,-229.1283C1079.8759,-220.4648 1005.9457,-202.1458 956.7423,-189.9538"/>
<polygon fill="#191970" stroke="#191970" points="957.4941,-186.5344 946.9458,-187.5264 955.8105,-193.3289 957.4941,-186.5344"/>
</g>
<!-- Node3 -->
<g id="node4" class="node">
<title>Node3</title>
<polygon fill="none" stroke="#bfbfbf" points="583.5,-112.5 583.5,-131.5 651.5,-131.5 651.5,-112.5 583.5,-112.5"/>
<text text-anchor="middle" x="617.5" y="-119.5" font-family="FreeSans" font-size="10.00" fill="#000000">wx/wxprec.h</text>
</g>
<!-- Node2&#45;&gt;Node3 -->
<g id="edge3" class="edge">
<title>Node2&#45;&gt;Node3</title>
<path fill="none" stroke="#191970" d="M867.14,-170.9164C819.8403,-162.6853 739.8438,-148.3694 661.7445,-132.194"/>
<polygon fill="#191970" stroke="#191970" points="662.2405,-128.7223 651.7367,-130.1087 660.8125,-135.5751 662.2405,-128.7223"/>
</g>
<!-- Node4 -->
<g id="node5" class="node">
<title>Node4</title>
<g id="a_node5"><a xlink:href="prep_8h" target="_top" xlink:title="prep.h">
<polygon fill="none" stroke="#000000" points="1568,-112.5 1568,-131.5 1611,-131.5 1611,-112.5 1568,-112.5"/>
<text text-anchor="middle" x="1589.5" y="-119.5" font-family="FreeSans" font-size="10.00" fill="#000000">prep.h</text>
</a>
</g>
</g>
<!-- Node2&#45;&gt;Node4 -->
<g id="edge4" class="edge">
<title>Node2&#45;&gt;Node4</title>
<path fill="none" stroke="#191970" d="M949.5078,-176.3938C1069.9964,-171.475 1422.3916,-155.613 1557.8562,-131.567"/>
<polygon fill="#191970" stroke="#191970" points="1558.8079,-134.9498 1567.994,-129.671 1557.521,-128.0691 1558.8079,-134.9498"/>
</g>
<!-- Node5 -->
<g id="node6" class="node">
<title>Node5</title>
<polygon fill="none" stroke="#bfbfbf" points="669.5,-112.5 669.5,-131.5 723.5,-131.5 723.5,-112.5 669.5,-112.5"/>
<text text-anchor="middle" x="696.5" y="-119.5" font-family="FreeSans" font-size="10.00" fill="#000000">wx/app.h</text>
</g>
<!-- Node2&#45;&gt;Node5 -->
<g id="edge5" class="edge">
<title>Node2&#45;&gt;Node5</title>
<path fill="none" stroke="#191970" d="M871.3738,-168.4725C837.8131,-159.8208 786.7935,-146.5719 733.5738,-132.2629"/>
<polygon fill="#191970" stroke="#191970" points="734.1809,-128.8017 723.6146,-129.5797 732.3598,-135.5607 734.1809,-128.8017"/>
</g>
<!-- Node6 -->
<g id="node7" class="node">
<title>Node6</title>
<polygon fill="none" stroke="#bfbfbf" points="741.5,-112.5 741.5,-131.5 801.5,-131.5 801.5,-112.5 741.5,-112.5"/>
<text text-anchor="middle" x="771.5" y="-119.5" font-family="FreeSans" font-size="10.00" fill="#000000">wx/arrstr.h</text>
</g>
<!-- Node2&#45;&gt;Node6 -->
<g id="edge6" class="edge">
<title>Node2&#45;&gt;Node6</title>
<path fill="none" stroke="#191970" d="M884.9489,-168.3733C862.6609,-159.2629 829.0063,-145.5062 804.1363,-135.3404"/>
<polygon fill="#191970" stroke="#191970" points="805.3247,-132.0451 794.7438,-131.5011 802.6761,-138.5247 805.3247,-132.0451"/>
</g>
<!-- Node7 -->
<g id="node8" class="node">
<title>Node7</title>
<polygon fill="none" stroke="#bfbfbf" points="820,-112.5 820,-131.5 899,-131.5 899,-112.5 820,-112.5"/>
<text text-anchor="middle" x="859.5" y="-119.5" font-family="FreeSans" font-size="10.00" fill="#000000">wx/bmpbuttn.h</text>
</g>
<!-- Node2&#45;&gt;Node7 -->
<g id="edge7" class="edge">
<title>Node2&#45;&gt;Node7</title>
<path fill="none" stroke="#191970" d="M899.9649,-168.2455C893.0088,-160.2958 883.0117,-148.8706 874.6949,-139.3656"/>
<polygon fill="#191970" stroke="#191970" points="877.1564,-136.8637 867.9373,-131.6427 871.8884,-141.4732 877.1564,-136.8637"/>
</g>
<!-- Node2&#45;&gt;Node8 -->
<g id="edge8" class="edge">
<title>Node2&#45;&gt;Node8</title>
<path fill="none" stroke="#191970" d="M867.3686,-176.7384C724.358,-172.1983 248.504,-155.7664 75.0664,-131.9486"/>
<polygon fill="#191970" stroke="#191970" points="75.4619,-128.4696 65.0666,-130.5165 74.4694,-135.3989 75.4619,-128.4696"/>
</g>
<!-- Node9 -->
<g id="node10" class="node">
<title>Node9</title>
<polygon fill="none" stroke="#bfbfbf" points="917.5,-112.5 917.5,-131.5 997.5,-131.5 997.5,-112.5 917.5,-112.5"/>
<text text-anchor="middle" x="957.5" y="-119.5" font-family="FreeSans" font-size="10.00" fill="#000000">wx/checkbox.h</text>
</g>
<!-- Node2&#45;&gt;Node9 -->
<g id="edge9" class="edge">
<title>Node2&#45;&gt;Node9</title>
<path fill="none" stroke="#191970" d="M917.0351,-168.2455C923.9912,-160.2958 933.9883,-148.8706 942.3051,-139.3656"/>
<polygon fill="#191970" stroke="#191970" points="945.1116,-141.4732 949.0627,-131.6427 939.8436,-136.8637 945.1116,-141.4732"/>
</g>
<!-- Node10 -->
<g id="node11" class="node">
<title>Node10</title>
<polygon fill="none" stroke="#bfbfbf" points="1015.5,-112.5 1015.5,-131.5 1089.5,-131.5 1089.5,-112.5 1015.5,-112.5"/>
<text text-anchor="middle" x="1052.5" y="-119.5" font-family="FreeSans" font-size="10.00" fill="#000000">wx/checklst.h</text>
</g>
<!-- Node2&#45;&gt;Node10 -->
<g id="edge10" class="edge">
<title>Node2&#45;&gt;Node10</title>
<path fill="none" stroke="#191970" d="M933.2545,-168.3733C956.7849,-159.2226 992.3687,-145.3844 1018.5426,-135.2057"/>
<polygon fill="#191970" stroke="#191970" points="1020.0171,-138.3877 1028.0685,-131.5011 1017.4799,-131.8636 1020.0171,-138.3877"/>
</g>
<!-- Node11 -->
<g id="node12" class="node">
<title>Node11</title>
<polygon fill="none" stroke="#bfbfbf" points="1108,-112.5 1108,-131.5 1175,-131.5 1175,-112.5 1108,-112.5"/>
<text text-anchor="middle" x="1141.5" y="-119.5" font-family="FreeSans" font-size="10.00" fill="#000000">wx/choice.h</text>
</g>
<!-- Node2&#45;&gt;Node11 -->
<g id="edge11" class="edge">
<title>Node2&#45;&gt;Node11</title>
<path fill="none" stroke="#191970" d="M948.2894,-168.4369C989.9233,-158.4305 1055.0868,-142.7688 1098.0426,-132.4447"/>
<polygon fill="#191970" stroke="#191970" points="1099.0168,-135.8103 1107.922,-130.0702 1097.381,-129.0041 1099.0168,-135.8103"/>
</g>
<!-- Node12 -->
<g id="node13" class="node">
<title>Node12</title>
<polygon fill="none" stroke="#bfbfbf" points="1193.5,-112.5 1193.5,-131.5 1267.5,-131.5 1267.5,-112.5 1193.5,-112.5"/>
<text text-anchor="middle" x="1230.5" y="-119.5" font-family="FreeSans" font-size="10.00" fill="#000000">wx/choicdlg.h</text>
</g>
<!-- Node2&#45;&gt;Node12 -->
<g id="edge12" class="edge">
<title>Node2&#45;&gt;Node12</title>
<path fill="none" stroke="#191970" d="M949.6,-171.702C1003.4465,-163.3188 1100.7521,-147.7159 1183.5,-132 1183.5999,-131.981 1183.6999,-131.962 1183.8,-131.9429"/>
<polygon fill="#191970" stroke="#191970" points="1184.195,-135.4325 1193.3301,-130.0659 1182.8422,-128.5644 1184.195,-135.4325"/>
</g>
<!-- Node13 -->
<g id="node14" class="node">
<title>Node13</title>
<polygon fill="none" stroke="#bfbfbf" points="1285.5,-112.5 1285.5,-131.5 1357.5,-131.5 1357.5,-112.5 1285.5,-112.5"/>
<text text-anchor="middle" x="1321.5" y="-119.5" font-family="FreeSans" font-size="10.00" fill="#000000">wx/colordlg.h</text>
</g>
<!-- Node2&#45;&gt;Node13 -->
<g id="edge13" class="edge">
<title>Node2&#45;&gt;Node13</title>
<path fill="none" stroke="#191970" d="M949.5287,-174.1475C1015.906,-167.6372 1151.1247,-153.2258 1275.1583,-132.1037"/>
<polygon fill="#191970" stroke="#191970" points="1275.9481,-135.5193 1285.2091,-130.3729 1274.7601,-128.6208 1275.9481,-135.5193"/>
</g>
<!-- Node14 -->
<g id="node15" class="node">
<title>Node14</title>
<polygon fill="none" stroke="#bfbfbf" points="83,-112.5 83,-131.5 166,-131.5 166,-112.5 83,-112.5"/>
<text text-anchor="middle" x="124.5" y="-119.5" font-family="FreeSans" font-size="10.00" fill="#000000">wx/combobox.h</text>
</g>
<!-- Node2&#45;&gt;Node14 -->
<g id="edge14" class="edge">
<title>Node2&#45;&gt;Node14</title>
<path fill="none" stroke="#191970" d="M867.3303,-177.3626C756.8637,-175.2389 444.6332,-166.518 176.1068,-132.0605"/>
<polygon fill="#191970" stroke="#191970" points="176.5393,-128.5874 166.172,-130.7712 175.6384,-135.5292 176.5393,-128.5874"/>
</g>
<!-- Node15 -->
<g id="node16" class="node">
<title>Node15</title>
<polygon fill="none" stroke="#bfbfbf" points="184,-112.5 184,-131.5 261,-131.5 261,-112.5 184,-112.5"/>
<text text-anchor="middle" x="222.5" y="-119.5" font-family="FreeSans" font-size="10.00" fill="#000000">wx/confbase.h</text>
</g>
<!-- Node2&#45;&gt;Node15 -->
<g id="edge15" class="edge">
<title>Node2&#45;&gt;Node15</title>
<path fill="none" stroke="#191970" d="M867.2479,-176.9314C766.8952,-173.9244 501.9645,-163.5409 271.1206,-131.9004"/>
<polygon fill="#191970" stroke="#191970" points="271.5811,-128.4308 261.1951,-130.5238 270.6194,-135.3645 271.5811,-128.4308"/>
</g>
<!-- Node16 -->
<g id="node17" class="node">
<title>Node16</title>
<polygon fill="none" stroke="#bfbfbf" points="279.5,-112.5 279.5,-131.5 355.5,-131.5 355.5,-112.5 279.5,-112.5"/>
<text text-anchor="middle" x="317.5" y="-119.5" font-family="FreeSans" font-size="10.00" fill="#000000">wx/datetime.h</text>
</g>
<!-- Node2&#45;&gt;Node16 -->
<g id="edge16" class="edge">
<title>Node2&#45;&gt;Node16</title>
<path fill="none" stroke="#191970" d="M867.3517,-176.2829C777.862,-172.17 558.7399,-160.0504 365.6921,-132.0112"/>
<polygon fill="#191970" stroke="#191970" points="366.0498,-128.5263 355.647,-130.5342 365.0314,-135.4518 366.0498,-128.5263"/>
</g>
<!-- Node17 -->
<g id="node18" class="node">
<title>Node17</title>
<polygon fill="none" stroke="#bfbfbf" points="373.5,-112.5 373.5,-131.5 445.5,-131.5 445.5,-112.5 373.5,-112.5"/>
<text text-anchor="middle" x="409.5" y="-119.5" font-family="FreeSans" font-size="10.00" fill="#000000">wx/dcclient.h</text>
</g>
<!-- Node2&#45;&gt;Node17 -->
<g id="edge17" class="edge">
<title>Node2&#45;&gt;Node17</title>
<path fill="none" stroke="#191970" d="M867.2839,-175.4552C789.0268,-170.2712 613.4061,-156.9533 456.1116,-132.1002"/>
<polygon fill="#191970" stroke="#191970" points="456.2061,-128.5709 445.7786,-130.4465 455.0998,-135.4829 456.2061,-128.5709"/>
</g>
<!-- Node18 -->
<g id="node19" class="node">
<title>Node18</title>
<polygon fill="none" stroke="#bfbfbf" points="463.5,-112.5 463.5,-131.5 527.5,-131.5 527.5,-112.5 463.5,-112.5"/>
<text text-anchor="middle" x="495.5" y="-119.5" font-family="FreeSans" font-size="10.00" fill="#000000">wx/dialog.h</text>
</g>
<!-- Node2&#45;&gt;Node18 -->
<g id="edge18" class="edge">
<title>Node2&#45;&gt;Node18</title>
<path fill="none" stroke="#191970" d="M867.3191,-174.0515C799.2422,-167.2527 659.0703,-152.1062 541.5,-132 540.2312,-131.783 538.9445,-131.5549 537.6467,-131.3178"/>
<polygon fill="#191970" stroke="#191970" points="538.0839,-127.8373 527.5993,-129.3612 536.7458,-134.7082 538.0839,-127.8373"/>
</g>
<!-- Node2&#45;&gt;Node25 -->
<g id="edge19" class="edge">
<title>Node2&#45;&gt;Node25</title>
<path fill="none" stroke="#191970" d="M949.8109,-176.0907C1034.5846,-171.7424 1234.1433,-159.2927 1399.5,-132 1400.7896,-131.7872 1402.0983,-131.5569 1403.4177,-131.3126"/>
<polygon fill="#191970" stroke="#191970" points="1404.5061,-134.6622 1413.5968,-129.2206 1403.0969,-127.8055 1404.5061,-134.6622"/>
</g>
<!-- Node53 -->
<g id="node21" class="node">
<title>Node53</title>
<polygon fill="none" stroke="#bfbfbf" points="1487.5,-112.5 1487.5,-131.5 1549.5,-131.5 1549.5,-112.5 1487.5,-112.5"/>
<text text-anchor="middle" x="1518.5" y="-119.5" font-family="FreeSans" font-size="10.00" fill="#000000">wx/string.h</text>
</g>
<!-- Node2&#45;&gt;Node53 -->
<g id="edge20" class="edge">
<title>Node2&#45;&gt;Node53</title>
<path fill="none" stroke="#191970" d="M949.5587,-176.9993C1042.1721,-174.247 1274.4291,-164.5729 1477.2199,-131.9732"/>
<polygon fill="#191970" stroke="#191970" points="1477.8523,-135.4164 1487.1589,-130.353 1476.726,-128.5076 1477.8523,-135.4164"/>
</g>
<!-- Node71 -->
<g id="node22" class="node">
<title>Node71</title>
<g id="a_node22"><a xlink:href="settings_8h" target="_top" xlink:title="settings.h">
<polygon fill="none" stroke="#000000" points="1624,-.5 1624,-19.5 1681,-19.5 1681,-.5 1624,-.5"/>
<text text-anchor="middle" x="1652.5" y="-7.5" font-family="FreeSans" font-size="10.00" fill="#000000">settings.h</text>
</a>
</g>
</g>
<!-- Node2&#45;&gt;Node71 -->
<g id="edge21" class="edge">
<title>Node2&#45;&gt;Node71</title>
<path fill="none" stroke="#191970" d="M867.4453,-175.3271C782.4497,-169.3747 593.5148,-153.8132 574.5,-132 568.6591,-125.2995 568.518,-118.5748 574.5,-112 645.8981,-33.5273 1429.6136,-14.1366 1613.8747,-10.6492"/>
<polygon fill="#191970" stroke="#191970" points="1613.9847,-14.1478 1623.9184,-10.4637 1613.8554,-7.149 1613.9847,-14.1478"/>
</g>
<!-- Node88 -->
<g id="node23" class="node">
<title>Node88</title>
<g id="a_node23"><a xlink:href="manager_8h" target="_top" xlink:title="manager.h">
<polygon fill="none" stroke="#ff0000" points="1699.5,-56.5 1699.5,-75.5 1761.5,-75.5 1761.5,-56.5 1699.5,-56.5"/>
<text text-anchor="middle" x="1730.5" y="-63.5" font-family="FreeSans" font-size="10.00" fill="#000000">manager.h</text>
</a>
</g>
</g>
<!-- Node2&#45;&gt;Node88 -->
<g id="edge22" class="edge">
<title>Node2&#45;&gt;Node88</title>
<path fill="none" stroke="#191970" d="M949.6197,-175.8336C1046.8945,-170.3932 1288.8003,-154.9309 1366.5,-132 1385.183,-126.4862 1386.9325,-117.891 1405.5,-112 1504.0865,-80.7211 1626.2446,-70.6724 1688.9951,-67.4727"/>
<polygon fill="#191970" stroke="#191970" points="1689.4509,-70.9551 1699.2731,-66.9834 1689.1179,-63.963 1689.4509,-70.9551"/>
</g>
<!-- Node111 -->
<g id="node26" class="node">
<title>Node111</title>
<g id="a_node26"><a xlink:href="configmanager_8h" target="_top" xlink:title="configmanager.h">
<polygon fill="none" stroke="#ff0000" points="1668,-112.5 1668,-131.5 1755,-131.5 1755,-112.5 1668,-112.5"/>
<text text-anchor="middle" x="1711.5" y="-119.5" font-family="FreeSans" font-size="10.00" fill="#000000">configmanager.h</text>
</a>
</g>
</g>
<!-- Node2&#45;&gt;Node111 -->
<g id="edge26" class="edge">
<title>Node2&#45;&gt;Node111</title>
<path fill="none" stroke="#191970" d="M949.8817,-175.9781C1059.4224,-170.4848 1365.9865,-154.1946 1620.5,-132 1632.4989,-130.9536 1645.3681,-129.6505 1657.541,-128.3343"/>
<polygon fill="#191970" stroke="#191970" points="1658.0108,-131.8038 1667.568,-127.2309 1657.2451,-124.8458 1658.0108,-131.8038"/>
</g>
<!-- Node88&#45;&gt;Node71 -->
<g id="edge25" class="edge">
<title>Node88&#45;&gt;Node71</title>
<path fill="none" stroke="#191970" d="M1716.9134,-56.2455C1705.1695,-47.814 1687.9801,-35.4729 1674.3118,-25.6598"/>
<polygon fill="#191970" stroke="#191970" points="1676.0954,-22.6316 1665.9309,-19.6427 1672.0129,-28.3179 1676.0954,-22.6316"/>
</g>
<!-- Node89 -->
<g id="node24" class="node">
<title>Node89</title>
<polygon fill="none" stroke="#bfbfbf" points="1772,-.5 1772,-19.5 1807,-19.5 1807,-.5 1772,-.5"/>
<text text-anchor="middle" x="1789.5" y="-7.5" font-family="FreeSans" font-size="10.00" fill="#000000">map</text>
</g>
<!-- Node88&#45;&gt;Node89 -->
<g id="edge23" class="edge">
<title>Node88&#45;&gt;Node89</title>
<path fill="none" stroke="#191970" d="M1740.777,-56.2455C1749.3218,-48.1352 1761.6778,-36.4075 1771.8085,-26.7919"/>
<polygon fill="#191970" stroke="#191970" points="1774.4972,-29.0655 1779.3408,-19.6427 1769.6782,-23.9884 1774.4972,-29.0655"/>
</g>
<!-- Node73 -->
<g id="node25" class="node">
<title>Node73</title>
<polygon fill="none" stroke="#bfbfbf" points="1834,-.5 1834,-19.5 1877,-19.5 1877,-.5 1834,-.5"/>
<text text-anchor="middle" x="1855.5" y="-7.5" font-family="FreeSans" font-size="10.00" fill="#000000">vector</text>
</g>
<!-- Node88&#45;&gt;Node73 -->
<g id="edge24" class="edge">
<title>Node88&#45;&gt;Node73</title>
<path fill="none" stroke="#191970" d="M1751.9883,-56.3733C1772.144,-47.3435 1802.488,-33.7494 1825.118,-23.6111"/>
<polygon fill="#191970" stroke="#191970" points="1826.5971,-26.7838 1834.2921,-19.5011 1823.7351,-20.3955 1826.5971,-26.7838"/>
</g>
<!-- Node111&#45;&gt;Node71 -->
<g id="edge27" class="edge">
<title>Node111&#45;&gt;Node71</title>
<path fill="none" stroke="#191970" d="M1706.4697,-112.4509C1696.6727,-93.8533 1674.8841,-52.4919 1662.191,-28.3964"/>
<polygon fill="#191970" stroke="#191970" points="1665.275,-26.7411 1657.5176,-19.5249 1659.0817,-30.0036 1665.275,-26.7411"/>
</g>
<!-- Node111&#45;&gt;Node88 -->
<g id="edge28" class="edge">
<title>Node111&#45;&gt;Node88</title>
<path fill="none" stroke="#191970" d="M1714.8095,-112.2455C1717.3433,-104.7776 1720.9177,-94.2427 1724.015,-85.1137"/>
<polygon fill="#191970" stroke="#191970" points="1727.3298,-86.237 1727.2284,-75.6427 1720.7009,-83.9879 1727.3298,-86.237"/>
</g>
<!-- Node111&#45;&gt;Node89 -->
<g id="edge29" class="edge">
<title>Node111&#45;&gt;Node89</title>
<path fill="none" stroke="#191970" d="M1729.2087,-112.3551C1742.4253,-104.2879 1759.9526,-91.6026 1770.5,-76 1779.8792,-62.1256 1784.6859,-43.6087 1787.1142,-29.7198"/>
<polygon fill="#191970" stroke="#191970" points="1790.5877,-30.156 1788.5937,-19.7505 1783.6636,-29.1284 1790.5877,-30.156"/>
</g>
<!-- Node138 -->
<g id="node28" class="node">
<title>Node138</title>
<polygon fill="none" stroke="#bfbfbf" points="1231,-168.5 1231,-187.5 1300,-187.5 1300,-168.5 1231,-168.5"/>
<text text-anchor="middle" x="1265.5" y="-175.5" font-family="FreeSans" font-size="10.00" fill="#000000">wx/statline.h</text>
</g>
<!-- Node137&#45;&gt;Node138 -->
<g id="edge31" class="edge">
<title>Node137&#45;&gt;Node138</title>
<path fill="none" stroke="#191970" d="M1273.7581,-224.2455C1272.4533,-216.9382 1270.624,-206.6944 1269.0187,-197.7046"/>
<polygon fill="#191970" stroke="#191970" points="1272.4254,-196.8717 1267.2219,-187.6427 1265.5344,-198.1022 1272.4254,-196.8717"/>
</g>
<!-- Node139 -->
<g id="node29" class="node">
<title>Node139</title>
<polygon fill="none" stroke="#bfbfbf" points="1318.5,-168.5 1318.5,-187.5 1394.5,-187.5 1394.5,-168.5 1318.5,-168.5"/>
<text text-anchor="middle" x="1356.5" y="-175.5" font-family="FreeSans" font-size="10.00" fill="#000000">wx/treebook.h</text>
</g>
<!-- Node137&#45;&gt;Node139 -->
<g id="edge32" class="edge">
<title>Node137&#45;&gt;Node139</title>
<path fill="none" stroke="#191970" d="M1289.6091,-224.2455C1301.9209,-215.7337 1319.9958,-203.2375 1334.2538,-193.3801"/>
<polygon fill="#191970" stroke="#191970" points="1336.3174,-196.2085 1342.5526,-187.6427 1332.3366,-190.4506 1336.3174,-196.2085"/>
</g>
<!-- Node140&#45;&gt;Node4 -->
<g id="edge39" class="edge">
<title>Node140&#45;&gt;Node4</title>
<path fill="none" stroke="#191970" d="M1660.5199,-168.2455C1647.3249,-159.6534 1627.8949,-147.0014 1612.6921,-137.1018"/>
<polygon fill="#191970" stroke="#191970" points="1614.5983,-134.1665 1604.3084,-131.6427 1610.7785,-140.0325 1614.5983,-134.1665"/>
</g>
<!-- Node140&#45;&gt;Node53 -->
<g id="edge38" class="edge">
<title>Node140&#45;&gt;Node53</title>
<path fill="none" stroke="#191970" d="M1648.5107,-168.3733C1622.6301,-159.1419 1583.3752,-145.1402 1554.7711,-134.9375"/>
<polygon fill="#191970" stroke="#191970" points="1555.7317,-131.5642 1545.1371,-131.5011 1553.38,-138.1573 1555.7317,-131.5642"/>
</g>
<!-- Node140&#45;&gt;Node71 -->
<g id="edge40" class="edge">
<title>Node140&#45;&gt;Node71</title>
<path fill="none" stroke="#191970" d="M1671.2592,-168.349C1667.4485,-159.1892 1662.0691,-144.9378 1659.5,-132 1652.4369,-96.4311 1651.6851,-53.971 1651.9654,-29.6793"/>
<polygon fill="#191970" stroke="#191970" points="1655.4661,-29.6688 1652.1552,-19.6046 1648.4673,-29.5368 1655.4661,-29.6688"/>
</g>
<!-- Node140&#45;&gt;Node88 -->
<g id="edge41" class="edge">
<title>Node140&#45;&gt;Node88</title>
<path fill="none" stroke="#191970" d="M1713.5976,-168.4497C1732.3946,-161.6063 1753.3748,-150.2734 1764.5,-132 1774.3615,-115.8023 1761.6582,-96.4234 1749.0693,-82.8698"/>
<polygon fill="#191970" stroke="#191970" points="1751.3842,-80.2346 1741.8419,-75.6308 1746.4305,-85.1805 1751.3842,-80.2346"/>
</g>
<!-- Node140&#45;&gt;Node89 -->
<g id="edge36" class="edge">
<title>Node140&#45;&gt;Node89</title>
<path fill="none" stroke="#191970" d="M1720.9146,-168.4786C1741.87,-161.7585 1765.2141,-150.5271 1779.5,-132 1802.323,-102.4011 1798.5065,-55.8896 1793.8817,-29.6741"/>
<polygon fill="#191970" stroke="#191970" points="1797.3005,-28.9201 1791.9255,-19.7899 1790.4337,-30.2792 1797.3005,-28.9201"/>
</g>
<!-- Node140&#45;&gt;Node73 -->
<g id="edge37" class="edge">
<title>Node140&#45;&gt;Node73</title>
<path fill="none" stroke="#191970" d="M1726.0482,-168.4802C1750.3572,-161.738 1778.4878,-150.4869 1798.5,-132 1828.8522,-103.9612 1844.4638,-56.4835 1851.2208,-29.7751"/>
<polygon fill="#191970" stroke="#191970" points="1854.7038,-30.2538 1853.5917,-19.7175 1847.8906,-28.6477 1854.7038,-30.2538"/>
</g>
<!-- Node140&#45;&gt;Node111 -->
<g id="edge42" class="edge">
<title>Node140&#45;&gt;Node111</title>
<path fill="none" stroke="#191970" d="M1681.7707,-168.2455C1686.7264,-160.5367 1693.783,-149.5598 1699.7776,-140.2348"/>
<polygon fill="#191970" stroke="#191970" points="1702.8376,-141.9471 1705.3011,-131.6427 1696.9494,-138.1618 1702.8376,-141.9471"/>
</g>
</g>
</svg>
