<?xml version="1.0" encoding="UTF-8" standalone="no"?>
<!DOCTYPE svg PUBLIC "-//W3C//DTD SVG 1.1//EN"
 "http://www.w3.org/Graphics/SVG/1.1/DTD/svg11.dtd">
<!-- Generated by graphviz version 2.40.1 (20161225.0304)
 -->
<!-- Title: debuggeroptionsdlg.h Pages: 1 -->
<svg width="857pt" height="364pt"
 viewBox="0.00 0.00 856.96 364.00" xmlns="http://www.w3.org/2000/svg" xmlns:xlink="http://www.w3.org/1999/xlink">
<g id="graph0" class="graph" transform="scale(1 1) rotate(0) translate(4 360)">
<title>debuggeroptionsdlg.h</title>
<!-- Node0 -->
<g id="node1" class="node">
<title>Node0</title>
<polygon fill="#bfbfbf" stroke="#000000" points="265.5,-336.5 265.5,-355.5 372.5,-355.5 372.5,-336.5 265.5,-336.5"/>
<text text-anchor="middle" x="319" y="-343.5" font-family="FreeSans" font-size="10.00" fill="#000000">debuggeroptionsdlg.h</text>
</g>
<!-- Node1 -->
<g id="node2" class="node">
<title>Node1</title>
<g id="a_node2"><a xlink:href="debuggermanager_8h" target="_top" xlink:title="debuggermanager.h">
<polygon fill="none" stroke="#000000" points="268.5,-280.5 268.5,-299.5 369.5,-299.5 369.5,-280.5 268.5,-280.5"/>
<text text-anchor="middle" x="319" y="-287.5" font-family="FreeSans" font-size="10.00" fill="#000000">debuggermanager.h</text>
</a>
</g>
</g>
<!-- Node0&#45;&gt;Node1 -->
<g id="edge1" class="edge">
<title>Node0&#45;&gt;Node1</title>
<path fill="none" stroke="#191970" d="M319,-336.2455C319,-328.9382 319,-318.6944 319,-309.7046"/>
<polygon fill="#191970" stroke="#191970" points="322.5001,-309.6426 319,-299.6427 315.5001,-309.6427 322.5001,-309.6426"/>
</g>
<!-- Node2 -->
<g id="node3" class="node">
<title>Node2</title>
<polygon fill="none" stroke="#bfbfbf" points="66.5,-112.5 66.5,-131.5 101.5,-131.5 101.5,-112.5 66.5,-112.5"/>
<text text-anchor="middle" x="84" y="-119.5" font-family="FreeSans" font-size="10.00" fill="#000000">map</text>
</g>
<!-- Node1&#45;&gt;Node2 -->
<g id="edge2" class="edge">
<title>Node1&#45;&gt;Node2</title>
<path fill="none" stroke="#191970" d="M305.6921,-280.4862C266.9251,-252.772 153.8056,-171.9036 105.8715,-137.6358"/>
<polygon fill="#191970" stroke="#191970" points="107.6238,-134.5861 97.4533,-131.6177 103.5528,-140.2806 107.6238,-134.5861"/>
</g>
<!-- Node3 -->
<g id="node4" class="node">
<title>Node3</title>
<polygon fill="none" stroke="#bfbfbf" points="103.5,-.5 103.5,-19.5 146.5,-19.5 146.5,-.5 103.5,-.5"/>
<text text-anchor="middle" x="125" y="-7.5" font-family="FreeSans" font-size="10.00" fill="#000000">vector</text>
</g>
<!-- Node1&#45;&gt;Node3 -->
<g id="edge3" class="edge">
<title>Node1&#45;&gt;Node3</title>
<path fill="none" stroke="#191970" d="M268.4535,-282.9564C178.5041,-268.9927 0,-234.2016 0,-178 0,-178 0,-178 0,-122 0,-95.1382 64.8387,-48.8735 101.1205,-25.0878"/>
<polygon fill="#191970" stroke="#191970" points="103.1808,-27.9235 109.6725,-19.5505 99.3762,-22.0477 103.1808,-27.9235"/>
</g>
<!-- Node4 -->
<g id="node5" class="node">
<title>Node4</title>
<polygon fill="none" stroke="#bfbfbf" points="197,-.5 197,-19.5 259,-19.5 259,-.5 197,-.5"/>
<text text-anchor="middle" x="228" y="-7.5" font-family="FreeSans" font-size="10.00" fill="#000000">wx/string.h</text>
</g>
<!-- Node1&#45;&gt;Node4 -->
<g id="edge4" class="edge">
<title>Node1&#45;&gt;Node4</title>
<path fill="none" stroke="#191970" d="M280.9923,-280.3739C220.3675,-262.7028 103.8464,-218.6833 57,-132 25.2023,-73.1624 126.7171,-36.0151 186.8605,-19.6762"/>
<polygon fill="#191970" stroke="#191970" points="188.0685,-22.9776 196.8494,-17.0493 186.288,-16.2078 188.0685,-22.9776"/>
</g>
<!-- Node5 -->
<g id="node6" class="node">
<title>Node5</title>
<g id="a_node6"><a xlink:href="prep_8h" target="_top" xlink:title="prep.h">
<polygon fill="none" stroke="#000000" points="776.5,-56.5 776.5,-75.5 819.5,-75.5 819.5,-56.5 776.5,-56.5"/>
<text text-anchor="middle" x="798" y="-63.5" font-family="FreeSans" font-size="10.00" fill="#000000">prep.h</text>
</a>
</g>
</g>
<!-- Node1&#45;&gt;Node5 -->
<g id="edge5" class="edge">
<title>Node1&#45;&gt;Node5</title>
<path fill="none" stroke="#191970" d="M369.8854,-284.6498C473.4471,-272.7677 703.6915,-240.9687 760,-188 788.7015,-161.0008 795.8682,-112.7345 797.5662,-85.7114"/>
<polygon fill="#191970" stroke="#191970" points="801.07,-85.6967 798.006,-75.5546 794.0766,-85.3938 801.07,-85.6967"/>
</g>
<!-- Node6 -->
<g id="node7" class="node">
<title>Node6</title>
<g id="a_node7"><a xlink:href="settings_8h" target="_top" xlink:title="settings.h">
<polygon fill="none" stroke="#000000" points="514.5,-.5 514.5,-19.5 571.5,-19.5 571.5,-.5 514.5,-.5"/>
<text text-anchor="middle" x="543" y="-7.5" font-family="FreeSans" font-size="10.00" fill="#000000">settings.h</text>
</a>
</g>
</g>
<!-- Node1&#45;&gt;Node6 -->
<g id="edge6" class="edge">
<title>Node1&#45;&gt;Node6</title>
<path fill="none" stroke="#191970" d="M369.6243,-286.7305C437.765,-281.5522 562.4013,-269.335 666,-244 749.5804,-223.5604 848,-264.0433 848,-178 848,-178 848,-178 848,-122 848,-91.4754 851.848,-76.2416 829,-56 793.0158,-24.1206 651.2659,-14.2015 581.7956,-11.2224"/>
<polygon fill="#191970" stroke="#191970" points="581.8249,-7.7208 571.6924,-10.8164 581.5438,-14.7152 581.8249,-7.7208"/>
</g>
<!-- Node7 -->
<g id="node8" class="node">
<title>Node7</title>
<g id="a_node8"><a xlink:href="manager_8h" target="_top" xlink:title="manager.h">
<polygon fill="none" stroke="#000000" points="288,-168.5 288,-187.5 350,-187.5 350,-168.5 288,-168.5"/>
<text text-anchor="middle" x="319" y="-175.5" font-family="FreeSans" font-size="10.00" fill="#000000">manager.h</text>
</a>
</g>
</g>
<!-- Node1&#45;&gt;Node7 -->
<g id="edge7" class="edge">
<title>Node1&#45;&gt;Node7</title>
<path fill="none" stroke="#191970" d="M319,-280.4509C319,-262.184 319,-221.9553 319,-197.6976"/>
<polygon fill="#191970" stroke="#191970" points="322.5001,-197.5249 319,-187.5249 315.5001,-197.5249 322.5001,-197.5249"/>
</g>
<!-- Node21 -->
<g id="node15" class="node">
<title>Node21</title>
<g id="a_node15"><a xlink:href="configmanager_8h" target="_top" xlink:title="configmanager.h">
<polygon fill="none" stroke="#000000" points="435.5,-224.5 435.5,-243.5 522.5,-243.5 522.5,-224.5 435.5,-224.5"/>
<text text-anchor="middle" x="479" y="-231.5" font-family="FreeSans" font-size="10.00" fill="#000000">configmanager.h</text>
</a>
</g>
</g>
<!-- Node1&#45;&gt;Node21 -->
<g id="edge24" class="edge">
<title>Node1&#45;&gt;Node21</title>
<path fill="none" stroke="#191970" d="M346.505,-280.3733C372.8802,-271.1419 412.8851,-257.1402 442.0358,-246.9375"/>
<polygon fill="#191970" stroke="#191970" points="443.5716,-250.1082 451.8539,-243.5011 441.2591,-243.5012 443.5716,-250.1082"/>
</g>
<!-- Node7&#45;&gt;Node2 -->
<g id="edge8" class="edge">
<title>Node7&#45;&gt;Node2</title>
<path fill="none" stroke="#191970" d="M287.8577,-171.752C247.8515,-163.5408 176.3688,-148.2445 116,-132 114.5246,-131.603 113.0153,-131.1823 111.4946,-130.7468"/>
<polygon fill="#191970" stroke="#191970" points="112.1153,-127.2789 101.5313,-127.7561 110.1028,-133.9834 112.1153,-127.2789"/>
</g>
<!-- Node7&#45;&gt;Node3 -->
<g id="edge9" class="edge">
<title>Node7&#45;&gt;Node3</title>
<path fill="none" stroke="#191970" d="M287.7404,-171.4077C241.3104,-161.3411 158.5389,-142.2313 149,-132 122.9818,-104.0931 121.4504,-56.5652 122.9957,-29.8131"/>
<polygon fill="#191970" stroke="#191970" points="126.4933,-29.9802 123.784,-19.7377 119.5146,-29.4342 126.4933,-29.9802"/>
</g>
<!-- Node7&#45;&gt;Node6 -->
<g id="edge12" class="edge">
<title>Node7&#45;&gt;Node6</title>
<path fill="none" stroke="#191970" d="M344.9321,-168.3805C365.2037,-160.2443 393.6042,-147.456 416,-132 461.4412,-100.6398 505.969,-52.8152 528.2601,-27.3597"/>
<polygon fill="#191970" stroke="#191970" points="531.0419,-29.4937 534.9364,-19.6406 525.7475,-24.9145 531.0419,-29.4937"/>
</g>
<!-- Node8 -->
<g id="node9" class="node">
<title>Node8</title>
<polygon fill="none" stroke="#bfbfbf" points="520,-56.5 520,-75.5 582,-75.5 582,-56.5 520,-56.5"/>
<text text-anchor="middle" x="551" y="-63.5" font-family="FreeSans" font-size="10.00" fill="#000000">wx/event.h</text>
</g>
<!-- Node7&#45;&gt;Node8 -->
<g id="edge10" class="edge">
<title>Node7&#45;&gt;Node8</title>
<path fill="none" stroke="#191970" d="M350.2566,-174.6089C385.7465,-169.644 444.3719,-157.9863 488,-132 508.5118,-119.7826 526.7082,-99.0741 538.2059,-84.1075"/>
<polygon fill="#191970" stroke="#191970" points="541.3238,-85.778 544.4599,-75.6579 535.6973,-81.6135 541.3238,-85.778"/>
</g>
<!-- Node9 -->
<g id="node10" class="node">
<title>Node9</title>
<polygon fill="none" stroke="#bfbfbf" points="252,-112.5 252,-131.5 324,-131.5 324,-112.5 252,-112.5"/>
<text text-anchor="middle" x="288" y="-119.5" font-family="FreeSans" font-size="10.00" fill="#000000">wx/cmdline.h</text>
</g>
<!-- Node7&#45;&gt;Node9 -->
<g id="edge11" class="edge">
<title>Node7&#45;&gt;Node9</title>
<path fill="none" stroke="#191970" d="M313.6002,-168.2455C309.3773,-160.617 303.3827,-149.7881 298.2559,-140.5267"/>
<polygon fill="#191970" stroke="#191970" points="301.2432,-138.6965 293.3379,-131.6427 295.119,-142.0867 301.2432,-138.6965"/>
</g>
<!-- Node10 -->
<g id="node11" class="node">
<title>Node10</title>
<g id="a_node11"><a xlink:href="sdk__events_8h" target="_top" xlink:title="sdk_events.h">
<polygon fill="none" stroke="#ff0000" points="578,-112.5 578,-131.5 650,-131.5 650,-112.5 578,-112.5"/>
<text text-anchor="middle" x="614" y="-119.5" font-family="FreeSans" font-size="10.00" fill="#000000">sdk_events.h</text>
</a>
</g>
</g>
<!-- Node7&#45;&gt;Node10 -->
<g id="edge13" class="edge">
<title>Node7&#45;&gt;Node10</title>
<path fill="none" stroke="#191970" d="M350.3491,-172.2364C396.9675,-163.6378 487.3112,-146.8677 564,-132 565.271,-131.7536 566.56,-131.5027 567.8607,-131.2486"/>
<polygon fill="#191970" stroke="#191970" points="568.8242,-134.6262 577.96,-129.2608 567.4723,-127.758 568.8242,-134.6262"/>
</g>
<!-- Node12 -->
<g id="node12" class="node">
<title>Node12</title>
<g id="a_node12"><a xlink:href="cbfunctor_8h" target="_top" xlink:title="cbfunctor.h">
<polygon fill="none" stroke="#000000" points="342.5,-112.5 342.5,-131.5 407.5,-131.5 407.5,-112.5 342.5,-112.5"/>
<text text-anchor="middle" x="375" y="-119.5" font-family="FreeSans" font-size="10.00" fill="#000000">cbfunctor.h</text>
</a>
</g>
</g>
<!-- Node7&#45;&gt;Node12 -->
<g id="edge17" class="edge">
<title>Node7&#45;&gt;Node12</title>
<path fill="none" stroke="#191970" d="M328.7545,-168.2455C336.8648,-160.1352 348.5925,-148.4075 358.2081,-138.7919"/>
<polygon fill="#191970" stroke="#191970" points="360.7611,-141.1887 365.3573,-131.6427 355.8113,-136.2389 360.7611,-141.1887"/>
</g>
<!-- Node13 -->
<g id="node13" class="node">
<title>Node13</title>
<g id="a_node13"><a xlink:href="cbexception_8h" target="_top" xlink:title="cbexception.h">
<polygon fill="none" stroke="#ff0000" points="158,-112.5 158,-131.5 234,-131.5 234,-112.5 158,-112.5"/>
<text text-anchor="middle" x="196" y="-119.5" font-family="FreeSans" font-size="10.00" fill="#000000">cbexception.h</text>
</a>
</g>
</g>
<!-- Node7&#45;&gt;Node13 -->
<g id="edge18" class="edge">
<title>Node7&#45;&gt;Node13</title>
<path fill="none" stroke="#191970" d="M297.8555,-168.3733C278.1108,-159.3838 248.4302,-145.8706 226.1945,-135.7471"/>
<polygon fill="#191970" stroke="#191970" points="227.42,-132.4594 216.8685,-131.5011 224.5194,-138.8302 227.42,-132.4594"/>
</g>
<!-- Node10&#45;&gt;Node5 -->
<g id="edge16" class="edge">
<title>Node10&#45;&gt;Node5</title>
<path fill="none" stroke="#191970" d="M645.6307,-112.3733C679.4325,-102.0858 732.7002,-85.8739 766.4651,-75.5976"/>
<polygon fill="#191970" stroke="#191970" points="767.7269,-78.8721 776.2746,-72.6121 765.6887,-72.1754 767.7269,-78.8721"/>
</g>
<!-- Node10&#45;&gt;Node6 -->
<g id="edge15" class="edge">
<title>Node10&#45;&gt;Node6</title>
<path fill="none" stroke="#191970" d="M612.1467,-112.4135C609.2331,-98.9821 602.6736,-74.1724 591,-56 583.7627,-44.7335 573.2269,-34.2313 563.8688,-26.1145"/>
<polygon fill="#191970" stroke="#191970" points="565.9915,-23.3279 556.0605,-19.6364 561.5219,-28.7152 565.9915,-23.3279"/>
</g>
<!-- Node10&#45;&gt;Node8 -->
<g id="edge14" class="edge">
<title>Node10&#45;&gt;Node8</title>
<path fill="none" stroke="#191970" d="M603.0262,-112.2455C593.8118,-104.0549 580.4468,-92.1749 569.5703,-82.5069"/>
<polygon fill="#191970" stroke="#191970" points="571.6474,-79.6704 561.848,-75.6427 566.9968,-84.9023 571.6474,-79.6704"/>
</g>
<!-- Node13&#45;&gt;Node4 -->
<g id="edge19" class="edge">
<title>Node13&#45;&gt;Node4</title>
<path fill="none" stroke="#191970" d="M198.7283,-112.4509C203.9711,-94.1013 215.5455,-53.5908 222.4659,-29.3693"/>
<polygon fill="#191970" stroke="#191970" points="225.8967,-30.1017 225.2786,-19.5249 219.166,-28.1786 225.8967,-30.1017"/>
</g>
<!-- Node15 -->
<g id="node14" class="node">
<title>Node15</title>
<g id="a_node14"><a xlink:href="globals_8h" target="_top" xlink:title="globals.h">
<polygon fill="none" stroke="#ff0000" points="229,-56.5 229,-75.5 283,-75.5 283,-56.5 229,-56.5"/>
<text text-anchor="middle" x="256" y="-63.5" font-family="FreeSans" font-size="10.00" fill="#000000">globals.h</text>
</a>
</g>
</g>
<!-- Node13&#45;&gt;Node15 -->
<g id="edge20" class="edge">
<title>Node13&#45;&gt;Node15</title>
<path fill="none" stroke="#191970" d="M206.4512,-112.2455C215.2269,-104.0549 227.9554,-92.1749 238.314,-82.5069"/>
<polygon fill="#191970" stroke="#191970" points="240.7461,-85.0246 245.6686,-75.6427 235.9699,-79.9072 240.7461,-85.0246"/>
</g>
<!-- Node15&#45;&gt;Node3 -->
<g id="edge21" class="edge">
<title>Node15&#45;&gt;Node3</title>
<path fill="none" stroke="#191970" d="M233.4803,-56.3733C212.1342,-47.2482 179.8842,-33.462 156.0923,-23.2913"/>
<polygon fill="#191970" stroke="#191970" points="157.3614,-20.0275 146.7905,-19.315 154.6099,-26.4641 157.3614,-20.0275"/>
</g>
<!-- Node15&#45;&gt;Node4 -->
<g id="edge22" class="edge">
<title>Node15&#45;&gt;Node4</title>
<path fill="none" stroke="#191970" d="M251.1228,-56.2455C247.3487,-48.6973 242.0079,-38.0158 237.4099,-28.8197"/>
<polygon fill="#191970" stroke="#191970" points="240.424,-27.0217 232.8213,-19.6427 234.163,-30.1522 240.424,-27.0217"/>
</g>
<!-- Node15&#45;&gt;Node6 -->
<g id="edge23" class="edge">
<title>Node15&#45;&gt;Node6</title>
<path fill="none" stroke="#191970" d="M283.0003,-60.7317C334.0753,-50.7658 445.0016,-29.1216 504.1023,-17.5898"/>
<polygon fill="#191970" stroke="#191970" points="505.0186,-20.9771 514.1631,-15.6267 503.6779,-14.1067 505.0186,-20.9771"/>
</g>
<!-- Node21&#45;&gt;Node2 -->
<g id="edge34" class="edge">
<title>Node21&#45;&gt;Node2</title>
<path fill="none" stroke="#191970" d="M435.3754,-225.2838C394.6432,-216.8353 332.3027,-203.1092 279,-188 218.3383,-170.8049 148.6805,-145.9664 111.2326,-132.1846"/>
<polygon fill="#191970" stroke="#191970" points="112.1519,-128.7929 101.5587,-128.6061 109.7233,-135.3582 112.1519,-128.7929"/>
</g>
<!-- Node21&#45;&gt;Node6 -->
<g id="edge27" class="edge">
<title>Node21&#45;&gt;Node6</title>
<path fill="none" stroke="#191970" d="M522.7587,-232.8633C589.9461,-230.0917 713.6407,-220.5814 741,-188 799.3407,-118.5239 651.8425,-50.9524 579.8361,-23.2024"/>
<polygon fill="#191970" stroke="#191970" points="580.7974,-19.8239 570.206,-19.5549 578.318,-26.3701 580.7974,-19.8239"/>
</g>
<!-- Node21&#45;&gt;Node7 -->
<g id="edge30" class="edge">
<title>Node21&#45;&gt;Node7</title>
<path fill="none" stroke="#191970" d="M451.495,-224.3733C425.1198,-215.1419 385.1149,-201.1402 355.9642,-190.9375"/>
<polygon fill="#191970" stroke="#191970" points="356.7409,-187.5012 346.1461,-187.5011 354.4284,-194.1082 356.7409,-187.5012"/>
</g>
<!-- Node21&#45;&gt;Node15 -->
<g id="edge28" class="edge">
<title>Node21&#45;&gt;Node15</title>
<path fill="none" stroke="#191970" d="M445.4998,-224.3574C427.7388,-217.3494 407.476,-205.8886 397,-188 379.4052,-157.9555 436.9439,-139.8137 416,-112 401.2231,-92.3761 335.5263,-78.5315 293.0465,-71.4434"/>
<polygon fill="#191970" stroke="#191970" points="293.4842,-67.9688 283.0538,-69.8285 292.3673,-74.8792 293.4842,-67.9688"/>
</g>
<!-- Node22 -->
<g id="node16" class="node">
<title>Node22</title>
<polygon fill="none" stroke="#bfbfbf" points="406.5,-168.5 406.5,-187.5 483.5,-187.5 483.5,-168.5 406.5,-168.5"/>
<text text-anchor="middle" x="445" y="-175.5" font-family="FreeSans" font-size="10.00" fill="#000000">wx/hashmap.h</text>
</g>
<!-- Node21&#45;&gt;Node22 -->
<g id="edge25" class="edge">
<title>Node21&#45;&gt;Node22</title>
<path fill="none" stroke="#191970" d="M473.0777,-224.2455C468.3973,-216.5367 461.7327,-205.5598 456.0711,-196.2348"/>
<polygon fill="#191970" stroke="#191970" points="459.0361,-194.3741 450.8545,-187.6427 453.0525,-198.007 459.0361,-194.3741"/>
</g>
<!-- Node23 -->
<g id="node17" class="node">
<title>Node23</title>
<polygon fill="none" stroke="#bfbfbf" points="540.5,-168.5 540.5,-187.5 611.5,-187.5 611.5,-168.5 540.5,-168.5"/>
<text text-anchor="middle" x="576" y="-175.5" font-family="FreeSans" font-size="10.00" fill="#000000">wx/hashset.h</text>
</g>
<!-- Node21&#45;&gt;Node23 -->
<g id="edge26" class="edge">
<title>Node21&#45;&gt;Node23</title>
<path fill="none" stroke="#191970" d="M495.8961,-224.2455C510.918,-215.5731 533.1043,-202.7645 550.321,-192.825"/>
<polygon fill="#191970" stroke="#191970" points="552.3871,-195.6737 559.2975,-187.6427 548.8872,-189.6114 552.3871,-195.6737"/>
</g>
<!-- Node24 -->
<g id="node18" class="node">
<title>Node24</title>
<polygon fill="none" stroke="#bfbfbf" points="630,-168.5 630,-187.5 684,-187.5 684,-168.5 630,-168.5"/>
<text text-anchor="middle" x="657" y="-175.5" font-family="FreeSans" font-size="10.00" fill="#000000">tinyxml.h</text>
</g>
<!-- Node21&#45;&gt;Node24 -->
<g id="edge29" class="edge">
<title>Node21&#45;&gt;Node24</title>
<path fill="none" stroke="#191970" d="M509.5993,-224.3733C540.317,-214.7093 587.6525,-199.8172 620.355,-189.5288"/>
<polygon fill="#191970" stroke="#191970" points="621.511,-192.8343 629.9996,-186.4945 619.4102,-186.1569 621.511,-192.8343"/>
</g>
<!-- Node25 -->
<g id="node19" class="node">
<title>Node25</title>
<g id="a_node19"><a xlink:href="base64_8h" target="_top" xlink:title="base64.h">
<polygon fill="none" stroke="#ff0000" points="390.5,-56.5 390.5,-75.5 445.5,-75.5 445.5,-56.5 390.5,-56.5"/>
<text text-anchor="middle" x="418" y="-63.5" font-family="FreeSans" font-size="10.00" fill="#000000">base64.h</text>
</a>
</g>
</g>
<!-- Node21&#45;&gt;Node25 -->
<g id="edge31" class="edge">
<title>Node21&#45;&gt;Node25</title>
<path fill="none" stroke="#191970" d="M484.1298,-224.4311C490.3993,-211.4379 499.4264,-187.5881 493,-168 481.7887,-133.8271 454.2696,-101.6685 435.8694,-82.9098"/>
<polygon fill="#191970" stroke="#191970" points="438.1834,-80.2754 428.616,-75.7239 433.2568,-85.2483 438.1834,-80.2754"/>
</g>
<!-- Node27 -->
<g id="node20" class="node">
<title>Node27</title>
<polygon fill="none" stroke="#bfbfbf" points="702.5,-168.5 702.5,-187.5 731.5,-187.5 731.5,-168.5 702.5,-168.5"/>
<text text-anchor="middle" x="717" y="-175.5" font-family="FreeSans" font-size="10.00" fill="#000000">set</text>
</g>
<!-- Node21&#45;&gt;Node27 -->
<g id="edge35" class="edge">
<title>Node21&#45;&gt;Node27</title>
<path fill="none" stroke="#191970" d="M522.6405,-227.0349C566.3172,-219.503 635.1536,-206.1009 693,-188 693.0969,-187.9697 693.194,-187.9391 693.2912,-187.9083"/>
<polygon fill="#191970" stroke="#191970" points="694.2429,-191.287 702.4345,-184.5677 691.8406,-184.7121 694.2429,-191.287"/>
</g>
<!-- Node25&#45;&gt;Node4 -->
<g id="edge32" class="edge">
<title>Node25&#45;&gt;Node4</title>
<path fill="none" stroke="#191970" d="M390.3724,-57.8571C358.4802,-48.4573 305.7174,-32.9062 269.0276,-22.0924"/>
<polygon fill="#191970" stroke="#191970" points="269.7177,-18.647 259.1362,-19.177 267.7387,-25.3614 269.7177,-18.647"/>
</g>
<!-- Node25&#45;&gt;Node6 -->
<g id="edge33" class="edge">
<title>Node25&#45;&gt;Node6</title>
<path fill="none" stroke="#191970" d="M439.4883,-56.3733C459.644,-47.3435 489.988,-33.7494 512.618,-23.6111"/>
<polygon fill="#191970" stroke="#191970" points="514.0971,-26.7838 521.7921,-19.5011 511.2351,-20.3955 514.0971,-26.7838"/>
</g>
</g>
</svg>
