<?xml version="1.0" encoding="UTF-8" standalone="no"?>
<!DOCTYPE svg PUBLIC "-//W3C//DTD SVG 1.1//EN"
 "http://www.w3.org/Graphics/SVG/1.1/DTD/svg11.dtd">
<!-- Generated by graphviz version 2.38.0 (20140413.2041)
 -->
<!-- Title: debugger_defs.cpp Pages: 1 -->
<svg width="2030pt" height="420pt"
 viewBox="0.00 0.00 2030.00 420.00" xmlns="http://www.w3.org/2000/svg" xmlns:xlink="http://www.w3.org/1999/xlink">
<g id="graph0" class="graph" transform="scale(1 1) rotate(0) translate(4 416)">
<title>debugger_defs.cpp</title>
<polygon fill="white" stroke="none" points="-4,4 -4,-416 2026,-416 2026,4 -4,4"/>
<!-- Node1 -->
<g id="node1" class="node"><title>Node1</title>
<polygon fill="#bfbfbf" stroke="black" points="1517,-392.5 1517,-411.5 1615,-411.5 1615,-392.5 1517,-392.5"/>
<text text-anchor="middle" x="1566" y="-399.5" font-family="FreeSans" font-size="10.00">debugger_defs.cpp</text>
</g>
<!-- Node2 -->
<g id="node2" class="node"><title>Node2</title>
<g id="a_node2"><a xlink:href="sdk_8h" target="_top" xlink:title="sdk.h">
<polygon fill="white" stroke="black" points="173.5,-336.5 173.5,-355.5 212.5,-355.5 212.5,-336.5 173.5,-336.5"/>
<text text-anchor="middle" x="193" y="-343.5" font-family="FreeSans" font-size="10.00">sdk.h</text>
</a>
</g>
</g>
<!-- Node1&#45;&gt;Node2 -->
<g id="edge1" class="edge"><title>Node1&#45;&gt;Node2</title>
<path fill="none" stroke="midnightblue" d="M1516.86,-399.792C1349.72,-395.559 787.8,-380.328 324,-356 289.185,-354.174 249.216,-351.318 222.676,-349.314"/>
<polygon fill="midnightblue" stroke="midnightblue" points="222.756,-345.81 212.519,-348.539 222.224,-352.79 222.756,-345.81"/>
</g>
<!-- Node6 -->
<g id="node6" class="node"><title>Node6</title>
<g id="a_node6"><a xlink:href="scrollingdialog_8h" target="_top" xlink:title="scrollingdialog.h">
<polygon fill="white" stroke="black" points="1523.5,-336.5 1523.5,-355.5 1608.5,-355.5 1608.5,-336.5 1523.5,-336.5"/>
<text text-anchor="middle" x="1566" y="-343.5" font-family="FreeSans" font-size="10.00">scrollingdialog.h</text>
</a>
</g>
</g>
<!-- Node1&#45;&gt;Node6 -->
<g id="edge5" class="edge"><title>Node1&#45;&gt;Node6</title>
<path fill="none" stroke="midnightblue" d="M1566,-392.083C1566,-385.006 1566,-374.861 1566,-365.986"/>
<polygon fill="midnightblue" stroke="midnightblue" points="1569.5,-365.751 1566,-355.751 1562.5,-365.751 1569.5,-365.751"/>
</g>
<!-- Node10 -->
<g id="node10" class="node"><title>Node10</title>
<polygon fill="white" stroke="#bfbfbf" points="1626.5,-336.5 1626.5,-355.5 1681.5,-355.5 1681.5,-336.5 1626.5,-336.5"/>
<text text-anchor="middle" x="1654" y="-343.5" font-family="FreeSans" font-size="10.00">wx/font.h</text>
</g>
<!-- Node1&#45;&gt;Node10 -->
<g id="edge9" class="edge"><title>Node1&#45;&gt;Node10</title>
<path fill="none" stroke="midnightblue" d="M1580.14,-392.324C1593.87,-383.9 1614.94,-370.971 1631.06,-361.074"/>
<polygon fill="midnightblue" stroke="midnightblue" points="1633.2,-363.868 1639.9,-355.655 1629.54,-357.902 1633.2,-363.868"/>
</g>
<!-- Node11 -->
<g id="node11" class="node"><title>Node11</title>
<polygon fill="white" stroke="#bfbfbf" points="1700,-336.5 1700,-355.5 1758,-355.5 1758,-336.5 1700,-336.5"/>
<text text-anchor="middle" x="1729" y="-343.5" font-family="FreeSans" font-size="10.00">wx/sizer.h</text>
</g>
<!-- Node1&#45;&gt;Node11 -->
<g id="edge10" class="edge"><title>Node1&#45;&gt;Node11</title>
<path fill="none" stroke="midnightblue" d="M1591.83,-392.444C1619.25,-383.359 1662.78,-368.939 1693.43,-358.783"/>
<polygon fill="midnightblue" stroke="midnightblue" points="1694.9,-361.984 1703.29,-355.516 1692.7,-355.339 1694.9,-361.984"/>
</g>
<!-- Node12 -->
<g id="node12" class="node"><title>Node12</title>
<polygon fill="white" stroke="#bfbfbf" points="1776,-336.5 1776,-355.5 1844,-355.5 1844,-336.5 1776,-336.5"/>
<text text-anchor="middle" x="1810" y="-343.5" font-family="FreeSans" font-size="10.00">wx/textctrl.h</text>
</g>
<!-- Node1&#45;&gt;Node12 -->
<g id="edge11" class="edge"><title>Node1&#45;&gt;Node12</title>
<path fill="none" stroke="midnightblue" d="M1604.66,-392.444C1648.51,-382.739 1719.88,-366.945 1765.87,-356.766"/>
<polygon fill="midnightblue" stroke="midnightblue" points="1766.84,-360.136 1775.85,-354.558 1765.33,-353.302 1766.84,-360.136"/>
</g>
<!-- Node13 -->
<g id="node13" class="node"><title>Node13</title>
<polygon fill="white" stroke="#bfbfbf" points="1862.5,-336.5 1862.5,-355.5 1925.5,-355.5 1925.5,-336.5 1862.5,-336.5"/>
<text text-anchor="middle" x="1894" y="-343.5" font-family="FreeSans" font-size="10.00">wx/frame.h</text>
</g>
<!-- Node1&#45;&gt;Node13 -->
<g id="edge12" class="edge"><title>Node1&#45;&gt;Node13</title>
<path fill="none" stroke="midnightblue" d="M1615.16,-394.216C1670.37,-386.392 1762.86,-372.667 1852.22,-356.048"/>
<polygon fill="midnightblue" stroke="midnightblue" points="1853.07,-359.45 1862.25,-354.167 1851.78,-352.57 1853.07,-359.45"/>
</g>
<!-- Node14 -->
<g id="node14" class="node"><title>Node14</title>
<g id="a_node14"><a xlink:href="manager_8h" target="_top" xlink:title="manager.h">
<polygon fill="white" stroke="black" points="420,-112.5 420,-131.5 482,-131.5 482,-112.5 420,-112.5"/>
<text text-anchor="middle" x="451" y="-119.5" font-family="FreeSans" font-size="10.00">manager.h</text>
</a>
</g>
</g>
<!-- Node1&#45;&gt;Node14 -->
<g id="edge13" class="edge"><title>Node1&#45;&gt;Node14</title>
<path fill="none" stroke="midnightblue" d="M1516.72,-399.214C1287.66,-390.596 338,-351.234 338,-291 338,-291 338,-291 338,-233 338,-186.402 387.947,-153.143 421.428,-136.083"/>
<polygon fill="midnightblue" stroke="midnightblue" points="423.348,-139.041 430.798,-131.508 420.276,-132.751 423.348,-139.041"/>
</g>
<!-- Node22 -->
<g id="node22" class="node"><title>Node22</title>
<g id="a_node22"><a xlink:href="cbdebugger__interfaces_8h" target="_top" xlink:title="cbdebugger_interfaces.h">
<polygon fill="white" stroke="black" points="688,-280.5 688,-299.5 810,-299.5 810,-280.5 688,-280.5"/>
<text text-anchor="middle" x="749" y="-287.5" font-family="FreeSans" font-size="10.00">cbdebugger_interfaces.h</text>
</a>
</g>
</g>
<!-- Node1&#45;&gt;Node22 -->
<g id="edge25" class="edge"><title>Node1&#45;&gt;Node22</title>
<path fill="none" stroke="midnightblue" d="M1516.73,-394.367C1377.9,-375.675 983.043,-322.511 820.376,-300.61"/>
<polygon fill="midnightblue" stroke="midnightblue" points="820.38,-297.079 810.002,-299.213 819.446,-304.016 820.38,-297.079"/>
</g>
<!-- Node45 -->
<g id="node45" class="node"><title>Node45</title>
<g id="a_node45"><a xlink:href="debugger__defs_8h" target="_top" xlink:title="debugger_defs.h">
<polygon fill="white" stroke="black" points="1305.5,-280.5 1305.5,-299.5 1392.5,-299.5 1392.5,-280.5 1305.5,-280.5"/>
<text text-anchor="middle" x="1349" y="-287.5" font-family="FreeSans" font-size="10.00">debugger_defs.h</text>
</a>
</g>
</g>
<!-- Node1&#45;&gt;Node45 -->
<g id="edge64" class="edge"><title>Node1&#45;&gt;Node45</title>
<path fill="none" stroke="midnightblue" d="M1516.86,-393.793C1484.69,-387.454 1442.7,-376.004 1410,-356 1389.67,-343.561 1371.72,-322.559 1360.65,-307.802"/>
<polygon fill="midnightblue" stroke="midnightblue" points="1363.38,-305.605 1354.68,-299.553 1357.7,-309.707 1363.38,-305.605"/>
</g>
<!-- Node48 -->
<g id="node48" class="node"><title>Node48</title>
<g id="a_node48"><a xlink:href="debuggerdriver_8h" target="_top" xlink:title="debuggerdriver.h">
<polygon fill="white" stroke="black" points="1418.5,-336.5 1418.5,-355.5 1505.5,-355.5 1505.5,-336.5 1418.5,-336.5"/>
<text text-anchor="middle" x="1462" y="-343.5" font-family="FreeSans" font-size="10.00">debuggerdriver.h</text>
</a>
</g>
</g>
<!-- Node1&#45;&gt;Node48 -->
<g id="edge70" class="edge"><title>Node1&#45;&gt;Node48</title>
<path fill="none" stroke="midnightblue" d="M1549.29,-392.324C1532.69,-383.703 1507,-370.364 1487.78,-360.386"/>
<polygon fill="midnightblue" stroke="midnightblue" points="1489.16,-357.156 1478.67,-355.655 1485.93,-363.369 1489.16,-357.156"/>
</g>
<!-- Node50 -->
<g id="node50" class="node"><title>Node50</title>
<polygon fill="white" stroke="#bfbfbf" points="1944,-336.5 1944,-355.5 2022,-355.5 2022,-336.5 1944,-336.5"/>
<text text-anchor="middle" x="1983" y="-343.5" font-family="FreeSans" font-size="10.00">wx/arrimpl.cpp</text>
</g>
<!-- Node1&#45;&gt;Node50 -->
<g id="edge74" class="edge"><title>Node1&#45;&gt;Node50</title>
<path fill="none" stroke="midnightblue" d="M1615.08,-396.025C1683.98,-388.818 1813.5,-374.459 1933.63,-356.128"/>
<polygon fill="midnightblue" stroke="midnightblue" points="1934.39,-359.553 1943.74,-354.573 1933.33,-352.634 1934.39,-359.553"/>
</g>
<!-- Node3 -->
<g id="node3" class="node"><title>Node3</title>
<g id="a_node3"><a xlink:href="sdk__common_8h" target="_top" xlink:title="sdk_common.h">
<polygon fill="white" stroke="black" points="55,-280.5 55,-299.5 137,-299.5 137,-280.5 55,-280.5"/>
<text text-anchor="middle" x="96" y="-287.5" font-family="FreeSans" font-size="10.00">sdk_common.h</text>
</a>
</g>
</g>
<!-- Node2&#45;&gt;Node3 -->
<g id="edge2" class="edge"><title>Node2&#45;&gt;Node3</title>
<path fill="none" stroke="midnightblue" d="M177.415,-336.324C162.001,-327.743 138.188,-314.486 120.29,-304.522"/>
<polygon fill="midnightblue" stroke="midnightblue" points="121.986,-301.461 111.546,-299.655 118.581,-307.577 121.986,-301.461"/>
</g>
<!-- Node4 -->
<g id="node4" class="node"><title>Node4</title>
<polygon fill="white" stroke="#bfbfbf" points="0,-224.5 0,-243.5 68,-243.5 68,-224.5 0,-224.5"/>
<text text-anchor="middle" x="34" y="-231.5" font-family="FreeSans" font-size="10.00">wx/wxprec.h</text>
</g>
<!-- Node3&#45;&gt;Node4 -->
<g id="edge3" class="edge"><title>Node3&#45;&gt;Node4</title>
<path fill="none" stroke="midnightblue" d="M86.0386,-280.324C76.8734,-272.341 63.0628,-260.313 51.9718,-250.653"/>
<polygon fill="midnightblue" stroke="midnightblue" points="53.9822,-247.762 44.1426,-243.834 49.3847,-253.041 53.9822,-247.762"/>
</g>
<!-- Node5 -->
<g id="node5" class="node"><title>Node5</title>
<g id="a_node5"><a xlink:href="prep_8h" target="_top" xlink:title="prep.h">
<polygon fill="white" stroke="black" points="112.5,-0.5 112.5,-19.5 155.5,-19.5 155.5,-0.5 112.5,-0.5"/>
<text text-anchor="middle" x="134" y="-7.5" font-family="FreeSans" font-size="10.00">prep.h</text>
</a>
</g>
</g>
<!-- Node3&#45;&gt;Node5 -->
<g id="edge4" class="edge"><title>Node3&#45;&gt;Node5</title>
<path fill="none" stroke="midnightblue" d="M96,-280.442C96,-261.936 96,-216.812 96,-179 96,-179 96,-179 96,-121 96,-86.8131 112.6,-49.7639 123.857,-28.5707"/>
<polygon fill="midnightblue" stroke="midnightblue" points="126.947,-30.2151 128.716,-19.769 120.819,-26.832 126.947,-30.2151"/>
</g>
<!-- Node7 -->
<g id="node7" class="node"><title>Node7</title>
<polygon fill="white" stroke="#bfbfbf" points="1633,-280.5 1633,-299.5 1697,-299.5 1697,-280.5 1633,-280.5"/>
<text text-anchor="middle" x="1665" y="-287.5" font-family="FreeSans" font-size="10.00">wx/dialog.h</text>
</g>
<!-- Node6&#45;&gt;Node7 -->
<g id="edge6" class="edge"><title>Node6&#45;&gt;Node7</title>
<path fill="none" stroke="midnightblue" d="M1581.91,-336.324C1597.64,-327.743 1621.94,-314.486 1640.21,-304.522"/>
<polygon fill="midnightblue" stroke="midnightblue" points="1642.03,-307.516 1649.13,-299.655 1638.68,-301.37 1642.03,-307.516"/>
</g>
<!-- Node8 -->
<g id="node8" class="node"><title>Node8</title>
<polygon fill="white" stroke="#bfbfbf" points="1715,-280.5 1715,-299.5 1785,-299.5 1785,-280.5 1715,-280.5"/>
<text text-anchor="middle" x="1750" y="-287.5" font-family="FreeSans" font-size="10.00">wx/propdlg.h</text>
</g>
<!-- Node6&#45;&gt;Node8 -->
<g id="edge7" class="edge"><title>Node6&#45;&gt;Node8</title>
<path fill="none" stroke="midnightblue" d="M1595.16,-336.444C1626.51,-327.241 1676.53,-312.562 1711.2,-302.388"/>
<polygon fill="midnightblue" stroke="midnightblue" points="1712.37,-305.691 1720.98,-299.516 1710.4,-298.974 1712.37,-305.691"/>
</g>
<!-- Node9 -->
<g id="node9" class="node"><title>Node9</title>
<g id="a_node9"><a xlink:href="settings_8h" target="_top" xlink:title="settings.h">
<polygon fill="white" stroke="black" points="567.5,-0.5 567.5,-19.5 624.5,-19.5 624.5,-0.5 567.5,-0.5"/>
<text text-anchor="middle" x="596" y="-7.5" font-family="FreeSans" font-size="10.00">settings.h</text>
</a>
</g>
</g>
<!-- Node6&#45;&gt;Node9 -->
<g id="edge8" class="edge"><title>Node6&#45;&gt;Node9</title>
<path fill="none" stroke="midnightblue" d="M1571.42,-336.25C1582.14,-318.096 1605,-274.713 1605,-235 1605,-235 1605,-235 1605,-121 1605,-87.5366 1595.63,-73.3205 1567,-56 1486.3,-7.1792 805.988,-9.30975 634.916,-10.6331"/>
<polygon fill="midnightblue" stroke="midnightblue" points="634.822,-7.13361 624.85,-10.7146 634.878,-14.1334 634.822,-7.13361"/>
</g>
<!-- Node14&#45;&gt;Node9 -->
<g id="edge18" class="edge"><title>Node14&#45;&gt;Node9</title>
<path fill="none" stroke="midnightblue" d="M462.249,-112.345C478.496,-99.8559 509.491,-76.076 536,-56 549.4,-45.8518 564.543,-34.4955 576.263,-25.73"/>
<polygon fill="midnightblue" stroke="midnightblue" points="578.558,-28.3846 584.474,-19.595 574.368,-22.7772 578.558,-28.3846"/>
</g>
<!-- Node15 -->
<g id="node15" class="node"><title>Node15</title>
<polygon fill="white" stroke="#bfbfbf" points="578.5,-56.5 578.5,-75.5 613.5,-75.5 613.5,-56.5 578.5,-56.5"/>
<text text-anchor="middle" x="596" y="-63.5" font-family="FreeSans" font-size="10.00">map</text>
</g>
<!-- Node14&#45;&gt;Node15 -->
<g id="edge14" class="edge"><title>Node14&#45;&gt;Node15</title>
<path fill="none" stroke="midnightblue" d="M473.976,-112.444C499.722,-102.855 541.428,-87.3232 568.786,-77.1348"/>
<polygon fill="midnightblue" stroke="midnightblue" points="570.01,-80.4138 578.16,-73.6439 567.567,-73.854 570.01,-80.4138"/>
</g>
<!-- Node16 -->
<g id="node16" class="node"><title>Node16</title>
<polygon fill="white" stroke="#bfbfbf" points="1037.5,-56.5 1037.5,-75.5 1080.5,-75.5 1080.5,-56.5 1037.5,-56.5"/>
<text text-anchor="middle" x="1059" y="-63.5" font-family="FreeSans" font-size="10.00">vector</text>
</g>
<!-- Node14&#45;&gt;Node16 -->
<g id="edge15" class="edge"><title>Node14&#45;&gt;Node16</title>
<path fill="none" stroke="midnightblue" d="M482.119,-119.416C583.357,-114.133 903.442,-96.3882 1027.47,-75.6246"/>
<polygon fill="midnightblue" stroke="midnightblue" points="1028.21,-79.0475 1037.45,-73.8665 1027,-72.1535 1028.21,-79.0475"/>
</g>
<!-- Node17 -->
<g id="node17" class="node"><title>Node17</title>
<polygon fill="white" stroke="#bfbfbf" points="190,-0.5 190,-19.5 252,-19.5 252,-0.5 190,-0.5"/>
<text text-anchor="middle" x="221" y="-7.5" font-family="FreeSans" font-size="10.00">wx/event.h</text>
</g>
<!-- Node14&#45;&gt;Node17 -->
<g id="edge16" class="edge"><title>Node14&#45;&gt;Node17</title>
<path fill="none" stroke="midnightblue" d="M419.925,-116.704C352.532,-107.243 198.366,-84.7505 191,-76 178.823,-61.534 191.715,-41.3048 204.18,-27.2718"/>
<polygon fill="midnightblue" stroke="midnightblue" points="206.918,-29.4722 211.277,-19.8158 201.848,-24.6459 206.918,-29.4722"/>
</g>
<!-- Node18 -->
<g id="node18" class="node"><title>Node18</title>
<polygon fill="white" stroke="#bfbfbf" points="412,-56.5 412,-75.5 484,-75.5 484,-56.5 412,-56.5"/>
<text text-anchor="middle" x="448" y="-63.5" font-family="FreeSans" font-size="10.00">wx/cmdline.h</text>
</g>
<!-- Node14&#45;&gt;Node18 -->
<g id="edge17" class="edge"><title>Node14&#45;&gt;Node18</title>
<path fill="none" stroke="midnightblue" d="M450.505,-112.083C450.111,-105.006 449.548,-94.8611 449.055,-85.9865"/>
<polygon fill="midnightblue" stroke="midnightblue" points="452.536,-85.5415 448.486,-75.7511 445.546,-85.9299 452.536,-85.5415"/>
</g>
<!-- Node19 -->
<g id="node19" class="node"><title>Node19</title>
<g id="a_node19"><a xlink:href="sdk__events_8h" target="_top" xlink:title="sdk_events.h">
<polygon fill="white" stroke="black" points="200,-56.5 200,-75.5 272,-75.5 272,-56.5 200,-56.5"/>
<text text-anchor="middle" x="236" y="-63.5" font-family="FreeSans" font-size="10.00">sdk_events.h</text>
</a>
</g>
</g>
<!-- Node14&#45;&gt;Node19 -->
<g id="edge19" class="edge"><title>Node14&#45;&gt;Node19</title>
<path fill="none" stroke="midnightblue" d="M419.737,-113.148C382.94,-103.906 321.591,-88.4972 280.003,-78.0518"/>
<polygon fill="midnightblue" stroke="midnightblue" points="280.695,-74.617 270.143,-75.5756 278.99,-81.4062 280.695,-74.617"/>
</g>
<!-- Node21 -->
<g id="node21" class="node"><title>Node21</title>
<g id="a_node21"><a xlink:href="cbfunctor_8h" target="_top" xlink:title="cbfunctor.h">
<polygon fill="white" stroke="black" points="328.5,-56.5 328.5,-75.5 393.5,-75.5 393.5,-56.5 328.5,-56.5"/>
<text text-anchor="middle" x="361" y="-63.5" font-family="FreeSans" font-size="10.00">cbfunctor.h</text>
</a>
</g>
</g>
<!-- Node14&#45;&gt;Node21 -->
<g id="edge24" class="edge"><title>Node14&#45;&gt;Node21</title>
<path fill="none" stroke="midnightblue" d="M436.54,-112.324C422.5,-103.9 400.952,-90.9709 384.457,-81.0741"/>
<polygon fill="midnightblue" stroke="midnightblue" points="385.8,-77.7983 375.424,-75.6545 382.198,-83.8007 385.8,-77.7983"/>
</g>
<!-- Node19&#45;&gt;Node5 -->
<g id="edge23" class="edge"><title>Node19&#45;&gt;Node5</title>
<path fill="none" stroke="midnightblue" d="M219.612,-56.324C203.329,-47.7034 178.133,-34.3643 159.284,-24.3855"/>
<polygon fill="midnightblue" stroke="midnightblue" points="160.823,-21.2402 150.347,-19.6545 157.548,-27.4267 160.823,-21.2402"/>
</g>
<!-- Node19&#45;&gt;Node9 -->
<g id="edge22" class="edge"><title>Node19&#45;&gt;Node9</title>
<path fill="none" stroke="midnightblue" d="M272.025,-58.3649C276.722,-57.544 281.473,-56.7358 286,-56 383.48,-40.1564 498.653,-24.1467 557.366,-16.179"/>
<polygon fill="midnightblue" stroke="midnightblue" points="557.875,-19.6422 567.315,-14.8326 556.936,-12.7054 557.875,-19.6422"/>
</g>
<!-- Node19&#45;&gt;Node17 -->
<g id="edge20" class="edge"><title>Node19&#45;&gt;Node17</title>
<path fill="none" stroke="midnightblue" d="M233.523,-56.083C231.514,-48.8486 228.614,-38.4087 226.11,-29.3968"/>
<polygon fill="midnightblue" stroke="midnightblue" points="229.48,-28.4495 223.431,-19.7511 222.735,-30.323 229.48,-28.4495"/>
</g>
<!-- Node20 -->
<g id="node20" class="node"><title>Node20</title>
<polygon fill="white" stroke="#bfbfbf" points="407.5,-0.5 407.5,-19.5 458.5,-19.5 458.5,-0.5 407.5,-0.5"/>
<text text-anchor="middle" x="433" y="-7.5" font-family="FreeSans" font-size="10.00">wx/intl.h</text>
</g>
<!-- Node19&#45;&gt;Node20 -->
<g id="edge21" class="edge"><title>Node19&#45;&gt;Node20</title>
<path fill="none" stroke="midnightblue" d="M267.215,-56.4435C302.619,-46.739 360.237,-30.9452 397.372,-20.7661"/>
<polygon fill="midnightblue" stroke="midnightblue" points="398.548,-24.0729 407.267,-18.0537 396.697,-17.3219 398.548,-24.0729"/>
</g>
<!-- Node22&#45;&gt;Node9 -->
<g id="edge27" class="edge"><title>Node22&#45;&gt;Node9</title>
<path fill="none" stroke="midnightblue" d="M753.424,-280.183C759.645,-266.388 768.769,-239.66 755,-224 713.721,-177.053 534.193,-210.838 476,-188 396.211,-156.687 358.244,-152.202 319,-76 314.93,-68.0975 313.241,-62.7706 319,-56 334.27,-38.0494 484.689,-21.5275 557.243,-14.5286"/>
<polygon fill="midnightblue" stroke="midnightblue" points="557.734,-17.9977 567.358,-13.566 557.071,-11.0292 557.734,-17.9977"/>
</g>
<!-- Node23 -->
<g id="node23" class="node"><title>Node23</title>
<polygon fill="white" stroke="#bfbfbf" points="957,-56.5 957,-75.5 1019,-75.5 1019,-56.5 957,-56.5"/>
<text text-anchor="middle" x="988" y="-63.5" font-family="FreeSans" font-size="10.00">wx/string.h</text>
</g>
<!-- Node22&#45;&gt;Node23 -->
<g id="edge26" class="edge"><title>Node22&#45;&gt;Node23</title>
<path fill="none" stroke="midnightblue" d="M810.308,-284.459C883.699,-278.176 1001.53,-265.151 1040,-244 1068.98,-228.066 1068.63,-214.054 1089,-188 1112.38,-158.091 1150.36,-142.679 1128,-112 1121.96,-103.714 1068.37,-88.1076 1029.29,-77.6305"/>
<polygon fill="midnightblue" stroke="midnightblue" points="1029.77,-74.1361 1019.2,-74.9535 1027.97,-80.9018 1029.77,-74.1361"/>
</g>
<!-- Node24 -->
<g id="node24" class="node"><title>Node24</title>
<g id="a_node24"><a xlink:href="debuggermanager_8h" target="_top" xlink:title="debuggermanager.h">
<polygon fill="white" stroke="black" points="929.5,-224.5 929.5,-243.5 1030.5,-243.5 1030.5,-224.5 929.5,-224.5"/>
<text text-anchor="middle" x="980" y="-231.5" font-family="FreeSans" font-size="10.00">debuggermanager.h</text>
</a>
</g>
</g>
<!-- Node22&#45;&gt;Node24 -->
<g id="edge28" class="edge"><title>Node22&#45;&gt;Node24</title>
<path fill="none" stroke="midnightblue" d="M785.603,-280.444C825.731,-271.063 890.198,-255.993 933.785,-245.804"/>
<polygon fill="midnightblue" stroke="midnightblue" points="934.628,-249.201 943.569,-243.516 933.034,-242.385 934.628,-249.201"/>
</g>
<!-- Node37 -->
<g id="node37" class="node"><title>Node37</title>
<polygon fill="white" stroke="#bfbfbf" points="506.5,-224.5 506.5,-243.5 553.5,-243.5 553.5,-224.5 506.5,-224.5"/>
<text text-anchor="middle" x="530" y="-231.5" font-family="FreeSans" font-size="10.00">ctype.h</text>
</g>
<!-- Node22&#45;&gt;Node37 -->
<g id="edge56" class="edge"><title>Node22&#45;&gt;Node37</title>
<path fill="none" stroke="midnightblue" d="M712.219,-280.432C676.696,-272.084 621.137,-258.835 563.746,-244.136"/>
<polygon fill="midnightblue" stroke="midnightblue" points="564.328,-240.672 553.771,-241.571 562.585,-247.451 564.328,-240.672"/>
</g>
<!-- Node38 -->
<g id="node38" class="node"><title>Node38</title>
<polygon fill="white" stroke="#bfbfbf" points="572,-224.5 572,-243.5 616,-243.5 616,-224.5 572,-224.5"/>
<text text-anchor="middle" x="594" y="-231.5" font-family="FreeSans" font-size="10.00">stdio.h</text>
</g>
<!-- Node22&#45;&gt;Node38 -->
<g id="edge57" class="edge"><title>Node22&#45;&gt;Node38</title>
<path fill="none" stroke="midnightblue" d="M724.44,-280.444C697.867,-271.186 655.387,-256.387 626.167,-246.207"/>
<polygon fill="midnightblue" stroke="midnightblue" points="627.027,-242.8 616.432,-242.815 624.724,-249.41 627.027,-242.8"/>
</g>
<!-- Node39 -->
<g id="node39" class="node"><title>Node39</title>
<polygon fill="white" stroke="#bfbfbf" points="634.5,-224.5 634.5,-243.5 681.5,-243.5 681.5,-224.5 634.5,-224.5"/>
<text text-anchor="middle" x="658" y="-231.5" font-family="FreeSans" font-size="10.00">stdlib.h</text>
</g>
<!-- Node22&#45;&gt;Node39 -->
<g id="edge58" class="edge"><title>Node22&#45;&gt;Node39</title>
<path fill="none" stroke="midnightblue" d="M734.379,-280.324C720.051,-271.822 697.987,-258.729 681.251,-248.797"/>
<polygon fill="midnightblue" stroke="midnightblue" points="682.97,-245.748 672.584,-243.655 679.398,-251.768 682.97,-245.748"/>
</g>
<!-- Node40 -->
<g id="node40" class="node"><title>Node40</title>
<polygon fill="white" stroke="#bfbfbf" points="699.5,-224.5 699.5,-243.5 746.5,-243.5 746.5,-224.5 699.5,-224.5"/>
<text text-anchor="middle" x="723" y="-231.5" font-family="FreeSans" font-size="10.00">string.h</text>
</g>
<!-- Node22&#45;&gt;Node40 -->
<g id="edge59" class="edge"><title>Node22&#45;&gt;Node40</title>
<path fill="none" stroke="midnightblue" d="M744.707,-280.083C741.148,-272.691 735.978,-261.953 731.576,-252.811"/>
<polygon fill="midnightblue" stroke="midnightblue" points="734.705,-251.243 727.213,-243.751 728.398,-254.279 734.705,-251.243"/>
</g>
<!-- Node41 -->
<g id="node41" class="node"><title>Node41</title>
<polygon fill="white" stroke="#bfbfbf" points="803,-224.5 803,-243.5 853,-243.5 853,-224.5 803,-224.5"/>
<text text-anchor="middle" x="828" y="-231.5" font-family="FreeSans" font-size="10.00">assert.h</text>
</g>
<!-- Node22&#45;&gt;Node41 -->
<g id="edge60" class="edge"><title>Node22&#45;&gt;Node41</title>
<path fill="none" stroke="midnightblue" d="M761.693,-280.324C773.901,-271.979 792.578,-259.212 807.003,-249.352"/>
<polygon fill="midnightblue" stroke="midnightblue" points="809.058,-252.187 815.339,-243.655 805.108,-246.408 809.058,-252.187"/>
</g>
<!-- Node42 -->
<g id="node42" class="node"><title>Node42</title>
<polygon fill="white" stroke="#bfbfbf" points="871,-224.5 871,-243.5 911,-243.5 911,-224.5 871,-224.5"/>
<text text-anchor="middle" x="891" y="-231.5" font-family="FreeSans" font-size="10.00">string</text>
</g>
<!-- Node22&#45;&gt;Node42 -->
<g id="edge61" class="edge"><title>Node22&#45;&gt;Node42</title>
<path fill="none" stroke="midnightblue" d="M771.5,-280.444C795.771,-271.214 834.525,-256.476 861.287,-246.299"/>
<polygon fill="midnightblue" stroke="midnightblue" points="862.798,-249.469 870.901,-242.643 860.31,-242.926 862.798,-249.469"/>
</g>
<!-- Node43 -->
<g id="node43" class="node"><title>Node43</title>
<polygon fill="white" stroke="#bfbfbf" points="366.5,-224.5 366.5,-243.5 419.5,-243.5 419.5,-224.5 366.5,-224.5"/>
<text text-anchor="middle" x="393" y="-231.5" font-family="FreeSans" font-size="10.00">iostream</text>
</g>
<!-- Node22&#45;&gt;Node43 -->
<g id="edge62" class="edge"><title>Node22&#45;&gt;Node43</title>
<path fill="none" stroke="midnightblue" d="M687.932,-282.351C625.449,-275.11 525.401,-262.313 429.528,-243.914"/>
<polygon fill="midnightblue" stroke="midnightblue" points="430.15,-240.47 419.666,-241.999 428.816,-247.341 430.15,-240.47"/>
</g>
<!-- Node44 -->
<g id="node44" class="node"><title>Node44</title>
<polygon fill="white" stroke="#bfbfbf" points="438,-224.5 438,-243.5 488,-243.5 488,-224.5 438,-224.5"/>
<text text-anchor="middle" x="463" y="-231.5" font-family="FreeSans" font-size="10.00">sstream</text>
</g>
<!-- Node22&#45;&gt;Node44 -->
<g id="edge63" class="edge"><title>Node22&#45;&gt;Node44</title>
<path fill="none" stroke="midnightblue" d="M693.683,-280.462C644.654,-272.592 570.929,-260.019 498.009,-244.082"/>
<polygon fill="midnightblue" stroke="midnightblue" points="498.714,-240.654 488.195,-241.916 497.205,-247.489 498.714,-240.654"/>
</g>
<!-- Node24&#45;&gt;Node5 -->
<g id="edge32" class="edge"><title>Node24&#45;&gt;Node5</title>
<path fill="none" stroke="midnightblue" d="M929.293,-225.146C926.151,-224.737 923.034,-224.35 920,-224 723.324,-201.303 669.078,-231.786 476,-188 340.041,-157.167 294.406,-159.811 183,-76 166.117,-63.2987 152.242,-43.2647 143.619,-28.7939"/>
<polygon fill="midnightblue" stroke="midnightblue" points="146.503,-26.7848 138.517,-19.823 140.419,-30.2458 146.503,-26.7848"/>
</g>
<!-- Node24&#45;&gt;Node9 -->
<g id="edge33" class="edge"><title>Node24&#45;&gt;Node9</title>
<path fill="none" stroke="midnightblue" d="M929.231,-225.32C847.831,-212.975 696.614,-189.899 691,-188 641.642,-171.301 621.566,-171.855 588,-132 565.571,-105.369 559.706,-89.554 569,-56 571.792,-45.9205 577.509,-35.832 582.967,-27.7694"/>
<polygon fill="midnightblue" stroke="midnightblue" points="585.825,-29.7899 588.849,-19.6357 580.153,-25.6881 585.825,-29.7899"/>
</g>
<!-- Node24&#45;&gt;Node14 -->
<g id="edge34" class="edge"><title>Node24&#45;&gt;Node14</title>
<path fill="none" stroke="midnightblue" d="M929.291,-225.164C926.15,-224.75 923.034,-224.358 920,-224 827.409,-213.079 584.01,-232.347 502,-188 482.542,-177.478 468.019,-156.045 459.547,-140.664"/>
<polygon fill="midnightblue" stroke="midnightblue" points="462.566,-138.881 454.863,-131.607 456.348,-142.097 462.566,-138.881"/>
</g>
<!-- Node24&#45;&gt;Node15 -->
<g id="edge29" class="edge"><title>Node24&#45;&gt;Node15</title>
<path fill="none" stroke="midnightblue" d="M936.471,-224.437C841.28,-205.291 621.363,-158.619 600,-132 589.726,-119.198 589.819,-100.01 591.824,-85.7973"/>
<polygon fill="midnightblue" stroke="midnightblue" points="595.318,-86.1502 593.681,-75.6826 588.433,-84.8861 595.318,-86.1502"/>
</g>
<!-- Node24&#45;&gt;Node16 -->
<g id="edge30" class="edge"><title>Node24&#45;&gt;Node16</title>
<path fill="none" stroke="midnightblue" d="M1014.09,-224.413C1037.02,-217.393 1066.98,-205.699 1089,-188 1112.64,-169 1118.92,-160.938 1128,-132 1130.66,-123.519 1132.23,-119.816 1128,-112 1119.84,-96.9393 1104.21,-86.1214 1089.89,-78.8726"/>
<polygon fill="midnightblue" stroke="midnightblue" points="1091.3,-75.6689 1080.76,-74.6159 1088.35,-82.0134 1091.3,-75.6689"/>
</g>
<!-- Node24&#45;&gt;Node23 -->
<g id="edge31" class="edge"><title>Node24&#45;&gt;Node23</title>
<path fill="none" stroke="midnightblue" d="M1001.03,-224.41C1032.22,-210.375 1089.54,-179.268 1113,-132 1116.95,-124.038 1118.11,-119.272 1113,-112 1102.99,-97.7632 1061.36,-84.6757 1028.85,-76.3287"/>
<polygon fill="midnightblue" stroke="midnightblue" points="1029.65,-72.9213 1019.1,-73.8944 1027.96,-79.7127 1029.65,-72.9213"/>
</g>
<!-- Node25 -->
<g id="node25" class="node"><title>Node25</title>
<g id="a_node25"><a xlink:href="configmanager_8h" target="_top" xlink:title="configmanager.h">
<polygon fill="white" stroke="red" points="803.5,-168.5 803.5,-187.5 890.5,-187.5 890.5,-168.5 803.5,-168.5"/>
<text text-anchor="middle" x="847" y="-175.5" font-family="FreeSans" font-size="10.00">configmanager.h</text>
</a>
</g>
</g>
<!-- Node24&#45;&gt;Node25 -->
<g id="edge35" class="edge"><title>Node24&#45;&gt;Node25</title>
<path fill="none" stroke="midnightblue" d="M958.926,-224.444C936.94,-215.517 902.266,-201.439 877.336,-191.317"/>
<polygon fill="midnightblue" stroke="midnightblue" points="878.558,-188.035 867.976,-187.516 875.924,-194.521 878.558,-188.035"/>
</g>
<!-- Node25&#45;&gt;Node9 -->
<g id="edge38" class="edge"><title>Node25&#45;&gt;Node9</title>
<path fill="none" stroke="midnightblue" d="M803.462,-172.033C752.306,-165.373 671.531,-152.02 649,-132 622.204,-108.19 637.029,-88.5433 622,-56 617.65,-46.5798 611.961,-36.5422 607.014,-28.3429"/>
<polygon fill="midnightblue" stroke="midnightblue" points="609.911,-26.3718 601.673,-19.7091 603.958,-30.0546 609.911,-26.3718"/>
</g>
<!-- Node25&#45;&gt;Node14 -->
<g id="edge51" class="edge"><title>Node25&#45;&gt;Node14</title>
<path fill="none" stroke="midnightblue" d="M803.488,-171.067C726.539,-160.574 567.48,-138.884 492.206,-128.619"/>
<polygon fill="midnightblue" stroke="midnightblue" points="492.539,-125.132 482.158,-127.249 491.593,-132.068 492.539,-125.132"/>
</g>
<!-- Node25&#45;&gt;Node15 -->
<g id="edge55" class="edge"><title>Node25&#45;&gt;Node15</title>
<path fill="none" stroke="midnightblue" d="M803.264,-173.784C744.157,-168.572 643.04,-156.313 616,-132 602.987,-120.299 598.338,-100.358 596.73,-85.6414"/>
<polygon fill="midnightblue" stroke="midnightblue" points="600.218,-85.3496 596.005,-75.6285 593.237,-85.8551 600.218,-85.3496"/>
</g>
<!-- Node26 -->
<g id="node26" class="node"><title>Node26</title>
<polygon fill="white" stroke="#bfbfbf" points="937.5,-112.5 937.5,-131.5 1014.5,-131.5 1014.5,-112.5 937.5,-112.5"/>
<text text-anchor="middle" x="976" y="-119.5" font-family="FreeSans" font-size="10.00">wx/hashmap.h</text>
</g>
<!-- Node25&#45;&gt;Node26 -->
<g id="edge36" class="edge"><title>Node25&#45;&gt;Node26</title>
<path fill="none" stroke="midnightblue" d="M867.44,-168.444C888.67,-159.557 922.099,-145.563 946.255,-135.451"/>
<polygon fill="midnightblue" stroke="midnightblue" points="947.782,-138.606 955.655,-131.516 945.079,-132.149 947.782,-138.606"/>
</g>
<!-- Node27 -->
<g id="node27" class="node"><title>Node27</title>
<polygon fill="white" stroke="#bfbfbf" points="1032.5,-112.5 1032.5,-131.5 1103.5,-131.5 1103.5,-112.5 1032.5,-112.5"/>
<text text-anchor="middle" x="1068" y="-119.5" font-family="FreeSans" font-size="10.00">wx/hashset.h</text>
</g>
<!-- Node25&#45;&gt;Node27 -->
<g id="edge37" class="edge"><title>Node25&#45;&gt;Node27</title>
<path fill="none" stroke="midnightblue" d="M882.018,-168.444C920.248,-159.102 981.567,-144.119 1023.26,-133.933"/>
<polygon fill="midnightblue" stroke="midnightblue" points="1024.26,-137.29 1033.15,-131.516 1022.6,-130.49 1024.26,-137.29"/>
</g>
<!-- Node28 -->
<g id="node28" class="node"><title>Node28</title>
<g id="a_node28"><a xlink:href="globals_8h" target="_top" xlink:title="globals.h">
<polygon fill="white" stroke="black" points="1312,-112.5 1312,-131.5 1366,-131.5 1366,-112.5 1312,-112.5"/>
<text text-anchor="middle" x="1339" y="-119.5" font-family="FreeSans" font-size="10.00">globals.h</text>
</a>
</g>
</g>
<!-- Node25&#45;&gt;Node28 -->
<g id="edge39" class="edge"><title>Node25&#45;&gt;Node28</title>
<path fill="none" stroke="midnightblue" d="M890.662,-172.208C986.24,-161.718 1212.57,-136.877 1301.85,-127.077"/>
<polygon fill="midnightblue" stroke="midnightblue" points="1302.24,-130.556 1311.8,-125.985 1301.48,-123.597 1302.24,-130.556"/>
</g>
<!-- Node34 -->
<g id="node34" class="node"><title>Node34</title>
<polygon fill="white" stroke="#bfbfbf" points="658.5,-112.5 658.5,-131.5 741.5,-131.5 741.5,-112.5 658.5,-112.5"/>
<text text-anchor="middle" x="700" y="-119.5" font-family="FreeSans" font-size="10.00">tinyxml/tinystr.h</text>
</g>
<!-- Node25&#45;&gt;Node34 -->
<g id="edge49" class="edge"><title>Node25&#45;&gt;Node34</title>
<path fill="none" stroke="midnightblue" d="M823.707,-168.444C799.193,-159.438 760.404,-145.189 732.8,-135.049"/>
<polygon fill="midnightblue" stroke="midnightblue" points="733.777,-131.679 723.184,-131.516 731.363,-138.25 733.777,-131.679"/>
</g>
<!-- Node35 -->
<g id="node35" class="node"><title>Node35</title>
<polygon fill="white" stroke="#bfbfbf" points="759.5,-112.5 759.5,-131.5 846.5,-131.5 846.5,-112.5 759.5,-112.5"/>
<text text-anchor="middle" x="803" y="-119.5" font-family="FreeSans" font-size="10.00">tinyxml/tinyxml.h</text>
</g>
<!-- Node25&#45;&gt;Node35 -->
<g id="edge50" class="edge"><title>Node25&#45;&gt;Node35</title>
<path fill="none" stroke="midnightblue" d="M839.734,-168.083C833.455,-160.377 824.212,-149.033 816.569,-139.653"/>
<polygon fill="midnightblue" stroke="midnightblue" points="819.161,-137.293 810.131,-131.751 813.734,-141.714 819.161,-137.293"/>
</g>
<!-- Node36 -->
<g id="node36" class="node"><title>Node36</title>
<g id="a_node36"><a xlink:href="base64_8h" target="_top" xlink:title="base64.h">
<polygon fill="white" stroke="red" points="864.5,-112.5 864.5,-131.5 919.5,-131.5 919.5,-112.5 864.5,-112.5"/>
<text text-anchor="middle" x="892" y="-119.5" font-family="FreeSans" font-size="10.00">base64.h</text>
</a>
</g>
</g>
<!-- Node25&#45;&gt;Node36 -->
<g id="edge52" class="edge"><title>Node25&#45;&gt;Node36</title>
<path fill="none" stroke="midnightblue" d="M854.431,-168.083C860.853,-160.377 870.306,-149.033 878.122,-139.653"/>
<polygon fill="midnightblue" stroke="midnightblue" points="880.994,-141.674 884.707,-131.751 875.617,-137.193 880.994,-141.674"/>
</g>
<!-- Node28&#45;&gt;Node9 -->
<g id="edge48" class="edge"><title>Node28&#45;&gt;Node9</title>
<path fill="none" stroke="midnightblue" d="M1311.66,-114.969C1307.1,-113.971 1302.42,-112.952 1298,-112 1222.5,-95.7204 1200.64,-102.234 1128,-76 1110.05,-69.5171 1108.3,-61.4147 1090,-56 1004.76,-30.78 735.742,-16.9717 634.785,-12.5708"/>
<polygon fill="midnightblue" stroke="midnightblue" points="634.854,-9.07062 624.713,-12.1388 634.554,-16.0642 634.854,-9.07062"/>
</g>
<!-- Node28&#45;&gt;Node16 -->
<g id="edge40" class="edge"><title>Node28&#45;&gt;Node16</title>
<path fill="none" stroke="midnightblue" d="M1311.69,-114.842C1307.12,-113.86 1302.43,-112.879 1298,-112 1208.12,-94.1733 1184.61,-95.1233 1095,-76 1093.54,-75.6891 1092.06,-75.3609 1090.55,-75.0211"/>
<polygon fill="midnightblue" stroke="midnightblue" points="1091.18,-71.5731 1080.65,-72.6701 1089.57,-78.384 1091.18,-71.5731"/>
</g>
<!-- Node28&#45;&gt;Node20 -->
<g id="edge45" class="edge"><title>Node28&#45;&gt;Node20</title>
<path fill="none" stroke="midnightblue" d="M1366.02,-120.978C1433.89,-120.1 1602.34,-112.348 1548,-56 1509.8,-16.3826 612.956,-22.9767 558,-20 527.964,-18.3731 493.914,-15.8786 468.945,-13.9281"/>
<polygon fill="midnightblue" stroke="midnightblue" points="469.083,-10.4281 458.838,-13.1295 468.532,-17.4064 469.083,-10.4281"/>
</g>
<!-- Node28&#45;&gt;Node23 -->
<g id="edge41" class="edge"><title>Node28&#45;&gt;Node23</title>
<path fill="none" stroke="midnightblue" d="M1311.94,-117.737C1259.53,-111.276 1140.32,-95.8865 1029.32,-75.9311"/>
<polygon fill="midnightblue" stroke="midnightblue" points="1029.76,-72.4536 1019.29,-74.112 1028.51,-79.3411 1029.76,-72.4536"/>
</g>
<!-- Node29 -->
<g id="node29" class="node"><title>Node29</title>
<polygon fill="white" stroke="#bfbfbf" points="1137,-56.5 1137,-75.5 1205,-75.5 1205,-56.5 1137,-56.5"/>
<text text-anchor="middle" x="1171" y="-63.5" font-family="FreeSans" font-size="10.00">wx/treectrl.h</text>
</g>
<!-- Node28&#45;&gt;Node29 -->
<g id="edge42" class="edge"><title>Node28&#45;&gt;Node29</title>
<path fill="none" stroke="midnightblue" d="M1312.38,-112.444C1283.99,-103.32 1238.86,-88.8133 1207.25,-78.6509"/>
<polygon fill="midnightblue" stroke="midnightblue" points="1208.09,-75.2445 1197.5,-75.5164 1205.94,-81.9087 1208.09,-75.2445"/>
</g>
<!-- Node30 -->
<g id="node30" class="node"><title>Node30</title>
<polygon fill="white" stroke="#bfbfbf" points="1223,-56.5 1223,-75.5 1273,-75.5 1273,-56.5 1223,-56.5"/>
<text text-anchor="middle" x="1248" y="-63.5" font-family="FreeSans" font-size="10.00">wx/file.h</text>
</g>
<!-- Node28&#45;&gt;Node30 -->
<g id="edge43" class="edge"><title>Node28&#45;&gt;Node30</title>
<path fill="none" stroke="midnightblue" d="M1324.38,-112.324C1310.05,-103.822 1287.99,-90.7288 1271.25,-80.7975"/>
<polygon fill="midnightblue" stroke="midnightblue" points="1272.97,-77.7478 1262.58,-75.6545 1269.4,-83.7677 1272.97,-77.7478"/>
</g>
<!-- Node31 -->
<g id="node31" class="node"><title>Node31</title>
<polygon fill="white" stroke="#bfbfbf" points="1291,-56.5 1291,-75.5 1365,-75.5 1365,-56.5 1291,-56.5"/>
<text text-anchor="middle" x="1328" y="-63.5" font-family="FreeSans" font-size="10.00">wx/filename.h</text>
</g>
<!-- Node28&#45;&gt;Node31 -->
<g id="edge44" class="edge"><title>Node28&#45;&gt;Node31</title>
<path fill="none" stroke="midnightblue" d="M1337.18,-112.083C1335.73,-104.927 1333.63,-94.6353 1331.81,-85.6911"/>
<polygon fill="midnightblue" stroke="midnightblue" points="1335.21,-84.8512 1329.78,-75.7511 1328.35,-86.2485 1335.21,-84.8512"/>
</g>
<!-- Node32 -->
<g id="node32" class="node"><title>Node32</title>
<polygon fill="white" stroke="#bfbfbf" points="1383.5,-56.5 1383.5,-75.5 1452.5,-75.5 1452.5,-56.5 1383.5,-56.5"/>
<text text-anchor="middle" x="1418" y="-63.5" font-family="FreeSans" font-size="10.00">wx/msgdlg.h</text>
</g>
<!-- Node28&#45;&gt;Node32 -->
<g id="edge46" class="edge"><title>Node28&#45;&gt;Node32</title>
<path fill="none" stroke="midnightblue" d="M1351.69,-112.324C1363.9,-103.979 1382.58,-91.2122 1397,-81.3524"/>
<polygon fill="midnightblue" stroke="midnightblue" points="1399.06,-84.1871 1405.34,-75.6545 1395.11,-78.4082 1399.06,-84.1871"/>
</g>
<!-- Node33 -->
<g id="node33" class="node"><title>Node33</title>
<polygon fill="white" stroke="#bfbfbf" points="1471,-56.5 1471,-75.5 1539,-75.5 1539,-56.5 1471,-56.5"/>
<text text-anchor="middle" x="1505" y="-63.5" font-family="FreeSans" font-size="10.00">wx/bitmap.h</text>
</g>
<!-- Node28&#45;&gt;Node33 -->
<g id="edge47" class="edge"><title>Node28&#45;&gt;Node33</title>
<path fill="none" stroke="midnightblue" d="M1365.3,-112.444C1393.35,-103.32 1437.94,-88.8133 1469.18,-78.6509"/>
<polygon fill="midnightblue" stroke="midnightblue" points="1470.39,-81.9383 1478.82,-75.5164 1468.23,-75.2816 1470.39,-81.9383"/>
</g>
<!-- Node36&#45;&gt;Node9 -->
<g id="edge54" class="edge"><title>Node36&#45;&gt;Node9</title>
<path fill="none" stroke="midnightblue" d="M868.773,-112.368C816.359,-92.89 688.78,-45.479 628.53,-23.089"/>
<polygon fill="midnightblue" stroke="midnightblue" points="629.712,-19.7942 619.119,-19.5914 627.273,-26.3557 629.712,-19.7942"/>
</g>
<!-- Node36&#45;&gt;Node23 -->
<g id="edge53" class="edge"><title>Node36&#45;&gt;Node23</title>
<path fill="none" stroke="midnightblue" d="M907.424,-112.324C922.54,-103.822 945.815,-90.7288 963.471,-80.7975"/>
<polygon fill="midnightblue" stroke="midnightblue" points="965.614,-83.6077 972.614,-75.6545 962.183,-77.5066 965.614,-83.6077"/>
</g>
<!-- Node45&#45;&gt;Node16 -->
<g id="edge68" class="edge"><title>Node45&#45;&gt;Node16</title>
<path fill="none" stroke="midnightblue" d="M1340.14,-280.415C1313.38,-254.508 1234.46,-178.261 1222,-168 1188.78,-140.64 1179.6,-134.65 1143,-112 1124.3,-100.427 1102.38,-88.7411 1085.62,-80.179"/>
<polygon fill="midnightblue" stroke="midnightblue" points="1086.91,-76.9118 1076.41,-75.5232 1083.75,-83.1587 1086.91,-76.9118"/>
</g>
<!-- Node45&#45;&gt;Node23 -->
<g id="edge65" class="edge"><title>Node45&#45;&gt;Node23</title>
<path fill="none" stroke="midnightblue" d="M1333.64,-280.367C1319.04,-271.873 1296.72,-258.155 1279,-244 1251.25,-221.837 1247.3,-212.918 1222,-188 1187.74,-154.262 1186.51,-136.267 1145,-112 1125.35,-100.515 1068.61,-85.7392 1029.02,-76.3159"/>
<polygon fill="midnightblue" stroke="midnightblue" points="1029.65,-72.867 1019.11,-73.9824 1028.04,-79.6807 1029.65,-72.867"/>
</g>
<!-- Node45&#45;&gt;Node24 -->
<g id="edge69" class="edge"><title>Node45&#45;&gt;Node24</title>
<path fill="none" stroke="midnightblue" d="M1305.22,-282.593C1239.58,-272.988 1115.44,-254.82 1040.97,-243.922"/>
<polygon fill="midnightblue" stroke="midnightblue" points="1041.2,-240.419 1030.8,-242.434 1040.19,-247.345 1041.2,-240.419"/>
</g>
<!-- Node46 -->
<g id="node46" class="node"><title>Node46</title>
<polygon fill="white" stroke="#bfbfbf" points="1312,-224.5 1312,-243.5 1386,-243.5 1386,-224.5 1312,-224.5"/>
<text text-anchor="middle" x="1349" y="-231.5" font-family="FreeSans" font-size="10.00">wx/dynarray.h</text>
</g>
<!-- Node45&#45;&gt;Node46 -->
<g id="edge66" class="edge"><title>Node45&#45;&gt;Node46</title>
<path fill="none" stroke="midnightblue" d="M1349,-280.083C1349,-273.006 1349,-262.861 1349,-253.986"/>
<polygon fill="midnightblue" stroke="midnightblue" points="1352.5,-253.751 1349,-243.751 1345.5,-253.751 1352.5,-253.751"/>
</g>
<!-- Node47 -->
<g id="node47" class="node"><title>Node47</title>
<polygon fill="white" stroke="#bfbfbf" points="1404.5,-224.5 1404.5,-243.5 1447.5,-243.5 1447.5,-224.5 1404.5,-224.5"/>
<text text-anchor="middle" x="1426" y="-231.5" font-family="FreeSans" font-size="10.00">deque</text>
</g>
<!-- Node45&#45;&gt;Node47 -->
<g id="edge67" class="edge"><title>Node45&#45;&gt;Node47</title>
<path fill="none" stroke="midnightblue" d="M1361.37,-280.324C1373.16,-272.058 1391.13,-259.453 1405.14,-249.632"/>
<polygon fill="midnightblue" stroke="midnightblue" points="1407.48,-252.262 1413.66,-243.655 1403.46,-246.531 1407.48,-252.262"/>
</g>
<!-- Node48&#45;&gt;Node28 -->
<g id="edge73" class="edge"><title>Node48&#45;&gt;Node28</title>
<path fill="none" stroke="midnightblue" d="M1463.9,-336.219C1467.94,-315.454 1475.55,-262.204 1457,-224 1437.42,-183.683 1393.52,-153.143 1365.14,-136.679"/>
<polygon fill="midnightblue" stroke="midnightblue" points="1366.6,-133.485 1356.17,-131.642 1363.17,-139.589 1366.6,-133.485"/>
</g>
<!-- Node48&#45;&gt;Node45 -->
<g id="edge71" class="edge"><title>Node48&#45;&gt;Node45</title>
<path fill="none" stroke="midnightblue" d="M1444.09,-336.444C1425.75,-327.675 1396.99,-313.935 1375.91,-303.858"/>
<polygon fill="midnightblue" stroke="midnightblue" points="1377.35,-300.67 1366.82,-299.516 1374.33,-306.986 1377.35,-300.67"/>
</g>
<!-- Node49 -->
<g id="node49" class="node"><title>Node49</title>
<polygon fill="white" stroke="#bfbfbf" points="1504,-280.5 1504,-299.5 1566,-299.5 1566,-280.5 1504,-280.5"/>
<text text-anchor="middle" x="1535" y="-287.5" font-family="FreeSans" font-size="10.00">wx/regex.h</text>
</g>
<!-- Node48&#45;&gt;Node49 -->
<g id="edge72" class="edge"><title>Node48&#45;&gt;Node49</title>
<path fill="none" stroke="midnightblue" d="M1473.73,-336.324C1484.84,-328.107 1501.74,-315.602 1514.98,-305.807"/>
<polygon fill="midnightblue" stroke="midnightblue" points="1517.1,-308.595 1523.06,-299.834 1512.94,-302.967 1517.1,-308.595"/>
</g>
</g>
</svg>
