<?xml version="1.0" encoding="UTF-8" standalone="no"?>
<!DOCTYPE svg PUBLIC "-//W3C//DTD SVG 1.1//EN"
 "http://www.w3.org/Graphics/SVG/1.1/DTD/svg11.dtd">
<!-- Generated by graphviz version 2.38.0 (20140413.2041)
 -->
<!-- Title: debuggerdriver.h Pages: 1 -->
<svg width="510pt" height="308pt"
 viewBox="0.00 0.00 509.84 308.00" xmlns="http://www.w3.org/2000/svg" xmlns:xlink="http://www.w3.org/1999/xlink">
<g id="graph0" class="graph" transform="scale(1 1) rotate(0) translate(4 304)">
<title>debuggerdriver.h</title>
<!-- Node0 -->
<g id="node1" class="node"><title>Node0</title>
<polygon fill="#bfbfbf" stroke="black" points="330,-280.5 330,-299.5 417,-299.5 417,-280.5 330,-280.5"/>
<text text-anchor="middle" x="373.5" y="-287.5" font-family="FreeSans" font-size="10.00">debuggerdriver.h</text>
</g>
<!-- Node1 -->
<g id="node2" class="node"><title>Node1</title>
<g id="a_node2"><a xlink:href="debugger__defs_8h" target="_top" xlink:title="debugger_defs.h">
<polygon fill="none" stroke="black" points="330,-224.5 330,-243.5 417,-243.5 417,-224.5 330,-224.5"/>
<text text-anchor="middle" x="373.5" y="-231.5" font-family="FreeSans" font-size="10.00">debugger_defs.h</text>
</a>
</g>
</g>
<!-- Node0&#45;&gt;Node1 -->
<g id="edge1" class="edge"><title>Node0&#45;&gt;Node1</title>
<path fill="none" stroke="midnightblue" d="M373.5,-280.083C373.5,-273.006 373.5,-262.861 373.5,-253.986"/>
<polygon fill="midnightblue" stroke="midnightblue" points="377,-253.751 373.5,-243.751 370,-253.751 377,-253.751"/>
</g>
<!-- Node19 -->
<g id="node13" class="node"><title>Node19</title>
<g id="a_node13"><a xlink:href="globals_8h" target="_top" xlink:title="globals.h">
<polygon fill="none" stroke="red" points="201.5,-56.5 201.5,-75.5 255.5,-75.5 255.5,-56.5 201.5,-56.5"/>
<text text-anchor="middle" x="228.5" y="-63.5" font-family="FreeSans" font-size="10.00">globals.h</text>
</a>
</g>
</g>
<!-- Node0&#45;&gt;Node19 -->
<g id="edge25" class="edge"><title>Node0&#45;&gt;Node19</title>
<path fill="none" stroke="midnightblue" d="M359.16,-280.47C347.051,-272.527 330.182,-259.585 320.5,-244 306.961,-222.208 312.097,-213.037 306.5,-188 298.989,-154.4 310.158,-140.936 291.5,-112 282.943,-98.7284 268.971,-88.1607 256.357,-80.6101"/>
<polygon fill="midnightblue" stroke="midnightblue" points="257.943,-77.4869 247.509,-75.6499 254.52,-83.5929 257.943,-77.4869"/>
</g>
<!-- Node29 -->
<g id="node14" class="node"><title>Node29</title>
<polygon fill="none" stroke="#bfbfbf" points="435.5,-224.5 435.5,-243.5 497.5,-243.5 497.5,-224.5 435.5,-224.5"/>
<text text-anchor="middle" x="466.5" y="-231.5" font-family="FreeSans" font-size="10.00">wx/regex.h</text>
</g>
<!-- Node0&#45;&gt;Node29 -->
<g id="edge24" class="edge"><title>Node0&#45;&gt;Node29</title>
<path fill="none" stroke="midnightblue" d="M388.442,-280.324C403.085,-271.822 425.634,-258.729 442.738,-248.797"/>
<polygon fill="midnightblue" stroke="midnightblue" points="444.705,-251.703 451.595,-243.655 441.19,-245.649 444.705,-251.703"/>
</g>
<!-- Node2 -->
<g id="node3" class="node"><title>Node2</title>
<polygon fill="none" stroke="#bfbfbf" points="328.5,-0.5 328.5,-19.5 390.5,-19.5 390.5,-0.5 328.5,-0.5"/>
<text text-anchor="middle" x="359.5" y="-7.5" font-family="FreeSans" font-size="10.00">wx/string.h</text>
</g>
<!-- Node1&#45;&gt;Node2 -->
<g id="edge2" class="edge"><title>Node1&#45;&gt;Node2</title>
<path fill="none" stroke="midnightblue" d="M411.401,-224.423C444.284,-216.123 488.188,-202.672 498.5,-188 503.611,-180.728 501.651,-176.312 498.5,-168 474.556,-104.835 412.296,-50.7543 379.844,-25.7735"/>
<polygon fill="midnightblue" stroke="midnightblue" points="381.631,-22.7377 371.538,-19.5159 377.419,-28.3287 381.631,-22.7377"/>
</g>
<!-- Node3 -->
<g id="node4" class="node"><title>Node3</title>
<polygon fill="none" stroke="#bfbfbf" points="415.5,-168.5 415.5,-187.5 489.5,-187.5 489.5,-168.5 415.5,-168.5"/>
<text text-anchor="middle" x="452.5" y="-175.5" font-family="FreeSans" font-size="10.00">wx/dynarray.h</text>
</g>
<!-- Node1&#45;&gt;Node3 -->
<g id="edge3" class="edge"><title>Node1&#45;&gt;Node3</title>
<path fill="none" stroke="midnightblue" d="M386.193,-224.324C398.401,-215.979 417.078,-203.212 431.503,-193.352"/>
<polygon fill="midnightblue" stroke="midnightblue" points="433.558,-196.187 439.839,-187.655 429.608,-190.408 433.558,-196.187"/>
</g>
<!-- Node4 -->
<g id="node5" class="node"><title>Node4</title>
<polygon fill="none" stroke="#bfbfbf" points="316,-168.5 316,-187.5 359,-187.5 359,-168.5 316,-168.5"/>
<text text-anchor="middle" x="337.5" y="-175.5" font-family="FreeSans" font-size="10.00">deque</text>
</g>
<!-- Node1&#45;&gt;Node4 -->
<g id="edge4" class="edge"><title>Node1&#45;&gt;Node4</title>
<path fill="none" stroke="midnightblue" d="M367.555,-224.083C362.523,-216.534 355.163,-205.495 348.987,-196.23"/>
<polygon fill="midnightblue" stroke="midnightblue" points="351.793,-194.13 343.334,-187.751 345.969,-198.013 351.793,-194.13"/>
</g>
<!-- Node5 -->
<g id="node6" class="node"><title>Node5</title>
<polygon fill="none" stroke="#bfbfbf" points="234,-0.5 234,-19.5 277,-19.5 277,-0.5 234,-0.5"/>
<text text-anchor="middle" x="255.5" y="-7.5" font-family="FreeSans" font-size="10.00">vector</text>
</g>
<!-- Node1&#45;&gt;Node5 -->
<g id="edge5" class="edge"><title>Node1&#45;&gt;Node5</title>
<path fill="none" stroke="midnightblue" d="M374.828,-224.236C377.55,-203.506 382.046,-150.327 363.5,-112 344.796,-73.3449 304.423,-42.0827 278.685,-25.0564"/>
<polygon fill="midnightblue" stroke="midnightblue" points="280.556,-22.0987 270.251,-19.6389 276.773,-27.9883 280.556,-22.0987"/>
</g>
<!-- Node6 -->
<g id="node7" class="node"><title>Node6</title>
<g id="a_node7"><a xlink:href="debuggermanager_8h" target="_top" xlink:title="debuggermanager.h">
<polygon fill="none" stroke="black" points="140,-168.5 140,-187.5 241,-187.5 241,-168.5 140,-168.5"/>
<text text-anchor="middle" x="190.5" y="-175.5" font-family="FreeSans" font-size="10.00">debuggermanager.h</text>
</a>
</g>
</g>
<!-- Node1&#45;&gt;Node6 -->
<g id="edge6" class="edge"><title>Node1&#45;&gt;Node6</title>
<path fill="none" stroke="midnightblue" d="M344.503,-224.444C313.315,-215.241 263.57,-200.562 229.092,-190.388"/>
<polygon fill="midnightblue" stroke="midnightblue" points="229.943,-186.99 219.361,-187.516 227.962,-193.704 229.943,-186.99"/>
</g>
<!-- Node6&#45;&gt;Node2 -->
<g id="edge9" class="edge"><title>Node6&#45;&gt;Node2</title>
<path fill="none" stroke="midnightblue" d="M223.081,-168.351C244.502,-161.355 272.061,-149.713 291.5,-132 323.449,-102.888 344.011,-55.1665 353.458,-29.2073"/>
<polygon fill="midnightblue" stroke="midnightblue" points="356.843,-30.1268 356.826,-19.5319 350.233,-27.825 356.843,-30.1268"/>
</g>
<!-- Node6&#45;&gt;Node5 -->
<g id="edge8" class="edge"><title>Node6&#45;&gt;Node5</title>
<path fill="none" stroke="midnightblue" d="M195.145,-168.219C202.107,-155.372 215.986,-130.926 230.5,-112 243.893,-94.5366 256.369,-96.4508 264.5,-76 270.478,-60.964 267.052,-42.6044 262.817,-29.2373"/>
<polygon fill="midnightblue" stroke="midnightblue" points="266.084,-27.9767 259.412,-19.7465 259.495,-30.341 266.084,-27.9767"/>
</g>
<!-- Node7 -->
<g id="node8" class="node"><title>Node7</title>
<polygon fill="none" stroke="#bfbfbf" points="0,-0.5 0,-19.5 35,-19.5 35,-0.5 0,-0.5"/>
<text text-anchor="middle" x="17.5" y="-7.5" font-family="FreeSans" font-size="10.00">map</text>
</g>
<!-- Node6&#45;&gt;Node7 -->
<g id="edge7" class="edge"><title>Node6&#45;&gt;Node7</title>
<path fill="none" stroke="midnightblue" d="M139.925,-173.672C107.584,-168.971 66.9003,-157.889 40.5,-132 13.1038,-105.134 12.8139,-56.4795 15.0905,-29.7825"/>
<polygon fill="midnightblue" stroke="midnightblue" points="18.6052,-29.8307 16.1902,-19.5148 11.6451,-29.0851 18.6052,-29.8307"/>
</g>
<!-- Node8 -->
<g id="node9" class="node"><title>Node8</title>
<g id="a_node9"><a xlink:href="prep_8h" target="_top" xlink:title="prep.h">
<polygon fill="none" stroke="black" points="240,-112.5 240,-131.5 283,-131.5 283,-112.5 240,-112.5"/>
<text text-anchor="middle" x="261.5" y="-119.5" font-family="FreeSans" font-size="10.00">prep.h</text>
</a>
</g>
</g>
<!-- Node6&#45;&gt;Node8 -->
<g id="edge10" class="edge"><title>Node6&#45;&gt;Node8</title>
<path fill="none" stroke="midnightblue" d="M201.907,-168.324C212.609,-160.185 228.841,-147.839 241.663,-138.087"/>
<polygon fill="midnightblue" stroke="midnightblue" points="244.044,-140.673 249.885,-131.834 239.807,-135.102 244.044,-140.673"/>
</g>
<!-- Node9 -->
<g id="node10" class="node"><title>Node9</title>
<g id="a_node10"><a xlink:href="settings_8h" target="_top" xlink:title="settings.h">
<polygon fill="none" stroke="black" points="126,-0.5 126,-19.5 183,-19.5 183,-0.5 126,-0.5"/>
<text text-anchor="middle" x="154.5" y="-7.5" font-family="FreeSans" font-size="10.00">settings.h</text>
</a>
</g>
</g>
<!-- Node6&#45;&gt;Node9 -->
<g id="edge11" class="edge"><title>Node6&#45;&gt;Node9</title>
<path fill="none" stroke="midnightblue" d="M188.564,-168.075C182.898,-141.945 166.257,-65.2106 158.529,-29.577"/>
<polygon fill="midnightblue" stroke="midnightblue" points="161.898,-28.5991 156.358,-19.5681 155.057,-30.0828 161.898,-28.5991"/>
</g>
<!-- Node10 -->
<g id="node11" class="node"><title>Node10</title>
<g id="a_node11"><a xlink:href="manager_8h" target="_top" xlink:title="manager.h">
<polygon fill="none" stroke="red" points="45.5,-56.5 45.5,-75.5 107.5,-75.5 107.5,-56.5 45.5,-56.5"/>
<text text-anchor="middle" x="76.5" y="-63.5" font-family="FreeSans" font-size="10.00">manager.h</text>
</a>
</g>
</g>
<!-- Node6&#45;&gt;Node10 -->
<g id="edge12" class="edge"><title>Node6&#45;&gt;Node10</title>
<path fill="none" stroke="midnightblue" d="M139.843,-175.313C108.054,-171.305 69.2763,-160.379 48.5,-132 37.5603,-117.057 49.2074,-97.1792 60.6375,-83.3565"/>
<polygon fill="midnightblue" stroke="midnightblue" points="63.4823,-85.4249 67.5224,-75.6306 58.2563,-80.7677 63.4823,-85.4249"/>
</g>
<!-- Node16 -->
<g id="node12" class="node"><title>Node16</title>
<g id="a_node12"><a xlink:href="configmanager_8h" target="_top" xlink:title="configmanager.h">
<polygon fill="none" stroke="red" points="58,-112.5 58,-131.5 145,-131.5 145,-112.5 58,-112.5"/>
<text text-anchor="middle" x="101.5" y="-119.5" font-family="FreeSans" font-size="10.00">configmanager.h</text>
</a>
</g>
</g>
<!-- Node6&#45;&gt;Node16 -->
<g id="edge16" class="edge"><title>Node6&#45;&gt;Node16</title>
<path fill="none" stroke="midnightblue" d="M176.201,-168.324C162.317,-159.9 141.008,-146.971 124.696,-137.074"/>
<polygon fill="midnightblue" stroke="midnightblue" points="126.129,-133.85 115.764,-131.655 122.498,-139.834 126.129,-133.85"/>
</g>
<!-- Node10&#45;&gt;Node5 -->
<g id="edge14" class="edge"><title>Node10&#45;&gt;Node5</title>
<path fill="none" stroke="midnightblue" d="M104.863,-56.4435C137.293,-46.6602 190.236,-30.6884 223.945,-20.5194"/>
<polygon fill="midnightblue" stroke="midnightblue" points="225.182,-23.8022 233.745,-17.5631 223.16,-17.1005 225.182,-23.8022"/>
</g>
<!-- Node10&#45;&gt;Node7 -->
<g id="edge13" class="edge"><title>Node10&#45;&gt;Node7</title>
<path fill="none" stroke="midnightblue" d="M67.0206,-56.324C58.2989,-48.3414 45.1565,-36.3128 34.6022,-26.6529"/>
<polygon fill="midnightblue" stroke="midnightblue" points="36.8917,-24.0036 27.1519,-19.8339 32.1655,-29.1674 36.8917,-24.0036"/>
</g>
<!-- Node10&#45;&gt;Node9 -->
<g id="edge15" class="edge"><title>Node10&#45;&gt;Node9</title>
<path fill="none" stroke="midnightblue" d="M89.032,-56.324C101.086,-47.979 119.527,-35.2122 133.769,-25.3524"/>
<polygon fill="midnightblue" stroke="midnightblue" points="135.769,-28.2243 141.999,-19.6545 131.785,-22.469 135.769,-28.2243"/>
</g>
<!-- Node16&#45;&gt;Node7 -->
<g id="edge23" class="edge"><title>Node16&#45;&gt;Node7</title>
<path fill="none" stroke="midnightblue" d="M82.6019,-112.373C67.9824,-104.773 48.3019,-92.3641 36.5,-76 26.7214,-62.4414 21.944,-43.8923 19.6288,-30.0791"/>
<polygon fill="midnightblue" stroke="midnightblue" points="23.0447,-29.2294 18.2074,-19.8033 16.1107,-30.1886 23.0447,-29.2294"/>
</g>
<!-- Node16&#45;&gt;Node9 -->
<g id="edge17" class="edge"><title>Node16&#45;&gt;Node9</title>
<path fill="none" stroke="midnightblue" d="M105.659,-112.368C114.328,-94.376 134.48,-52.5503 146.007,-28.6267"/>
<polygon fill="midnightblue" stroke="midnightblue" points="149.173,-30.1195 150.36,-19.5914 142.867,-27.081 149.173,-30.1195"/>
</g>
<!-- Node16&#45;&gt;Node10 -->
<g id="edge22" class="edge"><title>Node16&#45;&gt;Node10</title>
<path fill="none" stroke="midnightblue" d="M97.3718,-112.083C93.9861,-104.77 89.084,-94.1814 84.8812,-85.1034"/>
<polygon fill="midnightblue" stroke="midnightblue" points="87.9289,-83.3553 80.5514,-75.7511 81.5766,-86.2962 87.9289,-83.3553"/>
</g>
<!-- Node16&#45;&gt;Node19 -->
<g id="edge18" class="edge"><title>Node16&#45;&gt;Node19</title>
<path fill="none" stroke="midnightblue" d="M121.624,-112.444C142.524,-103.557 175.435,-89.5632 199.216,-79.4514"/>
<polygon fill="midnightblue" stroke="midnightblue" points="200.638,-82.6504 208.471,-75.5164 197.898,-76.2085 200.638,-82.6504"/>
</g>
<!-- Node19&#45;&gt;Node2 -->
<g id="edge20" class="edge"><title>Node19&#45;&gt;Node2</title>
<path fill="none" stroke="midnightblue" d="M249.257,-56.4435C270.816,-47.5566 304.763,-33.5632 329.294,-23.4514"/>
<polygon fill="midnightblue" stroke="midnightblue" points="330.928,-26.5634 338.84,-19.5164 328.261,-20.0917 330.928,-26.5634"/>
</g>
<!-- Node19&#45;&gt;Node5 -->
<g id="edge19" class="edge"><title>Node19&#45;&gt;Node5</title>
<path fill="none" stroke="midnightblue" d="M232.959,-56.083C236.654,-48.6913 242.023,-37.9533 246.594,-28.8111"/>
<polygon fill="midnightblue" stroke="midnightblue" points="249.783,-30.2606 251.124,-19.7511 243.522,-27.1301 249.783,-30.2606"/>
</g>
<!-- Node19&#45;&gt;Node9 -->
<g id="edge21" class="edge"><title>Node19&#45;&gt;Node9</title>
<path fill="none" stroke="midnightblue" d="M216.611,-56.324C205.35,-48.1066 188.213,-35.6017 174.791,-25.8069"/>
<polygon fill="midnightblue" stroke="midnightblue" points="176.747,-22.9014 166.606,-19.8339 172.62,-28.5559 176.747,-22.9014"/>
</g>
</g>
</svg>
