<?xml version="1.0" encoding="UTF-8" standalone="no"?>
<!DOCTYPE svg PUBLIC "-//W3C//DTD SVG 1.1//EN"
 "http://www.w3.org/Graphics/SVG/1.1/DTD/svg11.dtd">
<!-- Generated by graphviz version 2.40.1 (20161225.0304)
 -->
<!-- Title: directcommands.h Pages: 1 -->
<svg width="166pt" height="84pt"
 viewBox="0.00 0.00 165.50 84.00" xmlns="http://www.w3.org/2000/svg" xmlns:xlink="http://www.w3.org/1999/xlink">
<g id="graph0" class="graph" transform="scale(1 1) rotate(0) translate(4 80)">
<title>directcommands.h</title>
<!-- Node0 -->
<g id="node1" class="node">
<title>Node0</title>
<polygon fill="#bfbfbf" stroke="#000000" points="27.5,-56.5 27.5,-75.5 122.5,-75.5 122.5,-56.5 27.5,-56.5"/>
<text text-anchor="middle" x="75" y="-63.5" font-family="FreeSans" font-size="10.00" fill="#000000">directcommands.h</text>
</g>
<!-- Node1 -->
<g id="node2" class="node">
<title>Node1</title>
<polygon fill="none" stroke="#bfbfbf" points="0,-.5 0,-19.5 62,-19.5 62,-.5 0,-.5"/>
<text text-anchor="middle" x="31" y="-7.5" font-family="FreeSans" font-size="10.00" fill="#000000">wx/string.h</text>
</g>
<!-- Node0&#45;&gt;Node1 -->
<g id="edge1" class="edge">
<title>Node0&#45;&gt;Node1</title>
<path fill="none" stroke="#191970" d="M67.3358,-56.2455C61.1527,-48.3761 52.2937,-37.101 44.8711,-27.6542"/>
<polygon fill="#191970" stroke="#191970" points="47.5068,-25.3435 38.5764,-19.6427 42.0025,-29.6683 47.5068,-25.3435"/>
</g>
<!-- Node2 -->
<g id="node3" class="node">
<title>Node2</title>
<polygon fill="none" stroke="#bfbfbf" points="80.5,-.5 80.5,-19.5 157.5,-19.5 157.5,-.5 80.5,-.5"/>
<text text-anchor="middle" x="119" y="-7.5" font-family="FreeSans" font-size="10.00" fill="#000000">wx/hashmap.h</text>
</g>
<!-- Node0&#45;&gt;Node2 -->
<g id="edge2" class="edge">
<title>Node0&#45;&gt;Node2</title>
<path fill="none" stroke="#191970" d="M82.6642,-56.2455C88.8473,-48.3761 97.7063,-37.101 105.1289,-27.6542"/>
<polygon fill="#191970" stroke="#191970" points="107.9975,-29.6683 111.4236,-19.6427 102.4932,-25.3435 107.9975,-29.6683"/>
</g>
</g>
</svg>
