<?xml version="1.0" encoding="UTF-8" standalone="no"?>
<!DOCTYPE svg PUBLIC "-//W3C//DTD SVG 1.1//EN"
 "http://www.w3.org/Graphics/SVG/1.1/DTD/svg11.dtd">
<!-- Generated by graphviz version 2.38.0 (20140413.2041)
 -->
<!-- Title: disassemblydlg.h Pages: 1 -->
<svg width="438pt" height="308pt"
 viewBox="0.00 0.00 437.71 308.00" xmlns="http://www.w3.org/2000/svg" xmlns:xlink="http://www.w3.org/1999/xlink">
<g id="graph0" class="graph" transform="scale(1 1) rotate(0) translate(4 304)">
<title>disassemblydlg.h</title>
<!-- Node0 -->
<g id="node1" class="node"><title>Node0</title>
<polygon fill="#bfbfbf" stroke="black" points="249.211,-280.5 249.211,-299.5 338.211,-299.5 338.211,-280.5 249.211,-280.5"/>
<text text-anchor="middle" x="293.711" y="-287.5" font-family="FreeSans" font-size="10.00">disassemblydlg.h</text>
</g>
<!-- Node1 -->
<g id="node2" class="node"><title>Node1</title>
<polygon fill="none" stroke="#bfbfbf" points="314.211,-0.5 314.211,-19.5 357.211,-19.5 357.211,-0.5 314.211,-0.5"/>
<text text-anchor="middle" x="335.711" y="-7.5" font-family="FreeSans" font-size="10.00">vector</text>
</g>
<!-- Node0&#45;&gt;Node1 -->
<g id="edge1" class="edge"><title>Node0&#45;&gt;Node1</title>
<path fill="none" stroke="midnightblue" d="M321.561,-280.478C361.35,-266.372 429.711,-234.117 429.711,-179 429.711,-179 429.711,-179 429.711,-121 429.711,-77.9325 387.551,-43.2143 359.701,-24.9784"/>
<polygon fill="midnightblue" stroke="midnightblue" points="361.561,-22.0132 351.233,-19.6471 357.831,-27.9369 361.561,-22.0132"/>
</g>
<!-- Node2 -->
<g id="node3" class="node"><title>Node2</title>
<polygon fill="none" stroke="#bfbfbf" points="218.711,-224.5 218.711,-243.5 280.711,-243.5 280.711,-224.5 218.711,-224.5"/>
<text text-anchor="middle" x="249.711" y="-231.5" font-family="FreeSans" font-size="10.00">wx/panel.h</text>
</g>
<!-- Node0&#45;&gt;Node2 -->
<g id="edge2" class="edge"><title>Node0&#45;&gt;Node2</title>
<path fill="none" stroke="midnightblue" d="M286.446,-280.083C280.166,-272.377 270.924,-261.033 263.28,-251.653"/>
<polygon fill="midnightblue" stroke="midnightblue" points="265.872,-249.293 256.842,-243.751 260.445,-253.714 265.872,-249.293"/>
</g>
<!-- Node3 -->
<g id="node4" class="node"><title>Node3</title>
<polygon fill="none" stroke="#bfbfbf" points="298.711,-224.5 298.711,-243.5 378.711,-243.5 378.711,-224.5 298.711,-224.5"/>
<text text-anchor="middle" x="338.711" y="-231.5" font-family="FreeSans" font-size="10.00">wx/checkbox.h</text>
</g>
<!-- Node0&#45;&gt;Node3 -->
<g id="edge3" class="edge"><title>Node0&#45;&gt;Node3</title>
<path fill="none" stroke="midnightblue" d="M301.142,-280.083C307.564,-272.377 317.017,-261.033 324.834,-251.653"/>
<polygon fill="midnightblue" stroke="midnightblue" points="327.706,-253.674 331.419,-243.751 322.328,-249.193 327.706,-253.674"/>
</g>
<!-- Node4 -->
<g id="node5" class="node"><title>Node4</title>
<g id="a_node5"><a xlink:href="cbdebugger__interfaces_8h" target="_top" xlink:title="cbdebugger_interfaces.h">
<polygon fill="none" stroke="black" points="33.7113,-224.5 33.7113,-243.5 155.711,-243.5 155.711,-224.5 33.7113,-224.5"/>
<text text-anchor="middle" x="94.7113" y="-231.5" font-family="FreeSans" font-size="10.00">cbdebugger_interfaces.h</text>
</a>
</g>
</g>
<!-- Node0&#45;&gt;Node4 -->
<g id="edge4" class="edge"><title>Node0&#45;&gt;Node4</title>
<path fill="none" stroke="midnightblue" d="M262.179,-280.444C228.119,-271.201 173.705,-256.436 136.196,-246.257"/>
<polygon fill="midnightblue" stroke="midnightblue" points="136.664,-242.758 126.096,-243.516 134.83,-249.513 136.664,-242.758"/>
</g>
<!-- Node5 -->
<g id="node6" class="node"><title>Node5</title>
<polygon fill="none" stroke="#bfbfbf" points="13.7113,-112.5 13.7113,-131.5 75.7113,-131.5 75.7113,-112.5 13.7113,-112.5"/>
<text text-anchor="middle" x="44.7113" y="-119.5" font-family="FreeSans" font-size="10.00">wx/string.h</text>
</g>
<!-- Node4&#45;&gt;Node5 -->
<g id="edge5" class="edge"><title>Node4&#45;&gt;Node5</title>
<path fill="none" stroke="midnightblue" d="M90.7879,-224.368C82.646,-206.456 63.7673,-164.923 52.8695,-140.948"/>
<polygon fill="midnightblue" stroke="midnightblue" points="55.9408,-139.247 48.6165,-131.591 49.5683,-142.143 55.9408,-139.247"/>
</g>
<!-- Node6 -->
<g id="node7" class="node"><title>Node6</title>
<g id="a_node7"><a xlink:href="settings_8h" target="_top" xlink:title="settings.h">
<polygon fill="none" stroke="black" points="100.211,-0.5 100.211,-19.5 157.211,-19.5 157.211,-0.5 100.211,-0.5"/>
<text text-anchor="middle" x="128.711" y="-7.5" font-family="FreeSans" font-size="10.00">settings.h</text>
</a>
</g>
</g>
<!-- Node4&#45;&gt;Node6 -->
<g id="edge6" class="edge"><title>Node4&#45;&gt;Node6</title>
<path fill="none" stroke="midnightblue" d="M79.519,-224.391C48.4677,-205.598 -17.5388,-158.82 4.71129,-112 24.4981,-70.3634 70.7771,-40.2509 100.862,-24.2279"/>
<polygon fill="midnightblue" stroke="midnightblue" points="102.715,-27.2106 110.007,-19.5239 99.513,-20.9858 102.715,-27.2106"/>
</g>
<!-- Node7 -->
<g id="node8" class="node"><title>Node7</title>
<g id="a_node8"><a xlink:href="debuggermanager_8h" target="_top" xlink:title="debuggermanager.h">
<polygon fill="none" stroke="black" points="127.211,-168.5 127.211,-187.5 228.211,-187.5 228.211,-168.5 127.211,-168.5"/>
<text text-anchor="middle" x="177.711" y="-175.5" font-family="FreeSans" font-size="10.00">debuggermanager.h</text>
</a>
</g>
</g>
<!-- Node4&#45;&gt;Node7 -->
<g id="edge7" class="edge"><title>Node4&#45;&gt;Node7</title>
<path fill="none" stroke="midnightblue" d="M108.047,-224.324C120.873,-215.979 140.496,-203.212 155.651,-193.352"/>
<polygon fill="midnightblue" stroke="midnightblue" points="157.936,-196.042 164.409,-187.655 154.118,-190.174 157.936,-196.042"/>
</g>
<!-- Node7&#45;&gt;Node1 -->
<g id="edge9" class="edge"><title>Node7&#45;&gt;Node1</title>
<path fill="none" stroke="midnightblue" d="M213.178,-168.434C235.704,-161.566 264.346,-150.039 284.711,-132 315.322,-104.887 328.075,-56.3635 332.966,-29.7447"/>
<polygon fill="midnightblue" stroke="midnightblue" points="336.432,-30.2412 334.611,-19.804 329.526,-29.0987 336.432,-30.2412"/>
</g>
<!-- Node7&#45;&gt;Node5 -->
<g id="edge10" class="edge"><title>Node7&#45;&gt;Node5</title>
<path fill="none" stroke="midnightblue" d="M156.637,-168.444C134.652,-159.517 99.977,-145.439 75.0472,-135.317"/>
<polygon fill="midnightblue" stroke="midnightblue" points="76.2691,-132.035 65.6869,-131.516 73.6357,-138.521 76.2691,-132.035"/>
</g>
<!-- Node7&#45;&gt;Node6 -->
<g id="edge12" class="edge"><title>Node7&#45;&gt;Node6</title>
<path fill="none" stroke="midnightblue" d="M172.692,-168.301C167.757,-159.426 160.314,-145.131 155.711,-132 143.357,-96.7548 135.346,-53.698 131.466,-29.6118"/>
<polygon fill="midnightblue" stroke="midnightblue" points="134.921,-29.0492 129.933,-19.702 128.003,-30.1196 134.921,-29.0492"/>
</g>
<!-- Node8 -->
<g id="node9" class="node"><title>Node8</title>
<polygon fill="none" stroke="#bfbfbf" points="200.211,-0.5 200.211,-19.5 235.211,-19.5 235.211,-0.5 200.211,-0.5"/>
<text text-anchor="middle" x="217.711" y="-7.5" font-family="FreeSans" font-size="10.00">map</text>
</g>
<!-- Node7&#45;&gt;Node8 -->
<g id="edge8" class="edge"><title>Node7&#45;&gt;Node8</title>
<path fill="none" stroke="midnightblue" d="M172.469,-168.167C165.715,-155.662 155.436,-132.081 160.711,-112 169.196,-79.7011 190.613,-46.8587 204.643,-27.7348"/>
<polygon fill="midnightblue" stroke="midnightblue" points="207.619,-29.6019 210.848,-19.5112 202.031,-25.3856 207.619,-29.6019"/>
</g>
<!-- Node9 -->
<g id="node10" class="node"><title>Node9</title>
<g id="a_node10"><a xlink:href="prep_8h" target="_top" xlink:title="prep.h">
<polygon fill="none" stroke="black" points="358.211,-112.5 358.211,-131.5 401.211,-131.5 401.211,-112.5 358.211,-112.5"/>
<text text-anchor="middle" x="379.711" y="-119.5" font-family="FreeSans" font-size="10.00">prep.h</text>
</a>
</g>
</g>
<!-- Node7&#45;&gt;Node9 -->
<g id="edge11" class="edge"><title>Node7&#45;&gt;Node9</title>
<path fill="none" stroke="midnightblue" d="M209.719,-168.444C247.648,-158.304 310.443,-141.517 348.168,-131.432"/>
<polygon fill="midnightblue" stroke="midnightblue" points="349.345,-134.741 358.102,-128.777 347.537,-127.978 349.345,-134.741"/>
</g>
<!-- Node10 -->
<g id="node11" class="node"><title>Node10</title>
<g id="a_node11"><a xlink:href="manager_8h" target="_top" xlink:title="manager.h">
<polygon fill="none" stroke="red" points="245.711,-56.5 245.711,-75.5 307.711,-75.5 307.711,-56.5 245.711,-56.5"/>
<text text-anchor="middle" x="276.711" y="-63.5" font-family="FreeSans" font-size="10.00">manager.h</text>
</a>
</g>
</g>
<!-- Node7&#45;&gt;Node10 -->
<g id="edge13" class="edge"><title>Node7&#45;&gt;Node10</title>
<path fill="none" stroke="midnightblue" d="M210.22,-168.409C229.337,-161.657 252.314,-150.264 265.711,-132 275.442,-118.734 277.713,-99.8712 277.834,-85.88"/>
<polygon fill="midnightblue" stroke="midnightblue" points="281.322,-85.4021 277.546,-75.5031 274.325,-85.5963 281.322,-85.4021"/>
</g>
<!-- Node16 -->
<g id="node12" class="node"><title>Node16</title>
<g id="a_node12"><a xlink:href="configmanager_8h" target="_top" xlink:title="configmanager.h">
<polygon fill="none" stroke="red" points="170.211,-112.5 170.211,-131.5 257.211,-131.5 257.211,-112.5 170.211,-112.5"/>
<text text-anchor="middle" x="213.711" y="-119.5" font-family="FreeSans" font-size="10.00">configmanager.h</text>
</a>
</g>
</g>
<!-- Node7&#45;&gt;Node16 -->
<g id="edge17" class="edge"><title>Node7&#45;&gt;Node16</title>
<path fill="none" stroke="midnightblue" d="M183.656,-168.083C188.689,-160.534 196.048,-149.495 202.225,-140.23"/>
<polygon fill="midnightblue" stroke="midnightblue" points="205.242,-142.013 207.877,-131.751 199.418,-138.13 205.242,-142.013"/>
</g>
<!-- Node10&#45;&gt;Node1 -->
<g id="edge15" class="edge"><title>Node10&#45;&gt;Node1</title>
<path fill="none" stroke="midnightblue" d="M286.191,-56.324C294.912,-48.3414 308.055,-36.3128 318.609,-26.6529"/>
<polygon fill="midnightblue" stroke="midnightblue" points="321.046,-29.1674 326.059,-19.8339 316.32,-24.0036 321.046,-29.1674"/>
</g>
<!-- Node10&#45;&gt;Node6 -->
<g id="edge16" class="edge"><title>Node10&#45;&gt;Node6</title>
<path fill="none" stroke="midnightblue" d="M253.26,-56.4435C228.579,-47.4381 189.526,-33.1891 161.735,-23.049"/>
<polygon fill="midnightblue" stroke="midnightblue" points="162.647,-19.6561 152.053,-19.5164 160.247,-26.2321 162.647,-19.6561"/>
</g>
<!-- Node10&#45;&gt;Node8 -->
<g id="edge14" class="edge"><title>Node10&#45;&gt;Node8</title>
<path fill="none" stroke="midnightblue" d="M267.232,-56.324C258.51,-48.3414 245.368,-36.3128 234.814,-26.6529"/>
<polygon fill="midnightblue" stroke="midnightblue" points="237.103,-24.0036 227.363,-19.8339 232.377,-29.1674 237.103,-24.0036"/>
</g>
<!-- Node16&#45;&gt;Node6 -->
<g id="edge18" class="edge"><title>Node16&#45;&gt;Node6</title>
<path fill="none" stroke="midnightblue" d="M207.041,-112.368C192.952,-94.135 159.949,-51.4257 141.597,-27.6752"/>
<polygon fill="midnightblue" stroke="midnightblue" points="144.234,-25.3642 135.35,-19.5914 138.695,-29.6444 144.234,-25.3642"/>
</g>
<!-- Node16&#45;&gt;Node8 -->
<g id="edge20" class="edge"><title>Node16&#45;&gt;Node8</title>
<path fill="none" stroke="midnightblue" d="M214.025,-112.368C214.671,-94.617 216.16,-53.6664 217.035,-29.5974"/>
<polygon fill="midnightblue" stroke="midnightblue" points="220.533,-29.712 217.399,-19.5914 213.538,-29.4576 220.533,-29.712"/>
</g>
<!-- Node16&#45;&gt;Node10 -->
<g id="edge19" class="edge"><title>Node16&#45;&gt;Node10</title>
<path fill="none" stroke="midnightblue" d="M223.833,-112.324C233.238,-104.263 247.455,-92.0765 258.78,-82.3695"/>
<polygon fill="midnightblue" stroke="midnightblue" points="261.09,-84.9993 266.405,-75.8339 256.535,-79.6844 261.09,-84.9993"/>
</g>
</g>
</svg>
