<?xml version="1.0" encoding="UTF-8" standalone="no"?>
<!DOCTYPE svg PUBLIC "-//W3C//DTD SVG 1.1//EN"
 "http://www.w3.org/Graphics/SVG/1.1/DTD/svg11.dtd">
<!-- Generated by graphviz version 2.38.0 (20140413.2041)
 -->
<!-- Title: dlgaboutplugin.cpp Pages: 1 -->
<svg width="2131pt" height="364pt"
 viewBox="0.00 0.00 2131.07 364.00" xmlns="http://www.w3.org/2000/svg" xmlns:xlink="http://www.w3.org/1999/xlink">
<g id="graph0" class="graph" transform="scale(1 1) rotate(0) translate(4 360)">
<title>dlgaboutplugin.cpp</title>
<!-- Node0 -->
<g id="node1" class="node"><title>Node0</title>
<polygon fill="#bfbfbf" stroke="black" points="582,-336.5 582,-355.5 679,-355.5 679,-336.5 582,-336.5"/>
<text text-anchor="middle" x="630.5" y="-343.5" font-family="FreeSans" font-size="10.00">dlgaboutplugin.cpp</text>
</g>
<!-- Node1 -->
<g id="node2" class="node"><title>Node1</title>
<g id="a_node2"><a xlink:href="sdk_8h" target="_top" xlink:title="sdk.h">
<polygon fill="none" stroke="black" points="774,-280.5 774,-299.5 813,-299.5 813,-280.5 774,-280.5"/>
<text text-anchor="middle" x="793.5" y="-287.5" font-family="FreeSans" font-size="10.00">sdk.h</text>
</a>
</g>
</g>
<!-- Node0&#45;&gt;Node1 -->
<g id="edge1" class="edge"><title>Node0&#45;&gt;Node1</title>
<path fill="none" stroke="midnightblue" d="M656.328,-336.444C685.685,-326.718 733.503,-310.876 764.221,-300.7"/>
<polygon fill="midnightblue" stroke="midnightblue" points="765.54,-303.95 773.932,-297.483 763.339,-297.305 765.54,-303.95"/>
</g>
<!-- Node87 -->
<g id="node28" class="node"><title>Node87</title>
<g id="a_node28"><a xlink:href="cbplugin_8h" target="_top" xlink:title="cbplugin.h">
<polygon fill="none" stroke="black" points="321.5,-168.5 321.5,-187.5 381.5,-187.5 381.5,-168.5 321.5,-168.5"/>
<text text-anchor="middle" x="351.5" y="-175.5" font-family="FreeSans" font-size="10.00">cbplugin.h</text>
</a>
</g>
</g>
<!-- Node0&#45;&gt;Node87 -->
<g id="edge55" class="edge"><title>Node0&#45;&gt;Node87</title>
<path fill="none" stroke="midnightblue" d="M615.893,-336.309C570.317,-309.192 430.461,-225.98 374.752,-192.834"/>
<polygon fill="midnightblue" stroke="midnightblue" points="376.346,-189.711 365.963,-187.605 372.767,-195.726 376.346,-189.711"/>
</g>
<!-- Node137 -->
<g id="node32" class="node"><title>Node137</title>
<g id="a_node32"><a xlink:href="dlgaboutplugin_8h" target="_top" xlink:title="dlgaboutplugin.h">
<polygon fill="none" stroke="black" points="587.5,-224.5 587.5,-243.5 673.5,-243.5 673.5,-224.5 587.5,-224.5"/>
<text text-anchor="middle" x="630.5" y="-231.5" font-family="FreeSans" font-size="10.00">dlgaboutplugin.h</text>
</a>
</g>
</g>
<!-- Node0&#45;&gt;Node137 -->
<g id="edge56" class="edge"><title>Node0&#45;&gt;Node137</title>
<path fill="none" stroke="midnightblue" d="M630.5,-336.368C630.5,-318.617 630.5,-277.666 630.5,-253.597"/>
<polygon fill="midnightblue" stroke="midnightblue" points="634,-253.591 630.5,-243.591 627,-253.591 634,-253.591"/>
</g>
<!-- Node2 -->
<g id="node3" class="node"><title>Node2</title>
<g id="a_node3"><a xlink:href="sdk__common_8h" target="_top" xlink:title="sdk_common.h">
<polygon fill="none" stroke="red" points="867.5,-224.5 867.5,-243.5 949.5,-243.5 949.5,-224.5 867.5,-224.5"/>
<text text-anchor="middle" x="908.5" y="-231.5" font-family="FreeSans" font-size="10.00">sdk_common.h</text>
</a>
</g>
</g>
<!-- Node1&#45;&gt;Node2 -->
<g id="edge2" class="edge"><title>Node1&#45;&gt;Node2</title>
<path fill="none" stroke="midnightblue" d="M811.722,-280.444C830.396,-271.675 859.656,-257.935 881.117,-247.858"/>
<polygon fill="midnightblue" stroke="midnightblue" points="882.799,-250.935 890.363,-243.516 879.824,-244.599 882.799,-250.935"/>
</g>
<!-- Node3 -->
<g id="node4" class="node"><title>Node3</title>
<polygon fill="none" stroke="#bfbfbf" points="2041.5,-168.5 2041.5,-187.5 2109.5,-187.5 2109.5,-168.5 2041.5,-168.5"/>
<text text-anchor="middle" x="2075.5" y="-175.5" font-family="FreeSans" font-size="10.00">wx/wxprec.h</text>
</g>
<!-- Node2&#45;&gt;Node3 -->
<g id="edge3" class="edge"><title>Node2&#45;&gt;Node3</title>
<path fill="none" stroke="midnightblue" d="M949.534,-232.272C1122.86,-229.059 1796.5,-215.139 2031.15,-187.912"/>
<polygon fill="midnightblue" stroke="midnightblue" points="2031.81,-191.358 2041.32,-186.689 2030.97,-184.408 2031.81,-191.358"/>
</g>
<!-- Node4 -->
<g id="node5" class="node"><title>Node4</title>
<g id="a_node5"><a xlink:href="prep_8h" target="_top" xlink:title="prep.h">
<polygon fill="none" stroke="black" points="316,-56.5 316,-75.5 359,-75.5 359,-56.5 316,-56.5"/>
<text text-anchor="middle" x="337.5" y="-63.5" font-family="FreeSans" font-size="10.00">prep.h</text>
</a>
</g>
</g>
<!-- Node2&#45;&gt;Node4 -->
<g id="edge4" class="edge"><title>Node2&#45;&gt;Node4</title>
<path fill="none" stroke="midnightblue" d="M867.321,-232.866C803.551,-231.459 677.895,-223.869 578.5,-188 518.41,-166.315 513.761,-140.322 456.5,-112 427.743,-97.7765 393.31,-85.2068 368.899,-76.9931"/>
<polygon fill="midnightblue" stroke="midnightblue" points="369.69,-73.5682 359.096,-73.7475 367.489,-80.2134 369.69,-73.5682"/>
</g>
<!-- Node5 -->
<g id="node6" class="node"><title>Node5</title>
<polygon fill="none" stroke="#bfbfbf" points="881.5,-168.5 881.5,-187.5 935.5,-187.5 935.5,-168.5 881.5,-168.5"/>
<text text-anchor="middle" x="908.5" y="-175.5" font-family="FreeSans" font-size="10.00">wx/app.h</text>
</g>
<!-- Node2&#45;&gt;Node5 -->
<g id="edge5" class="edge"><title>Node2&#45;&gt;Node5</title>
<path fill="none" stroke="midnightblue" d="M908.5,-224.083C908.5,-217.006 908.5,-206.861 908.5,-197.986"/>
<polygon fill="midnightblue" stroke="midnightblue" points="912,-197.751 908.5,-187.751 905,-197.751 912,-197.751"/>
</g>
<!-- Node6 -->
<g id="node7" class="node"><title>Node6</title>
<polygon fill="none" stroke="#bfbfbf" points="387.5,-112.5 387.5,-131.5 447.5,-131.5 447.5,-112.5 387.5,-112.5"/>
<text text-anchor="middle" x="417.5" y="-119.5" font-family="FreeSans" font-size="10.00">wx/arrstr.h</text>
</g>
<!-- Node2&#45;&gt;Node6 -->
<g id="edge6" class="edge"><title>Node2&#45;&gt;Node6</title>
<path fill="none" stroke="midnightblue" d="M867.196,-230.835C763.115,-225.099 495.909,-208.534 461.5,-188 443.625,-177.333 431.416,-156.254 424.476,-140.986"/>
<polygon fill="midnightblue" stroke="midnightblue" points="427.609,-139.406 420.508,-131.543 421.155,-142.118 427.609,-139.406"/>
</g>
<!-- Node7 -->
<g id="node8" class="node"><title>Node7</title>
<polygon fill="none" stroke="#bfbfbf" points="954,-168.5 954,-187.5 1033,-187.5 1033,-168.5 954,-168.5"/>
<text text-anchor="middle" x="993.5" y="-175.5" font-family="FreeSans" font-size="10.00">wx/bmpbuttn.h</text>
</g>
<!-- Node2&#45;&gt;Node7 -->
<g id="edge7" class="edge"><title>Node2&#45;&gt;Node7</title>
<path fill="none" stroke="midnightblue" d="M922.157,-224.324C935.416,-215.9 955.768,-202.971 971.346,-193.074"/>
<polygon fill="midnightblue" stroke="midnightblue" points="973.313,-195.971 979.877,-187.655 969.56,-190.063 973.313,-195.971"/>
</g>
<!-- Node8 -->
<g id="node9" class="node"><title>Node8</title>
<polygon fill="none" stroke="#bfbfbf" points="1051,-168.5 1051,-187.5 1116,-187.5 1116,-168.5 1051,-168.5"/>
<text text-anchor="middle" x="1083.5" y="-175.5" font-family="FreeSans" font-size="10.00">wx/button.h</text>
</g>
<!-- Node2&#45;&gt;Node8 -->
<g id="edge8" class="edge"><title>Node2&#45;&gt;Node8</title>
<path fill="none" stroke="midnightblue" d="M936.229,-224.444C965.926,-215.28 1013.22,-200.688 1046.17,-190.519"/>
<polygon fill="midnightblue" stroke="midnightblue" points="1047.38,-193.809 1055.9,-187.516 1045.31,-187.121 1047.38,-193.809"/>
</g>
<!-- Node9 -->
<g id="node10" class="node"><title>Node9</title>
<polygon fill="none" stroke="#bfbfbf" points="1134.5,-168.5 1134.5,-187.5 1214.5,-187.5 1214.5,-168.5 1134.5,-168.5"/>
<text text-anchor="middle" x="1174.5" y="-175.5" font-family="FreeSans" font-size="10.00">wx/checkbox.h</text>
</g>
<!-- Node2&#45;&gt;Node9 -->
<g id="edge9" class="edge"><title>Node2&#45;&gt;Node9</title>
<path fill="none" stroke="midnightblue" d="M949.771,-224.622C996.87,-215.06 1073.89,-199.424 1124.4,-189.171"/>
<polygon fill="midnightblue" stroke="midnightblue" points="1125.34,-192.552 1134.44,-187.133 1123.94,-185.692 1125.34,-192.552"/>
</g>
<!-- Node10 -->
<g id="node11" class="node"><title>Node10</title>
<polygon fill="none" stroke="#bfbfbf" points="1232.5,-168.5 1232.5,-187.5 1306.5,-187.5 1306.5,-168.5 1232.5,-168.5"/>
<text text-anchor="middle" x="1269.5" y="-175.5" font-family="FreeSans" font-size="10.00">wx/checklst.h</text>
</g>
<!-- Node2&#45;&gt;Node10 -->
<g id="edge10" class="edge"><title>Node2&#45;&gt;Node10</title>
<path fill="none" stroke="midnightblue" d="M949.631,-227.809C1007.99,-220.293 1118.41,-205.521 1222.34,-188.125"/>
<polygon fill="midnightblue" stroke="midnightblue" points="1223.09,-191.547 1232.37,-186.434 1221.93,-184.645 1223.09,-191.547"/>
</g>
<!-- Node11 -->
<g id="node12" class="node"><title>Node11</title>
<polygon fill="none" stroke="#bfbfbf" points="1325,-168.5 1325,-187.5 1392,-187.5 1392,-168.5 1325,-168.5"/>
<text text-anchor="middle" x="1358.5" y="-175.5" font-family="FreeSans" font-size="10.00">wx/choice.h</text>
</g>
<!-- Node2&#45;&gt;Node11 -->
<g id="edge11" class="edge"><title>Node2&#45;&gt;Node11</title>
<path fill="none" stroke="midnightblue" d="M949.692,-229.765C1021.64,-223.828 1175.06,-209.899 1314.72,-187.975"/>
<polygon fill="midnightblue" stroke="midnightblue" points="1315.43,-191.407 1324.76,-186.383 1314.33,-184.494 1315.43,-191.407"/>
</g>
<!-- Node12 -->
<g id="node13" class="node"><title>Node12</title>
<polygon fill="none" stroke="#bfbfbf" points="1410.5,-168.5 1410.5,-187.5 1484.5,-187.5 1484.5,-168.5 1410.5,-168.5"/>
<text text-anchor="middle" x="1447.5" y="-175.5" font-family="FreeSans" font-size="10.00">wx/choicdlg.h</text>
</g>
<!-- Node2&#45;&gt;Node12 -->
<g id="edge12" class="edge"><title>Node2&#45;&gt;Node12</title>
<path fill="none" stroke="midnightblue" d="M949.569,-230.675C1032.73,-225.66 1227.15,-212.379 1400.34,-188.027"/>
<polygon fill="midnightblue" stroke="midnightblue" points="1400.99,-191.47 1410.4,-186.597 1400.01,-184.54 1400.99,-191.47"/>
</g>
<!-- Node13 -->
<g id="node14" class="node"><title>Node13</title>
<polygon fill="none" stroke="#bfbfbf" points="1502.5,-168.5 1502.5,-187.5 1574.5,-187.5 1574.5,-168.5 1502.5,-168.5"/>
<text text-anchor="middle" x="1538.5" y="-175.5" font-family="FreeSans" font-size="10.00">wx/colordlg.h</text>
</g>
<!-- Node2&#45;&gt;Node13 -->
<g id="edge13" class="edge"><title>Node2&#45;&gt;Node13</title>
<path fill="none" stroke="midnightblue" d="M949.819,-231.536C1044.22,-227.822 1283.06,-216.346 1492.27,-188.01"/>
<polygon fill="midnightblue" stroke="midnightblue" points="1492.78,-191.473 1502.21,-186.648 1491.83,-184.538 1492.78,-191.473"/>
</g>
<!-- Node14 -->
<g id="node15" class="node"><title>Node14</title>
<polygon fill="none" stroke="#bfbfbf" points="1593,-168.5 1593,-187.5 1676,-187.5 1676,-168.5 1593,-168.5"/>
<text text-anchor="middle" x="1634.5" y="-175.5" font-family="FreeSans" font-size="10.00">wx/combobox.h</text>
</g>
<!-- Node2&#45;&gt;Node14 -->
<g id="edge14" class="edge"><title>Node2&#45;&gt;Node14</title>
<path fill="none" stroke="midnightblue" d="M949.736,-231.803C1053.98,-228.446 1336.61,-217.282 1582.6,-187.966"/>
<polygon fill="midnightblue" stroke="midnightblue" points="1583.3,-191.407 1592.81,-186.736 1582.46,-184.457 1583.3,-191.407"/>
</g>
<!-- Node15 -->
<g id="node16" class="node"><title>Node15</title>
<polygon fill="none" stroke="#bfbfbf" points="1694,-168.5 1694,-187.5 1771,-187.5 1771,-168.5 1694,-168.5"/>
<text text-anchor="middle" x="1732.5" y="-175.5" font-family="FreeSans" font-size="10.00">wx/confbase.h</text>
</g>
<!-- Node2&#45;&gt;Node15 -->
<g id="edge15" class="edge"><title>Node2&#45;&gt;Node15</title>
<path fill="none" stroke="midnightblue" d="M949.53,-232.519C1064.16,-230.771 1397.64,-222.94 1683.68,-188.073"/>
<polygon fill="midnightblue" stroke="midnightblue" points="1684.34,-191.518 1693.84,-186.821 1683.48,-184.571 1684.34,-191.518"/>
</g>
<!-- Node16 -->
<g id="node17" class="node"><title>Node16</title>
<polygon fill="none" stroke="#bfbfbf" points="1789.5,-168.5 1789.5,-187.5 1865.5,-187.5 1865.5,-168.5 1789.5,-168.5"/>
<text text-anchor="middle" x="1827.5" y="-175.5" font-family="FreeSans" font-size="10.00">wx/datetime.h</text>
</g>
<!-- Node2&#45;&gt;Node16 -->
<g id="edge16" class="edge"><title>Node2&#45;&gt;Node16</title>
<path fill="none" stroke="midnightblue" d="M949.533,-232.884C1073.37,-232.109 1454.29,-226.616 1779.27,-187.972"/>
<polygon fill="midnightblue" stroke="midnightblue" points="1779.84,-191.429 1789.35,-186.761 1779,-184.479 1779.84,-191.429"/>
</g>
<!-- Node17 -->
<g id="node18" class="node"><title>Node17</title>
<polygon fill="none" stroke="#bfbfbf" points="1883.5,-168.5 1883.5,-187.5 1955.5,-187.5 1955.5,-168.5 1883.5,-168.5"/>
<text text-anchor="middle" x="1919.5" y="-175.5" font-family="FreeSans" font-size="10.00">wx/dcclient.h</text>
</g>
<!-- Node2&#45;&gt;Node17 -->
<g id="edge17" class="edge"><title>Node2&#45;&gt;Node17</title>
<path fill="none" stroke="midnightblue" d="M949.644,-233.295C1082.23,-233.78 1510.26,-231.703 1873.05,-187.982"/>
<polygon fill="midnightblue" stroke="midnightblue" points="1873.72,-191.426 1883.23,-186.743 1872.88,-184.478 1873.72,-191.426"/>
</g>
<!-- Node18 -->
<g id="node19" class="node"><title>Node18</title>
<polygon fill="none" stroke="#bfbfbf" points="685.5,-112.5 685.5,-131.5 749.5,-131.5 749.5,-112.5 685.5,-112.5"/>
<text text-anchor="middle" x="717.5" y="-119.5" font-family="FreeSans" font-size="10.00">wx/dialog.h</text>
</g>
<!-- Node2&#45;&gt;Node18 -->
<g id="edge18" class="edge"><title>Node2&#45;&gt;Node18</title>
<path fill="none" stroke="midnightblue" d="M867.482,-227.56C836.547,-221.828 794.322,-210.375 763.5,-188 746.593,-175.726 733.617,-155.292 725.822,-140.609"/>
<polygon fill="midnightblue" stroke="midnightblue" points="728.882,-138.902 721.27,-131.534 722.625,-142.041 728.882,-138.902"/>
</g>
<!-- Node19 -->
<g id="node20" class="node"><title>Node19</title>
<polygon fill="none" stroke="#bfbfbf" points="1974,-168.5 1974,-187.5 2023,-187.5 2023,-168.5 1974,-168.5"/>
<text text-anchor="middle" x="1998.5" y="-175.5" font-family="FreeSans" font-size="10.00">wx/dir.h</text>
</g>
<!-- Node2&#45;&gt;Node19 -->
<g id="edge19" class="edge"><title>Node2&#45;&gt;Node19</title>
<path fill="none" stroke="midnightblue" d="M949.633,-232.435C1116.42,-229.963 1743.44,-218.878 1963.58,-187.713"/>
<polygon fill="midnightblue" stroke="midnightblue" points="1964.37,-191.135 1973.75,-186.214 1963.34,-184.21 1964.37,-191.135"/>
</g>
<!-- Node20 -->
<g id="node21" class="node"><title>Node20</title>
<polygon fill="none" stroke="#bfbfbf" points="718.5,-56.5 718.5,-75.5 792.5,-75.5 792.5,-56.5 718.5,-56.5"/>
<text text-anchor="middle" x="755.5" y="-63.5" font-family="FreeSans" font-size="10.00">wx/dynarray.h</text>
</g>
<!-- Node2&#45;&gt;Node20 -->
<g id="edge20" class="edge"><title>Node2&#45;&gt;Node20</title>
<path fill="none" stroke="midnightblue" d="M891.144,-224.42C876.223,-216.444 854.759,-203.483 839.5,-188 811.457,-159.545 814.681,-144.537 791.5,-112 784.606,-102.324 776.362,-91.9417 769.503,-83.5908"/>
<polygon fill="midnightblue" stroke="midnightblue" points="772.057,-81.1884 762.972,-75.7381 766.676,-85.6646 772.057,-81.1884"/>
</g>
<!-- Node21 -->
<g id="node22" class="node"><title>Node21</title>
<polygon fill="none" stroke="#bfbfbf" points="626.5,-0.5 626.5,-19.5 688.5,-19.5 688.5,-0.5 626.5,-0.5"/>
<text text-anchor="middle" x="657.5" y="-7.5" font-family="FreeSans" font-size="10.00">wx/event.h</text>
</g>
<!-- Node2&#45;&gt;Node21 -->
<g id="edge21" class="edge"><title>Node2&#45;&gt;Node21</title>
<path fill="none" stroke="midnightblue" d="M949.629,-233.052C1156.72,-233.116 2077.09,-230.978 2118.5,-188 2124.67,-181.599 2124.44,-174.613 2118.5,-168 2020.8,-59.2391 926.586,-19.3704 698.863,-12.2229"/>
<polygon fill="midnightblue" stroke="midnightblue" points="698.785,-8.71893 688.681,-11.9072 698.568,-15.7156 698.785,-8.71893"/>
</g>
<!-- Node31 -->
<g id="node23" class="node"><title>Node31</title>
<polygon fill="none" stroke="#bfbfbf" points="0,-0.5 0,-19.5 51,-19.5 51,-0.5 0,-0.5"/>
<text text-anchor="middle" x="25.5" y="-7.5" font-family="FreeSans" font-size="10.00">wx/intl.h</text>
</g>
<!-- Node2&#45;&gt;Node31 -->
<g id="edge22" class="edge"><title>Node2&#45;&gt;Node31</title>
<path fill="none" stroke="midnightblue" d="M867.304,-231.244C716.921,-224.736 204.642,-201.661 172.5,-188 106.25,-159.843 96.6731,-135.047 55.5,-76 45.2911,-61.3591 37.0953,-42.6896 31.8667,-29.1187"/>
<polygon fill="midnightblue" stroke="midnightblue" points="35.0662,-27.6784 28.3278,-19.5026 28.4969,-30.0961 35.0662,-27.6784"/>
</g>
<!-- Node53 -->
<g id="node24" class="node"><title>Node53</title>
<polygon fill="none" stroke="#bfbfbf" points="97.5,-0.5 97.5,-19.5 159.5,-19.5 159.5,-0.5 97.5,-0.5"/>
<text text-anchor="middle" x="128.5" y="-7.5" font-family="FreeSans" font-size="10.00">wx/string.h</text>
</g>
<!-- Node2&#45;&gt;Node53 -->
<g id="edge23" class="edge"><title>Node2&#45;&gt;Node53</title>
<path fill="none" stroke="midnightblue" d="M867.28,-230.942C723.332,-223.674 250.06,-199.052 219.5,-188 155.048,-164.692 129.719,-142.59 113.5,-76 109.651,-60.1957 114.54,-42.1676 119.738,-29.1131"/>
<polygon fill="midnightblue" stroke="midnightblue" points="122.991,-30.4104 123.812,-19.8474 116.583,-27.5929 122.991,-30.4104"/>
</g>
<!-- Node71 -->
<g id="node25" class="node"><title>Node71</title>
<g id="a_node25"><a xlink:href="settings_8h" target="_top" xlink:title="settings.h">
<polygon fill="none" stroke="black" points="473,-0.5 473,-19.5 530,-19.5 530,-0.5 473,-0.5"/>
<text text-anchor="middle" x="501.5" y="-7.5" font-family="FreeSans" font-size="10.00">settings.h</text>
</a>
</g>
</g>
<!-- Node2&#45;&gt;Node71 -->
<g id="edge24" class="edge"><title>Node2&#45;&gt;Node71</title>
<path fill="none" stroke="midnightblue" d="M900.834,-224.395C893.183,-215.593 881.328,-201.354 872.5,-188 835.765,-132.43 855.982,-94.3304 801.5,-56 780.442,-41.1848 616.503,-22.7458 540.258,-14.864"/>
<polygon fill="midnightblue" stroke="midnightblue" points="540.41,-11.3613 530.105,-13.8234 539.696,-18.3248 540.41,-11.3613"/>
</g>
<!-- Node72 -->
<g id="node26" class="node"><title>Node72</title>
<g id="a_node26"><a xlink:href="globals_8h" target="_top" xlink:title="globals.h">
<polygon fill="none" stroke="red" points="129.5,-56.5 129.5,-75.5 183.5,-75.5 183.5,-56.5 129.5,-56.5"/>
<text text-anchor="middle" x="156.5" y="-63.5" font-family="FreeSans" font-size="10.00">globals.h</text>
</a>
</g>
</g>
<!-- Node2&#45;&gt;Node72 -->
<g id="edge25" class="edge"><title>Node2&#45;&gt;Node72</title>
<path fill="none" stroke="midnightblue" d="M867.498,-230.969C738.153,-224.431 343.991,-203.458 288.5,-188 235.652,-173.279 214.389,-173.491 178.5,-132 167.184,-118.918 161.627,-99.7676 158.937,-85.6398"/>
<polygon fill="midnightblue" stroke="midnightblue" points="162.367,-84.9238 157.339,-75.5983 155.454,-86.0242 162.367,-84.9238"/>
</g>
<!-- Node77 -->
<g id="node27" class="node"><title>Node77</title>
<g id="a_node27"><a xlink:href="logger_8h" target="_top" xlink:title="logger.h">
<polygon fill="none" stroke="black" points="243.5,-112.5 243.5,-131.5 293.5,-131.5 293.5,-112.5 243.5,-112.5"/>
<text text-anchor="middle" x="268.5" y="-119.5" font-family="FreeSans" font-size="10.00">logger.h</text>
</a>
</g>
</g>
<!-- Node2&#45;&gt;Node77 -->
<g id="edge29" class="edge"><title>Node2&#45;&gt;Node77</title>
<path fill="none" stroke="midnightblue" d="M867.117,-230.864C735.924,-223.963 336.484,-201.909 312.5,-188 294.494,-177.557 282.31,-156.435 275.412,-141.095"/>
<polygon fill="midnightblue" stroke="midnightblue" points="278.538,-139.497 271.473,-131.602 272.072,-142.18 278.538,-139.497"/>
</g>
<!-- Node2&#45;&gt;Node87 -->
<g id="edge33" class="edge"><title>Node2&#45;&gt;Node87</title>
<path fill="none" stroke="midnightblue" d="M867.353,-230.008C782.395,-223.665 581.468,-207.812 413.5,-188 406.533,-187.178 399.141,-186.199 391.98,-185.194"/>
<polygon fill="midnightblue" stroke="midnightblue" points="392.127,-181.68 381.731,-183.719 391.13,-188.608 392.127,-181.68"/>
</g>
<!-- Node88 -->
<g id="node29" class="node"><title>Node88</title>
<g id="a_node29"><a xlink:href="manager_8h" target="_top" xlink:title="manager.h">
<polygon fill="none" stroke="red" points="567.5,-56.5 567.5,-75.5 629.5,-75.5 629.5,-56.5 567.5,-56.5"/>
<text text-anchor="middle" x="598.5" y="-63.5" font-family="FreeSans" font-size="10.00">manager.h</text>
</a>
</g>
</g>
<!-- Node2&#45;&gt;Node88 -->
<g id="edge53" class="edge"><title>Node2&#45;&gt;Node88</title>
<path fill="none" stroke="midnightblue" d="M884.972,-224.347C866.041,-216.657 839.404,-204.139 819.5,-188 785.857,-160.722 794.626,-135.892 758.5,-112 722.511,-88.1985 673.976,-76.8491 639.83,-71.5257"/>
<polygon fill="midnightblue" stroke="midnightblue" points="640.124,-68.0318 629.725,-70.06 639.119,-74.9593 640.124,-68.0318"/>
</g>
<!-- Node92 -->
<g id="node30" class="node"><title>Node92</title>
<g id="a_node30"><a xlink:href="pluginmanager_8h" target="_top" xlink:title="pluginmanager.h">
<polygon fill="none" stroke="red" points="542,-112.5 542,-131.5 629,-131.5 629,-112.5 542,-112.5"/>
<text text-anchor="middle" x="585.5" y="-119.5" font-family="FreeSans" font-size="10.00">pluginmanager.h</text>
</a>
</g>
</g>
<!-- Node2&#45;&gt;Node92 -->
<g id="edge54" class="edge"><title>Node2&#45;&gt;Node92</title>
<path fill="none" stroke="midnightblue" d="M870.697,-224.425C836.358,-216.271 784.5,-203.041 740.5,-188 694.906,-172.414 643.64,-149.89 612.99,-135.864"/>
<polygon fill="midnightblue" stroke="midnightblue" points="614.344,-132.634 603.797,-131.628 611.415,-138.992 614.344,-132.634"/>
</g>
<!-- Node107 -->
<g id="node31" class="node"><title>Node107</title>
<g id="a_node31"><a xlink:href="scrollingdialog_8h" target="_top" xlink:title="scrollingdialog.h">
<polygon fill="none" stroke="red" points="588,-168.5 588,-187.5 673,-187.5 673,-168.5 588,-168.5"/>
<text text-anchor="middle" x="630.5" y="-175.5" font-family="FreeSans" font-size="10.00">scrollingdialog.h</text>
</a>
</g>
</g>
<!-- Node2&#45;&gt;Node107 -->
<g id="edge50" class="edge"><title>Node2&#45;&gt;Node107</title>
<path fill="none" stroke="midnightblue" d="M867.48,-225.032C818.528,-215.523 736.588,-199.607 683.041,-189.206"/>
<polygon fill="midnightblue" stroke="midnightblue" points="683.542,-185.738 673.058,-187.267 682.207,-192.609 683.542,-185.738"/>
</g>
<!-- Node72&#45;&gt;Node31 -->
<g id="edge27" class="edge"><title>Node72&#45;&gt;Node31</title>
<path fill="none" stroke="midnightblue" d="M135.743,-56.4435C114.184,-47.5566 80.2367,-33.5632 55.7062,-23.4514"/>
<polygon fill="midnightblue" stroke="midnightblue" points="56.7394,-20.0917 46.1602,-19.5164 54.0717,-26.5634 56.7394,-20.0917"/>
</g>
<!-- Node72&#45;&gt;Node53 -->
<g id="edge26" class="edge"><title>Node72&#45;&gt;Node53</title>
<path fill="none" stroke="midnightblue" d="M151.876,-56.083C148.044,-48.6913 142.476,-37.9533 137.735,-28.8111"/>
<polygon fill="midnightblue" stroke="midnightblue" points="140.748,-27.0175 133.038,-19.7511 134.534,-30.2398 140.748,-27.0175"/>
</g>
<!-- Node72&#45;&gt;Node71 -->
<g id="edge28" class="edge"><title>Node72&#45;&gt;Node71</title>
<path fill="none" stroke="midnightblue" d="M183.572,-60.7627C244.311,-51.2557 391.648,-28.1942 462.361,-17.1261"/>
<polygon fill="midnightblue" stroke="midnightblue" points="463.285,-20.5242 472.623,-15.5198 462.203,-13.6084 463.285,-20.5242"/>
</g>
<!-- Node77&#45;&gt;Node4 -->
<g id="edge30" class="edge"><title>Node77&#45;&gt;Node4</title>
<path fill="none" stroke="midnightblue" d="M279.586,-112.324C289.986,-104.185 305.761,-91.8395 318.222,-82.0874"/>
<polygon fill="midnightblue" stroke="midnightblue" points="320.494,-84.7533 326.212,-75.8339 316.18,-79.2407 320.494,-84.7533"/>
</g>
<!-- Node77&#45;&gt;Node53 -->
<g id="edge31" class="edge"><title>Node77&#45;&gt;Node53</title>
<path fill="none" stroke="midnightblue" d="M258.909,-112.283C244.73,-99.5144 217.185,-75.1653 192.5,-56 178.687,-45.2754 162.58,-33.956 149.98,-25.3528"/>
<polygon fill="midnightblue" stroke="midnightblue" points="151.751,-22.325 141.508,-19.6157 147.826,-28.121 151.751,-22.325"/>
</g>
<!-- Node77&#45;&gt;Node71 -->
<g id="edge32" class="edge"><title>Node77&#45;&gt;Node71</title>
<path fill="none" stroke="midnightblue" d="M271.077,-112.31C275.73,-98.1924 286.916,-70.408 306.5,-56 352.681,-22.0246 420.349,-13.1523 462.614,-11.1373"/>
<polygon fill="midnightblue" stroke="midnightblue" points="462.92,-14.6285 472.784,-10.7617 462.662,-7.63326 462.92,-14.6285"/>
</g>
<!-- Node87&#45;&gt;Node4 -->
<g id="edge49" class="edge"><title>Node87&#45;&gt;Node4</title>
<path fill="none" stroke="midnightblue" d="M350.324,-168.377C349.095,-159.321 347.124,-144.665 345.5,-132 343.51,-116.474 341.346,-98.8486 339.772,-85.8721"/>
<polygon fill="midnightblue" stroke="midnightblue" points="343.233,-85.3427 338.559,-75.8349 336.284,-86.1826 343.233,-85.3427"/>
</g>
<!-- Node87&#45;&gt;Node6 -->
<g id="edge34" class="edge"><title>Node87&#45;&gt;Node6</title>
<path fill="none" stroke="midnightblue" d="M362.104,-168.324C371.956,-160.263 386.851,-148.077 398.715,-138.369"/>
<polygon fill="midnightblue" stroke="midnightblue" points="401.18,-140.875 406.703,-131.834 396.747,-135.457 401.18,-140.875"/>
</g>
<!-- Node87&#45;&gt;Node21 -->
<g id="edge35" class="edge"><title>Node87&#45;&gt;Node21</title>
<path fill="none" stroke="midnightblue" d="M381.943,-176.552C448.102,-174.917 601.91,-167.315 637.5,-132 664.621,-105.088 663.548,-56.452 660.48,-29.7702"/>
<polygon fill="midnightblue" stroke="midnightblue" points="663.899,-28.9402 659.072,-19.5087 656.964,-29.8917 663.899,-28.9402"/>
</g>
<!-- Node87&#45;&gt;Node31 -->
<g id="edge36" class="edge"><title>Node87&#45;&gt;Node31</title>
<path fill="none" stroke="midnightblue" d="M321.2,-175.949C278.735,-173.309 200.252,-164.087 142.5,-132 95.4301,-105.848 55.5016,-54.6504 36.8221,-28.0144"/>
<polygon fill="midnightblue" stroke="midnightblue" points="39.6639,-25.9696 31.1243,-19.6985 33.8893,-29.9262 39.6639,-25.9696"/>
</g>
<!-- Node87&#45;&gt;Node53 -->
<g id="edge37" class="edge"><title>Node87&#45;&gt;Node53</title>
<path fill="none" stroke="midnightblue" d="M321.307,-173.873C285.345,-169.117 224.379,-157.733 178.5,-132 147.248,-114.471 134.502,-108.983 120.5,-76 114.19,-61.1353 117.344,-42.7568 121.403,-29.3391"/>
<polygon fill="midnightblue" stroke="midnightblue" points="124.74,-30.3986 124.689,-19.8039 118.122,-28.1179 124.74,-30.3986"/>
</g>
<!-- Node87&#45;&gt;Node71 -->
<g id="edge38" class="edge"><title>Node87&#45;&gt;Node71</title>
<path fill="none" stroke="midnightblue" d="M321.375,-173.317C281.966,-166.93 219.568,-150.572 234.5,-112 268.227,-24.8772 397.055,-11.2968 462.641,-10.1919"/>
<polygon fill="midnightblue" stroke="midnightblue" points="463.007,-13.6893 472.98,-10.1128 462.953,-6.6895 463.007,-13.6893"/>
</g>
<!-- Node87&#45;&gt;Node72 -->
<g id="edge39" class="edge"><title>Node87&#45;&gt;Node72</title>
<path fill="none" stroke="midnightblue" d="M321.283,-173.897C288.987,-169.306 237.572,-158.21 201.5,-132 184.72,-119.807 172.069,-99.3582 164.52,-84.6497"/>
<polygon fill="midnightblue" stroke="midnightblue" points="167.627,-83.0339 160.121,-75.5561 161.325,-86.0822 167.627,-83.0339"/>
</g>
<!-- Node87&#45;&gt;Node77 -->
<g id="edge40" class="edge"><title>Node87&#45;&gt;Node77</title>
<path fill="none" stroke="midnightblue" d="M338.165,-168.324C325.338,-159.979 305.715,-147.212 290.56,-137.352"/>
<polygon fill="midnightblue" stroke="midnightblue" points="292.093,-134.174 281.802,-131.655 288.276,-140.042 292.093,-134.174"/>
</g>
<!-- Node87&#45;&gt;Node88 -->
<g id="edge41" class="edge"><title>Node87&#45;&gt;Node88</title>
<path fill="none" stroke="midnightblue" d="M352.519,-168.321C354.656,-154.219 360.963,-126.457 378.5,-112 405.276,-89.9261 501.204,-76.7912 557.156,-70.8376"/>
<polygon fill="midnightblue" stroke="midnightblue" points="557.859,-74.2837 567.447,-69.7755 557.14,-67.3207 557.859,-74.2837"/>
</g>
<!-- Node87&#45;&gt;Node92 -->
<g id="edge44" class="edge"><title>Node87&#45;&gt;Node92</title>
<path fill="none" stroke="midnightblue" d="M381.612,-170.051C421.402,-160.869 491.906,-144.599 538.678,-133.805"/>
<polygon fill="midnightblue" stroke="midnightblue" points="539.612,-137.182 548.569,-131.522 538.038,-130.361 539.612,-137.182"/>
</g>
<!-- Node88&#45;&gt;Node21 -->
<g id="edge42" class="edge"><title>Node88&#45;&gt;Node21</title>
<path fill="none" stroke="midnightblue" d="M607.979,-56.324C616.701,-48.3414 629.843,-36.3128 640.398,-26.6529"/>
<polygon fill="midnightblue" stroke="midnightblue" points="642.834,-29.1674 647.848,-19.8339 638.108,-24.0036 642.834,-29.1674"/>
</g>
<!-- Node88&#45;&gt;Node71 -->
<g id="edge43" class="edge"><title>Node88&#45;&gt;Node71</title>
<path fill="none" stroke="midnightblue" d="M582.915,-56.324C567.501,-47.7428 543.688,-34.486 525.79,-24.5224"/>
<polygon fill="midnightblue" stroke="midnightblue" points="527.486,-21.4606 517.046,-19.6545 524.081,-27.5767 527.486,-21.4606"/>
</g>
<!-- Node92&#45;&gt;Node20 -->
<g id="edge45" class="edge"><title>Node92&#45;&gt;Node20</title>
<path fill="none" stroke="midnightblue" d="M612.437,-112.444C641.16,-103.32 686.829,-88.8133 718.821,-78.6509"/>
<polygon fill="midnightblue" stroke="midnightblue" points="720.218,-81.8797 728.689,-75.5164 718.099,-75.2081 720.218,-81.8797"/>
</g>
<!-- Node92&#45;&gt;Node71 -->
<g id="edge47" class="edge"><title>Node92&#45;&gt;Node71</title>
<path fill="none" stroke="midnightblue" d="M578.909,-112.368C564.985,-94.135 532.371,-51.4257 514.234,-27.6752"/>
<polygon fill="midnightblue" stroke="midnightblue" points="516.912,-25.4149 508.061,-19.5914 511.348,-29.6633 516.912,-25.4149"/>
</g>
<!-- Node92&#45;&gt;Node72 -->
<g id="edge46" class="edge"><title>Node92&#45;&gt;Node72</title>
<path fill="none" stroke="midnightblue" d="M541.606,-115.475C456.995,-104.825 272.718,-81.6289 193.697,-71.6822"/>
<polygon fill="midnightblue" stroke="midnightblue" points="194.067,-68.2012 183.709,-70.4248 193.193,-75.1464 194.067,-68.2012"/>
</g>
<!-- Node92&#45;&gt;Node88 -->
<g id="edge48" class="edge"><title>Node92&#45;&gt;Node88</title>
<path fill="none" stroke="midnightblue" d="M587.647,-112.083C589.369,-104.927 591.847,-94.6353 594,-85.6911"/>
<polygon fill="midnightblue" stroke="midnightblue" points="597.455,-86.2925 596.393,-75.7511 590.65,-84.6541 597.455,-86.2925"/>
</g>
<!-- Node107&#45;&gt;Node18 -->
<g id="edge51" class="edge"><title>Node107&#45;&gt;Node18</title>
<path fill="none" stroke="midnightblue" d="M644.478,-168.324C658.05,-159.9 678.88,-146.971 694.825,-137.074"/>
<polygon fill="midnightblue" stroke="midnightblue" points="696.906,-139.902 703.557,-131.655 693.214,-133.954 696.906,-139.902"/>
</g>
<!-- Node107&#45;&gt;Node71 -->
<g id="edge52" class="edge"><title>Node107&#45;&gt;Node71</title>
<path fill="none" stroke="midnightblue" d="M593.501,-168.453C572.74,-161.822 547.977,-150.541 532.5,-132 507.916,-102.549 502.506,-56.0199 501.509,-30.0797"/>
<polygon fill="midnightblue" stroke="midnightblue" points="505.002,-29.6757 501.309,-19.7454 498.003,-29.8114 505.002,-29.6757"/>
</g>
<!-- Node137&#45;&gt;Node107 -->
<g id="edge57" class="edge"><title>Node137&#45;&gt;Node107</title>
<path fill="none" stroke="midnightblue" d="M630.5,-224.083C630.5,-217.006 630.5,-206.861 630.5,-197.986"/>
<polygon fill="midnightblue" stroke="midnightblue" points="634,-197.751 630.5,-187.751 627,-197.751 634,-197.751"/>
</g>
</g>
</svg>
