<?xml version="1.0" encoding="UTF-8" standalone="no"?>
<!DOCTYPE svg PUBLIC "-//W3C//DTD SVG 1.1//EN"
 "http://www.w3.org/Graphics/SVG/1.1/DTD/svg11.dtd">
<!-- Generated by graphviz version 2.38.0 (20140413.2041)
 -->
<!-- Title: dlgaboutplugin.cpp Pages: 1 -->
<svg width="1876pt" height="308pt"
 viewBox="0.00 0.00 1876.00 308.00" xmlns="http://www.w3.org/2000/svg" xmlns:xlink="http://www.w3.org/1999/xlink">
<g id="graph0" class="graph" transform="scale(1 1) rotate(0) translate(4 304)">
<title>dlgaboutplugin.cpp</title>
<polygon fill="white" stroke="none" points="-4,4 -4,-304 1872,-304 1872,4 -4,4"/>
<!-- Node1 -->
<g id="node1" class="node"><title>Node1</title>
<polygon fill="#bfbfbf" stroke="black" points="1495.5,-280.5 1495.5,-299.5 1592.5,-299.5 1592.5,-280.5 1495.5,-280.5"/>
<text text-anchor="middle" x="1544" y="-287.5" font-family="FreeSans" font-size="10.00">dlgaboutplugin.cpp</text>
</g>
<!-- Node2 -->
<g id="node2" class="node"><title>Node2</title>
<g id="a_node2"><a xlink:href="sdk_8h" target="_top" xlink:title="sdk.h">
<polygon fill="white" stroke="black" points="564.5,-224.5 564.5,-243.5 603.5,-243.5 603.5,-224.5 564.5,-224.5"/>
<text text-anchor="middle" x="584" y="-231.5" font-family="FreeSans" font-size="10.00">sdk.h</text>
</a>
</g>
</g>
<!-- Node1&#45;&gt;Node2 -->
<g id="edge1" class="edge"><title>Node1&#45;&gt;Node2</title>
<path fill="none" stroke="midnightblue" d="M1495.41,-286.267C1324.14,-276.633 751.531,-244.424 613.923,-236.683"/>
<polygon fill="midnightblue" stroke="midnightblue" points="613.898,-233.176 603.717,-236.109 613.504,-240.165 613.898,-233.176"/>
</g>
<!-- Node6 -->
<g id="node6" class="node"><title>Node6</title>
<polygon fill="white" stroke="#bfbfbf" points="1287.5,-0.5 1287.5,-19.5 1338.5,-19.5 1338.5,-0.5 1287.5,-0.5"/>
<text text-anchor="middle" x="1313" y="-7.5" font-family="FreeSans" font-size="10.00">wx/intl.h</text>
</g>
<!-- Node1&#45;&gt;Node6 -->
<g id="edge5" class="edge"><title>Node1&#45;&gt;Node6</title>
<path fill="none" stroke="midnightblue" d="M1550.41,-280.369C1569.84,-253.079 1624.44,-167.207 1586,-112 1531.65,-33.9484 1409.67,-16.0711 1348.87,-12.0765"/>
<polygon fill="midnightblue" stroke="midnightblue" points="1348.79,-8.56642 1338.61,-11.4971 1348.39,-15.5553 1348.79,-8.56642"/>
</g>
<!-- Node7 -->
<g id="node7" class="node"><title>Node7</title>
<polygon fill="white" stroke="#bfbfbf" points="1612,-224.5 1612,-243.5 1682,-243.5 1682,-224.5 1612,-224.5"/>
<text text-anchor="middle" x="1647" y="-231.5" font-family="FreeSans" font-size="10.00">wx/stattext.h</text>
</g>
<!-- Node1&#45;&gt;Node7 -->
<g id="edge6" class="edge"><title>Node1&#45;&gt;Node7</title>
<path fill="none" stroke="midnightblue" d="M1560.55,-280.324C1576.99,-271.703 1602.43,-258.364 1621.47,-248.386"/>
<polygon fill="midnightblue" stroke="midnightblue" points="1623.26,-251.398 1630.49,-243.655 1620.01,-245.198 1623.26,-251.398"/>
</g>
<!-- Node8 -->
<g id="node8" class="node"><title>Node8</title>
<polygon fill="white" stroke="#bfbfbf" points="1227,-56.5 1227,-75.5 1289,-75.5 1289,-56.5 1227,-56.5"/>
<text text-anchor="middle" x="1258" y="-63.5" font-family="FreeSans" font-size="10.00">wx/string.h</text>
</g>
<!-- Node1&#45;&gt;Node8 -->
<g id="edge7" class="edge"><title>Node1&#45;&gt;Node8</title>
<path fill="none" stroke="midnightblue" d="M1524.79,-280.408C1506.11,-271.84 1477.09,-257.973 1453,-244 1400.65,-213.63 1391.93,-199.091 1340,-168 1310.66,-150.434 1292.64,-159.264 1272,-132 1261.98,-118.77 1258.8,-99.9029 1257.94,-85.9009"/>
<polygon fill="midnightblue" stroke="midnightblue" points="1261.43,-85.4159 1257.66,-75.5141 1254.43,-85.6049 1261.43,-85.4159"/>
</g>
<!-- Node9 -->
<g id="node9" class="node"><title>Node9</title>
<polygon fill="white" stroke="#bfbfbf" points="1700,-224.5 1700,-243.5 1768,-243.5 1768,-224.5 1700,-224.5"/>
<text text-anchor="middle" x="1734" y="-231.5" font-family="FreeSans" font-size="10.00">wx/textctrl.h</text>
</g>
<!-- Node1&#45;&gt;Node9 -->
<g id="edge8" class="edge"><title>Node1&#45;&gt;Node9</title>
<path fill="none" stroke="midnightblue" d="M1574.11,-280.444C1606.63,-271.201 1658.58,-256.436 1694.39,-246.257"/>
<polygon fill="midnightblue" stroke="midnightblue" points="1695.37,-249.617 1704.03,-243.516 1693.46,-242.884 1695.37,-249.617"/>
</g>
<!-- Node10 -->
<g id="node10" class="node"><title>Node10</title>
<polygon fill="white" stroke="#bfbfbf" points="1786,-224.5 1786,-243.5 1868,-243.5 1868,-224.5 1786,-224.5"/>
<text text-anchor="middle" x="1827" y="-231.5" font-family="FreeSans" font-size="10.00">wx/xrc/xmlres.h</text>
</g>
<!-- Node1&#45;&gt;Node10 -->
<g id="edge9" class="edge"><title>Node1&#45;&gt;Node10</title>
<path fill="none" stroke="midnightblue" d="M1588.84,-280.444C1639.65,-270.749 1722.3,-254.977 1775.66,-244.797"/>
<polygon fill="midnightblue" stroke="midnightblue" points="1776.42,-248.214 1785.59,-242.902 1775.11,-241.338 1776.42,-248.214"/>
</g>
<!-- Node11 -->
<g id="node11" class="node"><title>Node11</title>
<g id="a_node11"><a xlink:href="cbplugin_8h" target="_top" xlink:title="cbplugin.h">
<polygon fill="white" stroke="black" points="1137,-224.5 1137,-243.5 1197,-243.5 1197,-224.5 1137,-224.5"/>
<text text-anchor="middle" x="1167" y="-231.5" font-family="FreeSans" font-size="10.00">cbplugin.h</text>
</a>
</g>
</g>
<!-- Node1&#45;&gt;Node11 -->
<g id="edge10" class="edge"><title>Node1&#45;&gt;Node11</title>
<path fill="none" stroke="midnightblue" d="M1495.49,-282.051C1420.39,-271.294 1277.38,-250.811 1207.49,-240.8"/>
<polygon fill="midnightblue" stroke="midnightblue" points="1207.72,-237.297 1197.32,-239.343 1206.72,-244.226 1207.72,-237.297"/>
</g>
<!-- Node31 -->
<g id="node31" class="node"><title>Node31</title>
<g id="a_node31"><a xlink:href="dlgaboutplugin_8h" target="_top" xlink:title="dlgaboutplugin.h">
<polygon fill="white" stroke="black" points="1462,-224.5 1462,-243.5 1548,-243.5 1548,-224.5 1462,-224.5"/>
<text text-anchor="middle" x="1505" y="-231.5" font-family="FreeSans" font-size="10.00">dlgaboutplugin.h</text>
</a>
</g>
</g>
<!-- Node1&#45;&gt;Node31 -->
<g id="edge51" class="edge"><title>Node1&#45;&gt;Node31</title>
<path fill="none" stroke="midnightblue" d="M1537.56,-280.083C1532.05,-272.455 1523.97,-261.264 1517.24,-251.941"/>
<polygon fill="midnightblue" stroke="midnightblue" points="1520.01,-249.809 1511.32,-243.751 1514.34,-253.907 1520.01,-249.809"/>
</g>
<!-- Node3 -->
<g id="node3" class="node"><title>Node3</title>
<g id="a_node3"><a xlink:href="sdk__common_8h" target="_top" xlink:title="sdk_common.h">
<polygon fill="white" stroke="black" points="24,-168.5 24,-187.5 106,-187.5 106,-168.5 24,-168.5"/>
<text text-anchor="middle" x="65" y="-175.5" font-family="FreeSans" font-size="10.00">sdk_common.h</text>
</a>
</g>
</g>
<!-- Node2&#45;&gt;Node3 -->
<g id="edge2" class="edge"><title>Node2&#45;&gt;Node3</title>
<path fill="none" stroke="midnightblue" d="M564.499,-231.569C500.594,-226.781 291.749,-210.356 120,-188 118.732,-187.835 117.448,-187.663 116.153,-187.485"/>
<polygon fill="midnightblue" stroke="midnightblue" points="116.501,-183.999 106.102,-186.028 115.496,-190.926 116.501,-183.999"/>
</g>
<!-- Node4 -->
<g id="node4" class="node"><title>Node4</title>
<polygon fill="white" stroke="#bfbfbf" points="0,-112.5 0,-131.5 68,-131.5 68,-112.5 0,-112.5"/>
<text text-anchor="middle" x="34" y="-119.5" font-family="FreeSans" font-size="10.00">wx/wxprec.h</text>
</g>
<!-- Node3&#45;&gt;Node4 -->
<g id="edge3" class="edge"><title>Node3&#45;&gt;Node4</title>
<path fill="none" stroke="midnightblue" d="M59.881,-168.083C55.5925,-160.613 49.3418,-149.724 44.0577,-140.52"/>
<polygon fill="midnightblue" stroke="midnightblue" points="47.0379,-138.681 39.0238,-131.751 40.9671,-142.166 47.0379,-138.681"/>
</g>
<!-- Node5 -->
<g id="node5" class="node"><title>Node5</title>
<g id="a_node5"><a xlink:href="prep_8h" target="_top" xlink:title="prep.h">
<polygon fill="white" stroke="black" points="343.5,-0.5 343.5,-19.5 386.5,-19.5 386.5,-0.5 343.5,-0.5"/>
<text text-anchor="middle" x="365" y="-7.5" font-family="FreeSans" font-size="10.00">prep.h</text>
</a>
</g>
</g>
<!-- Node3&#45;&gt;Node5 -->
<g id="edge4" class="edge"><title>Node3&#45;&gt;Node5</title>
<path fill="none" stroke="midnightblue" d="M68.9811,-168.299C79.7712,-145.761 111.896,-85.2126 158,-56 212.7,-21.3406 290.081,-13.0706 333.065,-11.285"/>
<polygon fill="midnightblue" stroke="midnightblue" points="333.335,-14.7782 343.218,-10.9586 333.11,-7.78185 333.335,-14.7782"/>
</g>
<!-- Node11&#45;&gt;Node5 -->
<g id="edge50" class="edge"><title>Node11&#45;&gt;Node5</title>
<path fill="none" stroke="midnightblue" d="M1136.61,-233.087C988.443,-232.793 344.253,-222.986 229,-76 198.988,-37.7246 284.242,-20.7647 333.21,-14.3446"/>
<polygon fill="midnightblue" stroke="midnightblue" points="333.846,-17.7928 343.343,-13.0973 332.99,-10.8453 333.846,-17.7928"/>
</g>
<!-- Node11&#45;&gt;Node6 -->
<g id="edge13" class="edge"><title>Node11&#45;&gt;Node6</title>
<path fill="none" stroke="midnightblue" d="M1197.12,-229.386C1241.68,-223.371 1321.89,-209.772 1340,-188 1377.58,-142.814 1367.07,-111.593 1348,-56 1344.28,-45.161 1336.77,-34.9216 1329.65,-26.9566"/>
<polygon fill="midnightblue" stroke="midnightblue" points="1332,-24.3498 1322.56,-19.5497 1326.95,-29.1922 1332,-24.3498"/>
</g>
<!-- Node11&#45;&gt;Node8 -->
<g id="edge14" class="edge"><title>Node11&#45;&gt;Node8</title>
<path fill="none" stroke="midnightblue" d="M1171.89,-224.075C1186.34,-197.719 1229.01,-119.878 1248.32,-84.6608"/>
<polygon fill="midnightblue" stroke="midnightblue" points="1251.57,-86.0194 1253.3,-75.5681 1245.43,-82.6545 1251.57,-86.0194"/>
</g>
<!-- Node12 -->
<g id="node12" class="node"><title>Node12</title>
<polygon fill="white" stroke="#bfbfbf" points="1271,-168.5 1271,-187.5 1331,-187.5 1331,-168.5 1271,-168.5"/>
<text text-anchor="middle" x="1301" y="-175.5" font-family="FreeSans" font-size="10.00">wx/arrstr.h</text>
</g>
<!-- Node11&#45;&gt;Node12 -->
<g id="edge11" class="edge"><title>Node11&#45;&gt;Node12</title>
<path fill="none" stroke="midnightblue" d="M1188.23,-224.444C1210.38,-215.517 1245.32,-201.439 1270.44,-191.317"/>
<polygon fill="midnightblue" stroke="midnightblue" points="1271.9,-194.501 1279.87,-187.516 1269.28,-188.008 1271.9,-194.501"/>
</g>
<!-- Node13 -->
<g id="node13" class="node"><title>Node13</title>
<polygon fill="white" stroke="#bfbfbf" points="179,-0.5 179,-19.5 241,-19.5 241,-0.5 179,-0.5"/>
<text text-anchor="middle" x="210" y="-7.5" font-family="FreeSans" font-size="10.00">wx/event.h</text>
</g>
<!-- Node11&#45;&gt;Node13 -->
<g id="edge12" class="edge"><title>Node11&#45;&gt;Node13</title>
<path fill="none" stroke="midnightblue" d="M1136.84,-232.408C1015.28,-229.833 561.125,-218.343 421,-188 353.076,-173.291 333.291,-169.844 275,-132 245.478,-112.834 234.673,-107.516 219,-76 211.866,-61.6554 209.854,-43.4566 209.489,-29.9664"/>
<polygon fill="midnightblue" stroke="midnightblue" points="212.989,-29.9318 209.494,-19.9301 205.989,-29.9283 212.989,-29.9318"/>
</g>
<!-- Node14 -->
<g id="node14" class="node"><title>Node14</title>
<g id="a_node14"><a xlink:href="settings_8h" target="_top" xlink:title="settings.h">
<polygon fill="white" stroke="black" points="1094.5,-0.5 1094.5,-19.5 1151.5,-19.5 1151.5,-0.5 1094.5,-0.5"/>
<text text-anchor="middle" x="1123" y="-7.5" font-family="FreeSans" font-size="10.00">settings.h</text>
</a>
</g>
</g>
<!-- Node11&#45;&gt;Node14 -->
<g id="edge15" class="edge"><title>Node11&#45;&gt;Node14</title>
<path fill="none" stroke="midnightblue" d="M1165.28,-224.297C1158.8,-191.633 1135.86,-75.8661 1126.76,-29.9573"/>
<polygon fill="midnightblue" stroke="midnightblue" points="1130.14,-29.0125 1124.76,-19.8837 1123.27,-30.3734 1130.14,-29.0125"/>
</g>
<!-- Node15 -->
<g id="node15" class="node"><title>Node15</title>
<g id="a_node15"><a xlink:href="globals_8h" target="_top" xlink:title="globals.h">
<polygon fill="white" stroke="black" points="928,-112.5 928,-131.5 982,-131.5 982,-112.5 928,-112.5"/>
<text text-anchor="middle" x="955" y="-119.5" font-family="FreeSans" font-size="10.00">globals.h</text>
</a>
</g>
</g>
<!-- Node11&#45;&gt;Node15 -->
<g id="edge16" class="edge"><title>Node11&#45;&gt;Node15</title>
<path fill="none" stroke="midnightblue" d="M1150.36,-224.368C1113.44,-205.211 1024.45,-159.036 980.473,-136.217"/>
<polygon fill="midnightblue" stroke="midnightblue" points="982.046,-133.09 971.558,-131.591 978.822,-139.304 982.046,-133.09"/>
</g>
<!-- Node22 -->
<g id="node22" class="node"><title>Node22</title>
<g id="a_node22"><a xlink:href="logger_8h" target="_top" xlink:title="logger.h">
<polygon fill="white" stroke="black" points="1281,-112.5 1281,-131.5 1331,-131.5 1331,-112.5 1281,-112.5"/>
<text text-anchor="middle" x="1306" y="-119.5" font-family="FreeSans" font-size="10.00">logger.h</text>
</a>
</g>
</g>
<!-- Node11&#45;&gt;Node22 -->
<g id="edge26" class="edge"><title>Node11&#45;&gt;Node22</title>
<path fill="none" stroke="midnightblue" d="M1177.91,-224.368C1201.56,-205.653 1257.79,-161.151 1287.26,-137.832"/>
<polygon fill="midnightblue" stroke="midnightblue" points="1289.47,-140.542 1295.14,-131.591 1285.13,-135.052 1289.47,-140.542"/>
</g>
<!-- Node23 -->
<g id="node23" class="node"><title>Node23</title>
<g id="a_node23"><a xlink:href="manager_8h" target="_top" xlink:title="manager.h">
<polygon fill="white" stroke="black" points="481,-112.5 481,-131.5 543,-131.5 543,-112.5 481,-112.5"/>
<text text-anchor="middle" x="512" y="-119.5" font-family="FreeSans" font-size="10.00">manager.h</text>
</a>
</g>
</g>
<!-- Node11&#45;&gt;Node23 -->
<g id="edge30" class="edge"><title>Node11&#45;&gt;Node23</title>
<path fill="none" stroke="midnightblue" d="M1136.89,-230.844C1071.05,-225.844 909.492,-212.015 776,-188 695.21,-173.466 602.354,-148.682 551.109,-134.282"/>
<polygon fill="midnightblue" stroke="midnightblue" points="552.006,-130.898 541.431,-131.546 550.102,-137.634 552.006,-130.898"/>
</g>
<!-- Node28 -->
<g id="node28" class="node"><title>Node28</title>
<g id="a_node28"><a xlink:href="pluginmanager_8h" target="_top" xlink:title="pluginmanager.h">
<polygon fill="white" stroke="black" points="785.5,-168.5 785.5,-187.5 872.5,-187.5 872.5,-168.5 785.5,-168.5"/>
<text text-anchor="middle" x="829" y="-175.5" font-family="FreeSans" font-size="10.00">pluginmanager.h</text>
</a>
</g>
</g>
<!-- Node11&#45;&gt;Node28 -->
<g id="edge42" class="edge"><title>Node11&#45;&gt;Node28</title>
<path fill="none" stroke="midnightblue" d="M1136.71,-228.16C1079.49,-219.019 954.82,-199.101 882.965,-187.622"/>
<polygon fill="midnightblue" stroke="midnightblue" points="883.187,-184.113 872.76,-185.991 882.083,-191.025 883.187,-184.113"/>
</g>
<!-- Node15&#45;&gt;Node6 -->
<g id="edge22" class="edge"><title>Node15&#45;&gt;Node6</title>
<path fill="none" stroke="midnightblue" d="M982.202,-112.642C1046.12,-93.0015 1205.88,-43.9152 1277.4,-21.9387"/>
<polygon fill="midnightblue" stroke="midnightblue" points="1278.76,-25.1825 1287.29,-18.8997 1276.7,-18.4913 1278.76,-25.1825"/>
</g>
<!-- Node15&#45;&gt;Node8 -->
<g id="edge18" class="edge"><title>Node15&#45;&gt;Node8</title>
<path fill="none" stroke="midnightblue" d="M982.156,-116.16C1035.41,-106.67 1153.81,-85.5676 1216.78,-74.3468"/>
<polygon fill="midnightblue" stroke="midnightblue" points="1217.52,-77.7687 1226.76,-72.5684 1216.3,-70.8773 1217.52,-77.7687"/>
</g>
<!-- Node15&#45;&gt;Node14 -->
<g id="edge25" class="edge"><title>Node15&#45;&gt;Node14</title>
<path fill="none" stroke="midnightblue" d="M982.319,-113.821C1005.94,-106.744 1040.24,-94.3139 1066,-76 1084.46,-62.8736 1100.97,-42.63 1111.41,-28.225"/>
<polygon fill="midnightblue" stroke="midnightblue" points="1114.48,-29.9348 1117.35,-19.7354 1108.75,-25.9205 1114.48,-29.9348"/>
</g>
<!-- Node16 -->
<g id="node16" class="node"><title>Node16</title>
<polygon fill="white" stroke="#bfbfbf" points="593.5,-56.5 593.5,-75.5 636.5,-75.5 636.5,-56.5 593.5,-56.5"/>
<text text-anchor="middle" x="615" y="-63.5" font-family="FreeSans" font-size="10.00">vector</text>
</g>
<!-- Node15&#45;&gt;Node16 -->
<g id="edge17" class="edge"><title>Node15&#45;&gt;Node16</title>
<path fill="none" stroke="midnightblue" d="M927.666,-117.512C865.744,-109.535 715.439,-89.728 646.529,-75.778"/>
<polygon fill="midnightblue" stroke="midnightblue" points="647.09,-72.3195 636.583,-73.6784 645.644,-79.1685 647.09,-72.3195"/>
</g>
<!-- Node17 -->
<g id="node17" class="node"><title>Node17</title>
<polygon fill="white" stroke="#bfbfbf" points="921,-56.5 921,-75.5 989,-75.5 989,-56.5 921,-56.5"/>
<text text-anchor="middle" x="955" y="-63.5" font-family="FreeSans" font-size="10.00">wx/treectrl.h</text>
</g>
<!-- Node15&#45;&gt;Node17 -->
<g id="edge19" class="edge"><title>Node15&#45;&gt;Node17</title>
<path fill="none" stroke="midnightblue" d="M955,-112.083C955,-105.006 955,-94.8611 955,-85.9865"/>
<polygon fill="midnightblue" stroke="midnightblue" points="958.5,-85.751 955,-75.7511 951.5,-85.7511 958.5,-85.751"/>
</g>
<!-- Node18 -->
<g id="node18" class="node"><title>Node18</title>
<polygon fill="white" stroke="#bfbfbf" points="1007,-56.5 1007,-75.5 1057,-75.5 1057,-56.5 1007,-56.5"/>
<text text-anchor="middle" x="1032" y="-63.5" font-family="FreeSans" font-size="10.00">wx/file.h</text>
</g>
<!-- Node15&#45;&gt;Node18 -->
<g id="edge20" class="edge"><title>Node15&#45;&gt;Node18</title>
<path fill="none" stroke="midnightblue" d="M967.371,-112.324C979.158,-104.058 997.132,-91.4527 1011.14,-81.6322"/>
<polygon fill="midnightblue" stroke="midnightblue" points="1013.48,-84.2619 1019.66,-75.6545 1009.46,-78.5307 1013.48,-84.2619"/>
</g>
<!-- Node19 -->
<g id="node19" class="node"><title>Node19</title>
<polygon fill="white" stroke="#bfbfbf" points="655,-56.5 655,-75.5 729,-75.5 729,-56.5 655,-56.5"/>
<text text-anchor="middle" x="692" y="-63.5" font-family="FreeSans" font-size="10.00">wx/filename.h</text>
</g>
<!-- Node15&#45;&gt;Node19 -->
<g id="edge21" class="edge"><title>Node15&#45;&gt;Node19</title>
<path fill="none" stroke="midnightblue" d="M927.845,-115.424C883.243,-106.267 793.942,-87.931 738.932,-76.6362"/>
<polygon fill="midnightblue" stroke="midnightblue" points="739.578,-73.1959 729.078,-74.613 738.17,-80.0528 739.578,-73.1959"/>
</g>
<!-- Node20 -->
<g id="node20" class="node"><title>Node20</title>
<polygon fill="white" stroke="#bfbfbf" points="747.5,-56.5 747.5,-75.5 816.5,-75.5 816.5,-56.5 747.5,-56.5"/>
<text text-anchor="middle" x="782" y="-63.5" font-family="FreeSans" font-size="10.00">wx/msgdlg.h</text>
</g>
<!-- Node15&#45;&gt;Node20 -->
<g id="edge23" class="edge"><title>Node15&#45;&gt;Node20</title>
<path fill="none" stroke="midnightblue" d="M927.969,-112.562C898.687,-103.423 851.784,-88.7821 819.073,-78.5719"/>
<polygon fill="midnightblue" stroke="midnightblue" points="820.001,-75.1951 809.412,-75.5565 817.915,-81.8772 820.001,-75.1951"/>
</g>
<!-- Node21 -->
<g id="node21" class="node"><title>Node21</title>
<polygon fill="white" stroke="#bfbfbf" points="835,-56.5 835,-75.5 903,-75.5 903,-56.5 835,-56.5"/>
<text text-anchor="middle" x="869" y="-63.5" font-family="FreeSans" font-size="10.00">wx/bitmap.h</text>
</g>
<!-- Node15&#45;&gt;Node21 -->
<g id="edge24" class="edge"><title>Node15&#45;&gt;Node21</title>
<path fill="none" stroke="midnightblue" d="M941.183,-112.324C927.767,-103.9 907.176,-90.9709 891.414,-81.0741"/>
<polygon fill="midnightblue" stroke="midnightblue" points="893.113,-78.0081 882.783,-75.6545 889.391,-83.9364 893.113,-78.0081"/>
</g>
<!-- Node22&#45;&gt;Node5 -->
<g id="edge27" class="edge"><title>Node22&#45;&gt;Node5</title>
<path fill="none" stroke="midnightblue" d="M1308.01,-112.305C1310.7,-98.1817 1313.5,-70.3884 1298,-56 1264.27,-24.6882 556.561,-13.5215 396.837,-11.3954"/>
<polygon fill="midnightblue" stroke="midnightblue" points="396.755,-7.8941 386.71,-11.263 396.663,-14.8935 396.755,-7.8941"/>
</g>
<!-- Node22&#45;&gt;Node8 -->
<g id="edge28" class="edge"><title>Node22&#45;&gt;Node8</title>
<path fill="none" stroke="midnightblue" d="M1298.07,-112.083C1291.15,-104.298 1280.93,-92.8015 1272.55,-83.3665"/>
<polygon fill="midnightblue" stroke="midnightblue" points="1275.04,-80.8999 1265.78,-75.7511 1269.81,-85.5505 1275.04,-80.8999"/>
</g>
<!-- Node22&#45;&gt;Node14 -->
<g id="edge29" class="edge"><title>Node22&#45;&gt;Node14</title>
<path fill="none" stroke="midnightblue" d="M1314.52,-112.139C1326.35,-98.7541 1344.82,-73.1261 1331,-56 1310.18,-30.188 1216.26,-18.448 1162.01,-13.7375"/>
<polygon fill="midnightblue" stroke="midnightblue" points="1161.98,-10.2229 1151.73,-12.887 1161.41,-17.1991 1161.98,-10.2229"/>
</g>
<!-- Node23&#45;&gt;Node13 -->
<g id="edge33" class="edge"><title>Node23&#45;&gt;Node13</title>
<path fill="none" stroke="midnightblue" d="M480.694,-120.13C415.04,-117.669 265.961,-108.552 229,-76 215.923,-64.4827 211.619,-44.5129 210.314,-29.7389"/>
<polygon fill="midnightblue" stroke="midnightblue" points="213.806,-29.4901 209.804,-19.6801 206.815,-29.8445 213.806,-29.4901"/>
</g>
<!-- Node23&#45;&gt;Node14 -->
<g id="edge35" class="edge"><title>Node23&#45;&gt;Node14</title>
<path fill="none" stroke="midnightblue" d="M511.674,-112.167C511.68,-97.8434 514.012,-69.7698 531,-56 573.842,-21.2745 958.786,-13.1598 1083.91,-11.4321"/>
<polygon fill="midnightblue" stroke="midnightblue" points="1084.22,-14.9284 1094.17,-11.2968 1084.12,-7.929 1084.22,-14.9284"/>
</g>
<!-- Node23&#45;&gt;Node16 -->
<g id="edge32" class="edge"><title>Node23&#45;&gt;Node16</title>
<path fill="none" stroke="midnightblue" d="M528.549,-112.324C544.992,-103.703 570.435,-90.3643 589.468,-80.3855"/>
<polygon fill="midnightblue" stroke="midnightblue" points="591.261,-83.3977 598.492,-75.6545 588.011,-77.198 591.261,-83.3977"/>
</g>
<!-- Node24 -->
<g id="node24" class="node"><title>Node24</title>
<polygon fill="white" stroke="#bfbfbf" points="540.5,-56.5 540.5,-75.5 575.5,-75.5 575.5,-56.5 540.5,-56.5"/>
<text text-anchor="middle" x="558" y="-63.5" font-family="FreeSans" font-size="10.00">map</text>
</g>
<!-- Node23&#45;&gt;Node24 -->
<g id="edge31" class="edge"><title>Node23&#45;&gt;Node24</title>
<path fill="none" stroke="midnightblue" d="M519.596,-112.083C526.227,-104.298 536.021,-92.8015 544.058,-83.3665"/>
<polygon fill="midnightblue" stroke="midnightblue" points="546.725,-85.6332 550.545,-75.7511 541.396,-81.0939 546.725,-85.6332"/>
</g>
<!-- Node25 -->
<g id="node25" class="node"><title>Node25</title>
<polygon fill="white" stroke="#bfbfbf" points="238,-56.5 238,-75.5 310,-75.5 310,-56.5 238,-56.5"/>
<text text-anchor="middle" x="274" y="-63.5" font-family="FreeSans" font-size="10.00">wx/cmdline.h</text>
</g>
<!-- Node23&#45;&gt;Node25 -->
<g id="edge34" class="edge"><title>Node23&#45;&gt;Node25</title>
<path fill="none" stroke="midnightblue" d="M480.886,-113.94C439.917,-104.645 367.549,-88.2255 320.184,-77.4787"/>
<polygon fill="midnightblue" stroke="midnightblue" points="320.71,-74.0092 310.183,-75.2097 319.161,-80.8357 320.71,-74.0092"/>
</g>
<!-- Node26 -->
<g id="node26" class="node"><title>Node26</title>
<g id="a_node26"><a xlink:href="sdk__events_8h" target="_top" xlink:title="sdk_events.h">
<polygon fill="white" stroke="black" points="412,-56.5 412,-75.5 484,-75.5 484,-56.5 412,-56.5"/>
<text text-anchor="middle" x="448" y="-63.5" font-family="FreeSans" font-size="10.00">sdk_events.h</text>
</a>
</g>
</g>
<!-- Node23&#45;&gt;Node26 -->
<g id="edge36" class="edge"><title>Node23&#45;&gt;Node26</title>
<path fill="none" stroke="midnightblue" d="M501.717,-112.324C492.164,-104.263 477.72,-92.0765 466.216,-82.3695"/>
<polygon fill="midnightblue" stroke="midnightblue" points="468.37,-79.6076 458.47,-75.8339 463.856,-84.9577 468.37,-79.6076"/>
</g>
<!-- Node27 -->
<g id="node27" class="node"><title>Node27</title>
<g id="a_node27"><a xlink:href="cbfunctor_8h" target="_top" xlink:title="cbfunctor.h">
<polygon fill="white" stroke="black" points="328.5,-56.5 328.5,-75.5 393.5,-75.5 393.5,-56.5 328.5,-56.5"/>
<text text-anchor="middle" x="361" y="-63.5" font-family="FreeSans" font-size="10.00">cbfunctor.h</text>
</a>
</g>
</g>
<!-- Node23&#45;&gt;Node27 -->
<g id="edge41" class="edge"><title>Node23&#45;&gt;Node27</title>
<path fill="none" stroke="midnightblue" d="M488.074,-112.444C462.781,-103.399 422.698,-89.064 394.32,-78.9158"/>
<polygon fill="midnightblue" stroke="midnightblue" points="395.409,-75.5882 384.814,-75.5164 393.052,-82.1794 395.409,-75.5882"/>
</g>
<!-- Node26&#45;&gt;Node5 -->
<g id="edge40" class="edge"><title>Node26&#45;&gt;Node5</title>
<path fill="none" stroke="midnightblue" d="M434.665,-56.324C421.838,-47.979 402.215,-35.2122 387.06,-25.3524"/>
<polygon fill="midnightblue" stroke="midnightblue" points="388.593,-22.1742 378.302,-19.6545 384.776,-28.0417 388.593,-22.1742"/>
</g>
<!-- Node26&#45;&gt;Node6 -->
<g id="edge38" class="edge"><title>Node26&#45;&gt;Node6</title>
<path fill="none" stroke="midnightblue" d="M484.324,-60.6567C498.827,-59.0284 515.689,-57.2675 531,-56 810.059,-32.8996 880.457,-36.2215 1160,-20 1200.04,-17.6766 1245.97,-14.9692 1276.97,-13.1354"/>
<polygon fill="midnightblue" stroke="midnightblue" points="1277.51,-16.61 1287.28,-12.5252 1277.09,-9.62219 1277.51,-16.61"/>
</g>
<!-- Node26&#45;&gt;Node13 -->
<g id="edge37" class="edge"><title>Node26&#45;&gt;Node13</title>
<path fill="none" stroke="midnightblue" d="M411.853,-56.7986C368.572,-46.9786 296.264,-30.5725 250.956,-20.2926"/>
<polygon fill="midnightblue" stroke="midnightblue" points="251.691,-16.8703 241.164,-18.0708 250.142,-23.6968 251.691,-16.8703"/>
</g>
<!-- Node26&#45;&gt;Node14 -->
<g id="edge39" class="edge"><title>Node26&#45;&gt;Node14</title>
<path fill="none" stroke="midnightblue" d="M484.251,-58.008C488.868,-57.2553 493.537,-56.5607 498,-56 718.786,-28.2605 985.763,-16.1205 1084.16,-12.3611"/>
<polygon fill="midnightblue" stroke="midnightblue" points="1084.38,-15.8556 1094.24,-11.9831 1084.11,-8.86057 1084.38,-15.8556"/>
</g>
<!-- Node28&#45;&gt;Node14 -->
<g id="edge48" class="edge"><title>Node28&#45;&gt;Node14</title>
<path fill="none" stroke="midnightblue" d="M872.964,-171.735C930.842,-162.509 1032.13,-138.078 1091,-76 1103.69,-62.618 1112.34,-43.2421 1117.42,-29.1283"/>
<polygon fill="midnightblue" stroke="midnightblue" points="1120.77,-30.1412 1120.61,-19.5476 1114.13,-27.9285 1120.77,-30.1412"/>
</g>
<!-- Node28&#45;&gt;Node15 -->
<g id="edge47" class="edge"><title>Node28&#45;&gt;Node15</title>
<path fill="none" stroke="midnightblue" d="M848.965,-168.444C869.609,-159.596 902.063,-145.687 925.632,-135.586"/>
<polygon fill="midnightblue" stroke="midnightblue" points="927.316,-138.673 935.128,-131.516 924.558,-132.239 927.316,-138.673"/>
</g>
<!-- Node28&#45;&gt;Node16 -->
<g id="edge43" class="edge"><title>Node28&#45;&gt;Node16</title>
<path fill="none" stroke="midnightblue" d="M834.927,-168.339C843.419,-154.755 856.602,-128.313 843,-112 816.17,-79.8229 703.652,-85.3793 646.583,-75.5951"/>
<polygon fill="midnightblue" stroke="midnightblue" points="647.101,-72.1291 636.606,-73.5771 645.713,-78.9901 647.101,-72.1291"/>
</g>
<!-- Node28&#45;&gt;Node23 -->
<g id="edge49" class="edge"><title>Node28&#45;&gt;Node23</title>
<path fill="none" stroke="midnightblue" d="M785.255,-169.548C723.922,-159.1 613.177,-140.235 553.23,-130.023"/>
<polygon fill="midnightblue" stroke="midnightblue" points="553.801,-126.57 543.355,-128.341 552.625,-133.471 553.801,-126.57"/>
</g>
<!-- Node28&#45;&gt;Node24 -->
<g id="edge44" class="edge"><title>Node28&#45;&gt;Node24</title>
<path fill="none" stroke="midnightblue" d="M803.199,-168.447C777.574,-159.798 737.268,-145.775 703,-132 661.146,-115.175 613.602,-93.3247 584.712,-79.733"/>
<polygon fill="midnightblue" stroke="midnightblue" points="586.202,-76.5659 575.665,-75.4594 583.212,-82.8953 586.202,-76.5659"/>
</g>
<!-- Node29 -->
<g id="node29" class="node"><title>Node29</title>
<polygon fill="white" stroke="#bfbfbf" points="712.5,-112.5 712.5,-131.5 741.5,-131.5 741.5,-112.5 712.5,-112.5"/>
<text text-anchor="middle" x="727" y="-119.5" font-family="FreeSans" font-size="10.00">set</text>
</g>
<!-- Node28&#45;&gt;Node29 -->
<g id="edge45" class="edge"><title>Node28&#45;&gt;Node29</title>
<path fill="none" stroke="midnightblue" d="M812.612,-168.324C795.847,-159.448 769.634,-145.571 750.628,-135.509"/>
<polygon fill="midnightblue" stroke="midnightblue" points="752.168,-132.364 741.692,-130.778 748.892,-138.55 752.168,-132.364"/>
</g>
<!-- Node30 -->
<g id="node30" class="node"><title>Node30</title>
<polygon fill="white" stroke="#bfbfbf" points="760,-112.5 760,-131.5 834,-131.5 834,-112.5 760,-112.5"/>
<text text-anchor="middle" x="797" y="-119.5" font-family="FreeSans" font-size="10.00">wx/dynarray.h</text>
</g>
<!-- Node28&#45;&gt;Node30 -->
<g id="edge46" class="edge"><title>Node28&#45;&gt;Node30</title>
<path fill="none" stroke="midnightblue" d="M823.716,-168.083C819.289,-160.613 812.837,-149.724 807.382,-140.52"/>
<polygon fill="midnightblue" stroke="midnightblue" points="810.295,-138.57 802.186,-131.751 804.273,-142.138 810.295,-138.57"/>
</g>
<!-- Node32 -->
<g id="node32" class="node"><title>Node32</title>
<g id="a_node32"><a xlink:href="scrollingdialog_8h" target="_top" xlink:title="scrollingdialog.h">
<polygon fill="white" stroke="black" points="1458.5,-168.5 1458.5,-187.5 1543.5,-187.5 1543.5,-168.5 1458.5,-168.5"/>
<text text-anchor="middle" x="1501" y="-175.5" font-family="FreeSans" font-size="10.00">scrollingdialog.h</text>
</a>
</g>
</g>
<!-- Node31&#45;&gt;Node32 -->
<g id="edge52" class="edge"><title>Node31&#45;&gt;Node32</title>
<path fill="none" stroke="midnightblue" d="M1504.34,-224.083C1503.82,-217.006 1503.06,-206.861 1502.41,-197.986"/>
<polygon fill="midnightblue" stroke="midnightblue" points="1505.88,-197.465 1501.65,-187.751 1498.9,-197.982 1505.88,-197.465"/>
</g>
<!-- Node32&#45;&gt;Node14 -->
<g id="edge55" class="edge"><title>Node32&#45;&gt;Node14</title>
<path fill="none" stroke="midnightblue" d="M1480.21,-168.497C1462.21,-160.571 1435.99,-147.639 1416,-132 1380.3,-104.071 1387.35,-78.4873 1348,-56 1288.99,-22.2827 1208.71,-13.5198 1161.71,-11.4256"/>
<polygon fill="midnightblue" stroke="midnightblue" points="1161.77,-7.92523 1151.65,-11.0569 1161.51,-14.9205 1161.77,-7.92523"/>
</g>
<!-- Node33 -->
<g id="node33" class="node"><title>Node33</title>
<polygon fill="white" stroke="#bfbfbf" points="1513,-112.5 1513,-131.5 1577,-131.5 1577,-112.5 1513,-112.5"/>
<text text-anchor="middle" x="1545" y="-119.5" font-family="FreeSans" font-size="10.00">wx/dialog.h</text>
</g>
<!-- Node32&#45;&gt;Node33 -->
<g id="edge53" class="edge"><title>Node32&#45;&gt;Node33</title>
<path fill="none" stroke="midnightblue" d="M1508.27,-168.083C1514.54,-160.377 1523.79,-149.033 1531.43,-139.653"/>
<polygon fill="midnightblue" stroke="midnightblue" points="1534.27,-141.714 1537.87,-131.751 1528.84,-137.293 1534.27,-141.714"/>
</g>
<!-- Node34 -->
<g id="node34" class="node"><title>Node34</title>
<polygon fill="white" stroke="#bfbfbf" points="1425,-112.5 1425,-131.5 1495,-131.5 1495,-112.5 1425,-112.5"/>
<text text-anchor="middle" x="1460" y="-119.5" font-family="FreeSans" font-size="10.00">wx/propdlg.h</text>
</g>
<!-- Node32&#45;&gt;Node34 -->
<g id="edge54" class="edge"><title>Node32&#45;&gt;Node34</title>
<path fill="none" stroke="midnightblue" d="M1494.23,-168.083C1488.44,-160.455 1479.94,-149.264 1472.86,-139.941"/>
<polygon fill="midnightblue" stroke="midnightblue" points="1475.48,-137.599 1466.64,-131.751 1469.9,-141.832 1475.48,-137.599"/>
</g>
</g>
</svg>
