<?xml version="1.0" encoding="UTF-8" standalone="no"?>
<!DOCTYPE svg PUBLIC "-//W3C//DTD SVG 1.1//EN"
 "http://www.w3.org/Graphics/SVG/1.1/DTD/svg11.dtd">
<!-- Generated by graphviz version 2.40.1 (20161225.0304)
 -->
<!-- Title: dlgabout.cpp Pages: 1 -->
<svg width="2074pt" height="308pt"
 viewBox="0.00 0.00 2074.00 308.00" xmlns="http://www.w3.org/2000/svg" xmlns:xlink="http://www.w3.org/1999/xlink">
<g id="graph0" class="graph" transform="scale(1 1) rotate(0) translate(4 304)">
<title>dlgabout.cpp</title>
<!-- Node0 -->
<g id="node1" class="node">
<title>Node0</title>
<polygon fill="#bfbfbf" stroke="#000000" points="1716.5,-280.5 1716.5,-299.5 1787.5,-299.5 1787.5,-280.5 1716.5,-280.5"/>
<text text-anchor="middle" x="1752" y="-287.5" font-family="FreeSans" font-size="10.00" fill="#000000">dlgabout.cpp</text>
</g>
<!-- Node1 -->
<g id="node2" class="node">
<title>Node1</title>
<g id="a_node2"><a xlink:href="sdk_8h" target="_top" xlink:title="sdk.h">
<polygon fill="none" stroke="#000000" points="1196.5,-224.5 1196.5,-243.5 1235.5,-243.5 1235.5,-224.5 1196.5,-224.5"/>
<text text-anchor="middle" x="1216" y="-231.5" font-family="FreeSans" font-size="10.00" fill="#000000">sdk.h</text>
</a>
</g>
</g>
<!-- Node0&#45;&gt;Node1 -->
<g id="edge1" class="edge">
<title>Node0&#45;&gt;Node1</title>
<path fill="none" stroke="#191970" d="M1716.4164,-286.2823C1617.0062,-275.8962 1337.6258,-246.7072 1245.7206,-237.1051"/>
<polygon fill="#191970" stroke="#191970" points="1246.018,-233.6172 1235.7085,-236.0591 1245.2906,-240.5794 1246.018,-233.6172"/>
</g>
<!-- Node51 -->
<g id="node20" class="node">
<title>Node51</title>
<polygon fill="none" stroke="#bfbfbf" points="1754.5,-112.5 1754.5,-131.5 1827.5,-131.5 1827.5,-112.5 1754.5,-112.5"/>
<text text-anchor="middle" x="1791" y="-119.5" font-family="FreeSans" font-size="10.00" fill="#000000">wx/statbmp.h</text>
</g>
<!-- Node0&#45;&gt;Node51 -->
<g id="edge38" class="edge">
<title>Node0&#45;&gt;Node51</title>
<path fill="none" stroke="#191970" d="M1754.2086,-280.4862C1760.4002,-253.8144 1778.0205,-177.9117 1786.4279,-141.695"/>
<polygon fill="#191970" stroke="#191970" points="1789.8665,-142.3603 1788.7185,-131.8279 1783.0478,-140.7774 1789.8665,-142.3603"/>
</g>
<!-- Node74 -->
<g id="node24" class="node">
<title>Node74</title>
<polygon fill="none" stroke="#bfbfbf" points="1722,-.5 1722,-19.5 1790,-19.5 1790,-.5 1722,-.5"/>
<text text-anchor="middle" x="1756" y="-7.5" font-family="FreeSans" font-size="10.00" fill="#000000">wx/bitmap.h</text>
</g>
<!-- Node0&#45;&gt;Node74 -->
<g id="edge36" class="edge">
<title>Node0&#45;&gt;Node74</title>
<path fill="none" stroke="#191970" d="M1771.5616,-280.2614C1801.6879,-263.7191 1856,-227.0892 1856,-178 1856,-178 1856,-178 1856,-122 1856,-78.0606 1812.6447,-43.4269 1783.0285,-24.8942"/>
<polygon fill="#191970" stroke="#191970" points="1784.7145,-21.824 1774.3415,-19.6672 1781.1055,-27.8219 1784.7145,-21.824"/>
</g>
<!-- Node111 -->
<g id="node27" class="node">
<title>Node111</title>
<g id="a_node27"><a xlink:href="configmanager_8h" target="_top" xlink:title="configmanager.h">
<polygon fill="none" stroke="#ff0000" points="1507.5,-112.5 1507.5,-131.5 1594.5,-131.5 1594.5,-112.5 1507.5,-112.5"/>
<text text-anchor="middle" x="1551" y="-119.5" font-family="FreeSans" font-size="10.00" fill="#000000">configmanager.h</text>
</a>
</g>
</g>
<!-- Node0&#45;&gt;Node111 -->
<g id="edge44" class="edge">
<title>Node0&#45;&gt;Node111</title>
<path fill="none" stroke="#191970" d="M1740.6175,-280.4862C1707.6749,-252.9521 1611.9614,-172.9528 1570.5138,-138.31"/>
<polygon fill="#191970" stroke="#191970" points="1572.6758,-135.5555 1562.7584,-131.8279 1568.1866,-140.9265 1572.6758,-135.5555"/>
</g>
<!-- Node137 -->
<g id="node28" class="node">
<title>Node137</title>
<polygon fill="none" stroke="#bfbfbf" points="1884.5,-224.5 1884.5,-243.5 1967.5,-243.5 1967.5,-224.5 1884.5,-224.5"/>
<text text-anchor="middle" x="1926" y="-231.5" font-family="FreeSans" font-size="10.00" fill="#000000">wx/dcmemory.h</text>
</g>
<!-- Node0&#45;&gt;Node137 -->
<g id="edge37" class="edge">
<title>Node0&#45;&gt;Node137</title>
<path fill="none" stroke="#191970" d="M1781.9117,-280.3733C1810.8452,-271.0613 1854.8611,-256.8953 1886.6293,-246.671"/>
<polygon fill="#191970" stroke="#191970" points="1888.0318,-249.8965 1896.4787,-243.5011 1885.8872,-243.2331 1888.0318,-249.8965"/>
</g>
<!-- Node138 -->
<g id="node29" class="node">
<title>Node138</title>
<g id="a_node29"><a xlink:href="appglobals_8h" target="_top" xlink:title="appglobals.h">
<polygon fill="none" stroke="#000000" points="0,-56.5 0,-75.5 70,-75.5 70,-56.5 0,-56.5"/>
<text text-anchor="middle" x="35" y="-63.5" font-family="FreeSans" font-size="10.00" fill="#000000">appglobals.h</text>
</a>
</g>
</g>
<!-- Node0&#45;&gt;Node138 -->
<g id="edge39" class="edge">
<title>Node0&#45;&gt;Node138</title>
<path fill="none" stroke="#191970" d="M1716.2808,-287.3591C1626.9972,-280.6999 1386.9181,-262.4355 1187,-244 703.3831,-199.4032 537.7717,-342.3096 100,-132 77.703,-121.2883 58.7347,-99.6227 47.1442,-84.0329"/>
<polygon fill="#191970" stroke="#191970" points="49.8529,-81.8027 41.203,-75.6847 44.1497,-85.8615 49.8529,-81.8027"/>
</g>
<!-- Node139 -->
<g id="node30" class="node">
<title>Node139</title>
<g id="a_node30"><a xlink:href="dlgabout_8h" target="_top" xlink:title="dlgabout.h">
<polygon fill="none" stroke="#000000" points="1672.5,-168.5 1672.5,-187.5 1733.5,-187.5 1733.5,-168.5 1672.5,-168.5"/>
<text text-anchor="middle" x="1703" y="-175.5" font-family="FreeSans" font-size="10.00" fill="#000000">dlgabout.h</text>
</a>
</g>
</g>
<!-- Node0&#45;&gt;Node139 -->
<g id="edge42" class="edge">
<title>Node0&#45;&gt;Node139</title>
<path fill="none" stroke="#191970" d="M1747.8223,-280.4509C1739.722,-261.936 1721.7508,-220.8591 1711.1894,-196.7187"/>
<polygon fill="#191970" stroke="#191970" points="1714.3819,-195.2836 1707.1671,-187.5249 1707.9688,-198.0894 1714.3819,-195.2836"/>
</g>
<!-- Node140 -->
<g id="node31" class="node">
<title>Node140</title>
<g id="a_node31"><a xlink:href="splashscreen_8h" target="_top" xlink:title="splashscreen.h">
<polygon fill="none" stroke="#000000" points="1986,-224.5 1986,-243.5 2066,-243.5 2066,-224.5 1986,-224.5"/>
<text text-anchor="middle" x="2026" y="-231.5" font-family="FreeSans" font-size="10.00" fill="#000000">splashscreen.h</text>
</a>
</g>
</g>
<!-- Node0&#45;&gt;Node140 -->
<g id="edge45" class="edge">
<title>Node0&#45;&gt;Node140</title>
<path fill="none" stroke="#191970" d="M1787.5398,-282.7364C1835.523,-272.9296 1921.2836,-255.4019 1975.8216,-244.2554"/>
<polygon fill="#191970" stroke="#191970" points="1976.529,-247.6833 1985.6256,-242.2517 1975.1273,-240.8251 1976.529,-247.6833"/>
</g>
<!-- Node2 -->
<g id="node3" class="node">
<title>Node2</title>
<g id="a_node3"><a xlink:href="sdk__common_8h" target="_top" xlink:title="sdk_common.h">
<polygon fill="none" stroke="#ff0000" points="914,-168.5 914,-187.5 996,-187.5 996,-168.5 914,-168.5"/>
<text text-anchor="middle" x="955" y="-175.5" font-family="FreeSans" font-size="10.00" fill="#000000">sdk_common.h</text>
</a>
</g>
</g>
<!-- Node1&#45;&gt;Node2 -->
<g id="edge2" class="edge">
<title>Node1&#45;&gt;Node2</title>
<path fill="none" stroke="#191970" d="M1196.3826,-229.7909C1156.4568,-221.2244 1064.6176,-201.5195 1006.4338,-189.0356"/>
<polygon fill="#191970" stroke="#191970" points="1006.8477,-185.5448 996.336,-186.869 1005.3792,-192.3891 1006.8477,-185.5448"/>
</g>
<!-- Node3 -->
<g id="node4" class="node">
<title>Node3</title>
<polygon fill="none" stroke="#bfbfbf" points="220,-112.5 220,-131.5 288,-131.5 288,-112.5 220,-112.5"/>
<text text-anchor="middle" x="254" y="-119.5" font-family="FreeSans" font-size="10.00" fill="#000000">wx/wxprec.h</text>
</g>
<!-- Node2&#45;&gt;Node3 -->
<g id="edge3" class="edge">
<title>Node2&#45;&gt;Node3</title>
<path fill="none" stroke="#191970" d="M913.9427,-177.389C811.5342,-175.3834 536.5192,-167.0391 298.41,-131.9898"/>
<polygon fill="#191970" stroke="#191970" points="298.5801,-128.4765 288.1732,-130.4629 297.5474,-135.3999 298.5801,-128.4765"/>
</g>
<!-- Node4 -->
<g id="node5" class="node">
<title>Node4</title>
<g id="a_node5"><a xlink:href="prep_8h" target="_top" xlink:title="prep.h">
<polygon fill="none" stroke="#000000" points="306.5,-112.5 306.5,-131.5 349.5,-131.5 349.5,-112.5 306.5,-112.5"/>
<text text-anchor="middle" x="328" y="-119.5" font-family="FreeSans" font-size="10.00" fill="#000000">prep.h</text>
</a>
</g>
</g>
<!-- Node2&#45;&gt;Node4 -->
<g id="edge4" class="edge">
<title>Node2&#45;&gt;Node4</title>
<path fill="none" stroke="#191970" d="M913.8168,-177.5232C817.1062,-175.812 568.2302,-167.9648 364,-132 362.5227,-131.7398 361.0185,-131.4451 359.5044,-131.1241"/>
<polygon fill="#191970" stroke="#191970" points="360.0895,-127.6647 349.5468,-128.7141 358.4428,-134.4683 360.0895,-127.6647"/>
</g>
<!-- Node5 -->
<g id="node6" class="node">
<title>Node5</title>
<polygon fill="none" stroke="#bfbfbf" points="406,-112.5 406,-131.5 460,-131.5 460,-112.5 406,-112.5"/>
<text text-anchor="middle" x="433" y="-119.5" font-family="FreeSans" font-size="10.00" fill="#000000">wx/app.h</text>
</g>
<!-- Node2&#45;&gt;Node5 -->
<g id="edge5" class="edge">
<title>Node2&#45;&gt;Node5</title>
<path fill="none" stroke="#191970" d="M913.6989,-176.5497C831.0489,-173.1189 639.4153,-162.5112 469.8561,-131.861"/>
<polygon fill="#191970" stroke="#191970" points="470.4748,-128.4162 460.0072,-130.0533 469.211,-135.3012 470.4748,-128.4162"/>
</g>
<!-- Node6 -->
<g id="node7" class="node">
<title>Node6</title>
<polygon fill="none" stroke="#bfbfbf" points="478,-112.5 478,-131.5 538,-131.5 538,-112.5 478,-112.5"/>
<text text-anchor="middle" x="508" y="-119.5" font-family="FreeSans" font-size="10.00" fill="#000000">wx/arrstr.h</text>
</g>
<!-- Node2&#45;&gt;Node6 -->
<g id="edge6" class="edge">
<title>Node2&#45;&gt;Node6</title>
<path fill="none" stroke="#191970" d="M913.8974,-175.2613C841.7392,-170.0433 687.4842,-157.0606 548.1472,-131.9948"/>
<polygon fill="#191970" stroke="#191970" points="548.6079,-128.5211 538.142,-130.1691 547.3513,-135.4074 548.6079,-128.5211"/>
</g>
<!-- Node7 -->
<g id="node8" class="node">
<title>Node7</title>
<polygon fill="none" stroke="#bfbfbf" points="556.5,-112.5 556.5,-131.5 635.5,-131.5 635.5,-112.5 556.5,-112.5"/>
<text text-anchor="middle" x="596" y="-119.5" font-family="FreeSans" font-size="10.00" fill="#000000">wx/bmpbuttn.h</text>
</g>
<!-- Node2&#45;&gt;Node7 -->
<g id="edge7" class="edge">
<title>Node2&#45;&gt;Node7</title>
<path fill="none" stroke="#191970" d="M913.9846,-172.2582C855.3603,-163.9503 744.2668,-147.8325 650,-132 648.7042,-131.7824 647.3914,-131.5592 646.0672,-131.3317"/>
<polygon fill="#191970" stroke="#191970" points="646.2402,-127.8085 635.7851,-129.5233 645.0277,-134.7026 646.2402,-127.8085"/>
</g>
<!-- Node8 -->
<g id="node9" class="node">
<title>Node8</title>
<polygon fill="none" stroke="#bfbfbf" points="692.5,-112.5 692.5,-131.5 757.5,-131.5 757.5,-112.5 692.5,-112.5"/>
<text text-anchor="middle" x="725" y="-119.5" font-family="FreeSans" font-size="10.00" fill="#000000">wx/button.h</text>
</g>
<!-- Node2&#45;&gt;Node8 -->
<g id="edge8" class="edge">
<title>Node2&#45;&gt;Node8</title>
<path fill="none" stroke="#191970" d="M915.7229,-168.4369C874.5063,-158.4015 809.9286,-142.6783 767.5308,-132.3553"/>
<polygon fill="#191970" stroke="#191970" points="768.3291,-128.9475 757.7849,-129.9824 766.6731,-135.7488 768.3291,-128.9475"/>
</g>
<!-- Node9 -->
<g id="node10" class="node">
<title>Node9</title>
<polygon fill="none" stroke="#bfbfbf" points="776,-112.5 776,-131.5 856,-131.5 856,-112.5 776,-112.5"/>
<text text-anchor="middle" x="816" y="-119.5" font-family="FreeSans" font-size="10.00" fill="#000000">wx/checkbox.h</text>
</g>
<!-- Node2&#45;&gt;Node9 -->
<g id="edge9" class="edge">
<title>Node2&#45;&gt;Node9</title>
<path fill="none" stroke="#191970" d="M931.105,-168.3733C908.4918,-159.2629 874.3458,-145.5062 849.1127,-135.3404"/>
<polygon fill="#191970" stroke="#191970" points="850.1666,-131.9917 839.5831,-131.5011 847.5507,-138.4845 850.1666,-131.9917"/>
</g>
<!-- Node10 -->
<g id="node11" class="node">
<title>Node10</title>
<polygon fill="none" stroke="#bfbfbf" points="874,-112.5 874,-131.5 948,-131.5 948,-112.5 874,-112.5"/>
<text text-anchor="middle" x="911" y="-119.5" font-family="FreeSans" font-size="10.00" fill="#000000">wx/checklst.h</text>
</g>
<!-- Node2&#45;&gt;Node10 -->
<g id="edge10" class="edge">
<title>Node2&#45;&gt;Node10</title>
<path fill="none" stroke="#191970" d="M947.3358,-168.2455C941.1527,-160.3761 932.2937,-149.101 924.8711,-139.6542"/>
<polygon fill="#191970" stroke="#191970" points="927.5068,-137.3435 918.5764,-131.6427 922.0025,-141.6683 927.5068,-137.3435"/>
</g>
<!-- Node11 -->
<g id="node12" class="node">
<title>Node11</title>
<polygon fill="none" stroke="#bfbfbf" points="966.5,-112.5 966.5,-131.5 1033.5,-131.5 1033.5,-112.5 966.5,-112.5"/>
<text text-anchor="middle" x="1000" y="-119.5" font-family="FreeSans" font-size="10.00" fill="#000000">wx/choice.h</text>
</g>
<!-- Node2&#45;&gt;Node11 -->
<g id="edge11" class="edge">
<title>Node2&#45;&gt;Node11</title>
<path fill="none" stroke="#191970" d="M962.8384,-168.2455C969.162,-160.3761 978.2224,-149.101 985.8136,-139.6542"/>
<polygon fill="#191970" stroke="#191970" points="988.7158,-141.6302 992.2514,-131.6427 983.2592,-137.2454 988.7158,-141.6302"/>
</g>
<!-- Node12 -->
<g id="node13" class="node">
<title>Node12</title>
<polygon fill="none" stroke="#bfbfbf" points="1090,-112.5 1090,-131.5 1164,-131.5 1164,-112.5 1090,-112.5"/>
<text text-anchor="middle" x="1127" y="-119.5" font-family="FreeSans" font-size="10.00" fill="#000000">wx/choicdlg.h</text>
</g>
<!-- Node2&#45;&gt;Node12 -->
<g id="edge12" class="edge">
<title>Node2&#45;&gt;Node12</title>
<path fill="none" stroke="#191970" d="M984.5679,-168.3733C1013.1688,-159.0613 1056.6788,-144.8953 1088.0819,-134.671"/>
<polygon fill="#191970" stroke="#191970" points="1089.3928,-137.9251 1097.818,-131.5011 1087.2257,-131.269 1089.3928,-137.9251"/>
</g>
<!-- Node13 -->
<g id="node14" class="node">
<title>Node13</title>
<polygon fill="none" stroke="#bfbfbf" points="1182,-112.5 1182,-131.5 1254,-131.5 1254,-112.5 1182,-112.5"/>
<text text-anchor="middle" x="1218" y="-119.5" font-family="FreeSans" font-size="10.00" fill="#000000">wx/colordlg.h</text>
</g>
<!-- Node2&#45;&gt;Node13 -->
<g id="edge13" class="edge">
<title>Node2&#45;&gt;Node13</title>
<path fill="none" stroke="#191970" d="M996.0105,-169.483C1037.7944,-160.775 1104.7345,-146.7408 1171.7699,-132.2515"/>
<polygon fill="#191970" stroke="#191970" points="1172.6249,-135.6476 1181.658,-130.111 1171.1439,-128.806 1172.6249,-135.6476"/>
</g>
<!-- Node14 -->
<g id="node15" class="node">
<title>Node14</title>
<polygon fill="none" stroke="#bfbfbf" points="1272.5,-112.5 1272.5,-131.5 1355.5,-131.5 1355.5,-112.5 1272.5,-112.5"/>
<text text-anchor="middle" x="1314" y="-119.5" font-family="FreeSans" font-size="10.00" fill="#000000">wx/combobox.h</text>
</g>
<!-- Node2&#45;&gt;Node14 -->
<g id="edge14" class="edge">
<title>Node2&#45;&gt;Node14</title>
<path fill="none" stroke="#191970" d="M996.4447,-172.4187C1053.7678,-164.5654 1160.7219,-149.4324 1262.1661,-132.081"/>
<polygon fill="#191970" stroke="#191970" points="1263.0185,-135.4858 1272.2799,-130.3404 1261.8312,-128.5872 1263.0185,-135.4858"/>
</g>
<!-- Node15 -->
<g id="node16" class="node">
<title>Node15</title>
<polygon fill="none" stroke="#bfbfbf" points="1373.5,-112.5 1373.5,-131.5 1450.5,-131.5 1450.5,-112.5 1373.5,-112.5"/>
<text text-anchor="middle" x="1412" y="-119.5" font-family="FreeSans" font-size="10.00" fill="#000000">wx/confbase.h</text>
</g>
<!-- Node2&#45;&gt;Node15 -->
<g id="edge15" class="edge">
<title>Node2&#45;&gt;Node15</title>
<path fill="none" stroke="#191970" d="M996.0983,-174.6574C1068.2717,-168.5097 1222.6606,-154.1221 1363.1918,-131.9959"/>
<polygon fill="#191970" stroke="#191970" points="1363.9593,-135.4179 1373.2848,-130.3894 1362.8589,-128.5049 1363.9593,-135.4179"/>
</g>
<!-- Node16 -->
<g id="node17" class="node">
<title>Node16</title>
<polygon fill="none" stroke="#bfbfbf" points="126,-112.5 126,-131.5 202,-131.5 202,-112.5 126,-112.5"/>
<text text-anchor="middle" x="164" y="-119.5" font-family="FreeSans" font-size="10.00" fill="#000000">wx/datetime.h</text>
</g>
<!-- Node2&#45;&gt;Node16 -->
<g id="edge16" class="edge">
<title>Node2&#45;&gt;Node16</title>
<path fill="none" stroke="#191970" d="M913.6554,-177.584C801.9911,-176.0053 484.9319,-168.5128 212.226,-131.9752"/>
<polygon fill="#191970" stroke="#191970" points="212.5162,-128.4826 202.1366,-130.6072 211.5757,-135.4191 212.5162,-128.4826"/>
</g>
<!-- Node28 -->
<g id="node18" class="node">
<title>Node28</title>
<polygon fill="none" stroke="#bfbfbf" points="1470.5,-56.5 1470.5,-75.5 1547.5,-75.5 1547.5,-56.5 1470.5,-56.5"/>
<text text-anchor="middle" x="1509" y="-63.5" font-family="FreeSans" font-size="10.00" fill="#000000">wx/hashmap.h</text>
</g>
<!-- Node2&#45;&gt;Node28 -->
<g id="edge17" class="edge">
<title>Node2&#45;&gt;Node28</title>
<path fill="none" stroke="#191970" d="M973.0876,-168.4145C1007.253,-150.3238 1078.135,-112.8699 1081,-112 1150.8582,-90.7885 1363.3871,-75.1603 1460.1211,-68.9483"/>
<polygon fill="#191970" stroke="#191970" points="1460.4634,-72.4337 1470.2215,-68.3069 1460.0198,-65.4477 1460.4634,-72.4337"/>
</g>
<!-- Node31 -->
<g id="node19" class="node">
<title>Node31</title>
<polygon fill="none" stroke="#bfbfbf" points="72.5,-.5 72.5,-19.5 123.5,-19.5 123.5,-.5 72.5,-.5"/>
<text text-anchor="middle" x="98" y="-7.5" font-family="FreeSans" font-size="10.00" fill="#000000">wx/intl.h</text>
</g>
<!-- Node2&#45;&gt;Node31 -->
<g id="edge18" class="edge">
<title>Node2&#45;&gt;Node31</title>
<path fill="none" stroke="#191970" d="M913.9649,-177.1702C749.6838,-173.6669 146.8441,-159.0088 117,-132 88.6429,-106.337 90.5836,-57.186 94.3642,-29.7521"/>
<polygon fill="#191970" stroke="#191970" points="97.8379,-30.1943 95.9572,-19.7677 90.9253,-29.0913 97.8379,-30.1943"/>
</g>
<!-- Node2&#45;&gt;Node51 -->
<g id="edge19" class="edge">
<title>Node2&#45;&gt;Node51</title>
<path fill="none" stroke="#191970" d="M996.0672,-176.4564C1133.7662,-171.1508 1579.2089,-152.9031 1744.4296,-131.8158"/>
<polygon fill="#191970" stroke="#191970" points="1744.9811,-135.2734 1754.4334,-130.4876 1744.0597,-128.3343 1744.9811,-135.2734"/>
</g>
<!-- Node53 -->
<g id="node21" class="node">
<title>Node53</title>
<polygon fill="none" stroke="#bfbfbf" points="347,-.5 347,-19.5 409,-19.5 409,-.5 347,-.5"/>
<text text-anchor="middle" x="378" y="-7.5" font-family="FreeSans" font-size="10.00" fill="#000000">wx/string.h</text>
</g>
<!-- Node2&#45;&gt;Node53 -->
<g id="edge20" class="edge">
<title>Node2&#45;&gt;Node53</title>
<path fill="none" stroke="#191970" d="M913.691,-177.4867C790.9513,-175.568 434.6316,-167.0065 397,-132 368.9973,-105.9507 370.7984,-56.9519 374.4619,-29.6457"/>
<polygon fill="#191970" stroke="#191970" points="377.9284,-30.1307 376.0091,-19.7112 371.0118,-29.0535 377.9284,-30.1307"/>
</g>
<!-- Node71 -->
<g id="node22" class="node">
<title>Node71</title>
<g id="a_node22"><a xlink:href="settings_8h" target="_top" xlink:title="settings.h">
<polygon fill="none" stroke="#000000" points="1547.5,-.5 1547.5,-19.5 1604.5,-19.5 1604.5,-.5 1547.5,-.5"/>
<text text-anchor="middle" x="1576" y="-7.5" font-family="FreeSans" font-size="10.00" fill="#000000">settings.h</text>
</a>
</g>
</g>
<!-- Node2&#45;&gt;Node71 -->
<g id="edge21" class="edge">
<title>Node2&#45;&gt;Node71</title>
<path fill="none" stroke="#191970" d="M996.1401,-177.3133C1110.7898,-174.9816 1427.5671,-165.5356 1459,-132 1482.1074,-107.3468 1441.6902,-83.7283 1461,-56 1478.2491,-31.2308 1511.1564,-19.7944 1537.3651,-14.5164"/>
<polygon fill="#191970" stroke="#191970" points="1538.1678,-17.9285 1547.3958,-12.7234 1536.9359,-11.0378 1538.1678,-17.9285"/>
</g>
<!-- Node72 -->
<g id="node23" class="node">
<title>Node72</title>
<g id="a_node23"><a xlink:href="globals_8h" target="_top" xlink:title="globals.h">
<polygon fill="none" stroke="#ff0000" points="999,-56.5 999,-75.5 1053,-75.5 1053,-56.5 999,-56.5"/>
<text text-anchor="middle" x="1026" y="-63.5" font-family="FreeSans" font-size="10.00" fill="#000000">globals.h</text>
</a>
</g>
</g>
<!-- Node2&#45;&gt;Node72 -->
<g id="edge22" class="edge">
<title>Node2&#45;&gt;Node72</title>
<path fill="none" stroke="#191970" d="M913.8693,-173.958C841.5291,-166.4316 697.7417,-149.4441 683,-132 677.2625,-125.2108 677.1472,-118.6901 683,-112 702.9172,-89.2334 903.7617,-73.8194 988.5489,-68.2789"/>
<polygon fill="#191970" stroke="#191970" points="989.0128,-71.7564 998.7678,-67.6224 988.5639,-64.7708 989.0128,-71.7564"/>
</g>
<!-- Node107 -->
<g id="node25" class="node">
<title>Node107</title>
<g id="a_node25"><a xlink:href="scrollingdialog_8h" target="_top" xlink:title="scrollingdialog.h">
<polygon fill="none" stroke="#ff0000" points="1651.5,-112.5 1651.5,-131.5 1736.5,-131.5 1736.5,-112.5 1651.5,-112.5"/>
<text text-anchor="middle" x="1694" y="-119.5" font-family="FreeSans" font-size="10.00" fill="#000000">scrollingdialog.h</text>
</a>
</g>
</g>
<!-- Node2&#45;&gt;Node107 -->
<g id="edge27" class="edge">
<title>Node2&#45;&gt;Node107</title>
<path fill="none" stroke="#191970" d="M996.2719,-176.7457C1102.7269,-173.1793 1395.1926,-161.2818 1637,-132 1638.4649,-131.8226 1639.9494,-131.6326 1641.4464,-131.4321"/>
<polygon fill="#191970" stroke="#191970" points="1642.041,-134.8826 1651.432,-129.9775 1641.0318,-127.9557 1642.041,-134.8826"/>
</g>
<!-- Node88 -->
<g id="node26" class="node">
<title>Node88</title>
<g id="a_node26"><a xlink:href="manager_8h" target="_top" xlink:title="manager.h">
<polygon fill="none" stroke="#ff0000" points="1604,-56.5 1604,-75.5 1666,-75.5 1666,-56.5 1604,-56.5"/>
<text text-anchor="middle" x="1635" y="-63.5" font-family="FreeSans" font-size="10.00" fill="#000000">manager.h</text>
</a>
</g>
</g>
<!-- Node2&#45;&gt;Node88 -->
<g id="edge29" class="edge">
<title>Node2&#45;&gt;Node88</title>
<path fill="none" stroke="#191970" d="M996.1461,-177.4459C1130.8448,-175.3092 1552.8589,-165.9444 1603,-132 1618.6132,-121.4303 1626.8703,-101.0092 1631.0577,-85.668"/>
<polygon fill="#191970" stroke="#191970" points="1634.5412,-86.1453 1633.4344,-75.6084 1627.7288,-84.5357 1634.5412,-86.1453"/>
</g>
<!-- Node2&#45;&gt;Node111 -->
<g id="edge31" class="edge">
<title>Node2&#45;&gt;Node111</title>
<path fill="none" stroke="#191970" d="M996.3001,-175.6759C1086.6309,-170.3283 1308.4417,-155.7561 1493,-132 1494.4568,-131.8125 1495.9329,-131.6145 1497.4215,-131.4078"/>
<polygon fill="#191970" stroke="#191970" points="1497.977,-134.8638 1507.356,-129.936 1496.9511,-127.9394 1497.977,-134.8638"/>
</g>
<!-- Node72&#45;&gt;Node31 -->
<g id="edge24" class="edge">
<title>Node72&#45;&gt;Node31</title>
<path fill="none" stroke="#191970" d="M998.979,-64.3694C866.2956,-56.3627 284.0953,-21.2299 133.6069,-12.1487"/>
<polygon fill="#191970" stroke="#191970" points="133.7226,-8.6494 123.5299,-11.5406 133.3009,-15.6367 133.7226,-8.6494"/>
</g>
<!-- Node72&#45;&gt;Node53 -->
<g id="edge23" class="edge">
<title>Node72&#45;&gt;Node53</title>
<path fill="none" stroke="#191970" d="M998.9812,-63.665C897.8533,-54.9256 541.2605,-24.1089 419.2785,-13.5673"/>
<polygon fill="#191970" stroke="#191970" points="419.487,-10.0723 409.2228,-12.6983 418.8843,-17.0463 419.487,-10.0723"/>
</g>
<!-- Node72&#45;&gt;Node71 -->
<g id="edge26" class="edge">
<title>Node72&#45;&gt;Node71</title>
<path fill="none" stroke="#191970" d="M1053.2746,-63.223C1143.3846,-54.0481 1431.7839,-24.6838 1537.0599,-13.9648"/>
<polygon fill="#191970" stroke="#191970" points="1537.6491,-17.423 1547.2431,-12.928 1536.9399,-10.459 1537.6491,-17.423"/>
</g>
<!-- Node72&#45;&gt;Node74 -->
<g id="edge25" class="edge">
<title>Node72&#45;&gt;Node74</title>
<path fill="none" stroke="#191970" d="M1053.2845,-63.9069C1163.2723,-55.4695 1574.725,-23.906 1711.4868,-13.4147"/>
<polygon fill="#191970" stroke="#191970" points="1711.9031,-16.8931 1721.6061,-12.6384 1711.3677,-9.9137 1711.9031,-16.8931"/>
</g>
<!-- Node107&#45;&gt;Node71 -->
<g id="edge28" class="edge">
<title>Node107&#45;&gt;Node71</title>
<path fill="none" stroke="#191970" d="M1693.6613,-112.3138C1692.6812,-98.3096 1688.9585,-72.3035 1675,-56 1659.4289,-37.8131 1635.1179,-26.374 1614.4844,-19.4518"/>
<polygon fill="#191970" stroke="#191970" points="1615.2935,-16.038 1604.7051,-16.4067 1613.2123,-22.7215 1615.2935,-16.038"/>
</g>
<!-- Node88&#45;&gt;Node71 -->
<g id="edge30" class="edge">
<title>Node88&#45;&gt;Node71</title>
<path fill="none" stroke="#191970" d="M1624.723,-56.2455C1616.1782,-48.1352 1603.8222,-36.4075 1593.6915,-26.7919"/>
<polygon fill="#191970" stroke="#191970" points="1595.8218,-23.9884 1586.1592,-19.6427 1591.0028,-29.0655 1595.8218,-23.9884"/>
</g>
<!-- Node111&#45;&gt;Node28 -->
<g id="edge32" class="edge">
<title>Node111&#45;&gt;Node28</title>
<path fill="none" stroke="#191970" d="M1543.6842,-112.2455C1537.7821,-104.3761 1529.3258,-93.101 1522.2406,-83.6542"/>
<polygon fill="#191970" stroke="#191970" points="1525.0321,-81.5427 1516.232,-75.6427 1519.432,-85.7427 1525.0321,-81.5427"/>
</g>
<!-- Node111&#45;&gt;Node71 -->
<g id="edge33" class="edge">
<title>Node111&#45;&gt;Node71</title>
<path fill="none" stroke="#191970" d="M1553.1315,-112.4509C1557.2274,-94.1013 1566.2699,-53.5908 1571.6765,-29.3693"/>
<polygon fill="#191970" stroke="#191970" points="1575.1112,-30.0472 1573.8739,-19.5249 1568.2794,-28.5222 1575.1112,-30.0472"/>
</g>
<!-- Node111&#45;&gt;Node72 -->
<g id="edge34" class="edge">
<title>Node111&#45;&gt;Node72</title>
<path fill="none" stroke="#191970" d="M1507.4789,-117.2475C1492.1563,-115.5801 1474.8146,-113.6995 1459,-112 1312.8533,-96.2943 1138.9238,-77.9101 1063.7228,-69.9763"/>
<polygon fill="#191970" stroke="#191970" points="1063.671,-66.4515 1053.359,-68.8832 1062.9366,-73.4129 1063.671,-66.4515"/>
</g>
<!-- Node111&#45;&gt;Node88 -->
<g id="edge35" class="edge">
<title>Node111&#45;&gt;Node88</title>
<path fill="none" stroke="#191970" d="M1565.6317,-112.2455C1578.3994,-103.7337 1597.1438,-91.2375 1611.9299,-81.3801"/>
<polygon fill="#191970" stroke="#191970" points="1614.1569,-84.1019 1620.536,-75.6427 1610.274,-78.2775 1614.1569,-84.1019"/>
</g>
<!-- Node138&#45;&gt;Node31 -->
<g id="edge41" class="edge">
<title>Node138&#45;&gt;Node31</title>
<path fill="none" stroke="#191970" d="M45.9738,-56.2455C55.1882,-48.0549 68.5532,-36.1749 79.4297,-26.5069"/>
<polygon fill="#191970" stroke="#191970" points="82.0032,-28.9023 87.152,-19.6427 77.3526,-23.6704 82.0032,-28.9023"/>
</g>
<!-- Node138&#45;&gt;Node53 -->
<g id="edge40" class="edge">
<title>Node138&#45;&gt;Node53</title>
<path fill="none" stroke="#191970" d="M70.0951,-60.2702C133.9197,-49.8498 268.6747,-27.849 336.7664,-16.732"/>
<polygon fill="#191970" stroke="#191970" points="337.4018,-20.1747 346.7071,-15.109 336.2738,-13.2662 337.4018,-20.1747"/>
</g>
<!-- Node139&#45;&gt;Node107 -->
<g id="edge43" class="edge">
<title>Node139&#45;&gt;Node107</title>
<path fill="none" stroke="#191970" d="M1701.4323,-168.2455C1700.2579,-160.9382 1698.6116,-150.6944 1697.1668,-141.7046"/>
<polygon fill="#191970" stroke="#191970" points="1700.5922,-140.9606 1695.5497,-131.6427 1693.6809,-142.0714 1700.5922,-140.9606"/>
</g>
<!-- Node141 -->
<g id="node32" class="node">
<title>Node141</title>
<polygon fill="none" stroke="#bfbfbf" points="1993.5,-168.5 1993.5,-187.5 2058.5,-187.5 2058.5,-168.5 1993.5,-168.5"/>
<text text-anchor="middle" x="2026" y="-175.5" font-family="FreeSans" font-size="10.00" fill="#000000">wx/splash.h</text>
</g>
<!-- Node140&#45;&gt;Node141 -->
<g id="edge46" class="edge">
<title>Node140&#45;&gt;Node141</title>
<path fill="none" stroke="#191970" d="M2026,-224.2455C2026,-216.9382 2026,-206.6944 2026,-197.7046"/>
<polygon fill="#191970" stroke="#191970" points="2029.5001,-197.6426 2026,-187.6427 2022.5001,-197.6427 2029.5001,-197.6426"/>
</g>
</g>
</svg>
