<?xml version="1.0" encoding="UTF-8" standalone="no"?>
<!DOCTYPE svg PUBLIC "-//W3C//DTD SVG 1.1//EN"
 "http://www.w3.org/Graphics/SVG/1.1/DTD/svg11.dtd">
<!-- Generated by graphviz version 2.38.0 (20140413.2041)
 -->
<!-- Title: Managers Pages: 1 -->
<svg width="207pt" height="408pt"
 viewBox="0.00 0.00 207.00 408.00" xmlns="http://www.w3.org/2000/svg" xmlns:xlink="http://www.w3.org/1999/xlink">
<g id="graph0" class="graph" transform="scale(1 1) rotate(0) translate(4 404)">
<title>Managers</title>
<polygon fill="white" stroke="none" points="-4,4 -4,-404 203,-404 203,4 -4,4"/>
<!-- a -->
<g id="node1" class="node"><title>a</title>
<g id="a_node1"><a xlink:href="classMgr.xhtml" target="_top" xlink:title="Singleton base for managers.">
<polygon fill="none" stroke="black" points="0,-190.5 0,-209.5 68,-209.5 68,-190.5 0,-190.5"/>
<text text-anchor="middle" x="34" y="-197.5" font-family="FreeSans" font-size="10.00">Mgr&lt;MgrT&gt;</text>
</a>
</g>
</g>
<!-- b -->
<g id="node2" class="node"><title>b</title>
<g id="a_node2"><a xlink:href="classCCManager.xhtml" target="_top" xlink:title="Governs access and shared code&#45;completion functions.">
<polygon fill="none" stroke="black" points="117.5,-380.5 117.5,-399.5 185.5,-399.5 185.5,-380.5 117.5,-380.5"/>
<text text-anchor="middle" x="151.5" y="-387.5" font-family="FreeSans" font-size="10.00">CCManager</text>
</a>
</g>
</g>
<!-- a&#45;&gt;b -->
<g id="edge1" class="edge"><title>a&#45;&gt;b</title>
<path fill="none" stroke="MidnightBlue" d="M37.8775,-219.88C43.9415,-254.912 61.1813,-327.994 104,-371 107.815,-374.832 112.509,-377.922 117.434,-380.405"/>
<polygon fill="MidnightBlue" stroke="MidnightBlue" points="41.2622,-218.879 36.2287,-209.556 34.3498,-219.983 41.2622,-218.879"/>
</g>
<!-- c -->
<g id="node3" class="node"><title>c</title>
<g id="a_node3"><a xlink:href="classColourManager.xhtml" target="_top" xlink:title="Manages configurable colour settings.">
<polygon fill="none" stroke="black" points="110.5,-342.5 110.5,-361.5 192.5,-361.5 192.5,-342.5 110.5,-342.5"/>
<text text-anchor="middle" x="151.5" y="-349.5" font-family="FreeSans" font-size="10.00">ColourManager</text>
</a>
</g>
</g>
<!-- a&#45;&gt;c -->
<g id="edge2" class="edge"><title>a&#45;&gt;c</title>
<path fill="none" stroke="MidnightBlue" d="M40.3605,-219.434C49.1602,-247.975 69.2537,-301.27 104,-333 108.121,-336.764 113.088,-339.833 118.22,-342.32"/>
<polygon fill="MidnightBlue" stroke="MidnightBlue" points="43.7086,-218.413 37.5339,-209.804 36.992,-220.385 43.7086,-218.413"/>
</g>
<!-- d -->
<g id="node4" class="node"><title>d</title>
<g id="a_node4"><a xlink:href="classConfigManager.xhtml" target="_top" xlink:title="Unified settings storage.">
<polygon fill="none" stroke="black" points="111,-304.5 111,-323.5 192,-323.5 192,-304.5 111,-304.5"/>
<text text-anchor="middle" x="151.5" y="-311.5" font-family="FreeSans" font-size="10.00">ConfigManager</text>
</a>
</g>
</g>
<!-- a&#45;&gt;d -->
<g id="edge3" class="edge"><title>a&#45;&gt;d</title>
<path fill="none" stroke="MidnightBlue" d="M44.4109,-218.663C55.8937,-239.768 77.141,-273.927 104,-295 108.803,-298.768 114.456,-301.896 120.135,-304.452"/>
<polygon fill="MidnightBlue" stroke="MidnightBlue" points="47.4604,-216.942 39.7065,-209.722 41.2655,-220.202 47.4604,-216.942"/>
</g>
<!-- e -->
<g id="node5" class="node"><title>e</title>
<g id="a_node5"><a xlink:href="classDebuggerManager.xhtml" target="_top" xlink:title="Handles debugger plugins.">
<polygon fill="none" stroke="black" points="104,-266.5 104,-285.5 199,-285.5 199,-266.5 104,-266.5"/>
<text text-anchor="middle" x="151.5" y="-273.5" font-family="FreeSans" font-size="10.00">DebuggerManager</text>
</a>
</g>
</g>
<!-- a&#45;&gt;e -->
<g id="edge4" class="edge"><title>a&#45;&gt;e</title>
<path fill="none" stroke="MidnightBlue" d="M52.0137,-216.564C65.3423,-228.891 84.7871,-245.505 104,-257 109.987,-260.582 116.773,-263.781 123.274,-266.486"/>
<polygon fill="MidnightBlue" stroke="MidnightBlue" points="54.2351,-213.847 44.5618,-209.526 49.4287,-218.936 54.2351,-213.847"/>
</g>
<!-- f -->
<g id="node6" class="node"><title>f</title>
<g id="a_node6"><a xlink:href="classEditorManager.xhtml" target="_top" xlink:title="Handles open editors.">
<polygon fill="none" stroke="black" points="112,-228.5 112,-247.5 191,-247.5 191,-228.5 112,-228.5"/>
<text text-anchor="middle" x="151.5" y="-235.5" font-family="FreeSans" font-size="10.00">EditorManager</text>
</a>
</g>
</g>
<!-- a&#45;&gt;f -->
<g id="edge5" class="edge"><title>a&#45;&gt;f</title>
<path fill="none" stroke="MidnightBlue" d="M73.9841,-212.826C89.4817,-217.925 107.002,-223.689 121.364,-228.414"/>
<polygon fill="MidnightBlue" stroke="MidnightBlue" points="74.7385,-209.39 64.1455,-209.589 72.5508,-216.039 74.7385,-209.39"/>
</g>
<!-- g -->
<g id="node7" class="node"><title>g</title>
<g id="a_node7"><a xlink:href="classFileManager.xhtml" target="_top" xlink:title="Manages low level file access.">
<polygon fill="none" stroke="black" points="116.5,-190.5 116.5,-209.5 186.5,-209.5 186.5,-190.5 116.5,-190.5"/>
<text text-anchor="middle" x="151.5" y="-197.5" font-family="FreeSans" font-size="10.00">FileManager</text>
</a>
</g>
</g>
<!-- a&#45;&gt;g -->
<g id="edge6" class="edge"><title>a&#45;&gt;g</title>
<path fill="none" stroke="MidnightBlue" d="M78.3236,-200C90.8344,-200 104.31,-200 116.192,-200"/>
<polygon fill="MidnightBlue" stroke="MidnightBlue" points="78.0977,-196.5 68.0977,-200 78.0976,-203.5 78.0977,-196.5"/>
</g>
<!-- h -->
<g id="node8" class="node"><title>h</title>
<g id="a_node8"><a xlink:href="classLogManager.xhtml" target="_top" xlink:title="Access shared logging functions.">
<polygon fill="none" stroke="black" points="116.5,-152.5 116.5,-171.5 186.5,-171.5 186.5,-152.5 116.5,-152.5"/>
<text text-anchor="middle" x="151.5" y="-159.5" font-family="FreeSans" font-size="10.00">LogManager</text>
</a>
</g>
</g>
<!-- a&#45;&gt;h -->
<g id="edge7" class="edge"><title>a&#45;&gt;h</title>
<path fill="none" stroke="MidnightBlue" d="M73.9841,-187.174C89.4817,-182.075 107.002,-176.311 121.364,-171.586"/>
<polygon fill="MidnightBlue" stroke="MidnightBlue" points="72.5508,-183.961 64.1455,-190.411 74.7385,-190.61 72.5508,-183.961"/>
</g>
<!-- i -->
<g id="node9" class="node"><title>i</title>
<g id="a_node9"><a xlink:href="classMacrosManager.xhtml" target="_top" xlink:title="Handles text replacement macros.">
<polygon fill="none" stroke="black" points="108.5,-114.5 108.5,-133.5 194.5,-133.5 194.5,-114.5 108.5,-114.5"/>
<text text-anchor="middle" x="151.5" y="-121.5" font-family="FreeSans" font-size="10.00">MacrosManager</text>
</a>
</g>
</g>
<!-- a&#45;&gt;i -->
<g id="edge8" class="edge"><title>a&#45;&gt;i</title>
<path fill="none" stroke="MidnightBlue" d="M52.0137,-183.436C65.3423,-171.109 84.7871,-154.495 104,-143 109.987,-139.418 116.773,-136.219 123.274,-133.514"/>
<polygon fill="MidnightBlue" stroke="MidnightBlue" points="49.4287,-181.064 44.5618,-190.474 54.2351,-186.153 49.4287,-181.064"/>
</g>
<!-- j -->
<g id="node10" class="node"><title>j</title>
<g id="a_node10"><a xlink:href="classPluginManager.xhtml" target="_top" xlink:title="Manages installed plugins.">
<polygon fill="none" stroke="black" points="111,-76.5 111,-95.5 192,-95.5 192,-76.5 111,-76.5"/>
<text text-anchor="middle" x="151.5" y="-83.5" font-family="FreeSans" font-size="10.00">PluginManager</text>
</a>
</g>
</g>
<!-- a&#45;&gt;j -->
<g id="edge9" class="edge"><title>a&#45;&gt;j</title>
<path fill="none" stroke="MidnightBlue" d="M44.4109,-181.337C55.8937,-160.232 77.141,-126.073 104,-105 108.803,-101.232 114.456,-98.1038 120.135,-95.5476"/>
<polygon fill="MidnightBlue" stroke="MidnightBlue" points="41.2655,-179.798 39.7065,-190.278 47.4604,-183.058 41.2655,-179.798"/>
</g>
<!-- k -->
<g id="node11" class="node"><title>k</title>
<g id="a_node11"><a xlink:href="classProjectManager.xhtml" target="_top" xlink:title="Manages projects and the workspace.">
<polygon fill="none" stroke="black" points="109,-38.5 109,-57.5 194,-57.5 194,-38.5 109,-38.5"/>
<text text-anchor="middle" x="151.5" y="-45.5" font-family="FreeSans" font-size="10.00">ProjectManager</text>
</a>
</g>
</g>
<!-- a&#45;&gt;k -->
<g id="edge10" class="edge"><title>a&#45;&gt;k</title>
<path fill="none" stroke="MidnightBlue" d="M40.3605,-180.566C49.1602,-152.025 69.2537,-98.7305 104,-67 108.121,-63.2363 113.088,-60.167 118.22,-57.68"/>
<polygon fill="MidnightBlue" stroke="MidnightBlue" points="36.992,-179.615 37.5339,-190.196 43.7086,-181.587 36.992,-179.615"/>
</g>
<!-- l -->
<g id="node12" class="node"><title>l</title>
<g id="a_node12"><a xlink:href="classScriptingManager.xhtml" target="_top" xlink:title="Handles script registration and usage.">
<polygon fill="none" stroke="black" points="105.5,-0.5 105.5,-19.5 197.5,-19.5 197.5,-0.5 105.5,-0.5"/>
<text text-anchor="middle" x="151.5" y="-7.5" font-family="FreeSans" font-size="10.00">ScriptingManager</text>
</a>
</g>
</g>
<!-- a&#45;&gt;l -->
<g id="edge11" class="edge"><title>a&#45;&gt;l</title>
<path fill="none" stroke="MidnightBlue" d="M37.8775,-180.12C43.9415,-145.088 61.1813,-72.0063 104,-29 107.815,-25.1684 112.509,-22.0783 117.434,-19.5952"/>
<polygon fill="MidnightBlue" stroke="MidnightBlue" points="34.3498,-180.017 36.2287,-190.444 41.2622,-181.121 34.3498,-180.017"/>
</g>
</g>
</svg>
