<?xml version="1.0" encoding="UTF-8" standalone="no"?>
<!DOCTYPE svg PUBLIC "-//W3C//DTD SVG 1.1//EN"
 "http://www.w3.org/Graphics/SVG/1.1/DTD/svg11.dtd">
<!-- Generated by graphviz version 2.40.1 (20161225.0304)
 -->
<!-- Title: editbreakpointdlg.cpp Pages: 1 -->
<svg width="2263pt" height="252pt"
 viewBox="0.00 0.00 2263.00 252.00" xmlns="http://www.w3.org/2000/svg" xmlns:xlink="http://www.w3.org/1999/xlink">
<g id="graph0" class="graph" transform="scale(1 1) rotate(0) translate(4 248)">
<title>editbreakpointdlg.cpp</title>
<!-- Node0 -->
<g id="node1" class="node">
<title>Node0</title>
<polygon fill="#bfbfbf" stroke="#000000" points="1593,-224.5 1593,-243.5 1701,-243.5 1701,-224.5 1593,-224.5"/>
<text text-anchor="middle" x="1647" y="-231.5" font-family="FreeSans" font-size="10.00" fill="#000000">editbreakpointdlg.cpp</text>
</g>
<!-- Node1 -->
<g id="node2" class="node">
<title>Node1</title>
<g id="a_node2"><a xlink:href="sdk_8h" target="_top" xlink:title="sdk.h">
<polygon fill="none" stroke="#000000" points="1584.5,-168.5 1584.5,-187.5 1623.5,-187.5 1623.5,-168.5 1584.5,-168.5"/>
<text text-anchor="middle" x="1604" y="-175.5" font-family="FreeSans" font-size="10.00" fill="#000000">sdk.h</text>
</a>
</g>
</g>
<!-- Node0&#45;&gt;Node1 -->
<g id="edge1" class="edge">
<title>Node0&#45;&gt;Node1</title>
<path fill="none" stroke="#191970" d="M1639.51,-224.2455C1633.4674,-216.3761 1624.8097,-205.101 1617.5559,-195.6542"/>
<polygon fill="#191970" stroke="#191970" points="1620.2705,-193.4426 1611.4042,-187.6427 1614.7185,-197.7058 1620.2705,-193.4426"/>
</g>
<!-- Node137 -->
<g id="node31" class="node">
<title>Node137</title>
<g id="a_node31"><a xlink:href="editbreakpointdlg_8h" target="_top" xlink:title="editbreakpointdlg.h">
<polygon fill="none" stroke="#000000" points="2071,-168.5 2071,-187.5 2169,-187.5 2169,-168.5 2071,-168.5"/>
<text text-anchor="middle" x="2120" y="-175.5" font-family="FreeSans" font-size="10.00" fill="#000000">editbreakpointdlg.h</text>
</a>
</g>
</g>
<!-- Node0&#45;&gt;Node137 -->
<g id="edge31" class="edge">
<title>Node0&#45;&gt;Node137</title>
<path fill="none" stroke="#191970" d="M1701.2591,-227.5761C1790.7227,-216.9842 1968.4665,-195.9405 2060.9657,-184.9893"/>
<polygon fill="#191970" stroke="#191970" points="2061.4807,-188.4528 2070.9998,-183.8013 2060.6576,-181.5014 2061.4807,-188.4528"/>
</g>
<!-- Node2 -->
<g id="node3" class="node">
<title>Node2</title>
<g id="a_node3"><a xlink:href="sdk__common_8h" target="_top" xlink:title="sdk_common.h">
<polygon fill="none" stroke="#ff0000" points="1174,-112.5 1174,-131.5 1256,-131.5 1256,-112.5 1174,-112.5"/>
<text text-anchor="middle" x="1215" y="-119.5" font-family="FreeSans" font-size="10.00" fill="#000000">sdk_common.h</text>
</a>
</g>
</g>
<!-- Node1&#45;&gt;Node2 -->
<g id="edge2" class="edge">
<title>Node1&#45;&gt;Node2</title>
<path fill="none" stroke="#191970" d="M1584.4428,-175.1846C1526.2745,-166.8107 1353.003,-141.8667 1266.0135,-129.3438"/>
<polygon fill="#191970" stroke="#191970" points="1266.4957,-125.8773 1256.099,-127.9166 1265.4983,-132.8058 1266.4957,-125.8773"/>
</g>
<!-- Node3 -->
<g id="node4" class="node">
<title>Node3</title>
<polygon fill="none" stroke="#bfbfbf" points="1560,-56.5 1560,-75.5 1628,-75.5 1628,-56.5 1560,-56.5"/>
<text text-anchor="middle" x="1594" y="-63.5" font-family="FreeSans" font-size="10.00" fill="#000000">wx/wxprec.h</text>
</g>
<!-- Node2&#45;&gt;Node3 -->
<g id="edge3" class="edge">
<title>Node2&#45;&gt;Node3</title>
<path fill="none" stroke="#191970" d="M1256.1809,-117.5148C1319.5653,-110.3482 1444.7373,-95.1512 1550,-76 1550.1012,-75.9816 1550.2024,-75.9631 1550.3038,-75.9446"/>
<polygon fill="#191970" stroke="#191970" points="1550.8144,-79.4113 1559.9504,-74.0462 1549.4627,-72.543 1550.8144,-79.4113"/>
</g>
<!-- Node4 -->
<g id="node5" class="node">
<title>Node4</title>
<g id="a_node5"><a xlink:href="prep_8h" target="_top" xlink:title="prep.h">
<polygon fill="none" stroke="#000000" points="1646.5,-56.5 1646.5,-75.5 1689.5,-75.5 1689.5,-56.5 1646.5,-56.5"/>
<text text-anchor="middle" x="1668" y="-63.5" font-family="FreeSans" font-size="10.00" fill="#000000">prep.h</text>
</a>
</g>
</g>
<!-- Node2&#45;&gt;Node4 -->
<g id="edge4" class="edge">
<title>Node2&#45;&gt;Node4</title>
<path fill="none" stroke="#191970" d="M1256.1772,-120.2927C1330.4778,-116.6133 1491.8757,-105.8828 1636.5288,-75.6764"/>
<polygon fill="#191970" stroke="#191970" points="1637.4181,-79.0657 1646.4721,-73.5633 1635.9629,-72.2186 1637.4181,-79.0657"/>
</g>
<!-- Node5 -->
<g id="node6" class="node">
<title>Node5</title>
<polygon fill="none" stroke="#bfbfbf" points="1708,-56.5 1708,-75.5 1762,-75.5 1762,-56.5 1708,-56.5"/>
<text text-anchor="middle" x="1735" y="-63.5" font-family="FreeSans" font-size="10.00" fill="#000000">wx/app.h</text>
</g>
<!-- Node2&#45;&gt;Node5 -->
<g id="edge5" class="edge">
<title>Node2&#45;&gt;Node5</title>
<path fill="none" stroke="#191970" d="M1256.0287,-120.432C1338.0966,-116.7928 1528.3454,-105.8337 1697.5526,-75.7677"/>
<polygon fill="#191970" stroke="#191970" points="1698.4188,-79.168 1707.6385,-73.9481 1697.1759,-72.2792 1698.4188,-79.168"/>
</g>
<!-- Node6 -->
<g id="node7" class="node">
<title>Node6</title>
<polygon fill="none" stroke="#bfbfbf" points="1780,-56.5 1780,-75.5 1840,-75.5 1840,-56.5 1780,-56.5"/>
<text text-anchor="middle" x="1810" y="-63.5" font-family="FreeSans" font-size="10.00" fill="#000000">wx/arrstr.h</text>
</g>
<!-- Node2&#45;&gt;Node6 -->
<g id="edge6" class="edge">
<title>Node2&#45;&gt;Node6</title>
<path fill="none" stroke="#191970" d="M1256.1005,-120.9652C1347.1133,-118.1672 1572.5611,-108.4471 1769.9041,-75.9258"/>
<polygon fill="#191970" stroke="#191970" points="1770.5878,-79.3602 1779.8738,-74.2592 1769.4336,-72.456 1770.5878,-79.3602"/>
</g>
<!-- Node7 -->
<g id="node8" class="node">
<title>Node7</title>
<polygon fill="none" stroke="#bfbfbf" points="1858.5,-56.5 1858.5,-75.5 1937.5,-75.5 1937.5,-56.5 1858.5,-56.5"/>
<text text-anchor="middle" x="1898" y="-63.5" font-family="FreeSans" font-size="10.00" fill="#000000">wx/bmpbuttn.h</text>
</g>
<!-- Node2&#45;&gt;Node7 -->
<g id="edge7" class="edge">
<title>Node2&#45;&gt;Node7</title>
<path fill="none" stroke="#191970" d="M1256.359,-120.844C1356.2995,-117.6562 1618.9484,-106.9261 1848.2892,-75.914"/>
<polygon fill="#191970" stroke="#191970" points="1849.0616,-79.341 1858.4947,-74.5175 1848.1125,-72.4057 1849.0616,-79.341"/>
</g>
<!-- Node8 -->
<g id="node9" class="node">
<title>Node8</title>
<polygon fill="none" stroke="#bfbfbf" points="1955.5,-56.5 1955.5,-75.5 2020.5,-75.5 2020.5,-56.5 1955.5,-56.5"/>
<text text-anchor="middle" x="1988" y="-63.5" font-family="FreeSans" font-size="10.00" fill="#000000">wx/button.h</text>
</g>
<!-- Node2&#45;&gt;Node8 -->
<g id="edge8" class="edge">
<title>Node2&#45;&gt;Node8</title>
<path fill="none" stroke="#191970" d="M1256.2358,-120.3346C1387.0399,-114.909 1792.4967,-96.9583 1944.9847,-75.8572"/>
<polygon fill="#191970" stroke="#191970" points="1945.6919,-79.2914 1955.0888,-74.3978 1944.6912,-72.3633 1945.6919,-79.2914"/>
</g>
<!-- Node9 -->
<g id="node10" class="node">
<title>Node9</title>
<polygon fill="none" stroke="#bfbfbf" points="0,-56.5 0,-75.5 80,-75.5 80,-56.5 0,-56.5"/>
<text text-anchor="middle" x="40" y="-63.5" font-family="FreeSans" font-size="10.00" fill="#000000">wx/checkbox.h</text>
</g>
<!-- Node2&#45;&gt;Node9 -->
<g id="edge9" class="edge">
<title>Node2&#45;&gt;Node9</title>
<path fill="none" stroke="#191970" d="M1173.8961,-121.2055C1000.2698,-117.7152 325.4829,-102.7651 90.2233,-75.9185"/>
<polygon fill="#191970" stroke="#191970" points="90.3673,-72.4113 80.0256,-74.7133 89.5457,-79.3629 90.3673,-72.4113"/>
</g>
<!-- Node10 -->
<g id="node11" class="node">
<title>Node10</title>
<polygon fill="none" stroke="#bfbfbf" points="98,-56.5 98,-75.5 172,-75.5 172,-56.5 98,-56.5"/>
<text text-anchor="middle" x="135" y="-63.5" font-family="FreeSans" font-size="10.00" fill="#000000">wx/checklst.h</text>
</g>
<!-- Node2&#45;&gt;Node10 -->
<g id="edge10" class="edge">
<title>Node2&#45;&gt;Node10</title>
<path fill="none" stroke="#191970" d="M1173.9118,-121.1037C1009.4643,-117.3748 397.6604,-102.1106 182.028,-75.8795"/>
<polygon fill="#191970" stroke="#191970" points="182.4222,-72.4016 172.0627,-74.6221 181.5458,-79.3465 182.4222,-72.4016"/>
</g>
<!-- Node11 -->
<g id="node12" class="node">
<title>Node11</title>
<polygon fill="none" stroke="#bfbfbf" points="190.5,-56.5 190.5,-75.5 257.5,-75.5 257.5,-56.5 190.5,-56.5"/>
<text text-anchor="middle" x="224" y="-63.5" font-family="FreeSans" font-size="10.00" fill="#000000">wx/choice.h</text>
</g>
<!-- Node2&#45;&gt;Node11 -->
<g id="edge11" class="edge">
<title>Node2&#45;&gt;Node11</title>
<path fill="none" stroke="#191970" d="M1173.8748,-120.9907C1018.3698,-117.024 465.5569,-101.5219 267.6887,-75.7914"/>
<polygon fill="#191970" stroke="#191970" points="268.0724,-72.3115 257.6936,-74.44 267.1344,-79.2484 268.0724,-72.3115"/>
</g>
<!-- Node12 -->
<g id="node13" class="node">
<title>Node12</title>
<polygon fill="none" stroke="#bfbfbf" points="276,-56.5 276,-75.5 350,-75.5 350,-56.5 276,-56.5"/>
<text text-anchor="middle" x="313" y="-63.5" font-family="FreeSans" font-size="10.00" fill="#000000">wx/choicdlg.h</text>
</g>
<!-- Node2&#45;&gt;Node12 -->
<g id="edge12" class="edge">
<title>Node2&#45;&gt;Node12</title>
<path fill="none" stroke="#191970" d="M1173.881,-120.666C1028.5398,-115.817 538.6421,-98.2998 360.1073,-75.9022"/>
<polygon fill="#191970" stroke="#191970" points="360.4354,-72.4154 350.0666,-74.5923 359.5298,-79.3566 360.4354,-72.4154"/>
</g>
<!-- Node13 -->
<g id="node14" class="node">
<title>Node13</title>
<polygon fill="none" stroke="#bfbfbf" points="368,-56.5 368,-75.5 440,-75.5 440,-56.5 368,-56.5"/>
<text text-anchor="middle" x="404" y="-63.5" font-family="FreeSans" font-size="10.00" fill="#000000">wx/colordlg.h</text>
</g>
<!-- Node2&#45;&gt;Node13 -->
<g id="edge13" class="edge">
<title>Node2&#45;&gt;Node13</title>
<path fill="none" stroke="#191970" d="M1173.7456,-120.388C1038.7158,-114.9791 609.9638,-96.7203 450.3757,-75.9477"/>
<polygon fill="#191970" stroke="#191970" points="450.6388,-72.4514 440.2591,-74.5759 449.6981,-79.3879 450.6388,-72.4514"/>
</g>
<!-- Node14 -->
<g id="node15" class="node">
<title>Node14</title>
<polygon fill="none" stroke="#bfbfbf" points="458.5,-56.5 458.5,-75.5 541.5,-75.5 541.5,-56.5 458.5,-56.5"/>
<text text-anchor="middle" x="500" y="-63.5" font-family="FreeSans" font-size="10.00" fill="#000000">wx/combobox.h</text>
</g>
<!-- Node2&#45;&gt;Node14 -->
<g id="edge14" class="edge">
<title>Node2&#45;&gt;Node14</title>
<path fill="none" stroke="#191970" d="M1173.9525,-120.9918C1070.8537,-118.0687 792.5994,-107.7627 551.6714,-76.0806"/>
<polygon fill="#191970" stroke="#191970" points="552.049,-72.6001 541.6747,-74.7508 551.1259,-79.539 552.049,-72.6001"/>
</g>
<!-- Node15 -->
<g id="node16" class="node">
<title>Node15</title>
<polygon fill="none" stroke="#bfbfbf" points="559.5,-56.5 559.5,-75.5 636.5,-75.5 636.5,-56.5 559.5,-56.5"/>
<text text-anchor="middle" x="598" y="-63.5" font-family="FreeSans" font-size="10.00" fill="#000000">wx/confbase.h</text>
</g>
<!-- Node2&#45;&gt;Node15 -->
<g id="edge15" class="edge">
<title>Node2&#45;&gt;Node15</title>
<path fill="none" stroke="#191970" d="M1173.7463,-120.4304C1081.2307,-116.5317 850.0447,-104.68 646.6683,-75.9212"/>
<polygon fill="#191970" stroke="#191970" points="647.0942,-72.4465 636.6992,-74.4946 646.1025,-79.3759 647.0942,-72.4465"/>
</g>
<!-- Node16 -->
<g id="node17" class="node">
<title>Node16</title>
<polygon fill="none" stroke="#bfbfbf" points="655,-56.5 655,-75.5 731,-75.5 731,-56.5 655,-56.5"/>
<text text-anchor="middle" x="693" y="-63.5" font-family="FreeSans" font-size="10.00" fill="#000000">wx/datetime.h</text>
</g>
<!-- Node2&#45;&gt;Node16 -->
<g id="edge16" class="edge">
<title>Node2&#45;&gt;Node16</title>
<path fill="none" stroke="#191970" d="M1173.8237,-119.5858C1092.8165,-114.4968 906.9135,-101.1406 741.0408,-76.0107"/>
<polygon fill="#191970" stroke="#191970" points="741.5679,-72.5507 731.1529,-74.4949 740.5071,-79.4699 741.5679,-72.5507"/>
</g>
<!-- Node17 -->
<g id="node18" class="node">
<title>Node17</title>
<polygon fill="none" stroke="#bfbfbf" points="749,-56.5 749,-75.5 821,-75.5 821,-56.5 749,-56.5"/>
<text text-anchor="middle" x="785" y="-63.5" font-family="FreeSans" font-size="10.00" fill="#000000">wx/dcclient.h</text>
</g>
<!-- Node2&#45;&gt;Node17 -->
<g id="edge17" class="edge">
<title>Node2&#45;&gt;Node17</title>
<path fill="none" stroke="#191970" d="M1173.7813,-118.4364C1104.9102,-112.1863 961.9236,-97.9507 831.4577,-76.1123"/>
<polygon fill="#191970" stroke="#191970" points="831.7321,-72.609 821.288,-74.39 830.5632,-79.5107 831.7321,-72.609"/>
</g>
<!-- Node18 -->
<g id="node19" class="node">
<title>Node18</title>
<polygon fill="none" stroke="#bfbfbf" points="2052,-.5 2052,-19.5 2116,-19.5 2116,-.5 2052,-.5"/>
<text text-anchor="middle" x="2084" y="-7.5" font-family="FreeSans" font-size="10.00" fill="#000000">wx/dialog.h</text>
</g>
<!-- Node2&#45;&gt;Node18 -->
<g id="edge18" class="edge">
<title>Node2&#45;&gt;Node18</title>
<path fill="none" stroke="#191970" d="M1256.2238,-121.5845C1412.0347,-119.7546 1959.6972,-110.8775 2029,-76 2049.3014,-65.7831 2064.9208,-44.3461 2074.2395,-28.6655"/>
<polygon fill="#191970" stroke="#191970" points="2077.3739,-30.2318 2079.2129,-19.7977 2071.2686,-26.8076 2077.3739,-30.2318"/>
</g>
<!-- Node19 -->
<g id="node20" class="node">
<title>Node19</title>
<polygon fill="none" stroke="#bfbfbf" points="839.5,-56.5 839.5,-75.5 888.5,-75.5 888.5,-56.5 839.5,-56.5"/>
<text text-anchor="middle" x="864" y="-63.5" font-family="FreeSans" font-size="10.00" fill="#000000">wx/dir.h</text>
</g>
<!-- Node2&#45;&gt;Node19 -->
<g id="edge19" class="edge">
<title>Node2&#45;&gt;Node19</title>
<path fill="none" stroke="#191970" d="M1173.8827,-117.9201C1115.0092,-111.6672 1003.1982,-98.2655 898.8501,-75.9196"/>
<polygon fill="#191970" stroke="#191970" points="899.2926,-72.4341 888.7772,-73.7292 897.8051,-79.2743 899.2926,-72.4341"/>
</g>
<!-- Node20 -->
<g id="node21" class="node">
<title>Node20</title>
<polygon fill="none" stroke="#bfbfbf" points="2181,-56.5 2181,-75.5 2255,-75.5 2255,-56.5 2181,-56.5"/>
<text text-anchor="middle" x="2218" y="-63.5" font-family="FreeSans" font-size="10.00" fill="#000000">wx/dynarray.h</text>
</g>
<!-- Node2&#45;&gt;Node20 -->
<g id="edge20" class="edge">
<title>Node2&#45;&gt;Node20</title>
<path fill="none" stroke="#191970" d="M1256.2326,-120.9307C1412.799,-116.7314 1971.2621,-100.4516 2170.8544,-75.8988"/>
<polygon fill="#191970" stroke="#191970" points="2171.4601,-79.3499 2180.9358,-74.6106 2170.5728,-72.4064 2171.4601,-79.3499"/>
</g>
<!-- Node21 -->
<g id="node22" class="node">
<title>Node21</title>
<polygon fill="none" stroke="#bfbfbf" points="907,-56.5 907,-75.5 969,-75.5 969,-56.5 907,-56.5"/>
<text text-anchor="middle" x="938" y="-63.5" font-family="FreeSans" font-size="10.00" fill="#000000">wx/event.h</text>
</g>
<!-- Node2&#45;&gt;Node21 -->
<g id="edge21" class="edge">
<title>Node2&#45;&gt;Node21</title>
<path fill="none" stroke="#191970" d="M1173.7598,-114.6841C1128.4057,-106.4858 1053.1518,-92.4355 979.3364,-76.2166"/>
<polygon fill="#191970" stroke="#191970" points="979.9255,-72.7624 969.4055,-74.0192 978.4132,-79.5971 979.9255,-72.7624"/>
</g>
<!-- Node22 -->
<g id="node23" class="node">
<title>Node22</title>
<polygon fill="none" stroke="#bfbfbf" points="987,-56.5 987,-75.5 1037,-75.5 1037,-56.5 987,-56.5"/>
<text text-anchor="middle" x="1012" y="-63.5" font-family="FreeSans" font-size="10.00" fill="#000000">wx/file.h</text>
</g>
<!-- Node2&#45;&gt;Node22 -->
<g id="edge22" class="edge">
<title>Node2&#45;&gt;Node22</title>
<path fill="none" stroke="#191970" d="M1179.0065,-112.4298C1146.8263,-103.8231 1098.1333,-90.677 1047.1224,-76.2818"/>
<polygon fill="#191970" stroke="#191970" points="1047.8097,-72.8389 1037.2345,-73.4838 1045.9037,-79.5744 1047.8097,-72.8389"/>
</g>
<!-- Node23 -->
<g id="node24" class="node">
<title>Node23</title>
<polygon fill="none" stroke="#bfbfbf" points="1055.5,-56.5 1055.5,-75.5 1118.5,-75.5 1118.5,-56.5 1055.5,-56.5"/>
<text text-anchor="middle" x="1087" y="-63.5" font-family="FreeSans" font-size="10.00" fill="#000000">wx/filedlg.h</text>
</g>
<!-- Node2&#45;&gt;Node23 -->
<g id="edge23" class="edge">
<title>Node2&#45;&gt;Node23</title>
<path fill="none" stroke="#191970" d="M1192.996,-112.3733C1172.3565,-103.3435 1141.2842,-89.7494 1118.1111,-79.6111"/>
<polygon fill="#191970" stroke="#191970" points="1119.2813,-76.3028 1108.7169,-75.5011 1116.4755,-82.7159 1119.2813,-76.3028"/>
</g>
<!-- Node24 -->
<g id="node25" class="node">
<title>Node24</title>
<polygon fill="none" stroke="#bfbfbf" points="1137,-56.5 1137,-75.5 1211,-75.5 1211,-56.5 1137,-56.5"/>
<text text-anchor="middle" x="1174" y="-63.5" font-family="FreeSans" font-size="10.00" fill="#000000">wx/filename.h</text>
</g>
<!-- Node2&#45;&gt;Node24 -->
<g id="edge24" class="edge">
<title>Node2&#45;&gt;Node24</title>
<path fill="none" stroke="#191970" d="M1207.8583,-112.2455C1202.1556,-104.4564 1194.01,-93.3308 1187.1375,-83.9439"/>
<polygon fill="#191970" stroke="#191970" points="1189.7913,-81.6437 1181.0598,-75.6427 1184.1432,-85.7789 1189.7913,-81.6437"/>
</g>
<!-- Node25 -->
<g id="node26" class="node">
<title>Node25</title>
<polygon fill="none" stroke="#bfbfbf" points="1229.5,-56.5 1229.5,-75.5 1284.5,-75.5 1284.5,-56.5 1229.5,-56.5"/>
<text text-anchor="middle" x="1257" y="-63.5" font-family="FreeSans" font-size="10.00" fill="#000000">wx/font.h</text>
</g>
<!-- Node2&#45;&gt;Node25 -->
<g id="edge25" class="edge">
<title>Node2&#45;&gt;Node25</title>
<path fill="none" stroke="#191970" d="M1222.3158,-112.2455C1228.2179,-104.3761 1236.6742,-93.101 1243.7594,-83.6542"/>
<polygon fill="#191970" stroke="#191970" points="1246.568,-85.7427 1249.768,-75.6427 1240.9679,-81.5427 1246.568,-85.7427"/>
</g>
<!-- Node26 -->
<g id="node27" class="node">
<title>Node26</title>
<polygon fill="none" stroke="#bfbfbf" points="1302.5,-56.5 1302.5,-75.5 1365.5,-75.5 1365.5,-56.5 1302.5,-56.5"/>
<text text-anchor="middle" x="1334" y="-63.5" font-family="FreeSans" font-size="10.00" fill="#000000">wx/frame.h</text>
</g>
<!-- Node2&#45;&gt;Node26 -->
<g id="edge26" class="edge">
<title>Node2&#45;&gt;Node26</title>
<path fill="none" stroke="#191970" d="M1235.4568,-112.3733C1254.4738,-103.4241 1283.0175,-89.9917 1304.4976,-79.8835"/>
<polygon fill="#191970" stroke="#191970" points="1306.2522,-82.926 1313.8101,-75.5011 1303.2716,-76.5923 1306.2522,-82.926"/>
</g>
<!-- Node27 -->
<g id="node28" class="node">
<title>Node27</title>
<polygon fill="none" stroke="#bfbfbf" points="1383.5,-56.5 1383.5,-75.5 1446.5,-75.5 1446.5,-56.5 1383.5,-56.5"/>
<text text-anchor="middle" x="1415" y="-63.5" font-family="FreeSans" font-size="10.00" fill="#000000">wx/fs_zip.h</text>
</g>
<!-- Node2&#45;&gt;Node27 -->
<g id="edge27" class="edge">
<title>Node2&#45;&gt;Node27</title>
<path fill="none" stroke="#191970" d="M1249.3812,-112.3733C1283.7847,-102.7403 1336.7402,-87.9128 1373.4714,-77.628"/>
<polygon fill="#191970" stroke="#191970" points="1374.6864,-80.9225 1383.3724,-74.8557 1372.799,-74.1817 1374.6864,-80.9225"/>
</g>
<!-- Node28 -->
<g id="node29" class="node">
<title>Node28</title>
<polygon fill="none" stroke="#bfbfbf" points="1464.5,-56.5 1464.5,-75.5 1541.5,-75.5 1541.5,-56.5 1464.5,-56.5"/>
<text text-anchor="middle" x="1503" y="-63.5" font-family="FreeSans" font-size="10.00" fill="#000000">wx/hashmap.h</text>
</g>
<!-- Node2&#45;&gt;Node28 -->
<g id="edge28" class="edge">
<title>Node2&#45;&gt;Node28</title>
<path fill="none" stroke="#191970" d="M1256.2331,-114.3049C1302.0204,-105.7136 1378.3977,-91.2465 1454.2832,-76.1188"/>
<polygon fill="#191970" stroke="#191970" points="1455.3783,-79.4693 1464.4987,-74.0777 1454.0067,-72.6049 1455.3783,-79.4693"/>
</g>
<!-- Node107 -->
<g id="node30" class="node">
<title>Node107</title>
<g id="a_node30"><a xlink:href="scrollingdialog_8h" target="_top" xlink:title="scrollingdialog.h">
<polygon fill="none" stroke="#ff0000" points="2077.5,-56.5 2077.5,-75.5 2162.5,-75.5 2162.5,-56.5 2077.5,-56.5"/>
<text text-anchor="middle" x="2120" y="-63.5" font-family="FreeSans" font-size="10.00" fill="#000000">scrollingdialog.h</text>
</a>
</g>
</g>
<!-- Node2&#45;&gt;Node107 -->
<g id="edge29" class="edge">
<title>Node2&#45;&gt;Node107</title>
<path fill="none" stroke="#191970" d="M1256.1812,-121.5075C1379.1522,-119.6635 1754.2875,-111.3251 2063,-76 2064.4661,-75.8322 2065.9516,-75.6508 2067.4494,-75.4578"/>
<polygon fill="#191970" stroke="#191970" points="2068.0307,-78.9105 2077.4392,-74.0391 2067.0464,-71.98 2068.0307,-78.9105"/>
</g>
<!-- Node107&#45;&gt;Node18 -->
<g id="edge30" class="edge">
<title>Node107&#45;&gt;Node18</title>
<path fill="none" stroke="#191970" d="M2113.7293,-56.2455C2108.7736,-48.5367 2101.717,-37.5598 2095.7224,-28.2348"/>
<polygon fill="#191970" stroke="#191970" points="2098.5506,-26.1618 2090.1989,-19.6427 2092.6624,-29.9471 2098.5506,-26.1618"/>
</g>
<!-- Node137&#45;&gt;Node107 -->
<g id="edge32" class="edge">
<title>Node137&#45;&gt;Node107</title>
<path fill="none" stroke="#191970" d="M2120,-168.4509C2120,-150.184 2120,-109.9553 2120,-85.6976"/>
<polygon fill="#191970" stroke="#191970" points="2123.5001,-85.5249 2120,-75.5249 2116.5001,-85.5249 2123.5001,-85.5249"/>
</g>
<!-- Node138 -->
<g id="node32" class="node">
<title>Node138</title>
<g id="a_node32"><a xlink:href="debugger__defs_8h" target="_top" xlink:title="debugger_defs.h">
<polygon fill="none" stroke="#ff0000" points="2161.5,-112.5 2161.5,-131.5 2248.5,-131.5 2248.5,-112.5 2161.5,-112.5"/>
<text text-anchor="middle" x="2205" y="-119.5" font-family="FreeSans" font-size="10.00" fill="#000000">debugger_defs.h</text>
</a>
</g>
</g>
<!-- Node137&#45;&gt;Node138 -->
<g id="edge33" class="edge">
<title>Node137&#45;&gt;Node138</title>
<path fill="none" stroke="#191970" d="M2134.8059,-168.2455C2147.7256,-159.7337 2166.6931,-147.2375 2181.6552,-137.3801"/>
<polygon fill="#191970" stroke="#191970" points="2183.9387,-140.067 2190.3638,-131.6427 2180.0876,-134.2216 2183.9387,-140.067"/>
</g>
<!-- Node138&#45;&gt;Node20 -->
<g id="edge34" class="edge">
<title>Node138&#45;&gt;Node20</title>
<path fill="none" stroke="#191970" d="M2207.2644,-112.2455C2208.9794,-104.8579 2211.3912,-94.4689 2213.4944,-85.4087"/>
<polygon fill="#191970" stroke="#191970" points="2216.9095,-86.1751 2215.7615,-75.6427 2210.0908,-84.5922 2216.9095,-86.1751"/>
</g>
</g>
</svg>
