<?xml version="1.0" encoding="UTF-8" standalone="no"?>
<!DOCTYPE svg PUBLIC "-//W3C//DTD SVG 1.1//EN"
 "http://www.w3.org/Graphics/SVG/1.1/DTD/svg11.dtd">
<!-- Generated by graphviz version 2.38.0 (20140413.2041)
 -->
<!-- Title: editpathdlg.h Pages: 1 -->
<svg width="847pt" height="84pt"
 viewBox="0.00 0.00 847.00 84.00" xmlns="http://www.w3.org/2000/svg" xmlns:xlink="http://www.w3.org/1999/xlink">
<g id="graph0" class="graph" transform="scale(1 1) rotate(0) translate(4 80)">
<title>editpathdlg.h</title>
<!-- Node1 -->
<g id="node1" class="node"><title>Node1</title>
<polygon fill="#bfbfbf" stroke="black" points="353.5,-56.5 353.5,-75.5 424.5,-75.5 424.5,-56.5 353.5,-56.5"/>
<text text-anchor="middle" x="389" y="-63.5" font-family="FreeSans" font-size="10.00">editpathdlg.h</text>
</g>
<!-- Node2 -->
<g id="node2" class="node"><title>Node2</title>
<g id="a_node2"><a xlink:href="editpathdlg_8cpp" target="_top" xlink:title="editpathdlg.cpp">
<polygon fill="none" stroke="black" points="0,-0.5 0,-19.5 82,-19.5 82,-0.5 0,-0.5"/>
<text text-anchor="middle" x="41" y="-7.5" font-family="FreeSans" font-size="10.00">editpathdlg.cpp</text>
</a>
</g>
</g>
<!-- Node1&#45;&gt;Node2 -->
<g id="edge1" class="edge"><title>Node1&#45;&gt;Node2</title>
<path fill="none" stroke="midnightblue" d="M343.128,-58.4831C284.557,-50.0678 180.115,-34.7459 91,-20 88.1284,-19.5248 85.1663,-19.0226 82.1848,-18.5082"/>
<polygon fill="midnightblue" stroke="midnightblue" points="342.774,-61.9679 353.169,-59.9226 343.767,-55.0388 342.774,-61.9679"/>
</g>
<!-- Node3 -->
<g id="node3" class="node"><title>Node3</title>
<g id="a_node3"><a xlink:href="externaldepsdlg_8cpp" target="_top" xlink:title="externaldepsdlg.cpp">
<polygon fill="none" stroke="black" points="100.5,-0.5 100.5,-19.5 201.5,-19.5 201.5,-0.5 100.5,-0.5"/>
<text text-anchor="middle" x="151" y="-7.5" font-family="FreeSans" font-size="10.00">externaldepsdlg.cpp</text>
</a>
</g>
</g>
<!-- Node1&#45;&gt;Node3 -->
<g id="edge2" class="edge"><title>Node1&#45;&gt;Node3</title>
<path fill="none" stroke="midnightblue" d="M343.605,-54.7002C298.738,-44.5205 230.886,-29.1254 188.844,-19.5865"/>
<polygon fill="midnightblue" stroke="midnightblue" points="342.842,-58.1162 353.369,-56.9157 344.391,-51.2897 342.842,-58.1162"/>
</g>
<!-- Node4 -->
<g id="node4" class="node"><title>Node4</title>
<g id="a_node4"><a xlink:href="sc__util__dialogs_8cpp" target="_top" xlink:title="sc_util_dialogs.cpp">
<polygon fill="none" stroke="black" points="220,-0.5 220,-19.5 318,-19.5 318,-0.5 220,-0.5"/>
<text text-anchor="middle" x="269" y="-7.5" font-family="FreeSans" font-size="10.00">sc_util_dialogs.cpp</text>
</a>
</g>
</g>
<!-- Node1&#45;&gt;Node4 -->
<g id="edge3" class="edge"><title>Node1&#45;&gt;Node4</title>
<path fill="none" stroke="midnightblue" d="M360.627,-52.2321C338.18,-42.1312 307.465,-28.3091 287.925,-19.5164"/>
<polygon fill="midnightblue" stroke="midnightblue" points="359.43,-55.5316 369.986,-56.4435 362.303,-49.1481 359.43,-55.5316"/>
</g>
<!-- Node5 -->
<g id="node5" class="node"><title>Node5</title>
<g id="a_node5"><a xlink:href="projectoptionsdlg_8cpp" target="_top" xlink:title="projectoptionsdlg.cpp">
<polygon fill="none" stroke="black" points="335.5,-0.5 335.5,-19.5 442.5,-19.5 442.5,-0.5 335.5,-0.5"/>
<text text-anchor="middle" x="389" y="-7.5" font-family="FreeSans" font-size="10.00">projectoptionsdlg.cpp</text>
</a>
</g>
</g>
<!-- Node1&#45;&gt;Node5 -->
<g id="edge4" class="edge"><title>Node1&#45;&gt;Node5</title>
<path fill="none" stroke="midnightblue" d="M389,-45.8045C389,-36.9102 389,-26.7798 389,-19.7511"/>
<polygon fill="midnightblue" stroke="midnightblue" points="385.5,-46.083 389,-56.083 392.5,-46.083 385.5,-46.083"/>
</g>
<!-- Node6 -->
<g id="node6" class="node"><title>Node6</title>
<g id="a_node6"><a xlink:href="ccoptionsprjdlg_8cpp" target="_top" xlink:title="ccoptionsprjdlg.cpp">
<polygon fill="none" stroke="black" points="460.5,-0.5 460.5,-19.5 559.5,-19.5 559.5,-0.5 460.5,-0.5"/>
<text text-anchor="middle" x="510" y="-7.5" font-family="FreeSans" font-size="10.00">ccoptionsprjdlg.cpp</text>
</a>
</g>
</g>
<!-- Node1&#45;&gt;Node6 -->
<g id="edge5" class="edge"><title>Node1&#45;&gt;Node6</title>
<path fill="none" stroke="midnightblue" d="M417.306,-52.3678C439.965,-42.2553 471.126,-28.3486 490.917,-19.5164"/>
<polygon fill="midnightblue" stroke="midnightblue" points="415.878,-49.1719 408.173,-56.4435 418.731,-55.5643 415.878,-49.1719"/>
</g>
<!-- Node7 -->
<g id="node7" class="node"><title>Node7</title>
<g id="a_node7"><a xlink:href="compileroptionsdlg_8cpp" target="_top" xlink:title="compileroptionsdlg.cpp">
<polygon fill="none" stroke="black" points="577.5,-0.5 577.5,-19.5 692.5,-19.5 692.5,-0.5 577.5,-0.5"/>
<text text-anchor="middle" x="635" y="-7.5" font-family="FreeSans" font-size="10.00">compileroptionsdlg.cpp</text>
</a>
</g>
</g>
<!-- Node1&#45;&gt;Node7 -->
<g id="edge6" class="edge"><title>Node1&#45;&gt;Node7</title>
<path fill="none" stroke="midnightblue" d="M434.314,-55.0531C480.793,-44.8504 552.327,-29.1476 596.256,-19.5047"/>
<polygon fill="midnightblue" stroke="midnightblue" points="433.525,-51.6428 424.508,-57.2056 435.026,-58.4801 433.525,-51.6428"/>
</g>
<!-- Node8 -->
<g id="node8" class="node"><title>Node8</title>
<g id="a_node8"><a xlink:href="debuggeroptionsprjdlg_8cpp" target="_top" xlink:title="debuggeroptionsprjdlg.cpp">
<polygon fill="none" stroke="black" points="711,-0.5 711,-19.5 839,-19.5 839,-0.5 711,-0.5"/>
<text text-anchor="middle" x="775" y="-7.5" font-family="FreeSans" font-size="10.00">debuggeroptionsprjdlg.cpp</text>
</a>
</g>
</g>
<!-- Node1&#45;&gt;Node8 -->
<g id="edge7" class="edge"><title>Node1&#45;&gt;Node8</title>
<path fill="none" stroke="midnightblue" d="M434.814,-58.5908C504.311,-48.8684 636.474,-30.3793 714.024,-19.5304"/>
<polygon fill="midnightblue" stroke="midnightblue" points="434.041,-55.1648 424.622,-60.0166 435.011,-62.0973 434.041,-55.1648"/>
</g>
</g>
</svg>
