<?xml version="1.0" encoding="UTF-8" standalone="no"?>
<!DOCTYPE svg PUBLIC "-//W3C//DTD SVG 1.1//EN"
 "http://www.w3.org/Graphics/SVG/1.1/DTD/svg11.dtd">
<!-- Generated by graphviz version 2.40.1 (20161225.0304)
 -->
<!-- Title: editorbase.h Pages: 1 -->
<svg width="697pt" height="196pt"
 viewBox="0.00 0.00 697.00 196.00" xmlns="http://www.w3.org/2000/svg" xmlns:xlink="http://www.w3.org/1999/xlink">
<g id="graph0" class="graph" transform="scale(1 1) rotate(0) translate(4 192)">
<title>editorbase.h</title>
<!-- Node0 -->
<g id="node1" class="node">
<title>Node0</title>
<polygon fill="#bfbfbf" stroke="#000000" points="348.5,-168.5 348.5,-187.5 416.5,-187.5 416.5,-168.5 348.5,-168.5"/>
<text text-anchor="middle" x="382.5" y="-175.5" font-family="FreeSans" font-size="10.00" fill="#000000">editorbase.h</text>
</g>
<!-- Node1 -->
<g id="node2" class="node">
<title>Node1</title>
<g id="a_node2"><a xlink:href="prep_8h" target="_top" xlink:title="prep.h">
<polygon fill="none" stroke="#000000" points="114,-112.5 114,-131.5 157,-131.5 157,-112.5 114,-112.5"/>
<text text-anchor="middle" x="135.5" y="-119.5" font-family="FreeSans" font-size="10.00" fill="#000000">prep.h</text>
</a>
</g>
</g>
<!-- Node0&#45;&gt;Node1 -->
<g id="edge1" class="edge">
<title>Node0&#45;&gt;Node1</title>
<path fill="none" stroke="#191970" d="M348.388,-172.0024C307.3361,-164.5156 236.1809,-150.6841 166.814,-132.15"/>
<polygon fill="#191970" stroke="#191970" points="167.6084,-128.7392 157.0412,-129.5037 165.7788,-135.4958 167.6084,-128.7392"/>
</g>
<!-- Node2 -->
<g id="node3" class="node">
<title>Node2</title>
<polygon fill="none" stroke="#bfbfbf" points="175,-112.5 175,-131.5 252,-131.5 252,-112.5 175,-112.5"/>
<text text-anchor="middle" x="213.5" y="-119.5" font-family="FreeSans" font-size="10.00" fill="#000000">wx/hashmap.h</text>
</g>
<!-- Node0&#45;&gt;Node2 -->
<g id="edge2" class="edge">
<title>Node0&#45;&gt;Node2</title>
<path fill="none" stroke="#191970" d="M353.4479,-168.3733C325.3457,-159.0613 282.5946,-144.8953 251.7393,-134.671"/>
<polygon fill="#191970" stroke="#191970" points="252.7664,-131.3243 242.173,-131.5011 250.5645,-137.969 252.7664,-131.3243"/>
</g>
<!-- Node3 -->
<g id="node4" class="node">
<title>Node3</title>
<polygon fill="none" stroke="#bfbfbf" points="270,-112.5 270,-131.5 333,-131.5 333,-112.5 270,-112.5"/>
<text text-anchor="middle" x="301.5" y="-119.5" font-family="FreeSans" font-size="10.00" fill="#000000">wx/frame.h</text>
</g>
<!-- Node0&#45;&gt;Node3 -->
<g id="edge3" class="edge">
<title>Node0&#45;&gt;Node3</title>
<path fill="none" stroke="#191970" d="M368.3909,-168.2455C356.0791,-159.7337 338.0042,-147.2375 323.7462,-137.3801"/>
<polygon fill="#191970" stroke="#191970" points="325.6634,-134.4506 315.4474,-131.6427 321.6826,-140.2085 325.6634,-134.4506"/>
</g>
<!-- Node4 -->
<g id="node5" class="node">
<title>Node4</title>
<polygon fill="none" stroke="#bfbfbf" points="351.5,-112.5 351.5,-131.5 413.5,-131.5 413.5,-112.5 351.5,-112.5"/>
<text text-anchor="middle" x="382.5" y="-119.5" font-family="FreeSans" font-size="10.00" fill="#000000">wx/panel.h</text>
</g>
<!-- Node0&#45;&gt;Node4 -->
<g id="edge4" class="edge">
<title>Node0&#45;&gt;Node4</title>
<path fill="none" stroke="#191970" d="M382.5,-168.2455C382.5,-160.9382 382.5,-150.6944 382.5,-141.7046"/>
<polygon fill="#191970" stroke="#191970" points="386.0001,-141.6426 382.5,-131.6427 379.0001,-141.6427 386.0001,-141.6426"/>
</g>
<!-- Node5 -->
<g id="node6" class="node">
<title>Node5</title>
<g id="a_node6"><a xlink:href="globals_8h" target="_top" xlink:title="globals.h">
<polygon fill="none" stroke="#000000" points="399.5,-56.5 399.5,-75.5 453.5,-75.5 453.5,-56.5 399.5,-56.5"/>
<text text-anchor="middle" x="426.5" y="-63.5" font-family="FreeSans" font-size="10.00" fill="#000000">globals.h</text>
</a>
</g>
</g>
<!-- Node0&#45;&gt;Node5 -->
<g id="edge5" class="edge">
<title>Node0&#45;&gt;Node5</title>
<path fill="none" stroke="#191970" d="M394.3043,-168.429C403.7917,-159.9612 416.492,-146.6939 422.5,-132 428.4737,-117.39 429.1843,-99.4342 428.5622,-85.9415"/>
<polygon fill="#191970" stroke="#191970" points="432.0423,-85.5427 427.8124,-75.8289 425.0615,-86.0603 432.0423,-85.5427"/>
</g>
<!-- Node14 -->
<g id="node15" class="node">
<title>Node14</title>
<g id="a_node15"><a xlink:href="settings_8h" target="_top" xlink:title="settings.h">
<polygon fill="none" stroke="#000000" points="632,-.5 632,-19.5 689,-19.5 689,-.5 632,-.5"/>
<text text-anchor="middle" x="660.5" y="-7.5" font-family="FreeSans" font-size="10.00" fill="#000000">settings.h</text>
</a>
</g>
</g>
<!-- Node0&#45;&gt;Node14 -->
<g id="edge15" class="edge">
<title>Node0&#45;&gt;Node14</title>
<path fill="none" stroke="#191970" d="M416.5175,-174.8536C453.0096,-170.183 511.5066,-158.8585 554.5,-132 597.5235,-105.1227 632.6472,-55.3587 649.5704,-28.4406"/>
<polygon fill="#191970" stroke="#191970" points="652.7216,-29.9969 654.9628,-19.6418 646.7533,-26.3392 652.7216,-29.9969"/>
</g>
<!-- Node15 -->
<g id="node16" class="node">
<title>Node15</title>
<g id="a_node16"><a xlink:href="cbexception_8h" target="_top" xlink:title="cbexception.h">
<polygon fill="none" stroke="#000000" points="469.5,-112.5 469.5,-131.5 545.5,-131.5 545.5,-112.5 469.5,-112.5"/>
<text text-anchor="middle" x="507.5" y="-119.5" font-family="FreeSans" font-size="10.00" fill="#000000">cbexception.h</text>
</a>
</g>
</g>
<!-- Node0&#45;&gt;Node15 -->
<g id="edge16" class="edge">
<title>Node0&#45;&gt;Node15</title>
<path fill="none" stroke="#191970" d="M403.9883,-168.3733C424.144,-159.3435 454.488,-145.7494 477.118,-135.6111"/>
<polygon fill="#191970" stroke="#191970" points="478.5971,-138.7838 486.2921,-131.5011 475.7351,-132.3955 478.5971,-138.7838"/>
</g>
<!-- Node6 -->
<g id="node7" class="node">
<title>Node6</title>
<polygon fill="none" stroke="#bfbfbf" points="174,-.5 174,-19.5 217,-19.5 217,-.5 174,-.5"/>
<text text-anchor="middle" x="195.5" y="-7.5" font-family="FreeSans" font-size="10.00" fill="#000000">vector</text>
</g>
<!-- Node5&#45;&gt;Node6 -->
<g id="edge6" class="edge">
<title>Node5&#45;&gt;Node6</title>
<path fill="none" stroke="#191970" d="M399.4658,-60.5532C362.6665,-52.9728 294.5818,-38.3599 227.0627,-19.9723"/>
<polygon fill="#191970" stroke="#191970" points="227.6791,-16.5119 217.1088,-17.2324 225.8213,-23.2609 227.6791,-16.5119"/>
</g>
<!-- Node7 -->
<g id="node8" class="node">
<title>Node7</title>
<polygon fill="none" stroke="#bfbfbf" points="551.5,-.5 551.5,-19.5 613.5,-19.5 613.5,-.5 551.5,-.5"/>
<text text-anchor="middle" x="582.5" y="-7.5" font-family="FreeSans" font-size="10.00" fill="#000000">wx/string.h</text>
</g>
<!-- Node5&#45;&gt;Node7 -->
<g id="edge7" class="edge">
<title>Node5&#45;&gt;Node7</title>
<path fill="none" stroke="#191970" d="M453.3174,-56.3733C479.0332,-47.1419 518.038,-33.1402 546.4599,-22.9375"/>
<polygon fill="#191970" stroke="#191970" points="547.8032,-26.174 556.0326,-19.5011 545.4381,-19.5857 547.8032,-26.174"/>
</g>
<!-- Node8 -->
<g id="node9" class="node">
<title>Node8</title>
<polygon fill="none" stroke="#bfbfbf" points="235.5,-.5 235.5,-19.5 303.5,-19.5 303.5,-.5 235.5,-.5"/>
<text text-anchor="middle" x="269.5" y="-7.5" font-family="FreeSans" font-size="10.00" fill="#000000">wx/treectrl.h</text>
</g>
<!-- Node5&#45;&gt;Node8 -->
<g id="edge8" class="edge">
<title>Node5&#45;&gt;Node8</title>
<path fill="none" stroke="#191970" d="M399.5107,-56.3733C373.6301,-47.1419 334.3752,-33.1402 305.7711,-22.9375"/>
<polygon fill="#191970" stroke="#191970" points="306.7317,-19.5642 296.1371,-19.5011 304.38,-26.1573 306.7317,-19.5642"/>
</g>
<!-- Node9 -->
<g id="node10" class="node">
<title>Node9</title>
<polygon fill="none" stroke="#bfbfbf" points="321.5,-.5 321.5,-19.5 371.5,-19.5 371.5,-.5 321.5,-.5"/>
<text text-anchor="middle" x="346.5" y="-7.5" font-family="FreeSans" font-size="10.00" fill="#000000">wx/file.h</text>
</g>
<!-- Node5&#45;&gt;Node9 -->
<g id="edge9" class="edge">
<title>Node5&#45;&gt;Node9</title>
<path fill="none" stroke="#191970" d="M412.5651,-56.2455C400.4053,-47.7337 382.5536,-35.2375 368.4715,-25.3801"/>
<polygon fill="#191970" stroke="#191970" points="370.4747,-22.51 360.2752,-19.6427 366.4605,-28.2447 370.4747,-22.51"/>
</g>
<!-- Node10 -->
<g id="node11" class="node">
<title>Node10</title>
<polygon fill="none" stroke="#bfbfbf" points="389.5,-.5 389.5,-19.5 463.5,-19.5 463.5,-.5 389.5,-.5"/>
<text text-anchor="middle" x="426.5" y="-7.5" font-family="FreeSans" font-size="10.00" fill="#000000">wx/filename.h</text>
</g>
<!-- Node5&#45;&gt;Node10 -->
<g id="edge10" class="edge">
<title>Node5&#45;&gt;Node10</title>
<path fill="none" stroke="#191970" d="M426.5,-56.2455C426.5,-48.9382 426.5,-38.6944 426.5,-29.7046"/>
<polygon fill="#191970" stroke="#191970" points="430.0001,-29.6426 426.5,-19.6427 423.0001,-29.6427 430.0001,-29.6426"/>
</g>
<!-- Node11 -->
<g id="node12" class="node">
<title>Node11</title>
<polygon fill="none" stroke="#bfbfbf" points="482,-.5 482,-19.5 533,-19.5 533,-.5 482,-.5"/>
<text text-anchor="middle" x="507.5" y="-7.5" font-family="FreeSans" font-size="10.00" fill="#000000">wx/intl.h</text>
</g>
<!-- Node5&#45;&gt;Node11 -->
<g id="edge11" class="edge">
<title>Node5&#45;&gt;Node11</title>
<path fill="none" stroke="#191970" d="M440.6091,-56.2455C452.9209,-47.7337 470.9958,-35.2375 485.2538,-25.3801"/>
<polygon fill="#191970" stroke="#191970" points="487.3174,-28.2085 493.5526,-19.6427 483.3366,-22.4506 487.3174,-28.2085"/>
</g>
<!-- Node12 -->
<g id="node13" class="node">
<title>Node12</title>
<polygon fill="none" stroke="#bfbfbf" points="0,-.5 0,-19.5 69,-19.5 69,-.5 0,-.5"/>
<text text-anchor="middle" x="34.5" y="-7.5" font-family="FreeSans" font-size="10.00" fill="#000000">wx/msgdlg.h</text>
</g>
<!-- Node5&#45;&gt;Node12 -->
<g id="edge12" class="edge">
<title>Node5&#45;&gt;Node12</title>
<path fill="none" stroke="#191970" d="M399.2948,-63.2663C342.044,-57.3297 204.7648,-42.1299 79.1996,-19.9775"/>
<polygon fill="#191970" stroke="#191970" points="79.4851,-16.4733 69.0258,-18.1626 78.2557,-23.3645 79.4851,-16.4733"/>
</g>
<!-- Node13 -->
<g id="node14" class="node">
<title>Node13</title>
<polygon fill="none" stroke="#bfbfbf" points="87.5,-.5 87.5,-19.5 155.5,-19.5 155.5,-.5 87.5,-.5"/>
<text text-anchor="middle" x="121.5" y="-7.5" font-family="FreeSans" font-size="10.00" fill="#000000">wx/bitmap.h</text>
</g>
<!-- Node5&#45;&gt;Node13 -->
<g id="edge13" class="edge">
<title>Node5&#45;&gt;Node13</title>
<path fill="none" stroke="#191970" d="M399.251,-61.7199C353.2097,-54.3796 256.8841,-38.5571 165.6775,-20.1595"/>
<polygon fill="#191970" stroke="#191970" points="166.2273,-16.6998 155.7306,-18.1385 164.8334,-23.5596 166.2273,-16.6998"/>
</g>
<!-- Node5&#45;&gt;Node14 -->
<g id="edge14" class="edge">
<title>Node5&#45;&gt;Node14</title>
<path fill="none" stroke="#191970" d="M453.5036,-59.9033C489.5775,-51.7066 555.7178,-36.4965 622.0956,-20.052"/>
<polygon fill="#191970" stroke="#191970" points="623.0272,-23.427 631.8872,-17.6175 621.3382,-16.6338 623.0272,-23.427"/>
</g>
<!-- Node15&#45;&gt;Node5 -->
<g id="edge19" class="edge">
<title>Node15&#45;&gt;Node5</title>
<path fill="none" stroke="#191970" d="M493.3909,-112.2455C481.0791,-103.7337 463.0042,-91.2375 448.7462,-81.3801"/>
<polygon fill="#191970" stroke="#191970" points="450.6634,-78.4506 440.4474,-75.6427 446.6826,-84.2085 450.6634,-78.4506"/>
</g>
<!-- Node15&#45;&gt;Node7 -->
<g id="edge17" class="edge">
<title>Node15&#45;&gt;Node7</title>
<path fill="none" stroke="#191970" d="M508.4689,-112.2912C510.2079,-98.7145 514.8383,-73.7333 526.5,-56 534.5186,-43.8065 546.7674,-33.2191 557.7668,-25.2856"/>
<polygon fill="#191970" stroke="#191970" points="559.9339,-28.0439 566.2155,-19.5121 555.9844,-22.2644 559.9339,-28.0439"/>
</g>
<!-- Node16 -->
<g id="node17" class="node">
<title>Node16</title>
<polygon fill="none" stroke="#bfbfbf" points="536,-56.5 536,-75.5 587,-75.5 587,-56.5 536,-56.5"/>
<text text-anchor="middle" x="561.5" y="-63.5" font-family="FreeSans" font-size="10.00" fill="#000000">wx/log.h</text>
</g>
<!-- Node15&#45;&gt;Node16 -->
<g id="edge18" class="edge">
<title>Node15&#45;&gt;Node16</title>
<path fill="none" stroke="#191970" d="M516.9061,-112.2455C524.6493,-104.2155 535.812,-92.6394 545.0318,-83.0781"/>
<polygon fill="#191970" stroke="#191970" points="547.7798,-85.2706 552.2017,-75.6427 542.7409,-80.4117 547.7798,-85.2706"/>
</g>
</g>
</svg>
