<?xml version="1.0" encoding="UTF-8" standalone="no"?>
<!DOCTYPE svg PUBLIC "-//W3C//DTD SVG 1.1//EN"
 "http://www.w3.org/Graphics/SVG/1.1/DTD/svg11.dtd">
<!-- Generated by graphviz version 2.38.0 (20140413.2041)
 -->
<!-- Title: editkeywordsdlg.h Pages: 1 -->
<svg width="866pt" height="140pt"
 viewBox="0.00 0.00 866.00 140.00" xmlns="http://www.w3.org/2000/svg" xmlns:xlink="http://www.w3.org/1999/xlink">
<g id="graph0" class="graph" transform="scale(1 1) rotate(0) translate(4 136)">
<title>editkeywordsdlg.h</title>
<!-- Node0 -->
<g id="node1" class="node"><title>Node0</title>
<polygon fill="#bfbfbf" stroke="black" points="264,-112.5 264,-131.5 356,-131.5 356,-112.5 264,-112.5"/>
<text text-anchor="middle" x="310" y="-119.5" font-family="FreeSans" font-size="10.00">editkeywordsdlg.h</text>
</g>
<!-- Node1 -->
<g id="node2" class="node"><title>Node1</title>
<g id="a_node2"><a xlink:href="scrollingdialog_8h" target="_top" xlink:title="scrollingdialog.h">
<polygon fill="none" stroke="black" points="115.5,-56.5 115.5,-75.5 200.5,-75.5 200.5,-56.5 115.5,-56.5"/>
<text text-anchor="middle" x="158" y="-63.5" font-family="FreeSans" font-size="10.00">scrollingdialog.h</text>
</a>
</g>
</g>
<!-- Node0&#45;&gt;Node1 -->
<g id="edge1" class="edge"><title>Node0&#45;&gt;Node1</title>
<path fill="none" stroke="midnightblue" d="M285.915,-112.444C260.455,-103.399 220.106,-89.064 191.541,-78.9158"/>
<polygon fill="midnightblue" stroke="midnightblue" points="192.567,-75.5661 181.972,-75.5164 190.223,-82.1622 192.567,-75.5661"/>
</g>
<!-- Node5 -->
<g id="node6" class="node"><title>Node5</title>
<g id="a_node6"><a xlink:href="globals_8h" target="_top" xlink:title="globals.h">
<polygon fill="none" stroke="black" points="432,-56.5 432,-75.5 486,-75.5 486,-56.5 432,-56.5"/>
<text text-anchor="middle" x="459" y="-63.5" font-family="FreeSans" font-size="10.00">globals.h</text>
</a>
</g>
</g>
<!-- Node0&#45;&gt;Node5 -->
<g id="edge5" class="edge"><title>Node0&#45;&gt;Node5</title>
<path fill="none" stroke="midnightblue" d="M333.609,-112.444C358.458,-103.438 397.774,-89.1891 425.754,-79.049"/>
<polygon fill="midnightblue" stroke="midnightblue" points="427.292,-82.2144 435.501,-75.5164 424.907,-75.6332 427.292,-82.2144"/>
</g>
<!-- Node2 -->
<g id="node3" class="node"><title>Node2</title>
<polygon fill="none" stroke="#bfbfbf" points="0,-0.5 0,-19.5 64,-19.5 64,-0.5 0,-0.5"/>
<text text-anchor="middle" x="32" y="-7.5" font-family="FreeSans" font-size="10.00">wx/dialog.h</text>
</g>
<!-- Node1&#45;&gt;Node2 -->
<g id="edge2" class="edge"><title>Node1&#45;&gt;Node2</title>
<path fill="none" stroke="midnightblue" d="M138.035,-56.4435C117.391,-47.5961 84.9375,-33.6875 61.3684,-23.5865"/>
<polygon fill="midnightblue" stroke="midnightblue" points="62.4419,-20.2387 51.8717,-19.5164 59.6844,-26.6727 62.4419,-20.2387"/>
</g>
<!-- Node3 -->
<g id="node4" class="node"><title>Node3</title>
<polygon fill="none" stroke="#bfbfbf" points="82,-0.5 82,-19.5 152,-19.5 152,-0.5 82,-0.5"/>
<text text-anchor="middle" x="117" y="-7.5" font-family="FreeSans" font-size="10.00">wx/propdlg.h</text>
</g>
<!-- Node1&#45;&gt;Node3 -->
<g id="edge3" class="edge"><title>Node1&#45;&gt;Node3</title>
<path fill="none" stroke="midnightblue" d="M151.23,-56.083C145.438,-48.4554 136.942,-37.2645 129.862,-27.9408"/>
<polygon fill="midnightblue" stroke="midnightblue" points="132.479,-25.5991 123.644,-19.7511 126.904,-29.8321 132.479,-25.5991"/>
</g>
<!-- Node4 -->
<g id="node5" class="node"><title>Node4</title>
<g id="a_node5"><a xlink:href="settings_8h" target="_top" xlink:title="settings.h">
<polygon fill="none" stroke="black" points="170.5,-0.5 170.5,-19.5 227.5,-19.5 227.5,-0.5 170.5,-0.5"/>
<text text-anchor="middle" x="199" y="-7.5" font-family="FreeSans" font-size="10.00">settings.h</text>
</a>
</g>
</g>
<!-- Node1&#45;&gt;Node4 -->
<g id="edge4" class="edge"><title>Node1&#45;&gt;Node4</title>
<path fill="none" stroke="midnightblue" d="M164.77,-56.083C170.562,-48.4554 179.058,-37.2645 186.138,-27.9408"/>
<polygon fill="midnightblue" stroke="midnightblue" points="189.096,-29.8321 192.356,-19.7511 183.521,-25.5991 189.096,-29.8321"/>
</g>
<!-- Node5&#45;&gt;Node4 -->
<g id="edge14" class="edge"><title>Node5&#45;&gt;Node4</title>
<path fill="none" stroke="midnightblue" d="M431.808,-59.8719C391.542,-52.2006 313.449,-37.0276 237.825,-20.3446"/>
<polygon fill="midnightblue" stroke="midnightblue" points="238.178,-16.8379 227.657,-18.0889 236.662,-23.6718 238.178,-16.8379"/>
</g>
<!-- Node6 -->
<g id="node7" class="node"><title>Node6</title>
<polygon fill="none" stroke="#bfbfbf" points="245.5,-0.5 245.5,-19.5 288.5,-19.5 288.5,-0.5 245.5,-0.5"/>
<text text-anchor="middle" x="267" y="-7.5" font-family="FreeSans" font-size="10.00">vector</text>
</g>
<!-- Node5&#45;&gt;Node6 -->
<g id="edge6" class="edge"><title>Node5&#45;&gt;Node6</title>
<path fill="none" stroke="midnightblue" d="M431.915,-57.5186C401.777,-49.1746 351.383,-35.1654 298.56,-20.1384"/>
<polygon fill="midnightblue" stroke="midnightblue" points="299.249,-16.6956 288.672,-17.3219 297.331,-23.4277 299.249,-16.6956"/>
</g>
<!-- Node7 -->
<g id="node8" class="node"><title>Node7</title>
<polygon fill="none" stroke="#bfbfbf" points="307,-0.5 307,-19.5 369,-19.5 369,-0.5 307,-0.5"/>
<text text-anchor="middle" x="338" y="-7.5" font-family="FreeSans" font-size="10.00">wx/string.h</text>
</g>
<!-- Node5&#45;&gt;Node7 -->
<g id="edge7" class="edge"><title>Node5&#45;&gt;Node7</title>
<path fill="none" stroke="midnightblue" d="M439.827,-56.4435C420.091,-47.6356 389.115,-33.8116 366.507,-23.722"/>
<polygon fill="midnightblue" stroke="midnightblue" points="367.641,-20.3957 357.083,-19.5164 364.789,-26.788 367.641,-20.3957"/>
</g>
<!-- Node8 -->
<g id="node9" class="node"><title>Node8</title>
<polygon fill="none" stroke="#bfbfbf" points="387,-0.5 387,-19.5 455,-19.5 455,-0.5 387,-0.5"/>
<text text-anchor="middle" x="421" y="-7.5" font-family="FreeSans" font-size="10.00">wx/treectrl.h</text>
</g>
<!-- Node5&#45;&gt;Node8 -->
<g id="edge8" class="edge"><title>Node5&#45;&gt;Node8</title>
<path fill="none" stroke="midnightblue" d="M452.725,-56.083C447.358,-48.4554 439.482,-37.2645 432.921,-27.9408"/>
<polygon fill="midnightblue" stroke="midnightblue" points="435.775,-25.9149 427.158,-19.7511 430.051,-29.9434 435.775,-25.9149"/>
</g>
<!-- Node9 -->
<g id="node10" class="node"><title>Node9</title>
<polygon fill="none" stroke="#bfbfbf" points="473,-0.5 473,-19.5 523,-19.5 523,-0.5 473,-0.5"/>
<text text-anchor="middle" x="498" y="-7.5" font-family="FreeSans" font-size="10.00">wx/file.h</text>
</g>
<!-- Node5&#45;&gt;Node9 -->
<g id="edge9" class="edge"><title>Node5&#45;&gt;Node9</title>
<path fill="none" stroke="midnightblue" d="M465.44,-56.083C470.949,-48.4554 479.031,-37.2645 485.765,-27.9408"/>
<polygon fill="midnightblue" stroke="midnightblue" points="488.662,-29.9071 491.68,-19.7511 482.987,-25.8087 488.662,-29.9071"/>
</g>
<!-- Node10 -->
<g id="node11" class="node"><title>Node10</title>
<polygon fill="none" stroke="#bfbfbf" points="541,-0.5 541,-19.5 615,-19.5 615,-0.5 541,-0.5"/>
<text text-anchor="middle" x="578" y="-7.5" font-family="FreeSans" font-size="10.00">wx/filename.h</text>
</g>
<!-- Node5&#45;&gt;Node10 -->
<g id="edge10" class="edge"><title>Node5&#45;&gt;Node10</title>
<path fill="none" stroke="midnightblue" d="M477.856,-56.4435C497.266,-47.6356 527.73,-33.8116 549.965,-23.722"/>
<polygon fill="midnightblue" stroke="midnightblue" points="551.572,-26.836 559.232,-19.5164 548.68,-20.4615 551.572,-26.836"/>
</g>
<!-- Node11 -->
<g id="node12" class="node"><title>Node11</title>
<polygon fill="none" stroke="#bfbfbf" points="633.5,-0.5 633.5,-19.5 684.5,-19.5 684.5,-0.5 633.5,-0.5"/>
<text text-anchor="middle" x="659" y="-7.5" font-family="FreeSans" font-size="10.00">wx/intl.h</text>
</g>
<!-- Node5&#45;&gt;Node11 -->
<g id="edge11" class="edge"><title>Node5&#45;&gt;Node11</title>
<path fill="none" stroke="midnightblue" d="M486.39,-57.6048C522.016,-47.9856 584.319,-31.1638 623.526,-20.5779"/>
<polygon fill="midnightblue" stroke="midnightblue" points="624.465,-23.9498 633.207,-17.9641 622.64,-17.1918 624.465,-23.9498"/>
</g>
<!-- Node12 -->
<g id="node13" class="node"><title>Node12</title>
<polygon fill="none" stroke="#bfbfbf" points="702.5,-0.5 702.5,-19.5 771.5,-19.5 771.5,-0.5 702.5,-0.5"/>
<text text-anchor="middle" x="737" y="-7.5" font-family="FreeSans" font-size="10.00">wx/msgdlg.h</text>
</g>
<!-- Node5&#45;&gt;Node12 -->
<g id="edge12" class="edge"><title>Node5&#45;&gt;Node12</title>
<path fill="none" stroke="midnightblue" d="M486.169,-59.9538C528.165,-52.12 611.637,-36.4158 691.988,-20.3797"/>
<polygon fill="midnightblue" stroke="midnightblue" points="693.158,-23.715 702.277,-18.3209 691.784,-16.8511 693.158,-23.715"/>
</g>
<!-- Node13 -->
<g id="node14" class="node"><title>Node13</title>
<polygon fill="none" stroke="#bfbfbf" points="790,-0.5 790,-19.5 858,-19.5 858,-0.5 790,-0.5"/>
<text text-anchor="middle" x="824" y="-7.5" font-family="FreeSans" font-size="10.00">wx/bitmap.h</text>
</g>
<!-- Node5&#45;&gt;Node13 -->
<g id="edge13" class="edge"><title>Node5&#45;&gt;Node13</title>
<path fill="none" stroke="midnightblue" d="M486.237,-61.8233C540.253,-55.3886 664.958,-39.8637 779.762,-20.1183"/>
<polygon fill="midnightblue" stroke="midnightblue" points="780.518,-23.5394 789.773,-18.3812 779.321,-16.6425 780.518,-23.5394"/>
</g>
</g>
</svg>
