<?xml version="1.0" encoding="UTF-8" standalone="no"?>
<!DOCTYPE svg PUBLIC "-//W3C//DTD SVG 1.1//EN"
 "http://www.w3.org/Graphics/SVG/1.1/DTD/svg11.dtd">
<!-- Generated by graphviz version 2.38.0 (20140413.2041)
 -->
<!-- Title: editorcolourset.h Pages: 1 -->
<svg width="1197pt" height="140pt"
 viewBox="0.00 0.00 1196.50 140.00" xmlns="http://www.w3.org/2000/svg" xmlns:xlink="http://www.w3.org/1999/xlink">
<g id="graph0" class="graph" transform="scale(1 1) rotate(0) translate(4 136)">
<title>editorcolourset.h</title>
<!-- Node0 -->
<g id="node1" class="node"><title>Node0</title>
<polygon fill="#bfbfbf" stroke="black" points="241,-112.5 241,-131.5 328,-131.5 328,-112.5 241,-112.5"/>
<text text-anchor="middle" x="284.5" y="-119.5" font-family="FreeSans" font-size="10.00">editorcolourset.h</text>
</g>
<!-- Node1 -->
<g id="node2" class="node"><title>Node1</title>
<polygon fill="none" stroke="#bfbfbf" points="48.5,-56.5 48.5,-75.5 122.5,-75.5 122.5,-56.5 48.5,-56.5"/>
<text text-anchor="middle" x="85.5" y="-63.5" font-family="FreeSans" font-size="10.00">wx/dynarray.h</text>
</g>
<!-- Node0&#45;&gt;Node1 -->
<g id="edge1" class="edge"><title>Node0&#45;&gt;Node1</title>
<path fill="none" stroke="midnightblue" d="M252.968,-112.444C218.908,-103.201 164.494,-88.4356 126.985,-78.2572"/>
<polygon fill="midnightblue" stroke="midnightblue" points="127.452,-74.7575 116.885,-75.5164 125.619,-81.5132 127.452,-74.7575"/>
</g>
<!-- Node2 -->
<g id="node3" class="node"><title>Node2</title>
<polygon fill="none" stroke="#bfbfbf" points="141,-56.5 141,-75.5 218,-75.5 218,-56.5 141,-56.5"/>
<text text-anchor="middle" x="179.5" y="-63.5" font-family="FreeSans" font-size="10.00">wx/hashmap.h</text>
</g>
<!-- Node0&#45;&gt;Node2 -->
<g id="edge2" class="edge"><title>Node0&#45;&gt;Node2</title>
<path fill="none" stroke="midnightblue" d="M267.63,-112.324C250.791,-103.664 224.693,-90.2424 205.262,-80.249"/>
<polygon fill="midnightblue" stroke="midnightblue" points="206.822,-77.1155 196.328,-75.6545 203.62,-83.3405 206.822,-77.1155"/>
</g>
<!-- Node3 -->
<g id="node4" class="node"><title>Node3</title>
<polygon fill="none" stroke="#bfbfbf" points="0,-0.5 0,-19.5 51,-19.5 51,-0.5 0,-0.5"/>
<text text-anchor="middle" x="25.5" y="-7.5" font-family="FreeSans" font-size="10.00">wx/intl.h</text>
</g>
<!-- Node0&#45;&gt;Node3 -->
<g id="edge3" class="edge"><title>Node0&#45;&gt;Node3</title>
<path fill="none" stroke="midnightblue" d="M279.315,-112.253C270.412,-98.0541 250.81,-70.1551 226.5,-56 163.577,-19.3614 135.655,-36.1827 60.9377,-20.1532"/>
<polygon fill="midnightblue" stroke="midnightblue" points="61.6151,-16.7179 51.0875,-17.9094 60.0604,-23.5431 61.6151,-16.7179"/>
</g>
<!-- Node4 -->
<g id="node5" class="node"><title>Node4</title>
<g id="a_node5"><a xlink:href="wxscintilla_8h" target="_top" xlink:title="wx/wxscintilla.h">
<polygon fill="none" stroke="black" points="837.5,-56.5 837.5,-75.5 919.5,-75.5 919.5,-56.5 837.5,-56.5"/>
<text text-anchor="middle" x="878.5" y="-63.5" font-family="FreeSans" font-size="10.00">wx/wxscintilla.h</text>
</a>
</g>
</g>
<!-- Node0&#45;&gt;Node4 -->
<g id="edge4" class="edge"><title>Node0&#45;&gt;Node4</title>
<path fill="none" stroke="midnightblue" d="M328.178,-117.029C435.589,-107.265 712.196,-82.1185 827.182,-71.6653"/>
<polygon fill="midnightblue" stroke="midnightblue" points="827.5,-75.1509 837.142,-70.7598 826.866,-68.1796 827.5,-75.1509"/>
</g>
<!-- Node11 -->
<g id="node12" class="node"><title>Node11</title>
<g id="a_node12"><a xlink:href="settings_8h" target="_top" xlink:title="settings.h">
<polygon fill="none" stroke="black" points="69,-0.5 69,-19.5 126,-19.5 126,-0.5 69,-0.5"/>
<text text-anchor="middle" x="97.5" y="-7.5" font-family="FreeSans" font-size="10.00">settings.h</text>
</a>
</g>
</g>
<!-- Node0&#45;&gt;Node11 -->
<g id="edge11" class="edge"><title>Node0&#45;&gt;Node11</title>
<path fill="none" stroke="midnightblue" d="M283.793,-112.474C282.179,-98.5929 276.974,-71.1402 260.5,-56 255.818,-51.6971 182.79,-32.601 136.087,-20.7101"/>
<polygon fill="midnightblue" stroke="midnightblue" points="136.823,-17.286 126.269,-18.2177 135.101,-24.0708 136.823,-17.286"/>
</g>
<!-- Node12 -->
<g id="node13" class="node"><title>Node12</title>
<g id="a_node13"><a xlink:href="globals_8h" target="_top" xlink:title="globals.h">
<polygon fill="none" stroke="black" points="312.5,-56.5 312.5,-75.5 366.5,-75.5 366.5,-56.5 312.5,-56.5"/>
<text text-anchor="middle" x="339.5" y="-63.5" font-family="FreeSans" font-size="10.00">globals.h</text>
</a>
</g>
</g>
<!-- Node0&#45;&gt;Node12 -->
<g id="edge12" class="edge"><title>Node0&#45;&gt;Node12</title>
<path fill="none" stroke="midnightblue" d="M293.582,-112.083C301.671,-104.141 313.695,-92.3354 323.41,-82.7973"/>
<polygon fill="midnightblue" stroke="midnightblue" points="325.903,-85.2545 330.587,-75.7511 320.999,-80.2595 325.903,-85.2545"/>
</g>
<!-- Node20 -->
<g id="node21" class="node"><title>Node20</title>
<polygon fill="none" stroke="#bfbfbf" points="938,-56.5 938,-75.5 967,-75.5 967,-56.5 938,-56.5"/>
<text text-anchor="middle" x="952.5" y="-63.5" font-family="FreeSans" font-size="10.00">set</text>
</g>
<!-- Node0&#45;&gt;Node20 -->
<g id="edge22" class="edge"><title>Node0&#45;&gt;Node20</title>
<path fill="none" stroke="midnightblue" d="M328.269,-119.587C450.632,-115.383 795.394,-101.74 928.051,-75.3013"/>
<polygon fill="midnightblue" stroke="midnightblue" points="928.916,-78.696 937.979,-73.2089 927.473,-71.8464 928.916,-78.696"/>
</g>
<!-- Node5 -->
<g id="node6" class="node"><title>Node5</title>
<polygon fill="none" stroke="#bfbfbf" points="974.5,-0.5 974.5,-19.5 1030.5,-19.5 1030.5,-0.5 974.5,-0.5"/>
<text text-anchor="middle" x="1002.5" y="-7.5" font-family="FreeSans" font-size="10.00">wx/defs.h</text>
</g>
<!-- Node4&#45;&gt;Node5 -->
<g id="edge5" class="edge"><title>Node4&#45;&gt;Node5</title>
<path fill="none" stroke="midnightblue" d="M898.148,-56.4435C918.465,-47.5961 950.403,-33.6875 973.598,-23.5865"/>
<polygon fill="midnightblue" stroke="midnightblue" points="975.173,-26.7181 982.944,-19.5164 972.378,-20.3002 975.173,-26.7181"/>
</g>
<!-- Node6 -->
<g id="node7" class="node"><title>Node6</title>
<polygon fill="none" stroke="#bfbfbf" points="1048.5,-0.5 1048.5,-19.5 1116.5,-19.5 1116.5,-0.5 1048.5,-0.5"/>
<text text-anchor="middle" x="1082.5" y="-7.5" font-family="FreeSans" font-size="10.00">wx/control.h</text>
</g>
<!-- Node4&#45;&gt;Node6 -->
<g id="edge6" class="edge"><title>Node4&#45;&gt;Node6</title>
<path fill="none" stroke="midnightblue" d="M910.824,-56.4435C945.889,-47.1616 1002,-32.3093 1040.46,-22.127"/>
<polygon fill="midnightblue" stroke="midnightblue" points="1041.56,-25.4589 1050.33,-19.5164 1039.76,-18.692 1041.56,-25.4589"/>
</g>
<!-- Node7 -->
<g id="node8" class="node"><title>Node7</title>
<polygon fill="none" stroke="#bfbfbf" points="1134.5,-0.5 1134.5,-19.5 1188.5,-19.5 1188.5,-0.5 1134.5,-0.5"/>
<text text-anchor="middle" x="1161.5" y="-7.5" font-family="FreeSans" font-size="10.00">wx/dnd.h</text>
</g>
<!-- Node4&#45;&gt;Node7 -->
<g id="edge7" class="edge"><title>Node4&#45;&gt;Node7</title>
<path fill="none" stroke="midnightblue" d="M919.622,-57.6587C978.764,-47.0796 1084.41,-28.0997 1124.55,-20.0244"/>
<polygon fill="midnightblue" stroke="midnightblue" points="1125.34,-23.4352 1134.42,-17.9704 1123.91,-16.5821 1125.34,-23.4352"/>
</g>
<!-- Node8 -->
<g id="node9" class="node"><title>Node8</title>
<polygon fill="none" stroke="#bfbfbf" points="706.5,-0.5 706.5,-19.5 788.5,-19.5 788.5,-0.5 706.5,-0.5"/>
<text text-anchor="middle" x="747.5" y="-7.5" font-family="FreeSans" font-size="10.00">wx/stopwatch.h</text>
</g>
<!-- Node4&#45;&gt;Node8 -->
<g id="edge8" class="edge"><title>Node4&#45;&gt;Node8</title>
<path fill="none" stroke="midnightblue" d="M857.743,-56.4435C836.184,-47.5566 802.237,-33.5632 777.706,-23.4514"/>
<polygon fill="midnightblue" stroke="midnightblue" points="778.739,-20.0917 768.16,-19.5164 776.072,-26.5634 778.739,-20.0917"/>
</g>
<!-- Node9 -->
<g id="node10" class="node"><title>Node9</title>
<polygon fill="none" stroke="#bfbfbf" points="806.5,-0.5 806.5,-19.5 866.5,-19.5 866.5,-0.5 806.5,-0.5"/>
<text text-anchor="middle" x="836.5" y="-7.5" font-family="FreeSans" font-size="10.00">wx/timer.h</text>
</g>
<!-- Node4&#45;&gt;Node9 -->
<g id="edge9" class="edge"><title>Node4&#45;&gt;Node9</title>
<path fill="none" stroke="midnightblue" d="M871.565,-56.083C865.571,-48.3768 856.748,-37.0333 849.452,-27.6531"/>
<polygon fill="midnightblue" stroke="midnightblue" points="852.209,-25.4958 843.306,-19.7511 846.683,-29.7934 852.209,-25.4958"/>
</g>
<!-- Node10 -->
<g id="node11" class="node"><title>Node10</title>
<polygon fill="none" stroke="#bfbfbf" points="884.5,-0.5 884.5,-19.5 956.5,-19.5 956.5,-0.5 884.5,-0.5"/>
<text text-anchor="middle" x="920.5" y="-7.5" font-family="FreeSans" font-size="10.00">wx/scrolbar.h</text>
</g>
<!-- Node4&#45;&gt;Node10 -->
<g id="edge10" class="edge"><title>Node4&#45;&gt;Node10</title>
<path fill="none" stroke="midnightblue" d="M885.435,-56.083C891.429,-48.3768 900.252,-37.0333 907.548,-27.6531"/>
<polygon fill="midnightblue" stroke="midnightblue" points="910.317,-29.7934 913.694,-19.7511 904.791,-25.4958 910.317,-29.7934"/>
</g>
<!-- Node12&#45;&gt;Node3 -->
<g id="edge18" class="edge"><title>Node12&#45;&gt;Node3</title>
<path fill="none" stroke="midnightblue" d="M312.305,-61.5446C263.746,-55.1791 158.768,-40.5327 61.0898,-20.1736"/>
<polygon fill="midnightblue" stroke="midnightblue" points="61.5616,-16.6961 51.0544,-18.0559 60.1162,-23.5453 61.5616,-16.6961"/>
</g>
<!-- Node12&#45;&gt;Node11 -->
<g id="edge21" class="edge"><title>Node12&#45;&gt;Node11</title>
<path fill="none" stroke="midnightblue" d="M312.416,-59.0502C265.984,-48.8464 173.26,-28.4547 136.104,-20.093"/>
<polygon fill="midnightblue" stroke="midnightblue" points="136.649,-16.6278 126.123,-17.8291 135.101,-23.4544 136.649,-16.6278"/>
</g>
<!-- Node13 -->
<g id="node14" class="node"><title>Node13</title>
<polygon fill="none" stroke="#bfbfbf" points="479,-0.5 479,-19.5 522,-19.5 522,-0.5 479,-0.5"/>
<text text-anchor="middle" x="500.5" y="-7.5" font-family="FreeSans" font-size="10.00">vector</text>
</g>
<!-- Node12&#45;&gt;Node13 -->
<g id="edge13" class="edge"><title>Node12&#45;&gt;Node13</title>
<path fill="none" stroke="midnightblue" d="M365.011,-56.4435C393.211,-46.985 438.658,-31.7421 469.042,-21.551"/>
<polygon fill="midnightblue" stroke="midnightblue" points="470.355,-24.8025 478.723,-18.3042 468.129,-18.1659 470.355,-24.8025"/>
</g>
<!-- Node14 -->
<g id="node15" class="node"><title>Node14</title>
<polygon fill="none" stroke="#bfbfbf" points="540.5,-0.5 540.5,-19.5 602.5,-19.5 602.5,-0.5 540.5,-0.5"/>
<text text-anchor="middle" x="571.5" y="-7.5" font-family="FreeSans" font-size="10.00">wx/string.h</text>
</g>
<!-- Node12&#45;&gt;Node14 -->
<g id="edge14" class="edge"><title>Node12&#45;&gt;Node14</title>
<path fill="none" stroke="midnightblue" d="M366.567,-58.6998C406.879,-49.3169 483.001,-31.5988 530.267,-20.5974"/>
<polygon fill="midnightblue" stroke="midnightblue" points="531.233,-23.9661 540.179,-18.2901 529.646,-17.1483 531.233,-23.9661"/>
</g>
<!-- Node15 -->
<g id="node16" class="node"><title>Node15</title>
<polygon fill="none" stroke="#bfbfbf" points="620.5,-0.5 620.5,-19.5 688.5,-19.5 688.5,-0.5 620.5,-0.5"/>
<text text-anchor="middle" x="654.5" y="-7.5" font-family="FreeSans" font-size="10.00">wx/treectrl.h</text>
</g>
<!-- Node12&#45;&gt;Node15 -->
<g id="edge15" class="edge"><title>Node12&#45;&gt;Node15</title>
<path fill="none" stroke="midnightblue" d="M366.591,-60.9073C413.906,-53.6759 514.897,-37.8704 610.168,-20.1874"/>
<polygon fill="midnightblue" stroke="midnightblue" points="611.071,-23.5794 620.258,-18.3033 609.786,-16.6983 611.071,-23.5794"/>
</g>
<!-- Node16 -->
<g id="node17" class="node"><title>Node16</title>
<polygon fill="none" stroke="#bfbfbf" points="144.5,-0.5 144.5,-19.5 194.5,-19.5 194.5,-0.5 144.5,-0.5"/>
<text text-anchor="middle" x="169.5" y="-7.5" font-family="FreeSans" font-size="10.00">wx/file.h</text>
</g>
<!-- Node12&#45;&gt;Node16 -->
<g id="edge16" class="edge"><title>Node12&#45;&gt;Node16</title>
<path fill="none" stroke="midnightblue" d="M312.563,-56.4435C283.333,-47.1586 236.554,-32.2996 204.498,-22.117"/>
<polygon fill="midnightblue" stroke="midnightblue" points="205.239,-18.68 194.648,-18.9883 203.12,-25.3515 205.239,-18.68"/>
</g>
<!-- Node17 -->
<g id="node18" class="node"><title>Node17</title>
<polygon fill="none" stroke="#bfbfbf" points="212.5,-0.5 212.5,-19.5 286.5,-19.5 286.5,-0.5 212.5,-0.5"/>
<text text-anchor="middle" x="249.5" y="-7.5" font-family="FreeSans" font-size="10.00">wx/filename.h</text>
</g>
<!-- Node12&#45;&gt;Node17 -->
<g id="edge17" class="edge"><title>Node12&#45;&gt;Node17</title>
<path fill="none" stroke="midnightblue" d="M325.04,-56.324C311,-47.9002 289.452,-34.9709 272.957,-25.0741"/>
<polygon fill="midnightblue" stroke="midnightblue" points="274.3,-21.7983 263.924,-19.6545 270.698,-27.8007 274.3,-21.7983"/>
</g>
<!-- Node18 -->
<g id="node19" class="node"><title>Node18</title>
<polygon fill="none" stroke="#bfbfbf" points="305,-0.5 305,-19.5 374,-19.5 374,-0.5 305,-0.5"/>
<text text-anchor="middle" x="339.5" y="-7.5" font-family="FreeSans" font-size="10.00">wx/msgdlg.h</text>
</g>
<!-- Node12&#45;&gt;Node18 -->
<g id="edge19" class="edge"><title>Node12&#45;&gt;Node18</title>
<path fill="none" stroke="midnightblue" d="M339.5,-56.083C339.5,-49.0059 339.5,-38.8611 339.5,-29.9865"/>
<polygon fill="midnightblue" stroke="midnightblue" points="343,-29.751 339.5,-19.7511 336,-29.7511 343,-29.751"/>
</g>
<!-- Node19 -->
<g id="node20" class="node"><title>Node19</title>
<polygon fill="none" stroke="#bfbfbf" points="392.5,-0.5 392.5,-19.5 460.5,-19.5 460.5,-0.5 392.5,-0.5"/>
<text text-anchor="middle" x="426.5" y="-7.5" font-family="FreeSans" font-size="10.00">wx/bitmap.h</text>
</g>
<!-- Node12&#45;&gt;Node19 -->
<g id="edge20" class="edge"><title>Node12&#45;&gt;Node19</title>
<path fill="none" stroke="midnightblue" d="M353.478,-56.324C367.05,-47.9002 387.88,-34.9709 403.825,-25.0741"/>
<polygon fill="midnightblue" stroke="midnightblue" points="405.906,-27.9019 412.557,-19.6545 402.214,-21.9544 405.906,-27.9019"/>
</g>
</g>
</svg>
