<?xml version="1.0" encoding="UTF-8" standalone="no"?>
<!DOCTYPE svg PUBLIC "-//W3C//DTD SVG 1.1//EN"
 "http://www.w3.org/Graphics/SVG/1.1/DTD/svg11.dtd">
<!-- Generated by graphviz version 2.40.1 (20161225.0304)
 -->
<!-- Title: editor_hooks.cpp Pages: 1 -->
<svg width="2285pt" height="196pt"
 viewBox="0.00 0.00 2284.50 196.00" xmlns="http://www.w3.org/2000/svg" xmlns:xlink="http://www.w3.org/1999/xlink">
<g id="graph0" class="graph" transform="scale(1 1) rotate(0) translate(4 192)">
<title>editor_hooks.cpp</title>
<!-- Node0 -->
<g id="node1" class="node">
<title>Node0</title>
<polygon fill="#bfbfbf" stroke="#000000" points="2133.5,-168.5 2133.5,-187.5 2222.5,-187.5 2222.5,-168.5 2133.5,-168.5"/>
<text text-anchor="middle" x="2178" y="-175.5" font-family="FreeSans" font-size="10.00" fill="#000000">editor_hooks.cpp</text>
</g>
<!-- Node1 -->
<g id="node2" class="node">
<title>Node1</title>
<g id="a_node2"><a xlink:href="sdk__precomp_8h" target="_top" xlink:title="sdk_precomp.h">
<polygon fill="none" stroke="#000000" points="1635,-112.5 1635,-131.5 1717,-131.5 1717,-112.5 1635,-112.5"/>
<text text-anchor="middle" x="1676" y="-119.5" font-family="FreeSans" font-size="10.00" fill="#000000">sdk_precomp.h</text>
</a>
</g>
</g>
<!-- Node0&#45;&gt;Node1 -->
<g id="edge1" class="edge">
<title>Node0&#45;&gt;Node1</title>
<path fill="none" stroke="#191970" d="M2133.4508,-173.0304C2040.4009,-162.6503 1825.896,-138.7215 1727.2857,-127.7211"/>
<polygon fill="#191970" stroke="#191970" points="1727.5888,-124.2333 1717.2624,-126.603 1726.8127,-131.1901 1727.5888,-124.2333"/>
</g>
<!-- Node63 -->
<g id="node29" class="node">
<title>Node63</title>
<g id="a_node29"><a xlink:href="wxscintilla_8h" target="_top" xlink:title="wx/wxscintilla.h">
<polygon fill="none" stroke="#ff0000" points="2118,-.5 2118,-19.5 2200,-19.5 2200,-.5 2118,-.5"/>
<text text-anchor="middle" x="2159" y="-7.5" font-family="FreeSans" font-size="10.00" fill="#000000">wx/wxscintilla.h</text>
</a>
</g>
</g>
<!-- Node0&#45;&gt;Node63 -->
<g id="edge32" class="edge">
<title>Node0&#45;&gt;Node63</title>
<path fill="none" stroke="#191970" d="M2176.924,-168.4862C2173.9206,-141.9293 2165.3972,-66.5651 2161.2806,-30.1655"/>
<polygon fill="#191970" stroke="#191970" points="2164.7132,-29.3712 2160.1115,-19.8279 2157.7575,-30.1579 2164.7132,-29.3712"/>
</g>
<!-- Node137 -->
<g id="node31" class="node">
<title>Node137</title>
<g id="a_node31"><a xlink:href="editor__hooks_8h" target="_top" xlink:title="editor_hooks.h">
<polygon fill="none" stroke="#000000" points="2197.5,-56.5 2197.5,-75.5 2276.5,-75.5 2276.5,-56.5 2197.5,-56.5"/>
<text text-anchor="middle" x="2237" y="-63.5" font-family="FreeSans" font-size="10.00" fill="#000000">editor_hooks.h</text>
</a>
</g>
</g>
<!-- Node0&#45;&gt;Node137 -->
<g id="edge30" class="edge">
<title>Node0&#45;&gt;Node137</title>
<path fill="none" stroke="#191970" d="M2183.0303,-168.4509C2192.8273,-149.8533 2214.6159,-108.4919 2227.309,-84.3964"/>
<polygon fill="#191970" stroke="#191970" points="2230.4183,-86.0036 2231.9824,-75.5249 2224.225,-82.7411 2230.4183,-86.0036"/>
</g>
<!-- Node89 -->
<g id="node32" class="node">
<title>Node89</title>
<polygon fill="none" stroke="#bfbfbf" points="2225.5,-112.5 2225.5,-131.5 2260.5,-131.5 2260.5,-112.5 2225.5,-112.5"/>
<text text-anchor="middle" x="2243" y="-119.5" font-family="FreeSans" font-size="10.00" fill="#000000">map</text>
</g>
<!-- Node0&#45;&gt;Node89 -->
<g id="edge33" class="edge">
<title>Node0&#45;&gt;Node89</title>
<path fill="none" stroke="#191970" d="M2189.3221,-168.2455C2198.9223,-159.9746 2212.8892,-147.9416 2224.1695,-138.2232"/>
<polygon fill="#191970" stroke="#191970" points="2226.516,-140.8214 2231.8076,-131.6427 2221.947,-135.5182 2226.516,-140.8214"/>
</g>
<!-- Node2 -->
<g id="node3" class="node">
<title>Node2</title>
<g id="a_node3"><a xlink:href="sdk__common_8h" target="_top" xlink:title="sdk_common.h">
<polygon fill="none" stroke="#ff0000" points="1183,-56.5 1183,-75.5 1265,-75.5 1265,-56.5 1183,-56.5"/>
<text text-anchor="middle" x="1224" y="-63.5" font-family="FreeSans" font-size="10.00" fill="#000000">sdk_common.h</text>
</a>
</g>
</g>
<!-- Node1&#45;&gt;Node2 -->
<g id="edge2" class="edge">
<title>Node1&#45;&gt;Node2</title>
<path fill="none" stroke="#191970" d="M1634.6898,-116.8819C1551.8009,-106.6125 1365.4284,-83.5221 1275.0599,-72.326"/>
<polygon fill="#191970" stroke="#191970" points="1275.4053,-68.8421 1265.0508,-71.0859 1274.5445,-75.789 1275.4053,-68.8421"/>
</g>
<!-- Node3 -->
<g id="node4" class="node">
<title>Node3</title>
<polygon fill="none" stroke="#bfbfbf" points="1639,-.5 1639,-19.5 1707,-19.5 1707,-.5 1639,-.5"/>
<text text-anchor="middle" x="1673" y="-7.5" font-family="FreeSans" font-size="10.00" fill="#000000">wx/wxprec.h</text>
</g>
<!-- Node2&#45;&gt;Node3 -->
<g id="edge3" class="edge">
<title>Node2&#45;&gt;Node3</title>
<path fill="none" stroke="#191970" d="M1265.0251,-62.8474C1338.3971,-56.8745 1496.7955,-42.4606 1629,-20 1629.1014,-19.9828 1629.2028,-19.9655 1629.3044,-19.9481"/>
<polygon fill="#191970" stroke="#191970" points="1629.7866,-23.4189 1638.9643,-18.1256 1628.4888,-16.5403 1629.7866,-23.4189"/>
</g>
<!-- Node4 -->
<g id="node5" class="node">
<title>Node4</title>
<g id="a_node5"><a xlink:href="prep_8h" target="_top" xlink:title="prep.h">
<polygon fill="none" stroke="#000000" points="1725.5,-.5 1725.5,-19.5 1768.5,-19.5 1768.5,-.5 1725.5,-.5"/>
<text text-anchor="middle" x="1747" y="-7.5" font-family="FreeSans" font-size="10.00" fill="#000000">prep.h</text>
</a>
</g>
</g>
<!-- Node2&#45;&gt;Node4 -->
<g id="edge4" class="edge">
<title>Node2&#45;&gt;Node4</title>
<path fill="none" stroke="#191970" d="M1265.2677,-65.1805C1348.7714,-62.8714 1543.684,-54.1794 1715.502,-19.6473"/>
<polygon fill="#191970" stroke="#191970" points="1716.385,-23.0392 1725.4812,-17.6068 1714.9827,-16.1811 1716.385,-23.0392"/>
</g>
<!-- Node5 -->
<g id="node6" class="node">
<title>Node5</title>
<polygon fill="none" stroke="#bfbfbf" points="1787,-.5 1787,-19.5 1841,-19.5 1841,-.5 1787,-.5"/>
<text text-anchor="middle" x="1814" y="-7.5" font-family="FreeSans" font-size="10.00" fill="#000000">wx/app.h</text>
</g>
<!-- Node2&#45;&gt;Node5 -->
<g id="edge5" class="edge">
<title>Node2&#45;&gt;Node5</title>
<path fill="none" stroke="#191970" d="M1265.2558,-65.1149C1356.0652,-62.6215 1580.0876,-53.485 1776.7112,-19.7167"/>
<polygon fill="#191970" stroke="#191970" points="1777.3946,-23.1504 1786.6451,-17.9853 1776.1927,-16.2544 1777.3946,-23.1504"/>
</g>
<!-- Node6 -->
<g id="node7" class="node">
<title>Node6</title>
<polygon fill="none" stroke="#bfbfbf" points="1859,-.5 1859,-19.5 1919,-19.5 1919,-.5 1859,-.5"/>
<text text-anchor="middle" x="1889" y="-7.5" font-family="FreeSans" font-size="10.00" fill="#000000">wx/arrstr.h</text>
</g>
<!-- Node2&#45;&gt;Node6 -->
<g id="edge6" class="edge">
<title>Node2&#45;&gt;Node6</title>
<path fill="none" stroke="#191970" d="M1265.3127,-65.4944C1364.5015,-63.7408 1623.9373,-55.952 1848.8703,-19.9132"/>
<polygon fill="#191970" stroke="#191970" points="1849.5692,-23.3456 1858.8784,-18.2871 1848.4465,-16.4362 1849.5692,-23.3456"/>
</g>
<!-- Node7 -->
<g id="node8" class="node">
<title>Node7</title>
<polygon fill="none" stroke="#bfbfbf" points="1937.5,-.5 1937.5,-19.5 2016.5,-19.5 2016.5,-.5 1937.5,-.5"/>
<text text-anchor="middle" x="1977" y="-7.5" font-family="FreeSans" font-size="10.00" fill="#000000">wx/bmpbuttn.h</text>
</g>
<!-- Node2&#45;&gt;Node7 -->
<g id="edge7" class="edge">
<title>Node2&#45;&gt;Node7</title>
<path fill="none" stroke="#191970" d="M1265.061,-65.267C1372.3421,-62.9362 1669.9349,-53.8063 1927.5796,-19.8638"/>
<polygon fill="#191970" stroke="#191970" points="1928.0481,-23.3324 1937.4981,-18.5421 1927.1234,-16.3937 1928.0481,-23.3324"/>
</g>
<!-- Node8 -->
<g id="node9" class="node">
<title>Node8</title>
<polygon fill="none" stroke="#bfbfbf" points="2034.5,-.5 2034.5,-19.5 2099.5,-19.5 2099.5,-.5 2034.5,-.5"/>
<text text-anchor="middle" x="2067" y="-7.5" font-family="FreeSans" font-size="10.00" fill="#000000">wx/button.h</text>
</g>
<!-- Node2&#45;&gt;Node8 -->
<g id="edge8" class="edge">
<title>Node2&#45;&gt;Node8</title>
<path fill="none" stroke="#191970" d="M1265.1604,-64.5973C1404.2474,-59.71 1856.8919,-42.5677 2023.9775,-19.8494"/>
<polygon fill="#191970" stroke="#191970" points="2024.6819,-23.2846 2034.0914,-18.4151 2023.699,-16.3539 2024.6819,-23.2846"/>
</g>
<!-- Node9 -->
<g id="node10" class="node">
<title>Node9</title>
<polygon fill="none" stroke="#bfbfbf" points="0,-.5 0,-19.5 80,-19.5 80,-.5 0,-.5"/>
<text text-anchor="middle" x="40" y="-7.5" font-family="FreeSans" font-size="10.00" fill="#000000">wx/checkbox.h</text>
</g>
<!-- Node2&#45;&gt;Node9 -->
<g id="edge9" class="edge">
<title>Node2&#45;&gt;Node9</title>
<path fill="none" stroke="#191970" d="M1182.8661,-65.2202C1008.3302,-61.777 327.516,-46.951 90.3074,-19.9277"/>
<polygon fill="#191970" stroke="#191970" points="90.3667,-16.4105 80.0255,-18.7144 89.5464,-23.3623 90.3667,-16.4105"/>
</g>
<!-- Node10 -->
<g id="node11" class="node">
<title>Node10</title>
<polygon fill="none" stroke="#bfbfbf" points="98,-.5 98,-19.5 172,-19.5 172,-.5 98,-.5"/>
<text text-anchor="middle" x="135" y="-7.5" font-family="FreeSans" font-size="10.00" fill="#000000">wx/checklst.h</text>
</g>
<!-- Node2&#45;&gt;Node10 -->
<g id="edge10" class="edge">
<title>Node2&#45;&gt;Node10</title>
<path fill="none" stroke="#191970" d="M1182.8394,-65.1203C1017.3857,-61.4417 399.6787,-46.3056 182.1167,-19.8898"/>
<polygon fill="#191970" stroke="#191970" points="182.4215,-16.4006 172.0625,-18.6234 181.5467,-23.3457 182.4215,-16.4006"/>
</g>
<!-- Node11 -->
<g id="node12" class="node">
<title>Node11</title>
<polygon fill="none" stroke="#bfbfbf" points="190.5,-.5 190.5,-19.5 257.5,-19.5 257.5,-.5 190.5,-.5"/>
<text text-anchor="middle" x="224" y="-7.5" font-family="FreeSans" font-size="10.00" fill="#000000">wx/choice.h</text>
</g>
<!-- Node2&#45;&gt;Node11 -->
<g id="edge11" class="edge">
<title>Node2&#45;&gt;Node11</title>
<path fill="none" stroke="#191970" d="M1182.7568,-65.0094C1026.1516,-61.0966 467.5651,-45.727 267.7847,-19.8032"/>
<polygon fill="#191970" stroke="#191970" points="268.0717,-16.3103 257.6934,-18.4414 267.1355,-23.2474 268.0717,-16.3103"/>
</g>
<!-- Node12 -->
<g id="node13" class="node">
<title>Node12</title>
<polygon fill="none" stroke="#bfbfbf" points="276,-.5 276,-19.5 350,-19.5 350,-.5 276,-.5"/>
<text text-anchor="middle" x="313" y="-7.5" font-family="FreeSans" font-size="10.00" fill="#000000">wx/choicdlg.h</text>
</g>
<!-- Node2&#45;&gt;Node12 -->
<g id="edge12" class="edge">
<title>Node2&#45;&gt;Node12</title>
<path fill="none" stroke="#191970" d="M1182.9633,-64.6951C1036.7429,-59.9114 540.7554,-42.502 360.2189,-19.9153"/>
<polygon fill="#191970" stroke="#191970" points="360.4344,-16.4139 350.0664,-18.5941 359.5311,-23.3554 360.4344,-16.4139"/>
</g>
<!-- Node13 -->
<g id="node14" class="node">
<title>Node13</title>
<polygon fill="none" stroke="#bfbfbf" points="368,-.5 368,-19.5 440,-19.5 440,-.5 368,-.5"/>
<text text-anchor="middle" x="404" y="-7.5" font-family="FreeSans" font-size="10.00" fill="#000000">wx/colordlg.h</text>
</g>
<!-- Node2&#45;&gt;Node13 -->
<g id="edge13" class="edge">
<title>Node2&#45;&gt;Node13</title>
<path fill="none" stroke="#191970" d="M1182.7462,-64.421C1046.6786,-59.0796 612.06,-40.9224 450.4996,-19.9626"/>
<polygon fill="#191970" stroke="#191970" points="450.6376,-16.4495 440.2588,-18.5781 449.6997,-23.3864 450.6376,-16.4495"/>
</g>
<!-- Node14 -->
<g id="node15" class="node">
<title>Node14</title>
<polygon fill="none" stroke="#bfbfbf" points="458.5,-.5 458.5,-19.5 541.5,-19.5 541.5,-.5 458.5,-.5"/>
<text text-anchor="middle" x="500" y="-7.5" font-family="FreeSans" font-size="10.00" fill="#000000">wx/combobox.h</text>
</g>
<!-- Node2&#45;&gt;Node14 -->
<g id="edge14" class="edge">
<title>Node2&#45;&gt;Node14</title>
<path fill="none" stroke="#191970" d="M1182.7842,-65.0401C1078.6028,-62.2185 796.1841,-52.1106 551.8138,-20.0976"/>
<polygon fill="#191970" stroke="#191970" points="552.0476,-16.5981 541.6743,-18.7537 551.1277,-23.5374 552.0476,-16.5981"/>
</g>
<!-- Node15 -->
<g id="node16" class="node">
<title>Node15</title>
<polygon fill="none" stroke="#bfbfbf" points="559.5,-.5 559.5,-19.5 636.5,-19.5 636.5,-.5 559.5,-.5"/>
<text text-anchor="middle" x="598" y="-7.5" font-family="FreeSans" font-size="10.00" fill="#000000">wx/confbase.h</text>
</g>
<!-- Node2&#45;&gt;Node15 -->
<g id="edge15" class="edge">
<title>Node2&#45;&gt;Node15</title>
<path fill="none" stroke="#191970" d="M1182.8062,-64.5047C1089.3099,-60.7288 853.7907,-49.065 646.8425,-19.9436"/>
<polygon fill="#191970" stroke="#191970" points="647.0923,-16.444 636.6986,-18.4988 646.1051,-23.374 647.0923,-16.444"/>
</g>
<!-- Node16 -->
<g id="node17" class="node">
<title>Node16</title>
<polygon fill="none" stroke="#bfbfbf" points="655,-.5 655,-19.5 731,-19.5 731,-.5 655,-.5"/>
<text text-anchor="middle" x="693" y="-7.5" font-family="FreeSans" font-size="10.00" fill="#000000">wx/datetime.h</text>
</g>
<!-- Node2&#45;&gt;Node16 -->
<g id="edge16" class="edge">
<title>Node2&#45;&gt;Node16</title>
<path fill="none" stroke="#191970" d="M1182.6888,-63.6793C1100.4953,-58.7159 910.5103,-45.5153 741.242,-20.0378"/>
<polygon fill="#191970" stroke="#191970" points="741.5652,-16.5468 731.1521,-18.5006 740.5108,-23.4669 741.5652,-16.5468"/>
</g>
<!-- Node17 -->
<g id="node18" class="node">
<title>Node17</title>
<polygon fill="none" stroke="#bfbfbf" points="749,-.5 749,-19.5 821,-19.5 821,-.5 749,-.5"/>
<text text-anchor="middle" x="785" y="-7.5" font-family="FreeSans" font-size="10.00" fill="#000000">wx/dcclient.h</text>
</g>
<!-- Node2&#45;&gt;Node17 -->
<g id="edge17" class="edge">
<title>Node2&#45;&gt;Node17</title>
<path fill="none" stroke="#191970" d="M1182.9656,-62.6048C1112.8723,-56.5024 965.4274,-42.3491 831.3276,-20.0852"/>
<polygon fill="#191970" stroke="#191970" points="831.7282,-16.6035 821.2866,-18.3985 830.5686,-23.5068 831.7282,-16.6035"/>
</g>
<!-- Node18 -->
<g id="node19" class="node">
<title>Node18</title>
<polygon fill="none" stroke="#bfbfbf" points="839,-.5 839,-19.5 903,-19.5 903,-.5 839,-.5"/>
<text text-anchor="middle" x="871" y="-7.5" font-family="FreeSans" font-size="10.00" fill="#000000">wx/dialog.h</text>
</g>
<!-- Node2&#45;&gt;Node18 -->
<g id="edge18" class="edge">
<title>Node2&#45;&gt;Node18</title>
<path fill="none" stroke="#191970" d="M1182.9091,-61.1768C1124.9126,-54.0988 1015.5671,-39.7642 913.0631,-20.0673"/>
<polygon fill="#191970" stroke="#191970" points="913.6507,-16.6161 903.1667,-18.1445 912.3155,-23.4876 913.6507,-16.6161"/>
</g>
<!-- Node19 -->
<g id="node20" class="node">
<title>Node19</title>
<polygon fill="none" stroke="#bfbfbf" points="921.5,-.5 921.5,-19.5 970.5,-19.5 970.5,-.5 921.5,-.5"/>
<text text-anchor="middle" x="946" y="-7.5" font-family="FreeSans" font-size="10.00" fill="#000000">wx/dir.h</text>
</g>
<!-- Node2&#45;&gt;Node19 -->
<g id="edge19" class="edge">
<title>Node2&#45;&gt;Node19</title>
<path fill="none" stroke="#191970" d="M1182.7204,-59.5088C1135.9822,-51.8743 1057.3994,-38.1796 980.6416,-19.9676"/>
<polygon fill="#191970" stroke="#191970" points="981.3463,-16.5374 970.8055,-17.6062 979.7121,-23.344 981.3463,-16.5374"/>
</g>
<!-- Node20 -->
<g id="node21" class="node">
<title>Node20</title>
<polygon fill="none" stroke="#bfbfbf" points="989,-.5 989,-19.5 1063,-19.5 1063,-.5 989,-.5"/>
<text text-anchor="middle" x="1026" y="-7.5" font-family="FreeSans" font-size="10.00" fill="#000000">wx/dynarray.h</text>
</g>
<!-- Node2&#45;&gt;Node20 -->
<g id="edge20" class="edge">
<title>Node2&#45;&gt;Node20</title>
<path fill="none" stroke="#191970" d="M1189.9626,-56.3733C1156.6106,-46.9404 1105.6473,-32.5265 1069.3998,-22.2747"/>
<polygon fill="#191970" stroke="#191970" points="1070.1684,-18.8548 1059.5933,-19.5011 1068.2632,-25.5906 1070.1684,-18.8548"/>
</g>
<!-- Node21 -->
<g id="node22" class="node">
<title>Node21</title>
<polygon fill="none" stroke="#bfbfbf" points="1081,-.5 1081,-19.5 1143,-19.5 1143,-.5 1081,-.5"/>
<text text-anchor="middle" x="1112" y="-7.5" font-family="FreeSans" font-size="10.00" fill="#000000">wx/event.h</text>
</g>
<!-- Node2&#45;&gt;Node21 -->
<g id="edge21" class="edge">
<title>Node2&#45;&gt;Node21</title>
<path fill="none" stroke="#191970" d="M1204.7465,-56.3733C1186.9288,-47.4644 1160.2253,-34.1127 1140.0406,-24.0203"/>
<polygon fill="#191970" stroke="#191970" points="1141.5118,-20.8428 1131.0022,-19.5011 1138.3813,-27.1038 1141.5118,-20.8428"/>
</g>
<!-- Node22 -->
<g id="node23" class="node">
<title>Node22</title>
<polygon fill="none" stroke="#bfbfbf" points="1161,-.5 1161,-19.5 1211,-19.5 1211,-.5 1161,-.5"/>
<text text-anchor="middle" x="1186" y="-7.5" font-family="FreeSans" font-size="10.00" fill="#000000">wx/file.h</text>
</g>
<!-- Node2&#45;&gt;Node22 -->
<g id="edge22" class="edge">
<title>Node2&#45;&gt;Node22</title>
<path fill="none" stroke="#191970" d="M1217.3809,-56.2455C1212.0954,-48.4564 1204.5459,-37.3308 1198.1762,-27.9439"/>
<polygon fill="#191970" stroke="#191970" points="1201.0545,-25.9522 1192.5432,-19.6427 1195.2621,-29.8827 1201.0545,-25.9522"/>
</g>
<!-- Node23 -->
<g id="node24" class="node">
<title>Node23</title>
<polygon fill="none" stroke="#bfbfbf" points="1229.5,-.5 1229.5,-19.5 1292.5,-19.5 1292.5,-.5 1229.5,-.5"/>
<text text-anchor="middle" x="1261" y="-7.5" font-family="FreeSans" font-size="10.00" fill="#000000">wx/filedlg.h</text>
</g>
<!-- Node2&#45;&gt;Node23 -->
<g id="edge23" class="edge">
<title>Node2&#45;&gt;Node23</title>
<path fill="none" stroke="#191970" d="M1230.4449,-56.2455C1235.5382,-48.5367 1242.7908,-37.5598 1248.952,-28.2348"/>
<polygon fill="#191970" stroke="#191970" points="1252.0365,-29.9155 1254.6289,-19.6427 1246.1962,-26.0566 1252.0365,-29.9155"/>
</g>
<!-- Node24 -->
<g id="node25" class="node">
<title>Node24</title>
<polygon fill="none" stroke="#bfbfbf" points="1311,-.5 1311,-19.5 1385,-19.5 1385,-.5 1311,-.5"/>
<text text-anchor="middle" x="1348" y="-7.5" font-family="FreeSans" font-size="10.00" fill="#000000">wx/filename.h</text>
</g>
<!-- Node2&#45;&gt;Node24 -->
<g id="edge24" class="edge">
<title>Node2&#45;&gt;Node24</title>
<path fill="none" stroke="#191970" d="M1245.3164,-56.3733C1265.2216,-47.3838 1295.1436,-33.8706 1317.56,-23.7471"/>
<polygon fill="#191970" stroke="#191970" points="1319.2887,-26.8068 1326.9618,-19.5011 1316.4075,-20.4272 1319.2887,-26.8068"/>
</g>
<!-- Node25 -->
<g id="node26" class="node">
<title>Node25</title>
<polygon fill="none" stroke="#bfbfbf" points="1403.5,-.5 1403.5,-19.5 1458.5,-19.5 1458.5,-.5 1403.5,-.5"/>
<text text-anchor="middle" x="1431" y="-7.5" font-family="FreeSans" font-size="10.00" fill="#000000">wx/font.h</text>
</g>
<!-- Node2&#45;&gt;Node25 -->
<g id="edge25" class="edge">
<title>Node2&#45;&gt;Node25</title>
<path fill="none" stroke="#191970" d="M1259.5846,-56.3733C1297.0421,-46.2398 1355.748,-30.358 1393.8023,-20.0632"/>
<polygon fill="#191970" stroke="#191970" points="1394.7404,-23.4352 1403.4794,-17.4452 1392.9124,-16.6781 1394.7404,-23.4352"/>
</g>
<!-- Node26 -->
<g id="node27" class="node">
<title>Node26</title>
<polygon fill="none" stroke="#bfbfbf" points="1476.5,-.5 1476.5,-19.5 1539.5,-19.5 1539.5,-.5 1476.5,-.5"/>
<text text-anchor="middle" x="1508" y="-7.5" font-family="FreeSans" font-size="10.00" fill="#000000">wx/frame.h</text>
</g>
<!-- Node2&#45;&gt;Node26 -->
<g id="edge26" class="edge">
<title>Node2&#45;&gt;Node26</title>
<path fill="none" stroke="#191970" d="M1265.4087,-58.8398C1311.8911,-50.6518 1389.7789,-36.4827 1466.4281,-20.0383"/>
<polygon fill="#191970" stroke="#191970" points="1467.218,-23.4485 1476.2536,-17.9161 1465.7401,-16.6063 1467.218,-23.4485"/>
</g>
<!-- Node27 -->
<g id="node28" class="node">
<title>Node27</title>
<polygon fill="none" stroke="#bfbfbf" points="1557.5,-.5 1557.5,-19.5 1620.5,-19.5 1620.5,-.5 1557.5,-.5"/>
<text text-anchor="middle" x="1589" y="-7.5" font-family="FreeSans" font-size="10.00" fill="#000000">wx/fs_zip.h</text>
</g>
<!-- Node2&#45;&gt;Node27 -->
<g id="edge27" class="edge">
<title>Node2&#45;&gt;Node27</title>
<path fill="none" stroke="#191970" d="M1265.1314,-61.473C1324.9975,-54.5971 1439.7983,-40.3322 1547.2439,-19.985"/>
<polygon fill="#191970" stroke="#191970" points="1548.1206,-23.3808 1557.2834,-18.0617 1546.8034,-16.5058 1548.1206,-23.3808"/>
</g>
<!-- Node2&#45;&gt;Node63 -->
<g id="edge28" class="edge">
<title>Node2&#45;&gt;Node63</title>
<path fill="none" stroke="#191970" d="M1265.1403,-64.6343C1413.5951,-59.5879 1922.2003,-41.2416 2107.7138,-19.8001"/>
<polygon fill="#191970" stroke="#191970" points="2108.3722,-23.2463 2117.8844,-18.5808 2107.5389,-16.2961 2108.3722,-23.2463"/>
</g>
<!-- Node71 -->
<g id="node30" class="node">
<title>Node71</title>
<g id="a_node30"><a xlink:href="settings_8h" target="_top" xlink:title="settings.h">
<polygon fill="none" stroke="#000000" points="2218.5,-.5 2218.5,-19.5 2275.5,-19.5 2275.5,-.5 2218.5,-.5"/>
<text text-anchor="middle" x="2247" y="-7.5" font-family="FreeSans" font-size="10.00" fill="#000000">settings.h</text>
</a>
</g>
</g>
<!-- Node2&#45;&gt;Node71 -->
<g id="edge29" class="edge">
<title>Node2&#45;&gt;Node71</title>
<path fill="none" stroke="#191970" d="M1265.0836,-65.2348C1424.4842,-62.0903 2002.8925,-49.0057 2208.0202,-19.7746"/>
<polygon fill="#191970" stroke="#191970" points="2208.7084,-23.2108 2218.086,-18.2803 2207.6805,-16.2867 2208.7084,-23.2108"/>
</g>
<!-- Node137&#45;&gt;Node71 -->
<g id="edge31" class="edge">
<title>Node137&#45;&gt;Node71</title>
<path fill="none" stroke="#191970" d="M2238.7419,-56.2455C2240.0467,-48.9382 2241.876,-38.6944 2243.4813,-29.7046"/>
<polygon fill="#191970" stroke="#191970" points="2246.9656,-30.1022 2245.2781,-19.6427 2240.0746,-28.8717 2246.9656,-30.1022"/>
</g>
</g>
</svg>
