<?xml version="1.0" encoding="UTF-8" standalone="no"?>
<!DOCTYPE svg PUBLIC "-//W3C//DTD SVG 1.1//EN"
 "http://www.w3.org/Graphics/SVG/1.1/DTD/svg11.dtd">
<!-- Generated by graphviz version 2.40.1 (20161225.0304)
 -->
<!-- Title: editkeywordsdlg.h Pages: 1 -->
<svg width="256pt" height="84pt"
 viewBox="0.00 0.00 255.50 84.00" xmlns="http://www.w3.org/2000/svg" xmlns:xlink="http://www.w3.org/1999/xlink">
<g id="graph0" class="graph" transform="scale(1 1) rotate(0) translate(4 80)">
<title>editkeywordsdlg.h</title>
<!-- Node14 -->
<g id="node1" class="node">
<title>Node14</title>
<polygon fill="#bfbfbf" stroke="#000000" points="71.5,-56.5 71.5,-75.5 163.5,-75.5 163.5,-56.5 71.5,-56.5"/>
<text text-anchor="middle" x="117.5" y="-63.5" font-family="FreeSans" font-size="10.00" fill="#000000">editkeywordsdlg.h</text>
</g>
<!-- Node15 -->
<g id="node2" class="node">
<title>Node15</title>
<g id="a_node2"><a xlink:href="editkeywordsdlg_8cpp" target="_top" xlink:title="editkeywordsdlg.cpp">
<polygon fill="none" stroke="#000000" points="0,-.5 0,-19.5 103,-19.5 103,-.5 0,-.5"/>
<text text-anchor="middle" x="51.5" y="-7.5" font-family="FreeSans" font-size="10.00" fill="#000000">editkeywordsdlg.cpp</text>
</a>
</g>
</g>
<!-- Node14&#45;&gt;Node15 -->
<g id="edge1" class="edge">
<title>Node14&#45;&gt;Node15</title>
<path fill="none" stroke="#191970" d="M98.2245,-49.645C86.7462,-39.9058 72.5723,-27.8795 62.8646,-19.6427"/>
<polygon fill="#191970" stroke="#191970" points="96.1141,-52.4445 106.0037,-56.2455 100.643,-47.1069 96.1141,-52.4445"/>
</g>
<!-- Node16 -->
<g id="node3" class="node">
<title>Node16</title>
<g id="a_node3"><a xlink:href="editorconfigurationdlg_8cpp" target="_top" xlink:title="editorconfigurationdlg.cpp">
<polygon fill="none" stroke="#000000" points="121.5,-.5 121.5,-19.5 247.5,-19.5 247.5,-.5 121.5,-.5"/>
<text text-anchor="middle" x="184.5" y="-7.5" font-family="FreeSans" font-size="10.00" fill="#000000">editorconfigurationdlg.cpp</text>
</a>
</g>
</g>
<!-- Node14&#45;&gt;Node16 -->
<g id="edge2" class="edge">
<title>Node14&#45;&gt;Node16</title>
<path fill="none" stroke="#191970" d="M137.0676,-49.645C148.7198,-39.9058 163.1084,-27.8795 172.9632,-19.6427"/>
<polygon fill="#191970" stroke="#191970" points="134.5988,-47.1469 129.1705,-56.2455 139.0879,-52.5179 134.5988,-47.1469"/>
</g>
</g>
</svg>
