<?xml version="1.0" encoding="UTF-8" standalone="no"?>
<!DOCTYPE svg PUBLIC "-//W3C//DTD SVG 1.1//EN"
 "http://www.w3.org/Graphics/SVG/1.1/DTD/svg11.dtd">
<!-- Generated by graphviz version 2.38.0 (20140413.2041)
 -->
<!-- Title: editarrayfiledlg.h Pages: 1 -->
<svg width="346pt" height="84pt"
 viewBox="0.00 0.00 345.50 84.00" xmlns="http://www.w3.org/2000/svg" xmlns:xlink="http://www.w3.org/1999/xlink">
<g id="graph0" class="graph" transform="scale(1 1) rotate(0) translate(4 80)">
<title>editarrayfiledlg.h</title>
<!-- Node6 -->
<g id="node1" class="node"><title>Node6</title>
<polygon fill="#bfbfbf" stroke="black" points="120,-56.5 120,-75.5 206,-75.5 206,-56.5 120,-56.5"/>
<text text-anchor="middle" x="163" y="-63.5" font-family="FreeSans" font-size="10.00">editarrayfiledlg.h</text>
</g>
<!-- Node7 -->
<g id="node2" class="node"><title>Node7</title>
<g id="a_node2"><a xlink:href="editarrayfiledlg_8cpp" target="_top" xlink:title="editarrayfiledlg.cpp">
<polygon fill="none" stroke="black" points="0,-0.5 0,-19.5 96,-19.5 96,-0.5 0,-0.5"/>
<text text-anchor="middle" x="48" y="-7.5" font-family="FreeSans" font-size="10.00">editarrayfiledlg.cpp</text>
</a>
</g>
</g>
<!-- Node6&#45;&gt;Node7 -->
<g id="edge1" class="edge"><title>Node6&#45;&gt;Node7</title>
<path fill="none" stroke="midnightblue" d="M135.519,-52.096C114.034,-42.0073 84.7781,-28.2697 66.1368,-19.5164"/>
<polygon fill="midnightblue" stroke="midnightblue" points="134.238,-55.3612 144.778,-56.4435 137.214,-49.025 134.238,-55.3612"/>
</g>
<!-- Node8 -->
<g id="node3" class="node"><title>Node8</title>
<g id="a_node3"><a xlink:href="sc__util__dialogs_8cpp" target="_top" xlink:title="sc_util_dialogs.cpp">
<polygon fill="none" stroke="black" points="114,-0.5 114,-19.5 212,-19.5 212,-0.5 114,-0.5"/>
<text text-anchor="middle" x="163" y="-7.5" font-family="FreeSans" font-size="10.00">sc_util_dialogs.cpp</text>
</a>
</g>
</g>
<!-- Node6&#45;&gt;Node8 -->
<g id="edge2" class="edge"><title>Node6&#45;&gt;Node8</title>
<path fill="none" stroke="midnightblue" d="M163,-45.8045C163,-36.9102 163,-26.7798 163,-19.7511"/>
<polygon fill="midnightblue" stroke="midnightblue" points="159.5,-46.083 163,-56.083 166.5,-46.083 159.5,-46.083"/>
</g>
<!-- Node9 -->
<g id="node4" class="node"><title>Node9</title>
<g id="a_node4"><a xlink:href="projectoptionsdlg_8cpp" target="_top" xlink:title="projectoptionsdlg.cpp">
<polygon fill="none" stroke="black" points="230.5,-0.5 230.5,-19.5 337.5,-19.5 337.5,-0.5 230.5,-0.5"/>
<text text-anchor="middle" x="284" y="-7.5" font-family="FreeSans" font-size="10.00">projectoptionsdlg.cpp</text>
</a>
</g>
</g>
<!-- Node6&#45;&gt;Node9 -->
<g id="edge3" class="edge"><title>Node6&#45;&gt;Node9</title>
<path fill="none" stroke="midnightblue" d="M191.306,-52.3678C213.965,-42.2553 245.126,-28.3486 264.917,-19.5164"/>
<polygon fill="midnightblue" stroke="midnightblue" points="189.878,-49.1719 182.173,-56.4435 192.731,-55.5643 189.878,-49.1719"/>
</g>
</g>
</svg>
