<?xml version="1.0" encoding="UTF-8" standalone="no"?>
<!DOCTYPE svg PUBLIC "-//W3C//DTD SVG 1.1//EN"
 "http://www.w3.org/Graphics/SVG/1.1/DTD/svg11.dtd">
<!-- Generated by graphviz version 2.38.0 (20140413.2041)
 -->
<!-- Title: editpairdlg.h Pages: 1 -->
<svg width="197pt" height="140pt"
 viewBox="0.00 0.00 196.50 140.00" xmlns="http://www.w3.org/2000/svg" xmlns:xlink="http://www.w3.org/1999/xlink">
<g id="graph0" class="graph" transform="scale(1 1) rotate(0) translate(4 136)">
<title>editpairdlg.h</title>
<polygon fill="white" stroke="none" points="-4,4 -4,-136 192.5,-136 192.5,4 -4,4"/>
<!-- Node1 -->
<g id="node1" class="node"><title>Node1</title>
<polygon fill="#bfbfbf" stroke="black" points="34.5,-112.5 34.5,-131.5 102.5,-131.5 102.5,-112.5 34.5,-112.5"/>
<text text-anchor="middle" x="68.5" y="-119.5" font-family="FreeSans" font-size="10.00">editpairdlg.h</text>
</g>
<!-- Node2 -->
<g id="node2" class="node"><title>Node2</title>
<polygon fill="white" stroke="#bfbfbf" points="-3.55271e-15,-56.5 -3.55271e-15,-75.5 51,-75.5 51,-56.5 -3.55271e-15,-56.5"/>
<text text-anchor="middle" x="25.5" y="-63.5" font-family="FreeSans" font-size="10.00">wx/intl.h</text>
</g>
<!-- Node1&#45;&gt;Node2 -->
<g id="edge1" class="edge"><title>Node1&#45;&gt;Node2</title>
<path fill="none" stroke="midnightblue" d="M61.3994,-112.083C55.263,-104.377 46.2303,-93.0333 38.7608,-83.6531"/>
<polygon fill="midnightblue" stroke="midnightblue" points="41.4357,-81.3936 32.4685,-75.7511 35.9598,-85.7542 41.4357,-81.3936"/>
</g>
<!-- Node3 -->
<g id="node3" class="node"><title>Node3</title>
<g id="a_node3"><a xlink:href="scrollingdialog_8h.xhtml" target="_top" xlink:title="scrollingdialog.h">
<polygon fill="white" stroke="black" points="69,-56.5 69,-75.5 154,-75.5 154,-56.5 69,-56.5"/>
<text text-anchor="middle" x="111.5" y="-63.5" font-family="FreeSans" font-size="10.00">scrollingdialog.h</text>
</a>
</g>
</g>
<!-- Node1&#45;&gt;Node3 -->
<g id="edge2" class="edge"><title>Node1&#45;&gt;Node3</title>
<path fill="none" stroke="midnightblue" d="M75.6006,-112.083C81.737,-104.377 90.7697,-93.0333 98.2392,-83.6531"/>
<polygon fill="midnightblue" stroke="midnightblue" points="101.04,-85.7542 104.532,-75.7511 95.5643,-81.3936 101.04,-85.7542"/>
</g>
<!-- Node4 -->
<g id="node4" class="node"><title>Node4</title>
<polygon fill="white" stroke="#bfbfbf" points="36.5,-0.5 36.5,-19.5 100.5,-19.5 100.5,-0.5 36.5,-0.5"/>
<text text-anchor="middle" x="68.5" y="-7.5" font-family="FreeSans" font-size="10.00">wx/dialog.h</text>
</g>
<!-- Node3&#45;&gt;Node4 -->
<g id="edge3" class="edge"><title>Node3&#45;&gt;Node4</title>
<path fill="none" stroke="midnightblue" d="M104.399,-56.083C98.263,-48.3768 89.2303,-37.0333 81.7608,-27.6531"/>
<polygon fill="midnightblue" stroke="midnightblue" points="84.4357,-25.3936 75.4685,-19.7511 78.9598,-29.7542 84.4357,-25.3936"/>
</g>
<!-- Node5 -->
<g id="node5" class="node"><title>Node5</title>
<polygon fill="white" stroke="#bfbfbf" points="118.5,-0.5 118.5,-19.5 188.5,-19.5 188.5,-0.5 118.5,-0.5"/>
<text text-anchor="middle" x="153.5" y="-7.5" font-family="FreeSans" font-size="10.00">wx/propdlg.h</text>
</g>
<!-- Node3&#45;&gt;Node5 -->
<g id="edge4" class="edge"><title>Node3&#45;&gt;Node5</title>
<path fill="none" stroke="midnightblue" d="M118.435,-56.083C124.429,-48.3768 133.252,-37.0333 140.548,-27.6531"/>
<polygon fill="midnightblue" stroke="midnightblue" points="143.317,-29.7934 146.694,-19.7511 137.791,-25.4958 143.317,-29.7934"/>
</g>
</g>
</svg>
