<?xml version="1.0" encoding="UTF-8" standalone="no"?>
<!DOCTYPE svg PUBLIC "-//W3C//DTD SVG 1.1//EN"
 "http://www.w3.org/Graphics/SVG/1.1/DTD/svg11.dtd">
<!-- Generated by graphviz version 2.38.0 (20140413.2041)
 -->
<!-- Title: editarrayfiledlg.cpp Pages: 1 -->
<svg width="2244pt" height="252pt"
 viewBox="0.00 0.00 2244.44 252.00" xmlns="http://www.w3.org/2000/svg" xmlns:xlink="http://www.w3.org/1999/xlink">
<g id="graph0" class="graph" transform="scale(1 1) rotate(0) translate(4 248)">
<title>editarrayfiledlg.cpp</title>
<!-- Node0 -->
<g id="node1" class="node"><title>Node0</title>
<polygon fill="#bfbfbf" stroke="black" points="1917,-224.5 1917,-243.5 2013,-243.5 2013,-224.5 1917,-224.5"/>
<text text-anchor="middle" x="1965" y="-231.5" font-family="FreeSans" font-size="10.00">editarrayfiledlg.cpp</text>
</g>
<!-- Node1 -->
<g id="node2" class="node"><title>Node1</title>
<g id="a_node2"><a xlink:href="sdk__precomp_8h" target="_top" xlink:title="sdk_precomp.h">
<polygon fill="none" stroke="black" points="1460,-168.5 1460,-187.5 1542,-187.5 1542,-168.5 1460,-168.5"/>
<text text-anchor="middle" x="1501" y="-175.5" font-family="FreeSans" font-size="10.00">sdk_precomp.h</text>
</a>
</g>
</g>
<!-- Node0&#45;&gt;Node1 -->
<g id="edge1" class="edge"><title>Node0&#45;&gt;Node1</title>
<path fill="none" stroke="midnightblue" d="M1916.66,-227.374C1828.49,-217.113 1642.35,-195.451 1552.15,-184.953"/>
<polygon fill="midnightblue" stroke="midnightblue" points="1552.5,-181.47 1542.16,-183.79 1551.69,-188.423 1552.5,-181.47"/>
</g>
<!-- Node23 -->
<g id="node24" class="node"><title>Node23</title>
<polygon fill="none" stroke="#bfbfbf" points="1869.5,-56.5 1869.5,-75.5 1932.5,-75.5 1932.5,-56.5 1869.5,-56.5"/>
<text text-anchor="middle" x="1901" y="-63.5" font-family="FreeSans" font-size="10.00">wx/filedlg.h</text>
</g>
<!-- Node0&#45;&gt;Node23 -->
<g id="edge32" class="edge"><title>Node0&#45;&gt;Node23</title>
<path fill="none" stroke="midnightblue" d="M1961.56,-224.075C1951.44,-197.832 1921.64,-120.545 1907.98,-85.1165"/>
<polygon fill="midnightblue" stroke="midnightblue" points="1911.17,-83.6396 1904.3,-75.5681 1904.64,-86.1578 1911.17,-83.6396"/>
</g>
<!-- Node137 -->
<g id="node31" class="node"><title>Node137</title>
<g id="a_node31"><a xlink:href="editarrayfiledlg_8h" target="_top" xlink:title="editarrayfiledlg.h">
<polygon fill="none" stroke="black" points="1993,-112.5 1993,-131.5 2079,-131.5 2079,-112.5 1993,-112.5"/>
<text text-anchor="middle" x="2036" y="-119.5" font-family="FreeSans" font-size="10.00">editarrayfiledlg.h</text>
</a>
</g>
</g>
<!-- Node0&#45;&gt;Node137 -->
<g id="edge33" class="edge"><title>Node0&#45;&gt;Node137</title>
<path fill="none" stroke="midnightblue" d="M1970.57,-224.368C1982.24,-206.296 2009.42,-164.176 2024.83,-140.307"/>
<polygon fill="midnightblue" stroke="midnightblue" points="2027.97,-141.891 2030.45,-131.591 2022.09,-138.095 2027.97,-141.891"/>
</g>
<!-- Node138 -->
<g id="node32" class="node"><title>Node138</title>
<g id="a_node32"><a xlink:href="filefilters_8h" target="_top" xlink:title="filefilters.h">
<polygon fill="none" stroke="black" points="2162.5,-112.5 2162.5,-131.5 2221.5,-131.5 2221.5,-112.5 2162.5,-112.5"/>
<text text-anchor="middle" x="2192" y="-119.5" font-family="FreeSans" font-size="10.00">filefilters.h</text>
</a>
</g>
</g>
<!-- Node0&#45;&gt;Node138 -->
<g id="edge37" class="edge"><title>Node0&#45;&gt;Node138</title>
<path fill="none" stroke="midnightblue" d="M1982.81,-224.368C2022.43,-205.171 2118.04,-158.842 2165.02,-136.074"/>
<polygon fill="midnightblue" stroke="midnightblue" points="2166.8,-139.102 2174.27,-131.591 2163.75,-132.803 2166.8,-139.102"/>
</g>
<!-- Node2 -->
<g id="node3" class="node"><title>Node2</title>
<g id="a_node3"><a xlink:href="sdk__common_8h" target="_top" xlink:title="sdk_common.h">
<polygon fill="none" stroke="red" points="1110,-112.5 1110,-131.5 1192,-131.5 1192,-112.5 1110,-112.5"/>
<text text-anchor="middle" x="1151" y="-119.5" font-family="FreeSans" font-size="10.00">sdk_common.h</text>
</a>
</g>
</g>
<!-- Node1&#45;&gt;Node2 -->
<g id="edge2" class="edge"><title>Node1&#45;&gt;Node2</title>
<path fill="none" stroke="midnightblue" d="M1459.82,-170.647C1395.58,-160.735 1271.66,-141.615 1201.91,-130.854"/>
<polygon fill="midnightblue" stroke="midnightblue" points="1202.44,-127.395 1192.02,-129.329 1201.37,-134.313 1202.44,-127.395"/>
</g>
<!-- Node3 -->
<g id="node4" class="node"><title>Node3</title>
<polygon fill="none" stroke="#bfbfbf" points="314,-56.5 314,-75.5 382,-75.5 382,-56.5 314,-56.5"/>
<text text-anchor="middle" x="348" y="-63.5" font-family="FreeSans" font-size="10.00">wx/wxprec.h</text>
</g>
<!-- Node2&#45;&gt;Node3 -->
<g id="edge3" class="edge"><title>Node2&#45;&gt;Node3</title>
<path fill="none" stroke="midnightblue" d="M1109.6,-120.685C996.309,-119.367 671.565,-112.554 392.513,-75.9984"/>
<polygon fill="midnightblue" stroke="midnightblue" points="392.563,-72.4744 382.189,-74.6295 391.642,-79.4137 392.563,-72.4744"/>
</g>
<!-- Node4 -->
<g id="node5" class="node"><title>Node4</title>
<g id="a_node5"><a xlink:href="prep_8h" target="_top" xlink:title="prep.h">
<polygon fill="none" stroke="black" points="400.5,-56.5 400.5,-75.5 443.5,-75.5 443.5,-56.5 400.5,-56.5"/>
<text text-anchor="middle" x="422" y="-63.5" font-family="FreeSans" font-size="10.00">prep.h</text>
</a>
</g>
</g>
<!-- Node2&#45;&gt;Node4 -->
<g id="edge4" class="edge"><title>Node2&#45;&gt;Node4</title>
<path fill="none" stroke="midnightblue" d="M1109.72,-121.462C1002.65,-121.997 707.321,-119.25 453.681,-75.6731"/>
<polygon fill="midnightblue" stroke="midnightblue" points="453.991,-72.1743 443.539,-73.9046 452.789,-79.0703 453.991,-72.1743"/>
</g>
<!-- Node5 -->
<g id="node6" class="node"><title>Node5</title>
<polygon fill="none" stroke="#bfbfbf" points="462,-56.5 462,-75.5 516,-75.5 516,-56.5 462,-56.5"/>
<text text-anchor="middle" x="489" y="-63.5" font-family="FreeSans" font-size="10.00">wx/app.h</text>
</g>
<!-- Node2&#45;&gt;Node5 -->
<g id="edge5" class="edge"><title>Node2&#45;&gt;Node5</title>
<path fill="none" stroke="midnightblue" d="M1109.7,-120.498C1010.54,-118.766 751.17,-111.113 526.04,-75.8789"/>
<polygon fill="midnightblue" stroke="midnightblue" points="526.448,-72.3999 516.023,-74.2892 525.351,-79.3134 526.448,-72.3999"/>
</g>
<!-- Node6 -->
<g id="node7" class="node"><title>Node6</title>
<polygon fill="none" stroke="#bfbfbf" points="534,-56.5 534,-75.5 594,-75.5 594,-56.5 534,-56.5"/>
<text text-anchor="middle" x="564" y="-63.5" font-family="FreeSans" font-size="10.00">wx/arrstr.h</text>
</g>
<!-- Node2&#45;&gt;Node6 -->
<g id="edge6" class="edge"><title>Node2&#45;&gt;Node6</title>
<path fill="none" stroke="midnightblue" d="M1109.86,-119.658C1019.86,-116.285 798.672,-105.617 604.265,-75.9755"/>
<polygon fill="midnightblue" stroke="midnightblue" points="604.567,-72.4807 594.15,-74.412 603.498,-79.3985 604.567,-72.4807"/>
</g>
<!-- Node7 -->
<g id="node8" class="node"><title>Node7</title>
<polygon fill="none" stroke="#bfbfbf" points="612.5,-56.5 612.5,-75.5 691.5,-75.5 691.5,-56.5 612.5,-56.5"/>
<text text-anchor="middle" x="652" y="-63.5" font-family="FreeSans" font-size="10.00">wx/bmpbuttn.h</text>
</g>
<!-- Node2&#45;&gt;Node7 -->
<g id="edge7" class="edge"><title>Node2&#45;&gt;Node7</title>
<path fill="none" stroke="midnightblue" d="M1109.82,-118.081C1032.04,-112.311 858.017,-98.1773 701.773,-76.1484"/>
<polygon fill="midnightblue" stroke="midnightblue" points="701.902,-72.6315 691.508,-74.686 700.914,-79.5616 701.902,-72.6315"/>
</g>
<!-- Node8 -->
<g id="node9" class="node"><title>Node8</title>
<polygon fill="none" stroke="#bfbfbf" points="709.5,-56.5 709.5,-75.5 774.5,-75.5 774.5,-56.5 709.5,-56.5"/>
<text text-anchor="middle" x="742" y="-63.5" font-family="FreeSans" font-size="10.00">wx/button.h</text>
</g>
<!-- Node2&#45;&gt;Node8 -->
<g id="edge8" class="edge"><title>Node2&#45;&gt;Node8</title>
<path fill="none" stroke="midnightblue" d="M1109.82,-117.159C1043.55,-110.715 908.929,-96.5407 784.583,-75.9511"/>
<polygon fill="midnightblue" stroke="midnightblue" points="784.945,-72.4632 774.504,-74.2642 783.789,-79.3671 784.945,-72.4632"/>
</g>
<!-- Node9 -->
<g id="node10" class="node"><title>Node9</title>
<polygon fill="none" stroke="#bfbfbf" points="793,-56.5 793,-75.5 873,-75.5 873,-56.5 793,-56.5"/>
<text text-anchor="middle" x="833" y="-63.5" font-family="FreeSans" font-size="10.00">wx/checkbox.h</text>
</g>
<!-- Node2&#45;&gt;Node9 -->
<g id="edge9" class="edge"><title>Node2&#45;&gt;Node9</title>
<path fill="none" stroke="midnightblue" d="M1109.95,-114.341C1059.12,-106.05 969.638,-91.3036 883.093,-76.1704"/>
<polygon fill="midnightblue" stroke="midnightblue" points="883.556,-72.6983 873.102,-74.4193 882.348,-79.5932 883.556,-72.6983"/>
</g>
<!-- Node10 -->
<g id="node11" class="node"><title>Node10</title>
<polygon fill="none" stroke="#bfbfbf" points="891,-56.5 891,-75.5 965,-75.5 965,-56.5 891,-56.5"/>
<text text-anchor="middle" x="928" y="-63.5" font-family="FreeSans" font-size="10.00">wx/checklst.h</text>
</g>
<!-- Node2&#45;&gt;Node10 -->
<g id="edge10" class="edge"><title>Node2&#45;&gt;Node10</title>
<path fill="none" stroke="midnightblue" d="M1115.66,-112.444C1077.09,-103.102 1015.22,-88.1194 973.147,-77.9326"/>
<polygon fill="midnightblue" stroke="midnightblue" points="973.713,-74.4683 963.17,-75.5164 972.065,-81.2717 973.713,-74.4683"/>
</g>
<!-- Node11 -->
<g id="node12" class="node"><title>Node11</title>
<polygon fill="none" stroke="#bfbfbf" points="983.5,-56.5 983.5,-75.5 1050.5,-75.5 1050.5,-56.5 983.5,-56.5"/>
<text text-anchor="middle" x="1017" y="-63.5" font-family="FreeSans" font-size="10.00">wx/choice.h</text>
</g>
<!-- Node2&#45;&gt;Node11 -->
<g id="edge11" class="edge"><title>Node2&#45;&gt;Node11</title>
<path fill="none" stroke="midnightblue" d="M1129.77,-112.444C1107.62,-103.517 1072.68,-89.4387 1047.56,-79.3168"/>
<polygon fill="midnightblue" stroke="midnightblue" points="1048.72,-76.0079 1038.13,-75.5164 1046.1,-82.5006 1048.72,-76.0079"/>
</g>
<!-- Node12 -->
<g id="node13" class="node"><title>Node12</title>
<polygon fill="none" stroke="#bfbfbf" points="1069,-56.5 1069,-75.5 1143,-75.5 1143,-56.5 1069,-56.5"/>
<text text-anchor="middle" x="1106" y="-63.5" font-family="FreeSans" font-size="10.00">wx/choicdlg.h</text>
</g>
<!-- Node2&#45;&gt;Node12 -->
<g id="edge12" class="edge"><title>Node2&#45;&gt;Node12</title>
<path fill="none" stroke="midnightblue" d="M1143.57,-112.083C1137.15,-104.377 1127.69,-93.0333 1119.88,-83.6531"/>
<polygon fill="midnightblue" stroke="midnightblue" points="1122.38,-81.1927 1113.29,-75.7511 1117.01,-85.674 1122.38,-81.1927"/>
</g>
<!-- Node13 -->
<g id="node14" class="node"><title>Node13</title>
<polygon fill="none" stroke="#bfbfbf" points="1161,-56.5 1161,-75.5 1233,-75.5 1233,-56.5 1161,-56.5"/>
<text text-anchor="middle" x="1197" y="-63.5" font-family="FreeSans" font-size="10.00">wx/colordlg.h</text>
</g>
<!-- Node2&#45;&gt;Node13 -->
<g id="edge13" class="edge"><title>Node2&#45;&gt;Node13</title>
<path fill="none" stroke="midnightblue" d="M1158.6,-112.083C1165.23,-104.298 1175.02,-92.8015 1183.06,-83.3665"/>
<polygon fill="midnightblue" stroke="midnightblue" points="1185.73,-85.6332 1189.55,-75.7511 1180.4,-81.0939 1185.73,-85.6332"/>
</g>
<!-- Node14 -->
<g id="node15" class="node"><title>Node14</title>
<polygon fill="none" stroke="#bfbfbf" points="1251.5,-56.5 1251.5,-75.5 1334.5,-75.5 1334.5,-56.5 1251.5,-56.5"/>
<text text-anchor="middle" x="1293" y="-63.5" font-family="FreeSans" font-size="10.00">wx/combobox.h</text>
</g>
<!-- Node2&#45;&gt;Node14 -->
<g id="edge14" class="edge"><title>Node2&#45;&gt;Node14</title>
<path fill="none" stroke="midnightblue" d="M1173.5,-112.444C1197.08,-103.478 1234.32,-89.314 1260.96,-79.1827"/>
<polygon fill="midnightblue" stroke="midnightblue" points="1262.5,-82.3424 1270.6,-75.5164 1260.01,-75.7995 1262.5,-82.3424"/>
</g>
<!-- Node15 -->
<g id="node16" class="node"><title>Node15</title>
<polygon fill="none" stroke="#bfbfbf" points="1391.5,-56.5 1391.5,-75.5 1468.5,-75.5 1468.5,-56.5 1391.5,-56.5"/>
<text text-anchor="middle" x="1430" y="-63.5" font-family="FreeSans" font-size="10.00">wx/confbase.h</text>
</g>
<!-- Node2&#45;&gt;Node15 -->
<g id="edge15" class="edge"><title>Node2&#45;&gt;Node15</title>
<path fill="none" stroke="midnightblue" d="M1192.17,-113.032C1242.58,-103.275 1327.84,-86.7722 1381.42,-76.4032"/>
<polygon fill="midnightblue" stroke="midnightblue" points="1382.21,-79.8149 1391.36,-74.4783 1380.88,-72.9424 1382.21,-79.8149"/>
</g>
<!-- Node16 -->
<g id="node17" class="node"><title>Node16</title>
<polygon fill="none" stroke="#bfbfbf" points="1487,-56.5 1487,-75.5 1563,-75.5 1563,-56.5 1487,-56.5"/>
<text text-anchor="middle" x="1525" y="-63.5" font-family="FreeSans" font-size="10.00">wx/datetime.h</text>
</g>
<!-- Node2&#45;&gt;Node16 -->
<g id="edge16" class="edge"><title>Node2&#45;&gt;Node16</title>
<path fill="none" stroke="midnightblue" d="M1192.01,-115.983C1252.02,-108.501 1367.52,-93.5666 1476.58,-75.9921"/>
<polygon fill="midnightblue" stroke="midnightblue" points="1477.47,-79.3947 1486.78,-74.3386 1476.35,-72.485 1477.47,-79.3947"/>
</g>
<!-- Node17 -->
<g id="node18" class="node"><title>Node17</title>
<polygon fill="none" stroke="#bfbfbf" points="1581,-56.5 1581,-75.5 1653,-75.5 1653,-56.5 1581,-56.5"/>
<text text-anchor="middle" x="1617" y="-63.5" font-family="FreeSans" font-size="10.00">wx/dcclient.h</text>
</g>
<!-- Node2&#45;&gt;Node17 -->
<g id="edge17" class="edge"><title>Node2&#45;&gt;Node17</title>
<path fill="none" stroke="midnightblue" d="M1192.1,-117.856C1265.91,-111.938 1426,-97.8729 1570.75,-76.0695"/>
<polygon fill="midnightblue" stroke="midnightblue" points="1571.34,-79.5196 1580.7,-74.5543 1570.29,-72.5994 1571.34,-79.5196"/>
</g>
<!-- Node18 -->
<g id="node19" class="node"><title>Node18</title>
<polygon fill="none" stroke="#bfbfbf" points="1677,-0.5 1677,-19.5 1741,-19.5 1741,-0.5 1677,-0.5"/>
<text text-anchor="middle" x="1709" y="-7.5" font-family="FreeSans" font-size="10.00">wx/dialog.h</text>
</g>
<!-- Node2&#45;&gt;Node18 -->
<g id="edge18" class="edge"><title>Node2&#45;&gt;Node18</title>
<path fill="none" stroke="midnightblue" d="M1192.3,-114.331C1231.76,-107.26 1292.54,-94.534 1343,-76 1361.29,-69.2832 1363.42,-61.8552 1382,-56 1480.89,-24.8349 1603.33,-15.2444 1666.64,-12.2996"/>
<polygon fill="midnightblue" stroke="midnightblue" points="1666.81,-15.7956 1676.65,-11.867 1666.51,-8.80214 1666.81,-15.7956"/>
</g>
<!-- Node19 -->
<g id="node20" class="node"><title>Node19</title>
<polygon fill="none" stroke="#bfbfbf" points="1671.5,-56.5 1671.5,-75.5 1720.5,-75.5 1720.5,-56.5 1671.5,-56.5"/>
<text text-anchor="middle" x="1696" y="-63.5" font-family="FreeSans" font-size="10.00">wx/dir.h</text>
</g>
<!-- Node2&#45;&gt;Node19 -->
<g id="edge19" class="edge"><title>Node2&#45;&gt;Node19</title>
<path fill="none" stroke="midnightblue" d="M1192.05,-119.764C1277.63,-116.676 1481.42,-106.663 1661.32,-75.8059"/>
<polygon fill="midnightblue" stroke="midnightblue" points="1661.97,-79.2449 1671.23,-74.0815 1660.77,-72.3487 1661.97,-79.2449"/>
</g>
<!-- Node20 -->
<g id="node21" class="node"><title>Node20</title>
<polygon fill="none" stroke="#bfbfbf" points="1739,-56.5 1739,-75.5 1813,-75.5 1813,-56.5 1739,-56.5"/>
<text text-anchor="middle" x="1776" y="-63.5" font-family="FreeSans" font-size="10.00">wx/dynarray.h</text>
</g>
<!-- Node2&#45;&gt;Node20 -->
<g id="edge20" class="edge"><title>Node2&#45;&gt;Node20</title>
<path fill="none" stroke="midnightblue" d="M1192.16,-119.373C1285.6,-115.343 1520.99,-103.281 1728.68,-75.867"/>
<polygon fill="midnightblue" stroke="midnightblue" points="1729.41,-79.3004 1738.86,-74.5077 1728.49,-72.362 1729.41,-79.3004"/>
</g>
<!-- Node21 -->
<g id="node22" class="node"><title>Node21</title>
<polygon fill="none" stroke="#bfbfbf" points="0,-56.5 0,-75.5 62,-75.5 62,-56.5 0,-56.5"/>
<text text-anchor="middle" x="31" y="-63.5" font-family="FreeSans" font-size="10.00">wx/event.h</text>
</g>
<!-- Node2&#45;&gt;Node21 -->
<g id="edge21" class="edge"><title>Node2&#45;&gt;Node21</title>
<path fill="none" stroke="midnightblue" d="M1109.84,-120.275C940.63,-117.143 297.392,-103.724 72.4204,-75.9052"/>
<polygon fill="midnightblue" stroke="midnightblue" points="72.7113,-72.4139 62.347,-74.6123 71.8201,-79.3569 72.7113,-72.4139"/>
</g>
<!-- Node22 -->
<g id="node23" class="node"><title>Node22</title>
<polygon fill="none" stroke="#bfbfbf" points="80,-56.5 80,-75.5 130,-75.5 130,-56.5 80,-56.5"/>
<text text-anchor="middle" x="105" y="-63.5" font-family="FreeSans" font-size="10.00">wx/file.h</text>
</g>
<!-- Node2&#45;&gt;Node22 -->
<g id="edge22" class="edge"><title>Node2&#45;&gt;Node22</title>
<path fill="none" stroke="midnightblue" d="M1109.92,-120.348C947.688,-117.593 350.668,-105.724 140.153,-75.7786"/>
<polygon fill="midnightblue" stroke="midnightblue" points="140.529,-72.2963 130.124,-74.2928 139.503,-79.2207 140.529,-72.2963"/>
</g>
<!-- Node2&#45;&gt;Node23 -->
<g id="edge23" class="edge"><title>Node2&#45;&gt;Node23</title>
<path fill="none" stroke="midnightblue" d="M1192.05,-120.23C1300.67,-117.793 1604.49,-108.375 1855,-76 1856.46,-75.811 1857.95,-75.6036 1859.45,-75.3814"/>
<polygon fill="midnightblue" stroke="midnightblue" points="1860.12,-78.8184 1869.41,-73.7378 1858.98,-71.9117 1860.12,-78.8184"/>
</g>
<!-- Node24 -->
<g id="node25" class="node"><title>Node24</title>
<polygon fill="none" stroke="#bfbfbf" points="148,-56.5 148,-75.5 222,-75.5 222,-56.5 148,-56.5"/>
<text text-anchor="middle" x="185" y="-63.5" font-family="FreeSans" font-size="10.00">wx/filename.h</text>
</g>
<!-- Node2&#45;&gt;Node24 -->
<g id="edge24" class="edge"><title>Node2&#45;&gt;Node24</title>
<path fill="none" stroke="midnightblue" d="M1109.56,-121.098C980.816,-120.952 576.334,-117.108 232.246,-75.9607"/>
<polygon fill="midnightblue" stroke="midnightblue" points="232.432,-72.4577 222.084,-74.7324 231.592,-79.4072 232.432,-72.4577"/>
</g>
<!-- Node25 -->
<g id="node26" class="node"><title>Node25</title>
<polygon fill="none" stroke="#bfbfbf" points="240.5,-56.5 240.5,-75.5 295.5,-75.5 295.5,-56.5 240.5,-56.5"/>
<text text-anchor="middle" x="268" y="-63.5" font-family="FreeSans" font-size="10.00">wx/font.h</text>
</g>
<!-- Node2&#45;&gt;Node25 -->
<g id="edge25" class="edge"><title>Node2&#45;&gt;Node25</title>
<path fill="none" stroke="midnightblue" d="M1109.79,-121.502C988.097,-122.416 619.714,-121.087 305.972,-75.8302"/>
<polygon fill="midnightblue" stroke="midnightblue" points="306.172,-72.3224 295.772,-74.3403 305.161,-79.2489 306.172,-72.3224"/>
</g>
<!-- Node31 -->
<g id="node27" class="node"><title>Node31</title>
<polygon fill="none" stroke="#bfbfbf" points="2053.5,-56.5 2053.5,-75.5 2104.5,-75.5 2104.5,-56.5 2053.5,-56.5"/>
<text text-anchor="middle" x="2079" y="-63.5" font-family="FreeSans" font-size="10.00">wx/intl.h</text>
</g>
<!-- Node2&#45;&gt;Node31 -->
<g id="edge26" class="edge"><title>Node2&#45;&gt;Node31</title>
<path fill="none" stroke="midnightblue" d="M1192.08,-120.029C1341.59,-116.325 1857.24,-102.043 2043.2,-75.7364"/>
<polygon fill="midnightblue" stroke="midnightblue" points="2043.74,-79.1942 2053.13,-74.2721 2042.72,-72.2692 2043.74,-79.1942"/>
</g>
<!-- Node53 -->
<g id="node28" class="node"><title>Node53</title>
<polygon fill="none" stroke="#bfbfbf" points="2161,-56.5 2161,-75.5 2223,-75.5 2223,-56.5 2161,-56.5"/>
<text text-anchor="middle" x="2192" y="-63.5" font-family="FreeSans" font-size="10.00">wx/string.h</text>
</g>
<!-- Node2&#45;&gt;Node53 -->
<g id="edge27" class="edge"><title>Node2&#45;&gt;Node53</title>
<path fill="none" stroke="midnightblue" d="M1192.32,-120.052C1325.76,-116.781 1757.18,-104.558 2113,-76 2125.24,-75.0177 2138.51,-73.6316 2150.62,-72.2408"/>
<polygon fill="midnightblue" stroke="midnightblue" points="2151.38,-75.6749 2160.9,-71.0274 2150.56,-68.7231 2151.38,-75.6749"/>
</g>
<!-- Node71 -->
<g id="node29" class="node"><title>Node71</title>
<g id="a_node29"><a xlink:href="settings_8h" target="_top" xlink:title="settings.h">
<polygon fill="none" stroke="black" points="2034.5,-0.5 2034.5,-19.5 2091.5,-19.5 2091.5,-0.5 2034.5,-0.5"/>
<text text-anchor="middle" x="2063" y="-7.5" font-family="FreeSans" font-size="10.00">settings.h</text>
</a>
</g>
</g>
<!-- Node2&#45;&gt;Node71 -->
<g id="edge28" class="edge"><title>Node2&#45;&gt;Node71</title>
<path fill="none" stroke="midnightblue" d="M1192.2,-120.469C1319.1,-118.484 1702.63,-109.772 1822,-76 1840.36,-70.8042 1842.08,-62.5678 1860,-56 1915.46,-35.6725 1982.96,-22.9459 2024.45,-16.4084"/>
<polygon fill="midnightblue" stroke="midnightblue" points="2025.06,-19.8557 2034.41,-14.8788 2024,-12.9367 2025.06,-19.8557"/>
</g>
<!-- Node107 -->
<g id="node30" class="node"><title>Node107</title>
<g id="a_node30"><a xlink:href="scrollingdialog_8h" target="_top" xlink:title="scrollingdialog.h">
<polygon fill="none" stroke="red" points="1950.5,-56.5 1950.5,-75.5 2035.5,-75.5 2035.5,-56.5 1950.5,-56.5"/>
<text text-anchor="middle" x="1993" y="-63.5" font-family="FreeSans" font-size="10.00">scrollingdialog.h</text>
</a>
</g>
</g>
<!-- Node2&#45;&gt;Node107 -->
<g id="edge29" class="edge"><title>Node2&#45;&gt;Node107</title>
<path fill="none" stroke="midnightblue" d="M1192.26,-120.313C1308.39,-118.026 1648.01,-108.908 1940.54,-75.8995"/>
<polygon fill="midnightblue" stroke="midnightblue" points="1940.95,-79.3756 1950.49,-74.7655 1940.16,-72.4206 1940.95,-79.3756"/>
</g>
<!-- Node107&#45;&gt;Node18 -->
<g id="edge30" class="edge"><title>Node107&#45;&gt;Node18</title>
<path fill="none" stroke="midnightblue" d="M1950.48,-56.9157C1896.7,-46.6885 1804.64,-29.185 1751.07,-18.9987"/>
<polygon fill="midnightblue" stroke="midnightblue" points="1751.69,-15.5539 1741.21,-17.1243 1750.38,-22.4307 1751.69,-15.5539"/>
</g>
<!-- Node107&#45;&gt;Node71 -->
<g id="edge31" class="edge"><title>Node107&#45;&gt;Node71</title>
<path fill="none" stroke="midnightblue" d="M2004.25,-56.324C2014.8,-48.1849 2030.8,-35.8395 2043.44,-26.0874"/>
<polygon fill="midnightblue" stroke="midnightblue" points="2045.77,-28.7132 2051.55,-19.8339 2041.49,-23.1707 2045.77,-28.7132"/>
</g>
<!-- Node137&#45;&gt;Node31 -->
<g id="edge35" class="edge"><title>Node137&#45;&gt;Node31</title>
<path fill="none" stroke="midnightblue" d="M2043.1,-112.083C2049.24,-104.377 2058.27,-93.0333 2065.74,-83.6531"/>
<polygon fill="midnightblue" stroke="midnightblue" points="2068.54,-85.7542 2072.03,-75.7511 2063.06,-81.3936 2068.54,-85.7542"/>
</g>
<!-- Node137&#45;&gt;Node71 -->
<g id="edge36" class="edge"><title>Node137&#45;&gt;Node71</title>
<path fill="none" stroke="midnightblue" d="M2064.37,-112.495C2081.75,-105.653 2102.6,-94.1299 2113,-76 2123.78,-57.2168 2104.1,-37.8066 2086.35,-25.146"/>
<polygon fill="midnightblue" stroke="midnightblue" points="2088.18,-22.165 2077.93,-19.5052 2084.29,-27.9799 2088.18,-22.165"/>
</g>
<!-- Node137&#45;&gt;Node107 -->
<g id="edge34" class="edge"><title>Node137&#45;&gt;Node107</title>
<path fill="none" stroke="midnightblue" d="M2028.9,-112.083C2022.76,-104.377 2013.73,-93.0333 2006.26,-83.6531"/>
<polygon fill="midnightblue" stroke="midnightblue" points="2008.94,-81.3936 1999.97,-75.7511 2003.46,-85.7542 2008.94,-81.3936"/>
</g>
<!-- Node138&#45;&gt;Node53 -->
<g id="edge38" class="edge"><title>Node138&#45;&gt;Node53</title>
<path fill="none" stroke="midnightblue" d="M2192,-112.083C2192,-105.006 2192,-94.8611 2192,-85.9865"/>
<polygon fill="midnightblue" stroke="midnightblue" points="2195.5,-85.751 2192,-75.7511 2188.5,-85.7511 2195.5,-85.751"/>
</g>
<!-- Node138&#45;&gt;Node71 -->
<g id="edge39" class="edge"><title>Node138&#45;&gt;Node71</title>
<path fill="none" stroke="midnightblue" d="M2204.05,-112.428C2220.57,-99.635 2246.61,-75.0156 2232,-56 2216.21,-35.4526 2146.33,-22.2991 2101.52,-15.8149"/>
<polygon fill="midnightblue" stroke="midnightblue" points="2101.93,-12.3383 2091.55,-14.4207 2100.96,-19.2709 2101.93,-12.3383"/>
</g>
</g>
</svg>
