<?xml version="1.0" encoding="UTF-8" standalone="no"?>
<!DOCTYPE svg PUBLIC "-//W3C//DTD SVG 1.1//EN"
 "http://www.w3.org/Graphics/SVG/1.1/DTD/svg11.dtd">
<!-- Generated by graphviz version 2.40.1 (20161225.0304)
 -->
<!-- Title: editarraystringdlg.h Pages: 1 -->
<svg width="340pt" height="84pt"
 viewBox="0.00 0.00 339.50 84.00" xmlns="http://www.w3.org/2000/svg" xmlns:xlink="http://www.w3.org/1999/xlink">
<g id="graph0" class="graph" transform="scale(1 1) rotate(0) translate(4 80)">
<title>editarraystringdlg.h</title>
<!-- Node6 -->
<g id="node1" class="node">
<title>Node6</title>
<polygon fill="#bfbfbf" stroke="#000000" points="126,-56.5 126,-75.5 223,-75.5 223,-56.5 126,-56.5"/>
<text text-anchor="middle" x="174.5" y="-63.5" font-family="FreeSans" font-size="10.00" fill="#000000">editarraystringdlg.h</text>
</g>
<!-- Node7 -->
<g id="node2" class="node">
<title>Node7</title>
<g id="a_node2"><a xlink:href="editarraystringdlg_8cpp" target="_top" xlink:title="editarraystringdlg.cpp">
<polygon fill="none" stroke="#000000" points="0,-.5 0,-19.5 107,-19.5 107,-.5 0,-.5"/>
<text text-anchor="middle" x="53.5" y="-7.5" font-family="FreeSans" font-size="10.00" fill="#000000">editarraystringdlg.cpp</text>
</a>
</g>
</g>
<!-- Node6&#45;&gt;Node7 -->
<g id="edge1" class="edge">
<title>Node6&#45;&gt;Node7</title>
<path fill="none" stroke="#191970" d="M144.4896,-52.1109C122.5475,-41.9559 93.3612,-28.4482 74.0292,-19.5011"/>
<polygon fill="#191970" stroke="#191970" points="143.1541,-55.3494 153.6994,-56.3733 146.0942,-48.9968 143.1541,-55.3494"/>
</g>
<!-- Node8 -->
<g id="node3" class="node">
<title>Node8</title>
<g id="a_node3"><a xlink:href="sc__util__dialogs_8cpp" target="_top" xlink:title="sc_util_dialogs.cpp">
<polygon fill="none" stroke="#000000" points="125.5,-.5 125.5,-19.5 223.5,-19.5 223.5,-.5 125.5,-.5"/>
<text text-anchor="middle" x="174.5" y="-7.5" font-family="FreeSans" font-size="10.00" fill="#000000">sc_util_dialogs.cpp</text>
</a>
</g>
</g>
<!-- Node6&#45;&gt;Node8 -->
<g id="edge2" class="edge">
<title>Node6&#45;&gt;Node8</title>
<path fill="none" stroke="#191970" d="M174.5,-46.1575C174.5,-37.155 174.5,-26.9199 174.5,-19.6427"/>
<polygon fill="#191970" stroke="#191970" points="171.0001,-46.2455 174.5,-56.2455 178.0001,-46.2456 171.0001,-46.2455"/>
</g>
<!-- Node9 -->
<g id="node4" class="node">
<title>Node9</title>
<g id="a_node4"><a xlink:href="debuggergdb_8cpp" target="_top" xlink:title="debuggergdb.cpp">
<polygon fill="none" stroke="#000000" points="241.5,-.5 241.5,-19.5 331.5,-19.5 331.5,-.5 241.5,-.5"/>
<text text-anchor="middle" x="286.5" y="-7.5" font-family="FreeSans" font-size="10.00" fill="#000000">debuggergdb.cpp</text>
</a>
</g>
</g>
<!-- Node6&#45;&gt;Node9 -->
<g id="edge3" class="edge">
<title>Node6&#45;&gt;Node9</title>
<path fill="none" stroke="#191970" d="M202.8263,-51.8368C223.0721,-41.7139 249.7642,-28.3679 267.4978,-19.5011"/>
<polygon fill="#191970" stroke="#191970" points="201.1325,-48.7706 193.7535,-56.3733 204.263,-55.0316 201.1325,-48.7706"/>
</g>
</g>
</svg>
