<?xml version="1.0" encoding="UTF-8" standalone="no"?>
<!DOCTYPE svg PUBLIC "-//W3C//DTD SVG 1.1//EN"
 "http://www.w3.org/Graphics/SVG/1.1/DTD/svg11.dtd">
<!-- Generated by graphviz version 2.38.0 (20140413.2041)
 -->
<!-- Title: externaldepsdlg.h Pages: 1 -->
<svg width="203pt" height="140pt"
 viewBox="0.00 0.00 202.50 140.00" xmlns="http://www.w3.org/2000/svg" xmlns:xlink="http://www.w3.org/1999/xlink">
<g id="graph0" class="graph" transform="scale(1 1) rotate(0) translate(4 136)">
<title>externaldepsdlg.h</title>
<polygon fill="white" stroke="none" points="-4,4 -4,-136 198.5,-136 198.5,4 -4,4"/>
<!-- Node1 -->
<g id="node1" class="node"><title>Node1</title>
<polygon fill="#bfbfbf" stroke="black" points="27,-112.5 27,-131.5 118,-131.5 118,-112.5 27,-112.5"/>
<text text-anchor="middle" x="72.5" y="-119.5" font-family="FreeSans" font-size="10.00">externaldepsdlg.h</text>
</g>
<!-- Node2 -->
<g id="node2" class="node"><title>Node2</title>
<g id="a_node2"><a xlink:href="settings_8h.xhtml" target="_top" xlink:title="settings.h">
<polygon fill="white" stroke="black" points="0,-56.5 0,-75.5 57,-75.5 57,-56.5 0,-56.5"/>
<text text-anchor="middle" x="28.5" y="-63.5" font-family="FreeSans" font-size="10.00">settings.h</text>
</a>
</g>
</g>
<!-- Node1&#45;&gt;Node2 -->
<g id="edge1" class="edge"><title>Node1&#45;&gt;Node2</title>
<path fill="none" stroke="midnightblue" d="M65.2343,-112.083C58.9552,-104.377 49.7124,-93.0333 42.0692,-83.6531"/>
<polygon fill="midnightblue" stroke="midnightblue" points="44.6606,-81.2926 35.6305,-75.7511 39.2339,-85.7143 44.6606,-81.2926"/>
</g>
<!-- Node3 -->
<g id="node3" class="node"><title>Node3</title>
<g id="a_node3"><a xlink:href="scrollingdialog_8h.xhtml" target="_top" xlink:title="scrollingdialog.h">
<polygon fill="white" stroke="black" points="75,-56.5 75,-75.5 160,-75.5 160,-56.5 75,-56.5"/>
<text text-anchor="middle" x="117.5" y="-63.5" font-family="FreeSans" font-size="10.00">scrollingdialog.h</text>
</a>
</g>
</g>
<!-- Node1&#45;&gt;Node3 -->
<g id="edge2" class="edge"><title>Node1&#45;&gt;Node3</title>
<path fill="none" stroke="midnightblue" d="M79.9308,-112.083C86.3527,-104.377 95.8056,-93.0333 103.622,-83.6531"/>
<polygon fill="midnightblue" stroke="midnightblue" points="106.494,-85.674 110.207,-75.7511 101.117,-81.1927 106.494,-85.674"/>
</g>
<!-- Node4 -->
<g id="node4" class="node"><title>Node4</title>
<polygon fill="white" stroke="#bfbfbf" points="42.5,-0.5 42.5,-19.5 106.5,-19.5 106.5,-0.5 42.5,-0.5"/>
<text text-anchor="middle" x="74.5" y="-7.5" font-family="FreeSans" font-size="10.00">wx/dialog.h</text>
</g>
<!-- Node3&#45;&gt;Node4 -->
<g id="edge3" class="edge"><title>Node3&#45;&gt;Node4</title>
<path fill="none" stroke="midnightblue" d="M110.399,-56.083C104.263,-48.3768 95.2303,-37.0333 87.7608,-27.6531"/>
<polygon fill="midnightblue" stroke="midnightblue" points="90.4357,-25.3936 81.4685,-19.7511 84.9598,-29.7542 90.4357,-25.3936"/>
</g>
<!-- Node5 -->
<g id="node5" class="node"><title>Node5</title>
<polygon fill="white" stroke="#bfbfbf" points="124.5,-0.5 124.5,-19.5 194.5,-19.5 194.5,-0.5 124.5,-0.5"/>
<text text-anchor="middle" x="159.5" y="-7.5" font-family="FreeSans" font-size="10.00">wx/propdlg.h</text>
</g>
<!-- Node3&#45;&gt;Node5 -->
<g id="edge4" class="edge"><title>Node3&#45;&gt;Node5</title>
<path fill="none" stroke="midnightblue" d="M124.435,-56.083C130.429,-48.3768 139.252,-37.0333 146.548,-27.6531"/>
<polygon fill="midnightblue" stroke="midnightblue" points="149.317,-29.7934 152.694,-19.7511 143.791,-25.4958 149.317,-29.7934"/>
</g>
</g>
</svg>
