<?xml version="1.0" encoding="UTF-8" standalone="no"?>
<!DOCTYPE svg PUBLIC "-//W3C//DTD SVG 1.1//EN"
 "http://www.w3.org/Graphics/SVG/1.1/DTD/svg11.dtd">
<!-- Generated by graphviz version 2.40.1 (20161225.0304)
 -->
<!-- Title: filefilters.h Pages: 1 -->
<svg width="2885pt" height="84pt"
 viewBox="0.00 0.00 2884.50 84.00" xmlns="http://www.w3.org/2000/svg" xmlns:xlink="http://www.w3.org/1999/xlink">
<g id="graph0" class="graph" transform="scale(1 1) rotate(0) translate(4 80)">
<title>filefilters.h</title>
<!-- Node3 -->
<g id="node1" class="node">
<title>Node3</title>
<polygon fill="#bfbfbf" stroke="#000000" points="1380,-56.5 1380,-75.5 1439,-75.5 1439,-56.5 1380,-56.5"/>
<text text-anchor="middle" x="1409.5" y="-63.5" font-family="FreeSans" font-size="10.00" fill="#000000">filefilters.h</text>
</g>
<!-- Node4 -->
<g id="node2" class="node">
<title>Node4</title>
<g id="a_node2"><a xlink:href="cbeditor_8cpp" target="_top" xlink:title="cbeditor.cpp">
<polygon fill="none" stroke="#000000" points="0,-.5 0,-19.5 69,-19.5 69,-.5 0,-.5"/>
<text text-anchor="middle" x="34.5" y="-7.5" font-family="FreeSans" font-size="10.00" fill="#000000">cbeditor.cpp</text>
</a>
</g>
</g>
<!-- Node3&#45;&gt;Node4 -->
<g id="edge1" class="edge">
<title>Node3&#45;&gt;Node4</title>
<path fill="none" stroke="#191970" d="M1369.5662,-65.6372C1176.3872,-63.7267 337.5754,-53.6104 78.5,-20 75.5479,-19.617 72.5028,-19.1274 69.4572,-18.5712"/>
<polygon fill="#191970" stroke="#191970" points="1369.7885,-69.1394 1379.822,-65.7369 1369.8566,-62.1398 1369.7885,-69.1394"/>
</g>
<!-- Node5 -->
<g id="node3" class="node">
<title>Node5</title>
<g id="a_node3"><a xlink:href="cbproject_8cpp" target="_top" xlink:title="cbproject.cpp">
<polygon fill="none" stroke="#000000" points="87.5,-.5 87.5,-19.5 161.5,-19.5 161.5,-.5 87.5,-.5"/>
<text text-anchor="middle" x="124.5" y="-7.5" font-family="FreeSans" font-size="10.00" fill="#000000">cbproject.cpp</text>
</a>
</g>
</g>
<!-- Node3&#45;&gt;Node5 -->
<g id="edge2" class="edge">
<title>Node3&#45;&gt;Node5</title>
<path fill="none" stroke="#191970" d="M1369.6798,-65.4701C1184.9877,-62.867 410.6284,-50.3161 170.5,-20 167.581,-19.6315 164.5733,-19.1689 161.5596,-18.6459"/>
<polygon fill="#191970" stroke="#191970" points="1369.7132,-68.9708 1379.761,-65.6105 1369.8107,-61.9715 1369.7132,-68.9708"/>
</g>
<!-- Node6 -->
<g id="node4" class="node">
<title>Node6</title>
<g id="a_node4"><a xlink:href="cbworkspace_8cpp" target="_top" xlink:title="cbworkspace.cpp">
<polygon fill="none" stroke="#000000" points="180,-.5 180,-19.5 271,-19.5 271,-.5 180,-.5"/>
<text text-anchor="middle" x="225.5" y="-7.5" font-family="FreeSans" font-size="10.00" fill="#000000">cbworkspace.cpp</text>
</a>
</g>
</g>
<!-- Node3&#45;&gt;Node6 -->
<g id="edge3" class="edge">
<title>Node3&#45;&gt;Node6</title>
<path fill="none" stroke="#191970" d="M1369.8793,-65.1454C1195.7574,-61.2729 497.4782,-44.4937 279.5,-20 276.7523,-19.6912 273.9342,-19.3241 271.0968,-18.9158"/>
<polygon fill="#191970" stroke="#191970" points="1369.8107,-68.6446 1379.8856,-65.3665 1369.9654,-61.6463 1369.8107,-68.6446"/>
</g>
<!-- Node7 -->
<g id="node5" class="node">
<title>Node7</title>
<g id="a_node5"><a xlink:href="compilercommandgenerator_8cpp" target="_top" xlink:title="compilercommandgenerator.cpp">
<polygon fill="none" stroke="#000000" points="289,-.5 289,-19.5 444,-19.5 444,-.5 289,-.5"/>
<text text-anchor="middle" x="366.5" y="-7.5" font-family="FreeSans" font-size="10.00" fill="#000000">compilercommandgenerator.cpp</text>
</a>
</g>
</g>
<!-- Node3&#45;&gt;Node7 -->
<g id="edge4" class="edge">
<title>Node3&#45;&gt;Node7</title>
<path fill="none" stroke="#191970" d="M1369.2935,-65.0424C1237.5894,-61.6972 807.2437,-49.1167 452.5,-20 449.8035,-19.7787 447.061,-19.539 444.2923,-19.2847"/>
<polygon fill="#191970" stroke="#191970" points="1369.6002,-68.5511 1379.6848,-65.3028 1369.7756,-61.5533 1369.6002,-68.5511"/>
</g>
<!-- Node8 -->
<g id="node6" class="node">
<title>Node8</title>
<g id="a_node6"><a xlink:href="compiletargetbase_8cpp" target="_top" xlink:title="compiletargetbase.cpp">
<polygon fill="none" stroke="#000000" points="462,-.5 462,-19.5 575,-19.5 575,-.5 462,-.5"/>
<text text-anchor="middle" x="518.5" y="-7.5" font-family="FreeSans" font-size="10.00" fill="#000000">compiletargetbase.cpp</text>
</a>
</g>
</g>
<!-- Node3&#45;&gt;Node8 -->
<g id="edge5" class="edge">
<title>Node3&#45;&gt;Node8</title>
<path fill="none" stroke="#191970" d="M1369.7013,-65.1167C1250.4031,-62.1823 885.4139,-51.1151 584.5,-20 581.5028,-19.6901 578.4336,-19.34 575.338,-18.961"/>
<polygon fill="#191970" stroke="#191970" points="1369.7416,-68.6186 1379.823,-65.3605 1369.9103,-61.6206 1369.7416,-68.6186"/>
</g>
<!-- Node9 -->
<g id="node7" class="node">
<title>Node9</title>
<g id="a_node7"><a xlink:href="editarrayfiledlg_8cpp" target="_top" xlink:title="editarrayfiledlg.cpp">
<polygon fill="none" stroke="#000000" points="593.5,-.5 593.5,-19.5 689.5,-19.5 689.5,-.5 593.5,-.5"/>
<text text-anchor="middle" x="641.5" y="-7.5" font-family="FreeSans" font-size="10.00" fill="#000000">editarrayfiledlg.cpp</text>
</a>
</g>
</g>
<!-- Node3&#45;&gt;Node9 -->
<g id="edge6" class="edge">
<title>Node3&#45;&gt;Node9</title>
<path fill="none" stroke="#191970" d="M1369.811,-64.9502C1261.7211,-61.7639 953.1591,-50.4843 698.5,-20 695.607,-19.6537 692.638,-19.2575 689.6474,-18.8272"/>
<polygon fill="#191970" stroke="#191970" points="1369.836,-68.4523 1379.9328,-65.242 1370.0378,-61.4552 1369.836,-68.4523"/>
</g>
<!-- Node10 -->
<g id="node8" class="node">
<title>Node10</title>
<g id="a_node8"><a xlink:href="editorcolourset_8cpp" target="_top" xlink:title="editorcolourset.cpp">
<polygon fill="none" stroke="#000000" points="707.5,-.5 707.5,-19.5 805.5,-19.5 805.5,-.5 707.5,-.5"/>
<text text-anchor="middle" x="756.5" y="-7.5" font-family="FreeSans" font-size="10.00" fill="#000000">editorcolourset.cpp</text>
</a>
</g>
</g>
<!-- Node3&#45;&gt;Node10 -->
<g id="edge7" class="edge">
<title>Node3&#45;&gt;Node10</title>
<path fill="none" stroke="#191970" d="M1369.898,-64.2215C1274.1933,-59.6444 1022.8518,-45.9575 814.5,-20 811.6609,-19.6463 808.749,-19.2503 805.8142,-18.8256"/>
<polygon fill="#191970" stroke="#191970" points="1369.8406,-67.7226 1379.9945,-64.698 1370.1707,-60.7304 1369.8406,-67.7226"/>
</g>
<!-- Node11 -->
<g id="node9" class="node">
<title>Node11</title>
<g id="a_node9"><a xlink:href="editormanager_8cpp" target="_top" xlink:title="editormanager.cpp">
<polygon fill="none" stroke="#000000" points="823.5,-.5 823.5,-19.5 919.5,-19.5 919.5,-.5 823.5,-.5"/>
<text text-anchor="middle" x="871.5" y="-7.5" font-family="FreeSans" font-size="10.00" fill="#000000">editormanager.cpp</text>
</a>
</g>
</g>
<!-- Node3&#45;&gt;Node11 -->
<g id="edge8" class="edge">
<title>Node3&#45;&gt;Node11</title>
<path fill="none" stroke="#191970" d="M1369.6621,-63.2513C1287.1325,-57.3236 1091.5617,-42.0663 928.5,-20 925.6127,-19.6093 922.6481,-19.1787 919.6607,-18.7225"/>
<polygon fill="#191970" stroke="#191970" points="1369.6274,-66.7576 1379.8508,-63.9768 1370.1247,-59.7753 1369.6274,-66.7576"/>
</g>
<!-- Node12 -->
<g id="node10" class="node">
<title>Node12</title>
<g id="a_node10"><a xlink:href="editpairdlg_8cpp" target="_top" xlink:title="editpairdlg.cpp">
<polygon fill="none" stroke="#000000" points="938,-.5 938,-19.5 1017,-19.5 1017,-.5 938,-.5"/>
<text text-anchor="middle" x="977.5" y="-7.5" font-family="FreeSans" font-size="10.00" fill="#000000">editpairdlg.cpp</text>
</a>
</g>
</g>
<!-- Node3&#45;&gt;Node12 -->
<g id="edge9" class="edge">
<title>Node3&#45;&gt;Node12</title>
<path fill="none" stroke="#191970" d="M1369.8806,-62.3905C1300.0498,-55.7756 1150.6055,-40.486 1025.5,-20 1022.7279,-19.5461 1019.8728,-19.043 1017.0023,-18.511"/>
<polygon fill="#191970" stroke="#191970" points="1369.7078,-65.8896 1379.9913,-63.3402 1370.3625,-58.9203 1369.7078,-65.8896"/>
</g>
<!-- Node13 -->
<g id="node11" class="node">
<title>Node13</title>
<g id="a_node11"><a xlink:href="filefilters_8cpp" target="_top" xlink:title="filefilters.cpp">
<polygon fill="none" stroke="#000000" points="1035,-.5 1035,-19.5 1104,-19.5 1104,-.5 1035,-.5"/>
<text text-anchor="middle" x="1069.5" y="-7.5" font-family="FreeSans" font-size="10.00" fill="#000000">filefilters.cpp</text>
</a>
</g>
</g>
<!-- Node3&#45;&gt;Node13 -->
<g id="edge10" class="edge">
<title>Node3&#45;&gt;Node13</title>
<path fill="none" stroke="#191970" d="M1369.8157,-60.8158C1312.7059,-53.1373 1204.1295,-37.7247 1112.5,-20 1109.791,-19.476 1106.9936,-18.9016 1104.1861,-18.3013"/>
<polygon fill="#191970" stroke="#191970" points="1369.4893,-64.3032 1379.8648,-62.1584 1370.4164,-57.3648 1369.4893,-64.3032"/>
</g>
<!-- Node14 -->
<g id="node12" class="node">
<title>Node14</title>
<g id="a_node12"><a xlink:href="globals_8cpp" target="_top" xlink:title="globals.cpp">
<polygon fill="none" stroke="#000000" points="1122,-.5 1122,-19.5 1187,-19.5 1187,-.5 1122,-.5"/>
<text text-anchor="middle" x="1154.5" y="-7.5" font-family="FreeSans" font-size="10.00" fill="#000000">globals.cpp</text>
</a>
</g>
</g>
<!-- Node3&#45;&gt;Node14 -->
<g id="edge11" class="edge">
<title>Node3&#45;&gt;Node14</title>
<path fill="none" stroke="#191970" d="M1369.8093,-57.6891C1326.9889,-48.6619 1256.8267,-33.6943 1196.5,-20 1193.43,-19.3031 1190.2368,-18.5657 1187.0436,-17.8199"/>
<polygon fill="#191970" stroke="#191970" points="1369.3163,-61.1619 1379.8228,-59.7968 1370.7582,-54.312 1369.3163,-61.1619"/>
</g>
<!-- Node15 -->
<g id="node13" class="node">
<title>Node15</title>
<g id="a_node13"><a xlink:href="pluginmanager_8cpp" target="_top" xlink:title="pluginmanager.cpp">
<polygon fill="none" stroke="#000000" points="1205.5,-.5 1205.5,-19.5 1303.5,-19.5 1303.5,-.5 1205.5,-.5"/>
<text text-anchor="middle" x="1254.5" y="-7.5" font-family="FreeSans" font-size="10.00" fill="#000000">pluginmanager.cpp</text>
</a>
</g>
</g>
<!-- Node3&#45;&gt;Node15 -->
<g id="edge12" class="edge">
<title>Node3&#45;&gt;Node15</title>
<path fill="none" stroke="#191970" d="M1373.3051,-52.9231C1344.9703,-42.686 1306.2282,-28.6889 1280.7978,-19.5011"/>
<polygon fill="#191970" stroke="#191970" points="1372.2602,-56.267 1382.8546,-56.3733 1374.6388,-49.6835 1372.2602,-56.267"/>
</g>
<!-- Node16 -->
<g id="node14" class="node">
<title>Node16</title>
<g id="a_node14"><a xlink:href="projectfile_8cpp" target="_top" xlink:title="projectfile.cpp">
<polygon fill="none" stroke="#000000" points="1321.5,-.5 1321.5,-19.5 1397.5,-19.5 1397.5,-.5 1321.5,-.5"/>
<text text-anchor="middle" x="1359.5" y="-7.5" font-family="FreeSans" font-size="10.00" fill="#000000">projectfile.cpp</text>
</a>
</g>
</g>
<!-- Node3&#45;&gt;Node16 -->
<g id="edge13" class="edge">
<title>Node3&#45;&gt;Node16</title>
<path fill="none" stroke="#191970" d="M1393.8753,-48.5004C1385.3727,-38.9775 1375.1782,-27.5596 1368.1095,-19.6427"/>
<polygon fill="#191970" stroke="#191970" points="1391.5197,-51.1172 1400.7907,-56.2455 1396.7413,-46.4551 1391.5197,-51.1172"/>
</g>
<!-- Node17 -->
<g id="node15" class="node">
<title>Node17</title>
<g id="a_node15"><a xlink:href="projectloader_8cpp" target="_top" xlink:title="projectloader.cpp">
<polygon fill="none" stroke="#000000" points="1415.5,-.5 1415.5,-19.5 1505.5,-19.5 1505.5,-.5 1415.5,-.5"/>
<text text-anchor="middle" x="1460.5" y="-7.5" font-family="FreeSans" font-size="10.00" fill="#000000">projectloader.cpp</text>
</a>
</g>
</g>
<!-- Node3&#45;&gt;Node17 -->
<g id="edge14" class="edge">
<title>Node3&#45;&gt;Node17</title>
<path fill="none" stroke="#191970" d="M1425.1749,-48.7884C1433.8994,-39.2085 1444.4354,-27.6396 1451.7183,-19.6427"/>
<polygon fill="#191970" stroke="#191970" points="1422.5291,-46.4954 1418.3835,-56.2455 1427.7046,-51.2088 1422.5291,-46.4954"/>
</g>
<!-- Node18 -->
<g id="node16" class="node">
<title>Node18</title>
<g id="a_node16"><a xlink:href="sc__consts_8cpp" target="_top" xlink:title="sc_consts.cpp">
<polygon fill="none" stroke="#000000" points="1524,-.5 1524,-19.5 1601,-19.5 1601,-.5 1524,-.5"/>
<text text-anchor="middle" x="1562.5" y="-7.5" font-family="FreeSans" font-size="10.00" fill="#000000">sc_consts.cpp</text>
</a>
</g>
</g>
<!-- Node3&#45;&gt;Node18 -->
<g id="edge15" class="edge">
<title>Node3&#45;&gt;Node18</title>
<path fill="none" stroke="#191970" d="M1445.2279,-52.9231C1473.1971,-42.686 1511.4393,-28.6889 1536.5416,-19.5011"/>
<polygon fill="#191970" stroke="#191970" points="1443.9894,-49.6493 1435.8016,-56.3733 1446.3954,-56.2228 1443.9894,-49.6493"/>
</g>
<!-- Node19 -->
<g id="node17" class="node">
<title>Node19</title>
<g id="a_node17"><a xlink:href="templatemanager_8cpp" target="_top" xlink:title="templatemanager.cpp">
<polygon fill="none" stroke="#000000" points="1619.5,-.5 1619.5,-19.5 1729.5,-19.5 1729.5,-.5 1619.5,-.5"/>
<text text-anchor="middle" x="1674.5" y="-7.5" font-family="FreeSans" font-size="10.00" fill="#000000">templatemanager.cpp</text>
</a>
</g>
</g>
<!-- Node3&#45;&gt;Node19 -->
<g id="edge16" class="edge">
<title>Node3&#45;&gt;Node19</title>
<path fill="none" stroke="#191970" d="M1449.1823,-57.6143C1497.3904,-47.4269 1578.5348,-30.2794 1629.1625,-19.5807"/>
<polygon fill="#191970" stroke="#191970" points="1448.1878,-54.2471 1439.1275,-59.7391 1449.6351,-61.0958 1448.1878,-54.2471"/>
</g>
<!-- Node20 -->
<g id="node18" class="node">
<title>Node20</title>
<g id="a_node18"><a xlink:href="associations_8cpp" target="_top" xlink:title="associations.cpp">
<polygon fill="none" stroke="#000000" points="1748,-.5 1748,-19.5 1835,-19.5 1835,-.5 1748,-.5"/>
<text text-anchor="middle" x="1791.5" y="-7.5" font-family="FreeSans" font-size="10.00" fill="#000000">associations.cpp</text>
</a>
</g>
</g>
<!-- Node3&#45;&gt;Node20 -->
<g id="edge17" class="edge">
<title>Node3&#45;&gt;Node20</title>
<path fill="none" stroke="#191970" d="M1449.1768,-61.0719C1511.0937,-53.2419 1634.3978,-37.0887 1738.5,-20 1741.5492,-19.4995 1744.693,-18.9618 1747.8563,-18.4049"/>
<polygon fill="#191970" stroke="#191970" points="1448.547,-57.6235 1439.0628,-62.3458 1449.4218,-64.5686 1448.547,-57.6235"/>
</g>
<!-- Node21 -->
<g id="node19" class="node">
<title>Node21</title>
<g id="a_node19"><a xlink:href="backtracedlg_8cpp" target="_top" xlink:title="backtracedlg.cpp">
<polygon fill="none" stroke="#000000" points="1853.5,-.5 1853.5,-19.5 1943.5,-19.5 1943.5,-.5 1853.5,-.5"/>
<text text-anchor="middle" x="1898.5" y="-7.5" font-family="FreeSans" font-size="10.00" fill="#000000">backtracedlg.cpp</text>
</a>
</g>
</g>
<!-- Node3&#45;&gt;Node21 -->
<g id="edge18" class="edge">
<title>Node3&#45;&gt;Node21</title>
<path fill="none" stroke="#191970" d="M1449.3027,-62.8338C1526.0007,-56.5021 1699.5098,-41.0586 1844.5,-20 1847.425,-19.5752 1850.4334,-19.1066 1853.4622,-18.6111"/>
<polygon fill="#191970" stroke="#191970" points="1448.8168,-59.3618 1439.1359,-63.6664 1449.3882,-66.3385 1448.8168,-59.3618"/>
</g>
<!-- Node22 -->
<g id="node20" class="node">
<title>Node22</title>
<g id="a_node20"><a xlink:href="disassemblydlg_8cpp" target="_top" xlink:title="disassemblydlg.cpp">
<polygon fill="none" stroke="#000000" points="1962,-.5 1962,-19.5 2061,-19.5 2061,-.5 1962,-.5"/>
<text text-anchor="middle" x="2011.5" y="-7.5" font-family="FreeSans" font-size="10.00" fill="#000000">disassemblydlg.cpp</text>
</a>
</g>
</g>
<!-- Node3&#45;&gt;Node22 -->
<g id="edge19" class="edge">
<title>Node3&#45;&gt;Node22</title>
<path fill="none" stroke="#191970" d="M1449.0303,-63.7847C1538.7786,-58.5074 1764.7146,-43.826 1952.5,-20 1955.592,-19.6077 1958.7695,-19.17 1961.97,-18.703"/>
<polygon fill="#191970" stroke="#191970" points="1448.8009,-60.292 1439.0212,-64.3673 1449.2077,-67.2802 1448.8009,-60.292"/>
</g>
<!-- Node23 -->
<g id="node21" class="node">
<title>Node23</title>
<g id="a_node21"><a xlink:href="main_8cpp" target="_top" xlink:title="main.cpp">
<polygon fill="none" stroke="#000000" points="2079.5,-.5 2079.5,-19.5 2135.5,-19.5 2135.5,-.5 2079.5,-.5"/>
<text text-anchor="middle" x="2107.5" y="-7.5" font-family="FreeSans" font-size="10.00" fill="#000000">main.cpp</text>
</a>
</g>
</g>
<!-- Node3&#45;&gt;Node23 -->
<g id="edge20" class="edge">
<title>Node3&#45;&gt;Node23</title>
<path fill="none" stroke="#191970" d="M1449.3087,-64.2474C1573.036,-58.6398 1949.8017,-40.3116 2070.5,-20 2073.3872,-19.5141 2076.3749,-18.8999 2079.3434,-18.2157"/>
<polygon fill="#191970" stroke="#191970" points="1448.9801,-60.7585 1439.1478,-64.705 1449.2951,-67.7515 1448.9801,-60.7585"/>
</g>
<!-- Node24 -->
<g id="node22" class="node">
<title>Node24</title>
<g id="a_node22"><a xlink:href="projectmanagerui_8cpp" target="_top" xlink:title="projectmanagerui.cpp">
<polygon fill="none" stroke="#000000" points="2154,-.5 2154,-19.5 2263,-19.5 2263,-.5 2154,-.5"/>
<text text-anchor="middle" x="2208.5" y="-7.5" font-family="FreeSans" font-size="10.00" fill="#000000">projectmanagerui.cpp</text>
</a>
</g>
</g>
<!-- Node3&#45;&gt;Node24 -->
<g id="edge21" class="edge">
<title>Node3&#45;&gt;Node24</title>
<path fill="none" stroke="#191970" d="M1449.385,-64.8011C1560.0281,-61.1957 1880.0854,-48.869 2144.5,-20 2147.5185,-19.6704 2150.6121,-19.2992 2153.7316,-18.8986"/>
<polygon fill="#191970" stroke="#191970" points="1449.2229,-61.3044 1439.3402,-65.1231 1449.4473,-68.3008 1449.2229,-61.3044"/>
</g>
<!-- Node25 -->
<g id="node23" class="node">
<title>Node25</title>
<g id="a_node23"><a xlink:href="projectoptionsdlg_8cpp" target="_top" xlink:title="projectoptionsdlg.cpp">
<polygon fill="none" stroke="#000000" points="2281,-.5 2281,-19.5 2388,-19.5 2388,-.5 2281,-.5"/>
<text text-anchor="middle" x="2334.5" y="-7.5" font-family="FreeSans" font-size="10.00" fill="#000000">projectoptionsdlg.cpp</text>
</a>
</g>
</g>
<!-- Node3&#45;&gt;Node25 -->
<g id="edge22" class="edge">
<title>Node3&#45;&gt;Node25</title>
<path fill="none" stroke="#191970" d="M1449.0687,-65.3914C1571.6914,-63.1843 1956.1191,-53.849 2272.5,-20 2275.2103,-19.71 2277.9825,-19.3813 2280.7787,-19.0242"/>
<polygon fill="#191970" stroke="#191970" points="1448.9597,-61.8927 1439.0223,-65.5667 1449.0819,-68.8916 1448.9597,-61.8927"/>
</g>
<!-- Node26 -->
<g id="node24" class="node">
<title>Node26</title>
<g id="a_node24"><a xlink:href="scriptingsettingsdlg_8cpp" target="_top" xlink:title="scriptingsettingsdlg.cpp">
<polygon fill="none" stroke="#000000" points="2406.5,-.5 2406.5,-19.5 2522.5,-19.5 2522.5,-.5 2406.5,-.5"/>
<text text-anchor="middle" x="2464.5" y="-7.5" font-family="FreeSans" font-size="10.00" fill="#000000">scriptingsettingsdlg.cpp</text>
</a>
</g>
</g>
<!-- Node3&#45;&gt;Node26 -->
<g id="edge23" class="edge">
<title>Node3&#45;&gt;Node26</title>
<path fill="none" stroke="#191970" d="M1449.2668,-65.5976C1583.2255,-63.9332 2030.1841,-55.8688 2397.5,-20 2400.4263,-19.7142 2403.42,-19.3889 2406.44,-19.0345"/>
<polygon fill="#191970" stroke="#191970" points="1449.0374,-62.1 1439.08,-65.7192 1449.121,-69.0995 1449.0374,-62.1"/>
</g>
<!-- Node27 -->
<g id="node25" class="node">
<title>Node27</title>
<g id="a_node25"><a xlink:href="compilergcc_8cpp" target="_top" xlink:title="compilergcc.cpp">
<polygon fill="none" stroke="#000000" points="2541,-.5 2541,-19.5 2628,-19.5 2628,-.5 2541,-.5"/>
<text text-anchor="middle" x="2584.5" y="-7.5" font-family="FreeSans" font-size="10.00" fill="#000000">compilergcc.cpp</text>
</a>
</g>
</g>
<!-- Node3&#45;&gt;Node27 -->
<g id="edge24" class="edge">
<title>Node3&#45;&gt;Node27</title>
<path fill="none" stroke="#191970" d="M1449.3867,-65.1442C1623.1905,-61.295 2315.3337,-44.6914 2531.5,-20 2534.5701,-19.6493 2537.7293,-19.2229 2540.9038,-18.7461"/>
<polygon fill="#191970" stroke="#191970" points="1449.0811,-61.65 1439.1606,-65.3691 1449.2351,-68.6483 1449.0811,-61.65"/>
</g>
<!-- Node28 -->
<g id="node26" class="node">
<title>Node28</title>
<g id="a_node26"><a xlink:href="directcommands_8cpp" target="_top" xlink:title="directcommands.cpp">
<polygon fill="none" stroke="#000000" points="2646.5,-.5 2646.5,-19.5 2752.5,-19.5 2752.5,-.5 2646.5,-.5"/>
<text text-anchor="middle" x="2699.5" y="-7.5" font-family="FreeSans" font-size="10.00" fill="#000000">directcommands.cpp</text>
</a>
</g>
</g>
<!-- Node3&#45;&gt;Node28 -->
<g id="edge25" class="edge">
<title>Node3&#45;&gt;Node28</title>
<path fill="none" stroke="#191970" d="M1449.2343,-65.1675C1632.6789,-61.2232 2398.9085,-43.6203 2637.5,-20 2640.4295,-19.71 2643.4307,-19.3699 2646.4559,-18.9936"/>
<polygon fill="#191970" stroke="#191970" points="1449.1407,-61.6686 1439.2178,-65.3817 1449.2904,-68.667 1449.1407,-61.6686"/>
</g>
<!-- Node29 -->
<g id="node27" class="node">
<title>Node29</title>
<g id="a_node27"><a xlink:href="projectpathpanel_8cpp" target="_top" xlink:title="projectpathpanel.cpp">
<polygon fill="none" stroke="#000000" points="2770.5,-.5 2770.5,-19.5 2876.5,-19.5 2876.5,-.5 2770.5,-.5"/>
<text text-anchor="middle" x="2823.5" y="-7.5" font-family="FreeSans" font-size="10.00" fill="#000000">projectpathpanel.cpp</text>
</a>
</g>
</g>
<!-- Node3&#45;&gt;Node29 -->
<g id="edge26" class="edge">
<title>Node3&#45;&gt;Node29</title>
<path fill="none" stroke="#191970" d="M1449.098,-65.3267C1643.3688,-61.9202 2496.9646,-45.7305 2761.5,-20 2764.43,-19.715 2767.4316,-19.3789 2770.4571,-19.0056"/>
<polygon fill="#191970" stroke="#191970" points="1448.9897,-61.8279 1439.0523,-65.5017 1449.1117,-68.8268 1448.9897,-61.8279"/>
</g>
</g>
</svg>
