<?xml version="1.0" encoding="UTF-8" standalone="no"?>
<!DOCTYPE svg PUBLIC "-//W3C//DTD SVG 1.1//EN"
 "http://www.w3.org/Graphics/SVG/1.1/DTD/svg11.dtd">
<!-- Generated by graphviz version 2.40.1 (20161225.0304)
 -->
<!-- Title: filefilters.cpp Pages: 1 -->
<svg width="2080pt" height="252pt"
 viewBox="0.00 0.00 2079.50 252.00" xmlns="http://www.w3.org/2000/svg" xmlns:xlink="http://www.w3.org/1999/xlink">
<g id="graph0" class="graph" transform="scale(1 1) rotate(0) translate(4 248)">
<title>filefilters.cpp</title>
<!-- Node0 -->
<g id="node1" class="node">
<title>Node0</title>
<polygon fill="#bfbfbf" stroke="#000000" points="1421.5,-224.5 1421.5,-243.5 1490.5,-243.5 1490.5,-224.5 1421.5,-224.5"/>
<text text-anchor="middle" x="1456" y="-231.5" font-family="FreeSans" font-size="10.00" fill="#000000">filefilters.cpp</text>
</g>
<!-- Node1 -->
<g id="node2" class="node">
<title>Node1</title>
<g id="a_node2"><a xlink:href="sdk__precomp_8h" target="_top" xlink:title="sdk_precomp.h">
<polygon fill="none" stroke="#000000" points="1346,-168.5 1346,-187.5 1428,-187.5 1428,-168.5 1346,-168.5"/>
<text text-anchor="middle" x="1387" y="-175.5" font-family="FreeSans" font-size="10.00" fill="#000000">sdk_precomp.h</text>
</a>
</g>
</g>
<!-- Node0&#45;&gt;Node1 -->
<g id="edge1" class="edge">
<title>Node0&#45;&gt;Node1</title>
<path fill="none" stroke="#191970" d="M1443.9811,-224.2455C1433.7902,-215.9746 1418.9638,-203.9416 1406.9893,-194.2232"/>
<polygon fill="#191970" stroke="#191970" points="1408.8514,-191.2268 1398.8812,-187.6427 1404.4402,-196.662 1408.8514,-191.2268"/>
</g>
<!-- Node6 -->
<g id="node7" class="node">
<title>Node6</title>
<polygon fill="none" stroke="#bfbfbf" points="0,-56.5 0,-75.5 60,-75.5 60,-56.5 0,-56.5"/>
<text text-anchor="middle" x="30" y="-63.5" font-family="FreeSans" font-size="10.00" fill="#000000">wx/arrstr.h</text>
</g>
<!-- Node0&#45;&gt;Node6 -->
<g id="edge38" class="edge">
<title>Node0&#45;&gt;Node6</title>
<path fill="none" stroke="#191970" d="M1421.4284,-231.8222C1265.3528,-221.6248 610.9461,-174.9482 70.0938,-75.9945"/>
<polygon fill="#191970" stroke="#191970" points="70.6107,-72.531 60.1427,-74.1656 69.3452,-79.4157 70.6107,-72.531"/>
</g>
<!-- Node72 -->
<g id="node30" class="node">
<title>Node72</title>
<g id="a_node30"><a xlink:href="globals_8h" target="_top" xlink:title="globals.h">
<polygon fill="none" stroke="#ff0000" points="1792,-56.5 1792,-75.5 1846,-75.5 1846,-56.5 1792,-56.5"/>
<text text-anchor="middle" x="1819" y="-63.5" font-family="FreeSans" font-size="10.00" fill="#000000">globals.h</text>
</a>
</g>
</g>
<!-- Node0&#45;&gt;Node72 -->
<g id="edge42" class="edge">
<title>Node0&#45;&gt;Node72</title>
<path fill="none" stroke="#191970" d="M1456.1749,-224.4963C1456.9604,-210.2433 1460.5518,-183.3683 1476,-168 1519.7843,-124.4423 1702.4524,-87.0176 1781.865,-72.4731"/>
<polygon fill="#191970" stroke="#191970" points="1782.6983,-75.8792 1791.915,-70.6539 1781.4515,-68.9912 1782.6983,-75.8792"/>
</g>
<!-- Node89 -->
<g id="node31" class="node">
<title>Node89</title>
<polygon fill="none" stroke="#bfbfbf" points="1484.5,-168.5 1484.5,-187.5 1519.5,-187.5 1519.5,-168.5 1484.5,-168.5"/>
<text text-anchor="middle" x="1502" y="-175.5" font-family="FreeSans" font-size="10.00" fill="#000000">map</text>
</g>
<!-- Node0&#45;&gt;Node89 -->
<g id="edge37" class="edge">
<title>Node0&#45;&gt;Node89</title>
<path fill="none" stroke="#191970" d="M1464.0126,-224.2455C1470.4768,-216.3761 1479.7385,-205.101 1487.4983,-195.6542"/>
<polygon fill="#191970" stroke="#191970" points="1490.4364,-197.5916 1494.0792,-187.6427 1485.0273,-193.1484 1490.4364,-197.5916"/>
</g>
<!-- Node137 -->
<g id="node32" class="node">
<title>Node137</title>
<g id="a_node32"><a xlink:href="filefilters_8h" target="_top" xlink:title="filefilters.h">
<polygon fill="none" stroke="#000000" points="1978.5,-56.5 1978.5,-75.5 2037.5,-75.5 2037.5,-56.5 1978.5,-56.5"/>
<text text-anchor="middle" x="2008" y="-63.5" font-family="FreeSans" font-size="10.00" fill="#000000">filefilters.h</text>
</a>
</g>
</g>
<!-- Node0&#45;&gt;Node137 -->
<g id="edge39" class="edge">
<title>Node0&#45;&gt;Node137</title>
<path fill="none" stroke="#191970" d="M1487.2595,-224.4862C1581.7279,-195.735 1864.16,-109.7774 1968.6037,-77.9902"/>
<polygon fill="#191970" stroke="#191970" points="1969.8843,-81.259 1978.4319,-74.999 1967.8461,-74.5623 1969.8843,-81.259"/>
</g>
<!-- Node2 -->
<g id="node3" class="node">
<title>Node2</title>
<g id="a_node3"><a xlink:href="sdk__common_8h" target="_top" xlink:title="sdk_common.h">
<polygon fill="none" stroke="#ff0000" points="1177,-112.5 1177,-131.5 1259,-131.5 1259,-112.5 1177,-112.5"/>
<text text-anchor="middle" x="1218" y="-119.5" font-family="FreeSans" font-size="10.00" fill="#000000">sdk_common.h</text>
</a>
</g>
</g>
<!-- Node1&#45;&gt;Node2 -->
<g id="edge2" class="edge">
<title>Node1&#45;&gt;Node2</title>
<path fill="none" stroke="#191970" d="M1357.9479,-168.3733C1329.8457,-159.0613 1287.0946,-144.8953 1256.2393,-134.671"/>
<polygon fill="#191970" stroke="#191970" points="1257.2664,-131.3243 1246.673,-131.5011 1255.0645,-137.969 1257.2664,-131.3243"/>
</g>
<!-- Node3 -->
<g id="node4" class="node">
<title>Node3</title>
<polygon fill="none" stroke="#bfbfbf" points="78,-56.5 78,-75.5 146,-75.5 146,-56.5 78,-56.5"/>
<text text-anchor="middle" x="112" y="-63.5" font-family="FreeSans" font-size="10.00" fill="#000000">wx/wxprec.h</text>
</g>
<!-- Node2&#45;&gt;Node3 -->
<g id="edge3" class="edge">
<title>Node2&#45;&gt;Node3</title>
<path fill="none" stroke="#191970" d="M1176.9063,-121.2399C1009.4627,-117.988 377.4589,-104.1696 156.0747,-75.8617"/>
<polygon fill="#191970" stroke="#191970" points="156.5348,-72.3921 146.1612,-74.5462 155.6139,-79.3313 156.5348,-72.3921"/>
</g>
<!-- Node4 -->
<g id="node5" class="node">
<title>Node4</title>
<g id="a_node5"><a xlink:href="prep_8h" target="_top" xlink:title="prep.h">
<polygon fill="none" stroke="#000000" points="164.5,-56.5 164.5,-75.5 207.5,-75.5 207.5,-56.5 164.5,-56.5"/>
<text text-anchor="middle" x="186" y="-63.5" font-family="FreeSans" font-size="10.00" fill="#000000">prep.h</text>
</a>
</g>
</g>
<!-- Node2&#45;&gt;Node4 -->
<g id="edge4" class="edge">
<title>Node2&#45;&gt;Node4</title>
<path fill="none" stroke="#191970" d="M1176.7587,-121.5648C1015.3044,-119.6391 425.2836,-110.4674 217.7178,-75.5726"/>
<polygon fill="#191970" stroke="#191970" points="218.2856,-72.1189 207.8311,-73.8374 217.0755,-79.0135 218.2856,-72.1189"/>
</g>
<!-- Node5 -->
<g id="node6" class="node">
<title>Node5</title>
<polygon fill="none" stroke="#bfbfbf" points="226,-56.5 226,-75.5 280,-75.5 280,-56.5 226,-56.5"/>
<text text-anchor="middle" x="253" y="-63.5" font-family="FreeSans" font-size="10.00" fill="#000000">wx/app.h</text>
</g>
<!-- Node2&#45;&gt;Node5 -->
<g id="edge5" class="edge">
<title>Node2&#45;&gt;Node5</title>
<path fill="none" stroke="#191970" d="M1176.8665,-121.1742C1023.3418,-117.9074 483.2105,-104.7154 290.3907,-75.8435"/>
<polygon fill="#191970" stroke="#191970" points="290.7989,-72.3648 280.3783,-74.2786 289.7179,-79.2809 290.7989,-72.3648"/>
</g>
<!-- Node2&#45;&gt;Node6 -->
<g id="edge6" class="edge">
<title>Node2&#45;&gt;Node6</title>
<path fill="none" stroke="#191970" d="M1176.924,-121.5167C1000.9698,-119.2706 309.3434,-108.6019 70.1308,-75.815"/>
<polygon fill="#191970" stroke="#191970" points="70.4992,-72.3323 60.1058,-74.3885 69.513,-79.2624 70.4992,-72.3323"/>
</g>
<!-- Node7 -->
<g id="node8" class="node">
<title>Node7</title>
<polygon fill="none" stroke="#bfbfbf" points="298.5,-56.5 298.5,-75.5 377.5,-75.5 377.5,-56.5 298.5,-56.5"/>
<text text-anchor="middle" x="338" y="-63.5" font-family="FreeSans" font-size="10.00" fill="#000000">wx/bmpbuttn.h</text>
</g>
<!-- Node2&#45;&gt;Node7 -->
<g id="edge7" class="edge">
<title>Node2&#45;&gt;Node7</title>
<path fill="none" stroke="#191970" d="M1176.7906,-120.5426C1034.0713,-115.3696 560.6244,-97.1283 387.7051,-76.022"/>
<polygon fill="#191970" stroke="#191970" points="388.095,-72.5435 377.734,-74.7573 387.2141,-79.4878 388.095,-72.5435"/>
</g>
<!-- Node8 -->
<g id="node9" class="node">
<title>Node8</title>
<polygon fill="none" stroke="#bfbfbf" points="395.5,-56.5 395.5,-75.5 460.5,-75.5 460.5,-56.5 395.5,-56.5"/>
<text text-anchor="middle" x="428" y="-63.5" font-family="FreeSans" font-size="10.00" fill="#000000">wx/button.h</text>
</g>
<!-- Node2&#45;&gt;Node8 -->
<g id="edge8" class="edge">
<title>Node2&#45;&gt;Node8</title>
<path fill="none" stroke="#191970" d="M1176.7592,-120.402C1043.9495,-115.1119 627.4718,-97.3648 471.2596,-75.8885"/>
<polygon fill="#191970" stroke="#191970" points="471.3065,-72.3594 460.9105,-74.4023 470.3114,-79.2883 471.3065,-72.3594"/>
</g>
<!-- Node9 -->
<g id="node10" class="node">
<title>Node9</title>
<polygon fill="none" stroke="#bfbfbf" points="479,-56.5 479,-75.5 559,-75.5 559,-56.5 479,-56.5"/>
<text text-anchor="middle" x="519" y="-63.5" font-family="FreeSans" font-size="10.00" fill="#000000">wx/checkbox.h</text>
</g>
<!-- Node2&#45;&gt;Node9 -->
<g id="edge9" class="edge">
<title>Node2&#45;&gt;Node9</title>
<path fill="none" stroke="#191970" d="M1176.7412,-120.9498C1075.1067,-117.9634 804.4632,-107.586 569.1554,-75.9895"/>
<polygon fill="#191970" stroke="#191970" points="569.4185,-72.4932 559.0383,-74.6148 568.476,-79.4295 569.4185,-72.4932"/>
</g>
<!-- Node10 -->
<g id="node11" class="node">
<title>Node10</title>
<polygon fill="none" stroke="#bfbfbf" points="577,-56.5 577,-75.5 651,-75.5 651,-56.5 577,-56.5"/>
<text text-anchor="middle" x="614" y="-63.5" font-family="FreeSans" font-size="10.00" fill="#000000">wx/checklst.h</text>
</g>
<!-- Node2&#45;&gt;Node10 -->
<g id="edge10" class="edge">
<title>Node2&#45;&gt;Node10</title>
<path fill="none" stroke="#191970" d="M1176.8331,-120.4647C1085.6558,-116.6655 859.7045,-105.0557 661.1133,-75.9873"/>
<polygon fill="#191970" stroke="#191970" points="661.4848,-72.5042 651.0797,-74.5001 660.4584,-79.4285 661.4848,-72.5042"/>
</g>
<!-- Node11 -->
<g id="node12" class="node">
<title>Node11</title>
<polygon fill="none" stroke="#bfbfbf" points="669.5,-56.5 669.5,-75.5 736.5,-75.5 736.5,-56.5 669.5,-56.5"/>
<text text-anchor="middle" x="703" y="-63.5" font-family="FreeSans" font-size="10.00" fill="#000000">wx/choice.h</text>
</g>
<!-- Node2&#45;&gt;Node11 -->
<g id="edge11" class="edge">
<title>Node2&#45;&gt;Node11</title>
<path fill="none" stroke="#191970" d="M1176.7262,-119.8057C1096.071,-115.1238 911.7814,-102.4915 747.0384,-75.9668"/>
<polygon fill="#191970" stroke="#191970" points="747.1507,-72.4389 736.7175,-74.2824 746.0232,-79.3475 747.1507,-72.4389"/>
</g>
<!-- Node12 -->
<g id="node13" class="node">
<title>Node12</title>
<polygon fill="none" stroke="#bfbfbf" points="755,-56.5 755,-75.5 829,-75.5 829,-56.5 755,-56.5"/>
<text text-anchor="middle" x="792" y="-63.5" font-family="FreeSans" font-size="10.00" fill="#000000">wx/choicdlg.h</text>
</g>
<!-- Node2&#45;&gt;Node12 -->
<g id="edge12" class="edge">
<title>Node2&#45;&gt;Node12</title>
<path fill="none" stroke="#191970" d="M1176.7689,-118.2851C1108.592,-111.8647 967.9135,-97.4456 839.1381,-76.0625"/>
<polygon fill="#191970" stroke="#191970" points="839.5408,-72.5812 829.0993,-74.3771 838.3817,-79.4846 839.5408,-72.5812"/>
</g>
<!-- Node13 -->
<g id="node14" class="node">
<title>Node13</title>
<polygon fill="none" stroke="#bfbfbf" points="847,-56.5 847,-75.5 919,-75.5 919,-56.5 847,-56.5"/>
<text text-anchor="middle" x="883" y="-63.5" font-family="FreeSans" font-size="10.00" fill="#000000">wx/colordlg.h</text>
</g>
<!-- Node2&#45;&gt;Node13 -->
<g id="edge13" class="edge">
<title>Node2&#45;&gt;Node13</title>
<path fill="none" stroke="#191970" d="M1176.561,-116.2433C1122.0846,-108.4958 1023.1933,-93.8148 929.2615,-76.1553"/>
<polygon fill="#191970" stroke="#191970" points="929.7866,-72.6926 919.3098,-74.2694 928.4832,-79.5702 929.7866,-72.6926"/>
</g>
<!-- Node14 -->
<g id="node15" class="node">
<title>Node14</title>
<polygon fill="none" stroke="#bfbfbf" points="937.5,-56.5 937.5,-75.5 1020.5,-75.5 1020.5,-56.5 937.5,-56.5"/>
<text text-anchor="middle" x="979" y="-63.5" font-family="FreeSans" font-size="10.00" fill="#000000">wx/combobox.h</text>
</g>
<!-- Node2&#45;&gt;Node14 -->
<g id="edge14" class="edge">
<title>Node2&#45;&gt;Node14</title>
<path fill="none" stroke="#191970" d="M1177.186,-112.4369C1136.3689,-102.8731 1073.5041,-88.1432 1029.5528,-77.845"/>
<polygon fill="#191970" stroke="#191970" points="1030.1805,-74.3973 1019.6457,-75.5237 1028.5835,-81.2128 1030.1805,-74.3973"/>
</g>
<!-- Node15 -->
<g id="node16" class="node">
<title>Node15</title>
<polygon fill="none" stroke="#bfbfbf" points="1038.5,-56.5 1038.5,-75.5 1115.5,-75.5 1115.5,-56.5 1038.5,-56.5"/>
<text text-anchor="middle" x="1077" y="-63.5" font-family="FreeSans" font-size="10.00" fill="#000000">wx/confbase.h</text>
</g>
<!-- Node2&#45;&gt;Node15 -->
<g id="edge15" class="edge">
<title>Node2&#45;&gt;Node15</title>
<path fill="none" stroke="#191970" d="M1193.7612,-112.3733C1170.7211,-103.2226 1135.8786,-89.3844 1110.2499,-79.2057"/>
<polygon fill="#191970" stroke="#191970" points="1111.5082,-75.9395 1100.9225,-75.5011 1108.9244,-82.4452 1111.5082,-75.9395"/>
</g>
<!-- Node16 -->
<g id="node17" class="node">
<title>Node16</title>
<polygon fill="none" stroke="#bfbfbf" points="1134,-56.5 1134,-75.5 1210,-75.5 1210,-56.5 1134,-56.5"/>
<text text-anchor="middle" x="1172" y="-63.5" font-family="FreeSans" font-size="10.00" fill="#000000">wx/datetime.h</text>
</g>
<!-- Node2&#45;&gt;Node16 -->
<g id="edge16" class="edge">
<title>Node2&#45;&gt;Node16</title>
<path fill="none" stroke="#191970" d="M1209.9874,-112.2455C1203.5232,-104.3761 1194.2615,-93.101 1186.5017,-83.6542"/>
<polygon fill="#191970" stroke="#191970" points="1188.9727,-81.1484 1179.9208,-75.6427 1183.5636,-85.5916 1188.9727,-81.1484"/>
</g>
<!-- Node17 -->
<g id="node18" class="node">
<title>Node17</title>
<polygon fill="none" stroke="#bfbfbf" points="1228,-56.5 1228,-75.5 1300,-75.5 1300,-56.5 1228,-56.5"/>
<text text-anchor="middle" x="1264" y="-63.5" font-family="FreeSans" font-size="10.00" fill="#000000">wx/dcclient.h</text>
</g>
<!-- Node2&#45;&gt;Node17 -->
<g id="edge17" class="edge">
<title>Node2&#45;&gt;Node17</title>
<path fill="none" stroke="#191970" d="M1226.0126,-112.2455C1232.4768,-104.3761 1241.7385,-93.101 1249.4983,-83.6542"/>
<polygon fill="#191970" stroke="#191970" points="1252.4364,-85.5916 1256.0792,-75.6427 1247.0273,-81.1484 1252.4364,-85.5916"/>
</g>
<!-- Node18 -->
<g id="node19" class="node">
<title>Node18</title>
<polygon fill="none" stroke="#bfbfbf" points="1318,-56.5 1318,-75.5 1382,-75.5 1382,-56.5 1318,-56.5"/>
<text text-anchor="middle" x="1350" y="-63.5" font-family="FreeSans" font-size="10.00" fill="#000000">wx/dialog.h</text>
</g>
<!-- Node2&#45;&gt;Node18 -->
<g id="edge18" class="edge">
<title>Node2&#45;&gt;Node18</title>
<path fill="none" stroke="#191970" d="M1240.6916,-112.3733C1262.0711,-103.3032 1294.3057,-89.6279 1318.2362,-79.4755"/>
<polygon fill="#191970" stroke="#191970" points="1319.7656,-82.6287 1327.6045,-75.5011 1317.0317,-76.1846 1319.7656,-82.6287"/>
</g>
<!-- Node19 -->
<g id="node20" class="node">
<title>Node19</title>
<polygon fill="none" stroke="#bfbfbf" points="1400.5,-56.5 1400.5,-75.5 1449.5,-75.5 1449.5,-56.5 1400.5,-56.5"/>
<text text-anchor="middle" x="1425" y="-63.5" font-family="FreeSans" font-size="10.00" fill="#000000">wx/dir.h</text>
</g>
<!-- Node2&#45;&gt;Node19 -->
<g id="edge19" class="edge">
<title>Node2&#45;&gt;Node19</title>
<path fill="none" stroke="#191970" d="M1254.8614,-112.4971C1287.8825,-103.9179 1337.8744,-90.767 1390.3212,-76.1409"/>
<polygon fill="#191970" stroke="#191970" points="1391.4523,-79.4589 1400.1392,-73.3935 1389.5659,-72.7179 1391.4523,-79.4589"/>
</g>
<!-- Node20 -->
<g id="node21" class="node">
<title>Node20</title>
<polygon fill="none" stroke="#bfbfbf" points="1468,-56.5 1468,-75.5 1542,-75.5 1542,-56.5 1468,-56.5"/>
<text text-anchor="middle" x="1505" y="-63.5" font-family="FreeSans" font-size="10.00" fill="#000000">wx/dynarray.h</text>
</g>
<!-- Node2&#45;&gt;Node20 -->
<g id="edge20" class="edge">
<title>Node2&#45;&gt;Node20</title>
<path fill="none" stroke="#191970" d="M1259.2437,-114.3579C1307.0968,-105.4301 1388.3475,-90.0834 1458,-76 1458.0997,-75.9799 1458.1994,-75.9597 1458.2993,-75.9394"/>
<polygon fill="#191970" stroke="#191970" points="1458.7232,-79.4256 1467.8141,-73.9846 1457.3143,-72.5688 1458.7232,-79.4256"/>
</g>
<!-- Node21 -->
<g id="node22" class="node">
<title>Node21</title>
<polygon fill="none" stroke="#bfbfbf" points="1560,-56.5 1560,-75.5 1622,-75.5 1622,-56.5 1560,-56.5"/>
<text text-anchor="middle" x="1591" y="-63.5" font-family="FreeSans" font-size="10.00" fill="#000000">wx/event.h</text>
</g>
<!-- Node2&#45;&gt;Node21 -->
<g id="edge21" class="edge">
<title>Node2&#45;&gt;Node21</title>
<path fill="none" stroke="#191970" d="M1259.2465,-117.7491C1320.5518,-111.1152 1439.4846,-97.0342 1549.6769,-76.0967"/>
<polygon fill="#191970" stroke="#191970" points="1550.4697,-79.5084 1559.6284,-74.1822 1549.1472,-72.6345 1550.4697,-79.5084"/>
</g>
<!-- Node22 -->
<g id="node23" class="node">
<title>Node22</title>
<polygon fill="none" stroke="#bfbfbf" points="1531,-.5 1531,-19.5 1581,-19.5 1581,-.5 1531,-.5"/>
<text text-anchor="middle" x="1556" y="-7.5" font-family="FreeSans" font-size="10.00" fill="#000000">wx/file.h</text>
</g>
<!-- Node2&#45;&gt;Node22 -->
<g id="edge22" class="edge">
<title>Node2&#45;&gt;Node22</title>
<path fill="none" stroke="#191970" d="M1259.1613,-120.4711C1358.7736,-116.3496 1606.465,-103.4194 1631,-76 1648.795,-56.1129 1618.1087,-36.2903 1590.789,-23.6382"/>
<polygon fill="#191970" stroke="#191970" points="1591.913,-20.3087 1581.3511,-19.4737 1589.0871,-26.7129 1591.913,-20.3087"/>
</g>
<!-- Node24 -->
<g id="node24" class="node">
<title>Node24</title>
<polygon fill="none" stroke="#bfbfbf" points="1599,-.5 1599,-19.5 1673,-19.5 1673,-.5 1599,-.5"/>
<text text-anchor="middle" x="1636" y="-7.5" font-family="FreeSans" font-size="10.00" fill="#000000">wx/filename.h</text>
</g>
<!-- Node2&#45;&gt;Node24 -->
<g id="edge23" class="edge">
<title>Node2&#45;&gt;Node24</title>
<path fill="none" stroke="#191970" d="M1259.2398,-120.6504C1361.6806,-116.8752 1621.3424,-104.5558 1647,-76 1658.3546,-63.3628 1653.1456,-43.6241 1646.5924,-29.0223"/>
<polygon fill="#191970" stroke="#191970" points="1649.6277,-27.2664 1642.0278,-19.8845 1643.3655,-30.3946 1649.6277,-27.2664"/>
</g>
<!-- Node31 -->
<g id="node25" class="node">
<title>Node31</title>
<polygon fill="none" stroke="#bfbfbf" points="1691.5,-.5 1691.5,-19.5 1742.5,-19.5 1742.5,-.5 1691.5,-.5"/>
<text text-anchor="middle" x="1717" y="-7.5" font-family="FreeSans" font-size="10.00" fill="#000000">wx/intl.h</text>
</g>
<!-- Node2&#45;&gt;Node31 -->
<g id="edge24" class="edge">
<title>Node2&#45;&gt;Node31</title>
<path fill="none" stroke="#191970" d="M1259.1188,-119.5682C1362.7478,-113.1849 1628.8758,-95.1198 1664,-76 1683.4817,-65.3952 1698.4149,-44.3521 1707.3908,-28.8661"/>
<polygon fill="#191970" stroke="#191970" points="1710.698,-30.1121 1712.4169,-19.6576 1704.5537,-26.7584 1710.698,-30.1121"/>
</g>
<!-- Node38 -->
<g id="node26" class="node">
<title>Node38</title>
<polygon fill="none" stroke="#bfbfbf" points="1760.5,-.5 1760.5,-19.5 1829.5,-19.5 1829.5,-.5 1760.5,-.5"/>
<text text-anchor="middle" x="1795" y="-7.5" font-family="FreeSans" font-size="10.00" fill="#000000">wx/msgdlg.h</text>
</g>
<!-- Node2&#45;&gt;Node38 -->
<g id="edge25" class="edge">
<title>Node2&#45;&gt;Node38</title>
<path fill="none" stroke="#191970" d="M1259.3136,-120.3788C1358.905,-116.0851 1609.8356,-102.8621 1689,-76 1721.9039,-64.8351 1755.1575,-41.7789 1775.4247,-26.0983"/>
<polygon fill="#191970" stroke="#191970" points="1777.8585,-28.6355 1783.5259,-19.6839 1773.5132,-23.1475 1777.8585,-28.6355"/>
</g>
<!-- Node53 -->
<g id="node27" class="node">
<title>Node53</title>
<polygon fill="none" stroke="#bfbfbf" points="1934,-.5 1934,-19.5 1996,-19.5 1996,-.5 1934,-.5"/>
<text text-anchor="middle" x="1965" y="-7.5" font-family="FreeSans" font-size="10.00" fill="#000000">wx/string.h</text>
</g>
<!-- Node2&#45;&gt;Node53 -->
<g id="edge26" class="edge">
<title>Node2&#45;&gt;Node53</title>
<path fill="none" stroke="#191970" d="M1259.2549,-120.4617C1394.3818,-115.2372 1818.3307,-97.3088 1876,-76 1904.5321,-65.4574 1931.7726,-42.7581 1948.4314,-26.9421"/>
<polygon fill="#191970" stroke="#191970" points="1951.0172,-29.3088 1955.7187,-19.8143 1946.1224,-24.3046 1951.0172,-29.3088"/>
</g>
<!-- Node59 -->
<g id="node28" class="node">
<title>Node59</title>
<polygon fill="none" stroke="#bfbfbf" points="1848,-.5 1848,-19.5 1916,-19.5 1916,-.5 1848,-.5"/>
<text text-anchor="middle" x="1882" y="-7.5" font-family="FreeSans" font-size="10.00" fill="#000000">wx/treectrl.h</text>
</g>
<!-- Node2&#45;&gt;Node59 -->
<g id="edge27" class="edge">
<title>Node2&#45;&gt;Node59</title>
<path fill="none" stroke="#191970" d="M1259.4642,-121.5101C1393.1459,-119.5894 1806.917,-110.8583 1855,-76 1869.8406,-65.2411 1876.5463,-44.8497 1879.5627,-29.5671"/>
<polygon fill="#191970" stroke="#191970" points="1883.041,-29.9811 1881.1707,-19.5526 1876.1295,-28.8713 1883.041,-29.9811"/>
</g>
<!-- Node71 -->
<g id="node29" class="node">
<title>Node71</title>
<g id="a_node29"><a xlink:href="settings_8h" target="_top" xlink:title="settings.h">
<polygon fill="none" stroke="#000000" points="2014.5,-.5 2014.5,-19.5 2071.5,-19.5 2071.5,-.5 2014.5,-.5"/>
<text text-anchor="middle" x="2043" y="-7.5" font-family="FreeSans" font-size="10.00" fill="#000000">settings.h</text>
</a>
</g>
</g>
<!-- Node2&#45;&gt;Node71 -->
<g id="edge28" class="edge">
<title>Node2&#45;&gt;Node71</title>
<path fill="none" stroke="#191970" d="M1259.3415,-121.3128C1388.5636,-118.8397 1783.5895,-108.7293 1907,-76 1948.7971,-64.9151 1993.1285,-40.7591 2019.4178,-24.9494"/>
<polygon fill="#191970" stroke="#191970" points="2021.5484,-27.7489 2028.249,-19.542 2017.893,-21.7791 2021.5484,-27.7489"/>
</g>
<!-- Node2&#45;&gt;Node72 -->
<g id="edge29" class="edge">
<title>Node2&#45;&gt;Node72</title>
<path fill="none" stroke="#191970" d="M1259.02,-120.838C1351.9455,-117.7251 1585.4111,-107.1975 1778,-76 1779.2612,-75.7957 1780.5407,-75.5728 1781.8304,-75.3349"/>
<polygon fill="#191970" stroke="#191970" points="1782.6939,-78.7304 1791.7751,-73.273 1781.2728,-71.8761 1782.6939,-78.7304"/>
</g>
<!-- Node72&#45;&gt;Node22 -->
<g id="edge32" class="edge">
<title>Node72&#45;&gt;Node22</title>
<path fill="none" stroke="#191970" d="M1791.6848,-61.3147C1750.3452,-54.0515 1669.25,-39.1328 1591.181,-20.1344"/>
<polygon fill="#191970" stroke="#191970" points="1591.7306,-16.6653 1581.1839,-17.6747 1590.0581,-23.4626 1591.7306,-16.6653"/>
</g>
<!-- Node72&#45;&gt;Node24 -->
<g id="edge33" class="edge">
<title>Node72&#45;&gt;Node24</title>
<path fill="none" stroke="#191970" d="M1791.9977,-57.737C1761.6834,-48.4605 1712.152,-33.3033 1677.042,-22.5593"/>
<polygon fill="#191970" stroke="#191970" points="1677.685,-19.0959 1667.0985,-19.5165 1675.6366,-25.7895 1677.685,-19.0959"/>
</g>
<!-- Node72&#45;&gt;Node31 -->
<g id="edge34" class="edge">
<title>Node72&#45;&gt;Node31</title>
<path fill="none" stroke="#191970" d="M1801.233,-56.2455C1785.2905,-47.4928 1761.6741,-34.527 1743.5011,-24.5496"/>
<polygon fill="#191970" stroke="#191970" points="1745.0137,-21.3873 1734.5634,-19.6427 1741.6448,-27.5233 1745.0137,-21.3873"/>
</g>
<!-- Node72&#45;&gt;Node38 -->
<g id="edge35" class="edge">
<title>Node72&#45;&gt;Node38</title>
<path fill="none" stroke="#191970" d="M1814.8195,-56.2455C1811.619,-48.7776 1807.104,-38.2427 1803.1916,-29.1137"/>
<polygon fill="#191970" stroke="#191970" points="1806.2888,-27.4554 1799.1326,-19.6427 1799.8548,-30.2129 1806.2888,-27.4554"/>
</g>
<!-- Node72&#45;&gt;Node53 -->
<g id="edge30" class="edge">
<title>Node72&#45;&gt;Node53</title>
<path fill="none" stroke="#191970" d="M1844.0983,-56.3733C1867.9555,-47.2226 1904.0335,-33.3844 1930.571,-23.2057"/>
<polygon fill="#191970" stroke="#191970" points="1932.1459,-26.3503 1940.2292,-19.5011 1929.639,-19.8145 1932.1459,-26.3503"/>
</g>
<!-- Node72&#45;&gt;Node59 -->
<g id="edge31" class="edge">
<title>Node72&#45;&gt;Node59</title>
<path fill="none" stroke="#191970" d="M1829.9738,-56.2455C1839.1882,-48.0549 1852.5532,-36.1749 1863.4297,-26.5069"/>
<polygon fill="#191970" stroke="#191970" points="1866.0032,-28.9023 1871.152,-19.6427 1861.3526,-23.6704 1866.0032,-28.9023"/>
</g>
<!-- Node72&#45;&gt;Node71 -->
<g id="edge36" class="edge">
<title>Node72&#45;&gt;Node71</title>
<path fill="none" stroke="#191970" d="M1846.1388,-59.4222C1880.5476,-51.0533 1941.9482,-36.0229 2004.3571,-20.1369"/>
<polygon fill="#191970" stroke="#191970" points="2005.5533,-23.4439 2014.378,-17.5808 2003.8232,-16.6611 2005.5533,-23.4439"/>
</g>
<!-- Node137&#45;&gt;Node53 -->
<g id="edge40" class="edge">
<title>Node137&#45;&gt;Node53</title>
<path fill="none" stroke="#191970" d="M2000.51,-56.2455C1994.4674,-48.3761 1985.8097,-37.101 1978.5559,-27.6542"/>
<polygon fill="#191970" stroke="#191970" points="1981.2705,-25.4426 1972.4042,-19.6427 1975.7185,-29.7058 1981.2705,-25.4426"/>
</g>
<!-- Node137&#45;&gt;Node71 -->
<g id="edge41" class="edge">
<title>Node137&#45;&gt;Node71</title>
<path fill="none" stroke="#191970" d="M2014.0965,-56.2455C2018.9145,-48.5367 2025.7751,-37.5598 2031.6032,-28.2348"/>
<polygon fill="#191970" stroke="#191970" points="2034.6413,-29.9777 2036.9733,-19.6427 2028.7053,-26.2677 2034.6413,-29.9777"/>
</g>
</g>
</svg>
