<?xml version="1.0" encoding="UTF-8" standalone="no"?>
<!DOCTYPE svg PUBLIC "-//W3C//DTD SVG 1.1//EN"
 "http://www.w3.org/Graphics/SVG/1.1/DTD/svg11.dtd">
<!-- Generated by graphviz version 2.40.1 (20161225.0304)
 -->
<!-- Title: find_replace.cpp Pages: 1 -->
<svg width="1752pt" height="252pt"
 viewBox="0.00 0.00 1752.47 252.00" xmlns="http://www.w3.org/2000/svg" xmlns:xlink="http://www.w3.org/1999/xlink">
<g id="graph0" class="graph" transform="scale(1 1) rotate(0) translate(4 248)">
<title>find_replace.cpp</title>
<!-- Node0 -->
<g id="node1" class="node">
<title>Node0</title>
<polygon fill="#bfbfbf" stroke="#000000" points="1034,-224.5 1034,-243.5 1120,-243.5 1120,-224.5 1034,-224.5"/>
<text text-anchor="middle" x="1077" y="-231.5" font-family="FreeSans" font-size="10.00" fill="#000000">find_replace.cpp</text>
</g>
<!-- Node1 -->
<g id="node2" class="node">
<title>Node1</title>
<g id="a_node2"><a xlink:href="sdk_8h" target="_top" xlink:title="sdk.h">
<polygon fill="none" stroke="#000000" points="617.5,-168.5 617.5,-187.5 656.5,-187.5 656.5,-168.5 617.5,-168.5"/>
<text text-anchor="middle" x="637" y="-175.5" font-family="FreeSans" font-size="10.00" fill="#000000">sdk.h</text>
</a>
</g>
</g>
<!-- Node0&#45;&gt;Node1 -->
<g id="edge1" class="edge">
<title>Node0&#45;&gt;Node1</title>
<path fill="none" stroke="#191970" d="M1033.6069,-228.4772C944.5432,-217.1419 743.0838,-191.5016 666.9217,-181.8082"/>
<polygon fill="#191970" stroke="#191970" points="666.984,-178.288 656.6221,-180.4974 666.1002,-185.232 666.984,-178.288"/>
</g>
<!-- Node137 -->
<g id="node17" class="node">
<title>Node137</title>
<g id="a_node17"><a xlink:href="find__replace_8h" target="_top" xlink:title="find_replace.h">
<polygon fill="none" stroke="#000000" points="1255,-168.5 1255,-187.5 1331,-187.5 1331,-168.5 1255,-168.5"/>
<text text-anchor="middle" x="1293" y="-175.5" font-family="FreeSans" font-size="10.00" fill="#000000">find_replace.h</text>
</a>
</g>
</g>
<!-- Node0&#45;&gt;Node137 -->
<g id="edge18" class="edge">
<title>Node0&#45;&gt;Node137</title>
<path fill="none" stroke="#191970" d="M1114.1317,-224.3733C1150.8267,-214.8598 1207.0639,-200.2797 1246.6651,-190.0127"/>
<polygon fill="#191970" stroke="#191970" points="1247.5512,-193.3988 1256.3528,-187.5011 1245.7944,-186.6228 1247.5512,-193.3988"/>
</g>
<!-- Node138 -->
<g id="node18" class="node">
<title>Node138</title>
<polygon fill="none" stroke="#bfbfbf" points="1349,-168.5 1349,-187.5 1419,-187.5 1419,-168.5 1349,-168.5"/>
<text text-anchor="middle" x="1384" y="-175.5" font-family="FreeSans" font-size="10.00" fill="#000000">wx/progdlg.h</text>
</g>
<!-- Node0&#45;&gt;Node138 -->
<g id="edge19" class="edge">
<title>Node0&#45;&gt;Node138</title>
<path fill="none" stroke="#191970" d="M1120.4058,-227.0954C1170.6598,-218.9491 1256.147,-204.6234 1339.1273,-188.1011"/>
<polygon fill="#191970" stroke="#191970" points="1339.8525,-191.5255 1348.9697,-186.1285 1338.4768,-184.662 1339.8525,-191.5255"/>
</g>
<!-- Node139 -->
<g id="node19" class="node">
<title>Node139</title>
<g id="a_node19"><a xlink:href="annoyingdialog_8h" target="_top" xlink:title="annoyingdialog.h">
<polygon fill="none" stroke="#000000" points="929,-112.5 929,-131.5 1017,-131.5 1017,-112.5 929,-112.5"/>
<text text-anchor="middle" x="973" y="-119.5" font-family="FreeSans" font-size="10.00" fill="#000000">annoyingdialog.h</text>
</a>
</g>
</g>
<!-- Node0&#45;&gt;Node139 -->
<g id="edge20" class="edge">
<title>Node0&#45;&gt;Node139</title>
<path fill="none" stroke="#191970" d="M1068.133,-224.4509C1050.5568,-205.5227 1011.0845,-163.014 988.9045,-139.1279"/>
<polygon fill="#191970" stroke="#191970" points="991.2139,-136.4713 981.8445,-131.5249 986.0843,-141.2344 991.2139,-136.4713"/>
</g>
<!-- Node141 -->
<g id="node21" class="node">
<title>Node141</title>
<g id="a_node21"><a xlink:href="cbstyledtextctrl_8h" target="_top" xlink:title="cbstyledtextctrl.h">
<polygon fill="none" stroke="#000000" points="1478.5,-112.5 1478.5,-131.5 1567.5,-131.5 1567.5,-112.5 1478.5,-112.5"/>
<text text-anchor="middle" x="1523" y="-119.5" font-family="FreeSans" font-size="10.00" fill="#000000">cbstyledtextctrl.h</text>
</a>
</g>
</g>
<!-- Node0&#45;&gt;Node141 -->
<g id="edge25" class="edge">
<title>Node0&#45;&gt;Node141</title>
<path fill="none" stroke="#191970" d="M1082.2872,-224.3733C1091.0619,-209.441 1110.1552,-181.0584 1135,-168 1191.6449,-138.2276 1375.5537,-127.3538 1468.3651,-123.6936"/>
<polygon fill="#191970" stroke="#191970" points="1468.5476,-127.1893 1478.4073,-123.3118 1468.2815,-120.1943 1468.5476,-127.1893"/>
</g>
<!-- Node143 -->
<g id="node25" class="node">
<title>Node143</title>
<g id="a_node25"><a xlink:href="confirmreplacedlg_8h" target="_top" xlink:title="confirmreplacedlg.h">
<polygon fill="none" stroke="#000000" points="686,-112.5 686,-131.5 786,-131.5 786,-112.5 686,-112.5"/>
<text text-anchor="middle" x="736" y="-119.5" font-family="FreeSans" font-size="10.00" fill="#000000">confirmreplacedlg.h</text>
</a>
</g>
</g>
<!-- Node0&#45;&gt;Node143 -->
<g id="edge31" class="edge">
<title>Node0&#45;&gt;Node143</title>
<path fill="none" stroke="#191970" d="M1033.9953,-229.8988C967.5594,-223.0404 843.5037,-208.0021 804,-188 781.6693,-176.6932 761.8638,-155.515 749.4691,-140.192"/>
<polygon fill="#191970" stroke="#191970" points="751.9694,-137.7061 743.0646,-131.9655 746.446,-142.0063 751.9694,-137.7061"/>
</g>
<!-- Node144 -->
<g id="node26" class="node">
<title>Node144</title>
<g id="a_node26"><a xlink:href="encodingdetector_8h" target="_top" xlink:title="encodingdetector.h">
<polygon fill="none" stroke="#000000" points="1051,-112.5 1051,-131.5 1149,-131.5 1149,-112.5 1051,-112.5"/>
<text text-anchor="middle" x="1100" y="-119.5" font-family="FreeSans" font-size="10.00" fill="#000000">encodingdetector.h</text>
</a>
</g>
</g>
<!-- Node0&#45;&gt;Node144 -->
<g id="edge35" class="edge">
<title>Node0&#45;&gt;Node144</title>
<path fill="none" stroke="#191970" d="M1078.961,-224.4509C1082.7292,-206.1013 1091.0483,-165.5908 1096.0224,-141.3693"/>
<polygon fill="#191970" stroke="#191970" points="1099.4608,-142.0246 1098.044,-131.5249 1092.6039,-140.6164 1099.4608,-142.0246"/>
</g>
<!-- Node146 -->
<g id="node29" class="node">
<title>Node146</title>
<g id="a_node29"><a xlink:href="findreplacedlg_8h" target="_top" xlink:title="findreplacedlg.h">
<polygon fill="none" stroke="#000000" points="813.5,-168.5 813.5,-187.5 896.5,-187.5 896.5,-168.5 813.5,-168.5"/>
<text text-anchor="middle" x="855" y="-175.5" font-family="FreeSans" font-size="10.00" fill="#000000">findreplacedlg.h</text>
</a>
</g>
</g>
<!-- Node0&#45;&gt;Node146 -->
<g id="edge40" class="edge">
<title>Node0&#45;&gt;Node146</title>
<path fill="none" stroke="#191970" d="M1039.0891,-224.4369C1001.335,-214.9133 943.2735,-200.2672 902.4736,-189.9753"/>
<polygon fill="#191970" stroke="#191970" points="903.3069,-186.576 892.7546,-187.5237 901.5947,-193.3633 903.3069,-186.576"/>
</g>
<!-- Node148 -->
<g id="node31" class="node">
<title>Node148</title>
<g id="a_node31"><a xlink:href="searchresultslog_8h" target="_top" xlink:title="searchresultslog.h">
<polygon fill="none" stroke="#000000" points="1143.5,-168.5 1143.5,-187.5 1236.5,-187.5 1236.5,-168.5 1143.5,-168.5"/>
<text text-anchor="middle" x="1190" y="-175.5" font-family="FreeSans" font-size="10.00" fill="#000000">searchresultslog.h</text>
</a>
</g>
</g>
<!-- Node0&#45;&gt;Node148 -->
<g id="edge45" class="edge">
<title>Node0&#45;&gt;Node148</title>
<path fill="none" stroke="#191970" d="M1096.4254,-224.3733C1114.4021,-215.4644 1141.3441,-202.1127 1161.709,-192.0203"/>
<polygon fill="#191970" stroke="#191970" points="1163.4222,-195.0776 1170.8281,-187.5011 1160.3139,-188.8055 1163.4222,-195.0776"/>
</g>
<!-- Node2 -->
<g id="node3" class="node">
<title>Node2</title>
<g id="a_node3"><a xlink:href="sdk__common_8h" target="_top" xlink:title="sdk_common.h">
<polygon fill="none" stroke="#ff0000" points="467,-112.5 467,-131.5 549,-131.5 549,-112.5 467,-112.5"/>
<text text-anchor="middle" x="508" y="-119.5" font-family="FreeSans" font-size="10.00" fill="#000000">sdk_common.h</text>
</a>
</g>
</g>
<!-- Node1&#45;&gt;Node2 -->
<g id="edge2" class="edge">
<title>Node1&#45;&gt;Node2</title>
<path fill="none" stroke="#191970" d="M617.4077,-169.4948C596.6251,-160.4729 563.4939,-146.0904 539.1298,-135.5137"/>
<polygon fill="#191970" stroke="#191970" points="540.5069,-132.296 529.9402,-131.5244 537.7194,-138.7171 540.5069,-132.296"/>
</g>
<!-- Node3 -->
<g id="node4" class="node">
<title>Node3</title>
<polygon fill="none" stroke="#bfbfbf" points="259,-56.5 259,-75.5 327,-75.5 327,-56.5 259,-56.5"/>
<text text-anchor="middle" x="293" y="-63.5" font-family="FreeSans" font-size="10.00" fill="#000000">wx/wxprec.h</text>
</g>
<!-- Node2&#45;&gt;Node3 -->
<g id="edge3" class="edge">
<title>Node2&#45;&gt;Node3</title>
<path fill="none" stroke="#191970" d="M471.0402,-112.3733C433.9298,-102.7073 376.7393,-87.8112 337.2383,-77.5225"/>
<polygon fill="#191970" stroke="#191970" points="337.9091,-74.0805 327.3498,-74.9469 336.1447,-80.8545 337.9091,-74.0805"/>
</g>
<!-- Node4 -->
<g id="node5" class="node">
<title>Node4</title>
<g id="a_node5"><a xlink:href="prep_8h" target="_top" xlink:title="prep.h">
<polygon fill="none" stroke="#000000" points="345.5,-56.5 345.5,-75.5 388.5,-75.5 388.5,-56.5 345.5,-56.5"/>
<text text-anchor="middle" x="367" y="-63.5" font-family="FreeSans" font-size="10.00" fill="#000000">prep.h</text>
</a>
</g>
</g>
<!-- Node2&#45;&gt;Node4 -->
<g id="edge4" class="edge">
<title>Node2&#45;&gt;Node4</title>
<path fill="none" stroke="#191970" d="M483.7612,-112.3733C460.0229,-102.9453 423.7561,-88.5414 397.946,-78.2906"/>
<polygon fill="#191970" stroke="#191970" points="399.1998,-75.0227 388.614,-74.5843 396.6159,-81.5284 399.1998,-75.0227"/>
</g>
<!-- Node5 -->
<g id="node6" class="node">
<title>Node5</title>
<polygon fill="none" stroke="#bfbfbf" points="407,-56.5 407,-75.5 461,-75.5 461,-56.5 407,-56.5"/>
<text text-anchor="middle" x="434" y="-63.5" font-family="FreeSans" font-size="10.00" fill="#000000">wx/app.h</text>
</g>
<!-- Node2&#45;&gt;Node5 -->
<g id="edge5" class="edge">
<title>Node2&#45;&gt;Node5</title>
<path fill="none" stroke="#191970" d="M495.1102,-112.2455C484.0746,-103.8943 467.9708,-91.7076 455.0647,-81.9408"/>
<polygon fill="#191970" stroke="#191970" points="456.8283,-78.8862 446.7421,-75.6427 452.6041,-84.4681 456.8283,-78.8862"/>
</g>
<!-- Node6 -->
<g id="node7" class="node">
<title>Node6</title>
<polygon fill="none" stroke="#bfbfbf" points="0,-56.5 0,-75.5 60,-75.5 60,-56.5 0,-56.5"/>
<text text-anchor="middle" x="30" y="-63.5" font-family="FreeSans" font-size="10.00" fill="#000000">wx/arrstr.h</text>
</g>
<!-- Node2&#45;&gt;Node6 -->
<g id="edge6" class="edge">
<title>Node2&#45;&gt;Node6</title>
<path fill="none" stroke="#191970" d="M466.8646,-119.7079C390.4779,-115.0159 221.4721,-102.592 70.0828,-75.9672"/>
<polygon fill="#191970" stroke="#191970" points="70.597,-72.5038 60.1377,-74.1929 69.3675,-79.395 70.597,-72.5038"/>
</g>
<!-- Node7 -->
<g id="node8" class="node">
<title>Node7</title>
<polygon fill="none" stroke="#bfbfbf" points="78.5,-56.5 78.5,-75.5 157.5,-75.5 157.5,-56.5 78.5,-56.5"/>
<text text-anchor="middle" x="118" y="-63.5" font-family="FreeSans" font-size="10.00" fill="#000000">wx/bmpbuttn.h</text>
</g>
<!-- Node2&#45;&gt;Node7 -->
<g id="edge7" class="edge">
<title>Node2&#45;&gt;Node7</title>
<path fill="none" stroke="#191970" d="M466.7929,-117.4247C404.2159,-110.2652 281.28,-95.374 167.439,-76.1566"/>
<polygon fill="#191970" stroke="#191970" points="167.9557,-72.6943 157.51,-74.4653 166.7802,-79.5949 167.9557,-72.6943"/>
</g>
<!-- Node8 -->
<g id="node9" class="node">
<title>Node8</title>
<polygon fill="none" stroke="#bfbfbf" points="175.5,-56.5 175.5,-75.5 240.5,-75.5 240.5,-56.5 175.5,-56.5"/>
<text text-anchor="middle" x="208" y="-63.5" font-family="FreeSans" font-size="10.00" fill="#000000">wx/button.h</text>
</g>
<!-- Node2&#45;&gt;Node8 -->
<g id="edge8" class="edge">
<title>Node2&#45;&gt;Node8</title>
<path fill="none" stroke="#191970" d="M466.751,-115.3943C417.6418,-107.3643 332.9347,-92.9928 250.3192,-75.9709"/>
<polygon fill="#191970" stroke="#191970" points="251.0208,-72.542 240.5182,-73.9368 249.5982,-79.3959 251.0208,-72.542"/>
</g>
<!-- Node31 -->
<g id="node10" class="node">
<title>Node31</title>
<polygon fill="none" stroke="#bfbfbf" points="651.5,-56.5 651.5,-75.5 702.5,-75.5 702.5,-56.5 651.5,-56.5"/>
<text text-anchor="middle" x="677" y="-63.5" font-family="FreeSans" font-size="10.00" fill="#000000">wx/intl.h</text>
</g>
<!-- Node2&#45;&gt;Node31 -->
<g id="edge9" class="edge">
<title>Node2&#45;&gt;Node31</title>
<path fill="none" stroke="#191970" d="M537.0521,-112.3733C566.091,-102.7509 610.7717,-87.9455 641.8056,-77.6621"/>
<polygon fill="#191970" stroke="#191970" points="642.9733,-80.9623 651.3648,-74.4945 640.7715,-74.3176 642.9733,-80.9623"/>
</g>
<!-- Node39 -->
<g id="node11" class="node">
<title>Node39</title>
<polygon fill="none" stroke="#bfbfbf" points="555,-56.5 555,-75.5 633,-75.5 633,-56.5 555,-56.5"/>
<text text-anchor="middle" x="594" y="-63.5" font-family="FreeSans" font-size="10.00" fill="#000000">wx/notebook.h</text>
</g>
<!-- Node2&#45;&gt;Node39 -->
<g id="edge10" class="edge">
<title>Node2&#45;&gt;Node39</title>
<path fill="none" stroke="#191970" d="M522.9801,-112.2455C536.1751,-103.6534 555.6051,-91.0014 570.8079,-81.1018"/>
<polygon fill="#191970" stroke="#191970" points="572.7215,-84.0325 579.1916,-75.6427 568.9017,-78.1665 572.7215,-84.0325"/>
</g>
<!-- Node53 -->
<g id="node12" class="node">
<title>Node53</title>
<polygon fill="none" stroke="#bfbfbf" points="1069,-.5 1069,-19.5 1131,-19.5 1131,-.5 1069,-.5"/>
<text text-anchor="middle" x="1100" y="-7.5" font-family="FreeSans" font-size="10.00" fill="#000000">wx/string.h</text>
</g>
<!-- Node2&#45;&gt;Node53 -->
<g id="edge11" class="edge">
<title>Node2&#45;&gt;Node53</title>
<path fill="none" stroke="#191970" d="M510.4527,-112.3686C514.8158,-97.4298 525.4608,-69.0384 546,-56 567.5994,-42.2886 933.589,-19.7272 1058.5644,-12.3876"/>
<polygon fill="#191970" stroke="#191970" points="1059.0846,-15.8633 1068.8631,-11.7853 1058.6758,-8.8752 1059.0846,-15.8633"/>
</g>
<!-- Node63 -->
<g id="node13" class="node">
<title>Node63</title>
<g id="a_node13"><a xlink:href="wxscintilla_8h" target="_top" xlink:title="wx/wxscintilla.h">
<polygon fill="none" stroke="#ff0000" points="1193,-56.5 1193,-75.5 1275,-75.5 1275,-56.5 1193,-56.5"/>
<text text-anchor="middle" x="1234" y="-63.5" font-family="FreeSans" font-size="10.00" fill="#000000">wx/wxscintilla.h</text>
</a>
</g>
</g>
<!-- Node2&#45;&gt;Node63 -->
<g id="edge12" class="edge">
<title>Node2&#45;&gt;Node63</title>
<path fill="none" stroke="#191970" d="M549.1004,-119.6252C650.553,-113.635 920.9778,-96.8885 1146,-76 1157.9612,-74.8897 1170.8174,-73.5257 1182.9085,-72.1663"/>
<polygon fill="#191970" stroke="#191970" points="1183.3104,-75.6433 1192.8486,-71.0312 1182.5161,-68.6885 1183.3104,-75.6433"/>
</g>
<!-- Node71 -->
<g id="node14" class="node">
<title>Node71</title>
<g id="a_node14"><a xlink:href="settings_8h" target="_top" xlink:title="settings.h">
<polygon fill="none" stroke="#000000" points="809.5,-.5 809.5,-19.5 866.5,-19.5 866.5,-.5 809.5,-.5"/>
<text text-anchor="middle" x="838" y="-7.5" font-family="FreeSans" font-size="10.00" fill="#000000">settings.h</text>
</a>
</g>
</g>
<!-- Node2&#45;&gt;Node71 -->
<g id="edge13" class="edge">
<title>Node2&#45;&gt;Node71</title>
<path fill="none" stroke="#191970" d="M505.4272,-112.4694C502.2056,-98.1813 498.6999,-71.261 513,-56 532.3408,-35.3595 717.1739,-19.0658 799.1622,-12.7919"/>
<polygon fill="#191970" stroke="#191970" points="799.6197,-16.2674 809.3281,-12.0251 799.0932,-9.2872 799.6197,-16.2674"/>
</g>
<!-- Node107 -->
<g id="node15" class="node">
<title>Node107</title>
<g id="a_node15"><a xlink:href="scrollingdialog_8h" target="_top" xlink:title="scrollingdialog.h">
<polygon fill="none" stroke="#ff0000" points="759.5,-56.5 759.5,-75.5 844.5,-75.5 844.5,-56.5 759.5,-56.5"/>
<text text-anchor="middle" x="802" y="-63.5" font-family="FreeSans" font-size="10.00" fill="#000000">scrollingdialog.h</text>
</a>
</g>
</g>
<!-- Node2&#45;&gt;Node107 -->
<g id="edge14" class="edge">
<title>Node2&#45;&gt;Node107</title>
<path fill="none" stroke="#191970" d="M549.189,-114.1545C601.5168,-104.1873 691.8985,-86.9717 749.2281,-76.0518"/>
<polygon fill="#191970" stroke="#191970" points="750.0132,-79.4653 759.1817,-74.1559 748.7034,-72.5889 750.0132,-79.4653"/>
</g>
<!-- Node123 -->
<g id="node16" class="node">
<title>Node123</title>
<g id="a_node16"><a xlink:href="filemanager_8h" target="_top" xlink:title="filemanager.h">
<polygon fill="none" stroke="#ff0000" points="1063,-56.5 1063,-75.5 1137,-75.5 1137,-56.5 1063,-56.5"/>
<text text-anchor="middle" x="1100" y="-63.5" font-family="FreeSans" font-size="10.00" fill="#000000">filemanager.h</text>
</a>
</g>
</g>
<!-- Node2&#45;&gt;Node123 -->
<g id="edge16" class="edge">
<title>Node2&#45;&gt;Node123</title>
<path fill="none" stroke="#191970" d="M549.193,-118.6661C635.7249,-111.5755 842.7161,-94.1564 1016,-76 1027.862,-74.7571 1040.6513,-73.2965 1052.5859,-71.8812"/>
<polygon fill="#191970" stroke="#191970" points="1053.2967,-75.3212 1062.8091,-70.6559 1052.4636,-68.3709 1053.2967,-75.3212"/>
</g>
<!-- Node107&#45;&gt;Node71 -->
<g id="edge15" class="edge">
<title>Node107&#45;&gt;Node71</title>
<path fill="none" stroke="#191970" d="M808.2707,-56.2455C813.2264,-48.5367 820.283,-37.5598 826.2776,-28.2348"/>
<polygon fill="#191970" stroke="#191970" points="829.3376,-29.9471 831.8011,-19.6427 823.4494,-26.1618 829.3376,-29.9471"/>
</g>
<!-- Node123&#45;&gt;Node53 -->
<g id="edge17" class="edge">
<title>Node123&#45;&gt;Node53</title>
<path fill="none" stroke="#191970" d="M1100,-56.2455C1100,-48.9382 1100,-38.6944 1100,-29.7046"/>
<polygon fill="#191970" stroke="#191970" points="1103.5001,-29.6426 1100,-19.6427 1096.5001,-29.6427 1103.5001,-29.6426"/>
</g>
<!-- Node139&#45;&gt;Node53 -->
<g id="edge23" class="edge">
<title>Node139&#45;&gt;Node53</title>
<path fill="none" stroke="#191970" d="M1017.0196,-113.1892C1065.5961,-103.0235 1138.0203,-86.3787 1146,-76 1158.876,-59.2529 1140.48,-39.2563 1123.2697,-25.6959"/>
<polygon fill="#191970" stroke="#191970" points="1125.1737,-22.7502 1115.0585,-19.5984 1121.0004,-28.3702 1125.1737,-22.7502"/>
</g>
<!-- Node139&#45;&gt;Node71 -->
<g id="edge21" class="edge">
<title>Node139&#45;&gt;Node71</title>
<path fill="none" stroke="#191970" d="M961.49,-112.4509C938.3758,-93.2747 886.0892,-49.8962 857.5254,-26.1988"/>
<polygon fill="#191970" stroke="#191970" points="859.4119,-23.2162 849.4809,-19.5249 854.9424,-28.6036 859.4119,-23.2162"/>
</g>
<!-- Node139&#45;&gt;Node107 -->
<g id="edge22" class="edge">
<title>Node139&#45;&gt;Node107</title>
<path fill="none" stroke="#191970" d="M943.6041,-112.3733C915.1693,-103.0613 871.9123,-88.8953 840.6919,-78.671"/>
<polygon fill="#191970" stroke="#191970" points="841.605,-75.2872 831.0124,-75.5011 839.4264,-81.9396 841.605,-75.2872"/>
</g>
<!-- Node140 -->
<g id="node20" class="node">
<title>Node140</title>
<polygon fill="none" stroke="#bfbfbf" points="939,-56.5 939,-75.5 1007,-75.5 1007,-56.5 939,-56.5"/>
<text text-anchor="middle" x="973" y="-63.5" font-family="FreeSans" font-size="10.00" fill="#000000">wx/artprov.h</text>
</g>
<!-- Node139&#45;&gt;Node140 -->
<g id="edge24" class="edge">
<title>Node139&#45;&gt;Node140</title>
<path fill="none" stroke="#191970" d="M973,-112.2455C973,-104.9382 973,-94.6944 973,-85.7046"/>
<polygon fill="#191970" stroke="#191970" points="976.5001,-85.6426 973,-75.6427 969.5001,-85.6427 976.5001,-85.6426"/>
</g>
<!-- Node141&#45;&gt;Node63 -->
<g id="edge26" class="edge">
<title>Node141&#45;&gt;Node63</title>
<path fill="none" stroke="#191970" d="M1478.4921,-113.5335C1432.5428,-104.7706 1358.4988,-90.5877 1285.0789,-76.2022"/>
<polygon fill="#191970" stroke="#191970" points="1285.6827,-72.754 1275.196,-74.2638 1284.3354,-79.6231 1285.6827,-72.754"/>
</g>
<!-- Node141&#45;&gt;Node71 -->
<g id="edge28" class="edge">
<title>Node141&#45;&gt;Node71</title>
<path fill="none" stroke="#191970" d="M1523.3859,-112.0633C1523.3607,-97.2447 1520.8779,-69.6409 1504,-56 1491.7282,-46.0818 1018.1586,-19.7381 877.1937,-12.102"/>
<polygon fill="#191970" stroke="#191970" points="877.0421,-8.5888 866.8677,-11.5439 876.6642,-15.5785 877.0421,-8.5888"/>
</g>
<!-- Node142 -->
<g id="node22" class="node">
<title>Node142</title>
<polygon fill="none" stroke="#bfbfbf" points="1551,-56.5 1551,-75.5 1625,-75.5 1625,-56.5 1551,-56.5"/>
<text text-anchor="middle" x="1588" y="-63.5" font-family="FreeSans" font-size="10.00" fill="#000000">wx/longlong.h</text>
</g>
<!-- Node141&#45;&gt;Node142 -->
<g id="edge27" class="edge">
<title>Node141&#45;&gt;Node142</title>
<path fill="none" stroke="#191970" d="M1534.3221,-112.2455C1543.9223,-103.9746 1557.8892,-91.9416 1569.1695,-82.2232"/>
<polygon fill="#191970" stroke="#191970" points="1571.516,-84.8214 1576.8076,-75.6427 1566.947,-79.5182 1571.516,-84.8214"/>
</g>
<!-- Node89 -->
<g id="node23" class="node">
<title>Node89</title>
<polygon fill="none" stroke="#bfbfbf" points="1643.5,-56.5 1643.5,-75.5 1678.5,-75.5 1678.5,-56.5 1643.5,-56.5"/>
<text text-anchor="middle" x="1661" y="-63.5" font-family="FreeSans" font-size="10.00" fill="#000000">map</text>
</g>
<!-- Node141&#45;&gt;Node89 -->
<g id="edge29" class="edge">
<title>Node141&#45;&gt;Node89</title>
<path fill="none" stroke="#191970" d="M1546.723,-112.3733C1570.9425,-102.5451 1608.4868,-87.3097 1633.872,-77.0084"/>
<polygon fill="#191970" stroke="#191970" points="1635.3288,-80.1946 1643.2788,-73.1912 1632.6966,-73.7083 1635.3288,-80.1946"/>
</g>
<!-- Node93 -->
<g id="node24" class="node">
<title>Node93</title>
<polygon fill="none" stroke="#bfbfbf" points="1696.5,-56.5 1696.5,-75.5 1725.5,-75.5 1725.5,-56.5 1696.5,-56.5"/>
<text text-anchor="middle" x="1711" y="-63.5" font-family="FreeSans" font-size="10.00" fill="#000000">set</text>
</g>
<!-- Node141&#45;&gt;Node93 -->
<g id="edge30" class="edge">
<title>Node141&#45;&gt;Node93</title>
<path fill="none" stroke="#191970" d="M1563.1553,-112.4603C1594.6949,-104.6003 1639.8193,-92.549 1686.3847,-76.286"/>
<polygon fill="#191970" stroke="#191970" points="1687.7718,-79.5077 1696.0255,-72.8648 1685.4307,-72.9108 1687.7718,-79.5077"/>
</g>
<!-- Node143&#45;&gt;Node31 -->
<g id="edge33" class="edge">
<title>Node143&#45;&gt;Node31</title>
<path fill="none" stroke="#191970" d="M725.723,-112.2455C717.1782,-104.1352 704.8222,-92.4075 694.6915,-82.7919"/>
<polygon fill="#191970" stroke="#191970" points="696.8218,-79.9884 687.1592,-75.6427 692.0028,-85.0655 696.8218,-79.9884"/>
</g>
<!-- Node143&#45;&gt;Node71 -->
<g id="edge34" class="edge">
<title>Node143&#45;&gt;Node71</title>
<path fill="none" stroke="#191970" d="M735.5994,-112.4441C735.5117,-98.6022 737.2558,-72.7963 750,-56 762.3089,-39.7774 781.9949,-28.7318 799.6294,-21.5396"/>
<polygon fill="#191970" stroke="#191970" points="801.0431,-24.7469 809.1553,-17.932 798.5639,-18.2006 801.0431,-24.7469"/>
</g>
<!-- Node143&#45;&gt;Node107 -->
<g id="edge32" class="edge">
<title>Node143&#45;&gt;Node107</title>
<path fill="none" stroke="#191970" d="M747.4963,-112.2455C757.2442,-103.9746 771.4259,-91.9416 782.8798,-82.2232"/>
<polygon fill="#191970" stroke="#191970" points="785.2747,-84.7813 790.6354,-75.6427 780.7459,-79.4437 785.2747,-84.7813"/>
</g>
<!-- Node144&#45;&gt;Node71 -->
<g id="edge36" class="edge">
<title>Node144&#45;&gt;Node71</title>
<path fill="none" stroke="#191970" d="M1090.5852,-112.396C1075.947,-98.0119 1046.2542,-70.968 1016,-56 970.8917,-33.6831 913.8238,-21.4066 876.641,-15.2684"/>
<polygon fill="#191970" stroke="#191970" points="877.1314,-11.8025 866.7072,-13.6967 876.0374,-18.7165 877.1314,-11.8025"/>
</g>
<!-- Node144&#45;&gt;Node123 -->
<g id="edge37" class="edge">
<title>Node144&#45;&gt;Node123</title>
<path fill="none" stroke="#191970" d="M1100,-112.2455C1100,-104.9382 1100,-94.6944 1100,-85.7046"/>
<polygon fill="#191970" stroke="#191970" points="1103.5001,-85.6426 1100,-75.6427 1096.5001,-85.6427 1103.5001,-85.6426"/>
</g>
<!-- Node80 -->
<g id="node27" class="node">
<title>Node80</title>
<polygon fill="none" stroke="#bfbfbf" points="1293,-56.5 1293,-75.5 1367,-75.5 1367,-56.5 1293,-56.5"/>
<text text-anchor="middle" x="1330" y="-63.5" font-family="FreeSans" font-size="10.00" fill="#000000">wx/fontmap.h</text>
</g>
<!-- Node144&#45;&gt;Node80 -->
<g id="edge38" class="edge">
<title>Node144&#45;&gt;Node80</title>
<path fill="none" stroke="#191970" d="M1139.2771,-112.4369C1179.0683,-102.7486 1240.6329,-87.759 1282.9929,-77.4452"/>
<polygon fill="#191970" stroke="#191970" points="1283.9013,-80.8264 1292.7894,-75.06 1282.2452,-74.0251 1283.9013,-80.8264"/>
</g>
<!-- Node145 -->
<g id="node28" class="node">
<title>Node145</title>
<polygon fill="none" stroke="#bfbfbf" points="1385,-56.5 1385,-75.5 1495,-75.5 1495,-56.5 1385,-56.5"/>
<text text-anchor="middle" x="1440" y="-63.5" font-family="FreeSans" font-size="10.00" fill="#000000">nsUniversalDetector.h</text>
</g>
<!-- Node144&#45;&gt;Node145 -->
<g id="edge39" class="edge">
<title>Node144&#45;&gt;Node145</title>
<path fill="none" stroke="#191970" d="M1149.0758,-113.9169C1208.4264,-104.1415 1308.5475,-87.651 1374.4588,-76.795"/>
<polygon fill="#191970" stroke="#191970" points="1375.4337,-80.1817 1384.7319,-75.103 1374.296,-73.2747 1375.4337,-80.1817"/>
</g>
<!-- Node146&#45;&gt;Node39 -->
<g id="edge41" class="edge">
<title>Node146&#45;&gt;Node39</title>
<path fill="none" stroke="#191970" d="M813.3331,-172.2924C776.111,-166.0385 720.8502,-153.8537 677,-132 651.4628,-119.273 626.4254,-97.7658 610.6425,-82.7743"/>
<polygon fill="#191970" stroke="#191970" points="612.887,-80.0748 603.279,-75.6097 608.0054,-85.0919 612.887,-80.0748"/>
</g>
<!-- Node147 -->
<g id="node30" class="node">
<title>Node147</title>
<g id="a_node30"><a xlink:href="findreplacebase_8h" target="_top" xlink:title="findreplacebase.h">
<polygon fill="none" stroke="#000000" points="809.5,-112.5 809.5,-131.5 900.5,-131.5 900.5,-112.5 809.5,-112.5"/>
<text text-anchor="middle" x="855" y="-119.5" font-family="FreeSans" font-size="10.00" fill="#000000">findreplacebase.h</text>
</a>
</g>
</g>
<!-- Node146&#45;&gt;Node147 -->
<g id="edge42" class="edge">
<title>Node146&#45;&gt;Node147</title>
<path fill="none" stroke="#191970" d="M855,-168.2455C855,-160.9382 855,-150.6944 855,-141.7046"/>
<polygon fill="#191970" stroke="#191970" points="858.5001,-141.6426 855,-131.6427 851.5001,-141.6427 858.5001,-141.6426"/>
</g>
<!-- Node147&#45;&gt;Node53 -->
<g id="edge44" class="edge">
<title>Node147&#45;&gt;Node53</title>
<path fill="none" stroke="#191970" d="M863.2065,-112.3886C876.0157,-97.9949 902.1913,-70.9386 930,-56 970.94,-34.0073 1023.1936,-21.9143 1058.894,-15.7183"/>
<polygon fill="#191970" stroke="#191970" points="1059.6618,-19.1389 1068.9555,-14.052 1058.518,-12.233 1059.6618,-19.1389"/>
</g>
<!-- Node147&#45;&gt;Node107 -->
<g id="edge43" class="edge">
<title>Node147&#45;&gt;Node107</title>
<path fill="none" stroke="#191970" d="M845.7681,-112.2455C838.1683,-104.2155 827.2123,-92.6394 818.1632,-83.0781"/>
<polygon fill="#191970" stroke="#191970" points="820.542,-80.4998 811.1261,-75.6427 815.4579,-85.3115 820.542,-80.4998"/>
</g>
<!-- Node148&#45;&gt;Node53 -->
<g id="edge46" class="edge">
<title>Node148&#45;&gt;Node53</title>
<path fill="none" stroke="#191970" d="M1236.7029,-169.3438C1239.8446,-168.8592 1242.9654,-168.4054 1246,-168 1424.68,-144.1324 1479.7963,-191.3877 1650,-132 1697.8474,-115.305 1769.5148,-93.1056 1735,-56 1714.7315,-34.2102 1279.0591,-16.5237 1141.3408,-11.4605"/>
<polygon fill="#191970" stroke="#191970" points="1141.3175,-7.9574 1131.1966,-11.0907 1141.0624,-14.9528 1141.3175,-7.9574"/>
</g>
<!-- Node149 -->
<g id="node32" class="node">
<title>Node149</title>
<g id="a_node32"><a xlink:href="loggers_8h" target="_top" xlink:title="loggers.h">
<polygon fill="none" stroke="#ff0000" points="1585.5,-112.5 1585.5,-131.5 1640.5,-131.5 1640.5,-112.5 1585.5,-112.5"/>
<text text-anchor="middle" x="1613" y="-119.5" font-family="FreeSans" font-size="10.00" fill="#000000">loggers.h</text>
</a>
</g>
</g>
<!-- Node148&#45;&gt;Node149 -->
<g id="edge47" class="edge">
<title>Node148&#45;&gt;Node149</title>
<path fill="none" stroke="#191970" d="M1236.7124,-169.4122C1239.8517,-168.911 1242.9695,-168.4349 1246,-168 1389.1882,-147.4532 1429.8594,-159.3319 1575.0236,-132.1412"/>
<polygon fill="#191970" stroke="#191970" points="1576.029,-135.5128 1585.198,-130.2042 1574.7198,-128.6363 1576.029,-135.5128"/>
</g>
</g>
</svg>
