<?xml version="1.0" encoding="UTF-8" standalone="no"?>
<!DOCTYPE svg PUBLIC "-//W3C//DTD SVG 1.1//EN"
 "http://www.w3.org/Graphics/SVG/1.1/DTD/svg11.dtd">
<!-- Generated by graphviz version 2.38.0 (20140413.2041)
 -->
<!-- Title: gdb_commands.h Pages: 1 -->
<svg width="1642pt" height="375pt"
 viewBox="0.00 0.00 1642.44 375.00" xmlns="http://www.w3.org/2000/svg" xmlns:xlink="http://www.w3.org/1999/xlink">
<g id="graph0" class="graph" transform="scale(1 1) rotate(0) translate(4 371)">
<title>gdb_commands.h</title>
<!-- Node0 -->
<g id="node1" class="node"><title>Node0</title>
<polygon fill="#bfbfbf" stroke="black" points="878.438,-347.5 878.438,-366.5 970.438,-366.5 970.438,-347.5 878.438,-347.5"/>
<text text-anchor="middle" x="924.438" y="-354.5" font-family="FreeSans" font-size="10.00">gdb_commands.h</text>
</g>
<!-- Node1 -->
<g id="node2" class="node"><title>Node1</title>
<polygon fill="none" stroke="#bfbfbf" points="1339.94,-0.5 1339.94,-19.5 1374.94,-19.5 1374.94,-0.5 1339.94,-0.5"/>
<text text-anchor="middle" x="1357.44" y="-7.5" font-family="FreeSans" font-size="10.00">map</text>
</g>
<!-- Node0&#45;&gt;Node1 -->
<g id="edge1" class="edge"><title>Node0&#45;&gt;Node1</title>
<path fill="none" stroke="midnightblue" d="M970.556,-354.537C1107.72,-349.936 1506.9,-334.647 1560.44,-311 1601.99,-292.647 1634.44,-285.925 1634.44,-240.5 1634.44,-240.5 1634.44,-240.5 1634.44,-121 1634.44,-84.8221 1616.09,-75.2126 1585.44,-56 1521.96,-16.213 1430.61,-10.469 1385.22,-10.3151"/>
<polygon fill="midnightblue" stroke="midnightblue" points="1384.95,-6.81652 1374.97,-10.3751 1384.99,-13.8164 1384.95,-6.81652"/>
</g>
<!-- Node2 -->
<g id="node3" class="node"><title>Node2</title>
<polygon fill="none" stroke="#bfbfbf" points="1019.44,-0.5 1019.44,-19.5 1081.44,-19.5 1081.44,-0.5 1019.44,-0.5"/>
<text text-anchor="middle" x="1050.44" y="-7.5" font-family="FreeSans" font-size="10.00">wx/string.h</text>
</g>
<!-- Node0&#45;&gt;Node2 -->
<g id="edge2" class="edge"><title>Node0&#45;&gt;Node2</title>
<path fill="none" stroke="midnightblue" d="M970.726,-354.471C1062.15,-348.55 1263.13,-320.369 1333.44,-188 1349.28,-158.169 1349.62,-141.652 1333.44,-112 1311.41,-71.6325 1288.81,-73.8563 1246.44,-56 1195.38,-34.4866 1132.31,-22.3535 1091.74,-16.2378"/>
<polygon fill="midnightblue" stroke="midnightblue" points="1092.08,-12.7503 1081.68,-14.7753 1091.07,-19.6775 1092.08,-12.7503"/>
</g>
<!-- Node3 -->
<g id="node4" class="node"><title>Node3</title>
<polygon fill="none" stroke="#bfbfbf" points="1501.44,-112.5 1501.44,-131.5 1563.44,-131.5 1563.44,-112.5 1501.44,-112.5"/>
<text text-anchor="middle" x="1532.44" y="-119.5" font-family="FreeSans" font-size="10.00">wx/regex.h</text>
</g>
<!-- Node0&#45;&gt;Node3 -->
<g id="edge3" class="edge"><title>Node0&#45;&gt;Node3</title>
<path fill="none" stroke="midnightblue" d="M970.716,-356.152C1107.2,-356.121 1500.94,-352.412 1539.44,-311 1583.15,-263.969 1555.6,-178.301 1540.46,-141.075"/>
<polygon fill="midnightblue" stroke="midnightblue" points="1543.54,-139.389 1536.41,-131.551 1537.1,-142.123 1543.54,-139.389"/>
</g>
<!-- Node4 -->
<g id="node5" class="node"><title>Node4</title>
<polygon fill="none" stroke="#bfbfbf" points="432.938,-291.5 432.938,-310.5 495.938,-310.5 495.938,-291.5 432.938,-291.5"/>
<text text-anchor="middle" x="464.438" y="-298.5" font-family="FreeSans" font-size="10.00">wx/tipwin.h</text>
</g>
<!-- Node0&#45;&gt;Node4 -->
<g id="edge4" class="edge"><title>Node0&#45;&gt;Node4</title>
<path fill="none" stroke="midnightblue" d="M878.337,-352.703C802.751,-346.937 647.6,-333.59 506.304,-310.966"/>
<polygon fill="midnightblue" stroke="midnightblue" points="506.587,-307.466 496.156,-309.321 505.467,-314.376 506.587,-307.466"/>
</g>
<!-- Node5 -->
<g id="node6" class="node"><title>Node5</title>
<polygon fill="none" stroke="#bfbfbf" points="514.438,-291.5 514.438,-310.5 584.438,-310.5 584.438,-291.5 514.438,-291.5"/>
<text text-anchor="middle" x="549.438" y="-298.5" font-family="FreeSans" font-size="10.00">wx/tokenzr.h</text>
</g>
<!-- Node0&#45;&gt;Node5 -->
<g id="edge5" class="edge"><title>Node0&#45;&gt;Node5</title>
<path fill="none" stroke="midnightblue" d="M878.183,-350.273C814.906,-342.289 697.859,-326.984 598.438,-311 597.165,-310.795 595.874,-310.584 594.572,-310.367"/>
<polygon fill="midnightblue" stroke="midnightblue" points="594.917,-306.876 584.469,-308.63 593.731,-313.774 594.917,-306.876"/>
</g>
<!-- Node6 -->
<g id="node7" class="node"><title>Node6</title>
<g id="a_node7"><a xlink:href="cbeditor_8h" target="_top" xlink:title="cbeditor.h">
<polygon fill="none" stroke="black" points="281.938,-168.5 281.938,-187.5 340.938,-187.5 340.938,-168.5 281.938,-168.5"/>
<text text-anchor="middle" x="311.438" y="-175.5" font-family="FreeSans" font-size="10.00">cbeditor.h</text>
</a>
</g>
</g>
<!-- Node0&#45;&gt;Node6 -->
<g id="edge6" class="edge"><title>Node0&#45;&gt;Node6</title>
<path fill="none" stroke="midnightblue" d="M878.168,-354.502C756,-350.211 431.336,-336.515 390.438,-311 348.444,-284.802 325.85,-227.358 316.575,-197.637"/>
<polygon fill="midnightblue" stroke="midnightblue" points="319.839,-196.332 313.66,-187.727 313.124,-198.308 319.839,-196.332"/>
</g>
<!-- Node16 -->
<g id="node14" class="node"><title>Node16</title>
<g id="a_node14"><a xlink:href="globals_8h" target="_top" xlink:title="globals.h">
<polygon fill="none" stroke="red" points="618.438,-56.5 618.438,-75.5 672.438,-75.5 672.438,-56.5 618.438,-56.5"/>
<text text-anchor="middle" x="645.438" y="-63.5" font-family="FreeSans" font-size="10.00">globals.h</text>
</a>
</g>
</g>
<!-- Node0&#45;&gt;Node16 -->
<g id="edge37" class="edge"><title>Node0&#45;&gt;Node16</title>
<path fill="none" stroke="midnightblue" d="M878.207,-352.832C821.708,-348.003 723.719,-336.513 643.438,-311 629.988,-306.726 536.899,-266.979 529.438,-255 492.746,-196.097 598.3,-166.269 620.438,-132 629.859,-117.415 636.578,-98.7389 640.661,-85.1511"/>
<polygon fill="midnightblue" stroke="midnightblue" points="644.031,-86.0947 643.372,-75.5204 637.293,-84.198 644.031,-86.0947"/>
</g>
<!-- Node28 -->
<g id="node16" class="node"><title>Node28</title>
<g id="a_node16"><a xlink:href="cbdebugger__interfaces_8h" target="_top" xlink:title="cbdebugger_interfaces.h">
<polygon fill="none" stroke="black" points="538.438,-230 538.438,-249 660.438,-249 660.438,-230 538.438,-230"/>
<text text-anchor="middle" x="599.438" y="-237" font-family="FreeSans" font-size="10.00">cbdebugger_interfaces.h</text>
</a>
</g>
</g>
<!-- Node0&#45;&gt;Node28 -->
<g id="edge20" class="edge"><title>Node0&#45;&gt;Node28</title>
<path fill="none" stroke="midnightblue" d="M878.183,-355.45C826.05,-353.117 740.026,-344.011 674.438,-311 648.848,-298.12 625.896,-273.725 612.314,-257.287"/>
<polygon fill="midnightblue" stroke="midnightblue" points="614.75,-254.729 605.775,-249.098 609.279,-259.096 614.75,-254.729"/>
</g>
<!-- Node35 -->
<g id="node19" class="node"><title>Node35</title>
<g id="a_node19"><a xlink:href="configmanager_8h" target="_top" xlink:title="configmanager.h">
<polygon fill="none" stroke="red" points="743.938,-112.5 743.938,-131.5 830.938,-131.5 830.938,-112.5 743.938,-112.5"/>
<text text-anchor="middle" x="787.438" y="-119.5" font-family="FreeSans" font-size="10.00">configmanager.h</text>
</a>
</g>
</g>
<!-- Node0&#45;&gt;Node35 -->
<g id="edge36" class="edge"><title>Node0&#45;&gt;Node35</title>
<path fill="none" stroke="midnightblue" d="M903.913,-347.476C883.168,-338.738 850.286,-324.546 822.438,-311 774.877,-287.865 763.025,-281.815 717.438,-255 695.548,-242.124 691.182,-237.12 669.438,-224 641.495,-207.139 621.914,-216.171 605.438,-188 600.95,-180.327 599.958,-174.999 605.438,-168 613.503,-157.698 683.227,-142.586 733.979,-132.77"/>
<polygon fill="midnightblue" stroke="midnightblue" points="734.689,-136.198 743.852,-130.88 733.373,-129.322 734.689,-136.198"/>
</g>
<!-- Node41 -->
<g id="node20" class="node"><title>Node41</title>
<polygon fill="none" stroke="#bfbfbf" points="614.438,-168.5 614.438,-187.5 676.438,-187.5 676.438,-168.5 614.438,-168.5"/>
<text text-anchor="middle" x="645.438" y="-175.5" font-family="FreeSans" font-size="10.00">manager.h</text>
</g>
<!-- Node0&#45;&gt;Node41 -->
<g id="edge38" class="edge"><title>Node0&#45;&gt;Node41</title>
<path fill="none" stroke="midnightblue" d="M910.981,-347.463C866.426,-319.197 723.395,-228.457 667.818,-193.198"/>
<polygon fill="midnightblue" stroke="midnightblue" points="669.405,-190.06 659.086,-187.659 665.655,-195.971 669.405,-190.06"/>
</g>
<!-- Node42 -->
<g id="node21" class="node"><title>Node42</title>
<g id="a_node21"><a xlink:href="editormanager_8h" target="_top" xlink:title="editormanager.h">
<polygon fill="none" stroke="red" points="525.438,-112.5 525.438,-131.5 611.438,-131.5 611.438,-112.5 525.438,-112.5"/>
<text text-anchor="middle" x="568.438" y="-119.5" font-family="FreeSans" font-size="10.00">editormanager.h</text>
</a>
</g>
</g>
<!-- Node0&#45;&gt;Node42 -->
<g id="edge39" class="edge"><title>Node0&#45;&gt;Node42</title>
<path fill="none" stroke="midnightblue" d="M878.041,-355.319C759.7,-353.105 453.784,-344.194 423.438,-311 367.438,-249.745 489.23,-168.545 543.78,-136.669"/>
<polygon fill="midnightblue" stroke="midnightblue" points="545.597,-139.662 552.525,-131.646 542.111,-133.592 545.597,-139.662"/>
</g>
<!-- Node44 -->
<g id="node22" class="node"><title>Node44</title>
<g id="a_node22"><a xlink:href="infowindow_8h" target="_top" xlink:title="infowindow.h">
<polygon fill="none" stroke="red" points="26.9377,-168.5 26.9377,-187.5 97.9377,-187.5 97.9377,-168.5 26.9377,-168.5"/>
<text text-anchor="middle" x="62.4377" y="-175.5" font-family="FreeSans" font-size="10.00">infowindow.h</text>
</a>
</g>
</g>
<!-- Node0&#45;&gt;Node44 -->
<g id="edge45" class="edge"><title>Node0&#45;&gt;Node44</title>
<path fill="none" stroke="midnightblue" d="M878.162,-354.254C762.171,-349.562 461.399,-335.358 364.438,-311 255.441,-283.618 135.93,-220.555 86.195,-192.678"/>
<polygon fill="midnightblue" stroke="midnightblue" points="87.6297,-189.468 77.2022,-187.592 84.184,-195.561 87.6297,-189.468"/>
</g>
<!-- Node48 -->
<g id="node23" class="node"><title>Node48</title>
<g id="a_node23"><a xlink:href="logmanager_8h" target="_top" xlink:title="logmanager.h">
<polygon fill="none" stroke="red" points="1224.44,-168.5 1224.44,-187.5 1298.44,-187.5 1298.44,-168.5 1224.44,-168.5"/>
<text text-anchor="middle" x="1261.44" y="-175.5" font-family="FreeSans" font-size="10.00">logmanager.h</text>
</a>
</g>
</g>
<!-- Node0&#45;&gt;Node48 -->
<g id="edge49" class="edge"><title>Node0&#45;&gt;Node48</title>
<path fill="none" stroke="midnightblue" d="M970.639,-352.377C1012.17,-347.557 1073.78,-336.44 1121.44,-311 1176.75,-281.477 1226.21,-224.292 1248.67,-195.875"/>
<polygon fill="midnightblue" stroke="midnightblue" points="1251.62,-197.778 1254.98,-187.731 1246.09,-193.488 1251.62,-197.778"/>
</g>
<!-- Node50 -->
<g id="node24" class="node"><title>Node50</title>
<g id="a_node24"><a xlink:href="macrosmanager_8h" target="_top" xlink:title="macrosmanager.h">
<polygon fill="none" stroke="red" points="1112.94,-168.5 1112.94,-187.5 1205.94,-187.5 1205.94,-168.5 1112.94,-168.5"/>
<text text-anchor="middle" x="1159.44" y="-175.5" font-family="FreeSans" font-size="10.00">macrosmanager.h</text>
</a>
</g>
</g>
<!-- Node0&#45;&gt;Node50 -->
<g id="edge52" class="edge"><title>Node0&#45;&gt;Node50</title>
<path fill="none" stroke="midnightblue" d="M970.747,-354.669C1008.94,-351.285 1062.5,-340.99 1098.44,-311 1134.03,-281.296 1149.95,-226.291 1156.1,-197.563"/>
<polygon fill="midnightblue" stroke="midnightblue" points="1159.56,-198.121 1158.06,-187.633 1152.69,-196.767 1159.56,-198.121"/>
</g>
<!-- Node51 -->
<g id="node25" class="node"><title>Node51</title>
<g id="a_node25"><a xlink:href="scriptingmanager_8h" target="_top" xlink:title="scriptingmanager.h">
<polygon fill="none" stroke="red" points="963.438,-112.5 963.438,-131.5 1061.44,-131.5 1061.44,-112.5 963.438,-112.5"/>
<text text-anchor="middle" x="1012.44" y="-119.5" font-family="FreeSans" font-size="10.00">scriptingmanager.h</text>
</a>
</g>
</g>
<!-- Node0&#45;&gt;Node51 -->
<g id="edge56" class="edge"><title>Node0&#45;&gt;Node51</title>
<path fill="none" stroke="midnightblue" d="M970.687,-347.939C993.806,-341.616 1020.41,-330.475 1037.44,-311 1080.01,-262.306 1091.32,-226.825 1064.44,-168 1058.66,-155.36 1047.39,-144.911 1036.81,-137.274"/>
<polygon fill="midnightblue" stroke="midnightblue" points="1038.48,-134.182 1028.22,-131.533 1034.59,-140.001 1038.48,-134.182"/>
</g>
<!-- Node54 -->
<g id="node26" class="node"><title>Node54</title>
<polygon fill="none" stroke="#bfbfbf" points="1004.94,-168.5 1004.94,-187.5 1055.94,-187.5 1055.94,-168.5 1004.94,-168.5"/>
<text text-anchor="middle" x="1030.44" y="-175.5" font-family="FreeSans" font-size="10.00">sqplus.h</text>
</g>
<!-- Node0&#45;&gt;Node54 -->
<g id="edge60" class="edge"><title>Node0&#45;&gt;Node54</title>
<path fill="none" stroke="midnightblue" d="M962.472,-347.454C982.45,-340.912 1005.42,-329.719 1018.44,-311 1042.11,-276.943 1038.4,-225.405 1034.13,-197.887"/>
<polygon fill="midnightblue" stroke="midnightblue" points="1037.51,-196.931 1032.34,-187.685 1030.62,-198.139 1037.51,-196.931"/>
</g>
<!-- Node55 -->
<g id="node27" class="node"><title>Node55</title>
<g id="a_node27"><a xlink:href="sc__base__types_8h" target="_top" xlink:title="scripting/bindings\l/sc_base_types.h">
<polygon fill="none" stroke="red" points="802.938,-224.5 802.938,-254.5 893.938,-254.5 893.938,-224.5 802.938,-224.5"/>
<text text-anchor="start" x="810.938" y="-242.5" font-family="FreeSans" font-size="10.00">scripting/bindings</text>
<text text-anchor="middle" x="848.438" y="-231.5" font-family="FreeSans" font-size="10.00">/sc_base_types.h</text>
</a>
</g>
</g>
<!-- Node0&#45;&gt;Node55 -->
<g id="edge61" class="edge"><title>Node0&#45;&gt;Node55</title>
<path fill="none" stroke="midnightblue" d="M918.725,-347.319C907.053,-329.579 880.142,-288.682 863.211,-262.951"/>
<polygon fill="midnightblue" stroke="midnightblue" points="866.1,-260.975 857.68,-254.545 860.253,-264.823 866.1,-260.975"/>
</g>
<!-- Node71 -->
<g id="node28" class="node"><title>Node71</title>
<g id="a_node28"><a xlink:href="debugger__defs_8h" target="_top" xlink:title="debugger_defs.h">
<polygon fill="none" stroke="red" points="918.938,-230 918.938,-249 1005.94,-249 1005.94,-230 918.938,-230"/>
<text text-anchor="middle" x="962.438" y="-237" font-family="FreeSans" font-size="10.00">debugger_defs.h</text>
</a>
</g>
</g>
<!-- Node0&#45;&gt;Node71 -->
<g id="edge72" class="edge"><title>Node0&#45;&gt;Node71</title>
<path fill="none" stroke="midnightblue" d="M918.112,-347.318C909.674,-334.593 896.753,-310.298 905.438,-291 912.205,-275.963 925.909,-263.591 938.183,-254.856"/>
<polygon fill="midnightblue" stroke="midnightblue" points="940.365,-257.608 946.749,-249.153 936.485,-251.782 940.365,-257.608"/>
</g>
<!-- Node73 -->
<g id="node29" class="node"><title>Node73</title>
<g id="a_node29"><a xlink:href="debuggergdb_8h" target="_top" xlink:title="debuggergdb.h">
<polygon fill="none" stroke="red" points="1450.44,-291.5 1450.44,-310.5 1530.44,-310.5 1530.44,-291.5 1450.44,-291.5"/>
<text text-anchor="middle" x="1490.44" y="-298.5" font-family="FreeSans" font-size="10.00">debuggergdb.h</text>
</a>
</g>
</g>
<!-- Node0&#45;&gt;Node73 -->
<g id="edge75" class="edge"><title>Node0&#45;&gt;Node73</title>
<path fill="none" stroke="midnightblue" d="M970.593,-353.456C1059.49,-348.236 1260.79,-334.87 1440.22,-311.041"/>
<polygon fill="midnightblue" stroke="midnightblue" points="1440.93,-314.477 1450.38,-309.678 1440,-307.54 1440.93,-314.477"/>
</g>
<!-- Node82 -->
<g id="node30" class="node"><title>Node82</title>
<g id="a_node30"><a xlink:href="remotedebugging_8h" target="_top" xlink:title="remotedebugging.h">
<polygon fill="none" stroke="black" points="1353.44,-230 1353.44,-249 1451.44,-249 1451.44,-230 1353.44,-230"/>
<text text-anchor="middle" x="1402.44" y="-237" font-family="FreeSans" font-size="10.00">remotedebugging.h</text>
</a>
</g>
</g>
<!-- Node0&#45;&gt;Node82 -->
<g id="edge85" class="edge"><title>Node0&#45;&gt;Node82</title>
<path fill="none" stroke="midnightblue" d="M970.639,-353.779C1059.65,-348.989 1251.52,-336.039 1312.44,-311 1342.41,-298.679 1370.76,-273.395 1387.37,-256.696"/>
<polygon fill="midnightblue" stroke="midnightblue" points="1390.1,-258.906 1394.53,-249.283 1385.07,-254.042 1390.1,-258.906"/>
</g>
<!-- Node84 -->
<g id="node31" class="node"><title>Node84</title>
<g id="a_node31"><a xlink:href="gdb__driver_8h" target="_top" xlink:title="gdb_driver.h">
<polygon fill="none" stroke="red" points="1364.44,-291.5 1364.44,-310.5 1432.44,-310.5 1432.44,-291.5 1364.44,-291.5"/>
<text text-anchor="middle" x="1398.44" y="-298.5" font-family="FreeSans" font-size="10.00">gdb_driver.h</text>
</a>
</g>
</g>
<!-- Node0&#45;&gt;Node84 -->
<g id="edge82" class="edge"><title>Node0&#45;&gt;Node84</title>
<path fill="none" stroke="midnightblue" d="M970.608,-352.343C1048.95,-345.866 1212.83,-331.135 1350.44,-311 1351.71,-310.814 1353,-310.618 1354.31,-310.414"/>
<polygon fill="midnightblue" stroke="midnightblue" points="1355.12,-313.827 1364.41,-308.729 1353.97,-306.922 1355.12,-313.827"/>
</g>
<!-- Node86 -->
<g id="node32" class="node"><title>Node86</title>
<g id="a_node32"><a xlink:href="parsewatchvalue_8h" target="_top" xlink:title="parsewatchvalue.h">
<polygon fill="none" stroke="black" points="914.938,-291.5 914.938,-310.5 1009.94,-310.5 1009.94,-291.5 914.938,-291.5"/>
<text text-anchor="middle" x="962.438" y="-298.5" font-family="FreeSans" font-size="10.00">parsewatchvalue.h</text>
</a>
</g>
</g>
<!-- Node0&#45;&gt;Node86 -->
<g id="edge86" class="edge"><title>Node0&#45;&gt;Node86</title>
<path fill="none" stroke="midnightblue" d="M930.713,-347.083C936.08,-339.455 943.955,-328.264 950.516,-318.941"/>
<polygon fill="midnightblue" stroke="midnightblue" points="953.387,-320.943 956.28,-310.751 947.662,-316.915 953.387,-320.943"/>
</g>
<!-- Node7 -->
<g id="node8" class="node"><title>Node7</title>
<polygon fill="none" stroke="#bfbfbf" points="484.938,-56.5 484.938,-75.5 561.938,-75.5 561.938,-56.5 484.938,-56.5"/>
<text text-anchor="middle" x="523.438" y="-63.5" font-family="FreeSans" font-size="10.00">wx/hashmap.h</text>
</g>
<!-- Node6&#45;&gt;Node7 -->
<g id="edge7" class="edge"><title>Node6&#45;&gt;Node7</title>
<path fill="none" stroke="midnightblue" d="M311.36,-168.449C311.721,-154.532 314.553,-127.029 330.438,-112 340.944,-102.059 420.926,-85.7608 474.576,-75.7468"/>
<polygon fill="midnightblue" stroke="midnightblue" points="475.399,-79.154 484.595,-73.8924 474.125,-72.2709 475.399,-79.154"/>
</g>
<!-- Node8 -->
<g id="node9" class="node"><title>Node8</title>
<polygon fill="none" stroke="#bfbfbf" points="431.438,-112.5 431.438,-131.5 507.438,-131.5 507.438,-112.5 431.438,-112.5"/>
<text text-anchor="middle" x="469.438" y="-119.5" font-family="FreeSans" font-size="10.00">wx/datetime.h</text>
</g>
<!-- Node6&#45;&gt;Node8 -->
<g id="edge8" class="edge"><title>Node6&#45;&gt;Node8</title>
<path fill="none" stroke="midnightblue" d="M336.473,-168.444C363.054,-159.359 405.247,-144.939 434.961,-134.783"/>
<polygon fill="midnightblue" stroke="midnightblue" points="436.189,-138.062 444.519,-131.516 433.925,-131.439 436.189,-138.062"/>
</g>
<!-- Node9 -->
<g id="node10" class="node"><title>Node9</title>
<polygon fill="none" stroke="#bfbfbf" points="339.438,-112.5 339.438,-131.5 413.438,-131.5 413.438,-112.5 339.438,-112.5"/>
<text text-anchor="middle" x="376.438" y="-119.5" font-family="FreeSans" font-size="10.00">wx/fontmap.h</text>
</g>
<!-- Node6&#45;&gt;Node9 -->
<g id="edge9" class="edge"><title>Node6&#45;&gt;Node9</title>
<path fill="none" stroke="midnightblue" d="M321.881,-168.324C331.584,-160.263 346.253,-148.077 357.937,-138.369"/>
<polygon fill="midnightblue" stroke="midnightblue" points="360.349,-140.916 365.804,-131.834 355.876,-135.532 360.349,-140.916"/>
</g>
<!-- Node10 -->
<g id="node11" class="node"><title>Node10</title>
<polygon fill="none" stroke="#bfbfbf" points="61.4377,-112.5 61.4377,-131.5 121.438,-131.5 121.438,-112.5 61.4377,-112.5"/>
<text text-anchor="middle" x="91.4377" y="-119.5" font-family="FreeSans" font-size="10.00">wx/timer.h</text>
</g>
<!-- Node6&#45;&gt;Node10 -->
<g id="edge10" class="edge"><title>Node6&#45;&gt;Node10</title>
<path fill="none" stroke="midnightblue" d="M281.768,-169.717C243.004,-160.203 174.977,-143.505 131.619,-132.863"/>
<polygon fill="midnightblue" stroke="midnightblue" points="132.24,-129.411 121.694,-130.427 130.572,-136.21 132.24,-129.411"/>
</g>
<!-- Node11 -->
<g id="node12" class="node"><title>Node11</title>
<g id="a_node12"><a xlink:href="settings_8h" target="_top" xlink:title="settings.h">
<polygon fill="none" stroke="black" points="588.938,-0.5 588.938,-19.5 645.938,-19.5 645.938,-0.5 588.938,-0.5"/>
<text text-anchor="middle" x="617.438" y="-7.5" font-family="FreeSans" font-size="10.00">settings.h</text>
</a>
</g>
</g>
<!-- Node6&#45;&gt;Node11 -->
<g id="edge11" class="edge"><title>Node6&#45;&gt;Node11</title>
<path fill="none" stroke="midnightblue" d="M281.886,-172.339C240.929,-164.535 174.404,-146.204 197.438,-112 240.287,-48.3694 482.876,-21.9371 578.598,-13.886"/>
<polygon fill="midnightblue" stroke="midnightblue" points="579.045,-17.3612 588.726,-13.057 578.473,-10.3845 579.045,-17.3612"/>
</g>
<!-- Node12 -->
<g id="node13" class="node"><title>Node12</title>
<g id="a_node13"><a xlink:href="editorbase_8h" target="_top" xlink:title="editorbase.h">
<polygon fill="none" stroke="red" points="215.438,-112.5 215.438,-131.5 283.438,-131.5 283.438,-112.5 215.438,-112.5"/>
<text text-anchor="middle" x="249.438" y="-119.5" font-family="FreeSans" font-size="10.00">editorbase.h</text>
</a>
</g>
</g>
<!-- Node6&#45;&gt;Node12 -->
<g id="edge12" class="edge"><title>Node6&#45;&gt;Node12</title>
<path fill="none" stroke="midnightblue" d="M301.476,-168.324C292.311,-160.341 278.501,-148.313 267.41,-138.653"/>
<polygon fill="midnightblue" stroke="midnightblue" points="269.42,-135.762 259.58,-131.834 264.822,-141.041 269.42,-135.762"/>
</g>
<!-- Node26 -->
<g id="node15" class="node"><title>Node26</title>
<g id="a_node15"><a xlink:href="printing__types_8h" target="_top" xlink:title="printing_types.h">
<polygon fill="none" stroke="red" points="344.938,-56.5 344.938,-75.5 427.938,-75.5 427.938,-56.5 344.938,-56.5"/>
<text text-anchor="middle" x="386.438" y="-63.5" font-family="FreeSans" font-size="10.00">printing_types.h</text>
</a>
</g>
</g>
<!-- Node6&#45;&gt;Node26 -->
<g id="edge18" class="edge"><title>Node6&#45;&gt;Node26</title>
<path fill="none" stroke="midnightblue" d="M281.92,-171.029C243.227,-161.865 182.886,-142.164 206.438,-112 222.136,-91.8942 287.305,-79.4423 334.725,-72.8693"/>
<polygon fill="midnightblue" stroke="midnightblue" points="335.401,-76.3101 344.85,-71.5167 334.474,-69.3718 335.401,-76.3101"/>
</g>
<!-- Node12&#45;&gt;Node7 -->
<g id="edge13" class="edge"><title>Node12&#45;&gt;Node7</title>
<path fill="none" stroke="midnightblue" d="M283.586,-114.27C331.8,-104.768 420.063,-87.373 475.025,-76.5413"/>
<polygon fill="midnightblue" stroke="midnightblue" points="475.748,-79.9661 484.882,-74.5985 474.394,-73.0982 475.748,-79.9661"/>
</g>
<!-- Node12&#45;&gt;Node11 -->
<g id="edge17" class="edge"><title>Node12&#45;&gt;Node11</title>
<path fill="none" stroke="midnightblue" d="M283.597,-115.307C321.646,-108.389 384.62,-95.2093 436.438,-76 454.703,-69.229 457.424,-63.4126 475.438,-56 509.774,-41.8711 550.26,-29.4362 579.198,-21.2391"/>
<polygon fill="midnightblue" stroke="midnightblue" points="580.234,-24.5836 588.923,-18.5207 578.35,-17.8421 580.234,-24.5836"/>
</g>
<!-- Node12&#45;&gt;Node16 -->
<g id="edge14" class="edge"><title>Node12&#45;&gt;Node16</title>
<path fill="none" stroke="midnightblue" d="M283.543,-116.349C357.365,-106.283 531.471,-82.5409 608.113,-72.0897"/>
<polygon fill="midnightblue" stroke="midnightblue" points="608.825,-75.5251 618.26,-70.706 607.879,-68.5893 608.825,-75.5251"/>
</g>
<!-- Node16&#45;&gt;Node2 -->
<g id="edge15" class="edge"><title>Node16&#45;&gt;Node2</title>
<path fill="none" stroke="midnightblue" d="M672.64,-61.3731C742.118,-52.1093 926.447,-27.5321 1009.2,-16.4981"/>
<polygon fill="midnightblue" stroke="midnightblue" points="1009.8,-19.9499 1019.25,-15.1589 1008.87,-13.0113 1009.8,-19.9499"/>
</g>
<!-- Node16&#45;&gt;Node11 -->
<g id="edge16" class="edge"><title>Node16&#45;&gt;Node11</title>
<path fill="none" stroke="midnightblue" d="M640.814,-56.083C636.981,-48.6913 631.413,-37.9533 626.673,-28.8111"/>
<polygon fill="midnightblue" stroke="midnightblue" points="629.686,-27.0175 621.975,-19.7511 623.471,-30.2398 629.686,-27.0175"/>
</g>
<!-- Node26&#45;&gt;Node11 -->
<g id="edge19" class="edge"><title>Node26&#45;&gt;Node11</title>
<path fill="none" stroke="midnightblue" d="M423.04,-56.4435C465.558,-46.5044 535.398,-30.1782 578.775,-20.0381"/>
<polygon fill="midnightblue" stroke="midnightblue" points="579.729,-23.4096 588.669,-17.7251 578.135,-16.5933 579.729,-23.4096"/>
</g>
<!-- Node28&#45;&gt;Node2 -->
<g id="edge21" class="edge"><title>Node28&#45;&gt;Node2</title>
<path fill="none" stroke="midnightblue" d="M596.427,-229.822C592.071,-215.585 585.831,-186.959 598.438,-168 616.251,-141.211 834.879,-66.0556 865.438,-56 913.941,-40.0398 971.27,-26.9557 1009.11,-19.0881"/>
<polygon fill="midnightblue" stroke="midnightblue" points="1010.15,-22.4476 1019.25,-17.0093 1008.75,-15.5904 1010.15,-22.4476"/>
</g>
<!-- Node28&#45;&gt;Node11 -->
<g id="edge22" class="edge"><title>Node28&#45;&gt;Node11</title>
<path fill="none" stroke="midnightblue" d="M538.348,-237.509C396.502,-234.606 54.0857,-223.916 17.4377,-188 -6.76164,-164.284 -2.56324,-142.855 11.4377,-112 27.0557,-77.5817 40.6375,-70.7475 75.4377,-56 166.304,-17.4932 470.163,-11.868 578.586,-11.0999"/>
<polygon fill="midnightblue" stroke="midnightblue" points="578.774,-14.599 588.752,-11.0383 578.731,-7.5991 578.774,-14.599"/>
</g>
<!-- Node29 -->
<g id="node17" class="node"><title>Node29</title>
<g id="a_node17"><a xlink:href="debuggermanager_8h" target="_top" xlink:title="debuggermanager.h">
<polygon fill="none" stroke="red" points="808.938,-168.5 808.938,-187.5 909.938,-187.5 909.938,-168.5 808.938,-168.5"/>
<text text-anchor="middle" x="859.438" y="-175.5" font-family="FreeSans" font-size="10.00">debuggermanager.h</text>
</a>
</g>
</g>
<!-- Node28&#45;&gt;Node29 -->
<g id="edge23" class="edge"><title>Node28&#45;&gt;Node29</title>
<path fill="none" stroke="midnightblue" d="M636.689,-229.975C682.93,-219.393 761.837,-201.336 812.259,-189.797"/>
<polygon fill="midnightblue" stroke="midnightblue" points="813.288,-193.152 822.255,-187.509 811.726,-186.328 813.288,-193.152"/>
</g>
<!-- Node29&#45;&gt;Node1 -->
<g id="edge24" class="edge"><title>Node29&#45;&gt;Node1</title>
<path fill="none" stroke="midnightblue" d="M910.007,-168.984C953.189,-161.485 1016.66,-148.904 1070.44,-132 1169.58,-100.837 1281.62,-48.2685 1331.31,-23.9977"/>
<polygon fill="midnightblue" stroke="midnightblue" points="1332.96,-27.0855 1340.4,-19.5356 1329.88,-20.8024 1332.96,-27.0855"/>
</g>
<!-- Node29&#45;&gt;Node2 -->
<g id="edge25" class="edge"><title>Node29&#45;&gt;Node2</title>
<path fill="none" stroke="midnightblue" d="M862.533,-168.254C871.536,-143.248 898.224,-72.2101 916.438,-56 942.234,-33.0411 980.159,-21.7256 1009.08,-16.1902"/>
<polygon fill="midnightblue" stroke="midnightblue" points="1010.05,-19.5747 1019.29,-14.4015 1008.84,-12.6797 1010.05,-19.5747"/>
</g>
<!-- Node29&#45;&gt;Node11 -->
<g id="edge26" class="edge"><title>Node29&#45;&gt;Node11</title>
<path fill="none" stroke="midnightblue" d="M858.985,-168.34C857.837,-154.758 853.779,-128.318 839.438,-112 790.767,-56.6227 705.608,-29.8525 656.109,-18.3926"/>
<polygon fill="midnightblue" stroke="midnightblue" points="656.634,-14.9242 646.113,-16.1748 655.118,-21.758 656.634,-14.9242"/>
</g>
<!-- Node30 -->
<g id="node18" class="node"><title>Node30</title>
<g id="a_node18"><a xlink:href="manager_8h" target="_top" xlink:title="manager.h">
<polygon fill="none" stroke="red" points="925.438,-56.5 925.438,-75.5 987.438,-75.5 987.438,-56.5 925.438,-56.5"/>
<text text-anchor="middle" x="956.438" y="-63.5" font-family="FreeSans" font-size="10.00">manager.h</text>
</a>
</g>
</g>
<!-- Node29&#45;&gt;Node30 -->
<g id="edge27" class="edge"><title>Node29&#45;&gt;Node30</title>
<path fill="none" stroke="midnightblue" d="M870.925,-168.437C881.983,-159.889 898.837,-146.038 911.438,-132 924.717,-117.206 937.375,-98.3444 945.864,-84.7543"/>
<polygon fill="midnightblue" stroke="midnightblue" points="949.032,-86.2822 951.258,-75.9237 943.058,-82.6334 949.032,-86.2822"/>
</g>
<!-- Node29&#45;&gt;Node35 -->
<g id="edge30" class="edge"><title>Node29&#45;&gt;Node35</title>
<path fill="none" stroke="midnightblue" d="M847.87,-168.324C837.018,-160.185 820.557,-147.839 807.554,-138.087"/>
<polygon fill="midnightblue" stroke="midnightblue" points="809.316,-135.034 799.216,-131.834 805.116,-140.634 809.316,-135.034"/>
</g>
<!-- Node30&#45;&gt;Node1 -->
<g id="edge28" class="edge"><title>Node30&#45;&gt;Node1</title>
<path fill="none" stroke="midnightblue" d="M987.57,-60.8076C1063.53,-50.5781 1257.44,-24.4658 1329.72,-14.7321"/>
<polygon fill="midnightblue" stroke="midnightblue" points="1330.42,-18.1703 1339.86,-13.3669 1329.48,-11.2329 1330.42,-18.1703"/>
</g>
<!-- Node30&#45;&gt;Node11 -->
<g id="edge29" class="edge"><title>Node30&#45;&gt;Node11</title>
<path fill="none" stroke="midnightblue" d="M925.153,-60.0166C863.074,-50.1279 724.459,-28.0476 656.507,-17.2235"/>
<polygon fill="midnightblue" stroke="midnightblue" points="656.657,-13.7033 646.231,-15.5865 655.556,-20.6161 656.657,-13.7033"/>
</g>
<!-- Node35&#45;&gt;Node1 -->
<g id="edge35" class="edge"><title>Node35&#45;&gt;Node1</title>
<path fill="none" stroke="midnightblue" d="M800.329,-112.476C822.825,-98.0782 871.182,-69.2203 916.438,-56 1067.55,-11.8567 1258.74,-9.52715 1329.48,-10.3735"/>
<polygon fill="midnightblue" stroke="midnightblue" points="1329.72,-13.8775 1339.77,-10.5306 1329.83,-6.87829 1329.72,-13.8775"/>
</g>
<!-- Node35&#45;&gt;Node7 -->
<g id="edge31" class="edge"><title>Node35&#45;&gt;Node7</title>
<path fill="none" stroke="midnightblue" d="M745.606,-112.444C698.407,-102.789 621.744,-87.1082 571.957,-76.9243"/>
<polygon fill="midnightblue" stroke="midnightblue" points="572.566,-73.4766 562.067,-74.9015 571.163,-80.3346 572.566,-73.4766"/>
</g>
<!-- Node35&#45;&gt;Node11 -->
<g id="edge32" class="edge"><title>Node35&#45;&gt;Node11</title>
<path fill="none" stroke="midnightblue" d="M774.098,-112.368C744.926,-93.4924 675.214,-48.385 639.44,-25.2367"/>
<polygon fill="midnightblue" stroke="midnightblue" points="641.012,-22.0855 630.715,-19.5914 637.21,-27.9625 641.012,-22.0855"/>
</g>
<!-- Node35&#45;&gt;Node16 -->
<g id="edge33" class="edge"><title>Node35&#45;&gt;Node16</title>
<path fill="none" stroke="midnightblue" d="M764.937,-112.444C741.36,-103.478 704.115,-89.314 677.474,-79.1827"/>
<polygon fill="midnightblue" stroke="midnightblue" points="678.424,-75.7995 667.833,-75.5164 675.936,-82.3424 678.424,-75.7995"/>
</g>
<!-- Node35&#45;&gt;Node30 -->
<g id="edge34" class="edge"><title>Node35&#45;&gt;Node30</title>
<path fill="none" stroke="midnightblue" d="M814.216,-112.444C842.771,-103.32 888.17,-88.8133 919.975,-78.6509"/>
<polygon fill="midnightblue" stroke="midnightblue" points="921.324,-81.8941 929.784,-75.5164 919.194,-75.2262 921.324,-81.8941"/>
</g>
<!-- Node42&#45;&gt;Node7 -->
<g id="edge40" class="edge"><title>Node42&#45;&gt;Node7</title>
<path fill="none" stroke="midnightblue" d="M561.007,-112.083C554.585,-104.377 545.132,-93.0333 537.315,-83.6531"/>
<polygon fill="midnightblue" stroke="midnightblue" points="539.821,-81.1927 530.73,-75.7511 534.443,-85.674 539.821,-81.1927"/>
</g>
<!-- Node42&#45;&gt;Node11 -->
<g id="edge41" class="edge"><title>Node42&#45;&gt;Node11</title>
<path fill="none" stroke="midnightblue" d="M572.283,-112.368C580.262,-94.4563 598.763,-52.9233 609.443,-28.9482"/>
<polygon fill="midnightblue" stroke="midnightblue" points="612.739,-30.1503 613.611,-19.5914 606.344,-27.3019 612.739,-30.1503"/>
</g>
<!-- Node42&#45;&gt;Node16 -->
<g id="edge44" class="edge"><title>Node42&#45;&gt;Node16</title>
<path fill="none" stroke="midnightblue" d="M580.809,-112.324C592.596,-104.058 610.57,-91.4527 624.573,-81.6322"/>
<polygon fill="midnightblue" stroke="midnightblue" points="626.919,-84.2619 633.097,-75.6545 622.9,-78.5307 626.919,-84.2619"/>
</g>
<!-- Node42&#45;&gt;Node26 -->
<g id="edge43" class="edge"><title>Node42&#45;&gt;Node26</title>
<path fill="none" stroke="midnightblue" d="M539.599,-112.444C508.582,-103.241 459.109,-88.5617 424.819,-78.3879"/>
<polygon fill="midnightblue" stroke="midnightblue" points="425.724,-75.0055 415.141,-75.5164 423.733,-81.7164 425.724,-75.0055"/>
</g>
<!-- Node42&#45;&gt;Node30 -->
<g id="edge42" class="edge"><title>Node42&#45;&gt;Node30</title>
<path fill="none" stroke="midnightblue" d="M611.443,-115.015C686.572,-104.559 840.766,-83.0986 914.872,-72.7849"/>
<polygon fill="midnightblue" stroke="midnightblue" points="915.783,-76.1919 925.205,-71.3468 914.818,-69.2587 915.783,-76.1919"/>
</g>
<!-- Node44&#45;&gt;Node2 -->
<g id="edge47" class="edge"><title>Node44&#45;&gt;Node2</title>
<path fill="none" stroke="midnightblue" d="M57.345,-168.319C50.1025,-154.71 39.1022,-128.233 52.4377,-112 93.1322,-62.4638 271.863,-64.2537 335.438,-56 590.246,-22.919 899.421,-13.9247 1009.28,-11.685"/>
<polygon fill="midnightblue" stroke="midnightblue" points="1009.36,-15.1843 1019.29,-11.4887 1009.22,-8.18569 1009.36,-15.1843"/>
</g>
<!-- Node44&#45;&gt;Node10 -->
<g id="edge46" class="edge"><title>Node44&#45;&gt;Node10</title>
<path fill="none" stroke="midnightblue" d="M67.2265,-168.083C71.1961,-160.691 76.9628,-149.953 81.8725,-140.811"/>
<polygon fill="midnightblue" stroke="midnightblue" points="85.0902,-142.217 86.7381,-131.751 78.9233,-138.905 85.0902,-142.217"/>
</g>
<!-- Node44&#45;&gt;Node11 -->
<g id="edge48" class="edge"><title>Node44&#45;&gt;Node11</title>
<path fill="none" stroke="midnightblue" d="M49.6271,-168.487C32.0562,-155.768 4.28777,-131.242 19.4377,-112 88.8274,-23.8682 456.961,-12.4756 578.481,-11.133"/>
<polygon fill="midnightblue" stroke="midnightblue" points="578.827,-14.63 588.794,-11.0371 578.762,-7.63034 578.827,-14.63"/>
</g>
<!-- Node48&#45;&gt;Node1 -->
<g id="edge51" class="edge"><title>Node48&#45;&gt;Node1</title>
<path fill="none" stroke="midnightblue" d="M1266.6,-168.075C1281.84,-141.719 1326.86,-63.878 1347.22,-28.6608"/>
<polygon fill="midnightblue" stroke="midnightblue" points="1350.51,-29.977 1352.48,-19.5681 1344.45,-26.4726 1350.51,-29.977"/>
</g>
<!-- Node48&#45;&gt;Node30 -->
<g id="edge50" class="edge"><title>Node48&#45;&gt;Node30</title>
<path fill="none" stroke="midnightblue" d="M1241.81,-168.475C1211.68,-155.529 1152.1,-130.466 1100.44,-112 1065.47,-99.5001 1025.06,-87.0428 995.97,-78.4152"/>
<polygon fill="midnightblue" stroke="midnightblue" points="996.76,-74.9993 986.179,-75.5294 994.782,-81.7137 996.76,-74.9993"/>
</g>
<!-- Node50&#45;&gt;Node3 -->
<g id="edge55" class="edge"><title>Node50&#45;&gt;Node3</title>
<path fill="none" stroke="midnightblue" d="M1206.18,-169.422C1209.31,-168.935 1212.42,-168.457 1215.44,-168 1314.41,-153.023 1431,-136.849 1491.45,-128.574"/>
<polygon fill="midnightblue" stroke="midnightblue" points="1491.93,-132.041 1501.36,-127.219 1490.98,-125.106 1491.93,-132.041"/>
</g>
<!-- Node50&#45;&gt;Node11 -->
<g id="edge53" class="edge"><title>Node50&#45;&gt;Node11</title>
<path fill="none" stroke="midnightblue" d="M1153,-168.288C1134.89,-144.608 1080.66,-79.277 1017.44,-56 951.652,-31.7784 743.295,-17.883 656.245,-13.0054"/>
<polygon fill="midnightblue" stroke="midnightblue" points="656.183,-9.49669 646.005,-12.442 655.798,-16.4861 656.183,-9.49669"/>
</g>
<!-- Node50&#45;&gt;Node30 -->
<g id="edge54" class="edge"><title>Node50&#45;&gt;Node30</title>
<path fill="none" stroke="midnightblue" d="M1149.6,-168.497C1133.76,-155.132 1101.28,-128.983 1070.44,-112 1045.76,-98.4096 1016.11,-86.8396 993.239,-78.8355"/>
<polygon fill="midnightblue" stroke="midnightblue" points="994.162,-75.452 983.567,-75.5214 991.893,-82.0741 994.162,-75.452"/>
</g>
<!-- Node51&#45;&gt;Node1 -->
<g id="edge57" class="edge"><title>Node51&#45;&gt;Node1</title>
<path fill="none" stroke="midnightblue" d="M1039.22,-112.46C1103.26,-92.0424 1264.72,-40.5628 1329.71,-19.8423"/>
<polygon fill="midnightblue" stroke="midnightblue" points="1331.16,-23.0508 1339.63,-16.6784 1329.04,-16.3816 1331.16,-23.0508"/>
</g>
<!-- Node51&#45;&gt;Node11 -->
<g id="edge58" class="edge"><title>Node51&#45;&gt;Node11</title>
<path fill="none" stroke="midnightblue" d="M1013.14,-112.289C1013.74,-98.1417 1012.63,-70.3152 996.438,-56 946.692,-12.0332 742.596,-9.32556 656.276,-10.2238"/>
<polygon fill="midnightblue" stroke="midnightblue" points="656.064,-6.72611 646.109,-10.3523 656.152,-13.7255 656.064,-6.72611"/>
</g>
<!-- Node51&#45;&gt;Node30 -->
<g id="edge59" class="edge"><title>Node51&#45;&gt;Node30</title>
<path fill="none" stroke="midnightblue" d="M1003.44,-112.324C995.243,-104.42 982.932,-92.5482 972.966,-82.9377"/>
<polygon fill="midnightblue" stroke="midnightblue" points="975.227,-80.2558 965.599,-75.8339 970.368,-85.2947 975.227,-80.2558"/>
</g>
<!-- Node55&#45;&gt;Node2 -->
<g id="edge62" class="edge"><title>Node55&#45;&gt;Node2</title>
<path fill="none" stroke="midnightblue" d="M877.918,-224.358C938.306,-195.388 1070.44,-132 1070.44,-132 1090.67,-99.8492 1072.99,-53.7394 1060.41,-28.7447"/>
<polygon fill="midnightblue" stroke="midnightblue" points="1063.39,-26.9005 1055.61,-19.7077 1057.21,-30.1817 1063.39,-26.9005"/>
</g>
<!-- Node55&#45;&gt;Node6 -->
<g id="edge70" class="edge"><title>Node55&#45;&gt;Node6</title>
<path fill="none" stroke="midnightblue" d="M802.653,-233.427C699.137,-221.957 448.528,-194.19 351.105,-183.395"/>
<polygon fill="midnightblue" stroke="midnightblue" points="351.405,-179.907 341.08,-182.284 350.634,-186.864 351.405,-179.907"/>
</g>
<!-- Node55&#45;&gt;Node16 -->
<g id="edge63" class="edge"><title>Node55&#45;&gt;Node16</title>
<path fill="none" stroke="midnightblue" d="M831.825,-224.465C794.147,-192.634 702.459,-115.173 663.466,-82.231"/>
<polygon fill="midnightblue" stroke="midnightblue" points="665.467,-79.3397 655.57,-75.5597 660.95,-84.6869 665.467,-79.3397"/>
</g>
<!-- Node55&#45;&gt;Node35 -->
<g id="edge66" class="edge"><title>Node55&#45;&gt;Node35</title>
<path fill="none" stroke="midnightblue" d="M829.805,-224.098C819.243,-214.914 806.721,-202.112 799.438,-188 791.955,-173.501 789.082,-155.056 788.007,-141.521"/>
<polygon fill="midnightblue" stroke="midnightblue" points="791.5,-141.298 787.465,-131.501 784.51,-141.676 791.5,-141.298"/>
</g>
<!-- Node55&#45;&gt;Node41 -->
<g id="edge64" class="edge"><title>Node55&#45;&gt;Node41</title>
<path fill="none" stroke="midnightblue" d="M802.881,-225.147C767.285,-214.714 718.342,-200.368 684.517,-190.454"/>
<polygon fill="midnightblue" stroke="midnightblue" points="685.117,-186.983 674.536,-187.529 683.148,-193.7 685.117,-186.983"/>
</g>
<!-- Node55&#45;&gt;Node42 -->
<g id="edge67" class="edge"><title>Node55&#45;&gt;Node42</title>
<path fill="none" stroke="midnightblue" d="M814.155,-224.468C790.075,-214.515 757.166,-200.72 728.438,-188 709.165,-179.466 704.841,-176.232 685.438,-168 657.39,-156.1 625.028,-143.757 601.459,-135.015"/>
<polygon fill="midnightblue" stroke="midnightblue" points="602.527,-131.679 591.934,-131.501 600.104,-138.246 602.527,-131.679"/>
</g>
<!-- Node55&#45;&gt;Node48 -->
<g id="edge65" class="edge"><title>Node55&#45;&gt;Node48</title>
<path fill="none" stroke="midnightblue" d="M893.951,-227.072C899.156,-225.947 904.4,-224.893 909.438,-224 1040.69,-200.735 1077.82,-208.46 1214.28,-187.9"/>
<polygon fill="midnightblue" stroke="midnightblue" points="1214.92,-191.342 1224.28,-186.37 1213.87,-184.423 1214.92,-191.342"/>
</g>
<!-- Node55&#45;&gt;Node50 -->
<g id="edge68" class="edge"><title>Node55&#45;&gt;Node50</title>
<path fill="none" stroke="midnightblue" d="M894.01,-227.377C899.204,-226.195 904.429,-225.045 909.438,-224 975.472,-210.22 1051.85,-196.841 1102.63,-188.304"/>
<polygon fill="midnightblue" stroke="midnightblue" points="1103.47,-191.713 1112.75,-186.61 1102.31,-184.809 1103.47,-191.713"/>
</g>
<!-- Node55&#45;&gt;Node51 -->
<g id="edge69" class="edge"><title>Node55&#45;&gt;Node51</title>
<path fill="none" stroke="midnightblue" d="M868.547,-224.337C899.842,-202.297 959.891,-160.007 991.616,-137.664"/>
<polygon fill="midnightblue" stroke="midnightblue" points="993.967,-140.289 1000.13,-131.669 989.937,-134.566 993.967,-140.289"/>
</g>
<!-- Node55&#45;&gt;Node54 -->
<g id="edge71" class="edge"><title>Node55&#45;&gt;Node54</title>
<path fill="none" stroke="midnightblue" d="M891.569,-224.399C923.207,-214.056 965.636,-200.185 995.237,-190.508"/>
<polygon fill="midnightblue" stroke="midnightblue" points="996.332,-193.832 1004.75,-187.398 994.157,-187.179 996.332,-193.832"/>
</g>
<!-- Node71&#45;&gt;Node2 -->
<g id="edge73" class="edge"><title>Node71&#45;&gt;Node2</title>
<path fill="none" stroke="midnightblue" d="M1005.94,-238.868C1089.79,-238.551 1268.94,-232.54 1307.44,-188 1351.74,-136.744 1410.12,-181.84 1217.44,-56 1179.23,-31.0437 1127.52,-19.8588 1091.81,-14.8898"/>
<polygon fill="midnightblue" stroke="midnightblue" points="1092.1,-11.3979 1081.73,-13.5927 1091.2,-18.3407 1092.1,-11.3979"/>
</g>
<!-- Node71&#45;&gt;Node29 -->
<g id="edge74" class="edge"><title>Node71&#45;&gt;Node29</title>
<path fill="none" stroke="midnightblue" d="M947.68,-229.975C930.777,-220.211 902.855,-204.081 882.947,-192.581"/>
<polygon fill="midnightblue" stroke="midnightblue" points="884.578,-189.481 874.168,-187.509 881.076,-195.542 884.578,-189.481"/>
</g>
<!-- Node73&#45;&gt;Node1 -->
<g id="edge76" class="edge"><title>Node73&#45;&gt;Node1</title>
<path fill="none" stroke="midnightblue" d="M1506.54,-291.416C1536.19,-274.302 1596.44,-232.9 1596.44,-179 1596.44,-179 1596.44,-179 1596.44,-121 1596.44,-28.813 1447.89,-13.613 1385.02,-11.3082"/>
<polygon fill="midnightblue" stroke="midnightblue" points="1385.11,-7.8094 1375.01,-11.0252 1384.91,-14.8066 1385.11,-7.8094"/>
</g>
<!-- Node73&#45;&gt;Node3 -->
<g id="edge77" class="edge"><title>Node73&#45;&gt;Node3</title>
<path fill="none" stroke="midnightblue" d="M1492.46,-291.463C1498.91,-264.311 1519.03,-179.512 1528.02,-141.618"/>
<polygon fill="midnightblue" stroke="midnightblue" points="1531.43,-142.406 1530.33,-131.868 1524.62,-140.79 1531.43,-142.406"/>
</g>
<!-- Node73&#45;&gt;Node71 -->
<g id="edge81" class="edge"><title>Node73&#45;&gt;Node71</title>
<path fill="none" stroke="midnightblue" d="M1450.37,-292.382C1447.35,-291.887 1444.35,-291.42 1441.44,-291 1287.79,-268.823 1105.08,-252.253 1016.27,-244.821"/>
<polygon fill="midnightblue" stroke="midnightblue" points="1016.42,-241.322 1006.17,-243.981 1015.84,-248.298 1016.42,-241.322"/>
</g>
<!-- Node73&#45;&gt;Node82 -->
<g id="edge78" class="edge"><title>Node73&#45;&gt;Node82</title>
<path fill="none" stroke="midnightblue" d="M1477.83,-291.475C1463.71,-281.931 1440.61,-266.307 1423.69,-254.868"/>
<polygon fill="midnightblue" stroke="midnightblue" points="1425.27,-251.711 1415.02,-249.009 1421.35,-257.51 1425.27,-251.711"/>
</g>
<!-- Node82&#45;&gt;Node1 -->
<g id="edge79" class="edge"><title>Node82&#45;&gt;Node1</title>
<path fill="none" stroke="midnightblue" d="M1406.29,-229.835C1411.71,-216.551 1420.5,-190.345 1416.44,-168 1406.84,-115.183 1380.47,-57.0151 1366.46,-28.5953"/>
<polygon fill="midnightblue" stroke="midnightblue" points="1369.53,-26.9026 1361.91,-19.5358 1363.27,-30.0432 1369.53,-26.9026"/>
</g>
<!-- Node82&#45;&gt;Node2 -->
<g id="edge80" class="edge"><title>Node82&#45;&gt;Node2</title>
<path fill="none" stroke="midnightblue" d="M1404.23,-229.673C1409.66,-200.196 1422.68,-104.303 1373.44,-56 1334.35,-17.6582 1169.97,-11.5656 1091.92,-10.8785"/>
<polygon fill="midnightblue" stroke="midnightblue" points="1091.52,-7.37609 1081.5,-10.8146 1091.48,-14.376 1091.52,-7.37609"/>
</g>
<!-- Node84&#45;&gt;Node3 -->
<g id="edge84" class="edge"><title>Node84&#45;&gt;Node3</title>
<path fill="none" stroke="midnightblue" d="M1413.95,-291.43C1427.48,-283.372 1447,-270.283 1460.44,-255 1491.64,-219.504 1514.72,-168.191 1525.56,-141.189"/>
<polygon fill="midnightblue" stroke="midnightblue" points="1528.96,-142.106 1529.33,-131.517 1522.44,-139.562 1528.96,-142.106"/>
</g>
<!-- Node84&#45;&gt;Node82 -->
<g id="edge83" class="edge"><title>Node84&#45;&gt;Node82</title>
<path fill="none" stroke="midnightblue" d="M1399.01,-291.475C1399.58,-283.08 1400.46,-269.981 1401.18,-259.163"/>
<polygon fill="midnightblue" stroke="midnightblue" points="1404.69,-259.221 1401.87,-249.009 1397.7,-258.752 1404.69,-259.221"/>
</g>
<!-- Node86&#45;&gt;Node71 -->
<g id="edge87" class="edge"><title>Node86&#45;&gt;Node71</title>
<path fill="none" stroke="midnightblue" d="M962.438,-291.475C962.438,-283.08 962.438,-269.981 962.438,-259.163"/>
<polygon fill="midnightblue" stroke="midnightblue" points="965.938,-259.009 962.438,-249.009 958.938,-259.009 965.938,-259.009"/>
</g>
</g>
</svg>
