<?xml version="1.0" encoding="UTF-8" standalone="no"?>
<!DOCTYPE svg PUBLIC "-//W3C//DTD SVG 1.1//EN"
 "http://www.w3.org/Graphics/SVG/1.1/DTD/svg11.dtd">
<!-- Generated by graphviz version 2.40.1 (20161225.0304)
 -->
<!-- Title: genericsinglechoicelist.h Pages: 1 -->
<svg width="226pt" height="84pt"
 viewBox="0.00 0.00 226.00 84.00" xmlns="http://www.w3.org/2000/svg" xmlns:xlink="http://www.w3.org/1999/xlink">
<g id="graph0" class="graph" transform="scale(1 1) rotate(0) translate(4 80)">
<title>genericsinglechoicelist.h</title>
<!-- Node5 -->
<g id="node1" class="node">
<title>Node5</title>
<polygon fill="#bfbfbf" stroke="#000000" points="64,-56.5 64,-75.5 185,-75.5 185,-56.5 64,-56.5"/>
<text text-anchor="middle" x="124.5" y="-63.5" font-family="FreeSans" font-size="10.00" fill="#000000">genericsinglechoicelist.h</text>
</g>
<!-- Node6 -->
<g id="node2" class="node">
<title>Node6</title>
<g id="a_node2"><a xlink:href="genericsinglechoicelist_8cpp" target="_top" xlink:title="genericsinglechoicelist.cpp">
<polygon fill="none" stroke="#000000" points="0,-.5 0,-19.5 131,-19.5 131,-.5 0,-.5"/>
<text text-anchor="middle" x="65.5" y="-7.5" font-family="FreeSans" font-size="10.00" fill="#000000">genericsinglechoicelist.cpp</text>
</a>
</g>
</g>
<!-- Node5&#45;&gt;Node6 -->
<g id="edge1" class="edge">
<title>Node5&#45;&gt;Node6</title>
<path fill="none" stroke="#191970" d="M106.9693,-49.3607C96.7623,-39.6727 84.2531,-27.7995 75.6592,-19.6427"/>
<polygon fill="#191970" stroke="#191970" points="104.5604,-51.8998 114.223,-56.2455 109.3794,-46.8227 104.5604,-51.8998"/>
</g>
<!-- Node7 -->
<g id="node3" class="node">
<title>Node7</title>
<g id="a_node3"><a xlink:href="wizpage_8cpp" target="_top" xlink:title="wizpage.cpp">
<polygon fill="none" stroke="#000000" points="149,-.5 149,-19.5 218,-19.5 218,-.5 149,-.5"/>
<text text-anchor="middle" x="183.5" y="-7.5" font-family="FreeSans" font-size="10.00" fill="#000000">wizpage.cpp</text>
</a>
</g>
</g>
<!-- Node5&#45;&gt;Node7 -->
<g id="edge2" class="edge">
<title>Node5&#45;&gt;Node7</title>
<path fill="none" stroke="#191970" d="M142.0307,-49.3607C152.2377,-39.6727 164.7469,-27.7995 173.3408,-19.6427"/>
<polygon fill="#191970" stroke="#191970" points="139.6206,-46.8227 134.777,-56.2455 144.4396,-51.8998 139.6206,-46.8227"/>
</g>
</g>
</svg>
