<?xml version="1.0" encoding="UTF-8" standalone="no"?>
<!DOCTYPE svg PUBLIC "-//W3C//DTD SVG 1.1//EN"
 "http://www.w3.org/Graphics/SVG/1.1/DTD/svg11.dtd">
<!-- Generated by graphviz version 2.38.0 (20140413.2041)
 -->
<!-- Title: genericselectpath.cpp Pages: 1 -->
<svg width="534pt" height="196pt"
 viewBox="0.00 0.00 534.00 196.00" xmlns="http://www.w3.org/2000/svg" xmlns:xlink="http://www.w3.org/1999/xlink">
<g id="graph0" class="graph" transform="scale(1 1) rotate(0) translate(4 192)">
<title>genericselectpath.cpp</title>
<polygon fill="white" stroke="none" points="-4,4 -4,-192 530,-192 530,4 -4,4"/>
<!-- Node1 -->
<g id="node1" class="node"><title>Node1</title>
<polygon fill="#bfbfbf" stroke="black" points="126,-168.5 126,-187.5 236,-187.5 236,-168.5 126,-168.5"/>
<text text-anchor="middle" x="181" y="-175.5" font-family="FreeSans" font-size="10.00">genericselectpath.cpp</text>
</g>
<!-- Node2 -->
<g id="node2" class="node"><title>Node2</title>
<g id="a_node2"><a xlink:href="sdk_8h.xhtml" target="_top" xlink:title="sdk.h">
<polygon fill="white" stroke="black" points="52.5,-112.5 52.5,-131.5 91.5,-131.5 91.5,-112.5 52.5,-112.5"/>
<text text-anchor="middle" x="72" y="-119.5" font-family="FreeSans" font-size="10.00">sdk.h</text>
</a>
</g>
</g>
<!-- Node1&#45;&gt;Node2 -->
<g id="edge1" class="edge"><title>Node1&#45;&gt;Node2</title>
<path fill="none" stroke="midnightblue" d="M163.487,-168.324C145.928,-159.625 118.669,-146.12 98.4688,-136.113"/>
<polygon fill="midnightblue" stroke="midnightblue" points="99.9837,-132.958 89.4693,-131.655 96.8762,-139.23 99.9837,-132.958"/>
</g>
<!-- Node6 -->
<g id="node6" class="node"><title>Node6</title>
<polygon fill="white" stroke="#bfbfbf" points="113,-112.5 113,-131.5 175,-131.5 175,-112.5 113,-112.5"/>
<text text-anchor="middle" x="144" y="-119.5" font-family="FreeSans" font-size="10.00">wx/string.h</text>
</g>
<!-- Node1&#45;&gt;Node6 -->
<g id="edge5" class="edge"><title>Node1&#45;&gt;Node6</title>
<path fill="none" stroke="midnightblue" d="M174.89,-168.083C169.718,-160.534 162.154,-149.495 155.806,-140.23"/>
<polygon fill="midnightblue" stroke="midnightblue" points="158.536,-138.022 149.996,-131.751 152.761,-141.979 158.536,-138.022"/>
</g>
<!-- Node7 -->
<g id="node7" class="node"><title>Node7</title>
<polygon fill="white" stroke="#bfbfbf" points="193.5,-112.5 193.5,-131.5 244.5,-131.5 244.5,-112.5 193.5,-112.5"/>
<text text-anchor="middle" x="219" y="-119.5" font-family="FreeSans" font-size="10.00">wx/intl.h</text>
</g>
<!-- Node1&#45;&gt;Node7 -->
<g id="edge6" class="edge"><title>Node1&#45;&gt;Node7</title>
<path fill="none" stroke="midnightblue" d="M187.275,-168.083C192.642,-160.455 200.518,-149.264 207.079,-139.941"/>
<polygon fill="midnightblue" stroke="midnightblue" points="209.949,-141.943 212.842,-131.751 204.225,-137.915 209.949,-141.943"/>
</g>
<!-- Node8 -->
<g id="node8" class="node"><title>Node8</title>
<g id="a_node8"><a xlink:href="genericselectpath_8h.xhtml" target="_top" xlink:title="genericselectpath.h">
<polygon fill="white" stroke="black" points="269,-112.5 269,-131.5 369,-131.5 369,-112.5 269,-112.5"/>
<text text-anchor="middle" x="319" y="-119.5" font-family="FreeSans" font-size="10.00">genericselectpath.h</text>
</a>
</g>
</g>
<!-- Node1&#45;&gt;Node8 -->
<g id="edge7" class="edge"><title>Node1&#45;&gt;Node8</title>
<path fill="none" stroke="midnightblue" d="M202.867,-168.444C225.779,-159.478 261.975,-145.314 287.866,-135.183"/>
<polygon fill="midnightblue" stroke="midnightblue" points="289.199,-138.42 297.236,-131.516 286.648,-131.901 289.199,-138.42"/>
</g>
<!-- Node3 -->
<g id="node3" class="node"><title>Node3</title>
<g id="a_node3"><a xlink:href="sdk__common_8h.xhtml" target="_top" xlink:title="sdk_common.h">
<polygon fill="white" stroke="black" points="30,-56.5 30,-75.5 112,-75.5 112,-56.5 30,-56.5"/>
<text text-anchor="middle" x="71" y="-63.5" font-family="FreeSans" font-size="10.00">sdk_common.h</text>
</a>
</g>
</g>
<!-- Node2&#45;&gt;Node3 -->
<g id="edge2" class="edge"><title>Node2&#45;&gt;Node3</title>
<path fill="none" stroke="midnightblue" d="M71.8349,-112.083C71.7038,-105.006 71.5159,-94.8611 71.3516,-85.9865"/>
<polygon fill="midnightblue" stroke="midnightblue" points="74.8467,-85.6845 71.1621,-75.7511 67.8479,-85.8142 74.8467,-85.6845"/>
</g>
<!-- Node4 -->
<g id="node4" class="node"><title>Node4</title>
<polygon fill="white" stroke="#bfbfbf" points="0,-0.5 0,-19.5 68,-19.5 68,-0.5 0,-0.5"/>
<text text-anchor="middle" x="34" y="-7.5" font-family="FreeSans" font-size="10.00">wx/wxprec.h</text>
</g>
<!-- Node3&#45;&gt;Node4 -->
<g id="edge3" class="edge"><title>Node3&#45;&gt;Node4</title>
<path fill="none" stroke="midnightblue" d="M64.8902,-56.083C59.7178,-48.5341 52.1539,-37.4948 45.8056,-28.2298"/>
<polygon fill="midnightblue" stroke="midnightblue" points="48.5357,-26.0221 39.9961,-19.7511 42.7612,-29.9787 48.5357,-26.0221"/>
</g>
<!-- Node5 -->
<g id="node5" class="node"><title>Node5</title>
<g id="a_node5"><a xlink:href="prep_8h.xhtml" target="_top" xlink:title="prep.h">
<polygon fill="white" stroke="black" points="86.5,-0.5 86.5,-19.5 129.5,-19.5 129.5,-0.5 86.5,-0.5"/>
<text text-anchor="middle" x="108" y="-7.5" font-family="FreeSans" font-size="10.00">prep.h</text>
</a>
</g>
</g>
<!-- Node3&#45;&gt;Node5 -->
<g id="edge4" class="edge"><title>Node3&#45;&gt;Node5</title>
<path fill="none" stroke="midnightblue" d="M77.1098,-56.083C82.2822,-48.5341 89.8461,-37.4948 96.1944,-28.2298"/>
<polygon fill="midnightblue" stroke="midnightblue" points="99.2388,-29.9787 102.004,-19.7511 93.4643,-26.0221 99.2388,-29.9787"/>
</g>
<!-- Node9 -->
<g id="node9" class="node"><title>Node9</title>
<polygon fill="white" stroke="#bfbfbf" points="130,-56.5 130,-75.5 188,-75.5 188,-56.5 130,-56.5"/>
<text text-anchor="middle" x="159" y="-63.5" font-family="FreeSans" font-size="10.00">wx/sizer.h</text>
</g>
<!-- Node8&#45;&gt;Node9 -->
<g id="edge8" class="edge"><title>Node8&#45;&gt;Node9</title>
<path fill="none" stroke="midnightblue" d="M293.648,-112.444C266.731,-103.359 224.004,-88.9388 193.913,-78.7831"/>
<polygon fill="midnightblue" stroke="midnightblue" points="194.828,-75.3981 184.234,-75.5164 192.59,-82.0305 194.828,-75.3981"/>
</g>
<!-- Node10 -->
<g id="node10" class="node"><title>Node10</title>
<polygon fill="white" stroke="#bfbfbf" points="206.5,-56.5 206.5,-75.5 271.5,-75.5 271.5,-56.5 206.5,-56.5"/>
<text text-anchor="middle" x="239" y="-63.5" font-family="FreeSans" font-size="10.00">wx/button.h</text>
</g>
<!-- Node8&#45;&gt;Node10 -->
<g id="edge9" class="edge"><title>Node8&#45;&gt;Node10</title>
<path fill="none" stroke="midnightblue" d="M306.147,-112.324C293.784,-103.979 274.87,-91.2122 260.263,-81.3524"/>
<polygon fill="midnightblue" stroke="midnightblue" points="262.068,-78.3483 251.821,-75.6545 258.152,-84.1503 262.068,-78.3483"/>
</g>
<!-- Node11 -->
<g id="node11" class="node"><title>Node11</title>
<polygon fill="white" stroke="#bfbfbf" points="290,-56.5 290,-75.5 352,-75.5 352,-56.5 290,-56.5"/>
<text text-anchor="middle" x="321" y="-63.5" font-family="FreeSans" font-size="10.00">wx/panel.h</text>
</g>
<!-- Node8&#45;&gt;Node11 -->
<g id="edge10" class="edge"><title>Node8&#45;&gt;Node11</title>
<path fill="none" stroke="midnightblue" d="M319.33,-112.083C319.592,-105.006 319.968,-94.8611 320.297,-85.9865"/>
<polygon fill="midnightblue" stroke="midnightblue" points="323.803,-85.8738 320.676,-75.7511 316.808,-85.6147 323.803,-85.8738"/>
</g>
<!-- Node12 -->
<g id="node12" class="node"><title>Node12</title>
<polygon fill="white" stroke="#bfbfbf" points="370,-56.5 370,-75.5 440,-75.5 440,-56.5 370,-56.5"/>
<text text-anchor="middle" x="405" y="-63.5" font-family="FreeSans" font-size="10.00">wx/stattext.h</text>
</g>
<!-- Node8&#45;&gt;Node12 -->
<g id="edge11" class="edge"><title>Node8&#45;&gt;Node12</title>
<path fill="none" stroke="midnightblue" d="M332.817,-112.324C346.233,-103.9 366.824,-90.9709 382.586,-81.0741"/>
<polygon fill="midnightblue" stroke="midnightblue" points="384.609,-83.9364 391.217,-75.6545 380.887,-78.0081 384.609,-83.9364"/>
</g>
<!-- Node13 -->
<g id="node13" class="node"><title>Node13</title>
<polygon fill="white" stroke="#bfbfbf" points="458,-56.5 458,-75.5 526,-75.5 526,-56.5 458,-56.5"/>
<text text-anchor="middle" x="492" y="-63.5" font-family="FreeSans" font-size="10.00">wx/textctrl.h</text>
</g>
<!-- Node8&#45;&gt;Node13 -->
<g id="edge12" class="edge"><title>Node8&#45;&gt;Node13</title>
<path fill="none" stroke="midnightblue" d="M346.412,-112.444C375.769,-103.28 422.519,-88.6876 455.096,-78.5192"/>
<polygon fill="midnightblue" stroke="midnightblue" points="456.213,-81.8371 464.716,-75.5164 454.127,-75.1551 456.213,-81.8371"/>
</g>
</g>
</svg>
