<?xml version="1.0" encoding="UTF-8" standalone="no"?>
<!DOCTYPE svg PUBLIC "-//W3C//DTD SVG 1.1//EN"
 "http://www.w3.org/Graphics/SVG/1.1/DTD/svg11.dtd">
<!-- Generated by graphviz version 2.38.0 (20140413.2041)
 -->
<!-- Title: globals.cpp Pages: 1 -->
<svg width="2716pt" height="252pt"
 viewBox="0.00 0.00 2716.00 252.00" xmlns="http://www.w3.org/2000/svg" xmlns:xlink="http://www.w3.org/1999/xlink">
<g id="graph0" class="graph" transform="scale(1 1) rotate(0) translate(4 248)">
<title>globals.cpp</title>
<polygon fill="white" stroke="none" points="-4,4 -4,-248 2712,-248 2712,4 -4,4"/>
<!-- Node1 -->
<g id="node1" class="node"><title>Node1</title>
<polygon fill="#bfbfbf" stroke="black" points="1481.5,-224.5 1481.5,-243.5 1546.5,-243.5 1546.5,-224.5 1481.5,-224.5"/>
<text text-anchor="middle" x="1514" y="-231.5" font-family="FreeSans" font-size="10.00">globals.cpp</text>
</g>
<!-- Node2 -->
<g id="node2" class="node"><title>Node2</title>
<g id="a_node2"><a xlink:href="sdk__precomp_8h" target="_top" xlink:title="sdk_precomp.h">
<polygon fill="white" stroke="black" points="0,-168.5 0,-187.5 82,-187.5 82,-168.5 0,-168.5"/>
<text text-anchor="middle" x="41" y="-175.5" font-family="FreeSans" font-size="10.00">sdk_precomp.h</text>
</a>
</g>
</g>
<!-- Node1&#45;&gt;Node2 -->
<g id="edge1" class="edge"><title>Node1&#45;&gt;Node2</title>
<path fill="none" stroke="midnightblue" d="M1481.21,-232.542C1295.86,-229.862 377.613,-215.392 96,-188 94.727,-187.876 93.4388,-187.741 92.1405,-187.596"/>
<polygon fill="midnightblue" stroke="midnightblue" points="92.4293,-184.105 82.0688,-186.321 91.5498,-191.05 92.4293,-184.105"/>
</g>
<!-- Node4 -->
<g id="node4" class="node"><title>Node4</title>
<polygon fill="white" stroke="#bfbfbf" points="140,-0.5 140,-19.5 190,-19.5 190,-0.5 140,-0.5"/>
<text text-anchor="middle" x="165" y="-7.5" font-family="FreeSans" font-size="10.00">wx/file.h</text>
</g>
<!-- Node1&#45;&gt;Node4 -->
<g id="edge3" class="edge"><title>Node1&#45;&gt;Node4</title>
<path fill="none" stroke="midnightblue" d="M1481.27,-233.038C1300.85,-233.079 431.722,-231.029 321,-188 244.947,-158.444 192.797,-67.7157 173.399,-28.9093"/>
<polygon fill="midnightblue" stroke="midnightblue" points="176.507,-27.2966 168.99,-19.8304 170.211,-30.3547 176.507,-27.2966"/>
</g>
<!-- Node5 -->
<g id="node5" class="node"><title>Node5</title>
<polygon fill="white" stroke="#bfbfbf" points="208,-0.5 208,-19.5 282,-19.5 282,-0.5 208,-0.5"/>
<text text-anchor="middle" x="245" y="-7.5" font-family="FreeSans" font-size="10.00">wx/filename.h</text>
</g>
<!-- Node1&#45;&gt;Node5 -->
<g id="edge4" class="edge"><title>Node1&#45;&gt;Node5</title>
<path fill="none" stroke="midnightblue" d="M1481.46,-233.238C1321.62,-234.172 618.677,-235.46 406,-188 343.402,-174.031 318.496,-177.207 273,-132 245.687,-104.86 242.854,-56.7068 243.639,-30.0619"/>
<polygon fill="midnightblue" stroke="midnightblue" points="247.149,-29.9475 244.158,-19.7838 240.158,-29.5947 247.149,-29.9475"/>
</g>
<!-- Node6 -->
<g id="node6" class="node"><title>Node6</title>
<polygon fill="white" stroke="#bfbfbf" points="1561,-168.5 1561,-187.5 1625,-187.5 1625,-168.5 1561,-168.5"/>
<text text-anchor="middle" x="1593" y="-175.5" font-family="FreeSans" font-size="10.00">wx/filesys.h</text>
</g>
<!-- Node1&#45;&gt;Node6 -->
<g id="edge5" class="edge"><title>Node1&#45;&gt;Node6</title>
<path fill="none" stroke="midnightblue" d="M1526.69,-224.324C1538.9,-215.979 1557.58,-203.212 1572,-193.352"/>
<polygon fill="midnightblue" stroke="midnightblue" points="1574.06,-196.187 1580.34,-187.655 1570.11,-190.408 1574.06,-196.187"/>
</g>
<!-- Node7 -->
<g id="node7" class="node"><title>Node7</title>
<polygon fill="white" stroke="#bfbfbf" points="1643.5,-168.5 1643.5,-187.5 1708.5,-187.5 1708.5,-168.5 1643.5,-168.5"/>
<text text-anchor="middle" x="1676" y="-175.5" font-family="FreeSans" font-size="10.00">wx/image.h</text>
</g>
<!-- Node1&#45;&gt;Node7 -->
<g id="edge6" class="edge"><title>Node1&#45;&gt;Node7</title>
<path fill="none" stroke="midnightblue" d="M1539.67,-224.444C1566.92,-215.359 1610.18,-200.939 1640.65,-190.783"/>
<polygon fill="midnightblue" stroke="midnightblue" points="1642.07,-193.999 1650.45,-187.516 1639.86,-187.358 1642.07,-193.999"/>
</g>
<!-- Node8 -->
<g id="node8" class="node"><title>Node8</title>
<polygon fill="white" stroke="#bfbfbf" points="1726.5,-168.5 1726.5,-187.5 1797.5,-187.5 1797.5,-168.5 1726.5,-168.5"/>
<text text-anchor="middle" x="1762" y="-175.5" font-family="FreeSans" font-size="10.00">wx/imaglist.h</text>
</g>
<!-- Node1&#45;&gt;Node8 -->
<g id="edge7" class="edge"><title>Node1&#45;&gt;Node8</title>
<path fill="none" stroke="midnightblue" d="M1546.68,-225.885C1590.15,-216.42 1667.21,-199.639 1716.39,-188.931"/>
<polygon fill="midnightblue" stroke="midnightblue" points="1717.42,-192.29 1726.44,-186.742 1715.93,-185.45 1717.42,-192.29"/>
</g>
<!-- Node9 -->
<g id="node9" class="node"><title>Node9</title>
<polygon fill="white" stroke="#bfbfbf" points="1816,-168.5 1816,-187.5 1880,-187.5 1880,-168.5 1816,-168.5"/>
<text text-anchor="middle" x="1848" y="-175.5" font-family="FreeSans" font-size="10.00">wx/listctrl.h</text>
</g>
<!-- Node1&#45;&gt;Node9 -->
<g id="edge8" class="edge"><title>Node1&#45;&gt;Node9</title>
<path fill="none" stroke="midnightblue" d="M1546.63,-228.68C1599.12,-221.582 1705.74,-206.547 1805.83,-188.121"/>
<polygon fill="midnightblue" stroke="midnightblue" points="1806.62,-191.535 1815.81,-186.269 1805.34,-184.653 1806.62,-191.535"/>
</g>
<!-- Node10 -->
<g id="node10" class="node"><title>Node10</title>
<polygon fill="white" stroke="#bfbfbf" points="1898,-168.5 1898,-187.5 1960,-187.5 1960,-168.5 1898,-168.5"/>
<text text-anchor="middle" x="1929" y="-175.5" font-family="FreeSans" font-size="10.00">wx/menu.h</text>
</g>
<!-- Node1&#45;&gt;Node10 -->
<g id="edge9" class="edge"><title>Node1&#45;&gt;Node10</title>
<path fill="none" stroke="midnightblue" d="M1546.51,-230.223C1610.16,-224.545 1755.81,-210.366 1887.74,-188.068"/>
<polygon fill="midnightblue" stroke="midnightblue" points="1888.35,-191.514 1897.62,-186.378 1887.17,-184.614 1888.35,-191.514"/>
</g>
<!-- Node11 -->
<g id="node11" class="node"><title>Node11</title>
<g id="a_node11"><a xlink:href="wxscintilla_8h" target="_top" xlink:title="wx/wxscintilla.h">
<polygon fill="white" stroke="black" points="1737,-112.5 1737,-131.5 1819,-131.5 1819,-112.5 1737,-112.5"/>
<text text-anchor="middle" x="1778" y="-119.5" font-family="FreeSans" font-size="10.00">wx/wxscintilla.h</text>
</a>
</g>
</g>
<!-- Node1&#45;&gt;Node11 -->
<g id="edge10" class="edge"><title>Node1&#45;&gt;Node11</title>
<path fill="none" stroke="midnightblue" d="M1516.53,-224.243C1521.11,-210.03 1532.2,-182.11 1552,-168 1579.51,-148.397 1669.06,-135.076 1726.83,-128.278"/>
<polygon fill="midnightblue" stroke="midnightblue" points="1727.34,-131.743 1736.88,-127.125 1726.54,-124.789 1727.34,-131.743"/>
</g>
<!-- Node18 -->
<g id="node18" class="node"><title>Node18</title>
<g id="a_node18"><a xlink:href="cbexception_8h" target="_top" xlink:title="cbexception.h">
<polygon fill="white" stroke="black" points="344,-112.5 344,-131.5 420,-131.5 420,-112.5 344,-112.5"/>
<text text-anchor="middle" x="382" y="-119.5" font-family="FreeSans" font-size="10.00">cbexception.h</text>
</a>
</g>
</g>
<!-- Node1&#45;&gt;Node18 -->
<g id="edge17" class="edge"><title>Node1&#45;&gt;Node18</title>
<path fill="none" stroke="midnightblue" d="M1481.49,-233.237C1311.54,-234.268 529.425,-236.334 434,-188 414.118,-177.929 399.319,-156.403 390.695,-140.878"/>
<polygon fill="midnightblue" stroke="midnightblue" points="393.651,-138.976 385.927,-131.724 387.442,-142.21 393.651,-138.976"/>
</g>
<!-- Node21 -->
<g id="node21" class="node"><title>Node21</title>
<g id="a_node21"><a xlink:href="globals_8h" target="_top" xlink:title="globals.h">
<polygon fill="white" stroke="red" points="398,-56.5 398,-75.5 452,-75.5 452,-56.5 398,-56.5"/>
<text text-anchor="middle" x="425" y="-63.5" font-family="FreeSans" font-size="10.00">globals.h</text>
</a>
</g>
</g>
<!-- Node1&#45;&gt;Node21 -->
<g id="edge56" class="edge"><title>Node1&#45;&gt;Node21</title>
<path fill="none" stroke="midnightblue" d="M1481.44,-232.477C1311.43,-229.632 531.901,-215.141 489,-188 452.462,-164.885 435.534,-113.512 428.796,-85.7201"/>
<polygon fill="midnightblue" stroke="midnightblue" points="432.158,-84.7114 426.567,-75.7114 425.325,-86.2331 432.158,-84.7114"/>
</g>
<!-- Node22 -->
<g id="node22" class="node"><title>Node22</title>
<polygon fill="white" stroke="#bfbfbf" points="989.5,-0.5 989.5,-19.5 1058.5,-19.5 1058.5,-0.5 989.5,-0.5"/>
<text text-anchor="middle" x="1024" y="-7.5" font-family="FreeSans" font-size="10.00">wx/msgdlg.h</text>
</g>
<!-- Node1&#45;&gt;Node22 -->
<g id="edge72" class="edge"><title>Node1&#45;&gt;Node22</title>
<path fill="none" stroke="midnightblue" d="M1513.61,-224.313C1513.47,-210.696 1515.16,-184.207 1529,-168 1556.7,-135.547 1594.15,-167.379 1618,-132 1645.41,-91.3398 1584,-67.5323 1558,-56 1535.77,-46.1373 1193.42,-22.3528 1068.87,-13.9783"/>
<polygon fill="midnightblue" stroke="midnightblue" points="1068.76,-10.4632 1058.54,-13.2861 1068.29,-17.4475 1068.76,-10.4632"/>
</g>
<!-- Node24 -->
<g id="node24" class="node"><title>Node24</title>
<g id="a_node24"><a xlink:href="configmanager_8h" target="_top" xlink:title="configmanager.h">
<polygon fill="white" stroke="black" points="860.5,-112.5 860.5,-131.5 947.5,-131.5 947.5,-112.5 860.5,-112.5"/>
<text text-anchor="middle" x="904" y="-119.5" font-family="FreeSans" font-size="10.00">configmanager.h</text>
</a>
</g>
</g>
<!-- Node1&#45;&gt;Node24 -->
<g id="edge26" class="edge"><title>Node1&#45;&gt;Node24</title>
<path fill="none" stroke="midnightblue" d="M1481.28,-233.15C1405.44,-232.772 1212.27,-227.636 1057,-188 1010.02,-176.007 958.806,-151.76 929.15,-136.508"/>
<polygon fill="midnightblue" stroke="midnightblue" points="930.442,-133.234 919.957,-131.711 927.204,-139.44 930.442,-133.234"/>
</g>
<!-- Node28 -->
<g id="node28" class="node"><title>Node28</title>
<polygon fill="white" stroke="#bfbfbf" points="1069.5,-56.5 1069.5,-75.5 1156.5,-75.5 1156.5,-56.5 1069.5,-56.5"/>
<text text-anchor="middle" x="1113" y="-63.5" font-family="FreeSans" font-size="10.00">tinyxml/tinyxml.h</text>
</g>
<!-- Node1&#45;&gt;Node28 -->
<g id="edge67" class="edge"><title>Node1&#45;&gt;Node28</title>
<path fill="none" stroke="midnightblue" d="M1481.21,-229.9C1416.34,-222.454 1269.05,-198.92 1167,-132 1148.28,-119.725 1132.69,-98.9924 1123.15,-84.2441"/>
<polygon fill="midnightblue" stroke="midnightblue" points="1126.02,-82.2293 1117.79,-75.5656 1120.07,-85.9114 1126.02,-82.2293"/>
</g>
<!-- Node29 -->
<g id="node29" class="node"><title>Node29</title>
<g id="a_node29"><a xlink:href="manager_8h" target="_top" xlink:title="manager.h">
<polygon fill="white" stroke="red" points="1319,-56.5 1319,-75.5 1381,-75.5 1381,-56.5 1319,-56.5"/>
<text text-anchor="middle" x="1350" y="-63.5" font-family="FreeSans" font-size="10.00">manager.h</text>
</a>
</g>
</g>
<!-- Node1&#45;&gt;Node29 -->
<g id="edge60" class="edge"><title>Node1&#45;&gt;Node29</title>
<path fill="none" stroke="midnightblue" d="M1481.35,-224.815C1459.55,-217.975 1431.43,-206.331 1412,-188 1381.21,-158.942 1363.13,-111.199 1355.06,-85.222"/>
<polygon fill="midnightblue" stroke="midnightblue" points="1358.39,-84.1438 1352.21,-75.5394 1351.68,-86.1208 1358.39,-84.1438"/>
</g>
<!-- Node33 -->
<g id="node33" class="node"><title>Node33</title>
<g id="a_node33"><a xlink:href="filemanager_8h" target="_top" xlink:title="filemanager.h">
<polygon fill="white" stroke="red" points="514,-168.5 514,-187.5 588,-187.5 588,-168.5 514,-168.5"/>
<text text-anchor="middle" x="551" y="-175.5" font-family="FreeSans" font-size="10.00">filemanager.h</text>
</a>
</g>
</g>
<!-- Node1&#45;&gt;Node33 -->
<g id="edge42" class="edge"><title>Node1&#45;&gt;Node33</title>
<path fill="none" stroke="midnightblue" d="M1481.37,-233.095C1363.57,-233.082 949.135,-229.949 598.187,-187.954"/>
<polygon fill="midnightblue" stroke="midnightblue" points="598.432,-184.458 588.084,-186.732 597.591,-191.407 598.432,-184.458"/>
</g>
<!-- Node37 -->
<g id="node37" class="node"><title>Node37</title>
<polygon fill="white" stroke="#bfbfbf" points="1399,-56.5 1399,-75.5 1455,-75.5 1455,-56.5 1399,-56.5"/>
<text text-anchor="middle" x="1427" y="-63.5" font-family="FreeSans" font-size="10.00">algorithm</text>
</g>
<!-- Node1&#45;&gt;Node37 -->
<g id="edge74" class="edge"><title>Node1&#45;&gt;Node37</title>
<path fill="none" stroke="midnightblue" d="M1492.68,-224.369C1475.62,-216.69 1451.85,-204.178 1435,-188 1413.83,-167.674 1408.09,-160.213 1400,-132 1395.17,-115.176 1404.2,-96.8298 1413.09,-83.9318"/>
<polygon fill="midnightblue" stroke="midnightblue" points="1416.14,-85.7025 1419.34,-75.6027 1410.54,-81.5021 1416.14,-85.7025"/>
</g>
<!-- Node38 -->
<g id="node38" class="node"><title>Node38</title>
<g id="a_node38"><a xlink:href="logmanager_8h" target="_top" xlink:title="logmanager.h">
<polygon fill="white" stroke="red" points="1535,-112.5 1535,-131.5 1609,-131.5 1609,-112.5 1535,-112.5"/>
<text text-anchor="middle" x="1572" y="-119.5" font-family="FreeSans" font-size="10.00">logmanager.h</text>
</a>
</g>
</g>
<!-- Node1&#45;&gt;Node38 -->
<g id="edge57" class="edge"><title>Node1&#45;&gt;Node38</title>
<path fill="none" stroke="midnightblue" d="M1503.82,-224.332C1490.18,-211.625 1468.98,-187.352 1481,-168 1490.87,-152.105 1508.21,-141.654 1525.12,-134.866"/>
<polygon fill="midnightblue" stroke="midnightblue" points="1526.76,-137.99 1534.96,-131.279 1524.37,-131.413 1526.76,-137.99"/>
</g>
<!-- Node39 -->
<g id="node39" class="node"><title>Node39</title>
<g id="a_node39"><a xlink:href="projectmanager_8h" target="_top" xlink:title="projectmanager.h">
<polygon fill="white" stroke="red" points="606.5,-168.5 606.5,-187.5 697.5,-187.5 697.5,-168.5 606.5,-168.5"/>
<text text-anchor="middle" x="652" y="-175.5" font-family="FreeSans" font-size="10.00">projectmanager.h</text>
</a>
</g>
</g>
<!-- Node1&#45;&gt;Node39 -->
<g id="edge61" class="edge"><title>Node1&#45;&gt;Node39</title>
<path fill="none" stroke="midnightblue" d="M1481.26,-230.949C1351.56,-222.824 872.879,-192.837 708.136,-182.517"/>
<polygon fill="midnightblue" stroke="midnightblue" points="707.945,-178.998 697.746,-181.866 707.507,-185.984 707.945,-178.998"/>
</g>
<!-- Node40 -->
<g id="node40" class="node"><title>Node40</title>
<polygon fill="white" stroke="#bfbfbf" points="1978,-168.5 1978,-187.5 2040,-187.5 2040,-168.5 1978,-168.5"/>
<text text-anchor="middle" x="2009" y="-175.5" font-family="FreeSans" font-size="10.00">wx/dirdlg.h</text>
</g>
<!-- Node1&#45;&gt;Node40 -->
<g id="edge68" class="edge"><title>Node1&#45;&gt;Node40</title>
<path fill="none" stroke="midnightblue" d="M1546.73,-231.146C1620.23,-226.687 1804.13,-213.887 1967.4,-188.079"/>
<polygon fill="midnightblue" stroke="midnightblue" points="1968.31,-191.479 1977.63,-186.441 1967.2,-184.567 1968.31,-191.479"/>
</g>
<!-- Node41 -->
<g id="node41" class="node"><title>Node41</title>
<polygon fill="white" stroke="#bfbfbf" points="2058,-168.5 2058,-187.5 2126,-187.5 2126,-168.5 2058,-168.5"/>
<text text-anchor="middle" x="2092" y="-175.5" font-family="FreeSans" font-size="10.00">wx/display.h</text>
</g>
<!-- Node1&#45;&gt;Node41 -->
<g id="edge69" class="edge"><title>Node1&#45;&gt;Node41</title>
<path fill="none" stroke="midnightblue" d="M1546.73,-231.644C1629.16,-227.931 1852.13,-216.048 2047.63,-188.028"/>
<polygon fill="midnightblue" stroke="midnightblue" points="2048.41,-191.452 2057.8,-186.552 2047.4,-184.525 2048.41,-191.452"/>
</g>
<!-- Node42 -->
<g id="node42" class="node"><title>Node42</title>
<polygon fill="white" stroke="#bfbfbf" points="2144.5,-168.5 2144.5,-187.5 2203.5,-187.5 2203.5,-168.5 2144.5,-168.5"/>
<text text-anchor="middle" x="2174" y="-175.5" font-family="FreeSans" font-size="10.00">wx/filefn.h</text>
</g>
<!-- Node1&#45;&gt;Node42 -->
<g id="edge70" class="edge"><title>Node1&#45;&gt;Node42</title>
<path fill="none" stroke="midnightblue" d="M1546.52,-232.411C1637.75,-230.384 1903.92,-221.909 2134.37,-187.84"/>
<polygon fill="midnightblue" stroke="midnightblue" points="2134.91,-191.299 2144.28,-186.356 2133.87,-184.376 2134.91,-191.299"/>
</g>
<!-- Node43 -->
<g id="node43" class="node"><title>Node43</title>
<polygon fill="white" stroke="#bfbfbf" points="2222,-168.5 2222,-187.5 2296,-187.5 2296,-168.5 2222,-168.5"/>
<text text-anchor="middle" x="2259" y="-175.5" font-family="FreeSans" font-size="10.00">wx/fontmap.h</text>
</g>
<!-- Node1&#45;&gt;Node43 -->
<g id="edge71" class="edge"><title>Node1&#45;&gt;Node43</title>
<path fill="none" stroke="midnightblue" d="M1546.54,-232.395C1645.21,-230.245 1949.77,-221.293 2211.82,-187.98"/>
<polygon fill="midnightblue" stroke="midnightblue" points="2212.44,-191.43 2221.91,-186.683 2211.55,-184.487 2212.44,-191.43"/>
</g>
<!-- Node44 -->
<g id="node44" class="node"><title>Node44</title>
<polygon fill="white" stroke="#bfbfbf" points="2314,-168.5 2314,-187.5 2384,-187.5 2384,-168.5 2314,-168.5"/>
<text text-anchor="middle" x="2349" y="-175.5" font-family="FreeSans" font-size="10.00">wx/tokenzr.h</text>
</g>
<!-- Node1&#45;&gt;Node44 -->
<g id="edge73" class="edge"><title>Node1&#45;&gt;Node44</title>
<path fill="none" stroke="midnightblue" d="M1546.56,-232.835C1653.59,-231.937 2004.42,-226.173 2303.37,-188.027"/>
<polygon fill="midnightblue" stroke="midnightblue" points="2304.06,-191.466 2313.53,-186.714 2303.17,-184.524 2304.06,-191.466"/>
</g>
<!-- Node45 -->
<g id="node45" class="node"><title>Node45</title>
<polygon fill="white" stroke="#bfbfbf" points="2402,-168.5 2402,-187.5 2442,-187.5 2442,-168.5 2402,-168.5"/>
<text text-anchor="middle" x="2422" y="-175.5" font-family="FreeSans" font-size="10.00">string</text>
</g>
<!-- Node1&#45;&gt;Node45 -->
<g id="edge75" class="edge"><title>Node1&#45;&gt;Node45</title>
<path fill="none" stroke="midnightblue" d="M1546.62,-232.419C1682.69,-229.832 2206.24,-218.202 2391.97,-187.655"/>
<polygon fill="midnightblue" stroke="midnightblue" points="2392.62,-191.096 2401.88,-185.95 2391.43,-184.197 2392.62,-191.096"/>
</g>
<!-- Node46 -->
<g id="node46" class="node"><title>Node46</title>
<g id="a_node46"><a xlink:href="filefilters_8h" target="_top" xlink:title="filefilters.h">
<polygon fill="white" stroke="black" points="470.5,-56.5 470.5,-75.5 529.5,-75.5 529.5,-56.5 470.5,-56.5"/>
<text text-anchor="middle" x="500" y="-63.5" font-family="FreeSans" font-size="10.00">filefilters.h</text>
</a>
</g>
</g>
<!-- Node1&#45;&gt;Node46 -->
<g id="edge76" class="edge"><title>Node1&#45;&gt;Node46</title>
<path fill="none" stroke="midnightblue" d="M1481.42,-232.771C1312.22,-231.428 540.26,-223.375 505,-188 478.246,-161.159 486.689,-112.129 494.027,-85.4628"/>
<polygon fill="midnightblue" stroke="midnightblue" points="497.484,-86.1174 496.999,-75.5338 490.778,-84.1103 497.484,-86.1174"/>
</g>
<!-- Node47 -->
<g id="node47" class="node"><title>Node47</title>
<polygon fill="white" stroke="#bfbfbf" points="2460,-168.5 2460,-187.5 2556,-187.5 2556,-168.5 2460,-168.5"/>
<text text-anchor="middle" x="2508" y="-175.5" font-family="FreeSans" font-size="10.00">tinyxml/tinywxuni.h</text>
</g>
<!-- Node1&#45;&gt;Node47 -->
<g id="edge79" class="edge"><title>Node1&#45;&gt;Node47</title>
<path fill="none" stroke="midnightblue" d="M1546.88,-232.712C1666.54,-231.391 2090.26,-224.346 2449.76,-188.008"/>
<polygon fill="midnightblue" stroke="midnightblue" points="2450.25,-191.477 2459.85,-186.98 2449.54,-184.513 2450.25,-191.477"/>
</g>
<!-- Node48 -->
<g id="node48" class="node"><title>Node48</title>
<g id="a_node48"><a xlink:href="filegroupsandmasks_8h" target="_top" xlink:title="filegroupsandmasks.h">
<polygon fill="white" stroke="red" points="1409,-112.5 1409,-131.5 1517,-131.5 1517,-112.5 1409,-112.5"/>
<text text-anchor="middle" x="1463" y="-119.5" font-family="FreeSans" font-size="10.00">filegroupsandmasks.h</text>
</a>
</g>
</g>
<!-- Node1&#45;&gt;Node48 -->
<g id="edge80" class="edge"><title>Node1&#45;&gt;Node48</title>
<path fill="none" stroke="midnightblue" d="M1488.84,-224.378C1472.58,-217.343 1452.71,-205.645 1443,-188 1434.68,-172.871 1442.39,-153.814 1450.54,-140.254"/>
<polygon fill="midnightblue" stroke="midnightblue" points="1453.48,-142.141 1456.05,-131.861 1447.63,-138.297 1453.48,-142.141"/>
</g>
<!-- Node49 -->
<g id="node49" class="node"><title>Node49</title>
<polygon fill="white" stroke="#bfbfbf" points="2574,-168.5 2574,-187.5 2634,-187.5 2634,-168.5 2574,-168.5"/>
<text text-anchor="middle" x="2604" y="-175.5" font-family="FreeSans" font-size="10.00">windows.h</text>
</g>
<!-- Node1&#45;&gt;Node49 -->
<g id="edge82" class="edge"><title>Node1&#45;&gt;Node49</title>
<path fill="none" stroke="midnightblue" d="M1546.51,-232.414C1698.56,-229.554 2341.08,-216.089 2563.89,-187.843"/>
<polygon fill="midnightblue" stroke="midnightblue" points="2564.41,-191.306 2573.87,-186.531 2563.5,-184.366 2564.41,-191.306"/>
</g>
<!-- Node50 -->
<g id="node50" class="node"><title>Node50</title>
<polygon fill="white" stroke="#bfbfbf" points="2652,-168.5 2652,-187.5 2708,-187.5 2708,-168.5 2652,-168.5"/>
<text text-anchor="middle" x="2680" y="-175.5" font-family="FreeSans" font-size="10.00">shlwapi.h</text>
</g>
<!-- Node1&#45;&gt;Node50 -->
<g id="edge83" class="edge"><title>Node1&#45;&gt;Node50</title>
<path fill="none" stroke="midnightblue" d="M1546.76,-232.573C1706.21,-230.363 2402.87,-219.153 2641.82,-187.826"/>
<polygon fill="midnightblue" stroke="midnightblue" points="2642.39,-191.28 2651.83,-186.463 2641.45,-184.344 2642.39,-191.28"/>
</g>
<!-- Node3 -->
<g id="node3" class="node"><title>Node3</title>
<g id="a_node3"><a xlink:href="sdk__common_8h" target="_top" xlink:title="sdk_common.h">
<polygon fill="white" stroke="red" points="0,-112.5 0,-131.5 82,-131.5 82,-112.5 0,-112.5"/>
<text text-anchor="middle" x="41" y="-119.5" font-family="FreeSans" font-size="10.00">sdk_common.h</text>
</a>
</g>
</g>
<!-- Node2&#45;&gt;Node3 -->
<g id="edge2" class="edge"><title>Node2&#45;&gt;Node3</title>
<path fill="none" stroke="midnightblue" d="M41,-168.083C41,-161.006 41,-150.861 41,-141.986"/>
<polygon fill="midnightblue" stroke="midnightblue" points="44.5001,-141.751 41,-131.751 37.5001,-141.751 44.5001,-141.751"/>
</g>
<!-- Node12 -->
<g id="node12" class="node"><title>Node12</title>
<polygon fill="white" stroke="#bfbfbf" points="1198,-0.5 1198,-19.5 1254,-19.5 1254,-0.5 1198,-0.5"/>
<text text-anchor="middle" x="1226" y="-7.5" font-family="FreeSans" font-size="10.00">wx/defs.h</text>
</g>
<!-- Node11&#45;&gt;Node12 -->
<g id="edge11" class="edge"><title>Node11&#45;&gt;Node12</title>
<path fill="none" stroke="midnightblue" d="M1819.1,-121.528C1898.16,-121.28 2058.93,-113.911 2004,-56 1977.97,-28.5517 1361.73,-22.7304 1324,-20 1304.34,-18.5775 1282.5,-16.6095 1264.44,-14.8764"/>
<polygon fill="midnightblue" stroke="midnightblue" points="1264.57,-11.3733 1254.28,-13.8891 1263.89,-18.3404 1264.57,-11.3733"/>
</g>
<!-- Node13 -->
<g id="node13" class="node"><title>Node13</title>
<polygon fill="white" stroke="#bfbfbf" points="1665,-56.5 1665,-75.5 1733,-75.5 1733,-56.5 1665,-56.5"/>
<text text-anchor="middle" x="1699" y="-63.5" font-family="FreeSans" font-size="10.00">wx/control.h</text>
</g>
<!-- Node11&#45;&gt;Node13 -->
<g id="edge12" class="edge"><title>Node11&#45;&gt;Node13</title>
<path fill="none" stroke="midnightblue" d="M1765.31,-112.324C1753.1,-103.979 1734.42,-91.2122 1720,-81.3524"/>
<polygon fill="midnightblue" stroke="midnightblue" points="1721.89,-78.4082 1711.66,-75.6545 1717.94,-84.1871 1721.89,-78.4082"/>
</g>
<!-- Node14 -->
<g id="node14" class="node"><title>Node14</title>
<polygon fill="white" stroke="#bfbfbf" points="1751,-56.5 1751,-75.5 1805,-75.5 1805,-56.5 1751,-56.5"/>
<text text-anchor="middle" x="1778" y="-63.5" font-family="FreeSans" font-size="10.00">wx/dnd.h</text>
</g>
<!-- Node11&#45;&gt;Node14 -->
<g id="edge13" class="edge"><title>Node11&#45;&gt;Node14</title>
<path fill="none" stroke="midnightblue" d="M1778,-112.083C1778,-105.006 1778,-94.8611 1778,-85.9865"/>
<polygon fill="midnightblue" stroke="midnightblue" points="1781.5,-85.751 1778,-75.7511 1774.5,-85.7511 1781.5,-85.751"/>
</g>
<!-- Node15 -->
<g id="node15" class="node"><title>Node15</title>
<polygon fill="white" stroke="#bfbfbf" points="1823,-56.5 1823,-75.5 1905,-75.5 1905,-56.5 1823,-56.5"/>
<text text-anchor="middle" x="1864" y="-63.5" font-family="FreeSans" font-size="10.00">wx/stopwatch.h</text>
</g>
<!-- Node11&#45;&gt;Node15 -->
<g id="edge14" class="edge"><title>Node11&#45;&gt;Node15</title>
<path fill="none" stroke="midnightblue" d="M1791.82,-112.324C1805.23,-103.9 1825.82,-90.9709 1841.59,-81.0741"/>
<polygon fill="midnightblue" stroke="midnightblue" points="1843.61,-83.9364 1850.22,-75.6545 1839.89,-78.0081 1843.61,-83.9364"/>
</g>
<!-- Node16 -->
<g id="node16" class="node"><title>Node16</title>
<polygon fill="white" stroke="#bfbfbf" points="1473,-56.5 1473,-75.5 1533,-75.5 1533,-56.5 1473,-56.5"/>
<text text-anchor="middle" x="1503" y="-63.5" font-family="FreeSans" font-size="10.00">wx/timer.h</text>
</g>
<!-- Node11&#45;&gt;Node16 -->
<g id="edge15" class="edge"><title>Node11&#45;&gt;Node16</title>
<path fill="none" stroke="midnightblue" d="M1736.83,-112.916C1684.57,-102.655 1595.02,-85.0688 1543.22,-74.8976"/>
<polygon fill="midnightblue" stroke="midnightblue" points="1543.87,-71.4591 1533.39,-72.9666 1542.52,-78.3279 1543.87,-71.4591"/>
</g>
<!-- Node17 -->
<g id="node17" class="node"><title>Node17</title>
<polygon fill="white" stroke="#bfbfbf" points="1923,-56.5 1923,-75.5 1995,-75.5 1995,-56.5 1923,-56.5"/>
<text text-anchor="middle" x="1959" y="-63.5" font-family="FreeSans" font-size="10.00">wx/scrolbar.h</text>
</g>
<!-- Node11&#45;&gt;Node17 -->
<g id="edge16" class="edge"><title>Node11&#45;&gt;Node17</title>
<path fill="none" stroke="midnightblue" d="M1806.68,-112.444C1837.53,-103.241 1886.73,-88.5617 1920.83,-78.3879"/>
<polygon fill="midnightblue" stroke="midnightblue" points="1921.87,-81.7293 1930.45,-75.5164 1919.87,-75.0215 1921.87,-81.7293"/>
</g>
<!-- Node19 -->
<g id="node19" class="node"><title>Node19</title>
<polygon fill="white" stroke="#bfbfbf" points="394,-0.5 394,-19.5 456,-19.5 456,-0.5 394,-0.5"/>
<text text-anchor="middle" x="425" y="-7.5" font-family="FreeSans" font-size="10.00">wx/string.h</text>
</g>
<!-- Node18&#45;&gt;Node19 -->
<g id="edge18" class="edge"><title>Node18&#45;&gt;Node19</title>
<path fill="none" stroke="midnightblue" d="M381.426,-112.209C380.916,-99.3498 381.214,-74.888 389,-56 393.415,-45.2905 401.2,-35.0635 408.404,-27.0732"/>
<polygon fill="midnightblue" stroke="midnightblue" points="411.144,-29.2719 415.535,-19.6296 406.09,-24.4294 411.144,-29.2719"/>
</g>
<!-- Node20 -->
<g id="node20" class="node"><title>Node20</title>
<polygon fill="white" stroke="#bfbfbf" points="290.5,-56.5 290.5,-75.5 341.5,-75.5 341.5,-56.5 290.5,-56.5"/>
<text text-anchor="middle" x="316" y="-63.5" font-family="FreeSans" font-size="10.00">wx/log.h</text>
</g>
<!-- Node18&#45;&gt;Node20 -->
<g id="edge19" class="edge"><title>Node18&#45;&gt;Node20</title>
<path fill="none" stroke="midnightblue" d="M371.396,-112.324C361.544,-104.263 346.649,-92.0765 334.785,-82.3695"/>
<polygon fill="midnightblue" stroke="midnightblue" points="336.753,-79.4575 326.797,-75.8339 332.32,-84.8752 336.753,-79.4575"/>
</g>
<!-- Node18&#45;&gt;Node21 -->
<g id="edge20" class="edge"><title>Node18&#45;&gt;Node21</title>
<path fill="none" stroke="midnightblue" d="M389.101,-112.083C395.237,-104.377 404.27,-93.0333 411.739,-83.6531"/>
<polygon fill="midnightblue" stroke="midnightblue" points="414.54,-85.7542 418.032,-75.7511 409.064,-81.3936 414.54,-85.7542"/>
</g>
<!-- Node21&#45;&gt;Node4 -->
<g id="edge22" class="edge"><title>Node21&#45;&gt;Node4</title>
<path fill="none" stroke="midnightblue" d="M397.748,-60.1402C356.909,-52.7354 277.211,-37.8137 200.086,-20.1416"/>
<polygon fill="midnightblue" stroke="midnightblue" points="200.739,-16.7003 190.207,-17.8594 199.163,-23.5206 200.739,-16.7003"/>
</g>
<!-- Node21&#45;&gt;Node5 -->
<g id="edge23" class="edge"><title>Node21&#45;&gt;Node5</title>
<path fill="none" stroke="midnightblue" d="M397.662,-56.7986C367.138,-47.6414 317.524,-32.7572 283.18,-22.454"/>
<polygon fill="midnightblue" stroke="midnightblue" points="284.073,-19.0678 273.489,-19.5467 282.061,-25.7726 284.073,-19.0678"/>
</g>
<!-- Node21&#45;&gt;Node19 -->
<g id="edge21" class="edge"><title>Node21&#45;&gt;Node19</title>
<path fill="none" stroke="midnightblue" d="M425,-56.083C425,-49.0059 425,-38.8611 425,-29.9865"/>
<polygon fill="midnightblue" stroke="midnightblue" points="428.5,-29.751 425,-19.7511 421.5,-29.7511 428.5,-29.751"/>
</g>
<!-- Node21&#45;&gt;Node22 -->
<g id="edge24" class="edge"><title>Node21&#45;&gt;Node22</title>
<path fill="none" stroke="midnightblue" d="M452.026,-57.7306C455.039,-57.0734 458.075,-56.4771 461,-56 662.52,-23.1252 715.502,-36.7189 919,-20 938.847,-18.3694 960.798,-16.4984 979.477,-14.8863"/>
<polygon fill="midnightblue" stroke="midnightblue" points="979.822,-18.3696 989.483,-14.0204 979.218,-11.3957 979.822,-18.3696"/>
</g>
<!-- Node23 -->
<g id="node23" class="node"><title>Node23</title>
<g id="a_node23"><a xlink:href="settings_8h" target="_top" xlink:title="settings.h">
<polygon fill="white" stroke="black" points="853.5,-0.5 853.5,-19.5 910.5,-19.5 910.5,-0.5 853.5,-0.5"/>
<text text-anchor="middle" x="882" y="-7.5" font-family="FreeSans" font-size="10.00">settings.h</text>
</a>
</g>
</g>
<!-- Node21&#45;&gt;Node23 -->
<g id="edge25" class="edge"><title>Node21&#45;&gt;Node23</title>
<path fill="none" stroke="midnightblue" d="M452.04,-57.8132C455.051,-57.1406 458.082,-56.5181 461,-56 600.516,-31.2271 768.634,-18.2467 843.171,-13.3458"/>
<polygon fill="midnightblue" stroke="midnightblue" points="843.721,-16.8177 853.474,-12.6809 843.27,-9.83222 843.721,-16.8177"/>
</g>
<!-- Node24&#45;&gt;Node21 -->
<g id="edge30" class="edge"><title>Node24&#45;&gt;Node21</title>
<path fill="none" stroke="midnightblue" d="M860.328,-118.651C782.256,-114.001 613.519,-101.901 461.992,-75.9328"/>
<polygon fill="midnightblue" stroke="midnightblue" points="462.489,-72.4668 452.038,-74.2022 461.29,-79.3633 462.489,-72.4668"/>
</g>
<!-- Node24&#45;&gt;Node23 -->
<g id="edge29" class="edge"><title>Node24&#45;&gt;Node23</title>
<path fill="none" stroke="midnightblue" d="M902.274,-112.368C898.723,-94.617 890.533,-53.6664 885.719,-29.5974"/>
<polygon fill="midnightblue" stroke="midnightblue" points="889.112,-28.7108 883.718,-19.5914 882.247,-30.0837 889.112,-28.7108"/>
</g>
<!-- Node25 -->
<g id="node25" class="node"><title>Node25</title>
<polygon fill="white" stroke="#bfbfbf" points="586.5,-56.5 586.5,-75.5 663.5,-75.5 663.5,-56.5 586.5,-56.5"/>
<text text-anchor="middle" x="625" y="-63.5" font-family="FreeSans" font-size="10.00">wx/hashmap.h</text>
</g>
<!-- Node24&#45;&gt;Node25 -->
<g id="edge27" class="edge"><title>Node24&#45;&gt;Node25</title>
<path fill="none" stroke="midnightblue" d="M860.406,-112.562C809.831,-102.774 726.658,-86.6757 673.917,-76.4679"/>
<polygon fill="midnightblue" stroke="midnightblue" points="674.277,-72.9725 663.794,-74.5085 672.946,-79.845 674.277,-72.9725"/>
</g>
<!-- Node26 -->
<g id="node26" class="node"><title>Node26</title>
<polygon fill="white" stroke="#bfbfbf" points="681.5,-56.5 681.5,-75.5 752.5,-75.5 752.5,-56.5 681.5,-56.5"/>
<text text-anchor="middle" x="717" y="-63.5" font-family="FreeSans" font-size="10.00">wx/hashset.h</text>
</g>
<!-- Node24&#45;&gt;Node26 -->
<g id="edge28" class="edge"><title>Node24&#45;&gt;Node26</title>
<path fill="none" stroke="midnightblue" d="M874.369,-112.444C842.5,-103.241 791.667,-88.5617 756.436,-78.3879"/>
<polygon fill="midnightblue" stroke="midnightblue" points="757.071,-74.9282 746.492,-75.5164 755.128,-81.6534 757.071,-74.9282"/>
</g>
<!-- Node27 -->
<g id="node27" class="node"><title>Node27</title>
<polygon fill="white" stroke="#bfbfbf" points="770.5,-56.5 770.5,-75.5 853.5,-75.5 853.5,-56.5 770.5,-56.5"/>
<text text-anchor="middle" x="812" y="-63.5" font-family="FreeSans" font-size="10.00">tinyxml/tinystr.h</text>
</g>
<!-- Node24&#45;&gt;Node27 -->
<g id="edge31" class="edge"><title>Node24&#45;&gt;Node27</title>
<path fill="none" stroke="midnightblue" d="M889.219,-112.324C874.733,-103.822 852.427,-90.7288 835.507,-80.7975"/>
<polygon fill="midnightblue" stroke="midnightblue" points="837.141,-77.6981 826.745,-75.6545 833.597,-83.735 837.141,-77.6981"/>
</g>
<!-- Node24&#45;&gt;Node28 -->
<g id="edge32" class="edge"><title>Node24&#45;&gt;Node28</title>
<path fill="none" stroke="midnightblue" d="M937.117,-112.444C973.118,-103.142 1030.77,-88.246 1070.19,-78.062"/>
<polygon fill="midnightblue" stroke="midnightblue" points="1071.23,-81.4068 1080.04,-75.5164 1069.48,-74.6294 1071.23,-81.4068"/>
</g>
<!-- Node24&#45;&gt;Node29 -->
<g id="edge33" class="edge"><title>Node24&#45;&gt;Node29</title>
<path fill="none" stroke="midnightblue" d="M947.779,-117.75C1020.62,-111.995 1171.43,-98.5983 1308.37,-76.1109"/>
<polygon fill="midnightblue" stroke="midnightblue" points="1309.33,-79.4989 1318.62,-74.4056 1308.18,-72.5938 1309.33,-79.4989"/>
</g>
<!-- Node30 -->
<g id="node30" class="node"><title>Node30</title>
<polygon fill="white" stroke="#bfbfbf" points="1332.5,-0.5 1332.5,-19.5 1367.5,-19.5 1367.5,-0.5 1332.5,-0.5"/>
<text text-anchor="middle" x="1350" y="-7.5" font-family="FreeSans" font-size="10.00">map</text>
</g>
<!-- Node24&#45;&gt;Node30 -->
<g id="edge40" class="edge"><title>Node24&#45;&gt;Node30</title>
<path fill="none" stroke="midnightblue" d="M928.726,-112.463C952.824,-103.934 990.356,-90.0968 1022,-76 1039.79,-68.0731 1042.47,-62.0196 1061,-56 1109.4,-40.2722 1259.21,-21.5827 1321.93,-14.214"/>
<polygon fill="midnightblue" stroke="midnightblue" points="1322.72,-17.6461 1332.25,-13.0122 1321.91,-10.6931 1322.72,-17.6461"/>
</g>
<!-- Node31 -->
<g id="node31" class="node"><title>Node31</title>
<g id="a_node31"><a xlink:href="base64_8h" target="_top" xlink:title="base64.h">
<polygon fill="white" stroke="black" points="957.5,-56.5 957.5,-75.5 1012.5,-75.5 1012.5,-56.5 957.5,-56.5"/>
<text text-anchor="middle" x="985" y="-63.5" font-family="FreeSans" font-size="10.00">base64.h</text>
</a>
</g>
</g>
<!-- Node24&#45;&gt;Node31 -->
<g id="edge36" class="edge"><title>Node24&#45;&gt;Node31</title>
<path fill="none" stroke="midnightblue" d="M917.014,-112.324C929.532,-103.979 948.682,-91.2122 963.471,-81.3524"/>
<polygon fill="midnightblue" stroke="midnightblue" points="965.639,-84.1137 972.018,-75.6545 961.756,-78.2894 965.639,-84.1137"/>
</g>
<!-- Node32 -->
<g id="node32" class="node"><title>Node32</title>
<polygon fill="white" stroke="#bfbfbf" points="910.5,-56.5 910.5,-75.5 939.5,-75.5 939.5,-56.5 910.5,-56.5"/>
<text text-anchor="middle" x="925" y="-63.5" font-family="FreeSans" font-size="10.00">set</text>
</g>
<!-- Node24&#45;&gt;Node32 -->
<g id="edge41" class="edge"><title>Node24&#45;&gt;Node32</title>
<path fill="none" stroke="midnightblue" d="M907.468,-112.083C910.312,-104.77 914.429,-94.1814 917.96,-85.1034"/>
<polygon fill="midnightblue" stroke="midnightblue" points="921.234,-86.3397 921.597,-75.7511 914.71,-83.8025 921.234,-86.3397"/>
</g>
<!-- Node29&#45;&gt;Node23 -->
<g id="edge35" class="edge"><title>Node29&#45;&gt;Node23</title>
<path fill="none" stroke="midnightblue" d="M1318.62,-57.5775C1315.72,-56.9996 1312.81,-56.4621 1310,-56 1272.08,-49.7619 1018.64,-24.4826 920.61,-14.7994"/>
<polygon fill="midnightblue" stroke="midnightblue" points="920.827,-11.3038 910.532,-13.8047 920.14,-18.27 920.827,-11.3038"/>
</g>
<!-- Node29&#45;&gt;Node30 -->
<g id="edge34" class="edge"><title>Node29&#45;&gt;Node30</title>
<path fill="none" stroke="midnightblue" d="M1350,-56.083C1350,-49.0059 1350,-38.8611 1350,-29.9865"/>
<polygon fill="midnightblue" stroke="midnightblue" points="1353.5,-29.751 1350,-19.7511 1346.5,-29.7511 1353.5,-29.751"/>
</g>
<!-- Node31&#45;&gt;Node12 -->
<g id="edge37" class="edge"><title>Node31&#45;&gt;Node12</title>
<path fill="none" stroke="midnightblue" d="M1012.65,-58.8055C1055.82,-49.1325 1139.33,-30.4198 1188.09,-19.4954"/>
<polygon fill="midnightblue" stroke="midnightblue" points="1188.94,-22.8904 1197.93,-17.2886 1187.41,-16.0598 1188.94,-22.8904"/>
</g>
<!-- Node31&#45;&gt;Node19 -->
<g id="edge38" class="edge"><title>Node31&#45;&gt;Node19</title>
<path fill="none" stroke="midnightblue" d="M957.213,-57.7588C954.118,-57.0964 951.001,-56.4912 948,-56 770.182,-26.8986 555.072,-15.9069 466.337,-12.4103"/>
<polygon fill="midnightblue" stroke="midnightblue" points="466.279,-8.9056 456.153,-12.0203 466.011,-15.9005 466.279,-8.9056"/>
</g>
<!-- Node31&#45;&gt;Node23 -->
<g id="edge39" class="edge"><title>Node31&#45;&gt;Node23</title>
<path fill="none" stroke="midnightblue" d="M968.451,-56.324C952.008,-47.7034 926.565,-34.3643 907.532,-24.3855"/>
<polygon fill="midnightblue" stroke="midnightblue" points="908.989,-21.198 898.508,-19.6545 905.739,-27.3977 908.989,-21.198"/>
</g>
<!-- Node33&#45;&gt;Node4 -->
<g id="edge53" class="edge"><title>Node33&#45;&gt;Node4</title>
<path fill="none" stroke="midnightblue" d="M513.995,-174.087C448.192,-168.407 313.893,-154.409 273,-132 227.476,-107.054 191.509,-55.2845 174.944,-28.2633"/>
<polygon fill="midnightblue" stroke="midnightblue" points="177.863,-26.3231 169.737,-19.5234 171.849,-29.9058 177.863,-26.3231"/>
</g>
<!-- Node33&#45;&gt;Node5 -->
<g id="edge54" class="edge"><title>Node33&#45;&gt;Node5</title>
<path fill="none" stroke="midnightblue" d="M513.833,-174.921C450.742,-170.69 326.287,-159.079 293,-132 261.4,-106.294 250.503,-56.8002 246.821,-29.7609"/>
<polygon fill="midnightblue" stroke="midnightblue" points="250.28,-29.2093 245.645,-19.6822 243.327,-30.0204 250.28,-29.2093"/>
</g>
<!-- Node33&#45;&gt;Node19 -->
<g id="edge44" class="edge"><title>Node33&#45;&gt;Node19</title>
<path fill="none" stroke="midnightblue" d="M513.745,-173.256C456.575,-166.938 350.509,-152.783 319,-132 293.892,-115.439 289.834,-104.752 281,-76 267.19,-31.0546 336.443,-17.1564 383.71,-12.8789"/>
<polygon fill="midnightblue" stroke="midnightblue" points="384.026,-16.3649 393.718,-12.0843 383.472,-9.38689 384.026,-16.3649"/>
</g>
<!-- Node33&#45;&gt;Node20 -->
<g id="edge45" class="edge"><title>Node33&#45;&gt;Node20</title>
<path fill="none" stroke="midnightblue" d="M513.707,-173.823C458.975,-168.42 360.602,-155.656 335,-132 322.327,-120.29 317.94,-100.643 316.503,-86.008"/>
<polygon fill="midnightblue" stroke="midnightblue" points="319.972,-85.3671 315.882,-75.5932 312.984,-85.7839 319.972,-85.3671"/>
</g>
<!-- Node33&#45;&gt;Node24 -->
<g id="edge55" class="edge"><title>Node33&#45;&gt;Node24</title>
<path fill="none" stroke="midnightblue" d="M588.129,-169.578C591.127,-169.027 594.112,-168.494 597,-168 685.466,-152.871 788.817,-138.374 850.207,-130.094"/>
<polygon fill="midnightblue" stroke="midnightblue" points="850.984,-133.521 860.429,-128.721 850.052,-126.584 850.984,-133.521"/>
</g>
<!-- Node34 -->
<g id="node34" class="node"><title>Node34</title>
<polygon fill="white" stroke="#bfbfbf" points="1174.5,-56.5 1174.5,-75.5 1239.5,-75.5 1239.5,-56.5 1174.5,-56.5"/>
<text text-anchor="middle" x="1207" y="-63.5" font-family="FreeSans" font-size="10.00">wx/thread.h</text>
</g>
<!-- Node33&#45;&gt;Node34 -->
<g id="edge43" class="edge"><title>Node33&#45;&gt;Node34</title>
<path fill="none" stroke="midnightblue" d="M588.106,-169.432C591.109,-168.913 594.102,-168.428 597,-168 755.636,-144.579 798.14,-160.183 956,-132 1033.16,-118.225 1121.47,-93.1197 1170.07,-78.4685"/>
<polygon fill="midnightblue" stroke="midnightblue" points="1171.27,-81.7626 1179.82,-75.5086 1169.23,-75.0645 1171.27,-81.7626"/>
</g>
<!-- Node35 -->
<g id="node35" class="node"><title>Node35</title>
<g id="a_node35"><a xlink:href="backgroundthread_8h" target="_top" xlink:title="backgroundthread.h">
<polygon fill="white" stroke="red" points="1175.5,-112.5 1175.5,-131.5 1276.5,-131.5 1276.5,-112.5 1175.5,-112.5"/>
<text text-anchor="middle" x="1226" y="-119.5" font-family="FreeSans" font-size="10.00">backgroundthread.h</text>
</a>
</g>
</g>
<!-- Node33&#45;&gt;Node35 -->
<g id="edge46" class="edge"><title>Node33&#45;&gt;Node35</title>
<path fill="none" stroke="midnightblue" d="M588.09,-169.315C591.097,-168.823 594.095,-168.375 597,-168 846.107,-135.818 911.095,-157.242 1161,-132 1162.31,-131.868 1163.63,-131.73 1164.96,-131.586"/>
<polygon fill="midnightblue" stroke="midnightblue" points="1165.77,-135.015 1175.3,-130.388 1164.97,-128.062 1165.77,-135.015"/>
</g>
<!-- Node36 -->
<g id="node36" class="node"><title>Node36</title>
<polygon fill="white" stroke="#bfbfbf" points="1257.5,-56.5 1257.5,-75.5 1300.5,-75.5 1300.5,-56.5 1257.5,-56.5"/>
<text text-anchor="middle" x="1279" y="-63.5" font-family="FreeSans" font-size="10.00">deque</text>
</g>
<!-- Node33&#45;&gt;Node36 -->
<g id="edge52" class="edge"><title>Node33&#45;&gt;Node36</title>
<path fill="none" stroke="midnightblue" d="M588.099,-169.387C591.104,-168.878 594.099,-168.408 597,-168 781.653,-142.061 830.928,-161.782 1015,-132 1100.26,-118.205 1198.52,-90.9213 1247.63,-76.4801"/>
<polygon fill="midnightblue" stroke="midnightblue" points="1248.75,-79.7993 1257.34,-73.6029 1246.76,-73.0877 1248.75,-79.7993"/>
</g>
<!-- Node35&#45;&gt;Node16 -->
<g id="edge49" class="edge"><title>Node35&#45;&gt;Node16</title>
<path fill="none" stroke="midnightblue" d="M1274.43,-112.428C1320.44,-104.154 1391.79,-90.9809 1462.78,-76.1933"/>
<polygon fill="midnightblue" stroke="midnightblue" points="1463.72,-79.5721 1472.79,-74.0963 1462.29,-72.7208 1463.72,-79.5721"/>
</g>
<!-- Node35&#45;&gt;Node29 -->
<g id="edge51" class="edge"><title>Node35&#45;&gt;Node29</title>
<path fill="none" stroke="midnightblue" d="M1245.65,-112.444C1265.96,-103.596 1297.9,-89.6875 1321.1,-79.5865"/>
<polygon fill="midnightblue" stroke="midnightblue" points="1322.67,-82.7181 1330.44,-75.5164 1319.88,-76.3002 1322.67,-82.7181"/>
</g>
<!-- Node35&#45;&gt;Node34 -->
<g id="edge50" class="edge"><title>Node35&#45;&gt;Node34</title>
<path fill="none" stroke="midnightblue" d="M1222.86,-112.083C1220.32,-104.849 1216.64,-94.4087 1213.47,-85.3968"/>
<polygon fill="midnightblue" stroke="midnightblue" points="1216.7,-84.0225 1210.08,-75.7511 1210.1,-86.3459 1216.7,-84.0225"/>
</g>
<!-- Node35&#45;&gt;Node36 -->
<g id="edge47" class="edge"><title>Node35&#45;&gt;Node36</title>
<path fill="none" stroke="midnightblue" d="M1234.75,-112.083C1242.47,-104.22 1253.9,-92.5688 1263.22,-83.0813"/>
<polygon fill="midnightblue" stroke="midnightblue" points="1265.9,-85.3396 1270.41,-75.7511 1260.91,-80.4363 1265.9,-85.3396"/>
</g>
<!-- Node35&#45;&gt;Node37 -->
<g id="edge48" class="edge"><title>Node35&#45;&gt;Node37</title>
<path fill="none" stroke="midnightblue" d="M1257.85,-112.444C1293.52,-102.861 1351.28,-87.3424 1389.21,-77.1537"/>
<polygon fill="midnightblue" stroke="midnightblue" points="1390.12,-80.5328 1398.87,-74.558 1388.3,-73.7725 1390.12,-80.5328"/>
</g>
<!-- Node38&#45;&gt;Node29 -->
<g id="edge58" class="edge"><title>Node38&#45;&gt;Node29</title>
<path fill="none" stroke="midnightblue" d="M1536.82,-112.444C1497.18,-102.8 1432.81,-87.144 1390.94,-76.9592"/>
<polygon fill="midnightblue" stroke="midnightblue" points="1391.62,-73.5207 1381.07,-74.558 1389.96,-80.3224 1391.62,-73.5207"/>
</g>
<!-- Node38&#45;&gt;Node30 -->
<g id="edge59" class="edge"><title>Node38&#45;&gt;Node30</title>
<path fill="none" stroke="midnightblue" d="M1575.71,-112.282C1580.86,-98.6211 1588.18,-72.0747 1575,-56 1550.32,-25.891 1432.15,-15.5261 1377.65,-12.3079"/>
<polygon fill="midnightblue" stroke="midnightblue" points="1377.82,-8.81216 1367.64,-11.7558 1377.44,-15.8015 1377.82,-8.81216"/>
</g>
<!-- Node39&#45;&gt;Node18 -->
<g id="edge64" class="edge"><title>Node39&#45;&gt;Node18</title>
<path fill="none" stroke="midnightblue" d="M609.218,-168.444C560.528,-158.706 481.183,-142.837 430.307,-132.661"/>
<polygon fill="midnightblue" stroke="midnightblue" points="430.709,-129.173 420.217,-130.643 429.336,-136.037 430.709,-129.173"/>
</g>
<!-- Node39&#45;&gt;Node21 -->
<g id="edge62" class="edge"><title>Node39&#45;&gt;Node21</title>
<path fill="none" stroke="midnightblue" d="M630.669,-168.341C609.492,-159.611 576.204,-145.529 548,-132 513.203,-115.309 473.925,-94.1302 449.316,-80.5691"/>
<polygon fill="midnightblue" stroke="midnightblue" points="450.781,-77.3795 440.336,-75.5996 447.391,-83.5041 450.781,-77.3795"/>
</g>
<!-- Node39&#45;&gt;Node23 -->
<g id="edge65" class="edge"><title>Node39&#45;&gt;Node23</title>
<path fill="none" stroke="midnightblue" d="M639.471,-168.472C610.585,-147.81 544.215,-93.9776 577,-56 610.92,-16.7077 768.525,-11.1236 842.921,-10.7247"/>
<polygon fill="midnightblue" stroke="midnightblue" points="843.278,-14.224 853.269,-10.7001 843.261,-7.22398 843.278,-14.224"/>
</g>
<!-- Node39&#45;&gt;Node25 -->
<g id="edge63" class="edge"><title>Node39&#45;&gt;Node25</title>
<path fill="none" stroke="midnightblue" d="M649.881,-168.368C645.524,-150.617 635.473,-109.666 629.565,-85.5974"/>
<polygon fill="midnightblue" stroke="midnightblue" points="632.892,-84.4688 627.109,-75.5914 626.094,-86.1375 632.892,-84.4688"/>
</g>
<!-- Node39&#45;&gt;Node29 -->
<g id="edge66" class="edge"><title>Node39&#45;&gt;Node29</title>
<path fill="none" stroke="midnightblue" d="M697.524,-175.624C833.895,-171.243 1232.95,-156.458 1286,-132 1308.6,-121.579 1327.57,-99.457 1338.85,-83.9271"/>
<polygon fill="midnightblue" stroke="midnightblue" points="1341.75,-85.8942 1344.58,-75.6835 1336,-81.9026 1341.75,-85.8942"/>
</g>
<!-- Node46&#45;&gt;Node19 -->
<g id="edge77" class="edge"><title>Node46&#45;&gt;Node19</title>
<path fill="none" stroke="midnightblue" d="M487.95,-56.324C476.537,-48.1066 459.169,-35.6017 445.565,-25.8069"/>
<polygon fill="midnightblue" stroke="midnightblue" points="447.43,-22.8366 437.269,-19.8339 443.34,-28.5174 447.43,-22.8366"/>
</g>
<!-- Node46&#45;&gt;Node23 -->
<g id="edge78" class="edge"><title>Node46&#45;&gt;Node23</title>
<path fill="none" stroke="midnightblue" d="M529.77,-58.6194C534.519,-57.6856 539.387,-56.7779 544,-56 651.88,-37.8079 780.151,-22.43 843.149,-15.284"/>
<polygon fill="midnightblue" stroke="midnightblue" points="843.866,-18.7255 853.411,-14.1275 843.082,-11.7695 843.866,-18.7255"/>
</g>
<!-- Node48&#45;&gt;Node23 -->
<g id="edge81" class="edge"><title>Node48&#45;&gt;Node23</title>
<path fill="none" stroke="midnightblue" d="M1488.11,-112.405C1518.54,-100.72 1563.26,-78.6697 1542,-56 1499.19,-10.3623 1042.38,-24.8616 980,-20 960.492,-18.4797 938.826,-16.5185 920.836,-14.8151"/>
<polygon fill="midnightblue" stroke="midnightblue" points="921.001,-11.315 910.713,-13.8473 920.334,-18.2832 921.001,-11.315"/>
</g>
</g>
</svg>
