<?xml version="1.0" encoding="UTF-8" standalone="no"?>
<!DOCTYPE svg PUBLIC "-//W3C//DTD SVG 1.1//EN"
 "http://www.w3.org/Graphics/SVG/1.1/DTD/svg11.dtd">
<!-- Generated by graphviz version 2.40.1 (20161225.0304)
 -->
<!-- Title: infowindow.h Pages: 1 -->
<svg width="3045pt" height="207pt"
 viewBox="0.00 0.00 3045.00 207.00" xmlns="http://www.w3.org/2000/svg" xmlns:xlink="http://www.w3.org/1999/xlink">
<g id="graph0" class="graph" transform="scale(1 1) rotate(0) translate(4 203)">
<title>infowindow.h</title>
<!-- Node8 -->
<g id="node1" class="node">
<title>Node8</title>
<polygon fill="#bfbfbf" stroke="#000000" points="2570.5,-179.5 2570.5,-198.5 2641.5,-198.5 2641.5,-179.5 2570.5,-179.5"/>
<text text-anchor="middle" x="2606" y="-186.5" font-family="FreeSans" font-size="10.00" fill="#000000">infowindow.h</text>
</g>
<!-- Node9 -->
<g id="node2" class="node">
<title>Node9</title>
<g id="a_node2"><a xlink:href="sdk__common_8h" target="_top" xlink:title="sdk_common.h">
<polygon fill="none" stroke="#000000" points="2496,-123.5 2496,-142.5 2578,-142.5 2578,-123.5 2496,-123.5"/>
<text text-anchor="middle" x="2537" y="-130.5" font-family="FreeSans" font-size="10.00" fill="#000000">sdk_common.h</text>
</a>
</g>
</g>
<!-- Node8&#45;&gt;Node9 -->
<g id="edge1" class="edge">
<title>Node8&#45;&gt;Node9</title>
<path fill="none" stroke="#191970" d="M2586.197,-172.928C2574.1364,-163.1397 2559.1286,-150.9595 2548.8812,-142.6427"/>
<polygon fill="#191970" stroke="#191970" points="2584.0109,-175.6614 2593.9811,-179.2455 2588.4221,-170.2262 2584.0109,-175.6614"/>
</g>
<!-- Node36 -->
<g id="node25" class="node">
<title>Node36</title>
<g id="a_node25"><a xlink:href="main_8cpp" target="_top" xlink:title="main.cpp">
<polygon fill="none" stroke="#000000" points="0,-6 0,-25 56,-25 56,-6 0,-6"/>
<text text-anchor="middle" x="28" y="-13" font-family="FreeSans" font-size="10.00" fill="#000000">main.cpp</text>
</a>
</g>
</g>
<!-- Node8&#45;&gt;Node36 -->
<g id="edge32" class="edge">
<title>Node8&#45;&gt;Node36</title>
<path fill="none" stroke="#191970" d="M2560.1027,-188.8097C2332.813,-187.4492 1305.3193,-176.4001 470,-87 289.3193,-67.6626 240.2713,-78.9524 65,-31 59.4916,-29.4929 53.7158,-27.361 48.409,-25.1592"/>
<polygon fill="#191970" stroke="#191970" points="2560.2976,-192.3108 2570.3172,-188.8675 2560.3372,-185.3109 2560.2976,-192.3108"/>
</g>
<!-- Node74 -->
<g id="node26" class="node">
<title>Node74</title>
<g id="a_node26"><a xlink:href="compilergcc_8cpp" target="_top" xlink:title="compilergcc.cpp">
<polygon fill="none" stroke="#000000" points="74.5,-6 74.5,-25 161.5,-25 161.5,-6 74.5,-6"/>
<text text-anchor="middle" x="118" y="-13" font-family="FreeSans" font-size="10.00" fill="#000000">compilergcc.cpp</text>
</a>
</g>
</g>
<!-- Node8&#45;&gt;Node74 -->
<g id="edge33" class="edge">
<title>Node8&#45;&gt;Node74</title>
<path fill="none" stroke="#191970" d="M2559.9865,-187.43C2266.6392,-177.2084 654.7024,-117.815 170,-31 162.0254,-29.5717 153.5404,-27.3538 145.7878,-25.038"/>
<polygon fill="#191970" stroke="#191970" points="2560.1378,-190.9373 2570.2532,-187.7864 2560.3807,-183.9415 2560.1378,-190.9373"/>
</g>
<!-- Node111 -->
<g id="node27" class="node">
<title>Node111</title>
<g id="a_node27"><a xlink:href="gdb__driver_8cpp" target="_top" xlink:title="gdb_driver.cpp">
<polygon fill="none" stroke="#000000" points="2719.5,-6 2719.5,-25 2798.5,-25 2798.5,-6 2719.5,-6"/>
<text text-anchor="middle" x="2759" y="-13" font-family="FreeSans" font-size="10.00" fill="#000000">gdb_driver.cpp</text>
</a>
</g>
</g>
<!-- Node8&#45;&gt;Node111 -->
<g id="edge37" class="edge">
<title>Node8&#45;&gt;Node111</title>
<path fill="none" stroke="#191970" d="M2608.8484,-169.2329C2613.6993,-142.5338 2626.02,-95.0668 2655,-67 2675.6965,-46.9558 2705.7219,-33.2353 2728.1962,-25.0281"/>
<polygon fill="#191970" stroke="#191970" points="2605.3641,-168.8521 2607.1999,-179.2867 2612.2719,-169.9848 2605.3641,-168.8521"/>
</g>
<!-- Node115 -->
<g id="node29" class="node">
<title>Node115</title>
<g id="a_node29"><a xlink:href="autodetectcompilers_8cpp" target="_top" xlink:title="autodetectcompilers.cpp">
<polygon fill="none" stroke="#000000" points="2817,-6 2817,-25 2939,-25 2939,-6 2817,-6"/>
<text text-anchor="middle" x="2878" y="-13" font-family="FreeSans" font-size="10.00" fill="#000000">autodetectcompilers.cpp</text>
</a>
</g>
</g>
<!-- Node8&#45;&gt;Node115 -->
<g id="edge30" class="edge">
<title>Node8&#45;&gt;Node115</title>
<path fill="none" stroke="#191970" d="M2651.7048,-181.8326C2734.8245,-167.7636 2905.3727,-133.7809 2940,-87 2957.3019,-63.6255 2921.0399,-38.3935 2897.0117,-25.0466"/>
<polygon fill="#191970" stroke="#191970" points="2651.0646,-178.3909 2641.7767,-183.4885 2652.2163,-185.2955 2651.0646,-178.3909"/>
</g>
<!-- Node187 -->
<g id="node30" class="node">
<title>Node187</title>
<g id="a_node30"><a xlink:href="sc__globals_8cpp" target="_top" xlink:title="sc_globals.cpp">
<polygon fill="none" stroke="#000000" points="2957,-6 2957,-25 3037,-25 3037,-6 2957,-6"/>
<text text-anchor="middle" x="2997" y="-13" font-family="FreeSans" font-size="10.00" fill="#000000">sc_globals.cpp</text>
</a>
</g>
</g>
<!-- Node8&#45;&gt;Node187 -->
<g id="edge31" class="edge">
<title>Node8&#45;&gt;Node187</title>
<path fill="none" stroke="#191970" d="M2652.0588,-186.5276C2705.9446,-182.3894 2797.07,-171.4728 2870,-143 2912.8356,-126.2764 2925.5051,-120.5058 2957,-87 2974.7301,-68.1378 2987.4675,-39.9569 2993.3498,-25.2409"/>
<polygon fill="#191970" stroke="#191970" points="2651.5168,-183.0575 2641.7946,-187.2681 2652.0205,-190.0394 2651.5168,-183.0575"/>
</g>
<!-- Node206 -->
<g id="node31" class="node">
<title>Node206</title>
<g id="a_node31"><a xlink:href="gdb__commands_8h" target="_top" xlink:title="gdb_commands.h">
<polygon fill="none" stroke="#000000" points="2634,-123.5 2634,-142.5 2726,-142.5 2726,-123.5 2634,-123.5"/>
<text text-anchor="middle" x="2680" y="-130.5" font-family="FreeSans" font-size="10.00" fill="#000000">gdb_commands.h</text>
</a>
</g>
</g>
<!-- Node8&#45;&gt;Node206 -->
<g id="edge34" class="edge">
<title>Node8&#45;&gt;Node206</title>
<path fill="none" stroke="#191970" d="M2626.8657,-173.2097C2639.8625,-163.3743 2656.1622,-151.0394 2667.2579,-142.6427"/>
<polygon fill="#191970" stroke="#191970" points="2624.7518,-170.4201 2618.8898,-179.2455 2628.976,-176.002 2624.7518,-170.4201"/>
</g>
<!-- Node10 -->
<g id="node3" class="node">
<title>Node10</title>
<g id="a_node3"><a xlink:href="sdk_8h" target="_top" xlink:title="sdk.h">
<polygon fill="none" stroke="#ff0000" points="1480.5,-67.5 1480.5,-86.5 1519.5,-86.5 1519.5,-67.5 1480.5,-67.5"/>
<text text-anchor="middle" x="1500" y="-74.5" font-family="FreeSans" font-size="10.00" fill="#000000">sdk.h</text>
</a>
</g>
</g>
<!-- Node9&#45;&gt;Node10 -->
<g id="edge2" class="edge">
<title>Node9&#45;&gt;Node10</title>
<path fill="none" stroke="#191970" d="M2485.4568,-130.2166C2295.7987,-119.9747 1641.4114,-84.6365 1519.6018,-78.0585"/>
<polygon fill="#191970" stroke="#191970" points="2485.5342,-133.7258 2495.7084,-130.7702 2485.9118,-126.7359 2485.5342,-133.7258"/>
</g>
<!-- Node113 -->
<g id="node28" class="node">
<title>Node113</title>
<g id="a_node28"><a xlink:href="sdk__precomp_8h" target="_top" xlink:title="sdk_precomp.h">
<polygon fill="none" stroke="#ff0000" points="2672,-67.5 2672,-86.5 2754,-86.5 2754,-67.5 2672,-67.5"/>
<text text-anchor="middle" x="2713" y="-74.5" font-family="FreeSans" font-size="10.00" fill="#000000">sdk_precomp.h</text>
</a>
</g>
</g>
<!-- Node9&#45;&gt;Node113 -->
<g id="edge27" class="edge">
<title>Node9&#45;&gt;Node113</title>
<path fill="none" stroke="#191970" d="M2576.8404,-120.3235C2609.1173,-110.0536 2653.8852,-95.8093 2683.1393,-86.5011"/>
<polygon fill="#191970" stroke="#191970" points="2575.7235,-117.0059 2567.2555,-123.3733 2577.846,-123.6764 2575.7235,-117.0059"/>
</g>
<!-- Node11 -->
<g id="node4" class="node">
<title>Node11</title>
<g id="a_node4"><a xlink:href="app_8cpp" target="_top" xlink:title="app.cpp">
<polygon fill="none" stroke="#000000" points="2224,-6 2224,-25 2274,-25 2274,-6 2224,-6"/>
<text text-anchor="middle" x="2249" y="-13" font-family="FreeSans" font-size="10.00" fill="#000000">app.cpp</text>
</a>
</g>
</g>
<!-- Node10&#45;&gt;Node11 -->
<g id="edge3" class="edge">
<title>Node10&#45;&gt;Node11</title>
<path fill="none" stroke="#191970" d="M1529.5808,-76.5215C1647.2175,-74.399 2081.9219,-64.4127 2215,-31 2220.4111,-29.6414 2226.0236,-27.4464 2231.0916,-25.1302"/>
<polygon fill="#191970" stroke="#191970" points="1529.4465,-73.0232 1519.5094,-76.6977 1529.5691,-80.0221 1529.4465,-73.0232"/>
</g>
<!-- Node12 -->
<g id="node5" class="node">
<title>Node12</title>
<g id="a_node5"><a xlink:href="appglobals_8cpp" target="_top" xlink:title="appglobals.cpp">
<polygon fill="none" stroke="#000000" points="2292,-6 2292,-25 2372,-25 2372,-6 2292,-6"/>
<text text-anchor="middle" x="2332" y="-13" font-family="FreeSans" font-size="10.00" fill="#000000">appglobals.cpp</text>
</a>
</g>
</g>
<!-- Node10&#45;&gt;Node12 -->
<g id="edge4" class="edge">
<title>Node10&#45;&gt;Node12</title>
<path fill="none" stroke="#191970" d="M1529.8186,-76.2353C1654.4815,-72.8866 2134.3277,-58.4417 2283,-31 2290.6336,-29.591 2298.7379,-27.3495 2306.1114,-25.0041"/>
<polygon fill="#191970" stroke="#191970" points="1529.4244,-72.7445 1519.5207,-76.5083 1529.6099,-79.742 1529.4244,-72.7445"/>
</g>
<!-- Node13 -->
<g id="node6" class="node">
<title>Node13</title>
<g id="a_node6"><a xlink:href="associations_8cpp" target="_top" xlink:title="associations.cpp">
<polygon fill="none" stroke="#000000" points="2390.5,-6 2390.5,-25 2477.5,-25 2477.5,-6 2390.5,-6"/>
<text text-anchor="middle" x="2434" y="-13" font-family="FreeSans" font-size="10.00" fill="#000000">associations.cpp</text>
</a>
</g>
</g>
<!-- Node10&#45;&gt;Node13 -->
<g id="edge5" class="edge">
<title>Node10&#45;&gt;Node13</title>
<path fill="none" stroke="#191970" d="M1530.0108,-76.3688C1664.4303,-73.3984 2211.9206,-59.7352 2381,-31 2389.2226,-29.6026 2397.9776,-27.3648 2405.9534,-25.0192"/>
<polygon fill="#191970" stroke="#191970" points="1529.5926,-72.877 1519.6712,-76.5941 1529.7451,-79.8754 1529.5926,-72.877"/>
</g>
<!-- Node14 -->
<g id="node7" class="node">
<title>Node14</title>
<g id="a_node7"><a xlink:href="backtracedlg_8cpp" target="_top" xlink:title="backtracedlg.cpp">
<polygon fill="none" stroke="#000000" points="2496,-6 2496,-25 2586,-25 2586,-6 2496,-6"/>
<text text-anchor="middle" x="2541" y="-13" font-family="FreeSans" font-size="10.00" fill="#000000">backtracedlg.cpp</text>
</a>
</g>
</g>
<!-- Node10&#45;&gt;Node14 -->
<g id="edge6" class="edge">
<title>Node10&#45;&gt;Node14</title>
<path fill="none" stroke="#191970" d="M1529.8289,-76.5248C1673.4912,-74.0962 2294.9628,-61.9582 2486,-31 2494.5197,-29.6193 2503.6009,-27.387 2511.8779,-25.0412"/>
<polygon fill="#191970" stroke="#191970" points="1529.5301,-73.0292 1519.5897,-76.695 1529.6466,-80.0282 1529.5301,-73.0292"/>
</g>
<!-- Node15 -->
<g id="node8" class="node">
<title>Node15</title>
<g id="a_node8"><a xlink:href="breakpointsdlg_8cpp" target="_top" xlink:title="breakpointsdlg.cpp">
<polygon fill="none" stroke="#000000" points="2604.5,-6 2604.5,-25 2701.5,-25 2701.5,-6 2604.5,-6"/>
<text text-anchor="middle" x="2653" y="-13" font-family="FreeSans" font-size="10.00" fill="#000000">breakpointsdlg.cpp</text>
</a>
</g>
</g>
<!-- Node10&#45;&gt;Node15 -->
<g id="edge7" class="edge">
<title>Node10&#45;&gt;Node15</title>
<path fill="none" stroke="#191970" d="M1529.6585,-76.6326C1682.3594,-74.6076 2381.0101,-63.6833 2595,-31 2603.9639,-29.6309 2613.5338,-27.4022 2622.2625,-25.0563"/>
<polygon fill="#191970" stroke="#191970" points="1529.5753,-73.1333 1519.6217,-76.7632 1529.6664,-80.1327 1529.5753,-73.1333"/>
</g>
<!-- Node16 -->
<g id="node9" class="node">
<title>Node16</title>
<g id="a_node9"><a xlink:href="compilersettingsdlg_8cpp" target="_top" xlink:title="compilersettingsdlg.cpp">
<polygon fill="none" stroke="#000000" points="179.5,-6 179.5,-25 296.5,-25 296.5,-6 179.5,-6"/>
<text text-anchor="middle" x="238" y="-13" font-family="FreeSans" font-size="10.00" fill="#000000">compilersettingsdlg.cpp</text>
</a>
</g>
</g>
<!-- Node10&#45;&gt;Node16 -->
<g id="edge8" class="edge">
<title>Node10&#45;&gt;Node16</title>
<path fill="none" stroke="#191970" d="M1469.894,-76.1819C1295.9798,-71.4105 423.4878,-46.8415 305,-31 294.7045,-29.6235 283.6687,-27.3925 273.5848,-25.0467"/>
<polygon fill="#191970" stroke="#191970" points="1470.0132,-79.6864 1480.1052,-76.4613 1470.2047,-72.689 1470.0132,-79.6864"/>
</g>
<!-- Node17 -->
<g id="node10" class="node">
<title>Node17</title>
<g id="a_node10"><a xlink:href="cpuregistersdlg_8cpp" target="_top" xlink:title="cpuregistersdlg.cpp">
<polygon fill="none" stroke="#000000" points="314.5,-6 314.5,-25 413.5,-25 413.5,-6 314.5,-6"/>
<text text-anchor="middle" x="364" y="-13" font-family="FreeSans" font-size="10.00" fill="#000000">cpuregistersdlg.cpp</text>
</a>
</g>
</g>
<!-- Node10&#45;&gt;Node17 -->
<g id="edge9" class="edge">
<title>Node10&#45;&gt;Node17</title>
<path fill="none" stroke="#191970" d="M1470.0686,-76.1136C1306.8836,-71.229 528.0024,-47.2259 422,-31 413.0366,-29.628 403.4668,-27.3983 394.7381,-25.0524"/>
<polygon fill="#191970" stroke="#191970" points="1470.2263,-79.6198 1480.3263,-76.4197 1470.4352,-72.6229 1470.2263,-79.6198"/>
</g>
<!-- Node18 -->
<g id="node11" class="node">
<title>Node18</title>
<g id="a_node11"><a xlink:href="crashhandler_8cpp" target="_top" xlink:title="crashhandler.cpp">
<polygon fill="none" stroke="#000000" points="431.5,-6 431.5,-25 520.5,-25 520.5,-6 431.5,-6"/>
<text text-anchor="middle" x="476" y="-13" font-family="FreeSans" font-size="10.00" fill="#000000">crashhandler.cpp</text>
</a>
</g>
</g>
<!-- Node10&#45;&gt;Node18 -->
<g id="edge10" class="edge">
<title>Node10&#45;&gt;Node18</title>
<path fill="none" stroke="#191970" d="M1470.1747,-76.0087C1317.1516,-70.8661 623.6833,-46.8564 529,-31 520.774,-29.6224 512.018,-27.391 504.0422,-25.0452"/>
<polygon fill="#191970" stroke="#191970" points="1470.1311,-79.5091 1480.2428,-76.346 1470.3656,-72.513 1470.1311,-79.5091"/>
</g>
<!-- Node19 -->
<g id="node12" class="node">
<title>Node19</title>
<g id="a_node12"><a xlink:href="debugger__interface__creator_8cpp" target="_top" xlink:title="debugger_interface\l_creator.cpp">
<polygon fill="none" stroke="#000000" points="538.5,-.5 538.5,-30.5 637.5,-30.5 637.5,-.5 538.5,-.5"/>
<text text-anchor="start" x="546.5" y="-18.5" font-family="FreeSans" font-size="10.00" fill="#000000">debugger_interface</text>
<text text-anchor="middle" x="588" y="-7.5" font-family="FreeSans" font-size="10.00" fill="#000000">_creator.cpp</text>
</a>
</g>
</g>
<!-- Node10&#45;&gt;Node19 -->
<g id="edge11" class="edge">
<title>Node10&#45;&gt;Node19</title>
<path fill="none" stroke="#191970" d="M1470.1069,-76.2027C1338.5868,-72.5697 810.7109,-56.6459 647,-31 643.9657,-30.5247 640.8618,-29.9581 637.7429,-29.3271"/>
<polygon fill="#191970" stroke="#191970" points="1470.1504,-79.7051 1480.2424,-76.4799 1470.3418,-72.7077 1470.1504,-79.7051"/>
</g>
<!-- Node20 -->
<g id="node13" class="node">
<title>Node20</title>
<g id="a_node13"><a xlink:href="debuggermenu_8cpp" target="_top" xlink:title="debuggermenu.cpp">
<polygon fill="none" stroke="#000000" points="656,-6 656,-25 754,-25 754,-6 656,-6"/>
<text text-anchor="middle" x="705" y="-13" font-family="FreeSans" font-size="10.00" fill="#000000">debuggermenu.cpp</text>
</a>
</g>
</g>
<!-- Node10&#45;&gt;Node20 -->
<g id="edge12" class="edge">
<title>Node10&#45;&gt;Node20</title>
<path fill="none" stroke="#191970" d="M1470.0431,-75.9261C1349.8962,-71.4962 902.721,-53.7971 763,-31 754.1534,-29.5566 744.705,-27.3337 736.0576,-25.018"/>
<polygon fill="#191970" stroke="#191970" points="1470.1988,-79.4341 1480.3201,-76.302 1470.4547,-72.4387 1470.1988,-79.4341"/>
</g>
<!-- Node21 -->
<g id="node14" class="node">
<title>Node21</title>
<g id="a_node14"><a xlink:href="debuggersettingscommonpanel_8cpp" target="_top" xlink:title="debuggersettingscommonpanel.cpp">
<polygon fill="none" stroke="#000000" points="772,-6 772,-25 940,-25 940,-6 772,-6"/>
<text text-anchor="middle" x="856" y="-13" font-family="FreeSans" font-size="10.00" fill="#000000">debuggersettingscommonpanel.cpp</text>
</a>
</g>
</g>
<!-- Node10&#45;&gt;Node21 -->
<g id="edge13" class="edge">
<title>Node10&#45;&gt;Node21</title>
<path fill="none" stroke="#191970" d="M1470.2314,-75.3745C1387.3993,-70.6663 1147.2729,-55.7569 949,-31 935.8436,-29.3573 921.7023,-27.2023 908.5164,-25.0238"/>
<polygon fill="#191970" stroke="#191970" points="1470.2385,-78.8803 1480.4192,-75.947 1470.6313,-71.8914 1470.2385,-78.8803"/>
</g>
<!-- Node22 -->
<g id="node15" class="node">
<title>Node22</title>
<g id="a_node15"><a xlink:href="debuggersettingsdlg_8cpp" target="_top" xlink:title="debuggersettingsdlg.cpp">
<polygon fill="none" stroke="#000000" points="958,-6 958,-25 1078,-25 1078,-6 958,-6"/>
<text text-anchor="middle" x="1018" y="-13" font-family="FreeSans" font-size="10.00" fill="#000000">debuggersettingsdlg.cpp</text>
</a>
</g>
</g>
<!-- Node10&#45;&gt;Node22 -->
<g id="edge14" class="edge">
<title>Node10&#45;&gt;Node22</title>
<path fill="none" stroke="#191970" d="M1470.0791,-74.8036C1401.8253,-69.5456 1229.5103,-54.8685 1087,-31 1077.1917,-29.3572 1066.6824,-27.2023 1056.8977,-25.0237"/>
<polygon fill="#191970" stroke="#191970" points="1469.883,-78.2987 1480.1195,-75.5665 1470.4135,-71.3188 1469.883,-78.2987"/>
</g>
<!-- Node23 -->
<g id="node16" class="node">
<title>Node23</title>
<g id="a_node16"><a xlink:href="debuggersettingspanel_8cpp" target="_top" xlink:title="debuggersettingspanel.cpp">
<polygon fill="none" stroke="#000000" points="1096.5,-6 1096.5,-25 1227.5,-25 1227.5,-6 1096.5,-6"/>
<text text-anchor="middle" x="1162" y="-13" font-family="FreeSans" font-size="10.00" fill="#000000">debuggersettingspanel.cpp</text>
</a>
</g>
</g>
<!-- Node10&#45;&gt;Node23 -->
<g id="edge15" class="edge">
<title>Node10&#45;&gt;Node23</title>
<path fill="none" stroke="#191970" d="M1470.5325,-72.2011C1421.6909,-64.1719 1320.9226,-47.2876 1236,-31 1226.3317,-29.1457 1215.9769,-27.0475 1206.1678,-25.0075"/>
<polygon fill="#191970" stroke="#191970" points="1469.9837,-75.6578 1480.4183,-73.8218 1471.1163,-68.75 1469.9837,-75.6578"/>
</g>
<!-- Node24 -->
<g id="node17" class="node">
<title>Node24</title>
<g id="a_node17"><a xlink:href="disassemblydlg_8cpp" target="_top" xlink:title="disassemblydlg.cpp">
<polygon fill="none" stroke="#000000" points="1245.5,-6 1245.5,-25 1344.5,-25 1344.5,-6 1245.5,-6"/>
<text text-anchor="middle" x="1295" y="-13" font-family="FreeSans" font-size="10.00" fill="#000000">disassemblydlg.cpp</text>
</a>
</g>
</g>
<!-- Node10&#45;&gt;Node24 -->
<g id="edge16" class="edge">
<title>Node10&#45;&gt;Node24</title>
<path fill="none" stroke="#191970" d="M1470.3669,-68.1101C1432.2105,-56.6632 1366.1574,-36.8472 1326.9222,-25.0767"/>
<polygon fill="#191970" stroke="#191970" points="1469.7597,-71.582 1480.3437,-71.1031 1471.7712,-64.8772 1469.7597,-71.582"/>
</g>
<!-- Node25 -->
<g id="node18" class="node">
<title>Node25</title>
<g id="a_node18"><a xlink:href="dlgabout_8cpp" target="_top" xlink:title="dlgabout.cpp">
<polygon fill="none" stroke="#000000" points="1362.5,-6 1362.5,-25 1433.5,-25 1433.5,-6 1362.5,-6"/>
<text text-anchor="middle" x="1398" y="-13" font-family="FreeSans" font-size="10.00" fill="#000000">dlgabout.cpp</text>
</a>
</g>
</g>
<!-- Node10&#45;&gt;Node25 -->
<g id="edge17" class="edge">
<title>Node10&#45;&gt;Node25</title>
<path fill="none" stroke="#191970" d="M1475.2903,-62.1015C1456.1649,-50.57 1430.2503,-34.945 1413.8256,-25.0419"/>
<polygon fill="#191970" stroke="#191970" points="1473.6915,-65.2244 1484.0625,-67.3906 1477.3059,-59.2298 1473.6915,-65.2244"/>
</g>
<!-- Node26 -->
<g id="node19" class="node">
<title>Node26</title>
<g id="a_node19"><a xlink:href="dlgaboutplugin_8cpp" target="_top" xlink:title="dlgaboutplugin.cpp">
<polygon fill="none" stroke="#000000" points="1451.5,-6 1451.5,-25 1548.5,-25 1548.5,-6 1451.5,-6"/>
<text text-anchor="middle" x="1500" y="-13" font-family="FreeSans" font-size="10.00" fill="#000000">dlgaboutplugin.cpp</text>
</a>
</g>
</g>
<!-- Node10&#45;&gt;Node26 -->
<g id="edge18" class="edge">
<title>Node10&#45;&gt;Node26</title>
<path fill="none" stroke="#191970" d="M1500,-57.2462C1500,-46.5519 1500,-33.814 1500,-25.2449"/>
<polygon fill="#191970" stroke="#191970" points="1496.5001,-57.3906 1500,-67.3906 1503.5001,-57.3907 1496.5001,-57.3906"/>
</g>
<!-- Node27 -->
<g id="node20" class="node">
<title>Node27</title>
<g id="a_node20"><a xlink:href="editkeywordsdlg_8cpp" target="_top" xlink:title="editkeywordsdlg.cpp">
<polygon fill="none" stroke="#000000" points="1566.5,-6 1566.5,-25 1669.5,-25 1669.5,-6 1566.5,-6"/>
<text text-anchor="middle" x="1618" y="-13" font-family="FreeSans" font-size="10.00" fill="#000000">editkeywordsdlg.cpp</text>
</a>
</g>
</g>
<!-- Node10&#45;&gt;Node27 -->
<g id="edge19" class="edge">
<title>Node10&#45;&gt;Node27</title>
<path fill="none" stroke="#191970" d="M1527.3867,-62.7264C1549.6174,-51.1401 1580.3454,-35.1251 1599.692,-25.0419"/>
<polygon fill="#191970" stroke="#191970" points="1525.6877,-59.665 1518.4375,-67.3906 1528.923,-65.8725 1525.6877,-59.665"/>
</g>
<!-- Node28 -->
<g id="node21" class="node">
<title>Node28</title>
<g id="a_node21"><a xlink:href="editorconfigurationdlg_8cpp" target="_top" xlink:title="editorconfigurationdlg.cpp">
<polygon fill="none" stroke="#000000" points="1688,-6 1688,-25 1814,-25 1814,-6 1688,-6"/>
<text text-anchor="middle" x="1751" y="-13" font-family="FreeSans" font-size="10.00" fill="#000000">editorconfigurationdlg.cpp</text>
</a>
</g>
</g>
<!-- Node10&#45;&gt;Node28 -->
<g id="edge20" class="edge">
<title>Node10&#45;&gt;Node28</title>
<path fill="none" stroke="#191970" d="M1529.4937,-69.7735C1574.8104,-58.67 1661.5996,-37.4049 1712.0395,-25.0461"/>
<polygon fill="#191970" stroke="#191970" points="1528.5753,-66.3949 1519.6955,-72.1742 1530.2412,-73.1938 1528.5753,-66.3949"/>
</g>
<!-- Node29 -->
<g id="node22" class="node">
<title>Node29</title>
<g id="a_node22"><a xlink:href="environmentsettingsdlg_8cpp" target="_top" xlink:title="environmentsettingsdlg.cpp">
<polygon fill="none" stroke="#000000" points="1832.5,-6 1832.5,-25 1965.5,-25 1965.5,-6 1832.5,-6"/>
<text text-anchor="middle" x="1899" y="-13" font-family="FreeSans" font-size="10.00" fill="#000000">environmentsettingsdlg.cpp</text>
</a>
</g>
</g>
<!-- Node10&#45;&gt;Node29 -->
<g id="edge21" class="edge">
<title>Node10&#45;&gt;Node29</title>
<path fill="none" stroke="#191970" d="M1529.8512,-73.3543C1586.9474,-66.2473 1715.511,-49.598 1823,-31 1833.2171,-29.2322 1844.1636,-27.1256 1854.4764,-25.0439"/>
<polygon fill="#191970" stroke="#191970" points="1529.2214,-69.9055 1519.7272,-74.6075 1530.0814,-76.8525 1529.2214,-69.9055"/>
</g>
<!-- Node30 -->
<g id="node23" class="node">
<title>Node30</title>
<g id="a_node23"><a xlink:href="examinememorydlg_8cpp" target="_top" xlink:title="examinememorydlg.cpp">
<polygon fill="none" stroke="#000000" points="1984,-6 1984,-25 2102,-25 2102,-6 1984,-6"/>
<text text-anchor="middle" x="2043" y="-13" font-family="FreeSans" font-size="10.00" fill="#000000">examinememorydlg.cpp</text>
</a>
</g>
</g>
<!-- Node10&#45;&gt;Node30 -->
<g id="edge22" class="edge">
<title>Node10&#45;&gt;Node30</title>
<path fill="none" stroke="#191970" d="M1529.6212,-75.4079C1604.4659,-71.1078 1807.0965,-57.739 1974,-31 1983.9409,-29.4074 1994.5929,-27.2448 2004.4804,-25.0407"/>
<polygon fill="#191970" stroke="#191970" points="1529.3123,-71.9197 1519.5252,-75.9771 1529.7064,-78.9086 1529.3123,-71.9197"/>
</g>
<!-- Node31 -->
<g id="node24" class="node">
<title>Node31</title>
<g id="a_node24"><a xlink:href="find__replace_8cpp" target="_top" xlink:title="find_replace.cpp">
<polygon fill="none" stroke="#000000" points="2120,-6 2120,-25 2206,-25 2206,-6 2120,-6"/>
<text text-anchor="middle" x="2163" y="-13" font-family="FreeSans" font-size="10.00" fill="#000000">find_replace.cpp</text>
</a>
</g>
</g>
<!-- Node10&#45;&gt;Node31 -->
<g id="edge23" class="edge">
<title>Node10&#45;&gt;Node31</title>
<path fill="none" stroke="#191970" d="M1529.539,-75.6177C1635.6424,-70.5217 1997.2196,-51.9889 2111,-31 2118.8744,-29.5474 2127.2524,-27.3506 2134.9315,-25.064"/>
<polygon fill="#191970" stroke="#191970" points="1529.3534,-72.1225 1519.5314,-76.0948 1529.6868,-79.1146 1529.3534,-72.1225"/>
</g>
<!-- Node10&#45;&gt;Node36 -->
<g id="edge24" class="edge">
<title>Node10&#45;&gt;Node36</title>
<path fill="none" stroke="#191970" d="M1470.103,-76.6937C1276.7588,-74.6265 206.7071,-61.8528 65,-31 59.0115,-29.6962 52.7681,-27.4572 47.1525,-25.08"/>
<polygon fill="#191970" stroke="#191970" points="1470.3222,-80.1961 1480.3586,-76.802 1470.3962,-73.1965 1470.3222,-80.1961"/>
</g>
<!-- Node10&#45;&gt;Node74 -->
<g id="edge25" class="edge">
<title>Node10&#45;&gt;Node74</title>
<path fill="none" stroke="#191970" d="M1470.0779,-76.1814C1279.0755,-70.929 236.2619,-41.8383 170,-31 161.8189,-29.6618 153.1177,-27.4121 145.2208,-25.0356"/>
<polygon fill="#191970" stroke="#191970" points="1470.1328,-79.6841 1480.2251,-76.46 1470.325,-72.6868 1470.1328,-79.6841"/>
</g>
<!-- Node10&#45;&gt;Node111 -->
<g id="edge26" class="edge">
<title>Node10&#45;&gt;Node111</title>
<path fill="none" stroke="#191970" d="M1529.9464,-76.3423C1704.8467,-72.4371 2590.6226,-51.7603 2710,-31 2717.7356,-29.6547 2725.943,-27.4028 2733.3838,-25.0265"/>
<polygon fill="#191970" stroke="#191970" points="1529.6087,-72.8489 1519.6889,-76.5703 1529.7643,-79.8471 1529.6087,-72.8489"/>
</g>
<!-- Node113&#45;&gt;Node115 -->
<g id="edge28" class="edge">
<title>Node113&#45;&gt;Node115</title>
<path fill="none" stroke="#191970" d="M2748.4164,-63.7993C2779.6793,-52.1468 2824.502,-35.4402 2852.3998,-25.0419"/>
<polygon fill="#191970" stroke="#191970" points="2746.9291,-60.6184 2738.7813,-67.3906 2749.3739,-67.1776 2746.9291,-60.6184"/>
</g>
<!-- Node113&#45;&gt;Node187 -->
<g id="edge29" class="edge">
<title>Node113&#45;&gt;Node187</title>
<path fill="none" stroke="#191970" d="M2764.0464,-66.8196C2846.8687,-50.8217 2869.837,-50.8984 2948,-31 2954.7444,-29.2831 2961.9278,-27.1734 2968.6566,-25.0698"/>
<polygon fill="#191970" stroke="#191970" points="2763.3411,-63.3911 2754.1973,-68.7429 2764.6828,-70.2613 2763.3411,-63.3911"/>
</g>
<!-- Node206&#45;&gt;Node111 -->
<g id="edge36" class="edge">
<title>Node206&#45;&gt;Node111</title>
<path fill="none" stroke="#191970" d="M2668.1575,-114.7313C2660.7804,-100.8418 2654.2135,-81.6845 2663,-67 2671.0603,-53.5291 2709.0326,-35.874 2734.7357,-25.1252"/>
<polygon fill="#191970" stroke="#191970" points="2665.1478,-116.5182 2673.2154,-123.3859 2671.1914,-112.9862 2665.1478,-116.5182"/>
</g>
<!-- Node207 -->
<g id="node32" class="node">
<title>Node207</title>
<g id="a_node32"><a xlink:href="debuggergdb__test__backtrace_8cpp" target="_top" xlink:title="debuggergdb_test_backtrace.cpp">
<polygon fill="none" stroke="#000000" points="2772.5,-67.5 2772.5,-86.5 2931.5,-86.5 2931.5,-67.5 2772.5,-67.5"/>
<text text-anchor="middle" x="2852" y="-74.5" font-family="FreeSans" font-size="10.00" fill="#000000">debuggergdb_test_backtrace.cpp</text>
</a>
</g>
</g>
<!-- Node206&#45;&gt;Node207 -->
<g id="edge35" class="edge">
<title>Node206&#45;&gt;Node207</title>
<path fill="none" stroke="#191970" d="M2719.3435,-120.1905C2750.8551,-109.9309 2794.3519,-95.7691 2822.818,-86.5011"/>
<polygon fill="#191970" stroke="#191970" points="2717.993,-116.9493 2709.5679,-123.3733 2720.1601,-123.6054 2717.993,-116.9493"/>
</g>
</g>
</svg>
