<?xml version="1.0" encoding="UTF-8" standalone="no"?>
<!DOCTYPE svg PUBLIC "-//W3C//DTD SVG 1.1//EN"
 "http://www.w3.org/Graphics/SVG/1.1/DTD/svg11.dtd">
<!-- Generated by graphviz version 2.38.0 (20140413.2041)
 -->
<!-- Title: infowindow.h Pages: 1 -->
<svg width="3045pt" height="207pt"
 viewBox="0.00 0.00 3045.00 207.00" xmlns="http://www.w3.org/2000/svg" xmlns:xlink="http://www.w3.org/1999/xlink">
<g id="graph0" class="graph" transform="scale(1 1) rotate(0) translate(4 203)">
<title>infowindow.h</title>
<!-- Node8 -->
<g id="node1" class="node"><title>Node8</title>
<polygon fill="#bfbfbf" stroke="black" points="2570.5,-179.5 2570.5,-198.5 2641.5,-198.5 2641.5,-179.5 2570.5,-179.5"/>
<text text-anchor="middle" x="2606" y="-186.5" font-family="FreeSans" font-size="10.00">infowindow.h</text>
</g>
<!-- Node9 -->
<g id="node2" class="node"><title>Node9</title>
<g id="a_node2"><a xlink:href="sdk__common_8h" target="_top" xlink:title="sdk_common.h">
<polygon fill="none" stroke="black" points="2496,-123.5 2496,-142.5 2578,-142.5 2578,-123.5 2496,-123.5"/>
<text text-anchor="middle" x="2537" y="-130.5" font-family="FreeSans" font-size="10.00">sdk_common.h</text>
</a>
</g>
</g>
<!-- Node8&#45;&gt;Node9 -->
<g id="edge1" class="edge"><title>Node8&#45;&gt;Node9</title>
<path fill="none" stroke="midnightblue" d="M2586.96,-173.101C2574.54,-163.382 2558.76,-151.027 2548.29,-142.834"/>
<polygon fill="midnightblue" stroke="midnightblue" points="2584.88,-175.917 2594.91,-179.324 2589.2,-170.405 2584.88,-175.917"/>
</g>
<!-- Node36 -->
<g id="node25" class="node"><title>Node36</title>
<g id="a_node25"><a xlink:href="main_8cpp" target="_top" xlink:title="main.cpp">
<polygon fill="none" stroke="black" points="0,-6 0,-25 56,-25 56,-6 0,-6"/>
<text text-anchor="middle" x="28" y="-13" font-family="FreeSans" font-size="10.00">main.cpp</text>
</a>
</g>
</g>
<!-- Node8&#45;&gt;Node36 -->
<g id="edge32" class="edge"><title>Node8&#45;&gt;Node36</title>
<path fill="none" stroke="midnightblue" d="M2560.11,-187.769C2332.86,-186.219 1305.51,-174.468 470,-87 289.275,-68.0802 240.816,-76.9151 65,-31 59.1257,-29.4659 52.9179,-27.2731 47.3,-25.0558"/>
<polygon fill="midnightblue" stroke="midnightblue" points="2560.3,-191.27 2570.32,-187.835 2560.35,-184.27 2560.3,-191.27"/>
</g>
<!-- Node74 -->
<g id="node26" class="node"><title>Node74</title>
<g id="a_node26"><a xlink:href="compilergcc_8cpp" target="_top" xlink:title="compilergcc.cpp">
<polygon fill="none" stroke="black" points="74.5,-6 74.5,-25 161.5,-25 161.5,-6 74.5,-6"/>
<text text-anchor="middle" x="118" y="-13" font-family="FreeSans" font-size="10.00">compilergcc.cpp</text>
</a>
</g>
</g>
<!-- Node8&#45;&gt;Node74 -->
<g id="edge33" class="edge"><title>Node8&#45;&gt;Node74</title>
<path fill="none" stroke="midnightblue" d="M2560.01,-186.341C2266.78,-175.571 655.458,-113.408 170,-31 161.592,-29.5727 152.59,-27.3279 144.48,-25.0272"/>
<polygon fill="midnightblue" stroke="midnightblue" points="2560.15,-189.849 2570.27,-186.717 2560.4,-182.854 2560.15,-189.849"/>
</g>
<!-- Node111 -->
<g id="node27" class="node"><title>Node111</title>
<g id="a_node27"><a xlink:href="gdb__driver_8cpp" target="_top" xlink:title="gdb_driver.cpp">
<polygon fill="none" stroke="black" points="2719.5,-6 2719.5,-25 2798.5,-25 2798.5,-6 2719.5,-6"/>
<text text-anchor="middle" x="2759" y="-13" font-family="FreeSans" font-size="10.00">gdb_driver.cpp</text>
</a>
</g>
</g>
<!-- Node8&#45;&gt;Node111 -->
<g id="edge37" class="edge"><title>Node8&#45;&gt;Node111</title>
<path fill="none" stroke="midnightblue" d="M2608.73,-169.186C2613.51,-142.84 2625.82,-95.0435 2655,-67 2676.27,-46.5555 2707.41,-32.9391 2730.06,-25.0501"/>
<polygon fill="midnightblue" stroke="midnightblue" points="2605.23,-168.907 2607.07,-179.34 2612.14,-170.034 2605.23,-168.907"/>
</g>
<!-- Node115 -->
<g id="node29" class="node"><title>Node115</title>
<g id="a_node29"><a xlink:href="autodetectcompilers_8cpp" target="_top" xlink:title="autodetectcompilers.cpp">
<polygon fill="none" stroke="black" points="2817,-6 2817,-25 2939,-25 2939,-6 2817,-6"/>
<text text-anchor="middle" x="2878" y="-13" font-family="FreeSans" font-size="10.00">autodetectcompilers.cpp</text>
</a>
</g>
</g>
<!-- Node8&#45;&gt;Node115 -->
<g id="edge30" class="edge"><title>Node8&#45;&gt;Node115</title>
<path fill="none" stroke="midnightblue" d="M2651.7,-180.973C2734.81,-167.158 2905.34,-133.694 2940,-87 2957.58,-63.3116 2919.31,-37.8776 2895.37,-25.0081"/>
<polygon fill="midnightblue" stroke="midnightblue" points="2651.07,-177.528 2641.77,-182.598 2652.21,-184.436 2651.07,-177.528"/>
</g>
<!-- Node187 -->
<g id="node30" class="node"><title>Node187</title>
<g id="a_node30"><a xlink:href="sc__globals_8cpp" target="_top" xlink:title="sc_globals.cpp">
<polygon fill="none" stroke="black" points="2957,-6 2957,-25 3037,-25 3037,-6 2957,-6"/>
<text text-anchor="middle" x="2997" y="-13" font-family="FreeSans" font-size="10.00">sc_globals.cpp</text>
</a>
</g>
</g>
<!-- Node8&#45;&gt;Node187 -->
<g id="edge31" class="edge"><title>Node8&#45;&gt;Node187</title>
<path fill="none" stroke="midnightblue" d="M2652.06,-185.746C2705.94,-181.853 2797.06,-171.321 2870,-143 2912.87,-126.355 2925.4,-120.411 2957,-87 2974.98,-67.9823 2987.95,-39.3832 2993.7,-25.165"/>
<polygon fill="midnightblue" stroke="midnightblue" points="2651.53,-182.273 2641.79,-186.439 2652.01,-189.257 2651.53,-182.273"/>
</g>
<!-- Node206 -->
<g id="node31" class="node"><title>Node206</title>
<g id="a_node31"><a xlink:href="gdb__commands_8h" target="_top" xlink:title="gdb_commands.h">
<polygon fill="none" stroke="black" points="2634,-123.5 2634,-142.5 2726,-142.5 2726,-123.5 2634,-123.5"/>
<text text-anchor="middle" x="2680" y="-130.5" font-family="FreeSans" font-size="10.00">gdb_commands.h</text>
</a>
</g>
</g>
<!-- Node8&#45;&gt;Node206 -->
<g id="edge34" class="edge"><title>Node8&#45;&gt;Node206</title>
<path fill="none" stroke="midnightblue" d="M2626.03,-173.38C2639.41,-163.62 2656.56,-151.106 2667.89,-142.834"/>
<polygon fill="midnightblue" stroke="midnightblue" points="2623.9,-170.602 2617.89,-179.324 2628.03,-176.257 2623.9,-170.602"/>
</g>
<!-- Node10 -->
<g id="node3" class="node"><title>Node10</title>
<g id="a_node3"><a xlink:href="sdk_8h" target="_top" xlink:title="sdk.h">
<polygon fill="none" stroke="red" points="1480.5,-67.5 1480.5,-86.5 1519.5,-86.5 1519.5,-67.5 1480.5,-67.5"/>
<text text-anchor="middle" x="1500" y="-74.5" font-family="FreeSans" font-size="10.00">sdk.h</text>
</a>
</g>
</g>
<!-- Node9&#45;&gt;Node10 -->
<g id="edge2" class="edge"><title>Node9&#45;&gt;Node10</title>
<path fill="none" stroke="midnightblue" d="M2485.46,-129.316C2295.8,-119.44 1641.41,-85.3638 1519.6,-79.0207"/>
<polygon fill="midnightblue" stroke="midnightblue" points="2485.54,-132.825 2495.71,-129.85 2485.9,-125.834 2485.54,-132.825"/>
</g>
<!-- Node113 -->
<g id="node28" class="node"><title>Node113</title>
<g id="a_node28"><a xlink:href="sdk__precomp_8h" target="_top" xlink:title="sdk_precomp.h">
<polygon fill="none" stroke="red" points="2672,-67.5 2672,-86.5 2754,-86.5 2754,-67.5 2672,-67.5"/>
<text text-anchor="middle" x="2713" y="-74.5" font-family="FreeSans" font-size="10.00">sdk_precomp.h</text>
</a>
</g>
</g>
<!-- Node9&#45;&gt;Node113 -->
<g id="edge27" class="edge"><title>Node9&#45;&gt;Node113</title>
<path fill="none" stroke="midnightblue" d="M2574.69,-120.436C2607.87,-110.255 2655.43,-95.664 2685.24,-86.5164"/>
<polygon fill="midnightblue" stroke="midnightblue" points="2573.42,-117.164 2564.89,-123.444 2575.47,-123.856 2573.42,-117.164"/>
</g>
<!-- Node11 -->
<g id="node4" class="node"><title>Node11</title>
<g id="a_node4"><a xlink:href="app_8cpp" target="_top" xlink:title="app.cpp">
<polygon fill="none" stroke="black" points="2224,-6 2224,-25 2274,-25 2274,-6 2224,-6"/>
<text text-anchor="middle" x="2249" y="-13" font-family="FreeSans" font-size="10.00">app.cpp</text>
</a>
</g>
</g>
<!-- Node10&#45;&gt;Node11 -->
<g id="edge3" class="edge"><title>Node10&#45;&gt;Node11</title>
<path fill="none" stroke="midnightblue" d="M1529.95,-75.4663C1648.06,-73.1532 2081.66,-62.6415 2215,-31 2220.74,-29.6369 2226.75,-27.3809 2232.09,-25.0497"/>
<polygon fill="midnightblue" stroke="midnightblue" points="1529.76,-71.9692 1519.83,-75.6594 1529.89,-78.968 1529.76,-71.9692"/>
</g>
<!-- Node12 -->
<g id="node5" class="node"><title>Node12</title>
<g id="a_node5"><a xlink:href="appglobals_8cpp" target="_top" xlink:title="appglobals.cpp">
<polygon fill="none" stroke="black" points="2292,-6 2292,-25 2372,-25 2372,-6 2292,-6"/>
<text text-anchor="middle" x="2332" y="-13" font-family="FreeSans" font-size="10.00">appglobals.cpp</text>
</a>
</g>
</g>
<!-- Node10&#45;&gt;Node12 -->
<g id="edge4" class="edge"><title>Node10&#45;&gt;Node12</title>
<path fill="none" stroke="midnightblue" d="M1529.81,-75.2051C1654.41,-71.7403 2134.07,-56.9568 2283,-31 2291.04,-29.5986 2299.63,-27.3318 2307.34,-25.0025"/>
<polygon fill="midnightblue" stroke="midnightblue" points="1529.41,-71.7145 1519.51,-75.4879 1529.6,-78.7118 1529.41,-71.7145"/>
</g>
<!-- Node13 -->
<g id="node6" class="node"><title>Node13</title>
<g id="a_node6"><a xlink:href="associations_8cpp" target="_top" xlink:title="associations.cpp">
<polygon fill="none" stroke="black" points="2390.5,-6 2390.5,-25 2477.5,-25 2477.5,-6 2390.5,-6"/>
<text text-anchor="middle" x="2434" y="-13" font-family="FreeSans" font-size="10.00">associations.cpp</text>
</a>
</g>
</g>
<!-- Node10&#45;&gt;Node13 -->
<g id="edge5" class="edge"><title>Node10&#45;&gt;Node13</title>
<path fill="none" stroke="midnightblue" d="M1530,-75.3379C1664.37,-72.2387 2211.67,-58.1599 2381,-31 2389.67,-29.6101 2398.95,-27.3465 2407.28,-25.0167"/>
<polygon fill="midnightblue" stroke="midnightblue" points="1529.58,-71.8464 1519.66,-75.5733 1529.74,-78.8446 1529.58,-71.8464"/>
</g>
<!-- Node14 -->
<g id="node7" class="node"><title>Node14</title>
<g id="a_node7"><a xlink:href="backtracedlg_8cpp" target="_top" xlink:title="backtracedlg.cpp">
<polygon fill="none" stroke="black" points="2496,-6 2496,-25 2586,-25 2586,-6 2496,-6"/>
<text text-anchor="middle" x="2541" y="-13" font-family="FreeSans" font-size="10.00">backtracedlg.cpp</text>
</a>
</g>
</g>
<!-- Node10&#45;&gt;Node14 -->
<g id="edge6" class="edge"><title>Node10&#45;&gt;Node14</title>
<path fill="none" stroke="midnightblue" d="M1529.82,-75.4918C1673.43,-72.9138 2294.7,-60.2425 2486,-31 2494.98,-29.6272 2504.61,-27.3684 2513.26,-25.0378"/>
<polygon fill="midnightblue" stroke="midnightblue" points="1529.52,-71.9964 1519.58,-75.6728 1529.64,-78.9953 1529.52,-71.9964"/>
</g>
<!-- Node15 -->
<g id="node8" class="node"><title>Node15</title>
<g id="a_node8"><a xlink:href="breakpointsdlg_8cpp" target="_top" xlink:title="breakpointsdlg.cpp">
<polygon fill="none" stroke="black" points="2604.5,-6 2604.5,-25 2701.5,-25 2701.5,-6 2604.5,-6"/>
<text text-anchor="middle" x="2653" y="-13" font-family="FreeSans" font-size="10.00">breakpointsdlg.cpp</text>
</a>
</g>
</g>
<!-- Node10&#45;&gt;Node15 -->
<g id="edge7" class="edge"><title>Node10&#45;&gt;Node15</title>
<path fill="none" stroke="midnightblue" d="M1529.65,-75.5992C1682.3,-73.4109 2380.75,-61.8544 2595,-31 2604.45,-29.6389 2614.6,-27.3834 2623.72,-25.0522"/>
<polygon fill="midnightblue" stroke="midnightblue" points="1529.56,-72.0999 1519.62,-75.7407 1529.66,-79.0992 1529.56,-72.0999"/>
</g>
<!-- Node16 -->
<g id="node9" class="node"><title>Node16</title>
<g id="a_node9"><a xlink:href="compilersettingsdlg_8cpp" target="_top" xlink:title="compilersettingsdlg.cpp">
<polygon fill="none" stroke="black" points="179.5,-6 179.5,-25 296.5,-25 296.5,-6 179.5,-6"/>
<text text-anchor="middle" x="238" y="-13" font-family="FreeSans" font-size="10.00">compilersettingsdlg.cpp</text>
</a>
</g>
</g>
<!-- Node10&#45;&gt;Node16 -->
<g id="edge8" class="edge"><title>Node10&#45;&gt;Node16</title>
<path fill="none" stroke="midnightblue" d="M1469.9,-75.1831C1296,-70.422 423.6,-45.9491 305,-31 294.137,-29.6307 282.428,-27.373 271.885,-25.0421"/>
<polygon fill="midnightblue" stroke="midnightblue" points="1470.02,-78.6876 1480.11,-75.462 1470.21,-71.6902 1470.02,-78.6876"/>
</g>
<!-- Node17 -->
<g id="node10" class="node"><title>Node17</title>
<g id="a_node10"><a xlink:href="cpuregistersdlg_8cpp" target="_top" xlink:title="cpuregistersdlg.cpp">
<polygon fill="none" stroke="black" points="314.5,-6 314.5,-25 413.5,-25 413.5,-6 314.5,-6"/>
<text text-anchor="middle" x="364" y="-13" font-family="FreeSans" font-size="10.00">cpuregistersdlg.cpp</text>
</a>
</g>
</g>
<!-- Node10&#45;&gt;Node17 -->
<g id="edge9" class="edge"><title>Node10&#45;&gt;Node17</title>
<path fill="none" stroke="midnightblue" d="M1470.07,-75.1144C1306.91,-70.2375 528.133,-46.3192 422,-31 412.549,-29.6358 402.4,-27.3795 393.276,-25.0484"/>
<polygon fill="midnightblue" stroke="midnightblue" points="1470.23,-78.6205 1480.33,-75.4201 1470.44,-71.6236 1470.23,-78.6205"/>
</g>
<!-- Node18 -->
<g id="node11" class="node"><title>Node18</title>
<g id="a_node11"><a xlink:href="crashhandler_8cpp" target="_top" xlink:title="crashhandler.cpp">
<polygon fill="none" stroke="black" points="431.5,-6 431.5,-25 520.5,-25 520.5,-6 431.5,-6"/>
<text text-anchor="middle" x="476" y="-13" font-family="FreeSans" font-size="10.00">crashhandler.cpp</text>
</a>
</g>
</g>
<!-- Node10&#45;&gt;Node18 -->
<g id="edge10" class="edge"><title>Node10&#45;&gt;Node18</title>
<path fill="none" stroke="midnightblue" d="M1470.17,-75.5043C1327.86,-73.0041 717.045,-60.7065 529,-31 520.331,-29.6305 511.048,-27.3727 502.712,-25.0419"/>
<polygon fill="midnightblue" stroke="midnightblue" points="1470.26,-79.0064 1480.32,-75.6799 1470.39,-72.0074 1470.26,-79.0064"/>
</g>
<!-- Node19 -->
<g id="node12" class="node"><title>Node19</title>
<g id="a_node12"><a xlink:href="debugger__interface__creator_8cpp" target="_top" xlink:title="debugger_interface\l_creator.cpp">
<polygon fill="none" stroke="black" points="538.5,-0.5 538.5,-30.5 637.5,-30.5 637.5,-0.5 538.5,-0.5"/>
<text text-anchor="start" x="546.5" y="-18.5" font-family="FreeSans" font-size="10.00">debugger_interface</text>
<text text-anchor="middle" x="588" y="-7.5" font-family="FreeSans" font-size="10.00">_creator.cpp</text>
</a>
</g>
</g>
<!-- Node10&#45;&gt;Node19 -->
<g id="edge11" class="edge"><title>Node10&#45;&gt;Node19</title>
<path fill="none" stroke="midnightblue" d="M1470.12,-75.1792C1338.64,-71.4516 810.914,-55.2447 647,-31 643.974,-30.5524 640.877,-30.0202 637.762,-29.4282"/>
<polygon fill="midnightblue" stroke="midnightblue" points="1470.15,-78.6815 1480.25,-75.4638 1470.35,-71.6843 1470.15,-78.6815"/>
</g>
<!-- Node20 -->
<g id="node13" class="node"><title>Node20</title>
<g id="a_node13"><a xlink:href="debuggermenu_8cpp" target="_top" xlink:title="debuggermenu.cpp">
<polygon fill="none" stroke="black" points="656,-6 656,-25 754,-25 754,-6 656,-6"/>
<text text-anchor="middle" x="705" y="-13" font-family="FreeSans" font-size="10.00">debuggermenu.cpp</text>
</a>
</g>
</g>
<!-- Node10&#45;&gt;Node20 -->
<g id="edge12" class="edge"><title>Node10&#45;&gt;Node20</title>
<path fill="none" stroke="midnightblue" d="M1470.19,-76.1388C1369.83,-76.1904 1035.29,-72.9826 763,-31 753.665,-29.5607 743.638,-27.3125 734.59,-25.0122"/>
<polygon fill="midnightblue" stroke="midnightblue" points="1470.22,-79.6389 1480.21,-76.1219 1470.21,-72.6389 1470.22,-79.6389"/>
</g>
<!-- Node21 -->
<g id="node14" class="node"><title>Node21</title>
<g id="a_node14"><a xlink:href="debuggersettingscommonpanel_8cpp" target="_top" xlink:title="debuggersettingscommonpanel.cpp">
<polygon fill="none" stroke="black" points="772,-6 772,-25 940,-25 940,-6 772,-6"/>
<text text-anchor="middle" x="856" y="-13" font-family="FreeSans" font-size="10.00">debuggersettingscommonpanel.cpp</text>
</a>
</g>
</g>
<!-- Node10&#45;&gt;Node21 -->
<g id="edge13" class="edge"><title>Node10&#45;&gt;Node21</title>
<path fill="none" stroke="midnightblue" d="M1470.24,-74.3382C1387.44,-69.5485 1147.39,-54.5353 949,-31 935.045,-29.3445 919.97,-27.1649 906.103,-25.0001"/>
<polygon fill="midnightblue" stroke="midnightblue" points="1470.24,-77.8439 1480.43,-74.9214 1470.64,-70.8553 1470.24,-77.8439"/>
</g>
<!-- Node22 -->
<g id="node15" class="node"><title>Node22</title>
<g id="a_node15"><a xlink:href="debuggersettingsdlg_8cpp" target="_top" xlink:title="debuggersettingsdlg.cpp">
<polygon fill="none" stroke="black" points="958,-6 958,-25 1078,-25 1078,-6 958,-6"/>
<text text-anchor="middle" x="1018" y="-13" font-family="FreeSans" font-size="10.00">debuggersettingsdlg.cpp</text>
</a>
</g>
</g>
<!-- Node10&#45;&gt;Node22 -->
<g id="edge14" class="edge"><title>Node10&#45;&gt;Node22</title>
<path fill="none" stroke="midnightblue" d="M1470.1,-73.7598C1401.89,-68.4272 1229.66,-53.7053 1087,-31 1076.6,-29.3454 1065.41,-27.1661 1055.12,-25.0013"/>
<polygon fill="midnightblue" stroke="midnightblue" points="1469.89,-77.2542 1480.13,-74.5348 1470.43,-70.2749 1469.89,-77.2542"/>
</g>
<!-- Node23 -->
<g id="node16" class="node"><title>Node23</title>
<g id="a_node16"><a xlink:href="debuggersettingspanel_8cpp" target="_top" xlink:title="debuggersettingspanel.cpp">
<polygon fill="none" stroke="black" points="1096.5,-6 1096.5,-25 1227.5,-25 1227.5,-6 1096.5,-6"/>
<text text-anchor="middle" x="1162" y="-13" font-family="FreeSans" font-size="10.00">debuggersettingspanel.cpp</text>
</a>
</g>
</g>
<!-- Node10&#45;&gt;Node23 -->
<g id="edge15" class="edge"><title>Node10&#45;&gt;Node23</title>
<path fill="none" stroke="midnightblue" d="M1470.55,-71.2236C1421.73,-63.2515 1321,-46.5698 1236,-31 1225.83,-29.1366 1214.89,-27.0424 1204.62,-25.0374"/>
<polygon fill="midnightblue" stroke="midnightblue" points="1470,-74.6796 1480.43,-72.8339 1471.12,-67.7708 1470,-74.6796"/>
</g>
<!-- Node24 -->
<g id="node17" class="node"><title>Node24</title>
<g id="a_node17"><a xlink:href="disassemblydlg_8cpp" target="_top" xlink:title="disassemblydlg.cpp">
<polygon fill="none" stroke="black" points="1245.5,-6 1245.5,-25 1344.5,-25 1344.5,-6 1245.5,-6"/>
<text text-anchor="middle" x="1295" y="-13" font-family="FreeSans" font-size="10.00">disassemblydlg.cpp</text>
</a>
</g>
</g>
<!-- Node10&#45;&gt;Node24 -->
<g id="edge16" class="edge"><title>Node10&#45;&gt;Node24</title>
<path fill="none" stroke="midnightblue" d="M1470.65,-67.482C1431.72,-56.1817 1363.38,-36.3473 1324.41,-25.0373"/>
<polygon fill="midnightblue" stroke="midnightblue" points="1469.76,-70.8687 1480.34,-70.2949 1471.72,-64.1461 1469.76,-70.8687"/>
</g>
<!-- Node25 -->
<g id="node18" class="node"><title>Node25</title>
<g id="a_node18"><a xlink:href="dlgabout_8cpp" target="_top" xlink:title="dlgabout.cpp">
<polygon fill="none" stroke="black" points="1362.5,-6 1362.5,-25 1433.5,-25 1433.5,-6 1362.5,-6"/>
<text text-anchor="middle" x="1398" y="-13" font-family="FreeSans" font-size="10.00">dlgabout.cpp</text>
</a>
</g>
</g>
<!-- Node10&#45;&gt;Node25 -->
<g id="edge17" class="edge"><title>Node10&#45;&gt;Node25</title>
<path fill="none" stroke="midnightblue" d="M1476.69,-62.4006C1456.96,-50.8957 1429.31,-34.7667 1412.59,-25.0091"/>
<polygon fill="midnightblue" stroke="midnightblue" points="1474.98,-65.4596 1485.39,-67.4751 1478.51,-59.4131 1474.98,-65.4596"/>
</g>
<!-- Node26 -->
<g id="node19" class="node"><title>Node26</title>
<g id="a_node19"><a xlink:href="dlgaboutplugin_8cpp" target="_top" xlink:title="dlgaboutplugin.cpp">
<polygon fill="none" stroke="black" points="1451.5,-6 1451.5,-25 1548.5,-25 1548.5,-6 1451.5,-6"/>
<text text-anchor="middle" x="1500" y="-13" font-family="FreeSans" font-size="10.00">dlgaboutplugin.cpp</text>
</a>
</g>
</g>
<!-- Node10&#45;&gt;Node26 -->
<g id="edge18" class="edge"><title>Node10&#45;&gt;Node26</title>
<path fill="none" stroke="midnightblue" d="M1500,-57.3165C1500,-46.4962 1500,-33.398 1500,-25.0091"/>
<polygon fill="midnightblue" stroke="midnightblue" points="1496.5,-57.4751 1500,-67.4751 1503.5,-57.4751 1496.5,-57.4751"/>
</g>
<!-- Node27 -->
<g id="node20" class="node"><title>Node27</title>
<g id="a_node20"><a xlink:href="editkeywordsdlg_8cpp" target="_top" xlink:title="editkeywordsdlg.cpp">
<polygon fill="none" stroke="black" points="1566.5,-6 1566.5,-25 1669.5,-25 1669.5,-6 1566.5,-6"/>
<text text-anchor="middle" x="1618" y="-13" font-family="FreeSans" font-size="10.00">editkeywordsdlg.cpp</text>
</a>
</g>
</g>
<!-- Node10&#45;&gt;Node27 -->
<g id="edge19" class="edge"><title>Node10&#45;&gt;Node27</title>
<path fill="none" stroke="midnightblue" d="M1526.05,-62.8665C1548.92,-51.3347 1581.51,-34.8992 1601.12,-25.0091"/>
<polygon fill="midnightblue" stroke="midnightblue" points="1524.26,-59.8475 1516.91,-67.4751 1527.41,-66.0979 1524.26,-59.8475"/>
</g>
<!-- Node28 -->
<g id="node21" class="node"><title>Node28</title>
<g id="a_node21"><a xlink:href="editorconfigurationdlg_8cpp" target="_top" xlink:title="editorconfigurationdlg.cpp">
<polygon fill="none" stroke="black" points="1688,-6 1688,-25 1814,-25 1814,-6 1688,-6"/>
<text text-anchor="middle" x="1751" y="-13" font-family="FreeSans" font-size="10.00">editorconfigurationdlg.cpp</text>
</a>
</g>
</g>
<!-- Node10&#45;&gt;Node28 -->
<g id="edge20" class="edge"><title>Node10&#45;&gt;Node28</title>
<path fill="none" stroke="midnightblue" d="M1529.67,-68.9664C1575.86,-58.0178 1664.81,-36.9308 1714.74,-25.0962"/>
<polygon fill="midnightblue" stroke="midnightblue" points="1528.62,-65.6188 1519.7,-71.3311 1530.23,-72.4301 1528.62,-65.6188"/>
</g>
<!-- Node29 -->
<g id="node22" class="node"><title>Node29</title>
<g id="a_node22"><a xlink:href="environmentsettingsdlg_8cpp" target="_top" xlink:title="environmentsettingsdlg.cpp">
<polygon fill="none" stroke="black" points="1832.5,-6 1832.5,-25 1965.5,-25 1965.5,-6 1832.5,-6"/>
<text text-anchor="middle" x="1899" y="-13" font-family="FreeSans" font-size="10.00">environmentsettingsdlg.cpp</text>
</a>
</g>
</g>
<!-- Node10&#45;&gt;Node29 -->
<g id="edge21" class="edge"><title>Node10&#45;&gt;Node29</title>
<path fill="none" stroke="midnightblue" d="M1529.83,-72.3512C1586.9,-65.2592 1715.41,-48.746 1823,-31 1833.87,-29.2074 1845.57,-27.0755 1856.46,-25.0055"/>
<polygon fill="midnightblue" stroke="midnightblue" points="1529.21,-68.9016 1519.71,-73.6028 1530.07,-75.8486 1529.21,-68.9016"/>
</g>
<!-- Node30 -->
<g id="node23" class="node"><title>Node30</title>
<g id="a_node23"><a xlink:href="examinememorydlg_8cpp" target="_top" xlink:title="examinememorydlg.cpp">
<polygon fill="none" stroke="black" points="1984,-6 1984,-25 2102,-25 2102,-6 1984,-6"/>
<text text-anchor="middle" x="2043" y="-13" font-family="FreeSans" font-size="10.00">examinememorydlg.cpp</text>
</a>
</g>
</g>
<!-- Node10&#45;&gt;Node30 -->
<g id="edge22" class="edge"><title>Node10&#45;&gt;Node30</title>
<path fill="none" stroke="midnightblue" d="M1529.6,-74.3508C1604.4,-69.9322 1806.92,-56.4038 1974,-31 1984.53,-29.3992 1995.87,-27.2117 2006.26,-25.0213"/>
<polygon fill="midnightblue" stroke="midnightblue" points="1529.29,-70.8628 1519.51,-74.937 1529.7,-77.851 1529.29,-70.8628"/>
</g>
<!-- Node31 -->
<g id="node24" class="node"><title>Node31</title>
<g id="a_node24"><a xlink:href="find__replace_8cpp" target="_top" xlink:title="find_replace.cpp">
<polygon fill="none" stroke="black" points="2120,-6 2120,-25 2206,-25 2206,-6 2120,-6"/>
<text text-anchor="middle" x="2163" y="-13" font-family="FreeSans" font-size="10.00">find_replace.cpp</text>
</a>
</g>
</g>
<!-- Node10&#45;&gt;Node31 -->
<g id="edge23" class="edge"><title>Node10&#45;&gt;Node31</title>
<path fill="none" stroke="midnightblue" d="M1529.87,-75.8899C1618.94,-75.1155 1890.21,-69.5196 2111,-31 2119.31,-29.5503 2128.2,-27.3278 2136.24,-25.055"/>
<polygon fill="midnightblue" stroke="midnightblue" points="1529.67,-72.3911 1519.69,-75.9636 1529.72,-79.391 1529.67,-72.3911"/>
</g>
<!-- Node10&#45;&gt;Node36 -->
<g id="edge24" class="edge"><title>Node10&#45;&gt;Node36</title>
<path fill="none" stroke="midnightblue" d="M1470.11,-75.6749C1276.82,-73.4916 207.063,-60.1561 65,-31 58.6471,-29.6962 51.971,-27.3949 46.0657,-25.0044"/>
<polygon fill="midnightblue" stroke="midnightblue" points="1470.33,-79.1774 1480.36,-75.7895 1470.4,-72.1779 1470.33,-79.1774"/>
</g>
<!-- Node10&#45;&gt;Node74 -->
<g id="edge25" class="edge"><title>Node10&#45;&gt;Node74</title>
<path fill="none" stroke="midnightblue" d="M1470.08,-75.1896C1279.09,-69.9915 236.358,-41.2245 170,-31 161.386,-29.6727 152.167,-27.3961 143.921,-25.0352"/>
<polygon fill="midnightblue" stroke="midnightblue" points="1470.14,-78.6923 1480.23,-75.4654 1470.33,-71.6949 1470.14,-78.6923"/>
</g>
<!-- Node10&#45;&gt;Node111 -->
<g id="edge26" class="edge"><title>Node10&#45;&gt;Node111</title>
<path fill="none" stroke="midnightblue" d="M1530.16,-75.9006C1693.42,-75.2077 2472.74,-69.8835 2710,-31 2718.14,-29.6657 2726.83,-27.3872 2734.6,-25.0267"/>
<polygon fill="midnightblue" stroke="midnightblue" points="1529.88,-72.4016 1519.9,-75.9414 1529.91,-79.4015 1529.88,-72.4016"/>
</g>
<!-- Node113&#45;&gt;Node115 -->
<g id="edge28" class="edge"><title>Node113&#45;&gt;Node115</title>
<path fill="none" stroke="midnightblue" d="M2746.05,-64.0828C2778.12,-52.517 2826,-35.2524 2854.4,-25.0091"/>
<polygon fill="midnightblue" stroke="midnightblue" points="2744.86,-60.7903 2736.64,-67.4751 2747.23,-67.3753 2744.86,-60.7903"/>
</g>
<!-- Node113&#45;&gt;Node187 -->
<g id="edge29" class="edge"><title>Node113&#45;&gt;Node187</title>
<path fill="none" stroke="midnightblue" d="M2764.02,-66.5063C2827.69,-54.6159 2930.4,-35.2784 2948,-31 2955.16,-29.2608 2962.82,-27.1251 2969.92,-25.0329"/>
<polygon fill="midnightblue" stroke="midnightblue" points="2763.35,-63.072 2754.16,-68.3472 2764.63,-69.9532 2763.35,-63.072"/>
</g>
<!-- Node206&#45;&gt;Node111 -->
<g id="edge36" class="edge"><title>Node206&#45;&gt;Node111</title>
<path fill="none" stroke="midnightblue" d="M2668.47,-114.512C2661.01,-100.788 2654.17,-81.6232 2663,-67 2671.27,-53.2974 2710.89,-35.5242 2736.58,-25.1291"/>
<polygon fill="midnightblue" stroke="midnightblue" points="2665.66,-116.628 2673.81,-123.402 2671.66,-113.026 2665.66,-116.628"/>
</g>
<!-- Node207 -->
<g id="node32" class="node"><title>Node207</title>
<g id="a_node32"><a xlink:href="debuggergdb__test__backtrace_8cpp" target="_top" xlink:title="debuggergdb_test_backtrace.cpp">
<polygon fill="none" stroke="black" points="2772.5,-67.5 2772.5,-86.5 2931.5,-86.5 2931.5,-67.5 2772.5,-67.5"/>
<text text-anchor="middle" x="2852" y="-74.5" font-family="FreeSans" font-size="10.00">debuggergdb_test_backtrace.cpp</text>
</a>
</g>
</g>
<!-- Node206&#45;&gt;Node207 -->
<g id="edge35" class="edge"><title>Node206&#45;&gt;Node207</title>
<path fill="none" stroke="midnightblue" d="M2716.83,-120.436C2749.26,-110.255 2795.74,-95.664 2824.87,-86.5164"/>
<polygon fill="midnightblue" stroke="midnightblue" points="2715.75,-117.109 2707.25,-123.444 2717.84,-123.787 2715.75,-117.109"/>
</g>
</g>
</svg>
