<?xml version="1.0" encoding="UTF-8" standalone="no"?>
<!DOCTYPE svg PUBLIC "-//W3C//DTD SVG 1.1//EN"
 "http://www.w3.org/Graphics/SVG/1.1/DTD/svg11.dtd">
<!-- Generated by graphviz version 2.38.0 (20140413.2041)
 -->
<!-- Title: Graphical Class Hierarchy Pages: 1 -->
<svg width="468pt" height="199pt"
 viewBox="0.00 0.00 468.00 199.00" xmlns="http://www.w3.org/2000/svg" xmlns:xlink="http://www.w3.org/1999/xlink">
<g id="graph0" class="graph" transform="scale(1 1) rotate(0) translate(4 195)">
<title>Graphical Class Hierarchy</title>
<!-- Node0 -->
<g id="node1" class="node"><title>Node0</title>
<g id="a_node1"><a doxygen="/media/alpha/Barracuda/cb_docs/src/wxTagFile.xml:http://docs.wxwidgets.org/3.0/" xlink:href="http://docs.wxwidgets.org/3.0/classwx_client_data.html" target="_top" xlink:title="wxClientData">
<polygon fill="none" stroke="black" points="0,-114.5 0,-133.5 73,-133.5 73,-114.5 0,-114.5"/>
<text text-anchor="middle" x="36.5" y="-121.5" font-family="FreeSans" font-size="10.00">wxClientData</text>
</a>
</g>
</g>
<!-- Node1 -->
<g id="node2" class="node"><title>Node1</title>
<g id="a_node2"><a xlink:href="structDebuggerClientData" target="_top" xlink:title="DebuggerClientData">
<polygon fill="none" stroke="black" points="113,-171.5 113,-190.5 216,-190.5 216,-171.5 113,-171.5"/>
<text text-anchor="middle" x="164.5" y="-178.5" font-family="FreeSans" font-size="10.00">DebuggerClientData</text>
</a>
</g>
</g>
<!-- Node0&#45;&gt;Node1 -->
<g id="edge1" class="edge"><title>Node0&#45;&gt;Node1</title>
<path fill="none" stroke="midnightblue" d="M62.6173,-138.564C76.1184,-146.08 93.1963,-155.094 109,-162 116.805,-165.41 125.435,-168.651 133.482,-171.458"/>
<polygon fill="midnightblue" stroke="midnightblue" points="64.3305,-135.512 53.9015,-133.644 60.8897,-141.608 64.3305,-135.512"/>
</g>
<!-- Node2 -->
<g id="node3" class="node"><title>Node2</title>
<g id="a_node3"><a xlink:href="classTargetListData" target="_top" xlink:title="Store target UI data for every target in the list box control in the SelectTargetDlg. ">
<polygon fill="none" stroke="black" points="124.5,-133.5 124.5,-152.5 204.5,-152.5 204.5,-133.5 124.5,-133.5"/>
<text text-anchor="middle" x="164.5" y="-140.5" font-family="FreeSans" font-size="10.00">TargetListData</text>
</a>
</g>
</g>
<!-- Node0&#45;&gt;Node2 -->
<g id="edge2" class="edge"><title>Node0&#45;&gt;Node2</title>
<path fill="none" stroke="midnightblue" d="M83.2432,-130.898C96.631,-132.917 111.145,-135.105 124.103,-137.059"/>
<polygon fill="midnightblue" stroke="midnightblue" points="83.6796,-127.424 73.2695,-129.394 82.6358,-134.346 83.6796,-127.424"/>
</g>
<!-- Node3 -->
<g id="node4" class="node"><title>Node3</title>
<g id="a_node4"><a xlink:href="structVariableListClientData" target="_top" xlink:title="VariableListClientData">
<polygon fill="none" stroke="black" points="109,-95.5 109,-114.5 220,-114.5 220,-95.5 109,-95.5"/>
<text text-anchor="middle" x="164.5" y="-102.5" font-family="FreeSans" font-size="10.00">VariableListClientData</text>
</a>
</g>
</g>
<!-- Node0&#45;&gt;Node3 -->
<g id="edge3" class="edge"><title>Node0&#45;&gt;Node3</title>
<path fill="none" stroke="midnightblue" d="M83.1637,-117.114C91.4889,-115.859 100.252,-114.537 108.807,-113.247"/>
<polygon fill="midnightblue" stroke="midnightblue" points="82.6358,-113.654 73.2695,-118.606 83.6796,-120.576 82.6358,-113.654"/>
</g>
<!-- Node4 -->
<g id="node5" class="node"><title>Node4</title>
<g id="a_node5"><a doxygen="/media/alpha/Barracuda/cb_docs/src/wxTagFile.xml:http://docs.wxwidgets.org/3.0/" xlink:href="http://docs.wxwidgets.org/3.0/classwx_tree_item_data.html" target="_top" xlink:title="wxTreeItemData">
<polygon fill="none" stroke="black" points="121,-57.5 121,-76.5 208,-76.5 208,-57.5 121,-57.5"/>
<text text-anchor="middle" x="164.5" y="-64.5" font-family="FreeSans" font-size="10.00">wxTreeItemData</text>
</a>
</g>
</g>
<!-- Node0&#45;&gt;Node4 -->
<g id="edge4" class="edge"><title>Node0&#45;&gt;Node4</title>
<path fill="none" stroke="midnightblue" d="M62.6173,-109.436C76.1184,-101.92 93.1963,-92.9059 109,-86 116.805,-82.5895 125.435,-79.3491 133.482,-76.5419"/>
<polygon fill="midnightblue" stroke="midnightblue" points="60.8897,-106.392 53.9015,-114.356 64.3305,-112.488 60.8897,-106.392"/>
</g>
<!-- Node5 -->
<g id="node6" class="node"><title>Node5</title>
<g id="a_node6"><a xlink:href="classCCTreeCtrlData" target="_top" xlink:title="CCTreeCtrlData">
<polygon fill="none" stroke="black" points="261.5,-114.5 261.5,-133.5 346.5,-133.5 346.5,-114.5 261.5,-114.5"/>
<text text-anchor="middle" x="304" y="-121.5" font-family="FreeSans" font-size="10.00">CCTreeCtrlData</text>
</a>
</g>
</g>
<!-- Node4&#45;&gt;Node5 -->
<g id="edge5" class="edge"><title>Node4&#45;&gt;Node5</title>
<path fill="none" stroke="midnightblue" d="M205.126,-80.0273C210.177,-81.9176 215.241,-83.9286 220,-86 236.588,-93.2204 239.592,-97.3777 256,-105 263.024,-108.263 270.773,-111.528 277.918,-114.408"/>
<polygon fill="midnightblue" stroke="midnightblue" points="206.106,-76.6602 195.511,-76.557 203.729,-83.2444 206.106,-76.6602"/>
</g>
<!-- Node6 -->
<g id="node7" class="node"><title>Node6</title>
<g id="a_node7"><a xlink:href="classClassTreeData" target="_top" xlink:title="Tree data associate with the symbol tree item. ">
<polygon fill="none" stroke="black" points="264,-76.5 264,-95.5 344,-95.5 344,-76.5 264,-76.5"/>
<text text-anchor="middle" x="304" y="-83.5" font-family="FreeSans" font-size="10.00">ClassTreeData</text>
</a>
</g>
</g>
<!-- Node4&#45;&gt;Node6 -->
<g id="edge6" class="edge"><title>Node4&#45;&gt;Node6</title>
<path fill="none" stroke="midnightblue" d="M218.431,-74.314C233.433,-76.3871 249.497,-78.6069 263.552,-80.549"/>
<polygon fill="midnightblue" stroke="midnightblue" points="218.637,-70.8094 208.252,-72.9076 217.679,-77.7435 218.637,-70.8094"/>
</g>
<!-- Node7 -->
<g id="node8" class="node"><title>Node7</title>
<g id="a_node8"><a xlink:href="classMiscTreeItemData" target="_top" xlink:title="MiscTreeItemData">
<polygon fill="none" stroke="black" points="256,-38.5 256,-57.5 352,-57.5 352,-38.5 256,-38.5"/>
<text text-anchor="middle" x="304" y="-45.5" font-family="FreeSans" font-size="10.00">MiscTreeItemData</text>
</a>
</g>
</g>
<!-- Node4&#45;&gt;Node7 -->
<g id="edge7" class="edge"><title>Node4&#45;&gt;Node7</title>
<path fill="none" stroke="midnightblue" d="M218.431,-59.686C230.795,-57.9774 243.881,-56.1692 255.969,-54.4989"/>
<polygon fill="midnightblue" stroke="midnightblue" points="217.679,-56.2565 208.252,-61.0924 218.637,-63.1906 217.679,-56.2565"/>
</g>
<!-- Node9 -->
<g id="node10" class="node"><title>Node9</title>
<g id="a_node10"><a xlink:href="classScopeTreeData" target="_top" xlink:title="ScopeTreeData">
<polygon fill="none" stroke="black" points="262,-0.5 262,-19.5 346,-19.5 346,-0.5 262,-0.5"/>
<text text-anchor="middle" x="304" y="-7.5" font-family="FreeSans" font-size="10.00">ScopeTreeData</text>
</a>
</g>
</g>
<!-- Node4&#45;&gt;Node9 -->
<g id="edge9" class="edge"><title>Node4&#45;&gt;Node9</title>
<path fill="none" stroke="midnightblue" d="M197.757,-53.3324C215.013,-46.0522 236.639,-36.9777 256,-29 263.486,-25.9152 271.662,-22.5937 279.065,-19.6041"/>
<polygon fill="midnightblue" stroke="midnightblue" points="196.002,-50.2742 188.152,-57.3897 198.726,-56.7225 196.002,-50.2742"/>
</g>
<!-- Node8 -->
<g id="node9" class="node"><title>Node8</title>
<g id="a_node9"><a xlink:href="classFileTreeData" target="_top" xlink:title="FileTreeData">
<polygon fill="none" stroke="black" points="388,-38.5 388,-57.5 460,-57.5 460,-38.5 388,-38.5"/>
<text text-anchor="middle" x="424" y="-45.5" font-family="FreeSans" font-size="10.00">FileTreeData</text>
</a>
</g>
</g>
<!-- Node7&#45;&gt;Node8 -->
<g id="edge8" class="edge"><title>Node7&#45;&gt;Node8</title>
<path fill="none" stroke="midnightblue" d="M362.379,-48C371.008,-48 379.684,-48 387.666,-48"/>
<polygon fill="midnightblue" stroke="midnightblue" points="362.315,-44.5001 352.315,-48 362.315,-51.5001 362.315,-44.5001"/>
</g>
</g>
</svg>
