<?xml version="1.0" encoding="UTF-8" standalone="no"?>
<!DOCTYPE svg PUBLIC "-//W3C//DTD SVG 1.1//EN"
 "http://www.w3.org/Graphics/SVG/1.1/DTD/svg11.dtd">
<!-- Generated by graphviz version 2.38.0 (20140413.2041)
 -->
<!-- Title: Graphical Class Hierarchy Pages: 1 -->
<svg width="486pt" height="826pt"
 viewBox="0.00 0.00 486.00 826.00" xmlns="http://www.w3.org/2000/svg" xmlns:xlink="http://www.w3.org/1999/xlink">
<g id="graph0" class="graph" transform="scale(1 1) rotate(0) translate(4 822)">
<title>Graphical Class Hierarchy</title>
<!-- Node512 -->
<g id="node1" class="node"><title>Node512</title>
<g id="a_node1"><a xlink:href="classcbBacktraceDlg" target="_top" xlink:title="cbBacktraceDlg">
<polygon fill="none" stroke="black" points="13.5,-798.5 13.5,-817.5 99.5,-817.5 99.5,-798.5 13.5,-798.5"/>
<text text-anchor="middle" x="56.5" y="-805.5" font-family="FreeSans" font-size="10.00">cbBacktraceDlg</text>
</a>
</g>
</g>
<!-- Node0 -->
<g id="node2" class="node"><title>Node0</title>
<g id="a_node2"><a xlink:href="classBacktraceDlg" target="_top" xlink:title="BacktraceDlg">
<polygon fill="none" stroke="black" points="190,-798.5 190,-817.5 265,-817.5 265,-798.5 190,-798.5"/>
<text text-anchor="middle" x="227.5" y="-805.5" font-family="FreeSans" font-size="10.00">BacktraceDlg</text>
</a>
</g>
</g>
<!-- Node512&#45;&gt;Node0 -->
<g id="edge1" class="edge"><title>Node512&#45;&gt;Node0</title>
<path fill="none" stroke="midnightblue" d="M109.781,-808C135.777,-808 166.559,-808 189.982,-808"/>
<polygon fill="midnightblue" stroke="midnightblue" points="109.71,-804.5 99.7099,-808 109.71,-811.5 109.71,-804.5"/>
</g>
<!-- Node509 -->
<g id="node3" class="node"><title>Node509</title>
<g id="a_node3"><a xlink:href="classcbBreakpointsDlg" target="_top" xlink:title="cbBreakpointsDlg">
<polygon fill="none" stroke="black" points="10.5,-760.5 10.5,-779.5 102.5,-779.5 102.5,-760.5 10.5,-760.5"/>
<text text-anchor="middle" x="56.5" y="-767.5" font-family="FreeSans" font-size="10.00">cbBreakpointsDlg</text>
</a>
</g>
</g>
<!-- Node54 -->
<g id="node4" class="node"><title>Node54</title>
<g id="a_node4"><a xlink:href="classBreakpointsDlg" target="_top" xlink:title="BreakpointsDlg">
<polygon fill="none" stroke="black" points="186.5,-760.5 186.5,-779.5 268.5,-779.5 268.5,-760.5 186.5,-760.5"/>
<text text-anchor="middle" x="227.5" y="-767.5" font-family="FreeSans" font-size="10.00">BreakpointsDlg</text>
</a>
</g>
</g>
<!-- Node509&#45;&gt;Node54 -->
<g id="edge2" class="edge"><title>Node509&#45;&gt;Node54</title>
<path fill="none" stroke="midnightblue" d="M112.814,-770C136.777,-770 164.31,-770 186.279,-770"/>
<polygon fill="midnightblue" stroke="midnightblue" points="112.789,-766.5 102.789,-770 112.789,-773.5 112.789,-766.5"/>
</g>
<!-- Node508 -->
<g id="node5" class="node"><title>Node508</title>
<g id="a_node5"><a xlink:href="classcbCPURegistersDlg" target="_top" xlink:title="cbCPURegistersDlg">
<polygon fill="none" stroke="black" points="6,-722.5 6,-741.5 107,-741.5 107,-722.5 6,-722.5"/>
<text text-anchor="middle" x="56.5" y="-729.5" font-family="FreeSans" font-size="10.00">cbCPURegistersDlg</text>
</a>
</g>
</g>
<!-- Node63 -->
<g id="node6" class="node"><title>Node63</title>
<g id="a_node6"><a xlink:href="classCPURegistersDlg" target="_top" xlink:title="CPURegistersDlg">
<polygon fill="none" stroke="black" points="182,-722.5 182,-741.5 273,-741.5 273,-722.5 182,-722.5"/>
<text text-anchor="middle" x="227.5" y="-729.5" font-family="FreeSans" font-size="10.00">CPURegistersDlg</text>
</a>
</g>
</g>
<!-- Node508&#45;&gt;Node63 -->
<g id="edge3" class="edge"><title>Node508&#45;&gt;Node63</title>
<path fill="none" stroke="midnightblue" d="M117.507,-732C138.74,-732 162.232,-732 181.952,-732"/>
<polygon fill="midnightblue" stroke="midnightblue" points="117.292,-728.5 107.292,-732 117.291,-735.5 117.292,-728.5"/>
</g>
<!-- Node499 -->
<g id="node7" class="node"><title>Node499</title>
<g id="a_node7"><a xlink:href="classcbDisassemblyDlg" target="_top" xlink:title="cbDisassemblyDlg">
<polygon fill="none" stroke="black" points="9,-684.5 9,-703.5 104,-703.5 104,-684.5 9,-684.5"/>
<text text-anchor="middle" x="56.5" y="-691.5" font-family="FreeSans" font-size="10.00">cbDisassemblyDlg</text>
</a>
</g>
</g>
<!-- Node68 -->
<g id="node8" class="node"><title>Node68</title>
<g id="a_node8"><a xlink:href="classDisassemblyDlg" target="_top" xlink:title="DisassemblyDlg">
<polygon fill="none" stroke="black" points="185.5,-684.5 185.5,-703.5 269.5,-703.5 269.5,-684.5 185.5,-684.5"/>
<text text-anchor="middle" x="227.5" y="-691.5" font-family="FreeSans" font-size="10.00">DisassemblyDlg</text>
</a>
</g>
</g>
<!-- Node499&#45;&gt;Node68 -->
<g id="edge4" class="edge"><title>Node499&#45;&gt;Node68</title>
<path fill="none" stroke="midnightblue" d="M114.251,-694C137.585,-694 164.095,-694 185.491,-694"/>
<polygon fill="midnightblue" stroke="midnightblue" points="114.127,-690.5 104.127,-694 114.127,-697.5 114.127,-690.5"/>
</g>
<!-- Node497 -->
<g id="node9" class="node"><title>Node497</title>
<g id="a_node9"><a xlink:href="classcbExamineMemoryDlg" target="_top" xlink:title="cbExamineMemoryDlg">
<polygon fill="none" stroke="black" points="0,-646.5 0,-665.5 113,-665.5 113,-646.5 0,-646.5"/>
<text text-anchor="middle" x="56.5" y="-653.5" font-family="FreeSans" font-size="10.00">cbExamineMemoryDlg</text>
</a>
</g>
</g>
<!-- Node72 -->
<g id="node10" class="node"><title>Node72</title>
<g id="a_node10"><a xlink:href="classExamineMemoryDlg" target="_top" xlink:title="ExamineMemoryDlg">
<polygon fill="none" stroke="black" points="176.5,-646.5 176.5,-665.5 278.5,-665.5 278.5,-646.5 176.5,-646.5"/>
<text text-anchor="middle" x="227.5" y="-653.5" font-family="FreeSans" font-size="10.00">ExamineMemoryDlg</text>
</a>
</g>
</g>
<!-- Node497&#45;&gt;Node72 -->
<g id="edge5" class="edge"><title>Node497&#45;&gt;Node72</title>
<path fill="none" stroke="midnightblue" d="M123.517,-656C141.123,-656 159.855,-656 176.448,-656"/>
<polygon fill="midnightblue" stroke="midnightblue" points="123.305,-652.5 113.305,-656 123.305,-659.5 123.305,-652.5"/>
</g>
<!-- Node479 -->
<g id="node11" class="node"><title>Node479</title>
<g id="a_node11"><a xlink:href="classcbThreadsDlg" target="_top" xlink:title="cbThreadsDlg">
<polygon fill="none" stroke="black" points="18.5,-608.5 18.5,-627.5 94.5,-627.5 94.5,-608.5 18.5,-608.5"/>
<text text-anchor="middle" x="56.5" y="-615.5" font-family="FreeSans" font-size="10.00">cbThreadsDlg</text>
</a>
</g>
</g>
<!-- Node79 -->
<g id="node12" class="node"><title>Node79</title>
<g id="a_node12"><a xlink:href="classThreadsDlg" target="_top" xlink:title="ThreadsDlg">
<polygon fill="none" stroke="black" points="195,-608.5 195,-627.5 260,-627.5 260,-608.5 195,-608.5"/>
<text text-anchor="middle" x="227.5" y="-615.5" font-family="FreeSans" font-size="10.00">ThreadsDlg</text>
</a>
</g>
</g>
<!-- Node479&#45;&gt;Node79 -->
<g id="edge6" class="edge"><title>Node479&#45;&gt;Node79</title>
<path fill="none" stroke="midnightblue" d="M104.83,-618C133.602,-618 169.554,-618 194.893,-618"/>
<polygon fill="midnightblue" stroke="midnightblue" points="104.588,-614.5 94.5878,-618 104.588,-621.5 104.588,-614.5"/>
</g>
<!-- Node475 -->
<g id="node13" class="node"><title>Node475</title>
<g id="a_node13"><a xlink:href="classcbWatchesDlg" target="_top" xlink:title="cbWatchesDlg">
<polygon fill="none" stroke="black" points="17,-0.5 17,-19.5 96,-19.5 96,-0.5 17,-0.5"/>
<text text-anchor="middle" x="56.5" y="-7.5" font-family="FreeSans" font-size="10.00">cbWatchesDlg</text>
</a>
</g>
</g>
<!-- Node80 -->
<g id="node14" class="node"><title>Node80</title>
<g id="a_node14"><a xlink:href="classWatchesDlg" target="_top" xlink:title="WatchesDlg">
<polygon fill="none" stroke="black" points="193.5,-0.5 193.5,-19.5 261.5,-19.5 261.5,-0.5 193.5,-0.5"/>
<text text-anchor="middle" x="227.5" y="-7.5" font-family="FreeSans" font-size="10.00">WatchesDlg</text>
</a>
</g>
</g>
<!-- Node475&#45;&gt;Node80 -->
<g id="edge7" class="edge"><title>Node475&#45;&gt;Node80</title>
<path fill="none" stroke="midnightblue" d="M106.613,-10C134.48,-10 168.614,-10 193.323,-10"/>
<polygon fill="midnightblue" stroke="midnightblue" points="106.272,-6.5001 96.272,-10 106.272,-13.5001 106.272,-6.5001"/>
</g>
<!-- Node52 -->
<g id="node15" class="node"><title>Node52</title>
<polygon fill="none" stroke="#bfbfbf" points="30,-399.5 30,-418.5 83,-418.5 83,-399.5 30,-399.5"/>
<text text-anchor="middle" x="56.5" y="-406.5" font-family="FreeSans" font-size="10.00">wxPanel</text>
</g>
<!-- Node52&#45;&gt;Node0 -->
<g id="edge8" class="edge"><title>Node52&#45;&gt;Node0</title>
<path fill="none" stroke="midnightblue" d="M63.8696,-428.476C74.9092,-462.701 97.8641,-535.984 113,-599 133.073,-682.57 89.8632,-726.633 149,-789 159.485,-800.058 175.269,-805.121 189.861,-807.299"/>
<polygon fill="midnightblue" stroke="midnightblue" points="67.1451,-427.231 60.7291,-418.799 60.487,-429.392 67.1451,-427.231"/>
</g>
<!-- Node52&#45;&gt;Node54 -->
<g id="edge9" class="edge"><title>Node52&#45;&gt;Node54</title>
<path fill="none" stroke="midnightblue" d="M63.5736,-428.551C74.1596,-462.89 96.4407,-536.343 113,-599 130.739,-666.12 100.103,-701.717 149,-751 158.757,-760.834 172.717,-765.885 186.108,-768.388"/>
<polygon fill="midnightblue" stroke="midnightblue" points="66.8684,-427.359 60.5696,-418.84 60.1811,-429.427 66.8684,-427.359"/>
</g>
<!-- Node52&#45;&gt;Node63 -->
<g id="edge18" class="edge"><title>Node52&#45;&gt;Node63</title>
<path fill="none" stroke="midnightblue" d="M63.1833,-428.342C82.7526,-494.882 146.296,-710.433 149,-713 157.841,-721.394 169.762,-726.262 181.6,-729.036"/>
<polygon fill="midnightblue" stroke="midnightblue" points="66.5204,-427.283 60.3419,-418.677 59.8046,-429.258 66.5204,-427.283"/>
</g>
<!-- Node52&#45;&gt;Node68 -->
<g id="edge23" class="edge"><title>Node52&#45;&gt;Node68</title>
<path fill="none" stroke="midnightblue" d="M63.0221,-428.452C79.752,-486.828 129.899,-657.561 149,-675 158.924,-684.06 172.454,-688.983 185.433,-691.602"/>
<polygon fill="midnightblue" stroke="midnightblue" points="66.3309,-427.293 60.2211,-418.637 59.5997,-429.214 66.3309,-427.293"/>
</g>
<!-- Node52&#45;&gt;Node72 -->
<g id="edge27" class="edge"><title>Node52&#45;&gt;Node72</title>
<path fill="none" stroke="midnightblue" d="M59.4268,-428.57C64.8611,-472.793 84.4009,-580.935 149,-637 156.742,-643.719 166.484,-648.142 176.423,-651.034"/>
<polygon fill="midnightblue" stroke="midnightblue" points="62.8963,-428.101 58.3079,-418.551 55.9395,-428.878 62.8963,-428.101"/>
</g>
<!-- Node52&#45;&gt;Node79 -->
<g id="edge34" class="edge"><title>Node52&#45;&gt;Node79</title>
<path fill="none" stroke="midnightblue" d="M61.1922,-428.7C69.5365,-467.535 93.6053,-554.094 149,-599 161.806,-609.381 179.453,-614.217 194.673,-616.419"/>
<polygon fill="midnightblue" stroke="midnightblue" points="64.5787,-427.788 59.1658,-418.68 57.7177,-429.176 64.5787,-427.788"/>
</g>
<!-- Node52&#45;&gt;Node80 -->
<g id="edge35" class="edge"><title>Node52&#45;&gt;Node80</title>
<path fill="none" stroke="midnightblue" d="M59.5637,-389.25C67.3173,-318.801 96.9512,-81.2641 149,-29 160.535,-17.4172 177.902,-12.4754 193.274,-10.5135"/>
<polygon fill="midnightblue" stroke="midnightblue" points="56.0614,-389.084 58.4721,-399.401 63.0213,-389.833 56.0614,-389.084"/>
</g>
<!-- Node55 -->
<g id="node16" class="node"><title>Node55</title>
<g id="a_node16"><a xlink:href="classBuildTargetPanel" target="_top" xlink:title="BuildTargetPanel">
<polygon fill="none" stroke="black" points="182,-342.5 182,-361.5 273,-361.5 273,-342.5 182,-342.5"/>
<text text-anchor="middle" x="227.5" y="-349.5" font-family="FreeSans" font-size="10.00">BuildTargetPanel</text>
</a>
</g>
</g>
<!-- Node52&#45;&gt;Node55 -->
<g id="edge10" class="edge"><title>Node52&#45;&gt;Node55</title>
<path fill="none" stroke="midnightblue" d="M87.1089,-395.347C104.814,-387.526 127.901,-377.922 149,-371 159.662,-367.502 171.336,-364.315 182.313,-361.593"/>
<polygon fill="midnightblue" stroke="midnightblue" points="85.5713,-392.2 77.8732,-399.48 88.4306,-398.59 85.5713,-392.2"/>
</g>
<!-- Node56 -->
<g id="node17" class="node"><title>Node56</title>
<g id="a_node17"><a xlink:href="classcbConfigurationPanel" target="_top" xlink:title="Base class for plugin configuration panels. ">
<polygon fill="none" stroke="black" points="173.5,-304.5 173.5,-323.5 281.5,-323.5 281.5,-304.5 173.5,-304.5"/>
<text text-anchor="middle" x="227.5" y="-311.5" font-family="FreeSans" font-size="10.00">cbConfigurationPanel</text>
</a>
</g>
</g>
<!-- Node52&#45;&gt;Node56 -->
<g id="edge11" class="edge"><title>Node52&#45;&gt;Node56</title>
<path fill="none" stroke="midnightblue" d="M73.0421,-392.205C90.0538,-374.827 118.935,-348.15 149,-333 156.67,-329.135 165.171,-326.027 173.65,-323.538"/>
<polygon fill="midnightblue" stroke="midnightblue" points="70.4845,-389.815 66.0995,-399.46 75.542,-394.655 70.4845,-389.815"/>
</g>
<!-- Node61 -->
<g id="node22" class="node"><title>Node61</title>
<g id="a_node22"><a xlink:href="classClassBrowser" target="_top" xlink:title="symbol browser panel is shown in the Management panel besides projects browser panel. ">
<polygon fill="none" stroke="black" points="190.5,-266.5 190.5,-285.5 264.5,-285.5 264.5,-266.5 190.5,-266.5"/>
<text text-anchor="middle" x="227.5" y="-273.5" font-family="FreeSans" font-size="10.00">ClassBrowser</text>
</a>
</g>
</g>
<!-- Node52&#45;&gt;Node61 -->
<g id="edge16" class="edge"><title>Node52&#45;&gt;Node61</title>
<path fill="none" stroke="midnightblue" d="M67.3322,-390.222C81.7331,-364.625 111.025,-319.204 149,-295 161.266,-287.182 176.508,-282.581 190.221,-279.873"/>
<polygon fill="midnightblue" stroke="midnightblue" points="64.1124,-388.816 62.399,-399.272 70.2585,-392.167 64.1124,-388.816"/>
</g>
<!-- Node62 -->
<g id="node23" class="node"><title>Node62</title>
<g id="a_node23"><a xlink:href="classCompilerPanel" target="_top" xlink:title="CompilerPanel">
<polygon fill="none" stroke="black" points="187.5,-228.5 187.5,-247.5 267.5,-247.5 267.5,-228.5 187.5,-228.5"/>
<text text-anchor="middle" x="227.5" y="-235.5" font-family="FreeSans" font-size="10.00">CompilerPanel</text>
</a>
</g>
</g>
<!-- Node52&#45;&gt;Node62 -->
<g id="edge17" class="edge"><title>Node52&#45;&gt;Node62</title>
<path fill="none" stroke="midnightblue" d="M63.6089,-389.673C74.9475,-357.056 102.426,-291.292 149,-257 160.044,-248.868 174.136,-244.185 187.268,-241.498"/>
<polygon fill="midnightblue" stroke="midnightblue" points="60.2183,-388.777 60.3781,-399.371 66.8595,-390.99 60.2183,-388.777"/>
</g>
<!-- Node64 -->
<g id="node24" class="node"><title>Node64</title>
<g id="a_node24"><a xlink:href="classDebuggerConfigurationPanel" target="_top" xlink:title="DebuggerConfigurationPanel">
<polygon fill="none" stroke="black" points="158,-190.5 158,-209.5 297,-209.5 297,-190.5 158,-190.5"/>
<text text-anchor="middle" x="227.5" y="-197.5" font-family="FreeSans" font-size="10.00">DebuggerConfigurationPanel</text>
</a>
</g>
</g>
<!-- Node52&#45;&gt;Node64 -->
<g id="edge19" class="edge"><title>Node52&#45;&gt;Node64</title>
<path fill="none" stroke="midnightblue" d="M61.1922,-389.3C69.5365,-350.465 93.6053,-263.906 149,-219 153.735,-215.162 159.132,-212.081 164.823,-209.612"/>
<polygon fill="midnightblue" stroke="midnightblue" points="57.7177,-388.824 59.1658,-399.32 64.5787,-390.212 57.7177,-388.824"/>
</g>
<!-- Node65 -->
<g id="node25" class="node"><title>Node65</title>
<g id="a_node25"><a xlink:href="classDebuggerSettingsCommonPanel" target="_top" xlink:title="DebuggerSettingsCommonPanel">
<polygon fill="none" stroke="black" points="149,-152.5 149,-171.5 306,-171.5 306,-152.5 149,-152.5"/>
<text text-anchor="middle" x="227.5" y="-159.5" font-family="FreeSans" font-size="10.00">DebuggerSettingsCommonPanel</text>
</a>
</g>
</g>
<!-- Node52&#45;&gt;Node65 -->
<g id="edge20" class="edge"><title>Node52&#45;&gt;Node65</title>
<path fill="none" stroke="midnightblue" d="M59.4268,-389.43C64.8611,-345.207 84.4009,-237.065 149,-181 153.394,-177.186 158.433,-174.113 163.786,-171.639"/>
<polygon fill="midnightblue" stroke="midnightblue" points="55.9395,-389.122 58.3079,-399.449 62.8963,-389.899 55.9395,-389.122"/>
</g>
<!-- Node66 -->
<g id="node26" class="node"><title>Node66</title>
<g id="a_node26"><a xlink:href="classDebuggerSettingsPanel" target="_top" xlink:title="DebuggerSettingsPanel">
<polygon fill="none" stroke="black" points="168.5,-114.5 168.5,-133.5 286.5,-133.5 286.5,-114.5 168.5,-114.5"/>
<text text-anchor="middle" x="227.5" y="-121.5" font-family="FreeSans" font-size="10.00">DebuggerSettingsPanel</text>
</a>
</g>
</g>
<!-- Node52&#45;&gt;Node66 -->
<g id="edge21" class="edge"><title>Node52&#45;&gt;Node66</title>
<path fill="none" stroke="midnightblue" d="M58.162,-389.259C60.9278,-339.918 75.2222,-210.36 149,-143 154.525,-137.956 161.167,-134.195 168.209,-131.399"/>
<polygon fill="midnightblue" stroke="midnightblue" points="54.6651,-389.112 57.7029,-399.262 61.6578,-389.433 54.6651,-389.112"/>
</g>
<!-- Node67 -->
<g id="node27" class="node"><title>Node67</title>
<g id="a_node27"><a xlink:href="classDebugLogPanel" target="_top" xlink:title="DebugLogPanel">
<polygon fill="none" stroke="black" points="185,-76.5 185,-95.5 270,-95.5 270,-76.5 185,-76.5"/>
<text text-anchor="middle" x="227.5" y="-83.5" font-family="FreeSans" font-size="10.00">DebugLogPanel</text>
</a>
</g>
</g>
<!-- Node52&#45;&gt;Node67 -->
<g id="edge22" class="edge"><title>Node52&#45;&gt;Node67</title>
<path fill="none" stroke="midnightblue" d="M57.1761,-389.08C57.4373,-334.932 65.9553,-183.839 149,-105 158.645,-95.8434 171.955,-90.8824 184.824,-88.2579"/>
<polygon fill="midnightblue" stroke="midnightblue" points="53.6774,-389.383 57.2258,-399.366 60.6773,-389.35 53.6774,-389.383"/>
</g>
<!-- Node69 -->
<g id="node28" class="node"><title>Node69</title>
<g id="a_node28"><a xlink:href="classEditorBase" target="_top" xlink:title="Base class that all &quot;editors&quot; should inherit from. ">
<polygon fill="none" stroke="black" points="196,-38.5 196,-57.5 259,-57.5 259,-38.5 196,-38.5"/>
<text text-anchor="middle" x="227.5" y="-45.5" font-family="FreeSans" font-size="10.00">EditorBase</text>
</a>
</g>
</g>
<!-- Node52&#45;&gt;Node69 -->
<g id="edge24" class="edge"><title>Node52&#45;&gt;Node69</title>
<path fill="none" stroke="midnightblue" d="M60.1454,-389.129C69.3141,-323.2 101.772,-113.246 149,-67 161.274,-54.9815 179.84,-50.1481 195.724,-48.3591"/>
<polygon fill="midnightblue" stroke="midnightblue" points="56.6309,-388.999 58.7477,-399.38 63.5667,-389.945 56.6309,-388.999"/>
</g>
<!-- Node73 -->
<g id="node31" class="node"><title>Node73</title>
<g id="a_node31"><a xlink:href="classFilePathPanel" target="_top" xlink:title="FilePathPanel">
<polygon fill="none" stroke="black" points="189,-570.5 189,-589.5 266,-589.5 266,-570.5 189,-570.5"/>
<text text-anchor="middle" x="227.5" y="-577.5" font-family="FreeSans" font-size="10.00">FilePathPanel</text>
</a>
</g>
</g>
<!-- Node52&#45;&gt;Node73 -->
<g id="edge28" class="edge"><title>Node52&#45;&gt;Node73</title>
<path fill="none" stroke="midnightblue" d="M63.6089,-428.327C74.9475,-460.944 102.426,-526.708 149,-561 160.49,-569.46 175.28,-574.188 188.855,-576.818"/>
<polygon fill="midnightblue" stroke="midnightblue" points="66.8595,-427.01 60.3781,-418.629 60.2183,-429.223 66.8595,-427.01"/>
</g>
<!-- Node74 -->
<g id="node32" class="node"><title>Node74</title>
<g id="a_node32"><a xlink:href="classGenericSelectPath" target="_top" xlink:title="GenericSelectPath">
<polygon fill="none" stroke="black" points="178.5,-532.5 178.5,-551.5 276.5,-551.5 276.5,-532.5 178.5,-532.5"/>
<text text-anchor="middle" x="227.5" y="-539.5" font-family="FreeSans" font-size="10.00">GenericSelectPath</text>
</a>
</g>
</g>
<!-- Node52&#45;&gt;Node74 -->
<g id="edge29" class="edge"><title>Node52&#45;&gt;Node74</title>
<path fill="none" stroke="midnightblue" d="M67.3322,-427.778C81.7331,-453.375 111.025,-498.796 149,-523 157.762,-528.584 168.041,-532.527 178.198,-535.312"/>
<polygon fill="midnightblue" stroke="midnightblue" points="70.2585,-425.833 62.399,-418.728 64.1124,-429.184 70.2585,-425.833"/>
</g>
<!-- Node75 -->
<g id="node33" class="node"><title>Node75</title>
<g id="a_node33"><a xlink:href="classGenericSingleChoiceList" target="_top" xlink:title="GenericSingleChoiceList">
<polygon fill="none" stroke="black" points="166.5,-494.5 166.5,-513.5 288.5,-513.5 288.5,-494.5 166.5,-494.5"/>
<text text-anchor="middle" x="227.5" y="-501.5" font-family="FreeSans" font-size="10.00">GenericSingleChoiceList</text>
</a>
</g>
</g>
<!-- Node52&#45;&gt;Node75 -->
<g id="edge30" class="edge"><title>Node52&#45;&gt;Node75</title>
<path fill="none" stroke="midnightblue" d="M73.0421,-425.795C90.0538,-443.173 118.935,-469.85 149,-485 156.67,-488.865 165.171,-491.973 173.65,-494.462"/>
<polygon fill="midnightblue" stroke="midnightblue" points="75.542,-423.345 66.0995,-418.54 70.4845,-428.185 75.542,-423.345"/>
</g>
<!-- Node76 -->
<g id="node34" class="node"><title>Node76</title>
<g id="a_node34"><a xlink:href="classInfoPanel" target="_top" xlink:title="InfoPanel">
<polygon fill="none" stroke="black" points="198.5,-456.5 198.5,-475.5 256.5,-475.5 256.5,-456.5 198.5,-456.5"/>
<text text-anchor="middle" x="227.5" y="-463.5" font-family="FreeSans" font-size="10.00">InfoPanel</text>
</a>
</g>
</g>
<!-- Node52&#45;&gt;Node76 -->
<g id="edge31" class="edge"><title>Node52&#45;&gt;Node76</title>
<path fill="none" stroke="midnightblue" d="M87.1089,-422.653C104.814,-430.474 127.901,-440.078 149,-447 165.059,-452.269 183.413,-456.831 198.227,-460.163"/>
<polygon fill="midnightblue" stroke="midnightblue" points="88.4306,-419.41 77.8732,-418.52 85.5713,-425.8 88.4306,-419.41"/>
</g>
<!-- Node77 -->
<g id="node35" class="node"><title>Node77</title>
<g id="a_node35"><a xlink:href="classProjectPathPanel" target="_top" xlink:title="ProjectPathPanel">
<polygon fill="none" stroke="black" points="181.5,-418.5 181.5,-437.5 273.5,-437.5 273.5,-418.5 181.5,-418.5"/>
<text text-anchor="middle" x="227.5" y="-425.5" font-family="FreeSans" font-size="10.00">ProjectPathPanel</text>
</a>
</g>
</g>
<!-- Node52&#45;&gt;Node77 -->
<g id="edge32" class="edge"><title>Node52&#45;&gt;Node77</title>
<path fill="none" stroke="midnightblue" d="M93.2351,-413.018C118.959,-415.91 153.85,-419.832 181.478,-422.938"/>
<polygon fill="midnightblue" stroke="midnightblue" points="93.4959,-409.525 83.1675,-411.886 92.7138,-416.481 93.4959,-409.525"/>
</g>
<!-- Node78 -->
<g id="node36" class="node"><title>Node78</title>
<g id="a_node36"><a xlink:href="classScriptConsole" target="_top" xlink:title="ScriptConsole">
<polygon fill="none" stroke="black" points="189,-380.5 189,-399.5 266,-399.5 266,-380.5 189,-380.5"/>
<text text-anchor="middle" x="227.5" y="-387.5" font-family="FreeSans" font-size="10.00">ScriptConsole</text>
</a>
</g>
</g>
<!-- Node52&#45;&gt;Node78 -->
<g id="edge33" class="edge"><title>Node52&#45;&gt;Node78</title>
<path fill="none" stroke="midnightblue" d="M93.3604,-404.968C121.462,-401.809 160.447,-397.426 188.969,-394.219"/>
<polygon fill="midnightblue" stroke="midnightblue" points="92.7138,-401.519 83.1675,-406.114 93.4959,-408.475 92.7138,-401.519"/>
</g>
<!-- Node57 -->
<g id="node18" class="node"><title>Node57</title>
<g id="a_node18"><a xlink:href="classCCOptionsDlg" target="_top" xlink:title="CCOptionsDlg">
<polygon fill="none" stroke="black" points="371.5,-361.5 371.5,-380.5 448.5,-380.5 448.5,-361.5 371.5,-361.5"/>
<text text-anchor="middle" x="410" y="-368.5" font-family="FreeSans" font-size="10.00">CCOptionsDlg</text>
</a>
</g>
</g>
<!-- Node56&#45;&gt;Node57 -->
<g id="edge12" class="edge"><title>Node56&#45;&gt;Node57</title>
<path fill="none" stroke="midnightblue" d="M285.059,-326.145C292.191,-328.178 299.322,-330.463 306,-333 322.913,-339.424 325.205,-345.273 342,-352 351.316,-355.731 361.634,-359.04 371.325,-361.809"/>
<polygon fill="midnightblue" stroke="midnightblue" points="285.942,-322.759 275.376,-323.53 284.117,-329.516 285.942,-322.759"/>
</g>
<!-- Node58 -->
<g id="node19" class="node"><title>Node58</title>
<g id="a_node19"><a xlink:href="classCCOptionsProjectDlg" target="_top" xlink:title="CCOptionsProjectDlg">
<polygon fill="none" stroke="black" points="356,-323.5 356,-342.5 464,-342.5 464,-323.5 356,-323.5"/>
<text text-anchor="middle" x="410" y="-330.5" font-family="FreeSans" font-size="10.00">CCOptionsProjectDlg</text>
</a>
</g>
</g>
<!-- Node56&#45;&gt;Node58 -->
<g id="edge13" class="edge"><title>Node56&#45;&gt;Node58</title>
<path fill="none" stroke="midnightblue" d="M291.767,-320.66C312.71,-322.864 335.788,-325.293 355.889,-327.409"/>
<polygon fill="midnightblue" stroke="midnightblue" points="291.991,-317.164 281.68,-319.598 291.258,-324.126 291.991,-317.164"/>
</g>
<!-- Node59 -->
<g id="node20" class="node"><title>Node59</title>
<g id="a_node20"><a xlink:href="classCompilerOptionsDlg" target="_top" xlink:title="CompilerOptionsDlg">
<polygon fill="none" stroke="black" points="359,-285.5 359,-304.5 461,-304.5 461,-285.5 359,-285.5"/>
<text text-anchor="middle" x="410" y="-292.5" font-family="FreeSans" font-size="10.00">CompilerOptionsDlg</text>
</a>
</g>
</g>
<!-- Node56&#45;&gt;Node59 -->
<g id="edge14" class="edge"><title>Node56&#45;&gt;Node59</title>
<path fill="none" stroke="midnightblue" d="M291.627,-307.355C313.69,-305.033 338.137,-302.459 358.983,-300.265"/>
<polygon fill="midnightblue" stroke="midnightblue" points="291.258,-303.874 281.68,-308.402 291.991,-310.836 291.258,-303.874"/>
</g>
<!-- Node60 -->
<g id="node21" class="node"><title>Node60</title>
<g id="a_node21"><a xlink:href="classDebuggerOptionsProjectDlg" target="_top" xlink:title="DebuggerOptionsProjectDlg">
<polygon fill="none" stroke="black" points="342,-247.5 342,-266.5 478,-266.5 478,-247.5 342,-247.5"/>
<text text-anchor="middle" x="410" y="-254.5" font-family="FreeSans" font-size="10.00">DebuggerOptionsProjectDlg</text>
</a>
</g>
</g>
<!-- Node56&#45;&gt;Node60 -->
<g id="edge15" class="edge"><title>Node56&#45;&gt;Node60</title>
<path fill="none" stroke="midnightblue" d="M285.059,-301.855C292.191,-299.822 299.322,-297.537 306,-295 322.913,-288.576 325.205,-282.727 342,-276 350.867,-272.448 360.641,-269.28 369.919,-266.595"/>
<polygon fill="midnightblue" stroke="midnightblue" points="284.117,-298.484 275.376,-304.47 285.942,-305.241 284.117,-298.484"/>
</g>
<!-- Node70 -->
<g id="node29" class="node"><title>Node70</title>
<g id="a_node29"><a xlink:href="classcbEditor" target="_top" xlink:title="A file editor. ">
<polygon fill="none" stroke="black" points="384,-57.5 384,-76.5 436,-76.5 436,-57.5 384,-57.5"/>
<text text-anchor="middle" x="410" y="-64.5" font-family="FreeSans" font-size="10.00">cbEditor</text>
</a>
</g>
</g>
<!-- Node69&#45;&gt;Node70 -->
<g id="edge25" class="edge"><title>Node69&#45;&gt;Node70</title>
<path fill="none" stroke="midnightblue" d="M269.075,-52.271C304.249,-55.9735 354.044,-61.2152 383.773,-64.3445"/>
<polygon fill="midnightblue" stroke="midnightblue" points="269.431,-48.7893 259.119,-51.2231 268.698,-55.7508 269.431,-48.7893"/>
</g>
<!-- Node71 -->
<g id="node30" class="node"><title>Node71</title>
<g id="a_node30"><a xlink:href="classStartHerePage" target="_top" xlink:title="StartHerePage">
<polygon fill="none" stroke="black" points="370,-19.5 370,-38.5 450,-38.5 450,-19.5 370,-19.5"/>
<text text-anchor="middle" x="410" y="-26.5" font-family="FreeSans" font-size="10.00">StartHerePage</text>
</a>
</g>
</g>
<!-- Node69&#45;&gt;Node71 -->
<g id="edge26" class="edge"><title>Node69&#45;&gt;Node71</title>
<path fill="none" stroke="midnightblue" d="M269.275,-43.7079C299.335,-40.5436 339.994,-36.2638 369.7,-33.1368"/>
<polygon fill="midnightblue" stroke="midnightblue" points="268.698,-40.2492 259.119,-44.7769 269.431,-47.2107 268.698,-40.2492"/>
</g>
</g>
</svg>
