<?xml version="1.0" encoding="UTF-8" standalone="no"?>
<!DOCTYPE svg PUBLIC "-//W3C//DTD SVG 1.1//EN"
 "http://www.w3.org/Graphics/SVG/1.1/DTD/svg11.dtd">
<!-- Generated by graphviz version 2.38.0 (20140413.2041)
 -->
<!-- Title: Graphical Class Hierarchy Pages: 1 -->
<svg width="526pt" height="598pt"
 viewBox="0.00 0.00 526.00 598.00" xmlns="http://www.w3.org/2000/svg" xmlns:xlink="http://www.w3.org/1999/xlink">
<g id="graph0" class="graph" transform="scale(1 1) rotate(0) translate(4 594)">
<title>Graphical Class Hierarchy</title>
<polygon fill="white" stroke="none" points="-4,4 -4,-594 522,-594 522,4 -4,4"/>
<!-- Node1 -->
<g id="node1" class="node"><title>Node1</title>
<g id="a_node1"><a xlink:href="classCompileOptionsBase" target="_top" xlink:title="This is a base class for all classes needing compilation parameters. ">
<polygon fill="white" stroke="black" points="0,-171.5 0,-190.5 107,-190.5 107,-171.5 0,-171.5"/>
<text text-anchor="middle" x="53.5" y="-178.5" font-family="FreeSans" font-size="10.00">CompileOptionsBase</text>
</a>
</g>
</g>
<!-- Node2 -->
<g id="node2" class="node"><title>Node2</title>
<g id="a_node2"><a xlink:href="classCompiler" target="_top" xlink:title="Abstract base class for compilers. ">
<polygon fill="white" stroke="black" points="166,-304.5 166,-323.5 221,-323.5 221,-304.5 166,-304.5"/>
<text text-anchor="middle" x="193.5" y="-311.5" font-family="FreeSans" font-size="10.00">Compiler</text>
</a>
</g>
</g>
<!-- Node1&#45;&gt;Node2 -->
<g id="edge1" class="edge"><title>Node1&#45;&gt;Node2</title>
<path fill="none" stroke="midnightblue" d="M71.8252,-197.697C100.954,-225.771 158.853,-281.572 182.293,-304.163"/>
<polygon fill="midnightblue" stroke="midnightblue" points="74.0538,-194.984 64.4246,-190.565 69.1961,-200.025 74.0538,-194.984"/>
</g>
<!-- Node19 -->
<g id="node19" class="node"><title>Node19</title>
<g id="a_node19"><a xlink:href="classCompileTargetBase" target="_top" xlink:title="Base class for build target classes Each Code::Blocks project consists of at least one target...">
<polygon fill="white" stroke="black" points="143,-38.5 143,-57.5 244,-57.5 244,-38.5 143,-38.5"/>
<text text-anchor="middle" x="193.5" y="-45.5" font-family="FreeSans" font-size="10.00">CompileTargetBase</text>
</a>
</g>
</g>
<!-- Node1&#45;&gt;Node19 -->
<g id="edge18" class="edge"><title>Node1&#45;&gt;Node19</title>
<path fill="none" stroke="midnightblue" d="M71.8252,-164.303C100.954,-136.229 158.853,-80.4283 182.293,-57.8372"/>
<polygon fill="midnightblue" stroke="midnightblue" points="69.1961,-161.975 64.4246,-171.435 74.0538,-167.016 69.1961,-161.975"/>
</g>
<!-- Node3 -->
<g id="node3" class="node"><title>Node3</title>
<g id="a_node3"><a xlink:href="classCompilerG95" target="_top" xlink:title="CompilerG95">
<polygon fill="white" stroke="black" points="297,-570.5 297,-589.5 370,-589.5 370,-570.5 297,-570.5"/>
<text text-anchor="middle" x="333.5" y="-577.5" font-family="FreeSans" font-size="10.00">CompilerG95</text>
</a>
</g>
</g>
<!-- Node2&#45;&gt;Node3 -->
<g id="edge2" class="edge"><title>Node2&#45;&gt;Node3</title>
<path fill="none" stroke="midnightblue" d="M195.723,-333.697C199.631,-379.803 215.674,-495.767 280,-561 284.696,-565.762 290.675,-569.338 296.903,-572.02"/>
<polygon fill="midnightblue" stroke="midnightblue" points="199.201,-333.266 194.969,-323.553 192.22,-333.785 199.201,-333.266"/>
</g>
<!-- Node4 -->
<g id="node4" class="node"><title>Node4</title>
<g id="a_node4"><a xlink:href="classCompilerGDC" target="_top" xlink:title="CompilerGDC">
<polygon fill="white" stroke="black" points="295.5,-532.5 295.5,-551.5 371.5,-551.5 371.5,-532.5 295.5,-532.5"/>
<text text-anchor="middle" x="333.5" y="-539.5" font-family="FreeSans" font-size="10.00">CompilerGDC</text>
</a>
</g>
</g>
<!-- Node2&#45;&gt;Node4 -->
<g id="edge3" class="edge"><title>Node2&#45;&gt;Node4</title>
<path fill="none" stroke="midnightblue" d="M197.2,-333.963C203.785,-375.044 224.414,-469.652 280,-523 284.406,-527.228 289.823,-530.526 295.486,-533.096"/>
<polygon fill="midnightblue" stroke="midnightblue" points="200.632,-333.25 195.697,-323.874 193.708,-334.281 200.632,-333.25"/>
</g>
<!-- Node5 -->
<g id="node5" class="node"><title>Node5</title>
<g id="a_node5"><a xlink:href="classCompilerGNUARM" target="_top" xlink:title="CompilerGNUARM">
<polygon fill="white" stroke="black" points="284.5,-494.5 284.5,-513.5 382.5,-513.5 382.5,-494.5 284.5,-494.5"/>
<text text-anchor="middle" x="333.5" y="-501.5" font-family="FreeSans" font-size="10.00">CompilerGNUARM</text>
</a>
</g>
</g>
<!-- Node2&#45;&gt;Node5 -->
<g id="edge4" class="edge"><title>Node2&#45;&gt;Node5</title>
<path fill="none" stroke="midnightblue" d="M199.166,-333.658C208.51,-368.882 232.791,-442.989 280,-485 284.345,-488.866 289.537,-491.964 294.94,-494.441"/>
<polygon fill="midnightblue" stroke="midnightblue" points="202.488,-332.517 196.647,-323.678 195.701,-334.23 202.488,-332.517"/>
</g>
<!-- Node6 -->
<g id="node6" class="node"><title>Node6</title>
<g id="a_node6"><a xlink:href="classCompilerGNUFortran" target="_top" xlink:title="CompilerGNUFortran">
<polygon fill="white" stroke="black" points="280,-456.5 280,-475.5 387,-475.5 387,-456.5 280,-456.5"/>
<text text-anchor="middle" x="333.5" y="-463.5" font-family="FreeSans" font-size="10.00">CompilerGNUFortran</text>
</a>
</g>
</g>
<!-- Node2&#45;&gt;Node6 -->
<g id="edge5" class="edge"><title>Node2&#45;&gt;Node6</title>
<path fill="none" stroke="midnightblue" d="M201.897,-332.833C214.037,-361.422 240.821,-415.746 280,-447 284.85,-450.869 290.556,-453.99 296.387,-456.497"/>
<polygon fill="midnightblue" stroke="midnightblue" points="205.124,-331.478 198.09,-323.554 198.648,-334.134 205.124,-331.478"/>
</g>
<!-- Node7 -->
<g id="node7" class="node"><title>Node7</title>
<g id="a_node7"><a xlink:href="classCompilerIAR" target="_top" xlink:title="CompilerIAR">
<polygon fill="white" stroke="black" points="298,-418.5 298,-437.5 369,-437.5 369,-418.5 298,-418.5"/>
<text text-anchor="middle" x="333.5" y="-425.5" font-family="FreeSans" font-size="10.00">CompilerIAR</text>
</a>
</g>
</g>
<!-- Node2&#45;&gt;Node7 -->
<g id="edge6" class="edge"><title>Node2&#45;&gt;Node7</title>
<path fill="none" stroke="midnightblue" d="M206.637,-332.204C221.599,-353.366 248.896,-388.056 280,-409 285.628,-412.79 292.104,-415.928 298.543,-418.487"/>
<polygon fill="midnightblue" stroke="midnightblue" points="209.391,-330.032 200.833,-323.787 203.628,-334.006 209.391,-330.032"/>
</g>
<!-- Node8 -->
<g id="node8" class="node"><title>Node8</title>
<g id="a_node8"><a xlink:href="classCompilerICC" target="_top" xlink:title="CompilerICC">
<polygon fill="white" stroke="black" points="298,-380.5 298,-399.5 369,-399.5 369,-380.5 298,-380.5"/>
<text text-anchor="middle" x="333.5" y="-387.5" font-family="FreeSans" font-size="10.00">CompilerICC</text>
</a>
</g>
</g>
<!-- Node2&#45;&gt;Node8 -->
<g id="edge7" class="edge"><title>Node2&#45;&gt;Node8</title>
<path fill="none" stroke="midnightblue" d="M214.96,-329.691C231.766,-342.065 256.54,-359.153 280,-371 287.009,-374.539 294.838,-377.741 302.267,-380.464"/>
<polygon fill="midnightblue" stroke="midnightblue" points="217.052,-326.885 206.947,-323.703 212.862,-332.493 217.052,-326.885"/>
</g>
<!-- Node9 -->
<g id="node9" class="node"><title>Node9</title>
<g id="a_node9"><a xlink:href="classCompilerKeilC51" target="_top" xlink:title="CompilerKeilC51">
<polygon fill="white" stroke="black" points="289,-342.5 289,-361.5 378,-361.5 378,-342.5 289,-342.5"/>
<text text-anchor="middle" x="333.5" y="-349.5" font-family="FreeSans" font-size="10.00">CompilerKeilC51</text>
</a>
</g>
</g>
<!-- Node2&#45;&gt;Node9 -->
<g id="edge8" class="edge"><title>Node2&#45;&gt;Node9</title>
<path fill="none" stroke="midnightblue" d="M230.83,-324.004C251.566,-329.714 277.419,-336.833 297.866,-342.463"/>
<polygon fill="midnightblue" stroke="midnightblue" points="231.678,-320.607 221.108,-321.327 229.82,-327.356 231.678,-320.607"/>
</g>
<!-- Node11 -->
<g id="node11" class="node"><title>Node11</title>
<g id="a_node11"><a xlink:href="classCompilerLCC" target="_top" xlink:title="CompilerLCC">
<polygon fill="white" stroke="black" points="296.5,-304.5 296.5,-323.5 370.5,-323.5 370.5,-304.5 296.5,-304.5"/>
<text text-anchor="middle" x="333.5" y="-311.5" font-family="FreeSans" font-size="10.00">CompilerLCC</text>
</a>
</g>
</g>
<!-- Node2&#45;&gt;Node11 -->
<g id="edge10" class="edge"><title>Node2&#45;&gt;Node11</title>
<path fill="none" stroke="midnightblue" d="M231.165,-314C251.323,-314 276.24,-314 296.321,-314"/>
<polygon fill="midnightblue" stroke="midnightblue" points="231.108,-310.5 221.108,-314 231.108,-317.5 231.108,-310.5"/>
</g>
<!-- Node12 -->
<g id="node12" class="node"><title>Node12</title>
<g id="a_node12"><a xlink:href="classCompilerMINGW" target="_top" xlink:title="CompilerMINGW">
<polygon fill="white" stroke="black" points="289,-266.5 289,-285.5 378,-285.5 378,-266.5 289,-266.5"/>
<text text-anchor="middle" x="333.5" y="-273.5" font-family="FreeSans" font-size="10.00">CompilerMINGW</text>
</a>
</g>
</g>
<!-- Node2&#45;&gt;Node12 -->
<g id="edge11" class="edge"><title>Node2&#45;&gt;Node12</title>
<path fill="none" stroke="midnightblue" d="M230.83,-303.996C251.566,-298.286 277.419,-291.167 297.866,-285.537"/>
<polygon fill="midnightblue" stroke="midnightblue" points="229.82,-300.644 221.108,-306.673 231.678,-307.393 229.82,-300.644"/>
</g>
<!-- Node14 -->
<g id="node14" class="node"><title>Node14</title>
<g id="a_node14"><a xlink:href="classCompilerMSVC" target="_top" xlink:title="CompilerMSVC">
<polygon fill="white" stroke="black" points="292,-228.5 292,-247.5 375,-247.5 375,-228.5 292,-228.5"/>
<text text-anchor="middle" x="333.5" y="-235.5" font-family="FreeSans" font-size="10.00">CompilerMSVC</text>
</a>
</g>
</g>
<!-- Node2&#45;&gt;Node14 -->
<g id="edge13" class="edge"><title>Node2&#45;&gt;Node14</title>
<path fill="none" stroke="midnightblue" d="M214.96,-298.309C231.766,-285.935 256.54,-268.847 280,-257 287.009,-253.461 294.838,-250.259 302.267,-247.536"/>
<polygon fill="midnightblue" stroke="midnightblue" points="212.862,-295.507 206.947,-304.297 217.052,-301.115 212.862,-295.507"/>
</g>
<!-- Node15 -->
<g id="node15" class="node"><title>Node15</title>
<g id="a_node15"><a xlink:href="classCompilerMSVC10" target="_top" xlink:title="CompilerMSVC10">
<polygon fill="white" stroke="black" points="287,-190.5 287,-209.5 380,-209.5 380,-190.5 287,-190.5"/>
<text text-anchor="middle" x="333.5" y="-197.5" font-family="FreeSans" font-size="10.00">CompilerMSVC10</text>
</a>
</g>
</g>
<!-- Node2&#45;&gt;Node15 -->
<g id="edge14" class="edge"><title>Node2&#45;&gt;Node15</title>
<path fill="none" stroke="midnightblue" d="M206.637,-295.796C221.599,-274.634 248.896,-239.944 280,-219 285.628,-215.21 292.104,-212.072 298.543,-209.513"/>
<polygon fill="midnightblue" stroke="midnightblue" points="203.628,-293.994 200.833,-304.213 209.391,-297.968 203.628,-293.994"/>
</g>
<!-- Node16 -->
<g id="node16" class="node"><title>Node16</title>
<g id="a_node16"><a xlink:href="classCompilerMSVC8" target="_top" xlink:title="CompilerMSVC8">
<polygon fill="white" stroke="black" points="289.5,-152.5 289.5,-171.5 377.5,-171.5 377.5,-152.5 289.5,-152.5"/>
<text text-anchor="middle" x="333.5" y="-159.5" font-family="FreeSans" font-size="10.00">CompilerMSVC8</text>
</a>
</g>
</g>
<!-- Node2&#45;&gt;Node16 -->
<g id="edge15" class="edge"><title>Node2&#45;&gt;Node16</title>
<path fill="none" stroke="midnightblue" d="M201.897,-295.167C214.037,-266.578 240.821,-212.254 280,-181 284.85,-177.131 290.556,-174.01 296.387,-171.503"/>
<polygon fill="midnightblue" stroke="midnightblue" points="198.648,-293.866 198.09,-304.446 205.124,-296.522 198.648,-293.866"/>
</g>
<!-- Node17 -->
<g id="node17" class="node"><title>Node17</title>
<g id="a_node17"><a xlink:href="classCompilerOW" target="_top" xlink:title="CompilerOW">
<polygon fill="white" stroke="black" points="298,-114.5 298,-133.5 369,-133.5 369,-114.5 298,-114.5"/>
<text text-anchor="middle" x="333.5" y="-121.5" font-family="FreeSans" font-size="10.00">CompilerOW</text>
</a>
</g>
</g>
<!-- Node2&#45;&gt;Node17 -->
<g id="edge16" class="edge"><title>Node2&#45;&gt;Node17</title>
<path fill="none" stroke="midnightblue" d="M199.166,-294.342C208.51,-259.118 232.791,-185.011 280,-143 285.141,-138.425 291.469,-134.926 297.93,-132.259"/>
<polygon fill="midnightblue" stroke="midnightblue" points="195.701,-293.77 196.647,-304.322 202.488,-295.483 195.701,-293.77"/>
</g>
<!-- Node18 -->
<g id="node18" class="node"><title>Node18</title>
<g id="a_node18"><a xlink:href="classCompilerXML" target="_top" xlink:title="CompilerXML">
<polygon fill="white" stroke="black" points="296,-76.5 296,-95.5 371,-95.5 371,-76.5 296,-76.5"/>
<text text-anchor="middle" x="333.5" y="-83.5" font-family="FreeSans" font-size="10.00">CompilerXML</text>
</a>
</g>
</g>
<!-- Node2&#45;&gt;Node18 -->
<g id="edge17" class="edge"><title>Node2&#45;&gt;Node18</title>
<path fill="none" stroke="midnightblue" d="M197.2,-294.037C203.785,-252.956 224.414,-158.348 280,-105 284.476,-100.704 289.995,-97.3691 295.756,-94.7824"/>
<polygon fill="midnightblue" stroke="midnightblue" points="193.708,-293.719 195.697,-304.126 200.632,-294.75 193.708,-293.719"/>
</g>
<!-- Node10 -->
<g id="node10" class="node"><title>Node10</title>
<g id="a_node10"><a xlink:href="classCompilerKeilCX51" target="_top" xlink:title="CompilerKeilCX51">
<polygon fill="white" stroke="black" points="423,-342.5 423,-361.5 518,-361.5 518,-342.5 423,-342.5"/>
<text text-anchor="middle" x="470.5" y="-349.5" font-family="FreeSans" font-size="10.00">CompilerKeilCX51</text>
</a>
</g>
</g>
<!-- Node9&#45;&gt;Node10 -->
<g id="edge9" class="edge"><title>Node9&#45;&gt;Node10</title>
<path fill="none" stroke="midnightblue" d="M388.515,-352C399.808,-352 411.625,-352 422.633,-352"/>
<polygon fill="midnightblue" stroke="midnightblue" points="388.331,-348.5 378.331,-352 388.331,-355.5 388.331,-348.5"/>
</g>
<!-- Node13 -->
<g id="node13" class="node"><title>Node13</title>
<g id="a_node13"><a xlink:href="classCompilerCYGWIN" target="_top" xlink:title="CompilerCYGWIN">
<polygon fill="white" stroke="black" points="423,-266.5 423,-285.5 518,-285.5 518,-266.5 423,-266.5"/>
<text text-anchor="middle" x="470.5" y="-273.5" font-family="FreeSans" font-size="10.00">CompilerCYGWIN</text>
</a>
</g>
</g>
<!-- Node12&#45;&gt;Node13 -->
<g id="edge12" class="edge"><title>Node12&#45;&gt;Node13</title>
<path fill="none" stroke="midnightblue" d="M388.515,-276C399.808,-276 411.625,-276 422.633,-276"/>
<polygon fill="midnightblue" stroke="midnightblue" points="388.331,-272.5 378.331,-276 388.331,-279.5 388.331,-272.5"/>
</g>
<!-- Node20 -->
<g id="node20" class="node"><title>Node20</title>
<g id="a_node20"><a xlink:href="classcbProject" target="_top" xlink:title="Represents a Code::Blocks project. ">
<polygon fill="white" stroke="black" points="304.5,-38.5 304.5,-57.5 362.5,-57.5 362.5,-38.5 304.5,-38.5"/>
<text text-anchor="middle" x="333.5" y="-45.5" font-family="FreeSans" font-size="10.00">cbProject</text>
</a>
</g>
</g>
<!-- Node19&#45;&gt;Node20 -->
<g id="edge19" class="edge"><title>Node19&#45;&gt;Node20</title>
<path fill="none" stroke="midnightblue" d="M254.436,-48C271.825,-48 289.997,-48 304.428,-48"/>
<polygon fill="midnightblue" stroke="midnightblue" points="254.321,-44.5001 244.321,-48 254.321,-51.5001 254.321,-44.5001"/>
</g>
<!-- Node21 -->
<g id="node21" class="node"><title>Node21</title>
<g id="a_node21"><a xlink:href="classProjectBuildTarget" target="_top" xlink:title="Represents a Code::Blocks project build target. ">
<polygon fill="white" stroke="black" points="285,-0.5 285,-19.5 382,-19.5 382,-0.5 285,-0.5"/>
<text text-anchor="middle" x="333.5" y="-7.5" font-family="FreeSans" font-size="10.00">ProjectBuildTarget</text>
</a>
</g>
</g>
<!-- Node19&#45;&gt;Node21 -->
<g id="edge20" class="edge"><title>Node19&#45;&gt;Node21</title>
<path fill="none" stroke="midnightblue" d="M238.973,-35.7538C257.995,-30.516 279.875,-24.4909 297.688,-19.5859"/>
<polygon fill="midnightblue" stroke="midnightblue" points="238.035,-32.3817 229.323,-38.411 239.894,-39.1305 238.035,-32.3817"/>
</g>
</g>
</svg>
