<?xml version="1.0" encoding="UTF-8" standalone="no"?>
<!DOCTYPE svg PUBLIC "-//W3C//DTD SVG 1.1//EN"
 "http://www.w3.org/Graphics/SVG/1.1/DTD/svg11.dtd">
<!-- Generated by graphviz version 2.40.1 (20161225.0304)
 -->
<!-- Title: Graphical Class Hierarchy Pages: 1 -->
<svg width="327pt" height="66pt"
 viewBox="0.00 0.00 327.00 66.00" xmlns="http://www.w3.org/2000/svg" xmlns:xlink="http://www.w3.org/1999/xlink">
<g id="graph0" class="graph" transform="scale(1 1) rotate(0) translate(4 62)">
<title>Graphical Class Hierarchy</title>
<!-- Node0 -->
<g id="node1" class="node">
<title>Node0</title>
<g id="a_node1"><a doxygen="/media/alpha/Barracuda/cb_docs/src/wxTagFile.xml:http://docs.wxwidgets.org/3.0/" xlink:href="http://docs.wxwidgets.org/3.0/classwx_aui_tab_art.html" target="_top" xlink:title="wxAuiTabArt">
<polygon fill="none" stroke="#000000" points="0,-19.5 0,-38.5 71,-38.5 71,-19.5 0,-19.5"/>
<text text-anchor="middle" x="35.5" y="-26.5" font-family="FreeSans" font-size="10.00" fill="#000000">wxAuiTabArt</text>
</a>
</g>
</g>
<!-- Node1 -->
<g id="node2" class="node">
<title>Node1</title>
<g id="a_node2"><a doxygen="/media/alpha/Barracuda/cb_docs/src/wxTagFile.xml:http://docs.wxwidgets.org/3.0/" xlink:href="http://docs.wxwidgets.org/3.0/classwx_aui_default_tab_art.html" target="_top" xlink:title="wxAuiDefaultTabArt">
<polygon fill="none" stroke="#000000" points="107,-19.5 107,-38.5 209,-38.5 209,-19.5 107,-19.5"/>
<text text-anchor="middle" x="158" y="-26.5" font-family="FreeSans" font-size="10.00" fill="#000000">wxAuiDefaultTabArt</text>
</a>
</g>
</g>
<!-- Node0&#45;&gt;Node1 -->
<g id="edge1" class="edge">
<title>Node0&#45;&gt;Node1</title>
<path fill="none" stroke="#191970" d="M81.5122,-29C89.8127,-29 98.5119,-29 106.9457,-29"/>
<polygon fill="#191970" stroke="#191970" points="81.2614,-25.5001 71.2614,-29 81.2613,-32.5001 81.2614,-25.5001"/>
</g>
<!-- Node2 -->
<g id="node3" class="node">
<title>Node2</title>
<g id="a_node3"><a xlink:href="classNbStyleFF2" target="_top" xlink:title="NbStyleFF2">
<polygon fill="none" stroke="#000000" points="248,-38.5 248,-57.5 316,-57.5 316,-38.5 248,-38.5"/>
<text text-anchor="middle" x="282" y="-45.5" font-family="FreeSans" font-size="10.00" fill="#000000">NbStyleFF2</text>
</a>
</g>
</g>
<!-- Node1&#45;&gt;Node2 -->
<g id="edge2" class="edge">
<title>Node1&#45;&gt;Node2</title>
<path fill="none" stroke="#191970" d="M219.045,-38.3537C228.9874,-39.8771 238.9625,-41.4055 247.9473,-42.7822"/>
<polygon fill="#191970" stroke="#191970" points="219.5662,-34.8928 209.1515,-36.8377 218.506,-41.812 219.5662,-34.8928"/>
</g>
<!-- Node3 -->
<g id="node4" class="node">
<title>Node3</title>
<g id="a_node4"><a xlink:href="classNbStyleVC71" target="_top" xlink:title="NbStyleVC71">
<polygon fill="none" stroke="#000000" points="245,-.5 245,-19.5 319,-19.5 319,-.5 245,-.5"/>
<text text-anchor="middle" x="282" y="-7.5" font-family="FreeSans" font-size="10.00" fill="#000000">NbStyleVC71</text>
</a>
</g>
</g>
<!-- Node1&#45;&gt;Node3 -->
<g id="edge3" class="edge">
<title>Node1&#45;&gt;Node3</title>
<path fill="none" stroke="#191970" d="M219.0894,-19.6395C227.9349,-18.2842 236.8051,-16.925 244.9796,-15.6725"/>
<polygon fill="#191970" stroke="#191970" points="218.506,-16.188 209.1515,-21.1623 219.5662,-23.1072 218.506,-16.188"/>
</g>
</g>
</svg>
