<?xml version="1.0" encoding="UTF-8" standalone="no"?>
<!DOCTYPE svg PUBLIC "-//W3C//DTD SVG 1.1//EN"
 "http://www.w3.org/Graphics/SVG/1.1/DTD/svg11.dtd">
<!-- Generated by graphviz version 2.38.0 (20140413.2041)
 -->
<!-- Title: Graphical Class Hierarchy Pages: 1 -->
<svg width="589pt" height="1206pt"
 viewBox="0.00 0.00 589.00 1206.00" xmlns="http://www.w3.org/2000/svg" xmlns:xlink="http://www.w3.org/1999/xlink">
<g id="graph0" class="graph" transform="scale(1 1) rotate(0) translate(4 1202)">
<title>Graphical Class Hierarchy</title>
<polygon fill="white" stroke="none" points="-4,4 -4,-1202 585,-1202 585,4 -4,4"/>
<!-- Node1 -->
<g id="node1" class="node"><title>Node1</title>
<polygon fill="white" stroke="#bfbfbf" points="30.5,-627.5 30.5,-646.5 85.5,-646.5 85.5,-627.5 30.5,-627.5"/>
<text text-anchor="middle" x="58" y="-634.5" font-family="FreeSans" font-size="10.00">wxDialog</text>
</g>
<!-- Node2 -->
<g id="node2" class="node"><title>Node2</title>
<g id="a_node2"><a xlink:href="classCompilerFlagDlg.xhtml" target="_top" xlink:title="CompilerFlagDlg">
<polygon fill="white" stroke="black" points="171.5,-665.5 171.5,-684.5 259.5,-684.5 259.5,-665.5 171.5,-665.5"/>
<text text-anchor="middle" x="215.5" y="-672.5" font-family="FreeSans" font-size="10.00">CompilerFlagDlg</text>
</a>
</g>
</g>
<!-- Node1&#45;&gt;Node2 -->
<g id="edge1" class="edge"><title>Node1&#45;&gt;Node2</title>
<path fill="none" stroke="midnightblue" d="M95.5489,-645.932C119.612,-651.812 151.078,-659.501 175.603,-665.495"/>
<polygon fill="midnightblue" stroke="midnightblue" points="96.2764,-642.506 85.7314,-643.532 94.6147,-649.306 96.2764,-642.506"/>
</g>
<!-- Node3 -->
<g id="node3" class="node"><title>Node3</title>
<g id="a_node3"><a xlink:href="classScopeDialog.xhtml" target="_top" xlink:title="ScopeDialog">
<polygon fill="white" stroke="black" points="180,-627.5 180,-646.5 251,-646.5 251,-627.5 180,-627.5"/>
<text text-anchor="middle" x="215.5" y="-634.5" font-family="FreeSans" font-size="10.00">ScopeDialog</text>
</a>
</g>
</g>
<!-- Node1&#45;&gt;Node3 -->
<g id="edge2" class="edge"><title>Node1&#45;&gt;Node3</title>
<path fill="none" stroke="midnightblue" d="M95.7526,-637C121.239,-637 154.957,-637 179.95,-637"/>
<polygon fill="midnightblue" stroke="midnightblue" points="95.7314,-633.5 85.7314,-637 95.7314,-640.5 95.7314,-633.5"/>
</g>
<!-- Node4 -->
<g id="node4" class="node"><title>Node4</title>
<g id="a_node4"><a xlink:href="classwxScrollingDialog.xhtml" target="_top" xlink:title="wxScrollingDialog">
<polygon fill="white" stroke="black" points="169.5,-589.5 169.5,-608.5 261.5,-608.5 261.5,-589.5 169.5,-589.5"/>
<text text-anchor="middle" x="215.5" y="-596.5" font-family="FreeSans" font-size="10.00">wxScrollingDialog</text>
</a>
</g>
</g>
<!-- Node1&#45;&gt;Node4 -->
<g id="edge3" class="edge"><title>Node1&#45;&gt;Node4</title>
<path fill="none" stroke="midnightblue" d="M95.5489,-628.068C119.612,-622.188 151.078,-614.499 175.603,-608.505"/>
<polygon fill="midnightblue" stroke="midnightblue" points="94.6147,-624.694 85.7314,-630.468 96.2764,-631.494 94.6147,-624.694"/>
</g>
<!-- Node5 -->
<g id="node5" class="node"><title>Node5</title>
<g id="a_node5"><a xlink:href="classAdvancedCompilerOptionsDlg.xhtml" target="_top" xlink:title="AdvancedCompilerOptionsDlg">
<polygon fill="white" stroke="black" points="315,-1178.5 315,-1197.5 460,-1197.5 460,-1178.5 315,-1178.5"/>
<text text-anchor="middle" x="387.5" y="-1185.5" font-family="FreeSans" font-size="10.00">AdvancedCompilerOptionsDlg</text>
</a>
</g>
</g>
<!-- Node4&#45;&gt;Node5 -->
<g id="edge4" class="edge"><title>Node4&#45;&gt;Node5</title>
<path fill="none" stroke="midnightblue" d="M270.58,-610.267C273.742,-612.425 276.604,-614.979 279,-618 355.242,-714.144 237.068,-1074.22 315,-1169 318.1,-1172.77 321.855,-1175.84 326.002,-1178.33"/>
<polygon fill="midnightblue" stroke="midnightblue" points="272.087,-607.103 261.624,-605.434 268.762,-613.263 272.087,-607.103"/>
</g>
<!-- Node6 -->
<g id="node6" class="node"><title>Node6</title>
<g id="a_node6"><a xlink:href="classAnnoyingDialog.xhtml" target="_top" xlink:title="AnnoyingDialog">
<polygon fill="white" stroke="black" points="346,-1140.5 346,-1159.5 429,-1159.5 429,-1140.5 346,-1140.5"/>
<text text-anchor="middle" x="387.5" y="-1147.5" font-family="FreeSans" font-size="10.00">AnnoyingDialog</text>
</a>
</g>
</g>
<!-- Node4&#45;&gt;Node6 -->
<g id="edge5" class="edge"><title>Node4&#45;&gt;Node6</title>
<path fill="none" stroke="midnightblue" d="M270.564,-610.281C273.73,-612.435 276.597,-614.985 279,-618 350.223,-707.372 242.207,-1042.9 315,-1131 322.609,-1140.21 334.125,-1145.23 345.706,-1147.9"/>
<polygon fill="midnightblue" stroke="midnightblue" points="272.065,-607.114 261.601,-605.453 268.745,-613.276 272.065,-607.114"/>
</g>
<!-- Node7 -->
<g id="node7" class="node"><title>Node7</title>
<g id="a_node7"><a xlink:href="classAutoDetectCompilers.xhtml" target="_top" xlink:title="AutoDetectCompilers">
<polygon fill="white" stroke="black" points="333.5,-1102.5 333.5,-1121.5 441.5,-1121.5 441.5,-1102.5 333.5,-1102.5"/>
<text text-anchor="middle" x="387.5" y="-1109.5" font-family="FreeSans" font-size="10.00">AutoDetectCompilers</text>
</a>
</g>
</g>
<!-- Node4&#45;&gt;Node7 -->
<g id="edge6" class="edge"><title>Node4&#45;&gt;Node7</title>
<path fill="none" stroke="midnightblue" d="M270.545,-610.296C273.715,-612.447 276.588,-614.991 279,-618 345.205,-700.601 247.344,-1011.58 315,-1093 319.843,-1098.83 326.252,-1102.98 333.247,-1105.92"/>
<polygon fill="midnightblue" stroke="midnightblue" points="272.039,-607.125 261.574,-605.474 268.725,-613.291 272.039,-607.125"/>
</g>
<!-- Node8 -->
<g id="node8" class="node"><title>Node8</title>
<g id="a_node8"><a xlink:href="classcbConfigurationDialog.xhtml" target="_top" xlink:title="A simple dialog that wraps a cbConfigurationPanel. ">
<polygon fill="white" stroke="black" points="332.5,-1064.5 332.5,-1083.5 442.5,-1083.5 442.5,-1064.5 332.5,-1064.5"/>
<text text-anchor="middle" x="387.5" y="-1071.5" font-family="FreeSans" font-size="10.00">cbConfigurationDialog</text>
</a>
</g>
</g>
<!-- Node4&#45;&gt;Node8 -->
<g id="edge7" class="edge"><title>Node4&#45;&gt;Node8</title>
<path fill="none" stroke="midnightblue" d="M270.523,-610.314C273.698,-612.46 276.579,-614.999 279,-618 340.189,-693.832 252.479,-980.263 315,-1055 319.615,-1060.52 325.632,-1064.53 332.218,-1067.43"/>
<polygon fill="midnightblue" stroke="midnightblue" points="272.01,-607.14 261.543,-605.499 268.702,-613.309 272.01,-607.14"/>
</g>
<!-- Node9 -->
<g id="node9" class="node"><title>Node9</title>
<g id="a_node9"><a xlink:href="classCCDebugInfo.xhtml" target="_top" xlink:title="CCDebugInfo">
<polygon fill="white" stroke="black" points="350.5,-1026.5 350.5,-1045.5 424.5,-1045.5 424.5,-1026.5 350.5,-1026.5"/>
<text text-anchor="middle" x="387.5" y="-1033.5" font-family="FreeSans" font-size="10.00">CCDebugInfo</text>
</a>
</g>
</g>
<!-- Node4&#45;&gt;Node9 -->
<g id="edge8" class="edge"><title>Node4&#45;&gt;Node9</title>
<path fill="none" stroke="midnightblue" d="M270.496,-610.335C273.678,-612.477 276.567,-615.009 279,-618 335.175,-687.066 257.612,-948.939 315,-1017 323.693,-1027.31 337.284,-1032.36 350.292,-1034.73"/>
<polygon fill="midnightblue" stroke="midnightblue" points="271.975,-607.157 261.506,-605.529 268.675,-613.33 271.975,-607.157"/>
</g>
<!-- Node10 -->
<g id="node10" class="node"><title>Node10</title>
<g id="a_node10"><a xlink:href="classConfigureToolsDlg.xhtml" target="_top" xlink:title="ConfigureToolsDlg">
<polygon fill="white" stroke="black" points="340,-988.5 340,-1007.5 435,-1007.5 435,-988.5 340,-988.5"/>
<text text-anchor="middle" x="387.5" y="-995.5" font-family="FreeSans" font-size="10.00">ConfigureToolsDlg</text>
</a>
</g>
</g>
<!-- Node4&#45;&gt;Node10 -->
<g id="edge9" class="edge"><title>Node4&#45;&gt;Node10</title>
<path fill="none" stroke="midnightblue" d="M270.614,-610.461C273.744,-612.576 276.591,-615.067 279,-618 381.328,-742.609 210.483,-856.222 315,-979 321.411,-986.531 330.434,-991.25 339.917,-994.168"/>
<polygon fill="midnightblue" stroke="midnightblue" points="272.24,-607.361 261.776,-605.699 268.919,-613.524 272.24,-607.361"/>
</g>
<!-- Node11 -->
<g id="node11" class="node"><title>Node11</title>
<g id="a_node11"><a xlink:href="classConfirmReplaceDlg.xhtml" target="_top" xlink:title="ConfirmReplaceDlg">
<polygon fill="white" stroke="black" points="338,-950.5 338,-969.5 437,-969.5 437,-950.5 338,-950.5"/>
<text text-anchor="middle" x="387.5" y="-957.5" font-family="FreeSans" font-size="10.00">ConfirmReplaceDlg</text>
</a>
</g>
</g>
<!-- Node4&#45;&gt;Node11 -->
<g id="edge10" class="edge"><title>Node4&#45;&gt;Node11</title>
<path fill="none" stroke="midnightblue" d="M270.575,-610.493C273.714,-612.6 276.574,-615.081 279,-618 371.315,-729.095 220.733,-831.556 315,-941 320.951,-947.91 329.101,-952.448 337.773,-955.399"/>
<polygon fill="midnightblue" stroke="midnightblue" points="272.188,-607.386 261.721,-605.744 268.88,-613.555 272.188,-607.386"/>
</g>
<!-- Node12 -->
<g id="node12" class="node"><title>Node12</title>
<g id="a_node12"><a xlink:href="classDataBreakpointDlg.xhtml" target="_top" xlink:title="DataBreakpointDlg">
<polygon fill="white" stroke="black" points="338.5,-912.5 338.5,-931.5 436.5,-931.5 436.5,-912.5 338.5,-912.5"/>
<text text-anchor="middle" x="387.5" y="-919.5" font-family="FreeSans" font-size="10.00">DataBreakpointDlg</text>
</a>
</g>
</g>
<!-- Node4&#45;&gt;Node12 -->
<g id="edge11" class="edge"><title>Node4&#45;&gt;Node12</title>
<path fill="none" stroke="midnightblue" d="M270.527,-610.533C273.677,-612.631 276.553,-615.099 279,-618 361.314,-715.595 230.972,-806.876 315,-903 321.086,-909.962 329.405,-914.511 338.219,-917.454"/>
<polygon fill="midnightblue" stroke="midnightblue" points="272.124,-607.418 261.653,-605.802 268.83,-613.595 272.124,-607.418"/>
</g>
<!-- Node13 -->
<g id="node13" class="node"><title>Node13</title>
<g id="a_node13"><a xlink:href="classDebuggerInfoWindow.xhtml" target="_top" xlink:title="DebuggerInfoWindow">
<polygon fill="white" stroke="black" points="333.5,-874.5 333.5,-893.5 441.5,-893.5 441.5,-874.5 333.5,-874.5"/>
<text text-anchor="middle" x="387.5" y="-881.5" font-family="FreeSans" font-size="10.00">DebuggerInfoWindow</text>
</a>
</g>
</g>
<!-- Node4&#45;&gt;Node13 -->
<g id="edge12" class="edge"><title>Node4&#45;&gt;Node13</title>
<path fill="none" stroke="midnightblue" d="M270.465,-610.587C273.629,-612.672 276.525,-615.122 279,-618 351.33,-702.116 241.193,-782.177 315,-865 319.956,-870.562 326.337,-874.578 333.242,-877.465"/>
<polygon fill="midnightblue" stroke="midnightblue" points="272.04,-607.461 261.565,-605.877 268.766,-613.648 272.04,-607.461"/>
</g>
<!-- Node14 -->
<g id="node14" class="node"><title>Node14</title>
<g id="a_node14"><a xlink:href="classEditArrayFileDlg.xhtml" target="_top" xlink:title="EditArrayFileDlg">
<polygon fill="white" stroke="black" points="344.5,-836.5 344.5,-855.5 430.5,-855.5 430.5,-836.5 344.5,-836.5"/>
<text text-anchor="middle" x="387.5" y="-843.5" font-family="FreeSans" font-size="10.00">EditArrayFileDlg</text>
</a>
</g>
</g>
<!-- Node4&#45;&gt;Node14 -->
<g id="edge13" class="edge"><title>Node4&#45;&gt;Node14</title>
<path fill="none" stroke="midnightblue" d="M270.807,-610.94C273.826,-612.946 276.601,-615.282 279,-618 341.373,-688.668 251.387,-757.446 315,-827 322.628,-835.34 333.461,-840.192 344.393,-842.968"/>
<polygon fill="midnightblue" stroke="midnightblue" points="272.232,-607.733 261.762,-606.114 268.937,-613.909 272.232,-607.733"/>
</g>
<!-- Node15 -->
<g id="node15" class="node"><title>Node15</title>
<g id="a_node15"><a xlink:href="classEditArrayOrderDlg.xhtml" target="_top" xlink:title="EditArrayOrderDlg">
<polygon fill="white" stroke="black" points="340.5,-798.5 340.5,-817.5 434.5,-817.5 434.5,-798.5 340.5,-798.5"/>
<text text-anchor="middle" x="387.5" y="-805.5" font-family="FreeSans" font-size="10.00">EditArrayOrderDlg</text>
</a>
</g>
</g>
<!-- Node4&#45;&gt;Node15 -->
<g id="edge14" class="edge"><title>Node4&#45;&gt;Node15</title>
<path fill="none" stroke="midnightblue" d="M270.693,-611.043C273.739,-613.024 276.551,-615.327 279,-618 331.46,-675.271 261.535,-732.666 315,-789 321.72,-796.08 330.751,-800.631 340.13,-803.531"/>
<polygon fill="midnightblue" stroke="midnightblue" points="272.076,-607.816 261.595,-606.264 268.821,-614.013 272.076,-607.816"/>
</g>
<!-- Node16 -->
<g id="node16" class="node"><title>Node16</title>
<g id="a_node16"><a xlink:href="classEditArrayStringDlg.xhtml" target="_top" xlink:title="EditArrayStringDlg">
<polygon fill="white" stroke="black" points="340,-760.5 340,-779.5 435,-779.5 435,-760.5 340,-760.5"/>
<text text-anchor="middle" x="387.5" y="-767.5" font-family="FreeSans" font-size="10.00">EditArrayStringDlg</text>
</a>
</g>
</g>
<!-- Node4&#45;&gt;Node16 -->
<g id="edge15" class="edge"><title>Node4&#45;&gt;Node16</title>
<path fill="none" stroke="midnightblue" d="M270.67,-611.299C273.7,-613.221 276.517,-615.439 279,-618 321.63,-661.963 271.598,-707.798 315,-751 321.736,-757.705 330.552,-762.122 339.683,-765.012"/>
<polygon fill="midnightblue" stroke="midnightblue" points="272.152,-608.125 261.662,-606.633 268.932,-614.341 272.152,-608.125"/>
</g>
<!-- Node17 -->
<g id="node17" class="node"><title>Node17</title>
<g id="a_node17"><a xlink:href="classEditBreakpointDlg.xhtml" target="_top" xlink:title="EditBreakpointDlg">
<polygon fill="white" stroke="black" points="340.5,-722.5 340.5,-741.5 434.5,-741.5 434.5,-722.5 340.5,-722.5"/>
<text text-anchor="middle" x="387.5" y="-729.5" font-family="FreeSans" font-size="10.00">EditBreakpointDlg</text>
</a>
</g>
</g>
<!-- Node4&#45;&gt;Node17 -->
<g id="edge16" class="edge"><title>Node4&#45;&gt;Node17</title>
<path fill="none" stroke="midnightblue" d="M270.54,-611.678C273.581,-613.509 276.437,-615.604 279,-618 311.98,-648.838 281.479,-682.75 315,-713 322.056,-719.368 331.007,-723.642 340.168,-726.5"/>
<polygon fill="midnightblue" stroke="midnightblue" points="272.078,-608.534 261.569,-607.185 268.943,-614.793 272.078,-608.534"/>
</g>
<!-- Node18 -->
<g id="node18" class="node"><title>Node18</title>
<g id="a_node18"><a xlink:href="classEditPairDlg.xhtml" target="_top" xlink:title="EditPairDlg">
<polygon fill="white" stroke="black" points="355,-684.5 355,-703.5 420,-703.5 420,-684.5 355,-684.5"/>
<text text-anchor="middle" x="387.5" y="-691.5" font-family="FreeSans" font-size="10.00">EditPairDlg</text>
</a>
</g>
</g>
<!-- Node4&#45;&gt;Node18 -->
<g id="edge17" class="edge"><title>Node4&#45;&gt;Node18</title>
<path fill="none" stroke="midnightblue" d="M271.03,-612.852C273.83,-614.392 276.51,-616.102 279,-618 302.829,-636.164 290.853,-657.26 315,-675 326.49,-683.441 341.458,-688.134 354.728,-690.742"/>
<polygon fill="midnightblue" stroke="midnightblue" points="272.303,-609.583 261.765,-608.49 269.321,-615.916 272.303,-609.583"/>
</g>
<!-- Node19 -->
<g id="node19" class="node"><title>Node19</title>
<g id="a_node19"><a xlink:href="classEditPathDlg.xhtml" target="_top" xlink:title="EditPathDlg">
<polygon fill="white" stroke="black" points="353.5,-646.5 353.5,-665.5 421.5,-665.5 421.5,-646.5 353.5,-646.5"/>
<text text-anchor="middle" x="387.5" y="-653.5" font-family="FreeSans" font-size="10.00">EditPathDlg</text>
</a>
</g>
</g>
<!-- Node4&#45;&gt;Node19 -->
<g id="edge18" class="edge"><title>Node4&#45;&gt;Node19</title>
<path fill="none" stroke="midnightblue" d="M261.959,-611.704C267.754,-613.648 273.558,-615.761 279,-618 295.731,-624.884 298.15,-630.413 315,-637 327.202,-641.77 341.031,-645.755 353.254,-648.824"/>
<polygon fill="midnightblue" stroke="midnightblue" points="262.87,-608.321 252.279,-608.597 260.731,-614.986 262.87,-608.321"/>
</g>
<!-- Node20 -->
<g id="node20" class="node"><title>Node20</title>
<g id="a_node20"><a xlink:href="classEditToolDlg.xhtml" target="_top" xlink:title="EditToolDlg">
<polygon fill="white" stroke="black" points="354.5,-608.5 354.5,-627.5 420.5,-627.5 420.5,-608.5 354.5,-608.5"/>
<text text-anchor="middle" x="387.5" y="-615.5" font-family="FreeSans" font-size="10.00">EditToolDlg</text>
</a>
</g>
</g>
<!-- Node4&#45;&gt;Node20 -->
<g id="edge19" class="edge"><title>Node4&#45;&gt;Node20</title>
<path fill="none" stroke="midnightblue" d="M271.824,-605.183C299.143,-608.237 331.14,-611.813 354.383,-614.41"/>
<polygon fill="midnightblue" stroke="midnightblue" points="271.937,-601.674 261.611,-604.042 271.16,-608.631 271.937,-601.674"/>
</g>
<!-- Node21 -->
<g id="node21" class="node"><title>Node21</title>
<g id="a_node21"><a xlink:href="classEditWatchDlg.xhtml" target="_top" xlink:title="EditWatchDlg">
<polygon fill="white" stroke="black" points="350,-570.5 350,-589.5 425,-589.5 425,-570.5 350,-570.5"/>
<text text-anchor="middle" x="387.5" y="-577.5" font-family="FreeSans" font-size="10.00">EditWatchDlg</text>
</a>
</g>
</g>
<!-- Node4&#45;&gt;Node21 -->
<g id="edge20" class="edge"><title>Node4&#45;&gt;Node21</title>
<path fill="none" stroke="midnightblue" d="M271.565,-592.846C297.18,-589.983 326.952,-586.655 349.776,-584.104"/>
<polygon fill="midnightblue" stroke="midnightblue" points="271.16,-589.369 261.611,-593.958 271.937,-596.326 271.16,-589.369"/>
</g>
<!-- Node22 -->
<g id="node22" class="node"><title>Node22</title>
<g id="a_node22"><a xlink:href="classExternalDepsDlg.xhtml" target="_top" xlink:title="ExternalDepsDlg">
<polygon fill="white" stroke="black" points="344,-532.5 344,-551.5 431,-551.5 431,-532.5 344,-532.5"/>
<text text-anchor="middle" x="387.5" y="-539.5" font-family="FreeSans" font-size="10.00">ExternalDepsDlg</text>
</a>
</g>
</g>
<!-- Node4&#45;&gt;Node22 -->
<g id="edge21" class="edge"><title>Node4&#45;&gt;Node22</title>
<path fill="none" stroke="midnightblue" d="M259.244,-586.291C265.919,-584.029 272.69,-581.569 279,-579 295.568,-572.254 298.269,-567.33 315,-561 324.49,-557.41 334.932,-554.226 344.835,-551.539"/>
<polygon fill="midnightblue" stroke="midnightblue" points="258.013,-583.011 249.601,-589.453 260.194,-589.663 258.013,-583.011"/>
</g>
<!-- Node23 -->
<g id="node23" class="node"><title>Node23</title>
<g id="a_node23"><a xlink:href="classFindReplaceBase.xhtml" target="_top" xlink:title="FindReplaceBase">
<polygon fill="white" stroke="black" points="341.5,-494.5 341.5,-513.5 433.5,-513.5 433.5,-494.5 341.5,-494.5"/>
<text text-anchor="middle" x="387.5" y="-501.5" font-family="FreeSans" font-size="10.00">FindReplaceBase</text>
</a>
</g>
</g>
<!-- Node4&#45;&gt;Node23 -->
<g id="edge22" class="edge"><title>Node4&#45;&gt;Node23</title>
<path fill="none" stroke="midnightblue" d="M268.912,-585.359C272.478,-583.498 275.886,-581.39 279,-579 302.472,-560.986 291.085,-540.422 315,-523 322.786,-517.328 332.147,-513.349 341.491,-510.557"/>
<polygon fill="midnightblue" stroke="midnightblue" points="267.463,-582.173 259.799,-589.489 270.352,-588.549 267.463,-582.173"/>
</g>
<!-- Node25 -->
<g id="node25" class="node"><title>Node25</title>
<g id="a_node25"><a xlink:href="classGenericMultiLineNotesDlg.xhtml" target="_top" xlink:title="GenericMultiLineNotesDlg">
<polygon fill="white" stroke="black" points="323.5,-456.5 323.5,-475.5 451.5,-475.5 451.5,-456.5 323.5,-456.5"/>
<text text-anchor="middle" x="387.5" y="-463.5" font-family="FreeSans" font-size="10.00">GenericMultiLineNotesDlg</text>
</a>
</g>
</g>
<!-- Node4&#45;&gt;Node25 -->
<g id="edge24" class="edge"><title>Node4&#45;&gt;Node25</title>
<path fill="none" stroke="midnightblue" d="M270.544,-585.42C273.584,-583.55 276.439,-581.421 279,-579 311.508,-548.265 281.735,-514.913 315,-485 319.298,-481.135 324.294,-478.042 329.61,-475.569"/>
<polygon fill="midnightblue" stroke="midnightblue" points="268.863,-582.349 261.575,-590.039 272.068,-588.572 268.863,-582.349"/>
</g>
<!-- Node26 -->
<g id="node26" class="node"><title>Node26</title>
<g id="a_node26"><a xlink:href="classIncrementalSelectListDlg.xhtml" target="_top" xlink:title="IncrementalSelectListDlg">
<polygon fill="white" stroke="black" points="325,-418.5 325,-437.5 450,-437.5 450,-418.5 325,-418.5"/>
<text text-anchor="middle" x="387.5" y="-425.5" font-family="FreeSans" font-size="10.00">IncrementalSelectListDlg</text>
</a>
</g>
</g>
<!-- Node4&#45;&gt;Node26 -->
<g id="edge25" class="edge"><title>Node4&#45;&gt;Node26</title>
<path fill="none" stroke="midnightblue" d="M270.682,-585.806C273.709,-583.842 276.522,-581.588 279,-579 321.054,-535.077 271.861,-489.858 315,-447 318.827,-443.198 323.323,-440.132 328.165,-437.663"/>
<polygon fill="midnightblue" stroke="midnightblue" points="268.858,-582.811 261.679,-590.603 272.151,-588.989 268.858,-582.811"/>
</g>
<!-- Node27 -->
<g id="node27" class="node"><title>Node27</title>
<g id="a_node27"><a xlink:href="classInsertClassMethodDlg.xhtml" target="_top" xlink:title="InsertClassMethodDlg">
<polygon fill="white" stroke="black" points="332.5,-380.5 332.5,-399.5 442.5,-399.5 442.5,-380.5 332.5,-380.5"/>
<text text-anchor="middle" x="387.5" y="-387.5" font-family="FreeSans" font-size="10.00">InsertClassMethodDlg</text>
</a>
</g>
</g>
<!-- Node4&#45;&gt;Node27 -->
<g id="edge26" class="edge"><title>Node4&#45;&gt;Node27</title>
<path fill="none" stroke="midnightblue" d="M270.432,-586.249C273.581,-584.183 276.484,-581.784 279,-579 330.784,-521.702 261.801,-464.987 315,-409 319.866,-403.879 325.941,-400.081 332.482,-397.275"/>
<polygon fill="midnightblue" stroke="midnightblue" points="268.774,-583.166 261.618,-590.98 272.085,-589.334 268.774,-583.166"/>
</g>
<!-- Node28 -->
<g id="node28" class="node"><title>Node28</title>
<g id="a_node28"><a xlink:href="classMultiSelectDlg.xhtml" target="_top" xlink:title="MultiSelectDlg">
<polygon fill="white" stroke="black" points="347.5,-342.5 347.5,-361.5 427.5,-361.5 427.5,-342.5 347.5,-342.5"/>
<text text-anchor="middle" x="387.5" y="-349.5" font-family="FreeSans" font-size="10.00">MultiSelectDlg</text>
</a>
</g>
</g>
<!-- Node4&#45;&gt;Node28 -->
<g id="edge27" class="edge"><title>Node4&#45;&gt;Node28</title>
<path fill="none" stroke="midnightblue" d="M270.826,-586.169C273.84,-584.12 276.609,-581.747 279,-579 340.597,-508.234 251.654,-440.205 315,-371 323.325,-361.905 335.461,-356.959 347.379,-354.33"/>
<polygon fill="midnightblue" stroke="midnightblue" points="268.87,-583.25 261.788,-591.13 272.239,-589.386 268.87,-583.25"/>
</g>
<!-- Node29 -->
<g id="node29" class="node"><title>Node29</title>
<g id="a_node29"><a xlink:href="classNewFromTemplateDlg.xhtml" target="_top" xlink:title="NewFromTemplateDlg">
<polygon fill="white" stroke="black" points="331,-304.5 331,-323.5 444,-323.5 444,-304.5 331,-304.5"/>
<text text-anchor="middle" x="387.5" y="-311.5" font-family="FreeSans" font-size="10.00">NewFromTemplateDlg</text>
</a>
</g>
</g>
<!-- Node4&#45;&gt;Node29 -->
<g id="edge28" class="edge"><title>Node4&#45;&gt;Node29</title>
<path fill="none" stroke="midnightblue" d="M270.485,-586.529C273.645,-584.398 276.534,-581.908 279,-579 350.455,-494.715 241.462,-415.474 315,-333 319.359,-328.111 324.82,-324.416 330.769,-321.633"/>
<polygon fill="midnightblue" stroke="midnightblue" points="268.701,-583.515 261.593,-591.373 272.049,-589.663 268.701,-583.515"/>
</g>
<!-- Node30 -->
<g id="node30" class="node"><title>Node30</title>
<g id="a_node30"><a xlink:href="classPluginsConfigurationDlg.xhtml" target="_top" xlink:title="PluginsConfigurationDlg">
<polygon fill="white" stroke="black" points="328,-266.5 328,-285.5 447,-285.5 447,-266.5 328,-266.5"/>
<text text-anchor="middle" x="387.5" y="-273.5" font-family="FreeSans" font-size="10.00">PluginsConfigurationDlg</text>
</a>
</g>
</g>
<!-- Node4&#45;&gt;Node30 -->
<g id="edge29" class="edge"><title>Node4&#45;&gt;Node30</title>
<path fill="none" stroke="midnightblue" d="M270.549,-586.583C273.694,-584.439 276.562,-581.932 279,-579 360.34,-481.164 231.241,-390.773 315,-295 318.636,-290.843 323.067,-287.546 327.925,-284.938"/>
<polygon fill="midnightblue" stroke="midnightblue" points="268.766,-583.569 261.684,-591.448 272.134,-589.705 268.766,-583.569"/>
</g>
<!-- Node31 -->
<g id="node31" class="node"><title>Node31</title>
<g id="a_node31"><a xlink:href="classProjectFileOptionsDlg.xhtml" target="_top" xlink:title="ProjectFileOptionsDlg">
<polygon fill="white" stroke="black" points="332.5,-228.5 332.5,-247.5 442.5,-247.5 442.5,-228.5 332.5,-228.5"/>
<text text-anchor="middle" x="387.5" y="-235.5" font-family="FreeSans" font-size="10.00">ProjectFileOptionsDlg</text>
</a>
</g>
</g>
<!-- Node4&#45;&gt;Node31 -->
<g id="edge30" class="edge"><title>Node4&#45;&gt;Node31</title>
<path fill="none" stroke="midnightblue" d="M270.598,-586.623C273.732,-584.47 276.584,-581.95 279,-579 370.242,-467.592 221.003,-366.093 315,-257 319.695,-251.551 325.757,-247.577 332.364,-244.693"/>
<polygon fill="midnightblue" stroke="midnightblue" points="268.816,-583.609 261.753,-591.506 272.199,-589.737 268.816,-583.609"/>
</g>
<!-- Node32 -->
<g id="node32" class="node"><title>Node32</title>
<g id="a_node32"><a xlink:href="classProjectsFileMasksDlg.xhtml" target="_top" xlink:title="ProjectsFileMasksDlg">
<polygon fill="white" stroke="black" points="332.5,-190.5 332.5,-209.5 442.5,-209.5 442.5,-190.5 332.5,-190.5"/>
<text text-anchor="middle" x="387.5" y="-197.5" font-family="FreeSans" font-size="10.00">ProjectsFileMasksDlg</text>
</a>
</g>
</g>
<!-- Node4&#45;&gt;Node32 -->
<g id="edge31" class="edge"><title>Node4&#45;&gt;Node32</title>
<path fill="none" stroke="midnightblue" d="M270.637,-586.655C273.762,-584.495 276.601,-581.964 279,-579 380.156,-454.006 210.753,-341.427 315,-219 319.663,-213.524 325.707,-209.534 332.306,-206.643"/>
<polygon fill="midnightblue" stroke="midnightblue" points="268.856,-583.64 261.809,-591.551 272.251,-589.762 268.856,-583.64"/>
</g>
<!-- Node33 -->
<g id="node33" class="node"><title>Node33</title>
<g id="a_node33"><a xlink:href="classScriptBindings_1_1XrcDialog.xhtml" target="_top" xlink:title="ScriptBindings::XrcDialog">
<polygon fill="white" stroke="black" points="325,-152.5 325,-171.5 450,-171.5 450,-152.5 325,-152.5"/>
<text text-anchor="middle" x="387.5" y="-159.5" font-family="FreeSans" font-size="10.00">ScriptBindings::XrcDialog</text>
</a>
</g>
</g>
<!-- Node4&#45;&gt;Node33 -->
<g id="edge32" class="edge"><title>Node4&#45;&gt;Node33</title>
<path fill="none" stroke="midnightblue" d="M270.52,-586.784C273.696,-584.595 276.577,-582.023 279,-579 334.539,-509.705 257.747,-248.886 315,-181 318.229,-177.171 322.134,-174.067 326.434,-171.557"/>
<polygon fill="midnightblue" stroke="midnightblue" points="268.613,-583.838 261.539,-591.726 271.988,-589.971 268.613,-583.838"/>
</g>
<!-- Node34 -->
<g id="node34" class="node"><title>Node34</title>
<g id="a_node34"><a xlink:href="classScriptSecurityWarningDlg.xhtml" target="_top" xlink:title="ScriptSecurityWarningDlg">
<polygon fill="white" stroke="black" points="324,-114.5 324,-133.5 451,-133.5 451,-114.5 324,-114.5"/>
<text text-anchor="middle" x="387.5" y="-121.5" font-family="FreeSans" font-size="10.00">ScriptSecurityWarningDlg</text>
</a>
</g>
</g>
<!-- Node4&#45;&gt;Node34 -->
<g id="edge33" class="edge"><title>Node4&#45;&gt;Node34</title>
<path fill="none" stroke="midnightblue" d="M270.547,-586.805C273.717,-584.611 276.589,-582.032 279,-579 339.504,-502.903 252.614,-217.562 315,-143 318.214,-139.158 322.109,-136.046 326.402,-133.53"/>
<polygon fill="midnightblue" stroke="midnightblue" points="268.641,-583.859 261.577,-591.756 272.023,-589.988 268.641,-583.859"/>
</g>
<!-- Node35 -->
<g id="node35" class="node"><title>Node35</title>
<g id="a_node35"><a xlink:href="classSelectIncludeFile.xhtml" target="_top" xlink:title="SelectIncludeFile">
<polygon fill="white" stroke="black" points="341.5,-76.5 341.5,-95.5 433.5,-95.5 433.5,-76.5 341.5,-76.5"/>
<text text-anchor="middle" x="387.5" y="-83.5" font-family="FreeSans" font-size="10.00">SelectIncludeFile</text>
</a>
</g>
</g>
<!-- Node4&#45;&gt;Node35 -->
<g id="edge34" class="edge"><title>Node4&#45;&gt;Node35</title>
<path fill="none" stroke="midnightblue" d="M270.569,-586.823C273.734,-584.625 276.599,-582.04 279,-579 344.47,-496.098 247.479,-186.24 315,-105 321.65,-96.999 331.25,-92.159 341.267,-89.2807"/>
<polygon fill="midnightblue" stroke="midnightblue" points="268.664,-583.877 261.609,-591.781 272.053,-590.002 268.664,-583.877"/>
</g>
<!-- Node36 -->
<g id="node36" class="node"><title>Node36</title>
<g id="a_node36"><a xlink:href="classSelectTargetDlg.xhtml" target="_top" xlink:title="SelectTargetDlg">
<polygon fill="white" stroke="black" points="344.5,-38.5 344.5,-57.5 430.5,-57.5 430.5,-38.5 344.5,-38.5"/>
<text text-anchor="middle" x="387.5" y="-45.5" font-family="FreeSans" font-size="10.00">SelectTargetDlg</text>
</a>
</g>
</g>
<!-- Node4&#45;&gt;Node36 -->
<g id="edge35" class="edge"><title>Node4&#45;&gt;Node36</title>
<path fill="none" stroke="midnightblue" d="M270.589,-586.838C273.749,-584.637 276.608,-582.047 279,-579 349.439,-489.291 242.342,-154.921 315,-67 322.282,-58.1884 333.142,-53.2071 344.213,-50.458"/>
<polygon fill="midnightblue" stroke="midnightblue" points="268.684,-583.892 261.636,-591.802 272.079,-590.014 268.684,-583.892"/>
</g>
<!-- Node37 -->
<g id="node37" class="node"><title>Node37</title>
<g id="a_node37"><a xlink:href="classUsrGlblMgrEditDialog.xhtml" target="_top" xlink:title="UsrGlblMgrEditDialog">
<polygon fill="white" stroke="black" points="333.5,-0.5 333.5,-19.5 441.5,-19.5 441.5,-0.5 333.5,-0.5"/>
<text text-anchor="middle" x="387.5" y="-7.5" font-family="FreeSans" font-size="10.00">UsrGlblMgrEditDialog</text>
</a>
</g>
</g>
<!-- Node4&#45;&gt;Node37 -->
<g id="edge36" class="edge"><title>Node4&#45;&gt;Node37</title>
<path fill="none" stroke="midnightblue" d="M270.605,-586.851C273.761,-584.647 276.615,-582.052 279,-579 354.409,-482.482 237.203,-123.604 315,-29 319.813,-23.1469 326.206,-18.9825 333.194,-16.0394"/>
<polygon fill="midnightblue" stroke="midnightblue" points="268.701,-583.905 261.659,-591.821 272.101,-590.024 268.701,-583.905"/>
</g>
<!-- Node24 -->
<g id="node24" class="node"><title>Node24</title>
<g id="a_node24"><a xlink:href="classFindReplaceDlg.xhtml" target="_top" xlink:title="FindReplaceDlg">
<polygon fill="white" stroke="black" points="496,-494.5 496,-513.5 581,-513.5 581,-494.5 496,-494.5"/>
<text text-anchor="middle" x="538.5" y="-501.5" font-family="FreeSans" font-size="10.00">FindReplaceDlg</text>
</a>
</g>
</g>
<!-- Node23&#45;&gt;Node24 -->
<g id="edge23" class="edge"><title>Node23&#45;&gt;Node24</title>
<path fill="none" stroke="midnightblue" d="M444.068,-504C461.219,-504 479.805,-504 495.849,-504"/>
<polygon fill="midnightblue" stroke="midnightblue" points="443.609,-500.5 433.609,-504 443.609,-507.5 443.609,-500.5"/>
</g>
<!-- Node38 -->
<g id="node38" class="node"><title>Node38</title>
<g id="a_node38"><a xlink:href="classwxDialogHelper.xhtml" target="_top" xlink:title="wxDialogHelper">
<polygon fill="white" stroke="black" points="16.5,-586.5 16.5,-605.5 99.5,-605.5 99.5,-586.5 16.5,-586.5"/>
<text text-anchor="middle" x="58" y="-593.5" font-family="FreeSans" font-size="10.00">wxDialogHelper</text>
</a>
</g>
</g>
<!-- Node38&#45;&gt;Node4 -->
<g id="edge37" class="edge"><title>Node38&#45;&gt;Node4</title>
<path fill="none" stroke="midnightblue" d="M109.906,-596.982C129.051,-597.351 150.671,-597.769 169.265,-598.127"/>
<polygon fill="midnightblue" stroke="midnightblue" points="109.921,-593.482 99.8558,-596.788 109.786,-600.481 109.921,-593.482"/>
</g>
<!-- Node39 -->
<g id="node39" class="node"><title>Node39</title>
<g id="a_node39"><a xlink:href="classwxScrollingPropertySheetDialog.xhtml" target="_top" xlink:title="wxScrollingPropertySheet\lDialog">
<polygon fill="white" stroke="black" points="152,-540 152,-570 279,-570 279,-540 152,-540"/>
<text text-anchor="start" x="160" y="-558" font-family="FreeSans" font-size="10.00">wxScrollingPropertySheet</text>
<text text-anchor="middle" x="215.5" y="-547" font-family="FreeSans" font-size="10.00">Dialog</text>
</a>
</g>
</g>
<!-- Node38&#45;&gt;Node39 -->
<g id="edge38" class="edge"><title>Node38&#45;&gt;Node39</title>
<path fill="none" stroke="midnightblue" d="M104.958,-583.883C121.372,-579.555 140.071,-574.624 157.315,-570.078"/>
<polygon fill="midnightblue" stroke="midnightblue" points="103.843,-580.557 95.0657,-586.491 105.628,-587.325 103.843,-580.557"/>
</g>
<!-- Node40 -->
<g id="node40" class="node"><title>Node40</title>
<polygon fill="white" stroke="#bfbfbf" points="0,-545.5 0,-564.5 116,-564.5 116,-545.5 0,-545.5"/>
<text text-anchor="middle" x="58" y="-552.5" font-family="FreeSans" font-size="10.00">wxPropertySheetDialog</text>
</g>
<!-- Node40&#45;&gt;Node39 -->
<g id="edge39" class="edge"><title>Node40&#45;&gt;Node39</title>
<path fill="none" stroke="midnightblue" d="M126.027,-555C134.644,-555 143.441,-555 151.982,-555"/>
<polygon fill="midnightblue" stroke="midnightblue" points="126.02,-551.5 116.019,-555 126.019,-558.5 126.02,-551.5"/>
</g>
</g>
</svg>
