<?xml version="1.0" encoding="UTF-8" standalone="no"?>
<!DOCTYPE svg PUBLIC "-//W3C//DTD SVG 1.1//EN"
 "http://www.w3.org/Graphics/SVG/1.1/DTD/svg11.dtd">
<!-- Generated by graphviz version 2.38.0 (20140413.2041)
 -->
<!-- Title: Graphical Class Hierarchy Pages: 1 -->
<svg width="667pt" height="598pt"
 viewBox="0.00 0.00 667.00 598.00" xmlns="http://www.w3.org/2000/svg" xmlns:xlink="http://www.w3.org/1999/xlink">
<g id="graph0" class="graph" transform="scale(1 1) rotate(0) translate(4 594)">
<title>Graphical Class Hierarchy</title>
<polygon fill="white" stroke="none" points="-4,4 -4,-594 663,-594 663,4 -4,4"/>
<!-- Node1 -->
<g id="node1" class="node"><title>Node1</title>
<g id="a_node1"><a xlink:href="classLogger.xhtml" target="_top" xlink:title="Logger">
<polygon fill="white" stroke="black" points="0,-95.5 0,-114.5 46,-114.5 46,-95.5 0,-95.5"/>
<text text-anchor="middle" x="23" y="-102.5" font-family="FreeSans" font-size="10.00">Logger</text>
</a>
</g>
</g>
<!-- Node2 -->
<g id="node2" class="node"><title>Node2</title>
<g id="a_node2"><a xlink:href="classFileLogger.xhtml" target="_top" xlink:title="FileLogger">
<polygon fill="white" stroke="black" points="115,-57.5 115,-76.5 177,-76.5 177,-57.5 115,-57.5"/>
<text text-anchor="middle" x="146" y="-64.5" font-family="FreeSans" font-size="10.00">FileLogger</text>
</a>
</g>
</g>
<!-- Node1&#45;&gt;Node2 -->
<g id="edge1" class="edge"><title>Node1&#45;&gt;Node2</title>
<path fill="none" stroke="midnightblue" d="M55.8375,-94.4204C64.3258,-91.6409 73.5,-88.6736 82,-86 92.6798,-82.6408 104.415,-79.0691 114.833,-75.9399"/>
<polygon fill="midnightblue" stroke="midnightblue" points="54.6748,-91.1183 46.2696,-97.5683 56.8625,-97.7677 54.6748,-91.1183"/>
</g>
<!-- Node4 -->
<g id="node4" class="node"><title>Node4</title>
<g id="a_node4"><a xlink:href="classListCtrlLogger.xhtml" target="_top" xlink:title="ListCtrlLogger">
<polygon fill="white" stroke="black" points="108,-532.5 108,-551.5 184,-551.5 184,-532.5 108,-532.5"/>
<text text-anchor="middle" x="146" y="-539.5" font-family="FreeSans" font-size="10.00">ListCtrlLogger</text>
</a>
</g>
</g>
<!-- Node1&#45;&gt;Node4 -->
<g id="edge3" class="edge"><title>Node1&#45;&gt;Node4</title>
<path fill="none" stroke="midnightblue" d="M24.0168,-125.062C24.4854,-199.97 29.8847,-462.107 82,-523 88.6111,-530.725 98.2399,-535.375 107.989,-538.154"/>
<polygon fill="midnightblue" stroke="midnightblue" points="27.5155,-124.693 23.9775,-114.706 20.5156,-124.72 27.5155,-124.693"/>
</g>
<!-- Node7 -->
<g id="node7" class="node"><title>Node7</title>
<g id="a_node7"><a xlink:href="classNullLogger.xhtml" target="_top" xlink:title="NullLogger">
<polygon fill="white" stroke="black" points="115,-19.5 115,-38.5 177,-38.5 177,-19.5 115,-19.5"/>
<text text-anchor="middle" x="146" y="-26.5" font-family="FreeSans" font-size="10.00">NullLogger</text>
</a>
</g>
</g>
<!-- Node1&#45;&gt;Node7 -->
<g id="edge6" class="edge"><title>Node1&#45;&gt;Node7</title>
<path fill="none" stroke="midnightblue" d="M37.7727,-87.5014C48.5681,-74.8695 64.6301,-58.2898 82,-48 92.0255,-42.061 104.063,-37.8383 114.918,-34.9071"/>
<polygon fill="midnightblue" stroke="midnightblue" points="34.8479,-85.547 31.189,-95.49 40.2498,-89.999 34.8479,-85.547"/>
</g>
<!-- Node8 -->
<g id="node8" class="node"><title>Node8</title>
<g id="a_node8"><a xlink:href="classStdoutLogger.xhtml" target="_top" xlink:title="StdoutLogger">
<polygon fill="white" stroke="black" points="109,-570.5 109,-589.5 183,-589.5 183,-570.5 109,-570.5"/>
<text text-anchor="middle" x="146" y="-577.5" font-family="FreeSans" font-size="10.00">StdoutLogger</text>
</a>
</g>
</g>
<!-- Node1&#45;&gt;Node8 -->
<g id="edge7" class="edge"><title>Node1&#45;&gt;Node8</title>
<path fill="none" stroke="midnightblue" d="M23.7593,-124.84C23.2068,-203.681 25.1328,-493.785 82,-561 88.7885,-569.024 98.8342,-573.734 108.919,-576.477"/>
<polygon fill="midnightblue" stroke="midnightblue" points="27.2595,-124.825 23.8526,-114.793 20.2598,-124.76 27.2595,-124.825"/>
</g>
<!-- Node9 -->
<g id="node9" class="node"><title>Node9</title>
<g id="a_node9"><a xlink:href="classTextCtrlLogger.xhtml" target="_top" xlink:title="TextCtrlLogger">
<polygon fill="white" stroke="black" points="106,-95.5 106,-114.5 186,-114.5 186,-95.5 106,-95.5"/>
<text text-anchor="middle" x="146" y="-102.5" font-family="FreeSans" font-size="10.00">TextCtrlLogger</text>
</a>
</g>
</g>
<!-- Node1&#45;&gt;Node9 -->
<g id="edge8" class="edge"><title>Node1&#45;&gt;Node9</title>
<path fill="none" stroke="midnightblue" d="M56.6249,-105C71.7784,-105 89.9179,-105 105.809,-105"/>
<polygon fill="midnightblue" stroke="midnightblue" points="56.1933,-101.5 46.1933,-105 56.1932,-108.5 56.1933,-101.5"/>
</g>
<!-- Node3 -->
<g id="node3" class="node"><title>Node3</title>
<g id="a_node3"><a xlink:href="classHTMLFileLogger.xhtml" target="_top" xlink:title="HTMLFileLogger">
<polygon fill="white" stroke="black" points="266,-0.5 266,-19.5 354,-19.5 354,-0.5 266,-0.5"/>
<text text-anchor="middle" x="310" y="-7.5" font-family="FreeSans" font-size="10.00">HTMLFileLogger</text>
</a>
</g>
</g>
<!-- Node2&#45;&gt;Node3 -->
<g id="edge2" class="edge"><title>Node2&#45;&gt;Node3</title>
<path fill="none" stroke="midnightblue" d="M186.859,-56.25C194.628,-53.7995 202.643,-51.018 210,-48 226.738,-41.134 229.262,-35.866 246,-29 254.561,-25.4882 264.012,-22.2966 272.932,-19.5741"/>
<polygon fill="midnightblue" stroke="midnightblue" points="185.772,-52.922 177.215,-59.1698 187.8,-59.6217 185.772,-52.922"/>
</g>
<!-- Node5 -->
<g id="node5" class="node"><title>Node5</title>
<g id="a_node5"><a xlink:href="classcbSearchResultsLog.xhtml" target="_top" xlink:title="cbSearchResultsLog">
<polygon fill="white" stroke="black" points="257.5,-570.5 257.5,-589.5 362.5,-589.5 362.5,-570.5 257.5,-570.5"/>
<text text-anchor="middle" x="310" y="-577.5" font-family="FreeSans" font-size="10.00">cbSearchResultsLog</text>
</a>
</g>
</g>
<!-- Node4&#45;&gt;Node5 -->
<g id="edge4" class="edge"><title>Node4&#45;&gt;Node5</title>
<path fill="none" stroke="midnightblue" d="M193.937,-553.01C217.475,-558.531 245.707,-565.153 268.314,-570.456"/>
<polygon fill="midnightblue" stroke="midnightblue" points="194.701,-549.594 184.166,-550.718 193.103,-556.409 194.701,-549.594"/>
</g>
<!-- Node6 -->
<g id="node6" class="node"><title>Node6</title>
<g id="a_node6"><a xlink:href="classCompilerMessages.xhtml" target="_top" xlink:title="CompilerMessages">
<polygon fill="white" stroke="black" points="261,-532.5 261,-551.5 359,-551.5 359,-532.5 261,-532.5"/>
<text text-anchor="middle" x="310" y="-539.5" font-family="FreeSans" font-size="10.00">CompilerMessages</text>
</a>
</g>
</g>
<!-- Node4&#45;&gt;Node6 -->
<g id="edge5" class="edge"><title>Node4&#45;&gt;Node6</title>
<path fill="none" stroke="midnightblue" d="M194.43,-542C215.362,-542 239.928,-542 260.933,-542"/>
<polygon fill="midnightblue" stroke="midnightblue" points="194.166,-538.5 184.166,-542 194.166,-545.5 194.166,-538.5"/>
</g>
<!-- Node10 -->
<g id="node10" class="node"><title>Node10</title>
<g id="a_node10"><a xlink:href="classBuildLogger.xhtml" target="_top" xlink:title="BuildLogger">
<polygon fill="white" stroke="black" points="276,-114.5 276,-133.5 344,-133.5 344,-114.5 276,-114.5"/>
<text text-anchor="middle" x="310" y="-121.5" font-family="FreeSans" font-size="10.00">BuildLogger</text>
</a>
</g>
</g>
<!-- Node9&#45;&gt;Node10 -->
<g id="edge9" class="edge"><title>Node9&#45;&gt;Node10</title>
<path fill="none" stroke="midnightblue" d="M196.194,-110.77C222.007,-113.797 252.943,-117.425 275.884,-120.116"/>
<polygon fill="midnightblue" stroke="midnightblue" points="196.555,-107.288 186.216,-109.599 195.74,-114.24 196.555,-107.288"/>
</g>
<!-- Node11 -->
<g id="node11" class="node"><title>Node11</title>
<g id="a_node11"><a xlink:href="classDebugTextCtrlLogger.xhtml" target="_top" xlink:title="DebugTextCtrlLogger">
<polygon fill="white" stroke="black" points="256.5,-76.5 256.5,-95.5 363.5,-95.5 363.5,-76.5 256.5,-76.5"/>
<text text-anchor="middle" x="310" y="-83.5" font-family="FreeSans" font-size="10.00">DebugTextCtrlLogger</text>
</a>
</g>
</g>
<!-- Node9&#45;&gt;Node11 -->
<g id="edge10" class="edge"><title>Node9&#45;&gt;Node11</title>
<path fill="none" stroke="midnightblue" d="M196.176,-99.2324C215.207,-97.0004 237.025,-94.4415 256.372,-92.1724"/>
<polygon fill="midnightblue" stroke="midnightblue" points="195.74,-95.7595 186.216,-100.401 196.555,-102.712 195.74,-95.7595"/>
</g>
<!-- Node12 -->
<g id="node12" class="node"><title>Node12</title>
<g id="a_node12"><a xlink:href="classTimestampTextCtrlLogger.xhtml" target="_top" xlink:title="TimestampTextCtrlLogger">
<polygon fill="white" stroke="black" points="246,-38.5 246,-57.5 374,-57.5 374,-38.5 246,-38.5"/>
<text text-anchor="middle" x="310" y="-45.5" font-family="FreeSans" font-size="10.00">TimestampTextCtrlLogger</text>
</a>
</g>
</g>
<!-- Node9&#45;&gt;Node12 -->
<g id="edge11" class="edge"><title>Node9&#45;&gt;Node12</title>
<path fill="none" stroke="midnightblue" d="M192.825,-92.3159C198.666,-90.3681 204.515,-88.2497 210,-86 226.738,-79.134 229.262,-73.866 246,-67 254.561,-63.4882 264.012,-60.2966 272.932,-57.5741"/>
<polygon fill="midnightblue" stroke="midnightblue" points="191.533,-89.0542 183.068,-95.4259 193.659,-95.7235 191.533,-89.0542"/>
</g>
<!-- Node13 -->
<g id="node13" class="node"><title>Node13</title>
<g id="a_node13"><a xlink:href="classMgr.xhtml" target="_top" xlink:title="Mgr\&lt; CCManager \&gt;">
<polygon fill="white" stroke="black" points="95.5,-494.5 95.5,-513.5 196.5,-513.5 196.5,-494.5 95.5,-494.5"/>
<text text-anchor="middle" x="146" y="-501.5" font-family="FreeSans" font-size="10.00">Mgr&lt; CCManager &gt;</text>
</a>
</g>
</g>
<!-- Node14 -->
<g id="node14" class="node"><title>Node14</title>
<g id="a_node14"><a xlink:href="classCCManager.xhtml" target="_top" xlink:title="CCManager">
<polygon fill="white" stroke="black" points="276,-494.5 276,-513.5 344,-513.5 344,-494.5 276,-494.5"/>
<text text-anchor="middle" x="310" y="-501.5" font-family="FreeSans" font-size="10.00">CCManager</text>
</a>
</g>
</g>
<!-- Node13&#45;&gt;Node14 -->
<g id="edge12" class="edge"><title>Node13&#45;&gt;Node14</title>
<path fill="none" stroke="midnightblue" d="M207.067,-504C230.335,-504 256.078,-504 275.872,-504"/>
<polygon fill="midnightblue" stroke="midnightblue" points="206.927,-500.5 196.927,-504 206.927,-507.5 206.927,-500.5"/>
</g>
<!-- Node15 -->
<g id="node15" class="node"><title>Node15</title>
<g id="a_node15"><a xlink:href="classMgr.xhtml" target="_top" xlink:title="Mgr\&lt; EditorManager \&gt;">
<polygon fill="white" stroke="black" points="90,-456.5 90,-475.5 202,-475.5 202,-456.5 90,-456.5"/>
<text text-anchor="middle" x="146" y="-463.5" font-family="FreeSans" font-size="10.00">Mgr&lt; EditorManager &gt;</text>
</a>
</g>
</g>
<!-- Node16 -->
<g id="node16" class="node"><title>Node16</title>
<g id="a_node16"><a xlink:href="classEditorManager.xhtml" target="_top" xlink:title="EditorManager">
<polygon fill="white" stroke="black" points="270.5,-456.5 270.5,-475.5 349.5,-475.5 349.5,-456.5 270.5,-456.5"/>
<text text-anchor="middle" x="310" y="-463.5" font-family="FreeSans" font-size="10.00">EditorManager</text>
</a>
</g>
</g>
<!-- Node15&#45;&gt;Node16 -->
<g id="edge13" class="edge"><title>Node15&#45;&gt;Node16</title>
<path fill="none" stroke="midnightblue" d="M212.425,-466C232.06,-466 252.964,-466 270.284,-466"/>
<polygon fill="midnightblue" stroke="midnightblue" points="212.298,-462.5 202.298,-466 212.298,-469.5 212.298,-462.5"/>
</g>
<!-- Node17 -->
<g id="node17" class="node"><title>Node17</title>
<g id="a_node17"><a xlink:href="classMgr.xhtml" target="_top" xlink:title="Mgr\&lt; PluginManager \&gt;">
<polygon fill="white" stroke="black" points="89,-418.5 89,-437.5 203,-437.5 203,-418.5 89,-418.5"/>
<text text-anchor="middle" x="146" y="-425.5" font-family="FreeSans" font-size="10.00">Mgr&lt; PluginManager &gt;</text>
</a>
</g>
</g>
<!-- Node18 -->
<g id="node18" class="node"><title>Node18</title>
<g id="a_node18"><a xlink:href="classPluginManager.xhtml" target="_top" xlink:title="PluginManager">
<polygon fill="white" stroke="black" points="269.5,-418.5 269.5,-437.5 350.5,-437.5 350.5,-418.5 269.5,-418.5"/>
<text text-anchor="middle" x="310" y="-425.5" font-family="FreeSans" font-size="10.00">PluginManager</text>
</a>
</g>
</g>
<!-- Node17&#45;&gt;Node18 -->
<g id="edge14" class="edge"><title>Node17&#45;&gt;Node18</title>
<path fill="none" stroke="midnightblue" d="M213.347,-428C232.406,-428 252.584,-428 269.47,-428"/>
<polygon fill="midnightblue" stroke="midnightblue" points="213.205,-424.5 203.205,-428 213.205,-431.5 213.205,-424.5"/>
</g>
<!-- Node19 -->
<g id="node19" class="node"><title>Node19</title>
<g id="a_node19"><a xlink:href="classMgr.xhtml" target="_top" xlink:title="Mgr\&lt; ProjectManager \&gt;">
<polygon fill="white" stroke="black" points="87,-380.5 87,-399.5 205,-399.5 205,-380.5 87,-380.5"/>
<text text-anchor="middle" x="146" y="-387.5" font-family="FreeSans" font-size="10.00">Mgr&lt; ProjectManager &gt;</text>
</a>
</g>
</g>
<!-- Node20 -->
<g id="node20" class="node"><title>Node20</title>
<g id="a_node20"><a xlink:href="classProjectManager.xhtml" target="_top" xlink:title="The entry point singleton for working with projects. ">
<polygon fill="white" stroke="black" points="267.5,-380.5 267.5,-399.5 352.5,-399.5 352.5,-380.5 267.5,-380.5"/>
<text text-anchor="middle" x="310" y="-387.5" font-family="FreeSans" font-size="10.00">ProjectManager</text>
</a>
</g>
</g>
<!-- Node19&#45;&gt;Node20 -->
<g id="edge15" class="edge"><title>Node19&#45;&gt;Node20</title>
<path fill="none" stroke="midnightblue" d="M215.32,-390C233.007,-390 251.521,-390 267.376,-390"/>
<polygon fill="midnightblue" stroke="midnightblue" points="215.028,-386.5 205.028,-390 215.028,-393.5 215.028,-386.5"/>
</g>
<!-- Node21 -->
<g id="node21" class="node"><title>Node21</title>
<g id="a_node21"><a xlink:href="classMgr.xhtml" target="_top" xlink:title="Mgr\&lt; ScriptingManager \&gt;">
<polygon fill="white" stroke="black" points="83.5,-266.5 83.5,-285.5 208.5,-285.5 208.5,-266.5 83.5,-266.5"/>
<text text-anchor="middle" x="146" y="-273.5" font-family="FreeSans" font-size="10.00">Mgr&lt; ScriptingManager &gt;</text>
</a>
</g>
</g>
<!-- Node22 -->
<g id="node22" class="node"><title>Node22</title>
<g id="a_node22"><a xlink:href="classScriptingManager.xhtml" target="_top" xlink:title="Provides scripting in Code::Blocks. ">
<polygon fill="white" stroke="black" points="264,-266.5 264,-285.5 356,-285.5 356,-266.5 264,-266.5"/>
<text text-anchor="middle" x="310" y="-273.5" font-family="FreeSans" font-size="10.00">ScriptingManager</text>
</a>
</g>
</g>
<!-- Node21&#45;&gt;Node22 -->
<g id="edge16" class="edge"><title>Node21&#45;&gt;Node22</title>
<path fill="none" stroke="midnightblue" d="M219.088,-276C234.216,-276 249.765,-276 263.588,-276"/>
<polygon fill="midnightblue" stroke="midnightblue" points="218.707,-272.5 208.707,-276 218.707,-279.5 218.707,-272.5"/>
</g>
<!-- Node23 -->
<g id="node23" class="node"><title>Node23</title>
<g id="a_node23"><a xlink:href="classMgr.xhtml" target="_top" xlink:title="Mgr\&lt; TemplateManager \&gt;">
<polygon fill="white" stroke="black" points="82,-228.5 82,-247.5 210,-247.5 210,-228.5 82,-228.5"/>
<text text-anchor="middle" x="146" y="-235.5" font-family="FreeSans" font-size="10.00">Mgr&lt; TemplateManager &gt;</text>
</a>
</g>
</g>
<!-- Node24 -->
<g id="node24" class="node"><title>Node24</title>
<g id="a_node24"><a xlink:href="classTemplateManager.xhtml" target="_top" xlink:title="TemplateManager">
<polygon fill="white" stroke="black" points="262.5,-228.5 262.5,-247.5 357.5,-247.5 357.5,-228.5 262.5,-228.5"/>
<text text-anchor="middle" x="310" y="-235.5" font-family="FreeSans" font-size="10.00">TemplateManager</text>
</a>
</g>
</g>
<!-- Node23&#45;&gt;Node24 -->
<g id="edge17" class="edge"><title>Node23&#45;&gt;Node24</title>
<path fill="none" stroke="midnightblue" d="M220.408,-238C234.679,-238 249.268,-238 262.381,-238"/>
<polygon fill="midnightblue" stroke="midnightblue" points="220.097,-234.5 210.097,-238 220.097,-241.5 220.097,-234.5"/>
</g>
<!-- Node25 -->
<g id="node25" class="node"><title>Node25</title>
<g id="a_node25"><a xlink:href="classMgr.xhtml" target="_top" xlink:title="Mgr\&lt; ToolsManager \&gt;">
<polygon fill="white" stroke="black" points="91,-190.5 91,-209.5 201,-209.5 201,-190.5 91,-190.5"/>
<text text-anchor="middle" x="146" y="-197.5" font-family="FreeSans" font-size="10.00">Mgr&lt; ToolsManager &gt;</text>
</a>
</g>
</g>
<!-- Node26 -->
<g id="node26" class="node"><title>Node26</title>
<g id="a_node26"><a xlink:href="classToolsManager.xhtml" target="_top" xlink:title="ToolsManager">
<polygon fill="white" stroke="black" points="271.5,-190.5 271.5,-209.5 348.5,-209.5 348.5,-190.5 271.5,-190.5"/>
<text text-anchor="middle" x="310" y="-197.5" font-family="FreeSans" font-size="10.00">ToolsManager</text>
</a>
</g>
</g>
<!-- Node25&#45;&gt;Node26 -->
<g id="edge18" class="edge"><title>Node25&#45;&gt;Node26</title>
<path fill="none" stroke="midnightblue" d="M211.534,-200C231.833,-200 253.573,-200 271.358,-200"/>
<polygon fill="midnightblue" stroke="midnightblue" points="211.394,-196.5 201.394,-200 211.394,-203.5 211.394,-196.5"/>
</g>
<!-- Node27 -->
<g id="node27" class="node"><title>Node27</title>
<g id="a_node27"><a xlink:href="classNativeParserBase.xhtml" target="_top" xlink:title="NativeParserBase">
<polygon fill="white" stroke="black" points="99.5,-152.5 99.5,-171.5 192.5,-171.5 192.5,-152.5 99.5,-152.5"/>
<text text-anchor="middle" x="146" y="-159.5" font-family="FreeSans" font-size="10.00">NativeParserBase</text>
</a>
</g>
</g>
<!-- Node28 -->
<g id="node28" class="node"><title>Node28</title>
<g id="a_node28"><a xlink:href="classNativeParser.xhtml" target="_top" xlink:title="NativeParser class is just like a manager class to control Parser objects. ">
<polygon fill="white" stroke="black" points="274.5,-152.5 274.5,-171.5 345.5,-171.5 345.5,-152.5 274.5,-152.5"/>
<text text-anchor="middle" x="310" y="-159.5" font-family="FreeSans" font-size="10.00">NativeParser</text>
</a>
</g>
</g>
<!-- Node27&#45;&gt;Node28 -->
<g id="edge19" class="edge"><title>Node27&#45;&gt;Node28</title>
<path fill="none" stroke="#8b1a1a" d="M202.853,-162C226.585,-162 253.514,-162 274.31,-162"/>
<polygon fill="#8b1a1a" stroke="#8b1a1a" points="202.557,-158.5 192.557,-162 202.557,-165.5 202.557,-158.5"/>
</g>
<!-- Node29 -->
<g id="node29" class="node"><title>Node29</title>
<polygon fill="white" stroke="#bfbfbf" points="109,-342.5 109,-361.5 183,-361.5 183,-342.5 109,-342.5"/>
<text text-anchor="middle" x="146" y="-349.5" font-family="FreeSans" font-size="10.00">wxEvtHandler</text>
</g>
<!-- Node29&#45;&gt;Node5 -->
<g id="edge32" class="edge"><title>Node29&#45;&gt;Node5</title>
<path fill="none" stroke="midnightblue" d="M192.817,-359.24C199.295,-362.011 205.329,-365.807 210,-371 267.48,-434.898 188.52,-497.102 246,-561 249.438,-564.822 253.614,-567.887 258.162,-570.344"/>
<polygon fill="midnightblue" stroke="midnightblue" points="193.708,-355.845 183.113,-355.872 191.412,-362.458 193.708,-355.845"/>
</g>
<!-- Node29&#45;&gt;Node6 -->
<g id="edge34" class="edge"><title>Node29&#45;&gt;Node6</title>
<path fill="none" stroke="midnightblue" d="M192.829,-359.518C199.252,-362.256 205.265,-365.97 210,-371 257.587,-421.549 198.413,-472.451 246,-523 250.15,-527.409 255.282,-530.806 260.812,-533.422"/>
<polygon fill="midnightblue" stroke="midnightblue" points="193.82,-356.157 183.225,-356.163 191.512,-362.765 193.82,-356.157"/>
</g>
<!-- Node29&#45;&gt;Node14 -->
<g id="edge33" class="edge"><title>Node29&#45;&gt;Node14</title>
<path fill="none" stroke="#8b1a1a" d="M192.727,-359.918C199.111,-362.607 205.138,-366.201 210,-371 247.813,-408.326 208.187,-447.674 246,-485 253.968,-492.865 265.067,-497.493 275.734,-500.209"/>
<polygon fill="#8b1a1a" stroke="#8b1a1a" points="193.808,-356.588 183.213,-356.589 191.496,-363.195 193.808,-356.588"/>
</g>
<!-- Node29&#45;&gt;Node16 -->
<g id="edge35" class="edge"><title>Node29&#45;&gt;Node16</title>
<path fill="none" stroke="midnightblue" d="M193.044,-360.881C199.184,-363.443 205.056,-366.745 210,-371 238.328,-395.382 217.672,-422.618 246,-447 252.927,-452.962 261.677,-457.053 270.434,-459.861"/>
<polygon fill="midnightblue" stroke="midnightblue" points="193.863,-357.458 183.268,-357.432 191.534,-364.059 193.863,-357.458"/>
</g>
<!-- Node29&#45;&gt;Node18 -->
<g id="edge39" class="edge"><title>Node29&#45;&gt;Node18</title>
<path fill="none" stroke="midnightblue" d="M192.594,-362.63C198.667,-364.931 204.64,-367.694 210,-371 229.801,-383.213 226.199,-396.787 246,-409 253.098,-413.378 261.271,-416.804 269.328,-419.465"/>
<polygon fill="midnightblue" stroke="midnightblue" points="193.636,-359.288 183.041,-359.383 191.383,-365.915 193.636,-359.288"/>
</g>
<!-- Node29&#45;&gt;Node20 -->
<g id="edge40" class="edge"><title>Node29&#45;&gt;Node20</title>
<path fill="none" stroke="midnightblue" d="M193.201,-362.837C216.948,-368.408 245.623,-375.134 268.497,-380.499"/>
<polygon fill="midnightblue" stroke="midnightblue" points="193.891,-359.404 183.356,-360.528 192.292,-366.219 193.891,-359.404"/>
</g>
<!-- Node29&#45;&gt;Node22 -->
<g id="edge41" class="edge"><title>Node29&#45;&gt;Node22</title>
<path fill="none" stroke="midnightblue" d="M169.734,-336.894C189.312,-324.386 218.65,-306.811 246,-295 254.285,-291.422 263.457,-288.243 272.178,-285.557"/>
<polygon fill="midnightblue" stroke="midnightblue" points="167.704,-334.039 161.214,-342.413 171.51,-339.914 167.704,-334.039"/>
</g>
<!-- Node29&#45;&gt;Node24 -->
<g id="edge42" class="edge"><title>Node29&#45;&gt;Node24</title>
<path fill="none" stroke="midnightblue" d="M166.046,-335.453C178.728,-324.27 195.636,-309.038 210,-295 226.638,-278.739 226.199,-269.213 246,-257 252.223,-253.162 259.272,-250.055 266.345,-247.554"/>
<polygon fill="midnightblue" stroke="midnightblue" points="163.604,-332.94 158.392,-342.164 168.219,-338.203 163.604,-332.94"/>
</g>
<!-- Node29&#45;&gt;Node26 -->
<g id="edge43" class="edge"><title>Node29&#45;&gt;Node26</title>
<path fill="none" stroke="midnightblue" d="M168.587,-336.049C181.782,-325.494 198.312,-310.735 210,-295 232.287,-264.996 217.672,-243.382 246,-219 253.187,-212.815 262.336,-208.643 271.419,-205.829"/>
<polygon fill="midnightblue" stroke="midnightblue" points="166.231,-333.448 160.481,-342.347 170.525,-338.975 166.231,-333.448"/>
</g>
<!-- Node29&#45;&gt;Node28 -->
<g id="edge36" class="edge"><title>Node29&#45;&gt;Node28</title>
<path fill="none" stroke="midnightblue" d="M169.851,-336.192C183.249,-325.861 199.543,-311.292 210,-295 238.7,-250.285 208.187,-218.326 246,-181 253.642,-173.456 264.167,-168.89 274.426,-166.133"/>
<polygon fill="midnightblue" stroke="midnightblue" points="167.503,-333.575 161.556,-342.344 171.673,-339.198 167.503,-333.575"/>
</g>
<!-- Node30 -->
<g id="node30" class="node"><title>Node30</title>
<g id="a_node30"><a xlink:href="classcbPlugin.xhtml" target="_top" xlink:title="Base class for plugins This is the most basic class a plugin must descend from. cbPlugin descends fro...">
<polygon fill="white" stroke="black" points="283,-342.5 283,-361.5 337,-361.5 337,-342.5 283,-342.5"/>
<text text-anchor="middle" x="310" y="-349.5" font-family="FreeSans" font-size="10.00">cbPlugin</text>
</a>
</g>
</g>
<!-- Node29&#45;&gt;Node30 -->
<g id="edge20" class="edge"><title>Node29&#45;&gt;Node30</title>
<path fill="none" stroke="midnightblue" d="M193.671,-352C222.648,-352 258.818,-352 282.845,-352"/>
<polygon fill="midnightblue" stroke="midnightblue" points="193.356,-348.5 183.356,-352 193.356,-355.5 193.356,-348.5"/>
</g>
<!-- Node42 -->
<g id="node42" class="node"><title>Node42</title>
<g id="a_node42"><a xlink:href="classParserBase.xhtml" target="_top" xlink:title="ParserBase">
<polygon fill="white" stroke="black" points="277,-304.5 277,-323.5 343,-323.5 343,-304.5 277,-304.5"/>
<text text-anchor="middle" x="310" y="-311.5" font-family="FreeSans" font-size="10.00">ParserBase</text>
</a>
</g>
</g>
<!-- Node29&#45;&gt;Node42 -->
<g id="edge37" class="edge"><title>Node29&#45;&gt;Node42</title>
<path fill="none" stroke="midnightblue" d="M193.267,-341.147C220.007,-334.875 252.977,-327.141 276.878,-321.535"/>
<polygon fill="midnightblue" stroke="midnightblue" points="192.292,-337.781 183.356,-343.472 193.891,-344.596 192.292,-337.781"/>
</g>
<!-- Node31 -->
<g id="node31" class="node"><title>Node31</title>
<g id="a_node31"><a xlink:href="classcbCodeCompletionPlugin.xhtml" target="_top" xlink:title="Base class for code&#45;completion plugins. ">
<polygon fill="white" stroke="black" points="410,-361.5 410,-380.5 535,-380.5 535,-361.5 410,-361.5"/>
<text text-anchor="middle" x="472.5" y="-368.5" font-family="FreeSans" font-size="10.00">cbCodeCompletionPlugin</text>
</a>
</g>
</g>
<!-- Node30&#45;&gt;Node31 -->
<g id="edge21" class="edge"><title>Node30&#45;&gt;Node31</title>
<path fill="none" stroke="midnightblue" d="M347.203,-356.286C365.726,-358.479 388.787,-361.208 409.997,-363.719"/>
<polygon fill="midnightblue" stroke="midnightblue" points="347.486,-352.795 337.144,-355.095 346.663,-359.746 347.486,-352.795"/>
</g>
<!-- Node33 -->
<g id="node33" class="node"><title>Node33</title>
<g id="a_node33"><a xlink:href="classcbCompilerPlugin.xhtml" target="_top" xlink:title="Base class for compiler plugins. ">
<polygon fill="white" stroke="black" points="426.5,-323.5 426.5,-342.5 518.5,-342.5 518.5,-323.5 426.5,-323.5"/>
<text text-anchor="middle" x="472.5" y="-330.5" font-family="FreeSans" font-size="10.00">cbCompilerPlugin</text>
</a>
</g>
</g>
<!-- Node30&#45;&gt;Node33 -->
<g id="edge23" class="edge"><title>Node30&#45;&gt;Node33</title>
<path fill="none" stroke="midnightblue" d="M347.333,-347.699C370.709,-344.932 401.268,-341.314 426.22,-338.36"/>
<polygon fill="midnightblue" stroke="midnightblue" points="346.663,-344.254 337.144,-348.905 347.486,-351.205 346.663,-344.254"/>
</g>
<!-- Node35 -->
<g id="node35" class="node"><title>Node35</title>
<g id="a_node35"><a xlink:href="classcbDebuggerPlugin.xhtml" target="_top" xlink:title="Base class for debugger plugins. ">
<polygon fill="white" stroke="black" points="425,-285.5 425,-304.5 520,-304.5 520,-285.5 425,-285.5"/>
<text text-anchor="middle" x="472.5" y="-292.5" font-family="FreeSans" font-size="10.00">cbDebuggerPlugin</text>
</a>
</g>
</g>
<!-- Node30&#45;&gt;Node35 -->
<g id="edge25" class="edge"><title>Node30&#45;&gt;Node35</title>
<path fill="none" stroke="midnightblue" d="M346.944,-342.464C355.901,-339.733 365.399,-336.528 374,-333 390.738,-326.134 393.285,-320.922 410,-314 418.466,-310.494 427.819,-307.284 436.621,-304.541"/>
<polygon fill="midnightblue" stroke="midnightblue" points="345.751,-339.166 337.139,-345.337 347.72,-345.884 345.751,-339.166"/>
</g>
<!-- Node37 -->
<g id="node37" class="node"><title>Node37</title>
<g id="a_node37"><a xlink:href="classcbMimePlugin.xhtml" target="_top" xlink:title="Base class for mime plugins. ">
<polygon fill="white" stroke="black" points="433.5,-247.5 433.5,-266.5 511.5,-266.5 511.5,-247.5 433.5,-247.5"/>
<text text-anchor="middle" x="472.5" y="-254.5" font-family="FreeSans" font-size="10.00">cbMimePlugin</text>
</a>
</g>
</g>
<!-- Node30&#45;&gt;Node37 -->
<g id="edge27" class="edge"><title>Node30&#45;&gt;Node37</title>
<path fill="none" stroke="midnightblue" d="M346.828,-345.942C356.316,-343.122 366.104,-339.005 374,-333 397.849,-314.862 386.212,-294.218 410,-276 416.832,-270.768 425.117,-266.965 433.365,-264.204"/>
<polygon fill="midnightblue" stroke="midnightblue" points="345.953,-342.553 337.141,-348.435 347.698,-349.332 345.953,-342.553"/>
</g>
<!-- Node38 -->
<g id="node38" class="node"><title>Node38</title>
<g id="a_node38"><a xlink:href="classcbSmartIndentPlugin.xhtml" target="_top" xlink:title="cbSmartIndentPlugin">
<polygon fill="white" stroke="black" points="419,-475.5 419,-494.5 526,-494.5 526,-475.5 419,-475.5"/>
<text text-anchor="middle" x="472.5" y="-482.5" font-family="FreeSans" font-size="10.00">cbSmartIndentPlugin</text>
</a>
</g>
</g>
<!-- Node30&#45;&gt;Node38 -->
<g id="edge28" class="edge"><title>Node30&#45;&gt;Node38</title>
<path fill="none" stroke="midnightblue" d="M347.183,-356.917C356.837,-359.722 366.623,-364.117 374,-371 407.015,-401.802 377.089,-435.087 410,-466 414.154,-469.902 419.094,-473.003 424.341,-475.468"/>
<polygon fill="midnightblue" stroke="midnightblue" points="347.818,-353.47 337.276,-354.532 346.18,-360.276 347.818,-353.47"/>
</g>
<!-- Node39 -->
<g id="node39" class="node"><title>Node39</title>
<g id="a_node39"><a xlink:href="classcbToolPlugin.xhtml" target="_top" xlink:title="Base class for tool plugins. ">
<polygon fill="white" stroke="black" points="436,-437.5 436,-456.5 509,-456.5 509,-437.5 436,-437.5"/>
<text text-anchor="middle" x="472.5" y="-444.5" font-family="FreeSans" font-size="10.00">cbToolPlugin</text>
</a>
</g>
</g>
<!-- Node30&#45;&gt;Node39 -->
<g id="edge29" class="edge"><title>Node30&#45;&gt;Node39</title>
<path fill="none" stroke="midnightblue" d="M346.828,-358.058C356.316,-360.878 366.104,-364.995 374,-371 397.849,-389.138 386.212,-409.782 410,-428 417.541,-433.775 426.855,-437.81 435.932,-440.624"/>
<polygon fill="midnightblue" stroke="midnightblue" points="347.698,-354.668 337.141,-355.565 345.953,-361.447 347.698,-354.668"/>
</g>
<!-- Node40 -->
<g id="node40" class="node"><title>Node40</title>
<g id="a_node40"><a xlink:href="classcbWizardPlugin.xhtml" target="_top" xlink:title="Base class for wizard plugins. ">
<polygon fill="white" stroke="black" points="431,-399.5 431,-418.5 514,-418.5 514,-399.5 431,-399.5"/>
<text text-anchor="middle" x="472.5" y="-406.5" font-family="FreeSans" font-size="10.00">cbWizardPlugin</text>
</a>
</g>
</g>
<!-- Node30&#45;&gt;Node40 -->
<g id="edge30" class="edge"><title>Node30&#45;&gt;Node40</title>
<path fill="none" stroke="midnightblue" d="M346.944,-361.536C355.901,-364.267 365.399,-367.472 374,-371 390.738,-377.866 393.285,-383.078 410,-390 418.466,-393.506 427.819,-396.716 436.621,-399.459"/>
<polygon fill="midnightblue" stroke="midnightblue" points="347.72,-358.116 337.139,-358.663 345.751,-364.834 347.72,-358.116"/>
</g>
<!-- Node32 -->
<g id="node32" class="node"><title>Node32</title>
<g id="a_node32"><a xlink:href="classCodeCompletion.xhtml" target="_top" xlink:title="CodeCompletion">
<polygon fill="white" stroke="black" points="571,-361.5 571,-380.5 659,-380.5 659,-361.5 571,-361.5"/>
<text text-anchor="middle" x="615" y="-368.5" font-family="FreeSans" font-size="10.00">CodeCompletion</text>
</a>
</g>
</g>
<!-- Node31&#45;&gt;Node32 -->
<g id="edge22" class="edge"><title>Node31&#45;&gt;Node32</title>
<path fill="none" stroke="midnightblue" d="M545.378,-371C554.125,-371 562.84,-371 570.977,-371"/>
<polygon fill="midnightblue" stroke="midnightblue" points="545.125,-367.5 535.125,-371 545.125,-374.5 545.125,-367.5"/>
</g>
<!-- Node34 -->
<g id="node34" class="node"><title>Node34</title>
<g id="a_node34"><a xlink:href="classCompilerGCC.xhtml" target="_top" xlink:title="CompilerGCC">
<polygon fill="white" stroke="black" points="577,-323.5 577,-342.5 653,-342.5 653,-323.5 577,-323.5"/>
<text text-anchor="middle" x="615" y="-330.5" font-family="FreeSans" font-size="10.00">CompilerGCC</text>
</a>
</g>
</g>
<!-- Node33&#45;&gt;Node34 -->
<g id="edge24" class="edge"><title>Node33&#45;&gt;Node34</title>
<path fill="none" stroke="midnightblue" d="M529.076,-333C545.112,-333 562.217,-333 576.841,-333"/>
<polygon fill="midnightblue" stroke="midnightblue" points="528.728,-329.5 518.728,-333 528.728,-336.5 528.728,-329.5"/>
</g>
<!-- Node36 -->
<g id="node36" class="node"><title>Node36</title>
<g id="a_node36"><a xlink:href="classDebuggerGDB.xhtml" target="_top" xlink:title="DebuggerGDB">
<polygon fill="white" stroke="black" points="575.5,-285.5 575.5,-304.5 654.5,-304.5 654.5,-285.5 575.5,-285.5"/>
<text text-anchor="middle" x="615" y="-292.5" font-family="FreeSans" font-size="10.00">DebuggerGDB</text>
</a>
</g>
</g>
<!-- Node35&#45;&gt;Node36 -->
<g id="edge26" class="edge"><title>Node35&#45;&gt;Node36</title>
<path fill="none" stroke="midnightblue" d="M530.549,-295C545.62,-295 561.533,-295 575.375,-295"/>
<polygon fill="midnightblue" stroke="midnightblue" points="530.284,-291.5 520.284,-295 530.284,-298.5 530.284,-291.5"/>
</g>
<!-- Node41 -->
<g id="node41" class="node"><title>Node41</title>
<g id="a_node41"><a xlink:href="classWiz.xhtml" target="_top" xlink:title="Wiz">
<polygon fill="white" stroke="black" points="599,-399.5 599,-418.5 631,-418.5 631,-399.5 599,-399.5"/>
<text text-anchor="middle" x="615" y="-406.5" font-family="FreeSans" font-size="10.00">Wiz</text>
</a>
</g>
</g>
<!-- Node40&#45;&gt;Node41 -->
<g id="edge31" class="edge"><title>Node40&#45;&gt;Node41</title>
<path fill="none" stroke="midnightblue" d="M524.397,-409C550.778,-409 581.109,-409 598.854,-409"/>
<polygon fill="midnightblue" stroke="midnightblue" points="524.138,-405.5 514.138,-409 524.138,-412.5 524.138,-405.5"/>
</g>
<!-- Node43 -->
<g id="node43" class="node"><title>Node43</title>
<g id="a_node43"><a xlink:href="classParser.xhtml" target="_top" xlink:title="Parser class holds all the tokens of a C::B project. ">
<polygon fill="white" stroke="black" points="450.5,-209.5 450.5,-228.5 494.5,-228.5 494.5,-209.5 450.5,-209.5"/>
<text text-anchor="middle" x="472.5" y="-216.5" font-family="FreeSans" font-size="10.00">Parser</text>
</a>
</g>
</g>
<!-- Node42&#45;&gt;Node43 -->
<g id="edge38" class="edge"><title>Node42&#45;&gt;Node43</title>
<path fill="none" stroke="midnightblue" d="M352.976,-305.934C360.443,-303.262 367.804,-299.712 374,-295 397.849,-276.862 386.212,-256.218 410,-238 421.711,-229.031 437.696,-224.26 450.434,-221.742"/>
<polygon fill="midnightblue" stroke="midnightblue" points="351.705,-302.664 343.188,-308.966 353.776,-309.351 351.705,-302.664"/>
</g>
</g>
</svg>
