<?xml version="1.0" encoding="UTF-8" standalone="no"?>
<!DOCTYPE svg PUBLIC "-//W3C//DTD SVG 1.1//EN"
 "http://www.w3.org/Graphics/SVG/1.1/DTD/svg11.dtd">
<!-- Generated by graphviz version 2.38.0 (20140413.2041)
 -->
<!-- Title: Graphical Class Hierarchy Pages: 1 -->
<svg width="481pt" height="66pt"
 viewBox="0.00 0.00 481.00 66.00" xmlns="http://www.w3.org/2000/svg" xmlns:xlink="http://www.w3.org/1999/xlink">
<g id="graph0" class="graph" transform="scale(1 1) rotate(0) translate(4 62)">
<title>Graphical Class Hierarchy</title>
<!-- Node0 -->
<g id="node1" class="node"><title>Node0</title>
<g id="a_node1"><a xlink:href="classIncrementalSelectIterator" target="_top" xlink:title="IncrementalSelectIterator">
<polygon fill="none" stroke="black" points="0,-19.5 0,-38.5 126,-38.5 126,-19.5 0,-19.5"/>
<text text-anchor="middle" x="63" y="-26.5" font-family="FreeSans" font-size="10.00">IncrementalSelectIterator</text>
</a>
</g>
</g>
<!-- Node1 -->
<g id="node2" class="node"><title>Node1</title>
<g id="a_node2"><a xlink:href="classIncrementalSelectIteratorIndexed" target="_top" xlink:title="IncrementalSelectIterator\lIndexed">
<polygon fill="none" stroke="black" points="162,-14 162,-44 288,-44 288,-14 162,-14"/>
<text text-anchor="start" x="170" y="-32" font-family="FreeSans" font-size="10.00">IncrementalSelectIterator</text>
<text text-anchor="middle" x="225" y="-21" font-family="FreeSans" font-size="10.00">Indexed</text>
</a>
</g>
</g>
<!-- Node0&#45;&gt;Node1 -->
<g id="edge1" class="edge"><title>Node0&#45;&gt;Node1</title>
<path fill="none" stroke="midnightblue" d="M136.545,-29C144.996,-29 153.559,-29 161.852,-29"/>
<polygon fill="midnightblue" stroke="midnightblue" points="136.318,-25.5001 126.318,-29 136.318,-32.5001 136.318,-25.5001"/>
</g>
<!-- Node2 -->
<g id="node3" class="node"><title>Node2</title>
<g id="a_node3"><a xlink:href="structGotoFunctionDlg_1_1Iterator" target="_top" xlink:title="GotoFunctionDlg::Iterator">
<polygon fill="none" stroke="black" points="336,-38.5 336,-57.5 461,-57.5 461,-38.5 336,-38.5"/>
<text text-anchor="middle" x="398.5" y="-45.5" font-family="FreeSans" font-size="10.00">GotoFunctionDlg::Iterator</text>
</a>
</g>
</g>
<!-- Node1&#45;&gt;Node2 -->
<g id="edge2" class="edge"><title>Node1&#45;&gt;Node2</title>
<path fill="none" stroke="midnightblue" d="M298.653,-37.049C310.99,-38.4158 323.697,-39.8235 335.72,-41.1556"/>
<polygon fill="midnightblue" stroke="midnightblue" points="298.725,-33.5357 288.401,-35.9132 297.954,-40.4931 298.725,-33.5357"/>
</g>
<!-- Node3 -->
<g id="node4" class="node"><title>Node3</title>
<g id="a_node4"><a xlink:href="classIncrementalSelectArrayIterator" target="_top" xlink:title="Simple iterator that uses wxArrayString as data source. ">
<polygon fill="none" stroke="black" points="324,-0.5 324,-19.5 473,-19.5 473,-0.5 324,-0.5"/>
<text text-anchor="middle" x="398.5" y="-7.5" font-family="FreeSans" font-size="10.00">IncrementalSelectArrayIterator</text>
</a>
</g>
</g>
<!-- Node1&#45;&gt;Node3 -->
<g id="edge3" class="edge"><title>Node1&#45;&gt;Node3</title>
<path fill="none" stroke="midnightblue" d="M298.497,-20.9683C306.862,-20.0415 315.4,-19.0957 323.781,-18.1671"/>
<polygon fill="midnightblue" stroke="midnightblue" points="297.954,-17.5069 288.401,-22.0868 298.725,-24.4643 297.954,-17.5069"/>
</g>
</g>
</svg>
