<?xml version="1.0" encoding="UTF-8" standalone="no"?>
<!DOCTYPE svg PUBLIC "-//W3C//DTD SVG 1.1//EN"
 "http://www.w3.org/Graphics/SVG/1.1/DTD/svg11.dtd">
<!-- Generated by graphviz version 2.38.0 (20140413.2041)
 -->
<!-- Title: Graphical Class Hierarchy Pages: 1 -->
<svg width="287pt" height="142pt"
 viewBox="0.00 0.00 287.00 142.00" xmlns="http://www.w3.org/2000/svg" xmlns:xlink="http://www.w3.org/1999/xlink">
<g id="graph0" class="graph" transform="scale(1 1) rotate(0) translate(4 138)">
<title>Graphical Class Hierarchy</title>
<!-- Node0 -->
<g id="node1" class="node"><title>Node0</title>
<g id="a_node1"><a xlink:href="classAbstractJob" target="_top" xlink:title="AbstractJob">
<polygon fill="none" stroke="black" points="0,-57.5 0,-76.5 68,-76.5 68,-57.5 0,-57.5"/>
<text text-anchor="middle" x="34" y="-64.5" font-family="FreeSans" font-size="10.00">AbstractJob</text>
</a>
</g>
</g>
<!-- Node1 -->
<g id="node2" class="node"><title>Node1</title>
<g id="a_node2"><a xlink:href="classLoaderBase" target="_top" xlink:title="LoaderBase">
<polygon fill="none" stroke="black" points="104,-57.5 104,-76.5 172,-76.5 172,-57.5 104,-57.5"/>
<text text-anchor="middle" x="138" y="-64.5" font-family="FreeSans" font-size="10.00">LoaderBase</text>
</a>
</g>
</g>
<!-- Node0&#45;&gt;Node1 -->
<g id="edge1" class="edge"><title>Node0&#45;&gt;Node1</title>
<path fill="none" stroke="midnightblue" d="M78.2803,-67C86.7858,-67 95.5846,-67 103.701,-67"/>
<polygon fill="midnightblue" stroke="midnightblue" points="78.1165,-63.5001 68.1165,-67 78.1164,-70.5001 78.1165,-63.5001"/>
</g>
<!-- Node2 -->
<g id="node3" class="node"><title>Node2</title>
<g id="a_node3"><a xlink:href="classEditorReuser" target="_top" xlink:title="EditorReuser">
<polygon fill="none" stroke="black" points="208,-114.5 208,-133.5 279,-133.5 279,-114.5 208,-114.5"/>
<text text-anchor="middle" x="243.5" y="-121.5" font-family="FreeSans" font-size="10.00">EditorReuser</text>
</a>
</g>
</g>
<!-- Node1&#45;&gt;Node2 -->
<g id="edge2" class="edge"><title>Node1&#45;&gt;Node2</title>
<path fill="none" stroke="midnightblue" d="M165.5,-81.5939C184.269,-91.9309 208.91,-105.501 225.202,-114.474"/>
<polygon fill="midnightblue" stroke="midnightblue" points="167.005,-78.4276 156.557,-76.6693 163.628,-84.5592 167.005,-78.4276"/>
</g>
<!-- Node3 -->
<g id="node4" class="node"><title>Node3</title>
<g id="a_node4"><a xlink:href="classFileLoader" target="_top" xlink:title="FileLoader">
<polygon fill="none" stroke="black" points="212.5,-76.5 212.5,-95.5 274.5,-95.5 274.5,-76.5 212.5,-76.5"/>
<text text-anchor="middle" x="243.5" y="-83.5" font-family="FreeSans" font-size="10.00">FileLoader</text>
</a>
</g>
</g>
<!-- Node1&#45;&gt;Node3 -->
<g id="edge3" class="edge"><title>Node1&#45;&gt;Node3</title>
<path fill="none" stroke="midnightblue" d="M181.981,-74.8902C192.145,-76.756 202.773,-78.7072 212.236,-80.4443"/>
<polygon fill="midnightblue" stroke="midnightblue" points="182.5,-71.4271 172.033,-73.064 181.236,-78.3121 182.5,-71.4271"/>
</g>
<!-- Node4 -->
<g id="node5" class="node"><title>Node4</title>
<g id="a_node5"><a xlink:href="classNullLoader" target="_top" xlink:title="NullLoader">
<polygon fill="none" stroke="black" points="212.5,-38.5 212.5,-57.5 274.5,-57.5 274.5,-38.5 212.5,-38.5"/>
<text text-anchor="middle" x="243.5" y="-45.5" font-family="FreeSans" font-size="10.00">NullLoader</text>
</a>
</g>
</g>
<!-- Node1&#45;&gt;Node4 -->
<g id="edge4" class="edge"><title>Node1&#45;&gt;Node4</title>
<path fill="none" stroke="midnightblue" d="M181.981,-59.1098C192.145,-57.244 202.773,-55.2928 212.236,-53.5557"/>
<polygon fill="midnightblue" stroke="midnightblue" points="181.236,-55.6879 172.033,-60.936 182.5,-62.5729 181.236,-55.6879"/>
</g>
<!-- Node5 -->
<g id="node6" class="node"><title>Node5</title>
<g id="a_node6"><a xlink:href="classURLLoader" target="_top" xlink:title="URLLoader">
<polygon fill="none" stroke="black" points="211,-0.5 211,-19.5 276,-19.5 276,-0.5 211,-0.5"/>
<text text-anchor="middle" x="243.5" y="-7.5" font-family="FreeSans" font-size="10.00">URLLoader</text>
</a>
</g>
</g>
<!-- Node1&#45;&gt;Node5 -->
<g id="edge5" class="edge"><title>Node1&#45;&gt;Node5</title>
<path fill="none" stroke="midnightblue" d="M165.5,-52.4061C184.269,-42.0691 208.91,-28.4991 225.202,-19.5265"/>
<polygon fill="midnightblue" stroke="midnightblue" points="163.628,-49.4408 156.557,-57.3307 167.005,-55.5724 163.628,-49.4408"/>
</g>
</g>
</svg>
