<?xml version="1.0" encoding="UTF-8" standalone="no"?>
<!DOCTYPE svg PUBLIC "-//W3C//DTD SVG 1.1//EN"
 "http://www.w3.org/Graphics/SVG/1.1/DTD/svg11.dtd">
<!-- Generated by graphviz version 2.40.1 (20161225.0304)
 -->
<!-- Title: licenses.h Pages: 1 -->
<svg width="3165pt" height="207pt"
 viewBox="0.00 0.00 3164.50 207.00" xmlns="http://www.w3.org/2000/svg" xmlns:xlink="http://www.w3.org/1999/xlink">
<g id="graph0" class="graph" transform="scale(1 1) rotate(0) translate(4 203)">
<title>licenses.h</title>
<!-- Node1 -->
<g id="node1" class="node">
<title>Node1</title>
<polygon fill="#bfbfbf" stroke="#000000" points="1671.5,-179.5 1671.5,-198.5 1730.5,-198.5 1730.5,-179.5 1671.5,-179.5"/>
<text text-anchor="middle" x="1701" y="-186.5" font-family="FreeSans" font-size="10.00" fill="#000000">licenses.h</text>
</g>
<!-- Node2 -->
<g id="node2" class="node">
<title>Node2</title>
<g id="a_node2"><a xlink:href="sdk__common_8h" target="_top" xlink:title="sdk_common.h">
<polygon fill="none" stroke="#000000" points="1660,-123.5 1660,-142.5 1742,-142.5 1742,-123.5 1660,-123.5"/>
<text text-anchor="middle" x="1701" y="-130.5" font-family="FreeSans" font-size="10.00" fill="#000000">sdk_common.h</text>
</a>
</g>
</g>
<!-- Node1&#45;&gt;Node2 -->
<g id="edge1" class="edge">
<title>Node1&#45;&gt;Node2</title>
<path fill="none" stroke="#191970" d="M1701,-169.1575C1701,-160.155 1701,-149.9199 1701,-142.6427"/>
<polygon fill="#191970" stroke="#191970" points="1697.5001,-169.2455 1701,-179.2455 1704.5001,-169.2456 1697.5001,-169.2455"/>
</g>
<!-- Node3 -->
<g id="node3" class="node">
<title>Node3</title>
<g id="a_node3"><a xlink:href="sdk_8h" target="_top" xlink:title="sdk.h">
<polygon fill="none" stroke="#ff0000" points="1642.5,-67.5 1642.5,-86.5 1681.5,-86.5 1681.5,-67.5 1642.5,-67.5"/>
<text text-anchor="middle" x="1662" y="-74.5" font-family="FreeSans" font-size="10.00" fill="#000000">sdk.h</text>
</a>
</g>
</g>
<!-- Node2&#45;&gt;Node3 -->
<g id="edge2" class="edge">
<title>Node2&#45;&gt;Node3</title>
<path fill="none" stroke="#191970" d="M1688.4092,-114.9209C1681.8605,-105.5176 1674.1176,-94.3997 1668.7154,-86.6427"/>
<polygon fill="#191970" stroke="#191970" points="1685.6196,-117.0397 1694.2067,-123.2455 1691.3639,-113.0392 1685.6196,-117.0397"/>
</g>
<!-- Node106 -->
<g id="node32" class="node">
<title>Node106</title>
<g id="a_node32"><a xlink:href="sdk__precomp_8h" target="_top" xlink:title="sdk_precomp.h">
<polygon fill="none" stroke="#ff0000" points="1700,-67.5 1700,-86.5 1782,-86.5 1782,-67.5 1700,-67.5"/>
<text text-anchor="middle" x="1741" y="-74.5" font-family="FreeSans" font-size="10.00" fill="#000000">sdk_precomp.h</text>
</a>
</g>
</g>
<!-- Node2&#45;&gt;Node106 -->
<g id="edge31" class="edge">
<title>Node2&#45;&gt;Node106</title>
<path fill="none" stroke="#191970" d="M1713.9136,-114.9209C1720.6303,-105.5176 1728.5717,-94.3997 1734.1124,-86.6427"/>
<polygon fill="#191970" stroke="#191970" points="1710.9318,-113.0738 1707.9675,-123.2455 1716.628,-117.1425 1710.9318,-113.0738"/>
</g>
<!-- Node4 -->
<g id="node4" class="node">
<title>Node4</title>
<g id="a_node4"><a xlink:href="app_8cpp" target="_top" xlink:title="app.cpp">
<polygon fill="none" stroke="#000000" points="0,-6 0,-25 50,-25 50,-6 0,-6"/>
<text text-anchor="middle" x="25" y="-13" font-family="FreeSans" font-size="10.00" fill="#000000">app.cpp</text>
</a>
</g>
</g>
<!-- Node3&#45;&gt;Node4 -->
<g id="edge3" class="edge">
<title>Node3&#45;&gt;Node4</title>
<path fill="none" stroke="#191970" d="M1632.198,-76.8565C1426.231,-75.7708 217.6909,-67.8572 59,-31 53.4393,-29.7085 47.6839,-27.4733 42.5249,-25.0959"/>
<polygon fill="#191970" stroke="#191970" points="1632.2613,-80.3567 1642.2792,-76.9083 1632.2973,-73.3568 1632.2613,-80.3567"/>
</g>
<!-- Node5 -->
<g id="node5" class="node">
<title>Node5</title>
<g id="a_node5"><a xlink:href="appglobals_8cpp" target="_top" xlink:title="appglobals.cpp">
<polygon fill="none" stroke="#000000" points="68,-6 68,-25 148,-25 148,-6 68,-6"/>
<text text-anchor="middle" x="108" y="-13" font-family="FreeSans" font-size="10.00" fill="#000000">appglobals.cpp</text>
</a>
</g>
</g>
<!-- Node3&#45;&gt;Node5 -->
<g id="edge4" class="edge">
<title>Node3&#45;&gt;Node5</title>
<path fill="none" stroke="#191970" d="M1632.2425,-76.5835C1433.96,-73.743 307.3321,-56.5674 157,-31 149.2594,-29.6835 141.0505,-27.4406 133.6098,-25.0637"/>
<polygon fill="#191970" stroke="#191970" points="1632.4312,-80.0864 1642.4801,-76.7292 1632.5309,-73.0871 1632.4312,-80.0864"/>
</g>
<!-- Node6 -->
<g id="node6" class="node">
<title>Node6</title>
<g id="a_node6"><a xlink:href="associations_8cpp" target="_top" xlink:title="associations.cpp">
<polygon fill="none" stroke="#000000" points="166.5,-6 166.5,-25 253.5,-25 253.5,-6 166.5,-6"/>
<text text-anchor="middle" x="210" y="-13" font-family="FreeSans" font-size="10.00" fill="#000000">associations.cpp</text>
</a>
</g>
</g>
<!-- Node3&#45;&gt;Node6 -->
<g id="edge5" class="edge">
<title>Node3&#45;&gt;Node6</title>
<path fill="none" stroke="#191970" d="M1632.2913,-76.472C1442.4303,-73.0382 402.4686,-53.3205 263,-31 254.6696,-29.6668 245.8037,-27.4186 237.7547,-25.0421"/>
<polygon fill="#191970" stroke="#191970" points="1632.3132,-79.9729 1642.3745,-76.6535 1632.4392,-72.974 1632.3132,-79.9729"/>
</g>
<!-- Node7 -->
<g id="node7" class="node">
<title>Node7</title>
<g id="a_node7"><a xlink:href="backtracedlg_8cpp" target="_top" xlink:title="backtracedlg.cpp">
<polygon fill="none" stroke="#000000" points="272,-6 272,-25 362,-25 362,-6 272,-6"/>
<text text-anchor="middle" x="317" y="-13" font-family="FreeSans" font-size="10.00" fill="#000000">backtracedlg.cpp</text>
</a>
</g>
</g>
<!-- Node3&#45;&gt;Node7 -->
<g id="edge6" class="edge">
<title>Node3&#45;&gt;Node7</title>
<path fill="none" stroke="#191970" d="M1631.9918,-76.9231C1462.682,-76.339 625.3952,-71.4199 371,-31 362.5232,-29.6532 353.4933,-27.4007 345.2923,-25.0244"/>
<polygon fill="#191970" stroke="#191970" points="1632.1535,-80.4235 1642.1647,-76.9556 1632.176,-73.4236 1632.1535,-80.4235"/>
</g>
<!-- Node8 -->
<g id="node8" class="node">
<title>Node8</title>
<g id="a_node8"><a xlink:href="breakpointsdlg_8cpp" target="_top" xlink:title="breakpointsdlg.cpp">
<polygon fill="none" stroke="#000000" points="380.5,-6 380.5,-25 477.5,-25 477.5,-6 380.5,-6"/>
<text text-anchor="middle" x="429" y="-13" font-family="FreeSans" font-size="10.00" fill="#000000">breakpointsdlg.cpp</text>
</a>
</g>
</g>
<!-- Node3&#45;&gt;Node8 -->
<g id="edge7" class="edge">
<title>Node3&#45;&gt;Node8</title>
<path fill="none" stroke="#191970" d="M1632.1915,-76.7476C1472.4849,-75.2569 716.7363,-66.416 486,-31 477.1813,-29.6464 467.7734,-27.4227 459.1953,-25.0766"/>
<polygon fill="#191970" stroke="#191970" points="1632.2112,-80.2479 1642.2426,-76.839 1632.2749,-73.2482 1632.2112,-80.2479"/>
</g>
<!-- Node9 -->
<g id="node9" class="node">
<title>Node9</title>
<g id="a_node9"><a xlink:href="compilersettingsdlg_8cpp" target="_top" xlink:title="compilersettingsdlg.cpp">
<polygon fill="none" stroke="#000000" points="495.5,-6 495.5,-25 612.5,-25 612.5,-6 495.5,-6"/>
<text text-anchor="middle" x="554" y="-13" font-family="FreeSans" font-size="10.00" fill="#000000">compilersettingsdlg.cpp</text>
</a>
</g>
</g>
<!-- Node3&#45;&gt;Node9 -->
<g id="edge8" class="edge">
<title>Node3&#45;&gt;Node9</title>
<path fill="none" stroke="#191970" d="M1631.9597,-76.416C1483.1528,-73.4098 824.0622,-58.7366 621,-31 610.7085,-29.5943 599.6739,-27.3538 589.5899,-25.0084"/>
<polygon fill="#191970" stroke="#191970" points="1632.0895,-79.9192 1642.1575,-76.6198 1632.2295,-72.9206 1632.0895,-79.9192"/>
</g>
<!-- Node10 -->
<g id="node10" class="node">
<title>Node10</title>
<g id="a_node10"><a xlink:href="cpuregistersdlg_8cpp" target="_top" xlink:title="cpuregistersdlg.cpp">
<polygon fill="none" stroke="#000000" points="630.5,-6 630.5,-25 729.5,-25 729.5,-6 630.5,-6"/>
<text text-anchor="middle" x="680" y="-13" font-family="FreeSans" font-size="10.00" fill="#000000">cpuregistersdlg.cpp</text>
</a>
</g>
</g>
<!-- Node3&#45;&gt;Node10 -->
<g id="edge9" class="edge">
<title>Node3&#45;&gt;Node10</title>
<path fill="none" stroke="#191970" d="M1631.8711,-76.3567C1493.284,-73.2662 916.2485,-58.9324 738,-31 729.0415,-29.5962 719.4733,-27.3563 710.7445,-25.0109"/>
<polygon fill="#191970" stroke="#191970" points="1632.0745,-79.8619 1642.1491,-76.583 1632.2287,-72.8636 1632.0745,-79.8619"/>
</g>
<!-- Node11 -->
<g id="node11" class="node">
<title>Node11</title>
<g id="a_node11"><a xlink:href="crashhandler_8cpp" target="_top" xlink:title="crashhandler.cpp">
<polygon fill="none" stroke="#000000" points="747.5,-6 747.5,-25 836.5,-25 836.5,-6 747.5,-6"/>
<text text-anchor="middle" x="792" y="-13" font-family="FreeSans" font-size="10.00" fill="#000000">crashhandler.cpp</text>
</a>
</g>
</g>
<!-- Node3&#45;&gt;Node11 -->
<g id="edge10" class="edge">
<title>Node3&#45;&gt;Node11</title>
<path fill="none" stroke="#191970" d="M1632.1376,-76.2317C1504.0943,-72.7969 1000.939,-57.8292 845,-31 836.8747,-29.6021 828.2274,-27.3941 820.3256,-25.0782"/>
<polygon fill="#191970" stroke="#191970" points="1632.2702,-79.7363 1642.3595,-76.5026 1632.4558,-72.7388 1632.2702,-79.7363"/>
</g>
<!-- Node12 -->
<g id="node12" class="node">
<title>Node12</title>
<g id="a_node12"><a xlink:href="debugger__interface__creator_8cpp" target="_top" xlink:title="debugger_interface\l_creator.cpp">
<polygon fill="none" stroke="#000000" points="854.5,-.5 854.5,-30.5 953.5,-30.5 953.5,-.5 854.5,-.5"/>
<text text-anchor="start" x="862.5" y="-18.5" font-family="FreeSans" font-size="10.00" fill="#000000">debugger_interface</text>
<text text-anchor="middle" x="904" y="-7.5" font-family="FreeSans" font-size="10.00" fill="#000000">_creator.cpp</text>
</a>
</g>
</g>
<!-- Node3&#45;&gt;Node12 -->
<g id="edge11" class="edge">
<title>Node3&#45;&gt;Node12</title>
<path fill="none" stroke="#191970" d="M1632.1039,-75.7954C1516.0069,-70.9994 1094.9853,-52.4772 963,-31 959.9686,-30.5067 956.8669,-29.9263 953.7496,-29.2848"/>
<polygon fill="#191970" stroke="#191970" points="1632.2322,-79.3035 1642.3673,-76.2163 1632.5191,-72.3094 1632.2322,-79.3035"/>
</g>
<!-- Node13 -->
<g id="node13" class="node">
<title>Node13</title>
<g id="a_node13"><a xlink:href="debuggermenu_8cpp" target="_top" xlink:title="debuggermenu.cpp">
<polygon fill="none" stroke="#000000" points="972,-6 972,-25 1070,-25 1070,-6 972,-6"/>
<text text-anchor="middle" x="1021" y="-13" font-family="FreeSans" font-size="10.00" fill="#000000">debuggermenu.cpp</text>
</a>
</g>
</g>
<!-- Node3&#45;&gt;Node13 -->
<g id="edge12" class="edge">
<title>Node3&#45;&gt;Node13</title>
<path fill="none" stroke="#191970" d="M1632.3757,-76.5656C1546.2824,-74.896 1288.9191,-67.0209 1079,-31 1070.2682,-29.5017 1060.9407,-27.2895 1052.3757,-25.0028"/>
<polygon fill="#191970" stroke="#191970" points="1632.4038,-80.0665 1642.4653,-76.7474 1632.53,-73.0677 1632.4038,-80.0665"/>
</g>
<!-- Node14 -->
<g id="node14" class="node">
<title>Node14</title>
<g id="a_node14"><a xlink:href="debuggersettingscommonpanel_8cpp" target="_top" xlink:title="debuggersettingscommonpanel.cpp">
<polygon fill="none" stroke="#000000" points="1088,-6 1088,-25 1256,-25 1256,-6 1088,-6"/>
<text text-anchor="middle" x="1172" y="-13" font-family="FreeSans" font-size="10.00" fill="#000000">debuggersettingscommonpanel.cpp</text>
</a>
</g>
</g>
<!-- Node3&#45;&gt;Node14 -->
<g id="edge13" class="edge">
<title>Node3&#45;&gt;Node14</title>
<path fill="none" stroke="#191970" d="M1631.9795,-74.0373C1565.6532,-67.3787 1401.6689,-50.2947 1265,-31 1252.52,-29.2381 1239.1338,-27.1338 1226.5157,-25.0525"/>
<polygon fill="#191970" stroke="#191970" points="1631.8287,-77.5396 1642.1271,-75.051 1632.5246,-70.5743 1631.8287,-77.5396"/>
</g>
<!-- Node15 -->
<g id="node15" class="node">
<title>Node15</title>
<g id="a_node15"><a xlink:href="debuggersettingsdlg_8cpp" target="_top" xlink:title="debuggersettingsdlg.cpp">
<polygon fill="none" stroke="#000000" points="1274,-6 1274,-25 1394,-25 1394,-6 1274,-6"/>
<text text-anchor="middle" x="1334" y="-13" font-family="FreeSans" font-size="10.00" fill="#000000">debuggersettingsdlg.cpp</text>
</a>
</g>
</g>
<!-- Node3&#45;&gt;Node15 -->
<g id="edge14" class="edge">
<title>Node3&#45;&gt;Node15</title>
<path fill="none" stroke="#191970" d="M1632.4041,-72.1909C1584.2116,-64.2597 1485.8342,-47.6509 1403,-31 1393.9723,-29.1853 1384.312,-27.1035 1375.1645,-25.0669"/>
<polygon fill="#191970" stroke="#191970" points="1632.0144,-75.6737 1642.4489,-73.8378 1633.147,-68.7659 1632.0144,-75.6737"/>
</g>
<!-- Node16 -->
<g id="node16" class="node">
<title>Node16</title>
<g id="a_node16"><a xlink:href="debuggersettingspanel_8cpp" target="_top" xlink:title="debuggersettingspanel.cpp">
<polygon fill="none" stroke="#000000" points="1412.5,-6 1412.5,-25 1543.5,-25 1543.5,-6 1412.5,-6"/>
<text text-anchor="middle" x="1478" y="-13" font-family="FreeSans" font-size="10.00" fill="#000000">debuggersettingspanel.cpp</text>
</a>
</g>
</g>
<!-- Node3&#45;&gt;Node16 -->
<g id="edge15" class="edge">
<title>Node3&#45;&gt;Node16</title>
<path fill="none" stroke="#191970" d="M1632.7629,-67.2278C1598.1431,-55.6565 1540.8638,-36.5116 1506.5481,-25.0419"/>
<polygon fill="#191970" stroke="#191970" points="1631.715,-70.5678 1642.3088,-70.4184 1633.934,-63.9289 1631.715,-70.5678"/>
</g>
<!-- Node17 -->
<g id="node17" class="node">
<title>Node17</title>
<g id="a_node17"><a xlink:href="disassemblydlg_8cpp" target="_top" xlink:title="disassemblydlg.cpp">
<polygon fill="none" stroke="#000000" points="1561.5,-6 1561.5,-25 1660.5,-25 1660.5,-6 1561.5,-6"/>
<text text-anchor="middle" x="1611" y="-13" font-family="FreeSans" font-size="10.00" fill="#000000">disassemblydlg.cpp</text>
</a>
</g>
</g>
<!-- Node3&#45;&gt;Node17 -->
<g id="edge16" class="edge">
<title>Node3&#45;&gt;Node17</title>
<path fill="none" stroke="#191970" d="M1647.5495,-59.5744C1638.3258,-48.4517 1626.7108,-34.4454 1619.0811,-25.2449"/>
<polygon fill="#191970" stroke="#191970" points="1644.9537,-61.9272 1654.0313,-67.3906 1650.342,-57.4588 1644.9537,-61.9272"/>
</g>
<!-- Node18 -->
<g id="node18" class="node">
<title>Node18</title>
<g id="a_node18"><a xlink:href="dlgabout_8cpp" target="_top" xlink:title="dlgabout.cpp">
<polygon fill="none" stroke="#000000" points="1678.5,-6 1678.5,-25 1749.5,-25 1749.5,-6 1678.5,-6"/>
<text text-anchor="middle" x="1714" y="-13" font-family="FreeSans" font-size="10.00" fill="#000000">dlgabout.cpp</text>
</a>
</g>
</g>
<!-- Node3&#45;&gt;Node18 -->
<g id="edge17" class="edge">
<title>Node3&#45;&gt;Node18</title>
<path fill="none" stroke="#191970" d="M1676.7338,-59.5744C1686.1384,-48.4517 1697.9811,-34.4454 1705.7604,-25.2449"/>
<polygon fill="#191970" stroke="#191970" points="1673.909,-57.4945 1670.125,-67.3906 1679.2544,-62.0142 1673.909,-57.4945"/>
</g>
<!-- Node19 -->
<g id="node19" class="node">
<title>Node19</title>
<g id="a_node19"><a xlink:href="dlgaboutplugin_8cpp" target="_top" xlink:title="dlgaboutplugin.cpp">
<polygon fill="none" stroke="#000000" points="1767.5,-6 1767.5,-25 1864.5,-25 1864.5,-6 1767.5,-6"/>
<text text-anchor="middle" x="1816" y="-13" font-family="FreeSans" font-size="10.00" fill="#000000">dlgaboutplugin.cpp</text>
</a>
</g>
</g>
<!-- Node3&#45;&gt;Node19 -->
<g id="edge18" class="edge">
<title>Node3&#45;&gt;Node19</title>
<path fill="none" stroke="#191970" d="M1691.1585,-65.3555C1720.4011,-53.6775 1764.891,-35.9104 1792.1117,-25.0398"/>
<polygon fill="#191970" stroke="#191970" points="1689.493,-62.2518 1681.5042,-69.211 1692.0891,-68.7526 1689.493,-62.2518"/>
</g>
<!-- Node20 -->
<g id="node20" class="node">
<title>Node20</title>
<g id="a_node20"><a xlink:href="editkeywordsdlg_8cpp" target="_top" xlink:title="editkeywordsdlg.cpp">
<polygon fill="none" stroke="#000000" points="1882.5,-6 1882.5,-25 1985.5,-25 1985.5,-6 1882.5,-6"/>
<text text-anchor="middle" x="1934" y="-13" font-family="FreeSans" font-size="10.00" fill="#000000">editkeywordsdlg.cpp</text>
</a>
</g>
</g>
<!-- Node3&#45;&gt;Node20 -->
<g id="edge19" class="edge">
<title>Node3&#45;&gt;Node20</title>
<path fill="none" stroke="#191970" d="M1691.2335,-67.2487C1772.762,-45.6992 1796.1695,-48.6926 1874,-31 1881.9732,-29.1875 1890.5003,-27.0851 1898.5499,-25.0247"/>
<polygon fill="#191970" stroke="#191970" points="1690.2915,-63.8776 1681.5419,-69.8522 1692.1075,-70.6379 1690.2915,-63.8776"/>
</g>
<!-- Node21 -->
<g id="node21" class="node">
<title>Node21</title>
<g id="a_node21"><a xlink:href="editorconfigurationdlg_8cpp" target="_top" xlink:title="editorconfigurationdlg.cpp">
<polygon fill="none" stroke="#000000" points="2004,-6 2004,-25 2130,-25 2130,-6 2004,-6"/>
<text text-anchor="middle" x="2067" y="-13" font-family="FreeSans" font-size="10.00" fill="#000000">editorconfigurationdlg.cpp</text>
</a>
</g>
</g>
<!-- Node3&#45;&gt;Node21 -->
<g id="edge20" class="edge">
<title>Node3&#45;&gt;Node21</title>
<path fill="none" stroke="#191970" d="M1691.6071,-67.3116C1825.4222,-37.4107 1863.9372,-52.818 1995,-31 2005.0902,-29.3203 2015.9053,-27.1767 2026.0069,-25.0232"/>
<polygon fill="#191970" stroke="#191970" points="1690.7782,-63.9107 1681.8051,-69.5439 1692.3327,-70.7359 1690.7782,-63.9107"/>
</g>
<!-- Node22 -->
<g id="node22" class="node">
<title>Node22</title>
<g id="a_node22"><a xlink:href="environmentsettingsdlg_8cpp" target="_top" xlink:title="environmentsettingsdlg.cpp">
<polygon fill="none" stroke="#000000" points="2148.5,-6 2148.5,-25 2281.5,-25 2281.5,-6 2148.5,-6"/>
<text text-anchor="middle" x="2215" y="-13" font-family="FreeSans" font-size="10.00" fill="#000000">environmentsettingsdlg.cpp</text>
</a>
</g>
</g>
<!-- Node3&#45;&gt;Node22 -->
<g id="edge21" class="edge">
<title>Node3&#45;&gt;Node22</title>
<path fill="none" stroke="#191970" d="M1691.8571,-67.3465C1888.3801,-27.1928 1944.5041,-58.5449 2139,-31 2150.0664,-29.4328 2161.9459,-27.2524 2172.9479,-25.0213"/>
<polygon fill="#191970" stroke="#191970" points="1690.8605,-63.9788 1681.7828,-69.4419 1692.286,-70.8321 1690.8605,-63.9788"/>
</g>
<!-- Node23 -->
<g id="node23" class="node">
<title>Node23</title>
<g id="a_node23"><a xlink:href="examinememorydlg_8cpp" target="_top" xlink:title="examinememorydlg.cpp">
<polygon fill="none" stroke="#000000" points="2300,-6 2300,-25 2418,-25 2418,-6 2300,-6"/>
<text text-anchor="middle" x="2359" y="-13" font-family="FreeSans" font-size="10.00" fill="#000000">examinememorydlg.cpp</text>
</a>
</g>
</g>
<!-- Node3&#45;&gt;Node23 -->
<g id="edge22" class="edge">
<title>Node3&#45;&gt;Node23</title>
<path fill="none" stroke="#191970" d="M1691.6177,-67.4423C1954.8548,-16.2763 2029.7716,-68.3512 2291,-31 2301.1885,-29.5432 2312.1078,-27.345 2322.1495,-25.0584"/>
<polygon fill="#191970" stroke="#191970" points="1690.9039,-64.0156 1681.7715,-69.3868 1692.2602,-70.8829 1690.9039,-64.0156"/>
</g>
<!-- Node24 -->
<g id="node24" class="node">
<title>Node24</title>
<g id="a_node24"><a xlink:href="find__replace_8cpp" target="_top" xlink:title="find_replace.cpp">
<polygon fill="none" stroke="#000000" points="2436,-6 2436,-25 2522,-25 2522,-6 2436,-6"/>
<text text-anchor="middle" x="2479" y="-13" font-family="FreeSans" font-size="10.00" fill="#000000">find_replace.cpp</text>
</a>
</g>
</g>
<!-- Node3&#45;&gt;Node24 -->
<g id="edge23" class="edge">
<title>Node3&#45;&gt;Node24</title>
<path fill="none" stroke="#191970" d="M1691.8671,-67.4226C2014.4824,-6.6486 2107.4894,-85.6103 2427,-31 2435.0785,-29.6192 2443.6718,-27.3868 2451.497,-25.041"/>
<polygon fill="#191970" stroke="#191970" points="1690.929,-64.0386 1681.7657,-69.3568 1692.2455,-70.9137 1690.929,-64.0386"/>
</g>
<!-- Node25 -->
<g id="node25" class="node">
<title>Node25</title>
<g id="a_node25"><a xlink:href="goto__file_8cpp" target="_top" xlink:title="goto_file.cpp">
<polygon fill="none" stroke="#000000" points="2540.5,-6 2540.5,-25 2611.5,-25 2611.5,-6 2540.5,-6"/>
<text text-anchor="middle" x="2576" y="-13" font-family="FreeSans" font-size="10.00" fill="#000000">goto_file.cpp</text>
</a>
</g>
</g>
<!-- Node3&#45;&gt;Node25 -->
<g id="edge24" class="edge">
<title>Node3&#45;&gt;Node25</title>
<path fill="none" stroke="#191970" d="M1691.6239,-67.4829C2060.0092,.8335 2167.0844,-99.96 2531,-31 2538.1443,-29.6462 2545.6942,-27.3916 2552.5268,-25.0155"/>
<polygon fill="#191970" stroke="#191970" points="1690.9418,-64.0498 1681.7625,-69.3403 1692.2376,-70.9288 1690.9418,-64.0498"/>
</g>
<!-- Node26 -->
<g id="node26" class="node">
<title>Node26</title>
<g id="a_node26"><a xlink:href="infopane_8cpp" target="_top" xlink:title="infopane.cpp">
<polygon fill="none" stroke="#000000" points="2629.5,-6 2629.5,-25 2700.5,-25 2700.5,-6 2629.5,-6"/>
<text text-anchor="middle" x="2665" y="-13" font-family="FreeSans" font-size="10.00" fill="#000000">infopane.cpp</text>
</a>
</g>
</g>
<!-- Node3&#45;&gt;Node26 -->
<g id="edge25" class="edge">
<title>Node3&#45;&gt;Node26</title>
<path fill="none" stroke="#191970" d="M1691.7523,-67.4681C2099.4624,7.3547 2217.9727,-107.9646 2621,-31 2628.0006,-29.6631 2635.3875,-27.4138 2642.0679,-25.0373"/>
<polygon fill="#191970" stroke="#191970" points="1690.9504,-64.0571 1681.7604,-69.329 1692.2322,-70.9388 1690.9504,-64.0571"/>
</g>
<!-- Node27 -->
<g id="node27" class="node">
<title>Node27</title>
<g id="a_node27"><a xlink:href="ipc_8h" target="_top" xlink:title="ipc.h">
<polygon fill="none" stroke="#ff0000" points="2718.5,-6 2718.5,-25 2755.5,-25 2755.5,-6 2718.5,-6"/>
<text text-anchor="middle" x="2737" y="-13" font-family="FreeSans" font-size="10.00" fill="#000000">ipc.h</text>
</a>
</g>
</g>
<!-- Node3&#45;&gt;Node27 -->
<g id="edge26" class="edge">
<title>Node3&#45;&gt;Node27</title>
<path fill="none" stroke="#191970" d="M1691.8211,-67.5294C1930.0807,-27.5018 2495.2129,-92.3506 2710,-31 2714.5735,-29.6937 2719.1931,-27.4539 2723.2868,-25.0768"/>
<polygon fill="#191970" stroke="#191970" points="1690.9909,-64.1221 1681.7587,-69.3198 1692.2172,-71.0139 1690.9909,-64.1221"/>
</g>
<!-- Node29 -->
<g id="node28" class="node">
<title>Node29</title>
<g id="a_node28"><a xlink:href="main_8cpp" target="_top" xlink:title="main.cpp">
<polygon fill="none" stroke="#000000" points="2774,-6 2774,-25 2830,-25 2830,-6 2774,-6"/>
<text text-anchor="middle" x="2802" y="-13" font-family="FreeSans" font-size="10.00" fill="#000000">main.cpp</text>
</a>
</g>
</g>
<!-- Node3&#45;&gt;Node29 -->
<g id="edge27" class="edge">
<title>Node3&#45;&gt;Node29</title>
<path fill="none" stroke="#191970" d="M1691.9692,-67.4975C1942.3201,-25.1697 2534.8925,-81.2758 2765,-31 2770.9875,-29.6918 2777.2307,-27.4514 2782.8462,-25.0744"/>
<polygon fill="#191970" stroke="#191970" points="1690.9897,-64.1167 1681.7578,-69.3149 1692.2164,-71.0084 1690.9897,-64.1167"/>
</g>
<!-- Node30 -->
<g id="node29" class="node">
<title>Node30</title>
<g id="a_node29"><a xlink:href="printdlg_8cpp" target="_top" xlink:title="printdlg.cpp">
<polygon fill="none" stroke="#000000" points="2848,-6 2848,-25 2914,-25 2914,-6 2848,-6"/>
<text text-anchor="middle" x="2881" y="-13" font-family="FreeSans" font-size="10.00" fill="#000000">printdlg.cpp</text>
</a>
</g>
</g>
<!-- Node3&#45;&gt;Node30 -->
<g id="edge28" class="edge">
<title>Node3&#45;&gt;Node30</title>
<path fill="none" stroke="#191970" d="M1691.8205,-67.4714C2194.9947,23.2277 2341.2534,-127.9893 2839,-31 2845.7134,-29.6918 2852.7743,-27.4515 2859.1504,-25.0744"/>
<polygon fill="#191970" stroke="#191970" points="1690.9653,-64.0696 1681.7567,-69.309 1692.2227,-70.9558 1690.9653,-64.0696"/>
</g>
<!-- Node31 -->
<g id="node30" class="node">
<title>Node31</title>
<g id="a_node30"><a xlink:href="projectdepsdlg_8cpp" target="_top" xlink:title="projectdepsdlg.cpp">
<polygon fill="none" stroke="#000000" points="2932.5,-6 2932.5,-25 3029.5,-25 3029.5,-6 2932.5,-6"/>
<text text-anchor="middle" x="2981" y="-13" font-family="FreeSans" font-size="10.00" fill="#000000">projectdepsdlg.cpp</text>
</a>
</g>
</g>
<!-- Node3&#45;&gt;Node31 -->
<g id="edge29" class="edge">
<title>Node3&#45;&gt;Node31</title>
<path fill="none" stroke="#191970" d="M1691.7218,-67.535C1976.5887,-19.0189 2655.1625,-70.159 2923,-31 2932.0756,-29.6731 2941.7652,-27.4269 2950.5743,-25.0502"/>
<polygon fill="#191970" stroke="#191970" points="1690.9904,-64.11 1681.7556,-69.3032 1692.2133,-71.0024 1690.9904,-64.11"/>
</g>
<!-- Node32 -->
<g id="node31" class="node">
<title>Node32</title>
<g id="a_node31"><a xlink:href="projectmanagerui_8cpp" target="_top" xlink:title="projectmanagerui.cpp">
<polygon fill="none" stroke="#000000" points="3047.5,-6 3047.5,-25 3156.5,-25 3156.5,-6 3047.5,-6"/>
<text text-anchor="middle" x="3102" y="-13" font-family="FreeSans" font-size="10.00" fill="#000000">projectmanagerui.cpp</text>
</a>
</g>
</g>
<!-- Node3&#45;&gt;Node32 -->
<g id="edge30" class="edge">
<title>Node3&#45;&gt;Node32</title>
<path fill="none" stroke="#191970" d="M1691.7098,-67.5383C2002.047,-14.7584 2745.213,-70.5959 3039,-31 3048.8232,-29.6761 3059.3373,-27.4308 3068.9065,-25.054"/>
<polygon fill="#191970" stroke="#191970" points="1690.9933,-64.1106 1681.7544,-69.2964 1692.2107,-71.0039 1690.9933,-64.1106"/>
</g>
</g>
</svg>
