<?xml version="1.0" encoding="UTF-8" standalone="no"?>
<!DOCTYPE svg PUBLIC "-//W3C//DTD SVG 1.1//EN"
 "http://www.w3.org/Graphics/SVG/1.1/DTD/svg11.dtd">
<!-- Generated by graphviz version 2.38.0 (20140413.2041)
 -->
<!-- Title: main.h Pages: 1 -->
<svg width="1303pt" height="375pt"
 viewBox="0.00 0.00 1303.36 375.00" xmlns="http://www.w3.org/2000/svg" xmlns:xlink="http://www.w3.org/1999/xlink">
<g id="graph0" class="graph" transform="scale(1 1) rotate(0) translate(4 371)">
<title>main.h</title>
<!-- Node0 -->
<g id="node1" class="node"><title>Node0</title>
<polygon fill="#bfbfbf" stroke="black" points="605.501,-347.5 605.501,-366.5 650.501,-366.5 650.501,-347.5 605.501,-347.5"/>
<text text-anchor="middle" x="628.001" y="-354.5" font-family="FreeSans" font-size="10.00">main.h</text>
</g>
<!-- Node1 -->
<g id="node2" class="node"><title>Node1</title>
<polygon fill="none" stroke="#bfbfbf" points="736.501,-56.5 736.501,-75.5 771.501,-75.5 771.501,-56.5 736.501,-56.5"/>
<text text-anchor="middle" x="754.001" y="-63.5" font-family="FreeSans" font-size="10.00">map</text>
</g>
<!-- Node0&#45;&gt;Node1 -->
<g id="edge1" class="edge"><title>Node0&#45;&gt;Node1</title>
<path fill="none" stroke="midnightblue" d="M650.818,-350.371C672.071,-344.053 703.35,-331.852 723.001,-311 782.667,-247.687 766.998,-130.608 758.113,-85.4415"/>
<polygon fill="midnightblue" stroke="midnightblue" points="761.524,-84.6553 756.05,-75.5842 754.673,-86.0891 761.524,-84.6553"/>
</g>
<!-- Node2 -->
<g id="node3" class="node"><title>Node2</title>
<polygon fill="none" stroke="#bfbfbf" points="146.501,-286 146.501,-305 213.501,-305 213.501,-286 146.501,-286"/>
<text text-anchor="middle" x="180.001" y="-293" font-family="FreeSans" font-size="10.00">wx/aui/aui.h</text>
</g>
<!-- Node0&#45;&gt;Node2 -->
<g id="edge2" class="edge"><title>Node0&#45;&gt;Node2</title>
<path fill="none" stroke="midnightblue" d="M605.332,-355.184C543.386,-352.591 366.324,-342.741 223.001,-311 219.51,-310.227 215.906,-309.273 212.339,-308.225"/>
<polygon fill="midnightblue" stroke="midnightblue" points="213.096,-304.793 202.505,-305.101 210.976,-311.465 213.096,-304.793"/>
</g>
<!-- Node3 -->
<g id="node4" class="node"><title>Node3</title>
<polygon fill="none" stroke="#bfbfbf" points="232.001,-286 232.001,-305 300.001,-305 300.001,-286 232.001,-286"/>
<text text-anchor="middle" x="266.001" y="-293" font-family="FreeSans" font-size="10.00">wx/toolbar.h</text>
</g>
<!-- Node0&#45;&gt;Node3 -->
<g id="edge3" class="edge"><title>Node0&#45;&gt;Node3</title>
<path fill="none" stroke="midnightblue" d="M605.302,-354.251C552.658,-349.88 418.391,-336.923 309.001,-311 305.601,-310.194 302.089,-309.233 298.606,-308.194"/>
<polygon fill="midnightblue" stroke="midnightblue" points="299.572,-304.828 288.981,-305.123 297.444,-311.497 299.572,-304.828"/>
</g>
<!-- Node4 -->
<g id="node5" class="node"><title>Node4</title>
<polygon fill="none" stroke="#bfbfbf" points="318.501,-286 318.501,-305 391.501,-305 391.501,-286 318.501,-286"/>
<text text-anchor="middle" x="355.001" y="-293" font-family="FreeSans" font-size="10.00">wx/docview.h</text>
</g>
<!-- Node0&#45;&gt;Node4 -->
<g id="edge4" class="edge"><title>Node0&#45;&gt;Node4</title>
<path fill="none" stroke="midnightblue" d="M605.262,-352.343C564.173,-345.546 474.953,-329.925 401.001,-311 397.571,-310.122 394.019,-309.139 390.479,-308.109"/>
<polygon fill="midnightblue" stroke="midnightblue" points="391.231,-304.68 380.646,-305.131 389.202,-311.379 391.231,-304.68"/>
</g>
<!-- Node5 -->
<g id="node6" class="node"><title>Node5</title>
<polygon fill="none" stroke="#bfbfbf" points="410.001,-286 410.001,-305 488.001,-305 488.001,-286 410.001,-286"/>
<text text-anchor="middle" x="449.001" y="-293" font-family="FreeSans" font-size="10.00">wx/notebook.h</text>
</g>
<!-- Node0&#45;&gt;Node5 -->
<g id="edge5" class="edge"><title>Node0&#45;&gt;Node5</title>
<path fill="none" stroke="midnightblue" d="M605.33,-348.464C574.803,-338.317 520.178,-320.16 484.262,-308.221"/>
<polygon fill="midnightblue" stroke="midnightblue" points="485.257,-304.863 474.663,-305.03 483.049,-311.506 485.257,-304.863"/>
</g>
<!-- Node6 -->
<g id="node7" class="node"><title>Node6</title>
<polygon fill="none" stroke="#bfbfbf" points="18.0005,-112.5 18.0005,-131.5 92.0005,-131.5 92.0005,-112.5 18.0005,-112.5"/>
<text text-anchor="middle" x="55.0005" y="-119.5" font-family="FreeSans" font-size="10.00">wx/dynarray.h</text>
</g>
<!-- Node0&#45;&gt;Node6 -->
<g id="edge6" class="edge"><title>Node0&#45;&gt;Node6</title>
<path fill="none" stroke="midnightblue" d="M605.117,-347.927C584.526,-340.111 553.921,-327.096 530.001,-311 513.305,-299.766 515.269,-288.439 497.001,-280 366.272,-219.61 304.64,-306.694 175.001,-244 125.682,-220.149 84.9269,-167.497 66.15,-140.186"/>
<polygon fill="midnightblue" stroke="midnightblue" points="68.92,-138.032 60.4469,-131.671 63.104,-141.928 68.92,-138.032"/>
</g>
<!-- Node7 -->
<g id="node8" class="node"><title>Node7</title>
<g id="a_node8"><a xlink:href="cbeditor_8h" target="_top" xlink:title="cbeditor.h">
<polygon fill="none" stroke="black" points="984.501,-224.5 984.501,-243.5 1043.5,-243.5 1043.5,-224.5 984.501,-224.5"/>
<text text-anchor="middle" x="1014" y="-231.5" font-family="FreeSans" font-size="10.00">cbeditor.h</text>
</a>
</g>
</g>
<!-- Node0&#45;&gt;Node7 -->
<g id="edge7" class="edge"><title>Node0&#45;&gt;Node7</title>
<path fill="none" stroke="midnightblue" d="M650.742,-356.444C722.694,-357.368 943.66,-356.386 995.001,-311 1011.05,-296.813 1014.54,-271.315 1014.85,-253.795"/>
<polygon fill="midnightblue" stroke="midnightblue" points="1018.35,-253.578 1014.7,-243.632 1011.35,-253.684 1018.35,-253.578"/>
</g>
<!-- Node26 -->
<g id="node19" class="node"><title>Node26</title>
<g id="a_node19"><a xlink:href="cbexception_8h" target="_top" xlink:title="cbexception.h">
<polygon fill="none" stroke="red" points="148.001,-112.5 148.001,-131.5 224.001,-131.5 224.001,-112.5 148.001,-112.5"/>
<text text-anchor="middle" x="186.001" y="-119.5" font-family="FreeSans" font-size="10.00">cbexception.h</text>
</a>
</g>
</g>
<!-- Node0&#45;&gt;Node26 -->
<g id="edge27" class="edge"><title>Node0&#45;&gt;Node26</title>
<path fill="none" stroke="midnightblue" d="M605.393,-355.676C513.19,-354.126 168.952,-346.014 137.001,-311 91.9374,-261.618 146.025,-176.009 172.745,-139.87"/>
<polygon fill="midnightblue" stroke="midnightblue" points="175.612,-141.881 178.871,-131.8 170.037,-137.648 175.612,-141.881"/>
</g>
<!-- Node30 -->
<g id="node21" class="node"><title>Node30</title>
<polygon fill="none" stroke="#bfbfbf" points="184.001,-224.5 184.001,-243.5 246.001,-243.5 246.001,-224.5 184.001,-224.5"/>
<text text-anchor="middle" x="215.001" y="-231.5" font-family="FreeSans" font-size="10.00">manager.h</text>
</g>
<!-- Node0&#45;&gt;Node30 -->
<g id="edge26" class="edge"><title>Node0&#45;&gt;Node30</title>
<path fill="none" stroke="midnightblue" d="M617.41,-347.277C594.16,-328.204 539.932,-284.153 530.001,-280 418.312,-233.293 379.419,-263.882 260.001,-244 258.9,-243.817 257.786,-243.627 256.662,-243.431"/>
<polygon fill="midnightblue" stroke="midnightblue" points="256.891,-239.915 246.424,-241.555 255.629,-246.8 256.891,-239.915"/>
</g>
<!-- Node31 -->
<g id="node22" class="node"><title>Node31</title>
<g id="a_node22"><a xlink:href="cbplugin_8h" target="_top" xlink:title="cbplugin.h">
<polygon fill="none" stroke="black" points="412.001,-224.5 412.001,-243.5 472.001,-243.5 472.001,-224.5 412.001,-224.5"/>
<text text-anchor="middle" x="442.001" y="-231.5" font-family="FreeSans" font-size="10.00">cbplugin.h</text>
</a>
</g>
</g>
<!-- Node0&#45;&gt;Node31 -->
<g id="edge28" class="edge"><title>Node0&#45;&gt;Node31</title>
<path fill="none" stroke="midnightblue" d="M644.634,-347.464C657.488,-339.841 674.34,-327.356 682.001,-311 687.844,-298.523 690.799,-290.602 682.001,-280 657.111,-250.01 544.174,-239.886 482.502,-236.562"/>
<polygon fill="midnightblue" stroke="midnightblue" points="482.503,-233.058 472.34,-236.051 482.152,-240.049 482.503,-233.058"/>
</g>
<!-- Node37 -->
<g id="node27" class="node"><title>Node37</title>
<g id="a_node27"><a xlink:href="sdk__events_8h" target="_top" xlink:title="sdk_events.h">
<polygon fill="none" stroke="black" points="532.001,-56.5 532.001,-75.5 604.001,-75.5 604.001,-56.5 532.001,-56.5"/>
<text text-anchor="middle" x="568.001" y="-63.5" font-family="FreeSans" font-size="10.00">sdk_events.h</text>
</a>
</g>
</g>
<!-- Node0&#45;&gt;Node37 -->
<g id="edge56" class="edge"><title>Node0&#45;&gt;Node37</title>
<path fill="none" stroke="midnightblue" d="M650.528,-347.59C666.635,-340.376 687.433,-328.37 699.001,-311 734.606,-257.533 753.3,-222.933 720.001,-168 702.07,-138.421 680.072,-150.742 651.001,-132 627.159,-116.63 601.764,-96.0465 585.435,-82.1955"/>
<polygon fill="midnightblue" stroke="midnightblue" points="587.648,-79.4825 577.779,-75.6293 583.091,-84.7961 587.648,-79.4825"/>
</g>
<!-- Node41 -->
<g id="node29" class="node"><title>Node41</title>
<g id="a_node29"><a xlink:href="find__replace_8h" target="_top" xlink:title="find_replace.h">
<polygon fill="none" stroke="black" points="806.001,-286 806.001,-305 882.001,-305 882.001,-286 806.001,-286"/>
<text text-anchor="middle" x="844.001" y="-293" font-family="FreeSans" font-size="10.00">find_replace.h</text>
</a>
</g>
</g>
<!-- Node0&#45;&gt;Node41 -->
<g id="edge55" class="edge"><title>Node0&#45;&gt;Node41</title>
<path fill="none" stroke="midnightblue" d="M650.557,-349.842C682.182,-341.202 741.491,-324.972 792.001,-311 795.804,-309.948 799.764,-308.849 803.724,-307.749"/>
<polygon fill="midnightblue" stroke="midnightblue" points="804.79,-311.085 813.485,-305.032 802.913,-304.341 804.79,-311.085"/>
</g>
<!-- Node42 -->
<g id="node30" class="node"><title>Node42</title>
<g id="a_node30"><a xlink:href="recentitemslist_8h" target="_top" xlink:title="recentitemslist.h">
<polygon fill="none" stroke="black" points="900.001,-286 900.001,-305 986.001,-305 986.001,-286 900.001,-286"/>
<text text-anchor="middle" x="943.001" y="-293" font-family="FreeSans" font-size="10.00">recentitemslist.h</text>
</a>
</g>
</g>
<!-- Node0&#45;&gt;Node42 -->
<g id="edge57" class="edge"><title>Node0&#45;&gt;Node42</title>
<path fill="none" stroke="midnightblue" d="M650.669,-352.921C696.4,-346.533 802.861,-330.774 891.001,-311 895.441,-310.004 900.069,-308.864 904.652,-307.67"/>
<polygon fill="midnightblue" stroke="midnightblue" points="905.782,-310.99 914.525,-305.007 903.959,-304.232 905.782,-310.99"/>
</g>
<!-- Node43 -->
<g id="node31" class="node"><title>Node43</title>
<g id="a_node31"><a xlink:href="sc__base__types_8h" target="_top" xlink:title="scripting/bindings\l/sc_base_types.h">
<polygon fill="none" stroke="red" points="582.501,-280.5 582.501,-310.5 673.501,-310.5 673.501,-280.5 582.501,-280.5"/>
<text text-anchor="start" x="590.501" y="-298.5" font-family="FreeSans" font-size="10.00">scripting/bindings</text>
<text text-anchor="middle" x="628.001" y="-287.5" font-family="FreeSans" font-size="10.00">/sc_base_types.h</text>
</a>
</g>
</g>
<!-- Node0&#45;&gt;Node43 -->
<g id="edge58" class="edge"><title>Node0&#45;&gt;Node43</title>
<path fill="none" stroke="midnightblue" d="M628.001,-347.475C628.001,-340.471 628.001,-330.192 628.001,-320.696"/>
<polygon fill="midnightblue" stroke="midnightblue" points="631.501,-320.523 628.001,-310.523 624.501,-320.523 631.501,-320.523"/>
</g>
<!-- Node69 -->
<g id="node32" class="node"><title>Node69</title>
<g id="a_node32"><a xlink:href="scrollingdialog_8h" target="_top" xlink:title="scrollingdialog.h">
<polygon fill="none" stroke="red" points="1165.5,-224.5 1165.5,-243.5 1250.5,-243.5 1250.5,-224.5 1165.5,-224.5"/>
<text text-anchor="middle" x="1208" y="-231.5" font-family="FreeSans" font-size="10.00">scrollingdialog.h</text>
</a>
</g>
</g>
<!-- Node0&#45;&gt;Node69 -->
<g id="edge65" class="edge"><title>Node0&#45;&gt;Node69</title>
<path fill="none" stroke="midnightblue" d="M650.801,-355.474C711.472,-353.624 881.551,-345.506 1018,-311 1078.61,-295.674 1145.66,-265.512 1181.67,-248.149"/>
<polygon fill="midnightblue" stroke="midnightblue" points="1183.51,-251.142 1190.97,-243.614 1180.45,-244.85 1183.51,-251.142"/>
</g>
<!-- Node8 -->
<g id="node9" class="node"><title>Node8</title>
<polygon fill="none" stroke="#bfbfbf" points="979.501,-112.5 979.501,-131.5 1056.5,-131.5 1056.5,-112.5 979.501,-112.5"/>
<text text-anchor="middle" x="1018" y="-119.5" font-family="FreeSans" font-size="10.00">wx/hashmap.h</text>
</g>
<!-- Node7&#45;&gt;Node8 -->
<g id="edge8" class="edge"><title>Node7&#45;&gt;Node8</title>
<path fill="none" stroke="midnightblue" d="M1043.58,-232.373C1075.08,-229.928 1123.56,-220.682 1147,-188 1170.71,-154.941 1112.57,-137.679 1066.79,-129.468"/>
<polygon fill="midnightblue" stroke="midnightblue" points="1067.1,-125.971 1056.66,-127.757 1065.93,-132.873 1067.1,-125.971"/>
</g>
<!-- Node9 -->
<g id="node10" class="node"><title>Node9</title>
<polygon fill="none" stroke="#bfbfbf" points="970.001,-168.5 970.001,-187.5 1046,-187.5 1046,-168.5 970.001,-168.5"/>
<text text-anchor="middle" x="1008" y="-175.5" font-family="FreeSans" font-size="10.00">wx/datetime.h</text>
</g>
<!-- Node7&#45;&gt;Node9 -->
<g id="edge9" class="edge"><title>Node7&#45;&gt;Node9</title>
<path fill="none" stroke="midnightblue" d="M1013.01,-224.083C1012.21,-216.927 1011.07,-206.635 1010.08,-197.691"/>
<polygon fill="midnightblue" stroke="midnightblue" points="1013.56,-197.303 1008.97,-187.751 1006.6,-198.076 1013.56,-197.303"/>
</g>
<!-- Node10 -->
<g id="node11" class="node"><title>Node10</title>
<polygon fill="none" stroke="#bfbfbf" points="1064,-168.5 1064,-187.5 1138,-187.5 1138,-168.5 1064,-168.5"/>
<text text-anchor="middle" x="1101" y="-175.5" font-family="FreeSans" font-size="10.00">wx/fontmap.h</text>
</g>
<!-- Node7&#45;&gt;Node10 -->
<g id="edge10" class="edge"><title>Node7&#45;&gt;Node10</title>
<path fill="none" stroke="midnightblue" d="M1027.98,-224.324C1041.55,-215.9 1062.38,-202.971 1078.33,-193.074"/>
<polygon fill="midnightblue" stroke="midnightblue" points="1080.41,-195.902 1087.06,-187.655 1076.71,-189.954 1080.41,-195.902"/>
</g>
<!-- Node11 -->
<g id="node12" class="node"><title>Node11</title>
<polygon fill="none" stroke="#bfbfbf" points="892.001,-168.5 892.001,-187.5 952.001,-187.5 952.001,-168.5 892.001,-168.5"/>
<text text-anchor="middle" x="922.001" y="-175.5" font-family="FreeSans" font-size="10.00">wx/timer.h</text>
</g>
<!-- Node7&#45;&gt;Node11 -->
<g id="edge11" class="edge"><title>Node7&#45;&gt;Node11</title>
<path fill="none" stroke="midnightblue" d="M999.219,-224.324C984.733,-215.822 962.427,-202.729 945.507,-192.797"/>
<polygon fill="midnightblue" stroke="midnightblue" points="947.141,-189.698 936.745,-187.655 943.598,-195.735 947.141,-189.698"/>
</g>
<!-- Node12 -->
<g id="node13" class="node"><title>Node12</title>
<g id="a_node13"><a xlink:href="settings_8h" target="_top" xlink:title="settings.h">
<polygon fill="none" stroke="black" points="725.501,-0.5 725.501,-19.5 782.501,-19.5 782.501,-0.5 725.501,-0.5"/>
<text text-anchor="middle" x="754.001" y="-7.5" font-family="FreeSans" font-size="10.00">settings.h</text>
</a>
</g>
</g>
<!-- Node7&#45;&gt;Node12 -->
<g id="edge12" class="edge"><title>Node7&#45;&gt;Node12</title>
<path fill="none" stroke="midnightblue" d="M1043.78,-231.584C1094.88,-227.893 1191.24,-214.704 1164,-168 1087.05,-36.0609 879.344,-14.4795 792.74,-11.3291"/>
<polygon fill="midnightblue" stroke="midnightblue" points="792.654,-7.8251 782.554,-11.0245 792.445,-14.822 792.654,-7.8251"/>
</g>
<!-- Node13 -->
<g id="node14" class="node"><title>Node13</title>
<g id="a_node14"><a xlink:href="editorbase_8h" target="_top" xlink:title="editorbase.h">
<polygon fill="none" stroke="red" points="806.001,-168.5 806.001,-187.5 874.001,-187.5 874.001,-168.5 806.001,-168.5"/>
<text text-anchor="middle" x="840.001" y="-175.5" font-family="FreeSans" font-size="10.00">editorbase.h</text>
</a>
</g>
</g>
<!-- Node7&#45;&gt;Node13 -->
<g id="edge13" class="edge"><title>Node7&#45;&gt;Node13</title>
<path fill="none" stroke="midnightblue" d="M986.43,-224.444C956.903,-215.28 909.883,-200.688 877.118,-190.519"/>
<polygon fill="midnightblue" stroke="midnightblue" points="878.03,-187.138 867.442,-187.516 875.956,-193.823 878.03,-187.138"/>
</g>
<!-- Node28 -->
<g id="node20" class="node"><title>Node28</title>
<g id="a_node20"><a xlink:href="printing__types_8h" target="_top" xlink:title="printing_types.h">
<polygon fill="none" stroke="red" points="1200.5,-112.5 1200.5,-131.5 1283.5,-131.5 1283.5,-112.5 1200.5,-112.5"/>
<text text-anchor="middle" x="1242" y="-119.5" font-family="FreeSans" font-size="10.00">printing_types.h</text>
</a>
</g>
</g>
<!-- Node7&#45;&gt;Node28 -->
<g id="edge24" class="edge"><title>Node7&#45;&gt;Node28</title>
<path fill="none" stroke="midnightblue" d="M1043.7,-229.95C1093.81,-224.245 1192.24,-210.465 1218,-188 1231.44,-176.282 1237.36,-156.344 1239.97,-141.632"/>
<polygon fill="midnightblue" stroke="midnightblue" points="1243.45,-142.015 1241.38,-131.624 1236.52,-141.035 1243.45,-142.015"/>
</g>
<!-- Node13&#45;&gt;Node8 -->
<g id="edge15" class="edge"><title>Node13&#45;&gt;Node8</title>
<path fill="none" stroke="midnightblue" d="M868.205,-168.444C898.411,-159.28 946.512,-144.688 980.03,-134.519"/>
<polygon fill="midnightblue" stroke="midnightblue" points="981.375,-137.769 989.928,-131.516 979.342,-131.07 981.375,-137.769"/>
</g>
<!-- Node13&#45;&gt;Node12 -->
<g id="edge20" class="edge"><title>Node13&#45;&gt;Node12</title>
<path fill="none" stroke="midnightblue" d="M841.159,-168.46C842.601,-155.912 844.38,-131.835 840.001,-112 834.084,-85.2049 831.276,-77.3201 814.001,-56 804.071,-43.7463 790.106,-33.0142 778.147,-25.107"/>
<polygon fill="midnightblue" stroke="midnightblue" points="779.815,-22.0206 769.493,-19.6325 776.073,-27.9364 779.815,-22.0206"/>
</g>
<!-- Node14 -->
<g id="node15" class="node"><title>Node14</title>
<g id="a_node15"><a xlink:href="prep_8h" target="_top" xlink:title="prep.h">
<polygon fill="none" stroke="black" points="302.501,-0.5 302.501,-19.5 345.501,-19.5 345.501,-0.5 302.501,-0.5"/>
<text text-anchor="middle" x="324.001" y="-7.5" font-family="FreeSans" font-size="10.00">prep.h</text>
</a>
</g>
</g>
<!-- Node13&#45;&gt;Node14 -->
<g id="edge14" class="edge"><title>Node13&#45;&gt;Node14</title>
<path fill="none" stroke="midnightblue" d="M805.865,-170.193C767.753,-162.289 704.409,-148.24 651.001,-132 558.431,-103.853 537.766,-89.5105 447.001,-56 415.879,-44.5099 380.28,-31.5004 355.415,-22.4354"/>
<polygon fill="midnightblue" stroke="midnightblue" points="356.383,-19.063 345.789,-18.9275 353.986,-25.6399 356.383,-19.063"/>
</g>
<!-- Node17 -->
<g id="node16" class="node"><title>Node17</title>
<g id="a_node16"><a xlink:href="globals_8h" target="_top" xlink:title="globals.h">
<polygon fill="none" stroke="red" points="384.001,-56.5 384.001,-75.5 438.001,-75.5 438.001,-56.5 384.001,-56.5"/>
<text text-anchor="middle" x="411.001" y="-63.5" font-family="FreeSans" font-size="10.00">globals.h</text>
</a>
</g>
</g>
<!-- Node13&#45;&gt;Node17 -->
<g id="edge16" class="edge"><title>Node13&#45;&gt;Node17</title>
<path fill="none" stroke="midnightblue" d="M805.699,-175.31C749.43,-171.77 634.528,-161.309 542.001,-132 523.052,-125.998 519.798,-120.85 502.001,-112 480.429,-101.274 455.95,-89.1728 437.819,-80.2231"/>
<polygon fill="midnightblue" stroke="midnightblue" points="438.974,-76.8902 428.457,-75.604 435.876,-83.1676 438.974,-76.8902"/>
</g>
<!-- Node13&#45;&gt;Node26 -->
<g id="edge21" class="edge"><title>Node13&#45;&gt;Node26</title>
<path fill="none" stroke="midnightblue" d="M805.759,-174.173C697.242,-165.213 360.7,-137.425 234.478,-127.003"/>
<polygon fill="midnightblue" stroke="midnightblue" points="234.595,-123.501 224.341,-126.166 234.019,-130.477 234.595,-123.501"/>
</g>
<!-- Node17&#45;&gt;Node12 -->
<g id="edge19" class="edge"><title>Node17&#45;&gt;Node12</title>
<path fill="none" stroke="midnightblue" d="M438.202,-60.7176C498.789,-51.1791 645.014,-28.1583 715.173,-17.1128"/>
<polygon fill="midnightblue" stroke="midnightblue" points="716.021,-20.5226 725.355,-15.5099 714.932,-13.6077 716.021,-20.5226"/>
</g>
<!-- Node19 -->
<g id="node17" class="node"><title>Node19</title>
<polygon fill="none" stroke="#bfbfbf" points="155.001,-0.5 155.001,-19.5 217.001,-19.5 217.001,-0.5 155.001,-0.5"/>
<text text-anchor="middle" x="186.001" y="-7.5" font-family="FreeSans" font-size="10.00">wx/string.h</text>
</g>
<!-- Node17&#45;&gt;Node19 -->
<g id="edge17" class="edge"><title>Node17&#45;&gt;Node19</title>
<path fill="none" stroke="midnightblue" d="M383.86,-58.4863C344.85,-49.1239 272.622,-31.7891 227.06,-20.8542"/>
<polygon fill="midnightblue" stroke="midnightblue" points="227.746,-17.4196 217.205,-18.4892 226.112,-24.2263 227.746,-17.4196"/>
</g>
<!-- Node23 -->
<g id="node18" class="node"><title>Node23</title>
<polygon fill="none" stroke="#bfbfbf" points="385.501,-0.5 385.501,-19.5 436.501,-19.5 436.501,-0.5 385.501,-0.5"/>
<text text-anchor="middle" x="411.001" y="-7.5" font-family="FreeSans" font-size="10.00">wx/intl.h</text>
</g>
<!-- Node17&#45;&gt;Node23 -->
<g id="edge18" class="edge"><title>Node17&#45;&gt;Node23</title>
<path fill="none" stroke="midnightblue" d="M411.001,-56.083C411.001,-49.0059 411.001,-38.8611 411.001,-29.9865"/>
<polygon fill="midnightblue" stroke="midnightblue" points="414.501,-29.751 411.001,-19.7511 407.501,-29.7511 414.501,-29.751"/>
</g>
<!-- Node26&#45;&gt;Node17 -->
<g id="edge23" class="edge"><title>Node26&#45;&gt;Node17</title>
<path fill="none" stroke="midnightblue" d="M221.652,-112.444C263.321,-102.443 331.934,-85.9761 374.123,-75.8507"/>
<polygon fill="midnightblue" stroke="midnightblue" points="375.083,-79.2198 383.99,-73.4826 373.449,-72.4131 375.083,-79.2198"/>
</g>
<!-- Node26&#45;&gt;Node19 -->
<g id="edge22" class="edge"><title>Node26&#45;&gt;Node19</title>
<path fill="none" stroke="midnightblue" d="M186.001,-112.368C186.001,-94.617 186.001,-53.6664 186.001,-29.5974"/>
<polygon fill="midnightblue" stroke="midnightblue" points="189.501,-29.5914 186.001,-19.5914 182.501,-29.5915 189.501,-29.5914"/>
</g>
<!-- Node28&#45;&gt;Node12 -->
<g id="edge25" class="edge"><title>Node28&#45;&gt;Node12</title>
<path fill="none" stroke="midnightblue" d="M1237.5,-112.424C1229.39,-97.9473 1210.82,-68.9738 1186,-56 1118.04,-20.4686 885.336,-12.9912 792.598,-11.4185"/>
<polygon fill="midnightblue" stroke="midnightblue" points="792.57,-7.91776 782.517,-11.2617 792.461,-14.9169 792.57,-7.91776"/>
</g>
<!-- Node31&#45;&gt;Node12 -->
<g id="edge33" class="edge"><title>Node31&#45;&gt;Node12</title>
<path fill="none" stroke="midnightblue" d="M448.451,-224.28C458.493,-211.08 478.911,-185.689 500.001,-168 575.619,-104.573 679.244,-48.6538 727.398,-24.1549"/>
<polygon fill="midnightblue" stroke="midnightblue" points="729.181,-27.1755 736.533,-19.5467 726.028,-20.9257 729.181,-27.1755"/>
</g>
<!-- Node31&#45;&gt;Node14 -->
<g id="edge54" class="edge"><title>Node31&#45;&gt;Node14</title>
<path fill="none" stroke="midnightblue" d="M411.579,-226.971C386.897,-220.764 352.468,-208.958 329.001,-188 280.936,-145.074 241.404,-114.235 269.001,-56 275.129,-43.0681 286.995,-32.6167 298.141,-25.0528"/>
<polygon fill="midnightblue" stroke="midnightblue" points="300.195,-27.8958 306.802,-19.6136 296.472,-21.9678 300.195,-27.8958"/>
</g>
<!-- Node31&#45;&gt;Node17 -->
<g id="edge34" class="edge"><title>Node31&#45;&gt;Node17</title>
<path fill="none" stroke="midnightblue" d="M438.897,-224.485C435.737,-215.518 430.901,-200.933 428.001,-188 419.983,-152.245 415.045,-109.652 412.681,-85.7277"/>
<polygon fill="midnightblue" stroke="midnightblue" points="416.149,-85.2213 411.725,-75.5942 409.18,-85.8787 416.149,-85.2213"/>
</g>
<!-- Node31&#45;&gt;Node19 -->
<g id="edge32" class="edge"><title>Node31&#45;&gt;Node19</title>
<path fill="none" stroke="midnightblue" d="M411.758,-233.533C348.497,-232.797 202.792,-221.016 139.001,-132 115.163,-98.7364 148.791,-51.7809 170.355,-27.2947"/>
<polygon fill="midnightblue" stroke="midnightblue" points="173.198,-29.3713 177.365,-19.6299 168.033,-24.647 173.198,-29.3713"/>
</g>
<!-- Node31&#45;&gt;Node23 -->
<g id="edge31" class="edge"><title>Node31&#45;&gt;Node23</title>
<path fill="none" stroke="midnightblue" d="M436.684,-224.226C423.002,-201.057 386.821,-135.893 375.001,-76 373.279,-67.2793 372.058,-64.3878 375.001,-56 378.786,-45.2094 386.367,-35.084 393.6,-27.1808"/>
<polygon fill="midnightblue" stroke="midnightblue" points="396.326,-29.4005 400.838,-19.8145 391.333,-24.4943 396.326,-29.4005"/>
</g>
<!-- Node32 -->
<g id="node23" class="node"><title>Node32</title>
<polygon fill="none" stroke="#bfbfbf" points="546.001,-168.5 546.001,-187.5 606.001,-187.5 606.001,-168.5 546.001,-168.5"/>
<text text-anchor="middle" x="576.001" y="-175.5" font-family="FreeSans" font-size="10.00">wx/arrstr.h</text>
</g>
<!-- Node31&#45;&gt;Node32 -->
<g id="edge29" class="edge"><title>Node31&#45;&gt;Node32</title>
<path fill="none" stroke="midnightblue" d="M463.233,-224.444C485.384,-215.517 520.319,-201.439 545.437,-191.317"/>
<polygon fill="midnightblue" stroke="midnightblue" points="546.9,-194.501 554.867,-187.516 544.284,-188.008 546.9,-194.501"/>
</g>
<!-- Node33 -->
<g id="node24" class="node"><title>Node33</title>
<polygon fill="none" stroke="#bfbfbf" points="537.001,-0.5 537.001,-19.5 599.001,-19.5 599.001,-0.5 537.001,-0.5"/>
<text text-anchor="middle" x="568.001" y="-7.5" font-family="FreeSans" font-size="10.00">wx/event.h</text>
</g>
<!-- Node31&#45;&gt;Node33 -->
<g id="edge30" class="edge"><title>Node31&#45;&gt;Node33</title>
<path fill="none" stroke="midnightblue" d="M444.626,-224.249C452.981,-197.312 480.903,-113.971 523.001,-56 530.854,-45.1854 541.333,-34.5433 550.203,-26.3256"/>
<polygon fill="midnightblue" stroke="midnightblue" points="552.674,-28.8107 557.775,-19.5247 547.997,-23.6029 552.674,-28.8107"/>
</g>
<!-- Node34 -->
<g id="node25" class="node"><title>Node34</title>
<g id="a_node25"><a xlink:href="logger_8h" target="_top" xlink:title="logger.h">
<polygon fill="none" stroke="black" points="278.001,-56.5 278.001,-75.5 328.001,-75.5 328.001,-56.5 278.001,-56.5"/>
<text text-anchor="middle" x="303.001" y="-63.5" font-family="FreeSans" font-size="10.00">logger.h</text>
</a>
</g>
</g>
<!-- Node31&#45;&gt;Node34 -->
<g id="edge35" class="edge"><title>Node31&#45;&gt;Node34</title>
<path fill="none" stroke="midnightblue" d="M416.662,-224.367C397.401,-216.906 371.059,-204.686 352.001,-188 329.37,-168.187 325.211,-159.911 314.001,-132 308.062,-117.214 305.329,-99.2868 304.072,-86.0075"/>
<polygon fill="midnightblue" stroke="midnightblue" points="307.539,-85.4413 303.303,-75.7302 300.559,-85.9634 307.539,-85.4413"/>
</g>
<!-- Node35 -->
<g id="node26" class="node"><title>Node35</title>
<g id="a_node26"><a xlink:href="manager_8h" target="_top" xlink:title="manager.h">
<polygon fill="none" stroke="red" points="660.001,-112.5 660.001,-131.5 722.001,-131.5 722.001,-112.5 660.001,-112.5"/>
<text text-anchor="middle" x="691.001" y="-119.5" font-family="FreeSans" font-size="10.00">manager.h</text>
</a>
</g>
</g>
<!-- Node31&#45;&gt;Node35 -->
<g id="edge39" class="edge"><title>Node31&#45;&gt;Node35</title>
<path fill="none" stroke="midnightblue" d="M452.158,-224.425C468.854,-210.72 503.586,-183.82 537.001,-168 573.574,-150.685 618.233,-138.53 650.021,-131.255"/>
<polygon fill="midnightblue" stroke="midnightblue" points="650.863,-134.653 659.863,-129.064 649.342,-127.82 650.863,-134.653"/>
</g>
<!-- Node39 -->
<g id="node28" class="node"><title>Node39</title>
<g id="a_node28"><a xlink:href="pluginmanager_8h" target="_top" xlink:title="pluginmanager.h">
<polygon fill="none" stroke="red" points="624.501,-168.5 624.501,-187.5 711.501,-187.5 711.501,-168.5 624.501,-168.5"/>
<text text-anchor="middle" x="668.001" y="-175.5" font-family="FreeSans" font-size="10.00">pluginmanager.h</text>
</a>
</g>
</g>
<!-- Node31&#45;&gt;Node39 -->
<g id="edge48" class="edge"><title>Node31&#45;&gt;Node39</title>
<path fill="none" stroke="midnightblue" d="M472.012,-225.829C510.523,-216.627 577.698,-200.577 622.509,-189.87"/>
<polygon fill="midnightblue" stroke="midnightblue" points="623.358,-193.265 632.271,-187.537 621.731,-186.457 623.358,-193.265"/>
</g>
<!-- Node34&#45;&gt;Node12 -->
<g id="edge38" class="edge"><title>Node34&#45;&gt;Node12</title>
<path fill="none" stroke="midnightblue" d="M328.32,-61.7963C342.117,-60.0603 359.495,-57.8896 375.001,-56 499.244,-40.859 646.484,-23.5618 715.139,-15.534"/>
<polygon fill="midnightblue" stroke="midnightblue" points="715.941,-18.9641 725.467,-14.3269 715.128,-12.0115 715.941,-18.9641"/>
</g>
<!-- Node34&#45;&gt;Node14 -->
<g id="edge36" class="edge"><title>Node34&#45;&gt;Node14</title>
<path fill="none" stroke="midnightblue" d="M306.468,-56.083C309.312,-48.77 313.43,-38.1814 316.96,-29.1034"/>
<polygon fill="midnightblue" stroke="midnightblue" points="320.235,-30.3397 320.597,-19.7511 313.711,-27.8025 320.235,-30.3397"/>
</g>
<!-- Node34&#45;&gt;Node19 -->
<g id="edge37" class="edge"><title>Node34&#45;&gt;Node19</title>
<path fill="none" stroke="midnightblue" d="M284.462,-56.4435C265.378,-47.6356 235.426,-33.8116 213.565,-23.722"/>
<polygon fill="midnightblue" stroke="midnightblue" points="214.999,-20.5292 204.453,-19.5164 212.066,-26.8849 214.999,-20.5292"/>
</g>
<!-- Node35&#45;&gt;Node1 -->
<g id="edge40" class="edge"><title>Node35&#45;&gt;Node1</title>
<path fill="none" stroke="midnightblue" d="M701.123,-112.324C710.527,-104.263 724.745,-92.0765 736.069,-82.3695"/>
<polygon fill="midnightblue" stroke="midnightblue" points="738.379,-84.9993 743.694,-75.8339 733.824,-79.6844 738.379,-84.9993"/>
</g>
<!-- Node35&#45;&gt;Node12 -->
<g id="edge42" class="edge"><title>Node35&#45;&gt;Node12</title>
<path fill="none" stroke="midnightblue" d="M695.795,-112.114C702.606,-99.5461 715.529,-75.8912 727.001,-56 732.3,-46.8102 738.365,-36.6707 743.402,-28.3466"/>
<polygon fill="midnightblue" stroke="midnightblue" points="746.531,-29.9373 748.735,-19.5744 740.549,-26.3005 746.531,-29.9373"/>
</g>
<!-- Node35&#45;&gt;Node33 -->
<g id="edge41" class="edge"><title>Node35&#45;&gt;Node33</title>
<path fill="none" stroke="midnightblue" d="M681.349,-112.368C660.601,-93.8137 611.512,-49.9129 585.263,-26.4376"/>
<polygon fill="midnightblue" stroke="midnightblue" points="587.394,-23.6487 577.607,-19.5914 582.728,-28.8665 587.394,-23.6487"/>
</g>
<!-- Node35&#45;&gt;Node37 -->
<g id="edge43" class="edge"><title>Node35&#45;&gt;Node37</title>
<path fill="none" stroke="midnightblue" d="M671.511,-112.444C651.358,-103.596 619.678,-89.6875 596.67,-79.5865"/>
<polygon fill="midnightblue" stroke="midnightblue" points="597.962,-76.3316 587.399,-75.5164 595.149,-82.7411 597.962,-76.3316"/>
</g>
<!-- Node37&#45;&gt;Node12 -->
<g id="edge46" class="edge"><title>Node37&#45;&gt;Node12</title>
<path fill="none" stroke="midnightblue" d="M597.473,-56.4435C629.358,-47.1865 680.328,-32.3888 715.392,-22.2089"/>
<polygon fill="midnightblue" stroke="midnightblue" points="716.65,-25.4884 725.277,-19.339 714.698,-18.766 716.65,-25.4884"/>
</g>
<!-- Node37&#45;&gt;Node14 -->
<g id="edge47" class="edge"><title>Node37&#45;&gt;Node14</title>
<path fill="none" stroke="midnightblue" d="M531.997,-57.0321C484.28,-46.4716 400.85,-28.0076 355.508,-17.9729"/>
<polygon fill="midnightblue" stroke="midnightblue" points="356.161,-14.5328 345.64,-15.7892 354.648,-21.3674 356.161,-14.5328"/>
</g>
<!-- Node37&#45;&gt;Node23 -->
<g id="edge45" class="edge"><title>Node37&#45;&gt;Node23</title>
<path fill="none" stroke="midnightblue" d="M543.123,-56.4435C516.711,-47.3591 474.785,-32.9388 445.259,-22.7831"/>
<polygon fill="midnightblue" stroke="midnightblue" points="446.356,-19.4593 435.761,-19.5164 444.079,-26.0787 446.356,-19.4593"/>
</g>
<!-- Node37&#45;&gt;Node33 -->
<g id="edge44" class="edge"><title>Node37&#45;&gt;Node33</title>
<path fill="none" stroke="midnightblue" d="M568.001,-56.083C568.001,-49.0059 568.001,-38.8611 568.001,-29.9865"/>
<polygon fill="midnightblue" stroke="midnightblue" points="571.501,-29.751 568.001,-19.7511 564.501,-29.7511 571.501,-29.751"/>
</g>
<!-- Node39&#45;&gt;Node1 -->
<g id="edge49" class="edge"><title>Node39&#45;&gt;Node1</title>
<path fill="none" stroke="midnightblue" d="M685.505,-168.373C699.589,-160.619 718.955,-148 731.001,-132 741.34,-118.266 747.317,-99.4862 750.572,-85.6433"/>
<polygon fill="midnightblue" stroke="midnightblue" points="754.012,-86.2953 752.631,-75.7908 747.159,-84.8636 754.012,-86.2953"/>
</g>
<!-- Node39&#45;&gt;Node6 -->
<g id="edge50" class="edge"><title>Node39&#45;&gt;Node6</title>
<path fill="none" stroke="midnightblue" d="M624.375,-169.262C621.207,-168.802 618.058,-168.374 615.001,-168 404.414,-142.213 350.28,-151.303 139.001,-132 127.139,-130.916 114.35,-129.614 102.415,-128.342"/>
<polygon fill="midnightblue" stroke="midnightblue" points="102.51,-124.832 92.1918,-127.237 101.758,-131.791 102.51,-124.832"/>
</g>
<!-- Node39&#45;&gt;Node12 -->
<g id="edge52" class="edge"><title>Node39&#45;&gt;Node12</title>
<path fill="none" stroke="midnightblue" d="M692.267,-168.371C710.274,-160.98 734.469,-148.848 751.001,-132 776.321,-106.194 789.363,-90.9199 780.001,-56 777.347,-46.1031 771.931,-36.1315 766.726,-28.099"/>
<polygon fill="midnightblue" stroke="midnightblue" points="769.464,-25.9055 760.891,-19.6811 763.711,-29.8935 769.464,-25.9055"/>
</g>
<!-- Node39&#45;&gt;Node17 -->
<g id="edge51" class="edge"><title>Node39&#45;&gt;Node17</title>
<path fill="none" stroke="midnightblue" d="M624.447,-169.289C590.548,-162.296 542.887,-150.255 504.001,-132 475.651,-118.692 446.645,-96.8439 428.732,-82.1959"/>
<polygon fill="midnightblue" stroke="midnightblue" points="430.803,-79.3662 420.881,-75.6525 426.322,-84.7435 430.803,-79.3662"/>
</g>
<!-- Node39&#45;&gt;Node35 -->
<g id="edge53" class="edge"><title>Node39&#45;&gt;Node35</title>
<path fill="none" stroke="midnightblue" d="M671.798,-168.083C674.913,-160.77 679.423,-150.181 683.29,-141.103"/>
<polygon fill="midnightblue" stroke="midnightblue" points="686.575,-142.323 687.273,-131.751 680.134,-139.58 686.575,-142.323"/>
</g>
<!-- Node43&#45;&gt;Node7 -->
<g id="edge64" class="edge"><title>Node43&#45;&gt;Node7</title>
<path fill="none" stroke="midnightblue" d="M673.796,-287.441C750.122,-275.676 902.073,-252.253 974.21,-241.134"/>
<polygon fill="midnightblue" stroke="midnightblue" points="974.905,-244.568 984.255,-239.585 973.839,-237.649 974.905,-244.568"/>
</g>
<!-- Node43&#45;&gt;Node17 -->
<g id="edge61" class="edge"><title>Node43&#45;&gt;Node17</title>
<path fill="none" stroke="midnightblue" d="M582.206,-284.108C576.086,-282.724 569.891,-281.326 564.001,-280 492.468,-263.899 448.843,-301.225 403.001,-244 365.703,-197.441 389.507,-119.843 403.242,-84.9553"/>
<polygon fill="midnightblue" stroke="midnightblue" points="406.53,-86.1603 407.102,-75.5809 400.058,-83.4949 406.53,-86.1603"/>
</g>
<!-- Node43&#45;&gt;Node19 -->
<g id="edge59" class="edge"><title>Node43&#45;&gt;Node19</title>
<path fill="none" stroke="midnightblue" d="M582.229,-284.007C576.105,-282.639 569.903,-281.272 564.001,-280 485.951,-263.178 465.791,-261.981 388.001,-244 302.434,-224.221 59.9563,-203.529 9.00051,-132 -31.2832,-75.4521 81.0962,-37.072 145.063,-20.4045"/>
<polygon fill="midnightblue" stroke="midnightblue" points="146.049,-23.7654 154.883,-17.9164 144.33,-16.9798 146.049,-23.7654"/>
</g>
<!-- Node43&#45;&gt;Node30 -->
<g id="edge62" class="edge"><title>Node43&#45;&gt;Node30</title>
<path fill="none" stroke="midnightblue" d="M582.259,-282.843C577.461,-281.801 572.642,-280.829 568.001,-280 432.327,-255.768 396.129,-265.532 260.001,-244 258.899,-243.826 257.783,-243.644 256.658,-243.455"/>
<polygon fill="midnightblue" stroke="midnightblue" points="256.874,-239.938 246.413,-241.62 255.64,-246.828 256.874,-239.938"/>
</g>
<!-- Node43&#45;&gt;Node32 -->
<g id="edge60" class="edge"><title>Node43&#45;&gt;Node32</title>
<path fill="none" stroke="midnightblue" d="M621.624,-280.337C612.17,-259.338 594.439,-219.955 584.085,-196.958"/>
<polygon fill="midnightblue" stroke="midnightblue" points="587.2,-195.351 579.904,-187.669 580.818,-198.225 587.2,-195.351"/>
</g>
<!-- Node43&#45;&gt;Node39 -->
<g id="edge63" class="edge"><title>Node43&#45;&gt;Node39</title>
<path fill="none" stroke="midnightblue" d="M632.905,-280.337C640.145,-259.433 653.694,-220.31 661.673,-197.27"/>
<polygon fill="midnightblue" stroke="midnightblue" points="665.033,-198.264 664.998,-187.669 658.418,-195.973 665.033,-198.264"/>
</g>
<!-- Node69&#45;&gt;Node12 -->
<g id="edge66" class="edge"><title>Node69&#45;&gt;Node12</title>
<path fill="none" stroke="midnightblue" d="M1218.93,-224.448C1238.13,-208.648 1277.27,-172.752 1292,-132 1308.67,-85.8789 1258,-73.0159 1212,-56 1135.35,-27.6437 888.716,-15.8706 792.733,-12.2851"/>
<polygon fill="midnightblue" stroke="midnightblue" points="792.711,-8.78208 782.59,-11.9159 792.456,-15.7775 792.711,-8.78208"/>
</g>
</g>
</svg>
