<?xml version="1.0" encoding="UTF-8" standalone="no"?>
<!DOCTYPE svg PUBLIC "-//W3C//DTD SVG 1.1//EN"
 "http://www.w3.org/Graphics/SVG/1.1/DTD/svg11.dtd">
<!-- Generated by graphviz version 2.38.0 (20140413.2041)
 -->
<!-- Title: nativeparser_base.cpp Pages: 1 -->
<svg width="1929pt" height="252pt"
 viewBox="0.00 0.00 1929.24 252.00" xmlns="http://www.w3.org/2000/svg" xmlns:xlink="http://www.w3.org/1999/xlink">
<g id="graph0" class="graph" transform="scale(1 1) rotate(0) translate(4 248)">
<title>nativeparser_base.cpp</title>
<!-- Node0 -->
<g id="node1" class="node"><title>Node0</title>
<polygon fill="#bfbfbf" stroke="black" points="1464,-224.5 1464,-243.5 1576,-243.5 1576,-224.5 1464,-224.5"/>
<text text-anchor="middle" x="1520" y="-231.5" font-family="FreeSans" font-size="10.00">nativeparser_base.cpp</text>
</g>
<!-- Node1 -->
<g id="node2" class="node"><title>Node1</title>
<g id="a_node2"><a xlink:href="sdk_8h" target="_top" xlink:title="sdk.h">
<polygon fill="none" stroke="black" points="1087.5,-168.5 1087.5,-187.5 1126.5,-187.5 1126.5,-168.5 1087.5,-168.5"/>
<text text-anchor="middle" x="1107" y="-175.5" font-family="FreeSans" font-size="10.00">sdk.h</text>
</a>
</g>
</g>
<!-- Node0&#45;&gt;Node1 -->
<g id="edge1" class="edge"><title>Node0&#45;&gt;Node1</title>
<path fill="none" stroke="midnightblue" d="M1463.87,-225.661C1375.11,-214.055 1205.38,-191.863 1136.82,-182.899"/>
<polygon fill="midnightblue" stroke="midnightblue" points="1137.09,-179.404 1126.72,-181.578 1136.18,-186.345 1137.09,-179.404"/>
</g>
<!-- Node137 -->
<g id="node24" class="node"><title>Node137</title>
<g id="a_node24"><a xlink:href="nativeparser__base_8h" target="_top" xlink:title="nativeparser_base.h">
<polygon fill="none" stroke="black" points="1575.5,-168.5 1575.5,-187.5 1676.5,-187.5 1676.5,-168.5 1575.5,-168.5"/>
<text text-anchor="middle" x="1626" y="-175.5" font-family="FreeSans" font-size="10.00">nativeparser_base.h</text>
</a>
</g>
</g>
<!-- Node0&#45;&gt;Node137 -->
<g id="edge27" class="edge"><title>Node0&#45;&gt;Node137</title>
<path fill="none" stroke="midnightblue" d="M1537.03,-224.324C1554.03,-215.664 1580.38,-202.242 1599.99,-192.249"/>
<polygon fill="midnightblue" stroke="midnightblue" points="1601.69,-195.312 1609.01,-187.655 1598.51,-189.075 1601.69,-195.312"/>
</g>
<!-- Node143 -->
<g id="node29" class="node"><title>Node143</title>
<g id="a_node29"><a xlink:href="tokenizer_8h" target="_top" xlink:title="parser/tokenizer.h">
<polygon fill="none" stroke="black" points="1795,-112.5 1795,-131.5 1887,-131.5 1887,-112.5 1795,-112.5"/>
<text text-anchor="middle" x="1841" y="-119.5" font-family="FreeSans" font-size="10.00">parser/tokenizer.h</text>
</a>
</g>
</g>
<!-- Node0&#45;&gt;Node143 -->
<g id="edge40" class="edge"><title>Node0&#45;&gt;Node143</title>
<path fill="none" stroke="midnightblue" d="M1556.46,-224.488C1590.16,-216.282 1641.47,-202.936 1685,-188 1730.83,-172.276 1782.44,-149.793 1813.31,-135.812"/>
<polygon fill="midnightblue" stroke="midnightblue" points="1814.92,-138.924 1822.57,-131.591 1812.02,-132.554 1814.92,-138.924"/>
</g>
<!-- Node145 -->
<g id="node32" class="node"><title>Node145</title>
<g id="a_node32"><a xlink:href="cclogger_8h" target="_top" xlink:title="parser/cclogger.h">
<polygon fill="none" stroke="black" points="1236,-112.5 1236,-131.5 1326,-131.5 1326,-112.5 1236,-112.5"/>
<text text-anchor="middle" x="1281" y="-119.5" font-family="FreeSans" font-size="10.00">parser/cclogger.h</text>
</a>
</g>
</g>
<!-- Node0&#45;&gt;Node145 -->
<g id="edge47" class="edge"><title>Node0&#45;&gt;Node145</title>
<path fill="none" stroke="midnightblue" d="M1501.25,-224.368C1459.36,-205.091 1358.03,-158.454 1308.79,-135.789"/>
<polygon fill="midnightblue" stroke="midnightblue" points="1310.21,-132.593 1299.67,-131.591 1307.29,-138.952 1310.21,-132.593"/>
</g>
<!-- Node2 -->
<g id="node3" class="node"><title>Node2</title>
<g id="a_node3"><a xlink:href="sdk__common_8h" target="_top" xlink:title="sdk_common.h">
<polygon fill="none" stroke="red" points="806,-112.5 806,-131.5 888,-131.5 888,-112.5 806,-112.5"/>
<text text-anchor="middle" x="847" y="-119.5" font-family="FreeSans" font-size="10.00">sdk_common.h</text>
</a>
</g>
</g>
<!-- Node1&#45;&gt;Node2 -->
<g id="edge2" class="edge"><title>Node1&#45;&gt;Node2</title>
<path fill="none" stroke="midnightblue" d="M1087.46,-172.941C1047.68,-164.681 956.198,-145.679 898.237,-133.641"/>
<polygon fill="midnightblue" stroke="midnightblue" points="898.68,-130.159 888.178,-131.552 897.257,-137.013 898.68,-130.159"/>
</g>
<!-- Node3 -->
<g id="node4" class="node"><title>Node3</title>
<polygon fill="none" stroke="#bfbfbf" points="813,-56.5 813,-75.5 881,-75.5 881,-56.5 813,-56.5"/>
<text text-anchor="middle" x="847" y="-63.5" font-family="FreeSans" font-size="10.00">wx/wxprec.h</text>
</g>
<!-- Node2&#45;&gt;Node3 -->
<g id="edge3" class="edge"><title>Node2&#45;&gt;Node3</title>
<path fill="none" stroke="midnightblue" d="M847,-112.083C847,-105.006 847,-94.8611 847,-85.9865"/>
<polygon fill="midnightblue" stroke="midnightblue" points="850.5,-85.751 847,-75.7511 843.5,-85.7511 850.5,-85.751"/>
</g>
<!-- Node4 -->
<g id="node5" class="node"><title>Node4</title>
<g id="a_node5"><a xlink:href="prep_8h" target="_top" xlink:title="prep.h">
<polygon fill="none" stroke="black" points="975.5,-56.5 975.5,-75.5 1018.5,-75.5 1018.5,-56.5 975.5,-56.5"/>
<text text-anchor="middle" x="997" y="-63.5" font-family="FreeSans" font-size="10.00">prep.h</text>
</a>
</g>
</g>
<!-- Node2&#45;&gt;Node4 -->
<g id="edge4" class="edge"><title>Node2&#45;&gt;Node4</title>
<path fill="none" stroke="midnightblue" d="M870.768,-112.444C896.484,-103.186 937.593,-88.3866 965.871,-78.2066"/>
<polygon fill="midnightblue" stroke="midnightblue" points="967.068,-81.4955 975.291,-74.8151 964.697,-74.9093 967.068,-81.4955"/>
</g>
<!-- Node5 -->
<g id="node6" class="node"><title>Node5</title>
<polygon fill="none" stroke="#bfbfbf" points="0,-56.5 0,-75.5 54,-75.5 54,-56.5 0,-56.5"/>
<text text-anchor="middle" x="27" y="-63.5" font-family="FreeSans" font-size="10.00">wx/app.h</text>
</g>
<!-- Node2&#45;&gt;Node5 -->
<g id="edge5" class="edge"><title>Node2&#45;&gt;Node5</title>
<path fill="none" stroke="midnightblue" d="M805.91,-121.345C690.355,-121.744 352.73,-118.973 64.2571,-75.8818"/>
<polygon fill="midnightblue" stroke="midnightblue" points="64.4276,-72.3678 54.0164,-74.3318 63.38,-79.289 64.4276,-72.3678"/>
</g>
<!-- Node6 -->
<g id="node7" class="node"><title>Node6</title>
<polygon fill="none" stroke="#bfbfbf" points="1300,-0.5 1300,-19.5 1360,-19.5 1360,-0.5 1300,-0.5"/>
<text text-anchor="middle" x="1330" y="-7.5" font-family="FreeSans" font-size="10.00">wx/arrstr.h</text>
</g>
<!-- Node2&#45;&gt;Node6 -->
<g id="edge6" class="edge"><title>Node2&#45;&gt;Node6</title>
<path fill="none" stroke="midnightblue" d="M863.49,-112.337C880.479,-103.371 907.695,-88.8979 931,-76 946.676,-67.3246 948.999,-61.6541 966,-56 1025.33,-36.2674 1207.85,-20.3271 1289.64,-13.9736"/>
<polygon fill="midnightblue" stroke="midnightblue" points="1290.09,-17.4493 1299.79,-13.1939 1289.55,-10.4698 1290.09,-17.4493"/>
</g>
<!-- Node7 -->
<g id="node8" class="node"><title>Node7</title>
<polygon fill="none" stroke="#bfbfbf" points="72.5,-56.5 72.5,-75.5 151.5,-75.5 151.5,-56.5 72.5,-56.5"/>
<text text-anchor="middle" x="112" y="-63.5" font-family="FreeSans" font-size="10.00">wx/bmpbuttn.h</text>
</g>
<!-- Node2&#45;&gt;Node7 -->
<g id="edge7" class="edge"><title>Node2&#45;&gt;Node7</title>
<path fill="none" stroke="midnightblue" d="M805.796,-120.023C700.248,-117.154 411.448,-106.989 161.741,-76.0838"/>
<polygon fill="midnightblue" stroke="midnightblue" points="162.112,-72.6029 151.755,-74.834 161.243,-79.5488 162.112,-72.6029"/>
</g>
<!-- Node8 -->
<g id="node9" class="node"><title>Node8</title>
<polygon fill="none" stroke="#bfbfbf" points="169.5,-56.5 169.5,-75.5 234.5,-75.5 234.5,-56.5 169.5,-56.5"/>
<text text-anchor="middle" x="202" y="-63.5" font-family="FreeSans" font-size="10.00">wx/button.h</text>
</g>
<!-- Node2&#45;&gt;Node8 -->
<g id="edge8" class="edge"><title>Node2&#45;&gt;Node8</title>
<path fill="none" stroke="midnightblue" d="M805.846,-119.866C709.472,-116.796 461.555,-106.495 244.905,-75.9268"/>
<polygon fill="midnightblue" stroke="midnightblue" points="245.333,-72.4525 234.938,-74.5029 244.343,-79.3821 245.333,-72.4525"/>
</g>
<!-- Node9 -->
<g id="node10" class="node"><title>Node9</title>
<polygon fill="none" stroke="#bfbfbf" points="253,-56.5 253,-75.5 333,-75.5 333,-56.5 253,-56.5"/>
<text text-anchor="middle" x="293" y="-63.5" font-family="FreeSans" font-size="10.00">wx/checkbox.h</text>
</g>
<!-- Node2&#45;&gt;Node9 -->
<g id="edge9" class="edge"><title>Node2&#45;&gt;Node9</title>
<path fill="none" stroke="midnightblue" d="M805.944,-118.637C721.323,-113.488 521.207,-99.8713 343.138,-76.0342"/>
<polygon fill="midnightblue" stroke="midnightblue" points="343.442,-72.5435 333.063,-74.6713 342.503,-79.4803 343.442,-72.5435"/>
</g>
<!-- Node10 -->
<g id="node11" class="node"><title>Node10</title>
<polygon fill="none" stroke="#bfbfbf" points="351,-56.5 351,-75.5 425,-75.5 425,-56.5 351,-56.5"/>
<text text-anchor="middle" x="388" y="-63.5" font-family="FreeSans" font-size="10.00">wx/checklst.h</text>
</g>
<!-- Node2&#45;&gt;Node10 -->
<g id="edge10" class="edge"><title>Node2&#45;&gt;Node10</title>
<path fill="none" stroke="midnightblue" d="M805.817,-117.676C733.101,-111.555 577.022,-97.2865 435.289,-76.0795"/>
<polygon fill="midnightblue" stroke="midnightblue" points="435.521,-72.5749 425.11,-74.5406 434.474,-79.4962 435.521,-72.5749"/>
</g>
<!-- Node11 -->
<g id="node12" class="node"><title>Node11</title>
<polygon fill="none" stroke="#bfbfbf" points="443.5,-56.5 443.5,-75.5 510.5,-75.5 510.5,-56.5 443.5,-56.5"/>
<text text-anchor="middle" x="477" y="-63.5" font-family="FreeSans" font-size="10.00">wx/choice.h</text>
</g>
<!-- Node2&#45;&gt;Node11 -->
<g id="edge11" class="edge"><title>Node2&#45;&gt;Node11</title>
<path fill="none" stroke="midnightblue" d="M805.819,-116.265C745.564,-109.134 629.635,-94.6421 520.918,-76.0504"/>
<polygon fill="midnightblue" stroke="midnightblue" points="521.208,-72.5488 510.759,-74.2972 520.018,-79.4469 521.208,-72.5488"/>
</g>
<!-- Node12 -->
<g id="node13" class="node"><title>Node12</title>
<polygon fill="none" stroke="#bfbfbf" points="529,-56.5 529,-75.5 603,-75.5 603,-56.5 529,-56.5"/>
<text text-anchor="middle" x="566" y="-63.5" font-family="FreeSans" font-size="10.00">wx/choicdlg.h</text>
</g>
<!-- Node2&#45;&gt;Node12 -->
<g id="edge12" class="edge"><title>Node2&#45;&gt;Node12</title>
<path fill="none" stroke="midnightblue" d="M805.813,-113.165C760.903,-104.61 686.632,-90.4288 613.058,-76.1991"/>
<polygon fill="midnightblue" stroke="midnightblue" points="613.637,-72.7464 603.155,-74.2826 612.307,-79.6189 613.637,-72.7464"/>
</g>
<!-- Node13 -->
<g id="node14" class="node"><title>Node13</title>
<polygon fill="none" stroke="#bfbfbf" points="621,-56.5 621,-75.5 693,-75.5 693,-56.5 621,-56.5"/>
<text text-anchor="middle" x="657" y="-63.5" font-family="FreeSans" font-size="10.00">wx/colordlg.h</text>
</g>
<!-- Node2&#45;&gt;Node13 -->
<g id="edge13" class="edge"><title>Node2&#45;&gt;Node13</title>
<path fill="none" stroke="midnightblue" d="M816.894,-112.444C784.374,-103.201 732.421,-88.4356 696.609,-78.2572"/>
<polygon fill="midnightblue" stroke="midnightblue" points="697.541,-74.8837 686.965,-75.5164 695.627,-81.617 697.541,-74.8837"/>
</g>
<!-- Node14 -->
<g id="node15" class="node"><title>Node14</title>
<polygon fill="none" stroke="#bfbfbf" points="711.5,-56.5 711.5,-75.5 794.5,-75.5 794.5,-56.5 711.5,-56.5"/>
<text text-anchor="middle" x="753" y="-63.5" font-family="FreeSans" font-size="10.00">wx/combobox.h</text>
</g>
<!-- Node2&#45;&gt;Node14 -->
<g id="edge14" class="edge"><title>Node2&#45;&gt;Node14</title>
<path fill="none" stroke="midnightblue" d="M831.897,-112.324C817.097,-103.822 794.306,-90.7288 777.018,-80.7975"/>
<polygon fill="midnightblue" stroke="midnightblue" points="778.48,-77.6009 768.065,-75.6545 774.993,-83.6707 778.48,-77.6009"/>
</g>
<!-- Node53 -->
<g id="node16" class="node"><title>Node53</title>
<polygon fill="none" stroke="#bfbfbf" points="1465,-0.5 1465,-19.5 1527,-19.5 1527,-0.5 1465,-0.5"/>
<text text-anchor="middle" x="1496" y="-7.5" font-family="FreeSans" font-size="10.00">wx/string.h</text>
</g>
<!-- Node2&#45;&gt;Node53 -->
<g id="edge15" class="edge"><title>Node2&#45;&gt;Node53</title>
<path fill="none" stroke="midnightblue" d="M888.047,-120.393C954.332,-118.385 1088.39,-110.039 1196,-76 1214.2,-70.2442 1215.93,-62.1354 1234,-56 1309.43,-30.3905 1402.25,-18.8578 1454.72,-14.0618"/>
<polygon fill="midnightblue" stroke="midnightblue" points="1455.32,-17.5232 1464.97,-13.164 1454.71,-10.5499 1455.32,-17.5232"/>
</g>
<!-- Node56 -->
<g id="node17" class="node"><title>Node56</title>
<polygon fill="none" stroke="#bfbfbf" points="1110.5,-0.5 1110.5,-19.5 1175.5,-19.5 1175.5,-0.5 1110.5,-0.5"/>
<text text-anchor="middle" x="1143" y="-7.5" font-family="FreeSans" font-size="10.00">wx/thread.h</text>
</g>
<!-- Node2&#45;&gt;Node56 -->
<g id="edge16" class="edge"><title>Node2&#45;&gt;Node56</title>
<path fill="none" stroke="midnightblue" d="M855.674,-112.327C870.29,-98.2344 901.346,-70.4847 933,-56 962.322,-42.5822 1047.89,-26.7529 1100.31,-17.8963"/>
<polygon fill="midnightblue" stroke="midnightblue" points="1101.04,-21.3228 1110.33,-16.2207 1099.89,-14.4188 1101.04,-21.3228"/>
</g>
<!-- Node76 -->
<g id="node18" class="node"><title>Node76</title>
<g id="a_node18"><a xlink:href="cbexception_8h" target="_top" xlink:title="cbexception.h">
<polygon fill="none" stroke="red" points="1243,-56.5 1243,-75.5 1319,-75.5 1319,-56.5 1243,-56.5"/>
<text text-anchor="middle" x="1281" y="-63.5" font-family="FreeSans" font-size="10.00">cbexception.h</text>
</a>
</g>
</g>
<!-- Node2&#45;&gt;Node76 -->
<g id="edge17" class="edge"><title>Node2&#45;&gt;Node76</title>
<path fill="none" stroke="midnightblue" d="M888.08,-116.898C958.162,-109.735 1105.26,-93.9834 1229,-76 1230.28,-75.8147 1231.57,-75.6226 1232.87,-75.425"/>
<polygon fill="midnightblue" stroke="midnightblue" points="1233.65,-78.8448 1242.98,-73.8243 1232.56,-71.9308 1233.65,-78.8448"/>
</g>
<!-- Node111 -->
<g id="node19" class="node"><title>Node111</title>
<g id="a_node19"><a xlink:href="configmanager_8h" target="_top" xlink:title="configmanager.h">
<polygon fill="none" stroke="red" points="1715.5,-56.5 1715.5,-75.5 1802.5,-75.5 1802.5,-56.5 1715.5,-56.5"/>
<text text-anchor="middle" x="1759" y="-63.5" font-family="FreeSans" font-size="10.00">configmanager.h</text>
</a>
</g>
</g>
<!-- Node2&#45;&gt;Node111 -->
<g id="edge19" class="edge"><title>Node2&#45;&gt;Node111</title>
<path fill="none" stroke="midnightblue" d="M888.425,-119.353C1008.78,-114.432 1368.82,-98.7566 1667,-76 1679.25,-75.065 1692.4,-73.8843 1704.82,-72.6884"/>
<polygon fill="midnightblue" stroke="midnightblue" points="1705.43,-76.1452 1715.04,-71.6854 1704.75,-69.1787 1705.43,-76.1452"/>
</g>
<!-- Node115 -->
<g id="node21" class="node"><title>Node115</title>
<g id="a_node21"><a xlink:href="logmanager_8h" target="_top" xlink:title="logmanager.h">
<polygon fill="none" stroke="red" points="1337,-56.5 1337,-75.5 1411,-75.5 1411,-56.5 1337,-56.5"/>
<text text-anchor="middle" x="1374" y="-63.5" font-family="FreeSans" font-size="10.00">logmanager.h</text>
</a>
</g>
</g>
<!-- Node2&#45;&gt;Node115 -->
<g id="edge21" class="edge"><title>Node2&#45;&gt;Node115</title>
<path fill="none" stroke="midnightblue" d="M888.023,-118.55C969.649,-113.375 1158.36,-99.9174 1326.85,-76.0295"/>
<polygon fill="midnightblue" stroke="midnightblue" points="1327.5,-79.4733 1336.9,-74.5895 1326.5,-72.5442 1327.5,-79.4733"/>
</g>
<!-- Node123 -->
<g id="node22" class="node"><title>Node123</title>
<g id="a_node22"><a xlink:href="filemanager_8h" target="_top" xlink:title="filemanager.h">
<polygon fill="none" stroke="red" points="1113,-56.5 1113,-75.5 1187,-75.5 1187,-56.5 1113,-56.5"/>
<text text-anchor="middle" x="1150" y="-63.5" font-family="FreeSans" font-size="10.00">filemanager.h</text>
</a>
</g>
</g>
<!-- Node2&#45;&gt;Node123 -->
<g id="edge23" class="edge"><title>Node2&#45;&gt;Node123</title>
<path fill="none" stroke="midnightblue" d="M888.179,-113.661C944.047,-103.705 1043.63,-85.9572 1102.56,-75.4543"/>
<polygon fill="midnightblue" stroke="midnightblue" points="1103.49,-78.8444 1112.72,-73.6441 1102.26,-71.953 1103.49,-78.8444"/>
</g>
<!-- Node76&#45;&gt;Node53 -->
<g id="edge18" class="edge"><title>Node76&#45;&gt;Node53</title>
<path fill="none" stroke="midnightblue" d="M1315.07,-56.4435C1353.05,-46.9028 1414.47,-31.4766 1455.05,-21.2863"/>
<polygon fill="midnightblue" stroke="midnightblue" points="1456.04,-24.6457 1464.88,-18.8151 1454.33,-17.8566 1456.04,-24.6457"/>
</g>
<!-- Node89 -->
<g id="node20" class="node"><title>Node89</title>
<polygon fill="none" stroke="#bfbfbf" points="1671.5,-0.5 1671.5,-19.5 1706.5,-19.5 1706.5,-0.5 1671.5,-0.5"/>
<text text-anchor="middle" x="1689" y="-7.5" font-family="FreeSans" font-size="10.00">map</text>
</g>
<!-- Node111&#45;&gt;Node89 -->
<g id="edge20" class="edge"><title>Node111&#45;&gt;Node89</title>
<path fill="none" stroke="midnightblue" d="M1747.75,-56.324C1737.2,-48.1849 1721.2,-35.8395 1708.56,-26.0874"/>
<polygon fill="midnightblue" stroke="midnightblue" points="1710.51,-23.1707 1700.45,-19.8339 1706.23,-28.7132 1710.51,-23.1707"/>
</g>
<!-- Node115&#45;&gt;Node89 -->
<g id="edge22" class="edge"><title>Node115&#45;&gt;Node89</title>
<path fill="none" stroke="midnightblue" d="M1411.06,-58.6467C1474.93,-47.6986 1604.32,-25.5161 1661.16,-15.7725"/>
<polygon fill="midnightblue" stroke="midnightblue" points="1661.94,-19.1893 1671.21,-14.0499 1660.76,-12.2899 1661.94,-19.1893"/>
</g>
<!-- Node123&#45;&gt;Node53 -->
<g id="edge25" class="edge"><title>Node123&#45;&gt;Node53</title>
<path fill="none" stroke="midnightblue" d="M1187.03,-58.361C1191.73,-57.5491 1196.48,-56.7442 1201,-56 1291.48,-41.1182 1397.85,-25.3052 1454.9,-16.9614"/>
<polygon fill="midnightblue" stroke="midnightblue" points="1455.57,-20.4003 1464.96,-15.4923 1454.56,-13.4738 1455.57,-20.4003"/>
</g>
<!-- Node123&#45;&gt;Node56 -->
<g id="edge24" class="edge"><title>Node123&#45;&gt;Node56</title>
<path fill="none" stroke="midnightblue" d="M1148.84,-56.083C1147.92,-48.9272 1146.58,-38.6353 1145.42,-29.6911"/>
<polygon fill="midnightblue" stroke="midnightblue" points="1148.89,-29.2181 1144.13,-19.7511 1141.95,-30.1181 1148.89,-29.2181"/>
</g>
<!-- Node131 -->
<g id="node23" class="node"><title>Node131</title>
<polygon fill="none" stroke="#bfbfbf" points="1028.5,-0.5 1028.5,-19.5 1079.5,-19.5 1079.5,-0.5 1028.5,-0.5"/>
<text text-anchor="middle" x="1054" y="-7.5" font-family="FreeSans" font-size="10.00">memory</text>
</g>
<!-- Node123&#45;&gt;Node131 -->
<g id="edge26" class="edge"><title>Node123&#45;&gt;Node131</title>
<path fill="none" stroke="midnightblue" d="M1134.58,-56.324C1119.46,-47.8215 1096.18,-34.7288 1078.53,-24.7975"/>
<polygon fill="midnightblue" stroke="midnightblue" points="1079.82,-21.5066 1069.39,-19.6545 1076.39,-27.6077 1079.82,-21.5066"/>
</g>
<!-- Node137&#45;&gt;Node53 -->
<g id="edge29" class="edge"><title>Node137&#45;&gt;Node53</title>
<path fill="none" stroke="midnightblue" d="M1575.23,-173.519C1546.66,-168.651 1513.16,-157.444 1495,-132 1473.31,-101.616 1482.21,-55.1106 1489.69,-29.5058"/>
<polygon fill="midnightblue" stroke="midnightblue" points="1493.13,-30.2216 1492.81,-19.6317 1486.46,-28.1118 1493.13,-30.2216"/>
</g>
<!-- Node137&#45;&gt;Node89 -->
<g id="edge30" class="edge"><title>Node137&#45;&gt;Node89</title>
<path fill="none" stroke="midnightblue" d="M1676.77,-174.427C1745.44,-169.978 1863.13,-158.621 1896,-132 1916.78,-115.169 1913.02,-102.274 1918,-76 1919.65,-67.2664 1923.65,-62.8647 1918,-56 1892.78,-25.3451 1772.02,-15.2542 1716.74,-12.2066"/>
<polygon fill="midnightblue" stroke="midnightblue" points="1716.77,-8.70367 1706.6,-11.687 1716.41,-15.6945 1716.77,-8.70367"/>
</g>
<!-- Node138 -->
<g id="node25" class="node"><title>Node138</title>
<polygon fill="none" stroke="#bfbfbf" points="1715.5,-112.5 1715.5,-131.5 1776.5,-131.5 1776.5,-112.5 1715.5,-112.5"/>
<text text-anchor="middle" x="1746" y="-119.5" font-family="FreeSans" font-size="10.00">wx/wxcrt.h</text>
</g>
<!-- Node137&#45;&gt;Node138 -->
<g id="edge28" class="edge"><title>Node137&#45;&gt;Node138</title>
<path fill="none" stroke="midnightblue" d="M1645.01,-168.444C1664.59,-159.636 1695.31,-145.812 1717.73,-135.722"/>
<polygon fill="midnightblue" stroke="midnightblue" points="1719.39,-138.812 1727.07,-131.516 1716.52,-132.428 1719.39,-138.812"/>
</g>
<!-- Node139 -->
<g id="node26" class="node"><title>Node139</title>
<polygon fill="none" stroke="#bfbfbf" points="1654.5,-112.5 1654.5,-131.5 1697.5,-131.5 1697.5,-112.5 1654.5,-112.5"/>
<text text-anchor="middle" x="1676" y="-119.5" font-family="FreeSans" font-size="10.00">queue</text>
</g>
<!-- Node137&#45;&gt;Node139 -->
<g id="edge31" class="edge"><title>Node137&#45;&gt;Node139</title>
<path fill="none" stroke="midnightblue" d="M1634.26,-168.083C1641.46,-160.298 1652.11,-148.801 1660.85,-139.367"/>
<polygon fill="midnightblue" stroke="midnightblue" points="1663.67,-141.467 1667.9,-131.751 1658.53,-136.711 1663.67,-141.467"/>
</g>
<!-- Node140 -->
<g id="node27" class="node"><title>Node140</title>
<g id="a_node27"><a xlink:href="token_8h" target="_top" xlink:title="parser/token.h">
<polygon fill="none" stroke="red" points="1581.5,-56.5 1581.5,-75.5 1658.5,-75.5 1658.5,-56.5 1581.5,-56.5"/>
<text text-anchor="middle" x="1620" y="-63.5" font-family="FreeSans" font-size="10.00">parser/token.h</text>
</a>
</g>
</g>
<!-- Node137&#45;&gt;Node140 -->
<g id="edge32" class="edge"><title>Node137&#45;&gt;Node140</title>
<path fill="none" stroke="midnightblue" d="M1625.53,-168.368C1624.56,-150.617 1622.33,-109.666 1621.01,-85.5974"/>
<polygon fill="midnightblue" stroke="midnightblue" points="1624.51,-85.3859 1620.47,-75.5914 1617.52,-85.7672 1624.51,-85.3859"/>
</g>
<!-- Node141 -->
<g id="node28" class="node"><title>Node141</title>
<g id="a_node28"><a xlink:href="tokentree_8h" target="_top" xlink:title="parser/tokentree.h">
<polygon fill="none" stroke="red" points="1504,-112.5 1504,-131.5 1598,-131.5 1598,-112.5 1504,-112.5"/>
<text text-anchor="middle" x="1551" y="-119.5" font-family="FreeSans" font-size="10.00">parser/tokentree.h</text>
</a>
</g>
</g>
<!-- Node137&#45;&gt;Node141 -->
<g id="edge36" class="edge"><title>Node137&#45;&gt;Node141</title>
<path fill="none" stroke="midnightblue" d="M1613.95,-168.324C1602.54,-160.107 1585.17,-147.602 1571.57,-137.807"/>
<polygon fill="midnightblue" stroke="midnightblue" points="1573.43,-134.837 1563.27,-131.834 1569.34,-140.517 1573.43,-134.837"/>
</g>
<!-- Node140&#45;&gt;Node6 -->
<g id="edge33" class="edge"><title>Node140&#45;&gt;Node6</title>
<path fill="none" stroke="midnightblue" d="M1581.49,-57.8292C1526.52,-47.593 1426.03,-28.8822 1370.16,-18.4789"/>
<polygon fill="midnightblue" stroke="midnightblue" points="1370.74,-15.0268 1360.27,-16.637 1369.46,-21.9086 1370.74,-15.0268"/>
</g>
<!-- Node140&#45;&gt;Node53 -->
<g id="edge34" class="edge"><title>Node140&#45;&gt;Node53</title>
<path fill="none" stroke="midnightblue" d="M1600.35,-56.4435C1580.04,-47.5961 1548.1,-33.6875 1524.9,-23.5865"/>
<polygon fill="midnightblue" stroke="midnightblue" points="1526.12,-20.3002 1515.56,-19.5164 1523.33,-26.7181 1526.12,-20.3002"/>
</g>
<!-- Node140&#45;&gt;Node89 -->
<g id="edge35" class="edge"><title>Node140&#45;&gt;Node89</title>
<path fill="none" stroke="midnightblue" d="M1631.09,-56.324C1641.49,-48.1849 1657.26,-35.8395 1669.72,-26.0874"/>
<polygon fill="midnightblue" stroke="midnightblue" points="1671.99,-28.7533 1677.71,-19.8339 1667.68,-23.2407 1671.99,-28.7533"/>
</g>
<!-- Node141&#45;&gt;Node53 -->
<g id="edge37" class="edge"><title>Node141&#45;&gt;Node53</title>
<path fill="none" stroke="midnightblue" d="M1548.95,-112.246C1545.75,-99.4314 1538.89,-75.0255 1529,-56 1523.81,-46.0268 1516.55,-35.8498 1510.16,-27.7025"/>
<polygon fill="midnightblue" stroke="midnightblue" points="1512.73,-25.3143 1503.7,-19.7642 1507.29,-29.7309 1512.73,-25.3143"/>
</g>
<!-- Node141&#45;&gt;Node56 -->
<g id="edge38" class="edge"><title>Node141&#45;&gt;Node56</title>
<path fill="none" stroke="midnightblue" d="M1537.06,-112.318C1513.74,-98.2114 1464.96,-70.4427 1420,-56 1339.6,-30.1728 1241.09,-18.6902 1185.85,-13.9674"/>
<polygon fill="midnightblue" stroke="midnightblue" points="1185.98,-10.4662 1175.73,-13.1365 1185.41,-17.4428 1185.98,-10.4662"/>
</g>
<!-- Node141&#45;&gt;Node140 -->
<g id="edge39" class="edge"><title>Node141&#45;&gt;Node140</title>
<path fill="none" stroke="midnightblue" d="M1562.09,-112.324C1572.49,-104.185 1588.26,-91.8395 1600.72,-82.0874"/>
<polygon fill="midnightblue" stroke="midnightblue" points="1602.99,-84.7533 1608.71,-75.8339 1598.68,-79.2407 1602.99,-84.7533"/>
</g>
<!-- Node143&#45;&gt;Node53 -->
<g id="edge41" class="edge"><title>Node143&#45;&gt;Node53</title>
<path fill="none" stroke="midnightblue" d="M1811.03,-112.441C1783.35,-104.202 1741.3,-90.8345 1706,-76 1688.04,-68.4537 1685.19,-62.9639 1667,-56 1623.81,-39.4689 1572.25,-26.8119 1537.11,-19.1933"/>
<polygon fill="midnightblue" stroke="midnightblue" points="1537.72,-15.7447 1527.21,-17.0856 1536.26,-22.5912 1537.72,-15.7447"/>
</g>
<!-- Node143&#45;&gt;Node111 -->
<g id="edge42" class="edge"><title>Node143&#45;&gt;Node111</title>
<path fill="none" stroke="midnightblue" d="M1827.83,-112.324C1815.15,-103.979 1795.77,-91.2122 1780.79,-81.3524"/>
<polygon fill="midnightblue" stroke="midnightblue" points="1782.42,-78.2313 1772.14,-75.6545 1778.57,-84.0776 1782.42,-78.2313"/>
</g>
<!-- Node143&#45;&gt;Node123 -->
<g id="edge43" class="edge"><title>Node143&#45;&gt;Node123</title>
<path fill="none" stroke="midnightblue" d="M1794.9,-113.239C1791.56,-112.784 1788.23,-112.364 1785,-112 1541.13,-84.4989 1478.5,-97.0767 1234,-76 1222.13,-74.977 1209.34,-73.6974 1197.41,-72.4269"/>
<polygon fill="midnightblue" stroke="midnightblue" points="1197.5,-68.9169 1187.18,-71.3194 1196.75,-75.8761 1197.5,-68.9169"/>
</g>
<!-- Node143&#45;&gt;Node140 -->
<g id="edge44" class="edge"><title>Node143&#45;&gt;Node140</title>
<path fill="none" stroke="midnightblue" d="M1805.98,-112.444C1767.75,-103.102 1706.43,-88.1194 1664.74,-77.9326"/>
<polygon fill="midnightblue" stroke="midnightblue" points="1665.4,-74.4901 1654.85,-75.5164 1663.74,-81.2901 1665.4,-74.4901"/>
</g>
<!-- Node144 -->
<g id="node30" class="node"><title>Node144</title>
<polygon fill="none" stroke="#bfbfbf" points="1821,-56.5 1821,-75.5 1861,-75.5 1861,-56.5 1821,-56.5"/>
<text text-anchor="middle" x="1841" y="-63.5" font-family="FreeSans" font-size="10.00">stack</text>
</g>
<!-- Node143&#45;&gt;Node144 -->
<g id="edge45" class="edge"><title>Node143&#45;&gt;Node144</title>
<path fill="none" stroke="midnightblue" d="M1841,-112.083C1841,-105.006 1841,-94.8611 1841,-85.9865"/>
<polygon fill="midnightblue" stroke="midnightblue" points="1844.5,-85.751 1841,-75.7511 1837.5,-85.7511 1844.5,-85.751"/>
</g>
<!-- Node126 -->
<g id="node31" class="node"><title>Node126</title>
<polygon fill="none" stroke="#bfbfbf" points="1879.5,-56.5 1879.5,-75.5 1908.5,-75.5 1908.5,-56.5 1879.5,-56.5"/>
<text text-anchor="middle" x="1894" y="-63.5" font-family="FreeSans" font-size="10.00">list</text>
</g>
<!-- Node143&#45;&gt;Node126 -->
<g id="edge46" class="edge"><title>Node143&#45;&gt;Node126</title>
<path fill="none" stroke="midnightblue" d="M1849.75,-112.083C1857.47,-104.22 1868.9,-92.5688 1878.22,-83.0813"/>
<polygon fill="midnightblue" stroke="midnightblue" points="1880.9,-85.3396 1885.41,-75.7511 1875.91,-80.4363 1880.9,-85.3396"/>
</g>
<!-- Node145&#45;&gt;Node4 -->
<g id="edge53" class="edge"><title>Node145&#45;&gt;Node4</title>
<path fill="none" stroke="midnightblue" d="M1235.57,-113.674C1185.7,-105.42 1103.37,-91.1631 1033,-76 1031.54,-75.6862 1030.06,-75.3556 1028.56,-75.0139"/>
<polygon fill="midnightblue" stroke="midnightblue" points="1029.19,-71.5663 1018.65,-72.656 1027.57,-78.3761 1029.19,-71.5663"/>
</g>
<!-- Node145&#45;&gt;Node53 -->
<g id="edge48" class="edge"><title>Node145&#45;&gt;Node53</title>
<path fill="none" stroke="midnightblue" d="M1321.06,-112.492C1349.79,-105.346 1388.79,-93.4694 1420,-76 1443.52,-62.834 1466.46,-41.7315 1480.88,-27.1607"/>
<polygon fill="midnightblue" stroke="midnightblue" points="1483.53,-29.4539 1487.96,-19.8297 1478.5,-24.5906 1483.53,-29.4539"/>
</g>
<!-- Node145&#45;&gt;Node56 -->
<g id="edge49" class="edge"><title>Node145&#45;&gt;Node56</title>
<path fill="none" stroke="midnightblue" d="M1235.89,-115.812C1188.94,-109.375 1120.06,-96.6499 1104,-76 1091.55,-59.9871 1108.23,-39.6937 1123.47,-26.079"/>
<polygon fill="midnightblue" stroke="midnightblue" points="1125.75,-28.7387 1131.15,-19.6261 1121.25,-23.3794 1125.75,-28.7387"/>
</g>
<!-- Node145&#45;&gt;Node76 -->
<g id="edge51" class="edge"><title>Node145&#45;&gt;Node76</title>
<path fill="none" stroke="midnightblue" d="M1281,-112.083C1281,-105.006 1281,-94.8611 1281,-85.9865"/>
<polygon fill="midnightblue" stroke="midnightblue" points="1284.5,-85.751 1281,-75.7511 1277.5,-85.7511 1284.5,-85.751"/>
</g>
<!-- Node145&#45;&gt;Node115 -->
<g id="edge52" class="edge"><title>Node145&#45;&gt;Node115</title>
<path fill="none" stroke="midnightblue" d="M1295.94,-112.324C1310.59,-103.822 1333.13,-90.7288 1350.24,-80.7975"/>
<polygon fill="midnightblue" stroke="midnightblue" points="1352.2,-83.7027 1359.1,-75.6545 1348.69,-77.6491 1352.2,-83.7027"/>
</g>
<!-- Node145&#45;&gt;Node131 -->
<g id="edge50" class="edge"><title>Node145&#45;&gt;Node131</title>
<path fill="none" stroke="midnightblue" d="M1235.67,-119.271C1195.63,-115.716 1137.36,-105.393 1096,-76 1079.61,-64.3507 1068.03,-44.1046 1061.23,-29.2961"/>
<polygon fill="midnightblue" stroke="midnightblue" points="1064.27,-27.5021 1057.13,-19.6748 1057.84,-30.2465 1064.27,-27.5021"/>
</g>
</g>
</svg>
