<?xml version="1.0" encoding="UTF-8" standalone="no"?>
<!DOCTYPE svg PUBLIC "-//W3C//DTD SVG 1.1//EN"
 "http://www.w3.org/Graphics/SVG/1.1/DTD/svg11.dtd">
<!-- Generated by graphviz version 2.40.1 (20161225.0304)
 -->
<!-- Title: nativeparser_base.h Pages: 1 -->
<svg width="852pt" height="252pt"
 viewBox="0.00 0.00 852.00 252.00" xmlns="http://www.w3.org/2000/svg" xmlns:xlink="http://www.w3.org/1999/xlink">
<g id="graph0" class="graph" transform="scale(1 1) rotate(0) translate(4 248)">
<title>nativeparser_base.h</title>
<!-- Node14 -->
<g id="node1" class="node">
<title>Node14</title>
<polygon fill="#bfbfbf" stroke="#000000" points="363,-224.5 363,-243.5 464,-243.5 464,-224.5 363,-224.5"/>
<text text-anchor="middle" x="413.5" y="-231.5" font-family="FreeSans" font-size="10.00" fill="#000000">nativeparser_base.h</text>
</g>
<!-- Node15 -->
<g id="node2" class="node">
<title>Node15</title>
<g id="a_node2"><a xlink:href="nativeparser_8h" target="_top" xlink:title="nativeparser.h">
<polygon fill="none" stroke="#000000" points="319.5,-168.5 319.5,-187.5 395.5,-187.5 395.5,-168.5 319.5,-168.5"/>
<text text-anchor="middle" x="357.5" y="-175.5" font-family="FreeSans" font-size="10.00" fill="#000000">nativeparser.h</text>
</a>
</g>
</g>
<!-- Node14&#45;&gt;Node15 -->
<g id="edge1" class="edge">
<title>Node14&#45;&gt;Node15</title>
<path fill="none" stroke="#191970" d="M396.5751,-217.0751C386.9402,-207.4402 375.2196,-195.7196 367.1427,-187.6427"/>
<polygon fill="#191970" stroke="#191970" points="394.1996,-219.6493 403.7455,-224.2455 399.1493,-214.6996 394.1996,-219.6493"/>
</g>
<!-- Node31 -->
<g id="node17" class="node">
<title>Node31</title>
<g id="a_node17"><a xlink:href="nativeparser__base_8cpp" target="_top" xlink:title="nativeparser_base.cpp">
<polygon fill="none" stroke="#000000" points="413.5,-168.5 413.5,-187.5 525.5,-187.5 525.5,-168.5 413.5,-168.5"/>
<text text-anchor="middle" x="469.5" y="-175.5" font-family="FreeSans" font-size="10.00" fill="#000000">nativeparser_base.cpp</text>
</a>
</g>
</g>
<!-- Node14&#45;&gt;Node31 -->
<g id="edge24" class="edge">
<title>Node14&#45;&gt;Node31</title>
<path fill="none" stroke="#191970" d="M430.4249,-217.0751C440.0598,-207.4402 451.7804,-195.7196 459.8573,-187.6427"/>
<polygon fill="#191970" stroke="#191970" points="427.8507,-214.6996 423.2545,-224.2455 432.8004,-219.6493 427.8507,-214.6996"/>
</g>
<!-- Node16 -->
<g id="node3" class="node">
<title>Node16</title>
<g id="a_node3"><a xlink:href="ccoptionsdlg_8h" target="_top" xlink:title="ccoptionsdlg.h">
<polygon fill="none" stroke="#000000" points="5.5,-56.5 5.5,-75.5 83.5,-75.5 83.5,-56.5 5.5,-56.5"/>
<text text-anchor="middle" x="44.5" y="-63.5" font-family="FreeSans" font-size="10.00" fill="#000000">ccoptionsdlg.h</text>
</a>
</g>
</g>
<!-- Node15&#45;&gt;Node16 -->
<g id="edge2" class="edge">
<title>Node15&#45;&gt;Node16</title>
<path fill="none" stroke="#191970" d="M309.2922,-169.6002C270.7183,-162.077 215.6386,-149.5186 169.5,-132 127.974,-116.2328 82.6817,-89.7684 59.7075,-75.6153"/>
<polygon fill="#191970" stroke="#191970" points="308.7406,-173.0581 319.2197,-171.4964 310.054,-166.1824 308.7406,-173.0581"/>
</g>
<!-- Node19 -->
<g id="node6" class="node">
<title>Node19</title>
<g id="a_node6"><a xlink:href="coderefactoring_8h" target="_top" xlink:title="coderefactoring.h">
<polygon fill="none" stroke="#000000" points="202,-112.5 202,-131.5 293,-131.5 293,-112.5 202,-112.5"/>
<text text-anchor="middle" x="247.5" y="-119.5" font-family="FreeSans" font-size="10.00" fill="#000000">coderefactoring.h</text>
</a>
</g>
</g>
<!-- Node15&#45;&gt;Node19 -->
<g id="edge5" class="edge">
<title>Node15&#45;&gt;Node19</title>
<path fill="none" stroke="#191970" d="M329.2086,-163.5971C309.4889,-153.558 283.72,-140.4393 266.441,-131.6427"/>
<polygon fill="#191970" stroke="#191970" points="327.8399,-166.8277 338.3395,-168.2455 331.0157,-160.5896 327.8399,-166.8277"/>
</g>
<!-- Node20 -->
<g id="node7" class="node">
<title>Node20</title>
<g id="a_node7"><a xlink:href="codecompletion_8h" target="_top" xlink:title="codecompletion.h">
<polygon fill="none" stroke="#ff0000" points="101.5,-56.5 101.5,-75.5 193.5,-75.5 193.5,-56.5 101.5,-56.5"/>
<text text-anchor="middle" x="147.5" y="-63.5" font-family="FreeSans" font-size="10.00" fill="#000000">codecompletion.h</text>
</a>
</g>
</g>
<!-- Node15&#45;&gt;Node20 -->
<g id="edge10" class="edge">
<title>Node15&#45;&gt;Node20</title>
<path fill="none" stroke="#191970" d="M309.2215,-173.448C274.121,-168.1417 226.9225,-156.6855 192.5,-132 171.9888,-117.2908 157.8975,-90.1377 151.4649,-75.6689"/>
<polygon fill="#191970" stroke="#191970" points="308.8506,-176.9301 319.2385,-174.8464 309.8185,-169.9973 308.8506,-176.9301"/>
</g>
<!-- Node22 -->
<g id="node8" class="node">
<title>Node22</title>
<g id="a_node8"><a xlink:href="coderefactoring_8cpp" target="_top" xlink:title="coderefactoring.cpp">
<polygon fill="none" stroke="#000000" points="212,-56.5 212,-75.5 313,-75.5 313,-56.5 212,-56.5"/>
<text text-anchor="middle" x="262.5" y="-63.5" font-family="FreeSans" font-size="10.00" fill="#000000">coderefactoring.cpp</text>
</a>
</g>
</g>
<!-- Node15&#45;&gt;Node22 -->
<g id="edge22" class="edge">
<title>Node15&#45;&gt;Node22</title>
<path fill="none" stroke="#191970" d="M342.6795,-160.5274C322.3575,-136.5688 286.5473,-94.3505 270.5791,-75.5249"/>
<polygon fill="#191970" stroke="#191970" points="340.2626,-163.0888 349.4004,-168.4509 345.6009,-158.5608 340.2626,-163.0888"/>
</g>
<!-- Node23 -->
<g id="node9" class="node">
<title>Node23</title>
<g id="a_node9"><a xlink:href="ccoptionsprjdlg_8h" target="_top" xlink:title="ccoptionsprjdlg.h">
<polygon fill="none" stroke="#000000" points="350,-112.5 350,-131.5 439,-131.5 439,-112.5 350,-112.5"/>
<text text-anchor="middle" x="394.5" y="-119.5" font-family="FreeSans" font-size="10.00" fill="#000000">ccoptionsprjdlg.h</text>
</a>
</g>
</g>
<!-- Node15&#45;&gt;Node23 -->
<g id="edge11" class="edge">
<title>Node15&#45;&gt;Node23</title>
<path fill="none" stroke="#191970" d="M369.6376,-159.6296C375.8093,-150.2887 383.0566,-139.3197 388.1289,-131.6427"/>
<polygon fill="#191970" stroke="#191970" points="366.5373,-157.9728 363.9449,-168.2455 372.3777,-161.8316 366.5373,-157.9728"/>
</g>
<!-- Node25 -->
<g id="node11" class="node">
<title>Node25</title>
<g id="a_node11"><a xlink:href="classbrowserbuilderthread_8h" target="_top" xlink:title="classbrowserbuilderthread.h">
<polygon fill="none" stroke="#000000" points="582.5,-112.5 582.5,-131.5 716.5,-131.5 716.5,-112.5 582.5,-112.5"/>
<text text-anchor="middle" x="649.5" y="-119.5" font-family="FreeSans" font-size="10.00" fill="#000000">classbrowserbuilderthread.h</text>
</a>
</g>
</g>
<!-- Node15&#45;&gt;Node25 -->
<g id="edge14" class="edge">
<title>Node15&#45;&gt;Node25</title>
<path fill="none" stroke="#191970" d="M405.817,-167.7692C477.5182,-153.481 549.4271,-140.156 596.8579,-131.5058"/>
<polygon fill="#191970" stroke="#191970" points="404.8233,-164.3985 395.7037,-169.7913 406.1958,-171.2627 404.8233,-164.3985"/>
</g>
<!-- Node27 -->
<g id="node13" class="node">
<title>Node27</title>
<g id="a_node13"><a xlink:href="classbrowser_8cpp" target="_top" xlink:title="classbrowser.cpp">
<polygon fill="none" stroke="#000000" points="440,-.5 440,-19.5 529,-19.5 529,-.5 440,-.5"/>
<text text-anchor="middle" x="484.5" y="-7.5" font-family="FreeSans" font-size="10.00" fill="#000000">classbrowser.cpp</text>
</a>
</g>
</g>
<!-- Node15&#45;&gt;Node27 -->
<g id="edge21" class="edge">
<title>Node15&#45;&gt;Node27</title>
<path fill="none" stroke="#191970" d="M400.0753,-164.5323C416.9248,-157.2889 435.174,-146.7419 447.5,-132 476.0365,-97.8704 482.5712,-42.1256 484.0619,-19.748"/>
<polygon fill="#191970" stroke="#191970" points="398.3514,-161.4526 390.3717,-168.4221 400.956,-167.95 398.3514,-161.4526"/>
</g>
<!-- Node28 -->
<g id="node14" class="node">
<title>Node28</title>
<g id="a_node14"><a xlink:href="nativeparser_8cpp" target="_top" xlink:title="nativeparser.cpp">
<polygon fill="none" stroke="#000000" points="547.5,-.5 547.5,-19.5 633.5,-19.5 633.5,-.5 547.5,-.5"/>
<text text-anchor="middle" x="590.5" y="-7.5" font-family="FreeSans" font-size="10.00" fill="#000000">nativeparser.cpp</text>
</a>
</g>
</g>
<!-- Node15&#45;&gt;Node28 -->
<g id="edge23" class="edge">
<title>Node15&#45;&gt;Node28</title>
<path fill="none" stroke="#191970" d="M399.3622,-165.0592C421.0222,-157.3005 447.2935,-146.1724 468.5,-132 518.8066,-98.3799 565.6827,-41.8569 583.2202,-19.5072"/>
<polygon fill="#191970" stroke="#191970" points="398.0708,-161.8025 389.7695,-168.3857 400.3643,-168.4161 398.0708,-161.8025"/>
</g>
<!-- Node17 -->
<g id="node4" class="node">
<title>Node17</title>
<g id="a_node4"><a xlink:href="ccoptionsdlg_8cpp" target="_top" xlink:title="ccoptionsdlg.cpp">
<polygon fill="none" stroke="#000000" points="0,-.5 0,-19.5 89,-19.5 89,-.5 0,-.5"/>
<text text-anchor="middle" x="44.5" y="-7.5" font-family="FreeSans" font-size="10.00" fill="#000000">ccoptionsdlg.cpp</text>
</a>
</g>
</g>
<!-- Node16&#45;&gt;Node17 -->
<g id="edge3" class="edge">
<title>Node16&#45;&gt;Node17</title>
<path fill="none" stroke="#191970" d="M44.5,-46.1575C44.5,-37.155 44.5,-26.9199 44.5,-19.6427"/>
<polygon fill="#191970" stroke="#191970" points="41.0001,-46.2455 44.5,-56.2455 48.0001,-46.2456 41.0001,-46.2455"/>
</g>
<!-- Node18 -->
<g id="node5" class="node">
<title>Node18</title>
<g id="a_node5"><a xlink:href="codecompletion_8cpp" target="_top" xlink:title="codecompletion.cpp">
<polygon fill="none" stroke="#000000" points="107,-.5 107,-19.5 210,-19.5 210,-.5 107,-.5"/>
<text text-anchor="middle" x="158.5" y="-7.5" font-family="FreeSans" font-size="10.00" fill="#000000">codecompletion.cpp</text>
</a>
</g>
</g>
<!-- Node16&#45;&gt;Node18 -->
<g id="edge4" class="edge">
<title>Node16&#45;&gt;Node18</title>
<path fill="none" stroke="#191970" d="M73.3321,-51.8368C93.9395,-41.7139 121.1082,-28.3679 139.1584,-19.5011"/>
<polygon fill="#191970" stroke="#191970" points="71.5297,-48.8227 64.0973,-56.3733 74.616,-55.1056 71.5297,-48.8227"/>
</g>
<!-- Node19&#45;&gt;Node20 -->
<g id="edge6" class="edge">
<title>Node19&#45;&gt;Node20</title>
<path fill="none" stroke="#191970" d="M221.2902,-107.3225C203.4283,-97.3198 180.2845,-84.3593 164.7191,-75.6427"/>
<polygon fill="#191970" stroke="#191970" points="219.6461,-110.4132 230.0813,-112.2455 223.0664,-104.3057 219.6461,-110.4132"/>
</g>
<!-- Node19&#45;&gt;Node22 -->
<g id="edge9" class="edge">
<title>Node19&#45;&gt;Node22</title>
<path fill="none" stroke="#191970" d="M252.7356,-102.4538C255.166,-93.3803 257.9465,-82.9998 259.9171,-75.6427"/>
<polygon fill="#191970" stroke="#191970" points="249.3194,-101.6805 250.1128,-112.2455 256.0811,-103.4917 249.3194,-101.6805"/>
</g>
<!-- Node20&#45;&gt;Node17 -->
<g id="edge7" class="edge">
<title>Node20&#45;&gt;Node17</title>
<path fill="none" stroke="#191970" d="M120.7568,-51.46C102.325,-41.4388 78.3416,-28.3993 62.2356,-19.6427"/>
<polygon fill="#191970" stroke="#191970" points="119.1015,-54.5438 129.5588,-56.2455 122.4451,-48.394 119.1015,-54.5438"/>
</g>
<!-- Node20&#45;&gt;Node18 -->
<g id="edge8" class="edge">
<title>Node20&#45;&gt;Node18</title>
<path fill="none" stroke="#191970" d="M151.3976,-46.1575C153.166,-37.155 155.1765,-26.9199 156.6059,-19.6427"/>
<polygon fill="#191970" stroke="#191970" points="147.9092,-45.7584 149.4161,-56.2455 154.778,-47.1077 147.9092,-45.7584"/>
</g>
<!-- Node23&#45;&gt;Node18 -->
<g id="edge13" class="edge">
<title>Node23&#45;&gt;Node18</title>
<path fill="none" stroke="#191970" d="M417.0566,-106.1025C433.9705,-92.261 452.0583,-71.9675 438.5,-56 423.9123,-38.8202 287.1,-22.6961 210.2604,-14.8972"/>
<polygon fill="#191970" stroke="#191970" points="414.7663,-103.449 408.9916,-112.3318 419.0453,-108.9889 414.7663,-103.449"/>
</g>
<!-- Node24 -->
<g id="node10" class="node">
<title>Node24</title>
<g id="a_node10"><a xlink:href="ccoptionsprjdlg_8cpp" target="_top" xlink:title="ccoptionsprjdlg.cpp">
<polygon fill="none" stroke="#000000" points="331,-56.5 331,-75.5 430,-75.5 430,-56.5 331,-56.5"/>
<text text-anchor="middle" x="380.5" y="-63.5" font-family="FreeSans" font-size="10.00" fill="#000000">ccoptionsprjdlg.cpp</text>
</a>
</g>
</g>
<!-- Node23&#45;&gt;Node24 -->
<g id="edge12" class="edge">
<title>Node23&#45;&gt;Node24</title>
<path fill="none" stroke="#191970" d="M389.6135,-102.4538C387.3451,-93.3803 384.75,-82.9998 382.9107,-75.6427"/>
<polygon fill="#191970" stroke="#191970" points="386.2405,-103.393 392.0614,-112.2455 393.0315,-101.6952 386.2405,-103.393"/>
</g>
<!-- Node26 -->
<g id="node12" class="node">
<title>Node26</title>
<g id="a_node12"><a xlink:href="classbrowser_8h" target="_top" xlink:title="classbrowser.h">
<polygon fill="none" stroke="#000000" points="563,-56.5 563,-75.5 642,-75.5 642,-56.5 563,-56.5"/>
<text text-anchor="middle" x="602.5" y="-63.5" font-family="FreeSans" font-size="10.00" fill="#000000">classbrowser.h</text>
</a>
</g>
</g>
<!-- Node25&#45;&gt;Node26 -->
<g id="edge15" class="edge">
<title>Node25&#45;&gt;Node26</title>
<path fill="none" stroke="#191970" d="M634.8128,-104.5004C626.8204,-94.9775 617.2375,-83.5596 610.593,-75.6427"/>
<polygon fill="#191970" stroke="#191970" points="632.2036,-106.8358 641.3132,-112.2455 637.5654,-102.3357 632.2036,-106.8358"/>
</g>
<!-- Node29 -->
<g id="node15" class="node">
<title>Node29</title>
<g id="a_node15"><a xlink:href="parser_8cpp" target="_top" xlink:title="parser.cpp">
<polygon fill="none" stroke="#000000" points="652,-.5 652,-19.5 713,-19.5 713,-.5 652,-.5"/>
<text text-anchor="middle" x="682.5" y="-7.5" font-family="FreeSans" font-size="10.00" fill="#000000">parser.cpp</text>
</a>
</g>
</g>
<!-- Node25&#45;&gt;Node29 -->
<g id="edge20" class="edge">
<title>Node25&#45;&gt;Node29</title>
<path fill="none" stroke="#191970" d="M655.2164,-102.5987C662.3573,-78.363 674.2927,-37.8551 679.6936,-19.5249"/>
<polygon fill="#191970" stroke="#191970" points="651.7826,-101.8694 652.3136,-112.4509 658.4972,-103.8479 651.7826,-101.8694"/>
</g>
<!-- Node30 -->
<g id="node16" class="node">
<title>Node30</title>
<g id="a_node16"><a xlink:href="classbrowserbuilderthread_8cpp" target="_top" xlink:title="classbrowserbuilderthread.cpp">
<polygon fill="none" stroke="#000000" points="699,-56.5 699,-75.5 844,-75.5 844,-56.5 699,-56.5"/>
<text text-anchor="middle" x="771.5" y="-63.5" font-family="FreeSans" font-size="10.00" fill="#000000">classbrowserbuilderthread.cpp</text>
</a>
</g>
</g>
<!-- Node25&#45;&gt;Node30 -->
<g id="edge19" class="edge">
<title>Node25&#45;&gt;Node30</title>
<path fill="none" stroke="#191970" d="M679.7584,-108.1109C701.8819,-97.9559 731.3094,-84.4482 750.8011,-75.5011"/>
<polygon fill="#191970" stroke="#191970" points="678.1007,-105.0206 670.4725,-112.3733 681.021,-111.3824 678.1007,-105.0206"/>
</g>
<!-- Node26&#45;&gt;Node27 -->
<g id="edge16" class="edge">
<title>Node26&#45;&gt;Node27</title>
<path fill="none" stroke="#191970" d="M572.9453,-51.9741C551.5805,-41.8348 523.2884,-28.408 504.5202,-19.5011"/>
<polygon fill="#191970" stroke="#191970" points="571.6802,-55.2478 582.2151,-56.3733 574.6814,-48.9238 571.6802,-55.2478"/>
</g>
<!-- Node26&#45;&gt;Node28 -->
<g id="edge17" class="edge">
<title>Node26&#45;&gt;Node28</title>
<path fill="none" stroke="#191970" d="M598.3115,-46.4538C596.3672,-37.3803 594.1428,-26.9998 592.5663,-19.6427"/>
<polygon fill="#191970" stroke="#191970" points="594.8921,-47.2009 600.4098,-56.2455 601.7367,-45.7341 594.8921,-47.2009"/>
</g>
<!-- Node26&#45;&gt;Node29 -->
<g id="edge18" class="edge">
<title>Node26&#45;&gt;Node29</title>
<path fill="none" stroke="#191970" d="M624.6571,-50.49C638.772,-40.6096 656.6151,-28.1194 668.7248,-19.6427"/>
<polygon fill="#191970" stroke="#191970" points="622.6201,-47.6436 616.4349,-56.2455 626.6344,-53.3782 622.6201,-47.6436"/>
</g>
</g>
</svg>
