<?xml version="1.0" encoding="UTF-8" standalone="no"?>
<!DOCTYPE svg PUBLIC "-//W3C//DTD SVG 1.1//EN"
 "http://www.w3.org/Graphics/SVG/1.1/DTD/svg11.dtd">
<!-- Generated by graphviz version 2.38.0 (20140413.2041)
 -->
<!-- Title: newfromtemplatedlg.cpp Pages: 1 -->
<svg width="1830pt" height="364pt"
 viewBox="0.00 0.00 1829.50 364.00" xmlns="http://www.w3.org/2000/svg" xmlns:xlink="http://www.w3.org/1999/xlink">
<g id="graph0" class="graph" transform="scale(1 1) rotate(0) translate(4 360)">
<title>newfromtemplatedlg.cpp</title>
<!-- Node0 -->
<g id="node1" class="node"><title>Node0</title>
<polygon fill="#bfbfbf" stroke="black" points="624.5,-336.5 624.5,-355.5 746.5,-355.5 746.5,-336.5 624.5,-336.5"/>
<text text-anchor="middle" x="685.5" y="-343.5" font-family="FreeSans" font-size="10.00">newfromtemplatedlg.cpp</text>
</g>
<!-- Node1 -->
<g id="node2" class="node"><title>Node1</title>
<g id="a_node2"><a xlink:href="sdk__precomp_8h" target="_top" xlink:title="sdk_precomp.h">
<polygon fill="none" stroke="black" points="822.5,-280.5 822.5,-299.5 904.5,-299.5 904.5,-280.5 822.5,-280.5"/>
<text text-anchor="middle" x="863.5" y="-287.5" font-family="FreeSans" font-size="10.00">sdk_precomp.h</text>
</a>
</g>
</g>
<!-- Node0&#45;&gt;Node1 -->
<g id="edge1" class="edge"><title>Node0&#45;&gt;Node1</title>
<path fill="none" stroke="midnightblue" d="M713.705,-336.444C743.91,-327.28 792.011,-312.688 825.529,-302.519"/>
<polygon fill="midnightblue" stroke="midnightblue" points="826.874,-305.769 835.427,-299.516 824.842,-299.07 826.874,-305.769"/>
</g>
<!-- Node43 -->
<g id="node18" class="node"><title>Node43</title>
<polygon fill="none" stroke="#bfbfbf" points="1747.5,-168.5 1747.5,-187.5 1821.5,-187.5 1821.5,-168.5 1747.5,-168.5"/>
<text text-anchor="middle" x="1784.5" y="-175.5" font-family="FreeSans" font-size="10.00">wx/radiobox.h</text>
</g>
<!-- Node0&#45;&gt;Node43 -->
<g id="edge42" class="edge"><title>Node0&#45;&gt;Node43</title>
<path fill="none" stroke="midnightblue" d="M737.888,-336.454C815.809,-323.797 966.88,-299.468 1095.5,-280 1378.76,-237.125 1450.62,-233.344 1733.5,-188 1734.77,-187.796 1736.06,-187.586 1737.37,-187.373"/>
<polygon fill="midnightblue" stroke="midnightblue" points="1738.19,-190.783 1747.48,-185.675 1737.03,-183.88 1738.19,-190.783"/>
</g>
<!-- Node137 -->
<g id="node27" class="node"><title>Node137</title>
<g id="a_node27"><a xlink:href="cbstyledtextctrl_8h" target="_top" xlink:title="cbstyledtextctrl.h">
<polygon fill="none" stroke="black" points="128,-112.5 128,-131.5 217,-131.5 217,-112.5 128,-112.5"/>
<text text-anchor="middle" x="172.5" y="-119.5" font-family="FreeSans" font-size="10.00">cbstyledtextctrl.h</text>
</a>
</g>
</g>
<!-- Node0&#45;&gt;Node137 -->
<g id="edge35" class="edge"><title>Node0&#45;&gt;Node137</title>
<path fill="none" stroke="midnightblue" d="M646.171,-336.458C607.066,-327.818 545.435,-313.801 492.5,-300 343.441,-261.137 249.879,-316.216 164.5,-188 155.36,-174.275 159.144,-155.239 164.142,-141.315"/>
<polygon fill="midnightblue" stroke="midnightblue" points="167.472,-142.418 168.006,-131.836 160.99,-139.775 167.472,-142.418"/>
</g>
<!-- Node139 -->
<g id="node29" class="node"><title>Node139</title>
<polygon fill="none" stroke="#bfbfbf" points="1105,-280.5 1105,-299.5 1176,-299.5 1176,-280.5 1105,-280.5"/>
<text text-anchor="middle" x="1140.5" y="-287.5" font-family="FreeSans" font-size="10.00">wx/listbook.h</text>
</g>
<!-- Node0&#45;&gt;Node139 -->
<g id="edge41" class="edge"><title>Node0&#45;&gt;Node139</title>
<path fill="none" stroke="midnightblue" d="M746.73,-339.494C826.185,-332.052 969.034,-317.66 1090.5,-300 1091.95,-299.79 1093.41,-299.569 1094.89,-299.34"/>
<polygon fill="midnightblue" stroke="midnightblue" points="1095.46,-302.794 1104.77,-297.734 1094.34,-295.885 1095.46,-302.794"/>
</g>
<!-- Node140 -->
<g id="node30" class="node"><title>Node140</title>
<g id="a_node30"><a xlink:href="newfromtemplatedlg_8h" target="_top" xlink:title="newfromtemplatedlg.h">
<polygon fill="none" stroke="black" points="308,-224.5 308,-243.5 419,-243.5 419,-224.5 308,-224.5"/>
<text text-anchor="middle" x="363.5" y="-231.5" font-family="FreeSans" font-size="10.00">newfromtemplatedlg.h</text>
</a>
</g>
</g>
<!-- Node0&#45;&gt;Node140 -->
<g id="edge43" class="edge"><title>Node0&#45;&gt;Node140</title>
<path fill="none" stroke="midnightblue" d="M660.501,-336.46C603.555,-317.006 464.067,-269.355 398.559,-246.977"/>
<polygon fill="midnightblue" stroke="midnightblue" points="399.299,-243.531 388.705,-243.61 397.037,-250.155 399.299,-243.531"/>
</g>
<!-- Node141 -->
<g id="node31" class="node"><title>Node141</title>
<g id="a_node31"><a xlink:href="projecttemplateloader_8h" target="_top" xlink:title="projecttemplateloader.h">
<polygon fill="none" stroke="black" points="0,-280.5 0,-299.5 117,-299.5 117,-280.5 0,-280.5"/>
<text text-anchor="middle" x="58.5" y="-287.5" font-family="FreeSans" font-size="10.00">projecttemplateloader.h</text>
</a>
</g>
</g>
<!-- Node0&#45;&gt;Node141 -->
<g id="edge48" class="edge"><title>Node0&#45;&gt;Node141</title>
<path fill="none" stroke="midnightblue" d="M624.351,-340.869C522.169,-333.778 310.295,-318.275 131.5,-300 130.031,-299.85 128.546,-299.695 127.049,-299.536"/>
<polygon fill="midnightblue" stroke="midnightblue" points="127.37,-296.05 117.047,-298.436 126.604,-303.008 127.37,-296.05"/>
</g>
<!-- Node2 -->
<g id="node3" class="node"><title>Node2</title>
<g id="a_node3"><a xlink:href="sdk__common_8h" target="_top" xlink:title="sdk_common.h">
<polygon fill="none" stroke="red" points="966.5,-224.5 966.5,-243.5 1048.5,-243.5 1048.5,-224.5 966.5,-224.5"/>
<text text-anchor="middle" x="1007.5" y="-231.5" font-family="FreeSans" font-size="10.00">sdk_common.h</text>
</a>
</g>
</g>
<!-- Node1&#45;&gt;Node2 -->
<g id="edge2" class="edge"><title>Node1&#45;&gt;Node2</title>
<path fill="none" stroke="midnightblue" d="M886.317,-280.444C910.332,-271.438 948.329,-257.189 975.369,-247.049"/>
<polygon fill="midnightblue" stroke="midnightblue" points="976.655,-250.305 984.79,-243.516 974.197,-243.751 976.655,-250.305"/>
</g>
<!-- Node3 -->
<g id="node4" class="node"><title>Node3</title>
<polygon fill="none" stroke="#bfbfbf" points="1196.5,-168.5 1196.5,-187.5 1264.5,-187.5 1264.5,-168.5 1196.5,-168.5"/>
<text text-anchor="middle" x="1230.5" y="-175.5" font-family="FreeSans" font-size="10.00">wx/wxprec.h</text>
</g>
<!-- Node2&#45;&gt;Node3 -->
<g id="edge3" class="edge"><title>Node2&#45;&gt;Node3</title>
<path fill="none" stroke="midnightblue" d="M1042.84,-224.444C1081.75,-215.02 1144.38,-199.855 1186.46,-189.664"/>
<polygon fill="midnightblue" stroke="midnightblue" points="1187.53,-193.006 1196.43,-187.251 1185.88,-186.203 1187.53,-193.006"/>
</g>
<!-- Node4 -->
<g id="node5" class="node"><title>Node4</title>
<g id="a_node5"><a xlink:href="prep_8h" target="_top" xlink:title="prep.h">
<polygon fill="none" stroke="black" points="856,-112.5 856,-131.5 899,-131.5 899,-112.5 856,-112.5"/>
<text text-anchor="middle" x="877.5" y="-119.5" font-family="FreeSans" font-size="10.00">prep.h</text>
</a>
</g>
</g>
<!-- Node2&#45;&gt;Node4 -->
<g id="edge4" class="edge"><title>Node2&#45;&gt;Node4</title>
<path fill="none" stroke="midnightblue" d="M1048.69,-225.513C1086.17,-217.762 1137.43,-204.485 1149.5,-188 1154.75,-180.828 1155.25,-174.779 1149.5,-168 1119,-132.039 974.325,-124.777 909.293,-123.339"/>
<polygon fill="midnightblue" stroke="midnightblue" points="909.27,-119.838 899.206,-123.149 909.138,-126.837 909.27,-119.838"/>
</g>
<!-- Node5 -->
<g id="node6" class="node"><title>Node5</title>
<polygon fill="none" stroke="#bfbfbf" points="1358.5,-168.5 1358.5,-187.5 1412.5,-187.5 1412.5,-168.5 1358.5,-168.5"/>
<text text-anchor="middle" x="1385.5" y="-175.5" font-family="FreeSans" font-size="10.00">wx/app.h</text>
</g>
<!-- Node2&#45;&gt;Node5 -->
<g id="edge5" class="edge"><title>Node2&#45;&gt;Node5</title>
<path fill="none" stroke="midnightblue" d="M1048.62,-226.109C1053.3,-225.373 1058,-224.655 1062.5,-224 1187.53,-205.795 1220,-209.567 1344.5,-188 1345.75,-187.783 1347.02,-187.554 1348.31,-187.315"/>
<polygon fill="midnightblue" stroke="midnightblue" points="1349.09,-190.727 1358.22,-185.343 1347.73,-183.862 1349.09,-190.727"/>
</g>
<!-- Node6 -->
<g id="node7" class="node"><title>Node6</title>
<polygon fill="none" stroke="#bfbfbf" points="1225.5,-112.5 1225.5,-131.5 1285.5,-131.5 1285.5,-112.5 1225.5,-112.5"/>
<text text-anchor="middle" x="1255.5" y="-119.5" font-family="FreeSans" font-size="10.00">wx/arrstr.h</text>
</g>
<!-- Node2&#45;&gt;Node6 -->
<g id="edge6" class="edge"><title>Node2&#45;&gt;Node6</title>
<path fill="none" stroke="midnightblue" d="M1048.6,-226.218C1123.03,-213.914 1272.59,-189.075 1273.5,-188 1284.91,-174.501 1276.61,-154.324 1267.87,-140.036"/>
<polygon fill="midnightblue" stroke="midnightblue" points="1270.73,-138.011 1262.27,-131.627 1264.9,-141.891 1270.73,-138.011"/>
</g>
<!-- Node7 -->
<g id="node8" class="node"><title>Node7</title>
<polygon fill="none" stroke="#bfbfbf" points="1431,-168.5 1431,-187.5 1510,-187.5 1510,-168.5 1431,-168.5"/>
<text text-anchor="middle" x="1470.5" y="-175.5" font-family="FreeSans" font-size="10.00">wx/bmpbuttn.h</text>
</g>
<!-- Node2&#45;&gt;Node7 -->
<g id="edge7" class="edge"><title>Node2&#45;&gt;Node7</title>
<path fill="none" stroke="midnightblue" d="M1048.6,-225.987C1053.28,-225.274 1057.99,-224.594 1062.5,-224 1218.22,-203.472 1260.99,-210.209 1420.77,-187.983"/>
<polygon fill="midnightblue" stroke="midnightblue" points="1421.55,-191.408 1430.96,-186.548 1420.57,-184.476 1421.55,-191.408"/>
</g>
<!-- Node8 -->
<g id="node9" class="node"><title>Node8</title>
<polygon fill="none" stroke="#bfbfbf" points="1528,-168.5 1528,-187.5 1593,-187.5 1593,-168.5 1528,-168.5"/>
<text text-anchor="middle" x="1560.5" y="-175.5" font-family="FreeSans" font-size="10.00">wx/button.h</text>
</g>
<!-- Node2&#45;&gt;Node8 -->
<g id="edge8" class="edge"><title>Node2&#45;&gt;Node8</title>
<path fill="none" stroke="midnightblue" d="M1048.59,-225.891C1053.27,-225.195 1057.99,-224.546 1062.5,-224 1261.51,-199.922 1316.21,-217.331 1517.87,-188.056"/>
<polygon fill="midnightblue" stroke="midnightblue" points="1518.52,-191.499 1527.9,-186.579 1517.5,-184.573 1518.52,-191.499"/>
</g>
<!-- Node9 -->
<g id="node10" class="node"><title>Node9</title>
<polygon fill="none" stroke="#bfbfbf" points="1611.5,-168.5 1611.5,-187.5 1691.5,-187.5 1691.5,-168.5 1611.5,-168.5"/>
<text text-anchor="middle" x="1651.5" y="-175.5" font-family="FreeSans" font-size="10.00">wx/checkbox.h</text>
</g>
<!-- Node2&#45;&gt;Node9 -->
<g id="edge9" class="edge"><title>Node2&#45;&gt;Node9</title>
<path fill="none" stroke="midnightblue" d="M1048.59,-225.837C1053.27,-225.151 1057.98,-224.519 1062.5,-224 1298.19,-196.922 1362.08,-217.204 1601.39,-187.988"/>
<polygon fill="midnightblue" stroke="midnightblue" points="1601.95,-191.446 1611.45,-186.745 1601.09,-184.499 1601.95,-191.446"/>
</g>
<!-- Node10 -->
<g id="node11" class="node"><title>Node10</title>
<polygon fill="none" stroke="#bfbfbf" points="507.5,-168.5 507.5,-187.5 581.5,-187.5 581.5,-168.5 507.5,-168.5"/>
<text text-anchor="middle" x="544.5" y="-175.5" font-family="FreeSans" font-size="10.00">wx/checklst.h</text>
</g>
<!-- Node2&#45;&gt;Node10 -->
<g id="edge10" class="edge"><title>Node2&#45;&gt;Node10</title>
<path fill="none" stroke="midnightblue" d="M966.213,-229.726C892.923,-223.658 735.094,-209.438 591.893,-188.093"/>
<polygon fill="midnightblue" stroke="midnightblue" points="592.019,-184.573 581.61,-186.544 590.977,-191.495 592.019,-184.573"/>
</g>
<!-- Node11 -->
<g id="node12" class="node"><title>Node11</title>
<polygon fill="none" stroke="#bfbfbf" points="600,-168.5 600,-187.5 667,-187.5 667,-168.5 600,-168.5"/>
<text text-anchor="middle" x="633.5" y="-175.5" font-family="FreeSans" font-size="10.00">wx/choice.h</text>
</g>
<!-- Node2&#45;&gt;Node11 -->
<g id="edge11" class="edge"><title>Node2&#45;&gt;Node11</title>
<path fill="none" stroke="midnightblue" d="M966.332,-228.359C905.43,-221.283 787.54,-206.789 677.224,-188.014"/>
<polygon fill="midnightblue" stroke="midnightblue" points="677.706,-184.546 667.258,-186.302 676.521,-191.445 677.706,-184.546"/>
</g>
<!-- Node12 -->
<g id="node13" class="node"><title>Node12</title>
<polygon fill="none" stroke="#bfbfbf" points="685.5,-168.5 685.5,-187.5 759.5,-187.5 759.5,-168.5 685.5,-168.5"/>
<text text-anchor="middle" x="722.5" y="-175.5" font-family="FreeSans" font-size="10.00">wx/choicdlg.h</text>
</g>
<!-- Node2&#45;&gt;Node12 -->
<g id="edge12" class="edge"><title>Node2&#45;&gt;Node12</title>
<path fill="none" stroke="midnightblue" d="M966.461,-225.365C920.884,-216.865 844.843,-202.623 769.758,-188.231"/>
<polygon fill="midnightblue" stroke="midnightblue" points="770.133,-184.74 759.653,-186.292 768.814,-191.614 770.133,-184.74"/>
</g>
<!-- Node13 -->
<g id="node14" class="node"><title>Node13</title>
<polygon fill="none" stroke="#bfbfbf" points="777.5,-168.5 777.5,-187.5 849.5,-187.5 849.5,-168.5 777.5,-168.5"/>
<text text-anchor="middle" x="813.5" y="-175.5" font-family="FreeSans" font-size="10.00">wx/colordlg.h</text>
</g>
<!-- Node2&#45;&gt;Node13 -->
<g id="edge13" class="edge"><title>Node2&#45;&gt;Node13</title>
<path fill="none" stroke="midnightblue" d="M976.76,-224.444C943.556,-215.201 890.509,-200.436 853.943,-190.257"/>
<polygon fill="midnightblue" stroke="midnightblue" points="854.668,-186.826 844.096,-187.516 852.791,-193.57 854.668,-186.826"/>
</g>
<!-- Node14 -->
<g id="node15" class="node"><title>Node14</title>
<polygon fill="none" stroke="#bfbfbf" points="868,-168.5 868,-187.5 951,-187.5 951,-168.5 868,-168.5"/>
<text text-anchor="middle" x="909.5" y="-175.5" font-family="FreeSans" font-size="10.00">wx/combobox.h</text>
</g>
<!-- Node2&#45;&gt;Node14 -->
<g id="edge14" class="edge"><title>Node2&#45;&gt;Node14</title>
<path fill="none" stroke="midnightblue" d="M991.755,-224.324C976.181,-215.743 952.123,-202.486 934.041,-192.522"/>
<polygon fill="midnightblue" stroke="midnightblue" points="935.654,-189.415 925.206,-187.655 932.276,-195.546 935.654,-189.415"/>
</g>
<!-- Node15 -->
<g id="node16" class="node"><title>Node15</title>
<polygon fill="none" stroke="#bfbfbf" points="969,-168.5 969,-187.5 1046,-187.5 1046,-168.5 969,-168.5"/>
<text text-anchor="middle" x="1007.5" y="-175.5" font-family="FreeSans" font-size="10.00">wx/confbase.h</text>
</g>
<!-- Node2&#45;&gt;Node15 -->
<g id="edge15" class="edge"><title>Node2&#45;&gt;Node15</title>
<path fill="none" stroke="midnightblue" d="M1007.5,-224.083C1007.5,-217.006 1007.5,-206.861 1007.5,-197.986"/>
<polygon fill="midnightblue" stroke="midnightblue" points="1011,-197.751 1007.5,-187.751 1004,-197.751 1011,-197.751"/>
</g>
<!-- Node16 -->
<g id="node17" class="node"><title>Node16</title>
<polygon fill="none" stroke="#bfbfbf" points="1064.5,-168.5 1064.5,-187.5 1140.5,-187.5 1140.5,-168.5 1064.5,-168.5"/>
<text text-anchor="middle" x="1102.5" y="-175.5" font-family="FreeSans" font-size="10.00">wx/datetime.h</text>
</g>
<!-- Node2&#45;&gt;Node16 -->
<g id="edge16" class="edge"><title>Node2&#45;&gt;Node16</title>
<path fill="none" stroke="midnightblue" d="M1022.76,-224.324C1037.72,-215.822 1060.75,-202.729 1078.23,-192.797"/>
<polygon fill="midnightblue" stroke="midnightblue" points="1080.31,-195.639 1087.27,-187.655 1076.85,-189.553 1080.31,-195.639"/>
</g>
<!-- Node2&#45;&gt;Node43 -->
<g id="edge17" class="edge"><title>Node2&#45;&gt;Node43</title>
<path fill="none" stroke="midnightblue" d="M1048.58,-225.778C1053.26,-225.103 1057.98,-224.49 1062.5,-224 1359.41,-191.838 1436.79,-222.013 1733.5,-188 1734.76,-187.856 1736.03,-187.701 1737.31,-187.536"/>
<polygon fill="midnightblue" stroke="midnightblue" points="1737.85,-190.994 1747.25,-186.11 1736.86,-184.065 1737.85,-190.994"/>
</g>
<!-- Node63 -->
<g id="node19" class="node"><title>Node63</title>
<g id="a_node19"><a xlink:href="wxscintilla_8h" target="_top" xlink:title="wx/wxscintilla.h">
<polygon fill="none" stroke="red" points="353.5,-56.5 353.5,-75.5 435.5,-75.5 435.5,-56.5 353.5,-56.5"/>
<text text-anchor="middle" x="394.5" y="-63.5" font-family="FreeSans" font-size="10.00">wx/wxscintilla.h</text>
</a>
</g>
</g>
<!-- Node2&#45;&gt;Node63 -->
<g id="edge18" class="edge"><title>Node2&#45;&gt;Node63</title>
<path fill="none" stroke="midnightblue" d="M966.404,-232.643C839.749,-231.161 461.448,-223.757 420.5,-188 391.328,-162.526 390.346,-112.938 392.32,-85.8219"/>
<polygon fill="midnightblue" stroke="midnightblue" points="395.818,-85.997 393.273,-75.7126 388.849,-85.3399 395.818,-85.997"/>
</g>
<!-- Node71 -->
<g id="node20" class="node"><title>Node71</title>
<g id="a_node20"><a xlink:href="settings_8h" target="_top" xlink:title="settings.h">
<polygon fill="none" stroke="black" points="297,-0.5 297,-19.5 354,-19.5 354,-0.5 297,-0.5"/>
<text text-anchor="middle" x="325.5" y="-7.5" font-family="FreeSans" font-size="10.00">settings.h</text>
</a>
</g>
</g>
<!-- Node2&#45;&gt;Node71 -->
<g id="edge19" class="edge"><title>Node2&#45;&gt;Node71</title>
<path fill="none" stroke="midnightblue" d="M1048.54,-231.868C1194.08,-227.658 1678.1,-211.904 1700.5,-188 1706.58,-181.514 1706.32,-174.723 1700.5,-168 1610.41,-63.8551 578.97,-20.3303 364.437,-12.3726"/>
<polygon fill="midnightblue" stroke="midnightblue" points="364.401,-8.86904 354.279,-11.9999 364.144,-15.8643 364.401,-8.86904"/>
</g>
<!-- Node72 -->
<g id="node21" class="node"><title>Node72</title>
<g id="a_node21"><a xlink:href="globals_8h" target="_top" xlink:title="globals.h">
<polygon fill="none" stroke="red" points="453.5,-56.5 453.5,-75.5 507.5,-75.5 507.5,-56.5 453.5,-56.5"/>
<text text-anchor="middle" x="480.5" y="-63.5" font-family="FreeSans" font-size="10.00">globals.h</text>
</a>
</g>
</g>
<!-- Node2&#45;&gt;Node72 -->
<g id="edge20" class="edge"><title>Node2&#45;&gt;Node72</title>
<path fill="none" stroke="midnightblue" d="M1048.64,-226.242C1053.31,-225.482 1058.01,-224.722 1062.5,-224 1113.14,-215.858 1255.81,-225.784 1290.5,-188 1313.38,-163.084 1317.75,-136.569 1294.5,-112 1267.49,-83.4527 674.412,-70.5646 518.024,-67.655"/>
<polygon fill="midnightblue" stroke="midnightblue" points="518.01,-64.1543 507.948,-67.4702 517.882,-71.1531 518.01,-64.1543"/>
</g>
<!-- Node87 -->
<g id="node22" class="node"><title>Node87</title>
<g id="a_node22"><a xlink:href="cbplugin_8h" target="_top" xlink:title="cbplugin.h">
<polygon fill="none" stroke="red" points="429.5,-168.5 429.5,-187.5 489.5,-187.5 489.5,-168.5 429.5,-168.5"/>
<text text-anchor="middle" x="459.5" y="-175.5" font-family="FreeSans" font-size="10.00">cbplugin.h</text>
</a>
</g>
</g>
<!-- Node2&#45;&gt;Node87 -->
<g id="edge22" class="edge"><title>Node2&#45;&gt;Node87</title>
<path fill="none" stroke="midnightblue" d="M966.358,-231.299C881.089,-227.357 678.792,-215.848 499.78,-187.991"/>
<polygon fill="midnightblue" stroke="midnightblue" points="500.076,-184.494 489.653,-186.393 498.985,-191.409 500.076,-184.494"/>
</g>
<!-- Node92 -->
<g id="node23" class="node"><title>Node92</title>
<g id="a_node23"><a xlink:href="pluginmanager_8h" target="_top" xlink:title="pluginmanager.h">
<polygon fill="none" stroke="red" points="248,-112.5 248,-131.5 335,-131.5 335,-112.5 248,-112.5"/>
<text text-anchor="middle" x="291.5" y="-119.5" font-family="FreeSans" font-size="10.00">pluginmanager.h</text>
</a>
</g>
</g>
<!-- Node2&#45;&gt;Node92 -->
<g id="edge34" class="edge"><title>Node2&#45;&gt;Node92</title>
<path fill="none" stroke="midnightblue" d="M966.306,-232.772C845.675,-231.67 494.945,-225.261 387.5,-188 356.776,-177.345 326.596,-154.25 308.511,-138.66"/>
<polygon fill="midnightblue" stroke="midnightblue" points="310.46,-135.711 300.654,-131.698 305.817,-140.95 310.46,-135.711"/>
</g>
<!-- Node107 -->
<g id="node26" class="node"><title>Node107</title>
<g id="a_node26"><a xlink:href="scrollingdialog_8h" target="_top" xlink:title="scrollingdialog.h">
<polygon fill="none" stroke="red" points="174,-168.5 174,-187.5 259,-187.5 259,-168.5 174,-168.5"/>
<text text-anchor="middle" x="216.5" y="-175.5" font-family="FreeSans" font-size="10.00">scrollingdialog.h</text>
</a>
</g>
</g>
<!-- Node2&#45;&gt;Node107 -->
<g id="edge32" class="edge"><title>Node2&#45;&gt;Node107</title>
<path fill="none" stroke="midnightblue" d="M966.284,-230.766C858.578,-224.836 559.847,-207.788 311.5,-188 297.814,-186.909 283.032,-185.582 269.3,-184.285"/>
<polygon fill="midnightblue" stroke="midnightblue" points="269.326,-180.771 259.038,-183.303 268.659,-187.74 269.326,-180.771"/>
</g>
<!-- Node72&#45;&gt;Node71 -->
<g id="edge21" class="edge"><title>Node72&#45;&gt;Node71</title>
<path fill="none" stroke="midnightblue" d="M455.94,-56.4435C429.977,-47.3986 388.832,-33.064 359.703,-22.9158"/>
<polygon fill="midnightblue" stroke="midnightblue" points="360.54,-19.5013 349.945,-19.5164 358.237,-26.1116 360.54,-19.5013"/>
</g>
<!-- Node87&#45;&gt;Node4 -->
<g id="edge31" class="edge"><title>Node87&#45;&gt;Node4</title>
<path fill="none" stroke="midnightblue" d="M489.668,-169.697C492.643,-169.08 495.625,-168.501 498.5,-168 626.19,-145.754 780.024,-131.231 845.496,-125.617"/>
<polygon fill="midnightblue" stroke="midnightblue" points="845.92,-129.094 855.589,-124.763 845.33,-122.119 845.92,-129.094"/>
</g>
<!-- Node87&#45;&gt;Node6 -->
<g id="edge23" class="edge"><title>Node87&#45;&gt;Node6</title>
<path fill="none" stroke="midnightblue" d="M489.639,-169.52C492.621,-168.938 495.611,-168.416 498.5,-168 638.855,-147.779 1079.01,-129.725 1215.04,-124.51"/>
<polygon fill="midnightblue" stroke="midnightblue" points="1215.55,-127.993 1225.41,-124.114 1215.28,-120.998 1215.55,-127.993"/>
</g>
<!-- Node87&#45;&gt;Node71 -->
<g id="edge24" class="edge"><title>Node87&#45;&gt;Node71</title>
<path fill="none" stroke="midnightblue" d="M469.58,-168.341C492.775,-147.387 545.762,-92.957 516.5,-56 497.892,-32.4983 414.608,-20.0429 364.362,-14.5527"/>
<polygon fill="midnightblue" stroke="midnightblue" points="364.487,-11.0467 354.177,-13.4854 363.758,-18.0086 364.487,-11.0467"/>
</g>
<!-- Node87&#45;&gt;Node72 -->
<g id="edge25" class="edge"><title>Node87&#45;&gt;Node72</title>
<path fill="none" stroke="midnightblue" d="M461.148,-168.368C464.537,-150.617 472.355,-109.666 476.95,-85.5974"/>
<polygon fill="midnightblue" stroke="midnightblue" points="480.422,-86.0704 478.86,-75.5914 473.547,-84.7577 480.422,-86.0704"/>
</g>
<!-- Node87&#45;&gt;Node92 -->
<g id="edge26" class="edge"><title>Node87&#45;&gt;Node92</title>
<path fill="none" stroke="midnightblue" d="M432.88,-168.444C404.494,-159.32 359.363,-144.813 327.747,-134.651"/>
<polygon fill="midnightblue" stroke="midnightblue" points="328.587,-131.244 317.996,-131.516 326.445,-137.909 328.587,-131.244"/>
</g>
<!-- Node92&#45;&gt;Node71 -->
<g id="edge30" class="edge"><title>Node92&#45;&gt;Node71</title>
<path fill="none" stroke="midnightblue" d="M294.192,-112.376C297.017,-103.319 301.582,-88.6624 305.5,-76 310.353,-60.3147 315.835,-42.4901 319.831,-29.4788"/>
<polygon fill="midnightblue" stroke="midnightblue" points="323.203,-30.4209 322.791,-19.8341 316.511,-28.3668 323.203,-30.4209"/>
</g>
<!-- Node92&#45;&gt;Node72 -->
<g id="edge29" class="edge"><title>Node92&#45;&gt;Node72</title>
<path fill="none" stroke="midnightblue" d="M321.448,-112.444C354.51,-102.997 407.768,-87.7807 443.436,-77.5897"/>
<polygon fill="midnightblue" stroke="midnightblue" points="444.795,-80.8416 453.448,-74.729 442.872,-74.111 444.795,-80.8416"/>
</g>
<!-- Node89 -->
<g id="node24" class="node"><title>Node89</title>
<polygon fill="none" stroke="#bfbfbf" points="215,-56.5 215,-75.5 250,-75.5 250,-56.5 215,-56.5"/>
<text text-anchor="middle" x="232.5" y="-63.5" font-family="FreeSans" font-size="10.00">map</text>
</g>
<!-- Node92&#45;&gt;Node89 -->
<g id="edge27" class="edge"><title>Node92&#45;&gt;Node89</title>
<path fill="none" stroke="midnightblue" d="M282.021,-112.324C273.299,-104.341 260.157,-92.3128 249.602,-82.6529"/>
<polygon fill="midnightblue" stroke="midnightblue" points="251.892,-80.0036 242.152,-75.8339 247.166,-85.1674 251.892,-80.0036"/>
</g>
<!-- Node93 -->
<g id="node25" class="node"><title>Node93</title>
<polygon fill="none" stroke="#bfbfbf" points="268,-56.5 268,-75.5 297,-75.5 297,-56.5 268,-56.5"/>
<text text-anchor="middle" x="282.5" y="-63.5" font-family="FreeSans" font-size="10.00">set</text>
</g>
<!-- Node92&#45;&gt;Node93 -->
<g id="edge28" class="edge"><title>Node92&#45;&gt;Node93</title>
<path fill="none" stroke="midnightblue" d="M290.014,-112.083C288.821,-104.927 287.106,-94.6353 285.615,-85.6911"/>
<polygon fill="midnightblue" stroke="midnightblue" points="289.055,-85.0396 283.959,-75.7511 282.15,-86.1904 289.055,-85.0396"/>
</g>
<!-- Node107&#45;&gt;Node71 -->
<g id="edge33" class="edge"><title>Node107&#45;&gt;Node71</title>
<path fill="none" stroke="midnightblue" d="M178.86,-168.428C158.147,-161.82 133.647,-150.57 118.5,-132 96.8401,-105.445 83.8321,-82.5485 105.5,-56 127.952,-28.4909 229.845,-17.3462 286.755,-13.2058"/>
<polygon fill="midnightblue" stroke="midnightblue" points="287.093,-16.6909 296.828,-12.5118 286.611,-9.70742 287.093,-16.6909"/>
</g>
<!-- Node137&#45;&gt;Node63 -->
<g id="edge36" class="edge"><title>Node137&#45;&gt;Node63</title>
<path fill="none" stroke="midnightblue" d="M207.677,-112.444C246.079,-103.102 307.676,-88.1194 349.555,-77.9326"/>
<polygon fill="midnightblue" stroke="midnightblue" points="350.599,-81.2809 359.488,-75.5164 348.944,-74.4792 350.599,-81.2809"/>
</g>
<!-- Node137&#45;&gt;Node71 -->
<g id="edge38" class="edge"><title>Node137&#45;&gt;Node71</title>
<path fill="none" stroke="midnightblue" d="M154.651,-112.445C131.619,-100.27 96.4251,-77.0797 113.5,-56 134.859,-29.6317 231.366,-18.0809 286.52,-13.5576"/>
<polygon fill="midnightblue" stroke="midnightblue" points="286.94,-17.0356 296.638,-12.7685 286.396,-10.0568 286.94,-17.0356"/>
</g>
<!-- Node137&#45;&gt;Node89 -->
<g id="edge39" class="edge"><title>Node137&#45;&gt;Node89</title>
<path fill="none" stroke="midnightblue" d="M182.14,-112.324C191.01,-104.341 204.375,-92.3128 215.108,-82.6529"/>
<polygon fill="midnightblue" stroke="midnightblue" points="217.593,-85.1251 222.685,-75.8339 212.91,-79.922 217.593,-85.1251"/>
</g>
<!-- Node137&#45;&gt;Node93 -->
<g id="edge40" class="edge"><title>Node137&#45;&gt;Node93</title>
<path fill="none" stroke="midnightblue" d="M190.173,-112.324C208.733,-103.213 238.03,-88.8309 258.634,-78.7162"/>
<polygon fill="midnightblue" stroke="midnightblue" points="260.257,-81.8182 267.692,-74.2695 257.173,-75.5345 260.257,-81.8182"/>
</g>
<!-- Node138 -->
<g id="node28" class="node"><title>Node138</title>
<polygon fill="none" stroke="#bfbfbf" points="122.5,-56.5 122.5,-75.5 196.5,-75.5 196.5,-56.5 122.5,-56.5"/>
<text text-anchor="middle" x="159.5" y="-63.5" font-family="FreeSans" font-size="10.00">wx/longlong.h</text>
</g>
<!-- Node137&#45;&gt;Node138 -->
<g id="edge37" class="edge"><title>Node137&#45;&gt;Node138</title>
<path fill="none" stroke="midnightblue" d="M170.353,-112.083C168.631,-104.927 166.153,-94.6353 164,-85.6911"/>
<polygon fill="midnightblue" stroke="midnightblue" points="167.35,-84.6541 161.607,-75.7511 160.545,-86.2925 167.35,-84.6541"/>
</g>
<!-- Node140&#45;&gt;Node72 -->
<g id="edge45" class="edge"><title>Node140&#45;&gt;Node72</title>
<path fill="none" stroke="midnightblue" d="M369.79,-224.075C388.526,-197.493 444.175,-118.538 468.685,-83.7633"/>
<polygon fill="midnightblue" stroke="midnightblue" points="471.561,-85.7583 474.461,-75.5681 465.839,-81.7255 471.561,-85.7583"/>
</g>
<!-- Node140&#45;&gt;Node87 -->
<g id="edge47" class="edge"><title>Node140&#45;&gt;Node87</title>
<path fill="none" stroke="midnightblue" d="M378.924,-224.324C394.04,-215.822 417.315,-202.729 434.971,-192.797"/>
<polygon fill="midnightblue" stroke="midnightblue" points="437.114,-195.608 444.114,-187.655 433.683,-189.507 437.114,-195.608"/>
</g>
<!-- Node140&#45;&gt;Node92 -->
<g id="edge46" class="edge"><title>Node140&#45;&gt;Node92</title>
<path fill="none" stroke="midnightblue" d="M349.635,-224.279C337.887,-216.214 321.414,-203.199 311.5,-188 302.328,-173.939 297.175,-155.446 294.406,-141.781"/>
<polygon fill="midnightblue" stroke="midnightblue" points="297.8,-140.876 292.605,-131.642 290.908,-142.1 297.8,-140.876"/>
</g>
<!-- Node140&#45;&gt;Node107 -->
<g id="edge44" class="edge"><title>Node140&#45;&gt;Node107</title>
<path fill="none" stroke="midnightblue" d="M340.207,-224.444C315.693,-215.438 276.904,-201.189 249.3,-191.049"/>
<polygon fill="midnightblue" stroke="midnightblue" points="250.277,-187.679 239.684,-187.516 247.863,-194.25 250.277,-187.679"/>
</g>
<!-- Node141&#45;&gt;Node71 -->
<g id="edge50" class="edge"><title>Node141&#45;&gt;Node71</title>
<path fill="none" stroke="midnightblue" d="M52.9382,-280.269C41.9473,-262.15 18.5,-218.828 18.5,-179 18.5,-179 18.5,-179 18.5,-121 18.5,-77.558 52.5494,-75.2369 91.5,-56 155.123,-24.5777 238.539,-15.0608 286.662,-12.2016"/>
<polygon fill="midnightblue" stroke="midnightblue" points="287.148,-15.6809 296.951,-11.6605 286.781,-8.69056 287.148,-15.6809"/>
</g>
<!-- Node112 -->
<g id="node32" class="node"><title>Node112</title>
<polygon fill="none" stroke="#bfbfbf" points="46.5,-224.5 46.5,-243.5 100.5,-243.5 100.5,-224.5 46.5,-224.5"/>
<text text-anchor="middle" x="73.5" y="-231.5" font-family="FreeSans" font-size="10.00">tinyxml.h</text>
</g>
<!-- Node141&#45;&gt;Node112 -->
<g id="edge49" class="edge"><title>Node141&#45;&gt;Node112</title>
<path fill="none" stroke="midnightblue" d="M60.9769,-280.083C62.9865,-272.849 65.8865,-262.409 68.3898,-253.397"/>
<polygon fill="midnightblue" stroke="midnightblue" points="71.7649,-254.323 71.0691,-243.751 65.0203,-252.449 71.7649,-254.323"/>
</g>
</g>
</svg>
