<?xml version="1.0" encoding="UTF-8" standalone="no"?>
<!DOCTYPE svg PUBLIC "-//W3C//DTD SVG 1.1//EN"
 "http://www.w3.org/Graphics/SVG/1.1/DTD/svg11.dtd">
<!-- Generated by graphviz version 2.38.0 (20140413.2041)
 -->
<!-- Title: notebookstyles.cpp Pages: 1 -->
<svg width="759pt" height="196pt"
 viewBox="0.00 0.00 759.00 196.00" xmlns="http://www.w3.org/2000/svg" xmlns:xlink="http://www.w3.org/1999/xlink">
<g id="graph0" class="graph" transform="scale(1 1) rotate(0) translate(4 192)">
<title>notebookstyles.cpp</title>
<polygon fill="white" stroke="none" points="-4,4 -4,-192 755,-192 755,4 -4,4"/>
<!-- Node1 -->
<g id="node1" class="node"><title>Node1</title>
<polygon fill="#bfbfbf" stroke="black" points="359,-168.5 359,-187.5 457,-187.5 457,-168.5 359,-168.5"/>
<text text-anchor="middle" x="408" y="-175.5" font-family="FreeSans" font-size="10.00">notebookstyles.cpp</text>
</g>
<!-- Node2 -->
<g id="node2" class="node"><title>Node2</title>
<polygon fill="white" stroke="#bfbfbf" points="0,-112.5 0,-131.5 70,-131.5 70,-112.5 0,-112.5"/>
<text text-anchor="middle" x="35" y="-119.5" font-family="FreeSans" font-size="10.00">wx/window.h</text>
</g>
<!-- Node1&#45;&gt;Node2 -->
<g id="edge1" class="edge"><title>Node1&#45;&gt;Node2</title>
<path fill="none" stroke="midnightblue" d="M358.795,-171.295C296.352,-163.829 185.112,-149.771 80.1605,-132.102"/>
<polygon fill="midnightblue" stroke="midnightblue" points="80.4702,-128.604 70.0254,-130.381 79.2982,-135.506 80.4702,-128.604"/>
</g>
<!-- Node3 -->
<g id="node3" class="node"><title>Node3</title>
<polygon fill="white" stroke="#bfbfbf" points="88,-112.5 88,-131.5 158,-131.5 158,-112.5 88,-112.5"/>
<text text-anchor="middle" x="123" y="-119.5" font-family="FreeSans" font-size="10.00">wx/gdicmn.h</text>
</g>
<!-- Node1&#45;&gt;Node3 -->
<g id="edge2" class="edge"><title>Node1&#45;&gt;Node3</title>
<path fill="none" stroke="midnightblue" d="M360.851,-168.443C314.324,-159.944 240.9,-146.384 167.884,-132.148"/>
<polygon fill="midnightblue" stroke="midnightblue" points="168.539,-128.71 158.054,-130.227 167.197,-135.58 168.539,-128.71"/>
</g>
<!-- Node4 -->
<g id="node4" class="node"><title>Node4</title>
<polygon fill="white" stroke="#bfbfbf" points="176,-112.5 176,-131.5 238,-131.5 238,-112.5 176,-112.5"/>
<text text-anchor="middle" x="207" y="-119.5" font-family="FreeSans" font-size="10.00">wx/string.h</text>
</g>
<!-- Node1&#45;&gt;Node4 -->
<g id="edge3" class="edge"><title>Node1&#45;&gt;Node4</title>
<path fill="none" stroke="midnightblue" d="M376.151,-168.444C341.398,-159.107 285.667,-144.134 247.75,-133.948"/>
<polygon fill="midnightblue" stroke="midnightblue" points="248.605,-130.553 238.04,-131.339 246.789,-137.314 248.605,-130.553"/>
</g>
<!-- Node5 -->
<g id="node5" class="node"><title>Node5</title>
<polygon fill="white" stroke="#bfbfbf" points="256.5,-112.5 256.5,-131.5 327.5,-131.5 327.5,-112.5 256.5,-112.5"/>
<text text-anchor="middle" x="292" y="-119.5" font-family="FreeSans" font-size="10.00">wx/settings.h</text>
</g>
<!-- Node1&#45;&gt;Node5 -->
<g id="edge4" class="edge"><title>Node1&#45;&gt;Node5</title>
<path fill="none" stroke="midnightblue" d="M389.619,-168.444C370.784,-159.675 341.269,-145.935 319.621,-135.858"/>
<polygon fill="midnightblue" stroke="midnightblue" points="320.838,-132.564 310.295,-131.516 317.883,-138.91 320.838,-132.564"/>
</g>
<!-- Node6 -->
<g id="node6" class="node"><title>Node6</title>
<polygon fill="white" stroke="#bfbfbf" points="345.5,-112.5 345.5,-131.5 410.5,-131.5 410.5,-112.5 345.5,-112.5"/>
<text text-anchor="middle" x="378" y="-119.5" font-family="FreeSans" font-size="10.00">wx/image.h</text>
</g>
<!-- Node1&#45;&gt;Node6 -->
<g id="edge5" class="edge"><title>Node1&#45;&gt;Node6</title>
<path fill="none" stroke="midnightblue" d="M403.046,-168.083C398.896,-160.613 392.847,-149.724 387.733,-140.52"/>
<polygon fill="midnightblue" stroke="midnightblue" points="390.778,-138.793 382.862,-131.751 384.659,-142.192 390.778,-138.793"/>
</g>
<!-- Node7 -->
<g id="node7" class="node"><title>Node7</title>
<g id="a_node7"><a xlink:href="cbauibook_8h" target="_top" xlink:title="cbauibook.h">
<polygon fill="white" stroke="black" points="472,-56.5 472,-75.5 540,-75.5 540,-56.5 472,-56.5"/>
<text text-anchor="middle" x="506" y="-63.5" font-family="FreeSans" font-size="10.00">cbauibook.h</text>
</a>
</g>
</g>
<!-- Node1&#45;&gt;Node7 -->
<g id="edge6" class="edge"><title>Node1&#45;&gt;Node7</title>
<path fill="none" stroke="midnightblue" d="M414.052,-168.234C423.058,-155.406 440.783,-130.982 458,-112 467.497,-101.53 479.028,-90.6666 488.408,-82.2372"/>
<polygon fill="midnightblue" stroke="midnightblue" points="490.822,-84.7748 495.993,-75.5271 486.184,-79.5322 490.822,-84.7748"/>
</g>
<!-- Node8 -->
<g id="node8" class="node"><title>Node8</title>
<g id="a_node8"><a xlink:href="prep_8h" target="_top" xlink:title="prep.h">
<polygon fill="white" stroke="black" points="561.5,-0.5 561.5,-19.5 604.5,-19.5 604.5,-0.5 561.5,-0.5"/>
<text text-anchor="middle" x="583" y="-7.5" font-family="FreeSans" font-size="10.00">prep.h</text>
</a>
</g>
</g>
<!-- Node1&#45;&gt;Node8 -->
<g id="edge10" class="edge"><title>Node1&#45;&gt;Node8</title>
<path fill="none" stroke="midnightblue" d="M457.133,-176.07C492.102,-172.653 537.428,-162.122 564,-132 589.12,-103.524 588.44,-55.8983 585.731,-29.6951"/>
<polygon fill="midnightblue" stroke="midnightblue" points="589.183,-29.091 584.472,-19.6011 582.236,-29.9575 589.183,-29.091"/>
</g>
<!-- Node11 -->
<g id="node11" class="node"><title>Node11</title>
<g id="a_node11"><a xlink:href="notebookstyles_8h" target="_top" xlink:title="notebookstyles.h">
<polygon fill="white" stroke="black" points="467,-112.5 467,-131.5 555,-131.5 555,-112.5 467,-112.5"/>
<text text-anchor="middle" x="511" y="-119.5" font-family="FreeSans" font-size="10.00">notebookstyles.h</text>
</a>
</g>
</g>
<!-- Node1&#45;&gt;Node11 -->
<g id="edge11" class="edge"><title>Node1&#45;&gt;Node11</title>
<path fill="none" stroke="midnightblue" d="M424.549,-168.324C440.992,-159.703 466.435,-146.364 485.468,-136.386"/>
<polygon fill="midnightblue" stroke="midnightblue" points="487.261,-139.398 494.492,-131.655 484.011,-133.198 487.261,-139.398"/>
</g>
<!-- Node12 -->
<g id="node12" class="node"><title>Node12</title>
<polygon fill="white" stroke="#bfbfbf" points="611.5,-112.5 611.5,-131.5 660.5,-131.5 660.5,-112.5 611.5,-112.5"/>
<text text-anchor="middle" x="636" y="-119.5" font-family="FreeSans" font-size="10.00">wx/dc.h</text>
</g>
<!-- Node1&#45;&gt;Node12 -->
<g id="edge13" class="edge"><title>Node1&#45;&gt;Node12</title>
<path fill="none" stroke="midnightblue" d="M444.127,-168.444C487.28,-158.223 558.948,-141.249 601.41,-131.192"/>
<polygon fill="midnightblue" stroke="midnightblue" points="602.361,-134.564 611.285,-128.854 600.747,-127.753 602.361,-134.564"/>
</g>
<!-- Node13 -->
<g id="node13" class="node"><title>Node13</title>
<polygon fill="white" stroke="#bfbfbf" points="679,-112.5 679,-131.5 751,-131.5 751,-112.5 679,-112.5"/>
<text text-anchor="middle" x="715" y="-119.5" font-family="FreeSans" font-size="10.00">wx/dcclient.h</text>
</g>
<!-- Node1&#45;&gt;Node13 -->
<g id="edge14" class="edge"><title>Node1&#45;&gt;Node13</title>
<path fill="none" stroke="midnightblue" d="M457.326,-168.941C507.882,-160.587 589.04,-146.924 668.485,-132.244"/>
<polygon fill="midnightblue" stroke="midnightblue" points="669.473,-135.62 678.667,-130.355 668.196,-128.738 669.473,-135.62"/>
</g>
<!-- Node7&#45;&gt;Node8 -->
<g id="edge7" class="edge"><title>Node7&#45;&gt;Node8</title>
<path fill="none" stroke="midnightblue" d="M518.371,-56.324C530.158,-48.0577 548.132,-35.4527 562.136,-25.6322"/>
<polygon fill="midnightblue" stroke="midnightblue" points="564.482,-28.2619 570.659,-19.6545 560.462,-22.5307 564.482,-28.2619"/>
</g>
<!-- Node9 -->
<g id="node9" class="node"><title>Node9</title>
<polygon fill="white" stroke="#bfbfbf" points="363,-0.5 363,-19.5 451,-19.5 451,-0.5 363,-0.5"/>
<text text-anchor="middle" x="407" y="-7.5" font-family="FreeSans" font-size="10.00">wx/aui/auibook.h</text>
</g>
<!-- Node7&#45;&gt;Node9 -->
<g id="edge8" class="edge"><title>Node7&#45;&gt;Node9</title>
<path fill="none" stroke="midnightblue" d="M490.094,-56.324C474.362,-47.7428 450.058,-34.486 431.791,-24.5224"/>
<polygon fill="midnightblue" stroke="midnightblue" points="433.322,-21.3704 422.867,-19.6545 429.97,-27.5157 433.322,-21.3704"/>
</g>
<!-- Node10 -->
<g id="node10" class="node"><title>Node10</title>
<polygon fill="white" stroke="#bfbfbf" points="469,-0.5 469,-19.5 543,-19.5 543,-0.5 469,-0.5"/>
<text text-anchor="middle" x="506" y="-7.5" font-family="FreeSans" font-size="10.00">wx/dynarray.h</text>
</g>
<!-- Node7&#45;&gt;Node10 -->
<g id="edge9" class="edge"><title>Node7&#45;&gt;Node10</title>
<path fill="none" stroke="midnightblue" d="M506,-56.083C506,-49.0059 506,-38.8611 506,-29.9865"/>
<polygon fill="midnightblue" stroke="midnightblue" points="509.5,-29.751 506,-19.7511 502.5,-29.7511 509.5,-29.751"/>
</g>
<!-- Node11&#45;&gt;Node7 -->
<g id="edge12" class="edge"><title>Node11&#45;&gt;Node7</title>
<path fill="none" stroke="midnightblue" d="M510.174,-112.083C509.519,-105.006 508.58,-94.8611 507.758,-85.9865"/>
<polygon fill="midnightblue" stroke="midnightblue" points="511.217,-85.3858 506.81,-75.7511 504.247,-86.0312 511.217,-85.3858"/>
</g>
</g>
</svg>
