<?xml version="1.0" encoding="UTF-8" standalone="no"?>
<!DOCTYPE svg PUBLIC "-//W3C//DTD SVG 1.1//EN"
 "http://www.w3.org/Graphics/SVG/1.1/DTD/svg11.dtd">
<!-- Generated by graphviz version 2.38.0 (20140413.2041)
 -->
<!-- Title: parserthread.h Pages: 1 -->
<svg width="1378pt" height="364pt"
 viewBox="0.00 0.00 1378.01 364.00" xmlns="http://www.w3.org/2000/svg" xmlns:xlink="http://www.w3.org/1999/xlink">
<g id="graph0" class="graph" transform="scale(1 1) rotate(0) translate(4 360)">
<title>parserthread.h</title>
<!-- Node51 -->
<g id="node1" class="node"><title>Node51</title>
<polygon fill="#bfbfbf" stroke="black" points="792.509,-336.5 792.509,-355.5 869.509,-355.5 869.509,-336.5 792.509,-336.5"/>
<text text-anchor="middle" x="831.009" y="-343.5" font-family="FreeSans" font-size="10.00">parserthread.h</text>
</g>
<!-- Node52 -->
<g id="node2" class="node"><title>Node52</title>
<g id="a_node2"><a xlink:href="parser_8h" target="_top" xlink:title="parser.h">
<polygon fill="none" stroke="black" points="725.009,-224.5 725.009,-243.5 775.009,-243.5 775.009,-224.5 725.009,-224.5"/>
<text text-anchor="middle" x="750.009" y="-231.5" font-family="FreeSans" font-size="10.00">parser.h</text>
</a>
</g>
</g>
<!-- Node51&#45;&gt;Node52 -->
<g id="edge1" class="edge"><title>Node51&#45;&gt;Node52</title>
<path fill="none" stroke="midnightblue" d="M812.075,-329.453C802.888,-321.302 792.115,-310.786 784.009,-300 770.083,-281.472 758.773,-256.435 753.398,-243.509"/>
<polygon fill="midnightblue" stroke="midnightblue" points="810.078,-332.352 819.944,-336.214 814.639,-327.042 810.078,-332.352"/>
</g>
<!-- Node75 -->
<g id="node21" class="node"><title>Node75</title>
<g id="a_node21"><a xlink:href="parserthread_8cpp" target="_top" xlink:title="parserthread.cpp">
<polygon fill="none" stroke="black" points="1282.01,-168.5 1282.01,-187.5 1370.01,-187.5 1370.01,-168.5 1282.01,-168.5"/>
<text text-anchor="middle" x="1326.01" y="-175.5" font-family="FreeSans" font-size="10.00">parserthread.cpp</text>
</a>
</g>
</g>
<!-- Node51&#45;&gt;Node75 -->
<g id="edge42" class="edge"><title>Node51&#45;&gt;Node75</title>
<path fill="none" stroke="midnightblue" d="M866.251,-333.181C960.824,-301.466 1218.58,-215.027 1300.59,-187.524"/>
<polygon fill="midnightblue" stroke="midnightblue" points="864.948,-329.927 856.58,-336.425 867.174,-336.563 864.948,-329.927"/>
</g>
<!-- Node77 -->
<g id="node23" class="node"><title>Node77</title>
<g id="a_node23"><a xlink:href="parser__base_8h" target="_top" xlink:title="parser_base.h">
<polygon fill="none" stroke="black" points="793.009,-280.5 793.009,-299.5 869.009,-299.5 869.009,-280.5 793.009,-280.5"/>
<text text-anchor="middle" x="831.009" y="-287.5" font-family="FreeSans" font-size="10.00">parser_base.h</text>
</a>
</g>
</g>
<!-- Node51&#45;&gt;Node77 -->
<g id="edge39" class="edge"><title>Node51&#45;&gt;Node77</title>
<path fill="none" stroke="midnightblue" d="M831.009,-325.805C831.009,-316.91 831.009,-306.78 831.009,-299.751"/>
<polygon fill="midnightblue" stroke="midnightblue" points="827.509,-326.083 831.009,-336.083 834.509,-326.083 827.509,-326.083"/>
</g>
<!-- Node53 -->
<g id="node3" class="node"><title>Node53</title>
<g id="a_node3"><a xlink:href="nativeparser_8h" target="_top" xlink:title="nativeparser.h">
<polygon fill="none" stroke="black" points="464.009,-168.5 464.009,-187.5 540.009,-187.5 540.009,-168.5 464.009,-168.5"/>
<text text-anchor="middle" x="502.009" y="-175.5" font-family="FreeSans" font-size="10.00">nativeparser.h</text>
</a>
</g>
</g>
<!-- Node52&#45;&gt;Node53 -->
<g id="edge2" class="edge"><title>Node52&#45;&gt;Node53</title>
<path fill="none" stroke="midnightblue" d="M715.013,-225.38C668.828,-215.324 587.818,-197.684 540.124,-187.299"/>
<polygon fill="midnightblue" stroke="midnightblue" points="714.349,-228.817 724.864,-227.525 715.838,-221.978 714.349,-228.817"/>
</g>
<!-- Node54 -->
<g id="node4" class="node"><title>Node54</title>
<g id="a_node4"><a xlink:href="ccoptionsdlg_8h" target="_top" xlink:title="ccoptionsdlg.h">
<polygon fill="none" stroke="red" points="530.009,-112.5 530.009,-131.5 608.009,-131.5 608.009,-112.5 530.009,-112.5"/>
<text text-anchor="middle" x="569.009" y="-119.5" font-family="FreeSans" font-size="10.00">ccoptionsdlg.h</text>
</a>
</g>
</g>
<!-- Node52&#45;&gt;Node54 -->
<g id="edge21" class="edge"><title>Node52&#45;&gt;Node54</title>
<path fill="none" stroke="midnightblue" d="M721.213,-220.016C703.24,-211.569 679.834,-199.936 660.009,-188 629.737,-169.774 596.514,-144.61 579.836,-131.585"/>
<polygon fill="midnightblue" stroke="midnightblue" points="720.038,-223.329 730.582,-224.363 722.984,-216.979 720.038,-223.329"/>
</g>
<!-- Node56 -->
<g id="node5" class="node"><title>Node56</title>
<g id="a_node5"><a xlink:href="codecompletion_8cpp" target="_top" xlink:title="codecompletion.cpp">
<polygon fill="none" stroke="black" points="113.509,-0.5 113.509,-19.5 216.509,-19.5 216.509,-0.5 113.509,-0.5"/>
<text text-anchor="middle" x="165.009" y="-7.5" font-family="FreeSans" font-size="10.00">codecompletion.cpp</text>
</a>
</g>
</g>
<!-- Node52&#45;&gt;Node56 -->
<g id="edge32" class="edge"><title>Node52&#45;&gt;Node56</title>
<path fill="none" stroke="midnightblue" d="M714.83,-232.379C598.821,-230.039 229.258,-220.18 115.009,-188 62.9648,-173.341 35.0956,-178.202 7.00877,-132 -27.2712,-75.611 77.5526,-36.0096 132.993,-19.5348"/>
<polygon fill="midnightblue" stroke="midnightblue" points="714.872,-235.88 724.938,-232.577 715.009,-228.882 714.872,-235.88"/>
</g>
<!-- Node61 -->
<g id="node9" class="node"><title>Node61</title>
<g id="a_node9"><a xlink:href="ccoptionsprjdlg_8h" target="_top" xlink:title="ccoptionsprjdlg.h">
<polygon fill="none" stroke="red" points="16.5088,-112.5 16.5088,-131.5 105.509,-131.5 105.509,-112.5 16.5088,-112.5"/>
<text text-anchor="middle" x="61.0088" y="-119.5" font-family="FreeSans" font-size="10.00">ccoptionsprjdlg.h</text>
</a>
</g>
</g>
<!-- Node52&#45;&gt;Node61 -->
<g id="edge25" class="edge"><title>Node52&#45;&gt;Node61</title>
<path fill="none" stroke="midnightblue" d="M714.868,-232.663C603.862,-231.236 261.927,-223.958 158.009,-188 121.993,-175.538 86.5627,-146.325 70.2815,-131.684"/>
<polygon fill="midnightblue" stroke="midnightblue" points="714.833,-236.163 724.874,-232.784 714.917,-229.164 714.833,-236.163"/>
</g>
<!-- Node63 -->
<g id="node10" class="node"><title>Node63</title>
<g id="a_node10"><a xlink:href="classbrowserbuilderthread_8h" target="_top" xlink:title="classbrowserbuilderthread.h">
<polygon fill="none" stroke="red" points="740.009,-112.5 740.009,-131.5 874.009,-131.5 874.009,-112.5 740.009,-112.5"/>
<text text-anchor="middle" x="807.009" y="-119.5" font-family="FreeSans" font-size="10.00">classbrowserbuilderthread.h</text>
</a>
</g>
</g>
<!-- Node52&#45;&gt;Node63 -->
<g id="edge30" class="edge"><title>Node52&#45;&gt;Node63</title>
<path fill="none" stroke="midnightblue" d="M753.341,-214.168C756.225,-200.743 761.187,-182.566 769.009,-168 776.556,-153.947 789.016,-140.311 797.598,-131.802"/>
<polygon fill="midnightblue" stroke="midnightblue" points="749.875,-213.659 751.391,-224.145 756.745,-215.002 749.875,-213.659"/>
</g>
<!-- Node64 -->
<g id="node11" class="node"><title>Node64</title>
<g id="a_node11"><a xlink:href="classbrowser_8h" target="_top" xlink:title="classbrowser.h">
<polygon fill="none" stroke="black" points="702.509,-56.5 702.509,-75.5 781.509,-75.5 781.509,-56.5 702.509,-56.5"/>
<text text-anchor="middle" x="742.009" y="-63.5" font-family="FreeSans" font-size="10.00">classbrowser.h</text>
</a>
</g>
</g>
<!-- Node52&#45;&gt;Node64 -->
<g id="edge31" class="edge"><title>Node52&#45;&gt;Node64</title>
<path fill="none" stroke="midnightblue" d="M743.883,-214.466C736.793,-190.773 726.618,-148.451 731.009,-112 732.567,-99.0646 736.558,-84.4802 739.279,-75.5139"/>
<polygon fill="midnightblue" stroke="midnightblue" points="740.612,-215.734 746.949,-224.224 747.29,-213.635 740.612,-215.734"/>
</g>
<!-- Node66 -->
<g id="node13" class="node"><title>Node66</title>
<g id="a_node13"><a xlink:href="nativeparser_8cpp" target="_top" xlink:title="nativeparser.cpp">
<polygon fill="none" stroke="black" points="631.009,-0.5 631.009,-19.5 717.009,-19.5 717.009,-0.5 631.009,-0.5"/>
<text text-anchor="middle" x="674.009" y="-7.5" font-family="FreeSans" font-size="10.00">nativeparser.cpp</text>
</a>
</g>
</g>
<!-- Node52&#45;&gt;Node66 -->
<g id="edge34" class="edge"><title>Node52&#45;&gt;Node66</title>
<path fill="none" stroke="midnightblue" d="M741.607,-215.195C737.864,-206.993 733.518,-197.084 730.009,-188 705.502,-124.563 683.35,-45.4552 676.32,-19.6042"/>
<polygon fill="midnightblue" stroke="midnightblue" points="738.532,-216.884 745.918,-224.48 744.881,-213.936 738.532,-216.884"/>
</g>
<!-- Node67 -->
<g id="node14" class="node"><title>Node67</title>
<g id="a_node14"><a xlink:href="parser_8cpp" target="_top" xlink:title="parser.cpp">
<polygon fill="none" stroke="black" points="779.509,-0.5 779.509,-19.5 840.509,-19.5 840.509,-0.5 779.509,-0.5"/>
<text text-anchor="middle" x="810.009" y="-7.5" font-family="FreeSans" font-size="10.00">parser.cpp</text>
</a>
</g>
</g>
<!-- Node52&#45;&gt;Node67 -->
<g id="edge36" class="edge"><title>Node52&#45;&gt;Node67</title>
<path fill="none" stroke="midnightblue" d="M785.334,-224.486C867.268,-216.314 1202.5,-223.202 1235.01,-188 1354.03,-59.1029 956.499,-21.1187 840.722,-12.9075"/>
<polygon fill="midnightblue" stroke="midnightblue" points="784.616,-221.05 775.149,-225.808 785.517,-227.992 784.616,-221.05"/>
</g>
<!-- Node69 -->
<g id="node15" class="node"><title>Node69</title>
<g id="a_node15"><a xlink:href="systemheadersthread_8h" target="_top" xlink:title="systemheadersthread.h">
<polygon fill="none" stroke="black" points="167.509,-168.5 167.509,-187.5 282.509,-187.5 282.509,-168.5 167.509,-168.5"/>
<text text-anchor="middle" x="225.009" y="-175.5" font-family="FreeSans" font-size="10.00">systemheadersthread.h</text>
</a>
</g>
</g>
<!-- Node52&#45;&gt;Node69 -->
<g id="edge22" class="edge"><title>Node52&#45;&gt;Node69</title>
<path fill="none" stroke="midnightblue" d="M714.56,-229.354C625.484,-220.192 391.627,-196.138 282.557,-184.919"/>
<polygon fill="midnightblue" stroke="midnightblue" points="714.381,-232.854 724.687,-230.395 715.098,-225.891 714.381,-232.854"/>
</g>
<!-- Node71 -->
<g id="node17" class="node"><title>Node71</title>
<g id="a_node17"><a xlink:href="cctreectrl_8h" target="_top" xlink:title="cctreectrl.h">
<polygon fill="none" stroke="black" points="778.509,-168.5 778.509,-187.5 843.509,-187.5 843.509,-168.5 778.509,-168.5"/>
<text text-anchor="middle" x="811.009" y="-175.5" font-family="FreeSans" font-size="10.00">cctreectrl.h</text>
</a>
</g>
</g>
<!-- Node52&#45;&gt;Node71 -->
<g id="edge26" class="edge"><title>Node52&#45;&gt;Node71</title>
<path fill="none" stroke="midnightblue" d="M767.476,-217.537C778.353,-207.909 791.953,-195.869 801.03,-187.834"/>
<polygon fill="midnightblue" stroke="midnightblue" points="764.977,-215.075 759.809,-224.324 769.617,-220.316 764.977,-215.075"/>
</g>
<!-- Node73 -->
<g id="node19" class="node"><title>Node73</title>
<g id="a_node19"><a xlink:href="insertclassmethoddlg_8cpp" target="_top" xlink:title="insertclassmethoddlg.cpp">
<polygon fill="none" stroke="black" points="861.509,-168.5 861.509,-187.5 986.509,-187.5 986.509,-168.5 861.509,-168.5"/>
<text text-anchor="middle" x="924.009" y="-175.5" font-family="FreeSans" font-size="10.00">insertclassmethoddlg.cpp</text>
</a>
</g>
</g>
<!-- Node52&#45;&gt;Node73 -->
<g id="edge33" class="edge"><title>Node52&#45;&gt;Node73</title>
<path fill="none" stroke="midnightblue" d="M784.952,-222.155C817.759,-211.974 866.186,-196.945 896.376,-187.576"/>
<polygon fill="midnightblue" stroke="midnightblue" points="783.823,-218.841 775.31,-225.148 785.898,-225.527 783.823,-218.841"/>
</g>
<!-- Node74 -->
<g id="node20" class="node"><title>Node74</title>
<g id="a_node20"><a xlink:href="ccdebuginfo_8cpp" target="_top" xlink:title="ccdebuginfo.cpp">
<polygon fill="none" stroke="black" points="1004.51,-168.5 1004.51,-187.5 1091.51,-187.5 1091.51,-168.5 1004.51,-168.5"/>
<text text-anchor="middle" x="1048.01" y="-175.5" font-family="FreeSans" font-size="10.00">ccdebuginfo.cpp</text>
</a>
</g>
</g>
<!-- Node52&#45;&gt;Node74 -->
<g id="edge35" class="edge"><title>Node52&#45;&gt;Node74</title>
<path fill="none" stroke="midnightblue" d="M785.3,-224.117C821.462,-217.505 939.352,-197.461 1004.37,-186.414"/>
<polygon fill="midnightblue" stroke="midnightblue" points="784.356,-220.734 775.199,-226.062 785.68,-227.608 784.356,-220.734"/>
</g>
<!-- Node52&#45;&gt;Node75 -->
<g id="edge37" class="edge"><title>Node52&#45;&gt;Node75</title>
<path fill="none" stroke="midnightblue" d="M785.097,-224.13C998.492,-188.974 1056.95,-212.186 1268.01,-188 1272.46,-187.49 1277.1,-186.889 1281.72,-186.244"/>
<polygon fill="midnightblue" stroke="midnightblue" points="784.433,-220.692 775.147,-225.793 785.587,-227.596 784.433,-220.692"/>
</g>
<!-- Node76 -->
<g id="node22" class="node"><title>Node76</title>
<g id="a_node22"><a xlink:href="parserthreadedtask_8cpp" target="_top" xlink:title="parserthreadedtask.cpp">
<polygon fill="none" stroke="black" points="1110.01,-168.5 1110.01,-187.5 1226.01,-187.5 1226.01,-168.5 1110.01,-168.5"/>
<text text-anchor="middle" x="1168.01" y="-175.5" font-family="FreeSans" font-size="10.00">parserthreadedtask.cpp</text>
</a>
</g>
</g>
<!-- Node52&#45;&gt;Node76 -->
<g id="edge38" class="edge"><title>Node52&#45;&gt;Node76</title>
<path fill="none" stroke="midnightblue" d="M785.376,-223.989C924.702,-198.18 963.003,-204.869 1100.01,-188 1103.2,-187.607 1106.47,-187.197 1109.78,-186.778"/>
<polygon fill="midnightblue" stroke="midnightblue" points="784.35,-220.621 775.167,-225.905 785.641,-227.501 784.35,-220.621"/>
</g>
<!-- Node53&#45;&gt;Node54 -->
<g id="edge3" class="edge"><title>Node53&#45;&gt;Node54</title>
<path fill="none" stroke="midnightblue" d="M520.844,-161.82C532.847,-152.145 547.981,-139.948 558.048,-131.834"/>
<polygon fill="midnightblue" stroke="midnightblue" points="518.363,-159.324 512.773,-168.324 522.756,-164.774 518.363,-159.324"/>
</g>
<!-- Node57 -->
<g id="node6" class="node"><title>Node57</title>
<g id="a_node6"><a xlink:href="coderefactoring_8h" target="_top" xlink:title="coderefactoring.h">
<polygon fill="none" stroke="black" points="344.509,-112.5 344.509,-131.5 435.509,-131.5 435.509,-112.5 344.509,-112.5"/>
<text text-anchor="middle" x="390.009" y="-119.5" font-family="FreeSans" font-size="10.00">coderefactoring.h</text>
</a>
</g>
</g>
<!-- Node53&#45;&gt;Node57 -->
<g id="edge5" class="edge"><title>Node53&#45;&gt;Node57</title>
<path fill="none" stroke="midnightblue" d="M474.76,-163.862C453.992,-153.849 425.985,-140.346 407.959,-131.655"/>
<polygon fill="midnightblue" stroke="midnightblue" points="473.486,-167.134 484.014,-168.324 476.526,-160.828 473.486,-167.134"/>
</g>
<!-- Node58 -->
<g id="node7" class="node"><title>Node58</title>
<g id="a_node7"><a xlink:href="codecompletion_8h" target="_top" xlink:title="codecompletion.h">
<polygon fill="none" stroke="red" points="190.009,-56.5 190.009,-75.5 282.009,-75.5 282.009,-56.5 190.009,-56.5"/>
<text text-anchor="middle" x="236.009" y="-63.5" font-family="FreeSans" font-size="10.00">codecompletion.h</text>
</a>
</g>
</g>
<!-- Node53&#45;&gt;Node58 -->
<g id="edge9" class="edge"><title>Node53&#45;&gt;Node58</title>
<path fill="none" stroke="midnightblue" d="M453.518,-168.195C419.418,-160.991 373.237,-149.168 335.009,-132 300.309,-116.417 264.06,-89.4112 246.623,-75.6301"/>
<polygon fill="midnightblue" stroke="midnightblue" points="453.191,-171.701 463.69,-170.283 454.598,-164.844 453.191,-171.701"/>
</g>
<!-- Node60 -->
<g id="node8" class="node"><title>Node60</title>
<g id="a_node8"><a xlink:href="coderefactoring_8cpp" target="_top" xlink:title="coderefactoring.cpp">
<polygon fill="none" stroke="black" points="334.509,-56.5 334.509,-75.5 435.509,-75.5 435.509,-56.5 334.509,-56.5"/>
<text text-anchor="middle" x="385.009" y="-63.5" font-family="FreeSans" font-size="10.00">coderefactoring.cpp</text>
</a>
</g>
</g>
<!-- Node53&#45;&gt;Node60 -->
<g id="edge19" class="edge"><title>Node53&#45;&gt;Node60</title>
<path fill="none" stroke="midnightblue" d="M488.442,-160.08C477.174,-146.466 460.395,-127.172 444.009,-112 429.073,-98.1718 410.099,-84.2714 397.761,-75.6553"/>
<polygon fill="midnightblue" stroke="midnightblue" points="485.956,-162.57 494.99,-168.105 491.38,-158.145 485.956,-162.57"/>
</g>
<!-- Node53&#45;&gt;Node61 -->
<g id="edge10" class="edge"><title>Node53&#45;&gt;Node61</title>
<path fill="none" stroke="midnightblue" d="M453.621,-171.075C367.57,-160.538 189.158,-138.692 105.776,-128.482"/>
<polygon fill="midnightblue" stroke="midnightblue" points="453.293,-174.561 463.644,-172.302 454.144,-167.613 453.293,-174.561"/>
</g>
<!-- Node53&#45;&gt;Node63 -->
<g id="edge12" class="edge"><title>Node53&#45;&gt;Node63</title>
<path fill="none" stroke="midnightblue" d="M549.877,-168.525C606.957,-158.419 701.801,-141.627 758.961,-131.507"/>
<polygon fill="midnightblue" stroke="midnightblue" points="549.257,-165.08 540.021,-170.27 550.478,-171.973 549.257,-165.08"/>
</g>
<!-- Node65 -->
<g id="node12" class="node"><title>Node65</title>
<g id="a_node12"><a xlink:href="classbrowser_8cpp" target="_top" xlink:title="classbrowser.cpp">
<polygon fill="none" stroke="black" points="490.509,-0.5 490.509,-19.5 579.509,-19.5 579.509,-0.5 490.509,-0.5"/>
<text text-anchor="middle" x="535.009" y="-7.5" font-family="FreeSans" font-size="10.00">classbrowser.cpp</text>
</a>
</g>
</g>
<!-- Node53&#45;&gt;Node65 -->
<g id="edge18" class="edge"><title>Node53&#45;&gt;Node65</title>
<path fill="none" stroke="midnightblue" d="M505.8,-157.93C512.958,-121.92 528.204,-45.2312 533.305,-19.5681"/>
<polygon fill="midnightblue" stroke="midnightblue" points="502.3,-157.585 503.783,-168.075 509.166,-158.95 502.3,-157.585"/>
</g>
<!-- Node53&#45;&gt;Node66 -->
<g id="edge20" class="edge"><title>Node53&#45;&gt;Node66</title>
<path fill="none" stroke="midnightblue" d="M549.855,-167.01C572.446,-160.274 598.455,-149.346 617.009,-132 634.819,-115.349 661.766,-44.5935 670.874,-19.7035"/>
<polygon fill="midnightblue" stroke="midnightblue" points="548.779,-163.677 540.085,-169.733 550.658,-170.42 548.779,-163.677"/>
</g>
<!-- Node54&#45;&gt;Node56 -->
<g id="edge4" class="edge"><title>Node54&#45;&gt;Node56</title>
<path fill="none" stroke="midnightblue" d="M547.026,-106.79C522.781,-91.7953 482.138,-68.6235 444.009,-56 367.156,-30.5561 273.469,-19.2171 216.574,-14.3708"/>
<polygon fill="midnightblue" stroke="midnightblue" points="545.44,-109.928 555.77,-112.285 549.165,-104.001 545.44,-109.928"/>
</g>
<!-- Node57&#45;&gt;Node58 -->
<g id="edge6" class="edge"><title>Node57&#45;&gt;Node58</title>
<path fill="none" stroke="midnightblue" d="M355.898,-109.039C326.922,-98.8786 286.047,-84.5457 260.296,-75.5164"/>
<polygon fill="midnightblue" stroke="midnightblue" points="355.012,-112.437 365.607,-112.444 357.328,-105.832 355.012,-112.437"/>
</g>
<!-- Node57&#45;&gt;Node60 -->
<g id="edge8" class="edge"><title>Node57&#45;&gt;Node60</title>
<path fill="none" stroke="midnightblue" d="M388.259,-102.101C387.429,-93.1357 386.477,-82.8579 385.819,-75.7511"/>
<polygon fill="midnightblue" stroke="midnightblue" points="384.776,-102.448 389.183,-112.083 391.746,-101.803 384.776,-102.448"/>
</g>
<!-- Node58&#45;&gt;Node56 -->
<g id="edge7" class="edge"><title>Node58&#45;&gt;Node56</title>
<path fill="none" stroke="midnightblue" d="M216.419,-50.1008C203.641,-40.3824 187.396,-28.0269 176.624,-19.8339"/>
<polygon fill="midnightblue" stroke="midnightblue" points="214.523,-53.0561 224.601,-56.324 218.761,-47.4844 214.523,-53.0561"/>
</g>
<!-- Node61&#45;&gt;Node56 -->
<g id="edge11" class="edge"><title>Node61&#45;&gt;Node56</title>
<path fill="none" stroke="midnightblue" d="M76.2338,-104.897C98.5919,-81.2486 139.529,-37.9493 156.886,-19.5914"/>
<polygon fill="midnightblue" stroke="midnightblue" points="73.4963,-102.697 69.1695,-112.368 78.5829,-107.507 73.4963,-102.697"/>
</g>
<!-- Node63&#45;&gt;Node64 -->
<g id="edge13" class="edge"><title>Node63&#45;&gt;Node64</title>
<path fill="none" stroke="midnightblue" d="M788.736,-105.82C777.091,-96.1452 762.409,-83.9481 752.642,-75.8339"/>
<polygon fill="midnightblue" stroke="midnightblue" points="786.637,-108.626 796.565,-112.324 791.11,-103.242 786.637,-108.626"/>
</g>
<!-- Node63&#45;&gt;Node67 -->
<g id="edge17" class="edge"><title>Node63&#45;&gt;Node67</title>
<path fill="none" stroke="midnightblue" d="M807.517,-102.348C808.175,-78.2538 809.291,-37.3079 809.774,-19.5914"/>
<polygon fill="midnightblue" stroke="midnightblue" points="804.018,-102.277 807.244,-112.368 811.016,-102.468 804.018,-102.277"/>
</g>
<!-- Node64&#45;&gt;Node65 -->
<g id="edge14" class="edge"><title>Node64&#45;&gt;Node65</title>
<path fill="none" stroke="midnightblue" d="M699.187,-53.8291C660.103,-43.6333 603.174,-28.7823 567.655,-19.5164"/>
<polygon fill="midnightblue" stroke="midnightblue" points="698.649,-57.3059 709.209,-56.4435 700.416,-50.5326 698.649,-57.3059"/>
</g>
<!-- Node64&#45;&gt;Node66 -->
<g id="edge15" class="edge"><title>Node64&#45;&gt;Node66</title>
<path fill="none" stroke="midnightblue" d="M723.247,-50.1008C711.009,-40.3824 695.45,-28.0269 685.133,-19.8339"/>
<polygon fill="midnightblue" stroke="midnightblue" points="721.076,-52.846 731.083,-56.324 725.429,-47.3642 721.076,-52.846"/>
</g>
<!-- Node64&#45;&gt;Node67 -->
<g id="edge16" class="edge"><title>Node64&#45;&gt;Node67</title>
<path fill="none" stroke="midnightblue" d="M760.771,-50.1008C773.009,-40.3824 788.567,-28.0269 798.885,-19.8339"/>
<polygon fill="midnightblue" stroke="midnightblue" points="758.589,-47.3642 752.934,-56.324 762.942,-52.846 758.589,-47.3642"/>
</g>
<!-- Node69&#45;&gt;Node58 -->
<g id="edge23" class="edge"><title>Node69&#45;&gt;Node58</title>
<path fill="none" stroke="midnightblue" d="M192.35,-164.338C167.617,-152.694 139.946,-133.941 153.009,-112 163.993,-93.5496 185.47,-82.1985 203.824,-75.5124"/>
<polygon fill="midnightblue" stroke="midnightblue" points="191.035,-167.583 201.595,-168.444 193.877,-161.186 191.035,-167.583"/>
</g>
<!-- Node70 -->
<g id="node16" class="node"><title>Node70</title>
<g id="a_node16"><a xlink:href="systemheadersthread_8cpp" target="_top" xlink:title="systemheadersthread.cpp">
<polygon fill="none" stroke="black" points="162.509,-112.5 162.509,-131.5 287.509,-131.5 287.509,-112.5 162.509,-112.5"/>
<text text-anchor="middle" x="225.009" y="-119.5" font-family="FreeSans" font-size="10.00">systemheadersthread.cpp</text>
</a>
</g>
</g>
<!-- Node69&#45;&gt;Node70 -->
<g id="edge24" class="edge"><title>Node69&#45;&gt;Node70</title>
<path fill="none" stroke="midnightblue" d="M225.009,-157.805C225.009,-148.91 225.009,-138.78 225.009,-131.751"/>
<polygon fill="midnightblue" stroke="midnightblue" points="221.509,-158.083 225.009,-168.083 228.509,-158.083 221.509,-158.083"/>
</g>
<!-- Node71&#45;&gt;Node63 -->
<g id="edge29" class="edge"><title>Node71&#45;&gt;Node63</title>
<path fill="none" stroke="midnightblue" d="M809.609,-158.101C808.945,-149.136 808.183,-138.858 807.657,-131.751"/>
<polygon fill="midnightblue" stroke="midnightblue" points="806.119,-158.369 810.348,-168.083 813.1,-157.852 806.119,-158.369"/>
</g>
<!-- Node71&#45;&gt;Node64 -->
<g id="edge28" class="edge"><title>Node71&#45;&gt;Node64</title>
<path fill="none" stroke="midnightblue" d="M843.438,-164.258C869.115,-152.229 898.315,-132.952 883.009,-112 860.045,-80.5658 814.879,-70.5769 781.832,-67.6597"/>
<polygon fill="midnightblue" stroke="midnightblue" points="841.943,-161.092 834.226,-168.351 844.786,-167.489 841.943,-161.092"/>
</g>
<!-- Node72 -->
<g id="node18" class="node"><title>Node72</title>
<g id="a_node18"><a xlink:href="cctreectrl_8cpp" target="_top" xlink:title="cctreectrl.cpp">
<polygon fill="none" stroke="black" points="930.509,-112.5 930.509,-131.5 1005.51,-131.5 1005.51,-112.5 930.509,-112.5"/>
<text text-anchor="middle" x="968.009" y="-119.5" font-family="FreeSans" font-size="10.00">cctreectrl.cpp</text>
</a>
</g>
</g>
<!-- Node71&#45;&gt;Node72 -->
<g id="edge27" class="edge"><title>Node71&#45;&gt;Node72</title>
<path fill="none" stroke="midnightblue" d="M845.397,-165.172C874.96,-155.004 916.882,-140.585 943.248,-131.516"/>
<polygon fill="midnightblue" stroke="midnightblue" points="844.204,-161.881 835.886,-168.444 846.481,-168.501 844.204,-161.881"/>
</g>
<!-- Node77&#45;&gt;Node52 -->
<g id="edge40" class="edge"><title>Node77&#45;&gt;Node52</title>
<path fill="none" stroke="midnightblue" d="M809.442,-274.622C794.645,-264.757 775.497,-251.992 762.991,-243.655"/>
<polygon fill="midnightblue" stroke="midnightblue" points="807.733,-277.689 817.995,-280.324 811.616,-271.865 807.733,-277.689"/>
</g>
<!-- Node78 -->
<g id="node24" class="node"><title>Node78</title>
<g id="a_node24"><a xlink:href="parser__base_8cpp" target="_top" xlink:title="parser_base.cpp">
<polygon fill="none" stroke="black" points="793.009,-224.5 793.009,-243.5 879.009,-243.5 879.009,-224.5 793.009,-224.5"/>
<text text-anchor="middle" x="836.009" y="-231.5" font-family="FreeSans" font-size="10.00">parser_base.cpp</text>
</a>
</g>
</g>
<!-- Node77&#45;&gt;Node78 -->
<g id="edge41" class="edge"><title>Node77&#45;&gt;Node78</title>
<path fill="none" stroke="midnightblue" d="M832.759,-270.101C833.589,-261.136 834.54,-250.858 835.198,-243.751"/>
<polygon fill="midnightblue" stroke="midnightblue" points="829.271,-269.803 831.834,-280.083 836.242,-270.448 829.271,-269.803"/>
</g>
</g>
</svg>
