<?xml version="1.0" encoding="UTF-8" standalone="no"?>
<!DOCTYPE svg PUBLIC "-//W3C//DTD SVG 1.1//EN"
 "http://www.w3.org/Graphics/SVG/1.1/DTD/svg11.dtd">
<!-- Generated by graphviz version 2.40.1 (20161225.0304)
 -->
<!-- Title: parserthreadedtask.cpp Pages: 1 -->
<svg width="1835pt" height="364pt"
 viewBox="0.00 0.00 1835.30 364.00" xmlns="http://www.w3.org/2000/svg" xmlns:xlink="http://www.w3.org/1999/xlink">
<g id="graph0" class="graph" transform="scale(1 1) rotate(0) translate(4 360)">
<title>parserthreadedtask.cpp</title>
<!-- Node0 -->
<g id="node1" class="node">
<title>Node0</title>
<polygon fill="#bfbfbf" stroke="#000000" points="1197.3,-336.5 1197.3,-355.5 1313.3,-355.5 1313.3,-336.5 1197.3,-336.5"/>
<text text-anchor="middle" x="1255.3" y="-343.5" font-family="FreeSans" font-size="10.00" fill="#000000">parserthreadedtask.cpp</text>
</g>
<!-- Node1 -->
<g id="node2" class="node">
<title>Node1</title>
<g id="a_node2"><a xlink:href="sdk_8h" target="_top" xlink:title="sdk.h">
<polygon fill="none" stroke="#000000" points="832.8,-280.5 832.8,-299.5 871.8,-299.5 871.8,-280.5 832.8,-280.5"/>
<text text-anchor="middle" x="852.3" y="-287.5" font-family="FreeSans" font-size="10.00" fill="#000000">sdk.h</text>
</a>
</g>
</g>
<!-- Node0&#45;&gt;Node1 -->
<g id="edge1" class="edge">
<title>Node0&#45;&gt;Node1</title>
<path fill="none" stroke="#191970" d="M1197.1308,-337.9169C1109.9962,-325.8089 948.7221,-303.3986 882.1932,-294.1539"/>
<polygon fill="#191970" stroke="#191970" points="882.3788,-290.6461 871.9922,-292.7364 881.4153,-297.5795 882.3788,-290.6461"/>
</g>
<!-- Node137 -->
<g id="node22" class="node">
<title>Node137</title>
<g id="a_node22"><a xlink:href="parserthreadedtask_8h" target="_top" xlink:title="parserthreadedtask.h">
<polygon fill="none" stroke="#000000" points="1617.3,-168.5 1617.3,-187.5 1723.3,-187.5 1723.3,-168.5 1617.3,-168.5"/>
<text text-anchor="middle" x="1670.3" y="-175.5" font-family="FreeSans" font-size="10.00" fill="#000000">parserthreadedtask.h</text>
</a>
</g>
</g>
<!-- Node0&#45;&gt;Node137 -->
<g id="edge24" class="edge">
<title>Node0&#45;&gt;Node137</title>
<path fill="none" stroke="#191970" d="M1313.5924,-337.8839C1385.6729,-325.9034 1510.2215,-298.7238 1603.3,-244 1624.7143,-231.4099 1644.3394,-210.4737 1656.7387,-195.5583"/>
<polygon fill="#191970" stroke="#191970" points="1659.6169,-197.5645 1663.163,-187.5807 1654.1649,-193.174 1659.6169,-197.5645"/>
</g>
<!-- Node140 -->
<g id="node25" class="node">
<title>Node140</title>
<g id="a_node25"><a xlink:href="cclogger_8h" target="_top" xlink:title="cclogger.h">
<polygon fill="none" stroke="#000000" points="254.8,-112.5 254.8,-131.5 315.8,-131.5 315.8,-112.5 254.8,-112.5"/>
<text text-anchor="middle" x="285.3" y="-119.5" font-family="FreeSans" font-size="10.00" fill="#000000">cclogger.h</text>
</a>
</g>
</g>
<!-- Node0&#45;&gt;Node140 -->
<g id="edge31" class="edge">
<title>Node0&#45;&gt;Node140</title>
<path fill="none" stroke="#191970" d="M1197.2241,-343.067C962.4448,-330.625 92.2857,-278.6434 13.3,-188 7.4604,-181.2985 7.5626,-174.7892 13.3,-168 28.0689,-150.5238 172.3596,-133.5058 244.5686,-126.0005"/>
<polygon fill="#191970" stroke="#191970" points="245.0849,-129.466 254.6753,-124.9633 244.3702,-122.5026 245.0849,-129.466"/>
</g>
<!-- Node141 -->
<g id="node27" class="node">
<title>Node141</title>
<g id="a_node27"><a xlink:href="parser_8h" target="_top" xlink:title="parser.h">
<polygon fill="none" stroke="#000000" points="1230.3,-280.5 1230.3,-299.5 1280.3,-299.5 1280.3,-280.5 1230.3,-280.5"/>
<text text-anchor="middle" x="1255.3" y="-287.5" font-family="FreeSans" font-size="10.00" fill="#000000">parser.h</text>
</a>
</g>
</g>
<!-- Node0&#45;&gt;Node141 -->
<g id="edge38" class="edge">
<title>Node0&#45;&gt;Node141</title>
<path fill="none" stroke="#191970" d="M1255.3,-336.2455C1255.3,-328.9382 1255.3,-318.6944 1255.3,-309.7046"/>
<polygon fill="#191970" stroke="#191970" points="1258.8001,-309.6426 1255.3,-299.6427 1251.8001,-309.6427 1258.8001,-309.6426"/>
</g>
<!-- Node148 -->
<g id="node31" class="node">
<title>Node148</title>
<g id="a_node31"><a xlink:href="tokentree_8h" target="_top" xlink:title="tokentree.h">
<polygon fill="none" stroke="#ff0000" points="1656.8,-112.5 1656.8,-131.5 1721.8,-131.5 1721.8,-112.5 1656.8,-112.5"/>
<text text-anchor="middle" x="1689.3" y="-119.5" font-family="FreeSans" font-size="10.00" fill="#000000">tokentree.h</text>
</a>
</g>
</g>
<!-- Node0&#45;&gt;Node148 -->
<g id="edge77" class="edge">
<title>Node0&#45;&gt;Node148</title>
<path fill="none" stroke="#191970" d="M1313.4977,-340.2791C1366.7278,-333.9702 1447.1646,-321.7103 1514.3,-300 1617.9434,-266.4838 1676.8248,-281.7432 1732.3,-188 1742.6199,-170.5613 1726.5883,-151.1991 1711.2524,-137.9822"/>
<polygon fill="#191970" stroke="#191970" points="1713.4184,-135.2327 1703.4393,-131.6735 1709.0208,-140.6789 1713.4184,-135.2327"/>
</g>
<!-- Node2 -->
<g id="node3" class="node">
<title>Node2</title>
<g id="a_node3"><a xlink:href="sdk__common_8h" target="_top" xlink:title="sdk_common.h">
<polygon fill="none" stroke="#ff0000" points="479.3,-224.5 479.3,-243.5 561.3,-243.5 561.3,-224.5 479.3,-224.5"/>
<text text-anchor="middle" x="520.3" y="-231.5" font-family="FreeSans" font-size="10.00" fill="#000000">sdk_common.h</text>
</a>
</g>
</g>
<!-- Node1&#45;&gt;Node2 -->
<g id="edge2" class="edge">
<title>Node1&#45;&gt;Node2</title>
<path fill="none" stroke="#191970" d="M832.5262,-286.6646C781.9291,-278.1302 646.4989,-255.2866 571.7012,-242.6701"/>
<polygon fill="#191970" stroke="#191970" points="572.0073,-239.1723 561.5644,-240.9603 570.843,-246.0748 572.0073,-239.1723"/>
</g>
<!-- Node3 -->
<g id="node4" class="node">
<title>Node3</title>
<polygon fill="none" stroke="#bfbfbf" points="486.3,-168.5 486.3,-187.5 554.3,-187.5 554.3,-168.5 486.3,-168.5"/>
<text text-anchor="middle" x="520.3" y="-175.5" font-family="FreeSans" font-size="10.00" fill="#000000">wx/wxprec.h</text>
</g>
<!-- Node2&#45;&gt;Node3 -->
<g id="edge3" class="edge">
<title>Node2&#45;&gt;Node3</title>
<path fill="none" stroke="#191970" d="M520.3,-224.2455C520.3,-216.9382 520.3,-206.6944 520.3,-197.7046"/>
<polygon fill="#191970" stroke="#191970" points="523.8001,-197.6426 520.3,-187.6427 516.8001,-197.6427 523.8001,-197.6426"/>
</g>
<!-- Node4 -->
<g id="node5" class="node">
<title>Node4</title>
<g id="a_node5"><a xlink:href="prep_8h" target="_top" xlink:title="prep.h">
<polygon fill="none" stroke="#000000" points="678.8,-56.5 678.8,-75.5 721.8,-75.5 721.8,-56.5 678.8,-56.5"/>
<text text-anchor="middle" x="700.3" y="-63.5" font-family="FreeSans" font-size="10.00" fill="#000000">prep.h</text>
</a>
</g>
</g>
<!-- Node2&#45;&gt;Node4 -->
<g id="edge4" class="edge">
<title>Node2&#45;&gt;Node4</title>
<path fill="none" stroke="#191970" d="M479.0337,-226.5649C438.1051,-217.276 384.4235,-198.7456 406.3,-168 437.5822,-124.0357 599.036,-86.5805 668.4819,-72.2425"/>
<polygon fill="#191970" stroke="#191970" points="669.3186,-75.644 678.4194,-70.2193 667.9221,-68.7847 669.3186,-75.644"/>
</g>
<!-- Node5 -->
<g id="node6" class="node">
<title>Node5</title>
<polygon fill="none" stroke="#bfbfbf" points="572.3,-168.5 572.3,-187.5 626.3,-187.5 626.3,-168.5 572.3,-168.5"/>
<text text-anchor="middle" x="599.3" y="-175.5" font-family="FreeSans" font-size="10.00" fill="#000000">wx/app.h</text>
</g>
<!-- Node2&#45;&gt;Node5 -->
<g id="edge5" class="edge">
<title>Node2&#45;&gt;Node5</title>
<path fill="none" stroke="#191970" d="M534.0608,-224.2455C545.9552,-215.814 563.365,-203.4729 577.2086,-193.6598"/>
<polygon fill="#191970" stroke="#191970" points="579.5628,-196.2811 585.697,-187.6427 575.5147,-190.5704 579.5628,-196.2811"/>
</g>
<!-- Node6 -->
<g id="node7" class="node">
<title>Node6</title>
<polygon fill="none" stroke="#bfbfbf" points="1339.3,-.5 1339.3,-19.5 1399.3,-19.5 1399.3,-.5 1339.3,-.5"/>
<text text-anchor="middle" x="1369.3" y="-7.5" font-family="FreeSans" font-size="10.00" fill="#000000">wx/arrstr.h</text>
</g>
<!-- Node2&#45;&gt;Node6 -->
<g id="edge6" class="edge">
<title>Node2&#45;&gt;Node6</title>
<path fill="none" stroke="#191970" d="M561.6822,-231.0882C617.4369,-226.2054 712.1533,-214.2011 733.3,-188 760.4162,-154.4026 690.4072,-145.9124 681.3,-132 662.6074,-103.4444 646.8509,-80.7987 670.3,-56 719.4634,-4.007 1242.2272,-28.3046 1313.3,-20 1318.4407,-19.3993 1323.8235,-18.6255 1329.1337,-17.7746"/>
<polygon fill="#191970" stroke="#191970" points="1329.9013,-21.1945 1339.1736,-16.0686 1328.7286,-14.2934 1329.9013,-21.1945"/>
</g>
<!-- Node7 -->
<g id="node8" class="node">
<title>Node7</title>
<polygon fill="none" stroke="#bfbfbf" points="644.8,-168.5 644.8,-187.5 723.8,-187.5 723.8,-168.5 644.8,-168.5"/>
<text text-anchor="middle" x="684.3" y="-175.5" font-family="FreeSans" font-size="10.00" fill="#000000">wx/bmpbuttn.h</text>
</g>
<!-- Node2&#45;&gt;Node7 -->
<g id="edge7" class="edge">
<title>Node2&#45;&gt;Node7</title>
<path fill="none" stroke="#191970" d="M548.4926,-224.3733C575.6453,-215.1016 616.8907,-201.0178 646.8025,-190.804"/>
<polygon fill="#191970" stroke="#191970" points="648.1428,-194.0449 656.4753,-187.5011 645.8808,-187.4204 648.1428,-194.0449"/>
</g>
<!-- Node8 -->
<g id="node9" class="node">
<title>Node8</title>
<polygon fill="none" stroke="#bfbfbf" points="22.8,-168.5 22.8,-187.5 87.8,-187.5 87.8,-168.5 22.8,-168.5"/>
<text text-anchor="middle" x="55.3" y="-175.5" font-family="FreeSans" font-size="10.00" fill="#000000">wx/button.h</text>
</g>
<!-- Node2&#45;&gt;Node8 -->
<g id="edge8" class="edge">
<title>Node2&#45;&gt;Node8</title>
<path fill="none" stroke="#191970" d="M479.2276,-231.2537C405.0725,-225.9232 243.7915,-212.629 98.2411,-187.9717"/>
<polygon fill="#191970" stroke="#191970" points="98.6823,-184.4963 88.2343,-186.254 97.498,-191.3954 98.6823,-184.4963"/>
</g>
<!-- Node9 -->
<g id="node10" class="node">
<title>Node9</title>
<polygon fill="none" stroke="#bfbfbf" points="106.3,-168.5 106.3,-187.5 186.3,-187.5 186.3,-168.5 106.3,-168.5"/>
<text text-anchor="middle" x="146.3" y="-175.5" font-family="FreeSans" font-size="10.00" fill="#000000">wx/checkbox.h</text>
</g>
<!-- Node2&#45;&gt;Node9 -->
<g id="edge9" class="edge">
<title>Node2&#45;&gt;Node9</title>
<path fill="none" stroke="#191970" d="M479.1316,-228.9872C419.1918,-221.5105 304.1759,-206.4929 196.4408,-188.1155"/>
<polygon fill="#191970" stroke="#191970" points="196.8224,-184.6298 186.374,-186.3847 195.6362,-191.5286 196.8224,-184.6298"/>
</g>
<!-- Node10 -->
<g id="node11" class="node">
<title>Node10</title>
<polygon fill="none" stroke="#bfbfbf" points="204.3,-168.5 204.3,-187.5 278.3,-187.5 278.3,-168.5 204.3,-168.5"/>
<text text-anchor="middle" x="241.3" y="-175.5" font-family="FreeSans" font-size="10.00" fill="#000000">wx/checklst.h</text>
</g>
<!-- Node2&#45;&gt;Node10 -->
<g id="edge10" class="edge">
<title>Node2&#45;&gt;Node10</title>
<path fill="none" stroke="#191970" d="M479.1326,-225.737C428.2953,-215.5331 342.0086,-198.2139 288.5283,-187.4795"/>
<polygon fill="#191970" stroke="#191970" points="289.1084,-184.0262 278.6151,-185.4898 287.7308,-190.8893 289.1084,-184.0262"/>
</g>
<!-- Node21 -->
<g id="node12" class="node">
<title>Node21</title>
<polygon fill="none" stroke="#bfbfbf" points="948.3,-56.5 948.3,-75.5 1010.3,-75.5 1010.3,-56.5 948.3,-56.5"/>
<text text-anchor="middle" x="979.3" y="-63.5" font-family="FreeSans" font-size="10.00" fill="#000000">wx/event.h</text>
</g>
<!-- Node2&#45;&gt;Node21 -->
<g id="edge11" class="edge">
<title>Node2&#45;&gt;Node21</title>
<path fill="none" stroke="#191970" d="M503.295,-224.4306C482.7353,-211.6349 452.7119,-188.2161 468.3,-168 525.6941,-93.5659 826.5952,-72.7646 937.8757,-67.5701"/>
<polygon fill="#191970" stroke="#191970" points="938.205,-71.059 948.0383,-67.1149 937.8917,-64.066 938.205,-71.059"/>
</g>
<!-- Node22 -->
<g id="node13" class="node">
<title>Node22</title>
<polygon fill="none" stroke="#bfbfbf" points="1062.3,-168.5 1062.3,-187.5 1112.3,-187.5 1112.3,-168.5 1062.3,-168.5"/>
<text text-anchor="middle" x="1087.3" y="-175.5" font-family="FreeSans" font-size="10.00" fill="#000000">wx/file.h</text>
</g>
<!-- Node2&#45;&gt;Node22 -->
<g id="edge12" class="edge">
<title>Node2&#45;&gt;Node22</title>
<path fill="none" stroke="#191970" d="M561.4678,-233.2425C649.872,-231.018 864.4008,-222.4171 1052.1352,-187.8743"/>
<polygon fill="#191970" stroke="#191970" points="1052.9994,-191.2735 1062.1858,-185.9951 1051.7128,-184.3927 1052.9994,-191.2735"/>
</g>
<!-- Node30 -->
<g id="node14" class="node">
<title>Node30</title>
<polygon fill="none" stroke="#bfbfbf" points="894.8,-168.5 894.8,-187.5 965.8,-187.5 965.8,-168.5 894.8,-168.5"/>
<text text-anchor="middle" x="930.3" y="-175.5" font-family="FreeSans" font-size="10.00" fill="#000000">wx/imaglist.h</text>
</g>
<!-- Node2&#45;&gt;Node30 -->
<g id="edge13" class="edge">
<title>Node2&#45;&gt;Node30</title>
<path fill="none" stroke="#191970" d="M561.4681,-229.6927C628.4884,-222.4668 765.2657,-206.8289 880.3,-188 881.747,-187.7632 883.216,-187.5151 884.6981,-187.2583"/>
<polygon fill="#191970" stroke="#191970" points="885.3639,-190.6947 894.5763,-185.462 884.1115,-183.8077 885.3639,-190.6947"/>
</g>
<!-- Node53 -->
<g id="node15" class="node">
<title>Node53</title>
<polygon fill="none" stroke="#bfbfbf" points="1242.3,-.5 1242.3,-19.5 1304.3,-19.5 1304.3,-.5 1242.3,-.5"/>
<text text-anchor="middle" x="1273.3" y="-7.5" font-family="FreeSans" font-size="10.00" fill="#000000">wx/string.h</text>
</g>
<!-- Node2&#45;&gt;Node53 -->
<g id="edge14" class="edge">
<title>Node2&#45;&gt;Node53</title>
<path fill="none" stroke="#191970" d="M478.8279,-228.1211C420.6015,-217.9378 314.1621,-192.032 246.3,-132 217.864,-106.845 181.0394,-83.4183 207.3,-56 243.3559,-18.3547 1040.3298,-11.3463 1232.0812,-10.2032"/>
<polygon fill="#191970" stroke="#191970" points="1232.3188,-13.702 1242.2985,-10.1445 1232.2785,-6.7021 1232.3188,-13.702"/>
</g>
<!-- Node56 -->
<g id="node16" class="node">
<title>Node56</title>
<polygon fill="none" stroke="#bfbfbf" points="1417.8,-56.5 1417.8,-75.5 1482.8,-75.5 1482.8,-56.5 1417.8,-56.5"/>
<text text-anchor="middle" x="1450.3" y="-63.5" font-family="FreeSans" font-size="10.00" fill="#000000">wx/thread.h</text>
</g>
<!-- Node2&#45;&gt;Node56 -->
<g id="edge15" class="edge">
<title>Node2&#45;&gt;Node56</title>
<path fill="none" stroke="#191970" d="M561.461,-226.5645C714.7215,-198.8787 1251.4681,-101.918 1407.4732,-73.7365"/>
<polygon fill="#191970" stroke="#191970" points="1408.3959,-77.1265 1417.6145,-71.9045 1407.1515,-70.238 1408.3959,-77.1265"/>
</g>
<!-- Node57 -->
<g id="node17" class="node">
<title>Node57</title>
<polygon fill="none" stroke="#bfbfbf" points="984.3,-168.5 984.3,-187.5 1044.3,-187.5 1044.3,-168.5 984.3,-168.5"/>
<text text-anchor="middle" x="1014.3" y="-175.5" font-family="FreeSans" font-size="10.00" fill="#000000">wx/timer.h</text>
</g>
<!-- Node2&#45;&gt;Node57 -->
<g id="edge16" class="edge">
<title>Node2&#45;&gt;Node57</title>
<path fill="none" stroke="#191970" d="M561.3706,-231.9201C639.8471,-227.4991 816.5951,-215.3918 974.2856,-187.948"/>
<polygon fill="#191970" stroke="#191970" points="974.9251,-191.3893 984.1643,-186.204 973.7081,-184.4959 974.9251,-191.3893"/>
</g>
<!-- Node59 -->
<g id="node18" class="node">
<title>Node59</title>
<polygon fill="none" stroke="#bfbfbf" points="1130.3,-168.5 1130.3,-187.5 1198.3,-187.5 1198.3,-168.5 1130.3,-168.5"/>
<text text-anchor="middle" x="1164.3" y="-175.5" font-family="FreeSans" font-size="10.00" fill="#000000">wx/treectrl.h</text>
</g>
<!-- Node2&#45;&gt;Node59 -->
<g id="edge17" class="edge">
<title>Node2&#45;&gt;Node59</title>
<path fill="none" stroke="#191970" d="M561.3533,-233.008C657.4848,-230.2252 904.7319,-220.403 1120.2115,-187.9545"/>
<polygon fill="#191970" stroke="#191970" points="1120.766,-191.4105 1130.1237,-186.4422 1119.7102,-184.4905 1120.766,-191.4105"/>
</g>
<!-- Node75 -->
<g id="node19" class="node">
<title>Node75</title>
<g id="a_node19"><a xlink:href="sdk__events_8h" target="_top" xlink:title="sdk_events.h">
<polygon fill="none" stroke="#ff0000" points="690.3,-112.5 690.3,-131.5 762.3,-131.5 762.3,-112.5 690.3,-112.5"/>
<text text-anchor="middle" x="726.3" y="-119.5" font-family="FreeSans" font-size="10.00" fill="#000000">sdk_events.h</text>
</a>
</g>
</g>
<!-- Node2&#45;&gt;Node75 -->
<g id="edge18" class="edge">
<title>Node2&#45;&gt;Node75</title>
<path fill="none" stroke="#191970" d="M506.1093,-224.3309C488.2783,-211.0165 461.7819,-186.5773 477.3,-168 506.1105,-133.51 632.1534,-140.4071 676.3,-132 677.5718,-131.7578 678.8615,-131.5106 680.1629,-131.2599"/>
<polygon fill="#191970" stroke="#191970" points="681.1205,-134.6391 690.2655,-129.2893 679.7804,-127.7686 681.1205,-134.6391"/>
</g>
<!-- Node76 -->
<g id="node20" class="node">
<title>Node76</title>
<g id="a_node20"><a xlink:href="cbexception_8h" target="_top" xlink:title="cbexception.h">
<polygon fill="none" stroke="#ff0000" points="216.3,-56.5 216.3,-75.5 292.3,-75.5 292.3,-56.5 216.3,-56.5"/>
<text text-anchor="middle" x="254.3" y="-63.5" font-family="FreeSans" font-size="10.00" fill="#000000">cbexception.h</text>
</a>
</g>
</g>
<!-- Node2&#45;&gt;Node76 -->
<g id="edge21" class="edge">
<title>Node2&#45;&gt;Node76</title>
<path fill="none" stroke="#191970" d="M479.284,-233.3813C364.1851,-231.2233 44.5184,-222.179 13.3,-188 -47.6346,-121.2865 119.6581,-85.888 206.1607,-72.4566"/>
<polygon fill="#191970" stroke="#191970" points="206.9235,-75.8812 216.2886,-70.9269 205.878,-68.9597 206.9235,-75.8812"/>
</g>
<!-- Node115 -->
<g id="node21" class="node">
<title>Node115</title>
<g id="a_node21"><a xlink:href="logmanager_8h" target="_top" xlink:title="logmanager.h">
<polygon fill="none" stroke="#ff0000" points="418.3,-56.5 418.3,-75.5 492.3,-75.5 492.3,-56.5 418.3,-56.5"/>
<text text-anchor="middle" x="455.3" y="-63.5" font-family="FreeSans" font-size="10.00" fill="#000000">logmanager.h</text>
</a>
</g>
</g>
<!-- Node2&#45;&gt;Node115 -->
<g id="edge23" class="edge">
<title>Node2&#45;&gt;Node115</title>
<path fill="none" stroke="#191970" d="M479.2524,-227.2021C438.9427,-219.5905 381.6093,-205.9332 368.3,-188 348.1697,-160.876 350.8696,-140.933 368.3,-112 377.3536,-96.9718 393.1423,-86.5985 408.8061,-79.5638"/>
<polygon fill="#191970" stroke="#191970" points="410.5528,-82.6308 418.4816,-75.6034 407.901,-76.1525 410.5528,-82.6308"/>
</g>
<!-- Node75&#45;&gt;Node4 -->
<g id="edge20" class="edge">
<title>Node75&#45;&gt;Node4</title>
<path fill="none" stroke="#191970" d="M721.7712,-112.2455C718.2666,-104.6973 713.3073,-94.0158 709.0378,-84.8197"/>
<polygon fill="#191970" stroke="#191970" points="712.1627,-83.2389 704.777,-75.6427 705.8136,-86.1867 712.1627,-83.2389"/>
</g>
<!-- Node75&#45;&gt;Node21 -->
<g id="edge19" class="edge">
<title>Node75&#45;&gt;Node21</title>
<path fill="none" stroke="#191970" d="M762.5488,-113.9766C809.1085,-103.6709 889.7041,-85.8315 938.4064,-75.0516"/>
<polygon fill="#191970" stroke="#191970" points="939.2839,-78.4421 948.2911,-72.8636 937.771,-71.6076 939.2839,-78.4421"/>
</g>
<!-- Node76&#45;&gt;Node53 -->
<g id="edge22" class="edge">
<title>Node76&#45;&gt;Node53</title>
<path fill="none" stroke="#191970" d="M292.5405,-58.0057C297.1614,-57.2295 301.8271,-56.5337 306.3,-56 489.628,-34.1248 1070.508,-15.9165 1231.5476,-11.1928"/>
<polygon fill="#191970" stroke="#191970" points="1232.0797,-14.6788 1241.9734,-10.8886 1231.8756,-7.6818 1232.0797,-14.6788"/>
</g>
<!-- Node137&#45;&gt;Node56 -->
<g id="edge25" class="edge">
<title>Node137&#45;&gt;Node56</title>
<path fill="none" stroke="#191970" d="M1656.989,-168.398C1637.6605,-154.7273 1600.4015,-129.3871 1566.3,-112 1540.968,-99.0841 1511.1198,-87.3207 1488.045,-78.923"/>
<polygon fill="#191970" stroke="#191970" points="1489.198,-75.6182 1478.6034,-75.5365 1486.8346,-82.2072 1489.198,-75.6182"/>
</g>
<!-- Node138 -->
<g id="node23" class="node">
<title>Node138</title>
<g id="a_node23"><a xlink:href="cbthreadpool_8h" target="_top" xlink:title="cbthreadpool.h">
<polygon fill="none" stroke="#ff0000" points="1444.3,-112.5 1444.3,-131.5 1524.3,-131.5 1524.3,-112.5 1444.3,-112.5"/>
<text text-anchor="middle" x="1484.3" y="-119.5" font-family="FreeSans" font-size="10.00" fill="#000000">cbthreadpool.h</text>
</a>
</g>
</g>
<!-- Node137&#45;&gt;Node138 -->
<g id="edge26" class="edge">
<title>Node137&#45;&gt;Node138</title>
<path fill="none" stroke="#191970" d="M1638.3255,-168.3733C1607.1287,-158.9807 1559.5291,-144.6496 1525.5068,-134.4064"/>
<polygon fill="#191970" stroke="#191970" points="1526.4418,-131.0327 1515.8573,-131.5011 1524.4237,-137.7355 1526.4418,-131.0327"/>
</g>
<!-- Node138&#45;&gt;Node4 -->
<g id="edge30" class="edge">
<title>Node138&#45;&gt;Node4</title>
<path fill="none" stroke="#191970" d="M1444.072,-119.1266C1306.5253,-109.3018 856.6243,-77.166 732.3531,-68.2895"/>
<polygon fill="#191970" stroke="#191970" points="732.2325,-64.7721 722.0085,-67.5506 731.7337,-71.7543 732.2325,-64.7721"/>
</g>
<!-- Node138&#45;&gt;Node21 -->
<g id="edge28" class="edge">
<title>Node138&#45;&gt;Node21</title>
<path fill="none" stroke="#191970" d="M1444.2514,-117.559C1350.1482,-107.1238 1115.7254,-81.1284 1020.4945,-70.5681"/>
<polygon fill="#191970" stroke="#191970" points="1020.711,-67.0707 1010.3862,-69.4472 1019.9395,-74.0281 1020.711,-67.0707"/>
</g>
<!-- Node138&#45;&gt;Node56 -->
<g id="edge27" class="edge">
<title>Node138&#45;&gt;Node56</title>
<path fill="none" stroke="#191970" d="M1478.3777,-112.2455C1473.6973,-104.5367 1467.0328,-93.5598 1461.3712,-84.2348"/>
<polygon fill="#191970" stroke="#191970" points="1464.3361,-82.3741 1456.1545,-75.6427 1458.3526,-86.007 1464.3361,-82.3741"/>
</g>
<!-- Node73 -->
<g id="node24" class="node">
<title>Node73</title>
<polygon fill="none" stroke="#bfbfbf" points="1565.8,-56.5 1565.8,-75.5 1608.8,-75.5 1608.8,-56.5 1565.8,-56.5"/>
<text text-anchor="middle" x="1587.3" y="-63.5" font-family="FreeSans" font-size="10.00" fill="#000000">vector</text>
</g>
<!-- Node138&#45;&gt;Node73 -->
<g id="edge29" class="edge">
<title>Node138&#45;&gt;Node73</title>
<path fill="none" stroke="#191970" d="M1502.2413,-112.2455C1518.34,-103.4928 1542.1879,-90.527 1560.5391,-80.5496"/>
<polygon fill="#191970" stroke="#191970" points="1562.4507,-83.4942 1569.5644,-75.6427 1559.1071,-77.3444 1562.4507,-83.4942"/>
</g>
<!-- Node140&#45;&gt;Node4 -->
<g id="edge37" class="edge">
<title>Node140&#45;&gt;Node4</title>
<path fill="none" stroke="#191970" d="M315.816,-117.8822C392.1538,-107.5812 590.8162,-80.7737 668.503,-70.2907"/>
<polygon fill="#191970" stroke="#191970" points="669.1947,-73.7292 678.6368,-68.9232 668.2585,-66.792 669.1947,-73.7292"/>
</g>
<!-- Node140&#45;&gt;Node53 -->
<g id="edge32" class="edge">
<title>Node140&#45;&gt;Node53</title>
<path fill="none" stroke="#191970" d="M290.0766,-112.1813C298.0725,-96.9859 315.741,-68.2493 340.3,-56 380.6996,-35.85 1056.8745,-15.9466 1232.0991,-11.1096"/>
<polygon fill="#191970" stroke="#191970" points="1232.3009,-14.6055 1242.201,-10.8322 1232.1086,-7.6082 1232.3009,-14.6055"/>
</g>
<!-- Node140&#45;&gt;Node56 -->
<g id="edge33" class="edge">
<title>Node140&#45;&gt;Node56</title>
<path fill="none" stroke="#191970" d="M315.8621,-120.5309C476.2682,-112.8204 1220.6325,-77.0398 1407.6031,-68.0524"/>
<polygon fill="#191970" stroke="#191970" points="1407.7817,-71.5479 1417.6021,-67.5717 1407.4455,-64.556 1407.7817,-71.5479"/>
</g>
<!-- Node140&#45;&gt;Node76 -->
<g id="edge35" class="edge">
<title>Node140&#45;&gt;Node76</title>
<path fill="none" stroke="#191970" d="M279.9002,-112.2455C275.6773,-104.617 269.6827,-93.7881 264.5559,-84.5267"/>
<polygon fill="#191970" stroke="#191970" points="267.5433,-82.6965 259.6379,-75.6427 261.419,-86.0867 267.5433,-82.6965"/>
</g>
<!-- Node140&#45;&gt;Node115 -->
<g id="edge36" class="edge">
<title>Node140&#45;&gt;Node115</title>
<path fill="none" stroke="#191970" d="M314.5241,-112.3733C342.7925,-103.0613 385.7965,-88.8953 416.8344,-78.671"/>
<polygon fill="#191970" stroke="#191970" points="418.0545,-81.9542 426.4573,-75.5011 415.8643,-75.3056 418.0545,-81.9542"/>
</g>
<!-- Node131 -->
<g id="node26" class="node">
<title>Node131</title>
<polygon fill="none" stroke="#bfbfbf" points="348.8,-56.5 348.8,-75.5 399.8,-75.5 399.8,-56.5 348.8,-56.5"/>
<text text-anchor="middle" x="374.3" y="-63.5" font-family="FreeSans" font-size="10.00" fill="#000000">memory</text>
</g>
<!-- Node140&#45;&gt;Node131 -->
<g id="edge34" class="edge">
<title>Node140&#45;&gt;Node131</title>
<path fill="none" stroke="#191970" d="M300.8026,-112.2455C314.458,-103.6534 334.5657,-91.0014 350.2989,-81.1018"/>
<polygon fill="#191970" stroke="#191970" points="352.3751,-83.9307 358.9751,-75.6427 348.6472,-78.006 352.3751,-83.9307"/>
</g>
<!-- Node141&#45;&gt;Node6 -->
<g id="edge39" class="edge">
<title>Node141&#45;&gt;Node6</title>
<path fill="none" stroke="#191970" d="M1280.5396,-288.9585C1342.7739,-285.9694 1508.2524,-275.4563 1642.3,-244 1727.2893,-224.056 1827.3,-265.298 1827.3,-178 1827.3,-178 1827.3,-178 1827.3,-122 1827.3,-74.87 1787.7658,-74.2198 1744.3,-56 1684.5482,-30.9536 1493.7049,-17.1702 1409.6741,-12.1819"/>
<polygon fill="#191970" stroke="#191970" points="1409.6833,-8.6766 1399.4969,-11.5899 1409.2768,-15.6648 1409.6833,-8.6766"/>
</g>
<!-- Node141&#45;&gt;Node21 -->
<g id="edge40" class="edge">
<title>Node141&#45;&gt;Node21</title>
<path fill="none" stroke="#191970" d="M1230.2704,-287.0916C1154.0682,-277.6614 927.5939,-245.1851 886.3,-188 857.9123,-148.6878 916.9455,-103.5838 953.4091,-80.8115"/>
<polygon fill="#191970" stroke="#191970" points="955.394,-83.701 962.1263,-75.5202 951.7617,-77.7171 955.394,-83.701"/>
</g>
<!-- Node141&#45;&gt;Node22 -->
<g id="edge41" class="edge">
<title>Node141&#45;&gt;Node22</title>
<path fill="none" stroke="#191970" d="M1240.9764,-280.4509C1211.8402,-261.0268 1145.4555,-216.7703 1110.2343,-193.2895"/>
<polygon fill="#191970" stroke="#191970" points="1111.8493,-190.1598 1101.5874,-187.5249 1107.9664,-195.9841 1111.8493,-190.1598"/>
</g>
<!-- Node141&#45;&gt;Node30 -->
<g id="edge43" class="edge">
<title>Node141&#45;&gt;Node30</title>
<path fill="none" stroke="#191970" d="M1230.1351,-281.8511C1202.2496,-272.7796 1155.9745,-257.6021 1116.3,-244 1063.9338,-226.0466 1003.5824,-204.4669 966.1817,-190.9887"/>
<polygon fill="#191970" stroke="#191970" points="967.3214,-187.6791 956.7271,-187.5778 964.9459,-194.2637 967.3214,-187.6791"/>
</g>
<!-- Node141&#45;&gt;Node53 -->
<g id="edge44" class="edge">
<title>Node141&#45;&gt;Node53</title>
<path fill="none" stroke="#191970" d="M1280.5656,-288.0933C1369.5542,-280.8673 1666.6222,-252.2564 1732.3,-188 1756.9101,-163.9225 1754.4752,-145.6734 1747.3,-112 1741.6198,-85.342 1744.4637,-71.8646 1722.3,-56 1651.1673,-5.0836 1417.0095,-31.5678 1330.3,-20 1325.2024,-19.3199 1319.8644,-18.512 1314.5861,-17.6546"/>
<polygon fill="#191970" stroke="#191970" points="1315.0312,-14.1803 1304.5878,-15.9652 1313.8649,-21.0824 1315.0312,-14.1803"/>
</g>
<!-- Node141&#45;&gt;Node56 -->
<g id="edge45" class="edge">
<title>Node141&#45;&gt;Node56</title>
<path fill="none" stroke="#191970" d="M1280.307,-287.7245C1320.8207,-283.3507 1402.6816,-271.6337 1466.3,-244 1506.4426,-226.5635 1526.9755,-226.7604 1547.3,-188 1557.5384,-168.4746 1542.0272,-123.3652 1533.3,-112 1522.2487,-97.6082 1505.3432,-87.0853 1489.6664,-79.7663"/>
<polygon fill="#191970" stroke="#191970" points="1490.6937,-76.3965 1480.1276,-75.6173 1487.9016,-82.8155 1490.6937,-76.3965"/>
</g>
<!-- Node141&#45;&gt;Node57 -->
<g id="edge46" class="edge">
<title>Node141&#45;&gt;Node57</title>
<path fill="none" stroke="#191970" d="M1234.7525,-280.4509C1192.0666,-260.6135 1093.6489,-214.8758 1044.0364,-191.8194"/>
<polygon fill="#191970" stroke="#191970" points="1045.3392,-188.5654 1034.7955,-187.5249 1042.389,-194.9134 1045.3392,-188.5654"/>
</g>
<!-- Node141&#45;&gt;Node59 -->
<g id="edge47" class="edge">
<title>Node141&#45;&gt;Node59</title>
<path fill="none" stroke="#191970" d="M1244.2055,-280.3588C1234.2495,-271.4341 1219.5204,-257.5375 1208.3,-244 1195.8541,-228.9838 1183.7125,-210.3826 1175.3476,-196.7587"/>
<polygon fill="#191970" stroke="#191970" points="1178.1328,-194.5994 1169.9738,-187.8406 1172.1372,-198.2122 1178.1328,-194.5994"/>
</g>
<!-- Node141&#45;&gt;Node75 -->
<g id="edge49" class="edge">
<title>Node141&#45;&gt;Node75</title>
<path fill="none" stroke="#191970" d="M1230.1836,-288.6564C1141.9772,-283.7644 849.7767,-266.0305 814.3,-244 780.3609,-222.9243 790.1433,-200.0554 766.3,-168 758.8331,-157.9612 749.7324,-147.3845 742.0992,-138.9075"/>
<polygon fill="#191970" stroke="#191970" points="744.6639,-136.5256 735.3317,-131.5095 739.4989,-141.2504 744.6639,-136.5256"/>
</g>
<!-- Node141&#45;&gt;Node138 -->
<g id="edge48" class="edge">
<title>Node141&#45;&gt;Node138</title>
<path fill="none" stroke="#191970" d="M1280.3694,-284.6304C1342.8569,-270.6817 1502.6424,-231.3548 1532.3,-188 1544.2616,-170.514 1525.8729,-150.9374 1508.5084,-137.6785"/>
<polygon fill="#191970" stroke="#191970" points="1510.3677,-134.7047 1500.2038,-131.7138 1506.2842,-140.3902 1510.3677,-134.7047"/>
</g>
<!-- Node142 -->
<g id="node28" class="node">
<title>Node142</title>
<polygon fill="none" stroke="#bfbfbf" points="1463.8,-168.5 1463.8,-187.5 1522.8,-187.5 1522.8,-168.5 1463.8,-168.5"/>
<text text-anchor="middle" x="1493.3" y="-175.5" font-family="FreeSans" font-size="10.00" fill="#000000">wx/filefn.h</text>
</g>
<!-- Node141&#45;&gt;Node142 -->
<g id="edge42" class="edge">
<title>Node141&#45;&gt;Node142</title>
<path fill="none" stroke="#191970" d="M1275.5918,-280.4509C1317.7464,-260.6135 1414.9389,-214.8758 1463.9339,-191.8194"/>
<polygon fill="#191970" stroke="#191970" points="1465.5018,-194.9498 1473.0596,-187.5249 1462.5211,-188.616 1465.5018,-194.9498"/>
</g>
<!-- Node143 -->
<g id="node29" class="node">
<title>Node143</title>
<g id="a_node29"><a xlink:href="parserthread_8h" target="_top" xlink:title="parserthread.h">
<polygon fill="none" stroke="#ff0000" points="1368.8,-168.5 1368.8,-187.5 1445.8,-187.5 1445.8,-168.5 1368.8,-168.5"/>
<text text-anchor="middle" x="1407.3" y="-175.5" font-family="FreeSans" font-size="10.00" fill="#000000">parserthread.h</text>
</a>
</g>
</g>
<!-- Node141&#45;&gt;Node143 -->
<g id="edge50" class="edge">
<title>Node141&#45;&gt;Node143</title>
<path fill="none" stroke="#191970" d="M1268.2595,-280.4509C1294.5087,-261.1094 1354.1726,-217.1465 1386.1417,-193.5904"/>
<polygon fill="#191970" stroke="#191970" points="1388.399,-196.2746 1394.3734,-187.5249 1384.2466,-190.6392 1388.399,-196.2746"/>
</g>
<!-- Node150 -->
<g id="node32" class="node">
<title>Node150</title>
<g id="a_node32"><a xlink:href="parser__base_8h" target="_top" xlink:title="parser_base.h">
<polygon fill="none" stroke="#000000" points="1217.3,-224.5 1217.3,-243.5 1293.3,-243.5 1293.3,-224.5 1217.3,-224.5"/>
<text text-anchor="middle" x="1255.3" y="-231.5" font-family="FreeSans" font-size="10.00" fill="#000000">parser_base.h</text>
</a>
</g>
</g>
<!-- Node141&#45;&gt;Node150 -->
<g id="edge66" class="edge">
<title>Node141&#45;&gt;Node150</title>
<path fill="none" stroke="#191970" d="M1255.3,-280.2455C1255.3,-272.9382 1255.3,-262.6944 1255.3,-253.7046"/>
<polygon fill="#191970" stroke="#191970" points="1258.8001,-253.6426 1255.3,-243.6427 1251.8001,-253.6427 1258.8001,-253.6426"/>
</g>
<!-- Node143&#45;&gt;Node21 -->
<g id="edge51" class="edge">
<title>Node143&#45;&gt;Node21</title>
<path fill="none" stroke="#191970" d="M1373.1555,-168.4775C1326.1886,-155.4359 1238.9741,-131.4223 1164.3,-112 1114.967,-99.1688 1058.031,-85.1265 1020.4976,-75.9749"/>
<polygon fill="#191970" stroke="#191970" points="1020.9923,-72.4932 1010.4481,-73.5284 1019.3365,-79.2945 1020.9923,-72.4932"/>
</g>
<!-- Node143&#45;&gt;Node53 -->
<g id="edge52" class="edge">
<title>Node143&#45;&gt;Node53</title>
<path fill="none" stroke="#191970" d="M1399.7117,-168.4862C1378.0709,-141.3545 1315.797,-63.2798 1287.5436,-27.8576"/>
<polygon fill="#191970" stroke="#191970" points="1290.1108,-25.4632 1281.1389,-19.8279 1284.6383,-29.8281 1290.1108,-25.4632"/>
</g>
<!-- Node143&#45;&gt;Node56 -->
<g id="edge53" class="edge">
<title>Node143&#45;&gt;Node56</title>
<path fill="none" stroke="#191970" d="M1410.9662,-168.4509C1418.0429,-150.0186 1433.7046,-109.2254 1442.9889,-85.043"/>
<polygon fill="#191970" stroke="#191970" points="1446.3263,-86.115 1446.6432,-75.5249 1439.7914,-83.606 1446.3263,-86.115"/>
</g>
<!-- Node143&#45;&gt;Node115 -->
<g id="edge56" class="edge">
<title>Node143&#45;&gt;Node115</title>
<path fill="none" stroke="#191970" d="M1368.5041,-173.4358C1217.3586,-155.6539 668.1482,-91.041 502.7523,-71.5826"/>
<polygon fill="#191970" stroke="#191970" points="502.7618,-68.0597 492.4213,-70.3672 501.9438,-75.0117 502.7618,-68.0597"/>
</g>
<!-- Node143&#45;&gt;Node138 -->
<g id="edge55" class="edge">
<title>Node143&#45;&gt;Node138</title>
<path fill="none" stroke="#191970" d="M1420.7124,-168.2455C1432.3057,-159.814 1449.2748,-147.4729 1462.7679,-137.6598"/>
<polygon fill="#191970" stroke="#191970" points="1465.0126,-140.355 1471.0414,-131.6427 1460.8954,-134.6938 1465.0126,-140.355"/>
</g>
<!-- Node143&#45;&gt;Node73 -->
<g id="edge54" class="edge">
<title>Node143&#45;&gt;Node73</title>
<path fill="none" stroke="#191970" d="M1445.9467,-169.6268C1472.2816,-162.6079 1507.0045,-150.6758 1533.3,-132 1551.1227,-119.3419 1566.3503,-99.329 1576.0473,-84.6566"/>
<polygon fill="#191970" stroke="#191970" points="1579.1904,-86.2358 1581.5926,-75.9169 1573.2797,-82.4855 1579.1904,-86.2358"/>
</g>
<!-- Node143&#45;&gt;Node140 -->
<g id="edge57" class="edge">
<title>Node143&#45;&gt;Node140</title>
<path fill="none" stroke="#191970" d="M1368.5853,-176.063C1328.297,-174.0476 1263.3766,-170.8008 1207.3,-168 866.7235,-150.9896 455.3797,-130.4793 326.1626,-124.0371"/>
<polygon fill="#191970" stroke="#191970" points="326.1035,-120.5299 315.9416,-123.5275 325.7548,-127.5212 326.1035,-120.5299"/>
</g>
<!-- Node146 -->
<g id="node30" class="node">
<title>Node146</title>
<g id="a_node30"><a xlink:href="token_8h" target="_top" xlink:title="token.h">
<polygon fill="none" stroke="#ff0000" points="1665.3,-56.5 1665.3,-75.5 1713.3,-75.5 1713.3,-56.5 1665.3,-56.5"/>
<text text-anchor="middle" x="1689.3" y="-63.5" font-family="FreeSans" font-size="10.00" fill="#000000">token.h</text>
</a>
</g>
</g>
<!-- Node143&#45;&gt;Node146 -->
<g id="edge58" class="edge">
<title>Node143&#45;&gt;Node146</title>
<path fill="none" stroke="#191970" d="M1446.025,-169.6699C1449.1576,-169.0761 1452.2785,-168.511 1455.3,-168 1516.2867,-157.685 1690.4898,-178.479 1731.3,-132 1745.0078,-116.3882 1727.3378,-95.8685 1710.8944,-81.8802"/>
<polygon fill="#191970" stroke="#191970" points="1713.0512,-79.1234 1703.0635,-75.5881 1708.6666,-84.5801 1713.0512,-79.1234"/>
</g>
<!-- Node143&#45;&gt;Node148 -->
<g id="edge61" class="edge">
<title>Node143&#45;&gt;Node148</title>
<path fill="none" stroke="#191970" d="M1445.8046,-169.9384C1449.0158,-169.2781 1452.2131,-168.6249 1455.3,-168 1522.0751,-154.4813 1599.6897,-139.3357 1646.6184,-130.2404"/>
<polygon fill="#191970" stroke="#191970" points="1647.5694,-133.6213 1656.7216,-128.2839 1646.2385,-126.749 1647.5694,-133.6213"/>
</g>
<!-- Node146&#45;&gt;Node6 -->
<g id="edge59" class="edge">
<title>Node146&#45;&gt;Node6</title>
<path fill="none" stroke="#191970" d="M1665.2603,-59.3028C1660.6455,-58.1226 1655.8374,-56.9648 1651.3,-56 1565.8321,-37.8269 1464.4685,-22.8841 1409.5488,-15.3303"/>
<polygon fill="#191970" stroke="#191970" points="1409.907,-11.8468 1399.5257,-13.9629 1408.9608,-18.7826 1409.907,-11.8468"/>
</g>
<!-- Node146&#45;&gt;Node53 -->
<g id="edge60" class="edge">
<title>Node146&#45;&gt;Node53</title>
<path fill="none" stroke="#191970" d="M1665.297,-59.1188C1660.6789,-57.9555 1655.8601,-56.851 1651.3,-56 1510.1756,-29.6625 1472.4023,-40.4134 1330.3,-20 1325.1489,-19.26 1319.7488,-18.4101 1314.4113,-17.525"/>
<polygon fill="#191970" stroke="#191970" points="1314.7527,-14.0327 1304.3062,-15.7993 1313.5743,-20.9328 1314.7527,-14.0327"/>
</g>
<!-- Node148&#45;&gt;Node53 -->
<g id="edge62" class="edge">
<title>Node148&#45;&gt;Node53</title>
<path fill="none" stroke="#191970" d="M1682.2695,-112.3822C1670.7631,-97.4619 1646.3611,-69.0955 1618.3,-56 1501.4064,-1.4483 1457.8666,-39.1511 1330.3,-20 1325.1537,-19.2274 1319.7564,-18.3581 1314.4204,-17.4628"/>
<polygon fill="#191970" stroke="#191970" points="1314.7648,-13.9708 1304.3167,-15.7277 1313.58,-20.8698 1314.7648,-13.9708"/>
</g>
<!-- Node148&#45;&gt;Node56 -->
<g id="edge63" class="edge">
<title>Node148&#45;&gt;Node56</title>
<path fill="none" stroke="#191970" d="M1656.5692,-114.3309C1614.0489,-104.3679 1539.7293,-86.9541 1492.8669,-75.9738"/>
<polygon fill="#191970" stroke="#191970" points="1493.5529,-72.5398 1483.0181,-73.6662 1491.956,-79.3553 1493.5529,-72.5398"/>
</g>
<!-- Node148&#45;&gt;Node73 -->
<g id="edge64" class="edge">
<title>Node148&#45;&gt;Node73</title>
<path fill="none" stroke="#191970" d="M1671.533,-112.2455C1655.5905,-103.4928 1631.9741,-90.527 1613.8011,-80.5496"/>
<polygon fill="#191970" stroke="#191970" points="1615.3137,-77.3873 1604.8635,-75.6427 1611.9448,-83.5233 1615.3137,-77.3873"/>
</g>
<!-- Node148&#45;&gt;Node146 -->
<g id="edge65" class="edge">
<title>Node148&#45;&gt;Node146</title>
<path fill="none" stroke="#191970" d="M1689.3,-112.2455C1689.3,-104.9382 1689.3,-94.6944 1689.3,-85.7046"/>
<polygon fill="#191970" stroke="#191970" points="1692.8001,-85.6426 1689.3,-75.6427 1685.8001,-85.6427 1692.8001,-85.6426"/>
</g>
<!-- Node150&#45;&gt;Node6 -->
<g id="edge67" class="edge">
<title>Node150&#45;&gt;Node6</title>
<path fill="none" stroke="#191970" d="M1260.1985,-224.375C1277.5922,-190.1979 1336.5813,-74.2894 1359.7992,-28.6683"/>
<polygon fill="#191970" stroke="#191970" points="1363.0034,-30.0889 1364.4198,-19.5891 1356.7648,-26.9139 1363.0034,-30.0889"/>
</g>
<!-- Node150&#45;&gt;Node21 -->
<g id="edge68" class="edge">
<title>Node150&#45;&gt;Node21</title>
<path fill="none" stroke="#191970" d="M1250.358,-224.2501C1242.792,-210.1664 1227.1089,-184.0623 1207.3,-168 1150.2264,-121.7209 1068.8168,-92.0186 1020.2922,-77.2242"/>
<polygon fill="#191970" stroke="#191970" points="1021.0404,-73.7951 1010.4573,-74.2929 1019.0409,-80.5035 1021.0404,-73.7951"/>
</g>
<!-- Node150&#45;&gt;Node22 -->
<g id="edge69" class="edge">
<title>Node150&#45;&gt;Node22</title>
<path fill="none" stroke="#191970" d="M1226.4198,-224.3733C1197.4681,-214.7227 1152.8758,-199.8586 1122.0152,-189.5717"/>
<polygon fill="#191970" stroke="#191970" points="1123.1089,-186.247 1112.5152,-186.4051 1120.8952,-192.8878 1123.1089,-186.247"/>
</g>
<!-- Node150&#45;&gt;Node30 -->
<g id="edge71" class="edge">
<title>Node150&#45;&gt;Node30</title>
<path fill="none" stroke="#191970" d="M1217.1373,-228.4213C1165.0327,-220.6532 1068.4916,-205.7227 976.1938,-188.0883"/>
<polygon fill="#191970" stroke="#191970" points="976.6052,-184.6033 966.1238,-186.15 975.2821,-191.4771 976.6052,-184.6033"/>
</g>
<!-- Node150&#45;&gt;Node53 -->
<g id="edge72" class="edge">
<title>Node150&#45;&gt;Node53</title>
<path fill="none" stroke="#191970" d="M1256.0735,-224.375C1258.7968,-190.4851 1267.9778,-76.2317 1271.7063,-29.8332"/>
<polygon fill="#191970" stroke="#191970" points="1275.2171,-29.8374 1272.5295,-19.5891 1268.2396,-29.2766 1275.2171,-29.8374"/>
</g>
<!-- Node150&#45;&gt;Node56 -->
<g id="edge73" class="edge">
<title>Node150&#45;&gt;Node56</title>
<path fill="none" stroke="#191970" d="M1268.6608,-224.4728C1281.205,-215.4006 1300.3724,-201.2083 1316.3,-188 1359.7868,-151.9375 1408.1964,-106.441 1433.227,-82.4881"/>
<polygon fill="#191970" stroke="#191970" points="1435.7078,-84.9583 1440.4965,-75.5074 1430.8593,-79.9093 1435.7078,-84.9583"/>
</g>
<!-- Node150&#45;&gt;Node57 -->
<g id="edge74" class="edge">
<title>Node150&#45;&gt;Node57</title>
<path fill="none" stroke="#191970" d="M1217.2535,-225.6585C1178.6584,-217.1252 1116.9503,-203.2865 1054.5337,-188.2552"/>
<polygon fill="#191970" stroke="#191970" points="1055.0559,-184.7807 1044.5135,-185.8331 1053.4112,-191.5847 1055.0559,-184.7807"/>
</g>
<!-- Node150&#45;&gt;Node59 -->
<g id="edge75" class="edge">
<title>Node150&#45;&gt;Node59</title>
<path fill="none" stroke="#191970" d="M1239.449,-224.2455C1225.4868,-215.6534 1204.9272,-203.0014 1188.8405,-193.1018"/>
<polygon fill="#191970" stroke="#191970" points="1190.3203,-189.9029 1179.9694,-187.6427 1186.6516,-195.8645 1190.3203,-189.9029"/>
</g>
<!-- Node150&#45;&gt;Node142 -->
<g id="edge70" class="edge">
<title>Node150&#45;&gt;Node142</title>
<path fill="none" stroke="#191970" d="M1293.3532,-225.6193C1331.6056,-217.1123 1392.5053,-203.3456 1453.6412,-188.3634"/>
<polygon fill="#191970" stroke="#191970" points="1454.5779,-191.7373 1463.4518,-185.949 1452.9051,-184.9402 1454.5779,-191.7373"/>
</g>
<!-- Node150&#45;&gt;Node143 -->
<g id="edge76" class="edge">
<title>Node150&#45;&gt;Node143</title>
<path fill="none" stroke="#191970" d="M1281.4298,-224.3733C1306.3768,-215.1822 1344.1592,-201.2624 1371.8207,-191.0713"/>
<polygon fill="#191970" stroke="#191970" points="1373.3378,-194.2424 1381.5113,-187.5011 1370.9178,-187.674 1373.3378,-194.2424"/>
</g>
</g>
</svg>
