<?xml version="1.0" encoding="UTF-8" standalone="no"?>
<!DOCTYPE svg PUBLIC "-//W3C//DTD SVG 1.1//EN"
 "http://www.w3.org/Graphics/SVG/1.1/DTD/svg11.dtd">
<!-- Generated by graphviz version 2.40.1 (20161225.0304)
 -->
<!-- Title: parserthreadedtask.h Pages: 1 -->
<svg width="204pt" height="84pt"
 viewBox="0.00 0.00 203.50 84.00" xmlns="http://www.w3.org/2000/svg" xmlns:xlink="http://www.w3.org/1999/xlink">
<g id="graph0" class="graph" transform="scale(1 1) rotate(0) translate(4 80)">
<title>parserthreadedtask.h</title>
<!-- Node9 -->
<g id="node1" class="node">
<title>Node9</title>
<polygon fill="#bfbfbf" stroke="#000000" points="30.5,-56.5 30.5,-75.5 136.5,-75.5 136.5,-56.5 30.5,-56.5"/>
<text text-anchor="middle" x="83.5" y="-63.5" font-family="FreeSans" font-size="10.00" fill="#000000">parserthreadedtask.h</text>
</g>
<!-- Node10 -->
<g id="node2" class="node">
<title>Node10</title>
<g id="a_node2"><a xlink:href="parser_8cpp" target="_top" xlink:title="parser.cpp">
<polygon fill="none" stroke="#000000" points="0,-.5 0,-19.5 61,-19.5 61,-.5 0,-.5"/>
<text text-anchor="middle" x="30.5" y="-7.5" font-family="FreeSans" font-size="10.00" fill="#000000">parser.cpp</text>
</a>
</g>
</g>
<!-- Node9&#45;&gt;Node10 -->
<g id="edge1" class="edge">
<title>Node9&#45;&gt;Node10</title>
<path fill="none" stroke="#191970" d="M67.2104,-48.7884C58.1438,-39.2085 47.1946,-27.6396 39.6261,-19.6427"/>
<polygon fill="#191970" stroke="#191970" points="64.8522,-51.3884 74.2681,-56.2455 69.9363,-46.5767 64.8522,-51.3884"/>
</g>
<!-- Node11 -->
<g id="node3" class="node">
<title>Node11</title>
<g id="a_node3"><a xlink:href="parserthreadedtask_8cpp" target="_top" xlink:title="parserthreadedtask.cpp">
<polygon fill="none" stroke="#000000" points="79.5,-.5 79.5,-19.5 195.5,-19.5 195.5,-.5 79.5,-.5"/>
<text text-anchor="middle" x="137.5" y="-7.5" font-family="FreeSans" font-size="10.00" fill="#000000">parserthreadedtask.cpp</text>
</a>
</g>
</g>
<!-- Node9&#45;&gt;Node11 -->
<g id="edge2" class="edge">
<title>Node9&#45;&gt;Node11</title>
<path fill="none" stroke="#191970" d="M100.0969,-48.7884C109.3347,-39.2085 120.4904,-27.6396 128.2017,-19.6427"/>
<polygon fill="#191970" stroke="#191970" points="97.328,-46.6176 92.9061,-56.2455 102.3669,-51.4766 97.328,-46.6176"/>
</g>
</g>
</svg>
