<?xml version="1.0" encoding="UTF-8" standalone="no"?>
<!DOCTYPE svg PUBLIC "-//W3C//DTD SVG 1.1//EN"
 "http://www.w3.org/Graphics/SVG/1.1/DTD/svg11.dtd">
<!-- Generated by graphviz version 2.38.0 (20140413.2041)
 -->
<!-- Title: pluginsconfigurationdlg.cpp Pages: 1 -->
<svg width="2043pt" height="364pt"
 viewBox="0.00 0.00 2043.18 364.00" xmlns="http://www.w3.org/2000/svg" xmlns:xlink="http://www.w3.org/1999/xlink">
<g id="graph0" class="graph" transform="scale(1 1) rotate(0) translate(4 360)">
<title>pluginsconfigurationdlg.cpp</title>
<polygon fill="white" stroke="none" points="-4,4 -4,-360 2039.18,-360 2039.18,4 -4,4"/>
<!-- Node1 -->
<g id="node1" class="node"><title>Node1</title>
<polygon fill="#bfbfbf" stroke="black" points="1095.18,-336.5 1095.18,-355.5 1227.18,-355.5 1227.18,-336.5 1095.18,-336.5"/>
<text text-anchor="middle" x="1161.18" y="-343.5" font-family="FreeSans" font-size="10.00">pluginsconfigurationdlg.cpp</text>
</g>
<!-- Node2 -->
<g id="node2" class="node"><title>Node2</title>
<g id="a_node2"><a xlink:href="sdk__precomp_8h" target="_top" xlink:title="sdk_precomp.h">
<polygon fill="white" stroke="black" points="1953.18,-280.5 1953.18,-299.5 2035.18,-299.5 2035.18,-280.5 1953.18,-280.5"/>
<text text-anchor="middle" x="1994.18" y="-287.5" font-family="FreeSans" font-size="10.00">sdk_precomp.h</text>
</a>
</g>
</g>
<!-- Node1&#45;&gt;Node2 -->
<g id="edge1" class="edge"><title>Node1&#45;&gt;Node2</title>
<path fill="none" stroke="midnightblue" d="M1227.32,-343.807C1360.66,-340.834 1671.4,-331.034 1943,-299.851"/>
<polygon fill="midnightblue" stroke="midnightblue" points="1943.52,-303.315 1953.05,-298.686 1942.71,-296.361 1943.52,-303.315"/>
</g>
<!-- Node6 -->
<g id="node6" class="node"><title>Node6</title>
<polygon fill="white" stroke="#bfbfbf" points="29.6808,-280.5 29.6808,-299.5 94.6808,-299.5 94.6808,-280.5 29.6808,-280.5"/>
<text text-anchor="middle" x="62.1808" y="-287.5" font-family="FreeSans" font-size="10.00">wx/button.h</text>
</g>
<!-- Node1&#45;&gt;Node6 -->
<g id="edge5" class="edge"><title>Node1&#45;&gt;Node6</title>
<path fill="none" stroke="midnightblue" d="M1095,-343.644C897.972,-339.378 316.351,-325.081 105.179,-299.852"/>
<polygon fill="midnightblue" stroke="midnightblue" points="105.46,-296.36 95.1055,-298.604 104.599,-303.307 105.46,-296.36"/>
</g>
<!-- Node7 -->
<g id="node7" class="node"><title>Node7</title>
<polygon fill="white" stroke="#bfbfbf" points="113.181,-280.5 113.181,-299.5 193.181,-299.5 193.181,-280.5 113.181,-280.5"/>
<text text-anchor="middle" x="153.181" y="-287.5" font-family="FreeSans" font-size="10.00">wx/checkbox.h</text>
</g>
<!-- Node1&#45;&gt;Node7 -->
<g id="edge6" class="edge"><title>Node1&#45;&gt;Node7</title>
<path fill="none" stroke="midnightblue" d="M1095.05,-344.563C939.678,-342.95 539.406,-335.396 207.181,-300 205.905,-299.864 204.613,-299.717 203.312,-299.562"/>
<polygon fill="midnightblue" stroke="midnightblue" points="203.589,-296.068 193.213,-298.212 202.661,-303.006 203.589,-296.068"/>
</g>
<!-- Node8 -->
<g id="node8" class="node"><title>Node8</title>
<polygon fill="white" stroke="#bfbfbf" points="67.1808,-56.5 67.1808,-75.5 141.181,-75.5 141.181,-56.5 67.1808,-56.5"/>
<text text-anchor="middle" x="104.181" y="-63.5" font-family="FreeSans" font-size="10.00">wx/filename.h</text>
</g>
<!-- Node1&#45;&gt;Node8 -->
<g id="edge7" class="edge"><title>Node1&#45;&gt;Node8</title>
<path fill="none" stroke="midnightblue" d="M1095.11,-342.461C1005.25,-338.119 839.81,-326.959 701.181,-300 441.93,-249.585 327.659,-308.491 131.181,-132 117.707,-119.897 110.784,-100.019 107.344,-85.4274"/>
<polygon fill="midnightblue" stroke="midnightblue" points="110.752,-84.6237 105.34,-75.5152 103.891,-86.0104 110.752,-84.6237"/>
</g>
<!-- Node9 -->
<g id="node9" class="node"><title>Node9</title>
<polygon fill="white" stroke="#bfbfbf" points="78.6808,-0.5 78.6808,-19.5 129.681,-19.5 129.681,-0.5 78.6808,-0.5"/>
<text text-anchor="middle" x="104.181" y="-7.5" font-family="FreeSans" font-size="10.00">wx/intl.h</text>
</g>
<!-- Node1&#45;&gt;Node9 -->
<g id="edge8" class="edge"><title>Node1&#45;&gt;Node9</title>
<path fill="none" stroke="midnightblue" d="M1094.82,-344.507C857.486,-342.47 62.6874,-333.189 20.1808,-300 -3.54234,-281.477 1.18078,-265.098 1.18078,-235 1.18078,-235 1.18078,-235 1.18078,-121 1.18078,-76.4259 46.8022,-42.4604 77.3205,-24.726"/>
<polygon fill="midnightblue" stroke="midnightblue" points="79.2123,-27.6785 86.2395,-19.7495 75.8015,-21.5656 79.2123,-27.6785"/>
</g>
<!-- Node10 -->
<g id="node10" class="node"><title>Node10</title>
<polygon fill="white" stroke="#bfbfbf" points="745.181,-280.5 745.181,-299.5 809.181,-299.5 809.181,-280.5 745.181,-280.5"/>
<text text-anchor="middle" x="777.181" y="-287.5" font-family="FreeSans" font-size="10.00">wx/listctrl.h</text>
</g>
<!-- Node1&#45;&gt;Node10 -->
<g id="edge9" class="edge"><title>Node1&#45;&gt;Node10</title>
<path fill="none" stroke="midnightblue" d="M1094.94,-337.39C1026.67,-329.263 917.23,-315.446 823.181,-300 821.916,-299.792 820.633,-299.576 819.338,-299.353"/>
<polygon fill="midnightblue" stroke="midnightblue" points="819.769,-295.874 809.306,-297.544 818.527,-302.763 819.769,-295.874"/>
</g>
<!-- Node11 -->
<g id="node11" class="node"><title>Node11</title>
<polygon fill="white" stroke="#bfbfbf" points="1284.18,-56.5 1284.18,-75.5 1346.18,-75.5 1346.18,-56.5 1284.18,-56.5"/>
<text text-anchor="middle" x="1315.18" y="-63.5" font-family="FreeSans" font-size="10.00">wx/string.h</text>
</g>
<!-- Node1&#45;&gt;Node11 -->
<g id="edge10" class="edge"><title>Node1&#45;&gt;Node11</title>
<path fill="none" stroke="midnightblue" d="M1227.35,-342.876C1352.12,-338.29 1612.53,-325.733 1644.18,-300 1667.63,-280.933 1664.18,-265.225 1664.18,-235 1664.18,-235 1664.18,-235 1664.18,-177 1664.18,-113.153 1449.03,-81.7533 1356.58,-71.2089"/>
<polygon fill="midnightblue" stroke="midnightblue" points="1356.79,-67.71 1346.46,-70.082 1356.01,-74.667 1356.79,-67.71"/>
</g>
<!-- Node12 -->
<g id="node12" class="node"><title>Node12</title>
<polygon fill="white" stroke="#bfbfbf" points="868.181,-280.5 868.181,-299.5 924.181,-299.5 924.181,-280.5 868.181,-280.5"/>
<text text-anchor="middle" x="896.181" y="-287.5" font-family="FreeSans" font-size="10.00">wx/utils.h</text>
</g>
<!-- Node1&#45;&gt;Node12 -->
<g id="edge11" class="edge"><title>Node1&#45;&gt;Node12</title>
<path fill="none" stroke="midnightblue" d="M1114.77,-336.456C1070.77,-328.219 1002.6,-315.098 934.48,-300.215"/>
<polygon fill="midnightblue" stroke="midnightblue" points="934.951,-296.735 924.433,-298.007 933.448,-303.572 934.951,-296.735"/>
</g>
<!-- Node13 -->
<g id="node13" class="node"><title>Node13</title>
<polygon fill="white" stroke="#bfbfbf" points="942.181,-280.5 942.181,-299.5 1024.18,-299.5 1024.18,-280.5 942.181,-280.5"/>
<text text-anchor="middle" x="983.181" y="-287.5" font-family="FreeSans" font-size="10.00">wx/xrc/xmlres.h</text>
</g>
<!-- Node1&#45;&gt;Node13 -->
<g id="edge12" class="edge"><title>Node1&#45;&gt;Node13</title>
<path fill="none" stroke="midnightblue" d="M1132.98,-336.444C1102.77,-327.28 1054.67,-312.688 1021.15,-302.519"/>
<polygon fill="midnightblue" stroke="midnightblue" points="1021.84,-299.07 1011.25,-299.516 1019.81,-305.769 1021.84,-299.07"/>
</g>
<!-- Node14 -->
<g id="node14" class="node"><title>Node14</title>
<g id="a_node14"><a xlink:href="manager_8h" target="_top" xlink:title="manager.h">
<polygon fill="white" stroke="black" points="933.181,-112.5 933.181,-131.5 995.181,-131.5 995.181,-112.5 933.181,-112.5"/>
<text text-anchor="middle" x="964.181" y="-119.5" font-family="FreeSans" font-size="10.00">manager.h</text>
</a>
</g>
</g>
<!-- Node1&#45;&gt;Node14 -->
<g id="edge13" class="edge"><title>Node1&#45;&gt;Node14</title>
<path fill="none" stroke="midnightblue" d="M1160.63,-336.457C1158.97,-315.762 1152.64,-261.863 1130.18,-224 1102.34,-177.057 1043.39,-149.108 1003.77,-134.895"/>
<polygon fill="midnightblue" stroke="midnightblue" points="1004.74,-131.527 994.141,-131.575 1002.45,-138.145 1004.74,-131.527"/>
</g>
<!-- Node22 -->
<g id="node22" class="node"><title>Node22</title>
<g id="a_node22"><a xlink:href="configmanager_8h" target="_top" xlink:title="configmanager.h">
<polygon fill="white" stroke="black" points="569.681,-168.5 569.681,-187.5 656.681,-187.5 656.681,-168.5 569.681,-168.5"/>
<text text-anchor="middle" x="613.181" y="-175.5" font-family="FreeSans" font-size="10.00">configmanager.h</text>
</a>
</g>
</g>
<!-- Node1&#45;&gt;Node22 -->
<g id="edge25" class="edge"><title>Node1&#45;&gt;Node22</title>
<path fill="none" stroke="midnightblue" d="M1095.14,-343.287C992.026,-339.734 798.153,-329.277 736.181,-300 686.029,-276.307 644.077,-223.584 624.701,-196.222"/>
<polygon fill="midnightblue" stroke="midnightblue" points="627.373,-193.933 618.812,-187.691 621.612,-197.909 627.373,-193.933"/>
</g>
<!-- Node34 -->
<g id="node34" class="node"><title>Node34</title>
<g id="a_node34"><a xlink:href="pluginmanager_8h" target="_top" xlink:title="pluginmanager.h">
<polygon fill="white" stroke="black" points="793.681,-168.5 793.681,-187.5 880.681,-187.5 880.681,-168.5 793.681,-168.5"/>
<text text-anchor="middle" x="837.181" y="-175.5" font-family="FreeSans" font-size="10.00">pluginmanager.h</text>
</a>
</g>
</g>
<!-- Node1&#45;&gt;Node34 -->
<g id="edge47" class="edge"><title>Node1&#45;&gt;Node34</title>
<path fill="none" stroke="midnightblue" d="M1094.86,-343.865C1016.27,-341.073 891.832,-331.625 859.181,-300 831.536,-273.224 831.914,-224.167 834.558,-197.48"/>
<polygon fill="midnightblue" stroke="midnightblue" points="838.034,-197.889 835.755,-187.542 831.084,-197.052 838.034,-197.889"/>
</g>
<!-- Node36 -->
<g id="node36" class="node"><title>Node36</title>
<g id="a_node36"><a xlink:href="cbplugin_8h" target="_top" xlink:title="cbplugin.h">
<polygon fill="white" stroke="black" points="1061.18,-224.5 1061.18,-243.5 1121.18,-243.5 1121.18,-224.5 1061.18,-224.5"/>
<text text-anchor="middle" x="1091.18" y="-231.5" font-family="FreeSans" font-size="10.00">cbplugin.h</text>
</a>
</g>
</g>
<!-- Node1&#45;&gt;Node36 -->
<g id="edge55" class="edge"><title>Node1&#45;&gt;Node36</title>
<path fill="none" stroke="midnightblue" d="M1156.5,-336.441C1149.55,-323.87 1135.95,-299.763 1123.18,-280 1117.07,-270.539 1109.83,-260.283 1103.78,-251.954"/>
<polygon fill="midnightblue" stroke="midnightblue" points="1106.53,-249.793 1097.79,-243.803 1100.89,-253.935 1106.53,-249.793"/>
</g>
<!-- Node39 -->
<g id="node39" class="node"><title>Node39</title>
<g id="a_node39"><a xlink:href="annoyingdialog_8h" target="_top" xlink:title="annoyingdialog.h">
<polygon fill="white" stroke="black" points="1208.18,-280.5 1208.18,-299.5 1296.18,-299.5 1296.18,-280.5 1208.18,-280.5"/>
<text text-anchor="middle" x="1252.18" y="-287.5" font-family="FreeSans" font-size="10.00">annoyingdialog.h</text>
</a>
</g>
</g>
<!-- Node1&#45;&gt;Node39 -->
<g id="edge69" class="edge"><title>Node1&#45;&gt;Node39</title>
<path fill="none" stroke="midnightblue" d="M1175.8,-336.324C1190.13,-327.822 1212.19,-314.729 1228.93,-304.797"/>
<polygon fill="midnightblue" stroke="midnightblue" points="1230.78,-307.768 1237.6,-299.655 1227.21,-301.748 1230.78,-307.768"/>
</g>
<!-- Node42 -->
<g id="node42" class="node"><title>Node42</title>
<g id="a_node42"><a xlink:href="ccmanager_8h" target="_top" xlink:title="ccmanager.h">
<polygon fill="white" stroke="black" points="1042.18,-280.5 1042.18,-299.5 1114.18,-299.5 1114.18,-280.5 1042.18,-280.5"/>
<text text-anchor="middle" x="1078.18" y="-287.5" font-family="FreeSans" font-size="10.00">ccmanager.h</text>
</a>
</g>
</g>
<!-- Node1&#45;&gt;Node42 -->
<g id="edge74" class="edge"><title>Node1&#45;&gt;Node42</title>
<path fill="none" stroke="midnightblue" d="M1147.85,-336.324C1135.02,-327.979 1115.4,-315.212 1100.24,-305.352"/>
<polygon fill="midnightblue" stroke="midnightblue" points="1101.77,-302.174 1091.48,-299.655 1097.96,-308.042 1101.77,-302.174"/>
</g>
<!-- Node44 -->
<g id="node44" class="node"><title>Node44</title>
<polygon fill="white" stroke="#bfbfbf" points="1492.18,-280.5 1492.18,-299.5 1554.18,-299.5 1554.18,-280.5 1492.18,-280.5"/>
<text text-anchor="middle" x="1523.18" y="-287.5" font-family="FreeSans" font-size="10.00">wx/dirdlg.h</text>
</g>
<!-- Node1&#45;&gt;Node44 -->
<g id="edge78" class="edge"><title>Node1&#45;&gt;Node44</title>
<path fill="none" stroke="midnightblue" d="M1227.22,-336.728C1291.46,-328.422 1391.75,-314.766 1478.18,-300 1479.28,-299.812 1480.39,-299.618 1481.52,-299.419"/>
<polygon fill="midnightblue" stroke="midnightblue" points="1482.56,-302.786 1491.75,-297.521 1481.28,-295.903 1482.56,-302.786"/>
</g>
<!-- Node45 -->
<g id="node45" class="node"><title>Node45</title>
<polygon fill="white" stroke="#bfbfbf" points="1572.68,-280.5 1572.68,-299.5 1635.68,-299.5 1635.68,-280.5 1572.68,-280.5"/>
<text text-anchor="middle" x="1604.18" y="-287.5" font-family="FreeSans" font-size="10.00">wx/filedlg.h</text>
</g>
<!-- Node1&#45;&gt;Node45 -->
<g id="edge79" class="edge"><title>Node1&#45;&gt;Node45</title>
<path fill="none" stroke="midnightblue" d="M1227.28,-339.737C1305.07,-333.064 1438.31,-320.142 1562.4,-299.962"/>
<polygon fill="midnightblue" stroke="midnightblue" points="1563.16,-303.384 1572.46,-298.307 1562.02,-296.477 1563.16,-303.384"/>
</g>
<!-- Node46 -->
<g id="node46" class="node"><title>Node46</title>
<polygon fill="white" stroke="#bfbfbf" points="1542.68,-224.5 1542.68,-243.5 1635.68,-243.5 1635.68,-224.5 1542.68,-224.5"/>
<text text-anchor="middle" x="1589.18" y="-231.5" font-family="FreeSans" font-size="10.00">wx/html/htmlwin.h</text>
</g>
<!-- Node1&#45;&gt;Node46 -->
<g id="edge80" class="edge"><title>Node1&#45;&gt;Node46</title>
<path fill="none" stroke="midnightblue" d="M1227.2,-340.679C1285.7,-335.417 1372.82,-324.046 1445.18,-300 1463.29,-293.982 1465.94,-288.18 1483.18,-280 1507.97,-268.238 1536.65,-256.152 1557.92,-247.471"/>
<polygon fill="midnightblue" stroke="midnightblue" points="1559.48,-250.619 1567.43,-243.617 1556.85,-244.132 1559.48,-250.619"/>
</g>
<!-- Node47 -->
<g id="node47" class="node"><title>Node47</title>
<polygon fill="white" stroke="#bfbfbf" points="1692.18,-280.5 1692.18,-299.5 1762.18,-299.5 1762.18,-280.5 1692.18,-280.5"/>
<text text-anchor="middle" x="1727.18" y="-287.5" font-family="FreeSans" font-size="10.00">wx/progdlg.h</text>
</g>
<!-- Node1&#45;&gt;Node47 -->
<g id="edge81" class="edge"><title>Node1&#45;&gt;Node47</title>
<path fill="none" stroke="midnightblue" d="M1227.51,-341.246C1326.1,-335.209 1517.02,-321.764 1678.18,-300 1679.43,-299.831 1680.7,-299.651 1681.99,-299.464"/>
<polygon fill="midnightblue" stroke="midnightblue" points="1682.59,-302.912 1691.92,-297.89 1681.49,-295.999 1682.59,-302.912"/>
</g>
<!-- Node48 -->
<g id="node48" class="node"><title>Node48</title>
<polygon fill="white" stroke="#bfbfbf" points="1780.68,-280.5 1780.68,-299.5 1851.68,-299.5 1851.68,-280.5 1780.68,-280.5"/>
<text text-anchor="middle" x="1816.18" y="-287.5" font-family="FreeSans" font-size="10.00">wx/settings.h</text>
</g>
<!-- Node1&#45;&gt;Node48 -->
<g id="edge82" class="edge"><title>Node1&#45;&gt;Node48</title>
<path fill="none" stroke="midnightblue" d="M1227.36,-342.802C1337.82,-338.543 1566.89,-327.201 1770.41,-299.927"/>
<polygon fill="midnightblue" stroke="midnightblue" points="1770.95,-303.386 1780.39,-298.574 1770.01,-296.45 1770.95,-303.386"/>
</g>
<!-- Node49 -->
<g id="node49" class="node"><title>Node49</title>
<polygon fill="white" stroke="#bfbfbf" points="1869.68,-280.5 1869.68,-299.5 1934.68,-299.5 1934.68,-280.5 1869.68,-280.5"/>
<text text-anchor="middle" x="1902.18" y="-287.5" font-family="FreeSans" font-size="10.00">wx/tooltip.h</text>
</g>
<!-- Node1&#45;&gt;Node49 -->
<g id="edge83" class="edge"><title>Node1&#45;&gt;Node49</title>
<path fill="none" stroke="midnightblue" d="M1227.52,-343.967C1350.32,-341.349 1621.39,-332.267 1859.03,-299.942"/>
<polygon fill="midnightblue" stroke="midnightblue" points="1859.82,-303.367 1869.25,-298.535 1858.86,-296.432 1859.82,-303.367"/>
</g>
<!-- Node50 -->
<g id="node50" class="node"><title>Node50</title>
<g id="a_node50"><a xlink:href="pluginsconfigurationdlg_8h" target="_top" xlink:title="pluginsconfigurationdlg.h">
<polygon fill="white" stroke="black" points="1314.18,-280.5 1314.18,-299.5 1436.18,-299.5 1436.18,-280.5 1314.18,-280.5"/>
<text text-anchor="middle" x="1375.18" y="-287.5" font-family="FreeSans" font-size="10.00">pluginsconfigurationdlg.h</text>
</a>
</g>
</g>
<!-- Node1&#45;&gt;Node50 -->
<g id="edge84" class="edge"><title>Node1&#45;&gt;Node50</title>
<path fill="none" stroke="midnightblue" d="M1195.09,-336.444C1232.03,-327.122 1291.23,-312.183 1331.6,-301.997"/>
<polygon fill="midnightblue" stroke="midnightblue" points="1332.59,-305.357 1341.43,-299.516 1330.88,-298.57 1332.59,-305.357"/>
</g>
<!-- Node3 -->
<g id="node3" class="node"><title>Node3</title>
<g id="a_node3"><a xlink:href="sdk__common_8h" target="_top" xlink:title="sdk_common.h">
<polygon fill="white" stroke="black" points="1850.18,-224.5 1850.18,-243.5 1932.18,-243.5 1932.18,-224.5 1850.18,-224.5"/>
<text text-anchor="middle" x="1891.18" y="-231.5" font-family="FreeSans" font-size="10.00">sdk_common.h</text>
</a>
</g>
</g>
<!-- Node2&#45;&gt;Node3 -->
<g id="edge2" class="edge"><title>Node2&#45;&gt;Node3</title>
<path fill="none" stroke="midnightblue" d="M1977.63,-280.324C1961.19,-271.703 1935.75,-258.364 1916.71,-248.386"/>
<polygon fill="midnightblue" stroke="midnightblue" points="1918.17,-245.198 1907.69,-243.655 1914.92,-251.398 1918.17,-245.198"/>
</g>
<!-- Node4 -->
<g id="node4" class="node"><title>Node4</title>
<polygon fill="white" stroke="#bfbfbf" points="1795.18,-168.5 1795.18,-187.5 1863.18,-187.5 1863.18,-168.5 1795.18,-168.5"/>
<text text-anchor="middle" x="1829.18" y="-175.5" font-family="FreeSans" font-size="10.00">wx/wxprec.h</text>
</g>
<!-- Node3&#45;&gt;Node4 -->
<g id="edge3" class="edge"><title>Node3&#45;&gt;Node4</title>
<path fill="none" stroke="midnightblue" d="M1881.22,-224.324C1872.05,-216.341 1858.24,-204.313 1847.15,-194.653"/>
<polygon fill="midnightblue" stroke="midnightblue" points="1849.16,-191.762 1839.32,-187.834 1844.57,-197.041 1849.16,-191.762"/>
</g>
<!-- Node5 -->
<g id="node5" class="node"><title>Node5</title>
<g id="a_node5"><a xlink:href="prep_8h" target="_top" xlink:title="prep.h">
<polygon fill="white" stroke="black" points="1293.68,-0.5 1293.68,-19.5 1336.68,-19.5 1336.68,-0.5 1293.68,-0.5"/>
<text text-anchor="middle" x="1315.18" y="-7.5" font-family="FreeSans" font-size="10.00">prep.h</text>
</a>
</g>
</g>
<!-- Node3&#45;&gt;Node5 -->
<g id="edge4" class="edge"><title>Node3&#45;&gt;Node5</title>
<path fill="none" stroke="midnightblue" d="M1891.15,-224.091C1890.62,-210.169 1887.5,-183.271 1872.18,-168 1795.56,-91.6322 1453.68,-32.6467 1347.05,-15.8412"/>
<polygon fill="midnightblue" stroke="midnightblue" points="1347.34,-12.3436 1336.92,-14.26 1346.26,-19.2599 1347.34,-12.3436"/>
</g>
<!-- Node15 -->
<g id="node15" class="node"><title>Node15</title>
<polygon fill="white" stroke="#bfbfbf" points="662.681,-56.5 662.681,-75.5 697.681,-75.5 697.681,-56.5 662.681,-56.5"/>
<text text-anchor="middle" x="680.181" y="-63.5" font-family="FreeSans" font-size="10.00">map</text>
</g>
<!-- Node14&#45;&gt;Node15 -->
<g id="edge14" class="edge"><title>Node14&#45;&gt;Node15</title>
<path fill="none" stroke="midnightblue" d="M932.975,-115.067C877.166,-104.455 761.13,-82.3917 707.925,-72.2753"/>
<polygon fill="midnightblue" stroke="midnightblue" points="708.341,-68.7918 697.863,-70.3622 707.033,-75.6686 708.341,-68.7918"/>
</g>
<!-- Node16 -->
<g id="node16" class="node"><title>Node16</title>
<polygon fill="white" stroke="#bfbfbf" points="601.681,-56.5 601.681,-75.5 644.681,-75.5 644.681,-56.5 601.681,-56.5"/>
<text text-anchor="middle" x="623.181" y="-63.5" font-family="FreeSans" font-size="10.00">vector</text>
</g>
<!-- Node14&#45;&gt;Node16 -->
<g id="edge15" class="edge"><title>Node14&#45;&gt;Node16</title>
<path fill="none" stroke="midnightblue" d="M933.007,-118.031C878.385,-112.498 761.736,-99.2125 654.704,-76.0703"/>
<polygon fill="midnightblue" stroke="midnightblue" points="655.229,-72.6021 644.711,-73.8741 653.726,-79.439 655.229,-72.6021"/>
</g>
<!-- Node17 -->
<g id="node17" class="node"><title>Node17</title>
<polygon fill="white" stroke="#bfbfbf" points="1111.18,-0.5 1111.18,-19.5 1173.18,-19.5 1173.18,-0.5 1111.18,-0.5"/>
<text text-anchor="middle" x="1142.18" y="-7.5" font-family="FreeSans" font-size="10.00">wx/event.h</text>
</g>
<!-- Node14&#45;&gt;Node17 -->
<g id="edge16" class="edge"><title>Node14&#45;&gt;Node17</title>
<path fill="none" stroke="midnightblue" d="M981.32,-112.366C998.309,-103.656 1024.94,-89.5875 1047.18,-76 1073.83,-59.7204 1103.34,-39.0982 1122.29,-25.4996"/>
<polygon fill="midnightblue" stroke="midnightblue" points="1124.38,-28.3031 1130.44,-19.6123 1120.29,-22.6272 1124.38,-28.3031"/>
</g>
<!-- Node18 -->
<g id="node18" class="node"><title>Node18</title>
<polygon fill="white" stroke="#bfbfbf" points="754.181,-56.5 754.181,-75.5 826.181,-75.5 826.181,-56.5 754.181,-56.5"/>
<text text-anchor="middle" x="790.181" y="-63.5" font-family="FreeSans" font-size="10.00">wx/cmdline.h</text>
</g>
<!-- Node14&#45;&gt;Node18 -->
<g id="edge17" class="edge"><title>Node14&#45;&gt;Node18</title>
<path fill="none" stroke="midnightblue" d="M936.61,-112.444C907.083,-103.28 860.063,-88.6876 827.298,-78.5192"/>
<polygon fill="midnightblue" stroke="midnightblue" points="828.211,-75.1378 817.623,-75.5164 826.136,-81.8232 828.211,-75.1378"/>
</g>
<!-- Node19 -->
<g id="node19" class="node"><title>Node19</title>
<g id="a_node19"><a xlink:href="settings_8h" target="_top" xlink:title="settings.h">
<polygon fill="white" stroke="black" points="973.681,-0.5 973.681,-19.5 1030.68,-19.5 1030.68,-0.5 973.681,-0.5"/>
<text text-anchor="middle" x="1002.18" y="-7.5" font-family="FreeSans" font-size="10.00">settings.h</text>
</a>
</g>
</g>
<!-- Node14&#45;&gt;Node19 -->
<g id="edge18" class="edge"><title>Node14&#45;&gt;Node19</title>
<path fill="none" stroke="midnightblue" d="M960.629,-112.206C955.999,-99.3419 949.363,-74.8748 957.181,-56 962.101,-44.121 971.847,-33.7428 981.015,-25.9557"/>
<polygon fill="midnightblue" stroke="midnightblue" points="983.434,-28.5058 989.117,-19.5641 979.098,-23.0101 983.434,-28.5058"/>
</g>
<!-- Node20 -->
<g id="node20" class="node"><title>Node20</title>
<g id="a_node20"><a xlink:href="sdk__events_8h" target="_top" xlink:title="sdk_events.h">
<polygon fill="white" stroke="black" points="966.181,-56.5 966.181,-75.5 1038.18,-75.5 1038.18,-56.5 966.181,-56.5"/>
<text text-anchor="middle" x="1002.18" y="-63.5" font-family="FreeSans" font-size="10.00">sdk_events.h</text>
</a>
</g>
</g>
<!-- Node14&#45;&gt;Node20 -->
<g id="edge19" class="edge"><title>Node14&#45;&gt;Node20</title>
<path fill="none" stroke="midnightblue" d="M970.456,-112.083C975.823,-104.455 983.698,-93.2645 990.259,-83.9408"/>
<polygon fill="midnightblue" stroke="midnightblue" points="993.13,-85.9434 996.023,-75.7511 987.405,-81.9149 993.13,-85.9434"/>
</g>
<!-- Node21 -->
<g id="node21" class="node"><title>Node21</title>
<g id="a_node21"><a xlink:href="cbfunctor_8h" target="_top" xlink:title="cbfunctor.h">
<polygon fill="white" stroke="black" points="844.681,-56.5 844.681,-75.5 909.681,-75.5 909.681,-56.5 844.681,-56.5"/>
<text text-anchor="middle" x="877.181" y="-63.5" font-family="FreeSans" font-size="10.00">cbfunctor.h</text>
</a>
</g>
</g>
<!-- Node14&#45;&gt;Node21 -->
<g id="edge24" class="edge"><title>Node14&#45;&gt;Node21</title>
<path fill="none" stroke="midnightblue" d="M950.203,-112.324C936.631,-103.9 915.801,-90.9709 899.856,-81.0741"/>
<polygon fill="midnightblue" stroke="midnightblue" points="901.466,-77.9544 891.124,-75.6545 897.775,-83.9019 901.466,-77.9544"/>
</g>
<!-- Node20&#45;&gt;Node5 -->
<g id="edge23" class="edge"><title>Node20&#45;&gt;Node5</title>
<path fill="none" stroke="midnightblue" d="M1038.39,-58.7528C1100.05,-48.1154 1224.43,-26.6564 1283.13,-16.5295"/>
<polygon fill="midnightblue" stroke="midnightblue" points="1284.04,-19.9249 1293.3,-14.7756 1282.85,-13.0268 1284.04,-19.9249"/>
</g>
<!-- Node20&#45;&gt;Node9 -->
<g id="edge21" class="edge"><title>Node20&#45;&gt;Node9</title>
<path fill="none" stroke="midnightblue" d="M965.834,-60.6927C951.064,-59.05 933.823,-57.2695 918.181,-56 617.864,-31.6267 254.125,-16.6716 140.118,-12.3254"/>
<polygon fill="midnightblue" stroke="midnightblue" points="140.001,-8.81852 129.875,-11.9379 139.736,-15.8135 140.001,-8.81852"/>
</g>
<!-- Node20&#45;&gt;Node17 -->
<g id="edge20" class="edge"><title>Node20&#45;&gt;Node17</title>
<path fill="none" stroke="midnightblue" d="M1024.36,-56.4435C1047.61,-47.4776 1084.33,-33.314 1110.6,-23.1827"/>
<polygon fill="midnightblue" stroke="midnightblue" points="1112.03,-26.3807 1120.1,-19.5164 1109.51,-19.8497 1112.03,-26.3807"/>
</g>
<!-- Node20&#45;&gt;Node19 -->
<g id="edge22" class="edge"><title>Node20&#45;&gt;Node19</title>
<path fill="none" stroke="midnightblue" d="M1002.18,-56.083C1002.18,-49.0059 1002.18,-38.8611 1002.18,-29.9865"/>
<polygon fill="midnightblue" stroke="midnightblue" points="1005.68,-29.751 1002.18,-19.7511 998.681,-29.7511 1005.68,-29.751"/>
</g>
<!-- Node22&#45;&gt;Node14 -->
<g id="edge41" class="edge"><title>Node22&#45;&gt;Node14</title>
<path fill="none" stroke="midnightblue" d="M656.925,-170.27C725.132,-159.777 855.907,-139.658 922.699,-129.382"/>
<polygon fill="midnightblue" stroke="midnightblue" points="923.498,-132.8 932.85,-127.82 922.434,-125.882 923.498,-132.8"/>
</g>
<!-- Node22&#45;&gt;Node15 -->
<g id="edge45" class="edge"><title>Node22&#45;&gt;Node15</title>
<path fill="none" stroke="midnightblue" d="M618.438,-168.368C629.446,-150.296 655.101,-108.176 669.639,-84.3074"/>
<polygon fill="midnightblue" stroke="midnightblue" points="672.735,-85.9526 674.948,-75.5914 666.757,-82.3112 672.735,-85.9526"/>
</g>
<!-- Node22&#45;&gt;Node19 -->
<g id="edge28" class="edge"><title>Node22&#45;&gt;Node19</title>
<path fill="none" stroke="midnightblue" d="M610.865,-168.251C603.99,-141.873 584.639,-64.415 592.181,-56 616.736,-28.6026 866.093,-16.1929 963.495,-12.3636"/>
<polygon fill="midnightblue" stroke="midnightblue" points="963.66,-15.8599 973.518,-11.9789 963.391,-8.86509 963.66,-15.8599"/>
</g>
<!-- Node23 -->
<g id="node23" class="node"><title>Node23</title>
<polygon fill="white" stroke="#bfbfbf" points="418.681,-112.5 418.681,-131.5 495.681,-131.5 495.681,-112.5 418.681,-112.5"/>
<text text-anchor="middle" x="457.181" y="-119.5" font-family="FreeSans" font-size="10.00">wx/hashmap.h</text>
</g>
<!-- Node22&#45;&gt;Node23 -->
<g id="edge26" class="edge"><title>Node22&#45;&gt;Node23</title>
<path fill="none" stroke="midnightblue" d="M588.462,-168.444C562.332,-159.399 520.921,-145.064 491.604,-134.916"/>
<polygon fill="midnightblue" stroke="midnightblue" points="492.379,-131.48 481.784,-131.516 490.089,-138.095 492.379,-131.48"/>
</g>
<!-- Node24 -->
<g id="node24" class="node"><title>Node24</title>
<polygon fill="white" stroke="#bfbfbf" points="513.681,-112.5 513.681,-131.5 584.681,-131.5 584.681,-112.5 513.681,-112.5"/>
<text text-anchor="middle" x="549.181" y="-119.5" font-family="FreeSans" font-size="10.00">wx/hashset.h</text>
</g>
<!-- Node22&#45;&gt;Node24 -->
<g id="edge27" class="edge"><title>Node22&#45;&gt;Node24</title>
<path fill="none" stroke="midnightblue" d="M602.898,-168.324C593.344,-160.263 578.901,-148.077 567.396,-138.369"/>
<polygon fill="midnightblue" stroke="midnightblue" points="569.551,-135.608 559.651,-131.834 565.036,-140.958 569.551,-135.608"/>
</g>
<!-- Node25 -->
<g id="node25" class="node"><title>Node25</title>
<g id="a_node25"><a xlink:href="globals_8h" target="_top" xlink:title="globals.h">
<polygon fill="white" stroke="black" points="140.181,-112.5 140.181,-131.5 194.181,-131.5 194.181,-112.5 140.181,-112.5"/>
<text text-anchor="middle" x="167.181" y="-119.5" font-family="FreeSans" font-size="10.00">globals.h</text>
</a>
</g>
</g>
<!-- Node22&#45;&gt;Node25 -->
<g id="edge29" class="edge"><title>Node22&#45;&gt;Node25</title>
<path fill="none" stroke="midnightblue" d="M569.514,-174.162C496.036,-168.962 342.916,-156.304 204.185,-131.952"/>
<polygon fill="midnightblue" stroke="midnightblue" points="204.681,-128.485 194.223,-130.178 203.454,-135.377 204.681,-128.485"/>
</g>
<!-- Node30 -->
<g id="node30" class="node"><title>Node30</title>
<polygon fill="white" stroke="#bfbfbf" points="212.681,-112.5 212.681,-131.5 295.681,-131.5 295.681,-112.5 212.681,-112.5"/>
<text text-anchor="middle" x="254.181" y="-119.5" font-family="FreeSans" font-size="10.00">tinyxml/tinystr.h</text>
</g>
<!-- Node22&#45;&gt;Node30 -->
<g id="edge39" class="edge"><title>Node22&#45;&gt;Node30</title>
<path fill="none" stroke="midnightblue" d="M569.613,-171.123C511.649,-163.202 405.729,-148.368 305.859,-132.234"/>
<polygon fill="midnightblue" stroke="midnightblue" points="306.336,-128.766 295.905,-130.618 305.215,-135.675 306.336,-128.766"/>
</g>
<!-- Node31 -->
<g id="node31" class="node"><title>Node31</title>
<polygon fill="white" stroke="#bfbfbf" points="313.681,-112.5 313.681,-131.5 400.681,-131.5 400.681,-112.5 313.681,-112.5"/>
<text text-anchor="middle" x="357.181" y="-119.5" font-family="FreeSans" font-size="10.00">tinyxml/tinyxml.h</text>
</g>
<!-- Node22&#45;&gt;Node31 -->
<g id="edge40" class="edge"><title>Node22&#45;&gt;Node31</title>
<path fill="none" stroke="midnightblue" d="M572.617,-168.444C527.865,-159.004 455.798,-143.802 407.485,-133.611"/>
<polygon fill="midnightblue" stroke="midnightblue" points="408.062,-130.156 397.555,-131.516 406.617,-137.005 408.062,-130.156"/>
</g>
<!-- Node32 -->
<g id="node32" class="node"><title>Node32</title>
<g id="a_node32"><a xlink:href="base64_8h" target="_top" xlink:title="base64.h">
<polygon fill="white" stroke="red" points="1020.68,-112.5 1020.68,-131.5 1075.68,-131.5 1075.68,-112.5 1020.68,-112.5"/>
<text text-anchor="middle" x="1048.18" y="-119.5" font-family="FreeSans" font-size="10.00">base64.h</text>
</a>
</g>
</g>
<!-- Node22&#45;&gt;Node32 -->
<g id="edge42" class="edge"><title>Node22&#45;&gt;Node32</title>
<path fill="none" stroke="midnightblue" d="M656.744,-173.237C729.138,-166.703 878.673,-152.019 1004.18,-132 1006.23,-131.674 1008.32,-131.318 1010.43,-130.943"/>
<polygon fill="midnightblue" stroke="midnightblue" points="1011.14,-134.372 1020.32,-129.081 1009.84,-127.493 1011.14,-134.372"/>
</g>
<!-- Node33 -->
<g id="node33" class="node"><title>Node33</title>
<polygon fill="white" stroke="#bfbfbf" points="679.681,-112.5 679.681,-131.5 708.681,-131.5 708.681,-112.5 679.681,-112.5"/>
<text text-anchor="middle" x="694.181" y="-119.5" font-family="FreeSans" font-size="10.00">set</text>
</g>
<!-- Node22&#45;&gt;Node33 -->
<g id="edge46" class="edge"><title>Node22&#45;&gt;Node33</title>
<path fill="none" stroke="midnightblue" d="M626.195,-168.324C638.712,-159.979 657.863,-147.212 672.652,-137.352"/>
<polygon fill="midnightblue" stroke="midnightblue" points="674.82,-140.114 681.199,-131.655 670.937,-134.289 674.82,-140.114"/>
</g>
<!-- Node25&#45;&gt;Node8 -->
<g id="edge34" class="edge"><title>Node25&#45;&gt;Node8</title>
<path fill="none" stroke="midnightblue" d="M157.059,-112.324C147.654,-104.263 133.437,-92.0765 122.112,-82.3695"/>
<polygon fill="midnightblue" stroke="midnightblue" points="124.357,-79.6844 114.487,-75.8339 119.802,-84.9993 124.357,-79.6844"/>
</g>
<!-- Node25&#45;&gt;Node9 -->
<g id="edge35" class="edge"><title>Node25&#45;&gt;Node9</title>
<path fill="none" stroke="midnightblue" d="M166.413,-112.448C164.936,-99.4665 160.841,-74.3583 150.181,-56 143.566,-44.6088 133.287,-34.1649 124.121,-26.212"/>
<polygon fill="midnightblue" stroke="midnightblue" points="126.099,-23.3069 116.155,-19.6529 121.65,-28.7111 126.099,-23.3069"/>
</g>
<!-- Node25&#45;&gt;Node11 -->
<g id="edge31" class="edge"><title>Node25&#45;&gt;Node11</title>
<path fill="none" stroke="midnightblue" d="M194.19,-113.618C197.206,-112.982 200.247,-112.421 203.181,-112 257.084,-104.255 1078.67,-75.2442 1273.82,-68.4363"/>
<polygon fill="midnightblue" stroke="midnightblue" points="1274.08,-71.9297 1283.95,-68.0834 1273.83,-64.9339 1274.08,-71.9297"/>
</g>
<!-- Node25&#45;&gt;Node16 -->
<g id="edge30" class="edge"><title>Node25&#45;&gt;Node16</title>
<path fill="none" stroke="midnightblue" d="M194.22,-113.805C197.23,-113.134 200.262,-112.514 203.181,-112 355.445,-85.1841 395.548,-93.3337 549.181,-76 563.083,-74.4315 578.439,-72.5828 591.543,-70.9703"/>
<polygon fill="midnightblue" stroke="midnightblue" points="592.004,-74.4401 601.498,-69.7376 591.143,-67.4931 592.004,-74.4401"/>
</g>
<!-- Node25&#45;&gt;Node19 -->
<g id="edge38" class="edge"><title>Node25&#45;&gt;Node19</title>
<path fill="none" stroke="midnightblue" d="M194.225,-113.837C197.235,-113.16 200.265,-112.53 203.181,-112 340.953,-86.9658 381.412,-114.015 516.181,-76 536.466,-70.2779 538.858,-61.5873 559.181,-56 704.411,-16.073 885.181,-10.8554 963.271,-10.6413"/>
<polygon fill="midnightblue" stroke="midnightblue" points="963.594,-14.1414 973.594,-10.6412 963.594,-7.14139 963.594,-14.1414"/>
</g>
<!-- Node26 -->
<g id="node26" class="node"><title>Node26</title>
<polygon fill="white" stroke="#bfbfbf" points="371.181,-56.5 371.181,-75.5 439.181,-75.5 439.181,-56.5 371.181,-56.5"/>
<text text-anchor="middle" x="405.181" y="-63.5" font-family="FreeSans" font-size="10.00">wx/treectrl.h</text>
</g>
<!-- Node25&#45;&gt;Node26 -->
<g id="edge32" class="edge"><title>Node25&#45;&gt;Node26</title>
<path fill="none" stroke="midnightblue" d="M194.289,-114.143C197.287,-113.409 200.297,-112.682 203.181,-112 257.495,-99.1631 320.269,-85.3363 361.238,-76.4473"/>
<polygon fill="midnightblue" stroke="midnightblue" points="362.133,-79.8347 371.166,-74.2973 360.651,-72.9932 362.133,-79.8347"/>
</g>
<!-- Node27 -->
<g id="node27" class="node"><title>Node27</title>
<polygon fill="white" stroke="#bfbfbf" points="457.181,-56.5 457.181,-75.5 507.181,-75.5 507.181,-56.5 457.181,-56.5"/>
<text text-anchor="middle" x="482.181" y="-63.5" font-family="FreeSans" font-size="10.00">wx/file.h</text>
</g>
<!-- Node25&#45;&gt;Node27 -->
<g id="edge33" class="edge"><title>Node25&#45;&gt;Node27</title>
<path fill="none" stroke="midnightblue" d="M194.243,-113.929C197.249,-113.235 200.274,-112.575 203.181,-112 307.981,-91.2534 338.588,-97.7027 446.974,-76.0425"/>
<polygon fill="midnightblue" stroke="midnightblue" points="447.903,-79.4254 457.005,-74.003 446.508,-72.5658 447.903,-79.4254"/>
</g>
<!-- Node28 -->
<g id="node28" class="node"><title>Node28</title>
<polygon fill="white" stroke="#bfbfbf" points="197.681,-56.5 197.681,-75.5 266.681,-75.5 266.681,-56.5 197.681,-56.5"/>
<text text-anchor="middle" x="232.181" y="-63.5" font-family="FreeSans" font-size="10.00">wx/msgdlg.h</text>
</g>
<!-- Node25&#45;&gt;Node28 -->
<g id="edge36" class="edge"><title>Node25&#45;&gt;Node28</title>
<path fill="none" stroke="midnightblue" d="M177.624,-112.324C187.327,-104.263 201.996,-92.0765 213.681,-82.3695"/>
<polygon fill="midnightblue" stroke="midnightblue" points="216.092,-84.9163 221.547,-75.8339 211.619,-79.532 216.092,-84.9163"/>
</g>
<!-- Node29 -->
<g id="node29" class="node"><title>Node29</title>
<polygon fill="white" stroke="#bfbfbf" points="285.181,-56.5 285.181,-75.5 353.181,-75.5 353.181,-56.5 285.181,-56.5"/>
<text text-anchor="middle" x="319.181" y="-63.5" font-family="FreeSans" font-size="10.00">wx/bitmap.h</text>
</g>
<!-- Node25&#45;&gt;Node29 -->
<g id="edge37" class="edge"><title>Node25&#45;&gt;Node29</title>
<path fill="none" stroke="midnightblue" d="M191.266,-112.444C216.725,-103.399 257.075,-89.064 285.64,-78.9158"/>
<polygon fill="midnightblue" stroke="midnightblue" points="286.957,-82.1622 295.209,-75.5164 284.614,-75.5661 286.957,-82.1622"/>
</g>
<!-- Node32&#45;&gt;Node11 -->
<g id="edge43" class="edge"><title>Node32&#45;&gt;Node11</title>
<path fill="none" stroke="midnightblue" d="M1075.75,-115.424C1122.81,-105.906 1218.9,-86.4723 1273.97,-75.3353"/>
<polygon fill="midnightblue" stroke="midnightblue" points="1274.97,-78.7032 1284.08,-73.2902 1273.58,-71.8421 1274.97,-78.7032"/>
</g>
<!-- Node32&#45;&gt;Node19 -->
<g id="edge44" class="edge"><title>Node32&#45;&gt;Node19</title>
<path fill="none" stroke="midnightblue" d="M1050.06,-112.162C1052.38,-99.243 1055.1,-74.7082 1047.18,-56 1042.17,-44.1592 1032.41,-33.7845 1023.27,-25.9898"/>
<polygon fill="midnightblue" stroke="midnightblue" points="1025.2,-23.0555 1015.19,-19.5888 1020.85,-28.5422 1025.2,-23.0555"/>
</g>
<!-- Node34&#45;&gt;Node14 -->
<g id="edge54" class="edge"><title>Node34&#45;&gt;Node14</title>
<path fill="none" stroke="midnightblue" d="M857.304,-168.444C878.205,-159.557 911.115,-145.563 934.897,-135.451"/>
<polygon fill="midnightblue" stroke="midnightblue" points="936.318,-138.65 944.151,-131.516 933.579,-132.208 936.318,-138.65"/>
</g>
<!-- Node34&#45;&gt;Node15 -->
<g id="edge49" class="edge"><title>Node34&#45;&gt;Node15</title>
<path fill="none" stroke="midnightblue" d="M842.35,-168.427C849.724,-154.966 861.026,-128.688 848.181,-112 810.042,-62.4523 772.5,-92.4648 712.181,-76 710.719,-75.6011 709.221,-75.1893 707.709,-74.7716"/>
<polygon fill="midnightblue" stroke="midnightblue" points="708.345,-71.3155 697.773,-72.0002 706.465,-78.0582 708.345,-71.3155"/>
</g>
<!-- Node34&#45;&gt;Node16 -->
<g id="edge48" class="edge"><title>Node34&#45;&gt;Node16</title>
<path fill="none" stroke="midnightblue" d="M821.778,-168.337C799.067,-155.636 755.176,-131.37 717.181,-112 695.081,-100.734 669.692,-88.628 650.875,-79.8134"/>
<polygon fill="midnightblue" stroke="midnightblue" points="652.228,-76.5826 641.686,-75.5258 649.268,-82.926 652.228,-76.5826"/>
</g>
<!-- Node34&#45;&gt;Node19 -->
<g id="edge53" class="edge"><title>Node34&#45;&gt;Node19</title>
<path fill="none" stroke="midnightblue" d="M846.193,-168.344C858.746,-155.225 878.53,-129.941 865.181,-112 830.048,-64.7811 707.323,-101.063 745.181,-56 772.574,-23.3933 898.376,-14.4088 963.246,-11.9365"/>
<polygon fill="midnightblue" stroke="midnightblue" points="963.613,-15.4259 973.485,-11.5811 963.37,-8.43012 963.613,-15.4259"/>
</g>
<!-- Node34&#45;&gt;Node25 -->
<g id="edge52" class="edge"><title>Node34&#45;&gt;Node25</title>
<path fill="none" stroke="midnightblue" d="M793.499,-174.342C665.318,-166.484 294.084,-143.282 204.338,-131.74"/>
<polygon fill="midnightblue" stroke="midnightblue" points="204.598,-128.242 194.203,-130.292 203.608,-135.171 204.598,-128.242"/>
</g>
<!-- Node34&#45;&gt;Node33 -->
<g id="edge50" class="edge"><title>Node34&#45;&gt;Node33</title>
<path fill="none" stroke="midnightblue" d="M814.522,-168.444C788.265,-158.528 745.175,-142.256 718.308,-132.111"/>
<polygon fill="midnightblue" stroke="midnightblue" points="719.466,-128.807 708.875,-128.549 716.993,-135.356 719.466,-128.807"/>
</g>
<!-- Node35 -->
<g id="node35" class="node"><title>Node35</title>
<polygon fill="white" stroke="#bfbfbf" points="765.181,-112.5 765.181,-131.5 839.181,-131.5 839.181,-112.5 765.181,-112.5"/>
<text text-anchor="middle" x="802.181" y="-119.5" font-family="FreeSans" font-size="10.00">wx/dynarray.h</text>
</g>
<!-- Node34&#45;&gt;Node35 -->
<g id="edge51" class="edge"><title>Node34&#45;&gt;Node35</title>
<path fill="none" stroke="midnightblue" d="M831.401,-168.083C826.508,-160.534 819.353,-149.495 813.348,-140.23"/>
<polygon fill="midnightblue" stroke="midnightblue" points="816.229,-138.239 807.853,-131.751 810.355,-142.046 816.229,-138.239"/>
</g>
<!-- Node36&#45;&gt;Node5 -->
<g id="edge68" class="edge"><title>Node36&#45;&gt;Node5</title>
<path fill="none" stroke="midnightblue" d="M1121.57,-226.25C1180.6,-211.248 1309,-168.868 1355.18,-76 1363.96,-58.3465 1349.02,-39.2553 1334.97,-26.3618"/>
<polygon fill="midnightblue" stroke="midnightblue" points="1336.86,-23.3756 1326.98,-19.5441 1332.32,-28.6992 1336.86,-23.3756"/>
</g>
<!-- Node36&#45;&gt;Node9 -->
<g id="edge58" class="edge"><title>Node36&#45;&gt;Node9</title>
<path fill="none" stroke="midnightblue" d="M1060.97,-231.279C936.548,-224.158 467.127,-196.945 401.181,-188 279.739,-171.528 242.607,-183.027 131.181,-132 94.0024,-114.974 76.2689,-112.673 58.1808,-76 49.0155,-57.4176 66.3483,-38.3145 82.2941,-25.6695"/>
<polygon fill="midnightblue" stroke="midnightblue" points="84.4156,-28.4537 90.3586,-19.6826 80.243,-22.8332 84.4156,-28.4537"/>
</g>
<!-- Node36&#45;&gt;Node11 -->
<g id="edge59" class="edge"><title>Node36&#45;&gt;Node11</title>
<path fill="none" stroke="midnightblue" d="M1111.39,-224.482C1129.95,-216.272 1157.88,-202.923 1180.18,-188 1228.13,-155.923 1276.62,-107.755 1300.3,-82.9785"/>
<polygon fill="midnightblue" stroke="midnightblue" points="1303.01,-85.2008 1307.34,-75.5298 1297.93,-80.3916 1303.01,-85.2008"/>
</g>
<!-- Node36&#45;&gt;Node14 -->
<g id="edge66" class="edge"><title>Node36&#45;&gt;Node14</title>
<path fill="none" stroke="midnightblue" d="M1087.11,-224.463C1080.36,-211.05 1065.76,-184.838 1047.18,-168 1032.15,-154.382 1012.27,-143.416 995.726,-135.72"/>
<polygon fill="midnightblue" stroke="midnightblue" points="996.994,-132.453 986.436,-131.571 994.139,-138.845 996.994,-132.453"/>
</g>
<!-- Node36&#45;&gt;Node17 -->
<g id="edge57" class="edge"><title>Node36&#45;&gt;Node17</title>
<path fill="none" stroke="midnightblue" d="M1097.93,-224.237C1104.25,-215.541 1113.41,-201.583 1118.18,-188 1137.57,-132.773 1141.41,-62.7661 1142.1,-29.7946"/>
<polygon fill="midnightblue" stroke="midnightblue" points="1145.6,-29.8062 1142.23,-19.7617 1138.6,-29.7155 1145.6,-29.8062"/>
</g>
<!-- Node36&#45;&gt;Node19 -->
<g id="edge60" class="edge"><title>Node36&#45;&gt;Node19</title>
<path fill="none" stroke="midnightblue" d="M1092.51,-224.181C1096.21,-196.334 1103.88,-108.988 1064.18,-56 1054.56,-43.152 1040.22,-32.4157 1027.76,-24.656"/>
<polygon fill="midnightblue" stroke="midnightblue" points="1029.5,-21.6196 1019.11,-19.5441 1025.94,-27.6456 1029.5,-21.6196"/>
</g>
<!-- Node36&#45;&gt;Node25 -->
<g id="edge61" class="edge"><title>Node36&#45;&gt;Node25</title>
<path fill="none" stroke="midnightblue" d="M1061.16,-231.206C980.147,-226.204 750.314,-210.94 560.181,-188 404,-169.157 362.274,-164.156 204.325,-132.092"/>
<polygon fill="midnightblue" stroke="midnightblue" points="204.746,-128.606 194.249,-130.042 203.35,-135.466 204.746,-128.606"/>
</g>
<!-- Node36&#45;&gt;Node34 -->
<g id="edge67" class="edge"><title>Node36&#45;&gt;Node34</title>
<path fill="none" stroke="midnightblue" d="M1061.05,-226.593C1018.17,-217.479 939.042,-200.655 887.268,-189.648"/>
<polygon fill="midnightblue" stroke="midnightblue" points="887.806,-186.185 877.296,-187.529 886.35,-193.032 887.806,-186.185"/>
</g>
<!-- Node37 -->
<g id="node37" class="node"><title>Node37</title>
<polygon fill="white" stroke="#bfbfbf" points="978.181,-168.5 978.181,-187.5 1038.18,-187.5 1038.18,-168.5 978.181,-168.5"/>
<text text-anchor="middle" x="1008.18" y="-175.5" font-family="FreeSans" font-size="10.00">wx/arrstr.h</text>
</g>
<!-- Node36&#45;&gt;Node37 -->
<g id="edge56" class="edge"><title>Node36&#45;&gt;Node37</title>
<path fill="none" stroke="midnightblue" d="M1077.85,-224.324C1065.02,-215.979 1045.4,-203.212 1030.24,-193.352"/>
<polygon fill="midnightblue" stroke="midnightblue" points="1031.77,-190.174 1021.48,-187.655 1027.96,-196.042 1031.77,-190.174"/>
</g>
<!-- Node38 -->
<g id="node38" class="node"><title>Node38</title>
<g id="a_node38"><a xlink:href="logger_8h" target="_top" xlink:title="logger.h">
<polygon fill="white" stroke="black" points="1186.18,-112.5 1186.18,-131.5 1236.18,-131.5 1236.18,-112.5 1186.18,-112.5"/>
<text text-anchor="middle" x="1211.18" y="-119.5" font-family="FreeSans" font-size="10.00">logger.h</text>
</a>
</g>
</g>
<!-- Node36&#45;&gt;Node38 -->
<g id="edge62" class="edge"><title>Node36&#45;&gt;Node38</title>
<path fill="none" stroke="midnightblue" d="M1105.93,-224.353C1119.66,-215.953 1140.33,-202.391 1156.18,-188 1172.52,-173.167 1188.51,-153.528 1199,-139.733"/>
<polygon fill="midnightblue" stroke="midnightblue" points="1201.87,-141.73 1205.04,-131.621 1196.26,-137.547 1201.87,-141.73"/>
</g>
<!-- Node38&#45;&gt;Node5 -->
<g id="edge63" class="edge"><title>Node38&#45;&gt;Node5</title>
<path fill="none" stroke="midnightblue" d="M1219.34,-112.368C1236.73,-93.9744 1277.67,-50.6712 1300,-27.0519"/>
<polygon fill="midnightblue" stroke="midnightblue" points="1302.73,-29.2625 1307.06,-19.5914 1297.64,-24.4534 1302.73,-29.2625"/>
</g>
<!-- Node38&#45;&gt;Node11 -->
<g id="edge64" class="edge"><title>Node38&#45;&gt;Node11</title>
<path fill="none" stroke="midnightblue" d="M1227.89,-112.324C1244.49,-103.703 1270.18,-90.3643 1289.4,-80.3855"/>
<polygon fill="midnightblue" stroke="midnightblue" points="1291.25,-83.3689 1298.51,-75.6545 1288.03,-77.1565 1291.25,-83.3689"/>
</g>
<!-- Node38&#45;&gt;Node19 -->
<g id="edge65" class="edge"><title>Node38&#45;&gt;Node19</title>
<path fill="none" stroke="midnightblue" d="M1200.57,-112.297C1183.84,-98.8912 1149.99,-72.9663 1118.18,-56 1092.83,-42.4783 1062.51,-30.8605 1039.23,-22.8179"/>
<polygon fill="midnightblue" stroke="midnightblue" points="1040.31,-19.4889 1029.72,-19.5948 1038.06,-26.1187 1040.31,-19.4889"/>
</g>
<!-- Node39&#45;&gt;Node11 -->
<g id="edge72" class="edge"><title>Node39&#45;&gt;Node11</title>
<path fill="none" stroke="midnightblue" d="M1254.65,-280.297C1263.94,-247.563 1296.91,-131.375 1309.88,-85.6664"/>
<polygon fill="midnightblue" stroke="midnightblue" points="1313.3,-86.4594 1312.66,-75.8837 1306.56,-84.5483 1313.3,-86.4594"/>
</g>
<!-- Node39&#45;&gt;Node19 -->
<g id="edge70" class="edge"><title>Node39&#45;&gt;Node19</title>
<path fill="none" stroke="midnightblue" d="M1262.03,-280.361C1298.31,-247.528 1419.19,-128.691 1355.18,-56 1344.86,-44.2787 1130.53,-22.9921 1040.98,-14.569"/>
<polygon fill="midnightblue" stroke="midnightblue" points="1041.23,-11.0774 1030.94,-13.6304 1040.58,-18.0469 1041.23,-11.0774"/>
</g>
<!-- Node40 -->
<g id="node40" class="node"><title>Node40</title>
<g id="a_node40"><a xlink:href="scrollingdialog_8h" target="_top" xlink:title="scrollingdialog.h">
<polygon fill="white" stroke="red" points="1439.68,-224.5 1439.68,-243.5 1524.68,-243.5 1524.68,-224.5 1439.68,-224.5"/>
<text text-anchor="middle" x="1482.18" y="-231.5" font-family="FreeSans" font-size="10.00">scrollingdialog.h</text>
</a>
</g>
</g>
<!-- Node39&#45;&gt;Node40 -->
<g id="edge71" class="edge"><title>Node39&#45;&gt;Node40</title>
<path fill="none" stroke="midnightblue" d="M1288.62,-280.444C1328.58,-271.063 1392.77,-255.993 1436.17,-245.804"/>
<polygon fill="midnightblue" stroke="midnightblue" points="1436.97,-249.21 1445.91,-243.516 1435.37,-242.395 1436.97,-249.21"/>
</g>
<!-- Node41 -->
<g id="node41" class="node"><title>Node41</title>
<polygon fill="white" stroke="#bfbfbf" points="1353.18,-224.5 1353.18,-243.5 1421.18,-243.5 1421.18,-224.5 1353.18,-224.5"/>
<text text-anchor="middle" x="1387.18" y="-231.5" font-family="FreeSans" font-size="10.00">wx/artprov.h</text>
</g>
<!-- Node39&#45;&gt;Node41 -->
<g id="edge73" class="edge"><title>Node39&#45;&gt;Node41</title>
<path fill="none" stroke="midnightblue" d="M1273.57,-280.444C1295.89,-271.517 1331.08,-257.439 1356.39,-247.317"/>
<polygon fill="midnightblue" stroke="midnightblue" points="1357.9,-250.48 1365.89,-243.516 1355.31,-243.981 1357.9,-250.48"/>
</g>
<!-- Node42&#45;&gt;Node14 -->
<g id="edge75" class="edge"><title>Node42&#45;&gt;Node14</title>
<path fill="none" stroke="midnightblue" d="M1063.27,-280.41C1038.66,-265.308 990.17,-231.438 969.181,-188 962.179,-173.51 961.413,-155.064 962.115,-141.527"/>
<polygon fill="midnightblue" stroke="midnightblue" points="965.608,-141.76 962.946,-131.504 958.632,-141.181 965.608,-141.76"/>
</g>
<!-- Node42&#45;&gt;Node36 -->
<g id="edge77" class="edge"><title>Node42&#45;&gt;Node36</title>
<path fill="none" stroke="midnightblue" d="M1080.33,-280.083C1082.05,-272.927 1084.53,-262.635 1086.68,-253.691"/>
<polygon fill="midnightblue" stroke="midnightblue" points="1090.14,-254.293 1089.07,-243.751 1083.33,-252.654 1090.14,-254.293"/>
</g>
<!-- Node43 -->
<g id="node43" class="node"><title>Node43</title>
<polygon fill="white" stroke="#bfbfbf" points="865.181,-224.5 865.181,-243.5 925.181,-243.5 925.181,-224.5 865.181,-224.5"/>
<text text-anchor="middle" x="895.181" y="-231.5" font-family="FreeSans" font-size="10.00">wx/timer.h</text>
</g>
<!-- Node42&#45;&gt;Node43 -->
<g id="edge76" class="edge"><title>Node42&#45;&gt;Node43</title>
<path fill="none" stroke="midnightblue" d="M1049.18,-280.444C1018,-271.241 968.251,-256.562 933.773,-246.388"/>
<polygon fill="midnightblue" stroke="midnightblue" points="934.624,-242.99 924.042,-243.516 932.643,-249.704 934.624,-242.99"/>
</g>
<!-- Node50&#45;&gt;Node40 -->
<g id="edge85" class="edge"><title>Node50&#45;&gt;Node40</title>
<path fill="none" stroke="midnightblue" d="M1392.37,-280.324C1409.53,-271.664 1436.13,-258.242 1455.93,-248.249"/>
<polygon fill="midnightblue" stroke="midnightblue" points="1457.68,-251.285 1465.03,-243.655 1454.53,-245.035 1457.68,-251.285"/>
</g>
<!-- Node50&#45;&gt;Node46 -->
<g id="edge86" class="edge"><title>Node50&#45;&gt;Node46</title>
<path fill="none" stroke="midnightblue" d="M1409.09,-280.444C1446.03,-271.122 1505.23,-256.183 1545.6,-245.997"/>
<polygon fill="midnightblue" stroke="midnightblue" points="1546.59,-249.357 1555.43,-243.516 1544.88,-242.57 1546.59,-249.357"/>
</g>
</g>
</svg>
