<?xml version="1.0" encoding="UTF-8" standalone="no"?>
<!DOCTYPE svg PUBLIC "-//W3C//DTD SVG 1.1//EN"
 "http://www.w3.org/Graphics/SVG/1.1/DTD/svg11.dtd">
<!-- Generated by graphviz version 2.38.0 (20140413.2041)
 -->
<!-- Title: printdlg.h Pages: 1 -->
<svg width="311pt" height="140pt"
 viewBox="0.00 0.00 310.50 140.00" xmlns="http://www.w3.org/2000/svg" xmlns:xlink="http://www.w3.org/1999/xlink">
<g id="graph0" class="graph" transform="scale(1 1) rotate(0) translate(4 136)">
<title>printdlg.h</title>
<!-- Node1 -->
<g id="node1" class="node"><title>Node1</title>
<polygon fill="#bfbfbf" stroke="black" points="140,-112.5 140,-131.5 196,-131.5 196,-112.5 140,-112.5"/>
<text text-anchor="middle" x="168" y="-119.5" font-family="FreeSans" font-size="10.00">printdlg.h</text>
</g>
<!-- Node2 -->
<g id="node2" class="node"><title>Node2</title>
<g id="a_node2"><a xlink:href="scrollingdialog_8h" target="_top" xlink:title="scrollingdialog.h">
<polygon fill="none" stroke="black" points="74.5,-56.5 74.5,-75.5 159.5,-75.5 159.5,-56.5 74.5,-56.5"/>
<text text-anchor="middle" x="117" y="-63.5" font-family="FreeSans" font-size="10.00">scrollingdialog.h</text>
</a>
</g>
</g>
<!-- Node1&#45;&gt;Node2 -->
<g id="edge1" class="edge"><title>Node1&#45;&gt;Node2</title>
<path fill="none" stroke="midnightblue" d="M159.578,-112.083C152.152,-104.22 141.148,-92.5688 132.188,-83.0813"/>
<polygon fill="midnightblue" stroke="midnightblue" points="134.676,-80.618 125.265,-75.7511 129.587,-85.4244 134.676,-80.618"/>
</g>
<!-- Node6 -->
<g id="node6" class="node"><title>Node6</title>
<g id="a_node6"><a xlink:href="printing__types_8h" target="_top" xlink:title="printing_types.h">
<polygon fill="none" stroke="black" points="177.5,-56.5 177.5,-75.5 260.5,-75.5 260.5,-56.5 177.5,-56.5"/>
<text text-anchor="middle" x="219" y="-63.5" font-family="FreeSans" font-size="10.00">printing_types.h</text>
</a>
</g>
</g>
<!-- Node1&#45;&gt;Node6 -->
<g id="edge5" class="edge"><title>Node1&#45;&gt;Node6</title>
<path fill="none" stroke="midnightblue" d="M176.422,-112.083C183.848,-104.22 194.852,-92.5688 203.812,-83.0813"/>
<polygon fill="midnightblue" stroke="midnightblue" points="206.413,-85.4244 210.735,-75.7511 201.324,-80.618 206.413,-85.4244"/>
</g>
<!-- Node3 -->
<g id="node3" class="node"><title>Node3</title>
<polygon fill="none" stroke="#bfbfbf" points="0,-0.5 0,-19.5 64,-19.5 64,-0.5 0,-0.5"/>
<text text-anchor="middle" x="32" y="-7.5" font-family="FreeSans" font-size="10.00">wx/dialog.h</text>
</g>
<!-- Node2&#45;&gt;Node3 -->
<g id="edge2" class="edge"><title>Node2&#45;&gt;Node3</title>
<path fill="none" stroke="midnightblue" d="M103.343,-56.324C90.0837,-47.9002 69.732,-34.9709 54.1538,-25.0741"/>
<polygon fill="midnightblue" stroke="midnightblue" points="55.9404,-22.0626 45.6228,-19.6545 52.1867,-27.9711 55.9404,-22.0626"/>
</g>
<!-- Node4 -->
<g id="node4" class="node"><title>Node4</title>
<polygon fill="none" stroke="#bfbfbf" points="82,-0.5 82,-19.5 152,-19.5 152,-0.5 82,-0.5"/>
<text text-anchor="middle" x="117" y="-7.5" font-family="FreeSans" font-size="10.00">wx/propdlg.h</text>
</g>
<!-- Node2&#45;&gt;Node4 -->
<g id="edge3" class="edge"><title>Node2&#45;&gt;Node4</title>
<path fill="none" stroke="midnightblue" d="M117,-56.083C117,-49.0059 117,-38.8611 117,-29.9865"/>
<polygon fill="midnightblue" stroke="midnightblue" points="120.5,-29.751 117,-19.7511 113.5,-29.7511 120.5,-29.751"/>
</g>
<!-- Node5 -->
<g id="node5" class="node"><title>Node5</title>
<g id="a_node5"><a xlink:href="settings_8h" target="_top" xlink:title="settings.h">
<polygon fill="none" stroke="black" points="170.5,-0.5 170.5,-19.5 227.5,-19.5 227.5,-0.5 170.5,-0.5"/>
<text text-anchor="middle" x="199" y="-7.5" font-family="FreeSans" font-size="10.00">settings.h</text>
</a>
</g>
</g>
<!-- Node2&#45;&gt;Node5 -->
<g id="edge4" class="edge"><title>Node2&#45;&gt;Node5</title>
<path fill="none" stroke="midnightblue" d="M130.175,-56.324C142.847,-47.979 162.233,-35.2122 177.206,-25.3524"/>
<polygon fill="midnightblue" stroke="midnightblue" points="179.431,-28.0776 185.858,-19.6545 175.581,-22.2313 179.431,-28.0776"/>
</g>
<!-- Node6&#45;&gt;Node5 -->
<g id="edge6" class="edge"><title>Node6&#45;&gt;Node5</title>
<path fill="none" stroke="midnightblue" d="M215.697,-56.083C213.018,-48.8486 209.151,-38.4087 205.814,-29.3968"/>
<polygon fill="midnightblue" stroke="midnightblue" points="208.996,-27.9129 202.241,-19.7511 202.432,-30.3442 208.996,-27.9129"/>
</g>
<!-- Node7 -->
<g id="node7" class="node"><title>Node7</title>
<polygon fill="none" stroke="#bfbfbf" points="245.5,-0.5 245.5,-19.5 302.5,-19.5 302.5,-0.5 245.5,-0.5"/>
<text text-anchor="middle" x="274" y="-7.5" font-family="FreeSans" font-size="10.00">wx/print.h</text>
</g>
<!-- Node6&#45;&gt;Node7 -->
<g id="edge7" class="edge"><title>Node6&#45;&gt;Node7</title>
<path fill="none" stroke="midnightblue" d="M228.082,-56.083C236.171,-48.1409 248.195,-36.3354 257.91,-26.7973"/>
<polygon fill="midnightblue" stroke="midnightblue" points="260.403,-29.2545 265.087,-19.7511 255.499,-24.2595 260.403,-29.2545"/>
</g>
</g>
</svg>
