<?xml version="1.0" encoding="UTF-8" standalone="no"?>
<!DOCTYPE svg PUBLIC "-//W3C//DTD SVG 1.1//EN"
 "http://www.w3.org/Graphics/SVG/1.1/DTD/svg11.dtd">
<!-- Generated by graphviz version 2.38.0 (20140413.2041)
 -->
<!-- Title: printdlg.cpp Pages: 1 -->
<svg width="2028pt" height="308pt"
 viewBox="0.00 0.00 2028.00 308.00" xmlns="http://www.w3.org/2000/svg" xmlns:xlink="http://www.w3.org/1999/xlink">
<g id="graph0" class="graph" transform="scale(1 1) rotate(0) translate(4 304)">
<title>printdlg.cpp</title>
<polygon fill="white" stroke="none" points="-4,4 -4,-304 2024,-304 2024,4 -4,4"/>
<!-- Node1 -->
<g id="node1" class="node"><title>Node1</title>
<polygon fill="#bfbfbf" stroke="black" points="653,-280.5 653,-299.5 719,-299.5 719,-280.5 653,-280.5"/>
<text text-anchor="middle" x="686" y="-287.5" font-family="FreeSans" font-size="10.00">printdlg.cpp</text>
</g>
<!-- Node2 -->
<g id="node2" class="node"><title>Node2</title>
<g id="a_node2"><a xlink:href="sdk_8h.xhtml" target="_top" xlink:title="sdk.h">
<polygon fill="white" stroke="black" points="77.5,-224.5 77.5,-243.5 116.5,-243.5 116.5,-224.5 77.5,-224.5"/>
<text text-anchor="middle" x="97" y="-231.5" font-family="FreeSans" font-size="10.00">sdk.h</text>
</a>
</g>
</g>
<!-- Node1&#45;&gt;Node2 -->
<g id="edge1" class="edge"><title>Node1&#45;&gt;Node2</title>
<path fill="none" stroke="midnightblue" d="M652.835,-288.876C567.082,-288.018 331.058,-282.246 126.529,-243.619"/>
<polygon fill="midnightblue" stroke="midnightblue" points="126.987,-240.143 116.506,-241.695 125.667,-247.018 126.987,-240.143"/>
</g>
<!-- Node6 -->
<g id="node6" class="node"><title>Node6</title>
<polygon fill="white" stroke="#bfbfbf" points="494.5,-0.5 494.5,-19.5 545.5,-19.5 545.5,-0.5 494.5,-0.5"/>
<text text-anchor="middle" x="520" y="-7.5" font-family="FreeSans" font-size="10.00">wx/intl.h</text>
</g>
<!-- Node1&#45;&gt;Node6 -->
<g id="edge5" class="edge"><title>Node1&#45;&gt;Node6</title>
<path fill="none" stroke="midnightblue" d="M652.822,-283.143C554.71,-265.064 269.651,-206.813 219,-132 214.017,-124.639 213.81,-119.216 219,-112 235.023,-89.7229 408.246,-40.9903 484.413,-20.4393"/>
<polygon fill="midnightblue" stroke="midnightblue" points="485.741,-23.7068 494.49,-17.7321 483.924,-16.9465 485.741,-23.7068"/>
</g>
<!-- Node7 -->
<g id="node7" class="node"><title>Node7</title>
<polygon fill="white" stroke="#bfbfbf" points="135,-224.5 135,-243.5 215,-243.5 215,-224.5 135,-224.5"/>
<text text-anchor="middle" x="175" y="-231.5" font-family="FreeSans" font-size="10.00">wx/checkbox.h</text>
</g>
<!-- Node1&#45;&gt;Node7 -->
<g id="edge6" class="edge"><title>Node1&#45;&gt;Node7</title>
<path fill="none" stroke="midnightblue" d="M652.834,-286.737C578.26,-281.442 391.497,-267.025 224.992,-244.029"/>
<polygon fill="midnightblue" stroke="midnightblue" points="225.454,-240.559 215.067,-242.644 224.487,-247.492 225.454,-240.559"/>
</g>
<!-- Node8 -->
<g id="node8" class="node"><title>Node8</title>
<polygon fill="white" stroke="#bfbfbf" points="233,-224.5 233,-243.5 307,-243.5 307,-224.5 233,-224.5"/>
<text text-anchor="middle" x="270" y="-231.5" font-family="FreeSans" font-size="10.00">wx/radiobox.h</text>
</g>
<!-- Node1&#45;&gt;Node8 -->
<g id="edge7" class="edge"><title>Node1&#45;&gt;Node8</title>
<path fill="none" stroke="midnightblue" d="M652.706,-285.482C588.438,-278.561 442.867,-262.253 321,-244 319.725,-243.809 318.432,-243.611 317.128,-243.408"/>
<polygon fill="midnightblue" stroke="midnightblue" points="317.442,-239.913 307.01,-241.764 316.32,-246.822 317.442,-239.913"/>
</g>
<!-- Node9 -->
<g id="node9" class="node"><title>Node9</title>
<polygon fill="white" stroke="#bfbfbf" points="168,-0.5 168,-19.5 230,-19.5 230,-0.5 168,-0.5"/>
<text text-anchor="middle" x="199" y="-7.5" font-family="FreeSans" font-size="10.00">wx/string.h</text>
</g>
<!-- Node1&#45;&gt;Node9 -->
<g id="edge8" class="edge"><title>Node1&#45;&gt;Node9</title>
<path fill="none" stroke="midnightblue" d="M652.839,-289.504C540.298,-290.767 174.067,-291.083 68,-244 29.7871,-227.037 0,-220.808 0,-179 0,-179 0,-179 0,-121 0,-49.5001 99.6162,-24.1111 157.888,-15.376"/>
<polygon fill="midnightblue" stroke="midnightblue" points="158.487,-18.8264 167.906,-13.9763 157.518,-11.8937 158.487,-18.8264"/>
</g>
<!-- Node10 -->
<g id="node10" class="node"><title>Node10</title>
<polygon fill="white" stroke="#bfbfbf" points="611,-224.5 611,-243.5 693,-243.5 693,-224.5 611,-224.5"/>
<text text-anchor="middle" x="652" y="-231.5" font-family="FreeSans" font-size="10.00">wx/xrc/xmlres.h</text>
</g>
<!-- Node1&#45;&gt;Node10 -->
<g id="edge9" class="edge"><title>Node1&#45;&gt;Node10</title>
<path fill="none" stroke="midnightblue" d="M680.386,-280.083C675.633,-272.534 668.682,-261.495 662.848,-252.23"/>
<polygon fill="midnightblue" stroke="midnightblue" points="665.8,-250.349 657.51,-243.751 659.876,-254.078 665.8,-250.349"/>
</g>
<!-- Node11 -->
<g id="node11" class="node"><title>Node11</title>
<g id="a_node11"><a xlink:href="cbeditor_8h.xhtml" target="_top" xlink:title="cbeditor.h">
<polygon fill="white" stroke="black" points="756.5,-224.5 756.5,-243.5 815.5,-243.5 815.5,-224.5 756.5,-224.5"/>
<text text-anchor="middle" x="786" y="-231.5" font-family="FreeSans" font-size="10.00">cbeditor.h</text>
</a>
</g>
</g>
<!-- Node1&#45;&gt;Node11 -->
<g id="edge10" class="edge"><title>Node1&#45;&gt;Node11</title>
<path fill="none" stroke="midnightblue" d="M702.067,-280.324C717.958,-271.743 742.507,-258.486 760.958,-248.522"/>
<polygon fill="midnightblue" stroke="midnightblue" points="762.837,-251.486 769.973,-243.655 759.511,-245.326 762.837,-251.486"/>
</g>
<!-- Node31 -->
<g id="node31" class="node"><title>Node31</title>
<g id="a_node31"><a xlink:href="configmanager_8h.xhtml" target="_top" xlink:title="configmanager.h">
<polygon fill="white" stroke="black" points="1426.5,-168.5 1426.5,-187.5 1513.5,-187.5 1513.5,-168.5 1426.5,-168.5"/>
<text text-anchor="middle" x="1470" y="-175.5" font-family="FreeSans" font-size="10.00">configmanager.h</text>
</a>
</g>
</g>
<!-- Node1&#45;&gt;Node31 -->
<g id="edge39" class="edge"><title>Node1&#45;&gt;Node31</title>
<path fill="none" stroke="midnightblue" d="M719.187,-284.344C841.126,-267.235 1265.13,-207.744 1416.11,-186.561"/>
<polygon fill="midnightblue" stroke="midnightblue" points="1416.66,-190.018 1426.08,-185.163 1415.69,-183.086 1416.66,-190.018"/>
</g>
<!-- Node35 -->
<g id="node35" class="node"><title>Node35</title>
<g id="a_node35"><a xlink:href="manager_8h.xhtml" target="_top" xlink:title="manager.h">
<polygon fill="white" stroke="black" points="1742,-112.5 1742,-131.5 1804,-131.5 1804,-112.5 1742,-112.5"/>
<text text-anchor="middle" x="1773" y="-119.5" font-family="FreeSans" font-size="10.00">manager.h</text>
</a>
</g>
</g>
<!-- Node1&#45;&gt;Node35 -->
<g id="edge75" class="edge"><title>Node1&#45;&gt;Node35</title>
<path fill="none" stroke="midnightblue" d="M719.363,-286.702C832.797,-278.524 1213.72,-248.054 1523,-188 1599.04,-173.236 1686.27,-148.807 1734.98,-134.475"/>
<polygon fill="midnightblue" stroke="midnightblue" points="1736.18,-137.771 1744.77,-131.577 1734.19,-131.059 1736.18,-137.771"/>
</g>
<!-- Node44 -->
<g id="node44" class="node"><title>Node44</title>
<g id="a_node44"><a xlink:href="editormanager_8h.xhtml" target="_top" xlink:title="editormanager.h">
<polygon fill="white" stroke="black" points="678,-168.5 678,-187.5 764,-187.5 764,-168.5 678,-168.5"/>
<text text-anchor="middle" x="721" y="-175.5" font-family="FreeSans" font-size="10.00">editormanager.h</text>
</a>
</g>
</g>
<!-- Node1&#45;&gt;Node44 -->
<g id="edge64" class="edge"><title>Node1&#45;&gt;Node44</title>
<path fill="none" stroke="midnightblue" d="M689.215,-280.423C692.555,-271.406 697.864,-256.78 702,-244 707.034,-228.445 712.206,-210.609 715.88,-197.56"/>
<polygon fill="midnightblue" stroke="midnightblue" points="719.264,-198.453 718.578,-187.88 712.521,-196.573 719.264,-198.453"/>
</g>
<!-- Node46 -->
<g id="node46" class="node"><title>Node46</title>
<g id="a_node46"><a xlink:href="cbstyledtextctrl_8h.xhtml" target="_top" xlink:title="cbstyledtextctrl.h">
<polygon fill="white" stroke="black" points="1830.5,-168.5 1830.5,-187.5 1919.5,-187.5 1919.5,-168.5 1830.5,-168.5"/>
<text text-anchor="middle" x="1875" y="-175.5" font-family="FreeSans" font-size="10.00">cbstyledtextctrl.h</text>
</a>
</g>
</g>
<!-- Node1&#45;&gt;Node46 -->
<g id="edge76" class="edge"><title>Node1&#45;&gt;Node46</title>
<path fill="none" stroke="midnightblue" d="M719.477,-288.649C869.677,-286.895 1482.27,-277.769 1671,-244 1734.45,-232.647 1805.54,-206.851 1844.81,-191.387"/>
<polygon fill="midnightblue" stroke="midnightblue" points="1846.32,-194.553 1854.32,-187.6 1843.73,-188.05 1846.32,-194.553"/>
</g>
<!-- Node49 -->
<g id="node49" class="node"><title>Node49</title>
<g id="a_node49"><a xlink:href="printdlg_8h.xhtml" target="_top" xlink:title="printdlg.h">
<polygon fill="white" stroke="black" points="990,-168.5 990,-187.5 1046,-187.5 1046,-168.5 990,-168.5"/>
<text text-anchor="middle" x="1018" y="-175.5" font-family="FreeSans" font-size="10.00">printdlg.h</text>
</a>
</g>
</g>
<!-- Node1&#45;&gt;Node49 -->
<g id="edge83" class="edge"><title>Node1&#45;&gt;Node49</title>
<path fill="none" stroke="midnightblue" d="M712.476,-280.437C740.273,-271.43 785.239,-256.813 824,-244 879.572,-225.63 943.978,-203.979 982.823,-190.881"/>
<polygon fill="midnightblue" stroke="midnightblue" points="984.243,-194.096 992.6,-187.583 982.006,-187.463 984.243,-194.096"/>
</g>
<!-- Node3 -->
<g id="node3" class="node"><title>Node3</title>
<g id="a_node3"><a xlink:href="sdk__common_8h.xhtml" target="_top" xlink:title="sdk_common.h">
<polygon fill="white" stroke="black" points="56,-168.5 56,-187.5 138,-187.5 138,-168.5 56,-168.5"/>
<text text-anchor="middle" x="97" y="-175.5" font-family="FreeSans" font-size="10.00">sdk_common.h</text>
</a>
</g>
</g>
<!-- Node2&#45;&gt;Node3 -->
<g id="edge2" class="edge"><title>Node2&#45;&gt;Node3</title>
<path fill="none" stroke="midnightblue" d="M97,-224.083C97,-217.006 97,-206.861 97,-197.986"/>
<polygon fill="midnightblue" stroke="midnightblue" points="100.5,-197.751 97,-187.751 93.5001,-197.751 100.5,-197.751"/>
</g>
<!-- Node4 -->
<g id="node4" class="node"><title>Node4</title>
<polygon fill="white" stroke="#bfbfbf" points="28,-112.5 28,-131.5 96,-131.5 96,-112.5 28,-112.5"/>
<text text-anchor="middle" x="62" y="-119.5" font-family="FreeSans" font-size="10.00">wx/wxprec.h</text>
</g>
<!-- Node3&#45;&gt;Node4 -->
<g id="edge3" class="edge"><title>Node3&#45;&gt;Node4</title>
<path fill="none" stroke="midnightblue" d="M91.2205,-168.083C86.3276,-160.534 79.1726,-149.495 73.1674,-140.23"/>
<polygon fill="midnightblue" stroke="midnightblue" points="76.048,-138.239 67.672,-131.751 70.174,-142.046 76.048,-138.239"/>
</g>
<!-- Node5 -->
<g id="node5" class="node"><title>Node5</title>
<g id="a_node5"><a xlink:href="prep_8h.xhtml" target="_top" xlink:title="prep.h">
<polygon fill="white" stroke="black" points="273.5,-0.5 273.5,-19.5 316.5,-19.5 316.5,-0.5 273.5,-0.5"/>
<text text-anchor="middle" x="295" y="-7.5" font-family="FreeSans" font-size="10.00">prep.h</text>
</a>
</g>
</g>
<!-- Node3&#45;&gt;Node5 -->
<g id="edge4" class="edge"><title>Node3&#45;&gt;Node5</title>
<path fill="none" stroke="midnightblue" d="M101.177,-168.43C112.155,-146.719 143.902,-88.9483 186,-56 209.032,-37.974 240.302,-26.053 263.444,-19.0368"/>
<polygon fill="midnightblue" stroke="midnightblue" points="264.493,-22.3768 273.13,-16.2404 262.552,-15.6514 264.493,-22.3768"/>
</g>
<!-- Node12 -->
<g id="node12" class="node"><title>Node12</title>
<polygon fill="white" stroke="#bfbfbf" points="560.5,-112.5 560.5,-131.5 637.5,-131.5 637.5,-112.5 560.5,-112.5"/>
<text text-anchor="middle" x="599" y="-119.5" font-family="FreeSans" font-size="10.00">wx/hashmap.h</text>
</g>
<!-- Node11&#45;&gt;Node12 -->
<g id="edge11" class="edge"><title>Node11&#45;&gt;Node12</title>
<path fill="none" stroke="midnightblue" d="M756.186,-224.983C731.633,-217.592 696.512,-205.164 669,-188 647.358,-174.498 626.452,-153.756 613.211,-139.348"/>
<polygon fill="midnightblue" stroke="midnightblue" points="615.635,-136.809 606.353,-131.7 610.423,-141.482 615.635,-136.809"/>
</g>
<!-- Node13 -->
<g id="node13" class="node"><title>Node13</title>
<polygon fill="white" stroke="#bfbfbf" points="820,-168.5 820,-187.5 896,-187.5 896,-168.5 820,-168.5"/>
<text text-anchor="middle" x="858" y="-175.5" font-family="FreeSans" font-size="10.00">wx/datetime.h</text>
</g>
<!-- Node11&#45;&gt;Node13 -->
<g id="edge12" class="edge"><title>Node11&#45;&gt;Node13</title>
<path fill="none" stroke="midnightblue" d="M797.568,-224.324C808.42,-216.185 824.881,-203.839 837.883,-194.087"/>
<polygon fill="midnightblue" stroke="midnightblue" points="840.321,-196.634 846.221,-187.834 836.121,-191.034 840.321,-196.634"/>
</g>
<!-- Node14 -->
<g id="node14" class="node"><title>Node14</title>
<polygon fill="white" stroke="#bfbfbf" points="368,-168.5 368,-187.5 442,-187.5 442,-168.5 368,-168.5"/>
<text text-anchor="middle" x="405" y="-175.5" font-family="FreeSans" font-size="10.00">wx/fontmap.h</text>
</g>
<!-- Node11&#45;&gt;Node14 -->
<g id="edge13" class="edge"><title>Node11&#45;&gt;Node14</title>
<path fill="none" stroke="midnightblue" d="M756.335,-229.618C699.393,-222.997 570.624,-207.4 452.093,-188.097"/>
<polygon fill="midnightblue" stroke="midnightblue" points="452.558,-184.627 442.123,-186.46 451.424,-191.534 452.558,-184.627"/>
</g>
<!-- Node15 -->
<g id="node15" class="node"><title>Node15</title>
<polygon fill="white" stroke="#bfbfbf" points="1370,-56.5 1370,-75.5 1430,-75.5 1430,-56.5 1370,-56.5"/>
<text text-anchor="middle" x="1400" y="-63.5" font-family="FreeSans" font-size="10.00">wx/timer.h</text>
</g>
<!-- Node11&#45;&gt;Node15 -->
<g id="edge14" class="edge"><title>Node11&#45;&gt;Node15</title>
<path fill="none" stroke="midnightblue" d="M786.658,-224.244C788.228,-210.031 793.492,-182.114 811,-168 892.579,-102.238 944.325,-164.322 1044,-132 1062.53,-125.991 1064.43,-117.895 1083,-112 1179.41,-81.3901 1298.93,-71.5595 1359.99,-68.4336"/>
<polygon fill="midnightblue" stroke="midnightblue" points="1360.17,-71.9294 1369.99,-67.9557 1359.83,-64.9374 1360.17,-71.9294"/>
</g>
<!-- Node16 -->
<g id="node16" class="node"><title>Node16</title>
<g id="a_node16"><a xlink:href="settings_8h.xhtml" target="_top" xlink:title="settings.h">
<polygon fill="white" stroke="black" points="1015.5,-0.5 1015.5,-19.5 1072.5,-19.5 1072.5,-0.5 1015.5,-0.5"/>
<text text-anchor="middle" x="1044" y="-7.5" font-family="FreeSans" font-size="10.00">settings.h</text>
</a>
</g>
</g>
<!-- Node11&#45;&gt;Node16 -->
<g id="edge15" class="edge"><title>Node11&#45;&gt;Node16</title>
<path fill="none" stroke="midnightblue" d="M815.633,-224.965C846.588,-216.035 892.374,-201.139 905,-188 947.849,-143.411 907.988,-102.284 949,-56 963.91,-39.1739 986.468,-28.1213 1005.86,-21.182"/>
<polygon fill="midnightblue" stroke="midnightblue" points="1006.99,-24.4951 1015.37,-18.009 1004.77,-17.8551 1006.99,-24.4951"/>
</g>
<!-- Node17 -->
<g id="node17" class="node"><title>Node17</title>
<g id="a_node17"><a xlink:href="editorbase_8h.xhtml" target="_top" xlink:title="editorbase.h">
<polygon fill="white" stroke="black" points="460,-168.5 460,-187.5 528,-187.5 528,-168.5 460,-168.5"/>
<text text-anchor="middle" x="494" y="-175.5" font-family="FreeSans" font-size="10.00">editorbase.h</text>
</a>
</g>
</g>
<!-- Node11&#45;&gt;Node17 -->
<g id="edge16" class="edge"><title>Node11&#45;&gt;Node17</title>
<path fill="none" stroke="midnightblue" d="M756.395,-227.525C704.86,-217.995 598.421,-198.311 538.144,-187.164"/>
<polygon fill="midnightblue" stroke="midnightblue" points="538.636,-183.695 528.166,-185.318 537.363,-190.579 538.636,-183.695"/>
</g>
<!-- Node29 -->
<g id="node29" class="node"><title>Node29</title>
<g id="a_node29"><a xlink:href="printing__types_8h.xhtml" target="_top" xlink:title="printing_types.h">
<polygon fill="white" stroke="black" points="952.5,-112.5 952.5,-131.5 1035.5,-131.5 1035.5,-112.5 952.5,-112.5"/>
<text text-anchor="middle" x="994" y="-119.5" font-family="FreeSans" font-size="10.00">printing_types.h</text>
</a>
</g>
</g>
<!-- Node11&#45;&gt;Node29 -->
<g id="edge36" class="edge"><title>Node11&#45;&gt;Node29</title>
<path fill="none" stroke="midnightblue" d="M815.507,-229.327C847.742,-224.217 899.861,-212.647 938,-188 957.088,-175.664 973.315,-154.943 983.311,-140.214"/>
<polygon fill="midnightblue" stroke="midnightblue" points="986.429,-141.84 988.948,-131.549 980.561,-138.023 986.429,-141.84"/>
</g>
<!-- Node17&#45;&gt;Node5 -->
<g id="edge17" class="edge"><title>Node17&#45;&gt;Node5</title>
<path fill="none" stroke="midnightblue" d="M459.764,-169.666C456.804,-169.083 453.851,-168.519 451,-168 399.672,-158.653 252.946,-171.619 219,-132 189.198,-97.2172 241.921,-49.664 273.63,-25.8559"/>
<polygon fill="midnightblue" stroke="midnightblue" points="275.914,-28.522 281.93,-19.8008 271.788,-22.8669 275.914,-28.522"/>
</g>
<!-- Node17&#45;&gt;Node12 -->
<g id="edge18" class="edge"><title>Node17&#45;&gt;Node12</title>
<path fill="none" stroke="midnightblue" d="M510.87,-168.324C527.709,-159.664 553.807,-146.242 573.238,-136.249"/>
<polygon fill="midnightblue" stroke="midnightblue" points="574.88,-139.341 582.172,-131.655 571.678,-133.116 574.88,-139.341"/>
</g>
<!-- Node17&#45;&gt;Node16 -->
<g id="edge31" class="edge"><title>Node17&#45;&gt;Node16</title>
<path fill="none" stroke="midnightblue" d="M499.041,-168.225C507.71,-153.985 526.864,-126.028 551,-112 553.5,-110.547 889.498,-42.328 1005.3,-18.8443"/>
<polygon fill="midnightblue" stroke="midnightblue" points="1006.06,-22.2608 1015.17,-16.8433 1004.67,-15.4004 1006.06,-22.2608"/>
</g>
<!-- Node18 -->
<g id="node18" class="node"><title>Node18</title>
<polygon fill="white" stroke="#bfbfbf" points="308.5,-112.5 308.5,-131.5 371.5,-131.5 371.5,-112.5 308.5,-112.5"/>
<text text-anchor="middle" x="340" y="-119.5" font-family="FreeSans" font-size="10.00">wx/frame.h</text>
</g>
<!-- Node17&#45;&gt;Node18 -->
<g id="edge19" class="edge"><title>Node17&#45;&gt;Node18</title>
<path fill="none" stroke="midnightblue" d="M469.598,-168.444C443.803,-159.399 402.923,-145.064 373.982,-134.916"/>
<polygon fill="midnightblue" stroke="midnightblue" points="374.882,-131.523 364.288,-131.516 372.566,-138.128 374.882,-131.523"/>
</g>
<!-- Node19 -->
<g id="node19" class="node"><title>Node19</title>
<polygon fill="white" stroke="#bfbfbf" points="228,-112.5 228,-131.5 290,-131.5 290,-112.5 228,-112.5"/>
<text text-anchor="middle" x="259" y="-119.5" font-family="FreeSans" font-size="10.00">wx/panel.h</text>
</g>
<!-- Node17&#45;&gt;Node19 -->
<g id="edge20" class="edge"><title>Node17&#45;&gt;Node19</title>
<path fill="none" stroke="midnightblue" d="M459.829,-169.148C417.461,-159.412 345.311,-142.833 300.003,-132.422"/>
<polygon fill="midnightblue" stroke="midnightblue" points="300.738,-129 290.208,-130.171 299.17,-135.822 300.738,-129"/>
</g>
<!-- Node20 -->
<g id="node20" class="node"><title>Node20</title>
<g id="a_node20"><a xlink:href="globals_8h.xhtml" target="_top" xlink:title="globals.h">
<polygon fill="white" stroke="black" points="660,-56.5 660,-75.5 714,-75.5 714,-56.5 660,-56.5"/>
<text text-anchor="middle" x="687" y="-63.5" font-family="FreeSans" font-size="10.00">globals.h</text>
</a>
</g>
</g>
<!-- Node17&#45;&gt;Node20 -->
<g id="edge21" class="edge"><title>Node17&#45;&gt;Node20</title>
<path fill="none" stroke="midnightblue" d="M494.691,-168.457C496.284,-154.552 501.457,-127.065 518,-112 554.218,-79.0187 611.906,-69.7352 649.619,-67.3794"/>
<polygon fill="midnightblue" stroke="midnightblue" points="649.875,-70.8711 659.692,-66.8847 649.532,-63.8795 649.875,-70.8711"/>
</g>
<!-- Node27 -->
<g id="node27" class="node"><title>Node27</title>
<g id="a_node27"><a xlink:href="cbexception_8h.xhtml" target="_top" xlink:title="cbexception.h">
<polygon fill="white" stroke="black" points="390,-112.5 390,-131.5 466,-131.5 466,-112.5 390,-112.5"/>
<text text-anchor="middle" x="428" y="-119.5" font-family="FreeSans" font-size="10.00">cbexception.h</text>
</a>
</g>
</g>
<!-- Node17&#45;&gt;Node27 -->
<g id="edge32" class="edge"><title>Node17&#45;&gt;Node27</title>
<path fill="none" stroke="midnightblue" d="M483.396,-168.324C473.544,-160.263 458.649,-148.077 446.785,-138.369"/>
<polygon fill="midnightblue" stroke="midnightblue" points="448.753,-135.457 438.797,-131.834 444.32,-140.875 448.753,-135.457"/>
</g>
<!-- Node20&#45;&gt;Node6 -->
<g id="edge27" class="edge"><title>Node20&#45;&gt;Node6</title>
<path fill="none" stroke="midnightblue" d="M660.538,-56.4435C632.073,-47.2391 586.667,-32.5568 555.203,-22.3829"/>
<polygon fill="midnightblue" stroke="midnightblue" points="556.108,-18.9973 545.516,-19.2508 553.954,-25.6578 556.108,-18.9973"/>
</g>
<!-- Node20&#45;&gt;Node9 -->
<g id="edge23" class="edge"><title>Node20&#45;&gt;Node9</title>
<path fill="none" stroke="midnightblue" d="M659.741,-58.5299C655.171,-57.5853 650.464,-56.6976 646,-56 477.515,-29.6695 433.388,-39.699 264,-20 256.289,-19.1033 248.078,-18.0463 240.179,-16.9779"/>
<polygon fill="midnightblue" stroke="midnightblue" points="240.428,-13.4791 230.044,-15.5793 239.471,-20.4134 240.428,-13.4791"/>
</g>
<!-- Node20&#45;&gt;Node16 -->
<g id="edge30" class="edge"><title>Node20&#45;&gt;Node16</title>
<path fill="none" stroke="midnightblue" d="M714.126,-60.8969C776.937,-51.396 932.544,-27.8588 1005.32,-16.8508"/>
<polygon fill="midnightblue" stroke="midnightblue" points="1006.07,-20.2771 1015.44,-15.3208 1005.02,-13.3558 1006.07,-20.2771"/>
</g>
<!-- Node21 -->
<g id="node21" class="node"><title>Node21</title>
<polygon fill="white" stroke="#bfbfbf" points="1435.5,-0.5 1435.5,-19.5 1478.5,-19.5 1478.5,-0.5 1435.5,-0.5"/>
<text text-anchor="middle" x="1457" y="-7.5" font-family="FreeSans" font-size="10.00">vector</text>
</g>
<!-- Node20&#45;&gt;Node21 -->
<g id="edge22" class="edge"><title>Node20&#45;&gt;Node21</title>
<path fill="none" stroke="midnightblue" d="M714.405,-63.0781C832.589,-54.7899 1298.39,-22.123 1425.06,-13.24"/>
<polygon fill="midnightblue" stroke="midnightblue" points="1425.52,-16.7162 1435.25,-12.5251 1425.03,-9.73335 1425.52,-16.7162"/>
</g>
<!-- Node22 -->
<g id="node22" class="node"><title>Node22</title>
<polygon fill="white" stroke="#bfbfbf" points="810,-0.5 810,-19.5 878,-19.5 878,-0.5 810,-0.5"/>
<text text-anchor="middle" x="844" y="-7.5" font-family="FreeSans" font-size="10.00">wx/treectrl.h</text>
</g>
<!-- Node20&#45;&gt;Node22 -->
<g id="edge24" class="edge"><title>Node20&#45;&gt;Node22</title>
<path fill="none" stroke="midnightblue" d="M711.877,-56.4435C738.289,-47.3591 780.215,-32.9388 809.742,-22.7831"/>
<polygon fill="midnightblue" stroke="midnightblue" points="810.921,-26.0787 819.239,-19.5164 808.645,-19.4593 810.921,-26.0787"/>
</g>
<!-- Node23 -->
<g id="node23" class="node"><title>Node23</title>
<polygon fill="white" stroke="#bfbfbf" points="650,-0.5 650,-19.5 700,-19.5 700,-0.5 650,-0.5"/>
<text text-anchor="middle" x="675" y="-7.5" font-family="FreeSans" font-size="10.00">wx/file.h</text>
</g>
<!-- Node20&#45;&gt;Node23 -->
<g id="edge25" class="edge"><title>Node20&#45;&gt;Node23</title>
<path fill="none" stroke="midnightblue" d="M685.018,-56.083C683.428,-48.9272 681.141,-38.6353 679.154,-29.6911"/>
<polygon fill="midnightblue" stroke="midnightblue" points="682.531,-28.7537 676.945,-19.7511 675.697,-30.2722 682.531,-28.7537"/>
</g>
<!-- Node24 -->
<g id="node24" class="node"><title>Node24</title>
<polygon fill="white" stroke="#bfbfbf" points="718,-0.5 718,-19.5 792,-19.5 792,-0.5 718,-0.5"/>
<text text-anchor="middle" x="755" y="-7.5" font-family="FreeSans" font-size="10.00">wx/filename.h</text>
</g>
<!-- Node20&#45;&gt;Node24 -->
<g id="edge26" class="edge"><title>Node20&#45;&gt;Node24</title>
<path fill="none" stroke="midnightblue" d="M697.925,-56.324C708.175,-48.1849 723.721,-35.8395 736.001,-26.0874"/>
<polygon fill="midnightblue" stroke="midnightblue" points="738.221,-28.7937 743.876,-19.8339 733.868,-23.3119 738.221,-28.7937"/>
</g>
<!-- Node25 -->
<g id="node25" class="node"><title>Node25</title>
<polygon fill="white" stroke="#bfbfbf" points="407.5,-0.5 407.5,-19.5 476.5,-19.5 476.5,-0.5 407.5,-0.5"/>
<text text-anchor="middle" x="442" y="-7.5" font-family="FreeSans" font-size="10.00">wx/msgdlg.h</text>
</g>
<!-- Node20&#45;&gt;Node25 -->
<g id="edge28" class="edge"><title>Node20&#45;&gt;Node25</title>
<path fill="none" stroke="midnightblue" d="M659.845,-59.0147C618.001,-49.792 537.314,-32.0079 486.75,-20.8633"/>
<polygon fill="midnightblue" stroke="midnightblue" points="487.27,-17.3939 476.751,-18.6594 485.763,-24.2299 487.27,-17.3939"/>
</g>
<!-- Node26 -->
<g id="node26" class="node"><title>Node26</title>
<polygon fill="white" stroke="#bfbfbf" points="564,-0.5 564,-19.5 632,-19.5 632,-0.5 564,-0.5"/>
<text text-anchor="middle" x="598" y="-7.5" font-family="FreeSans" font-size="10.00">wx/bitmap.h</text>
</g>
<!-- Node20&#45;&gt;Node26 -->
<g id="edge29" class="edge"><title>Node20&#45;&gt;Node26</title>
<path fill="none" stroke="midnightblue" d="M672.701,-56.324C658.817,-47.9002 637.508,-34.9709 621.196,-25.0741"/>
<polygon fill="midnightblue" stroke="midnightblue" points="622.629,-21.8495 612.264,-19.6545 618.998,-27.8341 622.629,-21.8495"/>
</g>
<!-- Node27&#45;&gt;Node9 -->
<g id="edge33" class="edge"><title>Node27&#45;&gt;Node9</title>
<path fill="none" stroke="midnightblue" d="M410.031,-112.368C369.982,-93.131 273.212,-46.6478 225.921,-23.9314"/>
<polygon fill="midnightblue" stroke="midnightblue" points="227.415,-20.7664 216.886,-19.5914 224.384,-27.0762 227.415,-20.7664"/>
</g>
<!-- Node27&#45;&gt;Node20 -->
<g id="edge35" class="edge"><title>Node27&#45;&gt;Node20</title>
<path fill="none" stroke="midnightblue" d="M466.216,-113.032C515.611,-102.734 601.056,-84.9188 649.9,-74.7351"/>
<polygon fill="midnightblue" stroke="midnightblue" points="650.666,-78.1507 659.741,-72.6832 649.238,-71.298 650.666,-78.1507"/>
</g>
<!-- Node28 -->
<g id="node28" class="node"><title>Node28</title>
<polygon fill="white" stroke="#bfbfbf" points="402.5,-56.5 402.5,-75.5 453.5,-75.5 453.5,-56.5 402.5,-56.5"/>
<text text-anchor="middle" x="428" y="-63.5" font-family="FreeSans" font-size="10.00">wx/log.h</text>
</g>
<!-- Node27&#45;&gt;Node28 -->
<g id="edge34" class="edge"><title>Node27&#45;&gt;Node28</title>
<path fill="none" stroke="midnightblue" d="M428,-112.083C428,-105.006 428,-94.8611 428,-85.9865"/>
<polygon fill="midnightblue" stroke="midnightblue" points="431.5,-85.751 428,-75.7511 424.5,-85.7511 431.5,-85.751"/>
</g>
<!-- Node29&#45;&gt;Node16 -->
<g id="edge37" class="edge"><title>Node29&#45;&gt;Node16</title>
<path fill="none" stroke="midnightblue" d="M1000.77,-112.487C1007.45,-103.757 1017.56,-89.5713 1024,-76 1031.12,-61.0012 1036.45,-42.8669 1039.81,-29.5677"/>
<polygon fill="midnightblue" stroke="midnightblue" points="1043.25,-30.2482 1042.17,-19.7087 1036.44,-28.622 1043.25,-30.2482"/>
</g>
<!-- Node30 -->
<g id="node30" class="node"><title>Node30</title>
<polygon fill="white" stroke="#bfbfbf" points="958.5,-56.5 958.5,-75.5 1015.5,-75.5 1015.5,-56.5 958.5,-56.5"/>
<text text-anchor="middle" x="987" y="-63.5" font-family="FreeSans" font-size="10.00">wx/print.h</text>
</g>
<!-- Node29&#45;&gt;Node30 -->
<g id="edge38" class="edge"><title>Node29&#45;&gt;Node30</title>
<path fill="none" stroke="midnightblue" d="M992.844,-112.083C991.916,-104.927 990.582,-94.6353 989.423,-85.6911"/>
<polygon fill="midnightblue" stroke="midnightblue" points="992.891,-85.2181 988.134,-75.7511 985.949,-86.1181 992.891,-85.2181"/>
</g>
<!-- Node31&#45;&gt;Node12 -->
<g id="edge40" class="edge"><title>Node31&#45;&gt;Node12</title>
<path fill="none" stroke="midnightblue" d="M1426.21,-174.285C1279.01,-165.159 802.631,-135.625 647.978,-126.036"/>
<polygon fill="midnightblue" stroke="midnightblue" points="648.032,-122.533 637.835,-125.408 647.599,-129.52 648.032,-122.533"/>
</g>
<!-- Node31&#45;&gt;Node16 -->
<g id="edge42" class="edge"><title>Node31&#45;&gt;Node16</title>
<path fill="none" stroke="midnightblue" d="M1485.2,-168.447C1505.63,-155.883 1537.59,-131.786 1521,-112 1491.57,-76.8892 1362.86,-85.2913 1318,-76 1233.62,-58.525 1135.55,-34.3023 1082.64,-20.9063"/>
<polygon fill="midnightblue" stroke="midnightblue" points="1083.23,-17.4452 1072.68,-18.3766 1081.51,-24.23 1083.23,-17.4452"/>
</g>
<!-- Node31&#45;&gt;Node20 -->
<g id="edge43" class="edge"><title>Node31&#45;&gt;Node20</title>
<path fill="none" stroke="midnightblue" d="M1426.1,-172.845C1376.3,-167.243 1293.17,-155.179 1225,-132 1206.56,-125.729 1204.71,-117.419 1186,-112 1099.24,-86.8738 824.837,-72.8989 724.345,-68.5188"/>
<polygon fill="midnightblue" stroke="midnightblue" points="724.212,-65.0099 714.071,-68.0781 723.912,-72.0035 724.212,-65.0099"/>
</g>
<!-- Node32 -->
<g id="node32" class="node"><title>Node32</title>
<polygon fill="white" stroke="#bfbfbf" points="1339.5,-112.5 1339.5,-131.5 1410.5,-131.5 1410.5,-112.5 1339.5,-112.5"/>
<text text-anchor="middle" x="1375" y="-119.5" font-family="FreeSans" font-size="10.00">wx/hashset.h</text>
</g>
<!-- Node31&#45;&gt;Node32 -->
<g id="edge41" class="edge"><title>Node31&#45;&gt;Node32</title>
<path fill="none" stroke="midnightblue" d="M1454.74,-168.324C1439.78,-159.822 1416.75,-146.729 1399.27,-136.797"/>
<polygon fill="midnightblue" stroke="midnightblue" points="1400.65,-133.553 1390.23,-131.655 1397.19,-139.639 1400.65,-133.553"/>
</g>
<!-- Node33 -->
<g id="node33" class="node"><title>Node33</title>
<polygon fill="white" stroke="#bfbfbf" points="1428.5,-112.5 1428.5,-131.5 1511.5,-131.5 1511.5,-112.5 1428.5,-112.5"/>
<text text-anchor="middle" x="1470" y="-119.5" font-family="FreeSans" font-size="10.00">tinyxml/tinystr.h</text>
</g>
<!-- Node31&#45;&gt;Node33 -->
<g id="edge44" class="edge"><title>Node31&#45;&gt;Node33</title>
<path fill="none" stroke="midnightblue" d="M1470,-168.083C1470,-161.006 1470,-150.861 1470,-141.986"/>
<polygon fill="midnightblue" stroke="midnightblue" points="1473.5,-141.751 1470,-131.751 1466.5,-141.751 1473.5,-141.751"/>
</g>
<!-- Node34 -->
<g id="node34" class="node"><title>Node34</title>
<polygon fill="white" stroke="#bfbfbf" points="1234.5,-112.5 1234.5,-131.5 1321.5,-131.5 1321.5,-112.5 1234.5,-112.5"/>
<text text-anchor="middle" x="1278" y="-119.5" font-family="FreeSans" font-size="10.00">tinyxml/tinyxml.h</text>
</g>
<!-- Node31&#45;&gt;Node34 -->
<g id="edge45" class="edge"><title>Node31&#45;&gt;Node34</title>
<path fill="none" stroke="midnightblue" d="M1439.58,-168.444C1406.72,-159.201 1354.22,-144.436 1318.03,-134.257"/>
<polygon fill="midnightblue" stroke="midnightblue" points="1318.85,-130.855 1308.28,-131.516 1316.96,-137.593 1318.85,-130.855"/>
</g>
<!-- Node31&#45;&gt;Node35 -->
<g id="edge46" class="edge"><title>Node31&#45;&gt;Node35</title>
<path fill="none" stroke="midnightblue" d="M1513.87,-170.207C1564.14,-162.265 1649.23,-148.341 1731.56,-132.207"/>
<polygon fill="midnightblue" stroke="midnightblue" points="1732.46,-135.599 1741.59,-130.229 1731.1,-128.731 1732.46,-135.599"/>
</g>
<!-- Node36 -->
<g id="node36" class="node"><title>Node36</title>
<polygon fill="white" stroke="#bfbfbf" points="1900.5,-56.5 1900.5,-75.5 1935.5,-75.5 1935.5,-56.5 1900.5,-56.5"/>
<text text-anchor="middle" x="1918" y="-63.5" font-family="FreeSans" font-size="10.00">map</text>
</g>
<!-- Node31&#45;&gt;Node36 -->
<g id="edge62" class="edge"><title>Node31&#45;&gt;Node36</title>
<path fill="none" stroke="midnightblue" d="M1513.6,-177.093C1580.11,-175.96 1710.04,-168.698 1813,-132 1830.36,-125.814 1871.74,-98.6303 1897.07,-81.4357"/>
<polygon fill="midnightblue" stroke="midnightblue" points="1899.31,-84.1409 1905.59,-75.6101 1895.36,-78.3607 1899.31,-84.1409"/>
</g>
<!-- Node41 -->
<g id="node41" class="node"><title>Node41</title>
<g id="a_node41"><a xlink:href="base64_8h.xhtml" target="_top" xlink:title="base64.h">
<polygon fill="white" stroke="black" points="1568.5,-112.5 1568.5,-131.5 1623.5,-131.5 1623.5,-112.5 1568.5,-112.5"/>
<text text-anchor="middle" x="1596" y="-119.5" font-family="FreeSans" font-size="10.00">base64.h</text>
</a>
</g>
</g>
<!-- Node31&#45;&gt;Node41 -->
<g id="edge58" class="edge"><title>Node31&#45;&gt;Node41</title>
<path fill="none" stroke="midnightblue" d="M1489.97,-168.444C1510.61,-159.596 1543.06,-145.687 1566.63,-135.586"/>
<polygon fill="midnightblue" stroke="midnightblue" points="1568.32,-138.673 1576.13,-131.516 1565.56,-132.239 1568.32,-138.673"/>
</g>
<!-- Node43 -->
<g id="node43" class="node"><title>Node43</title>
<polygon fill="white" stroke="#bfbfbf" points="1860.5,-112.5 1860.5,-131.5 1889.5,-131.5 1889.5,-112.5 1860.5,-112.5"/>
<text text-anchor="middle" x="1875" y="-119.5" font-family="FreeSans" font-size="10.00">set</text>
</g>
<!-- Node31&#45;&gt;Node43 -->
<g id="edge63" class="edge"><title>Node31&#45;&gt;Node43</title>
<path fill="none" stroke="midnightblue" d="M1513.56,-174.367C1584.05,-169.532 1727.21,-157.322 1846,-132 1847.48,-131.684 1849,-131.326 1850.52,-130.938"/>
<polygon fill="midnightblue" stroke="midnightblue" points="1851.74,-134.229 1860.38,-128.104 1849.81,-127.501 1851.74,-134.229"/>
</g>
<!-- Node35&#45;&gt;Node16 -->
<g id="edge51" class="edge"><title>Node35&#45;&gt;Node16</title>
<path fill="none" stroke="midnightblue" d="M1744.45,-112.49C1717.61,-104.187 1676.52,-90.6904 1642,-76 1624.08,-68.3718 1621.74,-61.3288 1603,-56 1504.89,-28.0976 1192.93,-15.7249 1082.88,-12.1521"/>
<polygon fill="midnightblue" stroke="midnightblue" points="1082.68,-8.64405 1072.58,-11.8242 1082.46,-15.6405 1082.68,-8.64405"/>
</g>
<!-- Node35&#45;&gt;Node21 -->
<g id="edge48" class="edge"><title>Node35&#45;&gt;Node21</title>
<path fill="none" stroke="midnightblue" d="M1769.18,-112.14C1762.5,-97.778 1747.24,-69.6502 1725,-56 1685.76,-31.9099 1550.53,-18.3933 1488.52,-13.3323"/>
<polygon fill="midnightblue" stroke="midnightblue" points="1488.77,-9.8413 1478.53,-12.5384 1488.22,-16.8193 1488.77,-9.8413"/>
</g>
<!-- Node35&#45;&gt;Node36 -->
<g id="edge47" class="edge"><title>Node35&#45;&gt;Node36</title>
<path fill="none" stroke="midnightblue" d="M1795.98,-112.444C1821.72,-102.855 1863.43,-87.3232 1890.79,-77.1348"/>
<polygon fill="midnightblue" stroke="midnightblue" points="1892.01,-80.4138 1900.16,-73.6439 1889.57,-73.854 1892.01,-80.4138"/>
</g>
<!-- Node37 -->
<g id="node37" class="node"><title>Node37</title>
<polygon fill="white" stroke="#bfbfbf" points="1684,-0.5 1684,-19.5 1746,-19.5 1746,-0.5 1684,-0.5"/>
<text text-anchor="middle" x="1715" y="-7.5" font-family="FreeSans" font-size="10.00">wx/event.h</text>
</g>
<!-- Node35&#45;&gt;Node37 -->
<g id="edge49" class="edge"><title>Node35&#45;&gt;Node37</title>
<path fill="none" stroke="midnightblue" d="M1799.55,-112.452C1829.24,-101.448 1870.97,-80.7664 1853,-56 1831.1,-25.8186 1788.4,-15.4937 1756.27,-12.1539"/>
<polygon fill="midnightblue" stroke="midnightblue" points="1756.51,-8.66184 1746.25,-11.2987 1755.92,-15.6365 1756.51,-8.66184"/>
</g>
<!-- Node38 -->
<g id="node38" class="node"><title>Node38</title>
<polygon fill="white" stroke="#bfbfbf" points="1772,-56.5 1772,-75.5 1844,-75.5 1844,-56.5 1772,-56.5"/>
<text text-anchor="middle" x="1808" y="-63.5" font-family="FreeSans" font-size="10.00">wx/cmdline.h</text>
</g>
<!-- Node35&#45;&gt;Node38 -->
<g id="edge50" class="edge"><title>Node35&#45;&gt;Node38</title>
<path fill="none" stroke="midnightblue" d="M1778.78,-112.083C1783.67,-104.534 1790.83,-93.4948 1796.83,-84.2298"/>
<polygon fill="midnightblue" stroke="midnightblue" points="1799.83,-86.0463 1802.33,-75.7511 1793.95,-82.239 1799.83,-86.0463"/>
</g>
<!-- Node39 -->
<g id="node39" class="node"><title>Node39</title>
<g id="a_node39"><a xlink:href="sdk__events_8h.xhtml" target="_top" xlink:title="sdk_events.h">
<polygon fill="white" stroke="black" points="1522,-56.5 1522,-75.5 1594,-75.5 1594,-56.5 1522,-56.5"/>
<text text-anchor="middle" x="1558" y="-63.5" font-family="FreeSans" font-size="10.00">sdk_events.h</text>
</a>
</g>
</g>
<!-- Node35&#45;&gt;Node39 -->
<g id="edge52" class="edge"><title>Node35&#45;&gt;Node39</title>
<path fill="none" stroke="midnightblue" d="M1741.74,-113.148C1704.94,-103.906 1643.59,-88.4972 1602,-78.0518"/>
<polygon fill="midnightblue" stroke="midnightblue" points="1602.69,-74.617 1592.14,-75.5756 1600.99,-81.4062 1602.69,-74.617"/>
</g>
<!-- Node40 -->
<g id="node40" class="node"><title>Node40</title>
<g id="a_node40"><a xlink:href="cbfunctor_8h.xhtml" target="_top" xlink:title="cbfunctor.h">
<polygon fill="white" stroke="black" points="1650.5,-56.5 1650.5,-75.5 1715.5,-75.5 1715.5,-56.5 1650.5,-56.5"/>
<text text-anchor="middle" x="1683" y="-63.5" font-family="FreeSans" font-size="10.00">cbfunctor.h</text>
</a>
</g>
</g>
<!-- Node35&#45;&gt;Node40 -->
<g id="edge57" class="edge"><title>Node35&#45;&gt;Node40</title>
<path fill="none" stroke="midnightblue" d="M1758.54,-112.324C1744.5,-103.9 1722.95,-90.9709 1706.46,-81.0741"/>
<polygon fill="midnightblue" stroke="midnightblue" points="1707.8,-77.7983 1697.42,-75.6545 1704.2,-83.8007 1707.8,-77.7983"/>
</g>
<!-- Node39&#45;&gt;Node5 -->
<g id="edge56" class="edge"><title>Node39&#45;&gt;Node5</title>
<path fill="none" stroke="midnightblue" d="M1521.73,-57.212C1518.79,-56.7428 1515.85,-56.3286 1513,-56 1020.45,0.812051 892.93,-49.5907 398,-20 374.044,-18.5677 347.018,-16.1768 326.662,-14.2191"/>
<polygon fill="midnightblue" stroke="midnightblue" points="326.97,-10.7326 316.676,-13.2423 326.288,-17.6994 326.97,-10.7326"/>
</g>
<!-- Node39&#45;&gt;Node6 -->
<g id="edge54" class="edge"><title>Node39&#45;&gt;Node6</title>
<path fill="none" stroke="midnightblue" d="M1521.73,-57.2287C1518.79,-56.7558 1515.85,-56.3362 1513,-56 1093.16,-6.45035 978.418,-80.2375 555.906,-19.7635"/>
<polygon fill="midnightblue" stroke="midnightblue" points="556.266,-16.2792 545.868,-18.3099 555.263,-23.207 556.266,-16.2792"/>
</g>
<!-- Node39&#45;&gt;Node16 -->
<g id="edge55" class="edge"><title>Node39&#45;&gt;Node16</title>
<path fill="none" stroke="midnightblue" d="M1521.71,-57.4117C1518.77,-56.8977 1515.84,-56.4188 1513,-56 1354.24,-32.5696 1163.36,-18.6223 1082.84,-13.3843"/>
<polygon fill="midnightblue" stroke="midnightblue" points="1082.88,-9.87959 1072.67,-12.7313 1082.43,-16.8652 1082.88,-9.87959"/>
</g>
<!-- Node39&#45;&gt;Node37 -->
<g id="edge53" class="edge"><title>Node39&#45;&gt;Node37</title>
<path fill="none" stroke="midnightblue" d="M1582.88,-56.4435C1609.29,-47.3591 1651.22,-32.9388 1680.74,-22.7831"/>
<polygon fill="midnightblue" stroke="midnightblue" points="1681.92,-26.0787 1690.24,-19.5164 1679.64,-19.4593 1681.92,-26.0787"/>
</g>
<!-- Node41&#45;&gt;Node9 -->
<g id="edge60" class="edge"><title>Node41&#45;&gt;Node9</title>
<path fill="none" stroke="midnightblue" d="M1568.27,-117.149C1554.15,-115.32 1536.69,-113.264 1521,-112 1135.25,-80.9219 1036.36,-111.589 651,-76 498.764,-61.9407 319.399,-32.179 240.162,-18.3496"/>
<polygon fill="midnightblue" stroke="midnightblue" points="240.561,-14.8662 230.106,-16.5861 239.351,-21.761 240.561,-14.8662"/>
</g>
<!-- Node41&#45;&gt;Node16 -->
<g id="edge61" class="edge"><title>Node41&#45;&gt;Node16</title>
<path fill="none" stroke="midnightblue" d="M1568.46,-114.989C1563.64,-113.969 1558.68,-112.938 1554,-112 1468.44,-94.857 1444.1,-102.609 1361,-76 1340.93,-69.5726 1338.14,-62.2099 1318,-56 1236.38,-30.8339 1136.48,-18.9472 1082.71,-14.0134"/>
<polygon fill="midnightblue" stroke="midnightblue" points="1082.86,-10.5131 1072.59,-13.1175 1082.24,-17.4858 1082.86,-10.5131"/>
</g>
<!-- Node42 -->
<g id="node42" class="node"><title>Node42</title>
<polygon fill="white" stroke="#bfbfbf" points="1448,-56.5 1448,-75.5 1504,-75.5 1504,-56.5 1448,-56.5"/>
<text text-anchor="middle" x="1476" y="-63.5" font-family="FreeSans" font-size="10.00">wx/defs.h</text>
</g>
<!-- Node41&#45;&gt;Node42 -->
<g id="edge59" class="edge"><title>Node41&#45;&gt;Node42</title>
<path fill="none" stroke="midnightblue" d="M1576.99,-112.444C1557.41,-103.636 1526.69,-89.8116 1504.27,-79.722"/>
<polygon fill="midnightblue" stroke="midnightblue" points="1505.48,-76.4284 1494.93,-75.5164 1502.61,-82.8119 1505.48,-76.4284"/>
</g>
<!-- Node44&#45;&gt;Node5 -->
<g id="edge65" class="edge"><title>Node44&#45;&gt;Node5</title>
<path fill="none" stroke="midnightblue" d="M713.124,-168.106C700.355,-154.203 673.75,-127.332 646,-112 537.918,-52.2841 391.167,-24.9755 327.116,-15.3247"/>
<polygon fill="midnightblue" stroke="midnightblue" points="327.255,-11.8079 316.854,-13.8242 326.242,-18.7342 327.255,-11.8079"/>
</g>
<!-- Node44&#45;&gt;Node12 -->
<g id="edge68" class="edge"><title>Node44&#45;&gt;Node12</title>
<path fill="none" stroke="midnightblue" d="M701.669,-168.444C681.68,-159.596 650.257,-145.687 627.436,-135.586"/>
<polygon fill="midnightblue" stroke="midnightblue" points="628.802,-132.363 618.241,-131.516 625.968,-138.764 628.802,-132.363"/>
</g>
<!-- Node44&#45;&gt;Node16 -->
<g id="edge70" class="edge"><title>Node44&#45;&gt;Node16</title>
<path fill="none" stroke="midnightblue" d="M759.871,-168.455C797.238,-159.642 850.415,-145.342 867,-132 897.239,-107.674 880.067,-80.7021 910,-56 937.309,-33.4631 976.4,-22.0358 1005.32,-16.3541"/>
<polygon fill="midnightblue" stroke="midnightblue" points="1006.26,-19.7409 1015.47,-14.5108 1005.01,-12.8535 1006.26,-19.7409"/>
</g>
<!-- Node44&#45;&gt;Node20 -->
<g id="edge74" class="edge"><title>Node44&#45;&gt;Node20</title>
<path fill="none" stroke="midnightblue" d="M718.332,-168.368C712.82,-150.537 700.073,-109.295 692.648,-85.2717"/>
<polygon fill="midnightblue" stroke="midnightblue" points="695.953,-84.1119 689.656,-75.5914 689.265,-86.179 695.953,-84.1119"/>
</g>
<!-- Node44&#45;&gt;Node22 -->
<g id="edge67" class="edge"><title>Node44&#45;&gt;Node22</title>
<path fill="none" stroke="midnightblue" d="M727.613,-168.075C747.31,-141.493 805.812,-62.5379 831.579,-27.7633"/>
<polygon fill="midnightblue" stroke="midnightblue" points="834.51,-29.6866 837.651,-19.5681 828.886,-25.5191 834.51,-29.6866"/>
</g>
<!-- Node44&#45;&gt;Node24 -->
<g id="edge69" class="edge"><title>Node44&#45;&gt;Node24</title>
<path fill="none" stroke="midnightblue" d="M722.828,-168.075C728.18,-141.945 743.897,-65.2106 751.195,-29.577"/>
<polygon fill="midnightblue" stroke="midnightblue" points="754.667,-30.067 753.245,-19.5681 747.81,-28.6624 754.667,-30.067"/>
</g>
<!-- Node44&#45;&gt;Node27 -->
<g id="edge72" class="edge"><title>Node44&#45;&gt;Node27</title>
<path fill="none" stroke="midnightblue" d="M677.767,-169.032C623.968,-159.117 532.366,-142.235 476.308,-131.903"/>
<polygon fill="midnightblue" stroke="midnightblue" points="476.741,-128.424 466.272,-130.053 475.472,-135.308 476.741,-128.424"/>
</g>
<!-- Node44&#45;&gt;Node29 -->
<g id="edge73" class="edge"><title>Node44&#45;&gt;Node29</title>
<path fill="none" stroke="midnightblue" d="M764.258,-168.444C812.604,-158.88 890.844,-143.404 942.358,-133.215"/>
<polygon fill="midnightblue" stroke="midnightblue" points="943.157,-136.625 952.288,-131.251 941.799,-129.758 943.157,-136.625"/>
</g>
<!-- Node44&#45;&gt;Node35 -->
<g id="edge71" class="edge"><title>Node44&#45;&gt;Node35</title>
<path fill="none" stroke="midnightblue" d="M764.443,-172.119C779.203,-170.603 795.805,-169.055 811,-168 1216.81,-139.813 1324.65,-184.5 1731.68,-131.921"/>
<polygon fill="midnightblue" stroke="midnightblue" points="1732.19,-135.383 1741.65,-130.62 1731.29,-128.442 1732.19,-135.383"/>
</g>
<!-- Node45 -->
<g id="node45" class="node"><title>Node45</title>
<polygon fill="white" stroke="#bfbfbf" points="808,-112.5 808,-131.5 858,-131.5 858,-112.5 808,-112.5"/>
<text text-anchor="middle" x="833" y="-119.5" font-family="FreeSans" font-size="10.00">wx/list.h</text>
</g>
<!-- Node44&#45;&gt;Node45 -->
<g id="edge66" class="edge"><title>Node44&#45;&gt;Node45</title>
<path fill="none" stroke="midnightblue" d="M738.995,-168.324C757.038,-159.625 785.047,-146.12 805.803,-136.113"/>
<polygon fill="midnightblue" stroke="midnightblue" points="807.562,-139.15 815.05,-131.655 804.522,-132.845 807.562,-139.15"/>
</g>
<!-- Node46&#45;&gt;Node36 -->
<g id="edge81" class="edge"><title>Node46&#45;&gt;Node36</title>
<path fill="none" stroke="midnightblue" d="M1880.34,-168.296C1885.61,-159.417 1893.65,-145.118 1899,-132 1905.24,-116.691 1910.36,-98.5869 1913.7,-85.3785"/>
<polygon fill="midnightblue" stroke="midnightblue" points="1917.12,-86.1476 1916.08,-75.6035 1910.32,-84.4925 1917.12,-86.1476"/>
</g>
<!-- Node46&#45;&gt;Node43 -->
<g id="edge82" class="edge"><title>Node46&#45;&gt;Node43</title>
<path fill="none" stroke="midnightblue" d="M1875,-168.083C1875,-161.006 1875,-150.861 1875,-141.986"/>
<polygon fill="midnightblue" stroke="midnightblue" points="1878.5,-141.751 1875,-131.751 1871.5,-141.751 1878.5,-141.751"/>
</g>
<!-- Node47 -->
<g id="node47" class="node"><title>Node47</title>
<g id="a_node47"><a xlink:href="wxscintilla_8h.xhtml" target="_top" xlink:title="wx/wxscintilla.h">
<polygon fill="white" stroke="red" points="1642,-112.5 1642,-131.5 1724,-131.5 1724,-112.5 1642,-112.5"/>
<text text-anchor="middle" x="1683" y="-119.5" font-family="FreeSans" font-size="10.00">wx/wxscintilla.h</text>
</a>
</g>
</g>
<!-- Node46&#45;&gt;Node47 -->
<g id="edge77" class="edge"><title>Node46&#45;&gt;Node47</title>
<path fill="none" stroke="midnightblue" d="M1844.58,-168.444C1811.72,-159.201 1759.22,-144.436 1723.03,-134.257"/>
<polygon fill="midnightblue" stroke="midnightblue" points="1723.85,-130.855 1713.28,-131.516 1721.96,-137.593 1723.85,-130.855"/>
</g>
<!-- Node48 -->
<g id="node48" class="node"><title>Node48</title>
<polygon fill="white" stroke="#bfbfbf" points="1946,-112.5 1946,-131.5 2020,-131.5 2020,-112.5 1946,-112.5"/>
<text text-anchor="middle" x="1983" y="-119.5" font-family="FreeSans" font-size="10.00">wx/longlong.h</text>
</g>
<!-- Node46&#45;&gt;Node48 -->
<g id="edge80" class="edge"><title>Node46&#45;&gt;Node48</title>
<path fill="none" stroke="midnightblue" d="M1892.35,-168.324C1909.67,-159.664 1936.52,-146.242 1956.5,-136.249"/>
<polygon fill="midnightblue" stroke="midnightblue" points="1958.31,-139.257 1965.69,-131.655 1955.18,-132.996 1958.31,-139.257"/>
</g>
<!-- Node47&#45;&gt;Node15 -->
<g id="edge79" class="edge"><title>Node47&#45;&gt;Node15</title>
<path fill="none" stroke="midnightblue" d="M1641.87,-113.517C1583.47,-102.879 1479.93,-83.9618 1440.19,-76.1261"/>
<polygon fill="midnightblue" stroke="midnightblue" points="1440.7,-72.6591 1430.2,-74.1097 1439.31,-79.5205 1440.7,-72.6591"/>
</g>
<!-- Node47&#45;&gt;Node42 -->
<g id="edge78" class="edge"><title>Node47&#45;&gt;Node42</title>
<path fill="none" stroke="midnightblue" d="M1650.2,-112.444C1613.26,-102.807 1553.3,-87.1653 1514.26,-76.98"/>
<polygon fill="midnightblue" stroke="midnightblue" points="1514.88,-73.526 1504.32,-74.3884 1513.11,-80.2994 1514.88,-73.526"/>
</g>
<!-- Node49&#45;&gt;Node29 -->
<g id="edge85" class="edge"><title>Node49&#45;&gt;Node29</title>
<path fill="none" stroke="midnightblue" d="M1014.04,-168.083C1010.79,-160.77 1006.08,-150.181 1002.05,-141.103"/>
<polygon fill="midnightblue" stroke="midnightblue" points="1005.15,-139.468 997.889,-131.751 998.752,-142.311 1005.15,-139.468"/>
</g>
<!-- Node50 -->
<g id="node50" class="node"><title>Node50</title>
<g id="a_node50"><a xlink:href="scrollingdialog_8h.xhtml" target="_top" xlink:title="scrollingdialog.h">
<polygon fill="white" stroke="red" points="1092.5,-112.5 1092.5,-131.5 1177.5,-131.5 1177.5,-112.5 1092.5,-112.5"/>
<text text-anchor="middle" x="1135" y="-119.5" font-family="FreeSans" font-size="10.00">scrollingdialog.h</text>
</a>
</g>
</g>
<!-- Node49&#45;&gt;Node50 -->
<g id="edge84" class="edge"><title>Node49&#45;&gt;Node50</title>
<path fill="none" stroke="midnightblue" d="M1036.54,-168.444C1055.62,-159.636 1085.57,-145.812 1107.44,-135.722"/>
<polygon fill="midnightblue" stroke="midnightblue" points="1108.93,-138.885 1116.55,-131.516 1106,-132.529 1108.93,-138.885"/>
</g>
</g>
</svg>
