<?xml version="1.0" encoding="UTF-8" standalone="no"?>
<!DOCTYPE svg PUBLIC "-//W3C//DTD SVG 1.1//EN"
 "http://www.w3.org/Graphics/SVG/1.1/DTD/svg11.dtd">
<!-- Generated by graphviz version 2.38.0 (20140413.2041)
 -->
<!-- Title: profiletimer.cpp Pages: 1 -->
<svg width="702pt" height="252pt"
 viewBox="0.00 0.00 701.50 252.00" xmlns="http://www.w3.org/2000/svg" xmlns:xlink="http://www.w3.org/1999/xlink">
<g id="graph0" class="graph" transform="scale(1 1) rotate(0) translate(4 248)">
<title>profiletimer.cpp</title>
<!-- Node0 -->
<g id="node1" class="node"><title>Node0</title>
<polygon fill="#bfbfbf" stroke="black" points="233,-224.5 233,-243.5 315,-243.5 315,-224.5 233,-224.5"/>
<text text-anchor="middle" x="274" y="-231.5" font-family="FreeSans" font-size="10.00">profiletimer.cpp</text>
</g>
<!-- Node1 -->
<g id="node2" class="node"><title>Node1</title>
<g id="a_node2"><a xlink:href="profiletimer_8h" target="_top" xlink:title="profiletimer.h">
<polygon fill="none" stroke="black" points="98.5,-112.5 98.5,-131.5 169.5,-131.5 169.5,-112.5 98.5,-112.5"/>
<text text-anchor="middle" x="134" y="-119.5" font-family="FreeSans" font-size="10.00">profiletimer.h</text>
</a>
</g>
</g>
<!-- Node0&#45;&gt;Node1 -->
<g id="edge1" class="edge"><title>Node0&#45;&gt;Node1</title>
<path fill="none" stroke="midnightblue" d="M263.014,-224.368C239.195,-205.653 182.556,-161.151 152.878,-137.832"/>
<polygon fill="midnightblue" stroke="midnightblue" points="154.96,-135.018 144.935,-131.591 150.635,-140.522 154.96,-135.018"/>
</g>
<!-- Node5 -->
<g id="node6" class="node"><title>Node5</title>
<g id="a_node6"><a xlink:href="manager_8h" target="_top" xlink:title="manager.h">
<polygon fill="none" stroke="black" points="353,-112.5 353,-131.5 415,-131.5 415,-112.5 353,-112.5"/>
<text text-anchor="middle" x="384" y="-119.5" font-family="FreeSans" font-size="10.00">manager.h</text>
</a>
</g>
</g>
<!-- Node0&#45;&gt;Node5 -->
<g id="edge5" class="edge"><title>Node0&#45;&gt;Node5</title>
<path fill="none" stroke="midnightblue" d="M282.867,-224.422C292.166,-215.403 307.182,-200.777 320,-188 336.534,-171.52 355.246,-152.468 368.147,-139.269"/>
<polygon fill="midnightblue" stroke="midnightblue" points="370.876,-141.484 375.357,-131.883 365.867,-136.594 370.876,-141.484"/>
</g>
<!-- Node14 -->
<g id="node15" class="node"><title>Node14</title>
<g id="a_node15"><a xlink:href="logmanager_8h" target="_top" xlink:title="logmanager.h">
<polygon fill="none" stroke="black" points="237,-168.5 237,-187.5 311,-187.5 311,-168.5 237,-168.5"/>
<text text-anchor="middle" x="274" y="-175.5" font-family="FreeSans" font-size="10.00">logmanager.h</text>
</a>
</g>
</g>
<!-- Node0&#45;&gt;Node14 -->
<g id="edge17" class="edge"><title>Node0&#45;&gt;Node14</title>
<path fill="none" stroke="midnightblue" d="M274,-224.083C274,-217.006 274,-206.861 274,-197.986"/>
<polygon fill="midnightblue" stroke="midnightblue" points="277.5,-197.751 274,-187.751 270.5,-197.751 277.5,-197.751"/>
</g>
<!-- Node2 -->
<g id="node3" class="node"><title>Node2</title>
<polygon fill="none" stroke="#bfbfbf" points="0,-56.5 0,-75.5 82,-75.5 82,-56.5 0,-56.5"/>
<text text-anchor="middle" x="41" y="-63.5" font-family="FreeSans" font-size="10.00">wx/stopwatch.h</text>
</g>
<!-- Node1&#45;&gt;Node2 -->
<g id="edge2" class="edge"><title>Node1&#45;&gt;Node2</title>
<path fill="none" stroke="midnightblue" d="M119.058,-112.324C104.415,-103.822 81.8663,-90.7288 64.7623,-80.7975"/>
<polygon fill="midnightblue" stroke="midnightblue" points="66.3104,-77.6491 55.905,-75.6545 62.7954,-83.7027 66.3104,-77.6491"/>
</g>
<!-- Node3 -->
<g id="node4" class="node"><title>Node3</title>
<polygon fill="none" stroke="#bfbfbf" points="100,-56.5 100,-75.5 162,-75.5 162,-56.5 100,-56.5"/>
<text text-anchor="middle" x="131" y="-63.5" font-family="FreeSans" font-size="10.00">wx/string.h</text>
</g>
<!-- Node1&#45;&gt;Node3 -->
<g id="edge3" class="edge"><title>Node1&#45;&gt;Node3</title>
<path fill="none" stroke="midnightblue" d="M133.505,-112.083C133.111,-105.006 132.548,-94.8611 132.055,-85.9865"/>
<polygon fill="midnightblue" stroke="midnightblue" points="135.536,-85.5415 131.486,-75.7511 128.546,-85.9299 135.536,-85.5415"/>
</g>
<!-- Node4 -->
<g id="node5" class="node"><title>Node4</title>
<polygon fill="none" stroke="#bfbfbf" points="256.5,-56.5 256.5,-75.5 291.5,-75.5 291.5,-56.5 256.5,-56.5"/>
<text text-anchor="middle" x="274" y="-63.5" font-family="FreeSans" font-size="10.00">map</text>
</g>
<!-- Node1&#45;&gt;Node4 -->
<g id="edge4" class="edge"><title>Node1&#45;&gt;Node4</title>
<path fill="none" stroke="midnightblue" d="M156.183,-112.444C180.796,-102.95 220.515,-87.6297 246.937,-77.4385"/>
<polygon fill="midnightblue" stroke="midnightblue" points="248.283,-80.6709 256.353,-73.8067 245.764,-74.1399 248.283,-80.6709"/>
</g>
<!-- Node5&#45;&gt;Node4 -->
<g id="edge6" class="edge"><title>Node5&#45;&gt;Node4</title>
<path fill="none" stroke="midnightblue" d="M366.327,-112.324C348.606,-103.625 321.097,-90.1202 300.712,-80.113"/>
<polygon fill="midnightblue" stroke="midnightblue" points="302.149,-76.9195 291.63,-75.6545 299.064,-83.2031 302.149,-76.9195"/>
</g>
<!-- Node6 -->
<g id="node7" class="node"><title>Node6</title>
<polygon fill="none" stroke="#bfbfbf" points="650.5,-56.5 650.5,-75.5 693.5,-75.5 693.5,-56.5 650.5,-56.5"/>
<text text-anchor="middle" x="672" y="-63.5" font-family="FreeSans" font-size="10.00">vector</text>
</g>
<!-- Node5&#45;&gt;Node6 -->
<g id="edge7" class="edge"><title>Node5&#45;&gt;Node6</title>
<path fill="none" stroke="midnightblue" d="M415.17,-116.137C462.905,-108.531 556.907,-92.9279 636,-76 637.457,-75.6882 638.944,-75.3593 640.445,-75.0189"/>
<polygon fill="midnightblue" stroke="midnightblue" points="641.433,-78.3817 650.354,-72.6659 639.816,-71.571 641.433,-78.3817"/>
</g>
<!-- Node7 -->
<g id="node8" class="node"><title>Node7</title>
<polygon fill="none" stroke="#bfbfbf" points="513,-0.5 513,-19.5 575,-19.5 575,-0.5 513,-0.5"/>
<text text-anchor="middle" x="544" y="-7.5" font-family="FreeSans" font-size="10.00">wx/event.h</text>
</g>
<!-- Node5&#45;&gt;Node7 -->
<g id="edge8" class="edge"><title>Node5&#45;&gt;Node7</title>
<path fill="none" stroke="midnightblue" d="M415.085,-119.297C469.774,-115.581 579.636,-104.653 603,-76 618.067,-57.5218 592.685,-37.3532 570.664,-24.4612"/>
<polygon fill="midnightblue" stroke="midnightblue" points="572.309,-21.3712 561.868,-19.5703 568.907,-27.489 572.309,-21.3712"/>
</g>
<!-- Node8 -->
<g id="node9" class="node"><title>Node8</title>
<polygon fill="none" stroke="#bfbfbf" points="438,-56.5 438,-75.5 510,-75.5 510,-56.5 438,-56.5"/>
<text text-anchor="middle" x="474" y="-63.5" font-family="FreeSans" font-size="10.00">wx/cmdline.h</text>
</g>
<!-- Node5&#45;&gt;Node8 -->
<g id="edge9" class="edge"><title>Node5&#45;&gt;Node8</title>
<path fill="none" stroke="midnightblue" d="M398.46,-112.324C412.5,-103.9 434.048,-90.9709 450.543,-81.0741"/>
<polygon fill="midnightblue" stroke="midnightblue" points="452.802,-83.8007 459.576,-75.6545 449.2,-77.7983 452.802,-83.8007"/>
</g>
<!-- Node9 -->
<g id="node10" class="node"><title>Node9</title>
<g id="a_node10"><a xlink:href="settings_8h" target="_top" xlink:title="settings.h">
<polygon fill="none" stroke="black" points="287.5,-0.5 287.5,-19.5 344.5,-19.5 344.5,-0.5 287.5,-0.5"/>
<text text-anchor="middle" x="316" y="-7.5" font-family="FreeSans" font-size="10.00">settings.h</text>
</a>
</g>
</g>
<!-- Node5&#45;&gt;Node9 -->
<g id="edge10" class="edge"><title>Node5&#45;&gt;Node9</title>
<path fill="none" stroke="midnightblue" d="M372.974,-112.438C362.894,-104.099 348.195,-90.5778 339,-76 329.919,-61.6043 323.831,-43.148 320.211,-29.5827"/>
<polygon fill="midnightblue" stroke="midnightblue" points="323.527,-28.4097 317.741,-19.5347 316.73,-30.0812 323.527,-28.4097"/>
</g>
<!-- Node10 -->
<g id="node11" class="node"><title>Node10</title>
<g id="a_node11"><a xlink:href="sdk__events_8h" target="_top" xlink:title="sdk_events.h">
<polygon fill="none" stroke="black" points="348,-56.5 348,-75.5 420,-75.5 420,-56.5 348,-56.5"/>
<text text-anchor="middle" x="384" y="-63.5" font-family="FreeSans" font-size="10.00">sdk_events.h</text>
</a>
</g>
</g>
<!-- Node5&#45;&gt;Node10 -->
<g id="edge11" class="edge"><title>Node5&#45;&gt;Node10</title>
<path fill="none" stroke="midnightblue" d="M384,-112.083C384,-105.006 384,-94.8611 384,-85.9865"/>
<polygon fill="midnightblue" stroke="midnightblue" points="387.5,-85.751 384,-75.7511 380.5,-85.7511 387.5,-85.751"/>
</g>
<!-- Node13 -->
<g id="node14" class="node"><title>Node13</title>
<g id="a_node14"><a xlink:href="cbfunctor_8h" target="_top" xlink:title="cbfunctor.h">
<polygon fill="none" stroke="black" points="528.5,-56.5 528.5,-75.5 593.5,-75.5 593.5,-56.5 528.5,-56.5"/>
<text text-anchor="middle" x="561" y="-63.5" font-family="FreeSans" font-size="10.00">cbfunctor.h</text>
</a>
</g>
</g>
<!-- Node5&#45;&gt;Node13 -->
<g id="edge16" class="edge"><title>Node5&#45;&gt;Node13</title>
<path fill="none" stroke="midnightblue" d="M412.046,-112.444C442.082,-103.28 489.913,-88.6876 523.243,-78.5192"/>
<polygon fill="midnightblue" stroke="midnightblue" points="524.542,-81.7822 533.085,-75.5164 522.499,-75.0869 524.542,-81.7822"/>
</g>
<!-- Node10&#45;&gt;Node7 -->
<g id="edge12" class="edge"><title>Node10&#45;&gt;Node7</title>
<path fill="none" stroke="midnightblue" d="M409.352,-56.4435C436.269,-47.3591 478.996,-32.9388 509.087,-22.7831"/>
<polygon fill="midnightblue" stroke="midnightblue" points="510.41,-26.0305 518.766,-19.5164 508.172,-19.3981 510.41,-26.0305"/>
</g>
<!-- Node10&#45;&gt;Node9 -->
<g id="edge14" class="edge"><title>Node10&#45;&gt;Node9</title>
<path fill="none" stroke="midnightblue" d="M373.075,-56.324C362.825,-48.1849 347.279,-35.8395 334.999,-26.0874"/>
<polygon fill="midnightblue" stroke="midnightblue" points="337.132,-23.3119 327.124,-19.8339 332.779,-28.7937 337.132,-23.3119"/>
</g>
<!-- Node11 -->
<g id="node12" class="node"><title>Node11</title>
<polygon fill="none" stroke="#bfbfbf" points="362.5,-0.5 362.5,-19.5 413.5,-19.5 413.5,-0.5 362.5,-0.5"/>
<text text-anchor="middle" x="388" y="-7.5" font-family="FreeSans" font-size="10.00">wx/intl.h</text>
</g>
<!-- Node10&#45;&gt;Node11 -->
<g id="edge13" class="edge"><title>Node10&#45;&gt;Node11</title>
<path fill="none" stroke="midnightblue" d="M384.661,-56.083C385.185,-49.0059 385.936,-38.8611 386.594,-29.9865"/>
<polygon fill="midnightblue" stroke="midnightblue" points="390.103,-29.9823 387.352,-19.7511 383.123,-29.4652 390.103,-29.9823"/>
</g>
<!-- Node12 -->
<g id="node13" class="node"><title>Node12</title>
<g id="a_node13"><a xlink:href="prep_8h" target="_top" xlink:title="prep.h">
<polygon fill="none" stroke="black" points="197.5,-0.5 197.5,-19.5 240.5,-19.5 240.5,-0.5 197.5,-0.5"/>
<text text-anchor="middle" x="219" y="-7.5" font-family="FreeSans" font-size="10.00">prep.h</text>
</a>
</g>
</g>
<!-- Node10&#45;&gt;Node12 -->
<g id="edge15" class="edge"><title>Node10&#45;&gt;Node12</title>
<path fill="none" stroke="midnightblue" d="M357.855,-56.4435C328.709,-46.9049 281.588,-31.4834 250.451,-21.293"/>
<polygon fill="midnightblue" stroke="midnightblue" points="251.146,-17.8378 240.553,-18.0537 248.968,-24.4906 251.146,-17.8378"/>
</g>
<!-- Node14&#45;&gt;Node4 -->
<g id="edge23" class="edge"><title>Node14&#45;&gt;Node4</title>
<path fill="none" stroke="midnightblue" d="M274,-168.368C274,-150.617 274,-109.666 274,-85.5974"/>
<polygon fill="midnightblue" stroke="midnightblue" points="277.5,-85.5914 274,-75.5914 270.5,-85.5915 277.5,-85.5914"/>
</g>
<!-- Node14&#45;&gt;Node5 -->
<g id="edge18" class="edge"><title>Node14&#45;&gt;Node5</title>
<path fill="none" stroke="midnightblue" d="M291.673,-168.324C309.394,-159.625 336.903,-146.12 357.288,-136.113"/>
<polygon fill="midnightblue" stroke="midnightblue" points="358.936,-139.203 366.37,-131.655 355.851,-132.919 358.936,-139.203"/>
</g>
<!-- Node15 -->
<g id="node16" class="node"><title>Node15</title>
<g id="a_node16"><a xlink:href="logger_8h" target="_top" xlink:title="logger.h">
<polygon fill="none" stroke="black" points="191,-112.5 191,-131.5 241,-131.5 241,-112.5 191,-112.5"/>
<text text-anchor="middle" x="216" y="-119.5" font-family="FreeSans" font-size="10.00">logger.h</text>
</a>
</g>
</g>
<!-- Node14&#45;&gt;Node15 -->
<g id="edge19" class="edge"><title>Node14&#45;&gt;Node15</title>
<path fill="none" stroke="midnightblue" d="M264.681,-168.324C256.107,-160.341 243.188,-148.313 232.812,-138.653"/>
<polygon fill="midnightblue" stroke="midnightblue" points="235.192,-136.086 225.488,-131.834 230.422,-141.21 235.192,-136.086"/>
</g>
<!-- Node15&#45;&gt;Node3 -->
<g id="edge21" class="edge"><title>Node15&#45;&gt;Node3</title>
<path fill="none" stroke="midnightblue" d="M202.343,-112.324C189.084,-103.9 168.732,-90.9709 153.154,-81.0741"/>
<polygon fill="midnightblue" stroke="midnightblue" points="154.94,-78.0626 144.623,-75.6545 151.187,-83.9711 154.94,-78.0626"/>
</g>
<!-- Node15&#45;&gt;Node9 -->
<g id="edge22" class="edge"><title>Node15&#45;&gt;Node9</title>
<path fill="none" stroke="midnightblue" d="M218.517,-112.138C222.668,-98.7521 232.014,-73.1225 247,-56 258.403,-42.9714 274.452,-32.2017 288.202,-24.4681"/>
<polygon fill="midnightblue" stroke="midnightblue" points="290.109,-27.4174 297.269,-19.6086 286.802,-21.2476 290.109,-27.4174"/>
</g>
<!-- Node15&#45;&gt;Node12 -->
<g id="edge20" class="edge"><title>Node15&#45;&gt;Node12</title>
<path fill="none" stroke="midnightblue" d="M215.247,-112.163C214.29,-99.6523 212.889,-76.0656 214,-56 214.479,-47.358 215.471,-37.8252 216.446,-29.7666"/>
<polygon fill="midnightblue" stroke="midnightblue" points="219.948,-29.969 217.758,-19.6032 213.006,-29.0728 219.948,-29.969"/>
</g>
</g>
</svg>
