<?xml version="1.0" encoding="UTF-8" standalone="no"?>
<!DOCTYPE svg PUBLIC "-//W3C//DTD SVG 1.1//EN"
 "http://www.w3.org/Graphics/SVG/1.1/DTD/svg11.dtd">
<!-- Generated by graphviz version 2.40.1 (20161225.0304)
 -->
<!-- Title: projectbuildtarget.h Pages: 1 -->
<svg width="724pt" height="252pt"
 viewBox="0.00 0.00 724.00 252.00" xmlns="http://www.w3.org/2000/svg" xmlns:xlink="http://www.w3.org/1999/xlink">
<g id="graph0" class="graph" transform="scale(1 1) rotate(0) translate(4 248)">
<title>projectbuildtarget.h</title>
<!-- Node0 -->
<g id="node1" class="node">
<title>Node0</title>
<polygon fill="#bfbfbf" stroke="#000000" points="337,-224.5 337,-243.5 435,-243.5 435,-224.5 337,-224.5"/>
<text text-anchor="middle" x="386" y="-231.5" font-family="FreeSans" font-size="10.00" fill="#000000">projectbuildtarget.h</text>
</g>
<!-- Node1 -->
<g id="node2" class="node">
<title>Node1</title>
<g id="a_node2"><a xlink:href="settings_8h" target="_top" xlink:title="settings.h">
<polygon fill="none" stroke="#000000" points="86.5,-.5 86.5,-19.5 143.5,-19.5 143.5,-.5 86.5,-.5"/>
<text text-anchor="middle" x="115" y="-7.5" font-family="FreeSans" font-size="10.00" fill="#000000">settings.h</text>
</a>
</g>
</g>
<!-- Node0&#45;&gt;Node1 -->
<g id="edge1" class="edge">
<title>Node0&#45;&gt;Node1</title>
<path fill="none" stroke="#191970" d="M348.182,-224.4593C287.0919,-206.801 168.3622,-162.6632 117,-76 108.791,-62.1489 108.9876,-43.6297 110.8375,-29.734"/>
<polygon fill="#191970" stroke="#191970" points="114.3075,-30.2062 112.5464,-19.7587 107.408,-29.0241 114.3075,-30.2062"/>
</g>
<!-- Node2 -->
<g id="node3" class="node">
<title>Node2</title>
<g id="a_node3"><a xlink:href="globals_8h" target="_top" xlink:title="globals.h">
<polygon fill="none" stroke="#000000" points="422,-56.5 422,-75.5 476,-75.5 476,-56.5 422,-56.5"/>
<text text-anchor="middle" x="449" y="-63.5" font-family="FreeSans" font-size="10.00" fill="#000000">globals.h</text>
</a>
</g>
</g>
<!-- Node0&#45;&gt;Node2 -->
<g id="edge2" class="edge">
<title>Node0&#45;&gt;Node2</title>
<path fill="none" stroke="#191970" d="M388.3345,-224.281C393.5195,-203.3142 406.8995,-152.4593 424,-112 427.9677,-102.6126 433.2556,-92.624 437.9461,-84.3617"/>
<polygon fill="#191970" stroke="#191970" points="441.0449,-85.9957 443.0631,-75.5948 434.9994,-82.467 441.0449,-85.9957"/>
</g>
<!-- Node5 -->
<g id="node6" class="node">
<title>Node5</title>
<polygon fill="none" stroke="#bfbfbf" points="0,-.5 0,-19.5 68,-19.5 68,-.5 0,-.5"/>
<text text-anchor="middle" x="34" y="-7.5" font-family="FreeSans" font-size="10.00" fill="#000000">wx/treectrl.h</text>
</g>
<!-- Node0&#45;&gt;Node5 -->
<g id="edge28" class="edge">
<title>Node0&#45;&gt;Node5</title>
<path fill="none" stroke="#191970" d="M336.6746,-225.9572C301.5125,-218.9945 253.7936,-206.9936 215,-188 145.594,-154.0184 132.9642,-134.0913 82,-76 68.6384,-60.7699 55.2269,-41.9609 45.9905,-28.3235"/>
<polygon fill="#191970" stroke="#191970" points="48.7762,-26.1924 40.3149,-19.816 42.953,-30.0771 48.7762,-26.1924"/>
</g>
<!-- Node7 -->
<g id="node8" class="node">
<title>Node7</title>
<polygon fill="none" stroke="#bfbfbf" points="641,-.5 641,-19.5 715,-19.5 715,-.5 641,-.5"/>
<text text-anchor="middle" x="678" y="-7.5" font-family="FreeSans" font-size="10.00" fill="#000000">wx/filename.h</text>
</g>
<!-- Node0&#45;&gt;Node7 -->
<g id="edge26" class="edge">
<title>Node0&#45;&gt;Node7</title>
<path fill="none" stroke="#191970" d="M435.3197,-228.5728C469.4341,-222.874 514.5314,-211.3089 548,-188 608.591,-145.8019 651.6971,-66.0936 669.2542,-29.3924"/>
<polygon fill="#191970" stroke="#191970" points="672.6457,-30.4008 673.6989,-19.8585 666.3013,-27.4431 672.6457,-30.4008"/>
</g>
<!-- Node11 -->
<g id="node12" class="node">
<title>Node11</title>
<g id="a_node12"><a xlink:href="compiletargetbase_8h" target="_top" xlink:title="compiletargetbase.h">
<polygon fill="none" stroke="#000000" points="435.5,-168.5 435.5,-187.5 538.5,-187.5 538.5,-168.5 435.5,-168.5"/>
<text text-anchor="middle" x="487" y="-175.5" font-family="FreeSans" font-size="10.00" fill="#000000">compiletargetbase.h</text>
</a>
</g>
</g>
<!-- Node0&#45;&gt;Node11 -->
<g id="edge12" class="edge">
<title>Node0&#45;&gt;Node11</title>
<path fill="none" stroke="#191970" d="M403.5929,-224.2455C419.379,-215.4928 442.7639,-202.527 460.7587,-192.5496"/>
<polygon fill="#191970" stroke="#191970" points="462.5603,-195.5528 469.6087,-187.6427 459.1659,-189.4308 462.5603,-195.5528"/>
</g>
<!-- Node14 -->
<g id="node15" class="node">
<title>Node14</title>
<g id="a_node15"><a xlink:href="projectfile_8h" target="_top" xlink:title="projectfile.h">
<polygon fill="none" stroke="#000000" points="269.5,-112.5 269.5,-131.5 334.5,-131.5 334.5,-112.5 269.5,-112.5"/>
<text text-anchor="middle" x="302" y="-119.5" font-family="FreeSans" font-size="10.00" fill="#000000">projectfile.h</text>
</a>
</g>
</g>
<!-- Node0&#45;&gt;Node14 -->
<g id="edge16" class="edge">
<title>Node0&#45;&gt;Node14</title>
<path fill="none" stroke="#191970" d="M378.8382,-224.4509C364.766,-205.688 333.3161,-163.7548 315.3185,-139.758"/>
<polygon fill="#191970" stroke="#191970" points="317.9437,-137.4249 309.1437,-131.5249 312.3437,-141.6249 317.9437,-137.4249"/>
</g>
<!-- Node16 -->
<g id="node17" class="node">
<title>Node16</title>
<polygon fill="none" stroke="#bfbfbf" points="330,-56.5 330,-75.5 404,-75.5 404,-56.5 330,-56.5"/>
<text text-anchor="middle" x="367" y="-63.5" font-family="FreeSans" font-size="10.00" fill="#000000">wx/dynarray.h</text>
</g>
<!-- Node0&#45;&gt;Node16 -->
<g id="edge25" class="edge">
<title>Node0&#45;&gt;Node16</title>
<path fill="none" stroke="#191970" d="M384.924,-224.4862C381.9206,-197.9293 373.3972,-122.5651 369.2806,-86.1655"/>
<polygon fill="#191970" stroke="#191970" points="372.7132,-85.3712 368.1115,-75.8279 365.7575,-86.1579 372.7132,-85.3712"/>
</g>
<!-- Node18 -->
<g id="node19" class="node">
<title>Node18</title>
<polygon fill="none" stroke="#bfbfbf" points="666,-168.5 666,-187.5 716,-187.5 716,-168.5 666,-168.5"/>
<text text-anchor="middle" x="691" y="-175.5" font-family="FreeSans" font-size="10.00" fill="#000000">wx/list.h</text>
</g>
<!-- Node0&#45;&gt;Node18 -->
<g id="edge27" class="edge">
<title>Node0&#45;&gt;Node18</title>
<path fill="none" stroke="#191970" d="M435.2517,-226.6878C488.8168,-218.455 576.8463,-204.1065 652,-188 653.2687,-187.7281 654.5584,-187.4431 655.8595,-187.1482"/>
<polygon fill="#191970" stroke="#191970" points="656.9813,-190.4788 665.8944,-184.7511 655.3548,-183.6704 656.9813,-190.4788"/>
</g>
<!-- Node2&#45;&gt;Node1 -->
<g id="edge11" class="edge">
<title>Node2&#45;&gt;Node1</title>
<path fill="none" stroke="#191970" d="M421.9584,-58.1189C418.9484,-57.352 415.9172,-56.6273 413,-56 310.1277,-33.8801 282.9811,-36.1221 179,-20 170.7832,-18.726 161.9741,-17.3538 153.6003,-16.0463"/>
<polygon fill="#191970" stroke="#191970" points="154.0915,-12.5806 143.6709,-14.4945 153.0106,-19.4967 154.0915,-12.5806"/>
</g>
<!-- Node3 -->
<g id="node4" class="node">
<title>Node3</title>
<polygon fill="none" stroke="#bfbfbf" points="188.5,-.5 188.5,-19.5 231.5,-19.5 231.5,-.5 188.5,-.5"/>
<text text-anchor="middle" x="210" y="-7.5" font-family="FreeSans" font-size="10.00" fill="#000000">vector</text>
</g>
<!-- Node2&#45;&gt;Node3 -->
<g id="edge3" class="edge">
<title>Node2&#45;&gt;Node3</title>
<path fill="none" stroke="#191970" d="M421.9223,-58.2764C418.919,-57.48 415.8993,-56.7053 413,-56 340.2249,-38.2959 318.2768,-39.8485 241.7242,-19.9604"/>
<polygon fill="#191970" stroke="#191970" points="242.1559,-16.4546 231.5938,-17.2877 240.3701,-23.223 242.1559,-16.4546"/>
</g>
<!-- Node4 -->
<g id="node5" class="node">
<title>Node4</title>
<polygon fill="none" stroke="#bfbfbf" points="250,-.5 250,-19.5 312,-19.5 312,-.5 250,-.5"/>
<text text-anchor="middle" x="281" y="-7.5" font-family="FreeSans" font-size="10.00" fill="#000000">wx/string.h</text>
</g>
<!-- Node2&#45;&gt;Node4 -->
<g id="edge4" class="edge">
<title>Node2&#45;&gt;Node4</title>
<path fill="none" stroke="#191970" d="M421.634,-56.878C393.8637,-47.6212 350.6355,-33.2118 319.4344,-22.8115"/>
<polygon fill="#191970" stroke="#191970" points="320.3553,-19.4292 309.7616,-19.5872 318.1416,-26.0699 320.3553,-19.4292"/>
</g>
<!-- Node2&#45;&gt;Node5 -->
<g id="edge5" class="edge">
<title>Node2&#45;&gt;Node5</title>
<path fill="none" stroke="#191970" d="M421.9859,-57.9834C418.9707,-57.2418 415.9308,-56.5601 413,-56 268.6513,-28.4123 226.8685,-44.336 78.1447,-20.0088"/>
<polygon fill="#191970" stroke="#191970" points="78.6315,-16.5417 68.1916,-18.3473 77.4788,-23.4462 78.6315,-16.5417"/>
</g>
<!-- Node6 -->
<g id="node7" class="node">
<title>Node6</title>
<polygon fill="none" stroke="#bfbfbf" points="330,-.5 330,-19.5 380,-19.5 380,-.5 330,-.5"/>
<text text-anchor="middle" x="355" y="-7.5" font-family="FreeSans" font-size="10.00" fill="#000000">wx/file.h</text>
</g>
<!-- Node2&#45;&gt;Node6 -->
<g id="edge6" class="edge">
<title>Node2&#45;&gt;Node6</title>
<path fill="none" stroke="#191970" d="M432.6264,-56.2455C418.0692,-47.5731 396.569,-34.7645 379.8848,-24.825"/>
<polygon fill="#191970" stroke="#191970" points="381.5683,-21.7539 371.1859,-19.6427 377.9856,-27.7676 381.5683,-21.7539"/>
</g>
<!-- Node2&#45;&gt;Node7 -->
<g id="edge7" class="edge">
<title>Node2&#45;&gt;Node7</title>
<path fill="none" stroke="#191970" d="M476.1686,-59.3562C514.2487,-50.044 584.0577,-32.9728 630.752,-21.5541"/>
<polygon fill="#191970" stroke="#191970" points="631.7533,-24.9125 640.6356,-19.1371 630.0904,-18.1128 631.7533,-24.9125"/>
</g>
<!-- Node8 -->
<g id="node9" class="node">
<title>Node8</title>
<polygon fill="none" stroke="#bfbfbf" points="398.5,-.5 398.5,-19.5 449.5,-19.5 449.5,-.5 398.5,-.5"/>
<text text-anchor="middle" x="424" y="-7.5" font-family="FreeSans" font-size="10.00" fill="#000000">wx/intl.h</text>
</g>
<!-- Node2&#45;&gt;Node8 -->
<g id="edge8" class="edge">
<title>Node2&#45;&gt;Node8</title>
<path fill="none" stroke="#191970" d="M444.6453,-56.2455C441.2756,-48.6973 436.507,-38.0158 432.4017,-28.8197"/>
<polygon fill="#191970" stroke="#191970" points="435.5773,-27.3473 428.3048,-19.6427 429.1853,-30.2009 435.5773,-27.3473"/>
</g>
<!-- Node9 -->
<g id="node10" class="node">
<title>Node9</title>
<polygon fill="none" stroke="#bfbfbf" points="467.5,-.5 467.5,-19.5 536.5,-19.5 536.5,-.5 467.5,-.5"/>
<text text-anchor="middle" x="502" y="-7.5" font-family="FreeSans" font-size="10.00" fill="#000000">wx/msgdlg.h</text>
</g>
<!-- Node2&#45;&gt;Node9 -->
<g id="edge9" class="edge">
<title>Node2&#45;&gt;Node9</title>
<path fill="none" stroke="#191970" d="M458.2319,-56.2455C465.8317,-48.2155 476.7877,-36.6394 485.8368,-27.0781"/>
<polygon fill="#191970" stroke="#191970" points="488.5421,-29.3115 492.8739,-19.6427 483.458,-24.4998 488.5421,-29.3115"/>
</g>
<!-- Node10 -->
<g id="node11" class="node">
<title>Node10</title>
<polygon fill="none" stroke="#bfbfbf" points="555,-.5 555,-19.5 623,-19.5 623,-.5 555,-.5"/>
<text text-anchor="middle" x="589" y="-7.5" font-family="FreeSans" font-size="10.00" fill="#000000">wx/bitmap.h</text>
</g>
<!-- Node2&#45;&gt;Node10 -->
<g id="edge10" class="edge">
<title>Node2&#45;&gt;Node10</title>
<path fill="none" stroke="#191970" d="M473.0669,-56.3733C495.8428,-47.2629 530.2344,-33.5062 555.649,-23.3404"/>
<polygon fill="#191970" stroke="#191970" points="557.2623,-26.4648 565.2472,-19.5011 554.6625,-19.9654 557.2623,-26.4648"/>
</g>
<!-- Node12 -->
<g id="node13" class="node">
<title>Node12</title>
<g id="a_node13"><a xlink:href="compileoptionsbase_8h" target="_top" xlink:title="compileoptionsbase.h">
<polygon fill="none" stroke="#000000" points="433.5,-112.5 433.5,-131.5 542.5,-131.5 542.5,-112.5 433.5,-112.5"/>
<text text-anchor="middle" x="488" y="-119.5" font-family="FreeSans" font-size="10.00" fill="#000000">compileoptionsbase.h</text>
</a>
</g>
</g>
<!-- Node11&#45;&gt;Node12 -->
<g id="edge13" class="edge">
<title>Node11&#45;&gt;Node12</title>
<path fill="none" stroke="#191970" d="M487.1742,-168.2455C487.3047,-160.9382 487.4876,-150.6944 487.6481,-141.7046"/>
<polygon fill="#191970" stroke="#191970" points="491.1486,-141.7036 487.8278,-131.6427 484.1497,-141.5786 491.1486,-141.7036"/>
</g>
<!-- Node12&#45;&gt;Node2 -->
<g id="edge14" class="edge">
<title>Node12&#45;&gt;Node2</title>
<path fill="none" stroke="#191970" d="M481.2067,-112.2455C475.7822,-104.4564 468.0339,-93.3308 461.4967,-83.9439"/>
<polygon fill="#191970" stroke="#191970" points="464.3025,-81.8485 455.7154,-75.6427 458.5583,-85.849 464.3025,-81.8485"/>
</g>
<!-- Node13 -->
<g id="node14" class="node">
<title>Node13</title>
<polygon fill="none" stroke="#bfbfbf" points="532.5,-56.5 532.5,-75.5 609.5,-75.5 609.5,-56.5 532.5,-56.5"/>
<text text-anchor="middle" x="571" y="-63.5" font-family="FreeSans" font-size="10.00" fill="#000000">wx/hashmap.h</text>
</g>
<!-- Node12&#45;&gt;Node13 -->
<g id="edge15" class="edge">
<title>Node12&#45;&gt;Node13</title>
<path fill="none" stroke="#191970" d="M502.4575,-112.2455C515.0732,-103.7337 533.5944,-91.2375 548.2045,-81.3801"/>
<polygon fill="#191970" stroke="#191970" points="550.3761,-84.1371 556.7082,-75.6427 546.4609,-78.3343 550.3761,-84.1371"/>
</g>
<!-- Node14&#45;&gt;Node1 -->
<g id="edge18" class="edge">
<title>Node14&#45;&gt;Node1</title>
<path fill="none" stroke="#191970" d="M269.2282,-117.1221C225.4227,-109.9532 151.0707,-95.3041 132,-76 119.9397,-63.7921 116.0881,-44.2334 115.0152,-29.571"/>
<polygon fill="#191970" stroke="#191970" points="118.5107,-29.3808 114.6464,-19.5159 111.5154,-29.6375 118.5107,-29.3808"/>
</g>
<!-- Node14&#45;&gt;Node2 -->
<g id="edge19" class="edge">
<title>Node14&#45;&gt;Node2</title>
<path fill="none" stroke="#191970" d="M327.2702,-112.3733C351.3966,-103.1822 387.9362,-89.2624 414.6877,-79.0713"/>
<polygon fill="#191970" stroke="#191970" points="415.9607,-82.3318 424.0596,-75.5011 413.4687,-75.7904 415.9607,-82.3318"/>
</g>
<!-- Node14&#45;&gt;Node3 -->
<g id="edge17" class="edge">
<title>Node14&#45;&gt;Node3</title>
<path fill="none" stroke="#191970" d="M301.1451,-112.0838C299.5106,-98.2606 294.8679,-72.9884 282,-56 271.3469,-41.9356 255.0499,-31.0102 240.6534,-23.343"/>
<polygon fill="#191970" stroke="#191970" points="242.0536,-20.1298 231.5457,-18.7749 238.9152,-26.3868 242.0536,-20.1298"/>
</g>
<!-- Node14&#45;&gt;Node5 -->
<g id="edge23" class="edge">
<title>Node14&#45;&gt;Node5</title>
<path fill="none" stroke="#191970" d="M269.4691,-118.1892C231.345,-112.7759 167.0256,-100.6451 117,-76 91.4046,-63.3904 66.3795,-41.8585 50.6153,-26.8292"/>
<polygon fill="#191970" stroke="#191970" points="52.8605,-24.1295 43.2619,-19.6443 47.9684,-29.1363 52.8605,-24.1295"/>
</g>
<!-- Node14&#45;&gt;Node7 -->
<g id="edge22" class="edge">
<title>Node14&#45;&gt;Node7</title>
<path fill="none" stroke="#191970" d="M334.7827,-116.21C371.9688,-109.085 434.0563,-95.4884 485,-76 502.8255,-69.1809 505.3225,-63.1939 523,-56 558.4251,-41.5836 600.0493,-29.4823 631.2386,-21.3156"/>
<polygon fill="#191970" stroke="#191970" points="632.1679,-24.6905 640.9772,-18.8044 630.42,-17.9123 632.1679,-24.6905"/>
</g>
<!-- Node15 -->
<g id="node16" class="node">
<title>Node15</title>
<g id="a_node16"><a xlink:href="prep_8h" target="_top" xlink:title="prep.h">
<polygon fill="none" stroke="#000000" points="141.5,-56.5 141.5,-75.5 184.5,-75.5 184.5,-56.5 141.5,-56.5"/>
<text text-anchor="middle" x="163" y="-63.5" font-family="FreeSans" font-size="10.00" fill="#000000">prep.h</text>
</a>
</g>
</g>
<!-- Node14&#45;&gt;Node15 -->
<g id="edge20" class="edge">
<title>Node14&#45;&gt;Node15</title>
<path fill="none" stroke="#191970" d="M278.105,-112.3733C254.9436,-103.042 219.6835,-88.8365 194.2936,-78.6075"/>
<polygon fill="#191970" stroke="#191970" points="195.3392,-75.2554 184.7557,-74.7649 192.7233,-81.7483 195.3392,-75.2554"/>
</g>
<!-- Node14&#45;&gt;Node16 -->
<g id="edge21" class="edge">
<title>Node14&#45;&gt;Node16</title>
<path fill="none" stroke="#191970" d="M313.3221,-112.2455C322.9223,-103.9746 336.8892,-91.9416 348.1695,-82.2232"/>
<polygon fill="#191970" stroke="#191970" points="350.516,-84.8214 355.8076,-75.6427 345.947,-79.5182 350.516,-84.8214"/>
</g>
<!-- Node17 -->
<g id="node18" class="node">
<title>Node17</title>
<polygon fill="none" stroke="#bfbfbf" points="202.5,-56.5 202.5,-75.5 273.5,-75.5 273.5,-56.5 202.5,-56.5"/>
<text text-anchor="middle" x="238" y="-63.5" font-family="FreeSans" font-size="10.00" fill="#000000">wx/hashset.h</text>
</g>
<!-- Node14&#45;&gt;Node17 -->
<g id="edge24" class="edge">
<title>Node14&#45;&gt;Node17</title>
<path fill="none" stroke="#191970" d="M290.8521,-112.2455C281.4913,-104.0549 267.9142,-92.1749 256.8651,-82.5069"/>
<polygon fill="#191970" stroke="#191970" points="258.8508,-79.5937 249.0202,-75.6427 254.2412,-84.8618 258.8508,-79.5937"/>
</g>
</g>
</svg>
