<?xml version="1.0" encoding="UTF-8" standalone="no"?>
<!DOCTYPE svg PUBLIC "-//W3C//DTD SVG 1.1//EN"
 "http://www.w3.org/Graphics/SVG/1.1/DTD/svg11.dtd">
<!-- Generated by graphviz version 2.38.0 (20140413.2041)
 -->
<!-- Title: projectfileoptionsdlg.h Pages: 1 -->
<svg width="423pt" height="84pt"
 viewBox="0.00 0.00 423.00 84.00" xmlns="http://www.w3.org/2000/svg" xmlns:xlink="http://www.w3.org/1999/xlink">
<g id="graph0" class="graph" transform="scale(1 1) rotate(0) translate(4 80)">
<title>projectfileoptionsdlg.h</title>
<polygon fill="white" stroke="none" points="-4,4 -4,-80 419,-80 419,4 -4,4"/>
<!-- Node1 -->
<g id="node1" class="node"><title>Node1</title>
<polygon fill="#bfbfbf" stroke="black" points="133,-56.5 133,-75.5 242,-75.5 242,-56.5 133,-56.5"/>
<text text-anchor="middle" x="187.5" y="-63.5" font-family="FreeSans" font-size="10.00">projectfileoptionsdlg.h</text>
</g>
<!-- Node2 -->
<g id="node2" class="node"><title>Node2</title>
<g id="a_node2"><a xlink:href="cbeditor_8cpp.xhtml" target="_top" xlink:title="cbeditor.cpp">
<polygon fill="white" stroke="black" points="0,-0.5 0,-19.5 69,-19.5 69,-0.5 0,-0.5"/>
<text text-anchor="middle" x="34.5" y="-7.5" font-family="FreeSans" font-size="10.00">cbeditor.cpp</text>
</a>
</g>
</g>
<!-- Node1&#45;&gt;Node2 -->
<g id="edge1" class="edge"><title>Node1&#45;&gt;Node2</title>
<path fill="none" stroke="midnightblue" d="M153.611,-53.0392C124.823,-42.8786 84.2129,-28.5457 58.6299,-19.5164"/>
<polygon fill="midnightblue" stroke="midnightblue" points="152.662,-56.4157 163.257,-56.4435 154.992,-49.8148 152.662,-56.4157"/>
</g>
<!-- Node3 -->
<g id="node3" class="node"><title>Node3</title>
<g id="a_node3"><a xlink:href="editormanager_8cpp.xhtml" target="_top" xlink:title="editormanager.cpp">
<polygon fill="white" stroke="black" points="87.5,-0.5 87.5,-19.5 183.5,-19.5 183.5,-0.5 87.5,-0.5"/>
<text text-anchor="middle" x="135.5" y="-7.5" font-family="FreeSans" font-size="10.00">editormanager.cpp</text>
</a>
</g>
</g>
<!-- Node1&#45;&gt;Node3 -->
<g id="edge2" class="edge"><title>Node1&#45;&gt;Node3</title>
<path fill="none" stroke="midnightblue" d="M171.821,-48.7175C162.655,-39.1997 151.447,-27.5608 143.927,-19.7511"/>
<polygon fill="midnightblue" stroke="midnightblue" points="169.456,-51.3075 178.913,-56.083 174.498,-46.452 169.456,-51.3075"/>
</g>
<!-- Node4 -->
<g id="node4" class="node"><title>Node4</title>
<g id="a_node4"><a xlink:href="projectfile_8cpp.xhtml" target="_top" xlink:title="projectfile.cpp">
<polygon fill="white" stroke="black" points="201.5,-0.5 201.5,-19.5 277.5,-19.5 277.5,-0.5 201.5,-0.5"/>
<text text-anchor="middle" x="239.5" y="-7.5" font-family="FreeSans" font-size="10.00">projectfile.cpp</text>
</a>
</g>
</g>
<!-- Node1&#45;&gt;Node4 -->
<g id="edge3" class="edge"><title>Node1&#45;&gt;Node4</title>
<path fill="none" stroke="midnightblue" d="M203.179,-48.7175C212.345,-39.1997 223.553,-27.5608 231.073,-19.7511"/>
<polygon fill="midnightblue" stroke="midnightblue" points="200.502,-46.452 196.087,-56.083 205.544,-51.3075 200.502,-46.452"/>
</g>
<!-- Node5 -->
<g id="node5" class="node"><title>Node5</title>
<g id="a_node5"><a xlink:href="projectfileoptionsdlg_8cpp.xhtml" target="_top" xlink:title="projectfileoptionsdlg.cpp">
<polygon fill="white" stroke="black" points="296,-0.5 296,-19.5 415,-19.5 415,-0.5 296,-0.5"/>
<text text-anchor="middle" x="355.5" y="-7.5" font-family="FreeSans" font-size="10.00">projectfileoptionsdlg.cpp</text>
</a>
</g>
</g>
<!-- Node1&#45;&gt;Node5 -->
<g id="edge4" class="edge"><title>Node1&#45;&gt;Node5</title>
<path fill="none" stroke="midnightblue" d="M223.886,-53.3044C255.542,-43.1294 300.668,-28.6246 329.004,-19.5164"/>
<polygon fill="midnightblue" stroke="midnightblue" points="222.569,-50.0513 214.12,-56.4435 224.711,-56.7155 222.569,-50.0513"/>
</g>
</g>
</svg>
