<?xml version="1.0" encoding="UTF-8" standalone="no"?>
<!DOCTYPE svg PUBLIC "-//W3C//DTD SVG 1.1//EN"
 "http://www.w3.org/Graphics/SVG/1.1/DTD/svg11.dtd">
<!-- Generated by graphviz version 2.38.0 (20140413.2041)
 -->
<!-- Title: projectsfilemasksdlg.h Pages: 1 -->
<svg width="328pt" height="140pt"
 viewBox="0.00 0.00 328.00 140.00" xmlns="http://www.w3.org/2000/svg" xmlns:xlink="http://www.w3.org/1999/xlink">
<g id="graph0" class="graph" transform="scale(1 1) rotate(0) translate(4 136)">
<title>projectsfilemasksdlg.h</title>
<polygon fill="white" stroke="none" points="-4,4 -4,-136 324,-136 324,4 -4,4"/>
<!-- Node1 -->
<g id="node1" class="node"><title>Node1</title>
<polygon fill="#bfbfbf" stroke="black" points="119,-112.5 119,-131.5 229,-131.5 229,-112.5 119,-112.5"/>
<text text-anchor="middle" x="174" y="-119.5" font-family="FreeSans" font-size="10.00">projectsfilemasksdlg.h</text>
</g>
<!-- Node2 -->
<g id="node2" class="node"><title>Node2</title>
<g id="a_node2"><a xlink:href="scrollingdialog_8h" target="_top" xlink:title="scrollingdialog.h">
<polygon fill="white" stroke="black" points="74.5,-56.5 74.5,-75.5 159.5,-75.5 159.5,-56.5 74.5,-56.5"/>
<text text-anchor="middle" x="117" y="-63.5" font-family="FreeSans" font-size="10.00">scrollingdialog.h</text>
</a>
</g>
</g>
<!-- Node1&#45;&gt;Node2 -->
<g id="edge1" class="edge"><title>Node1&#45;&gt;Node2</title>
<path fill="none" stroke="midnightblue" d="M164.842,-112.324C156.499,-104.42 143.968,-92.5482 133.823,-82.9377"/>
<polygon fill="midnightblue" stroke="midnightblue" points="135.991,-80.1705 126.325,-75.8339 131.177,-85.2522 135.991,-80.1705"/>
</g>
<!-- Node6 -->
<g id="node6" class="node"><title>Node6</title>
<g id="a_node6"><a xlink:href="filegroupsandmasks_8h" target="_top" xlink:title="filegroupsandmasks.h">
<polygon fill="white" stroke="black" points="178,-56.5 178,-75.5 286,-75.5 286,-56.5 178,-56.5"/>
<text text-anchor="middle" x="232" y="-63.5" font-family="FreeSans" font-size="10.00">filegroupsandmasks.h</text>
</a>
</g>
</g>
<!-- Node1&#45;&gt;Node6 -->
<g id="edge5" class="edge"><title>Node1&#45;&gt;Node6</title>
<path fill="none" stroke="midnightblue" d="M183.319,-112.324C191.893,-104.341 204.812,-92.3128 215.188,-82.6529"/>
<polygon fill="midnightblue" stroke="midnightblue" points="217.578,-85.2098 222.512,-75.8339 212.808,-80.0865 217.578,-85.2098"/>
</g>
<!-- Node3 -->
<g id="node3" class="node"><title>Node3</title>
<polygon fill="white" stroke="#bfbfbf" points="0,-0.5 0,-19.5 64,-19.5 64,-0.5 0,-0.5"/>
<text text-anchor="middle" x="32" y="-7.5" font-family="FreeSans" font-size="10.00">wx/dialog.h</text>
</g>
<!-- Node2&#45;&gt;Node3 -->
<g id="edge2" class="edge"><title>Node2&#45;&gt;Node3</title>
<path fill="none" stroke="midnightblue" d="M103.343,-56.324C90.0837,-47.9002 69.732,-34.9709 54.1538,-25.0741"/>
<polygon fill="midnightblue" stroke="midnightblue" points="55.9404,-22.0626 45.6228,-19.6545 52.1867,-27.9711 55.9404,-22.0626"/>
</g>
<!-- Node4 -->
<g id="node4" class="node"><title>Node4</title>
<polygon fill="white" stroke="#bfbfbf" points="82,-0.5 82,-19.5 152,-19.5 152,-0.5 82,-0.5"/>
<text text-anchor="middle" x="117" y="-7.5" font-family="FreeSans" font-size="10.00">wx/propdlg.h</text>
</g>
<!-- Node2&#45;&gt;Node4 -->
<g id="edge3" class="edge"><title>Node2&#45;&gt;Node4</title>
<path fill="none" stroke="midnightblue" d="M117,-56.083C117,-49.0059 117,-38.8611 117,-29.9865"/>
<polygon fill="midnightblue" stroke="midnightblue" points="120.5,-29.751 117,-19.7511 113.5,-29.7511 120.5,-29.751"/>
</g>
<!-- Node5 -->
<g id="node5" class="node"><title>Node5</title>
<g id="a_node5"><a xlink:href="settings_8h" target="_top" xlink:title="settings.h">
<polygon fill="white" stroke="black" points="170.5,-0.5 170.5,-19.5 227.5,-19.5 227.5,-0.5 170.5,-0.5"/>
<text text-anchor="middle" x="199" y="-7.5" font-family="FreeSans" font-size="10.00">settings.h</text>
</a>
</g>
</g>
<!-- Node2&#45;&gt;Node5 -->
<g id="edge4" class="edge"><title>Node2&#45;&gt;Node5</title>
<path fill="none" stroke="midnightblue" d="M130.175,-56.324C142.847,-47.979 162.233,-35.2122 177.206,-25.3524"/>
<polygon fill="midnightblue" stroke="midnightblue" points="179.431,-28.0776 185.858,-19.6545 175.581,-22.2313 179.431,-28.0776"/>
</g>
<!-- Node6&#45;&gt;Node5 -->
<g id="edge7" class="edge"><title>Node6&#45;&gt;Node5</title>
<path fill="none" stroke="midnightblue" d="M226.551,-56.083C221.986,-48.6127 215.332,-37.7244 209.707,-28.5199"/>
<polygon fill="midnightblue" stroke="midnightblue" points="212.549,-26.4588 204.348,-19.7511 206.576,-30.109 212.549,-26.4588"/>
</g>
<!-- Node7 -->
<g id="node7" class="node"><title>Node7</title>
<polygon fill="white" stroke="#bfbfbf" points="246,-0.5 246,-19.5 320,-19.5 320,-0.5 246,-0.5"/>
<text text-anchor="middle" x="283" y="-7.5" font-family="FreeSans" font-size="10.00">wx/dynarray.h</text>
</g>
<!-- Node6&#45;&gt;Node7 -->
<g id="edge6" class="edge"><title>Node6&#45;&gt;Node7</title>
<path fill="none" stroke="midnightblue" d="M240.422,-56.083C247.848,-48.2195 258.852,-36.5688 267.812,-27.0813"/>
<polygon fill="midnightblue" stroke="midnightblue" points="270.413,-29.4244 274.735,-19.7511 265.324,-24.618 270.413,-29.4244"/>
</g>
</g>
</svg>
