<?xml version="1.0" encoding="UTF-8" standalone="no"?>
<!DOCTYPE svg PUBLIC "-//W3C//DTD SVG 1.1//EN"
 "http://www.w3.org/Graphics/SVG/1.1/DTD/svg11.dtd">
<!-- Generated by graphviz version 2.40.1 (20161225.0304)
 -->
<!-- Title: projectsfilemasksdlg.h Pages: 1 -->
<svg width="256pt" height="84pt"
 viewBox="0.00 0.00 256.00 84.00" xmlns="http://www.w3.org/2000/svg" xmlns:xlink="http://www.w3.org/1999/xlink">
<g id="graph0" class="graph" transform="scale(1 1) rotate(0) translate(4 80)">
<title>projectsfilemasksdlg.h</title>
<!-- Node9 -->
<g id="node1" class="node">
<title>Node9</title>
<polygon fill="#bfbfbf" stroke="#000000" points="71.5,-56.5 71.5,-75.5 181.5,-75.5 181.5,-56.5 71.5,-56.5"/>
<text text-anchor="middle" x="126.5" y="-63.5" font-family="FreeSans" font-size="10.00" fill="#000000">projectsfilemasksdlg.h</text>
</g>
<!-- Node10 -->
<g id="node2" class="node">
<title>Node10</title>
<g id="a_node2"><a xlink:href="projectsfilemasksdlg_8cpp" target="_top" xlink:title="projectsfilemasksdlg.cpp">
<polygon fill="none" stroke="#000000" points="0,-.5 0,-19.5 121,-19.5 121,-.5 0,-.5"/>
<text text-anchor="middle" x="60.5" y="-7.5" font-family="FreeSans" font-size="10.00" fill="#000000">projectsfilemasksdlg.cpp</text>
</a>
</g>
</g>
<!-- Node9&#45;&gt;Node10 -->
<g id="edge1" class="edge">
<title>Node9&#45;&gt;Node10</title>
<path fill="none" stroke="#191970" d="M107.2245,-49.645C95.7462,-39.9058 81.5723,-27.8795 71.8646,-19.6427"/>
<polygon fill="#191970" stroke="#191970" points="105.1141,-52.4445 115.0037,-56.2455 109.643,-47.1069 105.1141,-52.4445"/>
</g>
<!-- Node11 -->
<g id="node3" class="node">
<title>Node11</title>
<g id="a_node3"><a xlink:href="projectmanagerui_8cpp" target="_top" xlink:title="projectmanagerui.cpp">
<polygon fill="none" stroke="#000000" points="139,-.5 139,-19.5 248,-19.5 248,-.5 139,-.5"/>
<text text-anchor="middle" x="193.5" y="-7.5" font-family="FreeSans" font-size="10.00" fill="#000000">projectmanagerui.cpp</text>
</a>
</g>
</g>
<!-- Node9&#45;&gt;Node11 -->
<g id="edge2" class="edge">
<title>Node9&#45;&gt;Node11</title>
<path fill="none" stroke="#191970" d="M146.0676,-49.645C157.7198,-39.9058 172.1084,-27.8795 181.9632,-19.6427"/>
<polygon fill="#191970" stroke="#191970" points="143.5988,-47.1469 138.1705,-56.2455 148.0879,-52.5179 143.5988,-47.1469"/>
</g>
</g>
</svg>
