<?xml version="1.0" encoding="UTF-8" standalone="no"?>
<!DOCTYPE svg PUBLIC "-//W3C//DTD SVG 1.1//EN"
 "http://www.w3.org/Graphics/SVG/1.1/DTD/svg11.dtd">
<!-- Generated by graphviz version 2.40.1 (20161225.0304)
 -->
<!-- Title: projectfile.h Pages: 1 -->
<svg width="696pt" height="140pt"
 viewBox="0.00 0.00 695.50 140.00" xmlns="http://www.w3.org/2000/svg" xmlns:xlink="http://www.w3.org/1999/xlink">
<g id="graph0" class="graph" transform="scale(1 1) rotate(0) translate(4 136)">
<title>projectfile.h</title>
<!-- Node0 -->
<g id="node1" class="node">
<title>Node0</title>
<polygon fill="#bfbfbf" stroke="#000000" points="243,-112.5 243,-131.5 308,-131.5 308,-112.5 243,-112.5"/>
<text text-anchor="middle" x="275.5" y="-119.5" font-family="FreeSans" font-size="10.00" fill="#000000">projectfile.h</text>
</g>
<!-- Node1 -->
<g id="node2" class="node">
<title>Node1</title>
<polygon fill="none" stroke="#bfbfbf" points="0,-.5 0,-19.5 43,-19.5 43,-.5 0,-.5"/>
<text text-anchor="middle" x="21.5" y="-7.5" font-family="FreeSans" font-size="10.00" fill="#000000">vector</text>
</g>
<!-- Node0&#45;&gt;Node1 -->
<g id="edge1" class="edge">
<title>Node0&#45;&gt;Node1</title>
<path fill="none" stroke="#191970" d="M249.7124,-112.4921C225.8543,-103.5472 189.5026,-89.54 158.5,-76 120.1929,-59.2699 76.8649,-37.9879 49.38,-24.1842"/>
<polygon fill="#191970" stroke="#191970" points="50.8582,-21.0098 40.3531,-19.6332 47.7069,-27.2604 50.8582,-21.0098"/>
</g>
<!-- Node2 -->
<g id="node3" class="node">
<title>Node2</title>
<g id="a_node3"><a xlink:href="settings_8h" target="_top" xlink:title="settings.h">
<polygon fill="none" stroke="#000000" points="61,-.5 61,-19.5 118,-19.5 118,-.5 61,-.5"/>
<text text-anchor="middle" x="89.5" y="-7.5" font-family="FreeSans" font-size="10.00" fill="#000000">settings.h</text>
</a>
</g>
</g>
<!-- Node0&#45;&gt;Node2 -->
<g id="edge2" class="edge">
<title>Node0&#45;&gt;Node2</title>
<path fill="none" stroke="#191970" d="M257.7463,-112.4031C241.0296,-103.2816 215.3623,-89.0561 193.5,-76 165.3523,-59.1902 133.6186,-38.8433 112.6894,-25.2247"/>
<polygon fill="#191970" stroke="#191970" points="114.4416,-22.1888 104.1544,-19.6541 110.6156,-28.0508 114.4416,-22.1888"/>
</g>
<!-- Node3 -->
<g id="node4" class="node">
<title>Node3</title>
<g id="a_node4"><a xlink:href="globals_8h" target="_top" xlink:title="globals.h">
<polygon fill="none" stroke="#000000" points="221.5,-56.5 221.5,-75.5 275.5,-75.5 275.5,-56.5 221.5,-56.5"/>
<text text-anchor="middle" x="248.5" y="-63.5" font-family="FreeSans" font-size="10.00" fill="#000000">globals.h</text>
</a>
</g>
</g>
<!-- Node0&#45;&gt;Node3 -->
<g id="edge3" class="edge">
<title>Node0&#45;&gt;Node3</title>
<path fill="none" stroke="#191970" d="M270.797,-112.2455C267.1576,-104.6973 262.0076,-94.0158 257.5738,-84.8197"/>
<polygon fill="#191970" stroke="#191970" points="260.6449,-83.1303 253.1491,-75.6427 254.3395,-86.1704 260.6449,-83.1303"/>
</g>
<!-- Node5 -->
<g id="node6" class="node">
<title>Node5</title>
<polygon fill="none" stroke="#bfbfbf" points="136.5,-.5 136.5,-19.5 204.5,-19.5 204.5,-.5 136.5,-.5"/>
<text text-anchor="middle" x="170.5" y="-7.5" font-family="FreeSans" font-size="10.00" fill="#000000">wx/treectrl.h</text>
</g>
<!-- Node0&#45;&gt;Node5 -->
<g id="edge16" class="edge">
<title>Node0&#45;&gt;Node5</title>
<path fill="none" stroke="#191970" d="M259.1893,-112.4919C245.6384,-104.0625 226.3977,-90.8162 212.5,-76 199.191,-61.8115 187.6269,-42.8388 180.0215,-28.8773"/>
<polygon fill="#191970" stroke="#191970" points="182.9671,-26.9587 175.2149,-19.7369 176.7715,-30.2167 182.9671,-26.9587"/>
</g>
<!-- Node7 -->
<g id="node8" class="node">
<title>Node7</title>
<polygon fill="none" stroke="#bfbfbf" points="613.5,-.5 613.5,-19.5 687.5,-19.5 687.5,-.5 613.5,-.5"/>
<text text-anchor="middle" x="650.5" y="-7.5" font-family="FreeSans" font-size="10.00" fill="#000000">wx/filename.h</text>
</g>
<!-- Node0&#45;&gt;Node7 -->
<g id="edge15" class="edge">
<title>Node0&#45;&gt;Node7</title>
<path fill="none" stroke="#191970" d="M279.432,-112.4271C286.0859,-97.5684 301.0694,-69.2848 323.5,-56 429.084,6.5333 477.9154,-38.9503 603.4288,-19.9723"/>
<polygon fill="#191970" stroke="#191970" points="604.0867,-23.4114 613.3969,-18.3548 602.9654,-16.5018 604.0867,-23.4114"/>
</g>
<!-- Node11 -->
<g id="node12" class="node">
<title>Node11</title>
<g id="a_node12"><a xlink:href="prep_8h" target="_top" xlink:title="prep.h">
<polygon fill="none" stroke="#000000" points="332,-56.5 332,-75.5 375,-75.5 375,-56.5 332,-56.5"/>
<text text-anchor="middle" x="353.5" y="-63.5" font-family="FreeSans" font-size="10.00" fill="#000000">prep.h</text>
</a>
</g>
</g>
<!-- Node0&#45;&gt;Node11 -->
<g id="edge13" class="edge">
<title>Node0&#45;&gt;Node11</title>
<path fill="none" stroke="#191970" d="M289.0866,-112.2455C300.8305,-103.814 318.0199,-91.4729 331.6882,-81.6598"/>
<polygon fill="#191970" stroke="#191970" points="333.9871,-84.3179 340.0691,-75.6427 329.9046,-78.6316 333.9871,-84.3179"/>
</g>
<!-- Node12 -->
<g id="node13" class="node">
<title>Node12</title>
<polygon fill="none" stroke="#bfbfbf" points="393.5,-56.5 393.5,-75.5 467.5,-75.5 467.5,-56.5 393.5,-56.5"/>
<text text-anchor="middle" x="430.5" y="-63.5" font-family="FreeSans" font-size="10.00" fill="#000000">wx/dynarray.h</text>
</g>
<!-- Node0&#45;&gt;Node12 -->
<g id="edge14" class="edge">
<title>Node0&#45;&gt;Node12</title>
<path fill="none" stroke="#191970" d="M302.1454,-112.3733C327.6964,-103.1419 366.4512,-89.1402 394.6909,-78.9375"/>
<polygon fill="#191970" stroke="#191970" points="395.9865,-82.1909 404.2022,-75.5011 393.6079,-75.6074 395.9865,-82.1909"/>
</g>
<!-- Node13 -->
<g id="node14" class="node">
<title>Node13</title>
<polygon fill="none" stroke="#bfbfbf" points="486,-56.5 486,-75.5 557,-75.5 557,-56.5 486,-56.5"/>
<text text-anchor="middle" x="521.5" y="-63.5" font-family="FreeSans" font-size="10.00" fill="#000000">wx/hashset.h</text>
</g>
<!-- Node0&#45;&gt;Node13 -->
<g id="edge17" class="edge">
<title>Node0&#45;&gt;Node13</title>
<path fill="none" stroke="#191970" d="M308.1669,-114.5636C351.2392,-104.7586 427.2489,-87.4555 475.9491,-76.3693"/>
<polygon fill="#191970" stroke="#191970" points="476.9314,-79.7353 485.9051,-74.1029 475.3776,-72.9099 476.9314,-79.7353"/>
</g>
<!-- Node3&#45;&gt;Node1 -->
<g id="edge4" class="edge">
<title>Node3&#45;&gt;Node1</title>
<path fill="none" stroke="#191970" d="M221.2112,-60.4616C184.7882,-52.8896 118.1191,-38.4042 52.6959,-20.1675"/>
<polygon fill="#191970" stroke="#191970" points="53.6307,-16.7947 43.0561,-17.45 51.7313,-23.5321 53.6307,-16.7947"/>
</g>
<!-- Node3&#45;&gt;Node2 -->
<g id="edge12" class="edge">
<title>Node3&#45;&gt;Node2</title>
<path fill="none" stroke="#191970" d="M221.1669,-56.3733C194.9566,-47.1419 155.2016,-33.1402 126.2332,-22.9375"/>
<polygon fill="#191970" stroke="#191970" points="127.0712,-19.5219 116.4764,-19.5011 124.7458,-26.1244 127.0712,-19.5219"/>
</g>
<!-- Node4 -->
<g id="node5" class="node">
<title>Node4</title>
<polygon fill="none" stroke="#bfbfbf" points="465.5,-.5 465.5,-19.5 527.5,-19.5 527.5,-.5 465.5,-.5"/>
<text text-anchor="middle" x="496.5" y="-7.5" font-family="FreeSans" font-size="10.00" fill="#000000">wx/string.h</text>
</g>
<!-- Node3&#45;&gt;Node4 -->
<g id="edge5" class="edge">
<title>Node3&#45;&gt;Node4</title>
<path fill="none" stroke="#191970" d="M275.8228,-59.2275C280.3851,-58.1278 285.0727,-57.0169 289.5,-56 360.4651,-39.6999 380.8939,-37.3825 455.2375,-20.2408"/>
<polygon fill="#191970" stroke="#191970" points="456.13,-23.6268 465.0806,-17.9578 454.5483,-16.8078 456.13,-23.6268"/>
</g>
<!-- Node3&#45;&gt;Node5 -->
<g id="edge6" class="edge">
<title>Node3&#45;&gt;Node5</title>
<path fill="none" stroke="#191970" d="M234.9134,-56.2455C223.1695,-47.814 205.9801,-35.4729 192.3118,-25.6598"/>
<polygon fill="#191970" stroke="#191970" points="194.0954,-22.6316 183.9309,-19.6427 190.0129,-28.3179 194.0954,-22.6316"/>
</g>
<!-- Node6 -->
<g id="node7" class="node">
<title>Node6</title>
<polygon fill="none" stroke="#bfbfbf" points="545.5,-.5 545.5,-19.5 595.5,-19.5 595.5,-.5 545.5,-.5"/>
<text text-anchor="middle" x="570.5" y="-7.5" font-family="FreeSans" font-size="10.00" fill="#000000">wx/file.h</text>
</g>
<!-- Node3&#45;&gt;Node6 -->
<g id="edge7" class="edge">
<title>Node3&#45;&gt;Node6</title>
<path fill="none" stroke="#191970" d="M275.768,-58.9688C280.3368,-57.9002 285.0409,-56.8667 289.5,-56 395.2091,-35.4528 426.3161,-43.2162 535.2696,-20.0141"/>
<polygon fill="#191970" stroke="#191970" points="536.3208,-23.3675 545.3515,-17.827 534.8368,-16.5266 536.3208,-23.3675"/>
</g>
<!-- Node3&#45;&gt;Node7 -->
<g id="edge8" class="edge">
<title>Node3&#45;&gt;Node7</title>
<path fill="none" stroke="#191970" d="M275.7458,-58.8498C280.3173,-57.7955 285.028,-56.7977 289.5,-56 424.9706,-31.8364 463.6756,-42.4655 603.1829,-20.0691"/>
<polygon fill="#191970" stroke="#191970" points="604.0998,-23.4658 613.4043,-18.3986 602.9707,-16.5574 604.0998,-23.4658"/>
</g>
<!-- Node8 -->
<g id="node9" class="node">
<title>Node8</title>
<polygon fill="none" stroke="#bfbfbf" points="223,-.5 223,-19.5 274,-19.5 274,-.5 223,-.5"/>
<text text-anchor="middle" x="248.5" y="-7.5" font-family="FreeSans" font-size="10.00" fill="#000000">wx/intl.h</text>
</g>
<!-- Node3&#45;&gt;Node8 -->
<g id="edge9" class="edge">
<title>Node3&#45;&gt;Node8</title>
<path fill="none" stroke="#191970" d="M248.5,-56.2455C248.5,-48.9382 248.5,-38.6944 248.5,-29.7046"/>
<polygon fill="#191970" stroke="#191970" points="252.0001,-29.6426 248.5,-19.6427 245.0001,-29.6427 252.0001,-29.6426"/>
</g>
<!-- Node9 -->
<g id="node10" class="node">
<title>Node9</title>
<polygon fill="none" stroke="#bfbfbf" points="292,-.5 292,-19.5 361,-19.5 361,-.5 292,-.5"/>
<text text-anchor="middle" x="326.5" y="-7.5" font-family="FreeSans" font-size="10.00" fill="#000000">wx/msgdlg.h</text>
</g>
<!-- Node3&#45;&gt;Node9 -->
<g id="edge10" class="edge">
<title>Node3&#45;&gt;Node9</title>
<path fill="none" stroke="#191970" d="M262.0866,-56.2455C273.8305,-47.814 291.0199,-35.4729 304.6882,-25.6598"/>
<polygon fill="#191970" stroke="#191970" points="306.9871,-28.3179 313.0691,-19.6427 302.9046,-22.6316 306.9871,-28.3179"/>
</g>
<!-- Node10 -->
<g id="node11" class="node">
<title>Node10</title>
<polygon fill="none" stroke="#bfbfbf" points="379.5,-.5 379.5,-19.5 447.5,-19.5 447.5,-.5 379.5,-.5"/>
<text text-anchor="middle" x="413.5" y="-7.5" font-family="FreeSans" font-size="10.00" fill="#000000">wx/bitmap.h</text>
</g>
<!-- Node3&#45;&gt;Node10 -->
<g id="edge11" class="edge">
<title>Node3&#45;&gt;Node10</title>
<path fill="none" stroke="#191970" d="M275.7464,-56.7527C302.9666,-47.5144 345.0388,-33.2353 375.5271,-22.8878"/>
<polygon fill="#191970" stroke="#191970" points="377.0398,-26.0705 385.3844,-19.5423 374.79,-19.4419 377.0398,-26.0705"/>
</g>
</g>
</svg>
