<?xml version="1.0" encoding="UTF-8" standalone="no"?>
<!DOCTYPE svg PUBLIC "-//W3C//DTD SVG 1.1//EN"
 "http://www.w3.org/Graphics/SVG/1.1/DTD/svg11.dtd">
<!-- Generated by graphviz version 2.38.0 (20140413.2041)
 -->
<!-- Title: recentitemslist.h Pages: 1 -->
<svg width="351pt" height="196pt"
 viewBox="0.00 0.00 350.50 196.00" xmlns="http://www.w3.org/2000/svg" xmlns:xlink="http://www.w3.org/1999/xlink">
<g id="graph0" class="graph" transform="scale(1 1) rotate(0) translate(4 192)">
<title>recentitemslist.h</title>
<!-- Node1 -->
<g id="node1" class="node"><title>Node1</title>
<polygon fill="#bfbfbf" stroke="black" points="174,-168.5 174,-187.5 260,-187.5 260,-168.5 174,-168.5"/>
<text text-anchor="middle" x="217" y="-175.5" font-family="FreeSans" font-size="10.00">recentitemslist.h</text>
</g>
<!-- Node2 -->
<g id="node2" class="node"><title>Node2</title>
<g id="a_node2"><a xlink:href="main_8h" target="_top" xlink:title="main.h">
<polygon fill="none" stroke="black" points="125.5,-112.5 125.5,-131.5 170.5,-131.5 170.5,-112.5 125.5,-112.5"/>
<text text-anchor="middle" x="148" y="-119.5" font-family="FreeSans" font-size="10.00">main.h</text>
</a>
</g>
</g>
<!-- Node1&#45;&gt;Node2 -->
<g id="edge1" class="edge"><title>Node1&#45;&gt;Node2</title>
<path fill="none" stroke="midnightblue" d="M197.962,-162.101C185.544,-152.382 169.757,-140.027 159.288,-131.834"/>
<polygon fill="midnightblue" stroke="midnightblue" points="195.882,-164.917 205.914,-168.324 200.196,-159.405 195.882,-164.917"/>
</g>
<!-- Node7 -->
<g id="node7" class="node"><title>Node7</title>
<g id="a_node7"><a xlink:href="startherepage_8cpp" target="_top" xlink:title="startherepage.cpp">
<polygon fill="none" stroke="black" points="189.5,-56.5 189.5,-75.5 282.5,-75.5 282.5,-56.5 189.5,-56.5"/>
<text text-anchor="middle" x="236" y="-63.5" font-family="FreeSans" font-size="10.00">startherepage.cpp</text>
</a>
</g>
</g>
<!-- Node1&#45;&gt;Node7 -->
<g id="edge9" class="edge"><title>Node1&#45;&gt;Node7</title>
<path fill="none" stroke="midnightblue" d="M220.222,-158.348C224.383,-134.254 231.456,-93.3079 234.516,-75.5914"/>
<polygon fill="midnightblue" stroke="midnightblue" points="216.744,-157.919 218.491,-168.368 223.642,-159.11 216.744,-157.919"/>
</g>
<!-- Node8 -->
<g id="node8" class="node"><title>Node8</title>
<g id="a_node8"><a xlink:href="recentitemslist_8cpp" target="_top" xlink:title="recentitemslist.cpp">
<polygon fill="none" stroke="black" points="245.5,-112.5 245.5,-131.5 342.5,-131.5 342.5,-112.5 245.5,-112.5"/>
<text text-anchor="middle" x="294" y="-119.5" font-family="FreeSans" font-size="10.00">recentitemslist.cpp</text>
</a>
</g>
</g>
<!-- Node1&#45;&gt;Node8 -->
<g id="edge8" class="edge"><title>Node1&#45;&gt;Node8</title>
<path fill="none" stroke="midnightblue" d="M237.901,-162.342C251.911,-152.517 269.883,-139.913 281.659,-131.655"/>
<polygon fill="midnightblue" stroke="midnightblue" points="235.549,-159.717 229.371,-168.324 239.568,-165.448 235.549,-159.717"/>
</g>
<!-- Node3 -->
<g id="node3" class="node"><title>Node3</title>
<g id="a_node3"><a xlink:href="app_8h" target="_top" xlink:title="app.h">
<polygon fill="none" stroke="black" points="28,-56.5 28,-75.5 68,-75.5 68,-56.5 28,-56.5"/>
<text text-anchor="middle" x="48" y="-63.5" font-family="FreeSans" font-size="10.00">app.h</text>
</a>
</g>
</g>
<!-- Node2&#45;&gt;Node3 -->
<g id="edge2" class="edge"><title>Node2&#45;&gt;Node3</title>
<path fill="none" stroke="midnightblue" d="M122.912,-107.453C104.451,-97.4835 79.9034,-84.2279 64.0269,-75.6545"/>
<polygon fill="midnightblue" stroke="midnightblue" points="121.471,-110.652 131.933,-112.324 124.797,-104.493 121.471,-110.652"/>
</g>
<!-- Node5 -->
<g id="node5" class="node"><title>Node5</title>
<g id="a_node5"><a xlink:href="main_8cpp" target="_top" xlink:title="main.cpp">
<polygon fill="none" stroke="black" points="68,-0.5 68,-19.5 124,-19.5 124,-0.5 68,-0.5"/>
<text text-anchor="middle" x="96" y="-7.5" font-family="FreeSans" font-size="10.00">main.cpp</text>
</a>
</g>
</g>
<!-- Node2&#45;&gt;Node5 -->
<g id="edge6" class="edge"><title>Node2&#45;&gt;Node5</title>
<path fill="none" stroke="midnightblue" d="M133.655,-104.393C127.221,-96.2668 119.976,-86.0798 115,-76 105.632,-57.0238 100.045,-32.5979 97.5525,-19.7675"/>
<polygon fill="midnightblue" stroke="midnightblue" points="131.112,-106.81 140.174,-112.3 136.513,-102.357 131.112,-106.81"/>
</g>
<!-- Node6 -->
<g id="node6" class="node"><title>Node6</title>
<g id="a_node6"><a xlink:href="ipc_8cpp" target="_top" xlink:title="ipc.cpp">
<polygon fill="none" stroke="black" points="124.5,-56.5 124.5,-75.5 171.5,-75.5 171.5,-56.5 124.5,-56.5"/>
<text text-anchor="middle" x="148" y="-63.5" font-family="FreeSans" font-size="10.00">ipc.cpp</text>
</a>
</g>
</g>
<!-- Node2&#45;&gt;Node6 -->
<g id="edge5" class="edge"><title>Node2&#45;&gt;Node6</title>
<path fill="none" stroke="midnightblue" d="M148,-101.805C148,-92.9102 148,-82.7798 148,-75.7511"/>
<polygon fill="midnightblue" stroke="midnightblue" points="144.5,-102.083 148,-112.083 151.5,-102.083 144.5,-102.083"/>
</g>
<!-- Node2&#45;&gt;Node7 -->
<g id="edge7" class="edge"><title>Node2&#45;&gt;Node7</title>
<path fill="none" stroke="midnightblue" d="M170.977,-106.901C187.113,-96.9986 208.181,-84.0705 221.896,-75.6545"/>
<polygon fill="midnightblue" stroke="midnightblue" points="168.831,-104.111 162.139,-112.324 172.493,-110.077 168.831,-104.111"/>
</g>
<!-- Node4 -->
<g id="node4" class="node"><title>Node4</title>
<g id="a_node4"><a xlink:href="app_8cpp" target="_top" xlink:title="app.cpp">
<polygon fill="none" stroke="black" points="0,-0.5 0,-19.5 50,-19.5 50,-0.5 0,-0.5"/>
<text text-anchor="middle" x="25" y="-7.5" font-family="FreeSans" font-size="10.00">app.cpp</text>
</a>
</g>
</g>
<!-- Node3&#45;&gt;Node4 -->
<g id="edge3" class="edge"><title>Node3&#45;&gt;Node4</title>
<path fill="none" stroke="midnightblue" d="M40.2012,-46.6897C36.325,-37.589 31.8208,-27.0141 28.7273,-19.7511"/>
<polygon fill="midnightblue" stroke="midnightblue" points="37.0633,-48.2543 44.202,-56.083 43.5034,-45.5112 37.0633,-48.2543"/>
</g>
<!-- Node3&#45;&gt;Node5 -->
<g id="edge4" class="edge"><title>Node3&#45;&gt;Node5</title>
<path fill="none" stroke="midnightblue" d="M62.7277,-48.4314C71.1401,-38.9673 81.3487,-27.4827 88.2213,-19.7511"/>
<polygon fill="midnightblue" stroke="midnightblue" points="59.954,-46.2836 55.9262,-56.083 65.1858,-50.9342 59.954,-46.2836"/>
</g>
</g>
</svg>
