<?xml version="1.0" encoding="UTF-8" standalone="no"?>
<!DOCTYPE svg PUBLIC "-//W3C//DTD SVG 1.1//EN"
 "http://www.w3.org/Graphics/SVG/1.1/DTD/svg11.dtd">
<!-- Generated by graphviz version 2.40.1 (20161225.0304)
 -->
<!-- Title: safedelete.h Pages: 1 -->
<svg width="287pt" height="84pt"
 viewBox="0.00 0.00 286.50 84.00" xmlns="http://www.w3.org/2000/svg" xmlns:xlink="http://www.w3.org/1999/xlink">
<g id="graph0" class="graph" transform="scale(1 1) rotate(0) translate(4 80)">
<title>safedelete.h</title>
<!-- Node0 -->
<g id="node1" class="node">
<title>Node0</title>
<polygon fill="#bfbfbf" stroke="#000000" points="94.5,-56.5 94.5,-75.5 162.5,-75.5 162.5,-56.5 94.5,-56.5"/>
<text text-anchor="middle" x="128.5" y="-63.5" font-family="FreeSans" font-size="10.00" fill="#000000">safedelete.h</text>
</g>
<!-- Node1 -->
<g id="node2" class="node">
<title>Node1</title>
<polygon fill="none" stroke="#bfbfbf" points="0,-.5 0,-19.5 35,-19.5 35,-.5 0,-.5"/>
<text text-anchor="middle" x="17.5" y="-7.5" font-family="FreeSans" font-size="10.00" fill="#000000">map</text>
</g>
<!-- Node0&#45;&gt;Node1 -->
<g id="edge1" class="edge">
<title>Node0&#45;&gt;Node1</title>
<path fill="none" stroke="#191970" d="M109.4184,-56.3733C91.4388,-47.3024 64.3295,-33.6257 44.2056,-23.4731"/>
<polygon fill="#191970" stroke="#191970" points="45.7387,-20.3264 35.2341,-18.9469 42.5857,-26.5761 45.7387,-20.3264"/>
</g>
<!-- Node2 -->
<g id="node3" class="node">
<title>Node2</title>
<polygon fill="none" stroke="#bfbfbf" points="53,-.5 53,-19.5 96,-19.5 96,-.5 53,-.5"/>
<text text-anchor="middle" x="74.5" y="-7.5" font-family="FreeSans" font-size="10.00" fill="#000000">vector</text>
</g>
<!-- Node0&#45;&gt;Node2 -->
<g id="edge2" class="edge">
<title>Node0&#45;&gt;Node2</title>
<path fill="none" stroke="#191970" d="M119.0939,-56.2455C111.3507,-48.2155 100.188,-36.6394 90.9682,-27.0781"/>
<polygon fill="#191970" stroke="#191970" points="93.2591,-24.4117 83.7983,-19.6427 88.2202,-29.2706 93.2591,-24.4117"/>
</g>
<!-- Node3 -->
<g id="node4" class="node">
<title>Node3</title>
<polygon fill="none" stroke="#bfbfbf" points="114,-.5 114,-19.5 143,-19.5 143,-.5 114,-.5"/>
<text text-anchor="middle" x="128.5" y="-7.5" font-family="FreeSans" font-size="10.00" fill="#000000">list</text>
</g>
<!-- Node0&#45;&gt;Node3 -->
<g id="edge3" class="edge">
<title>Node0&#45;&gt;Node3</title>
<path fill="none" stroke="#191970" d="M128.5,-56.2455C128.5,-48.9382 128.5,-38.6944 128.5,-29.7046"/>
<polygon fill="#191970" stroke="#191970" points="132.0001,-29.6426 128.5,-19.6427 125.0001,-29.6427 132.0001,-29.6426"/>
</g>
<!-- Node4 -->
<g id="node5" class="node">
<title>Node4</title>
<polygon fill="none" stroke="#bfbfbf" points="161,-.5 161,-19.5 204,-19.5 204,-.5 161,-.5"/>
<text text-anchor="middle" x="182.5" y="-7.5" font-family="FreeSans" font-size="10.00" fill="#000000">deque</text>
</g>
<!-- Node0&#45;&gt;Node4 -->
<g id="edge4" class="edge">
<title>Node0&#45;&gt;Node4</title>
<path fill="none" stroke="#191970" d="M137.9061,-56.2455C145.6493,-48.2155 156.812,-36.6394 166.0318,-27.0781"/>
<polygon fill="#191970" stroke="#191970" points="168.7798,-29.2706 173.2017,-19.6427 163.7409,-24.4117 168.7798,-29.2706"/>
</g>
<!-- Node5 -->
<g id="node6" class="node">
<title>Node5</title>
<polygon fill="none" stroke="#bfbfbf" points="222.5,-.5 222.5,-19.5 278.5,-19.5 278.5,-.5 222.5,-.5"/>
<text text-anchor="middle" x="250.5" y="-7.5" font-family="FreeSans" font-size="10.00" fill="#000000">algorithm</text>
</g>
<!-- Node0&#45;&gt;Node5 -->
<g id="edge5" class="edge">
<title>Node0&#45;&gt;Node5</title>
<path fill="none" stroke="#191970" d="M149.4725,-56.3733C169.0567,-47.3838 198.4961,-33.8706 220.551,-23.7471"/>
<polygon fill="#191970" stroke="#191970" points="222.1729,-26.8538 229.8011,-19.5011 219.2527,-20.4919 222.1729,-26.8538"/>
</g>
</g>
</svg>
