<?xml version="1.0" encoding="UTF-8" standalone="no"?>
<!DOCTYPE svg PUBLIC "-//W3C//DTD SVG 1.1//EN"
 "http://www.w3.org/Graphics/SVG/1.1/DTD/svg11.dtd">
<!-- Generated by graphviz version 2.40.1 (20161225.0304)
 -->
<!-- Title: sc_globals.cpp Pages: 1 -->
<svg width="2198pt" height="308pt"
 viewBox="0.00 0.00 2197.50 308.00" xmlns="http://www.w3.org/2000/svg" xmlns:xlink="http://www.w3.org/1999/xlink">
<g id="graph0" class="graph" transform="scale(1 1) rotate(0) translate(4 304)">
<title>sc_globals.cpp</title>
<!-- Node0 -->
<g id="node1" class="node">
<title>Node0</title>
<polygon fill="#bfbfbf" stroke="#000000" points="538,-280.5 538,-299.5 618,-299.5 618,-280.5 538,-280.5"/>
<text text-anchor="middle" x="578" y="-287.5" font-family="FreeSans" font-size="10.00" fill="#000000">sc_globals.cpp</text>
</g>
<!-- Node1 -->
<g id="node2" class="node">
<title>Node1</title>
<g id="a_node2"><a xlink:href="sdk__precomp_8h" target="_top" xlink:title="sdk_precomp.h">
<polygon fill="none" stroke="#000000" points="537,-224.5 537,-243.5 619,-243.5 619,-224.5 537,-224.5"/>
<text text-anchor="middle" x="578" y="-231.5" font-family="FreeSans" font-size="10.00" fill="#000000">sdk_precomp.h</text>
</a>
</g>
</g>
<!-- Node0&#45;&gt;Node1 -->
<g id="edge1" class="edge">
<title>Node0&#45;&gt;Node1</title>
<path fill="none" stroke="#191970" d="M578,-280.2455C578,-272.9382 578,-262.6944 578,-253.7046"/>
<polygon fill="#191970" stroke="#191970" points="581.5001,-253.6426 578,-243.6427 574.5001,-253.6427 581.5001,-253.6426"/>
</g>
<!-- Node13 -->
<g id="node9" class="node">
<title>Node13</title>
<polygon fill="none" stroke="#bfbfbf" points="0,-112.5 0,-131.5 72,-131.5 72,-112.5 0,-112.5"/>
<text text-anchor="middle" x="36" y="-119.5" font-family="FreeSans" font-size="10.00" fill="#000000">wx/colordlg.h</text>
</g>
<!-- Node0&#45;&gt;Node13 -->
<g id="edge70" class="edge">
<title>Node0&#45;&gt;Node13</title>
<path fill="none" stroke="#191970" d="M544.3337,-280.455C512.298,-271.3116 462.7737,-257.0192 420,-244 293.3919,-205.4637 144.1862,-157.2527 74.9358,-134.7151"/>
<polygon fill="#191970" stroke="#191970" points="75.9032,-131.3493 65.3109,-131.5804 73.7354,-138.0052 75.9032,-131.3493"/>
</g>
<!-- Node134 -->
<g id="node27" class="node">
<title>Node134</title>
<g id="a_node27"><a xlink:href="infowindow_8h" target="_top" xlink:title="infowindow.h">
<polygon fill="none" stroke="#ff0000" points="128.5,-112.5 128.5,-131.5 199.5,-131.5 199.5,-112.5 128.5,-112.5"/>
<text text-anchor="middle" x="164" y="-119.5" font-family="FreeSans" font-size="10.00" fill="#000000">infowindow.h</text>
</a>
</g>
</g>
<!-- Node0&#45;&gt;Node134 -->
<g id="edge72" class="edge">
<title>Node0&#45;&gt;Node134</title>
<path fill="none" stroke="#191970" d="M554.5554,-280.4862C484.7576,-252.1625 278.1484,-168.3211 197.1293,-135.4438"/>
<polygon fill="#191970" stroke="#191970" points="198.0257,-132.0304 187.4435,-131.5133 195.3935,-138.5167 198.0257,-132.0304"/>
</g>
<!-- Node137 -->
<g id="node28" class="node">
<title>Node137</title>
<g id="a_node28"><a xlink:href="sc__base__types_8h" target="_top" xlink:title="sc_base_types.h">
<polygon fill="none" stroke="#000000" points="1453.5,-168.5 1453.5,-187.5 1540.5,-187.5 1540.5,-168.5 1453.5,-168.5"/>
<text text-anchor="middle" x="1497" y="-175.5" font-family="FreeSans" font-size="10.00" fill="#000000">sc_base_types.h</text>
</a>
</g>
</g>
<!-- Node0&#45;&gt;Node137 -->
<g id="edge51" class="edge">
<title>Node0&#45;&gt;Node137</title>
<path fill="none" stroke="#191970" d="M587.1325,-280.1291C601.9677,-264.8621 632.9843,-236.0292 666,-224 738.6334,-197.5361 1270.5443,-183.1718 1443.1094,-179.1711"/>
<polygon fill="#191970" stroke="#191970" points="1443.3112,-182.6675 1453.2282,-178.9389 1443.1505,-175.6693 1443.3112,-182.6675"/>
</g>
<!-- Node141 -->
<g id="node32" class="node">
<title>Node141</title>
<polygon fill="none" stroke="#bfbfbf" points="675,-224.5 675,-243.5 745,-243.5 745,-224.5 675,-224.5"/>
<text text-anchor="middle" x="710" y="-231.5" font-family="FreeSans" font-size="10.00" fill="#000000">wx/numdlg.h</text>
</g>
<!-- Node0&#45;&gt;Node141 -->
<g id="edge71" class="edge">
<title>Node0&#45;&gt;Node141</title>
<path fill="none" stroke="#191970" d="M600.6916,-280.3733C622.0711,-271.3032 654.3057,-257.6279 678.2362,-247.4755"/>
<polygon fill="#191970" stroke="#191970" points="679.7656,-250.6287 687.6045,-243.5011 677.0317,-244.1846 679.7656,-250.6287"/>
</g>
<!-- Node2 -->
<g id="node3" class="node">
<title>Node2</title>
<g id="a_node3"><a xlink:href="sdk__common_8h" target="_top" xlink:title="sdk_common.h">
<polygon fill="none" stroke="#ff0000" points="653,-168.5 653,-187.5 735,-187.5 735,-168.5 653,-168.5"/>
<text text-anchor="middle" x="694" y="-175.5" font-family="FreeSans" font-size="10.00" fill="#000000">sdk_common.h</text>
</a>
</g>
</g>
<!-- Node1&#45;&gt;Node2 -->
<g id="edge2" class="edge">
<title>Node1&#45;&gt;Node2</title>
<path fill="none" stroke="#191970" d="M597.9411,-224.3733C616.4786,-215.4241 644.3028,-201.9917 665.2413,-191.8835"/>
<polygon fill="#191970" stroke="#191970" points="666.8352,-195.0006 674.3191,-187.5011 663.7919,-188.6967 666.8352,-195.0006"/>
</g>
<!-- Node3 -->
<g id="node4" class="node">
<title>Node3</title>
<polygon fill="none" stroke="#bfbfbf" points="540,-112.5 540,-131.5 608,-131.5 608,-112.5 540,-112.5"/>
<text text-anchor="middle" x="574" y="-119.5" font-family="FreeSans" font-size="10.00" fill="#000000">wx/wxprec.h</text>
</g>
<!-- Node2&#45;&gt;Node3 -->
<g id="edge3" class="edge">
<title>Node2&#45;&gt;Node3</title>
<path fill="none" stroke="#191970" d="M673.3713,-168.3733C654.1081,-159.3838 625.1514,-145.8706 603.4581,-135.7471"/>
<polygon fill="#191970" stroke="#191970" points="604.9015,-132.5584 594.3595,-131.5011 601.9413,-138.9017 604.9015,-132.5584"/>
</g>
<!-- Node4 -->
<g id="node5" class="node">
<title>Node4</title>
<g id="a_node5"><a xlink:href="prep_8h" target="_top" xlink:title="prep.h">
<polygon fill="none" stroke="#000000" points="533.5,-56.5 533.5,-75.5 576.5,-75.5 576.5,-56.5 533.5,-56.5"/>
<text text-anchor="middle" x="555" y="-63.5" font-family="FreeSans" font-size="10.00" fill="#000000">prep.h</text>
</a>
</g>
</g>
<!-- Node2&#45;&gt;Node4 -->
<g id="edge4" class="edge">
<title>Node2&#45;&gt;Node4</title>
<path fill="none" stroke="#191970" d="M652.796,-172.0922C609.5066,-164.9427 545.6839,-151.4014 531,-132 520.1539,-117.6694 529.7555,-97.9596 539.8531,-83.8167"/>
<polygon fill="#191970" stroke="#191970" points="542.6811,-85.8811 546.026,-75.8281 537.1421,-81.601 542.6811,-85.8811"/>
</g>
<!-- Node5 -->
<g id="node6" class="node">
<title>Node5</title>
<polygon fill="none" stroke="#bfbfbf" points="256,-112.5 256,-131.5 310,-131.5 310,-112.5 256,-112.5"/>
<text text-anchor="middle" x="283" y="-119.5" font-family="FreeSans" font-size="10.00" fill="#000000">wx/app.h</text>
</g>
<!-- Node2&#45;&gt;Node5 -->
<g id="edge5" class="edge">
<title>Node2&#45;&gt;Node5</title>
<path fill="none" stroke="#191970" d="M652.8971,-174.973C585.3157,-169.559 446.4214,-156.5961 319.8859,-131.9236"/>
<polygon fill="#191970" stroke="#191970" points="320.5123,-128.4797 310.023,-129.9714 319.153,-135.3465 320.5123,-128.4797"/>
</g>
<!-- Node6 -->
<g id="node7" class="node">
<title>Node6</title>
<polygon fill="none" stroke="#bfbfbf" points="1336,-112.5 1336,-131.5 1396,-131.5 1396,-112.5 1336,-112.5"/>
<text text-anchor="middle" x="1366" y="-119.5" font-family="FreeSans" font-size="10.00" fill="#000000">wx/arrstr.h</text>
</g>
<!-- Node2&#45;&gt;Node6 -->
<g id="edge6" class="edge">
<title>Node2&#45;&gt;Node6</title>
<path fill="none" stroke="#191970" d="M735.0254,-177.5464C834.7566,-175.905 1097.8417,-168.342 1325.7389,-131.9326"/>
<polygon fill="#191970" stroke="#191970" points="1326.5674,-135.344 1335.8788,-130.2895 1325.4477,-128.4342 1326.5674,-135.344"/>
</g>
<!-- Node7 -->
<g id="node8" class="node">
<title>Node7</title>
<polygon fill="none" stroke="#bfbfbf" points="328.5,-112.5 328.5,-131.5 407.5,-131.5 407.5,-112.5 328.5,-112.5"/>
<text text-anchor="middle" x="368" y="-119.5" font-family="FreeSans" font-size="10.00" fill="#000000">wx/bmpbuttn.h</text>
</g>
<!-- Node2&#45;&gt;Node7 -->
<g id="edge7" class="edge">
<title>Node2&#45;&gt;Node7</title>
<path fill="none" stroke="#191970" d="M652.9536,-171.2629C599.6717,-162.4705 503.8201,-146.4936 422,-132 420.5331,-131.7402 419.0441,-131.4748 417.5411,-131.2055"/>
<polygon fill="#191970" stroke="#191970" points="417.9697,-127.7263 407.5062,-129.3893 416.723,-134.6144 417.9697,-127.7263"/>
</g>
<!-- Node2&#45;&gt;Node13 -->
<g id="edge8" class="edge">
<title>Node2&#45;&gt;Node13</title>
<path fill="none" stroke="#191970" d="M652.8978,-176.6197C554.5583,-172.9412 298.1061,-161.1239 86,-132 84.742,-131.8273 83.4681,-131.6425 82.1838,-131.4476"/>
<polygon fill="#191970" stroke="#191970" points="82.6728,-127.9809 72.2329,-129.786 81.5199,-134.8853 82.6728,-127.9809"/>
</g>
<!-- Node21 -->
<g id="node10" class="node">
<title>Node21</title>
<polygon fill="none" stroke="#bfbfbf" points="133,-.5 133,-19.5 195,-19.5 195,-.5 133,-.5"/>
<text text-anchor="middle" x="164" y="-7.5" font-family="FreeSans" font-size="10.00" fill="#000000">wx/event.h</text>
</g>
<!-- Node2&#45;&gt;Node21 -->
<g id="edge9" class="edge">
<title>Node2&#45;&gt;Node21</title>
<path fill="none" stroke="#191970" d="M652.7662,-176.221C524.0414,-170.4704 137.1079,-151.6144 119,-132 91.0875,-101.7653 125.7355,-52.737 148.0075,-27.005"/>
<polygon fill="#191970" stroke="#191970" points="150.6446,-29.3067 154.7088,-19.5223 145.4301,-24.6366 150.6446,-29.3067"/>
</g>
<!-- Node53 -->
<g id="node11" class="node">
<title>Node53</title>
<polygon fill="none" stroke="#bfbfbf" points="670,-.5 670,-19.5 732,-19.5 732,-.5 670,-.5"/>
<text text-anchor="middle" x="701" y="-7.5" font-family="FreeSans" font-size="10.00" fill="#000000">wx/string.h</text>
</g>
<!-- Node2&#45;&gt;Node53 -->
<g id="edge10" class="edge">
<title>Node2&#45;&gt;Node53</title>
<path fill="none" stroke="#191970" d="M652.8428,-172.6957C607.4446,-165.9011 538.7106,-152.4953 523,-132 514.2979,-120.6476 501.1223,-85.0438 524,-56 540.6211,-34.8991 612.5941,-21.5962 659.4882,-15.0011"/>
<polygon fill="#191970" stroke="#191970" points="660.2249,-18.4333 669.663,-13.6194 659.2829,-11.4969 660.2249,-18.4333"/>
</g>
<!-- Node57 -->
<g id="node12" class="node">
<title>Node57</title>
<polygon fill="none" stroke="#bfbfbf" points="386,-56.5 386,-75.5 446,-75.5 446,-56.5 386,-56.5"/>
<text text-anchor="middle" x="416" y="-63.5" font-family="FreeSans" font-size="10.00" fill="#000000">wx/timer.h</text>
</g>
<!-- Node2&#45;&gt;Node57 -->
<g id="edge11" class="edge">
<title>Node2&#45;&gt;Node57</title>
<path fill="none" stroke="#191970" d="M652.5698,-173.7133C594.0892,-167.0224 490.9948,-152.6833 460,-132 443.061,-120.6964 431.01,-100.4297 423.8519,-85.3264"/>
<polygon fill="#191970" stroke="#191970" points="426.9177,-83.6043 419.6781,-75.8687 420.5136,-86.4306 426.9177,-83.6043"/>
</g>
<!-- Node71 -->
<g id="node13" class="node">
<title>Node71</title>
<g id="a_node13"><a xlink:href="settings_8h" target="_top" xlink:title="settings.h">
<polygon fill="none" stroke="#000000" points="1001.5,-.5 1001.5,-19.5 1058.5,-19.5 1058.5,-.5 1001.5,-.5"/>
<text text-anchor="middle" x="1030" y="-7.5" font-family="FreeSans" font-size="10.00" fill="#000000">settings.h</text>
</a>
</g>
</g>
<!-- Node2&#45;&gt;Node71 -->
<g id="edge12" class="edge">
<title>Node2&#45;&gt;Node71</title>
<path fill="none" stroke="#191970" d="M681.1143,-168.3798C665.2409,-155.3286 641.8917,-131.4132 655,-112 693.0046,-55.7158 903.1409,-24.8764 991.1804,-14.2695"/>
<polygon fill="#191970" stroke="#191970" points="991.7711,-17.7242 1001.2918,-13.0759 990.9504,-10.7724 991.7711,-17.7242"/>
</g>
<!-- Node72 -->
<g id="node14" class="node">
<title>Node72</title>
<g id="a_node14"><a xlink:href="globals_8h" target="_top" xlink:title="globals.h">
<polygon fill="none" stroke="#ff0000" points="901,-56.5 901,-75.5 955,-75.5 955,-56.5 901,-56.5"/>
<text text-anchor="middle" x="928" y="-63.5" font-family="FreeSans" font-size="10.00" fill="#000000">globals.h</text>
</a>
</g>
</g>
<!-- Node2&#45;&gt;Node72 -->
<g id="edge13" class="edge">
<title>Node2&#45;&gt;Node72</title>
<path fill="none" stroke="#191970" d="M735.1037,-168.4792C764.439,-160.8106 804.3211,-148.5733 837,-132 864.0743,-118.2691 891.8434,-96.858 909.4675,-82.169"/>
<polygon fill="#191970" stroke="#191970" points="911.8954,-84.6992 917.2569,-75.5611 907.367,-79.3611 911.8954,-84.6992"/>
</g>
<!-- Node79 -->
<g id="node15" class="node">
<title>Node79</title>
<g id="a_node15"><a xlink:href="cbeditor_8h" target="_top" xlink:title="cbeditor.h">
<polygon fill="none" stroke="#ff0000" points="664.5,-112.5 664.5,-131.5 723.5,-131.5 723.5,-112.5 664.5,-112.5"/>
<text text-anchor="middle" x="694" y="-119.5" font-family="FreeSans" font-size="10.00" fill="#000000">cbeditor.h</text>
</a>
</g>
</g>
<!-- Node2&#45;&gt;Node79 -->
<g id="edge16" class="edge">
<title>Node2&#45;&gt;Node79</title>
<path fill="none" stroke="#191970" d="M694,-168.2455C694,-160.9382 694,-150.6944 694,-141.7046"/>
<polygon fill="#191970" stroke="#191970" points="697.5001,-141.6426 694,-131.6427 690.5001,-141.6427 697.5001,-141.6426"/>
</g>
<!-- Node83 -->
<g id="node16" class="node">
<title>Node83</title>
<g id="a_node16"><a xlink:href="compiletargetbase_8h" target="_top" xlink:title="compiletargetbase.h">
<polygon fill="none" stroke="#ff0000" points="1548.5,-56.5 1548.5,-75.5 1651.5,-75.5 1651.5,-56.5 1548.5,-56.5"/>
<text text-anchor="middle" x="1600" y="-63.5" font-family="FreeSans" font-size="10.00" fill="#000000">compiletargetbase.h</text>
</a>
</g>
</g>
<!-- Node2&#45;&gt;Node83 -->
<g id="edge19" class="edge">
<title>Node2&#45;&gt;Node83</title>
<path fill="none" stroke="#191970" d="M735.2924,-176.3054C839.451,-171.6985 1110.7096,-157.5471 1197,-132 1215.3001,-126.5821 1216.7951,-117.7298 1235,-112 1290.0133,-94.6852 1449.0607,-78.907 1537.978,-71.1147"/>
<polygon fill="#191970" stroke="#191970" points="1538.5394,-74.5792 1548.1991,-70.227 1537.9337,-67.6054 1538.5394,-74.5792"/>
</g>
<!-- Node94 -->
<g id="node17" class="node">
<title>Node94</title>
<g id="a_node17"><a xlink:href="cbproject_8h" target="_top" xlink:title="cbproject.h">
<polygon fill="none" stroke="#ff0000" points="1598,-112.5 1598,-131.5 1662,-131.5 1662,-112.5 1598,-112.5"/>
<text text-anchor="middle" x="1630" y="-119.5" font-family="FreeSans" font-size="10.00" fill="#000000">cbproject.h</text>
</a>
</g>
</g>
<!-- Node2&#45;&gt;Node94 -->
<g id="edge20" class="edge">
<title>Node2&#45;&gt;Node94</title>
<path fill="none" stroke="#191970" d="M735.1064,-176.8482C858.7267,-173.158 1237.8782,-160.1842 1551,-132 1562.9274,-130.9264 1575.8284,-129.4344 1587.6784,-127.93"/>
<polygon fill="#191970" stroke="#191970" points="1588.3066,-131.3778 1597.7706,-126.615 1587.4021,-124.4365 1588.3066,-131.3778"/>
</g>
<!-- Node96 -->
<g id="node18" class="node">
<title>Node96</title>
<g id="a_node18"><a xlink:href="projectmanager_8h" target="_top" xlink:title="projectmanager.h">
<polygon fill="none" stroke="#ff0000" points="1096.5,-56.5 1096.5,-75.5 1187.5,-75.5 1187.5,-56.5 1096.5,-56.5"/>
<text text-anchor="middle" x="1142" y="-63.5" font-family="FreeSans" font-size="10.00" fill="#000000">projectmanager.h</text>
</a>
</g>
</g>
<!-- Node2&#45;&gt;Node96 -->
<g id="edge36" class="edge">
<title>Node2&#45;&gt;Node96</title>
<path fill="none" stroke="#191970" d="M652.9699,-176.8471C547.6196,-173.4658 273.9489,-161.8645 247,-132 241.045,-125.4007 240.8742,-118.4411 247,-112 274.4857,-83.0996 924.1728,-78.1186 964,-76 1004.9305,-73.8227 1051.1466,-71.2221 1086.227,-69.2187"/>
<polygon fill="#191970" stroke="#191970" points="1086.4906,-72.7095 1096.2743,-68.6439 1086.0907,-65.7209 1086.4906,-72.7095"/>
</g>
<!-- Node100 -->
<g id="node19" class="node">
<title>Node100</title>
<g id="a_node19"><a xlink:href="compilerfactory_8h" target="_top" xlink:title="compilerfactory.h">
<polygon fill="none" stroke="#000000" points="1452,-112.5 1452,-131.5 1542,-131.5 1542,-112.5 1452,-112.5"/>
<text text-anchor="middle" x="1497" y="-119.5" font-family="FreeSans" font-size="10.00" fill="#000000">compilerfactory.h</text>
</a>
</g>
</g>
<!-- Node2&#45;&gt;Node100 -->
<g id="edge26" class="edge">
<title>Node2&#45;&gt;Node100</title>
<path fill="none" stroke="#191970" d="M735.322,-175.9589C844.7052,-170.4189 1150.8304,-154.0251 1405,-132 1416.8797,-130.9706 1429.6039,-129.6975 1441.6844,-128.4086"/>
<polygon fill="#191970" stroke="#191970" points="1442.0841,-131.8859 1451.648,-127.3272 1441.3287,-124.9268 1442.0841,-131.8859"/>
</g>
<!-- Node111 -->
<g id="node20" class="node">
<title>Node111</title>
<g id="a_node20"><a xlink:href="configmanager_8h" target="_top" xlink:title="configmanager.h">
<polygon fill="none" stroke="#ff0000" points="989.5,-112.5 989.5,-131.5 1076.5,-131.5 1076.5,-112.5 989.5,-112.5"/>
<text text-anchor="middle" x="1033" y="-119.5" font-family="FreeSans" font-size="10.00" fill="#000000">configmanager.h</text>
</a>
</g>
</g>
<!-- Node2&#45;&gt;Node111 -->
<g id="edge28" class="edge">
<title>Node2&#45;&gt;Node111</title>
<path fill="none" stroke="#191970" d="M735.4165,-171.775C789.3025,-163.5848 886.6324,-148.4818 979.2251,-132.2765"/>
<polygon fill="#191970" stroke="#191970" points="980.0824,-135.6795 989.3254,-130.5009 978.8704,-128.7852 980.0824,-135.6795"/>
</g>
<!-- Node114 -->
<g id="node21" class="node">
<title>Node114</title>
<g id="a_node21"><a xlink:href="editormanager_8h" target="_top" xlink:title="editormanager.h">
<polygon fill="none" stroke="#ff0000" points="742,-112.5 742,-131.5 828,-131.5 828,-112.5 742,-112.5"/>
<text text-anchor="middle" x="785" y="-119.5" font-family="FreeSans" font-size="10.00" fill="#000000">editormanager.h</text>
</a>
</g>
</g>
<!-- Node2&#45;&gt;Node114 -->
<g id="edge31" class="edge">
<title>Node2&#45;&gt;Node114</title>
<path fill="none" stroke="#191970" d="M709.851,-168.2455C723.8132,-159.6534 744.3728,-147.0014 760.4596,-137.1018"/>
<polygon fill="#191970" stroke="#191970" points="762.6484,-139.8645 769.3307,-131.6427 758.9797,-133.9029 762.6484,-139.8645"/>
</g>
<!-- Node115 -->
<g id="node22" class="node">
<title>Node115</title>
<g id="a_node22"><a xlink:href="logmanager_8h" target="_top" xlink:title="logmanager.h">
<polygon fill="none" stroke="#ff0000" points="1244,-112.5 1244,-131.5 1318,-131.5 1318,-112.5 1244,-112.5"/>
<text text-anchor="middle" x="1281" y="-119.5" font-family="FreeSans" font-size="10.00" fill="#000000">logmanager.h</text>
</a>
</g>
</g>
<!-- Node2&#45;&gt;Node115 -->
<g id="edge35" class="edge">
<title>Node2&#45;&gt;Node115</title>
<path fill="none" stroke="#191970" d="M735.1893,-175.9853C825.2682,-171.2465 1046.4097,-157.8001 1230,-132 1231.2565,-131.8234 1232.5288,-131.6361 1233.8115,-131.4397"/>
<polygon fill="#191970" stroke="#191970" points="1234.4651,-134.8791 1243.7549,-129.785 1233.316,-127.9741 1234.4651,-134.8791"/>
</g>
<!-- Node117 -->
<g id="node23" class="node">
<title>Node117</title>
<g id="a_node23"><a xlink:href="scriptingmanager_8h" target="_top" xlink:title="scriptingmanager.h">
<polygon fill="none" stroke="#ff0000" points="1866,-112.5 1866,-131.5 1964,-131.5 1964,-112.5 1866,-112.5"/>
<text text-anchor="middle" x="1915" y="-119.5" font-family="FreeSans" font-size="10.00" fill="#000000">scriptingmanager.h</text>
</a>
</g>
</g>
<!-- Node2&#45;&gt;Node117 -->
<g id="edge37" class="edge">
<title>Node2&#45;&gt;Node117</title>
<path fill="none" stroke="#191970" d="M735.49,-176.7257C879.8699,-172.1885 1373.7055,-155.8094 1781,-132 1805.4455,-130.571 1832.3727,-128.6326 1855.6367,-126.8428"/>
<polygon fill="#191970" stroke="#191970" points="1856.0055,-130.3248 1865.7041,-126.0602 1855.4628,-123.3459 1856.0055,-130.3248"/>
</g>
<!-- Node120 -->
<g id="node24" class="node">
<title>Node120</title>
<g id="a_node24"><a xlink:href="macrosmanager_8h" target="_top" xlink:title="macrosmanager.h">
<polygon fill="none" stroke="#ff0000" points="1094.5,-112.5 1094.5,-131.5 1187.5,-131.5 1187.5,-112.5 1094.5,-112.5"/>
<text text-anchor="middle" x="1141" y="-119.5" font-family="FreeSans" font-size="10.00" fill="#000000">macrosmanager.h</text>
</a>
</g>
</g>
<!-- Node2&#45;&gt;Node120 -->
<g id="edge39" class="edge">
<title>Node2&#45;&gt;Node120</title>
<path fill="none" stroke="#191970" d="M735.0276,-174.0456C804.758,-167.1375 951.0528,-151.8351 1084.2516,-132.1942"/>
<polygon fill="#191970" stroke="#191970" points="1084.8488,-135.644 1094.2255,-130.7116 1083.8195,-128.7201 1084.8488,-135.644"/>
</g>
<!-- Node92 -->
<g id="node25" class="node">
<title>Node92</title>
<g id="a_node25"><a xlink:href="pluginmanager_8h" target="_top" xlink:title="pluginmanager.h">
<polygon fill="none" stroke="#ff0000" points="884.5,-112.5 884.5,-131.5 971.5,-131.5 971.5,-112.5 884.5,-112.5"/>
<text text-anchor="middle" x="928" y="-119.5" font-family="FreeSans" font-size="10.00" fill="#000000">pluginmanager.h</text>
</a>
</g>
</g>
<!-- Node2&#45;&gt;Node92 -->
<g id="edge41" class="edge">
<title>Node2&#45;&gt;Node92</title>
<path fill="none" stroke="#191970" d="M733.9602,-168.4369C773.8392,-158.8932 835.2139,-144.2052 878.2328,-133.9101"/>
<polygon fill="#191970" stroke="#191970" points="879.2939,-137.2551 888.2047,-131.5237 877.6646,-130.4473 879.2939,-137.2551"/>
</g>
<!-- Node122 -->
<g id="node26" class="node">
<title>Node122</title>
<g id="a_node26"><a xlink:href="uservarmanager_8h" target="_top" xlink:title="uservarmanager.h">
<polygon fill="none" stroke="#ff0000" points="1680,-112.5 1680,-131.5 1772,-131.5 1772,-112.5 1680,-112.5"/>
<text text-anchor="middle" x="1726" y="-119.5" font-family="FreeSans" font-size="10.00" fill="#000000">uservarmanager.h</text>
</a>
</g>
</g>
<!-- Node2&#45;&gt;Node122 -->
<g id="edge44" class="edge">
<title>Node2&#45;&gt;Node122</title>
<path fill="none" stroke="#191970" d="M735.2424,-176.7896C893.9175,-172.0212 1465.8795,-153.7775 1669.8412,-131.9576"/>
<polygon fill="#191970" stroke="#191970" points="1670.2983,-135.4285 1679.8526,-130.8495 1669.5282,-128.471 1670.2983,-135.4285"/>
</g>
<!-- Node2&#45;&gt;Node134 -->
<g id="edge46" class="edge">
<title>Node2&#45;&gt;Node134</title>
<path fill="none" stroke="#191970" d="M652.736,-175.4675C569.4666,-170.0439 375.4966,-155.8248 214,-132 212.5495,-131.786 211.0774,-131.5579 209.5926,-131.3183"/>
<polygon fill="#191970" stroke="#191970" points="210.1538,-127.8634 199.7022,-129.5999 208.9555,-134.7601 210.1538,-127.8634"/>
</g>
<!-- Node72&#45;&gt;Node53 -->
<g id="edge14" class="edge">
<title>Node72&#45;&gt;Node53</title>
<path fill="none" stroke="#191970" d="M900.6185,-59.2451C861.1521,-49.5089 787.9848,-31.4588 742.0405,-20.1245"/>
<polygon fill="#191970" stroke="#191970" points="742.6569,-16.6717 732.1097,-17.6746 740.9803,-23.468 742.6569,-16.6717"/>
</g>
<!-- Node72&#45;&gt;Node71 -->
<g id="edge15" class="edge">
<title>Node72&#45;&gt;Node71</title>
<path fill="none" stroke="#191970" d="M945.767,-56.2455C961.7095,-47.4928 985.3259,-34.527 1003.4989,-24.5496"/>
<polygon fill="#191970" stroke="#191970" points="1005.3552,-27.5233 1012.4366,-19.6427 1001.9863,-21.3873 1005.3552,-27.5233"/>
</g>
<!-- Node79&#45;&gt;Node57 -->
<g id="edge17" class="edge">
<title>Node79&#45;&gt;Node57</title>
<path fill="none" stroke="#191970" d="M664.2491,-116.007C614.1409,-105.9133 512.8632,-85.512 456.3822,-74.1345"/>
<polygon fill="#191970" stroke="#191970" points="456.874,-70.6634 446.3797,-72.1197 455.4916,-77.5255 456.874,-70.6634"/>
</g>
<!-- Node79&#45;&gt;Node71 -->
<g id="edge18" class="edge">
<title>Node79&#45;&gt;Node71</title>
<path fill="none" stroke="#191970" d="M713.9592,-112.493C743.4331,-98.712 800.5604,-72.9813 851,-56 898.466,-40.0198 954.5965,-26.4253 991.1788,-18.2482"/>
<polygon fill="#191970" stroke="#191970" points="992.4036,-21.5621 1001.4136,-15.988 990.8941,-14.7268 992.4036,-21.5621"/>
</g>
<!-- Node94&#45;&gt;Node71 -->
<g id="edge21" class="edge">
<title>Node94&#45;&gt;Node71</title>
<path fill="none" stroke="#191970" d="M1640.6768,-112.4155C1654.8866,-98.538 1676.5159,-72.6882 1661,-56 1640.7471,-34.217 1202.9154,-16.3602 1068.7381,-11.3834"/>
<polygon fill="#191970" stroke="#191970" points="1068.6414,-7.8776 1058.5195,-11.0076 1068.3841,-14.8729 1068.6414,-7.8776"/>
</g>
<!-- Node94&#45;&gt;Node83 -->
<g id="edge22" class="edge">
<title>Node94&#45;&gt;Node83</title>
<path fill="none" stroke="#191970" d="M1624.7744,-112.2455C1620.6877,-104.617 1614.8865,-93.7881 1609.925,-84.5267"/>
<polygon fill="#191970" stroke="#191970" points="1612.9732,-82.8047 1605.1657,-75.6427 1606.8028,-86.1103 1612.9732,-82.8047"/>
</g>
<!-- Node94&#45;&gt;Node96 -->
<g id="edge23" class="edge">
<title>Node94&#45;&gt;Node96</title>
<path fill="none" stroke="#191970" d="M1597.9151,-114.552C1593.2622,-113.6099 1588.519,-112.7241 1584,-112 1445.9695,-89.8833 1281.9072,-76.0302 1197.8102,-69.8226"/>
<polygon fill="#191970" stroke="#191970" points="1197.9407,-66.3229 1187.7125,-69.0857 1197.4312,-73.3043 1197.9407,-66.3229"/>
</g>
<!-- Node96&#45;&gt;Node21 -->
<g id="edge24" class="edge">
<title>Node96&#45;&gt;Node21</title>
<path fill="none" stroke="#191970" d="M1096.4661,-63.3927C931.1449,-53.9265 364.011,-21.4526 205.4695,-12.3745"/>
<polygon fill="#191970" stroke="#191970" points="205.3818,-8.8639 195.1981,-11.7864 204.9816,-15.8524 205.3818,-8.8639"/>
</g>
<!-- Node96&#45;&gt;Node71 -->
<g id="edge25" class="edge">
<title>Node96&#45;&gt;Node71</title>
<path fill="none" stroke="#191970" d="M1122.7465,-56.3733C1104.9288,-47.4644 1078.2253,-34.1127 1058.0406,-24.0203"/>
<polygon fill="#191970" stroke="#191970" points="1059.5118,-20.8428 1049.0022,-19.5011 1056.3813,-27.1038 1059.5118,-20.8428"/>
</g>
<!-- Node100&#45;&gt;Node71 -->
<g id="edge27" class="edge">
<title>Node100&#45;&gt;Node71</title>
<path fill="none" stroke="#191970" d="M1457.1838,-112.4509C1368.4956,-91.181 1155.6523,-40.135 1068.3504,-19.1975"/>
<polygon fill="#191970" stroke="#191970" points="1069.127,-15.7846 1058.5865,-16.8559 1067.4945,-22.5916 1069.127,-15.7846"/>
</g>
<!-- Node111&#45;&gt;Node71 -->
<g id="edge29" class="edge">
<title>Node111&#45;&gt;Node71</title>
<path fill="none" stroke="#191970" d="M1032.7442,-112.4509C1032.2549,-94.184 1031.1774,-53.9553 1030.5276,-29.6976"/>
<polygon fill="#191970" stroke="#191970" points="1034.0217,-29.4276 1030.2551,-19.5249 1027.0242,-29.6151 1034.0217,-29.4276"/>
</g>
<!-- Node111&#45;&gt;Node72 -->
<g id="edge30" class="edge">
<title>Node111&#45;&gt;Node72</title>
<path fill="none" stroke="#191970" d="M1014.7104,-112.2455C998.2238,-103.4527 973.7648,-90.4079 955.0235,-80.4125"/>
<polygon fill="#191970" stroke="#191970" points="956.5506,-77.2604 946.08,-75.6427 953.2565,-83.4368 956.5506,-77.2604"/>
</g>
<!-- Node114&#45;&gt;Node4 -->
<g id="edge32" class="edge">
<title>Node114&#45;&gt;Node4</title>
<path fill="none" stroke="#191970" d="M745.7229,-112.4369C700.7771,-101.4935 628.0514,-83.7864 586.6007,-73.6941"/>
<polygon fill="#191970" stroke="#191970" points="587.3164,-70.2662 576.7722,-71.3011 585.6603,-77.0675 587.3164,-70.2662"/>
</g>
<!-- Node114&#45;&gt;Node71 -->
<g id="edge33" class="edge">
<title>Node114&#45;&gt;Node71</title>
<path fill="none" stroke="#191970" d="M798.2815,-112.4015C817.9686,-98.5065 856.4088,-72.6351 892,-56 924.3983,-40.8572 963.1799,-28.3918 991.3694,-20.2753"/>
<polygon fill="#191970" stroke="#191970" points="992.5729,-23.5723 1001.2443,-17.4848 990.6693,-16.8361 992.5729,-23.5723"/>
</g>
<!-- Node114&#45;&gt;Node72 -->
<g id="edge34" class="edge">
<title>Node114&#45;&gt;Node72</title>
<path fill="none" stroke="#191970" d="M809.5826,-112.3733C832.9496,-103.2226 868.2862,-89.3844 894.2784,-79.2057"/>
<polygon fill="#191970" stroke="#191970" points="895.703,-82.4066 903.7382,-75.5011 893.1505,-75.8886 895.703,-82.4066"/>
</g>
<!-- Node117&#45;&gt;Node71 -->
<g id="edge38" class="edge">
<title>Node117&#45;&gt;Node71</title>
<path fill="none" stroke="#191970" d="M1890.7487,-112.4987C1851.549,-97.6047 1771.5246,-69.1105 1701,-56 1578.2966,-33.1895 1192.6373,-16.399 1068.7376,-11.4802"/>
<polygon fill="#191970" stroke="#191970" points="1068.7142,-7.9766 1058.5842,-11.0805 1068.4387,-14.9712 1068.7142,-7.9766"/>
</g>
<!-- Node120&#45;&gt;Node71 -->
<g id="edge40" class="edge">
<title>Node120&#45;&gt;Node71</title>
<path fill="none" stroke="#191970" d="M1128.8013,-112.2106C1117.7845,-103.1862 1101.3082,-89.2265 1088,-76 1072.3794,-60.4754 1055.9305,-41.4697 1044.5557,-27.8471"/>
<polygon fill="#191970" stroke="#191970" points="1046.9423,-25.2408 1037.8734,-19.7631 1041.547,-29.7007 1046.9423,-25.2408"/>
</g>
<!-- Node92&#45;&gt;Node71 -->
<g id="edge43" class="edge">
<title>Node92&#45;&gt;Node71</title>
<path fill="none" stroke="#191970" d="M936.6965,-112.4509C953.9347,-93.5227 992.6479,-51.014 1014.4014,-27.1279"/>
<polygon fill="#191970" stroke="#191970" points="1017.1799,-29.275 1021.3255,-19.5249 1012.0045,-24.5617 1017.1799,-29.275"/>
</g>
<!-- Node92&#45;&gt;Node72 -->
<g id="edge42" class="edge">
<title>Node92&#45;&gt;Node72</title>
<path fill="none" stroke="#191970" d="M928,-112.2455C928,-104.9382 928,-94.6944 928,-85.7046"/>
<polygon fill="#191970" stroke="#191970" points="931.5001,-85.6426 928,-75.6427 924.5001,-85.6427 931.5001,-85.6426"/>
</g>
<!-- Node122&#45;&gt;Node71 -->
<g id="edge45" class="edge">
<title>Node122&#45;&gt;Node71</title>
<path fill="none" stroke="#191970" d="M1722.0161,-112.2706C1715.2647,-97.1974 1700.0243,-68.6252 1677,-56 1623.7045,-26.7758 1200.1097,-14.1267 1068.723,-10.8812"/>
<polygon fill="#191970" stroke="#191970" points="1068.7867,-7.3818 1058.7047,-10.638 1068.6169,-14.3797 1068.7867,-7.3818"/>
</g>
<!-- Node134&#45;&gt;Node21 -->
<g id="edge47" class="edge">
<title>Node134&#45;&gt;Node21</title>
<path fill="none" stroke="#191970" d="M164,-112.4509C164,-94.184 164,-53.9553 164,-29.6976"/>
<polygon fill="#191970" stroke="#191970" points="167.5001,-29.5249 164,-19.5249 160.5001,-29.5249 167.5001,-29.5249"/>
</g>
<!-- Node134&#45;&gt;Node53 -->
<g id="edge49" class="edge">
<title>Node134&#45;&gt;Node53</title>
<path fill="none" stroke="#191970" d="M181.5078,-112.3098C209.0242,-97.5563 264.4759,-69.7297 315,-56 437.3439,-22.7537 587.987,-13.5304 659.5164,-10.9758"/>
<polygon fill="#191970" stroke="#191970" points="660.0134,-14.4614 669.8922,-10.6328 659.782,-7.4652 660.0134,-14.4614"/>
</g>
<!-- Node134&#45;&gt;Node57 -->
<g id="edge48" class="edge">
<title>Node134&#45;&gt;Node57</title>
<path fill="none" stroke="#191970" d="M199.571,-114.0953C246.056,-103.7653 327.248,-85.7227 375.8783,-74.9159"/>
<polygon fill="#191970" stroke="#191970" points="376.7344,-78.3112 385.737,-72.7251 375.2158,-71.4778 376.7344,-78.3112"/>
</g>
<!-- Node134&#45;&gt;Node71 -->
<g id="edge50" class="edge">
<title>Node134&#45;&gt;Node71</title>
<path fill="none" stroke="#191970" d="M191.9647,-112.4533C241.0319,-95.8514 340.8523,-62.7797 377,-56 496.0006,-33.6807 869.2629,-16.6488 991.1069,-11.564"/>
<polygon fill="#191970" stroke="#191970" points="991.5914,-15.047 1001.4381,-11.1364 991.3019,-8.053 991.5914,-15.047"/>
</g>
<!-- Node137&#45;&gt;Node6 -->
<g id="edge53" class="edge">
<title>Node137&#45;&gt;Node6</title>
<path fill="none" stroke="#191970" d="M1474.4803,-168.3733C1453.2628,-159.3032 1421.2724,-145.6279 1397.5231,-135.4755"/>
<polygon fill="#191970" stroke="#191970" points="1398.7967,-132.2136 1388.2258,-131.5011 1396.0452,-138.6502 1398.7967,-132.2136"/>
</g>
<!-- Node137&#45;&gt;Node53 -->
<g id="edge52" class="edge">
<title>Node137&#45;&gt;Node53</title>
<path fill="none" stroke="#191970" d="M1540.7863,-174.411C1620.0133,-167.4709 1780.5267,-151.1918 1797,-132 1802.7895,-125.2551 1802.1112,-119.2724 1797,-112 1769.8383,-73.3535 1740.0086,-95.5338 1697,-76 1680.335,-68.431 1678.6032,-61.0141 1661,-56 1616.2317,-43.2483 919.8975,-17.7692 742.0845,-11.4456"/>
<polygon fill="#191970" stroke="#191970" points="742.2027,-7.9477 732.0848,-11.0908 741.9543,-14.9433 742.2027,-7.9477"/>
</g>
<!-- Node137&#45;&gt;Node72 -->
<g id="edge54" class="edge">
<title>Node137&#45;&gt;Node72</title>
<path fill="none" stroke="#191970" d="M1487.2968,-168.2919C1471.5739,-153.248 1438.8606,-124.7151 1405,-112 1364.1967,-96.6778 1070.5789,-75.6177 965.3783,-68.4801"/>
<polygon fill="#191970" stroke="#191970" points="965.437,-64.9762 955.224,-67.7948 964.9656,-71.9603 965.437,-64.9762"/>
</g>
<!-- Node137&#45;&gt;Node79 -->
<g id="edge68" class="edge">
<title>Node137&#45;&gt;Node79</title>
<path fill="none" stroke="#191970" d="M1453.3974,-176.4707C1315.9834,-171.4825 892.2104,-154.7695 733.7374,-131.7596"/>
<polygon fill="#191970" stroke="#191970" points="734.1005,-128.2747 723.6886,-130.2349 733.0504,-135.1955 734.1005,-128.2747"/>
</g>
<!-- Node137&#45;&gt;Node83 -->
<g id="edge66" class="edge">
<title>Node137&#45;&gt;Node83</title>
<path fill="none" stroke="#191970" d="M1540.5318,-174.0358C1616.2398,-166.6986 1765.603,-150.0916 1781,-132 1786.761,-125.2308 1786.4567,-119.0169 1781,-112 1773.3888,-102.2126 1710.2534,-87.6986 1660.6633,-77.6006"/>
<polygon fill="#191970" stroke="#191970" points="1661.1237,-74.1231 1650.6294,-75.5794 1659.7414,-80.9852 1661.1237,-74.1231"/>
</g>
<!-- Node137&#45;&gt;Node94 -->
<g id="edge67" class="edge">
<title>Node137&#45;&gt;Node94</title>
<path fill="none" stroke="#191970" d="M1519.8635,-168.3733C1541.405,-159.3032 1573.8838,-145.6279 1597.9956,-135.4755"/>
<polygon fill="#191970" stroke="#191970" points="1599.5767,-138.6075 1607.4348,-131.5011 1596.8603,-132.156 1599.5767,-138.6075"/>
</g>
<!-- Node137&#45;&gt;Node96 -->
<g id="edge60" class="edge">
<title>Node137&#45;&gt;Node96</title>
<path fill="none" stroke="#191970" d="M1514.6117,-168.3839C1536.3295,-155.3373 1568.3647,-131.4271 1551,-112 1527.8714,-86.1244 1304.2876,-73.0299 1197.8235,-68.22"/>
<polygon fill="#191970" stroke="#191970" points="1197.7343,-64.7127 1187.5892,-67.7668 1197.4246,-71.7058 1197.7343,-64.7127"/>
</g>
<!-- Node137&#45;&gt;Node100 -->
<g id="edge65" class="edge">
<title>Node137&#45;&gt;Node100</title>
<path fill="none" stroke="#191970" d="M1497,-168.2455C1497,-160.9382 1497,-150.6944 1497,-141.7046"/>
<polygon fill="#191970" stroke="#191970" points="1500.5001,-141.6426 1497,-131.6427 1493.5001,-141.6427 1500.5001,-141.6426"/>
</g>
<!-- Node137&#45;&gt;Node111 -->
<g id="edge58" class="edge">
<title>Node137&#45;&gt;Node111</title>
<path fill="none" stroke="#191970" d="M1453.3647,-174.201C1379.9106,-167.5696 1226.7104,-152.7252 1086.6864,-132.0025"/>
<polygon fill="#191970" stroke="#191970" points="1087.036,-128.5159 1076.6287,-130.5003 1086.002,-135.4392 1087.036,-128.5159"/>
</g>
<!-- Node137&#45;&gt;Node114 -->
<g id="edge59" class="edge">
<title>Node137&#45;&gt;Node114</title>
<path fill="none" stroke="#191970" d="M1453.288,-175.2978C1351.8056,-168.9072 1092.384,-151.8971 876,-132 863.7588,-130.8744 850.608,-129.5161 838.2145,-128.1686"/>
<polygon fill="#191970" stroke="#191970" points="838.3421,-124.6615 828.0187,-127.0445 837.5749,-131.6193 838.3421,-124.6615"/>
</g>
<!-- Node137&#45;&gt;Node115 -->
<g id="edge57" class="edge">
<title>Node137&#45;&gt;Node115</title>
<path fill="none" stroke="#191970" d="M1459.8683,-168.3733C1423.1733,-158.8598 1366.9361,-144.2797 1327.3349,-134.0127"/>
<polygon fill="#191970" stroke="#191970" points="1328.2056,-130.6228 1317.6472,-131.5011 1326.4488,-137.3988 1328.2056,-130.6228"/>
</g>
<!-- Node137&#45;&gt;Node117 -->
<g id="edge64" class="edge">
<title>Node137&#45;&gt;Node117</title>
<path fill="none" stroke="#191970" d="M1540.5006,-172.7693C1607.4866,-164.623 1739.895,-148.157 1852,-132 1853.264,-131.8178 1854.5419,-131.6318 1855.8299,-131.4426"/>
<polygon fill="#191970" stroke="#191970" points="1856.4691,-134.886 1865.8398,-129.9421 1855.4314,-127.9633 1856.4691,-134.886"/>
</g>
<!-- Node137&#45;&gt;Node120 -->
<g id="edge61" class="edge">
<title>Node137&#45;&gt;Node120</title>
<path fill="none" stroke="#191970" d="M1453.3474,-171.1333C1389.0205,-161.0145 1268.7281,-142.0921 1197.6669,-130.9139"/>
<polygon fill="#191970" stroke="#191970" points="1197.9746,-127.4193 1187.5522,-129.3228 1196.8868,-134.3343 1197.9746,-127.4193"/>
</g>
<!-- Node137&#45;&gt;Node92 -->
<g id="edge63" class="edge">
<title>Node137&#45;&gt;Node92</title>
<path fill="none" stroke="#191970" d="M1453.3462,-175.5508C1365.8586,-170.3307 1162.6812,-156.6419 981.5897,-131.9527"/>
<polygon fill="#191970" stroke="#191970" points="982.0015,-128.4765 971.6174,-130.5788 981.0461,-135.411 982.0015,-128.4765"/>
</g>
<!-- Node137&#45;&gt;Node122 -->
<g id="edge62" class="edge">
<title>Node137&#45;&gt;Node122</title>
<path fill="none" stroke="#191970" d="M1536.1063,-168.4369C1575.1332,-158.8932 1635.1965,-144.2052 1677.2962,-133.9101"/>
<polygon fill="#191970" stroke="#191970" points="1678.1726,-137.299 1687.055,-131.5237 1676.5098,-130.4993 1678.1726,-137.299"/>
</g>
<!-- Node138 -->
<g id="node29" class="node">
<title>Node138</title>
<polygon fill="none" stroke="#bfbfbf" points="1982.5,-112.5 1982.5,-131.5 2039.5,-131.5 2039.5,-112.5 1982.5,-112.5"/>
<text text-anchor="middle" x="2011" y="-119.5" font-family="FreeSans" font-size="10.00" fill="#000000">settings.h</text>
</g>
<!-- Node137&#45;&gt;Node138 -->
<g id="edge55" class="edge">
<title>Node137&#45;&gt;Node138</title>
<path fill="none" stroke="#191970" d="M1540.6354,-176.1349C1623.0909,-172.1031 1807.4961,-160.6694 1972.1602,-131.8652"/>
<polygon fill="#191970" stroke="#191970" points="1973.2421,-135.2279 1982.476,-130.033 1972.018,-128.3358 1973.2421,-135.2279"/>
</g>
<!-- Node139 -->
<g id="node30" class="node">
<title>Node139</title>
<polygon fill="none" stroke="#bfbfbf" points="2058,-112.5 2058,-131.5 2120,-131.5 2120,-112.5 2058,-112.5"/>
<text text-anchor="middle" x="2089" y="-119.5" font-family="FreeSans" font-size="10.00" fill="#000000">manager.h</text>
</g>
<!-- Node137&#45;&gt;Node139 -->
<g id="edge56" class="edge">
<title>Node137&#45;&gt;Node139</title>
<path fill="none" stroke="#191970" d="M1540.5914,-176.7632C1632.6444,-173.6367 1853.6616,-163.4166 2047.5686,-132.003"/>
<polygon fill="#191970" stroke="#191970" points="2048.3575,-135.4204 2057.6576,-130.3451 2047.2224,-128.513 2048.3575,-135.4204"/>
</g>
<!-- Node140 -->
<g id="node31" class="node">
<title>Node140</title>
<polygon fill="none" stroke="#bfbfbf" points="2138.5,-112.5 2138.5,-131.5 2189.5,-131.5 2189.5,-112.5 2138.5,-112.5"/>
<text text-anchor="middle" x="2164" y="-119.5" font-family="FreeSans" font-size="10.00" fill="#000000">sqplus.h</text>
</g>
<!-- Node137&#45;&gt;Node140 -->
<g id="edge69" class="edge">
<title>Node137&#45;&gt;Node140</title>
<path fill="none" stroke="#191970" d="M1540.7492,-175.9896C1661.2575,-170.2702 1997.1793,-153.0588 2127.9783,-131.767"/>
<polygon fill="#191970" stroke="#191970" points="2128.8783,-135.164 2138.1452,-130.0284 2127.6983,-128.2642 2128.8783,-135.164"/>
</g>
</g>
</svg>
