<?xml version="1.0" encoding="UTF-8" standalone="no"?>
<!DOCTYPE svg PUBLIC "-//W3C//DTD SVG 1.1//EN"
 "http://www.w3.org/Graphics/SVG/1.1/DTD/svg11.dtd">
<!-- Generated by graphviz version 2.38.0 (20140413.2041)
 -->
<!-- Title: sc_dialog.cpp Pages: 1 -->
<svg width="2456pt" height="308pt"
 viewBox="0.00 0.00 2455.50 308.00" xmlns="http://www.w3.org/2000/svg" xmlns:xlink="http://www.w3.org/1999/xlink">
<g id="graph0" class="graph" transform="scale(1 1) rotate(0) translate(4 304)">
<title>sc_dialog.cpp</title>
<!-- Node0 -->
<g id="node1" class="node"><title>Node0</title>
<polygon fill="#bfbfbf" stroke="black" points="1479,-280.5 1479,-299.5 1554,-299.5 1554,-280.5 1479,-280.5"/>
<text text-anchor="middle" x="1516.5" y="-287.5" font-family="FreeSans" font-size="10.00">sc_dialog.cpp</text>
</g>
<!-- Node1 -->
<g id="node2" class="node"><title>Node1</title>
<g id="a_node2"><a xlink:href="sdk__precomp_8h" target="_top" xlink:title="sdk_precomp.h">
<polygon fill="none" stroke="black" points="1475.5,-224.5 1475.5,-243.5 1557.5,-243.5 1557.5,-224.5 1475.5,-224.5"/>
<text text-anchor="middle" x="1516.5" y="-231.5" font-family="FreeSans" font-size="10.00">sdk_precomp.h</text>
</a>
</g>
</g>
<!-- Node0&#45;&gt;Node1 -->
<g id="edge1" class="edge"><title>Node0&#45;&gt;Node1</title>
<path fill="none" stroke="midnightblue" d="M1516.5,-280.083C1516.5,-273.006 1516.5,-262.861 1516.5,-253.986"/>
<polygon fill="midnightblue" stroke="midnightblue" points="1520,-253.751 1516.5,-243.751 1513,-253.751 1520,-253.751"/>
</g>
<!-- Node70 -->
<g id="node15" class="node"><title>Node70</title>
<polygon fill="none" stroke="#bfbfbf" points="2365.5,-112.5 2365.5,-131.5 2447.5,-131.5 2447.5,-112.5 2365.5,-112.5"/>
<text text-anchor="middle" x="2406.5" y="-119.5" font-family="FreeSans" font-size="10.00">wx/xrc/xmlres.h</text>
</g>
<!-- Node0&#45;&gt;Node70 -->
<g id="edge35" class="edge"><title>Node0&#45;&gt;Node70</title>
<path fill="none" stroke="midnightblue" d="M1554.17,-281.973C1695.33,-255.646 2193.04,-162.813 2355.09,-132.589"/>
<polygon fill="midnightblue" stroke="midnightblue" points="2356.08,-135.964 2365.27,-130.69 2354.8,-129.083 2356.08,-135.964"/>
</g>
<!-- Node137 -->
<g id="node29" class="node"><title>Node137</title>
<g id="a_node29"><a xlink:href="sc__base__types_8h" target="_top" xlink:title="sc_base_types.h">
<polygon fill="none" stroke="black" points="574,-168.5 574,-187.5 661,-187.5 661,-168.5 574,-168.5"/>
<text text-anchor="middle" x="617.5" y="-175.5" font-family="FreeSans" font-size="10.00">sc_base_types.h</text>
</a>
</g>
</g>
<!-- Node0&#45;&gt;Node137 -->
<g id="edge36" class="edge"><title>Node0&#45;&gt;Node137</title>
<path fill="none" stroke="midnightblue" d="M1478.73,-284.379C1336.98,-267.034 836.373,-205.781 670.978,-185.544"/>
<polygon fill="midnightblue" stroke="midnightblue" points="671.388,-182.068 661.037,-184.327 670.538,-189.016 671.388,-182.068"/>
</g>
<!-- Node2 -->
<g id="node3" class="node"><title>Node2</title>
<g id="a_node3"><a xlink:href="sdk__common_8h" target="_top" xlink:title="sdk_common.h">
<polygon fill="none" stroke="red" points="1475.5,-168.5 1475.5,-187.5 1557.5,-187.5 1557.5,-168.5 1475.5,-168.5"/>
<text text-anchor="middle" x="1516.5" y="-175.5" font-family="FreeSans" font-size="10.00">sdk_common.h</text>
</a>
</g>
</g>
<!-- Node1&#45;&gt;Node2 -->
<g id="edge2" class="edge"><title>Node1&#45;&gt;Node2</title>
<path fill="none" stroke="midnightblue" d="M1516.5,-224.083C1516.5,-217.006 1516.5,-206.861 1516.5,-197.986"/>
<polygon fill="midnightblue" stroke="midnightblue" points="1520,-197.751 1516.5,-187.751 1513,-197.751 1520,-197.751"/>
</g>
<!-- Node3 -->
<g id="node4" class="node"><title>Node3</title>
<polygon fill="none" stroke="#bfbfbf" points="1950.5,-112.5 1950.5,-131.5 2018.5,-131.5 2018.5,-112.5 1950.5,-112.5"/>
<text text-anchor="middle" x="1984.5" y="-119.5" font-family="FreeSans" font-size="10.00">wx/wxprec.h</text>
</g>
<!-- Node2&#45;&gt;Node3 -->
<g id="edge3" class="edge"><title>Node2&#45;&gt;Node3</title>
<path fill="none" stroke="midnightblue" d="M1557.71,-174.026C1632.12,-168.354 1794.02,-154.64 1940.24,-132.056"/>
<polygon fill="midnightblue" stroke="midnightblue" points="1940.95,-135.487 1950.29,-130.485 1939.87,-128.571 1940.95,-135.487"/>
</g>
<!-- Node4 -->
<g id="node5" class="node"><title>Node4</title>
<g id="a_node5"><a xlink:href="prep_8h" target="_top" xlink:title="prep.h">
<polygon fill="none" stroke="black" points="1595,-56.5 1595,-75.5 1638,-75.5 1638,-56.5 1595,-56.5"/>
<text text-anchor="middle" x="1616.5" y="-63.5" font-family="FreeSans" font-size="10.00">prep.h</text>
</a>
</g>
</g>
<!-- Node2&#45;&gt;Node4 -->
<g id="edge4" class="edge"><title>Node2&#45;&gt;Node4</title>
<path fill="none" stroke="midnightblue" d="M1557.84,-176.49C1673.83,-174.634 1996,-166.399 2027.5,-132 2080.04,-74.6345 1753.33,-67.7857 1648.27,-67.057"/>
<polygon fill="midnightblue" stroke="midnightblue" points="1648.27,-63.5571 1638.25,-67.0018 1648.23,-70.557 1648.27,-63.5571"/>
</g>
<!-- Node5 -->
<g id="node6" class="node"><title>Node5</title>
<polygon fill="none" stroke="#bfbfbf" points="2112.5,-112.5 2112.5,-131.5 2166.5,-131.5 2166.5,-112.5 2112.5,-112.5"/>
<text text-anchor="middle" x="2139.5" y="-119.5" font-family="FreeSans" font-size="10.00">wx/app.h</text>
</g>
<!-- Node2&#45;&gt;Node5 -->
<g id="edge5" class="edge"><title>Node2&#45;&gt;Node5</title>
<path fill="none" stroke="midnightblue" d="M1557.64,-175.782C1653.13,-172.529 1896.99,-161.761 2098.5,-132 2099.76,-131.814 2101.03,-131.612 2102.32,-131.397"/>
<polygon fill="midnightblue" stroke="midnightblue" points="2103.07,-134.818 2112.25,-129.535 2101.78,-127.938 2103.07,-134.818"/>
</g>
<!-- Node6 -->
<g id="node7" class="node"><title>Node6</title>
<polygon fill="none" stroke="#bfbfbf" points="681.5,-112.5 681.5,-131.5 741.5,-131.5 741.5,-112.5 681.5,-112.5"/>
<text text-anchor="middle" x="711.5" y="-119.5" font-family="FreeSans" font-size="10.00">wx/arrstr.h</text>
</g>
<!-- Node2&#45;&gt;Node6 -->
<g id="edge6" class="edge"><title>Node2&#45;&gt;Node6</title>
<path fill="none" stroke="midnightblue" d="M1475.15,-177.006C1361.19,-176.507 1032.91,-171.582 751.625,-131.908"/>
<polygon fill="midnightblue" stroke="midnightblue" points="752.034,-128.431 741.639,-130.482 751.044,-135.361 752.034,-128.431"/>
</g>
<!-- Node7 -->
<g id="node8" class="node"><title>Node7</title>
<polygon fill="none" stroke="#bfbfbf" points="2185,-112.5 2185,-131.5 2264,-131.5 2264,-112.5 2185,-112.5"/>
<text text-anchor="middle" x="2224.5" y="-119.5" font-family="FreeSans" font-size="10.00">wx/bmpbuttn.h</text>
</g>
<!-- Node2&#45;&gt;Node7 -->
<g id="edge7" class="edge"><title>Node2&#45;&gt;Node7</title>
<path fill="none" stroke="midnightblue" d="M1557.53,-175.817C1659.94,-172.517 1935.15,-161.524 2175.03,-131.899"/>
<polygon fill="midnightblue" stroke="midnightblue" points="2175.49,-135.369 2184.98,-130.657 2174.62,-128.422 2175.49,-135.369"/>
</g>
<!-- Node8 -->
<g id="node9" class="node"><title>Node8</title>
<polygon fill="none" stroke="#bfbfbf" points="2282,-112.5 2282,-131.5 2347,-131.5 2347,-112.5 2282,-112.5"/>
<text text-anchor="middle" x="2314.5" y="-119.5" font-family="FreeSans" font-size="10.00">wx/button.h</text>
</g>
<!-- Node2&#45;&gt;Node8 -->
<g id="edge8" class="edge"><title>Node2&#45;&gt;Node8</title>
<path fill="none" stroke="midnightblue" d="M1557.69,-176.737C1670.41,-175.553 1993.5,-169.044 2271.29,-131.94"/>
<polygon fill="midnightblue" stroke="midnightblue" points="2272.13,-135.359 2281.57,-130.55 2271.19,-128.422 2272.13,-135.359"/>
</g>
<!-- Node9 -->
<g id="node10" class="node"><title>Node9</title>
<polygon fill="none" stroke="#bfbfbf" points="1582.5,-112.5 1582.5,-131.5 1662.5,-131.5 1662.5,-112.5 1582.5,-112.5"/>
<text text-anchor="middle" x="1622.5" y="-119.5" font-family="FreeSans" font-size="10.00">wx/checkbox.h</text>
</g>
<!-- Node2&#45;&gt;Node9 -->
<g id="edge9" class="edge"><title>Node2&#45;&gt;Node9</title>
<path fill="none" stroke="midnightblue" d="M1533.53,-168.324C1550.53,-159.664 1576.88,-146.242 1596.49,-136.249"/>
<polygon fill="midnightblue" stroke="midnightblue" points="1598.19,-139.312 1605.51,-131.655 1595.01,-133.075 1598.19,-139.312"/>
</g>
<!-- Node10 -->
<g id="node11" class="node"><title>Node10</title>
<polygon fill="none" stroke="#bfbfbf" points="1680.5,-112.5 1680.5,-131.5 1754.5,-131.5 1754.5,-112.5 1680.5,-112.5"/>
<text text-anchor="middle" x="1717.5" y="-119.5" font-family="FreeSans" font-size="10.00">wx/checklst.h</text>
</g>
<!-- Node2&#45;&gt;Node10 -->
<g id="edge10" class="edge"><title>Node2&#45;&gt;Node10</title>
<path fill="none" stroke="midnightblue" d="M1548.35,-168.444C1582.9,-159.162 1638.18,-144.309 1676.08,-134.127"/>
<polygon fill="midnightblue" stroke="midnightblue" points="1677.05,-137.491 1685.8,-131.516 1675.23,-130.731 1677.05,-137.491"/>
</g>
<!-- Node11 -->
<g id="node12" class="node"><title>Node11</title>
<polygon fill="none" stroke="#bfbfbf" points="1773,-112.5 1773,-131.5 1840,-131.5 1840,-112.5 1773,-112.5"/>
<text text-anchor="middle" x="1806.5" y="-119.5" font-family="FreeSans" font-size="10.00">wx/choice.h</text>
</g>
<!-- Node2&#45;&gt;Node11 -->
<g id="edge11" class="edge"><title>Node2&#45;&gt;Node11</title>
<path fill="none" stroke="midnightblue" d="M1557.64,-169.843C1604.71,-161.581 1684.34,-147.374 1762.67,-132.121"/>
<polygon fill="midnightblue" stroke="midnightblue" points="1763.57,-135.511 1772.72,-130.158 1762.23,-128.641 1763.57,-135.511"/>
</g>
<!-- Node12 -->
<g id="node13" class="node"><title>Node12</title>
<polygon fill="none" stroke="#bfbfbf" points="1858.5,-112.5 1858.5,-131.5 1932.5,-131.5 1932.5,-112.5 1858.5,-112.5"/>
<text text-anchor="middle" x="1895.5" y="-119.5" font-family="FreeSans" font-size="10.00">wx/choicdlg.h</text>
</g>
<!-- Node2&#45;&gt;Node12 -->
<g id="edge12" class="edge"><title>Node2&#45;&gt;Node12</title>
<path fill="none" stroke="midnightblue" d="M1557.75,-172.141C1618.79,-164.792 1736.98,-149.95 1848.28,-131.949"/>
<polygon fill="midnightblue" stroke="midnightblue" points="1849.03,-135.373 1858.33,-130.311 1847.9,-128.464 1849.03,-135.373"/>
</g>
<!-- Node53 -->
<g id="node14" class="node"><title>Node53</title>
<polygon fill="none" stroke="#bfbfbf" points="1063.5,-0.5 1063.5,-19.5 1125.5,-19.5 1125.5,-0.5 1063.5,-0.5"/>
<text text-anchor="middle" x="1094.5" y="-7.5" font-family="FreeSans" font-size="10.00">wx/string.h</text>
</g>
<!-- Node2&#45;&gt;Node53 -->
<g id="edge13" class="edge"><title>Node2&#45;&gt;Node53</title>
<path fill="none" stroke="midnightblue" d="M1557.51,-176.62C1675.87,-175.101 2011.75,-167.658 2044.5,-132 2050.51,-125.453 2050.33,-118.709 2044.5,-112 1983.96,-42.3415 1310.55,-17.4621 1135.75,-12.1531"/>
<polygon fill="midnightblue" stroke="midnightblue" points="1135.77,-8.65226 1125.67,-11.852 1135.57,-15.6491 1135.77,-8.65226"/>
</g>
<!-- Node2&#45;&gt;Node70 -->
<g id="edge14" class="edge"><title>Node2&#45;&gt;Node70</title>
<path fill="none" stroke="midnightblue" d="M1557.73,-176.607C1678.7,-175.069 2043.2,-167.683 2355.21,-131.997"/>
<polygon fill="midnightblue" stroke="midnightblue" points="2355.83,-135.449 2365.36,-130.824 2355.02,-128.496 2355.83,-135.449"/>
</g>
<!-- Node72 -->
<g id="node16" class="node"><title>Node72</title>
<g id="a_node16"><a xlink:href="globals_8h" target="_top" xlink:title="globals.h">
<polygon fill="none" stroke="red" points="1067.5,-56.5 1067.5,-75.5 1121.5,-75.5 1121.5,-56.5 1067.5,-56.5"/>
<text text-anchor="middle" x="1094.5" y="-63.5" font-family="FreeSans" font-size="10.00">globals.h</text>
</a>
</g>
</g>
<!-- Node2&#45;&gt;Node72 -->
<g id="edge15" class="edge"><title>Node2&#45;&gt;Node72</title>
<path fill="none" stroke="midnightblue" d="M1522.58,-168.21C1531.27,-154.45 1544.73,-127.771 1530.5,-112 1503.98,-82.5994 1232.38,-71.2602 1131.75,-68.0478"/>
<polygon fill="midnightblue" stroke="midnightblue" points="1131.83,-64.5487 1121.72,-67.7368 1131.61,-71.5453 1131.83,-64.5487"/>
</g>
<!-- Node79 -->
<g id="node17" class="node"><title>Node79</title>
<g id="a_node17"><a xlink:href="cbeditor_8h" target="_top" xlink:title="cbeditor.h">
<polygon fill="none" stroke="red" points="760,-112.5 760,-131.5 819,-131.5 819,-112.5 760,-112.5"/>
<text text-anchor="middle" x="789.5" y="-119.5" font-family="FreeSans" font-size="10.00">cbeditor.h</text>
</a>
</g>
</g>
<!-- Node2&#45;&gt;Node79 -->
<g id="edge17" class="edge"><title>Node2&#45;&gt;Node79</title>
<path fill="none" stroke="midnightblue" d="M1475.47,-176.708C1369.73,-175.448 1079.21,-168.766 829.274,-132.038"/>
<polygon fill="midnightblue" stroke="midnightblue" points="829.685,-128.561 819.279,-130.55 828.654,-135.485 829.685,-128.561"/>
</g>
<!-- Node83 -->
<g id="node18" class="node"><title>Node83</title>
<g id="a_node18"><a xlink:href="compiletargetbase_8h" target="_top" xlink:title="compiletargetbase.h">
<polygon fill="none" stroke="red" points="254,-56.5 254,-75.5 357,-75.5 357,-56.5 254,-56.5"/>
<text text-anchor="middle" x="305.5" y="-63.5" font-family="FreeSans" font-size="10.00">compiletargetbase.h</text>
</a>
</g>
</g>
<!-- Node2&#45;&gt;Node83 -->
<g id="edge18" class="edge"><title>Node2&#45;&gt;Node83</title>
<path fill="none" stroke="midnightblue" d="M1511.97,-168.232C1503.79,-153.465 1485.01,-124.067 1459.5,-112 1352.14,-61.2082 526.656,-85.8147 367.457,-75.9125"/>
<polygon fill="midnightblue" stroke="midnightblue" points="367.399,-72.3984 357.165,-75.1384 366.874,-79.3787 367.399,-72.3984"/>
</g>
<!-- Node94 -->
<g id="node19" class="node"><title>Node94</title>
<g id="a_node19"><a xlink:href="cbproject_8h" target="_top" xlink:title="cbproject.h">
<polygon fill="none" stroke="red" points="301.5,-112.5 301.5,-131.5 365.5,-131.5 365.5,-112.5 301.5,-112.5"/>
<text text-anchor="middle" x="333.5" y="-119.5" font-family="FreeSans" font-size="10.00">cbproject.h</text>
</a>
</g>
</g>
<!-- Node2&#45;&gt;Node94 -->
<g id="edge19" class="edge"><title>Node2&#45;&gt;Node94</title>
<path fill="none" stroke="midnightblue" d="M1475.32,-175.774C1333.09,-171.432 849.436,-155.757 450.5,-132 425.746,-130.526 398.081,-128.419 375.869,-126.614"/>
<polygon fill="midnightblue" stroke="midnightblue" points="376.012,-123.114 365.759,-125.783 375.439,-130.091 376.012,-123.114"/>
</g>
<!-- Node96 -->
<g id="node20" class="node"><title>Node96</title>
<g id="a_node20"><a xlink:href="projectmanager_8h" target="_top" xlink:title="projectmanager.h">
<polygon fill="none" stroke="red" points="375,-56.5 375,-75.5 466,-75.5 466,-56.5 375,-56.5"/>
<text text-anchor="middle" x="420.5" y="-63.5" font-family="FreeSans" font-size="10.00">projectmanager.h</text>
</a>
</g>
</g>
<!-- Node2&#45;&gt;Node96 -->
<g id="edge29" class="edge"><title>Node2&#45;&gt;Node96</title>
<path fill="none" stroke="midnightblue" d="M1516.19,-168.496C1515.15,-154.128 1510.78,-125.315 1492.5,-112 1451.14,-81.8712 690.708,-70.3076 476.334,-67.6383"/>
<polygon fill="midnightblue" stroke="midnightblue" points="476.288,-64.1376 466.246,-67.5143 476.202,-71.137 476.288,-64.1376"/>
</g>
<!-- Node100 -->
<g id="node21" class="node"><title>Node100</title>
<g id="a_node21"><a xlink:href="compilerfactory_8h" target="_top" xlink:title="compilerfactory.h">
<polygon fill="none" stroke="red" points="942.5,-112.5 942.5,-131.5 1032.5,-131.5 1032.5,-112.5 942.5,-112.5"/>
<text text-anchor="middle" x="987.5" y="-119.5" font-family="FreeSans" font-size="10.00">compilerfactory.h</text>
</a>
</g>
</g>
<!-- Node2&#45;&gt;Node100 -->
<g id="edge22" class="edge"><title>Node2&#45;&gt;Node100</title>
<path fill="none" stroke="midnightblue" d="M1475.41,-174.091C1394.55,-168.153 1208.9,-153.469 1042.47,-132.041"/>
<polygon fill="midnightblue" stroke="midnightblue" points="1042.91,-128.569 1032.55,-130.752 1042.01,-135.511 1042.91,-128.569"/>
</g>
<!-- Node111 -->
<g id="node22" class="node"><title>Node111</title>
<g id="a_node22"><a xlink:href="configmanager_8h" target="_top" xlink:title="configmanager.h">
<polygon fill="none" stroke="red" points="1051,-112.5 1051,-131.5 1138,-131.5 1138,-112.5 1051,-112.5"/>
<text text-anchor="middle" x="1094.5" y="-119.5" font-family="FreeSans" font-size="10.00">configmanager.h</text>
</a>
</g>
</g>
<!-- Node2&#45;&gt;Node111 -->
<g id="edge23" class="edge"><title>Node2&#45;&gt;Node111</title>
<path fill="none" stroke="midnightblue" d="M1475.46,-172.631C1409.05,-165.421 1273.67,-150.151 1148.31,-132.055"/>
<polygon fill="midnightblue" stroke="midnightblue" points="1148.55,-128.553 1138.15,-130.578 1147.54,-135.48 1148.55,-128.553"/>
</g>
<!-- Node114 -->
<g id="node23" class="node"><title>Node114</title>
<g id="a_node23"><a xlink:href="editormanager_8h" target="_top" xlink:title="editormanager.h">
<polygon fill="none" stroke="red" points="1156.5,-112.5 1156.5,-131.5 1242.5,-131.5 1242.5,-112.5 1156.5,-112.5"/>
<text text-anchor="middle" x="1199.5" y="-119.5" font-family="FreeSans" font-size="10.00">editormanager.h</text>
</a>
</g>
</g>
<!-- Node2&#45;&gt;Node114 -->
<g id="edge25" class="edge"><title>Node2&#45;&gt;Node114</title>
<path fill="none" stroke="midnightblue" d="M1475.18,-170.025C1425.03,-161.55 1337.59,-146.745 1252.7,-132.201"/>
<polygon fill="midnightblue" stroke="midnightblue" points="1253.08,-128.715 1242.63,-130.475 1251.89,-135.615 1253.08,-128.715"/>
</g>
<!-- Node115 -->
<g id="node24" class="node"><title>Node115</title>
<g id="a_node24"><a xlink:href="logmanager_8h" target="_top" xlink:title="logmanager.h">
<polygon fill="none" stroke="red" points="1260.5,-112.5 1260.5,-131.5 1334.5,-131.5 1334.5,-112.5 1260.5,-112.5"/>
<text text-anchor="middle" x="1297.5" y="-119.5" font-family="FreeSans" font-size="10.00">logmanager.h</text>
</a>
</g>
</g>
<!-- Node2&#45;&gt;Node115 -->
<g id="edge28" class="edge"><title>Node2&#45;&gt;Node115</title>
<path fill="none" stroke="midnightblue" d="M1481.8,-168.444C1443.92,-159.102 1383.15,-144.119 1341.84,-133.933"/>
<polygon fill="midnightblue" stroke="midnightblue" points="1342.59,-130.512 1332.04,-131.516 1340.91,-137.309 1342.59,-130.512"/>
</g>
<!-- Node117 -->
<g id="node25" class="node"><title>Node117</title>
<g id="a_node25"><a xlink:href="scriptingmanager_8h" target="_top" xlink:title="scriptingmanager.h">
<polygon fill="none" stroke="red" points="1352.5,-112.5 1352.5,-131.5 1450.5,-131.5 1450.5,-112.5 1352.5,-112.5"/>
<text text-anchor="middle" x="1401.5" y="-119.5" font-family="FreeSans" font-size="10.00">scriptingmanager.h</text>
</a>
</g>
</g>
<!-- Node2&#45;&gt;Node117 -->
<g id="edge30" class="edge"><title>Node2&#45;&gt;Node117</title>
<path fill="none" stroke="midnightblue" d="M1498.28,-168.444C1479.6,-159.675 1450.34,-145.935 1428.88,-135.858"/>
<polygon fill="midnightblue" stroke="midnightblue" points="1430.18,-132.599 1419.64,-131.516 1427.2,-138.935 1430.18,-132.599"/>
</g>
<!-- Node120 -->
<g id="node26" class="node"><title>Node120</title>
<g id="a_node26"><a xlink:href="macrosmanager_8h" target="_top" xlink:title="macrosmanager.h">
<polygon fill="none" stroke="red" points="460,-112.5 460,-131.5 553,-131.5 553,-112.5 460,-112.5"/>
<text text-anchor="middle" x="506.5" y="-119.5" font-family="FreeSans" font-size="10.00">macrosmanager.h</text>
</a>
</g>
</g>
<!-- Node2&#45;&gt;Node120 -->
<g id="edge31" class="edge"><title>Node2&#45;&gt;Node120</title>
<path fill="none" stroke="midnightblue" d="M1475.46,-176.708C1344.18,-175.425 922.54,-168.612 563.275,-131.945"/>
<polygon fill="midnightblue" stroke="midnightblue" points="563.505,-128.45 553.199,-130.907 562.788,-135.413 563.505,-128.45"/>
</g>
<!-- Node92 -->
<g id="node27" class="node"><title>Node92</title>
<g id="a_node27"><a xlink:href="pluginmanager_8h" target="_top" xlink:title="pluginmanager.h">
<polygon fill="none" stroke="red" points="837,-112.5 837,-131.5 924,-131.5 924,-112.5 837,-112.5"/>
<text text-anchor="middle" x="880.5" y="-119.5" font-family="FreeSans" font-size="10.00">pluginmanager.h</text>
</a>
</g>
</g>
<!-- Node2&#45;&gt;Node92 -->
<g id="edge32" class="edge"><title>Node2&#45;&gt;Node92</title>
<path fill="none" stroke="midnightblue" d="M1475.38,-175.117C1381.41,-170.538 1143.6,-157.378 934.082,-131.952"/>
<polygon fill="midnightblue" stroke="midnightblue" points="934.478,-128.475 924.126,-130.732 933.626,-135.423 934.478,-128.475"/>
</g>
<!-- Node122 -->
<g id="node28" class="node"><title>Node122</title>
<g id="a_node28"><a xlink:href="uservarmanager_8h" target="_top" xlink:title="uservarmanager.h">
<polygon fill="none" stroke="red" points="571.5,-112.5 571.5,-131.5 663.5,-131.5 663.5,-112.5 571.5,-112.5"/>
<text text-anchor="middle" x="617.5" y="-119.5" font-family="FreeSans" font-size="10.00">uservarmanager.h</text>
</a>
</g>
</g>
<!-- Node2&#45;&gt;Node122 -->
<g id="edge34" class="edge"><title>Node2&#45;&gt;Node122</title>
<path fill="none" stroke="midnightblue" d="M1475.1,-176.388C1353.63,-174.254 987.567,-165.405 673.864,-132.025"/>
<polygon fill="midnightblue" stroke="midnightblue" points="673.98,-128.517 663.664,-130.928 673.233,-135.477 673.98,-128.517"/>
</g>
<!-- Node72&#45;&gt;Node53 -->
<g id="edge16" class="edge"><title>Node72&#45;&gt;Node53</title>
<path fill="none" stroke="midnightblue" d="M1094.5,-56.083C1094.5,-49.0059 1094.5,-38.8611 1094.5,-29.9865"/>
<polygon fill="midnightblue" stroke="midnightblue" points="1098,-29.751 1094.5,-19.7511 1091,-29.7511 1098,-29.751"/>
</g>
<!-- Node94&#45;&gt;Node83 -->
<g id="edge20" class="edge"><title>Node94&#45;&gt;Node83</title>
<path fill="none" stroke="midnightblue" d="M328.876,-112.083C325.044,-104.691 319.476,-93.9533 314.735,-84.8111"/>
<polygon fill="midnightblue" stroke="midnightblue" points="317.748,-83.0175 310.038,-75.7511 311.534,-86.2398 317.748,-83.0175"/>
</g>
<!-- Node94&#45;&gt;Node96 -->
<g id="edge21" class="edge"><title>Node94&#45;&gt;Node96</title>
<path fill="none" stroke="midnightblue" d="M347.478,-112.324C361.05,-103.9 381.88,-90.9709 397.825,-81.0741"/>
<polygon fill="midnightblue" stroke="midnightblue" points="399.906,-83.9019 406.557,-75.6545 396.214,-77.9544 399.906,-83.9019"/>
</g>
<!-- Node111&#45;&gt;Node72 -->
<g id="edge24" class="edge"><title>Node111&#45;&gt;Node72</title>
<path fill="none" stroke="midnightblue" d="M1094.5,-112.083C1094.5,-105.006 1094.5,-94.8611 1094.5,-85.9865"/>
<polygon fill="midnightblue" stroke="midnightblue" points="1098,-85.751 1094.5,-75.7511 1091,-85.7511 1098,-85.751"/>
</g>
<!-- Node114&#45;&gt;Node4 -->
<g id="edge26" class="edge"><title>Node114&#45;&gt;Node4</title>
<path fill="none" stroke="midnightblue" d="M1242.6,-113.373C1245.61,-112.892 1248.6,-112.429 1251.5,-112 1374.19,-93.83 1520.86,-77.3237 1584.46,-70.419"/>
<polygon fill="midnightblue" stroke="midnightblue" points="1585.08,-73.8727 1594.65,-69.3186 1584.33,-66.9132 1585.08,-73.8727"/>
</g>
<!-- Node114&#45;&gt;Node72 -->
<g id="edge27" class="edge"><title>Node114&#45;&gt;Node72</title>
<path fill="none" stroke="midnightblue" d="M1182.63,-112.324C1165.79,-103.664 1139.69,-90.2424 1120.26,-80.249"/>
<polygon fill="midnightblue" stroke="midnightblue" points="1121.82,-77.1155 1111.33,-75.6545 1118.62,-83.3405 1121.82,-77.1155"/>
</g>
<!-- Node92&#45;&gt;Node72 -->
<g id="edge33" class="edge"><title>Node92&#45;&gt;Node72</title>
<path fill="none" stroke="midnightblue" d="M914.409,-112.444C953.414,-102.601 1017.24,-86.4955 1057.5,-76.336"/>
<polygon fill="midnightblue" stroke="midnightblue" points="1058.36,-79.729 1067.2,-73.8886 1056.65,-72.9417 1058.36,-79.729"/>
</g>
<!-- Node137&#45;&gt;Node6 -->
<g id="edge38" class="edge"><title>Node137&#45;&gt;Node6</title>
<path fill="none" stroke="midnightblue" d="M632.603,-168.324C647.403,-159.822 670.194,-146.729 687.482,-136.797"/>
<polygon fill="midnightblue" stroke="midnightblue" points="689.507,-139.671 696.435,-131.655 686.02,-133.601 689.507,-139.671"/>
</g>
<!-- Node137&#45;&gt;Node53 -->
<g id="edge37" class="edge"><title>Node137&#45;&gt;Node53</title>
<path fill="none" stroke="midnightblue" d="M573.941,-176.304C459.049,-174.019 154.523,-164.888 124.5,-132 118.507,-125.435 119.725,-119.498 124.5,-112 156.115,-62.3576 187.399,-70.2619 244.5,-56 400.438,-17.0519 905.093,-11.8027 1053.25,-11.1046"/>
<polygon fill="midnightblue" stroke="midnightblue" points="1053.3,-14.6045 1063.29,-11.0618 1053.27,-7.60453 1053.3,-14.6045"/>
</g>
<!-- Node137&#45;&gt;Node72 -->
<g id="edge39" class="edge"><title>Node137&#45;&gt;Node72</title>
<path fill="none" stroke="midnightblue" d="M573.771,-174.204C512.305,-168.751 411.935,-153.354 450.5,-112 491.95,-67.553 925.472,-66.1193 1056.92,-66.7181"/>
<polygon fill="midnightblue" stroke="midnightblue" points="1057.26,-70.2198 1067.28,-66.7725 1057.3,-63.2199 1057.26,-70.2198"/>
</g>
<!-- Node137&#45;&gt;Node79 -->
<g id="edge53" class="edge"><title>Node137&#45;&gt;Node79</title>
<path fill="none" stroke="midnightblue" d="M644.754,-168.444C673.941,-159.28 720.421,-144.688 752.809,-134.519"/>
<polygon fill="midnightblue" stroke="midnightblue" points="753.881,-137.851 762.374,-131.516 751.784,-131.173 753.881,-137.851"/>
</g>
<!-- Node137&#45;&gt;Node83 -->
<g id="edge51" class="edge"><title>Node137&#45;&gt;Node83</title>
<path fill="none" stroke="midnightblue" d="M573.774,-176.194C460.747,-173.659 165.656,-164.011 136.5,-132 101.51,-93.5839 182.166,-77.678 243.711,-71.2294"/>
<polygon fill="midnightblue" stroke="midnightblue" points="244.18,-74.7003 253.789,-70.2381 243.494,-67.7339 244.18,-74.7003"/>
</g>
<!-- Node137&#45;&gt;Node94 -->
<g id="edge52" class="edge"><title>Node137&#45;&gt;Node94</title>
<path fill="none" stroke="midnightblue" d="M573.619,-168.789C525.851,-159.831 447.223,-145.027 379.5,-132 378.241,-131.758 376.964,-131.512 375.674,-131.262"/>
<polygon fill="midnightblue" stroke="midnightblue" points="376.149,-127.789 365.666,-129.32 374.816,-134.661 376.149,-127.789"/>
</g>
<!-- Node137&#45;&gt;Node96 -->
<g id="edge45" class="edge"><title>Node137&#45;&gt;Node96</title>
<path fill="none" stroke="midnightblue" d="M573.668,-173.411C520.818,-168.069 436.676,-155.97 417.5,-132 407.153,-119.066 409.642,-99.6248 413.659,-85.3736"/>
<polygon fill="midnightblue" stroke="midnightblue" points="417.047,-86.2738 416.84,-75.6809 410.396,-84.0906 417.047,-86.2738"/>
</g>
<!-- Node137&#45;&gt;Node100 -->
<g id="edge50" class="edge"><title>Node137&#45;&gt;Node100</title>
<path fill="none" stroke="midnightblue" d="M661.108,-171.055C721.944,-162.697 835.712,-146.831 932.5,-132 932.602,-131.984 932.703,-131.969 932.805,-131.953"/>
<polygon fill="midnightblue" stroke="midnightblue" points="933.148,-135.442 942.489,-130.442 932.069,-128.526 933.148,-135.442"/>
</g>
<!-- Node137&#45;&gt;Node111 -->
<g id="edge43" class="edge"><title>Node137&#45;&gt;Node111</title>
<path fill="none" stroke="midnightblue" d="M661.251,-173.265C736.555,-166.639 895.728,-151.766 1040.88,-132.003"/>
<polygon fill="midnightblue" stroke="midnightblue" points="1041.43,-135.46 1050.86,-130.633 1040.48,-128.525 1041.43,-135.46"/>
</g>
<!-- Node137&#45;&gt;Node114 -->
<g id="edge44" class="edge"><title>Node137&#45;&gt;Node114</title>
<path fill="none" stroke="midnightblue" d="M661.175,-174.521C751.856,-169.101 967.059,-154.827 1146.5,-132 1146.6,-131.987 1146.7,-131.974 1146.8,-131.961"/>
<polygon fill="midnightblue" stroke="midnightblue" points="1147.02,-135.464 1156.45,-130.62 1146.06,-128.531 1147.02,-135.464"/>
</g>
<!-- Node137&#45;&gt;Node115 -->
<g id="edge42" class="edge"><title>Node137&#45;&gt;Node115</title>
<path fill="none" stroke="midnightblue" d="M661.116,-175.743C762.693,-172.42 1023.04,-161.631 1250.29,-131.996"/>
<polygon fill="midnightblue" stroke="midnightblue" points="1250.95,-135.44 1260.41,-130.662 1250.04,-128.5 1250.95,-135.44"/>
</g>
<!-- Node137&#45;&gt;Node117 -->
<g id="edge49" class="edge"><title>Node137&#45;&gt;Node117</title>
<path fill="none" stroke="midnightblue" d="M661.401,-175.687C773.209,-172.043 1077.94,-160.225 1342.32,-132.025"/>
<polygon fill="midnightblue" stroke="midnightblue" points="1342.93,-135.479 1352.49,-130.929 1342.18,-128.52 1342.93,-135.479"/>
</g>
<!-- Node137&#45;&gt;Node120 -->
<g id="edge46" class="edge"><title>Node137&#45;&gt;Node120</title>
<path fill="none" stroke="midnightblue" d="M599.666,-168.324C581.784,-159.625 554.025,-146.12 533.454,-136.113"/>
<polygon fill="midnightblue" stroke="midnightblue" points="534.813,-132.882 524.29,-131.655 531.751,-139.177 534.813,-132.882"/>
</g>
<!-- Node137&#45;&gt;Node92 -->
<g id="edge48" class="edge"><title>Node137&#45;&gt;Node92</title>
<path fill="none" stroke="midnightblue" d="M659.173,-168.444C705.245,-158.984 779.496,-143.738 829.131,-133.547"/>
<polygon fill="midnightblue" stroke="midnightblue" points="829.93,-136.956 839.022,-131.516 828.522,-130.099 829.93,-136.956"/>
</g>
<!-- Node137&#45;&gt;Node122 -->
<g id="edge47" class="edge"><title>Node137&#45;&gt;Node122</title>
<path fill="none" stroke="midnightblue" d="M617.5,-168.083C617.5,-161.006 617.5,-150.861 617.5,-141.986"/>
<polygon fill="midnightblue" stroke="midnightblue" points="621,-141.751 617.5,-131.751 614,-141.751 621,-141.751"/>
</g>
<!-- Node138 -->
<g id="node30" class="node"><title>Node138</title>
<polygon fill="none" stroke="#bfbfbf" points="146,-112.5 146,-131.5 203,-131.5 203,-112.5 146,-112.5"/>
<text text-anchor="middle" x="174.5" y="-119.5" font-family="FreeSans" font-size="10.00">settings.h</text>
</g>
<!-- Node137&#45;&gt;Node138 -->
<g id="edge40" class="edge"><title>Node137&#45;&gt;Node138</title>
<path fill="none" stroke="midnightblue" d="M573.802,-173.901C501.032,-168.359 350.304,-155.255 212.924,-131.86"/>
<polygon fill="midnightblue" stroke="midnightblue" points="213.506,-128.409 203.057,-130.158 212.316,-135.307 213.506,-128.409"/>
</g>
<!-- Node139 -->
<g id="node31" class="node"><title>Node139</title>
<polygon fill="none" stroke="#bfbfbf" points="221.5,-112.5 221.5,-131.5 283.5,-131.5 283.5,-112.5 221.5,-112.5"/>
<text text-anchor="middle" x="252.5" y="-119.5" font-family="FreeSans" font-size="10.00">manager.h</text>
</g>
<!-- Node137&#45;&gt;Node139 -->
<g id="edge41" class="edge"><title>Node137&#45;&gt;Node139</title>
<path fill="none" stroke="midnightblue" d="M573.947,-172.145C513.307,-165.127 399.822,-151.059 293.798,-132.113"/>
<polygon fill="midnightblue" stroke="midnightblue" points="294.355,-128.657 283.892,-130.324 293.111,-135.545 294.355,-128.657"/>
</g>
<!-- Node140 -->
<g id="node32" class="node"><title>Node140</title>
<polygon fill="none" stroke="#bfbfbf" points="0,-112.5 0,-131.5 51,-131.5 51,-112.5 0,-112.5"/>
<text text-anchor="middle" x="25.5" y="-119.5" font-family="FreeSans" font-size="10.00">sqplus.h</text>
</g>
<!-- Node137&#45;&gt;Node140 -->
<g id="edge54" class="edge"><title>Node137&#45;&gt;Node140</title>
<path fill="none" stroke="midnightblue" d="M573.963,-175.523C480.415,-171.896 253.466,-160.664 65.5,-132 64.0487,-131.779 62.5716,-131.535 61.0823,-131.273"/>
<polygon fill="midnightblue" stroke="midnightblue" points="61.7061,-127.829 51.2201,-129.343 60.362,-134.698 61.7061,-127.829"/>
</g>
</g>
</svg>
