<?xml version="1.0" encoding="UTF-8" standalone="no"?>
<!DOCTYPE svg PUBLIC "-//W3C//DTD SVG 1.1//EN"
 "http://www.w3.org/Graphics/SVG/1.1/DTD/svg11.dtd">
<!-- Generated by graphviz version 2.38.0 (20140413.2041)
 -->
<!-- Title: sc_plugin.h Pages: 1 -->
<svg width="2973pt" height="364pt"
 viewBox="0.00 0.00 2973.32 364.00" xmlns="http://www.w3.org/2000/svg" xmlns:xlink="http://www.w3.org/1999/xlink">
<g id="graph0" class="graph" transform="scale(1 1) rotate(0) translate(4 360)">
<title>sc_plugin.h</title>
<polygon fill="white" stroke="none" points="-4,4 -4,-360 2969.32,-360 2969.32,4 -4,4"/>
<!-- Node1 -->
<g id="node1" class="node"><title>Node1</title>
<polygon fill="#bfbfbf" stroke="black" points="2250.07,-336.5 2250.07,-355.5 2315.07,-355.5 2315.07,-336.5 2250.07,-336.5"/>
<text text-anchor="middle" x="2282.57" y="-343.5" font-family="FreeSans" font-size="10.00">sc_plugin.h</text>
</g>
<!-- Node2 -->
<g id="node2" class="node"><title>Node2</title>
<g id="a_node2"><a xlink:href="sc__base__types_8h" target="_top" xlink:title="sc_base_types.h">
<polygon fill="white" stroke="black" points="1805.07,-280.5 1805.07,-299.5 1892.07,-299.5 1892.07,-280.5 1805.07,-280.5"/>
<text text-anchor="middle" x="1848.57" y="-287.5" font-family="FreeSans" font-size="10.00">sc_base_types.h</text>
</a>
</g>
</g>
<!-- Node1&#45;&gt;Node2 -->
<g id="edge1" class="edge"><title>Node1&#45;&gt;Node2</title>
<path fill="none" stroke="midnightblue" d="M2249.95,-340.941C2175.73,-331.707 1993.63,-309.049 1902.44,-297.703"/>
<polygon fill="midnightblue" stroke="midnightblue" points="1902.67,-294.204 1892.31,-296.443 1901.8,-301.151 1902.67,-294.204"/>
</g>
<!-- Node35 -->
<g id="node35" class="node"><title>Node35</title>
<polygon fill="white" stroke="#bfbfbf" points="2492.57,-112.5 2492.57,-131.5 2566.57,-131.5 2566.57,-112.5 2492.57,-112.5"/>
<text text-anchor="middle" x="2529.57" y="-119.5" font-family="FreeSans" font-size="10.00">wx/dynarray.h</text>
</g>
<!-- Node1&#45;&gt;Node35 -->
<g id="edge131" class="edge"><title>Node1&#45;&gt;Node35</title>
<path fill="none" stroke="midnightblue" d="M2315.07,-341.518C2399.97,-331.686 2624.81,-300.682 2668.57,-244 2704.66,-197.248 2616.43,-155.003 2564.4,-135.076"/>
<polygon fill="midnightblue" stroke="midnightblue" points="2565.43,-131.724 2554.83,-131.506 2562.98,-138.282 2565.43,-131.724"/>
</g>
<!-- Node3 -->
<g id="node3" class="node"><title>Node3</title>
<polygon fill="white" stroke="#bfbfbf" points="1384.57,-0.5 1384.57,-19.5 1446.57,-19.5 1446.57,-0.5 1384.57,-0.5"/>
<text text-anchor="middle" x="1415.57" y="-7.5" font-family="FreeSans" font-size="10.00">wx/string.h</text>
</g>
<!-- Node2&#45;&gt;Node3 -->
<g id="edge2" class="edge"><title>Node2&#45;&gt;Node3</title>
<path fill="none" stroke="midnightblue" d="M1892.24,-288.916C2039.94,-288.271 2519.92,-283.14 2668.57,-244 2727.1,-228.589 2806.26,-223.262 2781.57,-168 2751.15,-99.8921 2725.83,-83.6959 2656.57,-56 2533.54,-6.80246 1596.33,-34.0087 1464.57,-20 1461.92,-19.7182 1459.2,-19.3739 1456.46,-18.9862"/>
<polygon fill="midnightblue" stroke="midnightblue" points="1457,-15.5276 1446.57,-17.4263 1455.91,-22.442 1457,-15.5276"/>
</g>
<!-- Node4 -->
<g id="node4" class="node"><title>Node4</title>
<polygon fill="white" stroke="#bfbfbf" points="2108.57,-168.5 2108.57,-187.5 2168.57,-187.5 2168.57,-168.5 2108.57,-168.5"/>
<text text-anchor="middle" x="2138.57" y="-175.5" font-family="FreeSans" font-size="10.00">wx/arrstr.h</text>
</g>
<!-- Node2&#45;&gt;Node4 -->
<g id="edge3" class="edge"><title>Node2&#45;&gt;Node4</title>
<path fill="none" stroke="midnightblue" d="M1892.26,-287.281C1938.83,-283.871 2013.58,-273.772 2070.57,-244 2093.08,-232.242 2113.33,-210.789 2125.76,-195.755"/>
<polygon fill="midnightblue" stroke="midnightblue" points="2128.64,-197.766 2132.14,-187.767 2123.17,-193.4 2128.64,-197.766"/>
</g>
<!-- Node5 -->
<g id="node5" class="node"><title>Node5</title>
<g id="a_node5"><a xlink:href="globals_8h" target="_top" xlink:title="globals.h">
<polygon fill="white" stroke="black" points="1586.57,-56.5 1586.57,-75.5 1640.57,-75.5 1640.57,-56.5 1586.57,-56.5"/>
<text text-anchor="middle" x="1613.57" y="-63.5" font-family="FreeSans" font-size="10.00">globals.h</text>
</a>
</g>
</g>
<!-- Node2&#45;&gt;Node5 -->
<g id="edge4" class="edge"><title>Node2&#45;&gt;Node5</title>
<path fill="none" stroke="midnightblue" d="M1839.36,-280.297C1803.9,-246.796 1675.9,-125.88 1630.05,-82.5688"/>
<polygon fill="midnightblue" stroke="midnightblue" points="1632.39,-79.9654 1622.72,-75.6425 1627.59,-85.0539 1632.39,-79.9654"/>
</g>
<!-- Node13 -->
<g id="node13" class="node"><title>Node13</title>
<g id="a_node13"><a xlink:href="settings_8h" target="_top" xlink:title="settings.h">
<polygon fill="white" stroke="black" points="1143.07,-0.5 1143.07,-19.5 1200.07,-19.5 1200.07,-0.5 1143.07,-0.5"/>
<text text-anchor="middle" x="1171.57" y="-7.5" font-family="FreeSans" font-size="10.00">settings.h</text>
</a>
</g>
</g>
<!-- Node2&#45;&gt;Node13 -->
<g id="edge14" class="edge"><title>Node2&#45;&gt;Node13</title>
<path fill="none" stroke="midnightblue" d="M1804.9,-288.656C1572.93,-286.697 490.264,-275.903 344.572,-244 282.319,-230.368 256.667,-234.009 212.572,-188 169.973,-143.553 128.028,-100.5 170.572,-56 204.403,-20.6135 952.94,-12.6638 1132.92,-11.2614"/>
<polygon fill="midnightblue" stroke="midnightblue" points="1133.01,-14.7609 1142.98,-11.1853 1132.96,-7.76112 1133.01,-14.7609"/>
</g>
<!-- Node14 -->
<g id="node14" class="node"><title>Node14</title>
<g id="a_node14"><a xlink:href="manager_8h" target="_top" xlink:title="manager.h">
<polygon fill="white" stroke="black" points="399.572,-112.5 399.572,-131.5 461.572,-131.5 461.572,-112.5 399.572,-112.5"/>
<text text-anchor="middle" x="430.572" y="-119.5" font-family="FreeSans" font-size="10.00">manager.h</text>
</a>
</g>
</g>
<!-- Node2&#45;&gt;Node14 -->
<g id="edge15" class="edge"><title>Node2&#45;&gt;Node14</title>
<path fill="none" stroke="midnightblue" d="M1804.91,-288.731C1662.35,-287.506 1197.74,-280.757 815.572,-244 647.831,-227.866 559.992,-306.895 440.572,-188 428.579,-176.06 427.121,-156.157 428.019,-141.514"/>
<polygon fill="midnightblue" stroke="midnightblue" points="431.502,-141.864 429.03,-131.561 424.538,-141.156 431.502,-141.864"/>
</g>
<!-- Node21 -->
<g id="node21" class="node"><title>Node21</title>
<g id="a_node21"><a xlink:href="logmanager_8h" target="_top" xlink:title="logmanager.h">
<polygon fill="white" stroke="black" points="221.572,-168.5 221.572,-187.5 295.572,-187.5 295.572,-168.5 221.572,-168.5"/>
<text text-anchor="middle" x="258.572" y="-175.5" font-family="FreeSans" font-size="10.00">logmanager.h</text>
</a>
</g>
</g>
<!-- Node2&#45;&gt;Node21 -->
<g id="edge27" class="edge"><title>Node2&#45;&gt;Node21</title>
<path fill="none" stroke="midnightblue" d="M1804.88,-288.62C1578.77,-286.52 546.609,-275.279 407.572,-244 360.817,-233.482 310.532,-208.319 281.971,-192.567"/>
<polygon fill="midnightblue" stroke="midnightblue" points="283.588,-189.461 273.154,-187.621 280.163,-195.566 283.588,-189.461"/>
</g>
<!-- Node23 -->
<g id="node23" class="node"><title>Node23</title>
<g id="a_node23"><a xlink:href="configmanager_8h" target="_top" xlink:title="configmanager.h">
<polygon fill="white" stroke="black" points="998.072,-168.5 998.072,-187.5 1085.07,-187.5 1085.07,-168.5 998.072,-168.5"/>
<text text-anchor="middle" x="1041.57" y="-175.5" font-family="FreeSans" font-size="10.00">configmanager.h</text>
</a>
</g>
</g>
<!-- Node2&#45;&gt;Node23 -->
<g id="edge34" class="edge"><title>Node2&#45;&gt;Node23</title>
<path fill="none" stroke="midnightblue" d="M1804.9,-283.047C1667.74,-264.351 1245.82,-206.841 1095.48,-186.347"/>
<polygon fill="midnightblue" stroke="midnightblue" points="1095.51,-182.82 1085.13,-184.937 1094.56,-189.756 1095.51,-182.82"/>
</g>
<!-- Node30 -->
<g id="node30" class="node"><title>Node30</title>
<g id="a_node30"><a xlink:href="editormanager_8h" target="_top" xlink:title="editormanager.h">
<polygon fill="white" stroke="black" points="1447.57,-168.5 1447.57,-187.5 1533.57,-187.5 1533.57,-168.5 1447.57,-168.5"/>
<text text-anchor="middle" x="1490.57" y="-175.5" font-family="FreeSans" font-size="10.00">editormanager.h</text>
</a>
</g>
</g>
<!-- Node2&#45;&gt;Node30 -->
<g id="edge47" class="edge"><title>Node2&#45;&gt;Node30</title>
<path fill="none" stroke="midnightblue" d="M1820.78,-280.46C1757.07,-260.886 1600.46,-212.766 1528.21,-190.565"/>
<polygon fill="midnightblue" stroke="midnightblue" points="1529.18,-187.202 1518.59,-187.61 1527.13,-193.893 1529.18,-187.202"/>
</g>
<!-- Node34 -->
<g id="node34" class="node"><title>Node34</title>
<g id="a_node34"><a xlink:href="projectmanager_8h" target="_top" xlink:title="projectmanager.h">
<polygon fill="white" stroke="black" points="2439.07,-168.5 2439.07,-187.5 2530.07,-187.5 2530.07,-168.5 2439.07,-168.5"/>
<text text-anchor="middle" x="2484.57" y="-175.5" font-family="FreeSans" font-size="10.00">projectmanager.h</text>
</a>
</g>
</g>
<!-- Node2&#45;&gt;Node34 -->
<g id="edge61" class="edge"><title>Node2&#45;&gt;Node34</title>
<path fill="none" stroke="midnightblue" d="M1892.37,-282.646C1949.21,-274.299 2051.45,-258.94 2138.57,-244 2242.57,-226.167 2363.65,-202.826 2431.48,-189.516"/>
<polygon fill="midnightblue" stroke="midnightblue" points="2432.36,-192.91 2441.5,-187.547 2431.01,-186.041 2432.36,-192.91"/>
</g>
<!-- Node37 -->
<g id="node37" class="node"><title>Node37</title>
<g id="a_node37"><a xlink:href="macrosmanager_8h" target="_top" xlink:title="macrosmanager.h">
<polygon fill="white" stroke="black" points="1802.07,-168.5 1802.07,-187.5 1895.07,-187.5 1895.07,-168.5 1802.07,-168.5"/>
<text text-anchor="middle" x="1848.57" y="-175.5" font-family="FreeSans" font-size="10.00">macrosmanager.h</text>
</a>
</g>
</g>
<!-- Node2&#45;&gt;Node37 -->
<g id="edge72" class="edge"><title>Node2&#45;&gt;Node37</title>
<path fill="none" stroke="midnightblue" d="M1848.57,-280.368C1848.57,-262.617 1848.57,-221.666 1848.57,-197.597"/>
<polygon fill="midnightblue" stroke="midnightblue" points="1852.07,-197.591 1848.57,-187.591 1845.07,-197.591 1852.07,-197.591"/>
</g>
<!-- Node39 -->
<g id="node39" class="node"><title>Node39</title>
<g id="a_node39"><a xlink:href="uservarmanager_8h" target="_top" xlink:title="uservarmanager.h">
<polygon fill="white" stroke="black" points="565.572,-168.5 565.572,-187.5 657.572,-187.5 657.572,-168.5 565.572,-168.5"/>
<text text-anchor="middle" x="611.572" y="-175.5" font-family="FreeSans" font-size="10.00">uservarmanager.h</text>
</a>
</g>
</g>
<!-- Node2&#45;&gt;Node39 -->
<g id="edge77" class="edge"><title>Node2&#45;&gt;Node39</title>
<path fill="none" stroke="midnightblue" d="M1804.76,-286.646C1699.26,-280.836 1422.8,-264.766 1192.57,-244 999.603,-226.595 771.363,-199.005 667.751,-186.097"/>
<polygon fill="midnightblue" stroke="midnightblue" points="668.177,-182.623 657.821,-184.857 667.31,-189.569 668.177,-182.623"/>
</g>
<!-- Node40 -->
<g id="node40" class="node"><title>Node40</title>
<g id="a_node40"><a xlink:href="pluginmanager_8h" target="_top" xlink:title="pluginmanager.h">
<polygon fill="white" stroke="black" points="751.072,-168.5 751.072,-187.5 838.072,-187.5 838.072,-168.5 751.072,-168.5"/>
<text text-anchor="middle" x="794.572" y="-175.5" font-family="FreeSans" font-size="10.00">pluginmanager.h</text>
</a>
</g>
</g>
<!-- Node2&#45;&gt;Node40 -->
<g id="edge82" class="edge"><title>Node2&#45;&gt;Node40</title>
<path fill="none" stroke="midnightblue" d="M1804.96,-285.18C1720.74,-277.744 1529.92,-260.594 1369.57,-244 1177.56,-224.129 949.845,-197.468 848.201,-185.405"/>
<polygon fill="midnightblue" stroke="midnightblue" points="848.525,-181.919 838.182,-184.215 847.699,-188.87 848.525,-181.919"/>
</g>
<!-- Node41 -->
<g id="node41" class="node"><title>Node41</title>
<g id="a_node41"><a xlink:href="scriptingmanager_8h" target="_top" xlink:title="scriptingmanager.h">
<polygon fill="white" stroke="black" points="449.572,-168.5 449.572,-187.5 547.572,-187.5 547.572,-168.5 449.572,-168.5"/>
<text text-anchor="middle" x="498.572" y="-175.5" font-family="FreeSans" font-size="10.00">scriptingmanager.h</text>
</a>
</g>
</g>
<!-- Node2&#45;&gt;Node41 -->
<g id="edge90" class="edge"><title>Node2&#45;&gt;Node41</title>
<path fill="none" stroke="midnightblue" d="M1804.65,-287.817C1678.75,-284.179 1305.91,-271.692 997.572,-244 838.01,-229.67 651.002,-202.518 557.739,-188.266"/>
<polygon fill="midnightblue" stroke="midnightblue" points="558.068,-184.775 547.653,-186.718 557.006,-191.694 558.068,-184.775"/>
</g>
<!-- Node43 -->
<g id="node43" class="node"><title>Node43</title>
<g id="a_node43"><a xlink:href="compilerfactory_8h" target="_top" xlink:title="compilerfactory.h">
<polygon fill="white" stroke="black" points="1971.57,-224.5 1971.57,-243.5 2061.57,-243.5 2061.57,-224.5 1971.57,-224.5"/>
<text text-anchor="middle" x="2016.57" y="-231.5" font-family="FreeSans" font-size="10.00">compilerfactory.h</text>
</a>
</g>
</g>
<!-- Node2&#45;&gt;Node43 -->
<g id="edge100" class="edge"><title>Node2&#45;&gt;Node43</title>
<path fill="none" stroke="midnightblue" d="M1875.19,-280.444C1903.58,-271.32 1948.71,-256.813 1980.32,-246.651"/>
<polygon fill="midnightblue" stroke="midnightblue" points="1981.63,-249.909 1990.08,-243.516 1979.48,-243.244 1981.63,-249.909"/>
</g>
<!-- Node46 -->
<g id="node46" class="node"><title>Node46</title>
<g id="a_node46"><a xlink:href="compiletargetbase_8h" target="_top" xlink:title="compiletargetbase.h">
<polygon fill="white" stroke="black" points="2187.07,-168.5 2187.07,-187.5 2290.07,-187.5 2290.07,-168.5 2187.07,-168.5"/>
<text text-anchor="middle" x="2238.57" y="-175.5" font-family="FreeSans" font-size="10.00">compiletargetbase.h</text>
</a>
</g>
</g>
<!-- Node2&#45;&gt;Node46 -->
<g id="edge113" class="edge"><title>Node2&#45;&gt;Node46</title>
<path fill="none" stroke="midnightblue" d="M1892.3,-284.572C1942.85,-278.669 2028.14,-266.279 2098.57,-244 2141.08,-230.552 2187.47,-207.128 2214.74,-192.376"/>
<polygon fill="midnightblue" stroke="midnightblue" points="2216.46,-195.424 2223.55,-187.55 2213.1,-189.284 2216.46,-195.424"/>
</g>
<!-- Node47 -->
<g id="node47" class="node"><title>Node47</title>
<g id="a_node47"><a xlink:href="cbproject_8h" target="_top" xlink:title="cbproject.h">
<polygon fill="white" stroke="red" points="2526.57,-224.5 2526.57,-243.5 2590.57,-243.5 2590.57,-224.5 2526.57,-224.5"/>
<text text-anchor="middle" x="2558.57" y="-231.5" font-family="FreeSans" font-size="10.00">cbproject.h</text>
</a>
</g>
</g>
<!-- Node2&#45;&gt;Node47 -->
<g id="edge115" class="edge"><title>Node2&#45;&gt;Node47</title>
<path fill="none" stroke="midnightblue" d="M1892.18,-285.683C2019.69,-275.985 2390.73,-247.765 2516.39,-238.208"/>
<polygon fill="midnightblue" stroke="midnightblue" points="2516.69,-241.695 2526.4,-237.447 2516.16,-234.715 2516.69,-241.695"/>
</g>
<!-- Node49 -->
<g id="node49" class="node"><title>Node49</title>
<g id="a_node49"><a xlink:href="cbeditor_8h" target="_top" xlink:title="cbeditor.h">
<polygon fill="white" stroke="red" points="1913.07,-168.5 1913.07,-187.5 1972.07,-187.5 1972.07,-168.5 1913.07,-168.5"/>
<text text-anchor="middle" x="1942.57" y="-175.5" font-family="FreeSans" font-size="10.00">cbeditor.h</text>
</a>
</g>
</g>
<!-- Node2&#45;&gt;Node49 -->
<g id="edge125" class="edge"><title>Node2&#45;&gt;Node49</title>
<path fill="none" stroke="midnightblue" d="M1855.95,-280.368C1871.6,-262.055 1908.35,-219.049 1928.59,-195.362"/>
<polygon fill="midnightblue" stroke="midnightblue" points="1931.39,-197.468 1935.23,-187.591 1926.07,-192.92 1931.39,-197.468"/>
</g>
<!-- Node50 -->
<g id="node50" class="node"><title>Node50</title>
<polygon fill="white" stroke="#bfbfbf" points="2609.07,-224.5 2609.07,-243.5 2660.07,-243.5 2660.07,-224.5 2609.07,-224.5"/>
<text text-anchor="middle" x="2634.57" y="-231.5" font-family="FreeSans" font-size="10.00">sqplus.h</text>
</g>
<!-- Node2&#45;&gt;Node50 -->
<g id="edge130" class="edge"><title>Node2&#45;&gt;Node50</title>
<path fill="none" stroke="midnightblue" d="M1892.48,-289.297C2007.24,-289.451 2325.54,-285.883 2598.59,-243.821"/>
<polygon fill="midnightblue" stroke="midnightblue" points="2599.35,-247.245 2608.69,-242.244 2598.27,-240.329 2599.35,-247.245"/>
</g>
<!-- Node5&#45;&gt;Node3 -->
<g id="edge6" class="edge"><title>Node5&#45;&gt;Node3</title>
<path fill="none" stroke="midnightblue" d="M1586.46,-57.6048C1552.91,-48.4568 1495.48,-32.7945 1456.55,-22.1769"/>
<polygon fill="midnightblue" stroke="midnightblue" points="1457.16,-18.7141 1446.59,-19.4595 1455.32,-25.4674 1457.16,-18.7141"/>
</g>
<!-- Node6 -->
<g id="node6" class="node"><title>Node6</title>
<polygon fill="white" stroke="#bfbfbf" points="1716.07,-0.5 1716.07,-19.5 1759.07,-19.5 1759.07,-0.5 1716.07,-0.5"/>
<text text-anchor="middle" x="1737.57" y="-7.5" font-family="FreeSans" font-size="10.00">vector</text>
</g>
<!-- Node5&#45;&gt;Node6 -->
<g id="edge5" class="edge"><title>Node5&#45;&gt;Node6</title>
<path fill="none" stroke="midnightblue" d="M1633.22,-56.4435C1653.54,-47.5961 1685.47,-33.6875 1708.67,-23.5865"/>
<polygon fill="midnightblue" stroke="midnightblue" points="1710.24,-26.7181 1718.02,-19.5164 1707.45,-20.3002 1710.24,-26.7181"/>
</g>
<!-- Node7 -->
<g id="node7" class="node"><title>Node7</title>
<polygon fill="white" stroke="#bfbfbf" points="2826.57,-0.5 2826.57,-19.5 2894.57,-19.5 2894.57,-0.5 2826.57,-0.5"/>
<text text-anchor="middle" x="2860.57" y="-7.5" font-family="FreeSans" font-size="10.00">wx/treectrl.h</text>
</g>
<!-- Node5&#45;&gt;Node7 -->
<g id="edge7" class="edge"><title>Node5&#45;&gt;Node7</title>
<path fill="none" stroke="midnightblue" d="M1640.97,-62.6042C1664.67,-60.6013 1699.86,-57.792 1730.57,-56 2152.63,-31.3717 2664.16,-16.3368 2816.03,-12.1815"/>
<polygon fill="midnightblue" stroke="midnightblue" points="2816.44,-15.6719 2826.34,-11.9011 2816.25,-8.67444 2816.44,-15.6719"/>
</g>
<!-- Node8 -->
<g id="node8" class="node"><title>Node8</title>
<polygon fill="white" stroke="#bfbfbf" points="1647.57,-0.5 1647.57,-19.5 1697.57,-19.5 1697.57,-0.5 1647.57,-0.5"/>
<text text-anchor="middle" x="1672.57" y="-7.5" font-family="FreeSans" font-size="10.00">wx/file.h</text>
</g>
<!-- Node5&#45;&gt;Node8 -->
<g id="edge8" class="edge"><title>Node5&#45;&gt;Node8</title>
<path fill="none" stroke="midnightblue" d="M1623.05,-56.324C1631.77,-48.3414 1644.92,-36.3128 1655.47,-26.6529"/>
<polygon fill="midnightblue" stroke="midnightblue" points="1657.91,-29.1674 1662.92,-19.8339 1653.18,-24.0036 1657.91,-29.1674"/>
</g>
<!-- Node9 -->
<g id="node9" class="node"><title>Node9</title>
<polygon fill="white" stroke="#bfbfbf" points="1818.57,-0.5 1818.57,-19.5 1892.57,-19.5 1892.57,-0.5 1818.57,-0.5"/>
<text text-anchor="middle" x="1855.57" y="-7.5" font-family="FreeSans" font-size="10.00">wx/filename.h</text>
</g>
<!-- Node5&#45;&gt;Node9 -->
<g id="edge9" class="edge"><title>Node5&#45;&gt;Node9</title>
<path fill="none" stroke="midnightblue" d="M1640.86,-58.9105C1681.57,-49.8271 1758.73,-32.6082 1808.62,-21.4769"/>
<polygon fill="midnightblue" stroke="midnightblue" points="1809.52,-24.8615 1818.52,-19.2676 1808,-18.0295 1809.52,-24.8615"/>
</g>
<!-- Node10 -->
<g id="node10" class="node"><title>Node10</title>
<polygon fill="white" stroke="#bfbfbf" points="24.0717,-0.5 24.0717,-19.5 75.0717,-19.5 75.0717,-0.5 24.0717,-0.5"/>
<text text-anchor="middle" x="49.5717" y="-7.5" font-family="FreeSans" font-size="10.00">wx/intl.h</text>
</g>
<!-- Node5&#45;&gt;Node10 -->
<g id="edge10" class="edge"><title>Node5&#45;&gt;Node10</title>
<path fill="none" stroke="midnightblue" d="M1586.32,-63.8225C1543.71,-62.0031 1458.71,-58.462 1386.57,-56 827.557,-36.9202 686.502,-59.6921 128.572,-20 114.308,-18.9852 98.6514,-17.318 85.0655,-15.6925"/>
<polygon fill="midnightblue" stroke="midnightblue" points="85.4903,-12.2184 75.1372,-14.4691 84.6341,-19.1659 85.4903,-12.2184"/>
</g>
<!-- Node11 -->
<g id="node11" class="node"><title>Node11</title>
<polygon fill="white" stroke="#bfbfbf" points="1474.07,-0.5 1474.07,-19.5 1543.07,-19.5 1543.07,-0.5 1474.07,-0.5"/>
<text text-anchor="middle" x="1508.57" y="-7.5" font-family="FreeSans" font-size="10.00">wx/msgdlg.h</text>
</g>
<!-- Node5&#45;&gt;Node11 -->
<g id="edge11" class="edge"><title>Node5&#45;&gt;Node11</title>
<path fill="none" stroke="midnightblue" d="M1596.7,-56.324C1579.86,-47.6641 1553.77,-34.2424 1534.33,-24.249"/>
<polygon fill="midnightblue" stroke="midnightblue" points="1535.89,-21.1155 1525.4,-19.6545 1532.69,-27.3405 1535.89,-21.1155"/>
</g>
<!-- Node12 -->
<g id="node12" class="node"><title>Node12</title>
<polygon fill="white" stroke="#bfbfbf" points="1561.57,-0.5 1561.57,-19.5 1629.57,-19.5 1629.57,-0.5 1561.57,-0.5"/>
<text text-anchor="middle" x="1595.57" y="-7.5" font-family="FreeSans" font-size="10.00">wx/bitmap.h</text>
</g>
<!-- Node5&#45;&gt;Node12 -->
<g id="edge12" class="edge"><title>Node5&#45;&gt;Node12</title>
<path fill="none" stroke="midnightblue" d="M1610.6,-56.083C1608.19,-48.8486 1604.71,-38.4087 1601.7,-29.3968"/>
<polygon fill="midnightblue" stroke="midnightblue" points="1604.97,-28.1311 1598.49,-19.7511 1598.33,-30.3447 1604.97,-28.1311"/>
</g>
<!-- Node5&#45;&gt;Node13 -->
<g id="edge13" class="edge"><title>Node5&#45;&gt;Node13</title>
<path fill="none" stroke="midnightblue" d="M1586.3,-58.5983C1581.73,-57.6454 1577.03,-56.7373 1572.57,-56 1440.76,-34.1981 1282.8,-19.9058 1210.8,-14.0338"/>
<polygon fill="midnightblue" stroke="midnightblue" points="1210.65,-10.5108 1200.4,-13.1961 1210.09,-17.4882 1210.65,-10.5108"/>
</g>
<!-- Node14&#45;&gt;Node6 -->
<g id="edge17" class="edge"><title>Node14&#45;&gt;Node6</title>
<path fill="none" stroke="midnightblue" d="M461.834,-116.694C521.086,-108.347 647.56,-89.5935 689.572,-76 708.862,-69.7584 710.904,-60.9248 730.572,-56 938.024,-4.05369 1476.22,-53.0374 1706,-19.5321"/>
<polygon fill="midnightblue" stroke="midnightblue" points="1706.7,-22.9668 1716.05,-17.9825 1705.63,-16.0487 1706.7,-22.9668"/>
</g>
<!-- Node14&#45;&gt;Node13 -->
<g id="edge20" class="edge"><title>Node14&#45;&gt;Node13</title>
<path fill="none" stroke="midnightblue" d="M461.802,-116.988C505.458,-110.867 586.87,-97.5778 653.572,-76 674.01,-69.3883 676.816,-61.5356 697.572,-56 855.003,-14.0119 1051.01,-10.0044 1132.86,-10.3826"/>
<polygon fill="midnightblue" stroke="midnightblue" points="1132.92,-13.883 1142.95,-10.4547 1132.97,-6.88322 1132.92,-13.883"/>
</g>
<!-- Node15 -->
<g id="node15" class="node"><title>Node15</title>
<polygon fill="white" stroke="#bfbfbf" points="740.072,-56.5 740.072,-75.5 775.072,-75.5 775.072,-56.5 740.072,-56.5"/>
<text text-anchor="middle" x="757.572" y="-63.5" font-family="FreeSans" font-size="10.00">map</text>
</g>
<!-- Node14&#45;&gt;Node15 -->
<g id="edge16" class="edge"><title>Node14&#45;&gt;Node15</title>
<path fill="none" stroke="midnightblue" d="M462.002,-114.487C466.548,-113.612 471.174,-112.756 475.572,-112 586.207,-92.9852 615.748,-99.2465 725.572,-76 727.054,-75.6863 728.568,-75.3423 730.093,-74.9775"/>
<polygon fill="midnightblue" stroke="midnightblue" points="731.28,-78.285 740.069,-72.3694 729.509,-71.5126 731.28,-78.285"/>
</g>
<!-- Node16 -->
<g id="node16" class="node"><title>Node16</title>
<polygon fill="white" stroke="#bfbfbf" points="199.572,-0.5 199.572,-19.5 261.572,-19.5 261.572,-0.5 199.572,-0.5"/>
<text text-anchor="middle" x="230.572" y="-7.5" font-family="FreeSans" font-size="10.00">wx/event.h</text>
</g>
<!-- Node14&#45;&gt;Node16 -->
<g id="edge18" class="edge"><title>Node14&#45;&gt;Node16</title>
<path fill="none" stroke="midnightblue" d="M399.184,-120.403C336.531,-118.477 199.483,-110.345 170.572,-76 155.099,-57.6194 180.945,-37.4291 203.387,-24.5055"/>
<polygon fill="midnightblue" stroke="midnightblue" points="205.259,-27.471 212.353,-19.6012 201.9,-21.3298 205.259,-27.471"/>
</g>
<!-- Node17 -->
<g id="node17" class="node"><title>Node17</title>
<polygon fill="white" stroke="#bfbfbf" points="489.572,-56.5 489.572,-75.5 561.572,-75.5 561.572,-56.5 489.572,-56.5"/>
<text text-anchor="middle" x="525.572" y="-63.5" font-family="FreeSans" font-size="10.00">wx/cmdline.h</text>
</g>
<!-- Node14&#45;&gt;Node17 -->
<g id="edge19" class="edge"><title>Node14&#45;&gt;Node17</title>
<path fill="none" stroke="midnightblue" d="M445.835,-112.324C460.793,-103.822 483.826,-90.7288 501.298,-80.7975"/>
<polygon fill="midnightblue" stroke="midnightblue" points="503.382,-83.639 510.346,-75.6545 499.923,-77.5534 503.382,-83.639"/>
</g>
<!-- Node18 -->
<g id="node18" class="node"><title>Node18</title>
<g id="a_node18"><a xlink:href="sdk__events_8h" target="_top" xlink:title="sdk_events.h">
<polygon fill="white" stroke="black" points="13.5717,-56.5 13.5717,-75.5 85.5717,-75.5 85.5717,-56.5 13.5717,-56.5"/>
<text text-anchor="middle" x="49.5717" y="-63.5" font-family="FreeSans" font-size="10.00">sdk_events.h</text>
</a>
</g>
</g>
<!-- Node14&#45;&gt;Node18 -->
<g id="edge21" class="edge"><title>Node14&#45;&gt;Node18</title>
<path fill="none" stroke="midnightblue" d="M399.475,-117.225C340.752,-109.996 209.557,-93.3669 99.5717,-76 98.2975,-75.7988 97.0058,-75.5912 95.7026,-75.3787"/>
<polygon fill="midnightblue" stroke="midnightblue" points="96.0331,-71.8851 85.5904,-73.6741 94.8695,-78.7877 96.0331,-71.8851"/>
</g>
<!-- Node20 -->
<g id="node20" class="node"><title>Node20</title>
<g id="a_node20"><a xlink:href="cbfunctor_8h" target="_top" xlink:title="cbfunctor.h">
<polygon fill="white" stroke="black" points="580.072,-56.5 580.072,-75.5 645.072,-75.5 645.072,-56.5 580.072,-56.5"/>
<text text-anchor="middle" x="612.572" y="-63.5" font-family="FreeSans" font-size="10.00">cbfunctor.h</text>
</a>
</g>
</g>
<!-- Node14&#45;&gt;Node20 -->
<g id="edge26" class="edge"><title>Node14&#45;&gt;Node20</title>
<path fill="none" stroke="midnightblue" d="M459.41,-112.444C490.427,-103.241 539.901,-88.5617 574.19,-78.3879"/>
<polygon fill="midnightblue" stroke="midnightblue" points="575.277,-81.7164 583.868,-75.5164 573.286,-75.0055 575.277,-81.7164"/>
</g>
<!-- Node18&#45;&gt;Node10 -->
<g id="edge23" class="edge"><title>Node18&#45;&gt;Node10</title>
<path fill="none" stroke="midnightblue" d="M49.5717,-56.083C49.5717,-49.0059 49.5717,-38.8611 49.5717,-29.9865"/>
<polygon fill="midnightblue" stroke="midnightblue" points="53.0718,-29.751 49.5717,-19.7511 46.0718,-29.7511 53.0718,-29.751"/>
</g>
<!-- Node18&#45;&gt;Node13 -->
<g id="edge24" class="edge"><title>Node18&#45;&gt;Node13</title>
<path fill="none" stroke="midnightblue" d="M85.9224,-60.8006C101.768,-59.0948 120.57,-57.2383 137.572,-56 524.926,-27.7874 995.294,-15.1363 1132.36,-11.881"/>
<polygon fill="midnightblue" stroke="midnightblue" points="1132.84,-15.3708 1142.75,-11.6371 1132.67,-8.37274 1132.84,-15.3708"/>
</g>
<!-- Node18&#45;&gt;Node16 -->
<g id="edge22" class="edge"><title>Node18&#45;&gt;Node16</title>
<path fill="none" stroke="midnightblue" d="M78.2516,-56.4435C109.099,-47.2406 158.3,-32.5617 192.401,-22.3879"/>
<polygon fill="midnightblue" stroke="midnightblue" points="193.444,-25.7293 202.026,-19.5164 191.443,-19.0215 193.444,-25.7293"/>
</g>
<!-- Node19 -->
<g id="node19" class="node"><title>Node19</title>
<g id="a_node19"><a xlink:href="prep_8h" target="_top" xlink:title="prep.h">
<polygon fill="white" stroke="black" points="138.072,-0.5 138.072,-19.5 181.072,-19.5 181.072,-0.5 138.072,-0.5"/>
<text text-anchor="middle" x="159.572" y="-7.5" font-family="FreeSans" font-size="10.00">prep.h</text>
</a>
</g>
</g>
<!-- Node18&#45;&gt;Node19 -->
<g id="edge25" class="edge"><title>Node18&#45;&gt;Node19</title>
<path fill="none" stroke="midnightblue" d="M67.2451,-56.324C84.9658,-47.6247 112.475,-34.1202 132.86,-24.113"/>
<polygon fill="midnightblue" stroke="midnightblue" points="134.508,-27.2031 141.942,-19.6545 131.423,-20.9195 134.508,-27.2031"/>
</g>
<!-- Node21&#45;&gt;Node14 -->
<g id="edge28" class="edge"><title>Node21&#45;&gt;Node14</title>
<path fill="none" stroke="midnightblue" d="M285.826,-168.444C315.013,-159.28 361.493,-144.688 393.881,-134.519"/>
<polygon fill="midnightblue" stroke="midnightblue" points="394.953,-137.851 403.445,-131.516 392.856,-131.173 394.953,-137.851"/>
</g>
<!-- Node21&#45;&gt;Node15 -->
<g id="edge33" class="edge"><title>Node21&#45;&gt;Node15</title>
<path fill="none" stroke="midnightblue" d="M272.194,-168.354C295.462,-154.041 344.795,-125.65 390.572,-112 422.886,-102.365 649.39,-78.2312 729.544,-69.8899"/>
<polygon fill="midnightblue" stroke="midnightblue" points="730.262,-73.3343 739.847,-68.8209 729.54,-66.3717 730.262,-73.3343"/>
</g>
<!-- Node22 -->
<g id="node22" class="node"><title>Node22</title>
<g id="a_node22"><a xlink:href="logger_8h" target="_top" xlink:title="logger.h">
<polygon fill="white" stroke="black" points="179.572,-56.5 179.572,-75.5 229.572,-75.5 229.572,-56.5 179.572,-56.5"/>
<text text-anchor="middle" x="204.572" y="-63.5" font-family="FreeSans" font-size="10.00">logger.h</text>
</a>
</g>
</g>
<!-- Node21&#45;&gt;Node22 -->
<g id="edge29" class="edge"><title>Node21&#45;&gt;Node22</title>
<path fill="none" stroke="midnightblue" d="M242.305,-168.356C229.721,-160.671 213.199,-148.154 205.572,-132 198.796,-117.648 199.162,-99.4501 200.869,-85.962"/>
<polygon fill="midnightblue" stroke="midnightblue" points="204.35,-86.358 202.49,-75.9277 197.44,-85.2412 204.35,-86.358"/>
</g>
<!-- Node22&#45;&gt;Node3 -->
<g id="edge31" class="edge"><title>Node22&#45;&gt;Node3</title>
<path fill="none" stroke="midnightblue" d="M229.841,-61.3032C243.624,-59.4227 261.003,-57.2714 276.572,-56 689.727,-22.2609 794.389,-37.0031 1208.57,-20 1266.06,-17.6401 1332.52,-14.7158 1374.29,-12.8536"/>
<polygon fill="midnightblue" stroke="midnightblue" points="1374.53,-16.3467 1384.36,-12.4041 1374.22,-9.35367 1374.53,-16.3467"/>
</g>
<!-- Node22&#45;&gt;Node13 -->
<g id="edge32" class="edge"><title>Node22&#45;&gt;Node13</title>
<path fill="none" stroke="midnightblue" d="M229.624,-58.5259C234.236,-57.5322 239.029,-56.6292 243.572,-56 585.854,-8.59329 1005.13,-9.01642 1132.85,-10.4167"/>
<polygon fill="midnightblue" stroke="midnightblue" points="1132.88,-13.9173 1142.92,-10.5361 1132.96,-6.91775 1132.88,-13.9173"/>
</g>
<!-- Node22&#45;&gt;Node19 -->
<g id="edge30" class="edge"><title>Node22&#45;&gt;Node19</title>
<path fill="none" stroke="midnightblue" d="M197.141,-56.083C190.719,-48.3768 181.266,-37.0333 173.449,-27.6531"/>
<polygon fill="midnightblue" stroke="midnightblue" points="175.955,-25.1927 166.864,-19.7511 170.577,-29.674 175.955,-25.1927"/>
</g>
<!-- Node23&#45;&gt;Node5 -->
<g id="edge38" class="edge"><title>Node23&#45;&gt;Node5</title>
<path fill="none" stroke="midnightblue" d="M1041.25,-168.177C1041.27,-153.868 1043.62,-125.815 1060.57,-112 1080.59,-95.682 1455.39,-75.1124 1576.31,-68.8758"/>
<polygon fill="midnightblue" stroke="midnightblue" points="1576.74,-72.3584 1586.54,-68.3508 1576.38,-65.3676 1576.74,-72.3584"/>
</g>
<!-- Node23&#45;&gt;Node13 -->
<g id="edge37" class="edge"><title>Node23&#45;&gt;Node13</title>
<path fill="none" stroke="midnightblue" d="M997.79,-176.994C923.678,-175.949 778.431,-169.088 746.572,-132 740.78,-125.257 741.061,-118.974 746.572,-112 794.669,-51.133 1037.31,-23.0473 1132.84,-14.2204"/>
<polygon fill="midnightblue" stroke="midnightblue" points="1133.3,-17.6932 1142.95,-13.3082 1132.67,-10.7215 1133.3,-17.6932"/>
</g>
<!-- Node23&#45;&gt;Node14 -->
<g id="edge41" class="edge"><title>Node23&#45;&gt;Node14</title>
<path fill="none" stroke="midnightblue" d="M997.63,-173.116C884.178,-163.09 582.599,-136.436 471.991,-126.661"/>
<polygon fill="midnightblue" stroke="midnightblue" points="472.166,-123.163 461.896,-125.768 471.549,-130.135 472.166,-123.163"/>
</g>
<!-- Node23&#45;&gt;Node15 -->
<g id="edge45" class="edge"><title>Node23&#45;&gt;Node15</title>
<path fill="none" stroke="midnightblue" d="M998.041,-174.172C913.123,-168.212 732.013,-153.144 713.572,-132 699.639,-116.026 718.882,-95.4665 736.128,-81.7916"/>
<polygon fill="midnightblue" stroke="midnightblue" points="738.377,-84.4798 744.28,-75.6817 734.179,-78.8784 738.377,-84.4798"/>
</g>
<!-- Node24 -->
<g id="node24" class="node"><title>Node24</title>
<polygon fill="white" stroke="#bfbfbf" points="2102.07,-56.5 2102.07,-75.5 2179.07,-75.5 2179.07,-56.5 2102.07,-56.5"/>
<text text-anchor="middle" x="2140.57" y="-63.5" font-family="FreeSans" font-size="10.00">wx/hashmap.h</text>
</g>
<!-- Node23&#45;&gt;Node24 -->
<g id="edge35" class="edge"><title>Node23&#45;&gt;Node24</title>
<path fill="none" stroke="midnightblue" d="M1085.08,-168.893C1174.31,-152.31 1372.31,-115.748 1403.57,-112 1661.79,-81.0414 1973.6,-70.8898 2091.89,-68.0097"/>
<polygon fill="midnightblue" stroke="midnightblue" points="2092.15,-71.5046 2102.07,-67.7684 2091.99,-64.5066 2092.15,-71.5046"/>
</g>
<!-- Node25 -->
<g id="node25" class="node"><title>Node25</title>
<polygon fill="white" stroke="#bfbfbf" points="1070.07,-112.5 1070.07,-131.5 1141.07,-131.5 1141.07,-112.5 1070.07,-112.5"/>
<text text-anchor="middle" x="1105.57" y="-119.5" font-family="FreeSans" font-size="10.00">wx/hashset.h</text>
</g>
<!-- Node23&#45;&gt;Node25 -->
<g id="edge36" class="edge"><title>Node23&#45;&gt;Node25</title>
<path fill="none" stroke="midnightblue" d="M1051.85,-168.324C1061.41,-160.263 1075.85,-148.077 1087.36,-138.369"/>
<polygon fill="midnightblue" stroke="midnightblue" points="1089.72,-140.958 1095.1,-131.834 1085.2,-135.608 1089.72,-140.958"/>
</g>
<!-- Node26 -->
<g id="node26" class="node"><title>Node26</title>
<polygon fill="white" stroke="#bfbfbf" points="1159.07,-112.5 1159.07,-131.5 1242.07,-131.5 1242.07,-112.5 1159.07,-112.5"/>
<text text-anchor="middle" x="1200.57" y="-119.5" font-family="FreeSans" font-size="10.00">tinyxml/tinystr.h</text>
</g>
<!-- Node23&#45;&gt;Node26 -->
<g id="edge39" class="edge"><title>Node23&#45;&gt;Node26</title>
<path fill="none" stroke="midnightblue" d="M1066.77,-168.444C1093.51,-159.359 1135.97,-144.939 1165.88,-134.783"/>
<polygon fill="midnightblue" stroke="midnightblue" points="1167.15,-138.046 1175.5,-131.516 1164.9,-131.418 1167.15,-138.046"/>
</g>
<!-- Node27 -->
<g id="node27" class="node"><title>Node27</title>
<polygon fill="white" stroke="#bfbfbf" points="926.072,-112.5 926.072,-131.5 1013.07,-131.5 1013.07,-112.5 926.072,-112.5"/>
<text text-anchor="middle" x="969.572" y="-119.5" font-family="FreeSans" font-size="10.00">tinyxml/tinyxml.h</text>
</g>
<!-- Node23&#45;&gt;Node27 -->
<g id="edge40" class="edge"><title>Node23&#45;&gt;Node27</title>
<path fill="none" stroke="midnightblue" d="M1030,-168.324C1019.15,-160.185 1002.69,-147.839 989.688,-138.087"/>
<polygon fill="midnightblue" stroke="midnightblue" points="991.45,-135.034 981.35,-131.834 987.25,-140.634 991.45,-135.034"/>
</g>
<!-- Node28 -->
<g id="node28" class="node"><title>Node28</title>
<g id="a_node28"><a xlink:href="base64_8h" target="_top" xlink:title="base64.h">
<polygon fill="white" stroke="red" points="1323.07,-56.5 1323.07,-75.5 1378.07,-75.5 1378.07,-56.5 1323.07,-56.5"/>
<text text-anchor="middle" x="1350.57" y="-63.5" font-family="FreeSans" font-size="10.00">base64.h</text>
</a>
</g>
</g>
<!-- Node23&#45;&gt;Node28 -->
<g id="edge42" class="edge"><title>Node23&#45;&gt;Node28</title>
<path fill="none" stroke="midnightblue" d="M1085.38,-172.277C1128.66,-166.537 1196.08,-154.667 1250.57,-132 1281.41,-119.172 1313.09,-96.7049 1332.3,-81.838"/>
<polygon fill="midnightblue" stroke="midnightblue" points="1334.52,-84.5446 1340.21,-75.6039 1330.19,-79.0483 1334.52,-84.5446"/>
</g>
<!-- Node29 -->
<g id="node29" class="node"><title>Node29</title>
<polygon fill="white" stroke="#bfbfbf" points="632.072,-112.5 632.072,-131.5 661.072,-131.5 661.072,-112.5 632.072,-112.5"/>
<text text-anchor="middle" x="646.572" y="-119.5" font-family="FreeSans" font-size="10.00">set</text>
</g>
<!-- Node23&#45;&gt;Node29 -->
<g id="edge46" class="edge"><title>Node23&#45;&gt;Node29</title>
<path fill="none" stroke="midnightblue" d="M998.052,-174.175C929.054,-169.132 790.584,-156.71 675.572,-132 674.09,-131.682 672.575,-131.321 671.054,-130.932"/>
<polygon fill="midnightblue" stroke="midnightblue" points="671.768,-127.496 661.19,-128.094 669.832,-134.223 671.768,-127.496"/>
</g>
<!-- Node28&#45;&gt;Node3 -->
<g id="edge43" class="edge"><title>Node28&#45;&gt;Node3</title>
<path fill="none" stroke="midnightblue" d="M1361.02,-56.324C1370.72,-48.2631 1385.39,-36.0765 1397.07,-26.3695"/>
<polygon fill="midnightblue" stroke="midnightblue" points="1399.48,-28.9163 1404.94,-19.8339 1395.01,-23.532 1399.48,-28.9163"/>
</g>
<!-- Node28&#45;&gt;Node13 -->
<g id="edge44" class="edge"><title>Node28&#45;&gt;Node13</title>
<path fill="none" stroke="midnightblue" d="M1323,-56.6808C1292.56,-47.4988 1243.38,-32.6631 1209.37,-22.402"/>
<polygon fill="midnightblue" stroke="midnightblue" points="1210.36,-19.0443 1199.77,-19.5069 1208.33,-25.746 1210.36,-19.0443"/>
</g>
<!-- Node30&#45;&gt;Node5 -->
<g id="edge60" class="edge"><title>Node30&#45;&gt;Node5</title>
<path fill="none" stroke="midnightblue" d="M1490.84,-168.315C1491.7,-154.7 1495.25,-128.215 1509.57,-112 1526.85,-92.4348 1554.15,-81.0624 1576.45,-74.6461"/>
<polygon fill="midnightblue" stroke="midnightblue" points="1577.52,-77.9832 1586.29,-72.0351 1575.73,-71.2175 1577.52,-77.9832"/>
</g>
<!-- Node30&#45;&gt;Node7 -->
<g id="edge50" class="edge"><title>Node30&#45;&gt;Node7</title>
<path fill="none" stroke="midnightblue" d="M1522.58,-168.447C1572.67,-155.242 1672.74,-129.581 1758.57,-112 1906.03,-81.7974 1943,-72.871 2092.57,-56 2366.66,-25.0832 2698.33,-14.7631 2816.3,-11.9286"/>
<polygon fill="midnightblue" stroke="midnightblue" points="2816.48,-15.4255 2826.39,-11.692 2816.32,-8.42744 2816.48,-15.4255"/>
</g>
<!-- Node30&#45;&gt;Node9 -->
<g id="edge52" class="edge"><title>Node30&#45;&gt;Node9</title>
<path fill="none" stroke="midnightblue" d="M1518.42,-168.372C1543.18,-160.276 1580.09,-147.164 1610.57,-132 1667.09,-103.879 1673.87,-83.7467 1730.57,-56 1758.46,-42.3521 1791.59,-30.6135 1816.73,-22.5505"/>
<polygon fill="midnightblue" stroke="midnightblue" points="1817.8,-25.882 1826.29,-19.5381 1815.7,-19.2057 1817.8,-25.882"/>
</g>
<!-- Node30&#45;&gt;Node13 -->
<g id="edge53" class="edge"><title>Node30&#45;&gt;Node13</title>
<path fill="none" stroke="midnightblue" d="M1473.88,-168.39C1456.36,-159.345 1428.02,-144.698 1403.57,-132 1328.4,-92.9549 1239.64,-46.5905 1196.98,-24.2868"/>
<polygon fill="midnightblue" stroke="midnightblue" points="1198.36,-21.0593 1187.88,-19.5276 1195.12,-27.2626 1198.36,-21.0593"/>
</g>
<!-- Node30&#45;&gt;Node14 -->
<g id="edge54" class="edge"><title>Node30&#45;&gt;Node14</title>
<path fill="none" stroke="midnightblue" d="M1447.37,-174.799C1275.48,-166.043 641.189,-133.73 472.179,-125.12"/>
<polygon fill="midnightblue" stroke="midnightblue" points="472.121,-121.612 461.956,-124.599 471.765,-128.603 472.121,-121.612"/>
</g>
<!-- Node30&#45;&gt;Node19 -->
<g id="edge48" class="edge"><title>Node30&#45;&gt;Node19</title>
<path fill="none" stroke="midnightblue" d="M1463.88,-168.401C1419.88,-154.541 1329.18,-127.274 1250.57,-112 1045.37,-72.1271 991.768,-74.7862 783.572,-56 523.938,-32.5725 452.54,-64.2618 191.282,-19.6733"/>
<polygon fill="midnightblue" stroke="midnightblue" points="191.558,-16.1694 181.108,-17.9152 190.366,-23.0671 191.558,-16.1694"/>
</g>
<!-- Node30&#45;&gt;Node24 -->
<g id="edge51" class="edge"><title>Node30&#45;&gt;Node24</title>
<path fill="none" stroke="midnightblue" d="M1533.74,-169.781C1586.71,-160.916 1679.26,-145.407 1758.57,-132 1878.22,-111.775 2018.91,-87.7811 2091.59,-75.3702"/>
<polygon fill="midnightblue" stroke="midnightblue" points="2092.54,-78.7586 2101.81,-73.625 2091.36,-71.8585 2092.54,-78.7586"/>
</g>
<!-- Node31 -->
<g id="node31" class="node"><title>Node31</title>
<polygon fill="white" stroke="#bfbfbf" points="1412.57,-112.5 1412.57,-131.5 1462.57,-131.5 1462.57,-112.5 1412.57,-112.5"/>
<text text-anchor="middle" x="1437.57" y="-119.5" font-family="FreeSans" font-size="10.00">wx/list.h</text>
</g>
<!-- Node30&#45;&gt;Node31 -->
<g id="edge49" class="edge"><title>Node30&#45;&gt;Node31</title>
<path fill="none" stroke="midnightblue" d="M1481.82,-168.083C1474.1,-160.22 1462.67,-148.569 1453.36,-139.081"/>
<polygon fill="midnightblue" stroke="midnightblue" points="1455.66,-136.436 1446.16,-131.751 1450.67,-141.34 1455.66,-136.436"/>
</g>
<!-- Node32 -->
<g id="node32" class="node"><title>Node32</title>
<g id="a_node32"><a xlink:href="cbexception_8h" target="_top" xlink:title="cbexception.h">
<polygon fill="white" stroke="red" points="755.572,-112.5 755.572,-131.5 831.572,-131.5 831.572,-112.5 755.572,-112.5"/>
<text text-anchor="middle" x="793.572" y="-119.5" font-family="FreeSans" font-size="10.00">cbexception.h</text>
</a>
</g>
</g>
<!-- Node30&#45;&gt;Node32 -->
<g id="edge55" class="edge"><title>Node30&#45;&gt;Node32</title>
<path fill="none" stroke="midnightblue" d="M1447.5,-173.663C1324.25,-164.114 970.773,-136.729 841.591,-126.72"/>
<polygon fill="midnightblue" stroke="midnightblue" points="841.839,-123.229 831.598,-125.946 841.298,-130.208 841.839,-123.229"/>
</g>
<!-- Node33 -->
<g id="node33" class="node"><title>Node33</title>
<g id="a_node33"><a xlink:href="printing__types_8h" target="_top" xlink:title="printing_types.h">
<polygon fill="white" stroke="red" points="1519.07,-112.5 1519.07,-131.5 1602.07,-131.5 1602.07,-112.5 1519.07,-112.5"/>
<text text-anchor="middle" x="1560.57" y="-119.5" font-family="FreeSans" font-size="10.00">printing_types.h</text>
</a>
</g>
</g>
<!-- Node30&#45;&gt;Node33 -->
<g id="edge58" class="edge"><title>Node30&#45;&gt;Node33</title>
<path fill="none" stroke="midnightblue" d="M1501.82,-168.324C1512.37,-160.185 1528.37,-147.839 1541.01,-138.087"/>
<polygon fill="midnightblue" stroke="midnightblue" points="1543.34,-140.713 1549.12,-131.834 1539.06,-135.171 1543.34,-140.713"/>
</g>
<!-- Node32&#45;&gt;Node3 -->
<g id="edge56" class="edge"><title>Node32&#45;&gt;Node3</title>
<path fill="none" stroke="midnightblue" d="M831.842,-113.908C836.458,-113.191 841.114,-112.533 845.572,-112 905.39,-104.853 1337.15,-110.452 1386.57,-76 1401.91,-65.3095 1409.24,-44.5551 1412.68,-29.3644"/>
<polygon fill="midnightblue" stroke="midnightblue" points="1416.13,-29.9876 1414.55,-19.51 1409.25,-28.6811 1416.13,-29.9876"/>
</g>
<!-- Node32&#45;&gt;Node5 -->
<g id="edge57" class="edge"><title>Node32&#45;&gt;Node5</title>
<path fill="none" stroke="midnightblue" d="M831.838,-113.873C836.454,-113.162 841.112,-112.515 845.572,-112 918.463,-103.584 1432.12,-76.4582 1576.12,-68.945"/>
<polygon fill="midnightblue" stroke="midnightblue" points="1576.42,-72.4342 1586.23,-68.4184 1576.06,-65.4437 1576.42,-72.4342"/>
</g>
<!-- Node33&#45;&gt;Node13 -->
<g id="edge59" class="edge"><title>Node33&#45;&gt;Node13</title>
<path fill="none" stroke="midnightblue" d="M1540.81,-112.494C1508.87,-99.0075 1443.72,-72.5517 1386.57,-56 1325.83,-38.4072 1253.57,-24.7245 1210.2,-17.2681"/>
<polygon fill="midnightblue" stroke="midnightblue" points="1210.52,-13.7739 1200.08,-15.552 1209.35,-20.6753 1210.52,-13.7739"/>
</g>
<!-- Node34&#45;&gt;Node5 -->
<g id="edge62" class="edge"><title>Node34&#45;&gt;Node5</title>
<path fill="none" stroke="midnightblue" d="M2464.86,-168.409C2430.59,-153.91 2357.46,-124.904 2292.57,-112 2168.02,-87.2308 1773.81,-72.3276 1650.68,-68.1878"/>
<polygon fill="midnightblue" stroke="midnightblue" points="1650.73,-64.6876 1640.62,-67.8533 1650.5,-71.6838 1650.73,-64.6876"/>
</g>
<!-- Node34&#45;&gt;Node7 -->
<g id="edge66" class="edge"><title>Node34&#45;&gt;Node7</title>
<path fill="none" stroke="midnightblue" d="M2530.22,-175.475C2579.85,-172.239 2660.38,-162.298 2722.57,-132 2775.59,-106.171 2824.08,-54.445 2846.87,-27.7675"/>
<polygon fill="midnightblue" stroke="midnightblue" points="2849.85,-29.6667 2853.59,-19.7542 2844.48,-25.1704 2849.85,-29.6667"/>
</g>
<!-- Node34&#45;&gt;Node13 -->
<g id="edge70" class="edge"><title>Node34&#45;&gt;Node13</title>
<path fill="none" stroke="midnightblue" d="M2530.21,-173.203C2557.81,-168.281 2590.96,-157.13 2608.57,-132 2627.96,-104.34 2632.11,-80.2305 2608.57,-56 2584.7,-31.4203 1409.81,-21.2551 1375.57,-20 1318.05,-17.8915 1251.43,-14.8372 1210.39,-12.8851"/>
<polygon fill="midnightblue" stroke="midnightblue" points="1210.44,-9.38323 1200.28,-12.4017 1210.1,-16.3752 1210.44,-9.38323"/>
</g>
<!-- Node34&#45;&gt;Node14 -->
<g id="edge71" class="edge"><title>Node34&#45;&gt;Node14</title>
<path fill="none" stroke="midnightblue" d="M2438.72,-174.438C2401.08,-172.417 2346.39,-169.67 2298.57,-168 1553.96,-141.993 1367.2,-157.445 622.572,-132 570.748,-130.229 511.097,-127.292 472.215,-125.257"/>
<polygon fill="midnightblue" stroke="midnightblue" points="471.993,-121.741 461.822,-124.709 471.624,-128.731 471.993,-121.741"/>
</g>
<!-- Node34&#45;&gt;Node16 -->
<g id="edge63" class="edge"><title>Node34&#45;&gt;Node16</title>
<path fill="none" stroke="midnightblue" d="M2515.5,-168.465C2549.68,-157.547 2597.24,-137.023 2575.57,-112 2461.51,19.706 2361.2,-70.4733 2187.57,-56 1796.5,-23.4016 518.38,-12.9967 271.912,-11.2721"/>
<polygon fill="midnightblue" stroke="midnightblue" points="271.634,-7.77015 261.61,-11.2009 271.585,-14.77 271.634,-7.77015"/>
</g>
<!-- Node34&#45;&gt;Node24 -->
<g id="edge65" class="edge"><title>Node34&#45;&gt;Node24</title>
<path fill="none" stroke="midnightblue" d="M2481.31,-168.109C2475.53,-153.703 2462.02,-125.513 2440.57,-112 2399.67,-86.2221 2263.11,-74.2726 2189.15,-69.5759"/>
<polygon fill="midnightblue" stroke="midnightblue" points="2189.35,-66.0812 2179.15,-68.9606 2188.92,-73.068 2189.35,-66.0812"/>
</g>
<!-- Node34&#45;&gt;Node32 -->
<g id="edge67" class="edge"><title>Node34&#45;&gt;Node32</title>
<path fill="none" stroke="midnightblue" d="M2438.72,-174.496C2401.08,-172.509 2346.39,-169.779 2298.57,-168 1684.57,-145.151 1530.25,-162.428 916.572,-132 891.907,-130.777 864.501,-128.829 841.829,-127.058"/>
<polygon fill="midnightblue" stroke="midnightblue" points="842.018,-123.562 831.772,-126.26 841.464,-130.54 842.018,-123.562"/>
</g>
<!-- Node34&#45;&gt;Node35 -->
<g id="edge64" class="edge"><title>Node34&#45;&gt;Node35</title>
<path fill="none" stroke="midnightblue" d="M2492,-168.083C2498.42,-160.377 2507.88,-149.033 2515.69,-139.653"/>
<polygon fill="midnightblue" stroke="midnightblue" points="2518.57,-141.674 2522.28,-131.751 2513.19,-137.193 2518.57,-141.674"/>
</g>
<!-- Node36 -->
<g id="node36" class="node"><title>Node36</title>
<g id="a_node36"><a xlink:href="cbtreectrl_8h" target="_top" xlink:title="cbtreectrl.h">
<polygon fill="white" stroke="black" points="2889.07,-56.5 2889.07,-75.5 2954.07,-75.5 2954.07,-56.5 2889.07,-56.5"/>
<text text-anchor="middle" x="2921.57" y="-63.5" font-family="FreeSans" font-size="10.00">cbtreectrl.h</text>
</a>
</g>
</g>
<!-- Node34&#45;&gt;Node36 -->
<g id="edge68" class="edge"><title>Node34&#45;&gt;Node36</title>
<path fill="none" stroke="midnightblue" d="M2530.34,-176.281C2620.46,-174.136 2817.16,-165.627 2874.57,-132 2892.93,-121.25 2906.11,-100.187 2913.76,-84.9452"/>
<polygon fill="midnightblue" stroke="midnightblue" points="2917.1,-86.0627 2918.17,-75.5216 2910.76,-83.0975 2917.1,-86.0627"/>
</g>
<!-- Node36&#45;&gt;Node7 -->
<g id="edge69" class="edge"><title>Node36&#45;&gt;Node7</title>
<path fill="none" stroke="midnightblue" d="M2911.77,-56.324C2902.75,-48.3414 2889.17,-36.3128 2878.25,-26.6529"/>
<polygon fill="midnightblue" stroke="midnightblue" points="2880.36,-23.8416 2870.55,-19.8339 2875.72,-29.083 2880.36,-23.8416"/>
</g>
<!-- Node37&#45;&gt;Node9 -->
<g id="edge76" class="edge"><title>Node37&#45;&gt;Node9</title>
<path fill="none" stroke="midnightblue" d="M1848.95,-168.075C1850.05,-141.945 1853.29,-65.2106 1854.79,-29.577"/>
<polygon fill="midnightblue" stroke="midnightblue" points="1858.29,-29.7067 1855.21,-19.5681 1851.29,-29.4117 1858.29,-29.7067"/>
</g>
<!-- Node37&#45;&gt;Node13 -->
<g id="edge73" class="edge"><title>Node37&#45;&gt;Node13</title>
<path fill="none" stroke="midnightblue" d="M1818.95,-168.47C1787.57,-159.429 1736.57,-144.728 1692.57,-132 1634.34,-115.154 1489.64,-69.6539 1430.57,-56 1353.15,-38.1023 1261.23,-23.734 1210.35,-16.3734"/>
<polygon fill="midnightblue" stroke="midnightblue" points="1210.53,-12.8636 1200.14,-14.9103 1209.54,-19.7929 1210.53,-12.8636"/>
</g>
<!-- Node37&#45;&gt;Node14 -->
<g id="edge74" class="edge"><title>Node37&#45;&gt;Node14</title>
<path fill="none" stroke="midnightblue" d="M1801.8,-175.454C1639.02,-170.039 1082.23,-151.209 622.572,-132 570.763,-129.835 511.109,-126.982 472.222,-125.074"/>
<polygon fill="midnightblue" stroke="midnightblue" points="471.988,-121.559 461.828,-124.563 471.644,-128.55 471.988,-121.559"/>
</g>
<!-- Node38 -->
<g id="node38" class="node"><title>Node38</title>
<polygon fill="white" stroke="#bfbfbf" points="1924.57,-112.5 1924.57,-131.5 1986.57,-131.5 1986.57,-112.5 1924.57,-112.5"/>
<text text-anchor="middle" x="1955.57" y="-119.5" font-family="FreeSans" font-size="10.00">wx/regex.h</text>
</g>
<!-- Node37&#45;&gt;Node38 -->
<g id="edge75" class="edge"><title>Node37&#45;&gt;Node38</title>
<path fill="none" stroke="midnightblue" d="M1865.76,-168.324C1882.92,-159.664 1909.52,-146.242 1929.32,-136.249"/>
<polygon fill="midnightblue" stroke="midnightblue" points="1931.07,-139.285 1938.42,-131.655 1927.92,-133.035 1931.07,-139.285"/>
</g>
<!-- Node39&#45;&gt;Node5 -->
<g id="edge81" class="edge"><title>Node39&#45;&gt;Node5</title>
<path fill="none" stroke="midnightblue" d="M610.013,-168.242C608.045,-154.027 606.627,-126.105 622.572,-112 627.129,-107.968 1396.8,-75.9503 1576.41,-68.5312"/>
<polygon fill="midnightblue" stroke="midnightblue" points="1576.58,-72.0271 1586.43,-68.1175 1576.29,-65.0331 1576.58,-72.0271"/>
</g>
<!-- Node39&#45;&gt;Node13 -->
<g id="edge78" class="edge"><title>Node39&#45;&gt;Node13</title>
<path fill="none" stroke="midnightblue" d="M565.553,-169.447C500.636,-158.573 389.36,-139.042 383.572,-132 377.928,-125.133 380.134,-120.197 383.572,-112 397.307,-79.2499 408.13,-70.4492 440.572,-56 503.957,-27.7687 990.736,-14.964 1132.78,-11.804"/>
<polygon fill="midnightblue" stroke="midnightblue" points="1132.86,-15.3031 1142.78,-11.5848 1132.71,-8.30479 1132.86,-15.3031"/>
</g>
<!-- Node39&#45;&gt;Node14 -->
<g id="edge79" class="edge"><title>Node39&#45;&gt;Node14</title>
<path fill="none" stroke="midnightblue" d="M582.892,-168.444C552.045,-159.241 502.843,-144.562 468.742,-134.388"/>
<polygon fill="midnightblue" stroke="midnightblue" points="469.701,-131.021 459.117,-131.516 467.699,-137.729 469.701,-131.021"/>
</g>
<!-- Node39&#45;&gt;Node32 -->
<g id="edge80" class="edge"><title>Node39&#45;&gt;Node32</title>
<path fill="none" stroke="midnightblue" d="M640.41,-168.444C671.427,-159.241 720.901,-144.562 755.19,-134.388"/>
<polygon fill="midnightblue" stroke="midnightblue" points="756.277,-137.716 764.868,-131.516 754.286,-131.006 756.277,-137.716"/>
</g>
<!-- Node40&#45;&gt;Node5 -->
<g id="edge87" class="edge"><title>Node40&#45;&gt;Node5</title>
<path fill="none" stroke="midnightblue" d="M802.912,-168.261C817.597,-153.539 849.735,-124.205 883.572,-112 916.418,-100.152 1431.91,-75.4353 1576.26,-68.717"/>
<polygon fill="midnightblue" stroke="midnightblue" points="1576.56,-72.2069 1586.39,-68.2469 1576.24,-65.2145 1576.56,-72.2069"/>
</g>
<!-- Node40&#45;&gt;Node6 -->
<g id="edge83" class="edge"><title>Node40&#45;&gt;Node6</title>
<path fill="none" stroke="midnightblue" d="M810.889,-168.415C828.017,-159.391 855.72,-144.76 879.572,-132 896.054,-123.182 898.567,-117.028 916.572,-112 1073.65,-68.1367 1495.97,-130.791 1649.57,-76 1678.21,-65.7841 1705.45,-42.9252 1721.83,-27.2315"/>
<polygon fill="midnightblue" stroke="midnightblue" points="1724.71,-29.3037 1729.36,-19.7828 1719.79,-24.3271 1724.71,-29.3037"/>
</g>
<!-- Node40&#45;&gt;Node13 -->
<g id="edge88" class="edge"><title>Node40&#45;&gt;Node13</title>
<path fill="none" stroke="midnightblue" d="M750.952,-173.699C648.943,-165.771 402.498,-145.329 390.572,-132 384.644,-125.376 386.255,-119.77 390.572,-112 396.291,-101.704 469.358,-59.6021 480.572,-56 603.451,-16.5278 1006.3,-11.6126 1133.04,-11.0538"/>
<polygon fill="midnightblue" stroke="midnightblue" points="1133.07,-14.5538 1143.06,-11.0163 1133.05,-7.55385 1133.07,-14.5538"/>
</g>
<!-- Node40&#45;&gt;Node14 -->
<g id="edge89" class="edge"><title>Node40&#45;&gt;Node14</title>
<path fill="none" stroke="midnightblue" d="M751.026,-170.54C680.307,-160.049 541.428,-139.446 472.057,-129.154"/>
<polygon fill="midnightblue" stroke="midnightblue" points="472.347,-125.659 461.942,-127.654 471.32,-132.584 472.347,-125.659"/>
</g>
<!-- Node40&#45;&gt;Node15 -->
<g id="edge84" class="edge"><title>Node40&#45;&gt;Node15</title>
<path fill="none" stroke="midnightblue" d="M750.721,-171.625C705.087,-165.024 638.133,-152.157 622.572,-132 617.14,-124.964 617.374,-119.211 622.572,-112 625.837,-107.47 691.855,-86.8843 730.339,-75.1875"/>
<polygon fill="midnightblue" stroke="midnightblue" points="731.375,-78.5306 739.932,-72.2825 729.347,-71.8311 731.375,-78.5306"/>
</g>
<!-- Node40&#45;&gt;Node29 -->
<g id="edge85" class="edge"><title>Node40&#45;&gt;Node29</title>
<path fill="none" stroke="midnightblue" d="M771.121,-168.444C743.801,-158.476 698.874,-142.083 671.1,-131.95"/>
<polygon fill="midnightblue" stroke="midnightblue" points="671.962,-128.539 661.369,-128.399 669.563,-135.115 671.962,-128.539"/>
</g>
<!-- Node40&#45;&gt;Node35 -->
<g id="edge86" class="edge"><title>Node40&#45;&gt;Node35</title>
<path fill="none" stroke="midnightblue" d="M838.095,-174.747C877.406,-172.768 936.852,-169.913 988.572,-168 1567.95,-146.565 1713.11,-151.001 2292.57,-132 2358.33,-129.844 2434.32,-126.873 2482.16,-124.945"/>
<polygon fill="midnightblue" stroke="midnightblue" points="2482.37,-128.439 2492.22,-124.538 2482.09,-121.445 2482.37,-128.439"/>
</g>
<!-- Node41&#45;&gt;Node5 -->
<g id="edge94" class="edge"><title>Node41&#45;&gt;Node5</title>
<path fill="none" stroke="midnightblue" d="M508.865,-168.43C527.281,-153.687 567.683,-123.956 607.572,-112 619.412,-108.451 1396.05,-76.0284 1576.43,-68.5388"/>
<polygon fill="midnightblue" stroke="midnightblue" points="1576.65,-72.0331 1586.49,-68.1213 1576.36,-65.0391 1576.65,-72.0331"/>
</g>
<!-- Node41&#45;&gt;Node10 -->
<g id="edge99" class="edge"><title>Node41&#45;&gt;Node10</title>
<path fill="none" stroke="midnightblue" d="M449.235,-174.662C335.318,-168.113 59.4973,-145.283 4.57166,-76 -8.61788,-59.3628 10.5623,-39.0991 27.8092,-25.666"/>
<polygon fill="midnightblue" stroke="midnightblue" points="29.9865,-28.4094 35.9703,-19.6661 25.8402,-22.7695 29.9865,-28.4094"/>
</g>
<!-- Node41&#45;&gt;Node13 -->
<g id="edge95" class="edge"><title>Node41&#45;&gt;Node13</title>
<path fill="none" stroke="midnightblue" d="M449.44,-175.264C409.05,-171.621 352.08,-161.175 311.572,-132 281.396,-110.267 250.945,-82.9477 276.572,-56 306.486,-24.5441 964.661,-13.7312 1132.76,-11.4774"/>
<polygon fill="midnightblue" stroke="midnightblue" points="1132.94,-14.9755 1142.89,-11.3441 1132.84,-7.97612 1132.94,-14.9755"/>
</g>
<!-- Node41&#45;&gt;Node14 -->
<g id="edge96" class="edge"><title>Node41&#45;&gt;Node14</title>
<path fill="none" stroke="midnightblue" d="M487.646,-168.324C477.397,-160.185 461.851,-147.839 449.571,-138.087"/>
<polygon fill="midnightblue" stroke="midnightblue" points="451.704,-135.312 441.696,-131.834 447.35,-140.794 451.704,-135.312"/>
</g>
<!-- Node41&#45;&gt;Node15 -->
<g id="edge91" class="edge"><title>Node41&#45;&gt;Node15</title>
<path fill="none" stroke="midnightblue" d="M497.808,-168.393C497.083,-154.395 497.9,-126.779 513.572,-112 583.101,-46.4296 632.329,-96.9671 725.572,-76 727.05,-75.6676 728.561,-75.3088 730.083,-74.9325"/>
<polygon fill="midnightblue" stroke="midnightblue" points="731.283,-78.2353 740.052,-72.2886 729.489,-71.4693 731.283,-78.2353"/>
</g>
<!-- Node41&#45;&gt;Node29 -->
<g id="edge92" class="edge"><title>Node41&#45;&gt;Node29</title>
<path fill="none" stroke="midnightblue" d="M522.023,-168.444C549.342,-158.476 594.27,-142.083 622.043,-131.95"/>
<polygon fill="midnightblue" stroke="midnightblue" points="623.58,-135.115 631.775,-128.399 621.181,-128.539 623.58,-135.115"/>
</g>
<!-- Node41&#45;&gt;Node32 -->
<g id="edge93" class="edge"><title>Node41&#45;&gt;Node32</title>
<path fill="none" stroke="midnightblue" d="M545.315,-168.444C600.07,-158.421 690.307,-141.903 745.59,-131.783"/>
<polygon fill="midnightblue" stroke="midnightblue" points="746.283,-135.214 755.489,-129.971 745.023,-128.329 746.283,-135.214"/>
</g>
<!-- Node42 -->
<g id="node42" class="node"><title>Node42</title>
<g id="a_node42"><a xlink:href="menuitemsmanager_8h" target="_top" xlink:title="menuitemsmanager.h">
<polygon fill="white" stroke="red" points="286.072,-56.5 286.072,-75.5 395.072,-75.5 395.072,-56.5 286.072,-56.5"/>
<text text-anchor="middle" x="340.572" y="-63.5" font-family="FreeSans" font-size="10.00">menuitemsmanager.h</text>
</a>
</g>
</g>
<!-- Node41&#45;&gt;Node42 -->
<g id="edge97" class="edge"><title>Node41&#45;&gt;Node42</title>
<path fill="none" stroke="midnightblue" d="M449.469,-171.412C402.142,-164.896 335.433,-152.342 319.572,-132 308.685,-118.038 317.639,-98.2534 326.994,-84.1866"/>
<polygon fill="midnightblue" stroke="midnightblue" points="329.972,-86.0414 332.995,-75.8871 324.299,-81.9397 329.972,-86.0414"/>
</g>
<!-- Node42&#45;&gt;Node13 -->
<g id="edge98" class="edge"><title>Node42&#45;&gt;Node13</title>
<path fill="none" stroke="midnightblue" d="M395.145,-57.5197C400.018,-56.9613 404.881,-56.4438 409.572,-56 685.961,-29.8466 1020.28,-16.3626 1132.63,-12.3264"/>
<polygon fill="midnightblue" stroke="midnightblue" points="1132.93,-15.818 1142.8,-11.9652 1132.68,-8.82245 1132.93,-15.818"/>
</g>
<!-- Node43&#45;&gt;Node4 -->
<g id="edge101" class="edge"><title>Node43&#45;&gt;Node4</title>
<path fill="none" stroke="midnightblue" d="M2035.9,-224.444C2055.89,-215.596 2087.31,-201.687 2110.14,-191.586"/>
<polygon fill="midnightblue" stroke="midnightblue" points="2111.6,-194.764 2119.33,-187.516 2108.77,-188.363 2111.6,-194.764"/>
</g>
<!-- Node43&#45;&gt;Node13 -->
<g id="edge112" class="edge"><title>Node43&#45;&gt;Node13</title>
<path fill="none" stroke="midnightblue" d="M2014.27,-224.312C2010.06,-210.199 1999.75,-182.42 1980.57,-168 1907.15,-112.795 1665.35,-103.066 1577.57,-76 1554.31,-68.8262 1550.16,-62.0214 1526.57,-56 1413.96,-27.2555 1276.34,-16.4908 1210.42,-12.7783"/>
<polygon fill="midnightblue" stroke="midnightblue" points="1210.26,-9.26499 1200.09,-12.2219 1209.89,-16.2549 1210.26,-9.26499"/>
</g>
<!-- Node44 -->
<g id="node44" class="node"><title>Node44</title>
<g id="a_node44"><a xlink:href="compiler_8h" target="_top" xlink:title="compiler.h">
<polygon fill="white" stroke="red" points="2029.07,-168.5 2029.07,-187.5 2090.07,-187.5 2090.07,-168.5 2029.07,-168.5"/>
<text text-anchor="middle" x="2059.57" y="-175.5" font-family="FreeSans" font-size="10.00">compiler.h</text>
</a>
</g>
</g>
<!-- Node43&#45;&gt;Node44 -->
<g id="edge102" class="edge"><title>Node43&#45;&gt;Node44</title>
<path fill="none" stroke="midnightblue" d="M2023.67,-224.083C2029.81,-216.377 2038.84,-205.033 2046.31,-195.653"/>
<polygon fill="midnightblue" stroke="midnightblue" points="2049.11,-197.754 2052.6,-187.751 2043.64,-193.394 2049.11,-197.754"/>
</g>
<!-- Node44&#45;&gt;Node3 -->
<g id="edge105" class="edge"><title>Node44&#45;&gt;Node3</title>
<path fill="none" stroke="midnightblue" d="M2090.12,-170.004C2093.31,-169.311 2096.5,-168.631 2099.57,-168 2187.06,-150.005 2338.52,-188.588 2292.57,-112 2265.36,-66.6482 2238.55,-70.0997 2187.57,-56 2032.53,-13.1146 1624.36,-38.5707 1464.57,-20 1461.92,-19.6923 1459.2,-19.3284 1456.47,-18.9261"/>
<polygon fill="midnightblue" stroke="midnightblue" points="1457.01,-15.469 1446.58,-17.3338 1455.9,-22.3798 1457.01,-15.469"/>
</g>
<!-- Node44&#45;&gt;Node6 -->
<g id="edge103" class="edge"><title>Node44&#45;&gt;Node6</title>
<path fill="none" stroke="midnightblue" d="M2090.1,-169.919C2093.3,-169.242 2096.5,-168.589 2099.57,-168 2149.73,-158.389 2293.41,-170.841 2326.57,-132 2348.51,-106.313 2349.61,-80.7001 2326.57,-56 2287.29,-13.8918 1866.88,-25.5733 1809.57,-20 1796.35,-18.7141 1781.8,-16.9601 1769.26,-15.342"/>
<polygon fill="midnightblue" stroke="midnightblue" points="1769.65,-11.8628 1759.28,-14.0281 1768.73,-18.803 1769.65,-11.8628"/>
</g>
<!-- Node44&#45;&gt;Node9 -->
<g id="edge106" class="edge"><title>Node44&#45;&gt;Node9</title>
<path fill="none" stroke="midnightblue" d="M2090.09,-169.848C2093.28,-169.185 2096.49,-168.555 2099.57,-168 2158.06,-157.467 2325.48,-176.762 2364.57,-132 2386.79,-106.559 2387.38,-80.914 2364.57,-56 2333.72,-22.3025 2022.94,-13.6985 1902.71,-11.623"/>
<polygon fill="midnightblue" stroke="midnightblue" points="1902.75,-8.12326 1892.7,-11.4577 1902.64,-15.1223 1902.75,-8.12326"/>
</g>
<!-- Node44&#45;&gt;Node15 -->
<g id="edge104" class="edge"><title>Node44&#45;&gt;Node15</title>
<path fill="none" stroke="midnightblue" d="M2054.19,-168.217C2044.56,-153.428 2022.82,-123.997 1995.57,-112 1938.33,-86.7992 962.841,-70.24 785.21,-67.4266"/>
<polygon fill="midnightblue" stroke="midnightblue" points="785.171,-63.9256 775.117,-67.268 785.061,-70.9247 785.171,-63.9256"/>
</g>
<!-- Node44&#45;&gt;Node35 -->
<g id="edge107" class="edge"><title>Node44&#45;&gt;Node35</title>
<path fill="none" stroke="midnightblue" d="M2090.07,-169.751C2093.27,-169.107 2096.48,-168.508 2099.57,-168 2237.8,-145.297 2403.01,-131.78 2482.4,-126.121"/>
<polygon fill="midnightblue" stroke="midnightblue" points="2482.84,-129.6 2492.56,-125.407 2482.34,-122.617 2482.84,-129.6"/>
</g>
<!-- Node44&#45;&gt;Node38 -->
<g id="edge108" class="edge"><title>Node44&#45;&gt;Node38</title>
<path fill="none" stroke="midnightblue" d="M2042.86,-168.324C2026.26,-159.703 2000.57,-146.364 1981.35,-136.386"/>
<polygon fill="midnightblue" stroke="midnightblue" points="1982.73,-133.156 1972.24,-131.655 1979.5,-139.369 1982.73,-133.156"/>
</g>
<!-- Node45 -->
<g id="node45" class="node"><title>Node45</title>
<g id="a_node45"><a xlink:href="compileoptionsbase_8h" target="_top" xlink:title="compileoptionsbase.h">
<polygon fill="white" stroke="black" points="2175.07,-112.5 2175.07,-131.5 2284.07,-131.5 2284.07,-112.5 2175.07,-112.5"/>
<text text-anchor="middle" x="2229.57" y="-119.5" font-family="FreeSans" font-size="10.00">compileoptionsbase.h</text>
</a>
</g>
</g>
<!-- Node44&#45;&gt;Node45 -->
<g id="edge109" class="edge"><title>Node44&#45;&gt;Node45</title>
<path fill="none" stroke="midnightblue" d="M2086.51,-168.444C2115.23,-159.32 2160.9,-144.813 2192.89,-134.651"/>
<polygon fill="midnightblue" stroke="midnightblue" points="2194.29,-137.88 2202.76,-131.516 2192.17,-131.208 2194.29,-137.88"/>
</g>
<!-- Node45&#45;&gt;Node5 -->
<g id="edge110" class="edge"><title>Node45&#45;&gt;Node5</title>
<path fill="none" stroke="midnightblue" d="M2174.79,-113.081C2171.67,-112.698 2168.58,-112.334 2165.57,-112 1972.27,-90.5474 1739.81,-74.9013 1650.76,-69.2792"/>
<polygon fill="midnightblue" stroke="midnightblue" points="1650.82,-65.7764 1640.62,-68.6436 1650.38,-72.7627 1650.82,-65.7764"/>
</g>
<!-- Node45&#45;&gt;Node24 -->
<g id="edge111" class="edge"><title>Node45&#45;&gt;Node24</title>
<path fill="none" stroke="midnightblue" d="M2215.27,-112.324C2201.39,-103.9 2180.08,-90.9709 2163.77,-81.0741"/>
<polygon fill="midnightblue" stroke="midnightblue" points="2165.2,-77.8495 2154.84,-75.6545 2161.57,-83.8341 2165.2,-77.8495"/>
</g>
<!-- Node46&#45;&gt;Node45 -->
<g id="edge114" class="edge"><title>Node46&#45;&gt;Node45</title>
<path fill="none" stroke="midnightblue" d="M2237.09,-168.083C2235.89,-160.927 2234.18,-150.635 2232.69,-141.691"/>
<polygon fill="midnightblue" stroke="midnightblue" points="2236.13,-141.04 2231.03,-131.751 2229.22,-142.19 2236.13,-141.04"/>
</g>
<!-- Node47&#45;&gt;Node6 -->
<g id="edge124" class="edge"><title>Node47&#45;&gt;Node6</title>
<path fill="none" stroke="midnightblue" d="M2590.96,-225.851C2647.96,-213.262 2760.24,-188.418 2760.57,-188 2798.76,-140.369 2775.94,-85.6431 2722.57,-56 2633.82,-6.70436 1910.75,-28.3037 1809.57,-20 1796.33,-18.9133 1781.78,-17.1944 1769.24,-15.5487"/>
<polygon fill="midnightblue" stroke="midnightblue" points="1769.64,-12.0706 1759.26,-14.199 1768.7,-19.0075 1769.64,-12.0706"/>
</g>
<!-- Node47&#45;&gt;Node7 -->
<g id="edge119" class="edge"><title>Node47&#45;&gt;Node7</title>
<path fill="none" stroke="midnightblue" d="M2590.78,-225.812C2593.75,-225.185 2596.71,-224.572 2599.57,-224 2770.41,-189.809 2891.2,-234.937 2962.57,-76 2975.51,-47.1829 2938.02,-29.788 2904.9,-20.3422"/>
<polygon fill="midnightblue" stroke="midnightblue" points="2905.39,-16.8499 2894.82,-17.6621 2903.59,-23.6147 2905.39,-16.8499"/>
</g>
<!-- Node47&#45;&gt;Node13 -->
<g id="edge120" class="edge"><title>Node47&#45;&gt;Node13</title>
<path fill="none" stroke="midnightblue" d="M2588.94,-224.466C2617.62,-215.719 2657.56,-201.521 2666.57,-188 2692.82,-148.629 2732.25,-132.48 2629.57,-56 2573.68,-14.3663 1445.22,-22.536 1375.57,-20 1318.05,-17.9056 1251.43,-14.8475 1210.39,-12.8907"/>
<polygon fill="midnightblue" stroke="midnightblue" points="1210.44,-9.38888 1200.28,-12.4061 1210.1,-16.3809 1210.44,-9.38888"/>
</g>
<!-- Node47&#45;&gt;Node15 -->
<g id="edge123" class="edge"><title>Node47&#45;&gt;Node15</title>
<path fill="none" stroke="midnightblue" d="M2563.94,-224.213C2576.77,-201.994 2605.94,-143.128 2575.57,-112 2559.23,-95.2454 1011.87,-70.8981 785.167,-67.4196"/>
<polygon fill="midnightblue" stroke="midnightblue" points="785.157,-63.9192 775.104,-67.2657 785.049,-70.9183 785.157,-63.9192"/>
</g>
<!-- Node47&#45;&gt;Node24 -->
<g id="edge118" class="edge"><title>Node47&#45;&gt;Node24</title>
<path fill="none" stroke="midnightblue" d="M2590.86,-225.588C2610.67,-219.194 2634.48,-207.76 2646.57,-188 2664.2,-159.187 2669.37,-136.92 2646.57,-112 2616.09,-78.6892 2310.59,-69.8761 2189.57,-67.6829"/>
<polygon fill="midnightblue" stroke="midnightblue" points="2189.53,-64.1818 2179.47,-67.5076 2189.41,-71.1807 2189.53,-64.1818"/>
</g>
<!-- Node47&#45;&gt;Node34 -->
<g id="edge122" class="edge"><title>Node47&#45;&gt;Node34</title>
<path fill="none" stroke="midnightblue" d="M2546.68,-224.324C2535.42,-216.107 2518.29,-203.602 2504.86,-193.807"/>
<polygon fill="midnightblue" stroke="midnightblue" points="2506.82,-190.901 2496.68,-187.834 2502.69,-196.556 2506.82,-190.901"/>
</g>
<!-- Node47&#45;&gt;Node35 -->
<g id="edge117" class="edge"><title>Node47&#45;&gt;Node35</title>
<path fill="none" stroke="midnightblue" d="M2556.3,-224.368C2551.59,-206.537 2540.72,-165.295 2534.39,-141.272"/>
<polygon fill="midnightblue" stroke="midnightblue" points="2537.77,-140.369 2531.84,-131.591 2531,-142.153 2537.77,-140.369"/>
</g>
<!-- Node47&#45;&gt;Node46 -->
<g id="edge121" class="edge"><title>Node47&#45;&gt;Node46</title>
<path fill="none" stroke="midnightblue" d="M2526.42,-227.575C2473.36,-218.62 2366.6,-200.605 2299.07,-189.209"/>
<polygon fill="midnightblue" stroke="midnightblue" points="2299.43,-185.721 2288.99,-187.508 2298.27,-192.623 2299.43,-185.721"/>
</g>
<!-- Node48 -->
<g id="node48" class="node"><title>Node48</title>
<polygon fill="white" stroke="#bfbfbf" points="2080.57,-112.5 2080.57,-131.5 2156.57,-131.5 2156.57,-112.5 2080.57,-112.5"/>
<text text-anchor="middle" x="2118.57" y="-119.5" font-family="FreeSans" font-size="10.00">wx/datetime.h</text>
</g>
<!-- Node47&#45;&gt;Node48 -->
<g id="edge116" class="edge"><title>Node47&#45;&gt;Node48</title>
<path fill="none" stroke="midnightblue" d="M2526.22,-224.911C2448.44,-205.467 2250.9,-156.082 2162.5,-133.983"/>
<polygon fill="midnightblue" stroke="midnightblue" points="2163.33,-130.582 2152.78,-131.552 2161.63,-137.373 2163.33,-130.582"/>
</g>
<!-- Node49&#45;&gt;Node13 -->
<g id="edge128" class="edge"><title>Node49&#45;&gt;Node13</title>
<path fill="none" stroke="midnightblue" d="M1912.97,-170.07C1846.68,-154.427 1681.42,-114.715 1544.57,-76 1515.9,-67.8875 1509.63,-62.6125 1480.57,-56 1384.58,-34.1559 1269.29,-20.6588 1210.38,-14.6584"/>
<polygon fill="midnightblue" stroke="midnightblue" points="1210.69,-11.1725 1200.39,-13.6585 1209.99,-18.1377 1210.69,-11.1725"/>
</g>
<!-- Node49&#45;&gt;Node24 -->
<g id="edge126" class="edge"><title>Node49&#45;&gt;Node24</title>
<path fill="none" stroke="midnightblue" d="M1958.11,-168.368C1992.45,-149.292 2075.01,-103.422 2116.26,-80.5054"/>
<polygon fill="midnightblue" stroke="midnightblue" points="2118.07,-83.5075 2125.11,-75.5914 2114.67,-77.3883 2118.07,-83.5075"/>
</g>
<!-- Node49&#45;&gt;Node33 -->
<g id="edge129" class="edge"><title>Node49&#45;&gt;Node33</title>
<path fill="none" stroke="midnightblue" d="M1912.82,-169.824C1909.71,-169.166 1906.58,-168.543 1903.57,-168 1801.05,-149.489 1679.97,-135.402 1612.56,-128.244"/>
<polygon fill="midnightblue" stroke="midnightblue" points="1612.53,-124.721 1602.22,-127.155 1611.8,-131.682 1612.53,-124.721"/>
</g>
<!-- Node49&#45;&gt;Node48 -->
<g id="edge127" class="edge"><title>Node49&#45;&gt;Node48</title>
<path fill="none" stroke="midnightblue" d="M1970.46,-168.444C2000.33,-159.28 2047.89,-144.688 2081.03,-134.519"/>
<polygon fill="midnightblue" stroke="midnightblue" points="2082.28,-137.796 2090.81,-131.516 2080.23,-131.104 2082.28,-137.796"/>
</g>
</g>
</svg>
