<?xml version="1.0" encoding="UTF-8" standalone="no"?>
<!DOCTYPE svg PUBLIC "-//W3C//DTD SVG 1.1//EN"
 "http://www.w3.org/Graphics/SVG/1.1/DTD/svg11.dtd">
<!-- Generated by graphviz version 2.38.0 (20140413.2041)
 -->
<!-- Title: sc_consts.cpp Pages: 1 -->
<svg width="2313pt" height="308pt"
 viewBox="0.00 0.00 2313.46 308.00" xmlns="http://www.w3.org/2000/svg" xmlns:xlink="http://www.w3.org/1999/xlink">
<g id="graph0" class="graph" transform="scale(1 1) rotate(0) translate(4 304)">
<title>sc_consts.cpp</title>
<!-- Node0 -->
<g id="node1" class="node"><title>Node0</title>
<polygon fill="#bfbfbf" stroke="black" points="1391.5,-280.5 1391.5,-299.5 1468.5,-299.5 1468.5,-280.5 1391.5,-280.5"/>
<text text-anchor="middle" x="1430" y="-287.5" font-family="FreeSans" font-size="10.00">sc_consts.cpp</text>
</g>
<!-- Node1 -->
<g id="node2" class="node"><title>Node1</title>
<g id="a_node2"><a xlink:href="sdk__precomp_8h" target="_top" xlink:title="sdk_precomp.h">
<polygon fill="none" stroke="black" points="1389,-224.5 1389,-243.5 1471,-243.5 1471,-224.5 1389,-224.5"/>
<text text-anchor="middle" x="1430" y="-231.5" font-family="FreeSans" font-size="10.00">sdk_precomp.h</text>
</a>
</g>
</g>
<!-- Node0&#45;&gt;Node1 -->
<g id="edge1" class="edge"><title>Node0&#45;&gt;Node1</title>
<path fill="none" stroke="midnightblue" d="M1430,-280.083C1430,-273.006 1430,-262.861 1430,-253.986"/>
<polygon fill="midnightblue" stroke="midnightblue" points="1433.5,-253.751 1430,-243.751 1426.5,-253.751 1433.5,-253.751"/>
</g>
<!-- Node137 -->
<g id="node28" class="node"><title>Node137</title>
<g id="a_node28"><a xlink:href="filefilters_8h" target="_top" xlink:title="filefilters.h">
<polygon fill="none" stroke="black" points="1619.5,-56.5 1619.5,-75.5 1678.5,-75.5 1678.5,-56.5 1619.5,-56.5"/>
<text text-anchor="middle" x="1649" y="-63.5" font-family="FreeSans" font-size="10.00">filefilters.h</text>
</a>
</g>
</g>
<!-- Node0&#45;&gt;Node137 -->
<g id="edge45" class="edge"><title>Node0&#45;&gt;Node137</title>
<path fill="none" stroke="midnightblue" d="M1468.55,-288.297C1622.75,-284.601 2192.17,-262.197 2301,-132 2306.7,-125.18 2307.07,-118.498 2301,-112 2259.21,-67.2286 1824.16,-65.9677 1688.9,-66.671"/>
<polygon fill="midnightblue" stroke="midnightblue" points="1688.56,-63.1728 1678.58,-66.7316 1688.6,-70.1727 1688.56,-63.1728"/>
</g>
<!-- Node138 -->
<g id="node29" class="node"><title>Node138</title>
<g id="a_node29"><a xlink:href="sc__base__types_8h" target="_top" xlink:title="sc_base_types.h">
<polygon fill="none" stroke="black" points="574.5,-168.5 574.5,-187.5 661.5,-187.5 661.5,-168.5 574.5,-168.5"/>
<text text-anchor="middle" x="618" y="-175.5" font-family="FreeSans" font-size="10.00">sc_base_types.h</text>
</a>
</g>
</g>
<!-- Node0&#45;&gt;Node138 -->
<g id="edge48" class="edge"><title>Node0&#45;&gt;Node138</title>
<path fill="none" stroke="midnightblue" d="M1391.38,-283.768C1259.21,-265.863 824.71,-207.003 671.809,-186.289"/>
<polygon fill="midnightblue" stroke="midnightblue" points="672.102,-182.797 661.723,-184.923 671.163,-189.734 672.102,-182.797"/>
</g>
<!-- Node2 -->
<g id="node3" class="node"><title>Node2</title>
<g id="a_node3"><a xlink:href="sdk__common_8h" target="_top" xlink:title="sdk_common.h">
<polygon fill="none" stroke="red" points="1389,-168.5 1389,-187.5 1471,-187.5 1471,-168.5 1389,-168.5"/>
<text text-anchor="middle" x="1430" y="-175.5" font-family="FreeSans" font-size="10.00">sdk_common.h</text>
</a>
</g>
</g>
<!-- Node1&#45;&gt;Node2 -->
<g id="edge2" class="edge"><title>Node1&#45;&gt;Node2</title>
<path fill="none" stroke="midnightblue" d="M1430,-224.083C1430,-217.006 1430,-206.861 1430,-197.986"/>
<polygon fill="midnightblue" stroke="midnightblue" points="1433.5,-197.751 1430,-187.751 1426.5,-197.751 1433.5,-197.751"/>
</g>
<!-- Node3 -->
<g id="node4" class="node"><title>Node3</title>
<polygon fill="none" stroke="#bfbfbf" points="1705,-112.5 1705,-131.5 1773,-131.5 1773,-112.5 1705,-112.5"/>
<text text-anchor="middle" x="1739" y="-119.5" font-family="FreeSans" font-size="10.00">wx/wxprec.h</text>
</g>
<!-- Node2&#45;&gt;Node3 -->
<g id="edge3" class="edge"><title>Node2&#45;&gt;Node3</title>
<path fill="none" stroke="midnightblue" d="M1471.1,-170.554C1521.5,-162.537 1609.76,-148.136 1694.93,-132.147"/>
<polygon fill="midnightblue" stroke="midnightblue" points="1695.58,-135.586 1704.76,-130.292 1694.28,-128.707 1695.58,-135.586"/>
</g>
<!-- Node4 -->
<g id="node5" class="node"><title>Node4</title>
<g id="a_node5"><a xlink:href="prep_8h" target="_top" xlink:title="prep.h">
<polygon fill="none" stroke="black" points="1485.5,-56.5 1485.5,-75.5 1528.5,-75.5 1528.5,-56.5 1485.5,-56.5"/>
<text text-anchor="middle" x="1507" y="-63.5" font-family="FreeSans" font-size="10.00">prep.h</text>
</a>
</g>
</g>
<!-- Node2&#45;&gt;Node4 -->
<g id="edge4" class="edge"><title>Node2&#45;&gt;Node4</title>
<path fill="none" stroke="midnightblue" d="M1471.1,-170.425C1493.77,-164.472 1520.07,-153.211 1534,-132 1544,-116.776 1533.2,-97.2433 1522.43,-83.5811"/>
<polygon fill="midnightblue" stroke="midnightblue" points="1525.06,-81.2729 1515.92,-75.9241 1519.73,-85.8087 1525.06,-81.2729"/>
</g>
<!-- Node5 -->
<g id="node6" class="node"><title>Node5</title>
<polygon fill="none" stroke="#bfbfbf" points="1791,-112.5 1791,-131.5 1845,-131.5 1845,-112.5 1791,-112.5"/>
<text text-anchor="middle" x="1818" y="-119.5" font-family="FreeSans" font-size="10.00">wx/app.h</text>
</g>
<!-- Node2&#45;&gt;Node5 -->
<g id="edge5" class="edge"><title>Node2&#45;&gt;Node5</title>
<path fill="none" stroke="midnightblue" d="M1471.16,-173.325C1535.33,-167.252 1663.21,-153.763 1781.04,-131.983"/>
<polygon fill="midnightblue" stroke="midnightblue" points="1781.76,-135.407 1790.95,-130.126 1780.48,-128.527 1781.76,-135.407"/>
</g>
<!-- Node6 -->
<g id="node7" class="node"><title>Node6</title>
<polygon fill="none" stroke="#bfbfbf" points="982,-112.5 982,-131.5 1042,-131.5 1042,-112.5 982,-112.5"/>
<text text-anchor="middle" x="1012" y="-119.5" font-family="FreeSans" font-size="10.00">wx/arrstr.h</text>
</g>
<!-- Node2&#45;&gt;Node6 -->
<g id="edge6" class="edge"><title>Node2&#45;&gt;Node6</title>
<path fill="none" stroke="midnightblue" d="M1388.85,-173.59C1320.8,-167.631 1180.43,-153.983 1052.17,-132.035"/>
<polygon fill="midnightblue" stroke="midnightblue" points="1052.62,-128.561 1042.17,-130.303 1051.42,-135.458 1052.62,-128.561"/>
</g>
<!-- Node7 -->
<g id="node8" class="node"><title>Node7</title>
<polygon fill="none" stroke="#bfbfbf" points="1863.5,-112.5 1863.5,-131.5 1942.5,-131.5 1942.5,-112.5 1863.5,-112.5"/>
<text text-anchor="middle" x="1903" y="-119.5" font-family="FreeSans" font-size="10.00">wx/bmpbuttn.h</text>
</g>
<!-- Node2&#45;&gt;Node7 -->
<g id="edge7" class="edge"><title>Node2&#45;&gt;Node7</title>
<path fill="none" stroke="midnightblue" d="M1471.06,-173.686C1545.22,-167.474 1706.61,-152.92 1853.37,-131.982"/>
<polygon fill="midnightblue" stroke="midnightblue" points="1854.06,-135.418 1863.46,-130.528 1853.07,-128.489 1854.06,-135.418"/>
</g>
<!-- Node8 -->
<g id="node9" class="node"><title>Node8</title>
<polygon fill="none" stroke="#bfbfbf" points="1960.5,-112.5 1960.5,-131.5 2025.5,-131.5 2025.5,-112.5 1960.5,-112.5"/>
<text text-anchor="middle" x="1993" y="-119.5" font-family="FreeSans" font-size="10.00">wx/button.h</text>
</g>
<!-- Node2&#45;&gt;Node8 -->
<g id="edge8" class="edge"><title>Node2&#45;&gt;Node8</title>
<path fill="none" stroke="midnightblue" d="M1471.16,-175.275C1558,-171.242 1766.46,-159.5 1950.28,-132.087"/>
<polygon fill="midnightblue" stroke="midnightblue" points="1951.03,-135.512 1960.4,-130.557 1949.99,-128.591 1951.03,-135.512"/>
</g>
<!-- Node9 -->
<g id="node10" class="node"><title>Node9</title>
<polygon fill="none" stroke="#bfbfbf" points="2120,-112.5 2120,-131.5 2200,-131.5 2200,-112.5 2120,-112.5"/>
<text text-anchor="middle" x="2160" y="-119.5" font-family="FreeSans" font-size="10.00">wx/checkbox.h</text>
</g>
<!-- Node2&#45;&gt;Node9 -->
<g id="edge9" class="edge"><title>Node2&#45;&gt;Node9</title>
<path fill="none" stroke="midnightblue" d="M1471.28,-175.671C1577.09,-171.957 1866.49,-159.862 2106,-132 2107.27,-131.852 2108.56,-131.694 2109.87,-131.528"/>
<polygon fill="midnightblue" stroke="midnightblue" points="2110.54,-134.969 2119.96,-130.125 2109.57,-128.036 2110.54,-134.969"/>
</g>
<!-- Node10 -->
<g id="node11" class="node"><title>Node10</title>
<polygon fill="none" stroke="#bfbfbf" points="2218,-112.5 2218,-131.5 2292,-131.5 2292,-112.5 2218,-112.5"/>
<text text-anchor="middle" x="2255" y="-119.5" font-family="FreeSans" font-size="10.00">wx/checklst.h</text>
</g>
<!-- Node2&#45;&gt;Node10 -->
<g id="edge10" class="edge"><title>Node2&#45;&gt;Node10</title>
<path fill="none" stroke="midnightblue" d="M1471.14,-176.583C1586.09,-175.002 1920.47,-167.562 2207.71,-131.982"/>
<polygon fill="midnightblue" stroke="midnightblue" points="2208.43,-135.42 2217.91,-130.704 2207.56,-128.474 2208.43,-135.42"/>
</g>
<!-- Node11 -->
<g id="node12" class="node"><title>Node11</title>
<polygon fill="none" stroke="#bfbfbf" points="1619.5,-112.5 1619.5,-131.5 1686.5,-131.5 1686.5,-112.5 1619.5,-112.5"/>
<text text-anchor="middle" x="1653" y="-119.5" font-family="FreeSans" font-size="10.00">wx/choice.h</text>
</g>
<!-- Node2&#45;&gt;Node11 -->
<g id="edge11" class="edge"><title>Node2&#45;&gt;Node11</title>
<path fill="none" stroke="midnightblue" d="M1465.34,-168.444C1504.36,-158.992 1567.24,-143.766 1609.33,-133.575"/>
<polygon fill="midnightblue" stroke="midnightblue" points="1610.39,-136.918 1619.29,-131.163 1608.75,-130.115 1610.39,-136.918"/>
</g>
<!-- Node53 -->
<g id="node13" class="node"><title>Node53</title>
<polygon fill="none" stroke="#bfbfbf" points="1482,-0.5 1482,-19.5 1544,-19.5 1544,-0.5 1482,-0.5"/>
<text text-anchor="middle" x="1513" y="-7.5" font-family="FreeSans" font-size="10.00">wx/string.h</text>
</g>
<!-- Node2&#45;&gt;Node53 -->
<g id="edge12" class="edge"><title>Node2&#45;&gt;Node53</title>
<path fill="none" stroke="midnightblue" d="M1471.02,-177.182C1603.17,-177.347 2011.57,-174.394 2051,-132 2121.3,-56.4218 1691.46,-22.3161 1554.16,-13.4394"/>
<polygon fill="midnightblue" stroke="midnightblue" points="1554.24,-9.9375 1544.04,-12.7967 1553.79,-16.9234 1554.24,-9.9375"/>
</g>
<!-- Node71 -->
<g id="node14" class="node"><title>Node71</title>
<g id="a_node14"><a xlink:href="settings_8h" target="_top" xlink:title="settings.h">
<polygon fill="none" stroke="black" points="890.5,-0.5 890.5,-19.5 947.5,-19.5 947.5,-0.5 890.5,-0.5"/>
<text text-anchor="middle" x="919" y="-7.5" font-family="FreeSans" font-size="10.00">settings.h</text>
</a>
</g>
</g>
<!-- Node2&#45;&gt;Node71 -->
<g id="edge13" class="edge"><title>Node2&#45;&gt;Node71</title>
<path fill="none" stroke="midnightblue" d="M1471.25,-173.322C1498.52,-168.502 1532.38,-157.42 1550,-132 1562.61,-113.803 1553.91,-70.4634 1537,-56 1493.02,-18.3761 1086.27,-12.2081 957.737,-11.1977"/>
<polygon fill="midnightblue" stroke="midnightblue" points="957.596,-7.69671 947.571,-11.1242 957.545,-14.6965 957.596,-7.69671"/>
</g>
<!-- Node72 -->
<g id="node15" class="node"><title>Node72</title>
<g id="a_node15"><a xlink:href="globals_8h" target="_top" xlink:title="globals.h">
<polygon fill="none" stroke="red" points="1350,-56.5 1350,-75.5 1404,-75.5 1404,-56.5 1350,-56.5"/>
<text text-anchor="middle" x="1377" y="-63.5" font-family="FreeSans" font-size="10.00">globals.h</text>
</a>
</g>
</g>
<!-- Node2&#45;&gt;Node72 -->
<g id="edge14" class="edge"><title>Node2&#45;&gt;Node72</title>
<path fill="none" stroke="midnightblue" d="M1471.32,-177.098C1601.5,-176.978 1996.75,-173.199 2035,-132 2041.05,-125.486 2041.08,-118.484 2035,-112 1992.43,-66.5976 1538.05,-80.8179 1476,-76 1455.62,-74.418 1432.92,-72.3738 1414.39,-70.6336"/>
<polygon fill="midnightblue" stroke="midnightblue" points="1414.58,-67.136 1404.3,-69.6764 1413.92,-74.1048 1414.58,-67.136"/>
</g>
<!-- Node79 -->
<g id="node16" class="node"><title>Node79</title>
<g id="a_node16"><a xlink:href="cbeditor_8h" target="_top" xlink:title="cbeditor.h">
<polygon fill="none" stroke="red" points="224.5,-112.5 224.5,-131.5 283.5,-131.5 283.5,-112.5 224.5,-112.5"/>
<text text-anchor="middle" x="254" y="-119.5" font-family="FreeSans" font-size="10.00">cbeditor.h</text>
</a>
</g>
</g>
<!-- Node2&#45;&gt;Node79 -->
<g id="edge17" class="edge"><title>Node2&#45;&gt;Node79</title>
<path fill="none" stroke="midnightblue" d="M1388.52,-175.774C1246.33,-171.457 765.59,-155.921 369,-132 343.977,-130.491 315.93,-128.306 293.798,-126.466"/>
<polygon fill="midnightblue" stroke="midnightblue" points="294.022,-122.973 283.764,-125.623 293.436,-129.948 294.022,-122.973"/>
</g>
<!-- Node83 -->
<g id="node17" class="node"><title>Node83</title>
<g id="a_node17"><a xlink:href="compiletargetbase_8h" target="_top" xlink:title="compiletargetbase.h">
<polygon fill="none" stroke="red" points="622.5,-56.5 622.5,-75.5 725.5,-75.5 725.5,-56.5 622.5,-56.5"/>
<text text-anchor="middle" x="674" y="-63.5" font-family="FreeSans" font-size="10.00">compiletargetbase.h</text>
</a>
</g>
</g>
<!-- Node2&#45;&gt;Node83 -->
<g id="edge19" class="edge"><title>Node2&#45;&gt;Node83</title>
<path fill="none" stroke="midnightblue" d="M1388.82,-171.038C1345.76,-164.153 1276.55,-151.245 1219,-132 1199.01,-125.315 1196.36,-117.467 1176,-112 1094.58,-90.134 851.335,-75.6906 735.992,-69.8837"/>
<polygon fill="midnightblue" stroke="midnightblue" points="736.068,-66.3833 725.906,-69.3816 735.719,-73.3746 736.068,-66.3833"/>
</g>
<!-- Node94 -->
<g id="node18" class="node"><title>Node94</title>
<g id="a_node18"><a xlink:href="cbproject_8h" target="_top" xlink:title="cbproject.h">
<polygon fill="none" stroke="red" points="488,-112.5 488,-131.5 552,-131.5 552,-112.5 488,-112.5"/>
<text text-anchor="middle" x="520" y="-119.5" font-family="FreeSans" font-size="10.00">cbproject.h</text>
</a>
</g>
</g>
<!-- Node2&#45;&gt;Node94 -->
<g id="edge20" class="edge"><title>Node2&#45;&gt;Node94</title>
<path fill="none" stroke="midnightblue" d="M1388.7,-174.95C1271.14,-169.05 924.559,-151.217 637,-132 612.257,-130.346 584.592,-128.231 562.378,-126.466"/>
<polygon fill="midnightblue" stroke="midnightblue" points="562.514,-122.966 552.267,-125.657 561.956,-129.944 562.514,-122.966"/>
</g>
<!-- Node96 -->
<g id="node19" class="node"><title>Node96</title>
<g id="a_node19"><a xlink:href="projectmanager_8h" target="_top" xlink:title="projectmanager.h">
<polygon fill="none" stroke="red" points="474.5,-56.5 474.5,-75.5 565.5,-75.5 565.5,-56.5 474.5,-56.5"/>
<text text-anchor="middle" x="520" y="-63.5" font-family="FreeSans" font-size="10.00">projectmanager.h</text>
</a>
</g>
</g>
<!-- Node2&#45;&gt;Node96 -->
<g id="edge35" class="edge"><title>Node2&#45;&gt;Node96</title>
<path fill="none" stroke="midnightblue" d="M1388.74,-174.374C1337.44,-170.062 1247.88,-159.064 1176,-132 1159.95,-125.957 1159.35,-117.172 1143,-112 1030.45,-76.3995 730.651,-85.6865 613,-76 601.001,-75.0121 588.143,-73.8406 575.932,-72.6749"/>
<polygon fill="midnightblue" stroke="midnightblue" points="576.151,-69.1798 565.86,-71.7013 575.477,-76.1473 576.151,-69.1798"/>
</g>
<!-- Node100 -->
<g id="node20" class="node"><title>Node100</title>
<g id="a_node20"><a xlink:href="compilerfactory_8h" target="_top" xlink:title="compilerfactory.h">
<polygon fill="none" stroke="black" points="874,-112.5 874,-131.5 964,-131.5 964,-112.5 874,-112.5"/>
<text text-anchor="middle" x="919" y="-119.5" font-family="FreeSans" font-size="10.00">compilerfactory.h</text>
</a>
</g>
</g>
<!-- Node2&#45;&gt;Node100 -->
<g id="edge25" class="edge"><title>Node2&#45;&gt;Node100</title>
<path fill="none" stroke="midnightblue" d="M1388.93,-173.884C1310.41,-167.726 1133.39,-152.876 974.032,-132.055"/>
<polygon fill="midnightblue" stroke="midnightblue" points="974.419,-128.576 964.047,-130.74 973.504,-135.516 974.419,-128.576"/>
</g>
<!-- Node111 -->
<g id="node21" class="node"><title>Node111</title>
<g id="a_node21"><a xlink:href="configmanager_8h" target="_top" xlink:title="configmanager.h">
<polygon fill="none" stroke="red" points="1333.5,-112.5 1333.5,-131.5 1420.5,-131.5 1420.5,-112.5 1333.5,-112.5"/>
<text text-anchor="middle" x="1377" y="-119.5" font-family="FreeSans" font-size="10.00">configmanager.h</text>
</a>
</g>
</g>
<!-- Node2&#45;&gt;Node111 -->
<g id="edge27" class="edge"><title>Node2&#45;&gt;Node111</title>
<path fill="none" stroke="midnightblue" d="M1421.25,-168.083C1413.53,-160.22 1402.1,-148.569 1392.78,-139.081"/>
<polygon fill="midnightblue" stroke="midnightblue" points="1395.09,-136.436 1385.59,-131.751 1390.1,-141.34 1395.09,-136.436"/>
</g>
<!-- Node114 -->
<g id="node22" class="node"><title>Node114</title>
<g id="a_node22"><a xlink:href="editormanager_8h" target="_top" xlink:title="editormanager.h">
<polygon fill="none" stroke="red" points="1439,-112.5 1439,-131.5 1525,-131.5 1525,-112.5 1439,-112.5"/>
<text text-anchor="middle" x="1482" y="-119.5" font-family="FreeSans" font-size="10.00">editormanager.h</text>
</a>
</g>
</g>
<!-- Node2&#45;&gt;Node114 -->
<g id="edge30" class="edge"><title>Node2&#45;&gt;Node114</title>
<path fill="none" stroke="midnightblue" d="M1438.59,-168.083C1446.16,-160.22 1457.38,-148.569 1466.51,-139.081"/>
<polygon fill="midnightblue" stroke="midnightblue" points="1469.16,-141.382 1473.57,-131.751 1464.12,-136.527 1469.16,-141.382"/>
</g>
<!-- Node115 -->
<g id="node23" class="node"><title>Node115</title>
<g id="a_node23"><a xlink:href="logmanager_8h" target="_top" xlink:title="logmanager.h">
<polygon fill="none" stroke="red" points="1060,-112.5 1060,-131.5 1134,-131.5 1134,-112.5 1060,-112.5"/>
<text text-anchor="middle" x="1097" y="-119.5" font-family="FreeSans" font-size="10.00">logmanager.h</text>
</a>
</g>
</g>
<!-- Node2&#45;&gt;Node115 -->
<g id="edge34" class="edge"><title>Node2&#45;&gt;Node115</title>
<path fill="none" stroke="midnightblue" d="M1388.87,-170.653C1333.92,-162.125 1233.56,-146.375 1148,-132 1146.73,-131.786 1145.44,-131.568 1144.14,-131.347"/>
<polygon fill="midnightblue" stroke="midnightblue" points="1144.48,-127.855 1134.03,-129.609 1143.3,-134.754 1144.48,-127.855"/>
</g>
<!-- Node117 -->
<g id="node24" class="node"><title>Node117</title>
<g id="a_node24"><a xlink:href="scriptingmanager_8h" target="_top" xlink:title="scriptingmanager.h">
<polygon fill="none" stroke="red" points="646,-112.5 646,-131.5 744,-131.5 744,-112.5 646,-112.5"/>
<text text-anchor="middle" x="695" y="-119.5" font-family="FreeSans" font-size="10.00">scriptingmanager.h</text>
</a>
</g>
</g>
<!-- Node2&#45;&gt;Node117 -->
<g id="edge36" class="edge"><title>Node2&#45;&gt;Node117</title>
<path fill="none" stroke="midnightblue" d="M1388.68,-175.515C1284.21,-171.489 1000.9,-158.898 754.243,-132.039"/>
<polygon fill="midnightblue" stroke="midnightblue" points="754.33,-128.527 744.008,-130.913 753.565,-135.485 754.33,-128.527"/>
</g>
<!-- Node120 -->
<g id="node25" class="node"><title>Node120</title>
<g id="a_node25"><a xlink:href="macrosmanager_8h" target="_top" xlink:title="macrosmanager.h">
<polygon fill="none" stroke="red" points="762.5,-112.5 762.5,-131.5 855.5,-131.5 855.5,-112.5 762.5,-112.5"/>
<text text-anchor="middle" x="809" y="-119.5" font-family="FreeSans" font-size="10.00">macrosmanager.h</text>
</a>
</g>
</g>
<!-- Node2&#45;&gt;Node120 -->
<g id="edge38" class="edge"><title>Node2&#45;&gt;Node120</title>
<path fill="none" stroke="midnightblue" d="M1388.77,-174.848C1296.89,-169.808 1068.16,-155.917 865.93,-132.013"/>
<polygon fill="midnightblue" stroke="midnightblue" points="866.056,-128.503 855.712,-130.793 865.227,-135.453 866.056,-128.503"/>
</g>
<!-- Node92 -->
<g id="node26" class="node"><title>Node92</title>
<g id="a_node26"><a xlink:href="pluginmanager_8h" target="_top" xlink:title="pluginmanager.h">
<polygon fill="none" stroke="red" points="1228.5,-112.5 1228.5,-131.5 1315.5,-131.5 1315.5,-112.5 1228.5,-112.5"/>
<text text-anchor="middle" x="1272" y="-119.5" font-family="FreeSans" font-size="10.00">pluginmanager.h</text>
</a>
</g>
</g>
<!-- Node2&#45;&gt;Node92 -->
<g id="edge40" class="edge"><title>Node2&#45;&gt;Node92</title>
<path fill="none" stroke="midnightblue" d="M1404.96,-168.444C1378.38,-159.359 1336.19,-144.939 1306.48,-134.783"/>
<polygon fill="midnightblue" stroke="midnightblue" points="1307.51,-131.439 1296.92,-131.516 1305.25,-138.062 1307.51,-131.439"/>
</g>
<!-- Node122 -->
<g id="node27" class="node"><title>Node122</title>
<g id="a_node27"><a xlink:href="uservarmanager_8h" target="_top" xlink:title="uservarmanager.h">
<polygon fill="none" stroke="red" points="378,-112.5 378,-131.5 470,-131.5 470,-112.5 378,-112.5"/>
<text text-anchor="middle" x="424" y="-119.5" font-family="FreeSans" font-size="10.00">uservarmanager.h</text>
</a>
</g>
</g>
<!-- Node2&#45;&gt;Node122 -->
<g id="edge43" class="edge"><title>Node2&#45;&gt;Node122</title>
<path fill="none" stroke="midnightblue" d="M1388.62,-176.737C1257.21,-175.545 837.434,-168.975 480.181,-131.996"/>
<polygon fill="midnightblue" stroke="midnightblue" points="480.471,-128.507 470.162,-130.949 479.744,-135.469 480.471,-128.507"/>
</g>
<!-- Node72&#45;&gt;Node53 -->
<g id="edge15" class="edge"><title>Node72&#45;&gt;Node53</title>
<path fill="none" stroke="midnightblue" d="M1398.55,-56.4435C1421.03,-47.5171 1456.49,-33.4387 1481.98,-23.3168"/>
<polygon fill="midnightblue" stroke="midnightblue" points="1483.55,-26.4598 1491.55,-19.5164 1480.97,-19.9539 1483.55,-26.4598"/>
</g>
<!-- Node72&#45;&gt;Node71 -->
<g id="edge16" class="edge"><title>Node72&#45;&gt;Node71</title>
<path fill="none" stroke="midnightblue" d="M1349.72,-61.7838C1271.83,-52.5998 1048.19,-26.2317 957.698,-15.5627"/>
<polygon fill="midnightblue" stroke="midnightblue" points="957.934,-12.0663 947.593,-14.3712 957.114,-19.0182 957.934,-12.0663"/>
</g>
<!-- Node79&#45;&gt;Node71 -->
<g id="edge18" class="edge"><title>Node79&#45;&gt;Node71</title>
<path fill="none" stroke="midnightblue" d="M273.585,-112.475C307.283,-98.21 378.717,-69.718 442,-56 602.235,-21.2654 798.505,-13.3416 880.326,-11.5341"/>
<polygon fill="midnightblue" stroke="midnightblue" points="880.485,-15.0317 890.413,-11.3299 880.344,-8.0331 880.485,-15.0317"/>
</g>
<!-- Node94&#45;&gt;Node71 -->
<g id="edge21" class="edge"><title>Node94&#45;&gt;Node71</title>
<path fill="none" stroke="midnightblue" d="M529.165,-112.342C544.921,-98.0116 578.764,-69.5952 613,-56 704.098,-19.8247 820.863,-12.3592 880.374,-11.0534"/>
<polygon fill="midnightblue" stroke="midnightblue" points="880.518,-14.5515 890.456,-10.8799 880.397,-7.55257 880.518,-14.5515"/>
</g>
<!-- Node94&#45;&gt;Node83 -->
<g id="edge22" class="edge"><title>Node94&#45;&gt;Node83</title>
<path fill="none" stroke="midnightblue" d="M544.402,-112.444C570.197,-103.399 611.077,-89.064 640.018,-78.9158"/>
<polygon fill="midnightblue" stroke="midnightblue" points="641.434,-82.1283 649.712,-75.5164 639.118,-75.5226 641.434,-82.1283"/>
</g>
<!-- Node94&#45;&gt;Node96 -->
<g id="edge23" class="edge"><title>Node94&#45;&gt;Node96</title>
<path fill="none" stroke="midnightblue" d="M520,-112.083C520,-105.006 520,-94.8611 520,-85.9865"/>
<polygon fill="midnightblue" stroke="midnightblue" points="523.5,-85.751 520,-75.7511 516.5,-85.7511 523.5,-85.751"/>
</g>
<!-- Node96&#45;&gt;Node71 -->
<g id="edge24" class="edge"><title>Node96&#45;&gt;Node71</title>
<path fill="none" stroke="midnightblue" d="M565.525,-58.0886C570.409,-57.3717 575.307,-56.6634 580,-56 688.642,-40.6423 817.095,-24.0065 880.137,-15.9416"/>
<polygon fill="midnightblue" stroke="midnightblue" points="880.929,-19.3689 890.405,-14.6299 880.042,-12.4254 880.929,-19.3689"/>
</g>
<!-- Node100&#45;&gt;Node71 -->
<g id="edge26" class="edge"><title>Node100&#45;&gt;Node71</title>
<path fill="none" stroke="midnightblue" d="M919,-112.368C919,-94.617 919,-53.6664 919,-29.5974"/>
<polygon fill="midnightblue" stroke="midnightblue" points="922.5,-29.5914 919,-19.5914 915.5,-29.5915 922.5,-29.5914"/>
</g>
<!-- Node111&#45;&gt;Node71 -->
<g id="edge28" class="edge"><title>Node111&#45;&gt;Node71</title>
<path fill="none" stroke="midnightblue" d="M1342.03,-112.4C1291.04,-99.8784 1193.28,-75.9473 1110,-56 1057.23,-43.3614 996.196,-29.0312 957.602,-20.006"/>
<polygon fill="midnightblue" stroke="midnightblue" points="958.349,-16.5864 947.815,-17.7186 956.756,-23.4027 958.349,-16.5864"/>
</g>
<!-- Node111&#45;&gt;Node72 -->
<g id="edge29" class="edge"><title>Node111&#45;&gt;Node72</title>
<path fill="none" stroke="midnightblue" d="M1377,-112.083C1377,-105.006 1377,-94.8611 1377,-85.9865"/>
<polygon fill="midnightblue" stroke="midnightblue" points="1380.5,-85.751 1377,-75.7511 1373.5,-85.7511 1380.5,-85.751"/>
</g>
<!-- Node114&#45;&gt;Node4 -->
<g id="edge31" class="edge"><title>Node114&#45;&gt;Node4</title>
<path fill="none" stroke="midnightblue" d="M1486.13,-112.083C1489.51,-104.77 1494.42,-94.1814 1498.62,-85.1034"/>
<polygon fill="midnightblue" stroke="midnightblue" points="1501.92,-86.2962 1502.95,-75.7511 1495.57,-83.3553 1501.92,-86.2962"/>
</g>
<!-- Node114&#45;&gt;Node71 -->
<g id="edge32" class="edge"><title>Node114&#45;&gt;Node71</title>
<path fill="none" stroke="midnightblue" d="M1475.95,-112.367C1465.2,-97.8052 1441.21,-68.7064 1413,-56 1331.85,-19.4504 1059.73,-12.5858 957.898,-11.2974"/>
<polygon fill="midnightblue" stroke="midnightblue" points="957.783,-7.79593 947.743,-11.1805 957.702,-14.7955 957.783,-7.79593"/>
</g>
<!-- Node114&#45;&gt;Node72 -->
<g id="edge33" class="edge"><title>Node114&#45;&gt;Node72</title>
<path fill="none" stroke="midnightblue" d="M1465.13,-112.324C1448.29,-103.664 1422.19,-90.2424 1402.76,-80.249"/>
<polygon fill="midnightblue" stroke="midnightblue" points="1404.32,-77.1155 1393.83,-75.6545 1401.12,-83.3405 1404.32,-77.1155"/>
</g>
<!-- Node117&#45;&gt;Node71 -->
<g id="edge37" class="edge"><title>Node117&#45;&gt;Node71</title>
<path fill="none" stroke="midnightblue" d="M712.577,-112.368C751.67,-93.1711 846.013,-46.8418 892.377,-24.074"/>
<polygon fill="midnightblue" stroke="midnightblue" points="894.071,-27.141 901.505,-19.5914 890.986,-20.8577 894.071,-27.141"/>
</g>
<!-- Node120&#45;&gt;Node71 -->
<g id="edge39" class="edge"><title>Node120&#45;&gt;Node71</title>
<path fill="none" stroke="midnightblue" d="M817.632,-112.368C836.106,-93.8941 879.707,-50.2926 903.256,-26.7436"/>
<polygon fill="midnightblue" stroke="midnightblue" points="905.812,-29.1374 910.409,-19.5914 900.863,-24.1876 905.812,-29.1374"/>
</g>
<!-- Node92&#45;&gt;Node71 -->
<g id="edge42" class="edge"><title>Node92&#45;&gt;Node71</title>
<path fill="none" stroke="midnightblue" d="M1244.59,-112.46C1181.91,-92.9264 1027.99,-44.9626 956.552,-22.7018"/>
<polygon fill="midnightblue" stroke="midnightblue" points="957.22,-19.244 946.632,-19.6104 955.137,-25.927 957.22,-19.244"/>
</g>
<!-- Node92&#45;&gt;Node72 -->
<g id="edge41" class="edge"><title>Node92&#45;&gt;Node72</title>
<path fill="none" stroke="midnightblue" d="M1288.87,-112.324C1305.71,-103.664 1331.81,-90.2424 1351.24,-80.249"/>
<polygon fill="midnightblue" stroke="midnightblue" points="1352.88,-83.3405 1360.17,-75.6545 1349.68,-77.1155 1352.88,-83.3405"/>
</g>
<!-- Node122&#45;&gt;Node71 -->
<g id="edge44" class="edge"><title>Node122&#45;&gt;Node71</title>
<path fill="none" stroke="midnightblue" d="M426.625,-112.468C431.552,-98.0589 443.661,-69.1839 465,-56 534.007,-13.3653 783.213,-10.1473 880.095,-10.5645"/>
<polygon fill="midnightblue" stroke="midnightblue" points="880.31,-14.0657 890.331,-10.6249 880.352,-7.06587 880.31,-14.0657"/>
</g>
<!-- Node137&#45;&gt;Node53 -->
<g id="edge46" class="edge"><title>Node137&#45;&gt;Node53</title>
<path fill="none" stroke="midnightblue" d="M1627.45,-56.4435C1604.97,-47.5171 1569.51,-33.4387 1544.02,-23.3168"/>
<polygon fill="midnightblue" stroke="midnightblue" points="1545.03,-19.9539 1534.45,-19.5164 1542.45,-26.4598 1545.03,-19.9539"/>
</g>
<!-- Node137&#45;&gt;Node71 -->
<g id="edge47" class="edge"><title>Node137&#45;&gt;Node71</title>
<path fill="none" stroke="midnightblue" d="M1619.27,-58.3475C1614.52,-57.4488 1609.64,-56.6233 1605,-56 1359.98,-23.061 1062.35,-13.9648 957.658,-11.6924"/>
<polygon fill="midnightblue" stroke="midnightblue" points="957.635,-8.19123 947.564,-11.4817 957.488,-15.1897 957.635,-8.19123"/>
</g>
<!-- Node138&#45;&gt;Node6 -->
<g id="edge50" class="edge"><title>Node138&#45;&gt;Node6</title>
<path fill="none" stroke="midnightblue" d="M661.66,-172.896C727.018,-166.439 854.328,-152.655 971.934,-132.034"/>
<polygon fill="midnightblue" stroke="midnightblue" points="972.593,-135.472 981.828,-130.279 971.37,-128.58 972.593,-135.472"/>
</g>
<!-- Node138&#45;&gt;Node53 -->
<g id="edge49" class="edge"><title>Node138&#45;&gt;Node53</title>
<path fill="none" stroke="midnightblue" d="M574.31,-175.975C507.583,-173.383 385.141,-164.242 358,-132 352.276,-125.2 353.397,-119.604 358,-112 385.795,-66.0822 413.164,-69.9304 465,-56 563.343,-29.5712 1289.85,-14.973 1471.78,-11.7073"/>
<polygon fill="midnightblue" stroke="midnightblue" points="1472.06,-15.203 1482,-11.5256 1471.94,-8.20412 1472.06,-15.203"/>
</g>
<!-- Node138&#45;&gt;Node72 -->
<g id="edge51" class="edge"><title>Node138&#45;&gt;Node72</title>
<path fill="none" stroke="midnightblue" d="M617.651,-168.138C617.623,-153.773 619.908,-125.641 637,-112 692.211,-67.9364 1196.91,-66.3536 1339.59,-66.7968"/>
<polygon fill="midnightblue" stroke="midnightblue" points="1339.97,-70.2982 1349.99,-66.8349 1340,-63.2982 1339.97,-70.2982"/>
</g>
<!-- Node138&#45;&gt;Node79 -->
<g id="edge65" class="edge"><title>Node138&#45;&gt;Node79</title>
<path fill="none" stroke="midnightblue" d="M574.389,-171.738C512.676,-164.095 396.41,-148.967 298,-132 296.559,-131.752 295.094,-131.491 293.614,-131.222"/>
<polygon fill="midnightblue" stroke="midnightblue" points="294.253,-127.781 283.775,-129.351 292.945,-134.658 294.253,-127.781"/>
</g>
<!-- Node138&#45;&gt;Node83 -->
<g id="edge63" class="edge"><title>Node138&#45;&gt;Node83</title>
<path fill="none" stroke="midnightblue" d="M612.643,-168.469C605.256,-155.514 593.933,-130.44 604,-112 611.819,-97.6789 626.362,-87.2355 640.176,-80.0358"/>
<polygon fill="midnightblue" stroke="midnightblue" points="642.019,-83.0338 649.531,-75.5617 638.999,-76.7188 642.019,-83.0338"/>
</g>
<!-- Node138&#45;&gt;Node94 -->
<g id="edge64" class="edge"><title>Node138&#45;&gt;Node94</title>
<path fill="none" stroke="midnightblue" d="M602.255,-168.324C586.681,-159.743 562.623,-146.486 544.541,-136.522"/>
<polygon fill="midnightblue" stroke="midnightblue" points="546.154,-133.415 535.706,-131.655 542.776,-139.546 546.154,-133.415"/>
</g>
<!-- Node138&#45;&gt;Node96 -->
<g id="edge57" class="edge"><title>Node138&#45;&gt;Node96</title>
<path fill="none" stroke="midnightblue" d="M574.301,-175.596C509.987,-172.507 394.666,-162.72 369,-132 338.939,-96.0193 409.637,-79.4506 464.158,-72.1966"/>
<polygon fill="midnightblue" stroke="midnightblue" points="464.635,-75.6643 474.123,-70.948 463.765,-68.7187 464.635,-75.6643"/>
</g>
<!-- Node138&#45;&gt;Node100 -->
<g id="edge62" class="edge"><title>Node138&#45;&gt;Node100</title>
<path fill="none" stroke="midnightblue" d="M661.768,-169.148C715.142,-159.573 805.414,-143.378 863.586,-132.941"/>
<polygon fill="midnightblue" stroke="midnightblue" points="864.477,-136.337 873.702,-131.127 863.241,-129.447 864.477,-136.337"/>
</g>
<!-- Node138&#45;&gt;Node111 -->
<g id="edge55" class="edge"><title>Node138&#45;&gt;Node111</title>
<path fill="none" stroke="midnightblue" d="M661.524,-175.809C770.909,-172.477 1066.29,-161.385 1323.11,-131.968"/>
<polygon fill="midnightblue" stroke="midnightblue" points="1323.85,-135.406 1333.38,-130.779 1323.04,-128.452 1323.85,-135.406"/>
</g>
<!-- Node138&#45;&gt;Node114 -->
<g id="edge56" class="edge"><title>Node138&#45;&gt;Node114</title>
<path fill="none" stroke="midnightblue" d="M661.662,-176.307C783.459,-174.003 1137.17,-164.769 1429,-132 1429.1,-131.989 1429.2,-131.977 1429.3,-131.966"/>
<polygon fill="midnightblue" stroke="midnightblue" points="1429.49,-135.471 1438.96,-130.726 1428.59,-128.528 1429.49,-135.471"/>
</g>
<!-- Node138&#45;&gt;Node115 -->
<g id="edge54" class="edge"><title>Node138&#45;&gt;Node115</title>
<path fill="none" stroke="midnightblue" d="M661.8,-173.754C738.389,-167.795 901.797,-153.82 1049.72,-132.068"/>
<polygon fill="midnightblue" stroke="midnightblue" points="1050.52,-135.489 1059.89,-130.557 1049.49,-128.565 1050.52,-135.489"/>
</g>
<!-- Node138&#45;&gt;Node117 -->
<g id="edge61" class="edge"><title>Node138&#45;&gt;Node117</title>
<path fill="none" stroke="midnightblue" d="M630.371,-168.324C642.158,-160.058 660.132,-147.453 674.136,-137.632"/>
<polygon fill="midnightblue" stroke="midnightblue" points="676.482,-140.262 682.659,-131.655 672.462,-134.531 676.482,-140.262"/>
</g>
<!-- Node138&#45;&gt;Node120 -->
<g id="edge58" class="edge"><title>Node138&#45;&gt;Node120</title>
<path fill="none" stroke="midnightblue" d="M648.265,-168.444C680.955,-159.201 733.182,-144.436 769.183,-134.257"/>
<polygon fill="midnightblue" stroke="midnightblue" points="770.206,-137.605 778.877,-131.516 768.302,-130.869 770.206,-137.605"/>
</g>
<!-- Node138&#45;&gt;Node92 -->
<g id="edge60" class="edge"><title>Node138&#45;&gt;Node92</title>
<path fill="none" stroke="midnightblue" d="M661.671,-173.394C777.331,-163.844 1091.36,-137.915 1217.99,-127.459"/>
<polygon fill="midnightblue" stroke="midnightblue" points="1218.54,-130.926 1228.22,-126.615 1217.96,-123.95 1218.54,-130.926"/>
</g>
<!-- Node138&#45;&gt;Node122 -->
<g id="edge59" class="edge"><title>Node138&#45;&gt;Node122</title>
<path fill="none" stroke="midnightblue" d="M587.26,-168.444C554.056,-159.201 501.009,-144.436 464.443,-134.257"/>
<polygon fill="midnightblue" stroke="midnightblue" points="465.168,-130.826 454.596,-131.516 463.291,-137.57 465.168,-130.826"/>
</g>
<!-- Node139 -->
<g id="node30" class="node"><title>Node139</title>
<polygon fill="none" stroke="#bfbfbf" points="149.5,-112.5 149.5,-131.5 206.5,-131.5 206.5,-112.5 149.5,-112.5"/>
<text text-anchor="middle" x="178" y="-119.5" font-family="FreeSans" font-size="10.00">settings.h</text>
</g>
<!-- Node138&#45;&gt;Node139 -->
<g id="edge52" class="edge"><title>Node138&#45;&gt;Node139</title>
<path fill="none" stroke="midnightblue" d="M574.206,-173.948C501.732,-168.497 352.173,-155.561 216.746,-132.119"/>
<polygon fill="midnightblue" stroke="midnightblue" points="217.062,-128.621 206.607,-130.34 215.851,-135.516 217.062,-128.621"/>
</g>
<!-- Node140 -->
<g id="node31" class="node"><title>Node140</title>
<polygon fill="none" stroke="#bfbfbf" points="0,-112.5 0,-131.5 62,-131.5 62,-112.5 0,-112.5"/>
<text text-anchor="middle" x="31" y="-119.5" font-family="FreeSans" font-size="10.00">manager.h</text>
</g>
<!-- Node138&#45;&gt;Node140 -->
<g id="edge53" class="edge"><title>Node138&#45;&gt;Node140</title>
<path fill="none" stroke="midnightblue" d="M574.152,-175.465C482.612,-171.816 264.419,-160.788 72.358,-132.008"/>
<polygon fill="midnightblue" stroke="midnightblue" points="72.7765,-128.531 62.3644,-130.491 71.7256,-135.452 72.7765,-128.531"/>
</g>
<!-- Node141 -->
<g id="node32" class="node"><title>Node141</title>
<polygon fill="none" stroke="#bfbfbf" points="80.5,-112.5 80.5,-131.5 131.5,-131.5 131.5,-112.5 80.5,-112.5"/>
<text text-anchor="middle" x="106" y="-119.5" font-family="FreeSans" font-size="10.00">sqplus.h</text>
</g>
<!-- Node138&#45;&gt;Node141 -->
<g id="edge66" class="edge"><title>Node138&#45;&gt;Node141</title>
<path fill="none" stroke="midnightblue" d="M574.177,-175.292C491.368,-171.544 306.177,-160.676 141.814,-132.059"/>
<polygon fill="midnightblue" stroke="midnightblue" points="141.976,-128.533 131.519,-130.238 140.756,-135.426 141.976,-128.533"/>
</g>
</g>
</svg>
