<?xml version="1.0" encoding="UTF-8" standalone="no"?>
<!DOCTYPE svg PUBLIC "-//W3C//DTD SVG 1.1//EN"
 "http://www.w3.org/Graphics/SVG/1.1/DTD/svg11.dtd">
<!-- Generated by graphviz version 2.38.0 (20140413.2041)
 -->
<!-- Title: scriptingsettingsdlg.cpp Pages: 1 -->
<svg width="1827pt" height="252pt"
 viewBox="0.00 0.00 1826.50 252.00" xmlns="http://www.w3.org/2000/svg" xmlns:xlink="http://www.w3.org/1999/xlink">
<g id="graph0" class="graph" transform="scale(1 1) rotate(0) translate(4 248)">
<title>scriptingsettingsdlg.cpp</title>
<polygon fill="white" stroke="none" points="-4,4 -4,-248 1822.5,-248 1822.5,4 -4,4"/>
<!-- Node1 -->
<g id="node1" class="node"><title>Node1</title>
<polygon fill="#bfbfbf" stroke="black" points="1263,-224.5 1263,-243.5 1379,-243.5 1379,-224.5 1263,-224.5"/>
<text text-anchor="middle" x="1321" y="-231.5" font-family="FreeSans" font-size="10.00">scriptingsettingsdlg.cpp</text>
</g>
<!-- Node2 -->
<g id="node2" class="node"><title>Node2</title>
<g id="a_node2"><a xlink:href="sdk_8h" target="_top" xlink:title="sdk.h">
<polygon fill="white" stroke="black" points="172.5,-168.5 172.5,-187.5 211.5,-187.5 211.5,-168.5 172.5,-168.5"/>
<text text-anchor="middle" x="192" y="-175.5" font-family="FreeSans" font-size="10.00">sdk.h</text>
</a>
</g>
</g>
<!-- Node1&#45;&gt;Node2 -->
<g id="edge1" class="edge"><title>Node1&#45;&gt;Node2</title>
<path fill="none" stroke="midnightblue" d="M1262.75,-230.28C1114.34,-223.342 709.966,-204.375 373,-188 319.744,-185.412 257.678,-182.306 221.805,-180.503"/>
<polygon fill="midnightblue" stroke="midnightblue" points="221.715,-176.994 211.552,-179.987 221.363,-183.985 221.715,-176.994"/>
</g>
<!-- Node6 -->
<g id="node6" class="node"><title>Node6</title>
<g id="a_node6"><a xlink:href="scriptingsettingsdlg_8h" target="_top" xlink:title="scriptingsettingsdlg.h">
<polygon fill="white" stroke="black" points="104,-112.5 104,-131.5 210,-131.5 210,-112.5 104,-112.5"/>
<text text-anchor="middle" x="157" y="-119.5" font-family="FreeSans" font-size="10.00">scriptingsettingsdlg.h</text>
</a>
</g>
</g>
<!-- Node1&#45;&gt;Node6 -->
<g id="edge5" class="edge"><title>Node1&#45;&gt;Node6</title>
<path fill="none" stroke="midnightblue" d="M1262.61,-230.544C1144.09,-225.255 866.865,-211.341 635,-188 485.81,-172.981 311.5,-147.177 220.177,-133.02"/>
<polygon fill="midnightblue" stroke="midnightblue" points="220.682,-129.556 210.263,-131.478 219.606,-136.473 220.682,-129.556"/>
</g>
<!-- Node13 -->
<g id="node13" class="node"><title>Node13</title>
<g id="a_node13"><a xlink:href="manager_8h" target="_top" xlink:title="manager.h">
<polygon fill="white" stroke="black" points="657,-112.5 657,-131.5 719,-131.5 719,-112.5 657,-112.5"/>
<text text-anchor="middle" x="688" y="-119.5" font-family="FreeSans" font-size="10.00">manager.h</text>
</a>
</g>
</g>
<!-- Node1&#45;&gt;Node13 -->
<g id="edge12" class="edge"><title>Node1&#45;&gt;Node13</title>
<path fill="none" stroke="midnightblue" d="M1262.91,-228.843C1186.87,-222.809 1049.64,-209.886 934,-188 858.833,-173.774 772.786,-149.049 724.979,-134.54"/>
<polygon fill="midnightblue" stroke="midnightblue" points="725.962,-131.181 715.376,-131.607 723.917,-137.876 725.962,-131.181"/>
</g>
<!-- Node18 -->
<g id="node18" class="node"><title>Node18</title>
<polygon fill="white" stroke="#bfbfbf" points="918.5,-0.5 918.5,-19.5 969.5,-19.5 969.5,-0.5 918.5,-0.5"/>
<text text-anchor="middle" x="944" y="-7.5" font-family="FreeSans" font-size="10.00">wx/intl.h</text>
</g>
<!-- Node1&#45;&gt;Node18 -->
<g id="edge70" class="edge"><title>Node1&#45;&gt;Node18</title>
<path fill="none" stroke="midnightblue" d="M1311.28,-224.473C1279.28,-196.764 1173.52,-108.047 1073,-56 1056.39,-47.4014 1011.3,-32.3221 979.115,-22.0082"/>
<polygon fill="midnightblue" stroke="midnightblue" points="980.177,-18.6734 969.587,-18.9728 978.053,-25.3431 980.177,-18.6734"/>
</g>
<!-- Node20 -->
<g id="node20" class="node"><title>Node20</title>
<g id="a_node20"><a xlink:href="configmanager_8h" target="_top" xlink:title="configmanager.h">
<polygon fill="white" stroke="black" points="644.5,-168.5 644.5,-187.5 731.5,-187.5 731.5,-168.5 644.5,-168.5"/>
<text text-anchor="middle" x="688" y="-175.5" font-family="FreeSans" font-size="10.00">configmanager.h</text>
</a>
</g>
</g>
<!-- Node1&#45;&gt;Node20 -->
<g id="edge24" class="edge"><title>Node1&#45;&gt;Node20</title>
<path fill="none" stroke="midnightblue" d="M1262.87,-228.041C1140.93,-217.639 859.977,-193.671 741.861,-183.595"/>
<polygon fill="midnightblue" stroke="midnightblue" points="741.882,-180.084 731.62,-182.721 741.287,-187.059 741.882,-180.084"/>
</g>
<!-- Node27 -->
<g id="node27" class="node"><title>Node27</title>
<polygon fill="white" stroke="#bfbfbf" points="1395,-0.5 1395,-19.5 1469,-19.5 1469,-0.5 1395,-0.5"/>
<text text-anchor="middle" x="1432" y="-7.5" font-family="FreeSans" font-size="10.00">wx/filename.h</text>
</g>
<!-- Node1&#45;&gt;Node27 -->
<g id="edge69" class="edge"><title>Node1&#45;&gt;Node27</title>
<path fill="none" stroke="midnightblue" d="M1325.35,-224.297C1341.79,-191.425 1400.3,-74.3911 1422.95,-29.0904"/>
<polygon fill="midnightblue" stroke="midnightblue" points="1426.22,-30.3933 1427.56,-19.8837 1419.96,-27.2628 1426.22,-30.3933"/>
</g>
<!-- Node35 -->
<g id="node35" class="node"><title>Node35</title>
<g id="a_node35"><a xlink:href="filefilters_8h" target="_top" xlink:title="filefilters.h">
<polygon fill="white" stroke="black" points="1282.5,-56.5 1282.5,-75.5 1341.5,-75.5 1341.5,-56.5 1282.5,-56.5"/>
<text text-anchor="middle" x="1312" y="-63.5" font-family="FreeSans" font-size="10.00">filefilters.h</text>
</a>
</g>
</g>
<!-- Node1&#45;&gt;Node35 -->
<g id="edge47" class="edge"><title>Node1&#45;&gt;Node35</title>
<path fill="none" stroke="midnightblue" d="M1320.52,-224.075C1319.1,-197.945 1314.94,-121.211 1313.01,-85.577"/>
<polygon fill="midnightblue" stroke="midnightblue" points="1316.5,-85.3639 1312.46,-75.5681 1309.51,-85.743 1316.5,-85.3639"/>
</g>
<!-- Node36 -->
<g id="node36" class="node"><title>Node36</title>
<g id="a_node36"><a xlink:href="scriptingmanager_8h" target="_top" xlink:title="scriptingmanager.h">
<polygon fill="white" stroke="black" points="943,-168.5 943,-187.5 1041,-187.5 1041,-168.5 943,-168.5"/>
<text text-anchor="middle" x="992" y="-175.5" font-family="FreeSans" font-size="10.00">scriptingmanager.h</text>
</a>
</g>
</g>
<!-- Node1&#45;&gt;Node36 -->
<g id="edge50" class="edge"><title>Node1&#45;&gt;Node36</title>
<path fill="none" stroke="midnightblue" d="M1268.87,-224.444C1209.66,-214.725 1113.23,-198.898 1051.22,-188.721"/>
<polygon fill="midnightblue" stroke="midnightblue" points="1051.64,-185.241 1041.2,-187.075 1050.5,-192.149 1051.64,-185.241"/>
</g>
<!-- Node41 -->
<g id="node41" class="node"><title>Node41</title>
<polygon fill="white" stroke="#bfbfbf" points="1387,-168.5 1387,-187.5 1455,-187.5 1455,-168.5 1387,-168.5"/>
<text text-anchor="middle" x="1421" y="-175.5" font-family="FreeSans" font-size="10.00">wx/textctrl.h</text>
</g>
<!-- Node1&#45;&gt;Node41 -->
<g id="edge64" class="edge"><title>Node1&#45;&gt;Node41</title>
<path fill="none" stroke="midnightblue" d="M1337.07,-224.324C1352.96,-215.743 1377.51,-202.486 1395.96,-192.522"/>
<polygon fill="midnightblue" stroke="midnightblue" points="1397.84,-195.486 1404.97,-187.655 1394.51,-189.326 1397.84,-195.486"/>
</g>
<!-- Node42 -->
<g id="node42" class="node"><title>Node42</title>
<polygon fill="white" stroke="#bfbfbf" points="1473.5,-168.5 1473.5,-187.5 1538.5,-187.5 1538.5,-168.5 1473.5,-168.5"/>
<text text-anchor="middle" x="1506" y="-175.5" font-family="FreeSans" font-size="10.00">wx/button.h</text>
</g>
<!-- Node1&#45;&gt;Node42 -->
<g id="edge65" class="edge"><title>Node1&#45;&gt;Node42</title>
<path fill="none" stroke="midnightblue" d="M1350.31,-224.444C1381.84,-215.241 1432.13,-200.562 1466.99,-190.388"/>
<polygon fill="midnightblue" stroke="midnightblue" points="1468.2,-193.678 1476.82,-187.516 1466.24,-186.959 1468.2,-193.678"/>
</g>
<!-- Node43 -->
<g id="node43" class="node"><title>Node43</title>
<polygon fill="white" stroke="#bfbfbf" points="1557,-168.5 1557,-187.5 1637,-187.5 1637,-168.5 1557,-168.5"/>
<text text-anchor="middle" x="1597" y="-175.5" font-family="FreeSans" font-size="10.00">wx/checkbox.h</text>
</g>
<!-- Node1&#45;&gt;Node43 -->
<g id="edge66" class="edge"><title>Node1&#45;&gt;Node43</title>
<path fill="none" stroke="midnightblue" d="M1364.73,-224.444C1414.18,-214.769 1494.56,-199.043 1546.6,-188.861"/>
<polygon fill="midnightblue" stroke="midnightblue" points="1547.47,-192.257 1556.61,-186.902 1546.13,-185.387 1547.47,-192.257"/>
</g>
<!-- Node44 -->
<g id="node44" class="node"><title>Node44</title>
<polygon fill="white" stroke="#bfbfbf" points="1655,-168.5 1655,-187.5 1737,-187.5 1737,-168.5 1655,-168.5"/>
<text text-anchor="middle" x="1696" y="-175.5" font-family="FreeSans" font-size="10.00">wx/xrc/xmlres.h</text>
</g>
<!-- Node1&#45;&gt;Node44 -->
<g id="edge67" class="edge"><title>Node1&#45;&gt;Node44</title>
<path fill="none" stroke="midnightblue" d="M1379.23,-225.66C1442.18,-217.562 1545.74,-203.772 1644.65,-188.163"/>
<polygon fill="midnightblue" stroke="midnightblue" points="1645.49,-191.573 1654.82,-186.548 1644.4,-184.659 1645.49,-191.573"/>
</g>
<!-- Node45 -->
<g id="node45" class="node"><title>Node45</title>
<polygon fill="white" stroke="#bfbfbf" points="1755.5,-168.5 1755.5,-187.5 1818.5,-187.5 1818.5,-168.5 1755.5,-168.5"/>
<text text-anchor="middle" x="1787" y="-175.5" font-family="FreeSans" font-size="10.00">wx/filedlg.h</text>
</g>
<!-- Node1&#45;&gt;Node45 -->
<g id="edge68" class="edge"><title>Node1&#45;&gt;Node45</title>
<path fill="none" stroke="midnightblue" d="M1379.01,-228.902C1459.08,-222.793 1608.13,-209.799 1745.03,-187.98"/>
<polygon fill="midnightblue" stroke="midnightblue" points="1745.97,-191.374 1755.28,-186.325 1744.85,-184.463 1745.97,-191.374"/>
</g>
<!-- Node3 -->
<g id="node3" class="node"><title>Node3</title>
<g id="a_node3"><a xlink:href="sdk__common_8h" target="_top" xlink:title="sdk_common.h">
<polygon fill="white" stroke="black" points="4,-112.5 4,-131.5 86,-131.5 86,-112.5 4,-112.5"/>
<text text-anchor="middle" x="45" y="-119.5" font-family="FreeSans" font-size="10.00">sdk_common.h</text>
</a>
</g>
</g>
<!-- Node2&#45;&gt;Node3 -->
<g id="edge2" class="edge"><title>Node2&#45;&gt;Node3</title>
<path fill="none" stroke="midnightblue" d="M172.48,-169.829C148.447,-161.001 107.254,-145.869 78.2096,-135.199"/>
<polygon fill="midnightblue" stroke="midnightblue" points="79.0843,-131.792 68.4907,-131.629 76.6706,-138.363 79.0843,-131.792"/>
</g>
<!-- Node4 -->
<g id="node4" class="node"><title>Node4</title>
<polygon fill="white" stroke="#bfbfbf" points="0,-56.5 0,-75.5 68,-75.5 68,-56.5 0,-56.5"/>
<text text-anchor="middle" x="34" y="-63.5" font-family="FreeSans" font-size="10.00">wx/wxprec.h</text>
</g>
<!-- Node3&#45;&gt;Node4 -->
<g id="edge3" class="edge"><title>Node3&#45;&gt;Node4</title>
<path fill="none" stroke="midnightblue" d="M43.1836,-112.083C41.7259,-104.927 39.6294,-94.6353 37.8075,-85.6911"/>
<polygon fill="midnightblue" stroke="midnightblue" points="41.2083,-84.8512 35.7826,-75.7511 34.3492,-86.2485 41.2083,-84.8512"/>
</g>
<!-- Node5 -->
<g id="node5" class="node"><title>Node5</title>
<g id="a_node5"><a xlink:href="prep_8h" target="_top" xlink:title="prep.h">
<polygon fill="white" stroke="black" points="74.5,-0.5 74.5,-19.5 117.5,-19.5 117.5,-0.5 74.5,-0.5"/>
<text text-anchor="middle" x="96" y="-7.5" font-family="FreeSans" font-size="10.00">prep.h</text>
</a>
</g>
</g>
<!-- Node3&#45;&gt;Node5 -->
<g id="edge4" class="edge"><title>Node3&#45;&gt;Node5</title>
<path fill="none" stroke="midnightblue" d="M52.574,-112.258C59.7532,-103.577 70.3945,-89.6303 77,-76 84.2102,-61.1218 89.2323,-42.9757 92.2945,-29.6413"/>
<polygon fill="midnightblue" stroke="midnightblue" points="95.7411,-30.2605 94.4108,-19.7495 88.896,-28.7959 95.7411,-30.2605"/>
</g>
<!-- Node7 -->
<g id="node7" class="node"><title>Node7</title>
<polygon fill="white" stroke="#bfbfbf" points="350.5,-0.5 350.5,-19.5 393.5,-19.5 393.5,-0.5 350.5,-0.5"/>
<text text-anchor="middle" x="372" y="-7.5" font-family="FreeSans" font-size="10.00">vector</text>
</g>
<!-- Node6&#45;&gt;Node7 -->
<g id="edge6" class="edge"><title>Node6&#45;&gt;Node7</title>
<path fill="none" stroke="midnightblue" d="M202.261,-112.443C231.991,-105.534 270.974,-93.9561 302,-76 324.078,-63.2225 344.895,-42.3344 357.997,-27.6946"/>
<polygon fill="midnightblue" stroke="midnightblue" points="360.85,-29.748 364.771,-19.9054 355.568,-25.1545 360.85,-29.748"/>
</g>
<!-- Node8 -->
<g id="node8" class="node"><title>Node8</title>
<polygon fill="white" stroke="#bfbfbf" points="229,-56.5 229,-75.5 293,-75.5 293,-56.5 229,-56.5"/>
<text text-anchor="middle" x="261" y="-63.5" font-family="FreeSans" font-size="10.00">wx/listctrl.h</text>
</g>
<!-- Node6&#45;&gt;Node8 -->
<g id="edge7" class="edge"><title>Node6&#45;&gt;Node8</title>
<path fill="none" stroke="midnightblue" d="M173.709,-112.324C190.312,-103.703 216.002,-90.3643 235.22,-80.3855"/>
<polygon fill="midnightblue" stroke="midnightblue" points="237.07,-83.3689 244.332,-75.6545 233.844,-77.1565 237.07,-83.3689"/>
</g>
<!-- Node9 -->
<g id="node9" class="node"><title>Node9</title>
<g id="a_node9"><a xlink:href="scrollingdialog_8h" target="_top" xlink:title="scrollingdialog.h">
<polygon fill="white" stroke="black" points="125.5,-56.5 125.5,-75.5 210.5,-75.5 210.5,-56.5 125.5,-56.5"/>
<text text-anchor="middle" x="168" y="-63.5" font-family="FreeSans" font-size="10.00">scrollingdialog.h</text>
</a>
</g>
</g>
<!-- Node6&#45;&gt;Node9 -->
<g id="edge8" class="edge"><title>Node6&#45;&gt;Node9</title>
<path fill="none" stroke="midnightblue" d="M158.816,-112.083C160.274,-104.927 162.371,-94.6353 164.193,-85.6911"/>
<polygon fill="midnightblue" stroke="midnightblue" points="167.651,-86.2485 166.217,-75.7511 160.792,-84.8512 167.651,-86.2485"/>
</g>
<!-- Node10 -->
<g id="node10" class="node"><title>Node10</title>
<polygon fill="white" stroke="#bfbfbf" points="136,-0.5 136,-19.5 200,-19.5 200,-0.5 136,-0.5"/>
<text text-anchor="middle" x="168" y="-7.5" font-family="FreeSans" font-size="10.00">wx/dialog.h</text>
</g>
<!-- Node9&#45;&gt;Node10 -->
<g id="edge9" class="edge"><title>Node9&#45;&gt;Node10</title>
<path fill="none" stroke="midnightblue" d="M168,-56.083C168,-49.0059 168,-38.8611 168,-29.9865"/>
<polygon fill="midnightblue" stroke="midnightblue" points="171.5,-29.751 168,-19.7511 164.5,-29.7511 171.5,-29.751"/>
</g>
<!-- Node11 -->
<g id="node11" class="node"><title>Node11</title>
<polygon fill="white" stroke="#bfbfbf" points="218,-0.5 218,-19.5 288,-19.5 288,-0.5 218,-0.5"/>
<text text-anchor="middle" x="253" y="-7.5" font-family="FreeSans" font-size="10.00">wx/propdlg.h</text>
</g>
<!-- Node9&#45;&gt;Node11 -->
<g id="edge10" class="edge"><title>Node9&#45;&gt;Node11</title>
<path fill="none" stroke="midnightblue" d="M181.657,-56.324C194.916,-47.9002 215.268,-34.9709 230.846,-25.0741"/>
<polygon fill="midnightblue" stroke="midnightblue" points="232.813,-27.9711 239.377,-19.6545 229.06,-22.0626 232.813,-27.9711"/>
</g>
<!-- Node12 -->
<g id="node12" class="node"><title>Node12</title>
<g id="a_node12"><a xlink:href="settings_8h" target="_top" xlink:title="settings.h">
<polygon fill="white" stroke="black" points="768.5,-0.5 768.5,-19.5 825.5,-19.5 825.5,-0.5 768.5,-0.5"/>
<text text-anchor="middle" x="797" y="-7.5" font-family="FreeSans" font-size="10.00">settings.h</text>
</a>
</g>
</g>
<!-- Node9&#45;&gt;Node12 -->
<g id="edge11" class="edge"><title>Node9&#45;&gt;Node12</title>
<path fill="none" stroke="midnightblue" d="M210.519,-57.3075C213.722,-56.8302 216.909,-56.3872 220,-56 421.838,-30.7189 665.29,-17.2807 758.313,-12.7648"/>
<polygon fill="midnightblue" stroke="midnightblue" points="758.565,-16.2568 768.387,-12.2823 758.231,-9.26484 758.565,-16.2568"/>
</g>
<!-- Node13&#45;&gt;Node7 -->
<g id="edge14" class="edge"><title>Node13&#45;&gt;Node7</title>
<path fill="none" stroke="midnightblue" d="M656.699,-113.933C653.429,-113.253 650.151,-112.596 647,-112 547.063,-93.0882 508.165,-128.415 421,-76 402.521,-64.8881 388.664,-43.9321 380.482,-28.8136"/>
<polygon fill="midnightblue" stroke="midnightblue" points="383.592,-27.2062 375.935,-19.8836 377.354,-30.3829 383.592,-27.2062"/>
</g>
<!-- Node13&#45;&gt;Node12 -->
<g id="edge17" class="edge"><title>Node13&#45;&gt;Node12</title>
<path fill="none" stroke="midnightblue" d="M696.553,-112.368C714.86,-93.8941 758.065,-50.2926 781.4,-26.7436"/>
<polygon fill="midnightblue" stroke="midnightblue" points="783.934,-29.1583 788.487,-19.5914 778.962,-24.2312 783.934,-29.1583"/>
</g>
<!-- Node14 -->
<g id="node14" class="node"><title>Node14</title>
<polygon fill="white" stroke="#bfbfbf" points="778.5,-56.5 778.5,-75.5 813.5,-75.5 813.5,-56.5 778.5,-56.5"/>
<text text-anchor="middle" x="796" y="-63.5" font-family="FreeSans" font-size="10.00">map</text>
</g>
<!-- Node13&#45;&gt;Node14 -->
<g id="edge13" class="edge"><title>Node13&#45;&gt;Node14</title>
<path fill="none" stroke="midnightblue" d="M705.352,-112.324C722.672,-103.664 749.515,-90.2424 769.502,-80.249"/>
<polygon fill="midnightblue" stroke="midnightblue" points="771.312,-83.2572 778.691,-75.6545 768.181,-76.9962 771.312,-83.2572"/>
</g>
<!-- Node15 -->
<g id="node15" class="node"><title>Node15</title>
<polygon fill="white" stroke="#bfbfbf" points="428,-0.5 428,-19.5 490,-19.5 490,-0.5 428,-0.5"/>
<text text-anchor="middle" x="459" y="-7.5" font-family="FreeSans" font-size="10.00">wx/event.h</text>
</g>
<!-- Node13&#45;&gt;Node15 -->
<g id="edge15" class="edge"><title>Node13&#45;&gt;Node15</title>
<path fill="none" stroke="midnightblue" d="M656.696,-113.951C653.427,-113.268 650.149,-112.605 647,-112 598.782,-102.733 460.765,-113.441 429,-76 416.767,-61.5811 429.67,-41.343 442.153,-27.2951"/>
<polygon fill="midnightblue" stroke="midnightblue" points="444.9,-29.4857 449.261,-19.83 439.83,-24.6586 444.9,-29.4857"/>
</g>
<!-- Node16 -->
<g id="node16" class="node"><title>Node16</title>
<polygon fill="white" stroke="#bfbfbf" points="566,-56.5 566,-75.5 638,-75.5 638,-56.5 566,-56.5"/>
<text text-anchor="middle" x="602" y="-63.5" font-family="FreeSans" font-size="10.00">wx/cmdline.h</text>
</g>
<!-- Node13&#45;&gt;Node16 -->
<g id="edge16" class="edge"><title>Node13&#45;&gt;Node16</title>
<path fill="none" stroke="midnightblue" d="M674.183,-112.324C660.767,-103.9 640.176,-90.9709 624.414,-81.0741"/>
<polygon fill="midnightblue" stroke="midnightblue" points="626.113,-78.0081 615.783,-75.6545 622.391,-83.9364 626.113,-78.0081"/>
</g>
<!-- Node17 -->
<g id="node17" class="node"><title>Node17</title>
<g id="a_node17"><a xlink:href="sdk__events_8h" target="_top" xlink:title="sdk_events.h">
<polygon fill="white" stroke="black" points="438,-56.5 438,-75.5 510,-75.5 510,-56.5 438,-56.5"/>
<text text-anchor="middle" x="474" y="-63.5" font-family="FreeSans" font-size="10.00">sdk_events.h</text>
</a>
</g>
</g>
<!-- Node13&#45;&gt;Node17 -->
<g id="edge18" class="edge"><title>Node13&#45;&gt;Node17</title>
<path fill="none" stroke="midnightblue" d="M656.883,-113.148C620.257,-103.906 559.192,-88.4972 517.798,-78.0518"/>
<polygon fill="midnightblue" stroke="midnightblue" points="518.537,-74.6287 507.985,-75.5756 516.824,-81.4159 518.537,-74.6287"/>
</g>
<!-- Node19 -->
<g id="node19" class="node"><title>Node19</title>
<g id="a_node19"><a xlink:href="cbfunctor_8h" target="_top" xlink:title="cbfunctor.h">
<polygon fill="white" stroke="black" points="656.5,-56.5 656.5,-75.5 721.5,-75.5 721.5,-56.5 656.5,-56.5"/>
<text text-anchor="middle" x="689" y="-63.5" font-family="FreeSans" font-size="10.00">cbfunctor.h</text>
</a>
</g>
</g>
<!-- Node13&#45;&gt;Node19 -->
<g id="edge23" class="edge"><title>Node13&#45;&gt;Node19</title>
<path fill="none" stroke="midnightblue" d="M688.165,-112.083C688.296,-105.006 688.484,-94.8611 688.648,-85.9865"/>
<polygon fill="midnightblue" stroke="midnightblue" points="692.152,-85.8142 688.838,-75.7511 685.153,-85.6845 692.152,-85.8142"/>
</g>
<!-- Node17&#45;&gt;Node5 -->
<g id="edge22" class="edge"><title>Node17&#45;&gt;Node5</title>
<path fill="none" stroke="midnightblue" d="M437.98,-62.1652C376.339,-56.9183 246.591,-44.1502 127.583,-19.8033"/>
<polygon fill="midnightblue" stroke="midnightblue" points="128.077,-16.3311 117.574,-17.7224 126.652,-23.1846 128.077,-16.3311"/>
</g>
<!-- Node17&#45;&gt;Node12 -->
<g id="edge21" class="edge"><title>Node17&#45;&gt;Node12</title>
<path fill="none" stroke="midnightblue" d="M510.039,-58.4476C514.734,-57.6133 519.48,-56.7792 524,-56 607.432,-41.6157 705.384,-25.7079 758.316,-17.1926"/>
<polygon fill="midnightblue" stroke="midnightblue" points="758.966,-20.633 768.284,-15.5907 757.856,-13.7217 758.966,-20.633"/>
</g>
<!-- Node17&#45;&gt;Node15 -->
<g id="edge19" class="edge"><title>Node17&#45;&gt;Node15</title>
<path fill="none" stroke="midnightblue" d="M471.523,-56.083C469.514,-48.8486 466.614,-38.4087 464.11,-29.3968"/>
<polygon fill="midnightblue" stroke="midnightblue" points="467.48,-28.4495 461.431,-19.7511 460.735,-30.323 467.48,-28.4495"/>
</g>
<!-- Node17&#45;&gt;Node18 -->
<g id="edge20" class="edge"><title>Node17&#45;&gt;Node18</title>
<path fill="none" stroke="midnightblue" d="M510.357,-61.0092C524.864,-59.4294 541.721,-57.6097 557,-56 710.188,-39.8613 752.469,-47.3363 908.529,-19.808"/>
<polygon fill="midnightblue" stroke="midnightblue" points="909.253,-23.2342 918.483,-18.0323 908.024,-16.3429 909.253,-23.2342"/>
</g>
<!-- Node20&#45;&gt;Node12 -->
<g id="edge27" class="edge"><title>Node20&#45;&gt;Node12</title>
<path fill="none" stroke="midnightblue" d="M644.267,-173.206C535.95,-163.71 263.452,-139.161 257,-132 251.05,-125.396 251.158,-118.7 257,-112 295.624,-67.7056 463.041,-93.9568 519,-76 537.173,-70.1685 538.975,-62.2731 557,-56 625.633,-32.1142 709.963,-20.0396 758.194,-14.6684"/>
<polygon fill="midnightblue" stroke="midnightblue" points="758.639,-18.1409 768.208,-13.5923 757.891,-11.181 758.639,-18.1409"/>
</g>
<!-- Node20&#45;&gt;Node13 -->
<g id="edge40" class="edge"><title>Node20&#45;&gt;Node13</title>
<path fill="none" stroke="midnightblue" d="M688,-168.083C688,-161.006 688,-150.861 688,-141.986"/>
<polygon fill="midnightblue" stroke="midnightblue" points="691.5,-141.751 688,-131.751 684.5,-141.751 691.5,-141.751"/>
</g>
<!-- Node20&#45;&gt;Node14 -->
<g id="edge45" class="edge"><title>Node20&#45;&gt;Node14</title>
<path fill="none" stroke="midnightblue" d="M696.475,-168.368C714.613,-149.894 757.422,-106.293 780.543,-82.7436"/>
<polygon fill="midnightblue" stroke="midnightblue" points="783.056,-85.1792 787.565,-75.5914 778.061,-80.275 783.056,-85.1792"/>
</g>
<!-- Node21 -->
<g id="node21" class="node"><title>Node21</title>
<polygon fill="white" stroke="#bfbfbf" points="266.5,-112.5 266.5,-131.5 343.5,-131.5 343.5,-112.5 266.5,-112.5"/>
<text text-anchor="middle" x="305" y="-119.5" font-family="FreeSans" font-size="10.00">wx/hashmap.h</text>
</g>
<!-- Node20&#45;&gt;Node21 -->
<g id="edge25" class="edge"><title>Node20&#45;&gt;Node21</title>
<path fill="none" stroke="midnightblue" d="M644.39,-171.951C582.079,-164.564 463.758,-149.892 353.644,-132.199"/>
<polygon fill="midnightblue" stroke="midnightblue" points="354.129,-128.732 343.698,-130.588 353.01,-135.642 354.129,-128.732"/>
</g>
<!-- Node22 -->
<g id="node22" class="node"><title>Node22</title>
<polygon fill="white" stroke="#bfbfbf" points="361.5,-112.5 361.5,-131.5 432.5,-131.5 432.5,-112.5 361.5,-112.5"/>
<text text-anchor="middle" x="397" y="-119.5" font-family="FreeSans" font-size="10.00">wx/hashset.h</text>
</g>
<!-- Node20&#45;&gt;Node22 -->
<g id="edge26" class="edge"><title>Node20&#45;&gt;Node22</title>
<path fill="none" stroke="midnightblue" d="M644.221,-169.318C596.93,-160.954 519.091,-146.999 442.793,-132.317"/>
<polygon fill="midnightblue" stroke="midnightblue" points="443.011,-128.795 432.528,-130.336 441.684,-135.668 443.011,-128.795"/>
</g>
<!-- Node23 -->
<g id="node23" class="node"><title>Node23</title>
<g id="a_node23"><a xlink:href="globals_8h" target="_top" xlink:title="globals.h">
<polygon fill="white" stroke="black" points="1141,-56.5 1141,-75.5 1195,-75.5 1195,-56.5 1141,-56.5"/>
<text text-anchor="middle" x="1168" y="-63.5" font-family="FreeSans" font-size="10.00">globals.h</text>
</a>
</g>
</g>
<!-- Node20&#45;&gt;Node23 -->
<g id="edge28" class="edge"><title>Node20&#45;&gt;Node23</title>
<path fill="none" stroke="midnightblue" d="M731.602,-177.201C801.619,-176.31 942.652,-169.481 1055,-132 1090.13,-120.281 1126.51,-96.9882 1148.2,-81.7044"/>
<polygon fill="midnightblue" stroke="midnightblue" points="1150.47,-84.3817 1156.55,-75.7017 1146.39,-78.6986 1150.47,-84.3817"/>
</g>
<!-- Node30 -->
<g id="node30" class="node"><title>Node30</title>
<polygon fill="white" stroke="#bfbfbf" points="450.5,-112.5 450.5,-131.5 533.5,-131.5 533.5,-112.5 450.5,-112.5"/>
<text text-anchor="middle" x="492" y="-119.5" font-family="FreeSans" font-size="10.00">tinyxml/tinystr.h</text>
</g>
<!-- Node20&#45;&gt;Node30 -->
<g id="edge38" class="edge"><title>Node20&#45;&gt;Node30</title>
<path fill="none" stroke="midnightblue" d="M656.943,-168.444C623.397,-159.201 569.803,-144.436 532.859,-134.257"/>
<polygon fill="midnightblue" stroke="midnightblue" points="533.482,-130.798 522.911,-131.516 531.623,-137.547 533.482,-130.798"/>
</g>
<!-- Node31 -->
<g id="node31" class="node"><title>Node31</title>
<polygon fill="white" stroke="#bfbfbf" points="551.5,-112.5 551.5,-131.5 638.5,-131.5 638.5,-112.5 551.5,-112.5"/>
<text text-anchor="middle" x="595" y="-119.5" font-family="FreeSans" font-size="10.00">tinyxml/tinyxml.h</text>
</g>
<!-- Node20&#45;&gt;Node31 -->
<g id="edge39" class="edge"><title>Node20&#45;&gt;Node31</title>
<path fill="none" stroke="midnightblue" d="M673.058,-168.324C658.415,-159.822 635.866,-146.729 618.762,-136.797"/>
<polygon fill="midnightblue" stroke="midnightblue" points="620.31,-133.649 609.905,-131.655 616.795,-139.703 620.31,-133.649"/>
</g>
<!-- Node32 -->
<g id="node32" class="node"><title>Node32</title>
<g id="a_node32"><a xlink:href="base64_8h" target="_top" xlink:title="base64.h">
<polygon fill="white" stroke="black" points="909.5,-56.5 909.5,-75.5 964.5,-75.5 964.5,-56.5 909.5,-56.5"/>
<text text-anchor="middle" x="937" y="-63.5" font-family="FreeSans" font-size="10.00">base64.h</text>
</a>
</g>
</g>
<!-- Node20&#45;&gt;Node32 -->
<g id="edge41" class="edge"><title>Node20&#45;&gt;Node32</title>
<path fill="none" stroke="midnightblue" d="M701.502,-168.346C722.71,-155.006 765.4,-129.168 804,-112 835.402,-98.0333 872.555,-85.8016 899.601,-77.63"/>
<polygon fill="midnightblue" stroke="midnightblue" points="900.853,-80.9093 909.439,-74.7019 898.856,-74.2002 900.853,-80.9093"/>
</g>
<!-- Node34 -->
<g id="node34" class="node"><title>Node34</title>
<polygon fill="white" stroke="#bfbfbf" points="813.5,-112.5 813.5,-131.5 842.5,-131.5 842.5,-112.5 813.5,-112.5"/>
<text text-anchor="middle" x="828" y="-119.5" font-family="FreeSans" font-size="10.00">set</text>
</g>
<!-- Node20&#45;&gt;Node34 -->
<g id="edge46" class="edge"><title>Node20&#45;&gt;Node34</title>
<path fill="none" stroke="midnightblue" d="M710.183,-168.444C735.64,-158.624 777.259,-142.572 803.609,-132.408"/>
<polygon fill="midnightblue" stroke="midnightblue" points="805.151,-135.565 813.221,-128.7 802.632,-129.034 805.151,-135.565"/>
</g>
<!-- Node23&#45;&gt;Node7 -->
<g id="edge29" class="edge"><title>Node23&#45;&gt;Node7</title>
<path fill="none" stroke="midnightblue" d="M1140.83,-62.685C1117.74,-60.7584 1083.71,-58.0148 1054,-56 771.972,-36.8752 699.543,-54.6578 419,-20 414.104,-19.3952 408.951,-18.5868 403.924,-17.7018"/>
<polygon fill="midnightblue" stroke="midnightblue" points="404.377,-14.2258 393.903,-15.8183 403.084,-21.1053 404.377,-14.2258"/>
</g>
<!-- Node23&#45;&gt;Node12 -->
<g id="edge37" class="edge"><title>Node23&#45;&gt;Node12</title>
<path fill="none" stroke="midnightblue" d="M1140.66,-62.2261C1085.15,-56.397 955.083,-41.7416 835.618,-19.9398"/>
<polygon fill="midnightblue" stroke="midnightblue" points="836.039,-16.4585 825.57,-18.0842 834.768,-23.3421 836.039,-16.4585"/>
</g>
<!-- Node23&#45;&gt;Node18 -->
<g id="edge34" class="edge"><title>Node23&#45;&gt;Node18</title>
<path fill="none" stroke="midnightblue" d="M1140.89,-58.8139C1105.78,-50.752 1042.45,-36.0379 979.318,-20.2868"/>
<polygon fill="midnightblue" stroke="midnightblue" points="980.152,-16.8877 969.601,-17.8537 978.451,-23.678 980.152,-16.8877"/>
</g>
<!-- Node24 -->
<g id="node24" class="node"><title>Node24</title>
<polygon fill="white" stroke="#bfbfbf" points="1315,-0.5 1315,-19.5 1377,-19.5 1377,-0.5 1315,-0.5"/>
<text text-anchor="middle" x="1346" y="-7.5" font-family="FreeSans" font-size="10.00">wx/string.h</text>
</g>
<!-- Node23&#45;&gt;Node24 -->
<g id="edge30" class="edge"><title>Node23&#45;&gt;Node24</title>
<path fill="none" stroke="midnightblue" d="M1195.03,-56.7986C1225.22,-47.6414 1274.28,-32.7572 1308.24,-22.454"/>
<polygon fill="midnightblue" stroke="midnightblue" points="1309.27,-25.7991 1317.83,-19.5467 1307.24,-19.1005 1309.27,-25.7991"/>
</g>
<!-- Node25 -->
<g id="node25" class="node"><title>Node25</title>
<polygon fill="white" stroke="#bfbfbf" points="1161,-0.5 1161,-19.5 1229,-19.5 1229,-0.5 1161,-0.5"/>
<text text-anchor="middle" x="1195" y="-7.5" font-family="FreeSans" font-size="10.00">wx/treectrl.h</text>
</g>
<!-- Node23&#45;&gt;Node25 -->
<g id="edge31" class="edge"><title>Node23&#45;&gt;Node25</title>
<path fill="none" stroke="midnightblue" d="M1172.46,-56.083C1176.15,-48.6913 1181.52,-37.9533 1186.09,-28.8111"/>
<polygon fill="midnightblue" stroke="midnightblue" points="1189.28,-30.2606 1190.62,-19.7511 1183.02,-27.1301 1189.28,-30.2606"/>
</g>
<!-- Node26 -->
<g id="node26" class="node"><title>Node26</title>
<polygon fill="white" stroke="#bfbfbf" points="1247,-0.5 1247,-19.5 1297,-19.5 1297,-0.5 1247,-0.5"/>
<text text-anchor="middle" x="1272" y="-7.5" font-family="FreeSans" font-size="10.00">wx/file.h</text>
</g>
<!-- Node23&#45;&gt;Node26 -->
<g id="edge32" class="edge"><title>Node23&#45;&gt;Node26</title>
<path fill="none" stroke="midnightblue" d="M1184.71,-56.324C1201.31,-47.7034 1227,-34.3643 1246.22,-24.3855"/>
<polygon fill="midnightblue" stroke="midnightblue" points="1248.07,-27.3689 1255.33,-19.6545 1244.84,-21.1565 1248.07,-27.3689"/>
</g>
<!-- Node23&#45;&gt;Node27 -->
<g id="edge33" class="edge"><title>Node23&#45;&gt;Node27</title>
<path fill="none" stroke="midnightblue" d="M1195.09,-58.0724C1198.09,-57.3512 1201.11,-56.6465 1204,-56 1212.81,-54.0314 1320.68,-32.8316 1384.84,-20.2451"/>
<polygon fill="midnightblue" stroke="midnightblue" points="1385.6,-23.6627 1394.74,-18.3032 1384.25,-16.7936 1385.6,-23.6627"/>
</g>
<!-- Node28 -->
<g id="node28" class="node"><title>Node28</title>
<polygon fill="white" stroke="#bfbfbf" points="987.5,-0.5 987.5,-19.5 1056.5,-19.5 1056.5,-0.5 987.5,-0.5"/>
<text text-anchor="middle" x="1022" y="-7.5" font-family="FreeSans" font-size="10.00">wx/msgdlg.h</text>
</g>
<!-- Node23&#45;&gt;Node28 -->
<g id="edge35" class="edge"><title>Node23&#45;&gt;Node28</title>
<path fill="none" stroke="midnightblue" d="M1144.87,-56.4435C1120.52,-47.4381 1081.99,-33.1891 1054.58,-23.049"/>
<polygon fill="midnightblue" stroke="midnightblue" points="1055.62,-19.7028 1045.03,-19.5164 1053.19,-26.2681 1055.62,-19.7028"/>
</g>
<!-- Node29 -->
<g id="node29" class="node"><title>Node29</title>
<polygon fill="white" stroke="#bfbfbf" points="1075,-0.5 1075,-19.5 1143,-19.5 1143,-0.5 1075,-0.5"/>
<text text-anchor="middle" x="1109" y="-7.5" font-family="FreeSans" font-size="10.00">wx/bitmap.h</text>
</g>
<!-- Node23&#45;&gt;Node29 -->
<g id="edge36" class="edge"><title>Node23&#45;&gt;Node29</title>
<path fill="none" stroke="midnightblue" d="M1158.52,-56.324C1149.8,-48.3414 1136.66,-36.3128 1126.1,-26.6529"/>
<polygon fill="midnightblue" stroke="midnightblue" points="1128.39,-24.0036 1118.65,-19.8339 1123.67,-29.1674 1128.39,-24.0036"/>
</g>
<!-- Node32&#45;&gt;Node12 -->
<g id="edge44" class="edge"><title>Node32&#45;&gt;Node12</title>
<path fill="none" stroke="midnightblue" d="M914.817,-56.4435C891.572,-47.4776 854.851,-33.314 828.585,-23.1827"/>
<polygon fill="midnightblue" stroke="midnightblue" points="829.669,-19.8497 819.08,-19.5164 827.15,-26.3807 829.669,-19.8497"/>
</g>
<!-- Node32&#45;&gt;Node24 -->
<g id="edge43" class="edge"><title>Node32&#45;&gt;Node24</title>
<path fill="none" stroke="midnightblue" d="M964.798,-57.826C967.891,-57.1509 971.005,-56.5244 974,-56 1116.91,-30.9806 1157.76,-43.7236 1304.35,-20.0996"/>
<polygon fill="midnightblue" stroke="midnightblue" points="1305.32,-23.4867 1314.62,-18.4127 1304.19,-16.5792 1305.32,-23.4867"/>
</g>
<!-- Node33 -->
<g id="node33" class="node"><title>Node33</title>
<polygon fill="white" stroke="#bfbfbf" points="844,-0.5 844,-19.5 900,-19.5 900,-0.5 844,-0.5"/>
<text text-anchor="middle" x="872" y="-7.5" font-family="FreeSans" font-size="10.00">wx/defs.h</text>
</g>
<!-- Node32&#45;&gt;Node33 -->
<g id="edge42" class="edge"><title>Node32&#45;&gt;Node33</title>
<path fill="none" stroke="midnightblue" d="M926.557,-56.324C916.854,-48.2631 902.185,-36.0765 890.5,-26.3695"/>
<polygon fill="midnightblue" stroke="midnightblue" points="892.562,-23.532 882.633,-19.8339 888.089,-28.9163 892.562,-23.532"/>
</g>
<!-- Node35&#45;&gt;Node12 -->
<g id="edge49" class="edge"><title>Node35&#45;&gt;Node12</title>
<path fill="none" stroke="midnightblue" d="M1282.28,-57.6736C1279.16,-57.0447 1276.02,-56.4702 1273,-56 1083.2,-26.4599 1029.68,-49.7915 835.498,-19.811"/>
<polygon fill="midnightblue" stroke="midnightblue" points="835.964,-16.3414 825.542,-18.2465 834.878,-23.2565 835.964,-16.3414"/>
</g>
<!-- Node35&#45;&gt;Node24 -->
<g id="edge48" class="edge"><title>Node35&#45;&gt;Node24</title>
<path fill="none" stroke="midnightblue" d="M1317.61,-56.083C1322.37,-48.5341 1329.32,-37.4948 1335.15,-28.2298"/>
<polygon fill="midnightblue" stroke="midnightblue" points="1338.12,-30.0783 1340.49,-19.7511 1332.2,-26.3486 1338.12,-30.0783"/>
</g>
<!-- Node36&#45;&gt;Node12 -->
<g id="edge58" class="edge"><title>Node36&#45;&gt;Node12</title>
<path fill="none" stroke="midnightblue" d="M978.938,-168.453C965.778,-159.696 945.038,-145.491 928,-132 883.949,-97.1198 836.519,-50.8832 812.639,-26.9216"/>
<polygon fill="midnightblue" stroke="midnightblue" points="815.007,-24.3386 805.483,-19.698 810.034,-29.2653 815.007,-24.3386"/>
</g>
<!-- Node36&#45;&gt;Node13 -->
<g id="edge59" class="edge"><title>Node36&#45;&gt;Node13</title>
<path fill="none" stroke="midnightblue" d="M943.83,-168.444C884.568,-157.917 784.971,-140.225 729.135,-130.307"/>
<polygon fill="midnightblue" stroke="midnightblue" points="729.696,-126.852 719.238,-128.549 728.471,-133.744 729.696,-126.852"/>
</g>
<!-- Node36&#45;&gt;Node14 -->
<g id="edge51" class="edge"><title>Node36&#45;&gt;Node14</title>
<path fill="none" stroke="midnightblue" d="M971.128,-168.373C951.182,-159.884 920.47,-146.169 895,-132 866.642,-116.224 835.621,-95.1944 815.999,-81.3853"/>
<polygon fill="midnightblue" stroke="midnightblue" points="818.018,-78.5259 807.837,-75.5935 813.967,-84.2348 818.018,-78.5259"/>
</g>
<!-- Node36&#45;&gt;Node18 -->
<g id="edge63" class="edge"><title>Node36&#45;&gt;Node18</title>
<path fill="none" stroke="midnightblue" d="M1012.85,-168.427C1027.58,-161.129 1046.2,-149.091 1055,-132 1061.61,-119.156 1071.02,-80.8666 1054,-56 1045.14,-43.0531 1007.99,-29.6088 979.288,-20.8266"/>
<polygon fill="midnightblue" stroke="midnightblue" points="980.131,-17.4257 969.548,-17.9231 978.131,-24.134 980.131,-17.4257"/>
</g>
<!-- Node36&#45;&gt;Node23 -->
<g id="edge57" class="edge"><title>Node36&#45;&gt;Node23</title>
<path fill="none" stroke="midnightblue" d="M1041.43,-170.704C1086.89,-163.803 1149.51,-151.105 1165,-132 1175.33,-119.259 1174.91,-100.063 1172.61,-85.8317"/>
<polygon fill="midnightblue" stroke="midnightblue" points="1175.97,-84.7936 1170.53,-75.701 1169.11,-86.2004 1175.97,-84.7936"/>
</g>
<!-- Node36&#45;&gt;Node34 -->
<g id="edge52" class="edge"><title>Node36&#45;&gt;Node34</title>
<path fill="none" stroke="midnightblue" d="M966.014,-168.444C934.827,-158.175 882.935,-141.088 852.449,-131.05"/>
<polygon fill="midnightblue" stroke="midnightblue" points="853.22,-127.619 842.627,-127.816 851.031,-134.268 853.22,-127.619"/>
</g>
<!-- Node37 -->
<g id="node37" class="node"><title>Node37</title>
<g id="a_node37"><a xlink:href="cbexception_8h" target="_top" xlink:title="cbexception.h">
<polygon fill="white" stroke="black" points="1217,-112.5 1217,-131.5 1293,-131.5 1293,-112.5 1217,-112.5"/>
<text text-anchor="middle" x="1255" y="-119.5" font-family="FreeSans" font-size="10.00">cbexception.h</text>
</a>
</g>
</g>
<!-- Node36&#45;&gt;Node37 -->
<g id="edge53" class="edge"><title>Node36&#45;&gt;Node37</title>
<path fill="none" stroke="midnightblue" d="M1033.67,-168.444C1080.83,-158.761 1157.51,-143.018 1207.09,-132.836"/>
<polygon fill="midnightblue" stroke="midnightblue" points="1207.85,-136.255 1216.94,-130.815 1206.44,-129.398 1207.85,-136.255"/>
</g>
<!-- Node39 -->
<g id="node39" class="node"><title>Node39</title>
<g id="a_node39"><a xlink:href="menuitemsmanager_8h" target="_top" xlink:title="menuitemsmanager.h">
<polygon fill="white" stroke="black" points="937.5,-112.5 937.5,-131.5 1046.5,-131.5 1046.5,-112.5 937.5,-112.5"/>
<text text-anchor="middle" x="992" y="-119.5" font-family="FreeSans" font-size="10.00">menuitemsmanager.h</text>
</a>
</g>
</g>
<!-- Node36&#45;&gt;Node39 -->
<g id="edge60" class="edge"><title>Node36&#45;&gt;Node39</title>
<path fill="none" stroke="midnightblue" d="M992,-168.083C992,-161.006 992,-150.861 992,-141.986"/>
<polygon fill="midnightblue" stroke="midnightblue" points="995.5,-141.751 992,-131.751 988.5,-141.751 995.5,-141.751"/>
</g>
<!-- Node37&#45;&gt;Node23 -->
<g id="edge56" class="edge"><title>Node37&#45;&gt;Node23</title>
<path fill="none" stroke="midnightblue" d="M1241.02,-112.324C1227.45,-103.9 1206.62,-90.9709 1190.68,-81.0741"/>
<polygon fill="midnightblue" stroke="midnightblue" points="1192.29,-77.9544 1181.94,-75.6545 1188.59,-83.9019 1192.29,-77.9544"/>
</g>
<!-- Node37&#45;&gt;Node24 -->
<g id="edge54" class="edge"><title>Node37&#45;&gt;Node24</title>
<path fill="none" stroke="midnightblue" d="M1293.13,-113.304C1313.76,-106.989 1337.51,-95.7393 1350,-76 1358.68,-62.2799 1356.36,-43.4981 1352.66,-29.6511"/>
<polygon fill="midnightblue" stroke="midnightblue" points="1355.9,-28.2908 1349.57,-19.7951 1349.22,-30.3842 1355.9,-28.2908"/>
</g>
<!-- Node38 -->
<g id="node38" class="node"><title>Node38</title>
<polygon fill="white" stroke="#bfbfbf" points="1213.5,-56.5 1213.5,-75.5 1264.5,-75.5 1264.5,-56.5 1213.5,-56.5"/>
<text text-anchor="middle" x="1239" y="-63.5" font-family="FreeSans" font-size="10.00">wx/log.h</text>
</g>
<!-- Node37&#45;&gt;Node38 -->
<g id="edge55" class="edge"><title>Node37&#45;&gt;Node38</title>
<path fill="none" stroke="midnightblue" d="M1252.36,-112.083C1250.21,-104.849 1247.12,-94.4087 1244.45,-85.3968"/>
<polygon fill="midnightblue" stroke="midnightblue" points="1247.79,-84.3447 1241.59,-75.7511 1241.08,-86.3334 1247.79,-84.3447"/>
</g>
<!-- Node39&#45;&gt;Node12 -->
<g id="edge61" class="edge"><title>Node39&#45;&gt;Node12</title>
<path fill="none" stroke="midnightblue" d="M973.018,-112.447C954.199,-103.798 924.688,-89.7749 900,-76 871.017,-59.8287 838.854,-39.0523 818.306,-25.3971"/>
<polygon fill="midnightblue" stroke="midnightblue" points="819.994,-22.3154 809.736,-19.6663 816.103,-28.1344 819.994,-22.3154"/>
</g>
<!-- Node40 -->
<g id="node40" class="node"><title>Node40</title>
<polygon fill="white" stroke="#bfbfbf" points="983,-56.5 983,-75.5 1045,-75.5 1045,-56.5 983,-56.5"/>
<text text-anchor="middle" x="1014" y="-63.5" font-family="FreeSans" font-size="10.00">wx/menu.h</text>
</g>
<!-- Node39&#45;&gt;Node40 -->
<g id="edge62" class="edge"><title>Node39&#45;&gt;Node40</title>
<path fill="none" stroke="midnightblue" d="M995.633,-112.083C998.612,-104.77 1002.93,-94.1814 1006.62,-85.1034"/>
<polygon fill="midnightblue" stroke="midnightblue" points="1009.9,-86.3326 1010.43,-75.7511 1003.42,-83.6914 1009.9,-86.3326"/>
</g>
</g>
</svg>
