<?xml version="1.0" encoding="UTF-8" standalone="no"?>
<!DOCTYPE svg PUBLIC "-//W3C//DTD SVG 1.1//EN"
 "http://www.w3.org/Graphics/SVG/1.1/DTD/svg11.dtd">
<!-- Generated by graphviz version 2.38.0 (20140413.2041)
 -->
<!-- Title: scriptbindings.h Pages: 1 -->
<svg width="350pt" height="84pt"
 viewBox="0.00 0.00 350.00 84.00" xmlns="http://www.w3.org/2000/svg" xmlns:xlink="http://www.w3.org/1999/xlink">
<g id="graph0" class="graph" transform="scale(1 1) rotate(0) translate(4 80)">
<title>scriptbindings.h</title>
<polygon fill="white" stroke="none" points="-4,4 -4,-80 346,-80 346,4 -4,4"/>
<!-- Node1 -->
<g id="node1" class="node"><title>Node1</title>
<polygon fill="#bfbfbf" stroke="black" points="127.5,-56.5 127.5,-75.5 210.5,-75.5 210.5,-56.5 127.5,-56.5"/>
<text text-anchor="middle" x="169" y="-63.5" font-family="FreeSans" font-size="10.00">scriptbindings.h</text>
</g>
<!-- Node2 -->
<g id="node2" class="node"><title>Node2</title>
<g id="a_node2"><a xlink:href="macrosmanager_8cpp" target="_top" xlink:title="macrosmanager.cpp">
<polygon fill="white" stroke="black" points="0,-0.5 0,-19.5 104,-19.5 104,-0.5 0,-0.5"/>
<text text-anchor="middle" x="52" y="-7.5" font-family="FreeSans" font-size="10.00">macrosmanager.cpp</text>
</a>
</g>
</g>
<!-- Node1&#45;&gt;Node2 -->
<g id="edge1" class="edge"><title>Node1&#45;&gt;Node2</title>
<path fill="none" stroke="midnightblue" d="M141.336,-52.2321C119.451,-42.1312 89.5032,-28.3091 70.4523,-19.5164"/>
<polygon fill="midnightblue" stroke="midnightblue" points="139.915,-55.4308 150.461,-56.4435 142.848,-49.075 139.915,-55.4308"/>
</g>
<!-- Node3 -->
<g id="node3" class="node"><title>Node3</title>
<g id="a_node3"><a xlink:href="scriptbindings_8cpp" target="_top" xlink:title="scriptbindings.cpp">
<polygon fill="white" stroke="black" points="122.5,-0.5 122.5,-19.5 215.5,-19.5 215.5,-0.5 122.5,-0.5"/>
<text text-anchor="middle" x="169" y="-7.5" font-family="FreeSans" font-size="10.00">scriptbindings.cpp</text>
</a>
</g>
</g>
<!-- Node1&#45;&gt;Node3 -->
<g id="edge2" class="edge"><title>Node1&#45;&gt;Node3</title>
<path fill="none" stroke="midnightblue" d="M169,-45.8045C169,-36.9102 169,-26.7798 169,-19.7511"/>
<polygon fill="midnightblue" stroke="midnightblue" points="165.5,-46.083 169,-56.083 172.5,-46.083 165.5,-46.083"/>
</g>
<!-- Node4 -->
<g id="node4" class="node"><title>Node4</title>
<g id="a_node4"><a xlink:href="scriptingmanager_8cpp" target="_top" xlink:title="scriptingmanager.cpp">
<polygon fill="white" stroke="black" points="234,-0.5 234,-19.5 342,-19.5 342,-0.5 234,-0.5"/>
<text text-anchor="middle" x="288" y="-7.5" font-family="FreeSans" font-size="10.00">scriptingmanager.cpp</text>
</a>
</g>
</g>
<!-- Node1&#45;&gt;Node4 -->
<g id="edge3" class="edge"><title>Node1&#45;&gt;Node4</title>
<path fill="none" stroke="midnightblue" d="M197.137,-52.2321C219.396,-42.1312 249.856,-28.3091 269.232,-19.5164"/>
<polygon fill="midnightblue" stroke="midnightblue" points="195.516,-49.124 187.856,-56.4435 198.409,-55.4984 195.516,-49.124"/>
</g>
</g>
</svg>
