<?xml version="1.0" encoding="UTF-8" standalone="no"?>
<!DOCTYPE svg PUBLIC "-//W3C//DTD SVG 1.1//EN"
 "http://www.w3.org/Graphics/SVG/1.1/DTD/svg11.dtd">
<!-- Generated by graphviz version 2.38.0 (20140413.2041)
 -->
<!-- Title: scriptingmanager.h Pages: 1 -->
<svg width="2344pt" height="252pt"
 viewBox="0.00 0.00 2343.72 252.00" xmlns="http://www.w3.org/2000/svg" xmlns:xlink="http://www.w3.org/1999/xlink">
<g id="graph0" class="graph" transform="scale(1 1) rotate(0) translate(4 248)">
<title>scriptingmanager.h</title>
<polygon fill="white" stroke="none" points="-4,4 -4,-248 2339.72,-248 2339.72,4 -4,4"/>
<!-- Node1 -->
<g id="node1" class="node"><title>Node1</title>
<polygon fill="#bfbfbf" stroke="black" points="1391.72,-224.5 1391.72,-243.5 1489.72,-243.5 1489.72,-224.5 1391.72,-224.5"/>
<text text-anchor="middle" x="1440.72" y="-231.5" font-family="FreeSans" font-size="10.00">scriptingmanager.h</text>
</g>
<!-- Node2 -->
<g id="node2" class="node"><title>Node2</title>
<g id="a_node2"><a xlink:href="sc__base__types_8h" target="_top" xlink:title="sc_base_types.h">
<polygon fill="white" stroke="black" points="812.224,-168.5 812.224,-187.5 899.224,-187.5 899.224,-168.5 812.224,-168.5"/>
<text text-anchor="middle" x="855.724" y="-175.5" font-family="FreeSans" font-size="10.00">sc_base_types.h</text>
</a>
</g>
</g>
<!-- Node1&#45;&gt;Node2 -->
<g id="edge1" class="edge"><title>Node1&#45;&gt;Node2</title>
<path fill="none" stroke="midnightblue" d="M1381.35,-227.519C1263.67,-216.656 1003.27,-192.619 899.575,-183.048"/>
<polygon fill="midnightblue" stroke="midnightblue" points="1381.32,-231.032 1391.6,-228.466 1381.97,-224.061 1381.32,-231.032"/>
</g>
<!-- Node4 -->
<g id="node4" class="node"><title>Node4</title>
<g id="a_node4"><a xlink:href="pluginmanager_8cpp" target="_top" xlink:title="pluginmanager.cpp">
<polygon fill="white" stroke="black" points="16.724,-56.5 16.724,-75.5 114.724,-75.5 114.724,-56.5 16.724,-56.5"/>
<text text-anchor="middle" x="65.724" y="-63.5" font-family="FreeSans" font-size="10.00">pluginmanager.cpp</text>
</a>
</g>
</g>
<!-- Node1&#45;&gt;Node4 -->
<g id="edge31" class="edge"><title>Node1&#45;&gt;Node4</title>
<path fill="none" stroke="midnightblue" d="M1381.35,-232.64C1139.39,-230.947 234.827,-222.357 111.724,-188 62.6602,-174.307 37.4821,-175.946 11.724,-132 -1.33266,-109.724 29.087,-87.3546 49.3744,-75.5494"/>
<polygon fill="midnightblue" stroke="midnightblue" points="1381.33,-236.139 1391.36,-232.708 1381.38,-229.14 1381.33,-236.139"/>
</g>
<!-- Node5 -->
<g id="node5" class="node"><title>Node5</title>
<g id="a_node5"><a xlink:href="sc__plugin_8cpp" target="_top" xlink:title="sc_plugin.cpp">
<polygon fill="white" stroke="black" points="164.224,-56.5 164.224,-75.5 239.224,-75.5 239.224,-56.5 164.224,-56.5"/>
<text text-anchor="middle" x="201.724" y="-63.5" font-family="FreeSans" font-size="10.00">sc_plugin.cpp</text>
</a>
</g>
</g>
<!-- Node1&#45;&gt;Node5 -->
<g id="edge32" class="edge"><title>Node1&#45;&gt;Node5</title>
<path fill="none" stroke="midnightblue" d="M1381.12,-233.496C1123.23,-235.025 112.189,-234.414 19.724,-132 13.7673,-125.402 14.2447,-118.999 19.724,-112 37.2801,-89.5745 115.882,-76.7803 163.865,-70.9291"/>
<polygon fill="midnightblue" stroke="midnightblue" points="1381.43,-236.995 1391.41,-233.432 1381.39,-229.995 1381.43,-236.995"/>
</g>
<!-- Node6 -->
<g id="node6" class="node"><title>Node6</title>
<g id="a_node6"><a xlink:href="scriptingmanager_8cpp" target="_top" xlink:title="scriptingmanager.cpp">
<polygon fill="white" stroke="black" points="924.724,-56.5 924.724,-75.5 1032.72,-75.5 1032.72,-56.5 924.724,-56.5"/>
<text text-anchor="middle" x="978.724" y="-63.5" font-family="FreeSans" font-size="10.00">scriptingmanager.cpp</text>
</a>
</g>
</g>
<!-- Node1&#45;&gt;Node6 -->
<g id="edge33" class="edge"><title>Node1&#45;&gt;Node6</title>
<path fill="none" stroke="midnightblue" d="M1439.14,-213.942C1435.75,-186.532 1425.21,-136.577 1392.72,-112 1330.19,-64.6931 1119.55,-85.5462 1041.72,-76 1038.87,-75.6503 1035.95,-75.2787 1033,-74.8934"/>
<polygon fill="midnightblue" stroke="midnightblue" points="1435.68,-214.584 1440.19,-224.17 1442.65,-213.863 1435.68,-214.584"/>
</g>
<!-- Node7 -->
<g id="node7" class="node"><title>Node7</title>
<g id="a_node7"><a xlink:href="compilercommandgenerator_8cpp" target="_top" xlink:title="compilercommandgenerator.cpp">
<polygon fill="white" stroke="black" points="29.224,-112.5 29.224,-131.5 184.224,-131.5 184.224,-112.5 29.224,-112.5"/>
<text text-anchor="middle" x="106.724" y="-119.5" font-family="FreeSans" font-size="10.00">compilercommandgenerator.cpp</text>
</a>
</g>
</g>
<!-- Node1&#45;&gt;Node7 -->
<g id="edge28" class="edge"><title>Node1&#45;&gt;Node7</title>
<path fill="none" stroke="midnightblue" d="M1381.32,-229.231C1268.5,-221.979 1015.5,-205.268 802.724,-188 531.365,-165.977 463.671,-158.613 192.724,-132 190.035,-131.736 187.299,-131.464 184.535,-131.188"/>
<polygon fill="midnightblue" stroke="midnightblue" points="1381.26,-232.734 1391.47,-229.882 1381.71,-225.749 1381.26,-232.734"/>
</g>
<!-- Node18 -->
<g id="node18" class="node"><title>Node18</title>
<g id="a_node18"><a xlink:href="app_8cpp" target="_top" xlink:title="app.cpp">
<polygon fill="white" stroke="black" points="1309.72,-0.5 1309.72,-19.5 1359.72,-19.5 1359.72,-0.5 1309.72,-0.5"/>
<text text-anchor="middle" x="1334.72" y="-7.5" font-family="FreeSans" font-size="10.00">app.cpp</text>
</a>
</g>
</g>
<!-- Node1&#45;&gt;Node18 -->
<g id="edge34" class="edge"><title>Node1&#45;&gt;Node18</title>
<path fill="none" stroke="midnightblue" d="M1473.69,-220.418C1490.39,-212.862 1510.16,-201.984 1524.72,-188 1570.45,-144.101 1619.28,-104.716 1578.72,-56 1551.03,-22.7284 1416.4,-13.9624 1359.84,-11.7316"/>
<polygon fill="midnightblue" stroke="midnightblue" points="1472.07,-217.305 1464.27,-224.481 1474.84,-223.733 1472.07,-217.305"/>
</g>
<!-- Node19 -->
<g id="node19" class="node"><title>Node19</title>
<g id="a_node19"><a xlink:href="main_8cpp" target="_top" xlink:title="main.cpp">
<polygon fill="white" stroke="black" points="691.724,-0.5 691.724,-19.5 747.724,-19.5 747.724,-0.5 691.724,-0.5"/>
<text text-anchor="middle" x="719.724" y="-7.5" font-family="FreeSans" font-size="10.00">main.cpp</text>
</a>
</g>
</g>
<!-- Node1&#45;&gt;Node19 -->
<g id="edge35" class="edge"><title>Node1&#45;&gt;Node19</title>
<path fill="none" stroke="midnightblue" d="M1381.39,-232.588C1122.5,-230.6 102.125,-220.712 42.724,-188 16.377,-173.49 13.5581,-160.752 4.72405,-132 -0.765465,-114.134 -3.19312,-67.0224 7.72405,-56 56.5333,-6.72003 565.051,-9.22688 691.418,-10.6236"/>
<polygon fill="midnightblue" stroke="midnightblue" points="1381.68,-236.09 1391.71,-232.666 1381.74,-229.091 1381.68,-236.09"/>
</g>
<!-- Node22 -->
<g id="node22" class="node"><title>Node22</title>
<g id="a_node22"><a xlink:href="compilergcc_8cpp" target="_top" xlink:title="compilergcc.cpp">
<polygon fill="white" stroke="black" points="1143.22,-112.5 1143.22,-131.5 1230.22,-131.5 1230.22,-112.5 1143.22,-112.5"/>
<text text-anchor="middle" x="1186.72" y="-119.5" font-family="FreeSans" font-size="10.00">compilergcc.cpp</text>
</a>
</g>
</g>
<!-- Node1&#45;&gt;Node22 -->
<g id="edge39" class="edge"><title>Node1&#45;&gt;Node22</title>
<path fill="none" stroke="midnightblue" d="M1411.41,-220.305C1359.12,-197.66 1251.08,-150.871 1206.56,-131.591"/>
<polygon fill="midnightblue" stroke="midnightblue" points="1410.23,-223.606 1420.79,-224.368 1413.01,-217.183 1410.23,-223.606"/>
</g>
<!-- Node23 -->
<g id="node23" class="node"><title>Node23</title>
<g id="a_node23"><a xlink:href="wiz_8cpp" target="_top" xlink:title="wiz.cpp">
<polygon fill="white" stroke="black" points="1248.72,-112.5 1248.72,-131.5 1296.72,-131.5 1296.72,-112.5 1248.72,-112.5"/>
<text text-anchor="middle" x="1272.72" y="-119.5" font-family="FreeSans" font-size="10.00">wiz.cpp</text>
</a>
</g>
</g>
<!-- Node1&#45;&gt;Node23 -->
<g id="edge41" class="edge"><title>Node1&#45;&gt;Node23</title>
<path fill="none" stroke="midnightblue" d="M1418.91,-218.714C1383.5,-195.535 1314.62,-150.43 1285.85,-131.591"/>
<polygon fill="midnightblue" stroke="midnightblue" points="1417.26,-221.819 1427.54,-224.368 1421.09,-215.962 1417.26,-221.819"/>
</g>
<!-- Node24 -->
<g id="node24" class="node"><title>Node24</title>
<g id="a_node24"><a xlink:href="wizpage_8cpp" target="_top" xlink:title="wizpage.cpp">
<polygon fill="white" stroke="black" points="1315.22,-112.5 1315.22,-131.5 1384.22,-131.5 1384.22,-112.5 1315.22,-112.5"/>
<text text-anchor="middle" x="1349.72" y="-119.5" font-family="FreeSans" font-size="10.00">wizpage.cpp</text>
</a>
</g>
</g>
<!-- Node1&#45;&gt;Node24 -->
<g id="edge42" class="edge"><title>Node1&#45;&gt;Node24</title>
<path fill="none" stroke="midnightblue" d="M1424.99,-216.97C1416.92,-208.541 1407.06,-197.923 1398.72,-188 1382.37,-168.519 1364.79,-144.298 1355.79,-131.634"/>
<polygon fill="midnightblue" stroke="midnightblue" points="1422.6,-219.536 1432.07,-224.286 1427.63,-214.667 1422.6,-219.536"/>
</g>
<!-- Node25 -->
<g id="node25" class="node"><title>Node25</title>
<g id="a_node25"><a xlink:href="gdb__commands_8h" target="_top" xlink:title="gdb_commands.h">
<polygon fill="white" stroke="black" points="1440.72,-112.5 1440.72,-131.5 1532.72,-131.5 1532.72,-112.5 1440.72,-112.5"/>
<text text-anchor="middle" x="1486.72" y="-119.5" font-family="FreeSans" font-size="10.00">gdb_commands.h</text>
</a>
</g>
</g>
<!-- Node1&#45;&gt;Node25 -->
<g id="edge43" class="edge"><title>Node1&#45;&gt;Node25</title>
<path fill="none" stroke="midnightblue" d="M1448.25,-214.998C1458.29,-190.997 1475.66,-149.468 1483.13,-131.591"/>
<polygon fill="midnightblue" stroke="midnightblue" points="1444.96,-213.792 1444.33,-224.368 1451.42,-216.493 1444.96,-213.792"/>
</g>
<!-- Node27 -->
<g id="node27" class="node"><title>Node27</title>
<g id="a_node27"><a xlink:href="gdb__driver_8cpp" target="_top" xlink:title="gdb_driver.cpp">
<polygon fill="white" stroke="black" points="1491.22,-56.5 1491.22,-75.5 1570.22,-75.5 1570.22,-56.5 1491.22,-56.5"/>
<text text-anchor="middle" x="1530.72" y="-63.5" font-family="FreeSans" font-size="10.00">gdb_driver.cpp</text>
</a>
</g>
</g>
<!-- Node1&#45;&gt;Node27 -->
<g id="edge44" class="edge"><title>Node1&#45;&gt;Node27</title>
<path fill="none" stroke="midnightblue" d="M1463.31,-218.599C1487.93,-201.413 1525.92,-170.156 1541.72,-132 1549.61,-112.967 1540.97,-88.5641 1535.14,-75.7524"/>
<polygon fill="midnightblue" stroke="midnightblue" points="1461.24,-215.778 1454.91,-224.28 1465.16,-221.576 1461.24,-215.778"/>
</g>
<!-- Node28 -->
<g id="node28" class="node"><title>Node28</title>
<g id="a_node28"><a xlink:href="macrosmanager_8cpp" target="_top" xlink:title="macrosmanager.cpp">
<polygon fill="white" stroke="black" points="1608.72,-168.5 1608.72,-187.5 1712.72,-187.5 1712.72,-168.5 1608.72,-168.5"/>
<text text-anchor="middle" x="1660.72" y="-175.5" font-family="FreeSans" font-size="10.00">macrosmanager.cpp</text>
</a>
</g>
</g>
<!-- Node1&#45;&gt;Node28 -->
<g id="edge29" class="edge"><title>Node1&#45;&gt;Node28</title>
<path fill="none" stroke="midnightblue" d="M1485.44,-222.024C1527,-211.823 1588.04,-196.841 1626.03,-187.516"/>
<polygon fill="midnightblue" stroke="midnightblue" points="1484.46,-218.661 1475.58,-224.444 1486.13,-225.459 1484.46,-218.661"/>
</g>
<!-- Node29 -->
<g id="node29" class="node"><title>Node29</title>
<g id="a_node29"><a xlink:href="manager_8cpp" target="_top" xlink:title="manager.cpp">
<polygon fill="white" stroke="black" points="1730.72,-168.5 1730.72,-187.5 1802.72,-187.5 1802.72,-168.5 1730.72,-168.5"/>
<text text-anchor="middle" x="1766.72" y="-175.5" font-family="FreeSans" font-size="10.00">manager.cpp</text>
</a>
</g>
</g>
<!-- Node1&#45;&gt;Node29 -->
<g id="edge30" class="edge"><title>Node1&#45;&gt;Node29</title>
<path fill="none" stroke="midnightblue" d="M1499.71,-224.231C1556.65,-215.607 1645.23,-201.768 1721.72,-188 1724.55,-187.492 1727.47,-186.949 1730.4,-186.39"/>
<polygon fill="midnightblue" stroke="midnightblue" points="1499.17,-220.773 1489.81,-225.727 1500.22,-227.694 1499.17,-220.773"/>
</g>
<!-- Node30 -->
<g id="node30" class="node"><title>Node30</title>
<g id="a_node30"><a xlink:href="projectoptionsdlg_8cpp" target="_top" xlink:title="projectoptionsdlg.cpp">
<polygon fill="white" stroke="black" points="1821.22,-168.5 1821.22,-187.5 1928.22,-187.5 1928.22,-168.5 1821.22,-168.5"/>
<text text-anchor="middle" x="1874.72" y="-175.5" font-family="FreeSans" font-size="10.00">projectoptionsdlg.cpp</text>
</a>
</g>
</g>
<!-- Node1&#45;&gt;Node30 -->
<g id="edge36" class="edge"><title>Node1&#45;&gt;Node30</title>
<path fill="none" stroke="midnightblue" d="M1499.94,-226.209C1573.21,-217.717 1701.76,-202.522 1811.72,-188 1814.79,-187.595 1817.94,-187.171 1821.12,-186.737"/>
<polygon fill="midnightblue" stroke="midnightblue" points="1499.51,-222.736 1489.98,-227.363 1500.31,-229.69 1499.51,-222.736"/>
</g>
<!-- Node31 -->
<g id="node31" class="node"><title>Node31</title>
<g id="a_node31"><a xlink:href="scriptconsole_8cpp" target="_top" xlink:title="scriptconsole.cpp">
<polygon fill="white" stroke="black" points="1946.22,-168.5 1946.22,-187.5 2037.22,-187.5 2037.22,-168.5 1946.22,-168.5"/>
<text text-anchor="middle" x="1991.72" y="-175.5" font-family="FreeSans" font-size="10.00">scriptconsole.cpp</text>
</a>
</g>
</g>
<!-- Node1&#45;&gt;Node31 -->
<g id="edge37" class="edge"><title>Node1&#45;&gt;Node31</title>
<path fill="none" stroke="midnightblue" d="M1499.85,-229.014C1592.98,-222.425 1779.43,-207.978 1936.72,-188 1939.8,-187.61 1942.96,-187.177 1946.14,-186.717"/>
<polygon fill="midnightblue" stroke="midnightblue" points="1499.51,-225.529 1489.78,-229.721 1500,-232.512 1499.51,-225.529"/>
</g>
<!-- Node32 -->
<g id="node32" class="node"><title>Node32</title>
<g id="a_node32"><a xlink:href="scriptingsettingsdlg_8cpp" target="_top" xlink:title="scriptingsettingsdlg.cpp">
<polygon fill="white" stroke="black" points="2055.72,-168.5 2055.72,-187.5 2171.72,-187.5 2171.72,-168.5 2055.72,-168.5"/>
<text text-anchor="middle" x="2113.72" y="-175.5" font-family="FreeSans" font-size="10.00">scriptingsettingsdlg.cpp</text>
</a>
</g>
</g>
<!-- Node1&#45;&gt;Node32 -->
<g id="edge38" class="edge"><title>Node1&#45;&gt;Node32</title>
<path fill="none" stroke="midnightblue" d="M1500.01,-229.77C1608.61,-223.593 1846.73,-208.84 2046.72,-188 2049.64,-187.696 2052.63,-187.365 2055.64,-187.016"/>
<polygon fill="midnightblue" stroke="midnightblue" points="1499.69,-226.282 1489.91,-230.341 1500.09,-233.271 1499.69,-226.282"/>
</g>
<!-- Node33 -->
<g id="node33" class="node"><title>Node33</title>
<g id="a_node33"><a xlink:href="compilerMINGWgenerator_8cpp" target="_top" xlink:title="compilerMINGWgenerator.cpp">
<polygon fill="white" stroke="black" points="2189.72,-168.5 2189.72,-187.5 2335.72,-187.5 2335.72,-168.5 2189.72,-168.5"/>
<text text-anchor="middle" x="2262.72" y="-175.5" font-family="FreeSans" font-size="10.00">compilerMINGWgenerator.cpp</text>
</a>
</g>
</g>
<!-- Node1&#45;&gt;Node33 -->
<g id="edge40" class="edge"><title>Node1&#45;&gt;Node33</title>
<path fill="none" stroke="midnightblue" d="M1500.34,-230.359C1626.17,-224.568 1928.13,-209.529 2180.72,-188 2183.58,-187.757 2186.49,-187.497 2189.42,-187.224"/>
<polygon fill="midnightblue" stroke="midnightblue" points="1499.98,-226.872 1490.15,-230.826 1500.3,-233.865 1499.98,-226.872"/>
</g>
<!-- Node3 -->
<g id="node3" class="node"><title>Node3</title>
<g id="a_node3"><a xlink:href="sc__plugin_8h" target="_top" xlink:title="sc_plugin.h">
<polygon fill="white" stroke="black" points="202.224,-112.5 202.224,-131.5 267.224,-131.5 267.224,-112.5 202.224,-112.5"/>
<text text-anchor="middle" x="234.724" y="-119.5" font-family="FreeSans" font-size="10.00">sc_plugin.h</text>
</a>
</g>
</g>
<!-- Node2&#45;&gt;Node3 -->
<g id="edge2" class="edge"><title>Node2&#45;&gt;Node3</title>
<path fill="none" stroke="midnightblue" d="M802.086,-175.323C699.411,-171.564 468.188,-160.45 275.724,-132 272.985,-131.595 270.155,-131.112 267.322,-130.583"/>
<polygon fill="midnightblue" stroke="midnightblue" points="802.084,-178.825 812.202,-175.685 802.334,-171.829 802.084,-178.825"/>
</g>
<!-- Node2&#45;&gt;Node7 -->
<g id="edge6" class="edge"><title>Node2&#45;&gt;Node7</title>
<path fill="none" stroke="midnightblue" d="M801.724,-174.005C688.646,-167.585 418.715,-151.488 192.724,-132 190.032,-131.768 187.293,-131.524 184.528,-131.271"/>
<polygon fill="midnightblue" stroke="midnightblue" points="801.667,-177.507 811.849,-174.577 802.063,-170.518 801.667,-177.507"/>
</g>
<!-- Node8 -->
<g id="node8" class="node"><title>Node8</title>
<g id="a_node8"><a xlink:href="sc__consts_8cpp" target="_top" xlink:title="sc_consts.cpp">
<polygon fill="white" stroke="black" points="856.224,-112.5 856.224,-131.5 933.224,-131.5 933.224,-112.5 856.224,-112.5"/>
<text text-anchor="middle" x="894.724" y="-119.5" font-family="FreeSans" font-size="10.00">sc_consts.cpp</text>
</a>
</g>
</g>
<!-- Node2&#45;&gt;Node8 -->
<g id="edge7" class="edge"><title>Node2&#45;&gt;Node8</title>
<path fill="none" stroke="midnightblue" d="M868.106,-159.855C874.859,-150.505 882.933,-139.327 888.404,-131.751"/>
<polygon fill="midnightblue" stroke="midnightblue" points="865.182,-157.927 862.164,-168.083 870.856,-162.025 865.182,-157.927"/>
</g>
<!-- Node9 -->
<g id="node9" class="node"><title>Node9</title>
<g id="a_node9"><a xlink:href="sc__dialog_8cpp" target="_top" xlink:title="sc_dialog.cpp">
<polygon fill="white" stroke="black" points="951.224,-112.5 951.224,-131.5 1026.22,-131.5 1026.22,-112.5 951.224,-112.5"/>
<text text-anchor="middle" x="988.724" y="-119.5" font-family="FreeSans" font-size="10.00">sc_dialog.cpp</text>
</a>
</g>
</g>
<!-- Node2&#45;&gt;Node9 -->
<g id="edge8" class="edge"><title>Node2&#45;&gt;Node9</title>
<path fill="none" stroke="midnightblue" d="M886.172,-164.638C911.131,-154.504 945.801,-140.427 967.748,-131.516"/>
<polygon fill="midnightblue" stroke="midnightblue" points="884.747,-161.439 876.798,-168.444 887.38,-167.924 884.747,-161.439"/>
</g>
<!-- Node10 -->
<g id="node10" class="node"><title>Node10</title>
<g id="a_node10"><a xlink:href="sc__globals_8cpp" target="_top" xlink:title="sc_globals.cpp">
<polygon fill="white" stroke="black" points="1044.72,-112.5 1044.72,-131.5 1124.72,-131.5 1124.72,-112.5 1044.72,-112.5"/>
<text text-anchor="middle" x="1084.72" y="-119.5" font-family="FreeSans" font-size="10.00">sc_globals.cpp</text>
</a>
</g>
</g>
<!-- Node2&#45;&gt;Node10 -->
<g id="edge9" class="edge"><title>Node2&#45;&gt;Node10</title>
<path fill="none" stroke="midnightblue" d="M901.998,-166.088C945.261,-155.887 1008.98,-140.861 1048.61,-131.516"/>
<polygon fill="midnightblue" stroke="midnightblue" points="900.94,-162.742 892.01,-168.444 902.546,-169.555 900.94,-162.742"/>
</g>
<!-- Node11 -->
<g id="node11" class="node"><title>Node11</title>
<g id="a_node11"><a xlink:href="sc__io_8cpp" target="_top" xlink:title="sc_io.cpp">
<polygon fill="white" stroke="black" points="285.224,-112.5 285.224,-131.5 342.224,-131.5 342.224,-112.5 285.224,-112.5"/>
<text text-anchor="middle" x="313.724" y="-119.5" font-family="FreeSans" font-size="10.00">sc_io.cpp</text>
</a>
</g>
</g>
<!-- Node2&#45;&gt;Node11 -->
<g id="edge10" class="edge"><title>Node2&#45;&gt;Node11</title>
<path fill="none" stroke="midnightblue" d="M801.737,-174.725C709.15,-170.256 514.334,-158.376 351.724,-132 348.646,-131.501 345.447,-130.89 342.27,-130.225"/>
<polygon fill="midnightblue" stroke="midnightblue" points="801.824,-178.233 811.978,-175.209 802.155,-171.241 801.824,-178.233"/>
</g>
<!-- Node12 -->
<g id="node12" class="node"><title>Node12</title>
<g id="a_node12"><a xlink:href="sc__progress_8cpp" target="_top" xlink:title="sc_progress.cpp">
<polygon fill="white" stroke="black" points="360.724,-112.5 360.724,-131.5 446.724,-131.5 446.724,-112.5 360.724,-112.5"/>
<text text-anchor="middle" x="403.724" y="-119.5" font-family="FreeSans" font-size="10.00">sc_progress.cpp</text>
</a>
</g>
</g>
<!-- Node2&#45;&gt;Node12 -->
<g id="edge11" class="edge"><title>Node2&#45;&gt;Node12</title>
<path fill="none" stroke="midnightblue" d="M801.715,-171.951C724.738,-164.521 579.118,-149.603 455.724,-132 452.822,-131.586 449.832,-131.135 446.823,-130.662"/>
<polygon fill="midnightblue" stroke="midnightblue" points="801.823,-175.477 812.112,-172.949 802.492,-168.509 801.823,-175.477"/>
</g>
<!-- Node13 -->
<g id="node13" class="node"><title>Node13</title>
<g id="a_node13"><a xlink:href="sc__util__dialogs_8cpp" target="_top" xlink:title="sc_util_dialogs.cpp">
<polygon fill="white" stroke="black" points="464.724,-112.5 464.724,-131.5 562.724,-131.5 562.724,-112.5 464.724,-112.5"/>
<text text-anchor="middle" x="513.724" y="-119.5" font-family="FreeSans" font-size="10.00">sc_util_dialogs.cpp</text>
</a>
</g>
</g>
<!-- Node2&#45;&gt;Node13 -->
<g id="edge12" class="edge"><title>Node2&#45;&gt;Node13</title>
<path fill="none" stroke="midnightblue" d="M801.928,-168.506C736.327,-158.148 626.372,-140.786 562.927,-130.769"/>
<polygon fill="midnightblue" stroke="midnightblue" points="801.639,-172.003 812.062,-170.106 802.73,-165.089 801.639,-172.003"/>
</g>
<!-- Node14 -->
<g id="node14" class="node"><title>Node14</title>
<g id="a_node14"><a xlink:href="sc__wxtypes_8cpp" target="_top" xlink:title="sc_wxtypes.cpp">
<polygon fill="white" stroke="black" points="581.224,-112.5 581.224,-131.5 664.224,-131.5 664.224,-112.5 581.224,-112.5"/>
<text text-anchor="middle" x="622.724" y="-119.5" font-family="FreeSans" font-size="10.00">sc_wxtypes.cpp</text>
</a>
</g>
</g>
<!-- Node2&#45;&gt;Node14 -->
<g id="edge13" class="edge"><title>Node2&#45;&gt;Node14</title>
<path fill="none" stroke="midnightblue" d="M808.921,-166.153C764.897,-155.95 699.877,-140.881 659.471,-131.516"/>
<polygon fill="midnightblue" stroke="midnightblue" points="808.272,-169.595 818.805,-168.444 809.853,-162.776 808.272,-169.595"/>
</g>
<!-- Node15 -->
<g id="node15" class="node"><title>Node15</title>
<g id="a_node15"><a xlink:href="scriptbindings_8cpp" target="_top" xlink:title="scriptbindings.cpp">
<polygon fill="white" stroke="black" points="682.224,-112.5 682.224,-131.5 775.224,-131.5 775.224,-112.5 682.224,-112.5"/>
<text text-anchor="middle" x="728.724" y="-119.5" font-family="FreeSans" font-size="10.00">scriptbindings.cpp</text>
</a>
</g>
</g>
<!-- Node2&#45;&gt;Node15 -->
<g id="edge14" class="edge"><title>Node2&#45;&gt;Node15</title>
<path fill="none" stroke="midnightblue" d="M826.333,-164.503C802.524,-154.38 769.618,-140.388 748.753,-131.516"/>
<polygon fill="midnightblue" stroke="midnightblue" points="825.028,-167.751 835.601,-168.444 827.767,-161.31 825.028,-167.751"/>
</g>
<!-- Node16 -->
<g id="node16" class="node"><title>Node16</title>
<g id="a_node16"><a xlink:href="main_8h" target="_top" xlink:title="main.h">
<polygon fill="white" stroke="black" points="793.224,-112.5 793.224,-131.5 838.224,-131.5 838.224,-112.5 793.224,-112.5"/>
<text text-anchor="middle" x="815.724" y="-119.5" font-family="FreeSans" font-size="10.00">main.h</text>
</a>
</g>
</g>
<!-- Node2&#45;&gt;Node16 -->
<g id="edge15" class="edge"><title>Node2&#45;&gt;Node16</title>
<path fill="none" stroke="midnightblue" d="M843.024,-159.855C836.098,-150.505 827.818,-139.327 822.206,-131.751"/>
<polygon fill="midnightblue" stroke="midnightblue" points="840.354,-162.131 849.119,-168.083 845.979,-157.964 840.354,-162.131"/>
</g>
<!-- Node2&#45;&gt;Node22 -->
<g id="edge22" class="edge"><title>Node2&#45;&gt;Node22</title>
<path fill="none" stroke="midnightblue" d="M909.609,-168.404C965.629,-159.438 1055.85,-144.914 1133.72,-132 1136.76,-131.496 1139.9,-130.973 1143.06,-130.443"/>
<polygon fill="midnightblue" stroke="midnightblue" points="908.879,-164.976 899.557,-170.012 909.984,-171.888 908.879,-164.976"/>
</g>
<!-- Node2&#45;&gt;Node23 -->
<g id="edge23" class="edge"><title>Node2&#45;&gt;Node23</title>
<path fill="none" stroke="midnightblue" d="M909.464,-173.104C983.895,-167.161 1122.35,-154.123 1238.72,-132 1241.96,-131.384 1245.35,-130.628 1248.67,-129.817"/>
<polygon fill="midnightblue" stroke="midnightblue" points="909.09,-169.623 899.395,-173.896 909.639,-176.601 909.09,-169.623"/>
</g>
<!-- Node2&#45;&gt;Node24 -->
<g id="edge24" class="edge"><title>Node2&#45;&gt;Node24</title>
<path fill="none" stroke="midnightblue" d="M909.488,-173.407C994.108,-167.351 1163.4,-153.615 1305.72,-132 1308.81,-131.532 1312,-130.99 1315.2,-130.409"/>
<polygon fill="midnightblue" stroke="midnightblue" points="909.077,-169.927 899.35,-174.125 909.572,-176.91 909.077,-169.927"/>
</g>
<!-- Node2&#45;&gt;Node25 -->
<g id="edge25" class="edge"><title>Node2&#45;&gt;Node25</title>
<path fill="none" stroke="midnightblue" d="M909.351,-172.718C1006,-164.953 1215.84,-147.879 1392.72,-132 1408.24,-130.608 1425.18,-129.009 1440.36,-127.549"/>
<polygon fill="midnightblue" stroke="midnightblue" points="908.931,-169.24 899.243,-173.529 909.491,-176.218 908.931,-169.24"/>
</g>
<!-- Node3&#45;&gt;Node4 -->
<g id="edge3" class="edge"><title>Node3&#45;&gt;Node4</title>
<path fill="none" stroke="midnightblue" d="M198.121,-109.304C166.277,-99.1294 120.882,-84.6246 92.3773,-75.5164"/>
<polygon fill="midnightblue" stroke="midnightblue" points="197.355,-112.734 207.945,-112.444 199.485,-106.066 197.355,-112.734"/>
</g>
<!-- Node3&#45;&gt;Node5 -->
<g id="edge4" class="edge"><title>Node3&#45;&gt;Node5</title>
<path fill="none" stroke="midnightblue" d="M223.892,-103.275C218.252,-94.0454 211.606,-83.1703 207.072,-75.7511"/>
<polygon fill="midnightblue" stroke="midnightblue" points="221.074,-105.375 229.275,-112.083 227.047,-101.725 221.074,-105.375"/>
</g>
<!-- Node3&#45;&gt;Node6 -->
<g id="edge5" class="edge"><title>Node3&#45;&gt;Node6</title>
<path fill="none" stroke="midnightblue" d="M277.428,-111.977C559.306,-74.0883 634.956,-103.504 914.724,-76 917.962,-75.6816 921.288,-75.3199 924.64,-74.9287"/>
<polygon fill="midnightblue" stroke="midnightblue" points="276.75,-108.537 267.313,-113.354 277.694,-115.474 276.75,-108.537"/>
</g>
<!-- Node17 -->
<g id="node17" class="node"><title>Node17</title>
<g id="a_node17"><a xlink:href="app_8h" target="_top" xlink:title="app.h">
<polygon fill="white" stroke="black" points="1050.72,-56.5 1050.72,-75.5 1090.72,-75.5 1090.72,-56.5 1050.72,-56.5"/>
<text text-anchor="middle" x="1070.72" y="-63.5" font-family="FreeSans" font-size="10.00">app.h</text>
</a>
</g>
</g>
<!-- Node16&#45;&gt;Node17 -->
<g id="edge16" class="edge"><title>Node16&#45;&gt;Node17</title>
<path fill="none" stroke="midnightblue" d="M848.277,-111.822C934.274,-92.045 959.247,-96.3356 1041.72,-76 1044.59,-75.2933 1047.59,-74.4651 1050.53,-73.6024"/>
<polygon fill="midnightblue" stroke="midnightblue" points="847.279,-108.461 838.342,-114.15 848.876,-115.276 847.279,-108.461"/>
</g>
<!-- Node16&#45;&gt;Node19 -->
<g id="edge20" class="edge"><title>Node16&#45;&gt;Node19</title>
<path fill="none" stroke="midnightblue" d="M783.655,-108.957C768.063,-101.608 750.248,-90.7529 738.724,-76 725.552,-59.1374 721.506,-33.3982 720.267,-19.9268"/>
<polygon fill="midnightblue" stroke="midnightblue" points="782.438,-112.245 793,-113.082 785.265,-105.842 782.438,-112.245"/>
</g>
<!-- Node20 -->
<g id="node20" class="node"><title>Node20</title>
<g id="a_node20"><a xlink:href="ipc_8cpp" target="_top" xlink:title="ipc.cpp">
<polygon fill="white" stroke="black" points="748.224,-56.5 748.224,-75.5 795.224,-75.5 795.224,-56.5 748.224,-56.5"/>
<text text-anchor="middle" x="771.724" y="-63.5" font-family="FreeSans" font-size="10.00">ipc.cpp</text>
</a>
</g>
</g>
<!-- Node16&#45;&gt;Node20 -->
<g id="edge19" class="edge"><title>Node16&#45;&gt;Node20</title>
<path fill="none" stroke="midnightblue" d="M801.99,-104.144C794.324,-94.7357 785.091,-83.4046 778.855,-75.7511"/>
<polygon fill="midnightblue" stroke="midnightblue" points="799.428,-106.541 808.458,-112.083 804.855,-102.12 799.428,-106.541"/>
</g>
<!-- Node21 -->
<g id="node21" class="node"><title>Node21</title>
<g id="a_node21"><a xlink:href="startherepage_8cpp" target="_top" xlink:title="startherepage.cpp">
<polygon fill="white" stroke="black" points="813.224,-56.5 813.224,-75.5 906.224,-75.5 906.224,-56.5 813.224,-56.5"/>
<text text-anchor="middle" x="859.724" y="-63.5" font-family="FreeSans" font-size="10.00">startherepage.cpp</text>
</a>
</g>
</g>
<!-- Node16&#45;&gt;Node21 -->
<g id="edge21" class="edge"><title>Node16&#45;&gt;Node21</title>
<path fill="none" stroke="midnightblue" d="M829.459,-104.144C837.125,-94.7357 846.357,-83.4046 852.594,-75.7511"/>
<polygon fill="midnightblue" stroke="midnightblue" points="826.593,-102.12 822.99,-112.083 832.02,-106.541 826.593,-102.12"/>
</g>
<!-- Node17&#45;&gt;Node18 -->
<g id="edge17" class="edge"><title>Node17&#45;&gt;Node18</title>
<path fill="none" stroke="midnightblue" d="M1101.05,-58.7971C1153.6,-48.049 1260.62,-26.1578 1309.43,-16.1728"/>
<polygon fill="midnightblue" stroke="midnightblue" points="1100.1,-55.4193 1091,-60.8524 1101.5,-62.2773 1100.1,-55.4193"/>
</g>
<!-- Node17&#45;&gt;Node19 -->
<g id="edge18" class="edge"><title>Node17&#45;&gt;Node19</title>
<path fill="none" stroke="midnightblue" d="M1040.67,-56.0846C927.264,-31.2934 802.776,-18.3734 747.995,-13.3973"/>
<polygon fill="midnightblue" stroke="midnightblue" points="1040.03,-59.5286 1050.56,-58.2826 1041.55,-52.6955 1040.03,-59.5286"/>
</g>
<!-- Node26 -->
<g id="node26" class="node"><title>Node26</title>
<g id="a_node26"><a xlink:href="debuggergdb__test__backtrace_8cpp" target="_top" xlink:title="debuggergdb_test_backtrace.cpp">
<polygon fill="white" stroke="black" points="1314.22,-56.5 1314.22,-75.5 1473.22,-75.5 1473.22,-56.5 1314.22,-56.5"/>
<text text-anchor="middle" x="1393.72" y="-63.5" font-family="FreeSans" font-size="10.00">debuggergdb_test_backtrace.cpp</text>
</a>
</g>
</g>
<!-- Node25&#45;&gt;Node26 -->
<g id="edge26" class="edge"><title>Node25&#45;&gt;Node26</title>
<path fill="none" stroke="midnightblue" d="M1462.92,-107.177C1445.81,-97.2407 1423.26,-84.1492 1408.63,-75.6545"/>
<polygon fill="midnightblue" stroke="midnightblue" points="1461.38,-110.329 1471.78,-112.324 1464.89,-104.276 1461.38,-110.329"/>
</g>
<!-- Node25&#45;&gt;Node27 -->
<g id="edge27" class="edge"><title>Node25&#45;&gt;Node27</title>
<path fill="none" stroke="midnightblue" d="M1500.46,-104.144C1508.12,-94.7357 1517.36,-83.4046 1523.59,-75.7511"/>
<polygon fill="midnightblue" stroke="midnightblue" points="1497.59,-102.12 1493.99,-112.083 1503.02,-106.541 1497.59,-102.12"/>
</g>
</g>
</svg>
