<?xml version="1.0" encoding="UTF-8" standalone="no"?>
<!DOCTYPE svg PUBLIC "-//W3C//DTD SVG 1.1//EN"
 "http://www.w3.org/Graphics/SVG/1.1/DTD/svg11.dtd">
<!-- Generated by graphviz version 2.38.0 (20140413.2041)
 -->
<!-- Title: searchtree.cpp Pages: 1 -->
<svg width="2268pt" height="196pt"
 viewBox="0.00 0.00 2267.50 196.00" xmlns="http://www.w3.org/2000/svg" xmlns:xlink="http://www.w3.org/1999/xlink">
<g id="graph0" class="graph" transform="scale(1 1) rotate(0) translate(4 192)">
<title>searchtree.cpp</title>
<!-- Node0 -->
<g id="node1" class="node"><title>Node0</title>
<polygon fill="#bfbfbf" stroke="black" points="686.5,-168.5 686.5,-187.5 766.5,-187.5 766.5,-168.5 686.5,-168.5"/>
<text text-anchor="middle" x="726.5" y="-175.5" font-family="FreeSans" font-size="10.00">searchtree.cpp</text>
</g>
<!-- Node1 -->
<g id="node2" class="node"><title>Node1</title>
<g id="a_node2"><a xlink:href="sdk_8h" target="_top" xlink:title="sdk.h">
<polygon fill="none" stroke="black" points="841,-112.5 841,-131.5 880,-131.5 880,-112.5 841,-112.5"/>
<text text-anchor="middle" x="860.5" y="-119.5" font-family="FreeSans" font-size="10.00">sdk.h</text>
</a>
</g>
</g>
<!-- Node0&#45;&gt;Node1 -->
<g id="edge1" class="edge"><title>Node0&#45;&gt;Node1</title>
<path fill="none" stroke="midnightblue" d="M747.733,-168.444C770.274,-159.36 806.056,-144.94 831.256,-134.785"/>
<polygon fill="midnightblue" stroke="midnightblue" points="832.71,-137.972 840.677,-130.988 830.094,-131.48 832.71,-137.972"/>
</g>
<!-- Node137 -->
<g id="node29" class="node"><title>Node137</title>
<g id="a_node29"><a xlink:href="searchtree_8h" target="_top" xlink:title="searchtree.h">
<polygon fill="none" stroke="black" points="121,-56.5 121,-75.5 190,-75.5 190,-56.5 121,-56.5"/>
<text text-anchor="middle" x="155.5" y="-63.5" font-family="FreeSans" font-size="10.00">searchtree.h</text>
</a>
</g>
</g>
<!-- Node0&#45;&gt;Node137 -->
<g id="edge28" class="edge"><title>Node0&#45;&gt;Node137</title>
<path fill="none" stroke="midnightblue" d="M686.348,-169.265C582.94,-149.344 308.044,-96.3867 199.999,-75.5724"/>
<polygon fill="midnightblue" stroke="midnightblue" points="200.556,-72.1156 190.075,-73.6607 199.232,-78.9892 200.556,-72.1156"/>
</g>
<!-- Node2 -->
<g id="node3" class="node"><title>Node2</title>
<g id="a_node3"><a xlink:href="sdk__common_8h" target="_top" xlink:title="sdk_common.h">
<polygon fill="none" stroke="red" points="1048.5,-56.5 1048.5,-75.5 1130.5,-75.5 1130.5,-56.5 1048.5,-56.5"/>
<text text-anchor="middle" x="1089.5" y="-63.5" font-family="FreeSans" font-size="10.00">sdk_common.h</text>
</a>
</g>
</g>
<!-- Node1&#45;&gt;Node2 -->
<g id="edge2" class="edge"><title>Node1&#45;&gt;Node2</title>
<path fill="none" stroke="midnightblue" d="M880.024,-116.396C915.947,-107.925 993.407,-89.6594 1043.4,-77.8703"/>
<polygon fill="midnightblue" stroke="midnightblue" points="1044.39,-81.2331 1053.32,-75.5313 1042.78,-74.42 1044.39,-81.2331"/>
</g>
<!-- Node3 -->
<g id="node4" class="node"><title>Node3</title>
<polygon fill="none" stroke="#bfbfbf" points="939.5,-0.5 939.5,-19.5 1007.5,-19.5 1007.5,-0.5 939.5,-0.5"/>
<text text-anchor="middle" x="973.5" y="-7.5" font-family="FreeSans" font-size="10.00">wx/wxprec.h</text>
</g>
<!-- Node2&#45;&gt;Node3 -->
<g id="edge3" class="edge"><title>Node2&#45;&gt;Node3</title>
<path fill="none" stroke="midnightblue" d="M1071.12,-56.4435C1052.28,-47.6751 1022.77,-33.9355 1001.12,-23.8579"/>
<polygon fill="midnightblue" stroke="midnightblue" points="1002.34,-20.5637 991.795,-19.5164 999.383,-26.9098 1002.34,-20.5637"/>
</g>
<!-- Node4 -->
<g id="node5" class="node"><title>Node4</title>
<g id="a_node5"><a xlink:href="prep_8h" target="_top" xlink:title="prep.h">
<polygon fill="none" stroke="black" points="161,-0.5 161,-19.5 204,-19.5 204,-0.5 161,-0.5"/>
<text text-anchor="middle" x="182.5" y="-7.5" font-family="FreeSans" font-size="10.00">prep.h</text>
</a>
</g>
</g>
<!-- Node2&#45;&gt;Node4 -->
<g id="edge4" class="edge"><title>Node2&#45;&gt;Node4</title>
<path fill="none" stroke="midnightblue" d="M1048.4,-64.1487C900.721,-60.8971 396.469,-48.0854 214.03,-19.5754"/>
<polygon fill="midnightblue" stroke="midnightblue" points="214.466,-16.1003 204.032,-17.9416 213.337,-23.0087 214.466,-16.1003"/>
</g>
<!-- Node5 -->
<g id="node6" class="node"><title>Node5</title>
<polygon fill="none" stroke="#bfbfbf" points="1025.5,-0.5 1025.5,-19.5 1079.5,-19.5 1079.5,-0.5 1025.5,-0.5"/>
<text text-anchor="middle" x="1052.5" y="-7.5" font-family="FreeSans" font-size="10.00">wx/app.h</text>
</g>
<!-- Node2&#45;&gt;Node5 -->
<g id="edge5" class="edge"><title>Node2&#45;&gt;Node5</title>
<path fill="none" stroke="midnightblue" d="M1083.39,-56.083C1078.22,-48.5341 1070.65,-37.4948 1064.31,-28.2298"/>
<polygon fill="midnightblue" stroke="midnightblue" points="1067.04,-26.0221 1058.5,-19.7511 1061.26,-29.9787 1067.04,-26.0221"/>
</g>
<!-- Node6 -->
<g id="node7" class="node"><title>Node6</title>
<polygon fill="none" stroke="#bfbfbf" points="1097.5,-0.5 1097.5,-19.5 1157.5,-19.5 1157.5,-0.5 1097.5,-0.5"/>
<text text-anchor="middle" x="1127.5" y="-7.5" font-family="FreeSans" font-size="10.00">wx/arrstr.h</text>
</g>
<!-- Node2&#45;&gt;Node6 -->
<g id="edge6" class="edge"><title>Node2&#45;&gt;Node6</title>
<path fill="none" stroke="midnightblue" d="M1095.77,-56.083C1101.14,-48.4554 1109.02,-37.2645 1115.58,-27.9408"/>
<polygon fill="midnightblue" stroke="midnightblue" points="1118.45,-29.9434 1121.34,-19.7511 1112.72,-25.9149 1118.45,-29.9434"/>
</g>
<!-- Node7 -->
<g id="node8" class="node"><title>Node7</title>
<polygon fill="none" stroke="#bfbfbf" points="1176,-0.5 1176,-19.5 1255,-19.5 1255,-0.5 1176,-0.5"/>
<text text-anchor="middle" x="1215.5" y="-7.5" font-family="FreeSans" font-size="10.00">wx/bmpbuttn.h</text>
</g>
<!-- Node2&#45;&gt;Node7 -->
<g id="edge7" class="edge"><title>Node2&#45;&gt;Node7</title>
<path fill="none" stroke="midnightblue" d="M1109.47,-56.4435C1130.11,-47.5961 1162.56,-33.6875 1186.13,-23.5865"/>
<polygon fill="midnightblue" stroke="midnightblue" points="1187.82,-26.6727 1195.63,-19.5164 1185.06,-20.2387 1187.82,-26.6727"/>
</g>
<!-- Node8 -->
<g id="node9" class="node"><title>Node8</title>
<polygon fill="none" stroke="#bfbfbf" points="1273,-0.5 1273,-19.5 1338,-19.5 1338,-0.5 1273,-0.5"/>
<text text-anchor="middle" x="1305.5" y="-7.5" font-family="FreeSans" font-size="10.00">wx/button.h</text>
</g>
<!-- Node2&#45;&gt;Node8 -->
<g id="edge8" class="edge"><title>Node2&#45;&gt;Node8</title>
<path fill="none" stroke="midnightblue" d="M1123.73,-56.4435C1161.45,-47.0125 1222.18,-31.8305 1262.94,-21.6397"/>
<polygon fill="midnightblue" stroke="midnightblue" points="1264,-24.9839 1272.85,-19.1629 1262.3,-18.1929 1264,-24.9839"/>
</g>
<!-- Node9 -->
<g id="node10" class="node"><title>Node9</title>
<polygon fill="none" stroke="#bfbfbf" points="1356.5,-0.5 1356.5,-19.5 1436.5,-19.5 1436.5,-0.5 1356.5,-0.5"/>
<text text-anchor="middle" x="1396.5" y="-7.5" font-family="FreeSans" font-size="10.00">wx/checkbox.h</text>
</g>
<!-- Node2&#45;&gt;Node9 -->
<g id="edge9" class="edge"><title>Node2&#45;&gt;Node9</title>
<path fill="none" stroke="midnightblue" d="M1130.63,-57.9433C1179.57,-49.52 1264.04,-34.9014 1346.37,-20.1907"/>
<polygon fill="midnightblue" stroke="midnightblue" points="1347.17,-23.6033 1356.39,-18.3967 1345.93,-16.7127 1347.17,-23.6033"/>
</g>
<!-- Node10 -->
<g id="node11" class="node"><title>Node10</title>
<polygon fill="none" stroke="#bfbfbf" points="1454.5,-0.5 1454.5,-19.5 1528.5,-19.5 1528.5,-0.5 1454.5,-0.5"/>
<text text-anchor="middle" x="1491.5" y="-7.5" font-family="FreeSans" font-size="10.00">wx/checklst.h</text>
</g>
<!-- Node2&#45;&gt;Node10 -->
<g id="edge10" class="edge"><title>Node2&#45;&gt;Node10</title>
<path fill="none" stroke="midnightblue" d="M1130.74,-60.7013C1195.38,-53.7642 1324.7,-39.0837 1444.32,-20.0969"/>
<polygon fill="midnightblue" stroke="midnightblue" points="1445.06,-23.5226 1454.38,-18.4854 1443.95,-16.6106 1445.06,-23.5226"/>
</g>
<!-- Node11 -->
<g id="node12" class="node"><title>Node11</title>
<polygon fill="none" stroke="#bfbfbf" points="1547,-0.5 1547,-19.5 1614,-19.5 1614,-0.5 1547,-0.5"/>
<text text-anchor="middle" x="1580.5" y="-7.5" font-family="FreeSans" font-size="10.00">wx/choice.h</text>
</g>
<!-- Node2&#45;&gt;Node11 -->
<g id="edge11" class="edge"><title>Node2&#45;&gt;Node11</title>
<path fill="none" stroke="midnightblue" d="M1130.76,-62.3276C1208.25,-56.9907 1380.96,-43.5876 1536.54,-19.9845"/>
<polygon fill="midnightblue" stroke="midnightblue" points="1537.41,-23.3923 1546.76,-18.4151 1536.35,-16.4734 1537.41,-23.3923"/>
</g>
<!-- Node12 -->
<g id="node13" class="node"><title>Node12</title>
<polygon fill="none" stroke="#bfbfbf" points="1632.5,-0.5 1632.5,-19.5 1706.5,-19.5 1706.5,-0.5 1632.5,-0.5"/>
<text text-anchor="middle" x="1669.5" y="-7.5" font-family="FreeSans" font-size="10.00">wx/choicdlg.h</text>
</g>
<!-- Node2&#45;&gt;Node12 -->
<g id="edge12" class="edge"><title>Node2&#45;&gt;Node12</title>
<path fill="none" stroke="midnightblue" d="M1130.54,-63.0719C1218.7,-58.6004 1432.89,-45.9764 1622.26,-20.025"/>
<polygon fill="midnightblue" stroke="midnightblue" points="1622.98,-23.4593 1632.4,-18.6191 1622.02,-16.5256 1622.98,-23.4593"/>
</g>
<!-- Node13 -->
<g id="node14" class="node"><title>Node13</title>
<polygon fill="none" stroke="#bfbfbf" points="1724.5,-0.5 1724.5,-19.5 1796.5,-19.5 1796.5,-0.5 1724.5,-0.5"/>
<text text-anchor="middle" x="1760.5" y="-7.5" font-family="FreeSans" font-size="10.00">wx/colordlg.h</text>
</g>
<!-- Node2&#45;&gt;Node13 -->
<g id="edge13" class="edge"><title>Node2&#45;&gt;Node13</title>
<path fill="none" stroke="midnightblue" d="M1130.7,-63.8284C1229.64,-60.6319 1488.58,-49.9957 1714.18,-20.0135"/>
<polygon fill="midnightblue" stroke="midnightblue" points="1714.77,-23.4652 1724.22,-18.6635 1713.84,-16.5276 1714.77,-23.4652"/>
</g>
<!-- Node14 -->
<g id="node15" class="node"><title>Node14</title>
<polygon fill="none" stroke="#bfbfbf" points="1815,-0.5 1815,-19.5 1898,-19.5 1898,-0.5 1815,-0.5"/>
<text text-anchor="middle" x="1856.5" y="-7.5" font-family="FreeSans" font-size="10.00">wx/combobox.h</text>
</g>
<!-- Node2&#45;&gt;Node14 -->
<g id="edge14" class="edge"><title>Node2&#45;&gt;Node14</title>
<path fill="none" stroke="midnightblue" d="M1130.81,-64.0201C1239.46,-61.0982 1542.29,-50.7305 1804.71,-19.9467"/>
<polygon fill="midnightblue" stroke="midnightblue" points="1805.29,-23.4021 1814.81,-18.7491 1804.47,-16.4508 1805.29,-23.4021"/>
</g>
<!-- Node15 -->
<g id="node16" class="node"><title>Node15</title>
<polygon fill="none" stroke="#bfbfbf" points="1916,-0.5 1916,-19.5 1993,-19.5 1993,-0.5 1916,-0.5"/>
<text text-anchor="middle" x="1954.5" y="-7.5" font-family="FreeSans" font-size="10.00">wx/confbase.h</text>
</g>
<!-- Node2&#45;&gt;Node15 -->
<g id="edge15" class="edge"><title>Node2&#45;&gt;Node15</title>
<path fill="none" stroke="midnightblue" d="M1130.53,-64.6864C1249.17,-63.3671 1602.98,-56.5278 1905.55,-20.0832"/>
<polygon fill="midnightblue" stroke="midnightblue" points="1906.33,-23.5134 1915.84,-18.8299 1905.49,-16.5648 1906.33,-23.5134"/>
</g>
<!-- Node16 -->
<g id="node17" class="node"><title>Node16</title>
<polygon fill="none" stroke="#bfbfbf" points="2011.5,-0.5 2011.5,-19.5 2087.5,-19.5 2087.5,-0.5 2011.5,-0.5"/>
<text text-anchor="middle" x="2049.5" y="-7.5" font-family="FreeSans" font-size="10.00">wx/datetime.h</text>
</g>
<!-- Node2&#45;&gt;Node16 -->
<g id="edge16" class="edge"><title>Node2&#45;&gt;Node16</title>
<path fill="none" stroke="midnightblue" d="M1130.62,-65.0181C1258.36,-64.6416 1659.71,-60.1993 2001.26,-19.9688"/>
<polygon fill="midnightblue" stroke="midnightblue" points="2001.83,-23.4256 2011.35,-18.7681 2001.01,-16.4747 2001.83,-23.4256"/>
</g>
<!-- Node17 -->
<g id="node18" class="node"><title>Node17</title>
<polygon fill="none" stroke="#bfbfbf" points="2105.5,-0.5 2105.5,-19.5 2177.5,-19.5 2177.5,-0.5 2105.5,-0.5"/>
<text text-anchor="middle" x="2141.5" y="-7.5" font-family="FreeSans" font-size="10.00">wx/dcclient.h</text>
</g>
<!-- Node2&#45;&gt;Node17 -->
<g id="edge17" class="edge"><title>Node2&#45;&gt;Node17</title>
<path fill="none" stroke="midnightblue" d="M1130.93,-65.4086C1267.5,-66.2785 1715.89,-65.3366 2095.16,-19.9663"/>
<polygon fill="midnightblue" stroke="midnightblue" points="2095.72,-23.4237 2105.23,-18.7489 2094.88,-16.4742 2095.72,-23.4237"/>
</g>
<!-- Node18 -->
<g id="node19" class="node"><title>Node18</title>
<polygon fill="none" stroke="#bfbfbf" points="2195.5,-0.5 2195.5,-19.5 2259.5,-19.5 2259.5,-0.5 2195.5,-0.5"/>
<text text-anchor="middle" x="2227.5" y="-7.5" font-family="FreeSans" font-size="10.00">wx/dialog.h</text>
</g>
<!-- Node2&#45;&gt;Node18 -->
<g id="edge18" class="edge"><title>Node2&#45;&gt;Node18</title>
<path fill="none" stroke="midnightblue" d="M1130.72,-64.2756C1301.66,-61.1246 1956.2,-47.5714 2185.11,-19.8974"/>
<polygon fill="midnightblue" stroke="midnightblue" points="2185.88,-23.3292 2195.36,-18.6114 2185.01,-16.3836 2185.88,-23.3292"/>
</g>
<!-- Node19 -->
<g id="node20" class="node"><title>Node19</title>
<polygon fill="none" stroke="#bfbfbf" points="303,-0.5 303,-19.5 352,-19.5 352,-0.5 303,-0.5"/>
<text text-anchor="middle" x="327.5" y="-7.5" font-family="FreeSans" font-size="10.00">wx/dir.h</text>
</g>
<!-- Node2&#45;&gt;Node19 -->
<g id="edge19" class="edge"><title>Node2&#45;&gt;Node19</title>
<path fill="none" stroke="midnightblue" d="M1048.14,-65.2823C937.959,-65.4319 628.263,-61.9176 362.491,-19.8017"/>
<polygon fill="midnightblue" stroke="midnightblue" points="362.69,-16.2888 352.261,-18.1578 361.579,-23.2001 362.69,-16.2888"/>
</g>
<!-- Node20 -->
<g id="node21" class="node"><title>Node20</title>
<polygon fill="none" stroke="#bfbfbf" points="370.5,-0.5 370.5,-19.5 444.5,-19.5 444.5,-0.5 370.5,-0.5"/>
<text text-anchor="middle" x="407.5" y="-7.5" font-family="FreeSans" font-size="10.00">wx/dynarray.h</text>
</g>
<!-- Node2&#45;&gt;Node20 -->
<g id="edge20" class="edge"><title>Node2&#45;&gt;Node20</title>
<path fill="none" stroke="midnightblue" d="M1048.4,-63.8371C948.463,-60.6365 684.681,-49.9505 454.821,-20.0104"/>
<polygon fill="midnightblue" stroke="midnightblue" points="454.964,-16.4991 444.593,-18.6623 454.05,-23.4391 454.964,-16.4991"/>
</g>
<!-- Node21 -->
<g id="node22" class="node"><title>Node21</title>
<polygon fill="none" stroke="#bfbfbf" points="462.5,-0.5 462.5,-19.5 524.5,-19.5 524.5,-0.5 462.5,-0.5"/>
<text text-anchor="middle" x="493.5" y="-7.5" font-family="FreeSans" font-size="10.00">wx/event.h</text>
</g>
<!-- Node2&#45;&gt;Node21 -->
<g id="edge21" class="edge"><title>Node2&#45;&gt;Node21</title>
<path fill="none" stroke="midnightblue" d="M1048.47,-63.6527C957.584,-60.2456 732.384,-49.4722 534.844,-20.003"/>
<polygon fill="midnightblue" stroke="midnightblue" points="535.275,-16.5285 524.864,-18.4945 534.228,-23.4499 535.275,-16.5285"/>
</g>
<!-- Node22 -->
<g id="node23" class="node"><title>Node22</title>
<polygon fill="none" stroke="#bfbfbf" points="542.5,-0.5 542.5,-19.5 592.5,-19.5 592.5,-0.5 542.5,-0.5"/>
<text text-anchor="middle" x="567.5" y="-7.5" font-family="FreeSans" font-size="10.00">wx/file.h</text>
</g>
<!-- Node2&#45;&gt;Node22 -->
<g id="edge22" class="edge"><title>Node2&#45;&gt;Node22</title>
<path fill="none" stroke="midnightblue" d="M1048.48,-63.4204C964.324,-59.6946 766.259,-48.4333 602.5,-20 602.4,-19.9826 602.299,-19.965 602.198,-19.9473"/>
<polygon fill="midnightblue" stroke="midnightblue" points="603.132,-16.5662 592.631,-17.9736 601.717,-23.4219 603.132,-16.5662"/>
</g>
<!-- Node23 -->
<g id="node24" class="node"><title>Node23</title>
<polygon fill="none" stroke="#bfbfbf" points="611,-0.5 611,-19.5 674,-19.5 674,-0.5 611,-0.5"/>
<text text-anchor="middle" x="642.5" y="-7.5" font-family="FreeSans" font-size="10.00">wx/filedlg.h</text>
</g>
<!-- Node2&#45;&gt;Node23 -->
<g id="edge23" class="edge"><title>Node2&#45;&gt;Node23</title>
<path fill="none" stroke="midnightblue" d="M1048.39,-61.8892C976.581,-56.142 823.497,-42.4992 684.223,-19.949"/>
<polygon fill="midnightblue" stroke="midnightblue" points="684.655,-16.4732 674.22,-18.31 683.523,-23.381 684.655,-16.4732"/>
</g>
<!-- Node24 -->
<g id="node25" class="node"><title>Node24</title>
<polygon fill="none" stroke="#bfbfbf" points="692.5,-0.5 692.5,-19.5 766.5,-19.5 766.5,-0.5 692.5,-0.5"/>
<text text-anchor="middle" x="729.5" y="-7.5" font-family="FreeSans" font-size="10.00">wx/filename.h</text>
</g>
<!-- Node2&#45;&gt;Node24 -->
<g id="edge24" class="edge"><title>Node2&#45;&gt;Node24</title>
<path fill="none" stroke="midnightblue" d="M1048.39,-59.7084C990.342,-52.1008 880.809,-37.2485 776.725,-19.9632"/>
<polygon fill="midnightblue" stroke="midnightblue" points="777.112,-16.4793 766.672,-18.283 775.958,-23.3835 777.112,-16.4793"/>
</g>
<!-- Node25 -->
<g id="node26" class="node"><title>Node25</title>
<polygon fill="none" stroke="#bfbfbf" points="785,-0.5 785,-19.5 840,-19.5 840,-0.5 785,-0.5"/>
<text text-anchor="middle" x="812.5" y="-7.5" font-family="FreeSans" font-size="10.00">wx/font.h</text>
</g>
<!-- Node2&#45;&gt;Node25 -->
<g id="edge25" class="edge"><title>Node2&#45;&gt;Node25</title>
<path fill="none" stroke="midnightblue" d="M1048.17,-57.9408C1002.3,-49.9527 925.846,-36.1874 850.485,-20.119"/>
<polygon fill="midnightblue" stroke="midnightblue" points="850.856,-16.6189 840.344,-17.941 849.386,-23.4628 850.856,-16.6189"/>
</g>
<!-- Node26 -->
<g id="node27" class="node"><title>Node26</title>
<polygon fill="none" stroke="#bfbfbf" points="858,-0.5 858,-19.5 921,-19.5 921,-0.5 858,-0.5"/>
<text text-anchor="middle" x="889.5" y="-7.5" font-family="FreeSans" font-size="10.00">wx/frame.h</text>
</g>
<!-- Node2&#45;&gt;Node26 -->
<g id="edge26" class="edge"><title>Node2&#45;&gt;Node26</title>
<path fill="none" stroke="midnightblue" d="M1057.81,-56.4435C1023.43,-47.1616 968.423,-32.3093 930.711,-22.127"/>
<polygon fill="midnightblue" stroke="midnightblue" points="931.609,-18.7442 921.042,-19.5164 929.784,-25.5022 931.609,-18.7442"/>
</g>
<!-- Node53 -->
<g id="node28" class="node"><title>Node53</title>
<polygon fill="none" stroke="#bfbfbf" points="222.5,-0.5 222.5,-19.5 284.5,-19.5 284.5,-0.5 222.5,-0.5"/>
<text text-anchor="middle" x="253.5" y="-7.5" font-family="FreeSans" font-size="10.00">wx/string.h</text>
</g>
<!-- Node2&#45;&gt;Node53 -->
<g id="edge27" class="edge"><title>Node2&#45;&gt;Node53</title>
<path fill="none" stroke="midnightblue" d="M1048.32,-64.9788C931.648,-64.4287 588.902,-59.424 294.751,-19.7622"/>
<polygon fill="midnightblue" stroke="midnightblue" points="295.128,-16.2814 284.747,-18.3973 294.182,-23.2171 295.128,-16.2814"/>
</g>
<!-- Node137&#45;&gt;Node4 -->
<g id="edge29" class="edge"><title>Node137&#45;&gt;Node4</title>
<path fill="none" stroke="midnightblue" d="M159.959,-56.083C163.654,-48.6913 169.023,-37.9533 173.594,-28.8111"/>
<polygon fill="midnightblue" stroke="midnightblue" points="176.783,-30.2606 178.124,-19.7511 170.522,-27.1301 176.783,-30.2606"/>
</g>
<!-- Node137&#45;&gt;Node53 -->
<g id="edge30" class="edge"><title>Node137&#45;&gt;Node53</title>
<path fill="none" stroke="midnightblue" d="M171.245,-56.324C186.819,-47.7428 210.877,-34.486 228.959,-24.5224"/>
<polygon fill="midnightblue" stroke="midnightblue" points="230.724,-27.546 237.794,-19.6545 227.346,-21.4152 230.724,-27.546"/>
</g>
<!-- Node73 -->
<g id="node30" class="node"><title>Node73</title>
<polygon fill="none" stroke="#bfbfbf" points="0,-0.5 0,-19.5 43,-19.5 43,-0.5 0,-0.5"/>
<text text-anchor="middle" x="21.5" y="-7.5" font-family="FreeSans" font-size="10.00">vector</text>
</g>
<!-- Node137&#45;&gt;Node73 -->
<g id="edge31" class="edge"><title>Node137&#45;&gt;Node73</title>
<path fill="none" stroke="midnightblue" d="M134.267,-56.4435C112.116,-47.5171 77.1813,-33.4387 52.064,-23.3168"/>
<polygon fill="midnightblue" stroke="midnightblue" points="53.2168,-20.0079 42.6334,-19.5164 50.6003,-26.5006 53.2168,-20.0079"/>
</g>
<!-- Node89 -->
<g id="node31" class="node"><title>Node89</title>
<polygon fill="none" stroke="#bfbfbf" points="61,-0.5 61,-19.5 96,-19.5 96,-0.5 61,-0.5"/>
<text text-anchor="middle" x="78.5" y="-7.5" font-family="FreeSans" font-size="10.00">map</text>
</g>
<!-- Node137&#45;&gt;Node89 -->
<g id="edge32" class="edge"><title>Node137&#45;&gt;Node89</title>
<path fill="none" stroke="midnightblue" d="M143.129,-56.324C131.342,-48.0577 113.368,-35.4527 99.3645,-25.6322"/>
<polygon fill="midnightblue" stroke="midnightblue" points="101.038,-22.5307 90.8407,-19.6545 97.0184,-28.2619 101.038,-22.5307"/>
</g>
<!-- Node93 -->
<g id="node32" class="node"><title>Node93</title>
<polygon fill="none" stroke="#bfbfbf" points="114,-0.5 114,-19.5 143,-19.5 143,-0.5 114,-0.5"/>
<text text-anchor="middle" x="128.5" y="-7.5" font-family="FreeSans" font-size="10.00">set</text>
</g>
<!-- Node137&#45;&gt;Node93 -->
<g id="edge33" class="edge"><title>Node137&#45;&gt;Node93</title>
<path fill="none" stroke="midnightblue" d="M151.041,-56.083C147.346,-48.6913 141.977,-37.9533 137.406,-28.8111"/>
<polygon fill="midnightblue" stroke="midnightblue" points="140.478,-27.1301 132.876,-19.7511 134.217,-30.2606 140.478,-27.1301"/>
</g>
</g>
</svg>
