<?xml version="1.0" encoding="UTF-8" standalone="no"?>
<!DOCTYPE svg PUBLIC "-//W3C//DTD SVG 1.1//EN"
 "http://www.w3.org/Graphics/SVG/1.1/DTD/svg11.dtd">
<!-- Generated by graphviz version 2.40.1 (20161225.0304)
 -->
<!-- Title: selecttargetdlg.h Pages: 1 -->
<svg width="198pt" height="84pt"
 viewBox="0.00 0.00 198.00 84.00" xmlns="http://www.w3.org/2000/svg" xmlns:xlink="http://www.w3.org/1999/xlink">
<g id="graph0" class="graph" transform="scale(1 1) rotate(0) translate(4 80)">
<title>selecttargetdlg.h</title>
<!-- Node5 -->
<g id="node1" class="node">
<title>Node5</title>
<polygon fill="#bfbfbf" stroke="#000000" points="45.5,-56.5 45.5,-75.5 132.5,-75.5 132.5,-56.5 45.5,-56.5"/>
<text text-anchor="middle" x="89" y="-63.5" font-family="FreeSans" font-size="10.00" fill="#000000">selecttargetdlg.h</text>
</g>
<!-- Node6 -->
<g id="node2" class="node">
<title>Node6</title>
<g id="a_node2"><a xlink:href="cbproject_8cpp" target="_top" xlink:title="cbproject.cpp">
<polygon fill="none" stroke="#000000" points="0,-.5 0,-19.5 74,-19.5 74,-.5 0,-.5"/>
<text text-anchor="middle" x="37" y="-7.5" font-family="FreeSans" font-size="10.00" fill="#000000">cbproject.cpp</text>
</a>
</g>
</g>
<!-- Node5&#45;&gt;Node6 -->
<g id="edge1" class="edge">
<title>Node5&#45;&gt;Node6</title>
<path fill="none" stroke="#191970" d="M73.0178,-48.7884C64.1222,-39.2085 53.3796,-27.6396 45.9539,-19.6427"/>
<polygon fill="#191970" stroke="#191970" points="70.573,-51.2992 79.9423,-56.2455 75.7025,-46.536 70.573,-51.2992"/>
</g>
<!-- Node7 -->
<g id="node3" class="node">
<title>Node7</title>
<g id="a_node3"><a xlink:href="selecttargetdlg_8cpp" target="_top" xlink:title="selecttargetdlg.cpp">
<polygon fill="none" stroke="#000000" points="92,-.5 92,-19.5 190,-19.5 190,-.5 92,-.5"/>
<text text-anchor="middle" x="141" y="-7.5" font-family="FreeSans" font-size="10.00" fill="#000000">selecttargetdlg.cpp</text>
</a>
</g>
</g>
<!-- Node5&#45;&gt;Node7 -->
<g id="edge2" class="edge">
<title>Node5&#45;&gt;Node7</title>
<path fill="none" stroke="#191970" d="M104.9822,-48.7884C113.8778,-39.2085 124.6204,-27.6396 132.0461,-19.6427"/>
<polygon fill="#191970" stroke="#191970" points="102.2975,-46.536 98.0577,-56.2455 107.427,-51.2992 102.2975,-46.536"/>
</g>
</g>
</svg>
