<?xml version="1.0" encoding="UTF-8" standalone="no"?>
<!DOCTYPE svg PUBLIC "-//W3C//DTD SVG 1.1//EN"
 "http://www.w3.org/Graphics/SVG/1.1/DTD/svg11.dtd">
<!-- Generated by graphviz version 2.38.0 (20140413.2041)
 -->
<!-- Title: selectincludefile.h Pages: 1 -->
<svg width="232pt" height="84pt"
 viewBox="0.00 0.00 232.00 84.00" xmlns="http://www.w3.org/2000/svg" xmlns:xlink="http://www.w3.org/1999/xlink">
<g id="graph0" class="graph" transform="scale(1 1) rotate(0) translate(4 80)">
<title>selectincludefile.h</title>
<polygon fill="white" stroke="none" points="-4,4 -4,-80 228,-80 228,4 -4,4"/>
<!-- Node1 -->
<g id="node1" class="node"><title>Node1</title>
<polygon fill="#bfbfbf" stroke="black" points="65.5,-56.5 65.5,-75.5 157.5,-75.5 157.5,-56.5 65.5,-56.5"/>
<text text-anchor="middle" x="111.5" y="-63.5" font-family="FreeSans" font-size="10.00">selectincludefile.h</text>
</g>
<!-- Node2 -->
<g id="node2" class="node"><title>Node2</title>
<g id="a_node2"><a xlink:href="codecompletion_8cpp.xhtml" target="_top" xlink:title="codecompletion.cpp">
<polygon fill="white" stroke="black" points="0,-0.5 0,-19.5 103,-19.5 103,-0.5 0,-0.5"/>
<text text-anchor="middle" x="51.5" y="-7.5" font-family="FreeSans" font-size="10.00">codecompletion.cpp</text>
</a>
</g>
</g>
<!-- Node1&#45;&gt;Node2 -->
<g id="edge1" class="edge"><title>Node1&#45;&gt;Node2</title>
<path fill="none" stroke="midnightblue" d="M94.3191,-49.5372C83.6208,-39.9087 70.2437,-27.8694 61.3154,-19.8339"/>
<polygon fill="midnightblue" stroke="midnightblue" points="92.0856,-52.2358 101.86,-56.324 96.7684,-47.0327 92.0856,-52.2358"/>
</g>
<!-- Node3 -->
<g id="node3" class="node"><title>Node3</title>
<g id="a_node3"><a xlink:href="selectincludefile_8cpp.xhtml" target="_top" xlink:title="selectincludefile.cpp">
<polygon fill="white" stroke="black" points="121,-0.5 121,-19.5 224,-19.5 224,-0.5 121,-0.5"/>
<text text-anchor="middle" x="172.5" y="-7.5" font-family="FreeSans" font-size="10.00">selectincludefile.cpp</text>
</a>
</g>
</g>
<!-- Node1&#45;&gt;Node3 -->
<g id="edge2" class="edge"><title>Node1&#45;&gt;Node3</title>
<path fill="none" stroke="midnightblue" d="M128.967,-49.5372C139.844,-39.9087 153.444,-27.8694 162.521,-19.8339"/>
<polygon fill="midnightblue" stroke="midnightblue" points="126.468,-47.0749 121.301,-56.324 131.108,-52.3162 126.468,-47.0749"/>
</g>
</g>
</svg>
