<?xml version="1.0" encoding="UTF-8" standalone="no"?>
<!DOCTYPE svg PUBLIC "-//W3C//DTD SVG 1.1//EN"
 "http://www.w3.org/Graphics/SVG/1.1/DTD/svg11.dtd">
<!-- Generated by graphviz version 2.40.1 (20161225.0304)
 -->
<!-- Title: selectincludefile.h Pages: 1 -->
<svg width="248pt" height="140pt"
 viewBox="0.00 0.00 247.50 140.00" xmlns="http://www.w3.org/2000/svg" xmlns:xlink="http://www.w3.org/1999/xlink">
<g id="graph0" class="graph" transform="scale(1 1) rotate(0) translate(4 136)">
<title>selectincludefile.h</title>
<!-- Node0 -->
<g id="node1" class="node">
<title>Node0</title>
<polygon fill="#bfbfbf" stroke="#000000" points="35,-112.5 35,-131.5 127,-131.5 127,-112.5 35,-112.5"/>
<text text-anchor="middle" x="81" y="-119.5" font-family="FreeSans" font-size="10.00" fill="#000000">selectincludefile.h</text>
</g>
<!-- Node1 -->
<g id="node2" class="node">
<title>Node1</title>
<polygon fill="none" stroke="#bfbfbf" points="0,-56.5 0,-75.5 68,-75.5 68,-56.5 0,-56.5"/>
<text text-anchor="middle" x="34" y="-63.5" font-family="FreeSans" font-size="10.00" fill="#000000">wx/wxprec.h</text>
</g>
<!-- Node0&#45;&gt;Node1 -->
<g id="edge1" class="edge">
<title>Node0&#45;&gt;Node1</title>
<path fill="none" stroke="#191970" d="M72.8132,-112.2455C66.1411,-104.2958 56.5521,-92.8706 48.5747,-83.3656"/>
<polygon fill="#191970" stroke="#191970" points="51.2026,-81.0524 42.093,-75.6427 45.8408,-85.5525 51.2026,-81.0524"/>
</g>
<!-- Node2 -->
<g id="node3" class="node">
<title>Node2</title>
<g id="a_node3"><a xlink:href="scrollingdialog_8h" target="_top" xlink:title="scrollingdialog.h">
<polygon fill="none" stroke="#000000" points="86.5,-56.5 86.5,-75.5 171.5,-75.5 171.5,-56.5 86.5,-56.5"/>
<text text-anchor="middle" x="129" y="-63.5" font-family="FreeSans" font-size="10.00" fill="#000000">scrollingdialog.h</text>
</a>
</g>
</g>
<!-- Node0&#45;&gt;Node2 -->
<g id="edge2" class="edge">
<title>Node0&#45;&gt;Node2</title>
<path fill="none" stroke="#191970" d="M89.361,-112.2455C96.175,-104.2958 105.9681,-92.8706 114.1152,-83.3656"/>
<polygon fill="#191970" stroke="#191970" points="116.8843,-85.513 120.7349,-75.6427 111.5695,-80.9575 116.8843,-85.513"/>
</g>
<!-- Node3 -->
<g id="node4" class="node">
<title>Node3</title>
<polygon fill="none" stroke="#bfbfbf" points="12,-.5 12,-19.5 76,-19.5 76,-.5 12,-.5"/>
<text text-anchor="middle" x="44" y="-7.5" font-family="FreeSans" font-size="10.00" fill="#000000">wx/dialog.h</text>
</g>
<!-- Node2&#45;&gt;Node3 -->
<g id="edge3" class="edge">
<title>Node2&#45;&gt;Node3</title>
<path fill="none" stroke="#191970" d="M114.1941,-56.2455C101.2744,-47.7337 82.3069,-35.2375 67.3448,-25.3801"/>
<polygon fill="#191970" stroke="#191970" points="68.9124,-22.2216 58.6362,-19.6427 65.0613,-28.067 68.9124,-22.2216"/>
</g>
<!-- Node4 -->
<g id="node5" class="node">
<title>Node4</title>
<polygon fill="none" stroke="#bfbfbf" points="94,-.5 94,-19.5 164,-19.5 164,-.5 94,-.5"/>
<text text-anchor="middle" x="129" y="-7.5" font-family="FreeSans" font-size="10.00" fill="#000000">wx/propdlg.h</text>
</g>
<!-- Node2&#45;&gt;Node4 -->
<g id="edge4" class="edge">
<title>Node2&#45;&gt;Node4</title>
<path fill="none" stroke="#191970" d="M129,-56.2455C129,-48.9382 129,-38.6944 129,-29.7046"/>
<polygon fill="#191970" stroke="#191970" points="132.5001,-29.6426 129,-19.6427 125.5001,-29.6427 132.5001,-29.6426"/>
</g>
<!-- Node5 -->
<g id="node6" class="node">
<title>Node5</title>
<g id="a_node6"><a xlink:href="settings_8h" target="_top" xlink:title="settings.h">
<polygon fill="none" stroke="#000000" points="182.5,-.5 182.5,-19.5 239.5,-19.5 239.5,-.5 182.5,-.5"/>
<text text-anchor="middle" x="211" y="-7.5" font-family="FreeSans" font-size="10.00" fill="#000000">settings.h</text>
</a>
</g>
</g>
<!-- Node2&#45;&gt;Node5 -->
<g id="edge5" class="edge">
<title>Node2&#45;&gt;Node5</title>
<path fill="none" stroke="#191970" d="M143.2833,-56.2455C155.747,-47.7337 174.0451,-35.2375 188.4792,-25.3801"/>
<polygon fill="#191970" stroke="#191970" points="190.5962,-28.1726 196.8804,-19.6427 186.6485,-22.392 190.5962,-28.1726"/>
</g>
</g>
</svg>
