<?xml version="1.0" encoding="UTF-8" standalone="no"?>
<!DOCTYPE svg PUBLIC "-//W3C//DTD SVG 1.1//EN"
 "http://www.w3.org/Graphics/SVG/1.1/DTD/svg11.dtd">
<!-- Generated by graphviz version 2.40.1 (20161225.0304)
 -->
<!-- Title: splashscreen.h Pages: 1 -->
<svg width="256pt" height="84pt"
 viewBox="0.00 0.00 256.00 84.00" xmlns="http://www.w3.org/2000/svg" xmlns:xlink="http://www.w3.org/1999/xlink">
<g id="graph0" class="graph" transform="scale(1 1) rotate(0) translate(4 80)">
<title>splashscreen.h</title>
<!-- Node2 -->
<g id="node1" class="node">
<title>Node2</title>
<polygon fill="#bfbfbf" stroke="#000000" points="64,-56.5 64,-75.5 144,-75.5 144,-56.5 64,-56.5"/>
<text text-anchor="middle" x="104" y="-63.5" font-family="FreeSans" font-size="10.00" fill="#000000">splashscreen.h</text>
</g>
<!-- Node3 -->
<g id="node2" class="node">
<title>Node3</title>
<g id="a_node2"><a xlink:href="app_8cpp" target="_top" xlink:title="app.cpp">
<polygon fill="none" stroke="#000000" points="0,-.5 0,-19.5 50,-19.5 50,-.5 0,-.5"/>
<text text-anchor="middle" x="25" y="-7.5" font-family="FreeSans" font-size="10.00" fill="#000000">app.cpp</text>
</a>
</g>
</g>
<!-- Node2&#45;&gt;Node3 -->
<g id="edge1" class="edge">
<title>Node2&#45;&gt;Node3</title>
<path fill="none" stroke="#191970" d="M81.7244,-50.2097C67.8495,-40.3743 50.4485,-28.0394 38.6031,-19.6427"/>
<polygon fill="#191970" stroke="#191970" points="80.0569,-53.3178 90.2393,-56.2455 84.1051,-47.6071 80.0569,-53.3178"/>
</g>
<!-- Node4 -->
<g id="node3" class="node">
<title>Node4</title>
<g id="a_node3"><a xlink:href="dlgabout_8cpp" target="_top" xlink:title="dlgabout.cpp">
<polygon fill="none" stroke="#000000" points="68.5,-.5 68.5,-19.5 139.5,-19.5 139.5,-.5 68.5,-.5"/>
<text text-anchor="middle" x="104" y="-7.5" font-family="FreeSans" font-size="10.00" fill="#000000">dlgabout.cpp</text>
</a>
</g>
</g>
<!-- Node2&#45;&gt;Node4 -->
<g id="edge2" class="edge">
<title>Node2&#45;&gt;Node4</title>
<path fill="none" stroke="#191970" d="M104,-46.1575C104,-37.155 104,-26.9199 104,-19.6427"/>
<polygon fill="#191970" stroke="#191970" points="100.5001,-46.2455 104,-56.2455 107.5001,-46.2456 100.5001,-46.2455"/>
</g>
<!-- Node5 -->
<g id="node4" class="node">
<title>Node5</title>
<g id="a_node4"><a xlink:href="splashscreen_8cpp" target="_top" xlink:title="splashscreen.cpp">
<polygon fill="none" stroke="#000000" points="158,-.5 158,-19.5 248,-19.5 248,-.5 158,-.5"/>
<text text-anchor="middle" x="203" y="-7.5" font-family="FreeSans" font-size="10.00" fill="#000000">splashscreen.cpp</text>
</a>
</g>
</g>
<!-- Node2&#45;&gt;Node5 -->
<g id="edge3" class="edge">
<title>Node2&#45;&gt;Node5</title>
<path fill="none" stroke="#191970" d="M130.4357,-51.0465C148.0508,-41.0824 170.6847,-28.2794 185.9531,-19.6427"/>
<polygon fill="#191970" stroke="#191970" points="128.2253,-48.2756 121.2445,-56.2455 131.6717,-54.3684 128.2253,-48.2756"/>
</g>
</g>
</svg>
