<?xml version="1.0" encoding="UTF-8" standalone="no"?>
<!DOCTYPE svg PUBLIC "-//W3C//DTD SVG 1.1//EN"
 "http://www.w3.org/Graphics/SVG/1.1/DTD/svg11.dtd">
<!-- Generated by graphviz version 2.38.0 (20140413.2041)
 -->
<!-- Title: BreakpointsDlg::Item Pages: 1 -->
<svg width="359pt" height="1203pt"
 viewBox="0.00 0.00 359.00 1203.00" xmlns="http://www.w3.org/2000/svg" xmlns:xlink="http://www.w3.org/1999/xlink">
<g id="graph0" class="graph" transform="scale(1 1) rotate(0) translate(4 1199)">
<title>BreakpointsDlg::Item</title>
<!-- Node1 -->
<g id="node1" class="node"><title>Node1</title>
<polygon fill="#bfbfbf" stroke="black" points="217,-0.5 217,-57.5 323,-57.5 323,-0.5 217,-0.5"/>
<text text-anchor="middle" x="270" y="-45.5" font-family="FreeSans" font-size="10.00">BreakpointsDlg::Item</text>
<polyline fill="none" stroke="black" points="217,-38.5 323,-38.5 "/>
<text text-anchor="start" x="225" y="-26.5" font-family="FreeSans" font-size="10.00">+ breakpoint</text>
<polyline fill="none" stroke="black" points="217,-19.5 323,-19.5 "/>
<text text-anchor="start" x="225" y="-7.5" font-family="FreeSans" font-size="10.00">+ Item()</text>
</g>
<!-- Node2 -->
<g id="node2" class="node"><title>Node2</title>
<g id="a_node2"><a xlink:href="classcbDebuggerPlugin" target="_top" xlink:title="Base class for debugger plugins. ">
<polygon fill="none" stroke="black" points="54.5,-105.5 54.5,-536.5 211.5,-536.5 211.5,-105.5 54.5,-105.5"/>
<text text-anchor="middle" x="133" y="-524.5" font-family="FreeSans" font-size="10.00">cbDebuggerPlugin</text>
<polyline fill="none" stroke="black" points="54.5,-517.5 211.5,-517.5 "/>
<text text-anchor="start" x="62.5" y="-505.5" font-family="FreeSans" font-size="10.00">&#45; m_WaitingCompilerToFinish</text>
<text text-anchor="start" x="62.5" y="-494.5" font-family="FreeSans" font-size="10.00">&#45; m_EditorHookId</text>
<text text-anchor="start" x="62.5" y="-483.5" font-family="FreeSans" font-size="10.00">&#45; m_StartType</text>
<text text-anchor="start" x="62.5" y="-472.5" font-family="FreeSans" font-size="10.00">&#45; m_DragInProgress</text>
<text text-anchor="start" x="62.5" y="-461.5" font-family="FreeSans" font-size="10.00">&#45; m_ActiveConfig</text>
<text text-anchor="start" x="62.5" y="-450.5" font-family="FreeSans" font-size="10.00">&#45; m_LogPageIndex</text>
<text text-anchor="start" x="62.5" y="-439.5" font-family="FreeSans" font-size="10.00">&#45; m_lastLineWasNormal</text>
<polyline fill="none" stroke="black" points="54.5,-432.5 211.5,-432.5 "/>
<text text-anchor="start" x="62.5" y="-420.5" font-family="FreeSans" font-size="10.00">+ cbDebuggerPlugin()</text>
<text text-anchor="start" x="62.5" y="-409.5" font-family="FreeSans" font-size="10.00">+ OnAttach()</text>
<text text-anchor="start" x="62.5" y="-398.5" font-family="FreeSans" font-size="10.00">+ OnRelease()</text>
<text text-anchor="start" x="62.5" y="-387.5" font-family="FreeSans" font-size="10.00">+ BuildMenu()</text>
<text text-anchor="start" x="62.5" y="-376.5" font-family="FreeSans" font-size="10.00">+ BuildModuleMenu()</text>
<text text-anchor="start" x="62.5" y="-365.5" font-family="FreeSans" font-size="10.00">+ BuildToolBar()</text>
<text text-anchor="start" x="62.5" y="-354.5" font-family="FreeSans" font-size="10.00">+ EditorLinesAddedOrRemoved()</text>
<text text-anchor="start" x="62.5" y="-343.5" font-family="FreeSans" font-size="10.00">+ OnAttachReal()</text>
<text text-anchor="start" x="62.5" y="-332.5" font-family="FreeSans" font-size="10.00">and 71 more...</text>
<text text-anchor="start" x="62.5" y="-321.5" font-family="FreeSans" font-size="10.00"># ConvertDirectory()</text>
<text text-anchor="start" x="62.5" y="-310.5" font-family="FreeSans" font-size="10.00"># GetProject()</text>
<text text-anchor="start" x="62.5" y="-299.5" font-family="FreeSans" font-size="10.00"># ResetProject()</text>
<text text-anchor="start" x="62.5" y="-288.5" font-family="FreeSans" font-size="10.00"># CleanupWhenProjectClosed()</text>
<text text-anchor="start" x="62.5" y="-277.5" font-family="FreeSans" font-size="10.00"># CompilerFinished()</text>
<text text-anchor="start" x="62.5" y="-266.5" font-family="FreeSans" font-size="10.00"># SwitchToDebuggingLayout()</text>
<text text-anchor="start" x="62.5" y="-255.5" font-family="FreeSans" font-size="10.00"># SwitchToPreviousLayout()</text>
<text text-anchor="start" x="62.5" y="-244.5" font-family="FreeSans" font-size="10.00"># GetDebuggee()</text>
<text text-anchor="start" x="62.5" y="-233.5" font-family="FreeSans" font-size="10.00"># EnsureBuildUpToDate()</text>
<text text-anchor="start" x="62.5" y="-222.5" font-family="FreeSans" font-size="10.00"># WaitingCompilerToFinish()</text>
<text text-anchor="start" x="62.5" y="-211.5" font-family="FreeSans" font-size="10.00"># RunNixConsole()</text>
<text text-anchor="start" x="62.5" y="-200.5" font-family="FreeSans" font-size="10.00"># MarkAsStopped()</text>
<text text-anchor="start" x="62.5" y="-189.5" font-family="FreeSans" font-size="10.00">&#45; RegisterValueTooltip()</text>
<text text-anchor="start" x="62.5" y="-178.5" font-family="FreeSans" font-size="10.00">&#45; ProcessValueTooltip()</text>
<text text-anchor="start" x="62.5" y="-167.5" font-family="FreeSans" font-size="10.00">&#45; CancelValueTooltip()</text>
<text text-anchor="start" x="62.5" y="-156.5" font-family="FreeSans" font-size="10.00">&#45; OnEditorOpened()</text>
<text text-anchor="start" x="62.5" y="-145.5" font-family="FreeSans" font-size="10.00">&#45; OnProjectActivated()</text>
<text text-anchor="start" x="62.5" y="-134.5" font-family="FreeSans" font-size="10.00">&#45; OnProjectClosed()</text>
<text text-anchor="start" x="62.5" y="-123.5" font-family="FreeSans" font-size="10.00">&#45; OnCompilerFinished()</text>
<text text-anchor="start" x="62.5" y="-112.5" font-family="FreeSans" font-size="10.00">&#45; OnEditorHook()</text>
</a>
</g>
</g>
<!-- Node2&#45;&gt;Node1 -->
<g id="edge1" class="edge"><title>Node2&#45;&gt;Node1</title>
<path fill="none" stroke="#404040" d="M211.573,-145.045C222.557,-121.714 233.891,-98.1951 245,-76 246.27,-73.4625 247.602,-70.8599 248.962,-68.2456"/>
<polygon fill="none" stroke="#404040" points="249.001,-68.1722 248.279,-60.9974 254.624,-57.5711 255.346,-64.746 249.001,-68.1722"/>
<text text-anchor="middle" x="262" y="-79" font-family="FreeSans" font-size="10.00"> +plugin</text>
</g>
<!-- Node3 -->
<g id="node3" class="node"><title>Node3</title>
<g id="a_node3"><a xlink:href="classcbPlugin" target="_top" xlink:title="Base class for plugins. ">
<polygon fill="none" stroke="black" points="0,-888.5 0,-1099.5 158,-1099.5 158,-888.5 0,-888.5"/>
<text text-anchor="middle" x="79" y="-1087.5" font-family="FreeSans" font-size="10.00">cbPlugin</text>
<polyline fill="none" stroke="black" points="0,-1080.5 158,-1080.5 "/>
<text text-anchor="start" x="8" y="-1068.5" font-family="FreeSans" font-size="10.00"># m_Type</text>
<text text-anchor="start" x="8" y="-1057.5" font-family="FreeSans" font-size="10.00"># m_IsAttached</text>
<polyline fill="none" stroke="black" points="0,-1050.5 158,-1050.5 "/>
<text text-anchor="start" x="8" y="-1038.5" font-family="FreeSans" font-size="10.00">+ cbPlugin()</text>
<text text-anchor="start" x="8" y="-1027.5" font-family="FreeSans" font-size="10.00">+ ~cbPlugin()</text>
<text text-anchor="start" x="8" y="-1016.5" font-family="FreeSans" font-size="10.00">+ GetType()</text>
<text text-anchor="start" x="8" y="-1005.5" font-family="FreeSans" font-size="10.00">+ GetConfigurationPriority()</text>
<text text-anchor="start" x="8" y="-994.5" font-family="FreeSans" font-size="10.00">+ GetConfigurationGroup()</text>
<text text-anchor="start" x="8" y="-983.5" font-family="FreeSans" font-size="10.00">+ GetConfigurationPanel()</text>
<text text-anchor="start" x="8" y="-972.5" font-family="FreeSans" font-size="10.00">+ GetProjectConfigurationPanel()</text>
<text text-anchor="start" x="8" y="-961.5" font-family="FreeSans" font-size="10.00">+ BuildMenu()</text>
<text text-anchor="start" x="8" y="-950.5" font-family="FreeSans" font-size="10.00">and 6 more...</text>
<text text-anchor="start" x="8" y="-939.5" font-family="FreeSans" font-size="10.00"># OnAttach()</text>
<text text-anchor="start" x="8" y="-928.5" font-family="FreeSans" font-size="10.00"># OnRelease()</text>
<text text-anchor="start" x="8" y="-917.5" font-family="FreeSans" font-size="10.00"># NotImplemented()</text>
<text text-anchor="start" x="8" y="-906.5" font-family="FreeSans" font-size="10.00">&#45; Attach()</text>
<text text-anchor="start" x="8" y="-895.5" font-family="FreeSans" font-size="10.00">&#45; Release()</text>
</a>
</g>
</g>
<!-- Node3&#45;&gt;Node2 -->
<g id="edge2" class="edge"><title>Node3&#45;&gt;Node2</title>
<path fill="none" stroke="midnightblue" d="M72.8607,-878.304C72.5143,-869.068 72.2187,-859.879 72,-851 69.3186,-742.144 60.5024,-714.28 72,-606 74.3962,-583.433 77.8348,-560.025 81.8754,-536.768"/>
<polygon fill="none" stroke="midnightblue" points="69.3647,-878.477 73.2554,-888.331 76.3593,-878.201 69.3647,-878.477"/>
</g>
<!-- Node7 -->
<g id="node5" class="node"><title>Node7</title>
<g id="a_node5"><a xlink:href="classcbCompilerPlugin" target="_top" xlink:title="Base class for compiler plugins. ">
<polygon fill="none" stroke="black" points="81.5,-656 81.5,-801 188.5,-801 188.5,-656 81.5,-656"/>
<text text-anchor="middle" x="135" y="-789" font-family="FreeSans" font-size="10.00">cbCompilerPlugin</text>
<polyline fill="none" stroke="black" points="81.5,-782 188.5,-782 "/>
<text text-anchor="middle" x="135" y="-770" font-family="FreeSans" font-size="10.00"> </text>
<polyline fill="none" stroke="black" points="81.5,-763 188.5,-763 "/>
<text text-anchor="start" x="89.5" y="-751" font-family="FreeSans" font-size="10.00">+ cbCompilerPlugin()</text>
<text text-anchor="start" x="89.5" y="-740" font-family="FreeSans" font-size="10.00">+ Run()</text>
<text text-anchor="start" x="89.5" y="-729" font-family="FreeSans" font-size="10.00">+ Run()</text>
<text text-anchor="start" x="89.5" y="-718" font-family="FreeSans" font-size="10.00">+ Clean()</text>
<text text-anchor="start" x="89.5" y="-707" font-family="FreeSans" font-size="10.00">+ Clean()</text>
<text text-anchor="start" x="89.5" y="-696" font-family="FreeSans" font-size="10.00">+ DistClean()</text>
<text text-anchor="start" x="89.5" y="-685" font-family="FreeSans" font-size="10.00">+ DistClean()</text>
<text text-anchor="start" x="89.5" y="-674" font-family="FreeSans" font-size="10.00">+ Build()</text>
<text text-anchor="start" x="89.5" y="-663" font-family="FreeSans" font-size="10.00">and 11 more...</text>
</a>
</g>
</g>
<!-- Node3&#45;&gt;Node7 -->
<g id="edge5" class="edge"><title>Node3&#45;&gt;Node7</title>
<path fill="none" stroke="midnightblue" d="M103.344,-878.454C108.933,-852.155 114.72,-824.925 119.793,-801.054"/>
<polygon fill="none" stroke="midnightblue" points="99.8685,-877.97 101.213,-888.479 106.716,-879.425 99.8685,-877.97"/>
</g>
<!-- Node4 -->
<g id="node4" class="node"><title>Node4</title>
<g id="a_node4"><a doxygen="/media/alpha/Barracuda/cb_docs/src/wxTagFile.xml:http://docs.wxwidgets.org/3.0/" xlink:href="http://docs.wxwidgets.org/3.0/classwx_evt_handler.html" target="_top" xlink:title="{wxEvtHandler\n||}">
<polygon fill="none" stroke="red" points="42,-1137.5 42,-1194.5 116,-1194.5 116,-1137.5 42,-1137.5"/>
<text text-anchor="middle" x="79" y="-1182.5" font-family="FreeSans" font-size="10.00">wxEvtHandler</text>
<polyline fill="none" stroke="red" points="42,-1175.5 116,-1175.5 "/>
<text text-anchor="middle" x="79" y="-1163.5" font-family="FreeSans" font-size="10.00"> </text>
<polyline fill="none" stroke="red" points="42,-1156.5 116,-1156.5 "/>
<text text-anchor="middle" x="79" y="-1144.5" font-family="FreeSans" font-size="10.00"> </text>
</a>
</g>
</g>
<!-- Node4&#45;&gt;Node3 -->
<g id="edge3" class="edge"><title>Node4&#45;&gt;Node3</title>
<path fill="none" stroke="midnightblue" d="M79,-1127.19C79,-1118.8 79,-1109.5 79,-1099.84"/>
<polygon fill="none" stroke="midnightblue" points="75.5001,-1127.31 79,-1137.31 82.5001,-1127.31 75.5001,-1127.31"/>
</g>
<!-- Node7&#45;&gt;Node2 -->
<g id="edge4" class="edge"><title>Node7&#45;&gt;Node2</title>
<path fill="none" stroke="#404040" d="M120.25,-655.759C116.446,-634.085 112.892,-610.159 111,-588 109.906,-575.186 109.307,-562.024 109.11,-548.74"/>
<polygon fill="none" stroke="#404040" points="109.109,-548.512 105.074,-542.536 109.039,-536.513 113.074,-542.489 109.109,-548.512"/>
<text text-anchor="middle" x="142.5" y="-569" font-family="FreeSans" font-size="10.00"> &#45;m_pCompiler</text>
</g>
<!-- Node8 -->
<g id="node6" class="node"><title>Node8</title>
<g id="a_node6"><a doxygen="/media/alpha/Barracuda/cb_docs/src/wxTagFile.xml:http://docs.wxwidgets.org/3.0/" xlink:href="http://docs.wxwidgets.org/3.0/classwx_string.html" target="_top" xlink:title="{wxString\n|+ npos\l|+ wxString()\l+ wxString()\l+ wxString()\l+ wxString()\l+ wxString()\l+ wxString()\l+ wxString()\l+ wxString()\land 222 more...\l+ Format()\l+ FormatV()\l+ FromCDouble()\l+ FromDouble()\l+ From8BitData()\l+ From8BitData()\l+ FromAscii()\l+ FromAscii()\land 7 more...\l}">
<polygon fill="none" stroke="black" points="226.5,-606.5 226.5,-850.5 317.5,-850.5 317.5,-606.5 226.5,-606.5"/>
<text text-anchor="middle" x="272" y="-838.5" font-family="FreeSans" font-size="10.00">wxString</text>
<polyline fill="none" stroke="black" points="226.5,-831.5 317.5,-831.5 "/>
<text text-anchor="start" x="234.5" y="-819.5" font-family="FreeSans" font-size="10.00">+ npos</text>
<polyline fill="none" stroke="black" points="226.5,-812.5 317.5,-812.5 "/>
<text text-anchor="start" x="234.5" y="-800.5" font-family="FreeSans" font-size="10.00">+ wxString()</text>
<text text-anchor="start" x="234.5" y="-789.5" font-family="FreeSans" font-size="10.00">+ wxString()</text>
<text text-anchor="start" x="234.5" y="-778.5" font-family="FreeSans" font-size="10.00">+ wxString()</text>
<text text-anchor="start" x="234.5" y="-767.5" font-family="FreeSans" font-size="10.00">+ wxString()</text>
<text text-anchor="start" x="234.5" y="-756.5" font-family="FreeSans" font-size="10.00">+ wxString()</text>
<text text-anchor="start" x="234.5" y="-745.5" font-family="FreeSans" font-size="10.00">+ wxString()</text>
<text text-anchor="start" x="234.5" y="-734.5" font-family="FreeSans" font-size="10.00">+ wxString()</text>
<text text-anchor="start" x="234.5" y="-723.5" font-family="FreeSans" font-size="10.00">+ wxString()</text>
<text text-anchor="start" x="234.5" y="-712.5" font-family="FreeSans" font-size="10.00">and 222 more...</text>
<text text-anchor="start" x="234.5" y="-701.5" font-family="FreeSans" font-size="10.00">+ Format()</text>
<text text-anchor="start" x="234.5" y="-690.5" font-family="FreeSans" font-size="10.00">+ FormatV()</text>
<text text-anchor="start" x="234.5" y="-679.5" font-family="FreeSans" font-size="10.00">+ FromCDouble()</text>
<text text-anchor="start" x="234.5" y="-668.5" font-family="FreeSans" font-size="10.00">+ FromDouble()</text>
<text text-anchor="start" x="234.5" y="-657.5" font-family="FreeSans" font-size="10.00">+ From8BitData()</text>
<text text-anchor="start" x="234.5" y="-646.5" font-family="FreeSans" font-size="10.00">+ From8BitData()</text>
<text text-anchor="start" x="234.5" y="-635.5" font-family="FreeSans" font-size="10.00">+ FromAscii()</text>
<text text-anchor="start" x="234.5" y="-624.5" font-family="FreeSans" font-size="10.00">+ FromAscii()</text>
<text text-anchor="start" x="234.5" y="-613.5" font-family="FreeSans" font-size="10.00">and 7 more...</text>
</a>
</g>
</g>
<!-- Node8&#45;&gt;Node1 -->
<g id="edge7" class="edge"><title>Node8&#45;&gt;Node1</title>
<path fill="none" stroke="#404040" d="M278.455,-606.159C278.667,-600.019 278.851,-593.939 279,-588 284.704,-360.516 300.949,-302.495 279,-76 278.8,-73.9397 278.551,-71.8346 278.265,-69.7141"/>
<polygon fill="none" stroke="#404040" points="278.222,-69.4478 273.312,-64.1667 276.298,-57.603 281.208,-62.884 278.222,-69.4478"/>
<text text-anchor="middle" x="321" y="-318.5" font-family="FreeSans" font-size="10.00"> +pluginName</text>
</g>
<!-- Node8&#45;&gt;Node2 -->
<g id="edge6" class="edge"><title>Node8&#45;&gt;Node2</title>
<path fill="none" stroke="#404040" d="M226.497,-651.329C215.757,-631.214 205.091,-609.193 197,-588 192.07,-575.086 187.433,-561.671 183.088,-548.036"/>
<polygon fill="none" stroke="#404040" points="183.075,-547.993 177.471,-543.454 179.506,-536.536 185.109,-541.075 183.075,-547.993"/>
<text text-anchor="middle" x="238" y="-580" font-family="FreeSans" font-size="10.00"> &#45;m_guiName</text>
<text text-anchor="middle" x="238" y="-569" font-family="FreeSans" font-size="10.00">&#45;m_PreviousLayout</text>
<text text-anchor="middle" x="238" y="-558" font-family="FreeSans" font-size="10.00">&#45;m_settingsName</text>
</g>
</g>
</svg>
