<?xml version="1.0" encoding="UTF-8" standalone="no"?>
<!DOCTYPE svg PUBLIC "-//W3C//DTD SVG 1.1//EN"
 "http://www.w3.org/Graphics/SVG/1.1/DTD/svg11.dtd">
<!-- Generated by graphviz version 2.38.0 (20140413.2041)
 -->
<!-- Title: ScriptedType Pages: 1 -->
<svg width="216pt" height="402pt"
 viewBox="0.00 0.00 216.00 402.00" xmlns="http://www.w3.org/2000/svg" xmlns:xlink="http://www.w3.org/1999/xlink">
<g id="graph0" class="graph" transform="scale(1 1) rotate(0) translate(4 398)">
<title>ScriptedType</title>
<!-- Node1 -->
<g id="node1" class="node"><title>Node1</title>
<polygon fill="#bfbfbf" stroke="black" points="61.5,-0.5 61.5,-68.5 149.5,-68.5 149.5,-0.5 61.5,-0.5"/>
<text text-anchor="middle" x="105.5" y="-56.5" font-family="FreeSans" font-size="10.00">ScriptedType</text>
<polyline fill="none" stroke="black" points="61.5,-49.5 149.5,-49.5 "/>
<text text-anchor="middle" x="105.5" y="-37.5" font-family="FreeSans" font-size="10.00"> </text>
<polyline fill="none" stroke="black" points="61.5,-30.5 149.5,-30.5 "/>
<text text-anchor="start" x="69.5" y="-18.5" font-family="FreeSans" font-size="10.00">+ ScriptedType()</text>
<text text-anchor="start" x="69.5" y="-7.5" font-family="FreeSans" font-size="10.00">+ ScriptedType()</text>
</g>
<!-- Node2 -->
<g id="node2" class="node"><title>Node2</title>
<g id="a_node2"><a doxygen="/media/alpha/Barracuda/cb_docs/src/wxTagFile.xml:http://docs.wxwidgets.org/3.0/" xlink:href="http://docs.wxwidgets.org/3.0/classwx_reg_ex.html" target="_top" xlink:title="{wxRegEx\n||+ wxRegEx()\l+ wxRegEx()\l+ ~wxRegEx()\l+ Compile()\l+ GetMatch()\l+ GetMatch()\l+ GetMatchCount()\l+ IsValid()\land 6 more...\l}">
<polygon fill="none" stroke="black" points="0,-199 0,-344 99,-344 99,-199 0,-199"/>
<text text-anchor="middle" x="49.5" y="-332" font-family="FreeSans" font-size="10.00">wxRegEx</text>
<polyline fill="none" stroke="black" points="0,-325 99,-325 "/>
<text text-anchor="middle" x="49.5" y="-313" font-family="FreeSans" font-size="10.00"> </text>
<polyline fill="none" stroke="black" points="0,-306 99,-306 "/>
<text text-anchor="start" x="8" y="-294" font-family="FreeSans" font-size="10.00">+ wxRegEx()</text>
<text text-anchor="start" x="8" y="-283" font-family="FreeSans" font-size="10.00">+ wxRegEx()</text>
<text text-anchor="start" x="8" y="-272" font-family="FreeSans" font-size="10.00">+ ~wxRegEx()</text>
<text text-anchor="start" x="8" y="-261" font-family="FreeSans" font-size="10.00">+ Compile()</text>
<text text-anchor="start" x="8" y="-250" font-family="FreeSans" font-size="10.00">+ GetMatch()</text>
<text text-anchor="start" x="8" y="-239" font-family="FreeSans" font-size="10.00">+ GetMatch()</text>
<text text-anchor="start" x="8" y="-228" font-family="FreeSans" font-size="10.00">+ GetMatchCount()</text>
<text text-anchor="start" x="8" y="-217" font-family="FreeSans" font-size="10.00">+ IsValid()</text>
<text text-anchor="start" x="8" y="-206" font-family="FreeSans" font-size="10.00">and 6 more...</text>
</a>
</g>
</g>
<!-- Node2&#45;&gt;Node1 -->
<g id="edge1" class="edge"><title>Node2&#45;&gt;Node1</title>
<path fill="none" stroke="#404040" d="M66.6061,-198.715C75.8019,-160.126 86.8548,-113.743 94.8238,-80.3019"/>
<polygon fill="none" stroke="#404040" points="94.8293,-80.2785 92.3291,-73.5147 97.6111,-68.6054 100.111,-75.3692 94.8293,-80.2785"/>
<text text-anchor="middle" x="108.5" y="-106.5" font-family="FreeSans" font-size="10.00"> +regex</text>
</g>
<!-- Node3 -->
<g id="node3" class="node"><title>Node3</title>
<g id="a_node3"><a doxygen="/media/alpha/Barracuda/cb_docs/src/wxTagFile.xml:http://docs.wxwidgets.org/3.0/" xlink:href="http://docs.wxwidgets.org/3.0/classwx_string.html" target="_top" xlink:title="{wxString\n|+ npos\l|+ wxString()\l+ wxString()\l+ wxString()\l+ wxString()\l+ wxString()\l+ wxString()\l+ wxString()\l+ wxString()\land 222 more...\l+ Format()\l+ FormatV()\l+ FromCDouble()\l+ FromDouble()\l+ From8BitData()\l+ From8BitData()\l+ FromAscii()\l+ FromAscii()\land 7 more...\l}">
<polygon fill="none" stroke="black" points="117,-149.5 117,-393.5 208,-393.5 208,-149.5 117,-149.5"/>
<text text-anchor="middle" x="162.5" y="-381.5" font-family="FreeSans" font-size="10.00">wxString</text>
<polyline fill="none" stroke="black" points="117,-374.5 208,-374.5 "/>
<text text-anchor="start" x="125" y="-362.5" font-family="FreeSans" font-size="10.00">+ npos</text>
<polyline fill="none" stroke="black" points="117,-355.5 208,-355.5 "/>
<text text-anchor="start" x="125" y="-343.5" font-family="FreeSans" font-size="10.00">+ wxString()</text>
<text text-anchor="start" x="125" y="-332.5" font-family="FreeSans" font-size="10.00">+ wxString()</text>
<text text-anchor="start" x="125" y="-321.5" font-family="FreeSans" font-size="10.00">+ wxString()</text>
<text text-anchor="start" x="125" y="-310.5" font-family="FreeSans" font-size="10.00">+ wxString()</text>
<text text-anchor="start" x="125" y="-299.5" font-family="FreeSans" font-size="10.00">+ wxString()</text>
<text text-anchor="start" x="125" y="-288.5" font-family="FreeSans" font-size="10.00">+ wxString()</text>
<text text-anchor="start" x="125" y="-277.5" font-family="FreeSans" font-size="10.00">+ wxString()</text>
<text text-anchor="start" x="125" y="-266.5" font-family="FreeSans" font-size="10.00">+ wxString()</text>
<text text-anchor="start" x="125" y="-255.5" font-family="FreeSans" font-size="10.00">and 222 more...</text>
<text text-anchor="start" x="125" y="-244.5" font-family="FreeSans" font-size="10.00">+ Format()</text>
<text text-anchor="start" x="125" y="-233.5" font-family="FreeSans" font-size="10.00">+ FormatV()</text>
<text text-anchor="start" x="125" y="-222.5" font-family="FreeSans" font-size="10.00">+ FromCDouble()</text>
<text text-anchor="start" x="125" y="-211.5" font-family="FreeSans" font-size="10.00">+ FromDouble()</text>
<text text-anchor="start" x="125" y="-200.5" font-family="FreeSans" font-size="10.00">+ From8BitData()</text>
<text text-anchor="start" x="125" y="-189.5" font-family="FreeSans" font-size="10.00">+ From8BitData()</text>
<text text-anchor="start" x="125" y="-178.5" font-family="FreeSans" font-size="10.00">+ FromAscii()</text>
<text text-anchor="start" x="125" y="-167.5" font-family="FreeSans" font-size="10.00">+ FromAscii()</text>
<text text-anchor="start" x="125" y="-156.5" font-family="FreeSans" font-size="10.00">and 7 more...</text>
</a>
</g>
</g>
<!-- Node3&#45;&gt;Node1 -->
<g id="edge2" class="edge"><title>Node3&#45;&gt;Node1</title>
<path fill="none" stroke="#404040" d="M144.207,-149.084C139.865,-128.169 134.66,-106.8 128.5,-87 127.761,-84.626 126.943,-82.2162 126.068,-79.8013"/>
<polygon fill="none" stroke="#404040" points="126.045,-79.7416 120.124,-75.6248 121.647,-68.5763 127.568,-72.6931 126.045,-79.7416"/>
<text text-anchor="middle" x="165.5" y="-123" font-family="FreeSans" font-size="10.00"> +eval_func</text>
<text text-anchor="middle" x="165.5" y="-112" font-family="FreeSans" font-size="10.00">+name</text>
<text text-anchor="middle" x="165.5" y="-101" font-family="FreeSans" font-size="10.00">+parse_func</text>
<text text-anchor="middle" x="165.5" y="-90" font-family="FreeSans" font-size="10.00">+regex_str</text>
</g>
</g>
</svg>
