<?xml version="1.0" encoding="UTF-8" standalone="no"?>
<!DOCTYPE svg PUBLIC "-//W3C//DTD SVG 1.1//EN"
 "http://www.w3.org/Graphics/SVG/1.1/DTD/svg11.dtd">
<!-- Generated by graphviz version 2.40.1 (20161225.0304)
 -->
<!-- Title: VariableListClientData Pages: 1 -->
<svg width="133pt" height="182pt"
 viewBox="0.00 0.00 133.00 182.00" xmlns="http://www.w3.org/2000/svg" xmlns:xlink="http://www.w3.org/1999/xlink">
<g id="graph0" class="graph" transform="scale(1 1) rotate(0) translate(4 178)">
<title>VariableListClientData</title>
<!-- Node0 -->
<g id="node1" class="node">
<title>Node0</title>
<polygon fill="#bfbfbf" stroke="#000000" points="0,-.5 0,-68.5 125,-68.5 125,-.5 0,-.5"/>
<text text-anchor="middle" x="62.5" y="-56.5" font-family="FreeSans" font-size="10.00" fill="#000000">VariableListClientData</text>
<polyline fill="none" stroke="#000000" points="0,-49.5 125,-49.5 "/>
<text text-anchor="start" x="8" y="-37.5" font-family="FreeSans" font-size="10.00" fill="#000000">+ key</text>
<text text-anchor="start" x="8" y="-26.5" font-family="FreeSans" font-size="10.00" fill="#000000">+ value</text>
<polyline fill="none" stroke="#000000" points="0,-19.5 125,-19.5 "/>
<text text-anchor="start" x="8" y="-7.5" font-family="FreeSans" font-size="10.00" fill="#000000">+ VariableListClientData()</text>
</g>
<!-- Node1 -->
<g id="node2" class="node">
<title>Node1</title>
<g id="a_node2"><a doxygen="/media/alpha/Barracuda/cb_docs/src/wxTagFile.xml:http://docs.wxwidgets.org/3.0/" xlink:href="http://docs.wxwidgets.org/3.0/classwx_client_data.html" target="_top" xlink:title="{wxClientData\n||+ wxClientData()\l+ ~wxClientData()\l}">
<polygon fill="none" stroke="#000000" points="16.5,-105.5 16.5,-173.5 108.5,-173.5 108.5,-105.5 16.5,-105.5"/>
<text text-anchor="middle" x="62.5" y="-161.5" font-family="FreeSans" font-size="10.00" fill="#000000">wxClientData</text>
<polyline fill="none" stroke="#000000" points="16.5,-154.5 108.5,-154.5 "/>
<text text-anchor="middle" x="62.5" y="-142.5" font-family="FreeSans" font-size="10.00" fill="#000000"> </text>
<polyline fill="none" stroke="#000000" points="16.5,-135.5 108.5,-135.5 "/>
<text text-anchor="start" x="24.5" y="-123.5" font-family="FreeSans" font-size="10.00" fill="#000000">+ wxClientData()</text>
<text text-anchor="start" x="24.5" y="-112.5" font-family="FreeSans" font-size="10.00" fill="#000000">+ ~wxClientData()</text>
</a>
</g>
</g>
<!-- Node1&#45;&gt;Node0 -->
<g id="edge1" class="edge">
<title>Node1&#45;&gt;Node0</title>
<path fill="none" stroke="#191970" d="M62.5,-95.2353C62.5,-86.3902 62.5,-77.2253 62.5,-68.7788"/>
<polygon fill="none" stroke="#191970" points="59.0001,-95.4095 62.5,-105.4095 66.0001,-95.4095 59.0001,-95.4095"/>
</g>
</g>
</svg>
