<?xml version="1.0" encoding="UTF-8" standalone="no"?>
<!DOCTYPE svg PUBLIC "-//W3C//DTD SVG 1.1//EN"
 "http://www.w3.org/Graphics/SVG/1.1/DTD/svg11.dtd">
<!-- Generated by graphviz version 2.38.0 (20140413.2041)
 -->
<!-- Title: PluginElement Pages: 1 -->
<svg width="270pt" height="497pt"
 viewBox="0.00 0.00 270.00 497.00" xmlns="http://www.w3.org/2000/svg" xmlns:xlink="http://www.w3.org/1999/xlink">
<g id="graph0" class="graph" transform="scale(1 1) rotate(0) translate(4 493)">
<title>PluginElement</title>
<polygon fill="white" stroke="none" points="-4,4 -4,-493 266,-493 266,4 -4,4"/>
<!-- Node1 -->
<g id="node1" class="node"><title>Node1</title>
<polygon fill="#bfbfbf" stroke="black" points="50.5,-0.5 50.5,-68.5 129.5,-68.5 129.5,-0.5 50.5,-0.5"/>
<text text-anchor="middle" x="90" y="-56.5" font-family="FreeSans" font-size="10.00">PluginElement</text>
<polyline fill="none" stroke="black" points="50.5,-49.5 129.5,-49.5 "/>
<text text-anchor="start" x="58.5" y="-37.5" font-family="FreeSans" font-size="10.00">+ fileName</text>
<text text-anchor="start" x="58.5" y="-26.5" font-family="FreeSans" font-size="10.00">+ library</text>
<polyline fill="none" stroke="black" points="50.5,-19.5 129.5,-19.5 "/>
<text text-anchor="middle" x="90" y="-7.5" font-family="FreeSans" font-size="10.00"> </text>
</g>
<!-- Node2 -->
<g id="node2" class="node"><title>Node2</title>
<g id="a_node2"><a xlink:href="pluginmanager_8h.xhtml#structPluginInfo" target="_top" xlink:title="{PluginInfo\n|+ name\l+ title\l+ version\l+ description\l+ author\l+ authorEmail\l+ authorWebsite\l+ thanksTo\l+ license\l|}">
<polygon fill="white" stroke="black" points="0,-188 0,-333 86,-333 86,-188 0,-188"/>
<text text-anchor="middle" x="43" y="-321" font-family="FreeSans" font-size="10.00">PluginInfo</text>
<polyline fill="none" stroke="black" points="0,-314 86,-314 "/>
<text text-anchor="start" x="8" y="-302" font-family="FreeSans" font-size="10.00">+ name</text>
<text text-anchor="start" x="8" y="-291" font-family="FreeSans" font-size="10.00">+ title</text>
<text text-anchor="start" x="8" y="-280" font-family="FreeSans" font-size="10.00">+ version</text>
<text text-anchor="start" x="8" y="-269" font-family="FreeSans" font-size="10.00">+ description</text>
<text text-anchor="start" x="8" y="-258" font-family="FreeSans" font-size="10.00">+ author</text>
<text text-anchor="start" x="8" y="-247" font-family="FreeSans" font-size="10.00">+ authorEmail</text>
<text text-anchor="start" x="8" y="-236" font-family="FreeSans" font-size="10.00">+ authorWebsite</text>
<text text-anchor="start" x="8" y="-225" font-family="FreeSans" font-size="10.00">+ thanksTo</text>
<text text-anchor="start" x="8" y="-214" font-family="FreeSans" font-size="10.00">+ license</text>
<polyline fill="none" stroke="black" points="0,-207 86,-207 "/>
<text text-anchor="middle" x="43" y="-195" font-family="FreeSans" font-size="10.00"> </text>
</a>
</g>
</g>
<!-- Node2&#45;&gt;Node1 -->
<g id="edge1" class="edge"><title>Node2&#45;&gt;Node1</title>
<path fill="none" stroke="#404040" d="M58.065,-187.701C65.4279,-152.61 74.0644,-111.448 80.4983,-80.7848"/>
<polygon fill="none" stroke="#404040" points="80.5588,-80.4959 77.8762,-73.8024 83.0231,-68.7517 85.7057,-75.4452 80.5588,-80.4959"/>
<text text-anchor="middle" x="90.5" y="-95.5" font-family="FreeSans" font-size="10.00"> +info</text>
</g>
<!-- Node3 -->
<g id="node3" class="node"><title>Node3</title>
<g id="a_node3"><a xlink:href="classcbPlugin.xhtml" target="_top" xlink:title="Base class for plugins This is the most basic class a plugin must descend from. cbPlugin descends fro...">
<polygon fill="white" stroke="black" points="104,-127.5 104,-393.5 262,-393.5 262,-127.5 104,-127.5"/>
<text text-anchor="middle" x="183" y="-381.5" font-family="FreeSans" font-size="10.00">cbPlugin</text>
<polyline fill="none" stroke="black" points="104,-374.5 262,-374.5 "/>
<text text-anchor="start" x="112" y="-362.5" font-family="FreeSans" font-size="10.00"># m_Type</text>
<text text-anchor="start" x="112" y="-351.5" font-family="FreeSans" font-size="10.00"># m_IsAttached</text>
<polyline fill="none" stroke="black" points="104,-344.5 262,-344.5 "/>
<text text-anchor="start" x="112" y="-332.5" font-family="FreeSans" font-size="10.00">+ cbPlugin()</text>
<text text-anchor="start" x="112" y="-321.5" font-family="FreeSans" font-size="10.00">+ ~cbPlugin()</text>
<text text-anchor="start" x="112" y="-310.5" font-family="FreeSans" font-size="10.00">+ GetType()</text>
<text text-anchor="start" x="112" y="-299.5" font-family="FreeSans" font-size="10.00">+ GetConfigurationPriority()</text>
<text text-anchor="start" x="112" y="-288.5" font-family="FreeSans" font-size="10.00">+ GetConfigurationGroup()</text>
<text text-anchor="start" x="112" y="-277.5" font-family="FreeSans" font-size="10.00">+ GetConfigurationPanel()</text>
<text text-anchor="start" x="112" y="-266.5" font-family="FreeSans" font-size="10.00">+ GetProjectConfigurationPanel()</text>
<text text-anchor="start" x="112" y="-255.5" font-family="FreeSans" font-size="10.00">+ BuildMenu()</text>
<text text-anchor="start" x="112" y="-244.5" font-family="FreeSans" font-size="10.00">+ BuildModuleMenu()</text>
<text text-anchor="start" x="112" y="-233.5" font-family="FreeSans" font-size="10.00">+ BuildToolBar()</text>
<text text-anchor="start" x="112" y="-222.5" font-family="FreeSans" font-size="10.00">+ GetToolBarPriority()</text>
<text text-anchor="start" x="112" y="-211.5" font-family="FreeSans" font-size="10.00">+ CreateStatusField()</text>
<text text-anchor="start" x="112" y="-200.5" font-family="FreeSans" font-size="10.00">+ IsAttached()</text>
<text text-anchor="start" x="112" y="-189.5" font-family="FreeSans" font-size="10.00">+ CanDetach()</text>
<text text-anchor="start" x="112" y="-178.5" font-family="FreeSans" font-size="10.00"># OnAttach()</text>
<text text-anchor="start" x="112" y="-167.5" font-family="FreeSans" font-size="10.00"># OnRelease()</text>
<text text-anchor="start" x="112" y="-156.5" font-family="FreeSans" font-size="10.00"># NotImplemented()</text>
<text text-anchor="start" x="112" y="-145.5" font-family="FreeSans" font-size="10.00">&#45; Attach()</text>
<text text-anchor="start" x="112" y="-134.5" font-family="FreeSans" font-size="10.00">&#45; Release()</text>
</a>
</g>
</g>
<!-- Node3&#45;&gt;Node1 -->
<g id="edge2" class="edge"><title>Node3&#45;&gt;Node1</title>
<path fill="none" stroke="#404040" d="M128.095,-127.256C121.029,-110.236 114.23,-93.8606 108.382,-79.7743"/>
<polygon fill="none" stroke="#404040" points="108.309,-79.599 102.314,-75.5914 103.708,-68.5162 109.703,-72.5238 108.309,-79.599"/>
<text text-anchor="middle" x="141.5" y="-101" font-family="FreeSans" font-size="10.00"> +plugin</text>
<text text-anchor="middle" x="141.5" y="-90" font-family="FreeSans" font-size="10.00">+freeProc</text>
</g>
<!-- Node4 -->
<g id="node4" class="node"><title>Node4</title>
<polygon fill="white" stroke="#bfbfbf" points="146,-431.5 146,-488.5 220,-488.5 220,-431.5 146,-431.5"/>
<text text-anchor="middle" x="183" y="-476.5" font-family="FreeSans" font-size="10.00">wxEvtHandler</text>
<polyline fill="none" stroke="#bfbfbf" points="146,-469.5 220,-469.5 "/>
<text text-anchor="middle" x="183" y="-457.5" font-family="FreeSans" font-size="10.00"> </text>
<polyline fill="none" stroke="#bfbfbf" points="146,-450.5 220,-450.5 "/>
<text text-anchor="middle" x="183" y="-438.5" font-family="FreeSans" font-size="10.00"> </text>
</g>
<!-- Node4&#45;&gt;Node3 -->
<g id="edge3" class="edge"><title>Node4&#45;&gt;Node3</title>
<path fill="none" stroke="midnightblue" d="M183,-421.074C183,-412.711 183,-403.396 183,-393.583"/>
<polygon fill="none" stroke="midnightblue" points="179.5,-421.122 183,-431.122 186.5,-421.122 179.5,-421.122"/>
</g>
</g>
</svg>
