<?xml version="1.0" encoding="UTF-8" standalone="no"?>
<!DOCTYPE svg PUBLIC "-//W3C//DTD SVG 1.1//EN"
 "http://www.w3.org/Graphics/SVG/1.1/DTD/svg11.dtd">
<!-- Generated by graphviz version 2.40.1 (20161225.0304)
 -->
<!-- Title: EditorBaseInternalData Pages: 1 -->
<svg width="330pt" height="684pt"
 viewBox="0.00 0.00 329.50 684.00" xmlns="http://www.w3.org/2000/svg" xmlns:xlink="http://www.w3.org/1999/xlink">
<g id="graph0" class="graph" transform="scale(1 1) rotate(0) translate(4 680)">
<title>EditorBaseInternalData</title>
<!-- Node1 -->
<g id="node1" class="node">
<title>Node1</title>
<polygon fill="#bfbfbf" stroke="#000000" points="0,-424.5 0,-492.5 134,-492.5 134,-424.5 0,-424.5"/>
<text text-anchor="middle" x="67" y="-480.5" font-family="FreeSans" font-size="10.00" fill="#000000">EditorBaseInternalData</text>
<polyline fill="none" stroke="#000000" points="0,-473.5 134,-473.5 "/>
<text text-anchor="start" x="8" y="-461.5" font-family="FreeSans" font-size="10.00" fill="#000000">+ m_DisplayingPopupMenu</text>
<text text-anchor="start" x="8" y="-450.5" font-family="FreeSans" font-size="10.00" fill="#000000">+ m_CloseMe</text>
<polyline fill="none" stroke="#000000" points="0,-443.5 134,-443.5 "/>
<text text-anchor="start" x="8" y="-431.5" font-family="FreeSans" font-size="10.00" fill="#000000">+ EditorBaseInternalData()</text>
</g>
<!-- Node2 -->
<g id="node2" class="node">
<title>Node2</title>
<g id="a_node2"><a xlink:href="classEditorBase" target="_top" xlink:title="Base class that all &quot;editors&quot; should inherit from. ">
<polygon fill="none" stroke="#000000" points="83,-.5 83,-255.5 233,-255.5 233,-.5 83,-.5"/>
<text text-anchor="middle" x="158" y="-243.5" font-family="FreeSans" font-size="10.00" fill="#000000">EditorBase</text>
<polyline fill="none" stroke="#000000" points="83,-236.5 233,-236.5 "/>
<text text-anchor="start" x="91" y="-224.5" font-family="FreeSans" font-size="10.00" fill="#000000"># m_IsBuiltinEditor</text>
<text text-anchor="start" x="91" y="-213.5" font-family="FreeSans" font-size="10.00" fill="#000000">&#45; m_SwitchTo</text>
<polyline fill="none" stroke="#000000" points="83,-206.5 233,-206.5 "/>
<text text-anchor="start" x="91" y="-194.5" font-family="FreeSans" font-size="10.00" fill="#000000">+ EditorBase()</text>
<text text-anchor="start" x="91" y="-183.5" font-family="FreeSans" font-size="10.00" fill="#000000">+ ~EditorBase()</text>
<text text-anchor="start" x="91" y="-172.5" font-family="FreeSans" font-size="10.00" fill="#000000">+ operator=()</text>
<text text-anchor="start" x="91" y="-161.5" font-family="FreeSans" font-size="10.00" fill="#000000">+ GetFilename()</text>
<text text-anchor="start" x="91" y="-150.5" font-family="FreeSans" font-size="10.00" fill="#000000">+ SetFilename()</text>
<text text-anchor="start" x="91" y="-139.5" font-family="FreeSans" font-size="10.00" fill="#000000">+ GetShortName()</text>
<text text-anchor="start" x="91" y="-128.5" font-family="FreeSans" font-size="10.00" fill="#000000">+ GetModified()</text>
<text text-anchor="start" x="91" y="-117.5" font-family="FreeSans" font-size="10.00" fill="#000000">+ SetModified()</text>
<text text-anchor="start" x="91" y="-106.5" font-family="FreeSans" font-size="10.00" fill="#000000">and 30 more...</text>
<text text-anchor="start" x="91" y="-95.5" font-family="FreeSans" font-size="10.00" fill="#000000"># InitFilename()</text>
<text text-anchor="start" x="91" y="-84.5" font-family="FreeSans" font-size="10.00" fill="#000000"># CreateContextSubMenu()</text>
<text text-anchor="start" x="91" y="-73.5" font-family="FreeSans" font-size="10.00" fill="#000000"># AddToContextMenu()</text>
<text text-anchor="start" x="91" y="-62.5" font-family="FreeSans" font-size="10.00" fill="#000000"># CreateUniqueFilename()</text>
<text text-anchor="start" x="91" y="-51.5" font-family="FreeSans" font-size="10.00" fill="#000000"># OnBeforeBuildContextMenu()</text>
<text text-anchor="start" x="91" y="-40.5" font-family="FreeSans" font-size="10.00" fill="#000000"># OnAfterBuildContextMenu()</text>
<text text-anchor="start" x="91" y="-29.5" font-family="FreeSans" font-size="10.00" fill="#000000">&#45; EditorBase()</text>
<text text-anchor="start" x="91" y="-18.5" font-family="FreeSans" font-size="10.00" fill="#000000">&#45; OnContextMenuEntry()</text>
<text text-anchor="start" x="91" y="-7.5" font-family="FreeSans" font-size="10.00" fill="#000000">&#45; BasicAddToContextMenu()</text>
</a>
</g>
</g>
<!-- Node1&#45;&gt;Node2 -->
<g id="edge5" class="edge">
<title>Node1&#45;&gt;Node2</title>
<path fill="none" stroke="#404040" d="M57.7932,-424.2795C49.2698,-386.5498 40.1058,-324.5034 56,-274 60.9298,-258.3358 68.2041,-242.8873 76.638,-228.2391"/>
<polygon fill="none" stroke="#404040" points="76.7792,-228.0043 76.446,-220.8009 82.9671,-217.7227 83.3004,-224.9262 76.7792,-228.0043"/>
<text text-anchor="middle" x="79.5" y="-293.5" font-family="FreeSans" font-size="10.00" fill="#000000"> #m_pData</text>
</g>
<!-- Node2&#45;&gt;Node1 -->
<g id="edge1" class="edge">
<title>Node2&#45;&gt;Node1</title>
<path fill="none" stroke="#404040" d="M122.814,-255.791C107.5993,-311.0488 90.7604,-372.2052 79.5988,-412.7428"/>
<polygon fill="none" stroke="#404040" points="79.5815,-412.8061 81.8451,-419.6527 76.3959,-424.3755 74.1322,-417.5289 79.5815,-412.8061"/>
<text text-anchor="middle" x="142.5" y="-293.5" font-family="FreeSans" font-size="10.00" fill="#000000"> +m_pOwner</text>
</g>
<!-- Node3 -->
<g id="node3" class="node">
<title>Node3</title>
<g id="a_node3"><a doxygen="/media/alpha/Barracuda/cb_docs/src/wxTagFile.xml:http://docs.wxwidgets.org/3.0/" xlink:href="http://docs.wxwidgets.org/3.0/classwx_panel.html" target="_top" xlink:title="{wxPanel\n||}">
<polygon fill="none" stroke="#000000" points="159.5,-430 159.5,-487 212.5,-487 212.5,-430 159.5,-430"/>
<text text-anchor="middle" x="186" y="-475" font-family="FreeSans" font-size="10.00" fill="#000000">wxPanel</text>
<polyline fill="none" stroke="#000000" points="159.5,-468 212.5,-468 "/>
<text text-anchor="middle" x="186" y="-456" font-family="FreeSans" font-size="10.00" fill="#000000"> </text>
<polyline fill="none" stroke="#000000" points="159.5,-449 212.5,-449 "/>
<text text-anchor="middle" x="186" y="-437" font-family="FreeSans" font-size="10.00" fill="#000000"> </text>
</a>
</g>
</g>
<!-- Node3&#45;&gt;Node2 -->
<g id="edge2" class="edge">
<title>Node3&#45;&gt;Node2</title>
<path fill="none" stroke="#191970" d="M185.7072,-419.552C185.1463,-382.159 183.5427,-324.1204 179,-274 178.4568,-268.0067 177.8363,-261.8834 177.1574,-255.7045"/>
<polygon fill="none" stroke="#191970" points="182.2132,-420.0415 185.8447,-429.9945 189.2126,-419.9493 182.2132,-420.0415"/>
</g>
<!-- Node4 -->
<g id="node4" class="node">
<title>Node4</title>
<g id="a_node4"><a doxygen="/media/alpha/Barracuda/cb_docs/src/wxTagFile.xml:http://docs.wxwidgets.org/3.0/" xlink:href="http://docs.wxwidgets.org/3.0/classwx_window.html" target="_top" xlink:title="{wxWindow\n||}">
<polygon fill="none" stroke="#ff0000" points="155,-618.5 155,-675.5 217,-675.5 217,-618.5 155,-618.5"/>
<text text-anchor="middle" x="186" y="-663.5" font-family="FreeSans" font-size="10.00" fill="#000000">wxWindow</text>
<polyline fill="none" stroke="#ff0000" points="155,-656.5 217,-656.5 "/>
<text text-anchor="middle" x="186" y="-644.5" font-family="FreeSans" font-size="10.00" fill="#000000"> </text>
<polyline fill="none" stroke="#ff0000" points="155,-637.5 217,-637.5 "/>
<text text-anchor="middle" x="186" y="-625.5" font-family="FreeSans" font-size="10.00" fill="#000000"> </text>
</a>
</g>
</g>
<!-- Node4&#45;&gt;Node3 -->
<g id="edge3" class="edge">
<title>Node4&#45;&gt;Node3</title>
<path fill="none" stroke="#191970" d="M186,-608.2314C186,-572.2144 186,-519.4123 186,-487.0891"/>
<polygon fill="none" stroke="#191970" points="182.5001,-608.3709 186,-618.3709 189.5001,-608.3709 182.5001,-608.3709"/>
</g>
<!-- Node8 -->
<g id="node5" class="node">
<title>Node8</title>
<g id="a_node5"><a doxygen="/media/alpha/Barracuda/cb_docs/src/wxTagFile.xml:http://docs.wxwidgets.org/3.0/" xlink:href="http://docs.wxwidgets.org/3.0/classwx_string.html" target="_top" xlink:title="{wxString\n|+ npos\l|+ wxString()\l+ wxString()\l+ wxString()\l+ wxString()\l+ wxString()\l+ wxString()\l+ wxString()\l+ wxString()\land 222 more...\l+ Format()\l+ FormatV()\l+ FromCDouble()\l+ FromDouble()\l+ From8BitData()\l+ From8BitData()\l+ FromAscii()\l+ FromAscii()\land 7 more...\l}">
<polygon fill="none" stroke="#000000" points="230.5,-336.5 230.5,-580.5 321.5,-580.5 321.5,-336.5 230.5,-336.5"/>
<text text-anchor="middle" x="276" y="-568.5" font-family="FreeSans" font-size="10.00" fill="#000000">wxString</text>
<polyline fill="none" stroke="#000000" points="230.5,-561.5 321.5,-561.5 "/>
<text text-anchor="start" x="238.5" y="-549.5" font-family="FreeSans" font-size="10.00" fill="#000000">+ npos</text>
<polyline fill="none" stroke="#000000" points="230.5,-542.5 321.5,-542.5 "/>
<text text-anchor="start" x="238.5" y="-530.5" font-family="FreeSans" font-size="10.00" fill="#000000">+ wxString()</text>
<text text-anchor="start" x="238.5" y="-519.5" font-family="FreeSans" font-size="10.00" fill="#000000">+ wxString()</text>
<text text-anchor="start" x="238.5" y="-508.5" font-family="FreeSans" font-size="10.00" fill="#000000">+ wxString()</text>
<text text-anchor="start" x="238.5" y="-497.5" font-family="FreeSans" font-size="10.00" fill="#000000">+ wxString()</text>
<text text-anchor="start" x="238.5" y="-486.5" font-family="FreeSans" font-size="10.00" fill="#000000">+ wxString()</text>
<text text-anchor="start" x="238.5" y="-475.5" font-family="FreeSans" font-size="10.00" fill="#000000">+ wxString()</text>
<text text-anchor="start" x="238.5" y="-464.5" font-family="FreeSans" font-size="10.00" fill="#000000">+ wxString()</text>
<text text-anchor="start" x="238.5" y="-453.5" font-family="FreeSans" font-size="10.00" fill="#000000">+ wxString()</text>
<text text-anchor="start" x="238.5" y="-442.5" font-family="FreeSans" font-size="10.00" fill="#000000">and 222 more...</text>
<text text-anchor="start" x="238.5" y="-431.5" font-family="FreeSans" font-size="10.00" fill="#000000">+ Format()</text>
<text text-anchor="start" x="238.5" y="-420.5" font-family="FreeSans" font-size="10.00" fill="#000000">+ FormatV()</text>
<text text-anchor="start" x="238.5" y="-409.5" font-family="FreeSans" font-size="10.00" fill="#000000">+ FromCDouble()</text>
<text text-anchor="start" x="238.5" y="-398.5" font-family="FreeSans" font-size="10.00" fill="#000000">+ FromDouble()</text>
<text text-anchor="start" x="238.5" y="-387.5" font-family="FreeSans" font-size="10.00" fill="#000000">+ From8BitData()</text>
<text text-anchor="start" x="238.5" y="-376.5" font-family="FreeSans" font-size="10.00" fill="#000000">+ From8BitData()</text>
<text text-anchor="start" x="238.5" y="-365.5" font-family="FreeSans" font-size="10.00" fill="#000000">+ FromAscii()</text>
<text text-anchor="start" x="238.5" y="-354.5" font-family="FreeSans" font-size="10.00" fill="#000000">+ FromAscii()</text>
<text text-anchor="start" x="238.5" y="-343.5" font-family="FreeSans" font-size="10.00" fill="#000000">and 7 more...</text>
</a>
</g>
</g>
<!-- Node8&#45;&gt;Node2 -->
<g id="edge4" class="edge">
<title>Node8&#45;&gt;Node2</title>
<path fill="none" stroke="#404040" d="M232.3964,-336.373C224.3651,-313.8785 215.9245,-290.2377 207.7287,-267.2825"/>
<polygon fill="none" stroke="#404040" points="207.6338,-267.0166 201.8492,-262.7109 203.5988,-255.7153 209.3834,-260.0209 207.6338,-267.0166"/>
<text text-anchor="middle" x="258.5" y="-310" font-family="FreeSans" font-size="10.00" fill="#000000"> #m_Shortname</text>
<text text-anchor="middle" x="258.5" y="-299" font-family="FreeSans" font-size="10.00" fill="#000000">&#45;m_WinTitle</text>
<text text-anchor="middle" x="258.5" y="-288" font-family="FreeSans" font-size="10.00" fill="#000000">&#45;lastWord</text>
<text text-anchor="middle" x="258.5" y="-277" font-family="FreeSans" font-size="10.00" fill="#000000">#m_Filename</text>
</g>
</g>
</svg>
