<?xml version="1.0" encoding="UTF-8" standalone="no"?>
<!DOCTYPE svg PUBLIC "-//W3C//DTD SVG 1.1//EN"
 "http://www.w3.org/Graphics/SVG/1.1/DTD/svg11.dtd">
<!-- Generated by graphviz version 2.38.0 (20140413.2041)
 -->
<!-- Title: Tokenizer::ExpandedMacro Pages: 1 -->
<svg width="1236pt" height="1347pt"
 viewBox="0.00 0.00 1235.66 1347.00" xmlns="http://www.w3.org/2000/svg" xmlns:xlink="http://www.w3.org/1999/xlink">
<g id="graph0" class="graph" transform="scale(1 1) rotate(0) translate(4 1343)">
<title>Tokenizer::ExpandedMacro</title>
<!-- Node1 -->
<g id="node1" class="node"><title>Node1</title>
<polygon fill="#bfbfbf" stroke="black" points="444.161,-342 444.161,-410 576.161,-410 576.161,-342 444.161,-342"/>
<text text-anchor="middle" x="510.161" y="-398" font-family="FreeSans" font-size="10.00">Tokenizer::ExpandedMacro</text>
<polyline fill="none" stroke="black" points="444.161,-391 576.161,-391 "/>
<text text-anchor="start" x="452.161" y="-379" font-family="FreeSans" font-size="10.00">+ m_Begin</text>
<text text-anchor="start" x="452.161" y="-368" font-family="FreeSans" font-size="10.00">+ m_End</text>
<polyline fill="none" stroke="black" points="444.161,-361 576.161,-361 "/>
<text text-anchor="start" x="452.161" y="-349" font-family="FreeSans" font-size="10.00">+ ExpandedMacro()</text>
</g>
<!-- Node2 -->
<g id="node2" class="node"><title>Node2</title>
<g id="a_node2"><a xlink:href="classToken" target="_top" xlink:title="a symbol found in the parsed files, it can be many kinds, such as a variable, a class and so on...">
<polygon fill="none" stroke="black" points="305.661,-565.5 305.661,-809.5 410.661,-809.5 410.661,-565.5 305.661,-565.5"/>
<text text-anchor="middle" x="358.161" y="-797.5" font-family="FreeSans" font-size="10.00">Token</text>
<polyline fill="none" stroke="black" points="305.661,-790.5 410.661,-790.5 "/>
<text text-anchor="start" x="313.661" y="-778.5" font-family="FreeSans" font-size="10.00">+ m_FileIdx</text>
<text text-anchor="start" x="313.661" y="-767.5" font-family="FreeSans" font-size="10.00">+ m_Line</text>
<text text-anchor="start" x="313.661" y="-756.5" font-family="FreeSans" font-size="10.00">+ m_ImplFileIdx</text>
<text text-anchor="start" x="313.661" y="-745.5" font-family="FreeSans" font-size="10.00">+ m_ImplLine</text>
<text text-anchor="start" x="313.661" y="-734.5" font-family="FreeSans" font-size="10.00">+ m_ImplLineStart</text>
<text text-anchor="start" x="313.661" y="-723.5" font-family="FreeSans" font-size="10.00">+ m_ImplLineEnd</text>
<text text-anchor="start" x="313.661" y="-712.5" font-family="FreeSans" font-size="10.00">+ m_Scope</text>
<text text-anchor="start" x="313.661" y="-701.5" font-family="FreeSans" font-size="10.00">+ m_TokenKind</text>
<text text-anchor="start" x="313.661" y="-690.5" font-family="FreeSans" font-size="10.00">and 13 more...</text>
<text text-anchor="start" x="313.661" y="-679.5" font-family="FreeSans" font-size="10.00"># m_Ticket</text>
<polyline fill="none" stroke="black" points="305.661,-672.5 410.661,-672.5 "/>
<text text-anchor="start" x="313.661" y="-660.5" font-family="FreeSans" font-size="10.00">+ Token()</text>
<text text-anchor="start" x="313.661" y="-649.5" font-family="FreeSans" font-size="10.00">+ ~Token()</text>
<text text-anchor="start" x="313.661" y="-638.5" font-family="FreeSans" font-size="10.00">+ AddChild()</text>
<text text-anchor="start" x="313.661" y="-627.5" font-family="FreeSans" font-size="10.00">+ DeleteAllChildren()</text>
<text text-anchor="start" x="313.661" y="-616.5" font-family="FreeSans" font-size="10.00">+ HasChildren()</text>
<text text-anchor="start" x="313.661" y="-605.5" font-family="FreeSans" font-size="10.00">+ GetNamespace()</text>
<text text-anchor="start" x="313.661" y="-594.5" font-family="FreeSans" font-size="10.00">+ InheritsFrom()</text>
<text text-anchor="start" x="313.661" y="-583.5" font-family="FreeSans" font-size="10.00">+ DisplayName()</text>
<text text-anchor="start" x="313.661" y="-572.5" font-family="FreeSans" font-size="10.00">and 15 more...</text>
</a>
</g>
</g>
<!-- Node2&#45;&gt;Node1 -->
<g id="edge1" class="edge"><title>Node2&#45;&gt;Node1</title>
<path fill="none" stroke="#404040" d="M410.683,-579.554C437.352,-525.253 468.297,-462.243 488.501,-421.104"/>
<polygon fill="none" stroke="#404040" points="488.612,-420.877 487.667,-413.728 493.902,-410.106 494.847,-417.255 488.612,-420.877"/>
<text text-anchor="middle" x="481.661" y="-510" font-family="FreeSans" font-size="10.00"> +m_Macro</text>
</g>
<!-- Node8 -->
<g id="node8" class="node"><title>Node8</title>
<polygon fill="none" stroke="#bfbfbf" points="212.161,-347.5 212.161,-404.5 322.161,-404.5 322.161,-347.5 212.161,-347.5"/>
<text text-anchor="middle" x="267.161" y="-392.5" font-family="FreeSans" font-size="10.00">std::vector&lt; Token * &gt;</text>
<polyline fill="none" stroke="#bfbfbf" points="212.161,-385.5 322.161,-385.5 "/>
<text text-anchor="middle" x="267.161" y="-373.5" font-family="FreeSans" font-size="10.00"> </text>
<polyline fill="none" stroke="#bfbfbf" points="212.161,-366.5 322.161,-366.5 "/>
<text text-anchor="middle" x="267.161" y="-354.5" font-family="FreeSans" font-size="10.00"> </text>
</g>
<!-- Node2&#45;&gt;Node8 -->
<g id="edge8" class="edge"><title>Node2&#45;&gt;Node8</title>
<path fill="none" stroke="#404040" d="M305.612,-574.735C302.132,-565.456 298.922,-556.133 296.161,-547 282.965,-503.353 275.206,-451.472 271.086,-416.602"/>
<polygon fill="none" stroke="#404040" points="271.074,-416.495 266.426,-410.981 269.729,-404.571 274.376,-410.085 271.074,-416.495"/>
<text text-anchor="middle" x="320.161" y="-510" font-family="FreeSans" font-size="10.00"> +elements</text>
</g>
<!-- Node3 -->
<g id="node3" class="node"><title>Node3</title>
<g id="a_node3"><a doxygen="/media/alpha/Barracuda/cb_docs/src/wxTagFile.xml:http://docs.wxwidgets.org/3.0/" xlink:href="http://docs.wxwidgets.org/3.0/classwx_array_string.html" target="_top" xlink:title="{wxArrayString\n||+ wxArrayString()\l+ wxArrayString()\l+ wxArrayString()\l+ ~wxArrayString()\l+ Add()\l+ Alloc()\l+ Clear()\l+ Empty()\land 19 more...\l}">
<polygon fill="none" stroke="black" points="262.661,-890.5 262.661,-1035.5 357.661,-1035.5 357.661,-890.5 262.661,-890.5"/>
<text text-anchor="middle" x="310.161" y="-1023.5" font-family="FreeSans" font-size="10.00">wxArrayString</text>
<polyline fill="none" stroke="black" points="262.661,-1016.5 357.661,-1016.5 "/>
<text text-anchor="middle" x="310.161" y="-1004.5" font-family="FreeSans" font-size="10.00"> </text>
<polyline fill="none" stroke="black" points="262.661,-997.5 357.661,-997.5 "/>
<text text-anchor="start" x="270.661" y="-985.5" font-family="FreeSans" font-size="10.00">+ wxArrayString()</text>
<text text-anchor="start" x="270.661" y="-974.5" font-family="FreeSans" font-size="10.00">+ wxArrayString()</text>
<text text-anchor="start" x="270.661" y="-963.5" font-family="FreeSans" font-size="10.00">+ wxArrayString()</text>
<text text-anchor="start" x="270.661" y="-952.5" font-family="FreeSans" font-size="10.00">+ ~wxArrayString()</text>
<text text-anchor="start" x="270.661" y="-941.5" font-family="FreeSans" font-size="10.00">+ Add()</text>
<text text-anchor="start" x="270.661" y="-930.5" font-family="FreeSans" font-size="10.00">+ Alloc()</text>
<text text-anchor="start" x="270.661" y="-919.5" font-family="FreeSans" font-size="10.00">+ Clear()</text>
<text text-anchor="start" x="270.661" y="-908.5" font-family="FreeSans" font-size="10.00">+ Empty()</text>
<text text-anchor="start" x="270.661" y="-897.5" font-family="FreeSans" font-size="10.00">and 19 more...</text>
</a>
</g>
</g>
<!-- Node3&#45;&gt;Node2 -->
<g id="edge2" class="edge"><title>Node3&#45;&gt;Node2</title>
<path fill="none" stroke="#404040" d="M306.513,-890.355C306.61,-870.083 307.793,-848.076 311.161,-828 311.525,-825.826 311.919,-823.64 312.339,-821.446"/>
<polygon fill="none" stroke="#404040" points="312.35,-821.39 309.672,-814.695 314.823,-809.648 317.501,-816.343 312.35,-821.39"/>
<text text-anchor="middle" x="352.161" y="-853" font-family="FreeSans" font-size="10.00"> +m_Aliases</text>
<text text-anchor="middle" x="352.161" y="-842" font-family="FreeSans" font-size="10.00">+m_TemplateType</text>
</g>
<!-- Node4 -->
<g id="node4" class="node"><title>Node4</title>
<polygon fill="none" stroke="#bfbfbf" points="528.661,-929 528.661,-997 629.661,-997 629.661,-929 528.661,-929"/>
<text text-anchor="start" x="536.661" y="-985" font-family="FreeSans" font-size="10.00">std::map&lt; wxString,</text>
<text text-anchor="middle" x="579.161" y="-974" font-family="FreeSans" font-size="10.00"> wxString &gt;</text>
<polyline fill="none" stroke="#bfbfbf" points="528.661,-967 629.661,-967 "/>
<text text-anchor="middle" x="579.161" y="-955" font-family="FreeSans" font-size="10.00"> </text>
<polyline fill="none" stroke="#bfbfbf" points="528.661,-948 629.661,-948 "/>
<text text-anchor="middle" x="579.161" y="-936" font-family="FreeSans" font-size="10.00"> </text>
</g>
<!-- Node4&#45;&gt;Node2 -->
<g id="edge3" class="edge"><title>Node4&#45;&gt;Node2</title>
<path fill="none" stroke="#404040" d="M552.283,-928.737C519.239,-887.844 462.17,-817.217 418.435,-763.093"/>
<polygon fill="none" stroke="#404040" points="418.252,-762.866 411.369,-760.713 410.709,-753.532 417.592,-755.685 418.252,-762.866"/>
<text text-anchor="middle" x="543.161" y="-847.5" font-family="FreeSans" font-size="10.00"> +m_TemplateMap</text>
</g>
<!-- Node5 -->
<g id="node5" class="node"><title>Node5</title>
<g id="a_node5"><a doxygen="/media/alpha/Barracuda/cb_docs/src/wxTagFile.xml:http://docs.wxwidgets.org/3.0/" xlink:href="http://docs.wxwidgets.org/3.0/classwx_string.html" target="_top" xlink:title="{wxString\n|+ npos\l|+ wxString()\l+ wxString()\l+ wxString()\l+ wxString()\l+ wxString()\l+ wxString()\l+ wxString()\l+ wxString()\land 222 more...\l+ Format()\l+ FormatV()\l+ FromCDouble()\l+ FromDouble()\l+ From8BitData()\l+ From8BitData()\l+ FromAscii()\l+ FromAscii()\land 7 more...\l}">
<polygon fill="none" stroke="black" points="412.661,-1094.5 412.661,-1338.5 503.661,-1338.5 503.661,-1094.5 412.661,-1094.5"/>
<text text-anchor="middle" x="458.161" y="-1326.5" font-family="FreeSans" font-size="10.00">wxString</text>
<polyline fill="none" stroke="black" points="412.661,-1319.5 503.661,-1319.5 "/>
<text text-anchor="start" x="420.661" y="-1307.5" font-family="FreeSans" font-size="10.00">+ npos</text>
<polyline fill="none" stroke="black" points="412.661,-1300.5 503.661,-1300.5 "/>
<text text-anchor="start" x="420.661" y="-1288.5" font-family="FreeSans" font-size="10.00">+ wxString()</text>
<text text-anchor="start" x="420.661" y="-1277.5" font-family="FreeSans" font-size="10.00">+ wxString()</text>
<text text-anchor="start" x="420.661" y="-1266.5" font-family="FreeSans" font-size="10.00">+ wxString()</text>
<text text-anchor="start" x="420.661" y="-1255.5" font-family="FreeSans" font-size="10.00">+ wxString()</text>
<text text-anchor="start" x="420.661" y="-1244.5" font-family="FreeSans" font-size="10.00">+ wxString()</text>
<text text-anchor="start" x="420.661" y="-1233.5" font-family="FreeSans" font-size="10.00">+ wxString()</text>
<text text-anchor="start" x="420.661" y="-1222.5" font-family="FreeSans" font-size="10.00">+ wxString()</text>
<text text-anchor="start" x="420.661" y="-1211.5" font-family="FreeSans" font-size="10.00">+ wxString()</text>
<text text-anchor="start" x="420.661" y="-1200.5" font-family="FreeSans" font-size="10.00">and 222 more...</text>
<text text-anchor="start" x="420.661" y="-1189.5" font-family="FreeSans" font-size="10.00">+ Format()</text>
<text text-anchor="start" x="420.661" y="-1178.5" font-family="FreeSans" font-size="10.00">+ FormatV()</text>
<text text-anchor="start" x="420.661" y="-1167.5" font-family="FreeSans" font-size="10.00">+ FromCDouble()</text>
<text text-anchor="start" x="420.661" y="-1156.5" font-family="FreeSans" font-size="10.00">+ FromDouble()</text>
<text text-anchor="start" x="420.661" y="-1145.5" font-family="FreeSans" font-size="10.00">+ From8BitData()</text>
<text text-anchor="start" x="420.661" y="-1134.5" font-family="FreeSans" font-size="10.00">+ From8BitData()</text>
<text text-anchor="start" x="420.661" y="-1123.5" font-family="FreeSans" font-size="10.00">+ FromAscii()</text>
<text text-anchor="start" x="420.661" y="-1112.5" font-family="FreeSans" font-size="10.00">+ FromAscii()</text>
<text text-anchor="start" x="420.661" y="-1101.5" font-family="FreeSans" font-size="10.00">and 7 more...</text>
</a>
</g>
</g>
<!-- Node5&#45;&gt;Node2 -->
<g id="edge18" class="edge"><title>Node5&#45;&gt;Node2</title>
<path fill="none" stroke="#404040" d="M427.713,-1094.24C423.442,-1074.84 419.409,-1054.93 416.161,-1036 400.426,-944.333 409.627,-919.539 393.161,-828 392.771,-825.836 392.368,-823.656 391.951,-821.464"/>
<polygon fill="none" stroke="#404040" points="391.94,-821.411 386.848,-816.305 389.603,-809.641 394.695,-814.747 391.94,-821.411"/>
<text text-anchor="middle" x="467.661" y="-1015.5" font-family="FreeSans" font-size="10.00"> +m_FullType</text>
<text text-anchor="middle" x="467.661" y="-1004.5" font-family="FreeSans" font-size="10.00">+m_TemplateAlias</text>
<text text-anchor="middle" x="467.661" y="-993.5" font-family="FreeSans" font-size="10.00">+m_BaseArgs</text>
<text text-anchor="middle" x="467.661" y="-982.5" font-family="FreeSans" font-size="10.00">+m_BaseType</text>
<text text-anchor="middle" x="467.661" y="-971.5" font-family="FreeSans" font-size="10.00">+m_Args</text>
<text text-anchor="middle" x="467.661" y="-960.5" font-family="FreeSans" font-size="10.00">+m_Doc</text>
<text text-anchor="middle" x="467.661" y="-949.5" font-family="FreeSans" font-size="10.00">+m_TemplateArgument</text>
<text text-anchor="middle" x="467.661" y="-938.5" font-family="FreeSans" font-size="10.00">+m_ImplDoc</text>
<text text-anchor="middle" x="467.661" y="-927.5" font-family="FreeSans" font-size="10.00">+m_Name</text>
<text text-anchor="middle" x="467.661" y="-916.5" font-family="FreeSans" font-size="10.00">+m_AncestorsString</text>
<text text-anchor="middle" x="467.661" y="-905.5" font-family="FreeSans" font-size="10.00">...</text>
</g>
<!-- Node5&#45;&gt;Node4 -->
<g id="edge4" class="edge"><title>Node5&#45;&gt;Node4</title>
<path fill="none" stroke="#404040" d="M503.733,-1120.78C522.349,-1082.08 542.975,-1039.21 557.947,-1008.09"/>
<polygon fill="none" stroke="#404040" points="557.99,-1008 556.986,-1000.86 563.192,-997.19 564.196,-1004.33 557.99,-1008"/>
<text text-anchor="middle" x="557.161" y="-1068" font-family="FreeSans" font-size="10.00"> +elements</text>
<text text-anchor="middle" x="557.161" y="-1057" font-family="FreeSans" font-size="10.00">+keys</text>
</g>
<!-- Node6 -->
<g id="node6" class="node"><title>Node6</title>
<polygon fill="none" stroke="#bfbfbf" points="86.6607,-929 86.6607,-997 169.661,-997 169.661,-929 86.6607,-929"/>
<text text-anchor="start" x="94.6607" y="-985" font-family="FreeSans" font-size="10.00">std::set&lt; int, std</text>
<text text-anchor="middle" x="128.161" y="-974" font-family="FreeSans" font-size="10.00">::less&lt; int &gt; &gt;</text>
<polyline fill="none" stroke="#bfbfbf" points="86.6607,-967 169.661,-967 "/>
<text text-anchor="start" x="94.6607" y="-955" font-family="FreeSans" font-size="10.00">+ keys</text>
<polyline fill="none" stroke="#bfbfbf" points="86.6607,-948 169.661,-948 "/>
<text text-anchor="middle" x="128.161" y="-936" font-family="FreeSans" font-size="10.00"> </text>
</g>
<!-- Node6&#45;&gt;Node2 -->
<g id="edge5" class="edge"><title>Node6&#45;&gt;Node2</title>
<path fill="none" stroke="#404040" d="M146.823,-928.931C163.276,-900.918 188.691,-860.279 215.161,-828 239.76,-798.001 270.163,-767.585 296.602,-742.844"/>
<polygon fill="none" stroke="#404040" points="296.605,-742.841 298.283,-735.828 305.402,-734.68 303.724,-741.693 296.605,-742.841"/>
<text text-anchor="middle" x="259.161" y="-864" font-family="FreeSans" font-size="10.00"> +m_Descendants</text>
<text text-anchor="middle" x="259.161" y="-853" font-family="FreeSans" font-size="10.00">+m_DirectAncestors</text>
<text text-anchor="middle" x="259.161" y="-842" font-family="FreeSans" font-size="10.00">+m_Ancestors</text>
<text text-anchor="middle" x="259.161" y="-831" font-family="FreeSans" font-size="10.00">+m_Children</text>
</g>
<!-- Node7 -->
<g id="node7" class="node"><title>Node7</title>
<g id="a_node7"><a xlink:href="classTokenTree" target="_top" xlink:title="a container class to hold all the Tokens getting from parsing stage ">
<polygon fill="none" stroke="black" points="598.161,-0.5 598.161,-244.5 728.161,-244.5 728.161,-0.5 598.161,-0.5"/>
<text text-anchor="middle" x="663.161" y="-232.5" font-family="FreeSans" font-size="10.00">TokenTree</text>
<polyline fill="none" stroke="black" points="598.161,-225.5 728.161,-225.5 "/>
<text text-anchor="start" x="606.161" y="-213.5" font-family="FreeSans" font-size="10.00">+ m_TokenTicketCount</text>
<polyline fill="none" stroke="black" points="598.161,-206.5 728.161,-206.5 "/>
<text text-anchor="start" x="606.161" y="-194.5" font-family="FreeSans" font-size="10.00">+ TokenTree()</text>
<text text-anchor="start" x="606.161" y="-183.5" font-family="FreeSans" font-size="10.00">+ ~TokenTree()</text>
<text text-anchor="start" x="606.161" y="-172.5" font-family="FreeSans" font-size="10.00">+ clear()</text>
<text text-anchor="start" x="606.161" y="-161.5" font-family="FreeSans" font-size="10.00">+ operator[]()</text>
<text text-anchor="start" x="606.161" y="-150.5" font-family="FreeSans" font-size="10.00">+ at()</text>
<text text-anchor="start" x="606.161" y="-139.5" font-family="FreeSans" font-size="10.00">+ at()</text>
<text text-anchor="start" x="606.161" y="-128.5" font-family="FreeSans" font-size="10.00">+ size()</text>
<text text-anchor="start" x="606.161" y="-117.5" font-family="FreeSans" font-size="10.00">+ realsize()</text>
<text text-anchor="start" x="606.161" y="-106.5" font-family="FreeSans" font-size="10.00">and 40 more...</text>
<text text-anchor="start" x="606.161" y="-95.5" font-family="FreeSans" font-size="10.00"># GetTokenAt()</text>
<text text-anchor="start" x="606.161" y="-84.5" font-family="FreeSans" font-size="10.00"># GetTokenAt()</text>
<text text-anchor="start" x="606.161" y="-73.5" font-family="FreeSans" font-size="10.00"># AddToken()</text>
<text text-anchor="start" x="606.161" y="-62.5" font-family="FreeSans" font-size="10.00"># RemoveToken()</text>
<text text-anchor="start" x="606.161" y="-51.5" font-family="FreeSans" font-size="10.00"># RemoveToken()</text>
<text text-anchor="start" x="606.161" y="-40.5" font-family="FreeSans" font-size="10.00"># AddTokenToList()</text>
<text text-anchor="start" x="606.161" y="-29.5" font-family="FreeSans" font-size="10.00"># RemoveTokenFromList()</text>
<text text-anchor="start" x="606.161" y="-18.5" font-family="FreeSans" font-size="10.00"># RecalcFullInheritance()</text>
<text text-anchor="start" x="606.161" y="-7.5" font-family="FreeSans" font-size="10.00"># CheckChildRemove()</text>
</a>
</g>
</g>
<!-- Node6&#45;&gt;Node7 -->
<g id="edge12" class="edge"><title>Node6&#45;&gt;Node7</title>
<path fill="none" stroke="#404040" d="M114.643,-928.86C87.155,-859.471 25.5366,-693.206 4.16069,-547 -13.7986,-424.163 30.9349,-380.336 118.161,-292 245.182,-163.362 468.157,-132.502 585.664,-125.384"/>
<polygon fill="none" stroke="#404040" points="585.753,-125.379 591.522,-121.053 597.734,-124.714 591.965,-129.041 585.753,-125.379"/>
<text text-anchor="middle" x="56.6607" y="-515.5" font-family="FreeSans" font-size="10.00"> #m_TopNameSpaces</text>
<text text-anchor="middle" x="56.6607" y="-504.5" font-family="FreeSans" font-size="10.00">#m_GlobalNameSpaces</text>
</g>
<!-- Node21 -->
<g id="node13" class="node"><title>Node21</title>
<polygon fill="none" stroke="#bfbfbf" points="118.661,-478.5 118.661,-546.5 249.661,-546.5 249.661,-478.5 118.661,-478.5"/>
<text text-anchor="start" x="126.661" y="-534.5" font-family="FreeSans" font-size="10.00">std::map&lt; size_t, TokenIdx</text>
<text text-anchor="middle" x="184.161" y="-523.5" font-family="FreeSans" font-size="10.00">Set, std::less&lt; size_t &gt; &gt;</text>
<polyline fill="none" stroke="#bfbfbf" points="118.661,-516.5 249.661,-516.5 "/>
<text text-anchor="start" x="126.661" y="-504.5" font-family="FreeSans" font-size="10.00">+ keys</text>
<polyline fill="none" stroke="#bfbfbf" points="118.661,-497.5 249.661,-497.5 "/>
<text text-anchor="middle" x="184.161" y="-485.5" font-family="FreeSans" font-size="10.00"> </text>
</g>
<!-- Node6&#45;&gt;Node21 -->
<g id="edge15" class="edge"><title>Node6&#45;&gt;Node21</title>
<path fill="none" stroke="#404040" d="M127.917,-928.881C128.013,-901.714 128.83,-862.284 132.161,-828 141.548,-731.377 162.486,-619.505 174.737,-558.648"/>
<polygon fill="none" stroke="#404040" points="174.751,-558.578 172.025,-551.903 177.139,-546.818 179.865,-553.494 174.751,-558.578"/>
<text text-anchor="middle" x="156.161" y="-847.5" font-family="FreeSans" font-size="10.00"> +elements</text>
</g>
<!-- Node7&#45;&gt;Node2 -->
<g id="edge6" class="edge"><title>Node7&#45;&gt;Node2</title>
<path fill="none" stroke="#404040" d="M598.102,-139.982C527.319,-161.746 417.539,-207.583 367.161,-292 341.632,-334.778 342.204,-456.272 347.461,-553.239"/>
<polygon fill="none" stroke="#404040" points="347.462,-553.256 351.795,-559.02 348.141,-565.237 343.808,-559.473 347.462,-553.256"/>
<text text-anchor="middle" x="401.161" y="-373.5" font-family="FreeSans" font-size="10.00"> #m_TokenTree</text>
</g>
<!-- Node8&#45;&gt;Node7 -->
<g id="edge7" class="edge"><title>Node8&#45;&gt;Node7</title>
<path fill="none" stroke="#404040" d="M266.021,-347.357C266.48,-322.478 271.033,-286.344 291.161,-263 366.151,-176.029 500.942,-143.179 586.033,-130.839"/>
<polygon fill="none" stroke="#404040" points="586.068,-130.835 591.466,-126.053 597.956,-129.197 592.558,-133.979 586.068,-130.835"/>
<text text-anchor="middle" x="317.661" y="-266" font-family="FreeSans" font-size="10.00"> #m_Tokens</text>
</g>
<!-- Node9 -->
<g id="node9" class="node"><title>Node9</title>
<g id="a_node9"><a xlink:href="classSearchTree" target="_top" xlink:title="{SearchTree\&lt; TokenIdxSet \&gt;\n||+ SearchTree()\l+ ~SearchTree()\l+ clear()\l+ GetCount()\l+ size()\l+ SaveCacheTo()\l+ LoadCacheFrom()\l+ Serialize()\land 8 more...\l# ClearItems()\l# AddFirstNullItem()\l}">
<polygon fill="none" stroke="red" points="594.161,-292.5 594.161,-459.5 732.161,-459.5 732.161,-292.5 594.161,-292.5"/>
<text text-anchor="middle" x="663.161" y="-447.5" font-family="FreeSans" font-size="10.00">SearchTree&lt; TokenIdxSet &gt;</text>
<polyline fill="none" stroke="red" points="594.161,-440.5 732.161,-440.5 "/>
<text text-anchor="middle" x="663.161" y="-428.5" font-family="FreeSans" font-size="10.00"> </text>
<polyline fill="none" stroke="red" points="594.161,-421.5 732.161,-421.5 "/>
<text text-anchor="start" x="602.161" y="-409.5" font-family="FreeSans" font-size="10.00">+ SearchTree()</text>
<text text-anchor="start" x="602.161" y="-398.5" font-family="FreeSans" font-size="10.00">+ ~SearchTree()</text>
<text text-anchor="start" x="602.161" y="-387.5" font-family="FreeSans" font-size="10.00">+ clear()</text>
<text text-anchor="start" x="602.161" y="-376.5" font-family="FreeSans" font-size="10.00">+ GetCount()</text>
<text text-anchor="start" x="602.161" y="-365.5" font-family="FreeSans" font-size="10.00">+ size()</text>
<text text-anchor="start" x="602.161" y="-354.5" font-family="FreeSans" font-size="10.00">+ SaveCacheTo()</text>
<text text-anchor="start" x="602.161" y="-343.5" font-family="FreeSans" font-size="10.00">+ LoadCacheFrom()</text>
<text text-anchor="start" x="602.161" y="-332.5" font-family="FreeSans" font-size="10.00">+ Serialize()</text>
<text text-anchor="start" x="602.161" y="-321.5" font-family="FreeSans" font-size="10.00">and 8 more...</text>
<text text-anchor="start" x="602.161" y="-310.5" font-family="FreeSans" font-size="10.00"># ClearItems()</text>
<text text-anchor="start" x="602.161" y="-299.5" font-family="FreeSans" font-size="10.00"># AddFirstNullItem()</text>
</a>
</g>
</g>
<!-- Node9&#45;&gt;Node7 -->
<g id="edge9" class="edge"><title>Node9&#45;&gt;Node7</title>
<path fill="none" stroke="#404040" d="M663.161,-292.301C663.161,-280.812 663.161,-268.777 663.161,-256.651"/>
<polygon fill="none" stroke="#404040" points="663.161,-256.51 659.161,-250.51 663.161,-244.51 667.161,-250.51 663.161,-256.51"/>
<text text-anchor="middle" x="683.661" y="-266" font-family="FreeSans" font-size="10.00"> #m_Tree</text>
</g>
<!-- Node10 -->
<g id="node10" class="node"><title>Node10</title>
<g id="a_node10"><a xlink:href="classBasicSearchTree" target="_top" xlink:title="This class is generally a string &#45;&gt; size_t map, the tree details (graph) is already show in the decla...">
<polygon fill="none" stroke="red" points="686.161,-571 686.161,-804 796.161,-804 796.161,-571 686.161,-571"/>
<text text-anchor="middle" x="741.161" y="-792" font-family="FreeSans" font-size="10.00">BasicSearchTree</text>
<polyline fill="none" stroke="red" points="686.161,-785 796.161,-785 "/>
<text text-anchor="middle" x="741.161" y="-773" font-family="FreeSans" font-size="10.00"> </text>
<polyline fill="none" stroke="red" points="686.161,-766 796.161,-766 "/>
<text text-anchor="start" x="694.161" y="-754" font-family="FreeSans" font-size="10.00">+ BasicSearchTree()</text>
<text text-anchor="start" x="694.161" y="-743" font-family="FreeSans" font-size="10.00">+ ~BasicSearchTree()</text>
<text text-anchor="start" x="694.161" y="-732" font-family="FreeSans" font-size="10.00">+ size()</text>
<text text-anchor="start" x="694.161" y="-721" font-family="FreeSans" font-size="10.00">+ GetCount()</text>
<text text-anchor="start" x="694.161" y="-710" font-family="FreeSans" font-size="10.00">+ clear()</text>
<text text-anchor="start" x="694.161" y="-699" font-family="FreeSans" font-size="10.00">+ insert()</text>
<text text-anchor="start" x="694.161" y="-688" font-family="FreeSans" font-size="10.00">+ HasItem()</text>
<text text-anchor="start" x="694.161" y="-677" font-family="FreeSans" font-size="10.00">+ count()</text>
<text text-anchor="start" x="694.161" y="-666" font-family="FreeSans" font-size="10.00">and 5 more...</text>
<text text-anchor="start" x="694.161" y="-655" font-family="FreeSans" font-size="10.00"># CreateNode()</text>
<text text-anchor="start" x="694.161" y="-644" font-family="FreeSans" font-size="10.00"># GetString()</text>
<text text-anchor="start" x="694.161" y="-633" font-family="FreeSans" font-size="10.00"># GetNode()</text>
<text text-anchor="start" x="694.161" y="-622" font-family="FreeSans" font-size="10.00"># FindNode()</text>
<text text-anchor="start" x="694.161" y="-611" font-family="FreeSans" font-size="10.00"># AddNode()</text>
<text text-anchor="start" x="694.161" y="-600" font-family="FreeSans" font-size="10.00"># SerializeLabel()</text>
<text text-anchor="start" x="694.161" y="-589" font-family="FreeSans" font-size="10.00">&#45; CreateRootNode()</text>
<text text-anchor="start" x="694.161" y="-578" font-family="FreeSans" font-size="10.00">&#45; SplitBranch()</text>
</a>
</g>
</g>
<!-- Node10&#45;&gt;Node7 -->
<g id="edge17" class="edge"><title>Node10&#45;&gt;Node7</title>
<path fill="none" stroke="#404040" d="M754.149,-570.72C759.906,-491.34 761.452,-384.137 741.161,-292 738.534,-280.072 734.976,-267.983 730.82,-256.043"/>
<polygon fill="none" stroke="#404040" points="730.776,-255.923 724.962,-251.658 726.663,-244.65 732.477,-248.916 730.776,-255.923"/>
<text text-anchor="middle" x="797.161" y="-373.5" font-family="FreeSans" font-size="10.00"> #m_FilenameMap</text>
</g>
<!-- Node10&#45;&gt;Node9 -->
<g id="edge10" class="edge"><title>Node10&#45;&gt;Node9</title>
<path fill="none" stroke="midnightblue" d="M709.48,-560.794C700.899,-526.744 691.827,-490.748 684.009,-459.723"/>
<polygon fill="none" stroke="midnightblue" points="706.168,-561.972 712.005,-570.813 712.955,-560.261 706.168,-561.972"/>
</g>
<!-- Node19 -->
<g id="node11" class="node"><title>Node19</title>
<polygon fill="none" stroke="#bfbfbf" points="866.661,-347.5 866.661,-404.5 953.661,-404.5 953.661,-347.5 866.661,-347.5"/>
<text text-anchor="middle" x="910.161" y="-392.5" font-family="FreeSans" font-size="10.00">std::deque&lt; int &gt;</text>
<polyline fill="none" stroke="#bfbfbf" points="866.661,-385.5 953.661,-385.5 "/>
<text text-anchor="start" x="874.661" y="-373.5" font-family="FreeSans" font-size="10.00">+ elements</text>
<polyline fill="none" stroke="#bfbfbf" points="866.661,-366.5 953.661,-366.5 "/>
<text text-anchor="middle" x="910.161" y="-354.5" font-family="FreeSans" font-size="10.00"> </text>
</g>
<!-- Node19&#45;&gt;Node7 -->
<g id="edge11" class="edge"><title>Node19&#45;&gt;Node7</title>
<path fill="none" stroke="#404040" d="M893.119,-347.274C882.284,-330.548 867.454,-309.217 852.161,-292 817.456,-252.93 774.228,-213.811 737.876,-183.114"/>
<polygon fill="none" stroke="#404040" points="737.502,-182.801 730.335,-182.012 728.306,-175.092 735.474,-175.881 737.502,-182.801"/>
<text text-anchor="middle" x="869.661" y="-266" font-family="FreeSans" font-size="10.00"> #m_FreeTokens</text>
</g>
<!-- Node20 -->
<g id="node12" class="node"><title>Node20</title>
<polygon fill="none" stroke="#bfbfbf" points="972.161,-342 972.161,-410 1070.16,-410 1070.16,-342 972.161,-342"/>
<text text-anchor="start" x="980.161" y="-398" font-family="FreeSans" font-size="10.00">std::set&lt; size_t, std</text>
<text text-anchor="middle" x="1021.16" y="-387" font-family="FreeSans" font-size="10.00">::less&lt; size_t &gt; &gt;</text>
<polyline fill="none" stroke="#bfbfbf" points="972.161,-380 1070.16,-380 "/>
<text text-anchor="start" x="980.161" y="-368" font-family="FreeSans" font-size="10.00">+ keys</text>
<polyline fill="none" stroke="#bfbfbf" points="972.161,-361 1070.16,-361 "/>
<text text-anchor="middle" x="1021.16" y="-349" font-family="FreeSans" font-size="10.00"> </text>
</g>
<!-- Node20&#45;&gt;Node7 -->
<g id="edge13" class="edge"><title>Node20&#45;&gt;Node7</title>
<path fill="none" stroke="#404040" d="M1002.68,-341.609C992.512,-325.29 978.791,-306.167 963.161,-292 896.354,-231.449 804.037,-183.724 739.516,-154.75"/>
<polygon fill="none" stroke="#404040" points="739.176,-154.6 732.07,-155.824 728.206,-149.736 735.312,-148.511 739.176,-154.6"/>
<text text-anchor="middle" x="994.161" y="-266" font-family="FreeSans" font-size="10.00"> #m_FilesToBeReparsed</text>
</g>
<!-- Node21&#45;&gt;Node7 -->
<g id="edge14" class="edge"><title>Node21&#45;&gt;Node7</title>
<path fill="none" stroke="#404040" d="M155.866,-478.218C152.293,-472.457 149.185,-466.288 147.161,-460 124.276,-388.927 103.317,-352.439 147.161,-292 199.413,-219.97 455.388,-162.514 586.072,-137.329"/>
<polygon fill="none" stroke="#404040" points="586.147,-137.315 591.291,-132.261 597.934,-135.065 592.791,-140.119 586.147,-137.315"/>
<text text-anchor="middle" x="175.161" y="-373.5" font-family="FreeSans" font-size="10.00"> #m_FileMap</text>
</g>
<!-- Node22 -->
<g id="node14" class="node"><title>Node22</title>
<polygon fill="none" stroke="#bfbfbf" points="1088.66,-336.5 1088.66,-415.5 1227.66,-415.5 1227.66,-336.5 1088.66,-336.5"/>
<text text-anchor="start" x="1096.66" y="-403.5" font-family="FreeSans" font-size="10.00">std::map&lt; size_t, FileParsing</text>
<text text-anchor="middle" x="1158.16" y="-392.5" font-family="FreeSans" font-size="10.00">Status, std::less&lt; size_t &gt; &gt;</text>
<polyline fill="none" stroke="#bfbfbf" points="1088.66,-385.5 1227.66,-385.5 "/>
<text text-anchor="start" x="1096.66" y="-373.5" font-family="FreeSans" font-size="10.00">+ keys</text>
<text text-anchor="start" x="1096.66" y="-362.5" font-family="FreeSans" font-size="10.00">+ elements</text>
<polyline fill="none" stroke="#bfbfbf" points="1088.66,-355.5 1227.66,-355.5 "/>
<text text-anchor="middle" x="1158.16" y="-343.5" font-family="FreeSans" font-size="10.00"> </text>
</g>
<!-- Node22&#45;&gt;Node7 -->
<g id="edge16" class="edge"><title>Node22&#45;&gt;Node7</title>
<path fill="none" stroke="#404040" d="M1129.04,-336.267C1109.32,-312.337 1081.42,-282.568 1051.16,-263 952.906,-199.46 821.936,-160.188 740.089,-140.098"/>
<polygon fill="none" stroke="#404040" points="740.044,-140.088 733.273,-142.569 728.379,-137.273 735.15,-134.792 740.044,-140.088"/>
<text text-anchor="middle" x="1106.16" y="-266" font-family="FreeSans" font-size="10.00"> #m_FileStatusMap</text>
</g>
</g>
</svg>
