<?xml version="1.0" encoding="UTF-8" standalone="no"?>
<!DOCTYPE svg PUBLIC "-//W3C//DTD SVG 1.1//EN"
 "http://www.w3.org/Graphics/SVG/1.1/DTD/svg11.dtd">
<!-- Generated by graphviz version 2.38.0 (20140413.2041)
 -->
<!-- Title: RegExStruct Pages: 1 -->
<svg width="102pt" height="209pt"
 viewBox="0.00 0.00 102.00 209.00" xmlns="http://www.w3.org/2000/svg" xmlns:xlink="http://www.w3.org/1999/xlink">
<g id="graph0" class="graph" transform="scale(1 1) rotate(0) translate(4 205)">
<title>RegExStruct</title>
<polygon fill="white" stroke="none" points="-4,4 -4,-205 98,-205 98,4 -4,4"/>
<!-- Node1 -->
<g id="node1" class="node"><title>Node1</title>
<polygon fill="#bfbfbf" stroke="black" points="0,-0.5 0,-200.5 94,-200.5 94,-0.5 0,-0.5"/>
<text text-anchor="middle" x="47" y="-188.5" font-family="FreeSans" font-size="10.00">RegExStruct</text>
<polyline fill="none" stroke="black" points="0,-181.5 94,-181.5 "/>
<text text-anchor="start" x="8" y="-169.5" font-family="FreeSans" font-size="10.00">+ desc</text>
<text text-anchor="start" x="8" y="-158.5" font-family="FreeSans" font-size="10.00">+ lt</text>
<text text-anchor="start" x="8" y="-147.5" font-family="FreeSans" font-size="10.00">+ regex</text>
<text text-anchor="start" x="8" y="-136.5" font-family="FreeSans" font-size="10.00">+ msg</text>
<text text-anchor="start" x="8" y="-125.5" font-family="FreeSans" font-size="10.00">+ filename</text>
<text text-anchor="start" x="8" y="-114.5" font-family="FreeSans" font-size="10.00">+ line</text>
<text text-anchor="start" x="8" y="-103.5" font-family="FreeSans" font-size="10.00">&#45; regexObject</text>
<polyline fill="none" stroke="black" points="0,-96.5 94,-96.5 "/>
<text text-anchor="start" x="8" y="-84.5" font-family="FreeSans" font-size="10.00">+ RegExStruct()</text>
<text text-anchor="start" x="8" y="-73.5" font-family="FreeSans" font-size="10.00">+ RegExStruct()</text>
<text text-anchor="start" x="8" y="-62.5" font-family="FreeSans" font-size="10.00">+ RegExStruct()</text>
<text text-anchor="start" x="8" y="-51.5" font-family="FreeSans" font-size="10.00">+ operator=()</text>
<text text-anchor="start" x="8" y="-40.5" font-family="FreeSans" font-size="10.00">+ operator!=()</text>
<text text-anchor="start" x="8" y="-29.5" font-family="FreeSans" font-size="10.00">+ operator==()</text>
<text text-anchor="start" x="8" y="-18.5" font-family="FreeSans" font-size="10.00">+ CompileRegEx()</text>
<text text-anchor="start" x="8" y="-7.5" font-family="FreeSans" font-size="10.00">+ GetRegEx()</text>
</g>
</g>
</svg>
