<?xml version="1.0" encoding="UTF-8" standalone="no"?>
<!DOCTYPE svg PUBLIC "-//W3C//DTD SVG 1.1//EN"
 "http://www.w3.org/Graphics/SVG/1.1/DTD/svg11.dtd">
<!-- Generated by graphviz version 2.40.1 (20161225.0304)
 -->
<!-- Title: CodeCompletion::FunctionsScopePerFile Pages: 1 -->
<svg width="298pt" height="634pt"
 viewBox="0.00 0.00 298.00 634.00" xmlns="http://www.w3.org/2000/svg" xmlns:xlink="http://www.w3.org/1999/xlink">
<g id="graph0" class="graph" transform="scale(1 1) rotate(0) translate(4 630)">
<title>CodeCompletion::FunctionsScopePerFile</title>
<!-- Node117 -->
<g id="node1" class="node">
<title>Node117</title>
<polygon fill="#bfbfbf" stroke="#000000" points="74,-.5 74,-68.5 208,-68.5 208,-.5 74,-.5"/>
<text text-anchor="start" x="82" y="-56.5" font-family="FreeSans" font-size="10.00" fill="#000000">CodeCompletion::Functions</text>
<text text-anchor="middle" x="141" y="-45.5" font-family="FreeSans" font-size="10.00" fill="#000000">ScopePerFile</text>
<polyline fill="none" stroke="#000000" points="74,-38.5 208,-38.5 "/>
<text text-anchor="start" x="82" y="-26.5" font-family="FreeSans" font-size="10.00" fill="#000000">+ parsed</text>
<polyline fill="none" stroke="#000000" points="74,-19.5 208,-19.5 "/>
<text text-anchor="middle" x="141" y="-7.5" font-family="FreeSans" font-size="10.00" fill="#000000"> </text>
</g>
<!-- Node118 -->
<g id="node2" class="node">
<title>Node118</title>
<polygon fill="none" stroke="#bfbfbf" points="0,-116.5 0,-173.5 130,-173.5 130,-116.5 0,-116.5"/>
<text text-anchor="middle" x="65" y="-161.5" font-family="FreeSans" font-size="10.00" fill="#000000">std::vector&lt; NameSpace &gt;</text>
<polyline fill="none" stroke="#bfbfbf" points="0,-154.5 130,-154.5 "/>
<text text-anchor="middle" x="65" y="-142.5" font-family="FreeSans" font-size="10.00" fill="#000000"> </text>
<polyline fill="none" stroke="#bfbfbf" points="0,-135.5 130,-135.5 "/>
<text text-anchor="middle" x="65" y="-123.5" font-family="FreeSans" font-size="10.00" fill="#000000"> </text>
</g>
<!-- Node118&#45;&gt;Node117 -->
<g id="edge1" class="edge">
<title>Node118&#45;&gt;Node117</title>
<path fill="none" stroke="#404040" d="M84.1175,-116.2999C90.4071,-106.9299 97.4631,-96.4948 104,-87 105.8624,-84.2949 107.786,-81.5173 109.7321,-78.7197"/>
<polygon fill="none" stroke="#404040" points="109.9338,-78.431 110.0925,-71.2217 116.8084,-68.5954 116.6497,-75.8047 109.9338,-78.431"/>
<text text-anchor="middle" x="144" y="-90" font-family="FreeSans" font-size="10.00" fill="#000000"> +m_NameSpaces</text>
</g>
<!-- Node119 -->
<g id="node3" class="node">
<title>Node119</title>
<g id="a_node3"><a xlink:href="parserthread_8h#structNameSpace" target="_top" xlink:title="{NameSpace\n|+ StartLine\l+ EndLine\l|}">
<polygon fill="none" stroke="#000000" points="57,-232.5 57,-300.5 127,-300.5 127,-232.5 57,-232.5"/>
<text text-anchor="middle" x="92" y="-288.5" font-family="FreeSans" font-size="10.00" fill="#000000">NameSpace</text>
<polyline fill="none" stroke="#000000" points="57,-281.5 127,-281.5 "/>
<text text-anchor="start" x="65" y="-269.5" font-family="FreeSans" font-size="10.00" fill="#000000">+ StartLine</text>
<text text-anchor="start" x="65" y="-258.5" font-family="FreeSans" font-size="10.00" fill="#000000">+ EndLine</text>
<polyline fill="none" stroke="#000000" points="57,-251.5 127,-251.5 "/>
<text text-anchor="middle" x="92" y="-239.5" font-family="FreeSans" font-size="10.00" fill="#000000"> </text>
</a>
</g>
</g>
<!-- Node119&#45;&gt;Node118 -->
<g id="edge2" class="edge">
<title>Node119&#45;&gt;Node118</title>
<path fill="none" stroke="#404040" d="M84.4071,-232.3321C81.158,-217.7109 77.3402,-200.5307 73.9543,-185.2942"/>
<polygon fill="none" stroke="#404040" points="73.9538,-185.2918 68.7474,-180.3024 71.3506,-173.5775 76.5569,-178.5669 73.9538,-185.2918"/>
<text text-anchor="middle" x="102" y="-195" font-family="FreeSans" font-size="10.00" fill="#000000"> +elements</text>
</g>
<!-- Node120 -->
<g id="node4" class="node">
<title>Node120</title>
<g id="a_node4"><a doxygen="/media/alpha/Barracuda/cb_docs/src/wxTagFile.xml:http://docs.wxwidgets.org/3.0/" xlink:href="http://docs.wxwidgets.org/3.0/classwx_string.html" target="_top" xlink:title="{wxString\n|+ npos\l|+ wxString()\l+ wxString()\l+ wxString()\l+ wxString()\l+ wxString()\l+ wxString()\l+ wxString()\l+ wxString()\land 222 more...\l+ Format()\l+ FormatV()\l+ FromCDouble()\l+ FromDouble()\l+ From8BitData()\l+ From8BitData()\l+ FromAscii()\l+ FromAscii()\land 7 more...\l}">
<polygon fill="none" stroke="#000000" points="104.5,-381.5 104.5,-625.5 195.5,-625.5 195.5,-381.5 104.5,-381.5"/>
<text text-anchor="middle" x="150" y="-613.5" font-family="FreeSans" font-size="10.00" fill="#000000">wxString</text>
<polyline fill="none" stroke="#000000" points="104.5,-606.5 195.5,-606.5 "/>
<text text-anchor="start" x="112.5" y="-594.5" font-family="FreeSans" font-size="10.00" fill="#000000">+ npos</text>
<polyline fill="none" stroke="#000000" points="104.5,-587.5 195.5,-587.5 "/>
<text text-anchor="start" x="112.5" y="-575.5" font-family="FreeSans" font-size="10.00" fill="#000000">+ wxString()</text>
<text text-anchor="start" x="112.5" y="-564.5" font-family="FreeSans" font-size="10.00" fill="#000000">+ wxString()</text>
<text text-anchor="start" x="112.5" y="-553.5" font-family="FreeSans" font-size="10.00" fill="#000000">+ wxString()</text>
<text text-anchor="start" x="112.5" y="-542.5" font-family="FreeSans" font-size="10.00" fill="#000000">+ wxString()</text>
<text text-anchor="start" x="112.5" y="-531.5" font-family="FreeSans" font-size="10.00" fill="#000000">+ wxString()</text>
<text text-anchor="start" x="112.5" y="-520.5" font-family="FreeSans" font-size="10.00" fill="#000000">+ wxString()</text>
<text text-anchor="start" x="112.5" y="-509.5" font-family="FreeSans" font-size="10.00" fill="#000000">+ wxString()</text>
<text text-anchor="start" x="112.5" y="-498.5" font-family="FreeSans" font-size="10.00" fill="#000000">+ wxString()</text>
<text text-anchor="start" x="112.5" y="-487.5" font-family="FreeSans" font-size="10.00" fill="#000000">and 222 more...</text>
<text text-anchor="start" x="112.5" y="-476.5" font-family="FreeSans" font-size="10.00" fill="#000000">+ Format()</text>
<text text-anchor="start" x="112.5" y="-465.5" font-family="FreeSans" font-size="10.00" fill="#000000">+ FormatV()</text>
<text text-anchor="start" x="112.5" y="-454.5" font-family="FreeSans" font-size="10.00" fill="#000000">+ FromCDouble()</text>
<text text-anchor="start" x="112.5" y="-443.5" font-family="FreeSans" font-size="10.00" fill="#000000">+ FromDouble()</text>
<text text-anchor="start" x="112.5" y="-432.5" font-family="FreeSans" font-size="10.00" fill="#000000">+ From8BitData()</text>
<text text-anchor="start" x="112.5" y="-421.5" font-family="FreeSans" font-size="10.00" fill="#000000">+ From8BitData()</text>
<text text-anchor="start" x="112.5" y="-410.5" font-family="FreeSans" font-size="10.00" fill="#000000">+ FromAscii()</text>
<text text-anchor="start" x="112.5" y="-399.5" font-family="FreeSans" font-size="10.00" fill="#000000">+ FromAscii()</text>
<text text-anchor="start" x="112.5" y="-388.5" font-family="FreeSans" font-size="10.00" fill="#000000">and 7 more...</text>
</a>
</g>
</g>
<!-- Node120&#45;&gt;Node119 -->
<g id="edge3" class="edge">
<title>Node120&#45;&gt;Node119</title>
<path fill="none" stroke="#404040" d="M120.0656,-381.1817C114.0557,-356.6243 108.0995,-332.2858 103.2306,-312.3906"/>
<polygon fill="none" stroke="#404040" points="103.2014,-312.271 97.8898,-307.3939 100.3488,-300.615 105.6605,-305.4921 103.2014,-312.271"/>
<text text-anchor="middle" x="132" y="-344" font-family="FreeSans" font-size="10.00" fill="#000000"> +Name</text>
</g>
<!-- Node122 -->
<g id="node6" class="node">
<title>Node122</title>
<g id="a_node6"><a xlink:href="structCodeCompletion_1_1FunctionScope" target="_top" xlink:title="Identify a function body&#39;s position, the underline data structure of the second wxChoice of CC&#39;s tool...">
<polygon fill="none" stroke="#000000" points="149,-221.5 149,-311.5 279,-311.5 279,-221.5 149,-221.5"/>
<text text-anchor="start" x="157" y="-299.5" font-family="FreeSans" font-size="10.00" fill="#000000">CodeCompletion::Function</text>
<text text-anchor="middle" x="214" y="-288.5" font-family="FreeSans" font-size="10.00" fill="#000000">Scope</text>
<polyline fill="none" stroke="#000000" points="149,-281.5 279,-281.5 "/>
<text text-anchor="start" x="157" y="-269.5" font-family="FreeSans" font-size="10.00" fill="#000000">+ StartLine</text>
<text text-anchor="start" x="157" y="-258.5" font-family="FreeSans" font-size="10.00" fill="#000000">+ EndLine</text>
<polyline fill="none" stroke="#000000" points="149,-251.5 279,-251.5 "/>
<text text-anchor="start" x="157" y="-239.5" font-family="FreeSans" font-size="10.00" fill="#000000">+ FunctionScope()</text>
<text text-anchor="start" x="157" y="-228.5" font-family="FreeSans" font-size="10.00" fill="#000000">+ FunctionScope()</text>
</a>
</g>
</g>
<!-- Node120&#45;&gt;Node122 -->
<g id="edge6" class="edge">
<title>Node120&#45;&gt;Node122</title>
<path fill="none" stroke="#404040" d="M183.0311,-381.1817C188.4945,-360.9501 193.9178,-340.867 198.6631,-323.2946"/>
<polygon fill="none" stroke="#404040" points="198.7036,-323.1444 196.4061,-316.309 201.8321,-311.5593 204.1295,-318.3947 198.7036,-323.1444"/>
<text text-anchor="middle" x="223.5" y="-355" font-family="FreeSans" font-size="10.00" fill="#000000"> +Name</text>
<text text-anchor="middle" x="223.5" y="-344" font-family="FreeSans" font-size="10.00" fill="#000000">+Scope</text>
<text text-anchor="middle" x="223.5" y="-333" font-family="FreeSans" font-size="10.00" fill="#000000">+ShortName</text>
</g>
<!-- Node121 -->
<g id="node5" class="node">
<title>Node121</title>
<polygon fill="none" stroke="#bfbfbf" points="148,-116.5 148,-173.5 290,-173.5 290,-116.5 148,-116.5"/>
<text text-anchor="middle" x="219" y="-161.5" font-family="FreeSans" font-size="10.00" fill="#000000">std::vector&lt; FunctionScope &gt;</text>
<polyline fill="none" stroke="#bfbfbf" points="148,-154.5 290,-154.5 "/>
<text text-anchor="middle" x="219" y="-142.5" font-family="FreeSans" font-size="10.00" fill="#000000"> </text>
<polyline fill="none" stroke="#bfbfbf" points="148,-135.5 290,-135.5 "/>
<text text-anchor="middle" x="219" y="-123.5" font-family="FreeSans" font-size="10.00" fill="#000000"> </text>
</g>
<!-- Node121&#45;&gt;Node117 -->
<g id="edge4" class="edge">
<title>Node121&#45;&gt;Node117</title>
<path fill="none" stroke="#404040" d="M202.8796,-116.457C197.1963,-106.9047 190.5782,-96.3204 184,-87 181.9938,-84.1574 179.8782,-81.2721 177.7052,-78.3916"/>
<polygon fill="none" stroke="#404040" points="177.5297,-78.1655 170.6908,-75.8787 170.1713,-68.6863 177.0102,-70.9731 177.5297,-78.1655"/>
<text text-anchor="middle" x="237" y="-90" font-family="FreeSans" font-size="10.00" fill="#000000"> +m_FunctionsScope</text>
</g>
<!-- Node122&#45;&gt;Node121 -->
<g id="edge5" class="edge">
<title>Node122&#45;&gt;Node121</title>
<path fill="none" stroke="#404040" d="M215.8618,-221.2579C216.3379,-209.689 216.8471,-197.3161 217.3138,-185.9751"/>
<polygon fill="none" stroke="#404040" points="217.3251,-185.6971 213.5753,-179.5377 217.8186,-173.7072 221.5685,-179.8667 217.3251,-185.6971"/>
<text text-anchor="middle" x="240" y="-195" font-family="FreeSans" font-size="10.00" fill="#000000"> +elements</text>
</g>
</g>
</svg>
