<?xml version="1.0" encoding="UTF-8" standalone="no"?>
<!DOCTYPE svg PUBLIC "-//W3C//DTD SVG 1.1//EN"
 "http://www.w3.org/Graphics/SVG/1.1/DTD/svg11.dtd">
<!-- Generated by graphviz version 2.40.1 (20161225.0304)
 -->
<!-- Title: ToolbarInfo Pages: 1 -->
<svg width="254pt" height="471pt"
 viewBox="0.00 0.00 254.00 471.00" xmlns="http://www.w3.org/2000/svg" xmlns:xlink="http://www.w3.org/1999/xlink">
<g id="graph0" class="graph" transform="scale(1 1) rotate(0) translate(4 467)">
<title>ToolbarInfo</title>
<!-- Node1 -->
<g id="node1" class="node">
<title>Node1</title>
<polygon fill="#bfbfbf" stroke="#000000" points="121.5,-.5 121.5,-79.5 201.5,-79.5 201.5,-.5 121.5,-.5"/>
<text text-anchor="middle" x="161.5" y="-67.5" font-family="FreeSans" font-size="10.00" fill="#000000">ToolbarInfo</text>
<polyline fill="none" stroke="#000000" points="121.5,-60.5 201.5,-60.5 "/>
<text text-anchor="start" x="129.5" y="-48.5" font-family="FreeSans" font-size="10.00" fill="#000000">+ priority</text>
<polyline fill="none" stroke="#000000" points="121.5,-41.5 201.5,-41.5 "/>
<text text-anchor="start" x="129.5" y="-29.5" font-family="FreeSans" font-size="10.00" fill="#000000">+ ToolbarInfo()</text>
<text text-anchor="start" x="129.5" y="-18.5" font-family="FreeSans" font-size="10.00" fill="#000000">+ ToolbarInfo()</text>
<text text-anchor="start" x="129.5" y="-7.5" font-family="FreeSans" font-size="10.00" fill="#000000">+ operator&lt;()</text>
</g>
<!-- Node2 -->
<g id="node2" class="node">
<title>Node2</title>
<g id="a_node2"><a doxygen="/media/alpha/Barracuda/cb_docs/src/wxTagFile.xml:http://docs.wxwidgets.org/3.0/" xlink:href="http://docs.wxwidgets.org/3.0/classwx_tool_bar.html" target="_top" xlink:title="{wxToolBar\n||+ wxToolBar()\l+ wxToolBar()\l+ ~wxToolBar()\l+ AddCheckTool()\l+ AddControl()\l+ AddRadioTool()\l+ AddSeparator()\l+ AddStretchableSpace()\land 48 more...\l}">
<polygon fill="none" stroke="#000000" points="0,-127.5 0,-272.5 125,-272.5 125,-127.5 0,-127.5"/>
<text text-anchor="middle" x="62.5" y="-260.5" font-family="FreeSans" font-size="10.00" fill="#000000">wxToolBar</text>
<polyline fill="none" stroke="#000000" points="0,-253.5 125,-253.5 "/>
<text text-anchor="middle" x="62.5" y="-241.5" font-family="FreeSans" font-size="10.00" fill="#000000"> </text>
<polyline fill="none" stroke="#000000" points="0,-234.5 125,-234.5 "/>
<text text-anchor="start" x="8" y="-222.5" font-family="FreeSans" font-size="10.00" fill="#000000">+ wxToolBar()</text>
<text text-anchor="start" x="8" y="-211.5" font-family="FreeSans" font-size="10.00" fill="#000000">+ wxToolBar()</text>
<text text-anchor="start" x="8" y="-200.5" font-family="FreeSans" font-size="10.00" fill="#000000">+ ~wxToolBar()</text>
<text text-anchor="start" x="8" y="-189.5" font-family="FreeSans" font-size="10.00" fill="#000000">+ AddCheckTool()</text>
<text text-anchor="start" x="8" y="-178.5" font-family="FreeSans" font-size="10.00" fill="#000000">+ AddControl()</text>
<text text-anchor="start" x="8" y="-167.5" font-family="FreeSans" font-size="10.00" fill="#000000">+ AddRadioTool()</text>
<text text-anchor="start" x="8" y="-156.5" font-family="FreeSans" font-size="10.00" fill="#000000">+ AddSeparator()</text>
<text text-anchor="start" x="8" y="-145.5" font-family="FreeSans" font-size="10.00" fill="#000000">+ AddStretchableSpace()</text>
<text text-anchor="start" x="8" y="-134.5" font-family="FreeSans" font-size="10.00" fill="#000000">and 48 more...</text>
</a>
</g>
</g>
<!-- Node2&#45;&gt;Node1 -->
<g id="edge1" class="edge">
<title>Node2&#45;&gt;Node1</title>
<path fill="none" stroke="#404040" d="M107.3654,-127.4902C115.121,-114.9559 123.0297,-102.1742 130.3209,-90.3904"/>
<polygon fill="none" stroke="#404040" points="130.5072,-90.0893 130.2627,-82.8824 136.8213,-79.8848 137.0658,-87.0918 130.5072,-90.0893"/>
<text text-anchor="middle" x="143.5" y="-101" font-family="FreeSans" font-size="10.00" fill="#000000"> +toolbar</text>
</g>
<!-- Node3 -->
<g id="node3" class="node">
<title>Node3</title>
<g id="a_node3"><a doxygen="/media/alpha/Barracuda/cb_docs/src/wxTagFile.xml:http://docs.wxwidgets.org/3.0/" xlink:href="http://docs.wxwidgets.org/3.0/classwx_control.html" target="_top" xlink:title="{wxControl\n||}">
<polygon fill="none" stroke="#000000" points="33,-310.5 33,-367.5 92,-367.5 92,-310.5 33,-310.5"/>
<text text-anchor="middle" x="62.5" y="-355.5" font-family="FreeSans" font-size="10.00" fill="#000000">wxControl</text>
<polyline fill="none" stroke="#000000" points="33,-348.5 92,-348.5 "/>
<text text-anchor="middle" x="62.5" y="-336.5" font-family="FreeSans" font-size="10.00" fill="#000000"> </text>
<polyline fill="none" stroke="#000000" points="33,-329.5 92,-329.5 "/>
<text text-anchor="middle" x="62.5" y="-317.5" font-family="FreeSans" font-size="10.00" fill="#000000"> </text>
</a>
</g>
</g>
<!-- Node3&#45;&gt;Node2 -->
<g id="edge2" class="edge">
<title>Node3&#45;&gt;Node2</title>
<path fill="none" stroke="#191970" d="M62.5,-300.1298C62.5,-291.5169 62.5,-282.1195 62.5,-272.6439"/>
<polygon fill="none" stroke="#191970" points="59.0001,-300.1991 62.5,-310.1991 66.0001,-300.1991 59.0001,-300.1991"/>
</g>
<!-- Node4 -->
<g id="node4" class="node">
<title>Node4</title>
<g id="a_node4"><a doxygen="/media/alpha/Barracuda/cb_docs/src/wxTagFile.xml:http://docs.wxwidgets.org/3.0/" xlink:href="http://docs.wxwidgets.org/3.0/classwx_window.html" target="_top" xlink:title="{wxWindow\n||}">
<polygon fill="none" stroke="#ff0000" points="31.5,-405.5 31.5,-462.5 93.5,-462.5 93.5,-405.5 31.5,-405.5"/>
<text text-anchor="middle" x="62.5" y="-450.5" font-family="FreeSans" font-size="10.00" fill="#000000">wxWindow</text>
<polyline fill="none" stroke="#ff0000" points="31.5,-443.5 93.5,-443.5 "/>
<text text-anchor="middle" x="62.5" y="-431.5" font-family="FreeSans" font-size="10.00" fill="#000000"> </text>
<polyline fill="none" stroke="#ff0000" points="31.5,-424.5 93.5,-424.5 "/>
<text text-anchor="middle" x="62.5" y="-412.5" font-family="FreeSans" font-size="10.00" fill="#000000"> </text>
</a>
</g>
</g>
<!-- Node4&#45;&gt;Node3 -->
<g id="edge3" class="edge">
<title>Node4&#45;&gt;Node3</title>
<path fill="none" stroke="#191970" d="M62.5,-395.3724C62.5,-386.1627 62.5,-376.4917 62.5,-367.8114"/>
<polygon fill="none" stroke="#191970" points="59.0001,-395.4968 62.5,-405.4969 66.0001,-395.4969 59.0001,-395.4968"/>
</g>
<!-- Node8 -->
<g id="node5" class="node">
<title>Node8</title>
<g id="a_node5"><a doxygen="/media/alpha/Barracuda/cb_docs/src/wxTagFile.xml:http://docs.wxwidgets.org/3.0/" xlink:href="http://docs.wxwidgets.org/3.0/classwx_aui_pane_info.html" target="_top" xlink:title="{wxAuiPaneInfo\n||+ wxAuiPaneInfo()\l+ wxAuiPaneInfo()\l+ Bottom()\l+ BottomDockable()\l+ Caption()\l+ CaptionVisible()\l+ CloseButton()\l+ DefaultPane()\land 71 more...\l}">
<polygon fill="none" stroke="#000000" points="143,-127.5 143,-272.5 246,-272.5 246,-127.5 143,-127.5"/>
<text text-anchor="middle" x="194.5" y="-260.5" font-family="FreeSans" font-size="10.00" fill="#000000">wxAuiPaneInfo</text>
<polyline fill="none" stroke="#000000" points="143,-253.5 246,-253.5 "/>
<text text-anchor="middle" x="194.5" y="-241.5" font-family="FreeSans" font-size="10.00" fill="#000000"> </text>
<polyline fill="none" stroke="#000000" points="143,-234.5 246,-234.5 "/>
<text text-anchor="start" x="151" y="-222.5" font-family="FreeSans" font-size="10.00" fill="#000000">+ wxAuiPaneInfo()</text>
<text text-anchor="start" x="151" y="-211.5" font-family="FreeSans" font-size="10.00" fill="#000000">+ wxAuiPaneInfo()</text>
<text text-anchor="start" x="151" y="-200.5" font-family="FreeSans" font-size="10.00" fill="#000000">+ Bottom()</text>
<text text-anchor="start" x="151" y="-189.5" font-family="FreeSans" font-size="10.00" fill="#000000">+ BottomDockable()</text>
<text text-anchor="start" x="151" y="-178.5" font-family="FreeSans" font-size="10.00" fill="#000000">+ Caption()</text>
<text text-anchor="start" x="151" y="-167.5" font-family="FreeSans" font-size="10.00" fill="#000000">+ CaptionVisible()</text>
<text text-anchor="start" x="151" y="-156.5" font-family="FreeSans" font-size="10.00" fill="#000000">+ CloseButton()</text>
<text text-anchor="start" x="151" y="-145.5" font-family="FreeSans" font-size="10.00" fill="#000000">+ DefaultPane()</text>
<text text-anchor="start" x="151" y="-134.5" font-family="FreeSans" font-size="10.00" fill="#000000">and 71 more...</text>
</a>
</g>
</g>
<!-- Node8&#45;&gt;Node1 -->
<g id="edge4" class="edge">
<title>Node8&#45;&gt;Node1</title>
<path fill="none" stroke="#404040" d="M179.5449,-127.4902C177.0652,-115.4675 174.5385,-103.2172 172.1916,-91.8382"/>
<polygon fill="none" stroke="#404040" points="172.1503,-91.6374 167.0207,-86.5691 169.7262,-79.8848 174.8558,-84.9531 172.1503,-91.6374"/>
<text text-anchor="middle" x="197.5" y="-101" font-family="FreeSans" font-size="10.00" fill="#000000"> +paneInfo</text>
</g>
</g>
</svg>
