<?xml version="1.0" encoding="UTF-8" standalone="no"?>
<!DOCTYPE svg PUBLIC "-//W3C//DTD SVG 1.1//EN"
 "http://www.w3.org/Graphics/SVG/1.1/DTD/svg11.dtd">
<!-- Generated by graphviz version 2.38.0 (20140413.2041)
 -->
<!-- Title: ParserThreadOptions Pages: 1 -->
<svg width="130pt" height="508pt"
 viewBox="0.00 0.00 130.00 508.00" xmlns="http://www.w3.org/2000/svg" xmlns:xlink="http://www.w3.org/1999/xlink">
<g id="graph0" class="graph" transform="scale(1 1) rotate(0) translate(4 504)">
<title>ParserThreadOptions</title>
<!-- Node1 -->
<g id="node1" class="node"><title>Node1</title>
<polygon fill="#bfbfbf" stroke="black" points="0,-0.5 0,-145.5 122,-145.5 122,-0.5 0,-0.5"/>
<text text-anchor="middle" x="61" y="-133.5" font-family="FreeSans" font-size="10.00">ParserThreadOptions</text>
<polyline fill="none" stroke="black" points="0,-126.5 122,-126.5 "/>
<text text-anchor="start" x="8" y="-114.5" font-family="FreeSans" font-size="10.00">+ useBuffer</text>
<text text-anchor="start" x="8" y="-103.5" font-family="FreeSans" font-size="10.00">+ fileOfBuffer</text>
<text text-anchor="start" x="8" y="-92.5" font-family="FreeSans" font-size="10.00">+ parentIdxOfBuffer</text>
<text text-anchor="start" x="8" y="-81.5" font-family="FreeSans" font-size="10.00">+ initLineOfBuffer</text>
<text text-anchor="start" x="8" y="-70.5" font-family="FreeSans" font-size="10.00">+ bufferSkipBlocks</text>
<text text-anchor="start" x="8" y="-59.5" font-family="FreeSans" font-size="10.00">+ bufferSkipOuterBlocks</text>
<text text-anchor="start" x="8" y="-48.5" font-family="FreeSans" font-size="10.00">+ isTemp</text>
<text text-anchor="start" x="8" y="-37.5" font-family="FreeSans" font-size="10.00">+ followLocalIncludes</text>
<text text-anchor="start" x="8" y="-26.5" font-family="FreeSans" font-size="10.00">and 10 more...</text>
<polyline fill="none" stroke="black" points="0,-19.5 122,-19.5 "/>
<text text-anchor="start" x="8" y="-7.5" font-family="FreeSans" font-size="10.00">+ ParserThreadOptions()</text>
</g>
<!-- Node2 -->
<g id="node2" class="node"><title>Node2</title>
<g id="a_node2"><a xlink:href="classLoaderBase" target="_top" xlink:title="{LoaderBase\n|# fileName\l# data\l# len\l&#45; sem\l&#45; wait\l|+ LoaderBase()\l+ ~LoaderBase()\l+ operator()()\l+ FileName()\l+ Sync()\l+ GetData()\l+ GetLength()\l# Ready()\l&#45; WaitReady()\l}">
<polygon fill="none" stroke="black" points="17.5,-193.5 17.5,-382.5 104.5,-382.5 104.5,-193.5 17.5,-193.5"/>
<text text-anchor="middle" x="61" y="-370.5" font-family="FreeSans" font-size="10.00">LoaderBase</text>
<polyline fill="none" stroke="black" points="17.5,-363.5 104.5,-363.5 "/>
<text text-anchor="start" x="25.5" y="-351.5" font-family="FreeSans" font-size="10.00"># fileName</text>
<text text-anchor="start" x="25.5" y="-340.5" font-family="FreeSans" font-size="10.00"># data</text>
<text text-anchor="start" x="25.5" y="-329.5" font-family="FreeSans" font-size="10.00"># len</text>
<text text-anchor="start" x="25.5" y="-318.5" font-family="FreeSans" font-size="10.00">&#45; sem</text>
<text text-anchor="start" x="25.5" y="-307.5" font-family="FreeSans" font-size="10.00">&#45; wait</text>
<polyline fill="none" stroke="black" points="17.5,-300.5 104.5,-300.5 "/>
<text text-anchor="start" x="25.5" y="-288.5" font-family="FreeSans" font-size="10.00">+ LoaderBase()</text>
<text text-anchor="start" x="25.5" y="-277.5" font-family="FreeSans" font-size="10.00">+ ~LoaderBase()</text>
<text text-anchor="start" x="25.5" y="-266.5" font-family="FreeSans" font-size="10.00">+ operator()()</text>
<text text-anchor="start" x="25.5" y="-255.5" font-family="FreeSans" font-size="10.00">+ FileName()</text>
<text text-anchor="start" x="25.5" y="-244.5" font-family="FreeSans" font-size="10.00">+ Sync()</text>
<text text-anchor="start" x="25.5" y="-233.5" font-family="FreeSans" font-size="10.00">+ GetData()</text>
<text text-anchor="start" x="25.5" y="-222.5" font-family="FreeSans" font-size="10.00">+ GetLength()</text>
<text text-anchor="start" x="25.5" y="-211.5" font-family="FreeSans" font-size="10.00"># Ready()</text>
<text text-anchor="start" x="25.5" y="-200.5" font-family="FreeSans" font-size="10.00">&#45; WaitReady()</text>
</a>
</g>
</g>
<!-- Node2&#45;&gt;Node1 -->
<g id="edge1" class="edge"><title>Node2&#45;&gt;Node1</title>
<path fill="none" stroke="#404040" d="M61,-193.265C61,-181.419 61,-169.36 61,-157.684"/>
<polygon fill="none" stroke="#404040" points="61.0001,-157.681 57,-151.681 61,-145.681 65,-151.681 61.0001,-157.681"/>
<text text-anchor="middle" x="78.5" y="-167" font-family="FreeSans" font-size="10.00"> +loader</text>
</g>
<!-- Node3 -->
<g id="node3" class="node"><title>Node3</title>
<g id="a_node3"><a xlink:href="classAbstractJob" target="_top" xlink:title="{AbstractJob\n||+ AbstractJob()\l+ ~AbstractJob()\l+ operator()()\l}">
<polygon fill="none" stroke="black" points="17,-420.5 17,-499.5 105,-499.5 105,-420.5 17,-420.5"/>
<text text-anchor="middle" x="61" y="-487.5" font-family="FreeSans" font-size="10.00">AbstractJob</text>
<polyline fill="none" stroke="black" points="17,-480.5 105,-480.5 "/>
<text text-anchor="middle" x="61" y="-468.5" font-family="FreeSans" font-size="10.00"> </text>
<polyline fill="none" stroke="black" points="17,-461.5 105,-461.5 "/>
<text text-anchor="start" x="25" y="-449.5" font-family="FreeSans" font-size="10.00">+ AbstractJob()</text>
<text text-anchor="start" x="25" y="-438.5" font-family="FreeSans" font-size="10.00">+ ~AbstractJob()</text>
<text text-anchor="start" x="25" y="-427.5" font-family="FreeSans" font-size="10.00">+ operator()()</text>
</a>
</g>
</g>
<!-- Node3&#45;&gt;Node2 -->
<g id="edge2" class="edge"><title>Node3&#45;&gt;Node2</title>
<path fill="none" stroke="midnightblue" d="M61,-410.398C61,-401.579 61,-392.116 61,-382.507"/>
<polygon fill="none" stroke="midnightblue" points="57.5001,-410.424 61,-420.424 64.5001,-410.424 57.5001,-410.424"/>
</g>
</g>
</svg>
