<?xml version="1.0" encoding="UTF-8" standalone="no"?>
<!DOCTYPE svg PUBLIC "-//W3C//DTD SVG 1.1//EN"
 "http://www.w3.org/Graphics/SVG/1.1/DTD/svg11.dtd">
<!-- Generated by graphviz version 2.40.1 (20161225.0304)
 -->
<!-- Title: switcherdlg.cpp Pages: 1 -->
<svg width="510pt" height="196pt"
 viewBox="0.00 0.00 509.50 196.00" xmlns="http://www.w3.org/2000/svg" xmlns:xlink="http://www.w3.org/1999/xlink">
<g id="graph0" class="graph" transform="scale(1 1) rotate(0) translate(4 192)">
<title>switcherdlg.cpp</title>
<!-- Node0 -->
<g id="node1" class="node">
<title>Node0</title>
<polygon fill="#bfbfbf" stroke="#000000" points="152.5,-168.5 152.5,-187.5 235.5,-187.5 235.5,-168.5 152.5,-168.5"/>
<text text-anchor="middle" x="194" y="-175.5" font-family="FreeSans" font-size="10.00" fill="#000000">switcherdlg.cpp</text>
</g>
<!-- Node1 -->
<g id="node2" class="node">
<title>Node1</title>
<polygon fill="none" stroke="#bfbfbf" points="0,-112.5 0,-131.5 50,-131.5 50,-112.5 0,-112.5"/>
<text text-anchor="middle" x="25" y="-119.5" font-family="FreeSans" font-size="10.00" fill="#000000">wx/wx.h</text>
</g>
<!-- Node0&#45;&gt;Node1 -->
<g id="edge1" class="edge">
<title>Node0&#45;&gt;Node1</title>
<path fill="none" stroke="#191970" d="M164.9479,-168.3733C135.7387,-158.6945 90.7036,-143.7716 59.6498,-133.4816"/>
<polygon fill="#191970" stroke="#191970" points="60.6898,-130.1391 50.0965,-130.316 58.488,-136.7838 60.6898,-130.1391"/>
</g>
<!-- Node2 -->
<g id="node3" class="node">
<title>Node2</title>
<polygon fill="none" stroke="#bfbfbf" points="68.5,-112.5 68.5,-131.5 139.5,-131.5 139.5,-112.5 68.5,-112.5"/>
<text text-anchor="middle" x="104" y="-119.5" font-family="FreeSans" font-size="10.00" fill="#000000">wx/settings.h</text>
</g>
<!-- Node0&#45;&gt;Node2 -->
<g id="edge2" class="edge">
<title>Node0&#45;&gt;Node2</title>
<path fill="none" stroke="#191970" d="M178.3232,-168.2455C164.5144,-159.6534 144.1807,-147.0014 128.2708,-137.1018"/>
<polygon fill="#191970" stroke="#191970" points="129.8368,-133.954 119.4972,-131.6427 126.1387,-139.8974 129.8368,-133.954"/>
</g>
<!-- Node3 -->
<g id="node4" class="node">
<title>Node3</title>
<polygon fill="none" stroke="#bfbfbf" points="158,-112.5 158,-131.5 230,-131.5 230,-112.5 158,-112.5"/>
<text text-anchor="middle" x="194" y="-119.5" font-family="FreeSans" font-size="10.00" fill="#000000">wx/dcbuffer.h</text>
</g>
<!-- Node0&#45;&gt;Node3 -->
<g id="edge3" class="edge">
<title>Node0&#45;&gt;Node3</title>
<path fill="none" stroke="#191970" d="M194,-168.2455C194,-160.9382 194,-150.6944 194,-141.7046"/>
<polygon fill="#191970" stroke="#191970" points="197.5001,-141.6426 194,-131.6427 190.5001,-141.6427 197.5001,-141.6426"/>
</g>
<!-- Node4 -->
<g id="node5" class="node">
<title>Node4</title>
<g id="a_node5"><a xlink:href="switcherdlg_8h" target="_top" xlink:title="switcherdlg.h">
<polygon fill="none" stroke="#000000" points="248,-112.5 248,-131.5 320,-131.5 320,-112.5 248,-112.5"/>
<text text-anchor="middle" x="284" y="-119.5" font-family="FreeSans" font-size="10.00" fill="#000000">switcherdlg.h</text>
</a>
</g>
</g>
<!-- Node0&#45;&gt;Node4 -->
<g id="edge4" class="edge">
<title>Node0&#45;&gt;Node4</title>
<path fill="none" stroke="#191970" d="M209.6768,-168.2455C223.4856,-159.6534 243.8193,-147.0014 259.7292,-137.1018"/>
<polygon fill="#191970" stroke="#191970" points="261.8613,-139.8974 268.5028,-131.6427 258.1632,-133.954 261.8613,-139.8974"/>
</g>
<!-- Node11 -->
<g id="node12" class="node">
<title>Node11</title>
<polygon fill="none" stroke="#bfbfbf" points="338,-112.5 338,-131.5 416,-131.5 416,-112.5 338,-112.5"/>
<text text-anchor="middle" x="377" y="-119.5" font-family="FreeSans" font-size="10.00" fill="#000000">wx/arrimpl.cpp</text>
</g>
<!-- Node0&#45;&gt;Node11 -->
<g id="edge11" class="edge">
<title>Node0&#45;&gt;Node11</title>
<path fill="none" stroke="#191970" d="M225.4588,-168.3733C256.0207,-159.021 302.5826,-144.7725 336.0261,-134.5385"/>
<polygon fill="#191970" stroke="#191970" points="337.4136,-137.7742 345.9517,-131.5011 335.3652,-131.0806 337.4136,-137.7742"/>
</g>
<!-- Node5 -->
<g id="node6" class="node">
<title>Node5</title>
<polygon fill="none" stroke="#bfbfbf" points="145,-56.5 145,-75.5 219,-75.5 219,-56.5 145,-56.5"/>
<text text-anchor="middle" x="182" y="-63.5" font-family="FreeSans" font-size="10.00" fill="#000000">wx/dynarray.h</text>
</g>
<!-- Node4&#45;&gt;Node5 -->
<g id="edge5" class="edge">
<title>Node4&#45;&gt;Node5</title>
<path fill="none" stroke="#191970" d="M266.233,-112.2455C250.2905,-103.4928 226.6741,-90.527 208.5011,-80.5496"/>
<polygon fill="#191970" stroke="#191970" points="210.0137,-77.3873 199.5634,-75.6427 206.6448,-83.5233 210.0137,-77.3873"/>
</g>
<!-- Node6 -->
<g id="node7" class="node">
<title>Node6</title>
<polygon fill="none" stroke="#bfbfbf" points="237.5,-56.5 237.5,-75.5 330.5,-75.5 330.5,-56.5 237.5,-56.5"/>
<text text-anchor="middle" x="284" y="-63.5" font-family="FreeSans" font-size="10.00" fill="#000000">wx/html/htmlwin.h</text>
</g>
<!-- Node4&#45;&gt;Node6 -->
<g id="edge6" class="edge">
<title>Node4&#45;&gt;Node6</title>
<path fill="none" stroke="#191970" d="M284,-112.2455C284,-104.9382 284,-94.6944 284,-85.7046"/>
<polygon fill="#191970" stroke="#191970" points="287.5001,-85.6426 284,-75.6427 280.5001,-85.6427 287.5001,-85.6426"/>
</g>
<!-- Node7 -->
<g id="node8" class="node">
<title>Node7</title>
<g id="a_node8"><a xlink:href="scrollingdialog_8h" target="_top" xlink:title="scrollingdialog.h">
<polygon fill="none" stroke="#000000" points="348.5,-56.5 348.5,-75.5 433.5,-75.5 433.5,-56.5 348.5,-56.5"/>
<text text-anchor="middle" x="391" y="-63.5" font-family="FreeSans" font-size="10.00" fill="#000000">scrollingdialog.h</text>
</a>
</g>
</g>
<!-- Node4&#45;&gt;Node7 -->
<g id="edge7" class="edge">
<title>Node4&#45;&gt;Node7</title>
<path fill="none" stroke="#191970" d="M302.638,-112.2455C319.4386,-103.4527 344.3634,-90.4079 363.4618,-80.4125"/>
<polygon fill="#191970" stroke="#191970" points="365.3386,-83.3807 372.5756,-75.6427 362.0927,-77.1787 365.3386,-83.3807"/>
</g>
<!-- Node8 -->
<g id="node9" class="node">
<title>Node8</title>
<polygon fill="none" stroke="#bfbfbf" points="274,-.5 274,-19.5 338,-19.5 338,-.5 274,-.5"/>
<text text-anchor="middle" x="306" y="-7.5" font-family="FreeSans" font-size="10.00" fill="#000000">wx/dialog.h</text>
</g>
<!-- Node7&#45;&gt;Node8 -->
<g id="edge8" class="edge">
<title>Node7&#45;&gt;Node8</title>
<path fill="none" stroke="#191970" d="M376.1941,-56.2455C363.2744,-47.7337 344.3069,-35.2375 329.3448,-25.3801"/>
<polygon fill="#191970" stroke="#191970" points="330.9124,-22.2216 320.6362,-19.6427 327.0613,-28.067 330.9124,-22.2216"/>
</g>
<!-- Node9 -->
<g id="node10" class="node">
<title>Node9</title>
<polygon fill="none" stroke="#bfbfbf" points="356,-.5 356,-19.5 426,-19.5 426,-.5 356,-.5"/>
<text text-anchor="middle" x="391" y="-7.5" font-family="FreeSans" font-size="10.00" fill="#000000">wx/propdlg.h</text>
</g>
<!-- Node7&#45;&gt;Node9 -->
<g id="edge9" class="edge">
<title>Node7&#45;&gt;Node9</title>
<path fill="none" stroke="#191970" d="M391,-56.2455C391,-48.9382 391,-38.6944 391,-29.7046"/>
<polygon fill="#191970" stroke="#191970" points="394.5001,-29.6426 391,-19.6427 387.5001,-29.6427 394.5001,-29.6426"/>
</g>
<!-- Node10 -->
<g id="node11" class="node">
<title>Node10</title>
<g id="a_node11"><a xlink:href="settings_8h" target="_top" xlink:title="settings.h">
<polygon fill="none" stroke="#000000" points="444.5,-.5 444.5,-19.5 501.5,-19.5 501.5,-.5 444.5,-.5"/>
<text text-anchor="middle" x="473" y="-7.5" font-family="FreeSans" font-size="10.00" fill="#000000">settings.h</text>
</a>
</g>
</g>
<!-- Node7&#45;&gt;Node10 -->
<g id="edge10" class="edge">
<title>Node7&#45;&gt;Node10</title>
<path fill="none" stroke="#191970" d="M405.2833,-56.2455C417.747,-47.7337 436.0451,-35.2375 450.4792,-25.3801"/>
<polygon fill="#191970" stroke="#191970" points="452.5962,-28.1726 458.8804,-19.6427 448.6485,-22.392 452.5962,-28.1726"/>
</g>
</g>
</svg>
