<?xml version="1.0" encoding="UTF-8" standalone="no"?>
<!DOCTYPE svg PUBLIC "-//W3C//DTD SVG 1.1//EN"
 "http://www.w3.org/Graphics/SVG/1.1/DTD/svg11.dtd">
<!-- Generated by graphviz version 2.38.0 (20140413.2041)
 -->
<!-- Title: switcherdlg.h Pages: 1 -->
<svg width="365pt" height="140pt"
 viewBox="0.00 0.00 364.50 140.00" xmlns="http://www.w3.org/2000/svg" xmlns:xlink="http://www.w3.org/1999/xlink">
<g id="graph0" class="graph" transform="scale(1 1) rotate(0) translate(4 136)">
<title>switcherdlg.h</title>
<polygon fill="white" stroke="none" points="-4,4 -4,-136 360.5,-136 360.5,4 -4,4"/>
<!-- Node1 -->
<g id="node1" class="node"><title>Node1</title>
<polygon fill="#bfbfbf" stroke="black" points="103,-112.5 103,-131.5 175,-131.5 175,-112.5 103,-112.5"/>
<text text-anchor="middle" x="139" y="-119.5" font-family="FreeSans" font-size="10.00">switcherdlg.h</text>
</g>
<!-- Node2 -->
<g id="node2" class="node"><title>Node2</title>
<polygon fill="white" stroke="#bfbfbf" points="0,-56.5 0,-75.5 74,-75.5 74,-56.5 0,-56.5"/>
<text text-anchor="middle" x="37" y="-63.5" font-family="FreeSans" font-size="10.00">wx/dynarray.h</text>
</g>
<!-- Node1&#45;&gt;Node2 -->
<g id="edge1" class="edge"><title>Node1&#45;&gt;Node2</title>
<path fill="none" stroke="midnightblue" d="M122.612,-112.324C106.329,-103.703 81.1325,-90.3643 62.2837,-80.3855"/>
<polygon fill="midnightblue" stroke="midnightblue" points="63.8229,-77.2402 53.3474,-75.6545 60.5477,-83.4267 63.8229,-77.2402"/>
</g>
<!-- Node3 -->
<g id="node3" class="node"><title>Node3</title>
<polygon fill="white" stroke="#bfbfbf" points="92.5,-56.5 92.5,-75.5 185.5,-75.5 185.5,-56.5 92.5,-56.5"/>
<text text-anchor="middle" x="139" y="-63.5" font-family="FreeSans" font-size="10.00">wx/html/htmlwin.h</text>
</g>
<!-- Node1&#45;&gt;Node3 -->
<g id="edge2" class="edge"><title>Node1&#45;&gt;Node3</title>
<path fill="none" stroke="midnightblue" d="M139,-112.083C139,-105.006 139,-94.8611 139,-85.9865"/>
<polygon fill="midnightblue" stroke="midnightblue" points="142.5,-85.751 139,-75.7511 135.5,-85.7511 142.5,-85.751"/>
</g>
<!-- Node4 -->
<g id="node4" class="node"><title>Node4</title>
<g id="a_node4"><a xlink:href="scrollingdialog_8h" target="_top" xlink:title="scrollingdialog.h">
<polygon fill="white" stroke="black" points="203.5,-56.5 203.5,-75.5 288.5,-75.5 288.5,-56.5 203.5,-56.5"/>
<text text-anchor="middle" x="246" y="-63.5" font-family="FreeSans" font-size="10.00">scrollingdialog.h</text>
</a>
</g>
</g>
<!-- Node1&#45;&gt;Node4 -->
<g id="edge3" class="edge"><title>Node1&#45;&gt;Node4</title>
<path fill="none" stroke="midnightblue" d="M156.191,-112.324C173.351,-103.664 199.946,-90.2424 219.747,-80.249"/>
<polygon fill="midnightblue" stroke="midnightblue" points="221.501,-83.2847 228.851,-75.6545 218.347,-77.0354 221.501,-83.2847"/>
</g>
<!-- Node5 -->
<g id="node5" class="node"><title>Node5</title>
<polygon fill="white" stroke="#bfbfbf" points="129,-0.5 129,-19.5 193,-19.5 193,-0.5 129,-0.5"/>
<text text-anchor="middle" x="161" y="-7.5" font-family="FreeSans" font-size="10.00">wx/dialog.h</text>
</g>
<!-- Node4&#45;&gt;Node5 -->
<g id="edge4" class="edge"><title>Node4&#45;&gt;Node5</title>
<path fill="none" stroke="midnightblue" d="M232.343,-56.324C219.084,-47.9002 198.732,-34.9709 183.154,-25.0741"/>
<polygon fill="midnightblue" stroke="midnightblue" points="184.94,-22.0626 174.623,-19.6545 181.187,-27.9711 184.94,-22.0626"/>
</g>
<!-- Node6 -->
<g id="node6" class="node"><title>Node6</title>
<polygon fill="white" stroke="#bfbfbf" points="211,-0.5 211,-19.5 281,-19.5 281,-0.5 211,-0.5"/>
<text text-anchor="middle" x="246" y="-7.5" font-family="FreeSans" font-size="10.00">wx/propdlg.h</text>
</g>
<!-- Node4&#45;&gt;Node6 -->
<g id="edge5" class="edge"><title>Node4&#45;&gt;Node6</title>
<path fill="none" stroke="midnightblue" d="M246,-56.083C246,-49.0059 246,-38.8611 246,-29.9865"/>
<polygon fill="midnightblue" stroke="midnightblue" points="249.5,-29.751 246,-19.7511 242.5,-29.7511 249.5,-29.751"/>
</g>
<!-- Node7 -->
<g id="node7" class="node"><title>Node7</title>
<g id="a_node7"><a xlink:href="settings_8h" target="_top" xlink:title="settings.h">
<polygon fill="white" stroke="black" points="299.5,-0.5 299.5,-19.5 356.5,-19.5 356.5,-0.5 299.5,-0.5"/>
<text text-anchor="middle" x="328" y="-7.5" font-family="FreeSans" font-size="10.00">settings.h</text>
</a>
</g>
</g>
<!-- Node4&#45;&gt;Node7 -->
<g id="edge6" class="edge"><title>Node4&#45;&gt;Node7</title>
<path fill="none" stroke="midnightblue" d="M259.175,-56.324C271.847,-47.979 291.233,-35.2122 306.206,-25.3524"/>
<polygon fill="midnightblue" stroke="midnightblue" points="308.431,-28.0776 314.858,-19.6545 304.581,-22.2313 308.431,-28.0776"/>
</g>
</g>
</svg>
