<?xml version="1.0" encoding="UTF-8" standalone="no"?>
<!DOCTYPE svg PUBLIC "-//W3C//DTD SVG 1.1//EN"
 "http://www.w3.org/Graphics/SVG/1.1/DTD/svg11.dtd">
<!-- Generated by graphviz version 2.40.1 (20161225.0304)
 -->
<!-- Title: systemheadersthread.cpp Pages: 1 -->
<svg width="2191pt" height="196pt"
 viewBox="0.00 0.00 2191.00 196.00" xmlns="http://www.w3.org/2000/svg" xmlns:xlink="http://www.w3.org/1999/xlink">
<g id="graph0" class="graph" transform="scale(1 1) rotate(0) translate(4 192)">
<title>systemheadersthread.cpp</title>
<!-- Node0 -->
<g id="node1" class="node">
<title>Node0</title>
<polygon fill="#bfbfbf" stroke="#000000" points="125.5,-168.5 125.5,-187.5 250.5,-187.5 250.5,-168.5 125.5,-168.5"/>
<text text-anchor="middle" x="188" y="-175.5" font-family="FreeSans" font-size="10.00" fill="#000000">systemheadersthread.cpp</text>
</g>
<!-- Node1 -->
<g id="node2" class="node">
<title>Node1</title>
<g id="a_node2"><a xlink:href="sdk_8h" target="_top" xlink:title="sdk.h">
<polygon fill="none" stroke="#000000" points="591.5,-112.5 591.5,-131.5 630.5,-131.5 630.5,-112.5 591.5,-112.5"/>
<text text-anchor="middle" x="611" y="-119.5" font-family="FreeSans" font-size="10.00" fill="#000000">sdk.h</text>
</a>
</g>
</g>
<!-- Node0&#45;&gt;Node1 -->
<g id="edge1" class="edge">
<title>Node0&#45;&gt;Node1</title>
<path fill="none" stroke="#191970" d="M250.8706,-169.6767C343.4972,-157.4141 513.0286,-134.9702 581.3247,-125.9287"/>
<polygon fill="#191970" stroke="#191970" points="581.9351,-129.3785 591.3893,-124.5962 581.0164,-122.439 581.9351,-129.3785"/>
</g>
<!-- Node137 -->
<g id="node30" class="node">
<title>Node137</title>
<g id="a_node30"><a xlink:href="systemheadersthread_8h" target="_top" xlink:title="systemheadersthread.h">
<polygon fill="none" stroke="#000000" points="83.5,-112.5 83.5,-131.5 198.5,-131.5 198.5,-112.5 83.5,-112.5"/>
<text text-anchor="middle" x="141" y="-119.5" font-family="FreeSans" font-size="10.00" fill="#000000">systemheadersthread.h</text>
</a>
</g>
</g>
<!-- Node0&#45;&gt;Node137 -->
<g id="edge29" class="edge">
<title>Node0&#45;&gt;Node137</title>
<path fill="none" stroke="#191970" d="M179.8132,-168.2455C173.1411,-160.2958 163.5521,-148.8706 155.5747,-139.3656"/>
<polygon fill="#191970" stroke="#191970" points="158.2026,-137.0524 149.093,-131.6427 152.8408,-141.5525 158.2026,-137.0524"/>
</g>
<!-- Node2 -->
<g id="node3" class="node">
<title>Node2</title>
<g id="a_node3"><a xlink:href="sdk__common_8h" target="_top" xlink:title="sdk_common.h">
<polygon fill="none" stroke="#ff0000" points="946,-56.5 946,-75.5 1028,-75.5 1028,-56.5 946,-56.5"/>
<text text-anchor="middle" x="987" y="-63.5" font-family="FreeSans" font-size="10.00" fill="#000000">sdk_common.h</text>
</a>
</g>
</g>
<!-- Node1&#45;&gt;Node2 -->
<g id="edge2" class="edge">
<title>Node1&#45;&gt;Node2</title>
<path fill="none" stroke="#191970" d="M630.686,-119.068C687.2567,-110.6426 851.6112,-86.1643 935.8747,-73.6144"/>
<polygon fill="#191970" stroke="#191970" points="936.6114,-77.0434 945.9867,-72.1084 935.5802,-70.1197 936.6114,-77.0434"/>
</g>
<!-- Node3 -->
<g id="node4" class="node">
<title>Node3</title>
<polygon fill="none" stroke="#bfbfbf" points="879,-.5 879,-19.5 947,-19.5 947,-.5 879,-.5"/>
<text text-anchor="middle" x="913" y="-7.5" font-family="FreeSans" font-size="10.00" fill="#000000">wx/wxprec.h</text>
</g>
<!-- Node2&#45;&gt;Node3 -->
<g id="edge3" class="edge">
<title>Node2&#45;&gt;Node3</title>
<path fill="none" stroke="#191970" d="M974.1102,-56.2455C963.0746,-47.8943 946.9708,-35.7076 934.0647,-25.9408"/>
<polygon fill="#191970" stroke="#191970" points="935.8283,-22.8862 925.7421,-19.6427 931.6041,-28.4681 935.8283,-22.8862"/>
</g>
<!-- Node4 -->
<g id="node5" class="node">
<title>Node4</title>
<g id="a_node5"><a xlink:href="prep_8h" target="_top" xlink:title="prep.h">
<polygon fill="none" stroke="#000000" points="965.5,-.5 965.5,-19.5 1008.5,-19.5 1008.5,-.5 965.5,-.5"/>
<text text-anchor="middle" x="987" y="-7.5" font-family="FreeSans" font-size="10.00" fill="#000000">prep.h</text>
</a>
</g>
</g>
<!-- Node2&#45;&gt;Node4 -->
<g id="edge4" class="edge">
<title>Node2&#45;&gt;Node4</title>
<path fill="none" stroke="#191970" d="M987,-56.2455C987,-48.9382 987,-38.6944 987,-29.7046"/>
<polygon fill="#191970" stroke="#191970" points="990.5001,-29.6426 987,-19.6427 983.5001,-29.6427 990.5001,-29.6426"/>
</g>
<!-- Node5 -->
<g id="node6" class="node">
<title>Node5</title>
<polygon fill="none" stroke="#bfbfbf" points="1027,-.5 1027,-19.5 1081,-19.5 1081,-.5 1027,-.5"/>
<text text-anchor="middle" x="1054" y="-7.5" font-family="FreeSans" font-size="10.00" fill="#000000">wx/app.h</text>
</g>
<!-- Node2&#45;&gt;Node5 -->
<g id="edge5" class="edge">
<title>Node2&#45;&gt;Node5</title>
<path fill="none" stroke="#191970" d="M998.6705,-56.2455C1008.5661,-47.9746 1022.9627,-35.9416 1034.5901,-26.2232"/>
<polygon fill="#191970" stroke="#191970" points="1037.035,-28.7413 1042.4632,-19.6427 1032.5458,-23.3703 1037.035,-28.7413"/>
</g>
<!-- Node6 -->
<g id="node7" class="node">
<title>Node6</title>
<polygon fill="none" stroke="#bfbfbf" points="0,-.5 0,-19.5 60,-19.5 60,-.5 0,-.5"/>
<text text-anchor="middle" x="30" y="-7.5" font-family="FreeSans" font-size="10.00" fill="#000000">wx/arrstr.h</text>
</g>
<!-- Node2&#45;&gt;Node6 -->
<g id="edge6" class="edge">
<title>Node2&#45;&gt;Node6</title>
<path fill="none" stroke="#191970" d="M945.8405,-65.0372C793.4811,-61.3055 260.9375,-46.7295 70.0259,-19.8145"/>
<polygon fill="#191970" stroke="#191970" points="70.5129,-16.3485 60.1104,-18.3579 69.4955,-23.2742 70.5129,-16.3485"/>
</g>
<!-- Node7 -->
<g id="node8" class="node">
<title>Node7</title>
<polygon fill="none" stroke="#bfbfbf" points="1099.5,-.5 1099.5,-19.5 1178.5,-19.5 1178.5,-.5 1099.5,-.5"/>
<text text-anchor="middle" x="1139" y="-7.5" font-family="FreeSans" font-size="10.00" fill="#000000">wx/bmpbuttn.h</text>
</g>
<!-- Node2&#45;&gt;Node7 -->
<g id="edge7" class="edge">
<title>Node2&#45;&gt;Node7</title>
<path fill="none" stroke="#191970" d="M1013.1297,-56.3733C1038.0768,-47.1822 1075.8592,-33.2624 1103.5206,-23.0713"/>
<polygon fill="#191970" stroke="#191970" points="1105.0378,-26.2424 1113.2112,-19.5011 1102.6178,-19.674 1105.0378,-26.2424"/>
</g>
<!-- Node8 -->
<g id="node9" class="node">
<title>Node8</title>
<polygon fill="none" stroke="#bfbfbf" points="1196.5,-.5 1196.5,-19.5 1261.5,-19.5 1261.5,-.5 1196.5,-.5"/>
<text text-anchor="middle" x="1229" y="-7.5" font-family="FreeSans" font-size="10.00" fill="#000000">wx/button.h</text>
</g>
<!-- Node2&#45;&gt;Node8 -->
<g id="edge8" class="edge">
<title>Node2&#45;&gt;Node8</title>
<path fill="none" stroke="#191970" d="M1028.2301,-56.7447C1066.7447,-48.0587 1126.1076,-34.5686 1186.2825,-20.3856"/>
<polygon fill="#191970" stroke="#191970" points="1187.4086,-23.716 1196.3364,-18.0112 1185.7996,-16.9034 1187.4086,-23.716"/>
</g>
<!-- Node9 -->
<g id="node10" class="node">
<title>Node9</title>
<polygon fill="none" stroke="#bfbfbf" points="1280,-.5 1280,-19.5 1360,-19.5 1360,-.5 1280,-.5"/>
<text text-anchor="middle" x="1320" y="-7.5" font-family="FreeSans" font-size="10.00" fill="#000000">wx/checkbox.h</text>
</g>
<!-- Node2&#45;&gt;Node9 -->
<g id="edge9" class="edge">
<title>Node2&#45;&gt;Node9</title>
<path fill="none" stroke="#191970" d="M1028.0066,-59.8946C1081.3542,-51.8337 1177.6944,-36.8745 1269.8587,-20.1537"/>
<polygon fill="#191970" stroke="#191970" points="1270.705,-23.5572 1279.9144,-18.3192 1269.4486,-16.6708 1270.705,-23.5572"/>
</g>
<!-- Node10 -->
<g id="node11" class="node">
<title>Node10</title>
<polygon fill="none" stroke="#bfbfbf" points="1378,-.5 1378,-19.5 1452,-19.5 1452,-.5 1378,-.5"/>
<text text-anchor="middle" x="1415" y="-7.5" font-family="FreeSans" font-size="10.00" fill="#000000">wx/checklst.h</text>
</g>
<!-- Node2&#45;&gt;Node10 -->
<g id="edge10" class="edge">
<title>Node2&#45;&gt;Node10</title>
<path fill="none" stroke="#191970" d="M1028.1671,-62.3264C1096.5949,-55.941 1238.2294,-41.5412 1367.8004,-20.0715"/>
<polygon fill="#191970" stroke="#191970" points="1368.6169,-23.4835 1377.9011,-18.3791 1367.4602,-16.5798 1368.6169,-23.4835"/>
</g>
<!-- Node11 -->
<g id="node12" class="node">
<title>Node11</title>
<polygon fill="none" stroke="#bfbfbf" points="1470.5,-.5 1470.5,-19.5 1537.5,-19.5 1537.5,-.5 1470.5,-.5"/>
<text text-anchor="middle" x="1504" y="-7.5" font-family="FreeSans" font-size="10.00" fill="#000000">wx/choice.h</text>
</g>
<!-- Node2&#45;&gt;Node11 -->
<g id="edge11" class="edge">
<title>Node2&#45;&gt;Node11</title>
<path fill="none" stroke="#191970" d="M1028.1305,-63.8373C1109.0388,-59.1886 1294.6712,-46.5749 1460.4031,-19.895"/>
<polygon fill="#191970" stroke="#191970" points="1460.9765,-23.3478 1470.2827,-18.2838 1459.8497,-16.4391 1460.9765,-23.3478"/>
</g>
<!-- Node12 -->
<g id="node13" class="node">
<title>Node12</title>
<polygon fill="none" stroke="#bfbfbf" points="1556,-.5 1556,-19.5 1630,-19.5 1630,-.5 1556,-.5"/>
<text text-anchor="middle" x="1593" y="-7.5" font-family="FreeSans" font-size="10.00" fill="#000000">wx/choicdlg.h</text>
</g>
<!-- Node2&#45;&gt;Node12 -->
<g id="edge12" class="edge">
<title>Node2&#45;&gt;Node12</title>
<path fill="none" stroke="#191970" d="M1028.3145,-64.4754C1119.8187,-60.6976 1346.5801,-49.1282 1545.8525,-19.9918"/>
<polygon fill="#191970" stroke="#191970" points="1546.541,-23.4281 1555.9204,-18.5011 1545.5156,-16.5036 1546.541,-23.4281"/>
</g>
<!-- Node13 -->
<g id="node14" class="node">
<title>Node13</title>
<polygon fill="none" stroke="#bfbfbf" points="1648,-.5 1648,-19.5 1720,-19.5 1720,-.5 1648,-.5"/>
<text text-anchor="middle" x="1684" y="-7.5" font-family="FreeSans" font-size="10.00" fill="#000000">wx/colordlg.h</text>
</g>
<!-- Node2&#45;&gt;Node13 -->
<g id="edge13" class="edge">
<title>Node2&#45;&gt;Node13</title>
<path fill="none" stroke="#191970" d="M1028.0408,-65.2137C1129.7687,-62.8148 1401.7933,-53.6516 1637.5982,-20.0078"/>
<polygon fill="#191970" stroke="#191970" points="1638.3395,-23.4371 1647.7361,-18.5428 1637.3383,-16.5091 1638.3395,-23.4371"/>
</g>
<!-- Node14 -->
<g id="node15" class="node">
<title>Node14</title>
<polygon fill="none" stroke="#bfbfbf" points="1738.5,-.5 1738.5,-19.5 1821.5,-19.5 1821.5,-.5 1738.5,-.5"/>
<text text-anchor="middle" x="1780" y="-7.5" font-family="FreeSans" font-size="10.00" fill="#000000">wx/combobox.h</text>
</g>
<!-- Node2&#45;&gt;Node14 -->
<g id="edge14" class="edge">
<title>Node2&#45;&gt;Node14</title>
<path fill="none" stroke="#191970" d="M1028.2031,-65.3469C1139.4919,-63.1784 1455.5272,-54.3445 1728.2344,-19.9237"/>
<polygon fill="#191970" stroke="#191970" points="1728.848,-23.3738 1738.3244,-18.6358 1727.9617,-16.4302 1728.848,-23.3738"/>
</g>
<!-- Node15 -->
<g id="node16" class="node">
<title>Node15</title>
<polygon fill="none" stroke="#bfbfbf" points="1839.5,-.5 1839.5,-19.5 1916.5,-19.5 1916.5,-.5 1839.5,-.5"/>
<text text-anchor="middle" x="1878" y="-7.5" font-family="FreeSans" font-size="10.00" fill="#000000">wx/confbase.h</text>
</g>
<!-- Node2&#45;&gt;Node15 -->
<g id="edge15" class="edge">
<title>Node2&#45;&gt;Node15</title>
<path fill="none" stroke="#191970" d="M1028.0443,-64.6086C1171.8953,-59.6027 1653.5704,-41.7168 1829.226,-20.0203"/>
<polygon fill="#191970" stroke="#191970" points="1829.8815,-23.4649 1839.354,-18.7192 1828.9895,-16.522 1829.8815,-23.4649"/>
</g>
<!-- Node16 -->
<g id="node17" class="node">
<title>Node16</title>
<polygon fill="none" stroke="#bfbfbf" points="1935,-.5 1935,-19.5 2011,-19.5 2011,-.5 1935,-.5"/>
<text text-anchor="middle" x="1973" y="-7.5" font-family="FreeSans" font-size="10.00" fill="#000000">wx/datetime.h</text>
</g>
<!-- Node2&#45;&gt;Node16 -->
<g id="edge16" class="edge">
<title>Node2&#45;&gt;Node16</title>
<path fill="none" stroke="#191970" d="M1028.2578,-64.8622C1182.8942,-60.4629 1728.8056,-43.6872 1924.6944,-19.9305"/>
<polygon fill="#191970" stroke="#191970" points="1925.3849,-23.3713 1934.8689,-18.6487 1924.5098,-16.4262 1925.3849,-23.3713"/>
</g>
<!-- Node17 -->
<g id="node18" class="node">
<title>Node17</title>
<polygon fill="none" stroke="#bfbfbf" points="2029,-.5 2029,-19.5 2101,-19.5 2101,-.5 2029,-.5"/>
<text text-anchor="middle" x="2065" y="-7.5" font-family="FreeSans" font-size="10.00" fill="#000000">wx/dcclient.h</text>
</g>
<!-- Node2&#45;&gt;Node17 -->
<g id="edge17" class="edge">
<title>Node2&#45;&gt;Node17</title>
<path fill="none" stroke="#191970" d="M1028.0517,-65.1277C1192.3529,-61.4909 1803.6075,-46.534 2018.8029,-19.9019"/>
<polygon fill="#191970" stroke="#191970" points="2019.2748,-23.3701 2028.7475,-18.6248 2018.3832,-16.4271 2019.2748,-23.3701"/>
</g>
<!-- Node18 -->
<g id="node19" class="node">
<title>Node18</title>
<polygon fill="none" stroke="#bfbfbf" points="2119,-.5 2119,-19.5 2183,-19.5 2183,-.5 2119,-.5"/>
<text text-anchor="middle" x="2151" y="-7.5" font-family="FreeSans" font-size="10.00" fill="#000000">wx/dialog.h</text>
</g>
<!-- Node2&#45;&gt;Node18 -->
<g id="edge18" class="edge">
<title>Node2&#45;&gt;Node18</title>
<path fill="none" stroke="#191970" d="M1028.0216,-65.4093C1201.2959,-62.7488 1874.6726,-50.7047 2108.7431,-19.8581"/>
<polygon fill="#191970" stroke="#191970" points="2109.4549,-23.2934 2118.888,-18.4699 2108.5058,-16.3581 2109.4549,-23.2934"/>
</g>
<!-- Node19 -->
<g id="node20" class="node">
<title>Node19</title>
<polygon fill="none" stroke="#bfbfbf" points="390.5,-.5 390.5,-19.5 439.5,-19.5 439.5,-.5 390.5,-.5"/>
<text text-anchor="middle" x="415" y="-7.5" font-family="FreeSans" font-size="10.00" fill="#000000">wx/dir.h</text>
</g>
<!-- Node2&#45;&gt;Node19 -->
<g id="edge19" class="edge">
<title>Node2&#45;&gt;Node19</title>
<path fill="none" stroke="#191970" d="M945.7888,-65.2878C856.726,-63.1474 639.6986,-54.6913 449.6311,-19.7482"/>
<polygon fill="#191970" stroke="#191970" points="450.2149,-16.2967 439.7423,-17.9014 448.9297,-23.1778 450.2149,-16.2967"/>
</g>
<!-- Node20 -->
<g id="node21" class="node">
<title>Node20</title>
<polygon fill="none" stroke="#bfbfbf" points="458,-.5 458,-19.5 532,-19.5 532,-.5 458,-.5"/>
<text text-anchor="middle" x="495" y="-7.5" font-family="FreeSans" font-size="10.00" fill="#000000">wx/dynarray.h</text>
</g>
<!-- Node2&#45;&gt;Node20 -->
<g id="edge20" class="edge">
<title>Node2&#45;&gt;Node20</title>
<path fill="none" stroke="#191970" d="M945.7047,-63.2098C866.8855,-57.5575 689.689,-43.277 542,-20 541.8996,-19.9842 541.799,-19.9683 541.6984,-19.9523"/>
<polygon fill="#191970" stroke="#191970" points="542.5852,-16.5542 532.1323,-18.2826 541.3815,-23.45 542.5852,-16.5542"/>
</g>
<!-- Node21 -->
<g id="node22" class="node">
<title>Node21</title>
<polygon fill="none" stroke="#bfbfbf" points="242,-.5 242,-19.5 304,-19.5 304,-.5 242,-.5"/>
<text text-anchor="middle" x="273" y="-7.5" font-family="FreeSans" font-size="10.00" fill="#000000">wx/event.h</text>
</g>
<!-- Node2&#45;&gt;Node21 -->
<g id="edge21" class="edge">
<title>Node2&#45;&gt;Node21</title>
<path fill="none" stroke="#191970" d="M945.8938,-64.1499C822.3304,-58.4415 454.6477,-40.344 314.4274,-19.9274"/>
<polygon fill="#191970" stroke="#191970" points="314.7481,-16.4359 304.3351,-18.3904 313.6941,-23.3561 314.7481,-16.4359"/>
</g>
<!-- Node22 -->
<g id="node23" class="node">
<title>Node22</title>
<polygon fill="none" stroke="#bfbfbf" points="322,-.5 322,-19.5 372,-19.5 372,-.5 322,-.5"/>
<text text-anchor="middle" x="347" y="-7.5" font-family="FreeSans" font-size="10.00" fill="#000000">wx/file.h</text>
</g>
<!-- Node2&#45;&gt;Node22 -->
<g id="edge22" class="edge">
<title>Node2&#45;&gt;Node22</title>
<path fill="none" stroke="#191970" d="M945.964,-63.9655C828.239,-57.9565 490.8749,-39.4851 382,-20 381.8989,-19.9819 381.7977,-19.9636 381.6964,-19.9452"/>
<polygon fill="#191970" stroke="#191970" points="382.6112,-16.5629 372.0921,-17.827 381.1035,-23.3987 382.6112,-16.5629"/>
</g>
<!-- Node23 -->
<g id="node24" class="node">
<title>Node23</title>
<polygon fill="none" stroke="#bfbfbf" points="550.5,-.5 550.5,-19.5 613.5,-19.5 613.5,-.5 550.5,-.5"/>
<text text-anchor="middle" x="582" y="-7.5" font-family="FreeSans" font-size="10.00" fill="#000000">wx/filedlg.h</text>
</g>
<!-- Node2&#45;&gt;Node23 -->
<g id="edge23" class="edge">
<title>Node2&#45;&gt;Node23</title>
<path fill="none" stroke="#191970" d="M945.8245,-62.3338C879.9054,-56.1299 746.473,-42.2009 623.6603,-19.9374"/>
<polygon fill="#191970" stroke="#191970" points="624.1751,-16.4734 613.7075,-18.1102 622.9111,-23.3584 624.1751,-16.4734"/>
</g>
<!-- Node24 -->
<g id="node25" class="node">
<title>Node24</title>
<polygon fill="none" stroke="#bfbfbf" points="632,-.5 632,-19.5 706,-19.5 706,-.5 632,-.5"/>
<text text-anchor="middle" x="669" y="-7.5" font-family="FreeSans" font-size="10.00" fill="#000000">wx/filename.h</text>
</g>
<!-- Node2&#45;&gt;Node24 -->
<g id="edge24" class="edge">
<title>Node2&#45;&gt;Node24</title>
<path fill="none" stroke="#191970" d="M945.5832,-59.5178C892.3421,-51.0593 797.0899,-35.5018 716,-20 715.9001,-19.9809 715.8002,-19.9618 715.7001,-19.9426"/>
<polygon fill="#191970" stroke="#191970" points="716.6606,-16.5649 706.1715,-18.0576 715.3021,-23.4318 716.6606,-16.5649"/>
</g>
<!-- Node25 -->
<g id="node26" class="node">
<title>Node25</title>
<polygon fill="none" stroke="#bfbfbf" points="724.5,-.5 724.5,-19.5 779.5,-19.5 779.5,-.5 724.5,-.5"/>
<text text-anchor="middle" x="752" y="-7.5" font-family="FreeSans" font-size="10.00" fill="#000000">wx/font.h</text>
</g>
<!-- Node2&#45;&gt;Node25 -->
<g id="edge25" class="edge">
<title>Node2&#45;&gt;Node25</title>
<path fill="none" stroke="#191970" d="M945.9423,-56.9104C907.9417,-48.3974 849.6337,-35.0826 789.8478,-20.1503"/>
<polygon fill="#191970" stroke="#191970" points="790.4037,-16.6813 779.8525,-17.6419 788.6998,-23.4708 790.4037,-16.6813"/>
</g>
<!-- Node26 -->
<g id="node27" class="node">
<title>Node26</title>
<polygon fill="none" stroke="#bfbfbf" points="797.5,-.5 797.5,-19.5 860.5,-19.5 860.5,-.5 797.5,-.5"/>
<text text-anchor="middle" x="829" y="-7.5" font-family="FreeSans" font-size="10.00" fill="#000000">wx/frame.h</text>
</g>
<!-- Node2&#45;&gt;Node26 -->
<g id="edge26" class="edge">
<title>Node2&#45;&gt;Node26</title>
<path fill="none" stroke="#191970" d="M959.8388,-56.3733C933.7933,-47.1419 894.2884,-33.1402 865.5021,-22.9375"/>
<polygon fill="#191970" stroke="#191970" points="866.4015,-19.5429 855.8067,-19.5011 864.063,-26.1408 866.4015,-19.5429"/>
</g>
<!-- Node53 -->
<g id="node28" class="node">
<title>Node53</title>
<polygon fill="none" stroke="#bfbfbf" points="78,-.5 78,-19.5 140,-19.5 140,-.5 78,-.5"/>
<text text-anchor="middle" x="109" y="-7.5" font-family="FreeSans" font-size="10.00" fill="#000000">wx/string.h</text>
</g>
<!-- Node2&#45;&gt;Node53 -->
<g id="edge27" class="edge">
<title>Node2&#45;&gt;Node53</title>
<path fill="none" stroke="#191970" d="M945.9688,-64.782C802.7391,-60.3719 324.6763,-44.2831 150.3784,-19.8977"/>
<polygon fill="#191970" stroke="#191970" points="150.7296,-16.412 140.3289,-18.4306 149.7183,-23.3386 150.7296,-16.412"/>
</g>
<!-- Node56 -->
<g id="node29" class="node">
<title>Node56</title>
<polygon fill="none" stroke="#bfbfbf" points="158.5,-.5 158.5,-19.5 223.5,-19.5 223.5,-.5 158.5,-.5"/>
<text text-anchor="middle" x="191" y="-7.5" font-family="FreeSans" font-size="10.00" fill="#000000">wx/thread.h</text>
</g>
<!-- Node2&#45;&gt;Node56 -->
<g id="edge28" class="edge">
<title>Node2&#45;&gt;Node56</title>
<path fill="none" stroke="#191970" d="M945.9056,-64.4309C812.4243,-59.1901 391.0949,-41.4806 233.8781,-19.8352"/>
<polygon fill="#191970" stroke="#191970" points="234.3062,-16.3608 223.9103,-18.4038 233.3112,-23.2898 234.3062,-16.3608"/>
</g>
<!-- Node137&#45;&gt;Node6 -->
<g id="edge30" class="edge">
<title>Node137&#45;&gt;Node6</title>
<path fill="none" stroke="#191970" d="M106.4142,-112.3466C86.9751,-105.2538 63.7294,-93.7118 49,-76 38.1714,-62.9789 33.51,-44.0906 31.5057,-29.8535"/>
<polygon fill="#191970" stroke="#191970" points="34.9555,-29.1996 30.4009,-19.6337 27.996,-29.952 34.9555,-29.1996"/>
</g>
<!-- Node137&#45;&gt;Node53 -->
<g id="edge31" class="edge">
<title>Node137&#45;&gt;Node53</title>
<path fill="none" stroke="#191970" d="M138.2717,-112.4509C133.0289,-94.1013 121.4545,-53.5908 114.5341,-29.3693"/>
<polygon fill="#191970" stroke="#191970" points="117.834,-28.1786 111.7214,-19.5249 111.1033,-30.1017 117.834,-28.1786"/>
</g>
<!-- Node137&#45;&gt;Node56 -->
<g id="edge32" class="edge">
<title>Node137&#45;&gt;Node56</title>
<path fill="none" stroke="#191970" d="M145.263,-112.4509C153.5286,-93.936 171.8665,-52.8591 182.6434,-28.7187"/>
<polygon fill="#191970" stroke="#191970" points="185.8672,-30.0831 186.7478,-19.5249 179.4753,-27.2295 185.8672,-30.0831"/>
</g>
<!-- Node89 -->
<g id="node31" class="node">
<title>Node89</title>
<polygon fill="none" stroke="#bfbfbf" points="58.5,-56.5 58.5,-75.5 93.5,-75.5 93.5,-56.5 58.5,-56.5"/>
<text text-anchor="middle" x="76" y="-63.5" font-family="FreeSans" font-size="10.00" fill="#000000">map</text>
</g>
<!-- Node137&#45;&gt;Node89 -->
<g id="edge33" class="edge">
<title>Node137&#45;&gt;Node89</title>
<path fill="none" stroke="#191970" d="M129.6779,-112.2455C120.0777,-103.9746 106.1108,-91.9416 94.8305,-82.2232"/>
<polygon fill="#191970" stroke="#191970" points="97.053,-79.5182 87.1924,-75.6427 92.484,-84.8214 97.053,-79.5182"/>
</g>
<!-- Node138 -->
<g id="node32" class="node">
<title>Node138</title>
<g id="a_node32"><a xlink:href="parser_8h" target="_top" xlink:title="parser/parser.h">
<polygon fill="none" stroke="#ff0000" points="188,-56.5 188,-75.5 268,-75.5 268,-56.5 188,-56.5"/>
<text text-anchor="middle" x="228" y="-63.5" font-family="FreeSans" font-size="10.00" fill="#000000">parser/parser.h</text>
</a>
</g>
</g>
<!-- Node137&#45;&gt;Node138 -->
<g id="edge34" class="edge">
<title>Node137&#45;&gt;Node138</title>
<path fill="none" stroke="#191970" d="M156.1542,-112.2455C169.5027,-103.6534 189.1586,-91.0014 204.5383,-81.1018"/>
<polygon fill="#191970" stroke="#191970" points="206.5051,-83.9982 213.0194,-75.6427 202.7164,-78.1121 206.5051,-83.9982"/>
</g>
<!-- Node138&#45;&gt;Node6 -->
<g id="edge35" class="edge">
<title>Node138&#45;&gt;Node6</title>
<path fill="none" stroke="#191970" d="M193.9626,-56.3733C159.4989,-46.6259 106.2301,-31.56 69.8253,-21.2637"/>
<polygon fill="#191970" stroke="#191970" points="70.6092,-17.8482 60.0341,-18.4945 68.7041,-24.584 70.6092,-17.8482"/>
</g>
<!-- Node138&#45;&gt;Node21 -->
<g id="edge36" class="edge">
<title>Node138&#45;&gt;Node21</title>
<path fill="none" stroke="#191970" d="M235.8384,-56.2455C242.162,-48.3761 251.2224,-37.101 258.8136,-27.6542"/>
<polygon fill="#191970" stroke="#191970" points="261.7158,-29.6302 265.2514,-19.6427 256.2592,-25.2454 261.7158,-29.6302"/>
</g>
<!-- Node138&#45;&gt;Node22 -->
<g id="edge37" class="edge">
<title>Node138&#45;&gt;Node22</title>
<path fill="none" stroke="#191970" d="M248.4568,-56.3733C267.4738,-47.4241 296.0175,-33.9917 317.4976,-23.8835"/>
<polygon fill="#191970" stroke="#191970" points="319.2522,-26.926 326.8101,-19.5011 316.2716,-20.5923 319.2522,-26.926"/>
</g>
<!-- Node138&#45;&gt;Node53 -->
<g id="edge38" class="edge">
<title>Node138&#45;&gt;Node53</title>
<path fill="none" stroke="#191970" d="M207.5432,-56.3733C188.5262,-47.4241 159.9825,-33.9917 138.5024,-23.8835"/>
<polygon fill="#191970" stroke="#191970" points="139.7284,-20.5923 129.1899,-19.5011 136.7478,-26.926 139.7284,-20.5923"/>
</g>
<!-- Node138&#45;&gt;Node56 -->
<g id="edge39" class="edge">
<title>Node138&#45;&gt;Node56</title>
<path fill="none" stroke="#191970" d="M221.5551,-56.2455C216.4618,-48.5367 209.2092,-37.5598 203.048,-28.2348"/>
<polygon fill="#191970" stroke="#191970" points="205.8038,-26.0566 197.3711,-19.6427 199.9635,-29.9155 205.8038,-26.0566"/>
</g>
</g>
</svg>
