<?xml version="1.0" encoding="UTF-8" standalone="no"?>
<!DOCTYPE svg PUBLIC "-//W3C//DTD SVG 1.1//EN"
 "http://www.w3.org/Graphics/SVG/1.1/DTD/svg11.dtd">
<!-- Generated by graphviz version 2.40.1 (20161225.0304)
 -->
<!-- Title: threadsdlg.h Pages: 1 -->
<svg width="204pt" height="95pt"
 viewBox="0.00 0.00 204.00 95.00" xmlns="http://www.w3.org/2000/svg" xmlns:xlink="http://www.w3.org/1999/xlink">
<g id="graph0" class="graph" transform="scale(1 1) rotate(0) translate(4 91)">
<title>threadsdlg.h</title>
<!-- Node30 -->
<g id="node1" class="node">
<title>Node30</title>
<polygon fill="#bfbfbf" stroke="#000000" points="68.5,-67.5 68.5,-86.5 136.5,-86.5 136.5,-67.5 68.5,-67.5"/>
<text text-anchor="middle" x="102.5" y="-74.5" font-family="FreeSans" font-size="10.00" fill="#000000">threadsdlg.h</text>
</g>
<!-- Node31 -->
<g id="node2" class="node">
<title>Node31</title>
<g id="a_node2"><a xlink:href="debugger__interface__creator_8cpp" target="_top" xlink:title="debugger_interface\l_creator.cpp">
<polygon fill="none" stroke="#000000" points="0,-.5 0,-30.5 99,-30.5 99,-.5 0,-.5"/>
<text text-anchor="start" x="8" y="-18.5" font-family="FreeSans" font-size="10.00" fill="#000000">debugger_interface</text>
<text text-anchor="middle" x="49.5" y="-7.5" font-family="FreeSans" font-size="10.00" fill="#000000">_creator.cpp</text>
</a>
</g>
</g>
<!-- Node30&#45;&gt;Node31 -->
<g id="edge1" class="edge">
<title>Node30&#45;&gt;Node31</title>
<path fill="none" stroke="#191970" d="M87.5491,-59.6514C79.6493,-50.4845 70.047,-39.3423 62.4653,-30.5446"/>
<polygon fill="#191970" stroke="#191970" points="85.0392,-62.1003 94.2188,-67.3906 90.3418,-57.5306 85.0392,-62.1003"/>
</g>
<!-- Node32 -->
<g id="node3" class="node">
<title>Node32</title>
<g id="a_node3"><a xlink:href="threadsdlg_8cpp" target="_top" xlink:title="threadsdlg.cpp">
<polygon fill="none" stroke="#000000" points="117,-6 117,-25 196,-25 196,-6 117,-6"/>
<text text-anchor="middle" x="156.5" y="-13" font-family="FreeSans" font-size="10.00" fill="#000000">threadsdlg.cpp</text>
</a>
</g>
</g>
<!-- Node30&#45;&gt;Node32 -->
<g id="edge2" class="edge">
<title>Node30&#45;&gt;Node32</title>
<path fill="none" stroke="#191970" d="M117.8005,-59.5744C127.5668,-48.4517 139.865,-34.4454 147.9435,-25.2449"/>
<polygon fill="#191970" stroke="#191970" points="114.9055,-57.5669 110.9375,-67.3906 120.1656,-62.1855 114.9055,-57.5669"/>
</g>
</g>
</svg>
