<?xml version="1.0" encoding="UTF-8" standalone="no"?>
<!DOCTYPE svg PUBLIC "-//W3C//DTD SVG 1.1//EN"
 "http://www.w3.org/Graphics/SVG/1.1/DTD/svg11.dtd">
<!-- Generated by graphviz version 2.38.0 (20140413.2041)
 -->
<!-- Title: tokentree.cpp Pages: 1 -->
<svg width="1282pt" height="308pt"
 viewBox="0.00 0.00 1282.38 308.00" xmlns="http://www.w3.org/2000/svg" xmlns:xlink="http://www.w3.org/1999/xlink">
<g id="graph0" class="graph" transform="scale(1 1) rotate(0) translate(4 304)">
<title>tokentree.cpp</title>
<polygon fill="white" stroke="none" points="-4,4 -4,-304 1278.38,-304 1278.38,4 -4,4"/>
<!-- Node1 -->
<g id="node1" class="node"><title>Node1</title>
<polygon fill="#bfbfbf" stroke="black" points="318.883,-280.5 318.883,-299.5 393.883,-299.5 393.883,-280.5 318.883,-280.5"/>
<text text-anchor="middle" x="356.383" y="-287.5" font-family="FreeSans" font-size="10.00">tokentree.cpp</text>
</g>
<!-- Node2 -->
<g id="node2" class="node"><title>Node2</title>
<g id="a_node2"><a xlink:href="tokentree_8h.xhtml" target="_top" xlink:title="tokentree.h">
<polygon fill="white" stroke="black" points="232.883,-168.5 232.883,-187.5 297.883,-187.5 297.883,-168.5 232.883,-168.5"/>
<text text-anchor="middle" x="265.383" y="-175.5" font-family="FreeSans" font-size="10.00">tokentree.h</text>
</a>
</g>
</g>
<!-- Node1&#45;&gt;Node2 -->
<g id="edge1" class="edge"><title>Node1&#45;&gt;Node2</title>
<path fill="none" stroke="midnightblue" d="M349.243,-280.368C334.092,-262.055 298.515,-219.049 278.92,-195.362"/>
<polygon fill="midnightblue" stroke="midnightblue" points="281.562,-193.066 272.491,-187.591 276.168,-197.528 281.562,-193.066"/>
</g>
<!-- Node9 -->
<g id="node9" class="node"><title>Node9</title>
<polygon fill="white" stroke="#bfbfbf" points="89.8833,-56.5 89.8833,-75.5 118.883,-75.5 118.883,-56.5 89.8833,-56.5"/>
<text text-anchor="middle" x="104.383" y="-63.5" font-family="FreeSans" font-size="10.00">set</text>
</g>
<!-- Node1&#45;&gt;Node9 -->
<g id="edge18" class="edge"><title>Node1&#45;&gt;Node9</title>
<path fill="none" stroke="midnightblue" d="M318.702,-283.767C247.743,-271.655 95.664,-234.441 31.3833,-132 26.6588,-124.471 27.0503,-119.761 31.3833,-112 36.8779,-102.158 61.4113,-88.2159 80.5392,-78.4667"/>
<polygon fill="midnightblue" stroke="midnightblue" points="82.2645,-81.5175 89.6535,-73.9245 79.1422,-75.2525 82.2645,-81.5175"/>
</g>
<!-- Node13 -->
<g id="node13" class="node"><title>Node13</title>
<polygon fill="white" stroke="#bfbfbf" points="455.383,-224.5 455.383,-243.5 525.383,-243.5 525.383,-224.5 455.383,-224.5"/>
<text text-anchor="middle" x="490.383" y="-231.5" font-family="FreeSans" font-size="10.00">wx/tokenzr.h</text>
</g>
<!-- Node1&#45;&gt;Node13 -->
<g id="edge17" class="edge"><title>Node1&#45;&gt;Node13</title>
<path fill="none" stroke="midnightblue" d="M377.616,-280.444C399.767,-271.517 434.702,-257.439 459.819,-247.317"/>
<polygon fill="midnightblue" stroke="midnightblue" points="461.283,-250.501 469.25,-243.516 458.667,-244.008 461.283,-250.501"/>
</g>
<!-- Node14 -->
<g id="node14" class="node"><title>Node14</title>
<g id="a_node14"><a xlink:href="cclogger_8h.xhtml" target="_top" xlink:title="cclogger.h">
<polygon fill="white" stroke="black" points="375.883,-224.5 375.883,-243.5 436.883,-243.5 436.883,-224.5 375.883,-224.5"/>
<text text-anchor="middle" x="406.383" y="-231.5" font-family="FreeSans" font-size="10.00">cclogger.h</text>
</a>
</g>
</g>
<!-- Node1&#45;&gt;Node14 -->
<g id="edge19" class="edge"><title>Node1&#45;&gt;Node14</title>
<path fill="none" stroke="midnightblue" d="M364.64,-280.083C371.848,-272.298 382.493,-260.801 391.229,-251.367"/>
<polygon fill="midnightblue" stroke="midnightblue" points="394.055,-253.467 398.28,-243.751 388.918,-248.711 394.055,-253.467"/>
</g>
<!-- Node3 -->
<g id="node3" class="node"><title>Node3</title>
<polygon fill="white" stroke="#bfbfbf" points="238.383,-56.5 238.383,-75.5 300.383,-75.5 300.383,-56.5 238.383,-56.5"/>
<text text-anchor="middle" x="269.383" y="-63.5" font-family="FreeSans" font-size="10.00">wx/string.h</text>
</g>
<!-- Node2&#45;&gt;Node3 -->
<g id="edge2" class="edge"><title>Node2&#45;&gt;Node3</title>
<path fill="none" stroke="midnightblue" d="M265.697,-168.368C266.343,-150.617 267.832,-109.666 268.707,-85.5974"/>
<polygon fill="midnightblue" stroke="midnightblue" points="272.205,-85.712 269.071,-75.5914 265.21,-85.4576 272.205,-85.712"/>
</g>
<!-- Node4 -->
<g id="node4" class="node"><title>Node4</title>
<polygon fill="white" stroke="#bfbfbf" points="331.883,-112.5 331.883,-131.5 396.883,-131.5 396.883,-112.5 331.883,-112.5"/>
<text text-anchor="middle" x="364.383" y="-119.5" font-family="FreeSans" font-size="10.00">wx/thread.h</text>
</g>
<!-- Node2&#45;&gt;Node4 -->
<g id="edge3" class="edge"><title>Node2&#45;&gt;Node4</title>
<path fill="none" stroke="midnightblue" d="M281.289,-168.324C297.022,-159.743 321.326,-146.486 339.592,-136.522"/>
<polygon fill="midnightblue" stroke="midnightblue" points="341.414,-139.516 348.517,-131.655 338.062,-133.37 341.414,-139.516"/>
</g>
<!-- Node5 -->
<g id="node5" class="node"><title>Node5</title>
<polygon fill="white" stroke="#bfbfbf" points="318.883,-56.5 318.883,-75.5 361.883,-75.5 361.883,-56.5 318.883,-56.5"/>
<text text-anchor="middle" x="340.383" y="-63.5" font-family="FreeSans" font-size="10.00">vector</text>
</g>
<!-- Node2&#45;&gt;Node5 -->
<g id="edge4" class="edge"><title>Node2&#45;&gt;Node5</title>
<path fill="none" stroke="midnightblue" d="M271.268,-168.368C283.646,-150.215 312.564,-107.802 328.799,-83.9902"/>
<polygon fill="midnightblue" stroke="midnightblue" points="331.784,-85.8254 334.526,-75.5914 326,-81.882 331.784,-85.8254"/>
</g>
<!-- Node6 -->
<g id="node6" class="node"><title>Node6</title>
<polygon fill="white" stroke="#bfbfbf" points="106.883,-112.5 106.883,-131.5 149.883,-131.5 149.883,-112.5 106.883,-112.5"/>
<text text-anchor="middle" x="128.383" y="-119.5" font-family="FreeSans" font-size="10.00">deque</text>
</g>
<!-- Node2&#45;&gt;Node6 -->
<g id="edge5" class="edge"><title>Node2&#45;&gt;Node6</title>
<path fill="none" stroke="midnightblue" d="M243.675,-168.444C221.029,-159.517 185.311,-145.439 159.632,-135.317"/>
<polygon fill="midnightblue" stroke="midnightblue" points="160.577,-131.927 149.99,-131.516 158.01,-138.44 160.577,-131.927"/>
</g>
<!-- Node7 -->
<g id="node7" class="node"><title>Node7</title>
<g id="a_node7"><a xlink:href="token_8h.xhtml" target="_top" xlink:title="token.h">
<polygon fill="white" stroke="black" points="40.3833,-112.5 40.3833,-131.5 88.3833,-131.5 88.3833,-112.5 40.3833,-112.5"/>
<text text-anchor="middle" x="64.3833" y="-119.5" font-family="FreeSans" font-size="10.00">token.h</text>
</a>
</g>
</g>
<!-- Node2&#45;&gt;Node7 -->
<g id="edge6" class="edge"><title>Node2&#45;&gt;Node7</title>
<path fill="none" stroke="midnightblue" d="M233.478,-168.5C201.656,-160.012 151.114,-146.504 98.3955,-132.265"/>
<polygon fill="midnightblue" stroke="midnightblue" points="99.0973,-128.829 88.5305,-129.599 97.271,-135.587 99.0973,-128.829"/>
</g>
<!-- Node11 -->
<g id="node11" class="node"><title>Node11</title>
<g id="a_node11"><a xlink:href="searchtree_8h.xhtml" target="_top" xlink:title="searchtree.h">
<polygon fill="white" stroke="black" points="167.883,-112.5 167.883,-131.5 236.883,-131.5 236.883,-112.5 167.883,-112.5"/>
<text text-anchor="middle" x="202.383" y="-119.5" font-family="FreeSans" font-size="10.00">searchtree.h</text>
</a>
</g>
</g>
<!-- Node2&#45;&gt;Node11 -->
<g id="edge11" class="edge"><title>Node2&#45;&gt;Node11</title>
<path fill="none" stroke="midnightblue" d="M255.261,-168.324C245.857,-160.263 231.639,-148.077 220.314,-138.369"/>
<polygon fill="midnightblue" stroke="midnightblue" points="222.56,-135.684 212.69,-131.834 218.004,-140.999 222.56,-135.684"/>
</g>
<!-- Node7&#45;&gt;Node3 -->
<g id="edge8" class="edge"><title>Node7&#45;&gt;Node3</title>
<path fill="none" stroke="midnightblue" d="M88.5261,-114.385C91.5078,-113.577 94.5147,-112.766 97.3833,-112 142.166,-100.035 193.598,-86.6225 228.466,-77.5778"/>
<polygon fill="midnightblue" stroke="midnightblue" points="229.484,-80.9299 238.286,-75.0327 227.727,-74.1538 229.484,-80.9299"/>
</g>
<!-- Node8 -->
<g id="node8" class="node"><title>Node8</title>
<polygon fill="white" stroke="#bfbfbf" points="12.3833,-56.5 12.3833,-75.5 72.3833,-75.5 72.3833,-56.5 12.3833,-56.5"/>
<text text-anchor="middle" x="42.3833" y="-63.5" font-family="FreeSans" font-size="10.00">wx/arrstr.h</text>
</g>
<!-- Node7&#45;&gt;Node8 -->
<g id="edge7" class="edge"><title>Node7&#45;&gt;Node8</title>
<path fill="none" stroke="midnightblue" d="M60.7505,-112.083C57.7711,-104.77 53.4572,-94.1814 49.7588,-85.1034"/>
<polygon fill="midnightblue" stroke="midnightblue" points="52.9629,-83.6914 45.9486,-75.7511 46.4803,-86.3326 52.9629,-83.6914"/>
</g>
<!-- Node7&#45;&gt;Node9 -->
<g id="edge9" class="edge"><title>Node7&#45;&gt;Node9</title>
<path fill="none" stroke="midnightblue" d="M70.9885,-112.083C76.6386,-104.455 84.9282,-93.2645 91.8346,-83.9408"/>
<polygon fill="midnightblue" stroke="midnightblue" points="94.7612,-85.87 97.9011,-75.7511 89.1363,-81.7034 94.7612,-85.87"/>
</g>
<!-- Node10 -->
<g id="node10" class="node"><title>Node10</title>
<polygon fill="white" stroke="#bfbfbf" points="184.883,-56.5 184.883,-75.5 219.883,-75.5 219.883,-56.5 184.883,-56.5"/>
<text text-anchor="middle" x="202.383" y="-63.5" font-family="FreeSans" font-size="10.00">map</text>
</g>
<!-- Node7&#45;&gt;Node10 -->
<g id="edge10" class="edge"><title>Node7&#45;&gt;Node10</title>
<path fill="none" stroke="midnightblue" d="M86.2498,-112.444C110.27,-103.045 148.886,-87.9336 174.927,-77.7438"/>
<polygon fill="midnightblue" stroke="midnightblue" points="176.532,-80.8744 184.569,-73.971 173.981,-74.3557 176.532,-80.8744"/>
</g>
<!-- Node11&#45;&gt;Node3 -->
<g id="edge13" class="edge"><title>Node11&#45;&gt;Node3</title>
<path fill="none" stroke="midnightblue" d="M213.148,-112.324C223.149,-104.263 238.27,-92.0765 250.314,-82.3695"/>
<polygon fill="midnightblue" stroke="midnightblue" points="252.833,-84.8343 258.423,-75.8339 248.44,-79.3841 252.833,-84.8343"/>
</g>
<!-- Node11&#45;&gt;Node5 -->
<g id="edge14" class="edge"><title>Node11&#45;&gt;Node5</title>
<path fill="none" stroke="midnightblue" d="M224.25,-112.444C247.163,-103.478 283.359,-89.314 309.25,-79.1827"/>
<polygon fill="midnightblue" stroke="midnightblue" points="310.582,-82.4198 318.619,-75.5164 308.031,-75.9011 310.582,-82.4198"/>
</g>
<!-- Node11&#45;&gt;Node9 -->
<g id="edge16" class="edge"><title>Node11&#45;&gt;Node9</title>
<path fill="none" stroke="midnightblue" d="M186.638,-112.324C170.788,-103.59 146.149,-90.0139 127.967,-79.995"/>
<polygon fill="midnightblue" stroke="midnightblue" points="129.575,-76.8852 119.128,-75.1245 126.197,-83.0161 129.575,-76.8852"/>
</g>
<!-- Node11&#45;&gt;Node10 -->
<g id="edge15" class="edge"><title>Node11&#45;&gt;Node10</title>
<path fill="none" stroke="midnightblue" d="M202.383,-112.083C202.383,-105.006 202.383,-94.8611 202.383,-85.9865"/>
<polygon fill="midnightblue" stroke="midnightblue" points="205.883,-85.751 202.383,-75.7511 198.883,-85.7511 205.883,-85.751"/>
</g>
<!-- Node12 -->
<g id="node12" class="node"><title>Node12</title>
<g id="a_node12"><a xlink:href="prep_8h.xhtml" target="_top" xlink:title="prep.h">
<polygon fill="white" stroke="black" points="251.883,-0.5 251.883,-19.5 294.883,-19.5 294.883,-0.5 251.883,-0.5"/>
<text text-anchor="middle" x="273.383" y="-7.5" font-family="FreeSans" font-size="10.00">prep.h</text>
</a>
</g>
</g>
<!-- Node11&#45;&gt;Node12 -->
<g id="edge12" class="edge"><title>Node11&#45;&gt;Node12</title>
<path fill="none" stroke="midnightblue" d="M193.518,-112.111C181.682,-99.1288 163.511,-74.5158 175.383,-56 189.931,-33.3126 219.105,-21.9112 241.857,-16.277"/>
<polygon fill="midnightblue" stroke="midnightblue" points="242.778,-19.6577 251.783,-14.0742 241.262,-12.8239 242.778,-19.6577"/>
</g>
<!-- Node14&#45;&gt;Node3 -->
<g id="edge20" class="edge"><title>Node14&#45;&gt;Node3</title>
<path fill="none" stroke="midnightblue" d="M409.4,-224.338C416.272,-202.906 430.623,-146.635 405.383,-112 399.551,-103.997 348.336,-88.5345 310.464,-77.9917"/>
<polygon fill="midnightblue" stroke="midnightblue" points="311.244,-74.576 300.673,-75.292 309.383,-81.3242 311.244,-74.576"/>
</g>
<!-- Node14&#45;&gt;Node4 -->
<g id="edge21" class="edge"><title>Node14&#45;&gt;Node4</title>
<path fill="none" stroke="midnightblue" d="M403.088,-224.368C396.248,-206.456 380.39,-164.923 371.236,-140.948"/>
<polygon fill="midnightblue" stroke="midnightblue" points="374.501,-139.685 367.664,-131.591 367.961,-142.182 374.501,-139.685"/>
</g>
<!-- Node14&#45;&gt;Node12 -->
<g id="edge54" class="edge"><title>Node14&#45;&gt;Node12</title>
<path fill="none" stroke="midnightblue" d="M375.844,-225.911C339.43,-217.362 276.782,-202.346 223.383,-188 117.421,-159.533 28.5917,-182.784 3.38334,-76 1.34109,-67.3489 -2.36222,-62.7824 3.38334,-56 33.6441,-20.2783 177.263,-12.8868 241.822,-11.3769"/>
<polygon fill="midnightblue" stroke="midnightblue" points="241.908,-14.876 251.836,-11.1756 241.767,-7.87741 241.908,-14.876"/>
</g>
<!-- Node15 -->
<g id="node15" class="node"><title>Node15</title>
<polygon fill="white" stroke="#bfbfbf" points="461.883,-168.5 461.883,-187.5 512.883,-187.5 512.883,-168.5 461.883,-168.5"/>
<text text-anchor="middle" x="487.383" y="-175.5" font-family="FreeSans" font-size="10.00">memory</text>
</g>
<!-- Node14&#45;&gt;Node15 -->
<g id="edge22" class="edge"><title>Node14&#45;&gt;Node15</title>
<path fill="none" stroke="midnightblue" d="M419.397,-224.324C431.915,-215.979 451.065,-203.212 465.855,-193.352"/>
<polygon fill="midnightblue" stroke="midnightblue" points="468.023,-196.114 474.402,-187.655 464.14,-190.289 468.023,-196.114"/>
</g>
<!-- Node16 -->
<g id="node16" class="node"><title>Node16</title>
<g id="a_node16"><a xlink:href="cbexception_8h.xhtml" target="_top" xlink:title="cbexception.h">
<polygon fill="white" stroke="black" points="651.383,-168.5 651.383,-187.5 727.383,-187.5 727.383,-168.5 651.383,-168.5"/>
<text text-anchor="middle" x="689.383" y="-175.5" font-family="FreeSans" font-size="10.00">cbexception.h</text>
</a>
</g>
</g>
<!-- Node14&#45;&gt;Node16 -->
<g id="edge23" class="edge"><title>Node14&#45;&gt;Node16</title>
<path fill="none" stroke="midnightblue" d="M436.932,-226C440.12,-225.308 443.315,-224.629 446.383,-224 513.679,-210.203 591.851,-196.062 640.97,-187.404"/>
<polygon fill="midnightblue" stroke="midnightblue" points="641.753,-190.82 650.996,-185.642 640.541,-183.926 641.753,-190.82"/>
</g>
<!-- Node26 -->
<g id="node26" class="node"><title>Node26</title>
<g id="a_node26"><a xlink:href="logmanager_8h.xhtml" target="_top" xlink:title="logmanager.h">
<polygon fill="white" stroke="black" points="531.383,-168.5 531.383,-187.5 605.383,-187.5 605.383,-168.5 531.383,-168.5"/>
<text text-anchor="middle" x="568.383" y="-175.5" font-family="FreeSans" font-size="10.00">logmanager.h</text>
</a>
</g>
</g>
<!-- Node14&#45;&gt;Node26 -->
<g id="edge36" class="edge"><title>Node14&#45;&gt;Node26</title>
<path fill="none" stroke="midnightblue" d="M432.053,-224.444C459.306,-215.359 502.567,-200.939 533.034,-190.783"/>
<polygon fill="midnightblue" stroke="midnightblue" points="534.454,-193.999 542.834,-187.516 532.24,-187.358 534.454,-193.999"/>
</g>
<!-- Node16&#45;&gt;Node3 -->
<g id="edge24" class="edge"><title>Node16&#45;&gt;Node3</title>
<path fill="none" stroke="midnightblue" d="M651.211,-168.851C616.57,-160.984 564.342,-147.936 520.383,-132 500.568,-124.816 497.369,-118.695 477.383,-112 407.946,-88.7404 385.777,-92.0497 310.362,-76.1565"/>
<polygon fill="midnightblue" stroke="midnightblue" points="310.898,-72.6918 300.385,-74.0083 309.424,-79.5349 310.898,-72.6918"/>
</g>
<!-- Node17 -->
<g id="node17" class="node"><title>Node17</title>
<polygon fill="white" stroke="#bfbfbf" points="677.883,-112.5 677.883,-131.5 728.883,-131.5 728.883,-112.5 677.883,-112.5"/>
<text text-anchor="middle" x="703.383" y="-119.5" font-family="FreeSans" font-size="10.00">wx/log.h</text>
</g>
<!-- Node16&#45;&gt;Node17 -->
<g id="edge25" class="edge"><title>Node16&#45;&gt;Node17</title>
<path fill="none" stroke="midnightblue" d="M691.695,-168.083C693.55,-160.927 696.219,-150.635 698.537,-141.691"/>
<polygon fill="midnightblue" stroke="midnightblue" points="701.993,-142.309 701.115,-131.751 695.217,-140.553 701.993,-142.309"/>
</g>
<!-- Node18 -->
<g id="node18" class="node"><title>Node18</title>
<g id="a_node18"><a xlink:href="globals_8h.xhtml" target="_top" xlink:title="globals.h">
<polygon fill="white" stroke="black" points="879.383,-112.5 879.383,-131.5 933.383,-131.5 933.383,-112.5 879.383,-112.5"/>
<text text-anchor="middle" x="906.383" y="-119.5" font-family="FreeSans" font-size="10.00">globals.h</text>
</a>
</g>
</g>
<!-- Node16&#45;&gt;Node18 -->
<g id="edge26" class="edge"><title>Node16&#45;&gt;Node18</title>
<path fill="none" stroke="midnightblue" d="M723.768,-168.444C763.54,-158.546 828.762,-142.316 869.547,-132.167"/>
<polygon fill="midnightblue" stroke="midnightblue" points="870.5,-135.536 879.359,-129.725 868.809,-128.744 870.5,-135.536"/>
</g>
<!-- Node18&#45;&gt;Node3 -->
<g id="edge28" class="edge"><title>Node18&#45;&gt;Node3</title>
<path fill="none" stroke="midnightblue" d="M879.283,-119.486C780.678,-113.896 440.426,-93.889 310.803,-75.9626"/>
<polygon fill="midnightblue" stroke="midnightblue" points="311.142,-72.4753 300.745,-74.5111 310.142,-79.4036 311.142,-72.4753"/>
</g>
<!-- Node18&#45;&gt;Node5 -->
<g id="edge27" class="edge"><title>Node18&#45;&gt;Node5</title>
<path fill="none" stroke="midnightblue" d="M879.084,-118.395C784.806,-109.401 473.177,-79.6693 372.239,-70.0392"/>
<polygon fill="midnightblue" stroke="midnightblue" points="372.353,-66.5343 362.065,-69.0686 371.688,-73.5026 372.353,-66.5343"/>
</g>
<!-- Node19 -->
<g id="node19" class="node"><title>Node19</title>
<polygon fill="white" stroke="#bfbfbf" points="834.383,-56.5 834.383,-75.5 902.383,-75.5 902.383,-56.5 834.383,-56.5"/>
<text text-anchor="middle" x="868.383" y="-63.5" font-family="FreeSans" font-size="10.00">wx/treectrl.h</text>
</g>
<!-- Node18&#45;&gt;Node19 -->
<g id="edge29" class="edge"><title>Node18&#45;&gt;Node19</title>
<path fill="none" stroke="midnightblue" d="M900.108,-112.083C894.741,-104.455 886.866,-93.2645 880.305,-83.9408"/>
<polygon fill="midnightblue" stroke="midnightblue" points="883.159,-81.9149 874.542,-75.7511 877.434,-85.9434 883.159,-81.9149"/>
</g>
<!-- Node20 -->
<g id="node20" class="node"><title>Node20</title>
<polygon fill="white" stroke="#bfbfbf" points="920.383,-56.5 920.383,-75.5 970.383,-75.5 970.383,-56.5 920.383,-56.5"/>
<text text-anchor="middle" x="945.383" y="-63.5" font-family="FreeSans" font-size="10.00">wx/file.h</text>
</g>
<!-- Node18&#45;&gt;Node20 -->
<g id="edge30" class="edge"><title>Node18&#45;&gt;Node20</title>
<path fill="none" stroke="midnightblue" d="M912.823,-112.083C918.332,-104.455 926.415,-93.2645 933.148,-83.9408"/>
<polygon fill="midnightblue" stroke="midnightblue" points="936.046,-85.9071 939.063,-75.7511 930.371,-81.8087 936.046,-85.9071"/>
</g>
<!-- Node21 -->
<g id="node21" class="node"><title>Node21</title>
<polygon fill="white" stroke="#bfbfbf" points="988.383,-56.5 988.383,-75.5 1062.38,-75.5 1062.38,-56.5 988.383,-56.5"/>
<text text-anchor="middle" x="1025.38" y="-63.5" font-family="FreeSans" font-size="10.00">wx/filename.h</text>
</g>
<!-- Node18&#45;&gt;Node21 -->
<g id="edge31" class="edge"><title>Node18&#45;&gt;Node21</title>
<path fill="none" stroke="midnightblue" d="M925.239,-112.444C944.649,-103.636 975.113,-89.8116 997.348,-79.722"/>
<polygon fill="midnightblue" stroke="midnightblue" points="998.956,-82.836 1006.62,-75.5164 996.063,-76.4615 998.956,-82.836"/>
</g>
<!-- Node22 -->
<g id="node22" class="node"><title>Node22</title>
<polygon fill="white" stroke="#bfbfbf" points="959.883,-0.5 959.883,-19.5 1010.88,-19.5 1010.88,-0.5 959.883,-0.5"/>
<text text-anchor="middle" x="985.383" y="-7.5" font-family="FreeSans" font-size="10.00">wx/intl.h</text>
</g>
<!-- Node18&#45;&gt;Node22 -->
<g id="edge32" class="edge"><title>Node18&#45;&gt;Node22</title>
<path fill="none" stroke="midnightblue" d="M933.572,-117.573C975.968,-111.607 1054.71,-97.8267 1071.38,-76 1089.48,-52.3123 1051.77,-32.9405 1020.69,-21.6826"/>
<polygon fill="midnightblue" stroke="midnightblue" points="1021.51,-18.2621 1010.91,-18.3173 1019.23,-24.8811 1021.51,-18.2621"/>
</g>
<!-- Node23 -->
<g id="node23" class="node"><title>Node23</title>
<polygon fill="white" stroke="#bfbfbf" points="1118.88,-56.5 1118.88,-75.5 1187.88,-75.5 1187.88,-56.5 1118.88,-56.5"/>
<text text-anchor="middle" x="1153.38" y="-63.5" font-family="FreeSans" font-size="10.00">wx/msgdlg.h</text>
</g>
<!-- Node18&#45;&gt;Node23 -->
<g id="edge33" class="edge"><title>Node18&#45;&gt;Node23</title>
<path fill="none" stroke="midnightblue" d="M933.76,-115.015C976.064,-105.766 1057.75,-87.9088 1108.69,-76.7703"/>
<polygon fill="midnightblue" stroke="midnightblue" points="1109.74,-80.124 1118.76,-74.5689 1108.25,-73.2855 1109.74,-80.124"/>
</g>
<!-- Node24 -->
<g id="node24" class="node"><title>Node24</title>
<polygon fill="white" stroke="#bfbfbf" points="1206.38,-56.5 1206.38,-75.5 1274.38,-75.5 1274.38,-56.5 1206.38,-56.5"/>
<text text-anchor="middle" x="1240.38" y="-63.5" font-family="FreeSans" font-size="10.00">wx/bitmap.h</text>
</g>
<!-- Node18&#45;&gt;Node24 -->
<g id="edge34" class="edge"><title>Node18&#45;&gt;Node24</title>
<path fill="none" stroke="midnightblue" d="M933.643,-117.214C985.118,-109.966 1100.1,-93.3067 1196.38,-76 1196.48,-75.9819 1196.58,-75.9637 1196.69,-75.9455"/>
<polygon fill="midnightblue" stroke="midnightblue" points="1197.12,-79.4248 1206.3,-74.1382 1195.83,-72.5451 1197.12,-79.4248"/>
</g>
<!-- Node25 -->
<g id="node25" class="node"><title>Node25</title>
<g id="a_node25"><a xlink:href="settings_8h.xhtml" target="_top" xlink:title="settings.h">
<polygon fill="white" stroke="black" points="623.883,-0.5 623.883,-19.5 680.883,-19.5 680.883,-0.5 623.883,-0.5"/>
<text text-anchor="middle" x="652.383" y="-7.5" font-family="FreeSans" font-size="10.00">settings.h</text>
</a>
</g>
</g>
<!-- Node18&#45;&gt;Node25 -->
<g id="edge35" class="edge"><title>Node18&#45;&gt;Node25</title>
<path fill="none" stroke="midnightblue" d="M879.219,-121.316C836.851,-120.541 754.028,-113.817 697.383,-76 680.132,-64.4829 667.567,-43.9117 660.167,-28.9898"/>
<polygon fill="midnightblue" stroke="midnightblue" points="663.259,-27.3396 655.875,-19.7425 656.91,-30.2867 663.259,-27.3396"/>
</g>
<!-- Node26&#45;&gt;Node10 -->
<g id="edge53" class="edge"><title>Node26&#45;&gt;Node10</title>
<path fill="none" stroke="midnightblue" d="M549.7,-168.279C519.799,-154.614 459.09,-128.062 405.383,-112 331.877,-90.0164 308.337,-96.1187 229.86,-75.8225"/>
<polygon fill="midnightblue" stroke="midnightblue" points="230.573,-72.3907 220.01,-73.2128 228.78,-79.1573 230.573,-72.3907"/>
</g>
<!-- Node27 -->
<g id="node27" class="node"><title>Node27</title>
<g id="a_node27"><a xlink:href="manager_8h.xhtml" target="_top" xlink:title="manager.h">
<polygon fill="white" stroke="black" points="597.383,-112.5 597.383,-131.5 659.383,-131.5 659.383,-112.5 597.383,-112.5"/>
<text text-anchor="middle" x="628.383" y="-119.5" font-family="FreeSans" font-size="10.00">manager.h</text>
</a>
</g>
</g>
<!-- Node26&#45;&gt;Node27 -->
<g id="edge37" class="edge"><title>Node26&#45;&gt;Node27</title>
<path fill="none" stroke="midnightblue" d="M578.023,-168.324C586.893,-160.341 600.258,-148.313 610.991,-138.653"/>
<polygon fill="midnightblue" stroke="midnightblue" points="613.476,-141.125 618.568,-131.834 608.794,-135.922 613.476,-141.125"/>
</g>
<!-- Node32 -->
<g id="node32" class="node"><title>Node32</title>
<g id="a_node32"><a xlink:href="logger_8h.xhtml" target="_top" xlink:title="logger.h">
<polygon fill="white" stroke="black" points="529.383,-112.5 529.383,-131.5 579.383,-131.5 579.383,-112.5 529.383,-112.5"/>
<text text-anchor="middle" x="554.383" y="-119.5" font-family="FreeSans" font-size="10.00">logger.h</text>
</a>
</g>
</g>
<!-- Node26&#45;&gt;Node32 -->
<g id="edge49" class="edge"><title>Node26&#45;&gt;Node32</title>
<path fill="none" stroke="midnightblue" d="M566.072,-168.083C564.216,-160.927 561.548,-150.635 559.229,-141.691"/>
<polygon fill="midnightblue" stroke="midnightblue" points="562.55,-140.553 556.652,-131.751 555.774,-142.309 562.55,-140.553"/>
</g>
<!-- Node27&#45;&gt;Node5 -->
<g id="edge39" class="edge"><title>Node27&#45;&gt;Node5</title>
<path fill="none" stroke="midnightblue" d="M596.967,-113.801C594.068,-113.176 591.174,-112.567 588.383,-112 510.841,-96.2485 419.109,-80.2975 371.921,-72.2875"/>
<polygon fill="midnightblue" stroke="midnightblue" points="372.447,-68.827 362.004,-70.61 371.28,-75.729 372.447,-68.827"/>
</g>
<!-- Node27&#45;&gt;Node10 -->
<g id="edge38" class="edge"><title>Node27&#45;&gt;Node10</title>
<path fill="none" stroke="midnightblue" d="M597.011,-113.563C594.103,-112.988 591.194,-112.455 588.383,-112 433.338,-86.8787 388.037,-108.629 230.022,-75.623"/>
<polygon fill="midnightblue" stroke="midnightblue" points="230.456,-72.1371 219.946,-73.4769 228.998,-78.9835 230.456,-72.1371"/>
</g>
<!-- Node27&#45;&gt;Node25 -->
<g id="edge42" class="edge"><title>Node27&#45;&gt;Node25</title>
<path fill="none" stroke="midnightblue" d="M630.267,-112.368C634.14,-94.617 643.074,-53.6664 648.326,-29.5974"/>
<polygon fill="midnightblue" stroke="midnightblue" points="651.797,-30.1077 650.509,-19.5914 644.958,-28.6155 651.797,-30.1077"/>
</g>
<!-- Node28 -->
<g id="node28" class="node"><title>Node28</title>
<polygon fill="white" stroke="#bfbfbf" points="743.383,-0.5 743.383,-19.5 805.383,-19.5 805.383,-0.5 743.383,-0.5"/>
<text text-anchor="middle" x="774.383" y="-7.5" font-family="FreeSans" font-size="10.00">wx/event.h</text>
</g>
<!-- Node27&#45;&gt;Node28 -->
<g id="edge40" class="edge"><title>Node27&#45;&gt;Node28</title>
<path fill="none" stroke="midnightblue" d="M659.573,-113.198C704.744,-101.754 783.447,-81.2056 787.383,-76 797.661,-62.4095 791.702,-42.7964 784.849,-28.6735"/>
<polygon fill="midnightblue" stroke="midnightblue" points="787.745,-26.6688 779.921,-19.5248 781.582,-29.9886 787.745,-26.6688"/>
</g>
<!-- Node29 -->
<g id="node29" class="node"><title>Node29</title>
<polygon fill="white" stroke="#bfbfbf" points="456.383,-56.5 456.383,-75.5 528.383,-75.5 528.383,-56.5 456.383,-56.5"/>
<text text-anchor="middle" x="492.383" y="-63.5" font-family="FreeSans" font-size="10.00">wx/cmdline.h</text>
</g>
<!-- Node27&#45;&gt;Node29 -->
<g id="edge41" class="edge"><title>Node27&#45;&gt;Node29</title>
<path fill="none" stroke="midnightblue" d="M606.834,-112.444C584.352,-103.517 548.896,-89.4387 523.403,-79.3168"/>
<polygon fill="midnightblue" stroke="midnightblue" points="524.418,-75.9539 513.832,-75.5164 521.835,-82.4598 524.418,-75.9539"/>
</g>
<!-- Node30 -->
<g id="node30" class="node"><title>Node30</title>
<g id="a_node30"><a xlink:href="sdk__events_8h.xhtml" target="_top" xlink:title="sdk_events.h">
<polygon fill="white" stroke="black" points="706.383,-56.5 706.383,-75.5 778.383,-75.5 778.383,-56.5 706.383,-56.5"/>
<text text-anchor="middle" x="742.383" y="-63.5" font-family="FreeSans" font-size="10.00">sdk_events.h</text>
</a>
</g>
</g>
<!-- Node27&#45;&gt;Node30 -->
<g id="edge43" class="edge"><title>Node27&#45;&gt;Node30</title>
<path fill="none" stroke="midnightblue" d="M646.447,-112.444C664.958,-103.675 693.964,-89.9355 715.239,-79.8579"/>
<polygon fill="midnightblue" stroke="midnightblue" points="716.865,-82.9604 724.404,-75.5164 713.869,-76.6343 716.865,-82.9604"/>
</g>
<!-- Node31 -->
<g id="node31" class="node"><title>Node31</title>
<g id="a_node31"><a xlink:href="cbfunctor_8h.xhtml" target="_top" xlink:title="cbfunctor.h">
<polygon fill="white" stroke="black" points="546.883,-56.5 546.883,-75.5 611.883,-75.5 611.883,-56.5 546.883,-56.5"/>
<text text-anchor="middle" x="579.383" y="-63.5" font-family="FreeSans" font-size="10.00">cbfunctor.h</text>
</a>
</g>
</g>
<!-- Node27&#45;&gt;Node31 -->
<g id="edge48" class="edge"><title>Node27&#45;&gt;Node31</title>
<path fill="none" stroke="midnightblue" d="M620.292,-112.083C613.228,-104.298 602.796,-92.8015 594.234,-83.3665"/>
<polygon fill="midnightblue" stroke="midnightblue" points="596.636,-80.8047 587.324,-75.7511 591.452,-85.5087 596.636,-80.8047"/>
</g>
<!-- Node30&#45;&gt;Node12 -->
<g id="edge47" class="edge"><title>Node30&#45;&gt;Node12</title>
<path fill="none" stroke="midnightblue" d="M706.36,-60.8524C617.499,-50.6209 388.965,-24.3079 304.968,-14.6366"/>
<polygon fill="midnightblue" stroke="midnightblue" points="305.34,-11.1564 295.005,-13.4895 304.539,-18.1105 305.34,-11.1564"/>
</g>
<!-- Node30&#45;&gt;Node22 -->
<g id="edge45" class="edge"><title>Node30&#45;&gt;Node22</title>
<path fill="none" stroke="midnightblue" d="M778.501,-56.974C824.717,-46.7037 904.261,-29.0273 950.081,-18.845"/>
<polygon fill="midnightblue" stroke="midnightblue" points="950.867,-22.2558 959.87,-16.6697 949.348,-15.4225 950.867,-22.2558"/>
</g>
<!-- Node30&#45;&gt;Node25 -->
<g id="edge46" class="edge"><title>Node30&#45;&gt;Node25</title>
<path fill="none" stroke="midnightblue" d="M727.923,-56.324C713.884,-47.9002 692.335,-34.9709 675.84,-25.0741"/>
<polygon fill="midnightblue" stroke="midnightblue" points="677.183,-21.7983 666.808,-19.6545 673.582,-27.8007 677.183,-21.7983"/>
</g>
<!-- Node30&#45;&gt;Node28 -->
<g id="edge44" class="edge"><title>Node30&#45;&gt;Node28</title>
<path fill="none" stroke="midnightblue" d="M747.667,-56.083C752.094,-48.6127 758.547,-37.7244 764.001,-28.5199"/>
<polygon fill="midnightblue" stroke="midnightblue" points="767.11,-30.1383 769.198,-19.7511 761.088,-26.5697 767.11,-30.1383"/>
</g>
<!-- Node32&#45;&gt;Node3 -->
<g id="edge51" class="edge"><title>Node32&#45;&gt;Node3</title>
<path fill="none" stroke="midnightblue" d="M529.251,-114.991C524.648,-113.95 519.878,-112.911 515.383,-112 427.405,-94.1746 402.229,-94.1834 310.761,-76.1971"/>
<polygon fill="midnightblue" stroke="midnightblue" points="311.286,-72.733 300.796,-74.2183 309.923,-79.5989 311.286,-72.733"/>
</g>
<!-- Node32&#45;&gt;Node12 -->
<g id="edge50" class="edge"><title>Node32&#45;&gt;Node12</title>
<path fill="none" stroke="midnightblue" d="M532.334,-112.368C482.658,-92.9226 361.866,-45.6374 304.553,-23.2015"/>
<polygon fill="midnightblue" stroke="midnightblue" points="305.532,-19.8265 294.945,-19.4403 302.981,-26.3448 305.532,-19.8265"/>
</g>
<!-- Node32&#45;&gt;Node25 -->
<g id="edge52" class="edge"><title>Node32&#45;&gt;Node25</title>
<path fill="none" stroke="midnightblue" d="M529.227,-113.932C500.677,-105.341 456.834,-90.2264 447.383,-76 442.465,-68.5958 441.812,-62.9265 447.383,-56 467.829,-30.579 559.969,-18.7039 613.505,-13.8622"/>
<polygon fill="midnightblue" stroke="midnightblue" points="614.002,-17.3324 623.665,-12.9857 613.401,-10.3583 614.002,-17.3324"/>
</g>
</g>
</svg>
