<?xml version="1.0" encoding="UTF-8" standalone="no"?>
<!DOCTYPE svg PUBLIC "-//W3C//DTD SVG 1.1//EN"
 "http://www.w3.org/Graphics/SVG/1.1/DTD/svg11.dtd">
<!-- Generated by graphviz version 2.40.1 (20161225.0304)
 -->
<!-- Title: token.cpp Pages: 1 -->
<svg width="483pt" height="196pt"
 viewBox="0.00 0.00 482.50 196.00" xmlns="http://www.w3.org/2000/svg" xmlns:xlink="http://www.w3.org/1999/xlink">
<g id="graph0" class="graph" transform="scale(1 1) rotate(0) translate(4 192)">
<title>token.cpp</title>
<!-- Node0 -->
<g id="node1" class="node">
<title>Node0</title>
<polygon fill="#bfbfbf" stroke="#000000" points="105.5,-168.5 105.5,-187.5 164.5,-187.5 164.5,-168.5 105.5,-168.5"/>
<text text-anchor="middle" x="135" y="-175.5" font-family="FreeSans" font-size="10.00" fill="#000000">token.cpp</text>
</g>
<!-- Node1 -->
<g id="node2" class="node">
<title>Node1</title>
<polygon fill="none" stroke="#bfbfbf" points="0,-112.5 0,-131.5 62,-131.5 62,-112.5 0,-112.5"/>
<text text-anchor="middle" x="31" y="-119.5" font-family="FreeSans" font-size="10.00" fill="#000000">wx/event.h</text>
</g>
<!-- Node0&#45;&gt;Node1 -->
<g id="edge1" class="edge">
<title>Node0&#45;&gt;Node1</title>
<path fill="none" stroke="#191970" d="M116.8846,-168.2455C100.555,-159.4527 76.329,-146.4079 57.7661,-136.4125"/>
<polygon fill="#191970" stroke="#191970" points="59.3719,-133.3021 48.9078,-131.6427 56.0532,-139.4654 59.3719,-133.3021"/>
</g>
<!-- Node2 -->
<g id="node3" class="node">
<title>Node2</title>
<polygon fill="none" stroke="#bfbfbf" points="60,-.5 60,-19.5 122,-19.5 122,-.5 60,-.5"/>
<text text-anchor="middle" x="91" y="-7.5" font-family="FreeSans" font-size="10.00" fill="#000000">wx/string.h</text>
</g>
<!-- Node0&#45;&gt;Node2 -->
<g id="edge2" class="edge">
<title>Node0&#45;&gt;Node2</title>
<path fill="none" stroke="#191970" d="M132.5083,-168.4862C125.5228,-141.8144 105.6435,-65.9117 96.1582,-29.695"/>
<polygon fill="#191970" stroke="#191970" points="99.4934,-28.6148 93.574,-19.8279 92.7218,-30.3884 99.4934,-28.6148"/>
</g>
<!-- Node3 -->
<g id="node4" class="node">
<title>Node3</title>
<g id="a_node4"><a xlink:href="tokentree_8h" target="_top" xlink:title="tokentree.h">
<polygon fill="none" stroke="#000000" points="224.5,-112.5 224.5,-131.5 289.5,-131.5 289.5,-112.5 224.5,-112.5"/>
<text text-anchor="middle" x="257" y="-119.5" font-family="FreeSans" font-size="10.00" fill="#000000">tokentree.h</text>
</a>
</g>
</g>
<!-- Node0&#45;&gt;Node3 -->
<g id="edge3" class="edge">
<title>Node0&#45;&gt;Node3</title>
<path fill="none" stroke="#191970" d="M155.9725,-168.3733C175.5567,-159.3838 204.9961,-145.8706 227.051,-135.7471"/>
<polygon fill="#191970" stroke="#191970" points="228.6729,-138.8538 236.3011,-131.5011 225.7527,-132.4919 228.6729,-138.8538"/>
</g>
<!-- Node7 -->
<g id="node8" class="node">
<title>Node7</title>
<g id="a_node8"><a xlink:href="token_8h" target="_top" xlink:title="token.h">
<polygon fill="none" stroke="#000000" points="156,-56.5 156,-75.5 204,-75.5 204,-56.5 156,-56.5"/>
<text text-anchor="middle" x="180" y="-63.5" font-family="FreeSans" font-size="10.00" fill="#000000">token.h</text>
</a>
</g>
</g>
<!-- Node0&#45;&gt;Node7 -->
<g id="edge19" class="edge">
<title>Node0&#45;&gt;Node7</title>
<path fill="none" stroke="#191970" d="M138.8367,-168.4509C146.2425,-150.0186 162.6327,-109.2254 172.3488,-85.043"/>
<polygon fill="#191970" stroke="#191970" points="175.6925,-86.1088 176.173,-75.5249 169.1971,-83.499 175.6925,-86.1088"/>
</g>
<!-- Node3&#45;&gt;Node2 -->
<g id="edge4" class="edge">
<title>Node3&#45;&gt;Node2</title>
<path fill="none" stroke="#191970" d="M224.1183,-112.765C201.0938,-105.2646 170.3885,-93.1114 147,-76 129.0924,-62.8985 113.2124,-42.9537 102.9785,-28.4184"/>
<polygon fill="#191970" stroke="#191970" points="105.6197,-26.0777 97.1042,-19.774 99.83,-30.0122 105.6197,-26.0777"/>
</g>
<!-- Node4 -->
<g id="node5" class="node">
<title>Node4</title>
<polygon fill="none" stroke="#bfbfbf" points="309.5,-56.5 309.5,-75.5 374.5,-75.5 374.5,-56.5 309.5,-56.5"/>
<text text-anchor="middle" x="342" y="-63.5" font-family="FreeSans" font-size="10.00" fill="#000000">wx/thread.h</text>
</g>
<!-- Node3&#45;&gt;Node4 -->
<g id="edge5" class="edge">
<title>Node3&#45;&gt;Node4</title>
<path fill="none" stroke="#191970" d="M271.8059,-112.2455C284.7256,-103.7337 303.6931,-91.2375 318.6552,-81.3801"/>
<polygon fill="#191970" stroke="#191970" points="320.9387,-84.067 327.3638,-75.6427 317.0876,-78.2216 320.9387,-84.067"/>
</g>
<!-- Node5 -->
<g id="node6" class="node">
<title>Node5</title>
<polygon fill="none" stroke="#bfbfbf" points="380.5,-.5 380.5,-19.5 423.5,-19.5 423.5,-.5 380.5,-.5"/>
<text text-anchor="middle" x="402" y="-7.5" font-family="FreeSans" font-size="10.00" fill="#000000">vector</text>
</g>
<!-- Node3&#45;&gt;Node5 -->
<g id="edge6" class="edge">
<title>Node3&#45;&gt;Node5</title>
<path fill="none" stroke="#191970" d="M289.7607,-118.5571C318.5357,-113.8052 359.5221,-102.5522 384,-76 395.4337,-63.5973 399.721,-44.6412 401.2722,-30.2212"/>
<polygon fill="#191970" stroke="#191970" points="404.7922,-30.065 402.014,-19.8409 397.81,-29.566 404.7922,-30.065"/>
</g>
<!-- Node6 -->
<g id="node7" class="node">
<title>Node6</title>
<polygon fill="none" stroke="#bfbfbf" points="431.5,-56.5 431.5,-75.5 474.5,-75.5 474.5,-56.5 431.5,-56.5"/>
<text text-anchor="middle" x="453" y="-63.5" font-family="FreeSans" font-size="10.00" fill="#000000">deque</text>
</g>
<!-- Node3&#45;&gt;Node6 -->
<g id="edge7" class="edge">
<title>Node3&#45;&gt;Node6</title>
<path fill="none" stroke="#191970" d="M289.806,-112.6269C326.4058,-102.1698 385.2082,-85.3691 421.3376,-75.0464"/>
<polygon fill="#191970" stroke="#191970" points="422.6772,-78.3038 431.3309,-72.1912 420.7541,-71.5731 422.6772,-78.3038"/>
</g>
<!-- Node3&#45;&gt;Node7 -->
<g id="edge8" class="edge">
<title>Node3&#45;&gt;Node7</title>
<path fill="none" stroke="#191970" d="M243.5876,-112.2455C231.9943,-103.814 215.0252,-91.4729 201.5322,-81.6598"/>
<polygon fill="#191970" stroke="#191970" points="203.4047,-78.6938 193.2587,-75.6427 199.2874,-84.355 203.4047,-78.6938"/>
</g>
<!-- Node11 -->
<g id="node12" class="node">
<title>Node11</title>
<g id="a_node12"><a xlink:href="searchtree_8h" target="_top" xlink:title="searchtree.h">
<polygon fill="none" stroke="#000000" points="222.5,-56.5 222.5,-75.5 291.5,-75.5 291.5,-56.5 222.5,-56.5"/>
<text text-anchor="middle" x="257" y="-63.5" font-family="FreeSans" font-size="10.00" fill="#000000">searchtree.h</text>
</a>
</g>
</g>
<!-- Node3&#45;&gt;Node11 -->
<g id="edge13" class="edge">
<title>Node3&#45;&gt;Node11</title>
<path fill="none" stroke="#191970" d="M257,-112.2455C257,-104.9382 257,-94.6944 257,-85.7046"/>
<polygon fill="#191970" stroke="#191970" points="260.5001,-85.6426 257,-75.6427 253.5001,-85.6427 260.5001,-85.6426"/>
</g>
<!-- Node7&#45;&gt;Node2 -->
<g id="edge10" class="edge">
<title>Node7&#45;&gt;Node2</title>
<path fill="none" stroke="#191970" d="M164.4974,-56.2455C150.842,-47.6534 130.7343,-35.0014 115.0011,-25.1018"/>
<polygon fill="#191970" stroke="#191970" points="116.6529,-22.006 106.325,-19.6427 112.9249,-27.9307 116.6529,-22.006"/>
</g>
<!-- Node8 -->
<g id="node9" class="node">
<title>Node8</title>
<polygon fill="none" stroke="#bfbfbf" points="140,-.5 140,-19.5 200,-19.5 200,-.5 140,-.5"/>
<text text-anchor="middle" x="170" y="-7.5" font-family="FreeSans" font-size="10.00" fill="#000000">wx/arrstr.h</text>
</g>
<!-- Node7&#45;&gt;Node8 -->
<g id="edge9" class="edge">
<title>Node7&#45;&gt;Node8</title>
<path fill="none" stroke="#191970" d="M178.2581,-56.2455C176.9533,-48.9382 175.124,-38.6944 173.5187,-29.7046"/>
<polygon fill="#191970" stroke="#191970" points="176.9254,-28.8717 171.7219,-19.6427 170.0344,-30.1022 176.9254,-28.8717"/>
</g>
<!-- Node9 -->
<g id="node10" class="node">
<title>Node9</title>
<polygon fill="none" stroke="#bfbfbf" points="271.5,-.5 271.5,-19.5 300.5,-19.5 300.5,-.5 271.5,-.5"/>
<text text-anchor="middle" x="286" y="-7.5" font-family="FreeSans" font-size="10.00" fill="#000000">set</text>
</g>
<!-- Node7&#45;&gt;Node9 -->
<g id="edge11" class="edge">
<title>Node7&#45;&gt;Node9</title>
<path fill="none" stroke="#191970" d="M198.4638,-56.2455C216.2238,-46.8629 243.1478,-32.6389 262.4442,-22.4446"/>
<polygon fill="#191970" stroke="#191970" points="264.2833,-25.4314 271.4903,-17.6655 261.0134,-19.2421 264.2833,-25.4314"/>
</g>
<!-- Node10 -->
<g id="node11" class="node">
<title>Node10</title>
<polygon fill="none" stroke="#bfbfbf" points="218.5,-.5 218.5,-19.5 253.5,-19.5 253.5,-.5 218.5,-.5"/>
<text text-anchor="middle" x="236" y="-7.5" font-family="FreeSans" font-size="10.00" fill="#000000">map</text>
</g>
<!-- Node7&#45;&gt;Node10 -->
<g id="edge12" class="edge">
<title>Node7&#45;&gt;Node10</title>
<path fill="none" stroke="#191970" d="M189.7545,-56.2455C197.8648,-48.1352 209.5925,-36.4075 219.2081,-26.7919"/>
<polygon fill="#191970" stroke="#191970" points="221.7611,-29.1887 226.3573,-19.6427 216.8113,-24.2389 221.7611,-29.1887"/>
</g>
<!-- Node11&#45;&gt;Node2 -->
<g id="edge15" class="edge">
<title>Node11&#45;&gt;Node2</title>
<path fill="none" stroke="#191970" d="M228.4636,-56.3733C200.9798,-47.1016 159.2314,-33.0178 128.9548,-22.804"/>
<polygon fill="#191970" stroke="#191970" points="129.7582,-19.3813 119.164,-19.5011 127.5206,-26.0141 129.7582,-19.3813"/>
</g>
<!-- Node11&#45;&gt;Node5 -->
<g id="edge16" class="edge">
<title>Node11&#45;&gt;Node5</title>
<path fill="none" stroke="#191970" d="M281.9264,-56.3733C306.4818,-46.8898 344.073,-32.3718 370.6433,-22.1102"/>
<polygon fill="#191970" stroke="#191970" points="372.1694,-25.2728 380.2369,-18.4051 369.6474,-18.7429 372.1694,-25.2728"/>
</g>
<!-- Node11&#45;&gt;Node9 -->
<g id="edge18" class="edge">
<title>Node11&#45;&gt;Node9</title>
<path fill="none" stroke="#191970" d="M262.0514,-56.2455C266.0019,-48.617 271.6097,-37.7881 276.4058,-28.5267"/>
<polygon fill="#191970" stroke="#191970" points="279.5159,-30.1321 281.0065,-19.6427 273.2999,-26.9131 279.5159,-30.1321"/>
</g>
<!-- Node11&#45;&gt;Node10 -->
<g id="edge17" class="edge">
<title>Node11&#45;&gt;Node10</title>
<path fill="none" stroke="#191970" d="M253.3421,-56.2455C250.5416,-48.7776 246.591,-38.2427 243.1676,-29.1137"/>
<polygon fill="#191970" stroke="#191970" points="246.4045,-27.777 239.616,-19.6427 239.8501,-30.2349 246.4045,-27.777"/>
</g>
<!-- Node12 -->
<g id="node13" class="node">
<title>Node12</title>
<g id="a_node13"><a xlink:href="prep_8h" target="_top" xlink:title="prep.h">
<polygon fill="none" stroke="#000000" points="318.5,-.5 318.5,-19.5 361.5,-19.5 361.5,-.5 318.5,-.5"/>
<text text-anchor="middle" x="340" y="-7.5" font-family="FreeSans" font-size="10.00" fill="#000000">prep.h</text>
</a>
</g>
</g>
<!-- Node11&#45;&gt;Node12 -->
<g id="edge14" class="edge">
<title>Node11&#45;&gt;Node12</title>
<path fill="none" stroke="#191970" d="M271.4575,-56.2455C284.0732,-47.7337 302.5944,-35.2375 317.2045,-25.3801"/>
<polygon fill="#191970" stroke="#191970" points="319.3761,-28.1371 325.7082,-19.6427 315.4609,-22.3343 319.3761,-28.1371"/>
</g>
</g>
</svg>
