<?xml version="1.0" encoding="UTF-8" standalone="no"?>
<!DOCTYPE svg PUBLIC "-//W3C//DTD SVG 1.1//EN"
 "http://www.w3.org/Graphics/SVG/1.1/DTD/svg11.dtd">
<!-- Generated by graphviz version 2.38.0 (20140413.2041)
 -->
<!-- Title: uservarmanager.h Pages: 1 -->
<svg width="1936pt" height="308pt"
 viewBox="0.00 0.00 1936.00 308.00" xmlns="http://www.w3.org/2000/svg" xmlns:xlink="http://www.w3.org/1999/xlink">
<g id="graph0" class="graph" transform="scale(1 1) rotate(0) translate(4 304)">
<title>uservarmanager.h</title>
<!-- Node20 -->
<g id="node1" class="node"><title>Node20</title>
<polygon fill="#bfbfbf" stroke="black" points="1242,-280.5 1242,-299.5 1334,-299.5 1334,-280.5 1242,-280.5"/>
<text text-anchor="middle" x="1288" y="-287.5" font-family="FreeSans" font-size="10.00">uservarmanager.h</text>
</g>
<!-- Node21 -->
<g id="node2" class="node"><title>Node21</title>
<g id="a_node2"><a xlink:href="sc__base__types_8h" target="_top" xlink:title="sc_base_types.h">
<polygon fill="none" stroke="black" points="1050.5,-168.5 1050.5,-187.5 1137.5,-187.5 1137.5,-168.5 1050.5,-168.5"/>
<text text-anchor="middle" x="1094" y="-175.5" font-family="FreeSans" font-size="10.00">sc_base_types.h</text>
</a>
</g>
</g>
<!-- Node20&#45;&gt;Node21 -->
<g id="edge1" class="edge"><title>Node20&#45;&gt;Node21</title>
<path fill="none" stroke="midnightblue" d="M1287.35,-270.15C1285.83,-255.605 1281.4,-236 1269,-224 1233.95,-190.075 1176.91,-180.76 1137.53,-178.675"/>
<polygon fill="midnightblue" stroke="midnightblue" points="1283.88,-270.746 1288.04,-280.489 1290.86,-270.278 1283.88,-270.746"/>
</g>
<!-- Node38 -->
<g id="node19" class="node"><title>Node38</title>
<g id="a_node19"><a xlink:href="main_8cpp" target="_top" xlink:title="main.cpp">
<polygon fill="none" stroke="black" points="449,-0.5 449,-19.5 505,-19.5 505,-0.5 449,-0.5"/>
<text text-anchor="middle" x="477" y="-7.5" font-family="FreeSans" font-size="10.00">main.cpp</text>
</a>
</g>
</g>
<!-- Node20&#45;&gt;Node38 -->
<g id="edge52" class="edge"><title>Node20&#45;&gt;Node38</title>
<path fill="none" stroke="midnightblue" d="M1344.36,-285.226C1500.64,-274.014 1928,-237.961 1928,-179 1928,-179 1928,-179 1928,-121 1928,-74.8419 1890.29,-72.0242 1847,-56 1717,-7.87659 688.754,-10.0755 505.04,-10.8591"/>
<polygon fill="midnightblue" stroke="midnightblue" points="1343.75,-281.76 1334.03,-285.96 1344.25,-288.743 1343.75,-281.76"/>
</g>
<!-- Node47 -->
<g id="node28" class="node"><title>Node47</title>
<g id="a_node28"><a xlink:href="sdk__common_8h" target="_top" xlink:title="sdk_common.h">
<polygon fill="none" stroke="black" points="1178,-224.5 1178,-243.5 1260,-243.5 1260,-224.5 1178,-224.5"/>
<text text-anchor="middle" x="1219" y="-231.5" font-family="FreeSans" font-size="10.00">sdk_common.h</text>
</a>
</g>
</g>
<!-- Node20&#45;&gt;Node47 -->
<g id="edge28" class="edge"><title>Node20&#45;&gt;Node47</title>
<path fill="none" stroke="midnightblue" d="M1268.96,-274.101C1256.54,-264.382 1240.76,-252.027 1230.29,-243.834"/>
<polygon fill="midnightblue" stroke="midnightblue" points="1266.88,-276.917 1276.91,-280.324 1271.2,-271.405 1266.88,-276.917"/>
</g>
<!-- Node22 -->
<g id="node3" class="node"><title>Node22</title>
<g id="a_node3"><a xlink:href="sc__plugin_8h" target="_top" xlink:title="sc_plugin.h">
<polygon fill="none" stroke="black" points="752.5,-112.5 752.5,-131.5 817.5,-131.5 817.5,-112.5 752.5,-112.5"/>
<text text-anchor="middle" x="785" y="-119.5" font-family="FreeSans" font-size="10.00">sc_plugin.h</text>
</a>
</g>
</g>
<!-- Node21&#45;&gt;Node22 -->
<g id="edge2" class="edge"><title>Node21&#45;&gt;Node22</title>
<path fill="none" stroke="midnightblue" d="M1040.17,-168.768C985.955,-160.287 899.975,-146.321 826,-132 823.281,-131.474 820.466,-130.905 817.643,-130.319"/>
<polygon fill="midnightblue" stroke="midnightblue" points="1039.83,-172.256 1050.25,-170.338 1040.9,-165.34 1039.83,-172.256"/>
</g>
<!-- Node26 -->
<g id="node7" class="node"><title>Node26</title>
<g id="a_node7"><a xlink:href="compilercommandgenerator_8cpp" target="_top" xlink:title="compilercommandgenerator.cpp">
<polygon fill="none" stroke="black" points="835.5,-112.5 835.5,-131.5 990.5,-131.5 990.5,-112.5 835.5,-112.5"/>
<text text-anchor="middle" x="913" y="-119.5" font-family="FreeSans" font-size="10.00">compilercommandgenerator.cpp</text>
</a>
</g>
</g>
<!-- Node21&#45;&gt;Node26 -->
<g id="edge6" class="edge"><title>Node21&#45;&gt;Node26</title>
<path fill="none" stroke="midnightblue" d="M1055.68,-165.568C1021.54,-155.381 972.339,-140.703 941.546,-131.516"/>
<polygon fill="midnightblue" stroke="midnightblue" points="1054.74,-168.938 1065.32,-168.444 1056.74,-162.231 1054.74,-168.938"/>
</g>
<!-- Node27 -->
<g id="node8" class="node"><title>Node27</title>
<g id="a_node8"><a xlink:href="sc__consts_8cpp" target="_top" xlink:title="sc_consts.cpp">
<polygon fill="none" stroke="black" points="1008.5,-112.5 1008.5,-131.5 1085.5,-131.5 1085.5,-112.5 1008.5,-112.5"/>
<text text-anchor="middle" x="1047" y="-119.5" font-family="FreeSans" font-size="10.00">sc_consts.cpp</text>
</a>
</g>
</g>
<!-- Node21&#45;&gt;Node27 -->
<g id="edge7" class="edge"><title>Node21&#45;&gt;Node27</title>
<path fill="none" stroke="midnightblue" d="M1079.58,-160.431C1071.34,-150.967 1061.35,-139.483 1054.62,-131.751"/>
<polygon fill="midnightblue" stroke="midnightblue" points="1077.03,-162.838 1086.24,-168.083 1082.31,-158.242 1077.03,-162.838"/>
</g>
<!-- Node28 -->
<g id="node9" class="node"><title>Node28</title>
<g id="a_node9"><a xlink:href="sc__dialog_8cpp" target="_top" xlink:title="sc_dialog.cpp">
<polygon fill="none" stroke="black" points="1103.5,-112.5 1103.5,-131.5 1178.5,-131.5 1178.5,-112.5 1103.5,-112.5"/>
<text text-anchor="middle" x="1141" y="-119.5" font-family="FreeSans" font-size="10.00">sc_dialog.cpp</text>
</a>
</g>
</g>
<!-- Node21&#45;&gt;Node28 -->
<g id="edge8" class="edge"><title>Node21&#45;&gt;Node28</title>
<path fill="none" stroke="midnightblue" d="M1108.42,-160.431C1116.66,-150.967 1126.65,-139.483 1133.38,-131.751"/>
<polygon fill="midnightblue" stroke="midnightblue" points="1105.69,-158.242 1101.76,-168.083 1110.97,-162.838 1105.69,-158.242"/>
</g>
<!-- Node29 -->
<g id="node10" class="node"><title>Node29</title>
<g id="a_node10"><a xlink:href="sc__globals_8cpp" target="_top" xlink:title="sc_globals.cpp">
<polygon fill="none" stroke="black" points="1197,-112.5 1197,-131.5 1277,-131.5 1277,-112.5 1197,-112.5"/>
<text text-anchor="middle" x="1237" y="-119.5" font-family="FreeSans" font-size="10.00">sc_globals.cpp</text>
</a>
</g>
</g>
<!-- Node21&#45;&gt;Node29 -->
<g id="edge9" class="edge"><title>Node21&#45;&gt;Node29</title>
<path fill="none" stroke="midnightblue" d="M1126.03,-164.906C1152.91,-154.754 1190.64,-140.506 1214.45,-131.516"/>
<polygon fill="midnightblue" stroke="midnightblue" points="1124.78,-161.636 1116.66,-168.444 1127.25,-168.185 1124.78,-161.636"/>
</g>
<!-- Node30 -->
<g id="node11" class="node"><title>Node30</title>
<g id="a_node11"><a xlink:href="sc__io_8cpp" target="_top" xlink:title="sc_io.cpp">
<polygon fill="none" stroke="black" points="1295.5,-112.5 1295.5,-131.5 1352.5,-131.5 1352.5,-112.5 1295.5,-112.5"/>
<text text-anchor="middle" x="1324" y="-119.5" font-family="FreeSans" font-size="10.00">sc_io.cpp</text>
</a>
</g>
</g>
<!-- Node21&#45;&gt;Node30 -->
<g id="edge10" class="edge"><title>Node21&#45;&gt;Node30</title>
<path fill="none" stroke="midnightblue" d="M1140.43,-166.15C1179.32,-157.054 1236.29,-143.712 1286,-132 1289.04,-131.285 1292.21,-130.536 1295.37,-129.789"/>
<polygon fill="midnightblue" stroke="midnightblue" points="1139.4,-162.797 1130.46,-168.482 1140.99,-169.613 1139.4,-162.797"/>
</g>
<!-- Node31 -->
<g id="node12" class="node"><title>Node31</title>
<g id="a_node12"><a xlink:href="sc__progress_8cpp" target="_top" xlink:title="sc_progress.cpp">
<polygon fill="none" stroke="black" points="1371,-112.5 1371,-131.5 1457,-131.5 1457,-112.5 1371,-112.5"/>
<text text-anchor="middle" x="1414" y="-119.5" font-family="FreeSans" font-size="10.00">sc_progress.cpp</text>
</a>
</g>
</g>
<!-- Node21&#45;&gt;Node31 -->
<g id="edge11" class="edge"><title>Node21&#45;&gt;Node31</title>
<path fill="none" stroke="midnightblue" d="M1147.97,-167.924C1201.9,-158.85 1287.19,-144.486 1361,-132 1364.22,-131.455 1367.55,-130.891 1370.9,-130.323"/>
<polygon fill="midnightblue" stroke="midnightblue" points="1147.22,-164.501 1137.94,-169.611 1148.38,-171.404 1147.22,-164.501"/>
</g>
<!-- Node32 -->
<g id="node13" class="node"><title>Node32</title>
<g id="a_node13"><a xlink:href="sc__util__dialogs_8cpp" target="_top" xlink:title="sc_util_dialogs.cpp">
<polygon fill="none" stroke="black" points="1475,-112.5 1475,-131.5 1573,-131.5 1573,-112.5 1475,-112.5"/>
<text text-anchor="middle" x="1524" y="-119.5" font-family="FreeSans" font-size="10.00">sc_util_dialogs.cpp</text>
</a>
</g>
</g>
<!-- Node21&#45;&gt;Node32 -->
<g id="edge12" class="edge"><title>Node21&#45;&gt;Node32</title>
<path fill="none" stroke="midnightblue" d="M1147.82,-171.063C1220.23,-162.945 1352.98,-147.6 1466,-132 1468.93,-131.596 1471.94,-131.168 1474.97,-130.727"/>
<polygon fill="midnightblue" stroke="midnightblue" points="1147.14,-167.618 1137.59,-172.208 1147.91,-174.575 1147.14,-167.618"/>
</g>
<!-- Node33 -->
<g id="node14" class="node"><title>Node33</title>
<g id="a_node14"><a xlink:href="sc__wxtypes_8cpp" target="_top" xlink:title="sc_wxtypes.cpp">
<polygon fill="none" stroke="black" points="1591.5,-112.5 1591.5,-131.5 1674.5,-131.5 1674.5,-112.5 1591.5,-112.5"/>
<text text-anchor="middle" x="1633" y="-119.5" font-family="FreeSans" font-size="10.00">sc_wxtypes.cpp</text>
</a>
</g>
</g>
<!-- Node21&#45;&gt;Node33 -->
<g id="edge13" class="edge"><title>Node21&#45;&gt;Node33</title>
<path fill="none" stroke="midnightblue" d="M1147.79,-173.501C1237.87,-167.315 1424.84,-153.076 1582,-132 1585.03,-131.594 1588.15,-131.137 1591.3,-130.649"/>
<polygon fill="midnightblue" stroke="midnightblue" points="1147.29,-170.027 1137.55,-174.198 1147.76,-177.011 1147.29,-170.027"/>
</g>
<!-- Node34 -->
<g id="node15" class="node"><title>Node34</title>
<g id="a_node15"><a xlink:href="scriptbindings_8cpp" target="_top" xlink:title="scriptbindings.cpp">
<polygon fill="none" stroke="black" points="1692.5,-112.5 1692.5,-131.5 1785.5,-131.5 1785.5,-112.5 1692.5,-112.5"/>
<text text-anchor="middle" x="1739" y="-119.5" font-family="FreeSans" font-size="10.00">scriptbindings.cpp</text>
</a>
</g>
</g>
<!-- Node21&#45;&gt;Node34 -->
<g id="edge14" class="edge"><title>Node21&#45;&gt;Node34</title>
<path fill="none" stroke="midnightblue" d="M1147.94,-174.382C1251.79,-169.009 1486.57,-155.248 1683,-132 1686.03,-131.641 1689.15,-131.237 1692.29,-130.805"/>
<polygon fill="midnightblue" stroke="midnightblue" points="1147.52,-170.899 1137.72,-174.906 1147.88,-177.889 1147.52,-170.899"/>
</g>
<!-- Node35 -->
<g id="node16" class="node"><title>Node35</title>
<g id="a_node16"><a xlink:href="main_8h" target="_top" xlink:title="main.h">
<polygon fill="none" stroke="black" points="111.5,-112.5 111.5,-131.5 156.5,-131.5 156.5,-112.5 111.5,-112.5"/>
<text text-anchor="middle" x="134" y="-119.5" font-family="FreeSans" font-size="10.00">main.h</text>
</a>
</g>
</g>
<!-- Node21&#45;&gt;Node35 -->
<g id="edge15" class="edge"><title>Node21&#45;&gt;Node35</title>
<path fill="none" stroke="midnightblue" d="M1040.19,-173.973C859.557,-163.813 279.267,-131.171 156.82,-124.284"/>
<polygon fill="midnightblue" stroke="midnightblue" points="1040.08,-177.472 1050.26,-174.539 1040.47,-170.483 1040.08,-177.472"/>
</g>
<!-- Node41 -->
<g id="node22" class="node"><title>Node41</title>
<g id="a_node22"><a xlink:href="compilergcc_8cpp" target="_top" xlink:title="compilergcc.cpp">
<polygon fill="none" stroke="black" points="546.5,-56.5 546.5,-75.5 633.5,-75.5 633.5,-56.5 546.5,-56.5"/>
<text text-anchor="middle" x="590" y="-63.5" font-family="FreeSans" font-size="10.00">compilergcc.cpp</text>
</a>
</g>
</g>
<!-- Node21&#45;&gt;Node41 -->
<g id="edge22" class="edge"><title>Node21&#45;&gt;Node41</title>
<path fill="none" stroke="midnightblue" d="M1040.16,-177.078C934.734,-176.365 705.445,-170.308 638,-132 615.068,-118.975 599.931,-90.0255 593.507,-75.5651"/>
<polygon fill="midnightblue" stroke="midnightblue" points="1040.26,-180.578 1050.27,-177.132 1040.29,-173.578 1040.26,-180.578"/>
</g>
<!-- Node42 -->
<g id="node23" class="node"><title>Node42</title>
<g id="a_node23"><a xlink:href="wiz_8cpp" target="_top" xlink:title="wiz.cpp">
<polygon fill="none" stroke="black" points="652,-56.5 652,-75.5 700,-75.5 700,-56.5 652,-56.5"/>
<text text-anchor="middle" x="676" y="-63.5" font-family="FreeSans" font-size="10.00">wiz.cpp</text>
</a>
</g>
</g>
<!-- Node21&#45;&gt;Node42 -->
<g id="edge23" class="edge"><title>Node21&#45;&gt;Node42</title>
<path fill="none" stroke="midnightblue" d="M1040.08,-175.544C926.924,-171.929 672.937,-160.679 647,-132 631.749,-115.137 653.403,-88.9353 666.789,-75.5309"/>
<polygon fill="midnightblue" stroke="midnightblue" points="1040.15,-179.047 1050.26,-175.86 1040.37,-172.051 1040.15,-179.047"/>
</g>
<!-- Node43 -->
<g id="node24" class="node"><title>Node43</title>
<g id="a_node24"><a xlink:href="wizpage_8cpp" target="_top" xlink:title="wizpage.cpp">
<polygon fill="none" stroke="black" points="998.5,-56.5 998.5,-75.5 1067.5,-75.5 1067.5,-56.5 998.5,-56.5"/>
<text text-anchor="middle" x="1033" y="-63.5" font-family="FreeSans" font-size="10.00">wizpage.cpp</text>
</a>
</g>
</g>
<!-- Node21&#45;&gt;Node43 -->
<g id="edge24" class="edge"><title>Node21&#45;&gt;Node43</title>
<path fill="none" stroke="midnightblue" d="M1040.06,-173.949C946.524,-168.102 762.291,-153.922 743,-132 737.128,-125.327 737.197,-118.734 743,-112 778.348,-70.9793 930.585,-84.8924 984,-76 988.693,-75.2188 993.63,-74.3579 998.492,-73.4875"/>
<polygon fill="midnightblue" stroke="midnightblue" points="1039.99,-177.451 1050.19,-174.571 1040.42,-170.464 1039.99,-177.451"/>
</g>
<!-- Node44 -->
<g id="node25" class="node"><title>Node44</title>
<g id="a_node25"><a xlink:href="gdb__commands_8h" target="_top" xlink:title="gdb_commands.h">
<polygon fill="none" stroke="black" points="443,-112.5 443,-131.5 535,-131.5 535,-112.5 443,-112.5"/>
<text text-anchor="middle" x="489" y="-119.5" font-family="FreeSans" font-size="10.00">gdb_commands.h</text>
</a>
</g>
</g>
<!-- Node21&#45;&gt;Node44 -->
<g id="edge25" class="edge"><title>Node21&#45;&gt;Node44</title>
<path fill="none" stroke="midnightblue" d="M1040.19,-172.618C946.041,-164.887 745.335,-148.113 576,-132 562.697,-130.734 548.26,-129.275 535.04,-127.905"/>
<polygon fill="midnightblue" stroke="midnightblue" points="1040.07,-176.12 1050.32,-173.449 1040.64,-169.143 1040.07,-176.12"/>
</g>
<!-- Node23 -->
<g id="node4" class="node"><title>Node23</title>
<g id="a_node4"><a xlink:href="pluginmanager_8cpp" target="_top" xlink:title="pluginmanager.cpp">
<polygon fill="none" stroke="black" points="1740,-56.5 1740,-75.5 1838,-75.5 1838,-56.5 1740,-56.5"/>
<text text-anchor="middle" x="1789" y="-63.5" font-family="FreeSans" font-size="10.00">pluginmanager.cpp</text>
</a>
</g>
</g>
<!-- Node22&#45;&gt;Node23 -->
<g id="edge3" class="edge"><title>Node22&#45;&gt;Node23</title>
<path fill="none" stroke="midnightblue" d="M827.595,-112.008C1172.23,-67.0761 1263.22,-92.4232 1607,-76 1652.03,-73.8488 1703.32,-71.3039 1739.95,-69.4701"/>
<polygon fill="midnightblue" stroke="midnightblue" points="827.044,-108.55 817.585,-113.323 827.956,-115.491 827.044,-108.55"/>
</g>
<!-- Node24 -->
<g id="node5" class="node"><title>Node24</title>
<g id="a_node5"><a xlink:href="sc__plugin_8cpp" target="_top" xlink:title="sc_plugin.cpp">
<polygon fill="none" stroke="black" points="1148.5,-56.5 1148.5,-75.5 1223.5,-75.5 1223.5,-56.5 1148.5,-56.5"/>
<text text-anchor="middle" x="1186" y="-63.5" font-family="FreeSans" font-size="10.00">sc_plugin.cpp</text>
</a>
</g>
</g>
<!-- Node22&#45;&gt;Node24 -->
<g id="edge4" class="edge"><title>Node22&#45;&gt;Node24</title>
<path fill="none" stroke="midnightblue" d="M827.556,-111.859C950.172,-91.1352 1084.25,-76.8646 1148.26,-70.5666"/>
<polygon fill="midnightblue" stroke="midnightblue" points="826.888,-108.422 817.621,-113.557 828.067,-115.322 826.888,-108.422"/>
</g>
<!-- Node25 -->
<g id="node6" class="node"><title>Node25</title>
<g id="a_node6"><a xlink:href="scriptingmanager_8cpp" target="_top" xlink:title="scriptingmanager.cpp">
<polygon fill="none" stroke="black" points="1490,-56.5 1490,-75.5 1598,-75.5 1598,-56.5 1490,-56.5"/>
<text text-anchor="middle" x="1544" y="-63.5" font-family="FreeSans" font-size="10.00">scriptingmanager.cpp</text>
</a>
</g>
</g>
<!-- Node22&#45;&gt;Node25 -->
<g id="edge5" class="edge"><title>Node22&#45;&gt;Node25</title>
<path fill="none" stroke="midnightblue" d="M827.681,-111.968C1079.95,-77.2689 1371.05,-69.4113 1489.67,-67.5652"/>
<polygon fill="midnightblue" stroke="midnightblue" points="827.014,-108.527 817.592,-113.373 827.979,-115.46 827.014,-108.527"/>
</g>
<!-- Node36 -->
<g id="node17" class="node"><title>Node36</title>
<g id="a_node17"><a xlink:href="app_8h" target="_top" xlink:title="app.h">
<polygon fill="none" stroke="black" points="0,-56.5 0,-75.5 40,-75.5 40,-56.5 0,-56.5"/>
<text text-anchor="middle" x="20" y="-63.5" font-family="FreeSans" font-size="10.00">app.h</text>
</a>
</g>
</g>
<!-- Node35&#45;&gt;Node36 -->
<g id="edge16" class="edge"><title>Node35&#45;&gt;Node36</title>
<path fill="none" stroke="midnightblue" d="M106.758,-108.096C85.4599,-98.0073 56.4583,-84.2697 37.9791,-75.5164"/>
<polygon fill="midnightblue" stroke="midnightblue" points="105.401,-111.326 115.936,-112.444 108.397,-105 105.401,-111.326"/>
</g>
<!-- Node35&#45;&gt;Node38 -->
<g id="edge20" class="edge"><title>Node35&#45;&gt;Node38</title>
<path fill="none" stroke="midnightblue" d="M133.93,-102.204C134.953,-87.3961 138.922,-67.4092 152,-56 197.116,-16.6427 359.749,-28.5906 419,-20 428.782,-18.5817 439.478,-16.9461 448.991,-15.4615"/>
<polygon fill="midnightblue" stroke="midnightblue" points="130.429,-102.186 133.62,-112.289 137.426,-102.402 130.429,-102.186"/>
</g>
<!-- Node39 -->
<g id="node20" class="node"><title>Node39</title>
<g id="a_node20"><a xlink:href="ipc_8cpp" target="_top" xlink:title="ipc.cpp">
<polygon fill="none" stroke="black" points="58.5,-56.5 58.5,-75.5 105.5,-75.5 105.5,-56.5 58.5,-56.5"/>
<text text-anchor="middle" x="82" y="-63.5" font-family="FreeSans" font-size="10.00">ipc.cpp</text>
</a>
</g>
</g>
<!-- Node35&#45;&gt;Node39 -->
<g id="edge19" class="edge"><title>Node35&#45;&gt;Node39</title>
<path fill="none" stroke="midnightblue" d="M118.321,-104.718C109.155,-95.1997 97.9474,-83.5608 90.427,-75.7511"/>
<polygon fill="midnightblue" stroke="midnightblue" points="115.956,-107.308 125.413,-112.083 120.998,-102.452 115.956,-107.308"/>
</g>
<!-- Node40 -->
<g id="node21" class="node"><title>Node40</title>
<g id="a_node21"><a xlink:href="startherepage_8cpp" target="_top" xlink:title="startherepage.cpp">
<polygon fill="none" stroke="black" points="338.5,-56.5 338.5,-75.5 431.5,-75.5 431.5,-56.5 338.5,-56.5"/>
<text text-anchor="middle" x="385" y="-63.5" font-family="FreeSans" font-size="10.00">startherepage.cpp</text>
</a>
</g>
</g>
<!-- Node35&#45;&gt;Node40 -->
<g id="edge21" class="edge"><title>Node35&#45;&gt;Node40</title>
<path fill="none" stroke="midnightblue" d="M166.729,-113.959C212.639,-104.082 296.056,-86.1354 345.404,-75.5188"/>
<polygon fill="midnightblue" stroke="midnightblue" points="165.757,-110.588 156.717,-116.113 167.23,-117.431 165.757,-110.588"/>
</g>
<!-- Node37 -->
<g id="node18" class="node"><title>Node37</title>
<g id="a_node18"><a xlink:href="app_8cpp" target="_top" xlink:title="app.cpp">
<polygon fill="none" stroke="black" points="360,-0.5 360,-19.5 410,-19.5 410,-0.5 360,-0.5"/>
<text text-anchor="middle" x="385" y="-7.5" font-family="FreeSans" font-size="10.00">app.cpp</text>
</a>
</g>
</g>
<!-- Node36&#45;&gt;Node37 -->
<g id="edge17" class="edge"><title>Node36&#45;&gt;Node37</title>
<path fill="none" stroke="midnightblue" d="M49.9666,-56.1181C170.985,-30.027 305.148,-17.3902 359.88,-12.9138"/>
<polygon fill="midnightblue" stroke="midnightblue" points="49.1835,-52.7066 40.1654,-58.2675 50.683,-59.5441 49.1835,-52.7066"/>
</g>
<!-- Node36&#45;&gt;Node38 -->
<g id="edge18" class="edge"><title>Node36&#45;&gt;Node38</title>
<path fill="none" stroke="midnightblue" d="M50.0108,-56.1903C212.731,-24.0072 258.279,-40.2718 419,-20 428.705,-18.7758 439.288,-17.2042 448.725,-15.7178"/>
<polygon fill="midnightblue" stroke="midnightblue" points="49.2601,-52.7711 40.1452,-58.1719 50.6387,-59.634 49.2601,-52.7711"/>
</g>
<!-- Node45 -->
<g id="node26" class="node"><title>Node45</title>
<g id="a_node26"><a xlink:href="debuggergdb__test__backtrace_8cpp" target="_top" xlink:title="debuggergdb_test_backtrace.cpp">
<polygon fill="none" stroke="black" points="161.5,-56.5 161.5,-75.5 320.5,-75.5 320.5,-56.5 161.5,-56.5"/>
<text text-anchor="middle" x="241" y="-63.5" font-family="FreeSans" font-size="10.00">debuggergdb_test_backtrace.cpp</text>
</a>
</g>
</g>
<!-- Node44&#45;&gt;Node45 -->
<g id="edge26" class="edge"><title>Node44&#45;&gt;Node45</title>
<path fill="none" stroke="midnightblue" d="M439.774,-110.281C392.909,-100.077 323.301,-84.9203 280.112,-75.5164"/>
<polygon fill="midnightblue" stroke="midnightblue" points="439.188,-113.736 449.704,-112.444 440.677,-106.896 439.188,-113.736"/>
</g>
<!-- Node46 -->
<g id="node27" class="node"><title>Node46</title>
<g id="a_node27"><a xlink:href="gdb__driver_8cpp" target="_top" xlink:title="gdb_driver.cpp">
<polygon fill="none" stroke="black" points="449.5,-56.5 449.5,-75.5 528.5,-75.5 528.5,-56.5 449.5,-56.5"/>
<text text-anchor="middle" x="489" y="-63.5" font-family="FreeSans" font-size="10.00">gdb_driver.cpp</text>
</a>
</g>
</g>
<!-- Node44&#45;&gt;Node46 -->
<g id="edge27" class="edge"><title>Node44&#45;&gt;Node46</title>
<path fill="none" stroke="midnightblue" d="M489,-101.805C489,-92.9102 489,-82.7798 489,-75.7511"/>
<polygon fill="midnightblue" stroke="midnightblue" points="485.5,-102.083 489,-112.083 492.5,-102.083 485.5,-102.083"/>
</g>
<!-- Node48 -->
<g id="node29" class="node"><title>Node48</title>
<g id="a_node29"><a xlink:href="sdk_8h" target="_top" xlink:title="sdk.h">
<polygon fill="none" stroke="red" points="656.5,-112.5 656.5,-131.5 695.5,-131.5 695.5,-112.5 656.5,-112.5"/>
<text text-anchor="middle" x="676" y="-119.5" font-family="FreeSans" font-size="10.00">sdk.h</text>
</a>
</g>
</g>
<!-- Node47&#45;&gt;Node48 -->
<g id="edge29" class="edge"><title>Node47&#45;&gt;Node48</title>
<path fill="none" stroke="midnightblue" d="M1167.67,-222.602C1051.44,-199.055 772.26,-142.5 695.704,-126.992"/>
<polygon fill="midnightblue" stroke="midnightblue" points="1167.25,-226.087 1177.74,-224.642 1168.64,-219.226 1167.25,-226.087"/>
</g>
<!-- Node143 -->
<g id="node32" class="node"><title>Node143</title>
<g id="a_node32"><a xlink:href="sdk__precomp_8h" target="_top" xlink:title="sdk_precomp.h">
<polygon fill="none" stroke="red" points="1373,-168.5 1373,-187.5 1455,-187.5 1455,-168.5 1373,-168.5"/>
<text text-anchor="middle" x="1414" y="-175.5" font-family="FreeSans" font-size="10.00">sdk_precomp.h</text>
</a>
</g>
</g>
<!-- Node47&#45;&gt;Node143 -->
<g id="edge39" class="edge"><title>Node47&#45;&gt;Node143</title>
<path fill="none" stroke="midnightblue" d="M1259.81,-221.699C1296.61,-211.507 1349.93,-196.743 1383.25,-187.516"/>
<polygon fill="midnightblue" stroke="midnightblue" points="1258.6,-218.402 1249.9,-224.444 1260.47,-225.148 1258.6,-218.402"/>
</g>
<!-- Node48&#45;&gt;Node37 -->
<g id="edge30" class="edge"><title>Node48&#45;&gt;Node37</title>
<path fill="none" stroke="midnightblue" d="M693.771,-105.132C707.368,-91.0931 721.798,-70.6253 709,-56 669.283,-10.6135 499.655,-28.8707 440,-20 430.238,-18.5484 419.524,-16.8248 410.166,-15.2764"/>
<polygon fill="midnightblue" stroke="midnightblue" points="691.229,-102.72 686.48,-112.191 696.099,-107.749 691.229,-102.72"/>
</g>
<!-- Node48&#45;&gt;Node38 -->
<g id="edge33" class="edge"><title>Node48&#45;&gt;Node38</title>
<path fill="none" stroke="midnightblue" d="M705.541,-116.402C775.959,-105.407 948.015,-78.3374 950,-76 955.754,-69.2244 955.98,-62.5763 950,-56 919.962,-22.9685 602.434,-13.6221 505.162,-11.5242"/>
<polygon fill="midnightblue" stroke="midnightblue" points="704.878,-112.963 695.537,-117.962 705.957,-119.879 704.878,-112.963"/>
</g>
<!-- Node48&#45;&gt;Node40 -->
<g id="edge34" class="edge"><title>Node48&#45;&gt;Node40</title>
<path fill="none" stroke="midnightblue" d="M646.459,-115.518C595.648,-106.089 491.359,-86.7368 430.978,-75.532"/>
<polygon fill="midnightblue" stroke="midnightblue" points="645.984,-118.99 656.455,-117.373 647.261,-112.107 645.984,-118.99"/>
</g>
<!-- Node48&#45;&gt;Node41 -->
<g id="edge35" class="edge"><title>Node48&#45;&gt;Node41</title>
<path fill="none" stroke="midnightblue" d="M653.545,-106.901C637.776,-96.9986 617.186,-84.0705 603.783,-75.6545"/>
<polygon fill="midnightblue" stroke="midnightblue" points="651.852,-109.97 662.183,-112.324 655.575,-104.042 651.852,-109.97"/>
</g>
<!-- Node48&#45;&gt;Node42 -->
<g id="edge36" class="edge"><title>Node48&#45;&gt;Node42</title>
<path fill="none" stroke="midnightblue" d="M676,-101.805C676,-92.9102 676,-82.7798 676,-75.7511"/>
<polygon fill="midnightblue" stroke="midnightblue" points="672.5,-102.083 676,-112.083 679.5,-102.083 672.5,-102.083"/>
</g>
<!-- Node48&#45;&gt;Node43 -->
<g id="edge37" class="edge"><title>Node48&#45;&gt;Node43</title>
<path fill="none" stroke="midnightblue" d="M705.548,-112.936C707.049,-112.603 708.54,-112.288 710,-112 830.504,-88.2363 862.67,-95.1004 984,-76 988.614,-75.2737 993.461,-74.4533 998.239,-73.6109"/>
<polygon fill="midnightblue" stroke="midnightblue" points="704.568,-109.572 695.677,-115.334 706.221,-116.375 704.568,-109.572"/>
</g>
<!-- Node48&#45;&gt;Node46 -->
<g id="edge38" class="edge"><title>Node48&#45;&gt;Node46</title>
<path fill="none" stroke="midnightblue" d="M646.703,-112.54C611.715,-102.437 553.534,-85.6355 518.47,-75.5102"/>
<polygon fill="midnightblue" stroke="midnightblue" points="645.763,-115.911 656.341,-115.323 647.705,-109.186 645.763,-115.911"/>
</g>
<!-- Node49 -->
<g id="node30" class="node"><title>Node49</title>
<g id="a_node30"><a xlink:href="appglobals_8cpp" target="_top" xlink:title="appglobals.cpp">
<polygon fill="none" stroke="black" points="756,-56.5 756,-75.5 836,-75.5 836,-56.5 756,-56.5"/>
<text text-anchor="middle" x="796" y="-63.5" font-family="FreeSans" font-size="10.00">appglobals.cpp</text>
</a>
</g>
</g>
<!-- Node48&#45;&gt;Node49 -->
<g id="edge31" class="edge"><title>Node48&#45;&gt;Node49</title>
<path fill="none" stroke="midnightblue" d="M704.373,-108.232C726.82,-98.1312 757.535,-84.3091 777.075,-75.5164"/>
<polygon fill="midnightblue" stroke="midnightblue" points="702.697,-105.148 695.014,-112.444 705.57,-111.532 702.697,-105.148"/>
</g>
<!-- Node50 -->
<g id="node31" class="node"><title>Node50</title>
<g id="a_node31"><a xlink:href="associations_8cpp" target="_top" xlink:title="associations.cpp">
<polygon fill="none" stroke="black" points="854.5,-56.5 854.5,-75.5 941.5,-75.5 941.5,-56.5 854.5,-56.5"/>
<text text-anchor="middle" x="898" y="-63.5" font-family="FreeSans" font-size="10.00">associations.cpp</text>
</a>
</g>
</g>
<!-- Node48&#45;&gt;Node50 -->
<g id="edge32" class="edge"><title>Node48&#45;&gt;Node50</title>
<path fill="none" stroke="midnightblue" d="M705.59,-113.122C707.08,-112.74 708.557,-112.364 710,-112 762.395,-98.7967 823.245,-84.4021 861.192,-75.5369"/>
<polygon fill="midnightblue" stroke="midnightblue" points="704.55,-109.776 695.756,-115.685 706.315,-116.55 704.55,-109.776"/>
</g>
<!-- Node143&#45;&gt;Node23 -->
<g id="edge41" class="edge"><title>Node143&#45;&gt;Node23</title>
<path fill="none" stroke="midnightblue" d="M1465.41,-175.403C1574.04,-171.499 1819.06,-159.689 1844,-132 1861.81,-112.23 1827.38,-88.1266 1805.37,-75.5576"/>
<polygon fill="midnightblue" stroke="midnightblue" points="1465.2,-171.908 1455.33,-175.757 1465.45,-178.904 1465.2,-171.908"/>
</g>
<!-- Node143&#45;&gt;Node24 -->
<g id="edge46" class="edge"><title>Node143&#45;&gt;Node24</title>
<path fill="none" stroke="midnightblue" d="M1465.46,-176.112C1579.47,-173.246 1839.77,-161.282 1794,-112 1774.51,-91.0114 1353.13,-73.3384 1223.57,-68.3843"/>
<polygon fill="midnightblue" stroke="midnightblue" points="1465.14,-172.619 1455.23,-176.355 1465.31,-179.617 1465.14,-172.619"/>
</g>
<!-- Node143&#45;&gt;Node25 -->
<g id="edge51" class="edge"><title>Node143&#45;&gt;Node25</title>
<path fill="none" stroke="midnightblue" d="M1465.36,-175.182C1570.87,-170.918 1804.17,-158.561 1828,-132 1833.94,-125.384 1833.77,-118.759 1828,-112 1799.02,-78.0723 1672.05,-69.5847 1598.06,-67.5517"/>
<polygon fill="midnightblue" stroke="midnightblue" points="1465.11,-171.689 1455.26,-175.581 1465.39,-178.684 1465.11,-171.689"/>
</g>
<!-- Node143&#45;&gt;Node26 -->
<g id="edge40" class="edge"><title>Node143&#45;&gt;Node26</title>
<path fill="none" stroke="midnightblue" d="M1362.56,-171.455C1274.5,-161.964 1094.37,-142.548 990.844,-131.39"/>
<polygon fill="midnightblue" stroke="midnightblue" points="1362.26,-174.943 1372.57,-172.535 1363.01,-167.983 1362.26,-174.943"/>
</g>
<!-- Node143&#45;&gt;Node27 -->
<g id="edge42" class="edge"><title>Node143&#45;&gt;Node27</title>
<path fill="none" stroke="midnightblue" d="M1362.87,-170.603C1299.6,-162.505 1188.63,-147.704 1094,-132 1091.3,-131.551 1088.51,-131.068 1085.7,-130.568"/>
<polygon fill="midnightblue" stroke="midnightblue" points="1362.62,-174.1 1372.98,-171.892 1363.51,-167.156 1362.62,-174.1"/>
</g>
<!-- Node143&#45;&gt;Node28 -->
<g id="edge43" class="edge"><title>Node143&#45;&gt;Node28</title>
<path fill="none" stroke="midnightblue" d="M1362.86,-166.884C1309.27,-156.285 1226.38,-139.888 1178.54,-130.426"/>
<polygon fill="midnightblue" stroke="midnightblue" points="1362.34,-170.35 1372.83,-168.857 1363.7,-163.483 1362.34,-170.35"/>
</g>
<!-- Node143&#45;&gt;Node29 -->
<g id="edge44" class="edge"><title>Node143&#45;&gt;Node29</title>
<path fill="none" stroke="midnightblue" d="M1376.1,-165.436C1342.72,-155.255 1294.9,-140.664 1264.91,-131.516"/>
<polygon fill="midnightblue" stroke="midnightblue" points="1375.37,-168.873 1385.95,-168.444 1377.41,-162.178 1375.37,-168.873"/>
</g>
<!-- Node143&#45;&gt;Node30 -->
<g id="edge45" class="edge"><title>Node143&#45;&gt;Node30</title>
<path fill="none" stroke="midnightblue" d="M1390.96,-163.177C1374.4,-153.241 1352.58,-140.149 1338.42,-131.655"/>
<polygon fill="midnightblue" stroke="midnightblue" points="1389.16,-166.18 1399.54,-168.324 1392.77,-160.178 1389.16,-166.18"/>
</g>
<!-- Node143&#45;&gt;Node31 -->
<g id="edge47" class="edge"><title>Node143&#45;&gt;Node31</title>
<path fill="none" stroke="midnightblue" d="M1414,-157.805C1414,-148.91 1414,-138.78 1414,-131.751"/>
<polygon fill="midnightblue" stroke="midnightblue" points="1410.5,-158.083 1414,-168.083 1417.5,-158.083 1410.5,-158.083"/>
</g>
<!-- Node143&#45;&gt;Node32 -->
<g id="edge48" class="edge"><title>Node143&#45;&gt;Node32</title>
<path fill="none" stroke="midnightblue" d="M1440.76,-163.862C1461.16,-153.849 1488.67,-140.346 1506.37,-131.655"/>
<polygon fill="midnightblue" stroke="midnightblue" points="1439.11,-160.775 1431.67,-168.324 1442.19,-167.059 1439.11,-160.775"/>
</g>
<!-- Node143&#45;&gt;Node33 -->
<g id="edge49" class="edge"><title>Node143&#45;&gt;Node33</title>
<path fill="none" stroke="midnightblue" d="M1458.51,-166.024C1499.88,-155.823 1560.64,-140.841 1598.46,-131.516"/>
<polygon fill="midnightblue" stroke="midnightblue" points="1457.57,-162.651 1448.7,-168.444 1459.25,-169.448 1457.57,-162.651"/>
</g>
<!-- Node143&#45;&gt;Node34 -->
<g id="edge50" class="edge"><title>Node143&#45;&gt;Node34</title>
<path fill="none" stroke="midnightblue" d="M1465.18,-168.497C1527.58,-158.128 1632.16,-140.752 1692.41,-130.742"/>
<polygon fill="midnightblue" stroke="midnightblue" points="1464.45,-165.069 1455.16,-170.161 1465.6,-171.974 1464.45,-165.069"/>
</g>
</g>
</svg>
