<?xml version="1.0" encoding="UTF-8" standalone="no"?>
<!DOCTYPE svg PUBLIC "-//W3C//DTD SVG 1.1//EN"
 "http://www.w3.org/Graphics/SVG/1.1/DTD/svg11.dtd">
<!-- Generated by graphviz version 2.40.1 (20161225.0304)
 -->
<!-- Title: workspaceloader.h Pages: 1 -->
<svg width="202pt" height="84pt"
 viewBox="0.00 0.00 202.00 84.00" xmlns="http://www.w3.org/2000/svg" xmlns:xlink="http://www.w3.org/1999/xlink">
<g id="graph0" class="graph" transform="scale(1 1) rotate(0) translate(4 80)">
<title>workspaceloader.h</title>
<!-- Node0 -->
<g id="node1" class="node">
<title>Node0</title>
<polygon fill="#bfbfbf" stroke="#000000" points="64.5,-56.5 64.5,-75.5 160.5,-75.5 160.5,-56.5 64.5,-56.5"/>
<text text-anchor="middle" x="112.5" y="-63.5" font-family="FreeSans" font-size="10.00" fill="#000000">workspaceloader.h</text>
</g>
<!-- Node1 -->
<g id="node2" class="node">
<title>Node1</title>
<g id="a_node2"><a xlink:href="ibaseworkspaceloader_8h" target="_top" xlink:title="ibaseworkspaceloader.h">
<polygon fill="none" stroke="#000000" points="0,-.5 0,-19.5 119,-19.5 119,-.5 0,-.5"/>
<text text-anchor="middle" x="59.5" y="-7.5" font-family="FreeSans" font-size="10.00" fill="#000000">ibaseworkspaceloader.h</text>
</a>
</g>
</g>
<!-- Node0&#45;&gt;Node1 -->
<g id="edge1" class="edge">
<title>Node0&#45;&gt;Node1</title>
<path fill="none" stroke="#191970" d="M103.2681,-56.2455C95.6683,-48.2155 84.7123,-36.6394 75.6632,-27.0781"/>
<polygon fill="#191970" stroke="#191970" points="78.042,-24.4998 68.6261,-19.6427 72.9579,-29.3115 78.042,-24.4998"/>
</g>
<!-- Node2 -->
<g id="node3" class="node">
<title>Node2</title>
<g id="a_node3"><a xlink:href="settings_8h" target="_top" xlink:title="settings.h">
<polygon fill="none" stroke="#000000" points="137,-.5 137,-19.5 194,-19.5 194,-.5 137,-.5"/>
<text text-anchor="middle" x="165.5" y="-7.5" font-family="FreeSans" font-size="10.00" fill="#000000">settings.h</text>
</a>
</g>
</g>
<!-- Node0&#45;&gt;Node2 -->
<g id="edge2" class="edge">
<title>Node0&#45;&gt;Node2</title>
<path fill="none" stroke="#191970" d="M121.7319,-56.2455C129.3317,-48.2155 140.2877,-36.6394 149.3368,-27.0781"/>
<polygon fill="#191970" stroke="#191970" points="152.0421,-29.3115 156.3739,-19.6427 146.958,-24.4998 152.0421,-29.3115"/>
</g>
</g>
</svg>
