<?xml version="1.0" encoding="UTF-8" standalone="no"?>
<!DOCTYPE svg PUBLIC "-//W3C//DTD SVG 1.1//EN"
 "http://www.w3.org/Graphics/SVG/1.1/DTD/svg11.dtd">
<!-- Generated by graphviz version 2.38.0 (20140413.2041)
 -->
<!-- Title: wxscintilla.h Pages: 1 -->
<svg width="3054pt" height="151pt"
 viewBox="0.00 0.00 3053.50 151.00" xmlns="http://www.w3.org/2000/svg" xmlns:xlink="http://www.w3.org/1999/xlink">
<g id="graph0" class="graph" transform="scale(1 1) rotate(0) translate(4 147)">
<title>wxscintilla.h</title>
<!-- Node8 -->
<g id="node1" class="node"><title>Node8</title>
<polygon fill="#bfbfbf" stroke="black" points="861,-123.5 861,-142.5 929,-142.5 929,-123.5 861,-123.5"/>
<text text-anchor="middle" x="895" y="-130.5" font-family="FreeSans" font-size="10.00">wxscintilla.h</text>
</g>
<!-- Node9 -->
<g id="node2" class="node"><title>Node9</title>
<g id="a_node2"><a xlink:href="cbstyledtextctrl_8h" target="_top" xlink:title="cbstyledtextctrl.h">
<polygon fill="none" stroke="red" points="1426.5,-67.5 1426.5,-86.5 1515.5,-86.5 1515.5,-67.5 1426.5,-67.5"/>
<text text-anchor="middle" x="1471" y="-74.5" font-family="FreeSans" font-size="10.00">cbstyledtextctrl.h</text>
</a>
</g>
</g>
<!-- Node8&#45;&gt;Node9 -->
<g id="edge1" class="edge"><title>Node8&#45;&gt;Node9</title>
<path fill="none" stroke="midnightblue" d="M939.468,-127.831C1046.8,-117.769 1319.11,-92.24 1426.49,-82.1731"/>
<polygon fill="midnightblue" stroke="midnightblue" points="938.936,-124.366 929.306,-128.784 939.59,-131.335 938.936,-124.366"/>
</g>
<!-- Node42 -->
<g id="node30" class="node"><title>Node42</title>
<g id="a_node30"><a xlink:href="editorcolourset_8h" target="_top" xlink:title="editorcolourset.h">
<polygon fill="none" stroke="red" points="275.5,-67.5 275.5,-86.5 362.5,-86.5 362.5,-67.5 275.5,-67.5"/>
<text text-anchor="middle" x="319" y="-74.5" font-family="FreeSans" font-size="10.00">editorcolourset.h</text>
</a>
</g>
</g>
<!-- Node8&#45;&gt;Node42 -->
<g id="edge29" class="edge"><title>Node8&#45;&gt;Node42</title>
<path fill="none" stroke="midnightblue" d="M850.506,-127.829C742.883,-117.739 469.51,-92.1103 362.703,-82.0972"/>
<polygon fill="midnightblue" stroke="midnightblue" points="850.41,-131.335 860.694,-128.784 851.064,-124.366 850.41,-131.335"/>
</g>
<!-- Node43 -->
<g id="node31" class="node"><title>Node43</title>
<g id="a_node31"><a xlink:href="sdk__common_8h" target="_top" xlink:title="sdk_common.h">
<polygon fill="none" stroke="red" points="0,-6 0,-25 82,-25 82,-6 0,-6"/>
<text text-anchor="middle" x="41" y="-13" font-family="FreeSans" font-size="10.00">sdk_common.h</text>
</a>
</g>
</g>
<!-- Node8&#45;&gt;Node43 -->
<g id="edge35" class="edge"><title>Node8&#45;&gt;Node43</title>
<path fill="none" stroke="midnightblue" d="M850.904,-132.316C747.785,-132.303 483.239,-127.905 267,-87 189.865,-72.4087 102.026,-40.3461 62.3926,-25.005"/>
<polygon fill="midnightblue" stroke="midnightblue" points="850.954,-135.816 860.949,-132.303 850.945,-128.816 850.954,-135.816"/>
</g>
<!-- Node155 -->
<g id="node32" class="node"><title>Node155</title>
<g id="a_node32"><a xlink:href="editor__hooks_8cpp" target="_top" xlink:title="editor_hooks.cpp">
<polygon fill="none" stroke="black" points="1533.5,-67.5 1533.5,-86.5 1622.5,-86.5 1622.5,-67.5 1533.5,-67.5"/>
<text text-anchor="middle" x="1578" y="-74.5" font-family="FreeSans" font-size="10.00">editor_hooks.cpp</text>
</a>
</g>
</g>
<!-- Node8&#45;&gt;Node155 -->
<g id="edge36" class="edge"><title>Node8&#45;&gt;Node155</title>
<path fill="none" stroke="midnightblue" d="M939.298,-130.313C1042.35,-126.068 1306.07,-113.344 1525,-87 1527.69,-86.6766 1530.45,-86.311 1533.22,-85.9169"/>
<polygon fill="midnightblue" stroke="midnightblue" points="939.106,-126.818 929.257,-130.721 939.39,-133.812 939.106,-126.818"/>
</g>
<!-- Node10 -->
<g id="node3" class="node"><title>Node10</title>
<g id="a_node3"><a xlink:href="cbeditor_8cpp" target="_top" xlink:title="cbeditor.cpp">
<polygon fill="none" stroke="black" points="1436.5,-6 1436.5,-25 1505.5,-25 1505.5,-6 1436.5,-6"/>
<text text-anchor="middle" x="1471" y="-13" font-family="FreeSans" font-size="10.00">cbeditor.cpp</text>
</a>
</g>
</g>
<!-- Node9&#45;&gt;Node10 -->
<g id="edge2" class="edge"><title>Node9&#45;&gt;Node10</title>
<path fill="none" stroke="midnightblue" d="M1471,-57.3165C1471,-46.4962 1471,-33.398 1471,-25.0091"/>
<polygon fill="midnightblue" stroke="midnightblue" points="1467.5,-57.4751 1471,-67.4751 1474.5,-57.4751 1467.5,-57.4751"/>
</g>
<!-- Node11 -->
<g id="node4" class="node"><title>Node11</title>
<g id="a_node4"><a xlink:href="cbeditorprintout_8cpp" target="_top" xlink:title="cbeditorprintout.cpp">
<polygon fill="none" stroke="black" points="1523.5,-6 1523.5,-25 1624.5,-25 1624.5,-6 1523.5,-6"/>
<text text-anchor="middle" x="1574" y="-13" font-family="FreeSans" font-size="10.00">cbeditorprintout.cpp</text>
</a>
</g>
</g>
<!-- Node9&#45;&gt;Node11 -->
<g id="edge3" class="edge"><title>Node9&#45;&gt;Node11</title>
<path fill="none" stroke="midnightblue" d="M1494.54,-62.4006C1514.46,-50.8957 1542.38,-34.7667 1559.27,-25.0091"/>
<polygon fill="midnightblue" stroke="midnightblue" points="1492.67,-59.4423 1485.76,-67.4751 1496.17,-65.5036 1492.67,-59.4423"/>
</g>
<!-- Node12 -->
<g id="node5" class="node"><title>Node12</title>
<g id="a_node5"><a xlink:href="cbplugin_8cpp" target="_top" xlink:title="cbplugin.cpp">
<polygon fill="none" stroke="black" points="1642.5,-6 1642.5,-25 1713.5,-25 1713.5,-6 1642.5,-6"/>
<text text-anchor="middle" x="1678" y="-13" font-family="FreeSans" font-size="10.00">cbplugin.cpp</text>
</a>
</g>
</g>
<!-- Node9&#45;&gt;Node12 -->
<g id="edge4" class="edge"><title>Node9&#45;&gt;Node12</title>
<path fill="none" stroke="midnightblue" d="M1513.69,-64.8275C1546.67,-56.0486 1593.38,-43.2909 1634,-31 1640,-29.1829 1646.43,-27.127 1652.47,-25.1465"/>
<polygon fill="midnightblue" stroke="midnightblue" points="1512.69,-61.4725 1503.92,-67.4194 1514.48,-68.2386 1512.69,-61.4725"/>
</g>
<!-- Node13 -->
<g id="node6" class="node"><title>Node13</title>
<g id="a_node6"><a xlink:href="cbstyledtextctrl_8cpp" target="_top" xlink:title="cbstyledtextctrl.cpp">
<polygon fill="none" stroke="black" points="1731.5,-6 1731.5,-25 1830.5,-25 1830.5,-6 1731.5,-6"/>
<text text-anchor="middle" x="1781" y="-13" font-family="FreeSans" font-size="10.00">cbstyledtextctrl.cpp</text>
</a>
</g>
</g>
<!-- Node9&#45;&gt;Node13 -->
<g id="edge5" class="edge"><title>Node9&#45;&gt;Node13</title>
<path fill="none" stroke="midnightblue" d="M1525.71,-66.6805C1588.12,-55.9708 1686.26,-38.8634 1723,-31 1731.32,-29.2188 1740.26,-27.0909 1748.57,-25.0213"/>
<polygon fill="midnightblue" stroke="midnightblue" points="1524.9,-63.2679 1515.64,-68.4069 1526.09,-70.1673 1524.9,-63.2679"/>
</g>
<!-- Node14 -->
<g id="node7" class="node"><title>Node14</title>
<g id="a_node7"><a xlink:href="ccmanager_8cpp" target="_top" xlink:title="ccmanager.cpp">
<polygon fill="none" stroke="black" points="1848.5,-6 1848.5,-25 1931.5,-25 1931.5,-6 1848.5,-6"/>
<text text-anchor="middle" x="1890" y="-13" font-family="FreeSans" font-size="10.00">ccmanager.cpp</text>
</a>
</g>
</g>
<!-- Node9&#45;&gt;Node14 -->
<g id="edge6" class="edge"><title>Node9&#45;&gt;Node14</title>
<path fill="none" stroke="midnightblue" d="M1526.04,-66.9373C1666.35,-47.9195 1705.08,-58.0722 1840,-31 1847.8,-29.4353 1856.14,-27.2329 1863.74,-25.0162"/>
<polygon fill="midnightblue" stroke="midnightblue" points="1525.19,-63.5218 1515.76,-68.3579 1526.15,-70.456 1525.19,-63.5218"/>
</g>
<!-- Node15 -->
<g id="node8" class="node"><title>Node15</title>
<g id="a_node8"><a xlink:href="confirmreplacedlg_8cpp" target="_top" xlink:title="confirmreplacedlg.cpp">
<polygon fill="none" stroke="black" points="1950,-6 1950,-25 2060,-25 2060,-6 1950,-6"/>
<text text-anchor="middle" x="2005" y="-13" font-family="FreeSans" font-size="10.00">confirmreplacedlg.cpp</text>
</a>
</g>
</g>
<!-- Node9&#45;&gt;Node15 -->
<g id="edge7" class="edge"><title>Node9&#45;&gt;Node15</title>
<path fill="none" stroke="midnightblue" d="M1525.81,-67.0059C1710.86,-44.2706 1760.86,-59.0674 1941,-31 1950.91,-29.4566 1961.56,-27.2609 1971.29,-25.0437"/>
<polygon fill="midnightblue" stroke="midnightblue" points="1525.24,-63.5504 1515.75,-68.2628 1526.11,-70.4965 1525.24,-63.5504"/>
</g>
<!-- Node16 -->
<g id="node9" class="node"><title>Node16</title>
<g id="a_node9"><a xlink:href="editorbase_8cpp" target="_top" xlink:title="editorbase.cpp">
<polygon fill="none" stroke="black" points="2078.5,-6 2078.5,-25 2157.5,-25 2157.5,-6 2078.5,-6"/>
<text text-anchor="middle" x="2118" y="-13" font-family="FreeSans" font-size="10.00">editorbase.cpp</text>
</a>
</g>
</g>
<!-- Node9&#45;&gt;Node16 -->
<g id="edge8" class="edge"><title>Node9&#45;&gt;Node16</title>
<path fill="none" stroke="midnightblue" d="M1525.89,-67.0326C1767.49,-39.9797 1833.74,-73.0564 2069,-31 2076.95,-29.5793 2085.44,-27.3365 2093.08,-25.0355"/>
<polygon fill="midnightblue" stroke="midnightblue" points="1525.28,-63.5795 1515.74,-68.1926 1526.07,-70.5343 1525.28,-63.5795"/>
</g>
<!-- Node17 -->
<g id="node10" class="node"><title>Node17</title>
<g id="a_node10"><a xlink:href="editorcolourset_8cpp" target="_top" xlink:title="editorcolourset.cpp">
<polygon fill="none" stroke="black" points="318,-6 318,-25 416,-25 416,-6 318,-6"/>
<text text-anchor="middle" x="367" y="-13" font-family="FreeSans" font-size="10.00">editorcolourset.cpp</text>
</a>
</g>
</g>
<!-- Node9&#45;&gt;Node17 -->
<g id="edge9" class="edge"><title>Node9&#45;&gt;Node17</title>
<path fill="none" stroke="midnightblue" d="M1416.07,-75.1012C1229.22,-71.8146 619.091,-59.1412 425,-31 415.55,-29.6298 405.401,-27.3718 396.277,-25.041"/>
<polygon fill="midnightblue" stroke="midnightblue" points="1416.15,-78.603 1426.21,-75.2776 1416.27,-71.604 1416.15,-78.603"/>
</g>
<!-- Node18 -->
<g id="node11" class="node"><title>Node18</title>
<g id="a_node11"><a xlink:href="editormanager_8cpp" target="_top" xlink:title="editormanager.cpp">
<polygon fill="none" stroke="black" points="434,-6 434,-25 530,-25 530,-6 434,-6"/>
<text text-anchor="middle" x="482" y="-13" font-family="FreeSans" font-size="10.00">editormanager.cpp</text>
</a>
</g>
</g>
<!-- Node9&#45;&gt;Node18 -->
<g id="edge10" class="edge"><title>Node9&#45;&gt;Node18</title>
<path fill="none" stroke="midnightblue" d="M1416.11,-74.7646C1243.12,-70.648 710.704,-56.2127 540,-31 530.553,-29.6048 520.406,-27.3397 511.281,-25.0101"/>
<polygon fill="midnightblue" stroke="midnightblue" points="1416.17,-78.267 1426.25,-75.004 1416.34,-71.269 1416.17,-78.267"/>
</g>
<!-- Node19 -->
<g id="node12" class="node"><title>Node19</title>
<g id="a_node12"><a xlink:href="filemanager_8cpp" target="_top" xlink:title="filemanager.cpp">
<polygon fill="none" stroke="black" points="2175,-6 2175,-25 2259,-25 2259,-6 2175,-6"/>
<text text-anchor="middle" x="2217" y="-13" font-family="FreeSans" font-size="10.00">filemanager.cpp</text>
</a>
</g>
</g>
<!-- Node9&#45;&gt;Node19 -->
<g id="edge11" class="edge"><title>Node9&#45;&gt;Node19</title>
<path fill="none" stroke="midnightblue" d="M1525.96,-67.0394C1810.85,-36.4723 1888.6,-78.5423 2167,-31 2175.2,-29.6003 2183.96,-27.334 2191.82,-25.0046"/>
<polygon fill="midnightblue" stroke="midnightblue" points="1525.3,-63.5909 1515.74,-68.1576 1526.06,-70.5494 1525.3,-63.5909"/>
</g>
<!-- Node20 -->
<g id="node13" class="node"><title>Node20</title>
<g id="a_node13"><a xlink:href="macrosmanager_8cpp" target="_top" xlink:title="macrosmanager.cpp">
<polygon fill="none" stroke="black" points="2277,-6 2277,-25 2381,-25 2381,-6 2277,-6"/>
<text text-anchor="middle" x="2329" y="-13" font-family="FreeSans" font-size="10.00">macrosmanager.cpp</text>
</a>
</g>
</g>
<!-- Node9&#45;&gt;Node20 -->
<g id="edge12" class="edge"><title>Node9&#45;&gt;Node20</title>
<path fill="none" stroke="midnightblue" d="M1526.05,-67.0382C1855.53,-32.6908 1944.02,-76.9509 2268,-31 2277.81,-29.609 2288.35,-27.3747 2297.87,-25.0724"/>
<polygon fill="midnightblue" stroke="midnightblue" points="1525.31,-63.5972 1515.73,-68.1312 1526.05,-70.5583 1525.31,-63.5972"/>
</g>
<!-- Node21 -->
<g id="node14" class="node"><title>Node21</title>
<g id="a_node14"><a xlink:href="newfromtemplatedlg_8cpp" target="_top" xlink:title="newfromtemplatedlg.cpp">
<polygon fill="none" stroke="black" points="2399,-6 2399,-25 2521,-25 2521,-6 2399,-6"/>
<text text-anchor="middle" x="2460" y="-13" font-family="FreeSans" font-size="10.00">newfromtemplatedlg.cpp</text>
</a>
</g>
</g>
<!-- Node9&#45;&gt;Node21 -->
<g id="edge13" class="edge"><title>Node9&#45;&gt;Node21</title>
<path fill="none" stroke="midnightblue" d="M1525.72,-67.0813C1909.46,-28.1582 2011.39,-77.7763 2390,-31 2401.33,-29.6 2413.56,-27.3336 2424.58,-25.0043"/>
<polygon fill="midnightblue" stroke="midnightblue" points="1525.32,-63.6034 1515.73,-68.1076 1526.04,-70.5667 1525.32,-63.6034"/>
</g>
<!-- Node22 -->
<g id="node15" class="node"><title>Node22</title>
<g id="a_node15"><a xlink:href="scriptbindings_8cpp" target="_top" xlink:title="scriptbindings.cpp">
<polygon fill="none" stroke="black" points="2539.5,-6 2539.5,-25 2632.5,-25 2632.5,-6 2539.5,-6"/>
<text text-anchor="middle" x="2586" y="-13" font-family="FreeSans" font-size="10.00">scriptbindings.cpp</text>
</a>
</g>
</g>
<!-- Node9&#45;&gt;Node22 -->
<g id="edge14" class="edge"><title>Node9&#45;&gt;Node22</title>
<path fill="none" stroke="midnightblue" d="M1525.98,-67.0652C1971.5,-23.2675 2091.06,-94.9104 2530,-31 2539.24,-29.6543 2549.16,-27.3727 2558.04,-25.0128"/>
<polygon fill="midnightblue" stroke="midnightblue" points="1525.33,-63.6122 1515.73,-68.0874 1526.03,-70.5777 1525.33,-63.6122"/>
</g>
<!-- Node23 -->
<g id="node16" class="node"><title>Node23</title>
<g id="a_node16"><a xlink:href="searchresultslog_8cpp" target="_top" xlink:title="searchresultslog.cpp">
<polygon fill="none" stroke="black" points="2651,-6 2651,-25 2755,-25 2755,-6 2651,-6"/>
<text text-anchor="middle" x="2703" y="-13" font-family="FreeSans" font-size="10.00">searchresultslog.cpp</text>
</a>
</g>
</g>
<!-- Node9&#45;&gt;Node23 -->
<g id="edge15" class="edge"><title>Node9&#45;&gt;Node23</title>
<path fill="none" stroke="midnightblue" d="M1526,-67.0673C2021.09,-19.1325 2153.04,-96.3167 2642,-31 2652.03,-29.6596 2662.83,-27.3795 2672.51,-25.0193"/>
<polygon fill="midnightblue" stroke="midnightblue" points="1525.34,-63.6156 1515.73,-68.075 1526.02,-70.5821 1525.34,-63.6156"/>
</g>
<!-- Node24 -->
<g id="node17" class="node"><title>Node24</title>
<g id="a_node17"><a xlink:href="app_8cpp" target="_top" xlink:title="app.cpp">
<polygon fill="none" stroke="black" points="2773,-6 2773,-25 2823,-25 2823,-6 2773,-6"/>
<text text-anchor="middle" x="2798" y="-13" font-family="FreeSans" font-size="10.00">app.cpp</text>
</a>
</g>
</g>
<!-- Node9&#45;&gt;Node24 -->
<g id="edge16" class="edge"><title>Node9&#45;&gt;Node24</title>
<path fill="none" stroke="midnightblue" d="M1525.86,-67.1194C1815.4,-41.4477 2498.11,-89.3654 2764,-31 2769.89,-29.7067 2776.04,-27.4082 2781.46,-25.017"/>
<polygon fill="midnightblue" stroke="midnightblue" points="1525.36,-63.6508 1515.73,-68.0639 1526.01,-70.6206 1525.36,-63.6508"/>
</g>
<!-- Node25 -->
<g id="node18" class="node"><title>Node25</title>
<g id="a_node18"><a xlink:href="breakpointsdlg_8cpp" target="_top" xlink:title="breakpointsdlg.cpp">
<polygon fill="none" stroke="black" points="2841.5,-6 2841.5,-25 2938.5,-25 2938.5,-6 2841.5,-6"/>
<text text-anchor="middle" x="2890" y="-13" font-family="FreeSans" font-size="10.00">breakpointsdlg.cpp</text>
</a>
</g>
</g>
<!-- Node9&#45;&gt;Node25 -->
<g id="edge17" class="edge"><title>Node9&#45;&gt;Node25</title>
<path fill="none" stroke="midnightblue" d="M1526.01,-67.0735C2105.22,-12.253 2259.65,-109.473 2832,-31 2841.56,-29.6888 2851.83,-27.4167 2861.03,-25.0548"/>
<polygon fill="midnightblue" stroke="midnightblue" points="1525.35,-63.6211 1515.73,-68.0587 1526.01,-70.5892 1525.35,-63.6211"/>
</g>
<!-- Node26 -->
<g id="node19" class="node"><title>Node26</title>
<g id="a_node19"><a xlink:href="crashhandler_8cpp" target="_top" xlink:title="crashhandler.cpp">
<polygon fill="none" stroke="black" points="2956.5,-6 2956.5,-25 3045.5,-25 3045.5,-6 2956.5,-6"/>
<text text-anchor="middle" x="3001" y="-13" font-family="FreeSans" font-size="10.00">crashhandler.cpp</text>
</a>
</g>
</g>
<!-- Node9&#45;&gt;Node26 -->
<g id="edge18" class="edge"><title>Node9&#45;&gt;Node26</title>
<path fill="none" stroke="midnightblue" d="M1525.85,-67.1157C1856.15,-37.7392 2638.26,-76.6006 2948,-31 2956.87,-29.6939 2966.37,-27.392 2974.85,-25.0017"/>
<polygon fill="midnightblue" stroke="midnightblue" points="1525.36,-63.6454 1515.73,-68.0509 1526.01,-70.6157 1525.36,-63.6454"/>
</g>
<!-- Node27 -->
<g id="node20" class="node"><title>Node27</title>
<g id="a_node20"><a xlink:href="debugger__interface__creator_8cpp" target="_top" xlink:title="debugger_interface\l_creator.cpp">
<polygon fill="none" stroke="black" points="548.5,-0.5 548.5,-30.5 647.5,-30.5 647.5,-0.5 548.5,-0.5"/>
<text text-anchor="start" x="556.5" y="-18.5" font-family="FreeSans" font-size="10.00">debugger_interface</text>
<text text-anchor="middle" x="598" y="-7.5" font-family="FreeSans" font-size="10.00">_creator.cpp</text>
</a>
</g>
</g>
<!-- Node9&#45;&gt;Node27 -->
<g id="edge19" class="edge"><title>Node9&#45;&gt;Node27</title>
<path fill="none" stroke="midnightblue" d="M1415.9,-76.4681C1284.03,-76.8262 940.152,-73.246 657,-31 653.975,-30.5486 650.878,-30.0134 647.764,-29.4192"/>
<polygon fill="midnightblue" stroke="midnightblue" points="1416.16,-79.9673 1426.14,-76.431 1416.13,-72.9673 1416.16,-79.9673"/>
</g>
<!-- Node28 -->
<g id="node21" class="node"><title>Node28</title>
<g id="a_node21"><a xlink:href="debuggermenu_8cpp" target="_top" xlink:title="debuggermenu.cpp">
<polygon fill="none" stroke="black" points="666,-6 666,-25 764,-25 764,-6 666,-6"/>
<text text-anchor="middle" x="715" y="-13" font-family="FreeSans" font-size="10.00">debuggermenu.cpp</text>
</a>
</g>
</g>
<!-- Node9&#45;&gt;Node28 -->
<g id="edge20" class="edge"><title>Node9&#45;&gt;Node28</title>
<path fill="none" stroke="midnightblue" d="M1415.94,-75.8175C1297.56,-74.6893 1010.3,-68.0014 773,-31 763.77,-29.5608 753.861,-27.3414 744.892,-25.0683"/>
<polygon fill="midnightblue" stroke="midnightblue" points="1416.16,-79.3195 1426.19,-75.9052 1416.22,-72.3197 1416.16,-79.3195"/>
</g>
<!-- Node29 -->
<g id="node22" class="node"><title>Node29</title>
<g id="a_node22"><a xlink:href="editorconfigurationdlg_8cpp" target="_top" xlink:title="editorconfigurationdlg.cpp">
<polygon fill="none" stroke="black" points="100,-6 100,-25 226,-25 226,-6 100,-6"/>
<text text-anchor="middle" x="163" y="-13" font-family="FreeSans" font-size="10.00">editorconfigurationdlg.cpp</text>
</a>
</g>
</g>
<!-- Node9&#45;&gt;Node29 -->
<g id="edge21" class="edge"><title>Node9&#45;&gt;Node29</title>
<path fill="none" stroke="midnightblue" d="M1416.14,-75.1877C1208.21,-71.9252 468.688,-58.5999 235,-31 223.35,-29.6241 210.775,-27.3644 199.444,-25.0339"/>
<polygon fill="midnightblue" stroke="midnightblue" points="1416.16,-78.6883 1426.21,-75.3444 1416.26,-71.6892 1416.16,-78.6883"/>
</g>
<!-- Node30 -->
<g id="node23" class="node"><title>Node30</title>
<g id="a_node23"><a xlink:href="find__replace_8cpp" target="_top" xlink:title="find_replace.cpp">
<polygon fill="none" stroke="black" points="782,-6 782,-25 868,-25 868,-6 782,-6"/>
<text text-anchor="middle" x="825" y="-13" font-family="FreeSans" font-size="10.00">find_replace.cpp</text>
</a>
</g>
</g>
<!-- Node9&#45;&gt;Node30 -->
<g id="edge22" class="edge"><title>Node9&#45;&gt;Node30</title>
<path fill="none" stroke="midnightblue" d="M1416.22,-75.4308C1310.95,-73.5487 1073.42,-65.481 877,-31 868.692,-29.5416 859.799,-27.3165 851.758,-25.044"/>
<polygon fill="midnightblue" stroke="midnightblue" points="1416.24,-78.9314 1426.29,-75.5989 1416.35,-71.9323 1416.24,-78.9314"/>
</g>
<!-- Node31 -->
<g id="node24" class="node"><title>Node31</title>
<g id="a_node24"><a xlink:href="main_8cpp" target="_top" xlink:title="main.cpp">
<polygon fill="none" stroke="black" points="244,-6 244,-25 300,-25 300,-6 244,-6"/>
<text text-anchor="middle" x="272" y="-13" font-family="FreeSans" font-size="10.00">main.cpp</text>
</a>
</g>
</g>
<!-- Node9&#45;&gt;Node31 -->
<g id="edge23" class="edge"><title>Node9&#45;&gt;Node31</title>
<path fill="none" stroke="midnightblue" d="M1415.96,-76.2968C1215.42,-77.0013 524.375,-76.0286 309,-31 302.787,-29.701 296.261,-27.463 290.449,-25.1287"/>
<polygon fill="midnightblue" stroke="midnightblue" points="1416.26,-79.7958 1426.25,-76.2577 1416.23,-72.7959 1416.26,-79.7958"/>
</g>
<!-- Node32 -->
<g id="node25" class="node"><title>Node32</title>
<g id="a_node25"><a xlink:href="printdlg_8cpp" target="_top" xlink:title="printdlg.cpp">
<polygon fill="none" stroke="black" points="886,-6 886,-25 952,-25 952,-6 886,-6"/>
<text text-anchor="middle" x="919" y="-13" font-family="FreeSans" font-size="10.00">printdlg.cpp</text>
</a>
</g>
</g>
<!-- Node9&#45;&gt;Node32 -->
<g id="edge24" class="edge"><title>Node9&#45;&gt;Node32</title>
<path fill="none" stroke="midnightblue" d="M1416.1,-75.3904C1322.11,-73.4069 1124.77,-65.1335 962,-31 955.06,-29.5448 947.686,-27.3206 941.039,-25.048"/>
<polygon fill="midnightblue" stroke="midnightblue" points="1416.16,-78.8921 1426.23,-75.588 1416.3,-71.8935 1416.16,-78.8921"/>
</g>
<!-- Node33 -->
<g id="node26" class="node"><title>Node33</title>
<g id="a_node26"><a xlink:href="classbrowser_8cpp" target="_top" xlink:title="classbrowser.cpp">
<polygon fill="none" stroke="black" points="970.5,-6 970.5,-25 1059.5,-25 1059.5,-6 970.5,-6"/>
<text text-anchor="middle" x="1015" y="-13" font-family="FreeSans" font-size="10.00">classbrowser.cpp</text>
</a>
</g>
</g>
<!-- Node9&#45;&gt;Node33 -->
<g id="edge25" class="edge"><title>Node9&#45;&gt;Node33</title>
<path fill="none" stroke="midnightblue" d="M1416.31,-72.5053C1338.61,-66.9455 1192,-54.2603 1069,-31 1060.7,-29.4307 1051.81,-27.2534 1043.68,-25.0626"/>
<polygon fill="midnightblue" stroke="midnightblue" points="1416.14,-76.0013 1426.36,-73.2114 1416.63,-69.0185 1416.14,-76.0013"/>
</g>
<!-- Node34 -->
<g id="node27" class="node"><title>Node34</title>
<g id="a_node27"><a xlink:href="codecompletion_8cpp" target="_top" xlink:title="codecompletion.cpp">
<polygon fill="none" stroke="black" points="1077.5,-6 1077.5,-25 1180.5,-25 1180.5,-6 1077.5,-6"/>
<text text-anchor="middle" x="1129" y="-13" font-family="FreeSans" font-size="10.00">codecompletion.cpp</text>
</a>
</g>
</g>
<!-- Node9&#45;&gt;Node34 -->
<g id="edge26" class="edge"><title>Node9&#45;&gt;Node34</title>
<path fill="none" stroke="midnightblue" d="M1415.84,-68.408C1359.03,-60.2973 1268.01,-46.4957 1190,-31 1181.14,-29.2397 1171.61,-27.0967 1162.78,-25.0041"/>
<polygon fill="midnightblue" stroke="midnightblue" points="1415.65,-71.9157 1426.04,-69.8553 1416.63,-64.9851 1415.65,-71.9157"/>
</g>
<!-- Node35 -->
<g id="node28" class="node"><title>Node35</title>
<g id="a_node28"><a xlink:href="coderefactoring_8cpp" target="_top" xlink:title="coderefactoring.cpp">
<polygon fill="none" stroke="black" points="1198.5,-6 1198.5,-25 1299.5,-25 1299.5,-6 1198.5,-6"/>
<text text-anchor="middle" x="1249" y="-13" font-family="FreeSans" font-size="10.00">coderefactoring.cpp</text>
</a>
</g>
</g>
<!-- Node9&#45;&gt;Node35 -->
<g id="edge27" class="edge"><title>Node9&#45;&gt;Node35</title>
<path fill="none" stroke="midnightblue" d="M1429.3,-64.8225C1386.17,-53.2645 1319.79,-35.4732 1280.75,-25.0091"/>
<polygon fill="midnightblue" stroke="midnightblue" points="1428.63,-68.2669 1439.19,-67.4751 1430.44,-61.5055 1428.63,-68.2669"/>
</g>
<!-- Node36 -->
<g id="node29" class="node"><title>Node36</title>
<g id="a_node29"><a xlink:href="doxygen__parser_8cpp" target="_top" xlink:title="doxygen_parser.cpp">
<polygon fill="none" stroke="black" points="1317.5,-6 1317.5,-25 1418.5,-25 1418.5,-6 1317.5,-6"/>
<text text-anchor="middle" x="1368" y="-13" font-family="FreeSans" font-size="10.00">doxygen_parser.cpp</text>
</a>
</g>
</g>
<!-- Node9&#45;&gt;Node36 -->
<g id="edge28" class="edge"><title>Node9&#45;&gt;Node36</title>
<path fill="none" stroke="midnightblue" d="M1447.46,-62.4006C1427.54,-50.8957 1399.62,-34.7667 1382.73,-25.0091"/>
<polygon fill="midnightblue" stroke="midnightblue" points="1445.83,-65.5036 1456.24,-67.4751 1449.33,-59.4423 1445.83,-65.5036"/>
</g>
<!-- Node42&#45;&gt;Node17 -->
<g id="edge31" class="edge"><title>Node42&#45;&gt;Node17</title>
<path fill="none" stroke="midnightblue" d="M332.175,-59.6685C341.224,-48.452 352.869,-34.0161 360.136,-25.0091"/>
<polygon fill="midnightblue" stroke="midnightblue" points="329.432,-57.4944 325.877,-67.4751 334.88,-61.8896 329.432,-57.4944"/>
</g>
<!-- Node42&#45;&gt;Node18 -->
<g id="edge32" class="edge"><title>Node42&#45;&gt;Node18</title>
<path fill="none" stroke="midnightblue" d="M352.058,-63.9329C383.739,-52.3683 430.749,-35.2083 458.689,-25.0091"/>
<polygon fill="midnightblue" stroke="midnightblue" points="350.547,-60.7582 342.354,-67.4751 352.948,-67.3338 350.547,-60.7582"/>
</g>
<!-- Node42&#45;&gt;Node29 -->
<g id="edge33" class="edge"><title>Node42&#45;&gt;Node29</title>
<path fill="none" stroke="midnightblue" d="M286.967,-63.7824C256.652,-52.2199 211.934,-35.1641 185.31,-25.0091"/>
<polygon fill="midnightblue" stroke="midnightblue" points="286.058,-67.1816 296.649,-67.4751 288.553,-60.6411 286.058,-67.1816"/>
</g>
<!-- Node42&#45;&gt;Node31 -->
<g id="edge34" class="edge"><title>Node42&#45;&gt;Node31</title>
<path fill="none" stroke="midnightblue" d="M305.838,-59.3377C297.016,-48.1694 285.767,-33.9278 278.721,-25.0091"/>
<polygon fill="midnightblue" stroke="midnightblue" points="303.321,-61.7975 312.266,-67.4751 308.814,-57.4584 303.321,-61.7975"/>
</g>
<!-- Node42&#45;&gt;Node43 -->
<g id="edge30" class="edge"><title>Node42&#45;&gt;Node43</title>
<path fill="none" stroke="midnightblue" d="M265.341,-66.7771C218.954,-58.4787 150.228,-45.4037 91,-31 83.7986,-29.2487 76.0805,-27.1316 68.9157,-25.0627"/>
<polygon fill="midnightblue" stroke="midnightblue" points="265.01,-70.2732 275.469,-68.5765 266.235,-63.3811 265.01,-70.2732"/>
</g>
</g>
</svg>
