<?xml version="1.0" encoding="UTF-8" standalone="no"?>
<!DOCTYPE svg PUBLIC "-//W3C//DTD SVG 1.1//EN"
 "http://www.w3.org/Graphics/SVG/1.1/DTD/svg11.dtd">
<!-- Generated by graphviz version 2.40.1 (20161225.0304)
 -->
<!-- Title: wxscintilla.h Pages: 1 -->
<svg width="3054pt" height="151pt"
 viewBox="0.00 0.00 3053.50 151.00" xmlns="http://www.w3.org/2000/svg" xmlns:xlink="http://www.w3.org/1999/xlink">
<g id="graph0" class="graph" transform="scale(1 1) rotate(0) translate(4 147)">
<title>wxscintilla.h</title>
<!-- Node7 -->
<g id="node1" class="node">
<title>Node7</title>
<polygon fill="#bfbfbf" stroke="#000000" points="884,-123.5 884,-142.5 952,-142.5 952,-123.5 884,-123.5"/>
<text text-anchor="middle" x="918" y="-130.5" font-family="FreeSans" font-size="10.00" fill="#000000">wxscintilla.h</text>
</g>
<!-- Node8 -->
<g id="node2" class="node">
<title>Node8</title>
<g id="a_node2"><a xlink:href="cbstyledtextctrl_8h" target="_top" xlink:title="cbstyledtextctrl.h">
<polygon fill="none" stroke="#ff0000" points="1426.5,-67.5 1426.5,-86.5 1515.5,-86.5 1515.5,-67.5 1426.5,-67.5"/>
<text text-anchor="middle" x="1471" y="-74.5" font-family="FreeSans" font-size="10.00" fill="#000000">cbstyledtextctrl.h</text>
</a>
</g>
</g>
<!-- Node7&#45;&gt;Node8 -->
<g id="edge1" class="edge">
<title>Node7&#45;&gt;Node8</title>
<path fill="none" stroke="#191970" d="M962.2768,-128.5163C1065.6991,-118.0431 1322.2345,-92.0649 1426.1854,-81.5382"/>
<polygon fill="#191970" stroke="#191970" points="961.7718,-125.0494 952.1753,-129.5392 962.4771,-132.0138 961.7718,-125.0494"/>
</g>
<!-- Node41 -->
<g id="node30" class="node">
<title>Node41</title>
<g id="a_node30"><a xlink:href="editorcolourset_8h" target="_top" xlink:title="editorcolourset.h">
<polygon fill="none" stroke="#ff0000" points="275.5,-67.5 275.5,-86.5 362.5,-86.5 362.5,-67.5 275.5,-67.5"/>
<text text-anchor="middle" x="319" y="-74.5" font-family="FreeSans" font-size="10.00" fill="#000000">editorcolourset.h</text>
</a>
</g>
</g>
<!-- Node7&#45;&gt;Node41 -->
<g id="edge29" class="edge">
<title>Node7&#45;&gt;Node41</title>
<path fill="none" stroke="#191970" d="M873.4394,-128.8341C762.1338,-118.4282 472.9844,-91.3959 362.6528,-81.0811"/>
<polygon fill="#191970" stroke="#191970" points="873.3613,-132.3419 883.6437,-129.7881 874.013,-125.3723 873.3613,-132.3419"/>
</g>
<!-- Node42 -->
<g id="node31" class="node">
<title>Node42</title>
<g id="a_node31"><a xlink:href="sdk__common_8h" target="_top" xlink:title="sdk_common.h">
<polygon fill="none" stroke="#ff0000" points="0,-6 0,-25 82,-25 82,-6 0,-6"/>
<text text-anchor="middle" x="41" y="-13" font-family="FreeSans" font-size="10.00" fill="#000000">sdk_common.h</text>
</a>
</g>
</g>
<!-- Node7&#45;&gt;Node42 -->
<g id="edge35" class="edge">
<title>Node7&#45;&gt;Node42</title>
<path fill="none" stroke="#191970" d="M873.5447,-131.2259C746.5463,-125.9407 383.7778,-109.2742 267,-87 191.2048,-72.5429 105.2019,-40.9076 64.6037,-25.0129"/>
<polygon fill="#191970" stroke="#191970" points="873.5498,-134.729 883.6857,-131.6445 873.8386,-127.7349 873.5498,-134.729"/>
</g>
<!-- Node154 -->
<g id="node32" class="node">
<title>Node154</title>
<g id="a_node32"><a xlink:href="editor__hooks_8cpp" target="_top" xlink:title="editor_hooks.cpp">
<polygon fill="none" stroke="#000000" points="1533.5,-67.5 1533.5,-86.5 1622.5,-86.5 1622.5,-67.5 1533.5,-67.5"/>
<text text-anchor="middle" x="1578" y="-74.5" font-family="FreeSans" font-size="10.00" fill="#000000">editor_hooks.cpp</text>
</a>
</g>
</g>
<!-- Node7&#45;&gt;Node154 -->
<g id="edge36" class="edge">
<title>Node7&#45;&gt;Node154</title>
<path fill="none" stroke="#191970" d="M962.0972,-131.3353C1062.4161,-127.1822 1315.2703,-114.6462 1525,-87 1527.6922,-86.6451 1530.4546,-86.2423 1533.2367,-85.807"/>
<polygon fill="#191970" stroke="#191970" points="961.8777,-127.8412 952.0283,-131.745 962.1624,-134.8355 961.8777,-127.8412"/>
</g>
<!-- Node9 -->
<g id="node3" class="node">
<title>Node9</title>
<g id="a_node3"><a xlink:href="cbeditor_8cpp" target="_top" xlink:title="cbeditor.cpp">
<polygon fill="none" stroke="#000000" points="1436.5,-6 1436.5,-25 1505.5,-25 1505.5,-6 1436.5,-6"/>
<text text-anchor="middle" x="1471" y="-13" font-family="FreeSans" font-size="10.00" fill="#000000">cbeditor.cpp</text>
</a>
</g>
</g>
<!-- Node8&#45;&gt;Node9 -->
<g id="edge2" class="edge">
<title>Node8&#45;&gt;Node9</title>
<path fill="none" stroke="#191970" d="M1471,-57.2462C1471,-46.5519 1471,-33.814 1471,-25.2449"/>
<polygon fill="#191970" stroke="#191970" points="1467.5001,-57.3906 1471,-67.3906 1474.5001,-57.3907 1467.5001,-57.3906"/>
</g>
<!-- Node10 -->
<g id="node4" class="node">
<title>Node10</title>
<g id="a_node4"><a xlink:href="cbeditorprintout_8cpp" target="_top" xlink:title="cbeditorprintout.cpp">
<polygon fill="none" stroke="#000000" points="1523.5,-6 1523.5,-25 1624.5,-25 1624.5,-6 1523.5,-6"/>
<text text-anchor="middle" x="1574" y="-13" font-family="FreeSans" font-size="10.00" fill="#000000">cbeditorprintout.cpp</text>
</a>
</g>
</g>
<!-- Node8&#45;&gt;Node10 -->
<g id="edge3" class="edge">
<title>Node8&#45;&gt;Node10</title>
<path fill="none" stroke="#191970" d="M1495.689,-62.2585C1515.0268,-50.7122 1541.3582,-34.99 1558.0193,-25.0419"/>
<polygon fill="#191970" stroke="#191970" points="1493.8854,-59.2589 1487.0938,-67.3906 1497.474,-65.2691 1493.8854,-59.2589"/>
</g>
<!-- Node11 -->
<g id="node5" class="node">
<title>Node11</title>
<g id="a_node5"><a xlink:href="cbplugin_8cpp" target="_top" xlink:title="cbplugin.cpp">
<polygon fill="none" stroke="#000000" points="1642.5,-6 1642.5,-25 1713.5,-25 1713.5,-6 1642.5,-6"/>
<text text-anchor="middle" x="1678" y="-13" font-family="FreeSans" font-size="10.00" fill="#000000">cbplugin.cpp</text>
</a>
</g>
</g>
<!-- Node8&#45;&gt;Node11 -->
<g id="edge4" class="edge">
<title>Node8&#45;&gt;Node11</title>
<path fill="none" stroke="#191970" d="M1517.2084,-64.8015C1549.9695,-55.9482 1594.8804,-43.3965 1634,-31 1639.7133,-29.1895 1645.8001,-27.1306 1651.5671,-25.1181"/>
<polygon fill="#191970" stroke="#191970" points="1516.1987,-61.4486 1507.4511,-67.4261 1518.017,-68.2084 1516.1987,-61.4486"/>
</g>
<!-- Node12 -->
<g id="node6" class="node">
<title>Node12</title>
<g id="a_node6"><a xlink:href="cbstyledtextctrl_8cpp" target="_top" xlink:title="cbstyledtextctrl.cpp">
<polygon fill="none" stroke="#000000" points="1731.5,-6 1731.5,-25 1830.5,-25 1830.5,-6 1731.5,-6"/>
<text text-anchor="middle" x="1781" y="-13" font-family="FreeSans" font-size="10.00" fill="#000000">cbstyledtextctrl.cpp</text>
</a>
</g>
</g>
<!-- Node8&#45;&gt;Node12 -->
<g id="edge5" class="edge">
<title>Node8&#45;&gt;Node12</title>
<path fill="none" stroke="#191970" d="M1525.7672,-66.8766C1614.6531,-50.8122 1638.7911,-49.8746 1723,-31 1730.8313,-29.2447 1739.1988,-27.143 1747.0714,-25.0622"/>
<polygon fill="#191970" stroke="#191970" points="1524.9979,-63.4591 1515.787,-68.6945 1526.2524,-70.3458 1524.9979,-63.4591"/>
</g>
<!-- Node13 -->
<g id="node7" class="node">
<title>Node13</title>
<g id="a_node7"><a xlink:href="ccmanager_8cpp" target="_top" xlink:title="ccmanager.cpp">
<polygon fill="none" stroke="#000000" points="1848.5,-6 1848.5,-25 1931.5,-25 1931.5,-6 1848.5,-6"/>
<text text-anchor="middle" x="1890" y="-13" font-family="FreeSans" font-size="10.00" fill="#000000">ccmanager.cpp</text>
</a>
</g>
</g>
<!-- Node8&#45;&gt;Node13 -->
<g id="edge6" class="edge">
<title>Node8&#45;&gt;Node13</title>
<path fill="none" stroke="#191970" d="M1526.0183,-66.9562C1666.1856,-46.783 1705.3346,-59.3088 1840,-31 1847.3818,-29.4482 1855.2328,-27.2734 1862.4729,-25.0426"/>
<polygon fill="#191970" stroke="#191970" points="1525.1334,-63.5486 1515.749,-68.4662 1526.1518,-70.4741 1525.1334,-63.5486"/>
</g>
<!-- Node14 -->
<g id="node8" class="node">
<title>Node14</title>
<g id="a_node8"><a xlink:href="confirmreplacedlg_8cpp" target="_top" xlink:title="confirmreplacedlg.cpp">
<polygon fill="none" stroke="#000000" points="1950,-6 1950,-25 2060,-25 2060,-6 1950,-6"/>
<text text-anchor="middle" x="2005" y="-13" font-family="FreeSans" font-size="10.00" fill="#000000">confirmreplacedlg.cpp</text>
</a>
</g>
</g>
<!-- Node8&#45;&gt;Node14 -->
<g id="edge7" class="edge">
<title>Node8&#45;&gt;Node14</title>
<path fill="none" stroke="#191970" d="M1525.7896,-67.0255C1710.6608,-42.7225 1761.0684,-60.4007 1941,-31 1950.3646,-29.4698 1960.3844,-27.3025 1969.6502,-25.0721"/>
<polygon fill="#191970" stroke="#191970" points="1525.1828,-63.5754 1515.7354,-68.3709 1526.1113,-70.5136 1525.1828,-63.5754"/>
</g>
<!-- Node15 -->
<g id="node9" class="node">
<title>Node15</title>
<g id="a_node9"><a xlink:href="editorbase_8cpp" target="_top" xlink:title="editorbase.cpp">
<polygon fill="none" stroke="#000000" points="2078.5,-6 2078.5,-25 2157.5,-25 2157.5,-6 2078.5,-6"/>
<text text-anchor="middle" x="2118" y="-13" font-family="FreeSans" font-size="10.00" fill="#000000">editorbase.cpp</text>
</a>
</g>
</g>
<!-- Node8&#45;&gt;Node15 -->
<g id="edge8" class="edge">
<title>Node8&#45;&gt;Node15</title>
<path fill="none" stroke="#191970" d="M1525.8655,-67.0512C1767.2503,-37.9378 1834.1383,-75.2495 2069,-31 2076.5406,-29.5793 2084.5447,-27.3639 2091.8499,-25.0481"/>
<polygon fill="#191970" stroke="#191970" points="1525.2231,-63.6038 1515.7262,-68.3006 1526.0792,-70.5513 1525.2231,-63.6038"/>
</g>
<!-- Node16 -->
<g id="node10" class="node">
<title>Node16</title>
<g id="a_node10"><a xlink:href="editorcolourset_8cpp" target="_top" xlink:title="editorcolourset.cpp">
<polygon fill="none" stroke="#000000" points="318,-6 318,-25 416,-25 416,-6 318,-6"/>
<text text-anchor="middle" x="367" y="-13" font-family="FreeSans" font-size="10.00" fill="#000000">editorcolourset.cpp</text>
</a>
</g>
</g>
<!-- Node8&#45;&gt;Node16 -->
<g id="edge9" class="edge">
<title>Node8&#45;&gt;Node16</title>
<path fill="none" stroke="#191970" d="M1416.3681,-76.1631C1229.8338,-73.0608 618.9612,-60.8192 425,-31 416.0375,-29.6221 406.468,-27.3906 397.7393,-25.0448"/>
<polygon fill="#191970" stroke="#191970" points="1416.4309,-79.6645 1426.487,-76.3293 1416.5459,-72.6655 1416.4309,-79.6645"/>
</g>
<!-- Node17 -->
<g id="node11" class="node">
<title>Node17</title>
<g id="a_node11"><a xlink:href="editormanager_8cpp" target="_top" xlink:title="editormanager.cpp">
<polygon fill="none" stroke="#000000" points="434,-6 434,-25 530,-25 530,-6 434,-6"/>
<text text-anchor="middle" x="482" y="-13" font-family="FreeSans" font-size="10.00" fill="#000000">editormanager.cpp</text>
</a>
</g>
</g>
<!-- Node8&#45;&gt;Node17 -->
<g id="edge10" class="edge">
<title>Node8&#45;&gt;Node17</title>
<path fill="none" stroke="#191970" d="M1416.0905,-75.8133C1243.0499,-71.8332 710.4895,-57.6839 540,-31 531.0412,-29.5978 521.473,-27.3585 512.7442,-25.0131"/>
<polygon fill="#191970" stroke="#191970" points="1416.162,-79.3157 1426.2391,-76.0445 1416.3215,-72.3175 1416.162,-79.3157"/>
</g>
<!-- Node18 -->
<g id="node12" class="node">
<title>Node18</title>
<g id="a_node12"><a xlink:href="filemanager_8cpp" target="_top" xlink:title="filemanager.cpp">
<polygon fill="none" stroke="#000000" points="2175,-6 2175,-25 2259,-25 2259,-6 2175,-6"/>
<text text-anchor="middle" x="2217" y="-13" font-family="FreeSans" font-size="10.00" fill="#000000">filemanager.cpp</text>
</a>
</g>
</g>
<!-- Node8&#45;&gt;Node18 -->
<g id="edge11" class="edge">
<title>Node8&#45;&gt;Node18</title>
<path fill="none" stroke="#191970" d="M1525.9351,-67.057C1810.5743,-34.0418 1889.0455,-81.0944 2167,-31 2174.7813,-29.5976 2183.0484,-27.3583 2190.5725,-25.0128"/>
<polygon fill="#191970" stroke="#191970" points="1525.2413,-63.6146 1515.7219,-68.2656 1526.064,-70.5661 1525.2413,-63.6146"/>
</g>
<!-- Node19 -->
<g id="node13" class="node">
<title>Node19</title>
<g id="a_node13"><a xlink:href="macrosmanager_8cpp" target="_top" xlink:title="macrosmanager.cpp">
<polygon fill="none" stroke="#000000" points="2277,-6 2277,-25 2381,-25 2381,-6 2277,-6"/>
<text text-anchor="middle" x="2329" y="-13" font-family="FreeSans" font-size="10.00" fill="#000000">macrosmanager.cpp</text>
</a>
</g>
</g>
<!-- Node8&#45;&gt;Node19 -->
<g id="edge12" class="edge">
<title>Node8&#45;&gt;Node19</title>
<path fill="none" stroke="#191970" d="M1526.028,-67.0547C1855.2193,-29.8515 1944.3877,-79.4536 2268,-31 2277.4015,-29.5923 2287.4581,-27.3513 2296.6386,-25.0059"/>
<polygon fill="#191970" stroke="#191970" points="1525.2539,-63.6205 1515.7188,-68.2391 1526.053,-70.5747 1525.2539,-63.6205"/>
</g>
<!-- Node20 -->
<g id="node14" class="node">
<title>Node20</title>
<g id="a_node14"><a xlink:href="newfromtemplatedlg_8cpp" target="_top" xlink:title="newfromtemplatedlg.cpp">
<polygon fill="none" stroke="#000000" points="2399,-6 2399,-25 2521,-25 2521,-6 2399,-6"/>
<text text-anchor="middle" x="2460" y="-13" font-family="FreeSans" font-size="10.00" fill="#000000">newfromtemplatedlg.cpp</text>
</a>
</g>
</g>
<!-- Node8&#45;&gt;Node20 -->
<g id="edge13" class="edge">
<title>Node8&#45;&gt;Node20</title>
<path fill="none" stroke="#191970" d="M1525.6923,-67.1004C1909.0996,-24.8252 2011.7175,-80.3608 2390,-31 2400.738,-29.5988 2412.2621,-27.3599 2422.7978,-25.0144"/>
<polygon fill="#191970" stroke="#191970" points="1525.2654,-63.6262 1515.7161,-68.2154 1526.043,-70.5829 1525.2654,-63.6262"/>
</g>
<!-- Node21 -->
<g id="node15" class="node">
<title>Node21</title>
<g id="a_node15"><a xlink:href="scriptbindings_8cpp" target="_top" xlink:title="scriptbindings.cpp">
<polygon fill="none" stroke="#000000" points="2539.5,-6 2539.5,-25 2632.5,-25 2632.5,-6 2539.5,-6"/>
<text text-anchor="middle" x="2586" y="-13" font-family="FreeSans" font-size="10.00" fill="#000000">scriptbindings.cpp</text>
</a>
</g>
</g>
<!-- Node8&#45;&gt;Node21 -->
<g id="edge14" class="edge">
<title>Node8&#45;&gt;Node21</title>
<path fill="none" stroke="#191970" d="M1525.9549,-67.0819C1971.0978,-19.391 2091.6055,-98.5648 2530,-31 2538.7736,-29.6478 2548.1326,-27.3937 2556.6377,-25.0175"/>
<polygon fill="#191970" stroke="#191970" points="1525.277,-63.6349 1515.7138,-68.1952 1526.0336,-70.5939 1525.277,-63.6349"/>
</g>
<!-- Node22 -->
<g id="node16" class="node">
<title>Node22</title>
<g id="a_node16"><a xlink:href="searchresultslog_8cpp" target="_top" xlink:title="searchresultslog.cpp">
<polygon fill="none" stroke="#000000" points="2651,-6 2651,-25 2755,-25 2755,-6 2651,-6"/>
<text text-anchor="middle" x="2703" y="-13" font-family="FreeSans" font-size="10.00" fill="#000000">searchresultslog.cpp</text>
</a>
</g>
</g>
<!-- Node8&#45;&gt;Node22 -->
<g id="edge15" class="edge">
<title>Node8&#45;&gt;Node22</title>
<path fill="none" stroke="#191970" d="M1525.9784,-67.0836C2020.6391,-14.8075 2153.5559,-100.0941 2642,-31 2651.5208,-29.6532 2661.7041,-27.4008 2670.9693,-25.0245"/>
<polygon fill="#191970" stroke="#191970" points="1525.283,-63.638 1515.7125,-68.1827 1526.0283,-70.5982 1525.283,-63.638"/>
</g>
<!-- Node23 -->
<g id="node17" class="node">
<title>Node23</title>
<g id="a_node17"><a xlink:href="app_8cpp" target="_top" xlink:title="app.cpp">
<polygon fill="none" stroke="#000000" points="2773,-6 2773,-25 2823,-25 2823,-6 2773,-6"/>
<text text-anchor="middle" x="2798" y="-13" font-family="FreeSans" font-size="10.00" fill="#000000">app.cpp</text>
</a>
</g>
</g>
<!-- Node8&#45;&gt;Node23 -->
<g id="edge16" class="edge">
<title>Node8&#45;&gt;Node23</title>
<path fill="none" stroke="#191970" d="M1525.8362,-67.1402C1815.1737,-39.1206 2498.8475,-92.6339 2764,-31 2769.5605,-29.7075 2775.3158,-27.472 2780.4748,-25.0946"/>
<polygon fill="#191970" stroke="#191970" points="1525.3051,-63.6761 1515.7113,-68.1717 1526.0146,-70.6401 1525.3051,-63.6761"/>
</g>
<!-- Node24 -->
<g id="node18" class="node">
<title>Node24</title>
<g id="a_node18"><a xlink:href="breakpointsdlg_8cpp" target="_top" xlink:title="breakpointsdlg.cpp">
<polygon fill="none" stroke="#000000" points="2841.5,-6 2841.5,-25 2938.5,-25 2938.5,-6 2841.5,-6"/>
<text text-anchor="middle" x="2890" y="-13" font-family="FreeSans" font-size="10.00" fill="#000000">breakpointsdlg.cpp</text>
</a>
</g>
</g>
<!-- Node8&#45;&gt;Node24 -->
<g id="edge17" class="edge">
<title>Node8&#45;&gt;Node24</title>
<path fill="none" stroke="#191970" d="M1525.9878,-67.0896C2104.7087,-7.1753 2260.3031,-114.0954 2832,-31 2841.0767,-29.6807 2850.7667,-27.4369 2859.5758,-25.06"/>
<polygon fill="#191970" stroke="#191970" points="1525.2915,-63.6433 1515.7107,-68.1664 1526.0211,-70.6052 1525.2915,-63.6433"/>
</g>
<!-- Node25 -->
<g id="node19" class="node">
<title>Node25</title>
<g id="a_node19"><a xlink:href="crashhandler_8cpp" target="_top" xlink:title="crashhandler.cpp">
<polygon fill="none" stroke="#000000" points="2956.5,-6 2956.5,-25 3045.5,-25 3045.5,-6 2956.5,-6"/>
<text text-anchor="middle" x="3001" y="-13" font-family="FreeSans" font-size="10.00" fill="#000000">crashhandler.cpp</text>
</a>
</g>
</g>
<!-- Node8&#45;&gt;Node25 -->
<g id="edge18" class="edge">
<title>Node8&#45;&gt;Node25</title>
<path fill="none" stroke="#191970" d="M1525.8214,-67.1358C1855.8781,-35.0255 2638.669,-79.3042 2948,-31 2956.4301,-29.6836 2965.4045,-27.4091 2973.5258,-25.0018"/>
<polygon fill="#191970" stroke="#191970" points="1525.3069,-63.6699 1515.7099,-68.1586 1526.0114,-70.6344 1525.3069,-63.6699"/>
</g>
<!-- Node26 -->
<g id="node20" class="node">
<title>Node26</title>
<g id="a_node20"><a xlink:href="debugger__interface__creator_8cpp" target="_top" xlink:title="debugger_interface\l_creator.cpp">
<polygon fill="none" stroke="#000000" points="548.5,-.5 548.5,-30.5 647.5,-30.5 647.5,-.5 548.5,-.5"/>
<text text-anchor="start" x="556.5" y="-18.5" font-family="FreeSans" font-size="10.00" fill="#000000">debugger_interface</text>
<text text-anchor="middle" x="598" y="-7.5" font-family="FreeSans" font-size="10.00" fill="#000000">_creator.cpp</text>
</a>
</g>
</g>
<!-- Node8&#45;&gt;Node26 -->
<g id="edge19" class="edge">
<title>Node8&#45;&gt;Node26</title>
<path fill="none" stroke="#191970" d="M1415.9285,-75.3279C1257.7182,-70.2956 803.8357,-54.1962 657,-31 653.9663,-30.5208 650.8629,-29.9512 647.7443,-29.3179"/>
<polygon fill="#191970" stroke="#191970" points="1416.253,-78.8398 1426.3585,-75.6572 1416.474,-71.8433 1416.253,-78.8398"/>
</g>
<!-- Node27 -->
<g id="node21" class="node">
<title>Node27</title>
<g id="a_node21"><a xlink:href="debuggermenu_8cpp" target="_top" xlink:title="debuggermenu.cpp">
<polygon fill="none" stroke="#000000" points="666,-6 666,-25 764,-25 764,-6 666,-6"/>
<text text-anchor="middle" x="715" y="-13" font-family="FreeSans" font-size="10.00" fill="#000000">debuggermenu.cpp</text>
</a>
</g>
</g>
<!-- Node8&#45;&gt;Node27 -->
<g id="edge20" class="edge">
<title>Node8&#45;&gt;Node27</title>
<path fill="none" stroke="#191970" d="M1415.8373,-74.759C1273.5194,-68.7537 896.4745,-51.3665 773,-31 764.2587,-29.5582 754.928,-27.365 746.3629,-25.0784"/>
<polygon fill="#191970" stroke="#191970" points="1415.9352,-78.2661 1426.0731,-75.1883 1416.2286,-71.2722 1415.9352,-78.2661"/>
</g>
<!-- Node28 -->
<g id="node22" class="node">
<title>Node28</title>
<g id="a_node22"><a xlink:href="editorconfigurationdlg_8cpp" target="_top" xlink:title="editorconfigurationdlg.cpp">
<polygon fill="none" stroke="#000000" points="100,-6 100,-25 226,-25 226,-6 100,-6"/>
<text text-anchor="middle" x="163" y="-13" font-family="FreeSans" font-size="10.00" fill="#000000">editorconfigurationdlg.cpp</text>
</a>
</g>
</g>
<!-- Node8&#45;&gt;Node28 -->
<g id="edge21" class="edge">
<title>Node8&#45;&gt;Node28</title>
<path fill="none" stroke="#191970" d="M1416.1258,-76.234C1208.1588,-73.1329 468.4943,-60.2498 235,-31 223.9621,-29.6173 212.111,-27.3842 201.2742,-25.0385"/>
<polygon fill="#191970" stroke="#191970" points="1416.1481,-79.7347 1426.1988,-76.3828 1416.2515,-72.7354 1416.1481,-79.7347"/>
</g>
<!-- Node29 -->
<g id="node23" class="node">
<title>Node29</title>
<g id="a_node23"><a xlink:href="find__replace_8cpp" target="_top" xlink:title="find_replace.cpp">
<polygon fill="none" stroke="#000000" points="782,-6 782,-25 868,-25 868,-6 782,-6"/>
<text text-anchor="middle" x="825" y="-13" font-family="FreeSans" font-size="10.00" fill="#000000">find_replace.cpp</text>
</a>
</g>
</g>
<!-- Node8&#45;&gt;Node29 -->
<g id="edge22" class="edge">
<title>Node8&#45;&gt;Node29</title>
<path fill="none" stroke="#191970" d="M1416.2446,-74.2506C1289.6345,-67.6517 979.626,-50.045 877,-31 869.1272,-29.539 860.7497,-27.3394 853.0705,-25.0527"/>
<polygon fill="#191970" stroke="#191970" points="1416.3114,-77.7586 1426.4791,-74.7808 1416.6736,-70.768 1416.3114,-77.7586"/>
</g>
<!-- Node30 -->
<g id="node24" class="node">
<title>Node30</title>
<g id="a_node24"><a xlink:href="main_8cpp" target="_top" xlink:title="main.cpp">
<polygon fill="none" stroke="#000000" points="244,-6 244,-25 300,-25 300,-6 244,-6"/>
<text text-anchor="middle" x="272" y="-13" font-family="FreeSans" font-size="10.00" fill="#000000">main.cpp</text>
</a>
</g>
</g>
<!-- Node8&#45;&gt;Node30 -->
<g id="edge23" class="edge">
<title>Node8&#45;&gt;Node30</title>
<path fill="none" stroke="#191970" d="M1416.1096,-75.9749C1200.4298,-71.7901 417.6028,-55.0734 309,-31 303.0165,-29.6737 296.7746,-27.4276 291.1589,-25.0509"/>
<polygon fill="#191970" stroke="#191970" points="1416.1788,-79.4768 1426.2444,-76.1704 1416.3138,-72.4781 1416.1788,-79.4768"/>
</g>
<!-- Node31 -->
<g id="node25" class="node">
<title>Node31</title>
<g id="a_node25"><a xlink:href="printdlg_8cpp" target="_top" xlink:title="printdlg.cpp">
<polygon fill="none" stroke="#000000" points="886,-6 886,-25 952,-25 952,-6 886,-6"/>
<text text-anchor="middle" x="919" y="-13" font-family="FreeSans" font-size="10.00" fill="#000000">printdlg.cpp</text>
</a>
</g>
</g>
<!-- Node8&#45;&gt;Node31 -->
<g id="edge24" class="edge">
<title>Node8&#45;&gt;Node31</title>
<path fill="none" stroke="#191970" d="M1416.1178,-73.819C1303.001,-66.9715 1047.3698,-49.9154 962,-31 955.492,-29.558 948.6253,-27.3935 942.3359,-25.1359"/>
<polygon fill="#191970" stroke="#191970" points="1416.0936,-77.3238 1426.2856,-74.4302 1416.5136,-70.3364 1416.0936,-77.3238"/>
</g>
<!-- Node32 -->
<g id="node26" class="node">
<title>Node32</title>
<g id="a_node26"><a xlink:href="classbrowser_8cpp" target="_top" xlink:title="classbrowser.cpp">
<polygon fill="none" stroke="#000000" points="970.5,-6 970.5,-25 1059.5,-25 1059.5,-6 970.5,-6"/>
<text text-anchor="middle" x="1015" y="-13" font-family="FreeSans" font-size="10.00" fill="#000000">classbrowser.cpp</text>
</a>
</g>
</g>
<!-- Node8&#45;&gt;Node32 -->
<g id="edge25" class="edge">
<title>Node8&#45;&gt;Node32</title>
<path fill="none" stroke="#191970" d="M1416.2593,-73.6206C1338.4837,-68.1677 1191.7982,-55.4743 1069,-31 1061.0607,-29.4177 1052.5932,-27.232 1044.7745,-25.0007"/>
<polygon fill="#191970" stroke="#191970" points="1416.0935,-77.1173 1426.3101,-74.3116 1416.5737,-70.1338 1416.0935,-77.1173"/>
</g>
<!-- Node33 -->
<g id="node27" class="node">
<title>Node33</title>
<g id="a_node27"><a xlink:href="codecompletion_8cpp" target="_top" xlink:title="codecompletion.cpp">
<polygon fill="none" stroke="#000000" points="1077.5,-6 1077.5,-25 1180.5,-25 1180.5,-6 1077.5,-6"/>
<text text-anchor="middle" x="1129" y="-13" font-family="FreeSans" font-size="10.00" fill="#000000">codecompletion.cpp</text>
</a>
</g>
</g>
<!-- Node8&#45;&gt;Node33 -->
<g id="edge26" class="edge">
<title>Node8&#45;&gt;Node33</title>
<path fill="none" stroke="#191970" d="M1416.2958,-69.4769C1359.4788,-61.3289 1268.1318,-47.2898 1190,-31 1181.6565,-29.2604 1172.7344,-27.142 1164.3609,-25.037"/>
<polygon fill="#191970" stroke="#191970" points="1416.0984,-72.9841 1426.492,-70.929 1417.0854,-66.054 1416.0984,-72.9841"/>
</g>
<!-- Node34 -->
<g id="node28" class="node">
<title>Node34</title>
<g id="a_node28"><a xlink:href="coderefactoring_8cpp" target="_top" xlink:title="coderefactoring.cpp">
<polygon fill="none" stroke="#000000" points="1198.5,-6 1198.5,-25 1299.5,-25 1299.5,-6 1198.5,-6"/>
<text text-anchor="middle" x="1249" y="-13" font-family="FreeSans" font-size="10.00" fill="#000000">coderefactoring.cpp</text>
</a>
</g>
</g>
<!-- Node8&#45;&gt;Node34 -->
<g id="edge27" class="edge">
<title>Node8&#45;&gt;Node34</title>
<path fill="none" stroke="#191970" d="M1426.5888,-64.6969C1384.4342,-53.0189 1321.9541,-35.7103 1283.4439,-25.0419"/>
<polygon fill="#191970" stroke="#191970" points="1425.741,-68.0938 1436.3125,-67.3906 1427.6099,-61.3479 1425.741,-68.0938"/>
</g>
<!-- Node35 -->
<g id="node29" class="node">
<title>Node35</title>
<g id="a_node29"><a xlink:href="doxygen__parser_8cpp" target="_top" xlink:title="doxygen_parser.cpp">
<polygon fill="none" stroke="#000000" points="1317.5,-6 1317.5,-25 1418.5,-25 1418.5,-6 1317.5,-6"/>
<text text-anchor="middle" x="1368" y="-13" font-family="FreeSans" font-size="10.00" fill="#000000">doxygen_parser.cpp</text>
</a>
</g>
</g>
<!-- Node8&#45;&gt;Node35 -->
<g id="edge28" class="edge">
<title>Node8&#45;&gt;Node35</title>
<path fill="none" stroke="#191970" d="M1446.311,-62.2585C1426.9732,-50.7122 1400.6418,-34.99 1383.9807,-25.0419"/>
<polygon fill="#191970" stroke="#191970" points="1444.526,-65.2691 1454.9063,-67.3906 1448.1146,-59.2589 1444.526,-65.2691"/>
</g>
<!-- Node41&#45;&gt;Node16 -->
<g id="edge31" class="edge">
<title>Node41&#45;&gt;Node16</title>
<path fill="none" stroke="#191970" d="M332.8564,-59.2465C341.4956,-48.1775 352.2837,-34.3552 359.3943,-25.2449"/>
<polygon fill="#191970" stroke="#191970" points="329.8936,-57.354 326.5,-67.3906 335.4119,-61.6609 329.8936,-57.354"/>
</g>
<!-- Node41&#45;&gt;Node17 -->
<g id="edge32" class="edge">
<title>Node41&#45;&gt;Node17</title>
<path fill="none" stroke="#191970" d="M353.9871,-63.7993C384.8711,-52.1468 429.1504,-35.4402 456.7101,-25.0419"/>
<polygon fill="#191970" stroke="#191970" points="352.5894,-60.5858 344.4688,-67.3906 355.0605,-67.1351 352.5894,-60.5858"/>
</g>
<!-- Node41&#45;&gt;Node28 -->
<g id="edge33" class="edge">
<title>Node41&#45;&gt;Node28</title>
<path fill="none" stroke="#191970" d="M285.1308,-63.6477C255.5912,-52.0023 213.4658,-35.3952 187.2038,-25.0419"/>
<polygon fill="#191970" stroke="#191970" points="284.0382,-66.9791 294.625,-67.3906 286.6055,-60.4669 284.0382,-66.9791"/>
</g>
<!-- Node41&#45;&gt;Node30 -->
<g id="edge34" class="edge">
<title>Node41&#45;&gt;Node30</title>
<path fill="none" stroke="#191970" d="M305.4323,-59.2465C296.9731,-48.1775 286.4097,-34.3552 279.4473,-25.2449"/>
<polygon fill="#191970" stroke="#191970" points="302.8032,-61.5704 311.6563,-67.3906 308.365,-57.3199 302.8032,-61.5704"/>
</g>
<!-- Node41&#45;&gt;Node42 -->
<g id="edge30" class="edge">
<title>Node41&#45;&gt;Node42</title>
<path fill="none" stroke="#191970" d="M265.5743,-67.8063C219.1469,-59.4403 150.2352,-46.1154 91,-31 84.1314,-29.2473 76.8066,-27.1237 69.9413,-25.018"/>
<polygon fill="#191970" stroke="#191970" points="264.9584,-71.2516 275.4184,-69.5665 266.1906,-64.3609 264.9584,-71.2516"/>
</g>
</g>
</svg>
