<?xml version="1.0" encoding="UTF-8" standalone="no"?>
<!DOCTYPE svg PUBLIC "-//W3C//DTD SVG 1.1//EN"
 "http://www.w3.org/Graphics/SVG/1.1/DTD/svg11.dtd">
<!-- Generated by graphviz version 2.38.0 (20140413.2041)
 -->
<!-- Title: xtra_res.cpp Pages: 1 -->
<svg width="635pt" height="196pt"
 viewBox="0.00 0.00 634.50 196.00" xmlns="http://www.w3.org/2000/svg" xmlns:xlink="http://www.w3.org/1999/xlink">
<g id="graph0" class="graph" transform="scale(1 1) rotate(0) translate(4 192)">
<title>xtra_res.cpp</title>
<polygon fill="white" stroke="none" points="-4,4 -4,-192 630.5,-192 630.5,4 -4,4"/>
<!-- Node1 -->
<g id="node1" class="node"><title>Node1</title>
<polygon fill="#bfbfbf" stroke="black" points="392,-168.5 392,-187.5 460,-187.5 460,-168.5 392,-168.5"/>
<text text-anchor="middle" x="426" y="-175.5" font-family="FreeSans" font-size="10.00">xtra_res.cpp</text>
</g>
<!-- Node2 -->
<g id="node2" class="node"><title>Node2</title>
<g id="a_node2"><a xlink:href="sdk__precomp_8h" target="_top" xlink:title="sdk_precomp.h">
<polygon fill="white" stroke="black" points="108,-112.5 108,-131.5 190,-131.5 190,-112.5 108,-112.5"/>
<text text-anchor="middle" x="149" y="-119.5" font-family="FreeSans" font-size="10.00">sdk_precomp.h</text>
</a>
</g>
</g>
<!-- Node1&#45;&gt;Node2 -->
<g id="edge1" class="edge"><title>Node1&#45;&gt;Node2</title>
<path fill="none" stroke="midnightblue" d="M391.757,-170.324C343.79,-160.974 256.225,-143.903 200.412,-133.022"/>
<polygon fill="midnightblue" stroke="midnightblue" points="200.861,-129.544 190.376,-131.066 199.522,-136.415 200.861,-129.544"/>
</g>
<!-- Node6 -->
<g id="node6" class="node"><title>Node6</title>
<g id="a_node6"><a xlink:href="xtra__res_8h" target="_top" xlink:title="xtra_res.h">
<polygon fill="white" stroke="black" points="264,-112.5 264,-131.5 322,-131.5 322,-112.5 264,-112.5"/>
<text text-anchor="middle" x="293" y="-119.5" font-family="FreeSans" font-size="10.00">xtra_res.h</text>
</a>
</g>
</g>
<!-- Node1&#45;&gt;Node6 -->
<g id="edge5" class="edge"><title>Node1&#45;&gt;Node6</title>
<path fill="none" stroke="midnightblue" d="M404.926,-168.444C382.94,-159.517 348.266,-145.439 323.336,-135.317"/>
<polygon fill="midnightblue" stroke="midnightblue" points="324.558,-132.035 313.976,-131.516 321.924,-138.521 324.558,-132.035"/>
</g>
<!-- Node10 -->
<g id="node10" class="node"><title>Node10</title>
<g id="a_node10"><a xlink:href="scrollingdialog_8h" target="_top" xlink:title="scrollingdialog.h">
<polygon fill="white" stroke="black" points="383.5,-112.5 383.5,-131.5 468.5,-131.5 468.5,-112.5 383.5,-112.5"/>
<text text-anchor="middle" x="426" y="-119.5" font-family="FreeSans" font-size="10.00">scrollingdialog.h</text>
</a>
</g>
</g>
<!-- Node1&#45;&gt;Node10 -->
<g id="edge9" class="edge"><title>Node1&#45;&gt;Node10</title>
<path fill="none" stroke="midnightblue" d="M426,-168.083C426,-161.006 426,-150.861 426,-141.986"/>
<polygon fill="midnightblue" stroke="midnightblue" points="429.5,-141.751 426,-131.751 422.5,-141.751 429.5,-141.751"/>
</g>
<!-- Node13 -->
<g id="node13" class="node"><title>Node13</title>
<polygon fill="white" stroke="#bfbfbf" points="487,-112.5 487,-131.5 537,-131.5 537,-112.5 487,-112.5"/>
<text text-anchor="middle" x="512" y="-119.5" font-family="FreeSans" font-size="10.00">wx/wx.h</text>
</g>
<!-- Node1&#45;&gt;Node13 -->
<g id="edge12" class="edge"><title>Node1&#45;&gt;Node13</title>
<path fill="none" stroke="midnightblue" d="M439.817,-168.324C453.233,-159.9 473.824,-146.971 489.586,-137.074"/>
<polygon fill="midnightblue" stroke="midnightblue" points="491.609,-139.936 498.217,-131.655 487.887,-134.008 491.609,-139.936"/>
</g>
<!-- Node14 -->
<g id="node14" class="node"><title>Node14</title>
<polygon fill="white" stroke="#bfbfbf" points="555.5,-112.5 555.5,-131.5 626.5,-131.5 626.5,-112.5 555.5,-112.5"/>
<text text-anchor="middle" x="591" y="-119.5" font-family="FreeSans" font-size="10.00">wx/xml/xml.h</text>
</g>
<!-- Node1&#45;&gt;Node14 -->
<g id="edge13" class="edge"><title>Node1&#45;&gt;Node14</title>
<path fill="none" stroke="midnightblue" d="M452.145,-168.444C480.023,-159.32 524.348,-144.813 555.4,-134.651"/>
<polygon fill="midnightblue" stroke="midnightblue" points="556.562,-137.953 564.978,-131.516 554.385,-131.3 556.562,-137.953"/>
</g>
<!-- Node3 -->
<g id="node3" class="node"><title>Node3</title>
<g id="a_node3"><a xlink:href="sdk__common_8h" target="_top" xlink:title="sdk_common.h">
<polygon fill="white" stroke="black" points="30,-56.5 30,-75.5 112,-75.5 112,-56.5 30,-56.5"/>
<text text-anchor="middle" x="71" y="-63.5" font-family="FreeSans" font-size="10.00">sdk_common.h</text>
</a>
</g>
</g>
<!-- Node2&#45;&gt;Node3 -->
<g id="edge2" class="edge"><title>Node2&#45;&gt;Node3</title>
<path fill="none" stroke="midnightblue" d="M136.468,-112.324C124.414,-103.979 105.973,-91.2122 91.7313,-81.3524"/>
<polygon fill="midnightblue" stroke="midnightblue" points="93.7151,-78.469 83.5009,-75.6545 89.7306,-84.2243 93.7151,-78.469"/>
</g>
<!-- Node4 -->
<g id="node4" class="node"><title>Node4</title>
<polygon fill="white" stroke="#bfbfbf" points="0,-0.5 0,-19.5 68,-19.5 68,-0.5 0,-0.5"/>
<text text-anchor="middle" x="34" y="-7.5" font-family="FreeSans" font-size="10.00">wx/wxprec.h</text>
</g>
<!-- Node3&#45;&gt;Node4 -->
<g id="edge3" class="edge"><title>Node3&#45;&gt;Node4</title>
<path fill="none" stroke="midnightblue" d="M64.8902,-56.083C59.7178,-48.5341 52.1539,-37.4948 45.8056,-28.2298"/>
<polygon fill="midnightblue" stroke="midnightblue" points="48.5357,-26.0221 39.9961,-19.7511 42.7612,-29.9787 48.5357,-26.0221"/>
</g>
<!-- Node5 -->
<g id="node5" class="node"><title>Node5</title>
<g id="a_node5"><a xlink:href="prep_8h" target="_top" xlink:title="prep.h">
<polygon fill="white" stroke="black" points="86.5,-0.5 86.5,-19.5 129.5,-19.5 129.5,-0.5 86.5,-0.5"/>
<text text-anchor="middle" x="108" y="-7.5" font-family="FreeSans" font-size="10.00">prep.h</text>
</a>
</g>
</g>
<!-- Node3&#45;&gt;Node5 -->
<g id="edge4" class="edge"><title>Node3&#45;&gt;Node5</title>
<path fill="none" stroke="midnightblue" d="M77.1098,-56.083C82.2822,-48.5341 89.8461,-37.4948 96.1944,-28.2298"/>
<polygon fill="midnightblue" stroke="midnightblue" points="99.2388,-29.9787 102.004,-19.7511 93.4643,-26.0221 99.2388,-29.9787"/>
</g>
<!-- Node7 -->
<g id="node7" class="node"><title>Node7</title>
<polygon fill="white" stroke="#bfbfbf" points="130,-56.5 130,-75.5 212,-75.5 212,-56.5 130,-56.5"/>
<text text-anchor="middle" x="171" y="-63.5" font-family="FreeSans" font-size="10.00">wx/xrc/xmlres.h</text>
</g>
<!-- Node6&#45;&gt;Node7 -->
<g id="edge6" class="edge"><title>Node6&#45;&gt;Node7</title>
<path fill="none" stroke="midnightblue" d="M273.669,-112.444C253.68,-103.596 222.257,-89.6875 199.436,-79.5865"/>
<polygon fill="midnightblue" stroke="midnightblue" points="200.802,-76.3635 190.241,-75.5164 197.968,-82.7645 200.802,-76.3635"/>
</g>
<!-- Node8 -->
<g id="node8" class="node"><title>Node8</title>
<polygon fill="white" stroke="#bfbfbf" points="230,-56.5 230,-75.5 312,-75.5 312,-56.5 230,-56.5"/>
<text text-anchor="middle" x="271" y="-63.5" font-family="FreeSans" font-size="10.00">wx/xrc/xh_dlg.h</text>
</g>
<!-- Node6&#45;&gt;Node8 -->
<g id="edge7" class="edge"><title>Node6&#45;&gt;Node8</title>
<path fill="none" stroke="midnightblue" d="M289.367,-112.083C286.388,-104.77 282.074,-94.1814 278.375,-85.1034"/>
<polygon fill="midnightblue" stroke="midnightblue" points="281.58,-83.6914 274.565,-75.7511 275.097,-86.3326 281.58,-83.6914"/>
</g>
<!-- Node9 -->
<g id="node9" class="node"><title>Node9</title>
<polygon fill="white" stroke="#bfbfbf" points="330,-56.5 330,-75.5 398,-75.5 398,-56.5 330,-56.5"/>
<text text-anchor="middle" x="364" y="-63.5" font-family="FreeSans" font-size="10.00">wx/toolbar.h</text>
</g>
<!-- Node6&#45;&gt;Node9 -->
<g id="edge8" class="edge"><title>Node6&#45;&gt;Node9</title>
<path fill="none" stroke="midnightblue" d="M304.407,-112.324C315.109,-104.185 331.341,-91.8395 344.163,-82.0874"/>
<polygon fill="midnightblue" stroke="midnightblue" points="346.544,-84.6734 352.385,-75.8339 342.307,-79.1018 346.544,-84.6734"/>
</g>
<!-- Node11 -->
<g id="node11" class="node"><title>Node11</title>
<polygon fill="white" stroke="#bfbfbf" points="416,-56.5 416,-75.5 480,-75.5 480,-56.5 416,-56.5"/>
<text text-anchor="middle" x="448" y="-63.5" font-family="FreeSans" font-size="10.00">wx/dialog.h</text>
</g>
<!-- Node10&#45;&gt;Node11 -->
<g id="edge10" class="edge"><title>Node10&#45;&gt;Node11</title>
<path fill="none" stroke="midnightblue" d="M429.633,-112.083C432.612,-104.77 436.926,-94.1814 440.625,-85.1034"/>
<polygon fill="midnightblue" stroke="midnightblue" points="443.903,-86.3326 444.435,-75.7511 437.42,-83.6914 443.903,-86.3326"/>
</g>
<!-- Node12 -->
<g id="node12" class="node"><title>Node12</title>
<polygon fill="white" stroke="#bfbfbf" points="498,-56.5 498,-75.5 568,-75.5 568,-56.5 498,-56.5"/>
<text text-anchor="middle" x="533" y="-63.5" font-family="FreeSans" font-size="10.00">wx/propdlg.h</text>
</g>
<!-- Node10&#45;&gt;Node12 -->
<g id="edge11" class="edge"><title>Node10&#45;&gt;Node12</title>
<path fill="none" stroke="midnightblue" d="M443.191,-112.324C460.351,-103.664 486.946,-90.2424 506.747,-80.249"/>
<polygon fill="midnightblue" stroke="midnightblue" points="508.501,-83.2847 515.851,-75.6545 505.347,-77.0354 508.501,-83.2847"/>
</g>
</g>
</svg>
